<?xml version="1.0" encoding="UTF-8" standalone="no"?>
<svg width="2977.2px" height="4208.4px" viewBox="0 0 2977.2 4208.4"
 xmlns="http://www.w3.org/2000/svg" xmlns:xlink="http://www.w3.org/1999/xlink" version="1.2" baseProfile="tiny">
<title>いつかある日</title>
<desc>Generated by MuseScore Studio 4.4.2</desc>
<path class="" fill="#ffffff" fill-rule="evenodd" d="M0,0 L2977.2,0 L2977.2,4208.4 L0,4208.4 L0,0 "/>
<polyline class="StaffLines" fill="none" stroke="#000000" stroke-width="2.73" stroke-linejoin="bevel" points="212.598,634.198 2764.6,634.198"/>
<polyline class="StaffLines" fill="none" stroke="#000000" stroke-width="2.73" stroke-linejoin="bevel" points="212.598,658.998 2764.6,658.998"/>
<polyline class="StaffLines" fill="none" stroke="#000000" stroke-width="2.73" stroke-linejoin="bevel" points="212.598,683.798 2764.6,683.798"/>
<polyline class="StaffLines" fill="none" stroke="#000000" stroke-width="2.73" stroke-linejoin="bevel" points="212.598,708.598 2764.6,708.598"/>
<polyline class="StaffLines" fill="none" stroke="#000000" stroke-width="2.73" stroke-linejoin="bevel" points="212.598,733.398 2764.6,733.398"/>
<polyline class="StaffLines" fill="none" stroke="#000000" stroke-width="2.73" stroke-linejoin="bevel" points="212.598,1105.4 2764.6,1105.4"/>
<polyline class="StaffLines" fill="none" stroke="#000000" stroke-width="2.73" stroke-linejoin="bevel" points="212.598,1130.2 2764.6,1130.2"/>
<polyline class="StaffLines" fill="none" stroke="#000000" stroke-width="2.73" stroke-linejoin="bevel" points="212.598,1155 2764.6,1155"/>
<polyline class="StaffLines" fill="none" stroke="#000000" stroke-width="2.73" stroke-linejoin="bevel" points="212.598,1179.8 2764.6,1179.8"/>
<polyline class="StaffLines" fill="none" stroke="#000000" stroke-width="2.73" stroke-linejoin="bevel" points="212.598,1204.6 2764.6,1204.6"/>
<path class="Text" d="M1177.2,224.046 C1177.42,226.026 1177.42,226.356 1177.53,230.536 C1178.08,257.596 1179.62,271.676 1183.47,282.126 C1187.21,292.686 1192.93,298.846 1199.09,298.846 C1206.9,298.846 1211.96,291.476 1217.35,272.226 C1214.27,269.806 1213.28,268.816 1210.86,265.956 C1209.43,273.436 1207.67,279.266 1205.14,284.766 C1203.49,288.396 1201.62,290.266 1199.64,290.266 C1195.46,290.266 1190.95,282.676 1188.53,271.456 C1186.88,264.416 1185.67,249.346 1185.67,237.246 C1185.67,231.196 1185.89,227.566 1186.44,224.156 L1177.2,224.046 M1232.86,233.396 C1245.73,248.356 1253.76,267.166 1255.74,287.626 L1263.55,284.436 C1261.57,272.116 1259.48,264.306 1255.3,255.066 C1251.23,245.716 1246.72,238.456 1239.57,229.986 L1232.86,233.396 M1284.01,248.026 C1285.88,247.146 1287.31,246.706 1291.93,245.386 C1310.96,240.106 1325.37,237.576 1336.81,237.576 C1351.77,237.576 1360.9,245.056 1360.9,257.376 C1360.9,269.696 1352.43,279.596 1337.36,285.096 C1329,288.176 1319.1,289.716 1306.78,290.156 C1308.76,293.126 1309.31,294.446 1310.19,298.296 C1327.24,296.866 1336.48,294.776 1346.6,289.936 C1361.34,282.786 1369.48,271.236 1369.48,257.486 C1369.48,240.656 1356.72,229.986 1336.59,229.986 C1327.46,229.986 1316.9,231.306 1304.69,234.056 C1285.11,238.456 1285.11,238.456 1281.81,238.676 L1284.01,248.026 M1392.91,249.126 C1395.88,248.356 1396.76,248.136 1399.29,247.696 C1400.28,247.476 1405.56,246.596 1415.02,245.166 C1411.39,259.356 1408.09,269.036 1402.92,280.036 C1399.07,288.396 1394.89,295.656 1391.48,299.946 L1398.96,304.346 C1402.37,298.186 1404.68,293.786 1406.11,291.146 C1413.59,275.966 1418.65,261.886 1422.72,244.506 C1426.79,244.066 1428.22,243.956 1430.64,243.956 C1440.87,243.956 1444.17,247.696 1444.17,259.356 C1444.17,271.676 1442.52,282.896 1439.55,289.936 C1438.12,293.456 1436.03,295.216 1433.28,295.216 C1429.32,295.216 1423.16,293.346 1416.89,290.156 C1417.22,292.136 1417.22,292.906 1417.22,294.556 C1417.22,295.986 1417.22,296.756 1417,298.406 C1424.26,301.486 1428.88,302.696 1433.61,302.696 C1438.78,302.696 1441.75,301.266 1444.39,297.526 C1448.9,291.146 1451.76,276.516 1451.76,259.686 C1451.76,250.666 1450.22,245.606 1446.37,241.976 C1442.96,238.676 1438.34,237.356 1430.53,237.356 C1428,237.356 1426.57,237.466 1424.04,237.686 C1425.03,232.406 1425.8,228.336 1426.35,225.146 C1427.34,218.876 1427.67,217.006 1428.44,214.586 L1419.64,213.596 C1419.64,214.256 1419.64,214.806 1419.64,215.026 C1419.64,219.646 1418.21,230.206 1416.34,238.346 C1407.43,239.776 1395.99,241.096 1392.03,241.206 L1392.91,249.126 M1457.81,234.606 C1468.48,245.496 1476.07,258.916 1480.25,274.096 L1487.29,270.026 C1482.12,254.516 1475.52,243.186 1464.3,231.086 L1457.81,234.606 M1507.42,234.716 C1508.19,234.606 1508.74,234.606 1509.18,234.606 C1509.4,234.606 1510.17,234.606 1511.16,234.716 C1519.96,235.046 1524.91,235.266 1526.01,235.266 L1530.41,235.266 C1529.86,243.296 1529.86,243.846 1529.75,251.876 C1513.8,258.806 1504.23,271.126 1504.23,284.656 C1504.23,294.446 1510.17,301.376 1518.42,301.376 C1526.12,301.376 1534.48,296.866 1542.95,288.066 C1551.53,279.376 1557.47,269.916 1563.85,255.066 C1575.73,258.146 1582,264.746 1582,274.206 C1582,283.996 1575.07,292.026 1563.08,296.206 C1557.8,298.076 1553.07,298.956 1546.58,299.176 C1548.56,302.146 1549.11,303.356 1550.1,306.546 C1560,305.336 1566.27,303.576 1572.54,300.276 C1583.87,294.336 1589.81,285.646 1589.81,274.866 C1589.81,261.996 1581.34,252.646 1566.16,249.126 C1568.03,243.956 1569.24,240.986 1569.57,240.326 L1561.98,238.016 C1561.54,241.316 1560.66,244.616 1559.34,247.916 C1556.59,247.696 1555.27,247.586 1552.96,247.586 C1547.13,247.586 1542.29,248.246 1536.68,249.786 C1536.79,244.396 1536.79,244.396 1537.45,235.046 C1547.68,234.716 1564.4,232.846 1576.39,230.646 C1578.48,230.316 1578.81,230.316 1580.24,230.096 L1579.8,222.396 C1571.44,225.366 1555.82,227.676 1537.89,228.556 C1538.66,219.976 1539.21,216.236 1540.2,213.156 L1531.62,212.606 C1531.73,213.376 1531.73,214.036 1531.73,214.256 C1531.73,215.026 1531.51,219.316 1531.4,220.526 C1530.96,226.136 1530.96,226.136 1530.85,228.776 C1528.87,228.886 1528.43,228.886 1528.1,228.886 C1517.98,228.886 1512.15,228.446 1507.53,227.126 L1507.42,234.716 M1529.75,258.806 C1529.75,272.116 1530.41,280.146 1531.95,288.616 C1527,292.576 1523.37,294.226 1519.3,294.226 C1514.57,294.226 1511.38,290.266 1511.38,284.216 C1511.38,278.716 1513.8,272.886 1518.09,267.826 C1521.17,264.306 1524.36,261.776 1529.75,258.806 M1537.89,283.996 C1537.89,283.446 1537.89,282.896 1537.89,282.786 C1537.89,282.126 1537.89,281.906 1537.78,281.246 C1536.79,272.116 1536.68,270.246 1536.57,256.056 C1541.63,254.406 1546.8,253.526 1551.86,253.526 C1553.07,253.526 1553.62,253.526 1557.14,253.746 C1552.08,265.296 1547.46,272.996 1540.31,281.246 C1539.43,282.126 1539.32,282.346 1538.22,284.106 L1537.89,283.996 M1628.75,228.336 C1631.17,228.006 1632.27,227.896 1634.69,227.786 C1651.41,227.236 1664.61,226.466 1668.13,225.806 C1668.79,225.696 1668.79,225.696 1669.12,225.696 L1669.34,225.916 L1668.9,226.356 C1668.68,226.576 1668.46,226.796 1668.46,226.796 C1667.58,227.676 1667.58,227.676 1666.92,228.336 C1659.33,235.816 1641.95,251.106 1630.18,260.456 C1622.7,266.506 1618.74,269.366 1614.78,271.676 L1619.73,278.716 C1632.49,266.946 1649.87,259.906 1666.04,259.906 C1680.89,259.906 1689.69,266.176 1689.69,276.736 C1689.69,286.086 1683.64,292.796 1672.09,295.986 C1670.55,291.146 1669.34,288.506 1667.03,285.426 C1662.63,279.596 1656.25,276.406 1648.88,276.406 C1639.75,276.406 1632.93,281.906 1632.93,289.276 C1632.93,299.396 1641.84,305.116 1657.35,305.116 C1681.77,305.116 1697.72,293.786 1697.72,276.626 C1697.72,262.546 1685.95,253.526 1667.58,253.526 C1657.9,253.526 1648.99,255.836 1640.63,260.346 L1640.41,260.016 C1648.11,255.066 1661.42,243.626 1676.6,228.776 C1680.12,225.366 1680.67,224.926 1682.21,224.156 L1677.59,218.106 C1676.16,218.876 1675.17,219.096 1672.31,219.316 C1662.41,220.086 1647.78,220.746 1638.65,220.746 C1633.37,220.746 1631.39,220.636 1628.31,220.086 L1628.75,228.336 M1664.83,297.966 C1660.87,298.626 1659.55,298.736 1656.8,298.736 C1652.07,298.736 1647.34,297.746 1644.48,296.206 C1641.51,294.446 1640.08,292.356 1640.08,289.496 C1640.08,285.316 1643.49,282.676 1648.99,282.676 C1656.91,282.676 1662.41,287.956 1664.83,297.966"/>
<path class="Text" d="M1731.49,297.086 C1731.49,302.036 1731.27,305.446 1730.83,308.746 L1738.86,308.746 L1738.86,301.596 L1795.62,301.596 L1795.62,308.746 L1803.65,308.746 C1803.21,305.336 1802.99,302.256 1802.99,296.976 L1802.99,226.466 C1802.99,222.286 1803.1,219.536 1803.54,216.346 C1800.35,216.786 1797.27,216.896 1792.21,216.896 L1742.71,216.896 C1737.65,216.896 1734.46,216.786 1730.94,216.346 C1731.38,219.536 1731.49,222.726 1731.49,227.126 L1731.49,297.086 M1738.86,223.606 L1795.62,223.606 L1795.62,254.406 L1738.86,254.406 L1738.86,223.606 M1738.86,261.116 L1795.62,261.116 L1795.62,294.886 L1738.86,294.886 L1738.86,261.116 "/>
<path class="MeasureNumber" d="M232.288,1027.64 C230.168,1027.88 227.568,1028.04 225.328,1028.04 C224.208,1028.04 222.928,1028 221.488,1027.92 C220.168,1027.84 218.848,1027.76 217.488,1027.68 L216.488,1027.64 L212.608,1036.08 L214.088,1036.56 L215.048,1034.96 C216.928,1031.84 217.808,1031.4 221.888,1031.44 L228.648,1031.44 L224.288,1037.68 C219.168,1044.88 219.168,1044.88 217.208,1048.08 C215.448,1050.92 214.728,1052.68 214.728,1054.12 C214.728,1055.52 215.608,1056.4 217.008,1056.4 C218.488,1056.4 219.248,1055.68 219.768,1053.8 C221.768,1046.28 222.968,1043.68 228.528,1034.68 L232.288,1028.84 L232.288,1027.64 "/>
<path class="TieSegment" stroke="#000000" stroke-width="1.74" stroke-linecap="round" stroke-linejoin="round" fill-rule="evenodd" d="M1168.66,1124.5 C1190.06,1105.08 1254.27,1105.08 1275.68,1124.5 C1254.27,1112.02 1190.06,1112.02 1168.66,1124.5"/>
<polyline class="BarLine" fill="none" stroke="#000000" stroke-width="4.46" stroke-linejoin="bevel" points="1539.21,632.834 1539.21,734.762"/>
<polyline class="BarLine" fill="none" stroke="#000000" stroke-width="4.46" stroke-linejoin="bevel" points="2740.42,1104.03 2740.42,1205.96"/>
<polyline class="BarLine" fill="none" stroke="#000000" stroke-width="13.64" stroke-linejoin="bevel" points="2757.78,1104.03 2757.78,1205.96"/>
<polyline class="BarLine" fill="none" stroke="#000000" stroke-width="4.46" stroke-linejoin="bevel" points="1113.65,1104.03 1113.65,1205.96"/>
<polyline class="BarLine" fill="none" stroke="#000000" stroke-width="4.46" stroke-linejoin="bevel" points="2174.14,1104.03 2174.14,1205.96"/>
<polyline class="BarLine" fill="none" stroke="#000000" stroke-width="4.46" stroke-linejoin="bevel" points="1990.15,632.834 1990.15,734.762"/>
<polyline class="BarLine" fill="none" stroke="#000000" stroke-width="4.46" stroke-linejoin="bevel" points="741.012,1104.03 741.012,1205.96"/>
<polyline class="BarLine" fill="none" stroke="#000000" stroke-width="4.46" stroke-linejoin="bevel" points="1239.95,632.834 1239.95,734.762"/>
<polyline class="BarLine" fill="none" stroke="#000000" stroke-width="4.46" stroke-linejoin="bevel" points="1801.5,1104.03 1801.5,1205.96"/>
<polyline class="BarLine" fill="none" stroke="#000000" stroke-width="4.46" stroke-linejoin="bevel" points="2432.02,632.834 2432.02,734.762"/>
<polyline class="BarLine" fill="none" stroke="#000000" stroke-width="4.46" stroke-linejoin="bevel" points="2490.79,1104.03 2490.79,1205.96"/>
<polyline class="BarLine" fill="none" stroke="#000000" stroke-width="4.46" stroke-linejoin="bevel" points="1486.29,1104.03 1486.29,1205.96"/>
<polyline class="BarLine" fill="none" stroke="#000000" stroke-width="4.46" stroke-linejoin="bevel" points="2762.37,632.834 2762.37,734.762"/>
<polyline class="BarLine" fill="none" stroke="#000000" stroke-width="4.46" stroke-linejoin="bevel" points="858.047,632.834 858.047,734.762"/>
<polyline class="LedgerLine" fill="none" stroke="#000000" stroke-width="3.97" stroke-linejoin="bevel" points="570.978,758.198 620.563,758.198"/>
<polyline class="LedgerLine" fill="none" stroke="#000000" stroke-width="3.97" stroke-linejoin="bevel" points="394.165,1229.4 443.75,1229.4"/>
<polyline class="LedgerLine" fill="none" stroke="#000000" stroke-width="3.97" stroke-linejoin="bevel" points="618.122,1229.4 667.706,1229.4"/>
<polyline class="LedgerLine" fill="none" stroke="#000000" stroke-width="3.97" stroke-linejoin="bevel" points="432.9,758.198 482.484,758.198"/>
<polyline class="LedgerLine" fill="none" stroke="#000000" stroke-width="3.97" stroke-linejoin="bevel" points="1265.74,758.198 1315.32,758.198"/>
<polyline class="LedgerLine" fill="none" stroke="#000000" stroke-width="3.97" stroke-linejoin="bevel" points="2367.9,1229.4 2417.48,1229.4"/>
<polyline class="Stem" fill="none" stroke="#000000" stroke-width="2.73" stroke-linejoin="bevel" points="1000.8,1134.36 1000.8,1217"/>
<polyline class="Stem" fill="none" stroke="#000000" stroke-width="2.73" stroke-linejoin="bevel" points="2497.35,704.63 2497.35,621.798"/>
<polyline class="Stem" fill="none" stroke="#000000" stroke-width="2.73" stroke-linejoin="bevel" points="433.706,1225.43 433.706,1142.6"/>
<polyline class="Stem" fill="none" stroke="#000000" stroke-width="2.73" stroke-linejoin="bevel" points="1604.54,717.03 1604.54,634.198"/>
<polyline class="Stem" fill="none" stroke="#000000" stroke-width="2.73" stroke-linejoin="bevel" points="888.826,1159.16 888.826,1229.4"/>
<polyline class="Stem" fill="none" stroke="#000000" stroke-width="2.73" stroke-linejoin="bevel" points="806.345,1175.83 806.345,1093"/>
<polyline class="Stem" fill="none" stroke="#000000" stroke-width="2.73" stroke-linejoin="bevel" points="1742.62,717.03 1742.62,634.198"/>
<polyline class="Stem" fill="none" stroke="#000000" stroke-width="2.73" stroke-linejoin="bevel" points="2556.12,1188.23 2556.12,1105.4"/>
<polyline class="Stem" fill="none" stroke="#000000" stroke-width="2.73" stroke-linejoin="bevel" points="1978.81,1163.43 1978.81,1086.8"/>
<polyline class="Stem" fill="none" stroke="#000000" stroke-width="2.73" stroke-linejoin="bevel" points="1880.7,692.23 1880.7,615.598"/>
<polyline class="Stem" fill="none" stroke="#000000" stroke-width="2.73" stroke-linejoin="bevel" points="472.44,754.23 472.44,671.398"/>
<polyline class="Stem" fill="none" stroke="#000000" stroke-width="2.73" stroke-linejoin="bevel" points="1149.49,1146.76 1149.49,1223.2"/>
<polyline class="Stem" fill="none" stroke="#000000" stroke-width="2.73" stroke-linejoin="bevel" points="657.662,1225.43 657.662,1142.6"/>
<polyline class="Stem" fill="none" stroke="#000000" stroke-width="2.73" stroke-linejoin="bevel" points="1305.28,754.23 1305.28,671.398"/>
<polyline class="Stem" fill="none" stroke="#000000" stroke-width="2.73" stroke-linejoin="bevel" points="2025.98,675.565 2025.98,751.998"/>
<polyline class="Stem" fill="none" stroke="#000000" stroke-width="2.73" stroke-linejoin="bevel" points="545.684,1213.03 545.684,1130.2"/>
<polyline class="Stem" fill="none" stroke="#000000" stroke-width="2.73" stroke-linejoin="bevel" points="1837.34,1159.16 1837.34,1229.4"/>
<polyline class="Stem" fill="none" stroke="#000000" stroke-width="2.73" stroke-linejoin="bevel" points="2164.06,687.965 2164.06,758.198"/>
<polyline class="Stem" fill="none" stroke="#000000" stroke-width="2.73" stroke-linejoin="bevel" points="1261.46,1146.76 1261.46,1223.2"/>
<polyline class="Stem" fill="none" stroke="#000000" stroke-width="2.73" stroke-linejoin="bevel" points="2239.47,1213.03 2239.47,1130.2"/>
<polyline class="Stem" fill="none" stroke="#000000" stroke-width="2.73" stroke-linejoin="bevel" points="610.519,754.23 610.519,671.398"/>
<polyline class="Stem" fill="none" stroke="#000000" stroke-width="2.73" stroke-linejoin="bevel" points="748.597,717.03 748.597,634.198"/>
<polyline class="Stem" fill="none" stroke="#000000" stroke-width="2.73" stroke-linejoin="bevel" points="923.38,692.23 923.38,615.598"/>
<polyline class="Stem" fill="none" stroke="#000000" stroke-width="2.73" stroke-linejoin="bevel" points="2368.6,692.23 2368.6,615.797"/>
<polyline class="Stem" fill="none" stroke="#000000" stroke-width="2.73" stroke-linejoin="bevel" points="1402.94,1163.43 1402.94,1086.8"/>
<polyline class="Stem" fill="none" stroke="#000000" stroke-width="2.73" stroke-linejoin="bevel" points="1130.5,717.03 1130.5,634.198"/>
<polyline class="Stem" fill="none" stroke="#000000" stroke-width="2.73" stroke-linejoin="bevel" points="1551.62,1188.23 1551.62,1105.4"/>
<polyline class="Stem" fill="none" stroke="#000000" stroke-width="2.73" stroke-linejoin="bevel" points="2407.44,1225.43 2407.44,1142.6"/>
<polyline class="Stem" fill="none" stroke="#000000" stroke-width="2.73" stroke-linejoin="bevel" points="2090.79,1175.83 2090.79,1093"/>
<path class="Hook" transform="matrix(0.992,0,0,0.992,2367.23,615.598)" d="M0,22.7 C0,23 0.1,23.6 0.8,23.8 C5.1,25.2 13.7,30.6 20.2,41.7 C22,44.8 24.9,49.1 24.9,57.4 C24.9,64.6 23.1,72 20.4,79.2 C20.2,79.8 20.1,80.3 20.1,80.7 C20.1,81.4 20.5,81.7 21.2,81.7 C21.8,81.7 22.3,81.3 22.7,80.6 C27.2,72.6 28.9,63.3 28.9,54.2 C28.4,41.3 21,31.8 21,31.8 C21.3,31.8 11.8,19.5 9.1,15.3 C5.4,9.6 3.7,3.9 3.5,3.5 C3.4,3.2 2.5,-0.4 2.5,-0.4 C2.4,-0.8 1.9,-1.2 1.3,-1.2 C0.6,-1.2 0,-0.6 0,0.1 L0,22.7 "/>
<path class="Note" transform="matrix(0.992,0,0,0.992,2466.49,708.598)" d="M21.3,-13.2 C11.6,-13.2 0,-5.1 0,4.2 C0,8.5 3.1,13.3 11.2,13.3 C21.6,13.3 32.5,4.8 32.5,-4 C32.5,-9.9 27.5,-13.2 21.3,-13.2 M7.5,8.6 C4.2,8.6 3.5,5.9 3.5,5 C3.5,0.1 20.3,-8.5 25,-8.5 C27.4,-8.5 29,-7.1 29,-4.9 C29,0.1 12.1,8.6 7.5,8.6"/>
<path class="Note" transform="matrix(0.992,0,0,0.992,999.44,1130.2)" d="M0,4.2 C0,8.5 3.1,13.3 11.2,13.3 C21.6,13.3 32.5,4.8 32.5,-4 C32.5,-9.9 27.5,-13.2 21.3,-13.2 C11.6,-13.2 0,-5 0,4.2"/>
<path class="Note" transform="matrix(0.992,0,0,0.992,1372.08,1167.4)" d="M0,4.2 C0,8.5 3.1,13.3 11.2,13.3 C21.6,13.3 32.5,4.8 32.5,-4 C32.5,-9.9 27.5,-13.2 21.3,-13.2 C11.6,-13.2 0,-5 0,4.2"/>
<path class="Note" transform="matrix(0.992,0,0,0.992,2337.74,696.198)" d="M0,4.2 C0,8.5 3.1,13.3 11.2,13.3 C21.6,13.3 32.5,4.8 32.5,-4 C32.5,-9.9 27.5,-13.2 21.3,-13.2 C11.6,-13.2 0,-5 0,4.2"/>
<path class="Note" transform="matrix(0.992,0,0,0.992,2208.61,1217)" d="M21.3,-13.2 C11.6,-13.2 0,-5.1 0,4.2 C0,8.5 3.1,13.3 11.2,13.3 C21.6,13.3 32.5,4.8 32.5,-4 C32.5,-9.9 27.5,-13.2 21.3,-13.2 M7.5,8.6 C4.2,8.6 3.5,5.9 3.5,5 C3.5,0.1 20.3,-8.5 25,-8.5 C27.4,-8.5 29,-7.1 29,-4.9 C29,0.1 12.1,8.6 7.5,8.6"/>
<path class="Note" transform="matrix(0.992,0,0,0.992,717.737,720.998)" d="M0,4.2 C0,8.5 3.1,13.3 11.2,13.3 C21.6,13.3 32.5,4.8 32.5,-4 C32.5,-9.9 27.5,-13.2 21.3,-13.2 C11.6,-13.2 0,-5 0,4.2"/>
<path class="Note" transform="matrix(0.992,0,0,0.992,1520.76,1192.2)" d="M21.3,-13.2 C11.6,-13.2 0,-5.1 0,4.2 C0,8.5 3.1,13.3 11.2,13.3 C21.6,13.3 32.5,4.8 32.5,-4 C32.5,-9.9 27.5,-13.2 21.3,-13.2 M7.5,8.6 C4.2,8.6 3.5,5.9 3.5,5 C3.5,0.1 20.3,-8.5 25,-8.5 C27.4,-8.5 29,-7.1 29,-4.9 C29,0.1 12.1,8.6 7.5,8.6"/>
<path class="Note" transform="matrix(0.992,0,0,0.992,2376.58,1229.4)" d="M0,4.2 C0,8.5 3.1,13.3 11.2,13.3 C21.6,13.3 32.5,4.8 32.5,-4 C32.5,-9.9 27.5,-13.2 21.3,-13.2 C11.6,-13.2 0,-5 0,4.2"/>
<path class="Note" transform="matrix(0.992,0,0,0.992,579.658,758.198)" d="M0,4.2 C0,8.5 3.1,13.3 11.2,13.3 C21.6,13.3 32.5,4.8 32.5,-4 C32.5,-9.9 27.5,-13.2 21.3,-13.2 C11.6,-13.2 0,-5 0,4.2"/>
<path class="Note" transform="matrix(0.992,0,0,0.992,1260.1,1142.6)" d="M0,4.2 C0,8.5 3.1,13.3 11.2,13.3 C21.6,13.3 32.5,4.8 32.5,-4 C32.5,-9.9 27.5,-13.2 21.3,-13.2 C11.6,-13.2 0,-5 0,4.2"/>
<path class="Note" transform="matrix(0.992,0,0,0.992,1099.64,720.998)" d="M0,4.2 C0,8.5 3.1,13.3 11.2,13.3 C21.6,13.3 32.5,4.8 32.5,-4 C32.5,-9.9 27.5,-13.2 21.3,-13.2 C11.6,-13.2 0,-5 0,4.2"/>
<path class="Note" transform="matrix(0.992,0,0,0.992,402.845,1229.4)" d="M0,4.2 C0,8.5 3.1,13.3 11.2,13.3 C21.6,13.3 32.5,4.8 32.5,-4 C32.5,-9.9 27.5,-13.2 21.3,-13.2 C11.6,-13.2 0,-5 0,4.2"/>
<path class="Note" transform="matrix(0.992,0,0,0.992,2162.7,683.798)" d="M0,4.2 C0,8.5 3.1,13.3 11.2,13.3 C21.6,13.3 32.5,4.8 32.5,-4 C32.5,-9.9 27.5,-13.2 21.3,-13.2 C11.6,-13.2 0,-5 0,4.2"/>
<path class="Note" transform="matrix(0.992,0,0,0.992,2024.62,671.398)" d="M0,4.2 C0,8.5 3.1,13.3 11.2,13.3 C21.6,13.3 32.5,4.8 32.5,-4 C32.5,-9.9 27.5,-13.2 21.3,-13.2 C11.6,-13.2 0,-5 0,4.2"/>
<path class="Note" transform="matrix(0.992,0,0,0.992,514.824,1217)" d="M0,4.2 C0,8.5 3.1,13.3 11.2,13.3 C21.6,13.3 32.5,4.8 32.5,-4 C32.5,-9.9 27.5,-13.2 21.3,-13.2 C11.6,-13.2 0,-5 0,4.2"/>
<path class="Note" transform="matrix(0.992,0,0,0.992,1148.12,1142.6)" d="M0,4.2 C0,8.5 3.1,13.3 11.2,13.3 C21.6,13.3 32.5,4.8 32.5,-4 C32.5,-9.9 27.5,-13.2 21.3,-13.2 C11.6,-13.2 0,-5 0,4.2"/>
<path class="Note" transform="matrix(0.992,0,0,0.992,1274.42,758.198)" d="M21.3,-13.2 C11.6,-13.2 0,-5.1 0,4.2 C0,8.5 3.1,13.3 11.2,13.3 C21.6,13.3 32.5,4.8 32.5,-4 C32.5,-9.9 27.5,-13.2 21.3,-13.2 M7.5,8.6 C4.2,8.6 3.5,5.9 3.5,5 C3.5,0.1 20.3,-8.5 25,-8.5 C27.4,-8.5 29,-7.1 29,-4.9 C29,0.1 12.1,8.6 7.5,8.6"/>
<path class="Note" transform="matrix(0.992,0,0,0.992,441.58,758.198)" d="M0,4.2 C0,8.5 3.1,13.3 11.2,13.3 C21.6,13.3 32.5,4.8 32.5,-4 C32.5,-9.9 27.5,-13.2 21.3,-13.2 C11.6,-13.2 0,-5 0,4.2"/>
<path class="Note" transform="matrix(0.992,0,0,0.992,626.802,1229.4)" d="M0,4.2 C0,8.5 3.1,13.3 11.2,13.3 C21.6,13.3 32.5,4.8 32.5,-4 C32.5,-9.9 27.5,-13.2 21.3,-13.2 C11.6,-13.2 0,-5 0,4.2"/>
<path class="Note" transform="matrix(0.992,0,0,0.992,1835.97,1155)" d="M0,4.2 C0,8.5 3.1,13.3 11.2,13.3 C21.6,13.3 32.5,4.8 32.5,-4 C32.5,-9.9 27.5,-13.2 21.3,-13.2 C11.6,-13.2 0,-5 0,4.2"/>
<path class="Note" transform="matrix(0.992,0,0,0.992,1849.84,696.198)" d="M0,4.2 C0,8.5 3.1,13.3 11.2,13.3 C21.6,13.3 32.5,4.8 32.5,-4 C32.5,-9.9 27.5,-13.2 21.3,-13.2 C11.6,-13.2 0,-5 0,4.2"/>
<path class="Note" transform="matrix(0.992,0,0,0.992,1711.76,720.998)" d="M0,4.2 C0,8.5 3.1,13.3 11.2,13.3 C21.6,13.3 32.5,4.8 32.5,-4 C32.5,-9.9 27.5,-13.2 21.3,-13.2 C11.6,-13.2 0,-5 0,4.2"/>
<path class="Note" transform="matrix(0.992,0,0,0.992,1947.95,1167.4)" d="M0,4.2 C0,8.5 3.1,13.3 11.2,13.3 C21.6,13.3 32.5,4.8 32.5,-4 C32.5,-9.9 27.5,-13.2 21.3,-13.2 C11.6,-13.2 0,-5 0,4.2"/>
<path class="Note" transform="matrix(0.992,0,0,0.992,775.484,1179.8)" d="M0,4.2 C0,8.5 3.1,13.3 11.2,13.3 C21.6,13.3 32.5,4.8 32.5,-4 C32.5,-9.9 27.5,-13.2 21.3,-13.2 C11.6,-13.2 0,-5 0,4.2"/>
<path class="Note" transform="matrix(0.992,0,0,0.992,2525.26,1192.2)" d="M21.3,-13.2 C11.6,-13.2 0,-5.1 0,4.2 C0,8.5 3.1,13.3 11.2,13.3 C21.6,13.3 32.5,4.8 32.5,-4 C32.5,-9.9 27.5,-13.2 21.3,-13.2 M7.5,8.6 C4.2,8.6 3.5,5.9 3.5,5 C3.5,0.1 20.3,-8.5 25,-8.5 C27.4,-8.5 29,-7.1 29,-4.9 C29,0.1 12.1,8.6 7.5,8.6"/>
<path class="Note" transform="matrix(0.992,0,0,0.992,1573.68,720.998)" d="M0,4.2 C0,8.5 3.1,13.3 11.2,13.3 C21.6,13.3 32.5,4.8 32.5,-4 C32.5,-9.9 27.5,-13.2 21.3,-13.2 C11.6,-13.2 0,-5 0,4.2"/>
<path class="Note" transform="matrix(0.992,0,0,0.992,887.462,1155)" d="M0,4.2 C0,8.5 3.1,13.3 11.2,13.3 C21.6,13.3 32.5,4.8 32.5,-4 C32.5,-9.9 27.5,-13.2 21.3,-13.2 C11.6,-13.2 0,-5 0,4.2"/>
<path class="Note" transform="matrix(0.992,0,0,0.992,2059.93,1179.8)" d="M0,4.2 C0,8.5 3.1,13.3 11.2,13.3 C21.6,13.3 32.5,4.8 32.5,-4 C32.5,-9.9 27.5,-13.2 21.3,-13.2 C11.6,-13.2 0,-5 0,4.2"/>
<path class="Note" transform="matrix(0.992,0,0,0.992,892.519,696.198)" d="M21.3,-13.2 C11.6,-13.2 0,-5.1 0,4.2 C0,8.5 3.1,13.3 11.2,13.3 C21.6,13.3 32.5,4.8 32.5,-4 C32.5,-9.9 27.5,-13.2 21.3,-13.2 M7.5,8.6 C4.2,8.6 3.5,5.9 3.5,5 C3.5,0.1 20.3,-8.5 25,-8.5 C27.4,-8.5 29,-7.1 29,-4.9 C29,0.1 12.1,8.6 7.5,8.6"/>
<path class="Clef" transform="matrix(0.992,0,0,0.992,232.438,1179.8)" d="M12.3,51.3 C12.3,57.9 17.3,66.6 30.8,66.6 C35.5,66.6 39.6,65.4 43.2,63.2 C48.6,59.4 50,52.8 50,46.5 C50,42.6 49.4,38.1 48.4,32.4 C48.1,30.4 47.5,27.4 46.9,23.5 C56.7,20.3 64,10.1 64,-0.2 C64,-15.3 53.3,-25.5 38.7,-25.5 C37.7,-31.5 36.7,-37.4 35.9,-43 C46.4,-54.1 53.7,-66.6 53.7,-82.5 C53.7,-91.6 50.9,-99 49.3,-102.6 C46.9,-107.7 44,-111.2 42.2,-111.2 C41.5,-111.2 38.4,-110 35.1,-106.1 C28.7,-98.5 26.9,-85.7 26.9,-77.3 C26.9,-71.9 27.4,-67 29.1,-55.8 C29,-55.7 23.8,-50.4 21.7,-48.7 C12.6,-40.3 0,-28.1 0,-8.1 C0,10.6 16.3,25.3 34.9,25.3 C37.8,25.3 40.5,25 42.8,24.6 C44.7,34.2 45.9,41.2 45.9,46.5 C45.9,56.9 40.5,62.4 30.4,62.4 C28,62.4 25.9,61.9 25.7,61.9 C25.6,61.8 25.4,61.7 25.4,61.6 C25.4,61.4 25.6,61.3 25.9,61.3 C30.6,60.5 35.3,56.5 35.3,50.1 C35.3,44.7 31.2,39 23.7,39 C16.7,39 12.3,44.7 12.3,51.3 M33.2,-82.2 C34.1,-86.2 38.7,-96.7 43.9,-96.7 C45.4,-96.7 47.8,-91.9 47.8,-84.9 C47.8,-74.5 40.1,-66.7 33.2,-59.9 C32.6,-63.9 32.1,-67.8 32.1,-72 C32.1,-75.7 32.4,-79.1 33.2,-82.2 M42,20.6 C40,21 38.1,21.2 36.2,21.2 C21.9,21.2 9.7,11.2 9.7,-3.9 C9.7,-16.1 18.3,-27 27.1,-34.6 C28.8,-36.1 30.4,-37.5 31.9,-39 C32.8,-33.6 33.5,-28.9 34.2,-24.8 C25.1,-22.1 18.9,-12.5 18.9,-3.1 C18.9,3.9 24.4,13.5 32.4,13.5 C33.2,13.5 34.1,13.1 34.1,12.2 C34.1,11.3 33.1,10.8 31.9,10 C28,7.6 25.8,5 25.8,0.1 C25.8,-6 30.4,-10.9 36.2,-12.3 L42,20.6 M56.2,2.1 C56.2,9.2 53.3,16.5 46.2,19.4 C44.1,7.4 41.4,-8.5 40.7,-12.9 C49.7,-12.9 56.2,-6.8 56.2,2.1"/>
<path class="Clef" transform="matrix(0.992,0,0,0.992,232.438,708.598)" d="M12.3,51.3 C12.3,57.9 17.3,66.6 30.8,66.6 C35.5,66.6 39.6,65.4 43.2,63.2 C48.6,59.4 50,52.8 50,46.5 C50,42.6 49.4,38.1 48.4,32.4 C48.1,30.4 47.5,27.4 46.9,23.5 C56.7,20.3 64,10.1 64,-0.2 C64,-15.3 53.3,-25.5 38.7,-25.5 C37.7,-31.5 36.7,-37.4 35.9,-43 C46.4,-54.1 53.7,-66.6 53.7,-82.5 C53.7,-91.6 50.9,-99 49.3,-102.6 C46.9,-107.7 44,-111.2 42.2,-111.2 C41.5,-111.2 38.4,-110 35.1,-106.1 C28.7,-98.5 26.9,-85.7 26.9,-77.3 C26.9,-71.9 27.4,-67 29.1,-55.8 C29,-55.7 23.8,-50.4 21.7,-48.7 C12.6,-40.3 0,-28.1 0,-8.1 C0,10.6 16.3,25.3 34.9,25.3 C37.8,25.3 40.5,25 42.8,24.6 C44.7,34.2 45.9,41.2 45.9,46.5 C45.9,56.9 40.5,62.4 30.4,62.4 C28,62.4 25.9,61.9 25.7,61.9 C25.6,61.8 25.4,61.7 25.4,61.6 C25.4,61.4 25.6,61.3 25.9,61.3 C30.6,60.5 35.3,56.5 35.3,50.1 C35.3,44.7 31.2,39 23.7,39 C16.7,39 12.3,44.7 12.3,51.3 M33.2,-82.2 C34.1,-86.2 38.7,-96.7 43.9,-96.7 C45.4,-96.7 47.8,-91.9 47.8,-84.9 C47.8,-74.5 40.1,-66.7 33.2,-59.9 C32.6,-63.9 32.1,-67.8 32.1,-72 C32.1,-75.7 32.4,-79.1 33.2,-82.2 M42,20.6 C40,21 38.1,21.2 36.2,21.2 C21.9,21.2 9.7,11.2 9.7,-3.9 C9.7,-16.1 18.3,-27 27.1,-34.6 C28.8,-36.1 30.4,-37.5 31.9,-39 C32.8,-33.6 33.5,-28.9 34.2,-24.8 C25.1,-22.1 18.9,-12.5 18.9,-3.1 C18.9,3.9 24.4,13.5 32.4,13.5 C33.2,13.5 34.1,13.1 34.1,12.2 C34.1,11.3 33.1,10.8 31.9,10 C28,7.6 25.8,5 25.8,0.1 C25.8,-6 30.4,-10.9 36.2,-12.3 L42,20.6 M56.2,2.1 C56.2,9.2 53.3,16.5 46.2,19.4 C44.1,7.4 41.4,-8.5 40.7,-12.9 C49.7,-12.9 56.2,-6.8 56.2,2.1"/>
<path class="KeySig" transform="matrix(0.992,0,0,0.992,320.711,1155)" d="M12,-15.5 C7,-15.5 4.1,-12.4 3.6,-11.8 L4,-43.9 C4,-44.7 3.4,-45.3 2.6,-45.3 L1.4,-45.3 C0.6,-45.3 0,-44.7 0,-43.9 L0.5,16.2 C0.5,17 1.1,17.6 1.9,17.6 C2.1,17.6 2.5,17.5 2.7,17.4 C11.3,13.1 20.3,4.9 20.3,-5.4 C20.3,-10.6 17.9,-15.5 12,-15.5 M3.3,12.7 L3.6,-6.8 C3.8,-7.7 5.3,-10.6 9.3,-10.6 C12.9,-10.6 13.2,-7.2 13.2,-5.1 C13.2,3.8 9.9,7.5 3.3,12.7"/>
<path class="KeySig" transform="matrix(0.992,0,0,0.992,320.711,683.798)" d="M12,-15.5 C7,-15.5 4.1,-12.4 3.6,-11.8 L4,-43.9 C4,-44.7 3.4,-45.3 2.6,-45.3 L1.4,-45.3 C0.6,-45.3 0,-44.7 0,-43.9 L0.5,16.2 C0.5,17 1.1,17.6 1.9,17.6 C2.1,17.6 2.5,17.5 2.7,17.4 C11.3,13.1 20.3,4.9 20.3,-5.4 C20.3,-10.6 17.9,-15.5 12,-15.5 M3.3,12.7 L3.6,-6.8 C3.8,-7.7 5.3,-10.6 9.3,-10.6 C12.9,-10.6 13.2,-7.2 13.2,-5.1 C13.2,3.8 9.9,7.5 3.3,12.7"/>
<path class="TimeSig" transform="matrix(0.992,0,0,0.992,368.172,659.494)" d="M27.2,-1.6 C32.2,-3.5 35.7,-6.7 35.7,-12.2 C35.7,-13.1 35.4,-24.4 18.2,-24.4 C1,-24.4 1.5,-12.2 1.5,-12.2 L1.6,-12.2 L1.5,-12 C1.5,-8.4 4.4,-5.6 8,-5.6 C11.6,-5.6 14.4,-8.4 14.4,-12 C14.4,-14.9 12.2,-17.7 9.4,-18.3 C9.5,-18.4 9.6,-18.5 9.7,-18.6 C11.1,-19.6 13,-20.1 14.9,-20.1 C19.1,-20.1 23.6,-17.6 23.6,-12.2 C23.6,-5.9 18.9,-5 17.7,-4.8 C16.5,-4.6 10.9,-4.2 9.7,-4.2 C8.5,-4.2 8.4,-2.8 8.4,-2.8 L8.4,-0.8 C8.4,-0.8 8.6,0.3 9.7,0.4 C11.4,0.5 13.7,0.5 16.9,1 C21.3,1.6 23.6,4.6 23.6,11.6 C23.6,18.3 19.1,20.1 14.9,20.1 C12.1,20.1 9.5,19.3 8.4,18.5 C11.7,18.3 14.4,15.4 14.4,12.1 C14.4,8.5 11.6,5.6 8,5.6 C4.4,5.6 1.5,8.5 1.5,12.1 C1.5,20.3 9,24.4 16.4,24.4 C26,24.4 36.4,21.1 36.4,10.2 C36.4,2.9 31.4,-0.2 27,-1.6 L27.2,-1.6 "/>
<path class="TimeSig" transform="matrix(0.992,0,0,0.992,364.266,708.598)" d="M20.8,12.7 L20.8,20.1 L12.5,20.1 C11.8,20.1 11.1,20.7 11.1,21.5 L11.1,23.4 C11.1,24.2 11.8,24.8 12.5,24.8 L42.8,24.8 C43.6,24.8 44.2,24.2 44.2,23.4 L44.2,21.5 C44.2,20.7 43.6,20.1 42.8,20.1 L33.9,20.1 L33.9,12.7 L42.8,12.7 C43.6,12.7 44.2,12 44.2,11.2 L44.2,9.3 C44.2,8.6 43.6,7.9 42.8,7.9 L33.9,7.9 L33.9,-8 C33.9,-8.6 33.6,-9.1 33.1,-9.3 L31.9,-9.9 C31.7,-10 31.4,-10.1 31.2,-10.1 C30.9,-10 30.5,-9.9 30.3,-9.7 L21.2,-1.4 C20.9,-1.1 20.8,-0.7 20.8,-0.3 L20.8,7.9 L9.3,7.9 C9.3,7.9 20.4,-4.1 32.2,-19.9 C32.6,-20.4 32.7,-20.9 32.7,-21.3 C32.7,-21.8 32.5,-22.2 32.4,-22.3 L30.2,-24.5 C30,-24.7 29.6,-24.9 29.2,-24.9 C28.6,-24.9 15.1,-24.9 14.4,-24.9 C13.6,-24.9 13.1,-24.3 13,-23.7 C13,-23.7 12.5,-16.3 9.9,-8.2 C7.3,-0.1 4.3,4.9 1.7,8.6 C1.7,8.6 1.4,9.1 1.4,9.7 C1.4,9.9 1.4,10.1 1.5,10.3 C1.9,11 2.5,12.1 2.5,12.1 C2.5,12.1 2.7,12.7 3.6,12.7 L20.8,12.7 "/>
<path class="Harmony" d="M1032.12,1003.3 L1030.03,1003.3 L1027.83,1006.55 C1023.81,1003.63 1021.78,1002.86 1017.98,1002.86 C1012.76,1002.86 1008.3,1005.06 1004.62,1009.46 C1001.1,1013.64 999.447,1018.26 999.447,1023.93 C999.447,1035.81 1007.2,1044.22 1018.04,1044.22 C1026.84,1044.22 1032.45,1039.05 1033.71,1029.81 L1031.13,1029.37 C1029.64,1037.57 1025.46,1041.64 1018.7,1041.64 C1010.56,1041.64 1006.71,1036.03 1006.71,1024.15 C1006.71,1017.88 1007.53,1013.75 1009.4,1010.45 C1011.11,1007.37 1014.46,1005.45 1018.04,1005.45 C1021.89,1005.45 1025.3,1007.48 1027.39,1011 C1028.43,1012.82 1029.2,1014.85 1030.52,1019.2 L1032.94,1019.2 L1032.12,1003.3 "/>
<path class="Harmony" d="M1042.37,1017.99 L1044.79,1018.37 L1045.78,1014.03 C1046.61,1010.4 1046.99,1009.85 1048.59,1009.85 C1048.86,1009.85 1049.3,1009.85 1049.8,1009.9 C1056.56,1010.23 1056.56,1010.23 1059.09,1010.23 C1059.81,1010.23 1061.07,1010.23 1062.61,1010.18 L1058.87,1017.71 C1054.8,1025.8 1054.31,1026.79 1052.93,1030.2 C1051.23,1034.32 1050.35,1037.79 1050.35,1040.1 C1050.35,1042.63 1051.67,1044.17 1053.81,1044.17 C1056.45,1044.17 1057.5,1042.41 1057.44,1037.62 C1057.17,1029.7 1058.16,1025.85 1064.04,1012.98 C1065.03,1010.84 1066.08,1008.64 1067.07,1006.49 L1067.07,1004.9 C1063.77,1005.17 1062.01,1005.28 1058.6,1005.28 C1053.81,1005.28 1050.02,1005.12 1044.08,1004.68 L1042.37,1017.99 "/>
<path class="Harmony" d="M659.478,1003.3 L657.388,1003.3 L655.188,1006.55 C651.173,1003.63 649.138,1002.86 645.343,1002.86 C640.118,1002.86 635.663,1005.06 631.978,1009.46 C628.458,1013.64 626.808,1018.26 626.808,1023.93 C626.808,1035.81 634.563,1044.22 645.398,1044.22 C654.198,1044.22 659.808,1039.05 661.073,1029.81 L658.488,1029.37 C657.003,1037.57 652.823,1041.64 646.058,1041.64 C637.918,1041.64 634.068,1036.03 634.068,1024.15 C634.068,1017.88 634.893,1013.75 636.763,1010.45 C638.468,1007.37 641.823,1005.45 645.398,1005.45 C649.248,1005.45 652.658,1007.48 654.748,1011 C655.793,1012.82 656.563,1014.85 657.883,1019.2 L660.303,1019.2 L659.478,1003.3 "/>
<path class="Harmony" d="M669.734,1017.99 L672.154,1018.37 L673.144,1014.03 C673.969,1010.4 674.354,1009.85 675.949,1009.85 C676.224,1009.85 676.664,1009.85 677.159,1009.9 C683.924,1010.23 683.924,1010.23 686.454,1010.23 C687.169,1010.23 688.434,1010.23 689.974,1010.18 L686.234,1017.71 C682.164,1025.8 681.669,1026.79 680.294,1030.2 C678.589,1034.32 677.709,1037.79 677.709,1040.1 C677.709,1042.63 679.029,1044.17 681.174,1044.17 C683.814,1044.17 684.859,1042.41 684.804,1037.62 C684.529,1029.7 685.519,1025.85 691.404,1012.98 C692.394,1010.84 693.439,1008.64 694.429,1006.49 L694.429,1004.9 C691.129,1005.17 689.369,1005.28 685.959,1005.28 C681.174,1005.28 677.379,1005.12 671.439,1004.68 L669.734,1017.99 "/>
<path class="Harmony" d="M1180.85,1003.69 L1148.12,1003.69 L1148.12,1006.27 L1149.11,1006.27 C1152.25,1006.33 1153.29,1006.49 1153.73,1007.04 C1154.06,1007.54 1154.06,1007.65 1154.06,1010.45 L1154.06,1036.63 C1154.06,1039.44 1154.06,1039.55 1153.73,1040.04 C1153.29,1040.59 1152.25,1040.81 1149.11,1040.81 L1148.12,1040.81 L1148.12,1043.4 L1166.99,1043.4 L1166.99,1040.81 L1165.17,1040.81 C1162.04,1040.81 1160.99,1040.59 1160.55,1040.04 C1160.22,1039.55 1160.22,1039.38 1160.22,1036.63 L1160.22,1024.15 L1161.32,1024.15 C1166.99,1023.93 1169.02,1025.96 1169.24,1032.07 L1171.83,1032.07 L1171.83,1014.03 L1169.24,1014.03 C1168.91,1019.42 1166.77,1021.51 1161.54,1021.56 L1160.22,1021.56 L1160.22,1009.02 C1160.17,1006.71 1160.72,1006.33 1163.69,1006.27 L1166.22,1006.27 C1175.24,1006.22 1177.49,1008.25 1179.2,1017.71 L1181.62,1017.71 L1180.85,1003.69 "/>
<path class="Harmony" d="M1292.83,1003.69 L1260.1,1003.69 L1260.1,1006.27 L1261.09,1006.27 C1264.23,1006.33 1265.27,1006.49 1265.71,1007.04 C1266.04,1007.54 1266.04,1007.65 1266.04,1010.45 L1266.04,1036.63 C1266.04,1039.44 1266.04,1039.55 1265.71,1040.04 C1265.27,1040.59 1264.23,1040.81 1261.09,1040.81 L1260.1,1040.81 L1260.1,1043.4 L1278.97,1043.4 L1278.97,1040.81 L1277.15,1040.81 C1274.02,1040.81 1272.97,1040.59 1272.53,1040.04 C1272.2,1039.55 1272.2,1039.38 1272.2,1036.63 L1272.2,1024.15 L1273.3,1024.15 C1278.97,1023.93 1281,1025.96 1281.22,1032.07 L1283.81,1032.07 L1283.81,1014.03 L1281.22,1014.03 C1280.89,1019.42 1278.75,1021.51 1273.52,1021.56 L1272.2,1021.56 L1272.2,1009.02 C1272.15,1006.71 1272.7,1006.33 1275.67,1006.27 L1278.2,1006.27 C1287.22,1006.22 1289.47,1008.25 1291.18,1017.71 L1293.6,1017.71 L1292.83,1003.69 "/>
<path class="Harmony" d="M2706.07,532.103 L2703.98,532.103 L2701.84,535.403 C2698.26,532.598 2695.84,531.663 2691.83,531.663 C2687.48,531.663 2684.07,532.873 2680.61,535.678 C2675.16,540.078 2672.63,545.633 2672.63,553.058 C2672.63,558.668 2674.23,563.343 2677.47,566.918 C2680.88,570.768 2685.94,573.023 2691.22,573.023 C2695.84,573.023 2699.09,571.593 2702.66,568.018 L2704.7,572.968 L2707.01,572.968 L2707.01,560.868 C2707.01,558.063 2707.01,557.953 2707.34,557.458 C2707.83,556.853 2708.82,556.688 2711.96,556.688 L2712.78,556.688 L2712.78,554.103 L2695.29,554.103 L2695.29,556.688 L2696.34,556.688 C2700.96,556.688 2701.34,556.963 2701.34,560.043 C2701.34,562.408 2700.96,564.553 2700.24,565.873 C2698.87,568.568 2695.35,570.438 2691.77,570.438 C2688.2,570.438 2684.68,568.623 2682.81,565.873 C2680.77,562.793 2679.89,558.943 2679.89,553.058 C2679.89,540.793 2683.96,534.248 2691.61,534.248 C2697.88,534.248 2702.22,538.758 2704.48,547.558 L2706.84,547.558 L2706.07,532.103 "/>
<path class="Harmony" d="M2726.61,546.568 L2716.82,547.173 L2716.82,549.538 L2719.08,549.538 C2721.17,549.593 2721.44,549.923 2721.44,552.288 L2721.44,568.018 C2721.39,568.843 2721.33,569.173 2721.11,569.448 C2720.73,569.943 2719.68,570.163 2717.32,570.218 L2717.1,570.218 L2717.1,572.198 L2730.96,572.198 L2730.96,570.218 L2730.74,570.218 C2727.11,570.108 2726.61,569.833 2726.61,567.798 L2726.61,557.623 C2726.61,552.728 2729.31,549.098 2732.88,549.098 C2736.02,549.098 2737.61,551.353 2737.61,555.808 L2737.61,568.073 C2737.56,568.788 2737.5,569.173 2737.23,569.448 C2736.9,569.943 2735.8,570.163 2733.43,570.218 L2733.21,570.218 L2733.21,572.198 L2747.13,572.198 L2747.13,570.218 L2746.91,570.218 C2743.28,570.108 2742.78,569.833 2742.78,567.853 L2742.78,558.118 C2742.78,552.618 2745.26,549.098 2749.11,549.098 C2752.24,549.098 2753.78,551.463 2753.78,556.413 L2753.78,568.018 C2753.73,568.788 2753.67,569.173 2753.4,569.448 C2753.07,569.943 2751.97,570.163 2749.6,570.218 L2749.38,570.218 L2749.38,572.198 L2763.3,572.198 L2763.3,570.218 L2763.08,570.218 C2759.45,570.108 2758.95,569.833 2758.95,567.798 L2758.95,555.313 C2758.95,551.903 2758.62,550.748 2757.19,548.878 C2755.6,546.843 2753.34,545.743 2750.7,545.743 C2747.13,545.743 2744.49,547.448 2742.12,551.243 C2741.19,547.943 2738.22,545.743 2734.53,545.743 C2731.18,545.743 2728.76,547.338 2726.61,550.803 L2726.61,546.568 "/>
<path class="Harmony" d="M2603.01,532.103 L2600.92,532.103 L2598.77,535.403 C2595.2,532.598 2592.78,531.663 2588.76,531.663 C2584.42,531.663 2581.01,532.873 2577.54,535.678 C2572.1,540.078 2569.57,545.633 2569.57,553.058 C2569.57,558.668 2571.16,563.343 2574.41,566.918 C2577.82,570.768 2582.88,573.023 2588.16,573.023 C2592.78,573.023 2596.02,571.593 2599.6,568.018 L2601.63,572.968 L2603.94,572.968 L2603.94,560.868 C2603.94,558.063 2603.94,557.953 2604.27,557.458 C2604.77,556.853 2605.76,556.688 2608.89,556.688 L2609.72,556.688 L2609.72,554.103 L2592.23,554.103 L2592.23,556.688 L2593.27,556.688 C2597.89,556.688 2598.28,556.963 2598.28,560.043 C2598.28,562.408 2597.89,564.553 2597.18,565.873 C2595.8,568.568 2592.28,570.438 2588.71,570.438 C2585.13,570.438 2581.61,568.623 2579.74,565.873 C2577.71,562.793 2576.83,558.943 2576.83,553.058 C2576.83,540.793 2580.9,534.248 2588.54,534.248 C2594.81,534.248 2599.16,538.758 2601.41,547.558 L2603.78,547.558 L2603.01,532.103 "/>
<path class="Harmony" d="M2623.55,546.568 L2613.76,547.173 L2613.76,549.538 L2616.01,549.538 C2618.1,549.593 2618.38,549.923 2618.38,552.288 L2618.38,568.018 C2618.32,568.843 2618.27,569.173 2618.05,569.448 C2617.66,569.943 2616.62,570.163 2614.25,570.218 L2614.03,570.218 L2614.03,572.198 L2627.89,572.198 L2627.89,570.218 L2627.67,570.218 C2624.04,570.108 2623.55,569.833 2623.55,567.798 L2623.55,557.623 C2623.55,552.728 2626.24,549.098 2629.82,549.098 C2632.95,549.098 2634.55,551.353 2634.55,555.808 L2634.55,568.073 C2634.49,568.788 2634.44,569.173 2634.16,569.448 C2633.83,569.943 2632.73,570.163 2630.37,570.218 L2630.15,570.218 L2630.15,572.198 L2644.06,572.198 L2644.06,570.218 L2643.84,570.218 C2640.21,570.108 2639.72,569.833 2639.72,567.853 L2639.72,558.118 C2639.72,552.618 2642.19,549.098 2646.04,549.098 C2649.18,549.098 2650.72,551.463 2650.72,556.413 L2650.72,568.018 C2650.66,568.788 2650.61,569.173 2650.33,569.448 C2650,569.943 2648.9,570.163 2646.54,570.218 L2646.32,570.218 L2646.32,572.198 L2660.23,572.198 L2660.23,570.218 L2660.01,570.218 C2656.38,570.108 2655.89,569.833 2655.89,567.798 L2655.89,555.313 C2655.89,551.903 2655.56,550.748 2654.13,548.878 C2652.53,546.843 2650.28,545.743 2647.64,545.743 C2644.06,545.743 2641.42,547.448 2639.06,551.243 C2638.12,547.943 2635.15,545.743 2631.47,545.743 C2628.11,545.743 2625.69,547.338 2623.55,550.803 L2623.55,546.568 "/>
<path class="Harmony" d="M1404.81,1003.69 L1372.08,1003.69 L1372.08,1006.27 L1373.07,1006.27 C1376.21,1006.33 1377.25,1006.49 1377.69,1007.04 C1378.02,1007.54 1378.02,1007.65 1378.02,1010.45 L1378.02,1036.63 C1378.02,1039.44 1378.02,1039.55 1377.69,1040.04 C1377.25,1040.59 1376.21,1040.81 1373.07,1040.81 L1372.08,1040.81 L1372.08,1043.4 L1390.95,1043.4 L1390.95,1040.81 L1389.13,1040.81 C1386,1040.81 1384.95,1040.59 1384.51,1040.04 C1384.18,1039.55 1384.18,1039.38 1384.18,1036.63 L1384.18,1024.15 L1385.28,1024.15 C1390.95,1023.93 1392.98,1025.96 1393.2,1032.07 L1395.79,1032.07 L1395.79,1014.03 L1393.2,1014.03 C1392.87,1019.42 1390.73,1021.51 1385.5,1021.56 L1384.18,1021.56 L1384.18,1009.02 C1384.13,1006.71 1384.68,1006.33 1387.65,1006.27 L1390.18,1006.27 C1399.2,1006.22 1401.45,1008.25 1403.16,1017.71 L1405.58,1017.71 L1404.81,1003.69 "/>
<path class="Harmony" d="M2499.95,532.103 L2497.86,532.103 L2495.71,535.403 C2492.14,532.598 2489.72,531.663 2485.7,531.663 C2481.36,531.663 2477.95,532.873 2474.48,535.678 C2469.04,540.078 2466.51,545.633 2466.51,553.058 C2466.51,558.668 2468.1,563.343 2471.35,566.918 C2474.76,570.768 2479.82,573.023 2485.1,573.023 C2489.72,573.023 2492.96,571.593 2496.54,568.018 L2498.57,572.968 L2500.88,572.968 L2500.88,560.868 C2500.88,558.063 2500.88,557.953 2501.21,557.458 C2501.71,556.853 2502.7,556.688 2505.83,556.688 L2506.66,556.688 L2506.66,554.103 L2489.17,554.103 L2489.17,556.688 L2490.21,556.688 C2494.83,556.688 2495.22,556.963 2495.22,560.043 C2495.22,562.408 2494.83,564.553 2494.12,565.873 C2492.74,568.568 2489.22,570.438 2485.65,570.438 C2482.07,570.438 2478.55,568.623 2476.68,565.873 C2474.65,562.793 2473.77,558.943 2473.77,553.058 C2473.77,540.793 2477.84,534.248 2485.48,534.248 C2491.75,534.248 2496.1,538.758 2498.35,547.558 L2500.72,547.558 L2499.95,532.103 "/>
<path class="Harmony" d="M2520.48,546.568 L2510.69,547.173 L2510.69,549.538 L2512.95,549.538 C2515.04,549.593 2515.31,549.923 2515.31,552.288 L2515.31,568.018 C2515.26,568.843 2515.2,569.173 2514.98,569.448 C2514.6,569.943 2513.55,570.163 2511.19,570.218 L2510.97,570.218 L2510.97,572.198 L2524.83,572.198 L2524.83,570.218 L2524.61,570.218 C2520.98,570.108 2520.48,569.833 2520.48,567.798 L2520.48,557.623 C2520.48,552.728 2523.18,549.098 2526.75,549.098 C2529.89,549.098 2531.48,551.353 2531.48,555.808 L2531.48,568.073 C2531.43,568.788 2531.37,569.173 2531.1,569.448 C2530.77,569.943 2529.67,570.163 2527.3,570.218 L2527.08,570.218 L2527.08,572.198 L2541,572.198 L2541,570.218 L2540.78,570.218 C2537.15,570.108 2536.65,569.833 2536.65,567.853 L2536.65,558.118 C2536.65,552.618 2539.13,549.098 2542.98,549.098 C2546.11,549.098 2547.65,551.463 2547.65,556.413 L2547.65,568.018 C2547.6,568.788 2547.54,569.173 2547.27,569.448 C2546.94,569.943 2545.84,570.163 2543.47,570.218 L2543.25,570.218 L2543.25,572.198 L2557.17,572.198 L2557.17,570.218 L2556.95,570.218 C2553.32,570.108 2552.82,569.833 2552.82,567.798 L2552.82,555.313 C2552.82,551.903 2552.49,550.748 2551.06,548.878 C2549.47,546.843 2547.21,545.743 2544.57,545.743 C2541,545.743 2538.36,547.448 2535.99,551.243 C2535.06,547.943 2532.09,545.743 2528.4,545.743 C2525.05,545.743 2522.63,547.338 2520.48,550.803 L2520.48,546.568 "/>
<path class="Harmony" d="M920.139,1003.3 L918.049,1003.3 L915.849,1006.55 C911.834,1003.63 909.799,1002.86 906.004,1002.86 C900.779,1002.86 896.324,1005.06 892.639,1009.46 C889.119,1013.64 887.469,1018.26 887.469,1023.93 C887.469,1035.81 895.224,1044.22 906.059,1044.22 C914.859,1044.22 920.469,1039.05 921.734,1029.81 L919.149,1029.37 C917.664,1037.57 913.484,1041.64 906.719,1041.64 C898.579,1041.64 894.729,1036.03 894.729,1024.15 C894.729,1017.88 895.554,1013.75 897.424,1010.45 C899.129,1007.37 902.484,1005.45 906.059,1005.45 C909.909,1005.45 913.319,1007.48 915.409,1011 C916.454,1012.82 917.224,1014.85 918.544,1019.2 L920.964,1019.2 L920.139,1003.3 "/>
<path class="Harmony" d="M930.395,1017.99 L932.815,1018.37 L933.805,1014.03 C934.63,1010.4 935.015,1009.85 936.61,1009.85 C936.885,1009.85 937.325,1009.85 937.82,1009.9 C944.585,1010.23 944.585,1010.23 947.115,1010.23 C947.83,1010.23 949.095,1010.23 950.635,1010.18 L946.895,1017.71 C942.825,1025.8 942.33,1026.79 940.955,1030.2 C939.25,1034.32 938.37,1037.79 938.37,1040.1 C938.37,1042.63 939.69,1044.17 941.835,1044.17 C944.475,1044.17 945.52,1042.41 945.465,1037.62 C945.19,1029.7 946.18,1025.85 952.065,1012.98 C953.055,1010.84 954.1,1008.64 955.09,1006.49 L955.09,1004.9 C951.79,1005.17 950.03,1005.28 946.62,1005.28 C941.835,1005.28 938.04,1005.12 932.1,1004.68 L930.395,1017.99 "/>
<path class="Harmony" d="M2699.94,1003.69 L2667.22,1003.69 L2667.22,1006.27 L2668.21,1006.27 C2671.34,1006.33 2672.39,1006.49 2672.83,1007.04 C2673.16,1007.54 2673.16,1007.65 2673.16,1010.45 L2673.16,1036.63 C2673.16,1039.44 2673.16,1039.55 2672.83,1040.04 C2672.39,1040.59 2671.34,1040.81 2668.21,1040.81 L2667.22,1040.81 L2667.22,1043.4 L2686.08,1043.4 L2686.08,1040.81 L2684.27,1040.81 C2681.13,1040.81 2680.09,1040.59 2679.65,1040.04 C2679.32,1039.55 2679.32,1039.38 2679.32,1036.63 L2679.32,1024.15 L2680.42,1024.15 C2686.08,1023.93 2688.12,1025.96 2688.34,1032.07 L2690.92,1032.07 L2690.92,1014.03 L2688.34,1014.03 C2688.01,1019.42 2685.86,1021.51 2680.64,1021.56 L2679.32,1021.56 L2679.32,1009.02 C2679.26,1006.71 2679.81,1006.33 2682.78,1006.27 L2685.31,1006.27 C2694.33,1006.22 2696.59,1008.25 2698.29,1017.71 L2700.71,1017.71 L2699.94,1003.69 "/>
<path class="Harmony" d="M2279.39,572.198 L2297.87,572.198 C2302.77,572.198 2306.51,571.428 2309.42,569.778 C2314.98,566.643 2318.06,560.373 2318.06,552.123 C2318.06,544.533 2315.31,538.593 2310.25,535.293 C2307.22,533.368 2303.15,532.488 2296.88,532.488 L2279.39,532.488 L2279.39,535.073 L2280.44,535.073 C2283.52,535.128 2284.56,535.293 2285,535.843 C2285.33,536.338 2285.33,536.448 2285.33,539.253 L2285.33,565.433 C2285.33,568.238 2285.33,568.348 2285,568.843 C2284.56,569.393 2283.52,569.558 2280.44,569.613 L2279.39,569.613 L2279.39,572.198 M2294.63,569.613 C2291.82,569.613 2291.49,569.283 2291.49,566.588 L2291.49,538.153 C2291.49,535.458 2291.88,535.073 2294.63,535.073 L2297.49,535.073 C2306.89,535.073 2310.8,540.188 2310.8,552.343 C2310.8,564.663 2307.28,569.613 2298.37,569.613 L2294.63,569.613 "/>
<path class="Harmony" d="M2326.28,546.788 L2328.7,547.173 L2329.69,542.828 C2330.51,539.198 2330.9,538.648 2332.49,538.648 C2332.77,538.648 2333.21,538.648 2333.7,538.703 C2340.47,539.033 2340.47,539.033 2343,539.033 C2343.71,539.033 2344.98,539.033 2346.52,538.978 L2342.78,546.513 C2338.71,554.598 2338.21,555.588 2336.84,558.998 C2335.13,563.123 2334.25,566.588 2334.25,568.898 C2334.25,571.428 2335.57,572.968 2337.72,572.968 C2340.36,572.968 2341.4,571.208 2341.35,566.423 C2341.07,558.503 2342.06,554.653 2347.95,541.783 C2348.94,539.638 2349.98,537.438 2350.97,535.293 L2350.97,533.698 C2347.67,533.973 2345.91,534.083 2342.5,534.083 C2337.72,534.083 2333.92,533.918 2327.98,533.478 L2326.28,546.788 "/>
<path class="Harmony" d="M2628.96,1003.69 L2596.24,1003.69 L2596.24,1006.27 L2597.23,1006.27 C2600.36,1006.33 2601.41,1006.49 2601.85,1007.04 C2602.18,1007.54 2602.18,1007.65 2602.18,1010.45 L2602.18,1036.63 C2602.18,1039.44 2602.18,1039.55 2601.85,1040.04 C2601.41,1040.59 2600.36,1040.81 2597.23,1040.81 L2596.24,1040.81 L2596.24,1043.4 L2615.1,1043.4 L2615.1,1040.81 L2613.29,1040.81 C2610.15,1040.81 2609.11,1040.59 2608.67,1040.04 C2608.34,1039.55 2608.34,1039.38 2608.34,1036.63 L2608.34,1024.15 L2609.44,1024.15 C2615.1,1023.93 2617.14,1025.96 2617.36,1032.07 L2619.94,1032.07 L2619.94,1014.03 L2617.36,1014.03 C2617.03,1019.42 2614.88,1021.51 2609.66,1021.56 L2608.34,1021.56 L2608.34,1009.02 C2608.28,1006.71 2608.83,1006.33 2611.8,1006.27 L2614.33,1006.27 C2623.35,1006.22 2625.61,1008.25 2627.31,1017.71 L2629.73,1017.71 L2628.96,1003.69 "/>
<path class="Harmony" d="M1520.76,1043.4 L1539.24,1043.4 C1544.14,1043.4 1547.88,1042.63 1550.79,1040.98 C1556.35,1037.84 1559.43,1031.57 1559.43,1023.32 C1559.43,1015.73 1556.68,1009.79 1551.62,1006.49 C1548.59,1004.57 1544.52,1003.69 1538.25,1003.69 L1520.76,1003.69 L1520.76,1006.27 L1521.81,1006.27 C1524.89,1006.33 1525.93,1006.49 1526.37,1007.04 C1526.7,1007.54 1526.7,1007.65 1526.7,1010.45 L1526.7,1036.63 C1526.7,1039.44 1526.7,1039.55 1526.37,1040.04 C1525.93,1040.59 1524.89,1040.76 1521.81,1040.81 L1520.76,1040.81 L1520.76,1043.4 M1536,1040.81 C1533.19,1040.81 1532.86,1040.48 1532.86,1037.79 L1532.86,1009.35 C1532.86,1006.66 1533.25,1006.27 1536,1006.27 L1538.86,1006.27 C1548.26,1006.27 1552.17,1011.39 1552.17,1023.54 C1552.17,1035.86 1548.65,1040.81 1539.74,1040.81 L1536,1040.81 "/>
<path class="Harmony" d="M1575.46,1017.77 L1565.67,1018.37 L1565.67,1020.74 L1567.92,1020.74 C1570.01,1020.79 1570.29,1021.12 1570.29,1023.49 L1570.29,1039.22 C1570.23,1040.04 1570.18,1040.37 1569.96,1040.65 C1569.57,1041.14 1568.53,1041.36 1566.16,1041.42 L1565.94,1041.42 L1565.94,1043.4 L1579.8,1043.4 L1579.8,1041.42 L1579.58,1041.42 C1575.95,1041.31 1575.46,1041.03 1575.46,1039 L1575.46,1028.82 C1575.46,1023.93 1578.15,1020.3 1581.73,1020.3 C1584.86,1020.3 1586.46,1022.55 1586.46,1027.01 L1586.46,1039.27 C1586.4,1039.99 1586.35,1040.37 1586.07,1040.65 C1585.74,1041.14 1584.64,1041.36 1582.28,1041.42 L1582.06,1041.42 L1582.06,1043.4 L1595.97,1043.4 L1595.97,1041.42 L1595.75,1041.42 C1592.12,1041.31 1591.63,1041.03 1591.63,1039.05 L1591.63,1029.32 C1591.63,1023.82 1594.1,1020.3 1597.95,1020.3 C1601.09,1020.3 1602.63,1022.66 1602.63,1027.61 L1602.63,1039.22 C1602.57,1039.99 1602.52,1040.37 1602.24,1040.65 C1601.91,1041.14 1600.81,1041.36 1598.45,1041.42 L1598.23,1041.42 L1598.23,1043.4 L1612.14,1043.4 L1612.14,1041.42 L1611.92,1041.42 C1608.29,1041.31 1607.8,1041.03 1607.8,1039 L1607.8,1026.51 C1607.8,1023.1 1607.47,1021.95 1606.04,1020.08 C1604.44,1018.04 1602.19,1016.94 1599.55,1016.94 C1595.97,1016.94 1593.33,1018.65 1590.97,1022.44 C1590.03,1019.14 1587.06,1016.94 1583.38,1016.94 C1580.02,1016.94 1577.6,1018.54 1575.46,1022 L1575.46,1017.77 "/>
<path class="Harmony" d="M1624.53,1043.4 L1643.01,1043.4 C1647.9,1043.4 1651.64,1042.63 1654.56,1040.98 C1660.11,1037.84 1663.19,1031.57 1663.19,1023.32 C1663.19,1015.73 1660.44,1009.79 1655.38,1006.49 C1652.36,1004.57 1648.29,1003.69 1642.02,1003.69 L1624.53,1003.69 L1624.53,1006.27 L1625.57,1006.27 C1628.65,1006.33 1629.7,1006.49 1630.14,1007.04 C1630.47,1007.54 1630.47,1007.65 1630.47,1010.45 L1630.47,1036.63 C1630.47,1039.44 1630.47,1039.55 1630.14,1040.04 C1629.7,1040.59 1628.65,1040.76 1625.57,1040.81 L1624.53,1040.81 L1624.53,1043.4 M1639.76,1040.81 C1636.96,1040.81 1636.63,1040.48 1636.63,1037.79 L1636.63,1009.35 C1636.63,1006.66 1637.01,1006.27 1639.76,1006.27 L1642.62,1006.27 C1652.03,1006.27 1655.93,1011.39 1655.93,1023.54 C1655.93,1035.86 1652.41,1040.81 1643.5,1040.81 L1639.76,1040.81 "/>
<path class="Harmony" d="M1679.22,1017.77 L1669.43,1018.37 L1669.43,1020.74 L1671.69,1020.74 C1673.78,1020.79 1674.05,1021.12 1674.05,1023.49 L1674.05,1039.22 C1674,1040.04 1673.94,1040.37 1673.72,1040.65 C1673.34,1041.14 1672.29,1041.36 1669.93,1041.42 L1669.71,1041.42 L1669.71,1043.4 L1683.57,1043.4 L1683.57,1041.42 L1683.35,1041.42 C1679.72,1041.31 1679.22,1041.03 1679.22,1039 L1679.22,1028.82 C1679.22,1023.93 1681.92,1020.3 1685.49,1020.3 C1688.63,1020.3 1690.22,1022.55 1690.22,1027.01 L1690.22,1039.27 C1690.17,1039.99 1690.11,1040.37 1689.84,1040.65 C1689.51,1041.14 1688.41,1041.36 1686.04,1041.42 L1685.82,1041.42 L1685.82,1043.4 L1699.74,1043.4 L1699.74,1041.42 L1699.52,1041.42 C1695.89,1041.31 1695.39,1041.03 1695.39,1039.05 L1695.39,1029.32 C1695.39,1023.82 1697.87,1020.3 1701.72,1020.3 C1704.85,1020.3 1706.39,1022.66 1706.39,1027.61 L1706.39,1039.22 C1706.34,1039.99 1706.28,1040.37 1706.01,1040.65 C1705.68,1041.14 1704.58,1041.36 1702.21,1041.42 L1701.99,1041.42 L1701.99,1043.4 L1715.91,1043.4 L1715.91,1041.42 L1715.69,1041.42 C1712.06,1041.31 1711.56,1041.03 1711.56,1039 L1711.56,1026.51 C1711.56,1023.1 1711.23,1021.95 1709.8,1020.08 C1708.21,1018.04 1705.95,1016.94 1703.31,1016.94 C1699.74,1016.94 1697.1,1018.65 1694.73,1022.44 C1693.8,1019.14 1690.83,1016.94 1687.14,1016.94 C1683.79,1016.94 1681.37,1018.54 1679.22,1022 L1679.22,1017.77 "/>
<path class="Harmony" d="M1728.3,1043.4 L1746.78,1043.4 C1751.67,1043.4 1755.41,1042.63 1758.33,1040.98 C1763.88,1037.84 1766.96,1031.57 1766.96,1023.32 C1766.96,1015.73 1764.21,1009.79 1759.15,1006.49 C1756.13,1004.57 1752.06,1003.69 1745.79,1003.69 L1728.3,1003.69 L1728.3,1006.27 L1729.34,1006.27 C1732.42,1006.33 1733.47,1006.49 1733.91,1007.04 C1734.24,1007.54 1734.24,1007.65 1734.24,1010.45 L1734.24,1036.63 C1734.24,1039.44 1734.24,1039.55 1733.91,1040.04 C1733.47,1040.59 1732.42,1040.76 1729.34,1040.81 L1728.3,1040.81 L1728.3,1043.4 M1743.53,1040.81 C1740.73,1040.81 1740.4,1040.48 1740.4,1037.79 L1740.4,1009.35 C1740.4,1006.66 1740.78,1006.27 1743.53,1006.27 L1746.39,1006.27 C1755.8,1006.27 1759.7,1011.39 1759.7,1023.54 C1759.7,1035.86 1756.18,1040.81 1747.27,1040.81 L1743.53,1040.81 "/>
<path class="Harmony" d="M1782.99,1017.77 L1773.2,1018.37 L1773.2,1020.74 L1775.45,1020.74 C1777.54,1020.79 1777.82,1021.12 1777.82,1023.49 L1777.82,1039.22 C1777.76,1040.04 1777.71,1040.37 1777.49,1040.65 C1777.1,1041.14 1776.06,1041.36 1773.69,1041.42 L1773.47,1041.42 L1773.47,1043.4 L1787.33,1043.4 L1787.33,1041.42 L1787.11,1041.42 C1783.48,1041.31 1782.99,1041.03 1782.99,1039 L1782.99,1028.82 C1782.99,1023.93 1785.68,1020.3 1789.26,1020.3 C1792.39,1020.3 1793.99,1022.55 1793.99,1027.01 L1793.99,1039.27 C1793.93,1039.99 1793.88,1040.37 1793.6,1040.65 C1793.27,1041.14 1792.17,1041.36 1789.81,1041.42 L1789.59,1041.42 L1789.59,1043.4 L1803.5,1043.4 L1803.5,1041.42 L1803.28,1041.42 C1799.65,1041.31 1799.16,1041.03 1799.16,1039.05 L1799.16,1029.32 C1799.16,1023.82 1801.63,1020.3 1805.48,1020.3 C1808.62,1020.3 1810.16,1022.66 1810.16,1027.61 L1810.16,1039.22 C1810.1,1039.99 1810.05,1040.37 1809.77,1040.65 C1809.44,1041.14 1808.34,1041.36 1805.98,1041.42 L1805.76,1041.42 L1805.76,1043.4 L1819.67,1043.4 L1819.67,1041.42 L1819.45,1041.42 C1815.82,1041.31 1815.33,1041.03 1815.33,1039 L1815.33,1026.51 C1815.33,1023.1 1815,1021.95 1813.57,1020.08 C1811.97,1018.04 1809.72,1016.94 1807.08,1016.94 C1803.5,1016.94 1800.86,1018.65 1798.5,1022.44 C1797.56,1019.14 1794.59,1016.94 1790.91,1016.94 C1787.55,1016.94 1785.13,1018.54 1782.99,1022 L1782.99,1017.77 "/>
<path class="Harmony" d="M2162.7,572.198 L2181.18,572.198 C2186.07,572.198 2189.81,571.428 2192.73,569.778 C2198.28,566.643 2201.36,560.373 2201.36,552.123 C2201.36,544.533 2198.61,538.593 2193.55,535.293 C2190.53,533.368 2186.46,532.488 2180.19,532.488 L2162.7,532.488 L2162.7,535.073 L2163.74,535.073 C2166.82,535.128 2167.87,535.293 2168.31,535.843 C2168.64,536.338 2168.64,536.448 2168.64,539.253 L2168.64,565.433 C2168.64,568.238 2168.64,568.348 2168.31,568.843 C2167.87,569.393 2166.82,569.558 2163.74,569.613 L2162.7,569.613 L2162.7,572.198 M2177.93,569.613 C2175.13,569.613 2174.8,569.283 2174.8,566.588 L2174.8,538.153 C2174.8,535.458 2175.18,535.073 2177.93,535.073 L2180.79,535.073 C2190.2,535.073 2194.1,540.188 2194.1,552.343 C2194.1,564.663 2190.58,569.613 2181.67,569.613 L2177.93,569.613 "/>
<path class="Harmony" d="M2209.58,546.788 L2212,547.173 L2212.99,542.828 C2213.82,539.198 2214.2,538.648 2215.8,538.648 C2216.07,538.648 2216.51,538.648 2217.01,538.703 C2223.77,539.033 2223.77,539.033 2226.3,539.033 C2227.02,539.033 2228.28,539.033 2229.82,538.978 L2226.08,546.513 C2222.01,554.598 2221.52,555.588 2220.14,558.998 C2218.44,563.123 2217.56,566.588 2217.56,568.898 C2217.56,571.428 2218.88,572.968 2221.02,572.968 C2223.66,572.968 2224.71,571.208 2224.65,566.423 C2224.38,558.503 2225.37,554.653 2231.25,541.783 C2232.24,539.638 2233.29,537.438 2234.28,535.293 L2234.28,533.698 C2230.98,533.973 2229.22,534.083 2225.81,534.083 C2221.02,534.083 2217.23,533.918 2211.29,533.478 L2209.58,546.788 "/>
<path class="Harmony" d="M2557.99,1003.69 L2525.26,1003.69 L2525.26,1006.27 L2526.25,1006.27 C2529.39,1006.33 2530.43,1006.49 2530.87,1007.04 C2531.2,1007.54 2531.2,1007.65 2531.2,1010.45 L2531.2,1036.63 C2531.2,1039.44 2531.2,1039.55 2530.87,1040.04 C2530.43,1040.59 2529.39,1040.81 2526.25,1040.81 L2525.26,1040.81 L2525.26,1043.4 L2544.13,1043.4 L2544.13,1040.81 L2542.31,1040.81 C2539.18,1040.81 2538.13,1040.59 2537.69,1040.04 C2537.36,1039.55 2537.36,1039.38 2537.36,1036.63 L2537.36,1024.15 L2538.46,1024.15 C2544.13,1023.93 2546.16,1025.96 2546.38,1032.07 L2548.97,1032.07 L2548.97,1014.03 L2546.38,1014.03 C2546.05,1019.42 2543.91,1021.51 2538.68,1021.56 L2537.36,1021.56 L2537.36,1009.02 C2537.31,1006.71 2537.86,1006.33 2540.83,1006.27 L2543.36,1006.27 C2552.38,1006.22 2554.63,1008.25 2556.34,1017.71 L2558.76,1017.71 L2557.99,1003.69 "/>
<path class="Harmony" d="M2024.62,572.198 L2043.1,572.198 C2048,572.198 2051.74,571.428 2054.65,569.778 C2060.21,566.643 2063.29,560.373 2063.29,552.123 C2063.29,544.533 2060.54,538.593 2055.48,535.293 C2052.45,533.368 2048.38,532.488 2042.11,532.488 L2024.62,532.488 L2024.62,535.073 L2025.67,535.073 C2028.75,535.128 2029.79,535.293 2030.23,535.843 C2030.56,536.338 2030.56,536.448 2030.56,539.253 L2030.56,565.433 C2030.56,568.238 2030.56,568.348 2030.23,568.843 C2029.79,569.393 2028.75,569.558 2025.67,569.613 L2024.62,569.613 L2024.62,572.198 M2039.86,569.613 C2037.05,569.613 2036.72,569.283 2036.72,566.588 L2036.72,538.153 C2036.72,535.458 2037.11,535.073 2039.86,535.073 L2042.72,535.073 C2052.12,535.073 2056.03,540.188 2056.03,552.343 C2056.03,564.663 2052.51,569.613 2043.6,569.613 L2039.86,569.613 "/>
<path class="Harmony" d="M2071.5,546.788 L2073.92,547.173 L2074.91,542.828 C2075.74,539.198 2076.12,538.648 2077.72,538.648 C2077.99,538.648 2078.43,538.648 2078.93,538.703 C2085.69,539.033 2085.69,539.033 2088.22,539.033 C2088.94,539.033 2090.2,539.033 2091.74,538.978 L2088,546.513 C2083.93,554.598 2083.44,555.588 2082.06,558.998 C2080.36,563.123 2079.48,566.588 2079.48,568.898 C2079.48,571.428 2080.8,572.968 2082.94,572.968 C2085.58,572.968 2086.63,571.208 2086.57,566.423 C2086.3,558.503 2087.29,554.653 2093.17,541.783 C2094.16,539.638 2095.21,537.438 2096.2,535.293 L2096.2,533.698 C2092.9,533.973 2091.14,534.083 2087.73,534.083 C2082.94,534.083 2079.15,533.918 2073.21,533.478 L2071.5,546.788 "/>
<path class="Harmony" d="M1882.56,532.488 L1849.84,532.488 L1849.84,535.073 L1850.83,535.073 C1853.96,535.128 1855.01,535.293 1855.45,535.843 C1855.78,536.338 1855.78,536.448 1855.78,539.253 L1855.78,565.433 C1855.78,568.238 1855.78,568.348 1855.45,568.843 C1855.01,569.393 1853.96,569.613 1850.83,569.613 L1849.84,569.613 L1849.84,572.198 L1868.7,572.198 L1868.7,569.613 L1866.89,569.613 C1863.75,569.613 1862.71,569.393 1862.27,568.843 C1861.94,568.348 1861.94,568.183 1861.94,565.433 L1861.94,552.948 L1863.04,552.948 C1868.7,552.728 1870.74,554.763 1870.96,560.868 L1873.54,560.868 L1873.54,542.828 L1870.96,542.828 C1870.63,548.218 1868.48,550.308 1863.26,550.363 L1861.94,550.363 L1861.94,537.823 C1861.88,535.513 1862.43,535.128 1865.4,535.073 L1867.93,535.073 C1876.95,535.018 1879.21,537.053 1880.91,546.513 L1883.33,546.513 L1882.56,532.488 "/>
<path class="Harmony" d="M1869.43,1003.3 L1867.34,1003.3 L1865.19,1006.6 C1861.62,1003.8 1859.2,1002.86 1855.18,1002.86 C1850.84,1002.86 1847.43,1004.07 1843.96,1006.88 C1838.52,1011.28 1835.99,1016.83 1835.99,1024.26 C1835.99,1029.87 1837.58,1034.54 1840.83,1038.12 C1844.24,1041.97 1849.3,1044.22 1854.58,1044.22 C1859.2,1044.22 1862.44,1042.79 1866.02,1039.22 L1868.05,1044.17 L1870.36,1044.17 L1870.36,1032.07 C1870.36,1029.26 1870.36,1029.15 1870.69,1028.66 C1871.19,1028.05 1872.18,1027.89 1875.31,1027.89 L1876.14,1027.89 L1876.14,1025.3 L1858.65,1025.3 L1858.65,1027.89 L1859.69,1027.89 C1864.31,1027.89 1864.7,1028.16 1864.7,1031.24 C1864.7,1033.61 1864.31,1035.75 1863.6,1037.07 C1862.22,1039.77 1858.7,1041.64 1855.13,1041.64 C1851.55,1041.64 1848.03,1039.82 1846.16,1037.07 C1844.13,1033.99 1843.25,1030.14 1843.25,1024.26 C1843.25,1011.99 1847.32,1005.45 1854.96,1005.45 C1861.23,1005.45 1865.58,1009.96 1867.83,1018.76 L1870.2,1018.76 L1869.43,1003.3 "/>
<path class="Harmony" d="M1889.97,1017.77 L1880.18,1018.37 L1880.18,1020.74 L1882.43,1020.74 C1884.52,1020.79 1884.8,1021.12 1884.8,1023.49 L1884.8,1039.22 C1884.74,1040.04 1884.69,1040.37 1884.47,1040.65 C1884.08,1041.14 1883.04,1041.36 1880.67,1041.42 L1880.45,1041.42 L1880.45,1043.4 L1894.31,1043.4 L1894.31,1041.42 L1894.09,1041.42 C1890.46,1041.31 1889.97,1041.03 1889.97,1039 L1889.97,1028.82 C1889.97,1023.93 1892.66,1020.3 1896.24,1020.3 C1899.37,1020.3 1900.97,1022.55 1900.97,1027.01 L1900.97,1039.27 C1900.91,1039.99 1900.86,1040.37 1900.58,1040.65 C1900.25,1041.14 1899.15,1041.36 1896.79,1041.42 L1896.57,1041.42 L1896.57,1043.4 L1910.48,1043.4 L1910.48,1041.42 L1910.26,1041.42 C1906.63,1041.31 1906.14,1041.03 1906.14,1039.05 L1906.14,1029.32 C1906.14,1023.82 1908.61,1020.3 1912.46,1020.3 C1915.6,1020.3 1917.14,1022.66 1917.14,1027.61 L1917.14,1039.22 C1917.08,1039.99 1917.03,1040.37 1916.75,1040.65 C1916.42,1041.14 1915.32,1041.36 1912.96,1041.42 L1912.74,1041.42 L1912.74,1043.4 L1926.65,1043.4 L1926.65,1041.42 L1926.43,1041.42 C1922.8,1041.31 1922.31,1041.03 1922.31,1039 L1922.31,1026.51 C1922.31,1023.1 1921.98,1021.95 1920.55,1020.08 C1918.95,1018.04 1916.7,1016.94 1914.06,1016.94 C1910.48,1016.94 1907.84,1018.65 1905.48,1022.44 C1904.54,1019.14 1901.57,1016.94 1897.89,1016.94 C1894.53,1016.94 1892.11,1018.54 1889.97,1022 L1889.97,1017.77 "/>
<path class="Harmony" d="M1744.48,532.488 L1711.76,532.488 L1711.76,535.073 L1712.75,535.073 C1715.88,535.128 1716.93,535.293 1717.37,535.843 C1717.7,536.338 1717.7,536.448 1717.7,539.253 L1717.7,565.433 C1717.7,568.238 1717.7,568.348 1717.37,568.843 C1716.93,569.393 1715.88,569.613 1712.75,569.613 L1711.76,569.613 L1711.76,572.198 L1730.62,572.198 L1730.62,569.613 L1728.81,569.613 C1725.67,569.613 1724.63,569.393 1724.19,568.843 C1723.86,568.348 1723.86,568.183 1723.86,565.433 L1723.86,552.948 L1724.96,552.948 C1730.62,552.728 1732.66,554.763 1732.88,560.868 L1735.46,560.868 L1735.46,542.828 L1732.88,542.828 C1732.55,548.218 1730.4,550.308 1725.18,550.363 L1723.86,550.363 L1723.86,537.823 C1723.8,535.513 1724.35,535.128 1727.32,535.073 L1729.85,535.073 C1738.87,535.018 1741.13,537.053 1742.83,546.513 L1745.25,546.513 L1744.48,532.488 "/>
<path class="Harmony" d="M1606.41,532.488 L1573.68,532.488 L1573.68,535.073 L1574.67,535.073 C1577.81,535.128 1578.85,535.293 1579.29,535.843 C1579.62,536.338 1579.62,536.448 1579.62,539.253 L1579.62,565.433 C1579.62,568.238 1579.62,568.348 1579.29,568.843 C1578.85,569.393 1577.81,569.613 1574.67,569.613 L1573.68,569.613 L1573.68,572.198 L1592.55,572.198 L1592.55,569.613 L1590.73,569.613 C1587.6,569.613 1586.55,569.393 1586.11,568.843 C1585.78,568.348 1585.78,568.183 1585.78,565.433 L1585.78,552.948 L1586.88,552.948 C1592.55,552.728 1594.58,554.763 1594.8,560.868 L1597.39,560.868 L1597.39,542.828 L1594.8,542.828 C1594.47,548.218 1592.33,550.308 1587.1,550.363 L1585.78,550.363 L1585.78,537.823 C1585.73,535.513 1586.28,535.128 1589.25,535.073 L1591.78,535.073 C1600.8,535.018 1603.05,537.053 1604.76,546.513 L1607.18,546.513 L1606.41,532.488 "/>
<path class="Harmony" d="M1981.41,1003.3 L1979.32,1003.3 L1977.17,1006.6 C1973.6,1003.8 1971.18,1002.86 1967.16,1002.86 C1962.82,1002.86 1959.41,1004.07 1955.94,1006.88 C1950.5,1011.28 1947.97,1016.83 1947.97,1024.26 C1947.97,1029.87 1949.56,1034.54 1952.81,1038.12 C1956.22,1041.97 1961.28,1044.22 1966.56,1044.22 C1971.18,1044.22 1974.42,1042.79 1978,1039.22 L1980.03,1044.17 L1982.34,1044.17 L1982.34,1032.07 C1982.34,1029.26 1982.34,1029.15 1982.67,1028.66 C1983.17,1028.05 1984.16,1027.89 1987.29,1027.89 L1988.12,1027.89 L1988.12,1025.3 L1970.63,1025.3 L1970.63,1027.89 L1971.67,1027.89 C1976.29,1027.89 1976.68,1028.16 1976.68,1031.24 C1976.68,1033.61 1976.29,1035.75 1975.58,1037.07 C1974.2,1039.77 1970.68,1041.64 1967.11,1041.64 C1963.53,1041.64 1960.01,1039.82 1958.14,1037.07 C1956.11,1033.99 1955.23,1030.14 1955.23,1024.26 C1955.23,1011.99 1959.3,1005.45 1966.94,1005.45 C1973.21,1005.45 1977.56,1009.96 1979.81,1018.76 L1982.18,1018.76 L1981.41,1003.3 "/>
<path class="Harmony" d="M2001.94,1017.77 L1992.15,1018.37 L1992.15,1020.74 L1994.41,1020.74 C1996.5,1020.79 1996.77,1021.12 1996.77,1023.49 L1996.77,1039.22 C1996.72,1040.04 1996.66,1040.37 1996.44,1040.65 C1996.06,1041.14 1995.01,1041.36 1992.65,1041.42 L1992.43,1041.42 L1992.43,1043.4 L2006.29,1043.4 L2006.29,1041.42 L2006.07,1041.42 C2002.44,1041.31 2001.94,1041.03 2001.94,1039 L2001.94,1028.82 C2001.94,1023.93 2004.64,1020.3 2008.21,1020.3 C2011.35,1020.3 2012.94,1022.55 2012.94,1027.01 L2012.94,1039.27 C2012.89,1039.99 2012.83,1040.37 2012.56,1040.65 C2012.23,1041.14 2011.13,1041.36 2008.76,1041.42 L2008.54,1041.42 L2008.54,1043.4 L2022.46,1043.4 L2022.46,1041.42 L2022.24,1041.42 C2018.61,1041.31 2018.11,1041.03 2018.11,1039.05 L2018.11,1029.32 C2018.11,1023.82 2020.59,1020.3 2024.44,1020.3 C2027.57,1020.3 2029.11,1022.66 2029.11,1027.61 L2029.11,1039.22 C2029.06,1039.99 2029,1040.37 2028.73,1040.65 C2028.4,1041.14 2027.3,1041.36 2024.93,1041.42 L2024.71,1041.42 L2024.71,1043.4 L2038.63,1043.4 L2038.63,1041.42 L2038.41,1041.42 C2034.78,1041.31 2034.28,1041.03 2034.28,1039 L2034.28,1026.51 C2034.28,1023.1 2033.95,1021.95 2032.52,1020.08 C2030.93,1018.04 2028.67,1016.94 2026.03,1016.94 C2022.46,1016.94 2019.82,1018.65 2017.45,1022.44 C2016.52,1019.14 2013.55,1016.94 2009.86,1016.94 C2006.51,1016.94 2004.09,1018.54 2001.94,1022 L2001.94,1017.77 "/>
<path class="Harmony" d="M1482.18,532.488 L1449.46,532.488 L1449.46,535.073 L1450.45,535.073 C1453.58,535.128 1454.63,535.293 1455.07,535.843 C1455.4,536.338 1455.4,536.448 1455.4,539.253 L1455.4,565.433 C1455.4,568.238 1455.4,568.348 1455.07,568.843 C1454.63,569.393 1453.58,569.613 1450.45,569.613 L1449.46,569.613 L1449.46,572.198 L1468.32,572.198 L1468.32,569.613 L1466.51,569.613 C1463.37,569.613 1462.33,569.393 1461.89,568.843 C1461.56,568.348 1461.56,568.183 1461.56,565.433 L1461.56,552.948 L1462.66,552.948 C1468.32,552.728 1470.36,554.763 1470.58,560.868 L1473.16,560.868 L1473.16,542.828 L1470.58,542.828 C1470.25,548.218 1468.1,550.308 1462.88,550.363 L1461.56,550.363 L1461.56,537.823 C1461.5,535.513 1462.05,535.128 1465.02,535.073 L1467.55,535.073 C1476.57,535.018 1478.83,537.053 1480.53,546.513 L1482.95,546.513 L1482.18,532.488 "/>
<path class="Harmony" d="M1394.66,532.488 L1361.94,532.488 L1361.94,535.073 L1362.93,535.073 C1366.06,535.128 1367.11,535.293 1367.55,535.843 C1367.88,536.338 1367.88,536.448 1367.88,539.253 L1367.88,565.433 C1367.88,568.238 1367.88,568.348 1367.55,568.843 C1367.11,569.393 1366.06,569.613 1362.93,569.613 L1361.94,569.613 L1361.94,572.198 L1380.8,572.198 L1380.8,569.613 L1378.99,569.613 C1375.85,569.613 1374.81,569.393 1374.37,568.843 C1374.04,568.348 1374.04,568.183 1374.04,565.433 L1374.04,552.948 L1375.14,552.948 C1380.8,552.728 1382.84,554.763 1383.06,560.868 L1385.64,560.868 L1385.64,542.828 L1383.06,542.828 C1382.73,548.218 1380.58,550.308 1375.36,550.363 L1374.04,550.363 L1374.04,537.823 C1373.98,535.513 1374.53,535.128 1377.5,535.073 L1380.03,535.073 C1389.05,535.018 1391.31,537.053 1393.01,546.513 L1395.43,546.513 L1394.66,532.488 "/>
<path class="Harmony" d="M2093.38,1003.3 L2091.29,1003.3 L2089.15,1006.6 C2085.57,1003.8 2083.15,1002.86 2079.14,1002.86 C2074.79,1002.86 2071.38,1004.07 2067.92,1006.88 C2062.47,1011.28 2059.94,1016.83 2059.94,1024.26 C2059.94,1029.87 2061.54,1034.54 2064.78,1038.12 C2068.19,1041.97 2073.25,1044.22 2078.53,1044.22 C2083.15,1044.22 2086.4,1042.79 2089.97,1039.22 L2092.01,1044.17 L2094.32,1044.17 L2094.32,1032.07 C2094.32,1029.26 2094.32,1029.15 2094.65,1028.66 C2095.14,1028.05 2096.13,1027.89 2099.27,1027.89 L2100.09,1027.89 L2100.09,1025.3 L2082.6,1025.3 L2082.6,1027.89 L2083.65,1027.89 C2088.27,1027.89 2088.65,1028.16 2088.65,1031.24 C2088.65,1033.61 2088.27,1035.75 2087.55,1037.07 C2086.18,1039.77 2082.66,1041.64 2079.08,1041.64 C2075.51,1041.64 2071.99,1039.82 2070.12,1037.07 C2068.08,1033.99 2067.2,1030.14 2067.2,1024.26 C2067.2,1011.99 2071.27,1005.45 2078.92,1005.45 C2085.19,1005.45 2089.53,1009.96 2091.79,1018.76 L2094.15,1018.76 L2093.38,1003.3 "/>
<path class="Harmony" d="M2113.92,1017.77 L2104.13,1018.37 L2104.13,1020.74 L2106.39,1020.74 C2108.48,1020.79 2108.75,1021.12 2108.75,1023.49 L2108.75,1039.22 C2108.7,1040.04 2108.64,1040.37 2108.42,1040.65 C2108.04,1041.14 2106.99,1041.36 2104.63,1041.42 L2104.41,1041.42 L2104.41,1043.4 L2118.27,1043.4 L2118.27,1041.42 L2118.05,1041.42 C2114.42,1041.31 2113.92,1041.03 2113.92,1039 L2113.92,1028.82 C2113.92,1023.93 2116.62,1020.3 2120.19,1020.3 C2123.33,1020.3 2124.92,1022.55 2124.92,1027.01 L2124.92,1039.27 C2124.87,1039.99 2124.81,1040.37 2124.54,1040.65 C2124.21,1041.14 2123.11,1041.36 2120.74,1041.42 L2120.52,1041.42 L2120.52,1043.4 L2134.44,1043.4 L2134.44,1041.42 L2134.22,1041.42 C2130.59,1041.31 2130.09,1041.03 2130.09,1039.05 L2130.09,1029.32 C2130.09,1023.82 2132.57,1020.3 2136.42,1020.3 C2139.55,1020.3 2141.09,1022.66 2141.09,1027.61 L2141.09,1039.22 C2141.04,1039.99 2140.98,1040.37 2140.71,1040.65 C2140.38,1041.14 2139.28,1041.36 2136.91,1041.42 L2136.69,1041.42 L2136.69,1043.4 L2150.61,1043.4 L2150.61,1041.42 L2150.39,1041.42 C2146.76,1041.31 2146.26,1041.03 2146.26,1039 L2146.26,1026.51 C2146.26,1023.1 2145.93,1021.95 2144.5,1020.08 C2142.91,1018.04 2140.65,1016.94 2138.01,1016.94 C2134.44,1016.94 2131.8,1018.65 2129.43,1022.44 C2128.5,1019.14 2125.53,1016.94 2121.84,1016.94 C2118.49,1016.94 2116.07,1018.54 2113.92,1022 L2113.92,1017.77 "/>
<path class="Harmony" d="M1307.15,532.488 L1274.42,532.488 L1274.42,535.073 L1275.41,535.073 C1278.55,535.128 1279.59,535.293 1280.03,535.843 C1280.36,536.338 1280.36,536.448 1280.36,539.253 L1280.36,565.433 C1280.36,568.238 1280.36,568.348 1280.03,568.843 C1279.59,569.393 1278.55,569.613 1275.41,569.613 L1274.42,569.613 L1274.42,572.198 L1293.29,572.198 L1293.29,569.613 L1291.47,569.613 C1288.34,569.613 1287.29,569.393 1286.85,568.843 C1286.52,568.348 1286.52,568.183 1286.52,565.433 L1286.52,552.948 L1287.62,552.948 C1293.29,552.728 1295.32,554.763 1295.54,560.868 L1298.13,560.868 L1298.13,542.828 L1295.54,542.828 C1295.21,548.218 1293.07,550.308 1287.84,550.363 L1286.52,550.363 L1286.52,537.823 C1286.47,535.513 1287.02,535.128 1289.99,535.073 L1292.52,535.073 C1301.54,535.018 1303.79,537.053 1305.5,546.513 L1307.92,546.513 L1307.15,532.488 "/>
<path class="Harmony" d="M808.16,1003.3 L806.07,1003.3 L803.87,1006.55 C799.855,1003.63 797.82,1002.86 794.025,1002.86 C788.8,1002.86 784.345,1005.06 780.66,1009.46 C777.14,1013.64 775.49,1018.26 775.49,1023.93 C775.49,1035.81 783.245,1044.22 794.08,1044.22 C802.88,1044.22 808.49,1039.05 809.755,1029.81 L807.17,1029.37 C805.685,1037.57 801.505,1041.64 794.74,1041.64 C786.6,1041.64 782.75,1036.03 782.75,1024.15 C782.75,1017.88 783.575,1013.75 785.445,1010.45 C787.15,1007.37 790.505,1005.45 794.08,1005.45 C797.93,1005.45 801.34,1007.48 803.43,1011 C804.475,1012.82 805.245,1014.85 806.565,1019.2 L808.985,1019.2 L808.16,1003.3 "/>
<path class="Harmony" d="M818.417,1017.99 L820.837,1018.37 L821.827,1014.03 C822.652,1010.4 823.037,1009.85 824.632,1009.85 C824.907,1009.85 825.347,1009.85 825.842,1009.9 C832.607,1010.23 832.607,1010.23 835.137,1010.23 C835.852,1010.23 837.117,1010.23 838.657,1010.18 L834.917,1017.71 C830.847,1025.8 830.352,1026.79 828.977,1030.2 C827.272,1034.32 826.392,1037.79 826.392,1040.1 C826.392,1042.63 827.712,1044.17 829.857,1044.17 C832.497,1044.17 833.542,1042.41 833.487,1037.62 C833.212,1029.7 834.202,1025.85 840.087,1012.98 C841.077,1010.84 842.122,1008.64 843.112,1006.49 L843.112,1004.9 C839.812,1005.17 838.052,1005.28 834.642,1005.28 C829.857,1005.28 826.062,1005.12 820.122,1004.68 L818.417,1017.99 "/>
<path class="Harmony" d="M1132.36,532.488 L1099.64,532.488 L1099.64,535.073 L1100.63,535.073 C1103.76,535.128 1104.81,535.293 1105.25,535.843 C1105.58,536.338 1105.58,536.448 1105.58,539.253 L1105.58,565.433 C1105.58,568.238 1105.58,568.348 1105.25,568.843 C1104.81,569.393 1103.76,569.613 1100.63,569.613 L1099.64,569.613 L1099.64,572.198 L1118.5,572.198 L1118.5,569.613 L1116.69,569.613 C1113.55,569.613 1112.51,569.393 1112.07,568.843 C1111.74,568.348 1111.74,568.183 1111.74,565.433 L1111.74,552.948 L1112.84,552.948 C1118.5,552.728 1120.54,554.763 1120.76,560.868 L1123.34,560.868 L1123.34,542.828 L1120.76,542.828 C1120.43,548.218 1118.28,550.308 1113.06,550.363 L1111.74,550.363 L1111.74,537.823 C1111.68,535.513 1112.23,535.128 1115.2,535.073 L1117.73,535.073 C1126.75,535.018 1129.01,537.053 1130.71,546.513 L1133.13,546.513 L1132.36,532.488 "/>
<path class="Harmony" d="M1028.8,532.488 L996.079,532.488 L996.079,535.073 L997.069,535.073 C1000.2,535.128 1001.25,535.293 1001.69,535.843 C1002.02,536.338 1002.02,536.448 1002.02,539.253 L1002.02,565.433 C1002.02,568.238 1002.02,568.348 1001.69,568.843 C1001.25,569.393 1000.2,569.613 997.069,569.613 L996.079,569.613 L996.079,572.198 L1014.94,572.198 L1014.94,569.613 L1013.13,569.613 C1009.99,569.613 1008.95,569.393 1008.51,568.843 C1008.18,568.348 1008.18,568.183 1008.18,565.433 L1008.18,552.948 L1009.28,552.948 C1014.94,552.728 1016.98,554.763 1017.2,560.868 L1019.78,560.868 L1019.78,542.828 L1017.2,542.828 C1016.87,548.218 1014.72,550.308 1009.5,550.363 L1008.18,550.363 L1008.18,537.823 C1008.12,535.513 1008.67,535.128 1011.64,535.073 L1014.17,535.073 C1023.19,535.018 1025.45,537.053 1027.15,546.513 L1029.57,546.513 L1028.8,532.488 "/>
<path class="Harmony" d="M2241.29,1003.3 L2239.2,1003.3 L2237,1006.55 C2232.98,1003.63 2230.95,1002.86 2227.15,1002.86 C2221.93,1002.86 2217.47,1005.06 2213.79,1009.46 C2210.27,1013.64 2208.62,1018.26 2208.62,1023.93 C2208.62,1035.81 2216.37,1044.22 2227.21,1044.22 C2236.01,1044.22 2241.62,1039.05 2242.88,1029.81 L2240.3,1029.37 C2238.81,1037.57 2234.63,1041.64 2227.87,1041.64 C2219.73,1041.64 2215.88,1036.03 2215.88,1024.15 C2215.88,1017.88 2216.7,1013.75 2218.57,1010.45 C2220.28,1007.37 2223.63,1005.45 2227.21,1005.45 C2231.06,1005.45 2234.47,1007.48 2236.56,1011 C2237.6,1012.82 2238.37,1014.85 2239.69,1019.2 L2242.11,1019.2 L2241.29,1003.3 "/>
<path class="Harmony" d="M2251.55,1017.99 L2253.97,1018.37 L2254.96,1014.03 C2255.78,1010.4 2256.17,1009.85 2257.76,1009.85 C2258.04,1009.85 2258.48,1009.85 2258.97,1009.9 C2265.74,1010.23 2265.74,1010.23 2268.27,1010.23 C2268.98,1010.23 2270.25,1010.23 2271.79,1010.18 L2268.05,1017.71 C2263.98,1025.8 2263.48,1026.79 2262.11,1030.2 C2260.4,1034.32 2259.52,1037.79 2259.52,1040.1 C2259.52,1042.63 2260.84,1044.17 2262.99,1044.17 C2265.63,1044.17 2266.67,1042.41 2266.62,1037.62 C2266.34,1029.7 2267.33,1025.85 2273.22,1012.98 C2274.21,1010.84 2275.25,1008.64 2276.24,1006.49 L2276.24,1004.9 C2272.94,1005.17 2271.18,1005.28 2267.77,1005.28 C2262.99,1005.28 2259.19,1005.12 2253.25,1004.68 L2251.55,1017.99 "/>
<path class="Harmony" d="M2325.27,1003.3 L2323.18,1003.3 L2320.98,1006.55 C2316.97,1003.63 2314.93,1002.86 2311.14,1002.86 C2305.91,1002.86 2301.46,1005.06 2297.77,1009.46 C2294.25,1013.64 2292.6,1018.26 2292.6,1023.93 C2292.6,1035.81 2300.36,1044.22 2311.19,1044.22 C2319.99,1044.22 2325.6,1039.05 2326.87,1029.81 L2324.28,1029.37 C2322.8,1037.57 2318.62,1041.64 2311.85,1041.64 C2303.71,1041.64 2299.86,1036.03 2299.86,1024.15 C2299.86,1017.88 2300.69,1013.75 2302.56,1010.45 C2304.26,1007.37 2307.62,1005.45 2311.19,1005.45 C2315.04,1005.45 2318.45,1007.48 2320.54,1011 C2321.59,1012.82 2322.36,1014.85 2323.68,1019.2 L2326.1,1019.2 L2325.27,1003.3 "/>
<path class="Harmony" d="M2335.53,1017.99 L2337.95,1018.37 L2338.94,1014.03 C2339.76,1010.4 2340.15,1009.85 2341.74,1009.85 C2342.02,1009.85 2342.46,1009.85 2342.95,1009.9 C2349.72,1010.23 2349.72,1010.23 2352.25,1010.23 C2352.96,1010.23 2354.23,1010.23 2355.77,1010.18 L2352.03,1017.71 C2347.96,1025.8 2347.46,1026.79 2346.09,1030.2 C2344.38,1034.32 2343.5,1037.79 2343.5,1040.1 C2343.5,1042.63 2344.82,1044.17 2346.97,1044.17 C2349.61,1044.17 2350.65,1042.41 2350.6,1037.62 C2350.32,1029.7 2351.31,1025.85 2357.2,1012.98 C2358.19,1010.84 2359.23,1008.64 2360.22,1006.49 L2360.22,1004.9 C2356.92,1005.17 2355.16,1005.28 2351.75,1005.28 C2346.97,1005.28 2343.17,1005.12 2337.23,1004.68 L2335.53,1017.99 "/>
<path class="Harmony" d="M925.245,532.488 L892.52,532.488 L892.52,535.073 L893.51,535.073 C896.645,535.128 897.69,535.293 898.13,535.843 C898.46,536.338 898.46,536.448 898.46,539.253 L898.46,565.433 C898.46,568.238 898.46,568.348 898.13,568.843 C897.69,569.393 896.645,569.613 893.51,569.613 L892.52,569.613 L892.52,572.198 L911.385,572.198 L911.385,569.613 L909.57,569.613 C906.435,569.613 905.39,569.393 904.95,568.843 C904.62,568.348 904.62,568.183 904.62,565.433 L904.62,552.948 L905.72,552.948 C911.385,552.728 913.42,554.763 913.64,560.868 L916.225,560.868 L916.225,542.828 L913.64,542.828 C913.31,548.218 911.165,550.308 905.94,550.363 L904.62,550.363 L904.62,537.823 C904.565,535.513 905.115,535.128 908.085,535.073 L910.615,535.073 C919.635,535.018 921.89,537.053 923.595,546.513 L926.015,546.513 L925.245,532.488 "/>
<path class="Harmony" d="M750.463,532.488 L717.738,532.488 L717.738,535.073 L718.728,535.073 C721.863,535.128 722.908,535.293 723.348,535.843 C723.678,536.338 723.678,536.448 723.678,539.253 L723.678,565.433 C723.678,568.238 723.678,568.348 723.348,568.843 C722.908,569.393 721.863,569.613 718.728,569.613 L717.738,569.613 L717.738,572.198 L736.603,572.198 L736.603,569.613 L734.788,569.613 C731.653,569.613 730.608,569.393 730.168,568.843 C729.838,568.348 729.838,568.183 729.838,565.433 L729.838,552.948 L730.938,552.948 C736.603,552.728 738.638,554.763 738.858,560.868 L741.443,560.868 L741.443,542.828 L738.858,542.828 C738.528,548.218 736.383,550.308 731.158,550.363 L729.838,550.363 L729.838,537.823 C729.783,535.513 730.333,535.128 733.303,535.073 L735.833,535.073 C744.853,535.018 747.108,537.053 748.813,546.513 L751.233,546.513 L750.463,532.488 "/>
<path class="Harmony" d="M612.385,532.488 L579.66,532.488 L579.66,535.073 L580.65,535.073 C583.785,535.128 584.83,535.293 585.27,535.843 C585.6,536.338 585.6,536.448 585.6,539.253 L585.6,565.433 C585.6,568.238 585.6,568.348 585.27,568.843 C584.83,569.393 583.785,569.613 580.65,569.613 L579.66,569.613 L579.66,572.198 L598.525,572.198 L598.525,569.613 L596.71,569.613 C593.575,569.613 592.53,569.393 592.09,568.843 C591.76,568.348 591.76,568.183 591.76,565.433 L591.76,552.948 L592.86,552.948 C598.525,552.728 600.56,554.763 600.78,560.868 L603.365,560.868 L603.365,542.828 L600.78,542.828 C600.45,548.218 598.305,550.308 593.08,550.363 L591.76,550.363 L591.76,537.823 C591.705,535.513 592.255,535.128 595.225,535.073 L597.755,535.073 C606.775,535.018 609.03,537.053 610.735,546.513 L613.155,546.513 L612.385,532.488 "/>
<path class="Harmony" d="M2409.26,1003.3 L2407.17,1003.3 L2404.97,1006.55 C2400.95,1003.63 2398.92,1002.86 2395.12,1002.86 C2389.9,1002.86 2385.44,1005.06 2381.76,1009.46 C2378.24,1013.64 2376.59,1018.26 2376.59,1023.93 C2376.59,1035.81 2384.34,1044.22 2395.18,1044.22 C2403.98,1044.22 2409.59,1039.05 2410.85,1029.81 L2408.27,1029.37 C2406.78,1037.57 2402.6,1041.64 2395.84,1041.64 C2387.7,1041.64 2383.85,1036.03 2383.85,1024.15 C2383.85,1017.88 2384.67,1013.75 2386.54,1010.45 C2388.25,1007.37 2391.6,1005.45 2395.18,1005.45 C2399.03,1005.45 2402.44,1007.48 2404.53,1011 C2405.57,1012.82 2406.34,1014.85 2407.66,1019.2 L2410.08,1019.2 L2409.26,1003.3 "/>
<path class="Harmony" d="M2419.51,1017.99 L2421.93,1018.37 L2422.92,1014.03 C2423.75,1010.4 2424.13,1009.85 2425.73,1009.85 C2426,1009.85 2426.44,1009.85 2426.94,1009.9 C2433.7,1010.23 2433.7,1010.23 2436.23,1010.23 C2436.95,1010.23 2438.21,1010.23 2439.75,1010.18 L2436.01,1017.71 C2431.94,1025.8 2431.45,1026.79 2430.07,1030.2 C2428.37,1034.32 2427.49,1037.79 2427.49,1040.1 C2427.49,1042.63 2428.81,1044.17 2430.95,1044.17 C2433.59,1044.17 2434.64,1042.41 2434.58,1037.62 C2434.31,1029.7 2435.3,1025.85 2441.18,1012.98 C2442.17,1010.84 2443.22,1008.64 2444.21,1006.49 L2444.21,1004.9 C2440.91,1005.17 2439.15,1005.28 2435.74,1005.28 C2430.95,1005.28 2427.16,1005.12 2421.22,1004.68 L2419.51,1017.99 "/>
<path class="Harmony" d="M474.306,532.488 L441.581,532.488 L441.581,535.073 L442.571,535.073 C445.706,535.128 446.751,535.293 447.191,535.843 C447.521,536.338 447.521,536.448 447.521,539.253 L447.521,565.433 C447.521,568.238 447.521,568.348 447.191,568.843 C446.751,569.393 445.706,569.613 442.571,569.613 L441.581,569.613 L441.581,572.198 L460.446,572.198 L460.446,569.613 L458.631,569.613 C455.496,569.613 454.451,569.393 454.011,568.843 C453.681,568.348 453.681,568.183 453.681,565.433 L453.681,552.948 L454.781,552.948 C460.446,552.728 462.481,554.763 462.701,560.868 L465.286,560.868 L465.286,542.828 L462.701,542.828 C462.371,548.218 460.226,550.308 455.001,550.363 L453.681,550.363 L453.681,537.823 C453.626,535.513 454.176,535.128 457.146,535.073 L459.676,535.073 C468.696,535.018 470.951,537.053 472.656,546.513 L475.076,546.513 L474.306,532.488 "/>
<path class="Harmony" d="M547.5,1003.3 L545.41,1003.3 L543.21,1006.55 C539.195,1003.63 537.16,1002.86 533.365,1002.86 C528.14,1002.86 523.685,1005.06 520,1009.46 C516.48,1013.64 514.83,1018.26 514.83,1023.93 C514.83,1035.81 522.585,1044.22 533.42,1044.22 C542.22,1044.22 547.83,1039.05 549.095,1029.81 L546.51,1029.37 C545.025,1037.57 540.845,1041.64 534.08,1041.64 C525.94,1041.64 522.09,1036.03 522.09,1024.15 C522.09,1017.88 522.915,1013.75 524.785,1010.45 C526.49,1007.37 529.845,1005.45 533.42,1005.45 C537.27,1005.45 540.68,1007.48 542.77,1011 C543.815,1012.82 544.585,1014.85 545.905,1019.2 L548.325,1019.2 L547.5,1003.3 "/>
<path class="Harmony" d="M557.756,1017.99 L560.176,1018.37 L561.166,1014.03 C561.991,1010.4 562.376,1009.85 563.971,1009.85 C564.246,1009.85 564.686,1009.85 565.181,1009.9 C571.946,1010.23 571.946,1010.23 574.476,1010.23 C575.191,1010.23 576.456,1010.23 577.996,1010.18 L574.256,1017.71 C570.186,1025.8 569.691,1026.79 568.316,1030.2 C566.611,1034.32 565.731,1037.79 565.731,1040.1 C565.731,1042.63 567.051,1044.17 569.196,1044.17 C571.836,1044.17 572.881,1042.41 572.826,1037.62 C572.551,1029.7 573.541,1025.85 579.426,1012.98 C580.416,1010.84 581.461,1008.64 582.451,1006.49 L582.451,1004.9 C579.151,1005.17 577.391,1005.28 573.981,1005.28 C569.196,1005.28 565.401,1005.12 559.461,1004.68 L557.756,1017.99 "/>
<path class="Harmony" d="M435.522,1003.3 L433.432,1003.3 L431.232,1006.55 C427.217,1003.63 425.182,1002.86 421.387,1002.86 C416.162,1002.86 411.707,1005.06 408.022,1009.46 C404.502,1013.64 402.852,1018.26 402.852,1023.93 C402.852,1035.81 410.607,1044.22 421.442,1044.22 C430.242,1044.22 435.852,1039.05 437.117,1029.81 L434.532,1029.37 C433.047,1037.57 428.867,1041.64 422.102,1041.64 C413.962,1041.64 410.112,1036.03 410.112,1024.15 C410.112,1017.88 410.937,1013.75 412.807,1010.45 C414.512,1007.37 417.867,1005.45 421.442,1005.45 C425.292,1005.45 428.702,1007.48 430.792,1011 C431.837,1012.82 432.607,1014.85 433.927,1019.2 L436.347,1019.2 L435.522,1003.3 "/>
<path class="Harmony" d="M445.778,1017.99 L448.198,1018.37 L449.188,1014.03 C450.013,1010.4 450.398,1009.85 451.993,1009.85 C452.268,1009.85 452.708,1009.85 453.203,1009.9 C459.968,1010.23 459.968,1010.23 462.498,1010.23 C463.213,1010.23 464.478,1010.23 466.018,1010.18 L462.278,1017.71 C458.208,1025.8 457.713,1026.79 456.338,1030.2 C454.633,1034.32 453.753,1037.79 453.753,1040.1 C453.753,1042.63 455.073,1044.17 457.218,1044.17 C459.858,1044.17 460.903,1042.41 460.848,1037.62 C460.573,1029.7 461.563,1025.85 467.448,1012.98 C468.438,1010.84 469.483,1008.64 470.473,1006.49 L470.473,1004.9 C467.173,1005.17 465.413,1005.28 462.003,1005.28 C457.218,1005.28 453.423,1005.12 447.483,1004.68 L445.778,1017.99 "/>
<path class="NoteDot" transform="matrix(0.992,0,0,0.992,1319.04,745.798)" d="M0,0 C0,2.8 2.2,5 5,5 C7.8,5 10,2.8 10,0 C10,-2.8 7.8,-5 5,-5 C2.2,-5 0,-2.8 0,0"/>
<path class="NoteDot" transform="matrix(0.992,0,0,0.992,2569.89,1192.2)" d="M0,0 C0,2.8 2.2,5 5,5 C7.8,5 10,2.8 10,0 C10,-2.8 7.8,-5 5,-5 C2.2,-5 0,-2.8 0,0"/>
<path class="NoteDot" transform="matrix(0.992,0,0,0.992,2207.32,671.398)" d="M0,0 C0,2.8 2.2,5 5,5 C7.8,5 10,2.8 10,0 C10,-2.8 7.8,-5 5,-5 C2.2,-5 0,-2.8 0,0"/>
<path class="NoteDot" transform="matrix(0.992,0,0,0.992,1565.39,1192.2)" d="M0,0 C0,2.8 2.2,5 5,5 C7.8,5 10,2.8 10,0 C10,-2.8 7.8,-5 5,-5 C2.2,-5 0,-2.8 0,0"/>
<path class="NoteDot" transform="matrix(0.992,0,0,0.992,2511.12,696.198)" d="M0,0 C0,2.8 2.2,5 5,5 C7.8,5 10,2.8 10,0 C10,-2.8 7.8,-5 5,-5 C2.2,-5 0,-2.8 0,0"/>
</svg>
