<?xml version="1.0" encoding="UTF-8" standalone="no"?>
<svg width="2977.2px" height="4208.4px" viewBox="0 0 2977.2 4208.4"
 xmlns="http://www.w3.org/2000/svg" xmlns:xlink="http://www.w3.org/1999/xlink" version="1.2" baseProfile="tiny">
<title>うさぎ</title>
<desc>Generated by MuseScore Studio 4.4.2</desc>
<path class="" fill="#ffffff" fill-rule="evenodd" d="M0,0 L2977.2,0 L2977.2,4208.4 L0,4208.4 L0,0 "/>
<polyline class="StaffLines" fill="none" stroke="#000000" stroke-width="2.73" stroke-linejoin="bevel" points="212.598,634.198 2764.6,634.198"/>
<polyline class="StaffLines" fill="none" stroke="#000000" stroke-width="2.73" stroke-linejoin="bevel" points="212.598,658.998 2764.6,658.998"/>
<polyline class="StaffLines" fill="none" stroke="#000000" stroke-width="2.73" stroke-linejoin="bevel" points="212.598,683.798 2764.6,683.798"/>
<polyline class="StaffLines" fill="none" stroke="#000000" stroke-width="2.73" stroke-linejoin="bevel" points="212.598,708.598 2764.6,708.598"/>
<polyline class="StaffLines" fill="none" stroke="#000000" stroke-width="2.73" stroke-linejoin="bevel" points="212.598,733.398 2764.6,733.398"/>
<polyline class="StaffLines" fill="none" stroke="#000000" stroke-width="2.73" stroke-linejoin="bevel" points="212.598,1105.4 2764.6,1105.4"/>
<polyline class="StaffLines" fill="none" stroke="#000000" stroke-width="2.73" stroke-linejoin="bevel" points="212.598,1130.2 2764.6,1130.2"/>
<polyline class="StaffLines" fill="none" stroke="#000000" stroke-width="2.73" stroke-linejoin="bevel" points="212.598,1155 2764.6,1155"/>
<polyline class="StaffLines" fill="none" stroke="#000000" stroke-width="2.73" stroke-linejoin="bevel" points="212.598,1179.8 2764.6,1179.8"/>
<polyline class="StaffLines" fill="none" stroke="#000000" stroke-width="2.73" stroke-linejoin="bevel" points="212.598,1204.6 2764.6,1204.6"/>
<path class="Text" d="M1345.93,228.992 C1360.67,233.172 1374.2,235.262 1392.13,236.252 L1393.34,228.332 C1375.3,228.112 1359.35,225.582 1348.57,221.512 L1345.93,228.992 M1334.49,264.742 C1343.07,261.222 1365.07,257.372 1376.4,257.372 C1382.12,257.372 1387.18,258.252 1389.93,259.792 C1394.44,262.212 1396.97,266.612 1396.97,272.112 C1396.97,277.172 1395.1,282.122 1391.36,287.072 C1388.72,290.482 1386.3,292.462 1381.9,294.882 C1372.66,300.162 1362.65,303.022 1350.99,303.792 C1352.64,306.432 1353.08,307.422 1354.51,311.822 C1370.9,308.742 1378.05,306.432 1386.41,301.372 C1398.62,293.892 1405.33,283.442 1405.33,271.672 C1405.33,264.082 1402.14,258.032 1395.98,254.182 C1391.47,251.322 1385.31,250.002 1377.06,250.002 C1368.37,250.002 1358.14,251.212 1343.51,253.962 C1334.93,255.612 1334.93,255.612 1332.4,255.832 L1334.49,264.742 M1442.07,250.002 C1443.72,249.782 1444.27,249.672 1446.36,249.672 C1460.88,249.452 1474.63,248.352 1485.52,246.812 C1486.18,247.912 1486.18,248.132 1487.39,250.442 C1492.12,259.682 1494.87,264.192 1500.59,272.002 C1495.97,269.582 1487.28,268.042 1477.82,268.042 C1468.91,268.042 1462.31,269.252 1456.48,272.112 C1448.78,275.852 1444.05,282.782 1444.05,290.042 C1444.05,294.442 1445.81,298.732 1449,302.142 C1454.06,307.422 1464.18,310.392 1477.6,310.392 C1488.49,310.392 1498.94,308.522 1509.94,304.452 L1508.73,295.982 C1500.48,300.272 1488.38,303.022 1477.49,303.022 C1468.03,303.022 1460.11,301.152 1456.04,297.962 C1453.4,295.762 1451.86,292.792 1451.86,289.382 C1451.86,285.422 1454.17,281.462 1457.8,279.152 C1462.75,276.072 1469.46,274.532 1478.7,274.532 C1486.18,274.532 1492.34,275.522 1497.95,277.392 C1501.03,278.492 1502.57,279.482 1505.54,281.902 L1512.91,277.722 C1505.21,267.492 1497.07,254.292 1493.11,245.712 C1494.21,245.492 1494.21,245.492 1496.85,244.942 C1503.78,243.622 1505.1,243.292 1511.7,241.532 C1515,240.652 1515.88,240.432 1518.19,239.992 L1517.09,232.182 C1511.15,234.712 1501.14,237.352 1490.47,239.112 C1489.48,237.022 1489.15,236.472 1486.51,229.432 C1483.76,222.392 1483.76,222.392 1483.32,219.532 L1474.63,220.742 C1475.62,222.722 1476.28,224.262 1477.49,227.122 C1479.47,232.072 1481.23,236.472 1482.88,240.212 C1472.54,241.642 1460.11,242.522 1450.1,242.522 C1446.36,242.522 1444.49,242.412 1441.63,241.972 L1442.07,250.002 M1551.41,244.502 C1553.28,244.282 1553.72,244.282 1558.23,244.282 C1570.55,244.062 1580.01,243.402 1587.93,242.302 C1590.57,247.912 1591.45,249.672 1594.2,254.842 C1585.18,256.492 1570.99,257.592 1559.55,257.592 C1555.15,257.592 1553.17,257.482 1550.75,257.152 L1550.97,264.522 C1552.95,264.302 1553.28,264.302 1558.67,264.082 C1577.59,263.532 1586.83,262.762 1597.28,260.892 C1600.8,267.052 1605.86,274.422 1609.05,277.832 C1601.79,275.412 1595.96,274.532 1586.83,274.532 C1576.16,274.532 1567.91,276.292 1561.97,279.702 C1556.36,283.002 1553.17,287.952 1553.17,293.452 C1553.17,299.282 1556.25,304.342 1561.53,307.312 C1567.03,310.502 1574.07,311.932 1584.19,311.932 C1593.98,311.932 1603.33,310.612 1612.35,307.862 C1614.66,307.092 1616.09,306.652 1616.42,306.542 C1617.41,306.322 1617.74,306.212 1618.95,305.992 L1617.41,297.302 C1610.81,301.482 1596.29,304.782 1584.85,304.782 C1569.67,304.782 1561.31,300.712 1561.31,293.452 C1561.31,285.862 1571.54,280.912 1587.38,280.912 C1592.44,280.912 1598.05,281.352 1601.9,282.012 C1607.29,282.892 1609.82,283.772 1614,286.192 L1620.49,281.572 C1612.68,272.552 1610.26,269.362 1604.32,259.682 C1607.73,259.022 1613.12,257.812 1621.59,255.722 C1625.11,254.732 1625.66,254.622 1627.53,254.292 L1626.65,246.812 C1623.24,248.682 1614.55,251.102 1601.46,253.742 C1600.25,251.542 1596.51,244.062 1595.19,241.202 C1599.15,240.652 1605.97,239.332 1616.2,237.022 L1615.21,230.202 C1610.92,231.852 1603,233.612 1592.88,235.262 C1590.35,229.872 1587.6,222.612 1587.05,219.752 L1578.8,221.072 C1579.79,222.722 1579.9,222.942 1585.4,236.142 C1575.28,237.352 1568.57,237.792 1559.33,237.792 C1555.59,237.792 1553.72,237.682 1551.08,237.462 L1551.41,244.502 M1615.54,221.512 C1618.84,224.922 1624.12,233.172 1626.76,239.002 L1632.37,235.702 C1629.07,229.212 1625.99,224.592 1621.04,218.652 L1615.54,221.512 M1628.08,215.682 C1632.37,220.632 1636.88,227.672 1639.3,232.952 L1644.8,229.762 C1641.17,222.832 1638.42,218.762 1633.47,212.602 L1628.08,215.682 "/>
<path class="MeasureNumber" d="M216.922,1040.48 C215.682,1041.24 215.322,1041.72 215.322,1042.52 C215.322,1043.28 215.962,1043.84 216.762,1043.84 C217.802,1043.84 218.402,1043.08 218.522,1041.6 C219.762,1040.6 221.082,1040.16 222.682,1040.16 C225.642,1040.16 227.282,1042 227.282,1045.32 C227.282,1050.52 223.922,1054.76 219.802,1054.76 C217.442,1054.76 215.522,1053.64 215.522,1052.32 C215.522,1052.08 215.562,1052 215.762,1051.88 C217.042,1051.28 218.082,1050.84 218.082,1049.16 C218.082,1047.88 217.082,1046.92 215.682,1046.92 C213.922,1046.92 212.602,1048.4 212.602,1050.32 C212.602,1053.84 215.642,1056.4 219.922,1056.4 C226.402,1056.4 231.642,1051.24 231.642,1044.84 C231.642,1040.8 228.562,1037.96 224.202,1037.96 C222.482,1037.96 221.082,1038.32 219.162,1039.28 L221.402,1031.72 C223.522,1032.16 225.202,1032.36 226.642,1032.36 C229.282,1032.36 231.642,1031.52 232.962,1030.12 C233.642,1029.32 234.042,1028.64 234.042,1028.12 C234.042,1027.88 233.922,1027.64 233.762,1027.64 C233.642,1027.64 233.562,1027.68 233.322,1027.8 C232.002,1028.44 230.322,1028.8 228.762,1028.8 C226.362,1028.8 223.522,1028.4 220.562,1027.64 L216.922,1040.48 "/>
<polyline class="BarLine" fill="none" stroke="#000000" stroke-width="4.46" stroke-linejoin="bevel" points="1498.97,632.834 1498.97,734.762"/>
<polyline class="BarLine" fill="none" stroke="#000000" stroke-width="4.46" stroke-linejoin="bevel" points="2740.42,1104.03 2740.42,1205.96"/>
<polyline class="BarLine" fill="none" stroke="#000000" stroke-width="13.64" stroke-linejoin="bevel" points="2757.78,1104.03 2757.78,1205.96"/>
<polyline class="BarLine" fill="none" stroke="#000000" stroke-width="4.46" stroke-linejoin="bevel" points="847.444,1104.03 847.444,1205.96"/>
<polyline class="BarLine" fill="none" stroke="#000000" stroke-width="4.46" stroke-linejoin="bevel" points="1412.06,1104.03 1412.06,1205.96"/>
<polyline class="BarLine" fill="none" stroke="#000000" stroke-width="4.46" stroke-linejoin="bevel" points="2338.24,1104.03 2338.24,1205.96"/>
<polyline class="BarLine" fill="none" stroke="#000000" stroke-width="4.46" stroke-linejoin="bevel" points="2762.37,632.834 2762.37,734.762"/>
<polyline class="BarLine" fill="none" stroke="#000000" stroke-width="4.46" stroke-linejoin="bevel" points="2193.97,632.834 2193.97,734.762"/>
<polyline class="BarLine" fill="none" stroke="#000000" stroke-width="4.46" stroke-linejoin="bevel" points="1875.15,1104.03 1875.15,1205.96"/>
<polyline class="BarLine" fill="none" stroke="#000000" stroke-width="4.46" stroke-linejoin="bevel" points="930.574,632.834 930.574,734.762"/>
<polyline class="Stem" fill="none" stroke="#000000" stroke-width="2.73" stroke-linejoin="bevel" points="1197.04,1188.23 1197.04,1124.07"/>
<polyline class="Stem" fill="none" stroke="#000000" stroke-width="2.73" stroke-linejoin="bevel" points="1599.21,1188.23 1599.21,1111.46"/>
<polyline class="Stem" fill="none" stroke="#000000" stroke-width="2.73" stroke-linejoin="bevel" points="1147.82,692.23 1147.82,621.744"/>
<polyline class="Stem" fill="none" stroke="#000000" stroke-width="2.73" stroke-linejoin="bevel" points="1115.82,1163.43 1115.82,1092.96"/>
<polyline class="Stem" fill="none" stroke="#000000" stroke-width="2.73" stroke-linejoin="bevel" points="1270.24,687.965 1270.24,758.198"/>
<polyline class="Stem" fill="none" stroke="#000000" stroke-width="2.73" stroke-linejoin="bevel" points="1034.6,1163.43 1034.6,1090.51"/>
<polyline class="Stem" fill="none" stroke="#000000" stroke-width="2.73" stroke-linejoin="bevel" points="1318.86,1200.63 1318.86,1130.13"/>
<polyline class="Stem" fill="none" stroke="#000000" stroke-width="2.73" stroke-linejoin="bevel" points="912.776,1151.03 912.776,1086.84"/>
<polyline class="Stem" fill="none" stroke="#000000" stroke-width="2.73" stroke-linejoin="bevel" points="724.751,1146.76 724.751,1210.8"/>
<polyline class="Stem" fill="none" stroke="#000000" stroke-width="2.73" stroke-linejoin="bevel" points="1564.31,717.03 1564.31,640.398"/>
<polyline class="Stem" fill="none" stroke="#000000" stroke-width="2.73" stroke-linejoin="bevel" points="2403.57,1200.63 2403.57,1117.8"/>
<polyline class="Stem" fill="none" stroke="#000000" stroke-width="2.73" stroke-linejoin="bevel" points="1940.48,1188.23 1940.48,1124.07"/>
<polyline class="Stem" fill="none" stroke="#000000" stroke-width="2.73" stroke-linejoin="bevel" points="995.906,679.83 995.906,615.653"/>
<polyline class="Stem" fill="none" stroke="#000000" stroke-width="2.73" stroke-linejoin="bevel" points="1716.22,717.03 1716.22,640.398"/>
<polyline class="Stem" fill="none" stroke="#000000" stroke-width="2.73" stroke-linejoin="bevel" points="602.925,1146.76 602.925,1210.8"/>
<polyline class="Stem" fill="none" stroke="#000000" stroke-width="2.73" stroke-linejoin="bevel" points="1817.5,717.03 1817.5,640.398"/>
<polyline class="Stem" fill="none" stroke="#000000" stroke-width="2.73" stroke-linejoin="bevel" points="510.597,1151.03 510.597,1086.87"/>
<polyline class="Stem" fill="none" stroke="#000000" stroke-width="2.73" stroke-linejoin="bevel" points="1918.77,717.03 1918.77,640.289"/>
<polyline class="Stem" fill="none" stroke="#000000" stroke-width="2.73" stroke-linejoin="bevel" points="427.506,717.03 427.506,634.198"/>
<polyline class="Stem" fill="none" stroke="#000000" stroke-width="2.73" stroke-linejoin="bevel" points="1477.39,1163.43 1477.39,1099.33"/>
<polyline class="Stem" fill="none" stroke="#000000" stroke-width="2.73" stroke-linejoin="bevel" points="388.771,1163.43 388.771,1092.93"/>
<polyline class="Stem" fill="none" stroke="#000000" stroke-width="2.73" stroke-linejoin="bevel" points="2070.68,692.23 2070.68,628.108"/>
<polyline class="Stem" fill="none" stroke="#000000" stroke-width="2.73" stroke-linejoin="bevel" points="655.376,717.03 655.376,640.289"/>
<polyline class="Stem" fill="none" stroke="#000000" stroke-width="2.73" stroke-linejoin="bevel" points="807.289,692.23 807.289,628.108"/>
<polyline class="Stem" fill="none" stroke="#000000" stroke-width="2.73" stroke-linejoin="bevel" points="1721.04,1200.63 1721.04,1117.8"/>
<polyline class="Stem" fill="none" stroke="#000000" stroke-width="2.73" stroke-linejoin="bevel" points="2184.13,1213.03 2184.13,1130.2"/>
<polyline class="Stem" fill="none" stroke="#000000" stroke-width="2.73" stroke-linejoin="bevel" points="2259.3,679.83 2259.3,615.653"/>
<polyline class="Stem" fill="none" stroke="#000000" stroke-width="2.73" stroke-linejoin="bevel" points="2533.63,687.965 2533.63,758.198"/>
<polyline class="Stem" fill="none" stroke="#000000" stroke-width="2.73" stroke-linejoin="bevel" points="2062.31,1200.63 2062.31,1130.13"/>
<polyline class="Stem" fill="none" stroke="#000000" stroke-width="2.73" stroke-linejoin="bevel" points="2411.21,692.23 2411.21,621.744"/>
<path class="Note" transform="matrix(0.992,0,0,0.992,2380.35,696.198)" d="M0,4.2 C0,8.5 3.1,13.3 11.2,13.3 C21.6,13.3 32.5,4.8 32.5,-4 C32.5,-9.9 27.5,-13.2 21.3,-13.2 C11.6,-13.2 0,-5 0,4.2"/>
<path class="Note" transform="matrix(0.992,0,0,0.992,1003.74,1167.4)" d="M0,4.2 C0,8.5 3.1,13.3 11.2,13.3 C21.6,13.3 32.5,4.8 32.5,-4 C32.5,-9.9 27.5,-13.2 21.3,-13.2 C11.6,-13.2 0,-5 0,4.2"/>
<path class="Note" transform="matrix(0.992,0,0,0.992,2228.44,683.798)" d="M0,4.2 C0,8.5 3.1,13.3 11.2,13.3 C21.6,13.3 32.5,4.8 32.5,-4 C32.5,-9.9 27.5,-13.2 21.3,-13.2 C11.6,-13.2 0,-5 0,4.2"/>
<path class="Note" transform="matrix(0.992,0,0,0.992,2532.27,683.798)" d="M0,4.2 C0,8.5 3.1,13.3 11.2,13.3 C21.6,13.3 32.5,4.8 32.5,-4 C32.5,-9.9 27.5,-13.2 21.3,-13.2 C11.6,-13.2 0,-5 0,4.2"/>
<path class="Note" transform="matrix(0.992,0,0,0.992,1446.53,1167.4)" d="M0,4.2 C0,8.5 3.1,13.3 11.2,13.3 C21.6,13.3 32.5,4.8 32.5,-4 C32.5,-9.9 27.5,-13.2 21.3,-13.2 C11.6,-13.2 0,-5 0,4.2"/>
<path class="Note" transform="matrix(0.992,0,0,0.992,2153.27,1217)" d="M0,4.2 C0,8.5 3.1,13.3 11.2,13.3 C21.6,13.3 32.5,4.8 32.5,-4 C32.5,-9.9 27.5,-13.2 21.3,-13.2 C11.6,-13.2 0,-5 0,4.2"/>
<path class="Note" transform="matrix(0.992,0,0,0.992,624.515,720.998)" d="M0,4.2 C0,8.5 3.1,13.3 11.2,13.3 C21.6,13.3 32.5,4.8 32.5,-4 C32.5,-9.9 27.5,-13.2 21.3,-13.2 C11.6,-13.2 0,-5 0,4.2"/>
<path class="Note" transform="matrix(0.992,0,0,0.992,2039.82,696.198)" d="M0,4.2 C0,8.5 3.1,13.3 11.2,13.3 C21.6,13.3 32.5,4.8 32.5,-4 C32.5,-9.9 27.5,-13.2 21.3,-13.2 C11.6,-13.2 0,-5 0,4.2"/>
<path class="Note" transform="matrix(0.992,0,0,0.992,1084.96,1167.4)" d="M0,4.2 C0,8.5 3.1,13.3 11.2,13.3 C21.6,13.3 32.5,4.8 32.5,-4 C32.5,-9.9 27.5,-13.2 21.3,-13.2 C11.6,-13.2 0,-5 0,4.2"/>
<path class="Note" transform="matrix(0.992,0,0,0.992,396.645,720.998)" d="M0,4.2 C0,8.5 3.1,13.3 11.2,13.3 C21.6,13.3 32.5,4.8 32.5,-4 C32.5,-9.9 27.5,-13.2 21.3,-13.2 C11.6,-13.2 0,-5 0,4.2"/>
<path class="Note" transform="matrix(0.992,0,0,0.992,1690.18,1204.6)" d="M0,4.2 C0,8.5 3.1,13.3 11.2,13.3 C21.6,13.3 32.5,4.8 32.5,-4 C32.5,-9.9 27.5,-13.2 21.3,-13.2 C11.6,-13.2 0,-5 0,4.2"/>
<path class="Note" transform="matrix(0.992,0,0,0.992,357.911,1167.4)" d="M0,4.2 C0,8.5 3.1,13.3 11.2,13.3 C21.6,13.3 32.5,4.8 32.5,-4 C32.5,-9.9 27.5,-13.2 21.3,-13.2 C11.6,-13.2 0,-5 0,4.2"/>
<path class="Note" transform="matrix(0.992,0,0,0.992,776.429,696.198)" d="M0,4.2 C0,8.5 3.1,13.3 11.2,13.3 C21.6,13.3 32.5,4.8 32.5,-4 C32.5,-9.9 27.5,-13.2 21.3,-13.2 C11.6,-13.2 0,-5 0,4.2"/>
<path class="Note" transform="matrix(0.992,0,0,0.992,1887.91,720.998)" d="M0,4.2 C0,8.5 3.1,13.3 11.2,13.3 C21.6,13.3 32.5,4.8 32.5,-4 C32.5,-9.9 27.5,-13.2 21.3,-13.2 C11.6,-13.2 0,-5 0,4.2"/>
<path class="Note" transform="matrix(0.992,0,0,0.992,1786.64,720.998)" d="M0,4.2 C0,8.5 3.1,13.3 11.2,13.3 C21.6,13.3 32.5,4.8 32.5,-4 C32.5,-9.9 27.5,-13.2 21.3,-13.2 C11.6,-13.2 0,-5 0,4.2"/>
<path class="Note" transform="matrix(0.992,0,0,0.992,479.736,1155)" d="M0,4.2 C0,8.5 3.1,13.3 11.2,13.3 C21.6,13.3 32.5,4.8 32.5,-4 C32.5,-9.9 27.5,-13.2 21.3,-13.2 C11.6,-13.2 0,-5 0,4.2"/>
<path class="Note" transform="matrix(0.992,0,0,0.992,1685.36,720.998)" d="M0,4.2 C0,8.5 3.1,13.3 11.2,13.3 C21.6,13.3 32.5,4.8 32.5,-4 C32.5,-9.9 27.5,-13.2 21.3,-13.2 C11.6,-13.2 0,-5 0,4.2"/>
<path class="Note" transform="matrix(0.992,0,0,0.992,601.561,1142.6)" d="M0,4.2 C0,8.5 3.1,13.3 11.2,13.3 C21.6,13.3 32.5,4.8 32.5,-4 C32.5,-9.9 27.5,-13.2 21.3,-13.2 C11.6,-13.2 0,-5 0,4.2"/>
<path class="Note" transform="matrix(0.992,0,0,0.992,1533.45,720.998)" d="M0,4.2 C0,8.5 3.1,13.3 11.2,13.3 C21.6,13.3 32.5,4.8 32.5,-4 C32.5,-9.9 27.5,-13.2 21.3,-13.2 C11.6,-13.2 0,-5 0,4.2"/>
<path class="Note" transform="matrix(0.992,0,0,0.992,1288,1204.6)" d="M0,4.2 C0,8.5 3.1,13.3 11.2,13.3 C21.6,13.3 32.5,4.8 32.5,-4 C32.5,-9.9 27.5,-13.2 21.3,-13.2 C11.6,-13.2 0,-5 0,4.2"/>
<path class="Note" transform="matrix(0.992,0,0,0.992,965.046,683.798)" d="M0,4.2 C0,8.5 3.1,13.3 11.2,13.3 C21.6,13.3 32.5,4.8 32.5,-4 C32.5,-9.9 27.5,-13.2 21.3,-13.2 C11.6,-13.2 0,-5 0,4.2"/>
<path class="Note" transform="matrix(0.992,0,0,0.992,723.387,1142.6)" d="M0,4.2 C0,8.5 3.1,13.3 11.2,13.3 C21.6,13.3 32.5,4.8 32.5,-4 C32.5,-9.9 27.5,-13.2 21.3,-13.2 C11.6,-13.2 0,-5 0,4.2"/>
<path class="Note" transform="matrix(0.992,0,0,0.992,2372.71,1204.6)" d="M0,4.2 C0,8.5 3.1,13.3 11.2,13.3 C21.6,13.3 32.5,4.8 32.5,-4 C32.5,-9.9 27.5,-13.2 21.3,-13.2 C11.6,-13.2 0,-5 0,4.2"/>
<path class="Note" transform="matrix(0.992,0,0,0.992,1116.96,696.198)" d="M0,4.2 C0,8.5 3.1,13.3 11.2,13.3 C21.6,13.3 32.5,4.8 32.5,-4 C32.5,-9.9 27.5,-13.2 21.3,-13.2 C11.6,-13.2 0,-5 0,4.2"/>
<path class="Note" transform="matrix(0.992,0,0,0.992,2031.45,1204.6)" d="M0,4.2 C0,8.5 3.1,13.3 11.2,13.3 C21.6,13.3 32.5,4.8 32.5,-4 C32.5,-9.9 27.5,-13.2 21.3,-13.2 C11.6,-13.2 0,-5 0,4.2"/>
<path class="Note" transform="matrix(0.992,0,0,0.992,881.916,1155)" d="M0,4.2 C0,8.5 3.1,13.3 11.2,13.3 C21.6,13.3 32.5,4.8 32.5,-4 C32.5,-9.9 27.5,-13.2 21.3,-13.2 C11.6,-13.2 0,-5 0,4.2"/>
<path class="Note" transform="matrix(0.992,0,0,0.992,1909.62,1192.2)" d="M0,4.2 C0,8.5 3.1,13.3 11.2,13.3 C21.6,13.3 32.5,4.8 32.5,-4 C32.5,-9.9 27.5,-13.2 21.3,-13.2 C11.6,-13.2 0,-5 0,4.2"/>
<path class="Note" transform="matrix(0.992,0,0,0.992,1166.17,1192.2)" d="M0,4.2 C0,8.5 3.1,13.3 11.2,13.3 C21.6,13.3 32.5,4.8 32.5,-4 C32.5,-9.9 27.5,-13.2 21.3,-13.2 C11.6,-13.2 0,-5 0,4.2"/>
<path class="Note" transform="matrix(0.992,0,0,0.992,1268.87,683.798)" d="M0,4.2 C0,8.5 3.1,13.3 11.2,13.3 C21.6,13.3 32.5,4.8 32.5,-4 C32.5,-9.9 27.5,-13.2 21.3,-13.2 C11.6,-13.2 0,-5 0,4.2"/>
<path class="Note" transform="matrix(0.992,0,0,0.992,1568.35,1192.2)" d="M0,4.2 C0,8.5 3.1,13.3 11.2,13.3 C21.6,13.3 32.5,4.8 32.5,-4 C32.5,-9.9 27.5,-13.2 21.3,-13.2 C11.6,-13.2 0,-5 0,4.2"/>
<path class="Clef" transform="matrix(0.992,0,0,0.992,232.438,708.598)" d="M12.3,51.3 C12.3,57.9 17.3,66.6 30.8,66.6 C35.5,66.6 39.6,65.4 43.2,63.2 C48.6,59.4 50,52.8 50,46.5 C50,42.6 49.4,38.1 48.4,32.4 C48.1,30.4 47.5,27.4 46.9,23.5 C56.7,20.3 64,10.1 64,-0.2 C64,-15.3 53.3,-25.5 38.7,-25.5 C37.7,-31.5 36.7,-37.4 35.9,-43 C46.4,-54.1 53.7,-66.6 53.7,-82.5 C53.7,-91.6 50.9,-99 49.3,-102.6 C46.9,-107.7 44,-111.2 42.2,-111.2 C41.5,-111.2 38.4,-110 35.1,-106.1 C28.7,-98.5 26.9,-85.7 26.9,-77.3 C26.9,-71.9 27.4,-67 29.1,-55.8 C29,-55.7 23.8,-50.4 21.7,-48.7 C12.6,-40.3 0,-28.1 0,-8.1 C0,10.6 16.3,25.3 34.9,25.3 C37.8,25.3 40.5,25 42.8,24.6 C44.7,34.2 45.9,41.2 45.9,46.5 C45.9,56.9 40.5,62.4 30.4,62.4 C28,62.4 25.9,61.9 25.7,61.9 C25.6,61.8 25.4,61.7 25.4,61.6 C25.4,61.4 25.6,61.3 25.9,61.3 C30.6,60.5 35.3,56.5 35.3,50.1 C35.3,44.7 31.2,39 23.7,39 C16.7,39 12.3,44.7 12.3,51.3 M33.2,-82.2 C34.1,-86.2 38.7,-96.7 43.9,-96.7 C45.4,-96.7 47.8,-91.9 47.8,-84.9 C47.8,-74.5 40.1,-66.7 33.2,-59.9 C32.6,-63.9 32.1,-67.8 32.1,-72 C32.1,-75.7 32.4,-79.1 33.2,-82.2 M42,20.6 C40,21 38.1,21.2 36.2,21.2 C21.9,21.2 9.7,11.2 9.7,-3.9 C9.7,-16.1 18.3,-27 27.1,-34.6 C28.8,-36.1 30.4,-37.5 31.9,-39 C32.8,-33.6 33.5,-28.9 34.2,-24.8 C25.1,-22.1 18.9,-12.5 18.9,-3.1 C18.9,3.9 24.4,13.5 32.4,13.5 C33.2,13.5 34.1,13.1 34.1,12.2 C34.1,11.3 33.1,10.8 31.9,10 C28,7.6 25.8,5 25.8,0.1 C25.8,-6 30.4,-10.9 36.2,-12.3 L42,20.6 M56.2,2.1 C56.2,9.2 53.3,16.5 46.2,19.4 C44.1,7.4 41.4,-8.5 40.7,-12.9 C49.7,-12.9 56.2,-6.8 56.2,2.1"/>
<path class="Clef" transform="matrix(0.992,0,0,0.992,232.438,1179.8)" d="M12.3,51.3 C12.3,57.9 17.3,66.6 30.8,66.6 C35.5,66.6 39.6,65.4 43.2,63.2 C48.6,59.4 50,52.8 50,46.5 C50,42.6 49.4,38.1 48.4,32.4 C48.1,30.4 47.5,27.4 46.9,23.5 C56.7,20.3 64,10.1 64,-0.2 C64,-15.3 53.3,-25.5 38.7,-25.5 C37.7,-31.5 36.7,-37.4 35.9,-43 C46.4,-54.1 53.7,-66.6 53.7,-82.5 C53.7,-91.6 50.9,-99 49.3,-102.6 C46.9,-107.7 44,-111.2 42.2,-111.2 C41.5,-111.2 38.4,-110 35.1,-106.1 C28.7,-98.5 26.9,-85.7 26.9,-77.3 C26.9,-71.9 27.4,-67 29.1,-55.8 C29,-55.7 23.8,-50.4 21.7,-48.7 C12.6,-40.3 0,-28.1 0,-8.1 C0,10.6 16.3,25.3 34.9,25.3 C37.8,25.3 40.5,25 42.8,24.6 C44.7,34.2 45.9,41.2 45.9,46.5 C45.9,56.9 40.5,62.4 30.4,62.4 C28,62.4 25.9,61.9 25.7,61.9 C25.6,61.8 25.4,61.7 25.4,61.6 C25.4,61.4 25.6,61.3 25.9,61.3 C30.6,60.5 35.3,56.5 35.3,50.1 C35.3,44.7 31.2,39 23.7,39 C16.7,39 12.3,44.7 12.3,51.3 M33.2,-82.2 C34.1,-86.2 38.7,-96.7 43.9,-96.7 C45.4,-96.7 47.8,-91.9 47.8,-84.9 C47.8,-74.5 40.1,-66.7 33.2,-59.9 C32.6,-63.9 32.1,-67.8 32.1,-72 C32.1,-75.7 32.4,-79.1 33.2,-82.2 M42,20.6 C40,21 38.1,21.2 36.2,21.2 C21.9,21.2 9.7,11.2 9.7,-3.9 C9.7,-16.1 18.3,-27 27.1,-34.6 C28.8,-36.1 30.4,-37.5 31.9,-39 C32.8,-33.6 33.5,-28.9 34.2,-24.8 C25.1,-22.1 18.9,-12.5 18.9,-3.1 C18.9,3.9 24.4,13.5 32.4,13.5 C33.2,13.5 34.1,13.1 34.1,12.2 C34.1,11.3 33.1,10.8 31.9,10 C28,7.6 25.8,5 25.8,0.1 C25.8,-6 30.4,-10.9 36.2,-12.3 L42,20.6 M56.2,2.1 C56.2,9.2 53.3,16.5 46.2,19.4 C44.1,7.4 41.4,-8.5 40.7,-12.9 C49.7,-12.9 56.2,-6.8 56.2,2.1"/>
<path class="TimeSig" transform="matrix(0.992,0,0,0.992,322.602,659.494)" d="M34.2,3.9 C33.4,6.1 31.4,13.3 26.5,13.3 C20,13.3 18.6,9.3 13.2,9.3 C12.4,9.3 11.6,9.4 10.6,9.6 C10.6,9.6 13.1,5.8 23.7,2.5 C34.3,-0.8 37,-6 37,-12 C37,-16.2 35.1,-24.5 20,-24.5 C4.9,-24.5 2.1,-15.4 2.1,-10.8 C2.1,-6.7 5.5,-3.4 9.6,-3.4 C13.7,-3.4 17,-6.7 17,-10.8 C17,-13.6 15,-16.7 12.4,-17.7 C12.1,-17.8 11.7,-18.3 11.7,-18.8 C11.7,-19.4 12.2,-20.1 14,-20.6 C14.5,-20.8 15.9,-21.1 17.4,-21.1 C23.1,-21.1 24.2,-17.6 24.2,-12.5 C24.2,-0.8 10.3,1.7 4.5,10.4 C4.5,10.4 1.5,14.6 1.5,19.3 C1.5,24 3.9,24.3 5.1,24.3 C6.7,24.3 8.4,23 8.4,21.2 C8.4,20.8 8.3,20.4 8.1,19.9 C7.5,18.5 7.3,17.4 7.3,16.6 C7.3,16.3 7.3,16 7.4,15.7 C7.5,15.1 8.3,14.1 10.7,14.1 C13.6,14.1 14.7,17.5 16.5,20.1 C18.3,22.7 21.1,24.3 24.3,24.3 C27.5,24.3 31.8,22 33.6,18.3 C35.4,14.6 37.7,7.1 37.7,4.4 C37.7,3.1 36.9,2.5 36,2.5 C35.3,2.5 34.6,2.9 34.2,3.9"/>
<path class="TimeSig" transform="matrix(0.992,0,0,0.992,319.331,708.598)" d="M20.8,12.7 L20.8,20.1 L12.5,20.1 C11.8,20.1 11.1,20.7 11.1,21.5 L11.1,23.4 C11.1,24.2 11.8,24.8 12.5,24.8 L42.8,24.8 C43.6,24.8 44.2,24.2 44.2,23.4 L44.2,21.5 C44.2,20.7 43.6,20.1 42.8,20.1 L33.9,20.1 L33.9,12.7 L42.8,12.7 C43.6,12.7 44.2,12 44.2,11.2 L44.2,9.3 C44.2,8.6 43.6,7.9 42.8,7.9 L33.9,7.9 L33.9,-8 C33.9,-8.6 33.6,-9.1 33.1,-9.3 L31.9,-9.9 C31.7,-10 31.4,-10.1 31.2,-10.1 C30.9,-10 30.5,-9.9 30.3,-9.7 L21.2,-1.4 C20.9,-1.1 20.8,-0.7 20.8,-0.3 L20.8,7.9 L9.3,7.9 C9.3,7.9 20.4,-4.1 32.2,-19.9 C32.6,-20.4 32.7,-20.9 32.7,-21.3 C32.7,-21.8 32.5,-22.2 32.4,-22.3 L30.2,-24.5 C30,-24.7 29.6,-24.9 29.2,-24.9 C28.6,-24.9 15.1,-24.9 14.4,-24.9 C13.6,-24.9 13.1,-24.3 13,-23.7 C13,-23.7 12.5,-16.3 9.9,-8.2 C7.3,-0.1 4.3,4.9 1.7,8.6 C1.7,8.6 1.4,9.1 1.4,9.7 C1.4,9.9 1.4,10.1 1.5,10.3 C1.9,11 2.5,12.1 2.5,12.1 C2.5,12.1 2.7,12.7 3.6,12.7 L20.8,12.7 "/>
<path class="Rest" transform="matrix(0.992,0,0,0.992,2555.45,1155)" d="M23,16.6 C22.9,16.5 22.7,16.3 22.4,15.9 L10.9,1.7 C10.8,1.6 10.7,1.3 10.7,1.1 C10.7,0.8 10.8,0.4 10.9,0.2 L21.1,-15.2 C21.2,-15.4 21.3,-15.7 21.3,-15.9 L21.3,-16.8 C21.3,-17.1 21.2,-17.4 21,-17.6 L4.8,-39.5 C4.8,-39.5 4.4,-40.1 3.8,-40.1 C3.5,-40.1 3.3,-40.1 3,-39.8 C2.6,-39.5 2.5,-39.1 2.5,-38.8 C2.5,-38.2 2.8,-37.7 2.8,-37.7 L10.4,-27.3 C10.6,-27 10.7,-26.6 10.7,-26.1 C10.7,-25.7 10.6,-25.2 10.4,-24.9 L0.3,-9.5 C0.2,-9.3 0.1,-8.9 0.1,-8.7 L0.1,-7.8 C0.1,-7.5 0.2,-7.2 0.4,-7 L11.6,6.9 C11.2,6.8 10.3,6.6 9.1,6.6 C4,6.6 0,10.8 0,15.9 C0,17.3 0.3,18.7 1.1,19.8 C3.2,23 10.7,32.5 10.7,32.5 C10.7,32.5 11.2,33.1 11.9,33.1 C12.1,33.1 12.3,33.1 12.5,32.9 C13,32.5 13.2,32.1 13.2,31.7 C13.2,31.3 13,31 12.9,30.8 C12.6,30.3 9.4,24.5 9.4,24.5 C9.4,24.5 8.7,23.1 8.7,21.3 C8.7,18.1 11.1,15.5 14.3,15.5 C15.6,15.5 16.7,15.9 17.5,16.4 L21.4,18.9 C21.4,18.9 21.8,19.1 22.2,19.1 C22.6,19.1 22.9,19 23.2,18.6 C23.4,18.3 23.5,18 23.5,17.7 C23.5,17.4 23.4,17.2 23.2,16.9 L23,16.6 "/>
<path class="Beam" fill-rule="evenodd" d="M1917.41,634.179 L2072.05,621.779 L2072.05,634.218 L1917.41,646.618 L1917.41,634.179 "/>
<path class="Beam" fill-rule="evenodd" d="M1195.67,1117.79 L1320.22,1123.99 L1320.22,1136.41 L1195.67,1130.21 L1195.67,1117.79 "/>
<path class="Beam" fill-rule="evenodd" d="M911.412,1080.6 L1117.18,1086.8 L1117.18,1099.2 L911.412,1093 L911.412,1080.6 "/>
<path class="Beam" fill-rule="evenodd" d="M1033.24,1102.87 L1117.18,1105.4 L1117.18,1117.8 L1033.24,1115.27 L1033.24,1102.87 "/>
<path class="Beam" fill-rule="evenodd" d="M601.561,1204.6 L726.115,1204.6 L726.115,1217 L601.561,1217 L601.561,1204.6 "/>
<path class="Beam" fill-rule="evenodd" d="M387.407,1086.79 L511.961,1080.59 L511.961,1093.01 L387.407,1099.21 L387.407,1086.79 "/>
<path class="Beam" fill-rule="evenodd" d="M1476.03,1092.97 L1600.58,1105.37 L1600.58,1117.83 L1476.03,1105.43 L1476.03,1092.97 "/>
<path class="Beam" fill-rule="evenodd" d="M654.012,634.179 L808.653,621.779 L808.653,634.218 L654.012,646.618 L654.012,634.179 "/>
<path class="Beam" fill-rule="evenodd" d="M994.542,609.393 L1149.18,615.593 L1149.18,628.003 L994.542,621.803 L994.542,609.393 "/>
<path class="Beam" fill-rule="evenodd" d="M2257.94,609.393 L2412.58,615.593 L2412.58,628.003 L2257.94,621.803 L2257.94,609.393 "/>
<path class="Beam" fill-rule="evenodd" d="M1939.12,1117.79 L2063.67,1123.99 L2063.67,1136.41 L1939.12,1130.21 L1939.12,1117.79 "/>
<path class="Beam" fill-rule="evenodd" d="M1562.94,634.198 L1818.86,634.198 L1818.86,646.598 L1562.94,646.598 L1562.94,634.198 "/>
<path class="Beam" fill-rule="evenodd" d="M1714.86,652.798 L1818.86,652.798 L1818.86,665.198 L1714.86,665.198 L1714.86,652.798 "/>
<path class="Harmony" d="M881.917,1043.4 L900.397,1043.4 C905.292,1043.4 909.032,1042.63 911.947,1040.98 C917.502,1037.84 920.582,1031.57 920.582,1023.32 C920.582,1015.73 917.832,1009.79 912.772,1006.49 C909.747,1004.57 905.677,1003.69 899.407,1003.69 L881.917,1003.69 L881.917,1006.27 L882.962,1006.27 C886.042,1006.33 887.087,1006.49 887.527,1007.04 C887.857,1007.54 887.857,1007.65 887.857,1010.45 L887.857,1036.63 C887.857,1039.44 887.857,1039.55 887.527,1040.04 C887.087,1040.59 886.042,1040.76 882.962,1040.81 L881.917,1040.81 L881.917,1043.4 M897.152,1040.81 C894.347,1040.81 894.017,1040.48 894.017,1037.79 L894.017,1009.35 C894.017,1006.66 894.402,1006.27 897.152,1006.27 L900.012,1006.27 C909.417,1006.27 913.322,1011.39 913.322,1023.54 C913.322,1035.86 909.802,1040.81 900.892,1040.81 L897.152,1040.81 "/>
<path class="Harmony" d="M936.611,1017.77 L926.821,1018.37 L926.821,1020.74 L929.076,1020.74 C931.166,1020.79 931.441,1021.12 931.441,1023.49 L931.441,1039.22 C931.386,1040.04 931.331,1040.37 931.111,1040.65 C930.726,1041.14 929.681,1041.36 927.316,1041.42 L927.096,1041.42 L927.096,1043.4 L940.956,1043.4 L940.956,1041.42 L940.736,1041.42 C937.106,1041.31 936.611,1041.03 936.611,1039 L936.611,1028.82 C936.611,1023.93 939.306,1020.3 942.881,1020.3 C946.016,1020.3 947.611,1022.55 947.611,1027.01 L947.611,1039.27 C947.556,1039.99 947.501,1040.37 947.226,1040.65 C946.896,1041.14 945.796,1041.36 943.431,1041.42 L943.211,1041.42 L943.211,1043.4 L957.126,1043.4 L957.126,1041.42 L956.906,1041.42 C953.276,1041.31 952.781,1041.03 952.781,1039.05 L952.781,1029.32 C952.781,1023.82 955.256,1020.3 959.106,1020.3 C962.241,1020.3 963.781,1022.66 963.781,1027.61 L963.781,1039.22 C963.726,1039.99 963.671,1040.37 963.396,1040.65 C963.066,1041.14 961.966,1041.36 959.601,1041.42 L959.381,1041.42 L959.381,1043.4 L973.296,1043.4 L973.296,1041.42 L973.076,1041.42 C969.446,1041.31 968.951,1041.03 968.951,1039 L968.951,1026.51 C968.951,1023.1 968.621,1021.95 967.191,1020.08 C965.596,1018.04 963.341,1016.94 960.701,1016.94 C957.126,1016.94 954.486,1018.65 952.121,1022.44 C951.186,1019.14 948.216,1016.94 944.531,1016.94 C941.176,1016.94 938.756,1018.54 936.611,1022 L936.611,1017.77 "/>
<path class="Harmony" d="M1566.17,532.488 L1533.45,532.488 L1533.45,535.073 L1534.44,535.073 C1537.57,535.128 1538.62,535.293 1539.06,535.843 C1539.39,536.338 1539.39,536.448 1539.39,539.253 L1539.39,565.433 C1539.39,568.238 1539.39,568.348 1539.06,568.843 C1538.62,569.393 1537.57,569.613 1534.44,569.613 L1533.45,569.613 L1533.45,572.198 L1552.31,572.198 L1552.31,569.613 L1550.5,569.613 C1547.36,569.613 1546.32,569.393 1545.88,568.843 C1545.55,568.348 1545.55,568.183 1545.55,565.433 L1545.55,552.948 L1546.65,552.948 C1552.31,552.728 1554.35,554.763 1554.57,560.868 L1557.15,560.868 L1557.15,542.828 L1554.57,542.828 C1554.24,548.218 1552.09,550.308 1546.87,550.363 L1545.55,550.363 L1545.55,537.823 C1545.49,535.513 1546.04,535.128 1549.01,535.073 L1551.54,535.073 C1560.56,535.018 1562.82,537.053 1564.52,546.513 L1566.94,546.513 L1566.17,532.488 "/>
<path class="Harmony" d="M1920.64,532.488 L1887.91,532.488 L1887.91,535.073 L1888.9,535.073 C1892.04,535.128 1893.08,535.293 1893.52,535.843 C1893.85,536.338 1893.85,536.448 1893.85,539.253 L1893.85,565.433 C1893.85,568.238 1893.85,568.348 1893.52,568.843 C1893.08,569.393 1892.04,569.613 1888.9,569.613 L1887.91,569.613 L1887.91,572.198 L1906.78,572.198 L1906.78,569.613 L1904.96,569.613 C1901.83,569.613 1900.78,569.393 1900.34,568.843 C1900.01,568.348 1900.01,568.183 1900.01,565.433 L1900.01,552.948 L1901.11,552.948 C1906.78,552.728 1908.81,554.763 1909.03,560.868 L1911.62,560.868 L1911.62,542.828 L1909.03,542.828 C1908.7,548.218 1906.56,550.308 1901.33,550.363 L1900.01,550.363 L1900.01,537.823 C1899.96,535.513 1900.51,535.128 1903.48,535.073 L1906.01,535.073 C1915.03,535.018 1917.28,537.053 1918.99,546.513 L1921.41,546.513 L1920.64,532.488 "/>
<path class="Harmony" d="M1301.93,532.488 L1268.87,532.488 L1268.87,535.073 L1269.86,535.073 C1273,535.128 1274.04,535.293 1274.48,535.843 C1274.81,536.338 1274.81,536.448 1274.81,539.253 L1274.81,565.433 C1274.81,568.238 1274.81,568.348 1274.48,568.843 C1274.04,569.393 1273,569.613 1269.86,569.613 L1268.87,569.613 L1268.87,572.198 L1302.64,572.198 L1303.74,557.513 L1301.32,557.513 C1299.23,567.303 1296.98,569.393 1288.56,569.613 L1284.93,569.613 C1281.63,569.503 1280.81,568.953 1280.97,566.973 L1280.97,552.948 L1282.07,552.948 C1287.74,552.728 1289.77,554.763 1289.99,560.868 L1292.58,560.868 L1292.58,542.828 L1289.99,542.828 C1289.66,548.218 1287.52,550.363 1282.29,550.363 L1280.97,550.363 L1280.97,537.823 C1280.92,535.513 1281.47,535.128 1284.44,535.073 L1287.3,535.073 C1296.32,535.018 1298.57,536.998 1300.33,546.513 L1302.7,546.513 L1301.93,532.488 "/>
<path class="Harmony" d="M1320.49,546.568 L1310.7,547.173 L1310.7,549.538 L1312.95,549.538 C1315.04,549.593 1315.32,549.923 1315.32,552.288 L1315.32,568.018 C1315.26,568.843 1315.21,569.173 1314.99,569.448 C1314.6,569.943 1313.56,570.163 1311.19,570.218 L1310.97,570.218 L1310.97,572.198 L1324.83,572.198 L1324.83,570.218 L1324.61,570.218 C1320.98,570.108 1320.49,569.833 1320.49,567.798 L1320.49,557.623 C1320.49,552.728 1323.18,549.098 1326.76,549.098 C1329.89,549.098 1331.49,551.353 1331.49,555.808 L1331.49,568.073 C1331.43,568.788 1331.38,569.173 1331.1,569.448 C1330.77,569.943 1329.67,570.163 1327.31,570.218 L1327.09,570.218 L1327.09,572.198 L1341,572.198 L1341,570.218 L1340.78,570.218 C1337.15,570.108 1336.66,569.833 1336.66,567.853 L1336.66,558.118 C1336.66,552.618 1339.13,549.098 1342.98,549.098 C1346.12,549.098 1347.66,551.463 1347.66,556.413 L1347.66,568.018 C1347.6,568.788 1347.55,569.173 1347.27,569.448 C1346.94,569.943 1345.84,570.163 1343.48,570.218 L1343.26,570.218 L1343.26,572.198 L1357.17,572.198 L1357.17,570.218 L1356.95,570.218 C1353.32,570.108 1352.83,569.833 1352.83,567.798 L1352.83,555.313 C1352.83,551.903 1352.5,550.748 1351.07,548.878 C1349.47,546.843 1347.22,545.743 1344.58,545.743 C1341,545.743 1338.36,547.448 1336,551.243 C1335.06,547.943 1332.09,545.743 1328.41,545.743 C1325.05,545.743 1322.63,547.338 1320.49,550.803 L1320.49,546.568 "/>
<path class="Harmony" d="M1909.62,1043.4 L1928.1,1043.4 C1933,1043.4 1936.74,1042.63 1939.65,1040.98 C1945.21,1037.84 1948.29,1031.57 1948.29,1023.32 C1948.29,1015.73 1945.54,1009.79 1940.48,1006.49 C1937.45,1004.57 1933.38,1003.69 1927.11,1003.69 L1909.62,1003.69 L1909.62,1006.27 L1910.67,1006.27 C1913.75,1006.33 1914.79,1006.49 1915.23,1007.04 C1915.56,1007.54 1915.56,1007.65 1915.56,1010.45 L1915.56,1036.63 C1915.56,1039.44 1915.56,1039.55 1915.23,1040.04 C1914.79,1040.59 1913.75,1040.76 1910.67,1040.81 L1909.62,1040.81 L1909.62,1043.4 M1924.86,1040.81 C1922.05,1040.81 1921.72,1040.48 1921.72,1037.79 L1921.72,1009.35 C1921.72,1006.66 1922.11,1006.27 1924.86,1006.27 L1927.72,1006.27 C1937.12,1006.27 1941.03,1011.39 1941.03,1023.54 C1941.03,1035.86 1937.51,1040.81 1928.6,1040.81 L1924.86,1040.81 "/>
<path class="Harmony" d="M1964.32,1017.77 L1954.53,1018.37 L1954.53,1020.74 L1956.78,1020.74 C1958.87,1020.79 1959.15,1021.12 1959.15,1023.49 L1959.15,1039.22 C1959.09,1040.04 1959.04,1040.37 1958.82,1040.65 C1958.43,1041.14 1957.39,1041.36 1955.02,1041.42 L1954.8,1041.42 L1954.8,1043.4 L1968.66,1043.4 L1968.66,1041.42 L1968.44,1041.42 C1964.81,1041.31 1964.32,1041.03 1964.32,1039 L1964.32,1028.82 C1964.32,1023.93 1967.01,1020.3 1970.59,1020.3 C1973.72,1020.3 1975.32,1022.55 1975.32,1027.01 L1975.32,1039.27 C1975.26,1039.99 1975.21,1040.37 1974.93,1040.65 C1974.6,1041.14 1973.5,1041.36 1971.14,1041.42 L1970.92,1041.42 L1970.92,1043.4 L1984.83,1043.4 L1984.83,1041.42 L1984.61,1041.42 C1980.98,1041.31 1980.49,1041.03 1980.49,1039.05 L1980.49,1029.32 C1980.49,1023.82 1982.96,1020.3 1986.81,1020.3 C1989.95,1020.3 1991.49,1022.66 1991.49,1027.61 L1991.49,1039.22 C1991.43,1039.99 1991.38,1040.37 1991.1,1040.65 C1990.77,1041.14 1989.67,1041.36 1987.31,1041.42 L1987.09,1041.42 L1987.09,1043.4 L2001,1043.4 L2001,1041.42 L2000.78,1041.42 C1997.15,1041.31 1996.66,1041.03 1996.66,1039 L1996.66,1026.51 C1996.66,1023.1 1996.33,1021.95 1994.9,1020.08 C1993.3,1018.04 1991.05,1016.94 1988.41,1016.94 C1984.83,1016.94 1982.19,1018.65 1979.83,1022.44 C1978.89,1019.14 1975.92,1016.94 1972.24,1016.94 C1968.88,1016.94 1966.46,1018.54 1964.32,1022 L1964.32,1017.77 "/>
<path class="Harmony" d="M998.102,532.488 L965.047,532.488 L965.047,535.073 L966.037,535.073 C969.172,535.128 970.217,535.293 970.657,535.843 C970.987,536.338 970.987,536.448 970.987,539.253 L970.987,565.433 C970.987,568.238 970.987,568.348 970.657,568.843 C970.217,569.393 969.172,569.613 966.037,569.613 L965.047,569.613 L965.047,572.198 L998.817,572.198 L999.917,557.513 L997.497,557.513 C995.407,567.303 993.152,569.393 984.737,569.613 L981.107,569.613 C977.807,569.503 976.982,568.953 977.147,566.973 L977.147,552.948 L978.247,552.948 C983.912,552.728 985.947,554.763 986.167,560.868 L988.752,560.868 L988.752,542.828 L986.167,542.828 C985.837,548.218 983.692,550.363 978.467,550.363 L977.147,550.363 L977.147,537.823 C977.092,535.513 977.642,535.128 980.612,535.073 L983.472,535.073 C992.492,535.018 994.747,536.998 996.507,546.513 L998.872,546.513 L998.102,532.488 "/>
<path class="Harmony" d="M1016.66,546.568 L1006.87,547.173 L1006.87,549.538 L1009.13,549.538 C1011.22,549.593 1011.49,549.923 1011.49,552.288 L1011.49,568.018 C1011.44,568.843 1011.38,569.173 1011.16,569.448 C1010.78,569.943 1009.73,570.163 1007.37,570.218 L1007.15,570.218 L1007.15,572.198 L1021.01,572.198 L1021.01,570.218 L1020.79,570.218 C1017.16,570.108 1016.66,569.833 1016.66,567.798 L1016.66,557.623 C1016.66,552.728 1019.36,549.098 1022.93,549.098 C1026.07,549.098 1027.66,551.353 1027.66,555.808 L1027.66,568.073 C1027.61,568.788 1027.55,569.173 1027.28,569.448 C1026.95,569.943 1025.85,570.163 1023.48,570.218 L1023.26,570.218 L1023.26,572.198 L1037.18,572.198 L1037.18,570.218 L1036.96,570.218 C1033.33,570.108 1032.83,569.833 1032.83,567.853 L1032.83,558.118 C1032.83,552.618 1035.31,549.098 1039.16,549.098 C1042.29,549.098 1043.83,551.463 1043.83,556.413 L1043.83,568.018 C1043.78,568.788 1043.72,569.173 1043.45,569.448 C1043.12,569.943 1042.02,570.163 1039.65,570.218 L1039.43,570.218 L1039.43,572.198 L1053.35,572.198 L1053.35,570.218 L1053.13,570.218 C1049.5,570.108 1049,569.833 1049,567.798 L1049,555.313 C1049,551.903 1048.67,550.748 1047.24,548.878 C1045.65,546.843 1043.39,545.743 1040.75,545.743 C1037.18,545.743 1034.54,547.448 1032.17,551.243 C1031.24,547.943 1028.27,545.743 1024.58,545.743 C1021.23,545.743 1018.81,547.338 1016.66,550.803 L1016.66,546.568 "/>
<path class="Harmony" d="M2261.5,532.488 L2228.44,532.488 L2228.44,535.073 L2229.43,535.073 C2232.57,535.128 2233.61,535.293 2234.05,535.843 C2234.38,536.338 2234.38,536.448 2234.38,539.253 L2234.38,565.433 C2234.38,568.238 2234.38,568.348 2234.05,568.843 C2233.61,569.393 2232.57,569.613 2229.43,569.613 L2228.44,569.613 L2228.44,572.198 L2262.21,572.198 L2263.31,557.513 L2260.89,557.513 C2258.8,567.303 2256.55,569.393 2248.13,569.613 L2244.5,569.613 C2241.2,569.503 2240.38,568.953 2240.54,566.973 L2240.54,552.948 L2241.64,552.948 C2247.31,552.728 2249.34,554.763 2249.56,560.868 L2252.15,560.868 L2252.15,542.828 L2249.56,542.828 C2249.23,548.218 2247.09,550.363 2241.86,550.363 L2240.54,550.363 L2240.54,537.823 C2240.49,535.513 2241.04,535.128 2244.01,535.073 L2246.87,535.073 C2255.89,535.018 2258.14,536.998 2259.9,546.513 L2262.27,546.513 L2261.5,532.488 "/>
<path class="Harmony" d="M2280.06,546.568 L2270.27,547.173 L2270.27,549.538 L2272.52,549.538 C2274.61,549.593 2274.89,549.923 2274.89,552.288 L2274.89,568.018 C2274.83,568.843 2274.78,569.173 2274.56,569.448 C2274.17,569.943 2273.13,570.163 2270.76,570.218 L2270.54,570.218 L2270.54,572.198 L2284.4,572.198 L2284.4,570.218 L2284.18,570.218 C2280.55,570.108 2280.06,569.833 2280.06,567.798 L2280.06,557.623 C2280.06,552.728 2282.75,549.098 2286.33,549.098 C2289.46,549.098 2291.06,551.353 2291.06,555.808 L2291.06,568.073 C2291,568.788 2290.95,569.173 2290.67,569.448 C2290.34,569.943 2289.24,570.163 2286.88,570.218 L2286.66,570.218 L2286.66,572.198 L2300.57,572.198 L2300.57,570.218 L2300.35,570.218 C2296.72,570.108 2296.23,569.833 2296.23,567.853 L2296.23,558.118 C2296.23,552.618 2298.7,549.098 2302.55,549.098 C2305.69,549.098 2307.23,551.463 2307.23,556.413 L2307.23,568.018 C2307.17,568.788 2307.12,569.173 2306.84,569.448 C2306.51,569.943 2305.41,570.163 2303.05,570.218 L2302.83,570.218 L2302.83,572.198 L2316.74,572.198 L2316.74,570.218 L2316.52,570.218 C2312.89,570.108 2312.4,569.833 2312.4,567.798 L2312.4,555.313 C2312.4,551.903 2312.07,550.748 2310.64,548.878 C2309.04,546.843 2306.79,545.743 2304.15,545.743 C2300.57,545.743 2297.93,547.448 2295.57,551.243 C2294.63,547.943 2291.66,545.743 2287.98,545.743 C2284.62,545.743 2282.2,547.338 2280.06,550.803 L2280.06,546.568 "/>
<path class="Harmony" d="M657.242,532.488 L624.517,532.488 L624.517,535.073 L625.507,535.073 C628.642,535.128 629.687,535.293 630.127,535.843 C630.457,536.338 630.457,536.448 630.457,539.253 L630.457,565.433 C630.457,568.238 630.457,568.348 630.127,568.843 C629.687,569.393 628.642,569.613 625.507,569.613 L624.517,569.613 L624.517,572.198 L643.382,572.198 L643.382,569.613 L641.567,569.613 C638.432,569.613 637.387,569.393 636.947,568.843 C636.617,568.348 636.617,568.183 636.617,565.433 L636.617,552.948 L637.717,552.948 C643.382,552.728 645.417,554.763 645.637,560.868 L648.222,560.868 L648.222,542.828 L645.637,542.828 C645.307,548.218 643.162,550.308 637.937,550.363 L636.617,550.363 L636.617,537.823 C636.562,535.513 637.112,535.128 640.082,535.073 L642.612,535.073 C651.632,535.018 653.887,537.053 655.592,546.513 L658.012,546.513 L657.242,532.488 "/>
<path class="Harmony" d="M1446.53,1043.4 L1465.01,1043.4 C1469.91,1043.4 1473.65,1042.63 1476.56,1040.98 C1482.12,1037.84 1485.2,1031.57 1485.2,1023.32 C1485.2,1015.73 1482.45,1009.79 1477.39,1006.49 C1474.36,1004.57 1470.29,1003.69 1464.02,1003.69 L1446.53,1003.69 L1446.53,1006.27 L1447.58,1006.27 C1450.66,1006.33 1451.7,1006.49 1452.14,1007.04 C1452.47,1007.54 1452.47,1007.65 1452.47,1010.45 L1452.47,1036.63 C1452.47,1039.44 1452.47,1039.55 1452.14,1040.04 C1451.7,1040.59 1450.66,1040.76 1447.58,1040.81 L1446.53,1040.81 L1446.53,1043.4 M1461.77,1040.81 C1458.96,1040.81 1458.63,1040.48 1458.63,1037.79 L1458.63,1009.35 C1458.63,1006.66 1459.02,1006.27 1461.77,1006.27 L1464.63,1006.27 C1474.03,1006.27 1477.94,1011.39 1477.94,1023.54 C1477.94,1035.86 1474.42,1040.81 1465.51,1040.81 L1461.77,1040.81 "/>
<path class="Harmony" d="M1501.22,1017.77 L1491.43,1018.37 L1491.43,1020.74 L1493.69,1020.74 C1495.78,1020.79 1496.05,1021.12 1496.05,1023.49 L1496.05,1039.22 C1496,1040.04 1495.94,1040.37 1495.72,1040.65 C1495.34,1041.14 1494.29,1041.36 1491.93,1041.42 L1491.71,1041.42 L1491.71,1043.4 L1505.57,1043.4 L1505.57,1041.42 L1505.35,1041.42 C1501.72,1041.31 1501.22,1041.03 1501.22,1039 L1501.22,1028.82 C1501.22,1023.93 1503.92,1020.3 1507.49,1020.3 C1510.63,1020.3 1512.22,1022.55 1512.22,1027.01 L1512.22,1039.27 C1512.17,1039.99 1512.11,1040.37 1511.84,1040.65 C1511.51,1041.14 1510.41,1041.36 1508.04,1041.42 L1507.82,1041.42 L1507.82,1043.4 L1521.74,1043.4 L1521.74,1041.42 L1521.52,1041.42 C1517.89,1041.31 1517.39,1041.03 1517.39,1039.05 L1517.39,1029.32 C1517.39,1023.82 1519.87,1020.3 1523.72,1020.3 C1526.85,1020.3 1528.39,1022.66 1528.39,1027.61 L1528.39,1039.22 C1528.34,1039.99 1528.28,1040.37 1528.01,1040.65 C1527.68,1041.14 1526.58,1041.36 1524.21,1041.42 L1523.99,1041.42 L1523.99,1043.4 L1537.91,1043.4 L1537.91,1041.42 L1537.69,1041.42 C1534.06,1041.31 1533.56,1041.03 1533.56,1039 L1533.56,1026.51 C1533.56,1023.1 1533.23,1021.95 1531.8,1020.08 C1530.21,1018.04 1527.95,1016.94 1525.31,1016.94 C1521.74,1016.94 1519.1,1018.65 1516.73,1022.44 C1515.8,1019.14 1512.83,1016.94 1509.14,1016.94 C1505.79,1016.94 1503.37,1018.54 1501.22,1022 L1501.22,1017.77 "/>
<path class="Harmony" d="M2153.27,1043.4 L2171.75,1043.4 C2176.65,1043.4 2180.39,1042.63 2183.3,1040.98 C2188.86,1037.84 2191.94,1031.57 2191.94,1023.32 C2191.94,1015.73 2189.19,1009.79 2184.13,1006.49 C2181.1,1004.57 2177.03,1003.69 2170.76,1003.69 L2153.27,1003.69 L2153.27,1006.27 L2154.32,1006.27 C2157.4,1006.33 2158.44,1006.49 2158.88,1007.04 C2159.21,1007.54 2159.21,1007.65 2159.21,1010.45 L2159.21,1036.63 C2159.21,1039.44 2159.21,1039.55 2158.88,1040.04 C2158.44,1040.59 2157.4,1040.76 2154.32,1040.81 L2153.27,1040.81 L2153.27,1043.4 M2168.51,1040.81 C2165.7,1040.81 2165.37,1040.48 2165.37,1037.79 L2165.37,1009.35 C2165.37,1006.66 2165.76,1006.27 2168.51,1006.27 L2171.37,1006.27 C2180.77,1006.27 2184.68,1011.39 2184.68,1023.54 C2184.68,1035.86 2181.16,1040.81 2172.25,1040.81 L2168.51,1040.81 "/>
<path class="Harmony" d="M2207.97,1017.77 L2198.18,1018.37 L2198.18,1020.74 L2200.43,1020.74 C2202.52,1020.79 2202.8,1021.12 2202.8,1023.49 L2202.8,1039.22 C2202.74,1040.04 2202.69,1040.37 2202.47,1040.65 C2202.08,1041.14 2201.04,1041.36 2198.67,1041.42 L2198.45,1041.42 L2198.45,1043.4 L2212.31,1043.4 L2212.31,1041.42 L2212.09,1041.42 C2208.46,1041.31 2207.97,1041.03 2207.97,1039 L2207.97,1028.82 C2207.97,1023.93 2210.66,1020.3 2214.24,1020.3 C2217.37,1020.3 2218.97,1022.55 2218.97,1027.01 L2218.97,1039.27 C2218.91,1039.99 2218.86,1040.37 2218.58,1040.65 C2218.25,1041.14 2217.15,1041.36 2214.79,1041.42 L2214.57,1041.42 L2214.57,1043.4 L2228.48,1043.4 L2228.48,1041.42 L2228.26,1041.42 C2224.63,1041.31 2224.14,1041.03 2224.14,1039.05 L2224.14,1029.32 C2224.14,1023.82 2226.61,1020.3 2230.46,1020.3 C2233.6,1020.3 2235.14,1022.66 2235.14,1027.61 L2235.14,1039.22 C2235.08,1039.99 2235.03,1040.37 2234.75,1040.65 C2234.42,1041.14 2233.32,1041.36 2230.96,1041.42 L2230.74,1041.42 L2230.74,1043.4 L2244.65,1043.4 L2244.65,1041.42 L2244.43,1041.42 C2240.8,1041.31 2240.31,1041.03 2240.31,1039 L2240.31,1026.51 C2240.31,1023.1 2239.98,1021.95 2238.55,1020.08 C2236.95,1018.04 2234.7,1016.94 2232.06,1016.94 C2228.48,1016.94 2225.84,1018.65 2223.48,1022.44 C2222.54,1019.14 2219.57,1016.94 2215.89,1016.94 C2212.53,1016.94 2210.11,1018.54 2207.97,1022 L2207.97,1017.77 "/>
<path class="Harmony" d="M429.372,532.488 L396.647,532.488 L396.647,535.073 L397.637,535.073 C400.772,535.128 401.817,535.293 402.257,535.843 C402.587,536.338 402.587,536.448 402.587,539.253 L402.587,565.433 C402.587,568.238 402.587,568.348 402.257,568.843 C401.817,569.393 400.772,569.613 397.637,569.613 L396.647,569.613 L396.647,572.198 L415.512,572.198 L415.512,569.613 L413.697,569.613 C410.562,569.613 409.517,569.393 409.077,568.843 C408.747,568.348 408.747,568.183 408.747,565.433 L408.747,552.948 L409.847,552.948 C415.512,552.728 417.547,554.763 417.767,560.868 L420.352,560.868 L420.352,542.828 L417.767,542.828 C417.437,548.218 415.292,550.308 410.067,550.363 L408.747,550.363 L408.747,537.823 C408.692,535.513 409.242,535.128 412.212,535.073 L414.742,535.073 C423.762,535.018 426.017,537.053 427.722,546.513 L430.142,546.513 L429.372,532.488 "/>
<path class="Harmony" d="M2565.32,532.488 L2532.27,532.488 L2532.27,535.073 L2533.26,535.073 C2536.39,535.128 2537.44,535.293 2537.88,535.843 C2538.21,536.338 2538.21,536.448 2538.21,539.253 L2538.21,565.433 C2538.21,568.238 2538.21,568.348 2537.88,568.843 C2537.44,569.393 2536.39,569.613 2533.26,569.613 L2532.27,569.613 L2532.27,572.198 L2566.04,572.198 L2567.14,557.513 L2564.72,557.513 C2562.63,567.303 2560.37,569.393 2551.96,569.613 L2548.33,569.613 C2545.03,569.503 2544.2,568.953 2544.37,566.973 L2544.37,552.948 L2545.47,552.948 C2551.13,552.728 2553.17,554.763 2553.39,560.868 L2555.97,560.868 L2555.97,542.828 L2553.39,542.828 C2553.06,548.218 2550.91,550.363 2545.69,550.363 L2544.37,550.363 L2544.37,537.823 C2544.31,535.513 2544.86,535.128 2547.83,535.073 L2550.69,535.073 C2559.71,535.018 2561.97,536.998 2563.73,546.513 L2566.09,546.513 L2565.32,532.488 "/>
<path class="Harmony" d="M2583.89,546.568 L2574.1,547.173 L2574.1,549.538 L2576.35,549.538 C2578.44,549.593 2578.72,549.923 2578.72,552.288 L2578.72,568.018 C2578.66,568.843 2578.61,569.173 2578.39,569.448 C2578,569.943 2576.96,570.163 2574.59,570.218 L2574.37,570.218 L2574.37,572.198 L2588.23,572.198 L2588.23,570.218 L2588.01,570.218 C2584.38,570.108 2583.89,569.833 2583.89,567.798 L2583.89,557.623 C2583.89,552.728 2586.58,549.098 2590.16,549.098 C2593.29,549.098 2594.89,551.353 2594.89,555.808 L2594.89,568.073 C2594.83,568.788 2594.78,569.173 2594.5,569.448 C2594.17,569.943 2593.07,570.163 2590.71,570.218 L2590.49,570.218 L2590.49,572.198 L2604.4,572.198 L2604.4,570.218 L2604.18,570.218 C2600.55,570.108 2600.06,569.833 2600.06,567.853 L2600.06,558.118 C2600.06,552.618 2602.53,549.098 2606.38,549.098 C2609.52,549.098 2611.06,551.463 2611.06,556.413 L2611.06,568.018 C2611,568.788 2610.95,569.173 2610.67,569.448 C2610.34,569.943 2609.24,570.163 2606.88,570.218 L2606.66,570.218 L2606.66,572.198 L2620.57,572.198 L2620.57,570.218 L2620.35,570.218 C2616.72,570.108 2616.23,569.833 2616.23,567.798 L2616.23,555.313 C2616.23,551.903 2615.9,550.748 2614.47,548.878 C2612.87,546.843 2610.62,545.743 2607.98,545.743 C2604.4,545.743 2601.76,547.448 2599.4,551.243 C2598.46,547.943 2595.49,545.743 2591.81,545.743 C2588.45,545.743 2586.03,547.338 2583.89,550.803 L2583.89,546.568 "/>
<path class="Harmony" d="M379.138,1002.92 L376.828,1002.92 L364.178,1034.98 C362.693,1039.27 361.263,1040.59 358.128,1040.81 L357.908,1040.81 L357.908,1043.4 L372.483,1043.4 L372.483,1040.81 L371.383,1040.81 C368.413,1040.81 366.928,1039.77 366.928,1037.68 C366.928,1036.96 367.093,1036.3 367.423,1035.37 L369.238,1030.53 L383.813,1030.53 L386.783,1037.9 C387.113,1038.78 387.223,1039.11 387.223,1039.38 C387.223,1040.26 385.848,1040.81 383.813,1040.81 L381.503,1040.81 L381.503,1043.4 L398.553,1043.4 L398.553,1040.81 L397.783,1040.81 C394.923,1040.76 394.428,1040.43 393.163,1037.29 L379.138,1002.92 M376.443,1011.94 L382.658,1027.56 L370.338,1027.56 L376.443,1011.94 "/>
<path class="Harmony" d="M411.56,1017.77 L401.77,1018.37 L401.77,1020.74 L404.025,1020.74 C406.115,1020.79 406.39,1021.12 406.39,1023.49 L406.39,1039.22 C406.335,1040.04 406.28,1040.37 406.06,1040.65 C405.675,1041.14 404.63,1041.36 402.265,1041.42 L402.045,1041.42 L402.045,1043.4 L415.905,1043.4 L415.905,1041.42 L415.685,1041.42 C412.055,1041.31 411.56,1041.03 411.56,1039 L411.56,1028.82 C411.56,1023.93 414.255,1020.3 417.83,1020.3 C420.965,1020.3 422.56,1022.55 422.56,1027.01 L422.56,1039.27 C422.505,1039.99 422.45,1040.37 422.175,1040.65 C421.845,1041.14 420.745,1041.36 418.38,1041.42 L418.16,1041.42 L418.16,1043.4 L432.075,1043.4 L432.075,1041.42 L431.855,1041.42 C428.225,1041.31 427.73,1041.03 427.73,1039.05 L427.73,1029.32 C427.73,1023.82 430.205,1020.3 434.055,1020.3 C437.19,1020.3 438.73,1022.66 438.73,1027.61 L438.73,1039.22 C438.675,1039.99 438.62,1040.37 438.345,1040.65 C438.015,1041.14 436.915,1041.36 434.55,1041.42 L434.33,1041.42 L434.33,1043.4 L448.245,1043.4 L448.245,1041.42 L448.025,1041.42 C444.395,1041.31 443.9,1041.03 443.9,1039 L443.9,1026.51 C443.9,1023.1 443.57,1021.95 442.14,1020.08 C440.545,1018.04 438.29,1016.94 435.65,1016.94 C432.075,1016.94 429.435,1018.65 427.07,1022.44 C426.135,1019.14 423.165,1016.94 419.48,1016.94 C416.125,1016.94 413.705,1018.54 411.56,1022 L411.56,1017.77 "/>
<path class="Harmony" d="M622.789,1002.92 L620.479,1002.92 L607.829,1034.98 C606.344,1039.27 604.914,1040.59 601.779,1040.81 L601.559,1040.81 L601.559,1043.4 L616.134,1043.4 L616.134,1040.81 L615.034,1040.81 C612.064,1040.81 610.579,1039.77 610.579,1037.68 C610.579,1036.96 610.744,1036.3 611.074,1035.37 L612.889,1030.53 L627.464,1030.53 L630.434,1037.9 C630.764,1038.78 630.874,1039.11 630.874,1039.38 C630.874,1040.26 629.499,1040.81 627.464,1040.81 L625.154,1040.81 L625.154,1043.4 L642.204,1043.4 L642.204,1040.81 L641.434,1040.81 C638.574,1040.76 638.079,1040.43 636.814,1037.29 L622.789,1002.92 M620.094,1011.94 L626.309,1027.56 L613.989,1027.56 L620.094,1011.94 "/>
<path class="Harmony" d="M655.21,1017.77 L645.42,1018.37 L645.42,1020.74 L647.675,1020.74 C649.765,1020.79 650.04,1021.12 650.04,1023.49 L650.04,1039.22 C649.985,1040.04 649.93,1040.37 649.71,1040.65 C649.325,1041.14 648.28,1041.36 645.915,1041.42 L645.695,1041.42 L645.695,1043.4 L659.555,1043.4 L659.555,1041.42 L659.335,1041.42 C655.705,1041.31 655.21,1041.03 655.21,1039 L655.21,1028.82 C655.21,1023.93 657.905,1020.3 661.48,1020.3 C664.615,1020.3 666.21,1022.55 666.21,1027.01 L666.21,1039.27 C666.155,1039.99 666.1,1040.37 665.825,1040.65 C665.495,1041.14 664.395,1041.36 662.03,1041.42 L661.81,1041.42 L661.81,1043.4 L675.725,1043.4 L675.725,1041.42 L675.505,1041.42 C671.875,1041.31 671.38,1041.03 671.38,1039.05 L671.38,1029.32 C671.38,1023.82 673.855,1020.3 677.705,1020.3 C680.84,1020.3 682.38,1022.66 682.38,1027.61 L682.38,1039.22 C682.325,1039.99 682.27,1040.37 681.995,1040.65 C681.665,1041.14 680.565,1041.36 678.2,1041.42 L677.98,1041.42 L677.98,1043.4 L691.895,1043.4 L691.895,1041.42 L691.675,1041.42 C688.045,1041.31 687.55,1041.03 687.55,1039 L687.55,1026.51 C687.55,1023.1 687.22,1021.95 685.79,1020.08 C684.195,1018.04 681.94,1016.94 679.3,1016.94 C675.725,1016.94 673.085,1018.65 670.72,1022.44 C669.785,1019.14 666.815,1016.94 663.13,1016.94 C659.775,1016.94 657.355,1018.54 655.21,1022 L655.21,1017.77 "/>
<path class="Harmony" d="M2393.94,1002.92 L2391.63,1002.92 L2378.98,1034.98 C2377.5,1039.27 2376.07,1040.59 2372.93,1040.81 L2372.71,1040.81 L2372.71,1043.4 L2387.29,1043.4 L2387.29,1040.81 L2386.19,1040.81 C2383.22,1040.81 2381.73,1039.77 2381.73,1037.68 C2381.73,1036.96 2381.9,1036.3 2382.23,1035.37 L2384.04,1030.53 L2398.62,1030.53 L2401.59,1037.9 C2401.92,1038.78 2402.03,1039.11 2402.03,1039.38 C2402.03,1040.26 2400.65,1040.81 2398.62,1040.81 L2396.31,1040.81 L2396.31,1043.4 L2413.36,1043.4 L2413.36,1040.81 L2412.59,1040.81 C2409.73,1040.76 2409.23,1040.43 2407.97,1037.29 L2393.94,1002.92 M2391.25,1011.94 L2397.46,1027.56 L2385.14,1027.56 L2391.25,1011.94 "/>
<path class="Harmony" d="M2426.36,1017.77 L2416.57,1018.37 L2416.57,1020.74 L2418.83,1020.74 C2420.92,1020.79 2421.19,1021.12 2421.19,1023.49 L2421.19,1039.22 C2421.14,1040.04 2421.08,1040.37 2420.86,1040.65 C2420.48,1041.14 2419.43,1041.36 2417.07,1041.42 L2416.85,1041.42 L2416.85,1043.4 L2430.71,1043.4 L2430.71,1041.42 L2430.49,1041.42 C2426.86,1041.31 2426.36,1041.03 2426.36,1039 L2426.36,1028.82 C2426.36,1023.93 2429.06,1020.3 2432.63,1020.3 C2435.77,1020.3 2437.36,1022.55 2437.36,1027.01 L2437.36,1039.27 C2437.31,1039.99 2437.25,1040.37 2436.98,1040.65 C2436.65,1041.14 2435.55,1041.36 2433.18,1041.42 L2432.96,1041.42 L2432.96,1043.4 L2446.88,1043.4 L2446.88,1041.42 L2446.66,1041.42 C2443.03,1041.31 2442.53,1041.03 2442.53,1039.05 L2442.53,1029.32 C2442.53,1023.82 2445.01,1020.3 2448.86,1020.3 C2451.99,1020.3 2453.53,1022.66 2453.53,1027.61 L2453.53,1039.22 C2453.48,1039.99 2453.42,1040.37 2453.15,1040.65 C2452.82,1041.14 2451.72,1041.36 2449.35,1041.42 L2449.13,1041.42 L2449.13,1043.4 L2463.05,1043.4 L2463.05,1041.42 L2462.83,1041.42 C2459.2,1041.31 2458.7,1041.03 2458.7,1039 L2458.7,1026.51 C2458.7,1023.1 2458.37,1021.95 2456.94,1020.08 C2455.35,1018.04 2453.09,1016.94 2450.45,1016.94 C2446.88,1016.94 2444.24,1018.65 2441.87,1022.44 C2440.94,1019.14 2437.97,1016.94 2434.28,1016.94 C2430.93,1016.94 2428.51,1018.54 2426.36,1022 L2426.36,1017.77 "/>
<path class="Harmony" d="M1166.18,1043.4 L1184.66,1043.4 C1189.55,1043.4 1193.29,1042.63 1196.21,1040.98 C1201.76,1037.84 1204.84,1031.57 1204.84,1023.32 C1204.84,1015.73 1202.09,1009.79 1197.03,1006.49 C1194.01,1004.57 1189.94,1003.69 1183.67,1003.69 L1166.18,1003.69 L1166.18,1006.27 L1167.22,1006.27 C1170.3,1006.33 1171.35,1006.49 1171.79,1007.04 C1172.12,1007.54 1172.12,1007.65 1172.12,1010.45 L1172.12,1036.63 C1172.12,1039.44 1172.12,1039.55 1171.79,1040.04 C1171.35,1040.59 1170.3,1040.76 1167.22,1040.81 L1166.18,1040.81 L1166.18,1043.4 M1181.41,1040.81 C1178.61,1040.81 1178.28,1040.48 1178.28,1037.79 L1178.28,1009.35 C1178.28,1006.66 1178.66,1006.27 1181.41,1006.27 L1184.27,1006.27 C1193.68,1006.27 1197.58,1011.39 1197.58,1023.54 C1197.58,1035.86 1194.06,1040.81 1185.15,1040.81 L1181.41,1040.81 "/>
<path class="Harmony" d="M1220.87,1017.77 L1211.08,1018.37 L1211.08,1020.74 L1213.34,1020.74 C1215.43,1020.79 1215.7,1021.12 1215.7,1023.49 L1215.7,1039.22 C1215.65,1040.04 1215.59,1040.37 1215.37,1040.65 C1214.99,1041.14 1213.94,1041.36 1211.58,1041.42 L1211.36,1041.42 L1211.36,1043.4 L1225.22,1043.4 L1225.22,1041.42 L1225,1041.42 C1221.37,1041.31 1220.87,1041.03 1220.87,1039 L1220.87,1028.82 C1220.87,1023.93 1223.57,1020.3 1227.14,1020.3 C1230.28,1020.3 1231.87,1022.55 1231.87,1027.01 L1231.87,1039.27 C1231.82,1039.99 1231.76,1040.37 1231.49,1040.65 C1231.16,1041.14 1230.06,1041.36 1227.69,1041.42 L1227.47,1041.42 L1227.47,1043.4 L1241.39,1043.4 L1241.39,1041.42 L1241.17,1041.42 C1237.54,1041.31 1237.04,1041.03 1237.04,1039.05 L1237.04,1029.32 C1237.04,1023.82 1239.52,1020.3 1243.37,1020.3 C1246.5,1020.3 1248.04,1022.66 1248.04,1027.61 L1248.04,1039.22 C1247.99,1039.99 1247.93,1040.37 1247.66,1040.65 C1247.33,1041.14 1246.23,1041.36 1243.86,1041.42 L1243.64,1041.42 L1243.64,1043.4 L1257.56,1043.4 L1257.56,1041.42 L1257.34,1041.42 C1253.71,1041.31 1253.21,1041.03 1253.21,1039 L1253.21,1026.51 C1253.21,1023.1 1252.88,1021.95 1251.45,1020.08 C1249.86,1018.04 1247.6,1016.94 1244.96,1016.94 C1241.39,1016.94 1238.75,1018.65 1236.38,1022.44 C1235.45,1019.14 1232.48,1016.94 1228.79,1016.94 C1225.44,1016.94 1223.02,1018.54 1220.87,1022 L1220.87,1017.77 "/>
<path class="Harmony" d="M2576.68,1002.92 L2574.37,1002.92 L2561.72,1034.98 C2560.23,1039.27 2558.8,1040.59 2555.67,1040.81 L2555.45,1040.81 L2555.45,1043.4 L2570.02,1043.4 L2570.02,1040.81 L2568.92,1040.81 C2565.95,1040.81 2564.47,1039.77 2564.47,1037.68 C2564.47,1036.96 2564.63,1036.3 2564.96,1035.37 L2566.78,1030.53 L2581.35,1030.53 L2584.32,1037.9 C2584.65,1038.78 2584.76,1039.11 2584.76,1039.38 C2584.76,1040.26 2583.39,1040.81 2581.35,1040.81 L2579.04,1040.81 L2579.04,1043.4 L2596.09,1043.4 L2596.09,1040.81 L2595.32,1040.81 C2592.46,1040.76 2591.97,1040.43 2590.7,1037.29 L2576.68,1002.92 M2573.98,1011.94 L2580.2,1027.56 L2567.88,1027.56 L2573.98,1011.94 "/>
<path class="Harmony" d="M2609.1,1017.77 L2599.31,1018.37 L2599.31,1020.74 L2601.57,1020.74 C2603.66,1020.79 2603.93,1021.12 2603.93,1023.49 L2603.93,1039.22 C2603.88,1040.04 2603.82,1040.37 2603.6,1040.65 C2603.22,1041.14 2602.17,1041.36 2599.81,1041.42 L2599.59,1041.42 L2599.59,1043.4 L2613.45,1043.4 L2613.45,1041.42 L2613.23,1041.42 C2609.6,1041.31 2609.1,1041.03 2609.1,1039 L2609.1,1028.82 C2609.1,1023.93 2611.8,1020.3 2615.37,1020.3 C2618.51,1020.3 2620.1,1022.55 2620.1,1027.01 L2620.1,1039.27 C2620.05,1039.99 2619.99,1040.37 2619.72,1040.65 C2619.39,1041.14 2618.29,1041.36 2615.92,1041.42 L2615.7,1041.42 L2615.7,1043.4 L2629.62,1043.4 L2629.62,1041.42 L2629.4,1041.42 C2625.77,1041.31 2625.27,1041.03 2625.27,1039.05 L2625.27,1029.32 C2625.27,1023.82 2627.75,1020.3 2631.6,1020.3 C2634.73,1020.3 2636.27,1022.66 2636.27,1027.61 L2636.27,1039.22 C2636.22,1039.99 2636.16,1040.37 2635.89,1040.65 C2635.56,1041.14 2634.46,1041.36 2632.09,1041.42 L2631.87,1041.42 L2631.87,1043.4 L2645.79,1043.4 L2645.79,1041.42 L2645.57,1041.42 C2641.94,1041.31 2641.44,1041.03 2641.44,1039 L2641.44,1026.51 C2641.44,1023.1 2641.11,1021.95 2639.68,1020.08 C2638.09,1018.04 2635.83,1016.94 2633.19,1016.94 C2629.62,1016.94 2626.98,1018.65 2624.61,1022.44 C2623.68,1019.14 2620.71,1016.94 2617.02,1016.94 C2613.67,1016.94 2611.25,1018.54 2609.1,1022 L2609.1,1017.77 "/>
<path class="Harmony" d="M1711.41,1002.92 L1709.1,1002.92 L1696.45,1034.98 C1694.96,1039.27 1693.53,1040.59 1690.4,1040.81 L1690.18,1040.81 L1690.18,1043.4 L1704.75,1043.4 L1704.75,1040.81 L1703.65,1040.81 C1700.68,1040.81 1699.2,1039.77 1699.2,1037.68 C1699.2,1036.96 1699.36,1036.3 1699.69,1035.37 L1701.51,1030.53 L1716.08,1030.53 L1719.05,1037.9 C1719.38,1038.78 1719.49,1039.11 1719.49,1039.38 C1719.49,1040.26 1718.12,1040.81 1716.08,1040.81 L1713.77,1040.81 L1713.77,1043.4 L1730.82,1043.4 L1730.82,1040.81 L1730.05,1040.81 C1727.19,1040.76 1726.7,1040.43 1725.43,1037.29 L1711.41,1002.92 M1708.71,1011.94 L1714.93,1027.56 L1702.61,1027.56 L1708.71,1011.94 "/>
<path class="Harmony" d="M1743.83,1017.77 L1734.04,1018.37 L1734.04,1020.74 L1736.29,1020.74 C1738.38,1020.79 1738.66,1021.12 1738.66,1023.49 L1738.66,1039.22 C1738.6,1040.04 1738.55,1040.37 1738.33,1040.65 C1737.94,1041.14 1736.9,1041.36 1734.53,1041.42 L1734.31,1041.42 L1734.31,1043.4 L1748.17,1043.4 L1748.17,1041.42 L1747.95,1041.42 C1744.32,1041.31 1743.83,1041.03 1743.83,1039 L1743.83,1028.82 C1743.83,1023.93 1746.52,1020.3 1750.1,1020.3 C1753.23,1020.3 1754.83,1022.55 1754.83,1027.01 L1754.83,1039.27 C1754.77,1039.99 1754.72,1040.37 1754.44,1040.65 C1754.11,1041.14 1753.01,1041.36 1750.65,1041.42 L1750.43,1041.42 L1750.43,1043.4 L1764.34,1043.4 L1764.34,1041.42 L1764.12,1041.42 C1760.49,1041.31 1760,1041.03 1760,1039.05 L1760,1029.32 C1760,1023.82 1762.47,1020.3 1766.32,1020.3 C1769.46,1020.3 1771,1022.66 1771,1027.61 L1771,1039.22 C1770.94,1039.99 1770.89,1040.37 1770.61,1040.65 C1770.28,1041.14 1769.18,1041.36 1766.82,1041.42 L1766.6,1041.42 L1766.6,1043.4 L1780.51,1043.4 L1780.51,1041.42 L1780.29,1041.42 C1776.66,1041.31 1776.17,1041.03 1776.17,1039 L1776.17,1026.51 C1776.17,1023.1 1775.84,1021.95 1774.41,1020.08 C1772.81,1018.04 1770.56,1016.94 1767.92,1016.94 C1764.34,1016.94 1761.7,1018.65 1759.34,1022.44 C1758.4,1019.14 1755.43,1016.94 1751.75,1016.94 C1748.39,1016.94 1745.97,1018.54 1743.83,1022 L1743.83,1017.77 "/>
</svg>
