<?xml version="1.0" encoding="UTF-8" standalone="no"?>
<svg width="2977.2px" height="4208.4px" viewBox="0 0 2977.2 4208.4"
 xmlns="http://www.w3.org/2000/svg" xmlns:xlink="http://www.w3.org/1999/xlink" version="1.2" baseProfile="tiny">
<title>おもちゃのマーチ</title>
<desc>Generated by MuseScore Studio 4.4.2</desc>
<path class="" fill="#ffffff" fill-rule="evenodd" d="M0,0 L2977.2,0 L2977.2,4208.4 L0,4208.4 L0,0 "/>
<polyline class="StaffLines" fill="none" stroke="#000000" stroke-width="2.73" stroke-linejoin="bevel" points="212.598,634.198 2764.6,634.198"/>
<polyline class="StaffLines" fill="none" stroke="#000000" stroke-width="2.73" stroke-linejoin="bevel" points="212.598,658.998 2764.6,658.998"/>
<polyline class="StaffLines" fill="none" stroke="#000000" stroke-width="2.73" stroke-linejoin="bevel" points="212.598,683.798 2764.6,683.798"/>
<polyline class="StaffLines" fill="none" stroke="#000000" stroke-width="2.73" stroke-linejoin="bevel" points="212.598,708.598 2764.6,708.598"/>
<polyline class="StaffLines" fill="none" stroke="#000000" stroke-width="2.73" stroke-linejoin="bevel" points="212.598,733.398 2764.6,733.398"/>
<polyline class="StaffLines" fill="none" stroke="#000000" stroke-width="2.73" stroke-linejoin="bevel" points="212.598,1105.4 2764.6,1105.4"/>
<polyline class="StaffLines" fill="none" stroke="#000000" stroke-width="2.73" stroke-linejoin="bevel" points="212.598,1130.2 2764.6,1130.2"/>
<polyline class="StaffLines" fill="none" stroke="#000000" stroke-width="2.73" stroke-linejoin="bevel" points="212.598,1155 2764.6,1155"/>
<polyline class="StaffLines" fill="none" stroke="#000000" stroke-width="2.73" stroke-linejoin="bevel" points="212.598,1179.8 2764.6,1179.8"/>
<polyline class="StaffLines" fill="none" stroke="#000000" stroke-width="2.73" stroke-linejoin="bevel" points="212.598,1204.6 2764.6,1204.6"/>
<path class="Text" d="M1113.47,229.327 C1107.42,231.417 1100.49,232.847 1091.03,234.057 L1091.03,223.497 C1091.03,218.437 1091.14,216.347 1091.58,213.267 L1083.44,213.267 C1083.88,216.567 1083.99,219.317 1083.99,223.717 L1083.99,234.607 C1080.69,234.827 1076.4,234.937 1073.43,234.937 C1068.48,234.937 1065.4,234.717 1062.21,234.167 L1062.21,241.427 C1063.09,241.427 1063.75,241.427 1064.19,241.427 C1064.52,241.427 1065.4,241.427 1066.72,241.427 C1067.93,241.537 1070.9,241.537 1072.55,241.537 C1075.74,241.537 1077.61,241.537 1079.59,241.427 C1083,241.207 1083,241.207 1083.99,241.097 L1083.99,261.887 C1077.06,264.857 1072.55,267.497 1068.48,270.907 C1062.54,275.967 1059.79,280.697 1059.79,285.537 C1059.79,289.497 1061.44,292.907 1064.85,295.877 C1069.69,300.167 1076.84,302.917 1083,302.917 C1088.39,302.917 1091.03,300.057 1091.03,294.117 L1091.03,266.617 C1100.27,263.647 1107.31,262.327 1114.35,262.327 C1128.76,262.327 1137.89,269.037 1137.89,279.817 C1137.89,288.837 1131.73,295.327 1123.15,295.327 C1115.12,295.327 1111.82,290.597 1111.82,279.157 C1111.82,277.837 1111.82,276.847 1112.04,274.867 C1109.29,276.407 1108.19,276.847 1104.78,277.727 C1104.67,283.227 1105.11,286.527 1106.1,290.157 C1108.19,298.077 1114.35,302.587 1123.04,302.587 C1135.69,302.587 1145.48,292.687 1145.48,279.817 C1145.48,271.677 1141.41,264.637 1134.15,260.347 C1129.09,257.267 1122.49,255.727 1114.68,255.727 C1107.31,255.727 1100.6,256.827 1091.03,259.687 L1091.03,240.657 C1096.2,240.107 1101.48,239.227 1110.5,237.357 C1112.04,237.027 1112.48,236.917 1113.8,236.697 L1113.47,229.327 M1083.99,290.047 C1083.99,294.777 1083.66,295.437 1081.46,295.437 C1078.6,295.437 1074.64,294.117 1071.67,292.247 C1068.48,290.157 1066.94,287.957 1066.94,285.647 C1066.94,280.367 1073.1,274.427 1083.99,269.147 L1083.99,290.047 M1150.1,243.517 C1143.5,235.047 1138,229.767 1127.88,222.617 L1122.16,226.907 C1130.74,232.737 1138.55,240.327 1144.38,248.467 L1150.1,243.517 M1172.65,264.967 C1173.97,265.077 1174.3,265.077 1176.06,265.627 C1181.01,266.837 1186.07,267.717 1192.67,268.377 C1192.56,269.367 1192.56,269.367 1192.45,271.017 C1192.12,273.767 1192.01,275.967 1192.01,278.277 C1192.01,284.547 1193.22,289.827 1195.42,293.457 C1199.71,300.497 1208.51,304.457 1220.06,304.457 C1239.31,304.457 1252.29,294.007 1252.29,278.497 C1252.29,270.467 1249.76,265.077 1241.95,256.607 C1238.76,258.037 1237.55,258.367 1233.92,258.807 C1240.96,264.857 1244.37,271.017 1244.37,277.947 C1244.37,289.607 1234.8,297.197 1220.06,297.197 C1213.35,297.197 1208.07,295.547 1204.55,292.467 C1201.14,289.497 1199.49,285.317 1199.49,279.267 C1199.49,277.397 1199.71,273.767 1199.93,271.127 C1200.04,269.697 1200.04,269.697 1200.04,268.927 C1204.99,269.147 1206.75,269.147 1209.5,269.147 C1214.67,269.147 1219.4,268.927 1225.01,268.267 C1226.55,268.157 1226.88,268.157 1227.98,268.047 L1228.2,260.677 C1223.91,261.777 1215.88,262.437 1207.96,262.437 C1206.42,262.437 1204.88,262.437 1200.7,262.327 C1201.36,256.167 1201.47,255.067 1203.23,242.417 C1209.28,242.637 1211.15,242.637 1212.91,242.637 C1216.1,242.637 1219.4,242.527 1222.81,242.197 C1228.31,241.757 1228.31,241.757 1230.51,241.537 L1230.84,233.947 C1225.89,235.157 1218.96,235.817 1210.71,235.817 C1208.95,235.817 1207.41,235.817 1204.33,235.707 C1204.88,232.627 1205.1,231.527 1205.43,229.107 C1206.42,223.057 1206.42,223.057 1206.53,222.067 C1207.3,218.107 1207.63,216.787 1208.29,214.697 L1199.49,213.707 C1199.49,214.147 1199.49,214.367 1199.49,214.587 C1199.49,217.447 1198.61,224.707 1196.85,235.267 C1189.15,234.607 1181.78,232.957 1177.05,230.977 L1176.06,238.237 C1177.6,238.567 1178.04,238.677 1179.47,239.007 C1185.96,240.547 1190.69,241.317 1195.86,241.977 C1194.98,247.807 1193.88,256.387 1193.33,261.777 C1184.97,260.787 1178.04,259.357 1173.64,257.377 L1172.65,264.967 M1281.99,238.237 C1282.32,238.237 1282.65,238.237 1282.87,238.237 C1283.53,238.237 1284.52,238.237 1285.95,238.347 C1292.33,238.787 1297.17,239.007 1304.21,239.117 C1300.47,252.097 1294.2,267.497 1289.47,274.977 L1297.39,278.167 C1299.59,275.307 1302.12,273.327 1306.63,271.127 C1314.11,267.387 1323.68,265.187 1332.15,265.187 C1345.35,265.187 1353.27,270.247 1353.27,278.607 C1353.27,289.167 1341.83,296.097 1324.45,296.097 C1314.44,296.097 1305.53,294.337 1296.95,290.597 C1297.28,294.117 1297.5,296.097 1297.5,296.647 C1297.5,296.757 1297.5,296.867 1297.5,297.307 C1297.5,297.637 1297.5,298.297 1297.39,299.067 C1306.19,302.037 1314.77,303.357 1324.56,303.357 C1346.78,303.357 1361.41,293.567 1361.41,278.607 C1361.41,266.287 1350.3,258.367 1332.92,258.367 C1320.93,258.367 1308.61,261.887 1300.91,267.607 L1300.8,267.387 C1303.88,262.327 1308.72,249.787 1311.8,239.117 C1328.41,238.567 1337.21,237.907 1352.61,235.927 C1354.92,235.597 1355.58,235.597 1357.45,235.377 L1356.9,227.457 C1349.75,229.877 1335.12,231.417 1313.56,232.187 C1314.66,228.227 1314.99,226.907 1316.53,220.527 C1317.74,215.137 1317.74,215.137 1318.29,213.487 L1309.49,212.607 C1309.38,217.557 1308.28,223.717 1305.97,232.297 C1294.42,232.297 1287.38,231.747 1282.21,230.427 L1281.99,238.237 M1398.26,267.607 C1400.79,266.177 1402.11,265.627 1414.76,261.337 C1419.16,275.307 1425.32,301.927 1425.65,308.967 L1433.46,307.207 C1432.58,304.897 1432.36,304.127 1431.26,299.067 C1428.62,286.527 1426.53,278.057 1422.79,265.407 C1421.91,262.437 1421.36,260.347 1421.03,259.357 C1426.75,257.597 1430.38,256.497 1431.81,256.167 C1438.74,254.297 1445.78,253.197 1450.73,253.197 C1458.65,253.197 1463.6,257.267 1463.6,263.647 C1463.6,270.687 1457.77,275.527 1449.3,275.527 C1443.91,275.527 1439.29,274.207 1433.79,271.127 C1434.45,274.317 1434.56,275.527 1434.56,276.957 C1434.56,277.287 1434.56,277.837 1434.45,278.607 C1440.83,281.137 1444.57,282.017 1449.52,282.017 C1461.62,282.017 1470.53,274.317 1470.53,263.647 C1470.53,253.747 1462.94,247.037 1451.83,247.037 C1449.41,247.037 1447.76,247.147 1444.35,247.477 C1444.57,235.267 1444.57,235.267 1444.9,233.177 L1437.64,233.177 C1437.97,235.487 1437.97,235.817 1437.97,248.467 C1431.7,249.787 1426.42,251.107 1419.27,253.527 C1418.61,251.657 1418.61,251.657 1418.06,249.787 C1415.97,243.627 1415.97,243.627 1415.53,242.417 C1414.21,238.347 1414.21,238.347 1413.88,236.697 L1406.4,239.007 C1407.94,241.427 1409.59,245.937 1412.89,255.397 C1405.85,257.597 1402,258.807 1401.23,259.137 C1397.82,260.237 1397.49,260.347 1395.73,260.677 L1398.26,267.607 M1549.84,228.887 C1555.34,229.107 1558.53,229.877 1562.6,231.637 C1573.71,236.587 1580.09,246.707 1580.09,259.247 C1580.09,272.777 1572.72,284.547 1560.62,290.047 C1555.45,292.467 1550.28,293.897 1542.25,295.217 C1544.34,297.857 1545,298.957 1546.1,302.587 C1553.69,300.937 1557.87,299.617 1562.82,297.527 C1578.77,290.707 1588.01,276.627 1588.01,259.577 C1588.01,249.017 1584.27,239.447 1577.34,232.737 C1570.19,225.697 1559.41,221.847 1547.09,221.847 C1532.35,221.847 1520.36,226.797 1511.56,236.477 C1504.19,244.727 1500.01,255.617 1500.01,266.837 C1500.01,282.237 1507.82,293.677 1518.27,293.677 C1526.19,293.677 1532.68,287.077 1539.06,272.557 C1544.01,261.007 1548.19,244.177 1549.84,228.887 M1541.92,228.997 C1540.49,243.077 1536.42,259.357 1531.91,269.697 C1527.18,280.477 1522.78,285.647 1518.16,285.647 C1512.22,285.647 1507.6,277.507 1507.6,266.947 C1507.6,253.307 1514.42,240.877 1525.53,234.167 C1530.59,231.087 1535.32,229.547 1541.92,228.997"/>
<path class="Text" d="M1624.42,255.507 C1640.92,268.817 1657.31,286.857 1667.32,302.807 L1674.03,297.197 C1666.66,287.407 1662.15,281.687 1657.97,277.177 C1671.83,265.957 1683.49,252.757 1694.27,235.927 C1696.58,232.407 1697.35,231.417 1698.67,230.097 L1694.05,224.597 C1692.29,225.257 1691.74,225.367 1687.89,225.367 L1623.76,225.367 C1617.38,225.367 1614.74,225.257 1610.89,224.707 L1610.89,233.397 C1614.63,233.067 1617.71,232.957 1623.65,232.957 C1684.92,232.847 1684.92,232.847 1686.46,232.737 C1686.02,233.397 1685.91,233.507 1685.58,234.057 C1680.96,241.647 1673.48,251.547 1667.43,257.927 C1663.36,262.217 1657.53,267.497 1652.8,271.457 C1642.79,261.227 1638.72,257.487 1630.47,250.667 L1624.42,255.507 M1714.06,264.087 C1717.36,263.757 1719.67,263.647 1727.7,263.647 L1791.5,263.647 C1798.87,263.647 1801.4,263.757 1804.92,264.087 L1804.92,255.177 C1801.51,255.617 1799.75,255.727 1791.61,255.727 L1727.7,255.727 C1720.22,255.727 1717.25,255.617 1714.06,255.067 L1714.06,264.087 M1898.53,214.917 C1895.01,217.117 1892.15,218.327 1885.99,220.197 C1871.91,224.377 1853.87,227.127 1839.79,227.127 C1838.14,227.127 1836.49,227.127 1833.41,226.907 C1835.06,230.427 1835.39,231.417 1836.05,234.277 C1852.22,233.617 1861.68,232.627 1868.61,231.197 C1868.61,240.877 1868.5,247.037 1868.28,251.877 L1836.71,251.877 C1830.44,251.877 1828.79,251.767 1825.16,251.107 L1825.16,259.467 C1829.12,259.027 1831.1,258.917 1836.71,258.917 L1867.62,258.917 C1866.85,268.377 1864.98,274.427 1860.91,280.477 C1855.52,288.617 1847.16,294.777 1835.17,299.397 C1838.14,301.817 1839.13,302.917 1841.11,306.217 C1854.53,299.727 1862.78,292.797 1868.5,283.227 C1872.68,276.297 1874.77,269.257 1875.65,258.917 L1902.6,258.917 C1908.21,258.917 1910.19,259.027 1914.15,259.467 L1914.15,251.107 C1910.52,251.767 1908.87,251.877 1902.6,251.877 L1876.2,251.877 C1876.31,247.587 1876.42,240.437 1876.53,229.877 C1885.22,228.117 1892.7,225.917 1900.73,223.057 C1902.82,222.287 1902.82,222.287 1904.14,221.957 L1898.53,214.917 "/>
<path class="MeasureNumber" d="M228.053,1042.12 C227.053,1046.76 224.373,1054.72 218.653,1054.72 C217.493,1054.72 216.733,1054.24 216.733,1053.52 C216.733,1053.24 216.813,1053.12 217.133,1052.64 C217.533,1052.12 217.733,1051.64 217.733,1051.08 C217.733,1049.76 216.693,1048.76 215.333,1048.76 C213.733,1048.76 212.613,1049.96 212.613,1051.72 C212.613,1054.44 215.173,1056.4 218.733,1056.4 C227.493,1056.4 233.093,1045.2 233.093,1037.6 C233.093,1031.36 230.093,1027.64 225.133,1027.64 C219.173,1027.64 214.733,1033.12 214.733,1038.84 C214.733,1042.64 217.653,1045.52 221.533,1045.52 C224.173,1045.52 226.213,1044.44 228.053,1042.12 M225.093,1029.32 C227.653,1029.32 229.293,1031.36 229.293,1034.56 C229.293,1039.52 226.573,1043.16 222.893,1043.16 C220.373,1043.16 218.973,1041.44 218.973,1038.44 C218.973,1034.84 220.693,1029.32 225.093,1029.32"/>
<polyline class="BarLine" fill="none" stroke="#000000" stroke-width="4.46" stroke-linejoin="bevel" points="1327.15,632.834 1327.15,734.762"/>
<polyline class="BarLine" fill="none" stroke="#000000" stroke-width="4.46" stroke-linejoin="bevel" points="701.516,632.834 701.516,734.762"/>
<polyline class="BarLine" fill="none" stroke="#000000" stroke-width="4.46" stroke-linejoin="bevel" points="1584.74,632.834 1584.74,734.762"/>
<polyline class="BarLine" fill="none" stroke="#000000" stroke-width="4.46" stroke-linejoin="bevel" points="961.385,1104.03 961.385,1205.96"/>
<polyline class="BarLine" fill="none" stroke="#000000" stroke-width="4.46" stroke-linejoin="bevel" points="1915.96,632.834 1915.96,734.762"/>
<polyline class="BarLine" fill="none" stroke="#000000" stroke-width="4.46" stroke-linejoin="bevel" points="1888.02,1104.03 1888.02,1205.96"/>
<polyline class="BarLine" fill="none" stroke="#000000" stroke-width="4.46" stroke-linejoin="bevel" points="995.923,632.834 995.923,734.762"/>
<polyline class="BarLine" fill="none" stroke="#000000" stroke-width="4.46" stroke-linejoin="bevel" points="2247.18,632.834 2247.18,734.762"/>
<polyline class="BarLine" fill="none" stroke="#000000" stroke-width="4.46" stroke-linejoin="bevel" points="664.879,1104.03 664.879,1205.96"/>
<polyline class="BarLine" fill="none" stroke="#000000" stroke-width="4.46" stroke-linejoin="bevel" points="2504.78,632.834 2504.78,734.762"/>
<polyline class="BarLine" fill="none" stroke="#000000" stroke-width="4.46" stroke-linejoin="bevel" points="2740.42,1104.03 2740.42,1205.96"/>
<polyline class="BarLine" fill="none" stroke="#000000" stroke-width="13.64" stroke-linejoin="bevel" points="2757.78,1104.03 2757.78,1205.96"/>
<polyline class="BarLine" fill="none" stroke="#000000" stroke-width="4.46" stroke-linejoin="bevel" points="1295.01,1104.03 1295.01,1205.96"/>
<polyline class="BarLine" fill="none" stroke="#000000" stroke-width="4.46" stroke-linejoin="bevel" points="2481.03,1104.03 2481.03,1205.96"/>
<polyline class="BarLine" fill="none" stroke="#000000" stroke-width="4.46" stroke-linejoin="bevel" points="1554.4,1104.03 1554.4,1205.96"/>
<polyline class="BarLine" fill="none" stroke="#000000" stroke-width="4.46" stroke-linejoin="bevel" points="2762.37,632.834 2762.37,734.762"/>
<polyline class="BarLine" fill="none" stroke="#000000" stroke-width="4.46" stroke-linejoin="bevel" points="2221.64,1104.03 2221.64,1205.96"/>
<polyline class="LedgerLine" fill="none" stroke="#000000" stroke-width="3.97" stroke-linejoin="bevel" points="505.509,1229.4 555.094,1229.4"/>
<polyline class="LedgerLine" fill="none" stroke="#000000" stroke-width="3.97" stroke-linejoin="bevel" points="616.974,758.198 666.559,758.198"/>
<polyline class="LedgerLine" fill="none" stroke="#000000" stroke-width="3.97" stroke-linejoin="bevel" points="579.738,1229.4 629.323,1229.4"/>
<polyline class="LedgerLine" fill="none" stroke="#000000" stroke-width="3.97" stroke-linejoin="bevel" points="837.752,758.198 887.337,758.198"/>
<polyline class="LedgerLine" fill="none" stroke="#000000" stroke-width="3.97" stroke-linejoin="bevel" points="543.344,758.198 592.929,758.198"/>
<polyline class="LedgerLine" fill="none" stroke="#000000" stroke-width="3.97" stroke-linejoin="bevel" points="911.382,758.198 960.966,758.198"/>
<polyline class="LedgerLine" fill="none" stroke="#000000" stroke-width="3.97" stroke-linejoin="bevel" points="802.015,1229.4 851.6,1229.4"/>
<polyline class="LedgerLine" fill="none" stroke="#000000" stroke-width="3.97" stroke-linejoin="bevel" points="876.244,1229.4 925.829,1229.4"/>
<polyline class="Stem" fill="none" stroke="#000000" stroke-width="2.73" stroke-linejoin="bevel" points="1249.41,1175.83 1249.41,1105.29"/>
<polyline class="Stem" fill="none" stroke="#000000" stroke-width="2.73" stroke-linejoin="bevel" points="2422.96,704.63 2422.96,621.798"/>
<polyline class="Stem" fill="none" stroke="#000000" stroke-width="2.73" stroke-linejoin="bevel" points="1175.18,1163.43 1175.18,1099.31"/>
<polyline class="Stem" fill="none" stroke="#000000" stroke-width="2.73" stroke-linejoin="bevel" points="1100.95,1175.83 1100.95,1105.51"/>
<polyline class="Stem" fill="none" stroke="#000000" stroke-width="2.73" stroke-linejoin="bevel" points="1026.72,1188.23 1026.72,1111.49"/>
<polyline class="Stem" fill="none" stroke="#000000" stroke-width="2.73" stroke-linejoin="bevel" points="1362.98,675.565 1362.98,751.998"/>
<polyline class="Stem" fill="none" stroke="#000000" stroke-width="2.73" stroke-linejoin="bevel" points="472.44,717.03 472.44,634.198"/>
<polyline class="Stem" fill="none" stroke="#000000" stroke-width="2.73" stroke-linejoin="bevel" points="2176.04,1175.83 2176.04,1105.29"/>
<polyline class="Stem" fill="none" stroke="#000000" stroke-width="2.73" stroke-linejoin="bevel" points="915.785,1225.43 915.785,1155"/>
<polyline class="Stem" fill="none" stroke="#000000" stroke-width="2.73" stroke-linejoin="bevel" points="2101.81,1163.43 2101.81,1099.31"/>
<polyline class="Stem" fill="none" stroke="#000000" stroke-width="2.73" stroke-linejoin="bevel" points="1208.52,692.23 1208.52,628.109"/>
<polyline class="Stem" fill="none" stroke="#000000" stroke-width="2.73" stroke-linejoin="bevel" points="1330.84,1146.76 1330.84,1223.2"/>
<polyline class="Stem" fill="none" stroke="#000000" stroke-width="2.73" stroke-linejoin="bevel" points="1620.57,675.565 1620.57,739.488"/>
<polyline class="Stem" fill="none" stroke="#000000" stroke-width="2.73" stroke-linejoin="bevel" points="841.556,1225.43 841.556,1155"/>
<polyline class="Stem" fill="none" stroke="#000000" stroke-width="2.73" stroke-linejoin="bevel" points="730.212,1188.23 730.212,1105.4"/>
<polyline class="Stem" fill="none" stroke="#000000" stroke-width="2.73" stroke-linejoin="bevel" points="2027.58,1151.03 2027.58,1086.91"/>
<polyline class="Stem" fill="none" stroke="#000000" stroke-width="2.73" stroke-linejoin="bevel" points="1694.2,663.165 1694.2,733.509"/>
<polyline class="Stem" fill="none" stroke="#000000" stroke-width="2.73" stroke-linejoin="bevel" points="2546.36,1188.23 2546.36,1105.4"/>
<polyline class="Stem" fill="none" stroke="#000000" stroke-width="2.73" stroke-linejoin="bevel" points="1767.83,675.565 1767.83,745.909"/>
<polyline class="Stem" fill="none" stroke="#000000" stroke-width="2.73" stroke-linejoin="bevel" points="582.885,754.23 582.885,683.798"/>
<polyline class="Stem" fill="none" stroke="#000000" stroke-width="2.73" stroke-linejoin="bevel" points="619.279,1225.43 619.279,1155"/>
<polyline class="Stem" fill="none" stroke="#000000" stroke-width="2.73" stroke-linejoin="bevel" points="1953.35,1163.43 1953.35,1092.89"/>
<polyline class="Stem" fill="none" stroke="#000000" stroke-width="2.73" stroke-linejoin="bevel" points="1841.46,687.965 1841.46,751.888"/>
<polyline class="Stem" fill="none" stroke="#000000" stroke-width="2.73" stroke-linejoin="bevel" points="656.515,754.23 656.515,683.798"/>
<polyline class="Stem" fill="none" stroke="#000000" stroke-width="2.73" stroke-linejoin="bevel" points="1134.89,704.63 1134.89,634.309"/>
<polyline class="Stem" fill="none" stroke="#000000" stroke-width="2.73" stroke-linejoin="bevel" points="2286.97,1213.03 2286.97,1130.2"/>
<polyline class="Stem" fill="none" stroke="#000000" stroke-width="2.73" stroke-linejoin="bevel" points="1981.29,692.23 1981.29,621.688"/>
<polyline class="Stem" fill="none" stroke="#000000" stroke-width="2.73" stroke-linejoin="bevel" points="766.848,717.03 766.848,634.198"/>
<polyline class="Stem" fill="none" stroke="#000000" stroke-width="2.73" stroke-linejoin="bevel" points="545.05,1225.43 545.05,1155"/>
<polyline class="Stem" fill="none" stroke="#000000" stroke-width="2.73" stroke-linejoin="bevel" points="1061.26,717.03 1061.26,640.288"/>
<polyline class="Stem" fill="none" stroke="#000000" stroke-width="2.73" stroke-linejoin="bevel" points="2054.92,679.83 2054.92,615.709"/>
<polyline class="Stem" fill="none" stroke="#000000" stroke-width="2.73" stroke-linejoin="bevel" points="1590.23,1146.76 1590.23,1210.69"/>
<polyline class="Stem" fill="none" stroke="#000000" stroke-width="2.73" stroke-linejoin="bevel" points="2128.55,692.23 2128.55,628.109"/>
<polyline class="Stem" fill="none" stroke="#000000" stroke-width="2.73" stroke-linejoin="bevel" points="433.706,1188.23 433.706,1105.4"/>
<polyline class="Stem" fill="none" stroke="#000000" stroke-width="2.73" stroke-linejoin="bevel" points="877.293,754.23 877.293,683.798"/>
<polyline class="Stem" fill="none" stroke="#000000" stroke-width="2.73" stroke-linejoin="bevel" points="1812.92,1159.16 1812.92,1223.09"/>
<polyline class="Stem" fill="none" stroke="#000000" stroke-width="2.73" stroke-linejoin="bevel" points="2202.18,704.63 2202.18,634.088"/>
<polyline class="Stem" fill="none" stroke="#000000" stroke-width="2.73" stroke-linejoin="bevel" points="1664.46,1134.36 1664.46,1204.71"/>
<polyline class="Stem" fill="none" stroke="#000000" stroke-width="2.73" stroke-linejoin="bevel" points="2570.11,692.23 2570.11,615.598"/>
<polyline class="Stem" fill="none" stroke="#000000" stroke-width="2.73" stroke-linejoin="bevel" points="950.922,754.23 950.922,683.798"/>
<polyline class="Stem" fill="none" stroke="#000000" stroke-width="2.73" stroke-linejoin="bevel" points="2312.52,717.03 2312.52,634.198"/>
<polyline class="Stem" fill="none" stroke="#000000" stroke-width="2.73" stroke-linejoin="bevel" points="2398.31,1200.63 2398.31,1117.8"/>
<polyline class="Stem" fill="none" stroke="#000000" stroke-width="2.73" stroke-linejoin="bevel" points="1282.14,704.63 1282.14,634.088"/>
<polyline class="Stem" fill="none" stroke="#000000" stroke-width="2.73" stroke-linejoin="bevel" points="1738.69,1146.76 1738.69,1217.11"/>
<path class="Note" transform="matrix(0.992,0,0,0.992,1663.1,1130.2)" d="M0,4.2 C0,8.5 3.1,13.3 11.2,13.3 C21.6,13.3 32.5,4.8 32.5,-4 C32.5,-9.9 27.5,-13.2 21.3,-13.2 C11.6,-13.2 0,-5 0,4.2"/>
<path class="Note" transform="matrix(0.992,0,0,0.992,1218.54,1179.8)" d="M0,4.2 C0,8.5 3.1,13.3 11.2,13.3 C21.6,13.3 32.5,4.8 32.5,-4 C32.5,-9.9 27.5,-13.2 21.3,-13.2 C11.6,-13.2 0,-5 0,4.2"/>
<path class="Note" transform="matrix(0.992,0,0,0.992,2256.11,1217)" d="M0,4.2 C0,8.5 3.1,13.3 11.2,13.3 C21.6,13.3 32.5,4.8 32.5,-4 C32.5,-9.9 27.5,-13.2 21.3,-13.2 C11.6,-13.2 0,-5 0,4.2"/>
<path class="Note" transform="matrix(0.992,0,0,0.992,1737.33,1142.6)" d="M0,4.2 C0,8.5 3.1,13.3 11.2,13.3 C21.6,13.3 32.5,4.8 32.5,-4 C32.5,-9.9 27.5,-13.2 21.3,-13.2 C11.6,-13.2 0,-5 0,4.2"/>
<path class="Note" transform="matrix(0.992,0,0,0.992,2281.66,720.998)" d="M0,4.2 C0,8.5 3.1,13.3 11.2,13.3 C21.6,13.3 32.5,4.8 32.5,-4 C32.5,-9.9 27.5,-13.2 21.3,-13.2 C11.6,-13.2 0,-5 0,4.2"/>
<path class="Note" transform="matrix(0.992,0,0,0.992,920.062,758.198)" d="M0,4.2 C0,8.5 3.1,13.3 11.2,13.3 C21.6,13.3 32.5,4.8 32.5,-4 C32.5,-9.9 27.5,-13.2 21.3,-13.2 C11.6,-13.2 0,-5 0,4.2"/>
<path class="Note" transform="matrix(0.992,0,0,0.992,2539.25,696.198)" d="M0,4.2 C0,8.5 3.1,13.3 11.2,13.3 C21.6,13.3 32.5,4.8 32.5,-4 C32.5,-9.9 27.5,-13.2 21.3,-13.2 C11.6,-13.2 0,-5 0,4.2"/>
<path class="Note" transform="matrix(0.992,0,0,0.992,2171.32,708.598)" d="M0,4.2 C0,8.5 3.1,13.3 11.2,13.3 C21.6,13.3 32.5,4.8 32.5,-4 C32.5,-9.9 27.5,-13.2 21.3,-13.2 C11.6,-13.2 0,-5 0,4.2"/>
<path class="Note" transform="matrix(0.992,0,0,0.992,846.432,758.198)" d="M0,4.2 C0,8.5 3.1,13.3 11.2,13.3 C21.6,13.3 32.5,4.8 32.5,-4 C32.5,-9.9 27.5,-13.2 21.3,-13.2 C11.6,-13.2 0,-5 0,4.2"/>
<path class="Note" transform="matrix(0.992,0,0,0.992,1811.56,1155)" d="M0,4.2 C0,8.5 3.1,13.3 11.2,13.3 C21.6,13.3 32.5,4.8 32.5,-4 C32.5,-9.9 27.5,-13.2 21.3,-13.2 C11.6,-13.2 0,-5 0,4.2"/>
<path class="Note" transform="matrix(0.992,0,0,0.992,1588.87,1142.6)" d="M0,4.2 C0,8.5 3.1,13.3 11.2,13.3 C21.6,13.3 32.5,4.8 32.5,-4 C32.5,-9.9 27.5,-13.2 21.3,-13.2 C11.6,-13.2 0,-5 0,4.2"/>
<path class="Note" transform="matrix(0.992,0,0,0.992,2367.45,1204.6)" d="M0,4.2 C0,8.5 3.1,13.3 11.2,13.3 C21.6,13.3 32.5,4.8 32.5,-4 C32.5,-9.9 27.5,-13.2 21.3,-13.2 C11.6,-13.2 0,-5 0,4.2"/>
<path class="Note" transform="matrix(0.992,0,0,0.992,735.988,720.998)" d="M0,4.2 C0,8.5 3.1,13.3 11.2,13.3 C21.6,13.3 32.5,4.8 32.5,-4 C32.5,-9.9 27.5,-13.2 21.3,-13.2 C11.6,-13.2 0,-5 0,4.2"/>
<path class="Note" transform="matrix(0.992,0,0,0.992,1144.32,1167.4)" d="M0,4.2 C0,8.5 3.1,13.3 11.2,13.3 C21.6,13.3 32.5,4.8 32.5,-4 C32.5,-9.9 27.5,-13.2 21.3,-13.2 C11.6,-13.2 0,-5 0,4.2"/>
<path class="Note" transform="matrix(0.992,0,0,0.992,1251.28,708.598)" d="M0,4.2 C0,8.5 3.1,13.3 11.2,13.3 C21.6,13.3 32.5,4.8 32.5,-4 C32.5,-9.9 27.5,-13.2 21.3,-13.2 C11.6,-13.2 0,-5 0,4.2"/>
<path class="Note" transform="matrix(0.992,0,0,0.992,2097.69,696.198)" d="M0,4.2 C0,8.5 3.1,13.3 11.2,13.3 C21.6,13.3 32.5,4.8 32.5,-4 C32.5,-9.9 27.5,-13.2 21.3,-13.2 C11.6,-13.2 0,-5 0,4.2"/>
<path class="Note" transform="matrix(0.992,0,0,0.992,402.845,1192.2)" d="M0,4.2 C0,8.5 3.1,13.3 11.2,13.3 C21.6,13.3 32.5,4.8 32.5,-4 C32.5,-9.9 27.5,-13.2 21.3,-13.2 C11.6,-13.2 0,-5 0,4.2"/>
<path class="Note" transform="matrix(0.992,0,0,0.992,2024.06,683.798)" d="M0,4.2 C0,8.5 3.1,13.3 11.2,13.3 C21.6,13.3 32.5,4.8 32.5,-4 C32.5,-9.9 27.5,-13.2 21.3,-13.2 C11.6,-13.2 0,-5 0,4.2"/>
<path class="Note" transform="matrix(0.992,0,0,0.992,1030.4,720.998)" d="M0,4.2 C0,8.5 3.1,13.3 11.2,13.3 C21.6,13.3 32.5,4.8 32.5,-4 C32.5,-9.9 27.5,-13.2 21.3,-13.2 C11.6,-13.2 0,-5 0,4.2"/>
<path class="Note" transform="matrix(0.992,0,0,0.992,1950.43,696.198)" d="M0,4.2 C0,8.5 3.1,13.3 11.2,13.3 C21.6,13.3 32.5,4.8 32.5,-4 C32.5,-9.9 27.5,-13.2 21.3,-13.2 C11.6,-13.2 0,-5 0,4.2"/>
<path class="Note" transform="matrix(0.992,0,0,0.992,514.189,1229.4)" d="M0,4.2 C0,8.5 3.1,13.3 11.2,13.3 C21.6,13.3 32.5,4.8 32.5,-4 C32.5,-9.9 27.5,-13.2 21.3,-13.2 C11.6,-13.2 0,-5 0,4.2"/>
<path class="Note" transform="matrix(0.992,0,0,0.992,625.654,758.198)" d="M0,4.2 C0,8.5 3.1,13.3 11.2,13.3 C21.6,13.3 32.5,4.8 32.5,-4 C32.5,-9.9 27.5,-13.2 21.3,-13.2 C11.6,-13.2 0,-5 0,4.2"/>
<path class="Note" transform="matrix(0.992,0,0,0.992,1840.1,683.798)" d="M0,4.2 C0,8.5 3.1,13.3 11.2,13.3 C21.6,13.3 32.5,4.8 32.5,-4 C32.5,-9.9 27.5,-13.2 21.3,-13.2 C11.6,-13.2 0,-5 0,4.2"/>
<path class="Note" transform="matrix(0.992,0,0,0.992,1922.49,1167.4)" d="M0,4.2 C0,8.5 3.1,13.3 11.2,13.3 C21.6,13.3 32.5,4.8 32.5,-4 C32.5,-9.9 27.5,-13.2 21.3,-13.2 C11.6,-13.2 0,-5 0,4.2"/>
<path class="Note" transform="matrix(0.992,0,0,0.992,552.024,758.198)" d="M0,4.2 C0,8.5 3.1,13.3 11.2,13.3 C21.6,13.3 32.5,4.8 32.5,-4 C32.5,-9.9 27.5,-13.2 21.3,-13.2 C11.6,-13.2 0,-5 0,4.2"/>
<path class="Note" transform="matrix(0.992,0,0,0.992,588.418,1229.4)" d="M0,4.2 C0,8.5 3.1,13.3 11.2,13.3 C21.6,13.3 32.5,4.8 32.5,-4 C32.5,-9.9 27.5,-13.2 21.3,-13.2 C11.6,-13.2 0,-5 0,4.2"/>
<path class="Note" transform="matrix(0.992,0,0,0.992,1766.47,671.398)" d="M0,4.2 C0,8.5 3.1,13.3 11.2,13.3 C21.6,13.3 32.5,4.8 32.5,-4 C32.5,-9.9 27.5,-13.2 21.3,-13.2 C11.6,-13.2 0,-5 0,4.2"/>
<path class="Note" transform="matrix(0.992,0,0,0.992,1692.84,658.998)" d="M0,4.2 C0,8.5 3.1,13.3 11.2,13.3 C21.6,13.3 32.5,4.8 32.5,-4 C32.5,-9.9 27.5,-13.2 21.3,-13.2 C11.6,-13.2 0,-5 0,4.2"/>
<path class="Note" transform="matrix(0.992,0,0,0.992,1996.72,1155)" d="M0,4.2 C0,8.5 3.1,13.3 11.2,13.3 C21.6,13.3 32.5,4.8 32.5,-4 C32.5,-9.9 27.5,-13.2 21.3,-13.2 C11.6,-13.2 0,-5 0,4.2"/>
<path class="Note" transform="matrix(0.992,0,0,0.992,699.351,1192.2)" d="M0,4.2 C0,8.5 3.1,13.3 11.2,13.3 C21.6,13.3 32.5,4.8 32.5,-4 C32.5,-9.9 27.5,-13.2 21.3,-13.2 C11.6,-13.2 0,-5 0,4.2"/>
<path class="Note" transform="matrix(0.992,0,0,0.992,1329.48,1142.6)" d="M0,4.2 C0,8.5 3.1,13.3 11.2,13.3 C21.6,13.3 32.5,4.8 32.5,-4 C32.5,-9.9 27.5,-13.2 21.3,-13.2 C11.6,-13.2 0,-5 0,4.2"/>
<path class="Note" transform="matrix(0.992,0,0,0.992,1619.21,671.398)" d="M0,4.2 C0,8.5 3.1,13.3 11.2,13.3 C21.6,13.3 32.5,4.8 32.5,-4 C32.5,-9.9 27.5,-13.2 21.3,-13.2 C11.6,-13.2 0,-5 0,4.2"/>
<path class="Note" transform="matrix(0.992,0,0,0.992,2515.5,1192.2)" d="M0,4.2 C0,8.5 3.1,13.3 11.2,13.3 C21.6,13.3 32.5,4.8 32.5,-4 C32.5,-9.9 27.5,-13.2 21.3,-13.2 C11.6,-13.2 0,-5 0,4.2"/>
<path class="Note" transform="matrix(0.992,0,0,0.992,810.695,1229.4)" d="M0,4.2 C0,8.5 3.1,13.3 11.2,13.3 C21.6,13.3 32.5,4.8 32.5,-4 C32.5,-9.9 27.5,-13.2 21.3,-13.2 C11.6,-13.2 0,-5 0,4.2"/>
<path class="Note" transform="matrix(0.992,0,0,0.992,1104.02,708.598)" d="M0,4.2 C0,8.5 3.1,13.3 11.2,13.3 C21.6,13.3 32.5,4.8 32.5,-4 C32.5,-9.9 27.5,-13.2 21.3,-13.2 C11.6,-13.2 0,-5 0,4.2"/>
<path class="Note" transform="matrix(0.992,0,0,0.992,441.58,720.998)" d="M0,4.2 C0,8.5 3.1,13.3 11.2,13.3 C21.6,13.3 32.5,4.8 32.5,-4 C32.5,-9.9 27.5,-13.2 21.3,-13.2 C11.6,-13.2 0,-5 0,4.2"/>
<path class="Note" transform="matrix(0.992,0,0,0.992,2070.95,1167.4)" d="M0,4.2 C0,8.5 3.1,13.3 11.2,13.3 C21.6,13.3 32.5,4.8 32.5,-4 C32.5,-9.9 27.5,-13.2 21.3,-13.2 C11.6,-13.2 0,-5 0,4.2"/>
<path class="Note" transform="matrix(0.992,0,0,0.992,1361.62,671.398)" d="M0,4.2 C0,8.5 3.1,13.3 11.2,13.3 C21.6,13.3 32.5,4.8 32.5,-4 C32.5,-9.9 27.5,-13.2 21.3,-13.2 C11.6,-13.2 0,-5 0,4.2"/>
<path class="Note" transform="matrix(0.992,0,0,0.992,884.924,1229.4)" d="M0,4.2 C0,8.5 3.1,13.3 11.2,13.3 C21.6,13.3 32.5,4.8 32.5,-4 C32.5,-9.9 27.5,-13.2 21.3,-13.2 C11.6,-13.2 0,-5 0,4.2"/>
<path class="Note" transform="matrix(0.992,0,0,0.992,1070.09,1179.8)" d="M0,4.2 C0,8.5 3.1,13.3 11.2,13.3 C21.6,13.3 32.5,4.8 32.5,-4 C32.5,-9.9 27.5,-13.2 21.3,-13.2 C11.6,-13.2 0,-5 0,4.2"/>
<path class="Note" transform="matrix(0.992,0,0,0.992,2145.18,1179.8)" d="M0,4.2 C0,8.5 3.1,13.3 11.2,13.3 C21.6,13.3 32.5,4.8 32.5,-4 C32.5,-9.9 27.5,-13.2 21.3,-13.2 C11.6,-13.2 0,-5 0,4.2"/>
<path class="Note" transform="matrix(0.992,0,0,0.992,1177.65,696.198)" d="M0,4.2 C0,8.5 3.1,13.3 11.2,13.3 C21.6,13.3 32.5,4.8 32.5,-4 C32.5,-9.9 27.5,-13.2 21.3,-13.2 C11.6,-13.2 0,-5 0,4.2"/>
<path class="Note" transform="matrix(0.992,0,0,0.992,995.857,1192.2)" d="M0,4.2 C0,8.5 3.1,13.3 11.2,13.3 C21.6,13.3 32.5,4.8 32.5,-4 C32.5,-9.9 27.5,-13.2 21.3,-13.2 C11.6,-13.2 0,-5 0,4.2"/>
<path class="Note" transform="matrix(0.992,0,0,0.992,2392.1,708.598)" d="M0,4.2 C0,8.5 3.1,13.3 11.2,13.3 C21.6,13.3 32.5,4.8 32.5,-4 C32.5,-9.9 27.5,-13.2 21.3,-13.2 C11.6,-13.2 0,-5 0,4.2"/>
<path class="Clef" transform="matrix(0.992,0,0,0.992,232.438,708.598)" d="M12.3,51.3 C12.3,57.9 17.3,66.6 30.8,66.6 C35.5,66.6 39.6,65.4 43.2,63.2 C48.6,59.4 50,52.8 50,46.5 C50,42.6 49.4,38.1 48.4,32.4 C48.1,30.4 47.5,27.4 46.9,23.5 C56.7,20.3 64,10.1 64,-0.2 C64,-15.3 53.3,-25.5 38.7,-25.5 C37.7,-31.5 36.7,-37.4 35.9,-43 C46.4,-54.1 53.7,-66.6 53.7,-82.5 C53.7,-91.6 50.9,-99 49.3,-102.6 C46.9,-107.7 44,-111.2 42.2,-111.2 C41.5,-111.2 38.4,-110 35.1,-106.1 C28.7,-98.5 26.9,-85.7 26.9,-77.3 C26.9,-71.9 27.4,-67 29.1,-55.8 C29,-55.7 23.8,-50.4 21.7,-48.7 C12.6,-40.3 0,-28.1 0,-8.1 C0,10.6 16.3,25.3 34.9,25.3 C37.8,25.3 40.5,25 42.8,24.6 C44.7,34.2 45.9,41.2 45.9,46.5 C45.9,56.9 40.5,62.4 30.4,62.4 C28,62.4 25.9,61.9 25.7,61.9 C25.6,61.8 25.4,61.7 25.4,61.6 C25.4,61.4 25.6,61.3 25.9,61.3 C30.6,60.5 35.3,56.5 35.3,50.1 C35.3,44.7 31.2,39 23.7,39 C16.7,39 12.3,44.7 12.3,51.3 M33.2,-82.2 C34.1,-86.2 38.7,-96.7 43.9,-96.7 C45.4,-96.7 47.8,-91.9 47.8,-84.9 C47.8,-74.5 40.1,-66.7 33.2,-59.9 C32.6,-63.9 32.1,-67.8 32.1,-72 C32.1,-75.7 32.4,-79.1 33.2,-82.2 M42,20.6 C40,21 38.1,21.2 36.2,21.2 C21.9,21.2 9.7,11.2 9.7,-3.9 C9.7,-16.1 18.3,-27 27.1,-34.6 C28.8,-36.1 30.4,-37.5 31.9,-39 C32.8,-33.6 33.5,-28.9 34.2,-24.8 C25.1,-22.1 18.9,-12.5 18.9,-3.1 C18.9,3.9 24.4,13.5 32.4,13.5 C33.2,13.5 34.1,13.1 34.1,12.2 C34.1,11.3 33.1,10.8 31.9,10 C28,7.6 25.8,5 25.8,0.1 C25.8,-6 30.4,-10.9 36.2,-12.3 L42,20.6 M56.2,2.1 C56.2,9.2 53.3,16.5 46.2,19.4 C44.1,7.4 41.4,-8.5 40.7,-12.9 C49.7,-12.9 56.2,-6.8 56.2,2.1"/>
<path class="Clef" transform="matrix(0.992,0,0,0.992,232.438,1179.8)" d="M12.3,51.3 C12.3,57.9 17.3,66.6 30.8,66.6 C35.5,66.6 39.6,65.4 43.2,63.2 C48.6,59.4 50,52.8 50,46.5 C50,42.6 49.4,38.1 48.4,32.4 C48.1,30.4 47.5,27.4 46.9,23.5 C56.7,20.3 64,10.1 64,-0.2 C64,-15.3 53.3,-25.5 38.7,-25.5 C37.7,-31.5 36.7,-37.4 35.9,-43 C46.4,-54.1 53.7,-66.6 53.7,-82.5 C53.7,-91.6 50.9,-99 49.3,-102.6 C46.9,-107.7 44,-111.2 42.2,-111.2 C41.5,-111.2 38.4,-110 35.1,-106.1 C28.7,-98.5 26.9,-85.7 26.9,-77.3 C26.9,-71.9 27.4,-67 29.1,-55.8 C29,-55.7 23.8,-50.4 21.7,-48.7 C12.6,-40.3 0,-28.1 0,-8.1 C0,10.6 16.3,25.3 34.9,25.3 C37.8,25.3 40.5,25 42.8,24.6 C44.7,34.2 45.9,41.2 45.9,46.5 C45.9,56.9 40.5,62.4 30.4,62.4 C28,62.4 25.9,61.9 25.7,61.9 C25.6,61.8 25.4,61.7 25.4,61.6 C25.4,61.4 25.6,61.3 25.9,61.3 C30.6,60.5 35.3,56.5 35.3,50.1 C35.3,44.7 31.2,39 23.7,39 C16.7,39 12.3,44.7 12.3,51.3 M33.2,-82.2 C34.1,-86.2 38.7,-96.7 43.9,-96.7 C45.4,-96.7 47.8,-91.9 47.8,-84.9 C47.8,-74.5 40.1,-66.7 33.2,-59.9 C32.6,-63.9 32.1,-67.8 32.1,-72 C32.1,-75.7 32.4,-79.1 33.2,-82.2 M42,20.6 C40,21 38.1,21.2 36.2,21.2 C21.9,21.2 9.7,11.2 9.7,-3.9 C9.7,-16.1 18.3,-27 27.1,-34.6 C28.8,-36.1 30.4,-37.5 31.9,-39 C32.8,-33.6 33.5,-28.9 34.2,-24.8 C25.1,-22.1 18.9,-12.5 18.9,-3.1 C18.9,3.9 24.4,13.5 32.4,13.5 C33.2,13.5 34.1,13.1 34.1,12.2 C34.1,11.3 33.1,10.8 31.9,10 C28,7.6 25.8,5 25.8,0.1 C25.8,-6 30.4,-10.9 36.2,-12.3 L42,20.6 M56.2,2.1 C56.2,9.2 53.3,16.5 46.2,19.4 C44.1,7.4 41.4,-8.5 40.7,-12.9 C49.7,-12.9 56.2,-6.8 56.2,2.1"/>
<path class="KeySig" transform="matrix(0.992,0,0,0.992,320.711,683.798)" d="M12,-15.5 C7,-15.5 4.1,-12.4 3.6,-11.8 L4,-43.9 C4,-44.7 3.4,-45.3 2.6,-45.3 L1.4,-45.3 C0.6,-45.3 0,-44.7 0,-43.9 L0.5,16.2 C0.5,17 1.1,17.6 1.9,17.6 C2.1,17.6 2.5,17.5 2.7,17.4 C11.3,13.1 20.3,4.9 20.3,-5.4 C20.3,-10.6 17.9,-15.5 12,-15.5 M3.3,12.7 L3.6,-6.8 C3.8,-7.7 5.3,-10.6 9.3,-10.6 C12.9,-10.6 13.2,-7.2 13.2,-5.1 C13.2,3.8 9.9,7.5 3.3,12.7"/>
<path class="KeySig" transform="matrix(0.992,0,0,0.992,320.711,1155)" d="M12,-15.5 C7,-15.5 4.1,-12.4 3.6,-11.8 L4,-43.9 C4,-44.7 3.4,-45.3 2.6,-45.3 L1.4,-45.3 C0.6,-45.3 0,-44.7 0,-43.9 L0.5,16.2 C0.5,17 1.1,17.6 1.9,17.6 C2.1,17.6 2.5,17.5 2.7,17.4 C11.3,13.1 20.3,4.9 20.3,-5.4 C20.3,-10.6 17.9,-15.5 12,-15.5 M3.3,12.7 L3.6,-6.8 C3.8,-7.7 5.3,-10.6 9.3,-10.6 C12.9,-10.6 13.2,-7.2 13.2,-5.1 C13.2,3.8 9.9,7.5 3.3,12.7"/>
<path class="TimeSig" transform="matrix(0.992,0,0,0.992,367.536,659.494)" d="M34.2,3.9 C33.4,6.1 31.4,13.3 26.5,13.3 C20,13.3 18.6,9.3 13.2,9.3 C12.4,9.3 11.6,9.4 10.6,9.6 C10.6,9.6 13.1,5.8 23.7,2.5 C34.3,-0.8 37,-6 37,-12 C37,-16.2 35.1,-24.5 20,-24.5 C4.9,-24.5 2.1,-15.4 2.1,-10.8 C2.1,-6.7 5.5,-3.4 9.6,-3.4 C13.7,-3.4 17,-6.7 17,-10.8 C17,-13.6 15,-16.7 12.4,-17.7 C12.1,-17.8 11.7,-18.3 11.7,-18.8 C11.7,-19.4 12.2,-20.1 14,-20.6 C14.5,-20.8 15.9,-21.1 17.4,-21.1 C23.1,-21.1 24.2,-17.6 24.2,-12.5 C24.2,-0.8 10.3,1.7 4.5,10.4 C4.5,10.4 1.5,14.6 1.5,19.3 C1.5,24 3.9,24.3 5.1,24.3 C6.7,24.3 8.4,23 8.4,21.2 C8.4,20.8 8.3,20.4 8.1,19.9 C7.5,18.5 7.3,17.4 7.3,16.6 C7.3,16.3 7.3,16 7.4,15.7 C7.5,15.1 8.3,14.1 10.7,14.1 C13.6,14.1 14.7,17.5 16.5,20.1 C18.3,22.7 21.1,24.3 24.3,24.3 C27.5,24.3 31.8,22 33.6,18.3 C35.4,14.6 37.7,7.1 37.7,4.4 C37.7,3.1 36.9,2.5 36,2.5 C35.3,2.5 34.6,2.9 34.2,3.9"/>
<path class="TimeSig" transform="matrix(0.992,0,0,0.992,364.266,708.598)" d="M20.8,12.7 L20.8,20.1 L12.5,20.1 C11.8,20.1 11.1,20.7 11.1,21.5 L11.1,23.4 C11.1,24.2 11.8,24.8 12.5,24.8 L42.8,24.8 C43.6,24.8 44.2,24.2 44.2,23.4 L44.2,21.5 C44.2,20.7 43.6,20.1 42.8,20.1 L33.9,20.1 L33.9,12.7 L42.8,12.7 C43.6,12.7 44.2,12 44.2,11.2 L44.2,9.3 C44.2,8.6 43.6,7.9 42.8,7.9 L33.9,7.9 L33.9,-8 C33.9,-8.6 33.6,-9.1 33.1,-9.3 L31.9,-9.9 C31.7,-10 31.4,-10.1 31.2,-10.1 C30.9,-10 30.5,-9.9 30.3,-9.7 L21.2,-1.4 C20.9,-1.1 20.8,-0.7 20.8,-0.3 L20.8,7.9 L9.3,7.9 C9.3,7.9 20.4,-4.1 32.2,-19.9 C32.6,-20.4 32.7,-20.9 32.7,-21.3 C32.7,-21.8 32.5,-22.2 32.4,-22.3 L30.2,-24.5 C30,-24.7 29.6,-24.9 29.2,-24.9 C28.6,-24.9 15.1,-24.9 14.4,-24.9 C13.6,-24.9 13.1,-24.3 13,-23.7 C13,-23.7 12.5,-16.3 9.9,-8.2 C7.3,-0.1 4.3,4.9 1.7,8.6 C1.7,8.6 1.4,9.1 1.4,9.7 C1.4,9.9 1.4,10.1 1.5,10.3 C1.9,11 2.5,12.1 2.5,12.1 C2.5,12.1 2.7,12.7 3.6,12.7 L20.8,12.7 "/>
<path class="Rest" transform="matrix(0.992,0,0,0.992,2649.69,683.798)" d="M23,16.6 C22.9,16.5 22.7,16.3 22.4,15.9 L10.9,1.7 C10.8,1.6 10.7,1.3 10.7,1.1 C10.7,0.8 10.8,0.4 10.9,0.2 L21.1,-15.2 C21.2,-15.4 21.3,-15.7 21.3,-15.9 L21.3,-16.8 C21.3,-17.1 21.2,-17.4 21,-17.6 L4.8,-39.5 C4.8,-39.5 4.4,-40.1 3.8,-40.1 C3.5,-40.1 3.3,-40.1 3,-39.8 C2.6,-39.5 2.5,-39.1 2.5,-38.8 C2.5,-38.2 2.8,-37.7 2.8,-37.7 L10.4,-27.3 C10.6,-27 10.7,-26.6 10.7,-26.1 C10.7,-25.7 10.6,-25.2 10.4,-24.9 L0.3,-9.5 C0.2,-9.3 0.1,-8.9 0.1,-8.7 L0.1,-7.8 C0.1,-7.5 0.2,-7.2 0.4,-7 L11.6,6.9 C11.2,6.8 10.3,6.6 9.1,6.6 C4,6.6 0,10.8 0,15.9 C0,17.3 0.3,18.7 1.1,19.8 C3.2,23 10.7,32.5 10.7,32.5 C10.7,32.5 11.2,33.1 11.9,33.1 C12.1,33.1 12.3,33.1 12.5,32.9 C13,32.5 13.2,32.1 13.2,31.7 C13.2,31.3 13,31 12.9,30.8 C12.6,30.3 9.4,24.5 9.4,24.5 C9.4,24.5 8.7,23.1 8.7,21.3 C8.7,18.1 11.1,15.5 14.3,15.5 C15.6,15.5 16.7,15.9 17.5,16.4 L21.4,18.9 C21.4,18.9 21.8,19.1 22.2,19.1 C22.6,19.1 22.9,19 23.2,18.6 C23.4,18.3 23.5,18 23.5,17.7 C23.5,17.4 23.4,17.2 23.2,16.9 L23,16.6 "/>
<path class="Rest" transform="matrix(0.992,0,0,0.992,2626.85,1155)" d="M23,16.6 C22.9,16.5 22.7,16.3 22.4,15.9 L10.9,1.7 C10.8,1.6 10.7,1.3 10.7,1.1 C10.7,0.8 10.8,0.4 10.9,0.2 L21.1,-15.2 C21.2,-15.4 21.3,-15.7 21.3,-15.9 L21.3,-16.8 C21.3,-17.1 21.2,-17.4 21,-17.6 L4.8,-39.5 C4.8,-39.5 4.4,-40.1 3.8,-40.1 C3.5,-40.1 3.3,-40.1 3,-39.8 C2.6,-39.5 2.5,-39.1 2.5,-38.8 C2.5,-38.2 2.8,-37.7 2.8,-37.7 L10.4,-27.3 C10.6,-27 10.7,-26.6 10.7,-26.1 C10.7,-25.7 10.6,-25.2 10.4,-24.9 L0.3,-9.5 C0.2,-9.3 0.1,-8.9 0.1,-8.7 L0.1,-7.8 C0.1,-7.5 0.2,-7.2 0.4,-7 L11.6,6.9 C11.2,6.8 10.3,6.6 9.1,6.6 C4,6.6 0,10.8 0,15.9 C0,17.3 0.3,18.7 1.1,19.8 C3.2,23 10.7,32.5 10.7,32.5 C10.7,32.5 11.2,33.1 11.9,33.1 C12.1,33.1 12.3,33.1 12.5,32.9 C13,32.5 13.2,32.1 13.2,31.7 C13.2,31.3 13,31 12.9,30.8 C12.6,30.3 9.4,24.5 9.4,24.5 C9.4,24.5 8.7,23.1 8.7,21.3 C8.7,18.1 11.1,15.5 14.3,15.5 C15.6,15.5 16.7,15.9 17.5,16.4 L21.4,18.9 C21.4,18.9 21.8,19.1 22.2,19.1 C22.6,19.1 22.9,19 23.2,18.6 C23.4,18.3 23.5,18 23.5,17.7 C23.5,17.4 23.4,17.2 23.2,16.9 L23,16.6 "/>
<path class="Rest" transform="matrix(0.992,0,0,0.992,1440.82,1155)" d="M23,16.6 C22.9,16.5 22.7,16.3 22.4,15.9 L10.9,1.7 C10.8,1.6 10.7,1.3 10.7,1.1 C10.7,0.8 10.8,0.4 10.9,0.2 L21.1,-15.2 C21.2,-15.4 21.3,-15.7 21.3,-15.9 L21.3,-16.8 C21.3,-17.1 21.2,-17.4 21,-17.6 L4.8,-39.5 C4.8,-39.5 4.4,-40.1 3.8,-40.1 C3.5,-40.1 3.3,-40.1 3,-39.8 C2.6,-39.5 2.5,-39.1 2.5,-38.8 C2.5,-38.2 2.8,-37.7 2.8,-37.7 L10.4,-27.3 C10.6,-27 10.7,-26.6 10.7,-26.1 C10.7,-25.7 10.6,-25.2 10.4,-24.9 L0.3,-9.5 C0.2,-9.3 0.1,-8.9 0.1,-8.7 L0.1,-7.8 C0.1,-7.5 0.2,-7.2 0.4,-7 L11.6,6.9 C11.2,6.8 10.3,6.6 9.1,6.6 C4,6.6 0,10.8 0,15.9 C0,17.3 0.3,18.7 1.1,19.8 C3.2,23 10.7,32.5 10.7,32.5 C10.7,32.5 11.2,33.1 11.9,33.1 C12.1,33.1 12.3,33.1 12.5,32.9 C13,32.5 13.2,32.1 13.2,31.7 C13.2,31.3 13,31 12.9,30.8 C12.6,30.3 9.4,24.5 9.4,24.5 C9.4,24.5 8.7,23.1 8.7,21.3 C8.7,18.1 11.1,15.5 14.3,15.5 C15.6,15.5 16.7,15.9 17.5,16.4 L21.4,18.9 C21.4,18.9 21.8,19.1 22.2,19.1 C22.6,19.1 22.9,19 23.2,18.6 C23.4,18.3 23.5,18 23.5,17.7 C23.5,17.4 23.4,17.2 23.2,16.9 L23,16.6 "/>
<path class="Rest" transform="matrix(0.992,0,0,0.992,1472.06,683.798)" d="M23,16.6 C22.9,16.5 22.7,16.3 22.4,15.9 L10.9,1.7 C10.8,1.6 10.7,1.3 10.7,1.1 C10.7,0.8 10.8,0.4 10.9,0.2 L21.1,-15.2 C21.2,-15.4 21.3,-15.7 21.3,-15.9 L21.3,-16.8 C21.3,-17.1 21.2,-17.4 21,-17.6 L4.8,-39.5 C4.8,-39.5 4.4,-40.1 3.8,-40.1 C3.5,-40.1 3.3,-40.1 3,-39.8 C2.6,-39.5 2.5,-39.1 2.5,-38.8 C2.5,-38.2 2.8,-37.7 2.8,-37.7 L10.4,-27.3 C10.6,-27 10.7,-26.6 10.7,-26.1 C10.7,-25.7 10.6,-25.2 10.4,-24.9 L0.3,-9.5 C0.2,-9.3 0.1,-8.9 0.1,-8.7 L0.1,-7.8 C0.1,-7.5 0.2,-7.2 0.4,-7 L11.6,6.9 C11.2,6.8 10.3,6.6 9.1,6.6 C4,6.6 0,10.8 0,15.9 C0,17.3 0.3,18.7 1.1,19.8 C3.2,23 10.7,32.5 10.7,32.5 C10.7,32.5 11.2,33.1 11.9,33.1 C12.1,33.1 12.3,33.1 12.5,32.9 C13,32.5 13.2,32.1 13.2,31.7 C13.2,31.3 13,31 12.9,30.8 C12.6,30.3 9.4,24.5 9.4,24.5 C9.4,24.5 8.7,23.1 8.7,21.3 C8.7,18.1 11.1,15.5 14.3,15.5 C15.6,15.5 16.7,15.9 17.5,16.4 L21.4,18.9 C21.4,18.9 21.8,19.1 22.2,19.1 C22.6,19.1 22.9,19 23.2,18.6 C23.4,18.3 23.5,18 23.5,17.7 C23.5,17.4 23.4,17.2 23.2,16.9 L23,16.6 "/>
<path class="Beam" fill-rule="evenodd" d="M1737.33,1210.78 L1814.28,1216.98 L1814.28,1229.42 L1737.33,1223.22 L1737.33,1210.78 "/>
<path class="Beam" fill-rule="evenodd" d="M1173.81,1092.98 L1250.77,1099.18 L1250.77,1111.62 L1173.81,1105.42 L1173.81,1092.98 "/>
<path class="Beam" fill-rule="evenodd" d="M1025.35,1105.38 L1102.31,1099.18 L1102.31,1111.62 L1025.35,1117.82 L1025.35,1105.38 "/>
<path class="Beam" fill-rule="evenodd" d="M840.192,1148.8 L917.149,1148.8 L917.149,1161.2 L840.192,1161.2 L840.192,1148.8 "/>
<path class="Beam" fill-rule="evenodd" d="M581.521,677.598 L657.879,677.598 L657.879,689.998 L581.521,689.998 L581.521,677.598 "/>
<path class="Beam" fill-rule="evenodd" d="M875.929,677.598 L952.286,677.598 L952.286,689.998 L875.929,689.998 L875.929,677.598 "/>
<path class="Beam" fill-rule="evenodd" d="M1059.89,634.178 L1136.25,627.978 L1136.25,640.419 L1059.89,646.619 L1059.89,634.178 "/>
<path class="Beam" fill-rule="evenodd" d="M1207.15,621.778 L1283.51,627.978 L1283.51,640.419 L1207.15,634.219 L1207.15,621.778 "/>
<path class="Beam" fill-rule="evenodd" d="M543.686,1148.8 L620.643,1148.8 L620.643,1161.2 L543.686,1161.2 L543.686,1148.8 "/>
<path class="Beam" fill-rule="evenodd" d="M2100.44,1092.98 L2177.4,1099.18 L2177.4,1111.62 L2100.44,1105.42 L2100.44,1092.98 "/>
<path class="Beam" fill-rule="evenodd" d="M1588.87,1204.58 L1665.83,1198.38 L1665.83,1210.82 L1588.87,1217.02 L1588.87,1204.58 "/>
<path class="Beam" fill-rule="evenodd" d="M1619.21,733.378 L1695.57,727.178 L1695.57,739.619 L1619.21,745.819 L1619.21,733.378 "/>
<path class="Beam" fill-rule="evenodd" d="M1951.99,1086.78 L2028.94,1080.58 L2028.94,1093.02 L1951.99,1099.22 L1951.99,1086.78 "/>
<path class="Beam" fill-rule="evenodd" d="M1766.47,739.578 L1842.83,745.778 L1842.83,758.219 L1766.47,752.019 L1766.47,739.578 "/>
<path class="Beam" fill-rule="evenodd" d="M1979.93,615.578 L2056.29,609.378 L2056.29,621.819 L1979.93,628.019 L1979.93,615.578 "/>
<path class="Beam" fill-rule="evenodd" d="M2127.19,621.778 L2203.55,627.978 L2203.55,640.419 L2127.19,634.219 L2127.19,621.778 "/>
<path class="Harmony" d="M1177.04,1003.69 L1144.32,1003.69 L1144.32,1006.27 L1145.31,1006.27 C1148.44,1006.33 1149.49,1006.49 1149.93,1007.04 C1150.26,1007.54 1150.26,1007.65 1150.26,1010.45 L1150.26,1036.63 C1150.26,1039.44 1150.26,1039.55 1149.93,1040.04 C1149.49,1040.59 1148.44,1040.81 1145.31,1040.81 L1144.32,1040.81 L1144.32,1043.4 L1163.18,1043.4 L1163.18,1040.81 L1161.37,1040.81 C1158.23,1040.81 1157.19,1040.59 1156.75,1040.04 C1156.42,1039.55 1156.42,1039.38 1156.42,1036.63 L1156.42,1024.15 L1157.52,1024.15 C1163.18,1023.93 1165.22,1025.96 1165.44,1032.07 L1168.02,1032.07 L1168.02,1014.03 L1165.44,1014.03 C1165.11,1019.42 1162.96,1021.51 1157.74,1021.56 L1156.42,1021.56 L1156.42,1009.02 C1156.36,1006.71 1156.91,1006.33 1159.88,1006.27 L1162.41,1006.27 C1171.43,1006.22 1173.69,1008.25 1175.39,1017.71 L1177.81,1017.71 L1177.04,1003.69 "/>
<path class="Harmony" d="M1028.58,1003.69 L995.859,1003.69 L995.859,1006.27 L996.849,1006.27 C999.984,1006.33 1001.03,1006.49 1001.47,1007.04 C1001.8,1007.54 1001.8,1007.65 1001.8,1010.45 L1001.8,1036.63 C1001.8,1039.44 1001.8,1039.55 1001.47,1040.04 C1001.03,1040.59 999.984,1040.81 996.849,1040.81 L995.859,1040.81 L995.859,1043.4 L1014.72,1043.4 L1014.72,1040.81 L1012.91,1040.81 C1009.77,1040.81 1008.73,1040.59 1008.29,1040.04 C1007.96,1039.55 1007.96,1039.38 1007.96,1036.63 L1007.96,1024.15 L1009.06,1024.15 C1014.72,1023.93 1016.76,1025.96 1016.98,1032.07 L1019.56,1032.07 L1019.56,1014.03 L1016.98,1014.03 C1016.65,1019.42 1014.5,1021.51 1009.28,1021.56 L1007.96,1021.56 L1007.96,1009.02 C1007.9,1006.71 1008.45,1006.33 1011.42,1006.27 L1013.95,1006.27 C1022.97,1006.22 1025.23,1008.25 1026.93,1017.71 L1029.35,1017.71 L1028.58,1003.69 "/>
<path class="Harmony" d="M2130.42,532.488 L2097.69,532.488 L2097.69,535.073 L2098.68,535.073 C2101.82,535.128 2102.86,535.293 2103.3,535.843 C2103.63,536.338 2103.63,536.448 2103.63,539.253 L2103.63,565.433 C2103.63,568.238 2103.63,568.348 2103.3,568.843 C2102.86,569.393 2101.82,569.613 2098.68,569.613 L2097.69,569.613 L2097.69,572.198 L2116.56,572.198 L2116.56,569.613 L2114.74,569.613 C2111.61,569.613 2110.56,569.393 2110.12,568.843 C2109.79,568.348 2109.79,568.183 2109.79,565.433 L2109.79,552.948 L2110.89,552.948 C2116.56,552.728 2118.59,554.763 2118.81,560.868 L2121.4,560.868 L2121.4,542.828 L2118.81,542.828 C2118.48,548.218 2116.34,550.308 2111.11,550.363 L2109.79,550.363 L2109.79,537.823 C2109.74,535.513 2110.29,535.128 2113.26,535.073 L2115.79,535.073 C2124.81,535.018 2127.06,537.053 2128.77,546.513 L2131.19,546.513 L2130.42,532.488 "/>
<path class="Harmony" d="M2314.38,532.488 L2281.66,532.488 L2281.66,535.073 L2282.65,535.073 C2285.78,535.128 2286.83,535.293 2287.27,535.843 C2287.6,536.338 2287.6,536.448 2287.6,539.253 L2287.6,565.433 C2287.6,568.238 2287.6,568.348 2287.27,568.843 C2286.83,569.393 2285.78,569.613 2282.65,569.613 L2281.66,569.613 L2281.66,572.198 L2300.52,572.198 L2300.52,569.613 L2298.71,569.613 C2295.57,569.613 2294.53,569.393 2294.09,568.843 C2293.76,568.348 2293.76,568.183 2293.76,565.433 L2293.76,552.948 L2294.86,552.948 C2300.52,552.728 2302.56,554.763 2302.78,560.868 L2305.36,560.868 L2305.36,542.828 L2302.78,542.828 C2302.45,548.218 2300.3,550.308 2295.08,550.363 L2293.76,550.363 L2293.76,537.823 C2293.7,535.513 2294.25,535.128 2297.22,535.073 L2299.75,535.073 C2308.77,535.018 2311.03,537.053 2312.73,546.513 L2315.15,546.513 L2314.38,532.488 "/>
<path class="Harmony" d="M1983.16,532.488 L1950.43,532.488 L1950.43,535.073 L1951.42,535.073 C1954.56,535.128 1955.6,535.293 1956.04,535.843 C1956.37,536.338 1956.37,536.448 1956.37,539.253 L1956.37,565.433 C1956.37,568.238 1956.37,568.348 1956.04,568.843 C1955.6,569.393 1954.56,569.613 1951.42,569.613 L1950.43,569.613 L1950.43,572.198 L1969.3,572.198 L1969.3,569.613 L1967.48,569.613 C1964.35,569.613 1963.3,569.393 1962.86,568.843 C1962.53,568.348 1962.53,568.183 1962.53,565.433 L1962.53,552.948 L1963.63,552.948 C1969.3,552.728 1971.33,554.763 1971.55,560.868 L1974.14,560.868 L1974.14,542.828 L1971.55,542.828 C1971.22,548.218 1969.08,550.308 1963.85,550.363 L1962.53,550.363 L1962.53,537.823 C1962.48,535.513 1963.03,535.128 1966,535.073 L1968.53,535.073 C1977.55,535.018 1979.8,537.053 1981.51,546.513 L1983.93,546.513 L1983.16,532.488 "/>
<path class="Harmony" d="M2424.78,532.103 L2422.69,532.103 L2420.49,535.348 C2416.47,532.433 2414.44,531.663 2410.64,531.663 C2405.42,531.663 2400.96,533.863 2397.28,538.263 C2393.76,542.443 2392.11,547.063 2392.11,552.728 C2392.11,564.608 2399.86,573.023 2410.7,573.023 C2419.5,573.023 2425.11,567.853 2426.37,558.613 L2423.79,558.173 C2422.3,566.368 2418.12,570.438 2411.36,570.438 C2403.22,570.438 2399.37,564.828 2399.37,552.948 C2399.37,546.678 2400.19,542.553 2402.06,539.253 C2403.77,536.173 2407.12,534.248 2410.7,534.248 C2414.55,534.248 2417.96,536.283 2420.05,539.803 C2421.09,541.618 2421.86,543.653 2423.18,547.998 L2425.6,547.998 L2424.78,532.103 "/>
<path class="Harmony" d="M2435.03,546.788 L2437.45,547.173 L2438.44,542.828 C2439.27,539.198 2439.65,538.648 2441.25,538.648 C2441.52,538.648 2441.96,538.648 2442.46,538.703 C2449.22,539.033 2449.22,539.033 2451.75,539.033 C2452.47,539.033 2453.73,539.033 2455.27,538.978 L2451.53,546.513 C2447.46,554.598 2446.97,555.588 2445.59,558.998 C2443.89,563.123 2443.01,566.588 2443.01,568.898 C2443.01,571.428 2444.33,572.968 2446.47,572.968 C2449.11,572.968 2450.16,571.208 2450.1,566.423 C2449.83,558.503 2450.82,554.653 2456.7,541.783 C2457.69,539.638 2458.74,537.438 2459.73,535.293 L2459.73,533.698 C2456.43,533.973 2454.67,534.083 2451.26,534.083 C2446.47,534.083 2442.68,533.918 2436.74,533.478 L2435.03,546.788 "/>
<path class="Harmony" d="M1799.2,532.488 L1766.47,532.488 L1766.47,535.073 L1767.46,535.073 C1770.6,535.128 1771.64,535.293 1772.08,535.843 C1772.41,536.338 1772.41,536.448 1772.41,539.253 L1772.41,565.433 C1772.41,568.238 1772.41,568.348 1772.08,568.843 C1771.64,569.393 1770.6,569.613 1767.46,569.613 L1766.47,569.613 L1766.47,572.198 L1785.34,572.198 L1785.34,569.613 L1783.52,569.613 C1780.39,569.613 1779.34,569.393 1778.9,568.843 C1778.57,568.348 1778.57,568.183 1778.57,565.433 L1778.57,552.948 L1779.67,552.948 C1785.34,552.728 1787.37,554.763 1787.59,560.868 L1790.18,560.868 L1790.18,542.828 L1787.59,542.828 C1787.26,548.218 1785.12,550.308 1779.89,550.363 L1778.57,550.363 L1778.57,537.823 C1778.52,535.513 1779.07,535.128 1782.04,535.073 L1784.57,535.073 C1793.59,535.018 1795.84,537.053 1797.55,546.513 L1799.97,546.513 L1799.2,532.488 "/>
<path class="Harmony" d="M2659.57,1003.69 L2626.85,1003.69 L2626.85,1006.27 L2627.84,1006.27 C2630.97,1006.33 2632.02,1006.49 2632.46,1007.04 C2632.79,1007.54 2632.79,1007.65 2632.79,1010.45 L2632.79,1036.63 C2632.79,1039.44 2632.79,1039.55 2632.46,1040.04 C2632.02,1040.59 2630.97,1040.81 2627.84,1040.81 L2626.85,1040.81 L2626.85,1043.4 L2645.71,1043.4 L2645.71,1040.81 L2643.9,1040.81 C2640.76,1040.81 2639.72,1040.59 2639.28,1040.04 C2638.95,1039.55 2638.95,1039.38 2638.95,1036.63 L2638.95,1024.15 L2640.05,1024.15 C2645.71,1023.93 2647.75,1025.96 2647.97,1032.07 L2650.55,1032.07 L2650.55,1014.03 L2647.97,1014.03 C2647.64,1019.42 2645.49,1021.51 2640.27,1021.56 L2638.95,1021.56 L2638.95,1009.02 C2638.89,1006.71 2639.44,1006.33 2642.41,1006.27 L2644.94,1006.27 C2653.96,1006.22 2656.22,1008.25 2657.92,1017.71 L2660.34,1017.71 L2659.57,1003.69 "/>
<path class="Harmony" d="M2571.97,532.488 L2539.25,532.488 L2539.25,535.073 L2540.24,535.073 C2543.37,535.128 2544.42,535.293 2544.86,535.843 C2545.19,536.338 2545.19,536.448 2545.19,539.253 L2545.19,565.433 C2545.19,568.238 2545.19,568.348 2544.86,568.843 C2544.42,569.393 2543.37,569.613 2540.24,569.613 L2539.25,569.613 L2539.25,572.198 L2558.11,572.198 L2558.11,569.613 L2556.3,569.613 C2553.16,569.613 2552.12,569.393 2551.68,568.843 C2551.35,568.348 2551.35,568.183 2551.35,565.433 L2551.35,552.948 L2552.45,552.948 C2558.11,552.728 2560.15,554.763 2560.37,560.868 L2562.95,560.868 L2562.95,542.828 L2560.37,542.828 C2560.04,548.218 2557.89,550.308 2552.67,550.363 L2551.35,550.363 L2551.35,537.823 C2551.29,535.513 2551.84,535.128 2554.81,535.073 L2557.34,535.073 C2566.36,535.018 2568.62,537.053 2570.32,546.513 L2572.74,546.513 L2571.97,532.488 "/>
<path class="Harmony" d="M1955.22,1003.69 L1922.49,1003.69 L1922.49,1006.27 L1923.48,1006.27 C1926.62,1006.33 1927.66,1006.49 1928.1,1007.04 C1928.43,1007.54 1928.43,1007.65 1928.43,1010.45 L1928.43,1036.63 C1928.43,1039.44 1928.43,1039.55 1928.1,1040.04 C1927.66,1040.59 1926.62,1040.81 1923.48,1040.81 L1922.49,1040.81 L1922.49,1043.4 L1941.36,1043.4 L1941.36,1040.81 L1939.54,1040.81 C1936.41,1040.81 1935.36,1040.59 1934.92,1040.04 C1934.59,1039.55 1934.59,1039.38 1934.59,1036.63 L1934.59,1024.15 L1935.69,1024.15 C1941.36,1023.93 1943.39,1025.96 1943.61,1032.07 L1946.2,1032.07 L1946.2,1014.03 L1943.61,1014.03 C1943.28,1019.42 1941.14,1021.51 1935.91,1021.56 L1934.59,1021.56 L1934.59,1009.02 C1934.54,1006.71 1935.09,1006.33 1938.06,1006.27 L1940.59,1006.27 C1949.61,1006.22 1951.86,1008.25 1953.57,1017.71 L1955.99,1017.71 L1955.22,1003.69 "/>
<path class="Harmony" d="M1651.94,532.488 L1619.21,532.488 L1619.21,535.073 L1620.2,535.073 C1623.34,535.128 1624.38,535.293 1624.82,535.843 C1625.15,536.338 1625.15,536.448 1625.15,539.253 L1625.15,565.433 C1625.15,568.238 1625.15,568.348 1624.82,568.843 C1624.38,569.393 1623.34,569.613 1620.2,569.613 L1619.21,569.613 L1619.21,572.198 L1638.08,572.198 L1638.08,569.613 L1636.26,569.613 C1633.13,569.613 1632.08,569.393 1631.64,568.843 C1631.31,568.348 1631.31,568.183 1631.31,565.433 L1631.31,552.948 L1632.41,552.948 C1638.08,552.728 1640.11,554.763 1640.33,560.868 L1642.92,560.868 L1642.92,542.828 L1640.33,542.828 C1640,548.218 1637.86,550.308 1632.63,550.363 L1631.31,550.363 L1631.31,537.823 C1631.26,535.513 1631.81,535.128 1634.78,535.073 L1637.31,535.073 C1646.33,535.018 1648.58,537.053 1650.29,546.513 L1652.71,546.513 L1651.94,532.488 "/>
<path class="Harmony" d="M1621.6,1003.69 L1588.87,1003.69 L1588.87,1006.27 L1589.86,1006.27 C1593,1006.33 1594.04,1006.49 1594.48,1007.04 C1594.81,1007.54 1594.81,1007.65 1594.81,1010.45 L1594.81,1036.63 C1594.81,1039.44 1594.81,1039.55 1594.48,1040.04 C1594.04,1040.59 1593,1040.81 1589.86,1040.81 L1588.87,1040.81 L1588.87,1043.4 L1607.74,1043.4 L1607.74,1040.81 L1605.92,1040.81 C1602.79,1040.81 1601.74,1040.59 1601.3,1040.04 C1600.97,1039.55 1600.97,1039.38 1600.97,1036.63 L1600.97,1024.15 L1602.07,1024.15 C1607.74,1023.93 1609.77,1025.96 1609.99,1032.07 L1612.58,1032.07 L1612.58,1014.03 L1609.99,1014.03 C1609.66,1019.42 1607.52,1021.51 1602.29,1021.56 L1600.97,1021.56 L1600.97,1009.02 C1600.92,1006.71 1601.47,1006.33 1604.44,1006.27 L1606.97,1006.27 C1615.99,1006.22 1618.24,1008.25 1619.95,1017.71 L1622.37,1017.71 L1621.6,1003.69 "/>
<path class="Harmony" d="M1504.74,532.103 L1502.65,532.103 L1500.45,535.348 C1496.43,532.433 1494.4,531.663 1490.6,531.663 C1485.38,531.663 1480.92,533.863 1477.24,538.263 C1473.72,542.443 1472.07,547.063 1472.07,552.728 C1472.07,564.608 1479.82,573.023 1490.66,573.023 C1499.46,573.023 1505.07,567.853 1506.33,558.613 L1503.75,558.173 C1502.26,566.368 1498.08,570.438 1491.32,570.438 C1483.18,570.438 1479.33,564.828 1479.33,552.948 C1479.33,546.678 1480.15,542.553 1482.02,539.253 C1483.73,536.173 1487.08,534.248 1490.66,534.248 C1494.51,534.248 1497.92,536.283 1500.01,539.803 C1501.05,541.618 1501.82,543.653 1503.14,547.998 L1505.56,547.998 L1504.74,532.103 "/>
<path class="Harmony" d="M1514.99,546.788 L1517.41,547.173 L1518.4,542.828 C1519.23,539.198 1519.61,538.648 1521.21,538.648 C1521.48,538.648 1521.92,538.648 1522.42,538.703 C1529.18,539.033 1529.18,539.033 1531.71,539.033 C1532.43,539.033 1533.69,539.033 1535.23,538.978 L1531.49,546.513 C1527.42,554.598 1526.93,555.588 1525.55,558.998 C1523.85,563.123 1522.97,566.588 1522.97,568.898 C1522.97,571.428 1524.29,572.968 1526.43,572.968 C1529.07,572.968 1530.12,571.208 1530.06,566.423 C1529.79,558.503 1530.78,554.653 1536.66,541.783 C1537.65,539.638 1538.7,537.438 1539.69,535.293 L1539.69,533.698 C1536.39,533.973 1534.63,534.083 1531.22,534.083 C1526.43,534.083 1522.64,533.918 1516.7,533.478 L1514.99,546.788 "/>
<path class="Harmony" d="M2682.42,532.488 L2649.69,532.488 L2649.69,535.073 L2650.68,535.073 C2653.82,535.128 2654.86,535.293 2655.3,535.843 C2655.63,536.338 2655.63,536.448 2655.63,539.253 L2655.63,565.433 C2655.63,568.238 2655.63,568.348 2655.3,568.843 C2654.86,569.393 2653.82,569.613 2650.68,569.613 L2649.69,569.613 L2649.69,572.198 L2668.56,572.198 L2668.56,569.613 L2666.74,569.613 C2663.61,569.613 2662.56,569.393 2662.12,568.843 C2661.79,568.348 2661.79,568.183 2661.79,565.433 L2661.79,552.948 L2662.89,552.948 C2668.56,552.728 2670.59,554.763 2670.81,560.868 L2673.4,560.868 L2673.4,542.828 L2670.81,542.828 C2670.48,548.218 2668.34,550.308 2663.11,550.363 L2661.79,550.363 L2661.79,537.823 C2661.74,535.513 2662.29,535.128 2665.26,535.073 L2667.79,535.073 C2676.81,535.018 2679.06,537.053 2680.77,546.513 L2683.19,546.513 L2682.42,532.488 "/>
<path class="Harmony" d="M435.572,1003.69 L402.847,1003.69 L402.847,1006.27 L403.837,1006.27 C406.972,1006.33 408.017,1006.49 408.457,1007.04 C408.787,1007.54 408.787,1007.65 408.787,1010.45 L408.787,1036.63 C408.787,1039.44 408.787,1039.55 408.457,1040.04 C408.017,1040.59 406.972,1040.81 403.837,1040.81 L402.847,1040.81 L402.847,1043.4 L421.712,1043.4 L421.712,1040.81 L419.897,1040.81 C416.762,1040.81 415.717,1040.59 415.277,1040.04 C414.947,1039.55 414.947,1039.38 414.947,1036.63 L414.947,1024.15 L416.047,1024.15 C421.712,1023.93 423.747,1025.96 423.967,1032.07 L426.552,1032.07 L426.552,1014.03 L423.967,1014.03 C423.637,1019.42 421.492,1021.51 416.267,1021.56 L414.947,1021.56 L414.947,1009.02 C414.892,1006.71 415.442,1006.33 418.412,1006.27 L420.942,1006.27 C429.962,1006.22 432.217,1008.25 433.922,1017.71 L436.342,1017.71 L435.572,1003.69 "/>
<path class="Harmony" d="M2103.67,1003.69 L2070.95,1003.69 L2070.95,1006.27 L2071.94,1006.27 C2075.07,1006.33 2076.12,1006.49 2076.56,1007.04 C2076.89,1007.54 2076.89,1007.65 2076.89,1010.45 L2076.89,1036.63 C2076.89,1039.44 2076.89,1039.55 2076.56,1040.04 C2076.12,1040.59 2075.07,1040.81 2071.94,1040.81 L2070.95,1040.81 L2070.95,1043.4 L2089.81,1043.4 L2089.81,1040.81 L2088,1040.81 C2084.86,1040.81 2083.82,1040.59 2083.38,1040.04 C2083.05,1039.55 2083.05,1039.38 2083.05,1036.63 L2083.05,1024.15 L2084.15,1024.15 C2089.81,1023.93 2091.85,1025.96 2092.07,1032.07 L2094.65,1032.07 L2094.65,1014.03 L2092.07,1014.03 C2091.74,1019.42 2089.59,1021.51 2084.37,1021.56 L2083.05,1021.56 L2083.05,1009.02 C2082.99,1006.71 2083.54,1006.33 2086.51,1006.27 L2089.04,1006.27 C2098.06,1006.22 2100.32,1008.25 2102.02,1017.71 L2104.44,1017.71 L2103.67,1003.69 "/>
<path class="Harmony" d="M1394.29,532.103 L1392.2,532.103 L1390,535.348 C1385.99,532.433 1383.95,531.663 1380.16,531.663 C1374.93,531.663 1370.48,533.863 1366.79,538.263 C1363.27,542.443 1361.62,547.063 1361.62,552.728 C1361.62,564.608 1369.38,573.023 1380.21,573.023 C1389.01,573.023 1394.62,567.853 1395.89,558.613 L1393.3,558.173 C1391.82,566.368 1387.64,570.438 1380.87,570.438 C1372.73,570.438 1368.88,564.828 1368.88,552.948 C1368.88,546.678 1369.71,542.553 1371.58,539.253 C1373.28,536.173 1376.64,534.248 1380.21,534.248 C1384.06,534.248 1387.47,536.283 1389.56,539.803 C1390.61,541.618 1391.38,543.653 1392.7,547.998 L1395.12,547.998 L1394.29,532.103 "/>
<path class="Harmony" d="M1404.55,546.788 L1406.97,547.173 L1407.96,542.828 C1408.79,539.198 1409.17,538.648 1410.77,538.648 C1411.04,538.648 1411.48,538.648 1411.98,538.703 C1418.74,539.033 1418.74,539.033 1421.27,539.033 C1421.99,539.033 1423.25,539.033 1424.79,538.978 L1421.05,546.513 C1416.98,554.598 1416.49,555.588 1415.11,558.998 C1413.41,563.123 1412.53,566.588 1412.53,568.898 C1412.53,571.428 1413.85,572.968 1415.99,572.968 C1418.63,572.968 1419.68,571.208 1419.62,566.423 C1419.35,558.503 1420.34,554.653 1426.22,541.783 C1427.21,539.638 1428.26,537.438 1429.25,535.293 L1429.25,533.698 C1425.95,533.973 1424.19,534.083 1420.78,534.083 C1415.99,534.083 1412.2,533.918 1406.26,533.478 L1404.55,546.788 "/>
<path class="Harmony" d="M1210.38,532.488 L1177.66,532.488 L1177.66,535.073 L1178.65,535.073 C1181.78,535.128 1182.83,535.293 1183.27,535.843 C1183.6,536.338 1183.6,536.448 1183.6,539.253 L1183.6,565.433 C1183.6,568.238 1183.6,568.348 1183.27,568.843 C1182.83,569.393 1181.78,569.613 1178.65,569.613 L1177.66,569.613 L1177.66,572.198 L1196.52,572.198 L1196.52,569.613 L1194.71,569.613 C1191.57,569.613 1190.53,569.393 1190.09,568.843 C1189.76,568.348 1189.76,568.183 1189.76,565.433 L1189.76,552.948 L1190.86,552.948 C1196.52,552.728 1198.56,554.763 1198.78,560.868 L1201.36,560.868 L1201.36,542.828 L1198.78,542.828 C1198.45,548.218 1196.3,550.308 1191.08,550.363 L1189.76,550.363 L1189.76,537.823 C1189.7,535.513 1190.25,535.128 1193.22,535.073 L1195.75,535.073 C1204.77,535.018 1207.03,537.053 1208.73,546.513 L1211.15,546.513 L1210.38,532.488 "/>
<path class="Harmony" d="M546.915,1003.69 L514.19,1003.69 L514.19,1006.27 L515.18,1006.27 C518.315,1006.33 519.36,1006.49 519.8,1007.04 C520.13,1007.54 520.13,1007.65 520.13,1010.45 L520.13,1036.63 C520.13,1039.44 520.13,1039.55 519.8,1040.04 C519.36,1040.59 518.315,1040.81 515.18,1040.81 L514.19,1040.81 L514.19,1043.4 L533.055,1043.4 L533.055,1040.81 L531.24,1040.81 C528.105,1040.81 527.06,1040.59 526.62,1040.04 C526.29,1039.55 526.29,1039.38 526.29,1036.63 L526.29,1024.15 L527.39,1024.15 C533.055,1023.93 535.09,1025.96 535.31,1032.07 L537.895,1032.07 L537.895,1014.03 L535.31,1014.03 C534.98,1019.42 532.835,1021.51 527.61,1021.56 L526.29,1021.56 L526.29,1009.02 C526.235,1006.71 526.785,1006.33 529.755,1006.27 L532.285,1006.27 C541.305,1006.22 543.56,1008.25 545.265,1017.71 L547.685,1017.71 L546.915,1003.69 "/>
<path class="Harmony" d="M1063.12,532.488 L1030.4,532.488 L1030.4,535.073 L1031.39,535.073 C1034.52,535.128 1035.57,535.293 1036.01,535.843 C1036.34,536.338 1036.34,536.448 1036.34,539.253 L1036.34,565.433 C1036.34,568.238 1036.34,568.348 1036.01,568.843 C1035.57,569.393 1034.52,569.613 1031.39,569.613 L1030.4,569.613 L1030.4,572.198 L1049.26,572.198 L1049.26,569.613 L1047.45,569.613 C1044.31,569.613 1043.27,569.393 1042.83,568.843 C1042.5,568.348 1042.5,568.183 1042.5,565.433 L1042.5,552.948 L1043.6,552.948 C1049.26,552.728 1051.3,554.763 1051.52,560.868 L1054.1,560.868 L1054.1,542.828 L1051.52,542.828 C1051.19,548.218 1049.04,550.308 1043.82,550.363 L1042.5,550.363 L1042.5,537.823 C1042.44,535.513 1042.99,535.128 1045.96,535.073 L1048.49,535.073 C1057.51,535.018 1059.77,537.053 1061.47,546.513 L1063.89,546.513 L1063.12,532.488 "/>
<path class="Harmony" d="M1473.5,1003.3 L1471.41,1003.3 L1469.21,1006.55 C1465.19,1003.63 1463.16,1002.86 1459.36,1002.86 C1454.14,1002.86 1449.68,1005.06 1446,1009.46 C1442.48,1013.64 1440.83,1018.26 1440.83,1023.93 C1440.83,1035.81 1448.58,1044.22 1459.42,1044.22 C1468.22,1044.22 1473.83,1039.05 1475.09,1029.81 L1472.51,1029.37 C1471.02,1037.57 1466.84,1041.64 1460.08,1041.64 C1451.94,1041.64 1448.09,1036.03 1448.09,1024.15 C1448.09,1017.88 1448.91,1013.75 1450.78,1010.45 C1452.49,1007.37 1455.84,1005.45 1459.42,1005.45 C1463.27,1005.45 1466.68,1007.48 1468.77,1011 C1469.81,1012.82 1470.58,1014.85 1471.9,1019.2 L1474.32,1019.2 L1473.5,1003.3 "/>
<path class="Harmony" d="M1483.75,1017.99 L1486.17,1018.37 L1487.16,1014.03 C1487.99,1010.4 1488.37,1009.85 1489.97,1009.85 C1490.24,1009.85 1490.68,1009.85 1491.18,1009.9 C1497.94,1010.23 1497.94,1010.23 1500.47,1010.23 C1501.19,1010.23 1502.45,1010.23 1503.99,1010.18 L1500.25,1017.71 C1496.18,1025.8 1495.69,1026.79 1494.31,1030.2 C1492.61,1034.32 1491.73,1037.79 1491.73,1040.1 C1491.73,1042.63 1493.05,1044.17 1495.19,1044.17 C1497.83,1044.17 1498.88,1042.41 1498.82,1037.62 C1498.55,1029.7 1499.54,1025.85 1505.42,1012.98 C1506.41,1010.84 1507.46,1008.64 1508.45,1006.49 L1508.45,1004.9 C1505.15,1005.17 1503.39,1005.28 1499.98,1005.28 C1495.19,1005.28 1491.4,1005.12 1485.46,1004.68 L1483.75,1017.99 "/>
<path class="Harmony" d="M879.158,532.488 L846.433,532.488 L846.433,535.073 L847.423,535.073 C850.558,535.128 851.603,535.293 852.043,535.843 C852.373,536.338 852.373,536.448 852.373,539.253 L852.373,565.433 C852.373,568.238 852.373,568.348 852.043,568.843 C851.603,569.393 850.558,569.613 847.423,569.613 L846.433,569.613 L846.433,572.198 L865.298,572.198 L865.298,569.613 L863.483,569.613 C860.348,569.613 859.303,569.393 858.863,568.843 C858.533,568.348 858.533,568.183 858.533,565.433 L858.533,552.948 L859.633,552.948 C865.298,552.728 867.333,554.763 867.553,560.868 L870.138,560.868 L870.138,542.828 L867.553,542.828 C867.223,548.218 865.078,550.308 859.853,550.363 L858.533,550.363 L858.533,537.823 C858.478,535.513 859.028,535.128 861.998,535.073 L864.528,535.073 C873.548,535.018 875.803,537.053 877.508,546.513 L879.928,546.513 L879.158,532.488 "/>
<path class="Harmony" d="M2256.12,1003.69 L2256.12,1006.27 L2257.11,1006.27 C2260.25,1006.33 2261.29,1006.49 2261.73,1007.04 C2262.06,1007.54 2262.06,1007.65 2262.06,1010.45 L2262.06,1036.63 C2262.06,1039.44 2262.06,1039.55 2261.73,1040.04 C2261.29,1040.59 2260.25,1040.81 2257.11,1040.81 L2256.12,1040.81 L2256.12,1043.4 L2276.09,1043.4 C2285.6,1043.4 2291.32,1039.38 2291.32,1032.62 C2291.32,1027.12 2287.86,1023.98 2280.32,1022.66 C2282.96,1022.11 2284.17,1021.62 2285.6,1020.57 C2287.86,1018.87 2289.23,1016.17 2289.23,1013.42 C2289.23,1009.85 2287.03,1006.38 2283.84,1005.01 C2281.86,1004.13 2279.11,1003.69 2275.87,1003.69 L2256.12,1003.69 M2268.22,1021.56 L2268.22,1009.02 C2268.22,1006.88 2268.94,1006.33 2271.85,1006.27 L2274.05,1006.27 C2279.44,1006.27 2282.85,1008.03 2282.85,1014.03 C2282.85,1019.47 2280.21,1021.56 2273.12,1021.56 L2268.22,1021.56 M2268.22,1024.15 L2273.06,1024.15 C2281.48,1024.15 2284.56,1026.4 2284.56,1032.45 C2284.56,1039.82 2279.94,1040.81 2273.72,1040.81 L2271.41,1040.81 C2268.66,1040.81 2268.11,1040.26 2268.22,1037.35 L2268.22,1024.15 "/>
<path class="Harmony" d="M2300,1045.93 C2301.65,1045.93 2307.87,1042.41 2311.33,1038.78 C2314.14,1035.75 2314.91,1031.68 2314.91,1028.88 C2314.91,1024.48 2312.16,1021.34 2307.7,1021.34 C2305.34,1021.34 2303.25,1022.11 2301.49,1023.65 L2301.76,1000.99 C2301.76,1000.28 2301.16,999.728 2300.44,999.728 L2299.62,999.728 C2298.96,999.728 2298.3,1000.28 2298.3,1000.99 L2298.74,1044.66 C2298.74,1045.38 2299.29,1045.93 2300,1045.93 M2306.11,1025.47 C2309.24,1025.47 2309.63,1028.71 2309.63,1029.98 C2309.63,1034.98 2305.5,1038.5 2301.82,1041.2 C2301.65,1041.31 2301.49,1041.42 2301.32,1041.58 L2301.43,1028 C2301.54,1027.72 2301.98,1027.12 2302.81,1026.57 C2303.47,1026.07 2304.73,1025.47 2306.11,1025.47"/>
<path class="Harmony" d="M1362.15,1003.3 L1360.06,1003.3 L1357.86,1006.55 C1353.85,1003.63 1351.81,1002.86 1348.02,1002.86 C1342.79,1002.86 1338.34,1005.06 1334.65,1009.46 C1331.13,1013.64 1329.48,1018.26 1329.48,1023.93 C1329.48,1035.81 1337.24,1044.22 1348.07,1044.22 C1356.87,1044.22 1362.48,1039.05 1363.75,1029.81 L1361.16,1029.37 C1359.68,1037.57 1355.5,1041.64 1348.73,1041.64 C1340.59,1041.64 1336.74,1036.03 1336.74,1024.15 C1336.74,1017.88 1337.57,1013.75 1339.44,1010.45 C1341.14,1007.37 1344.5,1005.45 1348.07,1005.45 C1351.92,1005.45 1355.33,1007.48 1357.42,1011 C1358.47,1012.82 1359.24,1014.85 1360.56,1019.2 L1362.98,1019.2 L1362.15,1003.3 "/>
<path class="Harmony" d="M1372.41,1017.99 L1374.83,1018.37 L1375.82,1014.03 C1376.65,1010.4 1377.03,1009.85 1378.63,1009.85 C1378.9,1009.85 1379.34,1009.85 1379.84,1009.9 C1386.6,1010.23 1386.6,1010.23 1389.13,1010.23 C1389.85,1010.23 1391.11,1010.23 1392.65,1010.18 L1388.91,1017.71 C1384.84,1025.8 1384.35,1026.79 1382.97,1030.2 C1381.27,1034.32 1380.39,1037.79 1380.39,1040.1 C1380.39,1042.63 1381.71,1044.17 1383.85,1044.17 C1386.49,1044.17 1387.54,1042.41 1387.48,1037.62 C1387.21,1029.7 1388.2,1025.85 1394.08,1012.98 C1395.07,1010.84 1396.12,1008.64 1397.11,1006.49 L1397.11,1004.9 C1393.81,1005.17 1392.05,1005.28 1388.64,1005.28 C1383.85,1005.28 1380.06,1005.12 1374.12,1004.68 L1372.41,1017.99 "/>
<path class="Harmony" d="M768.714,532.488 L735.989,532.488 L735.989,535.073 L736.979,535.073 C740.114,535.128 741.159,535.293 741.599,535.843 C741.929,536.338 741.929,536.448 741.929,539.253 L741.929,565.433 C741.929,568.238 741.929,568.348 741.599,568.843 C741.159,569.393 740.114,569.613 736.979,569.613 L735.989,569.613 L735.989,572.198 L754.854,572.198 L754.854,569.613 L753.039,569.613 C749.904,569.613 748.859,569.393 748.419,568.843 C748.089,568.348 748.089,568.183 748.089,565.433 L748.089,552.948 L749.189,552.948 C754.854,552.728 756.889,554.763 757.109,560.868 L759.694,560.868 L759.694,542.828 L757.109,542.828 C756.779,548.218 754.634,550.308 749.409,550.363 L748.089,550.363 L748.089,537.823 C748.034,535.513 748.584,535.128 751.554,535.073 L754.084,535.073 C763.104,535.018 765.359,537.053 767.064,546.513 L769.484,546.513 L768.714,532.488 "/>
<path class="Harmony" d="M2400.13,1003.3 L2398.04,1003.3 L2395.84,1006.55 C2391.83,1003.63 2389.79,1002.86 2386,1002.86 C2380.77,1002.86 2376.32,1005.06 2372.63,1009.46 C2369.11,1013.64 2367.46,1018.26 2367.46,1023.93 C2367.46,1035.81 2375.22,1044.22 2386.05,1044.22 C2394.85,1044.22 2400.46,1039.05 2401.73,1029.81 L2399.14,1029.37 C2397.66,1037.57 2393.48,1041.64 2386.71,1041.64 C2378.57,1041.64 2374.72,1036.03 2374.72,1024.15 C2374.72,1017.88 2375.55,1013.75 2377.42,1010.45 C2379.12,1007.37 2382.48,1005.45 2386.05,1005.45 C2389.9,1005.45 2393.31,1007.48 2395.4,1011 C2396.45,1012.82 2397.22,1014.85 2398.54,1019.2 L2400.96,1019.2 L2400.13,1003.3 "/>
<path class="Harmony" d="M2410.39,1017.99 L2412.81,1018.37 L2413.8,1014.03 C2414.62,1010.4 2415.01,1009.85 2416.6,1009.85 C2416.88,1009.85 2417.32,1009.85 2417.81,1009.9 C2424.58,1010.23 2424.58,1010.23 2427.11,1010.23 C2427.82,1010.23 2429.09,1010.23 2430.63,1010.18 L2426.89,1017.71 C2422.82,1025.8 2422.32,1026.79 2420.95,1030.2 C2419.24,1034.32 2418.36,1037.79 2418.36,1040.1 C2418.36,1042.63 2419.68,1044.17 2421.83,1044.17 C2424.47,1044.17 2425.51,1042.41 2425.46,1037.62 C2425.18,1029.7 2426.17,1025.85 2432.06,1012.98 C2433.05,1010.84 2434.09,1008.64 2435.08,1006.49 L2435.08,1004.9 C2431.78,1005.17 2430.02,1005.28 2426.61,1005.28 C2421.83,1005.28 2418.03,1005.12 2412.09,1004.68 L2410.39,1017.99 "/>
<path class="Harmony" d="M584.751,532.488 L552.026,532.488 L552.026,535.073 L553.016,535.073 C556.151,535.128 557.196,535.293 557.636,535.843 C557.966,536.338 557.966,536.448 557.966,539.253 L557.966,565.433 C557.966,568.238 557.966,568.348 557.636,568.843 C557.196,569.393 556.151,569.613 553.016,569.613 L552.026,569.613 L552.026,572.198 L570.891,572.198 L570.891,569.613 L569.076,569.613 C565.941,569.613 564.896,569.393 564.456,568.843 C564.126,568.348 564.126,568.183 564.126,565.433 L564.126,552.948 L565.226,552.948 C570.891,552.728 572.926,554.763 573.146,560.868 L575.731,560.868 L575.731,542.828 L573.146,542.828 C572.816,548.218 570.671,550.308 565.446,550.363 L564.126,550.363 L564.126,537.823 C564.071,535.513 564.621,535.128 567.591,535.073 L570.121,535.073 C579.141,535.018 581.396,537.053 583.101,546.513 L585.521,546.513 L584.751,532.488 "/>
<path class="Harmony" d="M732.078,1003.69 L699.353,1003.69 L699.353,1006.27 L700.343,1006.27 C703.478,1006.33 704.523,1006.49 704.963,1007.04 C705.293,1007.54 705.293,1007.65 705.293,1010.45 L705.293,1036.63 C705.293,1039.44 705.293,1039.55 704.963,1040.04 C704.523,1040.59 703.478,1040.81 700.343,1040.81 L699.353,1040.81 L699.353,1043.4 L718.218,1043.4 L718.218,1040.81 L716.403,1040.81 C713.268,1040.81 712.223,1040.59 711.783,1040.04 C711.453,1039.55 711.453,1039.38 711.453,1036.63 L711.453,1024.15 L712.553,1024.15 C718.218,1023.93 720.253,1025.96 720.473,1032.07 L723.058,1032.07 L723.058,1014.03 L720.473,1014.03 C720.143,1019.42 717.998,1021.51 712.773,1021.56 L711.453,1021.56 L711.453,1009.02 C711.398,1006.71 711.948,1006.33 714.918,1006.27 L717.448,1006.27 C726.468,1006.22 728.723,1008.25 730.428,1017.71 L732.848,1017.71 L732.078,1003.69 "/>
<path class="Harmony" d="M474.306,532.488 L441.581,532.488 L441.581,535.073 L442.571,535.073 C445.706,535.128 446.751,535.293 447.191,535.843 C447.521,536.338 447.521,536.448 447.521,539.253 L447.521,565.433 C447.521,568.238 447.521,568.348 447.191,568.843 C446.751,569.393 445.706,569.613 442.571,569.613 L441.581,569.613 L441.581,572.198 L460.446,572.198 L460.446,569.613 L458.631,569.613 C455.496,569.613 454.451,569.393 454.011,568.843 C453.681,568.348 453.681,568.183 453.681,565.433 L453.681,552.948 L454.781,552.948 C460.446,552.728 462.481,554.763 462.701,560.868 L465.286,560.868 L465.286,542.828 L462.701,542.828 C462.371,548.218 460.226,550.308 455.001,550.363 L453.681,550.363 L453.681,537.823 C453.626,535.513 454.176,535.128 457.146,535.073 L459.676,535.073 C468.696,535.018 470.951,537.053 472.656,546.513 L475.076,546.513 L474.306,532.488 "/>
<path class="Harmony" d="M843.421,1003.69 L810.696,1003.69 L810.696,1006.27 L811.686,1006.27 C814.821,1006.33 815.866,1006.49 816.306,1007.04 C816.636,1007.54 816.636,1007.65 816.636,1010.45 L816.636,1036.63 C816.636,1039.44 816.636,1039.55 816.306,1040.04 C815.866,1040.59 814.821,1040.81 811.686,1040.81 L810.696,1040.81 L810.696,1043.4 L829.561,1043.4 L829.561,1040.81 L827.746,1040.81 C824.611,1040.81 823.566,1040.59 823.126,1040.04 C822.796,1039.55 822.796,1039.38 822.796,1036.63 L822.796,1024.15 L823.896,1024.15 C829.561,1023.93 831.596,1025.96 831.816,1032.07 L834.401,1032.07 L834.401,1014.03 L831.816,1014.03 C831.486,1019.42 829.341,1021.51 824.116,1021.56 L822.796,1021.56 L822.796,1009.02 C822.741,1006.71 823.291,1006.33 826.261,1006.27 L828.791,1006.27 C837.811,1006.22 840.066,1008.25 841.771,1017.71 L844.191,1017.71 L843.421,1003.69 "/>
<path class="Harmony" d="M2548.23,1003.69 L2515.5,1003.69 L2515.5,1006.27 L2516.49,1006.27 C2519.63,1006.33 2520.67,1006.49 2521.11,1007.04 C2521.44,1007.54 2521.44,1007.65 2521.44,1010.45 L2521.44,1036.63 C2521.44,1039.44 2521.44,1039.55 2521.11,1040.04 C2520.67,1040.59 2519.63,1040.81 2516.49,1040.81 L2515.5,1040.81 L2515.5,1043.4 L2534.37,1043.4 L2534.37,1040.81 L2532.55,1040.81 C2529.42,1040.81 2528.37,1040.59 2527.93,1040.04 C2527.6,1039.55 2527.6,1039.38 2527.6,1036.63 L2527.6,1024.15 L2528.7,1024.15 C2534.37,1023.93 2536.4,1025.96 2536.62,1032.07 L2539.21,1032.07 L2539.21,1014.03 L2536.62,1014.03 C2536.29,1019.42 2534.15,1021.51 2528.92,1021.56 L2527.6,1021.56 L2527.6,1009.02 C2527.55,1006.71 2528.1,1006.33 2531.07,1006.27 L2533.6,1006.27 C2542.62,1006.22 2544.87,1008.25 2546.58,1017.71 L2549,1017.71 L2548.23,1003.69 "/>
<path class="Harmony" d="M1770.05,1003.69 L1737.33,1003.69 L1737.33,1006.27 L1738.32,1006.27 C1741.45,1006.33 1742.5,1006.49 1742.94,1007.04 C1743.27,1007.54 1743.27,1007.65 1743.27,1010.45 L1743.27,1036.63 C1743.27,1039.44 1743.27,1039.55 1742.94,1040.04 C1742.5,1040.59 1741.45,1040.81 1738.32,1040.81 L1737.33,1040.81 L1737.33,1043.4 L1756.19,1043.4 L1756.19,1040.81 L1754.38,1040.81 C1751.24,1040.81 1750.2,1040.59 1749.76,1040.04 C1749.43,1039.55 1749.43,1039.38 1749.43,1036.63 L1749.43,1024.15 L1750.53,1024.15 C1756.19,1023.93 1758.23,1025.96 1758.45,1032.07 L1761.03,1032.07 L1761.03,1014.03 L1758.45,1014.03 C1758.12,1019.42 1755.97,1021.51 1750.75,1021.56 L1749.43,1021.56 L1749.43,1009.02 C1749.37,1006.71 1749.92,1006.33 1752.89,1006.27 L1755.42,1006.27 C1764.44,1006.22 1766.7,1008.25 1768.4,1017.71 L1770.82,1017.71 L1770.05,1003.69 "/>
</svg>
