<?xml version="1.0" encoding="UTF-8" standalone="no"?>
<svg width="2977.2px" height="4208.4px" viewBox="0 0 2977.2 4208.4"
 xmlns="http://www.w3.org/2000/svg" xmlns:xlink="http://www.w3.org/1999/xlink" version="1.2" baseProfile="tiny">
<title>どんぐりころころ</title>
<desc>Generated by MuseScore Studio 4.4.2</desc>
<path class="" fill="#ffffff" fill-rule="evenodd" d="M0,0 L2977.2,0 L2977.2,4208.4 L0,4208.4 L0,0 "/>
<polyline class="StaffLines" fill="none" stroke="#000000" stroke-width="2.73" stroke-linejoin="bevel" points="212.598,634.198 2764.6,634.198"/>
<polyline class="StaffLines" fill="none" stroke="#000000" stroke-width="2.73" stroke-linejoin="bevel" points="212.598,658.998 2764.6,658.998"/>
<polyline class="StaffLines" fill="none" stroke="#000000" stroke-width="2.73" stroke-linejoin="bevel" points="212.598,683.798 2764.6,683.798"/>
<polyline class="StaffLines" fill="none" stroke="#000000" stroke-width="2.73" stroke-linejoin="bevel" points="212.598,708.598 2764.6,708.598"/>
<polyline class="StaffLines" fill="none" stroke="#000000" stroke-width="2.73" stroke-linejoin="bevel" points="212.598,733.398 2764.6,733.398"/>
<polyline class="StaffLines" fill="none" stroke="#000000" stroke-width="2.73" stroke-linejoin="bevel" points="212.598,1105.4 2764.6,1105.4"/>
<polyline class="StaffLines" fill="none" stroke="#000000" stroke-width="2.73" stroke-linejoin="bevel" points="212.598,1130.2 2764.6,1130.2"/>
<polyline class="StaffLines" fill="none" stroke="#000000" stroke-width="2.73" stroke-linejoin="bevel" points="212.598,1155 2764.6,1155"/>
<polyline class="StaffLines" fill="none" stroke="#000000" stroke-width="2.73" stroke-linejoin="bevel" points="212.598,1179.8 2764.6,1179.8"/>
<polyline class="StaffLines" fill="none" stroke="#000000" stroke-width="2.73" stroke-linejoin="bevel" points="212.598,1204.6 2764.6,1204.6"/>
<path class="Text" d="M1080.88,221.83 C1081.54,223.59 1081.65,224.14 1082.75,228.87 C1085.72,243.17 1087.92,251.53 1090.78,259.56 C1083.96,262.97 1080.55,265.17 1076.37,268.58 C1069.88,273.86 1066.58,280.24 1066.58,287.28 C1066.58,295.97 1071.2,302.02 1080.22,305.32 C1085.5,307.3 1093.75,308.29 1104.64,308.29 C1112.34,308.29 1117.62,307.96 1128.95,306.86 L1132.69,306.42 L1133.79,306.31 C1135,306.2 1135.44,306.2 1137.09,306.2 L1136.21,297.07 C1129.72,299.38 1117.4,300.81 1104.75,300.81 C1083.19,300.81 1074.72,296.85 1074.72,286.95 C1074.72,277.82 1082.86,270.56 1101.67,262.97 C1111.35,259.12 1127.08,254.06 1134.78,252.3 L1131.48,243.94 C1129.39,245.04 1128.29,245.48 1124.44,246.91 C1107.5,252.74 1103.87,254.17 1097.82,256.7 C1094.85,248.78 1089.57,225.57 1089.57,220.29 L1080.88,221.83 M1121.25,221.5 C1124.44,224.91 1129.72,233.16 1132.47,238.99 L1138.08,235.69 C1134.67,229.2 1131.7,224.58 1126.75,218.64 L1121.25,221.5 M1133.79,215.56 C1137.97,220.62 1142.59,227.66 1145.01,232.83 L1150.51,229.75 C1146.88,222.82 1144.13,218.75 1139.07,212.59 L1133.79,215.56 M1198.8,219.41 C1198.14,222.71 1195.72,229.64 1183.73,261.43 C1167.89,303.67 1167.89,303.67 1166.46,306.75 L1174.93,309.39 C1176.36,302.79 1181.42,290.25 1185.05,284.09 C1191.21,273.64 1198.36,267.81 1204.74,267.81 C1208.04,267.81 1210.02,269.13 1211.01,271.88 C1211.67,273.64 1211.89,275.73 1211.89,280.24 L1211.89,286.51 C1211.89,292.67 1212.22,296.19 1212.88,298.39 C1214.97,304.66 1220.8,308.29 1228.94,308.29 C1237.96,308.29 1245.77,304 1250.83,296.3 C1254.24,291.13 1256.44,285.63 1258.64,276.94 C1255.45,275.07 1254.24,274.08 1251.38,271.33 C1250.72,277.27 1249.51,281.89 1247.2,286.95 C1243.13,296.19 1237.41,300.7 1229.6,300.7 C1225.97,300.7 1222.67,299.38 1221.24,297.29 C1219.92,295.31 1219.48,292.56 1219.48,286.84 L1219.48,279.36 C1219.48,273.09 1218.93,269.57 1217.61,266.93 C1215.63,262.97 1211.34,260.44 1206.61,260.44 C1198.8,260.44 1193.19,264.4 1185.93,274.85 L1185.38,274.63 C1185.82,273.64 1185.93,273.42 1186.37,272.65 C1186.92,271.55 1187.36,270.67 1187.58,270.23 C1192.09,260.77 1192.09,260.77 1195.5,252.08 C1206.28,224.47 1206.28,224.47 1207.71,221.83 L1198.8,219.41 M1333.55,218.86 C1330.03,224.58 1315.62,238.11 1301.32,249 C1293.29,255.16 1293.29,255.16 1291.97,256.48 C1289.88,258.68 1288.78,261.21 1288.78,263.85 C1288.78,267.59 1290.54,270.01 1296.7,274.85 C1317.71,290.91 1332.34,304.11 1338.72,312.91 L1345.65,306.09 C1345.1,305.65 1344.55,305.21 1344.44,305.1 C1344.11,304.88 1343.56,304.22 1342.57,303.34 C1327.39,288.93 1324.42,286.4 1307.37,273.31 C1298.46,266.38 1297.58,265.61 1297.58,263.63 C1297.58,262.09 1298.35,261.21 1302.42,258.13 C1314.19,249.11 1322,242.62 1327.72,237.34 L1336.41,228.98 L1337.29,228.1 C1338.17,227.33 1339.16,226.45 1340.15,225.46 C1340.26,225.35 1340.7,225.02 1341.25,224.58 L1333.55,218.86 M1335.97,244.38 C1339.16,247.9 1344.55,256.04 1347.19,261.87 L1352.8,258.57 C1349.5,252.08 1346.42,247.46 1341.47,241.52 L1335.97,244.38 M1348.51,238.55 C1352.69,243.5 1357.31,250.65 1359.73,255.82 L1365.23,252.63 C1361.6,245.7 1358.85,241.63 1353.79,235.58 L1348.51,238.55 M1406.37,218.42 C1406.37,219.74 1406.26,220.29 1406.04,221.94 C1403.29,241.41 1402.3,251.75 1402.3,262.53 C1402.3,263.08 1402.3,264.07 1402.3,265.06 L1402.52,276.5 L1402.63,278.48 C1402.63,278.7 1402.63,279.14 1402.63,279.69 L1410.55,279.36 C1410.44,277.71 1410.44,277.16 1410.44,276.72 C1410.44,268.69 1412.53,260.22 1416.38,252.19 C1422.65,239.32 1429.69,233.05 1438.05,233.05 C1448.61,233.05 1454.77,243.28 1454.77,260.99 C1454.77,278.59 1448.72,290.14 1435.85,297.51 C1429.47,301.14 1423.75,302.9 1413.52,304.44 C1415.94,307.41 1416.6,308.62 1417.92,311.92 C1425.62,310.27 1432.22,308.07 1437.5,305.43 C1454,297.18 1462.91,282.11 1462.91,262.2 C1462.91,250.43 1460.93,242.29 1456.31,235.47 C1452.02,229.09 1445.86,225.68 1438.71,225.68 C1430.13,225.68 1422.87,230.41 1416.71,239.87 C1413.52,244.82 1411.32,250.21 1410,256.26 C1409.45,258.57 1409.45,258.57 1409.23,259.45 L1408.79,259.34 C1409.12,253.73 1410.66,241.74 1412.42,230.63 C1413.41,224.69 1414.07,221.61 1414.95,219.3 L1406.37,218.42 M1512.96,236.24 C1514.39,236.24 1514.61,236.35 1516.59,236.57 C1523.74,237.45 1533.09,238 1540.79,238 C1547.06,238 1550.8,237.67 1557.4,236.57 C1556.3,237.23 1556.08,237.23 1555.31,237.67 C1553.99,238.33 1553.77,238.44 1552.56,239.1 C1547.61,241.85 1544.97,243.5 1537.93,248.23 L1543.54,252.74 C1554.32,244.93 1564.44,238.88 1571.26,236.02 L1570.71,228.76 C1564.66,230.3 1555.75,231.07 1542.88,231.07 C1530.34,231.07 1521.65,230.3 1513.62,228.43 L1512.96,236.24 M1519.56,264.4 C1511.09,271.55 1506.91,278.48 1506.91,285.63 C1506.91,293.22 1511.2,298.83 1519.45,302.24 C1524.84,304.33 1534.19,305.65 1544.75,305.65 C1554.43,305.65 1564.88,304.77 1574.45,303.12 C1576.32,302.79 1576.76,302.68 1578.19,302.57 L1577.2,293.55 C1571.04,296.08 1557.95,297.73 1544.2,297.73 C1535.51,297.73 1528.25,296.96 1524.07,295.53 C1517.91,293.44 1514.72,289.81 1514.72,284.75 C1514.72,279.58 1518.02,274.52 1525.17,268.58 L1519.56,264.4 M1622.96,234.48 C1624.61,234.15 1627.36,233.93 1630.88,233.93 C1643.2,233.6 1657.5,232.72 1662.23,231.95 C1662.67,231.84 1663.11,231.73 1663.66,231.73 L1663.88,231.84 C1663.33,232.39 1663.33,232.39 1663,232.72 C1662.56,233.16 1662.45,233.27 1662.01,233.82 C1651.89,244.38 1636.93,258.57 1625.49,268.58 C1618.89,274.19 1615.26,277.05 1611.19,279.47 L1616.69,286.29 C1619,283.98 1621.53,281.89 1625.27,279.36 C1636.27,271.77 1649.36,267.26 1660.58,267.26 C1674.11,267.26 1682.47,273.09 1682.47,282.66 C1682.47,293.99 1670.81,301.8 1653.76,301.8 C1644.3,301.8 1633.63,299.27 1625.71,294.98 C1626.26,298.39 1626.48,300.04 1626.48,301.91 C1626.48,302.46 1626.48,303.01 1626.37,303.89 C1636.6,307.52 1644.63,309.06 1652.88,309.06 C1661.79,309.06 1670.48,307.3 1676.31,304.44 C1685.22,299.93 1690.61,291.79 1690.61,282.66 C1690.61,269.24 1679.5,260.77 1662.01,260.77 C1652,260.77 1645.07,262.97 1634.07,269.46 L1633.74,269.13 C1642.65,262.86 1647.71,258.35 1663.77,242.18 C1674,231.95 1674,231.95 1675.65,230.85 L1671.03,224.47 C1669.71,225.02 1668.83,225.24 1666.52,225.46 C1658.93,226.23 1644.96,226.89 1634.73,226.89 C1628.02,226.89 1625.93,226.78 1622.52,226.23 L1622.96,234.48 M1732.96,236.24 C1734.39,236.24 1734.61,236.35 1736.59,236.57 C1743.74,237.45 1753.09,238 1760.79,238 C1767.06,238 1770.8,237.67 1777.4,236.57 C1776.3,237.23 1776.08,237.23 1775.31,237.67 C1773.99,238.33 1773.77,238.44 1772.56,239.1 C1767.61,241.85 1764.97,243.5 1757.93,248.23 L1763.54,252.74 C1774.32,244.93 1784.44,238.88 1791.26,236.02 L1790.71,228.76 C1784.66,230.3 1775.75,231.07 1762.88,231.07 C1750.34,231.07 1741.65,230.3 1733.62,228.43 L1732.96,236.24 M1739.56,264.4 C1731.09,271.55 1726.91,278.48 1726.91,285.63 C1726.91,293.22 1731.2,298.83 1739.45,302.24 C1744.84,304.33 1754.19,305.65 1764.75,305.65 C1774.43,305.65 1784.88,304.77 1794.45,303.12 C1796.32,302.79 1796.76,302.68 1798.19,302.57 L1797.2,293.55 C1791.04,296.08 1777.95,297.73 1764.2,297.73 C1755.51,297.73 1748.25,296.96 1744.07,295.53 C1737.91,293.44 1734.72,289.81 1734.72,284.75 C1734.72,279.58 1738.02,274.52 1745.17,268.58 L1739.56,264.4 M1842.96,234.48 C1844.61,234.15 1847.36,233.93 1850.88,233.93 C1863.2,233.6 1877.5,232.72 1882.23,231.95 C1882.67,231.84 1883.11,231.73 1883.66,231.73 L1883.88,231.84 C1883.33,232.39 1883.33,232.39 1883,232.72 C1882.56,233.16 1882.45,233.27 1882.01,233.82 C1871.89,244.38 1856.93,258.57 1845.49,268.58 C1838.89,274.19 1835.26,277.05 1831.19,279.47 L1836.69,286.29 C1839,283.98 1841.53,281.89 1845.27,279.36 C1856.27,271.77 1869.36,267.26 1880.58,267.26 C1894.11,267.26 1902.47,273.09 1902.47,282.66 C1902.47,293.99 1890.81,301.8 1873.76,301.8 C1864.3,301.8 1853.63,299.27 1845.71,294.98 C1846.26,298.39 1846.48,300.04 1846.48,301.91 C1846.48,302.46 1846.48,303.01 1846.37,303.89 C1856.6,307.52 1864.63,309.06 1872.88,309.06 C1881.79,309.06 1890.48,307.3 1896.31,304.44 C1905.22,299.93 1910.61,291.79 1910.61,282.66 C1910.61,269.24 1899.5,260.77 1882.01,260.77 C1872,260.77 1865.07,262.97 1854.07,269.46 L1853.74,269.13 C1862.65,262.86 1867.71,258.35 1883.77,242.18 C1894,231.95 1894,231.95 1895.65,230.85 L1891.03,224.47 C1889.71,225.02 1888.83,225.24 1886.52,225.46 C1878.93,226.23 1864.96,226.89 1854.73,226.89 C1848.02,226.89 1845.93,226.78 1842.52,226.23 L1842.96,234.48 "/>
<path class="MeasureNumber" d="M216.922,1040.48 C215.682,1041.24 215.322,1041.72 215.322,1042.52 C215.322,1043.28 215.962,1043.84 216.762,1043.84 C217.802,1043.84 218.402,1043.08 218.522,1041.6 C219.762,1040.6 221.082,1040.16 222.682,1040.16 C225.642,1040.16 227.282,1042 227.282,1045.32 C227.282,1050.52 223.922,1054.76 219.802,1054.76 C217.442,1054.76 215.522,1053.64 215.522,1052.32 C215.522,1052.08 215.562,1052 215.762,1051.88 C217.042,1051.28 218.082,1050.84 218.082,1049.16 C218.082,1047.88 217.082,1046.92 215.682,1046.92 C213.922,1046.92 212.602,1048.4 212.602,1050.32 C212.602,1053.84 215.642,1056.4 219.922,1056.4 C226.402,1056.4 231.642,1051.24 231.642,1044.84 C231.642,1040.8 228.562,1037.96 224.202,1037.96 C222.482,1037.96 221.082,1038.32 219.162,1039.28 L221.402,1031.72 C223.522,1032.16 225.202,1032.36 226.642,1032.36 C229.282,1032.36 231.642,1031.52 232.962,1030.12 C233.642,1029.32 234.042,1028.64 234.042,1028.12 C234.042,1027.88 233.922,1027.64 233.762,1027.64 C233.642,1027.64 233.562,1027.68 233.322,1027.8 C232.002,1028.44 230.322,1028.8 228.762,1028.8 C226.362,1028.8 223.522,1028.4 220.562,1027.64 L216.922,1040.48 "/>
<polyline class="BarLine" fill="none" stroke="#000000" stroke-width="4.46" stroke-linejoin="bevel" points="2740.42,1104.03 2740.42,1205.96"/>
<polyline class="BarLine" fill="none" stroke="#000000" stroke-width="13.64" stroke-linejoin="bevel" points="2757.78,1104.03 2757.78,1205.96"/>
<polyline class="BarLine" fill="none" stroke="#000000" stroke-width="4.46" stroke-linejoin="bevel" points="1026.61,1104.03 1026.61,1205.96"/>
<polyline class="BarLine" fill="none" stroke="#000000" stroke-width="4.46" stroke-linejoin="bevel" points="2762.37,632.834 2762.37,734.762"/>
<polyline class="BarLine" fill="none" stroke="#000000" stroke-width="4.46" stroke-linejoin="bevel" points="2211.74,632.834 2211.74,734.762"/>
<polyline class="BarLine" fill="none" stroke="#000000" stroke-width="4.46" stroke-linejoin="bevel" points="1604.83,1104.03 1604.83,1205.96"/>
<polyline class="BarLine" fill="none" stroke="#000000" stroke-width="4.46" stroke-linejoin="bevel" points="2183.04,1104.03 2183.04,1205.96"/>
<polyline class="BarLine" fill="none" stroke="#000000" stroke-width="4.46" stroke-linejoin="bevel" points="1542.51,632.834 1542.51,734.762"/>
<polyline class="BarLine" fill="none" stroke="#000000" stroke-width="4.46" stroke-linejoin="bevel" points="991.872,632.834 991.872,734.762"/>
<polyline class="LedgerLine" fill="none" stroke="#000000" stroke-width="3.97" stroke-linejoin="bevel" points="901.894,758.198 951.479,758.198"/>
<polyline class="LedgerLine" fill="none" stroke="#000000" stroke-width="3.97" stroke-linejoin="bevel" points="932.393,1229.4 981.978,1229.4"/>
<polyline class="Stem" fill="none" stroke="#000000" stroke-width="2.73" stroke-linejoin="bevel" points="2082.23,692.23 2082.23,615.598"/>
<polyline class="Stem" fill="none" stroke="#000000" stroke-width="2.73" stroke-linejoin="bevel" points="2128.36,1175.83 2128.36,1092.96"/>
<polyline class="Stem" fill="none" stroke="#000000" stroke-width="2.73" stroke-linejoin="bevel" points="1383.53,1213.03 1383.53,1130.4"/>
<polyline class="Stem" fill="none" stroke="#000000" stroke-width="2.73" stroke-linejoin="bevel" points="941.435,754.23 941.435,640.363"/>
<polyline class="Stem" fill="none" stroke="#000000" stroke-width="2.73" stroke-linejoin="bevel" points="1300.22,1200.63 1300.22,1111.56"/>
<polyline class="Stem" fill="none" stroke="#000000" stroke-width="2.73" stroke-linejoin="bevel" points="1216.91,1200.63 1216.91,1109.11"/>
<polyline class="Stem" fill="none" stroke="#000000" stroke-width="2.73" stroke-linejoin="bevel" points="783.303,729.43 783.303,636.277"/>
<polyline class="Stem" fill="none" stroke="#000000" stroke-width="2.73" stroke-linejoin="bevel" points="1670.16,1175.83 1670.16,1105.46"/>
<polyline class="Stem" fill="none" stroke="#000000" stroke-width="2.73" stroke-linejoin="bevel" points="1057.2,704.63 1057.2,634.241"/>
<polyline class="Stem" fill="none" stroke="#000000" stroke-width="2.73" stroke-linejoin="bevel" points="1091.95,1175.83 1091.95,1105.44"/>
<polyline class="Stem" fill="none" stroke="#000000" stroke-width="2.73" stroke-linejoin="bevel" points="2414.99,1151.03 2414.99,1082.68"/>
<polyline class="Stem" fill="none" stroke="#000000" stroke-width="2.73" stroke-linejoin="bevel" points="427.506,704.63 427.506,634.241"/>
<polyline class="Stem" fill="none" stroke="#000000" stroke-width="2.73" stroke-linejoin="bevel" points="1175.8,729.43 1175.8,637.91"/>
<polyline class="Stem" fill="none" stroke="#000000" stroke-width="2.73" stroke-linejoin="bevel" points="971.934,1225.43 971.934,1111.56"/>
<polyline class="Stem" fill="none" stroke="#000000" stroke-width="2.73" stroke-linejoin="bevel" points="1254.87,729.43 1254.87,640.356"/>
<polyline class="Stem" fill="none" stroke="#000000" stroke-width="2.73" stroke-linejoin="bevel" points="888.625,1213.03 888.625,1109.52"/>
<polyline class="Stem" fill="none" stroke="#000000" stroke-width="2.73" stroke-linejoin="bevel" points="805.316,1200.63 805.316,1107.48"/>
<polyline class="Stem" fill="none" stroke="#000000" stroke-width="2.73" stroke-linejoin="bevel" points="1333.94,741.83 1333.94,659.197"/>
<polyline class="Stem" fill="none" stroke="#000000" stroke-width="2.73" stroke-linejoin="bevel" points="1795.12,1200.63 1795.12,1111.53"/>
<polyline class="Stem" fill="none" stroke="#000000" stroke-width="2.73" stroke-linejoin="bevel" points="2331.68,1163.43 2331.68,1084.72"/>
<polyline class="Stem" fill="none" stroke="#000000" stroke-width="2.73" stroke-linejoin="bevel" points="722.007,1188.23 722.007,1105.43"/>
<polyline class="Stem" fill="none" stroke="#000000" stroke-width="2.73" stroke-linejoin="bevel" points="2498.3,1151.03 2498.3,1080.63"/>
<polyline class="Stem" fill="none" stroke="#000000" stroke-width="2.73" stroke-linejoin="bevel" points="638.698,1200.63 638.698,1111.56"/>
<polyline class="Stem" fill="none" stroke="#000000" stroke-width="2.73" stroke-linejoin="bevel" points="1607.84,729.43 1607.84,640.363"/>
<polyline class="Stem" fill="none" stroke="#000000" stroke-width="2.73" stroke-linejoin="bevel" points="555.389,1200.63 555.389,1109.52"/>
<polyline class="Stem" fill="none" stroke="#000000" stroke-width="2.73" stroke-linejoin="bevel" points="2248.37,1163.43 2248.37,1086.76"/>
<polyline class="Stem" fill="none" stroke="#000000" stroke-width="2.73" stroke-linejoin="bevel" points="704.237,717.03 704.237,634.234"/>
<polyline class="Stem" fill="none" stroke="#000000" stroke-width="2.73" stroke-linejoin="bevel" points="1686.9,729.43 1686.9,638.32"/>
<polyline class="Stem" fill="none" stroke="#000000" stroke-width="2.73" stroke-linejoin="bevel" points="472.08,1175.83 472.08,1107.48"/>
<polyline class="Stem" fill="none" stroke="#000000" stroke-width="2.73" stroke-linejoin="bevel" points="1765.97,704.63 1765.97,636.277"/>
<polyline class="Stem" fill="none" stroke="#000000" stroke-width="2.73" stroke-linejoin="bevel" points="1920.08,1163.43 1920.08,1086.84"/>
<polyline class="Stem" fill="none" stroke="#000000" stroke-width="2.73" stroke-linejoin="bevel" points="1845.04,704.63 1845.04,634.234"/>
<polyline class="Stem" fill="none" stroke="#000000" stroke-width="2.73" stroke-linejoin="bevel" points="388.771,1175.83 388.771,1105.43"/>
<polyline class="Stem" fill="none" stroke="#000000" stroke-width="2.73" stroke-linejoin="bevel" points="1924.1,692.23 1924.1,615.598"/>
<polyline class="Stem" fill="none" stroke="#000000" stroke-width="2.73" stroke-linejoin="bevel" points="2552.11,1146.76 2552.11,1223.2"/>
<polyline class="Stem" fill="none" stroke="#000000" stroke-width="2.73" stroke-linejoin="bevel" points="2553.8,704.63 2553.8,621.997"/>
<polyline class="Stem" fill="none" stroke="#000000" stroke-width="2.73" stroke-linejoin="bevel" points="2474.73,729.43 2474.73,621.672"/>
<polyline class="Stem" fill="none" stroke="#000000" stroke-width="2.73" stroke-linejoin="bevel" points="2003.17,692.23 2003.17,615.598"/>
<polyline class="Stem" fill="none" stroke="#000000" stroke-width="2.73" stroke-linejoin="bevel" points="2395.67,729.43 2395.67,614.333"/>
<polyline class="Stem" fill="none" stroke="#000000" stroke-width="2.73" stroke-linejoin="bevel" points="625.171,729.43 625.171,640.356"/>
<polyline class="Stem" fill="none" stroke="#000000" stroke-width="2.73" stroke-linejoin="bevel" points="2045.05,1175.83 2045.05,1090.51"/>
<polyline class="Stem" fill="none" stroke="#000000" stroke-width="2.73" stroke-linejoin="bevel" points="2161.3,692.23 2161.3,615.598"/>
<polyline class="Stem" fill="none" stroke="#000000" stroke-width="2.73" stroke-linejoin="bevel" points="2277.07,667.43 2277.07,603.325"/>
<polyline class="Stem" fill="none" stroke="#000000" stroke-width="2.73" stroke-linejoin="bevel" points="546.105,729.43 546.105,637.91"/>
<polyline class="Stem" fill="none" stroke="#000000" stroke-width="2.73" stroke-linejoin="bevel" points="862.369,741.83 862.369,638.32"/>
<path class="Hook" transform="matrix(0.992,0,0,0.992,2552.44,621.798)" d="M0,22.7 C0,23 0.1,23.6 0.8,23.8 C5.1,25.2 13.7,30.6 20.2,41.7 C22,44.8 24.9,49.1 24.9,57.4 C24.9,64.6 23.1,72 20.4,79.2 C20.2,79.8 20.1,80.3 20.1,80.7 C20.1,81.4 20.5,81.7 21.2,81.7 C21.8,81.7 22.3,81.3 22.7,80.6 C27.2,72.6 28.9,63.3 28.9,54.2 C28.4,41.3 21,31.8 21,31.8 C21.3,31.8 11.8,19.5 9.1,15.3 C5.4,9.6 3.7,3.9 3.5,3.5 C3.4,3.2 2.5,-0.4 2.5,-0.4 C2.4,-0.8 1.9,-1.2 1.3,-1.2 C0.6,-1.2 0,-0.6 0,0.1 L0,22.7 "/>
<path class="Hook" transform="matrix(0.992,0,0,0.992,1382.16,1130.2)" d="M0,22.7 C0,23 0.1,23.6 0.8,23.8 C5.1,25.2 13.7,30.6 20.2,41.7 C22,44.8 24.9,49.1 24.9,57.4 C24.9,64.6 23.1,72 20.4,79.2 C20.2,79.8 20.1,80.3 20.1,80.7 C20.1,81.4 20.5,81.7 21.2,81.7 C21.8,81.7 22.3,81.3 22.7,80.6 C27.2,72.6 28.9,63.3 28.9,54.2 C28.4,41.3 21,31.8 21,31.8 C21.3,31.8 11.8,19.5 9.1,15.3 C5.4,9.6 3.7,3.9 3.5,3.5 C3.4,3.2 2.5,-0.4 2.5,-0.4 C2.4,-0.8 1.9,-1.2 1.3,-1.2 C0.6,-1.2 0,-0.6 0,0.1 L0,22.7 "/>
<path class="Hook" transform="matrix(0.992,0,0,0.992,1332.57,658.998)" d="M0,22.7 C0,23 0.1,23.6 0.8,23.8 C5.1,25.2 13.7,30.6 20.2,41.7 C22,44.8 24.9,49.1 24.9,57.4 C24.9,64.6 23.1,72 20.4,79.2 C20.2,79.8 20.1,80.3 20.1,80.7 C20.1,81.4 20.5,81.7 21.2,81.7 C21.8,81.7 22.3,81.3 22.7,80.6 C27.2,72.6 28.9,63.3 28.9,54.2 C28.4,41.3 21,31.8 21,31.8 C21.3,31.8 11.8,19.5 9.1,15.3 C5.4,9.6 3.7,3.9 3.5,3.5 C3.4,3.2 2.5,-0.4 2.5,-0.4 C2.4,-0.8 1.9,-1.2 1.3,-1.2 C0.6,-1.2 0,-0.6 0,0.1 L0,22.7 "/>
<path class="Note" transform="matrix(0.992,0,0,0.992,515.244,733.398)" d="M0,4.2 C0,8.5 3.1,13.3 11.2,13.3 C21.6,13.3 32.5,4.8 32.5,-4 C32.5,-9.9 27.5,-13.2 21.3,-13.2 C11.6,-13.2 0,-5 0,4.2"/>
<path class="Note" transform="matrix(0.992,0,0,0.992,1186.05,1204.6)" d="M0,4.2 C0,8.5 3.1,13.3 11.2,13.3 C21.6,13.3 32.5,4.8 32.5,-4 C32.5,-9.9 27.5,-13.2 21.3,-13.2 C11.6,-13.2 0,-5 0,4.2"/>
<path class="Note" transform="matrix(0.992,0,0,0.992,1972.31,696.198)" d="M0,4.2 C0,8.5 3.1,13.3 11.2,13.3 C21.6,13.3 32.5,4.8 32.5,-4 C32.5,-9.9 27.5,-13.2 21.3,-13.2 C11.6,-13.2 0,-5 0,4.2"/>
<path class="Note" transform="matrix(0.992,0,0,0.992,2364.81,733.398)" d="M0,4.2 C0,8.5 3.1,13.3 11.2,13.3 C21.6,13.3 32.5,4.8 32.5,-4 C32.5,-9.9 27.5,-13.2 21.3,-13.2 C11.6,-13.2 0,-5 0,4.2"/>
<path class="Note" transform="matrix(0.992,0,0,0.992,2097.5,1179.8)" d="M0,4.2 C0,8.5 3.1,13.3 11.2,13.3 C21.6,13.3 32.5,4.8 32.5,-4 C32.5,-9.9 27.5,-13.2 21.3,-13.2 C11.6,-13.2 0,-5 0,4.2"/>
<path class="Note" transform="matrix(0.992,0,0,0.992,2443.87,733.398)" d="M0,4.2 C0,8.5 3.1,13.3 11.2,13.3 C21.6,13.3 32.5,4.8 32.5,-4 C32.5,-9.9 27.5,-13.2 21.3,-13.2 C11.6,-13.2 0,-5 0,4.2"/>
<path class="Note" transform="matrix(0.992,0,0,0.992,2014.19,1179.8)" d="M0,4.2 C0,8.5 3.1,13.3 11.2,13.3 C21.6,13.3 32.5,4.8 32.5,-4 C32.5,-9.9 27.5,-13.2 21.3,-13.2 C11.6,-13.2 0,-5 0,4.2"/>
<path class="Note" transform="matrix(0.992,0,0,0.992,594.31,733.398)" d="M0,4.2 C0,8.5 3.1,13.3 11.2,13.3 C21.6,13.3 32.5,4.8 32.5,-4 C32.5,-9.9 27.5,-13.2 21.3,-13.2 C11.6,-13.2 0,-5 0,4.2"/>
<path class="Note" transform="matrix(0.992,0,0,0.992,2522.94,708.598)" d="M0,4.2 C0,8.5 3.1,13.3 11.2,13.3 C21.6,13.3 32.5,4.8 32.5,-4 C32.5,-9.9 27.5,-13.2 21.3,-13.2 C11.6,-13.2 0,-5 0,4.2"/>
<path class="Note" transform="matrix(0.992,0,0,0.992,2467.44,1155)" d="M0,4.2 C0,8.5 3.1,13.3 11.2,13.3 C21.6,13.3 32.5,4.8 32.5,-4 C32.5,-9.9 27.5,-13.2 21.3,-13.2 C11.6,-13.2 0,-5 0,4.2"/>
<path class="Note" transform="matrix(0.992,0,0,0.992,1889.22,1167.4)" d="M0,4.2 C0,8.5 3.1,13.3 11.2,13.3 C21.6,13.3 32.5,4.8 32.5,-4 C32.5,-9.9 27.5,-13.2 21.3,-13.2 C11.6,-13.2 0,-5 0,4.2"/>
<path class="Note" transform="matrix(0.992,0,0,0.992,1893.24,696.198)" d="M0,4.2 C0,8.5 3.1,13.3 11.2,13.3 C21.6,13.3 32.5,4.8 32.5,-4 C32.5,-9.9 27.5,-13.2 21.3,-13.2 C11.6,-13.2 0,-5 0,4.2"/>
<path class="Note" transform="matrix(0.992,0,0,0.992,2550.74,1142.6)" d="M0,4.2 C0,8.5 3.1,13.3 11.2,13.3 C21.6,13.3 32.5,4.8 32.5,-4 C32.5,-9.9 27.5,-13.2 21.3,-13.2 C11.6,-13.2 0,-5 0,4.2"/>
<path class="Note" transform="matrix(0.992,0,0,0.992,396.645,708.598)" d="M0,4.2 C0,8.5 3.1,13.3 11.2,13.3 C21.6,13.3 32.5,4.8 32.5,-4 C32.5,-9.9 27.5,-13.2 21.3,-13.2 C11.6,-13.2 0,-5 0,4.2"/>
<path class="Note" transform="matrix(0.992,0,0,0.992,1352.67,1217)" d="M0,4.2 C0,8.5 3.1,13.3 11.2,13.3 C21.6,13.3 32.5,4.8 32.5,-4 C32.5,-9.9 27.5,-13.2 21.3,-13.2 C11.6,-13.2 0,-5 0,4.2"/>
<path class="Note" transform="matrix(0.992,0,0,0.992,831.508,745.798)" d="M0,4.2 C0,8.5 3.1,13.3 11.2,13.3 C21.6,13.3 32.5,4.8 32.5,-4 C32.5,-9.9 27.5,-13.2 21.3,-13.2 C11.6,-13.2 0,-5 0,4.2"/>
<path class="Note" transform="matrix(0.992,0,0,0.992,1814.17,708.598)" d="M0,4.2 C0,8.5 3.1,13.3 11.2,13.3 C21.6,13.3 32.5,4.8 32.5,-4 C32.5,-9.9 27.5,-13.2 21.3,-13.2 C11.6,-13.2 0,-5 0,4.2"/>
<path class="Note" transform="matrix(0.992,0,0,0.992,357.911,1179.8)" d="M0,4.2 C0,8.5 3.1,13.3 11.2,13.3 C21.6,13.3 32.5,4.8 32.5,-4 C32.5,-9.9 27.5,-13.2 21.3,-13.2 C11.6,-13.2 0,-5 0,4.2"/>
<path class="Note" transform="matrix(0.992,0,0,0.992,1735.11,708.598)" d="M0,4.2 C0,8.5 3.1,13.3 11.2,13.3 C21.6,13.3 32.5,4.8 32.5,-4 C32.5,-9.9 27.5,-13.2 21.3,-13.2 C11.6,-13.2 0,-5 0,4.2"/>
<path class="Note" transform="matrix(0.992,0,0,0.992,1764.26,1204.6)" d="M0,4.2 C0,8.5 3.1,13.3 11.2,13.3 C21.6,13.3 32.5,4.8 32.5,-4 C32.5,-9.9 27.5,-13.2 21.3,-13.2 C11.6,-13.2 0,-5 0,4.2"/>
<path class="Note" transform="matrix(0.992,0,0,0.992,1656.04,733.398)" d="M0,4.2 C0,8.5 3.1,13.3 11.2,13.3 C21.6,13.3 32.5,4.8 32.5,-4 C32.5,-9.9 27.5,-13.2 21.3,-13.2 C11.6,-13.2 0,-5 0,4.2"/>
<path class="Note" transform="matrix(0.992,0,0,0.992,441.22,1179.8)" d="M0,4.2 C0,8.5 3.1,13.3 11.2,13.3 C21.6,13.3 32.5,4.8 32.5,-4 C32.5,-9.9 27.5,-13.2 21.3,-13.2 C11.6,-13.2 0,-5 0,4.2"/>
<path class="Note" transform="matrix(0.992,0,0,0.992,1576.98,733.398)" d="M0,4.2 C0,8.5 3.1,13.3 11.2,13.3 C21.6,13.3 32.5,4.8 32.5,-4 C32.5,-9.9 27.5,-13.2 21.3,-13.2 C11.6,-13.2 0,-5 0,4.2"/>
<path class="Note" transform="matrix(0.992,0,0,0.992,524.529,1204.6)" d="M0,4.2 C0,8.5 3.1,13.3 11.2,13.3 C21.6,13.3 32.5,4.8 32.5,-4 C32.5,-9.9 27.5,-13.2 21.3,-13.2 C11.6,-13.2 0,-5 0,4.2"/>
<path class="Note" transform="matrix(0.992,0,0,0.992,673.376,720.998)" d="M0,4.2 C0,8.5 3.1,13.3 11.2,13.3 C21.6,13.3 32.5,4.8 32.5,-4 C32.5,-9.9 27.5,-13.2 21.3,-13.2 C11.6,-13.2 0,-5 0,4.2"/>
<path class="Note" transform="matrix(0.992,0,0,0.992,607.838,1204.6)" d="M0,4.2 C0,8.5 3.1,13.3 11.2,13.3 C21.6,13.3 32.5,4.8 32.5,-4 C32.5,-9.9 27.5,-13.2 21.3,-13.2 C11.6,-13.2 0,-5 0,4.2"/>
<path class="Note" transform="matrix(0.992,0,0,0.992,2217.51,1167.4)" d="M0,4.2 C0,8.5 3.1,13.3 11.2,13.3 C21.6,13.3 32.5,4.8 32.5,-4 C32.5,-9.9 27.5,-13.2 21.3,-13.2 C11.6,-13.2 0,-5 0,4.2"/>
<path class="Note" transform="matrix(0.992,0,0,0.992,691.146,1192.2)" d="M0,4.2 C0,8.5 3.1,13.3 11.2,13.3 C21.6,13.3 32.5,4.8 32.5,-4 C32.5,-9.9 27.5,-13.2 21.3,-13.2 C11.6,-13.2 0,-5 0,4.2"/>
<path class="Note" transform="matrix(0.992,0,0,0.992,1303.08,745.798)" d="M0,4.2 C0,8.5 3.1,13.3 11.2,13.3 C21.6,13.3 32.5,4.8 32.5,-4 C32.5,-9.9 27.5,-13.2 21.3,-13.2 C11.6,-13.2 0,-5 0,4.2"/>
<path class="Note" transform="matrix(0.992,0,0,0.992,1639.3,1179.8)" d="M0,4.2 C0,8.5 3.1,13.3 11.2,13.3 C21.6,13.3 32.5,4.8 32.5,-4 C32.5,-9.9 27.5,-13.2 21.3,-13.2 C11.6,-13.2 0,-5 0,4.2"/>
<path class="Note" transform="matrix(0.992,0,0,0.992,2246.21,671.398)" d="M0,4.2 C0,8.5 3.1,13.3 11.2,13.3 C21.6,13.3 32.5,4.8 32.5,-4 C32.5,-9.9 27.5,-13.2 21.3,-13.2 C11.6,-13.2 0,-5 0,4.2"/>
<path class="Note" transform="matrix(0.992,0,0,0.992,774.455,1204.6)" d="M0,4.2 C0,8.5 3.1,13.3 11.2,13.3 C21.6,13.3 32.5,4.8 32.5,-4 C32.5,-9.9 27.5,-13.2 21.3,-13.2 C11.6,-13.2 0,-5 0,4.2"/>
<path class="Note" transform="matrix(0.992,0,0,0.992,1224.01,733.398)" d="M0,4.2 C0,8.5 3.1,13.3 11.2,13.3 C21.6,13.3 32.5,4.8 32.5,-4 C32.5,-9.9 27.5,-13.2 21.3,-13.2 C11.6,-13.2 0,-5 0,4.2"/>
<path class="Note" transform="matrix(0.992,0,0,0.992,857.764,1217)" d="M0,4.2 C0,8.5 3.1,13.3 11.2,13.3 C21.6,13.3 32.5,4.8 32.5,-4 C32.5,-9.9 27.5,-13.2 21.3,-13.2 C11.6,-13.2 0,-5 0,4.2"/>
<path class="Note" transform="matrix(0.992,0,0,0.992,1144.94,733.398)" d="M0,4.2 C0,8.5 3.1,13.3 11.2,13.3 C21.6,13.3 32.5,4.8 32.5,-4 C32.5,-9.9 27.5,-13.2 21.3,-13.2 C11.6,-13.2 0,-5 0,4.2"/>
<path class="Note" transform="matrix(0.992,0,0,0.992,2300.82,1167.4)" d="M0,4.2 C0,8.5 3.1,13.3 11.2,13.3 C21.6,13.3 32.5,4.8 32.5,-4 C32.5,-9.9 27.5,-13.2 21.3,-13.2 C11.6,-13.2 0,-5 0,4.2"/>
<path class="Note" transform="matrix(0.992,0,0,0.992,941.073,1229.4)" d="M0,4.2 C0,8.5 3.1,13.3 11.2,13.3 C21.6,13.3 32.5,4.8 32.5,-4 C32.5,-9.9 27.5,-13.2 21.3,-13.2 C11.6,-13.2 0,-5 0,4.2"/>
<path class="Note" transform="matrix(0.992,0,0,0.992,2130.44,696.198)" d="M0,4.2 C0,8.5 3.1,13.3 11.2,13.3 C21.6,13.3 32.5,4.8 32.5,-4 C32.5,-9.9 27.5,-13.2 21.3,-13.2 C11.6,-13.2 0,-5 0,4.2"/>
<path class="Note" transform="matrix(0.992,0,0,0.992,1269.36,1204.6)" d="M0,4.2 C0,8.5 3.1,13.3 11.2,13.3 C21.6,13.3 32.5,4.8 32.5,-4 C32.5,-9.9 27.5,-13.2 21.3,-13.2 C11.6,-13.2 0,-5 0,4.2"/>
<path class="Note" transform="matrix(0.992,0,0,0.992,1026.34,708.598)" d="M0,4.2 C0,8.5 3.1,13.3 11.2,13.3 C21.6,13.3 32.5,4.8 32.5,-4 C32.5,-9.9 27.5,-13.2 21.3,-13.2 C11.6,-13.2 0,-5 0,4.2"/>
<path class="Note" transform="matrix(0.992,0,0,0.992,1061.09,1179.8)" d="M0,4.2 C0,8.5 3.1,13.3 11.2,13.3 C21.6,13.3 32.5,4.8 32.5,-4 C32.5,-9.9 27.5,-13.2 21.3,-13.2 C11.6,-13.2 0,-5 0,4.2"/>
<path class="Note" transform="matrix(0.992,0,0,0.992,2384.13,1155)" d="M0,4.2 C0,8.5 3.1,13.3 11.2,13.3 C21.6,13.3 32.5,4.8 32.5,-4 C32.5,-9.9 27.5,-13.2 21.3,-13.2 C11.6,-13.2 0,-5 0,4.2"/>
<path class="Note" transform="matrix(0.992,0,0,0.992,752.442,733.398)" d="M0,4.2 C0,8.5 3.1,13.3 11.2,13.3 C21.6,13.3 32.5,4.8 32.5,-4 C32.5,-9.9 27.5,-13.2 21.3,-13.2 C11.6,-13.2 0,-5 0,4.2"/>
<path class="Note" transform="matrix(0.992,0,0,0.992,910.574,758.198)" d="M0,4.2 C0,8.5 3.1,13.3 11.2,13.3 C21.6,13.3 32.5,4.8 32.5,-4 C32.5,-9.9 27.5,-13.2 21.3,-13.2 C11.6,-13.2 0,-5 0,4.2"/>
<path class="Note" transform="matrix(0.992,0,0,0.992,2051.37,696.198)" d="M0,4.2 C0,8.5 3.1,13.3 11.2,13.3 C21.6,13.3 32.5,4.8 32.5,-4 C32.5,-9.9 27.5,-13.2 21.3,-13.2 C11.6,-13.2 0,-5 0,4.2"/>
<path class="Clef" transform="matrix(0.992,0,0,0.992,232.438,708.598)" d="M12.3,51.3 C12.3,57.9 17.3,66.6 30.8,66.6 C35.5,66.6 39.6,65.4 43.2,63.2 C48.6,59.4 50,52.8 50,46.5 C50,42.6 49.4,38.1 48.4,32.4 C48.1,30.4 47.5,27.4 46.9,23.5 C56.7,20.3 64,10.1 64,-0.2 C64,-15.3 53.3,-25.5 38.7,-25.5 C37.7,-31.5 36.7,-37.4 35.9,-43 C46.4,-54.1 53.7,-66.6 53.7,-82.5 C53.7,-91.6 50.9,-99 49.3,-102.6 C46.9,-107.7 44,-111.2 42.2,-111.2 C41.5,-111.2 38.4,-110 35.1,-106.1 C28.7,-98.5 26.9,-85.7 26.9,-77.3 C26.9,-71.9 27.4,-67 29.1,-55.8 C29,-55.7 23.8,-50.4 21.7,-48.7 C12.6,-40.3 0,-28.1 0,-8.1 C0,10.6 16.3,25.3 34.9,25.3 C37.8,25.3 40.5,25 42.8,24.6 C44.7,34.2 45.9,41.2 45.9,46.5 C45.9,56.9 40.5,62.4 30.4,62.4 C28,62.4 25.9,61.9 25.7,61.9 C25.6,61.8 25.4,61.7 25.4,61.6 C25.4,61.4 25.6,61.3 25.9,61.3 C30.6,60.5 35.3,56.5 35.3,50.1 C35.3,44.7 31.2,39 23.7,39 C16.7,39 12.3,44.7 12.3,51.3 M33.2,-82.2 C34.1,-86.2 38.7,-96.7 43.9,-96.7 C45.4,-96.7 47.8,-91.9 47.8,-84.9 C47.8,-74.5 40.1,-66.7 33.2,-59.9 C32.6,-63.9 32.1,-67.8 32.1,-72 C32.1,-75.7 32.4,-79.1 33.2,-82.2 M42,20.6 C40,21 38.1,21.2 36.2,21.2 C21.9,21.2 9.7,11.2 9.7,-3.9 C9.7,-16.1 18.3,-27 27.1,-34.6 C28.8,-36.1 30.4,-37.5 31.9,-39 C32.8,-33.6 33.5,-28.9 34.2,-24.8 C25.1,-22.1 18.9,-12.5 18.9,-3.1 C18.9,3.9 24.4,13.5 32.4,13.5 C33.2,13.5 34.1,13.1 34.1,12.2 C34.1,11.3 33.1,10.8 31.9,10 C28,7.6 25.8,5 25.8,0.1 C25.8,-6 30.4,-10.9 36.2,-12.3 L42,20.6 M56.2,2.1 C56.2,9.2 53.3,16.5 46.2,19.4 C44.1,7.4 41.4,-8.5 40.7,-12.9 C49.7,-12.9 56.2,-6.8 56.2,2.1"/>
<path class="Clef" transform="matrix(0.992,0,0,0.992,232.438,1179.8)" d="M12.3,51.3 C12.3,57.9 17.3,66.6 30.8,66.6 C35.5,66.6 39.6,65.4 43.2,63.2 C48.6,59.4 50,52.8 50,46.5 C50,42.6 49.4,38.1 48.4,32.4 C48.1,30.4 47.5,27.4 46.9,23.5 C56.7,20.3 64,10.1 64,-0.2 C64,-15.3 53.3,-25.5 38.7,-25.5 C37.7,-31.5 36.7,-37.4 35.9,-43 C46.4,-54.1 53.7,-66.6 53.7,-82.5 C53.7,-91.6 50.9,-99 49.3,-102.6 C46.9,-107.7 44,-111.2 42.2,-111.2 C41.5,-111.2 38.4,-110 35.1,-106.1 C28.7,-98.5 26.9,-85.7 26.9,-77.3 C26.9,-71.9 27.4,-67 29.1,-55.8 C29,-55.7 23.8,-50.4 21.7,-48.7 C12.6,-40.3 0,-28.1 0,-8.1 C0,10.6 16.3,25.3 34.9,25.3 C37.8,25.3 40.5,25 42.8,24.6 C44.7,34.2 45.9,41.2 45.9,46.5 C45.9,56.9 40.5,62.4 30.4,62.4 C28,62.4 25.9,61.9 25.7,61.9 C25.6,61.8 25.4,61.7 25.4,61.6 C25.4,61.4 25.6,61.3 25.9,61.3 C30.6,60.5 35.3,56.5 35.3,50.1 C35.3,44.7 31.2,39 23.7,39 C16.7,39 12.3,44.7 12.3,51.3 M33.2,-82.2 C34.1,-86.2 38.7,-96.7 43.9,-96.7 C45.4,-96.7 47.8,-91.9 47.8,-84.9 C47.8,-74.5 40.1,-66.7 33.2,-59.9 C32.6,-63.9 32.1,-67.8 32.1,-72 C32.1,-75.7 32.4,-79.1 33.2,-82.2 M42,20.6 C40,21 38.1,21.2 36.2,21.2 C21.9,21.2 9.7,11.2 9.7,-3.9 C9.7,-16.1 18.3,-27 27.1,-34.6 C28.8,-36.1 30.4,-37.5 31.9,-39 C32.8,-33.6 33.5,-28.9 34.2,-24.8 C25.1,-22.1 18.9,-12.5 18.9,-3.1 C18.9,3.9 24.4,13.5 32.4,13.5 C33.2,13.5 34.1,13.1 34.1,12.2 C34.1,11.3 33.1,10.8 31.9,10 C28,7.6 25.8,5 25.8,0.1 C25.8,-6 30.4,-10.9 36.2,-12.3 L42,20.6 M56.2,2.1 C56.2,9.2 53.3,16.5 46.2,19.4 C44.1,7.4 41.4,-8.5 40.7,-12.9 C49.7,-12.9 56.2,-6.8 56.2,2.1"/>
<path class="TimeSig" transform="matrix(0.992,0,0,0.992,322.602,659.494)" d="M34.2,3.9 C33.4,6.1 31.4,13.3 26.5,13.3 C20,13.3 18.6,9.3 13.2,9.3 C12.4,9.3 11.6,9.4 10.6,9.6 C10.6,9.6 13.1,5.8 23.7,2.5 C34.3,-0.8 37,-6 37,-12 C37,-16.2 35.1,-24.5 20,-24.5 C4.9,-24.5 2.1,-15.4 2.1,-10.8 C2.1,-6.7 5.5,-3.4 9.6,-3.4 C13.7,-3.4 17,-6.7 17,-10.8 C17,-13.6 15,-16.7 12.4,-17.7 C12.1,-17.8 11.7,-18.3 11.7,-18.8 C11.7,-19.4 12.2,-20.1 14,-20.6 C14.5,-20.8 15.9,-21.1 17.4,-21.1 C23.1,-21.1 24.2,-17.6 24.2,-12.5 C24.2,-0.8 10.3,1.7 4.5,10.4 C4.5,10.4 1.5,14.6 1.5,19.3 C1.5,24 3.9,24.3 5.1,24.3 C6.7,24.3 8.4,23 8.4,21.2 C8.4,20.8 8.3,20.4 8.1,19.9 C7.5,18.5 7.3,17.4 7.3,16.6 C7.3,16.3 7.3,16 7.4,15.7 C7.5,15.1 8.3,14.1 10.7,14.1 C13.6,14.1 14.7,17.5 16.5,20.1 C18.3,22.7 21.1,24.3 24.3,24.3 C27.5,24.3 31.8,22 33.6,18.3 C35.4,14.6 37.7,7.1 37.7,4.4 C37.7,3.1 36.9,2.5 36,2.5 C35.3,2.5 34.6,2.9 34.2,3.9"/>
<path class="TimeSig" transform="matrix(0.992,0,0,0.992,319.331,708.598)" d="M20.8,12.7 L20.8,20.1 L12.5,20.1 C11.8,20.1 11.1,20.7 11.1,21.5 L11.1,23.4 C11.1,24.2 11.8,24.8 12.5,24.8 L42.8,24.8 C43.6,24.8 44.2,24.2 44.2,23.4 L44.2,21.5 C44.2,20.7 43.6,20.1 42.8,20.1 L33.9,20.1 L33.9,12.7 L42.8,12.7 C43.6,12.7 44.2,12 44.2,11.2 L44.2,9.3 C44.2,8.6 43.6,7.9 42.8,7.9 L33.9,7.9 L33.9,-8 C33.9,-8.6 33.6,-9.1 33.1,-9.3 L31.9,-9.9 C31.7,-10 31.4,-10.1 31.2,-10.1 C30.9,-10 30.5,-9.9 30.3,-9.7 L21.2,-1.4 C20.9,-1.1 20.8,-0.7 20.8,-0.3 L20.8,7.9 L9.3,7.9 C9.3,7.9 20.4,-4.1 32.2,-19.9 C32.6,-20.4 32.7,-20.9 32.7,-21.3 C32.7,-21.8 32.5,-22.2 32.4,-22.3 L30.2,-24.5 C30,-24.7 29.6,-24.9 29.2,-24.9 C28.6,-24.9 15.1,-24.9 14.4,-24.9 C13.6,-24.9 13.1,-24.3 13,-23.7 C13,-23.7 12.5,-16.3 9.9,-8.2 C7.3,-0.1 4.3,4.9 1.7,8.6 C1.7,8.6 1.4,9.1 1.4,9.7 C1.4,9.9 1.4,10.1 1.5,10.3 C1.9,11 2.5,12.1 2.5,12.1 C2.5,12.1 2.7,12.7 3.6,12.7 L20.8,12.7 "/>
<path class="Rest" transform="matrix(0.992,0,0,0.992,2641.54,683.798)" d="M26.7,-20.3 C26.6,-20.3 26.4,-20.4 26.3,-20.4 C25.7,-20.4 25.2,-20.1 25,-19.6 C22.7,-15 17.9,-8.8 12.5,-7.8 C13.6,-9.1 14.3,-10.7 14.3,-12.6 C14.3,-16.5 11.1,-19.7 7.2,-19.7 C3.2,-19.7 0,-16.5 0,-12.6 C0,-7.2 5.3,-4.7 10,-4.7 C15.3,-4.7 18.8,-7.2 22.2,-10.9 L10.8,24.7 L13.5,25.5 L27.5,-18.6 C27.6,-18.7 27.6,-18.9 27.6,-19.1 C27.6,-19.6 27.3,-20 26.7,-20.3"/>
<path class="Rest" transform="matrix(0.992,0,0,0.992,1477.63,1155)" d="M26.7,-20.3 C26.6,-20.3 26.4,-20.4 26.3,-20.4 C25.7,-20.4 25.2,-20.1 25,-19.6 C22.7,-15 17.9,-8.8 12.5,-7.8 C13.6,-9.1 14.3,-10.7 14.3,-12.6 C14.3,-16.5 11.1,-19.7 7.2,-19.7 C3.2,-19.7 0,-16.5 0,-12.6 C0,-7.2 5.3,-4.7 10,-4.7 C15.3,-4.7 18.8,-7.2 22.2,-10.9 L10.8,24.7 L13.5,25.5 L27.5,-18.6 C27.6,-18.7 27.6,-18.9 27.6,-19.1 C27.6,-19.6 27.3,-20 26.7,-20.3"/>
<path class="Rest" transform="matrix(0.992,0,0,0.992,1421.67,683.798)" d="M26.7,-20.3 C26.6,-20.3 26.4,-20.4 26.3,-20.4 C25.7,-20.4 25.2,-20.1 25,-19.6 C22.7,-15 17.9,-8.8 12.5,-7.8 C13.6,-9.1 14.3,-10.7 14.3,-12.6 C14.3,-16.5 11.1,-19.7 7.2,-19.7 C3.2,-19.7 0,-16.5 0,-12.6 C0,-7.2 5.3,-4.7 10,-4.7 C15.3,-4.7 18.8,-7.2 22.2,-10.9 L10.8,24.7 L13.5,25.5 L27.5,-18.6 C27.6,-18.7 27.6,-18.9 27.6,-19.1 C27.6,-19.6 27.3,-20 26.7,-20.3"/>
<path class="Beam" fill-rule="evenodd" d="M1922.74,609.398 L2162.66,609.398 L2162.66,621.798 L1922.74,621.798 L1922.74,609.398 "/>
<path class="Beam" fill-rule="evenodd" d="M1922.74,627.998 L2162.66,627.998 L2162.66,640.398 L1922.74,640.398 L1922.74,627.998 "/>
<path class="Beam" fill-rule="evenodd" d="M2275.71,596.972 L2476.1,615.572 L2476.1,628.025 L2275.71,609.425 L2275.71,596.972 "/>
<path class="Beam" fill-rule="evenodd" d="M2394.3,626.58 L2476.1,634.172 L2476.1,646.625 L2394.3,639.033 L2394.3,626.58 "/>
<path class="Beam" fill-rule="evenodd" d="M426.142,627.995 L626.535,634.195 L626.535,646.601 L426.142,640.401 L426.142,627.995 "/>
<path class="Beam" fill-rule="evenodd" d="M544.741,650.265 L626.535,652.795 L626.535,665.201 L544.741,662.671 L544.741,650.265 "/>
<path class="Beam" fill-rule="evenodd" d="M1668.79,1099.19 L1796.49,1105.39 L1796.49,1117.81 L1668.79,1111.61 L1668.79,1099.19 "/>
<path class="Beam" fill-rule="evenodd" d="M702.873,627.996 L942.799,634.196 L942.799,646.6 L702.873,640.4 L702.873,627.996 "/>
<path class="Beam" fill-rule="evenodd" d="M702.873,646.596 L942.799,652.796 L942.799,665.2 L702.873,659 L702.873,646.596 "/>
<path class="Beam" fill-rule="evenodd" d="M720.643,1099.2 L973.298,1105.4 L973.298,1117.8 L720.643,1111.6 L720.643,1099.2 "/>
<path class="Beam" fill-rule="evenodd" d="M720.643,1117.8 L973.298,1124 L973.298,1136.4 L720.643,1130.2 L720.643,1117.8 "/>
<path class="Beam" fill-rule="evenodd" d="M1055.84,627.995 L1256.23,634.195 L1256.23,646.601 L1055.84,640.401 L1055.84,627.995 "/>
<path class="Beam" fill-rule="evenodd" d="M1174.44,650.265 L1256.23,652.795 L1256.23,665.201 L1174.44,662.671 L1174.44,650.265 "/>
<path class="Beam" fill-rule="evenodd" d="M387.407,1099.2 L640.062,1105.4 L640.062,1117.8 L387.407,1111.6 L387.407,1099.2 "/>
<path class="Beam" fill-rule="evenodd" d="M387.407,1117.8 L640.062,1124 L640.062,1136.4 L387.407,1130.2 L387.407,1117.8 "/>
<path class="Beam" fill-rule="evenodd" d="M2247.01,1080.6 L2499.66,1074.4 L2499.66,1086.8 L2247.01,1093 L2247.01,1080.6 "/>
<path class="Beam" fill-rule="evenodd" d="M2247.01,1099.2 L2499.66,1093 L2499.66,1105.4 L2247.01,1111.6 L2247.01,1099.2 "/>
<path class="Beam" fill-rule="evenodd" d="M1918.72,1080.6 L2129.72,1086.8 L2129.72,1099.2 L1918.72,1093 L1918.72,1080.6 "/>
<path class="Beam" fill-rule="evenodd" d="M2043.68,1102.87 L2129.72,1105.4 L2129.72,1117.8 L2043.68,1115.27 L2043.68,1102.87 "/>
<path class="Beam" fill-rule="evenodd" d="M1606.47,634.196 L1846.4,627.996 L1846.4,640.4 L1606.47,646.6 L1606.47,634.196 "/>
<path class="Beam" fill-rule="evenodd" d="M1606.47,652.796 L1846.4,646.596 L1846.4,659 L1606.47,665.2 L1606.47,652.796 "/>
<path class="Beam" fill-rule="evenodd" d="M1090.58,1099.2 L1301.58,1105.4 L1301.58,1117.8 L1090.58,1111.6 L1090.58,1099.2 "/>
<path class="Beam" fill-rule="evenodd" d="M1215.55,1121.47 L1301.58,1124 L1301.58,1136.4 L1215.55,1133.87 L1215.55,1121.47 "/>
<path class="Harmony" d="M2278.89,532.103 L2276.8,532.103 L2274.6,535.348 C2270.58,532.433 2268.55,531.663 2264.75,531.663 C2259.53,531.663 2255.07,533.863 2251.39,538.263 C2247.87,542.443 2246.22,547.063 2246.22,552.728 C2246.22,564.608 2253.97,573.023 2264.81,573.023 C2273.61,573.023 2279.22,567.853 2280.48,558.613 L2277.9,558.173 C2276.41,566.368 2272.23,570.438 2265.47,570.438 C2257.33,570.438 2253.48,564.828 2253.48,552.948 C2253.48,546.678 2254.3,542.553 2256.17,539.253 C2257.88,536.173 2261.23,534.248 2264.81,534.248 C2268.66,534.248 2272.07,536.283 2274.16,539.803 C2275.2,541.618 2275.97,543.653 2277.29,547.998 L2279.71,547.998 L2278.89,532.103 "/>
<path class="Harmony" d="M1925.97,532.488 L1893.24,532.488 L1893.24,535.073 L1894.23,535.073 C1897.37,535.128 1898.41,535.293 1898.85,535.843 C1899.18,536.338 1899.18,536.448 1899.18,539.253 L1899.18,565.433 C1899.18,568.238 1899.18,568.348 1898.85,568.843 C1898.41,569.393 1897.37,569.613 1894.23,569.613 L1893.24,569.613 L1893.24,572.198 L1912.11,572.198 L1912.11,569.613 L1910.29,569.613 C1907.16,569.613 1906.11,569.393 1905.67,568.843 C1905.34,568.348 1905.34,568.183 1905.34,565.433 L1905.34,552.948 L1906.44,552.948 C1912.11,552.728 1914.14,554.763 1914.36,560.868 L1916.95,560.868 L1916.95,542.828 L1914.36,542.828 C1914.03,548.218 1911.89,550.308 1906.66,550.363 L1905.34,550.363 L1905.34,537.823 C1905.29,535.513 1905.84,535.128 1908.81,535.073 L1911.34,535.073 C1920.36,535.018 1922.61,537.053 1924.32,546.513 L1926.74,546.513 L1925.97,532.488 "/>
<path class="Harmony" d="M1093.76,1003.3 L1091.67,1003.3 L1089.47,1006.55 C1085.46,1003.63 1083.42,1002.86 1079.63,1002.86 C1074.4,1002.86 1069.95,1005.06 1066.26,1009.46 C1062.74,1013.64 1061.09,1018.26 1061.09,1023.93 C1061.09,1035.81 1068.85,1044.22 1079.68,1044.22 C1088.48,1044.22 1094.09,1039.05 1095.36,1029.81 L1092.77,1029.37 C1091.29,1037.57 1087.11,1041.64 1080.34,1041.64 C1072.2,1041.64 1068.35,1036.03 1068.35,1024.15 C1068.35,1017.88 1069.18,1013.75 1071.05,1010.45 C1072.75,1007.37 1076.11,1005.45 1079.68,1005.45 C1083.53,1005.45 1086.94,1007.48 1089.03,1011 C1090.08,1012.82 1090.85,1014.85 1092.17,1019.2 L1094.59,1019.2 L1093.76,1003.3 "/>
<path class="Harmony" d="M1609.65,532.103 L1607.56,532.103 L1605.36,535.348 C1601.35,532.433 1599.31,531.663 1595.52,531.663 C1590.29,531.663 1585.84,533.863 1582.15,538.263 C1578.63,542.443 1576.98,547.063 1576.98,552.728 C1576.98,564.608 1584.74,573.023 1595.57,573.023 C1604.37,573.023 1609.98,567.853 1611.25,558.613 L1608.66,558.173 C1607.18,566.368 1603,570.438 1596.23,570.438 C1588.09,570.438 1584.24,564.828 1584.24,552.948 C1584.24,546.678 1585.07,542.553 1586.94,539.253 C1588.64,536.173 1592,534.248 1595.57,534.248 C1599.42,534.248 1602.83,536.283 1604.92,539.803 C1605.97,541.618 1606.74,543.653 1608.06,547.998 L1610.48,547.998 L1609.65,532.103 "/>
<path class="Harmony" d="M1921.95,1003.69 L1889.23,1003.69 L1889.23,1006.27 L1890.22,1006.27 C1893.35,1006.33 1894.4,1006.49 1894.84,1007.04 C1895.17,1007.54 1895.17,1007.65 1895.17,1010.45 L1895.17,1036.63 C1895.17,1039.44 1895.17,1039.55 1894.84,1040.04 C1894.4,1040.59 1893.35,1040.81 1890.22,1040.81 L1889.23,1040.81 L1889.23,1043.4 L1908.09,1043.4 L1908.09,1040.81 L1906.28,1040.81 C1903.14,1040.81 1902.1,1040.59 1901.66,1040.04 C1901.33,1039.55 1901.33,1039.38 1901.33,1036.63 L1901.33,1024.15 L1902.43,1024.15 C1908.09,1023.93 1910.13,1025.96 1910.35,1032.07 L1912.93,1032.07 L1912.93,1014.03 L1910.35,1014.03 C1910.02,1019.42 1907.87,1021.51 1902.65,1021.56 L1901.33,1021.56 L1901.33,1009.02 C1901.27,1006.71 1901.82,1006.33 1904.79,1006.27 L1907.32,1006.27 C1916.34,1006.22 1918.6,1008.25 1920.3,1017.71 L1922.72,1017.71 L1921.95,1003.69 "/>
<path class="Harmony" d="M1386.12,1003.3 L1384.03,1003.3 L1381.89,1006.6 C1378.31,1003.8 1375.89,1002.86 1371.88,1002.86 C1367.53,1002.86 1364.12,1004.07 1360.66,1006.88 C1355.21,1011.28 1352.68,1016.83 1352.68,1024.26 C1352.68,1029.87 1354.28,1034.54 1357.52,1038.12 C1360.93,1041.97 1365.99,1044.22 1371.27,1044.22 C1375.89,1044.22 1379.14,1042.79 1382.71,1039.22 L1384.75,1044.17 L1387.06,1044.17 L1387.06,1032.07 C1387.06,1029.26 1387.06,1029.15 1387.39,1028.66 C1387.88,1028.05 1388.87,1027.89 1392.01,1027.89 L1392.83,1027.89 L1392.83,1025.3 L1375.34,1025.3 L1375.34,1027.89 L1376.39,1027.89 C1381.01,1027.89 1381.39,1028.16 1381.39,1031.24 C1381.39,1033.61 1381.01,1035.75 1380.29,1037.07 C1378.92,1039.77 1375.4,1041.64 1371.82,1041.64 C1368.25,1041.64 1364.73,1039.82 1362.86,1037.07 C1360.82,1033.99 1359.94,1030.14 1359.94,1024.26 C1359.94,1011.99 1364.01,1005.45 1371.66,1005.45 C1377.93,1005.45 1382.27,1009.96 1384.53,1018.76 L1386.89,1018.76 L1386.12,1003.3 "/>
<path class="Harmony" d="M1398.85,1017.99 L1401.27,1018.37 L1402.26,1014.03 C1403.08,1010.4 1403.47,1009.85 1405.06,1009.85 C1405.34,1009.85 1405.78,1009.85 1406.27,1009.9 C1413.04,1010.23 1413.04,1010.23 1415.57,1010.23 C1416.28,1010.23 1417.55,1010.23 1419.09,1010.18 L1415.35,1017.71 C1411.28,1025.8 1410.78,1026.79 1409.41,1030.2 C1407.7,1034.32 1406.82,1037.79 1406.82,1040.1 C1406.82,1042.63 1408.14,1044.17 1410.29,1044.17 C1412.93,1044.17 1413.97,1042.41 1413.92,1037.62 C1413.64,1029.7 1414.63,1025.85 1420.52,1012.98 C1421.51,1010.84 1422.55,1008.64 1423.54,1006.49 L1423.54,1004.9 C1420.24,1005.17 1418.48,1005.28 1415.07,1005.28 C1410.29,1005.28 1406.49,1005.12 1400.55,1004.68 L1398.85,1017.99 "/>
<path class="Harmony" d="M2556.39,532.103 L2554.3,532.103 L2552.16,535.403 C2548.58,532.598 2546.16,531.663 2542.15,531.663 C2537.8,531.663 2534.39,532.873 2530.93,535.678 C2525.48,540.078 2522.95,545.633 2522.95,553.058 C2522.95,558.668 2524.55,563.343 2527.79,566.918 C2531.2,570.768 2536.26,573.023 2541.54,573.023 C2546.16,573.023 2549.41,571.593 2552.98,568.018 L2555.02,572.968 L2557.33,572.968 L2557.33,560.868 C2557.33,558.063 2557.33,557.953 2557.66,557.458 C2558.15,556.853 2559.14,556.688 2562.28,556.688 L2563.1,556.688 L2563.1,554.103 L2545.61,554.103 L2545.61,556.688 L2546.66,556.688 C2551.28,556.688 2551.66,556.963 2551.66,560.043 C2551.66,562.408 2551.28,564.553 2550.56,565.873 C2549.19,568.568 2545.67,570.438 2542.09,570.438 C2538.52,570.438 2535,568.623 2533.13,565.873 C2531.09,562.793 2530.21,558.943 2530.21,553.058 C2530.21,540.793 2534.28,534.248 2541.93,534.248 C2548.2,534.248 2552.54,538.758 2554.8,547.558 L2557.16,547.558 L2556.39,532.103 "/>
<path class="Harmony" d="M2569.12,546.788 L2571.54,547.173 L2572.53,542.828 C2573.36,539.198 2573.74,538.648 2575.34,538.648 C2575.61,538.648 2576.05,538.648 2576.55,538.703 C2583.31,539.033 2583.31,539.033 2585.84,539.033 C2586.56,539.033 2587.82,539.033 2589.36,538.978 L2585.62,546.513 C2581.55,554.598 2581.06,555.588 2579.68,558.998 C2577.98,563.123 2577.1,566.588 2577.1,568.898 C2577.1,571.428 2578.42,572.968 2580.56,572.968 C2583.2,572.968 2584.25,571.208 2584.19,566.423 C2583.92,558.503 2584.91,554.653 2590.79,541.783 C2591.78,539.638 2592.83,537.438 2593.82,535.293 L2593.82,533.698 C2590.52,533.973 2588.76,534.083 2585.35,534.083 C2580.56,534.083 2576.77,533.918 2570.83,533.478 L2569.12,546.788 "/>
<path class="Harmony" d="M2250.19,1003.3 L2248.1,1003.3 L2245.9,1006.55 C2241.88,1003.63 2239.85,1002.86 2236.05,1002.86 C2230.83,1002.86 2226.37,1005.06 2222.69,1009.46 C2219.17,1013.64 2217.52,1018.26 2217.52,1023.93 C2217.52,1035.81 2225.27,1044.22 2236.11,1044.22 C2244.91,1044.22 2250.52,1039.05 2251.78,1029.81 L2249.2,1029.37 C2247.71,1037.57 2243.53,1041.64 2236.77,1041.64 C2228.63,1041.64 2224.78,1036.03 2224.78,1024.15 C2224.78,1017.88 2225.6,1013.75 2227.47,1010.45 C2229.18,1007.37 2232.53,1005.45 2236.11,1005.45 C2239.96,1005.45 2243.37,1007.48 2245.46,1011 C2246.5,1012.82 2247.27,1014.85 2248.59,1019.2 L2251.01,1019.2 L2250.19,1003.3 "/>
<path class="Harmony" d="M1336.53,532.103 L1334.44,532.103 L1332.29,535.403 C1328.72,532.598 1326.3,531.663 1322.28,531.663 C1317.94,531.663 1314.53,532.873 1311.06,535.678 C1305.62,540.078 1303.09,545.633 1303.09,553.058 C1303.09,558.668 1304.68,563.343 1307.93,566.918 C1311.34,570.768 1316.4,573.023 1321.68,573.023 C1326.3,573.023 1329.54,571.593 1333.12,568.018 L1335.15,572.968 L1337.46,572.968 L1337.46,560.868 C1337.46,558.063 1337.46,557.953 1337.79,557.458 C1338.29,556.853 1339.28,556.688 1342.41,556.688 L1343.24,556.688 L1343.24,554.103 L1325.75,554.103 L1325.75,556.688 L1326.79,556.688 C1331.41,556.688 1331.8,556.963 1331.8,560.043 C1331.8,562.408 1331.41,564.553 1330.7,565.873 C1329.32,568.568 1325.8,570.438 1322.23,570.438 C1318.65,570.438 1315.13,568.623 1313.26,565.873 C1311.23,562.793 1310.35,558.943 1310.35,553.058 C1310.35,540.793 1314.42,534.248 1322.06,534.248 C1328.33,534.248 1332.68,538.758 1334.93,547.558 L1337.3,547.558 L1336.53,532.103 "/>
<path class="Harmony" d="M1349.26,546.788 L1351.68,547.173 L1352.67,542.828 C1353.49,539.198 1353.88,538.648 1355.47,538.648 C1355.75,538.648 1356.19,538.648 1356.68,538.703 C1363.45,539.033 1363.45,539.033 1365.98,539.033 C1366.69,539.033 1367.96,539.033 1369.5,538.978 L1365.76,546.513 C1361.69,554.598 1361.19,555.588 1359.82,558.998 C1358.11,563.123 1357.23,566.588 1357.23,568.898 C1357.23,571.428 1358.55,572.968 1360.7,572.968 C1363.34,572.968 1364.38,571.208 1364.33,566.423 C1364.05,558.503 1365.04,554.653 1370.93,541.783 C1371.92,539.638 1372.96,537.438 1373.95,535.293 L1373.95,533.698 C1370.65,533.973 1368.89,534.083 1365.48,534.083 C1360.7,534.083 1356.9,533.918 1350.96,533.478 L1349.26,546.788 "/>
<path class="Harmony" d="M1059.02,532.103 L1056.93,532.103 L1054.73,535.348 C1050.72,532.433 1048.68,531.663 1044.89,531.663 C1039.66,531.663 1035.21,533.863 1031.52,538.263 C1028,542.443 1026.35,547.063 1026.35,552.728 C1026.35,564.608 1034.11,573.023 1044.94,573.023 C1053.74,573.023 1059.35,567.853 1060.62,558.613 L1058.03,558.173 C1056.55,566.368 1052.37,570.438 1045.6,570.438 C1037.46,570.438 1033.61,564.828 1033.61,552.948 C1033.61,546.678 1034.44,542.553 1036.31,539.253 C1038.01,536.173 1041.37,534.248 1044.94,534.248 C1048.79,534.248 1052.2,536.283 1054.29,539.803 C1055.34,541.618 1056.11,543.653 1057.43,547.998 L1059.85,547.998 L1059.02,532.103 "/>
<path class="Harmony" d="M390.587,1003.3 L388.497,1003.3 L386.297,1006.55 C382.282,1003.63 380.247,1002.86 376.452,1002.86 C371.227,1002.86 366.772,1005.06 363.087,1009.46 C359.567,1013.64 357.917,1018.26 357.917,1023.93 C357.917,1035.81 365.672,1044.22 376.507,1044.22 C385.307,1044.22 390.917,1039.05 392.182,1029.81 L389.597,1029.37 C388.112,1037.57 383.932,1041.64 377.167,1041.64 C369.027,1041.64 365.177,1036.03 365.177,1024.15 C365.177,1017.88 366.002,1013.75 367.872,1010.45 C369.577,1007.37 372.932,1005.45 376.507,1005.45 C380.357,1005.45 383.767,1007.48 385.857,1011 C386.902,1012.82 387.672,1014.85 388.992,1019.2 L391.412,1019.2 L390.587,1003.3 "/>
<path class="Harmony" d="M706.103,532.488 L673.378,532.488 L673.378,535.073 L674.368,535.073 C677.503,535.128 678.548,535.293 678.988,535.843 C679.318,536.338 679.318,536.448 679.318,539.253 L679.318,565.433 C679.318,568.238 679.318,568.348 678.988,568.843 C678.548,569.393 677.503,569.613 674.368,569.613 L673.378,569.613 L673.378,572.198 L692.243,572.198 L692.243,569.613 L690.428,569.613 C687.293,569.613 686.248,569.393 685.808,568.843 C685.478,568.348 685.478,568.183 685.478,565.433 L685.478,552.948 L686.578,552.948 C692.243,552.728 694.278,554.763 694.498,560.868 L697.083,560.868 L697.083,542.828 L694.498,542.828 C694.168,548.218 692.023,550.308 686.798,550.363 L685.478,550.363 L685.478,537.823 C685.423,535.513 685.973,535.128 688.943,535.073 L691.473,535.073 C700.493,535.018 702.748,537.053 704.453,546.513 L706.873,546.513 L706.103,532.488 "/>
<path class="Harmony" d="M2417.58,1003.3 L2415.49,1003.3 L2413.35,1006.6 C2409.77,1003.8 2407.35,1002.86 2403.34,1002.86 C2398.99,1002.86 2395.58,1004.07 2392.12,1006.88 C2386.67,1011.28 2384.14,1016.83 2384.14,1024.26 C2384.14,1029.87 2385.74,1034.54 2388.98,1038.12 C2392.39,1041.97 2397.45,1044.22 2402.73,1044.22 C2407.35,1044.22 2410.6,1042.79 2414.17,1039.22 L2416.21,1044.17 L2418.52,1044.17 L2418.52,1032.07 C2418.52,1029.26 2418.52,1029.15 2418.85,1028.66 C2419.34,1028.05 2420.33,1027.89 2423.47,1027.89 L2424.29,1027.89 L2424.29,1025.3 L2406.8,1025.3 L2406.8,1027.89 L2407.85,1027.89 C2412.47,1027.89 2412.85,1028.16 2412.85,1031.24 C2412.85,1033.61 2412.47,1035.75 2411.75,1037.07 C2410.38,1039.77 2406.86,1041.64 2403.28,1041.64 C2399.71,1041.64 2396.19,1039.82 2394.32,1037.07 C2392.28,1033.99 2391.4,1030.14 2391.4,1024.26 C2391.4,1011.99 2395.47,1005.45 2403.12,1005.45 C2409.39,1005.45 2413.73,1009.96 2415.99,1018.76 L2418.35,1018.76 L2417.58,1003.3 "/>
<path class="Harmony" d="M2430.31,1017.99 L2432.73,1018.37 L2433.72,1014.03 C2434.54,1010.4 2434.93,1009.85 2436.52,1009.85 C2436.8,1009.85 2437.24,1009.85 2437.73,1009.9 C2444.5,1010.23 2444.5,1010.23 2447.03,1010.23 C2447.74,1010.23 2449.01,1010.23 2450.55,1010.18 L2446.81,1017.71 C2442.74,1025.8 2442.24,1026.79 2440.87,1030.2 C2439.16,1034.32 2438.28,1037.79 2438.28,1040.1 C2438.28,1042.63 2439.6,1044.17 2441.75,1044.17 C2444.39,1044.17 2445.43,1042.41 2445.38,1037.62 C2445.1,1029.7 2446.09,1025.85 2451.98,1012.98 C2452.97,1010.84 2454.01,1008.64 2455,1006.49 L2455,1004.9 C2451.7,1005.17 2449.94,1005.28 2446.53,1005.28 C2441.75,1005.28 2437.95,1005.12 2432.01,1004.68 L2430.31,1017.99 "/>
<path class="Harmony" d="M1671.97,1003.3 L1669.88,1003.3 L1667.68,1006.55 C1663.67,1003.63 1661.63,1002.86 1657.84,1002.86 C1652.61,1002.86 1648.16,1005.06 1644.47,1009.46 C1640.95,1013.64 1639.3,1018.26 1639.3,1023.93 C1639.3,1035.81 1647.06,1044.22 1657.89,1044.22 C1666.69,1044.22 1672.3,1039.05 1673.57,1029.81 L1670.98,1029.37 C1669.5,1037.57 1665.32,1041.64 1658.55,1041.64 C1650.41,1041.64 1646.56,1036.03 1646.56,1024.15 C1646.56,1017.88 1647.39,1013.75 1649.26,1010.45 C1650.96,1007.37 1654.32,1005.45 1657.89,1005.45 C1661.74,1005.45 1665.15,1007.48 1667.24,1011 C1668.29,1012.82 1669.06,1014.85 1670.38,1019.2 L1672.8,1019.2 L1671.97,1003.3 "/>
<path class="Harmony" d="M429.322,532.103 L427.232,532.103 L425.032,535.348 C421.017,532.433 418.982,531.663 415.187,531.663 C409.962,531.663 405.507,533.863 401.822,538.263 C398.302,542.443 396.652,547.063 396.652,552.728 C396.652,564.608 404.407,573.023 415.242,573.023 C424.042,573.023 429.652,567.853 430.917,558.613 L428.332,558.173 C426.847,566.368 422.667,570.438 415.902,570.438 C407.762,570.438 403.912,564.828 403.912,552.948 C403.912,546.678 404.737,542.553 406.607,539.253 C408.312,536.173 411.667,534.248 415.242,534.248 C419.092,534.248 422.502,536.283 424.592,539.803 C425.637,541.618 426.407,543.653 427.727,547.998 L430.147,547.998 L429.322,532.103 "/>
<path class="Harmony" d="M723.873,1003.69 L691.148,1003.69 L691.148,1006.27 L692.138,1006.27 C695.273,1006.33 696.318,1006.49 696.758,1007.04 C697.088,1007.54 697.088,1007.65 697.088,1010.45 L697.088,1036.63 C697.088,1039.44 697.088,1039.55 696.758,1040.04 C696.318,1040.59 695.273,1040.81 692.138,1040.81 L691.148,1040.81 L691.148,1043.4 L710.013,1043.4 L710.013,1040.81 L708.198,1040.81 C705.063,1040.81 704.018,1040.59 703.578,1040.04 C703.248,1039.55 703.248,1039.38 703.248,1036.63 L703.248,1024.15 L704.348,1024.15 C710.013,1023.93 712.048,1025.96 712.268,1032.07 L714.853,1032.07 L714.853,1014.03 L712.268,1014.03 C711.938,1019.42 709.793,1021.51 704.568,1021.56 L703.248,1021.56 L703.248,1009.02 C703.193,1006.71 703.743,1006.33 706.713,1006.27 L709.243,1006.27 C718.263,1006.22 720.518,1008.25 722.223,1017.71 L724.643,1017.71 L723.873,1003.69 "/>
<path class="Harmony" d="M2583.42,1003.3 L2581.33,1003.3 L2579.13,1006.55 C2575.12,1003.63 2573.08,1002.86 2569.29,1002.86 C2564.06,1002.86 2559.61,1005.06 2555.92,1009.46 C2552.4,1013.64 2550.75,1018.26 2550.75,1023.93 C2550.75,1035.81 2558.51,1044.22 2569.34,1044.22 C2578.14,1044.22 2583.75,1039.05 2585.02,1029.81 L2582.43,1029.37 C2580.95,1037.57 2576.77,1041.64 2570,1041.64 C2561.86,1041.64 2558.01,1036.03 2558.01,1024.15 C2558.01,1017.88 2558.84,1013.75 2560.71,1010.45 C2562.41,1007.37 2565.77,1005.45 2569.34,1005.45 C2573.19,1005.45 2576.6,1007.48 2578.69,1011 C2579.74,1012.82 2580.51,1014.85 2581.83,1019.2 L2584.25,1019.2 L2583.42,1003.3 "/>
</svg>
