<?xml version="1.0" encoding="UTF-8" standalone="no"?>
<svg width="2977.2px" height="4208.4px" viewBox="0 0 2977.2 4208.4"
 xmlns="http://www.w3.org/2000/svg" xmlns:xlink="http://www.w3.org/1999/xlink" version="1.2" baseProfile="tiny">
<title>アイルランドの子守歌</title>
<desc>Generated by MuseScore Studio 4.4.0</desc>
<path class="" fill="#ffffff" fill-rule="evenodd" d="M0,0 L2977.2,0 L2977.2,4208.4 L0,4208.4 L0,0 "/>
<polyline class="StaffLines" fill="none" stroke="#000000" stroke-width="2.73" stroke-linejoin="bevel" points="212.598,634.199 2764.6,634.199"/>
<polyline class="StaffLines" fill="none" stroke="#000000" stroke-width="2.73" stroke-linejoin="bevel" points="212.598,658.999 2764.6,658.999"/>
<polyline class="StaffLines" fill="none" stroke="#000000" stroke-width="2.73" stroke-linejoin="bevel" points="212.598,683.799 2764.6,683.799"/>
<polyline class="StaffLines" fill="none" stroke="#000000" stroke-width="2.73" stroke-linejoin="bevel" points="212.598,708.599 2764.6,708.599"/>
<polyline class="StaffLines" fill="none" stroke="#000000" stroke-width="2.73" stroke-linejoin="bevel" points="212.598,733.399 2764.6,733.399"/>
<polyline class="StaffLines" fill="none" stroke="#000000" stroke-width="2.73" stroke-linejoin="bevel" points="212.598,1105.4 2764.6,1105.4"/>
<polyline class="StaffLines" fill="none" stroke="#000000" stroke-width="2.73" stroke-linejoin="bevel" points="212.598,1130.2 2764.6,1130.2"/>
<polyline class="StaffLines" fill="none" stroke="#000000" stroke-width="2.73" stroke-linejoin="bevel" points="212.598,1155 2764.6,1155"/>
<polyline class="StaffLines" fill="none" stroke="#000000" stroke-width="2.73" stroke-linejoin="bevel" points="212.598,1179.8 2764.6,1179.8"/>
<polyline class="StaffLines" fill="none" stroke="#000000" stroke-width="2.73" stroke-linejoin="bevel" points="212.598,1204.6 2764.6,1204.6"/>
<polyline class="StaffLines" fill="none" stroke="#000000" stroke-width="2.73" stroke-linejoin="bevel" points="212.598,1576.6 2764.6,1576.6"/>
<polyline class="StaffLines" fill="none" stroke="#000000" stroke-width="2.73" stroke-linejoin="bevel" points="212.598,1601.4 2764.6,1601.4"/>
<polyline class="StaffLines" fill="none" stroke="#000000" stroke-width="2.73" stroke-linejoin="bevel" points="212.598,1626.2 2764.6,1626.2"/>
<polyline class="StaffLines" fill="none" stroke="#000000" stroke-width="2.73" stroke-linejoin="bevel" points="212.598,1651 2764.6,1651"/>
<polyline class="StaffLines" fill="none" stroke="#000000" stroke-width="2.73" stroke-linejoin="bevel" points="212.598,1675.8 2764.6,1675.8"/>
<path class="Text" d="M1026.39,250.448 C1024.41,251.218 1024.41,251.218 1017.04,251.218 L957.973,251.218 C951.703,251.218 948.623,250.998 944.883,250.448 L944.883,258.918 C948.953,258.478 951.813,258.368 957.863,258.368 L1020.34,258.368 C1017.15,264.638 1013.08,270.028 1008.02,274.758 C1002.85,279.598 998.343,282.238 990.643,285.208 C993.503,287.738 994.383,288.728 996.033,291.478 C1010.33,284.878 1020.56,274.868 1028.15,260.128 C1029.47,257.488 1029.69,257.158 1030.79,255.728 L1026.39,250.448 M978.433,269.588 C978.763,271.678 978.873,272.448 978.873,275.528 C978.873,296.978 974.583,308.198 962.923,317.548 C957.203,322.278 951.703,325.028 942.793,327.668 C945.433,330.418 946.203,331.518 947.853,335.038 C961.163,329.978 969.303,324.478 976.013,316.008 C983.493,306.548 986.573,295.658 986.903,277.288 C987.013,271.568 987.013,271.568 987.343,269.588 L978.433,269.588 M1117.79,244.288 C1114.71,249.458 1107.01,257.158 1096.78,265.078 C1079.4,278.718 1060.37,288.178 1039.69,293.568 C1041.89,296.318 1042.44,297.418 1043.98,300.938 C1064.11,294.118 1072.14,290.488 1086.44,281.688 L1086.44,323.488 C1086.44,329.538 1086.33,332.068 1085.78,334.928 L1095.35,334.928 C1094.91,331.958 1094.8,329.538 1094.8,323.268 L1094.8,276.408 C1104.26,269.588 1113.61,261.558 1120.54,254.298 C1123.29,251.328 1123.4,251.108 1125.38,249.678 L1117.79,244.288 M1165.75,247.808 C1166.08,250.338 1166.19,251.658 1166.19,255.618 C1166.19,278.828 1164.65,293.238 1161.24,302.808 C1157.61,313.038 1151.67,320.958 1142.65,328.108 C1145.95,330.198 1147.05,331.188 1149.25,334.048 C1159.26,324.478 1164.54,317.108 1168.28,306.878 C1172.46,295.768 1173.34,287.628 1174.22,257.818 C1174.44,251.108 1174.44,251.108 1174.88,248.358 L1165.75,247.808 M1193.14,247.038 C1193.58,249.678 1193.58,249.678 1193.58,256.828 L1192.92,321.178 C1192.92,325.908 1192.81,326.788 1192.15,328.658 L1196.55,333.718 C1197.54,333.168 1197.76,333.058 1199.08,332.508 C1200.62,331.958 1200.62,331.958 1202.6,331.188 C1209.09,328.658 1213.49,326.458 1218.33,323.158 C1227.79,316.668 1235.05,307.538 1240.44,294.888 C1237.47,292.468 1236.59,291.478 1234.28,288.508 C1231.64,296.978 1227.35,304.238 1221.3,310.508 C1215.58,316.338 1209.97,319.858 1200.84,323.268 L1201.5,256.828 C1201.5,251.768 1201.61,249.788 1202.16,247.148 L1193.14,247.038 M1270.8,256.828 C1273.77,256.388 1276.41,256.278 1282.24,256.278 L1319.2,256.278 C1325.03,256.278 1327.67,256.388 1330.64,256.828 L1330.64,248.358 C1327.45,249.018 1325.25,249.128 1319.09,249.128 L1282.35,249.128 C1276.19,249.128 1273.99,249.018 1270.8,248.358 L1270.8,256.828 M1261.34,282.128 C1265.08,281.688 1268.27,281.578 1274.1,281.578 L1331.52,281.578 C1326.46,295.108 1321.51,303.248 1313.7,310.398 C1305.45,317.988 1295.77,322.938 1281.03,327.118 C1283.67,330.308 1284.44,331.518 1285.76,334.708 C1314.25,325.138 1329.43,311.058 1338.78,285.428 C1340.65,280.588 1340.87,280.038 1341.86,278.498 L1337.79,273.768 C1335.92,274.428 1334.71,274.538 1330.64,274.538 L1274.21,274.538 C1267.61,274.538 1265.3,274.428 1261.34,273.878 L1261.34,282.128 M1373.32,259.798 C1382.89,265.628 1391.58,272.778 1399.5,281.358 L1405.22,274.538 C1397.3,266.728 1390.48,261.338 1378.71,253.858 L1373.32,259.798 M1374.09,331.298 C1376.84,330.418 1377.72,330.198 1380.69,329.538 C1399.06,325.358 1410.39,320.848 1421.72,313.148 C1436.24,303.138 1446.47,290.268 1455.27,271.128 C1452.19,269.038 1451.09,268.048 1448.56,264.638 C1439.65,287.958 1424.91,304.128 1403.68,313.588 C1393.45,318.318 1380.25,321.728 1371.67,322.058 L1374.09,331.298 M1508.18,335.038 C1507.74,332.398 1507.63,329.978 1507.63,323.378 L1507.63,290.268 C1507.63,287.518 1507.52,285.758 1507.19,283.778 L1507.41,283.668 C1508.4,284.438 1509.28,284.878 1510.82,285.538 C1526.33,292.028 1543.6,301.158 1551.85,307.318 L1556.58,299.178 C1538.54,288.728 1523.36,281.578 1507.63,275.968 L1507.63,255.398 C1507.63,248.578 1507.74,246.488 1508.18,243.958 L1498.72,243.958 C1499.16,246.378 1499.27,248.248 1499.38,255.178 L1499.38,323.488 C1499.27,330.198 1499.16,332.508 1498.72,335.038 L1508.18,335.038 M1535.46,251.218 C1538.76,254.628 1544.04,262.878 1546.79,268.708 L1552.29,265.408 C1548.99,258.918 1545.91,254.298 1540.96,248.358 L1535.46,251.218 M1548,245.278 C1552.29,250.338 1556.91,257.378 1559.22,262.658 L1564.72,259.468 C1561.09,252.538 1558.34,248.468 1553.39,242.308 L1548,245.278 "/>
<path class="Text" d="M1637.1,258.698 C1642.6,258.918 1645.79,259.688 1649.86,261.448 C1660.97,266.398 1667.35,276.518 1667.35,289.058 C1667.35,302.588 1659.98,314.358 1647.88,319.858 C1642.71,322.278 1637.54,323.708 1629.51,325.028 C1631.6,327.668 1632.26,328.768 1633.36,332.398 C1640.95,330.748 1645.13,329.428 1650.08,327.338 C1666.03,320.518 1675.27,306.438 1675.27,289.388 C1675.27,278.828 1671.53,269.258 1664.6,262.548 C1657.45,255.508 1646.67,251.658 1634.35,251.658 C1619.61,251.658 1607.62,256.608 1598.82,266.288 C1591.45,274.538 1587.27,285.428 1587.27,296.648 C1587.27,312.048 1595.08,323.488 1605.53,323.488 C1613.45,323.488 1619.94,316.888 1626.32,302.368 C1631.27,290.818 1635.45,273.988 1637.1,258.698 M1629.18,258.808 C1627.75,272.888 1623.68,289.168 1619.17,299.508 C1614.44,310.288 1610.04,315.458 1605.42,315.458 C1599.48,315.458 1594.86,307.318 1594.86,296.758 C1594.86,283.118 1601.68,270.688 1612.79,263.978 C1617.85,260.898 1622.58,259.358 1629.18,258.808"/>
<path class="Text" d="M1738.52,284.658 L1705.96,284.658 C1699.8,284.658 1696.28,284.438 1692.21,283.998 L1692.21,292.138 C1696.39,291.698 1700.24,291.478 1705.74,291.478 L1738.52,291.478 L1738.52,327.228 C1738.52,329.868 1737.53,330.418 1733.24,330.418 C1728.73,330.418 1724.11,329.978 1717.4,328.988 C1718.5,331.848 1718.83,333.278 1719.27,336.688 C1726.31,337.238 1729.72,337.458 1733.24,337.458 C1743.25,337.458 1745.89,335.588 1745.89,328.218 L1745.89,291.478 L1776.8,291.478 C1782.74,291.478 1786.15,291.698 1790.11,292.138 L1790.11,283.998 C1786.37,284.438 1783.07,284.658 1776.8,284.658 L1745.89,284.658 L1745.89,275.748 C1760.08,267.718 1764.04,264.858 1776.47,253.638 C1778.01,252.208 1778.12,252.098 1780.43,250.118 L1775.92,245.058 C1773.94,245.388 1771.85,245.498 1767.34,245.498 L1715.2,245.498 C1710.58,245.498 1707.28,245.278 1703.98,244.838 L1703.98,252.758 C1706.84,252.318 1710.69,252.098 1715.09,252.098 L1768.33,252.098 C1759.42,260.238 1753.48,264.638 1743.25,270.138 L1738.19,270.138 C1738.41,272.448 1738.52,274.538 1738.52,277.398 L1738.52,284.658 M1874.7,282.348 L1874.7,277.618 C1874.7,272.558 1874.81,269.588 1875.36,266.178 L1866.67,266.178 C1867.22,269.148 1867.44,272.008 1867.44,277.618 L1867.44,282.348 L1815.74,282.348 C1811.01,282.348 1807.6,282.128 1804.63,281.688 L1804.63,289.498 C1807.82,289.058 1811.23,288.838 1815.74,288.838 L1867.44,288.838 L1867.44,329.538 C1867.44,331.738 1866.34,332.288 1862.16,332.288 C1857.98,332.288 1853.58,331.848 1847.31,330.968 C1848.85,334.378 1849.29,335.808 1849.84,338.558 C1854.02,338.778 1858.53,338.998 1861.06,338.998 C1867.11,338.998 1870.41,338.558 1871.95,337.458 C1873.82,336.138 1874.7,333.938 1874.7,330.308 L1874.7,288.838 L1888.01,288.838 C1892.63,288.838 1895.82,289.058 1899.12,289.498 L1899.12,281.688 C1896.15,282.128 1892.74,282.348 1888.01,282.348 L1874.7,282.348 M1846.54,252.318 L1816.62,252.318 C1812,252.318 1809.14,252.208 1805.62,251.878 C1805.95,254.078 1806.06,256.168 1806.06,259.358 L1806.06,266.508 C1806.06,269.918 1805.95,271.898 1805.62,274.208 L1812.88,274.208 L1812.88,258.808 L1889.88,258.808 L1889.88,274.208 L1897.14,274.208 C1896.81,271.898 1896.7,269.808 1896.7,266.508 L1896.7,259.358 C1896.7,256.058 1896.81,253.968 1897.14,251.878 C1893.62,252.208 1890.76,252.318 1886.14,252.318 L1853.69,252.318 L1853.69,247.038 C1853.69,244.508 1853.91,242.748 1854.46,240.218 L1845.77,240.218 C1846.32,242.858 1846.54,244.618 1846.54,247.148 L1846.54,252.318 M1846.54,317.218 C1840.38,308.088 1836.09,303.028 1827.62,294.668 L1821.79,299.068 C1830.15,307.098 1834.44,312.488 1840.27,322.278 L1846.54,317.218 M1979.86,271.678 C1980.19,273.438 1980.3,274.868 1980.3,276.518 C1980.3,284.218 1979.75,290.818 1978.43,297.418 C1975.9,310.068 1971.72,318.978 1964.24,327.448 C1961.71,330.308 1960.5,331.298 1957.09,333.608 C1957.42,332.068 1957.53,331.188 1957.53,328.218 L1957.53,295.218 C1961.49,295.328 1964.13,295.438 1967.1,295.768 L1967.1,288.618 C1964.24,289.058 1960.72,289.278 1955.99,289.278 L1920.79,289.278 C1916.61,289.278 1913.86,289.058 1911,288.618 L1911,295.768 C1913.64,295.328 1916.28,295.218 1920.9,295.218 L1951.04,295.218 L1951.04,328.108 C1951.04,331.298 1950.82,331.518 1946.53,331.518 C1944.11,331.518 1941.25,331.298 1937.84,330.748 C1938.61,333.278 1938.83,335.038 1938.94,337.348 C1941.91,337.458 1943.34,337.568 1945.43,337.568 C1949.72,337.568 1952.03,337.348 1954.12,336.688 C1955.55,336.248 1956.21,335.588 1957.09,333.718 C1959.18,335.808 1959.29,336.028 1961.38,339.548 C1967.21,334.818 1971.06,330.528 1974.58,324.698 C1980.08,315.788 1982.5,308.418 1984.04,296.318 C1985.69,305.778 1987.67,311.718 1991.63,318.648 C1996.14,326.678 2000.98,332.288 2009.34,339.218 C2009.67,338.668 2009.89,338.228 2010,337.898 C2010.77,336.798 2011.21,336.028 2011.32,335.808 C2011.76,335.148 2012.09,334.708 2013.85,332.838 C2007.8,328.548 2004.17,325.028 2000.43,320.188 C1991.85,308.858 1987.23,293.788 1987.23,277.068 C1987.23,274.758 1987.34,273.438 1987.67,271.678 L1979.86,271.678 M1951.48,251.328 L1951.48,277.288 C1951.48,279.378 1950.93,279.928 1948.51,279.928 C1946.97,279.928 1945.87,279.818 1944.22,279.598 C1944,277.508 1943.89,275.858 1943.89,272.008 L1943.89,265.188 C1943.89,261.668 1944,259.798 1944.22,257.598 C1942.02,257.818 1939.6,257.928 1935.42,257.928 L1927.28,257.928 C1923.1,257.928 1920.68,257.818 1918.37,257.598 C1918.59,260.018 1918.7,262.438 1918.7,266.288 L1918.7,273.218 C1918.7,274.868 1918.48,278.058 1918.26,279.818 C1920.57,279.598 1923.1,279.488 1925.3,279.488 L1935.75,279.488 C1938.39,279.488 1940.81,279.598 1942.68,279.708 C1943.34,281.468 1943.67,283.118 1943.89,285.538 C1945.32,285.538 1946.97,285.648 1948.18,285.648 C1955.77,285.648 1957.86,283.888 1957.86,277.508 L1957.86,251.328 C1961.93,251.438 1963.8,251.548 1965.78,251.878 L1965.78,244.948 C1962.81,245.388 1959.07,245.608 1954.23,245.608 L1922.55,245.608 C1918.15,245.608 1915.18,245.388 1912.32,244.948 L1912.32,251.878 C1915.07,251.438 1917.49,251.328 1922.11,251.328 L1951.48,251.328 M1924.42,262.878 L1938.28,262.878 L1938.28,274.538 L1924.42,274.538 L1924.42,262.878 M1978.98,257.378 C1980.19,252.978 1980.96,249.898 1981.62,246.708 C1982.17,244.178 1982.39,243.298 1982.94,241.428 L1975.35,239.888 C1975.35,242.418 1974.69,247.038 1973.7,251.218 C1971.28,262.548 1966,273.878 1960.28,280.588 C1962.81,282.238 1964.46,283.668 1965.67,285.318 C1970.4,278.718 1973.7,272.228 1976.89,263.428 L2003.84,263.428 C2000.87,273.328 1998.45,278.608 1994.27,284.988 C1996.36,285.868 1997.13,286.308 2000.1,288.288 C2003.84,282.128 2007.8,273.328 2009.56,267.058 C2010.44,263.868 2010.99,262.328 2011.65,260.898 L2007.91,256.828 C2006.15,257.268 2003.51,257.378 1998.89,257.378 L1978.98,257.378 M1923.65,329.978 L1923.65,324.038 L1936.08,324.038 C1940.7,324.038 1942.24,324.148 1944.33,324.368 C1944,322.168 1944,321.068 1944,316.778 L1944,309.188 C1944,304.788 1944,303.468 1944.33,301.378 C1942.13,301.708 1940.7,301.708 1935.42,301.708 L1926.4,301.708 C1921.23,301.708 1919.8,301.708 1917.38,301.378 C1917.71,304.018 1917.82,306.438 1917.82,310.068 L1917.82,320.848 C1917.82,324.588 1917.6,327.668 1917.16,329.978 L1923.65,329.978 M1923.65,306.878 L1938.28,306.878 L1938.28,318.868 L1923.65,318.868 L1923.65,306.878 "/>
<path class="MeasureNumber" d="M228.958,1498.68 L227.798,1498.68 C225.598,1500.32 221.358,1501.72 218.478,1501.72 L217.998,1503.48 L220.758,1503.48 C223.198,1503.48 223.478,1503.56 223.478,1504.28 C223.478,1504.64 223.478,1504.64 223.078,1506.08 L218.798,1522.08 C218.278,1524.08 218.238,1524.2 217.878,1524.56 C217.478,1524.96 216.638,1525.08 214.518,1525.12 L212.798,1525.12 L212.598,1527 L227.398,1527 L227.638,1525.12 L225.478,1525.12 C222.878,1525.12 222.318,1524.92 222.318,1524.04 C222.318,1523.76 222.478,1522.84 222.678,1522.08 L228.958,1498.68 M250.233,1518.72 L249.193,1520.56 C247.593,1523.32 247.273,1523.56 245.233,1523.6 L235.953,1523.6 C236.913,1522.32 238.673,1520.84 241.873,1518.6 C247.153,1514.96 247.513,1514.72 248.633,1513.84 C251.833,1511.36 253.153,1509 253.153,1505.84 C253.153,1501.64 250.033,1498.84 245.433,1498.84 C240.313,1498.84 235.873,1502.6 235.873,1506.96 C235.873,1509.2 237.073,1510.64 238.993,1510.64 C240.433,1510.64 241.553,1509.56 241.553,1508.08 C241.553,1507.04 241.033,1506.36 239.713,1505.64 C238.753,1505.16 238.593,1504.96 238.593,1504.48 C238.593,1502.76 241.553,1500.84 244.273,1500.84 C247.073,1500.84 248.953,1502.72 248.953,1505.52 C248.953,1508.52 247.633,1510.72 244.033,1513.84 C233.393,1523.08 231.793,1524.76 231.433,1527 L248.593,1527 L251.673,1519.28 L250.233,1518.72 "/>
<path class="MeasureNumber" d="M232.288,1027.64 C230.168,1027.88 227.568,1028.04 225.328,1028.04 C224.208,1028.04 222.928,1028 221.488,1027.92 C220.168,1027.84 218.848,1027.76 217.488,1027.68 L216.488,1027.64 L212.608,1036.08 L214.088,1036.56 L215.048,1034.96 C216.928,1031.84 217.808,1031.4 221.888,1031.44 L228.648,1031.44 L224.288,1037.68 C219.168,1044.88 219.168,1044.88 217.208,1048.08 C215.448,1050.92 214.728,1052.68 214.728,1054.12 C214.728,1055.52 215.608,1056.4 217.008,1056.4 C218.488,1056.4 219.248,1055.68 219.768,1053.8 C221.768,1046.28 222.968,1043.68 228.528,1034.68 L232.288,1028.84 L232.288,1027.64 "/>
<path class="TieSegment" stroke="#000000" stroke-width="1.74" stroke-linecap="round" stroke-linejoin="round" fill-rule="evenodd" d="M1911.46,1198 C1942.17,1218.91 2034.28,1218.91 2064.99,1198 C2034.28,1225.86 1942.17,1225.86 1911.46,1198"/>
<path class="TieSegment" stroke="#000000" stroke-width="1.74" stroke-linecap="round" stroke-linejoin="round" fill-rule="evenodd" d="M2491.21,751.596 C2516.48,770.618 2592.27,770.618 2617.54,751.596 C2592.27,777.562 2516.48,777.562 2491.21,751.596"/>
<path class="TieSegment" stroke="#000000" stroke-width="1.74" stroke-linecap="round" stroke-linejoin="round" fill-rule="evenodd" d="M936.185,726.796 C961.45,745.817 1037.25,745.817 1062.51,726.796 C1037.25,752.761 961.45,752.761 936.185,726.796"/>
<polyline class="BarLine" fill="none" stroke="#000000" stroke-width="4.46" stroke-linejoin="bevel" points="813.45,632.835 813.45,734.763"/>
<polyline class="BarLine" fill="none" stroke="#000000" stroke-width="4.46" stroke-linejoin="bevel" points="2740.42,1575.24 2740.42,1677.16"/>
<polyline class="BarLine" fill="none" stroke="#000000" stroke-width="13.64" stroke-linejoin="bevel" points="2757.78,1575.24 2757.78,1677.16"/>
<polyline class="BarLine" fill="none" stroke="#000000" stroke-width="4.46" stroke-linejoin="bevel" points="2389.65,1575.24 2389.65,1677.16"/>
<polyline class="BarLine" fill="none" stroke="#000000" stroke-width="4.46" stroke-linejoin="bevel" points="1817.04,1575.24 1817.04,1677.16"/>
<polyline class="BarLine" fill="none" stroke="#000000" stroke-width="4.46" stroke-linejoin="bevel" points="1244.43,1575.24 1244.43,1677.16"/>
<polyline class="BarLine" fill="none" stroke="#000000" stroke-width="4.46" stroke-linejoin="bevel" points="671.823,1575.24 671.823,1677.16"/>
<polyline class="BarLine" fill="none" stroke="#000000" stroke-width="4.46" stroke-linejoin="bevel" points="2762.37,1104.04 2762.37,1205.96"/>
<polyline class="BarLine" fill="none" stroke="#000000" stroke-width="4.46" stroke-linejoin="bevel" points="2242,1104.04 2242,1205.96"/>
<polyline class="BarLine" fill="none" stroke="#000000" stroke-width="4.46" stroke-linejoin="bevel" points="1775.94,1104.04 1775.94,1205.96"/>
<polyline class="BarLine" fill="none" stroke="#000000" stroke-width="4.46" stroke-linejoin="bevel" points="1255.57,1104.04 1255.57,1205.96"/>
<polyline class="BarLine" fill="none" stroke="#000000" stroke-width="4.46" stroke-linejoin="bevel" points="843.806,1104.04 843.806,1205.96"/>
<polyline class="BarLine" fill="none" stroke="#000000" stroke-width="4.46" stroke-linejoin="bevel" points="2762.37,632.835 2762.37,734.763"/>
<polyline class="BarLine" fill="none" stroke="#000000" stroke-width="4.46" stroke-linejoin="bevel" points="2369.99,632.835 2369.99,734.763"/>
<polyline class="BarLine" fill="none" stroke="#000000" stroke-width="4.46" stroke-linejoin="bevel" points="1918.71,632.835 1918.71,734.763"/>
<polyline class="BarLine" fill="none" stroke="#000000" stroke-width="4.46" stroke-linejoin="bevel" points="1646.6,632.835 1646.6,734.763"/>
<polyline class="BarLine" fill="none" stroke="#000000" stroke-width="4.46" stroke-linejoin="bevel" points="1207.34,632.835 1207.34,734.763"/>
<path class="Accidental" transform="matrix(0.992001,0,0,0.992001,1035.41,1217)" d="M23.3,-10.5 C23.9,-10.6 24.4,-11.3 24.4,-11.9 L24.4,-17.8 C24.4,-18.8 23.7,-19.2 22.8,-19.2 L19.5,-18.5 L19.5,-33.4 L16.7,-33.4 L16.7,-17.9 L7.8,-16.1 L7.8,-30.2 L5,-30.2 L5,-15.5 L1.1,-14.7 C0.5,-14.6 0,-13.9 0,-13.3 L0,-7.5 C0,-6.4 0.8,-6.1 1.7,-6.1 L5,-6.8 L5,9.7 L1.1,10.5 C0.5,10.6 0,11.3 0,11.9 L0,17.7 C0,18.8 0.8,19.1 1.7,19.1 L5,18.4 L5,33.3 L7.8,33.3 L7.8,17.8 L16.7,16 L16.7,30.1 L19.5,30.1 L19.5,15.4 L23.3,14.7 C23.9,14.6 24.4,13.9 24.4,13.3 L24.4,7.4 C24.4,6.4 23.7,6 22.8,6 L19.5,6.7 L19.5,-9.8 L23.3,-10.5 M7.8,-7.4 L16.7,-9.2 L16.7,7.3 L7.8,9.2 L7.8,-7.4 "/>
<path class="Accidental" transform="matrix(0.992001,0,0,0.992001,1342.71,708.599)" d="M23.3,-10.5 C23.9,-10.6 24.4,-11.3 24.4,-11.9 L24.4,-17.8 C24.4,-18.8 23.7,-19.2 22.8,-19.2 L19.5,-18.5 L19.5,-33.4 L16.7,-33.4 L16.7,-17.9 L7.8,-16.1 L7.8,-30.2 L5,-30.2 L5,-15.5 L1.1,-14.7 C0.5,-14.6 0,-13.9 0,-13.3 L0,-7.5 C0,-6.4 0.8,-6.1 1.7,-6.1 L5,-6.8 L5,9.7 L1.1,10.5 C0.5,10.6 0,11.3 0,11.9 L0,17.7 C0,18.8 0.8,19.1 1.7,19.1 L5,18.4 L5,33.3 L7.8,33.3 L7.8,17.8 L16.7,16 L16.7,30.1 L19.5,30.1 L19.5,15.4 L23.3,14.7 C23.9,14.6 24.4,13.9 24.4,13.3 L24.4,7.4 C24.4,6.4 23.7,6 22.8,6 L19.5,6.7 L19.5,-9.8 L23.3,-10.5 M7.8,-7.4 L16.7,-9.2 L16.7,7.3 L7.8,9.2 L7.8,-7.4 "/>
<path class="Accidental" transform="matrix(0.992001,0,0,0.992001,2404.56,1179.8)" d="M23.3,-10.5 C23.9,-10.6 24.4,-11.3 24.4,-11.9 L24.4,-17.8 C24.4,-18.8 23.7,-19.2 22.8,-19.2 L19.5,-18.5 L19.5,-33.4 L16.7,-33.4 L16.7,-17.9 L7.8,-16.1 L7.8,-30.2 L5,-30.2 L5,-15.5 L1.1,-14.7 C0.5,-14.6 0,-13.9 0,-13.3 L0,-7.5 C0,-6.4 0.8,-6.1 1.7,-6.1 L5,-6.8 L5,9.7 L1.1,10.5 C0.5,10.6 0,11.3 0,11.9 L0,17.7 C0,18.8 0.8,19.1 1.7,19.1 L5,18.4 L5,33.3 L7.8,33.3 L7.8,17.8 L16.7,16 L16.7,30.1 L19.5,30.1 L19.5,15.4 L23.3,14.7 C23.9,14.6 24.4,13.9 24.4,13.3 L24.4,7.4 C24.4,6.4 23.7,6 22.8,6 L19.5,6.7 L19.5,-9.8 L23.3,-10.5 M7.8,-7.4 L16.7,-9.2 L16.7,7.3 L7.8,9.2 L7.8,-7.4 "/>
<polyline class="LedgerLine" fill="none" stroke="#000000" stroke-width="3.97" stroke-linejoin="bevel" points="1713.78,1700.6 1763.37,1700.6"/>
<polyline class="LedgerLine" fill="none" stroke="#000000" stroke-width="3.97" stroke-linejoin="bevel" points="588.295,758.199 637.88,758.199"/>
<polyline class="LedgerLine" fill="none" stroke="#000000" stroke-width="3.97" stroke-linejoin="bevel" points="1523.19,1229.4 1572.78,1229.4"/>
<polyline class="LedgerLine" fill="none" stroke="#000000" stroke-width="3.97" stroke-linejoin="bevel" points="2415.44,1700.6 2469.8,1700.6"/>
<polyline class="LedgerLine" fill="none" stroke="#000000" stroke-width="3.97" stroke-linejoin="bevel" points="2018.44,1700.6 2068.02,1700.6"/>
<polyline class="LedgerLine" fill="none" stroke="#000000" stroke-width="3.97" stroke-linejoin="bevel" points="2110.79,1700.6 2160.37,1700.6"/>
<polyline class="LedgerLine" fill="none" stroke="#000000" stroke-width="3.97" stroke-linejoin="bevel" points="2286.39,1700.6 2335.97,1700.6"/>
<polyline class="Stem" fill="none" stroke="#000000" stroke-width="2.73" stroke-linejoin="bevel" points="630.603,1213.03 630.603,1130.2"/>
<polyline class="Stem" fill="none" stroke="#000000" stroke-width="2.73" stroke-linejoin="bevel" points="547.256,1213.03 547.256,1130.4"/>
<polyline class="Stem" fill="none" stroke="#000000" stroke-width="2.73" stroke-linejoin="bevel" points="883.262,1605.57 883.262,1688.1"/>
<polyline class="Stem" fill="none" stroke="#000000" stroke-width="2.73" stroke-linejoin="bevel" points="759.122,741.831 759.122,659.197"/>
<polyline class="Stem" fill="none" stroke="#000000" stroke-width="2.73" stroke-linejoin="bevel" points="427.506,729.431 427.506,646.599"/>
<polyline class="Stem" fill="none" stroke="#000000" stroke-width="2.73" stroke-linejoin="bevel" points="878.782,729.431 878.782,646.797"/>
<polyline class="Stem" fill="none" stroke="#000000" stroke-width="2.73" stroke-linejoin="bevel" points="2678.16,1159.17 2678.16,1235.5"/>
<polyline class="Stem" fill="none" stroke="#000000" stroke-width="2.73" stroke-linejoin="bevel" points="975.612,1617.97 975.612,1694.4"/>
<polyline class="Stem" fill="none" stroke="#000000" stroke-width="2.73" stroke-linejoin="bevel" points="2549.17,1163.43 2549.17,1086.8"/>
<polyline class="Stem" fill="none" stroke="#000000" stroke-width="2.73" stroke-linejoin="bevel" points="2325.93,1696.63 2325.93,1614"/>
<polyline class="Stem" fill="none" stroke="#000000" stroke-width="2.73" stroke-linejoin="bevel" points="1954.55,675.565 1954.55,751.999"/>
<polyline class="Stem" fill="none" stroke="#000000" stroke-width="2.73" stroke-linejoin="bevel" points="2465.82,1175.83 2465.82,1093.2"/>
<polyline class="Stem" fill="none" stroke="#000000" stroke-width="2.73" stroke-linejoin="bevel" points="1180.71,1634.63 1180.71,1558.2"/>
<polyline class="Stem" fill="none" stroke="#000000" stroke-width="2.73" stroke-linejoin="bevel" points="2150.33,1696.63 2150.33,1613.8"/>
<polyline class="Stem" fill="none" stroke="#000000" stroke-width="2.73" stroke-linejoin="bevel" points="2307.34,1163.43 2307.34,1086.8"/>
<polyline class="Stem" fill="none" stroke="#000000" stroke-width="2.73" stroke-linejoin="bevel" points="2085.84,687.965 2085.84,764.3"/>
<polyline class="Stem" fill="none" stroke="#000000" stroke-width="2.73" stroke-linejoin="bevel" points="2083.1,1175.83 2083.1,1093"/>
<polyline class="Stem" fill="none" stroke="#000000" stroke-width="2.73" stroke-linejoin="bevel" points="2154.88,675.565 2154.88,751.999"/>
<polyline class="Stem" fill="none" stroke="#000000" stroke-width="2.73" stroke-linejoin="bevel" points="949.338,704.631 949.338,621.799"/>
<polyline class="Stem" fill="none" stroke="#000000" stroke-width="2.73" stroke-linejoin="bevel" points="1924.62,1175.83 1924.62,1093"/>
<polyline class="Stem" fill="none" stroke="#000000" stroke-width="2.73" stroke-linejoin="bevel" points="1474.52,692.231 1474.52,615.599"/>
<polyline class="Stem" fill="none" stroke="#000000" stroke-width="2.73" stroke-linejoin="bevel" points="1841.27,1200.63 1841.27,1118"/>
<polyline class="Stem" fill="none" stroke="#000000" stroke-width="2.73" stroke-linejoin="bevel" points="2315.66,692.231 2315.66,615.797"/>
<polyline class="Stem" fill="none" stroke="#000000" stroke-width="2.73" stroke-linejoin="bevel" points="1309.76,1647.03 1309.76,1564.4"/>
<polyline class="Stem" fill="none" stroke="#000000" stroke-width="2.73" stroke-linejoin="bevel" points="2057.98,1696.63 2057.98,1614"/>
<polyline class="Stem" fill="none" stroke="#000000" stroke-width="2.73" stroke-linejoin="bevel" points="1721.22,1213.03 1721.22,1130.4"/>
<polyline class="Stem" fill="none" stroke="#000000" stroke-width="2.73" stroke-linejoin="bevel" points="1080.62,704.631 1080.62,621.799"/>
<polyline class="Stem" fill="none" stroke="#000000" stroke-width="2.73" stroke-linejoin="bevel" points="1562.73,1225.43 1562.73,1142.6"/>
<polyline class="Stem" fill="none" stroke="#000000" stroke-width="2.73" stroke-linejoin="bevel" points="2435.32,704.631 2435.32,621.997"/>
<polyline class="Stem" fill="none" stroke="#000000" stroke-width="2.73" stroke-linejoin="bevel" points="1479.39,1213.03 1479.39,1130.4"/>
<polyline class="Stem" fill="none" stroke="#000000" stroke-width="2.73" stroke-linejoin="bevel" points="1402.11,1671.83 1402.11,1589"/>
<polyline class="Stem" fill="none" stroke="#000000" stroke-width="2.73" stroke-linejoin="bevel" points="2504.37,729.431 2504.37,646.599"/>
<polyline class="Stem" fill="none" stroke="#000000" stroke-width="2.73" stroke-linejoin="bevel" points="1320.9,1200.63 1320.9,1117.8"/>
<polyline class="Stem" fill="none" stroke="#000000" stroke-width="2.73" stroke-linejoin="bevel" points="1882.37,1671.83 1882.37,1589"/>
<polyline class="Stem" fill="none" stroke="#000000" stroke-width="2.73" stroke-linejoin="bevel" points="2635.65,729.431 2635.65,646.599"/>
<polyline class="Stem" fill="none" stroke="#000000" stroke-width="2.73" stroke-linejoin="bevel" points="1577.72,1684.23 1577.72,1601.4"/>
<polyline class="Stem" fill="none" stroke="#000000" stroke-width="2.73" stroke-linejoin="bevel" points="1403.96,704.631 1403.96,621.997"/>
<polyline class="Stem" fill="none" stroke="#000000" stroke-width="2.73" stroke-linejoin="bevel" points="558.792,741.831 558.792,659.197"/>
<polyline class="Stem" fill="none" stroke="#000000" stroke-width="2.73" stroke-linejoin="bevel" points="1096.67,1213.03 1096.67,1130.2"/>
<polyline class="Stem" fill="none" stroke="#000000" stroke-width="2.73" stroke-linejoin="bevel" points="909.139,1213.03 909.139,1130.2"/>
<polyline class="Stem" fill="none" stroke="#000000" stroke-width="2.73" stroke-linejoin="bevel" points="1272.68,692.231 1272.68,615.599"/>
<polyline class="Stem" fill="none" stroke="#000000" stroke-width="2.73" stroke-linejoin="bevel" points="627.836,754.231 627.836,671.399"/>
<polyline class="Stem" fill="none" stroke="#000000" stroke-width="2.73" stroke-linejoin="bevel" points="789.088,1200.63 789.088,1118"/>
<polyline class="Stem" fill="none" stroke="#000000" stroke-width="2.73" stroke-linejoin="bevel" points="1753.32,1696.63 1753.32,1614"/>
<polyline class="Stem" fill="none" stroke="#000000" stroke-width="2.73" stroke-linejoin="bevel" points="388.772,1163.43 388.772,1086.8"/>
<polyline class="Stem" fill="none" stroke="#000000" stroke-width="2.73" stroke-linejoin="bevel" points="707.659,1617.97 707.659,1694.4"/>
<polyline class="Stem" fill="none" stroke="#000000" stroke-width="2.73" stroke-linejoin="bevel" points="1576.31,687.965 1576.31,764.3"/>
<path class="Hook" transform="matrix(0.992001,0,0,0.992001,1478.02,1130.2)" d="M0,22.7 C0,23 0.1,23.6 0.8,23.8 C5.1,25.2 13.7,30.6 20.2,41.7 C22,44.8 24.9,49.1 24.9,57.4 C24.9,64.6 23.1,72 20.4,79.2 C20.2,79.8 20.1,80.3 20.1,80.7 C20.1,81.4 20.5,81.7 21.2,81.7 C21.8,81.7 22.3,81.3 22.7,80.6 C27.2,72.6 28.9,63.3 28.9,54.2 C28.4,41.3 21,31.8 21,31.8 C21.3,31.8 11.8,19.5 9.1,15.3 C5.4,9.6 3.7,3.9 3.5,3.5 C3.4,3.2 2.5,-0.4 2.5,-0.4 C2.4,-0.8 1.9,-1.2 1.3,-1.2 C0.6,-1.2 0,-0.6 0,0.1 L0,22.7 "/>
<path class="Hook" transform="matrix(0.992001,0,0,0.992001,545.892,1130.2)" d="M0,22.7 C0,23 0.1,23.6 0.8,23.8 C5.1,25.2 13.7,30.6 20.2,41.7 C22,44.8 24.9,49.1 24.9,57.4 C24.9,64.6 23.1,72 20.4,79.2 C20.2,79.8 20.1,80.3 20.1,80.7 C20.1,81.4 20.5,81.7 21.2,81.7 C21.8,81.7 22.3,81.3 22.7,80.6 C27.2,72.6 28.9,63.3 28.9,54.2 C28.4,41.3 21,31.8 21,31.8 C21.3,31.8 11.8,19.5 9.1,15.3 C5.4,9.6 3.7,3.9 3.5,3.5 C3.4,3.2 2.5,-0.4 2.5,-0.4 C2.4,-0.8 1.9,-1.2 1.3,-1.2 C0.6,-1.2 0,-0.6 0,0.1 L0,22.7 "/>
<path class="Hook" transform="matrix(0.992001,0,0,0.992001,877.418,646.599)" d="M0,22.7 C0,23 0.1,23.6 0.8,23.8 C5.1,25.2 13.7,30.6 20.2,41.7 C22,44.8 24.9,49.1 24.9,57.4 C24.9,64.6 23.1,72 20.4,79.2 C20.2,79.8 20.1,80.3 20.1,80.7 C20.1,81.4 20.5,81.7 21.2,81.7 C21.8,81.7 22.3,81.3 22.7,80.6 C27.2,72.6 28.9,63.3 28.9,54.2 C28.4,41.3 21,31.8 21,31.8 C21.3,31.8 11.8,19.5 9.1,15.3 C5.4,9.6 3.7,3.9 3.5,3.5 C3.4,3.2 2.5,-0.4 2.5,-0.4 C2.4,-0.8 1.9,-1.2 1.3,-1.2 C0.6,-1.2 0,-0.6 0,0.1 L0,22.7 "/>
<path class="Hook" transform="matrix(0.992001,0,0,0.992001,881.898,1688.2)" d="M0,-0.1 C0,0.6 0.6,1.2 1.3,1.2 C1.8,1.2 2.4,0.8 2.5,0.4 C2.5,0.3 3.4,-3.2 3.5,-3.5 C3.6,-3.9 4.5,-7.7 8.1,-13.6 C12,-20.1 18,-24.8 23,-31.8 C28,-38.8 30.9,-45.4 30.9,-54.2 C30.9,-63.3 28.9,-70.9 23.5,-80.6 C23.2,-81.3 22.6,-81.7 22,-81.7 C21.8,-81.7 21.6,-81.7 21.5,-81.6 C21,-81.4 20.8,-81 20.8,-80.4 C20.8,-80.1 20.9,-79.7 21.1,-79.2 C25.1,-69.9 26.7,-64.6 26.7,-57.4 C26.7,-49.1 23.8,-44.8 22,-41.7 C15.5,-30.6 5,-25.2 0.8,-23.8 C0.1,-23.6 0,-23 0,-22.7 L0,-0.1 "/>
<path class="Hook" transform="matrix(0.992001,0,0,0.992001,1574.94,764.399)" d="M0,-0.1 C0,0.6 0.6,1.2 1.3,1.2 C1.8,1.2 2.4,0.8 2.5,0.4 C2.5,0.3 3.4,-3.2 3.5,-3.5 C3.6,-3.9 4.5,-7.7 8.1,-13.6 C12,-20.1 18,-24.8 23,-31.8 C28,-38.8 30.9,-45.4 30.9,-54.2 C30.9,-63.3 28.9,-70.9 23.5,-80.6 C23.2,-81.3 22.6,-81.7 22,-81.7 C21.8,-81.7 21.6,-81.7 21.5,-81.6 C21,-81.4 20.8,-81 20.8,-80.4 C20.8,-80.1 20.9,-79.7 21.1,-79.2 C25.1,-69.9 26.7,-64.6 26.7,-57.4 C26.7,-49.1 23.8,-44.8 22,-41.7 C15.5,-30.6 5,-25.2 0.8,-23.8 C0.1,-23.6 0,-23 0,-22.7 L0,-0.1 "/>
<path class="Hook" transform="matrix(0.992001,0,0,0.992001,2324.57,1613.8)" d="M0,22.7 C0,23 0.1,23.6 0.8,23.8 C5.1,25.2 13.7,30.6 20.2,41.7 C22,44.8 24.9,49.1 24.9,57.4 C24.9,64.6 23.1,72 20.4,79.2 C20.2,79.8 20.1,80.3 20.1,80.7 C20.1,81.4 20.5,81.7 21.2,81.7 C21.8,81.7 22.3,81.3 22.7,80.6 C27.2,72.6 28.9,63.3 28.9,54.2 C28.4,41.3 21,31.8 21,31.8 C21.3,31.8 11.8,19.5 9.1,15.3 C5.4,9.6 3.7,3.9 3.5,3.5 C3.4,3.2 2.5,-0.4 2.5,-0.4 C2.4,-0.8 1.9,-1.2 1.3,-1.2 C0.6,-1.2 0,-0.6 0,0.1 L0,22.7 "/>
<path class="Hook" transform="matrix(0.992001,0,0,0.992001,2676.79,1235.6)" d="M0,-0.1 C0,0.6 0.6,1.2 1.3,1.2 C1.8,1.2 2.4,0.8 2.5,0.4 C2.5,0.3 3.4,-3.2 3.5,-3.5 C3.6,-3.9 4.5,-7.7 8.1,-13.6 C12,-20.1 18,-24.8 23,-31.8 C28,-38.8 30.9,-45.4 30.9,-54.2 C30.9,-63.3 28.9,-70.9 23.5,-80.6 C23.2,-81.3 22.6,-81.7 22,-81.7 C21.8,-81.7 21.6,-81.7 21.5,-81.6 C21,-81.4 20.8,-81 20.8,-80.4 C20.8,-80.1 20.9,-79.7 21.1,-79.2 C25.1,-69.9 26.7,-64.6 26.7,-57.4 C26.7,-49.1 23.8,-44.8 22,-41.7 C15.5,-30.6 5,-25.2 0.8,-23.8 C0.1,-23.6 0,-23 0,-22.7 L0,-0.1 "/>
<path class="Hook" transform="matrix(0.992001,0,0,0.992001,1751.96,1613.8)" d="M0,22.7 C0,23 0.1,23.6 0.8,23.8 C5.1,25.2 13.7,30.6 20.2,41.7 C22,44.8 24.9,49.1 24.9,57.4 C24.9,64.6 23.1,72 20.4,79.2 C20.2,79.8 20.1,80.3 20.1,80.7 C20.1,81.4 20.5,81.7 21.2,81.7 C21.8,81.7 22.3,81.3 22.7,80.6 C27.2,72.6 28.9,63.3 28.9,54.2 C28.4,41.3 21,31.8 21,31.8 C21.3,31.8 11.8,19.5 9.1,15.3 C5.4,9.6 3.7,3.9 3.5,3.5 C3.4,3.2 2.5,-0.4 2.5,-0.4 C2.4,-0.8 1.9,-1.2 1.3,-1.2 C0.6,-1.2 0,-0.6 0,0.1 L0,22.7 "/>
<path class="Hook" transform="matrix(0.992001,0,0,0.992001,787.724,1117.8)" d="M0,22.7 C0,23 0.1,23.6 0.8,23.8 C5.1,25.2 13.7,30.6 20.2,41.7 C22,44.8 24.9,49.1 24.9,57.4 C24.9,64.6 23.1,72 20.4,79.2 C20.2,79.8 20.1,80.3 20.1,80.7 C20.1,81.4 20.5,81.7 21.2,81.7 C21.8,81.7 22.3,81.3 22.7,80.6 C27.2,72.6 28.9,63.3 28.9,54.2 C28.4,41.3 21,31.8 21,31.8 C21.3,31.8 11.8,19.5 9.1,15.3 C5.4,9.6 3.7,3.9 3.5,3.5 C3.4,3.2 2.5,-0.4 2.5,-0.4 C2.4,-0.8 1.9,-1.2 1.3,-1.2 C0.6,-1.2 0,-0.6 0,0.1 L0,22.7 "/>
<path class="Hook" transform="matrix(0.992001,0,0,0.992001,757.758,658.999)" d="M0,22.7 C0,23 0.1,23.6 0.8,23.8 C5.1,25.2 13.7,30.6 20.2,41.7 C22,44.8 24.9,49.1 24.9,57.4 C24.9,64.6 23.1,72 20.4,79.2 C20.2,79.8 20.1,80.3 20.1,80.7 C20.1,81.4 20.5,81.7 21.2,81.7 C21.8,81.7 22.3,81.3 22.7,80.6 C27.2,72.6 28.9,63.3 28.9,54.2 C28.4,41.3 21,31.8 21,31.8 C21.3,31.8 11.8,19.5 9.1,15.3 C5.4,9.6 3.7,3.9 3.5,3.5 C3.4,3.2 2.5,-0.4 2.5,-0.4 C2.4,-0.8 1.9,-1.2 1.3,-1.2 C0.6,-1.2 0,-0.6 0,0.1 L0,22.7 "/>
<path class="Hook" transform="matrix(0.992001,0,0,0.992001,2464.46,1093)" d="M0,22.7 C0,23 0.1,23.6 0.8,23.8 C5.1,25.2 13.7,30.6 20.2,41.7 C22,44.8 24.9,49.1 24.9,57.4 C24.9,64.6 23.1,72 20.4,79.2 C20.2,79.8 20.1,80.3 20.1,80.7 C20.1,81.4 20.5,81.7 21.2,81.7 C21.8,81.7 22.3,81.3 22.7,80.6 C27.2,72.6 28.9,63.3 28.9,54.2 C28.4,41.3 21,31.8 21,31.8 C21.3,31.8 11.8,19.5 9.1,15.3 C5.4,9.6 3.7,3.9 3.5,3.5 C3.4,3.2 2.5,-0.4 2.5,-0.4 C2.4,-0.8 1.9,-1.2 1.3,-1.2 C0.6,-1.2 0,-0.6 0,0.1 L0,22.7 "/>
<path class="Hook" transform="matrix(0.992001,0,0,0.992001,1179.35,1558)" d="M0,22.7 C0,23 0.1,23.6 0.8,23.8 C5.1,25.2 13.7,30.6 20.2,41.7 C22,44.8 24.9,49.1 24.9,57.4 C24.9,64.6 23.1,72 20.4,79.2 C20.2,79.8 20.1,80.3 20.1,80.7 C20.1,81.4 20.5,81.7 21.2,81.7 C21.8,81.7 22.3,81.3 22.7,80.6 C27.2,72.6 28.9,63.3 28.9,54.2 C28.4,41.3 21,31.8 21,31.8 C21.3,31.8 11.8,19.5 9.1,15.3 C5.4,9.6 3.7,3.9 3.5,3.5 C3.4,3.2 2.5,-0.4 2.5,-0.4 C2.4,-0.8 1.9,-1.2 1.3,-1.2 C0.6,-1.2 0,-0.6 0,0.1 L0,22.7 "/>
<path class="Hook" transform="matrix(0.992001,0,0,0.992001,2084.47,764.399)" d="M0,-0.1 C0,0.6 0.6,1.2 1.3,1.2 C1.8,1.2 2.4,0.8 2.5,0.4 C2.5,0.3 3.4,-3.2 3.5,-3.5 C3.6,-3.9 4.5,-7.7 8.1,-13.6 C12,-20.1 18,-24.8 23,-31.8 C28,-38.8 30.9,-45.4 30.9,-54.2 C30.9,-63.3 28.9,-70.9 23.5,-80.6 C23.2,-81.3 22.6,-81.7 22,-81.7 C21.8,-81.7 21.6,-81.7 21.5,-81.6 C21,-81.4 20.8,-81 20.8,-80.4 C20.8,-80.1 20.9,-79.7 21.1,-79.2 C25.1,-69.9 26.7,-64.6 26.7,-57.4 C26.7,-49.1 23.8,-44.8 22,-41.7 C15.5,-30.6 5,-25.2 0.8,-23.8 C0.1,-23.6 0,-23 0,-22.7 L0,-0.1 "/>
<path class="Hook" transform="matrix(0.992001,0,0,0.992001,1402.6,621.799)" d="M0,22.7 C0,23 0.1,23.6 0.8,23.8 C5.1,25.2 13.7,30.6 20.2,41.7 C22,44.8 24.9,49.1 24.9,57.4 C24.9,64.6 23.1,72 20.4,79.2 C20.2,79.8 20.1,80.3 20.1,80.7 C20.1,81.4 20.5,81.7 21.2,81.7 C21.8,81.7 22.3,81.3 22.7,80.6 C27.2,72.6 28.9,63.3 28.9,54.2 C28.4,41.3 21,31.8 21,31.8 C21.3,31.8 11.8,19.5 9.1,15.3 C5.4,9.6 3.7,3.9 3.5,3.5 C3.4,3.2 2.5,-0.4 2.5,-0.4 C2.4,-0.8 1.9,-1.2 1.3,-1.2 C0.6,-1.2 0,-0.6 0,0.1 L0,22.7 "/>
<path class="Hook" transform="matrix(0.992001,0,0,0.992001,1308.4,1564.2)" d="M0,22.7 C0,23 0.1,23.6 0.8,23.8 C5.1,25.2 13.7,30.6 20.2,41.7 C22,44.8 24.9,49.1 24.9,57.4 C24.9,64.6 23.1,72 20.4,79.2 C20.2,79.8 20.1,80.3 20.1,80.7 C20.1,81.4 20.5,81.7 21.2,81.7 C21.8,81.7 22.3,81.3 22.7,80.6 C27.2,72.6 28.9,63.3 28.9,54.2 C28.4,41.3 21,31.8 21,31.8 C21.3,31.8 11.8,19.5 9.1,15.3 C5.4,9.6 3.7,3.9 3.5,3.5 C3.4,3.2 2.5,-0.4 2.5,-0.4 C2.4,-0.8 1.9,-1.2 1.3,-1.2 C0.6,-1.2 0,-0.6 0,0.1 L0,22.7 "/>
<path class="Hook" transform="matrix(0.992001,0,0,0.992001,2314.3,615.599)" d="M0,22.7 C0,23 0.1,23.6 0.8,23.8 C5.1,25.2 13.7,30.6 20.2,41.7 C22,44.8 24.9,49.1 24.9,57.4 C24.9,64.6 23.1,72 20.4,79.2 C20.2,79.8 20.1,80.3 20.1,80.7 C20.1,81.4 20.5,81.7 21.2,81.7 C21.8,81.7 22.3,81.3 22.7,80.6 C27.2,72.6 28.9,63.3 28.9,54.2 C28.4,41.3 21,31.8 21,31.8 C21.3,31.8 11.8,19.5 9.1,15.3 C5.4,9.6 3.7,3.9 3.5,3.5 C3.4,3.2 2.5,-0.4 2.5,-0.4 C2.4,-0.8 1.9,-1.2 1.3,-1.2 C0.6,-1.2 0,-0.6 0,0.1 L0,22.7 "/>
<path class="Hook" transform="matrix(0.992001,0,0,0.992001,1839.91,1117.8)" d="M0,22.7 C0,23 0.1,23.6 0.8,23.8 C5.1,25.2 13.7,30.6 20.2,41.7 C22,44.8 24.9,49.1 24.9,57.4 C24.9,64.6 23.1,72 20.4,79.2 C20.2,79.8 20.1,80.3 20.1,80.7 C20.1,81.4 20.5,81.7 21.2,81.7 C21.8,81.7 22.3,81.3 22.7,80.6 C27.2,72.6 28.9,63.3 28.9,54.2 C28.4,41.3 21,31.8 21,31.8 C21.3,31.8 11.8,19.5 9.1,15.3 C5.4,9.6 3.7,3.9 3.5,3.5 C3.4,3.2 2.5,-0.4 2.5,-0.4 C2.4,-0.8 1.9,-1.2 1.3,-1.2 C0.6,-1.2 0,-0.6 0,0.1 L0,22.7 "/>
<path class="Hook" transform="matrix(0.992001,0,0,0.992001,2056.61,1613.8)" d="M0,22.7 C0,23 0.1,23.6 0.8,23.8 C5.1,25.2 13.7,30.6 20.2,41.7 C22,44.8 24.9,49.1 24.9,57.4 C24.9,64.6 23.1,72 20.4,79.2 C20.2,79.8 20.1,80.3 20.1,80.7 C20.1,81.4 20.5,81.7 21.2,81.7 C21.8,81.7 22.3,81.3 22.7,80.6 C27.2,72.6 28.9,63.3 28.9,54.2 C28.4,41.3 21,31.8 21,31.8 C21.3,31.8 11.8,19.5 9.1,15.3 C5.4,9.6 3.7,3.9 3.5,3.5 C3.4,3.2 2.5,-0.4 2.5,-0.4 C2.4,-0.8 1.9,-1.2 1.3,-1.2 C0.6,-1.2 0,-0.6 0,0.1 L0,22.7 "/>
<path class="Hook" transform="matrix(0.992001,0,0,0.992001,1719.86,1130.2)" d="M0,22.7 C0,23 0.1,23.6 0.8,23.8 C5.1,25.2 13.7,30.6 20.2,41.7 C22,44.8 24.9,49.1 24.9,57.4 C24.9,64.6 23.1,72 20.4,79.2 C20.2,79.8 20.1,80.3 20.1,80.7 C20.1,81.4 20.5,81.7 21.2,81.7 C21.8,81.7 22.3,81.3 22.7,80.6 C27.2,72.6 28.9,63.3 28.9,54.2 C28.4,41.3 21,31.8 21,31.8 C21.3,31.8 11.8,19.5 9.1,15.3 C5.4,9.6 3.7,3.9 3.5,3.5 C3.4,3.2 2.5,-0.4 2.5,-0.4 C2.4,-0.8 1.9,-1.2 1.3,-1.2 C0.6,-1.2 0,-0.6 0,0.1 L0,22.7 "/>
<path class="Hook" transform="matrix(0.992001,0,0,0.992001,2433.96,621.799)" d="M0,22.7 C0,23 0.1,23.6 0.8,23.8 C5.1,25.2 13.7,30.6 20.2,41.7 C22,44.8 24.9,49.1 24.9,57.4 C24.9,64.6 23.1,72 20.4,79.2 C20.2,79.8 20.1,80.3 20.1,80.7 C20.1,81.4 20.5,81.7 21.2,81.7 C21.8,81.7 22.3,81.3 22.7,80.6 C27.2,72.6 28.9,63.3 28.9,54.2 C28.4,41.3 21,31.8 21,31.8 C21.3,31.8 11.8,19.5 9.1,15.3 C5.4,9.6 3.7,3.9 3.5,3.5 C3.4,3.2 2.5,-0.4 2.5,-0.4 C2.4,-0.8 1.9,-1.2 1.3,-1.2 C0.6,-1.2 0,-0.6 0,0.1 L0,22.7 "/>
<path class="Hook" transform="matrix(0.992001,0,0,0.992001,557.428,658.999)" d="M0,22.7 C0,23 0.1,23.6 0.8,23.8 C5.1,25.2 13.7,30.6 20.2,41.7 C22,44.8 24.9,49.1 24.9,57.4 C24.9,64.6 23.1,72 20.4,79.2 C20.2,79.8 20.1,80.3 20.1,80.7 C20.1,81.4 20.5,81.7 21.2,81.7 C21.8,81.7 22.3,81.3 22.7,80.6 C27.2,72.6 28.9,63.3 28.9,54.2 C28.4,41.3 21,31.8 21,31.8 C21.3,31.8 11.8,19.5 9.1,15.3 C5.4,9.6 3.7,3.9 3.5,3.5 C3.4,3.2 2.5,-0.4 2.5,-0.4 C2.4,-0.8 1.9,-1.2 1.3,-1.2 C0.6,-1.2 0,-0.6 0,0.1 L0,22.7 "/>
<path class="Note" transform="matrix(0.992001,0,0,0.992001,1241.82,696.199)" d="M0,4.2 C0,8.5 3.1,13.3 11.2,13.3 C21.6,13.3 32.5,4.8 32.5,-4 C32.5,-9.9 27.5,-13.2 21.3,-13.2 C11.6,-13.2 0,-5 0,4.2"/>
<path class="Note" transform="matrix(0.992001,0,0,0.992001,706.295,1613.8)" d="M0,4.2 C0,8.5 3.1,13.3 11.2,13.3 C21.6,13.3 32.5,4.8 32.5,-4 C32.5,-9.9 27.5,-13.2 21.3,-13.2 C11.6,-13.2 0,-5 0,4.2"/>
<path class="Note" transform="matrix(0.992001,0,0,0.992001,1290.04,1204.6)" d="M0,4.2 C0,8.5 3.1,13.3 11.2,13.3 C21.6,13.3 32.5,4.8 32.5,-4 C32.5,-9.9 27.5,-13.2 21.3,-13.2 C11.6,-13.2 0,-5 0,4.2"/>
<path class="Note" transform="matrix(0.992001,0,0,0.992001,1371.25,1675.8)" d="M0,4.2 C0,8.5 3.1,13.3 11.2,13.3 C21.6,13.3 32.5,4.8 32.5,-4 C32.5,-9.9 27.5,-13.2 21.3,-13.2 C11.6,-13.2 0,-5 0,4.2"/>
<path class="Note" transform="matrix(0.992001,0,0,0.992001,1851.51,1675.8)" d="M0,4.2 C0,8.5 3.1,13.3 11.2,13.3 C21.6,13.3 32.5,4.8 32.5,-4 C32.5,-9.9 27.5,-13.2 21.3,-13.2 C11.6,-13.2 0,-5 0,4.2"/>
<path class="Note" transform="matrix(0.992001,0,0,0.992001,2604.79,733.399)" d="M21.3,-13.2 C11.6,-13.2 0,-5.1 0,4.2 C0,8.5 3.1,13.3 11.2,13.3 C21.6,13.3 32.5,4.8 32.5,-4 C32.5,-9.9 27.5,-13.2 21.3,-13.2 M7.5,8.6 C4.2,8.6 3.5,5.9 3.5,5 C3.5,0.1 20.3,-8.5 25,-8.5 C27.4,-8.5 29,-7.1 29,-4.9 C29,0.1 12.1,8.6 7.5,8.6"/>
<path class="Note" transform="matrix(0.992001,0,0,0.992001,2404.46,708.599)" d="M0,4.2 C0,8.5 3.1,13.3 11.2,13.3 C21.6,13.3 32.5,4.8 32.5,-4 C32.5,-9.9 27.5,-13.2 21.3,-13.2 C11.6,-13.2 0,-5 0,4.2"/>
<path class="Note" transform="matrix(0.992001,0,0,0.992001,1448.53,1217)" d="M0,4.2 C0,8.5 3.1,13.3 11.2,13.3 C21.6,13.3 32.5,4.8 32.5,-4 C32.5,-9.9 27.5,-13.2 21.3,-13.2 C11.6,-13.2 0,-5 0,4.2"/>
<path class="Note" transform="matrix(0.992001,0,0,0.992001,516.396,1217)" d="M0,4.2 C0,8.5 3.1,13.3 11.2,13.3 C21.6,13.3 32.5,4.8 32.5,-4 C32.5,-9.9 27.5,-13.2 21.3,-13.2 C11.6,-13.2 0,-5 0,4.2"/>
<path class="Note" transform="matrix(0.992001,0,0,0.992001,1049.76,708.599)" d="M21.3,-13.2 C11.6,-13.2 0,-5.1 0,4.2 C0,8.5 3.1,13.3 11.2,13.3 C21.6,13.3 32.5,4.8 32.5,-4 C32.5,-9.9 27.5,-13.2 21.3,-13.2 M7.5,8.6 C4.2,8.6 3.5,5.9 3.5,5 C3.5,0.1 20.3,-8.5 25,-8.5 C27.4,-8.5 29,-7.1 29,-4.9 C29,0.1 12.1,8.6 7.5,8.6"/>
<path class="Note" transform="matrix(0.992001,0,0,0.992001,1531.87,1229.4)" d="M0,4.2 C0,8.5 3.1,13.3 11.2,13.3 C21.6,13.3 32.5,4.8 32.5,-4 C32.5,-9.9 27.5,-13.2 21.3,-13.2 C11.6,-13.2 0,-5 0,4.2"/>
<path class="Note" transform="matrix(0.992001,0,0,0.992001,1373.1,708.599)" d="M0,4.2 C0,8.5 3.1,13.3 11.2,13.3 C21.6,13.3 32.5,4.8 32.5,-4 C32.5,-9.9 27.5,-13.2 21.3,-13.2 C11.6,-13.2 0,-5 0,4.2"/>
<path class="Note" transform="matrix(0.992001,0,0,0.992001,1278.9,1651)" d="M0,4.2 C0,8.5 3.1,13.3 11.2,13.3 C21.6,13.3 32.5,4.8 32.5,-4 C32.5,-9.9 27.5,-13.2 21.3,-13.2 C11.6,-13.2 0,-5 0,4.2"/>
<path class="Note" transform="matrix(0.992001,0,0,0.992001,728.262,745.799)" d="M0,4.2 C0,8.5 3.1,13.3 11.2,13.3 C21.6,13.3 32.5,4.8 32.5,-4 C32.5,-9.9 27.5,-13.2 21.3,-13.2 C11.6,-13.2 0,-5 0,4.2"/>
<path class="Note" transform="matrix(0.992001,0,0,0.992001,1065.81,1217)" d="M21.3,-13.2 C11.6,-13.2 0,-5.1 0,4.2 C0,8.5 3.1,13.3 11.2,13.3 C21.6,13.3 32.5,4.8 32.5,-4 C32.5,-9.9 27.5,-13.2 21.3,-13.2 M7.5,8.6 C4.2,8.6 3.5,5.9 3.5,5 C3.5,0.1 20.3,-8.5 25,-8.5 C27.4,-8.5 29,-7.1 29,-4.9 C29,0.1 12.1,8.6 7.5,8.6"/>
<path class="Note" transform="matrix(0.992001,0,0,0.992001,1690.36,1217)" d="M0,4.2 C0,8.5 3.1,13.3 11.2,13.3 C21.6,13.3 32.5,4.8 32.5,-4 C32.5,-9.9 27.5,-13.2 21.3,-13.2 C11.6,-13.2 0,-5 0,4.2"/>
<path class="Note" transform="matrix(0.992001,0,0,0.992001,2284.8,696.199)" d="M0,4.2 C0,8.5 3.1,13.3 11.2,13.3 C21.6,13.3 32.5,4.8 32.5,-4 C32.5,-9.9 27.5,-13.2 21.3,-13.2 C11.6,-13.2 0,-5 0,4.2"/>
<path class="Note" transform="matrix(0.992001,0,0,0.992001,918.478,708.599)" d="M0,4.2 C0,8.5 3.1,13.3 11.2,13.3 C21.6,13.3 32.5,4.8 32.5,-4 C32.5,-9.9 27.5,-13.2 21.3,-13.2 C11.6,-13.2 0,-5 0,4.2"/>
<path class="Note" transform="matrix(0.992001,0,0,0.992001,596.975,758.199)" d="M0,4.2 C0,8.5 3.1,13.3 11.2,13.3 C21.6,13.3 32.5,4.8 32.5,-4 C32.5,-9.9 27.5,-13.2 21.3,-13.2 C11.6,-13.2 0,-5 0,4.2"/>
<path class="Note" transform="matrix(0.992001,0,0,0.992001,1546.86,1688.2)" d="M0,4.2 C0,8.5 3.1,13.3 11.2,13.3 C21.6,13.3 32.5,4.8 32.5,-4 C32.5,-9.9 27.5,-13.2 21.3,-13.2 C11.6,-13.2 0,-5 0,4.2"/>
<path class="Note" transform="matrix(0.992001,0,0,0.992001,1810.41,1204.6)" d="M0,4.2 C0,8.5 3.1,13.3 11.2,13.3 C21.6,13.3 32.5,4.8 32.5,-4 C32.5,-9.9 27.5,-13.2 21.3,-13.2 C11.6,-13.2 0,-5 0,4.2"/>
<path class="Note" transform="matrix(0.992001,0,0,0.992001,878.278,1217)" d="M21.3,-13.2 C11.6,-13.2 0,-5.1 0,4.2 C0,8.5 3.1,13.3 11.2,13.3 C21.6,13.3 32.5,4.8 32.5,-4 C32.5,-9.9 27.5,-13.2 21.3,-13.2 M7.5,8.6 C4.2,8.6 3.5,5.9 3.5,5 C3.5,0.1 20.3,-8.5 25,-8.5 C27.4,-8.5 29,-7.1 29,-4.9 C29,0.1 12.1,8.6 7.5,8.6"/>
<path class="Note" transform="matrix(0.992001,0,0,0.992001,2027.12,1700.6)" d="M0,4.2 C0,8.5 3.1,13.3 11.2,13.3 C21.6,13.3 32.5,4.8 32.5,-4 C32.5,-9.9 27.5,-13.2 21.3,-13.2 C11.6,-13.2 0,-5 0,4.2"/>
<path class="Note" transform="matrix(0.992001,0,0,0.992001,1893.76,1179.8)" d="M0,4.2 C0,8.5 3.1,13.3 11.2,13.3 C21.6,13.3 32.5,4.8 32.5,-4 C32.5,-9.9 27.5,-13.2 21.3,-13.2 C11.6,-13.2 0,-5 0,4.2"/>
<path class="Note" transform="matrix(0.992001,0,0,0.992001,2153.51,671.399)" d="M0,4.2 C0,8.5 3.1,13.3 11.2,13.3 C21.6,13.3 32.5,4.8 32.5,-4 C32.5,-9.9 27.5,-13.2 21.3,-13.2 C11.6,-13.2 0,-5 0,4.2"/>
<path class="Note" transform="matrix(0.992001,0,0,0.992001,2084.47,683.799)" d="M0,4.2 C0,8.5 3.1,13.3 11.2,13.3 C21.6,13.3 32.5,4.8 32.5,-4 C32.5,-9.9 27.5,-13.2 21.3,-13.2 C11.6,-13.2 0,-5 0,4.2"/>
<path class="Note" transform="matrix(0.992001,0,0,0.992001,2052.24,1179.8)" d="M21.3,-13.2 C11.6,-13.2 0,-5.1 0,4.2 C0,8.5 3.1,13.3 11.2,13.3 C21.6,13.3 32.5,4.8 32.5,-4 C32.5,-9.9 27.5,-13.2 21.3,-13.2 M7.5,8.6 C4.2,8.6 3.5,5.9 3.5,5 C3.5,0.1 20.3,-8.5 25,-8.5 C27.4,-8.5 29,-7.1 29,-4.9 C29,0.1 12.1,8.6 7.5,8.6"/>
<path class="Note" transform="matrix(0.992001,0,0,0.992001,1722.46,1700.6)" d="M0,4.2 C0,8.5 3.1,13.3 11.2,13.3 C21.6,13.3 32.5,4.8 32.5,-4 C32.5,-9.9 27.5,-13.2 21.3,-13.2 C11.6,-13.2 0,-5 0,4.2"/>
<path class="Note" transform="matrix(0.992001,0,0,0.992001,357.911,1167.4)" d="M0,4.2 C0,8.5 3.1,13.3 11.2,13.3 C21.6,13.3 32.5,4.8 32.5,-4 C32.5,-9.9 27.5,-13.2 21.3,-13.2 C11.6,-13.2 0,-5 0,4.2"/>
<path class="Note" transform="matrix(0.992001,0,0,0.992001,1149.85,1638.6)" d="M0,4.2 C0,8.5 3.1,13.3 11.2,13.3 C21.6,13.3 32.5,4.8 32.5,-4 C32.5,-9.9 27.5,-13.2 21.3,-13.2 C11.6,-13.2 0,-5 0,4.2"/>
<path class="Note" transform="matrix(0.992001,0,0,0.992001,2424.12,1700.6)" d="M18.7,-13.6 C4.9,-13.6 0,-6.6 0,-0.1 C0,6.4 4.9,13.4 18.7,13.4 C32.5,13.4 37.3,6.4 37.3,-0.1 C37.3,-6.6 32.5,-13.6 18.7,-13.6 M19.5,10.2 C16.7,10.2 14.8,9.4 13.5,6.9 C12.2,4.4 10.4,-2.1 10.3,-4.7 C10.1,-7.4 11.1,-9 13.5,-9.8 C14.7,-10.2 16.3,-10.4 17.9,-10.4 C20.6,-10.4 22.4,-9.8 23.8,-7.1 C25.2,-4.5 27.1,2 27.1,4.5 C27.1,9.4 23.5,10.2 19.5,10.2"/>
<path class="Note" transform="matrix(0.992001,0,0,0.992001,2295.07,1700.6)" d="M0,4.2 C0,8.5 3.1,13.3 11.2,13.3 C21.6,13.3 32.5,4.8 32.5,-4 C32.5,-9.9 27.5,-13.2 21.3,-13.2 C11.6,-13.2 0,-5 0,4.2"/>
<path class="Note" transform="matrix(0.992001,0,0,0.992001,2276.48,1167.4)" d="M0,4.2 C0,8.5 3.1,13.3 11.2,13.3 C21.6,13.3 32.5,4.8 32.5,-4 C32.5,-9.9 27.5,-13.2 21.3,-13.2 C11.6,-13.2 0,-5 0,4.2"/>
<path class="Note" transform="matrix(0.992001,0,0,0.992001,1443.66,696.199)" d="M0,4.2 C0,8.5 3.1,13.3 11.2,13.3 C21.6,13.3 32.5,4.8 32.5,-4 C32.5,-9.9 27.5,-13.2 21.3,-13.2 C11.6,-13.2 0,-5 0,4.2"/>
<path class="Note" transform="matrix(0.992001,0,0,0.992001,527.932,745.799)" d="M0,4.2 C0,8.5 3.1,13.3 11.2,13.3 C21.6,13.3 32.5,4.8 32.5,-4 C32.5,-9.9 27.5,-13.2 21.3,-13.2 C11.6,-13.2 0,-5 0,4.2"/>
<path class="Note" transform="matrix(0.992001,0,0,0.992001,758.227,1204.6)" d="M0,4.2 C0,8.5 3.1,13.3 11.2,13.3 C21.6,13.3 32.5,4.8 32.5,-4 C32.5,-9.9 27.5,-13.2 21.3,-13.2 C11.6,-13.2 0,-5 0,4.2"/>
<path class="Note" transform="matrix(0.992001,0,0,0.992001,1953.19,671.399)" d="M0,4.2 C0,8.5 3.1,13.3 11.2,13.3 C21.6,13.3 32.5,4.8 32.5,-4 C32.5,-9.9 27.5,-13.2 21.3,-13.2 C11.6,-13.2 0,-5 0,4.2"/>
<path class="Note" transform="matrix(0.992001,0,0,0.992001,2434.96,1179.8)" d="M0,4.2 C0,8.5 3.1,13.3 11.2,13.3 C21.6,13.3 32.5,4.8 32.5,-4 C32.5,-9.9 27.5,-13.2 21.3,-13.2 C11.6,-13.2 0,-5 0,4.2"/>
<path class="Note" transform="matrix(0.992001,0,0,0.992001,847.922,733.399)" d="M0,4.2 C0,8.5 3.1,13.3 11.2,13.3 C21.6,13.3 32.5,4.8 32.5,-4 C32.5,-9.9 27.5,-13.2 21.3,-13.2 C11.6,-13.2 0,-5 0,4.2"/>
<path class="Note" transform="matrix(0.992001,0,0,0.992001,1574.94,683.799)" d="M0,4.2 C0,8.5 3.1,13.3 11.2,13.3 C21.6,13.3 32.5,4.8 32.5,-4 C32.5,-9.9 27.5,-13.2 21.3,-13.2 C11.6,-13.2 0,-5 0,4.2"/>
<path class="Note" transform="matrix(0.992001,0,0,0.992001,2518.31,1167.4)" d="M0,4.2 C0,8.5 3.1,13.3 11.2,13.3 C21.6,13.3 32.5,4.8 32.5,-4 C32.5,-9.9 27.5,-13.2 21.3,-13.2 C11.6,-13.2 0,-5 0,4.2"/>
<path class="Note" transform="matrix(0.992001,0,0,0.992001,974.248,1613.8)" d="M0,4.2 C0,8.5 3.1,13.3 11.2,13.3 C21.6,13.3 32.5,4.8 32.5,-4 C32.5,-9.9 27.5,-13.2 21.3,-13.2 C11.6,-13.2 0,-5 0,4.2"/>
<path class="Note" transform="matrix(0.992001,0,0,0.992001,2119.47,1700.6)" d="M0,4.2 C0,8.5 3.1,13.3 11.2,13.3 C21.6,13.3 32.5,4.8 32.5,-4 C32.5,-9.9 27.5,-13.2 21.3,-13.2 C11.6,-13.2 0,-5 0,4.2"/>
<path class="Note" transform="matrix(0.992001,0,0,0.992001,355.524,1613.8)" d="M18.7,-13.6 C4.9,-13.6 0,-6.6 0,-0.1 C0,6.4 4.9,13.4 18.7,13.4 C32.5,13.4 37.3,6.4 37.3,-0.1 C37.3,-6.6 32.5,-13.6 18.7,-13.6 M19.5,10.2 C16.7,10.2 14.8,9.4 13.5,6.9 C12.2,4.4 10.4,-2.1 10.3,-4.7 C10.1,-7.4 11.1,-9 13.5,-9.8 C14.7,-10.2 16.3,-10.4 17.9,-10.4 C20.6,-10.4 22.4,-9.8 23.8,-7.1 C25.2,-4.5 27.1,2 27.1,4.5 C27.1,9.4 23.5,10.2 19.5,10.2"/>
<path class="Note" transform="matrix(0.992001,0,0,0.992001,599.742,1217)" d="M0,4.2 C0,8.5 3.1,13.3 11.2,13.3 C21.6,13.3 32.5,4.8 32.5,-4 C32.5,-9.9 27.5,-13.2 21.3,-13.2 C11.6,-13.2 0,-5 0,4.2"/>
<path class="Note" transform="matrix(0.992001,0,0,0.992001,2676.79,1155)" d="M0,4.2 C0,8.5 3.1,13.3 11.2,13.3 C21.6,13.3 32.5,4.8 32.5,-4 C32.5,-9.9 27.5,-13.2 21.3,-13.2 C11.6,-13.2 0,-5 0,4.2"/>
<path class="Note" transform="matrix(0.992001,0,0,0.992001,881.898,1601.4)" d="M0,4.2 C0,8.5 3.1,13.3 11.2,13.3 C21.6,13.3 32.5,4.8 32.5,-4 C32.5,-9.9 27.5,-13.2 21.3,-13.2 C11.6,-13.2 0,-5 0,4.2"/>
<path class="Note" transform="matrix(0.992001,0,0,0.992001,396.646,733.399)" d="M0,4.2 C0,8.5 3.1,13.3 11.2,13.3 C21.6,13.3 32.5,4.8 32.5,-4 C32.5,-9.9 27.5,-13.2 21.3,-13.2 C11.6,-13.2 0,-5 0,4.2"/>
<path class="Note" transform="matrix(0.992001,0,0,0.992001,1681.07,671.399)" d="M18.7,-13.6 C4.9,-13.6 0,-6.6 0,-0.1 C0,6.4 4.9,13.4 18.7,13.4 C32.5,13.4 37.3,6.4 37.3,-0.1 C37.3,-6.6 32.5,-13.6 18.7,-13.6 M19.5,10.2 C16.7,10.2 14.8,9.4 13.5,6.9 C12.2,4.4 10.4,-2.1 10.3,-4.7 C10.1,-7.4 11.1,-9 13.5,-9.8 C14.7,-10.2 16.3,-10.4 17.9,-10.4 C20.6,-10.4 22.4,-9.8 23.8,-7.1 C25.2,-4.5 27.1,2 27.1,4.5 C27.1,9.4 23.5,10.2 19.5,10.2"/>
<path class="Note" transform="matrix(0.992001,0,0,0.992001,2473.5,733.399)" d="M0,4.2 C0,8.5 3.1,13.3 11.2,13.3 C21.6,13.3 32.5,4.8 32.5,-4 C32.5,-9.9 27.5,-13.2 21.3,-13.2 C11.6,-13.2 0,-5 0,4.2"/>
<path class="Clef" transform="matrix(0.992001,0,0,0.992001,232.438,1651)" d="M12.3,51.3 C12.3,57.9 17.3,66.6 30.8,66.6 C35.5,66.6 39.6,65.4 43.2,63.2 C48.6,59.4 50,52.8 50,46.5 C50,42.6 49.4,38.1 48.4,32.4 C48.1,30.4 47.5,27.4 46.9,23.5 C56.7,20.3 64,10.1 64,-0.2 C64,-15.3 53.3,-25.5 38.7,-25.5 C37.7,-31.5 36.7,-37.4 35.9,-43 C46.4,-54.1 53.7,-66.6 53.7,-82.5 C53.7,-91.6 50.9,-99 49.3,-102.6 C46.9,-107.7 44,-111.2 42.2,-111.2 C41.5,-111.2 38.4,-110 35.1,-106.1 C28.7,-98.5 26.9,-85.7 26.9,-77.3 C26.9,-71.9 27.4,-67 29.1,-55.8 C29,-55.7 23.8,-50.4 21.7,-48.7 C12.6,-40.3 0,-28.1 0,-8.1 C0,10.6 16.3,25.3 34.9,25.3 C37.8,25.3 40.5,25 42.8,24.6 C44.7,34.2 45.9,41.2 45.9,46.5 C45.9,56.9 40.5,62.4 30.4,62.4 C28,62.4 25.9,61.9 25.7,61.9 C25.6,61.8 25.4,61.7 25.4,61.6 C25.4,61.4 25.6,61.3 25.9,61.3 C30.6,60.5 35.3,56.5 35.3,50.1 C35.3,44.7 31.2,39 23.7,39 C16.7,39 12.3,44.7 12.3,51.3 M33.2,-82.2 C34.1,-86.2 38.7,-96.7 43.9,-96.7 C45.4,-96.7 47.8,-91.9 47.8,-84.9 C47.8,-74.5 40.1,-66.7 33.2,-59.9 C32.6,-63.9 32.1,-67.8 32.1,-72 C32.1,-75.7 32.4,-79.1 33.2,-82.2 M42,20.6 C40,21 38.1,21.2 36.2,21.2 C21.9,21.2 9.7,11.2 9.7,-3.9 C9.7,-16.1 18.3,-27 27.1,-34.6 C28.8,-36.1 30.4,-37.5 31.9,-39 C32.8,-33.6 33.5,-28.9 34.2,-24.8 C25.1,-22.1 18.9,-12.5 18.9,-3.1 C18.9,3.9 24.4,13.5 32.4,13.5 C33.2,13.5 34.1,13.1 34.1,12.2 C34.1,11.3 33.1,10.8 31.9,10 C28,7.6 25.8,5 25.8,0.1 C25.8,-6 30.4,-10.9 36.2,-12.3 L42,20.6 M56.2,2.1 C56.2,9.2 53.3,16.5 46.2,19.4 C44.1,7.4 41.4,-8.5 40.7,-12.9 C49.7,-12.9 56.2,-6.8 56.2,2.1"/>
<path class="Clef" transform="matrix(0.992001,0,0,0.992001,232.438,1179.8)" d="M12.3,51.3 C12.3,57.9 17.3,66.6 30.8,66.6 C35.5,66.6 39.6,65.4 43.2,63.2 C48.6,59.4 50,52.8 50,46.5 C50,42.6 49.4,38.1 48.4,32.4 C48.1,30.4 47.5,27.4 46.9,23.5 C56.7,20.3 64,10.1 64,-0.2 C64,-15.3 53.3,-25.5 38.7,-25.5 C37.7,-31.5 36.7,-37.4 35.9,-43 C46.4,-54.1 53.7,-66.6 53.7,-82.5 C53.7,-91.6 50.9,-99 49.3,-102.6 C46.9,-107.7 44,-111.2 42.2,-111.2 C41.5,-111.2 38.4,-110 35.1,-106.1 C28.7,-98.5 26.9,-85.7 26.9,-77.3 C26.9,-71.9 27.4,-67 29.1,-55.8 C29,-55.7 23.8,-50.4 21.7,-48.7 C12.6,-40.3 0,-28.1 0,-8.1 C0,10.6 16.3,25.3 34.9,25.3 C37.8,25.3 40.5,25 42.8,24.6 C44.7,34.2 45.9,41.2 45.9,46.5 C45.9,56.9 40.5,62.4 30.4,62.4 C28,62.4 25.9,61.9 25.7,61.9 C25.6,61.8 25.4,61.7 25.4,61.6 C25.4,61.4 25.6,61.3 25.9,61.3 C30.6,60.5 35.3,56.5 35.3,50.1 C35.3,44.7 31.2,39 23.7,39 C16.7,39 12.3,44.7 12.3,51.3 M33.2,-82.2 C34.1,-86.2 38.7,-96.7 43.9,-96.7 C45.4,-96.7 47.8,-91.9 47.8,-84.9 C47.8,-74.5 40.1,-66.7 33.2,-59.9 C32.6,-63.9 32.1,-67.8 32.1,-72 C32.1,-75.7 32.4,-79.1 33.2,-82.2 M42,20.6 C40,21 38.1,21.2 36.2,21.2 C21.9,21.2 9.7,11.2 9.7,-3.9 C9.7,-16.1 18.3,-27 27.1,-34.6 C28.8,-36.1 30.4,-37.5 31.9,-39 C32.8,-33.6 33.5,-28.9 34.2,-24.8 C25.1,-22.1 18.9,-12.5 18.9,-3.1 C18.9,3.9 24.4,13.5 32.4,13.5 C33.2,13.5 34.1,13.1 34.1,12.2 C34.1,11.3 33.1,10.8 31.9,10 C28,7.6 25.8,5 25.8,0.1 C25.8,-6 30.4,-10.9 36.2,-12.3 L42,20.6 M56.2,2.1 C56.2,9.2 53.3,16.5 46.2,19.4 C44.1,7.4 41.4,-8.5 40.7,-12.9 C49.7,-12.9 56.2,-6.8 56.2,2.1"/>
<path class="Clef" transform="matrix(0.992001,0,0,0.992001,232.438,708.599)" d="M12.3,51.3 C12.3,57.9 17.3,66.6 30.8,66.6 C35.5,66.6 39.6,65.4 43.2,63.2 C48.6,59.4 50,52.8 50,46.5 C50,42.6 49.4,38.1 48.4,32.4 C48.1,30.4 47.5,27.4 46.9,23.5 C56.7,20.3 64,10.1 64,-0.2 C64,-15.3 53.3,-25.5 38.7,-25.5 C37.7,-31.5 36.7,-37.4 35.9,-43 C46.4,-54.1 53.7,-66.6 53.7,-82.5 C53.7,-91.6 50.9,-99 49.3,-102.6 C46.9,-107.7 44,-111.2 42.2,-111.2 C41.5,-111.2 38.4,-110 35.1,-106.1 C28.7,-98.5 26.9,-85.7 26.9,-77.3 C26.9,-71.9 27.4,-67 29.1,-55.8 C29,-55.7 23.8,-50.4 21.7,-48.7 C12.6,-40.3 0,-28.1 0,-8.1 C0,10.6 16.3,25.3 34.9,25.3 C37.8,25.3 40.5,25 42.8,24.6 C44.7,34.2 45.9,41.2 45.9,46.5 C45.9,56.9 40.5,62.4 30.4,62.4 C28,62.4 25.9,61.9 25.7,61.9 C25.6,61.8 25.4,61.7 25.4,61.6 C25.4,61.4 25.6,61.3 25.9,61.3 C30.6,60.5 35.3,56.5 35.3,50.1 C35.3,44.7 31.2,39 23.7,39 C16.7,39 12.3,44.7 12.3,51.3 M33.2,-82.2 C34.1,-86.2 38.7,-96.7 43.9,-96.7 C45.4,-96.7 47.8,-91.9 47.8,-84.9 C47.8,-74.5 40.1,-66.7 33.2,-59.9 C32.6,-63.9 32.1,-67.8 32.1,-72 C32.1,-75.7 32.4,-79.1 33.2,-82.2 M42,20.6 C40,21 38.1,21.2 36.2,21.2 C21.9,21.2 9.7,11.2 9.7,-3.9 C9.7,-16.1 18.3,-27 27.1,-34.6 C28.8,-36.1 30.4,-37.5 31.9,-39 C32.8,-33.6 33.5,-28.9 34.2,-24.8 C25.1,-22.1 18.9,-12.5 18.9,-3.1 C18.9,3.9 24.4,13.5 32.4,13.5 C33.2,13.5 34.1,13.1 34.1,12.2 C34.1,11.3 33.1,10.8 31.9,10 C28,7.6 25.8,5 25.8,0.1 C25.8,-6 30.4,-10.9 36.2,-12.3 L42,20.6 M56.2,2.1 C56.2,9.2 53.3,16.5 46.2,19.4 C44.1,7.4 41.4,-8.5 40.7,-12.9 C49.7,-12.9 56.2,-6.8 56.2,2.1"/>
<path class="TimeSig" transform="matrix(0.992001,0,0,0.992001,319.331,658.999)" d="M20.8,12.7 L20.8,20.1 L12.5,20.1 C11.8,20.1 11.1,20.7 11.1,21.5 L11.1,23.4 C11.1,24.2 11.8,24.8 12.5,24.8 L42.8,24.8 C43.6,24.8 44.2,24.2 44.2,23.4 L44.2,21.5 C44.2,20.7 43.6,20.1 42.8,20.1 L33.9,20.1 L33.9,12.7 L42.8,12.7 C43.6,12.7 44.2,12 44.2,11.2 L44.2,9.3 C44.2,8.6 43.6,7.9 42.8,7.9 L33.9,7.9 L33.9,-8 C33.9,-8.6 33.6,-9.1 33.1,-9.3 L31.9,-9.9 C31.7,-10 31.4,-10.1 31.2,-10.1 C30.9,-10 30.5,-9.9 30.3,-9.7 L21.2,-1.4 C20.9,-1.1 20.8,-0.7 20.8,-0.3 L20.8,7.9 L9.3,7.9 C9.3,7.9 20.4,-4.1 32.2,-19.9 C32.6,-20.4 32.7,-20.9 32.7,-21.3 C32.7,-21.8 32.5,-22.2 32.4,-22.3 L30.2,-24.5 C30,-24.7 29.6,-24.9 29.2,-24.9 C28.6,-24.9 15.1,-24.9 14.4,-24.9 C13.6,-24.9 13.1,-24.3 13,-23.7 C13,-23.7 12.5,-16.3 9.9,-8.2 C7.3,-0.1 4.3,4.9 1.7,8.6 C1.7,8.6 1.4,9.1 1.4,9.7 C1.4,9.9 1.4,10.1 1.5,10.3 C1.9,11 2.5,12.1 2.5,12.1 C2.5,12.1 2.7,12.7 3.6,12.7 L20.8,12.7 "/>
<path class="TimeSig" transform="matrix(0.992001,0,0,0.992001,319.331,708.599)" d="M20.8,12.7 L20.8,20.1 L12.5,20.1 C11.8,20.1 11.1,20.7 11.1,21.5 L11.1,23.4 C11.1,24.2 11.8,24.8 12.5,24.8 L42.8,24.8 C43.6,24.8 44.2,24.2 44.2,23.4 L44.2,21.5 C44.2,20.7 43.6,20.1 42.8,20.1 L33.9,20.1 L33.9,12.7 L42.8,12.7 C43.6,12.7 44.2,12 44.2,11.2 L44.2,9.3 C44.2,8.6 43.6,7.9 42.8,7.9 L33.9,7.9 L33.9,-8 C33.9,-8.6 33.6,-9.1 33.1,-9.3 L31.9,-9.9 C31.7,-10 31.4,-10.1 31.2,-10.1 C30.9,-10 30.5,-9.9 30.3,-9.7 L21.2,-1.4 C20.9,-1.1 20.8,-0.7 20.8,-0.3 L20.8,7.9 L9.3,7.9 C9.3,7.9 20.4,-4.1 32.2,-19.9 C32.6,-20.4 32.7,-20.9 32.7,-21.3 C32.7,-21.8 32.5,-22.2 32.4,-22.3 L30.2,-24.5 C30,-24.7 29.6,-24.9 29.2,-24.9 C28.6,-24.9 15.1,-24.9 14.4,-24.9 C13.6,-24.9 13.1,-24.3 13,-23.7 C13,-23.7 12.5,-16.3 9.9,-8.2 C7.3,-0.1 4.3,4.9 1.7,8.6 C1.7,8.6 1.4,9.1 1.4,9.7 C1.4,9.9 1.4,10.1 1.5,10.3 C1.9,11 2.5,12.1 2.5,12.1 C2.5,12.1 2.7,12.7 3.6,12.7 L20.8,12.7 "/>
<path class="Harmony" d="M1564.6,1003.69 L1531.88,1003.69 L1531.88,1006.27 L1532.87,1006.27 C1536,1006.33 1537.05,1006.49 1537.49,1007.04 C1537.82,1007.54 1537.82,1007.65 1537.82,1010.45 L1537.82,1036.63 C1537.82,1039.44 1537.82,1039.55 1537.49,1040.04 C1537.05,1040.59 1536,1040.81 1532.87,1040.81 L1531.88,1040.81 L1531.88,1043.4 L1550.74,1043.4 L1550.74,1040.81 L1548.93,1040.81 C1545.79,1040.81 1544.75,1040.59 1544.31,1040.04 C1543.98,1039.55 1543.98,1039.38 1543.98,1036.63 L1543.98,1024.15 L1545.08,1024.15 C1550.74,1023.93 1552.78,1025.96 1553,1032.07 L1555.58,1032.07 L1555.58,1014.03 L1553,1014.03 C1552.67,1019.42 1550.52,1021.51 1545.3,1021.56 L1543.98,1021.56 L1543.98,1009.02 C1543.92,1006.71 1544.47,1006.33 1547.44,1006.27 L1549.97,1006.27 C1558.99,1006.22 1561.25,1008.25 1562.95,1017.71 L1565.37,1017.71 L1564.6,1003.69 "/>
<path class="Harmony" d="M2637.47,532.104 L2635.38,532.104 L2633.18,535.349 C2629.16,532.434 2627.13,531.664 2623.33,531.664 C2618.11,531.664 2613.65,533.864 2609.97,538.264 C2606.45,542.444 2604.8,547.064 2604.8,552.729 C2604.8,564.609 2612.55,573.024 2623.39,573.024 C2632.19,573.024 2637.8,567.854 2639.06,558.614 L2636.48,558.174 C2634.99,566.369 2630.81,570.439 2624.05,570.439 C2615.91,570.439 2612.06,564.829 2612.06,552.949 C2612.06,546.679 2612.88,542.554 2614.75,539.254 C2616.46,536.174 2619.81,534.249 2623.39,534.249 C2627.24,534.249 2630.65,536.284 2632.74,539.804 C2633.78,541.619 2634.55,543.654 2635.87,547.999 L2638.29,547.999 L2637.47,532.104 "/>
<path class="Harmony" d="M738.971,1474.51 L736.881,1474.51 L734.681,1477.75 C730.666,1474.84 728.631,1474.07 724.836,1474.07 C719.611,1474.07 715.156,1476.27 711.471,1480.67 C707.951,1484.85 706.301,1489.47 706.301,1495.13 C706.301,1507.01 714.056,1515.43 724.891,1515.43 C733.691,1515.43 739.301,1510.26 740.566,1501.02 L737.981,1500.58 C736.496,1508.77 732.316,1512.84 725.551,1512.84 C717.411,1512.84 713.561,1507.23 713.561,1495.35 C713.561,1489.08 714.386,1484.96 716.256,1481.66 C717.961,1478.58 721.316,1476.65 724.891,1476.65 C728.741,1476.65 732.151,1478.69 734.241,1482.21 C735.286,1484.02 736.056,1486.06 737.376,1490.4 L739.796,1490.4 L738.971,1474.51 "/>
<path class="Harmony" d="M546.427,1474.51 L544.337,1474.51 L542.137,1477.75 C538.122,1474.84 536.087,1474.07 532.292,1474.07 C527.067,1474.07 522.612,1476.27 518.927,1480.67 C515.407,1484.85 513.757,1489.47 513.757,1495.13 C513.757,1507.01 521.512,1515.43 532.347,1515.43 C541.147,1515.43 546.757,1510.26 548.022,1501.02 L545.437,1500.58 C543.952,1508.77 539.772,1512.84 533.007,1512.84 C524.867,1512.84 521.017,1507.23 521.017,1495.35 C521.017,1489.08 521.842,1484.96 523.712,1481.66 C525.417,1478.58 528.772,1476.65 532.347,1476.65 C536.197,1476.65 539.607,1478.69 541.697,1482.21 C542.742,1484.02 543.512,1486.06 544.832,1490.4 L547.252,1490.4 L546.427,1474.51 "/>
<path class="Harmony" d="M390.587,1474.51 L388.497,1474.51 L386.297,1477.75 C382.282,1474.84 380.247,1474.07 376.452,1474.07 C371.227,1474.07 366.772,1476.27 363.087,1480.67 C359.567,1484.85 357.917,1489.47 357.917,1495.13 C357.917,1507.01 365.672,1515.43 376.507,1515.43 C385.307,1515.43 390.917,1510.26 392.182,1501.02 L389.597,1500.58 C388.112,1508.77 383.932,1512.84 377.167,1512.84 C369.027,1512.84 365.177,1507.23 365.177,1495.35 C365.177,1489.08 366.002,1484.96 367.872,1481.66 C369.577,1478.58 372.932,1476.65 376.507,1476.65 C380.357,1476.65 383.767,1478.69 385.857,1482.21 C386.902,1484.02 387.672,1486.06 388.992,1490.4 L391.412,1490.4 L390.587,1474.51 "/>
<path class="Harmony" d="M2615.03,1474.51 L2612.94,1474.51 L2610.74,1477.75 C2606.72,1474.84 2604.69,1474.07 2600.89,1474.07 C2595.67,1474.07 2591.21,1476.27 2587.53,1480.67 C2584.01,1484.85 2582.36,1489.47 2582.36,1495.13 C2582.36,1507.01 2590.11,1515.43 2600.95,1515.43 C2609.75,1515.43 2615.36,1510.26 2616.62,1501.02 L2614.04,1500.58 C2612.55,1508.77 2608.37,1512.84 2601.61,1512.84 C2593.47,1512.84 2589.62,1507.23 2589.62,1495.35 C2589.62,1489.08 2590.44,1484.96 2592.31,1481.66 C2594.02,1478.58 2597.37,1476.65 2600.95,1476.65 C2604.8,1476.65 2608.21,1478.69 2610.3,1482.21 C2611.34,1484.02 2612.11,1486.06 2613.43,1490.4 L2615.85,1490.4 L2615.03,1474.51 "/>
<path class="Harmony" d="M2551.76,1003.3 L2549.67,1003.3 L2547.53,1006.6 C2543.95,1003.8 2541.53,1002.86 2537.52,1002.86 C2533.17,1002.86 2529.76,1004.07 2526.3,1006.88 C2520.85,1011.28 2518.32,1016.83 2518.32,1024.26 C2518.32,1029.87 2519.92,1034.54 2523.16,1038.12 C2526.57,1041.97 2531.63,1044.22 2536.91,1044.22 C2541.53,1044.22 2544.78,1042.79 2548.35,1039.22 L2550.39,1044.17 L2552.7,1044.17 L2552.7,1032.07 C2552.7,1029.26 2552.7,1029.15 2553.03,1028.66 C2553.52,1028.05 2554.51,1027.89 2557.65,1027.89 L2558.47,1027.89 L2558.47,1025.3 L2540.98,1025.3 L2540.98,1027.89 L2542.03,1027.89 C2546.65,1027.89 2547.03,1028.16 2547.03,1031.24 C2547.03,1033.61 2546.65,1035.75 2545.93,1037.07 C2544.56,1039.77 2541.04,1041.64 2537.46,1041.64 C2533.89,1041.64 2530.37,1039.82 2528.5,1037.07 C2526.46,1033.99 2525.58,1030.14 2525.58,1024.26 C2525.58,1011.99 2529.65,1005.45 2537.3,1005.45 C2543.57,1005.45 2547.91,1009.96 2550.17,1018.76 L2552.53,1018.76 L2551.76,1003.3 "/>
<path class="Harmony" d="M2564.49,1017.99 L2566.91,1018.37 L2567.9,1014.03 C2568.72,1010.4 2569.11,1009.85 2570.7,1009.85 C2570.98,1009.85 2571.42,1009.85 2571.91,1009.9 C2578.68,1010.23 2578.68,1010.23 2581.21,1010.23 C2581.92,1010.23 2583.19,1010.23 2584.73,1010.18 L2580.99,1017.71 C2576.92,1025.8 2576.42,1026.79 2575.05,1030.2 C2573.34,1034.32 2572.46,1037.79 2572.46,1040.1 C2572.46,1042.63 2573.78,1044.17 2575.93,1044.17 C2578.57,1044.17 2579.61,1042.41 2579.56,1037.62 C2579.28,1029.7 2580.27,1025.85 2586.16,1012.98 C2587.15,1010.84 2588.19,1008.64 2589.18,1006.49 L2589.18,1004.9 C2585.88,1005.17 2584.12,1005.28 2580.71,1005.28 C2575.93,1005.28 2572.13,1005.12 2566.19,1004.68 L2564.49,1017.99 "/>
<path class="Harmony" d="M2459.19,1474.51 L2457.1,1474.51 L2454.9,1477.75 C2450.88,1474.84 2448.85,1474.07 2445.05,1474.07 C2439.83,1474.07 2435.37,1476.27 2431.69,1480.67 C2428.17,1484.85 2426.52,1489.47 2426.52,1495.13 C2426.52,1507.01 2434.27,1515.43 2445.11,1515.43 C2453.91,1515.43 2459.52,1510.26 2460.78,1501.02 L2458.2,1500.58 C2456.71,1508.77 2452.53,1512.84 2445.77,1512.84 C2437.63,1512.84 2433.78,1507.23 2433.78,1495.35 C2433.78,1489.08 2434.6,1484.96 2436.47,1481.66 C2438.18,1478.58 2441.53,1476.65 2445.11,1476.65 C2448.96,1476.65 2452.37,1478.69 2454.46,1482.21 C2455.5,1484.02 2456.27,1486.06 2457.59,1490.4 L2460.01,1490.4 L2459.19,1474.51 "/>
<path class="Harmony" d="M880.598,532.104 L878.508,532.104 L876.308,535.349 C872.293,532.434 870.258,531.664 866.463,531.664 C861.238,531.664 856.783,533.864 853.098,538.264 C849.578,542.444 847.928,547.064 847.928,552.729 C847.928,564.609 855.683,573.024 866.518,573.024 C875.318,573.024 880.928,567.854 882.193,558.614 L879.608,558.174 C878.123,566.369 873.943,570.439 867.178,570.439 C859.038,570.439 855.188,564.829 855.188,552.949 C855.188,546.679 856.013,542.554 857.883,539.254 C859.588,536.174 862.943,534.249 866.518,534.249 C870.368,534.249 873.778,536.284 875.868,539.804 C876.913,541.619 877.683,543.654 879.003,547.999 L881.423,547.999 L880.598,532.104 "/>
<path class="Harmony" d="M1006.97,1474.89 L974.249,1474.89 L974.249,1477.48 L975.239,1477.48 C978.374,1477.53 979.419,1477.7 979.859,1478.25 C980.189,1478.74 980.189,1478.85 980.189,1481.66 L980.189,1507.84 C980.189,1510.64 980.189,1510.75 979.859,1511.25 C979.419,1511.8 978.374,1512.02 975.239,1512.02 L974.249,1512.02 L974.249,1514.6 L993.114,1514.6 L993.114,1512.02 L991.299,1512.02 C988.164,1512.02 987.119,1511.8 986.679,1511.25 C986.349,1510.75 986.349,1510.59 986.349,1507.84 L986.349,1495.35 L987.449,1495.35 C993.114,1495.13 995.149,1497.17 995.369,1503.27 L997.954,1503.27 L997.954,1485.23 L995.369,1485.23 C995.039,1490.62 992.894,1492.71 987.669,1492.77 L986.349,1492.77 L986.349,1480.23 C986.294,1477.92 986.844,1477.53 989.814,1477.48 L992.344,1477.48 C1001.36,1477.42 1003.62,1479.46 1005.32,1488.92 L1007.74,1488.92 L1006.97,1474.89 "/>
<path class="Harmony" d="M2309.2,1003.69 L2276.48,1003.69 L2276.48,1006.27 L2277.47,1006.27 C2280.6,1006.33 2281.65,1006.49 2282.09,1007.04 C2282.42,1007.54 2282.42,1007.65 2282.42,1010.45 L2282.42,1036.63 C2282.42,1039.44 2282.42,1039.55 2282.09,1040.04 C2281.65,1040.59 2280.6,1040.81 2277.47,1040.81 L2276.48,1040.81 L2276.48,1043.4 L2295.34,1043.4 L2295.34,1040.81 L2293.53,1040.81 C2290.39,1040.81 2289.35,1040.59 2288.91,1040.04 C2288.58,1039.55 2288.58,1039.38 2288.58,1036.63 L2288.58,1024.15 L2289.68,1024.15 C2295.34,1023.93 2297.38,1025.96 2297.6,1032.07 L2300.18,1032.07 L2300.18,1014.03 L2297.6,1014.03 C2297.27,1019.42 2295.12,1021.51 2289.9,1021.56 L2288.58,1021.56 L2288.58,1009.02 C2288.52,1006.71 2289.07,1006.33 2292.04,1006.27 L2294.57,1006.27 C2303.59,1006.22 2305.85,1008.25 2307.55,1017.71 L2309.97,1017.71 L2309.2,1003.69 "/>
<path class="Harmony" d="M1082.44,532.104 L1080.35,532.104 L1078.15,535.349 C1074.14,532.434 1072.1,531.664 1068.31,531.664 C1063.08,531.664 1058.63,533.864 1054.94,538.264 C1051.42,542.444 1049.77,547.064 1049.77,552.729 C1049.77,564.609 1057.53,573.024 1068.36,573.024 C1077.16,573.024 1082.77,567.854 1084.04,558.614 L1081.45,558.174 C1079.97,566.369 1075.79,570.439 1069.02,570.439 C1060.88,570.439 1057.03,564.829 1057.03,552.949 C1057.03,546.679 1057.86,542.554 1059.73,539.254 C1061.43,536.174 1064.79,534.249 1068.36,534.249 C1072.21,534.249 1075.62,536.284 1077.71,539.804 C1078.76,541.619 1079.53,543.654 1080.85,547.999 L1083.27,547.999 L1082.44,532.104 "/>
<path class="Harmony" d="M1092.7,546.789 L1095.12,547.174 L1096.11,542.829 C1096.93,539.199 1097.32,538.649 1098.91,538.649 C1099.19,538.649 1099.63,538.649 1100.12,538.704 C1106.89,539.034 1106.89,539.034 1109.42,539.034 C1110.13,539.034 1111.4,539.034 1112.94,538.979 L1109.2,546.514 C1105.13,554.599 1104.63,555.589 1103.26,558.999 C1101.55,563.124 1100.67,566.589 1100.67,568.899 C1100.67,571.429 1101.99,572.969 1104.14,572.969 C1106.78,572.969 1107.82,571.209 1107.77,566.424 C1107.49,558.504 1108.48,554.654 1114.37,541.784 C1115.36,539.639 1116.4,537.439 1117.39,535.294 L1117.39,533.699 C1114.09,533.974 1112.33,534.084 1108.92,534.084 C1104.14,534.084 1100.34,533.919 1094.4,533.479 L1092.7,546.789 "/>
<path class="Harmony" d="M2437.14,532.104 L2435.05,532.104 L2432.85,535.349 C2428.83,532.434 2426.8,531.664 2423,531.664 C2417.78,531.664 2413.32,533.864 2409.64,538.264 C2406.12,542.444 2404.47,547.064 2404.47,552.729 C2404.47,564.609 2412.22,573.024 2423.06,573.024 C2431.86,573.024 2437.47,567.854 2438.73,558.614 L2436.15,558.174 C2434.66,566.369 2430.48,570.439 2423.72,570.439 C2415.58,570.439 2411.73,564.829 2411.73,552.949 C2411.73,546.679 2412.55,542.554 2414.42,539.254 C2416.13,536.174 2419.48,534.249 2423.06,534.249 C2426.91,534.249 2430.32,536.284 2432.41,539.804 C2433.45,541.619 2434.22,543.654 2435.54,547.999 L2437.96,547.999 L2437.14,532.104 "/>
<path class="Harmony" d="M2084.92,1003.3 L2082.83,1003.3 L2080.63,1006.55 C2076.61,1003.63 2074.58,1002.86 2070.78,1002.86 C2065.56,1002.86 2061.1,1005.06 2057.42,1009.46 C2053.9,1013.64 2052.25,1018.26 2052.25,1023.93 C2052.25,1035.81 2060,1044.22 2070.84,1044.22 C2079.64,1044.22 2085.25,1039.05 2086.51,1029.81 L2083.93,1029.37 C2082.44,1037.57 2078.26,1041.64 2071.5,1041.64 C2063.36,1041.64 2059.51,1036.03 2059.51,1024.15 C2059.51,1017.88 2060.33,1013.75 2062.2,1010.45 C2063.91,1007.37 2067.26,1005.45 2070.84,1005.45 C2074.69,1005.45 2078.1,1007.48 2080.19,1011 C2081.23,1012.82 2082,1014.85 2083.32,1019.2 L2085.74,1019.2 L2084.92,1003.3 "/>
<path class="Harmony" d="M2095.17,1017.99 L2097.59,1018.37 L2098.58,1014.03 C2099.41,1010.4 2099.79,1009.85 2101.39,1009.85 C2101.66,1009.85 2102.1,1009.85 2102.6,1009.9 C2109.36,1010.23 2109.36,1010.23 2111.89,1010.23 C2112.61,1010.23 2113.87,1010.23 2115.41,1010.18 L2111.67,1017.71 C2107.6,1025.8 2107.11,1026.79 2105.73,1030.2 C2104.03,1034.32 2103.15,1037.79 2103.15,1040.1 C2103.15,1042.63 2104.47,1044.17 2106.61,1044.17 C2109.25,1044.17 2110.3,1042.41 2110.24,1037.62 C2109.97,1029.7 2110.96,1025.85 2116.84,1012.98 C2117.83,1010.84 2118.88,1008.64 2119.87,1006.49 L2119.87,1004.9 C2116.57,1005.17 2114.81,1005.28 2111.4,1005.28 C2106.61,1005.28 2102.82,1005.12 2096.88,1004.68 L2095.17,1017.99 "/>
<path class="Harmony" d="M1274.49,532.104 L1272.4,532.104 L1270.2,535.349 C1266.19,532.434 1264.15,531.664 1260.36,531.664 C1255.13,531.664 1250.68,533.864 1246.99,538.264 C1243.47,542.444 1241.82,547.064 1241.82,552.729 C1241.82,564.609 1249.58,573.024 1260.41,573.024 C1269.21,573.024 1274.82,567.854 1276.09,558.614 L1273.5,558.174 C1272.02,566.369 1267.84,570.439 1261.07,570.439 C1252.93,570.439 1249.08,564.829 1249.08,552.949 C1249.08,546.679 1249.91,542.554 1251.78,539.254 C1253.48,536.174 1256.84,534.249 1260.41,534.249 C1264.26,534.249 1267.67,536.284 1269.76,539.804 C1270.81,541.619 1271.58,543.654 1272.9,547.999 L1275.32,547.999 L1274.49,532.104 "/>
<path class="Harmony" d="M1843.09,1003.3 L1841,1003.3 L1838.8,1006.55 C1834.78,1003.63 1832.75,1002.86 1828.95,1002.86 C1823.73,1002.86 1819.27,1005.06 1815.59,1009.46 C1812.07,1013.64 1810.42,1018.26 1810.42,1023.93 C1810.42,1035.81 1818.17,1044.22 1829.01,1044.22 C1837.81,1044.22 1843.42,1039.05 1844.68,1029.81 L1842.1,1029.37 C1840.61,1037.57 1836.43,1041.64 1829.67,1041.64 C1821.53,1041.64 1817.68,1036.03 1817.68,1024.15 C1817.68,1017.88 1818.5,1013.75 1820.37,1010.45 C1822.08,1007.37 1825.43,1005.45 1829.01,1005.45 C1832.86,1005.45 1836.27,1007.48 1838.36,1011 C1839.4,1012.82 1840.17,1014.85 1841.49,1019.2 L1843.91,1019.2 L1843.09,1003.3 "/>
<path class="Harmony" d="M429.322,532.104 L427.232,532.104 L425.032,535.349 C421.017,532.434 418.982,531.664 415.187,531.664 C409.962,531.664 405.507,533.864 401.822,538.264 C398.302,542.444 396.652,547.064 396.652,552.729 C396.652,564.609 404.407,573.024 415.242,573.024 C424.042,573.024 429.652,567.854 430.917,558.614 L428.332,558.174 C426.847,566.369 422.667,570.439 415.902,570.439 C407.762,570.439 403.912,564.829 403.912,552.949 C403.912,546.679 404.737,542.554 406.607,539.254 C408.312,536.174 411.667,534.249 415.242,534.249 C419.092,534.249 422.502,536.284 424.592,539.804 C425.637,541.619 426.407,543.654 427.727,547.999 L430.147,547.999 L429.322,532.104 "/>
<path class="Harmony" d="M1477.11,532.104 L1475.02,532.104 L1472.88,535.404 C1469.3,532.599 1466.88,531.664 1462.87,531.664 C1458.52,531.664 1455.11,532.874 1451.65,535.679 C1446.2,540.079 1443.67,545.634 1443.67,553.059 C1443.67,558.669 1445.27,563.344 1448.51,566.919 C1451.92,570.769 1456.98,573.024 1462.26,573.024 C1466.88,573.024 1470.13,571.594 1473.7,568.019 L1475.74,572.969 L1478.05,572.969 L1478.05,560.869 C1478.05,558.064 1478.05,557.954 1478.38,557.459 C1478.87,556.854 1479.86,556.689 1483,556.689 L1483.82,556.689 L1483.82,554.104 L1466.33,554.104 L1466.33,556.689 L1467.38,556.689 C1472,556.689 1472.38,556.964 1472.38,560.044 C1472.38,562.409 1472,564.554 1471.28,565.874 C1469.91,568.569 1466.39,570.439 1462.81,570.439 C1459.24,570.439 1455.72,568.624 1453.85,565.874 C1451.81,562.794 1450.93,558.944 1450.93,553.059 C1450.93,540.794 1455,534.249 1462.65,534.249 C1468.92,534.249 1473.26,538.759 1475.52,547.559 L1477.88,547.559 L1477.11,532.104 "/>
<path class="Harmony" d="M1489.84,546.789 L1492.26,547.174 L1493.25,542.829 C1494.08,539.199 1494.46,538.649 1496.06,538.649 C1496.33,538.649 1496.77,538.649 1497.27,538.704 C1504.03,539.034 1504.03,539.034 1506.56,539.034 C1507.28,539.034 1508.54,539.034 1510.08,538.979 L1506.34,546.514 C1502.27,554.599 1501.78,555.589 1500.4,558.999 C1498.7,563.124 1497.82,566.589 1497.82,568.899 C1497.82,571.429 1499.14,572.969 1501.28,572.969 C1503.92,572.969 1504.97,571.209 1504.91,566.424 C1504.64,558.504 1505.63,554.654 1511.51,541.784 C1512.5,539.639 1513.55,537.439 1514.54,535.294 L1514.54,533.699 C1511.24,533.974 1509.48,534.084 1506.07,534.084 C1501.28,534.084 1497.49,533.919 1491.55,533.479 L1489.84,546.789 "/>
<path class="Harmony" d="M1311.58,1474.51 L1309.49,1474.51 L1307.29,1477.75 C1303.28,1474.84 1301.24,1474.07 1297.45,1474.07 C1292.22,1474.07 1287.77,1476.27 1284.08,1480.67 C1280.56,1484.85 1278.91,1489.47 1278.91,1495.13 C1278.91,1507.01 1286.67,1515.43 1297.5,1515.43 C1306.3,1515.43 1311.91,1510.26 1313.18,1501.02 L1310.59,1500.58 C1309.11,1508.77 1304.93,1512.84 1298.16,1512.84 C1290.02,1512.84 1286.17,1507.23 1286.17,1495.35 C1286.17,1489.08 1287,1484.96 1288.87,1481.66 C1290.57,1478.58 1293.93,1476.65 1297.5,1476.65 C1301.35,1476.65 1304.76,1478.69 1306.85,1482.21 C1307.9,1484.02 1308.67,1486.06 1309.99,1490.4 L1312.41,1490.4 L1311.58,1474.51 "/>
<path class="Harmony" d="M1322.72,1003.3 L1320.63,1003.3 L1318.43,1006.55 C1314.41,1003.63 1312.38,1002.86 1308.58,1002.86 C1303.36,1002.86 1298.9,1005.06 1295.22,1009.46 C1291.7,1013.64 1290.05,1018.26 1290.05,1023.93 C1290.05,1035.81 1297.8,1044.22 1308.64,1044.22 C1317.44,1044.22 1323.05,1039.05 1324.31,1029.81 L1321.73,1029.37 C1320.24,1037.57 1316.06,1041.64 1309.3,1041.64 C1301.16,1041.64 1297.31,1036.03 1297.31,1024.15 C1297.31,1017.88 1298.13,1013.75 1300,1010.45 C1301.71,1007.37 1305.06,1005.45 1308.64,1005.45 C1312.49,1005.45 1315.9,1007.48 1317.99,1011 C1319.03,1012.82 1319.8,1014.85 1321.12,1019.2 L1323.54,1019.2 L1322.72,1003.3 "/>
<path class="Harmony" d="M1716.14,532.104 L1714.05,532.104 L1711.85,535.349 C1707.83,532.434 1705.8,531.664 1702,531.664 C1696.78,531.664 1692.32,533.864 1688.64,538.264 C1685.12,542.444 1683.47,547.064 1683.47,552.729 C1683.47,564.609 1691.22,573.024 1702.06,573.024 C1710.86,573.024 1716.47,567.854 1717.73,558.614 L1715.15,558.174 C1713.66,566.369 1709.48,570.439 1702.72,570.439 C1694.58,570.439 1690.73,564.829 1690.73,552.949 C1690.73,546.679 1691.55,542.554 1693.42,539.254 C1695.13,536.174 1698.48,534.249 1702.06,534.249 C1705.91,534.249 1709.32,536.284 1711.41,539.804 C1712.45,541.619 1713.22,543.654 1714.54,547.999 L1716.96,547.999 L1716.14,532.104 "/>
<path class="Harmony" d="M2152.92,1474.51 L2150.83,1474.51 L2148.68,1477.81 C2145.11,1475 2142.69,1474.07 2138.67,1474.07 C2134.33,1474.07 2130.92,1475.28 2127.45,1478.08 C2122.01,1482.48 2119.48,1488.04 2119.48,1495.46 C2119.48,1501.07 2121.07,1505.75 2124.32,1509.32 C2127.73,1513.17 2132.79,1515.43 2138.07,1515.43 C2142.69,1515.43 2145.93,1514 2149.51,1510.42 L2151.54,1515.37 L2153.85,1515.37 L2153.85,1503.27 C2153.85,1500.47 2153.85,1500.36 2154.18,1499.86 C2154.68,1499.26 2155.67,1499.09 2158.8,1499.09 L2159.63,1499.09 L2159.63,1496.51 L2142.14,1496.51 L2142.14,1499.09 L2143.18,1499.09 C2147.8,1499.09 2148.19,1499.37 2148.19,1502.45 C2148.19,1504.81 2147.8,1506.96 2147.09,1508.28 C2145.71,1510.97 2142.19,1512.84 2138.62,1512.84 C2135.04,1512.84 2131.52,1511.03 2129.65,1508.28 C2127.62,1505.2 2126.74,1501.35 2126.74,1495.46 C2126.74,1483.2 2130.81,1476.65 2138.45,1476.65 C2144.72,1476.65 2149.07,1481.16 2151.32,1489.96 L2153.69,1489.96 L2152.92,1474.51 "/>
<path class="Harmony" d="M2165.65,1489.19 L2168.07,1489.58 L2169.06,1485.23 C2169.88,1481.6 2170.27,1481.05 2171.86,1481.05 C2172.14,1481.05 2172.58,1481.05 2173.07,1481.11 C2179.84,1481.44 2179.84,1481.44 2182.37,1481.44 C2183.08,1481.44 2184.35,1481.44 2185.89,1481.38 L2182.15,1488.92 C2178.08,1497 2177.58,1497.99 2176.21,1501.4 C2174.5,1505.53 2173.62,1508.99 2173.62,1511.3 C2173.62,1513.83 2174.94,1515.37 2177.09,1515.37 C2179.73,1515.37 2180.77,1513.61 2180.72,1508.83 C2180.44,1500.91 2181.43,1497.06 2187.32,1484.19 C2188.31,1482.04 2189.35,1479.84 2190.34,1477.7 L2190.34,1476.1 C2187.04,1476.38 2185.28,1476.49 2181.87,1476.49 C2177.09,1476.49 2173.29,1476.32 2167.35,1475.88 L2165.65,1489.19 "/>
<path class="Harmony" d="M1098.48,1003.3 L1096.39,1003.3 L1094.19,1006.55 C1090.18,1003.63 1088.14,1002.86 1084.35,1002.86 C1079.12,1002.86 1074.67,1005.06 1070.98,1009.46 C1067.46,1013.64 1065.81,1018.26 1065.81,1023.93 C1065.81,1035.81 1073.57,1044.22 1084.4,1044.22 C1093.2,1044.22 1098.81,1039.05 1100.08,1029.81 L1097.49,1029.37 C1096.01,1037.57 1091.83,1041.64 1085.06,1041.64 C1076.92,1041.64 1073.07,1036.03 1073.07,1024.15 C1073.07,1017.88 1073.9,1013.75 1075.77,1010.45 C1077.47,1007.37 1080.83,1005.45 1084.4,1005.45 C1088.25,1005.45 1091.66,1007.48 1093.75,1011 C1094.8,1012.82 1095.57,1014.85 1096.89,1019.2 L1099.31,1019.2 L1098.48,1003.3 "/>
<path class="Harmony" d="M1130.36,1025.69 C1130.36,1022.22 1129.75,1020.46 1128.16,1019.14 C1126.34,1017.66 1123.65,1016.94 1120.13,1016.94 C1113.91,1016.94 1109.4,1019.86 1109.4,1023.87 C1109.4,1025.91 1110.67,1027.23 1112.59,1027.23 C1114.35,1027.23 1115.56,1026.07 1115.56,1024.42 C1115.56,1023.71 1115.29,1022.94 1114.74,1022.17 C1114.41,1021.78 1114.35,1021.67 1114.35,1021.4 C1114.35,1020.3 1116.55,1019.31 1119.19,1019.31 C1120.95,1019.31 1122.88,1019.86 1123.76,1020.68 C1124.8,1021.56 1125.19,1022.88 1125.19,1025.36 L1125.19,1027.5 C1119.47,1028.49 1117.65,1028.93 1114.96,1029.98 C1110.17,1031.74 1107.92,1034.27 1107.92,1037.79 C1107.92,1041.75 1111,1044.22 1115.89,1044.22 C1119.69,1044.22 1123.1,1042.68 1125.46,1039.88 C1126.34,1042.68 1127.72,1043.78 1130.3,1043.78 C1132.78,1043.78 1135.36,1042.19 1135.36,1040.59 C1135.36,1040.21 1135.14,1039.93 1134.81,1039.93 C1134.59,1039.93 1134.37,1039.99 1133.99,1040.15 C1133.22,1040.48 1132.89,1040.54 1132.45,1040.54 C1130.91,1040.54 1130.36,1039.55 1130.36,1036.74 L1130.36,1025.69 M1125.19,1032.4 C1125.19,1035.7 1125.02,1036.47 1124.09,1037.9 C1122.71,1039.93 1120.24,1041.31 1117.82,1041.31 C1115.29,1041.31 1113.47,1039.49 1113.47,1037.02 C1113.47,1034.71 1114.63,1033.06 1117.05,1031.9 C1118.75,1031.13 1120.9,1030.58 1125.19,1029.87 L1125.19,1032.4 M1158.73,1043.78 L1168.74,1043.4 L1168.74,1041.03 L1167.37,1041.03 C1164.18,1040.92 1163.9,1040.59 1163.9,1037.02 L1163.9,1017.77 L1153.56,1018.37 L1153.56,1020.74 L1156.37,1020.74 C1158.46,1020.79 1158.73,1021.12 1158.73,1023.49 L1158.73,1030.25 C1158.73,1035.04 1157.58,1040.87 1151.53,1040.87 C1149.82,1040.87 1148.39,1040.26 1147.68,1039.16 C1146.96,1038.12 1146.85,1037.57 1146.85,1034.54 L1146.85,1017.77 L1137.23,1018.37 L1137.23,1020.74 L1139.32,1020.74 C1141.41,1020.79 1141.68,1021.12 1141.68,1023.49 L1141.68,1035.37 C1141.68,1038.17 1141.9,1039.44 1142.73,1040.7 C1144.21,1042.96 1146.85,1044.22 1150.15,1044.22 C1153.78,1044.22 1156.31,1042.74 1158.73,1039.22 L1158.73,1043.78 M1180.32,1039.33 C1177.3,1039.27 1177.13,1039.22 1176.47,1038.83 C1176.09,1038.61 1175.81,1038.01 1175.81,1037.4 C1175.81,1035.75 1177.3,1035.04 1180.98,1034.93 C1186.15,1034.82 1186.98,1034.71 1188.85,1033.88 C1192.15,1032.4 1193.96,1029.54 1193.96,1025.91 C1193.96,1023.71 1193.47,1022.33 1191.98,1020.52 C1192.92,1019.53 1193.41,1019.2 1193.85,1019.2 C1194.13,1019.2 1194.29,1019.36 1194.4,1019.97 C1194.62,1021.29 1195.5,1022 1196.88,1022 C1198.31,1022 1199.35,1020.85 1199.35,1019.36 C1199.35,1017.49 1197.87,1016.17 1195.72,1016.17 C1193.96,1016.17 1192.97,1016.72 1190.44,1019.03 C1188.13,1017.49 1186.37,1016.94 1183.62,1016.94 C1177.08,1016.94 1172.79,1020.57 1172.79,1026.07 C1172.79,1029.32 1174.55,1032.07 1177.41,1033.44 C1173.72,1034.27 1172.18,1035.92 1172.18,1038.94 C1172.18,1041.36 1173.28,1042.79 1175.87,1043.67 C1172.46,1044.94 1170.81,1046.64 1170.81,1048.9 C1170.81,1050.55 1171.91,1052.09 1173.67,1053.02 C1175.81,1054.12 1178.45,1054.56 1182.41,1054.56 C1191.6,1054.56 1196.16,1051.65 1196.16,1045.87 C1196.16,1043.12 1194.9,1040.92 1192.92,1040.1 C1191.43,1039.55 1189.67,1039.33 1185.93,1039.33 L1180.32,1039.33 M1183.57,1019.31 C1186.98,1019.31 1188.9,1021.67 1188.9,1025.96 C1188.9,1030.25 1186.81,1032.84 1183.35,1032.84 C1179.94,1032.84 1177.79,1030.25 1177.79,1026.13 C1177.79,1021.78 1179.88,1019.31 1183.57,1019.31 M1183.07,1044.06 C1187.64,1044.06 1187.97,1044.06 1188.74,1044.17 C1190.99,1044.39 1192.31,1045.6 1192.31,1047.36 C1192.31,1050.49 1188.74,1052.31 1182.63,1052.31 C1177.96,1052.31 1175.37,1050.93 1175.37,1048.46 C1175.37,1046.64 1176.36,1045.43 1179,1044.06 L1183.07,1044.06 "/>
<path class="Harmony" d="M910.954,1003.3 L908.864,1003.3 L906.664,1006.55 C902.649,1003.63 900.614,1002.86 896.819,1002.86 C891.594,1002.86 887.139,1005.06 883.454,1009.46 C879.934,1013.64 878.284,1018.26 878.284,1023.93 C878.284,1035.81 886.039,1044.22 896.874,1044.22 C905.674,1044.22 911.284,1039.05 912.549,1029.81 L909.964,1029.37 C908.479,1037.57 904.299,1041.64 897.534,1041.64 C889.394,1041.64 885.544,1036.03 885.544,1024.15 C885.544,1017.88 886.369,1013.75 888.239,1010.45 C889.944,1007.37 893.299,1005.45 896.874,1005.45 C900.724,1005.45 904.134,1007.48 906.224,1011 C907.269,1012.82 908.039,1014.85 909.359,1019.2 L911.779,1019.2 L910.954,1003.3 "/>
<path class="Harmony" d="M1832.65,532.104 L1830.56,532.104 L1828.36,535.349 C1824.34,532.434 1822.31,531.664 1818.51,531.664 C1813.29,531.664 1808.83,533.864 1805.15,538.264 C1801.63,542.444 1799.98,547.064 1799.98,552.729 C1799.98,564.609 1807.73,573.024 1818.57,573.024 C1827.37,573.024 1832.98,567.854 1834.24,558.614 L1831.66,558.174 C1830.17,566.369 1825.99,570.439 1819.23,570.439 C1811.09,570.439 1807.24,564.829 1807.24,552.949 C1807.24,546.679 1808.06,542.554 1809.93,539.254 C1811.64,536.174 1814.99,534.249 1818.57,534.249 C1822.42,534.249 1825.83,536.284 1827.92,539.804 C1828.96,541.619 1829.73,543.654 1831.05,547.999 L1833.47,547.999 L1832.65,532.104 "/>
<path class="Harmony" d="M1568.08,1474.12 L1565.77,1474.12 L1553.12,1506.19 C1551.64,1510.48 1550.21,1511.8 1547.07,1512.02 L1546.85,1512.02 L1546.85,1514.6 L1561.43,1514.6 L1561.43,1512.02 L1560.33,1512.02 C1557.36,1512.02 1555.87,1510.97 1555.87,1508.88 C1555.87,1508.17 1556.04,1507.51 1556.37,1506.57 L1558.18,1501.73 L1572.76,1501.73 L1575.73,1509.1 C1576.06,1509.98 1576.17,1510.31 1576.17,1510.59 C1576.17,1511.47 1574.79,1512.02 1572.76,1512.02 L1570.45,1512.02 L1570.45,1514.6 L1587.5,1514.6 L1587.5,1512.02 L1586.73,1512.02 C1583.87,1511.96 1583.37,1511.63 1582.11,1508.5 L1568.08,1474.12 M1565.39,1483.14 L1571.6,1498.76 L1559.28,1498.76 L1565.39,1483.14 "/>
<path class="Harmony" d="M1608.21,1489.41 C1606.5,1488.53 1604.96,1488.15 1603.2,1488.15 C1596.55,1488.15 1591.32,1494.2 1591.32,1501.84 C1591.32,1506.41 1593.03,1510.42 1596.05,1513.06 L1592.7,1519.61 L1595.45,1519.61 L1598.14,1514.38 C1599.52,1515.1 1601.17,1515.43 1603.04,1515.43 C1610.13,1515.43 1615.08,1509.93 1615.08,1502.06 C1615.08,1497.61 1613.27,1493.37 1610.24,1490.73 L1613.71,1484.08 L1610.96,1484.08 L1608.21,1489.41 M1598.14,1508.99 C1597.43,1507.01 1597.1,1504.98 1597.1,1502.01 C1597.1,1494.36 1599.19,1490.51 1603.26,1490.51 C1604.69,1490.51 1605.68,1490.95 1606.83,1492.11 L1598.14,1508.99 M1608.32,1494.58 C1608.98,1496.56 1609.31,1498.65 1609.31,1501.24 C1609.31,1509.05 1607.22,1513.06 1603.15,1513.06 C1601.72,1513.06 1600.56,1512.57 1599.63,1511.47 L1608.32,1494.58 "/>
<path class="Harmony" d="M1620.2,1489.19 L1622.62,1489.58 L1623.61,1485.23 C1624.43,1481.6 1624.82,1481.05 1626.41,1481.05 C1626.69,1481.05 1627.13,1481.05 1627.62,1481.11 C1634.39,1481.44 1634.39,1481.44 1636.92,1481.44 C1637.63,1481.44 1638.9,1481.44 1640.44,1481.38 L1636.7,1488.92 C1632.63,1497 1632.13,1497.99 1630.76,1501.4 C1629.05,1505.53 1628.17,1508.99 1628.17,1511.3 C1628.17,1513.83 1629.49,1515.37 1631.64,1515.37 C1634.28,1515.37 1635.32,1513.61 1635.27,1508.83 C1634.99,1500.91 1635.98,1497.06 1641.87,1484.19 C1642.86,1482.04 1643.9,1479.84 1644.89,1477.7 L1644.89,1476.1 C1641.59,1476.38 1639.83,1476.49 1636.42,1476.49 C1631.64,1476.49 1627.84,1476.32 1621.9,1475.88 L1620.2,1489.19 "/>
<path class="Harmony" d="M599.744,1043.4 L618.224,1043.4 C623.119,1043.4 626.859,1042.63 629.774,1040.98 C635.329,1037.84 638.409,1031.57 638.409,1023.32 C638.409,1015.73 635.659,1009.79 630.599,1006.49 C627.574,1004.57 623.504,1003.69 617.234,1003.69 L599.744,1003.69 L599.744,1006.27 L600.789,1006.27 C603.869,1006.33 604.914,1006.49 605.354,1007.04 C605.684,1007.54 605.684,1007.65 605.684,1010.45 L605.684,1036.63 C605.684,1039.44 605.684,1039.55 605.354,1040.04 C604.914,1040.59 603.869,1040.76 600.789,1040.81 L599.744,1040.81 L599.744,1043.4 M614.979,1040.81 C612.174,1040.81 611.844,1040.48 611.844,1037.79 L611.844,1009.35 C611.844,1006.66 612.229,1006.27 614.979,1006.27 L617.839,1006.27 C627.244,1006.27 631.149,1011.39 631.149,1023.54 C631.149,1035.86 627.629,1040.81 618.719,1040.81 L614.979,1040.81 "/>
<path class="Harmony" d="M646.628,1017.99 L649.048,1018.37 L650.038,1014.03 C650.863,1010.4 651.248,1009.85 652.843,1009.85 C653.118,1009.85 653.558,1009.85 654.053,1009.9 C660.818,1010.23 660.818,1010.23 663.348,1010.23 C664.063,1010.23 665.328,1010.23 666.868,1010.18 L663.128,1017.71 C659.058,1025.8 658.563,1026.79 657.188,1030.2 C655.483,1034.32 654.603,1037.79 654.603,1040.1 C654.603,1042.63 655.923,1044.17 658.068,1044.17 C660.708,1044.17 661.753,1042.41 661.698,1037.62 C661.423,1029.7 662.413,1025.85 668.298,1012.98 C669.288,1010.84 670.333,1008.64 671.323,1006.49 L671.323,1004.9 C668.023,1005.17 666.263,1005.28 662.853,1005.28 C658.068,1005.28 654.273,1005.12 648.333,1004.68 L646.628,1017.99 "/>
<path class="Harmony" d="M1985.86,532.104 L1983.77,532.104 L1981.57,535.349 C1977.56,532.434 1975.52,531.664 1971.73,531.664 C1966.5,531.664 1962.05,533.864 1958.36,538.264 C1954.84,542.444 1953.19,547.064 1953.19,552.729 C1953.19,564.609 1960.95,573.024 1971.78,573.024 C1980.58,573.024 1986.19,567.854 1987.46,558.614 L1984.87,558.174 C1983.39,566.369 1979.21,570.439 1972.44,570.439 C1964.3,570.439 1960.45,564.829 1960.45,552.949 C1960.45,546.679 1961.28,542.554 1963.15,539.254 C1964.85,536.174 1968.21,534.249 1971.78,534.249 C1975.63,534.249 1979.04,536.284 1981.13,539.804 C1982.18,541.619 1982.95,543.654 1984.27,547.999 L1986.69,547.999 L1985.86,532.104 "/>
<path class="Harmony" d="M357.912,1043.4 L376.392,1043.4 C381.287,1043.4 385.027,1042.63 387.942,1040.98 C393.497,1037.84 396.577,1031.57 396.577,1023.32 C396.577,1015.73 393.827,1009.79 388.767,1006.49 C385.742,1004.57 381.672,1003.69 375.402,1003.69 L357.912,1003.69 L357.912,1006.27 L358.957,1006.27 C362.037,1006.33 363.082,1006.49 363.522,1007.04 C363.852,1007.54 363.852,1007.65 363.852,1010.45 L363.852,1036.63 C363.852,1039.44 363.852,1039.55 363.522,1040.04 C363.082,1040.59 362.037,1040.76 358.957,1040.81 L357.912,1040.81 L357.912,1043.4 M373.147,1040.81 C370.342,1040.81 370.012,1040.48 370.012,1037.79 L370.012,1009.35 C370.012,1006.66 370.397,1006.27 373.147,1006.27 L376.007,1006.27 C385.412,1006.27 389.317,1011.39 389.317,1023.54 C389.317,1035.86 385.797,1040.81 376.887,1040.81 L373.147,1040.81 "/>
<path class="Harmony" d="M404.797,1017.99 L407.217,1018.37 L408.207,1014.03 C409.032,1010.4 409.417,1009.85 411.012,1009.85 C411.287,1009.85 411.727,1009.85 412.222,1009.9 C418.987,1010.23 418.987,1010.23 421.517,1010.23 C422.232,1010.23 423.497,1010.23 425.037,1010.18 L421.297,1017.71 C417.227,1025.8 416.732,1026.79 415.357,1030.2 C413.652,1034.32 412.772,1037.79 412.772,1040.1 C412.772,1042.63 414.092,1044.17 416.237,1044.17 C418.877,1044.17 419.922,1042.41 419.867,1037.62 C419.592,1029.7 420.582,1025.85 426.467,1012.98 C427.457,1010.84 428.502,1008.64 429.492,1006.49 L429.492,1004.9 C426.192,1005.17 424.432,1005.28 421.022,1005.28 C416.237,1005.28 412.442,1005.12 406.502,1004.68 L404.797,1017.99 "/>
<path class="Harmony" d="M2186.19,532.104 L2184.1,532.104 L2181.9,535.349 C2177.89,532.434 2175.85,531.664 2172.06,531.664 C2166.83,531.664 2162.38,533.864 2158.69,538.264 C2155.17,542.444 2153.52,547.064 2153.52,552.729 C2153.52,564.609 2161.28,573.024 2172.11,573.024 C2180.91,573.024 2186.52,567.854 2187.79,558.614 L2185.2,558.174 C2183.72,566.369 2179.54,570.439 2172.77,570.439 C2164.63,570.439 2160.78,564.829 2160.78,552.949 C2160.78,546.679 2161.61,542.554 2163.48,539.254 C2165.18,536.174 2168.54,534.249 2172.11,534.249 C2175.96,534.249 2179.37,536.284 2181.46,539.804 C2182.51,541.619 2183.28,543.654 2184.6,547.999 L2187.02,547.999 L2186.19,532.104 "/>
<path class="Harmony" d="M629.701,532.489 L596.976,532.489 L596.976,535.074 L597.966,535.074 C601.101,535.129 602.146,535.294 602.586,535.844 C602.916,536.339 602.916,536.449 602.916,539.254 L602.916,565.434 C602.916,568.239 602.916,568.349 602.586,568.844 C602.146,569.394 601.101,569.614 597.966,569.614 L596.976,569.614 L596.976,572.199 L615.841,572.199 L615.841,569.614 L614.026,569.614 C610.891,569.614 609.846,569.394 609.406,568.844 C609.076,568.349 609.076,568.184 609.076,565.434 L609.076,552.949 L610.176,552.949 C615.841,552.729 617.876,554.764 618.096,560.869 L620.681,560.869 L620.681,542.829 L618.096,542.829 C617.766,548.219 615.621,550.309 610.396,550.364 L609.076,550.364 L609.076,537.824 C609.021,535.514 609.571,535.129 612.541,535.074 L615.071,535.074 C624.091,535.019 626.346,537.054 628.051,546.514 L630.471,546.514 L629.701,532.489 "/>
<path class="Harmony" d="M1851.52,1514.6 L1870,1514.6 C1874.89,1514.6 1878.63,1513.83 1881.55,1512.18 C1887.1,1509.05 1890.18,1502.78 1890.18,1494.53 C1890.18,1486.94 1887.43,1481 1882.37,1477.7 C1879.35,1475.77 1875.28,1474.89 1869.01,1474.89 L1851.52,1474.89 L1851.52,1477.48 L1852.56,1477.48 C1855.64,1477.53 1856.69,1477.7 1857.13,1478.25 C1857.46,1478.74 1857.46,1478.85 1857.46,1481.66 L1857.46,1507.84 C1857.46,1510.64 1857.46,1510.75 1857.13,1511.25 C1856.69,1511.8 1855.64,1511.96 1852.56,1512.02 L1851.52,1512.02 L1851.52,1514.6 M1866.75,1512.02 C1863.95,1512.02 1863.62,1511.69 1863.62,1508.99 L1863.62,1480.56 C1863.62,1477.86 1864,1477.48 1866.75,1477.48 L1869.61,1477.48 C1879.02,1477.48 1882.92,1482.59 1882.92,1494.75 C1882.92,1507.07 1879.4,1512.02 1870.49,1512.02 L1866.75,1512.02 "/>
<path class="Harmony" d="M1906.21,1488.97 L1896.42,1489.58 L1896.42,1491.94 L1898.67,1491.94 C1900.76,1492 1901.04,1492.33 1901.04,1494.69 L1901.04,1510.42 C1900.98,1511.25 1900.93,1511.58 1900.71,1511.85 C1900.32,1512.35 1899.28,1512.57 1896.91,1512.62 L1896.69,1512.62 L1896.69,1514.6 L1910.55,1514.6 L1910.55,1512.62 L1910.33,1512.62 C1906.7,1512.51 1906.21,1512.24 1906.21,1510.2 L1906.21,1500.03 C1906.21,1495.13 1908.9,1491.5 1912.48,1491.5 C1915.61,1491.5 1917.21,1493.76 1917.21,1498.21 L1917.21,1510.48 C1917.15,1511.19 1917.1,1511.58 1916.82,1511.85 C1916.49,1512.35 1915.39,1512.57 1913.03,1512.62 L1912.81,1512.62 L1912.81,1514.6 L1926.72,1514.6 L1926.72,1512.62 L1926.5,1512.62 C1922.87,1512.51 1922.38,1512.24 1922.38,1510.26 L1922.38,1500.52 C1922.38,1495.02 1924.85,1491.5 1928.7,1491.5 C1931.84,1491.5 1933.38,1493.87 1933.38,1498.82 L1933.38,1510.42 C1933.32,1511.19 1933.27,1511.58 1932.99,1511.85 C1932.66,1512.35 1931.56,1512.57 1929.2,1512.62 L1928.98,1512.62 L1928.98,1514.6 L1942.89,1514.6 L1942.89,1512.62 L1942.67,1512.62 C1939.04,1512.51 1938.55,1512.24 1938.55,1510.2 L1938.55,1497.72 C1938.55,1494.31 1938.22,1493.15 1936.79,1491.28 C1935.19,1489.25 1932.94,1488.15 1930.3,1488.15 C1926.72,1488.15 1924.08,1489.85 1921.72,1493.65 C1920.78,1490.35 1917.81,1488.15 1914.13,1488.15 C1910.77,1488.15 1908.35,1489.74 1906.21,1493.21 L1906.21,1488.97 "/>
<path class="Harmony" d="M1947.29,1489.19 L1949.71,1489.58 L1950.7,1485.23 C1951.53,1481.6 1951.91,1481.05 1953.51,1481.05 C1953.78,1481.05 1954.22,1481.05 1954.72,1481.11 C1961.48,1481.44 1961.48,1481.44 1964.01,1481.44 C1964.73,1481.44 1965.99,1481.44 1967.53,1481.38 L1963.79,1488.92 C1959.72,1497 1959.23,1497.99 1957.85,1501.4 C1956.15,1505.53 1955.27,1508.99 1955.27,1511.3 C1955.27,1513.83 1956.59,1515.37 1958.73,1515.37 C1961.37,1515.37 1962.42,1513.61 1962.36,1508.83 C1962.09,1500.91 1963.08,1497.06 1968.96,1484.19 C1969.95,1482.04 1971,1479.84 1971.99,1477.7 L1971.99,1476.1 C1968.69,1476.38 1966.93,1476.49 1963.52,1476.49 C1958.73,1476.49 1954.94,1476.32 1949,1475.88 L1947.29,1489.19 "/>
<path class="NoteDot" transform="matrix(0.992001,0,0,0.992001,750.919,1613.8)" d="M0,0 C0,2.8 2.2,5 5,5 C7.8,5 10,2.8 10,0 C10,-2.8 7.8,-5 5,-5 C2.2,-5 0,-2.8 0,0"/>
<path class="NoteDot" transform="matrix(0.992001,0,0,0.992001,1896.14,1663.4)" d="M0,0 C0,2.8 2.2,5 5,5 C7.8,5 10,2.8 10,0 C10,-2.8 7.8,-5 5,-5 C2.2,-5 0,-2.8 0,0"/>
<path class="NoteDot" transform="matrix(0.992001,0,0,0.992001,2518.13,720.999)" d="M0,0 C0,2.8 2.2,5 5,5 C7.8,5 10,2.8 10,0 C10,-2.8 7.8,-5 5,-5 C2.2,-5 0,-2.8 0,0"/>
<path class="NoteDot" transform="matrix(0.992001,0,0,0.992001,641.6,745.799)" d="M0,0 C0,2.8 2.2,5 5,5 C7.8,5 10,2.8 10,0 C10,-2.8 7.8,-5 5,-5 C2.2,-5 0,-2.8 0,0"/>
<path class="NoteDot" transform="matrix(0.992001,0,0,0.992001,402.536,1167.4)" d="M0,0 C0,2.8 2.2,5 5,5 C7.8,5 10,2.8 10,0 C10,-2.8 7.8,-5 5,-5 C2.2,-5 0,-2.8 0,0"/>
<path class="NoteDot" transform="matrix(0.992001,0,0,0.992001,2198.14,671.399)" d="M0,0 C0,2.8 2.2,5 5,5 C7.8,5 10,2.8 10,0 C10,-2.8 7.8,-5 5,-5 C2.2,-5 0,-2.8 0,0"/>
<path class="NoteDot" transform="matrix(0.992001,0,0,0.992001,644.367,1217)" d="M0,0 C0,2.8 2.2,5 5,5 C7.8,5 10,2.8 10,0 C10,-2.8 7.8,-5 5,-5 C2.2,-5 0,-2.8 0,0"/>
<path class="NoteDot" transform="matrix(0.992001,0,0,0.992001,1997.81,671.399)" d="M0,0 C0,2.8 2.2,5 5,5 C7.8,5 10,2.8 10,0 C10,-2.8 7.8,-5 5,-5 C2.2,-5 0,-2.8 0,0"/>
<path class="NoteDot" transform="matrix(0.992001,0,0,0.992001,1591.48,1688.2)" d="M0,0 C0,2.8 2.2,5 5,5 C7.8,5 10,2.8 10,0 C10,-2.8 7.8,-5 5,-5 C2.2,-5 0,-2.8 0,0"/>
<path class="NoteDot" transform="matrix(0.992001,0,0,0.992001,2164.09,1688.2)" d="M0,0 C0,2.8 2.2,5 5,5 C7.8,5 10,2.8 10,0 C10,-2.8 7.8,-5 5,-5 C2.2,-5 0,-2.8 0,0"/>
<path class="NoteDot" transform="matrix(0.992001,0,0,0.992001,1415.88,1663.4)" d="M0,0 C0,2.8 2.2,5 5,5 C7.8,5 10,2.8 10,0 C10,-2.8 7.8,-5 5,-5 C2.2,-5 0,-2.8 0,0"/>
<path class="NoteDot" transform="matrix(0.992001,0,0,0.992001,1334.67,1192.2)" d="M0,0 C0,2.8 2.2,5 5,5 C7.8,5 10,2.8 10,0 C10,-2.8 7.8,-5 5,-5 C2.2,-5 0,-2.8 0,0"/>
<path class="NoteDot" transform="matrix(0.992001,0,0,0.992001,1576.5,1217)" d="M0,0 C0,2.8 2.2,5 5,5 C7.8,5 10,2.8 10,0 C10,-2.8 7.8,-5 5,-5 C2.2,-5 0,-2.8 0,0"/>
<path class="NoteDot" transform="matrix(0.992001,0,0,0.992001,1488.28,696.199)" d="M0,0 C0,2.8 2.2,5 5,5 C7.8,5 10,2.8 10,0 C10,-2.8 7.8,-5 5,-5 C2.2,-5 0,-2.8 0,0"/>
<path class="NoteDot" transform="matrix(0.992001,0,0,0.992001,1938.38,1167.4)" d="M0,0 C0,2.8 2.2,5 5,5 C7.8,5 10,2.8 10,0 C10,-2.8 7.8,-5 5,-5 C2.2,-5 0,-2.8 0,0"/>
<path class="NoteDot" transform="matrix(0.992001,0,0,0.992001,1286.44,696.199)" d="M0,0 C0,2.8 2.2,5 5,5 C7.8,5 10,2.8 10,0 C10,-2.8 7.8,-5 5,-5 C2.2,-5 0,-2.8 0,0"/>
<path class="NoteDot" transform="matrix(0.992001,0,0,0.992001,2321.1,1167.4)" d="M0,0 C0,2.8 2.2,5 5,5 C7.8,5 10,2.8 10,0 C10,-2.8 7.8,-5 5,-5 C2.2,-5 0,-2.8 0,0"/>
<path class="NoteDot" transform="matrix(0.992001,0,0,0.992001,963.102,696.199)" d="M0,0 C0,2.8 2.2,5 5,5 C7.8,5 10,2.8 10,0 C10,-2.8 7.8,-5 5,-5 C2.2,-5 0,-2.8 0,0"/>
<path class="NoteDot" transform="matrix(0.992001,0,0,0.992001,1018.87,1613.8)" d="M0,0 C0,2.8 2.2,5 5,5 C7.8,5 10,2.8 10,0 C10,-2.8 7.8,-5 5,-5 C2.2,-5 0,-2.8 0,0"/>
<path class="NoteDot" transform="matrix(0.992001,0,0,0.992001,2562.93,1167.4)" d="M0,0 C0,2.8 2.2,5 5,5 C7.8,5 10,2.8 10,0 C10,-2.8 7.8,-5 5,-5 C2.2,-5 0,-2.8 0,0"/>
<path class="NoteDot" transform="matrix(0.992001,0,0,0.992001,441.27,720.999)" d="M0,0 C0,2.8 2.2,5 5,5 C7.8,5 10,2.8 10,0 C10,-2.8 7.8,-5 5,-5 C2.2,-5 0,-2.8 0,0"/>
</svg>
