<?xml version="1.0" encoding="UTF-8" standalone="no"?>
<svg width="2977.2px" height="4208.4px" viewBox="0 0 2977.2 4208.4"
 xmlns="http://www.w3.org/2000/svg" xmlns:xlink="http://www.w3.org/1999/xlink" version="1.2" baseProfile="tiny">
<title>アマリリス</title>
<desc>Generated by MuseScore Studio 4.4.0</desc>
<path class="" fill="#ffffff" fill-rule="evenodd" d="M0,0 L2977.2,0 L2977.2,4208.4 L0,4208.4 L0,0 "/>
<polyline class="StaffLines" fill="none" stroke="#000000" stroke-width="2.73" stroke-linejoin="bevel" points="212.598,634.198 2764.6,634.198"/>
<polyline class="StaffLines" fill="none" stroke="#000000" stroke-width="2.73" stroke-linejoin="bevel" points="212.598,658.998 2764.6,658.998"/>
<polyline class="StaffLines" fill="none" stroke="#000000" stroke-width="2.73" stroke-linejoin="bevel" points="212.598,683.798 2764.6,683.798"/>
<polyline class="StaffLines" fill="none" stroke="#000000" stroke-width="2.73" stroke-linejoin="bevel" points="212.598,708.598 2764.6,708.598"/>
<polyline class="StaffLines" fill="none" stroke="#000000" stroke-width="2.73" stroke-linejoin="bevel" points="212.598,733.398 2764.6,733.398"/>
<polyline class="StaffLines" fill="none" stroke="#000000" stroke-width="2.73" stroke-linejoin="bevel" points="212.598,1105.4 2764.6,1105.4"/>
<polyline class="StaffLines" fill="none" stroke="#000000" stroke-width="2.73" stroke-linejoin="bevel" points="212.598,1130.2 2764.6,1130.2"/>
<polyline class="StaffLines" fill="none" stroke="#000000" stroke-width="2.73" stroke-linejoin="bevel" points="212.598,1155 2764.6,1155"/>
<polyline class="StaffLines" fill="none" stroke="#000000" stroke-width="2.73" stroke-linejoin="bevel" points="212.598,1179.8 2764.6,1179.8"/>
<polyline class="StaffLines" fill="none" stroke="#000000" stroke-width="2.73" stroke-linejoin="bevel" points="212.598,1204.6 2764.6,1204.6"/>
<path class="Text" d="M1308.82,246.1 C1306.84,246.87 1306.84,246.87 1299.47,246.87 L1240.4,246.87 C1234.13,246.87 1231.05,246.65 1227.31,246.1 L1227.31,254.57 C1231.38,254.13 1234.24,254.02 1240.29,254.02 L1302.77,254.02 C1299.58,260.29 1295.51,265.68 1290.45,270.41 C1285.28,275.25 1280.77,277.89 1273.07,280.86 C1275.93,283.39 1276.81,284.38 1278.46,287.13 C1292.76,280.53 1302.99,270.52 1310.58,255.78 C1311.9,253.14 1312.12,252.81 1313.22,251.38 L1308.82,246.1 M1260.86,265.24 C1261.19,267.33 1261.3,268.1 1261.3,271.18 C1261.3,292.63 1257.01,303.85 1245.35,313.2 C1239.63,317.93 1234.13,320.68 1225.22,323.32 C1227.86,326.07 1228.63,327.17 1230.28,330.69 C1243.59,325.63 1251.73,320.13 1258.44,311.66 C1265.92,302.2 1269,291.31 1269.33,272.94 C1269.44,267.22 1269.44,267.22 1269.77,265.24 L1260.86,265.24 M1348.42,280.97 C1364.92,294.28 1381.31,312.32 1391.32,328.27 L1398.03,322.66 C1390.66,312.87 1386.15,307.15 1381.97,302.64 C1395.83,291.42 1407.49,278.22 1418.27,261.39 C1420.58,257.87 1421.35,256.88 1422.67,255.56 L1418.05,250.06 C1416.29,250.72 1415.74,250.83 1411.89,250.83 L1347.76,250.83 C1341.38,250.83 1338.74,250.72 1334.89,250.17 L1334.89,258.86 C1338.63,258.53 1341.71,258.42 1347.65,258.42 C1408.92,258.31 1408.92,258.31 1410.46,258.2 C1410.02,258.86 1409.91,258.97 1409.58,259.52 C1404.96,267.11 1397.48,277.01 1391.43,283.39 C1387.36,287.68 1381.53,292.96 1376.8,296.92 C1366.79,286.69 1362.72,282.95 1354.47,276.13 L1348.42,280.97 M1458.75,242.36 C1459.08,245 1459.19,246.87 1459.19,251.6 L1459.19,280.97 C1459.19,285.37 1459.08,287.68 1458.75,290.21 L1467.88,290.21 C1467.55,287.57 1467.44,286.36 1467.44,281.08 L1467.44,251.49 C1467.44,246.43 1467.55,245 1467.88,242.36 L1458.75,242.36 M1507.37,242.36 C1507.7,244.78 1507.81,246.32 1507.81,252.04 L1507.81,264.47 C1507.81,281.19 1507.48,286.25 1506.27,292.52 C1504.18,302.75 1498.9,309.79 1488.67,315.73 C1482.95,319.14 1477.67,321.01 1467.77,323.21 C1470.52,326.51 1471.18,327.61 1472.39,330.8 C1481.74,328.05 1487.02,325.96 1492.41,322.88 C1503.19,316.83 1510.12,308.8 1513.31,298.46 C1515.29,292.08 1516.06,282.4 1516.06,264.91 L1516.06,251.93 C1516.06,246.65 1516.17,244.89 1516.61,242.36 L1507.37,242.36 M1568.75,242.36 C1569.08,245 1569.19,246.87 1569.19,251.6 L1569.19,280.97 C1569.19,285.37 1569.08,287.68 1568.75,290.21 L1577.88,290.21 C1577.55,287.57 1577.44,286.36 1577.44,281.08 L1577.44,251.49 C1577.44,246.43 1577.55,245 1577.88,242.36 L1568.75,242.36 M1617.37,242.36 C1617.7,244.78 1617.81,246.32 1617.81,252.04 L1617.81,264.47 C1617.81,281.19 1617.48,286.25 1616.27,292.52 C1614.18,302.75 1608.9,309.79 1598.67,315.73 C1592.95,319.14 1587.67,321.01 1577.77,323.21 C1580.52,326.51 1581.18,327.61 1582.39,330.8 C1591.74,328.05 1597.02,325.96 1602.41,322.88 C1613.19,316.83 1620.12,308.8 1623.31,298.46 C1625.29,292.08 1626.06,282.4 1626.06,264.91 L1626.06,251.93 C1626.06,246.65 1626.17,244.89 1626.61,242.36 L1617.37,242.36 M1748.69,321.34 C1736.15,308.03 1726.47,299.34 1712.06,288.34 C1718.88,279.87 1724.05,271.18 1730.21,257.54 C1731.42,254.79 1732.19,253.47 1733.29,252.15 L1728.67,247.42 C1726.8,248.08 1725.48,248.19 1721.63,248.3 L1682.36,248.74 C1680.82,248.74 1679.83,248.74 1679.5,248.74 C1675.76,248.74 1673.78,248.63 1670.81,248.19 L1671.03,257.1 C1674.22,256.55 1677.41,256.33 1682.36,256.22 L1719.1,255.67 C1720.42,255.67 1720.75,255.67 1721.74,255.56 C1721.63,255.89 1721.63,256 1721.41,256.33 C1721.19,256.88 1721.08,256.99 1720.86,257.65 C1712.83,276.9 1699.19,294.28 1681.59,307.26 C1673.12,313.53 1667.73,316.5 1659.26,319.91 C1662.01,322.66 1662.89,323.87 1664.65,327.17 C1672.79,323.1 1678.62,319.47 1686.21,313.97 C1694.13,308.14 1699.52,303.08 1707.22,294.28 C1721.3,305.17 1733.73,317.16 1742.42,328.27 L1748.69,321.34 "/>
<path class="MeasureNumber" d="M216.922,1040.48 C215.682,1041.24 215.322,1041.72 215.322,1042.52 C215.322,1043.28 215.962,1043.84 216.762,1043.84 C217.802,1043.84 218.402,1043.08 218.522,1041.6 C219.762,1040.6 221.082,1040.16 222.682,1040.16 C225.642,1040.16 227.282,1042 227.282,1045.32 C227.282,1050.52 223.922,1054.76 219.802,1054.76 C217.442,1054.76 215.522,1053.64 215.522,1052.32 C215.522,1052.08 215.562,1052 215.762,1051.88 C217.042,1051.28 218.082,1050.84 218.082,1049.16 C218.082,1047.88 217.082,1046.92 215.682,1046.92 C213.922,1046.92 212.602,1048.4 212.602,1050.32 C212.602,1053.84 215.642,1056.4 219.922,1056.4 C226.402,1056.4 231.642,1051.24 231.642,1044.84 C231.642,1040.8 228.562,1037.96 224.202,1037.96 C222.482,1037.96 221.082,1038.32 219.162,1039.28 L221.402,1031.72 C223.522,1032.16 225.202,1032.36 226.642,1032.36 C229.282,1032.36 231.642,1031.52 232.962,1030.12 C233.642,1029.32 234.042,1028.64 234.042,1028.12 C234.042,1027.88 233.922,1027.64 233.762,1027.64 C233.642,1027.64 233.562,1027.68 233.322,1027.8 C232.002,1028.44 230.322,1028.8 228.762,1028.8 C226.362,1028.8 223.522,1028.4 220.562,1027.64 L216.922,1040.48 "/>
<polyline class="BarLine" fill="none" stroke="#000000" stroke-width="4.46" stroke-linejoin="bevel" points="1167.69,632.834 1167.69,734.762"/>
<polyline class="BarLine" fill="none" stroke="#000000" stroke-width="4.46" stroke-linejoin="bevel" points="2740.42,1104.03 2740.42,1205.96"/>
<polyline class="BarLine" fill="none" stroke="#000000" stroke-width="13.64" stroke-linejoin="bevel" points="2757.78,1104.03 2757.78,1205.96"/>
<polyline class="BarLine" fill="none" stroke="#000000" stroke-width="4.46" stroke-linejoin="bevel" points="2454.55,1104.03 2454.55,1205.96"/>
<polyline class="BarLine" fill="none" stroke="#000000" stroke-width="4.46" stroke-linejoin="bevel" points="1642.67,1104.03 1642.67,1205.96"/>
<polyline class="BarLine" fill="none" stroke="#000000" stroke-width="4.46" stroke-linejoin="bevel" points="1024.58,1104.03 1024.58,1205.96"/>
<polyline class="BarLine" fill="none" stroke="#000000" stroke-width="4.46" stroke-linejoin="bevel" points="2762.37,632.834 2762.37,734.762"/>
<polyline class="BarLine" fill="none" stroke="#000000" stroke-width="4.46" stroke-linejoin="bevel" points="642.915,632.834 642.915,734.762"/>
<polyline class="BarLine" fill="none" stroke="#000000" stroke-width="4.46" stroke-linejoin="bevel" points="2237.59,632.834 2237.59,734.762"/>
<polyline class="BarLine" fill="none" stroke="#000000" stroke-width="4.46" stroke-linejoin="bevel" points="1631.46,632.834 1631.46,734.762"/>
<polyline class="LedgerLine" fill="none" stroke="#000000" stroke-width="3.97" stroke-linejoin="bevel" points="2480.34,1229.4 2529.93,1229.4"/>
<polyline class="LedgerLine" fill="none" stroke="#000000" stroke-width="3.97" stroke-linejoin="bevel" points="2385.4,758.198 2434.99,758.198"/>
<polyline class="Stem" fill="none" stroke="#000000" stroke-width="2.73" stroke-linejoin="bevel" points="2424.94,754.23 2424.94,671.398"/>
<polyline class="Stem" fill="none" stroke="#000000" stroke-width="2.73" stroke-linejoin="bevel" points="2184.87,741.83 2184.87,640.364"/>
<polyline class="Stem" fill="none" stroke="#000000" stroke-width="2.73" stroke-linejoin="bevel" points="1074.3,692.23 1074.3,615.598"/>
<polyline class="Stem" fill="none" stroke="#000000" stroke-width="2.73" stroke-linejoin="bevel" points="1089.91,1175.83 1089.91,1093"/>
<polyline class="Stem" fill="none" stroke="#000000" stroke-width="2.73" stroke-linejoin="bevel" points="1505.19,1163.43 1505.19,1086.8"/>
<polyline class="Stem" fill="none" stroke="#000000" stroke-width="2.73" stroke-linejoin="bevel" points="887.101,1163.43 887.101,1086.8"/>
<polyline class="Stem" fill="none" stroke="#000000" stroke-width="2.73" stroke-linejoin="bevel" points="952.285,704.63 952.285,621.798"/>
<polyline class="Stem" fill="none" stroke="#000000" stroke-width="2.73" stroke-linejoin="bevel" points="1233.03,704.63 1233.03,621.798"/>
<polyline class="Stem" fill="none" stroke="#000000" stroke-width="2.73" stroke-linejoin="bevel" points="720.991,1175.83 720.991,1093"/>
<polyline class="Stem" fill="none" stroke="#000000" stroke-width="2.73" stroke-linejoin="bevel" points="427.506,704.63 427.506,621.798"/>
<polyline class="Stem" fill="none" stroke="#000000" stroke-width="2.73" stroke-linejoin="bevel" points="2519.89,1225.43 2519.89,1142.6"/>
<polyline class="Stem" fill="none" stroke="#000000" stroke-width="2.73" stroke-linejoin="bevel" points="1416.06,692.23 1416.06,615.598"/>
<polyline class="Stem" fill="none" stroke="#000000" stroke-width="2.73" stroke-linejoin="bevel" points="525.385,1146.76 525.385,1223.2"/>
<polyline class="Stem" fill="none" stroke="#000000" stroke-width="2.73" stroke-linejoin="bevel" points="1708,1175.83 1708,1093"/>
<polyline class="Stem" fill="none" stroke="#000000" stroke-width="2.73" stroke-linejoin="bevel" points="1538.07,692.23 1538.07,615.598"/>
<polyline class="Stem" fill="none" stroke="#000000" stroke-width="2.73" stroke-linejoin="bevel" points="388.771,1175.83 388.771,1093"/>
<polyline class="Stem" fill="none" stroke="#000000" stroke-width="2.73" stroke-linejoin="bevel" points="549.525,692.23 549.525,615.598"/>
<polyline class="Stem" fill="none" stroke="#000000" stroke-width="2.73" stroke-linejoin="bevel" points="1874.11,1163.43 1874.11,1086.8"/>
<polyline class="Stem" fill="none" stroke="#000000" stroke-width="2.73" stroke-linejoin="bevel" points="2668.98,692.23 2668.98,615.598"/>
<polyline class="Stem" fill="none" stroke="#000000" stroke-width="2.73" stroke-linejoin="bevel" points="1696.8,704.63 1696.8,621.798"/>
<polyline class="Stem" fill="none" stroke="#000000" stroke-width="2.73" stroke-linejoin="bevel" points="2546.96,704.63 2546.96,621.798"/>
<polyline class="Stem" fill="none" stroke="#000000" stroke-width="2.73" stroke-linejoin="bevel" points="2372.44,1213.03 2372.44,1111.57"/>
<polyline class="Stem" fill="none" stroke="#000000" stroke-width="2.73" stroke-linejoin="bevel" points="1818.82,692.23 1818.82,615.598"/>
<polyline class="Stem" fill="none" stroke="#000000" stroke-width="2.73" stroke-linejoin="bevel" points="2040.22,1175.83 2040.22,1105.42"/>
<polyline class="Stem" fill="none" stroke="#000000" stroke-width="2.73" stroke-linejoin="bevel" points="708.248,704.63 708.248,621.798"/>
<polyline class="Stem" fill="none" stroke="#000000" stroke-width="2.73" stroke-linejoin="bevel" points="1940.83,704.63 1940.83,634.233"/>
<polyline class="Stem" fill="none" stroke="#000000" stroke-width="2.73" stroke-linejoin="bevel" points="2302.92,729.43 2302.92,646.598"/>
<polyline class="Stem" fill="none" stroke="#000000" stroke-width="2.73" stroke-linejoin="bevel" points="2150.96,1188.23 2150.96,1107.47"/>
<polyline class="Stem" fill="none" stroke="#000000" stroke-width="2.73" stroke-linejoin="bevel" points="2261.7,1200.63 2261.7,1109.52"/>
<polyline class="Stem" fill="none" stroke="#000000" stroke-width="2.73" stroke-linejoin="bevel" points="2022.18,717.03 2022.18,636.277"/>
<polyline class="Stem" fill="none" stroke="#000000" stroke-width="2.73" stroke-linejoin="bevel" points="800.77,675.565 800.77,751.998"/>
<polyline class="Stem" fill="none" stroke="#000000" stroke-width="2.73" stroke-linejoin="bevel" points="2103.53,729.43 2103.53,638.32"/>
<polyline class="Stem" fill="none" stroke="#000000" stroke-width="2.73" stroke-linejoin="bevel" points="1339.08,1163.43 1339.08,1086.8"/>
<path class="Note" transform="matrix(0.992,0,0,0.992,2120.1,1192.2)" d="M0,4.2 C0,8.5 3.1,13.3 11.2,13.3 C21.6,13.3 32.5,4.8 32.5,-4 C32.5,-9.9 27.5,-13.2 21.3,-13.2 C11.6,-13.2 0,-5 0,4.2"/>
<path class="Note" transform="matrix(0.992,0,0,0.992,396.645,708.598)" d="M0,4.2 C0,8.5 3.1,13.3 11.2,13.3 C21.6,13.3 32.5,4.8 32.5,-4 C32.5,-9.9 27.5,-13.2 21.3,-13.2 C11.6,-13.2 0,-5 0,4.2"/>
<path class="Note" transform="matrix(0.992,0,0,0.992,2154.01,745.798)" d="M0,4.2 C0,8.5 3.1,13.3 11.2,13.3 C21.6,13.3 32.5,4.8 32.5,-4 C32.5,-9.9 27.5,-13.2 21.3,-13.2 C11.6,-13.2 0,-5 0,4.2"/>
<path class="Note" transform="matrix(0.992,0,0,0.992,1991.32,720.998)" d="M0,4.2 C0,8.5 3.1,13.3 11.2,13.3 C21.6,13.3 32.5,4.8 32.5,-4 C32.5,-9.9 27.5,-13.2 21.3,-13.2 C11.6,-13.2 0,-5 0,4.2"/>
<path class="Note" transform="matrix(0.992,0,0,0.992,1909.97,708.598)" d="M0,4.2 C0,8.5 3.1,13.3 11.2,13.3 C21.6,13.3 32.5,4.8 32.5,-4 C32.5,-9.9 27.5,-13.2 21.3,-13.2 C11.6,-13.2 0,-5 0,4.2"/>
<path class="Note" transform="matrix(0.992,0,0,0.992,2272.06,733.398)" d="M0,4.2 C0,8.5 3.1,13.3 11.2,13.3 C21.6,13.3 32.5,4.8 32.5,-4 C32.5,-9.9 27.5,-13.2 21.3,-13.2 C11.6,-13.2 0,-5 0,4.2"/>
<path class="Note" transform="matrix(0.992,0,0,0.992,2009.36,1179.8)" d="M0,4.2 C0,8.5 3.1,13.3 11.2,13.3 C21.6,13.3 32.5,4.8 32.5,-4 C32.5,-9.9 27.5,-13.2 21.3,-13.2 C11.6,-13.2 0,-5 0,4.2"/>
<path class="Note" transform="matrix(0.992,0,0,0.992,677.387,708.598)" d="M0,4.2 C0,8.5 3.1,13.3 11.2,13.3 C21.6,13.3 32.5,4.8 32.5,-4 C32.5,-9.9 27.5,-13.2 21.3,-13.2 C11.6,-13.2 0,-5 0,4.2"/>
<path class="Note" transform="matrix(0.992,0,0,0.992,2230.84,1204.6)" d="M0,4.2 C0,8.5 3.1,13.3 11.2,13.3 C21.6,13.3 32.5,4.8 32.5,-4 C32.5,-9.9 27.5,-13.2 21.3,-13.2 C11.6,-13.2 0,-5 0,4.2"/>
<path class="Note" transform="matrix(0.992,0,0,0.992,2394.08,758.198)" d="M0,4.2 C0,8.5 3.1,13.3 11.2,13.3 C21.6,13.3 32.5,4.8 32.5,-4 C32.5,-9.9 27.5,-13.2 21.3,-13.2 C11.6,-13.2 0,-5 0,4.2"/>
<path class="Note" transform="matrix(0.992,0,0,0.992,1787.96,696.198)" d="M0,4.2 C0,8.5 3.1,13.3 11.2,13.3 C21.6,13.3 32.5,4.8 32.5,-4 C32.5,-9.9 27.5,-13.2 21.3,-13.2 C11.6,-13.2 0,-5 0,4.2"/>
<path class="Note" transform="matrix(0.992,0,0,0.992,1665.94,708.598)" d="M0,4.2 C0,8.5 3.1,13.3 11.2,13.3 C21.6,13.3 32.5,4.8 32.5,-4 C32.5,-9.9 27.5,-13.2 21.3,-13.2 C11.6,-13.2 0,-5 0,4.2"/>
<path class="Note" transform="matrix(0.992,0,0,0.992,1059.05,1179.8)" d="M21.3,-13.2 C11.6,-13.2 0,-5.1 0,4.2 C0,8.5 3.1,13.3 11.2,13.3 C21.6,13.3 32.5,4.8 32.5,-4 C32.5,-9.9 27.5,-13.2 21.3,-13.2 M7.5,8.6 C4.2,8.6 3.5,5.9 3.5,5 C3.5,0.1 20.3,-8.5 25,-8.5 C27.4,-8.5 29,-7.1 29,-4.9 C29,0.1 12.1,8.6 7.5,8.6"/>
<path class="Note" transform="matrix(0.992,0,0,0.992,1043.44,696.198)" d="M0,4.2 C0,8.5 3.1,13.3 11.2,13.3 C21.6,13.3 32.5,4.8 32.5,-4 C32.5,-9.9 27.5,-13.2 21.3,-13.2 C11.6,-13.2 0,-5 0,4.2"/>
<path class="Note" transform="matrix(0.992,0,0,0.992,2516.1,708.598)" d="M0,4.2 C0,8.5 3.1,13.3 11.2,13.3 C21.6,13.3 32.5,4.8 32.5,-4 C32.5,-9.9 27.5,-13.2 21.3,-13.2 C11.6,-13.2 0,-5 0,4.2"/>
<path class="Note" transform="matrix(0.992,0,0,0.992,1843.25,1167.4)" d="M0,4.2 C0,8.5 3.1,13.3 11.2,13.3 C21.6,13.3 32.5,4.8 32.5,-4 C32.5,-9.9 27.5,-13.2 21.3,-13.2 C11.6,-13.2 0,-5 0,4.2"/>
<path class="Note" transform="matrix(0.992,0,0,0.992,799.406,671.398)" d="M0,4.2 C0,8.5 3.1,13.3 11.2,13.3 C21.6,13.3 32.5,4.8 32.5,-4 C32.5,-9.9 27.5,-13.2 21.3,-13.2 C11.6,-13.2 0,-5 0,4.2"/>
<path class="Note" transform="matrix(0.992,0,0,0.992,2638.12,696.198)" d="M0,4.2 C0,8.5 3.1,13.3 11.2,13.3 C21.6,13.3 32.5,4.8 32.5,-4 C32.5,-9.9 27.5,-13.2 21.3,-13.2 C11.6,-13.2 0,-5 0,4.2"/>
<path class="Note" transform="matrix(0.992,0,0,0.992,2341.58,1217)" d="M0,4.2 C0,8.5 3.1,13.3 11.2,13.3 C21.6,13.3 32.5,4.8 32.5,-4 C32.5,-9.9 27.5,-13.2 21.3,-13.2 C11.6,-13.2 0,-5 0,4.2"/>
<path class="Note" transform="matrix(0.992,0,0,0.992,1677.14,1179.8)" d="M0,4.2 C0,8.5 3.1,13.3 11.2,13.3 C21.6,13.3 32.5,4.8 32.5,-4 C32.5,-9.9 27.5,-13.2 21.3,-13.2 C11.6,-13.2 0,-5 0,4.2"/>
<path class="Note" transform="matrix(0.992,0,0,0.992,518.664,696.198)" d="M0,4.2 C0,8.5 3.1,13.3 11.2,13.3 C21.6,13.3 32.5,4.8 32.5,-4 C32.5,-9.9 27.5,-13.2 21.3,-13.2 C11.6,-13.2 0,-5 0,4.2"/>
<path class="Note" transform="matrix(0.992,0,0,0.992,2072.67,733.398)" d="M0,4.2 C0,8.5 3.1,13.3 11.2,13.3 C21.6,13.3 32.5,4.8 32.5,-4 C32.5,-9.9 27.5,-13.2 21.3,-13.2 C11.6,-13.2 0,-5 0,4.2"/>
<path class="Note" transform="matrix(0.992,0,0,0.992,2489.02,1229.4)" d="M21.3,-13.2 C11.6,-13.2 0,-5.1 0,4.2 C0,8.5 3.1,13.3 11.2,13.3 C21.6,13.3 32.5,4.8 32.5,-4 C32.5,-9.9 27.5,-13.2 21.3,-13.2 M7.5,8.6 C4.2,8.6 3.5,5.9 3.5,5 C3.5,0.1 20.3,-8.5 25,-8.5 C27.4,-8.5 29,-7.1 29,-4.9 C29,0.1 12.1,8.6 7.5,8.6"/>
<path class="Note" transform="matrix(0.992,0,0,0.992,1474.33,1167.4)" d="M0,4.2 C0,8.5 3.1,13.3 11.2,13.3 C21.6,13.3 32.5,4.8 32.5,-4 C32.5,-9.9 27.5,-13.2 21.3,-13.2 C11.6,-13.2 0,-5 0,4.2"/>
<path class="Note" transform="matrix(0.992,0,0,0.992,1507.21,696.198)" d="M0,4.2 C0,8.5 3.1,13.3 11.2,13.3 C21.6,13.3 32.5,4.8 32.5,-4 C32.5,-9.9 27.5,-13.2 21.3,-13.2 C11.6,-13.2 0,-5 0,4.2"/>
<path class="Note" transform="matrix(0.992,0,0,0.992,357.911,1179.8)" d="M0,4.2 C0,8.5 3.1,13.3 11.2,13.3 C21.6,13.3 32.5,4.8 32.5,-4 C32.5,-9.9 27.5,-13.2 21.3,-13.2 C11.6,-13.2 0,-5 0,4.2"/>
<path class="Note" transform="matrix(0.992,0,0,0.992,856.24,1167.4)" d="M0,4.2 C0,8.5 3.1,13.3 11.2,13.3 C21.6,13.3 32.5,4.8 32.5,-4 C32.5,-9.9 27.5,-13.2 21.3,-13.2 C11.6,-13.2 0,-5 0,4.2"/>
<path class="Note" transform="matrix(0.992,0,0,0.992,1385.19,696.198)" d="M0,4.2 C0,8.5 3.1,13.3 11.2,13.3 C21.6,13.3 32.5,4.8 32.5,-4 C32.5,-9.9 27.5,-13.2 21.3,-13.2 C11.6,-13.2 0,-5 0,4.2"/>
<path class="Note" transform="matrix(0.992,0,0,0.992,524.021,1142.6)" d="M0,4.2 C0,8.5 3.1,13.3 11.2,13.3 C21.6,13.3 32.5,4.8 32.5,-4 C32.5,-9.9 27.5,-13.2 21.3,-13.2 C11.6,-13.2 0,-5 0,4.2"/>
<path class="Note" transform="matrix(0.992,0,0,0.992,921.425,708.598)" d="M0,4.2 C0,8.5 3.1,13.3 11.2,13.3 C21.6,13.3 32.5,4.8 32.5,-4 C32.5,-9.9 27.5,-13.2 21.3,-13.2 C11.6,-13.2 0,-5 0,4.2"/>
<path class="Note" transform="matrix(0.992,0,0,0.992,1202.17,708.598)" d="M21.3,-13.2 C11.6,-13.2 0,-5.1 0,4.2 C0,8.5 3.1,13.3 11.2,13.3 C21.6,13.3 32.5,4.8 32.5,-4 C32.5,-9.9 27.5,-13.2 21.3,-13.2 M7.5,8.6 C4.2,8.6 3.5,5.9 3.5,5 C3.5,0.1 20.3,-8.5 25,-8.5 C27.4,-8.5 29,-7.1 29,-4.9 C29,0.1 12.1,8.6 7.5,8.6"/>
<path class="Note" transform="matrix(0.992,0,0,0.992,1308.22,1167.4)" d="M0,4.2 C0,8.5 3.1,13.3 11.2,13.3 C21.6,13.3 32.5,4.8 32.5,-4 C32.5,-9.9 27.5,-13.2 21.3,-13.2 C11.6,-13.2 0,-5 0,4.2"/>
<path class="Note" transform="matrix(0.992,0,0,0.992,690.13,1179.8)" d="M0,4.2 C0,8.5 3.1,13.3 11.2,13.3 C21.6,13.3 32.5,4.8 32.5,-4 C32.5,-9.9 27.5,-13.2 21.3,-13.2 C11.6,-13.2 0,-5 0,4.2"/>
<path class="Clef" transform="matrix(0.992,0,0,0.992,232.438,708.598)" d="M12.3,51.3 C12.3,57.9 17.3,66.6 30.8,66.6 C35.5,66.6 39.6,65.4 43.2,63.2 C48.6,59.4 50,52.8 50,46.5 C50,42.6 49.4,38.1 48.4,32.4 C48.1,30.4 47.5,27.4 46.9,23.5 C56.7,20.3 64,10.1 64,-0.2 C64,-15.3 53.3,-25.5 38.7,-25.5 C37.7,-31.5 36.7,-37.4 35.9,-43 C46.4,-54.1 53.7,-66.6 53.7,-82.5 C53.7,-91.6 50.9,-99 49.3,-102.6 C46.9,-107.7 44,-111.2 42.2,-111.2 C41.5,-111.2 38.4,-110 35.1,-106.1 C28.7,-98.5 26.9,-85.7 26.9,-77.3 C26.9,-71.9 27.4,-67 29.1,-55.8 C29,-55.7 23.8,-50.4 21.7,-48.7 C12.6,-40.3 0,-28.1 0,-8.1 C0,10.6 16.3,25.3 34.9,25.3 C37.8,25.3 40.5,25 42.8,24.6 C44.7,34.2 45.9,41.2 45.9,46.5 C45.9,56.9 40.5,62.4 30.4,62.4 C28,62.4 25.9,61.9 25.7,61.9 C25.6,61.8 25.4,61.7 25.4,61.6 C25.4,61.4 25.6,61.3 25.9,61.3 C30.6,60.5 35.3,56.5 35.3,50.1 C35.3,44.7 31.2,39 23.7,39 C16.7,39 12.3,44.7 12.3,51.3 M33.2,-82.2 C34.1,-86.2 38.7,-96.7 43.9,-96.7 C45.4,-96.7 47.8,-91.9 47.8,-84.9 C47.8,-74.5 40.1,-66.7 33.2,-59.9 C32.6,-63.9 32.1,-67.8 32.1,-72 C32.1,-75.7 32.4,-79.1 33.2,-82.2 M42,20.6 C40,21 38.1,21.2 36.2,21.2 C21.9,21.2 9.7,11.2 9.7,-3.9 C9.7,-16.1 18.3,-27 27.1,-34.6 C28.8,-36.1 30.4,-37.5 31.9,-39 C32.8,-33.6 33.5,-28.9 34.2,-24.8 C25.1,-22.1 18.9,-12.5 18.9,-3.1 C18.9,3.9 24.4,13.5 32.4,13.5 C33.2,13.5 34.1,13.1 34.1,12.2 C34.1,11.3 33.1,10.8 31.9,10 C28,7.6 25.8,5 25.8,0.1 C25.8,-6 30.4,-10.9 36.2,-12.3 L42,20.6 M56.2,2.1 C56.2,9.2 53.3,16.5 46.2,19.4 C44.1,7.4 41.4,-8.5 40.7,-12.9 C49.7,-12.9 56.2,-6.8 56.2,2.1"/>
<path class="Clef" transform="matrix(0.992,0,0,0.992,232.438,1179.8)" d="M12.3,51.3 C12.3,57.9 17.3,66.6 30.8,66.6 C35.5,66.6 39.6,65.4 43.2,63.2 C48.6,59.4 50,52.8 50,46.5 C50,42.6 49.4,38.1 48.4,32.4 C48.1,30.4 47.5,27.4 46.9,23.5 C56.7,20.3 64,10.1 64,-0.2 C64,-15.3 53.3,-25.5 38.7,-25.5 C37.7,-31.5 36.7,-37.4 35.9,-43 C46.4,-54.1 53.7,-66.6 53.7,-82.5 C53.7,-91.6 50.9,-99 49.3,-102.6 C46.9,-107.7 44,-111.2 42.2,-111.2 C41.5,-111.2 38.4,-110 35.1,-106.1 C28.7,-98.5 26.9,-85.7 26.9,-77.3 C26.9,-71.9 27.4,-67 29.1,-55.8 C29,-55.7 23.8,-50.4 21.7,-48.7 C12.6,-40.3 0,-28.1 0,-8.1 C0,10.6 16.3,25.3 34.9,25.3 C37.8,25.3 40.5,25 42.8,24.6 C44.7,34.2 45.9,41.2 45.9,46.5 C45.9,56.9 40.5,62.4 30.4,62.4 C28,62.4 25.9,61.9 25.7,61.9 C25.6,61.8 25.4,61.7 25.4,61.6 C25.4,61.4 25.6,61.3 25.9,61.3 C30.6,60.5 35.3,56.5 35.3,50.1 C35.3,44.7 31.2,39 23.7,39 C16.7,39 12.3,44.7 12.3,51.3 M33.2,-82.2 C34.1,-86.2 38.7,-96.7 43.9,-96.7 C45.4,-96.7 47.8,-91.9 47.8,-84.9 C47.8,-74.5 40.1,-66.7 33.2,-59.9 C32.6,-63.9 32.1,-67.8 32.1,-72 C32.1,-75.7 32.4,-79.1 33.2,-82.2 M42,20.6 C40,21 38.1,21.2 36.2,21.2 C21.9,21.2 9.7,11.2 9.7,-3.9 C9.7,-16.1 18.3,-27 27.1,-34.6 C28.8,-36.1 30.4,-37.5 31.9,-39 C32.8,-33.6 33.5,-28.9 34.2,-24.8 C25.1,-22.1 18.9,-12.5 18.9,-3.1 C18.9,3.9 24.4,13.5 32.4,13.5 C33.2,13.5 34.1,13.1 34.1,12.2 C34.1,11.3 33.1,10.8 31.9,10 C28,7.6 25.8,5 25.8,0.1 C25.8,-6 30.4,-10.9 36.2,-12.3 L42,20.6 M56.2,2.1 C56.2,9.2 53.3,16.5 46.2,19.4 C44.1,7.4 41.4,-8.5 40.7,-12.9 C49.7,-12.9 56.2,-6.8 56.2,2.1"/>
<path class="TimeSig" transform="matrix(0.992,0,0,0.992,319.331,658.998)" d="M20.8,12.7 L20.8,20.1 L12.5,20.1 C11.8,20.1 11.1,20.7 11.1,21.5 L11.1,23.4 C11.1,24.2 11.8,24.8 12.5,24.8 L42.8,24.8 C43.6,24.8 44.2,24.2 44.2,23.4 L44.2,21.5 C44.2,20.7 43.6,20.1 42.8,20.1 L33.9,20.1 L33.9,12.7 L42.8,12.7 C43.6,12.7 44.2,12 44.2,11.2 L44.2,9.3 C44.2,8.6 43.6,7.9 42.8,7.9 L33.9,7.9 L33.9,-8 C33.9,-8.6 33.6,-9.1 33.1,-9.3 L31.9,-9.9 C31.7,-10 31.4,-10.1 31.2,-10.1 C30.9,-10 30.5,-9.9 30.3,-9.7 L21.2,-1.4 C20.9,-1.1 20.8,-0.7 20.8,-0.3 L20.8,7.9 L9.3,7.9 C9.3,7.9 20.4,-4.1 32.2,-19.9 C32.6,-20.4 32.7,-20.9 32.7,-21.3 C32.7,-21.8 32.5,-22.2 32.4,-22.3 L30.2,-24.5 C30,-24.7 29.6,-24.9 29.2,-24.9 C28.6,-24.9 15.1,-24.9 14.4,-24.9 C13.6,-24.9 13.1,-24.3 13,-23.7 C13,-23.7 12.5,-16.3 9.9,-8.2 C7.3,-0.1 4.3,4.9 1.7,8.6 C1.7,8.6 1.4,9.1 1.4,9.7 C1.4,9.9 1.4,10.1 1.5,10.3 C1.9,11 2.5,12.1 2.5,12.1 C2.5,12.1 2.7,12.7 3.6,12.7 L20.8,12.7 "/>
<path class="TimeSig" transform="matrix(0.992,0,0,0.992,319.331,708.598)" d="M20.8,12.7 L20.8,20.1 L12.5,20.1 C11.8,20.1 11.1,20.7 11.1,21.5 L11.1,23.4 C11.1,24.2 11.8,24.8 12.5,24.8 L42.8,24.8 C43.6,24.8 44.2,24.2 44.2,23.4 L44.2,21.5 C44.2,20.7 43.6,20.1 42.8,20.1 L33.9,20.1 L33.9,12.7 L42.8,12.7 C43.6,12.7 44.2,12 44.2,11.2 L44.2,9.3 C44.2,8.6 43.6,7.9 42.8,7.9 L33.9,7.9 L33.9,-8 C33.9,-8.6 33.6,-9.1 33.1,-9.3 L31.9,-9.9 C31.7,-10 31.4,-10.1 31.2,-10.1 C30.9,-10 30.5,-9.9 30.3,-9.7 L21.2,-1.4 C20.9,-1.1 20.8,-0.7 20.8,-0.3 L20.8,7.9 L9.3,7.9 C9.3,7.9 20.4,-4.1 32.2,-19.9 C32.6,-20.4 32.7,-20.9 32.7,-21.3 C32.7,-21.8 32.5,-22.2 32.4,-22.3 L30.2,-24.5 C30,-24.7 29.6,-24.9 29.2,-24.9 C28.6,-24.9 15.1,-24.9 14.4,-24.9 C13.6,-24.9 13.1,-24.3 13,-23.7 C13,-23.7 12.5,-16.3 9.9,-8.2 C7.3,-0.1 4.3,4.9 1.7,8.6 C1.7,8.6 1.4,9.1 1.4,9.7 C1.4,9.9 1.4,10.1 1.5,10.3 C1.9,11 2.5,12.1 2.5,12.1 C2.5,12.1 2.7,12.7 3.6,12.7 L20.8,12.7 "/>
<path class="Beam" fill-rule="evenodd" d="M2038.86,1099.2 L2373.81,1105.4 L2373.81,1117.8 L2038.86,1111.6 L2038.86,1099.2 "/>
<path class="Beam" fill-rule="evenodd" d="M1939.47,627.996 L2186.24,634.196 L2186.24,646.6 L1939.47,640.4 L1939.47,627.996 "/>
<path class="Harmony" d="M954.101,532.103 L952.011,532.103 L949.811,535.348 C945.796,532.433 943.761,531.663 939.966,531.663 C934.741,531.663 930.286,533.863 926.601,538.263 C923.081,542.443 921.431,547.063 921.431,552.728 C921.431,564.608 929.186,573.023 940.021,573.023 C948.821,573.023 954.431,567.853 955.696,558.613 L953.111,558.173 C951.626,566.368 947.446,570.438 940.681,570.438 C932.541,570.438 928.691,564.828 928.691,552.948 C928.691,546.678 929.516,542.553 931.386,539.253 C933.091,536.173 936.446,534.248 940.021,534.248 C943.871,534.248 947.281,536.283 949.371,539.803 C950.416,541.618 951.186,543.653 952.506,547.998 L954.926,547.998 L954.101,532.103 "/>
<path class="Harmony" d="M2521.7,1003.3 L2519.61,1003.3 L2517.41,1006.55 C2513.4,1003.63 2511.36,1002.86 2507.57,1002.86 C2502.34,1002.86 2497.89,1005.06 2494.2,1009.46 C2490.68,1013.64 2489.03,1018.26 2489.03,1023.93 C2489.03,1035.81 2496.79,1044.22 2507.62,1044.22 C2516.42,1044.22 2522.03,1039.05 2523.3,1029.81 L2520.71,1029.37 C2519.23,1037.57 2515.05,1041.64 2508.28,1041.64 C2500.14,1041.64 2496.29,1036.03 2496.29,1024.15 C2496.29,1017.88 2497.12,1013.75 2498.99,1010.45 C2500.69,1007.37 2504.05,1005.45 2507.62,1005.45 C2511.47,1005.45 2514.88,1007.48 2516.97,1011 C2518.02,1012.82 2518.79,1014.85 2520.11,1019.2 L2522.53,1019.2 L2521.7,1003.3 "/>
<path class="Harmony" d="M1091.73,1003.3 L1089.64,1003.3 L1087.44,1006.55 C1083.43,1003.63 1081.39,1002.86 1077.6,1002.86 C1072.37,1002.86 1067.92,1005.06 1064.23,1009.46 C1060.71,1013.64 1059.06,1018.26 1059.06,1023.93 C1059.06,1035.81 1066.82,1044.22 1077.65,1044.22 C1086.45,1044.22 1092.06,1039.05 1093.33,1029.81 L1090.74,1029.37 C1089.26,1037.57 1085.08,1041.64 1078.31,1041.64 C1070.17,1041.64 1066.32,1036.03 1066.32,1024.15 C1066.32,1017.88 1067.15,1013.75 1069.02,1010.45 C1070.72,1007.37 1074.08,1005.45 1077.65,1005.45 C1081.5,1005.45 1084.91,1007.48 1087,1011 C1088.05,1012.82 1088.82,1014.85 1090.14,1019.2 L1092.56,1019.2 L1091.73,1003.3 "/>
<path class="Harmony" d="M1340.94,1003.69 L1308.22,1003.69 L1308.22,1006.27 L1309.21,1006.27 C1312.34,1006.33 1313.39,1006.49 1313.83,1007.04 C1314.16,1007.54 1314.16,1007.65 1314.16,1010.45 L1314.16,1036.63 C1314.16,1039.44 1314.16,1039.55 1313.83,1040.04 C1313.39,1040.59 1312.34,1040.81 1309.21,1040.81 L1308.22,1040.81 L1308.22,1043.4 L1327.08,1043.4 L1327.08,1040.81 L1325.27,1040.81 C1322.13,1040.81 1321.09,1040.59 1320.65,1040.04 C1320.32,1039.55 1320.32,1039.38 1320.32,1036.63 L1320.32,1024.15 L1321.42,1024.15 C1327.08,1023.93 1329.12,1025.96 1329.34,1032.07 L1331.92,1032.07 L1331.92,1014.03 L1329.34,1014.03 C1329.01,1019.42 1326.86,1021.51 1321.64,1021.56 L1320.32,1021.56 L1320.32,1009.02 C1320.26,1006.71 1320.81,1006.33 1323.78,1006.27 L1326.31,1006.27 C1335.33,1006.22 1337.59,1008.25 1339.29,1017.71 L1341.71,1017.71 L1340.94,1003.69 "/>
<path class="Harmony" d="M429.322,532.103 L427.232,532.103 L425.032,535.348 C421.017,532.433 418.982,531.663 415.187,531.663 C409.962,531.663 405.507,533.863 401.822,538.263 C398.302,542.443 396.652,547.063 396.652,552.728 C396.652,564.608 404.407,573.023 415.242,573.023 C424.042,573.023 429.652,567.853 430.917,558.613 L428.332,558.173 C426.847,566.368 422.667,570.438 415.902,570.438 C407.762,570.438 403.912,564.828 403.912,552.948 C403.912,546.678 404.737,542.553 406.607,539.253 C408.312,536.173 411.667,534.248 415.242,534.248 C419.092,534.248 422.502,536.283 424.592,539.803 C425.637,541.618 426.407,543.653 427.727,547.998 L430.147,547.998 L429.322,532.103 "/>
<path class="Harmony" d="M888.916,1003.3 L886.826,1003.3 L884.626,1006.55 C880.611,1003.63 878.576,1002.86 874.781,1002.86 C869.556,1002.86 865.101,1005.06 861.416,1009.46 C857.896,1013.64 856.246,1018.26 856.246,1023.93 C856.246,1035.81 864.001,1044.22 874.836,1044.22 C883.636,1044.22 889.246,1039.05 890.511,1029.81 L887.926,1029.37 C886.441,1037.57 882.261,1041.64 875.496,1041.64 C867.356,1041.64 863.506,1036.03 863.506,1024.15 C863.506,1017.88 864.331,1013.75 866.201,1010.45 C867.906,1007.37 871.261,1005.45 874.836,1005.45 C878.686,1005.45 882.096,1007.48 884.186,1011 C885.231,1012.82 886.001,1014.85 887.321,1019.2 L889.741,1019.2 L888.916,1003.3 "/>
<path class="Harmony" d="M1507.05,1003.69 L1474.33,1003.69 L1474.33,1006.27 L1475.32,1006.27 C1478.45,1006.33 1479.5,1006.49 1479.94,1007.04 C1480.27,1007.54 1480.27,1007.65 1480.27,1010.45 L1480.27,1036.63 C1480.27,1039.44 1480.27,1039.55 1479.94,1040.04 C1479.5,1040.59 1478.45,1040.81 1475.32,1040.81 L1474.33,1040.81 L1474.33,1043.4 L1493.19,1043.4 L1493.19,1040.81 L1491.38,1040.81 C1488.24,1040.81 1487.2,1040.59 1486.76,1040.04 C1486.43,1039.55 1486.43,1039.38 1486.43,1036.63 L1486.43,1024.15 L1487.53,1024.15 C1493.19,1023.93 1495.23,1025.96 1495.45,1032.07 L1498.03,1032.07 L1498.03,1014.03 L1495.45,1014.03 C1495.12,1019.42 1492.97,1021.51 1487.75,1021.56 L1486.43,1021.56 L1486.43,1009.02 C1486.37,1006.71 1486.92,1006.33 1489.89,1006.27 L1492.42,1006.27 C1501.44,1006.22 1503.7,1008.25 1505.4,1017.71 L1507.82,1017.71 L1507.05,1003.69 "/>
<path class="Harmony" d="M722.807,1003.3 L720.717,1003.3 L718.517,1006.55 C714.502,1003.63 712.467,1002.86 708.672,1002.86 C703.447,1002.86 698.992,1005.06 695.307,1009.46 C691.787,1013.64 690.137,1018.26 690.137,1023.93 C690.137,1035.81 697.892,1044.22 708.727,1044.22 C717.527,1044.22 723.137,1039.05 724.402,1029.81 L721.817,1029.37 C720.332,1037.57 716.152,1041.64 709.387,1041.64 C701.247,1041.64 697.397,1036.03 697.397,1024.15 C697.397,1017.88 698.222,1013.75 700.092,1010.45 C701.797,1007.37 705.152,1005.45 708.727,1005.45 C712.577,1005.45 715.987,1007.48 718.077,1011 C719.122,1012.82 719.892,1014.85 721.212,1019.2 L723.632,1019.2 L722.807,1003.3 "/>
<path class="Harmony" d="M556.697,1003.3 L554.607,1003.3 L552.407,1006.55 C548.392,1003.63 546.357,1002.86 542.562,1002.86 C537.337,1002.86 532.882,1005.06 529.197,1009.46 C525.677,1013.64 524.027,1018.26 524.027,1023.93 C524.027,1035.81 531.782,1044.22 542.617,1044.22 C551.417,1044.22 557.027,1039.05 558.292,1029.81 L555.707,1029.37 C554.222,1037.57 550.042,1041.64 543.277,1041.64 C535.137,1041.64 531.287,1036.03 531.287,1024.15 C531.287,1017.88 532.112,1013.75 533.982,1010.45 C535.687,1007.37 539.042,1005.45 542.617,1005.45 C546.467,1005.45 549.877,1007.48 551.967,1011 C553.012,1012.82 553.782,1014.85 555.102,1019.2 L557.522,1019.2 L556.697,1003.3 "/>
<path class="Harmony" d="M390.587,1003.3 L388.497,1003.3 L386.297,1006.55 C382.282,1003.63 380.247,1002.86 376.452,1002.86 C371.227,1002.86 366.772,1005.06 363.087,1009.46 C359.567,1013.64 357.917,1018.26 357.917,1023.93 C357.917,1035.81 365.672,1044.22 376.507,1044.22 C385.307,1044.22 390.917,1039.05 392.182,1029.81 L389.597,1029.37 C388.112,1037.57 383.932,1041.64 377.167,1041.64 C369.027,1041.64 365.177,1036.03 365.177,1024.15 C365.177,1017.88 366.002,1013.75 367.872,1010.45 C369.577,1007.37 372.932,1005.45 376.507,1005.45 C380.357,1005.45 383.767,1007.48 385.857,1011 C386.902,1012.82 387.672,1014.85 388.992,1019.2 L391.412,1019.2 L390.587,1003.3 "/>
<path class="Harmony" d="M551.341,532.103 L549.251,532.103 L547.051,535.348 C543.036,532.433 541.001,531.663 537.206,531.663 C531.981,531.663 527.526,533.863 523.841,538.263 C520.321,542.443 518.671,547.063 518.671,552.728 C518.671,564.608 526.426,573.023 537.261,573.023 C546.061,573.023 551.671,567.853 552.936,558.613 L550.351,558.173 C548.866,566.368 544.686,570.438 537.921,570.438 C529.781,570.438 525.931,564.828 525.931,552.948 C525.931,546.678 526.756,542.553 528.626,539.253 C530.331,536.173 533.686,534.248 537.261,534.248 C541.111,534.248 544.521,536.283 546.611,539.803 C547.656,541.618 548.426,543.653 549.746,547.998 L552.166,547.998 L551.341,532.103 "/>
<path class="Harmony" d="M1709.87,1003.69 L1677.14,1003.69 L1677.14,1006.27 L1678.13,1006.27 C1681.27,1006.33 1682.31,1006.49 1682.75,1007.04 C1683.08,1007.54 1683.08,1007.65 1683.08,1010.45 L1683.08,1036.63 C1683.08,1039.44 1683.08,1039.55 1682.75,1040.04 C1682.31,1040.59 1681.27,1040.81 1678.13,1040.81 L1677.14,1040.81 L1677.14,1043.4 L1696.01,1043.4 L1696.01,1040.81 L1694.19,1040.81 C1691.06,1040.81 1690.01,1040.59 1689.57,1040.04 C1689.24,1039.55 1689.24,1039.38 1689.24,1036.63 L1689.24,1024.15 L1690.34,1024.15 C1696.01,1023.93 1698.04,1025.96 1698.26,1032.07 L1700.85,1032.07 L1700.85,1014.03 L1698.26,1014.03 C1697.93,1019.42 1695.79,1021.51 1690.56,1021.56 L1689.24,1021.56 L1689.24,1009.02 C1689.19,1006.71 1689.74,1006.33 1692.71,1006.27 L1695.24,1006.27 C1704.26,1006.22 1706.51,1008.25 1708.22,1017.71 L1710.64,1017.71 L1709.87,1003.69 "/>
<path class="Harmony" d="M2670.79,532.103 L2668.7,532.103 L2666.5,535.348 C2662.49,532.433 2660.45,531.663 2656.66,531.663 C2651.43,531.663 2646.98,533.863 2643.29,538.263 C2639.77,542.443 2638.12,547.063 2638.12,552.728 C2638.12,564.608 2645.88,573.023 2656.71,573.023 C2665.51,573.023 2671.12,567.853 2672.39,558.613 L2669.8,558.173 C2668.32,566.368 2664.14,570.438 2657.37,570.438 C2649.23,570.438 2645.38,564.828 2645.38,552.948 C2645.38,546.678 2646.21,542.553 2648.08,539.253 C2649.78,536.173 2653.14,534.248 2656.71,534.248 C2660.56,534.248 2663.97,536.283 2666.06,539.803 C2667.11,541.618 2667.88,543.653 2669.2,547.998 L2671.62,547.998 L2670.79,532.103 "/>
<path class="Harmony" d="M2548.78,532.103 L2546.69,532.103 L2544.49,535.348 C2540.47,532.433 2538.44,531.663 2534.64,531.663 C2529.42,531.663 2524.96,533.863 2521.28,538.263 C2517.76,542.443 2516.11,547.063 2516.11,552.728 C2516.11,564.608 2523.86,573.023 2534.7,573.023 C2543.5,573.023 2549.11,567.853 2550.37,558.613 L2547.79,558.173 C2546.3,566.368 2542.12,570.438 2535.36,570.438 C2527.22,570.438 2523.37,564.828 2523.37,552.948 C2523.37,546.678 2524.19,542.553 2526.06,539.253 C2527.77,536.173 2531.12,534.248 2534.7,534.248 C2538.55,534.248 2541.96,536.283 2544.05,539.803 C2545.09,541.618 2545.86,543.653 2547.18,547.998 L2549.6,547.998 L2548.78,532.103 "/>
<path class="Harmony" d="M1875.98,1003.69 L1843.25,1003.69 L1843.25,1006.27 L1844.24,1006.27 C1847.38,1006.33 1848.42,1006.49 1848.86,1007.04 C1849.19,1007.54 1849.19,1007.65 1849.19,1010.45 L1849.19,1036.63 C1849.19,1039.44 1849.19,1039.55 1848.86,1040.04 C1848.42,1040.59 1847.38,1040.81 1844.24,1040.81 L1843.25,1040.81 L1843.25,1043.4 L1862.12,1043.4 L1862.12,1040.81 L1860.3,1040.81 C1857.17,1040.81 1856.12,1040.59 1855.68,1040.04 C1855.35,1039.55 1855.35,1039.38 1855.35,1036.63 L1855.35,1024.15 L1856.45,1024.15 C1862.12,1023.93 1864.15,1025.96 1864.37,1032.07 L1866.96,1032.07 L1866.96,1014.03 L1864.37,1014.03 C1864.04,1019.42 1861.9,1021.51 1856.67,1021.56 L1855.35,1021.56 L1855.35,1009.02 C1855.3,1006.71 1855.85,1006.33 1858.82,1006.27 L1861.35,1006.27 C1870.37,1006.22 1872.62,1008.25 1874.33,1017.71 L1876.75,1017.71 L1875.98,1003.69 "/>
<path class="Harmony" d="M2426.76,532.103 L2424.67,532.103 L2422.47,535.348 C2418.45,532.433 2416.42,531.663 2412.62,531.663 C2407.4,531.663 2402.94,533.863 2399.26,538.263 C2395.74,542.443 2394.09,547.063 2394.09,552.728 C2394.09,564.608 2401.84,573.023 2412.68,573.023 C2421.48,573.023 2427.09,567.853 2428.35,558.613 L2425.77,558.173 C2424.28,566.368 2420.1,570.438 2413.34,570.438 C2405.2,570.438 2401.35,564.828 2401.35,552.948 C2401.35,546.678 2402.17,542.553 2404.04,539.253 C2405.75,536.173 2409.1,534.248 2412.68,534.248 C2416.53,534.248 2419.94,536.283 2422.03,539.803 C2423.07,541.618 2423.84,543.653 2425.16,547.998 L2427.58,547.998 L2426.76,532.103 "/>
<path class="Harmony" d="M2304.74,532.103 L2302.65,532.103 L2300.45,535.348 C2296.43,532.433 2294.4,531.663 2290.6,531.663 C2285.38,531.663 2280.92,533.863 2277.24,538.263 C2273.72,542.443 2272.07,547.063 2272.07,552.728 C2272.07,564.608 2279.82,573.023 2290.66,573.023 C2299.46,573.023 2305.07,567.853 2306.33,558.613 L2303.75,558.173 C2302.26,566.368 2298.08,570.438 2291.32,570.438 C2283.18,570.438 2279.33,564.828 2279.33,552.948 C2279.33,546.678 2280.15,542.553 2282.02,539.253 C2283.73,536.173 2287.08,534.248 2290.66,534.248 C2294.51,534.248 2297.92,536.283 2300.01,539.803 C2301.05,541.618 2301.82,543.653 2303.14,547.998 L2305.56,547.998 L2304.74,532.103 "/>
<path class="Harmony" d="M710.063,532.103 L707.973,532.103 L705.773,535.348 C701.758,532.433 699.723,531.663 695.928,531.663 C690.703,531.663 686.248,533.863 682.563,538.263 C679.043,542.443 677.393,547.063 677.393,552.728 C677.393,564.608 685.148,573.023 695.983,573.023 C704.783,573.023 710.393,567.853 711.658,558.613 L709.073,558.173 C707.588,566.368 703.408,570.438 696.643,570.438 C688.503,570.438 684.653,564.828 684.653,552.948 C684.653,546.678 685.478,542.553 687.348,539.253 C689.053,536.173 692.408,534.248 695.983,534.248 C699.833,534.248 703.243,536.283 705.333,539.803 C706.378,541.618 707.148,543.653 708.468,547.998 L710.888,547.998 L710.063,532.103 "/>
<path class="Harmony" d="M2042.81,1003.3 L2040.72,1003.3 L2038.58,1006.6 C2035,1003.8 2032.58,1002.86 2028.57,1002.86 C2024.22,1002.86 2020.81,1004.07 2017.35,1006.88 C2011.9,1011.28 2009.37,1016.83 2009.37,1024.26 C2009.37,1029.87 2010.97,1034.54 2014.21,1038.12 C2017.62,1041.97 2022.68,1044.22 2027.96,1044.22 C2032.58,1044.22 2035.83,1042.79 2039.4,1039.22 L2041.44,1044.17 L2043.75,1044.17 L2043.75,1032.07 C2043.75,1029.26 2043.75,1029.15 2044.08,1028.66 C2044.57,1028.05 2045.56,1027.89 2048.7,1027.89 L2049.52,1027.89 L2049.52,1025.3 L2032.03,1025.3 L2032.03,1027.89 L2033.08,1027.89 C2037.7,1027.89 2038.08,1028.16 2038.08,1031.24 C2038.08,1033.61 2037.7,1035.75 2036.98,1037.07 C2035.61,1039.77 2032.09,1041.64 2028.51,1041.64 C2024.94,1041.64 2021.42,1039.82 2019.55,1037.07 C2017.51,1033.99 2016.63,1030.14 2016.63,1024.26 C2016.63,1011.99 2020.7,1005.45 2028.35,1005.45 C2034.62,1005.45 2038.96,1009.96 2041.22,1018.76 L2043.58,1018.76 L2042.81,1003.3 "/>
<path class="Harmony" d="M2055.54,1017.99 L2057.96,1018.37 L2058.95,1014.03 C2059.78,1010.4 2060.16,1009.85 2061.76,1009.85 C2062.03,1009.85 2062.47,1009.85 2062.97,1009.9 C2069.73,1010.23 2069.73,1010.23 2072.26,1010.23 C2072.98,1010.23 2074.24,1010.23 2075.78,1010.18 L2072.04,1017.71 C2067.97,1025.8 2067.48,1026.79 2066.1,1030.2 C2064.4,1034.32 2063.52,1037.79 2063.52,1040.1 C2063.52,1042.63 2064.84,1044.17 2066.98,1044.17 C2069.62,1044.17 2070.67,1042.41 2070.61,1037.62 C2070.34,1029.7 2071.33,1025.85 2077.21,1012.98 C2078.2,1010.84 2079.25,1008.64 2080.24,1006.49 L2080.24,1004.9 C2076.94,1005.17 2075.18,1005.28 2071.77,1005.28 C2066.98,1005.28 2063.19,1005.12 2057.25,1004.68 L2055.54,1017.99 "/>
<path class="Harmony" d="M2646.28,1003.3 L2644.19,1003.3 L2641.99,1006.55 C2637.98,1003.63 2635.94,1002.86 2632.15,1002.86 C2626.92,1002.86 2622.47,1005.06 2618.78,1009.46 C2615.26,1013.64 2613.61,1018.26 2613.61,1023.93 C2613.61,1035.81 2621.37,1044.22 2632.2,1044.22 C2641,1044.22 2646.61,1039.05 2647.88,1029.81 L2645.29,1029.37 C2643.81,1037.57 2639.63,1041.64 2632.86,1041.64 C2624.72,1041.64 2620.87,1036.03 2620.87,1024.15 C2620.87,1017.88 2621.7,1013.75 2623.57,1010.45 C2625.27,1007.37 2628.63,1005.45 2632.2,1005.45 C2636.05,1005.45 2639.46,1007.48 2641.55,1011 C2642.6,1012.82 2643.37,1014.85 2644.69,1019.2 L2647.11,1019.2 L2646.28,1003.3 "/>
<path class="Harmony" d="M2106.12,532.103 L2104.03,532.103 L2101.88,535.403 C2098.31,532.598 2095.89,531.663 2091.87,531.663 C2087.53,531.663 2084.12,532.873 2080.65,535.678 C2075.21,540.078 2072.68,545.633 2072.68,553.058 C2072.68,558.668 2074.27,563.343 2077.52,566.918 C2080.93,570.768 2085.99,573.023 2091.27,573.023 C2095.89,573.023 2099.13,571.593 2102.71,568.018 L2104.74,572.968 L2107.05,572.968 L2107.05,560.868 C2107.05,558.063 2107.05,557.953 2107.38,557.458 C2107.88,556.853 2108.87,556.688 2112,556.688 L2112.83,556.688 L2112.83,554.103 L2095.34,554.103 L2095.34,556.688 L2096.38,556.688 C2101,556.688 2101.39,556.963 2101.39,560.043 C2101.39,562.408 2101,564.553 2100.29,565.873 C2098.91,568.568 2095.39,570.438 2091.82,570.438 C2088.24,570.438 2084.72,568.623 2082.85,565.873 C2080.82,562.793 2079.94,558.943 2079.94,553.058 C2079.94,540.793 2084.01,534.248 2091.65,534.248 C2097.92,534.248 2102.27,538.758 2104.52,547.558 L2106.89,547.558 L2106.12,532.103 "/>
<path class="Harmony" d="M2118.85,546.788 L2121.27,547.173 L2122.26,542.828 C2123.08,539.198 2123.47,538.648 2125.06,538.648 C2125.34,538.648 2125.78,538.648 2126.27,538.703 C2133.04,539.033 2133.04,539.033 2135.57,539.033 C2136.28,539.033 2137.55,539.033 2139.09,538.978 L2135.35,546.513 C2131.28,554.598 2130.78,555.588 2129.41,558.998 C2127.7,563.123 2126.82,566.588 2126.82,568.898 C2126.82,571.428 2128.14,572.968 2130.29,572.968 C2132.93,572.968 2133.97,571.208 2133.92,566.423 C2133.64,558.503 2134.63,554.653 2140.52,541.783 C2141.51,539.638 2142.55,537.438 2143.54,535.293 L2143.54,533.698 C2140.24,533.973 2138.48,534.083 2135.07,534.083 C2130.29,534.083 2126.49,533.918 2120.55,533.478 L2118.85,546.788 "/>
<path class="Harmony" d="M1943.43,532.103 L1941.34,532.103 L1939.19,535.403 C1935.62,532.598 1933.2,531.663 1929.18,531.663 C1924.84,531.663 1921.43,532.873 1917.96,535.678 C1912.52,540.078 1909.99,545.633 1909.99,553.058 C1909.99,558.668 1911.58,563.343 1914.83,566.918 C1918.24,570.768 1923.3,573.023 1928.58,573.023 C1933.2,573.023 1936.44,571.593 1940.02,568.018 L1942.05,572.968 L1944.36,572.968 L1944.36,560.868 C1944.36,558.063 1944.36,557.953 1944.69,557.458 C1945.19,556.853 1946.18,556.688 1949.31,556.688 L1950.14,556.688 L1950.14,554.103 L1932.65,554.103 L1932.65,556.688 L1933.69,556.688 C1938.31,556.688 1938.7,556.963 1938.7,560.043 C1938.7,562.408 1938.31,564.553 1937.6,565.873 C1936.22,568.568 1932.7,570.438 1929.13,570.438 C1925.55,570.438 1922.03,568.623 1920.16,565.873 C1918.13,562.793 1917.25,558.943 1917.25,553.058 C1917.25,540.793 1921.32,534.248 1928.96,534.248 C1935.23,534.248 1939.58,538.758 1941.83,547.558 L1944.2,547.558 L1943.43,532.103 "/>
<path class="Harmony" d="M1956.16,546.788 L1958.58,547.173 L1959.57,542.828 C1960.39,539.198 1960.78,538.648 1962.37,538.648 C1962.65,538.648 1963.09,538.648 1963.58,538.703 C1970.35,539.033 1970.35,539.033 1972.88,539.033 C1973.59,539.033 1974.86,539.033 1976.4,538.978 L1972.66,546.513 C1968.59,554.598 1968.09,555.588 1966.72,558.998 C1965.01,563.123 1964.13,566.588 1964.13,568.898 C1964.13,571.428 1965.45,572.968 1967.6,572.968 C1970.24,572.968 1971.28,571.208 1971.23,566.423 C1970.95,558.503 1971.94,554.653 1977.83,541.783 C1978.82,539.638 1979.86,537.438 1980.85,535.293 L1980.85,533.698 C1977.55,533.973 1975.79,534.083 1972.38,534.083 C1967.6,534.083 1963.8,533.918 1957.86,533.478 L1956.16,546.788 "/>
<path class="Harmony" d="M1820.68,532.488 L1787.96,532.488 L1787.96,535.073 L1788.95,535.073 C1792.08,535.128 1793.13,535.293 1793.57,535.843 C1793.9,536.338 1793.9,536.448 1793.9,539.253 L1793.9,565.433 C1793.9,568.238 1793.9,568.348 1793.57,568.843 C1793.13,569.393 1792.08,569.613 1788.95,569.613 L1787.96,569.613 L1787.96,572.198 L1806.82,572.198 L1806.82,569.613 L1805.01,569.613 C1801.87,569.613 1800.83,569.393 1800.39,568.843 C1800.06,568.348 1800.06,568.183 1800.06,565.433 L1800.06,552.948 L1801.16,552.948 C1806.82,552.728 1808.86,554.763 1809.08,560.868 L1811.66,560.868 L1811.66,542.828 L1809.08,542.828 C1808.75,548.218 1806.6,550.308 1801.38,550.363 L1800.06,550.363 L1800.06,537.823 C1800,535.513 1800.55,535.128 1803.52,535.073 L1806.05,535.073 C1815.07,535.018 1817.33,537.053 1819.03,546.513 L1821.45,546.513 L1820.68,532.488 "/>
<path class="Harmony" d="M2264.29,1003.3 L2262.2,1003.3 L2260.06,1006.6 C2256.48,1003.8 2254.06,1002.86 2250.05,1002.86 C2245.7,1002.86 2242.29,1004.07 2238.83,1006.88 C2233.38,1011.28 2230.85,1016.83 2230.85,1024.26 C2230.85,1029.87 2232.45,1034.54 2235.69,1038.12 C2239.1,1041.97 2244.16,1044.22 2249.44,1044.22 C2254.06,1044.22 2257.31,1042.79 2260.88,1039.22 L2262.92,1044.17 L2265.23,1044.17 L2265.23,1032.07 C2265.23,1029.26 2265.23,1029.15 2265.56,1028.66 C2266.05,1028.05 2267.04,1027.89 2270.18,1027.89 L2271,1027.89 L2271,1025.3 L2253.51,1025.3 L2253.51,1027.89 L2254.56,1027.89 C2259.18,1027.89 2259.56,1028.16 2259.56,1031.24 C2259.56,1033.61 2259.18,1035.75 2258.46,1037.07 C2257.09,1039.77 2253.57,1041.64 2249.99,1041.64 C2246.42,1041.64 2242.9,1039.82 2241.03,1037.07 C2238.99,1033.99 2238.11,1030.14 2238.11,1024.26 C2238.11,1011.99 2242.18,1005.45 2249.83,1005.45 C2256.1,1005.45 2260.44,1009.96 2262.7,1018.76 L2265.06,1018.76 L2264.29,1003.3 "/>
<path class="Harmony" d="M2277.02,1017.99 L2279.44,1018.37 L2280.43,1014.03 C2281.26,1010.4 2281.64,1009.85 2283.24,1009.85 C2283.51,1009.85 2283.95,1009.85 2284.45,1009.9 C2291.21,1010.23 2291.21,1010.23 2293.74,1010.23 C2294.46,1010.23 2295.72,1010.23 2297.26,1010.18 L2293.52,1017.71 C2289.45,1025.8 2288.96,1026.79 2287.58,1030.2 C2285.88,1034.32 2285,1037.79 2285,1040.1 C2285,1042.63 2286.32,1044.17 2288.46,1044.17 C2291.1,1044.17 2292.15,1042.41 2292.09,1037.62 C2291.82,1029.7 2292.81,1025.85 2298.69,1012.98 C2299.68,1010.84 2300.73,1008.64 2301.72,1006.49 L2301.72,1004.9 C2298.42,1005.17 2296.66,1005.28 2293.25,1005.28 C2288.46,1005.28 2284.67,1005.12 2278.73,1004.68 L2277.02,1017.99 "/>
<path class="Harmony" d="M1698.66,532.488 L1665.94,532.488 L1665.94,535.073 L1666.93,535.073 C1670.06,535.128 1671.11,535.293 1671.55,535.843 C1671.88,536.338 1671.88,536.448 1671.88,539.253 L1671.88,565.433 C1671.88,568.238 1671.88,568.348 1671.55,568.843 C1671.11,569.393 1670.06,569.613 1666.93,569.613 L1665.94,569.613 L1665.94,572.198 L1684.8,572.198 L1684.8,569.613 L1682.99,569.613 C1679.85,569.613 1678.81,569.393 1678.37,568.843 C1678.04,568.348 1678.04,568.183 1678.04,565.433 L1678.04,552.948 L1679.14,552.948 C1684.8,552.728 1686.84,554.763 1687.06,560.868 L1689.64,560.868 L1689.64,542.828 L1687.06,542.828 C1686.73,548.218 1684.58,550.308 1679.36,550.363 L1678.04,550.363 L1678.04,537.823 C1677.98,535.513 1678.53,535.128 1681.5,535.073 L1684.03,535.073 C1693.05,535.018 1695.31,537.053 1697.01,546.513 L1699.43,546.513 L1698.66,532.488 "/>
<path class="Harmony" d="M832.082,532.103 L829.992,532.103 L827.792,535.348 C823.777,532.433 821.742,531.663 817.947,531.663 C812.722,531.663 808.267,533.863 804.582,538.263 C801.062,542.443 799.412,547.063 799.412,552.728 C799.412,564.608 807.167,573.023 818.002,573.023 C826.802,573.023 832.412,567.853 833.677,558.613 L831.092,558.173 C829.607,566.368 825.427,570.438 818.662,570.438 C810.522,570.438 806.672,564.828 806.672,552.948 C806.672,546.678 807.497,542.553 809.367,539.253 C811.072,536.173 814.427,534.248 818.002,534.248 C821.852,534.248 825.262,536.283 827.352,539.803 C828.397,541.618 829.167,543.653 830.487,547.998 L832.907,547.998 L832.082,532.103 "/>
<path class="Harmony" d="M1539.94,532.488 L1507.22,532.488 L1507.22,535.073 L1508.21,535.073 C1511.34,535.128 1512.39,535.293 1512.83,535.843 C1513.16,536.338 1513.16,536.448 1513.16,539.253 L1513.16,565.433 C1513.16,568.238 1513.16,568.348 1512.83,568.843 C1512.39,569.393 1511.34,569.613 1508.21,569.613 L1507.22,569.613 L1507.22,572.198 L1526.08,572.198 L1526.08,569.613 L1524.27,569.613 C1521.13,569.613 1520.09,569.393 1519.65,568.843 C1519.32,568.348 1519.32,568.183 1519.32,565.433 L1519.32,552.948 L1520.42,552.948 C1526.08,552.728 1528.12,554.763 1528.34,560.868 L1530.92,560.868 L1530.92,542.828 L1528.34,542.828 C1528.01,548.218 1525.86,550.308 1520.64,550.363 L1519.32,550.363 L1519.32,537.823 C1519.26,535.513 1519.81,535.128 1522.78,535.073 L1525.31,535.073 C1534.33,535.018 1536.59,537.053 1538.29,546.513 L1540.71,546.513 L1539.94,532.488 "/>
<path class="Harmony" d="M1417.92,532.488 L1385.2,532.488 L1385.2,535.073 L1386.19,535.073 C1389.32,535.128 1390.37,535.293 1390.81,535.843 C1391.14,536.338 1391.14,536.448 1391.14,539.253 L1391.14,565.433 C1391.14,568.238 1391.14,568.348 1390.81,568.843 C1390.37,569.393 1389.32,569.613 1386.19,569.613 L1385.2,569.613 L1385.2,572.198 L1404.06,572.198 L1404.06,569.613 L1402.25,569.613 C1399.11,569.613 1398.07,569.393 1397.63,568.843 C1397.3,568.348 1397.3,568.183 1397.3,565.433 L1397.3,552.948 L1398.4,552.948 C1404.06,552.728 1406.1,554.763 1406.32,560.868 L1408.9,560.868 L1408.9,542.828 L1406.32,542.828 C1405.99,548.218 1403.84,550.308 1398.62,550.363 L1397.3,550.363 L1397.3,537.823 C1397.24,535.513 1397.79,535.128 1400.76,535.073 L1403.29,535.073 C1412.31,535.018 1414.57,537.053 1416.27,546.513 L1418.69,546.513 L1417.92,532.488 "/>
<path class="Harmony" d="M1326.36,532.103 L1324.27,532.103 L1322.07,535.348 C1318.05,532.433 1316.02,531.663 1312.22,531.663 C1307,531.663 1302.54,533.863 1298.86,538.263 C1295.34,542.443 1293.69,547.063 1293.69,552.728 C1293.69,564.608 1301.44,573.023 1312.28,573.023 C1321.08,573.023 1326.69,567.853 1327.95,558.613 L1325.37,558.173 C1323.88,566.368 1319.7,570.438 1312.94,570.438 C1304.8,570.438 1300.95,564.828 1300.95,552.948 C1300.95,546.678 1301.77,542.553 1303.64,539.253 C1305.35,536.173 1308.7,534.248 1312.28,534.248 C1316.13,534.248 1319.54,536.283 1321.63,539.803 C1322.67,541.618 1323.44,543.653 1324.76,547.998 L1327.18,547.998 L1326.36,532.103 "/>
<path class="Harmony" d="M1234.84,532.103 L1232.75,532.103 L1230.55,535.348 C1226.54,532.433 1224.5,531.663 1220.71,531.663 C1215.48,531.663 1211.03,533.863 1207.34,538.263 C1203.82,542.443 1202.17,547.063 1202.17,552.728 C1202.17,564.608 1209.93,573.023 1220.76,573.023 C1229.56,573.023 1235.17,567.853 1236.44,558.613 L1233.85,558.173 C1232.37,566.368 1228.19,570.438 1221.42,570.438 C1213.28,570.438 1209.43,564.828 1209.43,552.948 C1209.43,546.678 1210.26,542.553 1212.13,539.253 C1213.83,536.173 1217.19,534.248 1220.76,534.248 C1224.61,534.248 1228.02,536.283 1230.11,539.803 C1231.16,541.618 1231.93,543.653 1233.25,547.998 L1235.67,547.998 L1234.84,532.103 "/>
<path class="Harmony" d="M1076.12,532.103 L1074.03,532.103 L1071.83,535.348 C1067.82,532.433 1065.78,531.663 1061.99,531.663 C1056.76,531.663 1052.31,533.863 1048.62,538.263 C1045.1,542.443 1043.45,547.063 1043.45,552.728 C1043.45,564.608 1051.21,573.023 1062.04,573.023 C1070.84,573.023 1076.45,567.853 1077.72,558.613 L1075.13,558.173 C1073.65,566.368 1069.47,570.438 1062.7,570.438 C1054.56,570.438 1050.71,564.828 1050.71,552.948 C1050.71,546.678 1051.54,542.553 1053.41,539.253 C1055.11,536.173 1058.47,534.248 1062.04,534.248 C1065.89,534.248 1069.3,536.283 1071.39,539.803 C1072.44,541.618 1073.21,543.653 1074.53,547.998 L1076.95,547.998 L1076.12,532.103 "/>
<path class="Harmony" d="M1216.31,1003.3 L1214.22,1003.3 L1212.02,1006.55 C1208.01,1003.63 1205.97,1002.86 1202.18,1002.86 C1196.95,1002.86 1192.5,1005.06 1188.81,1009.46 C1185.29,1013.64 1183.64,1018.26 1183.64,1023.93 C1183.64,1035.81 1191.4,1044.22 1202.23,1044.22 C1211.03,1044.22 1216.64,1039.05 1217.91,1029.81 L1215.32,1029.37 C1213.84,1037.57 1209.66,1041.64 1202.89,1041.64 C1194.75,1041.64 1190.9,1036.03 1190.9,1024.15 C1190.9,1017.88 1191.73,1013.75 1193.6,1010.45 C1195.3,1007.37 1198.66,1005.45 1202.23,1005.45 C1206.08,1005.45 1209.49,1007.48 1211.58,1011 C1212.63,1012.82 1213.4,1014.85 1214.72,1019.2 L1217.14,1019.2 L1216.31,1003.3 "/>
</svg>
