<?xml version="1.0" encoding="UTF-8" standalone="no"?>
<svg width="2977.2px" height="4208.4px" viewBox="0 0 2977.2 4208.4"
 xmlns="http://www.w3.org/2000/svg" xmlns:xlink="http://www.w3.org/1999/xlink" version="1.2" baseProfile="tiny">
<title>キャリー・ザット・ウェイト</title>
<desc>Generated by MuseScore Studio 4.4.2</desc>
<path class="" fill="#ffffff" fill-rule="evenodd" d="M0,0 L2977.2,0 L2977.2,4208.4 L0,4208.4 L0,0 "/>
<polyline class="StaffLines" fill="none" stroke="#000000" stroke-width="2.73" stroke-linejoin="bevel" points="212.598,634.198 2764.6,634.198"/>
<polyline class="StaffLines" fill="none" stroke="#000000" stroke-width="2.73" stroke-linejoin="bevel" points="212.598,658.998 2764.6,658.998"/>
<polyline class="StaffLines" fill="none" stroke="#000000" stroke-width="2.73" stroke-linejoin="bevel" points="212.598,683.798 2764.6,683.798"/>
<polyline class="StaffLines" fill="none" stroke="#000000" stroke-width="2.73" stroke-linejoin="bevel" points="212.598,708.598 2764.6,708.598"/>
<polyline class="StaffLines" fill="none" stroke="#000000" stroke-width="2.73" stroke-linejoin="bevel" points="212.598,733.398 2764.6,733.398"/>
<polyline class="StaffLines" fill="none" stroke="#000000" stroke-width="2.73" stroke-linejoin="bevel" points="212.598,1105.4 2764.6,1105.4"/>
<polyline class="StaffLines" fill="none" stroke="#000000" stroke-width="2.73" stroke-linejoin="bevel" points="212.598,1130.2 2764.6,1130.2"/>
<polyline class="StaffLines" fill="none" stroke="#000000" stroke-width="2.73" stroke-linejoin="bevel" points="212.598,1155 2764.6,1155"/>
<polyline class="StaffLines" fill="none" stroke="#000000" stroke-width="2.73" stroke-linejoin="bevel" points="212.598,1179.8 2764.6,1179.8"/>
<polyline class="StaffLines" fill="none" stroke="#000000" stroke-width="2.73" stroke-linejoin="bevel" points="212.598,1204.6 2764.6,1204.6"/>
<polyline class="StaffLines" fill="none" stroke="#000000" stroke-width="2.73" stroke-linejoin="bevel" points="212.598,1576.6 2764.6,1576.6"/>
<polyline class="StaffLines" fill="none" stroke="#000000" stroke-width="2.73" stroke-linejoin="bevel" points="212.598,1601.4 2764.6,1601.4"/>
<polyline class="StaffLines" fill="none" stroke="#000000" stroke-width="2.73" stroke-linejoin="bevel" points="212.598,1626.2 2764.6,1626.2"/>
<polyline class="StaffLines" fill="none" stroke="#000000" stroke-width="2.73" stroke-linejoin="bevel" points="212.598,1651 2764.6,1651"/>
<polyline class="StaffLines" fill="none" stroke="#000000" stroke-width="2.73" stroke-linejoin="bevel" points="212.598,1675.8 2764.6,1675.8"/>
<path class="Text" d="M824.208,243.068 L801.768,246.588 C796.818,247.358 793.958,247.578 790.328,247.688 L791.868,256.048 C794.728,255.168 798.358,254.398 802.868,253.628 L825.528,250.108 L829.488,272.328 L800.228,277.058 C795.718,277.828 792.968,278.048 789.338,278.048 L790.768,286.408 C794.398,285.308 795.058,285.198 801.328,284.208 L830.808,279.478 L835.318,304.118 C836.088,308.958 836.528,311.708 836.638,314.678 L845.438,313.028 C844.338,309.618 844.008,308.298 843.018,302.578 L838.508,278.268 L866.118,273.868 C866.888,273.758 867.438,273.648 868.648,273.428 C870.518,273.098 871.618,272.878 872.058,272.878 C874.038,272.548 874.698,272.438 876.898,272.328 L875.358,264.188 C872.608,265.178 869.418,265.838 864.468,266.718 L837.188,271.118 L833.008,248.898 L857.978,245.048 C864.798,243.948 864.798,243.948 867.768,243.618 L866.228,235.698 C863.698,236.578 861.388,237.128 856.548,237.898 L831.688,241.748 L829.488,229.648 C828.608,225.028 828.388,222.938 828.278,220.298 L819.588,221.728 C820.688,224.368 821.238,226.458 822.008,231.078 L824.208,243.068 M924.858,258.688 L914.298,260.448 C909.678,261.218 907.588,261.438 904.068,261.438 L905.608,269.248 C908.468,268.258 910.558,267.708 915.178,267.048 L926.068,265.178 L933.768,306.868 C934.538,310.718 934.758,313.028 934.758,315.668 L943.228,314.128 C942.238,311.488 942.238,311.488 941.138,305.438 L933.218,264.078 L965.998,258.688 C967.648,258.358 967.648,258.358 968.858,258.028 C968.638,258.468 968.528,258.688 968.418,259.018 C963.688,268.698 958.188,274.528 948.508,280.138 C951.368,281.788 952.358,282.558 954.448,284.868 C964.458,278.048 971.058,270.128 975.788,259.018 C976.888,256.378 977.328,255.608 978.318,254.178 L973.698,250.108 C972.378,250.768 971.388,250.988 968.968,251.428 L932.008,257.478 L930.248,248.018 C929.148,242.298 929.038,241.968 929.038,239.768 L921.008,240.978 C921.998,243.288 921.998,243.508 923.098,249.008 L924.858,258.688 M1023.31,224.038 C1023.64,226.678 1023.75,228.548 1023.75,233.278 L1023.75,262.648 C1023.75,267.048 1023.64,269.358 1023.31,271.888 L1032.44,271.888 C1032.11,269.248 1032,268.038 1032,262.758 L1032,233.168 C1032,228.108 1032.11,226.678 1032.44,224.038 L1023.31,224.038 M1071.93,224.038 C1072.26,226.458 1072.37,227.998 1072.37,233.718 L1072.37,246.148 C1072.37,262.868 1072.04,267.928 1070.83,274.198 C1068.74,284.428 1063.46,291.468 1053.23,297.408 C1047.51,300.818 1042.23,302.688 1032.33,304.888 C1035.08,308.188 1035.74,309.288 1036.95,312.478 C1046.3,309.728 1051.58,307.638 1056.97,304.558 C1067.75,298.508 1074.68,290.478 1077.87,280.138 C1079.85,273.758 1080.62,264.078 1080.62,246.588 L1080.62,233.608 C1080.62,228.328 1080.73,226.568 1081.17,224.038 L1071.93,224.038 M1117.03,271.228 C1120.33,270.898 1122.64,270.788 1130.67,270.788 L1194.47,270.788 C1201.84,270.788 1204.37,270.898 1207.89,271.228 L1207.89,262.318 C1204.48,262.758 1202.72,262.868 1194.58,262.868 L1130.67,262.868 C1123.19,262.868 1120.22,262.758 1117.03,262.208 L1117.03,271.228 M1272.46,258.138 C1267.51,258.138 1263.44,262.208 1263.44,267.158 C1263.44,272.108 1267.51,276.178 1272.46,276.178 C1277.41,276.178 1281.48,272.108 1281.48,267.158 C1281.48,262.208 1277.41,258.138 1272.46,258.138 M1364.64,245.158 L1364.64,232.068 C1364.64,227.228 1364.75,225.798 1365.08,223.158 L1356.17,223.158 C1356.5,225.578 1356.61,226.568 1356.61,232.398 L1356.61,245.158 L1347.48,245.158 C1340.55,245.158 1338.35,245.048 1334.61,244.498 L1334.61,252.858 C1338.13,252.418 1340.33,252.308 1347.37,252.308 L1356.61,252.308 L1356.61,270.348 C1356.61,276.178 1356.5,277.278 1356.17,279.588 L1365.08,279.588 C1364.75,277.058 1364.64,275.518 1364.64,270.678 L1364.64,252.308 L1398.08,252.308 C1397.86,269.908 1397.2,276.508 1394.78,283.108 C1390.38,294.218 1379.27,302.798 1364.86,306.428 C1367.39,308.848 1368.49,310.498 1369.81,313.358 C1384.66,308.298 1394.56,300.598 1400.5,289.598 C1404.57,281.678 1405.78,273.538 1405.89,252.308 L1415.57,252.308 C1422.61,252.308 1424.81,252.418 1428.33,252.858 L1428.33,244.498 C1424.59,245.048 1422.39,245.158 1415.46,245.158 L1406,245.158 L1406,239.328 C1406,237.018 1406,234.928 1406,233.608 C1406.11,226.348 1406.11,226.238 1406.44,223.158 L1397.86,223.158 C1398.19,225.688 1398.19,226.678 1398.19,234.378 L1398.19,245.158 L1364.64,245.158 M1410.62,217.878 C1413.59,222.828 1415.79,228.108 1418.43,236.248 L1424.26,234.268 C1421.73,226.458 1419.97,222.608 1416.45,216.228 L1410.62,217.878 M1423.49,214.468 C1426.13,218.758 1429.1,225.798 1431.19,232.508 L1436.91,230.528 C1435.15,224.588 1432.4,218.318 1429.1,212.598 L1423.49,214.468 M1458.03,250.878 C1462.65,258.468 1465.73,265.838 1468.37,275.518 L1475.85,272.988 C1471.78,261.328 1469.36,256.158 1464.96,248.568 L1458.03,250.878 M1480.69,246.258 C1485.42,254.508 1488.83,262.538 1490.81,270.348 L1498.07,267.818 C1495.21,259.018 1493.23,254.618 1487.4,244.168 L1480.69,246.258 M1518.86,246.148 C1518.86,246.478 1518.86,246.478 1518.86,246.808 L1518.86,247.248 C1518.86,248.568 1518.42,251.098 1517.65,254.728 C1515.67,263.198 1512.48,271.448 1508.3,278.378 C1500.71,291.028 1490.37,299.498 1473.43,307.088 C1475.96,309.398 1476.84,310.498 1478.49,313.248 C1495.54,304.998 1507.09,294.878 1514.9,281.458 C1518.86,274.638 1522.82,264.518 1524.58,256.818 C1526.34,249.668 1526.34,249.668 1527,247.908 L1518.86,246.148 M1589.48,312.368 C1589.04,309.288 1588.93,306.868 1588.93,300.708 L1588.93,267.598 C1588.93,264.848 1588.82,263.308 1588.49,261.108 L1588.71,260.998 C1589.7,261.768 1590.47,262.208 1592.12,262.868 C1607.63,269.248 1622.81,277.388 1633.15,284.648 L1637.88,276.508 C1618.63,265.398 1605.87,259.348 1588.93,253.298 L1588.93,232.728 C1588.93,226.458 1589.04,224.148 1589.48,221.288 L1580.02,221.288 C1580.46,224.038 1580.68,226.678 1580.68,232.508 L1580.68,300.818 C1580.68,306.758 1580.46,309.398 1580.02,312.368 L1589.48,312.368 M1712.46,258.138 C1707.51,258.138 1703.44,262.208 1703.44,267.158 C1703.44,272.108 1707.51,276.178 1712.46,276.178 C1717.41,276.178 1721.48,272.108 1721.48,267.158 C1721.48,262.208 1717.41,258.138 1712.46,258.138 M1825.98,238.778 L1825.98,227.558 C1825.98,224.918 1826.2,222.718 1826.53,220.628 L1817.29,220.628 C1817.73,223.268 1817.84,224.478 1817.84,227.668 L1817.84,238.778 L1794.52,238.778 C1790.34,238.778 1787.81,238.668 1784.4,238.338 C1784.73,240.978 1784.84,243.838 1784.84,247.248 L1784.84,262.098 C1784.84,264.958 1784.62,268.478 1784.4,270.348 L1793.42,270.348 C1793.2,268.258 1793.09,265.728 1793.09,262.208 L1793.09,245.708 L1853.15,245.708 C1851.06,268.038 1843.03,283.108 1827.63,293.778 C1820.26,298.728 1813.77,301.698 1803.32,304.448 C1806.18,307.528 1806.84,308.628 1808.38,311.928 C1821.58,307.528 1832.25,301.478 1840.61,293.668 C1851.17,283.658 1857.88,270.128 1860.52,253.518 C1861.95,244.168 1861.95,244.168 1862.94,242.408 L1858.43,238.118 C1856.45,238.778 1856.01,238.778 1849.19,238.778 L1825.98,238.778 M1935.65,264.188 L1952.59,264.188 C1958.42,264.188 1959.3,264.188 1962.27,264.628 L1962.27,256.928 C1959.63,257.368 1956.99,257.588 1952.48,257.588 L1912.33,257.588 C1907.93,257.588 1905.29,257.368 1902.54,256.928 L1902.54,264.628 C1905.07,264.298 1907.49,264.188 1912.33,264.188 L1928.06,264.188 L1928.06,302.248 L1905.73,302.248 C1900.45,302.248 1898.69,302.138 1895.83,301.588 L1895.83,309.398 C1898.47,309.068 1901.11,308.958 1905.84,308.958 L1959.08,308.958 C1963.59,308.958 1966.45,309.068 1969.09,309.398 L1969.09,301.698 C1966.34,302.138 1964.36,302.248 1959.19,302.248 L1935.65,302.248 L1935.65,264.188 M2073.59,221.618 C2070.51,226.788 2062.81,234.488 2052.58,242.408 C2035.2,256.048 2016.17,265.508 1995.49,270.898 C1997.69,273.648 1998.24,274.748 1999.78,278.268 C2019.91,271.448 2027.94,267.818 2042.24,259.018 L2042.24,300.818 C2042.24,306.868 2042.13,309.398 2041.58,312.258 L2051.15,312.258 C2050.71,309.288 2050.6,306.868 2050.6,300.598 L2050.6,253.738 C2060.06,246.918 2069.41,238.888 2076.34,231.628 C2079.09,228.658 2079.2,228.438 2081.18,227.008 L2073.59,221.618 M2139.48,312.368 C2139.04,309.288 2138.93,306.868 2138.93,300.708 L2138.93,267.598 C2138.93,264.848 2138.82,263.308 2138.49,261.108 L2138.71,260.998 C2139.7,261.768 2140.47,262.208 2142.12,262.868 C2157.63,269.248 2172.81,277.388 2183.15,284.648 L2187.88,276.508 C2168.63,265.398 2155.87,259.348 2138.93,253.298 L2138.93,232.728 C2138.93,226.458 2139.04,224.148 2139.48,221.288 L2130.02,221.288 C2130.46,224.038 2130.68,226.678 2130.68,232.508 L2130.68,300.818 C2130.68,306.758 2130.46,309.398 2130.02,312.368 L2139.48,312.368 "/>
<path class="MeasureNumber" d="M216.922,1040.48 C215.682,1041.24 215.322,1041.72 215.322,1042.52 C215.322,1043.28 215.962,1043.84 216.762,1043.84 C217.802,1043.84 218.402,1043.08 218.522,1041.6 C219.762,1040.6 221.082,1040.16 222.682,1040.16 C225.642,1040.16 227.282,1042 227.282,1045.32 C227.282,1050.52 223.922,1054.76 219.802,1054.76 C217.442,1054.76 215.522,1053.64 215.522,1052.32 C215.522,1052.08 215.562,1052 215.762,1051.88 C217.042,1051.28 218.082,1050.84 218.082,1049.16 C218.082,1047.88 217.082,1046.92 215.682,1046.92 C213.922,1046.92 212.602,1048.4 212.602,1050.32 C212.602,1053.84 215.642,1056.4 219.922,1056.4 C226.402,1056.4 231.642,1051.24 231.642,1044.84 C231.642,1040.8 228.562,1037.96 224.202,1037.96 C222.482,1037.96 221.082,1038.32 219.162,1039.28 L221.402,1031.72 C223.522,1032.16 225.202,1032.36 226.642,1032.36 C229.282,1032.36 231.642,1031.52 232.962,1030.12 C233.642,1029.32 234.042,1028.64 234.042,1028.12 C234.042,1027.88 233.922,1027.64 233.762,1027.64 C233.642,1027.64 233.562,1027.68 233.322,1027.8 C232.002,1028.44 230.322,1028.8 228.762,1028.8 C226.362,1028.8 223.522,1028.4 220.562,1027.64 L216.922,1040.48 "/>
<path class="MeasureNumber" d="M228.053,1513.32 C227.053,1517.96 224.373,1525.92 218.653,1525.92 C217.493,1525.92 216.733,1525.44 216.733,1524.72 C216.733,1524.44 216.813,1524.32 217.133,1523.84 C217.533,1523.32 217.733,1522.84 217.733,1522.28 C217.733,1520.96 216.693,1519.96 215.333,1519.96 C213.733,1519.96 212.613,1521.16 212.613,1522.92 C212.613,1525.64 215.173,1527.6 218.733,1527.6 C227.493,1527.6 233.093,1516.4 233.093,1508.8 C233.093,1502.56 230.093,1498.84 225.133,1498.84 C219.173,1498.84 214.733,1504.32 214.733,1510.04 C214.733,1513.84 217.653,1516.72 221.533,1516.72 C224.173,1516.72 226.213,1515.64 228.053,1513.32 M225.093,1500.52 C227.653,1500.52 229.293,1502.56 229.293,1505.76 C229.293,1510.72 226.573,1514.36 222.893,1514.36 C220.373,1514.36 218.973,1512.64 218.973,1509.64 C218.973,1506.04 220.693,1500.52 225.093,1500.52"/>
<path class="TieSegment" stroke="#000000" stroke-width="1.74" stroke-linecap="round" stroke-linejoin="round" fill-rule="evenodd" d="M2067.82,1185.49 C2099.42,1215.94 2194.22,1215.94 2225.81,1185.49 C2194.22,1222.89 2099.42,1222.89 2067.82,1185.49"/>
<path class="TieSegment" stroke="#000000" stroke-width="1.74" stroke-linecap="round" stroke-linejoin="round" fill-rule="evenodd" d="M2391.75,1669.2 C2413.17,1686.72 2477.42,1686.72 2498.84,1669.2 C2477.42,1693.66 2413.17,1693.66 2391.75,1669.2"/>
<path class="TieSegment" stroke="#000000" stroke-width="1.74" stroke-linecap="round" stroke-linejoin="round" fill-rule="evenodd" d="M1637.79,1681.49 C1659.21,1699.01 1723.46,1699.01 1744.87,1681.49 C1723.46,1705.96 1659.21,1705.96 1637.79,1681.49"/>
<path class="TieSegment" stroke="#000000" stroke-width="1.74" stroke-linecap="round" stroke-linejoin="round" fill-rule="evenodd" d="M1295.22,714.395 C1311.42,726.929 1360.02,726.929 1376.22,714.395 C1360.02,733.146 1311.42,733.146 1295.22,714.395"/>
<path class="TieSegment" stroke="#000000" stroke-width="1.74" stroke-linecap="round" stroke-linejoin="round" fill-rule="evenodd" d="M1869.19,714.295 C1885.39,726.929 1933.99,726.929 1950.2,714.295 C1933.99,733.146 1885.39,733.146 1869.19,714.295"/>
<path class="TieSegment" stroke="#000000" stroke-width="1.74" stroke-linecap="round" stroke-linejoin="round" fill-rule="evenodd" d="M2381.52,665.601 C2413.22,637.415 2508.32,637.415 2540.02,665.601 C2508.32,644.359 2413.22,644.359 2381.52,665.601"/>
<path class="TieSegment" stroke="#000000" stroke-width="1.74" stroke-linecap="round" stroke-linejoin="round" fill-rule="evenodd" d="M2170.06,726.695 C2193.61,745.063 2264.23,745.063 2287.77,726.695 C2264.23,752.007 2193.61,752.007 2170.06,726.695"/>
<path class="TieSegment" stroke="#000000" stroke-width="1.74" stroke-linecap="round" stroke-linejoin="round" fill-rule="evenodd" d="M1252.59,1185.6 C1268.43,1198.15 1315.96,1198.15 1331.8,1185.6 C1315.96,1204.3 1268.43,1204.3 1252.59,1185.6"/>
<polyline class="BarLine" fill="none" stroke="#000000" stroke-width="4.46" stroke-linejoin="bevel" points="2240.55,632.834 2240.55,734.762"/>
<polyline class="BarLine" fill="none" stroke="#000000" stroke-width="4.46" stroke-linejoin="bevel" points="2762.37,1104.03 2762.37,1205.96"/>
<polyline class="BarLine" fill="none" stroke="#000000" stroke-width="4.46" stroke-linejoin="bevel" points="2178.59,1104.03 2178.59,1205.96"/>
<polyline class="BarLine" fill="none" stroke="#000000" stroke-width="4.46" stroke-linejoin="bevel" points="985.145,632.834 985.145,734.762"/>
<polyline class="BarLine" fill="none" stroke="#000000" stroke-width="4.46" stroke-linejoin="bevel" points="1510.65,1104.03 1510.65,1205.96"/>
<polyline class="BarLine" fill="none" stroke="#000000" stroke-width="4.46" stroke-linejoin="bevel" points="1305.5,1575.23 1305.5,1677.16"/>
<polyline class="BarLine" fill="none" stroke="#000000" stroke-width="4.46" stroke-linejoin="bevel" points="1040.37,1104.03 1040.37,1205.96"/>
<polyline class="BarLine" fill="none" stroke="#000000" stroke-width="4.46" stroke-linejoin="bevel" points="2126.52,1575.23 2126.52,1677.16"/>
<polyline class="BarLine" fill="none" stroke="#000000" stroke-width="4.46" stroke-linejoin="bevel" points="2740.42,1575.23 2740.42,1677.16"/>
<polyline class="BarLine" fill="none" stroke="#000000" stroke-width="13.64" stroke-linejoin="bevel" points="2757.78,1575.23 2757.78,1677.16"/>
<polyline class="BarLine" fill="none" stroke="#000000" stroke-width="4.46" stroke-linejoin="bevel" points="1559.12,632.834 1559.12,734.762"/>
<path class="BarLine" transform="matrix(0.992,0,0,0.992,2717.87,671.398)" d="M10.4,0 C10.4,-2.9 8.1,-5.3 5.2,-5.3 C2.3,-5.3 0,-2.9 0,0 C0,2.9 2.3,5.3 5.2,5.3 C8.1,5.3 10.4,2.9 10.4,0"/>
<path class="BarLine" transform="matrix(0.992,0,0,0.992,2717.87,696.198)" d="M10.4,0 C10.4,-2.9 8.1,-5.3 5.2,-5.3 C2.3,-5.3 0,-2.9 0,0 C0,2.9 2.3,5.3 5.2,5.3 C8.1,5.3 10.4,2.9 10.4,0"/>
<polyline class="BarLine" fill="none" stroke="#000000" stroke-width="4.46" stroke-linejoin="bevel" points="2740.42,632.834 2740.42,734.762"/>
<polyline class="BarLine" fill="none" stroke="#000000" stroke-width="13.64" stroke-linejoin="bevel" points="2757.78,632.834 2757.78,734.762"/>
<path class="Accidental" transform="matrix(0.992,0,0,0.992,1981.84,1688.2)" d="M23.3,-10.5 C23.9,-10.6 24.4,-11.3 24.4,-11.9 L24.4,-17.8 C24.4,-18.8 23.7,-19.2 22.8,-19.2 L19.5,-18.5 L19.5,-33.4 L16.7,-33.4 L16.7,-17.9 L7.8,-16.1 L7.8,-30.2 L5,-30.2 L5,-15.5 L1.1,-14.7 C0.5,-14.6 0,-13.9 0,-13.3 L0,-7.5 C0,-6.4 0.8,-6.1 1.7,-6.1 L5,-6.8 L5,9.7 L1.1,10.5 C0.5,10.6 0,11.3 0,11.9 L0,17.7 C0,18.8 0.8,19.1 1.7,19.1 L5,18.4 L5,33.3 L7.8,33.3 L7.8,17.8 L16.7,16 L16.7,30.1 L19.5,30.1 L19.5,15.4 L23.3,14.7 C23.9,14.6 24.4,13.9 24.4,13.3 L24.4,7.4 C24.4,6.4 23.7,6 22.8,6 L19.5,6.7 L19.5,-9.8 L23.3,-10.5 M7.8,-7.4 L16.7,-9.2 L16.7,7.3 L7.8,9.2 L7.8,-7.4 "/>
<polyline class="Stem" fill="none" stroke="#000000" stroke-width="2.73" stroke-linejoin="bevel" points="1265.75,1163.43 1265.75,1087"/>
<polyline class="Stem" fill="none" stroke="#000000" stroke-width="2.73" stroke-linejoin="bevel" points="1020.98,663.165 1020.98,745.896"/>
<polyline class="Stem" fill="none" stroke="#000000" stroke-width="2.73" stroke-linejoin="bevel" points="2516.95,1647.03 2516.95,1564.2"/>
<polyline class="Stem" fill="none" stroke="#000000" stroke-width="2.73" stroke-linejoin="bevel" points="1766.89,675.565 1766.89,758.166"/>
<polyline class="Stem" fill="none" stroke="#000000" stroke-width="2.73" stroke-linejoin="bevel" points="2404.9,1647.03 2404.9,1564.4"/>
<polyline class="Stem" fill="none" stroke="#000000" stroke-width="2.73" stroke-linejoin="bevel" points="1852.85,700.365 1852.85,764.301"/>
<polyline class="Stem" fill="none" stroke="#000000" stroke-width="2.73" stroke-linejoin="bevel" points="2191.85,1671.83 2191.85,1589"/>
<polyline class="Stem" fill="none" stroke="#000000" stroke-width="2.73" stroke-linejoin="bevel" points="1968.31,692.23 1968.31,615.598"/>
<polyline class="Stem" fill="none" stroke="#000000" stroke-width="2.73" stroke-linejoin="bevel" points="476.501,704.63 476.501,621.798"/>
<polyline class="Stem" fill="none" stroke="#000000" stroke-width="2.73" stroke-linejoin="bevel" points="2097.25,741.83 2097.25,640.303"/>
<polyline class="Stem" fill="none" stroke="#000000" stroke-width="2.73" stroke-linejoin="bevel" points="2043.1,1684.23 2043.1,1601.6"/>
<polyline class="Stem" fill="none" stroke="#000000" stroke-width="2.73" stroke-linejoin="bevel" points="1875.03,1671.83 1875.03,1589"/>
<polyline class="Stem" fill="none" stroke="#000000" stroke-width="2.73" stroke-linejoin="bevel" points="2183.22,704.63 2183.22,634.294"/>
<polyline class="Stem" fill="none" stroke="#000000" stroke-width="2.73" stroke-linejoin="bevel" points="1762.99,1659.43 1762.99,1576.8"/>
<polyline class="Stem" fill="none" stroke="#000000" stroke-width="2.73" stroke-linejoin="bevel" points="1650.94,1659.43 1650.94,1582.72"/>
<polyline class="Stem" fill="none" stroke="#000000" stroke-width="2.73" stroke-linejoin="bevel" points="1538.9,1647.03 1538.9,1576.67"/>
<polyline class="Stem" fill="none" stroke="#000000" stroke-width="2.73" stroke-linejoin="bevel" points="1370.83,1634.63 1370.83,1558"/>
<polyline class="Stem" fill="none" stroke="#000000" stroke-width="2.73" stroke-linejoin="bevel" points="1222.08,1647.03 1222.08,1576.6"/>
<polyline class="Stem" fill="none" stroke="#000000" stroke-width="2.73" stroke-linejoin="bevel" points="1110.04,1647.03 1110.04,1576.6"/>
<polyline class="Stem" fill="none" stroke="#000000" stroke-width="2.73" stroke-linejoin="bevel" points="2305.89,704.63 2305.89,621.997"/>
<polyline class="Stem" fill="none" stroke="#000000" stroke-width="2.73" stroke-linejoin="bevel" points="997.992,1647.03 997.992,1576.6"/>
<polyline class="Stem" fill="none" stroke="#000000" stroke-width="2.73" stroke-linejoin="bevel" points="2362.35,687.965 2362.35,758.198"/>
<polyline class="Stem" fill="none" stroke="#000000" stroke-width="2.73" stroke-linejoin="bevel" points="885.947,1647.03 885.947,1576.6"/>
<polyline class="Stem" fill="none" stroke="#000000" stroke-width="2.73" stroke-linejoin="bevel" points="773.902,1647.03 773.902,1576.6"/>
<polyline class="Stem" fill="none" stroke="#000000" stroke-width="2.73" stroke-linejoin="bevel" points="2525.81,687.965 2525.81,758.198"/>
<polyline class="Stem" fill="none" stroke="#000000" stroke-width="2.73" stroke-linejoin="bevel" points="661.857,1647.03 661.857,1576.6"/>
<polyline class="Stem" fill="none" stroke="#000000" stroke-width="2.73" stroke-linejoin="bevel" points="1594.96,663.165 1594.96,745.896"/>
<polyline class="Stem" fill="none" stroke="#000000" stroke-width="2.73" stroke-linejoin="bevel" points="549.812,1647.03 549.812,1576.6"/>
<polyline class="Stem" fill="none" stroke="#000000" stroke-width="2.73" stroke-linejoin="bevel" points="1394.33,692.23 1394.33,615.598"/>
<polyline class="Stem" fill="none" stroke="#000000" stroke-width="2.73" stroke-linejoin="bevel" points="755.883,704.63 755.883,621.75"/>
<polyline class="Stem" fill="none" stroke="#000000" stroke-width="2.73" stroke-linejoin="bevel" points="1278.87,700.365 1278.87,764.301"/>
<polyline class="Stem" fill="none" stroke="#000000" stroke-width="2.73" stroke-linejoin="bevel" points="841.847,692.23 841.847,618.698"/>
<polyline class="Stem" fill="none" stroke="#000000" stroke-width="2.73" stroke-linejoin="bevel" points="1192.91,675.565 1192.91,758.166"/>
<polyline class="Stem" fill="none" stroke="#000000" stroke-width="2.73" stroke-linejoin="bevel" points="2664.75,1213.03 2664.75,1130.2"/>
<polyline class="Stem" fill="none" stroke="#000000" stroke-width="2.73" stroke-linejoin="bevel" points="2538.5,1163.43 2538.5,1086.8"/>
<polyline class="Stem" fill="none" stroke="#000000" stroke-width="2.73" stroke-linejoin="bevel" points="2424.84,1159.16 2424.84,1235.5"/>
<polyline class="Stem" fill="none" stroke="#000000" stroke-width="2.73" stroke-linejoin="bevel" points="492.435,1159.16 492.435,1223.2"/>
<polyline class="Stem" fill="none" stroke="#000000" stroke-width="2.73" stroke-linejoin="bevel" points="2298.6,1146.76 2298.6,1223.2"/>
<polyline class="Stem" fill="none" stroke="#000000" stroke-width="2.73" stroke-linejoin="bevel" points="2243.93,1163.43 2243.93,1087"/>
<polyline class="Stem" fill="none" stroke="#000000" stroke-width="2.73" stroke-linejoin="bevel" points="576.6,1159.16 576.6,1223.2"/>
<polyline class="Stem" fill="none" stroke="#000000" stroke-width="2.73" stroke-linejoin="bevel" points="927.81,679.83 927.81,615.647"/>
<polyline class="Stem" fill="none" stroke="#000000" stroke-width="2.73" stroke-linejoin="bevel" points="660.765,1159.16 660.765,1223.2"/>
<polyline class="Stem" fill="none" stroke="#000000" stroke-width="2.73" stroke-linejoin="bevel" points="1680.92,663.165 1680.92,752.031"/>
<polyline class="Stem" fill="none" stroke="#000000" stroke-width="2.73" stroke-linejoin="bevel" points="744.93,1159.16 744.93,1223.2"/>
<polyline class="Stem" fill="none" stroke="#000000" stroke-width="2.73" stroke-linejoin="bevel" points="2080.98,1163.43 2080.98,1086.8"/>
<polyline class="Stem" fill="none" stroke="#000000" stroke-width="2.73" stroke-linejoin="bevel" points="1996.81,1163.43 1996.81,1099.2"/>
<polyline class="Stem" fill="none" stroke="#000000" stroke-width="2.73" stroke-linejoin="bevel" points="829.094,1159.16 829.094,1223.2"/>
<polyline class="Stem" fill="none" stroke="#000000" stroke-width="2.73" stroke-linejoin="bevel" points="1912.65,1163.43 1912.65,1099.2"/>
<polyline class="Stem" fill="none" stroke="#000000" stroke-width="2.73" stroke-linejoin="bevel" points="913.259,1159.16 913.259,1229.4"/>
<polyline class="Stem" fill="none" stroke="#000000" stroke-width="2.73" stroke-linejoin="bevel" points="1828.48,1163.43 1828.48,1099.2"/>
<polyline class="Stem" fill="none" stroke="#000000" stroke-width="2.73" stroke-linejoin="bevel" points="1744.32,1163.43 1744.32,1099.2"/>
<polyline class="Stem" fill="none" stroke="#000000" stroke-width="2.73" stroke-linejoin="bevel" points="1106.94,663.165 1106.94,752.031"/>
<polyline class="Stem" fill="none" stroke="#000000" stroke-width="2.73" stroke-linejoin="bevel" points="1076.21,1159.16 1076.21,1229.4"/>
<polyline class="Stem" fill="none" stroke="#000000" stroke-width="2.73" stroke-linejoin="bevel" points="1660.15,1163.43 1660.15,1099.2"/>
<polyline class="Stem" fill="none" stroke="#000000" stroke-width="2.73" stroke-linejoin="bevel" points="1349.91,1163.43 1349.91,1086.8"/>
<path class="Hook" transform="matrix(0.992,0,0,0.992,2242.56,1086.8)" d="M0,22.7 C0,23 0.1,23.6 0.8,23.8 C5.1,25.2 13.7,30.6 20.2,41.7 C22,44.8 24.9,49.1 24.9,57.4 C24.9,64.6 23.1,72 20.4,79.2 C20.2,79.8 20.1,80.3 20.1,80.7 C20.1,81.4 20.5,81.7 21.2,81.7 C21.8,81.7 22.3,81.3 22.7,80.6 C27.2,72.6 28.9,63.3 28.9,54.2 C28.4,41.3 21,31.8 21,31.8 C21.3,31.8 11.8,19.5 9.1,15.3 C5.4,9.6 3.7,3.9 3.5,3.5 C3.4,3.2 2.5,-0.4 2.5,-0.4 C2.4,-0.8 1.9,-1.2 1.3,-1.2 C0.6,-1.2 0,-0.6 0,0.1 L0,22.7 "/>
<path class="Hook" transform="matrix(0.992,0,0,0.992,1761.62,1576.6)" d="M0,22.7 C0,23 0.1,23.6 0.8,23.8 C5.1,25.2 13.7,30.6 20.2,41.7 C22,44.8 24.9,49.1 24.9,57.4 C24.9,64.6 23.1,72 20.4,79.2 C20.2,79.8 20.1,80.3 20.1,80.7 C20.1,81.4 20.5,81.7 21.2,81.7 C21.8,81.7 22.3,81.3 22.7,80.6 C27.2,72.6 28.9,63.3 28.9,54.2 C28.4,41.3 21,31.8 21,31.8 C21.3,31.8 11.8,19.5 9.1,15.3 C5.4,9.6 3.7,3.9 3.5,3.5 C3.4,3.2 2.5,-0.4 2.5,-0.4 C2.4,-0.8 1.9,-1.2 1.3,-1.2 C0.6,-1.2 0,-0.6 0,0.1 L0,22.7 "/>
<path class="Hook" transform="matrix(0.992,0,0,0.992,2041.74,1601.4)" d="M0,22.7 C0,23 0.1,23.6 0.8,23.8 C5.1,25.2 13.7,30.6 20.2,41.7 C22,44.8 24.9,49.1 24.9,57.4 C24.9,64.6 23.1,72 20.4,79.2 C20.2,79.8 20.1,80.3 20.1,80.7 C20.1,81.4 20.5,81.7 21.2,81.7 C21.8,81.7 22.3,81.3 22.7,80.6 C27.2,72.6 28.9,63.3 28.9,54.2 C28.4,41.3 21,31.8 21,31.8 C21.3,31.8 11.8,19.5 9.1,15.3 C5.4,9.6 3.7,3.9 3.5,3.5 C3.4,3.2 2.5,-0.4 2.5,-0.4 C2.4,-0.8 1.9,-1.2 1.3,-1.2 C0.6,-1.2 0,-0.6 0,0.1 L0,22.7 "/>
<path class="Hook" transform="matrix(0.992,0,0,0.992,2304.52,621.798)" d="M0,22.7 C0,23 0.1,23.6 0.8,23.8 C5.1,25.2 13.7,30.6 20.2,41.7 C22,44.8 24.9,49.1 24.9,57.4 C24.9,64.6 23.1,72 20.4,79.2 C20.2,79.8 20.1,80.3 20.1,80.7 C20.1,81.4 20.5,81.7 21.2,81.7 C21.8,81.7 22.3,81.3 22.7,80.6 C27.2,72.6 28.9,63.3 28.9,54.2 C28.4,41.3 21,31.8 21,31.8 C21.3,31.8 11.8,19.5 9.1,15.3 C5.4,9.6 3.7,3.9 3.5,3.5 C3.4,3.2 2.5,-0.4 2.5,-0.4 C2.4,-0.8 1.9,-1.2 1.3,-1.2 C0.6,-1.2 0,-0.6 0,0.1 L0,22.7 "/>
<path class="Hook" transform="matrix(0.992,0,0,0.992,1264.38,1086.8)" d="M0,22.7 C0,23 0.1,23.6 0.8,23.8 C5.1,25.2 13.7,30.6 20.2,41.7 C22,44.8 24.9,49.1 24.9,57.4 C24.9,64.6 23.1,72 20.4,79.2 C20.2,79.8 20.1,80.3 20.1,80.7 C20.1,81.4 20.5,81.7 21.2,81.7 C21.8,81.7 22.3,81.3 22.7,80.6 C27.2,72.6 28.9,63.3 28.9,54.2 C28.4,41.3 21,31.8 21,31.8 C21.3,31.8 11.8,19.5 9.1,15.3 C5.4,9.6 3.7,3.9 3.5,3.5 C3.4,3.2 2.5,-0.4 2.5,-0.4 C2.4,-0.8 1.9,-1.2 1.3,-1.2 C0.6,-1.2 0,-0.6 0,0.1 L0,22.7 "/>
<path class="Hook" transform="matrix(0.992,0,0,0.992,2423.48,1235.6)" d="M0,-0.1 C0,0.6 0.6,1.2 1.3,1.2 C1.8,1.2 2.4,0.8 2.5,0.4 C2.5,0.3 3.4,-3.2 3.5,-3.5 C3.6,-3.9 4.5,-7.7 8.1,-13.6 C12,-20.1 18,-24.8 23,-31.8 C28,-38.8 30.9,-45.4 30.9,-54.2 C30.9,-63.3 28.9,-70.9 23.5,-80.6 C23.2,-81.3 22.6,-81.7 22,-81.7 C21.8,-81.7 21.6,-81.7 21.5,-81.6 C21,-81.4 20.8,-81 20.8,-80.4 C20.8,-80.1 20.9,-79.7 21.1,-79.2 C25.1,-69.9 26.7,-64.6 26.7,-57.4 C26.7,-49.1 23.8,-44.8 22,-41.7 C15.5,-30.6 5,-25.2 0.8,-23.8 C0.1,-23.6 0,-23 0,-22.7 L0,-0.1 "/>
<path class="Hook" transform="matrix(0.992,0,0,0.992,2403.54,1564.2)" d="M0,22.7 C0,23 0.1,23.6 0.8,23.8 C5.1,25.2 13.7,30.6 20.2,41.7 C22,44.8 24.9,49.1 24.9,57.4 C24.9,64.6 23.1,72 20.4,79.2 C20.2,79.8 20.1,80.3 20.1,80.7 C20.1,81.4 20.5,81.7 21.2,81.7 C21.8,81.7 22.3,81.3 22.7,80.6 C27.2,72.6 28.9,63.3 28.9,54.2 C28.4,41.3 21,31.8 21,31.8 C21.3,31.8 11.8,19.5 9.1,15.3 C5.4,9.6 3.7,3.9 3.5,3.5 C3.4,3.2 2.5,-0.4 2.5,-0.4 C2.4,-0.8 1.9,-1.2 1.3,-1.2 C0.6,-1.2 0,-0.6 0,0.1 L0,22.7 "/>
<path class="Note" transform="matrix(0.992,0,0,0.992,1844.17,1675.8)" d="M0,4.2 C0,8.5 3.1,13.3 11.2,13.3 C21.6,13.3 32.5,4.8 32.5,-4 C32.5,-9.9 27.5,-13.2 21.3,-13.2 C11.6,-13.2 0,-5 0,4.2"/>
<path class="Note" transform="matrix(0.992,0,0,0.992,445.641,708.598)" d="M21.3,-13.2 C11.6,-13.2 0,-5.1 0,4.2 C0,8.5 3.1,13.3 11.2,13.3 C21.6,13.3 32.5,4.8 32.5,-4 C32.5,-9.9 27.5,-13.2 21.3,-13.2 M7.5,8.6 C4.2,8.6 3.5,5.9 3.5,5 C3.5,0.1 20.3,-8.5 25,-8.5 C27.4,-8.5 29,-7.1 29,-4.9 C29,0.1 12.1,8.6 7.5,8.6"/>
<path class="Note" transform="matrix(0.992,0,0,0.992,1629.29,1167.4)" d="M0,4.2 C0,8.5 3.1,13.3 11.2,13.3 C21.6,13.3 32.5,4.8 32.5,-4 C32.5,-9.9 27.5,-13.2 21.3,-13.2 C11.6,-13.2 0,-5 0,4.2"/>
<path class="Note" transform="matrix(0.992,0,0,0.992,2486.09,1651)" d="M21.3,-13.2 C11.6,-13.2 0,-5.1 0,4.2 C0,8.5 3.1,13.3 11.2,13.3 C21.6,13.3 32.5,4.8 32.5,-4 C32.5,-9.9 27.5,-13.2 21.3,-13.2 M7.5,8.6 C4.2,8.6 3.5,5.9 3.5,5 C3.5,0.1 20.3,-8.5 25,-8.5 C27.4,-8.5 29,-7.1 29,-4.9 C29,0.1 12.1,8.6 7.5,8.6"/>
<path class="Note" transform="matrix(0.992,0,0,0.992,1105.58,658.998)" d="M0,4.2 C0,8.5 3.1,13.3 11.2,13.3 C21.6,13.3 32.5,4.8 32.5,-4 C32.5,-9.9 27.5,-13.2 21.3,-13.2 C11.6,-13.2 0,-5 0,4.2"/>
<path class="Note" transform="matrix(0.992,0,0,0.992,1713.46,1167.4)" d="M0,4.2 C0,8.5 3.1,13.3 11.2,13.3 C21.6,13.3 32.5,4.8 32.5,-4 C32.5,-9.9 27.5,-13.2 21.3,-13.2 C11.6,-13.2 0,-5 0,4.2"/>
<path class="Note" transform="matrix(0.992,0,0,0.992,911.895,1155)" d="M0,4.2 C0,8.5 3.1,13.3 11.2,13.3 C21.6,13.3 32.5,4.8 32.5,-4 C32.5,-9.9 27.5,-13.2 21.3,-13.2 C11.6,-13.2 0,-5 0,4.2"/>
<path class="Note" transform="matrix(0.992,0,0,0.992,1797.62,1167.4)" d="M0,4.2 C0,8.5 3.1,13.3 11.2,13.3 C21.6,13.3 32.5,4.8 32.5,-4 C32.5,-9.9 27.5,-13.2 21.3,-13.2 C11.6,-13.2 0,-5 0,4.2"/>
<path class="Note" transform="matrix(0.992,0,0,0.992,827.73,1155)" d="M0,4.2 C0,8.5 3.1,13.3 11.2,13.3 C21.6,13.3 32.5,4.8 32.5,-4 C32.5,-9.9 27.5,-13.2 21.3,-13.2 C11.6,-13.2 0,-5 0,4.2"/>
<path class="Note" transform="matrix(0.992,0,0,0.992,1881.79,1167.4)" d="M0,4.2 C0,8.5 3.1,13.3 11.2,13.3 C21.6,13.3 32.5,4.8 32.5,-4 C32.5,-9.9 27.5,-13.2 21.3,-13.2 C11.6,-13.2 0,-5 0,4.2"/>
<path class="Note" transform="matrix(0.992,0,0,0.992,1679.56,658.998)" d="M0,4.2 C0,8.5 3.1,13.3 11.2,13.3 C21.6,13.3 32.5,4.8 32.5,-4 C32.5,-9.9 27.5,-13.2 21.3,-13.2 C11.6,-13.2 0,-5 0,4.2"/>
<path class="Note" transform="matrix(0.992,0,0,0.992,2374.04,1651)" d="M0,4.2 C0,8.5 3.1,13.3 11.2,13.3 C21.6,13.3 32.5,4.8 32.5,-4 C32.5,-9.9 27.5,-13.2 21.3,-13.2 C11.6,-13.2 0,-5 0,4.2"/>
<path class="Note" transform="matrix(0.992,0,0,0.992,743.566,1155)" d="M0,4.2 C0,8.5 3.1,13.3 11.2,13.3 C21.6,13.3 32.5,4.8 32.5,-4 C32.5,-9.9 27.5,-13.2 21.3,-13.2 C11.6,-13.2 0,-5 0,4.2"/>
<path class="Note" transform="matrix(0.992,0,0,0.992,659.401,1155)" d="M0,4.2 C0,8.5 3.1,13.3 11.2,13.3 C21.6,13.3 32.5,4.8 32.5,-4 C32.5,-9.9 27.5,-13.2 21.3,-13.2 C11.6,-13.2 0,-5 0,4.2"/>
<path class="Note" transform="matrix(0.992,0,0,0.992,1965.95,1167.4)" d="M0,4.2 C0,8.5 3.1,13.3 11.2,13.3 C21.6,13.3 32.5,4.8 32.5,-4 C32.5,-9.9 27.5,-13.2 21.3,-13.2 C11.6,-13.2 0,-5 0,4.2"/>
<path class="Note" transform="matrix(0.992,0,0,0.992,575.236,1155)" d="M0,4.2 C0,8.5 3.1,13.3 11.2,13.3 C21.6,13.3 32.5,4.8 32.5,-4 C32.5,-9.9 27.5,-13.2 21.3,-13.2 C11.6,-13.2 0,-5 0,4.2"/>
<path class="Note" transform="matrix(0.992,0,0,0.992,1765.52,671.398)" d="M0,4.2 C0,8.5 3.1,13.3 11.2,13.3 C21.6,13.3 32.5,4.8 32.5,-4 C32.5,-9.9 27.5,-13.2 21.3,-13.2 C11.6,-13.2 0,-5 0,4.2"/>
<path class="Note" transform="matrix(0.992,0,0,0.992,810.986,696.198)" d="M0,4.2 C0,8.5 3.1,13.3 11.2,13.3 C21.6,13.3 32.5,4.8 32.5,-4 C32.5,-9.9 27.5,-13.2 21.3,-13.2 C11.6,-13.2 0,-5 0,4.2"/>
<path class="Note" transform="matrix(0.992,0,0,0.992,1732.13,1663.4)" d="M0,4.2 C0,8.5 3.1,13.3 11.2,13.3 C21.6,13.3 32.5,4.8 32.5,-4 C32.5,-9.9 27.5,-13.2 21.3,-13.2 C11.6,-13.2 0,-5 0,4.2"/>
<path class="Note" transform="matrix(0.992,0,0,0.992,896.95,683.798)" d="M0,4.2 C0,8.5 3.1,13.3 11.2,13.3 C21.6,13.3 32.5,4.8 32.5,-4 C32.5,-9.9 27.5,-13.2 21.3,-13.2 C11.6,-13.2 0,-5 0,4.2"/>
<path class="Note" transform="matrix(0.992,0,0,0.992,2213.07,1167.4)" d="M0,4.2 C0,8.5 3.1,13.3 11.2,13.3 C21.6,13.3 32.5,4.8 32.5,-4 C32.5,-9.9 27.5,-13.2 21.3,-13.2 C11.6,-13.2 0,-5 0,4.2"/>
<path class="Note" transform="matrix(0.992,0,0,0.992,491.071,1155)" d="M0,4.2 C0,8.5 3.1,13.3 11.2,13.3 C21.6,13.3 32.5,4.8 32.5,-4 C32.5,-9.9 27.5,-13.2 21.3,-13.2 C11.6,-13.2 0,-5 0,4.2"/>
<path class="Note" transform="matrix(0.992,0,0,0.992,2297.23,1142.6)" d="M0,4.2 C0,8.5 3.1,13.3 11.2,13.3 C21.6,13.3 32.5,4.8 32.5,-4 C32.5,-9.9 27.5,-13.2 21.3,-13.2 C11.6,-13.2 0,-5 0,4.2"/>
<path class="Note" transform="matrix(0.992,0,0,0.992,2152.36,708.598)" d="M0,4.2 C0,8.5 3.1,13.3 11.2,13.3 C21.6,13.3 32.5,4.8 32.5,-4 C32.5,-9.9 27.5,-13.2 21.3,-13.2 C11.6,-13.2 0,-5 0,4.2"/>
<path class="Note" transform="matrix(0.992,0,0,0.992,2050.12,1167.4)" d="M0,4.2 C0,8.5 3.1,13.3 11.2,13.3 C21.6,13.3 32.5,4.8 32.5,-4 C32.5,-9.9 27.5,-13.2 21.3,-13.2 C11.6,-13.2 0,-5 0,4.2"/>
<path class="Note" transform="matrix(0.992,0,0,0.992,2423.48,1155)" d="M0,4.2 C0,8.5 3.1,13.3 11.2,13.3 C21.6,13.3 32.5,4.8 32.5,-4 C32.5,-9.9 27.5,-13.2 21.3,-13.2 C11.6,-13.2 0,-5 0,4.2"/>
<path class="Note" transform="matrix(0.992,0,0,0.992,1620.08,1663.4)" d="M0,4.2 C0,8.5 3.1,13.3 11.2,13.3 C21.6,13.3 32.5,4.8 32.5,-4 C32.5,-9.9 27.5,-13.2 21.3,-13.2 C11.6,-13.2 0,-5 0,4.2"/>
<path class="Note" transform="matrix(0.992,0,0,0.992,2507.64,1167.4)" d="M0,4.2 C0,8.5 3.1,13.3 11.2,13.3 C21.6,13.3 32.5,4.8 32.5,-4 C32.5,-9.9 27.5,-13.2 21.3,-13.2 C11.6,-13.2 0,-5 0,4.2"/>
<path class="Note" transform="matrix(0.992,0,0,0.992,1019.62,658.998)" d="M0,4.2 C0,8.5 3.1,13.3 11.2,13.3 C21.6,13.3 32.5,4.8 32.5,-4 C32.5,-9.9 27.5,-13.2 21.3,-13.2 C11.6,-13.2 0,-5 0,4.2"/>
<path class="Note" transform="matrix(0.992,0,0,0.992,2633.89,1217)" d="M0,4.2 C0,8.5 3.1,13.3 11.2,13.3 C21.6,13.3 32.5,4.8 32.5,-4 C32.5,-9.9 27.5,-13.2 21.3,-13.2 C11.6,-13.2 0,-5 0,4.2"/>
<path class="Note" transform="matrix(0.992,0,0,0.992,1191.54,671.398)" d="M0,4.2 C0,8.5 3.1,13.3 11.2,13.3 C21.6,13.3 32.5,4.8 32.5,-4 C32.5,-9.9 27.5,-13.2 21.3,-13.2 C11.6,-13.2 0,-5 0,4.2"/>
<path class="Note" transform="matrix(0.992,0,0,0.992,2160.99,1675.8)" d="M0,4.2 C0,8.5 3.1,13.3 11.2,13.3 C21.6,13.3 32.5,4.8 32.5,-4 C32.5,-9.9 27.5,-13.2 21.3,-13.2 C11.6,-13.2 0,-5 0,4.2"/>
<path class="Note" transform="matrix(0.992,0,0,0.992,725.023,708.598)" d="M0,4.2 C0,8.5 3.1,13.3 11.2,13.3 C21.6,13.3 32.5,4.8 32.5,-4 C32.5,-9.9 27.5,-13.2 21.3,-13.2 C11.6,-13.2 0,-5 0,4.2"/>
<path class="Note" transform="matrix(0.992,0,0,0.992,1277.51,696.198)" d="M0,4.2 C0,8.5 3.1,13.3 11.2,13.3 C21.6,13.3 32.5,4.8 32.5,-4 C32.5,-9.9 27.5,-13.2 21.3,-13.2 C11.6,-13.2 0,-5 0,4.2"/>
<path class="Note" transform="matrix(0.992,0,0,0.992,2066.39,745.798)" d="M0,4.2 C0,8.5 3.1,13.3 11.2,13.3 C21.6,13.3 32.5,4.8 32.5,-4 C32.5,-9.9 27.5,-13.2 21.3,-13.2 C11.6,-13.2 0,-5 0,4.2"/>
<path class="Note" transform="matrix(0.992,0,0,0.992,1508.04,1651)" d="M0,4.2 C0,8.5 3.1,13.3 11.2,13.3 C21.6,13.3 32.5,4.8 32.5,-4 C32.5,-9.9 27.5,-13.2 21.3,-13.2 C11.6,-13.2 0,-5 0,4.2"/>
<path class="Note" transform="matrix(0.992,0,0,0.992,2012.24,1688.2)" d="M0,4.2 C0,8.5 3.1,13.3 11.2,13.3 C21.6,13.3 32.5,4.8 32.5,-4 C32.5,-9.9 27.5,-13.2 21.3,-13.2 C11.6,-13.2 0,-5 0,4.2"/>
<path class="Note" transform="matrix(0.992,0,0,0.992,1339.97,1638.6)" d="M0,4.2 C0,8.5 3.1,13.3 11.2,13.3 C21.6,13.3 32.5,4.8 32.5,-4 C32.5,-9.9 27.5,-13.2 21.3,-13.2 C11.6,-13.2 0,-5 0,4.2"/>
<path class="Note" transform="matrix(0.992,0,0,0.992,1363.47,696.198)" d="M21.3,-13.2 C11.6,-13.2 0,-5.1 0,4.2 C0,8.5 3.1,13.3 11.2,13.3 C21.6,13.3 32.5,4.8 32.5,-4 C32.5,-9.9 27.5,-13.2 21.3,-13.2 M7.5,8.6 C4.2,8.6 3.5,5.9 3.5,5 C3.5,0.1 20.3,-8.5 25,-8.5 C27.4,-8.5 29,-7.1 29,-4.9 C29,0.1 12.1,8.6 7.5,8.6"/>
<path class="Note" transform="matrix(0.992,0,0,0.992,518.951,1651)" d="M0,4.2 C0,8.5 3.1,13.3 11.2,13.3 C21.6,13.3 32.5,4.8 32.5,-4 C32.5,-9.9 27.5,-13.2 21.3,-13.2 C11.6,-13.2 0,-5 0,4.2"/>
<path class="Note" transform="matrix(0.992,0,0,0.992,1319.05,1167.4)" d="M21.3,-13.2 C11.6,-13.2 0,-5.1 0,4.2 C0,8.5 3.1,13.3 11.2,13.3 C21.6,13.3 32.5,4.8 32.5,-4 C32.5,-9.9 27.5,-13.2 21.3,-13.2 M7.5,8.6 C4.2,8.6 3.5,5.9 3.5,5 C3.5,0.1 20.3,-8.5 25,-8.5 C27.4,-8.5 29,-7.1 29,-4.9 C29,0.1 12.1,8.6 7.5,8.6"/>
<path class="Note" transform="matrix(0.992,0,0,0.992,2524.45,683.798)" d="M21.3,-13.2 C11.6,-13.2 0,-5.1 0,4.2 C0,8.5 3.1,13.3 11.2,13.3 C21.6,13.3 32.5,4.8 32.5,-4 C32.5,-9.9 27.5,-13.2 21.3,-13.2 M7.5,8.6 C4.2,8.6 3.5,5.9 3.5,5 C3.5,0.1 20.3,-8.5 25,-8.5 C27.4,-8.5 29,-7.1 29,-4.9 C29,0.1 12.1,8.6 7.5,8.6"/>
<path class="Note" transform="matrix(0.992,0,0,0.992,630.996,1651)" d="M0,4.2 C0,8.5 3.1,13.3 11.2,13.3 C21.6,13.3 32.5,4.8 32.5,-4 C32.5,-9.9 27.5,-13.2 21.3,-13.2 C11.6,-13.2 0,-5 0,4.2"/>
<path class="Note" transform="matrix(0.992,0,0,0.992,1851.48,696.198)" d="M0,4.2 C0,8.5 3.1,13.3 11.2,13.3 C21.6,13.3 32.5,4.8 32.5,-4 C32.5,-9.9 27.5,-13.2 21.3,-13.2 C11.6,-13.2 0,-5 0,4.2"/>
<path class="Note" transform="matrix(0.992,0,0,0.992,743.041,1651)" d="M0,4.2 C0,8.5 3.1,13.3 11.2,13.3 C21.6,13.3 32.5,4.8 32.5,-4 C32.5,-9.9 27.5,-13.2 21.3,-13.2 C11.6,-13.2 0,-5 0,4.2"/>
<path class="Note" transform="matrix(0.992,0,0,0.992,2360.99,683.798)" d="M0,4.2 C0,8.5 3.1,13.3 11.2,13.3 C21.6,13.3 32.5,4.8 32.5,-4 C32.5,-9.9 27.5,-13.2 21.3,-13.2 C11.6,-13.2 0,-5 0,4.2"/>
<path class="Note" transform="matrix(0.992,0,0,0.992,855.086,1651)" d="M0,4.2 C0,8.5 3.1,13.3 11.2,13.3 C21.6,13.3 32.5,4.8 32.5,-4 C32.5,-9.9 27.5,-13.2 21.3,-13.2 C11.6,-13.2 0,-5 0,4.2"/>
<path class="Note" transform="matrix(0.992,0,0,0.992,1937.45,696.198)" d="M0,4.2 C0,8.5 3.1,13.3 11.2,13.3 C21.6,13.3 32.5,4.8 32.5,-4 C32.5,-9.9 27.5,-13.2 21.3,-13.2 C11.6,-13.2 0,-5 0,4.2"/>
<path class="Note" transform="matrix(0.992,0,0,0.992,2275.02,708.598)" d="M0,4.2 C0,8.5 3.1,13.3 11.2,13.3 C21.6,13.3 32.5,4.8 32.5,-4 C32.5,-9.9 27.5,-13.2 21.3,-13.2 C11.6,-13.2 0,-5 0,4.2"/>
<path class="Note" transform="matrix(0.992,0,0,0.992,967.131,1651)" d="M0,4.2 C0,8.5 3.1,13.3 11.2,13.3 C21.6,13.3 32.5,4.8 32.5,-4 C32.5,-9.9 27.5,-13.2 21.3,-13.2 C11.6,-13.2 0,-5 0,4.2"/>
<path class="Note" transform="matrix(0.992,0,0,0.992,1234.89,1167.4)" d="M0,4.2 C0,8.5 3.1,13.3 11.2,13.3 C21.6,13.3 32.5,4.8 32.5,-4 C32.5,-9.9 27.5,-13.2 21.3,-13.2 C11.6,-13.2 0,-5 0,4.2"/>
<path class="Note" transform="matrix(0.992,0,0,0.992,1079.18,1651)" d="M0,4.2 C0,8.5 3.1,13.3 11.2,13.3 C21.6,13.3 32.5,4.8 32.5,-4 C32.5,-9.9 27.5,-13.2 21.3,-13.2 C11.6,-13.2 0,-5 0,4.2"/>
<path class="Note" transform="matrix(0.992,0,0,0.992,1593.59,658.998)" d="M0,4.2 C0,8.5 3.1,13.3 11.2,13.3 C21.6,13.3 32.5,4.8 32.5,-4 C32.5,-9.9 27.5,-13.2 21.3,-13.2 C11.6,-13.2 0,-5 0,4.2"/>
<path class="Note" transform="matrix(0.992,0,0,0.992,1191.22,1651)" d="M0,4.2 C0,8.5 3.1,13.3 11.2,13.3 C21.6,13.3 32.5,4.8 32.5,-4 C32.5,-9.9 27.5,-13.2 21.3,-13.2 C11.6,-13.2 0,-5 0,4.2"/>
<path class="Note" transform="matrix(0.992,0,0,0.992,1074.85,1155)" d="M0,4.2 C0,8.5 3.1,13.3 11.2,13.3 C21.6,13.3 32.5,4.8 32.5,-4 C32.5,-9.9 27.5,-13.2 21.3,-13.2 C11.6,-13.2 0,-5 0,4.2"/>
<path class="Clef" transform="matrix(0.992,0,0,0.992,232.438,1651)" d="M12.3,51.3 C12.3,57.9 17.3,66.6 30.8,66.6 C35.5,66.6 39.6,65.4 43.2,63.2 C48.6,59.4 50,52.8 50,46.5 C50,42.6 49.4,38.1 48.4,32.4 C48.1,30.4 47.5,27.4 46.9,23.5 C56.7,20.3 64,10.1 64,-0.2 C64,-15.3 53.3,-25.5 38.7,-25.5 C37.7,-31.5 36.7,-37.4 35.9,-43 C46.4,-54.1 53.7,-66.6 53.7,-82.5 C53.7,-91.6 50.9,-99 49.3,-102.6 C46.9,-107.7 44,-111.2 42.2,-111.2 C41.5,-111.2 38.4,-110 35.1,-106.1 C28.7,-98.5 26.9,-85.7 26.9,-77.3 C26.9,-71.9 27.4,-67 29.1,-55.8 C29,-55.7 23.8,-50.4 21.7,-48.7 C12.6,-40.3 0,-28.1 0,-8.1 C0,10.6 16.3,25.3 34.9,25.3 C37.8,25.3 40.5,25 42.8,24.6 C44.7,34.2 45.9,41.2 45.9,46.5 C45.9,56.9 40.5,62.4 30.4,62.4 C28,62.4 25.9,61.9 25.7,61.9 C25.6,61.8 25.4,61.7 25.4,61.6 C25.4,61.4 25.6,61.3 25.9,61.3 C30.6,60.5 35.3,56.5 35.3,50.1 C35.3,44.7 31.2,39 23.7,39 C16.7,39 12.3,44.7 12.3,51.3 M33.2,-82.2 C34.1,-86.2 38.7,-96.7 43.9,-96.7 C45.4,-96.7 47.8,-91.9 47.8,-84.9 C47.8,-74.5 40.1,-66.7 33.2,-59.9 C32.6,-63.9 32.1,-67.8 32.1,-72 C32.1,-75.7 32.4,-79.1 33.2,-82.2 M42,20.6 C40,21 38.1,21.2 36.2,21.2 C21.9,21.2 9.7,11.2 9.7,-3.9 C9.7,-16.1 18.3,-27 27.1,-34.6 C28.8,-36.1 30.4,-37.5 31.9,-39 C32.8,-33.6 33.5,-28.9 34.2,-24.8 C25.1,-22.1 18.9,-12.5 18.9,-3.1 C18.9,3.9 24.4,13.5 32.4,13.5 C33.2,13.5 34.1,13.1 34.1,12.2 C34.1,11.3 33.1,10.8 31.9,10 C28,7.6 25.8,5 25.8,0.1 C25.8,-6 30.4,-10.9 36.2,-12.3 L42,20.6 M56.2,2.1 C56.2,9.2 53.3,16.5 46.2,19.4 C44.1,7.4 41.4,-8.5 40.7,-12.9 C49.7,-12.9 56.2,-6.8 56.2,2.1"/>
<path class="Clef" transform="matrix(0.992,0,0,0.992,232.438,1179.8)" d="M12.3,51.3 C12.3,57.9 17.3,66.6 30.8,66.6 C35.5,66.6 39.6,65.4 43.2,63.2 C48.6,59.4 50,52.8 50,46.5 C50,42.6 49.4,38.1 48.4,32.4 C48.1,30.4 47.5,27.4 46.9,23.5 C56.7,20.3 64,10.1 64,-0.2 C64,-15.3 53.3,-25.5 38.7,-25.5 C37.7,-31.5 36.7,-37.4 35.9,-43 C46.4,-54.1 53.7,-66.6 53.7,-82.5 C53.7,-91.6 50.9,-99 49.3,-102.6 C46.9,-107.7 44,-111.2 42.2,-111.2 C41.5,-111.2 38.4,-110 35.1,-106.1 C28.7,-98.5 26.9,-85.7 26.9,-77.3 C26.9,-71.9 27.4,-67 29.1,-55.8 C29,-55.7 23.8,-50.4 21.7,-48.7 C12.6,-40.3 0,-28.1 0,-8.1 C0,10.6 16.3,25.3 34.9,25.3 C37.8,25.3 40.5,25 42.8,24.6 C44.7,34.2 45.9,41.2 45.9,46.5 C45.9,56.9 40.5,62.4 30.4,62.4 C28,62.4 25.9,61.9 25.7,61.9 C25.6,61.8 25.4,61.7 25.4,61.6 C25.4,61.4 25.6,61.3 25.9,61.3 C30.6,60.5 35.3,56.5 35.3,50.1 C35.3,44.7 31.2,39 23.7,39 C16.7,39 12.3,44.7 12.3,51.3 M33.2,-82.2 C34.1,-86.2 38.7,-96.7 43.9,-96.7 C45.4,-96.7 47.8,-91.9 47.8,-84.9 C47.8,-74.5 40.1,-66.7 33.2,-59.9 C32.6,-63.9 32.1,-67.8 32.1,-72 C32.1,-75.7 32.4,-79.1 33.2,-82.2 M42,20.6 C40,21 38.1,21.2 36.2,21.2 C21.9,21.2 9.7,11.2 9.7,-3.9 C9.7,-16.1 18.3,-27 27.1,-34.6 C28.8,-36.1 30.4,-37.5 31.9,-39 C32.8,-33.6 33.5,-28.9 34.2,-24.8 C25.1,-22.1 18.9,-12.5 18.9,-3.1 C18.9,3.9 24.4,13.5 32.4,13.5 C33.2,13.5 34.1,13.1 34.1,12.2 C34.1,11.3 33.1,10.8 31.9,10 C28,7.6 25.8,5 25.8,0.1 C25.8,-6 30.4,-10.9 36.2,-12.3 L42,20.6 M56.2,2.1 C56.2,9.2 53.3,16.5 46.2,19.4 C44.1,7.4 41.4,-8.5 40.7,-12.9 C49.7,-12.9 56.2,-6.8 56.2,2.1"/>
<path class="Clef" transform="matrix(0.992,0,0,0.992,232.438,708.598)" d="M12.3,51.3 C12.3,57.9 17.3,66.6 30.8,66.6 C35.5,66.6 39.6,65.4 43.2,63.2 C48.6,59.4 50,52.8 50,46.5 C50,42.6 49.4,38.1 48.4,32.4 C48.1,30.4 47.5,27.4 46.9,23.5 C56.7,20.3 64,10.1 64,-0.2 C64,-15.3 53.3,-25.5 38.7,-25.5 C37.7,-31.5 36.7,-37.4 35.9,-43 C46.4,-54.1 53.7,-66.6 53.7,-82.5 C53.7,-91.6 50.9,-99 49.3,-102.6 C46.9,-107.7 44,-111.2 42.2,-111.2 C41.5,-111.2 38.4,-110 35.1,-106.1 C28.7,-98.5 26.9,-85.7 26.9,-77.3 C26.9,-71.9 27.4,-67 29.1,-55.8 C29,-55.7 23.8,-50.4 21.7,-48.7 C12.6,-40.3 0,-28.1 0,-8.1 C0,10.6 16.3,25.3 34.9,25.3 C37.8,25.3 40.5,25 42.8,24.6 C44.7,34.2 45.9,41.2 45.9,46.5 C45.9,56.9 40.5,62.4 30.4,62.4 C28,62.4 25.9,61.9 25.7,61.9 C25.6,61.8 25.4,61.7 25.4,61.6 C25.4,61.4 25.6,61.3 25.9,61.3 C30.6,60.5 35.3,56.5 35.3,50.1 C35.3,44.7 31.2,39 23.7,39 C16.7,39 12.3,44.7 12.3,51.3 M33.2,-82.2 C34.1,-86.2 38.7,-96.7 43.9,-96.7 C45.4,-96.7 47.8,-91.9 47.8,-84.9 C47.8,-74.5 40.1,-66.7 33.2,-59.9 C32.6,-63.9 32.1,-67.8 32.1,-72 C32.1,-75.7 32.4,-79.1 33.2,-82.2 M42,20.6 C40,21 38.1,21.2 36.2,21.2 C21.9,21.2 9.7,11.2 9.7,-3.9 C9.7,-16.1 18.3,-27 27.1,-34.6 C28.8,-36.1 30.4,-37.5 31.9,-39 C32.8,-33.6 33.5,-28.9 34.2,-24.8 C25.1,-22.1 18.9,-12.5 18.9,-3.1 C18.9,3.9 24.4,13.5 32.4,13.5 C33.2,13.5 34.1,13.1 34.1,12.2 C34.1,11.3 33.1,10.8 31.9,10 C28,7.6 25.8,5 25.8,0.1 C25.8,-6 30.4,-10.9 36.2,-12.3 L42,20.6 M56.2,2.1 C56.2,9.2 53.3,16.5 46.2,19.4 C44.1,7.4 41.4,-8.5 40.7,-12.9 C49.7,-12.9 56.2,-6.8 56.2,2.1"/>
<path class="KeySig" transform="matrix(0.992,0,0,0.992,320.711,634.198)" d="M23.3,-10.5 C23.9,-10.6 24.4,-11.3 24.4,-11.9 L24.4,-17.8 C24.4,-18.8 23.7,-19.2 22.8,-19.2 L19.5,-18.5 L19.5,-33.4 L16.7,-33.4 L16.7,-17.9 L7.8,-16.1 L7.8,-30.2 L5,-30.2 L5,-15.5 L1.1,-14.7 C0.5,-14.6 0,-13.9 0,-13.3 L0,-7.5 C0,-6.4 0.8,-6.1 1.7,-6.1 L5,-6.8 L5,9.7 L1.1,10.5 C0.5,10.6 0,11.3 0,11.9 L0,17.7 C0,18.8 0.8,19.1 1.7,19.1 L5,18.4 L5,33.3 L7.8,33.3 L7.8,17.8 L16.7,16 L16.7,30.1 L19.5,30.1 L19.5,15.4 L23.3,14.7 C23.9,14.6 24.4,13.9 24.4,13.3 L24.4,7.4 C24.4,6.4 23.7,6 22.8,6 L19.5,6.7 L19.5,-9.8 L23.3,-10.5 M7.8,-7.4 L16.7,-9.2 L16.7,7.3 L7.8,9.2 L7.8,-7.4 "/>
<path class="KeySig" transform="matrix(0.992,0,0,0.992,320.711,1576.6)" d="M23.3,-10.5 C23.9,-10.6 24.4,-11.3 24.4,-11.9 L24.4,-17.8 C24.4,-18.8 23.7,-19.2 22.8,-19.2 L19.5,-18.5 L19.5,-33.4 L16.7,-33.4 L16.7,-17.9 L7.8,-16.1 L7.8,-30.2 L5,-30.2 L5,-15.5 L1.1,-14.7 C0.5,-14.6 0,-13.9 0,-13.3 L0,-7.5 C0,-6.4 0.8,-6.1 1.7,-6.1 L5,-6.8 L5,9.7 L1.1,10.5 C0.5,10.6 0,11.3 0,11.9 L0,17.7 C0,18.8 0.8,19.1 1.7,19.1 L5,18.4 L5,33.3 L7.8,33.3 L7.8,17.8 L16.7,16 L16.7,30.1 L19.5,30.1 L19.5,15.4 L23.3,14.7 C23.9,14.6 24.4,13.9 24.4,13.3 L24.4,7.4 C24.4,6.4 23.7,6 22.8,6 L19.5,6.7 L19.5,-9.8 L23.3,-10.5 M7.8,-7.4 L16.7,-9.2 L16.7,7.3 L7.8,9.2 L7.8,-7.4 "/>
<path class="KeySig" transform="matrix(0.992,0,0,0.992,320.711,1105.4)" d="M23.3,-10.5 C23.9,-10.6 24.4,-11.3 24.4,-11.9 L24.4,-17.8 C24.4,-18.8 23.7,-19.2 22.8,-19.2 L19.5,-18.5 L19.5,-33.4 L16.7,-33.4 L16.7,-17.9 L7.8,-16.1 L7.8,-30.2 L5,-30.2 L5,-15.5 L1.1,-14.7 C0.5,-14.6 0,-13.9 0,-13.3 L0,-7.5 C0,-6.4 0.8,-6.1 1.7,-6.1 L5,-6.8 L5,9.7 L1.1,10.5 C0.5,10.6 0,11.3 0,11.9 L0,17.7 C0,18.8 0.8,19.1 1.7,19.1 L5,18.4 L5,33.3 L7.8,33.3 L7.8,17.8 L16.7,16 L16.7,30.1 L19.5,30.1 L19.5,15.4 L23.3,14.7 C23.9,14.6 24.4,13.9 24.4,13.3 L24.4,7.4 C24.4,6.4 23.7,6 22.8,6 L19.5,6.7 L19.5,-9.8 L23.3,-10.5 M7.8,-7.4 L16.7,-9.2 L16.7,7.3 L7.8,9.2 L7.8,-7.4 "/>
<path class="TimeSig" transform="matrix(0.992,0,0,0.992,368.327,658.998)" d="M20.8,12.7 L20.8,20.1 L12.5,20.1 C11.8,20.1 11.1,20.7 11.1,21.5 L11.1,23.4 C11.1,24.2 11.8,24.8 12.5,24.8 L42.8,24.8 C43.6,24.8 44.2,24.2 44.2,23.4 L44.2,21.5 C44.2,20.7 43.6,20.1 42.8,20.1 L33.9,20.1 L33.9,12.7 L42.8,12.7 C43.6,12.7 44.2,12 44.2,11.2 L44.2,9.3 C44.2,8.6 43.6,7.9 42.8,7.9 L33.9,7.9 L33.9,-8 C33.9,-8.6 33.6,-9.1 33.1,-9.3 L31.9,-9.9 C31.7,-10 31.4,-10.1 31.2,-10.1 C30.9,-10 30.5,-9.9 30.3,-9.7 L21.2,-1.4 C20.9,-1.1 20.8,-0.7 20.8,-0.3 L20.8,7.9 L9.3,7.9 C9.3,7.9 20.4,-4.1 32.2,-19.9 C32.6,-20.4 32.7,-20.9 32.7,-21.3 C32.7,-21.8 32.5,-22.2 32.4,-22.3 L30.2,-24.5 C30,-24.7 29.6,-24.9 29.2,-24.9 C28.6,-24.9 15.1,-24.9 14.4,-24.9 C13.6,-24.9 13.1,-24.3 13,-23.7 C13,-23.7 12.5,-16.3 9.9,-8.2 C7.3,-0.1 4.3,4.9 1.7,8.6 C1.7,8.6 1.4,9.1 1.4,9.7 C1.4,9.9 1.4,10.1 1.5,10.3 C1.9,11 2.5,12.1 2.5,12.1 C2.5,12.1 2.7,12.7 3.6,12.7 L20.8,12.7 "/>
<path class="TimeSig" transform="matrix(0.992,0,0,0.992,368.327,708.598)" d="M20.8,12.7 L20.8,20.1 L12.5,20.1 C11.8,20.1 11.1,20.7 11.1,21.5 L11.1,23.4 C11.1,24.2 11.8,24.8 12.5,24.8 L42.8,24.8 C43.6,24.8 44.2,24.2 44.2,23.4 L44.2,21.5 C44.2,20.7 43.6,20.1 42.8,20.1 L33.9,20.1 L33.9,12.7 L42.8,12.7 C43.6,12.7 44.2,12 44.2,11.2 L44.2,9.3 C44.2,8.6 43.6,7.9 42.8,7.9 L33.9,7.9 L33.9,-8 C33.9,-8.6 33.6,-9.1 33.1,-9.3 L31.9,-9.9 C31.7,-10 31.4,-10.1 31.2,-10.1 C30.9,-10 30.5,-9.9 30.3,-9.7 L21.2,-1.4 C20.9,-1.1 20.8,-0.7 20.8,-0.3 L20.8,7.9 L9.3,7.9 C9.3,7.9 20.4,-4.1 32.2,-19.9 C32.6,-20.4 32.7,-20.9 32.7,-21.3 C32.7,-21.8 32.5,-22.2 32.4,-22.3 L30.2,-24.5 C30,-24.7 29.6,-24.9 29.2,-24.9 C28.6,-24.9 15.1,-24.9 14.4,-24.9 C13.6,-24.9 13.1,-24.3 13,-23.7 C13,-23.7 12.5,-16.3 9.9,-8.2 C7.3,-0.1 4.3,4.9 1.7,8.6 C1.7,8.6 1.4,9.1 1.4,9.7 C1.4,9.9 1.4,10.1 1.5,10.3 C1.9,11 2.5,12.1 2.5,12.1 C2.5,12.1 2.7,12.7 3.6,12.7 L20.8,12.7 "/>
<path class="Rest" transform="matrix(0.992,0,0,0.992,406.906,1626.2)" d="M26.7,-20.3 C26.6,-20.3 26.4,-20.4 26.3,-20.4 C25.7,-20.4 25.2,-20.1 25,-19.6 C22.7,-15 17.9,-8.8 12.5,-7.8 C13.6,-9.1 14.3,-10.7 14.3,-12.6 C14.3,-16.5 11.1,-19.7 7.2,-19.7 C3.2,-19.7 0,-16.5 0,-12.6 C0,-7.2 5.3,-4.7 10,-4.7 C15.3,-4.7 18.8,-7.2 22.2,-10.9 L10.8,24.7 L13.5,25.5 L27.5,-18.6 C27.6,-18.7 27.6,-18.9 27.6,-19.1 C27.6,-19.6 27.3,-20 26.7,-20.3"/>
<path class="Rest" transform="matrix(0.992,0,0,0.992,639.059,683.798)" d="M26.7,-20.3 C26.6,-20.3 26.4,-20.4 26.3,-20.4 C25.7,-20.4 25.2,-20.1 25,-19.6 C22.7,-15 17.9,-8.8 12.5,-7.8 C13.6,-9.1 14.3,-10.7 14.3,-12.6 C14.3,-16.5 11.1,-19.7 7.2,-19.7 C3.2,-19.7 0,-16.5 0,-12.6 C0,-7.2 5.3,-4.7 10,-4.7 C15.3,-4.7 18.8,-7.2 22.2,-10.9 L10.8,24.7 L13.5,25.5 L27.5,-18.6 C27.6,-18.7 27.6,-18.9 27.6,-19.1 C27.6,-19.6 27.3,-20 26.7,-20.3"/>
<path class="Rest" transform="matrix(0.992,0,0,0.992,406.906,1155)" d="M26.7,-20.3 C26.6,-20.3 26.4,-20.4 26.3,-20.4 C25.7,-20.4 25.2,-20.1 25,-19.6 C22.7,-15 17.9,-8.8 12.5,-7.8 C13.6,-9.1 14.3,-10.7 14.3,-12.6 C14.3,-16.5 11.1,-19.7 7.2,-19.7 C3.2,-19.7 0,-16.5 0,-12.6 C0,-7.2 5.3,-4.7 10,-4.7 C15.3,-4.7 18.8,-7.2 22.2,-10.9 L10.8,24.7 L13.5,25.5 L27.5,-18.6 C27.6,-18.7 27.6,-18.9 27.6,-19.1 C27.6,-19.6 27.3,-20 26.7,-20.3"/>
<path class="Rest" transform="matrix(0.992,0,0,0.992,1545.13,1155)" d="M26.7,-20.3 C26.6,-20.3 26.4,-20.4 26.3,-20.4 C25.7,-20.4 25.2,-20.1 25,-19.6 C22.7,-15 17.9,-8.8 12.5,-7.8 C13.6,-9.1 14.3,-10.7 14.3,-12.6 C14.3,-16.5 11.1,-19.7 7.2,-19.7 C3.2,-19.7 0,-16.5 0,-12.6 C0,-7.2 5.3,-4.7 10,-4.7 C15.3,-4.7 18.8,-7.2 22.2,-10.9 L10.8,24.7 L13.5,25.5 L27.5,-18.6 C27.6,-18.7 27.6,-18.9 27.6,-19.1 C27.6,-19.6 27.3,-20 26.7,-20.3"/>
<path class="Beam" fill-rule="evenodd" d="M548.448,1570.4 L775.266,1570.4 L775.266,1582.8 L548.448,1582.8 L548.448,1570.4 "/>
<path class="Beam" fill-rule="evenodd" d="M2095.89,634.183 L2184.58,627.983 L2184.58,640.414 L2095.89,646.614 L2095.89,634.183 "/>
<path class="Beam" fill-rule="evenodd" d="M1593.59,739.583 L1854.21,758.183 L1854.21,770.614 L1593.59,752.014 L1593.59,739.583 "/>
<path class="Beam" fill-rule="evenodd" d="M1537.53,1570.39 L1652.31,1576.59 L1652.31,1589.01 L1537.53,1582.81 L1537.53,1570.39 "/>
<path class="Beam" fill-rule="evenodd" d="M884.583,1570.4 L1223.45,1570.4 L1223.45,1582.8 L884.583,1582.8 L884.583,1570.4 "/>
<path class="Beam" fill-rule="evenodd" d="M754.519,615.595 L929.174,609.395 L929.174,621.802 L754.519,628.002 L754.519,615.595 "/>
<path class="Beam" fill-rule="evenodd" d="M491.071,1217 L662.129,1217 L662.129,1229.4 L491.071,1229.4 L491.071,1217 "/>
<path class="Beam" fill-rule="evenodd" d="M743.566,1217 L830.458,1217 L830.458,1229.4 L743.566,1229.4 L743.566,1217 "/>
<path class="Beam" fill-rule="evenodd" d="M1911.28,1093 L1998.17,1093 L1998.17,1105.4 L1911.28,1105.4 L1911.28,1093 "/>
<path class="Beam" fill-rule="evenodd" d="M1658.79,1093 L1829.85,1093 L1829.85,1105.4 L1658.79,1105.4 L1658.79,1093 "/>
<path class="Beam" fill-rule="evenodd" d="M1019.62,739.583 L1280.24,758.183 L1280.24,770.614 L1019.62,752.014 L1019.62,739.583 "/>
<path class="Marker" d="M2685.71,544.888 L2652.99,544.888 L2652.99,547.473 L2653.98,547.473 C2657.11,547.528 2658.16,547.693 2658.6,548.243 C2658.93,548.738 2658.93,548.848 2658.93,551.653 L2658.93,577.833 C2658.93,580.638 2658.93,580.748 2658.6,581.243 C2658.16,581.793 2657.11,582.013 2653.98,582.013 L2652.99,582.013 L2652.99,584.598 L2671.85,584.598 L2671.85,582.013 L2670.04,582.013 C2666.9,582.013 2665.86,581.793 2665.42,581.243 C2665.09,580.748 2665.09,580.583 2665.09,577.833 L2665.09,565.348 L2666.19,565.348 C2671.85,565.128 2673.89,567.163 2674.11,573.268 L2676.69,573.268 L2676.69,555.228 L2674.11,555.228 C2673.78,560.618 2671.63,562.708 2666.41,562.763 L2665.09,562.763 L2665.09,550.223 C2665.03,547.913 2665.58,547.528 2668.55,547.473 L2671.08,547.473 C2680.1,547.418 2682.36,549.453 2684.06,558.913 L2686.48,558.913 L2685.71,544.888 M2697.62,545.273 C2695.86,545.273 2694.43,546.703 2694.43,548.463 C2694.43,550.223 2695.86,551.653 2697.57,551.653 C2699.38,551.653 2700.81,550.223 2700.81,548.463 C2700.81,546.703 2699.38,545.273 2697.62,545.273 M2700.21,558.968 L2689.87,559.573 L2689.87,561.938 L2692.67,561.938 C2694.76,561.993 2695.04,562.323 2695.04,564.688 L2695.04,580.418 C2694.98,581.243 2694.93,581.573 2694.71,581.848 C2694.32,582.343 2693.28,582.563 2690.91,582.618 L2690.53,582.618 L2690.53,584.598 L2704.77,584.598 L2704.77,582.618 L2704.39,582.618 C2700.7,582.508 2700.21,582.233 2700.21,580.253 L2700.21,558.968 M2717.19,558.968 L2707.68,559.573 L2707.68,561.938 L2709.66,561.938 C2711.75,561.993 2712.02,562.323 2712.02,564.688 L2712.02,580.418 C2711.97,581.243 2711.91,581.573 2711.69,581.848 C2711.31,582.343 2710.26,582.563 2707.9,582.618 L2707.68,582.618 L2707.68,584.598 L2721.59,584.598 L2721.59,582.618 L2721.37,582.618 C2717.69,582.508 2717.19,582.233 2717.19,580.253 L2717.19,572.113 C2717.19,569.418 2717.58,566.943 2718.18,565.678 C2719.34,563.203 2721.81,561.498 2724.18,561.498 C2725.61,561.498 2727.26,562.268 2728.08,563.423 C2728.91,564.633 2729.29,566.283 2729.29,568.923 L2729.29,580.418 C2729.24,581.243 2729.18,581.573 2728.96,581.848 C2728.58,582.343 2727.48,582.563 2725.11,582.618 L2724.89,582.618 L2724.89,584.598 L2738.81,584.598 L2738.81,582.618 L2738.59,582.618 C2734.96,582.508 2734.46,582.233 2734.46,580.253 L2734.46,569.198 C2734.46,565.238 2734.3,564.248 2733.31,562.378 C2731.93,559.738 2729.18,558.143 2725.88,558.143 C2722.31,558.143 2719.61,559.793 2717.19,563.423 L2717.19,558.968 M2765.36,572.223 C2765.41,563.973 2760.74,558.143 2754.03,558.143 C2746.99,558.143 2741.71,564.248 2741.71,572.498 C2741.71,580.253 2746.71,585.423 2754.14,585.423 C2759.42,585.423 2763.1,582.838 2765.36,577.613 L2763.43,576.568 C2761.18,580.803 2758.87,582.453 2755.18,582.453 C2752.38,582.453 2750.34,581.298 2748.91,578.823 C2747.92,577.173 2747.48,575.248 2747.54,572.223 L2765.36,572.223 M2747.59,569.858 C2747.59,566.008 2749.35,560.508 2753.97,560.508 C2757.27,560.508 2759.47,563.423 2759.47,567.878 C2759.47,569.418 2758.98,569.858 2757.22,569.858 L2747.59,569.858 "/>
<path class="Jump" d="M2461.48,1527 L2479.96,1527 C2484.86,1527 2488.6,1526.23 2491.51,1524.58 C2497.07,1521.44 2500.15,1515.17 2500.15,1506.92 C2500.15,1499.33 2497.4,1493.39 2492.34,1490.09 C2489.31,1488.17 2485.24,1487.29 2478.97,1487.29 L2461.48,1487.29 L2461.48,1489.87 L2462.53,1489.87 C2465.61,1489.93 2466.65,1490.09 2467.09,1490.64 C2467.42,1491.14 2467.42,1491.25 2467.42,1494.05 L2467.42,1520.23 C2467.42,1523.04 2467.42,1523.15 2467.09,1523.64 C2466.65,1524.19 2465.61,1524.36 2462.53,1524.41 L2461.48,1524.41 L2461.48,1527 M2476.72,1524.41 C2473.91,1524.41 2473.58,1524.08 2473.58,1521.39 L2473.58,1492.95 C2473.58,1490.26 2473.97,1489.87 2476.72,1489.87 L2479.58,1489.87 C2488.98,1489.87 2492.89,1494.99 2492.89,1507.14 C2492.89,1519.46 2489.37,1524.41 2480.46,1524.41 L2476.72,1524.41 M2510.21,1520.89 C2508.28,1520.89 2506.74,1522.43 2506.74,1524.3 C2506.74,1526.23 2508.28,1527.77 2510.15,1527.77 C2512.08,1527.77 2513.62,1526.23 2513.62,1524.3 C2513.62,1522.43 2512.08,1520.89 2510.21,1520.89 M2553.1,1486.9 L2551.01,1486.9 L2548.81,1490.15 C2544.79,1487.23 2542.76,1486.46 2538.96,1486.46 C2533.74,1486.46 2529.28,1488.66 2525.6,1493.06 C2522.08,1497.24 2520.43,1501.86 2520.43,1507.53 C2520.43,1519.41 2528.18,1527.82 2539.02,1527.82 C2547.82,1527.82 2553.43,1522.65 2554.69,1513.41 L2552.11,1512.97 C2550.62,1521.17 2546.44,1525.24 2539.68,1525.24 C2531.54,1525.24 2527.69,1519.63 2527.69,1507.75 C2527.69,1501.48 2528.51,1497.35 2530.38,1494.05 C2532.09,1490.97 2535.44,1489.05 2539.02,1489.05 C2542.87,1489.05 2546.28,1491.08 2548.37,1494.6 C2549.41,1496.42 2550.18,1498.45 2551.5,1502.8 L2553.92,1502.8 L2553.1,1486.9 M2564.91,1520.89 C2562.98,1520.89 2561.44,1522.43 2561.44,1524.3 C2561.44,1526.23 2562.98,1527.77 2564.85,1527.77 C2566.78,1527.77 2568.32,1526.23 2568.32,1524.3 C2568.32,1522.43 2566.78,1520.89 2564.91,1520.89 M2612.8,1509.29 C2612.8,1505.82 2612.19,1504.06 2610.6,1502.74 C2608.78,1501.26 2606.09,1500.54 2602.57,1500.54 C2596.35,1500.54 2591.84,1503.46 2591.84,1507.47 C2591.84,1509.51 2593.11,1510.83 2595.03,1510.83 C2596.79,1510.83 2598,1509.67 2598,1508.02 C2598,1507.31 2597.73,1506.54 2597.18,1505.77 C2596.85,1505.38 2596.79,1505.27 2596.79,1505 C2596.79,1503.9 2598.99,1502.91 2601.63,1502.91 C2603.39,1502.91 2605.32,1503.46 2606.2,1504.28 C2607.24,1505.16 2607.63,1506.48 2607.63,1508.96 L2607.63,1511.1 C2601.91,1512.09 2600.09,1512.53 2597.4,1513.58 C2592.61,1515.34 2590.36,1517.87 2590.36,1521.39 C2590.36,1525.35 2593.44,1527.82 2598.33,1527.82 C2602.13,1527.82 2605.54,1526.28 2607.9,1523.48 C2608.78,1526.28 2610.16,1527.38 2612.74,1527.38 C2615.22,1527.38 2617.8,1525.79 2617.8,1524.19 C2617.8,1523.81 2617.58,1523.53 2617.25,1523.53 C2617.03,1523.53 2616.81,1523.59 2616.43,1523.75 C2615.66,1524.08 2615.33,1524.14 2614.89,1524.14 C2613.35,1524.14 2612.8,1523.15 2612.8,1520.34 L2612.8,1509.29 M2607.63,1516 C2607.63,1519.3 2607.46,1520.07 2606.53,1521.5 C2605.15,1523.53 2602.68,1524.91 2600.26,1524.91 C2597.73,1524.91 2595.91,1523.09 2595.91,1520.62 C2595.91,1518.31 2597.07,1516.66 2599.49,1515.5 C2601.19,1514.73 2603.34,1514.18 2607.63,1513.47 L2607.63,1516 M2629.73,1486.46 L2619.56,1487.07 L2619.56,1489.43 L2622.25,1489.43 C2624.29,1489.49 2624.56,1489.82 2624.56,1492.18 L2624.56,1522.82 C2624.51,1523.64 2624.45,1523.97 2624.23,1524.25 C2623.85,1524.74 2622.8,1524.96 2620.44,1525.02 L2620.05,1525.02 L2620.05,1527 L2634.3,1527 L2634.3,1525.02 L2633.91,1525.02 C2630.23,1524.91 2629.73,1524.63 2629.73,1522.65 L2629.73,1486.46 M2685.43,1487.29 L2652.7,1487.29 L2652.7,1489.87 L2653.69,1489.87 C2656.83,1489.93 2657.87,1490.09 2658.31,1490.64 C2658.64,1491.14 2658.64,1491.25 2658.64,1494.05 L2658.64,1520.23 C2658.64,1523.04 2658.64,1523.15 2658.31,1523.64 C2657.87,1524.19 2656.83,1524.41 2653.69,1524.41 L2652.7,1524.41 L2652.7,1527 L2671.57,1527 L2671.57,1524.41 L2669.75,1524.41 C2666.62,1524.41 2665.57,1524.19 2665.13,1523.64 C2664.8,1523.15 2664.8,1522.98 2664.8,1520.23 L2664.8,1507.75 L2665.9,1507.75 C2671.57,1507.53 2673.6,1509.56 2673.82,1515.67 L2676.41,1515.67 L2676.41,1497.63 L2673.82,1497.63 C2673.49,1503.02 2671.35,1505.11 2666.12,1505.16 L2664.8,1505.16 L2664.8,1492.62 C2664.75,1490.31 2665.3,1489.93 2668.27,1489.87 L2670.8,1489.87 C2679.82,1489.82 2682.07,1491.85 2683.78,1501.31 L2686.2,1501.31 L2685.43,1487.29 M2697.34,1487.67 C2695.58,1487.67 2694.15,1489.1 2694.15,1490.86 C2694.15,1492.62 2695.58,1494.05 2697.28,1494.05 C2699.1,1494.05 2700.53,1492.62 2700.53,1490.86 C2700.53,1489.1 2699.1,1487.67 2697.34,1487.67 M2699.92,1501.37 L2689.58,1501.97 L2689.58,1504.34 L2692.39,1504.34 C2694.48,1504.39 2694.75,1504.72 2694.75,1507.09 L2694.75,1522.82 C2694.7,1523.64 2694.64,1523.97 2694.42,1524.25 C2694.04,1524.74 2692.99,1524.96 2690.63,1525.02 L2690.24,1525.02 L2690.24,1527 L2704.49,1527 L2704.49,1525.02 L2704.1,1525.02 C2700.42,1524.91 2699.92,1524.63 2699.92,1522.65 L2699.92,1501.37 M2716.91,1501.37 L2707.39,1501.97 L2707.39,1504.34 L2709.37,1504.34 C2711.46,1504.39 2711.74,1504.72 2711.74,1507.09 L2711.74,1522.82 C2711.68,1523.64 2711.63,1523.97 2711.41,1524.25 C2711.02,1524.74 2709.98,1524.96 2707.61,1525.02 L2707.39,1525.02 L2707.39,1527 L2721.31,1527 L2721.31,1525.02 L2721.09,1525.02 C2717.4,1524.91 2716.91,1524.63 2716.91,1522.65 L2716.91,1514.51 C2716.91,1511.82 2717.29,1509.34 2717.9,1508.08 C2719.05,1505.6 2721.53,1503.9 2723.89,1503.9 C2725.32,1503.9 2726.97,1504.67 2727.8,1505.82 C2728.62,1507.03 2729.01,1508.68 2729.01,1511.32 L2729.01,1522.82 C2728.95,1523.64 2728.9,1523.97 2728.68,1524.25 C2728.29,1524.74 2727.19,1524.96 2724.83,1525.02 L2724.61,1525.02 L2724.61,1527 L2738.52,1527 L2738.52,1525.02 L2738.3,1525.02 C2734.67,1524.91 2734.18,1524.63 2734.18,1522.65 L2734.18,1511.6 C2734.18,1507.64 2734.01,1506.65 2733.02,1504.78 C2731.65,1502.14 2728.9,1500.54 2725.6,1500.54 C2722.02,1500.54 2719.33,1502.19 2716.91,1505.82 L2716.91,1501.37 M2765.07,1514.62 C2765.13,1506.37 2760.45,1500.54 2753.74,1500.54 C2746.7,1500.54 2741.42,1506.65 2741.42,1514.9 C2741.42,1522.65 2746.43,1527.82 2753.85,1527.82 C2759.13,1527.82 2762.82,1525.24 2765.07,1520.01 L2763.15,1518.97 C2760.89,1523.2 2758.58,1524.85 2754.9,1524.85 C2752.09,1524.85 2750.06,1523.7 2748.63,1521.22 C2747.64,1519.57 2747.2,1517.65 2747.25,1514.62 L2765.07,1514.62 M2747.31,1512.26 C2747.31,1508.41 2749.07,1502.91 2753.69,1502.91 C2756.99,1502.91 2759.19,1505.82 2759.19,1510.28 C2759.19,1511.82 2758.69,1512.26 2756.93,1512.26 L2747.31,1512.26 "/>
<path class="NoteDot" transform="matrix(0.992,0,0,0.992,2405.61,671.398)" d="M0,0 C0,2.8 2.2,5 5,5 C7.8,5 10,2.8 10,0 C10,-2.8 7.8,-5 5,-5 C2.2,-5 0,-2.8 0,0"/>
<path class="NoteDot" transform="matrix(0.992,0,0,0.992,2205.61,1663.4)" d="M0,0 C0,2.8 2.2,5 5,5 C7.8,5 10,2.8 10,0 C10,-2.8 7.8,-5 5,-5 C2.2,-5 0,-2.8 0,0"/>
<path class="NoteDot" transform="matrix(0.992,0,0,0.992,1119.47,1142.6)" d="M0,0 C0,2.8 2.2,5 5,5 C7.8,5 10,2.8 10,0 C10,-2.8 7.8,-5 5,-5 C2.2,-5 0,-2.8 0,0"/>
</svg>
