<?xml version="1.0" encoding="UTF-8" standalone="no"?>
<svg width="2977.2px" height="4208.4px" viewBox="0 0 2977.2 4208.4"
 xmlns="http://www.w3.org/2000/svg" xmlns:xlink="http://www.w3.org/1999/xlink" version="1.2" baseProfile="tiny">
<title>シャボン玉</title>
<desc>Generated by MuseScore Studio 4.4.2</desc>
<path class="" fill="#ffffff" fill-rule="evenodd" d="M0,0 L2977.2,0 L2977.2,4208.4 L0,4208.4 L0,0 "/>
<polyline class="StaffLines" fill="none" stroke="#000000" stroke-width="2.73" stroke-linejoin="bevel" points="212.598,634.198 2764.6,634.198"/>
<polyline class="StaffLines" fill="none" stroke="#000000" stroke-width="2.73" stroke-linejoin="bevel" points="212.598,658.998 2764.6,658.998"/>
<polyline class="StaffLines" fill="none" stroke="#000000" stroke-width="2.73" stroke-linejoin="bevel" points="212.598,683.798 2764.6,683.798"/>
<polyline class="StaffLines" fill="none" stroke="#000000" stroke-width="2.73" stroke-linejoin="bevel" points="212.598,708.598 2764.6,708.598"/>
<polyline class="StaffLines" fill="none" stroke="#000000" stroke-width="2.73" stroke-linejoin="bevel" points="212.598,733.398 2764.6,733.398"/>
<polyline class="StaffLines" fill="none" stroke="#000000" stroke-width="2.73" stroke-linejoin="bevel" points="212.598,1105.4 2764.6,1105.4"/>
<polyline class="StaffLines" fill="none" stroke="#000000" stroke-width="2.73" stroke-linejoin="bevel" points="212.598,1130.2 2764.6,1130.2"/>
<polyline class="StaffLines" fill="none" stroke="#000000" stroke-width="2.73" stroke-linejoin="bevel" points="212.598,1155 2764.6,1155"/>
<polyline class="StaffLines" fill="none" stroke="#000000" stroke-width="2.73" stroke-linejoin="bevel" points="212.598,1179.8 2764.6,1179.8"/>
<polyline class="StaffLines" fill="none" stroke="#000000" stroke-width="2.73" stroke-linejoin="bevel" points="212.598,1204.6 2764.6,1204.6"/>
<path class="Text" d="M1229.18,230.75 C1237.21,233.5 1248.65,239.66 1256.24,245.27 L1260.75,237.9 C1251.4,232.07 1244.25,228.44 1233.47,224.04 L1229.18,230.75 M1220.49,257.04 C1230.5,260.78 1240.51,266.28 1248.54,272.11 L1252.83,264.74 C1243.26,258.69 1235.34,254.62 1224.89,250.33 L1220.49,257.04 M1224.23,309.73 C1225.88,309.18 1226.32,308.96 1228.52,308.52 C1230.72,308.08 1232.7,307.64 1234.46,307.31 C1243.48,305.44 1254.59,301.7 1262.29,297.85 C1281.65,288.28 1295.07,273.32 1304.64,250.44 C1301.67,248.46 1300.57,247.47 1297.82,244.61 C1294.41,254.29 1290.78,261.22 1284.62,269.25 C1275.71,280.8 1265.26,288.61 1251.62,293.78 C1240.62,297.96 1229.18,300.6 1222.03,300.6 L1224.23,309.73 M1352.05,258.36 L1341.49,260.12 C1336.87,260.89 1334.78,261.11 1331.26,261.11 L1332.8,268.92 C1335.66,267.93 1337.75,267.38 1342.37,266.72 L1353.26,264.85 L1360.96,306.54 C1361.73,310.39 1361.95,312.7 1361.95,315.34 L1370.42,313.8 C1369.43,311.16 1369.43,311.16 1368.33,305.11 L1360.41,263.75 L1393.19,258.36 C1394.84,258.03 1394.84,258.03 1396.05,257.7 C1395.83,258.14 1395.72,258.36 1395.61,258.69 C1390.88,268.37 1385.38,274.2 1375.7,279.81 C1378.56,281.46 1379.55,282.23 1381.64,284.54 C1391.65,277.72 1398.25,269.8 1402.98,258.69 C1404.08,256.05 1404.52,255.28 1405.51,253.85 L1400.89,249.78 C1399.57,250.44 1398.58,250.66 1396.16,251.1 L1359.2,257.15 L1357.44,247.69 C1356.34,241.97 1356.23,241.64 1356.23,239.44 L1348.2,240.65 C1349.19,242.96 1349.19,243.18 1350.29,248.68 L1352.05,258.36 M1474.92,240.1 L1448.08,240.1 C1440.93,240.1 1438.84,239.99 1435.32,239.44 L1435.32,247.8 C1438.73,247.36 1440.93,247.25 1447.97,247.25 L1474.92,247.25 L1474.92,302.14 C1474.92,308.85 1474.7,311.16 1474.26,313.69 L1483.28,313.69 C1482.84,311.16 1482.73,308.74 1482.73,302.03 L1482.73,247.25 L1510.67,247.25 C1517.71,247.25 1519.91,247.36 1523.32,247.8 L1523.32,239.44 C1519.8,239.99 1517.6,240.1 1510.45,240.1 L1482.73,240.1 L1482.73,232.95 C1482.73,226.13 1482.84,224.15 1483.28,221.51 L1474.26,221.51 C1474.81,224.04 1474.92,226.02 1474.92,232.73 L1474.92,240.1 M1451.16,257.37 C1450.94,261 1449.62,266.17 1447.31,272.33 C1442.58,284.87 1437.63,293.12 1431.14,299.39 C1434.55,301.04 1435.87,301.81 1438.4,304.12 C1446.98,294.11 1453.69,280.8 1457.65,266.17 L1458.2,263.75 L1458.86,261.55 C1459.08,260.78 1459.08,260.78 1459.52,259.68 L1451.16,257.37 M1498.13,259.57 C1498.9,261.33 1499.89,263.75 1500.88,266.72 C1506.49,282.78 1512.32,294.44 1520.02,304.56 C1522.66,301.92 1523.87,301.04 1526.95,299.39 C1520.13,291.58 1515.07,282.78 1509.9,269.91 C1507.37,263.31 1506.38,260.23 1505.83,257.48 L1498.13,259.57 M1503.52,219.53 C1506.49,222.72 1511.33,229.98 1514.63,236.47 L1520.24,233.28 C1516.61,226.57 1513.64,222.17 1509.02,216.67 L1503.52,219.53 M1517.27,215.68 C1521.56,220.63 1526.07,227.67 1528.49,232.95 L1533.99,229.76 C1530.36,222.83 1527.61,218.76 1522.66,212.6 L1517.27,215.68 M1551.81,236.8 C1561.38,242.63 1570.07,249.78 1577.99,258.36 L1583.71,251.54 C1575.79,243.73 1568.97,238.34 1557.2,230.86 L1551.81,236.8 M1552.58,308.3 C1555.33,307.42 1556.21,307.2 1559.18,306.54 C1577.55,302.36 1588.88,297.85 1600.21,290.15 C1614.73,280.14 1624.96,267.27 1633.76,248.13 C1630.68,246.04 1629.58,245.05 1627.05,241.64 C1618.14,264.96 1603.4,281.13 1582.17,290.59 C1571.94,295.32 1558.74,298.73 1550.16,299.06 L1552.58,308.3 "/>
<path class="Text" d="M1694.48,231.3 L1694.48,259.24 L1673.91,259.24 C1668.19,259.24 1664.78,259.02 1662.14,258.58 L1662.14,266.39 C1665.33,266.06 1668.63,265.95 1673.91,265.95 L1694.48,265.95 L1694.48,302.8 L1664.45,302.8 C1658.51,302.8 1655.32,302.58 1651.69,302.14 L1651.69,310.5 C1655.54,309.95 1658.95,309.73 1664.45,309.73 L1735.95,309.73 C1741.12,309.73 1744.42,309.95 1747.94,310.5 L1747.94,302.14 C1744.31,302.69 1741.45,302.8 1736.17,302.8 L1701.96,302.8 L1701.96,265.95 L1726.05,265.95 C1731,265.95 1733.97,266.06 1737.38,266.39 L1737.38,258.58 C1734.19,259.13 1731.44,259.24 1725.94,259.24 L1701.96,259.24 L1701.96,231.3 L1731.33,231.3 C1736.72,231.3 1740.35,231.52 1744.09,231.96 L1744.09,223.71 C1740.46,224.26 1737.27,224.48 1731.22,224.48 L1668.08,224.48 C1662.14,224.48 1658.95,224.26 1655.65,223.71 L1655.65,231.96 C1659.17,231.52 1662.58,231.3 1668.08,231.3 L1694.48,231.3 M1713.07,275.63 C1720.66,283.66 1724.07,287.84 1730.56,297.52 L1736.39,292.9 C1730.56,284.65 1726.38,279.59 1718.68,271.56 L1713.07,275.63 "/>
<path class="MeasureNumber" d="M232.288,1027.64 C230.168,1027.88 227.568,1028.04 225.328,1028.04 C224.208,1028.04 222.928,1028 221.488,1027.92 C220.168,1027.84 218.848,1027.76 217.488,1027.68 L216.488,1027.64 L212.608,1036.08 L214.088,1036.56 L215.048,1034.96 C216.928,1031.84 217.808,1031.4 221.888,1031.44 L228.648,1031.44 L224.288,1037.68 C219.168,1044.88 219.168,1044.88 217.208,1048.08 C215.448,1050.92 214.728,1052.68 214.728,1054.12 C214.728,1055.52 215.608,1056.4 217.008,1056.4 C218.488,1056.4 219.248,1055.68 219.768,1053.8 C221.768,1046.28 222.968,1043.68 228.528,1034.68 L232.288,1028.84 L232.288,1027.64 "/>
<polyline class="BarLine" fill="none" stroke="#000000" stroke-width="4.46" stroke-linejoin="bevel" points="2355.42,1104.03 2355.42,1205.96"/>
<polyline class="BarLine" fill="none" stroke="#000000" stroke-width="4.46" stroke-linejoin="bevel" points="2740.42,1104.03 2740.42,1205.96"/>
<polyline class="BarLine" fill="none" stroke="#000000" stroke-width="13.64" stroke-linejoin="bevel" points="2757.78,1104.03 2757.78,1205.96"/>
<polyline class="BarLine" fill="none" stroke="#000000" stroke-width="4.46" stroke-linejoin="bevel" points="2762.37,632.834 2762.37,734.762"/>
<polyline class="BarLine" fill="none" stroke="#000000" stroke-width="4.46" stroke-linejoin="bevel" points="1232.23,632.834 1232.23,734.762"/>
<path class="BarLine" transform="matrix(0.992,0,0,0.992,1167.37,1142.6)" d="M10.4,0 C10.4,-2.9 8.1,-5.3 5.2,-5.3 C2.3,-5.3 0,-2.9 0,0 C0,2.9 2.3,5.3 5.2,5.3 C8.1,5.3 10.4,2.9 10.4,0"/>
<path class="BarLine" transform="matrix(0.992,0,0,0.992,1167.37,1167.4)" d="M10.4,0 C10.4,-2.9 8.1,-5.3 5.2,-5.3 C2.3,-5.3 0,-2.9 0,0 C0,2.9 2.3,5.3 5.2,5.3 C8.1,5.3 10.4,2.9 10.4,0"/>
<polyline class="BarLine" fill="none" stroke="#000000" stroke-width="4.46" stroke-linejoin="bevel" points="1189.92,1104.03 1189.92,1205.96"/>
<polyline class="BarLine" fill="none" stroke="#000000" stroke-width="13.64" stroke-linejoin="bevel" points="1207.28,1104.03 1207.28,1205.96"/>
<polyline class="BarLine" fill="none" stroke="#000000" stroke-width="4.46" stroke-linejoin="bevel" points="849.695,632.834 849.695,734.762"/>
<polyline class="BarLine" fill="none" stroke="#000000" stroke-width="4.46" stroke-linejoin="bevel" points="784.603,1104.03 784.603,1205.96"/>
<polyline class="BarLine" fill="none" stroke="#000000" stroke-width="4.46" stroke-linejoin="bevel" points="1614.76,632.834 1614.76,734.762"/>
<polyline class="BarLine" fill="none" stroke="#000000" stroke-width="4.46" stroke-linejoin="bevel" points="1997.3,632.834 1997.3,734.762"/>
<polyline class="BarLine" fill="none" stroke="#000000" stroke-width="4.46" stroke-linejoin="bevel" points="1591.15,1104.03 1591.15,1205.96"/>
<polyline class="BarLine" fill="none" stroke="#000000" stroke-width="4.46" stroke-linejoin="bevel" points="1976.15,1104.03 1976.15,1205.96"/>
<polyline class="BarLine" fill="none" stroke="#000000" stroke-width="4.46" stroke-linejoin="bevel" points="2379.83,632.834 2379.83,734.762"/>
<polyline class="LedgerLine" fill="none" stroke="#000000" stroke-width="3.97" stroke-linejoin="bevel" points="464.132,782.998 513.717,782.998"/>
<polyline class="LedgerLine" fill="none" stroke="#000000" stroke-width="3.97" stroke-linejoin="bevel" points="464.132,758.198 513.717,758.198"/>
<polyline class="Stem" fill="none" stroke="#000000" stroke-width="2.73" stroke-linejoin="bevel" points="1247.71,1134.36 1247.71,1204.6"/>
<polyline class="Stem" fill="none" stroke="#000000" stroke-width="2.73" stroke-linejoin="bevel" points="1714.06,1159.16 1714.06,1223.1"/>
<polyline class="Stem" fill="none" stroke="#000000" stroke-width="2.73" stroke-linejoin="bevel" points="1358.09,1134.36 1358.09,1204.6"/>
<polyline class="Stem" fill="none" stroke="#000000" stroke-width="2.73" stroke-linejoin="bevel" points="2322.01,741.83 2322.01,665.104"/>
<polyline class="Stem" fill="none" stroke="#000000" stroke-width="2.73" stroke-linejoin="bevel" points="1087.94,692.23 1087.94,615.797"/>
<polyline class="Stem" fill="none" stroke="#000000" stroke-width="2.73" stroke-linejoin="bevel" points="1024.08,1213.03 1024.08,1130.4"/>
<polyline class="Stem" fill="none" stroke="#000000" stroke-width="2.73" stroke-linejoin="bevel" points="2420.76,1188.23 2420.76,1124.09"/>
<polyline class="Stem" fill="none" stroke="#000000" stroke-width="2.73" stroke-linejoin="bevel" points="1830.63,1163.43 1830.63,1087"/>
<polyline class="Stem" fill="none" stroke="#000000" stroke-width="2.73" stroke-linejoin="bevel" points="1416.13,1134.36 1416.13,1204.6"/>
<polyline class="Stem" fill="none" stroke="#000000" stroke-width="2.73" stroke-linejoin="bevel" points="915.027,717.03 915.027,640.209"/>
<polyline class="Stem" fill="none" stroke="#000000" stroke-width="2.73" stroke-linejoin="bevel" points="1297.56,679.83 1297.56,615.693"/>
<polyline class="Stem" fill="none" stroke="#000000" stroke-width="2.73" stroke-linejoin="bevel" points="937.008,1200.63 937.008,1130.1"/>
<polyline class="Stem" fill="none" stroke="#000000" stroke-width="2.73" stroke-linejoin="bevel" points="1503.21,1134.36 1503.21,1204.6"/>
<polyline class="Stem" fill="none" stroke="#000000" stroke-width="2.73" stroke-linejoin="bevel" points="2296.98,1163.43 2296.98,1099.39"/>
<polyline class="Stem" fill="none" stroke="#000000" stroke-width="2.73" stroke-linejoin="bevel" points="1384.02,704.63 1384.02,621.704"/>
<polyline class="Stem" fill="none" stroke="#000000" stroke-width="2.73" stroke-linejoin="bevel" points="849.935,1188.23 849.935,1124.09"/>
<polyline class="Stem" fill="none" stroke="#000000" stroke-width="2.73" stroke-linejoin="bevel" points="1440.98,663.165 1440.98,745.893"/>
<polyline class="Stem" fill="none" stroke="#000000" stroke-width="2.73" stroke-linejoin="bevel" points="503.673,779.03 503.673,665.141"/>
<polyline class="Stem" fill="none" stroke="#000000" stroke-width="2.73" stroke-linejoin="bevel" points="726.158,1213.03 726.158,1111.41"/>
<polyline class="Stem" fill="none" stroke="#000000" stroke-width="2.73" stroke-linejoin="bevel" points="2209.91,1188.23 2209.91,1111.41"/>
<polyline class="Stem" fill="none" stroke="#000000" stroke-width="2.73" stroke-linejoin="bevel" points="1527.44,687.965 1527.44,751.904"/>
<polyline class="Stem" fill="none" stroke="#000000" stroke-width="2.73" stroke-linejoin="bevel" points="639.085,1163.43 639.085,1099.39"/>
<polyline class="Stem" fill="none" stroke="#000000" stroke-width="2.73" stroke-linejoin="bevel" points="522.515,1159.16 522.515,1223.2"/>
<polyline class="Stem" fill="none" stroke="#000000" stroke-width="2.73" stroke-linejoin="bevel" points="791.865,729.43 791.865,659.093"/>
<polyline class="Stem" fill="none" stroke="#000000" stroke-width="2.73" stroke-linejoin="bevel" points="1680.1,692.23 1680.1,621.704"/>
<polyline class="Stem" fill="none" stroke="#000000" stroke-width="2.73" stroke-linejoin="bevel" points="1626.99,1134.36 1626.99,1217.09"/>
<polyline class="Stem" fill="none" stroke="#000000" stroke-width="2.73" stroke-linejoin="bevel" points="435.442,1159.16 435.442,1223.2"/>
<polyline class="Stem" fill="none" stroke="#000000" stroke-width="2.73" stroke-linejoin="bevel" points="2151.86,1200.63 2151.86,1130.27"/>
<polyline class="Stem" fill="none" stroke="#000000" stroke-width="2.73" stroke-linejoin="bevel" points="1766.55,679.83 1766.55,615.693"/>
<polyline class="Stem" fill="none" stroke="#000000" stroke-width="2.73" stroke-linejoin="bevel" points="2594.9,1213.03 2594.9,1130.4"/>
<polyline class="Stem" fill="none" stroke="#000000" stroke-width="2.73" stroke-linejoin="bevel" points="647.769,741.83 647.769,659.056"/>
<polyline class="Stem" fill="none" stroke="#000000" stroke-width="2.73" stroke-linejoin="bevel" points="1853.01,692.23 1853.01,615.797"/>
<polyline class="Stem" fill="none" stroke="#000000" stroke-width="2.73" stroke-linejoin="bevel" points="2445.17,729.43 2445.17,640.209"/>
<polyline class="Stem" fill="none" stroke="#000000" stroke-width="2.73" stroke-linejoin="bevel" points="590.131,741.83 590.131,661.49"/>
<polyline class="Stem" fill="none" stroke="#000000" stroke-width="2.73" stroke-linejoin="bevel" points="2041.48,1213.03 2041.48,1136.32"/>
<polyline class="Stem" fill="none" stroke="#000000" stroke-width="2.73" stroke-linejoin="bevel" points="2507.83,1200.63 2507.83,1130.1"/>
<polyline class="Stem" fill="none" stroke="#000000" stroke-width="2.73" stroke-linejoin="bevel" points="2618.08,692.23 2618.08,615.797"/>
<polyline class="Stem" fill="none" stroke="#000000" stroke-width="2.73" stroke-linejoin="bevel" points="2062.63,717.03 2062.63,640.398"/>
<polyline class="Stem" fill="none" stroke="#000000" stroke-width="2.73" stroke-linejoin="bevel" points="2235.55,729.43 2235.55,659.093"/>
<polyline class="Stem" fill="none" stroke="#000000" stroke-width="2.73" stroke-linejoin="bevel" points="2531.62,692.23 2531.62,628.188"/>
<polyline class="Stem" fill="none" stroke="#000000" stroke-width="2.73" stroke-linejoin="bevel" points="705.408,741.83 705.408,665.104"/>
<polyline class="Stem" fill="none" stroke="#000000" stroke-width="2.73" stroke-linejoin="bevel" points="2149.09,717.03 2149.09,640.398"/>
<polyline class="Stem" fill="none" stroke="#000000" stroke-width="2.73" stroke-linejoin="bevel" points="1001.48,692.23 1001.48,628.188"/>
<path class="Hook" transform="matrix(0.992,0,0,0.992,2616.72,615.598)" d="M0,22.7 C0,23 0.1,23.6 0.8,23.8 C5.1,25.2 13.7,30.6 20.2,41.7 C22,44.8 24.9,49.1 24.9,57.4 C24.9,64.6 23.1,72 20.4,79.2 C20.2,79.8 20.1,80.3 20.1,80.7 C20.1,81.4 20.5,81.7 21.2,81.7 C21.8,81.7 22.3,81.3 22.7,80.6 C27.2,72.6 28.9,63.3 28.9,54.2 C28.4,41.3 21,31.8 21,31.8 C21.3,31.8 11.8,19.5 9.1,15.3 C5.4,9.6 3.7,3.9 3.5,3.5 C3.4,3.2 2.5,-0.4 2.5,-0.4 C2.4,-0.8 1.9,-1.2 1.3,-1.2 C0.6,-1.2 0,-0.6 0,0.1 L0,22.7 "/>
<path class="Hook" transform="matrix(0.992,0,0,0.992,2593.54,1130.2)" d="M0,22.7 C0,23 0.1,23.6 0.8,23.8 C5.1,25.2 13.7,30.6 20.2,41.7 C22,44.8 24.9,49.1 24.9,57.4 C24.9,64.6 23.1,72 20.4,79.2 C20.2,79.8 20.1,80.3 20.1,80.7 C20.1,81.4 20.5,81.7 21.2,81.7 C21.8,81.7 22.3,81.3 22.7,80.6 C27.2,72.6 28.9,63.3 28.9,54.2 C28.4,41.3 21,31.8 21,31.8 C21.3,31.8 11.8,19.5 9.1,15.3 C5.4,9.6 3.7,3.9 3.5,3.5 C3.4,3.2 2.5,-0.4 2.5,-0.4 C2.4,-0.8 1.9,-1.2 1.3,-1.2 C0.6,-1.2 0,-0.6 0,0.1 L0,22.7 "/>
<path class="Hook" transform="matrix(0.992,0,0,0.992,1851.65,615.598)" d="M0,22.7 C0,23 0.1,23.6 0.8,23.8 C5.1,25.2 13.7,30.6 20.2,41.7 C22,44.8 24.9,49.1 24.9,57.4 C24.9,64.6 23.1,72 20.4,79.2 C20.2,79.8 20.1,80.3 20.1,80.7 C20.1,81.4 20.5,81.7 21.2,81.7 C21.8,81.7 22.3,81.3 22.7,80.6 C27.2,72.6 28.9,63.3 28.9,54.2 C28.4,41.3 21,31.8 21,31.8 C21.3,31.8 11.8,19.5 9.1,15.3 C5.4,9.6 3.7,3.9 3.5,3.5 C3.4,3.2 2.5,-0.4 2.5,-0.4 C2.4,-0.8 1.9,-1.2 1.3,-1.2 C0.6,-1.2 0,-0.6 0,0.1 L0,22.7 "/>
<path class="Hook" transform="matrix(0.992,0,0,0.992,1022.72,1130.2)" d="M0,22.7 C0,23 0.1,23.6 0.8,23.8 C5.1,25.2 13.7,30.6 20.2,41.7 C22,44.8 24.9,49.1 24.9,57.4 C24.9,64.6 23.1,72 20.4,79.2 C20.2,79.8 20.1,80.3 20.1,80.7 C20.1,81.4 20.5,81.7 21.2,81.7 C21.8,81.7 22.3,81.3 22.7,80.6 C27.2,72.6 28.9,63.3 28.9,54.2 C28.4,41.3 21,31.8 21,31.8 C21.3,31.8 11.8,19.5 9.1,15.3 C5.4,9.6 3.7,3.9 3.5,3.5 C3.4,3.2 2.5,-0.4 2.5,-0.4 C2.4,-0.8 1.9,-1.2 1.3,-1.2 C0.6,-1.2 0,-0.6 0,0.1 L0,22.7 "/>
<path class="Hook" transform="matrix(0.992,0,0,0.992,1086.58,615.598)" d="M0,22.7 C0,23 0.1,23.6 0.8,23.8 C5.1,25.2 13.7,30.6 20.2,41.7 C22,44.8 24.9,49.1 24.9,57.4 C24.9,64.6 23.1,72 20.4,79.2 C20.2,79.8 20.1,80.3 20.1,80.7 C20.1,81.4 20.5,81.7 21.2,81.7 C21.8,81.7 22.3,81.3 22.7,80.6 C27.2,72.6 28.9,63.3 28.9,54.2 C28.4,41.3 21,31.8 21,31.8 C21.3,31.8 11.8,19.5 9.1,15.3 C5.4,9.6 3.7,3.9 3.5,3.5 C3.4,3.2 2.5,-0.4 2.5,-0.4 C2.4,-0.8 1.9,-1.2 1.3,-1.2 C0.6,-1.2 0,-0.6 0,0.1 L0,22.7 "/>
<path class="Hook" transform="matrix(0.992,0,0,0.992,1829.26,1086.8)" d="M0,22.7 C0,23 0.1,23.6 0.8,23.8 C5.1,25.2 13.7,30.6 20.2,41.7 C22,44.8 24.9,49.1 24.9,57.4 C24.9,64.6 23.1,72 20.4,79.2 C20.2,79.8 20.1,80.3 20.1,80.7 C20.1,81.4 20.5,81.7 21.2,81.7 C21.8,81.7 22.3,81.3 22.7,80.6 C27.2,72.6 28.9,63.3 28.9,54.2 C28.4,41.3 21,31.8 21,31.8 C21.3,31.8 11.8,19.5 9.1,15.3 C5.4,9.6 3.7,3.9 3.5,3.5 C3.4,3.2 2.5,-0.4 2.5,-0.4 C2.4,-0.8 1.9,-1.2 1.3,-1.2 C0.6,-1.2 0,-0.6 0,0.1 L0,22.7 "/>
<path class="Note" transform="matrix(0.992,0,0,0.992,616.909,745.798)" d="M0,4.2 C0,8.5 3.1,13.3 11.2,13.3 C21.6,13.3 32.5,4.8 32.5,-4 C32.5,-9.9 27.5,-13.2 21.3,-13.2 C11.6,-13.2 0,-5 0,4.2"/>
<path class="Note" transform="matrix(0.992,0,0,0.992,993.221,1217)" d="M0,4.2 C0,8.5 3.1,13.3 11.2,13.3 C21.6,13.3 32.5,4.8 32.5,-4 C32.5,-9.9 27.5,-13.2 21.3,-13.2 C11.6,-13.2 0,-5 0,4.2"/>
<path class="Note" transform="matrix(0.992,0,0,0.992,1799.77,1167.4)" d="M0,4.2 C0,8.5 3.1,13.3 11.2,13.3 C21.6,13.3 32.5,4.8 32.5,-4 C32.5,-9.9 27.5,-13.2 21.3,-13.2 C11.6,-13.2 0,-5 0,4.2"/>
<path class="Note" transform="matrix(0.992,0,0,0.992,2204.69,733.398)" d="M0,4.2 C0,8.5 3.1,13.3 11.2,13.3 C21.6,13.3 32.5,4.8 32.5,-4 C32.5,-9.9 27.5,-13.2 21.3,-13.2 C11.6,-13.2 0,-5 0,4.2"/>
<path class="Note" transform="matrix(0.992,0,0,0.992,2414.31,733.398)" d="M0,4.2 C0,8.5 3.1,13.3 11.2,13.3 C21.6,13.3 32.5,4.8 32.5,-4 C32.5,-9.9 27.5,-13.2 21.3,-13.2 C11.6,-13.2 0,-5 0,4.2"/>
<path class="Note" transform="matrix(0.992,0,0,0.992,1712.69,1155)" d="M0,4.2 C0,8.5 3.1,13.3 11.2,13.3 C21.6,13.3 32.5,4.8 32.5,-4 C32.5,-9.9 27.5,-13.2 21.3,-13.2 C11.6,-13.2 0,-5 0,4.2"/>
<path class="Note" transform="matrix(0.992,0,0,0.992,2118.23,720.998)" d="M0,4.2 C0,8.5 3.1,13.3 11.2,13.3 C21.6,13.3 32.5,4.8 32.5,-4 C32.5,-9.9 27.5,-13.2 21.3,-13.2 C11.6,-13.2 0,-5 0,4.2"/>
<path class="Note" transform="matrix(0.992,0,0,0.992,674.547,745.798)" d="M0,4.2 C0,8.5 3.1,13.3 11.2,13.3 C21.6,13.3 32.5,4.8 32.5,-4 C32.5,-9.9 27.5,-13.2 21.3,-13.2 C11.6,-13.2 0,-5 0,4.2"/>
<path class="Note" transform="matrix(0.992,0,0,0.992,2500.76,696.198)" d="M0,4.2 C0,8.5 3.1,13.3 11.2,13.3 C21.6,13.3 32.5,4.8 32.5,-4 C32.5,-9.9 27.5,-13.2 21.3,-13.2 C11.6,-13.2 0,-5 0,4.2"/>
<path class="Note" transform="matrix(0.992,0,0,0.992,2031.77,720.998)" d="M0,4.2 C0,8.5 3.1,13.3 11.2,13.3 C21.6,13.3 32.5,4.8 32.5,-4 C32.5,-9.9 27.5,-13.2 21.3,-13.2 C11.6,-13.2 0,-5 0,4.2"/>
<path class="Note" transform="matrix(0.992,0,0,0.992,2476.97,1204.6)" d="M0,4.2 C0,8.5 3.1,13.3 11.2,13.3 C21.6,13.3 32.5,4.8 32.5,-4 C32.5,-9.9 27.5,-13.2 21.3,-13.2 C11.6,-13.2 0,-5 0,4.2"/>
<path class="Note" transform="matrix(0.992,0,0,0.992,2587.22,696.198)" d="M0,4.2 C0,8.5 3.1,13.3 11.2,13.3 C21.6,13.3 32.5,4.8 32.5,-4 C32.5,-9.9 27.5,-13.2 21.3,-13.2 C11.6,-13.2 0,-5 0,4.2"/>
<path class="Note" transform="matrix(0.992,0,0,0.992,559.27,745.798)" d="M0,4.2 C0,8.5 3.1,13.3 11.2,13.3 C21.6,13.3 32.5,4.8 32.5,-4 C32.5,-9.9 27.5,-13.2 21.3,-13.2 C11.6,-13.2 0,-5 0,4.2"/>
<path class="Note" transform="matrix(0.992,0,0,0.992,2010.62,1217)" d="M0,4.2 C0,8.5 3.1,13.3 11.2,13.3 C21.6,13.3 32.5,4.8 32.5,-4 C32.5,-9.9 27.5,-13.2 21.3,-13.2 C11.6,-13.2 0,-5 0,4.2"/>
<path class="Note" transform="matrix(0.992,0,0,0.992,1625.62,1130.2)" d="M0,4.2 C0,8.5 3.1,13.3 11.2,13.3 C21.6,13.3 32.5,4.8 32.5,-4 C32.5,-9.9 27.5,-13.2 21.3,-13.2 C11.6,-13.2 0,-5 0,4.2"/>
<path class="Note" transform="matrix(0.992,0,0,0.992,1822.15,696.198)" d="M0,4.2 C0,8.5 3.1,13.3 11.2,13.3 C21.6,13.3 32.5,4.8 32.5,-4 C32.5,-9.9 27.5,-13.2 21.3,-13.2 C11.6,-13.2 0,-5 0,4.2"/>
<path class="Note" transform="matrix(0.992,0,0,0.992,1735.69,683.798)" d="M0,4.2 C0,8.5 3.1,13.3 11.2,13.3 C21.6,13.3 32.5,4.8 32.5,-4 C32.5,-9.9 27.5,-13.2 21.3,-13.2 C11.6,-13.2 0,-5 0,4.2"/>
<path class="Note" transform="matrix(0.992,0,0,0.992,1246.34,1130.2)" d="M0,4.2 C0,8.5 3.1,13.3 11.2,13.3 C21.6,13.3 32.5,4.8 32.5,-4 C32.5,-9.9 27.5,-13.2 21.3,-13.2 C11.6,-13.2 0,-5 0,4.2"/>
<path class="Note" transform="matrix(0.992,0,0,0.992,970.624,696.198)" d="M0,4.2 C0,8.5 3.1,13.3 11.2,13.3 C21.6,13.3 32.5,4.8 32.5,-4 C32.5,-9.9 27.5,-13.2 21.3,-13.2 C11.6,-13.2 0,-5 0,4.2"/>
<path class="Note" transform="matrix(0.992,0,0,0.992,2121,1204.6)" d="M0,4.2 C0,8.5 3.1,13.3 11.2,13.3 C21.6,13.3 32.5,4.8 32.5,-4 C32.5,-9.9 27.5,-13.2 21.3,-13.2 C11.6,-13.2 0,-5 0,4.2"/>
<path class="Note" transform="matrix(0.992,0,0,0.992,434.078,1155)" d="M0,4.2 C0,8.5 3.1,13.3 11.2,13.3 C21.6,13.3 32.5,4.8 32.5,-4 C32.5,-9.9 27.5,-13.2 21.3,-13.2 C11.6,-13.2 0,-5 0,4.2"/>
<path class="Note" transform="matrix(0.992,0,0,0.992,1649.24,696.198)" d="M0,4.2 C0,8.5 3.1,13.3 11.2,13.3 C21.6,13.3 32.5,4.8 32.5,-4 C32.5,-9.9 27.5,-13.2 21.3,-13.2 C11.6,-13.2 0,-5 0,4.2"/>
<path class="Note" transform="matrix(0.992,0,0,0.992,2564.04,1217)" d="M0,4.2 C0,8.5 3.1,13.3 11.2,13.3 C21.6,13.3 32.5,4.8 32.5,-4 C32.5,-9.9 27.5,-13.2 21.3,-13.2 C11.6,-13.2 0,-5 0,4.2"/>
<path class="Note" transform="matrix(0.992,0,0,0.992,761.005,733.398)" d="M0,4.2 C0,8.5 3.1,13.3 11.2,13.3 C21.6,13.3 32.5,4.8 32.5,-4 C32.5,-9.9 27.5,-13.2 21.3,-13.2 C11.6,-13.2 0,-5 0,4.2"/>
<path class="Note" transform="matrix(0.992,0,0,0.992,521.151,1155)" d="M0,4.2 C0,8.5 3.1,13.3 11.2,13.3 C21.6,13.3 32.5,4.8 32.5,-4 C32.5,-9.9 27.5,-13.2 21.3,-13.2 C11.6,-13.2 0,-5 0,4.2"/>
<path class="Note" transform="matrix(0.992,0,0,0.992,1526.07,683.798)" d="M0,4.2 C0,8.5 3.1,13.3 11.2,13.3 C21.6,13.3 32.5,4.8 32.5,-4 C32.5,-9.9 27.5,-13.2 21.3,-13.2 C11.6,-13.2 0,-5 0,4.2"/>
<path class="Note" transform="matrix(0.992,0,0,0.992,608.224,1167.4)" d="M0,4.2 C0,8.5 3.1,13.3 11.2,13.3 C21.6,13.3 32.5,4.8 32.5,-4 C32.5,-9.9 27.5,-13.2 21.3,-13.2 C11.6,-13.2 0,-5 0,4.2"/>
<path class="Note" transform="matrix(0.992,0,0,0.992,472.812,782.998)" d="M0,4.2 C0,8.5 3.1,13.3 11.2,13.3 C21.6,13.3 32.5,4.8 32.5,-4 C32.5,-9.9 27.5,-13.2 21.3,-13.2 C11.6,-13.2 0,-5 0,4.2"/>
<path class="Note" transform="matrix(0.992,0,0,0.992,1501.84,1130.2)" d="M0,4.2 C0,8.5 3.1,13.3 11.2,13.3 C21.6,13.3 32.5,4.8 32.5,-4 C32.5,-9.9 27.5,-13.2 21.3,-13.2 C11.6,-13.2 0,-5 0,4.2"/>
<path class="Note" transform="matrix(0.992,0,0,0.992,2179.05,1192.2)" d="M0,4.2 C0,8.5 3.1,13.3 11.2,13.3 C21.6,13.3 32.5,4.8 32.5,-4 C32.5,-9.9 27.5,-13.2 21.3,-13.2 C11.6,-13.2 0,-5 0,4.2"/>
<path class="Note" transform="matrix(0.992,0,0,0.992,695.297,1217)" d="M0,4.2 C0,8.5 3.1,13.3 11.2,13.3 C21.6,13.3 32.5,4.8 32.5,-4 C32.5,-9.9 27.5,-13.2 21.3,-13.2 C11.6,-13.2 0,-5 0,4.2"/>
<path class="Note" transform="matrix(0.992,0,0,0.992,1439.62,658.998)" d="M0,4.2 C0,8.5 3.1,13.3 11.2,13.3 C21.6,13.3 32.5,4.8 32.5,-4 C32.5,-9.9 27.5,-13.2 21.3,-13.2 C11.6,-13.2 0,-5 0,4.2"/>
<path class="Note" transform="matrix(0.992,0,0,0.992,1356.72,1130.2)" d="M0,4.2 C0,8.5 3.1,13.3 11.2,13.3 C21.6,13.3 32.5,4.8 32.5,-4 C32.5,-9.9 27.5,-13.2 21.3,-13.2 C11.6,-13.2 0,-5 0,4.2"/>
<path class="Note" transform="matrix(0.992,0,0,0.992,1353.16,708.598)" d="M0,4.2 C0,8.5 3.1,13.3 11.2,13.3 C21.6,13.3 32.5,4.8 32.5,-4 C32.5,-9.9 27.5,-13.2 21.3,-13.2 C11.6,-13.2 0,-5 0,4.2"/>
<path class="Note" transform="matrix(0.992,0,0,0.992,819.075,1192.2)" d="M0,4.2 C0,8.5 3.1,13.3 11.2,13.3 C21.6,13.3 32.5,4.8 32.5,-4 C32.5,-9.9 27.5,-13.2 21.3,-13.2 C11.6,-13.2 0,-5 0,4.2"/>
<path class="Note" transform="matrix(0.992,0,0,0.992,2266.12,1167.4)" d="M0,4.2 C0,8.5 3.1,13.3 11.2,13.3 C21.6,13.3 32.5,4.8 32.5,-4 C32.5,-9.9 27.5,-13.2 21.3,-13.2 C11.6,-13.2 0,-5 0,4.2"/>
<path class="Note" transform="matrix(0.992,0,0,0.992,1414.77,1130.2)" d="M0,4.2 C0,8.5 3.1,13.3 11.2,13.3 C21.6,13.3 32.5,4.8 32.5,-4 C32.5,-9.9 27.5,-13.2 21.3,-13.2 C11.6,-13.2 0,-5 0,4.2"/>
<path class="Note" transform="matrix(0.992,0,0,0.992,1266.7,683.798)" d="M0,4.2 C0,8.5 3.1,13.3 11.2,13.3 C21.6,13.3 32.5,4.8 32.5,-4 C32.5,-9.9 27.5,-13.2 21.3,-13.2 C11.6,-13.2 0,-5 0,4.2"/>
<path class="Note" transform="matrix(0.992,0,0,0.992,906.148,1204.6)" d="M0,4.2 C0,8.5 3.1,13.3 11.2,13.3 C21.6,13.3 32.5,4.8 32.5,-4 C32.5,-9.9 27.5,-13.2 21.3,-13.2 C11.6,-13.2 0,-5 0,4.2"/>
<path class="Note" transform="matrix(0.992,0,0,0.992,884.167,720.998)" d="M0,4.2 C0,8.5 3.1,13.3 11.2,13.3 C21.6,13.3 32.5,4.8 32.5,-4 C32.5,-9.9 27.5,-13.2 21.3,-13.2 C11.6,-13.2 0,-5 0,4.2"/>
<path class="Note" transform="matrix(0.992,0,0,0.992,2389.9,1192.2)" d="M0,4.2 C0,8.5 3.1,13.3 11.2,13.3 C21.6,13.3 32.5,4.8 32.5,-4 C32.5,-9.9 27.5,-13.2 21.3,-13.2 C11.6,-13.2 0,-5 0,4.2"/>
<path class="Note" transform="matrix(0.992,0,0,0.992,1057.08,696.198)" d="M0,4.2 C0,8.5 3.1,13.3 11.2,13.3 C21.6,13.3 32.5,4.8 32.5,-4 C32.5,-9.9 27.5,-13.2 21.3,-13.2 C11.6,-13.2 0,-5 0,4.2"/>
<path class="Note" transform="matrix(0.992,0,0,0.992,2291.14,745.798)" d="M0,4.2 C0,8.5 3.1,13.3 11.2,13.3 C21.6,13.3 32.5,4.8 32.5,-4 C32.5,-9.9 27.5,-13.2 21.3,-13.2 C11.6,-13.2 0,-5 0,4.2"/>
<path class="Clef" transform="matrix(0.992,0,0,0.992,232.438,708.598)" d="M12.3,51.3 C12.3,57.9 17.3,66.6 30.8,66.6 C35.5,66.6 39.6,65.4 43.2,63.2 C48.6,59.4 50,52.8 50,46.5 C50,42.6 49.4,38.1 48.4,32.4 C48.1,30.4 47.5,27.4 46.9,23.5 C56.7,20.3 64,10.1 64,-0.2 C64,-15.3 53.3,-25.5 38.7,-25.5 C37.7,-31.5 36.7,-37.4 35.9,-43 C46.4,-54.1 53.7,-66.6 53.7,-82.5 C53.7,-91.6 50.9,-99 49.3,-102.6 C46.9,-107.7 44,-111.2 42.2,-111.2 C41.5,-111.2 38.4,-110 35.1,-106.1 C28.7,-98.5 26.9,-85.7 26.9,-77.3 C26.9,-71.9 27.4,-67 29.1,-55.8 C29,-55.7 23.8,-50.4 21.7,-48.7 C12.6,-40.3 0,-28.1 0,-8.1 C0,10.6 16.3,25.3 34.9,25.3 C37.8,25.3 40.5,25 42.8,24.6 C44.7,34.2 45.9,41.2 45.9,46.5 C45.9,56.9 40.5,62.4 30.4,62.4 C28,62.4 25.9,61.9 25.7,61.9 C25.6,61.8 25.4,61.7 25.4,61.6 C25.4,61.4 25.6,61.3 25.9,61.3 C30.6,60.5 35.3,56.5 35.3,50.1 C35.3,44.7 31.2,39 23.7,39 C16.7,39 12.3,44.7 12.3,51.3 M33.2,-82.2 C34.1,-86.2 38.7,-96.7 43.9,-96.7 C45.4,-96.7 47.8,-91.9 47.8,-84.9 C47.8,-74.5 40.1,-66.7 33.2,-59.9 C32.6,-63.9 32.1,-67.8 32.1,-72 C32.1,-75.7 32.4,-79.1 33.2,-82.2 M42,20.6 C40,21 38.1,21.2 36.2,21.2 C21.9,21.2 9.7,11.2 9.7,-3.9 C9.7,-16.1 18.3,-27 27.1,-34.6 C28.8,-36.1 30.4,-37.5 31.9,-39 C32.8,-33.6 33.5,-28.9 34.2,-24.8 C25.1,-22.1 18.9,-12.5 18.9,-3.1 C18.9,3.9 24.4,13.5 32.4,13.5 C33.2,13.5 34.1,13.1 34.1,12.2 C34.1,11.3 33.1,10.8 31.9,10 C28,7.6 25.8,5 25.8,0.1 C25.8,-6 30.4,-10.9 36.2,-12.3 L42,20.6 M56.2,2.1 C56.2,9.2 53.3,16.5 46.2,19.4 C44.1,7.4 41.4,-8.5 40.7,-12.9 C49.7,-12.9 56.2,-6.8 56.2,2.1"/>
<path class="Clef" transform="matrix(0.992,0,0,0.992,232.438,1179.8)" d="M12.3,51.3 C12.3,57.9 17.3,66.6 30.8,66.6 C35.5,66.6 39.6,65.4 43.2,63.2 C48.6,59.4 50,52.8 50,46.5 C50,42.6 49.4,38.1 48.4,32.4 C48.1,30.4 47.5,27.4 46.9,23.5 C56.7,20.3 64,10.1 64,-0.2 C64,-15.3 53.3,-25.5 38.7,-25.5 C37.7,-31.5 36.7,-37.4 35.9,-43 C46.4,-54.1 53.7,-66.6 53.7,-82.5 C53.7,-91.6 50.9,-99 49.3,-102.6 C46.9,-107.7 44,-111.2 42.2,-111.2 C41.5,-111.2 38.4,-110 35.1,-106.1 C28.7,-98.5 26.9,-85.7 26.9,-77.3 C26.9,-71.9 27.4,-67 29.1,-55.8 C29,-55.7 23.8,-50.4 21.7,-48.7 C12.6,-40.3 0,-28.1 0,-8.1 C0,10.6 16.3,25.3 34.9,25.3 C37.8,25.3 40.5,25 42.8,24.6 C44.7,34.2 45.9,41.2 45.9,46.5 C45.9,56.9 40.5,62.4 30.4,62.4 C28,62.4 25.9,61.9 25.7,61.9 C25.6,61.8 25.4,61.7 25.4,61.6 C25.4,61.4 25.6,61.3 25.9,61.3 C30.6,60.5 35.3,56.5 35.3,50.1 C35.3,44.7 31.2,39 23.7,39 C16.7,39 12.3,44.7 12.3,51.3 M33.2,-82.2 C34.1,-86.2 38.7,-96.7 43.9,-96.7 C45.4,-96.7 47.8,-91.9 47.8,-84.9 C47.8,-74.5 40.1,-66.7 33.2,-59.9 C32.6,-63.9 32.1,-67.8 32.1,-72 C32.1,-75.7 32.4,-79.1 33.2,-82.2 M42,20.6 C40,21 38.1,21.2 36.2,21.2 C21.9,21.2 9.7,11.2 9.7,-3.9 C9.7,-16.1 18.3,-27 27.1,-34.6 C28.8,-36.1 30.4,-37.5 31.9,-39 C32.8,-33.6 33.5,-28.9 34.2,-24.8 C25.1,-22.1 18.9,-12.5 18.9,-3.1 C18.9,3.9 24.4,13.5 32.4,13.5 C33.2,13.5 34.1,13.1 34.1,12.2 C34.1,11.3 33.1,10.8 31.9,10 C28,7.6 25.8,5 25.8,0.1 C25.8,-6 30.4,-10.9 36.2,-12.3 L42,20.6 M56.2,2.1 C56.2,9.2 53.3,16.5 46.2,19.4 C44.1,7.4 41.4,-8.5 40.7,-12.9 C49.7,-12.9 56.2,-6.8 56.2,2.1"/>
<path class="KeySig" transform="matrix(0.992,0,0,0.992,320.711,1105.4)" d="M23.3,-10.5 C23.9,-10.6 24.4,-11.3 24.4,-11.9 L24.4,-17.8 C24.4,-18.8 23.7,-19.2 22.8,-19.2 L19.5,-18.5 L19.5,-33.4 L16.7,-33.4 L16.7,-17.9 L7.8,-16.1 L7.8,-30.2 L5,-30.2 L5,-15.5 L1.1,-14.7 C0.5,-14.6 0,-13.9 0,-13.3 L0,-7.5 C0,-6.4 0.8,-6.1 1.7,-6.1 L5,-6.8 L5,9.7 L1.1,10.5 C0.5,10.6 0,11.3 0,11.9 L0,17.7 C0,18.8 0.8,19.1 1.7,19.1 L5,18.4 L5,33.3 L7.8,33.3 L7.8,17.8 L16.7,16 L16.7,30.1 L19.5,30.1 L19.5,15.4 L23.3,14.7 C23.9,14.6 24.4,13.9 24.4,13.3 L24.4,7.4 C24.4,6.4 23.7,6 22.8,6 L19.5,6.7 L19.5,-9.8 L23.3,-10.5 M7.8,-7.4 L16.7,-9.2 L16.7,7.3 L7.8,9.2 L7.8,-7.4 "/>
<path class="KeySig" transform="matrix(0.992,0,0,0.992,347.882,1142.6)" d="M23.3,-10.5 C23.9,-10.6 24.4,-11.3 24.4,-11.9 L24.4,-17.8 C24.4,-18.8 23.7,-19.2 22.8,-19.2 L19.5,-18.5 L19.5,-33.4 L16.7,-33.4 L16.7,-17.9 L7.8,-16.1 L7.8,-30.2 L5,-30.2 L5,-15.5 L1.1,-14.7 C0.5,-14.6 0,-13.9 0,-13.3 L0,-7.5 C0,-6.4 0.8,-6.1 1.7,-6.1 L5,-6.8 L5,9.7 L1.1,10.5 C0.5,10.6 0,11.3 0,11.9 L0,17.7 C0,18.8 0.8,19.1 1.7,19.1 L5,18.4 L5,33.3 L7.8,33.3 L7.8,17.8 L16.7,16 L16.7,30.1 L19.5,30.1 L19.5,15.4 L23.3,14.7 C23.9,14.6 24.4,13.9 24.4,13.3 L24.4,7.4 C24.4,6.4 23.7,6 22.8,6 L19.5,6.7 L19.5,-9.8 L23.3,-10.5 M7.8,-7.4 L16.7,-9.2 L16.7,7.3 L7.8,9.2 L7.8,-7.4 "/>
<path class="KeySig" transform="matrix(0.992,0,0,0.992,320.711,634.198)" d="M23.3,-10.5 C23.9,-10.6 24.4,-11.3 24.4,-11.9 L24.4,-17.8 C24.4,-18.8 23.7,-19.2 22.8,-19.2 L19.5,-18.5 L19.5,-33.4 L16.7,-33.4 L16.7,-17.9 L7.8,-16.1 L7.8,-30.2 L5,-30.2 L5,-15.5 L1.1,-14.7 C0.5,-14.6 0,-13.9 0,-13.3 L0,-7.5 C0,-6.4 0.8,-6.1 1.7,-6.1 L5,-6.8 L5,9.7 L1.1,10.5 C0.5,10.6 0,11.3 0,11.9 L0,17.7 C0,18.8 0.8,19.1 1.7,19.1 L5,18.4 L5,33.3 L7.8,33.3 L7.8,17.8 L16.7,16 L16.7,30.1 L19.5,30.1 L19.5,15.4 L23.3,14.7 C23.9,14.6 24.4,13.9 24.4,13.3 L24.4,7.4 C24.4,6.4 23.7,6 22.8,6 L19.5,6.7 L19.5,-9.8 L23.3,-10.5 M7.8,-7.4 L16.7,-9.2 L16.7,7.3 L7.8,9.2 L7.8,-7.4 "/>
<path class="KeySig" transform="matrix(0.992,0,0,0.992,347.882,671.398)" d="M23.3,-10.5 C23.9,-10.6 24.4,-11.3 24.4,-11.9 L24.4,-17.8 C24.4,-18.8 23.7,-19.2 22.8,-19.2 L19.5,-18.5 L19.5,-33.4 L16.7,-33.4 L16.7,-17.9 L7.8,-16.1 L7.8,-30.2 L5,-30.2 L5,-15.5 L1.1,-14.7 C0.5,-14.6 0,-13.9 0,-13.3 L0,-7.5 C0,-6.4 0.8,-6.1 1.7,-6.1 L5,-6.8 L5,9.7 L1.1,10.5 C0.5,10.6 0,11.3 0,11.9 L0,17.7 C0,18.8 0.8,19.1 1.7,19.1 L5,18.4 L5,33.3 L7.8,33.3 L7.8,17.8 L16.7,16 L16.7,30.1 L19.5,30.1 L19.5,15.4 L23.3,14.7 C23.9,14.6 24.4,13.9 24.4,13.3 L24.4,7.4 C24.4,6.4 23.7,6 22.8,6 L19.5,6.7 L19.5,-9.8 L23.3,-10.5 M7.8,-7.4 L16.7,-9.2 L16.7,7.3 L7.8,9.2 L7.8,-7.4 "/>
<path class="TimeSig" transform="matrix(0.992,0,0,0.992,398.769,659.494)" d="M34.2,3.9 C33.4,6.1 31.4,13.3 26.5,13.3 C20,13.3 18.6,9.3 13.2,9.3 C12.4,9.3 11.6,9.4 10.6,9.6 C10.6,9.6 13.1,5.8 23.7,2.5 C34.3,-0.8 37,-6 37,-12 C37,-16.2 35.1,-24.5 20,-24.5 C4.9,-24.5 2.1,-15.4 2.1,-10.8 C2.1,-6.7 5.5,-3.4 9.6,-3.4 C13.7,-3.4 17,-6.7 17,-10.8 C17,-13.6 15,-16.7 12.4,-17.7 C12.1,-17.8 11.7,-18.3 11.7,-18.8 C11.7,-19.4 12.2,-20.1 14,-20.6 C14.5,-20.8 15.9,-21.1 17.4,-21.1 C23.1,-21.1 24.2,-17.6 24.2,-12.5 C24.2,-0.8 10.3,1.7 4.5,10.4 C4.5,10.4 1.5,14.6 1.5,19.3 C1.5,24 3.9,24.3 5.1,24.3 C6.7,24.3 8.4,23 8.4,21.2 C8.4,20.8 8.3,20.4 8.1,19.9 C7.5,18.5 7.3,17.4 7.3,16.6 C7.3,16.3 7.3,16 7.4,15.7 C7.5,15.1 8.3,14.1 10.7,14.1 C13.6,14.1 14.7,17.5 16.5,20.1 C18.3,22.7 21.1,24.3 24.3,24.3 C27.5,24.3 31.8,22 33.6,18.3 C35.4,14.6 37.7,7.1 37.7,4.4 C37.7,3.1 36.9,2.5 36,2.5 C35.3,2.5 34.6,2.9 34.2,3.9"/>
<path class="TimeSig" transform="matrix(0.992,0,0,0.992,395.498,708.598)" d="M20.8,12.7 L20.8,20.1 L12.5,20.1 C11.8,20.1 11.1,20.7 11.1,21.5 L11.1,23.4 C11.1,24.2 11.8,24.8 12.5,24.8 L42.8,24.8 C43.6,24.8 44.2,24.2 44.2,23.4 L44.2,21.5 C44.2,20.7 43.6,20.1 42.8,20.1 L33.9,20.1 L33.9,12.7 L42.8,12.7 C43.6,12.7 44.2,12 44.2,11.2 L44.2,9.3 C44.2,8.6 43.6,7.9 42.8,7.9 L33.9,7.9 L33.9,-8 C33.9,-8.6 33.6,-9.1 33.1,-9.3 L31.9,-9.9 C31.7,-10 31.4,-10.1 31.2,-10.1 C30.9,-10 30.5,-9.9 30.3,-9.7 L21.2,-1.4 C20.9,-1.1 20.8,-0.7 20.8,-0.3 L20.8,7.9 L9.3,7.9 C9.3,7.9 20.4,-4.1 32.2,-19.9 C32.6,-20.4 32.7,-20.9 32.7,-21.3 C32.7,-21.8 32.5,-22.2 32.4,-22.3 L30.2,-24.5 C30,-24.7 29.6,-24.9 29.2,-24.9 C28.6,-24.9 15.1,-24.9 14.4,-24.9 C13.6,-24.9 13.1,-24.3 13,-23.7 C13,-23.7 12.5,-16.3 9.9,-8.2 C7.3,-0.1 4.3,4.9 1.7,8.6 C1.7,8.6 1.4,9.1 1.4,9.7 C1.4,9.9 1.4,10.1 1.5,10.3 C1.9,11 2.5,12.1 2.5,12.1 C2.5,12.1 2.7,12.7 3.6,12.7 L20.8,12.7 "/>
<path class="Rest" transform="matrix(0.992,0,0,0.992,2673.68,683.798)" d="M26.7,-20.3 C26.6,-20.3 26.4,-20.4 26.3,-20.4 C25.7,-20.4 25.2,-20.1 25,-19.6 C22.7,-15 17.9,-8.8 12.5,-7.8 C13.6,-9.1 14.3,-10.7 14.3,-12.6 C14.3,-16.5 11.1,-19.7 7.2,-19.7 C3.2,-19.7 0,-16.5 0,-12.6 C0,-7.2 5.3,-4.7 10,-4.7 C15.3,-4.7 18.8,-7.2 22.2,-10.9 L10.8,24.7 L13.5,25.5 L27.5,-18.6 C27.6,-18.7 27.6,-18.9 27.6,-19.1 C27.6,-19.6 27.3,-20 26.7,-20.3"/>
<path class="Rest" transform="matrix(0.992,0,0,0.992,1886.84,1155)" d="M26.7,-20.3 C26.6,-20.3 26.4,-20.4 26.3,-20.4 C25.7,-20.4 25.2,-20.1 25,-19.6 C22.7,-15 17.9,-8.8 12.5,-7.8 C13.6,-9.1 14.3,-10.7 14.3,-12.6 C14.3,-16.5 11.1,-19.7 7.2,-19.7 C3.2,-19.7 0,-16.5 0,-12.6 C0,-7.2 5.3,-4.7 10,-4.7 C15.3,-4.7 18.8,-7.2 22.2,-10.9 L10.8,24.7 L13.5,25.5 L27.5,-18.6 C27.6,-18.7 27.6,-18.9 27.6,-19.1 C27.6,-19.6 27.3,-20 26.7,-20.3"/>
<path class="Rest" transform="matrix(0.992,0,0,0.992,1143.54,683.798)" d="M26.7,-20.3 C26.6,-20.3 26.4,-20.4 26.3,-20.4 C25.7,-20.4 25.2,-20.1 25,-19.6 C22.7,-15 17.9,-8.8 12.5,-7.8 C13.6,-9.1 14.3,-10.7 14.3,-12.6 C14.3,-16.5 11.1,-19.7 7.2,-19.7 C3.2,-19.7 0,-16.5 0,-12.6 C0,-7.2 5.3,-4.7 10,-4.7 C15.3,-4.7 18.8,-7.2 22.2,-10.9 L10.8,24.7 L13.5,25.5 L27.5,-18.6 C27.6,-18.7 27.6,-18.9 27.6,-19.1 C27.6,-19.6 27.3,-20 26.7,-20.3"/>
<path class="Rest" transform="matrix(0.992,0,0,0.992,2651.12,1155)" d="M26.7,-20.3 C26.6,-20.3 26.4,-20.4 26.3,-20.4 C25.7,-20.4 25.2,-20.1 25,-19.6 C22.7,-15 17.9,-8.8 12.5,-7.8 C13.6,-9.1 14.3,-10.7 14.3,-12.6 C14.3,-16.5 11.1,-19.7 7.2,-19.7 C3.2,-19.7 0,-16.5 0,-12.6 C0,-7.2 5.3,-4.7 10,-4.7 C15.3,-4.7 18.8,-7.2 22.2,-10.9 L10.8,24.7 L13.5,25.5 L27.5,-18.6 C27.6,-18.7 27.6,-18.9 27.6,-19.1 C27.6,-19.6 27.3,-20 26.7,-20.3"/>
<path class="Rest" transform="matrix(0.992,0,0,0.992,1080.29,1155)" d="M26.7,-20.3 C26.6,-20.3 26.4,-20.4 26.3,-20.4 C25.7,-20.4 25.2,-20.1 25,-19.6 C22.7,-15 17.9,-8.8 12.5,-7.8 C13.6,-9.1 14.3,-10.7 14.3,-12.6 C14.3,-16.5 11.1,-19.7 7.2,-19.7 C3.2,-19.7 0,-16.5 0,-12.6 C0,-7.2 5.3,-4.7 10,-4.7 C15.3,-4.7 18.8,-7.2 22.2,-10.9 L10.8,24.7 L13.5,25.5 L27.5,-18.6 C27.6,-18.7 27.6,-18.9 27.6,-19.1 C27.6,-19.6 27.3,-20 26.7,-20.3"/>
<path class="Rest" transform="matrix(0.992,0,0,0.992,1908.61,683.798)" d="M26.7,-20.3 C26.6,-20.3 26.4,-20.4 26.3,-20.4 C25.7,-20.4 25.2,-20.1 25,-19.6 C22.7,-15 17.9,-8.8 12.5,-7.8 C13.6,-9.1 14.3,-10.7 14.3,-12.6 C14.3,-16.5 11.1,-19.7 7.2,-19.7 C3.2,-19.7 0,-16.5 0,-12.6 C0,-7.2 5.3,-4.7 10,-4.7 C15.3,-4.7 18.8,-7.2 22.2,-10.9 L10.8,24.7 L13.5,25.5 L27.5,-18.6 C27.6,-18.7 27.6,-18.9 27.6,-19.1 C27.6,-19.6 27.3,-20 26.7,-20.3"/>
<path class="Beam" fill-rule="evenodd" d="M502.309,658.993 L649.133,652.793 L649.133,665.204 L502.309,671.404 L502.309,658.993 "/>
<path class="Beam" fill-rule="evenodd" d="M588.767,673.942 L649.133,671.393 L649.133,683.804 L588.767,686.353 L588.767,673.942 "/>
<path class="Beam" fill-rule="evenodd" d="M2061.27,634.198 L2150.45,634.198 L2150.45,646.598 L2061.27,646.598 L2061.27,634.198 "/>
<path class="Beam" fill-rule="evenodd" d="M1414.77,1198.4 L1504.57,1198.4 L1504.57,1210.8 L1414.77,1210.8 L1414.77,1198.4 "/>
<path class="Beam" fill-rule="evenodd" d="M848.571,1117.78 L938.372,1123.98 L938.372,1136.41 L848.571,1130.21 L848.571,1117.78 "/>
<path class="Beam" fill-rule="evenodd" d="M704.044,658.983 L793.229,652.783 L793.229,665.213 L704.044,671.413 L704.044,658.983 "/>
<path class="Beam" fill-rule="evenodd" d="M637.721,1092.94 L727.522,1105.34 L727.522,1117.86 L637.721,1105.46 L637.721,1092.94 "/>
<path class="Beam" fill-rule="evenodd" d="M2419.39,1117.78 L2509.19,1123.98 L2509.19,1136.41 L2419.39,1130.21 L2419.39,1117.78 "/>
<path class="Beam" fill-rule="evenodd" d="M434.078,1217 L523.879,1217 L523.879,1229.4 L434.078,1229.4 L434.078,1217 "/>
<path class="Beam" fill-rule="evenodd" d="M913.663,634.139 L1002.85,621.739 L1002.85,634.258 L913.663,646.658 L913.663,634.139 "/>
<path class="Beam" fill-rule="evenodd" d="M1625.62,1210.78 L1715.42,1216.98 L1715.42,1229.41 L1625.62,1223.21 L1625.62,1210.78 "/>
<path class="Beam" fill-rule="evenodd" d="M1246.34,1198.4 L1359.45,1198.4 L1359.45,1210.8 L1246.34,1210.8 L1246.34,1198.4 "/>
<path class="Beam" fill-rule="evenodd" d="M1359.45,1179.8 L1327.21,1179.8 L1327.21,1192.2 L1359.45,1192.2 L1359.45,1179.8 "/>
<path class="Beam" fill-rule="evenodd" d="M1296.2,609.383 L1385.38,615.583 L1385.38,628.013 L1296.2,621.813 L1296.2,609.383 "/>
<path class="Beam" fill-rule="evenodd" d="M2443.8,634.139 L2532.99,621.739 L2532.99,634.258 L2443.8,646.658 L2443.8,634.139 "/>
<path class="Beam" fill-rule="evenodd" d="M2208.54,1105.34 L2298.34,1092.94 L2298.34,1105.46 L2208.54,1117.86 L2208.54,1105.34 "/>
<path class="Beam" fill-rule="evenodd" d="M1439.62,739.583 L1528.8,745.783 L1528.8,758.213 L1439.62,752.013 L1439.62,739.583 "/>
<path class="Beam" fill-rule="evenodd" d="M2234.18,652.783 L2323.37,658.983 L2323.37,671.413 L2234.18,665.213 L2234.18,652.783 "/>
<path class="Beam" fill-rule="evenodd" d="M1678.73,615.583 L1767.92,609.383 L1767.92,621.813 L1678.73,628.013 L1678.73,615.583 "/>
<path class="Beam" fill-rule="evenodd" d="M2040.11,1130.19 L2153.22,1123.99 L2153.22,1136.41 L2040.11,1142.61 L2040.11,1130.19 "/>
<path class="Beam" fill-rule="evenodd" d="M2153.22,1142.59 L2120.98,1144.36 L2120.98,1156.77 L2153.22,1155.01 L2153.22,1142.59 "/>
<path class="Harmony" d="M819.076,1043.4 L837.556,1043.4 C842.451,1043.4 846.191,1042.63 849.106,1040.98 C854.661,1037.84 857.741,1031.57 857.741,1023.32 C857.741,1015.73 854.991,1009.79 849.931,1006.49 C846.906,1004.57 842.836,1003.69 836.566,1003.69 L819.076,1003.69 L819.076,1006.27 L820.121,1006.27 C823.201,1006.33 824.246,1006.49 824.686,1007.04 C825.016,1007.54 825.016,1007.65 825.016,1010.45 L825.016,1036.63 C825.016,1039.44 825.016,1039.55 824.686,1040.04 C824.246,1040.59 823.201,1040.76 820.121,1040.81 L819.076,1040.81 L819.076,1043.4 M834.311,1040.81 C831.506,1040.81 831.176,1040.48 831.176,1037.79 L831.176,1009.35 C831.176,1006.66 831.561,1006.27 834.311,1006.27 L837.171,1006.27 C846.576,1006.27 850.481,1011.39 850.481,1023.54 C850.481,1035.86 846.961,1040.81 838.051,1040.81 L834.311,1040.81 "/>
<path class="Harmony" d="M1448.22,1003.3 L1446.13,1003.3 L1443.99,1006.6 C1440.41,1003.8 1437.99,1002.86 1433.98,1002.86 C1429.63,1002.86 1426.22,1004.07 1422.76,1006.88 C1417.31,1011.28 1414.78,1016.83 1414.78,1024.26 C1414.78,1029.87 1416.38,1034.54 1419.62,1038.12 C1423.03,1041.97 1428.09,1044.22 1433.37,1044.22 C1437.99,1044.22 1441.24,1042.79 1444.81,1039.22 L1446.85,1044.17 L1449.16,1044.17 L1449.16,1032.07 C1449.16,1029.26 1449.16,1029.15 1449.49,1028.66 C1449.98,1028.05 1450.97,1027.89 1454.11,1027.89 L1454.93,1027.89 L1454.93,1025.3 L1437.44,1025.3 L1437.44,1027.89 L1438.49,1027.89 C1443.11,1027.89 1443.49,1028.16 1443.49,1031.24 C1443.49,1033.61 1443.11,1035.75 1442.39,1037.07 C1441.02,1039.77 1437.5,1041.64 1433.92,1041.64 C1430.35,1041.64 1426.83,1039.82 1424.96,1037.07 C1422.92,1033.99 1422.04,1030.14 1422.04,1024.26 C1422.04,1011.99 1426.11,1005.45 1433.76,1005.45 C1440.03,1005.45 1444.37,1009.96 1446.63,1018.76 L1448.99,1018.76 L1448.22,1003.3 "/>
<path class="Harmony" d="M993.222,1043.4 L1011.7,1043.4 C1016.6,1043.4 1020.34,1042.63 1023.25,1040.98 C1028.81,1037.84 1031.89,1031.57 1031.89,1023.32 C1031.89,1015.73 1029.14,1009.79 1024.08,1006.49 C1021.05,1004.57 1016.98,1003.69 1010.71,1003.69 L993.222,1003.69 L993.222,1006.27 L994.267,1006.27 C997.347,1006.33 998.392,1006.49 998.832,1007.04 C999.162,1007.54 999.162,1007.65 999.162,1010.45 L999.162,1036.63 C999.162,1039.44 999.162,1039.55 998.832,1040.04 C998.392,1040.59 997.347,1040.76 994.267,1040.81 L993.222,1040.81 L993.222,1043.4 M1008.46,1040.81 C1005.65,1040.81 1005.32,1040.48 1005.32,1037.79 L1005.32,1009.35 C1005.32,1006.66 1005.71,1006.27 1008.46,1006.27 L1011.32,1006.27 C1020.72,1006.27 1024.63,1011.39 1024.63,1023.54 C1024.63,1035.86 1021.11,1040.81 1012.2,1040.81 L1008.46,1040.81 "/>
<path class="Harmony" d="M1822.15,572.198 L1840.63,572.198 C1845.53,572.198 1849.27,571.428 1852.18,569.778 C1857.74,566.643 1860.82,560.373 1860.82,552.123 C1860.82,544.533 1858.07,538.593 1853.01,535.293 C1849.98,533.368 1845.91,532.488 1839.64,532.488 L1822.15,532.488 L1822.15,535.073 L1823.2,535.073 C1826.28,535.128 1827.32,535.293 1827.76,535.843 C1828.09,536.338 1828.09,536.448 1828.09,539.253 L1828.09,565.433 C1828.09,568.238 1828.09,568.348 1827.76,568.843 C1827.32,569.393 1826.28,569.558 1823.2,569.613 L1822.15,569.613 L1822.15,572.198 M1837.39,569.613 C1834.58,569.613 1834.25,569.283 1834.25,566.588 L1834.25,538.153 C1834.25,535.458 1834.64,535.073 1837.39,535.073 L1840.25,535.073 C1849.65,535.073 1853.56,540.188 1853.56,552.343 C1853.56,564.663 1850.04,569.613 1841.13,569.613 L1837.39,569.613 "/>
<path class="Harmony" d="M1279.79,1003.3 L1277.7,1003.3 L1275.56,1006.6 C1271.98,1003.8 1269.56,1002.86 1265.55,1002.86 C1261.2,1002.86 1257.79,1004.07 1254.33,1006.88 C1248.88,1011.28 1246.35,1016.83 1246.35,1024.26 C1246.35,1029.87 1247.95,1034.54 1251.19,1038.12 C1254.6,1041.97 1259.66,1044.22 1264.94,1044.22 C1269.56,1044.22 1272.81,1042.79 1276.38,1039.22 L1278.42,1044.17 L1280.73,1044.17 L1280.73,1032.07 C1280.73,1029.26 1280.73,1029.15 1281.06,1028.66 C1281.55,1028.05 1282.54,1027.89 1285.68,1027.89 L1286.5,1027.89 L1286.5,1025.3 L1269.01,1025.3 L1269.01,1027.89 L1270.06,1027.89 C1274.68,1027.89 1275.06,1028.16 1275.06,1031.24 C1275.06,1033.61 1274.68,1035.75 1273.96,1037.07 C1272.59,1039.77 1269.07,1041.64 1265.49,1041.64 C1261.92,1041.64 1258.4,1039.82 1256.53,1037.07 C1254.49,1033.99 1253.61,1030.14 1253.61,1024.26 C1253.61,1011.99 1257.68,1005.45 1265.33,1005.45 C1271.6,1005.45 1275.94,1009.96 1278.2,1018.76 L1280.56,1018.76 L1279.79,1003.3 "/>
<path class="Harmony" d="M927.375,1002.92 L925.065,1002.92 L912.415,1034.98 C910.93,1039.27 909.5,1040.59 906.365,1040.81 L906.145,1040.81 L906.145,1043.4 L920.72,1043.4 L920.72,1040.81 L919.62,1040.81 C916.65,1040.81 915.165,1039.77 915.165,1037.68 C915.165,1036.96 915.33,1036.3 915.66,1035.37 L917.475,1030.53 L932.05,1030.53 L935.02,1037.9 C935.35,1038.78 935.46,1039.11 935.46,1039.38 C935.46,1040.26 934.085,1040.81 932.05,1040.81 L929.74,1040.81 L929.74,1043.4 L946.79,1043.4 L946.79,1040.81 L946.02,1040.81 C943.16,1040.76 942.665,1040.43 941.4,1037.29 L927.375,1002.92 M924.68,1011.94 L930.895,1027.56 L918.575,1027.56 L924.68,1011.94 "/>
<path class="Harmony" d="M951.986,1017.99 L954.406,1018.37 L955.396,1014.03 C956.221,1010.4 956.606,1009.85 958.201,1009.85 C958.476,1009.85 958.916,1009.85 959.411,1009.9 C966.176,1010.23 966.176,1010.23 968.706,1010.23 C969.421,1010.23 970.686,1010.23 972.226,1010.18 L968.486,1017.71 C964.416,1025.8 963.921,1026.79 962.546,1030.2 C960.841,1034.32 959.961,1037.79 959.961,1040.1 C959.961,1042.63 961.281,1044.17 963.426,1044.17 C966.066,1044.17 967.111,1042.41 967.056,1037.62 C966.781,1029.7 967.771,1025.85 973.656,1012.98 C974.646,1010.84 975.691,1008.64 976.681,1006.49 L976.681,1004.9 C973.381,1005.17 971.621,1005.28 968.211,1005.28 C963.426,1005.28 959.631,1005.12 953.691,1004.68 L951.986,1017.99 "/>
<path class="Harmony" d="M2010.62,1043.4 L2029.1,1043.4 C2033.99,1043.4 2037.73,1042.63 2040.65,1040.98 C2046.2,1037.84 2049.28,1031.57 2049.28,1023.32 C2049.28,1015.73 2046.53,1009.79 2041.47,1006.49 C2038.45,1004.57 2034.38,1003.69 2028.11,1003.69 L2010.62,1003.69 L2010.62,1006.27 L2011.66,1006.27 C2014.74,1006.33 2015.79,1006.49 2016.23,1007.04 C2016.56,1007.54 2016.56,1007.65 2016.56,1010.45 L2016.56,1036.63 C2016.56,1039.44 2016.56,1039.55 2016.23,1040.04 C2015.79,1040.59 2014.74,1040.76 2011.66,1040.81 L2010.62,1040.81 L2010.62,1043.4 M2025.85,1040.81 C2023.05,1040.81 2022.72,1040.48 2022.72,1037.79 L2022.72,1009.35 C2022.72,1006.66 2023.1,1006.27 2025.85,1006.27 L2028.71,1006.27 C2038.12,1006.27 2042.02,1011.39 2042.02,1023.54 C2042.02,1035.86 2038.5,1040.81 2029.59,1040.81 L2025.85,1040.81 "/>
<path class="Harmony" d="M1649.24,572.198 L1667.72,572.198 C1672.61,572.198 1676.35,571.428 1679.27,569.778 C1684.82,566.643 1687.9,560.373 1687.9,552.123 C1687.9,544.533 1685.15,538.593 1680.09,535.293 C1677.07,533.368 1673,532.488 1666.73,532.488 L1649.24,532.488 L1649.24,535.073 L1650.28,535.073 C1653.36,535.128 1654.41,535.293 1654.85,535.843 C1655.18,536.338 1655.18,536.448 1655.18,539.253 L1655.18,565.433 C1655.18,568.238 1655.18,568.348 1654.85,568.843 C1654.41,569.393 1653.36,569.558 1650.28,569.613 L1649.24,569.613 L1649.24,572.198 M1664.47,569.613 C1661.67,569.613 1661.34,569.283 1661.34,566.588 L1661.34,538.153 C1661.34,535.458 1661.72,535.073 1664.47,535.073 L1667.33,535.073 C1676.74,535.073 1680.64,540.188 1680.64,552.343 C1680.64,564.663 1677.12,569.613 1668.21,569.613 L1664.47,569.613 "/>
<path class="Harmony" d="M1799.77,1043.4 L1818.25,1043.4 C1823.14,1043.4 1826.88,1042.63 1829.8,1040.98 C1835.35,1037.84 1838.43,1031.57 1838.43,1023.32 C1838.43,1015.73 1835.68,1009.79 1830.62,1006.49 C1827.6,1004.57 1823.53,1003.69 1817.26,1003.69 L1799.77,1003.69 L1799.77,1006.27 L1800.81,1006.27 C1803.89,1006.33 1804.94,1006.49 1805.38,1007.04 C1805.71,1007.54 1805.71,1007.65 1805.71,1010.45 L1805.71,1036.63 C1805.71,1039.44 1805.71,1039.55 1805.38,1040.04 C1804.94,1040.59 1803.89,1040.76 1800.81,1040.81 L1799.77,1040.81 L1799.77,1043.4 M1815,1040.81 C1812.2,1040.81 1811.87,1040.48 1811.87,1037.79 L1811.87,1009.35 C1811.87,1006.66 1812.25,1006.27 1815,1006.27 L1817.86,1006.27 C1827.27,1006.27 1831.17,1011.39 1831.17,1023.54 C1831.17,1035.86 1827.65,1040.81 1818.74,1040.81 L1815,1040.81 "/>
<path class="Harmony" d="M1473.07,532.103 L1470.98,532.103 L1468.84,535.403 C1465.26,532.598 1462.84,531.663 1458.83,531.663 C1454.48,531.663 1451.07,532.873 1447.61,535.678 C1442.16,540.078 1439.63,545.633 1439.63,553.058 C1439.63,558.668 1441.23,563.343 1444.47,566.918 C1447.88,570.768 1452.94,573.023 1458.22,573.023 C1462.84,573.023 1466.09,571.593 1469.66,568.018 L1471.7,572.968 L1474.01,572.968 L1474.01,560.868 C1474.01,558.063 1474.01,557.953 1474.34,557.458 C1474.83,556.853 1475.82,556.688 1478.96,556.688 L1479.78,556.688 L1479.78,554.103 L1462.29,554.103 L1462.29,556.688 L1463.34,556.688 C1467.96,556.688 1468.34,556.963 1468.34,560.043 C1468.34,562.408 1467.96,564.553 1467.24,565.873 C1465.87,568.568 1462.35,570.438 1458.77,570.438 C1455.2,570.438 1451.68,568.623 1449.81,565.873 C1447.77,562.793 1446.89,558.943 1446.89,553.058 C1446.89,540.793 1450.96,534.248 1458.61,534.248 C1464.88,534.248 1469.22,538.758 1471.48,547.558 L1473.84,547.558 L1473.07,532.103 "/>
<path class="Harmony" d="M2204.69,572.198 L2223.17,572.198 C2228.06,572.198 2231.8,571.428 2234.72,569.778 C2240.27,566.643 2243.35,560.373 2243.35,552.123 C2243.35,544.533 2240.6,538.593 2235.54,535.293 C2232.52,533.368 2228.45,532.488 2222.18,532.488 L2204.69,532.488 L2204.69,535.073 L2205.73,535.073 C2208.81,535.128 2209.86,535.293 2210.3,535.843 C2210.63,536.338 2210.63,536.448 2210.63,539.253 L2210.63,565.433 C2210.63,568.238 2210.63,568.348 2210.3,568.843 C2209.86,569.393 2208.81,569.558 2205.73,569.613 L2204.69,569.613 L2204.69,572.198 M2219.92,569.613 C2217.12,569.613 2216.79,569.283 2216.79,566.588 L2216.79,538.153 C2216.79,535.458 2217.17,535.073 2219.92,535.073 L2222.78,535.073 C2232.19,535.073 2236.09,540.188 2236.09,552.343 C2236.09,564.663 2232.57,569.613 2223.66,569.613 L2219.92,569.613 "/>
<path class="Harmony" d="M2564.04,1043.4 L2582.52,1043.4 C2587.42,1043.4 2591.16,1042.63 2594.07,1040.98 C2599.63,1037.84 2602.71,1031.57 2602.71,1023.32 C2602.71,1015.73 2599.96,1009.79 2594.9,1006.49 C2591.87,1004.57 2587.8,1003.69 2581.53,1003.69 L2564.04,1003.69 L2564.04,1006.27 L2565.09,1006.27 C2568.17,1006.33 2569.21,1006.49 2569.65,1007.04 C2569.98,1007.54 2569.98,1007.65 2569.98,1010.45 L2569.98,1036.63 C2569.98,1039.44 2569.98,1039.55 2569.65,1040.04 C2569.21,1040.59 2568.17,1040.76 2565.09,1040.81 L2564.04,1040.81 L2564.04,1043.4 M2579.28,1040.81 C2576.47,1040.81 2576.14,1040.48 2576.14,1037.79 L2576.14,1009.35 C2576.14,1006.66 2576.53,1006.27 2579.28,1006.27 L2582.14,1006.27 C2591.54,1006.27 2595.45,1011.39 2595.45,1023.54 C2595.45,1035.86 2591.93,1040.81 2583.02,1040.81 L2579.28,1040.81 "/>
<path class="Harmony" d="M2179.05,1043.4 L2197.53,1043.4 C2202.42,1043.4 2206.16,1042.63 2209.08,1040.98 C2214.63,1037.84 2217.71,1031.57 2217.71,1023.32 C2217.71,1015.73 2214.96,1009.79 2209.9,1006.49 C2206.88,1004.57 2202.81,1003.69 2196.54,1003.69 L2179.05,1003.69 L2179.05,1006.27 L2180.09,1006.27 C2183.17,1006.33 2184.22,1006.49 2184.66,1007.04 C2184.99,1007.54 2184.99,1007.65 2184.99,1010.45 L2184.99,1036.63 C2184.99,1039.44 2184.99,1039.55 2184.66,1040.04 C2184.22,1040.59 2183.17,1040.76 2180.09,1040.81 L2179.05,1040.81 L2179.05,1043.4 M2194.28,1040.81 C2191.48,1040.81 2191.15,1040.48 2191.15,1037.79 L2191.15,1009.35 C2191.15,1006.66 2191.53,1006.27 2194.28,1006.27 L2197.14,1006.27 C2206.55,1006.27 2210.45,1011.39 2210.45,1023.54 C2210.45,1035.86 2206.93,1040.81 2198.02,1040.81 L2194.28,1040.81 "/>
<path class="Harmony" d="M1300.15,532.103 L1298.06,532.103 L1295.92,535.403 C1292.34,532.598 1289.92,531.663 1285.91,531.663 C1281.56,531.663 1278.15,532.873 1274.69,535.678 C1269.24,540.078 1266.71,545.633 1266.71,553.058 C1266.71,558.668 1268.31,563.343 1271.55,566.918 C1274.96,570.768 1280.02,573.023 1285.3,573.023 C1289.92,573.023 1293.17,571.593 1296.74,568.018 L1298.78,572.968 L1301.09,572.968 L1301.09,560.868 C1301.09,558.063 1301.09,557.953 1301.42,557.458 C1301.91,556.853 1302.9,556.688 1306.04,556.688 L1306.86,556.688 L1306.86,554.103 L1289.37,554.103 L1289.37,556.688 L1290.42,556.688 C1295.04,556.688 1295.42,556.963 1295.42,560.043 C1295.42,562.408 1295.04,564.553 1294.32,565.873 C1292.95,568.568 1289.43,570.438 1285.85,570.438 C1282.28,570.438 1278.76,568.623 1276.89,565.873 C1274.85,562.793 1273.97,558.943 1273.97,553.058 C1273.97,540.793 1278.04,534.248 1285.69,534.248 C1291.96,534.248 1296.3,538.758 1298.56,547.558 L1300.92,547.558 L1300.15,532.103 "/>
<path class="Harmony" d="M2435.53,531.718 L2433.22,531.718 L2420.57,563.783 C2419.09,568.073 2417.66,569.393 2414.52,569.613 L2414.3,569.613 L2414.3,572.198 L2428.88,572.198 L2428.88,569.613 L2427.78,569.613 C2424.81,569.613 2423.32,568.568 2423.32,566.478 C2423.32,565.763 2423.49,565.103 2423.82,564.168 L2425.63,559.328 L2440.21,559.328 L2443.18,566.698 C2443.51,567.578 2443.62,567.908 2443.62,568.183 C2443.62,569.063 2442.24,569.613 2440.21,569.613 L2437.9,569.613 L2437.9,572.198 L2454.95,572.198 L2454.95,569.613 L2454.18,569.613 C2451.32,569.558 2450.82,569.228 2449.56,566.093 L2435.53,531.718 M2432.84,540.738 L2439.05,556.358 L2426.73,556.358 L2432.84,540.738 "/>
<path class="Harmony" d="M2460.15,546.788 L2462.57,547.173 L2463.56,542.828 C2464.38,539.198 2464.77,538.648 2466.36,538.648 C2466.64,538.648 2467.08,538.648 2467.57,538.703 C2474.34,539.033 2474.34,539.033 2476.87,539.033 C2477.58,539.033 2478.85,539.033 2480.39,538.978 L2476.65,546.513 C2472.58,554.598 2472.08,555.588 2470.71,558.998 C2469,563.123 2468.12,566.588 2468.12,568.898 C2468.12,571.428 2469.44,572.968 2471.59,572.968 C2474.23,572.968 2475.27,571.208 2475.22,566.423 C2474.94,558.503 2475.93,554.653 2481.82,541.783 C2482.81,539.638 2483.85,537.438 2484.84,535.293 L2484.84,533.698 C2481.54,533.973 2479.78,534.083 2476.37,534.083 C2471.59,534.083 2467.79,533.918 2461.85,533.478 L2460.15,546.788 "/>
<path class="Harmony" d="M1625.62,1043.4 L1644.1,1043.4 C1649,1043.4 1652.74,1042.63 1655.65,1040.98 C1661.21,1037.84 1664.29,1031.57 1664.29,1023.32 C1664.29,1015.73 1661.54,1009.79 1656.48,1006.49 C1653.45,1004.57 1649.38,1003.69 1643.11,1003.69 L1625.62,1003.69 L1625.62,1006.27 L1626.67,1006.27 C1629.75,1006.33 1630.79,1006.49 1631.23,1007.04 C1631.56,1007.54 1631.56,1007.65 1631.56,1010.45 L1631.56,1036.63 C1631.56,1039.44 1631.56,1039.55 1631.23,1040.04 C1630.79,1040.59 1629.75,1040.76 1626.67,1040.81 L1625.62,1040.81 L1625.62,1043.4 M1640.86,1040.81 C1638.05,1040.81 1637.72,1040.48 1637.72,1037.79 L1637.72,1009.35 C1637.72,1006.66 1638.11,1006.27 1640.86,1006.27 L1643.72,1006.27 C1653.12,1006.27 1657.03,1011.39 1657.03,1023.54 C1657.03,1035.86 1653.51,1040.81 1644.6,1040.81 L1640.86,1040.81 "/>
<path class="Harmony" d="M1057.08,572.198 L1075.56,572.198 C1080.46,572.198 1084.2,571.428 1087.11,569.778 C1092.67,566.643 1095.75,560.373 1095.75,552.123 C1095.75,544.533 1093,538.593 1087.94,535.293 C1084.91,533.368 1080.84,532.488 1074.57,532.488 L1057.08,532.488 L1057.08,535.073 L1058.13,535.073 C1061.21,535.128 1062.25,535.293 1062.69,535.843 C1063.02,536.338 1063.02,536.448 1063.02,539.253 L1063.02,565.433 C1063.02,568.238 1063.02,568.348 1062.69,568.843 C1062.25,569.393 1061.21,569.558 1058.13,569.613 L1057.08,569.613 L1057.08,572.198 M1072.32,569.613 C1069.51,569.613 1069.18,569.283 1069.18,566.588 L1069.18,538.153 C1069.18,535.458 1069.57,535.073 1072.32,535.073 L1075.18,535.073 C1084.58,535.073 1088.49,540.188 1088.49,552.343 C1088.49,564.663 1084.97,569.613 1076.06,569.613 L1072.32,569.613 "/>
<path class="Harmony" d="M884.168,572.198 L902.648,572.198 C907.543,572.198 911.283,571.428 914.198,569.778 C919.753,566.643 922.833,560.373 922.833,552.123 C922.833,544.533 920.083,538.593 915.023,535.293 C911.998,533.368 907.928,532.488 901.658,532.488 L884.168,532.488 L884.168,535.073 L885.213,535.073 C888.293,535.128 889.338,535.293 889.778,535.843 C890.108,536.338 890.108,536.448 890.108,539.253 L890.108,565.433 C890.108,568.238 890.108,568.348 889.778,568.843 C889.338,569.393 888.293,569.558 885.213,569.613 L884.168,569.613 L884.168,572.198 M899.403,569.613 C896.598,569.613 896.268,569.283 896.268,566.588 L896.268,538.153 C896.268,535.458 896.653,535.073 899.403,535.073 L902.263,535.073 C911.668,535.073 915.573,540.188 915.573,552.343 C915.573,564.663 912.053,569.613 903.143,569.613 L899.403,569.613 "/>
<path class="Harmony" d="M2608.45,531.718 L2606.14,531.718 L2593.49,563.783 C2592,568.073 2590.57,569.393 2587.44,569.613 L2587.22,569.613 L2587.22,572.198 L2601.79,572.198 L2601.79,569.613 L2600.69,569.613 C2597.72,569.613 2596.24,568.568 2596.24,566.478 C2596.24,565.763 2596.4,565.103 2596.73,564.168 L2598.55,559.328 L2613.12,559.328 L2616.09,566.698 C2616.42,567.578 2616.53,567.908 2616.53,568.183 C2616.53,569.063 2615.16,569.613 2613.12,569.613 L2610.81,569.613 L2610.81,572.198 L2627.86,572.198 L2627.86,569.613 L2627.09,569.613 C2624.23,569.558 2623.74,569.228 2622.47,566.093 L2608.45,531.718 M2605.75,540.738 L2611.97,556.358 L2599.65,556.358 L2605.75,540.738 "/>
<path class="Harmony" d="M2633.06,546.788 L2635.48,547.173 L2636.47,542.828 C2637.3,539.198 2637.68,538.648 2639.28,538.648 C2639.55,538.648 2639.99,538.648 2640.49,538.703 C2647.25,539.033 2647.25,539.033 2649.78,539.033 C2650.5,539.033 2651.76,539.033 2653.3,538.978 L2649.56,546.513 C2645.49,554.598 2645,555.588 2643.62,558.998 C2641.92,563.123 2641.04,566.588 2641.04,568.898 C2641.04,571.428 2642.36,572.968 2644.5,572.968 C2647.14,572.968 2648.19,571.208 2648.13,566.423 C2647.86,558.503 2648.85,554.653 2654.73,541.783 C2655.72,539.638 2656.77,537.438 2657.76,535.293 L2657.76,533.698 C2654.46,533.973 2652.7,534.083 2649.29,534.083 C2644.5,534.083 2640.71,533.918 2634.77,533.478 L2633.06,546.788 "/>
<path class="Harmony" d="M467.531,1003.3 L465.441,1003.3 L463.296,1006.6 C459.721,1003.8 457.301,1002.86 453.286,1002.86 C448.941,1002.86 445.531,1004.07 442.066,1006.88 C436.621,1011.28 434.091,1016.83 434.091,1024.26 C434.091,1029.87 435.686,1034.54 438.931,1038.12 C442.341,1041.97 447.401,1044.22 452.681,1044.22 C457.301,1044.22 460.546,1042.79 464.121,1039.22 L466.156,1044.17 L468.466,1044.17 L468.466,1032.07 C468.466,1029.26 468.466,1029.15 468.796,1028.66 C469.291,1028.05 470.281,1027.89 473.416,1027.89 L474.241,1027.89 L474.241,1025.3 L456.751,1025.3 L456.751,1027.89 L457.796,1027.89 C462.416,1027.89 462.801,1028.16 462.801,1031.24 C462.801,1033.61 462.416,1035.75 461.701,1037.07 C460.326,1039.77 456.806,1041.64 453.231,1041.64 C449.656,1041.64 446.136,1039.82 444.266,1037.07 C442.231,1033.99 441.351,1030.14 441.351,1024.26 C441.351,1011.99 445.421,1005.45 453.066,1005.45 C459.336,1005.45 463.681,1009.96 465.936,1018.76 L468.301,1018.76 L467.531,1003.3 "/>
<path class="Harmony" d="M2389.9,1043.4 L2408.38,1043.4 C2413.27,1043.4 2417.01,1042.63 2419.93,1040.98 C2425.48,1037.84 2428.56,1031.57 2428.56,1023.32 C2428.56,1015.73 2425.81,1009.79 2420.75,1006.49 C2417.73,1004.57 2413.66,1003.69 2407.39,1003.69 L2389.9,1003.69 L2389.9,1006.27 L2390.94,1006.27 C2394.02,1006.33 2395.07,1006.49 2395.51,1007.04 C2395.84,1007.54 2395.84,1007.65 2395.84,1010.45 L2395.84,1036.63 C2395.84,1039.44 2395.84,1039.55 2395.51,1040.04 C2395.07,1040.59 2394.02,1040.76 2390.94,1040.81 L2389.9,1040.81 L2389.9,1043.4 M2405.13,1040.81 C2402.33,1040.81 2402,1040.48 2402,1037.79 L2402,1009.35 C2402,1006.66 2402.38,1006.27 2405.13,1006.27 L2407.99,1006.27 C2417.4,1006.27 2421.3,1011.39 2421.3,1023.54 C2421.3,1035.86 2417.78,1040.81 2408.87,1040.81 L2405.13,1040.81 "/>
<path class="Harmony" d="M674.548,572.198 L693.028,572.198 C697.923,572.198 701.663,571.428 704.578,569.778 C710.133,566.643 713.213,560.373 713.213,552.123 C713.213,544.533 710.463,538.593 705.403,535.293 C702.378,533.368 698.308,532.488 692.038,532.488 L674.548,532.488 L674.548,535.073 L675.593,535.073 C678.673,535.128 679.718,535.293 680.158,535.843 C680.488,536.338 680.488,536.448 680.488,539.253 L680.488,565.433 C680.488,568.238 680.488,568.348 680.158,568.843 C679.718,569.393 678.673,569.558 675.593,569.613 L674.548,569.613 L674.548,572.198 M689.783,569.613 C686.978,569.613 686.648,569.283 686.648,566.588 L686.648,538.153 C686.648,535.458 687.033,535.073 689.783,535.073 L692.643,535.073 C702.048,535.073 705.953,540.188 705.953,552.343 C705.953,564.663 702.433,569.613 693.523,569.613 L689.783,569.613 "/>
<path class="Harmony" d="M608.225,1043.4 L626.705,1043.4 C631.6,1043.4 635.34,1042.63 638.255,1040.98 C643.81,1037.84 646.89,1031.57 646.89,1023.32 C646.89,1015.73 644.14,1009.79 639.08,1006.49 C636.055,1004.57 631.985,1003.69 625.715,1003.69 L608.225,1003.69 L608.225,1006.27 L609.27,1006.27 C612.35,1006.33 613.395,1006.49 613.835,1007.04 C614.165,1007.54 614.165,1007.65 614.165,1010.45 L614.165,1036.63 C614.165,1039.44 614.165,1039.55 613.835,1040.04 C613.395,1040.59 612.35,1040.76 609.27,1040.81 L608.225,1040.81 L608.225,1043.4 M623.46,1040.81 C620.655,1040.81 620.325,1040.48 620.325,1037.79 L620.325,1009.35 C620.325,1006.66 620.71,1006.27 623.46,1006.27 L626.32,1006.27 C635.725,1006.27 639.63,1011.39 639.63,1023.54 C639.63,1035.86 636.11,1040.81 627.2,1040.81 L623.46,1040.81 "/>
<path class="Harmony" d="M2498.2,1002.92 L2495.89,1002.92 L2483.24,1034.98 C2481.75,1039.27 2480.32,1040.59 2477.19,1040.81 L2476.97,1040.81 L2476.97,1043.4 L2491.54,1043.4 L2491.54,1040.81 L2490.44,1040.81 C2487.47,1040.81 2485.99,1039.77 2485.99,1037.68 C2485.99,1036.96 2486.15,1036.3 2486.48,1035.37 L2488.3,1030.53 L2502.87,1030.53 L2505.84,1037.9 C2506.17,1038.78 2506.28,1039.11 2506.28,1039.38 C2506.28,1040.26 2504.91,1040.81 2502.87,1040.81 L2500.56,1040.81 L2500.56,1043.4 L2517.61,1043.4 L2517.61,1040.81 L2516.84,1040.81 C2513.98,1040.76 2513.49,1040.43 2512.22,1037.29 L2498.2,1002.92 M2495.5,1011.94 L2501.72,1027.56 L2489.4,1027.56 L2495.5,1011.94 "/>
<path class="Harmony" d="M2522.81,1017.99 L2525.23,1018.37 L2526.22,1014.03 C2527.04,1010.4 2527.43,1009.85 2529.02,1009.85 C2529.3,1009.85 2529.74,1009.85 2530.23,1009.9 C2537,1010.23 2537,1010.23 2539.53,1010.23 C2540.24,1010.23 2541.51,1010.23 2543.05,1010.18 L2539.31,1017.71 C2535.24,1025.8 2534.74,1026.79 2533.37,1030.2 C2531.66,1034.32 2530.78,1037.79 2530.78,1040.1 C2530.78,1042.63 2532.1,1044.17 2534.25,1044.17 C2536.89,1044.17 2537.93,1042.41 2537.88,1037.62 C2537.6,1029.7 2538.59,1025.85 2544.48,1012.98 C2545.47,1010.84 2546.51,1008.64 2547.5,1006.49 L2547.5,1004.9 C2544.2,1005.17 2542.44,1005.28 2539.03,1005.28 C2534.25,1005.28 2530.45,1005.12 2524.51,1004.68 L2522.81,1017.99 "/>
<path class="Harmony" d="M472.814,572.198 L491.294,572.198 C496.189,572.198 499.929,571.428 502.844,569.778 C508.399,566.643 511.479,560.373 511.479,552.123 C511.479,544.533 508.729,538.593 503.669,535.293 C500.644,533.368 496.574,532.488 490.304,532.488 L472.814,532.488 L472.814,535.073 L473.859,535.073 C476.939,535.128 477.984,535.293 478.424,535.843 C478.754,536.338 478.754,536.448 478.754,539.253 L478.754,565.433 C478.754,568.238 478.754,568.348 478.424,568.843 C477.984,569.393 476.939,569.558 473.859,569.613 L472.814,569.613 L472.814,572.198 M488.049,569.613 C485.244,569.613 484.914,569.283 484.914,566.588 L484.914,538.153 C484.914,535.458 485.299,535.073 488.049,535.073 L490.909,535.073 C500.314,535.073 504.219,540.188 504.219,552.343 C504.219,564.663 500.699,569.613 491.789,569.613 L488.049,569.613 "/>
<path class="Harmony" d="M2031.77,572.198 L2050.25,572.198 C2055.15,572.198 2058.89,571.428 2061.8,569.778 C2067.36,566.643 2070.44,560.373 2070.44,552.123 C2070.44,544.533 2067.69,538.593 2062.63,535.293 C2059.6,533.368 2055.53,532.488 2049.26,532.488 L2031.77,532.488 L2031.77,535.073 L2032.82,535.073 C2035.9,535.128 2036.94,535.293 2037.38,535.843 C2037.71,536.338 2037.71,536.448 2037.71,539.253 L2037.71,565.433 C2037.71,568.238 2037.71,568.348 2037.38,568.843 C2036.94,569.393 2035.9,569.558 2032.82,569.613 L2031.77,569.613 L2031.77,572.198 M2047.01,569.613 C2044.2,569.613 2043.87,569.283 2043.87,566.588 L2043.87,538.153 C2043.87,535.458 2044.26,535.073 2047.01,535.073 L2049.87,535.073 C2059.27,535.073 2063.18,540.188 2063.18,552.343 C2063.18,564.663 2059.66,569.613 2050.75,569.613 L2047.01,569.613 "/>
<path class="NoteDot" transform="matrix(0.992,0,0,0.992,1290.97,1117.8)" d="M0,0 C0,2.8 2.2,5 5,5 C7.8,5 10,2.8 10,0 C10,-2.8 7.8,-5 5,-5 C2.2,-5 0,-2.8 0,0"/>
<path class="NoteDot" transform="matrix(0.992,0,0,0.992,2055.24,1217)" d="M0,0 C0,2.8 2.2,5 5,5 C7.8,5 10,2.8 10,0 C10,-2.8 7.8,-5 5,-5 C2.2,-5 0,-2.8 0,0"/>
</svg>
