<?xml version="1.0" encoding="UTF-8" standalone="no"?>
<svg width="2977.2px" height="4208.4px" viewBox="0 0 2977.2 4208.4"
 xmlns="http://www.w3.org/2000/svg" xmlns:xlink="http://www.w3.org/1999/xlink" version="1.2" baseProfile="tiny">
<title>ジョニーが凱旋するとき</title>
<desc>Generated by MuseScore Studio 4.4.0</desc>
<path class="" fill="#ffffff" fill-rule="evenodd" d="M0,0 L2977.2,0 L2977.2,4208.4 L0,4208.4 L0,0 "/>
<polyline class="StaffLines" fill="none" stroke="#000000" stroke-width="2.73" stroke-linejoin="bevel" points="212.598,634.198 2764.6,634.198"/>
<polyline class="StaffLines" fill="none" stroke="#000000" stroke-width="2.73" stroke-linejoin="bevel" points="212.598,658.998 2764.6,658.998"/>
<polyline class="StaffLines" fill="none" stroke="#000000" stroke-width="2.73" stroke-linejoin="bevel" points="212.598,683.798 2764.6,683.798"/>
<polyline class="StaffLines" fill="none" stroke="#000000" stroke-width="2.73" stroke-linejoin="bevel" points="212.598,708.598 2764.6,708.598"/>
<polyline class="StaffLines" fill="none" stroke="#000000" stroke-width="2.73" stroke-linejoin="bevel" points="212.598,733.398 2764.6,733.398"/>
<polyline class="StaffLines" fill="none" stroke="#000000" stroke-width="2.73" stroke-linejoin="bevel" points="212.598,1105.4 2764.6,1105.4"/>
<polyline class="StaffLines" fill="none" stroke="#000000" stroke-width="2.73" stroke-linejoin="bevel" points="212.598,1130.2 2764.6,1130.2"/>
<polyline class="StaffLines" fill="none" stroke="#000000" stroke-width="2.73" stroke-linejoin="bevel" points="212.598,1155 2764.6,1155"/>
<polyline class="StaffLines" fill="none" stroke="#000000" stroke-width="2.73" stroke-linejoin="bevel" points="212.598,1179.8 2764.6,1179.8"/>
<polyline class="StaffLines" fill="none" stroke="#000000" stroke-width="2.73" stroke-linejoin="bevel" points="212.598,1204.6 2764.6,1204.6"/>
<polyline class="StaffLines" fill="none" stroke="#000000" stroke-width="2.73" stroke-linejoin="bevel" points="212.598,1576.6 2764.6,1576.6"/>
<polyline class="StaffLines" fill="none" stroke="#000000" stroke-width="2.73" stroke-linejoin="bevel" points="212.598,1601.4 2764.6,1601.4"/>
<polyline class="StaffLines" fill="none" stroke="#000000" stroke-width="2.73" stroke-linejoin="bevel" points="212.598,1626.2 2764.6,1626.2"/>
<polyline class="StaffLines" fill="none" stroke="#000000" stroke-width="2.73" stroke-linejoin="bevel" points="212.598,1651 2764.6,1651"/>
<polyline class="StaffLines" fill="none" stroke="#000000" stroke-width="2.73" stroke-linejoin="bevel" points="212.598,1675.8 2764.6,1675.8"/>
<path class="Text" d="M905.171,262.445 C911.441,264.315 926.071,272.235 932.231,277.075 L936.741,269.705 C928.161,264.315 919.471,259.915 909.461,255.845 L905.171,262.445 M896.481,288.845 C905.391,292.035 918.041,298.855 924.531,303.915 L928.821,296.435 C920.131,290.935 910.451,285.985 900.881,282.135 L896.481,288.845 M900.221,341.425 C901.871,340.875 902.091,340.875 904.511,340.325 C944.111,332.845 966.771,315.575 980.631,282.245 C977.771,280.265 976.451,279.165 973.811,276.305 C965.891,299.625 948.841,317.775 927.611,325.585 C917.271,329.545 904.951,332.405 898.681,332.405 C898.461,332.405 898.241,332.405 898.021,332.405 L900.221,341.425 M961.601,253.645 C964.791,257.165 970.071,265.305 972.821,271.135 L978.321,267.835 C975.021,261.345 971.941,256.725 967.101,250.785 L961.601,253.645 M974.031,247.815 C978.321,252.765 982.941,259.915 985.361,265.085 L990.861,261.895 C987.231,254.965 984.481,250.895 979.421,244.845 L974.031,247.815 M1063.56,340.435 L1063.56,345.935 L1071.15,345.935 C1070.82,344.065 1070.71,342.635 1070.71,339.115 L1070.71,289.395 C1070.71,285.545 1070.71,283.785 1070.82,280.925 C1068.84,281.035 1066.86,281.145 1063.34,281.145 L1022.42,281.145 C1018.13,281.145 1015.49,280.925 1012.85,280.485 L1012.85,288.075 C1015.6,287.635 1016.59,287.635 1022.42,287.635 L1063.56,287.635 L1063.56,306.775 L1024.95,306.775 C1020.66,306.775 1018.02,306.555 1015.38,306.115 L1015.38,313.595 C1018.13,313.155 1019.01,313.155 1024.84,313.155 L1063.56,313.155 L1063.56,333.835 L1021.32,333.835 C1017.25,333.835 1014.39,333.615 1011.75,333.175 L1011.75,340.875 C1014.5,340.435 1015.38,340.435 1021.32,340.435 L1063.56,340.435 M1120.21,276.195 C1123.51,275.865 1126.48,275.755 1131.87,275.755 L1174.11,275.755 C1179.5,275.755 1182.47,275.865 1185.77,276.195 L1185.77,267.285 C1182.14,267.835 1179.72,267.945 1174,267.945 L1131.98,267.945 C1126.26,267.945 1123.84,267.835 1120.21,267.285 L1120.21,276.195 M1109.1,328.775 C1112.84,328.335 1115.92,328.225 1121.75,328.225 L1184.34,328.225 C1190.17,328.225 1193.36,328.335 1196.99,328.775 L1196.99,319.535 C1193.03,320.085 1190.72,320.195 1184.23,320.195 L1121.86,320.195 C1115.37,320.195 1113.06,320.085 1109.1,319.535 L1109.1,328.775 M1213.26,302.265 C1216.56,301.935 1218.87,301.825 1226.9,301.825 L1290.7,301.825 C1298.07,301.825 1300.6,301.935 1304.12,302.265 L1304.12,293.355 C1300.71,293.795 1298.95,293.905 1290.81,293.905 L1226.9,293.905 C1219.42,293.905 1216.45,293.795 1213.26,293.245 L1213.26,302.265 "/>
<path class="Text" d="M1393.77,253.645 C1397.07,257.165 1402.35,265.305 1405.1,271.135 L1410.6,267.835 C1407.3,261.345 1404.22,256.725 1399.27,250.785 L1393.77,253.645 M1322.93,287.525 C1327.88,286.095 1330.96,285.545 1345.04,283.565 C1340.09,304.355 1330.63,326.355 1321.5,338.345 L1328.98,342.745 C1340.42,322.615 1348.12,303.475 1352.74,282.905 C1356.81,282.465 1358.24,282.355 1360.66,282.355 C1370.89,282.355 1374.19,286.095 1374.19,297.755 C1374.19,310.075 1372.54,321.295 1369.57,328.335 C1368.14,331.855 1366.05,333.615 1363.3,333.615 C1359.34,333.615 1353.18,331.745 1346.91,328.555 C1347.24,330.535 1347.24,331.195 1347.24,332.845 C1347.24,334.385 1347.24,335.155 1347.02,336.805 C1354.28,339.885 1358.9,341.095 1363.63,341.095 C1368.8,341.095 1371.77,339.665 1374.41,335.925 C1378.92,329.545 1381.78,314.915 1381.78,298.085 C1381.78,289.065 1380.24,284.005 1376.39,280.375 C1372.98,277.075 1368.36,275.755 1360.55,275.755 C1358.02,275.755 1356.59,275.865 1354.06,276.085 C1354.94,271.355 1355.93,266.295 1356.37,263.545 C1357.25,257.605 1357.8,255.075 1358.46,252.985 L1349.66,251.995 C1349.66,252.655 1349.66,253.205 1349.66,253.425 C1349.66,258.045 1348.23,268.495 1346.36,276.745 C1330.19,279.055 1326.01,279.495 1322.05,279.605 L1322.93,287.525 M1406.31,247.815 C1410.6,252.765 1415.22,259.915 1417.53,265.085 L1423.03,261.895 C1419.4,254.965 1416.65,250.895 1411.7,244.845 L1406.31,247.815 M1387.83,272.895 C1397.73,282.685 1406.64,298.415 1410.27,312.385 L1417.31,308.425 C1412.69,293.905 1405.21,281.145 1394.32,269.485 L1387.83,272.895 "/>
<path class="Text" d="M1454.27,267.395 L1439.97,267.395 L1439.97,260.135 C1439.97,257.165 1440.08,255.405 1440.41,253.315 L1433.37,253.315 C1433.7,255.515 1433.81,257.275 1433.81,260.355 L1433.81,266.735 C1433.81,269.375 1433.7,271.135 1433.37,273.555 C1436.01,273.225 1437.33,273.225 1441.95,273.225 L1473.08,273.225 C1477.15,273.225 1479.24,273.335 1481.33,273.555 C1481,271.355 1480.89,269.485 1480.89,266.735 L1480.89,260.245 C1480.89,257.165 1481,255.295 1481.33,253.315 L1474.29,253.315 C1474.62,255.405 1474.73,257.165 1474.73,260.135 L1474.73,267.395 L1460.65,267.395 L1460.65,258.705 C1460.65,253.425 1460.76,251.775 1461.09,249.355 L1453.83,249.355 C1454.16,251.555 1454.27,253.535 1454.27,258.595 L1454.27,267.395 M1431.83,343.735 C1434.36,342.965 1434.8,342.855 1444.15,341.205 C1454.05,339.445 1470.88,336.035 1478.91,334.275 L1479.13,328.445 C1472.75,329.765 1470.33,330.315 1468.02,330.755 C1470.22,326.245 1471.65,323.275 1473.41,318.655 L1466.7,316.345 C1465.49,322.175 1463.95,326.465 1461.2,331.965 C1445.03,334.825 1434.91,336.255 1430.18,336.255 L1431.83,343.735 M1429.74,287.525 C1432.6,287.085 1435.24,286.975 1439.86,286.975 L1473.3,286.975 C1478.47,286.975 1480.89,287.085 1483.86,287.525 L1483.86,280.485 C1481,280.925 1478.58,281.035 1473.3,281.035 L1439.97,281.035 C1435.02,281.035 1432.6,280.925 1429.74,280.485 L1429.74,287.525 M1477.92,302.375 C1477.92,298.855 1478.03,296.545 1478.25,294.125 C1475.28,294.345 1472.97,294.455 1468.57,294.455 L1445.91,294.455 C1441.62,294.455 1439.09,294.345 1436.23,294.125 C1436.45,296.545 1436.56,299.295 1436.56,302.375 L1436.56,306.775 C1436.56,309.965 1436.45,312.715 1436.23,314.915 C1438.98,314.695 1441.95,314.585 1446.13,314.585 L1468.24,314.585 C1472.75,314.585 1475.5,314.695 1478.25,314.915 C1478.03,313.155 1477.92,310.405 1477.92,306.775 L1477.92,302.375 M1443.27,300.065 L1471.65,300.065 L1471.65,309.195 L1443.27,309.195 L1443.27,300.065 M1440.19,319.315 C1443.16,324.155 1444.15,326.465 1446.13,332.295 L1452.29,329.875 C1450.42,324.925 1448.99,321.625 1446.46,316.785 L1440.19,319.315 M1495.96,258.925 L1510.59,258.925 L1510.59,338.895 C1510.59,343.845 1512.79,345.385 1519.61,345.385 C1526.32,345.385 1528.3,344.395 1529.62,340.325 C1530.94,336.035 1531.49,331.745 1531.82,321.405 C1529.51,320.965 1527.97,320.305 1525.55,318.875 C1525.55,324.815 1525.33,329.655 1524.78,333.725 C1524.23,338.345 1523.68,339.005 1520.71,339.005 C1517.85,339.005 1517.19,338.565 1517.19,336.695 L1517.19,262.555 C1517.19,257.935 1517.3,255.295 1517.63,252.325 C1514.88,252.655 1512.24,252.765 1507.73,252.765 L1498.49,252.765 C1493.98,252.765 1491.78,252.655 1488.81,252.325 C1489.14,255.185 1489.25,258.705 1489.25,262.225 L1489.14,286.755 C1489.14,289.505 1488.92,295.665 1488.37,302.705 C1487.93,309.855 1487.05,315.575 1485.73,321.185 C1483.53,329.875 1480.45,335.705 1474.18,342.855 C1476.82,344.505 1477.81,345.385 1479.9,347.585 C1488.92,336.035 1492.44,327.015 1494.31,310.845 C1495.3,302.815 1496.07,286.755 1496.07,273.885 C1496.07,273.115 1496.07,272.345 1495.96,271.575 L1495.96,258.925 M1556.13,266.405 L1548.32,266.405 C1544.03,266.405 1541.61,266.185 1538.75,265.745 L1538.75,273.115 C1541.39,272.675 1543.59,272.565 1547.99,272.565 L1550.52,272.565 C1550.19,313.265 1547.22,327.895 1536.33,340.875 C1538.75,342.745 1539.85,343.845 1541.72,346.485 C1548.1,337.795 1551.4,330.315 1553.49,319.975 C1555.03,312.385 1556.02,303.475 1556.46,293.135 L1568.45,293.135 C1568.45,308.975 1567.79,319.975 1566.58,329.435 C1565.59,337.465 1564.93,338.455 1560.75,338.455 C1558.11,338.455 1555.8,338.125 1551.73,337.135 C1552.39,339.445 1552.61,340.765 1552.94,344.175 C1556.68,344.725 1558.88,344.835 1561.08,344.835 C1565.04,344.835 1567.57,344.285 1569,342.965 C1570.65,341.535 1571.97,338.015 1572.85,332.185 C1574.06,323.715 1574.83,309.855 1574.83,293.465 C1574.94,290.385 1574.94,288.845 1575.16,286.645 C1572.85,286.975 1570.87,287.085 1567.35,287.085 L1556.68,287.085 C1556.9,282.795 1556.9,282.795 1556.9,272.565 L1569.11,272.565 C1573.73,272.565 1576.26,272.675 1578.9,273.005 L1578.9,265.855 C1575.82,266.295 1573.07,266.405 1569.11,266.405 L1562.95,266.405 L1562.95,259.255 C1562.95,254.965 1563.06,252.325 1563.61,249.135 L1555.47,249.135 C1555.91,252.325 1556.13,255.075 1556.13,259.255 L1556.13,266.405 M1626.75,269.265 C1631.37,269.265 1634.56,269.375 1637.75,269.705 L1637.75,262.335 C1635,262.775 1631.7,262.995 1626.53,262.995 L1593.31,262.995 C1593.75,262.005 1594.19,260.795 1596.72,254.415 C1598.15,250.675 1598.15,250.675 1598.59,249.685 L1591.11,248.145 C1591,249.465 1590.67,250.895 1590.01,253.095 C1586.05,265.855 1581.76,273.775 1573.62,283.235 C1576.37,284.775 1577.47,285.655 1579.23,287.525 C1584.51,280.375 1586.6,276.855 1590.45,269.265 L1626.75,269.265 M1605.19,286.535 L1605.19,332.625 C1599.14,328.665 1594.74,323.495 1591.88,317.005 C1592.87,311.945 1593.53,307.325 1593.97,302.925 C1594.19,300.065 1594.41,298.415 1594.74,296.545 L1587.7,295.665 C1587.7,296.655 1587.7,297.535 1587.7,298.085 C1587.7,304.795 1586.38,314.145 1584.51,321.295 C1582.09,330.755 1578.68,337.355 1573.07,343.845 C1576.04,345.275 1576.48,345.605 1579.23,347.695 C1584.07,341.315 1587.48,334.055 1590.01,324.925 C1597.6,339.225 1610.8,345.385 1633.68,345.385 C1634.78,345.385 1635.99,345.385 1637.86,345.385 C1638.3,342.415 1638.85,340.765 1640.17,337.905 C1636.1,338.125 1633.35,338.235 1631.59,338.235 C1624.88,338.235 1617.4,337.245 1611.79,335.595 L1611.79,312.715 L1623.12,312.715 C1627.85,312.715 1630.27,312.825 1632.8,313.265 L1632.8,306.115 C1630.16,306.555 1627.74,306.665 1623.01,306.665 L1611.79,306.665 L1611.79,286.535 L1627.3,286.535 C1625.43,291.155 1623.78,293.465 1620.37,296.985 C1622.35,297.535 1624.55,298.415 1626.42,299.625 C1629.06,295.995 1632.36,290.385 1634.01,286.755 C1634.56,285.545 1635.11,284.335 1635.44,283.675 L1632.03,280.045 C1629.39,280.375 1626.75,280.485 1622.35,280.485 L1596.17,280.485 C1591.88,280.485 1589.46,280.375 1587.04,280.045 L1587.04,287.085 C1589.68,286.645 1591.88,286.535 1596.28,286.535 L1605.19,286.535 "/>
<path class="Text" d="M1704.52,266.735 C1697.04,266.955 1688.46,267.175 1677.9,267.615 C1660.19,268.275 1660.19,268.275 1657,268.275 C1655.35,268.275 1654.58,268.275 1652.6,268.165 L1652.93,276.195 C1660.3,274.985 1682.52,273.885 1704.63,273.445 C1704.63,277.625 1704.63,277.625 1704.63,279.165 C1704.63,280.485 1704.74,281.585 1704.74,282.025 C1704.74,286.095 1704.74,286.535 1704.85,288.075 C1701.99,284.885 1697.37,283.125 1692.09,283.125 C1680.87,283.125 1672.62,290.825 1672.62,301.275 C1672.62,311.395 1680.1,318.655 1690.66,318.655 C1696.49,318.655 1701.22,316.675 1704.52,312.715 C1705.84,311.175 1706.5,309.965 1707.49,307.325 C1707.05,317.335 1703.2,324.485 1695.17,330.535 C1690.77,333.835 1685.93,336.035 1677.35,338.785 C1679.66,341.205 1680.32,342.195 1682.19,345.715 C1690.22,342.635 1695.06,340.105 1699.57,336.805 C1709.03,329.655 1714.31,319.535 1714.31,308.095 C1714.31,303.255 1713.54,299.735 1711.67,295.115 L1711.67,273.335 C1720.58,273.115 1721.79,273.115 1723.44,273.115 C1736.53,273.115 1740.38,273.225 1744.45,273.665 L1744.45,265.855 C1740.82,266.295 1732.35,266.515 1711.56,266.625 L1711.56,265.415 C1711.56,256.835 1711.67,255.185 1712.11,251.665 L1703.86,251.665 C1704.19,253.975 1704.3,255.185 1704.3,258.045 L1704.52,266.735 M1704.19,298.855 C1704.19,306.555 1698.91,311.835 1691.32,311.835 C1684.61,311.835 1679.99,307.325 1679.99,300.945 C1679.99,294.345 1685.27,289.395 1692.2,289.395 C1695.17,289.395 1697.48,289.945 1699.57,291.155 C1702.76,292.915 1704.19,295.225 1704.19,298.855 M1780.2,266.295 C1782.62,265.965 1783.72,265.855 1786.14,265.745 C1802.86,265.195 1816.06,264.425 1819.58,263.765 C1820.24,263.655 1820.24,263.655 1820.57,263.655 L1820.79,263.875 L1820.35,264.315 C1820.13,264.535 1819.91,264.755 1819.91,264.755 C1819.03,265.635 1819.03,265.635 1818.37,266.295 C1810.78,273.775 1793.4,289.065 1781.63,298.415 C1774.15,304.465 1770.19,307.325 1766.23,309.635 L1771.18,316.675 C1783.94,304.905 1801.32,297.865 1817.49,297.865 C1832.34,297.865 1841.14,304.135 1841.14,314.695 C1841.14,324.045 1835.09,330.755 1823.54,333.945 C1822,329.105 1820.79,326.465 1818.48,323.385 C1814.08,317.555 1807.7,314.365 1800.33,314.365 C1791.2,314.365 1784.38,319.865 1784.38,327.235 C1784.38,337.355 1793.29,343.075 1808.8,343.075 C1833.22,343.075 1849.17,331.745 1849.17,314.585 C1849.17,300.505 1837.4,291.485 1819.03,291.485 C1809.35,291.485 1800.44,293.795 1792.08,298.305 L1791.86,297.975 C1799.56,293.025 1812.87,281.585 1828.05,266.735 C1831.57,263.325 1832.12,262.885 1833.66,262.115 L1829.04,256.065 C1827.61,256.835 1826.62,257.055 1823.76,257.275 C1813.86,258.045 1799.23,258.705 1790.1,258.705 C1784.82,258.705 1782.84,258.595 1779.76,258.045 L1780.2,266.295 M1816.28,335.925 C1812.32,336.585 1811,336.695 1808.25,336.695 C1803.52,336.695 1798.79,335.705 1795.93,334.165 C1792.96,332.405 1791.53,330.315 1791.53,327.455 C1791.53,323.275 1794.94,320.635 1800.44,320.635 C1808.36,320.635 1813.86,325.915 1816.28,335.925 M1897.79,253.645 C1898.45,255.405 1898.67,255.955 1899.66,260.575 C1902.52,274.655 1904.61,282.355 1907.69,291.375 C1900.87,294.785 1897.46,296.875 1893.28,300.285 C1886.79,305.565 1883.49,311.945 1883.49,318.985 C1883.49,327.675 1888.11,333.725 1897.13,337.025 C1902.41,339.005 1910.66,339.995 1921.55,339.995 C1929.25,339.995 1934.53,339.665 1945.86,338.565 C1951.91,337.905 1951.91,337.905 1954,337.905 L1953.12,328.775 C1946.63,331.085 1934.31,332.515 1921.66,332.515 C1900.1,332.515 1891.63,328.665 1891.63,318.655 C1891.63,309.525 1899.77,302.265 1918.58,294.785 C1928.26,290.825 1943.99,285.765 1951.69,284.115 L1948.39,275.755 C1946.19,276.855 1945.2,277.185 1941.35,278.615 C1924.3,284.555 1921.22,285.765 1914.73,288.405 C1910.99,277.405 1906.92,259.365 1906.48,251.995 L1897.79,253.645 M1990.74,275.975 C1992.72,275.755 1992.94,275.755 1997.56,275.645 C2009.99,275.425 2018.79,274.875 2027.26,273.665 C2030.01,279.605 2030.67,280.815 2033.53,286.205 C2024.51,287.855 2010.32,288.955 1998.88,288.955 C1994.48,288.955 1992.5,288.845 1990.08,288.625 L1990.3,295.885 C1992.28,295.665 1992.72,295.665 1998,295.445 C2018.57,294.785 2025.72,294.235 2036.61,292.255 C2040.46,298.965 2044.97,305.565 2048.38,309.195 C2041.12,306.885 2035.29,306.005 2026.16,306.005 C2005.26,306.005 1992.61,313.155 1992.61,325.035 C1992.61,330.755 1995.58,335.705 2000.86,338.675 C2006.47,341.865 2013.4,343.295 2023.52,343.295 C2033.31,343.295 2042.66,341.975 2051.68,339.225 C2056.74,337.685 2056.74,337.685 2058.28,337.355 L2056.74,328.775 C2050.14,332.845 2035.62,336.145 2024.18,336.145 C2009.11,336.145 2000.75,332.185 2000.75,324.925 C2000.75,317.335 2010.98,312.385 2026.82,312.385 C2031.77,312.385 2037.38,312.825 2041.23,313.375 C2046.62,314.255 2049.15,315.135 2053.33,317.555 L2059.82,312.935 C2051.35,303.035 2050.14,301.495 2043.65,291.045 C2047.72,290.275 2053.22,289.065 2060.92,287.085 C2064.55,286.095 2064.99,286.095 2066.86,285.655 L2065.98,278.285 C2061.47,280.485 2055.31,282.135 2040.79,285.105 C2039.14,282.135 2036.17,276.305 2034.52,272.675 C2040.68,271.685 2052.45,269.155 2062.24,266.515 L2061.58,259.365 C2055.42,262.005 2045.08,264.535 2032.21,266.625 C2029.46,260.795 2027.37,255.075 2026.38,251.115 L2018.13,252.545 C2019.12,254.085 2021.32,259.145 2024.73,267.615 C2014.61,268.715 2007.9,269.155 1998.66,269.155 C1994.92,269.155 1993.05,269.045 1990.41,268.825 L1990.74,275.975 "/>
<path class="MeasureNumber" d="M217.481,1042.4 C218.161,1038.88 218.961,1036.68 220.481,1034 C222.281,1030.84 224.441,1029.24 226.841,1029.24 C228.081,1029.24 228.841,1029.72 228.841,1030.48 C228.841,1030.76 228.761,1030.92 228.481,1031.44 C228.121,1032.12 227.961,1032.6 227.961,1033.2 C227.961,1034.48 228.921,1035.36 230.281,1035.36 C231.921,1035.36 233.041,1034.16 233.041,1032.36 C233.041,1029.64 230.481,1027.64 226.921,1027.64 C218.001,1027.64 212.601,1039.28 212.601,1046.96 C212.601,1052.84 215.521,1056.4 220.401,1056.4 C226.401,1056.4 230.841,1051.44 230.841,1045.56 C230.841,1041.48 228.081,1038.64 224.081,1038.64 C221.281,1038.64 219.121,1039.84 217.481,1042.4 M222.801,1040.96 C225.281,1040.96 226.641,1042.68 226.641,1045.8 C226.641,1050.88 223.961,1054.76 220.401,1054.76 C217.841,1054.76 216.321,1052.88 216.321,1049.68 C216.321,1044.68 219.081,1040.96 222.801,1040.96"/>
<path class="MeasureNumber" d="M228.958,1498.68 L227.798,1498.68 C225.598,1500.32 221.358,1501.72 218.478,1501.72 L217.998,1503.48 L220.758,1503.48 C223.198,1503.48 223.478,1503.56 223.478,1504.28 C223.478,1504.64 223.478,1504.64 223.078,1506.08 L218.798,1522.08 C218.278,1524.08 218.238,1524.2 217.878,1524.56 C217.478,1524.96 216.638,1525.08 214.518,1525.12 L212.798,1525.12 L212.598,1527 L227.398,1527 L227.638,1525.12 L225.478,1525.12 C222.878,1525.12 222.318,1524.92 222.318,1524.04 C222.318,1523.76 222.478,1522.84 222.678,1522.08 L228.958,1498.68 M251.193,1498.68 L250.033,1498.68 C247.833,1500.32 243.593,1501.72 240.713,1501.72 L240.233,1503.48 L242.993,1503.48 C245.433,1503.48 245.713,1503.56 245.713,1504.28 C245.713,1504.64 245.713,1504.64 245.313,1506.08 L241.033,1522.08 C240.513,1524.08 240.473,1524.2 240.113,1524.56 C239.713,1524.96 238.873,1525.08 236.753,1525.12 L235.033,1525.12 L234.833,1527 L249.633,1527 L249.873,1525.12 L247.713,1525.12 C245.113,1525.12 244.553,1524.92 244.553,1524.04 C244.553,1523.76 244.713,1522.84 244.913,1522.08 L251.193,1498.68 "/>
<path class="TieSegment" stroke="#000000" stroke-width="1.74" stroke-linecap="round" stroke-linejoin="round" fill-rule="evenodd" d="M2426.64,1693.89 C2454.1,1713.71 2536.47,1713.71 2563.92,1693.89 C2536.47,1720.65 2454.1,1720.65 2426.64,1693.89"/>
<path class="TieSegment" stroke="#000000" stroke-width="1.74" stroke-linecap="round" stroke-linejoin="round" fill-rule="evenodd" d="M909.914,1136.9 C942.828,1108.33 1041.57,1108.33 1074.48,1136.9 C1041.57,1115.27 942.828,1115.27 909.914,1136.9"/>
<path class="TieSegment" stroke="#000000" stroke-width="1.74" stroke-linecap="round" stroke-linejoin="round" fill-rule="evenodd" d="M1339.03,1136.9 C1371.94,1108.33 1470.68,1108.33 1503.6,1136.9 C1470.68,1115.27 1371.94,1115.27 1339.03,1136.9"/>
<path class="TieSegment" stroke="#000000" stroke-width="1.74" stroke-linecap="round" stroke-linejoin="round" fill-rule="evenodd" d="M1520.54,763.895 C1551.01,784.735 1642.41,784.735 1672.88,763.895 C1642.41,791.679 1551.01,791.679 1520.54,763.895"/>
<path class="TieSegment" stroke="#000000" stroke-width="1.74" stroke-linecap="round" stroke-linejoin="round" fill-rule="evenodd" d="M1921.58,763.895 C1952.05,784.735 2043.46,784.735 2073.92,763.895 C2043.46,791.679 1952.05,791.679 1921.58,763.895"/>
<polyline class="BarLine" fill="none" stroke="#000000" stroke-width="4.46" stroke-linejoin="bevel" points="1017.8,632.834 1017.8,734.762"/>
<polyline class="BarLine" fill="none" stroke="#000000" stroke-width="4.46" stroke-linejoin="bevel" points="1468.36,632.834 1468.36,734.762"/>
<polyline class="BarLine" fill="none" stroke="#000000" stroke-width="4.46" stroke-linejoin="bevel" points="525.884,632.834 525.884,734.762"/>
<polyline class="BarLine" fill="none" stroke="#000000" stroke-width="4.46" stroke-linejoin="bevel" points="1918.17,1575.23 1918.17,1677.16"/>
<polyline class="BarLine" fill="none" stroke="#000000" stroke-width="4.46" stroke-linejoin="bevel" points="1596.98,1575.23 1596.98,1677.16"/>
<polyline class="BarLine" fill="none" stroke="#000000" stroke-width="4.46" stroke-linejoin="bevel" points="854.908,1104.03 854.908,1205.96"/>
<polyline class="BarLine" fill="none" stroke="#000000" stroke-width="4.46" stroke-linejoin="bevel" points="1284.02,1104.03 1284.02,1205.96"/>
<polyline class="BarLine" fill="none" stroke="#000000" stroke-width="4.46" stroke-linejoin="bevel" points="1275.79,1575.23 1275.79,1677.16"/>
<polyline class="BarLine" fill="none" stroke="#000000" stroke-width="4.46" stroke-linejoin="bevel" points="2762.37,632.834 2762.37,734.762"/>
<polyline class="BarLine" fill="none" stroke="#000000" stroke-width="4.46" stroke-linejoin="bevel" points="820.57,1575.23 820.57,1677.16"/>
<polyline class="BarLine" fill="none" stroke="#000000" stroke-width="4.46" stroke-linejoin="bevel" points="2374.46,1575.23 2374.46,1677.16"/>
<polyline class="BarLine" fill="none" stroke="#000000" stroke-width="4.46" stroke-linejoin="bevel" points="1752.85,1104.03 1752.85,1205.96"/>
<polyline class="BarLine" fill="none" stroke="#000000" stroke-width="4.46" stroke-linejoin="bevel" points="2270.45,632.834 2270.45,734.762"/>
<polyline class="BarLine" fill="none" stroke="#000000" stroke-width="4.46" stroke-linejoin="bevel" points="2740.42,1575.23 2740.42,1677.16"/>
<polyline class="BarLine" fill="none" stroke="#000000" stroke-width="13.64" stroke-linejoin="bevel" points="2757.78,1575.23 2757.78,1677.16"/>
<polyline class="BarLine" fill="none" stroke="#000000" stroke-width="4.46" stroke-linejoin="bevel" points="2762.37,1104.03 2762.37,1205.96"/>
<polyline class="BarLine" fill="none" stroke="#000000" stroke-width="4.46" stroke-linejoin="bevel" points="1869.41,632.834 1869.41,734.762"/>
<polyline class="BarLine" fill="none" stroke="#000000" stroke-width="4.46" stroke-linejoin="bevel" points="2279.9,1104.03 2279.9,1205.96"/>
<path class="Accidental" transform="matrix(0.992,0,0,0.992,2258.88,1688.2)" d="M23.3,-10.5 C23.9,-10.6 24.4,-11.3 24.4,-11.9 L24.4,-17.8 C24.4,-18.8 23.7,-19.2 22.8,-19.2 L19.5,-18.5 L19.5,-33.4 L16.7,-33.4 L16.7,-17.9 L7.8,-16.1 L7.8,-30.2 L5,-30.2 L5,-15.5 L1.1,-14.7 C0.5,-14.6 0,-13.9 0,-13.3 L0,-7.5 C0,-6.4 0.8,-6.1 1.7,-6.1 L5,-6.8 L5,9.7 L1.1,10.5 C0.5,10.6 0,11.3 0,11.9 L0,17.7 C0,18.8 0.8,19.1 1.7,19.1 L5,18.4 L5,33.3 L7.8,33.3 L7.8,17.8 L16.7,16 L16.7,30.1 L19.5,30.1 L19.5,15.4 L23.3,14.7 C23.9,14.6 24.4,13.9 24.4,13.3 L24.4,7.4 C24.4,6.4 23.7,6 22.8,6 L19.5,6.7 L19.5,-9.8 L23.3,-10.5 M7.8,-7.4 L16.7,-9.2 L16.7,7.3 L7.8,9.2 L7.8,-7.4 "/>
<polyline class="LedgerLine" fill="none" stroke="#000000" stroke-width="3.97" stroke-linejoin="bevel" points="551.676,758.198 601.261,758.198"/>
<polyline class="LedgerLine" fill="none" stroke="#000000" stroke-width="3.97" stroke-linejoin="bevel" points="1943.97,1700.6 1993.55,1700.6"/>
<polyline class="LedgerLine" fill="none" stroke="#000000" stroke-width="3.97" stroke-linejoin="bevel" points="2296.24,758.198 2345.83,758.198"/>
<polyline class="LedgerLine" fill="none" stroke="#000000" stroke-width="3.97" stroke-linejoin="bevel" points="1775.54,758.198 1825.12,758.198"/>
<polyline class="Stem" fill="none" stroke="#000000" stroke-width="2.73" stroke-linejoin="bevel" points="1652.61,1175.83 1652.61,1092.86"/>
<polyline class="Stem" fill="none" stroke="#000000" stroke-width="2.73" stroke-linejoin="bevel" points="839.389,729.43 839.389,646.598"/>
<polyline class="Stem" fill="none" stroke="#000000" stroke-width="2.73" stroke-linejoin="bevel" points="1815.08,766.63 1815.08,683.997"/>
<polyline class="Stem" fill="none" stroke="#000000" stroke-width="2.73" stroke-linejoin="bevel" points="1934.74,741.83 1934.74,658.998"/>
<polyline class="Stem" fill="none" stroke="#000000" stroke-width="2.73" stroke-linejoin="bevel" points="2582.04,1671.83 2582.04,1589"/>
<polyline class="Stem" fill="none" stroke="#000000" stroke-width="2.73" stroke-linejoin="bevel" points="2439.79,1671.83 2439.79,1589"/>
<polyline class="Stem" fill="none" stroke="#000000" stroke-width="2.73" stroke-linejoin="bevel" points="2092.04,741.83 2092.04,658.998"/>
<polyline class="Stem" fill="none" stroke="#000000" stroke-width="2.73" stroke-linejoin="bevel" points="2320.13,1684.23 2320.13,1601.6"/>
<polyline class="Stem" fill="none" stroke="#000000" stroke-width="2.73" stroke-linejoin="bevel" points="963.475,717.03 963.475,634.397"/>
<polyline class="Stem" fill="none" stroke="#000000" stroke-width="2.73" stroke-linejoin="bevel" points="2216.12,729.43 2216.12,646.797"/>
<polyline class="Stem" fill="none" stroke="#000000" stroke-width="2.73" stroke-linejoin="bevel" points="2130.22,1163.43 2130.22,1089.9"/>
<polyline class="Stem" fill="none" stroke="#000000" stroke-width="2.73" stroke-linejoin="bevel" points="2345.23,1163.43 2345.23,1086.8"/>
<polyline class="Stem" fill="none" stroke="#000000" stroke-width="2.73" stroke-linejoin="bevel" points="2207.92,1671.83 2207.92,1589"/>
<polyline class="Stem" fill="none" stroke="#000000" stroke-width="2.73" stroke-linejoin="bevel" points="2133.12,1671.83 2133.12,1601.45"/>
<polyline class="Stem" fill="none" stroke="#000000" stroke-width="2.73" stroke-linejoin="bevel" points="2335.78,766.63 2335.78,665.148"/>
<polyline class="Stem" fill="none" stroke="#000000" stroke-width="2.73" stroke-linejoin="bevel" points="1690.99,741.83 1690.99,658.998"/>
<polyline class="Stem" fill="none" stroke="#000000" stroke-width="2.73" stroke-linejoin="bevel" points="2058.31,1671.83 2058.31,1604.5"/>
<polyline class="Stem" fill="none" stroke="#000000" stroke-width="2.73" stroke-linejoin="bevel" points="2478.96,1163.43 2478.96,1087"/>
<polyline class="Stem" fill="none" stroke="#000000" stroke-width="2.73" stroke-linejoin="bevel" points="2418.51,729.43 2418.51,662.098"/>
<polyline class="Stem" fill="none" stroke="#000000" stroke-width="2.73" stroke-linejoin="bevel" points="1983.51,1709.03 1983.51,1607.54"/>
<polyline class="Stem" fill="none" stroke="#000000" stroke-width="2.73" stroke-linejoin="bevel" points="2501.23,729.43 2501.23,659.049"/>
<polyline class="Stem" fill="none" stroke="#000000" stroke-width="2.73" stroke-linejoin="bevel" points="471.557,729.43 471.557,646.797"/>
<polyline class="Stem" fill="none" stroke="#000000" stroke-width="2.73" stroke-linejoin="bevel" points="2583.96,729.43 2583.96,646.598"/>
<polyline class="Stem" fill="none" stroke="#000000" stroke-width="2.73" stroke-linejoin="bevel" points="1804.56,1659.43 1804.56,1576.6"/>
<polyline class="Stem" fill="none" stroke="#000000" stroke-width="2.73" stroke-linejoin="bevel" points="2041.06,1151.03 2041.06,1086.85"/>
<polyline class="Stem" fill="none" stroke="#000000" stroke-width="2.73" stroke-linejoin="bevel" points="2708.04,717.03 2708.04,634.397"/>
<polyline class="Stem" fill="none" stroke="#000000" stroke-width="2.73" stroke-linejoin="bevel" points="1662.32,1647.03 1662.32,1564.2"/>
<polyline class="Stem" fill="none" stroke="#000000" stroke-width="2.73" stroke-linejoin="bevel" points="591.217,766.63 591.217,665.148"/>
<polyline class="Stem" fill="none" stroke="#000000" stroke-width="2.73" stroke-linejoin="bevel" points="1483.37,1634.63 1483.37,1558"/>
<polyline class="Stem" fill="none" stroke="#000000" stroke-width="2.73" stroke-linejoin="bevel" points="1533.69,741.83 1533.69,658.998"/>
<polyline class="Stem" fill="none" stroke="#000000" stroke-width="2.73" stroke-linejoin="bevel" points="1311.63,1630.36 1311.63,1700.6"/>
<polyline class="Stem" fill="none" stroke="#000000" stroke-width="2.73" stroke-linejoin="bevel" points="1414.03,717.03 1414.03,634.397"/>
<polyline class="Stem" fill="none" stroke="#000000" stroke-width="2.73" stroke-linejoin="bevel" points="1235,1634.63 1235,1558.16"/>
<polyline class="Stem" fill="none" stroke="#000000" stroke-width="2.73" stroke-linejoin="bevel" points="1185.13,1647.03 1185.13,1564.04"/>
<polyline class="Stem" fill="none" stroke="#000000" stroke-width="2.73" stroke-linejoin="bevel" points="437.767,1175.83 437.767,1093"/>
<polyline class="Stem" fill="none" stroke="#000000" stroke-width="2.73" stroke-linejoin="bevel" points="1072.92,1659.43 1072.92,1576.6"/>
<polyline class="Stem" fill="none" stroke="#000000" stroke-width="2.73" stroke-linejoin="bevel" points="1922.41,1159.16 1922.41,1235.5"/>
<polyline class="Stem" fill="none" stroke="#000000" stroke-width="2.73" stroke-linejoin="bevel" points="571.498,1188.23 571.498,1105.6"/>
<polyline class="Stem" fill="none" stroke="#000000" stroke-width="2.73" stroke-linejoin="bevel" points="998.111,1659.43 998.111,1576.8"/>
<polyline class="Stem" fill="none" stroke="#000000" stroke-width="2.73" stroke-linejoin="bevel" points="660.652,1175.83 660.652,1093"/>
<polyline class="Stem" fill="none" stroke="#000000" stroke-width="2.73" stroke-linejoin="bevel" points="2568.11,1163.43 2568.11,1086.8"/>
<polyline class="Stem" fill="none" stroke="#000000" stroke-width="2.73" stroke-linejoin="bevel" points="1788.68,1159.16 1788.68,1229.4"/>
<polyline class="Stem" fill="none" stroke="#000000" stroke-width="2.73" stroke-linejoin="bevel" points="794.383,1163.43 794.383,1087"/>
<polyline class="Stem" fill="none" stroke="#000000" stroke-width="2.73" stroke-linejoin="bevel" points="885.902,1659.43 885.902,1576.6"/>
<polyline class="Stem" fill="none" stroke="#000000" stroke-width="2.73" stroke-linejoin="bevel" points="1083.14,704.63 1083.14,621.798"/>
<polyline class="Stem" fill="none" stroke="#000000" stroke-width="2.73" stroke-linejoin="bevel" points="673.941,729.43 673.941,662.098"/>
<polyline class="Stem" fill="none" stroke="#000000" stroke-width="2.73" stroke-linejoin="bevel" points="890.744,1159.16 890.744,1229.4"/>
<polyline class="Stem" fill="none" stroke="#000000" stroke-width="2.73" stroke-linejoin="bevel" points="774.393,1671.83 774.393,1582.74"/>
<polyline class="Stem" fill="none" stroke="#000000" stroke-width="2.73" stroke-linejoin="bevel" points="699.587,1659.43 699.587,1579.7"/>
<polyline class="Stem" fill="none" stroke="#000000" stroke-width="2.73" stroke-linejoin="bevel" points="1060.27,1159.16 1060.27,1229.4"/>
<polyline class="Stem" fill="none" stroke="#000000" stroke-width="2.73" stroke-linejoin="bevel" points="624.781,1647.03 624.781,1576.65"/>
<polyline class="Stem" fill="none" stroke="#000000" stroke-width="2.73" stroke-linejoin="bevel" points="2701.84,1188.23 2701.84,1105.6"/>
<polyline class="Stem" fill="none" stroke="#000000" stroke-width="2.73" stroke-linejoin="bevel" points="1223.5,1175.83 1223.5,1093.2"/>
<polyline class="Stem" fill="none" stroke="#000000" stroke-width="2.73" stroke-linejoin="bevel" points="549.975,1647.03 549.975,1564.4"/>
<polyline class="Stem" fill="none" stroke="#000000" stroke-width="2.73" stroke-linejoin="bevel" points="1289.95,704.63 1289.95,621.798"/>
<polyline class="Stem" fill="none" stroke="#000000" stroke-width="2.73" stroke-linejoin="bevel" points="1712.05,1163.43 1712.05,1086.93"/>
<polyline class="Stem" fill="none" stroke="#000000" stroke-width="2.73" stroke-linejoin="bevel" points="1319.86,1159.16 1319.86,1229.4"/>
<polyline class="Stem" fill="none" stroke="#000000" stroke-width="2.73" stroke-linejoin="bevel" points="437.767,1647.03 437.767,1564.2"/>
<polyline class="Stem" fill="none" stroke="#000000" stroke-width="2.73" stroke-linejoin="bevel" points="756.665,729.43 756.665,659.049"/>
<polyline class="Stem" fill="none" stroke="#000000" stroke-width="2.73" stroke-linejoin="bevel" points="1489.39,1159.16 1489.39,1229.4"/>
<polyline class="Stem" fill="none" stroke="#000000" stroke-width="2.73" stroke-linejoin="bevel" points="1207.22,717.03 1207.22,634.397"/>
<polyline class="Stem" fill="none" stroke="#000000" stroke-width="2.73" stroke-linejoin="bevel" points="2219.37,1175.83 2219.37,1092.95"/>
<path class="Hook" transform="matrix(0.992,0,0,0.992,1205.86,634.198)" d="M0,22.7 C0,23 0.1,23.6 0.8,23.8 C5.1,25.2 13.7,30.6 20.2,41.7 C22,44.8 24.9,49.1 24.9,57.4 C24.9,64.6 23.1,72 20.4,79.2 C20.2,79.8 20.1,80.3 20.1,80.7 C20.1,81.4 20.5,81.7 21.2,81.7 C21.8,81.7 22.3,81.3 22.7,80.6 C27.2,72.6 28.9,63.3 28.9,54.2 C28.4,41.3 21,31.8 21,31.8 C21.3,31.8 11.8,19.5 9.1,15.3 C5.4,9.6 3.7,3.9 3.5,3.5 C3.4,3.2 2.5,-0.4 2.5,-0.4 C2.4,-0.8 1.9,-1.2 1.3,-1.2 C0.6,-1.2 0,-0.6 0,0.1 L0,22.7 "/>
<path class="Hook" transform="matrix(0.992,0,0,0.992,962.111,634.198)" d="M0,22.7 C0,23 0.1,23.6 0.8,23.8 C5.1,25.2 13.7,30.6 20.2,41.7 C22,44.8 24.9,49.1 24.9,57.4 C24.9,64.6 23.1,72 20.4,79.2 C20.2,79.8 20.1,80.3 20.1,80.7 C20.1,81.4 20.5,81.7 21.2,81.7 C21.8,81.7 22.3,81.3 22.7,80.6 C27.2,72.6 28.9,63.3 28.9,54.2 C28.4,41.3 21,31.8 21,31.8 C21.3,31.8 11.8,19.5 9.1,15.3 C5.4,9.6 3.7,3.9 3.5,3.5 C3.4,3.2 2.5,-0.4 2.5,-0.4 C2.4,-0.8 1.9,-1.2 1.3,-1.2 C0.6,-1.2 0,-0.6 0,0.1 L0,22.7 "/>
<path class="Hook" transform="matrix(0.992,0,0,0.992,548.611,1564.2)" d="M0,22.7 C0,23 0.1,23.6 0.8,23.8 C5.1,25.2 13.7,30.6 20.2,41.7 C22,44.8 24.9,49.1 24.9,57.4 C24.9,64.6 23.1,72 20.4,79.2 C20.2,79.8 20.1,80.3 20.1,80.7 C20.1,81.4 20.5,81.7 21.2,81.7 C21.8,81.7 22.3,81.3 22.7,80.6 C27.2,72.6 28.9,63.3 28.9,54.2 C28.4,41.3 21,31.8 21,31.8 C21.3,31.8 11.8,19.5 9.1,15.3 C5.4,9.6 3.7,3.9 3.5,3.5 C3.4,3.2 2.5,-0.4 2.5,-0.4 C2.4,-0.8 1.9,-1.2 1.3,-1.2 C0.6,-1.2 0,-0.6 0,0.1 L0,22.7 "/>
<path class="Hook" transform="matrix(0.992,0,0,0.992,1222.13,1093)" d="M0,22.7 C0,23 0.1,23.6 0.8,23.8 C5.1,25.2 13.7,30.6 20.2,41.7 C22,44.8 24.9,49.1 24.9,57.4 C24.9,64.6 23.1,72 20.4,79.2 C20.2,79.8 20.1,80.3 20.1,80.7 C20.1,81.4 20.5,81.7 21.2,81.7 C21.8,81.7 22.3,81.3 22.7,80.6 C27.2,72.6 28.9,63.3 28.9,54.2 C28.4,41.3 21,31.8 21,31.8 C21.3,31.8 11.8,19.5 9.1,15.3 C5.4,9.6 3.7,3.9 3.5,3.5 C3.4,3.2 2.5,-0.4 2.5,-0.4 C2.4,-0.8 1.9,-1.2 1.3,-1.2 C0.6,-1.2 0,-0.6 0,0.1 L0,22.7 "/>
<path class="Hook" transform="matrix(0.992,0,0,0.992,2700.48,1105.4)" d="M0,22.7 C0,23 0.1,23.6 0.8,23.8 C5.1,25.2 13.7,30.6 20.2,41.7 C22,44.8 24.9,49.1 24.9,57.4 C24.9,64.6 23.1,72 20.4,79.2 C20.2,79.8 20.1,80.3 20.1,80.7 C20.1,81.4 20.5,81.7 21.2,81.7 C21.8,81.7 22.3,81.3 22.7,80.6 C27.2,72.6 28.9,63.3 28.9,54.2 C28.4,41.3 21,31.8 21,31.8 C21.3,31.8 11.8,19.5 9.1,15.3 C5.4,9.6 3.7,3.9 3.5,3.5 C3.4,3.2 2.5,-0.4 2.5,-0.4 C2.4,-0.8 1.9,-1.2 1.3,-1.2 C0.6,-1.2 0,-0.6 0,0.1 L0,22.7 "/>
<path class="Hook" transform="matrix(0.992,0,0,0.992,1412.67,634.198)" d="M0,22.7 C0,23 0.1,23.6 0.8,23.8 C5.1,25.2 13.7,30.6 20.2,41.7 C22,44.8 24.9,49.1 24.9,57.4 C24.9,64.6 23.1,72 20.4,79.2 C20.2,79.8 20.1,80.3 20.1,80.7 C20.1,81.4 20.5,81.7 21.2,81.7 C21.8,81.7 22.3,81.3 22.7,80.6 C27.2,72.6 28.9,63.3 28.9,54.2 C28.4,41.3 21,31.8 21,31.8 C21.3,31.8 11.8,19.5 9.1,15.3 C5.4,9.6 3.7,3.9 3.5,3.5 C3.4,3.2 2.5,-0.4 2.5,-0.4 C2.4,-0.8 1.9,-1.2 1.3,-1.2 C0.6,-1.2 0,-0.6 0,0.1 L0,22.7 "/>
<path class="Hook" transform="matrix(0.992,0,0,0.992,793.019,1086.8)" d="M0,22.7 C0,23 0.1,23.6 0.8,23.8 C5.1,25.2 13.7,30.6 20.2,41.7 C22,44.8 24.9,49.1 24.9,57.4 C24.9,64.6 23.1,72 20.4,79.2 C20.2,79.8 20.1,80.3 20.1,80.7 C20.1,81.4 20.5,81.7 21.2,81.7 C21.8,81.7 22.3,81.3 22.7,80.6 C27.2,72.6 28.9,63.3 28.9,54.2 C28.4,41.3 21,31.8 21,31.8 C21.3,31.8 11.8,19.5 9.1,15.3 C5.4,9.6 3.7,3.9 3.5,3.5 C3.4,3.2 2.5,-0.4 2.5,-0.4 C2.4,-0.8 1.9,-1.2 1.3,-1.2 C0.6,-1.2 0,-0.6 0,0.1 L0,22.7 "/>
<path class="Hook" transform="matrix(0.992,0,0,0.992,996.747,1576.6)" d="M0,22.7 C0,23 0.1,23.6 0.8,23.8 C5.1,25.2 13.7,30.6 20.2,41.7 C22,44.8 24.9,49.1 24.9,57.4 C24.9,64.6 23.1,72 20.4,79.2 C20.2,79.8 20.1,80.3 20.1,80.7 C20.1,81.4 20.5,81.7 21.2,81.7 C21.8,81.7 22.3,81.3 22.7,80.6 C27.2,72.6 28.9,63.3 28.9,54.2 C28.4,41.3 21,31.8 21,31.8 C21.3,31.8 11.8,19.5 9.1,15.3 C5.4,9.6 3.7,3.9 3.5,3.5 C3.4,3.2 2.5,-0.4 2.5,-0.4 C2.4,-0.8 1.9,-1.2 1.3,-1.2 C0.6,-1.2 0,-0.6 0,0.1 L0,22.7 "/>
<path class="Hook" transform="matrix(0.992,0,0,0.992,1921.05,1235.6)" d="M0,-0.1 C0,0.6 0.6,1.2 1.3,1.2 C1.8,1.2 2.4,0.8 2.5,0.4 C2.5,0.3 3.4,-3.2 3.5,-3.5 C3.6,-3.9 4.5,-7.7 8.1,-13.6 C12,-20.1 18,-24.8 23,-31.8 C28,-38.8 30.9,-45.4 30.9,-54.2 C30.9,-63.3 28.9,-70.9 23.5,-80.6 C23.2,-81.3 22.6,-81.7 22,-81.7 C21.8,-81.7 21.6,-81.7 21.5,-81.6 C21,-81.4 20.8,-81 20.8,-80.4 C20.8,-80.1 20.9,-79.7 21.1,-79.2 C25.1,-69.9 26.7,-64.6 26.7,-57.4 C26.7,-49.1 23.8,-44.8 22,-41.7 C15.5,-30.6 5,-25.2 0.8,-23.8 C0.1,-23.6 0,-23 0,-22.7 L0,-0.1 "/>
<path class="Hook" transform="matrix(0.992,0,0,0.992,570.134,1105.4)" d="M0,22.7 C0,23 0.1,23.6 0.8,23.8 C5.1,25.2 13.7,30.6 20.2,41.7 C22,44.8 24.9,49.1 24.9,57.4 C24.9,64.6 23.1,72 20.4,79.2 C20.2,79.8 20.1,80.3 20.1,80.7 C20.1,81.4 20.5,81.7 21.2,81.7 C21.8,81.7 22.3,81.3 22.7,80.6 C27.2,72.6 28.9,63.3 28.9,54.2 C28.4,41.3 21,31.8 21,31.8 C21.3,31.8 11.8,19.5 9.1,15.3 C5.4,9.6 3.7,3.9 3.5,3.5 C3.4,3.2 2.5,-0.4 2.5,-0.4 C2.4,-0.8 1.9,-1.2 1.3,-1.2 C0.6,-1.2 0,-0.6 0,0.1 L0,22.7 "/>
<path class="Hook" transform="matrix(0.992,0,0,0.992,2477.6,1086.8)" d="M0,22.7 C0,23 0.1,23.6 0.8,23.8 C5.1,25.2 13.7,30.6 20.2,41.7 C22,44.8 24.9,49.1 24.9,57.4 C24.9,64.6 23.1,72 20.4,79.2 C20.2,79.8 20.1,80.3 20.1,80.7 C20.1,81.4 20.5,81.7 21.2,81.7 C21.8,81.7 22.3,81.3 22.7,80.6 C27.2,72.6 28.9,63.3 28.9,54.2 C28.4,41.3 21,31.8 21,31.8 C21.3,31.8 11.8,19.5 9.1,15.3 C5.4,9.6 3.7,3.9 3.5,3.5 C3.4,3.2 2.5,-0.4 2.5,-0.4 C2.4,-0.8 1.9,-1.2 1.3,-1.2 C0.6,-1.2 0,-0.6 0,0.1 L0,22.7 "/>
<path class="Hook" transform="matrix(0.992,0,0,0.992,2706.68,634.198)" d="M0,22.7 C0,23 0.1,23.6 0.8,23.8 C5.1,25.2 13.7,30.6 20.2,41.7 C22,44.8 24.9,49.1 24.9,57.4 C24.9,64.6 23.1,72 20.4,79.2 C20.2,79.8 20.1,80.3 20.1,80.7 C20.1,81.4 20.5,81.7 21.2,81.7 C21.8,81.7 22.3,81.3 22.7,80.6 C27.2,72.6 28.9,63.3 28.9,54.2 C28.4,41.3 21,31.8 21,31.8 C21.3,31.8 11.8,19.5 9.1,15.3 C5.4,9.6 3.7,3.9 3.5,3.5 C3.4,3.2 2.5,-0.4 2.5,-0.4 C2.4,-0.8 1.9,-1.2 1.3,-1.2 C0.6,-1.2 0,-0.6 0,0.1 L0,22.7 "/>
<path class="Hook" transform="matrix(0.992,0,0,0.992,470.193,646.598)" d="M0,22.7 C0,23 0.1,23.6 0.8,23.8 C5.1,25.2 13.7,30.6 20.2,41.7 C22,44.8 24.9,49.1 24.9,57.4 C24.9,64.6 23.1,72 20.4,79.2 C20.2,79.8 20.1,80.3 20.1,80.7 C20.1,81.4 20.5,81.7 21.2,81.7 C21.8,81.7 22.3,81.3 22.7,80.6 C27.2,72.6 28.9,63.3 28.9,54.2 C28.4,41.3 21,31.8 21,31.8 C21.3,31.8 11.8,19.5 9.1,15.3 C5.4,9.6 3.7,3.9 3.5,3.5 C3.4,3.2 2.5,-0.4 2.5,-0.4 C2.4,-0.8 1.9,-1.2 1.3,-1.2 C0.6,-1.2 0,-0.6 0,0.1 L0,22.7 "/>
<path class="Hook" transform="matrix(0.992,0,0,0.992,1813.71,683.798)" d="M0,22.7 C0,23 0.1,23.6 0.8,23.8 C5.1,25.2 13.7,30.6 20.2,41.7 C22,44.8 24.9,49.1 24.9,57.4 C24.9,64.6 23.1,72 20.4,79.2 C20.2,79.8 20.1,80.3 20.1,80.7 C20.1,81.4 20.5,81.7 21.2,81.7 C21.8,81.7 22.3,81.3 22.7,80.6 C27.2,72.6 28.9,63.3 28.9,54.2 C28.4,41.3 21,31.8 21,31.8 C21.3,31.8 11.8,19.5 9.1,15.3 C5.4,9.6 3.7,3.9 3.5,3.5 C3.4,3.2 2.5,-0.4 2.5,-0.4 C2.4,-0.8 1.9,-1.2 1.3,-1.2 C0.6,-1.2 0,-0.6 0,0.1 L0,22.7 "/>
<path class="Hook" transform="matrix(0.992,0,0,0.992,2318.77,1601.4)" d="M0,22.7 C0,23 0.1,23.6 0.8,23.8 C5.1,25.2 13.7,30.6 20.2,41.7 C22,44.8 24.9,49.1 24.9,57.4 C24.9,64.6 23.1,72 20.4,79.2 C20.2,79.8 20.1,80.3 20.1,80.7 C20.1,81.4 20.5,81.7 21.2,81.7 C21.8,81.7 22.3,81.3 22.7,80.6 C27.2,72.6 28.9,63.3 28.9,54.2 C28.4,41.3 21,31.8 21,31.8 C21.3,31.8 11.8,19.5 9.1,15.3 C5.4,9.6 3.7,3.9 3.5,3.5 C3.4,3.2 2.5,-0.4 2.5,-0.4 C2.4,-0.8 1.9,-1.2 1.3,-1.2 C0.6,-1.2 0,-0.6 0,0.1 L0,22.7 "/>
<path class="Hook" transform="matrix(0.992,0,0,0.992,2214.76,646.598)" d="M0,22.7 C0,23 0.1,23.6 0.8,23.8 C5.1,25.2 13.7,30.6 20.2,41.7 C22,44.8 24.9,49.1 24.9,57.4 C24.9,64.6 23.1,72 20.4,79.2 C20.2,79.8 20.1,80.3 20.1,80.7 C20.1,81.4 20.5,81.7 21.2,81.7 C21.8,81.7 22.3,81.3 22.7,80.6 C27.2,72.6 28.9,63.3 28.9,54.2 C28.4,41.3 21,31.8 21,31.8 C21.3,31.8 11.8,19.5 9.1,15.3 C5.4,9.6 3.7,3.9 3.5,3.5 C3.4,3.2 2.5,-0.4 2.5,-0.4 C2.4,-0.8 1.9,-1.2 1.3,-1.2 C0.6,-1.2 0,-0.6 0,0.1 L0,22.7 "/>
<path class="Note" transform="matrix(0.992,0,0,0.992,2314.37,1167.4)" d="M0,4.2 C0,8.5 3.1,13.3 11.2,13.3 C21.6,13.3 32.5,4.8 32.5,-4 C32.5,-9.9 27.5,-13.2 21.3,-13.2 C11.6,-13.2 0,-5 0,4.2"/>
<path class="Note" transform="matrix(0.992,0,0,0.992,2553.1,733.398)" d="M0,4.2 C0,8.5 3.1,13.3 11.2,13.3 C21.6,13.3 32.5,4.8 32.5,-4 C32.5,-9.9 27.5,-13.2 21.3,-13.2 C11.6,-13.2 0,-5 0,4.2"/>
<path class="Note" transform="matrix(0.992,0,0,0.992,932.615,720.998)" d="M0,4.2 C0,8.5 3.1,13.3 11.2,13.3 C21.6,13.3 32.5,4.8 32.5,-4 C32.5,-9.9 27.5,-13.2 21.3,-13.2 C11.6,-13.2 0,-5 0,4.2"/>
<path class="Note" transform="matrix(0.992,0,0,0.992,1621.75,1179.8)" d="M0,4.2 C0,8.5 3.1,13.3 11.2,13.3 C21.6,13.3 32.5,4.8 32.5,-4 C32.5,-9.9 27.5,-13.2 21.3,-13.2 C11.6,-13.2 0,-5 0,4.2"/>
<path class="Note" transform="matrix(0.992,0,0,0.992,2099.36,1167.4)" d="M0,4.2 C0,8.5 3.1,13.3 11.2,13.3 C21.6,13.3 32.5,4.8 32.5,-4 C32.5,-9.9 27.5,-13.2 21.3,-13.2 C11.6,-13.2 0,-5 0,4.2"/>
<path class="Note" transform="matrix(0.992,0,0,0.992,2551.18,1675.8)" d="M0,4.2 C0,8.5 3.1,13.3 11.2,13.3 C21.6,13.3 32.5,4.8 32.5,-4 C32.5,-9.9 27.5,-13.2 21.3,-13.2 C11.6,-13.2 0,-5 0,4.2"/>
<path class="Note" transform="matrix(0.992,0,0,0.992,2010.2,1155)" d="M0,4.2 C0,8.5 3.1,13.3 11.2,13.3 C21.6,13.3 32.5,4.8 32.5,-4 C32.5,-9.9 27.5,-13.2 21.3,-13.2 C11.6,-13.2 0,-5 0,4.2"/>
<path class="Note" transform="matrix(0.992,0,0,0.992,1921.05,1155)" d="M0,4.2 C0,8.5 3.1,13.3 11.2,13.3 C21.6,13.3 32.5,4.8 32.5,-4 C32.5,-9.9 27.5,-13.2 21.3,-13.2 C11.6,-13.2 0,-5 0,4.2"/>
<path class="Note" transform="matrix(0.992,0,0,0.992,1784.22,770.598)" d="M0,4.2 C0,8.5 3.1,13.3 11.2,13.3 C21.6,13.3 32.5,4.8 32.5,-4 C32.5,-9.9 27.5,-13.2 21.3,-13.2 C11.6,-13.2 0,-5 0,4.2"/>
<path class="Note" transform="matrix(0.992,0,0,0.992,2448.1,1167.4)" d="M0,4.2 C0,8.5 3.1,13.3 11.2,13.3 C21.6,13.3 32.5,4.8 32.5,-4 C32.5,-9.9 27.5,-13.2 21.3,-13.2 C11.6,-13.2 0,-5 0,4.2"/>
<path class="Note" transform="matrix(0.992,0,0,0.992,1787.32,1155)" d="M0,4.2 C0,8.5 3.1,13.3 11.2,13.3 C21.6,13.3 32.5,4.8 32.5,-4 C32.5,-9.9 27.5,-13.2 21.3,-13.2 C11.6,-13.2 0,-5 0,4.2"/>
<path class="Note" transform="matrix(0.992,0,0,0.992,2537.25,1167.4)" d="M0,4.2 C0,8.5 3.1,13.3 11.2,13.3 C21.6,13.3 32.5,4.8 32.5,-4 C32.5,-9.9 27.5,-13.2 21.3,-13.2 C11.6,-13.2 0,-5 0,4.2"/>
<path class="Note" transform="matrix(0.992,0,0,0.992,1052.27,708.598)" d="M0,4.2 C0,8.5 3.1,13.3 11.2,13.3 C21.6,13.3 32.5,4.8 32.5,-4 C32.5,-9.9 27.5,-13.2 21.3,-13.2 C11.6,-13.2 0,-5 0,4.2"/>
<path class="Note" transform="matrix(0.992,0,0,0.992,1681.19,1167.4)" d="M0,4.2 C0,8.5 3.1,13.3 11.2,13.3 C21.6,13.3 32.5,4.8 32.5,-4 C32.5,-9.9 27.5,-13.2 21.3,-13.2 C11.6,-13.2 0,-5 0,4.2"/>
<path class="Note" transform="matrix(0.992,0,0,0.992,2670.98,1192.2)" d="M0,4.2 C0,8.5 3.1,13.3 11.2,13.3 C21.6,13.3 32.5,4.8 32.5,-4 C32.5,-9.9 27.5,-13.2 21.3,-13.2 C11.6,-13.2 0,-5 0,4.2"/>
<path class="Note" transform="matrix(0.992,0,0,0.992,1903.88,745.798)" d="M0,4.2 C0,8.5 3.1,13.3 11.2,13.3 C21.6,13.3 32.5,4.8 32.5,-4 C32.5,-9.9 27.5,-13.2 21.3,-13.2 C11.6,-13.2 0,-5 0,4.2"/>
<path class="Note" transform="matrix(0.992,0,0,0.992,808.529,733.398)" d="M0,4.2 C0,8.5 3.1,13.3 11.2,13.3 C21.6,13.3 32.5,4.8 32.5,-4 C32.5,-9.9 27.5,-13.2 21.3,-13.2 C11.6,-13.2 0,-5 0,4.2"/>
<path class="Note" transform="matrix(0.992,0,0,0.992,1488.02,1155)" d="M0,4.2 C0,8.5 3.1,13.3 11.2,13.3 C21.6,13.3 32.5,4.8 32.5,-4 C32.5,-9.9 27.5,-13.2 21.3,-13.2 C11.6,-13.2 0,-5 0,4.2"/>
<path class="Note" transform="matrix(0.992,0,0,0.992,725.804,733.398)" d="M0,4.2 C0,8.5 3.1,13.3 11.2,13.3 C21.6,13.3 32.5,4.8 32.5,-4 C32.5,-9.9 27.5,-13.2 21.3,-13.2 C11.6,-13.2 0,-5 0,4.2"/>
<path class="Note" transform="matrix(0.992,0,0,0.992,2408.93,1675.8)" d="M0,4.2 C0,8.5 3.1,13.3 11.2,13.3 C21.6,13.3 32.5,4.8 32.5,-4 C32.5,-9.9 27.5,-13.2 21.3,-13.2 C11.6,-13.2 0,-5 0,4.2"/>
<path class="Note" transform="matrix(0.992,0,0,0.992,2289.27,1688.2)" d="M0,4.2 C0,8.5 3.1,13.3 11.2,13.3 C21.6,13.3 32.5,4.8 32.5,-4 C32.5,-9.9 27.5,-13.2 21.3,-13.2 C11.6,-13.2 0,-5 0,4.2"/>
<path class="Note" transform="matrix(0.992,0,0,0.992,2061.18,745.798)" d="M0,4.2 C0,8.5 3.1,13.3 11.2,13.3 C21.6,13.3 32.5,4.8 32.5,-4 C32.5,-9.9 27.5,-13.2 21.3,-13.2 C11.6,-13.2 0,-5 0,4.2"/>
<path class="Note" transform="matrix(0.992,0,0,0.992,1318.5,1155)" d="M0,4.2 C0,8.5 3.1,13.3 11.2,13.3 C21.6,13.3 32.5,4.8 32.5,-4 C32.5,-9.9 27.5,-13.2 21.3,-13.2 C11.6,-13.2 0,-5 0,4.2"/>
<path class="Note" transform="matrix(0.992,0,0,0.992,406.906,1651)" d="M0,4.2 C0,8.5 3.1,13.3 11.2,13.3 C21.6,13.3 32.5,4.8 32.5,-4 C32.5,-9.9 27.5,-13.2 21.3,-13.2 C11.6,-13.2 0,-5 0,4.2"/>
<path class="Note" transform="matrix(0.992,0,0,0.992,1176.36,720.998)" d="M0,4.2 C0,8.5 3.1,13.3 11.2,13.3 C21.6,13.3 32.5,4.8 32.5,-4 C32.5,-9.9 27.5,-13.2 21.3,-13.2 C11.6,-13.2 0,-5 0,4.2"/>
<path class="Note" transform="matrix(0.992,0,0,0.992,1192.64,1179.8)" d="M0,4.2 C0,8.5 3.1,13.3 11.2,13.3 C21.6,13.3 32.5,4.8 32.5,-4 C32.5,-9.9 27.5,-13.2 21.3,-13.2 C11.6,-13.2 0,-5 0,4.2"/>
<path class="Note" transform="matrix(0.992,0,0,0.992,519.115,1651)" d="M0,4.2 C0,8.5 3.1,13.3 11.2,13.3 C21.6,13.3 32.5,4.8 32.5,-4 C32.5,-9.9 27.5,-13.2 21.3,-13.2 C11.6,-13.2 0,-5 0,4.2"/>
<path class="Note" transform="matrix(0.992,0,0,0.992,1058.91,1155)" d="M0,4.2 C0,8.5 3.1,13.3 11.2,13.3 C21.6,13.3 32.5,4.8 32.5,-4 C32.5,-9.9 27.5,-13.2 21.3,-13.2 C11.6,-13.2 0,-5 0,4.2"/>
<path class="Note" transform="matrix(0.992,0,0,0.992,593.921,1651)" d="M0,4.2 C0,8.5 3.1,13.3 11.2,13.3 C21.6,13.3 32.5,4.8 32.5,-4 C32.5,-9.9 27.5,-13.2 21.3,-13.2 C11.6,-13.2 0,-5 0,4.2"/>
<path class="Note" transform="matrix(0.992,0,0,0.992,2185.26,733.398)" d="M0,4.2 C0,8.5 3.1,13.3 11.2,13.3 C21.6,13.3 32.5,4.8 32.5,-4 C32.5,-9.9 27.5,-13.2 21.3,-13.2 C11.6,-13.2 0,-5 0,4.2"/>
<path class="Note" transform="matrix(0.992,0,0,0.992,2177.06,1675.8)" d="M0,4.2 C0,8.5 3.1,13.3 11.2,13.3 C21.6,13.3 32.5,4.8 32.5,-4 C32.5,-9.9 27.5,-13.2 21.3,-13.2 C11.6,-13.2 0,-5 0,4.2"/>
<path class="Note" transform="matrix(0.992,0,0,0.992,668.726,1663.4)" d="M0,4.2 C0,8.5 3.1,13.3 11.2,13.3 C21.6,13.3 32.5,4.8 32.5,-4 C32.5,-9.9 27.5,-13.2 21.3,-13.2 C11.6,-13.2 0,-5 0,4.2"/>
<path class="Note" transform="matrix(0.992,0,0,0.992,889.38,1155)" d="M0,4.2 C0,8.5 3.1,13.3 11.2,13.3 C21.6,13.3 32.5,4.8 32.5,-4 C32.5,-9.9 27.5,-13.2 21.3,-13.2 C11.6,-13.2 0,-5 0,4.2"/>
<path class="Note" transform="matrix(0.992,0,0,0.992,743.532,1675.8)" d="M0,4.2 C0,8.5 3.1,13.3 11.2,13.3 C21.6,13.3 32.5,4.8 32.5,-4 C32.5,-9.9 27.5,-13.2 21.3,-13.2 C11.6,-13.2 0,-5 0,4.2"/>
<path class="Note" transform="matrix(0.992,0,0,0.992,643.08,733.398)" d="M0,4.2 C0,8.5 3.1,13.3 11.2,13.3 C21.6,13.3 32.5,4.8 32.5,-4 C32.5,-9.9 27.5,-13.2 21.3,-13.2 C11.6,-13.2 0,-5 0,4.2"/>
<path class="Note" transform="matrix(0.992,0,0,0.992,1259.08,708.598)" d="M0,4.2 C0,8.5 3.1,13.3 11.2,13.3 C21.6,13.3 32.5,4.8 32.5,-4 C32.5,-9.9 27.5,-13.2 21.3,-13.2 C11.6,-13.2 0,-5 0,4.2"/>
<path class="Note" transform="matrix(0.992,0,0,0.992,763.522,1167.4)" d="M0,4.2 C0,8.5 3.1,13.3 11.2,13.3 C21.6,13.3 32.5,4.8 32.5,-4 C32.5,-9.9 27.5,-13.2 21.3,-13.2 C11.6,-13.2 0,-5 0,4.2"/>
<path class="Note" transform="matrix(0.992,0,0,0.992,855.042,1663.4)" d="M0,4.2 C0,8.5 3.1,13.3 11.2,13.3 C21.6,13.3 32.5,4.8 32.5,-4 C32.5,-9.9 27.5,-13.2 21.3,-13.2 C11.6,-13.2 0,-5 0,4.2"/>
<path class="Note" transform="matrix(0.992,0,0,0.992,629.791,1179.8)" d="M0,4.2 C0,8.5 3.1,13.3 11.2,13.3 C21.6,13.3 32.5,4.8 32.5,-4 C32.5,-9.9 27.5,-13.2 21.3,-13.2 C11.6,-13.2 0,-5 0,4.2"/>
<path class="Note" transform="matrix(0.992,0,0,0.992,540.637,1192.2)" d="M0,4.2 C0,8.5 3.1,13.3 11.2,13.3 C21.6,13.3 32.5,4.8 32.5,-4 C32.5,-9.9 27.5,-13.2 21.3,-13.2 C11.6,-13.2 0,-5 0,4.2"/>
<path class="Note" transform="matrix(0.992,0,0,0.992,967.25,1663.4)" d="M0,4.2 C0,8.5 3.1,13.3 11.2,13.3 C21.6,13.3 32.5,4.8 32.5,-4 C32.5,-9.9 27.5,-13.2 21.3,-13.2 C11.6,-13.2 0,-5 0,4.2"/>
<path class="Note" transform="matrix(0.992,0,0,0.992,406.906,1179.8)" d="M0,4.2 C0,8.5 3.1,13.3 11.2,13.3 C21.6,13.3 32.5,4.8 32.5,-4 C32.5,-9.9 27.5,-13.2 21.3,-13.2 C11.6,-13.2 0,-5 0,4.2"/>
<path class="Note" transform="matrix(0.992,0,0,0.992,1042.06,1663.4)" d="M0,4.2 C0,8.5 3.1,13.3 11.2,13.3 C21.6,13.3 32.5,4.8 32.5,-4 C32.5,-9.9 27.5,-13.2 21.3,-13.2 C11.6,-13.2 0,-5 0,4.2"/>
<path class="Note" transform="matrix(0.992,0,0,0.992,2102.26,1675.8)" d="M0,4.2 C0,8.5 3.1,13.3 11.2,13.3 C21.6,13.3 32.5,4.8 32.5,-4 C32.5,-9.9 27.5,-13.2 21.3,-13.2 C11.6,-13.2 0,-5 0,4.2"/>
<path class="Note" transform="matrix(0.992,0,0,0.992,1154.26,1651)" d="M0,4.2 C0,8.5 3.1,13.3 11.2,13.3 C21.6,13.3 32.5,4.8 32.5,-4 C32.5,-9.9 27.5,-13.2 21.3,-13.2 C11.6,-13.2 0,-5 0,4.2"/>
<path class="Note" transform="matrix(0.992,0,0,0.992,1660.13,745.798)" d="M0,4.2 C0,8.5 3.1,13.3 11.2,13.3 C21.6,13.3 32.5,4.8 32.5,-4 C32.5,-9.9 27.5,-13.2 21.3,-13.2 C11.6,-13.2 0,-5 0,4.2"/>
<path class="Note" transform="matrix(0.992,0,0,0.992,2188.51,1179.8)" d="M0,4.2 C0,8.5 3.1,13.3 11.2,13.3 C21.6,13.3 32.5,4.8 32.5,-4 C32.5,-9.9 27.5,-13.2 21.3,-13.2 C11.6,-13.2 0,-5 0,4.2"/>
<path class="Note" transform="matrix(0.992,0,0,0.992,1204.14,1638.6)" d="M0,4.2 C0,8.5 3.1,13.3 11.2,13.3 C21.6,13.3 32.5,4.8 32.5,-4 C32.5,-9.9 27.5,-13.2 21.3,-13.2 C11.6,-13.2 0,-5 0,4.2"/>
<path class="Note" transform="matrix(0.992,0,0,0.992,2027.45,1675.8)" d="M0,4.2 C0,8.5 3.1,13.3 11.2,13.3 C21.6,13.3 32.5,4.8 32.5,-4 C32.5,-9.9 27.5,-13.2 21.3,-13.2 C11.6,-13.2 0,-5 0,4.2"/>
<path class="Note" transform="matrix(0.992,0,0,0.992,560.356,770.598)" d="M0,4.2 C0,8.5 3.1,13.3 11.2,13.3 C21.6,13.3 32.5,4.8 32.5,-4 C32.5,-9.9 27.5,-13.2 21.3,-13.2 C11.6,-13.2 0,-5 0,4.2"/>
<path class="Note" transform="matrix(0.992,0,0,0.992,1383.17,720.998)" d="M0,4.2 C0,8.5 3.1,13.3 11.2,13.3 C21.6,13.3 32.5,4.8 32.5,-4 C32.5,-9.9 27.5,-13.2 21.3,-13.2 C11.6,-13.2 0,-5 0,4.2"/>
<path class="Note" transform="matrix(0.992,0,0,0.992,1310.26,1626.2)" d="M0,4.2 C0,8.5 3.1,13.3 11.2,13.3 C21.6,13.3 32.5,4.8 32.5,-4 C32.5,-9.9 27.5,-13.2 21.3,-13.2 C11.6,-13.2 0,-5 0,4.2"/>
<path class="Note" transform="matrix(0.992,0,0,0.992,2304.92,770.598)" d="M0,4.2 C0,8.5 3.1,13.3 11.2,13.3 C21.6,13.3 32.5,4.8 32.5,-4 C32.5,-9.9 27.5,-13.2 21.3,-13.2 C11.6,-13.2 0,-5 0,4.2"/>
<path class="Note" transform="matrix(0.992,0,0,0.992,1502.83,745.798)" d="M0,4.2 C0,8.5 3.1,13.3 11.2,13.3 C21.6,13.3 32.5,4.8 32.5,-4 C32.5,-9.9 27.5,-13.2 21.3,-13.2 C11.6,-13.2 0,-5 0,4.2"/>
<path class="Note" transform="matrix(0.992,0,0,0.992,1452.51,1638.6)" d="M0,4.2 C0,8.5 3.1,13.3 11.2,13.3 C21.6,13.3 32.5,4.8 32.5,-4 C32.5,-9.9 27.5,-13.2 21.3,-13.2 C11.6,-13.2 0,-5 0,4.2"/>
<path class="Note" transform="matrix(0.992,0,0,0.992,1952.65,1713)" d="M0,4.2 C0,8.5 3.1,13.3 11.2,13.3 C21.6,13.3 32.5,4.8 32.5,-4 C32.5,-9.9 27.5,-13.2 21.3,-13.2 C11.6,-13.2 0,-5 0,4.2"/>
<path class="Note" transform="matrix(0.992,0,0,0.992,2387.65,733.398)" d="M0,4.2 C0,8.5 3.1,13.3 11.2,13.3 C21.6,13.3 32.5,4.8 32.5,-4 C32.5,-9.9 27.5,-13.2 21.3,-13.2 C11.6,-13.2 0,-5 0,4.2"/>
<path class="Note" transform="matrix(0.992,0,0,0.992,2470.37,733.398)" d="M0,4.2 C0,8.5 3.1,13.3 11.2,13.3 C21.6,13.3 32.5,4.8 32.5,-4 C32.5,-9.9 27.5,-13.2 21.3,-13.2 C11.6,-13.2 0,-5 0,4.2"/>
<path class="Note" transform="matrix(0.992,0,0,0.992,2677.18,720.998)" d="M0,4.2 C0,8.5 3.1,13.3 11.2,13.3 C21.6,13.3 32.5,4.8 32.5,-4 C32.5,-9.9 27.5,-13.2 21.3,-13.2 C11.6,-13.2 0,-5 0,4.2"/>
<path class="Note" transform="matrix(0.992,0,0,0.992,1631.45,1651)" d="M0,4.2 C0,8.5 3.1,13.3 11.2,13.3 C21.6,13.3 32.5,4.8 32.5,-4 C32.5,-9.9 27.5,-13.2 21.3,-13.2 C11.6,-13.2 0,-5 0,4.2"/>
<path class="Note" transform="matrix(0.992,0,0,0.992,440.696,733.398)" d="M0,4.2 C0,8.5 3.1,13.3 11.2,13.3 C21.6,13.3 32.5,4.8 32.5,-4 C32.5,-9.9 27.5,-13.2 21.3,-13.2 C11.6,-13.2 0,-5 0,4.2"/>
<path class="Note" transform="matrix(0.992,0,0,0.992,1773.7,1663.4)" d="M0,4.2 C0,8.5 3.1,13.3 11.2,13.3 C21.6,13.3 32.5,4.8 32.5,-4 C32.5,-9.9 27.5,-13.2 21.3,-13.2 C11.6,-13.2 0,-5 0,4.2"/>
<path class="Clef" transform="matrix(0.992,0,0,0.992,232.438,1179.8)" d="M12.3,51.3 C12.3,57.9 17.3,66.6 30.8,66.6 C35.5,66.6 39.6,65.4 43.2,63.2 C48.6,59.4 50,52.8 50,46.5 C50,42.6 49.4,38.1 48.4,32.4 C48.1,30.4 47.5,27.4 46.9,23.5 C56.7,20.3 64,10.1 64,-0.2 C64,-15.3 53.3,-25.5 38.7,-25.5 C37.7,-31.5 36.7,-37.4 35.9,-43 C46.4,-54.1 53.7,-66.6 53.7,-82.5 C53.7,-91.6 50.9,-99 49.3,-102.6 C46.9,-107.7 44,-111.2 42.2,-111.2 C41.5,-111.2 38.4,-110 35.1,-106.1 C28.7,-98.5 26.9,-85.7 26.9,-77.3 C26.9,-71.9 27.4,-67 29.1,-55.8 C29,-55.7 23.8,-50.4 21.7,-48.7 C12.6,-40.3 0,-28.1 0,-8.1 C0,10.6 16.3,25.3 34.9,25.3 C37.8,25.3 40.5,25 42.8,24.6 C44.7,34.2 45.9,41.2 45.9,46.5 C45.9,56.9 40.5,62.4 30.4,62.4 C28,62.4 25.9,61.9 25.7,61.9 C25.6,61.8 25.4,61.7 25.4,61.6 C25.4,61.4 25.6,61.3 25.9,61.3 C30.6,60.5 35.3,56.5 35.3,50.1 C35.3,44.7 31.2,39 23.7,39 C16.7,39 12.3,44.7 12.3,51.3 M33.2,-82.2 C34.1,-86.2 38.7,-96.7 43.9,-96.7 C45.4,-96.7 47.8,-91.9 47.8,-84.9 C47.8,-74.5 40.1,-66.7 33.2,-59.9 C32.6,-63.9 32.1,-67.8 32.1,-72 C32.1,-75.7 32.4,-79.1 33.2,-82.2 M42,20.6 C40,21 38.1,21.2 36.2,21.2 C21.9,21.2 9.7,11.2 9.7,-3.9 C9.7,-16.1 18.3,-27 27.1,-34.6 C28.8,-36.1 30.4,-37.5 31.9,-39 C32.8,-33.6 33.5,-28.9 34.2,-24.8 C25.1,-22.1 18.9,-12.5 18.9,-3.1 C18.9,3.9 24.4,13.5 32.4,13.5 C33.2,13.5 34.1,13.1 34.1,12.2 C34.1,11.3 33.1,10.8 31.9,10 C28,7.6 25.8,5 25.8,0.1 C25.8,-6 30.4,-10.9 36.2,-12.3 L42,20.6 M56.2,2.1 C56.2,9.2 53.3,16.5 46.2,19.4 C44.1,7.4 41.4,-8.5 40.7,-12.9 C49.7,-12.9 56.2,-6.8 56.2,2.1"/>
<path class="Clef" transform="matrix(0.992,0,0,0.992,232.438,708.598)" d="M12.3,51.3 C12.3,57.9 17.3,66.6 30.8,66.6 C35.5,66.6 39.6,65.4 43.2,63.2 C48.6,59.4 50,52.8 50,46.5 C50,42.6 49.4,38.1 48.4,32.4 C48.1,30.4 47.5,27.4 46.9,23.5 C56.7,20.3 64,10.1 64,-0.2 C64,-15.3 53.3,-25.5 38.7,-25.5 C37.7,-31.5 36.7,-37.4 35.9,-43 C46.4,-54.1 53.7,-66.6 53.7,-82.5 C53.7,-91.6 50.9,-99 49.3,-102.6 C46.9,-107.7 44,-111.2 42.2,-111.2 C41.5,-111.2 38.4,-110 35.1,-106.1 C28.7,-98.5 26.9,-85.7 26.9,-77.3 C26.9,-71.9 27.4,-67 29.1,-55.8 C29,-55.7 23.8,-50.4 21.7,-48.7 C12.6,-40.3 0,-28.1 0,-8.1 C0,10.6 16.3,25.3 34.9,25.3 C37.8,25.3 40.5,25 42.8,24.6 C44.7,34.2 45.9,41.2 45.9,46.5 C45.9,56.9 40.5,62.4 30.4,62.4 C28,62.4 25.9,61.9 25.7,61.9 C25.6,61.8 25.4,61.7 25.4,61.6 C25.4,61.4 25.6,61.3 25.9,61.3 C30.6,60.5 35.3,56.5 35.3,50.1 C35.3,44.7 31.2,39 23.7,39 C16.7,39 12.3,44.7 12.3,51.3 M33.2,-82.2 C34.1,-86.2 38.7,-96.7 43.9,-96.7 C45.4,-96.7 47.8,-91.9 47.8,-84.9 C47.8,-74.5 40.1,-66.7 33.2,-59.9 C32.6,-63.9 32.1,-67.8 32.1,-72 C32.1,-75.7 32.4,-79.1 33.2,-82.2 M42,20.6 C40,21 38.1,21.2 36.2,21.2 C21.9,21.2 9.7,11.2 9.7,-3.9 C9.7,-16.1 18.3,-27 27.1,-34.6 C28.8,-36.1 30.4,-37.5 31.9,-39 C32.8,-33.6 33.5,-28.9 34.2,-24.8 C25.1,-22.1 18.9,-12.5 18.9,-3.1 C18.9,3.9 24.4,13.5 32.4,13.5 C33.2,13.5 34.1,13.1 34.1,12.2 C34.1,11.3 33.1,10.8 31.9,10 C28,7.6 25.8,5 25.8,0.1 C25.8,-6 30.4,-10.9 36.2,-12.3 L42,20.6 M56.2,2.1 C56.2,9.2 53.3,16.5 46.2,19.4 C44.1,7.4 41.4,-8.5 40.7,-12.9 C49.7,-12.9 56.2,-6.8 56.2,2.1"/>
<path class="Clef" transform="matrix(0.992,0,0,0.992,232.438,1651)" d="M12.3,51.3 C12.3,57.9 17.3,66.6 30.8,66.6 C35.5,66.6 39.6,65.4 43.2,63.2 C48.6,59.4 50,52.8 50,46.5 C50,42.6 49.4,38.1 48.4,32.4 C48.1,30.4 47.5,27.4 46.9,23.5 C56.7,20.3 64,10.1 64,-0.2 C64,-15.3 53.3,-25.5 38.7,-25.5 C37.7,-31.5 36.7,-37.4 35.9,-43 C46.4,-54.1 53.7,-66.6 53.7,-82.5 C53.7,-91.6 50.9,-99 49.3,-102.6 C46.9,-107.7 44,-111.2 42.2,-111.2 C41.5,-111.2 38.4,-110 35.1,-106.1 C28.7,-98.5 26.9,-85.7 26.9,-77.3 C26.9,-71.9 27.4,-67 29.1,-55.8 C29,-55.7 23.8,-50.4 21.7,-48.7 C12.6,-40.3 0,-28.1 0,-8.1 C0,10.6 16.3,25.3 34.9,25.3 C37.8,25.3 40.5,25 42.8,24.6 C44.7,34.2 45.9,41.2 45.9,46.5 C45.9,56.9 40.5,62.4 30.4,62.4 C28,62.4 25.9,61.9 25.7,61.9 C25.6,61.8 25.4,61.7 25.4,61.6 C25.4,61.4 25.6,61.3 25.9,61.3 C30.6,60.5 35.3,56.5 35.3,50.1 C35.3,44.7 31.2,39 23.7,39 C16.7,39 12.3,44.7 12.3,51.3 M33.2,-82.2 C34.1,-86.2 38.7,-96.7 43.9,-96.7 C45.4,-96.7 47.8,-91.9 47.8,-84.9 C47.8,-74.5 40.1,-66.7 33.2,-59.9 C32.6,-63.9 32.1,-67.8 32.1,-72 C32.1,-75.7 32.4,-79.1 33.2,-82.2 M42,20.6 C40,21 38.1,21.2 36.2,21.2 C21.9,21.2 9.7,11.2 9.7,-3.9 C9.7,-16.1 18.3,-27 27.1,-34.6 C28.8,-36.1 30.4,-37.5 31.9,-39 C32.8,-33.6 33.5,-28.9 34.2,-24.8 C25.1,-22.1 18.9,-12.5 18.9,-3.1 C18.9,3.9 24.4,13.5 32.4,13.5 C33.2,13.5 34.1,13.1 34.1,12.2 C34.1,11.3 33.1,10.8 31.9,10 C28,7.6 25.8,5 25.8,0.1 C25.8,-6 30.4,-10.9 36.2,-12.3 L42,20.6 M56.2,2.1 C56.2,9.2 53.3,16.5 46.2,19.4 C44.1,7.4 41.4,-8.5 40.7,-12.9 C49.7,-12.9 56.2,-6.8 56.2,2.1"/>
<path class="KeySig" transform="matrix(0.992,0,0,0.992,320.711,634.198)" d="M23.3,-10.5 C23.9,-10.6 24.4,-11.3 24.4,-11.9 L24.4,-17.8 C24.4,-18.8 23.7,-19.2 22.8,-19.2 L19.5,-18.5 L19.5,-33.4 L16.7,-33.4 L16.7,-17.9 L7.8,-16.1 L7.8,-30.2 L5,-30.2 L5,-15.5 L1.1,-14.7 C0.5,-14.6 0,-13.9 0,-13.3 L0,-7.5 C0,-6.4 0.8,-6.1 1.7,-6.1 L5,-6.8 L5,9.7 L1.1,10.5 C0.5,10.6 0,11.3 0,11.9 L0,17.7 C0,18.8 0.8,19.1 1.7,19.1 L5,18.4 L5,33.3 L7.8,33.3 L7.8,17.8 L16.7,16 L16.7,30.1 L19.5,30.1 L19.5,15.4 L23.3,14.7 C23.9,14.6 24.4,13.9 24.4,13.3 L24.4,7.4 C24.4,6.4 23.7,6 22.8,6 L19.5,6.7 L19.5,-9.8 L23.3,-10.5 M7.8,-7.4 L16.7,-9.2 L16.7,7.3 L7.8,9.2 L7.8,-7.4 "/>
<path class="KeySig" transform="matrix(0.992,0,0,0.992,320.711,1105.4)" d="M23.3,-10.5 C23.9,-10.6 24.4,-11.3 24.4,-11.9 L24.4,-17.8 C24.4,-18.8 23.7,-19.2 22.8,-19.2 L19.5,-18.5 L19.5,-33.4 L16.7,-33.4 L16.7,-17.9 L7.8,-16.1 L7.8,-30.2 L5,-30.2 L5,-15.5 L1.1,-14.7 C0.5,-14.6 0,-13.9 0,-13.3 L0,-7.5 C0,-6.4 0.8,-6.1 1.7,-6.1 L5,-6.8 L5,9.7 L1.1,10.5 C0.5,10.6 0,11.3 0,11.9 L0,17.7 C0,18.8 0.8,19.1 1.7,19.1 L5,18.4 L5,33.3 L7.8,33.3 L7.8,17.8 L16.7,16 L16.7,30.1 L19.5,30.1 L19.5,15.4 L23.3,14.7 C23.9,14.6 24.4,13.9 24.4,13.3 L24.4,7.4 C24.4,6.4 23.7,6 22.8,6 L19.5,6.7 L19.5,-9.8 L23.3,-10.5 M7.8,-7.4 L16.7,-9.2 L16.7,7.3 L7.8,9.2 L7.8,-7.4 "/>
<path class="KeySig" transform="matrix(0.992,0,0,0.992,320.711,1576.6)" d="M23.3,-10.5 C23.9,-10.6 24.4,-11.3 24.4,-11.9 L24.4,-17.8 C24.4,-18.8 23.7,-19.2 22.8,-19.2 L19.5,-18.5 L19.5,-33.4 L16.7,-33.4 L16.7,-17.9 L7.8,-16.1 L7.8,-30.2 L5,-30.2 L5,-15.5 L1.1,-14.7 C0.5,-14.6 0,-13.9 0,-13.3 L0,-7.5 C0,-6.4 0.8,-6.1 1.7,-6.1 L5,-6.8 L5,9.7 L1.1,10.5 C0.5,10.6 0,11.3 0,11.9 L0,17.7 C0,18.8 0.8,19.1 1.7,19.1 L5,18.4 L5,33.3 L7.8,33.3 L7.8,17.8 L16.7,16 L16.7,30.1 L19.5,30.1 L19.5,15.4 L23.3,14.7 C23.9,14.6 24.4,13.9 24.4,13.3 L24.4,7.4 C24.4,6.4 23.7,6 22.8,6 L19.5,6.7 L19.5,-9.8 L23.3,-10.5 M7.8,-7.4 L16.7,-9.2 L16.7,7.3 L7.8,9.2 L7.8,-7.4 "/>
<path class="TimeSig" transform="matrix(0.992,0,0,0.992,368.528,659.494)" d="M24.7,-4.8 C18.6,-4.8 16.4,-3 15,-1.5 C14.7,-3.6 14.5,-5.2 14.5,-6.8 C14.5,-12.5 16.5,-19.9 23.5,-19.9 C26,-19.9 27.5,-19.1 28.5,-18 C26.4,-17.1 24.7,-14.4 24.7,-12.1 C24.7,-8.5 27.5,-5.7 31.1,-5.7 C34.7,-5.7 37.6,-8.5 37.6,-12.1 L37.6,-12.4 C37.6,-13.3 37.4,-14.8 37,-15.6 C35.7,-19.2 31.5,-24.5 21.5,-24.5 C12.5,-24.5 6,-15.9 4,-11.3 C3,-8.9 1.5,-4 1.5,1.6 C1.5,7.7 3.2,14.6 9.1,19.8 C14.9,24.2 18.6,24.4 22.1,24.4 C25.6,24.4 38.7,20.3 38.7,8.7 C38.7,-1.1 31,-4.8 24.7,-4.8 M21,20.2 C17.7,20.2 15,15.7 15,10.1 C15,4.5 17.7,-0.1 21,-0.1 C24.3,-0.1 27.1,4.5 27.1,10.1 C27.1,15.7 24.3,20.2 21,20.2"/>
<path class="TimeSig" transform="matrix(0.992,0,0,0.992,368.234,708.35)" d="M32.4,-1.8 C35.7,-4.3 38,-7.5 38,-11.5 C38,-18.7 30.1,-24.6 20.4,-24.6 C10.7,-24.6 2.8,-18.7 2.8,-11.5 C2.8,-7.5 3.8,-3.9 8.5,-0.9 C4,1.7 1.5,5.4 1.5,10.2 C1.5,18.3 10,24.8 20.4,24.8 C30.8,24.8 39.3,18.3 39.3,10.2 C39.3,5.4 37.6,0.9 32.4,-1.8 M26.8,-4.5 C20,-6.7 12.5,-10 12.5,-14.5 C12.5,-18.4 16.1,-20 20.4,-20 C26.6,-20 30.8,-17.1 30.8,-12.5 C30.8,-7.7 28.6,-5.4 26.8,-4.5 M20.4,19.2 C14,19.2 8.5,15.7 8.5,10.1 C8.5,3.4 13.7,1.8 13.7,1.8 C20.5,4.1 30.2,7.5 30.2,13 C30.2,15.7 26.8,19.2 20.4,19.2"/>
<path class="Rest" transform="matrix(0.992,0,0,0.992,2663.38,1626.2)" d="M26.7,-20.3 C26.6,-20.3 26.4,-20.4 26.3,-20.4 C25.7,-20.4 25.2,-20.1 25,-19.6 C22.7,-15 17.9,-8.8 12.5,-7.8 C13.6,-9.1 14.3,-10.7 14.3,-12.6 C14.3,-16.5 11.1,-19.7 7.2,-19.7 C3.2,-19.7 0,-16.5 0,-12.6 C0,-7.2 5.3,-4.7 10,-4.7 C15.3,-4.7 18.8,-7.2 22.2,-10.9 L10.8,24.7 L13.5,25.5 L27.5,-18.6 C27.6,-18.7 27.6,-18.9 27.6,-19.1 C27.6,-19.6 27.3,-20 26.7,-20.3"/>
<path class="Beam" fill-rule="evenodd" d="M2334.42,658.994 L2502.6,652.794 L2502.6,665.203 L2334.42,671.403 L2334.42,658.994 "/>
<path class="Beam" fill-rule="evenodd" d="M2039.7,1080.59 L2220.73,1086.79 L2220.73,1099.2 L2039.7,1093 L2039.7,1080.59 "/>
<path class="Beam" fill-rule="evenodd" d="M1982.14,1601.39 L2134.48,1595.19 L2134.48,1607.6 L1982.14,1613.8 L1982.14,1601.39 "/>
<path class="Beam" fill-rule="evenodd" d="M1651.25,1086.77 L1713.41,1080.57 L1713.41,1093.03 L1651.25,1099.23 L1651.25,1086.77 "/>
<path class="Beam" fill-rule="evenodd" d="M1651.25,1105.37 L1713.41,1099.17 L1713.41,1111.63 L1651.25,1117.83 L1651.25,1105.37 "/>
<path class="Beam" fill-rule="evenodd" d="M589.853,658.994 L758.029,652.794 L758.029,665.203 L589.853,671.403 L589.853,658.994 "/>
<path class="Beam" fill-rule="evenodd" d="M1183.76,1557.96 L1236.36,1551.76 L1236.36,1564.24 L1183.76,1570.44 L1183.76,1557.96 "/>
<path class="Beam" fill-rule="evenodd" d="M1183.76,1576.56 L1236.36,1570.36 L1236.36,1582.84 L1183.76,1589.04 L1183.76,1576.56 "/>
<path class="Beam" fill-rule="evenodd" d="M623.417,1570.39 L775.757,1576.59 L775.757,1589 L623.417,1582.8 L623.417,1570.39 "/>
<path class="NoteDot" transform="matrix(0.992,0,0,0.992,1818.32,1663.4)" d="M0,0 C0,2.8 2.2,5 5,5 C7.8,5 10,2.8 10,0 C10,-2.8 7.8,-5 5,-5 C2.2,-5 0,-2.8 0,0"/>
<path class="NoteDot" transform="matrix(0.992,0,0,0.992,934.004,1142.6)" d="M0,0 C0,2.8 2.2,5 5,5 C7.8,5 10,2.8 10,0 C10,-2.8 7.8,-5 5,-5 C2.2,-5 0,-2.8 0,0"/>
<path class="NoteDot" transform="matrix(0.992,0,0,0.992,1948.5,745.798)" d="M0,0 C0,2.8 2.2,5 5,5 C7.8,5 10,2.8 10,0 C10,-2.8 7.8,-5 5,-5 C2.2,-5 0,-2.8 0,0"/>
<path class="NoteDot" transform="matrix(0.992,0,0,0.992,1363.12,1142.6)" d="M0,0 C0,2.8 2.2,5 5,5 C7.8,5 10,2.8 10,0 C10,-2.8 7.8,-5 5,-5 C2.2,-5 0,-2.8 0,0"/>
<path class="NoteDot" transform="matrix(0.992,0,0,0.992,2453.56,1663.4)" d="M0,0 C0,2.8 2.2,5 5,5 C7.8,5 10,2.8 10,0 C10,-2.8 7.8,-5 5,-5 C2.2,-5 0,-2.8 0,0"/>
<path class="NoteDot" transform="matrix(0.992,0,0,0.992,1354.89,1613.8)" d="M0,0 C0,2.8 2.2,5 5,5 C7.8,5 10,2.8 10,0 C10,-2.8 7.8,-5 5,-5 C2.2,-5 0,-2.8 0,0"/>
<path class="NoteDot" transform="matrix(0.992,0,0,0.992,1497.13,1638.6)" d="M0,0 C0,2.8 2.2,5 5,5 C7.8,5 10,2.8 10,0 C10,-2.8 7.8,-5 5,-5 C2.2,-5 0,-2.8 0,0"/>
<path class="NoteDot" transform="matrix(0.992,0,0,0.992,1547.46,745.798)" d="M0,0 C0,2.8 2.2,5 5,5 C7.8,5 10,2.8 10,0 C10,-2.8 7.8,-5 5,-5 C2.2,-5 0,-2.8 0,0"/>
<path class="NoteDot" transform="matrix(0.992,0,0,0.992,1676.08,1638.6)" d="M0,0 C0,2.8 2.2,5 5,5 C7.8,5 10,2.8 10,0 C10,-2.8 7.8,-5 5,-5 C2.2,-5 0,-2.8 0,0"/>
</svg>
