<?xml version="1.0" encoding="UTF-8" standalone="no"?>
<svg width="2977.2px" height="4208.4px" viewBox="0 0 2977.2 4208.4"
 xmlns="http://www.w3.org/2000/svg" xmlns:xlink="http://www.w3.org/1999/xlink" version="1.2" baseProfile="tiny">
<title>ブラームスのワルツ</title>
<desc>Generated by MuseScore Studio 4.4.3</desc>
<path class="" fill="#ffffff" fill-rule="evenodd" d="M0,0 L2977.2,0 L2977.2,4208.4 L0,4208.4 L0,0 "/>
<polyline class="StaffLines" fill="none" stroke="#000000" stroke-width="2.73" stroke-linejoin="bevel" points="212.598,634.198 2764.6,634.198"/>
<polyline class="StaffLines" fill="none" stroke="#000000" stroke-width="2.73" stroke-linejoin="bevel" points="212.598,658.998 2764.6,658.998"/>
<polyline class="StaffLines" fill="none" stroke="#000000" stroke-width="2.73" stroke-linejoin="bevel" points="212.598,683.798 2764.6,683.798"/>
<polyline class="StaffLines" fill="none" stroke="#000000" stroke-width="2.73" stroke-linejoin="bevel" points="212.598,708.598 2764.6,708.598"/>
<polyline class="StaffLines" fill="none" stroke="#000000" stroke-width="2.73" stroke-linejoin="bevel" points="212.598,733.398 2764.6,733.398"/>
<polyline class="StaffLines" fill="none" stroke="#000000" stroke-width="2.73" stroke-linejoin="bevel" points="212.598,1241.8 2764.6,1241.8"/>
<polyline class="StaffLines" fill="none" stroke="#000000" stroke-width="2.73" stroke-linejoin="bevel" points="212.598,1266.6 2764.6,1266.6"/>
<polyline class="StaffLines" fill="none" stroke="#000000" stroke-width="2.73" stroke-linejoin="bevel" points="212.598,1291.4 2764.6,1291.4"/>
<polyline class="StaffLines" fill="none" stroke="#000000" stroke-width="2.73" stroke-linejoin="bevel" points="212.598,1316.2 2764.6,1316.2"/>
<polyline class="StaffLines" fill="none" stroke="#000000" stroke-width="2.73" stroke-linejoin="bevel" points="212.598,1341 2764.6,1341"/>
<polyline class="StaffLines" fill="none" stroke="#000000" stroke-width="2.73" stroke-linejoin="bevel" points="212.598,1849.4 2764.6,1849.4"/>
<polyline class="StaffLines" fill="none" stroke="#000000" stroke-width="2.73" stroke-linejoin="bevel" points="212.598,1874.2 2764.6,1874.2"/>
<polyline class="StaffLines" fill="none" stroke="#000000" stroke-width="2.73" stroke-linejoin="bevel" points="212.598,1899 2764.6,1899"/>
<polyline class="StaffLines" fill="none" stroke="#000000" stroke-width="2.73" stroke-linejoin="bevel" points="212.598,1923.8 2764.6,1923.8"/>
<polyline class="StaffLines" fill="none" stroke="#000000" stroke-width="2.73" stroke-linejoin="bevel" points="212.598,1948.6 2764.6,1948.6"/>
<path class="Text" d="M1084.03,236.47 L1088.1,234.05 C1085.9,229.1 1081.83,223.16 1076.22,216.45 L1070.72,219.31 C1074.68,223.82 1076.55,226.46 1081.06,234.27 C1078.31,234.38 1076.88,234.38 1074.57,234.38 L1021.44,234.38 C1015.5,234.38 1012.97,234.27 1009.01,233.72 L1009.01,242.52 C1012.31,242.08 1014.95,241.86 1021.33,241.86 L1077.32,241.86 C1073.47,257.92 1067.09,270.79 1058.07,281.02 C1048.17,292.24 1032.55,301.92 1017.81,305.99 C1020.45,308.63 1021.66,310.17 1023.2,313.58 C1037.06,308.41 1047.4,302.25 1057.74,292.9 C1070.61,281.35 1078.75,267.6 1084.69,247.25 C1086.12,241.86 1086.34,241.42 1087,240.43 L1084.03,236.47 M1085.02,215.57 C1089.42,220.74 1094.04,227.67 1096.35,232.84 L1101.96,229.54 C1098.11,222.61 1095.36,218.54 1090.41,212.6 L1085.02,215.57 M1128.91,233.83 C1131.88,233.39 1134.52,233.28 1140.35,233.28 L1177.31,233.28 C1183.14,233.28 1185.78,233.39 1188.75,233.83 L1188.75,225.36 C1185.56,226.02 1183.36,226.13 1177.2,226.13 L1140.46,226.13 C1134.3,226.13 1132.1,226.02 1128.91,225.36 L1128.91,233.83 M1119.45,259.13 C1123.19,258.69 1126.38,258.58 1132.21,258.58 L1189.63,258.58 C1184.57,272.11 1179.62,280.25 1171.81,287.4 C1163.56,294.99 1153.88,299.94 1139.14,304.12 C1141.78,307.31 1142.55,308.52 1143.87,311.71 C1172.36,302.14 1187.54,288.06 1196.89,262.43 C1198.76,257.59 1198.98,257.04 1199.97,255.5 L1195.9,250.77 C1194.03,251.43 1192.82,251.54 1188.75,251.54 L1132.32,251.54 C1125.72,251.54 1123.41,251.43 1119.45,250.88 L1119.45,259.13 M1223.84,270.9 C1227.14,270.57 1229.45,270.46 1237.48,270.46 L1301.28,270.46 C1308.65,270.46 1311.18,270.57 1314.7,270.9 L1314.7,261.99 C1311.29,262.43 1309.53,262.54 1301.39,262.54 L1237.48,262.54 C1230,262.54 1227.03,262.43 1223.84,261.88 L1223.84,270.9 M1364.97,221.18 C1364.09,227.45 1361.67,236.25 1356.28,252.86 C1350.89,269.36 1346.49,281.02 1339.67,296.42 C1337.14,296.64 1331.09,296.97 1330.32,296.97 C1329.77,296.97 1329.77,296.97 1327.24,296.86 L1328.34,305.99 C1330.43,305.55 1333.51,305.11 1337.69,304.78 C1364.97,302.25 1386.86,299.28 1405.34,295.65 C1407.87,300.71 1409.41,304.23 1411.83,310.5 L1419.53,306.32 C1411.94,288.61 1400.94,268.7 1392.14,256.6 L1385.32,260.34 C1390.71,267.82 1396.43,277.28 1402.26,288.83 C1389.28,291.36 1363.43,294.77 1348.8,295.76 C1356.17,278.93 1363.65,257.81 1371.68,231.41 C1372.78,227.78 1373.55,225.58 1374.65,223.49 L1364.97,221.18 M1527.88,302.69 C1515.34,289.38 1505.66,280.69 1491.25,269.69 C1498.07,261.22 1503.24,252.53 1509.4,238.89 C1510.61,236.14 1511.38,234.82 1512.48,233.5 L1507.86,228.77 C1505.99,229.43 1504.67,229.54 1500.82,229.65 L1461.55,230.09 C1460.01,230.09 1459.02,230.09 1458.69,230.09 C1454.95,230.09 1452.97,229.98 1450,229.54 L1450.22,238.45 C1453.41,237.9 1456.6,237.68 1461.55,237.57 L1498.29,237.02 C1499.61,237.02 1499.94,237.02 1500.93,236.91 C1500.82,237.24 1500.82,237.35 1500.6,237.68 C1500.38,238.23 1500.27,238.34 1500.05,239 C1492.02,258.25 1478.38,275.63 1460.78,288.61 C1452.31,294.88 1446.92,297.85 1438.45,301.26 C1441.2,304.01 1442.08,305.22 1443.84,308.52 C1451.98,304.45 1457.81,300.82 1465.4,295.32 C1473.32,289.49 1478.71,284.43 1486.41,275.63 C1500.49,286.52 1512.92,298.51 1521.61,309.62 L1527.88,302.69 "/>
<path class="Text" d="M1599.71,235.7 C1605.21,235.92 1608.4,236.69 1612.47,238.45 C1623.58,243.4 1629.96,253.52 1629.96,266.06 C1629.96,279.59 1622.59,291.36 1610.49,296.86 C1605.32,299.28 1600.15,300.71 1592.12,302.03 C1594.21,304.67 1594.87,305.77 1595.97,309.4 C1603.56,307.75 1607.74,306.43 1612.69,304.34 C1628.64,297.52 1637.88,283.44 1637.88,266.39 C1637.88,255.83 1634.14,246.26 1627.21,239.55 C1620.06,232.51 1609.28,228.66 1596.96,228.66 C1582.22,228.66 1570.23,233.61 1561.43,243.29 C1554.06,251.54 1549.88,262.43 1549.88,273.65 C1549.88,289.05 1557.69,300.49 1568.14,300.49 C1576.06,300.49 1582.55,293.89 1588.93,279.37 C1593.88,267.82 1598.06,250.99 1599.71,235.7 M1591.79,235.81 C1590.36,249.89 1586.29,266.17 1581.78,276.51 C1577.05,287.29 1572.65,292.46 1568.03,292.46 C1562.09,292.46 1557.47,284.32 1557.47,273.76 C1557.47,260.12 1564.29,247.69 1575.4,240.98 C1580.46,237.9 1585.19,236.36 1591.79,235.81"/>
<path class="Text" d="M1675.72,265.07 C1675.39,263.31 1675.39,263.31 1675.39,255.94 L1675.39,236.8 L1734.13,236.8 C1731.93,255.83 1728.85,266.72 1722.69,276.29 C1714.88,288.61 1703.11,296.97 1685.29,303.13 C1688.04,305.88 1688.81,306.98 1690.57,310.5 C1703.33,305.66 1713.67,299.06 1722.03,290.37 C1733.91,278.05 1739.41,264.3 1742.71,239.11 C1743.15,235.59 1743.37,234.71 1744.36,232.95 L1739.85,228.66 C1737.65,229.43 1736.55,229.54 1732.04,229.54 L1675.17,229.54 C1672.53,229.54 1669.12,229.32 1666.7,229.1 C1666.92,232.07 1666.92,233.06 1667.03,237.35 L1667.03,256.16 C1667.03,260.78 1666.92,262.54 1666.59,265.07 L1675.72,265.07 M1783.95,224.81 C1784.28,227.34 1784.39,228.66 1784.39,232.62 C1784.39,255.83 1782.85,270.24 1779.44,279.81 C1775.81,290.04 1769.87,297.96 1760.85,305.11 C1764.15,307.2 1765.25,308.19 1767.45,311.05 C1777.46,301.48 1782.74,294.11 1786.48,283.88 C1790.66,272.77 1791.54,264.63 1792.42,234.82 C1792.64,228.11 1792.64,228.11 1793.08,225.36 L1783.95,224.81 M1811.34,224.04 C1811.78,226.68 1811.78,226.68 1811.78,233.83 L1811.12,298.18 C1811.12,302.91 1811.01,303.79 1810.35,305.66 L1814.75,310.72 C1815.74,310.17 1815.96,310.06 1817.28,309.51 C1818.82,308.96 1818.82,308.96 1820.8,308.19 C1827.29,305.66 1831.69,303.46 1836.53,300.16 C1845.99,293.67 1853.25,284.54 1858.64,271.89 C1855.67,269.47 1854.79,268.48 1852.48,265.51 C1849.84,273.98 1845.55,281.24 1839.5,287.51 C1833.78,293.34 1828.17,296.86 1819.04,300.27 L1819.7,233.83 C1819.7,228.77 1819.81,226.79 1820.36,224.15 L1811.34,224.04 M1873.15,235.04 C1878.54,243.95 1882.83,254.4 1886.02,265.4 L1893.94,262.87 C1890.2,250.88 1886.35,242.19 1880.52,232.51 L1873.15,235.04 M1901.31,229.43 C1907.03,239.11 1910.66,247.69 1913.96,259.24 L1921.77,256.38 C1918.14,245.16 1913.85,235.81 1908.46,227.12 L1901.31,229.43 M1948.72,229.43 C1948.61,232.84 1948.28,235.37 1947.29,239.88 C1943.33,258.58 1934.75,274.64 1922.76,286.08 C1914.07,294.44 1904.39,300.6 1892.4,305.33 C1895.59,307.97 1896.47,309.18 1898.34,312.37 C1922.43,300.49 1936.51,287.07 1946.63,266.39 C1950.7,258.36 1953.12,250.99 1955.87,239 C1956.97,234.38 1957.08,233.83 1958.07,231.41 L1948.72,229.43 "/>
<path class="MeasureNumber" d="M228.958,1771.48 L227.798,1771.48 C225.598,1773.12 221.358,1774.52 218.478,1774.52 L217.998,1776.28 L220.758,1776.28 C223.198,1776.28 223.478,1776.36 223.478,1777.08 C223.478,1777.44 223.478,1777.44 223.078,1778.88 L218.798,1794.88 C218.278,1796.88 218.238,1797 217.878,1797.36 C217.478,1797.76 216.638,1797.88 214.518,1797.92 L212.798,1797.92 L212.598,1799.8 L227.398,1799.8 L227.638,1797.92 L225.478,1797.92 C222.878,1797.92 222.318,1797.72 222.318,1796.84 C222.318,1796.56 222.478,1795.64 222.678,1794.88 L228.958,1771.48 M251.193,1771.48 L250.033,1771.48 C247.833,1773.12 243.593,1774.52 240.713,1774.52 L240.233,1776.28 L242.993,1776.28 C245.433,1776.28 245.713,1776.36 245.713,1777.08 C245.713,1777.44 245.713,1777.44 245.313,1778.88 L241.033,1794.88 C240.513,1796.88 240.473,1797 240.113,1797.36 C239.713,1797.76 238.873,1797.88 236.753,1797.92 L235.033,1797.92 L234.833,1799.8 L249.633,1799.8 L249.873,1797.92 L247.713,1797.92 C245.113,1797.92 244.553,1797.72 244.553,1796.84 C244.553,1796.56 244.713,1795.64 244.913,1794.88 L251.193,1771.48 "/>
<path class="MeasureNumber" d="M217.481,1178.8 C218.161,1175.28 218.961,1173.08 220.481,1170.4 C222.281,1167.24 224.441,1165.64 226.841,1165.64 C228.081,1165.64 228.841,1166.12 228.841,1166.88 C228.841,1167.16 228.761,1167.32 228.481,1167.84 C228.121,1168.52 227.961,1169 227.961,1169.6 C227.961,1170.88 228.921,1171.76 230.281,1171.76 C231.921,1171.76 233.041,1170.56 233.041,1168.76 C233.041,1166.04 230.481,1164.04 226.921,1164.04 C218.001,1164.04 212.601,1175.68 212.601,1183.36 C212.601,1189.24 215.521,1192.8 220.401,1192.8 C226.401,1192.8 230.841,1187.84 230.841,1181.96 C230.841,1177.88 228.081,1175.04 224.081,1175.04 C221.281,1175.04 219.121,1176.24 217.481,1178.8 M222.801,1177.36 C225.281,1177.36 226.641,1179.08 226.641,1182.2 C226.641,1187.28 223.961,1191.16 220.401,1191.16 C217.841,1191.16 216.321,1189.28 216.321,1186.08 C216.321,1181.08 219.081,1177.36 222.801,1177.36"/>
<polyline class="BarLine" fill="none" stroke="#000000" stroke-width="4.46" stroke-linejoin="bevel" points="834.515,632.834 834.515,734.762"/>
<polyline class="BarLine" fill="none" stroke="#000000" stroke-width="4.46" stroke-linejoin="bevel" points="2762.37,1848.03 2762.37,1949.96"/>
<polyline class="BarLine" fill="none" stroke="#000000" stroke-width="4.46" stroke-linejoin="bevel" points="1306.86,632.834 1306.86,734.762"/>
<polyline class="BarLine" fill="none" stroke="#000000" stroke-width="4.46" stroke-linejoin="bevel" points="1637.99,1848.03 1637.99,1949.96"/>
<polyline class="BarLine" fill="none" stroke="#000000" stroke-width="4.46" stroke-linejoin="bevel" points="2064.69,1848.03 2064.69,1949.96"/>
<polyline class="BarLine" fill="none" stroke="#000000" stroke-width="4.46" stroke-linejoin="bevel" points="1211.3,1848.03 1211.3,1949.96"/>
<polyline class="BarLine" fill="none" stroke="#000000" stroke-width="4.46" stroke-linejoin="bevel" points="1775.47,1240.43 1775.47,1342.36"/>
<polyline class="BarLine" fill="none" stroke="#000000" stroke-width="4.46" stroke-linejoin="bevel" points="1817.69,632.834 1817.69,734.762"/>
<polyline class="BarLine" fill="none" stroke="#000000" stroke-width="4.46" stroke-linejoin="bevel" points="816.888,1240.43 816.888,1342.36"/>
<polyline class="BarLine" fill="none" stroke="#000000" stroke-width="4.46" stroke-linejoin="bevel" points="784.601,1848.03 784.601,1949.96"/>
<polyline class="BarLine" fill="none" stroke="#000000" stroke-width="4.46" stroke-linejoin="bevel" points="2290.03,632.834 2290.03,734.762"/>
<polyline class="BarLine" fill="none" stroke="#000000" stroke-width="4.46" stroke-linejoin="bevel" points="2499.24,1848.03 2499.24,1949.96"/>
<polyline class="BarLine" fill="none" stroke="#000000" stroke-width="4.46" stroke-linejoin="bevel" points="2268.92,1240.43 2268.92,1342.36"/>
<polyline class="BarLine" fill="none" stroke="#000000" stroke-width="4.46" stroke-linejoin="bevel" points="2762.37,1240.43 2762.37,1342.36"/>
<polyline class="BarLine" fill="none" stroke="#000000" stroke-width="4.46" stroke-linejoin="bevel" points="2762.37,632.834 2762.37,734.762"/>
<polyline class="BarLine" fill="none" stroke="#000000" stroke-width="4.46" stroke-linejoin="bevel" points="1319.54,1240.43 1319.54,1342.36"/>
<path class="Accidental" transform="matrix(0.992,0,0,0.992,2346.89,1936.2)" d="M23.3,-10.5 C23.9,-10.6 24.4,-11.3 24.4,-11.9 L24.4,-17.8 C24.4,-18.8 23.7,-19.2 22.8,-19.2 L19.5,-18.5 L19.5,-33.4 L16.7,-33.4 L16.7,-17.9 L7.8,-16.1 L7.8,-30.2 L5,-30.2 L5,-15.5 L1.1,-14.7 C0.5,-14.6 0,-13.9 0,-13.3 L0,-7.5 C0,-6.4 0.8,-6.1 1.7,-6.1 L5,-6.8 L5,9.7 L1.1,10.5 C0.5,10.6 0,11.3 0,11.9 L0,17.7 C0,18.8 0.8,19.1 1.7,19.1 L5,18.4 L5,33.3 L7.8,33.3 L7.8,17.8 L16.7,16 L16.7,30.1 L19.5,30.1 L19.5,15.4 L23.3,14.7 C23.9,14.6 24.4,13.9 24.4,13.3 L24.4,7.4 C24.4,6.4 23.7,6 22.8,6 L19.5,6.7 L19.5,-9.8 L23.3,-10.5 M7.8,-7.4 L16.7,-9.2 L16.7,7.3 L7.8,9.2 L7.8,-7.4 "/>
<path class="Accidental" transform="matrix(0.992,0,0,0.992,1146.76,1328.6)" d="M23.3,-10.5 C23.9,-10.6 24.4,-11.3 24.4,-11.9 L24.4,-17.8 C24.4,-18.8 23.7,-19.2 22.8,-19.2 L19.5,-18.5 L19.5,-33.4 L16.7,-33.4 L16.7,-17.9 L7.8,-16.1 L7.8,-30.2 L5,-30.2 L5,-15.5 L1.1,-14.7 C0.5,-14.6 0,-13.9 0,-13.3 L0,-7.5 C0,-6.4 0.8,-6.1 1.7,-6.1 L5,-6.8 L5,9.7 L1.1,10.5 C0.5,10.6 0,11.3 0,11.9 L0,17.7 C0,18.8 0.8,19.1 1.7,19.1 L5,18.4 L5,33.3 L7.8,33.3 L7.8,17.8 L16.7,16 L16.7,30.1 L19.5,30.1 L19.5,15.4 L23.3,14.7 C23.9,14.6 24.4,13.9 24.4,13.3 L24.4,7.4 C24.4,6.4 23.7,6 22.8,6 L19.5,6.7 L19.5,-9.8 L23.3,-10.5 M7.8,-7.4 L16.7,-9.2 L16.7,7.3 L7.8,9.2 L7.8,-7.4 "/>
<polyline class="LedgerLine" fill="none" stroke="#000000" stroke-width="3.97" stroke-linejoin="bevel" points="2012.22,758.198 2060.81,758.198"/>
<polyline class="LedgerLine" fill="none" stroke="#000000" stroke-width="3.97" stroke-linejoin="bevel" points="1118.18,758.198 1166.77,758.198"/>
<polyline class="LedgerLine" fill="none" stroke="#000000" stroke-width="3.97" stroke-linejoin="bevel" points="1978.19,1365.8 2026.78,1365.8"/>
<polyline class="LedgerLine" fill="none" stroke="#000000" stroke-width="3.97" stroke-linejoin="bevel" points="1029.05,758.198 1077.64,758.198"/>
<polyline class="LedgerLine" fill="none" stroke="#000000" stroke-width="3.97" stroke-linejoin="bevel" points="2071.63,1365.8 2120.22,1365.8"/>
<polyline class="LedgerLine" fill="none" stroke="#000000" stroke-width="3.97" stroke-linejoin="bevel" points="2471.64,1365.8 2520.23,1365.8"/>
<polyline class="LedgerLine" fill="none" stroke="#000000" stroke-width="3.97" stroke-linejoin="bevel" points="2565.08,1365.8 2613.67,1365.8"/>
<polyline class="LedgerLine" fill="none" stroke="#000000" stroke-width="3.97" stroke-linejoin="bevel" points="645.836,758.198 694.429,758.198"/>
<polyline class="LedgerLine" fill="none" stroke="#000000" stroke-width="3.97" stroke-linejoin="bevel" points="556.705,758.198 605.298,758.198"/>
<polyline class="LedgerLine" fill="none" stroke="#000000" stroke-width="3.97" stroke-linejoin="bevel" points="961.425,1973.4 1010.02,1973.4"/>
<polyline class="LedgerLine" fill="none" stroke="#000000" stroke-width="3.97" stroke-linejoin="bevel" points="1041.24,1973.4 1089.84,1973.4"/>
<polyline class="LedgerLine" fill="none" stroke="#000000" stroke-width="3.97" stroke-linejoin="bevel" points="2101.35,758.198 2149.94,758.198"/>
<polyline class="Stem" fill="none" stroke="#000000" stroke-width="2.48" stroke-linejoin="bevel" points="1586.93,1919.83 1586.93,1849.45"/>
<polyline class="Stem" fill="none" stroke="#000000" stroke-width="2.48" stroke-linejoin="bevel" points="1839.69,1337.03 1839.69,1254.2"/>
<polyline class="Stem" fill="none" stroke="#000000" stroke-width="2.48" stroke-linejoin="bevel" points="2051.39,754.23 2051.39,640.356"/>
<polyline class="Stem" fill="none" stroke="#000000" stroke-width="2.48" stroke-linejoin="bevel" points="1507.11,1944.63 1507.11,1852.5"/>
<polyline class="Stem" fill="none" stroke="#000000" stroke-width="2.48" stroke-linejoin="bevel" points="1427.29,1944.63 1427.29,1855.55"/>
<polyline class="Stem" fill="none" stroke="#000000" stroke-width="2.48" stroke-linejoin="bevel" points="1275.51,1907.43 1275.51,1830.8"/>
<polyline class="Stem" fill="none" stroke="#000000" stroke-width="2.48" stroke-linejoin="bevel" points="2140.52,754.23 2140.52,637.298"/>
<polyline class="Stem" fill="none" stroke="#000000" stroke-width="2.48" stroke-linejoin="bevel" points="1881.9,729.43 1881.9,646.598"/>
<polyline class="Stem" fill="none" stroke="#000000" stroke-width="2.48" stroke-linejoin="bevel" points="426.39,729.43 426.39,646.598"/>
<polyline class="Stem" fill="none" stroke="#000000" stroke-width="2.48" stroke-linejoin="bevel" points="2229.65,704.63 2229.65,634.241"/>
<polyline class="Stem" fill="none" stroke="#000000" stroke-width="2.48" stroke-linejoin="bevel" points="1160.23,1919.83 1160.23,1849.45"/>
<polyline class="Stem" fill="none" stroke="#000000" stroke-width="2.48" stroke-linejoin="bevel" points="1080.41,1969.43 1080.41,1852.5"/>
<polyline class="Stem" fill="none" stroke="#000000" stroke-width="2.48" stroke-linejoin="bevel" points="2288.54,1919.83 2288.54,1837"/>
<polyline class="Stem" fill="none" stroke="#000000" stroke-width="2.48" stroke-linejoin="bevel" points="1712.74,741.83 1712.74,658.998"/>
<polyline class="Stem" fill="none" stroke="#000000" stroke-width="2.48" stroke-linejoin="bevel" points="2354.24,692.23 2354.24,615.598"/>
<polyline class="Stem" fill="none" stroke="#000000" stroke-width="2.48" stroke-linejoin="bevel" points="1702.21,1907.43 1702.21,1830.8"/>
<polyline class="Stem" fill="none" stroke="#000000" stroke-width="2.48" stroke-linejoin="bevel" points="1000.59,1969.43 1000.59,1855.55"/>
<polyline class="Stem" fill="none" stroke="#000000" stroke-width="2.48" stroke-linejoin="bevel" points="2523.73,729.43 2523.73,640.356"/>
<polyline class="Stem" fill="none" stroke="#000000" stroke-width="2.48" stroke-linejoin="bevel" points="848.818,1944.63 848.818,1861.8"/>
<polyline class="Stem" fill="none" stroke="#000000" stroke-width="2.48" stroke-linejoin="bevel" points="2208.72,1907.43 2208.72,1836.91"/>
<polyline class="Stem" fill="none" stroke="#000000" stroke-width="2.48" stroke-linejoin="bevel" points="2612.86,729.43 2612.86,637.298"/>
<polyline class="Stem" fill="none" stroke="#000000" stroke-width="2.48" stroke-linejoin="bevel" points="2563.46,1919.83 2563.46,1837"/>
<polyline class="Stem" fill="none" stroke="#000000" stroke-width="2.48" stroke-linejoin="bevel" points="2701.99,704.63 2701.99,634.241"/>
<polyline class="Stem" fill="none" stroke="#000000" stroke-width="2.48" stroke-linejoin="bevel" points="595.874,754.23 595.874,665.156"/>
<polyline class="Stem" fill="none" stroke="#000000" stroke-width="2.48" stroke-linejoin="bevel" points="693.626,1957.03 693.626,1874.2"/>
<polyline class="Stem" fill="none" stroke="#000000" stroke-width="2.48" stroke-linejoin="bevel" points="1579.05,729.43 1579.05,646.598"/>
<polyline class="Stem" fill="none" stroke="#000000" stroke-width="2.48" stroke-linejoin="bevel" points="573.899,1944.63 573.899,1861.8"/>
<polyline class="Stem" fill="none" stroke="#000000" stroke-width="2.48" stroke-linejoin="bevel" points="520.686,1932.23 520.686,1849.4"/>
<polyline class="Stem" fill="none" stroke="#000000" stroke-width="2.48" stroke-linejoin="bevel" points="467.474,1919.83 467.474,1849.4"/>
<polyline class="Stem" fill="none" stroke="#000000" stroke-width="2.48" stroke-linejoin="bevel" points="387.655,1299.83 387.655,1223.2"/>
<polyline class="Stem" fill="none" stroke="#000000" stroke-width="2.48" stroke-linejoin="bevel" points="1853.98,1944.63 1853.98,1855.55"/>
<polyline class="Stem" fill="none" stroke="#000000" stroke-width="2.48" stroke-linejoin="bevel" points="387.655,1932.23 387.655,1849.4"/>
<polyline class="Stem" fill="none" stroke="#000000" stroke-width="2.48" stroke-linejoin="bevel" points="565.328,1337.03 565.328,1247.96"/>
<polyline class="Stem" fill="none" stroke="#000000" stroke-width="2.48" stroke-linejoin="bevel" points="685.005,754.23 685.005,662.098"/>
<polyline class="Stem" fill="none" stroke="#000000" stroke-width="2.48" stroke-linejoin="bevel" points="2128.9,1895.03 2128.9,1830.89"/>
<polyline class="Stem" fill="none" stroke="#000000" stroke-width="2.48" stroke-linejoin="bevel" points="658.765,1337.03 658.765,1244.9"/>
<polyline class="Stem" fill="none" stroke="#000000" stroke-width="2.48" stroke-linejoin="bevel" points="2697.68,1337.03 2697.68,1266.64"/>
<polyline class="Stem" fill="none" stroke="#000000" stroke-width="2.48" stroke-linejoin="bevel" points="752.203,1312.23 752.203,1241.84"/>
<polyline class="Stem" fill="none" stroke="#000000" stroke-width="2.48" stroke-linejoin="bevel" points="1519.62,717.03 1519.62,634.198"/>
<polyline class="Stem" fill="none" stroke="#000000" stroke-width="2.48" stroke-linejoin="bevel" points="774.136,729.43 774.136,659.041"/>
<polyline class="Stem" fill="none" stroke="#000000" stroke-width="2.48" stroke-linejoin="bevel" points="2604.25,1361.83 2604.25,1269.7"/>
<polyline class="Stem" fill="none" stroke="#000000" stroke-width="2.48" stroke-linejoin="bevel" points="881.104,1287.43 881.104,1223.28"/>
<polyline class="Stem" fill="none" stroke="#000000" stroke-width="2.48" stroke-linejoin="bevel" points="2510.81,1361.83 2510.81,1272.76"/>
<polyline class="Stem" fill="none" stroke="#000000" stroke-width="2.48" stroke-linejoin="bevel" points="1460.2,704.63 1460.2,634.198"/>
<polyline class="Stem" fill="none" stroke="#000000" stroke-width="2.48" stroke-linejoin="bevel" points="974.542,1299.83 974.542,1229.32"/>
<polyline class="Stem" fill="none" stroke="#000000" stroke-width="2.48" stroke-linejoin="bevel" points="1933.8,1944.63 1933.8,1852.5"/>
<polyline class="Stem" fill="none" stroke="#000000" stroke-width="2.48" stroke-linejoin="bevel" points="1067.98,1312.23 1067.98,1229.4"/>
<polyline class="Stem" fill="none" stroke="#000000" stroke-width="2.48" stroke-linejoin="bevel" points="2333.14,1337.03 2333.14,1254.2"/>
<polyline class="Stem" fill="none" stroke="#000000" stroke-width="2.48" stroke-linejoin="bevel" points="1208.14,1324.63 1208.14,1241.8"/>
<polyline class="Stem" fill="none" stroke="#000000" stroke-width="2.48" stroke-linejoin="bevel" points="898.731,729.43 898.731,646.598"/>
<polyline class="Stem" fill="none" stroke="#000000" stroke-width="2.48" stroke-linejoin="bevel" points="2204.24,1337.03 2204.24,1266.64"/>
<polyline class="Stem" fill="none" stroke="#000000" stroke-width="2.48" stroke-linejoin="bevel" points="1068.22,754.23 1068.22,665.156"/>
<polyline class="Stem" fill="none" stroke="#000000" stroke-width="2.48" stroke-linejoin="bevel" points="1371.07,717.03 1371.07,634.198"/>
<polyline class="Stem" fill="none" stroke="#000000" stroke-width="2.48" stroke-linejoin="bevel" points="1383.76,1312.23 1383.76,1229.4"/>
<polyline class="Stem" fill="none" stroke="#000000" stroke-width="2.48" stroke-linejoin="bevel" points="2110.8,1361.83 2110.8,1269.7"/>
<polyline class="Stem" fill="none" stroke="#000000" stroke-width="2.48" stroke-linejoin="bevel" points="2013.62,1919.83 2013.62,1849.45"/>
<polyline class="Stem" fill="none" stroke="#000000" stroke-width="2.48" stroke-linejoin="bevel" points="1246.48,729.43 1246.48,659.041"/>
<polyline class="Stem" fill="none" stroke="#000000" stroke-width="2.48" stroke-linejoin="bevel" points="2408.27,1932.23 2408.27,1849.4"/>
<polyline class="Stem" fill="none" stroke="#000000" stroke-width="2.48" stroke-linejoin="bevel" points="1157.35,754.23 1157.35,662.098"/>
<polyline class="Stem" fill="none" stroke="#000000" stroke-width="2.48" stroke-linejoin="bevel" points="2017.36,1361.83 2017.36,1272.76"/>
<path class="Note" transform="matrix(0.992,0,0,0.992,1986.38,1365.8)" d="M0,4.2 C0,8.5 3.1,13.3 11.2,13.3 C21.6,13.3 32.5,4.8 32.5,-4 C32.5,-9.9 27.5,-13.2 21.3,-13.2 C11.6,-13.2 0,-5 0,4.2"/>
<path class="Note" transform="matrix(0.992,0,0,0.992,1244.53,1911.4)" d="M0,4.2 C0,8.5 3.1,13.3 11.2,13.3 C21.6,13.3 32.5,4.8 32.5,-4 C32.5,-9.9 27.5,-13.2 21.3,-13.2 C11.6,-13.2 0,-5 0,4.2"/>
<path class="Note" transform="matrix(0.992,0,0,0.992,1808.7,1341)" d="M0,4.2 C0,8.5 3.1,13.3 11.2,13.3 C21.6,13.3 32.5,4.8 32.5,-4 C32.5,-9.9 27.5,-13.2 21.3,-13.2 C11.6,-13.2 0,-5 0,4.2"/>
<path class="Note" transform="matrix(0.992,0,0,0.992,1037.23,758.198)" d="M0,4.2 C0,8.5 3.1,13.3 11.2,13.3 C21.6,13.3 32.5,4.8 32.5,-4 C32.5,-9.9 27.5,-13.2 21.3,-13.2 C11.6,-13.2 0,-5 0,4.2"/>
<path class="Note" transform="matrix(0.992,0,0,0.992,1126.36,758.198)" d="M0,4.2 C0,8.5 3.1,13.3 11.2,13.3 C21.6,13.3 32.5,4.8 32.5,-4 C32.5,-9.9 27.5,-13.2 21.3,-13.2 C11.6,-13.2 0,-5 0,4.2"/>
<path class="Note" transform="matrix(0.992,0,0,0.992,1215.49,733.398)" d="M0,4.2 C0,8.5 3.1,13.3 11.2,13.3 C21.6,13.3 32.5,4.8 32.5,-4 C32.5,-9.9 27.5,-13.2 21.3,-13.2 C11.6,-13.2 0,-5 0,4.2"/>
<path class="Note" transform="matrix(0.992,0,0,0.992,1352.77,1316.2)" d="M0,4.2 C0,8.5 3.1,13.3 11.2,13.3 C21.6,13.3 32.5,4.8 32.5,-4 C32.5,-9.9 27.5,-13.2 21.3,-13.2 C11.6,-13.2 0,-5 0,4.2"/>
<path class="Note" transform="matrix(0.992,0,0,0.992,1340.09,720.998)" d="M0,4.2 C0,8.5 3.1,13.3 11.2,13.3 C21.6,13.3 32.5,4.8 32.5,-4 C32.5,-9.9 27.5,-13.2 21.3,-13.2 C11.6,-13.2 0,-5 0,4.2"/>
<path class="Note" transform="matrix(0.992,0,0,0.992,2079.81,1365.8)" d="M0,4.2 C0,8.5 3.1,13.3 11.2,13.3 C21.6,13.3 32.5,4.8 32.5,-4 C32.5,-9.9 27.5,-13.2 21.3,-13.2 C11.6,-13.2 0,-5 0,4.2"/>
<path class="Note" transform="matrix(0.992,0,0,0.992,2377.28,1936.2)" d="M0,4.2 C0,8.5 3.1,13.3 11.2,13.3 C21.6,13.3 32.5,4.8 32.5,-4 C32.5,-9.9 27.5,-13.2 21.3,-13.2 C11.6,-13.2 0,-5 0,4.2"/>
<path class="Note" transform="matrix(0.992,0,0,0.992,2173.25,1341)" d="M0,4.2 C0,8.5 3.1,13.3 11.2,13.3 C21.6,13.3 32.5,4.8 32.5,-4 C32.5,-9.9 27.5,-13.2 21.3,-13.2 C11.6,-13.2 0,-5 0,4.2"/>
<path class="Note" transform="matrix(0.992,0,0,0.992,867.747,733.398)" d="M0,4.2 C0,8.5 3.1,13.3 11.2,13.3 C21.6,13.3 32.5,4.8 32.5,-4 C32.5,-9.9 27.5,-13.2 21.3,-13.2 C11.6,-13.2 0,-5 0,4.2"/>
<path class="Note" transform="matrix(0.992,0,0,0.992,1902.82,1948.6)" d="M0,4.2 C0,8.5 3.1,13.3 11.2,13.3 C21.6,13.3 32.5,4.8 32.5,-4 C32.5,-9.9 27.5,-13.2 21.3,-13.2 C11.6,-13.2 0,-5 0,4.2"/>
<path class="Note" transform="matrix(0.992,0,0,0.992,1177.15,1328.6)" d="M0,4.2 C0,8.5 3.1,13.3 11.2,13.3 C21.6,13.3 32.5,4.8 32.5,-4 C32.5,-9.9 27.5,-13.2 21.3,-13.2 C11.6,-13.2 0,-5 0,4.2"/>
<path class="Note" transform="matrix(0.992,0,0,0.992,1036.99,1316.2)" d="M0,4.2 C0,8.5 3.1,13.3 11.2,13.3 C21.6,13.3 32.5,4.8 32.5,-4 C32.5,-9.9 27.5,-13.2 21.3,-13.2 C11.6,-13.2 0,-5 0,4.2"/>
<path class="Note" transform="matrix(0.992,0,0,0.992,2302.15,1341)" d="M0,4.2 C0,8.5 3.1,13.3 11.2,13.3 C21.6,13.3 32.5,4.8 32.5,-4 C32.5,-9.9 27.5,-13.2 21.3,-13.2 C11.6,-13.2 0,-5 0,4.2"/>
<path class="Note" transform="matrix(0.992,0,0,0.992,943.557,1303.8)" d="M0,4.2 C0,8.5 3.1,13.3 11.2,13.3 C21.6,13.3 32.5,4.8 32.5,-4 C32.5,-9.9 27.5,-13.2 21.3,-13.2 C11.6,-13.2 0,-5 0,4.2"/>
<path class="Note" transform="matrix(0.992,0,0,0.992,850.12,1291.4)" d="M0,4.2 C0,8.5 3.1,13.3 11.2,13.3 C21.6,13.3 32.5,4.8 32.5,-4 C32.5,-9.9 27.5,-13.2 21.3,-13.2 C11.6,-13.2 0,-5 0,4.2"/>
<path class="Note" transform="matrix(0.992,0,0,0.992,743.152,733.398)" d="M0,4.2 C0,8.5 3.1,13.3 11.2,13.3 C21.6,13.3 32.5,4.8 32.5,-4 C32.5,-9.9 27.5,-13.2 21.3,-13.2 C11.6,-13.2 0,-5 0,4.2"/>
<path class="Note" transform="matrix(0.992,0,0,0.992,2479.83,1365.8)" d="M0,4.2 C0,8.5 3.1,13.3 11.2,13.3 C21.6,13.3 32.5,4.8 32.5,-4 C32.5,-9.9 27.5,-13.2 21.3,-13.2 C11.6,-13.2 0,-5 0,4.2"/>
<path class="Note" transform="matrix(0.992,0,0,0.992,1823,1948.6)" d="M0,4.2 C0,8.5 3.1,13.3 11.2,13.3 C21.6,13.3 32.5,4.8 32.5,-4 C32.5,-9.9 27.5,-13.2 21.3,-13.2 C11.6,-13.2 0,-5 0,4.2"/>
<path class="Note" transform="matrix(0.992,0,0,0.992,721.218,1316.2)" d="M0,4.2 C0,8.5 3.1,13.3 11.2,13.3 C21.6,13.3 32.5,4.8 32.5,-4 C32.5,-9.9 27.5,-13.2 21.3,-13.2 C11.6,-13.2 0,-5 0,4.2"/>
<path class="Note" transform="matrix(0.992,0,0,0.992,1429.22,708.598)" d="M0,4.2 C0,8.5 3.1,13.3 11.2,13.3 C21.6,13.3 32.5,4.8 32.5,-4 C32.5,-9.9 27.5,-13.2 21.3,-13.2 C11.6,-13.2 0,-5 0,4.2"/>
<path class="Note" transform="matrix(0.992,0,0,0.992,2573.26,1365.8)" d="M0,4.2 C0,8.5 3.1,13.3 11.2,13.3 C21.6,13.3 32.5,4.8 32.5,-4 C32.5,-9.9 27.5,-13.2 21.3,-13.2 C11.6,-13.2 0,-5 0,4.2"/>
<path class="Note" transform="matrix(0.992,0,0,0.992,627.781,1341)" d="M0,4.2 C0,8.5 3.1,13.3 11.2,13.3 C21.6,13.3 32.5,4.8 32.5,-4 C32.5,-9.9 27.5,-13.2 21.3,-13.2 C11.6,-13.2 0,-5 0,4.2"/>
<path class="Note" transform="matrix(0.992,0,0,0.992,2666.7,1341)" d="M0,4.2 C0,8.5 3.1,13.3 11.2,13.3 C21.6,13.3 32.5,4.8 32.5,-4 C32.5,-9.9 27.5,-13.2 21.3,-13.2 C11.6,-13.2 0,-5 0,4.2"/>
<path class="Note" transform="matrix(0.992,0,0,0.992,654.02,758.198)" d="M0,4.2 C0,8.5 3.1,13.3 11.2,13.3 C21.6,13.3 32.5,4.8 32.5,-4 C32.5,-9.9 27.5,-13.2 21.3,-13.2 C11.6,-13.2 0,-5 0,4.2"/>
<path class="Note" transform="matrix(0.992,0,0,0.992,534.343,1341)" d="M0,4.2 C0,8.5 3.1,13.3 11.2,13.3 C21.6,13.3 32.5,4.8 32.5,-4 C32.5,-9.9 27.5,-13.2 21.3,-13.2 C11.6,-13.2 0,-5 0,4.2"/>
<path class="Note" transform="matrix(0.992,0,0,0.992,564.889,758.198)" d="M0,4.2 C0,8.5 3.1,13.3 11.2,13.3 C21.6,13.3 32.5,4.8 32.5,-4 C32.5,-9.9 27.5,-13.2 21.3,-13.2 C11.6,-13.2 0,-5 0,4.2"/>
<path class="Note" transform="matrix(0.992,0,0,0.992,1476.12,1948.6)" d="M0,4.2 C0,8.5 3.1,13.3 11.2,13.3 C21.6,13.3 32.5,4.8 32.5,-4 C32.5,-9.9 27.5,-13.2 21.3,-13.2 C11.6,-13.2 0,-5 0,4.2"/>
<path class="Note" transform="matrix(0.992,0,0,0.992,1850.92,733.398)" d="M0,4.2 C0,8.5 3.1,13.3 11.2,13.3 C21.6,13.3 32.5,4.8 32.5,-4 C32.5,-9.9 27.5,-13.2 21.3,-13.2 C11.6,-13.2 0,-5 0,4.2"/>
<path class="Note" transform="matrix(0.992,0,0,0.992,2097.92,1899)" d="M0,4.2 C0,8.5 3.1,13.3 11.2,13.3 C21.6,13.3 32.5,4.8 32.5,-4 C32.5,-9.9 27.5,-13.2 21.3,-13.2 C11.6,-13.2 0,-5 0,4.2"/>
<path class="Note" transform="matrix(0.992,0,0,0.992,356.671,1936.2)" d="M0,4.2 C0,8.5 3.1,13.3 11.2,13.3 C21.6,13.3 32.5,4.8 32.5,-4 C32.5,-9.9 27.5,-13.2 21.3,-13.2 C11.6,-13.2 0,-5 0,4.2"/>
<path class="Note" transform="matrix(0.992,0,0,0.992,356.671,1303.8)" d="M0,4.2 C0,8.5 3.1,13.3 11.2,13.3 C21.6,13.3 32.5,4.8 32.5,-4 C32.5,-9.9 27.5,-13.2 21.3,-13.2 C11.6,-13.2 0,-5 0,4.2"/>
<path class="Note" transform="matrix(0.992,0,0,0.992,1982.64,1923.8)" d="M0,4.2 C0,8.5 3.1,13.3 11.2,13.3 C21.6,13.3 32.5,4.8 32.5,-4 C32.5,-9.9 27.5,-13.2 21.3,-13.2 C11.6,-13.2 0,-5 0,4.2"/>
<path class="Note" transform="matrix(0.992,0,0,0.992,436.489,1923.8)" d="M0,4.2 C0,8.5 3.1,13.3 11.2,13.3 C21.6,13.3 32.5,4.8 32.5,-4 C32.5,-9.9 27.5,-13.2 21.3,-13.2 C11.6,-13.2 0,-5 0,4.2"/>
<path class="Note" transform="matrix(0.992,0,0,0.992,1396.3,1948.6)" d="M0,4.2 C0,8.5 3.1,13.3 11.2,13.3 C21.6,13.3 32.5,4.8 32.5,-4 C32.5,-9.9 27.5,-13.2 21.3,-13.2 C11.6,-13.2 0,-5 0,4.2"/>
<path class="Note" transform="matrix(0.992,0,0,0.992,489.702,1936.2)" d="M0,4.2 C0,8.5 3.1,13.3 11.2,13.3 C21.6,13.3 32.5,4.8 32.5,-4 C32.5,-9.9 27.5,-13.2 21.3,-13.2 C11.6,-13.2 0,-5 0,4.2"/>
<path class="Note" transform="matrix(0.992,0,0,0.992,1488.64,720.998)" d="M0,4.2 C0,8.5 3.1,13.3 11.2,13.3 C21.6,13.3 32.5,4.8 32.5,-4 C32.5,-9.9 27.5,-13.2 21.3,-13.2 C11.6,-13.2 0,-5 0,4.2"/>
<path class="Note" transform="matrix(0.992,0,0,0.992,542.914,1948.6)" d="M0,4.2 C0,8.5 3.1,13.3 11.2,13.3 C21.6,13.3 32.5,4.8 32.5,-4 C32.5,-9.9 27.5,-13.2 21.3,-13.2 C11.6,-13.2 0,-5 0,4.2"/>
<path class="Note" transform="matrix(0.992,0,0,0.992,1548.06,733.398)" d="M0,4.2 C0,8.5 3.1,13.3 11.2,13.3 C21.6,13.3 32.5,4.8 32.5,-4 C32.5,-9.9 27.5,-13.2 21.3,-13.2 C11.6,-13.2 0,-5 0,4.2"/>
<path class="Note" transform="matrix(0.992,0,0,0.992,662.642,1961)" d="M0,4.2 C0,8.5 3.1,13.3 11.2,13.3 C21.6,13.3 32.5,4.8 32.5,-4 C32.5,-9.9 27.5,-13.2 21.3,-13.2 C11.6,-13.2 0,-5 0,4.2"/>
<path class="Note" transform="matrix(0.992,0,0,0.992,2671.01,708.598)" d="M0,4.2 C0,8.5 3.1,13.3 11.2,13.3 C21.6,13.3 32.5,4.8 32.5,-4 C32.5,-9.9 27.5,-13.2 21.3,-13.2 C11.6,-13.2 0,-5 0,4.2"/>
<path class="Note" transform="matrix(0.992,0,0,0.992,2581.88,733.398)" d="M0,4.2 C0,8.5 3.1,13.3 11.2,13.3 C21.6,13.3 32.5,4.8 32.5,-4 C32.5,-9.9 27.5,-13.2 21.3,-13.2 C11.6,-13.2 0,-5 0,4.2"/>
<path class="Note" transform="matrix(0.992,0,0,0.992,2492.74,733.398)" d="M0,4.2 C0,8.5 3.1,13.3 11.2,13.3 C21.6,13.3 32.5,4.8 32.5,-4 C32.5,-9.9 27.5,-13.2 21.3,-13.2 C11.6,-13.2 0,-5 0,4.2"/>
<path class="Note" transform="matrix(0.992,0,0,0.992,817.833,1948.6)" d="M0,4.2 C0,8.5 3.1,13.3 11.2,13.3 C21.6,13.3 32.5,4.8 32.5,-4 C32.5,-9.9 27.5,-13.2 21.3,-13.2 C11.6,-13.2 0,-5 0,4.2"/>
<path class="Note" transform="matrix(0.992,0,0,0.992,1671.22,1911.4)" d="M0,4.2 C0,8.5 3.1,13.3 11.2,13.3 C21.6,13.3 32.5,4.8 32.5,-4 C32.5,-9.9 27.5,-13.2 21.3,-13.2 C11.6,-13.2 0,-5 0,4.2"/>
<path class="Note" transform="matrix(0.992,0,0,0.992,2177.74,1911.4)" d="M0,4.2 C0,8.5 3.1,13.3 11.2,13.3 C21.6,13.3 32.5,4.8 32.5,-4 C32.5,-9.9 27.5,-13.2 21.3,-13.2 C11.6,-13.2 0,-5 0,4.2"/>
<path class="Note" transform="matrix(0.992,0,0,0.992,2532.47,1923.8)" d="M21.3,-13.2 C11.6,-13.2 0,-5.1 0,4.2 C0,8.5 3.1,13.3 11.2,13.3 C21.6,13.3 32.5,4.8 32.5,-4 C32.5,-9.9 27.5,-13.2 21.3,-13.2 M7.5,8.6 C4.2,8.6 3.5,5.9 3.5,5 C3.5,0.1 20.3,-8.5 25,-8.5 C27.4,-8.5 29,-7.1 29,-4.9 C29,0.1 12.1,8.6 7.5,8.6"/>
<path class="Note" transform="matrix(0.992,0,0,0.992,969.609,1973.4)" d="M0,4.2 C0,8.5 3.1,13.3 11.2,13.3 C21.6,13.3 32.5,4.8 32.5,-4 C32.5,-9.9 27.5,-13.2 21.3,-13.2 C11.6,-13.2 0,-5 0,4.2"/>
<path class="Note" transform="matrix(0.992,0,0,0.992,2323.26,696.198)" d="M0,4.2 C0,8.5 3.1,13.3 11.2,13.3 C21.6,13.3 32.5,4.8 32.5,-4 C32.5,-9.9 27.5,-13.2 21.3,-13.2 C11.6,-13.2 0,-5 0,4.2"/>
<path class="Note" transform="matrix(0.992,0,0,0.992,1681.76,745.798)" d="M0,4.2 C0,8.5 3.1,13.3 11.2,13.3 C21.6,13.3 32.5,4.8 32.5,-4 C32.5,-9.9 27.5,-13.2 21.3,-13.2 C11.6,-13.2 0,-5 0,4.2"/>
<path class="Note" transform="matrix(0.992,0,0,0.992,395.405,733.398)" d="M0,4.2 C0,8.5 3.1,13.3 11.2,13.3 C21.6,13.3 32.5,4.8 32.5,-4 C32.5,-9.9 27.5,-13.2 21.3,-13.2 C11.6,-13.2 0,-5 0,4.2"/>
<path class="Note" transform="matrix(0.992,0,0,0.992,1049.43,1973.4)" d="M0,4.2 C0,8.5 3.1,13.3 11.2,13.3 C21.6,13.3 32.5,4.8 32.5,-4 C32.5,-9.9 27.5,-13.2 21.3,-13.2 C11.6,-13.2 0,-5 0,4.2"/>
<path class="Note" transform="matrix(0.992,0,0,0.992,2198.66,708.598)" d="M0,4.2 C0,8.5 3.1,13.3 11.2,13.3 C21.6,13.3 32.5,4.8 32.5,-4 C32.5,-9.9 27.5,-13.2 21.3,-13.2 C11.6,-13.2 0,-5 0,4.2"/>
<path class="Note" transform="matrix(0.992,0,0,0.992,1129.25,1923.8)" d="M0,4.2 C0,8.5 3.1,13.3 11.2,13.3 C21.6,13.3 32.5,4.8 32.5,-4 C32.5,-9.9 27.5,-13.2 21.3,-13.2 C11.6,-13.2 0,-5 0,4.2"/>
<path class="Note" transform="matrix(0.992,0,0,0.992,2109.53,758.198)" d="M0,4.2 C0,8.5 3.1,13.3 11.2,13.3 C21.6,13.3 32.5,4.8 32.5,-4 C32.5,-9.9 27.5,-13.2 21.3,-13.2 C11.6,-13.2 0,-5 0,4.2"/>
<path class="Note" transform="matrix(0.992,0,0,0.992,2020.4,758.198)" d="M0,4.2 C0,8.5 3.1,13.3 11.2,13.3 C21.6,13.3 32.5,4.8 32.5,-4 C32.5,-9.9 27.5,-13.2 21.3,-13.2 C11.6,-13.2 0,-5 0,4.2"/>
<path class="Note" transform="matrix(0.992,0,0,0.992,2257.55,1923.8)" d="M0,4.2 C0,8.5 3.1,13.3 11.2,13.3 C21.6,13.3 32.5,4.8 32.5,-4 C32.5,-9.9 27.5,-13.2 21.3,-13.2 C11.6,-13.2 0,-5 0,4.2"/>
<path class="Note" transform="matrix(0.992,0,0,0.992,1555.94,1923.8)" d="M0,4.2 C0,8.5 3.1,13.3 11.2,13.3 C21.6,13.3 32.5,4.8 32.5,-4 C32.5,-9.9 27.5,-13.2 21.3,-13.2 C11.6,-13.2 0,-5 0,4.2"/>
<path class="Clef" transform="matrix(0.992,0,0,0.992,231.198,1316.2)" d="M12.3,51.3 C12.3,57.9 17.3,66.6 30.8,66.6 C35.5,66.6 39.6,65.4 43.2,63.2 C48.6,59.4 50,52.8 50,46.5 C50,42.6 49.4,38.1 48.4,32.4 C48.1,30.4 47.5,27.4 46.9,23.5 C56.7,20.3 64,10.1 64,-0.2 C64,-15.3 53.3,-25.5 38.7,-25.5 C37.7,-31.5 36.7,-37.4 35.9,-43 C46.4,-54.1 53.7,-66.6 53.7,-82.5 C53.7,-91.6 50.9,-99 49.3,-102.6 C46.9,-107.7 44,-111.2 42.2,-111.2 C41.5,-111.2 38.4,-110 35.1,-106.1 C28.7,-98.5 26.9,-85.7 26.9,-77.3 C26.9,-71.9 27.4,-67 29.1,-55.8 C29,-55.7 23.8,-50.4 21.7,-48.7 C12.6,-40.3 0,-28.1 0,-8.1 C0,10.6 16.3,25.3 34.9,25.3 C37.8,25.3 40.5,25 42.8,24.6 C44.7,34.2 45.9,41.2 45.9,46.5 C45.9,56.9 40.5,62.4 30.4,62.4 C28,62.4 25.9,61.9 25.7,61.9 C25.6,61.8 25.4,61.7 25.4,61.6 C25.4,61.4 25.6,61.3 25.9,61.3 C30.6,60.5 35.3,56.5 35.3,50.1 C35.3,44.7 31.2,39 23.7,39 C16.7,39 12.3,44.7 12.3,51.3 M33.2,-82.2 C34.1,-86.2 38.7,-96.7 43.9,-96.7 C45.4,-96.7 47.8,-91.9 47.8,-84.9 C47.8,-74.5 40.1,-66.7 33.2,-59.9 C32.6,-63.9 32.1,-67.8 32.1,-72 C32.1,-75.7 32.4,-79.1 33.2,-82.2 M42,20.6 C40,21 38.1,21.2 36.2,21.2 C21.9,21.2 9.7,11.2 9.7,-3.9 C9.7,-16.1 18.3,-27 27.1,-34.6 C28.8,-36.1 30.4,-37.5 31.9,-39 C32.8,-33.6 33.5,-28.9 34.2,-24.8 C25.1,-22.1 18.9,-12.5 18.9,-3.1 C18.9,3.9 24.4,13.5 32.4,13.5 C33.2,13.5 34.1,13.1 34.1,12.2 C34.1,11.3 33.1,10.8 31.9,10 C28,7.6 25.8,5 25.8,0.1 C25.8,-6 30.4,-10.9 36.2,-12.3 L42,20.6 M56.2,2.1 C56.2,9.2 53.3,16.5 46.2,19.4 C44.1,7.4 41.4,-8.5 40.7,-12.9 C49.7,-12.9 56.2,-6.8 56.2,2.1"/>
<path class="Clef" transform="matrix(0.992,0,0,0.992,231.198,708.598)" d="M12.3,51.3 C12.3,57.9 17.3,66.6 30.8,66.6 C35.5,66.6 39.6,65.4 43.2,63.2 C48.6,59.4 50,52.8 50,46.5 C50,42.6 49.4,38.1 48.4,32.4 C48.1,30.4 47.5,27.4 46.9,23.5 C56.7,20.3 64,10.1 64,-0.2 C64,-15.3 53.3,-25.5 38.7,-25.5 C37.7,-31.5 36.7,-37.4 35.9,-43 C46.4,-54.1 53.7,-66.6 53.7,-82.5 C53.7,-91.6 50.9,-99 49.3,-102.6 C46.9,-107.7 44,-111.2 42.2,-111.2 C41.5,-111.2 38.4,-110 35.1,-106.1 C28.7,-98.5 26.9,-85.7 26.9,-77.3 C26.9,-71.9 27.4,-67 29.1,-55.8 C29,-55.7 23.8,-50.4 21.7,-48.7 C12.6,-40.3 0,-28.1 0,-8.1 C0,10.6 16.3,25.3 34.9,25.3 C37.8,25.3 40.5,25 42.8,24.6 C44.7,34.2 45.9,41.2 45.9,46.5 C45.9,56.9 40.5,62.4 30.4,62.4 C28,62.4 25.9,61.9 25.7,61.9 C25.6,61.8 25.4,61.7 25.4,61.6 C25.4,61.4 25.6,61.3 25.9,61.3 C30.6,60.5 35.3,56.5 35.3,50.1 C35.3,44.7 31.2,39 23.7,39 C16.7,39 12.3,44.7 12.3,51.3 M33.2,-82.2 C34.1,-86.2 38.7,-96.7 43.9,-96.7 C45.4,-96.7 47.8,-91.9 47.8,-84.9 C47.8,-74.5 40.1,-66.7 33.2,-59.9 C32.6,-63.9 32.1,-67.8 32.1,-72 C32.1,-75.7 32.4,-79.1 33.2,-82.2 M42,20.6 C40,21 38.1,21.2 36.2,21.2 C21.9,21.2 9.7,11.2 9.7,-3.9 C9.7,-16.1 18.3,-27 27.1,-34.6 C28.8,-36.1 30.4,-37.5 31.9,-39 C32.8,-33.6 33.5,-28.9 34.2,-24.8 C25.1,-22.1 18.9,-12.5 18.9,-3.1 C18.9,3.9 24.4,13.5 32.4,13.5 C33.2,13.5 34.1,13.1 34.1,12.2 C34.1,11.3 33.1,10.8 31.9,10 C28,7.6 25.8,5 25.8,0.1 C25.8,-6 30.4,-10.9 36.2,-12.3 L42,20.6 M56.2,2.1 C56.2,9.2 53.3,16.5 46.2,19.4 C44.1,7.4 41.4,-8.5 40.7,-12.9 C49.7,-12.9 56.2,-6.8 56.2,2.1"/>
<path class="Clef" transform="matrix(0.992,0,0,0.992,231.198,1923.8)" d="M12.3,51.3 C12.3,57.9 17.3,66.6 30.8,66.6 C35.5,66.6 39.6,65.4 43.2,63.2 C48.6,59.4 50,52.8 50,46.5 C50,42.6 49.4,38.1 48.4,32.4 C48.1,30.4 47.5,27.4 46.9,23.5 C56.7,20.3 64,10.1 64,-0.2 C64,-15.3 53.3,-25.5 38.7,-25.5 C37.7,-31.5 36.7,-37.4 35.9,-43 C46.4,-54.1 53.7,-66.6 53.7,-82.5 C53.7,-91.6 50.9,-99 49.3,-102.6 C46.9,-107.7 44,-111.2 42.2,-111.2 C41.5,-111.2 38.4,-110 35.1,-106.1 C28.7,-98.5 26.9,-85.7 26.9,-77.3 C26.9,-71.9 27.4,-67 29.1,-55.8 C29,-55.7 23.8,-50.4 21.7,-48.7 C12.6,-40.3 0,-28.1 0,-8.1 C0,10.6 16.3,25.3 34.9,25.3 C37.8,25.3 40.5,25 42.8,24.6 C44.7,34.2 45.9,41.2 45.9,46.5 C45.9,56.9 40.5,62.4 30.4,62.4 C28,62.4 25.9,61.9 25.7,61.9 C25.6,61.8 25.4,61.7 25.4,61.6 C25.4,61.4 25.6,61.3 25.9,61.3 C30.6,60.5 35.3,56.5 35.3,50.1 C35.3,44.7 31.2,39 23.7,39 C16.7,39 12.3,44.7 12.3,51.3 M33.2,-82.2 C34.1,-86.2 38.7,-96.7 43.9,-96.7 C45.4,-96.7 47.8,-91.9 47.8,-84.9 C47.8,-74.5 40.1,-66.7 33.2,-59.9 C32.6,-63.9 32.1,-67.8 32.1,-72 C32.1,-75.7 32.4,-79.1 33.2,-82.2 M42,20.6 C40,21 38.1,21.2 36.2,21.2 C21.9,21.2 9.7,11.2 9.7,-3.9 C9.7,-16.1 18.3,-27 27.1,-34.6 C28.8,-36.1 30.4,-37.5 31.9,-39 C32.8,-33.6 33.5,-28.9 34.2,-24.8 C25.1,-22.1 18.9,-12.5 18.9,-3.1 C18.9,3.9 24.4,13.5 32.4,13.5 C33.2,13.5 34.1,13.1 34.1,12.2 C34.1,11.3 33.1,10.8 31.9,10 C28,7.6 25.8,5 25.8,0.1 C25.8,-6 30.4,-10.9 36.2,-12.3 L42,20.6 M56.2,2.1 C56.2,9.2 53.3,16.5 46.2,19.4 C44.1,7.4 41.4,-8.5 40.7,-12.9 C49.7,-12.9 56.2,-6.8 56.2,2.1"/>
<path class="TimeSig" transform="matrix(0.992,0,0,0.992,321.997,659.494)" d="M27.2,-1.6 C32.2,-3.5 35.7,-6.7 35.7,-12.2 C35.7,-13.1 35.4,-24.4 18.2,-24.4 C1,-24.4 1.5,-12.2 1.5,-12.2 L1.6,-12.2 L1.5,-12 C1.5,-8.4 4.4,-5.6 8,-5.6 C11.6,-5.6 14.4,-8.4 14.4,-12 C14.4,-14.9 12.2,-17.7 9.4,-18.3 C9.5,-18.4 9.6,-18.5 9.7,-18.6 C11.1,-19.6 13,-20.1 14.9,-20.1 C19.1,-20.1 23.6,-17.6 23.6,-12.2 C23.6,-5.9 18.9,-5 17.7,-4.8 C16.5,-4.6 10.9,-4.2 9.7,-4.2 C8.5,-4.2 8.4,-2.8 8.4,-2.8 L8.4,-0.8 C8.4,-0.8 8.6,0.3 9.7,0.4 C11.4,0.5 13.7,0.5 16.9,1 C21.3,1.6 23.6,4.6 23.6,11.6 C23.6,18.3 19.1,20.1 14.9,20.1 C12.1,20.1 9.5,19.3 8.4,18.5 C11.7,18.3 14.4,15.4 14.4,12.1 C14.4,8.5 11.6,5.6 8,5.6 C4.4,5.6 1.5,8.5 1.5,12.1 C1.5,20.3 9,24.4 16.4,24.4 C26,24.4 36.4,21.1 36.4,10.2 C36.4,2.9 31.4,-0.2 27,-1.6 L27.2,-1.6 "/>
<path class="TimeSig" transform="matrix(0.992,0,0,0.992,318.091,708.598)" d="M20.8,12.7 L20.8,20.1 L12.5,20.1 C11.8,20.1 11.1,20.7 11.1,21.5 L11.1,23.4 C11.1,24.2 11.8,24.8 12.5,24.8 L42.8,24.8 C43.6,24.8 44.2,24.2 44.2,23.4 L44.2,21.5 C44.2,20.7 43.6,20.1 42.8,20.1 L33.9,20.1 L33.9,12.7 L42.8,12.7 C43.6,12.7 44.2,12 44.2,11.2 L44.2,9.3 C44.2,8.6 43.6,7.9 42.8,7.9 L33.9,7.9 L33.9,-8 C33.9,-8.6 33.6,-9.1 33.1,-9.3 L31.9,-9.9 C31.7,-10 31.4,-10.1 31.2,-10.1 C30.9,-10 30.5,-9.9 30.3,-9.7 L21.2,-1.4 C20.9,-1.1 20.8,-0.7 20.8,-0.3 L20.8,7.9 L9.3,7.9 C9.3,7.9 20.4,-4.1 32.2,-19.9 C32.6,-20.4 32.7,-20.9 32.7,-21.3 C32.7,-21.8 32.5,-22.2 32.4,-22.3 L30.2,-24.5 C30,-24.7 29.6,-24.9 29.2,-24.9 C28.6,-24.9 15.1,-24.9 14.4,-24.9 C13.6,-24.9 13.1,-24.3 13,-23.7 C13,-23.7 12.5,-16.3 9.9,-8.2 C7.3,-0.1 4.3,4.9 1.7,8.6 C1.7,8.6 1.4,9.1 1.4,9.7 C1.4,9.9 1.4,10.1 1.5,10.3 C1.9,11 2.5,12.1 2.5,12.1 C2.5,12.1 2.7,12.7 3.6,12.7 L20.8,12.7 "/>
<path class="Rest" transform="matrix(0.992,0,0,0.992,1492.93,1291.4)" d="M23,16.6 C22.9,16.5 22.7,16.3 22.4,15.9 L10.9,1.7 C10.8,1.6 10.7,1.3 10.7,1.1 C10.7,0.8 10.8,0.4 10.9,0.2 L21.1,-15.2 C21.2,-15.4 21.3,-15.7 21.3,-15.9 L21.3,-16.8 C21.3,-17.1 21.2,-17.4 21,-17.6 L4.8,-39.5 C4.8,-39.5 4.4,-40.1 3.8,-40.1 C3.5,-40.1 3.3,-40.1 3,-39.8 C2.6,-39.5 2.5,-39.1 2.5,-38.8 C2.5,-38.2 2.8,-37.7 2.8,-37.7 L10.4,-27.3 C10.6,-27 10.7,-26.6 10.7,-26.1 C10.7,-25.7 10.6,-25.2 10.4,-24.9 L0.3,-9.5 C0.2,-9.3 0.1,-8.9 0.1,-8.7 L0.1,-7.8 C0.1,-7.5 0.2,-7.2 0.4,-7 L11.6,6.9 C11.2,6.8 10.3,6.6 9.1,6.6 C4,6.6 0,10.8 0,15.9 C0,17.3 0.3,18.7 1.1,19.8 C3.2,23 10.7,32.5 10.7,32.5 C10.7,32.5 11.2,33.1 11.9,33.1 C12.1,33.1 12.3,33.1 12.5,32.9 C13,32.5 13.2,32.1 13.2,31.7 C13.2,31.3 13,31 12.9,30.8 C12.6,30.3 9.4,24.5 9.4,24.5 C9.4,24.5 8.7,23.1 8.7,21.3 C8.7,18.1 11.1,15.5 14.3,15.5 C15.6,15.5 16.7,15.9 17.5,16.4 L21.4,18.9 C21.4,18.9 21.8,19.1 22.2,19.1 C22.6,19.1 22.9,19 23.2,18.6 C23.4,18.3 23.5,18 23.5,17.7 C23.5,17.4 23.4,17.2 23.2,16.9 L23,16.6 "/>
<path class="Rest" transform="matrix(0.992,0,0,0.992,1633.08,1291.4)" d="M23,16.6 C22.9,16.5 22.7,16.3 22.4,15.9 L10.9,1.7 C10.8,1.6 10.7,1.3 10.7,1.1 C10.7,0.8 10.8,0.4 10.9,0.2 L21.1,-15.2 C21.2,-15.4 21.3,-15.7 21.3,-15.9 L21.3,-16.8 C21.3,-17.1 21.2,-17.4 21,-17.6 L4.8,-39.5 C4.8,-39.5 4.4,-40.1 3.8,-40.1 C3.5,-40.1 3.3,-40.1 3,-39.8 C2.6,-39.5 2.5,-39.1 2.5,-38.8 C2.5,-38.2 2.8,-37.7 2.8,-37.7 L10.4,-27.3 C10.6,-27 10.7,-26.6 10.7,-26.1 C10.7,-25.7 10.6,-25.2 10.4,-24.9 L0.3,-9.5 C0.2,-9.3 0.1,-8.9 0.1,-8.7 L0.1,-7.8 C0.1,-7.5 0.2,-7.2 0.4,-7 L11.6,6.9 C11.2,6.8 10.3,6.6 9.1,6.6 C4,6.6 0,10.8 0,15.9 C0,17.3 0.3,18.7 1.1,19.8 C3.2,23 10.7,32.5 10.7,32.5 C10.7,32.5 11.2,33.1 11.9,33.1 C12.1,33.1 12.3,33.1 12.5,32.9 C13,32.5 13.2,32.1 13.2,31.7 C13.2,31.3 13,31 12.9,30.8 C12.6,30.3 9.4,24.5 9.4,24.5 C9.4,24.5 8.7,23.1 8.7,21.3 C8.7,18.1 11.1,15.5 14.3,15.5 C15.6,15.5 16.7,15.9 17.5,16.4 L21.4,18.9 C21.4,18.9 21.8,19.1 22.2,19.1 C22.6,19.1 22.9,19 23.2,18.6 C23.4,18.3 23.5,18 23.5,17.7 C23.5,17.4 23.4,17.2 23.2,16.9 L23,16.6 "/>
<path class="Beam" fill-rule="evenodd" d="M999.353,1849.39 L1161.47,1843.19 L1161.47,1855.6 L999.353,1861.8 L999.353,1849.39 "/>
<path class="Beam" fill-rule="evenodd" d="M594.634,658.995 L775.376,652.795 L775.376,665.202 L594.634,671.402 L594.634,658.995 "/>
<path class="Beam" fill-rule="evenodd" d="M1066.98,658.995 L1247.72,652.795 L1247.72,665.202 L1066.98,671.402 L1066.98,658.995 "/>
<path class="Beam" fill-rule="evenodd" d="M386.415,1843.2 L521.926,1843.2 L521.926,1855.6 L386.415,1855.6 L386.415,1843.2 "/>
<path class="Beam" fill-rule="evenodd" d="M466.234,1861.8 L521.926,1861.8 L521.926,1874.2 L466.234,1874.2 L466.234,1861.8 "/>
<path class="Beam" fill-rule="evenodd" d="M2509.57,1266.6 L2698.92,1260.4 L2698.92,1272.8 L2509.57,1279 L2509.57,1266.6 "/>
<path class="Beam" fill-rule="evenodd" d="M1852.74,1849.39 L2014.86,1843.19 L2014.86,1855.6 L1852.74,1861.8 L1852.74,1849.39 "/>
<path class="Beam" fill-rule="evenodd" d="M1369.83,627.998 L1520.86,627.998 L1520.86,640.398 L1369.83,640.398 L1369.83,627.998 "/>
<path class="Beam" fill-rule="evenodd" d="M1458.96,646.598 L1520.86,646.598 L1520.86,658.998 L1458.96,658.998 L1458.96,646.598 "/>
<path class="Beam" fill-rule="evenodd" d="M2016.12,1266.6 L2205.48,1260.4 L2205.48,1272.8 L2016.12,1279 L2016.12,1266.6 "/>
<path class="Beam" fill-rule="evenodd" d="M2050.15,634.195 L2230.89,627.995 L2230.89,640.402 L2050.15,646.602 L2050.15,634.195 "/>
<path class="Beam" fill-rule="evenodd" d="M879.864,1216.99 L975.782,1223.19 L975.782,1235.61 L879.864,1229.41 L879.864,1216.99 "/>
<path class="Beam" fill-rule="evenodd" d="M564.088,1241.8 L753.443,1235.6 L753.443,1248 L564.088,1254.2 L564.088,1241.8 "/>
<path class="Beam" fill-rule="evenodd" d="M1426.05,1849.39 L1588.17,1843.19 L1588.17,1855.6 L1426.05,1861.8 L1426.05,1849.39 "/>
<path class="Beam" fill-rule="evenodd" d="M2127.66,1824.58 L2209.96,1830.78 L2209.96,1843.22 L2127.66,1837.02 L2127.66,1824.58 "/>
<path class="Beam" fill-rule="evenodd" d="M2522.49,634.195 L2703.23,627.995 L2703.23,640.402 L2522.49,646.602 L2522.49,634.195 "/>
<path class="Tempo" d="M311.194,477.334 L307.927,477.334 L307.927,519.607 C306.838,518.914 305.452,518.518 303.868,518.32 C300.304,518.32 297.433,518.716 294.265,520.498 C290.305,522.577 285.949,526.933 285.949,531.784 C285.949,536.536 290.206,538.813 294.562,538.813 C301.492,538.813 311.194,532.873 311.194,525.349 L311.194,477.334 "/>
<path class="Tempo" d="M333.446,515.29 L363.686,515.29 L363.686,508.39 L333.446,508.39 L333.446,515.29 M333.446,527.65 L363.686,527.65 L363.686,520.75 L333.446,520.75 L333.446,527.65 M406.224,490.69 L404.124,490.69 C400.344,493.51 396.084,494.71 388.944,494.83 L388.944,498.19 L391.464,498.19 C396.804,498.19 396.864,498.31 396.804,503.23 L396.804,524.53 C396.804,528.25 396.804,528.43 396.384,529.03 C395.844,529.69 394.644,529.93 391.404,529.93 L389.484,529.93 L389.484,533.17 L413.424,533.17 L413.424,529.93 L411.504,529.93 C408.324,529.93 407.184,529.69 406.644,529.03 C406.224,528.43 406.224,528.19 406.224,524.53 L406.224,490.69 M440.662,490.69 L438.562,490.69 C434.782,493.51 430.522,494.71 423.382,494.83 L423.382,498.19 L425.902,498.19 C431.242,498.19 431.302,498.31 431.242,503.23 L431.242,524.53 C431.242,528.25 431.242,528.43 430.822,529.03 C430.282,529.69 429.082,529.93 425.842,529.93 L423.922,529.93 L423.922,533.17 L447.862,533.17 L447.862,529.93 L445.942,529.93 C442.762,529.93 441.622,529.69 441.082,529.03 C440.662,528.43 440.662,528.19 440.662,524.53 L440.662,490.69 M470.059,490.69 C461.059,490.69 454.459,499.87 454.459,512.35 C454.459,524.83 461.059,534.01 470.059,534.01 C478.879,534.01 485.599,524.83 485.599,512.65 C485.599,505.57 483.979,500.35 480.439,495.91 C477.619,492.49 474.079,490.69 470.059,490.69 M469.999,493.81 C471.799,493.81 473.239,494.89 473.899,496.81 C474.679,498.79 475.159,505.09 475.159,512.53 C475.159,518.71 474.679,525.19 474.139,527.23 C473.479,529.63 472.039,530.89 469.999,530.89 C468.139,530.89 466.759,529.87 466.039,527.89 C465.259,525.91 464.779,519.55 464.779,512.35 C464.779,506.05 465.259,499.51 465.799,497.47 C466.459,495.07 467.899,493.81 469.999,493.81"/>
<path class="NoteDot" transform="matrix(0.992,0,0,0.992,401.295,1303.8)" d="M0,0 C0,2.8 2.2,5 5,5 C7.8,5 10,2.8 10,0 C10,-2.8 7.8,-5 5,-5 C2.2,-5 0,-2.8 0,0"/>
<path class="NoteDot" transform="matrix(0.992,0,0,0.992,2367.88,696.198)" d="M0,0 C0,2.8 2.2,5 5,5 C7.8,5 10,2.8 10,0 C10,-2.8 7.8,-5 5,-5 C2.2,-5 0,-2.8 0,0"/>
<path class="NoteDot" transform="matrix(0.992,0,0,0.992,1853.33,1328.6)" d="M0,0 C0,2.8 2.2,5 5,5 C7.8,5 10,2.8 10,0 C10,-2.8 7.8,-5 5,-5 C2.2,-5 0,-2.8 0,0"/>
<path class="NoteDot" transform="matrix(0.992,0,0,0.992,1895.54,720.998)" d="M0,0 C0,2.8 2.2,5 5,5 C7.8,5 10,2.8 10,0 C10,-2.8 7.8,-5 5,-5 C2.2,-5 0,-2.8 0,0"/>
<path class="NoteDot" transform="matrix(0.992,0,0,0.992,2346.78,1328.6)" d="M0,0 C0,2.8 2.2,5 5,5 C7.8,5 10,2.8 10,0 C10,-2.8 7.8,-5 5,-5 C2.2,-5 0,-2.8 0,0"/>
<path class="NoteDot" transform="matrix(0.992,0,0,0.992,1715.85,1911.4)" d="M0,0 C0,2.8 2.2,5 5,5 C7.8,5 10,2.8 10,0 C10,-2.8 7.8,-5 5,-5 C2.2,-5 0,-2.8 0,0"/>
<path class="NoteDot" transform="matrix(0.992,0,0,0.992,912.371,720.998)" d="M0,0 C0,2.8 2.2,5 5,5 C7.8,5 10,2.8 10,0 C10,-2.8 7.8,-5 5,-5 C2.2,-5 0,-2.8 0,0"/>
<path class="NoteDot" transform="matrix(0.992,0,0,0.992,862.458,1936.2)" d="M0,0 C0,2.8 2.2,5 5,5 C7.8,5 10,2.8 10,0 C10,-2.8 7.8,-5 5,-5 C2.2,-5 0,-2.8 0,0"/>
<path class="NoteDot" transform="matrix(0.992,0,0,0.992,1289.15,1911.4)" d="M0,0 C0,2.8 2.2,5 5,5 C7.8,5 10,2.8 10,0 C10,-2.8 7.8,-5 5,-5 C2.2,-5 0,-2.8 0,0"/>
<path class="NoteDot" transform="matrix(0.992,0,0,0.992,440.03,720.998)" d="M0,0 C0,2.8 2.2,5 5,5 C7.8,5 10,2.8 10,0 C10,-2.8 7.8,-5 5,-5 C2.2,-5 0,-2.8 0,0"/>
<path class="NoteDot" transform="matrix(0.992,0,0,0.992,2577.1,1911.4)" d="M0,0 C0,2.8 2.2,5 5,5 C7.8,5 10,2.8 10,0 C10,-2.8 7.8,-5 5,-5 C2.2,-5 0,-2.8 0,0"/>
</svg>
