<?xml version="1.0" encoding="UTF-8" standalone="no"?>
<svg width="2977.2px" height="4208.4px" viewBox="0 0 2977.2 4208.4"
 xmlns="http://www.w3.org/2000/svg" xmlns:xlink="http://www.w3.org/1999/xlink" version="1.2" baseProfile="tiny">
<title>ホルン協奏曲第1番モーツァルト</title>
<desc>Generated by MuseScore Studio 4.4.2</desc>
<path class="" fill="#ffffff" fill-rule="evenodd" d="M0,0 L2977.2,0 L2977.2,4208.4 L0,4208.4 L0,0 "/>
<polyline class="StaffLines" fill="none" stroke="#000000" stroke-width="2.73" stroke-linejoin="bevel" points="212.598,634.198 2764.6,634.198"/>
<polyline class="StaffLines" fill="none" stroke="#000000" stroke-width="2.73" stroke-linejoin="bevel" points="212.598,658.998 2764.6,658.998"/>
<polyline class="StaffLines" fill="none" stroke="#000000" stroke-width="2.73" stroke-linejoin="bevel" points="212.598,683.798 2764.6,683.798"/>
<polyline class="StaffLines" fill="none" stroke="#000000" stroke-width="2.73" stroke-linejoin="bevel" points="212.598,708.598 2764.6,708.598"/>
<polyline class="StaffLines" fill="none" stroke="#000000" stroke-width="2.73" stroke-linejoin="bevel" points="212.598,733.398 2764.6,733.398"/>
<polyline class="StaffLines" fill="none" stroke="#000000" stroke-width="2.73" stroke-linejoin="bevel" points="212.598,1105.4 2764.6,1105.4"/>
<polyline class="StaffLines" fill="none" stroke="#000000" stroke-width="2.73" stroke-linejoin="bevel" points="212.598,1130.2 2764.6,1130.2"/>
<polyline class="StaffLines" fill="none" stroke="#000000" stroke-width="2.73" stroke-linejoin="bevel" points="212.598,1155 2764.6,1155"/>
<polyline class="StaffLines" fill="none" stroke="#000000" stroke-width="2.73" stroke-linejoin="bevel" points="212.598,1179.8 2764.6,1179.8"/>
<polyline class="StaffLines" fill="none" stroke="#000000" stroke-width="2.73" stroke-linejoin="bevel" points="212.598,1204.6 2764.6,1204.6"/>
<path class="Text" d="M2494.1,439.348 L2494.1,450.348 C2494.1,456.598 2496.3,458.148 2505.15,458.148 C2507.45,458.148 2511.05,457.998 2512.9,457.848 C2516.05,457.548 2516.15,457.548 2516.65,457.548 C2516.8,457.548 2517,457.548 2517.25,457.598 L2517.25,453.698 C2515.6,454.148 2514.85,454.298 2512.9,454.448 C2510.1,454.698 2507.35,454.848 2505.45,454.848 C2502.1,454.848 2499.9,454.498 2498.95,453.848 C2497.9,453.198 2497.7,452.348 2497.7,449.198 L2497.7,439.348 L2512.95,439.348 C2515.6,439.348 2517,439.398 2518.7,439.598 L2518.7,435.848 C2516.95,436.098 2515.85,436.148 2512.9,436.148 L2497.7,436.148 L2497.7,425.648 L2509.8,425.648 C2512.75,425.648 2514.05,425.698 2515.55,425.898 L2515.55,422.098 C2513.9,422.398 2512.9,422.448 2509.75,422.448 L2486.75,422.448 C2483.65,422.448 2482.65,422.398 2481,422.098 L2481,425.898 C2482.5,425.698 2483.8,425.648 2486.7,425.648 L2494.1,425.648 L2494.1,436.148 L2483.9,436.148 C2480.9,436.148 2479.85,436.098 2478.1,435.848 L2478.1,439.598 C2479.8,439.398 2481.2,439.348 2483.85,439.348 L2494.1,439.348 M2527.85,441.448 C2529.35,441.298 2530.4,441.248 2534.05,441.248 L2563.05,441.248 C2566.4,441.248 2567.55,441.298 2569.15,441.448 L2569.15,437.398 C2567.6,437.598 2566.8,437.648 2563.1,437.648 L2534.05,437.648 C2530.65,437.648 2529.3,437.598 2527.85,437.348 L2527.85,441.448 M2579,425.148 C2581.45,429.198 2583.4,433.948 2584.85,438.948 L2588.45,437.798 C2586.75,432.348 2585,428.398 2582.35,423.998 L2579,425.148 M2591.8,422.598 C2594.4,426.998 2596.05,430.898 2597.55,436.148 L2601.1,434.848 C2599.45,429.748 2597.5,425.498 2595.05,421.548 L2591.8,422.598 M2613.35,422.598 C2613.3,424.148 2613.15,425.298 2612.7,427.348 C2610.9,435.848 2607,443.148 2601.55,448.348 C2597.6,452.148 2593.2,454.948 2587.75,457.098 C2589.2,458.298 2589.6,458.848 2590.45,460.298 C2601.4,454.898 2607.8,448.798 2612.4,439.398 C2614.25,435.748 2615.35,432.398 2616.6,426.948 C2617.1,424.848 2617.15,424.598 2617.6,423.498 L2613.35,422.598 M2633.65,432.998 C2635.2,432.848 2635.45,432.798 2639,432.798 L2659.85,432.648 C2660.2,432.648 2660.55,432.598 2661,432.498 L2661.05,432.598 C2661,432.698 2661,432.698 2660.9,432.848 C2660.75,432.998 2660.75,432.998 2660.65,433.248 C2658,437.648 2654.95,440.198 2650.15,442.048 C2651.25,443.048 2651.6,443.448 2652.35,444.598 C2654.6,443.498 2655.75,442.798 2657.35,441.548 C2660,439.448 2662.4,436.648 2663.75,433.998 C2664.75,431.998 2664.75,431.998 2665.2,431.448 L2663.5,429.298 C2662.75,429.548 2662.45,429.598 2660.9,429.598 L2639.05,429.698 C2636.4,429.698 2635.1,429.598 2633.65,429.348 L2633.65,432.998 M2645.7,436.548 C2645.8,437.198 2645.8,437.498 2645.8,438.098 C2645.8,449.648 2642.8,454.098 2632.7,457.698 C2633.75,458.848 2634.1,459.298 2634.75,460.598 C2639.75,458.598 2642.8,456.598 2645.05,453.648 C2647.75,450.298 2648.8,446.598 2649.15,439.748 C2649.25,437.648 2649.25,437.248 2649.4,436.548 L2645.7,436.548 M2684.45,420.498 C2684.6,421.648 2684.65,422.248 2684.65,424.048 C2684.65,434.598 2683.95,441.148 2682.4,445.498 C2680.75,450.148 2678.05,453.748 2673.95,456.998 C2675.45,457.948 2675.95,458.398 2676.95,459.698 C2681.5,455.348 2683.9,451.998 2685.6,447.348 C2687.5,442.298 2687.9,438.598 2688.3,425.048 C2688.4,421.998 2688.4,421.998 2688.6,420.748 L2684.45,420.498 M2696.9,420.148 C2697.1,421.348 2697.1,421.348 2697.1,424.598 L2696.8,453.848 C2696.8,455.998 2696.75,456.398 2696.45,457.248 L2698.45,459.548 C2698.9,459.298 2699,459.248 2699.6,458.998 C2700.3,458.748 2700.3,458.748 2701.2,458.398 C2704.15,457.248 2706.15,456.248 2708.35,454.748 C2712.65,451.798 2715.95,447.648 2718.4,441.898 C2717.05,440.798 2716.65,440.348 2715.6,438.998 C2714.4,442.848 2712.45,446.148 2709.7,448.998 C2707.1,451.648 2704.55,453.248 2700.4,454.798 L2700.7,424.598 C2700.7,422.298 2700.75,421.398 2701,420.198 L2696.9,420.148 M2740.1,460.148 C2739.9,458.748 2739.85,457.648 2739.85,454.848 L2739.85,439.798 C2739.85,438.548 2739.8,437.848 2739.65,436.848 L2739.75,436.798 C2740.2,437.148 2740.55,437.348 2741.3,437.648 C2748.35,440.548 2755.25,444.248 2759.95,447.548 L2762.1,443.848 C2753.35,438.798 2747.55,436.048 2739.85,433.298 L2739.85,423.948 C2739.85,421.098 2739.9,420.048 2740.1,418.748 L2735.8,418.748 C2736,419.998 2736.1,421.198 2736.1,423.848 L2736.1,454.898 C2736.1,457.598 2736,458.798 2735.8,460.148 L2740.1,460.148 "/>
<path class="Text" d="M1066.21,235.579 L1039.37,235.579 C1033.1,235.579 1030.46,235.469 1026.61,234.919 L1026.61,243.279 C1030.35,242.839 1033.43,242.729 1039.26,242.729 L1066.21,242.729 L1066.21,297.619 C1066.21,303.339 1066.1,306.309 1065.55,309.169 L1074.57,309.169 C1074.13,306.309 1074.02,303.559 1074.02,297.509 L1074.02,242.729 L1101.96,242.729 C1107.79,242.729 1110.87,242.839 1114.61,243.279 L1114.61,234.919 C1110.76,235.469 1108.12,235.579 1101.74,235.579 L1074.02,235.579 L1074.02,228.429 C1074.02,221.939 1074.13,219.959 1074.57,216.989 L1065.55,216.989 C1066.1,219.849 1066.21,222.489 1066.21,228.209 L1066.21,235.579 M1042.45,252.959 C1041.79,260.329 1038.05,270.999 1032.88,280.679 C1029.69,286.729 1027.27,290.029 1022.43,294.979 C1025.95,296.629 1027.05,297.289 1029.69,299.709 C1038.82,288.489 1044.87,276.609 1048.94,261.649 C1050.37,256.479 1050.37,256.369 1050.81,255.159 L1042.45,252.959 M1089.42,255.159 C1090.3,257.029 1090.96,258.789 1092.17,262.309 C1093.93,267.699 1097.23,275.729 1099.87,281.229 C1103.39,288.489 1106.14,292.999 1111.31,300.039 C1114.06,297.399 1115.05,296.629 1118.24,294.869 C1110.87,286.289 1106.25,278.259 1101.19,265.389 C1098.88,259.449 1097.78,256.369 1097.12,253.069 L1089.42,255.159 M1155.09,221.169 C1155.42,223.699 1155.53,225.019 1155.53,228.979 C1155.53,252.189 1153.99,266.599 1150.58,276.169 C1146.95,286.399 1141.01,294.319 1131.99,301.469 C1135.29,303.559 1136.39,304.549 1138.59,307.409 C1148.6,297.839 1153.88,290.469 1157.62,280.239 C1161.8,269.129 1162.68,260.989 1163.56,231.179 C1163.78,224.469 1163.78,224.469 1164.22,221.719 L1155.09,221.169 M1182.48,220.399 C1182.92,223.039 1182.92,223.039 1182.92,230.189 L1182.26,294.539 C1182.26,299.269 1182.15,300.149 1181.49,302.019 L1185.89,307.079 C1186.88,306.529 1187.1,306.419 1188.42,305.869 C1189.96,305.319 1189.96,305.319 1191.94,304.549 C1198.43,302.019 1202.83,299.819 1207.67,296.519 C1217.13,290.029 1224.39,280.899 1229.78,268.249 C1226.81,265.829 1225.93,264.839 1223.62,261.869 C1220.98,270.339 1216.69,277.599 1210.64,283.869 C1204.92,289.699 1199.31,293.219 1190.18,296.629 L1190.84,230.189 C1190.84,225.129 1190.95,223.149 1191.5,220.509 L1182.48,220.399 M1249.35,233.159 C1258.92,238.989 1267.61,246.139 1275.53,254.719 L1281.25,247.899 C1273.33,240.089 1266.51,234.699 1254.74,227.219 L1249.35,233.159 M1250.12,304.659 C1252.87,303.779 1253.75,303.559 1256.72,302.899 C1275.09,298.719 1286.42,294.209 1297.75,286.509 C1312.27,276.499 1322.5,263.629 1331.3,244.489 C1328.22,242.399 1327.12,241.409 1324.59,237.999 C1315.68,261.319 1300.94,277.489 1279.71,286.949 C1269.48,291.679 1256.28,295.089 1247.7,295.419 L1250.12,304.659 "/>
<path class="Text" d="M1359.02,241.299 L1356.16,241.299 C1351.65,241.299 1349.56,241.189 1347.03,240.749 L1347.03,248.009 C1350,247.679 1352.2,247.569 1356.16,247.569 L1359.02,247.569 L1359.02,301.139 C1359.02,306.089 1358.8,309.719 1358.25,313.129 L1366.72,313.129 C1366.17,309.059 1365.95,305.759 1365.95,301.249 L1365.95,247.569 L1367.49,247.569 C1371.12,247.569 1372.66,247.679 1375.3,248.009 L1375.3,240.749 C1373.21,241.189 1371.45,241.299 1367.38,241.299 L1365.95,241.299 L1365.95,223.039 C1365.95,218.639 1366.17,216.329 1366.72,213.359 L1358.25,213.359 C1358.8,216.329 1359.02,219.079 1359.02,223.149 L1359.02,241.299 M1409.62,223.809 C1410.06,221.829 1410.28,220.839 1410.61,219.189 C1411.16,216.109 1411.49,214.789 1411.93,213.359 L1403.9,212.919 C1404.01,213.689 1404.01,214.019 1404.01,214.789 C1404.01,217.429 1403.68,220.179 1402.8,223.809 L1389.93,223.809 C1384.98,223.809 1381.79,223.699 1378.93,223.259 L1378.93,230.409 C1381.68,229.969 1384.65,229.859 1389.6,229.859 L1400.71,229.859 C1396.64,238.769 1389.6,244.269 1376.62,248.669 C1378.49,250.539 1379.7,252.189 1380.91,254.609 C1395.43,248.339 1403.02,241.409 1407.64,229.859 L1431.84,229.859 C1431.4,235.909 1430.85,239.539 1429.97,242.179 C1429.2,244.379 1427.99,245.149 1425.02,245.149 C1420.51,245.149 1415.67,244.709 1411.6,243.829 C1412.48,246.469 1412.81,248.119 1413.03,250.759 C1417.21,251.089 1420.95,251.309 1424.03,251.309 C1427.55,251.309 1429.75,251.089 1431.07,250.649 C1433.27,249.879 1434.92,248.339 1435.8,246.359 C1437.12,243.279 1438.22,236.679 1438.99,227.989 C1439.1,225.899 1439.1,225.899 1439.43,223.369 C1436.9,223.699 1434.37,223.809 1430.74,223.809 L1409.62,223.809 M1390.81,266.159 C1390.92,264.069 1390.92,263.519 1391.03,261.979 C1391.14,259.119 1391.36,256.809 1391.69,254.829 L1384.43,254.829 C1384.65,256.479 1384.76,257.799 1384.76,260.109 C1384.76,261.979 1384.65,263.739 1384.54,266.159 L1379.15,266.159 C1375.74,266.159 1374.09,266.049 1372.33,265.609 L1372.33,272.649 C1374.42,272.319 1375.85,272.209 1378.82,272.209 L1383.99,272.209 C1381.9,288.709 1377.72,298.169 1369.03,306.309 C1371.12,308.289 1371.78,309.059 1373.76,312.029 C1383.55,301.139 1388.17,289.919 1390.26,272.209 L1399.94,272.209 C1399.72,284.859 1398.62,295.639 1397.19,301.249 C1396.64,303.339 1395.54,304.109 1392.79,304.109 C1390.26,304.109 1387.73,303.779 1384.54,303.119 C1385.53,305.869 1385.75,307.079 1385.97,310.049 C1387.73,310.159 1389.82,310.269 1391.25,310.269 C1401.04,310.269 1402.69,308.729 1404.34,298.279 C1405.44,291.129 1406.54,278.919 1406.54,271.879 C1406.65,269.019 1406.65,267.809 1406.87,265.719 C1404.34,266.049 1401.92,266.159 1397.63,266.159 L1390.81,266.159 M1427.11,266.159 C1427.22,265.059 1427.22,264.619 1427.33,263.629 C1427.66,257.579 1427.77,256.589 1428.1,254.719 L1420.95,254.719 C1421.06,256.369 1421.17,257.579 1421.17,259.339 C1421.17,261.319 1421.06,262.859 1420.84,266.159 L1417.65,266.159 C1414.13,266.159 1412.48,266.049 1410.61,265.609 L1410.61,272.649 C1412.7,272.319 1414.13,272.209 1417.32,272.209 L1420.29,272.209 C1418.2,288.819 1413.47,299.379 1405.22,306.639 C1407.31,308.289 1408.63,309.719 1410.06,311.919 C1414.68,306.859 1416.99,303.669 1419.63,298.059 C1423.15,290.579 1425.02,283.539 1426.56,272.209 L1438.44,272.209 C1438.11,286.179 1437.12,296.079 1435.47,301.689 C1434.92,303.559 1433.93,304.109 1431.07,304.109 C1427.99,304.109 1425.35,303.779 1421.17,303.009 C1422.16,305.869 1422.38,306.859 1422.6,309.939 C1425.13,310.269 1426.12,310.269 1429.97,310.269 C1436.35,310.269 1439.32,309.059 1440.75,305.869 C1442.84,301.359 1444.16,290.689 1445.04,272.319 C1445.15,269.899 1445.26,267.699 1445.37,265.719 C1442.62,266.049 1440.31,266.159 1436.24,266.159 L1427.11,266.159 M1532.49,288.379 C1536.78,288.379 1538.87,288.489 1541.95,288.929 L1541.95,282.219 C1539.31,282.659 1537,282.769 1532.49,282.769 L1507.96,282.769 C1508.73,279.689 1508.95,278.699 1509.39,273.419 L1519.84,273.419 C1524.02,273.419 1525.78,273.529 1528.75,273.969 L1528.75,267.369 C1526.11,267.809 1524.35,267.919 1519.84,267.919 L1493.77,267.919 C1489.59,267.919 1487.39,267.809 1484.86,267.369 L1484.86,273.969 C1487.72,273.529 1489.92,273.419 1493.77,273.419 L1502.35,273.419 C1502.02,278.149 1501.91,279.359 1501.03,282.769 L1481.56,282.769 C1476.94,282.769 1474.85,282.659 1472.21,282.219 L1472.21,288.929 C1475.18,288.489 1477.27,288.379 1481.56,288.379 L1498.72,288.379 C1496.08,292.889 1492.23,296.079 1485.52,299.709 C1479.14,303.009 1472.1,304.989 1461.65,306.309 C1463.3,308.179 1464.73,310.489 1465.61,312.909 C1478.92,310.269 1487.17,307.079 1494.43,302.019 C1499.27,298.609 1502.35,295.199 1504.99,290.359 C1509.72,296.299 1515.11,300.589 1522.48,304.439 C1529.74,308.179 1536.12,310.159 1548.33,312.579 C1549.32,310.049 1550.53,308.179 1552.62,305.649 C1543.16,304.439 1535.79,302.899 1530.51,300.919 C1522.04,297.839 1515.66,293.659 1511.15,288.379 L1532.49,288.379 M1507.3,222.819 C1507.63,221.389 1507.74,220.729 1507.96,219.739 C1508.62,216.329 1509.06,214.789 1509.5,213.249 L1501.91,212.809 C1501.91,216.109 1501.47,218.859 1500.59,222.819 L1474.41,222.819 C1468.91,222.819 1465.5,222.599 1462.53,222.159 L1462.53,229.309 C1465.94,228.869 1468.8,228.759 1474.19,228.759 L1498.94,228.759 C1497.84,232.169 1497.18,234.039 1495.75,237.559 L1478.26,237.559 C1471.88,237.559 1469.68,237.449 1467.15,237.119 L1467.15,243.719 C1469.57,243.389 1471.77,243.279 1478.26,243.279 L1493.11,243.279 C1491.13,247.019 1489.7,249.549 1487.28,252.959 L1469.68,252.959 C1463.41,252.959 1460.33,252.849 1457.47,252.299 L1457.47,259.559 C1460.88,259.119 1464.73,258.899 1469.79,258.899 L1482.66,258.899 C1475.4,267.259 1467.7,273.199 1456.26,279.029 C1459.01,281.119 1460.77,282.989 1461.32,284.749 C1473.64,277.379 1482.22,269.679 1490.58,258.899 L1521.82,258.899 C1530.07,269.239 1539.53,276.939 1553.28,284.309 C1554.82,281.779 1555.81,280.569 1558.23,278.149 C1545.36,272.429 1537.99,267.479 1529.63,258.899 L1543.71,258.899 C1548.44,258.899 1552.29,259.119 1555.7,259.559 L1555.7,252.299 C1552.84,252.739 1549.76,252.959 1543.71,252.959 L1524.57,252.959 C1522.15,249.549 1521.27,248.119 1518.52,243.279 L1535.35,243.279 C1542.17,243.279 1544.26,243.389 1546.79,243.719 L1546.79,237.119 C1544.15,237.449 1542.06,237.559 1535.35,237.559 L1502.57,237.559 C1503.89,234.369 1504.55,232.389 1505.65,228.759 L1539.86,228.759 C1545.36,228.759 1548.22,228.869 1551.63,229.309 L1551.63,222.159 C1548.66,222.599 1545.36,222.819 1539.64,222.819 L1507.3,222.819 M1512.14,243.279 C1514.45,247.899 1515.44,249.659 1517.53,252.959 L1494.76,252.959 C1497.18,249.109 1498.5,246.579 1500.15,243.279 L1512.14,243.279 M1606.74,235.029 L1606.74,225.349 C1606.74,221.059 1606.96,217.759 1607.51,214.239 L1599.15,214.239 C1599.7,218.089 1599.92,221.389 1599.92,225.239 L1599.92,235.029 L1583.09,235.029 C1579.13,235.029 1576.05,234.809 1572.75,234.479 C1573.08,237.449 1573.19,239.979 1573.19,243.499 L1573.19,302.569 C1573.19,306.089 1572.97,309.279 1572.53,312.689 L1580.23,312.689 L1580.23,306.859 L1654.15,306.859 L1654.15,312.689 L1661.85,312.689 C1661.41,309.499 1661.19,306.419 1661.19,302.569 L1661.19,243.499 C1661.19,239.539 1661.3,237.449 1661.63,234.479 C1658.22,234.919 1655.25,235.029 1651.29,235.029 L1633.03,235.029 L1633.03,225.349 C1633.03,221.169 1633.25,217.759 1633.8,214.239 L1625.44,214.239 C1625.99,217.869 1626.21,221.169 1626.21,225.239 L1626.21,235.029 L1606.74,235.029 M1606.74,300.479 L1606.74,272.649 L1626.21,272.649 L1626.21,300.479 L1606.74,300.479 M1606.74,266.379 L1606.74,241.519 L1626.21,241.519 L1626.21,266.379 L1606.74,266.379 M1599.92,241.519 L1599.92,266.379 L1580.23,266.379 L1580.23,241.519 L1599.92,241.519 M1599.92,272.649 L1599.92,300.479 L1580.23,300.479 L1580.23,272.649 L1599.92,272.649 M1633.03,300.479 L1633.03,272.649 L1654.15,272.649 L1654.15,300.479 L1633.03,300.479 M1633.03,266.379 L1633.03,241.519 L1654.15,241.519 L1654.15,266.379 L1633.03,266.379 M1724,301.469 C1724,302.019 1724,303.559 1724,304.659 C1724,308.619 1723.89,310.269 1723.34,313.569 L1731.48,313.569 C1730.93,310.269 1730.71,307.189 1730.6,301.469 L1730.38,281.999 L1764.37,281.999 C1763.82,289.149 1763.16,293.989 1762.61,296.189 C1761.84,298.939 1760.74,299.599 1757,299.599 C1752.82,299.599 1748.42,299.159 1743.14,298.169 C1744.13,300.589 1744.46,302.129 1745.01,305.099 C1749.63,305.539 1753.37,305.759 1757.11,305.759 C1768.33,305.759 1769.1,304.439 1771.3,280.129 C1771.52,277.819 1771.52,277.159 1771.85,275.729 C1769.54,276.059 1767.12,276.169 1762.83,276.169 L1730.27,276.169 L1730.16,264.839 L1755.79,264.839 C1760.3,264.839 1763.16,264.949 1766.02,265.169 C1765.69,262.969 1765.58,260.989 1765.58,257.579 L1765.58,248.559 C1765.58,245.369 1765.69,243.609 1766.02,241.629 C1763.27,241.959 1760.96,242.069 1755.79,242.069 L1697.16,242.069 C1691.77,242.069 1688.91,241.959 1686.49,241.519 L1686.49,248.449 C1689.79,248.009 1692.98,247.899 1697.16,247.899 L1723.34,247.899 L1723.45,259.119 L1700.68,259.119 C1695.18,259.119 1692.21,259.009 1690.34,258.679 C1690.12,266.049 1687.04,277.379 1682.64,286.949 L1690.23,287.609 C1691.22,284.969 1691.55,284.089 1692.21,281.999 L1718.83,281.999 C1713.44,287.499 1706.84,292.449 1698.81,296.739 C1691.88,300.369 1687.37,302.129 1677.36,304.989 C1679.34,307.299 1680.33,308.619 1681.65,311.259 C1692.87,307.189 1696.28,305.649 1704.09,301.029 C1711.68,296.519 1718.72,290.799 1723.78,285.189 L1724,301.469 M1730.05,259.119 L1729.94,247.899 L1758.87,247.899 L1758.87,259.119 L1730.05,259.119 M1723.56,264.839 L1723.67,276.169 L1693.97,276.169 C1695.51,270.779 1695.84,269.239 1696.61,264.839 L1723.56,264.839 M1702.33,228.099 C1705.08,232.389 1706.4,234.919 1708.6,240.309 L1714.65,237.889 C1712.78,234.039 1711.57,232.169 1708.82,228.099 L1716.3,228.099 C1720.48,228.099 1723.56,228.209 1726.31,228.539 L1726.31,221.499 C1723.67,221.939 1720.59,222.159 1715.42,222.159 L1698.48,222.159 C1700.46,218.969 1701.01,218.089 1702.77,214.789 L1695.73,212.589 C1691.77,222.819 1686.05,230.519 1677.36,237.119 C1679.12,238.329 1680.66,239.869 1682.2,241.959 C1688.03,236.789 1691,233.489 1694.74,228.099 L1702.33,228.099 M1745.78,228.099 C1748.86,232.719 1750.29,235.139 1752.71,240.199 L1758.87,237.669 C1756.89,234.149 1754.91,231.179 1752.71,228.099 L1764.81,228.099 C1769.54,228.099 1772.84,228.209 1776.36,228.649 L1776.36,221.499 C1772.95,221.939 1769.87,222.159 1764.7,222.159 L1739.51,222.159 C1741.49,218.309 1741.93,217.539 1743.25,214.569 L1736.54,212.589 C1733.24,222.709 1729.28,228.869 1721.36,236.129 C1723.67,237.449 1724.77,238.329 1726.53,240.199 C1730.71,235.909 1732.8,233.269 1736.21,228.099 L1745.78,228.099 "/>
<path class="Text" d="M1817.61,227.549 C1813.87,232.059 1803.75,235.469 1793.63,235.689 L1793.63,240.419 L1803.31,240.419 C1809.69,240.529 1810.35,241.189 1810.13,247.349 L1810.13,291.459 C1810.13,297.069 1810.13,297.289 1809.47,298.279 C1808.59,299.379 1806.5,299.819 1800.34,299.819 L1793.19,299.819 L1793.19,304.989 L1836.75,304.989 L1836.75,299.819 L1830.7,299.819 C1824.54,299.819 1822.45,299.379 1821.57,298.279 C1820.8,297.289 1820.8,297.179 1820.8,291.459 L1820.8,246.029 C1820.8,239.869 1821.02,234.699 1821.57,227.549 L1817.61,227.549 "/>
<path class="Text" d="M1894.17,241.739 L1881.3,241.739 C1878.55,236.129 1877.01,233.489 1873.38,228.209 L1867.55,230.739 C1870.63,234.919 1872.39,237.779 1874.37,241.739 L1861.94,241.739 C1856.88,241.739 1853.8,241.519 1850.83,241.079 L1850.83,248.229 C1853.91,247.789 1857.32,247.569 1861.94,247.569 L1887.68,247.569 C1877.89,256.809 1864.91,263.959 1848.41,269.019 C1850.72,271.659 1851.38,272.759 1852.37,275.179 C1857.98,272.979 1860.18,271.989 1864.91,269.679 C1864.91,271.329 1865.02,273.639 1865.02,275.839 L1865.02,303.229 C1865.02,306.969 1864.8,310.709 1864.36,313.459 L1871.51,313.459 L1871.51,307.519 L1925.19,307.519 L1925.19,313.459 L1932.34,313.459 C1931.9,310.709 1931.68,307.409 1931.68,303.119 L1931.68,275.729 C1931.68,272.979 1931.68,272.099 1931.79,269.569 C1935.86,271.439 1936.52,271.769 1945.54,275.289 C1946.64,272.539 1947.52,271.109 1949.39,268.689 C1931.57,263.849 1917.6,256.809 1907.15,247.569 L1934.21,247.569 C1938.94,247.569 1942.13,247.789 1945.32,248.229 L1945.32,241.079 C1942.13,241.629 1939.49,241.739 1934.21,241.739 L1921.01,241.739 C1924.75,236.349 1926.73,233.049 1929.48,227.659 L1922.77,225.129 C1920.13,231.729 1918.04,235.689 1913.97,241.739 L1900.77,241.739 L1900.77,225.129 C1909.79,224.139 1924.09,222.049 1932.12,220.399 C1933.22,220.179 1933.99,220.069 1934.43,219.959 L1936.52,219.629 L1931.57,213.359 C1918.26,217.869 1892.3,220.949 1867,220.949 C1864.69,220.949 1862.38,220.949 1857.98,220.839 C1859.41,222.929 1859.96,224.249 1860.95,227.219 C1872.06,227.109 1883.28,226.559 1894.17,225.789 L1894.17,241.739 M1873.6,267.039 C1872.06,267.039 1871.62,267.039 1870.19,267.039 C1881.3,260.879 1887.46,256.149 1894.61,248.229 C1894.28,250.539 1894.17,251.529 1894.17,252.519 L1894.17,256.369 C1894.17,259.339 1894.06,261.429 1893.73,263.849 L1901.1,263.849 C1900.88,262.089 1900.77,259.559 1900.77,256.369 L1900.77,252.409 C1900.77,251.859 1900.66,251.419 1900.55,249.879 C1900.44,249.109 1900.44,248.779 1900.33,248.119 C1908.91,256.699 1914.63,260.769 1926.51,267.039 C1924.86,267.039 1924.2,267.039 1922.77,267.039 L1873.6,267.039 M1871.51,272.759 L1894.28,272.759 L1894.28,283.979 L1871.51,283.979 L1871.51,272.759 M1871.51,289.589 L1894.28,289.589 L1894.28,301.689 L1871.51,301.689 L1871.51,289.589 M1900.66,272.759 L1925.19,272.759 L1925.19,283.979 L1900.66,283.979 L1900.66,272.759 M1900.77,289.589 L1925.08,289.589 L1925.08,301.689 L1900.77,301.689 L1900.77,289.589 "/>
<path class="MeasureNumber" d="M217.481,1042.4 C218.161,1038.88 218.961,1036.68 220.481,1034 C222.281,1030.84 224.441,1029.24 226.841,1029.24 C228.081,1029.24 228.841,1029.72 228.841,1030.48 C228.841,1030.76 228.761,1030.92 228.481,1031.44 C228.121,1032.12 227.961,1032.6 227.961,1033.2 C227.961,1034.48 228.921,1035.36 230.281,1035.36 C231.921,1035.36 233.041,1034.16 233.041,1032.36 C233.041,1029.64 230.481,1027.64 226.921,1027.64 C218.001,1027.64 212.601,1039.28 212.601,1046.96 C212.601,1052.84 215.521,1056.4 220.401,1056.4 C226.401,1056.4 230.841,1051.44 230.841,1045.56 C230.841,1041.48 228.081,1038.64 224.081,1038.64 C221.281,1038.64 219.121,1039.84 217.481,1042.4 M222.801,1040.96 C225.281,1040.96 226.641,1042.68 226.641,1045.8 C226.641,1050.88 223.961,1054.76 220.401,1054.76 C217.841,1054.76 216.321,1052.88 216.321,1049.68 C216.321,1044.68 219.081,1040.96 222.801,1040.96"/>
<polyline class="BarLine" fill="none" stroke="#000000" stroke-width="4.46" stroke-linejoin="bevel" points="1640.39,632.834 1640.39,734.762"/>
<polyline class="BarLine" fill="none" stroke="#000000" stroke-width="4.46" stroke-linejoin="bevel" points="2344.45,1104.03 2344.45,1205.96"/>
<polyline class="BarLine" fill="none" stroke="#000000" stroke-width="4.46" stroke-linejoin="bevel" points="2217.09,632.834 2217.09,734.762"/>
<polyline class="BarLine" fill="none" stroke="#000000" stroke-width="4.46" stroke-linejoin="bevel" points="1141.93,632.834 1141.93,734.762"/>
<polyline class="BarLine" fill="none" stroke="#000000" stroke-width="4.46" stroke-linejoin="bevel" points="565.237,632.834 565.237,734.762"/>
<polyline class="BarLine" fill="none" stroke="#000000" stroke-width="4.46" stroke-linejoin="bevel" points="1643.4,1104.03 1643.4,1205.96"/>
<polyline class="BarLine" fill="none" stroke="#000000" stroke-width="4.46" stroke-linejoin="bevel" points="2740.42,1104.03 2740.42,1205.96"/>
<polyline class="BarLine" fill="none" stroke="#000000" stroke-width="13.64" stroke-linejoin="bevel" points="2757.78,1104.03 2757.78,1205.96"/>
<polyline class="BarLine" fill="none" stroke="#000000" stroke-width="4.46" stroke-linejoin="bevel" points="2762.37,632.834 2762.37,734.762"/>
<polyline class="BarLine" fill="none" stroke="#000000" stroke-width="4.46" stroke-linejoin="bevel" points="1007.92,1104.03 1007.92,1205.96"/>
<polyline class="LedgerLine" fill="none" stroke="#000000" stroke-width="3.97" stroke-linejoin="bevel" points="1394.75,782.998 1444.33,782.998"/>
<polyline class="LedgerLine" fill="none" stroke="#000000" stroke-width="3.97" stroke-linejoin="bevel" points="1033.71,1229.4 1083.29,1229.4"/>
<polyline class="LedgerLine" fill="none" stroke="#000000" stroke-width="3.97" stroke-linejoin="bevel" points="901.202,1229.4 950.786,1229.4"/>
<polyline class="LedgerLine" fill="none" stroke="#000000" stroke-width="3.97" stroke-linejoin="bevel" points="1129.52,1229.4 1179.1,1229.4"/>
<polyline class="LedgerLine" fill="none" stroke="#000000" stroke-width="3.97" stroke-linejoin="bevel" points="896.294,758.198 945.879,758.198"/>
<polyline class="LedgerLine" fill="none" stroke="#000000" stroke-width="3.97" stroke-linejoin="bevel" points="1129.52,1254.2 1179.1,1254.2"/>
<polyline class="LedgerLine" fill="none" stroke="#000000" stroke-width="3.97" stroke-linejoin="bevel" points="1225.32,1229.4 1274.9,1229.4"/>
<polyline class="LedgerLine" fill="none" stroke="#000000" stroke-width="3.97" stroke-linejoin="bevel" points="974.537,758.198 1024.12,758.198"/>
<polyline class="LedgerLine" fill="none" stroke="#000000" stroke-width="3.97" stroke-linejoin="bevel" points="2594.97,758.198 2644.56,758.198"/>
<polyline class="LedgerLine" fill="none" stroke="#000000" stroke-width="3.97" stroke-linejoin="bevel" points="1225.32,1254.2 1274.9,1254.2"/>
<polyline class="LedgerLine" fill="none" stroke="#000000" stroke-width="3.97" stroke-linejoin="bevel" points="1052.78,758.198 1102.36,758.198"/>
<polyline class="LedgerLine" fill="none" stroke="#000000" stroke-width="3.97" stroke-linejoin="bevel" points="591.029,758.198 640.614,758.198"/>
<polyline class="LedgerLine" fill="none" stroke="#000000" stroke-width="3.97" stroke-linejoin="bevel" points="1854.51,1229.4 1904.1,1229.4"/>
<polyline class="LedgerLine" fill="none" stroke="#000000" stroke-width="3.97" stroke-linejoin="bevel" points="436.961,782.998 486.545,782.998"/>
<polyline class="LedgerLine" fill="none" stroke="#000000" stroke-width="3.97" stroke-linejoin="bevel" points="436.961,758.198 486.545,758.198"/>
<polyline class="LedgerLine" fill="none" stroke="#000000" stroke-width="3.97" stroke-linejoin="bevel" points="1950.32,1229.4 1999.9,1229.4"/>
<polyline class="LedgerLine" fill="none" stroke="#000000" stroke-width="3.97" stroke-linejoin="bevel" points="2049.69,758.198 2099.27,758.198"/>
<polyline class="LedgerLine" fill="none" stroke="#000000" stroke-width="3.97" stroke-linejoin="bevel" points="2046.12,1229.4 2095.71,1229.4"/>
<polyline class="LedgerLine" fill="none" stroke="#000000" stroke-width="3.97" stroke-linejoin="bevel" points="2370.24,1229.4 2419.83,1229.4"/>
<polyline class="LedgerLine" fill="none" stroke="#000000" stroke-width="3.97" stroke-linejoin="bevel" points="1316.51,758.198 1366.09,758.198"/>
<polyline class="LedgerLine" fill="none" stroke="#000000" stroke-width="3.97" stroke-linejoin="bevel" points="1512.11,782.998 1561.7,782.998"/>
<polyline class="LedgerLine" fill="none" stroke="#000000" stroke-width="3.97" stroke-linejoin="bevel" points="1512.11,758.198 1561.7,758.198"/>
<polyline class="LedgerLine" fill="none" stroke="#000000" stroke-width="3.97" stroke-linejoin="bevel" points="1394.75,758.198 1444.33,758.198"/>
<polyline class="Stem" fill="none" stroke="#000000" stroke-width="2.73" stroke-linejoin="bevel" points="2399.78,679.83 2399.78,609.398"/>
<polyline class="Stem" fill="none" stroke="#000000" stroke-width="2.73" stroke-linejoin="bevel" points="749.133,1151.03 749.133,1080.63"/>
<polyline class="Stem" fill="none" stroke="#000000" stroke-width="2.73" stroke-linejoin="bevel" points="1551.65,741.83 1551.65,658.998"/>
<polyline class="Stem" fill="none" stroke="#000000" stroke-width="2.73" stroke-linejoin="bevel" points="1434.29,741.83 1434.29,658.998"/>
<polyline class="Stem" fill="none" stroke="#000000" stroke-width="2.73" stroke-linejoin="bevel" points="2409.78,1175.83 2409.78,1093"/>
<polyline class="Stem" fill="none" stroke="#000000" stroke-width="2.73" stroke-linejoin="bevel" points="2229.37,1151.03 2229.37,1080.6"/>
<polyline class="Stem" fill="none" stroke="#000000" stroke-width="2.73" stroke-linejoin="bevel" points="1356.05,717.03 1356.05,634.397"/>
<polyline class="Stem" fill="none" stroke="#000000" stroke-width="2.73" stroke-linejoin="bevel" points="935.835,704.63 935.835,630.077"/>
<polyline class="Stem" fill="none" stroke="#000000" stroke-width="2.73" stroke-linejoin="bevel" points="1705.72,692.23 1705.72,615.598"/>
<polyline class="Stem" fill="none" stroke="#000000" stroke-width="2.73" stroke-linejoin="bevel" points="2085.66,1175.83 2085.66,1093"/>
<polyline class="Stem" fill="none" stroke="#000000" stroke-width="2.73" stroke-linejoin="bevel" points="476.501,741.83 476.501,658.998"/>
<polyline class="Stem" fill="none" stroke="#000000" stroke-width="2.73" stroke-linejoin="bevel" points="653.328,1138.63 653.328,1074.49"/>
<polyline class="Stem" fill="none" stroke="#000000" stroke-width="2.73" stroke-linejoin="bevel" points="1825,675.565 1825,751.899"/>
<polyline class="Stem" fill="none" stroke="#000000" stroke-width="2.73" stroke-linejoin="bevel" points="1989.86,1175.83 1989.86,1105.4"/>
<polyline class="Stem" fill="none" stroke="#000000" stroke-width="2.73" stroke-linejoin="bevel" points="1932.74,679.83 1932.74,615.634"/>
<polyline class="Stem" fill="none" stroke="#000000" stroke-width="2.73" stroke-linejoin="bevel" points="1894.05,1175.83 1894.05,1105.4"/>
<polyline class="Stem" fill="none" stroke="#000000" stroke-width="2.73" stroke-linejoin="bevel" points="1800.69,1159.16 1800.69,1229.26"/>
<polyline class="Stem" fill="none" stroke="#000000" stroke-width="2.73" stroke-linejoin="bevel" points="2010.99,692.23 2010.99,617.677"/>
<polyline class="Stem" fill="none" stroke="#000000" stroke-width="2.73" stroke-linejoin="bevel" points="1679.24,1134.36 1679.24,1217.13"/>
<polyline class="Stem" fill="none" stroke="#000000" stroke-width="2.73" stroke-linejoin="bevel" points="2089.23,704.63 2089.23,619.72"/>
<polyline class="Stem" fill="none" stroke="#000000" stroke-width="2.73" stroke-linejoin="bevel" points="630.57,704.63 630.57,621.798"/>
<polyline class="Stem" fill="none" stroke="#000000" stroke-width="2.73" stroke-linejoin="bevel" points="1576.23,1163.43 1576.23,1086.63"/>
<polyline class="Stem" fill="none" stroke="#000000" stroke-width="2.73" stroke-linejoin="bevel" points="2167.47,692.23 2167.47,621.763"/>
<polyline class="Stem" fill="none" stroke="#000000" stroke-width="2.73" stroke-linejoin="bevel" points="1480.42,1138.63 1480.42,1074.57"/>
<polyline class="Stem" fill="none" stroke="#000000" stroke-width="2.73" stroke-linejoin="bevel" points="1264.86,1200.63 1264.86,1117.8"/>
<polyline class="Stem" fill="none" stroke="#000000" stroke-width="2.73" stroke-linejoin="bevel" points="1014.08,717.03 1014.08,632.12"/>
<polyline class="Stem" fill="none" stroke="#000000" stroke-width="2.73" stroke-linejoin="bevel" points="1207.27,692.23 1207.27,615.598"/>
<polyline class="Stem" fill="none" stroke="#000000" stroke-width="2.73" stroke-linejoin="bevel" points="2282.42,692.23 2282.42,615.598"/>
<polyline class="Stem" fill="none" stroke="#000000" stroke-width="2.73" stroke-linejoin="bevel" points="779.349,679.83 779.349,603.397"/>
<polyline class="Stem" fill="none" stroke="#000000" stroke-width="2.73" stroke-linejoin="bevel" points="1092.32,704.63 1092.32,634.163"/>
<polyline class="Stem" fill="none" stroke="#000000" stroke-width="2.73" stroke-linejoin="bevel" points="1169.06,1200.63 1169.06,1130.11"/>
<polyline class="Stem" fill="none" stroke="#000000" stroke-width="2.73" stroke-linejoin="bevel" points="1073.25,1188.23 1073.25,1124.08"/>
<polyline class="Stem" fill="none" stroke="#000000" stroke-width="2.73" stroke-linejoin="bevel" points="2634.51,704.63 2634.51,621.694"/>
<polyline class="Stem" fill="none" stroke="#000000" stroke-width="2.73" stroke-linejoin="bevel" points="857.592,692.23 857.592,628.034"/>
<polyline class="Stem" fill="none" stroke="#000000" stroke-width="2.73" stroke-linejoin="bevel" points="940.742,1175.83 940.742,1092.91"/>
<polyline class="Stem" fill="none" stroke="#000000" stroke-width="2.73" stroke-linejoin="bevel" points="844.937,1163.43 844.937,1086.77"/>
<polyline class="Stem" fill="none" stroke="#000000" stroke-width="2.73" stroke-linejoin="bevel" points="2712.76,679.83 2712.76,615.703"/>
<polyline class="Stem" fill="none" stroke="#000000" stroke-width="2.73" stroke-linejoin="bevel" points="408.27,1134.36 408.27,1217"/>
<path class="Hook" transform="matrix(0.992,0,0,0.992,777.985,603.198)" d="M0,22.7 C0,23 0.1,23.6 0.8,23.8 C5.1,25.2 13.7,30.6 20.2,41.7 C22,44.8 24.9,49.1 24.9,57.4 C24.9,64.6 23.1,72 20.4,79.2 C20.2,79.8 20.1,80.3 20.1,80.7 C20.1,81.4 20.5,81.7 21.2,81.7 C21.8,81.7 22.3,81.3 22.7,80.6 C27.2,72.6 28.9,63.3 28.9,54.2 C28.4,41.3 21,31.8 21,31.8 C21.3,31.8 11.8,19.5 9.1,15.3 C5.4,9.6 3.7,3.9 3.5,3.5 C3.4,3.2 2.5,-0.4 2.5,-0.4 C2.4,-0.8 1.9,-1.2 1.3,-1.2 C0.6,-1.2 0,-0.6 0,0.1 L0,22.7 "/>
<path class="Hook" transform="matrix(0.992,0,0,0.992,1823.64,751.998)" d="M0,-0.1 C0,0.6 0.6,1.2 1.3,1.2 C1.8,1.2 2.4,0.8 2.5,0.4 C2.5,0.3 3.4,-3.2 3.5,-3.5 C3.6,-3.9 4.5,-7.7 8.1,-13.6 C12,-20.1 18,-24.8 23,-31.8 C28,-38.8 30.9,-45.4 30.9,-54.2 C30.9,-63.3 28.9,-70.9 23.5,-80.6 C23.2,-81.3 22.6,-81.7 22,-81.7 C21.8,-81.7 21.6,-81.7 21.5,-81.6 C21,-81.4 20.8,-81 20.8,-80.4 C20.8,-80.1 20.9,-79.7 21.1,-79.2 C25.1,-69.9 26.7,-64.6 26.7,-57.4 C26.7,-49.1 23.8,-44.8 22,-41.7 C15.5,-30.6 5,-25.2 0.8,-23.8 C0.1,-23.6 0,-23 0,-22.7 L0,-0.1 "/>
<path class="Hook" transform="matrix(0.992,0,0,0.992,1354.68,634.198)" d="M0,22.7 C0,23 0.1,23.6 0.8,23.8 C5.1,25.2 13.7,30.6 20.2,41.7 C22,44.8 24.9,49.1 24.9,57.4 C24.9,64.6 23.1,72 20.4,79.2 C20.2,79.8 20.1,80.3 20.1,80.7 C20.1,81.4 20.5,81.7 21.2,81.7 C21.8,81.7 22.3,81.3 22.7,80.6 C27.2,72.6 28.9,63.3 28.9,54.2 C28.4,41.3 21,31.8 21,31.8 C21.3,31.8 11.8,19.5 9.1,15.3 C5.4,9.6 3.7,3.9 3.5,3.5 C3.4,3.2 2.5,-0.4 2.5,-0.4 C2.4,-0.8 1.9,-1.2 1.3,-1.2 C0.6,-1.2 0,-0.6 0,0.1 L0,22.7 "/>
<path class="Note" transform="matrix(0.992,0,0,0.992,1403.43,745.798)" d="M0,4.2 C0,8.5 3.1,13.3 11.2,13.3 C21.6,13.3 32.5,4.8 32.5,-4 C32.5,-9.9 27.5,-13.2 21.3,-13.2 C11.6,-13.2 0,-5 0,4.2"/>
<path class="Note" transform="matrix(0.992,0,0,0.992,1863.19,1179.8)" d="M0,4.2 C0,8.5 3.1,13.3 11.2,13.3 C21.6,13.3 32.5,4.8 32.5,-4 C32.5,-9.9 27.5,-13.2 21.3,-13.2 C11.6,-13.2 0,-5 0,4.2"/>
<path class="Note" transform="matrix(0.992,0,0,0.992,1901.88,683.798)" d="M0,4.2 C0,8.5 3.1,13.3 11.2,13.3 C21.6,13.3 32.5,4.8 32.5,-4 C32.5,-9.9 27.5,-13.2 21.3,-13.2 C11.6,-13.2 0,-5 0,4.2"/>
<path class="Note" transform="matrix(0.992,0,0,0.992,406.906,1130.2)" d="M21.3,-13.2 C11.6,-13.2 0,-5.1 0,4.2 C0,8.5 3.1,13.3 11.2,13.3 C21.6,13.3 32.5,4.8 32.5,-4 C32.5,-9.9 27.5,-13.2 21.3,-13.2 M7.5,8.6 C4.2,8.6 3.5,5.9 3.5,5 C3.5,0.1 20.3,-8.5 25,-8.5 C27.4,-8.5 29,-7.1 29,-4.9 C29,0.1 12.1,8.6 7.5,8.6"/>
<path class="Note" transform="matrix(0.992,0,0,0.992,904.974,708.598)" d="M0,4.2 C0,8.5 3.1,13.3 11.2,13.3 C21.6,13.3 32.5,4.8 32.5,-4 C32.5,-9.9 27.5,-13.2 21.3,-13.2 C11.6,-13.2 0,-5 0,4.2"/>
<path class="Note" transform="matrix(0.992,0,0,0.992,622.467,1142.6)" d="M0,4.2 C0,8.5 3.1,13.3 11.2,13.3 C21.6,13.3 32.5,4.8 32.5,-4 C32.5,-9.9 27.5,-13.2 21.3,-13.2 C11.6,-13.2 0,-5 0,4.2"/>
<path class="Note" transform="matrix(0.992,0,0,0.992,2251.56,696.198)" d="M0,4.2 C0,8.5 3.1,13.3 11.2,13.3 C21.6,13.3 32.5,4.8 32.5,-4 C32.5,-9.9 27.5,-13.2 21.3,-13.2 C11.6,-13.2 0,-5 0,4.2"/>
<path class="Note" transform="matrix(0.992,0,0,0.992,2681.89,683.798)" d="M0,4.2 C0,8.5 3.1,13.3 11.2,13.3 C21.6,13.3 32.5,4.8 32.5,-4 C32.5,-9.9 27.5,-13.2 21.3,-13.2 C11.6,-13.2 0,-5 0,4.2"/>
<path class="Note" transform="matrix(0.992,0,0,0.992,718.272,1155)" d="M0,4.2 C0,8.5 3.1,13.3 11.2,13.3 C21.6,13.3 32.5,4.8 32.5,-4 C32.5,-9.9 27.5,-13.2 21.3,-13.2 C11.6,-13.2 0,-5 0,4.2"/>
<path class="Note" transform="matrix(0.992,0,0,0.992,2378.92,1179.8)" d="M21.3,-13.2 C11.6,-13.2 0,-5.1 0,4.2 C0,8.5 3.1,13.3 11.2,13.3 C21.6,13.3 32.5,4.8 32.5,-4 C32.5,-9.9 27.5,-13.2 21.3,-13.2 M7.5,8.6 C4.2,8.6 3.5,5.9 3.5,5 C3.5,0.1 20.3,-8.5 25,-8.5 C27.4,-8.5 29,-7.1 29,-4.9 C29,0.1 12.1,8.6 7.5,8.6"/>
<path class="Note" transform="matrix(0.992,0,0,0.992,814.077,1167.4)" d="M0,4.2 C0,8.5 3.1,13.3 11.2,13.3 C21.6,13.3 32.5,4.8 32.5,-4 C32.5,-9.9 27.5,-13.2 21.3,-13.2 C11.6,-13.2 0,-5 0,4.2"/>
<path class="Note" transform="matrix(0.992,0,0,0.992,2603.65,708.598)" d="M0,4.2 C0,8.5 3.1,13.3 11.2,13.3 C21.6,13.3 32.5,4.8 32.5,-4 C32.5,-9.9 27.5,-13.2 21.3,-13.2 C11.6,-13.2 0,-5 0,4.2"/>
<path class="Note" transform="matrix(0.992,0,0,0.992,2368.92,683.798)" d="M0,4.2 C0,8.5 3.1,13.3 11.2,13.3 C21.6,13.3 32.5,4.8 32.5,-4 C32.5,-9.9 27.5,-13.2 21.3,-13.2 C11.6,-13.2 0,-5 0,4.2"/>
<path class="Note" transform="matrix(0.992,0,0,0.992,909.882,1179.8)" d="M0,4.2 C0,8.5 3.1,13.3 11.2,13.3 C21.6,13.3 32.5,4.8 32.5,-4 C32.5,-9.9 27.5,-13.2 21.3,-13.2 C11.6,-13.2 0,-5 0,4.2"/>
<path class="Note" transform="matrix(0.992,0,0,0.992,826.731,696.198)" d="M0,4.2 C0,8.5 3.1,13.3 11.2,13.3 C21.6,13.3 32.5,4.8 32.5,-4 C32.5,-9.9 27.5,-13.2 21.3,-13.2 C11.6,-13.2 0,-5 0,4.2"/>
<path class="Note" transform="matrix(0.992,0,0,0.992,983.217,720.998)" d="M0,4.2 C0,8.5 3.1,13.3 11.2,13.3 C21.6,13.3 32.5,4.8 32.5,-4 C32.5,-9.9 27.5,-13.2 21.3,-13.2 C11.6,-13.2 0,-5 0,4.2"/>
<path class="Note" transform="matrix(0.992,0,0,0.992,1325.19,720.998)" d="M0,4.2 C0,8.5 3.1,13.3 11.2,13.3 C21.6,13.3 32.5,4.8 32.5,-4 C32.5,-9.9 27.5,-13.2 21.3,-13.2 C11.6,-13.2 0,-5 0,4.2"/>
<path class="Note" transform="matrix(0.992,0,0,0.992,748.489,683.798)" d="M0,4.2 C0,8.5 3.1,13.3 11.2,13.3 C21.6,13.3 32.5,4.8 32.5,-4 C32.5,-9.9 27.5,-13.2 21.3,-13.2 C11.6,-13.2 0,-5 0,4.2"/>
<path class="Note" transform="matrix(0.992,0,0,0.992,1042.39,1192.2)" d="M0,4.2 C0,8.5 3.1,13.3 11.2,13.3 C21.6,13.3 32.5,4.8 32.5,-4 C32.5,-9.9 27.5,-13.2 21.3,-13.2 C11.6,-13.2 0,-5 0,4.2"/>
<path class="Note" transform="matrix(0.992,0,0,0.992,445.641,745.798)" d="M0,4.2 C0,8.5 3.1,13.3 11.2,13.3 C21.6,13.3 32.5,4.8 32.5,-4 C32.5,-9.9 27.5,-13.2 21.3,-13.2 C11.6,-13.2 0,-5 0,4.2"/>
<path class="Note" transform="matrix(0.992,0,0,0.992,2198.51,1155)" d="M0,4.2 C0,8.5 3.1,13.3 11.2,13.3 C21.6,13.3 32.5,4.8 32.5,-4 C32.5,-9.9 27.5,-13.2 21.3,-13.2 C11.6,-13.2 0,-5 0,4.2"/>
<path class="Note" transform="matrix(0.992,0,0,0.992,1061.46,708.598)" d="M0,4.2 C0,8.5 3.1,13.3 11.2,13.3 C21.6,13.3 32.5,4.8 32.5,-4 C32.5,-9.9 27.5,-13.2 21.3,-13.2 C11.6,-13.2 0,-5 0,4.2"/>
<path class="Note" transform="matrix(0.992,0,0,0.992,1520.79,745.798)" d="M0,4.2 C0,8.5 3.1,13.3 11.2,13.3 C21.6,13.3 32.5,4.8 32.5,-4 C32.5,-9.9 27.5,-13.2 21.3,-13.2 C11.6,-13.2 0,-5 0,4.2"/>
<path class="Note" transform="matrix(0.992,0,0,0.992,1138.2,1204.6)" d="M0,4.2 C0,8.5 3.1,13.3 11.2,13.3 C21.6,13.3 32.5,4.8 32.5,-4 C32.5,-9.9 27.5,-13.2 21.3,-13.2 C11.6,-13.2 0,-5 0,4.2"/>
<path class="Note" transform="matrix(0.992,0,0,0.992,1176.41,696.198)" d="M0,4.2 C0,8.5 3.1,13.3 11.2,13.3 C21.6,13.3 32.5,4.8 32.5,-4 C32.5,-9.9 27.5,-13.2 21.3,-13.2 C11.6,-13.2 0,-5 0,4.2"/>
<path class="Note" transform="matrix(0.992,0,0,0.992,2054.8,1179.8)" d="M0,4.2 C0,8.5 3.1,13.3 11.2,13.3 C21.6,13.3 32.5,4.8 32.5,-4 C32.5,-9.9 27.5,-13.2 21.3,-13.2 C11.6,-13.2 0,-5 0,4.2"/>
<path class="Note" transform="matrix(0.992,0,0,0.992,599.709,708.598)" d="M0,4.2 C0,8.5 3.1,13.3 11.2,13.3 C21.6,13.3 32.5,4.8 32.5,-4 C32.5,-9.9 27.5,-13.2 21.3,-13.2 C11.6,-13.2 0,-5 0,4.2"/>
<path class="Note" transform="matrix(0.992,0,0,0.992,1234,1204.6)" d="M21.3,-13.2 C11.6,-13.2 0,-5.1 0,4.2 C0,8.5 3.1,13.3 11.2,13.3 C21.6,13.3 32.5,4.8 32.5,-4 C32.5,-9.9 27.5,-13.2 21.3,-13.2 M7.5,8.6 C4.2,8.6 3.5,5.9 3.5,5 C3.5,0.1 20.3,-8.5 25,-8.5 C27.4,-8.5 29,-7.1 29,-4.9 C29,0.1 12.1,8.6 7.5,8.6"/>
<path class="Note" transform="matrix(0.992,0,0,0.992,2136.61,696.198)" d="M0,4.2 C0,8.5 3.1,13.3 11.2,13.3 C21.6,13.3 32.5,4.8 32.5,-4 C32.5,-9.9 27.5,-13.2 21.3,-13.2 C11.6,-13.2 0,-5 0,4.2"/>
<path class="Note" transform="matrix(0.992,0,0,0.992,1449.56,1142.6)" d="M0,4.2 C0,8.5 3.1,13.3 11.2,13.3 C21.6,13.3 32.5,4.8 32.5,-4 C32.5,-9.9 27.5,-13.2 21.3,-13.2 C11.6,-13.2 0,-5 0,4.2"/>
<path class="Note" transform="matrix(0.992,0,0,0.992,1674.86,696.198)" d="M0,4.2 C0,8.5 3.1,13.3 11.2,13.3 C21.6,13.3 32.5,4.8 32.5,-4 C32.5,-9.9 27.5,-13.2 21.3,-13.2 C11.6,-13.2 0,-5 0,4.2"/>
<path class="Note" transform="matrix(0.992,0,0,0.992,2058.37,708.598)" d="M0,4.2 C0,8.5 3.1,13.3 11.2,13.3 C21.6,13.3 32.5,4.8 32.5,-4 C32.5,-9.9 27.5,-13.2 21.3,-13.2 C11.6,-13.2 0,-5 0,4.2"/>
<path class="Note" transform="matrix(0.992,0,0,0.992,1545.37,1167.4)" d="M0,4.2 C0,8.5 3.1,13.3 11.2,13.3 C21.6,13.3 32.5,4.8 32.5,-4 C32.5,-9.9 27.5,-13.2 21.3,-13.2 C11.6,-13.2 0,-5 0,4.2"/>
<path class="Note" transform="matrix(0.992,0,0,0.992,1959,1179.8)" d="M0,4.2 C0,8.5 3.1,13.3 11.2,13.3 C21.6,13.3 32.5,4.8 32.5,-4 C32.5,-9.9 27.5,-13.2 21.3,-13.2 C11.6,-13.2 0,-5 0,4.2"/>
<path class="Note" transform="matrix(0.992,0,0,0.992,1823.64,671.398)" d="M0,4.2 C0,8.5 3.1,13.3 11.2,13.3 C21.6,13.3 32.5,4.8 32.5,-4 C32.5,-9.9 27.5,-13.2 21.3,-13.2 C11.6,-13.2 0,-5 0,4.2"/>
<path class="Note" transform="matrix(0.992,0,0,0.992,1980.13,696.198)" d="M0,4.2 C0,8.5 3.1,13.3 11.2,13.3 C21.6,13.3 32.5,4.8 32.5,-4 C32.5,-9.9 27.5,-13.2 21.3,-13.2 C11.6,-13.2 0,-5 0,4.2"/>
<path class="Note" transform="matrix(0.992,0,0,0.992,1677.87,1130.2)" d="M0,4.2 C0,8.5 3.1,13.3 11.2,13.3 C21.6,13.3 32.5,4.8 32.5,-4 C32.5,-9.9 27.5,-13.2 21.3,-13.2 C11.6,-13.2 0,-5 0,4.2"/>
<path class="Note" transform="matrix(0.992,0,0,0.992,1799.32,1155)" d="M0,4.2 C0,8.5 3.1,13.3 11.2,13.3 C21.6,13.3 32.5,4.8 32.5,-4 C32.5,-9.9 27.5,-13.2 21.3,-13.2 C11.6,-13.2 0,-5 0,4.2"/>
<path class="Clef" transform="matrix(0.992,0,0,0.992,232.438,708.598)" d="M12.3,51.3 C12.3,57.9 17.3,66.6 30.8,66.6 C35.5,66.6 39.6,65.4 43.2,63.2 C48.6,59.4 50,52.8 50,46.5 C50,42.6 49.4,38.1 48.4,32.4 C48.1,30.4 47.5,27.4 46.9,23.5 C56.7,20.3 64,10.1 64,-0.2 C64,-15.3 53.3,-25.5 38.7,-25.5 C37.7,-31.5 36.7,-37.4 35.9,-43 C46.4,-54.1 53.7,-66.6 53.7,-82.5 C53.7,-91.6 50.9,-99 49.3,-102.6 C46.9,-107.7 44,-111.2 42.2,-111.2 C41.5,-111.2 38.4,-110 35.1,-106.1 C28.7,-98.5 26.9,-85.7 26.9,-77.3 C26.9,-71.9 27.4,-67 29.1,-55.8 C29,-55.7 23.8,-50.4 21.7,-48.7 C12.6,-40.3 0,-28.1 0,-8.1 C0,10.6 16.3,25.3 34.9,25.3 C37.8,25.3 40.5,25 42.8,24.6 C44.7,34.2 45.9,41.2 45.9,46.5 C45.9,56.9 40.5,62.4 30.4,62.4 C28,62.4 25.9,61.9 25.7,61.9 C25.6,61.8 25.4,61.7 25.4,61.6 C25.4,61.4 25.6,61.3 25.9,61.3 C30.6,60.5 35.3,56.5 35.3,50.1 C35.3,44.7 31.2,39 23.7,39 C16.7,39 12.3,44.7 12.3,51.3 M33.2,-82.2 C34.1,-86.2 38.7,-96.7 43.9,-96.7 C45.4,-96.7 47.8,-91.9 47.8,-84.9 C47.8,-74.5 40.1,-66.7 33.2,-59.9 C32.6,-63.9 32.1,-67.8 32.1,-72 C32.1,-75.7 32.4,-79.1 33.2,-82.2 M42,20.6 C40,21 38.1,21.2 36.2,21.2 C21.9,21.2 9.7,11.2 9.7,-3.9 C9.7,-16.1 18.3,-27 27.1,-34.6 C28.8,-36.1 30.4,-37.5 31.9,-39 C32.8,-33.6 33.5,-28.9 34.2,-24.8 C25.1,-22.1 18.9,-12.5 18.9,-3.1 C18.9,3.9 24.4,13.5 32.4,13.5 C33.2,13.5 34.1,13.1 34.1,12.2 C34.1,11.3 33.1,10.8 31.9,10 C28,7.6 25.8,5 25.8,0.1 C25.8,-6 30.4,-10.9 36.2,-12.3 L42,20.6 M56.2,2.1 C56.2,9.2 53.3,16.5 46.2,19.4 C44.1,7.4 41.4,-8.5 40.7,-12.9 C49.7,-12.9 56.2,-6.8 56.2,2.1"/>
<path class="Clef" transform="matrix(0.992,0,0,0.992,232.438,1179.8)" d="M12.3,51.3 C12.3,57.9 17.3,66.6 30.8,66.6 C35.5,66.6 39.6,65.4 43.2,63.2 C48.6,59.4 50,52.8 50,46.5 C50,42.6 49.4,38.1 48.4,32.4 C48.1,30.4 47.5,27.4 46.9,23.5 C56.7,20.3 64,10.1 64,-0.2 C64,-15.3 53.3,-25.5 38.7,-25.5 C37.7,-31.5 36.7,-37.4 35.9,-43 C46.4,-54.1 53.7,-66.6 53.7,-82.5 C53.7,-91.6 50.9,-99 49.3,-102.6 C46.9,-107.7 44,-111.2 42.2,-111.2 C41.5,-111.2 38.4,-110 35.1,-106.1 C28.7,-98.5 26.9,-85.7 26.9,-77.3 C26.9,-71.9 27.4,-67 29.1,-55.8 C29,-55.7 23.8,-50.4 21.7,-48.7 C12.6,-40.3 0,-28.1 0,-8.1 C0,10.6 16.3,25.3 34.9,25.3 C37.8,25.3 40.5,25 42.8,24.6 C44.7,34.2 45.9,41.2 45.9,46.5 C45.9,56.9 40.5,62.4 30.4,62.4 C28,62.4 25.9,61.9 25.7,61.9 C25.6,61.8 25.4,61.7 25.4,61.6 C25.4,61.4 25.6,61.3 25.9,61.3 C30.6,60.5 35.3,56.5 35.3,50.1 C35.3,44.7 31.2,39 23.7,39 C16.7,39 12.3,44.7 12.3,51.3 M33.2,-82.2 C34.1,-86.2 38.7,-96.7 43.9,-96.7 C45.4,-96.7 47.8,-91.9 47.8,-84.9 C47.8,-74.5 40.1,-66.7 33.2,-59.9 C32.6,-63.9 32.1,-67.8 32.1,-72 C32.1,-75.7 32.4,-79.1 33.2,-82.2 M42,20.6 C40,21 38.1,21.2 36.2,21.2 C21.9,21.2 9.7,11.2 9.7,-3.9 C9.7,-16.1 18.3,-27 27.1,-34.6 C28.8,-36.1 30.4,-37.5 31.9,-39 C32.8,-33.6 33.5,-28.9 34.2,-24.8 C25.1,-22.1 18.9,-12.5 18.9,-3.1 C18.9,3.9 24.4,13.5 32.4,13.5 C33.2,13.5 34.1,13.1 34.1,12.2 C34.1,11.3 33.1,10.8 31.9,10 C28,7.6 25.8,5 25.8,0.1 C25.8,-6 30.4,-10.9 36.2,-12.3 L42,20.6 M56.2,2.1 C56.2,9.2 53.3,16.5 46.2,19.4 C44.1,7.4 41.4,-8.5 40.7,-12.9 C49.7,-12.9 56.2,-6.8 56.2,2.1"/>
<path class="KeySig" transform="matrix(0.992,0,0,0.992,320.711,1105.4)" d="M23.3,-10.5 C23.9,-10.6 24.4,-11.3 24.4,-11.9 L24.4,-17.8 C24.4,-18.8 23.7,-19.2 22.8,-19.2 L19.5,-18.5 L19.5,-33.4 L16.7,-33.4 L16.7,-17.9 L7.8,-16.1 L7.8,-30.2 L5,-30.2 L5,-15.5 L1.1,-14.7 C0.5,-14.6 0,-13.9 0,-13.3 L0,-7.5 C0,-6.4 0.8,-6.1 1.7,-6.1 L5,-6.8 L5,9.7 L1.1,10.5 C0.5,10.6 0,11.3 0,11.9 L0,17.7 C0,18.8 0.8,19.1 1.7,19.1 L5,18.4 L5,33.3 L7.8,33.3 L7.8,17.8 L16.7,16 L16.7,30.1 L19.5,30.1 L19.5,15.4 L23.3,14.7 C23.9,14.6 24.4,13.9 24.4,13.3 L24.4,7.4 C24.4,6.4 23.7,6 22.8,6 L19.5,6.7 L19.5,-9.8 L23.3,-10.5 M7.8,-7.4 L16.7,-9.2 L16.7,7.3 L7.8,9.2 L7.8,-7.4 "/>
<path class="KeySig" transform="matrix(0.992,0,0,0.992,320.711,634.198)" d="M23.3,-10.5 C23.9,-10.6 24.4,-11.3 24.4,-11.9 L24.4,-17.8 C24.4,-18.8 23.7,-19.2 22.8,-19.2 L19.5,-18.5 L19.5,-33.4 L16.7,-33.4 L16.7,-17.9 L7.8,-16.1 L7.8,-30.2 L5,-30.2 L5,-15.5 L1.1,-14.7 C0.5,-14.6 0,-13.9 0,-13.3 L0,-7.5 C0,-6.4 0.8,-6.1 1.7,-6.1 L5,-6.8 L5,9.7 L1.1,10.5 C0.5,10.6 0,11.3 0,11.9 L0,17.7 C0,18.8 0.8,19.1 1.7,19.1 L5,18.4 L5,33.3 L7.8,33.3 L7.8,17.8 L16.7,16 L16.7,30.1 L19.5,30.1 L19.5,15.4 L23.3,14.7 C23.9,14.6 24.4,13.9 24.4,13.3 L24.4,7.4 C24.4,6.4 23.7,6 22.8,6 L19.5,6.7 L19.5,-9.8 L23.3,-10.5 M7.8,-7.4 L16.7,-9.2 L16.7,7.3 L7.8,9.2 L7.8,-7.4 "/>
<path class="TimeSig" transform="matrix(0.992,0,0,0.992,368.327,658.998)" d="M20.8,12.7 L20.8,20.1 L12.5,20.1 C11.8,20.1 11.1,20.7 11.1,21.5 L11.1,23.4 C11.1,24.2 11.8,24.8 12.5,24.8 L42.8,24.8 C43.6,24.8 44.2,24.2 44.2,23.4 L44.2,21.5 C44.2,20.7 43.6,20.1 42.8,20.1 L33.9,20.1 L33.9,12.7 L42.8,12.7 C43.6,12.7 44.2,12 44.2,11.2 L44.2,9.3 C44.2,8.6 43.6,7.9 42.8,7.9 L33.9,7.9 L33.9,-8 C33.9,-8.6 33.6,-9.1 33.1,-9.3 L31.9,-9.9 C31.7,-10 31.4,-10.1 31.2,-10.1 C30.9,-10 30.5,-9.9 30.3,-9.7 L21.2,-1.4 C20.9,-1.1 20.8,-0.7 20.8,-0.3 L20.8,7.9 L9.3,7.9 C9.3,7.9 20.4,-4.1 32.2,-19.9 C32.6,-20.4 32.7,-20.9 32.7,-21.3 C32.7,-21.8 32.5,-22.2 32.4,-22.3 L30.2,-24.5 C30,-24.7 29.6,-24.9 29.2,-24.9 C28.6,-24.9 15.1,-24.9 14.4,-24.9 C13.6,-24.9 13.1,-24.3 13,-23.7 C13,-23.7 12.5,-16.3 9.9,-8.2 C7.3,-0.1 4.3,4.9 1.7,8.6 C1.7,8.6 1.4,9.1 1.4,9.7 C1.4,9.9 1.4,10.1 1.5,10.3 C1.9,11 2.5,12.1 2.5,12.1 C2.5,12.1 2.7,12.7 3.6,12.7 L20.8,12.7 "/>
<path class="TimeSig" transform="matrix(0.992,0,0,0.992,368.327,708.598)" d="M20.8,12.7 L20.8,20.1 L12.5,20.1 C11.8,20.1 11.1,20.7 11.1,21.5 L11.1,23.4 C11.1,24.2 11.8,24.8 12.5,24.8 L42.8,24.8 C43.6,24.8 44.2,24.2 44.2,23.4 L44.2,21.5 C44.2,20.7 43.6,20.1 42.8,20.1 L33.9,20.1 L33.9,12.7 L42.8,12.7 C43.6,12.7 44.2,12 44.2,11.2 L44.2,9.3 C44.2,8.6 43.6,7.9 42.8,7.9 L33.9,7.9 L33.9,-8 C33.9,-8.6 33.6,-9.1 33.1,-9.3 L31.9,-9.9 C31.7,-10 31.4,-10.1 31.2,-10.1 C30.9,-10 30.5,-9.9 30.3,-9.7 L21.2,-1.4 C20.9,-1.1 20.8,-0.7 20.8,-0.3 L20.8,7.9 L9.3,7.9 C9.3,7.9 20.4,-4.1 32.2,-19.9 C32.6,-20.4 32.7,-20.9 32.7,-21.3 C32.7,-21.8 32.5,-22.2 32.4,-22.3 L30.2,-24.5 C30,-24.7 29.6,-24.9 29.2,-24.9 C28.6,-24.9 15.1,-24.9 14.4,-24.9 C13.6,-24.9 13.1,-24.3 13,-23.7 C13,-23.7 12.5,-16.3 9.9,-8.2 C7.3,-0.1 4.3,4.9 1.7,8.6 C1.7,8.6 1.4,9.1 1.4,9.7 C1.4,9.9 1.4,10.1 1.5,10.3 C1.9,11 2.5,12.1 2.5,12.1 C2.5,12.1 2.7,12.7 3.6,12.7 L20.8,12.7 "/>
<path class="Rest" transform="matrix(0.992,0,0,0.992,2594.48,1155)" d="M23,16.6 C22.9,16.5 22.7,16.3 22.4,15.9 L10.9,1.7 C10.8,1.6 10.7,1.3 10.7,1.1 C10.7,0.8 10.8,0.4 10.9,0.2 L21.1,-15.2 C21.2,-15.4 21.3,-15.7 21.3,-15.9 L21.3,-16.8 C21.3,-17.1 21.2,-17.4 21,-17.6 L4.8,-39.5 C4.8,-39.5 4.4,-40.1 3.8,-40.1 C3.5,-40.1 3.3,-40.1 3,-39.8 C2.6,-39.5 2.5,-39.1 2.5,-38.8 C2.5,-38.2 2.8,-37.7 2.8,-37.7 L10.4,-27.3 C10.6,-27 10.7,-26.6 10.7,-26.1 C10.7,-25.7 10.6,-25.2 10.4,-24.9 L0.3,-9.5 C0.2,-9.3 0.1,-8.9 0.1,-8.7 L0.1,-7.8 C0.1,-7.5 0.2,-7.2 0.4,-7 L11.6,6.9 C11.2,6.8 10.3,6.6 9.1,6.6 C4,6.6 0,10.8 0,15.9 C0,17.3 0.3,18.7 1.1,19.8 C3.2,23 10.7,32.5 10.7,32.5 C10.7,32.5 11.2,33.1 11.9,33.1 C12.1,33.1 12.3,33.1 12.5,32.9 C13,32.5 13.2,32.1 13.2,31.7 C13.2,31.3 13,31 12.9,30.8 C12.6,30.3 9.4,24.5 9.4,24.5 C9.4,24.5 8.7,23.1 8.7,21.3 C8.7,18.1 11.1,15.5 14.3,15.5 C15.6,15.5 16.7,15.9 17.5,16.4 L21.4,18.9 C21.4,18.9 21.8,19.1 22.2,19.1 C22.6,19.1 22.9,19 23.2,18.6 C23.4,18.3 23.5,18 23.5,17.7 C23.5,17.4 23.4,17.2 23.2,16.9 L23,16.6 "/>
<path class="Rest" transform="matrix(0.992,0,0,0.992,2486.29,683.798)" d="M23,16.6 C22.9,16.5 22.7,16.3 22.4,15.9 L10.9,1.7 C10.8,1.6 10.7,1.3 10.7,1.1 C10.7,0.8 10.8,0.4 10.9,0.2 L21.1,-15.2 C21.2,-15.4 21.3,-15.7 21.3,-15.9 L21.3,-16.8 C21.3,-17.1 21.2,-17.4 21,-17.6 L4.8,-39.5 C4.8,-39.5 4.4,-40.1 3.8,-40.1 C3.5,-40.1 3.3,-40.1 3,-39.8 C2.6,-39.5 2.5,-39.1 2.5,-38.8 C2.5,-38.2 2.8,-37.7 2.8,-37.7 L10.4,-27.3 C10.6,-27 10.7,-26.6 10.7,-26.1 C10.7,-25.7 10.6,-25.2 10.4,-24.9 L0.3,-9.5 C0.2,-9.3 0.1,-8.9 0.1,-8.7 L0.1,-7.8 C0.1,-7.5 0.2,-7.2 0.4,-7 L11.6,6.9 C11.2,6.8 10.3,6.6 9.1,6.6 C4,6.6 0,10.8 0,15.9 C0,17.3 0.3,18.7 1.1,19.8 C3.2,23 10.7,32.5 10.7,32.5 C10.7,32.5 11.2,33.1 11.9,33.1 C12.1,33.1 12.3,33.1 12.5,32.9 C13,32.5 13.2,32.1 13.2,31.7 C13.2,31.3 13,31 12.9,30.8 C12.6,30.3 9.4,24.5 9.4,24.5 C9.4,24.5 8.7,23.1 8.7,21.3 C8.7,18.1 11.1,15.5 14.3,15.5 C15.6,15.5 16.7,15.9 17.5,16.4 L21.4,18.9 C21.4,18.9 21.8,19.1 22.2,19.1 C22.6,19.1 22.9,19 23.2,18.6 C23.4,18.3 23.5,18 23.5,17.7 C23.5,17.4 23.4,17.2 23.2,16.9 L23,16.6 "/>
<path class="Beam" fill-rule="evenodd" d="M1931.38,609.396 L2168.84,615.596 L2168.84,628.001 L1931.38,621.801 L1931.38,609.396 "/>
<path class="Beam" fill-rule="evenodd" d="M1677.87,1210.77 L1802.05,1223.17 L1802.05,1235.63 L1677.87,1223.23 L1677.87,1210.77 "/>
<path class="Beam" fill-rule="evenodd" d="M1802.05,1204.57 L1769.81,1201.35 L1769.81,1213.81 L1802.05,1217.03 L1802.05,1204.57 "/>
<path class="Beam" fill-rule="evenodd" d="M1892.69,1099.2 L1991.22,1099.2 L1991.22,1111.6 L1892.69,1111.6 L1892.69,1099.2 "/>
<path class="Beam" fill-rule="evenodd" d="M1479.06,1068.15 L1577.59,1080.55 L1577.59,1093.05 L1479.06,1080.65 L1479.06,1068.15 "/>
<path class="Beam" fill-rule="evenodd" d="M1071.89,1117.79 L1170.42,1123.99 L1170.42,1136.41 L1071.89,1130.21 L1071.89,1117.79 "/>
<path class="Beam" fill-rule="evenodd" d="M856.228,621.796 L1093.68,627.996 L1093.68,640.401 L856.228,634.201 L856.228,621.796 "/>
<path class="Beam" fill-rule="evenodd" d="M2633.15,615.58 L2714.12,609.38 L2714.12,621.817 L2633.15,628.017 L2633.15,615.58 "/>
<path class="Beam" fill-rule="evenodd" d="M651.964,1068.19 L942.106,1086.79 L942.106,1099.21 L651.964,1080.61 L651.964,1068.19 "/>
<path class="NoteDot" transform="matrix(0.992,0,0,0.992,1722.5,1117.8)" d="M0,0 C0,2.8 2.2,5 5,5 C7.8,5 10,2.8 10,0 C10,-2.8 7.8,-5 5,-5 C2.2,-5 0,-2.8 0,0"/>
<path class="NoteDot" transform="matrix(0.992,0,0,0.992,1719.49,696.198)" d="M0,0 C0,2.8 2.2,5 5,5 C7.8,5 10,2.8 10,0 C10,-2.8 7.8,-5 5,-5 C2.2,-5 0,-2.8 0,0"/>
<path class="NoteDot" transform="matrix(0.992,0,0,0.992,1221.03,696.198)" d="M0,0 C0,2.8 2.2,5 5,5 C7.8,5 10,2.8 10,0 C10,-2.8 7.8,-5 5,-5 C2.2,-5 0,-2.8 0,0"/>
<path class="NoteDot" transform="matrix(0.992,0,0,0.992,644.334,696.198)" d="M0,0 C0,2.8 2.2,5 5,5 C7.8,5 10,2.8 10,0 C10,-2.8 7.8,-5 5,-5 C2.2,-5 0,-2.8 0,0"/>
</svg>
