<?xml version="1.0" encoding="UTF-8" standalone="no"?>
<svg width="2977.2px" height="4208.4px" viewBox="0 0 2977.2 4208.4"
 xmlns="http://www.w3.org/2000/svg" xmlns:xlink="http://www.w3.org/1999/xlink" version="1.2" baseProfile="tiny">
<title>メンデルスゾーンの春の歌</title>
<desc>Generated by MuseScore Studio 4.4.1</desc>
<path class="" fill="#ffffff" fill-rule="evenodd" d="M0,0 L2977.2,0 L2977.2,4208.4 L0,4208.4 L0,0 "/>
<polyline class="StaffLines" fill="none" stroke="#000000" stroke-width="2.73" stroke-linejoin="bevel" points="212.598,634.198 2764.6,634.198"/>
<polyline class="StaffLines" fill="none" stroke="#000000" stroke-width="2.73" stroke-linejoin="bevel" points="212.598,658.998 2764.6,658.998"/>
<polyline class="StaffLines" fill="none" stroke="#000000" stroke-width="2.73" stroke-linejoin="bevel" points="212.598,683.798 2764.6,683.798"/>
<polyline class="StaffLines" fill="none" stroke="#000000" stroke-width="2.73" stroke-linejoin="bevel" points="212.598,708.598 2764.6,708.598"/>
<polyline class="StaffLines" fill="none" stroke="#000000" stroke-width="2.73" stroke-linejoin="bevel" points="212.598,733.398 2764.6,733.398"/>
<polyline class="StaffLines" fill="none" stroke="#000000" stroke-width="2.73" stroke-linejoin="bevel" points="212.598,1105.4 2764.6,1105.4"/>
<polyline class="StaffLines" fill="none" stroke="#000000" stroke-width="2.73" stroke-linejoin="bevel" points="212.598,1130.2 2764.6,1130.2"/>
<polyline class="StaffLines" fill="none" stroke="#000000" stroke-width="2.73" stroke-linejoin="bevel" points="212.598,1155 2764.6,1155"/>
<polyline class="StaffLines" fill="none" stroke="#000000" stroke-width="2.73" stroke-linejoin="bevel" points="212.598,1179.8 2764.6,1179.8"/>
<polyline class="StaffLines" fill="none" stroke="#000000" stroke-width="2.73" stroke-linejoin="bevel" points="212.598,1204.6 2764.6,1204.6"/>
<path class="Text" d="M877.672,332.608 C877.672,338.548 877.562,341.298 877.012,344.158 L884.382,344.158 L884.382,339.208 L926.622,339.208 L926.622,343.828 L934.102,343.828 C933.552,341.078 933.442,338.328 933.442,332.058 L933.442,305.548 C939.822,311.268 944.552,314.788 953.352,320.178 C955.112,317.098 955.222,316.878 957.862,314.018 C944.662,307.418 935.312,300.378 926.952,290.478 L942.572,290.478 C947.302,290.478 950.822,290.698 954.562,291.138 L954.562,283.878 C951.702,284.318 948.292,284.538 942.572,284.538 L922.442,284.538 C920.022,281.018 919.252,279.588 916.612,274.198 L932.452,274.198 C938.942,274.198 941.142,274.308 943.892,274.638 L943.892,267.928 C941.252,268.258 939.052,268.368 932.452,268.368 L902.312,268.368 C903.522,264.958 904.182,262.538 904.952,259.678 L936.412,259.678 C941.692,259.678 944.992,259.788 948.292,260.228 L948.292,253.078 C945.322,253.518 941.912,253.738 936.192,253.738 L906.382,253.738 C906.822,251.428 906.822,251.318 907.152,249.778 C907.812,246.258 908.032,245.378 908.362,244.058 L900.662,243.288 C900.662,243.838 900.662,244.278 900.662,244.608 C900.662,246.808 900.332,249.448 899.562,253.738 L875.912,253.738 C870.412,253.738 866.782,253.518 863.922,253.078 L863.922,260.228 C867.222,259.788 870.522,259.678 875.692,259.678 L898.242,259.678 C897.252,263.308 896.812,264.958 895.492,268.368 L879.432,268.368 C873.272,268.368 870.962,268.258 868.432,267.928 L868.432,274.638 C871.072,274.308 873.382,274.198 879.432,274.198 L893.072,274.198 C891.312,278.158 889.882,280.798 887.682,284.538 L869.862,284.538 C863.812,284.538 860.402,284.318 857.542,283.878 L857.542,291.138 C861.282,290.698 864.802,290.478 869.862,290.478 L883.722,290.478 C880.752,294.328 877.672,297.628 873.162,301.698 C866.892,307.308 862.602,310.278 854.462,314.678 C856.662,316.548 857.542,317.538 859.302,320.288 C867.112,315.228 871.622,311.598 877.672,305.878 L877.672,332.608 M883.282,300.158 C886.472,296.638 888.342,294.328 891.092,290.478 L919.472,290.478 C922.222,294.218 924.202,296.528 927.832,300.158 L883.282,300.158 M894.832,284.538 C897.032,280.688 898.242,278.268 900.002,274.198 L910.012,274.198 C912.542,279.478 913.422,281.238 915.402,284.538 L894.832,284.538 M884.382,305.878 L926.622,305.878 L926.622,316.108 L884.382,316.108 L884.382,305.878 M884.382,321.718 L926.622,321.718 L926.622,333.378 L884.382,333.378 L884.382,321.718 "/>
<path class="Text" d="M1021.99,263.198 C1027.49,263.418 1030.68,264.188 1034.75,265.948 C1045.86,270.898 1052.24,281.018 1052.24,293.558 C1052.24,307.088 1044.87,318.858 1032.77,324.358 C1027.6,326.778 1022.43,328.208 1014.4,329.528 C1016.49,332.168 1017.15,333.268 1018.25,336.898 C1025.84,335.248 1030.02,333.928 1034.97,331.838 C1050.92,325.018 1060.16,310.938 1060.16,293.888 C1060.16,283.328 1056.42,273.758 1049.49,267.048 C1042.34,260.008 1031.56,256.158 1019.24,256.158 C1004.5,256.158 992.512,261.108 983.712,270.788 C976.342,279.038 972.162,289.928 972.162,301.148 C972.162,316.548 979.972,327.988 990.422,327.988 C998.342,327.988 1004.83,321.388 1011.21,306.868 C1016.16,295.318 1020.34,278.488 1021.99,263.198 M1014.07,263.308 C1012.64,277.388 1008.57,293.668 1004.06,304.008 C999.332,314.788 994.932,319.958 990.312,319.958 C984.372,319.958 979.752,311.818 979.752,301.258 C979.752,287.618 986.572,275.188 997.682,268.478 C1002.74,265.398 1007.47,263.858 1014.07,263.308"/>
<path class="Text" d="M1144.75,276.178 C1145.08,277.938 1145.19,279.368 1145.19,281.018 C1145.19,288.718 1144.64,295.318 1143.32,301.918 C1140.79,314.568 1136.61,323.478 1129.13,331.948 C1126.6,334.808 1125.39,335.798 1121.98,338.108 C1122.31,336.568 1122.42,335.688 1122.42,332.718 L1122.42,299.718 C1126.38,299.828 1129.02,299.938 1131.99,300.268 L1131.99,293.118 C1129.13,293.558 1125.61,293.778 1120.88,293.778 L1085.68,293.778 C1081.5,293.778 1078.75,293.558 1075.89,293.118 L1075.89,300.268 C1078.53,299.828 1081.17,299.718 1085.79,299.718 L1115.93,299.718 L1115.93,332.608 C1115.93,335.798 1115.71,336.018 1111.42,336.018 C1109,336.018 1106.14,335.798 1102.73,335.248 C1103.5,337.778 1103.72,339.538 1103.83,341.848 C1106.8,341.958 1108.23,342.068 1110.32,342.068 C1114.61,342.068 1116.92,341.848 1119.01,341.188 C1120.44,340.748 1121.1,340.088 1121.98,338.218 C1124.07,340.308 1124.18,340.528 1126.27,344.048 C1132.1,339.318 1135.95,335.028 1139.47,329.198 C1144.97,320.288 1147.39,312.918 1148.93,300.818 C1150.58,310.278 1152.56,316.218 1156.52,323.148 C1161.03,331.178 1165.87,336.788 1174.23,343.718 C1174.56,343.168 1174.78,342.728 1174.89,342.398 C1175.66,341.298 1176.1,340.528 1176.21,340.308 C1176.65,339.648 1176.98,339.208 1178.74,337.338 C1172.69,333.048 1169.06,329.528 1165.32,324.688 C1156.74,313.358 1152.12,298.288 1152.12,281.568 C1152.12,279.258 1152.23,277.938 1152.56,276.178 L1144.75,276.178 M1116.37,255.828 L1116.37,281.788 C1116.37,283.878 1115.82,284.428 1113.4,284.428 C1111.86,284.428 1110.76,284.318 1109.11,284.098 C1108.89,282.008 1108.78,280.358 1108.78,276.508 L1108.78,269.688 C1108.78,266.168 1108.89,264.298 1109.11,262.098 C1106.91,262.318 1104.49,262.428 1100.31,262.428 L1092.17,262.428 C1087.99,262.428 1085.57,262.318 1083.26,262.098 C1083.48,264.518 1083.59,266.938 1083.59,270.788 L1083.59,277.718 C1083.59,279.368 1083.37,282.558 1083.15,284.318 C1085.46,284.098 1087.99,283.988 1090.19,283.988 L1100.64,283.988 C1103.28,283.988 1105.7,284.098 1107.57,284.208 C1108.23,285.968 1108.56,287.618 1108.78,290.038 C1110.21,290.038 1111.86,290.148 1113.07,290.148 C1120.66,290.148 1122.75,288.388 1122.75,282.008 L1122.75,255.828 C1126.82,255.938 1128.69,256.048 1130.67,256.378 L1130.67,249.448 C1127.7,249.888 1123.96,250.108 1119.12,250.108 L1087.44,250.108 C1083.04,250.108 1080.07,249.888 1077.21,249.448 L1077.21,256.378 C1079.96,255.938 1082.38,255.828 1087,255.828 L1116.37,255.828 M1089.31,267.378 L1103.17,267.378 L1103.17,279.038 L1089.31,279.038 L1089.31,267.378 M1143.87,261.878 C1145.08,257.478 1145.85,254.398 1146.51,251.208 C1147.06,248.678 1147.28,247.798 1147.83,245.928 L1140.24,244.388 C1140.24,246.918 1139.58,251.538 1138.59,255.718 C1136.17,267.048 1130.89,278.378 1125.17,285.088 C1127.7,286.738 1129.35,288.168 1130.56,289.818 C1135.29,283.218 1138.59,276.728 1141.78,267.928 L1168.73,267.928 C1165.76,277.828 1163.34,283.108 1159.16,289.488 C1161.25,290.368 1162.02,290.808 1164.99,292.788 C1168.73,286.628 1172.69,277.828 1174.45,271.558 C1175.33,268.368 1175.88,266.828 1176.54,265.398 L1172.8,261.328 C1171.04,261.768 1168.4,261.878 1163.78,261.878 L1143.87,261.878 M1088.54,334.478 L1088.54,328.538 L1100.97,328.538 C1105.59,328.538 1107.13,328.648 1109.22,328.868 C1108.89,326.668 1108.89,325.568 1108.89,321.278 L1108.89,313.688 C1108.89,309.288 1108.89,307.968 1109.22,305.878 C1107.02,306.208 1105.59,306.208 1100.31,306.208 L1091.29,306.208 C1086.12,306.208 1084.69,306.208 1082.27,305.878 C1082.6,308.518 1082.71,310.938 1082.71,314.568 L1082.71,325.348 C1082.71,329.088 1082.49,332.168 1082.05,334.478 L1088.54,334.478 M1088.54,311.378 L1103.17,311.378 L1103.17,323.368 L1088.54,323.368 L1088.54,311.378 "/>
<path class="Text" d="M1211.74,255.168 C1205.03,259.238 1201.62,262.098 1197.88,266.498 C1189.52,276.398 1185.01,289.048 1185.01,302.358 C1185.01,314.898 1188.97,326.668 1196.34,336.458 C1200.52,341.738 1204.26,345.038 1211.74,349.658 L1211.74,345.588 C1200.74,335.798 1196.34,323.588 1196.34,302.358 C1196.34,281.128 1200.74,268.918 1211.74,259.238 L1211.74,255.168 "/>
<path class="Text" d="M1293.8,250.658 C1293.25,253.848 1292.7,255.608 1289.95,262.318 C1286.1,271.888 1282.14,279.808 1276.97,287.948 C1264.65,278.928 1259.15,275.298 1248.37,268.808 L1242.87,274.638 C1252.11,279.698 1262.45,286.518 1272.46,294.548 C1260.36,310.828 1246.28,322.708 1228.68,331.288 C1231.54,333.598 1232.42,334.588 1234.4,337.888 C1253.65,326.998 1267.07,315.448 1278.62,299.608 C1289.73,308.958 1296.77,315.998 1302.6,323.478 L1308.76,316.658 C1299.96,307.528 1292.92,300.818 1283.46,293.008 C1289.07,284.428 1292.48,277.718 1299.63,260.888 C1301.17,257.258 1301.61,256.268 1303.04,254.178 L1293.8,250.658 M1344.84,264.298 C1354.41,270.128 1363.1,277.278 1371.02,285.858 L1376.74,279.038 C1368.82,271.228 1362,265.838 1350.23,258.358 L1344.84,264.298 M1345.61,335.798 C1348.36,334.918 1349.24,334.698 1352.21,334.038 C1370.58,329.858 1381.91,325.348 1393.24,317.648 C1407.76,307.638 1417.99,294.768 1426.79,275.628 C1423.71,273.538 1422.61,272.548 1420.08,269.138 C1411.17,292.458 1396.43,308.628 1375.2,318.088 C1364.97,322.818 1351.77,326.228 1343.19,326.558 L1345.61,335.798 M1524.58,288.168 C1531.51,288.168 1533.82,288.278 1537.23,288.718 L1537.23,280.578 C1533.6,281.128 1531.51,281.238 1524.47,281.238 L1460.12,281.238 C1453.19,281.238 1450.99,281.128 1447.36,280.578 L1447.36,288.718 C1450.77,288.278 1453.08,288.168 1460.01,288.168 L1489.82,288.168 C1488.94,313.248 1480.36,325.018 1457.59,332.608 C1460.23,335.138 1461.33,336.568 1462.76,339.758 C1487.62,330.078 1496.86,316.658 1498.18,288.168 L1524.58,288.168 M1458.47,261.658 C1461.55,261.218 1463.42,261.108 1471.01,261.108 L1504.45,261.108 C1511.38,261.218 1515.56,261.328 1516.99,261.438 L1516.99,253.518 C1513.14,253.958 1510.28,254.068 1504.34,254.068 L1471.12,254.068 C1463.97,254.068 1461.77,253.958 1458.47,253.298 L1458.47,261.658 M1517.43,246.698 C1520.51,250.218 1525.57,258.578 1528.1,264.518 L1533.71,261.438 C1530.63,254.948 1527.66,250.108 1522.93,244.058 L1517.43,246.698 M1530.96,242.628 C1535.03,247.798 1539.43,255.058 1541.63,260.338 L1547.24,257.258 C1543.83,250.328 1541.19,246.038 1536.46,239.878 L1530.96,242.628 M1570.66,252.308 C1570.99,254.838 1571.1,256.158 1571.1,260.118 C1571.1,283.328 1569.56,297.738 1566.15,307.308 C1562.52,317.538 1556.58,325.458 1547.56,332.608 C1550.86,334.698 1551.96,335.688 1554.16,338.548 C1564.17,328.978 1569.45,321.608 1573.19,311.378 C1577.37,300.268 1578.25,292.128 1579.13,262.318 C1579.35,255.608 1579.35,255.608 1579.79,252.858 L1570.66,252.308 M1598.05,251.538 C1598.49,254.178 1598.49,254.178 1598.49,261.328 L1597.83,325.678 C1597.83,330.408 1597.72,331.288 1597.06,333.158 L1601.46,338.218 C1602.45,337.668 1602.67,337.558 1603.99,337.008 C1605.53,336.458 1605.53,336.458 1607.51,335.688 C1614,333.158 1618.4,330.958 1623.24,327.658 C1632.7,321.168 1639.96,312.038 1645.35,299.388 C1642.38,296.968 1641.5,295.978 1639.19,293.008 C1636.55,301.478 1632.26,308.738 1626.21,315.008 C1620.49,320.838 1614.88,324.358 1605.75,327.768 L1606.41,261.328 C1606.41,256.268 1606.52,254.288 1607.07,251.648 L1598.05,251.538 M1745.77,330.188 C1733.23,316.878 1723.55,308.188 1709.14,297.188 C1715.96,288.718 1721.13,280.028 1727.29,266.388 C1728.5,263.638 1729.27,262.318 1730.37,260.998 L1725.75,256.268 C1723.88,256.928 1722.56,257.038 1718.71,257.148 L1679.44,257.588 C1677.9,257.588 1676.91,257.588 1676.58,257.588 C1672.84,257.588 1670.86,257.478 1667.89,257.038 L1668.11,265.948 C1671.3,265.398 1674.49,265.178 1679.44,265.068 L1716.18,264.518 C1717.5,264.518 1717.83,264.518 1718.82,264.408 C1718.71,264.738 1718.71,264.848 1718.49,265.178 C1718.27,265.728 1718.16,265.838 1717.94,266.498 C1709.91,285.748 1696.27,303.128 1678.67,316.108 C1670.2,322.378 1664.81,325.348 1656.34,328.758 C1659.09,331.508 1659.97,332.718 1661.73,336.018 C1669.87,331.948 1675.7,328.318 1683.29,322.818 C1691.21,316.988 1696.6,311.928 1704.3,303.128 C1718.38,314.018 1730.81,326.008 1739.5,337.118 L1745.77,330.188 M1772.5,259.678 C1778.22,268.478 1783.83,281.898 1786.91,293.778 L1795.05,290.368 C1790.98,276.728 1787.35,268.588 1780.31,256.598 L1772.5,259.678 M1837.4,264.958 C1837.29,271.118 1835.2,278.268 1830.25,289.928 C1821.89,309.728 1805.83,325.568 1785.7,333.818 C1788.34,335.798 1789.33,337.008 1791.53,340.528 C1818.92,327.218 1835.97,305.878 1844.77,273.868 C1845.21,272.108 1845.43,271.008 1845.65,270.568 C1845.87,269.578 1846.09,269.028 1846.75,267.378 L1837.4,264.958 M1835.97,247.688 C1838.83,250.548 1844.22,258.908 1846.97,264.738 L1852.47,261.438 C1849.28,255.168 1845.87,249.998 1841.47,244.718 L1835.97,247.688 M1849.28,242.958 C1853.57,247.908 1858.19,254.948 1860.5,260.228 L1866.11,257.038 C1862.37,250.108 1859.62,246.038 1854.67,239.878 L1849.28,242.958 M1870.73,298.398 C1874.03,298.068 1876.34,297.958 1884.37,297.958 L1948.17,297.958 C1955.54,297.958 1958.07,298.068 1961.59,298.398 L1961.59,289.488 C1958.18,289.928 1956.42,290.038 1948.28,290.038 L1884.37,290.038 C1876.89,290.038 1873.92,289.928 1870.73,289.378 L1870.73,298.398 M1978.41,264.298 C1987.98,270.128 1996.67,277.278 2004.59,285.858 L2010.31,279.038 C2002.39,271.228 1995.57,265.838 1983.8,258.358 L1978.41,264.298 M1979.18,335.798 C1981.93,334.918 1982.81,334.698 1985.78,334.038 C2004.15,329.858 2015.48,325.348 2026.81,317.648 C2041.33,307.638 2051.56,294.768 2060.36,275.628 C2057.28,273.538 2056.18,272.548 2053.65,269.138 C2044.74,292.458 2030,308.628 2008.77,318.088 C1998.54,322.818 1985.34,326.228 1976.76,326.558 L1979.18,335.798 "/>
<path class="Text" d="M2077.19,349.658 C2083.9,345.588 2087.31,342.728 2091.05,338.218 C2099.41,328.428 2103.92,315.778 2103.92,302.358 C2103.92,289.818 2099.96,278.048 2092.59,268.368 C2088.41,262.978 2084.67,259.788 2077.19,255.168 L2077.19,259.238 C2088.19,268.918 2092.59,281.128 2092.59,302.358 C2092.59,323.588 2088.19,335.908 2077.19,345.588 L2077.19,349.658 "/>
<path class="MeasureNumber" d="M228.053,1042.12 C227.053,1046.76 224.373,1054.72 218.653,1054.72 C217.493,1054.72 216.733,1054.24 216.733,1053.52 C216.733,1053.24 216.813,1053.12 217.133,1052.64 C217.533,1052.12 217.733,1051.64 217.733,1051.08 C217.733,1049.76 216.693,1048.76 215.333,1048.76 C213.733,1048.76 212.613,1049.96 212.613,1051.72 C212.613,1054.44 215.173,1056.4 218.733,1056.4 C227.493,1056.4 233.093,1045.2 233.093,1037.6 C233.093,1031.36 230.093,1027.64 225.133,1027.64 C219.173,1027.64 214.733,1033.12 214.733,1038.84 C214.733,1042.64 217.653,1045.52 221.533,1045.52 C224.173,1045.52 226.213,1044.44 228.053,1042.12 M225.093,1029.32 C227.653,1029.32 229.293,1031.36 229.293,1034.56 C229.293,1039.52 226.573,1043.16 222.893,1043.16 C220.373,1043.16 218.973,1041.44 218.973,1038.44 C218.973,1034.84 220.693,1029.32 225.093,1029.32"/>
<path class="TieSegment" stroke="#000000" stroke-width="1.74" stroke-linecap="round" stroke-linejoin="round" fill-rule="evenodd" d="M375.618,1222.69 C398.514,1240.81 467.201,1240.81 490.097,1222.69 C467.201,1247.75 398.514,1247.75 375.618,1222.69"/>
<path class="TieSegment" stroke="#000000" stroke-width="1.74" stroke-linecap="round" stroke-linejoin="round" fill-rule="evenodd" d="M2342.17,776.295 C2354.36,790.01 2390.93,790.01 2403.12,776.295 C2390.93,795.424 2354.36,795.424 2342.17,776.295"/>
<path class="TieSegment" stroke="#000000" stroke-width="1.74" stroke-linecap="round" stroke-linejoin="round" fill-rule="evenodd" d="M1572.35,763.895 C1591.13,780.388 1647.47,780.388 1666.25,763.895 C1647.47,787.12 1591.13,787.12 1572.35,763.895"/>
<path class="TieSegment" stroke="#000000" stroke-width="1.74" stroke-linecap="round" stroke-linejoin="round" fill-rule="evenodd" d="M414.353,751.495 C433.133,767.988 489.475,767.988 508.256,751.495 C489.475,774.72 433.133,774.72 414.353,751.495"/>
<polyline class="BarLine" fill="none" stroke="#000000" stroke-width="4.46" stroke-linejoin="bevel" points="1030.2,632.834 1030.2,734.762"/>
<polyline class="BarLine" fill="none" stroke="#000000" stroke-width="4.46" stroke-linejoin="bevel" points="2740.42,1104.03 2740.42,1205.96"/>
<polyline class="BarLine" fill="none" stroke="#000000" stroke-width="13.64" stroke-linejoin="bevel" points="2757.78,1104.03 2757.78,1205.96"/>
<polyline class="BarLine" fill="none" stroke="#000000" stroke-width="4.46" stroke-linejoin="bevel" points="2524.56,1104.03 2524.56,1205.96"/>
<polyline class="BarLine" fill="none" stroke="#000000" stroke-width="4.46" stroke-linejoin="bevel" points="2308.7,1104.03 2308.7,1205.96"/>
<polyline class="BarLine" fill="none" stroke="#000000" stroke-width="4.46" stroke-linejoin="bevel" points="1993.3,1104.03 1993.3,1205.96"/>
<polyline class="BarLine" fill="none" stroke="#000000" stroke-width="4.46" stroke-linejoin="bevel" points="1623.82,1104.03 1623.82,1205.96"/>
<polyline class="BarLine" fill="none" stroke="#000000" stroke-width="4.46" stroke-linejoin="bevel" points="1352.75,1104.03 1352.75,1205.96"/>
<polyline class="BarLine" fill="none" stroke="#000000" stroke-width="4.46" stroke-linejoin="bevel" points="1081.68,1104.03 1081.68,1205.96"/>
<polyline class="BarLine" fill="none" stroke="#000000" stroke-width="4.46" stroke-linejoin="bevel" points="726.474,1104.03 726.474,1205.96"/>
<polyline class="BarLine" fill="none" stroke="#000000" stroke-width="4.46" stroke-linejoin="bevel" points="2762.37,632.834 2762.37,734.762"/>
<polyline class="BarLine" fill="none" stroke="#000000" stroke-width="4.46" stroke-linejoin="bevel" points="2527.94,632.834 2527.94,734.762"/>
<polyline class="BarLine" fill="none" stroke="#000000" stroke-width="4.46" stroke-linejoin="bevel" points="2224.08,632.834 2224.08,734.762"/>
<polyline class="BarLine" fill="none" stroke="#000000" stroke-width="4.46" stroke-linejoin="bevel" points="1920.23,632.834 1920.23,734.762"/>
<polyline class="BarLine" fill="none" stroke="#000000" stroke-width="4.46" stroke-linejoin="bevel" points="726.343,632.834 726.343,734.762"/>
<polyline class="BarLine" fill="none" stroke="#000000" stroke-width="4.46" stroke-linejoin="bevel" points="1520.17,632.834 1520.17,734.762"/>
<polyline class="BarLine" fill="none" stroke="#000000" stroke-width="4.46" stroke-linejoin="bevel" points="1275.18,632.834 1275.18,734.762"/>
<path class="Accidental" transform="matrix(0.992,0,0,0.992,1729.04,1192.2)" d="M16.6,-18.3 C16.4,-18.5 16.1,-18.6 15.7,-18.6 L15.5,-18.5 C15.5,-18.5 15.4,-18.5 15.4,-18.5 L2.8,-15 L2.8,-32.5 L0,-32.5 L0,17 C0,18.1 0.9,18.3 1.8,18.3 L14.4,14.8 L14.4,32.3 L17.1,32.3 C17.1,15.7 17.1,-0.1 17.1,-17.2 C17.1,-17.6 16.9,-18.1 16.6,-18.3 M2.8,9.7 L2.8,-6.7 L14.4,-10 L14.4,6.5 L2.8,9.7 "/>
<path class="Accidental" transform="matrix(0.992,0,0,0.992,571.338,1192.2)" d="M23.3,-10.5 C23.9,-10.6 24.4,-11.3 24.4,-11.9 L24.4,-17.8 C24.4,-18.8 23.7,-19.2 22.8,-19.2 L19.5,-18.5 L19.5,-33.4 L16.7,-33.4 L16.7,-17.9 L7.8,-16.1 L7.8,-30.2 L5,-30.2 L5,-15.5 L1.1,-14.7 C0.5,-14.6 0,-13.9 0,-13.3 L0,-7.5 C0,-6.4 0.8,-6.1 1.7,-6.1 L5,-6.8 L5,9.7 L1.1,10.5 C0.5,10.6 0,11.3 0,11.9 L0,17.7 C0,18.8 0.8,19.1 1.7,19.1 L5,18.4 L5,33.3 L7.8,33.3 L7.8,17.8 L16.7,16 L16.7,30.1 L19.5,30.1 L19.5,15.4 L23.3,14.7 C23.9,14.6 24.4,13.9 24.4,13.3 L24.4,7.4 C24.4,6.4 23.7,6 22.8,6 L19.5,6.7 L19.5,-9.8 L23.3,-10.5 M7.8,-7.4 L16.7,-9.2 L16.7,7.3 L7.8,9.2 L7.8,-7.4 "/>
<path class="Accidental" transform="matrix(0.992,0,0,0.992,1822.24,733.398)" d="M12,-15.5 C7,-15.5 4.1,-12.4 3.6,-11.8 L4,-43.9 C4,-44.7 3.4,-45.3 2.6,-45.3 L1.4,-45.3 C0.6,-45.3 0,-44.7 0,-43.9 L0.5,16.2 C0.5,17 1.1,17.6 1.9,17.6 C2.1,17.6 2.5,17.5 2.7,17.4 C11.3,13.1 20.3,4.9 20.3,-5.4 C20.3,-10.6 17.9,-15.5 12,-15.5 M3.3,12.7 L3.6,-6.8 C3.8,-7.7 5.3,-10.6 9.3,-10.6 C12.9,-10.6 13.2,-7.2 13.2,-5.1 C13.2,3.8 9.9,7.5 3.3,12.7"/>
<path class="Accidental" transform="matrix(0.992,0,0,0.992,1694.41,758.198)" d="M23.3,-10.5 C23.9,-10.6 24.4,-11.3 24.4,-11.9 L24.4,-17.8 C24.4,-18.8 23.7,-19.2 22.8,-19.2 L19.5,-18.5 L19.5,-33.4 L16.7,-33.4 L16.7,-17.9 L7.8,-16.1 L7.8,-30.2 L5,-30.2 L5,-15.5 L1.1,-14.7 C0.5,-14.6 0,-13.9 0,-13.3 L0,-7.5 C0,-6.4 0.8,-6.1 1.7,-6.1 L5,-6.8 L5,9.7 L1.1,10.5 C0.5,10.6 0,11.3 0,11.9 L0,17.7 C0,18.8 0.8,19.1 1.7,19.1 L5,18.4 L5,33.3 L7.8,33.3 L7.8,17.8 L16.7,16 L16.7,30.1 L19.5,30.1 L19.5,15.4 L23.3,14.7 C23.9,14.6 24.4,13.9 24.4,13.3 L24.4,7.4 C24.4,6.4 23.7,6 22.8,6 L19.5,6.7 L19.5,-9.8 L23.3,-10.5 M7.8,-7.4 L16.7,-9.2 L16.7,7.3 L7.8,9.2 L7.8,-7.4 "/>
<path class="Accidental" transform="matrix(0.992,0,0,0.992,1642.17,1192.2)" d="M23.3,-10.5 C23.9,-10.6 24.4,-11.3 24.4,-11.9 L24.4,-17.8 C24.4,-18.8 23.7,-19.2 22.8,-19.2 L19.5,-18.5 L19.5,-33.4 L16.7,-33.4 L16.7,-17.9 L7.8,-16.1 L7.8,-30.2 L5,-30.2 L5,-15.5 L1.1,-14.7 C0.5,-14.6 0,-13.9 0,-13.3 L0,-7.5 C0,-6.4 0.8,-6.1 1.7,-6.1 L5,-6.8 L5,9.7 L1.1,10.5 C0.5,10.6 0,11.3 0,11.9 L0,17.7 C0,18.8 0.8,19.1 1.7,19.1 L5,18.4 L5,33.3 L7.8,33.3 L7.8,17.8 L16.7,16 L16.7,30.1 L19.5,30.1 L19.5,15.4 L23.3,14.7 C23.9,14.6 24.4,13.9 24.4,13.3 L24.4,7.4 C24.4,6.4 23.7,6 22.8,6 L19.5,6.7 L19.5,-9.8 L23.3,-10.5 M7.8,-7.4 L16.7,-9.2 L16.7,7.3 L7.8,9.2 L7.8,-7.4 "/>
<path class="Accidental" transform="matrix(0.992,0,0,0.992,580.352,720.998)" d="M23.3,-10.5 C23.9,-10.6 24.4,-11.3 24.4,-11.9 L24.4,-17.8 C24.4,-18.8 23.7,-19.2 22.8,-19.2 L19.5,-18.5 L19.5,-33.4 L16.7,-33.4 L16.7,-17.9 L7.8,-16.1 L7.8,-30.2 L5,-30.2 L5,-15.5 L1.1,-14.7 C0.5,-14.6 0,-13.9 0,-13.3 L0,-7.5 C0,-6.4 0.8,-6.1 1.7,-6.1 L5,-6.8 L5,9.7 L1.1,10.5 C0.5,10.6 0,11.3 0,11.9 L0,17.7 C0,18.8 0.8,19.1 1.7,19.1 L5,18.4 L5,33.3 L7.8,33.3 L7.8,17.8 L16.7,16 L16.7,30.1 L19.5,30.1 L19.5,15.4 L23.3,14.7 C23.9,14.6 24.4,13.9 24.4,13.3 L24.4,7.4 C24.4,6.4 23.7,6 22.8,6 L19.5,6.7 L19.5,-9.8 L23.3,-10.5 M7.8,-7.4 L16.7,-9.2 L16.7,7.3 L7.8,9.2 L7.8,-7.4 "/>
<polyline class="LedgerLine" fill="none" stroke="#000000" stroke-width="3.97" stroke-linejoin="bevel" points="2447.6,758.198 2497.19,758.198"/>
<polyline class="LedgerLine" fill="none" stroke="#000000" stroke-width="3.97" stroke-linejoin="bevel" points="2381.69,758.198 2431.28,758.198"/>
<polyline class="LedgerLine" fill="none" stroke="#000000" stroke-width="3.97" stroke-linejoin="bevel" points="2315.79,758.198 2365.37,758.198"/>
<polyline class="LedgerLine" fill="none" stroke="#000000" stroke-width="3.97" stroke-linejoin="bevel" points="2550.35,1229.4 2599.94,1229.4"/>
<polyline class="LedgerLine" fill="none" stroke="#000000" stroke-width="3.97" stroke-linejoin="bevel" points="2019.09,1229.4 2068.68,1229.4"/>
<polyline class="LedgerLine" fill="none" stroke="#000000" stroke-width="3.97" stroke-linejoin="bevel" points="1723.07,758.198 1772.65,758.198"/>
<polyline class="Stem" fill="none" stroke="#000000" stroke-width="2.73" stroke-linejoin="bevel" points="2487.14,754.23 2487.14,683.798"/>
<polyline class="Stem" fill="none" stroke="#000000" stroke-width="2.73" stroke-linejoin="bevel" points="570.308,717.03 570.308,638.664"/>
<polyline class="Stem" fill="none" stroke="#000000" stroke-width="2.73" stroke-linejoin="bevel" points="923.494,717.03 923.494,652.922"/>
<polyline class="Stem" fill="none" stroke="#000000" stroke-width="2.73" stroke-linejoin="bevel" points="1703.43,1188.23 1703.43,1111.6"/>
<polyline class="Stem" fill="none" stroke="#000000" stroke-width="2.73" stroke-linejoin="bevel" points="1762.61,754.23 1762.61,662.703"/>
<polyline class="Stem" fill="none" stroke="#000000" stroke-width="2.73" stroke-linejoin="bevel" points="1585.5,741.83 1585.5,658.998"/>
<polyline class="Stem" fill="none" stroke="#000000" stroke-width="2.73" stroke-linejoin="bevel" points="427.506,729.43 427.506,646.598"/>
<polyline class="Stem" fill="none" stroke="#000000" stroke-width="2.73" stroke-linejoin="bevel" points="1569.49,1175.83 1569.49,1093.2"/>
<polyline class="Stem" fill="none" stroke="#000000" stroke-width="2.73" stroke-linejoin="bevel" points="1812.19,741.83 1812.19,661.149"/>
<polyline class="Stem" fill="none" stroke="#000000" stroke-width="2.73" stroke-linejoin="bevel" points="1942.31,1213.03 1942.31,1136.3"/>
<polyline class="Stem" fill="none" stroke="#000000" stroke-width="2.73" stroke-linejoin="bevel" points="1879.43,729.43 1879.43,659.041"/>
<polyline class="Stem" fill="none" stroke="#000000" stroke-width="2.73" stroke-linejoin="bevel" points="1418.08,1163.43 1418.08,1086.8"/>
<polyline class="Stem" fill="none" stroke="#000000" stroke-width="2.73" stroke-linejoin="bevel" points="1465.84,717.03 1465.84,634.397"/>
<polyline class="Stem" fill="none" stroke="#000000" stroke-width="2.73" stroke-linejoin="bevel" points="1298.42,1188.23 1298.42,1105.6"/>
<polyline class="Stem" fill="none" stroke="#000000" stroke-width="2.73" stroke-linejoin="bevel" points="1147.01,1213.03 1147.01,1130.2"/>
<polyline class="Stem" fill="none" stroke="#000000" stroke-width="2.73" stroke-linejoin="bevel" points="1985.56,729.43 1985.56,640.275"/>
<polyline class="Stem" fill="none" stroke="#000000" stroke-width="2.73" stroke-linejoin="bevel" points="989.402,729.43 989.402,658.875"/>
<polyline class="Stem" fill="none" stroke="#000000" stroke-width="2.73" stroke-linejoin="bevel" points="1030.68,1200.63 1030.68,1130.1"/>
<polyline class="Stem" fill="none" stroke="#000000" stroke-width="2.73" stroke-linejoin="bevel" points="2051.47,704.63 2051.47,634.322"/>
<polyline class="Stem" fill="none" stroke="#000000" stroke-width="2.73" stroke-linejoin="bevel" points="2058.64,1225.43 2058.64,1142.6"/>
<polyline class="Stem" fill="none" stroke="#000000" stroke-width="2.73" stroke-linejoin="bevel" points="2117.38,717.03 2117.38,652.922"/>
<polyline class="Stem" fill="none" stroke="#000000" stroke-width="2.73" stroke-linejoin="bevel" points="951.058,1188.23 951.058,1124.1"/>
<polyline class="Stem" fill="none" stroke="#000000" stroke-width="2.73" stroke-linejoin="bevel" points="2374.03,1213.03 2374.03,1130.2"/>
<polyline class="Stem" fill="none" stroke="#000000" stroke-width="2.73" stroke-linejoin="bevel" points="2183.29,729.43 2183.29,658.875"/>
<polyline class="Stem" fill="none" stroke="#000000" stroke-width="2.73" stroke-linejoin="bevel" points="871.432,1175.83 871.432,1086.59"/>
<polyline class="Stem" fill="none" stroke="#000000" stroke-width="2.73" stroke-linejoin="bevel" points="685.547,704.63 685.547,634.251"/>
<polyline class="Stem" fill="none" stroke="#000000" stroke-width="2.73" stroke-linejoin="bevel" points="2589.89,1225.43 2589.89,1142.6"/>
<polyline class="Stem" fill="none" stroke="#000000" stroke-width="2.73" stroke-linejoin="bevel" points="2289.42,741.83 2289.42,677.722"/>
<polyline class="Stem" fill="none" stroke="#000000" stroke-width="2.73" stroke-linejoin="bevel" points="791.807,1138.63 791.807,1074.6"/>
<polyline class="Stem" fill="none" stroke="#000000" stroke-width="2.73" stroke-linejoin="bevel" points="1095.53,741.83 1095.53,658.998"/>
<polyline class="Stem" fill="none" stroke="#000000" stroke-width="2.73" stroke-linejoin="bevel" points="2355.33,754.23 2355.33,683.675"/>
<polyline class="Stem" fill="none" stroke="#000000" stroke-width="2.73" stroke-linejoin="bevel" points="1340.52,692.23 1340.52,615.598"/>
<polyline class="Stem" fill="none" stroke="#000000" stroke-width="2.73" stroke-linejoin="bevel" points="526.369,729.43 526.369,640.346"/>
<polyline class="Stem" fill="none" stroke="#000000" stroke-width="2.73" stroke-linejoin="bevel" points="2421.23,754.23 2421.23,683.798"/>
<polyline class="Stem" fill="none" stroke="#000000" stroke-width="2.73" stroke-linejoin="bevel" points="791.676,667.43 791.676,603.322"/>
<polyline class="Stem" fill="none" stroke="#000000" stroke-width="2.73" stroke-linejoin="bevel" points="685.678,1175.83 685.678,1105.45"/>
<polyline class="Stem" fill="none" stroke="#000000" stroke-width="2.73" stroke-linejoin="bevel" points="632.594,1188.23 632.594,1107.27"/>
<polyline class="Stem" fill="none" stroke="#000000" stroke-width="2.73" stroke-linejoin="bevel" points="561.294,1188.23 561.294,1109.73"/>
<polyline class="Stem" fill="none" stroke="#000000" stroke-width="2.73" stroke-linejoin="bevel" points="1220.86,717.03 1220.86,634.397"/>
<polyline class="Stem" fill="none" stroke="#000000" stroke-width="2.73" stroke-linejoin="bevel" points="1783.05,1188.23 1783.05,1111.6"/>
<polyline class="Stem" fill="none" stroke="#000000" stroke-width="2.73" stroke-linejoin="bevel" points="508.21,1200.63 508.21,1111.55"/>
<polyline class="Stem" fill="none" stroke="#000000" stroke-width="2.73" stroke-linejoin="bevel" points="388.771,1200.63 388.771,1117.8"/>
<polyline class="Stem" fill="none" stroke="#000000" stroke-width="2.73" stroke-linejoin="bevel" points="2178.07,1200.63 2178.07,1130.3"/>
<polyline class="Stem" fill="none" stroke="#000000" stroke-width="2.73" stroke-linejoin="bevel" points="2593.27,729.43 2593.27,646.598"/>
<polyline class="Stem" fill="none" stroke="#000000" stroke-width="2.73" stroke-linejoin="bevel" points="1684.37,741.83 1684.37,665.156"/>
<polyline class="Stem" fill="none" stroke="#000000" stroke-width="2.73" stroke-linejoin="bevel" points="2692.13,741.83 2692.13,658.998"/>
<polyline class="Stem" fill="none" stroke="#000000" stroke-width="2.73" stroke-linejoin="bevel" points="857.585,704.63 857.585,609.275"/>
<polyline class="Stem" fill="none" stroke="#000000" stroke-width="2.73" stroke-linejoin="bevel" points="641.608,717.03 641.608,635.933"/>
<polyline class="Stem" fill="none" stroke="#000000" stroke-width="2.73" stroke-linejoin="bevel" points="2257.7,1213.03 2257.7,1136.3"/>
<polyline class="Stem" fill="none" stroke="#000000" stroke-width="2.73" stroke-linejoin="bevel" points="1862.68,1200.63 1862.68,1130.3"/>
<path class="Hook" transform="matrix(0.992,0,0,0.992,1219.49,634.198)" d="M0,22.7 C0,23 0.1,23.6 0.8,23.8 C5.1,25.2 13.7,30.6 20.2,41.7 C22,44.8 24.9,49.1 24.9,57.4 C24.9,64.6 23.1,72 20.4,79.2 C20.2,79.8 20.1,80.3 20.1,80.7 C20.1,81.4 20.5,81.7 21.2,81.7 C21.8,81.7 22.3,81.3 22.7,80.6 C27.2,72.6 28.9,63.3 28.9,54.2 C28.4,41.3 21,31.8 21,31.8 C21.3,31.8 11.8,19.5 9.1,15.3 C5.4,9.6 3.7,3.9 3.5,3.5 C3.4,3.2 2.5,-0.4 2.5,-0.4 C2.4,-0.8 1.9,-1.2 1.3,-1.2 C0.6,-1.2 0,-0.6 0,0.1 L0,22.7 "/>
<path class="Hook" transform="matrix(0.992,0,0,0.992,1568.13,1093)" d="M0,22.7 C0,23 0.1,23.6 0.8,23.8 C5.1,25.2 13.7,30.6 20.2,41.7 C22,44.8 24.9,49.1 24.9,57.4 C24.9,64.6 23.1,72 20.4,79.2 C20.2,79.8 20.1,80.3 20.1,80.7 C20.1,81.4 20.5,81.7 21.2,81.7 C21.8,81.7 22.3,81.3 22.7,80.6 C27.2,72.6 28.9,63.3 28.9,54.2 C28.4,41.3 21,31.8 21,31.8 C21.3,31.8 11.8,19.5 9.1,15.3 C5.4,9.6 3.7,3.9 3.5,3.5 C3.4,3.2 2.5,-0.4 2.5,-0.4 C2.4,-0.8 1.9,-1.2 1.3,-1.2 C0.6,-1.2 0,-0.6 0,0.1 L0,22.7 "/>
<path class="Hook" transform="matrix(0.992,0,0,0.992,1297.06,1105.4)" d="M0,22.7 C0,23 0.1,23.6 0.8,23.8 C5.1,25.2 13.7,30.6 20.2,41.7 C22,44.8 24.9,49.1 24.9,57.4 C24.9,64.6 23.1,72 20.4,79.2 C20.2,79.8 20.1,80.3 20.1,80.7 C20.1,81.4 20.5,81.7 21.2,81.7 C21.8,81.7 22.3,81.3 22.7,80.6 C27.2,72.6 28.9,63.3 28.9,54.2 C28.4,41.3 21,31.8 21,31.8 C21.3,31.8 11.8,19.5 9.1,15.3 C5.4,9.6 3.7,3.9 3.5,3.5 C3.4,3.2 2.5,-0.4 2.5,-0.4 C2.4,-0.8 1.9,-1.2 1.3,-1.2 C0.6,-1.2 0,-0.6 0,0.1 L0,22.7 "/>
<path class="Hook" transform="matrix(0.992,0,0,0.992,1464.48,634.198)" d="M0,22.7 C0,23 0.1,23.6 0.8,23.8 C5.1,25.2 13.7,30.6 20.2,41.7 C22,44.8 24.9,49.1 24.9,57.4 C24.9,64.6 23.1,72 20.4,79.2 C20.2,79.8 20.1,80.3 20.1,80.7 C20.1,81.4 20.5,81.7 21.2,81.7 C21.8,81.7 22.3,81.3 22.7,80.6 C27.2,72.6 28.9,63.3 28.9,54.2 C28.4,41.3 21,31.8 21,31.8 C21.3,31.8 11.8,19.5 9.1,15.3 C5.4,9.6 3.7,3.9 3.5,3.5 C3.4,3.2 2.5,-0.4 2.5,-0.4 C2.4,-0.8 1.9,-1.2 1.3,-1.2 C0.6,-1.2 0,-0.6 0,0.1 L0,22.7 "/>
<path class="Note" transform="matrix(0.992,0,0,0.992,539.448,720.998)" d="M0,4.2 C0,8.5 3.1,13.3 11.2,13.3 C21.6,13.3 32.5,4.8 32.5,-4 C32.5,-9.9 27.5,-13.2 21.3,-13.2 C11.6,-13.2 0,-5 0,4.2"/>
<path class="Note" transform="matrix(0.992,0,0,0.992,495.509,733.398)" d="M0,4.2 C0,8.5 3.1,13.3 11.2,13.3 C21.6,13.3 32.5,4.8 32.5,-4 C32.5,-9.9 27.5,-13.2 21.3,-13.2 C11.6,-13.2 0,-5 0,4.2"/>
<path class="Note" transform="matrix(0.992,0,0,0.992,357.911,1204.6)" d="M0,4.2 C0,8.5 3.1,13.3 11.2,13.3 C21.6,13.3 32.5,4.8 32.5,-4 C32.5,-9.9 27.5,-13.2 21.3,-13.2 C11.6,-13.2 0,-5 0,4.2"/>
<path class="Note" transform="matrix(0.992,0,0,0.992,610.748,720.998)" d="M0,4.2 C0,8.5 3.1,13.3 11.2,13.3 C21.6,13.3 32.5,4.8 32.5,-4 C32.5,-9.9 27.5,-13.2 21.3,-13.2 C11.6,-13.2 0,-5 0,4.2"/>
<path class="Note" transform="matrix(0.992,0,0,0.992,477.35,1204.6)" d="M0,4.2 C0,8.5 3.1,13.3 11.2,13.3 C21.6,13.3 32.5,4.8 32.5,-4 C32.5,-9.9 27.5,-13.2 21.3,-13.2 C11.6,-13.2 0,-5 0,4.2"/>
<path class="Note" transform="matrix(0.992,0,0,0.992,2027.77,1229.4)" d="M0,4.2 C0,8.5 3.1,13.3 11.2,13.3 C21.6,13.3 32.5,4.8 32.5,-4 C32.5,-9.9 27.5,-13.2 21.3,-13.2 C11.6,-13.2 0,-5 0,4.2"/>
<path class="Note" transform="matrix(0.992,0,0,0.992,1190,720.998)" d="M0,4.2 C0,8.5 3.1,13.3 11.2,13.3 C21.6,13.3 32.5,4.8 32.5,-4 C32.5,-9.9 27.5,-13.2 21.3,-13.2 C11.6,-13.2 0,-5 0,4.2"/>
<path class="Note" transform="matrix(0.992,0,0,0.992,530.434,1192.2)" d="M0,4.2 C0,8.5 3.1,13.3 11.2,13.3 C21.6,13.3 32.5,4.8 32.5,-4 C32.5,-9.9 27.5,-13.2 21.3,-13.2 C11.6,-13.2 0,-5 0,4.2"/>
<path class="Note" transform="matrix(0.992,0,0,0.992,2226.84,1217)" d="M0,4.2 C0,8.5 3.1,13.3 11.2,13.3 C21.6,13.3 32.5,4.8 32.5,-4 C32.5,-9.9 27.5,-13.2 21.3,-13.2 C11.6,-13.2 0,-5 0,4.2"/>
<path class="Note" transform="matrix(0.992,0,0,0.992,601.734,1192.2)" d="M0,4.2 C0,8.5 3.1,13.3 11.2,13.3 C21.6,13.3 32.5,4.8 32.5,-4 C32.5,-9.9 27.5,-13.2 21.3,-13.2 C11.6,-13.2 0,-5 0,4.2"/>
<path class="Note" transform="matrix(0.992,0,0,0.992,1064.67,745.798)" d="M0,4.2 C0,8.5 3.1,13.3 11.2,13.3 C21.6,13.3 32.5,4.8 32.5,-4 C32.5,-9.9 27.5,-13.2 21.3,-13.2 C11.6,-13.2 0,-5 0,4.2"/>
<path class="Note" transform="matrix(0.992,0,0,0.992,2390.37,758.198)" d="M0,4.2 C0,8.5 3.1,13.3 11.2,13.3 C21.6,13.3 32.5,4.8 32.5,-4 C32.5,-9.9 27.5,-13.2 21.3,-13.2 C11.6,-13.2 0,-5 0,4.2"/>
<path class="Note" transform="matrix(0.992,0,0,0.992,654.818,1179.8)" d="M0,4.2 C0,8.5 3.1,13.3 11.2,13.3 C21.6,13.3 32.5,4.8 32.5,-4 C32.5,-9.9 27.5,-13.2 21.3,-13.2 C11.6,-13.2 0,-5 0,4.2"/>
<path class="Note" transform="matrix(0.992,0,0,0.992,2324.47,758.198)" d="M0,4.2 C0,8.5 3.1,13.3 11.2,13.3 C21.6,13.3 32.5,4.8 32.5,-4 C32.5,-9.9 27.5,-13.2 21.3,-13.2 C11.6,-13.2 0,-5 0,4.2"/>
<path class="Note" transform="matrix(0.992,0,0,0.992,1309.66,696.198)" d="M0,4.2 C0,8.5 3.1,13.3 11.2,13.3 C21.6,13.3 32.5,4.8 32.5,-4 C32.5,-9.9 27.5,-13.2 21.3,-13.2 C11.6,-13.2 0,-5 0,4.2"/>
<path class="Note" transform="matrix(0.992,0,0,0.992,2258.56,745.798)" d="M0,4.2 C0,8.5 3.1,13.3 11.2,13.3 C21.6,13.3 32.5,4.8 32.5,-4 C32.5,-9.9 27.5,-13.2 21.3,-13.2 C11.6,-13.2 0,-5 0,4.2"/>
<path class="Note" transform="matrix(0.992,0,0,0.992,760.946,1142.6)" d="M0,4.2 C0,8.5 3.1,13.3 11.2,13.3 C21.6,13.3 32.5,4.8 32.5,-4 C32.5,-9.9 27.5,-13.2 21.3,-13.2 C11.6,-13.2 0,-5 0,4.2"/>
<path class="Note" transform="matrix(0.992,0,0,0.992,760.815,671.398)" d="M0,4.2 C0,8.5 3.1,13.3 11.2,13.3 C21.6,13.3 32.5,4.8 32.5,-4 C32.5,-9.9 27.5,-13.2 21.3,-13.2 C11.6,-13.2 0,-5 0,4.2"/>
<path class="Note" transform="matrix(0.992,0,0,0.992,2152.43,733.398)" d="M0,4.2 C0,8.5 3.1,13.3 11.2,13.3 C21.6,13.3 32.5,4.8 32.5,-4 C32.5,-9.9 27.5,-13.2 21.3,-13.2 C11.6,-13.2 0,-5 0,4.2"/>
<path class="Note" transform="matrix(0.992,0,0,0.992,840.572,1179.8)" d="M0,4.2 C0,8.5 3.1,13.3 11.2,13.3 C21.6,13.3 32.5,4.8 32.5,-4 C32.5,-9.9 27.5,-13.2 21.3,-13.2 C11.6,-13.2 0,-5 0,4.2"/>
<path class="Note" transform="matrix(0.992,0,0,0.992,2086.52,720.998)" d="M0,4.2 C0,8.5 3.1,13.3 11.2,13.3 C21.6,13.3 32.5,4.8 32.5,-4 C32.5,-9.9 27.5,-13.2 21.3,-13.2 C11.6,-13.2 0,-5 0,4.2"/>
<path class="Note" transform="matrix(0.992,0,0,0.992,920.198,1192.2)" d="M0,4.2 C0,8.5 3.1,13.3 11.2,13.3 C21.6,13.3 32.5,4.8 32.5,-4 C32.5,-9.9 27.5,-13.2 21.3,-13.2 C11.6,-13.2 0,-5 0,4.2"/>
<path class="Note" transform="matrix(0.992,0,0,0.992,2020.61,708.598)" d="M0,4.2 C0,8.5 3.1,13.3 11.2,13.3 C21.6,13.3 32.5,4.8 32.5,-4 C32.5,-9.9 27.5,-13.2 21.3,-13.2 C11.6,-13.2 0,-5 0,4.2"/>
<path class="Note" transform="matrix(0.992,0,0,0.992,2343.17,1217)" d="M21.3,-13.2 C11.6,-13.2 0,-5.1 0,4.2 C0,8.5 3.1,13.3 11.2,13.3 C21.6,13.3 32.5,4.8 32.5,-4 C32.5,-9.9 27.5,-13.2 21.3,-13.2 M7.5,8.6 C4.2,8.6 3.5,5.9 3.5,5 C3.5,0.1 20.3,-8.5 25,-8.5 C27.4,-8.5 29,-7.1 29,-4.9 C29,0.1 12.1,8.6 7.5,8.6"/>
<path class="Note" transform="matrix(0.992,0,0,0.992,999.824,1204.6)" d="M0,4.2 C0,8.5 3.1,13.3 11.2,13.3 C21.6,13.3 32.5,4.8 32.5,-4 C32.5,-9.9 27.5,-13.2 21.3,-13.2 C11.6,-13.2 0,-5 0,4.2"/>
<path class="Note" transform="matrix(0.992,0,0,0.992,958.542,733.398)" d="M0,4.2 C0,8.5 3.1,13.3 11.2,13.3 C21.6,13.3 32.5,4.8 32.5,-4 C32.5,-9.9 27.5,-13.2 21.3,-13.2 C11.6,-13.2 0,-5 0,4.2"/>
<path class="Note" transform="matrix(0.992,0,0,0.992,1954.7,733.398)" d="M0,4.2 C0,8.5 3.1,13.3 11.2,13.3 C21.6,13.3 32.5,4.8 32.5,-4 C32.5,-9.9 27.5,-13.2 21.3,-13.2 C11.6,-13.2 0,-5 0,4.2"/>
<path class="Note" transform="matrix(0.992,0,0,0.992,2147.21,1204.6)" d="M0,4.2 C0,8.5 3.1,13.3 11.2,13.3 C21.6,13.3 32.5,4.8 32.5,-4 C32.5,-9.9 27.5,-13.2 21.3,-13.2 C11.6,-13.2 0,-5 0,4.2"/>
<path class="Note" transform="matrix(0.992,0,0,0.992,1116.15,1217)" d="M0,4.2 C0,8.5 3.1,13.3 11.2,13.3 C21.6,13.3 32.5,4.8 32.5,-4 C32.5,-9.9 27.5,-13.2 21.3,-13.2 C11.6,-13.2 0,-5 0,4.2"/>
<path class="Note" transform="matrix(0.992,0,0,0.992,1911.44,1217)" d="M0,4.2 C0,8.5 3.1,13.3 11.2,13.3 C21.6,13.3 32.5,4.8 32.5,-4 C32.5,-9.9 27.5,-13.2 21.3,-13.2 C11.6,-13.2 0,-5 0,4.2"/>
<path class="Note" transform="matrix(0.992,0,0,0.992,2562.41,733.398)" d="M0,4.2 C0,8.5 3.1,13.3 11.2,13.3 C21.6,13.3 32.5,4.8 32.5,-4 C32.5,-9.9 27.5,-13.2 21.3,-13.2 C11.6,-13.2 0,-5 0,4.2"/>
<path class="Note" transform="matrix(0.992,0,0,0.992,654.687,708.598)" d="M0,4.2 C0,8.5 3.1,13.3 11.2,13.3 C21.6,13.3 32.5,4.8 32.5,-4 C32.5,-9.9 27.5,-13.2 21.3,-13.2 C11.6,-13.2 0,-5 0,4.2"/>
<path class="Note" transform="matrix(0.992,0,0,0.992,1267.56,1192.2)" d="M0,4.2 C0,8.5 3.1,13.3 11.2,13.3 C21.6,13.3 32.5,4.8 32.5,-4 C32.5,-9.9 27.5,-13.2 21.3,-13.2 C11.6,-13.2 0,-5 0,4.2"/>
<path class="Note" transform="matrix(0.992,0,0,0.992,396.645,733.398)" d="M0,4.2 C0,8.5 3.1,13.3 11.2,13.3 C21.6,13.3 32.5,4.8 32.5,-4 C32.5,-9.9 27.5,-13.2 21.3,-13.2 C11.6,-13.2 0,-5 0,4.2"/>
<path class="Note" transform="matrix(0.992,0,0,0.992,2559.03,1229.4)" d="M21.3,-13.2 C11.6,-13.2 0,-5.1 0,4.2 C0,8.5 3.1,13.3 11.2,13.3 C21.6,13.3 32.5,4.8 32.5,-4 C32.5,-9.9 27.5,-13.2 21.3,-13.2 M7.5,8.6 C4.2,8.6 3.5,5.9 3.5,5 C3.5,0.1 20.3,-8.5 25,-8.5 C27.4,-8.5 29,-7.1 29,-4.9 C29,0.1 12.1,8.6 7.5,8.6"/>
<path class="Note" transform="matrix(0.992,0,0,0.992,1848.57,733.398)" d="M0,4.2 C0,8.5 3.1,13.3 11.2,13.3 C21.6,13.3 32.5,4.8 32.5,-4 C32.5,-9.9 27.5,-13.2 21.3,-13.2 C11.6,-13.2 0,-5 0,4.2"/>
<path class="Note" transform="matrix(0.992,0,0,0.992,1387.22,1167.4)" d="M0,4.2 C0,8.5 3.1,13.3 11.2,13.3 C21.6,13.3 32.5,4.8 32.5,-4 C32.5,-9.9 27.5,-13.2 21.3,-13.2 C11.6,-13.2 0,-5 0,4.2"/>
<path class="Note" transform="matrix(0.992,0,0,0.992,1781.33,745.798)" d="M0,4.2 C0,8.5 3.1,13.3 11.2,13.3 C21.6,13.3 32.5,4.8 32.5,-4 C32.5,-9.9 27.5,-13.2 21.3,-13.2 C11.6,-13.2 0,-5 0,4.2"/>
<path class="Note" transform="matrix(0.992,0,0,0.992,2661.27,745.798)" d="M0,4.2 C0,8.5 3.1,13.3 11.2,13.3 C21.6,13.3 32.5,4.8 32.5,-4 C32.5,-9.9 27.5,-13.2 21.3,-13.2 C11.6,-13.2 0,-5 0,4.2"/>
<path class="Note" transform="matrix(0.992,0,0,0.992,1434.98,720.998)" d="M0,4.2 C0,8.5 3.1,13.3 11.2,13.3 C21.6,13.3 32.5,4.8 32.5,-4 C32.5,-9.9 27.5,-13.2 21.3,-13.2 C11.6,-13.2 0,-5 0,4.2"/>
<path class="Note" transform="matrix(0.992,0,0,0.992,1538.63,1179.8)" d="M0,4.2 C0,8.5 3.1,13.3 11.2,13.3 C21.6,13.3 32.5,4.8 32.5,-4 C32.5,-9.9 27.5,-13.2 21.3,-13.2 C11.6,-13.2 0,-5 0,4.2"/>
<path class="Note" transform="matrix(0.992,0,0,0.992,1731.75,758.198)" d="M0,4.2 C0,8.5 3.1,13.3 11.2,13.3 C21.6,13.3 32.5,4.8 32.5,-4 C32.5,-9.9 27.5,-13.2 21.3,-13.2 C11.6,-13.2 0,-5 0,4.2"/>
<path class="Note" transform="matrix(0.992,0,0,0.992,892.633,720.998)" d="M0,4.2 C0,8.5 3.1,13.3 11.2,13.3 C21.6,13.3 32.5,4.8 32.5,-4 C32.5,-9.9 27.5,-13.2 21.3,-13.2 C11.6,-13.2 0,-5 0,4.2"/>
<path class="Note" transform="matrix(0.992,0,0,0.992,1554.64,745.798)" d="M0,4.2 C0,8.5 3.1,13.3 11.2,13.3 C21.6,13.3 32.5,4.8 32.5,-4 C32.5,-9.9 27.5,-13.2 21.3,-13.2 C11.6,-13.2 0,-5 0,4.2"/>
<path class="Note" transform="matrix(0.992,0,0,0.992,1672.57,1192.2)" d="M0,4.2 C0,8.5 3.1,13.3 11.2,13.3 C21.6,13.3 32.5,4.8 32.5,-4 C32.5,-9.9 27.5,-13.2 21.3,-13.2 C11.6,-13.2 0,-5 0,4.2"/>
<path class="Note" transform="matrix(0.992,0,0,0.992,1653.51,745.798)" d="M0,4.2 C0,8.5 3.1,13.3 11.2,13.3 C21.6,13.3 32.5,4.8 32.5,-4 C32.5,-9.9 27.5,-13.2 21.3,-13.2 C11.6,-13.2 0,-5 0,4.2"/>
<path class="Note" transform="matrix(0.992,0,0,0.992,1831.82,1204.6)" d="M0,4.2 C0,8.5 3.1,13.3 11.2,13.3 C21.6,13.3 32.5,4.8 32.5,-4 C32.5,-9.9 27.5,-13.2 21.3,-13.2 C11.6,-13.2 0,-5 0,4.2"/>
<path class="Note" transform="matrix(0.992,0,0,0.992,826.724,708.598)" d="M0,4.2 C0,8.5 3.1,13.3 11.2,13.3 C21.6,13.3 32.5,4.8 32.5,-4 C32.5,-9.9 27.5,-13.2 21.3,-13.2 C11.6,-13.2 0,-5 0,4.2"/>
<path class="Note" transform="matrix(0.992,0,0,0.992,1752.19,1192.2)" d="M0,4.2 C0,8.5 3.1,13.3 11.2,13.3 C21.6,13.3 32.5,4.8 32.5,-4 C32.5,-9.9 27.5,-13.2 21.3,-13.2 C11.6,-13.2 0,-5 0,4.2"/>
<path class="Note" transform="matrix(0.992,0,0,0.992,2456.28,758.198)" d="M0,4.2 C0,8.5 3.1,13.3 11.2,13.3 C21.6,13.3 32.5,4.8 32.5,-4 C32.5,-9.9 27.5,-13.2 21.3,-13.2 C11.6,-13.2 0,-5 0,4.2"/>
<path class="Clef" transform="matrix(0.992,0,0,0.992,232.438,1179.8)" d="M12.3,51.3 C12.3,57.9 17.3,66.6 30.8,66.6 C35.5,66.6 39.6,65.4 43.2,63.2 C48.6,59.4 50,52.8 50,46.5 C50,42.6 49.4,38.1 48.4,32.4 C48.1,30.4 47.5,27.4 46.9,23.5 C56.7,20.3 64,10.1 64,-0.2 C64,-15.3 53.3,-25.5 38.7,-25.5 C37.7,-31.5 36.7,-37.4 35.9,-43 C46.4,-54.1 53.7,-66.6 53.7,-82.5 C53.7,-91.6 50.9,-99 49.3,-102.6 C46.9,-107.7 44,-111.2 42.2,-111.2 C41.5,-111.2 38.4,-110 35.1,-106.1 C28.7,-98.5 26.9,-85.7 26.9,-77.3 C26.9,-71.9 27.4,-67 29.1,-55.8 C29,-55.7 23.8,-50.4 21.7,-48.7 C12.6,-40.3 0,-28.1 0,-8.1 C0,10.6 16.3,25.3 34.9,25.3 C37.8,25.3 40.5,25 42.8,24.6 C44.7,34.2 45.9,41.2 45.9,46.5 C45.9,56.9 40.5,62.4 30.4,62.4 C28,62.4 25.9,61.9 25.7,61.9 C25.6,61.8 25.4,61.7 25.4,61.6 C25.4,61.4 25.6,61.3 25.9,61.3 C30.6,60.5 35.3,56.5 35.3,50.1 C35.3,44.7 31.2,39 23.7,39 C16.7,39 12.3,44.7 12.3,51.3 M33.2,-82.2 C34.1,-86.2 38.7,-96.7 43.9,-96.7 C45.4,-96.7 47.8,-91.9 47.8,-84.9 C47.8,-74.5 40.1,-66.7 33.2,-59.9 C32.6,-63.9 32.1,-67.8 32.1,-72 C32.1,-75.7 32.4,-79.1 33.2,-82.2 M42,20.6 C40,21 38.1,21.2 36.2,21.2 C21.9,21.2 9.7,11.2 9.7,-3.9 C9.7,-16.1 18.3,-27 27.1,-34.6 C28.8,-36.1 30.4,-37.5 31.9,-39 C32.8,-33.6 33.5,-28.9 34.2,-24.8 C25.1,-22.1 18.9,-12.5 18.9,-3.1 C18.9,3.9 24.4,13.5 32.4,13.5 C33.2,13.5 34.1,13.1 34.1,12.2 C34.1,11.3 33.1,10.8 31.9,10 C28,7.6 25.8,5 25.8,0.1 C25.8,-6 30.4,-10.9 36.2,-12.3 L42,20.6 M56.2,2.1 C56.2,9.2 53.3,16.5 46.2,19.4 C44.1,7.4 41.4,-8.5 40.7,-12.9 C49.7,-12.9 56.2,-6.8 56.2,2.1"/>
<path class="Clef" transform="matrix(0.992,0,0,0.992,232.438,708.598)" d="M12.3,51.3 C12.3,57.9 17.3,66.6 30.8,66.6 C35.5,66.6 39.6,65.4 43.2,63.2 C48.6,59.4 50,52.8 50,46.5 C50,42.6 49.4,38.1 48.4,32.4 C48.1,30.4 47.5,27.4 46.9,23.5 C56.7,20.3 64,10.1 64,-0.2 C64,-15.3 53.3,-25.5 38.7,-25.5 C37.7,-31.5 36.7,-37.4 35.9,-43 C46.4,-54.1 53.7,-66.6 53.7,-82.5 C53.7,-91.6 50.9,-99 49.3,-102.6 C46.9,-107.7 44,-111.2 42.2,-111.2 C41.5,-111.2 38.4,-110 35.1,-106.1 C28.7,-98.5 26.9,-85.7 26.9,-77.3 C26.9,-71.9 27.4,-67 29.1,-55.8 C29,-55.7 23.8,-50.4 21.7,-48.7 C12.6,-40.3 0,-28.1 0,-8.1 C0,10.6 16.3,25.3 34.9,25.3 C37.8,25.3 40.5,25 42.8,24.6 C44.7,34.2 45.9,41.2 45.9,46.5 C45.9,56.9 40.5,62.4 30.4,62.4 C28,62.4 25.9,61.9 25.7,61.9 C25.6,61.8 25.4,61.7 25.4,61.6 C25.4,61.4 25.6,61.3 25.9,61.3 C30.6,60.5 35.3,56.5 35.3,50.1 C35.3,44.7 31.2,39 23.7,39 C16.7,39 12.3,44.7 12.3,51.3 M33.2,-82.2 C34.1,-86.2 38.7,-96.7 43.9,-96.7 C45.4,-96.7 47.8,-91.9 47.8,-84.9 C47.8,-74.5 40.1,-66.7 33.2,-59.9 C32.6,-63.9 32.1,-67.8 32.1,-72 C32.1,-75.7 32.4,-79.1 33.2,-82.2 M42,20.6 C40,21 38.1,21.2 36.2,21.2 C21.9,21.2 9.7,11.2 9.7,-3.9 C9.7,-16.1 18.3,-27 27.1,-34.6 C28.8,-36.1 30.4,-37.5 31.9,-39 C32.8,-33.6 33.5,-28.9 34.2,-24.8 C25.1,-22.1 18.9,-12.5 18.9,-3.1 C18.9,3.9 24.4,13.5 32.4,13.5 C33.2,13.5 34.1,13.1 34.1,12.2 C34.1,11.3 33.1,10.8 31.9,10 C28,7.6 25.8,5 25.8,0.1 C25.8,-6 30.4,-10.9 36.2,-12.3 L42,20.6 M56.2,2.1 C56.2,9.2 53.3,16.5 46.2,19.4 C44.1,7.4 41.4,-8.5 40.7,-12.9 C49.7,-12.9 56.2,-6.8 56.2,2.1"/>
<path class="TimeSig" transform="matrix(0.992,0,0,0.992,322.602,659.494)" d="M34.2,3.9 C33.4,6.1 31.4,13.3 26.5,13.3 C20,13.3 18.6,9.3 13.2,9.3 C12.4,9.3 11.6,9.4 10.6,9.6 C10.6,9.6 13.1,5.8 23.7,2.5 C34.3,-0.8 37,-6 37,-12 C37,-16.2 35.1,-24.5 20,-24.5 C4.9,-24.5 2.1,-15.4 2.1,-10.8 C2.1,-6.7 5.5,-3.4 9.6,-3.4 C13.7,-3.4 17,-6.7 17,-10.8 C17,-13.6 15,-16.7 12.4,-17.7 C12.1,-17.8 11.7,-18.3 11.7,-18.8 C11.7,-19.4 12.2,-20.1 14,-20.6 C14.5,-20.8 15.9,-21.1 17.4,-21.1 C23.1,-21.1 24.2,-17.6 24.2,-12.5 C24.2,-0.8 10.3,1.7 4.5,10.4 C4.5,10.4 1.5,14.6 1.5,19.3 C1.5,24 3.9,24.3 5.1,24.3 C6.7,24.3 8.4,23 8.4,21.2 C8.4,20.8 8.3,20.4 8.1,19.9 C7.5,18.5 7.3,17.4 7.3,16.6 C7.3,16.3 7.3,16 7.4,15.7 C7.5,15.1 8.3,14.1 10.7,14.1 C13.6,14.1 14.7,17.5 16.5,20.1 C18.3,22.7 21.1,24.3 24.3,24.3 C27.5,24.3 31.8,22 33.6,18.3 C35.4,14.6 37.7,7.1 37.7,4.4 C37.7,3.1 36.9,2.5 36,2.5 C35.3,2.5 34.6,2.9 34.2,3.9"/>
<path class="TimeSig" transform="matrix(0.992,0,0,0.992,319.331,708.598)" d="M20.8,12.7 L20.8,20.1 L12.5,20.1 C11.8,20.1 11.1,20.7 11.1,21.5 L11.1,23.4 C11.1,24.2 11.8,24.8 12.5,24.8 L42.8,24.8 C43.6,24.8 44.2,24.2 44.2,23.4 L44.2,21.5 C44.2,20.7 43.6,20.1 42.8,20.1 L33.9,20.1 L33.9,12.7 L42.8,12.7 C43.6,12.7 44.2,12 44.2,11.2 L44.2,9.3 C44.2,8.6 43.6,7.9 42.8,7.9 L33.9,7.9 L33.9,-8 C33.9,-8.6 33.6,-9.1 33.1,-9.3 L31.9,-9.9 C31.7,-10 31.4,-10.1 31.2,-10.1 C30.9,-10 30.5,-9.9 30.3,-9.7 L21.2,-1.4 C20.9,-1.1 20.8,-0.7 20.8,-0.3 L20.8,7.9 L9.3,7.9 C9.3,7.9 20.4,-4.1 32.2,-19.9 C32.6,-20.4 32.7,-20.9 32.7,-21.3 C32.7,-21.8 32.5,-22.2 32.4,-22.3 L30.2,-24.5 C30,-24.7 29.6,-24.9 29.2,-24.9 C28.6,-24.9 15.1,-24.9 14.4,-24.9 C13.6,-24.9 13.1,-24.3 13,-23.7 C13,-23.7 12.5,-16.3 9.9,-8.2 C7.3,-0.1 4.3,4.9 1.7,8.6 C1.7,8.6 1.4,9.1 1.4,9.7 C1.4,9.9 1.4,10.1 1.5,10.3 C1.9,11 2.5,12.1 2.5,12.1 C2.5,12.1 2.7,12.7 3.6,12.7 L20.8,12.7 "/>
<path class="Beam" fill-rule="evenodd" d="M1702.06,1105.4 L1784.42,1105.4 L1784.42,1117.8 L1702.06,1117.8 L1702.06,1105.4 "/>
<path class="Beam" fill-rule="evenodd" d="M949.694,1117.78 L1032.05,1123.98 L1032.05,1136.42 L949.694,1130.22 L949.694,1117.78 "/>
<path class="Beam" fill-rule="evenodd" d="M790.443,1068.13 L872.796,1080.53 L872.796,1093.07 L790.443,1080.67 L790.443,1068.13 "/>
<path class="Beam" fill-rule="evenodd" d="M506.846,1105.39 L687.042,1099.19 L687.042,1111.6 L506.846,1117.8 L506.846,1105.39 "/>
<path class="Beam" fill-rule="evenodd" d="M506.846,1123.99 L687.042,1117.79 L687.042,1130.2 L506.846,1136.4 L506.846,1123.99 "/>
<path class="Beam" fill-rule="evenodd" d="M790.312,596.973 L858.949,603.173 L858.949,615.624 L790.312,609.424 L790.312,596.973 "/>
<path class="Beam" fill-rule="evenodd" d="M2176.71,1123.98 L2259.06,1130.18 L2259.06,1142.62 L2176.71,1136.42 L2176.71,1123.98 "/>
<path class="Beam" fill-rule="evenodd" d="M525.005,634.194 L686.911,627.994 L686.911,640.403 L525.005,646.603 L525.005,634.194 "/>
<path class="Beam" fill-rule="evenodd" d="M525.005,652.794 L686.911,646.594 L686.911,659.003 L525.005,665.203 L525.005,652.794 "/>
<path class="Beam" fill-rule="evenodd" d="M2419.87,677.598 L2488.51,677.598 L2488.51,689.998 L2419.87,689.998 L2419.87,677.598 "/>
<path class="Beam" fill-rule="evenodd" d="M2288.05,671.373 L2356.69,677.573 L2356.69,690.024 L2288.05,683.824 L2288.05,671.373 "/>
<path class="Beam" fill-rule="evenodd" d="M2116.02,646.573 L2184.65,652.773 L2184.65,665.224 L2116.02,659.024 L2116.02,646.573 "/>
<path class="Beam" fill-rule="evenodd" d="M1984.2,634.173 L2052.83,627.973 L2052.83,640.424 L1984.2,646.624 L1984.2,634.173 "/>
<path class="Beam" fill-rule="evenodd" d="M1861.32,1123.98 L1943.67,1130.18 L1943.67,1142.62 L1861.32,1136.42 L1861.32,1123.98 "/>
<path class="Beam" fill-rule="evenodd" d="M1683,658.995 L1880.8,652.795 L1880.8,665.201 L1683,671.401 L1683,658.995 "/>
<path class="Beam" fill-rule="evenodd" d="M1683,677.595 L1880.8,671.395 L1880.8,683.801 L1683,690.001 L1683,677.595 "/>
<path class="Beam" fill-rule="evenodd" d="M922.13,646.573 L990.766,652.773 L990.766,665.224 L922.13,659.024 L922.13,646.573 "/>
<path class="NoteDot" transform="matrix(0.992,0,0,0.992,1160.78,1217)" d="M0,0 C0,2.8 2.2,5 5,5 C7.8,5 10,2.8 10,0 C10,-2.8 7.8,-5 5,-5 C2.2,-5 0,-2.8 0,0"/>
<path class="NoteDot" transform="matrix(0.992,0,0,0.992,1431.85,1167.4)" d="M0,0 C0,2.8 2.2,5 5,5 C7.8,5 10,2.8 10,0 C10,-2.8 7.8,-5 5,-5 C2.2,-5 0,-2.8 0,0"/>
<path class="NoteDot" transform="matrix(0.992,0,0,0.992,1354.28,696.198)" d="M0,0 C0,2.8 2.2,5 5,5 C7.8,5 10,2.8 10,0 C10,-2.8 7.8,-5 5,-5 C2.2,-5 0,-2.8 0,0"/>
<path class="NoteDot" transform="matrix(0.992,0,0,0.992,1109.29,745.798)" d="M0,0 C0,2.8 2.2,5 5,5 C7.8,5 10,2.8 10,0 C10,-2.8 7.8,-5 5,-5 C2.2,-5 0,-2.8 0,0"/>
</svg>
