<?xml version="1.0" encoding="UTF-8" standalone="no"?>
<svg width="2977.2px" height="4208.4px" viewBox="0 0 2977.2 4208.4"
 xmlns="http://www.w3.org/2000/svg" xmlns:xlink="http://www.w3.org/1999/xlink" version="1.2" baseProfile="tiny">
<title>ロンドン橋</title>
<desc>Generated by MuseScore Studio 4.4.2</desc>
<path class="" fill="#ffffff" fill-rule="evenodd" d="M0,0 L2977.2,0 L2977.2,4208.4 L0,4208.4 L0,0 "/>
<polyline class="StaffLines" fill="none" stroke="#000000" stroke-width="2.73" stroke-linejoin="bevel" points="212.598,634.198 2764.6,634.198"/>
<polyline class="StaffLines" fill="none" stroke="#000000" stroke-width="2.73" stroke-linejoin="bevel" points="212.598,658.998 2764.6,658.998"/>
<polyline class="StaffLines" fill="none" stroke="#000000" stroke-width="2.73" stroke-linejoin="bevel" points="212.598,683.798 2764.6,683.798"/>
<polyline class="StaffLines" fill="none" stroke="#000000" stroke-width="2.73" stroke-linejoin="bevel" points="212.598,708.598 2764.6,708.598"/>
<polyline class="StaffLines" fill="none" stroke="#000000" stroke-width="2.73" stroke-linejoin="bevel" points="212.598,733.398 2764.6,733.398"/>
<polyline class="StaffLines" fill="none" stroke="#000000" stroke-width="2.73" stroke-linejoin="bevel" points="212.598,1105.4 2764.6,1105.4"/>
<polyline class="StaffLines" fill="none" stroke="#000000" stroke-width="2.73" stroke-linejoin="bevel" points="212.598,1130.2 2764.6,1130.2"/>
<polyline class="StaffLines" fill="none" stroke="#000000" stroke-width="2.73" stroke-linejoin="bevel" points="212.598,1155 2764.6,1155"/>
<polyline class="StaffLines" fill="none" stroke="#000000" stroke-width="2.73" stroke-linejoin="bevel" points="212.598,1179.8 2764.6,1179.8"/>
<polyline class="StaffLines" fill="none" stroke="#000000" stroke-width="2.73" stroke-linejoin="bevel" points="212.598,1204.6 2764.6,1204.6"/>
<path class="Text" d="M1284.61,295.313 L1284.61,303.123 L1292.97,303.123 C1292.75,300.813 1292.64,297.953 1292.64,294.653 L1292.64,235.143 C1292.64,230.633 1292.64,229.203 1292.97,226.563 C1290.44,226.893 1289.12,226.893 1284.39,226.893 L1225.76,226.893 C1221.47,226.893 1219.38,226.783 1217.18,226.563 C1217.51,229.203 1217.62,230.633 1217.62,235.143 L1217.62,294.873 C1217.62,298.503 1217.51,300.703 1217.18,303.123 L1225.65,303.123 L1225.65,295.313 L1284.61,295.313 M1284.61,288.163 L1225.65,288.163 L1225.65,234.153 L1284.61,234.153 L1284.61,288.163 M1327.29,232.503 C1336.86,238.333 1345.55,245.483 1353.47,254.063 L1359.19,247.243 C1351.27,239.433 1344.45,234.043 1332.68,226.563 L1327.29,232.503 M1328.06,304.003 C1330.81,303.123 1331.69,302.903 1334.66,302.243 C1353.03,298.063 1364.36,293.553 1375.69,285.853 C1390.21,275.843 1400.44,262.973 1409.24,243.833 C1406.16,241.743 1405.06,240.753 1402.53,237.343 C1393.62,260.663 1378.88,276.833 1357.65,286.293 C1347.42,291.023 1334.22,294.433 1325.64,294.763 L1328.06,304.003 M1462.15,307.743 C1461.71,305.103 1461.6,302.683 1461.6,296.083 L1461.6,262.973 C1461.6,260.223 1461.49,258.463 1461.16,256.483 L1461.38,256.373 C1462.37,257.143 1463.25,257.583 1464.79,258.243 C1480.3,264.733 1497.57,273.863 1505.82,280.023 L1510.55,271.883 C1492.51,261.433 1477.33,254.283 1461.6,248.673 L1461.6,228.103 C1461.6,221.283 1461.71,219.193 1462.15,216.663 L1452.69,216.663 C1453.13,219.083 1453.24,220.953 1453.35,227.883 L1453.35,296.193 C1453.24,302.903 1453.13,305.213 1452.69,307.743 L1462.15,307.743 M1489.43,223.923 C1492.73,227.333 1498.01,235.583 1500.76,241.413 L1506.26,238.113 C1502.96,231.623 1499.88,227.003 1494.93,221.063 L1489.43,223.923 M1501.97,217.983 C1506.26,223.043 1510.88,230.083 1513.19,235.363 L1518.69,232.173 C1515.06,225.243 1512.31,221.173 1507.36,215.013 L1501.97,217.983 M1547.29,232.503 C1556.86,238.333 1565.55,245.483 1573.47,254.063 L1579.19,247.243 C1571.27,239.433 1564.45,234.043 1552.68,226.563 L1547.29,232.503 M1548.06,304.003 C1550.81,303.123 1551.69,302.903 1554.66,302.243 C1573.03,298.063 1584.36,293.553 1595.69,285.853 C1610.21,275.843 1620.44,262.973 1629.24,243.833 C1626.16,241.743 1625.06,240.753 1622.53,237.343 C1613.62,260.663 1598.88,276.833 1577.65,286.293 C1567.42,291.023 1554.22,294.433 1545.64,294.763 L1548.06,304.003 "/>
<path class="Text" d="M1705.47,230.853 C1707.12,227.993 1707.78,226.783 1709.54,222.713 C1718.78,221.723 1726.15,220.623 1731.76,219.413 C1734.73,218.643 1735.17,218.533 1737.04,218.203 L1732.42,212.593 C1723.84,216.003 1701.84,218.863 1683.69,218.863 C1682.7,218.863 1680.94,218.863 1678.74,218.753 C1680.06,220.733 1680.83,222.273 1681.49,224.583 C1687.54,224.363 1694.36,223.923 1702.72,223.373 C1701.29,226.783 1700.63,227.993 1698.87,230.853 L1687.1,230.853 C1682.81,230.853 1680.06,230.633 1677.2,230.193 L1677.2,236.903 C1679.62,236.463 1682.37,236.353 1686.66,236.353 L1694.8,236.353 C1689.41,242.513 1683.14,246.913 1674.56,250.433 C1676.65,252.523 1677.53,253.513 1678.63,255.273 C1683.47,252.853 1685.78,251.423 1689.85,248.343 L1689.85,255.273 C1689.85,257.583 1689.74,259.673 1689.74,260.553 C1689.63,261.873 1689.63,261.873 1689.63,262.533 C1691.61,262.423 1693.92,262.313 1697.11,262.313 L1719.77,262.313 C1722.96,262.313 1725.27,262.423 1727.25,262.533 C1727.14,260.113 1727.03,257.693 1727.03,255.273 L1727.03,247.683 C1732.42,250.983 1735.17,252.413 1741.66,254.833 C1742.87,252.633 1744.3,250.653 1745.73,249.223 C1735.06,246.473 1726.37,241.963 1721.31,236.353 L1732.09,236.353 C1735.94,236.353 1739.9,236.573 1743.2,236.903 L1743.2,230.193 C1740.56,230.633 1736.38,230.853 1731.87,230.853 L1705.47,230.853 M1713.94,236.353 C1716.36,239.323 1718.56,241.413 1722.19,244.273 L1694.69,244.273 C1697.66,241.523 1699.53,239.433 1701.73,236.353 L1713.94,236.353 M1695.68,249.333 L1721.2,249.333 L1721.2,257.253 L1695.68,257.253 L1695.68,249.333 M1659.27,234.153 L1653.22,234.153 C1649.7,234.153 1647.72,234.043 1645.63,233.713 L1645.63,240.533 C1647.5,240.203 1649.92,240.093 1653.22,240.093 L1658.39,240.093 C1657.62,244.273 1656.41,249.223 1654.65,254.613 C1651.46,264.513 1647.94,271.663 1642.88,278.593 C1645.08,280.903 1645.63,281.563 1647.28,284.533 C1653.66,274.853 1656.74,266.493 1660.26,250.213 C1659.38,262.203 1659.27,263.853 1659.27,269.243 L1659.27,300.043 C1659.27,305.983 1659.05,309.503 1658.61,312.803 L1666.42,312.803 C1665.98,309.723 1665.76,305.983 1665.76,300.043 L1665.76,267.263 C1665.76,262.973 1665.65,259.453 1665.32,249.553 C1667.85,256.263 1670.05,260.443 1674.23,266.163 C1675.88,263.523 1676.65,262.533 1678.3,260.773 C1671.92,253.953 1668.18,247.573 1666.09,240.093 L1668.18,240.093 C1670.82,240.093 1672.91,240.203 1675.22,240.423 L1675.22,233.713 C1673.13,234.043 1671.26,234.153 1668.07,234.153 L1665.76,234.153 L1665.76,223.923 C1665.76,218.533 1665.87,215.453 1666.31,212.703 L1658.72,212.703 C1659.16,215.343 1659.27,217.763 1659.27,224.033 L1659.27,234.153 M1693.7,296.083 C1693.7,299.603 1693.59,302.463 1693.37,304.333 L1699.31,304.333 L1699.31,298.833 L1717.13,298.833 C1720.32,298.833 1721.75,298.833 1723.51,299.053 C1723.29,297.403 1723.29,296.633 1723.29,292.233 L1723.29,286.623 C1723.29,282.333 1723.29,280.903 1723.62,279.253 C1722.19,279.473 1720.54,279.583 1716.47,279.583 L1700.63,279.583 C1696.45,279.583 1694.69,279.473 1693.37,279.253 C1693.59,281.343 1693.7,283.543 1693.7,286.733 L1693.7,296.083 M1699.42,284.753 L1717.57,284.753 L1717.57,293.663 L1699.42,293.663 L1699.42,284.753 M1684.79,312.583 C1684.35,310.053 1684.24,306.643 1684.24,300.373 L1684.24,273.643 L1733.63,273.643 L1733.63,302.683 C1733.63,304.993 1733.08,305.433 1730.33,305.433 C1726.7,305.433 1723.84,305.213 1718.34,304.553 C1719.33,307.413 1719.55,308.513 1719.88,311.373 C1725.16,311.593 1726.37,311.593 1729.67,311.593 C1738.14,311.593 1740.12,310.273 1740.12,304.443 L1740.12,277.713 C1740.12,273.753 1740.23,270.123 1740.56,267.483 C1738.36,267.923 1735.39,268.033 1730.11,268.033 L1687.1,268.033 C1682.37,268.033 1679.84,267.923 1677.42,267.593 C1677.64,270.233 1677.75,272.543 1677.75,277.493 L1677.75,300.263 C1677.75,305.433 1677.53,309.943 1677.2,312.583 L1684.79,312.583 "/>
<path class="MeasureNumber" d="M226.277,1041.24 C228.157,1040.64 228.917,1040.32 229.877,1039.68 C231.757,1038.44 232.917,1036.24 232.917,1034 C232.917,1030.2 229.877,1027.64 225.397,1027.64 C221.037,1027.64 217.357,1030.36 217.357,1033.64 C217.357,1035.28 218.357,1036.4 219.877,1036.4 C221.197,1036.4 222.157,1035.44 222.157,1034.12 C222.157,1033.44 221.957,1032.96 221.317,1032.32 C220.917,1031.96 220.757,1031.68 220.757,1031.4 C220.757,1030.44 222.757,1029.44 224.637,1029.44 C227.317,1029.44 228.917,1030.92 228.917,1033.4 C228.917,1036.96 226.397,1040.32 223.717,1040.32 C223.597,1040.32 223.237,1040.28 222.797,1040.24 C221.637,1040.16 221.637,1040.16 221.397,1040.16 C220.517,1040.16 220.037,1040.56 220.037,1041.28 C220.037,1041.92 220.477,1042.32 221.197,1042.32 C221.397,1042.32 221.677,1042.28 221.997,1042.24 C222.557,1042.12 223.157,1042.08 223.517,1042.08 C225.397,1042.08 226.677,1043.76 226.677,1046.24 C226.677,1050.56 224.557,1054.72 219.717,1054.72 C217.477,1054.72 215.557,1053.6 215.557,1052.32 C215.557,1051.88 215.717,1051.72 216.357,1051.44 C217.517,1050.92 217.997,1050.2 217.997,1049.12 C217.997,1047.72 216.877,1046.64 215.437,1046.64 C213.717,1046.64 212.597,1048 212.597,1050.08 C212.597,1053.96 215.557,1056.4 220.357,1056.4 C226.397,1056.4 230.997,1052.36 230.997,1047 C230.997,1043.88 229.077,1042.12 226.277,1041.24"/>
<path class="TieSegment" stroke="#000000" stroke-width="1.74" stroke-linecap="round" stroke-linejoin="round" fill-rule="evenodd" d="M2335.43,1247.49 C2368.07,1269.04 2466.01,1269.04 2498.66,1247.49 C2466.01,1275.98 2368.07,1275.98 2335.43,1247.49"/>
<polyline class="BarLine" fill="none" stroke="#000000" stroke-width="4.46" stroke-linejoin="bevel" points="2740.42,1104.03 2740.42,1205.96"/>
<polyline class="BarLine" fill="none" stroke="#000000" stroke-width="13.64" stroke-linejoin="bevel" points="2757.78,1104.03 2757.78,1205.96"/>
<polyline class="BarLine" fill="none" stroke="#000000" stroke-width="4.46" stroke-linejoin="bevel" points="2762.37,632.834 2762.37,734.762"/>
<polyline class="BarLine" fill="none" stroke="#000000" stroke-width="4.46" stroke-linejoin="bevel" points="1610.5,1104.03 1610.5,1205.96"/>
<polyline class="BarLine" fill="none" stroke="#000000" stroke-width="4.46" stroke-linejoin="bevel" points="1597.28,632.834 1597.28,734.762"/>
<polyline class="LedgerLine" fill="none" stroke="#000000" stroke-width="3.97" stroke-linejoin="bevel" points="2477.23,1229.4 2526.81,1229.4"/>
<polyline class="LedgerLine" fill="none" stroke="#000000" stroke-width="3.97" stroke-linejoin="bevel" points="2309.04,1229.4 2358.63,1229.4"/>
<polyline class="Stem" fill="none" stroke="#000000" stroke-width="2.73" stroke-linejoin="bevel" points="1985.01,717.03 1985.01,634.198"/>
<polyline class="Stem" fill="none" stroke="#000000" stroke-width="2.73" stroke-linejoin="bevel" points="2226.8,729.43 2226.8,658.947"/>
<polyline class="Stem" fill="none" stroke="#000000" stroke-width="2.73" stroke-linejoin="bevel" points="882.289,1188.23 882.289,1111.55"/>
<polyline class="Stem" fill="none" stroke="#000000" stroke-width="2.73" stroke-linejoin="bevel" points="1928.12,1175.83 1928.12,1093"/>
<polyline class="Stem" fill="none" stroke="#000000" stroke-width="2.73" stroke-linejoin="bevel" points="1050.48,1200.63 1050.48,1130.15"/>
<polyline class="Stem" fill="none" stroke="#000000" stroke-width="2.73" stroke-linejoin="bevel" points="900.516,717.03 900.516,640.347"/>
<polyline class="Stem" fill="none" stroke="#000000" stroke-width="2.73" stroke-linejoin="bevel" points="714.102,1175.83 714.102,1105.45"/>
<polyline class="Stem" fill="none" stroke="#000000" stroke-width="2.73" stroke-linejoin="bevel" points="1061.71,729.43 1061.71,658.947"/>
<polyline class="Stem" fill="none" stroke="#000000" stroke-width="2.73" stroke-linejoin="bevel" points="601.977,1163.43 601.977,1086.84"/>
<polyline class="Stem" fill="none" stroke="#000000" stroke-width="2.73" stroke-linejoin="bevel" points="2180.4,1200.63 2180.4,1130.25"/>
<polyline class="Stem" fill="none" stroke="#000000" stroke-width="2.73" stroke-linejoin="bevel" points="2516.77,1225.43 2516.77,1142.6"/>
<polyline class="Stem" fill="none" stroke="#000000" stroke-width="2.73" stroke-linejoin="bevel" points="1222.91,717.03 1222.91,652.85"/>
<polyline class="Stem" fill="none" stroke="#000000" stroke-width="2.73" stroke-linejoin="bevel" points="388.771,1175.83 388.771,1092.96"/>
<polyline class="Stem" fill="none" stroke="#000000" stroke-width="2.73" stroke-linejoin="bevel" points="1384.11,704.63 1384.11,621.798"/>
<polyline class="Stem" fill="none" stroke="#000000" stroke-width="2.73" stroke-linejoin="bevel" points="631.852,692.23 631.852,615.639"/>
<polyline class="Stem" fill="none" stroke="#000000" stroke-width="2.73" stroke-linejoin="bevel" points="1218.66,1188.23 1218.66,1124.05"/>
<polyline class="Stem" fill="none" stroke="#000000" stroke-width="2.73" stroke-linejoin="bevel" points="427.506,704.63 427.506,621.758"/>
<polyline class="Stem" fill="none" stroke="#000000" stroke-width="2.73" stroke-linejoin="bevel" points="1386.85,1175.83 1386.85,1093"/>
<polyline class="Stem" fill="none" stroke="#000000" stroke-width="2.73" stroke-linejoin="bevel" points="1675.83,1213.03 1675.83,1130.2"/>
<polyline class="Stem" fill="none" stroke="#000000" stroke-width="2.73" stroke-linejoin="bevel" points="1662.61,741.83 1662.61,665.147"/>
<polyline class="Stem" fill="none" stroke="#000000" stroke-width="2.73" stroke-linejoin="bevel" points="2549.2,704.63 2549.2,621.798"/>
<polyline class="Stem" fill="none" stroke="#000000" stroke-width="2.73" stroke-linejoin="bevel" points="2388,717.03 2388,652.85"/>
<polyline class="Stem" fill="none" stroke="#000000" stroke-width="2.73" stroke-linejoin="bevel" points="2348.58,1225.43 2348.58,1136.35"/>
<polyline class="Stem" fill="none" stroke="#000000" stroke-width="2.73" stroke-linejoin="bevel" points="1823.81,729.43 1823.81,659.05"/>
<polyline class="Stem" fill="none" stroke="#000000" stroke-width="2.73" stroke-linejoin="bevel" points="739.318,704.63 739.318,634.25"/>
<path class="Note" transform="matrix(0.992,0,0,0.992,1954.15,720.998)" d="M0,4.2 C0,8.5 3.1,13.3 11.2,13.3 C21.6,13.3 32.5,4.8 32.5,-4 C32.5,-9.9 27.5,-13.2 21.3,-13.2 C11.6,-13.2 0,-5 0,4.2"/>
<path class="Note" transform="matrix(0.992,0,0,0.992,869.655,720.998)" d="M0,4.2 C0,8.5 3.1,13.3 11.2,13.3 C21.6,13.3 32.5,4.8 32.5,-4 C32.5,-9.9 27.5,-13.2 21.3,-13.2 C11.6,-13.2 0,-5 0,4.2"/>
<path class="Note" transform="matrix(0.992,0,0,0.992,1355.99,1179.8)" d="M0,4.2 C0,8.5 3.1,13.3 11.2,13.3 C21.6,13.3 32.5,4.8 32.5,-4 C32.5,-9.9 27.5,-13.2 21.3,-13.2 C11.6,-13.2 0,-5 0,4.2"/>
<path class="Note" transform="matrix(0.992,0,0,0.992,1792.95,733.398)" d="M0,4.2 C0,8.5 3.1,13.3 11.2,13.3 C21.6,13.3 32.5,4.8 32.5,-4 C32.5,-9.9 27.5,-13.2 21.3,-13.2 C11.6,-13.2 0,-5 0,4.2"/>
<path class="Note" transform="matrix(0.992,0,0,0.992,2195.94,733.398)" d="M0,4.2 C0,8.5 3.1,13.3 11.2,13.3 C21.6,13.3 32.5,4.8 32.5,-4 C32.5,-9.9 27.5,-13.2 21.3,-13.2 C11.6,-13.2 0,-5 0,4.2"/>
<path class="Note" transform="matrix(0.992,0,0,0.992,396.645,708.598)" d="M0,4.2 C0,8.5 3.1,13.3 11.2,13.3 C21.6,13.3 32.5,4.8 32.5,-4 C32.5,-9.9 27.5,-13.2 21.3,-13.2 C11.6,-13.2 0,-5 0,4.2"/>
<path class="Note" transform="matrix(0.992,0,0,0.992,2149.54,1204.6)" d="M0,4.2 C0,8.5 3.1,13.3 11.2,13.3 C21.6,13.3 32.5,4.8 32.5,-4 C32.5,-9.9 27.5,-13.2 21.3,-13.2 C11.6,-13.2 0,-5 0,4.2"/>
<path class="Note" transform="matrix(0.992,0,0,0.992,1187.8,1192.2)" d="M0,4.2 C0,8.5 3.1,13.3 11.2,13.3 C21.6,13.3 32.5,4.8 32.5,-4 C32.5,-9.9 27.5,-13.2 21.3,-13.2 C11.6,-13.2 0,-5 0,4.2"/>
<path class="Note" transform="matrix(0.992,0,0,0.992,2357.14,720.998)" d="M0,4.2 C0,8.5 3.1,13.3 11.2,13.3 C21.6,13.3 32.5,4.8 32.5,-4 C32.5,-9.9 27.5,-13.2 21.3,-13.2 C11.6,-13.2 0,-5 0,4.2"/>
<path class="Note" transform="matrix(0.992,0,0,0.992,1631.75,745.798)" d="M0,4.2 C0,8.5 3.1,13.3 11.2,13.3 C21.6,13.3 32.5,4.8 32.5,-4 C32.5,-9.9 27.5,-13.2 21.3,-13.2 C11.6,-13.2 0,-5 0,4.2"/>
<path class="Note" transform="matrix(0.992,0,0,0.992,2518.34,708.598)" d="M0,4.2 C0,8.5 3.1,13.3 11.2,13.3 C21.6,13.3 32.5,4.8 32.5,-4 C32.5,-9.9 27.5,-13.2 21.3,-13.2 C11.6,-13.2 0,-5 0,4.2"/>
<path class="Note" transform="matrix(0.992,0,0,0.992,708.457,708.598)" d="M0,4.2 C0,8.5 3.1,13.3 11.2,13.3 C21.6,13.3 32.5,4.8 32.5,-4 C32.5,-9.9 27.5,-13.2 21.3,-13.2 C11.6,-13.2 0,-5 0,4.2"/>
<path class="Note" transform="matrix(0.992,0,0,0.992,1019.62,1204.6)" d="M0,4.2 C0,8.5 3.1,13.3 11.2,13.3 C21.6,13.3 32.5,4.8 32.5,-4 C32.5,-9.9 27.5,-13.2 21.3,-13.2 C11.6,-13.2 0,-5 0,4.2"/>
<path class="Note" transform="matrix(0.992,0,0,0.992,2317.72,1229.4)" d="M0,4.2 C0,8.5 3.1,13.3 11.2,13.3 C21.6,13.3 32.5,4.8 32.5,-4 C32.5,-9.9 27.5,-13.2 21.3,-13.2 C11.6,-13.2 0,-5 0,4.2"/>
<path class="Note" transform="matrix(0.992,0,0,0.992,1353.25,708.598)" d="M0,4.2 C0,8.5 3.1,13.3 11.2,13.3 C21.6,13.3 32.5,4.8 32.5,-4 C32.5,-9.9 27.5,-13.2 21.3,-13.2 C11.6,-13.2 0,-5 0,4.2"/>
<path class="Note" transform="matrix(0.992,0,0,0.992,600.992,696.198)" d="M0,4.2 C0,8.5 3.1,13.3 11.2,13.3 C21.6,13.3 32.5,4.8 32.5,-4 C32.5,-9.9 27.5,-13.2 21.3,-13.2 C11.6,-13.2 0,-5 0,4.2"/>
<path class="Note" transform="matrix(0.992,0,0,0.992,1644.97,1217)" d="M0,4.2 C0,8.5 3.1,13.3 11.2,13.3 C21.6,13.3 32.5,4.8 32.5,-4 C32.5,-9.9 27.5,-13.2 21.3,-13.2 C11.6,-13.2 0,-5 0,4.2"/>
<path class="Note" transform="matrix(0.992,0,0,0.992,1192.05,720.998)" d="M0,4.2 C0,8.5 3.1,13.3 11.2,13.3 C21.6,13.3 32.5,4.8 32.5,-4 C32.5,-9.9 27.5,-13.2 21.3,-13.2 C11.6,-13.2 0,-5 0,4.2"/>
<path class="Note" transform="matrix(0.992,0,0,0.992,357.911,1179.8)" d="M0,4.2 C0,8.5 3.1,13.3 11.2,13.3 C21.6,13.3 32.5,4.8 32.5,-4 C32.5,-9.9 27.5,-13.2 21.3,-13.2 C11.6,-13.2 0,-5 0,4.2"/>
<path class="Note" transform="matrix(0.992,0,0,0.992,2485.91,1229.4)" d="M0,4.2 C0,8.5 3.1,13.3 11.2,13.3 C21.6,13.3 32.5,4.8 32.5,-4 C32.5,-9.9 27.5,-13.2 21.3,-13.2 C11.6,-13.2 0,-5 0,4.2"/>
<path class="Note" transform="matrix(0.992,0,0,0.992,683.241,1179.8)" d="M0,4.2 C0,8.5 3.1,13.3 11.2,13.3 C21.6,13.3 32.5,4.8 32.5,-4 C32.5,-9.9 27.5,-13.2 21.3,-13.2 C11.6,-13.2 0,-5 0,4.2"/>
<path class="Note" transform="matrix(0.992,0,0,0.992,1897.25,1179.8)" d="M0,4.2 C0,8.5 3.1,13.3 11.2,13.3 C21.6,13.3 32.5,4.8 32.5,-4 C32.5,-9.9 27.5,-13.2 21.3,-13.2 C11.6,-13.2 0,-5 0,4.2"/>
<path class="Note" transform="matrix(0.992,0,0,0.992,1030.85,733.398)" d="M0,4.2 C0,8.5 3.1,13.3 11.2,13.3 C21.6,13.3 32.5,4.8 32.5,-4 C32.5,-9.9 27.5,-13.2 21.3,-13.2 C11.6,-13.2 0,-5 0,4.2"/>
<path class="Note" transform="matrix(0.992,0,0,0.992,571.117,1167.4)" d="M0,4.2 C0,8.5 3.1,13.3 11.2,13.3 C21.6,13.3 32.5,4.8 32.5,-4 C32.5,-9.9 27.5,-13.2 21.3,-13.2 C11.6,-13.2 0,-5 0,4.2"/>
<path class="Note" transform="matrix(0.992,0,0,0.992,851.429,1192.2)" d="M0,4.2 C0,8.5 3.1,13.3 11.2,13.3 C21.6,13.3 32.5,4.8 32.5,-4 C32.5,-9.9 27.5,-13.2 21.3,-13.2 C11.6,-13.2 0,-5 0,4.2"/>
<path class="Clef" transform="matrix(0.992,0,0,0.992,232.438,708.598)" d="M12.3,51.3 C12.3,57.9 17.3,66.6 30.8,66.6 C35.5,66.6 39.6,65.4 43.2,63.2 C48.6,59.4 50,52.8 50,46.5 C50,42.6 49.4,38.1 48.4,32.4 C48.1,30.4 47.5,27.4 46.9,23.5 C56.7,20.3 64,10.1 64,-0.2 C64,-15.3 53.3,-25.5 38.7,-25.5 C37.7,-31.5 36.7,-37.4 35.9,-43 C46.4,-54.1 53.7,-66.6 53.7,-82.5 C53.7,-91.6 50.9,-99 49.3,-102.6 C46.9,-107.7 44,-111.2 42.2,-111.2 C41.5,-111.2 38.4,-110 35.1,-106.1 C28.7,-98.5 26.9,-85.7 26.9,-77.3 C26.9,-71.9 27.4,-67 29.1,-55.8 C29,-55.7 23.8,-50.4 21.7,-48.7 C12.6,-40.3 0,-28.1 0,-8.1 C0,10.6 16.3,25.3 34.9,25.3 C37.8,25.3 40.5,25 42.8,24.6 C44.7,34.2 45.9,41.2 45.9,46.5 C45.9,56.9 40.5,62.4 30.4,62.4 C28,62.4 25.9,61.9 25.7,61.9 C25.6,61.8 25.4,61.7 25.4,61.6 C25.4,61.4 25.6,61.3 25.9,61.3 C30.6,60.5 35.3,56.5 35.3,50.1 C35.3,44.7 31.2,39 23.7,39 C16.7,39 12.3,44.7 12.3,51.3 M33.2,-82.2 C34.1,-86.2 38.7,-96.7 43.9,-96.7 C45.4,-96.7 47.8,-91.9 47.8,-84.9 C47.8,-74.5 40.1,-66.7 33.2,-59.9 C32.6,-63.9 32.1,-67.8 32.1,-72 C32.1,-75.7 32.4,-79.1 33.2,-82.2 M42,20.6 C40,21 38.1,21.2 36.2,21.2 C21.9,21.2 9.7,11.2 9.7,-3.9 C9.7,-16.1 18.3,-27 27.1,-34.6 C28.8,-36.1 30.4,-37.5 31.9,-39 C32.8,-33.6 33.5,-28.9 34.2,-24.8 C25.1,-22.1 18.9,-12.5 18.9,-3.1 C18.9,3.9 24.4,13.5 32.4,13.5 C33.2,13.5 34.1,13.1 34.1,12.2 C34.1,11.3 33.1,10.8 31.9,10 C28,7.6 25.8,5 25.8,0.1 C25.8,-6 30.4,-10.9 36.2,-12.3 L42,20.6 M56.2,2.1 C56.2,9.2 53.3,16.5 46.2,19.4 C44.1,7.4 41.4,-8.5 40.7,-12.9 C49.7,-12.9 56.2,-6.8 56.2,2.1"/>
<path class="Clef" transform="matrix(0.992,0,0,0.992,232.438,1179.8)" d="M12.3,51.3 C12.3,57.9 17.3,66.6 30.8,66.6 C35.5,66.6 39.6,65.4 43.2,63.2 C48.6,59.4 50,52.8 50,46.5 C50,42.6 49.4,38.1 48.4,32.4 C48.1,30.4 47.5,27.4 46.9,23.5 C56.7,20.3 64,10.1 64,-0.2 C64,-15.3 53.3,-25.5 38.7,-25.5 C37.7,-31.5 36.7,-37.4 35.9,-43 C46.4,-54.1 53.7,-66.6 53.7,-82.5 C53.7,-91.6 50.9,-99 49.3,-102.6 C46.9,-107.7 44,-111.2 42.2,-111.2 C41.5,-111.2 38.4,-110 35.1,-106.1 C28.7,-98.5 26.9,-85.7 26.9,-77.3 C26.9,-71.9 27.4,-67 29.1,-55.8 C29,-55.7 23.8,-50.4 21.7,-48.7 C12.6,-40.3 0,-28.1 0,-8.1 C0,10.6 16.3,25.3 34.9,25.3 C37.8,25.3 40.5,25 42.8,24.6 C44.7,34.2 45.9,41.2 45.9,46.5 C45.9,56.9 40.5,62.4 30.4,62.4 C28,62.4 25.9,61.9 25.7,61.9 C25.6,61.8 25.4,61.7 25.4,61.6 C25.4,61.4 25.6,61.3 25.9,61.3 C30.6,60.5 35.3,56.5 35.3,50.1 C35.3,44.7 31.2,39 23.7,39 C16.7,39 12.3,44.7 12.3,51.3 M33.2,-82.2 C34.1,-86.2 38.7,-96.7 43.9,-96.7 C45.4,-96.7 47.8,-91.9 47.8,-84.9 C47.8,-74.5 40.1,-66.7 33.2,-59.9 C32.6,-63.9 32.1,-67.8 32.1,-72 C32.1,-75.7 32.4,-79.1 33.2,-82.2 M42,20.6 C40,21 38.1,21.2 36.2,21.2 C21.9,21.2 9.7,11.2 9.7,-3.9 C9.7,-16.1 18.3,-27 27.1,-34.6 C28.8,-36.1 30.4,-37.5 31.9,-39 C32.8,-33.6 33.5,-28.9 34.2,-24.8 C25.1,-22.1 18.9,-12.5 18.9,-3.1 C18.9,3.9 24.4,13.5 32.4,13.5 C33.2,13.5 34.1,13.1 34.1,12.2 C34.1,11.3 33.1,10.8 31.9,10 C28,7.6 25.8,5 25.8,0.1 C25.8,-6 30.4,-10.9 36.2,-12.3 L42,20.6 M56.2,2.1 C56.2,9.2 53.3,16.5 46.2,19.4 C44.1,7.4 41.4,-8.5 40.7,-12.9 C49.7,-12.9 56.2,-6.8 56.2,2.1"/>
<path class="TimeSig" transform="matrix(0.992,0,0,0.992,319.331,658.998)" d="M20.8,12.7 L20.8,20.1 L12.5,20.1 C11.8,20.1 11.1,20.7 11.1,21.5 L11.1,23.4 C11.1,24.2 11.8,24.8 12.5,24.8 L42.8,24.8 C43.6,24.8 44.2,24.2 44.2,23.4 L44.2,21.5 C44.2,20.7 43.6,20.1 42.8,20.1 L33.9,20.1 L33.9,12.7 L42.8,12.7 C43.6,12.7 44.2,12 44.2,11.2 L44.2,9.3 C44.2,8.6 43.6,7.9 42.8,7.9 L33.9,7.9 L33.9,-8 C33.9,-8.6 33.6,-9.1 33.1,-9.3 L31.9,-9.9 C31.7,-10 31.4,-10.1 31.2,-10.1 C30.9,-10 30.5,-9.9 30.3,-9.7 L21.2,-1.4 C20.9,-1.1 20.8,-0.7 20.8,-0.3 L20.8,7.9 L9.3,7.9 C9.3,7.9 20.4,-4.1 32.2,-19.9 C32.6,-20.4 32.7,-20.9 32.7,-21.3 C32.7,-21.8 32.5,-22.2 32.4,-22.3 L30.2,-24.5 C30,-24.7 29.6,-24.9 29.2,-24.9 C28.6,-24.9 15.1,-24.9 14.4,-24.9 C13.6,-24.9 13.1,-24.3 13,-23.7 C13,-23.7 12.5,-16.3 9.9,-8.2 C7.3,-0.1 4.3,4.9 1.7,8.6 C1.7,8.6 1.4,9.1 1.4,9.7 C1.4,9.9 1.4,10.1 1.5,10.3 C1.9,11 2.5,12.1 2.5,12.1 C2.5,12.1 2.7,12.7 3.6,12.7 L20.8,12.7 "/>
<path class="TimeSig" transform="matrix(0.992,0,0,0.992,319.331,708.598)" d="M20.8,12.7 L20.8,20.1 L12.5,20.1 C11.8,20.1 11.1,20.7 11.1,21.5 L11.1,23.4 C11.1,24.2 11.8,24.8 12.5,24.8 L42.8,24.8 C43.6,24.8 44.2,24.2 44.2,23.4 L44.2,21.5 C44.2,20.7 43.6,20.1 42.8,20.1 L33.9,20.1 L33.9,12.7 L42.8,12.7 C43.6,12.7 44.2,12 44.2,11.2 L44.2,9.3 C44.2,8.6 43.6,7.9 42.8,7.9 L33.9,7.9 L33.9,-8 C33.9,-8.6 33.6,-9.1 33.1,-9.3 L31.9,-9.9 C31.7,-10 31.4,-10.1 31.2,-10.1 C30.9,-10 30.5,-9.9 30.3,-9.7 L21.2,-1.4 C20.9,-1.1 20.8,-0.7 20.8,-0.3 L20.8,7.9 L9.3,7.9 C9.3,7.9 20.4,-4.1 32.2,-19.9 C32.6,-20.4 32.7,-20.9 32.7,-21.3 C32.7,-21.8 32.5,-22.2 32.4,-22.3 L30.2,-24.5 C30,-24.7 29.6,-24.9 29.2,-24.9 C28.6,-24.9 15.1,-24.9 14.4,-24.9 C13.6,-24.9 13.1,-24.3 13,-23.7 C13,-23.7 12.5,-16.3 9.9,-8.2 C7.3,-0.1 4.3,4.9 1.7,8.6 C1.7,8.6 1.4,9.1 1.4,9.7 C1.4,9.9 1.4,10.1 1.5,10.3 C1.9,11 2.5,12.1 2.5,12.1 C2.5,12.1 2.7,12.7 3.6,12.7 L20.8,12.7 "/>
<path class="Beam" fill-rule="evenodd" d="M387.407,1086.8 L603.341,1080.6 L603.341,1093 L387.407,1099.2 L387.407,1086.8 "/>
<path class="Beam" fill-rule="evenodd" d="M603.341,1099.2 L571.101,1100.12 L571.101,1112.53 L603.341,1111.6 L603.341,1099.2 "/>
<path class="Beam" fill-rule="evenodd" d="M737.954,627.994 L901.88,634.194 L901.88,646.603 L737.954,640.403 L737.954,627.994 "/>
<path class="Beam" fill-rule="evenodd" d="M1049.11,1123.99 L1220.03,1117.79 L1220.03,1130.2 L1049.11,1136.4 L1049.11,1123.99 "/>
<path class="Beam" fill-rule="evenodd" d="M712.738,1099.19 L883.653,1105.39 L883.653,1117.8 L712.738,1111.6 L712.738,1099.19 "/>
<path class="Beam" fill-rule="evenodd" d="M1060.35,652.794 L1224.28,646.594 L1224.28,659.003 L1060.35,665.203 L1060.35,652.794 "/>
<path class="Beam" fill-rule="evenodd" d="M1661.25,658.994 L1825.17,652.794 L1825.17,665.203 L1661.25,671.403 L1661.25,658.994 "/>
<path class="Beam" fill-rule="evenodd" d="M2179.03,1123.99 L2349.95,1130.19 L2349.95,1142.6 L2179.03,1136.4 L2179.03,1123.99 "/>
<path class="Beam" fill-rule="evenodd" d="M426.142,615.596 L633.216,609.396 L633.216,621.801 L426.142,628.001 L426.142,615.596 "/>
<path class="Beam" fill-rule="evenodd" d="M633.216,627.996 L600.976,628.961 L600.976,641.366 L633.216,640.401 L633.216,627.996 "/>
<path class="Beam" fill-rule="evenodd" d="M2225.44,652.794 L2389.37,646.594 L2389.37,659.003 L2225.44,665.203 L2225.44,652.794 "/>
<path class="Harmony" d="M2551.02,532.103 L2548.93,532.103 L2546.73,535.348 C2542.71,532.433 2540.68,531.663 2536.88,531.663 C2531.66,531.663 2527.2,533.863 2523.52,538.263 C2520,542.443 2518.35,547.063 2518.35,552.728 C2518.35,564.608 2526.1,573.023 2536.94,573.023 C2545.74,573.023 2551.35,567.853 2552.61,558.613 L2550.03,558.173 C2548.54,566.368 2544.36,570.438 2537.6,570.438 C2529.46,570.438 2525.61,564.828 2525.61,552.948 C2525.61,546.678 2526.43,542.553 2528.3,539.253 C2530.01,536.173 2533.36,534.248 2536.94,534.248 C2540.79,534.248 2544.2,536.283 2546.29,539.803 C2547.33,541.618 2548.1,543.653 2549.42,547.998 L2551.84,547.998 L2551.02,532.103 "/>
<path class="Harmony" d="M1388.67,1003.3 L1386.58,1003.3 L1384.38,1006.55 C1380.36,1003.63 1378.33,1002.86 1374.53,1002.86 C1369.31,1002.86 1364.85,1005.06 1361.17,1009.46 C1357.65,1013.64 1356,1018.26 1356,1023.93 C1356,1035.81 1363.75,1044.22 1374.59,1044.22 C1383.39,1044.22 1389,1039.05 1390.26,1029.81 L1387.68,1029.37 C1386.19,1037.57 1382.01,1041.64 1375.25,1041.64 C1367.11,1041.64 1363.26,1036.03 1363.26,1024.15 C1363.26,1017.88 1364.08,1013.75 1365.95,1010.45 C1367.66,1007.37 1371.01,1005.45 1374.59,1005.45 C1378.44,1005.45 1381.85,1007.48 1383.94,1011 C1384.98,1012.82 1385.75,1014.85 1387.07,1019.2 L1389.49,1019.2 L1388.67,1003.3 "/>
<path class="Harmony" d="M1052.29,1003.3 L1050.2,1003.3 L1048,1006.55 C1043.99,1003.63 1041.95,1002.86 1038.16,1002.86 C1032.93,1002.86 1028.48,1005.06 1024.79,1009.46 C1021.27,1013.64 1019.62,1018.26 1019.62,1023.93 C1019.62,1035.81 1027.38,1044.22 1038.21,1044.22 C1047.01,1044.22 1052.62,1039.05 1053.89,1029.81 L1051.3,1029.37 C1049.82,1037.57 1045.64,1041.64 1038.87,1041.64 C1030.73,1041.64 1026.88,1036.03 1026.88,1024.15 C1026.88,1017.88 1027.71,1013.75 1029.58,1010.45 C1031.28,1007.37 1034.64,1005.45 1038.21,1005.45 C1042.06,1005.45 1045.47,1007.48 1047.56,1011 C1048.61,1012.82 1049.38,1014.85 1050.7,1019.2 L1053.12,1019.2 L1052.29,1003.3 "/>
<path class="Harmony" d="M1678.43,1003.3 L1676.34,1003.3 L1674.19,1006.6 C1670.62,1003.8 1668.2,1002.86 1664.18,1002.86 C1659.84,1002.86 1656.43,1004.07 1652.96,1006.88 C1647.52,1011.28 1644.99,1016.83 1644.99,1024.26 C1644.99,1029.87 1646.58,1034.54 1649.83,1038.12 C1653.24,1041.97 1658.3,1044.22 1663.58,1044.22 C1668.2,1044.22 1671.44,1042.79 1675.02,1039.22 L1677.05,1044.17 L1679.36,1044.17 L1679.36,1032.07 C1679.36,1029.26 1679.36,1029.15 1679.69,1028.66 C1680.19,1028.05 1681.18,1027.89 1684.31,1027.89 L1685.14,1027.89 L1685.14,1025.3 L1667.65,1025.3 L1667.65,1027.89 L1668.69,1027.89 C1673.31,1027.89 1673.7,1028.16 1673.7,1031.24 C1673.7,1033.61 1673.31,1035.75 1672.6,1037.07 C1671.22,1039.77 1667.7,1041.64 1664.13,1041.64 C1660.55,1041.64 1657.03,1039.82 1655.16,1037.07 C1653.13,1033.99 1652.25,1030.14 1652.25,1024.26 C1652.25,1011.99 1656.32,1005.45 1663.96,1005.45 C1670.23,1005.45 1674.58,1009.96 1676.83,1018.76 L1679.2,1018.76 L1678.43,1003.3 "/>
<path class="Harmony" d="M1691.16,1017.99 L1693.58,1018.37 L1694.57,1014.03 C1695.39,1010.4 1695.78,1009.85 1697.37,1009.85 C1697.65,1009.85 1698.09,1009.85 1698.58,1009.9 C1705.35,1010.23 1705.35,1010.23 1707.88,1010.23 C1708.59,1010.23 1709.86,1010.23 1711.4,1010.18 L1707.66,1017.71 C1703.59,1025.8 1703.09,1026.79 1701.72,1030.2 C1700.01,1034.32 1699.13,1037.79 1699.13,1040.1 C1699.13,1042.63 1700.45,1044.17 1702.6,1044.17 C1705.24,1044.17 1706.28,1042.41 1706.23,1037.62 C1705.95,1029.7 1706.94,1025.85 1712.83,1012.98 C1713.82,1010.84 1714.86,1008.64 1715.85,1006.49 L1715.85,1004.9 C1712.55,1005.17 1710.79,1005.28 1707.38,1005.28 C1702.6,1005.28 1698.8,1005.12 1692.86,1004.68 L1691.16,1017.99 "/>
<path class="Harmony" d="M715.918,1003.3 L713.828,1003.3 L711.628,1006.55 C707.613,1003.63 705.578,1002.86 701.783,1002.86 C696.558,1002.86 692.103,1005.06 688.418,1009.46 C684.898,1013.64 683.248,1018.26 683.248,1023.93 C683.248,1035.81 691.003,1044.22 701.838,1044.22 C710.638,1044.22 716.248,1039.05 717.513,1029.81 L714.928,1029.37 C713.443,1037.57 709.263,1041.64 702.498,1041.64 C694.358,1041.64 690.508,1036.03 690.508,1024.15 C690.508,1017.88 691.333,1013.75 693.203,1010.45 C694.908,1007.37 698.263,1005.45 701.838,1005.45 C705.688,1005.45 709.098,1007.48 711.188,1011 C712.233,1012.82 713.003,1014.85 714.323,1019.2 L716.743,1019.2 L715.918,1003.3 "/>
<path class="Harmony" d="M390.587,1003.3 L388.497,1003.3 L386.297,1006.55 C382.282,1003.63 380.247,1002.86 376.452,1002.86 C371.227,1002.86 366.772,1005.06 363.087,1009.46 C359.567,1013.64 357.917,1018.26 357.917,1023.93 C357.917,1035.81 365.672,1044.22 376.507,1044.22 C385.307,1044.22 390.917,1039.05 392.182,1029.81 L389.597,1029.37 C388.112,1037.57 383.932,1041.64 377.167,1041.64 C369.027,1041.64 365.177,1036.03 365.177,1024.15 C365.177,1017.88 366.002,1013.75 367.872,1010.45 C369.577,1007.37 372.932,1005.45 376.507,1005.45 C380.357,1005.45 383.767,1007.48 385.857,1011 C386.902,1012.82 387.672,1014.85 388.992,1019.2 L391.412,1019.2 L390.587,1003.3 "/>
<path class="Harmony" d="M1930.71,1003.3 L1928.62,1003.3 L1926.47,1006.6 C1922.9,1003.8 1920.48,1002.86 1916.46,1002.86 C1912.12,1002.86 1908.71,1004.07 1905.24,1006.88 C1899.8,1011.28 1897.27,1016.83 1897.27,1024.26 C1897.27,1029.87 1898.86,1034.54 1902.11,1038.12 C1905.52,1041.97 1910.58,1044.22 1915.86,1044.22 C1920.48,1044.22 1923.72,1042.79 1927.3,1039.22 L1929.33,1044.17 L1931.64,1044.17 L1931.64,1032.07 C1931.64,1029.26 1931.64,1029.15 1931.97,1028.66 C1932.47,1028.05 1933.46,1027.89 1936.59,1027.89 L1937.42,1027.89 L1937.42,1025.3 L1919.93,1025.3 L1919.93,1027.89 L1920.97,1027.89 C1925.59,1027.89 1925.98,1028.16 1925.98,1031.24 C1925.98,1033.61 1925.59,1035.75 1924.88,1037.07 C1923.5,1039.77 1919.98,1041.64 1916.41,1041.64 C1912.83,1041.64 1909.31,1039.82 1907.44,1037.07 C1905.41,1033.99 1904.53,1030.14 1904.53,1024.26 C1904.53,1011.99 1908.6,1005.45 1916.24,1005.45 C1922.51,1005.45 1926.86,1009.96 1929.11,1018.76 L1931.48,1018.76 L1930.71,1003.3 "/>
<path class="Harmony" d="M1943.44,1017.99 L1945.86,1018.37 L1946.85,1014.03 C1947.67,1010.4 1948.06,1009.85 1949.65,1009.85 C1949.93,1009.85 1950.37,1009.85 1950.86,1009.9 C1957.63,1010.23 1957.63,1010.23 1960.16,1010.23 C1960.87,1010.23 1962.14,1010.23 1963.68,1010.18 L1959.94,1017.71 C1955.87,1025.8 1955.37,1026.79 1954,1030.2 C1952.29,1034.32 1951.41,1037.79 1951.41,1040.1 C1951.41,1042.63 1952.73,1044.17 1954.88,1044.17 C1957.52,1044.17 1958.56,1042.41 1958.51,1037.62 C1958.23,1029.7 1959.22,1025.85 1965.11,1012.98 C1966.1,1010.84 1967.14,1008.64 1968.13,1006.49 L1968.13,1004.9 C1964.83,1005.17 1963.07,1005.28 1959.66,1005.28 C1954.88,1005.28 1951.08,1005.12 1945.14,1004.68 L1943.44,1017.99 "/>
<path class="Harmony" d="M2228.62,532.103 L2226.53,532.103 L2224.33,535.348 C2220.32,532.433 2218.28,531.663 2214.49,531.663 C2209.26,531.663 2204.81,533.863 2201.12,538.263 C2197.6,542.443 2195.95,547.063 2195.95,552.728 C2195.95,564.608 2203.71,573.023 2214.54,573.023 C2223.34,573.023 2228.95,567.853 2230.22,558.613 L2227.63,558.173 C2226.15,566.368 2221.97,570.438 2215.2,570.438 C2207.06,570.438 2203.21,564.828 2203.21,552.948 C2203.21,546.678 2204.04,542.553 2205.91,539.253 C2207.61,536.173 2210.97,534.248 2214.54,534.248 C2218.39,534.248 2221.8,536.283 2223.89,539.803 C2224.94,541.618 2225.71,543.653 2227.03,547.998 L2229.45,547.998 L2228.62,532.103 "/>
<path class="Harmony" d="M1987.6,532.103 L1985.51,532.103 L1983.37,535.403 C1979.79,532.598 1977.37,531.663 1973.36,531.663 C1969.01,531.663 1965.6,532.873 1962.14,535.678 C1956.69,540.078 1954.16,545.633 1954.16,553.058 C1954.16,558.668 1955.76,563.343 1959,566.918 C1962.41,570.768 1967.47,573.023 1972.75,573.023 C1977.37,573.023 1980.62,571.593 1984.19,568.018 L1986.23,572.968 L1988.54,572.968 L1988.54,560.868 C1988.54,558.063 1988.54,557.953 1988.87,557.458 C1989.36,556.853 1990.35,556.688 1993.49,556.688 L1994.31,556.688 L1994.31,554.103 L1976.82,554.103 L1976.82,556.688 L1977.87,556.688 C1982.49,556.688 1982.87,556.963 1982.87,560.043 C1982.87,562.408 1982.49,564.553 1981.77,565.873 C1980.4,568.568 1976.88,570.438 1973.3,570.438 C1969.73,570.438 1966.21,568.623 1964.34,565.873 C1962.3,562.793 1961.42,558.943 1961.42,553.058 C1961.42,540.793 1965.49,534.248 1973.14,534.248 C1979.41,534.248 1983.75,538.758 1986.01,547.558 L1988.37,547.558 L1987.6,532.103 "/>
<path class="Harmony" d="M2000.33,546.788 L2002.75,547.173 L2003.74,542.828 C2004.56,539.198 2004.95,538.648 2006.54,538.648 C2006.82,538.648 2007.26,538.648 2007.75,538.703 C2014.52,539.033 2014.52,539.033 2017.05,539.033 C2017.76,539.033 2019.03,539.033 2020.57,538.978 L2016.83,546.513 C2012.76,554.598 2012.26,555.588 2010.89,558.998 C2009.18,563.123 2008.3,566.588 2008.3,568.898 C2008.3,571.428 2009.62,572.968 2011.77,572.968 C2014.41,572.968 2015.45,571.208 2015.4,566.423 C2015.12,558.503 2016.11,554.653 2022,541.783 C2022.99,539.638 2024.03,537.438 2025.02,535.293 L2025.02,533.698 C2021.72,533.973 2019.96,534.083 2016.55,534.083 C2011.77,534.083 2007.97,533.918 2002.03,533.478 L2000.33,546.788 "/>
<path class="Harmony" d="M2182.21,1003.3 L2180.12,1003.3 L2177.92,1006.55 C2173.91,1003.63 2171.87,1002.86 2168.08,1002.86 C2162.85,1002.86 2158.4,1005.06 2154.71,1009.46 C2151.19,1013.64 2149.54,1018.26 2149.54,1023.93 C2149.54,1035.81 2157.3,1044.22 2168.13,1044.22 C2176.93,1044.22 2182.54,1039.05 2183.81,1029.81 L2181.22,1029.37 C2179.74,1037.57 2175.56,1041.64 2168.79,1041.64 C2160.65,1041.64 2156.8,1036.03 2156.8,1024.15 C2156.8,1017.88 2157.63,1013.75 2159.5,1010.45 C2161.2,1007.37 2164.56,1005.45 2168.13,1005.45 C2171.98,1005.45 2175.39,1007.48 2177.48,1011 C2178.53,1012.82 2179.3,1014.85 2180.62,1019.2 L2183.04,1019.2 L2182.21,1003.3 "/>
<path class="Harmony" d="M1665.2,532.103 L1663.11,532.103 L1660.97,535.403 C1657.39,532.598 1654.97,531.663 1650.96,531.663 C1646.61,531.663 1643.2,532.873 1639.74,535.678 C1634.29,540.078 1631.76,545.633 1631.76,553.058 C1631.76,558.668 1633.36,563.343 1636.6,566.918 C1640.01,570.768 1645.07,573.023 1650.35,573.023 C1654.97,573.023 1658.22,571.593 1661.79,568.018 L1663.83,572.968 L1666.14,572.968 L1666.14,560.868 C1666.14,558.063 1666.14,557.953 1666.47,557.458 C1666.96,556.853 1667.95,556.688 1671.09,556.688 L1671.91,556.688 L1671.91,554.103 L1654.42,554.103 L1654.42,556.688 L1655.47,556.688 C1660.09,556.688 1660.47,556.963 1660.47,560.043 C1660.47,562.408 1660.09,564.553 1659.37,565.873 C1658,568.568 1654.48,570.438 1650.9,570.438 C1647.33,570.438 1643.81,568.623 1641.94,565.873 C1639.9,562.793 1639.02,558.943 1639.02,553.058 C1639.02,540.793 1643.09,534.248 1650.74,534.248 C1657.01,534.248 1661.35,538.758 1663.61,547.558 L1665.97,547.558 L1665.2,532.103 "/>
<path class="Harmony" d="M1677.93,546.788 L1680.35,547.173 L1681.34,542.828 C1682.17,539.198 1682.55,538.648 1684.15,538.648 C1684.42,538.648 1684.86,538.648 1685.36,538.703 C1692.12,539.033 1692.12,539.033 1694.65,539.033 C1695.37,539.033 1696.63,539.033 1698.17,538.978 L1694.43,546.513 C1690.36,554.598 1689.87,555.588 1688.49,558.998 C1686.79,563.123 1685.91,566.588 1685.91,568.898 C1685.91,571.428 1687.23,572.968 1689.37,572.968 C1692.01,572.968 1693.06,571.208 1693,566.423 C1692.73,558.503 1693.72,554.653 1699.6,541.783 C1700.59,539.638 1701.64,537.438 1702.63,535.293 L1702.63,533.698 C1699.33,533.973 1697.57,534.083 1694.16,534.083 C1689.37,534.083 1685.58,533.918 1679.64,533.478 L1677.93,546.788 "/>
<path class="Harmony" d="M1385.93,532.103 L1383.84,532.103 L1381.64,535.348 C1377.62,532.433 1375.59,531.663 1371.79,531.663 C1366.57,531.663 1362.11,533.863 1358.43,538.263 C1354.91,542.443 1353.26,547.063 1353.26,552.728 C1353.26,564.608 1361.01,573.023 1371.85,573.023 C1380.65,573.023 1386.26,567.853 1387.52,558.613 L1384.94,558.173 C1383.45,566.368 1379.27,570.438 1372.51,570.438 C1364.37,570.438 1360.52,564.828 1360.52,552.948 C1360.52,546.678 1361.34,542.553 1363.21,539.253 C1364.92,536.173 1368.27,534.248 1371.85,534.248 C1375.7,534.248 1379.11,536.283 1381.2,539.803 C1382.24,541.618 1383.01,543.653 1384.33,547.998 L1386.75,547.998 L1385.93,532.103 "/>
<path class="Harmony" d="M1063.53,532.103 L1061.44,532.103 L1059.24,535.348 C1055.22,532.433 1053.19,531.663 1049.39,531.663 C1044.17,531.663 1039.71,533.863 1036.03,538.263 C1032.51,542.443 1030.86,547.063 1030.86,552.728 C1030.86,564.608 1038.61,573.023 1049.45,573.023 C1058.25,573.023 1063.86,567.853 1065.12,558.613 L1062.54,558.173 C1061.05,566.368 1056.87,570.438 1050.11,570.438 C1041.97,570.438 1038.12,564.828 1038.12,552.948 C1038.12,546.678 1038.94,542.553 1040.81,539.253 C1042.52,536.173 1045.87,534.248 1049.45,534.248 C1053.3,534.248 1056.71,536.283 1058.8,539.803 C1059.84,541.618 1060.61,543.653 1061.93,547.998 L1064.35,547.998 L1063.53,532.103 "/>
<path class="Harmony" d="M741.133,532.103 L739.043,532.103 L736.843,535.348 C732.828,532.433 730.793,531.663 726.998,531.663 C721.773,531.663 717.318,533.863 713.633,538.263 C710.113,542.443 708.463,547.063 708.463,552.728 C708.463,564.608 716.218,573.023 727.053,573.023 C735.853,573.023 741.463,567.853 742.728,558.613 L740.143,558.173 C738.658,566.368 734.478,570.438 727.713,570.438 C719.573,570.438 715.723,564.828 715.723,552.948 C715.723,546.678 716.548,542.553 718.418,539.253 C720.123,536.173 723.478,534.248 727.053,534.248 C730.903,534.248 734.313,536.283 736.403,539.803 C737.448,541.618 738.218,543.653 739.538,547.998 L741.958,547.998 L741.133,532.103 "/>
<path class="Harmony" d="M429.322,532.103 L427.232,532.103 L425.032,535.348 C421.017,532.433 418.982,531.663 415.187,531.663 C409.962,531.663 405.507,533.863 401.822,538.263 C398.302,542.443 396.652,547.063 396.652,552.728 C396.652,564.608 404.407,573.023 415.242,573.023 C424.042,573.023 429.652,567.853 430.917,558.613 L428.332,558.173 C426.847,566.368 422.667,570.438 415.902,570.438 C407.762,570.438 403.912,564.828 403.912,552.948 C403.912,546.678 404.737,542.553 406.607,539.253 C408.312,536.173 411.667,534.248 415.242,534.248 C419.092,534.248 422.502,536.283 424.592,539.803 C425.637,541.618 426.407,543.653 427.727,547.998 L430.147,547.998 L429.322,532.103 "/>
<path class="Harmony" d="M2518.59,1003.3 L2516.5,1003.3 L2514.3,1006.55 C2510.28,1003.63 2508.25,1002.86 2504.45,1002.86 C2499.23,1002.86 2494.77,1005.06 2491.09,1009.46 C2487.57,1013.64 2485.92,1018.26 2485.92,1023.93 C2485.92,1035.81 2493.67,1044.22 2504.51,1044.22 C2513.31,1044.22 2518.92,1039.05 2520.18,1029.81 L2517.6,1029.37 C2516.11,1037.57 2511.93,1041.64 2505.17,1041.64 C2497.03,1041.64 2493.18,1036.03 2493.18,1024.15 C2493.18,1017.88 2494,1013.75 2495.87,1010.45 C2497.58,1007.37 2500.93,1005.45 2504.51,1005.45 C2508.36,1005.45 2511.77,1007.48 2513.86,1011 C2514.9,1012.82 2515.67,1014.85 2516.99,1019.2 L2519.41,1019.2 L2518.59,1003.3 "/>
<path class="NoteDot" transform="matrix(0.992,0,0,0.992,402.535,1167.4)" d="M0,0 C0,2.8 2.2,5 5,5 C7.8,5 10,2.8 10,0 C10,-2.8 7.8,-5 5,-5 C2.2,-5 0,-2.8 0,0"/>
<path class="NoteDot" transform="matrix(0.992,0,0,0.992,441.27,696.198)" d="M0,0 C0,2.8 2.2,5 5,5 C7.8,5 10,2.8 10,0 C10,-2.8 7.8,-5 5,-5 C2.2,-5 0,-2.8 0,0"/>
</svg>
