<?xml version="1.0" encoding="UTF-8" standalone="no"?>
<svg width="2977.2px" height="4208.4px" viewBox="0 0 2977.2 4208.4"
 xmlns="http://www.w3.org/2000/svg" xmlns:xlink="http://www.w3.org/1999/xlink" version="1.2" baseProfile="tiny">
<title>今日の日はさようなら</title>
<desc>Generated by MuseScore Studio 4.4.2</desc>
<path class="" fill="#ffffff" fill-rule="evenodd" d="M0,0 L2977.2,0 L2977.2,4208.4 L0,4208.4 L0,0 "/>
<polyline class="StaffLines" fill="none" stroke="#000000" stroke-width="2.73" stroke-linejoin="bevel" points="212.598,634.198 2764.6,634.198"/>
<polyline class="StaffLines" fill="none" stroke="#000000" stroke-width="2.73" stroke-linejoin="bevel" points="212.598,658.998 2764.6,658.998"/>
<polyline class="StaffLines" fill="none" stroke="#000000" stroke-width="2.73" stroke-linejoin="bevel" points="212.598,683.798 2764.6,683.798"/>
<polyline class="StaffLines" fill="none" stroke="#000000" stroke-width="2.73" stroke-linejoin="bevel" points="212.598,708.598 2764.6,708.598"/>
<polyline class="StaffLines" fill="none" stroke="#000000" stroke-width="2.73" stroke-linejoin="bevel" points="212.598,733.398 2764.6,733.398"/>
<polyline class="StaffLines" fill="none" stroke="#000000" stroke-width="2.73" stroke-linejoin="bevel" points="212.598,1105.4 2764.6,1105.4"/>
<polyline class="StaffLines" fill="none" stroke="#000000" stroke-width="2.73" stroke-linejoin="bevel" points="212.598,1130.2 2764.6,1130.2"/>
<polyline class="StaffLines" fill="none" stroke="#000000" stroke-width="2.73" stroke-linejoin="bevel" points="212.598,1155 2764.6,1155"/>
<polyline class="StaffLines" fill="none" stroke="#000000" stroke-width="2.73" stroke-linejoin="bevel" points="212.598,1179.8 2764.6,1179.8"/>
<polyline class="StaffLines" fill="none" stroke="#000000" stroke-width="2.73" stroke-linejoin="bevel" points="212.598,1204.6 2764.6,1204.6"/>
<path class="Text" d="M1000.98,212.593 C996.686,219.523 992.176,224.693 984.916,231.183 C975.126,239.763 966.986,244.933 954.116,250.873 C956.316,253.183 957.636,255.053 958.736,257.253 C969.296,252.083 975.896,247.903 983.376,241.963 C991.846,235.253 997.566,229.203 1005.27,219.083 C1011.87,228.213 1017.59,234.153 1026.61,241.193 C1034.75,247.573 1042.23,252.193 1053.12,257.693 C1054.33,254.833 1055.43,253.073 1057.63,250.653 C1047.4,246.473 1040.47,242.513 1031.89,236.023 C1021.33,228.213 1014.95,221.503 1009.34,212.593 L1000.98,212.593 M982.386,253.403 C984.586,253.073 987.336,252.963 991.186,252.963 L1019.79,252.963 C1023.75,252.963 1026.72,253.073 1029.25,253.403 L1029.25,245.813 C1026.61,246.143 1024.41,246.253 1020.01,246.253 L991.076,246.253 C986.896,246.253 984.696,246.143 982.386,245.813 L982.386,253.403 M1041.24,266.163 C1039.04,266.603 1035.85,266.713 1028.92,266.713 L979.966,266.713 C975.236,266.713 971.386,266.493 967.206,266.053 L967.206,274.193 C971.826,273.753 975.786,273.533 979.966,273.533 L1034.42,273.533 L1012.86,299.493 C1010.11,302.903 1007.03,305.983 1004.17,308.513 L1011.98,313.133 C1014.18,309.833 1016.38,306.973 1019.35,303.233 L1041.24,276.393 C1042.45,274.853 1044.43,272.763 1045.75,271.443 L1041.24,266.163 M1080.29,299.383 C1080.29,304.333 1080.07,307.743 1079.63,311.043 L1087.66,311.043 L1087.66,303.893 L1144.42,303.893 L1144.42,311.043 L1152.45,311.043 C1152.01,307.633 1151.79,304.553 1151.79,299.273 L1151.79,228.763 C1151.79,224.583 1151.9,221.833 1152.34,218.643 C1149.15,219.083 1146.07,219.193 1141.01,219.193 L1091.51,219.193 C1086.45,219.193 1083.26,219.083 1079.74,218.643 C1080.18,221.833 1080.29,225.023 1080.29,229.423 L1080.29,299.383 M1087.66,225.903 L1144.42,225.903 L1144.42,256.703 L1087.66,256.703 L1087.66,225.903 M1087.66,263.413 L1144.42,263.413 L1144.42,297.183 L1087.66,297.183 L1087.66,263.413 "/>
<path class="Text" d="M1231.98,231.403 C1237.48,231.623 1240.67,232.393 1244.74,234.153 C1255.85,239.103 1262.23,249.223 1262.23,261.763 C1262.23,275.293 1254.86,287.063 1242.76,292.563 C1237.59,294.983 1232.42,296.413 1224.39,297.733 C1226.48,300.373 1227.14,301.473 1228.24,305.103 C1235.83,303.453 1240.01,302.133 1244.96,300.043 C1260.91,293.223 1270.15,279.143 1270.15,262.093 C1270.15,251.533 1266.41,241.963 1259.48,235.253 C1252.33,228.213 1241.55,224.363 1229.23,224.363 C1214.49,224.363 1202.5,229.313 1193.7,238.993 C1186.33,247.243 1182.15,258.133 1182.15,269.353 C1182.15,284.753 1189.96,296.193 1200.41,296.193 C1208.33,296.193 1214.82,289.593 1221.2,275.073 C1226.15,263.523 1230.33,246.693 1231.98,231.403 M1224.06,231.513 C1222.63,245.593 1218.56,261.873 1214.05,272.213 C1209.32,282.993 1204.92,288.163 1200.3,288.163 C1194.36,288.163 1189.74,280.023 1189.74,269.463 C1189.74,255.823 1196.56,243.393 1207.67,236.683 C1212.73,233.603 1217.46,232.063 1224.06,231.513"/>
<path class="Text" d="M1300.29,299.383 C1300.29,304.333 1300.07,307.743 1299.63,311.043 L1307.66,311.043 L1307.66,303.893 L1364.42,303.893 L1364.42,311.043 L1372.45,311.043 C1372.01,307.633 1371.79,304.553 1371.79,299.273 L1371.79,228.763 C1371.79,224.583 1371.9,221.833 1372.34,218.643 C1369.15,219.083 1366.07,219.193 1361.01,219.193 L1311.51,219.193 C1306.45,219.193 1303.26,219.083 1299.74,218.643 C1300.18,221.833 1300.29,225.023 1300.29,229.423 L1300.29,299.383 M1307.66,225.903 L1364.42,225.903 L1364.42,256.703 L1307.66,256.703 L1307.66,225.903 M1307.66,263.413 L1364.42,263.413 L1364.42,297.183 L1307.66,297.183 L1307.66,263.413 "/>
<path class="Text" d="M1431.41,247.573 C1431.63,247.573 1431.74,247.573 1431.85,247.573 C1432.07,247.573 1432.4,247.573 1432.95,247.683 C1433.17,247.683 1433.83,247.683 1434.82,247.793 C1435.26,247.793 1436.47,247.793 1438.34,248.013 C1442.19,248.233 1446.26,248.343 1450.77,248.343 C1454.95,248.343 1458.36,248.233 1463.31,248.013 C1463.64,264.073 1464.08,274.413 1464.41,276.723 C1461.88,275.403 1456.71,274.523 1452.2,274.523 C1439.99,274.523 1431.3,281.013 1431.3,290.143 C1431.3,299.713 1439.33,305.763 1452.09,305.763 C1461.11,305.763 1467.82,302.353 1470.46,296.523 C1471.34,294.543 1471.78,291.903 1471.78,289.043 C1471.78,288.053 1471.78,287.833 1471.56,286.183 C1472.11,286.513 1472.11,286.513 1472.55,286.843 C1473.21,287.283 1473.21,287.283 1473.65,287.503 C1481.46,292.013 1485.86,295.093 1489.27,298.943 L1492.68,291.243 C1491.47,290.473 1491.25,290.253 1489.93,289.373 C1482.67,283.983 1479.59,282.223 1471.56,278.593 C1470.68,263.963 1470.46,258.353 1470.35,247.463 C1476.07,246.803 1479.15,246.363 1482.01,245.703 C1489.49,244.163 1489.49,244.163 1489.71,244.163 L1489.38,236.683 C1485.2,238.443 1478.82,239.763 1470.35,240.753 C1470.24,238.333 1470.24,236.573 1470.24,235.363 C1470.24,226.233 1470.46,221.063 1471.01,218.093 L1462.76,218.093 C1462.98,219.193 1463.09,220.733 1463.09,222.603 C1463.09,230.963 1463.09,230.963 1463.2,241.303 C1458.69,241.523 1455.72,241.633 1451.43,241.633 C1441.75,241.633 1437.02,241.193 1431.63,239.873 L1431.41,247.573 M1464.52,283.433 C1464.52,283.433 1464.63,285.963 1464.63,286.733 C1464.63,291.023 1463.97,293.663 1462.54,295.313 C1460.45,297.733 1456.16,299.163 1451.32,299.163 C1443.62,299.163 1438.56,295.643 1438.56,290.253 C1438.56,284.753 1444.17,281.123 1452.75,281.123 C1457.15,281.123 1460.01,281.673 1464.52,283.433 M1411.94,217.983 C1411.83,219.413 1411.72,220.073 1410.73,224.913 C1406.44,243.943 1405.01,255.493 1405.01,270.123 C1405.01,281.233 1406.11,292.563 1408.09,302.793 C1408.53,305.323 1408.64,305.873 1408.75,306.863 L1416.56,306.093 C1416.34,304.553 1416.34,304.443 1416.34,303.893 C1416.34,297.403 1420.63,283.433 1425.8,272.653 L1420.41,270.123 C1420.19,270.893 1419.97,271.333 1419.53,272.323 C1415.79,281.343 1415.02,283.433 1413.04,291.683 L1412.6,291.573 C1412.6,290.473 1412.6,290.473 1412.6,289.483 C1412.49,287.503 1412.49,287.283 1412.49,286.403 C1412.27,281.343 1412.05,274.853 1412.05,271.003 C1412.05,252.963 1415.79,230.413 1420.52,219.413 L1411.94,217.983 M1517.65,246.143 C1519.3,245.923 1519.85,245.813 1521.94,245.813 C1536.46,245.593 1550.21,244.493 1561.1,242.953 C1561.76,244.053 1561.76,244.273 1562.97,246.583 C1567.7,255.823 1570.45,260.333 1576.17,268.143 C1571.55,265.723 1562.86,264.183 1553.4,264.183 C1544.49,264.183 1537.89,265.393 1532.06,268.253 C1524.36,271.993 1519.63,278.923 1519.63,286.183 C1519.63,290.583 1521.39,294.873 1524.58,298.283 C1529.64,303.563 1539.76,306.533 1553.18,306.533 C1564.07,306.533 1574.52,304.663 1585.52,300.593 L1584.31,292.123 C1576.06,296.413 1563.96,299.163 1553.07,299.163 C1543.61,299.163 1535.69,297.293 1531.62,294.103 C1528.98,291.903 1527.44,288.933 1527.44,285.523 C1527.44,281.563 1529.75,277.603 1533.38,275.293 C1538.33,272.213 1545.04,270.673 1554.28,270.673 C1561.76,270.673 1567.92,271.663 1573.53,273.533 C1576.61,274.633 1578.15,275.623 1581.12,278.043 L1588.49,273.863 C1580.79,263.633 1572.65,250.433 1568.69,241.853 C1569.79,241.633 1569.79,241.633 1572.43,241.083 C1579.36,239.763 1580.68,239.433 1587.28,237.673 C1590.58,236.793 1591.46,236.573 1593.77,236.133 L1592.67,228.323 C1586.73,230.853 1576.72,233.493 1566.05,235.253 C1565.06,233.163 1564.73,232.613 1562.09,225.573 C1559.34,218.533 1559.34,218.533 1558.9,215.673 L1550.21,216.883 C1551.2,218.863 1551.86,220.403 1553.07,223.263 C1555.05,228.213 1556.81,232.613 1558.46,236.353 C1548.12,237.783 1535.69,238.663 1525.68,238.663 C1521.94,238.663 1520.07,238.553 1517.21,238.113 L1517.65,246.143 M1660.32,215.673 C1660.76,218.313 1660.76,219.193 1660.87,224.583 C1660.98,240.313 1661.75,261.543 1662.63,274.193 C1662.63,274.523 1662.63,274.743 1662.63,274.853 C1662.74,275.293 1662.74,275.403 1662.74,275.843 C1662.41,275.623 1662.41,275.623 1662.19,275.623 C1661.75,275.623 1661.75,275.513 1661.2,275.403 C1658.89,274.853 1654.93,274.413 1651.63,274.413 C1636.01,274.413 1625.78,281.233 1625.78,291.793 C1625.78,301.913 1634.47,308.073 1648.66,308.073 C1657.79,308.073 1664.83,305.323 1668.24,300.483 C1670,298.063 1670.99,293.993 1670.99,289.373 C1670.99,287.943 1670.77,285.853 1670.55,284.643 C1671.54,285.193 1671.65,285.193 1673.19,285.853 C1676.93,287.503 1682.98,290.913 1688.04,294.323 C1693.98,298.283 1697.17,301.033 1699.48,303.893 L1704.65,296.193 C1701.9,294.543 1701.9,294.433 1699.59,292.783 C1688.15,284.533 1679.13,279.693 1670.22,277.163 C1669.67,270.123 1669.12,259.453 1668.79,248.783 C1677.92,248.563 1685.4,247.903 1695.3,246.363 C1700.03,245.703 1700.03,245.703 1701.9,245.593 L1700.91,237.453 C1694.86,239.873 1680.78,241.633 1668.68,241.633 C1668.46,233.823 1668.46,232.613 1668.46,230.193 C1668.46,221.613 1668.57,218.423 1669.12,215.673 L1660.32,215.673 M1662.85,282.883 C1662.96,282.883 1663.18,287.283 1663.18,288.933 C1663.18,293.113 1662.41,295.423 1660.54,297.183 C1657.9,299.493 1653.61,300.813 1648.33,300.813 C1642.5,300.813 1637.44,299.163 1635.13,296.413 C1634.14,295.313 1633.48,293.443 1633.48,291.683 C1633.48,285.303 1640.3,281.343 1651.52,281.343 C1655.81,281.343 1658.34,281.673 1662.85,282.883 M1751.51,225.133 C1766.25,229.313 1779.78,231.403 1797.71,232.393 L1798.92,224.473 C1780.88,224.253 1764.93,221.723 1754.15,217.653 L1751.51,225.133 M1740.07,260.883 C1748.65,257.363 1770.65,253.513 1781.98,253.513 C1787.7,253.513 1792.76,254.393 1795.51,255.933 C1800.02,258.353 1802.55,262.753 1802.55,268.253 C1802.55,273.313 1800.68,278.263 1796.94,283.213 C1794.3,286.623 1791.88,288.603 1787.48,291.023 C1778.24,296.303 1768.23,299.163 1756.57,299.933 C1758.22,302.573 1758.66,303.563 1760.09,307.963 C1776.48,304.883 1783.63,302.573 1791.99,297.513 C1804.2,290.033 1810.91,279.583 1810.91,267.813 C1810.91,260.223 1807.72,254.173 1801.56,250.323 C1797.05,247.463 1790.89,246.143 1782.64,246.143 C1773.95,246.143 1763.72,247.353 1749.09,250.103 C1740.51,251.753 1740.51,251.753 1737.98,251.973 L1740.07,260.883 M1867.34,215.123 C1867.12,220.183 1865.36,229.533 1863.6,235.803 C1861.51,235.803 1857.88,235.913 1855.68,235.913 C1849.63,235.913 1846.33,235.693 1842.59,235.033 L1842.48,242.623 C1843.14,242.623 1843.69,242.623 1843.91,242.623 C1844.24,242.623 1845.12,242.623 1846.33,242.733 C1847.98,242.733 1851.72,242.843 1853.59,242.843 C1855.24,242.843 1858.98,242.733 1861.73,242.623 C1858.54,253.073 1855.35,260.993 1850.29,271.003 C1846.22,278.923 1843.25,283.763 1839.73,288.163 L1847.21,292.563 C1847.76,291.683 1848.42,290.363 1849.41,288.823 C1853.59,281.563 1854.58,279.693 1857.22,274.413 C1862.06,264.293 1866.02,254.063 1869.43,242.293 C1876.14,241.853 1882.96,240.973 1887.47,239.983 C1890.11,239.543 1890.11,239.543 1891.32,239.323 L1890.99,231.733 C1885.93,233.383 1879,234.703 1871.3,235.363 C1872.84,229.753 1873.5,227.113 1874.27,223.373 C1875.15,218.863 1875.26,218.423 1876.03,216.333 L1867.34,215.123 M1932.13,245.483 C1923.22,239.763 1915.85,236.023 1903.09,230.963 L1899.02,237.123 C1910.57,241.303 1918.93,245.703 1928.17,252.083 L1932.13,245.483 M1932.35,294.213 C1931.58,293.663 1931.58,293.663 1930.37,292.453 C1924.43,287.173 1917.61,282.993 1908.81,279.143 C1908.15,274.963 1907.6,267.373 1907.6,262.423 C1907.6,258.573 1907.93,256.263 1909.03,252.193 L1901.55,251.423 C1900.67,255.493 1900.45,258.133 1900.45,262.093 C1900.45,264.843 1900.67,270.013 1901.22,277.163 C1896.93,275.953 1894.18,275.513 1890.11,275.513 C1885.16,275.513 1880.98,276.283 1877.13,277.933 C1870.97,280.463 1866.9,285.963 1866.9,291.903 C1866.9,301.693 1875.15,307.853 1888.35,307.853 C1901.77,307.853 1909.25,301.583 1909.25,290.253 C1909.25,289.153 1909.25,288.493 1909.03,286.733 C1917.06,290.913 1923.99,296.413 1928.28,301.693 L1932.35,294.213 M1901.77,284.203 C1901.77,284.203 1901.99,287.613 1901.99,288.933 C1901.99,297.183 1897.7,300.923 1888.24,300.923 C1879.55,300.923 1874.27,297.513 1874.27,291.903 C1874.27,285.853 1880.21,282.003 1889.56,282.003 C1893.96,282.003 1897.15,282.553 1901.77,284.203 M1976.02,224.583 C1985.81,229.093 1985.81,229.093 1992.85,231.513 C2000.22,234.153 2000.22,234.153 2014.3,237.783 L2017.38,230.083 C2005.39,228.213 1988.67,222.713 1980.09,217.873 L1976.02,224.583 M1966.89,236.463 C1966.78,238.443 1966.67,239.323 1966.12,242.293 C1964.58,251.533 1962.6,264.293 1961.5,272.653 C1961.06,276.173 1960.95,277.163 1960.62,279.143 L1969.2,279.363 C1971.07,276.943 1971.84,276.173 1973.6,274.853 C1981.85,268.803 1993.18,265.283 2004.4,265.283 C2017.82,265.283 2025.74,270.563 2025.74,279.583 C2025.74,290.803 2014.19,298.063 1996.04,298.063 C1986.8,298.063 1976.35,295.973 1967.99,292.563 C1968.65,295.423 1968.76,296.853 1968.76,299.383 C1968.76,299.823 1968.76,300.483 1968.65,301.473 C1975.36,303.123 1975.36,303.123 1977.45,303.673 C1983.5,304.993 1990.1,305.653 1996.7,305.653 C2008.36,305.653 2017.05,303.343 2024.09,298.393 C2030.25,293.993 2033.99,286.843 2033.99,279.473 C2033.99,266.603 2022.44,258.243 2004.51,258.243 C1992.41,258.243 1980.31,261.873 1972.72,267.703 C1971.51,268.693 1970.74,269.463 1969.31,271.003 L1969.09,270.893 C1969.31,269.903 1969.42,269.683 1969.53,268.363 C1969.86,265.833 1970.08,265.063 1972.72,249.113 C1973.71,243.063 1974.26,240.423 1975.25,237.013 L1966.89,236.463 "/>
<path class="MeasureNumber" d="M228.053,1042.12 C227.053,1046.76 224.373,1054.72 218.653,1054.72 C217.493,1054.72 216.733,1054.24 216.733,1053.52 C216.733,1053.24 216.813,1053.12 217.133,1052.64 C217.533,1052.12 217.733,1051.64 217.733,1051.08 C217.733,1049.76 216.693,1048.76 215.333,1048.76 C213.733,1048.76 212.613,1049.96 212.613,1051.72 C212.613,1054.44 215.173,1056.4 218.733,1056.4 C227.493,1056.4 233.093,1045.2 233.093,1037.6 C233.093,1031.36 230.093,1027.64 225.133,1027.64 C219.173,1027.64 214.733,1033.12 214.733,1038.84 C214.733,1042.64 217.653,1045.52 221.533,1045.52 C224.173,1045.52 226.213,1044.44 228.053,1042.12 M225.093,1029.32 C227.653,1029.32 229.293,1031.36 229.293,1034.56 C229.293,1039.52 226.573,1043.16 222.893,1043.16 C220.373,1043.16 218.973,1041.44 218.973,1038.44 C218.973,1034.84 220.693,1029.32 225.093,1029.32"/>
<path class="TieSegment" stroke="#000000" stroke-width="1.74" stroke-linecap="round" stroke-linejoin="round" fill-rule="evenodd" d="M2289.74,1247.6 C2333.19,1272.29 2463.56,1272.29 2507.01,1247.6 C2463.56,1279.23 2333.19,1279.23 2289.74,1247.6"/>
<path class="TieSegment" stroke="#000000" stroke-width="1.74" stroke-linecap="round" stroke-linejoin="round" fill-rule="evenodd" d="M2302.97,763.995 C2353.14,790.424 2503.64,790.424 2553.8,763.995 C2503.64,797.368 2353.14,797.368 2302.97,763.995"/>
<polyline class="BarLine" fill="none" stroke="#000000" stroke-width="4.46" stroke-linejoin="bevel" points="683.95,632.834 683.95,734.762"/>
<polyline class="BarLine" fill="none" stroke="#000000" stroke-width="4.46" stroke-linejoin="bevel" points="2740.42,1104.03 2740.42,1205.96"/>
<polyline class="BarLine" fill="none" stroke="#000000" stroke-width="13.64" stroke-linejoin="bevel" points="2757.78,1104.03 2757.78,1205.96"/>
<polyline class="BarLine" fill="none" stroke="#000000" stroke-width="4.46" stroke-linejoin="bevel" points="2459.79,1104.03 2459.79,1205.96"/>
<polyline class="BarLine" fill="none" stroke="#000000" stroke-width="4.46" stroke-linejoin="bevel" points="2237.56,1104.03 2237.56,1205.96"/>
<polyline class="BarLine" fill="none" stroke="#000000" stroke-width="4.46" stroke-linejoin="bevel" points="1899.85,1104.03 1899.85,1205.96"/>
<polyline class="BarLine" fill="none" stroke="#000000" stroke-width="4.46" stroke-linejoin="bevel" points="1599.04,1104.03 1599.04,1205.96"/>
<polyline class="BarLine" fill="none" stroke="#000000" stroke-width="4.46" stroke-linejoin="bevel" points="1318.41,1104.03 1318.41,1205.96"/>
<polyline class="BarLine" fill="none" stroke="#000000" stroke-width="4.46" stroke-linejoin="bevel" points="1000.88,1104.03 1000.88,1205.96"/>
<polyline class="BarLine" fill="none" stroke="#000000" stroke-width="4.46" stroke-linejoin="bevel" points="683.349,1104.03 683.349,1205.96"/>
<polyline class="BarLine" fill="none" stroke="#000000" stroke-width="4.46" stroke-linejoin="bevel" points="2762.37,632.834 2762.37,734.762"/>
<polyline class="BarLine" fill="none" stroke="#000000" stroke-width="4.46" stroke-linejoin="bevel" points="2506.58,632.834 2506.58,734.762"/>
<polyline class="BarLine" fill="none" stroke="#000000" stroke-width="4.46" stroke-linejoin="bevel" points="2250.79,632.834 2250.79,734.762"/>
<polyline class="BarLine" fill="none" stroke="#000000" stroke-width="4.46" stroke-linejoin="bevel" points="1881.86,632.834 1881.86,734.762"/>
<polyline class="BarLine" fill="none" stroke="#000000" stroke-width="4.46" stroke-linejoin="bevel" points="1485.85,632.834 1485.85,734.762"/>
<polyline class="BarLine" fill="none" stroke="#000000" stroke-width="4.46" stroke-linejoin="bevel" points="1291.49,632.834 1291.49,734.762"/>
<polyline class="BarLine" fill="none" stroke="#000000" stroke-width="4.46" stroke-linejoin="bevel" points="969.715,632.834 969.715,734.762"/>
<path class="Accidental" transform="matrix(0.992,0,0,0.992,1772.86,758.198)" d="M23.3,-10.5 C23.9,-10.6 24.4,-11.3 24.4,-11.9 L24.4,-17.8 C24.4,-18.8 23.7,-19.2 22.8,-19.2 L19.5,-18.5 L19.5,-33.4 L16.7,-33.4 L16.7,-17.9 L7.8,-16.1 L7.8,-30.2 L5,-30.2 L5,-15.5 L1.1,-14.7 C0.5,-14.6 0,-13.9 0,-13.3 L0,-7.5 C0,-6.4 0.8,-6.1 1.7,-6.1 L5,-6.8 L5,9.7 L1.1,10.5 C0.5,10.6 0,11.3 0,11.9 L0,17.7 C0,18.8 0.8,19.1 1.7,19.1 L5,18.4 L5,33.3 L7.8,33.3 L7.8,17.8 L16.7,16 L16.7,30.1 L19.5,30.1 L19.5,15.4 L23.3,14.7 C23.9,14.6 24.4,13.9 24.4,13.3 L24.4,7.4 C24.4,6.4 23.7,6 22.8,6 L19.5,6.7 L19.5,-9.8 L23.3,-10.5 M7.8,-7.4 L16.7,-9.2 L16.7,7.3 L7.8,9.2 L7.8,-7.4 "/>
<polyline class="LedgerLine" fill="none" stroke="#000000" stroke-width="3.97" stroke-linejoin="bevel" points="2115.18,758.198 2164.77,758.198"/>
<polyline class="LedgerLine" fill="none" stroke="#000000" stroke-width="3.97" stroke-linejoin="bevel" points="2263.35,1229.4 2312.93,1229.4"/>
<polyline class="LedgerLine" fill="none" stroke="#000000" stroke-width="3.97" stroke-linejoin="bevel" points="2115.18,782.998 2164.77,782.998"/>
<polyline class="LedgerLine" fill="none" stroke="#000000" stroke-width="3.97" stroke-linejoin="bevel" points="1801.52,758.198 1851.11,758.198"/>
<polyline class="LedgerLine" fill="none" stroke="#000000" stroke-width="3.97" stroke-linejoin="bevel" points="1717.08,758.198 1766.66,758.198"/>
<polyline class="LedgerLine" fill="none" stroke="#000000" stroke-width="3.97" stroke-linejoin="bevel" points="1652.93,758.198 1702.52,758.198"/>
<polyline class="LedgerLine" fill="none" stroke="#000000" stroke-width="3.97" stroke-linejoin="bevel" points="1490.56,1229.4 1540.14,1229.4"/>
<polyline class="LedgerLine" fill="none" stroke="#000000" stroke-width="3.97" stroke-linejoin="bevel" points="2485.58,1229.4 2535.17,1229.4"/>
<polyline class="LedgerLine" fill="none" stroke="#000000" stroke-width="3.97" stroke-linejoin="bevel" points="1511.64,782.998 1561.22,782.998"/>
<polyline class="LedgerLine" fill="none" stroke="#000000" stroke-width="3.97" stroke-linejoin="bevel" points="1511.64,758.198 1561.22,758.198"/>
<polyline class="LedgerLine" fill="none" stroke="#000000" stroke-width="3.97" stroke-linejoin="bevel" points="1344.2,1229.4 1393.79,1229.4"/>
<polyline class="Stem" fill="none" stroke="#000000" stroke-width="2.73" stroke-linejoin="bevel" points="748.681,1163.43 748.681,1086.8"/>
<polyline class="Stem" fill="none" stroke="#000000" stroke-width="2.73" stroke-linejoin="bevel" points="2210,729.43 2210,659.144"/>
<polyline class="Stem" fill="none" stroke="#000000" stroke-width="2.73" stroke-linejoin="bevel" points="642.553,1175.83 642.553,1105.46"/>
<polyline class="Stem" fill="none" stroke="#000000" stroke-width="2.73" stroke-linejoin="bevel" points="895.037,1163.43 895.037,1099.2"/>
<polyline class="Stem" fill="none" stroke="#000000" stroke-width="2.73" stroke-linejoin="bevel" points="2196.76,1200.63 2196.76,1130.32"/>
<polyline class="Stem" fill="none" stroke="#000000" stroke-width="2.73" stroke-linejoin="bevel" points="577.506,1188.23 577.506,1108.5"/>
<polyline class="Stem" fill="none" stroke="#000000" stroke-width="2.73" stroke-linejoin="bevel" points="2131.71,1213.03 2131.71,1136.27"/>
<polyline class="Stem" fill="none" stroke="#000000" stroke-width="2.73" stroke-linejoin="bevel" points="512.459,1200.63 512.459,1111.53"/>
<polyline class="Stem" fill="none" stroke="#000000" stroke-width="2.73" stroke-linejoin="bevel" points="643.154,704.63 643.154,634.273"/>
<polyline class="Stem" fill="none" stroke="#000000" stroke-width="2.73" stroke-linejoin="bevel" points="1551.18,779.03 1551.18,683.798"/>
<polyline class="Stem" fill="none" stroke="#000000" stroke-width="2.73" stroke-linejoin="bevel" points="960.084,1163.43 960.084,1099.2"/>
<polyline class="Stem" fill="none" stroke="#000000" stroke-width="2.73" stroke-linejoin="bevel" points="1250.7,717.03 1250.7,640.324"/>
<polyline class="Stem" fill="none" stroke="#000000" stroke-width="2.73" stroke-linejoin="bevel" points="749.282,692.23 749.282,615.598"/>
<polyline class="Stem" fill="none" stroke="#000000" stroke-width="2.73" stroke-linejoin="bevel" points="1965.18,1175.83 1965.18,1093"/>
<polyline class="Stem" fill="none" stroke="#000000" stroke-width="2.73" stroke-linejoin="bevel" points="1066.21,1175.83 1066.21,1093"/>
<polyline class="Stem" fill="none" stroke="#000000" stroke-width="2.73" stroke-linejoin="bevel" points="388.771,1175.83 388.771,1093"/>
<polyline class="Stem" fill="none" stroke="#000000" stroke-width="2.73" stroke-linejoin="bevel" points="1692.47,766.63 1692.47,689.943"/>
<polyline class="Stem" fill="none" stroke="#000000" stroke-width="2.73" stroke-linejoin="bevel" points="1195.42,704.63 1195.42,637.298"/>
<polyline class="Stem" fill="none" stroke="#000000" stroke-width="2.73" stroke-linejoin="bevel" points="1212.57,1200.63 1212.57,1130.32"/>
<polyline class="Stem" fill="none" stroke="#000000" stroke-width="2.73" stroke-linejoin="bevel" points="1830.91,1163.43 1830.91,1086.8"/>
<polyline class="Stem" fill="none" stroke="#000000" stroke-width="2.73" stroke-linejoin="bevel" points="1756.62,754.23 1756.62,687.314"/>
<polyline class="Stem" fill="none" stroke="#000000" stroke-width="2.73" stroke-linejoin="bevel" points="2302.89,1225.43 2302.89,1142.6"/>
<polyline class="Stem" fill="none" stroke="#000000" stroke-width="2.73" stroke-linejoin="bevel" points="532.608,729.43 532.608,640.324"/>
<polyline class="Stem" fill="none" stroke="#000000" stroke-width="2.73" stroke-linejoin="bevel" points="1277.61,1213.03 1277.61,1136.27"/>
<polyline class="Stem" fill="none" stroke="#000000" stroke-width="2.73" stroke-linejoin="bevel" points="1841.06,754.23 1841.06,683.854"/>
<polyline class="Stem" fill="none" stroke="#000000" stroke-width="2.73" stroke-linejoin="bevel" points="2571.91,741.83 2571.91,658.998"/>
<polyline class="Stem" fill="none" stroke="#000000" stroke-width="2.73" stroke-linejoin="bevel" points="1140.15,704.63 1140.15,634.273"/>
<polyline class="Stem" fill="none" stroke="#000000" stroke-width="2.73" stroke-linejoin="bevel" points="873.646,692.23 873.646,627.998"/>
<polyline class="Stem" fill="none" stroke="#000000" stroke-width="2.73" stroke-linejoin="bevel" points="1383.74,1225.43 1383.74,1142.6"/>
<polyline class="Stem" fill="none" stroke="#000000" stroke-width="2.73" stroke-linejoin="bevel" points="1530.1,1225.43 1530.1,1142.6"/>
<polyline class="Stem" fill="none" stroke="#000000" stroke-width="2.73" stroke-linejoin="bevel" points="1947.19,741.83 1947.19,658.998"/>
<polyline class="Stem" fill="none" stroke="#000000" stroke-width="2.73" stroke-linejoin="bevel" points="2525.12,1225.43 2525.12,1142.6"/>
<polyline class="Stem" fill="none" stroke="#000000" stroke-width="2.73" stroke-linejoin="bevel" points="1664.37,1213.03 1664.37,1130.2"/>
<polyline class="Stem" fill="none" stroke="#000000" stroke-width="2.73" stroke-linejoin="bevel" points="1035.05,704.63 1035.05,621.798"/>
<polyline class="Stem" fill="none" stroke="#000000" stroke-width="2.73" stroke-linejoin="bevel" points="2154.73,779.03 2154.73,665.053"/>
<polyline class="Stem" fill="none" stroke="#000000" stroke-width="2.73" stroke-linejoin="bevel" points="2316.13,741.83 2316.13,658.998"/>
<polyline class="Stem" fill="none" stroke="#000000" stroke-width="2.73" stroke-linejoin="bevel" points="928.919,692.23 928.919,627.998"/>
<polyline class="Stem" fill="none" stroke="#000000" stroke-width="2.73" stroke-linejoin="bevel" points="587.881,717.03 587.881,637.298"/>
<polyline class="Stem" fill="none" stroke="#000000" stroke-width="2.73" stroke-linejoin="bevel" points="427.506,704.63 427.506,621.798"/>
<polyline class="Stem" fill="none" stroke="#000000" stroke-width="2.73" stroke-linejoin="bevel" points="1356.82,729.43 1356.82,646.598"/>
<path class="Note" transform="matrix(0.992,0,0,0.992,1499.24,1229.4)" d="M0,4.2 C0,8.5 3.1,13.3 11.2,13.3 C21.6,13.3 32.5,4.8 32.5,-4 C32.5,-9.9 27.5,-13.2 21.3,-13.2 C11.6,-13.2 0,-5 0,4.2"/>
<path class="Note" transform="matrix(0.992,0,0,0.992,2179.14,733.398)" d="M0,4.2 C0,8.5 3.1,13.3 11.2,13.3 C21.6,13.3 32.5,4.8 32.5,-4 C32.5,-9.9 27.5,-13.2 21.3,-13.2 C11.6,-13.2 0,-5 0,4.2"/>
<path class="Note" transform="matrix(0.992,0,0,0.992,2123.86,782.998)" d="M0,4.2 C0,8.5 3.1,13.3 11.2,13.3 C21.6,13.3 32.5,4.8 32.5,-4 C32.5,-9.9 27.5,-13.2 21.3,-13.2 C11.6,-13.2 0,-5 0,4.2"/>
<path class="Note" transform="matrix(0.992,0,0,0.992,898.059,696.198)" d="M0,4.2 C0,8.5 3.1,13.3 11.2,13.3 C21.6,13.3 32.5,4.8 32.5,-4 C32.5,-9.9 27.5,-13.2 21.3,-13.2 C11.6,-13.2 0,-5 0,4.2"/>
<path class="Note" transform="matrix(0.992,0,0,0.992,612.293,708.598)" d="M0,4.2 C0,8.5 3.1,13.3 11.2,13.3 C21.6,13.3 32.5,4.8 32.5,-4 C32.5,-9.9 27.5,-13.2 21.3,-13.2 C11.6,-13.2 0,-5 0,4.2"/>
<path class="Note" transform="matrix(0.992,0,0,0.992,2285.27,745.798)" d="M21.3,-13.2 C11.6,-13.2 0,-5.1 0,4.2 C0,8.5 3.1,13.3 11.2,13.3 C21.6,13.3 32.5,4.8 32.5,-4 C32.5,-9.9 27.5,-13.2 21.3,-13.2 M7.5,8.6 C4.2,8.6 3.5,5.9 3.5,5 C3.5,0.1 20.3,-8.5 25,-8.5 C27.4,-8.5 29,-7.1 29,-4.9 C29,0.1 12.1,8.6 7.5,8.6"/>
<path class="Note" transform="matrix(0.992,0,0,0.992,1916.33,745.798)" d="M21.3,-13.2 C11.6,-13.2 0,-5.1 0,4.2 C0,8.5 3.1,13.3 11.2,13.3 C21.6,13.3 32.5,4.8 32.5,-4 C32.5,-9.9 27.5,-13.2 21.3,-13.2 M7.5,8.6 C4.2,8.6 3.5,5.9 3.5,5 C3.5,0.1 20.3,-8.5 25,-8.5 C27.4,-8.5 29,-7.1 29,-4.9 C29,0.1 12.1,8.6 7.5,8.6"/>
<path class="Note" transform="matrix(0.992,0,0,0.992,1004.19,708.598)" d="M0,4.2 C0,8.5 3.1,13.3 11.2,13.3 C21.6,13.3 32.5,4.8 32.5,-4 C32.5,-9.9 27.5,-13.2 21.3,-13.2 C11.6,-13.2 0,-5 0,4.2"/>
<path class="Note" transform="matrix(0.992,0,0,0.992,1352.88,1229.4)" d="M21.3,-13.2 C11.6,-13.2 0,-5.1 0,4.2 C0,8.5 3.1,13.3 11.2,13.3 C21.6,13.3 32.5,4.8 32.5,-4 C32.5,-9.9 27.5,-13.2 21.3,-13.2 M7.5,8.6 C4.2,8.6 3.5,5.9 3.5,5 C3.5,0.1 20.3,-8.5 25,-8.5 C27.4,-8.5 29,-7.1 29,-4.9 C29,0.1 12.1,8.6 7.5,8.6"/>
<path class="Note" transform="matrix(0.992,0,0,0.992,842.786,696.198)" d="M0,4.2 C0,8.5 3.1,13.3 11.2,13.3 C21.6,13.3 32.5,4.8 32.5,-4 C32.5,-9.9 27.5,-13.2 21.3,-13.2 C11.6,-13.2 0,-5 0,4.2"/>
<path class="Note" transform="matrix(0.992,0,0,0.992,557.02,720.998)" d="M0,4.2 C0,8.5 3.1,13.3 11.2,13.3 C21.6,13.3 32.5,4.8 32.5,-4 C32.5,-9.9 27.5,-13.2 21.3,-13.2 C11.6,-13.2 0,-5 0,4.2"/>
<path class="Note" transform="matrix(0.992,0,0,0.992,2272.03,1229.4)" d="M21.3,-13.2 C11.6,-13.2 0,-5.1 0,4.2 C0,8.5 3.1,13.3 11.2,13.3 C21.6,13.3 32.5,4.8 32.5,-4 C32.5,-9.9 27.5,-13.2 21.3,-13.2 M7.5,8.6 C4.2,8.6 3.5,5.9 3.5,5 C3.5,0.1 20.3,-8.5 25,-8.5 C27.4,-8.5 29,-7.1 29,-4.9 C29,0.1 12.1,8.6 7.5,8.6"/>
<path class="Note" transform="matrix(0.992,0,0,0.992,2494.26,1229.4)" d="M21.3,-13.2 C11.6,-13.2 0,-5.1 0,4.2 C0,8.5 3.1,13.3 11.2,13.3 C21.6,13.3 32.5,4.8 32.5,-4 C32.5,-9.9 27.5,-13.2 21.3,-13.2 M7.5,8.6 C4.2,8.6 3.5,5.9 3.5,5 C3.5,0.1 20.3,-8.5 25,-8.5 C27.4,-8.5 29,-7.1 29,-4.9 C29,0.1 12.1,8.6 7.5,8.6"/>
<path class="Note" transform="matrix(0.992,0,0,0.992,501.747,733.398)" d="M0,4.2 C0,8.5 3.1,13.3 11.2,13.3 C21.6,13.3 32.5,4.8 32.5,-4 C32.5,-9.9 27.5,-13.2 21.3,-13.2 C11.6,-13.2 0,-5 0,4.2"/>
<path class="Note" transform="matrix(0.992,0,0,0.992,1109.29,708.598)" d="M0,4.2 C0,8.5 3.1,13.3 11.2,13.3 C21.6,13.3 32.5,4.8 32.5,-4 C32.5,-9.9 27.5,-13.2 21.3,-13.2 C11.6,-13.2 0,-5 0,4.2"/>
<path class="Note" transform="matrix(0.992,0,0,0.992,396.645,708.598)" d="M0,4.2 C0,8.5 3.1,13.3 11.2,13.3 C21.6,13.3 32.5,4.8 32.5,-4 C32.5,-9.9 27.5,-13.2 21.3,-13.2 C11.6,-13.2 0,-5 0,4.2"/>
<path class="Note" transform="matrix(0.992,0,0,0.992,1246.75,1217)" d="M0,4.2 C0,8.5 3.1,13.3 11.2,13.3 C21.6,13.3 32.5,4.8 32.5,-4 C32.5,-9.9 27.5,-13.2 21.3,-13.2 C11.6,-13.2 0,-5 0,4.2"/>
<path class="Note" transform="matrix(0.992,0,0,0.992,1633.51,1217)" d="M21.3,-13.2 C11.6,-13.2 0,-5.1 0,4.2 C0,8.5 3.1,13.3 11.2,13.3 C21.6,13.3 32.5,4.8 32.5,-4 C32.5,-9.9 27.5,-13.2 21.3,-13.2 M7.5,8.6 C4.2,8.6 3.5,5.9 3.5,5 C3.5,0.1 20.3,-8.5 25,-8.5 C27.4,-8.5 29,-7.1 29,-4.9 C29,0.1 12.1,8.6 7.5,8.6"/>
<path class="Note" transform="matrix(0.992,0,0,0.992,1181.71,1204.6)" d="M0,4.2 C0,8.5 3.1,13.3 11.2,13.3 C21.6,13.3 32.5,4.8 32.5,-4 C32.5,-9.9 27.5,-13.2 21.3,-13.2 C11.6,-13.2 0,-5 0,4.2"/>
<path class="Note" transform="matrix(0.992,0,0,0.992,1725.76,758.198)" d="M0,4.2 C0,8.5 3.1,13.3 11.2,13.3 C21.6,13.3 32.5,4.8 32.5,-4 C32.5,-9.9 27.5,-13.2 21.3,-13.2 C11.6,-13.2 0,-5 0,4.2"/>
<path class="Note" transform="matrix(0.992,0,0,0.992,1661.61,770.598)" d="M0,4.2 C0,8.5 3.1,13.3 11.2,13.3 C21.6,13.3 32.5,4.8 32.5,-4 C32.5,-9.9 27.5,-13.2 21.3,-13.2 C11.6,-13.2 0,-5 0,4.2"/>
<path class="Note" transform="matrix(0.992,0,0,0.992,2541.05,745.798)" d="M21.3,-13.2 C11.6,-13.2 0,-5.1 0,4.2 C0,8.5 3.1,13.3 11.2,13.3 C21.6,13.3 32.5,4.8 32.5,-4 C32.5,-9.9 27.5,-13.2 21.3,-13.2 M7.5,8.6 C4.2,8.6 3.5,5.9 3.5,5 C3.5,0.1 20.3,-8.5 25,-8.5 C27.4,-8.5 29,-7.1 29,-4.9 C29,0.1 12.1,8.6 7.5,8.6"/>
<path class="Note" transform="matrix(0.992,0,0,0.992,1035.35,1179.8)" d="M21.3,-13.2 C11.6,-13.2 0,-5.1 0,4.2 C0,8.5 3.1,13.3 11.2,13.3 C21.6,13.3 32.5,4.8 32.5,-4 C32.5,-9.9 27.5,-13.2 21.3,-13.2 M7.5,8.6 C4.2,8.6 3.5,5.9 3.5,5 C3.5,0.1 20.3,-8.5 25,-8.5 C27.4,-8.5 29,-7.1 29,-4.9 C29,0.1 12.1,8.6 7.5,8.6"/>
<path class="Note" transform="matrix(0.992,0,0,0.992,718.422,696.198)" d="M21.3,-13.2 C11.6,-13.2 0,-5.1 0,4.2 C0,8.5 3.1,13.3 11.2,13.3 C21.6,13.3 32.5,4.8 32.5,-4 C32.5,-9.9 27.5,-13.2 21.3,-13.2 M7.5,8.6 C4.2,8.6 3.5,5.9 3.5,5 C3.5,0.1 20.3,-8.5 25,-8.5 C27.4,-8.5 29,-7.1 29,-4.9 C29,0.1 12.1,8.6 7.5,8.6"/>
<path class="Note" transform="matrix(0.992,0,0,0.992,1800.05,1167.4)" d="M0,4.2 C0,8.5 3.1,13.3 11.2,13.3 C21.6,13.3 32.5,4.8 32.5,-4 C32.5,-9.9 27.5,-13.2 21.3,-13.2 C11.6,-13.2 0,-5 0,4.2"/>
<path class="Note" transform="matrix(0.992,0,0,0.992,1164.56,708.598)" d="M0,4.2 C0,8.5 3.1,13.3 11.2,13.3 C21.6,13.3 32.5,4.8 32.5,-4 C32.5,-9.9 27.5,-13.2 21.3,-13.2 C11.6,-13.2 0,-5 0,4.2"/>
<path class="Note" transform="matrix(0.992,0,0,0.992,357.911,1179.8)" d="M0,4.2 C0,8.5 3.1,13.3 11.2,13.3 C21.6,13.3 32.5,4.8 32.5,-4 C32.5,-9.9 27.5,-13.2 21.3,-13.2 C11.6,-13.2 0,-5 0,4.2"/>
<path class="Note" transform="matrix(0.992,0,0,0.992,1520.32,782.998)" d="M0,4.2 C0,8.5 3.1,13.3 11.2,13.3 C21.6,13.3 32.5,4.8 32.5,-4 C32.5,-9.9 27.5,-13.2 21.3,-13.2 C11.6,-13.2 0,-5 0,4.2"/>
<path class="Note" transform="matrix(0.992,0,0,0.992,929.223,1167.4)" d="M0,4.2 C0,8.5 3.1,13.3 11.2,13.3 C21.6,13.3 32.5,4.8 32.5,-4 C32.5,-9.9 27.5,-13.2 21.3,-13.2 C11.6,-13.2 0,-5 0,4.2"/>
<path class="Note" transform="matrix(0.992,0,0,0.992,1219.83,720.998)" d="M0,4.2 C0,8.5 3.1,13.3 11.2,13.3 C21.6,13.3 32.5,4.8 32.5,-4 C32.5,-9.9 27.5,-13.2 21.3,-13.2 C11.6,-13.2 0,-5 0,4.2"/>
<path class="Note" transform="matrix(0.992,0,0,0.992,1934.32,1179.8)" d="M21.3,-13.2 C11.6,-13.2 0,-5.1 0,4.2 C0,8.5 3.1,13.3 11.2,13.3 C21.6,13.3 32.5,4.8 32.5,-4 C32.5,-9.9 27.5,-13.2 21.3,-13.2 M7.5,8.6 C4.2,8.6 3.5,5.9 3.5,5 C3.5,0.1 20.3,-8.5 25,-8.5 C27.4,-8.5 29,-7.1 29,-4.9 C29,0.1 12.1,8.6 7.5,8.6"/>
<path class="Note" transform="matrix(0.992,0,0,0.992,481.598,1204.6)" d="M0,4.2 C0,8.5 3.1,13.3 11.2,13.3 C21.6,13.3 32.5,4.8 32.5,-4 C32.5,-9.9 27.5,-13.2 21.3,-13.2 C11.6,-13.2 0,-5 0,4.2"/>
<path class="Note" transform="matrix(0.992,0,0,0.992,864.176,1167.4)" d="M0,4.2 C0,8.5 3.1,13.3 11.2,13.3 C21.6,13.3 32.5,4.8 32.5,-4 C32.5,-9.9 27.5,-13.2 21.3,-13.2 C11.6,-13.2 0,-5 0,4.2"/>
<path class="Note" transform="matrix(0.992,0,0,0.992,2100.85,1217)" d="M0,4.2 C0,8.5 3.1,13.3 11.2,13.3 C21.6,13.3 32.5,4.8 32.5,-4 C32.5,-9.9 27.5,-13.2 21.3,-13.2 C11.6,-13.2 0,-5 0,4.2"/>
<path class="Note" transform="matrix(0.992,0,0,0.992,546.645,1192.2)" d="M0,4.2 C0,8.5 3.1,13.3 11.2,13.3 C21.6,13.3 32.5,4.8 32.5,-4 C32.5,-9.9 27.5,-13.2 21.3,-13.2 C11.6,-13.2 0,-5 0,4.2"/>
<path class="Note" transform="matrix(0.992,0,0,0.992,2165.9,1204.6)" d="M0,4.2 C0,8.5 3.1,13.3 11.2,13.3 C21.6,13.3 32.5,4.8 32.5,-4 C32.5,-9.9 27.5,-13.2 21.3,-13.2 C11.6,-13.2 0,-5 0,4.2"/>
<path class="Note" transform="matrix(0.992,0,0,0.992,1325.96,733.398)" d="M21.3,-13.2 C11.6,-13.2 0,-5.1 0,4.2 C0,8.5 3.1,13.3 11.2,13.3 C21.6,13.3 32.5,4.8 32.5,-4 C32.5,-9.9 27.5,-13.2 21.3,-13.2 M7.5,8.6 C4.2,8.6 3.5,5.9 3.5,5 C3.5,0.1 20.3,-8.5 25,-8.5 C27.4,-8.5 29,-7.1 29,-4.9 C29,0.1 12.1,8.6 7.5,8.6"/>
<path class="Note" transform="matrix(0.992,0,0,0.992,611.692,1179.8)" d="M0,4.2 C0,8.5 3.1,13.3 11.2,13.3 C21.6,13.3 32.5,4.8 32.5,-4 C32.5,-9.9 27.5,-13.2 21.3,-13.2 C11.6,-13.2 0,-5 0,4.2"/>
<path class="Note" transform="matrix(0.992,0,0,0.992,717.821,1167.4)" d="M21.3,-13.2 C11.6,-13.2 0,-5.1 0,4.2 C0,8.5 3.1,13.3 11.2,13.3 C21.6,13.3 32.5,4.8 32.5,-4 C32.5,-9.9 27.5,-13.2 21.3,-13.2 M7.5,8.6 C4.2,8.6 3.5,5.9 3.5,5 C3.5,0.1 20.3,-8.5 25,-8.5 C27.4,-8.5 29,-7.1 29,-4.9 C29,0.1 12.1,8.6 7.5,8.6"/>
<path class="Note" transform="matrix(0.992,0,0,0.992,1810.2,758.198)" d="M0,4.2 C0,8.5 3.1,13.3 11.2,13.3 C21.6,13.3 32.5,4.8 32.5,-4 C32.5,-9.9 27.5,-13.2 21.3,-13.2 C11.6,-13.2 0,-5 0,4.2"/>
<path class="Clef" transform="matrix(0.992,0,0,0.992,232.438,1179.8)" d="M12.3,51.3 C12.3,57.9 17.3,66.6 30.8,66.6 C35.5,66.6 39.6,65.4 43.2,63.2 C48.6,59.4 50,52.8 50,46.5 C50,42.6 49.4,38.1 48.4,32.4 C48.1,30.4 47.5,27.4 46.9,23.5 C56.7,20.3 64,10.1 64,-0.2 C64,-15.3 53.3,-25.5 38.7,-25.5 C37.7,-31.5 36.7,-37.4 35.9,-43 C46.4,-54.1 53.7,-66.6 53.7,-82.5 C53.7,-91.6 50.9,-99 49.3,-102.6 C46.9,-107.7 44,-111.2 42.2,-111.2 C41.5,-111.2 38.4,-110 35.1,-106.1 C28.7,-98.5 26.9,-85.7 26.9,-77.3 C26.9,-71.9 27.4,-67 29.1,-55.8 C29,-55.7 23.8,-50.4 21.7,-48.7 C12.6,-40.3 0,-28.1 0,-8.1 C0,10.6 16.3,25.3 34.9,25.3 C37.8,25.3 40.5,25 42.8,24.6 C44.7,34.2 45.9,41.2 45.9,46.5 C45.9,56.9 40.5,62.4 30.4,62.4 C28,62.4 25.9,61.9 25.7,61.9 C25.6,61.8 25.4,61.7 25.4,61.6 C25.4,61.4 25.6,61.3 25.9,61.3 C30.6,60.5 35.3,56.5 35.3,50.1 C35.3,44.7 31.2,39 23.7,39 C16.7,39 12.3,44.7 12.3,51.3 M33.2,-82.2 C34.1,-86.2 38.7,-96.7 43.9,-96.7 C45.4,-96.7 47.8,-91.9 47.8,-84.9 C47.8,-74.5 40.1,-66.7 33.2,-59.9 C32.6,-63.9 32.1,-67.8 32.1,-72 C32.1,-75.7 32.4,-79.1 33.2,-82.2 M42,20.6 C40,21 38.1,21.2 36.2,21.2 C21.9,21.2 9.7,11.2 9.7,-3.9 C9.7,-16.1 18.3,-27 27.1,-34.6 C28.8,-36.1 30.4,-37.5 31.9,-39 C32.8,-33.6 33.5,-28.9 34.2,-24.8 C25.1,-22.1 18.9,-12.5 18.9,-3.1 C18.9,3.9 24.4,13.5 32.4,13.5 C33.2,13.5 34.1,13.1 34.1,12.2 C34.1,11.3 33.1,10.8 31.9,10 C28,7.6 25.8,5 25.8,0.1 C25.8,-6 30.4,-10.9 36.2,-12.3 L42,20.6 M56.2,2.1 C56.2,9.2 53.3,16.5 46.2,19.4 C44.1,7.4 41.4,-8.5 40.7,-12.9 C49.7,-12.9 56.2,-6.8 56.2,2.1"/>
<path class="Clef" transform="matrix(0.992,0,0,0.992,232.438,708.598)" d="M12.3,51.3 C12.3,57.9 17.3,66.6 30.8,66.6 C35.5,66.6 39.6,65.4 43.2,63.2 C48.6,59.4 50,52.8 50,46.5 C50,42.6 49.4,38.1 48.4,32.4 C48.1,30.4 47.5,27.4 46.9,23.5 C56.7,20.3 64,10.1 64,-0.2 C64,-15.3 53.3,-25.5 38.7,-25.5 C37.7,-31.5 36.7,-37.4 35.9,-43 C46.4,-54.1 53.7,-66.6 53.7,-82.5 C53.7,-91.6 50.9,-99 49.3,-102.6 C46.9,-107.7 44,-111.2 42.2,-111.2 C41.5,-111.2 38.4,-110 35.1,-106.1 C28.7,-98.5 26.9,-85.7 26.9,-77.3 C26.9,-71.9 27.4,-67 29.1,-55.8 C29,-55.7 23.8,-50.4 21.7,-48.7 C12.6,-40.3 0,-28.1 0,-8.1 C0,10.6 16.3,25.3 34.9,25.3 C37.8,25.3 40.5,25 42.8,24.6 C44.7,34.2 45.9,41.2 45.9,46.5 C45.9,56.9 40.5,62.4 30.4,62.4 C28,62.4 25.9,61.9 25.7,61.9 C25.6,61.8 25.4,61.7 25.4,61.6 C25.4,61.4 25.6,61.3 25.9,61.3 C30.6,60.5 35.3,56.5 35.3,50.1 C35.3,44.7 31.2,39 23.7,39 C16.7,39 12.3,44.7 12.3,51.3 M33.2,-82.2 C34.1,-86.2 38.7,-96.7 43.9,-96.7 C45.4,-96.7 47.8,-91.9 47.8,-84.9 C47.8,-74.5 40.1,-66.7 33.2,-59.9 C32.6,-63.9 32.1,-67.8 32.1,-72 C32.1,-75.7 32.4,-79.1 33.2,-82.2 M42,20.6 C40,21 38.1,21.2 36.2,21.2 C21.9,21.2 9.7,11.2 9.7,-3.9 C9.7,-16.1 18.3,-27 27.1,-34.6 C28.8,-36.1 30.4,-37.5 31.9,-39 C32.8,-33.6 33.5,-28.9 34.2,-24.8 C25.1,-22.1 18.9,-12.5 18.9,-3.1 C18.9,3.9 24.4,13.5 32.4,13.5 C33.2,13.5 34.1,13.1 34.1,12.2 C34.1,11.3 33.1,10.8 31.9,10 C28,7.6 25.8,5 25.8,0.1 C25.8,-6 30.4,-10.9 36.2,-12.3 L42,20.6 M56.2,2.1 C56.2,9.2 53.3,16.5 46.2,19.4 C44.1,7.4 41.4,-8.5 40.7,-12.9 C49.7,-12.9 56.2,-6.8 56.2,2.1"/>
<path class="TimeSig" transform="matrix(0.992,0,0,0.992,323.237,659.494)" d="M27.2,-1.6 C32.2,-3.5 35.7,-6.7 35.7,-12.2 C35.7,-13.1 35.4,-24.4 18.2,-24.4 C1,-24.4 1.5,-12.2 1.5,-12.2 L1.6,-12.2 L1.5,-12 C1.5,-8.4 4.4,-5.6 8,-5.6 C11.6,-5.6 14.4,-8.4 14.4,-12 C14.4,-14.9 12.2,-17.7 9.4,-18.3 C9.5,-18.4 9.6,-18.5 9.7,-18.6 C11.1,-19.6 13,-20.1 14.9,-20.1 C19.1,-20.1 23.6,-17.6 23.6,-12.2 C23.6,-5.9 18.9,-5 17.7,-4.8 C16.5,-4.6 10.9,-4.2 9.7,-4.2 C8.5,-4.2 8.4,-2.8 8.4,-2.8 L8.4,-0.8 C8.4,-0.8 8.6,0.3 9.7,0.4 C11.4,0.5 13.7,0.5 16.9,1 C21.3,1.6 23.6,4.6 23.6,11.6 C23.6,18.3 19.1,20.1 14.9,20.1 C12.1,20.1 9.5,19.3 8.4,18.5 C11.7,18.3 14.4,15.4 14.4,12.1 C14.4,8.5 11.6,5.6 8,5.6 C4.4,5.6 1.5,8.5 1.5,12.1 C1.5,20.3 9,24.4 16.4,24.4 C26,24.4 36.4,21.1 36.4,10.2 C36.4,2.9 31.4,-0.2 27,-1.6 L27.2,-1.6 "/>
<path class="TimeSig" transform="matrix(0.992,0,0,0.992,319.331,708.598)" d="M20.8,12.7 L20.8,20.1 L12.5,20.1 C11.8,20.1 11.1,20.7 11.1,21.5 L11.1,23.4 C11.1,24.2 11.8,24.8 12.5,24.8 L42.8,24.8 C43.6,24.8 44.2,24.2 44.2,23.4 L44.2,21.5 C44.2,20.7 43.6,20.1 42.8,20.1 L33.9,20.1 L33.9,12.7 L42.8,12.7 C43.6,12.7 44.2,12 44.2,11.2 L44.2,9.3 C44.2,8.6 43.6,7.9 42.8,7.9 L33.9,7.9 L33.9,-8 C33.9,-8.6 33.6,-9.1 33.1,-9.3 L31.9,-9.9 C31.7,-10 31.4,-10.1 31.2,-10.1 C30.9,-10 30.5,-9.9 30.3,-9.7 L21.2,-1.4 C20.9,-1.1 20.8,-0.7 20.8,-0.3 L20.8,7.9 L9.3,7.9 C9.3,7.9 20.4,-4.1 32.2,-19.9 C32.6,-20.4 32.7,-20.9 32.7,-21.3 C32.7,-21.8 32.5,-22.2 32.4,-22.3 L30.2,-24.5 C30,-24.7 29.6,-24.9 29.2,-24.9 C28.6,-24.9 15.1,-24.9 14.4,-24.9 C13.6,-24.9 13.1,-24.3 13,-23.7 C13,-23.7 12.5,-16.3 9.9,-8.2 C7.3,-0.1 4.3,4.9 1.7,8.6 C1.7,8.6 1.4,9.1 1.4,9.7 C1.4,9.9 1.4,10.1 1.5,10.3 C1.9,11 2.5,12.1 2.5,12.1 C2.5,12.1 2.7,12.7 3.6,12.7 L20.8,12.7 "/>
<path class="Rest" transform="matrix(0.992,0,0,0.992,2640.62,1155)" d="M23,16.6 C22.9,16.5 22.7,16.3 22.4,15.9 L10.9,1.7 C10.8,1.6 10.7,1.3 10.7,1.1 C10.7,0.8 10.8,0.4 10.9,0.2 L21.1,-15.2 C21.2,-15.4 21.3,-15.7 21.3,-15.9 L21.3,-16.8 C21.3,-17.1 21.2,-17.4 21,-17.6 L4.8,-39.5 C4.8,-39.5 4.4,-40.1 3.8,-40.1 C3.5,-40.1 3.3,-40.1 3,-39.8 C2.6,-39.5 2.5,-39.1 2.5,-38.8 C2.5,-38.2 2.8,-37.7 2.8,-37.7 L10.4,-27.3 C10.6,-27 10.7,-26.6 10.7,-26.1 C10.7,-25.7 10.6,-25.2 10.4,-24.9 L0.3,-9.5 C0.2,-9.3 0.1,-8.9 0.1,-8.7 L0.1,-7.8 C0.1,-7.5 0.2,-7.2 0.4,-7 L11.6,6.9 C11.2,6.8 10.3,6.6 9.1,6.6 C4,6.6 0,10.8 0,15.9 C0,17.3 0.3,18.7 1.1,19.8 C3.2,23 10.7,32.5 10.7,32.5 C10.7,32.5 11.2,33.1 11.9,33.1 C12.1,33.1 12.3,33.1 12.5,32.9 C13,32.5 13.2,32.1 13.2,31.7 C13.2,31.3 13,31 12.9,30.8 C12.6,30.3 9.4,24.5 9.4,24.5 C9.4,24.5 8.7,23.1 8.7,21.3 C8.7,18.1 11.1,15.5 14.3,15.5 C15.6,15.5 16.7,15.9 17.5,16.4 L21.4,18.9 C21.4,18.9 21.8,19.1 22.2,19.1 C22.6,19.1 22.9,19 23.2,18.6 C23.4,18.3 23.5,18 23.5,17.7 C23.5,17.4 23.4,17.2 23.2,16.9 L23,16.6 "/>
<path class="Beam" fill-rule="evenodd" d="M1211.2,1123.97 L1278.98,1130.17 L1278.98,1142.62 L1211.2,1136.42 L1211.2,1123.97 "/>
<path class="Beam" fill-rule="evenodd" d="M872.282,621.798 L930.283,621.798 L930.283,634.198 L872.282,634.198 L872.282,621.798 "/>
<path class="Beam" fill-rule="evenodd" d="M511.095,1105.39 L643.917,1099.19 L643.917,1111.61 L511.095,1117.81 L511.095,1105.39 "/>
<path class="Beam" fill-rule="evenodd" d="M893.673,1093 L961.448,1093 L961.448,1105.4 L893.673,1105.4 L893.673,1093 "/>
<path class="Beam" fill-rule="evenodd" d="M1138.79,627.989 L1252.06,634.189 L1252.06,646.608 L1138.79,640.408 L1138.79,627.989 "/>
<path class="Beam" fill-rule="evenodd" d="M2130.35,1130.17 L2198.12,1123.97 L2198.12,1136.42 L2130.35,1142.62 L2130.35,1130.17 "/>
<path class="Beam" fill-rule="evenodd" d="M1691.11,683.793 L1842.43,677.593 L1842.43,690.004 L1691.11,696.204 L1691.11,683.793 "/>
<path class="Beam" fill-rule="evenodd" d="M2153.36,658.963 L2211.36,652.763 L2211.36,665.234 L2153.36,671.434 L2153.36,658.963 "/>
<path class="Beam" fill-rule="evenodd" d="M531.244,634.189 L644.518,627.989 L644.518,640.408 L531.244,646.608 L531.244,634.189 "/>
<path class="Harmony" d="M1750.23,1003.3 L1748.14,1003.3 L1746,1006.6 C1742.42,1003.8 1740,1002.86 1735.99,1002.86 C1731.64,1002.86 1728.23,1004.07 1724.77,1006.88 C1719.32,1011.28 1716.79,1016.83 1716.79,1024.26 C1716.79,1029.87 1718.39,1034.54 1721.63,1038.12 C1725.04,1041.97 1730.1,1044.22 1735.38,1044.22 C1740,1044.22 1743.25,1042.79 1746.82,1039.22 L1748.86,1044.17 L1751.17,1044.17 L1751.17,1032.07 C1751.17,1029.26 1751.17,1029.15 1751.5,1028.66 C1751.99,1028.05 1752.98,1027.89 1756.12,1027.89 L1756.94,1027.89 L1756.94,1025.3 L1739.45,1025.3 L1739.45,1027.89 L1740.5,1027.89 C1745.12,1027.89 1745.5,1028.16 1745.5,1031.24 C1745.5,1033.61 1745.12,1035.75 1744.4,1037.07 C1743.03,1039.77 1739.51,1041.64 1735.93,1041.64 C1732.36,1041.64 1728.84,1039.82 1726.97,1037.07 C1724.93,1033.99 1724.05,1030.14 1724.05,1024.26 C1724.05,1011.99 1728.12,1005.45 1735.77,1005.45 C1742.04,1005.45 1746.38,1009.96 1748.64,1018.76 L1751,1018.76 L1750.23,1003.3 "/>
<path class="Harmony" d="M1762.96,1017.99 L1765.38,1018.37 L1766.37,1014.03 C1767.2,1010.4 1767.58,1009.85 1769.18,1009.85 C1769.45,1009.85 1769.89,1009.85 1770.39,1009.9 C1777.15,1010.23 1777.15,1010.23 1779.68,1010.23 C1780.4,1010.23 1781.66,1010.23 1783.2,1010.18 L1779.46,1017.71 C1775.39,1025.8 1774.9,1026.79 1773.52,1030.2 C1771.82,1034.32 1770.94,1037.79 1770.94,1040.1 C1770.94,1042.63 1772.26,1044.17 1774.4,1044.17 C1777.04,1044.17 1778.09,1042.41 1778.03,1037.62 C1777.76,1029.7 1778.75,1025.85 1784.63,1012.98 C1785.62,1010.84 1786.67,1008.64 1787.66,1006.49 L1787.66,1004.9 C1784.36,1005.17 1782.6,1005.28 1779.19,1005.28 C1774.4,1005.28 1770.61,1005.12 1764.67,1004.68 L1762.96,1017.99 "/>
<path class="Harmony" d="M579.321,1003.3 L577.231,1003.3 L575.031,1006.55 C571.016,1003.63 568.981,1002.86 565.186,1002.86 C559.961,1002.86 555.506,1005.06 551.821,1009.46 C548.301,1013.64 546.651,1018.26 546.651,1023.93 C546.651,1035.81 554.406,1044.22 565.241,1044.22 C574.041,1044.22 579.651,1039.05 580.916,1029.81 L578.331,1029.37 C576.846,1037.57 572.666,1041.64 565.901,1041.64 C557.761,1041.64 553.911,1036.03 553.911,1024.15 C553.911,1017.88 554.736,1013.75 556.606,1010.45 C558.311,1007.37 561.666,1005.45 565.241,1005.45 C569.091,1005.45 572.501,1007.48 574.591,1011 C575.636,1012.82 576.406,1014.85 577.726,1019.2 L580.146,1019.2 L579.321,1003.3 "/>
<path class="Harmony" d="M499.39,532.103 L497.3,532.103 L495.1,535.348 C491.085,532.433 489.05,531.663 485.255,531.663 C480.03,531.663 475.575,533.863 471.89,538.263 C468.37,542.443 466.72,547.063 466.72,552.728 C466.72,564.608 474.475,573.023 485.31,573.023 C494.11,573.023 499.72,567.853 500.985,558.613 L498.4,558.173 C496.915,566.368 492.735,570.438 485.97,570.438 C477.83,570.438 473.98,564.828 473.98,552.948 C473.98,546.678 474.805,542.553 476.675,539.253 C478.38,536.173 481.735,534.248 485.31,534.248 C489.16,534.248 492.57,536.283 494.66,539.803 C495.705,541.618 496.475,543.653 497.795,547.998 L500.215,547.998 L499.39,532.103 "/>
<path class="Harmony" d="M1214.38,1003.3 L1212.29,1003.3 L1210.09,1006.55 C1206.08,1003.63 1204.04,1002.86 1200.25,1002.86 C1195.02,1002.86 1190.57,1005.06 1186.88,1009.46 C1183.36,1013.64 1181.71,1018.26 1181.71,1023.93 C1181.71,1035.81 1189.47,1044.22 1200.3,1044.22 C1209.1,1044.22 1214.71,1039.05 1215.98,1029.81 L1213.39,1029.37 C1211.91,1037.57 1207.73,1041.64 1200.96,1041.64 C1192.82,1041.64 1188.97,1036.03 1188.97,1024.15 C1188.97,1017.88 1189.8,1013.75 1191.67,1010.45 C1193.37,1007.37 1196.73,1005.45 1200.3,1005.45 C1204.15,1005.45 1207.56,1007.48 1209.65,1011 C1210.7,1012.82 1211.47,1014.85 1212.79,1019.2 L1215.21,1019.2 L1214.38,1003.3 "/>
<path class="Harmony" d="M2657.77,532.103 L2655.68,532.103 L2653.54,535.403 C2649.96,532.598 2647.54,531.663 2643.53,531.663 C2639.18,531.663 2635.77,532.873 2632.31,535.678 C2626.86,540.078 2624.33,545.633 2624.33,553.058 C2624.33,558.668 2625.93,563.343 2629.17,566.918 C2632.58,570.768 2637.64,573.023 2642.92,573.023 C2647.54,573.023 2650.79,571.593 2654.36,568.018 L2656.4,572.968 L2658.71,572.968 L2658.71,560.868 C2658.71,558.063 2658.71,557.953 2659.04,557.458 C2659.53,556.853 2660.52,556.688 2663.66,556.688 L2664.48,556.688 L2664.48,554.103 L2646.99,554.103 L2646.99,556.688 L2648.04,556.688 C2652.66,556.688 2653.04,556.963 2653.04,560.043 C2653.04,562.408 2652.66,564.553 2651.94,565.873 C2650.57,568.568 2647.05,570.438 2643.47,570.438 C2639.9,570.438 2636.38,568.623 2634.51,565.873 C2632.47,562.793 2631.59,558.943 2631.59,553.058 C2631.59,540.793 2635.66,534.248 2643.31,534.248 C2649.58,534.248 2653.92,538.758 2656.18,547.558 L2658.54,547.558 L2657.77,532.103 "/>
<path class="Harmony" d="M2670.5,546.788 L2672.92,547.173 L2673.91,542.828 C2674.74,539.198 2675.12,538.648 2676.72,538.648 C2676.99,538.648 2677.43,538.648 2677.93,538.703 C2684.69,539.033 2684.69,539.033 2687.22,539.033 C2687.94,539.033 2689.2,539.033 2690.74,538.978 L2687,546.513 C2682.93,554.598 2682.44,555.588 2681.06,558.998 C2679.36,563.123 2678.48,566.588 2678.48,568.898 C2678.48,571.428 2679.8,572.968 2681.94,572.968 C2684.58,572.968 2685.63,571.208 2685.57,566.423 C2685.3,558.503 2686.29,554.653 2692.17,541.783 C2693.16,539.638 2694.21,537.438 2695.2,535.293 L2695.2,533.698 C2691.9,533.973 2690.14,534.083 2686.73,534.083 C2681.94,534.083 2678.15,533.918 2672.21,533.478 L2670.5,546.788 "/>
<path class="Harmony" d="M2574.51,532.103 L2572.42,532.103 L2570.27,535.403 C2566.7,532.598 2564.28,531.663 2560.26,531.663 C2555.92,531.663 2552.51,532.873 2549.04,535.678 C2543.6,540.078 2541.07,545.633 2541.07,553.058 C2541.07,558.668 2542.66,563.343 2545.91,566.918 C2549.32,570.768 2554.38,573.023 2559.66,573.023 C2564.28,573.023 2567.52,571.593 2571.1,568.018 L2573.13,572.968 L2575.44,572.968 L2575.44,560.868 C2575.44,558.063 2575.44,557.953 2575.77,557.458 C2576.27,556.853 2577.26,556.688 2580.39,556.688 L2581.22,556.688 L2581.22,554.103 L2563.73,554.103 L2563.73,556.688 L2564.77,556.688 C2569.39,556.688 2569.78,556.963 2569.78,560.043 C2569.78,562.408 2569.39,564.553 2568.68,565.873 C2567.3,568.568 2563.78,570.438 2560.21,570.438 C2556.63,570.438 2553.11,568.623 2551.24,565.873 C2549.21,562.793 2548.33,558.943 2548.33,553.058 C2548.33,540.793 2552.4,534.248 2560.04,534.248 C2566.31,534.248 2570.66,538.758 2572.91,547.558 L2575.28,547.558 L2574.51,532.103 "/>
<path class="Harmony" d="M2587.24,546.788 L2589.66,547.173 L2590.65,542.828 C2591.47,539.198 2591.86,538.648 2593.45,538.648 C2593.73,538.648 2594.17,538.648 2594.66,538.703 C2601.43,539.033 2601.43,539.033 2603.96,539.033 C2604.67,539.033 2605.94,539.033 2607.48,538.978 L2603.74,546.513 C2599.67,554.598 2599.17,555.588 2597.8,558.998 C2596.09,563.123 2595.21,566.588 2595.21,568.898 C2595.21,571.428 2596.53,572.968 2598.68,572.968 C2601.32,572.968 2602.36,571.208 2602.31,566.423 C2602.03,558.503 2603.02,554.653 2608.91,541.783 C2609.9,539.638 2610.94,537.438 2611.93,535.293 L2611.93,533.698 C2608.63,533.973 2606.87,534.083 2603.46,534.083 C2598.68,534.083 2594.88,533.918 2588.94,533.478 L2587.24,546.788 "/>
<path class="Harmony" d="M751.148,532.488 L718.423,532.488 L718.423,535.073 L719.413,535.073 C722.548,535.128 723.593,535.293 724.033,535.843 C724.363,536.338 724.363,536.448 724.363,539.253 L724.363,565.433 C724.363,568.238 724.363,568.348 724.033,568.843 C723.593,569.393 722.548,569.613 719.413,569.613 L718.423,569.613 L718.423,572.198 L737.288,572.198 L737.288,569.613 L735.473,569.613 C732.338,569.613 731.293,569.393 730.853,568.843 C730.523,568.348 730.523,568.183 730.523,565.433 L730.523,552.948 L731.623,552.948 C737.288,552.728 739.323,554.763 739.543,560.868 L742.128,560.868 L742.128,542.828 L739.543,542.828 C739.213,548.218 737.068,550.308 731.843,550.363 L730.523,550.363 L730.523,537.823 C730.468,535.513 731.018,535.128 733.988,535.073 L736.518,535.073 C745.538,535.018 747.793,537.053 749.498,546.513 L751.918,546.513 L751.148,532.488 "/>
<path class="Harmony" d="M2673.3,1003.3 L2671.21,1003.3 L2669.01,1006.55 C2664.99,1003.63 2662.96,1002.86 2659.16,1002.86 C2653.94,1002.86 2649.48,1005.06 2645.8,1009.46 C2642.28,1013.64 2640.63,1018.26 2640.63,1023.93 C2640.63,1035.81 2648.38,1044.22 2659.22,1044.22 C2668.02,1044.22 2673.63,1039.05 2674.89,1029.81 L2672.31,1029.37 C2670.82,1037.57 2666.64,1041.64 2659.88,1041.64 C2651.74,1041.64 2647.89,1036.03 2647.89,1024.15 C2647.89,1017.88 2648.71,1013.75 2650.58,1010.45 C2652.29,1007.37 2655.64,1005.45 2659.22,1005.45 C2663.07,1005.45 2666.48,1007.48 2668.57,1011 C2669.61,1012.82 2670.38,1014.85 2671.7,1019.2 L2674.12,1019.2 L2673.3,1003.3 "/>
<path class="Harmony" d="M1141.21,1003.3 L1139.12,1003.3 L1136.92,1006.55 C1132.9,1003.63 1130.87,1002.86 1127.07,1002.86 C1121.85,1002.86 1117.39,1005.06 1113.71,1009.46 C1110.19,1013.64 1108.54,1018.26 1108.54,1023.93 C1108.54,1035.81 1116.29,1044.22 1127.13,1044.22 C1135.93,1044.22 1141.54,1039.05 1142.8,1029.81 L1140.22,1029.37 C1138.73,1037.57 1134.55,1041.64 1127.79,1041.64 C1119.65,1041.64 1115.8,1036.03 1115.8,1024.15 C1115.8,1017.88 1116.62,1013.75 1118.49,1010.45 C1120.2,1007.37 1123.55,1005.45 1127.13,1005.45 C1130.98,1005.45 1134.39,1007.48 1136.48,1011 C1137.52,1012.82 1138.29,1014.85 1139.61,1019.2 L1142.03,1019.2 L1141.21,1003.3 "/>
<path class="Harmony" d="M2485.25,532.103 L2483.16,532.103 L2481.02,535.403 C2477.44,532.598 2475.02,531.663 2471.01,531.663 C2466.66,531.663 2463.25,532.873 2459.79,535.678 C2454.34,540.078 2451.81,545.633 2451.81,553.058 C2451.81,558.668 2453.41,563.343 2456.65,566.918 C2460.06,570.768 2465.12,573.023 2470.4,573.023 C2475.02,573.023 2478.27,571.593 2481.84,568.018 L2483.88,572.968 L2486.19,572.968 L2486.19,560.868 C2486.19,558.063 2486.19,557.953 2486.52,557.458 C2487.01,556.853 2488,556.688 2491.14,556.688 L2491.96,556.688 L2491.96,554.103 L2474.47,554.103 L2474.47,556.688 L2475.52,556.688 C2480.14,556.688 2480.52,556.963 2480.52,560.043 C2480.52,562.408 2480.14,564.553 2479.42,565.873 C2478.05,568.568 2474.53,570.438 2470.95,570.438 C2467.38,570.438 2463.86,568.623 2461.99,565.873 C2459.95,562.793 2459.07,558.943 2459.07,553.058 C2459.07,540.793 2463.14,534.248 2470.79,534.248 C2477.06,534.248 2481.4,538.758 2483.66,547.558 L2486.02,547.558 L2485.25,532.103 "/>
<path class="Harmony" d="M2497.98,546.788 L2500.4,547.173 L2501.39,542.828 C2502.22,539.198 2502.6,538.648 2504.2,538.648 C2504.47,538.648 2504.91,538.648 2505.41,538.703 C2512.17,539.033 2512.17,539.033 2514.7,539.033 C2515.42,539.033 2516.68,539.033 2518.22,538.978 L2514.48,546.513 C2510.41,554.598 2509.92,555.588 2508.54,558.998 C2506.84,563.123 2505.96,566.588 2505.96,568.898 C2505.96,571.428 2507.28,572.968 2509.42,572.968 C2512.06,572.968 2513.11,571.208 2513.05,566.423 C2512.78,558.503 2513.77,554.653 2519.65,541.783 C2520.64,539.638 2521.69,537.438 2522.68,535.293 L2522.68,533.698 C2519.38,533.973 2517.62,534.083 2514.21,534.083 C2509.42,534.083 2505.63,533.918 2499.69,533.478 L2497.98,546.788 "/>
<path class="Harmony" d="M2401.99,532.103 L2399.9,532.103 L2397.75,535.403 C2394.18,532.598 2391.76,531.663 2387.74,531.663 C2383.4,531.663 2379.99,532.873 2376.52,535.678 C2371.08,540.078 2368.55,545.633 2368.55,553.058 C2368.55,558.668 2370.14,563.343 2373.39,566.918 C2376.8,570.768 2381.86,573.023 2387.14,573.023 C2391.76,573.023 2395,571.593 2398.58,568.018 L2400.61,572.968 L2402.92,572.968 L2402.92,560.868 C2402.92,558.063 2402.92,557.953 2403.25,557.458 C2403.75,556.853 2404.74,556.688 2407.87,556.688 L2408.7,556.688 L2408.7,554.103 L2391.21,554.103 L2391.21,556.688 L2392.25,556.688 C2396.87,556.688 2397.26,556.963 2397.26,560.043 C2397.26,562.408 2396.87,564.553 2396.16,565.873 C2394.78,568.568 2391.26,570.438 2387.69,570.438 C2384.11,570.438 2380.59,568.623 2378.72,565.873 C2376.69,562.793 2375.81,558.943 2375.81,553.058 C2375.81,540.793 2379.88,534.248 2387.52,534.248 C2393.79,534.248 2398.14,538.758 2400.39,547.558 L2402.76,547.558 L2401.99,532.103 "/>
<path class="Harmony" d="M2414.71,546.788 L2417.13,547.173 L2418.12,542.828 C2418.95,539.198 2419.33,538.648 2420.93,538.648 C2421.2,538.648 2421.64,538.648 2422.14,538.703 C2428.9,539.033 2428.9,539.033 2431.43,539.033 C2432.15,539.033 2433.41,539.033 2434.95,538.978 L2431.21,546.513 C2427.14,554.598 2426.65,555.588 2425.27,558.998 C2423.57,563.123 2422.69,566.588 2422.69,568.898 C2422.69,571.428 2424.01,572.968 2426.15,572.968 C2428.79,572.968 2429.84,571.208 2429.78,566.423 C2429.51,558.503 2430.5,554.653 2436.38,541.783 C2437.37,539.638 2438.42,537.438 2439.41,535.293 L2439.41,533.698 C2436.11,533.973 2434.35,534.083 2430.94,534.083 C2426.15,534.083 2422.36,533.918 2416.42,533.478 L2414.71,546.788 "/>
<path class="Harmony" d="M1385.56,1003.3 L1383.47,1003.3 L1381.27,1006.55 C1377.25,1003.63 1375.22,1002.86 1371.42,1002.86 C1366.2,1002.86 1361.74,1005.06 1358.06,1009.46 C1354.54,1013.64 1352.89,1018.26 1352.89,1023.93 C1352.89,1035.81 1360.64,1044.22 1371.48,1044.22 C1380.28,1044.22 1385.89,1039.05 1387.15,1029.81 L1384.57,1029.37 C1383.08,1037.57 1378.9,1041.64 1372.14,1041.64 C1364,1041.64 1360.15,1036.03 1360.15,1024.15 C1360.15,1017.88 1360.97,1013.75 1362.84,1010.45 C1364.55,1007.37 1367.9,1005.45 1371.48,1005.45 C1375.33,1005.45 1378.74,1007.48 1380.83,1011 C1381.87,1012.82 1382.64,1014.85 1383.96,1019.2 L1386.38,1019.2 L1385.56,1003.3 "/>
<path class="Harmony" d="M1458.74,1003.3 L1456.65,1003.3 L1454.45,1006.55 C1450.43,1003.63 1448.4,1002.86 1444.6,1002.86 C1439.38,1002.86 1434.92,1005.06 1431.24,1009.46 C1427.72,1013.64 1426.07,1018.26 1426.07,1023.93 C1426.07,1035.81 1433.82,1044.22 1444.66,1044.22 C1453.46,1044.22 1459.07,1039.05 1460.33,1029.81 L1457.75,1029.37 C1456.26,1037.57 1452.08,1041.64 1445.32,1041.64 C1437.18,1041.64 1433.33,1036.03 1433.33,1024.15 C1433.33,1017.88 1434.15,1013.75 1436.02,1010.45 C1437.73,1007.37 1441.08,1005.45 1444.66,1005.45 C1448.51,1005.45 1451.92,1007.48 1454.01,1011 C1455.05,1012.82 1455.82,1014.85 1457.14,1019.2 L1459.56,1019.2 L1458.74,1003.3 "/>
<path class="Harmony" d="M2318.72,532.103 L2316.63,532.103 L2314.48,535.403 C2310.91,532.598 2308.49,531.663 2304.47,531.663 C2300.13,531.663 2296.72,532.873 2293.25,535.678 C2287.81,540.078 2285.28,545.633 2285.28,553.058 C2285.28,558.668 2286.87,563.343 2290.12,566.918 C2293.53,570.768 2298.59,573.023 2303.87,573.023 C2308.49,573.023 2311.73,571.593 2315.31,568.018 L2317.34,572.968 L2319.65,572.968 L2319.65,560.868 C2319.65,558.063 2319.65,557.953 2319.98,557.458 C2320.48,556.853 2321.47,556.688 2324.6,556.688 L2325.43,556.688 L2325.43,554.103 L2307.94,554.103 L2307.94,556.688 L2308.98,556.688 C2313.6,556.688 2313.99,556.963 2313.99,560.043 C2313.99,562.408 2313.6,564.553 2312.89,565.873 C2311.51,568.568 2307.99,570.438 2304.42,570.438 C2300.84,570.438 2297.32,568.623 2295.45,565.873 C2293.42,562.793 2292.54,558.943 2292.54,553.058 C2292.54,540.793 2296.61,534.248 2304.25,534.248 C2310.52,534.248 2314.87,538.758 2317.12,547.558 L2319.49,547.558 L2318.72,532.103 "/>
<path class="Harmony" d="M2331.45,546.788 L2333.87,547.173 L2334.86,542.828 C2335.68,539.198 2336.07,538.648 2337.66,538.648 C2337.94,538.648 2338.38,538.648 2338.87,538.703 C2345.64,539.033 2345.64,539.033 2348.17,539.033 C2348.88,539.033 2350.15,539.033 2351.69,538.978 L2347.95,546.513 C2343.88,554.598 2343.38,555.588 2342.01,558.998 C2340.3,563.123 2339.42,566.588 2339.42,568.898 C2339.42,571.428 2340.74,572.968 2342.89,572.968 C2345.53,572.968 2346.57,571.208 2346.52,566.423 C2346.24,558.503 2347.23,554.653 2353.12,541.783 C2354.11,539.638 2355.15,537.438 2356.14,535.293 L2356.14,533.698 C2352.84,533.973 2351.08,534.083 2347.67,534.083 C2342.89,534.083 2339.09,533.918 2333.15,533.478 L2331.45,546.788 "/>
<path class="Harmony" d="M750.547,1003.69 L717.822,1003.69 L717.822,1006.27 L718.812,1006.27 C721.947,1006.33 722.992,1006.49 723.432,1007.04 C723.762,1007.54 723.762,1007.65 723.762,1010.45 L723.762,1036.63 C723.762,1039.44 723.762,1039.55 723.432,1040.04 C722.992,1040.59 721.947,1040.81 718.812,1040.81 L717.822,1040.81 L717.822,1043.4 L736.687,1043.4 L736.687,1040.81 L734.872,1040.81 C731.737,1040.81 730.692,1040.59 730.252,1040.04 C729.922,1039.55 729.922,1039.38 729.922,1036.63 L729.922,1024.15 L731.022,1024.15 C736.687,1023.93 738.722,1025.96 738.942,1032.07 L741.527,1032.07 L741.527,1014.03 L738.942,1014.03 C738.612,1019.42 736.467,1021.51 731.242,1021.56 L729.922,1021.56 L729.922,1009.02 C729.867,1006.71 730.417,1006.33 733.387,1006.27 L735.917,1006.27 C744.937,1006.22 747.192,1008.25 748.897,1017.71 L751.317,1017.71 L750.547,1003.69 "/>
<path class="Harmony" d="M2123.87,572.198 L2142.35,572.198 C2147.24,572.198 2150.98,571.428 2153.9,569.778 C2159.45,566.643 2162.53,560.373 2162.53,552.123 C2162.53,544.533 2159.78,538.593 2154.72,535.293 C2151.7,533.368 2147.63,532.488 2141.36,532.488 L2123.87,532.488 L2123.87,535.073 L2124.91,535.073 C2127.99,535.128 2129.04,535.293 2129.48,535.843 C2129.81,536.338 2129.81,536.448 2129.81,539.253 L2129.81,565.433 C2129.81,568.238 2129.81,568.348 2129.48,568.843 C2129.04,569.393 2127.99,569.558 2124.91,569.613 L2123.87,569.613 L2123.87,572.198 M2139.1,569.613 C2136.3,569.613 2135.97,569.283 2135.97,566.588 L2135.97,538.153 C2135.97,535.458 2136.35,535.073 2139.1,535.073 L2141.96,535.073 C2151.37,535.073 2155.27,540.188 2155.27,552.343 C2155.27,564.663 2151.75,569.613 2142.84,569.613 L2139.1,569.613 "/>
<path class="Harmony" d="M2178.56,546.568 L2168.77,547.173 L2168.77,549.538 L2171.03,549.538 C2173.12,549.593 2173.39,549.923 2173.39,552.288 L2173.39,568.018 C2173.34,568.843 2173.28,569.173 2173.06,569.448 C2172.68,569.943 2171.63,570.163 2169.27,570.218 L2169.05,570.218 L2169.05,572.198 L2182.91,572.198 L2182.91,570.218 L2182.69,570.218 C2179.06,570.108 2178.56,569.833 2178.56,567.798 L2178.56,557.623 C2178.56,552.728 2181.26,549.098 2184.83,549.098 C2187.97,549.098 2189.56,551.353 2189.56,555.808 L2189.56,568.073 C2189.51,568.788 2189.45,569.173 2189.18,569.448 C2188.85,569.943 2187.75,570.163 2185.38,570.218 L2185.16,570.218 L2185.16,572.198 L2199.08,572.198 L2199.08,570.218 L2198.86,570.218 C2195.23,570.108 2194.73,569.833 2194.73,567.853 L2194.73,558.118 C2194.73,552.618 2197.21,549.098 2201.06,549.098 C2204.19,549.098 2205.73,551.463 2205.73,556.413 L2205.73,568.018 C2205.68,568.788 2205.62,569.173 2205.35,569.448 C2205.02,569.943 2203.92,570.163 2201.55,570.218 L2201.33,570.218 L2201.33,572.198 L2215.25,572.198 L2215.25,570.218 L2215.03,570.218 C2211.4,570.108 2210.9,569.833 2210.9,567.798 L2210.9,555.313 C2210.9,551.903 2210.57,550.748 2209.14,548.878 C2207.55,546.843 2205.29,545.743 2202.65,545.743 C2199.08,545.743 2196.44,547.448 2194.07,551.243 C2193.14,547.943 2190.17,545.743 2186.48,545.743 C2183.13,545.743 2180.71,547.338 2178.56,550.803 L2178.56,546.568 "/>
<path class="Harmony" d="M1531.91,1003.3 L1529.82,1003.3 L1527.62,1006.55 C1523.61,1003.63 1521.57,1002.86 1517.78,1002.86 C1512.55,1002.86 1508.1,1005.06 1504.41,1009.46 C1500.89,1013.64 1499.24,1018.26 1499.24,1023.93 C1499.24,1035.81 1507,1044.22 1517.83,1044.22 C1526.63,1044.22 1532.24,1039.05 1533.51,1029.81 L1530.92,1029.37 C1529.44,1037.57 1525.26,1041.64 1518.49,1041.64 C1510.35,1041.64 1506.5,1036.03 1506.5,1024.15 C1506.5,1017.88 1507.33,1013.75 1509.2,1010.45 C1510.9,1007.37 1514.26,1005.45 1517.83,1005.45 C1521.68,1005.45 1525.09,1007.48 1527.18,1011 C1528.23,1012.82 1529,1014.85 1530.32,1019.2 L1532.74,1019.2 L1531.91,1003.3 "/>
<path class="Harmony" d="M1068.03,1003.3 L1065.94,1003.3 L1063.74,1006.55 C1059.72,1003.63 1057.69,1002.86 1053.89,1002.86 C1048.67,1002.86 1044.21,1005.06 1040.53,1009.46 C1037.01,1013.64 1035.36,1018.26 1035.36,1023.93 C1035.36,1035.81 1043.11,1044.22 1053.95,1044.22 C1062.75,1044.22 1068.36,1039.05 1069.62,1029.81 L1067.04,1029.37 C1065.55,1037.57 1061.37,1041.64 1054.61,1041.64 C1046.47,1041.64 1042.62,1036.03 1042.62,1024.15 C1042.62,1017.88 1043.44,1013.75 1045.31,1010.45 C1047.02,1007.37 1050.37,1005.45 1053.95,1005.45 C1057.8,1005.45 1061.21,1007.48 1063.3,1011 C1064.34,1012.82 1065.11,1014.85 1066.43,1019.2 L1068.85,1019.2 L1068.03,1003.3 "/>
<path class="Harmony" d="M2020.1,572.198 L2038.58,572.198 C2043.47,572.198 2047.21,571.428 2050.13,569.778 C2055.68,566.643 2058.76,560.373 2058.76,552.123 C2058.76,544.533 2056.01,538.593 2050.95,535.293 C2047.93,533.368 2043.86,532.488 2037.59,532.488 L2020.1,532.488 L2020.1,535.073 L2021.14,535.073 C2024.22,535.128 2025.27,535.293 2025.71,535.843 C2026.04,536.338 2026.04,536.448 2026.04,539.253 L2026.04,565.433 C2026.04,568.238 2026.04,568.348 2025.71,568.843 C2025.27,569.393 2024.22,569.558 2021.14,569.613 L2020.1,569.613 L2020.1,572.198 M2035.33,569.613 C2032.53,569.613 2032.2,569.283 2032.2,566.588 L2032.2,538.153 C2032.2,535.458 2032.58,535.073 2035.33,535.073 L2038.19,535.073 C2047.6,535.073 2051.5,540.188 2051.5,552.343 C2051.5,564.663 2047.98,569.613 2039.07,569.613 L2035.33,569.613 "/>
<path class="Harmony" d="M2074.79,546.568 L2065,547.173 L2065,549.538 L2067.26,549.538 C2069.35,549.593 2069.62,549.923 2069.62,552.288 L2069.62,568.018 C2069.57,568.843 2069.51,569.173 2069.29,569.448 C2068.91,569.943 2067.86,570.163 2065.5,570.218 L2065.28,570.218 L2065.28,572.198 L2079.14,572.198 L2079.14,570.218 L2078.92,570.218 C2075.29,570.108 2074.79,569.833 2074.79,567.798 L2074.79,557.623 C2074.79,552.728 2077.49,549.098 2081.06,549.098 C2084.2,549.098 2085.79,551.353 2085.79,555.808 L2085.79,568.073 C2085.74,568.788 2085.68,569.173 2085.41,569.448 C2085.08,569.943 2083.98,570.163 2081.61,570.218 L2081.39,570.218 L2081.39,572.198 L2095.31,572.198 L2095.31,570.218 L2095.09,570.218 C2091.46,570.108 2090.96,569.833 2090.96,567.853 L2090.96,558.118 C2090.96,552.618 2093.44,549.098 2097.29,549.098 C2100.42,549.098 2101.96,551.463 2101.96,556.413 L2101.96,568.018 C2101.91,568.788 2101.85,569.173 2101.58,569.448 C2101.25,569.943 2100.15,570.163 2097.78,570.218 L2097.56,570.218 L2097.56,572.198 L2111.48,572.198 L2111.48,570.218 L2111.26,570.218 C2107.63,570.108 2107.13,569.833 2107.13,567.798 L2107.13,555.313 C2107.13,551.903 2106.8,550.748 2105.37,548.878 C2103.78,546.843 2101.52,545.743 2098.88,545.743 C2095.31,545.743 2092.67,547.448 2090.3,551.243 C2089.37,547.943 2086.4,545.743 2082.71,545.743 C2079.36,545.743 2076.94,547.338 2074.79,550.803 L2074.79,546.568 "/>
<path class="Harmony" d="M1916.33,572.198 L1934.81,572.198 C1939.71,572.198 1943.45,571.428 1946.36,569.778 C1951.92,566.643 1955,560.373 1955,552.123 C1955,544.533 1952.25,538.593 1947.19,535.293 C1944.16,533.368 1940.09,532.488 1933.82,532.488 L1916.33,532.488 L1916.33,535.073 L1917.38,535.073 C1920.46,535.128 1921.5,535.293 1921.94,535.843 C1922.27,536.338 1922.27,536.448 1922.27,539.253 L1922.27,565.433 C1922.27,568.238 1922.27,568.348 1921.94,568.843 C1921.5,569.393 1920.46,569.558 1917.38,569.613 L1916.33,569.613 L1916.33,572.198 M1931.57,569.613 C1928.76,569.613 1928.43,569.283 1928.43,566.588 L1928.43,538.153 C1928.43,535.458 1928.82,535.073 1931.57,535.073 L1934.43,535.073 C1943.83,535.073 1947.74,540.188 1947.74,552.343 C1947.74,564.663 1944.22,569.613 1935.31,569.613 L1931.57,569.613 "/>
<path class="Harmony" d="M1971.03,546.568 L1961.24,547.173 L1961.24,549.538 L1963.49,549.538 C1965.58,549.593 1965.86,549.923 1965.86,552.288 L1965.86,568.018 C1965.8,568.843 1965.75,569.173 1965.53,569.448 C1965.14,569.943 1964.1,570.163 1961.73,570.218 L1961.51,570.218 L1961.51,572.198 L1975.37,572.198 L1975.37,570.218 L1975.15,570.218 C1971.52,570.108 1971.03,569.833 1971.03,567.798 L1971.03,557.623 C1971.03,552.728 1973.72,549.098 1977.3,549.098 C1980.43,549.098 1982.03,551.353 1982.03,555.808 L1982.03,568.073 C1981.97,568.788 1981.92,569.173 1981.64,569.448 C1981.31,569.943 1980.21,570.163 1977.85,570.218 L1977.63,570.218 L1977.63,572.198 L1991.54,572.198 L1991.54,570.218 L1991.32,570.218 C1987.69,570.108 1987.2,569.833 1987.2,567.853 L1987.2,558.118 C1987.2,552.618 1989.67,549.098 1993.52,549.098 C1996.66,549.098 1998.2,551.463 1998.2,556.413 L1998.2,568.018 C1998.14,568.788 1998.09,569.173 1997.81,569.448 C1997.48,569.943 1996.38,570.163 1994.02,570.218 L1993.8,570.218 L1993.8,572.198 L2007.71,572.198 L2007.71,570.218 L2007.49,570.218 C2003.86,570.108 2003.37,569.833 2003.37,567.798 L2003.37,555.313 C2003.37,551.903 2003.04,550.748 2001.61,548.878 C2000.01,546.843 1997.76,545.743 1995.12,545.743 C1991.54,545.743 1988.9,547.448 1986.54,551.243 C1985.6,547.943 1982.63,545.743 1978.95,545.743 C1975.59,545.743 1973.17,547.338 1971.03,550.803 L1971.03,546.568 "/>
<path class="Harmony" d="M1746.99,531.718 L1744.68,531.718 L1732.03,563.783 C1730.54,568.073 1729.11,569.393 1725.98,569.613 L1725.76,569.613 L1725.76,572.198 L1740.33,572.198 L1740.33,569.613 L1739.23,569.613 C1736.26,569.613 1734.78,568.568 1734.78,566.478 C1734.78,565.763 1734.94,565.103 1735.27,564.168 L1737.09,559.328 L1751.66,559.328 L1754.63,566.698 C1754.96,567.578 1755.07,567.908 1755.07,568.183 C1755.07,569.063 1753.7,569.613 1751.66,569.613 L1749.35,569.613 L1749.35,572.198 L1766.4,572.198 L1766.4,569.613 L1765.63,569.613 C1762.77,569.558 1762.28,569.228 1761.01,566.093 L1746.99,531.718 M1744.29,540.738 L1750.51,556.358 L1738.19,556.358 L1744.29,540.738 "/>
<path class="Harmony" d="M1779.41,546.568 L1769.62,547.173 L1769.62,549.538 L1771.87,549.538 C1773.96,549.593 1774.24,549.923 1774.24,552.288 L1774.24,568.018 C1774.18,568.843 1774.13,569.173 1773.91,569.448 C1773.52,569.943 1772.48,570.163 1770.11,570.218 L1769.89,570.218 L1769.89,572.198 L1783.75,572.198 L1783.75,570.218 L1783.53,570.218 C1779.9,570.108 1779.41,569.833 1779.41,567.798 L1779.41,557.623 C1779.41,552.728 1782.1,549.098 1785.68,549.098 C1788.81,549.098 1790.41,551.353 1790.41,555.808 L1790.41,568.073 C1790.35,568.788 1790.3,569.173 1790.02,569.448 C1789.69,569.943 1788.59,570.163 1786.23,570.218 L1786.01,570.218 L1786.01,572.198 L1799.92,572.198 L1799.92,570.218 L1799.7,570.218 C1796.07,570.108 1795.58,569.833 1795.58,567.853 L1795.58,558.118 C1795.58,552.618 1798.05,549.098 1801.9,549.098 C1805.04,549.098 1806.58,551.463 1806.58,556.413 L1806.58,568.018 C1806.52,568.788 1806.47,569.173 1806.19,569.448 C1805.86,569.943 1804.76,570.163 1802.4,570.218 L1802.18,570.218 L1802.18,572.198 L1816.09,572.198 L1816.09,570.218 L1815.87,570.218 C1812.24,570.108 1811.75,569.833 1811.75,567.798 L1811.75,555.313 C1811.75,551.903 1811.42,550.748 1809.99,548.878 C1808.39,546.843 1806.14,545.743 1803.5,545.743 C1799.92,545.743 1797.28,547.448 1794.92,551.243 C1793.98,547.943 1791.01,545.743 1787.33,545.743 C1783.97,545.743 1781.55,547.338 1779.41,550.803 L1779.41,546.568 "/>
<path class="Harmony" d="M1666.97,1003.3 L1664.88,1003.3 L1662.73,1006.6 C1659.16,1003.8 1656.74,1002.86 1652.72,1002.86 C1648.38,1002.86 1644.97,1004.07 1641.5,1006.88 C1636.06,1011.28 1633.53,1016.83 1633.53,1024.26 C1633.53,1029.87 1635.12,1034.54 1638.37,1038.12 C1641.78,1041.97 1646.84,1044.22 1652.12,1044.22 C1656.74,1044.22 1659.98,1042.79 1663.56,1039.22 L1665.59,1044.17 L1667.9,1044.17 L1667.9,1032.07 C1667.9,1029.26 1667.9,1029.15 1668.23,1028.66 C1668.73,1028.05 1669.72,1027.89 1672.85,1027.89 L1673.68,1027.89 L1673.68,1025.3 L1656.19,1025.3 L1656.19,1027.89 L1657.23,1027.89 C1661.85,1027.89 1662.24,1028.16 1662.24,1031.24 C1662.24,1033.61 1661.85,1035.75 1661.14,1037.07 C1659.76,1039.77 1656.24,1041.64 1652.67,1041.64 C1649.09,1041.64 1645.57,1039.82 1643.7,1037.07 C1641.67,1033.99 1640.79,1030.14 1640.79,1024.26 C1640.79,1011.99 1644.86,1005.45 1652.5,1005.45 C1658.77,1005.45 1663.12,1009.96 1665.37,1018.76 L1667.74,1018.76 L1666.97,1003.3 "/>
<path class="Harmony" d="M1679.7,1017.99 L1682.12,1018.37 L1683.11,1014.03 C1683.93,1010.4 1684.32,1009.85 1685.91,1009.85 C1686.19,1009.85 1686.63,1009.85 1687.12,1009.9 C1693.89,1010.23 1693.89,1010.23 1696.42,1010.23 C1697.13,1010.23 1698.4,1010.23 1699.94,1010.18 L1696.2,1017.71 C1692.13,1025.8 1691.63,1026.79 1690.26,1030.2 C1688.55,1034.32 1687.67,1037.79 1687.67,1040.1 C1687.67,1042.63 1688.99,1044.17 1691.14,1044.17 C1693.78,1044.17 1694.82,1042.41 1694.77,1037.62 C1694.49,1029.7 1695.48,1025.85 1701.37,1012.98 C1702.36,1010.84 1703.4,1008.64 1704.39,1006.49 L1704.39,1004.9 C1701.09,1005.17 1699.33,1005.28 1695.92,1005.28 C1691.14,1005.28 1687.34,1005.12 1681.4,1004.68 L1679.7,1017.99 "/>
<path class="Harmony" d="M429.322,532.103 L427.232,532.103 L425.032,535.348 C421.017,532.433 418.982,531.663 415.187,531.663 C409.962,531.663 405.507,533.863 401.822,538.263 C398.302,542.443 396.652,547.063 396.652,552.728 C396.652,564.608 404.407,573.023 415.242,573.023 C424.042,573.023 429.652,567.853 430.917,558.613 L428.332,558.173 C426.847,566.368 422.667,570.438 415.902,570.438 C407.762,570.438 403.912,564.828 403.912,552.948 C403.912,546.678 404.737,542.553 406.607,539.253 C408.312,536.173 411.667,534.248 415.242,534.248 C419.092,534.248 422.502,536.283 424.592,539.803 C425.637,541.618 426.407,543.653 427.727,547.998 L430.147,547.998 L429.322,532.103 "/>
<path class="Harmony" d="M2600.12,1003.3 L2598.03,1003.3 L2595.83,1006.55 C2591.81,1003.63 2589.78,1002.86 2585.98,1002.86 C2580.76,1002.86 2576.3,1005.06 2572.62,1009.46 C2569.1,1013.64 2567.45,1018.26 2567.45,1023.93 C2567.45,1035.81 2575.2,1044.22 2586.04,1044.22 C2594.84,1044.22 2600.45,1039.05 2601.71,1029.81 L2599.13,1029.37 C2597.64,1037.57 2593.46,1041.64 2586.7,1041.64 C2578.56,1041.64 2574.71,1036.03 2574.71,1024.15 C2574.71,1017.88 2575.53,1013.75 2577.4,1010.45 C2579.11,1007.37 2582.46,1005.45 2586.04,1005.45 C2589.89,1005.45 2593.3,1007.48 2595.39,1011 C2596.43,1012.82 2597.2,1014.85 2598.52,1019.2 L2600.94,1019.2 L2600.12,1003.3 "/>
<path class="Harmony" d="M1644.27,531.718 L1641.96,531.718 L1629.31,563.783 C1627.82,568.073 1626.39,569.393 1623.26,569.613 L1623.04,569.613 L1623.04,572.198 L1637.61,572.198 L1637.61,569.613 L1636.51,569.613 C1633.54,569.613 1632.06,568.568 1632.06,566.478 C1632.06,565.763 1632.22,565.103 1632.55,564.168 L1634.37,559.328 L1648.94,559.328 L1651.91,566.698 C1652.24,567.578 1652.35,567.908 1652.35,568.183 C1652.35,569.063 1650.98,569.613 1648.94,569.613 L1646.63,569.613 L1646.63,572.198 L1663.68,572.198 L1663.68,569.613 L1662.91,569.613 C1660.05,569.558 1659.56,569.228 1658.29,566.093 L1644.27,531.718 M1641.57,540.738 L1647.79,556.358 L1635.47,556.358 L1641.57,540.738 "/>
<path class="Harmony" d="M1676.69,546.568 L1666.9,547.173 L1666.9,549.538 L1669.15,549.538 C1671.24,549.593 1671.52,549.923 1671.52,552.288 L1671.52,568.018 C1671.46,568.843 1671.41,569.173 1671.19,569.448 C1670.8,569.943 1669.76,570.163 1667.39,570.218 L1667.17,570.218 L1667.17,572.198 L1681.03,572.198 L1681.03,570.218 L1680.81,570.218 C1677.18,570.108 1676.69,569.833 1676.69,567.798 L1676.69,557.623 C1676.69,552.728 1679.38,549.098 1682.96,549.098 C1686.09,549.098 1687.69,551.353 1687.69,555.808 L1687.69,568.073 C1687.63,568.788 1687.58,569.173 1687.3,569.448 C1686.97,569.943 1685.87,570.163 1683.51,570.218 L1683.29,570.218 L1683.29,572.198 L1697.2,572.198 L1697.2,570.218 L1696.98,570.218 C1693.35,570.108 1692.86,569.833 1692.86,567.853 L1692.86,558.118 C1692.86,552.618 1695.33,549.098 1699.18,549.098 C1702.32,549.098 1703.86,551.463 1703.86,556.413 L1703.86,568.018 C1703.8,568.788 1703.75,569.173 1703.47,569.448 C1703.14,569.943 1702.04,570.163 1699.68,570.218 L1699.46,570.218 L1699.46,572.198 L1713.37,572.198 L1713.37,570.218 L1713.15,570.218 C1709.52,570.108 1709.03,569.833 1709.03,567.798 L1709.03,555.313 C1709.03,551.903 1708.7,550.748 1707.27,548.878 C1705.67,546.843 1703.42,545.743 1700.78,545.743 C1697.2,545.743 1694.56,547.448 1692.2,551.243 C1691.26,547.943 1688.29,545.743 1684.61,545.743 C1681.25,545.743 1678.83,547.338 1676.69,550.803 L1676.69,546.568 "/>
<path class="Harmony" d="M1833.5,1003.3 L1831.41,1003.3 L1829.26,1006.6 C1825.69,1003.8 1823.27,1002.86 1819.25,1002.86 C1814.91,1002.86 1811.5,1004.07 1808.03,1006.88 C1802.59,1011.28 1800.06,1016.83 1800.06,1024.26 C1800.06,1029.87 1801.65,1034.54 1804.9,1038.12 C1808.31,1041.97 1813.37,1044.22 1818.65,1044.22 C1823.27,1044.22 1826.51,1042.79 1830.09,1039.22 L1832.12,1044.17 L1834.43,1044.17 L1834.43,1032.07 C1834.43,1029.26 1834.43,1029.15 1834.76,1028.66 C1835.26,1028.05 1836.25,1027.89 1839.38,1027.89 L1840.21,1027.89 L1840.21,1025.3 L1822.72,1025.3 L1822.72,1027.89 L1823.76,1027.89 C1828.38,1027.89 1828.77,1028.16 1828.77,1031.24 C1828.77,1033.61 1828.38,1035.75 1827.67,1037.07 C1826.29,1039.77 1822.77,1041.64 1819.2,1041.64 C1815.62,1041.64 1812.1,1039.82 1810.23,1037.07 C1808.2,1033.99 1807.32,1030.14 1807.32,1024.26 C1807.32,1011.99 1811.39,1005.45 1819.03,1005.45 C1825.3,1005.45 1829.65,1009.96 1831.9,1018.76 L1834.27,1018.76 L1833.5,1003.3 "/>
<path class="Harmony" d="M1846.23,1017.99 L1848.65,1018.37 L1849.64,1014.03 C1850.46,1010.4 1850.85,1009.85 1852.44,1009.85 C1852.72,1009.85 1853.16,1009.85 1853.65,1009.9 C1860.42,1010.23 1860.42,1010.23 1862.95,1010.23 C1863.66,1010.23 1864.93,1010.23 1866.47,1010.18 L1862.73,1017.71 C1858.66,1025.8 1858.16,1026.79 1856.79,1030.2 C1855.08,1034.32 1854.2,1037.79 1854.2,1040.1 C1854.2,1042.63 1855.52,1044.17 1857.67,1044.17 C1860.31,1044.17 1861.35,1042.41 1861.3,1037.62 C1861.02,1029.7 1862.01,1025.85 1867.9,1012.98 C1868.89,1010.84 1869.93,1008.64 1870.92,1006.49 L1870.92,1004.9 C1867.62,1005.17 1865.86,1005.28 1862.45,1005.28 C1857.67,1005.28 1853.87,1005.12 1847.93,1004.68 L1846.23,1017.99 "/>
<path class="Harmony" d="M2526.94,1003.3 L2524.85,1003.3 L2522.65,1006.55 C2518.63,1003.63 2516.6,1002.86 2512.8,1002.86 C2507.58,1002.86 2503.12,1005.06 2499.44,1009.46 C2495.92,1013.64 2494.27,1018.26 2494.27,1023.93 C2494.27,1035.81 2502.02,1044.22 2512.86,1044.22 C2521.66,1044.22 2527.27,1039.05 2528.53,1029.81 L2525.95,1029.37 C2524.46,1037.57 2520.28,1041.64 2513.52,1041.64 C2505.38,1041.64 2501.53,1036.03 2501.53,1024.15 C2501.53,1017.88 2502.35,1013.75 2504.22,1010.45 C2505.93,1007.37 2509.28,1005.45 2512.86,1005.45 C2516.71,1005.45 2520.12,1007.48 2522.21,1011 C2523.25,1012.82 2524.02,1014.85 2525.34,1019.2 L2527.76,1019.2 L2526.94,1003.3 "/>
<path class="Harmony" d="M1541.55,531.718 L1539.24,531.718 L1526.59,563.783 C1525.1,568.073 1523.67,569.393 1520.54,569.613 L1520.32,569.613 L1520.32,572.198 L1534.89,572.198 L1534.89,569.613 L1533.79,569.613 C1530.82,569.613 1529.34,568.568 1529.34,566.478 C1529.34,565.763 1529.5,565.103 1529.83,564.168 L1531.65,559.328 L1546.22,559.328 L1549.19,566.698 C1549.52,567.578 1549.63,567.908 1549.63,568.183 C1549.63,569.063 1548.26,569.613 1546.22,569.613 L1543.91,569.613 L1543.91,572.198 L1560.96,572.198 L1560.96,569.613 L1560.19,569.613 C1557.33,569.558 1556.84,569.228 1555.57,566.093 L1541.55,531.718 M1538.85,540.738 L1545.07,556.358 L1532.75,556.358 L1538.85,540.738 "/>
<path class="Harmony" d="M1573.97,546.568 L1564.18,547.173 L1564.18,549.538 L1566.43,549.538 C1568.52,549.593 1568.8,549.923 1568.8,552.288 L1568.8,568.018 C1568.74,568.843 1568.69,569.173 1568.47,569.448 C1568.08,569.943 1567.04,570.163 1564.67,570.218 L1564.45,570.218 L1564.45,572.198 L1578.31,572.198 L1578.31,570.218 L1578.09,570.218 C1574.46,570.108 1573.97,569.833 1573.97,567.798 L1573.97,557.623 C1573.97,552.728 1576.66,549.098 1580.24,549.098 C1583.37,549.098 1584.97,551.353 1584.97,555.808 L1584.97,568.073 C1584.91,568.788 1584.86,569.173 1584.58,569.448 C1584.25,569.943 1583.15,570.163 1580.79,570.218 L1580.57,570.218 L1580.57,572.198 L1594.48,572.198 L1594.48,570.218 L1594.26,570.218 C1590.63,570.108 1590.14,569.833 1590.14,567.853 L1590.14,558.118 C1590.14,552.618 1592.61,549.098 1596.46,549.098 C1599.6,549.098 1601.14,551.463 1601.14,556.413 L1601.14,568.018 C1601.08,568.788 1601.03,569.173 1600.75,569.448 C1600.42,569.943 1599.32,570.163 1596.96,570.218 L1596.74,570.218 L1596.74,572.198 L1610.65,572.198 L1610.65,570.218 L1610.43,570.218 C1606.8,570.108 1606.31,569.833 1606.31,567.798 L1606.31,555.313 C1606.31,551.903 1605.98,550.748 1604.55,548.878 C1602.95,546.843 1600.7,545.743 1598.06,545.743 C1594.48,545.743 1591.84,547.448 1589.48,551.243 C1588.54,547.943 1585.57,545.743 1581.89,545.743 C1578.53,545.743 1576.11,547.338 1573.97,550.803 L1573.97,546.568 "/>
<path class="Harmony" d="M813.33,532.488 L780.605,532.488 L780.605,535.073 L781.595,535.073 C784.73,535.128 785.775,535.293 786.215,535.843 C786.545,536.338 786.545,536.448 786.545,539.253 L786.545,565.433 C786.545,568.238 786.545,568.348 786.215,568.843 C785.775,569.393 784.73,569.613 781.595,569.613 L780.605,569.613 L780.605,572.198 L799.47,572.198 L799.47,569.613 L797.655,569.613 C794.52,569.613 793.475,569.393 793.035,568.843 C792.705,568.348 792.705,568.183 792.705,565.433 L792.705,552.948 L793.805,552.948 C799.47,552.728 801.505,554.763 801.725,560.868 L804.31,560.868 L804.31,542.828 L801.725,542.828 C801.395,548.218 799.25,550.308 794.025,550.363 L792.705,550.363 L792.705,537.823 C792.65,535.513 793.2,535.128 796.17,535.073 L798.7,535.073 C807.72,535.018 809.975,537.053 811.68,546.513 L814.1,546.513 L813.33,532.488 "/>
<path class="Harmony" d="M589.696,532.103 L587.606,532.103 L585.406,535.348 C581.391,532.433 579.356,531.663 575.561,531.663 C570.336,531.663 565.881,533.863 562.196,538.263 C558.676,542.443 557.026,547.063 557.026,552.728 C557.026,564.608 564.781,573.023 575.616,573.023 C584.416,573.023 590.026,567.853 591.291,558.613 L588.706,558.173 C587.221,566.368 583.041,570.438 576.276,570.438 C568.136,570.438 564.286,564.828 564.286,552.948 C564.286,546.678 565.111,542.553 566.981,539.253 C568.686,536.173 572.041,534.248 575.616,534.248 C579.466,534.248 582.876,536.283 584.966,539.803 C586.011,541.618 586.781,543.653 588.101,547.998 L590.521,547.998 L589.696,532.103 "/>
<path class="Harmony" d="M1967.77,1003.3 L1965.68,1003.3 L1963.54,1006.6 C1959.96,1003.8 1957.54,1002.86 1953.53,1002.86 C1949.18,1002.86 1945.77,1004.07 1942.31,1006.88 C1936.86,1011.28 1934.33,1016.83 1934.33,1024.26 C1934.33,1029.87 1935.93,1034.54 1939.17,1038.12 C1942.58,1041.97 1947.64,1044.22 1952.92,1044.22 C1957.54,1044.22 1960.79,1042.79 1964.36,1039.22 L1966.4,1044.17 L1968.71,1044.17 L1968.71,1032.07 C1968.71,1029.26 1968.71,1029.15 1969.04,1028.66 C1969.53,1028.05 1970.52,1027.89 1973.66,1027.89 L1974.48,1027.89 L1974.48,1025.3 L1956.99,1025.3 L1956.99,1027.89 L1958.04,1027.89 C1962.66,1027.89 1963.04,1028.16 1963.04,1031.24 C1963.04,1033.61 1962.66,1035.75 1961.94,1037.07 C1960.57,1039.77 1957.05,1041.64 1953.47,1041.64 C1949.9,1041.64 1946.38,1039.82 1944.51,1037.07 C1942.47,1033.99 1941.59,1030.14 1941.59,1024.26 C1941.59,1011.99 1945.66,1005.45 1953.31,1005.45 C1959.58,1005.45 1963.92,1009.96 1966.18,1018.76 L1968.54,1018.76 L1967.77,1003.3 "/>
<path class="Harmony" d="M1980.5,1017.99 L1982.92,1018.37 L1983.91,1014.03 C1984.74,1010.4 1985.12,1009.85 1986.72,1009.85 C1986.99,1009.85 1987.43,1009.85 1987.93,1009.9 C1994.69,1010.23 1994.69,1010.23 1997.22,1010.23 C1997.94,1010.23 1999.2,1010.23 2000.74,1010.18 L1997,1017.71 C1992.93,1025.8 1992.44,1026.79 1991.06,1030.2 C1989.36,1034.32 1988.48,1037.79 1988.48,1040.1 C1988.48,1042.63 1989.8,1044.17 1991.94,1044.17 C1994.58,1044.17 1995.63,1042.41 1995.57,1037.62 C1995.3,1029.7 1996.29,1025.85 2002.17,1012.98 C2003.16,1010.84 2004.21,1008.64 2005.2,1006.49 L2005.2,1004.9 C2001.9,1005.17 2000.14,1005.28 1996.73,1005.28 C1991.94,1005.28 1988.15,1005.12 1982.21,1004.68 L1980.5,1017.99 "/>
<path class="Harmony" d="M2051.04,1003.3 L2048.95,1003.3 L2046.8,1006.6 C2043.23,1003.8 2040.81,1002.86 2036.79,1002.86 C2032.45,1002.86 2029.04,1004.07 2025.57,1006.88 C2020.13,1011.28 2017.6,1016.83 2017.6,1024.26 C2017.6,1029.87 2019.19,1034.54 2022.44,1038.12 C2025.85,1041.97 2030.91,1044.22 2036.19,1044.22 C2040.81,1044.22 2044.05,1042.79 2047.63,1039.22 L2049.66,1044.17 L2051.97,1044.17 L2051.97,1032.07 C2051.97,1029.26 2051.97,1029.15 2052.3,1028.66 C2052.8,1028.05 2053.79,1027.89 2056.92,1027.89 L2057.75,1027.89 L2057.75,1025.3 L2040.26,1025.3 L2040.26,1027.89 L2041.3,1027.89 C2045.92,1027.89 2046.31,1028.16 2046.31,1031.24 C2046.31,1033.61 2045.92,1035.75 2045.21,1037.07 C2043.83,1039.77 2040.31,1041.64 2036.74,1041.64 C2033.16,1041.64 2029.64,1039.82 2027.77,1037.07 C2025.74,1033.99 2024.86,1030.14 2024.86,1024.26 C2024.86,1011.99 2028.93,1005.45 2036.57,1005.45 C2042.84,1005.45 2047.19,1009.96 2049.44,1018.76 L2051.81,1018.76 L2051.04,1003.3 "/>
<path class="Harmony" d="M2063.77,1017.99 L2066.19,1018.37 L2067.18,1014.03 C2068,1010.4 2068.39,1009.85 2069.98,1009.85 C2070.26,1009.85 2070.7,1009.85 2071.19,1009.9 C2077.96,1010.23 2077.96,1010.23 2080.49,1010.23 C2081.2,1010.23 2082.47,1010.23 2084.01,1010.18 L2080.27,1017.71 C2076.2,1025.8 2075.7,1026.79 2074.33,1030.2 C2072.62,1034.32 2071.74,1037.79 2071.74,1040.1 C2071.74,1042.63 2073.06,1044.17 2075.21,1044.17 C2077.85,1044.17 2078.89,1042.41 2078.84,1037.62 C2078.56,1029.7 2079.55,1025.85 2085.44,1012.98 C2086.43,1010.84 2087.47,1008.64 2088.46,1006.49 L2088.46,1004.9 C2085.16,1005.17 2083.4,1005.28 2079.99,1005.28 C2075.21,1005.28 2071.41,1005.12 2065.47,1004.68 L2063.77,1017.99 "/>
<path class="Harmony" d="M1463.74,532.103 L1461.65,532.103 L1459.45,535.348 C1455.44,532.433 1453.4,531.663 1449.61,531.663 C1444.38,531.663 1439.93,533.863 1436.24,538.263 C1432.72,542.443 1431.07,547.063 1431.07,552.728 C1431.07,564.608 1438.83,573.023 1449.66,573.023 C1458.46,573.023 1464.07,567.853 1465.34,558.613 L1462.75,558.173 C1461.27,566.368 1457.09,570.438 1450.32,570.438 C1442.18,570.438 1438.33,564.828 1438.33,552.948 C1438.33,546.678 1439.16,542.553 1441.03,539.253 C1442.73,536.173 1446.09,534.248 1449.66,534.248 C1453.51,534.248 1456.92,536.283 1459.01,539.803 C1460.06,541.618 1460.83,543.653 1462.15,547.998 L1464.57,547.998 L1463.74,532.103 "/>
<path class="Harmony" d="M1411.19,532.103 L1409.1,532.103 L1406.9,535.348 C1402.89,532.433 1400.85,531.663 1397.06,531.663 C1391.83,531.663 1387.38,533.863 1383.69,538.263 C1380.17,542.443 1378.52,547.063 1378.52,552.728 C1378.52,564.608 1386.28,573.023 1397.11,573.023 C1405.91,573.023 1411.52,567.853 1412.79,558.613 L1410.2,558.173 C1408.72,566.368 1404.54,570.438 1397.77,570.438 C1389.63,570.438 1385.78,564.828 1385.78,552.948 C1385.78,546.678 1386.61,542.553 1388.48,539.253 C1390.18,536.173 1393.54,534.248 1397.11,534.248 C1400.96,534.248 1404.37,536.283 1406.46,539.803 C1407.51,541.618 1408.28,543.653 1409.6,547.998 L1412.02,547.998 L1411.19,532.103 "/>
<path class="Harmony" d="M390.587,1003.3 L388.497,1003.3 L386.297,1006.55 C382.282,1003.63 380.247,1002.86 376.452,1002.86 C371.227,1002.86 366.772,1005.06 363.087,1009.46 C359.567,1013.64 357.917,1018.26 357.917,1023.93 C357.917,1035.81 365.672,1044.22 376.507,1044.22 C385.307,1044.22 390.917,1039.05 392.182,1029.81 L389.597,1029.37 C388.112,1037.57 383.932,1041.64 377.167,1041.64 C369.027,1041.64 365.177,1036.03 365.177,1024.15 C365.177,1017.88 366.002,1013.75 367.872,1010.45 C369.577,1007.37 372.932,1005.45 376.507,1005.45 C380.357,1005.45 383.767,1007.48 385.857,1011 C386.902,1012.82 387.672,1014.85 388.992,1019.2 L391.412,1019.2 L390.587,1003.3 "/>
<path class="Harmony" d="M2134.31,1003.3 L2132.22,1003.3 L2130.07,1006.6 C2126.5,1003.8 2124.08,1002.86 2120.06,1002.86 C2115.72,1002.86 2112.31,1004.07 2108.84,1006.88 C2103.4,1011.28 2100.87,1016.83 2100.87,1024.26 C2100.87,1029.87 2102.46,1034.54 2105.71,1038.12 C2109.12,1041.97 2114.18,1044.22 2119.46,1044.22 C2124.08,1044.22 2127.32,1042.79 2130.9,1039.22 L2132.93,1044.17 L2135.24,1044.17 L2135.24,1032.07 C2135.24,1029.26 2135.24,1029.15 2135.57,1028.66 C2136.07,1028.05 2137.06,1027.89 2140.19,1027.89 L2141.02,1027.89 L2141.02,1025.3 L2123.53,1025.3 L2123.53,1027.89 L2124.57,1027.89 C2129.19,1027.89 2129.58,1028.16 2129.58,1031.24 C2129.58,1033.61 2129.19,1035.75 2128.48,1037.07 C2127.1,1039.77 2123.58,1041.64 2120.01,1041.64 C2116.43,1041.64 2112.91,1039.82 2111.04,1037.07 C2109.01,1033.99 2108.13,1030.14 2108.13,1024.26 C2108.13,1011.99 2112.2,1005.45 2119.84,1005.45 C2126.11,1005.45 2130.46,1009.96 2132.71,1018.76 L2135.08,1018.76 L2134.31,1003.3 "/>
<path class="Harmony" d="M2147.04,1017.99 L2149.46,1018.37 L2150.45,1014.03 C2151.27,1010.4 2151.66,1009.85 2153.25,1009.85 C2153.53,1009.85 2153.97,1009.85 2154.46,1009.9 C2161.23,1010.23 2161.23,1010.23 2163.76,1010.23 C2164.47,1010.23 2165.74,1010.23 2167.28,1010.18 L2163.54,1017.71 C2159.47,1025.8 2158.97,1026.79 2157.6,1030.2 C2155.89,1034.32 2155.01,1037.79 2155.01,1040.1 C2155.01,1042.63 2156.33,1044.17 2158.48,1044.17 C2161.12,1044.17 2162.16,1042.41 2162.11,1037.62 C2161.83,1029.7 2162.82,1025.85 2168.71,1012.98 C2169.7,1010.84 2170.74,1008.64 2171.73,1006.49 L2171.73,1004.9 C2168.43,1005.17 2166.67,1005.28 2163.26,1005.28 C2158.48,1005.28 2154.68,1005.12 2148.74,1004.68 L2147.04,1017.99 "/>
<path class="Harmony" d="M1358.64,532.103 L1356.55,532.103 L1354.35,535.348 C1350.33,532.433 1348.3,531.663 1344.5,531.663 C1339.28,531.663 1334.82,533.863 1331.14,538.263 C1327.62,542.443 1325.97,547.063 1325.97,552.728 C1325.97,564.608 1333.72,573.023 1344.56,573.023 C1353.36,573.023 1358.97,567.853 1360.23,558.613 L1357.65,558.173 C1356.16,566.368 1351.98,570.438 1345.22,570.438 C1337.08,570.438 1333.23,564.828 1333.23,552.948 C1333.23,546.678 1334.05,542.553 1335.92,539.253 C1337.63,536.173 1340.98,534.248 1344.56,534.248 C1348.41,534.248 1351.82,536.283 1353.91,539.803 C1354.95,541.618 1355.72,543.653 1357.04,547.998 L1359.46,547.998 L1358.64,532.103 "/>
<path class="Harmony" d="M823.725,1003.69 L791,1003.69 L791,1006.27 L791.99,1006.27 C795.125,1006.33 796.17,1006.49 796.61,1007.04 C796.94,1007.54 796.94,1007.65 796.94,1010.45 L796.94,1036.63 C796.94,1039.44 796.94,1039.55 796.61,1040.04 C796.17,1040.59 795.125,1040.81 791.99,1040.81 L791,1040.81 L791,1043.4 L809.865,1043.4 L809.865,1040.81 L808.05,1040.81 C804.915,1040.81 803.87,1040.59 803.43,1040.04 C803.1,1039.55 803.1,1039.38 803.1,1036.63 L803.1,1024.15 L804.2,1024.15 C809.865,1023.93 811.9,1025.96 812.12,1032.07 L814.705,1032.07 L814.705,1014.03 L812.12,1014.03 C811.79,1019.42 809.645,1021.51 804.42,1021.56 L803.1,1021.56 L803.1,1009.02 C803.045,1006.71 803.595,1006.33 806.565,1006.27 L809.095,1006.27 C818.115,1006.22 820.37,1008.25 822.075,1017.71 L824.495,1017.71 L823.725,1003.69 "/>
<path class="Harmony" d="M473.045,1003.3 L470.955,1003.3 L468.755,1006.55 C464.74,1003.63 462.705,1002.86 458.91,1002.86 C453.685,1002.86 449.23,1005.06 445.545,1009.46 C442.025,1013.64 440.375,1018.26 440.375,1023.93 C440.375,1035.81 448.13,1044.22 458.965,1044.22 C467.765,1044.22 473.375,1039.05 474.64,1029.81 L472.055,1029.37 C470.57,1037.57 466.39,1041.64 459.625,1041.64 C451.485,1041.64 447.635,1036.03 447.635,1024.15 C447.635,1017.88 448.46,1013.75 450.33,1010.45 C452.035,1007.37 455.39,1005.45 458.965,1005.45 C462.815,1005.45 466.225,1007.48 468.315,1011 C469.36,1012.82 470.13,1014.85 471.45,1019.2 L473.87,1019.2 L473.045,1003.3 "/>
<path class="Harmony" d="M1197.24,532.103 L1195.15,532.103 L1192.95,535.348 C1188.93,532.433 1186.9,531.663 1183.1,531.663 C1177.88,531.663 1173.42,533.863 1169.74,538.263 C1166.22,542.443 1164.57,547.063 1164.57,552.728 C1164.57,564.608 1172.32,573.023 1183.16,573.023 C1191.96,573.023 1197.57,567.853 1198.83,558.613 L1196.25,558.173 C1194.76,566.368 1190.58,570.438 1183.82,570.438 C1175.68,570.438 1171.83,564.828 1171.83,552.948 C1171.83,546.678 1172.65,542.553 1174.52,539.253 C1176.23,536.173 1179.58,534.248 1183.16,534.248 C1187.01,534.248 1190.42,536.283 1192.51,539.803 C1193.55,541.618 1194.32,543.653 1195.64,547.998 L1198.06,547.998 L1197.24,532.103 "/>
<path class="Harmony" d="M896.903,1003.69 L864.178,1003.69 L864.178,1006.27 L865.168,1006.27 C868.303,1006.33 869.348,1006.49 869.788,1007.04 C870.118,1007.54 870.118,1007.65 870.118,1010.45 L870.118,1036.63 C870.118,1039.44 870.118,1039.55 869.788,1040.04 C869.348,1040.59 868.303,1040.81 865.168,1040.81 L864.178,1040.81 L864.178,1043.4 L883.043,1043.4 L883.043,1040.81 L881.228,1040.81 C878.093,1040.81 877.048,1040.59 876.608,1040.04 C876.278,1039.55 876.278,1039.38 876.278,1036.63 L876.278,1024.15 L877.378,1024.15 C883.043,1023.93 885.078,1025.96 885.298,1032.07 L887.883,1032.07 L887.883,1014.03 L885.298,1014.03 C884.968,1019.42 882.823,1021.51 877.598,1021.56 L876.278,1021.56 L876.278,1009.02 C876.223,1006.71 876.773,1006.33 879.743,1006.27 L882.273,1006.27 C891.293,1006.22 893.548,1008.25 895.253,1017.71 L897.673,1017.71 L896.903,1003.69 "/>
<path class="Harmony" d="M1106.93,532.103 L1104.84,532.103 L1102.64,535.348 C1098.63,532.433 1096.59,531.663 1092.8,531.663 C1087.57,531.663 1083.12,533.863 1079.43,538.263 C1075.91,542.443 1074.26,547.063 1074.26,552.728 C1074.26,564.608 1082.02,573.023 1092.85,573.023 C1101.65,573.023 1107.26,567.853 1108.53,558.613 L1105.94,558.173 C1104.46,566.368 1100.28,570.438 1093.51,570.438 C1085.37,570.438 1081.52,564.828 1081.52,552.948 C1081.52,546.678 1082.35,542.553 1084.22,539.253 C1085.92,536.173 1089.28,534.248 1092.85,534.248 C1096.7,534.248 1100.11,536.283 1102.2,539.803 C1103.25,541.618 1104.02,543.653 1105.34,547.998 L1107.76,547.998 L1106.93,532.103 "/>
<path class="Harmony" d="M1036.86,532.103 L1034.77,532.103 L1032.57,535.348 C1028.56,532.433 1026.52,531.663 1022.73,531.663 C1017.5,531.663 1013.05,533.863 1009.36,538.263 C1005.84,542.443 1004.19,547.063 1004.19,552.728 C1004.19,564.608 1011.95,573.023 1022.78,573.023 C1031.58,573.023 1037.19,567.853 1038.46,558.613 L1035.87,558.173 C1034.39,566.368 1030.21,570.438 1023.44,570.438 C1015.3,570.438 1011.45,564.828 1011.45,552.948 C1011.45,546.678 1012.28,542.553 1014.15,539.253 C1015.85,536.173 1019.21,534.248 1022.78,534.248 C1026.63,534.248 1030.04,536.283 1032.13,539.803 C1033.18,541.618 1033.95,543.653 1035.27,547.998 L1037.69,547.998 L1036.86,532.103 "/>
<path class="Harmony" d="M875.512,532.488 L842.787,532.488 L842.787,535.073 L843.777,535.073 C846.912,535.128 847.957,535.293 848.397,535.843 C848.727,536.338 848.727,536.448 848.727,539.253 L848.727,565.433 C848.727,568.238 848.727,568.348 848.397,568.843 C847.957,569.393 846.912,569.613 843.777,569.613 L842.787,569.613 L842.787,572.198 L861.652,572.198 L861.652,569.613 L859.837,569.613 C856.702,569.613 855.657,569.393 855.217,568.843 C854.887,568.348 854.887,568.183 854.887,565.433 L854.887,552.948 L855.987,552.948 C861.652,552.728 863.687,554.763 863.907,560.868 L866.492,560.868 L866.492,542.828 L863.907,542.828 C863.577,548.218 861.432,550.308 856.207,550.363 L854.887,550.363 L854.887,537.823 C854.832,535.513 855.382,535.128 858.352,535.073 L860.882,535.073 C869.902,535.018 872.157,537.053 873.862,546.513 L876.282,546.513 L875.512,532.488 "/>
<path class="Harmony" d="M2304.7,1003.3 L2302.61,1003.3 L2300.41,1006.55 C2296.4,1003.63 2294.36,1002.86 2290.57,1002.86 C2285.34,1002.86 2280.89,1005.06 2277.2,1009.46 C2273.68,1013.64 2272.03,1018.26 2272.03,1023.93 C2272.03,1035.81 2279.79,1044.22 2290.62,1044.22 C2299.42,1044.22 2305.03,1039.05 2306.3,1029.81 L2303.71,1029.37 C2302.23,1037.57 2298.05,1041.64 2291.28,1041.64 C2283.14,1041.64 2279.29,1036.03 2279.29,1024.15 C2279.29,1017.88 2280.12,1013.75 2281.99,1010.45 C2283.69,1007.37 2287.05,1005.45 2290.62,1005.45 C2294.47,1005.45 2297.88,1007.48 2299.97,1011 C2301.02,1012.82 2301.79,1014.85 2303.11,1019.2 L2305.53,1019.2 L2304.7,1003.3 "/>
<path class="Harmony" d="M2366.55,1003.3 L2364.46,1003.3 L2362.26,1006.55 C2358.24,1003.63 2356.21,1002.86 2352.41,1002.86 C2347.19,1002.86 2342.73,1005.06 2339.05,1009.46 C2335.53,1013.64 2333.88,1018.26 2333.88,1023.93 C2333.88,1035.81 2341.63,1044.22 2352.47,1044.22 C2361.27,1044.22 2366.88,1039.05 2368.14,1029.81 L2365.56,1029.37 C2364.07,1037.57 2359.89,1041.64 2353.13,1041.64 C2344.99,1041.64 2341.14,1036.03 2341.14,1024.15 C2341.14,1017.88 2341.96,1013.75 2343.83,1010.45 C2345.54,1007.37 2348.89,1005.45 2352.47,1005.45 C2356.32,1005.45 2359.73,1007.48 2361.82,1011 C2362.86,1012.82 2363.63,1014.85 2364.95,1019.2 L2367.37,1019.2 L2366.55,1003.3 "/>
<path class="Harmony" d="M2428.39,1003.3 L2426.3,1003.3 L2424.1,1006.55 C2420.09,1003.63 2418.05,1002.86 2414.26,1002.86 C2409.03,1002.86 2404.58,1005.06 2400.89,1009.46 C2397.37,1013.64 2395.72,1018.26 2395.72,1023.93 C2395.72,1035.81 2403.48,1044.22 2414.31,1044.22 C2423.11,1044.22 2428.72,1039.05 2429.99,1029.81 L2427.4,1029.37 C2425.92,1037.57 2421.74,1041.64 2414.97,1041.64 C2406.83,1041.64 2402.98,1036.03 2402.98,1024.15 C2402.98,1017.88 2403.81,1013.75 2405.68,1010.45 C2407.38,1007.37 2410.74,1005.45 2414.31,1005.45 C2418.16,1005.45 2421.57,1007.48 2423.66,1011 C2424.71,1012.82 2425.48,1014.85 2426.8,1019.2 L2429.22,1019.2 L2428.39,1003.3 "/>
<path class="Harmony" d="M2741.04,532.103 L2738.95,532.103 L2736.8,535.403 C2733.23,532.598 2730.81,531.663 2726.79,531.663 C2722.45,531.663 2719.04,532.873 2715.57,535.678 C2710.13,540.078 2707.6,545.633 2707.6,553.058 C2707.6,558.668 2709.19,563.343 2712.44,566.918 C2715.85,570.768 2720.91,573.023 2726.19,573.023 C2730.81,573.023 2734.05,571.593 2737.63,568.018 L2739.66,572.968 L2741.97,572.968 L2741.97,560.868 C2741.97,558.063 2741.97,557.953 2742.3,557.458 C2742.8,556.853 2743.79,556.688 2746.92,556.688 L2747.75,556.688 L2747.75,554.103 L2730.26,554.103 L2730.26,556.688 L2731.3,556.688 C2735.92,556.688 2736.31,556.963 2736.31,560.043 C2736.31,562.408 2735.92,564.553 2735.21,565.873 C2733.83,568.568 2730.31,570.438 2726.74,570.438 C2723.16,570.438 2719.64,568.623 2717.77,565.873 C2715.74,562.793 2714.86,558.943 2714.86,553.058 C2714.86,540.793 2718.93,534.248 2726.57,534.248 C2732.84,534.248 2737.19,538.758 2739.44,547.558 L2741.81,547.558 L2741.04,532.103 "/>
<path class="Harmony" d="M2753.77,546.788 L2756.19,547.173 L2757.18,542.828 C2758,539.198 2758.39,538.648 2759.98,538.648 C2760.26,538.648 2760.7,538.648 2761.19,538.703 C2767.96,539.033 2767.96,539.033 2770.49,539.033 C2771.2,539.033 2772.47,539.033 2774.01,538.978 L2770.27,546.513 C2766.2,554.598 2765.7,555.588 2764.33,558.998 C2762.62,563.123 2761.74,566.588 2761.74,568.898 C2761.74,571.428 2763.06,572.968 2765.21,572.968 C2767.85,572.968 2768.89,571.208 2768.84,566.423 C2768.56,558.503 2769.55,554.653 2775.44,541.783 C2776.43,539.638 2777.47,537.438 2778.46,535.293 L2778.46,533.698 C2775.16,533.973 2773.4,534.083 2769.99,534.083 C2765.21,534.083 2761.41,533.918 2755.47,533.478 L2753.77,546.788 "/>
<path class="NoteDot" transform="matrix(0.992,0,0,0.992,1048.81,696.198)" d="M0,0 C0,2.8 2.2,5 5,5 C7.8,5 10,2.8 10,0 C10,-2.8 7.8,-5 5,-5 C2.2,-5 0,-2.8 0,0"/>
<path class="NoteDot" transform="matrix(0.992,0,0,0.992,2316.65,1217)" d="M0,0 C0,2.8 2.2,5 5,5 C7.8,5 10,2.8 10,0 C10,-2.8 7.8,-5 5,-5 C2.2,-5 0,-2.8 0,0"/>
<path class="NoteDot" transform="matrix(0.992,0,0,0.992,1370.59,720.998)" d="M0,0 C0,2.8 2.2,5 5,5 C7.8,5 10,2.8 10,0 C10,-2.8 7.8,-5 5,-5 C2.2,-5 0,-2.8 0,0"/>
<path class="NoteDot" transform="matrix(0.992,0,0,0.992,1564.94,770.598)" d="M0,0 C0,2.8 2.2,5 5,5 C7.8,5 10,2.8 10,0 C10,-2.8 7.8,-5 5,-5 C2.2,-5 0,-2.8 0,0"/>
<path class="NoteDot" transform="matrix(0.992,0,0,0.992,441.27,696.198)" d="M0,0 C0,2.8 2.2,5 5,5 C7.8,5 10,2.8 10,0 C10,-2.8 7.8,-5 5,-5 C2.2,-5 0,-2.8 0,0"/>
<path class="NoteDot" transform="matrix(0.992,0,0,0.992,402.535,1167.4)" d="M0,0 C0,2.8 2.2,5 5,5 C7.8,5 10,2.8 10,0 C10,-2.8 7.8,-5 5,-5 C2.2,-5 0,-2.8 0,0"/>
<path class="NoteDot" transform="matrix(0.992,0,0,0.992,2329.89,745.798)" d="M0,0 C0,2.8 2.2,5 5,5 C7.8,5 10,2.8 10,0 C10,-2.8 7.8,-5 5,-5 C2.2,-5 0,-2.8 0,0"/>
<path class="NoteDot" transform="matrix(0.992,0,0,0.992,2585.68,745.798)" d="M0,0 C0,2.8 2.2,5 5,5 C7.8,5 10,2.8 10,0 C10,-2.8 7.8,-5 5,-5 C2.2,-5 0,-2.8 0,0"/>
</svg>
