<?xml version="1.0" encoding="UTF-8" standalone="no"?>
<svg width="2977.2px" height="4208.4px" viewBox="0 0 2977.2 4208.4"
 xmlns="http://www.w3.org/2000/svg" xmlns:xlink="http://www.w3.org/1999/xlink" version="1.2" baseProfile="tiny">
<title>崖の上のポニョ</title>
<desc>Generated by MuseScore Studio 4.4.2</desc>
<path class="" fill="#ffffff" fill-rule="evenodd" d="M0,0 L2977.2,0 L2977.2,4208.4 L0,4208.4 L0,0 "/>
<polyline class="StaffLines" fill="none" stroke="#000000" stroke-width="2.73" stroke-linejoin="bevel" points="212.598,634.198 2764.6,634.198"/>
<polyline class="StaffLines" fill="none" stroke="#000000" stroke-width="2.73" stroke-linejoin="bevel" points="212.598,658.998 2764.6,658.998"/>
<polyline class="StaffLines" fill="none" stroke="#000000" stroke-width="2.73" stroke-linejoin="bevel" points="212.598,683.798 2764.6,683.798"/>
<polyline class="StaffLines" fill="none" stroke="#000000" stroke-width="2.73" stroke-linejoin="bevel" points="212.598,708.598 2764.6,708.598"/>
<polyline class="StaffLines" fill="none" stroke="#000000" stroke-width="2.73" stroke-linejoin="bevel" points="212.598,733.398 2764.6,733.398"/>
<polyline class="StaffLines" fill="none" stroke="#000000" stroke-width="2.73" stroke-linejoin="bevel" points="212.598,1105.4 2764.6,1105.4"/>
<polyline class="StaffLines" fill="none" stroke="#000000" stroke-width="2.73" stroke-linejoin="bevel" points="212.598,1130.2 2764.6,1130.2"/>
<polyline class="StaffLines" fill="none" stroke="#000000" stroke-width="2.73" stroke-linejoin="bevel" points="212.598,1155 2764.6,1155"/>
<polyline class="StaffLines" fill="none" stroke="#000000" stroke-width="2.73" stroke-linejoin="bevel" points="212.598,1179.8 2764.6,1179.8"/>
<polyline class="StaffLines" fill="none" stroke="#000000" stroke-width="2.73" stroke-linejoin="bevel" points="212.598,1204.6 2764.6,1204.6"/>
<path class="Text" d="M1173.67,290.699 L1154.2,290.699 C1149.58,290.699 1147.27,290.589 1144.63,290.149 L1144.63,296.969 C1147.49,296.529 1149.58,296.419 1154.2,296.419 L1173.67,296.419 L1173.67,307.309 L1145.29,307.309 C1140.45,307.309 1138.58,307.199 1135.72,306.759 L1135.72,313.689 C1138.58,313.249 1141.55,313.139 1145.84,313.139 L1210.96,313.139 C1215.36,313.139 1218.11,313.249 1221.08,313.689 L1221.08,306.759 C1218.44,307.199 1216.13,307.309 1211.62,307.309 L1180.27,307.309 L1180.27,296.419 L1203.15,296.419 C1207.77,296.419 1209.53,296.529 1212.61,296.969 L1212.61,290.149 C1209.97,290.589 1207.66,290.699 1203.15,290.699 L1180.27,290.699 L1180.27,289.819 C1180.27,287.399 1180.38,285.749 1180.82,283.439 L1173.12,283.439 C1173.45,285.419 1173.67,287.509 1173.67,289.819 L1173.67,290.699 M1169.82,229.979 L1140.23,229.979 L1140.23,226.789 C1140.23,223.929 1140.34,222.169 1140.67,219.969 L1132.97,219.969 C1133.41,222.389 1133.52,224.149 1133.52,226.459 L1133.52,230.199 C1133.52,231.959 1133.41,234.159 1133.3,235.919 C1136.6,235.809 1138.47,235.699 1140.34,235.699 L1207.44,235.699 C1209.53,235.699 1211.62,235.809 1214.7,235.919 C1214.59,233.829 1214.48,232.289 1214.48,229.979 L1214.48,226.459 C1214.48,223.929 1214.59,222.059 1215.03,219.969 L1207.33,219.969 C1207.66,222.389 1207.77,224.149 1207.77,226.789 L1207.77,229.979 L1176.64,229.979 L1176.64,224.369 C1176.64,221.399 1176.86,219.089 1177.3,216.559 L1169.16,216.559 C1169.6,219.089 1169.82,221.619 1169.82,224.479 L1169.82,229.979 M1173.67,259.349 L1154.97,259.349 C1150.24,259.349 1148.15,259.239 1145.4,258.799 L1145.4,265.509 C1148.26,265.069 1150.35,264.959 1154.97,264.959 L1173.67,264.959 L1173.67,274.529 L1150.46,274.529 C1145.95,274.529 1143.53,274.419 1140.89,273.979 L1140.89,280.799 C1143.86,280.359 1146.17,280.249 1150.46,280.249 L1208.98,280.249 C1213.16,280.249 1215.47,280.359 1218.44,280.799 L1218.44,273.979 C1215.8,274.419 1213.49,274.529 1208.98,274.529 L1180.27,274.529 L1180.27,264.959 L1202.93,264.959 C1207.55,264.959 1209.53,265.069 1212.39,265.509 L1212.39,258.799 C1209.64,259.239 1207.55,259.349 1202.93,259.349 L1180.27,259.349 L1180.27,258.359 C1180.27,255.829 1180.38,254.179 1180.82,251.869 L1173.12,251.869 C1173.45,253.849 1173.67,256.049 1173.67,258.359 L1173.67,259.349 M1138.03,249.229 L1207.99,249.229 C1213.82,249.229 1216.68,249.339 1219.76,249.779 L1219.76,242.629 C1217.01,243.179 1214.26,243.289 1207.99,243.289 L1143.53,243.289 C1137.92,243.289 1134.29,243.179 1130.66,242.739 C1130.99,246.039 1131.21,250.439 1131.21,257.149 C1131.21,273.099 1130.33,285.419 1128.46,292.899 C1127.03,299.389 1125.16,303.129 1120.32,309.619 C1122.19,311.049 1123.51,312.589 1125.6,315.559 C1130.11,308.959 1132.64,303.679 1134.4,297.189 C1136.82,287.839 1138.03,274.859 1138.03,256.709 L1138.03,249.229 "/>
<path class="Text" d="M1288.18,235.809 C1293.68,236.029 1296.87,236.799 1300.94,238.559 C1312.05,243.509 1318.43,253.629 1318.43,266.169 C1318.43,279.699 1311.06,291.469 1298.96,296.969 C1293.79,299.389 1288.62,300.819 1280.59,302.139 C1282.68,304.779 1283.34,305.879 1284.44,309.509 C1292.03,307.859 1296.21,306.539 1301.16,304.449 C1317.11,297.629 1326.35,283.549 1326.35,266.499 C1326.35,255.939 1322.61,246.369 1315.68,239.659 C1308.53,232.619 1297.75,228.769 1285.43,228.769 C1270.69,228.769 1258.7,233.719 1249.9,243.399 C1242.53,251.649 1238.35,262.539 1238.35,273.759 C1238.35,289.159 1246.16,300.599 1256.61,300.599 C1264.53,300.599 1271.02,293.999 1277.4,279.479 C1282.35,267.929 1286.53,251.099 1288.18,235.809 M1280.26,235.919 C1278.83,249.999 1274.76,266.279 1270.25,276.619 C1265.52,287.399 1261.12,292.569 1256.5,292.569 C1250.56,292.569 1245.94,284.429 1245.94,273.869 C1245.94,260.229 1252.76,247.799 1263.87,241.089 C1268.93,238.009 1273.66,236.469 1280.26,235.919"/>
<path class="Text" d="M1393.78,260.009 L1421.61,260.009 C1426.34,260.009 1429.64,260.229 1433.05,260.669 L1433.05,252.199 C1429.86,252.639 1426.34,252.859 1421.61,252.859 L1393.78,252.859 L1393.78,230.309 C1393.78,226.129 1394,222.609 1394.55,218.869 L1385.2,218.869 C1385.75,222.719 1385.97,226.129 1385.97,230.309 L1385.97,304.559 L1356.49,304.559 C1350.99,304.559 1347.14,304.339 1343.51,303.899 L1343.51,312.259 C1347.69,311.709 1351.76,311.489 1356.49,311.489 L1429.75,311.489 C1434.48,311.489 1437.89,311.709 1442.07,312.259 L1442.07,303.899 C1438.33,304.339 1434.92,304.559 1429.75,304.559 L1393.78,304.559 L1393.78,260.009 "/>
<path class="Text" d="M1508.18,235.809 C1513.68,236.029 1516.87,236.799 1520.94,238.559 C1532.05,243.509 1538.43,253.629 1538.43,266.169 C1538.43,279.699 1531.06,291.469 1518.96,296.969 C1513.79,299.389 1508.62,300.819 1500.59,302.139 C1502.68,304.779 1503.34,305.879 1504.44,309.509 C1512.03,307.859 1516.21,306.539 1521.16,304.449 C1537.11,297.629 1546.35,283.549 1546.35,266.499 C1546.35,255.939 1542.61,246.369 1535.68,239.659 C1528.53,232.619 1517.75,228.769 1505.43,228.769 C1490.69,228.769 1478.7,233.719 1469.9,243.399 C1462.53,251.649 1458.35,262.539 1458.35,273.759 C1458.35,289.159 1466.16,300.599 1476.61,300.599 C1484.53,300.599 1491.02,293.999 1497.4,279.479 C1502.35,267.929 1506.53,251.099 1508.18,235.809 M1500.26,235.919 C1498.83,249.999 1494.76,266.279 1490.25,276.619 C1485.52,287.399 1481.12,292.569 1476.5,292.569 C1470.56,292.569 1465.94,284.429 1465.94,273.869 C1465.94,260.229 1472.76,247.799 1483.87,241.089 C1488.93,238.009 1493.66,236.469 1500.26,235.919"/>
<path class="Text" d="M1607.51,240.209 L1580.67,240.209 C1573.52,240.209 1571.43,240.099 1567.91,239.549 L1567.91,247.909 C1571.32,247.469 1573.52,247.359 1580.56,247.359 L1607.51,247.359 L1607.51,302.249 C1607.51,308.959 1607.29,311.269 1606.85,313.799 L1615.87,313.799 C1615.43,311.269 1615.32,308.849 1615.32,302.139 L1615.32,247.359 L1643.26,247.359 C1650.3,247.359 1652.5,247.469 1655.91,247.909 L1655.91,239.549 C1652.39,240.099 1650.19,240.209 1643.04,240.209 L1615.32,240.209 L1615.32,233.059 C1615.32,226.239 1615.43,224.259 1615.87,221.619 L1606.85,221.619 C1607.4,224.149 1607.51,226.129 1607.51,232.839 L1607.51,240.209 M1583.75,257.479 C1583.53,261.109 1582.21,266.279 1579.9,272.439 C1575.17,284.979 1570.22,293.229 1563.73,299.499 C1567.14,301.149 1568.46,301.919 1570.99,304.229 C1579.57,294.219 1586.28,280.909 1590.24,266.279 L1590.79,263.859 L1591.45,261.659 C1591.67,260.889 1591.67,260.889 1592.11,259.789 L1583.75,257.479 M1630.72,259.679 C1631.49,261.439 1632.48,263.859 1633.47,266.829 C1639.08,282.889 1644.91,294.549 1652.61,304.669 C1655.25,302.029 1656.46,301.149 1659.54,299.499 C1652.72,291.689 1647.66,282.889 1642.49,270.019 C1639.96,263.419 1638.97,260.339 1638.42,257.589 L1630.72,259.679 M1650.52,212.599 C1643.59,212.599 1637.98,218.209 1637.98,225.029 C1637.98,231.959 1643.59,237.569 1650.52,237.569 C1657.34,237.569 1662.95,231.959 1662.95,225.029 C1662.95,218.099 1657.45,212.599 1650.52,212.599 M1650.52,217.219 C1654.81,217.219 1658.33,220.739 1658.33,225.029 C1658.33,229.429 1654.81,232.949 1650.52,232.949 C1646.12,232.949 1642.6,229.429 1642.6,225.029 C1642.6,220.739 1646.12,217.219 1650.52,217.219 M1689.35,244.939 C1692.65,244.609 1695.62,244.499 1701.01,244.499 L1743.25,244.499 C1748.64,244.499 1751.61,244.609 1754.91,244.939 L1754.91,236.029 C1751.28,236.579 1748.86,236.689 1743.14,236.689 L1701.12,236.689 C1695.4,236.689 1692.98,236.579 1689.35,236.029 L1689.35,244.939 M1678.24,297.519 C1681.98,297.079 1685.06,296.969 1690.89,296.969 L1753.48,296.969 C1759.31,296.969 1762.5,297.079 1766.13,297.519 L1766.13,288.279 C1762.17,288.829 1759.86,288.939 1753.37,288.939 L1691,288.939 C1684.51,288.939 1682.2,288.829 1678.24,288.279 L1678.24,297.519 M1852.7,309.179 L1852.7,314.679 L1860.29,314.679 C1859.96,312.809 1859.85,311.379 1859.85,307.859 L1859.85,258.139 C1859.85,254.289 1859.85,252.529 1859.96,249.669 C1857.98,249.779 1856,249.889 1852.48,249.889 L1811.56,249.889 C1807.27,249.889 1804.63,249.669 1801.99,249.229 L1801.99,256.819 C1804.74,256.379 1805.73,256.379 1811.56,256.379 L1852.7,256.379 L1852.7,275.519 L1814.09,275.519 C1809.8,275.519 1807.16,275.299 1804.52,274.859 L1804.52,282.339 C1807.27,281.899 1808.15,281.899 1813.98,281.899 L1852.7,281.899 L1852.7,302.579 L1810.46,302.579 C1806.39,302.579 1803.53,302.359 1800.89,301.919 L1800.89,309.619 C1803.64,309.179 1804.52,309.179 1810.46,309.179 L1852.7,309.179 "/>
<path class="MeasureNumber" d="M217.481,1042.4 C218.161,1038.88 218.961,1036.68 220.481,1034 C222.281,1030.84 224.441,1029.24 226.841,1029.24 C228.081,1029.24 228.841,1029.72 228.841,1030.48 C228.841,1030.76 228.761,1030.92 228.481,1031.44 C228.121,1032.12 227.961,1032.6 227.961,1033.2 C227.961,1034.48 228.921,1035.36 230.281,1035.36 C231.921,1035.36 233.041,1034.16 233.041,1032.36 C233.041,1029.64 230.481,1027.64 226.921,1027.64 C218.001,1027.64 212.601,1039.28 212.601,1046.96 C212.601,1052.84 215.521,1056.4 220.401,1056.4 C226.401,1056.4 230.841,1051.44 230.841,1045.56 C230.841,1041.48 228.081,1038.64 224.081,1038.64 C221.281,1038.64 219.121,1039.84 217.481,1042.4 M222.801,1040.96 C225.281,1040.96 226.641,1042.68 226.641,1045.8 C226.641,1050.88 223.961,1054.76 220.401,1054.76 C217.841,1054.76 216.321,1052.88 216.321,1049.68 C216.321,1044.68 219.081,1040.96 222.801,1040.96"/>
<path class="TieSegment" stroke="#000000" stroke-width="1.74" stroke-linecap="round" stroke-linejoin="round" fill-rule="evenodd" d="M2485.4,739.095 C2495.56,751.644 2526.02,751.644 2536.17,739.095 C2526.02,756.65 2495.56,756.65 2485.4,739.095"/>
<path class="TieSegment" stroke="#000000" stroke-width="1.74" stroke-linecap="round" stroke-linejoin="round" fill-rule="evenodd" d="M598.596,739.095 C608.749,751.644 639.207,751.644 649.359,739.095 C639.207,756.65 608.749,756.65 598.596,739.095"/>
<polyline class="BarLine" fill="none" stroke="#000000" stroke-width="4.46" stroke-linejoin="bevel" points="875.561,632.834 875.561,734.762"/>
<polyline class="BarLine" fill="none" stroke="#000000" stroke-width="4.46" stroke-linejoin="bevel" points="2740.42,1104.03 2740.42,1205.96"/>
<polyline class="BarLine" fill="none" stroke="#000000" stroke-width="13.64" stroke-linejoin="bevel" points="2757.78,1104.03 2757.78,1205.96"/>
<polyline class="BarLine" fill="none" stroke="#000000" stroke-width="4.46" stroke-linejoin="bevel" points="2053.74,1104.03 2053.74,1205.96"/>
<polyline class="BarLine" fill="none" stroke="#000000" stroke-width="4.46" stroke-linejoin="bevel" points="1185.06,1104.03 1185.06,1205.96"/>
<polyline class="BarLine" fill="none" stroke="#000000" stroke-width="4.46" stroke-linejoin="bevel" points="2762.37,632.834 2762.37,734.762"/>
<polyline class="BarLine" fill="none" stroke="#000000" stroke-width="4.46" stroke-linejoin="bevel" points="2293.92,632.834 2293.92,734.762"/>
<polyline class="BarLine" fill="none" stroke="#000000" stroke-width="4.46" stroke-linejoin="bevel" points="1867.15,632.834 1867.15,734.762"/>
<polyline class="BarLine" fill="none" stroke="#000000" stroke-width="4.46" stroke-linejoin="bevel" points="1357.42,632.834 1357.42,734.762"/>
<polyline class="LedgerLine" fill="none" stroke="#000000" stroke-width="3.97" stroke-linejoin="bevel" points="795.225,758.198 844.809,758.198"/>
<polyline class="LedgerLine" fill="none" stroke="#000000" stroke-width="3.97" stroke-linejoin="bevel" points="2570.46,758.198 2620.05,758.198"/>
<polyline class="LedgerLine" fill="none" stroke="#000000" stroke-width="3.97" stroke-linejoin="bevel" points="2626.25,758.198 2675.83,758.198"/>
<polyline class="LedgerLine" fill="none" stroke="#000000" stroke-width="3.97" stroke-linejoin="bevel" points="683.656,758.198 733.24,758.198"/>
<polyline class="LedgerLine" fill="none" stroke="#000000" stroke-width="3.97" stroke-linejoin="bevel" points="2682.03,758.198 2731.62,758.198"/>
<polyline class="LedgerLine" fill="none" stroke="#000000" stroke-width="3.97" stroke-linejoin="bevel" points="739.44,758.198 789.025,758.198"/>
<polyline class="Stem" fill="none" stroke="#000000" stroke-width="2.73" stroke-linejoin="bevel" points="556.026,692.23 556.026,628.143"/>
<polyline class="Stem" fill="none" stroke="#000000" stroke-width="2.73" stroke-linejoin="bevel" points="1812.82,692.23 1812.82,615.797"/>
<polyline class="Stem" fill="none" stroke="#000000" stroke-width="2.73" stroke-linejoin="bevel" points="2431.06,1188.23 2431.06,1105.6"/>
<polyline class="Stem" fill="none" stroke="#000000" stroke-width="2.73" stroke-linejoin="bevel" points="433.706,1213.03 433.706,1092.89"/>
<polyline class="Stem" fill="none" stroke="#000000" stroke-width="2.73" stroke-linejoin="bevel" points="442.944,675.565 442.944,751.998"/>
<polyline class="Stem" fill="none" stroke="#000000" stroke-width="2.73" stroke-linejoin="bevel" points="778.981,754.23 778.981,661.03"/>
<polyline class="Stem" fill="none" stroke="#000000" stroke-width="2.73" stroke-linejoin="bevel" points="940.894,741.83 940.894,615.449"/>
<polyline class="Stem" fill="none" stroke="#000000" stroke-width="2.73" stroke-linejoin="bevel" points="537.703,1188.23 537.703,1084.7"/>
<polyline class="Stem" fill="none" stroke="#000000" stroke-width="2.73" stroke-linejoin="bevel" points="2721.57,754.23 2721.57,665.099"/>
<polyline class="Stem" fill="none" stroke="#000000" stroke-width="2.73" stroke-linejoin="bevel" points="723.196,754.23 723.196,656.962"/>
<polyline class="Stem" fill="none" stroke="#000000" stroke-width="2.73" stroke-linejoin="bevel" points="996.617,717.03 996.617,609.349"/>
<polyline class="Stem" fill="none" stroke="#000000" stroke-width="2.73" stroke-linejoin="bevel" points="641.7,1151.03 641.7,1076.5"/>
<polyline class="Stem" fill="none" stroke="#000000" stroke-width="2.73" stroke-linejoin="bevel" points="1052.34,679.83 1052.34,603.248"/>
<polyline class="Stem" fill="none" stroke="#000000" stroke-width="2.73" stroke-linejoin="bevel" points="2665.79,754.23 2665.79,661.03"/>
<polyline class="Stem" fill="none" stroke="#000000" stroke-width="2.73" stroke-linejoin="bevel" points="2223.07,1200.63 2223.07,1111.52"/>
<polyline class="Stem" fill="none" stroke="#000000" stroke-width="2.73" stroke-linejoin="bevel" points="1108.06,655.03 1108.06,597.148"/>
<polyline class="Stem" fill="none" stroke="#000000" stroke-width="2.73" stroke-linejoin="bevel" points="1109.69,1163.43 1109.69,1087"/>
<polyline class="Stem" fill="none" stroke="#000000" stroke-width="2.73" stroke-linejoin="bevel" points="1134.29,675.565 1134.29,751.998"/>
<polyline class="Stem" fill="none" stroke="#000000" stroke-width="2.73" stroke-linejoin="bevel" points="2610,754.23 2610,656.962"/>
<polyline class="Stem" fill="none" stroke="#000000" stroke-width="2.73" stroke-linejoin="bevel" points="1250.39,1151.03 1250.39,1086.8"/>
<polyline class="Stem" fill="none" stroke="#000000" stroke-width="2.73" stroke-linejoin="bevel" points="2554.28,717.03 2554.28,652.898"/>
<polyline class="Stem" fill="none" stroke="#000000" stroke-width="2.73" stroke-linejoin="bevel" points="2119.07,1175.83 2119.07,1105.48"/>
<polyline class="Stem" fill="none" stroke="#000000" stroke-width="2.73" stroke-linejoin="bevel" points="2498.56,717.03 2498.56,634.054"/>
<polyline class="Stem" fill="none" stroke="#000000" stroke-width="2.73" stroke-linejoin="bevel" points="1303.1,692.23 1303.1,615.797"/>
<polyline class="Stem" fill="none" stroke="#000000" stroke-width="2.73" stroke-linejoin="bevel" points="1354.38,1175.83 1354.38,1086.8"/>
<polyline class="Stem" fill="none" stroke="#000000" stroke-width="2.73" stroke-linejoin="bevel" points="2442.83,692.23 2442.83,628.143"/>
<polyline class="Stem" fill="none" stroke="#000000" stroke-width="2.73" stroke-linejoin="bevel" points="745.697,1126.23 745.697,1068.31"/>
<polyline class="Stem" fill="none" stroke="#000000" stroke-width="2.73" stroke-linejoin="bevel" points="1422.76,679.83 1422.76,615.598"/>
<polyline class="Stem" fill="none" stroke="#000000" stroke-width="2.73" stroke-linejoin="bevel" points="1458.38,1175.83 1458.38,1086.8"/>
<polyline class="Stem" fill="none" stroke="#000000" stroke-width="2.73" stroke-linejoin="bevel" points="667.473,717.03 667.473,652.898"/>
<polyline class="Stem" fill="none" stroke="#000000" stroke-width="2.73" stroke-linejoin="bevel" points="820.198,1146.76 820.198,1223.2"/>
<polyline class="Stem" fill="none" stroke="#000000" stroke-width="2.73" stroke-linejoin="bevel" points="1478.48,704.63 1478.48,615.598"/>
<polyline class="Stem" fill="none" stroke="#000000" stroke-width="2.73" stroke-linejoin="bevel" points="2329.75,675.565 2329.75,751.998"/>
<polyline class="Stem" fill="none" stroke="#000000" stroke-width="2.73" stroke-linejoin="bevel" points="1534.2,704.63 1534.2,615.598"/>
<polyline class="Stem" fill="none" stroke="#000000" stroke-width="2.73" stroke-linejoin="bevel" points="1562.38,1151.03 1562.38,1086.8"/>
<polyline class="Stem" fill="none" stroke="#000000" stroke-width="2.73" stroke-linejoin="bevel" points="1666.38,1163.43 1666.38,1099.36"/>
<polyline class="Stem" fill="none" stroke="#000000" stroke-width="2.73" stroke-linejoin="bevel" points="1589.93,679.83 1589.93,615.598"/>
<polyline class="Stem" fill="none" stroke="#000000" stroke-width="2.73" stroke-linejoin="bevel" points="2155.37,704.63 2155.37,621.798"/>
<polyline class="Stem" fill="none" stroke="#000000" stroke-width="2.73" stroke-linejoin="bevel" points="1645.65,692.23 1645.65,628.143"/>
<polyline class="Stem" fill="none" stroke="#000000" stroke-width="2.73" stroke-linejoin="bevel" points="2099.65,717.03 2099.65,640.349"/>
<polyline class="Stem" fill="none" stroke="#000000" stroke-width="2.73" stroke-linejoin="bevel" points="1978.37,1163.43 1978.37,1087"/>
<polyline class="Stem" fill="none" stroke="#000000" stroke-width="2.73" stroke-linejoin="bevel" points="2043.93,729.43 2043.93,638.315"/>
<polyline class="Stem" fill="none" stroke="#000000" stroke-width="2.73" stroke-linejoin="bevel" points="1701.37,717.03 1701.37,634.054"/>
<polyline class="Stem" fill="none" stroke="#000000" stroke-width="2.73" stroke-linejoin="bevel" points="1988.2,741.83 1988.2,636.282"/>
<polyline class="Stem" fill="none" stroke="#000000" stroke-width="2.73" stroke-linejoin="bevel" points="1770.37,1188.23 1770.37,1111.44"/>
<polyline class="Stem" fill="none" stroke="#000000" stroke-width="2.73" stroke-linejoin="bevel" points="1932.48,704.63 1932.48,634.248"/>
<polyline class="Stem" fill="none" stroke="#000000" stroke-width="2.73" stroke-linejoin="bevel" points="611.749,717.03 611.749,634.054"/>
<polyline class="Stem" fill="none" stroke="#000000" stroke-width="2.73" stroke-linejoin="bevel" points="834.765,754.23 834.765,665.099"/>
<path class="Hook" transform="matrix(0.992,0,0,0.992,1108.32,1086.8)" d="M0,22.7 C0,23 0.1,23.6 0.8,23.8 C5.1,25.2 13.7,30.6 20.2,41.7 C22,44.8 24.9,49.1 24.9,57.4 C24.9,64.6 23.1,72 20.4,79.2 C20.2,79.8 20.1,80.3 20.1,80.7 C20.1,81.4 20.5,81.7 21.2,81.7 C21.8,81.7 22.3,81.3 22.7,80.6 C27.2,72.6 28.9,63.3 28.9,54.2 C28.4,41.3 21,31.8 21,31.8 C21.3,31.8 11.8,19.5 9.1,15.3 C5.4,9.6 3.7,3.9 3.5,3.5 C3.4,3.2 2.5,-0.4 2.5,-0.4 C2.4,-0.8 1.9,-1.2 1.3,-1.2 C0.6,-1.2 0,-0.6 0,0.1 L0,22.7 "/>
<path class="Hook" transform="matrix(0.992,0,0,0.992,1977,1086.8)" d="M0,22.7 C0,23 0.1,23.6 0.8,23.8 C5.1,25.2 13.7,30.6 20.2,41.7 C22,44.8 24.9,49.1 24.9,57.4 C24.9,64.6 23.1,72 20.4,79.2 C20.2,79.8 20.1,80.3 20.1,80.7 C20.1,81.4 20.5,81.7 21.2,81.7 C21.8,81.7 22.3,81.3 22.7,80.6 C27.2,72.6 28.9,63.3 28.9,54.2 C28.4,41.3 21,31.8 21,31.8 C21.3,31.8 11.8,19.5 9.1,15.3 C5.4,9.6 3.7,3.9 3.5,3.5 C3.4,3.2 2.5,-0.4 2.5,-0.4 C2.4,-0.8 1.9,-1.2 1.3,-1.2 C0.6,-1.2 0,-0.6 0,0.1 L0,22.7 "/>
<path class="Hook" transform="matrix(0.992,0,0,0.992,1811.46,615.598)" d="M0,22.7 C0,23 0.1,23.6 0.8,23.8 C5.1,25.2 13.7,30.6 20.2,41.7 C22,44.8 24.9,49.1 24.9,57.4 C24.9,64.6 23.1,72 20.4,79.2 C20.2,79.8 20.1,80.3 20.1,80.7 C20.1,81.4 20.5,81.7 21.2,81.7 C21.8,81.7 22.3,81.3 22.7,80.6 C27.2,72.6 28.9,63.3 28.9,54.2 C28.4,41.3 21,31.8 21,31.8 C21.3,31.8 11.8,19.5 9.1,15.3 C5.4,9.6 3.7,3.9 3.5,3.5 C3.4,3.2 2.5,-0.4 2.5,-0.4 C2.4,-0.8 1.9,-1.2 1.3,-1.2 C0.6,-1.2 0,-0.6 0,0.1 L0,22.7 "/>
<path class="Hook" transform="matrix(0.992,0,0,0.992,2429.7,1105.4)" d="M0,22.7 C0,23 0.1,23.6 0.8,23.8 C5.1,25.2 13.7,30.6 20.2,41.7 C22,44.8 24.9,49.1 24.9,57.4 C24.9,64.6 23.1,72 20.4,79.2 C20.2,79.8 20.1,80.3 20.1,80.7 C20.1,81.4 20.5,81.7 21.2,81.7 C21.8,81.7 22.3,81.3 22.7,80.6 C27.2,72.6 28.9,63.3 28.9,54.2 C28.4,41.3 21,31.8 21,31.8 C21.3,31.8 11.8,19.5 9.1,15.3 C5.4,9.6 3.7,3.9 3.5,3.5 C3.4,3.2 2.5,-0.4 2.5,-0.4 C2.4,-0.8 1.9,-1.2 1.3,-1.2 C0.6,-1.2 0,-0.6 0,0.1 L0,22.7 "/>
<path class="Hook" transform="matrix(0.992,0,0,0.992,1301.73,615.598)" d="M0,22.7 C0,23 0.1,23.6 0.8,23.8 C5.1,25.2 13.7,30.6 20.2,41.7 C22,44.8 24.9,49.1 24.9,57.4 C24.9,64.6 23.1,72 20.4,79.2 C20.2,79.8 20.1,80.3 20.1,80.7 C20.1,81.4 20.5,81.7 21.2,81.7 C21.8,81.7 22.3,81.3 22.7,80.6 C27.2,72.6 28.9,63.3 28.9,54.2 C28.4,41.3 21,31.8 21,31.8 C21.3,31.8 11.8,19.5 9.1,15.3 C5.4,9.6 3.7,3.9 3.5,3.5 C3.4,3.2 2.5,-0.4 2.5,-0.4 C2.4,-0.8 1.9,-1.2 1.3,-1.2 C0.6,-1.2 0,-0.6 0,0.1 L0,22.7 "/>
<path class="Note" transform="matrix(0.992,0,0,0.992,1781.96,696.198)" d="M0,4.2 C0,8.5 3.1,13.3 11.2,13.3 C21.6,13.3 32.5,4.8 32.5,-4 C32.5,-9.9 27.5,-13.2 21.3,-13.2 C11.6,-13.2 0,-5 0,4.2"/>
<path class="Note" transform="matrix(0.992,0,0,0.992,402.845,1217)" d="M0,4.2 C0,8.5 3.1,13.3 11.2,13.3 C21.6,13.3 32.5,4.8 32.5,-4 C32.5,-9.9 27.5,-13.2 21.3,-13.2 C11.6,-13.2 0,-5 0,4.2"/>
<path class="Note" transform="matrix(0.992,0,0,0.992,1670.51,720.998)" d="M0,4.2 C0,8.5 3.1,13.3 11.2,13.3 C21.6,13.3 32.5,4.8 32.5,-4 C32.5,-9.9 27.5,-13.2 21.3,-13.2 C11.6,-13.2 0,-5 0,4.2"/>
<path class="Note" transform="matrix(0.992,0,0,0.992,1957.34,745.798)" d="M0,4.2 C0,8.5 3.1,13.3 11.2,13.3 C21.6,13.3 32.5,4.8 32.5,-4 C32.5,-9.9 27.5,-13.2 21.3,-13.2 C11.6,-13.2 0,-5 0,4.2"/>
<path class="Note" transform="matrix(0.992,0,0,0.992,1739.51,1192.2)" d="M0,4.2 C0,8.5 3.1,13.3 11.2,13.3 C21.6,13.3 32.5,4.8 32.5,-4 C32.5,-9.9 27.5,-13.2 21.3,-13.2 C11.6,-13.2 0,-5 0,4.2"/>
<path class="Note" transform="matrix(0.992,0,0,0.992,2013.07,733.398)" d="M0,4.2 C0,8.5 3.1,13.3 11.2,13.3 C21.6,13.3 32.5,4.8 32.5,-4 C32.5,-9.9 27.5,-13.2 21.3,-13.2 C11.6,-13.2 0,-5 0,4.2"/>
<path class="Note" transform="matrix(0.992,0,0,0.992,1635.52,1167.4)" d="M0,4.2 C0,8.5 3.1,13.3 11.2,13.3 C21.6,13.3 32.5,4.8 32.5,-4 C32.5,-9.9 27.5,-13.2 21.3,-13.2 C11.6,-13.2 0,-5 0,4.2"/>
<path class="Note" transform="matrix(0.992,0,0,0.992,1614.79,696.198)" d="M0,4.2 C0,8.5 3.1,13.3 11.2,13.3 C21.6,13.3 32.5,4.8 32.5,-4 C32.5,-9.9 27.5,-13.2 21.3,-13.2 C11.6,-13.2 0,-5 0,4.2"/>
<path class="Note" transform="matrix(0.992,0,0,0.992,2068.79,720.998)" d="M0,4.2 C0,8.5 3.1,13.3 11.2,13.3 C21.6,13.3 32.5,4.8 32.5,-4 C32.5,-9.9 27.5,-13.2 21.3,-13.2 C11.6,-13.2 0,-5 0,4.2"/>
<path class="Note" transform="matrix(0.992,0,0,0.992,1559.07,683.798)" d="M0,4.2 C0,8.5 3.1,13.3 11.2,13.3 C21.6,13.3 32.5,4.8 32.5,-4 C32.5,-9.9 27.5,-13.2 21.3,-13.2 C11.6,-13.2 0,-5 0,4.2"/>
<path class="Note" transform="matrix(0.992,0,0,0.992,2124.51,708.598)" d="M0,4.2 C0,8.5 3.1,13.3 11.2,13.3 C21.6,13.3 32.5,4.8 32.5,-4 C32.5,-9.9 27.5,-13.2 21.3,-13.2 C11.6,-13.2 0,-5 0,4.2"/>
<path class="Note" transform="matrix(0.992,0,0,0.992,1947.51,1167.4)" d="M0,4.2 C0,8.5 3.1,13.3 11.2,13.3 C21.6,13.3 32.5,4.8 32.5,-4 C32.5,-9.9 27.5,-13.2 21.3,-13.2 C11.6,-13.2 0,-5 0,4.2"/>
<path class="Note" transform="matrix(0.992,0,0,0.992,818.834,1142.6)" d="M0,4.2 C0,8.5 3.1,13.3 11.2,13.3 C21.6,13.3 32.5,4.8 32.5,-4 C32.5,-9.9 27.5,-13.2 21.3,-13.2 C11.6,-13.2 0,-5 0,4.2"/>
<path class="Note" transform="matrix(0.992,0,0,0.992,1531.52,1155)" d="M0,4.2 C0,8.5 3.1,13.3 11.2,13.3 C21.6,13.3 32.5,4.8 32.5,-4 C32.5,-9.9 27.5,-13.2 21.3,-13.2 C11.6,-13.2 0,-5 0,4.2"/>
<path class="Note" transform="matrix(0.992,0,0,0.992,1503.34,708.598)" d="M0,4.2 C0,8.5 3.1,13.3 11.2,13.3 C21.6,13.3 32.5,4.8 32.5,-4 C32.5,-9.9 27.5,-13.2 21.3,-13.2 C11.6,-13.2 0,-5 0,4.2"/>
<path class="Note" transform="matrix(0.992,0,0,0.992,1427.52,1179.8)" d="M0,4.2 C0,8.5 3.1,13.3 11.2,13.3 C21.6,13.3 32.5,4.8 32.5,-4 C32.5,-9.9 27.5,-13.2 21.3,-13.2 C11.6,-13.2 0,-5 0,4.2"/>
<path class="Note" transform="matrix(0.992,0,0,0.992,1447.62,708.598)" d="M0,4.2 C0,8.5 3.1,13.3 11.2,13.3 C21.6,13.3 32.5,4.8 32.5,-4 C32.5,-9.9 27.5,-13.2 21.3,-13.2 C11.6,-13.2 0,-5 0,4.2"/>
<path class="Note" transform="matrix(0.992,0,0,0.992,2328.39,671.398)" d="M0,4.2 C0,8.5 3.1,13.3 11.2,13.3 C21.6,13.3 32.5,4.8 32.5,-4 C32.5,-9.9 27.5,-13.2 21.3,-13.2 C11.6,-13.2 0,-5 0,4.2"/>
<path class="Note" transform="matrix(0.992,0,0,0.992,1391.9,683.798)" d="M0,4.2 C0,8.5 3.1,13.3 11.2,13.3 C21.6,13.3 32.5,4.8 32.5,-4 C32.5,-9.9 27.5,-13.2 21.3,-13.2 C11.6,-13.2 0,-5 0,4.2"/>
<path class="Note" transform="matrix(0.992,0,0,0.992,525.165,696.198)" d="M0,4.2 C0,8.5 3.1,13.3 11.2,13.3 C21.6,13.3 32.5,4.8 32.5,-4 C32.5,-9.9 27.5,-13.2 21.3,-13.2 C11.6,-13.2 0,-5 0,4.2"/>
<path class="Note" transform="matrix(0.992,0,0,0.992,2411.97,696.198)" d="M0,4.2 C0,8.5 3.1,13.3 11.2,13.3 C21.6,13.3 32.5,4.8 32.5,-4 C32.5,-9.9 27.5,-13.2 21.3,-13.2 C11.6,-13.2 0,-5 0,4.2"/>
<path class="Note" transform="matrix(0.992,0,0,0.992,1323.52,1179.8)" d="M0,4.2 C0,8.5 3.1,13.3 11.2,13.3 C21.6,13.3 32.5,4.8 32.5,-4 C32.5,-9.9 27.5,-13.2 21.3,-13.2 C11.6,-13.2 0,-5 0,4.2"/>
<path class="Note" transform="matrix(0.992,0,0,0.992,1272.24,696.198)" d="M0,4.2 C0,8.5 3.1,13.3 11.2,13.3 C21.6,13.3 32.5,4.8 32.5,-4 C32.5,-9.9 27.5,-13.2 21.3,-13.2 C11.6,-13.2 0,-5 0,4.2"/>
<path class="Note" transform="matrix(0.992,0,0,0.992,1901.62,708.598)" d="M0,4.2 C0,8.5 3.1,13.3 11.2,13.3 C21.6,13.3 32.5,4.8 32.5,-4 C32.5,-9.9 27.5,-13.2 21.3,-13.2 C11.6,-13.2 0,-5 0,4.2"/>
<path class="Note" transform="matrix(0.992,0,0,0.992,2467.7,720.998)" d="M0,4.2 C0,8.5 3.1,13.3 11.2,13.3 C21.6,13.3 32.5,4.8 32.5,-4 C32.5,-9.9 27.5,-13.2 21.3,-13.2 C11.6,-13.2 0,-5 0,4.2"/>
<path class="Note" transform="matrix(0.992,0,0,0.992,580.889,720.998)" d="M0,4.2 C0,8.5 3.1,13.3 11.2,13.3 C21.6,13.3 32.5,4.8 32.5,-4 C32.5,-9.9 27.5,-13.2 21.3,-13.2 C11.6,-13.2 0,-5 0,4.2"/>
<path class="Note" transform="matrix(0.992,0,0,0.992,2523.42,720.998)" d="M0,4.2 C0,8.5 3.1,13.3 11.2,13.3 C21.6,13.3 32.5,4.8 32.5,-4 C32.5,-9.9 27.5,-13.2 21.3,-13.2 C11.6,-13.2 0,-5 0,4.2"/>
<path class="Note" transform="matrix(0.992,0,0,0.992,1219.53,1155)" d="M0,4.2 C0,8.5 3.1,13.3 11.2,13.3 C21.6,13.3 32.5,4.8 32.5,-4 C32.5,-9.9 27.5,-13.2 21.3,-13.2 C11.6,-13.2 0,-5 0,4.2"/>
<path class="Note" transform="matrix(0.992,0,0,0.992,2088.21,1179.8)" d="M0,4.2 C0,8.5 3.1,13.3 11.2,13.3 C21.6,13.3 32.5,4.8 32.5,-4 C32.5,-9.9 27.5,-13.2 21.3,-13.2 C11.6,-13.2 0,-5 0,4.2"/>
<path class="Note" transform="matrix(0.992,0,0,0.992,1132.93,671.398)" d="M0,4.2 C0,8.5 3.1,13.3 11.2,13.3 C21.6,13.3 32.5,4.8 32.5,-4 C32.5,-9.9 27.5,-13.2 21.3,-13.2 C11.6,-13.2 0,-5 0,4.2"/>
<path class="Note" transform="matrix(0.992,0,0,0.992,1077.2,658.998)" d="M0,4.2 C0,8.5 3.1,13.3 11.2,13.3 C21.6,13.3 32.5,4.8 32.5,-4 C32.5,-9.9 27.5,-13.2 21.3,-13.2 C11.6,-13.2 0,-5 0,4.2"/>
<path class="Note" transform="matrix(0.992,0,0,0.992,2579.14,758.198)" d="M0,4.2 C0,8.5 3.1,13.3 11.2,13.3 C21.6,13.3 32.5,4.8 32.5,-4 C32.5,-9.9 27.5,-13.2 21.3,-13.2 C11.6,-13.2 0,-5 0,4.2"/>
<path class="Note" transform="matrix(0.992,0,0,0.992,1021.48,683.798)" d="M0,4.2 C0,8.5 3.1,13.3 11.2,13.3 C21.6,13.3 32.5,4.8 32.5,-4 C32.5,-9.9 27.5,-13.2 21.3,-13.2 C11.6,-13.2 0,-5 0,4.2"/>
<path class="Note" transform="matrix(0.992,0,0,0.992,965.757,720.998)" d="M0,4.2 C0,8.5 3.1,13.3 11.2,13.3 C21.6,13.3 32.5,4.8 32.5,-4 C32.5,-9.9 27.5,-13.2 21.3,-13.2 C11.6,-13.2 0,-5 0,4.2"/>
<path class="Note" transform="matrix(0.992,0,0,0.992,2634.93,758.198)" d="M0,4.2 C0,8.5 3.1,13.3 11.2,13.3 C21.6,13.3 32.5,4.8 32.5,-4 C32.5,-9.9 27.5,-13.2 21.3,-13.2 C11.6,-13.2 0,-5 0,4.2"/>
<path class="Note" transform="matrix(0.992,0,0,0.992,2192.2,1204.6)" d="M0,4.2 C0,8.5 3.1,13.3 11.2,13.3 C21.6,13.3 32.5,4.8 32.5,-4 C32.5,-9.9 27.5,-13.2 21.3,-13.2 C11.6,-13.2 0,-5 0,4.2"/>
<path class="Note" transform="matrix(0.992,0,0,0.992,714.837,1130.2)" d="M0,4.2 C0,8.5 3.1,13.3 11.2,13.3 C21.6,13.3 32.5,4.8 32.5,-4 C32.5,-9.9 27.5,-13.2 21.3,-13.2 C11.6,-13.2 0,-5 0,4.2"/>
<path class="Note" transform="matrix(0.992,0,0,0.992,910.033,745.798)" d="M0,4.2 C0,8.5 3.1,13.3 11.2,13.3 C21.6,13.3 32.5,4.8 32.5,-4 C32.5,-9.9 27.5,-13.2 21.3,-13.2 C11.6,-13.2 0,-5 0,4.2"/>
<path class="Note" transform="matrix(0.992,0,0,0.992,2690.71,758.198)" d="M0,4.2 C0,8.5 3.1,13.3 11.2,13.3 C21.6,13.3 32.5,4.8 32.5,-4 C32.5,-9.9 27.5,-13.2 21.3,-13.2 C11.6,-13.2 0,-5 0,4.2"/>
<path class="Note" transform="matrix(0.992,0,0,0.992,441.58,671.398)" d="M0,4.2 C0,8.5 3.1,13.3 11.2,13.3 C21.6,13.3 32.5,4.8 32.5,-4 C32.5,-9.9 27.5,-13.2 21.3,-13.2 C11.6,-13.2 0,-5 0,4.2"/>
<path class="Note" transform="matrix(0.992,0,0,0.992,636.612,720.998)" d="M0,4.2 C0,8.5 3.1,13.3 11.2,13.3 C21.6,13.3 32.5,4.8 32.5,-4 C32.5,-9.9 27.5,-13.2 21.3,-13.2 C11.6,-13.2 0,-5 0,4.2"/>
<path class="Note" transform="matrix(0.992,0,0,0.992,2400.2,1192.2)" d="M0,4.2 C0,8.5 3.1,13.3 11.2,13.3 C21.6,13.3 32.5,4.8 32.5,-4 C32.5,-9.9 27.5,-13.2 21.3,-13.2 C11.6,-13.2 0,-5 0,4.2"/>
<path class="Note" transform="matrix(0.992,0,0,0.992,803.905,758.198)" d="M0,4.2 C0,8.5 3.1,13.3 11.2,13.3 C21.6,13.3 32.5,4.8 32.5,-4 C32.5,-9.9 27.5,-13.2 21.3,-13.2 C11.6,-13.2 0,-5 0,4.2"/>
<path class="Note" transform="matrix(0.992,0,0,0.992,506.842,1192.2)" d="M0,4.2 C0,8.5 3.1,13.3 11.2,13.3 C21.6,13.3 32.5,4.8 32.5,-4 C32.5,-9.9 27.5,-13.2 21.3,-13.2 C11.6,-13.2 0,-5 0,4.2"/>
<path class="Note" transform="matrix(0.992,0,0,0.992,692.336,758.198)" d="M0,4.2 C0,8.5 3.1,13.3 11.2,13.3 C21.6,13.3 32.5,4.8 32.5,-4 C32.5,-9.9 27.5,-13.2 21.3,-13.2 C11.6,-13.2 0,-5 0,4.2"/>
<path class="Note" transform="matrix(0.992,0,0,0.992,1078.83,1167.4)" d="M0,4.2 C0,8.5 3.1,13.3 11.2,13.3 C21.6,13.3 32.5,4.8 32.5,-4 C32.5,-9.9 27.5,-13.2 21.3,-13.2 C11.6,-13.2 0,-5 0,4.2"/>
<path class="Note" transform="matrix(0.992,0,0,0.992,748.12,758.198)" d="M0,4.2 C0,8.5 3.1,13.3 11.2,13.3 C21.6,13.3 32.5,4.8 32.5,-4 C32.5,-9.9 27.5,-13.2 21.3,-13.2 C11.6,-13.2 0,-5 0,4.2"/>
<path class="Note" transform="matrix(0.992,0,0,0.992,610.84,1155)" d="M0,4.2 C0,8.5 3.1,13.3 11.2,13.3 C21.6,13.3 32.5,4.8 32.5,-4 C32.5,-9.9 27.5,-13.2 21.3,-13.2 C11.6,-13.2 0,-5 0,4.2"/>
<path class="Clef" transform="matrix(0.992,0,0,0.992,232.438,708.598)" d="M12.3,51.3 C12.3,57.9 17.3,66.6 30.8,66.6 C35.5,66.6 39.6,65.4 43.2,63.2 C48.6,59.4 50,52.8 50,46.5 C50,42.6 49.4,38.1 48.4,32.4 C48.1,30.4 47.5,27.4 46.9,23.5 C56.7,20.3 64,10.1 64,-0.2 C64,-15.3 53.3,-25.5 38.7,-25.5 C37.7,-31.5 36.7,-37.4 35.9,-43 C46.4,-54.1 53.7,-66.6 53.7,-82.5 C53.7,-91.6 50.9,-99 49.3,-102.6 C46.9,-107.7 44,-111.2 42.2,-111.2 C41.5,-111.2 38.4,-110 35.1,-106.1 C28.7,-98.5 26.9,-85.7 26.9,-77.3 C26.9,-71.9 27.4,-67 29.1,-55.8 C29,-55.7 23.8,-50.4 21.7,-48.7 C12.6,-40.3 0,-28.1 0,-8.1 C0,10.6 16.3,25.3 34.9,25.3 C37.8,25.3 40.5,25 42.8,24.6 C44.7,34.2 45.9,41.2 45.9,46.5 C45.9,56.9 40.5,62.4 30.4,62.4 C28,62.4 25.9,61.9 25.7,61.9 C25.6,61.8 25.4,61.7 25.4,61.6 C25.4,61.4 25.6,61.3 25.9,61.3 C30.6,60.5 35.3,56.5 35.3,50.1 C35.3,44.7 31.2,39 23.7,39 C16.7,39 12.3,44.7 12.3,51.3 M33.2,-82.2 C34.1,-86.2 38.7,-96.7 43.9,-96.7 C45.4,-96.7 47.8,-91.9 47.8,-84.9 C47.8,-74.5 40.1,-66.7 33.2,-59.9 C32.6,-63.9 32.1,-67.8 32.1,-72 C32.1,-75.7 32.4,-79.1 33.2,-82.2 M42,20.6 C40,21 38.1,21.2 36.2,21.2 C21.9,21.2 9.7,11.2 9.7,-3.9 C9.7,-16.1 18.3,-27 27.1,-34.6 C28.8,-36.1 30.4,-37.5 31.9,-39 C32.8,-33.6 33.5,-28.9 34.2,-24.8 C25.1,-22.1 18.9,-12.5 18.9,-3.1 C18.9,3.9 24.4,13.5 32.4,13.5 C33.2,13.5 34.1,13.1 34.1,12.2 C34.1,11.3 33.1,10.8 31.9,10 C28,7.6 25.8,5 25.8,0.1 C25.8,-6 30.4,-10.9 36.2,-12.3 L42,20.6 M56.2,2.1 C56.2,9.2 53.3,16.5 46.2,19.4 C44.1,7.4 41.4,-8.5 40.7,-12.9 C49.7,-12.9 56.2,-6.8 56.2,2.1"/>
<path class="Clef" transform="matrix(0.992,0,0,0.992,232.438,1179.8)" d="M12.3,51.3 C12.3,57.9 17.3,66.6 30.8,66.6 C35.5,66.6 39.6,65.4 43.2,63.2 C48.6,59.4 50,52.8 50,46.5 C50,42.6 49.4,38.1 48.4,32.4 C48.1,30.4 47.5,27.4 46.9,23.5 C56.7,20.3 64,10.1 64,-0.2 C64,-15.3 53.3,-25.5 38.7,-25.5 C37.7,-31.5 36.7,-37.4 35.9,-43 C46.4,-54.1 53.7,-66.6 53.7,-82.5 C53.7,-91.6 50.9,-99 49.3,-102.6 C46.9,-107.7 44,-111.2 42.2,-111.2 C41.5,-111.2 38.4,-110 35.1,-106.1 C28.7,-98.5 26.9,-85.7 26.9,-77.3 C26.9,-71.9 27.4,-67 29.1,-55.8 C29,-55.7 23.8,-50.4 21.7,-48.7 C12.6,-40.3 0,-28.1 0,-8.1 C0,10.6 16.3,25.3 34.9,25.3 C37.8,25.3 40.5,25 42.8,24.6 C44.7,34.2 45.9,41.2 45.9,46.5 C45.9,56.9 40.5,62.4 30.4,62.4 C28,62.4 25.9,61.9 25.7,61.9 C25.6,61.8 25.4,61.7 25.4,61.6 C25.4,61.4 25.6,61.3 25.9,61.3 C30.6,60.5 35.3,56.5 35.3,50.1 C35.3,44.7 31.2,39 23.7,39 C16.7,39 12.3,44.7 12.3,51.3 M33.2,-82.2 C34.1,-86.2 38.7,-96.7 43.9,-96.7 C45.4,-96.7 47.8,-91.9 47.8,-84.9 C47.8,-74.5 40.1,-66.7 33.2,-59.9 C32.6,-63.9 32.1,-67.8 32.1,-72 C32.1,-75.7 32.4,-79.1 33.2,-82.2 M42,20.6 C40,21 38.1,21.2 36.2,21.2 C21.9,21.2 9.7,11.2 9.7,-3.9 C9.7,-16.1 18.3,-27 27.1,-34.6 C28.8,-36.1 30.4,-37.5 31.9,-39 C32.8,-33.6 33.5,-28.9 34.2,-24.8 C25.1,-22.1 18.9,-12.5 18.9,-3.1 C18.9,3.9 24.4,13.5 32.4,13.5 C33.2,13.5 34.1,13.1 34.1,12.2 C34.1,11.3 33.1,10.8 31.9,10 C28,7.6 25.8,5 25.8,0.1 C25.8,-6 30.4,-10.9 36.2,-12.3 L42,20.6 M56.2,2.1 C56.2,9.2 53.3,16.5 46.2,19.4 C44.1,7.4 41.4,-8.5 40.7,-12.9 C49.7,-12.9 56.2,-6.8 56.2,2.1"/>
<path class="KeySig" transform="matrix(0.992,0,0,0.992,320.711,1155)" d="M12,-15.5 C7,-15.5 4.1,-12.4 3.6,-11.8 L4,-43.9 C4,-44.7 3.4,-45.3 2.6,-45.3 L1.4,-45.3 C0.6,-45.3 0,-44.7 0,-43.9 L0.5,16.2 C0.5,17 1.1,17.6 1.9,17.6 C2.1,17.6 2.5,17.5 2.7,17.4 C11.3,13.1 20.3,4.9 20.3,-5.4 C20.3,-10.6 17.9,-15.5 12,-15.5 M3.3,12.7 L3.6,-6.8 C3.8,-7.7 5.3,-10.6 9.3,-10.6 C12.9,-10.6 13.2,-7.2 13.2,-5.1 C13.2,3.8 9.9,7.5 3.3,12.7"/>
<path class="KeySig" transform="matrix(0.992,0,0,0.992,320.711,683.798)" d="M12,-15.5 C7,-15.5 4.1,-12.4 3.6,-11.8 L4,-43.9 C4,-44.7 3.4,-45.3 2.6,-45.3 L1.4,-45.3 C0.6,-45.3 0,-44.7 0,-43.9 L0.5,16.2 C0.5,17 1.1,17.6 1.9,17.6 C2.1,17.6 2.5,17.5 2.7,17.4 C11.3,13.1 20.3,4.9 20.3,-5.4 C20.3,-10.6 17.9,-15.5 12,-15.5 M3.3,12.7 L3.6,-6.8 C3.8,-7.7 5.3,-10.6 9.3,-10.6 C12.9,-10.6 13.2,-7.2 13.2,-5.1 C13.2,3.8 9.9,7.5 3.3,12.7"/>
<path class="TimeSig" transform="matrix(0.992,0,0,0.992,364.266,658.998)" d="M20.8,12.7 L20.8,20.1 L12.5,20.1 C11.8,20.1 11.1,20.7 11.1,21.5 L11.1,23.4 C11.1,24.2 11.8,24.8 12.5,24.8 L42.8,24.8 C43.6,24.8 44.2,24.2 44.2,23.4 L44.2,21.5 C44.2,20.7 43.6,20.1 42.8,20.1 L33.9,20.1 L33.9,12.7 L42.8,12.7 C43.6,12.7 44.2,12 44.2,11.2 L44.2,9.3 C44.2,8.6 43.6,7.9 42.8,7.9 L33.9,7.9 L33.9,-8 C33.9,-8.6 33.6,-9.1 33.1,-9.3 L31.9,-9.9 C31.7,-10 31.4,-10.1 31.2,-10.1 C30.9,-10 30.5,-9.9 30.3,-9.7 L21.2,-1.4 C20.9,-1.1 20.8,-0.7 20.8,-0.3 L20.8,7.9 L9.3,7.9 C9.3,7.9 20.4,-4.1 32.2,-19.9 C32.6,-20.4 32.7,-20.9 32.7,-21.3 C32.7,-21.8 32.5,-22.2 32.4,-22.3 L30.2,-24.5 C30,-24.7 29.6,-24.9 29.2,-24.9 C28.6,-24.9 15.1,-24.9 14.4,-24.9 C13.6,-24.9 13.1,-24.3 13,-23.7 C13,-23.7 12.5,-16.3 9.9,-8.2 C7.3,-0.1 4.3,4.9 1.7,8.6 C1.7,8.6 1.4,9.1 1.4,9.7 C1.4,9.9 1.4,10.1 1.5,10.3 C1.9,11 2.5,12.1 2.5,12.1 C2.5,12.1 2.7,12.7 3.6,12.7 L20.8,12.7 "/>
<path class="TimeSig" transform="matrix(0.992,0,0,0.992,364.266,708.598)" d="M20.8,12.7 L20.8,20.1 L12.5,20.1 C11.8,20.1 11.1,20.7 11.1,21.5 L11.1,23.4 C11.1,24.2 11.8,24.8 12.5,24.8 L42.8,24.8 C43.6,24.8 44.2,24.2 44.2,23.4 L44.2,21.5 C44.2,20.7 43.6,20.1 42.8,20.1 L33.9,20.1 L33.9,12.7 L42.8,12.7 C43.6,12.7 44.2,12 44.2,11.2 L44.2,9.3 C44.2,8.6 43.6,7.9 42.8,7.9 L33.9,7.9 L33.9,-8 C33.9,-8.6 33.6,-9.1 33.1,-9.3 L31.9,-9.9 C31.7,-10 31.4,-10.1 31.2,-10.1 C30.9,-10 30.5,-9.9 30.3,-9.7 L21.2,-1.4 C20.9,-1.1 20.8,-0.7 20.8,-0.3 L20.8,7.9 L9.3,7.9 C9.3,7.9 20.4,-4.1 32.2,-19.9 C32.6,-20.4 32.7,-20.9 32.7,-21.3 C32.7,-21.8 32.5,-22.2 32.4,-22.3 L30.2,-24.5 C30,-24.7 29.6,-24.9 29.2,-24.9 C28.6,-24.9 15.1,-24.9 14.4,-24.9 C13.6,-24.9 13.1,-24.3 13,-23.7 C13,-23.7 12.5,-16.3 9.9,-8.2 C7.3,-0.1 4.3,4.9 1.7,8.6 C1.7,8.6 1.4,9.1 1.4,9.7 C1.4,9.9 1.4,10.1 1.5,10.3 C1.9,11 2.5,12.1 2.5,12.1 C2.5,12.1 2.7,12.7 3.6,12.7 L20.8,12.7 "/>
<path class="Rest" transform="matrix(0.992,0,0,0.992,1726.24,683.798)" d="M26.7,-20.3 C26.6,-20.3 26.4,-20.4 26.3,-20.4 C25.7,-20.4 25.2,-20.1 25,-19.6 C22.7,-15 17.9,-8.8 12.5,-7.8 C13.6,-9.1 14.3,-10.7 14.3,-12.6 C14.3,-16.5 11.1,-19.7 7.2,-19.7 C3.2,-19.7 0,-16.5 0,-12.6 C0,-7.2 5.3,-4.7 10,-4.7 C15.3,-4.7 18.8,-7.2 22.2,-10.9 L10.8,24.7 L13.5,25.5 L27.5,-18.6 C27.6,-18.7 27.6,-18.9 27.6,-19.1 C27.6,-19.6 27.3,-20 26.7,-20.3"/>
<path class="Rest" transform="matrix(0.992,0,0,0.992,2504.2,1155)" d="M0,-1 C0,0.4 0,0.4 1.4,0.4 L31.1,0.4 C32.5,0.4 32.5,0.4 32.5,-1 L32.5,-11.8 C32.5,-13.2 32.5,-13.2 31.1,-13.2 L1.4,-13.2 C0,-13.2 0,-13.2 0,-11.8 L0,-1 "/>
<path class="Rest" transform="matrix(0.992,0,0,0.992,1843.51,1155)" d="M26.7,-20.3 C26.6,-20.3 26.4,-20.4 26.3,-20.4 C25.7,-20.4 25.2,-20.1 25,-19.6 C22.7,-15 17.9,-8.8 12.5,-7.8 C13.6,-9.1 14.3,-10.7 14.3,-12.6 C14.3,-16.5 11.1,-19.7 7.2,-19.7 C3.2,-19.7 0,-16.5 0,-12.6 C0,-7.2 5.3,-4.7 10,-4.7 C15.3,-4.7 18.8,-7.2 22.2,-10.9 L10.8,24.7 L13.5,25.5 L27.5,-18.6 C27.6,-18.7 27.6,-18.9 27.6,-19.1 C27.6,-19.6 27.3,-20 26.7,-20.3"/>
<path class="Rest" transform="matrix(0.992,0,0,0.992,2296.2,1155)" d="M26.7,-20.3 C26.6,-20.3 26.4,-20.4 26.3,-20.4 C25.7,-20.4 25.2,-20.1 25,-19.6 C22.7,-15 17.9,-8.8 12.5,-7.8 C13.6,-9.1 14.3,-10.7 14.3,-12.6 C14.3,-16.5 11.1,-19.7 7.2,-19.7 C3.2,-19.7 0,-16.5 0,-12.6 C0,-7.2 5.3,-4.7 10,-4.7 C15.3,-4.7 18.8,-7.2 22.2,-10.9 L10.8,24.7 L13.5,25.5 L27.5,-18.6 C27.6,-18.7 27.6,-18.9 27.6,-19.1 C27.6,-19.6 27.3,-20 26.7,-20.3"/>
<path class="Rest" transform="matrix(0.992,0,0,0.992,1216.51,683.798)" d="M26.7,-20.3 C26.6,-20.3 26.4,-20.4 26.3,-20.4 C25.7,-20.4 25.2,-20.1 25,-19.6 C22.7,-15 17.9,-8.8 12.5,-7.8 C13.6,-9.1 14.3,-10.7 14.3,-12.6 C14.3,-16.5 11.1,-19.7 7.2,-19.7 C3.2,-19.7 0,-16.5 0,-12.6 C0,-7.2 5.3,-4.7 10,-4.7 C15.3,-4.7 18.8,-7.2 22.2,-10.9 L10.8,24.7 L13.5,25.5 L27.5,-18.6 C27.6,-18.7 27.6,-18.9 27.6,-19.1 C27.6,-19.6 27.3,-20 26.7,-20.3"/>
<path class="Rest" transform="matrix(0.992,0,0,0.992,2208.1,683.798)" d="M23,16.6 C22.9,16.5 22.7,16.3 22.4,15.9 L10.9,1.7 C10.8,1.6 10.7,1.3 10.7,1.1 C10.7,0.8 10.8,0.4 10.9,0.2 L21.1,-15.2 C21.2,-15.4 21.3,-15.7 21.3,-15.9 L21.3,-16.8 C21.3,-17.1 21.2,-17.4 21,-17.6 L4.8,-39.5 C4.8,-39.5 4.4,-40.1 3.8,-40.1 C3.5,-40.1 3.3,-40.1 3,-39.8 C2.6,-39.5 2.5,-39.1 2.5,-38.8 C2.5,-38.2 2.8,-37.7 2.8,-37.7 L10.4,-27.3 C10.6,-27 10.7,-26.6 10.7,-26.1 C10.7,-25.7 10.6,-25.2 10.4,-24.9 L0.3,-9.5 C0.2,-9.3 0.1,-8.9 0.1,-8.7 L0.1,-7.8 C0.1,-7.5 0.2,-7.2 0.4,-7 L11.6,6.9 C11.2,6.8 10.3,6.6 9.1,6.6 C4,6.6 0,10.8 0,15.9 C0,17.3 0.3,18.7 1.1,19.8 C3.2,23 10.7,32.5 10.7,32.5 C10.7,32.5 11.2,33.1 11.9,33.1 C12.1,33.1 12.3,33.1 12.5,32.9 C13,32.5 13.2,32.1 13.2,31.7 C13.2,31.3 13,31 12.9,30.8 C12.6,30.3 9.4,24.5 9.4,24.5 C9.4,24.5 8.7,23.1 8.7,21.3 C8.7,18.1 11.1,15.5 14.3,15.5 C15.6,15.5 16.7,15.9 17.5,16.4 L21.4,18.9 C21.4,18.9 21.8,19.1 22.2,19.1 C22.6,19.1 22.9,19 23.2,18.6 C23.4,18.3 23.5,18 23.5,17.7 C23.5,17.4 23.4,17.2 23.2,16.9 L23,16.6 "/>
<path class="Rest" transform="matrix(0.992,0,0,0.992,974.829,1155)" d="M26.7,-20.3 C26.6,-20.3 26.4,-20.4 26.3,-20.4 C25.7,-20.4 25.2,-20.1 25,-19.6 C22.7,-15 17.9,-8.8 12.5,-7.8 C13.6,-9.1 14.3,-10.7 14.3,-12.6 C14.3,-16.5 11.1,-19.7 7.2,-19.7 C3.2,-19.7 0,-16.5 0,-12.6 C0,-7.2 5.3,-4.7 10,-4.7 C15.3,-4.7 18.8,-7.2 22.2,-10.9 L10.8,24.7 L13.5,25.5 L27.5,-18.6 C27.6,-18.7 27.6,-18.9 27.6,-19.1 C27.6,-19.6 27.3,-20 26.7,-20.3"/>
<path class="Beam" fill-rule="evenodd" d="M2441.47,621.764 L2499.92,627.964 L2499.92,640.433 L2441.47,634.233 L2441.47,621.764 "/>
<path class="Beam" fill-rule="evenodd" d="M666.109,646.582 L836.129,658.982 L836.129,671.415 L666.109,659.015 L666.109,646.582 "/>
<path class="Beam" fill-rule="evenodd" d="M554.662,621.764 L613.113,627.964 L613.113,640.433 L554.662,634.233 L554.662,621.764 "/>
<path class="Beam" fill-rule="evenodd" d="M939.53,609.361 L1109.43,590.761 L1109.43,603.235 L939.53,621.835 L939.53,609.361 "/>
<path class="Beam" fill-rule="evenodd" d="M432.342,1086.78 L747.061,1061.98 L747.061,1074.42 L432.342,1099.22 L432.342,1086.78 "/>
<path class="Beam" fill-rule="evenodd" d="M2117.7,1099.19 L2224.43,1105.39 L2224.43,1117.81 L2117.7,1111.61 L2117.7,1099.19 "/>
<path class="Beam" fill-rule="evenodd" d="M1421.39,609.398 L1591.29,609.398 L1591.29,621.798 L1421.39,621.798 L1421.39,609.398 "/>
<path class="Beam" fill-rule="evenodd" d="M2552.92,646.582 L2722.94,658.982 L2722.94,671.415 L2552.92,659.015 L2552.92,646.582 "/>
<path class="Beam" fill-rule="evenodd" d="M1249.02,1080.6 L1563.74,1080.6 L1563.74,1093 L1249.02,1093 L1249.02,1080.6 "/>
<path class="Beam" fill-rule="evenodd" d="M1644.29,621.764 L1702.74,627.964 L1702.74,640.433 L1644.29,634.233 L1644.29,621.764 "/>
<path class="Beam" fill-rule="evenodd" d="M1931.12,627.994 L2101.01,634.194 L2101.01,646.603 L1931.12,640.403 L1931.12,627.994 "/>
<path class="Beam" fill-rule="evenodd" d="M1665.01,1092.96 L1771.74,1105.36 L1771.74,1117.84 L1665.01,1105.44 L1665.01,1092.96 "/>
<path class="Harmony" d="M974.831,1043.4 L993.311,1043.4 C998.206,1043.4 1001.95,1042.63 1004.86,1040.98 C1010.42,1037.84 1013.5,1031.57 1013.5,1023.32 C1013.5,1015.73 1010.75,1009.79 1005.69,1006.49 C1002.66,1004.57 998.591,1003.69 992.321,1003.69 L974.831,1003.69 L974.831,1006.27 L975.876,1006.27 C978.956,1006.33 980.001,1006.49 980.441,1007.04 C980.771,1007.54 980.771,1007.65 980.771,1010.45 L980.771,1036.63 C980.771,1039.44 980.771,1039.55 980.441,1040.04 C980.001,1040.59 978.956,1040.76 975.876,1040.81 L974.831,1040.81 L974.831,1043.4 M990.066,1040.81 C987.261,1040.81 986.931,1040.48 986.931,1037.79 L986.931,1009.35 C986.931,1006.66 987.316,1006.27 990.066,1006.27 L992.926,1006.27 C1002.33,1006.27 1006.24,1011.39 1006.24,1023.54 C1006.24,1035.86 1002.72,1040.81 993.806,1040.81 L990.066,1040.81 "/>
<path class="Harmony" d="M1029.52,1017.77 L1019.73,1018.37 L1019.73,1020.74 L1021.99,1020.74 C1024.08,1020.79 1024.35,1021.12 1024.35,1023.49 L1024.35,1039.22 C1024.3,1040.04 1024.24,1040.37 1024.02,1040.65 C1023.64,1041.14 1022.59,1041.36 1020.23,1041.42 L1020.01,1041.42 L1020.01,1043.4 L1033.87,1043.4 L1033.87,1041.42 L1033.65,1041.42 C1030.02,1041.31 1029.52,1041.03 1029.52,1039 L1029.52,1028.82 C1029.52,1023.93 1032.22,1020.3 1035.79,1020.3 C1038.93,1020.3 1040.52,1022.55 1040.52,1027.01 L1040.52,1039.27 C1040.47,1039.99 1040.41,1040.37 1040.14,1040.65 C1039.81,1041.14 1038.71,1041.36 1036.34,1041.42 L1036.12,1041.42 L1036.12,1043.4 L1050.04,1043.4 L1050.04,1041.42 L1049.82,1041.42 C1046.19,1041.31 1045.69,1041.03 1045.69,1039.05 L1045.69,1029.32 C1045.69,1023.82 1048.17,1020.3 1052.02,1020.3 C1055.15,1020.3 1056.69,1022.66 1056.69,1027.61 L1056.69,1039.22 C1056.64,1039.99 1056.58,1040.37 1056.31,1040.65 C1055.98,1041.14 1054.88,1041.36 1052.51,1041.42 L1052.29,1041.42 L1052.29,1043.4 L1066.21,1043.4 L1066.21,1041.42 L1065.99,1041.42 C1062.36,1041.31 1061.86,1041.03 1061.86,1039 L1061.86,1026.51 C1061.86,1023.1 1061.53,1021.95 1060.1,1020.08 C1058.51,1018.04 1056.25,1016.94 1053.61,1016.94 C1050.04,1016.94 1047.4,1018.65 1045.03,1022.44 C1044.1,1019.14 1041.13,1016.94 1037.44,1016.94 C1034.09,1016.94 1031.67,1018.54 1029.52,1022 L1029.52,1017.77 "/>
<path class="Harmony" d="M2653.92,1003.69 L2621.19,1003.69 L2621.19,1006.27 L2622.18,1006.27 C2625.32,1006.33 2626.36,1006.49 2626.8,1007.04 C2627.13,1007.54 2627.13,1007.65 2627.13,1010.45 L2627.13,1036.63 C2627.13,1039.44 2627.13,1039.55 2626.8,1040.04 C2626.36,1040.59 2625.32,1040.81 2622.18,1040.81 L2621.19,1040.81 L2621.19,1043.4 L2640.06,1043.4 L2640.06,1040.81 L2638.24,1040.81 C2635.11,1040.81 2634.06,1040.59 2633.62,1040.04 C2633.29,1039.55 2633.29,1039.38 2633.29,1036.63 L2633.29,1024.15 L2634.39,1024.15 C2640.06,1023.93 2642.09,1025.96 2642.31,1032.07 L2644.9,1032.07 L2644.9,1014.03 L2642.31,1014.03 C2641.98,1019.42 2639.84,1021.51 2634.61,1021.56 L2633.29,1021.56 L2633.29,1009.02 C2633.24,1006.71 2633.79,1006.33 2636.76,1006.27 L2639.29,1006.27 C2648.31,1006.22 2650.56,1008.25 2652.27,1017.71 L2654.69,1017.71 L2653.92,1003.69 "/>
<path class="Harmony" d="M1460.97,1003.3 L1458.88,1003.3 L1456.74,1006.6 C1453.16,1003.8 1450.74,1002.86 1446.73,1002.86 C1442.38,1002.86 1438.97,1004.07 1435.51,1006.88 C1430.06,1011.28 1427.53,1016.83 1427.53,1024.26 C1427.53,1029.87 1429.13,1034.54 1432.37,1038.12 C1435.78,1041.97 1440.84,1044.22 1446.12,1044.22 C1450.74,1044.22 1453.99,1042.79 1457.56,1039.22 L1459.6,1044.17 L1461.91,1044.17 L1461.91,1032.07 C1461.91,1029.26 1461.91,1029.15 1462.24,1028.66 C1462.73,1028.05 1463.72,1027.89 1466.86,1027.89 L1467.68,1027.89 L1467.68,1025.3 L1450.19,1025.3 L1450.19,1027.89 L1451.24,1027.89 C1455.86,1027.89 1456.24,1028.16 1456.24,1031.24 C1456.24,1033.61 1455.86,1035.75 1455.14,1037.07 C1453.77,1039.77 1450.25,1041.64 1446.67,1041.64 C1443.1,1041.64 1439.58,1039.82 1437.71,1037.07 C1435.67,1033.99 1434.79,1030.14 1434.79,1024.26 C1434.79,1011.99 1438.86,1005.45 1446.51,1005.45 C1452.78,1005.45 1457.12,1009.96 1459.38,1018.76 L1461.74,1018.76 L1460.97,1003.3 "/>
<path class="Harmony" d="M1481.51,1017.77 L1471.72,1018.37 L1471.72,1020.74 L1473.98,1020.74 C1476.07,1020.79 1476.34,1021.12 1476.34,1023.49 L1476.34,1039.22 C1476.29,1040.04 1476.23,1040.37 1476.01,1040.65 C1475.63,1041.14 1474.58,1041.36 1472.22,1041.42 L1472,1041.42 L1472,1043.4 L1485.86,1043.4 L1485.86,1041.42 L1485.64,1041.42 C1482.01,1041.31 1481.51,1041.03 1481.51,1039 L1481.51,1028.82 C1481.51,1023.93 1484.21,1020.3 1487.78,1020.3 C1490.92,1020.3 1492.51,1022.55 1492.51,1027.01 L1492.51,1039.27 C1492.46,1039.99 1492.4,1040.37 1492.13,1040.65 C1491.8,1041.14 1490.7,1041.36 1488.33,1041.42 L1488.11,1041.42 L1488.11,1043.4 L1502.03,1043.4 L1502.03,1041.42 L1501.81,1041.42 C1498.18,1041.31 1497.68,1041.03 1497.68,1039.05 L1497.68,1029.32 C1497.68,1023.82 1500.16,1020.3 1504.01,1020.3 C1507.14,1020.3 1508.68,1022.66 1508.68,1027.61 L1508.68,1039.22 C1508.63,1039.99 1508.57,1040.37 1508.3,1040.65 C1507.97,1041.14 1506.87,1041.36 1504.5,1041.42 L1504.28,1041.42 L1504.28,1043.4 L1518.2,1043.4 L1518.2,1041.42 L1517.98,1041.42 C1514.35,1041.31 1513.85,1041.03 1513.85,1039 L1513.85,1026.51 C1513.85,1023.1 1513.52,1021.95 1512.09,1020.08 C1510.5,1018.04 1508.24,1016.94 1505.6,1016.94 C1502.03,1016.94 1499.39,1018.65 1497.02,1022.44 C1496.09,1019.14 1493.12,1016.94 1489.43,1016.94 C1486.08,1016.94 1483.66,1018.54 1481.51,1022 L1481.51,1017.77 "/>
<path class="Harmony" d="M1522.59,1017.99 L1525.01,1018.37 L1526,1014.03 C1526.83,1010.4 1527.21,1009.85 1528.81,1009.85 C1529.08,1009.85 1529.52,1009.85 1530.02,1009.9 C1536.78,1010.23 1536.78,1010.23 1539.31,1010.23 C1540.03,1010.23 1541.29,1010.23 1542.83,1010.18 L1539.09,1017.71 C1535.02,1025.8 1534.53,1026.79 1533.15,1030.2 C1531.45,1034.32 1530.57,1037.79 1530.57,1040.1 C1530.57,1042.63 1531.89,1044.17 1534.03,1044.17 C1536.67,1044.17 1537.72,1042.41 1537.66,1037.62 C1537.39,1029.7 1538.38,1025.85 1544.26,1012.98 C1545.25,1010.84 1546.3,1008.64 1547.29,1006.49 L1547.29,1004.9 C1543.99,1005.17 1542.23,1005.28 1538.82,1005.28 C1534.03,1005.28 1530.24,1005.12 1524.3,1004.68 L1522.59,1017.99 "/>
<path class="Harmony" d="M2361.11,532.488 L2328.39,532.488 L2328.39,535.073 L2329.38,535.073 C2332.51,535.128 2333.56,535.293 2334,535.843 C2334.33,536.338 2334.33,536.448 2334.33,539.253 L2334.33,565.433 C2334.33,568.238 2334.33,568.348 2334,568.843 C2333.56,569.393 2332.51,569.613 2329.38,569.613 L2328.39,569.613 L2328.39,572.198 L2347.25,572.198 L2347.25,569.613 L2345.44,569.613 C2342.3,569.613 2341.26,569.393 2340.82,568.843 C2340.49,568.348 2340.49,568.183 2340.49,565.433 L2340.49,552.948 L2341.59,552.948 C2347.25,552.728 2349.29,554.763 2349.51,560.868 L2352.09,560.868 L2352.09,542.828 L2349.51,542.828 C2349.18,548.218 2347.03,550.308 2341.81,550.363 L2340.49,550.363 L2340.49,537.823 C2340.43,535.513 2340.98,535.128 2343.95,535.073 L2346.48,535.073 C2355.5,535.018 2357.76,537.053 2359.46,546.513 L2361.88,546.513 L2361.11,532.488 "/>
<path class="Harmony" d="M474.306,532.488 L441.581,532.488 L441.581,535.073 L442.571,535.073 C445.706,535.128 446.751,535.293 447.191,535.843 C447.521,536.338 447.521,536.448 447.521,539.253 L447.521,565.433 C447.521,568.238 447.521,568.348 447.191,568.843 C446.751,569.393 445.706,569.613 442.571,569.613 L441.581,569.613 L441.581,572.198 L460.446,572.198 L460.446,569.613 L458.631,569.613 C455.496,569.613 454.451,569.393 454.011,568.843 C453.681,568.348 453.681,568.183 453.681,565.433 L453.681,552.948 L454.781,552.948 C460.446,552.728 462.481,554.763 462.701,560.868 L465.286,560.868 L465.286,542.828 L462.701,542.828 C462.371,548.218 460.226,550.308 455.001,550.363 L453.681,550.363 L453.681,537.823 C453.626,535.513 454.176,535.128 457.146,535.073 L459.676,535.073 C468.696,535.018 470.951,537.053 472.656,546.513 L475.076,546.513 L474.306,532.488 "/>
<path class="Harmony" d="M2157.19,532.103 L2155.1,532.103 L2152.9,535.348 C2148.89,532.433 2146.85,531.663 2143.06,531.663 C2137.83,531.663 2133.38,533.863 2129.69,538.263 C2126.17,542.443 2124.52,547.063 2124.52,552.728 C2124.52,564.608 2132.28,573.023 2143.11,573.023 C2151.91,573.023 2157.52,567.853 2158.79,558.613 L2156.2,558.173 C2154.72,566.368 2150.54,570.438 2143.77,570.438 C2135.63,570.438 2131.78,564.828 2131.78,552.948 C2131.78,546.678 2132.61,542.553 2134.48,539.253 C2136.18,536.173 2139.54,534.248 2143.11,534.248 C2146.96,534.248 2150.37,536.283 2152.46,539.803 C2153.51,541.618 2154.28,543.653 2155.6,547.998 L2158.02,547.998 L2157.19,532.103 "/>
<path class="Harmony" d="M2046.52,532.103 L2044.43,532.103 L2042.29,535.403 C2038.71,532.598 2036.29,531.663 2032.28,531.663 C2027.93,531.663 2024.52,532.873 2021.06,535.678 C2015.61,540.078 2013.08,545.633 2013.08,553.058 C2013.08,558.668 2014.68,563.343 2017.92,566.918 C2021.33,570.768 2026.39,573.023 2031.67,573.023 C2036.29,573.023 2039.54,571.593 2043.11,568.018 L2045.15,572.968 L2047.46,572.968 L2047.46,560.868 C2047.46,558.063 2047.46,557.953 2047.79,557.458 C2048.28,556.853 2049.27,556.688 2052.41,556.688 L2053.23,556.688 L2053.23,554.103 L2035.74,554.103 L2035.74,556.688 L2036.79,556.688 C2041.41,556.688 2041.79,556.963 2041.79,560.043 C2041.79,562.408 2041.41,564.553 2040.69,565.873 C2039.32,568.568 2035.8,570.438 2032.22,570.438 C2028.65,570.438 2025.13,568.623 2023.26,565.873 C2021.22,562.793 2020.34,558.943 2020.34,553.058 C2020.34,540.793 2024.41,534.248 2032.06,534.248 C2038.33,534.248 2042.67,538.758 2044.93,547.558 L2047.29,547.558 L2046.52,532.103 "/>
<path class="Harmony" d="M2059.25,546.788 L2061.67,547.173 L2062.66,542.828 C2063.48,539.198 2063.87,538.648 2065.46,538.648 C2065.74,538.648 2066.18,538.648 2066.67,538.703 C2073.44,539.033 2073.44,539.033 2075.97,539.033 C2076.68,539.033 2077.95,539.033 2079.49,538.978 L2075.75,546.513 C2071.68,554.598 2071.18,555.588 2069.81,558.998 C2068.1,563.123 2067.22,566.588 2067.22,568.898 C2067.22,571.428 2068.54,572.968 2070.69,572.968 C2073.33,572.968 2074.37,571.208 2074.32,566.423 C2074.04,558.503 2075.03,554.653 2080.92,541.783 C2081.91,539.638 2082.95,537.438 2083.94,535.293 L2083.94,533.698 C2080.64,533.973 2078.88,534.083 2075.47,534.083 C2070.69,534.083 2066.89,533.918 2060.95,533.478 L2059.25,546.788 "/>
<path class="Harmony" d="M557.891,532.488 L525.166,532.488 L525.166,535.073 L526.156,535.073 C529.291,535.128 530.336,535.293 530.776,535.843 C531.106,536.338 531.106,536.448 531.106,539.253 L531.106,565.433 C531.106,568.238 531.106,568.348 530.776,568.843 C530.336,569.393 529.291,569.613 526.156,569.613 L525.166,569.613 L525.166,572.198 L544.031,572.198 L544.031,569.613 L542.216,569.613 C539.081,569.613 538.036,569.393 537.596,568.843 C537.266,568.348 537.266,568.183 537.266,565.433 L537.266,552.948 L538.366,552.948 C544.031,552.728 546.066,554.763 546.286,560.868 L548.871,560.868 L548.871,542.828 L546.286,542.828 C545.956,548.218 543.811,550.308 538.586,550.363 L537.266,550.363 L537.266,537.823 C537.211,535.513 537.761,535.128 540.731,535.073 L543.261,535.073 C552.281,535.018 554.536,537.053 556.241,546.513 L558.661,546.513 L557.891,532.488 "/>
<path class="Harmony" d="M1668.24,1003.69 L1635.52,1003.69 L1635.52,1006.27 L1636.51,1006.27 C1639.64,1006.33 1640.69,1006.49 1641.13,1007.04 C1641.46,1007.54 1641.46,1007.65 1641.46,1010.45 L1641.46,1036.63 C1641.46,1039.44 1641.46,1039.55 1641.13,1040.04 C1640.69,1040.59 1639.64,1040.81 1636.51,1040.81 L1635.52,1040.81 L1635.52,1043.4 L1654.38,1043.4 L1654.38,1040.81 L1652.57,1040.81 C1649.43,1040.81 1648.39,1040.59 1647.95,1040.04 C1647.62,1039.55 1647.62,1039.38 1647.62,1036.63 L1647.62,1024.15 L1648.72,1024.15 C1654.38,1023.93 1656.42,1025.96 1656.64,1032.07 L1659.22,1032.07 L1659.22,1014.03 L1656.64,1014.03 C1656.31,1019.42 1654.16,1021.51 1648.94,1021.56 L1647.62,1021.56 L1647.62,1009.02 C1647.56,1006.71 1648.11,1006.33 1651.08,1006.27 L1653.61,1006.27 C1662.63,1006.22 1664.89,1008.25 1666.59,1017.71 L1669.01,1017.71 L1668.24,1003.69 "/>
<path class="Harmony" d="M1685.48,1007.84 L1670.8,1049.09 L1673.99,1049.09 L1688.67,1007.84 L1685.48,1007.84 "/>
<path class="Harmony" d="M1723.47,1013.14 L1721.38,1013.14 L1719.18,1016.39 C1715.17,1013.47 1713.13,1012.7 1709.34,1012.7 C1704.11,1012.7 1699.66,1014.9 1695.97,1019.3 C1692.45,1023.48 1690.8,1028.1 1690.8,1033.77 C1690.8,1045.65 1698.56,1054.06 1709.39,1054.06 C1718.19,1054.06 1723.8,1048.89 1725.07,1039.65 L1722.48,1039.21 C1721,1047.41 1716.82,1051.48 1710.05,1051.48 C1701.91,1051.48 1698.06,1045.87 1698.06,1033.99 C1698.06,1027.72 1698.89,1023.59 1700.76,1020.29 C1702.46,1017.21 1705.82,1015.29 1709.39,1015.29 C1713.24,1015.29 1716.65,1017.32 1718.74,1020.84 C1719.79,1022.66 1720.56,1024.69 1721.88,1029.04 L1724.3,1029.04 L1723.47,1013.14 "/>
<path class="Harmony" d="M1935.07,532.103 L1932.98,532.103 L1930.84,535.403 C1927.26,532.598 1924.84,531.663 1920.83,531.663 C1916.48,531.663 1913.07,532.873 1909.61,535.678 C1904.16,540.078 1901.63,545.633 1901.63,553.058 C1901.63,558.668 1903.23,563.343 1906.47,566.918 C1909.88,570.768 1914.94,573.023 1920.22,573.023 C1924.84,573.023 1928.09,571.593 1931.66,568.018 L1933.7,572.968 L1936.01,572.968 L1936.01,560.868 C1936.01,558.063 1936.01,557.953 1936.34,557.458 C1936.83,556.853 1937.82,556.688 1940.96,556.688 L1941.78,556.688 L1941.78,554.103 L1924.29,554.103 L1924.29,556.688 L1925.34,556.688 C1929.96,556.688 1930.34,556.963 1930.34,560.043 C1930.34,562.408 1929.96,564.553 1929.24,565.873 C1927.87,568.568 1924.35,570.438 1920.77,570.438 C1917.2,570.438 1913.68,568.623 1911.81,565.873 C1909.77,562.793 1908.89,558.943 1908.89,553.058 C1908.89,540.793 1912.96,534.248 1920.61,534.248 C1926.88,534.248 1931.22,538.758 1933.48,547.558 L1935.84,547.558 L1935.07,532.103 "/>
<path class="Harmony" d="M1947.8,546.788 L1950.22,547.173 L1951.21,542.828 C1952.04,539.198 1952.42,538.648 1954.02,538.648 C1954.29,538.648 1954.73,538.648 1955.23,538.703 C1961.99,539.033 1961.99,539.033 1964.52,539.033 C1965.24,539.033 1966.5,539.033 1968.04,538.978 L1964.3,546.513 C1960.23,554.598 1959.74,555.588 1958.36,558.998 C1956.66,563.123 1955.78,566.588 1955.78,568.898 C1955.78,571.428 1957.1,572.968 1959.24,572.968 C1961.88,572.968 1962.93,571.208 1962.87,566.423 C1962.6,558.503 1963.59,554.653 1969.47,541.783 C1970.46,539.638 1971.51,537.438 1972.5,535.293 L1972.5,533.698 C1969.2,533.973 1967.44,534.083 1964.03,534.083 C1959.24,534.083 1955.45,533.918 1949.51,533.478 L1947.8,546.788 "/>
<path class="Harmony" d="M2444.7,532.488 L2411.97,532.488 L2411.97,535.073 L2412.96,535.073 C2416.1,535.128 2417.14,535.293 2417.58,535.843 C2417.91,536.338 2417.91,536.448 2417.91,539.253 L2417.91,565.433 C2417.91,568.238 2417.91,568.348 2417.58,568.843 C2417.14,569.393 2416.1,569.613 2412.96,569.613 L2411.97,569.613 L2411.97,572.198 L2430.84,572.198 L2430.84,569.613 L2429.02,569.613 C2425.89,569.613 2424.84,569.393 2424.4,568.843 C2424.07,568.348 2424.07,568.183 2424.07,565.433 L2424.07,552.948 L2425.17,552.948 C2430.84,552.728 2432.87,554.763 2433.09,560.868 L2435.68,560.868 L2435.68,542.828 L2433.09,542.828 C2432.76,548.218 2430.62,550.308 2425.39,550.363 L2424.07,550.363 L2424.07,537.823 C2424.02,535.513 2424.57,535.128 2427.54,535.073 L2430.07,535.073 C2439.09,535.018 2441.34,537.053 2443.05,546.513 L2445.47,546.513 L2444.7,532.488 "/>
<path class="Harmony" d="M1726.24,572.198 L1744.72,572.198 C1749.61,572.198 1753.35,571.428 1756.27,569.778 C1761.82,566.643 1764.9,560.373 1764.9,552.123 C1764.9,544.533 1762.15,538.593 1757.09,535.293 C1754.07,533.368 1750,532.488 1743.73,532.488 L1726.24,532.488 L1726.24,535.073 L1727.28,535.073 C1730.36,535.128 1731.41,535.293 1731.85,535.843 C1732.18,536.338 1732.18,536.448 1732.18,539.253 L1732.18,565.433 C1732.18,568.238 1732.18,568.348 1731.85,568.843 C1731.41,569.393 1730.36,569.558 1727.28,569.613 L1726.24,569.613 L1726.24,572.198 M1741.47,569.613 C1738.67,569.613 1738.34,569.283 1738.34,566.588 L1738.34,538.153 C1738.34,535.458 1738.72,535.073 1741.47,535.073 L1744.33,535.073 C1753.74,535.073 1757.64,540.188 1757.64,552.343 C1757.64,564.663 1754.12,569.613 1745.21,569.613 L1741.47,569.613 "/>
<path class="Harmony" d="M1780.93,546.568 L1771.14,547.173 L1771.14,549.538 L1773.4,549.538 C1775.49,549.593 1775.76,549.923 1775.76,552.288 L1775.76,568.018 C1775.71,568.843 1775.65,569.173 1775.43,569.448 C1775.05,569.943 1774,570.163 1771.64,570.218 L1771.42,570.218 L1771.42,572.198 L1785.28,572.198 L1785.28,570.218 L1785.06,570.218 C1781.43,570.108 1780.93,569.833 1780.93,567.798 L1780.93,557.623 C1780.93,552.728 1783.63,549.098 1787.2,549.098 C1790.34,549.098 1791.93,551.353 1791.93,555.808 L1791.93,568.073 C1791.88,568.788 1791.82,569.173 1791.55,569.448 C1791.22,569.943 1790.12,570.163 1787.75,570.218 L1787.53,570.218 L1787.53,572.198 L1801.45,572.198 L1801.45,570.218 L1801.23,570.218 C1797.6,570.108 1797.1,569.833 1797.1,567.853 L1797.1,558.118 C1797.1,552.618 1799.58,549.098 1803.43,549.098 C1806.56,549.098 1808.1,551.463 1808.1,556.413 L1808.1,568.018 C1808.05,568.788 1807.99,569.173 1807.72,569.448 C1807.39,569.943 1806.29,570.163 1803.92,570.218 L1803.7,570.218 L1803.7,572.198 L1817.62,572.198 L1817.62,570.218 L1817.4,570.218 C1813.77,570.108 1813.27,569.833 1813.27,567.798 L1813.27,555.313 C1813.27,551.903 1812.94,550.748 1811.51,548.878 C1809.92,546.843 1807.66,545.743 1805.02,545.743 C1801.45,545.743 1798.81,547.448 1796.44,551.243 C1795.51,547.943 1792.54,545.743 1788.85,545.743 C1785.5,545.743 1783.08,547.338 1780.93,550.803 L1780.93,546.568 "/>
<path class="Harmony" d="M1876.24,1003.69 L1843.51,1003.69 L1843.51,1006.27 L1844.5,1006.27 C1847.64,1006.33 1848.68,1006.49 1849.12,1007.04 C1849.45,1007.54 1849.45,1007.65 1849.45,1010.45 L1849.45,1036.63 C1849.45,1039.44 1849.45,1039.55 1849.12,1040.04 C1848.68,1040.59 1847.64,1040.81 1844.5,1040.81 L1843.51,1040.81 L1843.51,1043.4 L1862.38,1043.4 L1862.38,1040.81 L1860.56,1040.81 C1857.43,1040.81 1856.38,1040.59 1855.94,1040.04 C1855.61,1039.55 1855.61,1039.38 1855.61,1036.63 L1855.61,1024.15 L1856.71,1024.15 C1862.38,1023.93 1864.41,1025.96 1864.63,1032.07 L1867.22,1032.07 L1867.22,1014.03 L1864.63,1014.03 C1864.3,1019.42 1862.16,1021.51 1856.93,1021.56 L1855.61,1021.56 L1855.61,1009.02 C1855.56,1006.71 1856.11,1006.33 1859.08,1006.27 L1861.61,1006.27 C1870.63,1006.22 1872.88,1008.25 1874.59,1017.71 L1877.01,1017.71 L1876.24,1003.69 "/>
<path class="Harmony" d="M1893.48,1007.84 L1878.79,1049.09 L1881.98,1049.09 L1896.67,1007.84 L1893.48,1007.84 "/>
<path class="Harmony" d="M1931.47,1013.14 L1929.38,1013.14 L1927.18,1016.39 C1923.16,1013.47 1921.13,1012.7 1917.33,1012.7 C1912.11,1012.7 1907.65,1014.9 1903.97,1019.3 C1900.45,1023.48 1898.8,1028.1 1898.8,1033.77 C1898.8,1045.65 1906.55,1054.06 1917.39,1054.06 C1926.19,1054.06 1931.8,1048.89 1933.06,1039.65 L1930.48,1039.21 C1928.99,1047.41 1924.81,1051.48 1918.05,1051.48 C1909.91,1051.48 1906.06,1045.87 1906.06,1033.99 C1906.06,1027.72 1906.88,1023.59 1908.75,1020.29 C1910.46,1017.21 1913.81,1015.29 1917.39,1015.29 C1921.24,1015.29 1924.65,1017.32 1926.74,1020.84 C1927.78,1022.66 1928.55,1024.69 1929.87,1029.04 L1932.29,1029.04 L1931.47,1013.14 "/>
<path class="Harmony" d="M1614.79,572.198 L1633.27,572.198 C1638.17,572.198 1641.91,571.428 1644.82,569.778 C1650.38,566.643 1653.46,560.373 1653.46,552.123 C1653.46,544.533 1650.71,538.593 1645.65,535.293 C1642.62,533.368 1638.55,532.488 1632.28,532.488 L1614.79,532.488 L1614.79,535.073 L1615.84,535.073 C1618.92,535.128 1619.96,535.293 1620.4,535.843 C1620.73,536.338 1620.73,536.448 1620.73,539.253 L1620.73,565.433 C1620.73,568.238 1620.73,568.348 1620.4,568.843 C1619.96,569.393 1618.92,569.558 1615.84,569.613 L1614.79,569.613 L1614.79,572.198 M1630.03,569.613 C1627.22,569.613 1626.89,569.283 1626.89,566.588 L1626.89,538.153 C1626.89,535.458 1627.28,535.073 1630.03,535.073 L1632.89,535.073 C1642.29,535.073 1646.2,540.188 1646.2,552.343 C1646.2,564.663 1642.68,569.613 1633.77,569.613 L1630.03,569.613 "/>
<path class="Harmony" d="M1669.49,546.568 L1659.7,547.173 L1659.7,549.538 L1661.95,549.538 C1664.04,549.593 1664.32,549.923 1664.32,552.288 L1664.32,568.018 C1664.26,568.843 1664.21,569.173 1663.99,569.448 C1663.6,569.943 1662.56,570.163 1660.19,570.218 L1659.97,570.218 L1659.97,572.198 L1673.83,572.198 L1673.83,570.218 L1673.61,570.218 C1669.98,570.108 1669.49,569.833 1669.49,567.798 L1669.49,557.623 C1669.49,552.728 1672.18,549.098 1675.76,549.098 C1678.89,549.098 1680.49,551.353 1680.49,555.808 L1680.49,568.073 C1680.43,568.788 1680.38,569.173 1680.1,569.448 C1679.77,569.943 1678.67,570.163 1676.31,570.218 L1676.09,570.218 L1676.09,572.198 L1690,572.198 L1690,570.218 L1689.78,570.218 C1686.15,570.108 1685.66,569.833 1685.66,567.853 L1685.66,558.118 C1685.66,552.618 1688.13,549.098 1691.98,549.098 C1695.12,549.098 1696.66,551.463 1696.66,556.413 L1696.66,568.018 C1696.6,568.788 1696.55,569.173 1696.27,569.448 C1695.94,569.943 1694.84,570.163 1692.48,570.218 L1692.26,570.218 L1692.26,572.198 L1706.17,572.198 L1706.17,570.218 L1705.95,570.218 C1702.32,570.108 1701.83,569.833 1701.83,567.798 L1701.83,555.313 C1701.83,551.903 1701.5,550.748 1700.07,548.878 C1698.47,546.843 1696.22,545.743 1693.58,545.743 C1690,545.743 1687.36,547.448 1685,551.243 C1684.06,547.943 1681.09,545.743 1677.41,545.743 C1674.05,545.743 1671.63,547.338 1669.49,550.803 L1669.49,546.568 "/>
<path class="Harmony" d="M1252.98,1003.3 L1250.89,1003.3 L1248.75,1006.6 C1245.17,1003.8 1242.75,1002.86 1238.74,1002.86 C1234.39,1002.86 1230.98,1004.07 1227.52,1006.88 C1222.07,1011.28 1219.54,1016.83 1219.54,1024.26 C1219.54,1029.87 1221.14,1034.54 1224.38,1038.12 C1227.79,1041.97 1232.85,1044.22 1238.13,1044.22 C1242.75,1044.22 1246,1042.79 1249.57,1039.22 L1251.61,1044.17 L1253.92,1044.17 L1253.92,1032.07 C1253.92,1029.26 1253.92,1029.15 1254.25,1028.66 C1254.74,1028.05 1255.73,1027.89 1258.87,1027.89 L1259.69,1027.89 L1259.69,1025.3 L1242.2,1025.3 L1242.2,1027.89 L1243.25,1027.89 C1247.87,1027.89 1248.25,1028.16 1248.25,1031.24 C1248.25,1033.61 1247.87,1035.75 1247.15,1037.07 C1245.78,1039.77 1242.26,1041.64 1238.68,1041.64 C1235.11,1041.64 1231.59,1039.82 1229.72,1037.07 C1227.68,1033.99 1226.8,1030.14 1226.8,1024.26 C1226.8,1011.99 1230.87,1005.45 1238.52,1005.45 C1244.79,1005.45 1249.13,1009.96 1251.39,1018.76 L1253.75,1018.76 L1252.98,1003.3 "/>
<path class="Harmony" d="M1273.52,1017.77 L1263.73,1018.37 L1263.73,1020.74 L1265.98,1020.74 C1268.07,1020.79 1268.35,1021.12 1268.35,1023.49 L1268.35,1039.22 C1268.29,1040.04 1268.24,1040.37 1268.02,1040.65 C1267.63,1041.14 1266.59,1041.36 1264.22,1041.42 L1264,1041.42 L1264,1043.4 L1277.86,1043.4 L1277.86,1041.42 L1277.64,1041.42 C1274.01,1041.31 1273.52,1041.03 1273.52,1039 L1273.52,1028.82 C1273.52,1023.93 1276.21,1020.3 1279.79,1020.3 C1282.92,1020.3 1284.52,1022.55 1284.52,1027.01 L1284.52,1039.27 C1284.46,1039.99 1284.41,1040.37 1284.13,1040.65 C1283.8,1041.14 1282.7,1041.36 1280.34,1041.42 L1280.12,1041.42 L1280.12,1043.4 L1294.03,1043.4 L1294.03,1041.42 L1293.81,1041.42 C1290.18,1041.31 1289.69,1041.03 1289.69,1039.05 L1289.69,1029.32 C1289.69,1023.82 1292.16,1020.3 1296.01,1020.3 C1299.15,1020.3 1300.69,1022.66 1300.69,1027.61 L1300.69,1039.22 C1300.63,1039.99 1300.58,1040.37 1300.3,1040.65 C1299.97,1041.14 1298.87,1041.36 1296.51,1041.42 L1296.29,1041.42 L1296.29,1043.4 L1310.2,1043.4 L1310.2,1041.42 L1309.98,1041.42 C1306.35,1041.31 1305.86,1041.03 1305.86,1039 L1305.86,1026.51 C1305.86,1023.1 1305.53,1021.95 1304.1,1020.08 C1302.5,1018.04 1300.25,1016.94 1297.61,1016.94 C1294.03,1016.94 1291.39,1018.65 1289.03,1022.44 C1288.09,1019.14 1285.12,1016.94 1281.44,1016.94 C1278.08,1016.94 1275.66,1018.54 1273.52,1022 L1273.52,1017.77 "/>
<path class="Harmony" d="M1314.6,1017.99 L1317.02,1018.37 L1318.01,1014.03 C1318.84,1010.4 1319.22,1009.85 1320.82,1009.85 C1321.09,1009.85 1321.53,1009.85 1322.03,1009.9 C1328.79,1010.23 1328.79,1010.23 1331.32,1010.23 C1332.04,1010.23 1333.3,1010.23 1334.84,1010.18 L1331.1,1017.71 C1327.03,1025.8 1326.54,1026.79 1325.16,1030.2 C1323.46,1034.32 1322.58,1037.79 1322.58,1040.1 C1322.58,1042.63 1323.9,1044.17 1326.04,1044.17 C1328.68,1044.17 1329.73,1042.41 1329.67,1037.62 C1329.4,1029.7 1330.39,1025.85 1336.27,1012.98 C1337.26,1010.84 1338.31,1008.64 1339.3,1006.49 L1339.3,1004.9 C1336,1005.17 1334.24,1005.28 1330.83,1005.28 C1326.04,1005.28 1322.25,1005.12 1316.31,1004.68 L1314.6,1017.99 "/>
<path class="Harmony" d="M1536.02,532.103 L1533.93,532.103 L1531.73,535.348 C1527.71,532.433 1525.68,531.663 1521.88,531.663 C1516.66,531.663 1512.2,533.863 1508.52,538.263 C1505,542.443 1503.35,547.063 1503.35,552.728 C1503.35,564.608 1511.1,573.023 1521.94,573.023 C1530.74,573.023 1536.35,567.853 1537.61,558.613 L1535.03,558.173 C1533.54,566.368 1529.36,570.438 1522.6,570.438 C1514.46,570.438 1510.61,564.828 1510.61,552.948 C1510.61,546.678 1511.43,542.553 1513.3,539.253 C1515.01,536.173 1518.36,534.248 1521.94,534.248 C1525.79,534.248 1529.2,536.283 1531.29,539.803 C1532.33,541.618 1533.1,543.653 1534.42,547.998 L1536.84,547.998 L1536.02,532.103 "/>
<path class="Harmony" d="M1561.15,544.643 C1561.59,544.533 1561.97,544.093 1561.97,543.653 L1561.97,539.363 C1561.97,539.088 1561.81,538.758 1561.59,538.593 C1561.42,538.428 1561.15,538.318 1560.98,538.318 C1560.93,538.318 1560.82,538.373 1560.76,538.373 L1558.4,538.868 L1558.4,528.033 L1556.36,528.033 L1556.36,539.253 L1549.87,540.628 L1549.87,530.343 L1547.84,530.343 L1547.84,541.013 L1545.03,541.618 C1544.59,541.728 1544.21,542.168 1544.21,542.608 L1544.21,546.843 C1544.21,547.118 1544.37,547.448 1544.59,547.613 C1544.87,547.778 1545.09,547.833 1545.42,547.833 L1547.84,547.338 L1547.84,559.328 L1545.03,559.933 C1544.59,560.043 1544.21,560.483 1544.21,560.923 L1544.21,565.158 C1544.21,565.378 1544.37,565.763 1544.59,565.928 C1544.76,566.038 1545.03,566.148 1545.2,566.148 L1545.25,566.148 C1545.31,566.148 1545.36,566.148 1545.42,566.093 L1547.84,565.598 L1547.84,576.433 L1549.87,576.433 L1549.87,565.213 L1556.36,563.893 L1556.36,574.123 L1558.4,574.123 L1558.4,563.508 L1561.15,562.903 C1561.59,562.848 1561.97,562.408 1561.97,561.968 L1561.97,557.678 C1561.97,557.403 1561.81,557.018 1561.59,556.853 C1561.48,556.743 1561.15,556.633 1560.98,556.633 C1560.93,556.633 1560.82,556.633 1560.76,556.688 L1558.4,557.183 L1558.4,545.193 L1561.15,544.643 M1549.87,546.898 L1556.36,545.578 L1556.36,557.568 L1549.87,558.943 L1549.87,546.898 "/>
<path class="Harmony" d="M1586.8,547.008 C1585.1,546.128 1583.56,545.743 1581.8,545.743 C1575.14,545.743 1569.92,551.793 1569.92,559.438 C1569.92,564.003 1571.62,568.018 1574.65,570.658 L1571.29,577.203 L1574.04,577.203 L1576.74,571.978 C1578.11,572.693 1579.76,573.023 1581.63,573.023 C1588.73,573.023 1593.68,567.523 1593.68,559.658 C1593.68,555.203 1591.86,550.968 1588.84,548.328 L1592.3,541.673 L1589.55,541.673 L1586.8,547.008 M1576.74,566.588 C1576.02,564.608 1575.69,562.573 1575.69,559.603 C1575.69,551.958 1577.78,548.108 1581.85,548.108 C1583.28,548.108 1584.27,548.548 1585.43,549.703 L1576.74,566.588 M1586.91,552.178 C1587.57,554.158 1587.9,556.248 1587.9,558.833 C1587.9,566.643 1585.81,570.658 1581.74,570.658 C1580.31,570.658 1579.16,570.163 1578.22,569.063 L1586.91,552.178 "/>
<path class="Harmony" d="M1424.57,532.103 L1422.48,532.103 L1420.28,535.348 C1416.27,532.433 1414.23,531.663 1410.44,531.663 C1405.21,531.663 1400.76,533.863 1397.07,538.263 C1393.55,542.443 1391.9,547.063 1391.9,552.728 C1391.9,564.608 1399.66,573.023 1410.49,573.023 C1419.29,573.023 1424.9,567.853 1426.17,558.613 L1423.58,558.173 C1422.1,566.368 1417.92,570.438 1411.15,570.438 C1403.01,570.438 1399.16,564.828 1399.16,552.948 C1399.16,546.678 1399.99,542.553 1401.86,539.253 C1403.56,536.173 1406.92,534.248 1410.49,534.248 C1414.34,534.248 1417.75,536.283 1419.84,539.803 C1420.89,541.618 1421.66,543.653 1422.98,547.998 L1425.4,547.998 L1424.57,532.103 "/>
<path class="Harmony" d="M1434.83,546.788 L1437.25,547.173 L1438.24,542.828 C1439.06,539.198 1439.45,538.648 1441.04,538.648 C1441.32,538.648 1441.76,538.648 1442.25,538.703 C1449.02,539.033 1449.02,539.033 1451.55,539.033 C1452.26,539.033 1453.53,539.033 1455.07,538.978 L1451.33,546.513 C1447.26,554.598 1446.76,555.588 1445.39,558.998 C1443.68,563.123 1442.8,566.588 1442.8,568.898 C1442.8,571.428 1444.12,572.968 1446.27,572.968 C1448.91,572.968 1449.95,571.208 1449.9,566.423 C1449.62,558.503 1450.61,554.653 1456.5,541.783 C1457.49,539.638 1458.53,537.438 1459.52,535.293 L1459.52,533.698 C1456.22,533.973 1454.46,534.083 1451.05,534.083 C1446.27,534.083 1442.47,533.918 1436.53,533.478 L1434.83,546.788 "/>
<path class="Harmony" d="M2556.15,532.488 L2523.42,532.488 L2523.42,535.073 L2524.41,535.073 C2527.55,535.128 2528.59,535.293 2529.03,535.843 C2529.36,536.338 2529.36,536.448 2529.36,539.253 L2529.36,565.433 C2529.36,568.238 2529.36,568.348 2529.03,568.843 C2528.59,569.393 2527.55,569.613 2524.41,569.613 L2523.42,569.613 L2523.42,572.198 L2542.29,572.198 L2542.29,569.613 L2540.47,569.613 C2537.34,569.613 2536.29,569.393 2535.85,568.843 C2535.52,568.348 2535.52,568.183 2535.52,565.433 L2535.52,552.948 L2536.62,552.948 C2542.29,552.728 2544.32,554.763 2544.54,560.868 L2547.13,560.868 L2547.13,542.828 L2544.54,542.828 C2544.21,548.218 2542.07,550.308 2536.84,550.363 L2535.52,550.363 L2535.52,537.823 C2535.47,535.513 2536.02,535.128 2538.99,535.073 L2541.52,535.073 C2550.54,535.018 2552.79,537.053 2554.5,546.513 L2556.92,546.513 L2556.15,532.488 "/>
<path class="Harmony" d="M1249.24,532.488 L1216.51,532.488 L1216.51,535.073 L1217.5,535.073 C1220.64,535.128 1221.68,535.293 1222.12,535.843 C1222.45,536.338 1222.45,536.448 1222.45,539.253 L1222.45,565.433 C1222.45,568.238 1222.45,568.348 1222.12,568.843 C1221.68,569.393 1220.64,569.613 1217.5,569.613 L1216.51,569.613 L1216.51,572.198 L1235.38,572.198 L1235.38,569.613 L1233.56,569.613 C1230.43,569.613 1229.38,569.393 1228.94,568.843 C1228.61,568.348 1228.61,568.183 1228.61,565.433 L1228.61,552.948 L1229.71,552.948 C1235.38,552.728 1237.41,554.763 1237.63,560.868 L1240.22,560.868 L1240.22,542.828 L1237.63,542.828 C1237.3,548.218 1235.16,550.308 1229.93,550.363 L1228.61,550.363 L1228.61,537.823 C1228.56,535.513 1229.11,535.128 1232.08,535.073 L1234.61,535.073 C1243.63,535.018 1245.88,537.053 1247.59,546.513 L1250.01,546.513 L1249.24,532.488 "/>
<path class="Harmony" d="M1165.65,532.488 L1132.93,532.488 L1132.93,535.073 L1133.92,535.073 C1137.05,535.128 1138.1,535.293 1138.54,535.843 C1138.87,536.338 1138.87,536.448 1138.87,539.253 L1138.87,565.433 C1138.87,568.238 1138.87,568.348 1138.54,568.843 C1138.1,569.393 1137.05,569.613 1133.92,569.613 L1132.93,569.613 L1132.93,572.198 L1151.79,572.198 L1151.79,569.613 L1149.98,569.613 C1146.84,569.613 1145.8,569.393 1145.36,568.843 C1145.03,568.348 1145.03,568.183 1145.03,565.433 L1145.03,552.948 L1146.13,552.948 C1151.79,552.728 1153.83,554.763 1154.05,560.868 L1156.63,560.868 L1156.63,542.828 L1154.05,542.828 C1153.72,548.218 1151.57,550.308 1146.35,550.363 L1145.03,550.363 L1145.03,537.823 C1144.97,535.513 1145.52,535.128 1148.49,535.073 L1151.02,535.073 C1160.04,535.018 1162.3,537.053 1164,546.513 L1166.42,546.513 L1165.65,532.488 "/>
<path class="Harmony" d="M2667.65,532.488 L2634.93,532.488 L2634.93,535.073 L2635.92,535.073 C2639.05,535.128 2640.1,535.293 2640.54,535.843 C2640.87,536.338 2640.87,536.448 2640.87,539.253 L2640.87,565.433 C2640.87,568.238 2640.87,568.348 2640.54,568.843 C2640.1,569.393 2639.05,569.613 2635.92,569.613 L2634.93,569.613 L2634.93,572.198 L2653.79,572.198 L2653.79,569.613 L2651.98,569.613 C2648.84,569.613 2647.8,569.393 2647.36,568.843 C2647.03,568.348 2647.03,568.183 2647.03,565.433 L2647.03,552.948 L2648.13,552.948 C2653.79,552.728 2655.83,554.763 2656.05,560.868 L2658.63,560.868 L2658.63,542.828 L2656.05,542.828 C2655.72,548.218 2653.57,550.308 2648.35,550.363 L2647.03,550.363 L2647.03,537.823 C2646.97,535.513 2647.52,535.128 2650.49,535.073 L2653.02,535.073 C2662.04,535.018 2664.3,537.053 2666,546.513 L2668.42,546.513 L2667.65,532.488 "/>
<path class="Harmony" d="M2120.88,1003.3 L2118.79,1003.3 L2116.59,1006.55 C2112.58,1003.63 2110.54,1002.86 2106.75,1002.86 C2101.52,1002.86 2097.07,1005.06 2093.38,1009.46 C2089.86,1013.64 2088.21,1018.26 2088.21,1023.93 C2088.21,1035.81 2095.97,1044.22 2106.8,1044.22 C2115.6,1044.22 2121.21,1039.05 2122.48,1029.81 L2119.89,1029.37 C2118.41,1037.57 2114.23,1041.64 2107.46,1041.64 C2099.32,1041.64 2095.47,1036.03 2095.47,1024.15 C2095.47,1017.88 2096.3,1013.75 2098.17,1010.45 C2099.87,1007.37 2103.23,1005.45 2106.8,1005.45 C2110.65,1005.45 2114.06,1007.48 2116.15,1011 C2117.2,1012.82 2117.97,1014.85 2119.29,1019.2 L2121.71,1019.2 L2120.88,1003.3 "/>
<path class="Harmony" d="M2131.14,1017.99 L2133.56,1018.37 L2134.55,1014.03 C2135.38,1010.4 2135.76,1009.85 2137.36,1009.85 C2137.63,1009.85 2138.07,1009.85 2138.57,1009.9 C2145.33,1010.23 2145.33,1010.23 2147.86,1010.23 C2148.58,1010.23 2149.84,1010.23 2151.38,1010.18 L2147.64,1017.71 C2143.57,1025.8 2143.08,1026.79 2141.7,1030.2 C2140,1034.32 2139.12,1037.79 2139.12,1040.1 C2139.12,1042.63 2140.44,1044.17 2142.58,1044.17 C2145.22,1044.17 2146.27,1042.41 2146.21,1037.62 C2145.94,1029.7 2146.93,1025.85 2152.81,1012.98 C2153.8,1010.84 2154.85,1008.64 2155.84,1006.49 L2155.84,1004.9 C2152.54,1005.17 2150.78,1005.28 2147.37,1005.28 C2142.58,1005.28 2138.79,1005.12 2132.85,1004.68 L2131.14,1017.99 "/>
<path class="Harmony" d="M1021.49,532.488 L1021.49,535.073 L1022.48,535.073 C1025.61,535.128 1026.66,535.293 1027.1,535.843 C1027.43,536.338 1027.43,536.448 1027.43,539.253 L1027.43,565.433 C1027.43,568.238 1027.43,568.348 1027.1,568.843 C1026.66,569.393 1025.61,569.613 1022.48,569.613 L1021.49,569.613 L1021.49,572.198 L1041.45,572.198 C1050.97,572.198 1056.69,568.183 1056.69,561.418 C1056.69,555.918 1053.22,552.783 1045.69,551.463 C1048.33,550.913 1049.54,550.418 1050.97,549.373 C1053.22,547.668 1054.6,544.973 1054.6,542.223 C1054.6,538.648 1052.4,535.183 1049.21,533.808 C1047.23,532.928 1044.48,532.488 1041.23,532.488 L1021.49,532.488 M1033.59,550.363 L1033.59,537.823 C1033.59,535.678 1034.3,535.128 1037.22,535.073 L1039.42,535.073 C1044.81,535.073 1048.22,536.833 1048.22,542.828 C1048.22,548.273 1045.58,550.363 1038.48,550.363 L1033.59,550.363 M1033.59,552.948 L1038.43,552.948 C1046.84,552.948 1049.92,555.203 1049.92,561.253 C1049.92,568.623 1045.3,569.613 1039.09,569.613 L1036.78,569.613 C1034.03,569.613 1033.48,569.063 1033.59,566.148 L1033.59,552.948 "/>
<path class="Harmony" d="M1065.37,574.728 C1067.02,574.728 1073.24,571.208 1076.7,567.578 C1079.51,564.553 1080.28,560.483 1080.28,557.678 C1080.28,553.278 1077.53,550.143 1073.07,550.143 C1070.71,550.143 1068.62,550.913 1066.86,552.453 L1067.13,529.793 C1067.13,529.078 1066.53,528.528 1065.81,528.528 L1064.99,528.528 C1064.33,528.528 1063.67,529.078 1063.67,529.793 L1064.11,573.463 C1064.11,574.178 1064.66,574.728 1065.37,574.728 M1071.48,554.268 C1074.61,554.268 1075,557.513 1075,558.778 C1075,563.783 1070.87,567.303 1067.19,569.998 C1067.02,570.108 1066.86,570.218 1066.69,570.383 L1066.8,556.798 C1066.91,556.523 1067.35,555.918 1068.18,555.368 C1068.84,554.873 1070.1,554.268 1071.48,554.268"/>
<path class="Harmony" d="M910.042,532.488 L910.042,535.073 L911.032,535.073 C914.167,535.128 915.212,535.293 915.652,535.843 C915.982,536.338 915.982,536.448 915.982,539.253 L915.982,565.433 C915.982,568.238 915.982,568.348 915.652,568.843 C915.212,569.393 914.167,569.613 911.032,569.613 L910.042,569.613 L910.042,572.198 L930.007,572.198 C939.522,572.198 945.242,568.183 945.242,561.418 C945.242,555.918 941.777,552.783 934.242,551.463 C936.882,550.913 938.092,550.418 939.522,549.373 C941.777,547.668 943.152,544.973 943.152,542.223 C943.152,538.648 940.952,535.183 937.762,533.808 C935.782,532.928 933.032,532.488 929.787,532.488 L910.042,532.488 M922.142,550.363 L922.142,537.823 C922.142,535.678 922.857,535.128 925.772,535.073 L927.972,535.073 C933.362,535.073 936.772,536.833 936.772,542.828 C936.772,548.273 934.132,550.363 927.037,550.363 L922.142,550.363 M922.142,552.948 L926.982,552.948 C935.397,552.948 938.477,555.203 938.477,561.253 C938.477,568.623 933.857,569.613 927.642,569.613 L925.332,569.613 C922.582,569.613 922.032,569.063 922.142,566.148 L922.142,552.948 "/>
<path class="Harmony" d="M953.926,574.728 C955.576,574.728 961.791,571.208 965.256,567.578 C968.061,564.553 968.831,560.483 968.831,557.678 C968.831,553.278 966.081,550.143 961.626,550.143 C959.261,550.143 957.171,550.913 955.411,552.453 L955.686,529.793 C955.686,529.078 955.081,528.528 954.366,528.528 L953.541,528.528 C952.881,528.528 952.221,529.078 952.221,529.793 L952.661,573.463 C952.661,574.178 953.211,574.728 953.926,574.728 M960.031,554.268 C963.166,554.268 963.551,557.513 963.551,558.778 C963.551,563.783 959.426,567.303 955.741,569.998 C955.576,570.108 955.411,570.218 955.246,570.383 L955.356,556.798 C955.466,556.523 955.906,555.918 956.731,555.368 C957.391,554.873 958.656,554.268 960.031,554.268"/>
<path class="Harmony" d="M402.855,1003.69 L402.855,1006.27 L403.845,1006.27 C406.98,1006.33 408.025,1006.49 408.465,1007.04 C408.795,1007.54 408.795,1007.65 408.795,1010.45 L408.795,1036.63 C408.795,1039.44 408.795,1039.55 408.465,1040.04 C408.025,1040.59 406.98,1040.81 403.845,1040.81 L402.855,1040.81 L402.855,1043.4 L422.82,1043.4 C432.335,1043.4 438.055,1039.38 438.055,1032.62 C438.055,1027.12 434.59,1023.98 427.055,1022.66 C429.695,1022.11 430.905,1021.62 432.335,1020.57 C434.59,1018.87 435.965,1016.17 435.965,1013.42 C435.965,1009.85 433.765,1006.38 430.575,1005.01 C428.595,1004.13 425.845,1003.69 422.6,1003.69 L402.855,1003.69 M414.955,1021.56 L414.955,1009.02 C414.955,1006.88 415.67,1006.33 418.585,1006.27 L420.785,1006.27 C426.175,1006.27 429.585,1008.03 429.585,1014.03 C429.585,1019.47 426.945,1021.56 419.85,1021.56 L414.955,1021.56 M414.955,1024.15 L419.795,1024.15 C428.21,1024.15 431.29,1026.4 431.29,1032.45 C431.29,1039.82 426.67,1040.81 420.455,1040.81 L418.145,1040.81 C415.395,1040.81 414.845,1040.26 414.955,1037.35 L414.955,1024.15 "/>
<path class="Harmony" d="M446.738,1045.93 C448.388,1045.93 454.603,1042.41 458.068,1038.78 C460.873,1035.75 461.643,1031.68 461.643,1028.88 C461.643,1024.48 458.893,1021.34 454.438,1021.34 C452.073,1021.34 449.983,1022.11 448.223,1023.65 L448.498,1000.99 C448.498,1000.28 447.893,999.728 447.178,999.728 L446.353,999.728 C445.693,999.728 445.033,1000.28 445.033,1000.99 L445.473,1044.66 C445.473,1045.38 446.023,1045.93 446.738,1045.93 M452.843,1025.47 C455.978,1025.47 456.363,1028.71 456.363,1029.98 C456.363,1034.98 452.238,1038.5 448.553,1041.2 C448.388,1041.31 448.223,1041.42 448.058,1041.58 L448.168,1028 C448.278,1027.72 448.718,1027.12 449.543,1026.57 C450.203,1026.07 451.468,1025.47 452.843,1025.47"/>
<path class="Harmony" d="M2328.93,1003.69 L2296.2,1003.69 L2296.2,1006.27 L2297.19,1006.27 C2300.33,1006.33 2301.37,1006.49 2301.81,1007.04 C2302.14,1007.54 2302.14,1007.65 2302.14,1010.45 L2302.14,1036.63 C2302.14,1039.44 2302.14,1039.55 2301.81,1040.04 C2301.37,1040.59 2300.33,1040.81 2297.19,1040.81 L2296.2,1040.81 L2296.2,1043.4 L2315.07,1043.4 L2315.07,1040.81 L2313.25,1040.81 C2310.12,1040.81 2309.07,1040.59 2308.63,1040.04 C2308.3,1039.55 2308.3,1039.38 2308.3,1036.63 L2308.3,1024.15 L2309.4,1024.15 C2315.07,1023.93 2317.1,1025.96 2317.32,1032.07 L2319.91,1032.07 L2319.91,1014.03 L2317.32,1014.03 C2316.99,1019.42 2314.85,1021.51 2309.62,1021.56 L2308.3,1021.56 L2308.3,1009.02 C2308.25,1006.71 2308.8,1006.33 2311.77,1006.27 L2314.3,1006.27 C2323.32,1006.22 2325.57,1008.25 2327.28,1017.71 L2329.7,1017.71 L2328.93,1003.69 "/>
<path class="Harmony" d="M610.849,1003.69 L610.849,1006.27 L611.839,1006.27 C614.974,1006.33 616.019,1006.49 616.459,1007.04 C616.789,1007.54 616.789,1007.65 616.789,1010.45 L616.789,1036.63 C616.789,1039.44 616.789,1039.55 616.459,1040.04 C616.019,1040.59 614.974,1040.81 611.839,1040.81 L610.849,1040.81 L610.849,1043.4 L630.814,1043.4 C640.329,1043.4 646.049,1039.38 646.049,1032.62 C646.049,1027.12 642.584,1023.98 635.049,1022.66 C637.689,1022.11 638.899,1021.62 640.329,1020.57 C642.584,1018.87 643.959,1016.17 643.959,1013.42 C643.959,1009.85 641.759,1006.38 638.569,1005.01 C636.589,1004.13 633.839,1003.69 630.594,1003.69 L610.849,1003.69 M622.949,1021.56 L622.949,1009.02 C622.949,1006.88 623.664,1006.33 626.579,1006.27 L628.779,1006.27 C634.169,1006.27 637.579,1008.03 637.579,1014.03 C637.579,1019.47 634.939,1021.56 627.844,1021.56 L622.949,1021.56 M622.949,1024.15 L627.789,1024.15 C636.204,1024.15 639.284,1026.4 639.284,1032.45 C639.284,1039.82 634.664,1040.81 628.449,1040.81 L626.139,1040.81 C623.389,1040.81 622.839,1040.26 622.949,1037.35 L622.949,1024.15 "/>
<path class="Harmony" d="M654.732,1045.93 C656.382,1045.93 662.597,1042.41 666.062,1038.78 C668.867,1035.75 669.637,1031.68 669.637,1028.88 C669.637,1024.48 666.887,1021.34 662.432,1021.34 C660.067,1021.34 657.977,1022.11 656.217,1023.65 L656.492,1000.99 C656.492,1000.28 655.887,999.728 655.172,999.728 L654.347,999.728 C653.687,999.728 653.027,1000.28 653.027,1000.99 L653.467,1044.66 C653.467,1045.38 654.017,1045.93 654.732,1045.93 M660.837,1025.47 C663.972,1025.47 664.357,1028.71 664.357,1029.98 C664.357,1034.98 660.232,1038.5 656.547,1041.2 C656.382,1041.31 656.217,1041.42 656.052,1041.58 L656.162,1028 C656.272,1027.72 656.712,1027.12 657.537,1026.57 C658.197,1026.07 659.462,1025.47 660.837,1025.47"/>
<path class="Harmony" d="M780.846,532.488 L748.121,532.488 L748.121,535.073 L749.111,535.073 C752.246,535.128 753.291,535.293 753.731,535.843 C754.061,536.338 754.061,536.448 754.061,539.253 L754.061,565.433 C754.061,568.238 754.061,568.348 753.731,568.843 C753.291,569.393 752.246,569.613 749.111,569.613 L748.121,569.613 L748.121,572.198 L766.986,572.198 L766.986,569.613 L765.171,569.613 C762.036,569.613 760.991,569.393 760.551,568.843 C760.221,568.348 760.221,568.183 760.221,565.433 L760.221,552.948 L761.321,552.948 C766.986,552.728 769.021,554.763 769.241,560.868 L771.826,560.868 L771.826,542.828 L769.241,542.828 C768.911,548.218 766.766,550.308 761.541,550.363 L760.221,550.363 L760.221,537.823 C760.166,535.513 760.716,535.128 763.686,535.073 L766.216,535.073 C775.236,535.018 777.491,537.053 779.196,546.513 L781.616,546.513 L780.846,532.488 "/>
<path class="Harmony" d="M669.338,532.488 L636.613,532.488 L636.613,535.073 L637.603,535.073 C640.738,535.128 641.783,535.293 642.223,535.843 C642.553,536.338 642.553,536.448 642.553,539.253 L642.553,565.433 C642.553,568.238 642.553,568.348 642.223,568.843 C641.783,569.393 640.738,569.613 637.603,569.613 L636.613,569.613 L636.613,572.198 L655.478,572.198 L655.478,569.613 L653.663,569.613 C650.528,569.613 649.483,569.393 649.043,568.843 C648.713,568.348 648.713,568.183 648.713,565.433 L648.713,552.948 L649.813,552.948 C655.478,552.728 657.513,554.763 657.733,560.868 L660.318,560.868 L660.318,542.828 L657.733,542.828 C657.403,548.218 655.258,550.308 650.033,550.363 L648.713,550.363 L648.713,537.823 C648.658,535.513 649.208,535.128 652.178,535.073 L654.708,535.073 C663.728,535.018 665.983,537.053 667.688,546.513 L670.108,546.513 L669.338,532.488 "/>
<path class="Harmony" d="M851.56,1003.69 L818.835,1003.69 L818.835,1006.27 L819.825,1006.27 C822.96,1006.33 824.005,1006.49 824.445,1007.04 C824.775,1007.54 824.775,1007.65 824.775,1010.45 L824.775,1036.63 C824.775,1039.44 824.775,1039.55 824.445,1040.04 C824.005,1040.59 822.96,1040.81 819.825,1040.81 L818.835,1040.81 L818.835,1043.4 L837.7,1043.4 L837.7,1040.81 L835.885,1040.81 C832.75,1040.81 831.705,1040.59 831.265,1040.04 C830.935,1039.55 830.935,1039.38 830.935,1036.63 L830.935,1024.15 L832.035,1024.15 C837.7,1023.93 839.735,1025.96 839.955,1032.07 L842.54,1032.07 L842.54,1014.03 L839.955,1014.03 C839.625,1019.42 837.48,1021.51 832.255,1021.56 L830.935,1021.56 L830.935,1009.02 C830.88,1006.71 831.43,1006.33 834.4,1006.27 L836.93,1006.27 C845.95,1006.22 848.205,1008.25 849.91,1017.71 L852.33,1017.71 L851.56,1003.69 "/>
<path class="Harmony" d="M2536.92,1003.69 L2504.2,1003.69 L2504.2,1006.27 L2505.19,1006.27 C2508.32,1006.33 2509.37,1006.49 2509.81,1007.04 C2510.14,1007.54 2510.14,1007.65 2510.14,1010.45 L2510.14,1036.63 C2510.14,1039.44 2510.14,1039.55 2509.81,1040.04 C2509.37,1040.59 2508.32,1040.81 2505.19,1040.81 L2504.2,1040.81 L2504.2,1043.4 L2523.06,1043.4 L2523.06,1040.81 L2521.25,1040.81 C2518.11,1040.81 2517.07,1040.59 2516.63,1040.04 C2516.3,1039.55 2516.3,1039.38 2516.3,1036.63 L2516.3,1024.15 L2517.4,1024.15 C2523.06,1023.93 2525.1,1025.96 2525.32,1032.07 L2527.9,1032.07 L2527.9,1014.03 L2525.32,1014.03 C2524.99,1019.42 2522.84,1021.51 2517.62,1021.56 L2516.3,1021.56 L2516.3,1009.02 C2516.24,1006.71 2516.79,1006.33 2519.76,1006.27 L2522.29,1006.27 C2531.31,1006.22 2533.57,1008.25 2535.27,1017.71 L2537.69,1017.71 L2536.92,1003.69 "/>
<path class="Harmony" d="M2240.78,532.103 L2238.69,532.103 L2236.49,535.348 C2232.47,532.433 2230.44,531.663 2226.64,531.663 C2221.42,531.663 2216.96,533.863 2213.28,538.263 C2209.76,542.443 2208.11,547.063 2208.11,552.728 C2208.11,564.608 2215.86,573.023 2226.7,573.023 C2235.5,573.023 2241.11,567.853 2242.37,558.613 L2239.79,558.173 C2238.3,566.368 2234.12,570.438 2227.36,570.438 C2219.22,570.438 2215.37,564.828 2215.37,552.948 C2215.37,546.678 2216.19,542.553 2218.06,539.253 C2219.77,536.173 2223.12,534.248 2226.7,534.248 C2230.55,534.248 2233.96,536.283 2236.05,539.803 C2237.09,541.618 2237.86,543.653 2239.18,547.998 L2241.6,547.998 L2240.78,532.103 "/>
</svg>
