<?xml version="1.0" encoding="UTF-8" standalone="no"?>
<svg width="2977.2px" height="4208.4px" viewBox="0 0 2977.2 4208.4"
 xmlns="http://www.w3.org/2000/svg" xmlns:xlink="http://www.w3.org/1999/xlink" version="1.2" baseProfile="tiny">
<title>幸せなら手をたたこう</title>
<desc>Generated by MuseScore Studio 4.4.2</desc>
<path class="" fill="#ffffff" fill-rule="evenodd" d="M0,0 L2977.2,0 L2977.2,4208.4 L0,4208.4 L0,0 "/>
<polyline class="StaffLines" fill="none" stroke="#000000" stroke-width="2.73" stroke-linejoin="bevel" points="212.598,634.198 2764.6,634.198"/>
<polyline class="StaffLines" fill="none" stroke="#000000" stroke-width="2.73" stroke-linejoin="bevel" points="212.598,658.998 2764.6,658.998"/>
<polyline class="StaffLines" fill="none" stroke="#000000" stroke-width="2.73" stroke-linejoin="bevel" points="212.598,683.798 2764.6,683.798"/>
<polyline class="StaffLines" fill="none" stroke="#000000" stroke-width="2.73" stroke-linejoin="bevel" points="212.598,708.598 2764.6,708.598"/>
<polyline class="StaffLines" fill="none" stroke="#000000" stroke-width="2.73" stroke-linejoin="bevel" points="212.598,733.398 2764.6,733.398"/>
<polyline class="StaffLines" fill="none" stroke="#000000" stroke-width="2.73" stroke-linejoin="bevel" points="212.598,1105.4 2764.6,1105.4"/>
<polyline class="StaffLines" fill="none" stroke="#000000" stroke-width="2.73" stroke-linejoin="bevel" points="212.598,1130.2 2764.6,1130.2"/>
<polyline class="StaffLines" fill="none" stroke="#000000" stroke-width="2.73" stroke-linejoin="bevel" points="212.598,1155 2764.6,1155"/>
<polyline class="StaffLines" fill="none" stroke="#000000" stroke-width="2.73" stroke-linejoin="bevel" points="212.598,1179.8 2764.6,1179.8"/>
<polyline class="StaffLines" fill="none" stroke="#000000" stroke-width="2.73" stroke-linejoin="bevel" points="212.598,1204.6 2764.6,1204.6"/>
<polyline class="StaffLines" fill="none" stroke="#000000" stroke-width="2.73" stroke-linejoin="bevel" points="212.598,1576.6 2764.6,1576.6"/>
<polyline class="StaffLines" fill="none" stroke="#000000" stroke-width="2.73" stroke-linejoin="bevel" points="212.598,1601.4 2764.6,1601.4"/>
<polyline class="StaffLines" fill="none" stroke="#000000" stroke-width="2.73" stroke-linejoin="bevel" points="212.598,1626.2 2764.6,1626.2"/>
<polyline class="StaffLines" fill="none" stroke="#000000" stroke-width="2.73" stroke-linejoin="bevel" points="212.598,1651 2764.6,1651"/>
<polyline class="StaffLines" fill="none" stroke="#000000" stroke-width="2.73" stroke-linejoin="bevel" points="212.598,1675.8 2764.6,1675.8"/>
<path class="Text" d="M997.463,224.362 L972.933,224.362 C968.093,224.362 964.793,224.142 961.713,223.702 L961.713,231.182 C964.793,230.742 968.313,230.522 972.933,230.522 L997.463,230.522 L997.463,242.732 L965.673,242.732 C960.833,242.732 957.423,242.512 954.343,242.072 L954.343,249.552 C957.423,249.112 961.273,248.892 965.673,248.892 L1038.38,248.892 C1043.44,248.892 1046.74,249.112 1049.71,249.552 L1049.71,242.072 C1046.63,242.512 1043.44,242.732 1038.38,242.732 L1004.61,242.732 L1004.61,230.522 L1030.68,230.522 C1035.3,230.522 1039.04,230.742 1041.9,231.182 L1041.9,223.702 C1038.82,224.142 1035.52,224.362 1030.68,224.362 L1004.61,224.362 L1004.61,222.382 C1004.61,218.092 1004.83,215.672 1005.27,212.592 L996.803,212.592 C997.243,215.782 997.463,218.422 997.463,222.272 L997.463,224.362 M965.893,267.592 C961.163,267.592 957.753,267.372 954.563,266.932 L954.563,274.412 C957.973,273.972 961.383,273.752 965.893,273.752 L997.463,273.752 L997.463,286.072 L971.173,286.072 C966.663,286.072 963.033,285.852 960.063,285.412 L960.063,292.892 C963.473,292.452 966.553,292.232 971.283,292.232 L997.463,292.232 L997.463,302.132 C997.463,306.202 997.243,309.392 996.693,313.352 L1005.38,313.352 C1004.83,309.832 1004.61,306.422 1004.61,302.132 L1004.61,292.232 L1032.33,292.232 C1036.95,292.232 1040.58,292.452 1043.55,292.892 L1043.55,285.412 C1040.58,285.852 1037.06,286.072 1032.44,286.072 L1004.61,286.072 L1004.61,273.752 L1038.16,273.752 C1043.11,273.752 1046.41,273.972 1049.49,274.412 L1049.49,266.932 C1046.41,267.372 1042.89,267.592 1038.16,267.592 L1018.91,267.592 C1022.32,262.422 1024.08,259.342 1027.6,251.972 L1020.89,249.992 C1017.81,257.582 1015.72,261.872 1011.87,267.592 L965.893,267.592 M975.133,251.862 C979.093,257.802 980.633,260.662 983.493,267.482 L989.433,264.622 C986.573,258.132 986.243,257.472 981.183,249.442 L975.133,251.862 "/>
<path class="Text" d="M1085.24,220.732 C1085.68,223.702 1085.79,226.892 1085.79,237.122 C1085.79,239.872 1085.79,240.862 1085.79,244.272 C1074.24,245.262 1067.42,245.702 1065.44,245.702 C1065,245.702 1064.12,245.702 1063.02,245.592 L1063.68,253.292 C1068.74,252.412 1074.9,251.752 1085.79,250.982 C1085.79,254.832 1085.79,264.072 1085.79,264.732 C1085.79,280.462 1086.12,286.842 1087.22,290.802 C1090.08,300.702 1098.44,304.442 1118.02,304.442 C1126.49,304.442 1135.62,303.672 1145.85,302.132 C1148.49,301.802 1148.71,301.692 1150.25,301.582 L1149.37,293.112 C1142.33,295.642 1130.78,297.182 1118.79,297.182 C1111.75,297.182 1105.04,296.522 1101.63,295.312 C1097.34,293.992 1095.25,291.902 1094.26,288.162 C1093.49,284.972 1093.16,277.382 1093.16,260.442 C1093.16,259.012 1093.16,257.032 1093.16,255.162 C1093.16,253.622 1093.16,252.522 1093.16,252.082 C1093.16,251.642 1093.16,251.202 1093.16,250.542 C1107.79,249.552 1115.71,249.112 1129.02,248.672 C1128.8,257.142 1128.58,260.772 1127.7,265.612 C1126.71,271.002 1125.39,272.762 1122.31,272.762 C1119.12,272.762 1113.95,270.672 1107.9,266.712 C1108.01,268.912 1108.12,270.012 1108.12,271.222 C1108.12,272.322 1108.01,272.872 1107.9,274.522 C1114.5,278.152 1118.9,279.582 1123.19,279.582 C1128.91,279.582 1132.54,276.392 1134.3,269.902 C1135.4,265.502 1136.17,257.802 1136.28,248.452 C1139.8,248.452 1142.22,248.342 1143.98,248.342 C1147.61,248.232 1150.47,248.232 1151.46,248.232 C1156.08,248.232 1156.74,248.232 1159.71,248.452 L1159.49,240.642 C1155.86,241.082 1147.28,241.412 1136.5,241.632 L1136.5,238.662 L1136.61,231.512 L1136.61,226.892 C1136.61,223.372 1136.72,220.622 1137.05,218.422 L1128.58,218.422 C1129.13,221.832 1129.24,225.132 1129.24,235.142 C1129.24,236.462 1129.24,237.672 1129.13,238.882 C1129.13,239.652 1129.13,240.202 1129.13,240.532 C1129.13,240.862 1129.13,241.302 1129.13,241.962 C1115.38,242.512 1110.98,242.732 1093.16,243.722 C1093.49,224.252 1093.49,224.252 1094.15,220.732 L1085.24,220.732 M1203.38,215.232 C1203.16,220.292 1201.4,229.642 1199.64,235.912 C1197.55,235.912 1193.92,236.022 1191.72,236.022 C1185.67,236.022 1182.37,235.802 1178.63,235.142 L1178.52,242.732 C1179.18,242.732 1179.73,242.732 1179.95,242.732 C1180.28,242.732 1181.16,242.732 1182.37,242.842 C1184.02,242.842 1187.76,242.952 1189.63,242.952 C1191.28,242.952 1195.02,242.842 1197.77,242.732 C1194.58,253.182 1191.39,261.102 1186.33,271.112 C1182.26,279.032 1179.29,283.872 1175.77,288.272 L1183.25,292.672 C1183.8,291.792 1184.46,290.472 1185.45,288.932 C1189.63,281.672 1190.62,279.802 1193.26,274.522 C1198.1,264.402 1202.06,254.172 1205.47,242.402 C1212.18,241.962 1219,241.082 1223.51,240.092 C1226.15,239.652 1226.15,239.652 1227.36,239.432 L1227.03,231.842 C1221.97,233.492 1215.04,234.812 1207.34,235.472 C1208.88,229.862 1209.54,227.222 1210.31,223.482 C1211.19,218.972 1211.3,218.532 1212.07,216.442 L1203.38,215.232 M1268.17,245.592 C1259.26,239.872 1251.89,236.132 1239.13,231.072 L1235.06,237.232 C1246.61,241.412 1254.97,245.812 1264.21,252.192 L1268.17,245.592 M1268.39,294.322 C1267.62,293.772 1267.62,293.772 1266.41,292.562 C1260.47,287.282 1253.65,283.102 1244.85,279.252 C1244.19,275.072 1243.64,267.482 1243.64,262.532 C1243.64,258.682 1243.97,256.372 1245.07,252.302 L1237.59,251.532 C1236.71,255.602 1236.49,258.242 1236.49,262.202 C1236.49,264.952 1236.71,270.122 1237.26,277.272 C1232.97,276.062 1230.22,275.622 1226.15,275.622 C1221.2,275.622 1217.02,276.392 1213.17,278.042 C1207.01,280.572 1202.94,286.072 1202.94,292.012 C1202.94,301.802 1211.19,307.962 1224.39,307.962 C1237.81,307.962 1245.29,301.692 1245.29,290.362 C1245.29,289.262 1245.29,288.602 1245.07,286.842 C1253.1,291.022 1260.03,296.522 1264.32,301.802 L1268.39,294.322 M1237.81,284.312 C1237.81,284.312 1238.03,287.722 1238.03,289.042 C1238.03,297.292 1233.74,301.032 1224.28,301.032 C1215.59,301.032 1210.31,297.622 1210.31,292.012 C1210.31,285.962 1216.25,282.112 1225.6,282.112 C1230,282.112 1233.19,282.662 1237.81,284.312 M1312.06,224.692 C1321.85,229.202 1321.85,229.202 1328.89,231.622 C1336.26,234.262 1336.26,234.262 1350.34,237.892 L1353.42,230.192 C1341.43,228.322 1324.71,222.822 1316.13,217.982 L1312.06,224.692 M1302.93,236.572 C1302.82,238.552 1302.71,239.432 1302.16,242.402 C1300.62,251.642 1298.64,264.402 1297.54,272.762 C1297.1,276.282 1296.99,277.272 1296.66,279.252 L1305.24,279.472 C1307.11,277.052 1307.88,276.282 1309.64,274.962 C1317.89,268.912 1329.22,265.392 1340.44,265.392 C1353.86,265.392 1361.78,270.672 1361.78,279.692 C1361.78,290.912 1350.23,298.172 1332.08,298.172 C1322.84,298.172 1312.39,296.082 1304.03,292.672 C1304.69,295.532 1304.8,296.962 1304.8,299.492 C1304.8,299.932 1304.8,300.592 1304.69,301.582 C1311.4,303.232 1311.4,303.232 1313.49,303.782 C1319.54,305.102 1326.14,305.762 1332.74,305.762 C1344.4,305.762 1353.09,303.452 1360.13,298.502 C1366.29,294.102 1370.03,286.952 1370.03,279.582 C1370.03,266.712 1358.48,258.352 1340.55,258.352 C1328.45,258.352 1316.35,261.982 1308.76,267.812 C1307.55,268.802 1306.78,269.572 1305.35,271.112 L1305.13,271.002 C1305.35,270.012 1305.46,269.792 1305.57,268.472 C1305.9,265.942 1306.12,265.172 1308.76,249.222 C1309.75,243.172 1310.3,240.532 1311.29,237.122 L1302.93,236.572 "/>
<path class="Text" d="M1439,245.702 L1411.28,245.702 C1406.11,245.702 1402.81,245.482 1399.62,245.042 L1399.62,252.742 C1402.92,252.302 1406.88,252.082 1411.28,252.082 L1439,252.082 L1439,269.352 L1405.12,269.352 C1399.95,269.352 1396.65,269.132 1393.57,268.692 L1393.57,276.502 C1396.87,276.062 1400.17,275.842 1405.12,275.842 L1439,275.842 L1439,300.042 C1439,302.462 1437.9,303.232 1434.38,303.232 C1429.65,303.232 1422.61,302.572 1415.68,301.362 C1416.89,304.552 1417.33,305.982 1417.66,308.952 C1423.49,309.612 1429.87,309.942 1434.16,309.942 C1443.51,309.942 1446.15,308.072 1446.15,301.252 L1446.15,275.842 L1477.61,275.842 C1482.56,275.842 1485.75,276.062 1489.16,276.502 L1489.16,268.692 C1485.97,269.132 1482.67,269.352 1477.61,269.352 L1446.15,269.352 L1446.15,252.082 L1472.77,252.082 C1477.61,252.082 1481.35,252.302 1484.43,252.742 L1484.43,245.042 C1481.24,245.482 1477.94,245.702 1472.77,245.702 L1446.15,245.702 L1446.15,227.222 C1459.13,225.352 1462.1,224.692 1479.7,219.742 L1473.65,213.252 C1468.26,216.002 1458.8,218.532 1445.6,220.732 C1430.86,223.042 1416.23,224.252 1400.06,224.252 C1401.71,227.112 1402.26,228.212 1402.92,231.072 C1416.89,230.632 1424.37,230.082 1439,228.212 L1439,245.702 "/>
<path class="Text" d="M1535.25,230.412 C1524.03,230.412 1515.67,229.972 1511.71,229.202 L1511.6,236.792 C1512.81,236.682 1513.03,236.682 1514.02,236.682 C1514.35,236.682 1515.23,236.682 1515.78,236.682 C1519.85,236.792 1530.19,237.012 1531.95,237.012 C1532.5,237.012 1533.6,236.902 1534.04,236.792 C1533.38,237.892 1533.38,237.892 1533.05,238.442 C1525.13,252.522 1516,264.072 1508.41,269.902 L1514.57,276.062 C1516.33,273.092 1518.75,270.562 1523.04,266.932 C1531.95,259.342 1540.64,255.272 1547.57,255.272 C1552.74,255.272 1555.38,257.912 1556.26,263.962 C1548.89,267.152 1543.61,270.012 1539.87,272.762 C1532.39,278.372 1528.65,284.092 1528.65,290.142 C1528.65,301.472 1538.22,307.082 1557.91,307.082 C1566.38,307.082 1575.95,306.312 1584.64,304.882 C1586.84,304.552 1587.39,304.442 1589.04,304.332 L1588.05,295.862 C1581.78,298.392 1569.57,300.152 1558.68,300.152 C1543.17,300.152 1536.35,296.962 1536.35,289.702 C1536.35,283.102 1542.07,277.932 1557.03,270.892 C1557.14,272.212 1557.14,272.432 1557.14,274.192 C1557.14,280.902 1556.81,287.612 1556.48,290.032 L1563.96,289.922 C1563.74,288.382 1563.74,287.502 1563.74,285.962 C1563.74,284.972 1563.74,283.432 1563.85,281.012 C1563.96,278.812 1563.96,276.392 1563.96,274.962 C1563.96,272.212 1563.96,271.112 1563.74,268.252 C1577.49,262.862 1587.39,259.562 1593.11,258.572 L1589.59,250.872 C1587.83,252.082 1587.5,252.192 1582.11,254.062 C1577.27,255.822 1571,258.132 1562.97,261.322 C1561.54,253.182 1556.59,249.112 1548.45,249.112 C1542.73,249.112 1536.9,250.982 1531.84,254.502 C1530.74,255.272 1530.74,255.272 1526.78,258.352 C1526.67,258.242 1526.67,258.242 1526.56,258.022 C1526.56,258.022 1526.56,258.022 1526.56,257.912 C1526.56,257.912 1526.67,257.912 1526.67,257.802 C1526.78,257.692 1527.33,257.252 1528.1,256.702 C1528.54,256.372 1530.74,253.842 1531.84,252.522 C1535.69,247.792 1538.44,243.392 1541.74,236.902 C1555.05,236.462 1566.6,235.582 1578.04,234.042 C1580.02,233.712 1580.68,233.602 1582.44,233.492 L1581.78,226.012 C1575.73,227.992 1564.73,229.312 1547.13,230.192 C1546.14,230.192 1546.14,230.192 1544.82,230.302 C1545.37,229.312 1546.8,226.342 1548.23,222.822 C1550.1,218.312 1550.1,218.312 1551.09,216.882 L1542.29,215.342 C1541.96,218.862 1540.64,222.712 1537.01,230.412 L1535.25,230.412 M1619.29,243.062 C1620.28,242.952 1620.94,242.952 1621.16,242.952 C1621.16,242.952 1621.38,242.952 1621.6,242.952 C1625.89,243.172 1626.88,243.172 1630.73,243.172 C1634.8,243.172 1636.12,243.172 1638.32,243.062 C1634.25,264.622 1625.78,289.702 1617.64,303.892 L1625.67,307.302 C1631.5,293.882 1634.69,285.522 1638.32,273.752 C1641.29,263.742 1644.37,251.312 1646.02,242.622 C1651.41,242.182 1659,241.192 1664.61,239.982 C1666.81,239.542 1666.81,239.542 1667.69,239.432 L1667.14,231.842 C1661.86,233.602 1655.92,234.702 1647.34,235.582 C1647.89,232.282 1648.22,230.742 1648.77,227.222 C1650.09,219.412 1650.09,219.412 1650.75,216.772 L1642.06,215.892 C1642.06,220.732 1641.84,222.602 1639.64,236.132 C1636.45,236.352 1635.24,236.352 1633.04,236.352 C1627.21,236.352 1622.81,236.022 1619.29,235.362 L1619.29,243.062 M1702.34,248.452 C1694.09,248.122 1692.44,248.122 1690.35,248.122 C1681.11,248.122 1673.96,249.002 1661.2,251.752 L1661.97,259.232 C1671.98,256.482 1679.68,255.492 1689.47,255.492 C1694.09,255.492 1697.17,255.712 1702.45,256.262 L1702.34,248.452 M1662.3,272.212 C1656.47,279.692 1654.93,283.102 1654.93,288.052 C1654.93,298.942 1664.28,304.552 1682.32,304.552 C1688.15,304.552 1694.53,304.002 1701.9,302.682 C1705.53,302.132 1705.53,302.132 1706.74,301.912 L1705.97,293.662 C1699.7,295.862 1689.91,297.402 1681.66,297.402 C1669.12,297.402 1662.41,293.882 1662.41,287.282 C1662.41,284.642 1663.4,281.782 1665.16,279.472 C1665.93,278.262 1666.26,277.932 1668.46,275.292 L1662.3,272.212 M1729.29,243.062 C1730.28,242.952 1730.94,242.952 1731.16,242.952 C1731.16,242.952 1731.38,242.952 1731.6,242.952 C1735.89,243.172 1736.88,243.172 1740.73,243.172 C1744.8,243.172 1746.12,243.172 1748.32,243.062 C1744.25,264.622 1735.78,289.702 1727.64,303.892 L1735.67,307.302 C1741.5,293.882 1744.69,285.522 1748.32,273.752 C1751.29,263.742 1754.37,251.312 1756.02,242.622 C1761.41,242.182 1769,241.192 1774.61,239.982 C1776.81,239.542 1776.81,239.542 1777.69,239.432 L1777.14,231.842 C1771.86,233.602 1765.92,234.702 1757.34,235.582 C1757.89,232.282 1758.22,230.742 1758.77,227.222 C1760.09,219.412 1760.09,219.412 1760.75,216.772 L1752.06,215.892 C1752.06,220.732 1751.84,222.602 1749.64,236.132 C1746.45,236.352 1745.24,236.352 1743.04,236.352 C1737.21,236.352 1732.81,236.022 1729.29,235.362 L1729.29,243.062 M1812.34,248.452 C1804.09,248.122 1802.44,248.122 1800.35,248.122 C1791.11,248.122 1783.96,249.002 1771.2,251.752 L1771.97,259.232 C1781.98,256.482 1789.68,255.492 1799.47,255.492 C1804.09,255.492 1807.17,255.712 1812.45,256.262 L1812.34,248.452 M1772.3,272.212 C1766.47,279.692 1764.93,283.102 1764.93,288.052 C1764.93,298.942 1774.28,304.552 1792.32,304.552 C1798.15,304.552 1804.53,304.002 1811.9,302.682 C1815.53,302.132 1815.53,302.132 1816.74,301.912 L1815.97,293.662 C1809.7,295.862 1799.91,297.402 1791.66,297.402 C1779.12,297.402 1772.41,293.882 1772.41,287.282 C1772.41,284.642 1773.4,281.782 1775.16,279.472 C1775.93,278.262 1776.26,277.932 1778.46,275.292 L1772.3,272.212 M1852.93,233.162 C1854.36,233.162 1854.58,233.272 1856.56,233.492 C1863.71,234.372 1873.06,234.922 1880.76,234.922 C1887.03,234.922 1890.77,234.592 1897.37,233.492 C1896.27,234.152 1896.05,234.152 1895.28,234.592 C1893.96,235.252 1893.74,235.362 1892.53,236.022 C1887.58,238.772 1884.94,240.422 1877.9,245.152 L1883.51,249.662 C1894.29,241.852 1904.41,235.802 1911.23,232.942 L1910.68,225.682 C1904.63,227.222 1895.72,227.992 1882.85,227.992 C1870.31,227.992 1861.62,227.222 1853.59,225.352 L1852.93,233.162 M1859.53,261.322 C1851.06,268.472 1846.88,275.402 1846.88,282.552 C1846.88,290.142 1851.17,295.752 1859.42,299.162 C1864.81,301.252 1874.16,302.572 1884.72,302.572 C1894.4,302.572 1904.85,301.692 1914.42,300.042 C1916.29,299.712 1916.73,299.602 1918.16,299.492 L1917.17,290.472 C1911.01,293.002 1897.92,294.652 1884.17,294.652 C1875.48,294.652 1868.22,293.882 1864.04,292.452 C1857.88,290.362 1854.69,286.732 1854.69,281.672 C1854.69,276.502 1857.99,271.442 1865.14,265.502 L1859.53,261.322 M1962.05,225.242 C1976.79,229.422 1990.32,231.512 2008.25,232.502 L2009.46,224.582 C1991.42,224.362 1975.47,221.832 1964.69,217.762 L1962.05,225.242 M1950.61,260.992 C1959.19,257.472 1981.19,253.622 1992.52,253.622 C1998.24,253.622 2003.3,254.502 2006.05,256.042 C2010.56,258.462 2013.09,262.862 2013.09,268.362 C2013.09,273.422 2011.22,278.372 2007.48,283.322 C2004.84,286.732 2002.42,288.712 1998.02,291.132 C1988.78,296.412 1978.77,299.272 1967.11,300.042 C1968.76,302.682 1969.2,303.672 1970.63,308.072 C1987.02,304.992 1994.17,302.682 2002.53,297.622 C2014.74,290.142 2021.45,279.692 2021.45,267.922 C2021.45,260.332 2018.26,254.282 2012.1,250.432 C2007.59,247.572 2001.43,246.252 1993.18,246.252 C1984.49,246.252 1974.26,247.462 1959.63,250.212 C1951.05,251.862 1951.05,251.862 1948.52,252.082 L1950.61,260.992 "/>
<path class="MeasureNumber" d="M217.481,1513.6 C218.161,1510.08 218.961,1507.88 220.481,1505.2 C222.281,1502.04 224.441,1500.44 226.841,1500.44 C228.081,1500.44 228.841,1500.92 228.841,1501.68 C228.841,1501.96 228.761,1502.12 228.481,1502.64 C228.121,1503.32 227.961,1503.8 227.961,1504.4 C227.961,1505.68 228.921,1506.56 230.281,1506.56 C231.921,1506.56 233.041,1505.36 233.041,1503.56 C233.041,1500.84 230.481,1498.84 226.921,1498.84 C218.001,1498.84 212.601,1510.48 212.601,1518.16 C212.601,1524.04 215.521,1527.6 220.401,1527.6 C226.401,1527.6 230.841,1522.64 230.841,1516.76 C230.841,1512.68 228.081,1509.84 224.081,1509.84 C221.281,1509.84 219.121,1511.04 217.481,1513.6 M222.801,1512.16 C225.281,1512.16 226.641,1513.88 226.641,1517 C226.641,1522.08 223.961,1525.96 220.401,1525.96 C217.841,1525.96 216.321,1524.08 216.321,1520.88 C216.321,1515.88 219.081,1512.16 222.801,1512.16"/>
<path class="MeasureNumber" d="M226.277,1041.24 C228.157,1040.64 228.917,1040.32 229.877,1039.68 C231.757,1038.44 232.917,1036.24 232.917,1034 C232.917,1030.2 229.877,1027.64 225.397,1027.64 C221.037,1027.64 217.357,1030.36 217.357,1033.64 C217.357,1035.28 218.357,1036.4 219.877,1036.4 C221.197,1036.4 222.157,1035.44 222.157,1034.12 C222.157,1033.44 221.957,1032.96 221.317,1032.32 C220.917,1031.96 220.757,1031.68 220.757,1031.4 C220.757,1030.44 222.757,1029.44 224.637,1029.44 C227.317,1029.44 228.917,1030.92 228.917,1033.4 C228.917,1036.96 226.397,1040.32 223.717,1040.32 C223.597,1040.32 223.237,1040.28 222.797,1040.24 C221.637,1040.16 221.637,1040.16 221.397,1040.16 C220.517,1040.16 220.037,1040.56 220.037,1041.28 C220.037,1041.92 220.477,1042.32 221.197,1042.32 C221.397,1042.32 221.677,1042.28 221.997,1042.24 C222.557,1042.12 223.157,1042.08 223.517,1042.08 C225.397,1042.08 226.677,1043.76 226.677,1046.24 C226.677,1050.56 224.557,1054.72 219.717,1054.72 C217.477,1054.72 215.557,1053.6 215.557,1052.32 C215.557,1051.88 215.717,1051.72 216.357,1051.44 C217.517,1050.92 217.997,1050.2 217.997,1049.12 C217.997,1047.72 216.877,1046.64 215.437,1046.64 C213.717,1046.64 212.597,1048 212.597,1050.08 C212.597,1053.96 215.557,1056.4 220.357,1056.4 C226.397,1056.4 230.997,1052.36 230.997,1047 C230.997,1043.88 229.077,1042.12 226.277,1041.24"/>
<polyline class="BarLine" fill="none" stroke="#000000" stroke-width="4.46" stroke-linejoin="bevel" points="2740.42,1575.23 2740.42,1677.16"/>
<polyline class="BarLine" fill="none" stroke="#000000" stroke-width="13.64" stroke-linejoin="bevel" points="2757.78,1575.23 2757.78,1677.16"/>
<polyline class="BarLine" fill="none" stroke="#000000" stroke-width="4.46" stroke-linejoin="bevel" points="1918.97,1104.03 1918.97,1205.96"/>
<polyline class="BarLine" fill="none" stroke="#000000" stroke-width="4.46" stroke-linejoin="bevel" points="2259.37,1575.23 2259.37,1677.16"/>
<polyline class="BarLine" fill="none" stroke="#000000" stroke-width="4.46" stroke-linejoin="bevel" points="1218.12,1104.03 1218.12,1205.96"/>
<polyline class="BarLine" fill="none" stroke="#000000" stroke-width="4.46" stroke-linejoin="bevel" points="2762.37,1104.03 2762.37,1205.96"/>
<polyline class="BarLine" fill="none" stroke="#000000" stroke-width="4.46" stroke-linejoin="bevel" points="718.477,632.834 718.477,734.762"/>
<polyline class="BarLine" fill="none" stroke="#000000" stroke-width="4.46" stroke-linejoin="bevel" points="2762.37,632.834 2762.37,734.762"/>
<polyline class="BarLine" fill="none" stroke="#000000" stroke-width="4.46" stroke-linejoin="bevel" points="1837.6,632.834 1837.6,734.762"/>
<polyline class="BarLine" fill="none" stroke="#000000" stroke-width="4.46" stroke-linejoin="bevel" points="1287.93,1575.23 1287.93,1677.16"/>
<polyline class="Stem" fill="none" stroke="#000000" stroke-width="2.73" stroke-linejoin="bevel" points="1864.64,1213.03 1864.64,1130.4"/>
<polyline class="Stem" fill="none" stroke="#000000" stroke-width="2.73" stroke-linejoin="bevel" points="760.446,1163.43 760.446,1087"/>
<polyline class="Stem" fill="none" stroke="#000000" stroke-width="2.73" stroke-linejoin="bevel" points="1586.94,1634.63 1586.94,1558"/>
<polyline class="Stem" fill="none" stroke="#000000" stroke-width="2.73" stroke-linejoin="bevel" points="1493.47,1634.63 1493.47,1558.2"/>
<polyline class="Stem" fill="none" stroke="#000000" stroke-width="2.73" stroke-linejoin="bevel" points="1743.64,1213.03 1743.64,1130.2"/>
<polyline class="Stem" fill="none" stroke="#000000" stroke-width="2.73" stroke-linejoin="bevel" points="1216.78,704.63 1216.78,621.997"/>
<polyline class="Stem" fill="none" stroke="#000000" stroke-width="2.73" stroke-linejoin="bevel" points="2324.7,1647.03 2324.7,1564.2"/>
<polyline class="Stem" fill="none" stroke="#000000" stroke-width="2.73" stroke-linejoin="bevel" points="1325.02,704.63 1325.02,621.798"/>
<polyline class="Stem" fill="none" stroke="#000000" stroke-width="2.73" stroke-linejoin="bevel" points="1353.26,1634.63 1353.26,1558"/>
<polyline class="Stem" fill="none" stroke="#000000" stroke-width="2.73" stroke-linejoin="bevel" points="476.501,741.83 476.501,658.998"/>
<polyline class="Stem" fill="none" stroke="#000000" stroke-width="2.73" stroke-linejoin="bevel" points="1954.8,1159.16 1954.8,1229.4"/>
<polyline class="Stem" fill="none" stroke="#000000" stroke-width="2.73" stroke-linejoin="bevel" points="1487.38,704.63 1487.38,621.997"/>
<polyline class="Stem" fill="none" stroke="#000000" stroke-width="2.73" stroke-linejoin="bevel" points="946.171,704.63 946.171,621.997"/>
<polyline class="Stem" fill="none" stroke="#000000" stroke-width="2.73" stroke-linejoin="bevel" points="1595.62,717.03 1595.62,634.198"/>
<polyline class="Stem" fill="none" stroke="#000000" stroke-width="2.73" stroke-linejoin="bevel" points="1223.08,1647.03 1223.08,1564.4"/>
<polyline class="Stem" fill="none" stroke="#000000" stroke-width="2.73" stroke-linejoin="bevel" points="1253.96,1159.16 1253.96,1229.4"/>
<polyline class="Stem" fill="none" stroke="#000000" stroke-width="2.73" stroke-linejoin="bevel" points="2194.52,1659.43 2194.52,1576.8"/>
<polyline class="Stem" fill="none" stroke="#000000" stroke-width="2.73" stroke-linejoin="bevel" points="1757.98,704.63 1757.98,621.997"/>
<polyline class="Stem" fill="none" stroke="#000000" stroke-width="2.73" stroke-linejoin="bevel" points="1082.87,1659.43 1082.87,1576.6"/>
<polyline class="Stem" fill="none" stroke="#000000" stroke-width="2.73" stroke-linejoin="bevel" points="1163.79,1163.43 1163.79,1087"/>
<polyline class="Stem" fill="none" stroke="#000000" stroke-width="2.73" stroke-linejoin="bevel" points="905.134,1647.03 905.134,1564.2"/>
<polyline class="Stem" fill="none" stroke="#000000" stroke-width="2.73" stroke-linejoin="bevel" points="1727.16,1647.03 1727.16,1564.4"/>
<polyline class="Stem" fill="none" stroke="#000000" stroke-width="2.73" stroke-linejoin="bevel" points="1902.93,692.23 1902.93,615.598"/>
<polyline class="Stem" fill="none" stroke="#000000" stroke-width="2.73" stroke-linejoin="bevel" points="811.66,1634.63 811.66,1558.2"/>
<polyline class="Stem" fill="none" stroke="#000000" stroke-width="2.73" stroke-linejoin="bevel" points="1820.63,1659.43 1820.63,1576.6"/>
<polyline class="Stem" fill="none" stroke="#000000" stroke-width="2.73" stroke-linejoin="bevel" points="641.954,1630.36 641.954,1700.6"/>
<polyline class="Stem" fill="none" stroke="#000000" stroke-width="2.73" stroke-linejoin="bevel" points="2520.39,741.83 2520.39,658.998"/>
<polyline class="Stem" fill="none" stroke="#000000" stroke-width="2.73" stroke-linejoin="bevel" points="548.48,1617.96 548.48,1694.3"/>
<polyline class="Stem" fill="none" stroke="#000000" stroke-width="2.73" stroke-linejoin="bevel" points="2075.81,1159.16 2075.81,1235.5"/>
<polyline class="Stem" fill="none" stroke="#000000" stroke-width="2.73" stroke-linejoin="bevel" points="2156.48,1159.16 2156.48,1229.4"/>
<polyline class="Stem" fill="none" stroke="#000000" stroke-width="2.73" stroke-linejoin="bevel" points="2682.76,741.83 2682.76,659.197"/>
<polyline class="Stem" fill="none" stroke="#000000" stroke-width="2.73" stroke-linejoin="bevel" points="408.27,1617.96 408.27,1694.4"/>
<polyline class="Stem" fill="none" stroke="#000000" stroke-width="2.73" stroke-linejoin="bevel" points="1042.79,1175.83 1042.79,1093"/>
<polyline class="Stem" fill="none" stroke="#000000" stroke-width="2.73" stroke-linejoin="bevel" points="783.809,704.63 783.809,621.798"/>
<polyline class="Stem" fill="none" stroke="#000000" stroke-width="2.73" stroke-linejoin="bevel" points="1960.84,1684.23 1960.84,1601.6"/>
<polyline class="Stem" fill="none" stroke="#000000" stroke-width="2.73" stroke-linejoin="bevel" points="638.864,741.83 638.864,659.197"/>
<polyline class="Stem" fill="none" stroke="#000000" stroke-width="2.73" stroke-linejoin="bevel" points="962.12,1163.43 962.12,1087"/>
<polyline class="Stem" fill="none" stroke="#000000" stroke-width="2.73" stroke-linejoin="bevel" points="437.767,1163.43 437.767,1086.8"/>
<polyline class="Stem" fill="none" stroke="#000000" stroke-width="2.73" stroke-linejoin="bevel" points="2054.31,1671.83 2054.31,1589"/>
<polyline class="Stem" fill="none" stroke="#000000" stroke-width="2.73" stroke-linejoin="bevel" points="2680.83,1159.16 2680.83,1235.5"/>
<polyline class="Stem" fill="none" stroke="#000000" stroke-width="2.73" stroke-linejoin="bevel" points="2277.48,1159.16 2277.48,1235.5"/>
<polyline class="Stem" fill="none" stroke="#000000" stroke-width="2.73" stroke-linejoin="bevel" points="558.771,1163.43 558.771,1087"/>
<polyline class="Stem" fill="none" stroke="#000000" stroke-width="2.73" stroke-linejoin="bevel" points="2358.15,1159.16 2358.15,1229.4"/>
<polyline class="Stem" fill="none" stroke="#000000" stroke-width="2.73" stroke-linejoin="bevel" points="639.441,1163.43 639.441,1086.8"/>
<polyline class="Stem" fill="none" stroke="#000000" stroke-width="2.73" stroke-linejoin="bevel" points="2589.32,1163.43 2589.32,1086.8"/>
<polyline class="Stem" fill="none" stroke="#000000" stroke-width="2.73" stroke-linejoin="bevel" points="2479.16,1159.16 2479.16,1235.5"/>
<polyline class="Stem" fill="none" stroke="#000000" stroke-width="2.73" stroke-linejoin="bevel" points="841.115,1163.43 841.115,1086.8"/>
<polyline class="Stem" fill="none" stroke="#000000" stroke-width="2.73" stroke-linejoin="bevel" points="1054.41,704.63 1054.41,621.798"/>
<path class="Hook" transform="matrix(0.992,0,0,0.992,2477.79,1235.6)" d="M0,-0.1 C0,0.6 0.6,1.2 1.3,1.2 C1.8,1.2 2.4,0.8 2.5,0.4 C2.5,0.3 3.4,-3.2 3.5,-3.5 C3.6,-3.9 4.5,-7.7 8.1,-13.6 C12,-20.1 18,-24.8 23,-31.8 C28,-38.8 30.9,-45.4 30.9,-54.2 C30.9,-63.3 28.9,-70.9 23.5,-80.6 C23.2,-81.3 22.6,-81.7 22,-81.7 C21.8,-81.7 21.6,-81.7 21.5,-81.6 C21,-81.4 20.8,-81 20.8,-80.4 C20.8,-80.1 20.9,-79.7 21.1,-79.2 C25.1,-69.9 26.7,-64.6 26.7,-57.4 C26.7,-49.1 23.8,-44.8 22,-41.7 C15.5,-30.6 5,-25.2 0.8,-23.8 C0.1,-23.6 0,-23 0,-22.7 L0,-0.1 "/>
<path class="Hook" transform="matrix(0.992,0,0,0.992,759.082,1086.8)" d="M0,22.7 C0,23 0.1,23.6 0.8,23.8 C5.1,25.2 13.7,30.6 20.2,41.7 C22,44.8 24.9,49.1 24.9,57.4 C24.9,64.6 23.1,72 20.4,79.2 C20.2,79.8 20.1,80.3 20.1,80.7 C20.1,81.4 20.5,81.7 21.2,81.7 C21.8,81.7 22.3,81.3 22.7,80.6 C27.2,72.6 28.9,63.3 28.9,54.2 C28.4,41.3 21,31.8 21,31.8 C21.3,31.8 11.8,19.5 9.1,15.3 C5.4,9.6 3.7,3.9 3.5,3.5 C3.4,3.2 2.5,-0.4 2.5,-0.4 C2.4,-0.8 1.9,-1.2 1.3,-1.2 C0.6,-1.2 0,-0.6 0,0.1 L0,22.7 "/>
<path class="Hook" transform="matrix(0.992,0,0,0.992,2679.47,1235.6)" d="M0,-0.1 C0,0.6 0.6,1.2 1.3,1.2 C1.8,1.2 2.4,0.8 2.5,0.4 C2.5,0.3 3.4,-3.2 3.5,-3.5 C3.6,-3.9 4.5,-7.7 8.1,-13.6 C12,-20.1 18,-24.8 23,-31.8 C28,-38.8 30.9,-45.4 30.9,-54.2 C30.9,-63.3 28.9,-70.9 23.5,-80.6 C23.2,-81.3 22.6,-81.7 22,-81.7 C21.8,-81.7 21.6,-81.7 21.5,-81.6 C21,-81.4 20.8,-81 20.8,-80.4 C20.8,-80.1 20.9,-79.7 21.1,-79.2 C25.1,-69.9 26.7,-64.6 26.7,-57.4 C26.7,-49.1 23.8,-44.8 22,-41.7 C15.5,-30.6 5,-25.2 0.8,-23.8 C0.1,-23.6 0,-23 0,-22.7 L0,-0.1 "/>
<path class="Hook" transform="matrix(0.992,0,0,0.992,557.407,1086.8)" d="M0,22.7 C0,23 0.1,23.6 0.8,23.8 C5.1,25.2 13.7,30.6 20.2,41.7 C22,44.8 24.9,49.1 24.9,57.4 C24.9,64.6 23.1,72 20.4,79.2 C20.2,79.8 20.1,80.3 20.1,80.7 C20.1,81.4 20.5,81.7 21.2,81.7 C21.8,81.7 22.3,81.3 22.7,80.6 C27.2,72.6 28.9,63.3 28.9,54.2 C28.4,41.3 21,31.8 21,31.8 C21.3,31.8 11.8,19.5 9.1,15.3 C5.4,9.6 3.7,3.9 3.5,3.5 C3.4,3.2 2.5,-0.4 2.5,-0.4 C2.4,-0.8 1.9,-1.2 1.3,-1.2 C0.6,-1.2 0,-0.6 0,0.1 L0,22.7 "/>
<path class="Hook" transform="matrix(0.992,0,0,0.992,960.756,1086.8)" d="M0,22.7 C0,23 0.1,23.6 0.8,23.8 C5.1,25.2 13.7,30.6 20.2,41.7 C22,44.8 24.9,49.1 24.9,57.4 C24.9,64.6 23.1,72 20.4,79.2 C20.2,79.8 20.1,80.3 20.1,80.7 C20.1,81.4 20.5,81.7 21.2,81.7 C21.8,81.7 22.3,81.3 22.7,80.6 C27.2,72.6 28.9,63.3 28.9,54.2 C28.4,41.3 21,31.8 21,31.8 C21.3,31.8 11.8,19.5 9.1,15.3 C5.4,9.6 3.7,3.9 3.5,3.5 C3.4,3.2 2.5,-0.4 2.5,-0.4 C2.4,-0.8 1.9,-1.2 1.3,-1.2 C0.6,-1.2 0,-0.6 0,0.1 L0,22.7 "/>
<path class="Hook" transform="matrix(0.992,0,0,0.992,637.5,658.998)" d="M0,22.7 C0,23 0.1,23.6 0.8,23.8 C5.1,25.2 13.7,30.6 20.2,41.7 C22,44.8 24.9,49.1 24.9,57.4 C24.9,64.6 23.1,72 20.4,79.2 C20.2,79.8 20.1,80.3 20.1,80.7 C20.1,81.4 20.5,81.7 21.2,81.7 C21.8,81.7 22.3,81.3 22.7,80.6 C27.2,72.6 28.9,63.3 28.9,54.2 C28.4,41.3 21,31.8 21,31.8 C21.3,31.8 11.8,19.5 9.1,15.3 C5.4,9.6 3.7,3.9 3.5,3.5 C3.4,3.2 2.5,-0.4 2.5,-0.4 C2.4,-0.8 1.9,-1.2 1.3,-1.2 C0.6,-1.2 0,-0.6 0,0.1 L0,22.7 "/>
<path class="Hook" transform="matrix(0.992,0,0,0.992,2276.12,1235.6)" d="M0,-0.1 C0,0.6 0.6,1.2 1.3,1.2 C1.8,1.2 2.4,0.8 2.5,0.4 C2.5,0.3 3.4,-3.2 3.5,-3.5 C3.6,-3.9 4.5,-7.7 8.1,-13.6 C12,-20.1 18,-24.8 23,-31.8 C28,-38.8 30.9,-45.4 30.9,-54.2 C30.9,-63.3 28.9,-70.9 23.5,-80.6 C23.2,-81.3 22.6,-81.7 22,-81.7 C21.8,-81.7 21.6,-81.7 21.5,-81.6 C21,-81.4 20.8,-81 20.8,-80.4 C20.8,-80.1 20.9,-79.7 21.1,-79.2 C25.1,-69.9 26.7,-64.6 26.7,-57.4 C26.7,-49.1 23.8,-44.8 22,-41.7 C15.5,-30.6 5,-25.2 0.8,-23.8 C0.1,-23.6 0,-23 0,-22.7 L0,-0.1 "/>
<path class="Hook" transform="matrix(0.992,0,0,0.992,1959.47,1601.4)" d="M0,22.7 C0,23 0.1,23.6 0.8,23.8 C5.1,25.2 13.7,30.6 20.2,41.7 C22,44.8 24.9,49.1 24.9,57.4 C24.9,64.6 23.1,72 20.4,79.2 C20.2,79.8 20.1,80.3 20.1,80.7 C20.1,81.4 20.5,81.7 21.2,81.7 C21.8,81.7 22.3,81.3 22.7,80.6 C27.2,72.6 28.9,63.3 28.9,54.2 C28.4,41.3 21,31.8 21,31.8 C21.3,31.8 11.8,19.5 9.1,15.3 C5.4,9.6 3.7,3.9 3.5,3.5 C3.4,3.2 2.5,-0.4 2.5,-0.4 C2.4,-0.8 1.9,-1.2 1.3,-1.2 C0.6,-1.2 0,-0.6 0,0.1 L0,22.7 "/>
<path class="Hook" transform="matrix(0.992,0,0,0.992,2681.39,658.998)" d="M0,22.7 C0,23 0.1,23.6 0.8,23.8 C5.1,25.2 13.7,30.6 20.2,41.7 C22,44.8 24.9,49.1 24.9,57.4 C24.9,64.6 23.1,72 20.4,79.2 C20.2,79.8 20.1,80.3 20.1,80.7 C20.1,81.4 20.5,81.7 21.2,81.7 C21.8,81.7 22.3,81.3 22.7,80.6 C27.2,72.6 28.9,63.3 28.9,54.2 C28.4,41.3 21,31.8 21,31.8 C21.3,31.8 11.8,19.5 9.1,15.3 C5.4,9.6 3.7,3.9 3.5,3.5 C3.4,3.2 2.5,-0.4 2.5,-0.4 C2.4,-0.8 1.9,-1.2 1.3,-1.2 C0.6,-1.2 0,-0.6 0,0.1 L0,22.7 "/>
<path class="Hook" transform="matrix(0.992,0,0,0.992,547.116,1694.4)" d="M0,-0.1 C0,0.6 0.6,1.2 1.3,1.2 C1.8,1.2 2.4,0.8 2.5,0.4 C2.5,0.3 3.4,-3.2 3.5,-3.5 C3.6,-3.9 4.5,-7.7 8.1,-13.6 C12,-20.1 18,-24.8 23,-31.8 C28,-38.8 30.9,-45.4 30.9,-54.2 C30.9,-63.3 28.9,-70.9 23.5,-80.6 C23.2,-81.3 22.6,-81.7 22,-81.7 C21.8,-81.7 21.6,-81.7 21.5,-81.6 C21,-81.4 20.8,-81 20.8,-80.4 C20.8,-80.1 20.9,-79.7 21.1,-79.2 C25.1,-69.9 26.7,-64.6 26.7,-57.4 C26.7,-49.1 23.8,-44.8 22,-41.7 C15.5,-30.6 5,-25.2 0.8,-23.8 C0.1,-23.6 0,-23 0,-22.7 L0,-0.1 "/>
<path class="Hook" transform="matrix(0.992,0,0,0.992,1162.43,1086.8)" d="M0,22.7 C0,23 0.1,23.6 0.8,23.8 C5.1,25.2 13.7,30.6 20.2,41.7 C22,44.8 24.9,49.1 24.9,57.4 C24.9,64.6 23.1,72 20.4,79.2 C20.2,79.8 20.1,80.3 20.1,80.7 C20.1,81.4 20.5,81.7 21.2,81.7 C21.8,81.7 22.3,81.3 22.7,80.6 C27.2,72.6 28.9,63.3 28.9,54.2 C28.4,41.3 21,31.8 21,31.8 C21.3,31.8 11.8,19.5 9.1,15.3 C5.4,9.6 3.7,3.9 3.5,3.5 C3.4,3.2 2.5,-0.4 2.5,-0.4 C2.4,-0.8 1.9,-1.2 1.3,-1.2 C0.6,-1.2 0,-0.6 0,0.1 L0,22.7 "/>
<path class="Hook" transform="matrix(0.992,0,0,0.992,944.807,621.798)" d="M0,22.7 C0,23 0.1,23.6 0.8,23.8 C5.1,25.2 13.7,30.6 20.2,41.7 C22,44.8 24.9,49.1 24.9,57.4 C24.9,64.6 23.1,72 20.4,79.2 C20.2,79.8 20.1,80.3 20.1,80.7 C20.1,81.4 20.5,81.7 21.2,81.7 C21.8,81.7 22.3,81.3 22.7,80.6 C27.2,72.6 28.9,63.3 28.9,54.2 C28.4,41.3 21,31.8 21,31.8 C21.3,31.8 11.8,19.5 9.1,15.3 C5.4,9.6 3.7,3.9 3.5,3.5 C3.4,3.2 2.5,-0.4 2.5,-0.4 C2.4,-0.8 1.9,-1.2 1.3,-1.2 C0.6,-1.2 0,-0.6 0,0.1 L0,22.7 "/>
<path class="Hook" transform="matrix(0.992,0,0,0.992,2074.45,1235.6)" d="M0,-0.1 C0,0.6 0.6,1.2 1.3,1.2 C1.8,1.2 2.4,0.8 2.5,0.4 C2.5,0.3 3.4,-3.2 3.5,-3.5 C3.6,-3.9 4.5,-7.7 8.1,-13.6 C12,-20.1 18,-24.8 23,-31.8 C28,-38.8 30.9,-45.4 30.9,-54.2 C30.9,-63.3 28.9,-70.9 23.5,-80.6 C23.2,-81.3 22.6,-81.7 22,-81.7 C21.8,-81.7 21.6,-81.7 21.5,-81.6 C21,-81.4 20.8,-81 20.8,-80.4 C20.8,-80.1 20.9,-79.7 21.1,-79.2 C25.1,-69.9 26.7,-64.6 26.7,-57.4 C26.7,-49.1 23.8,-44.8 22,-41.7 C15.5,-30.6 5,-25.2 0.8,-23.8 C0.1,-23.6 0,-23 0,-22.7 L0,-0.1 "/>
<path class="Hook" transform="matrix(0.992,0,0,0.992,2193.16,1576.6)" d="M0,22.7 C0,23 0.1,23.6 0.8,23.8 C5.1,25.2 13.7,30.6 20.2,41.7 C22,44.8 24.9,49.1 24.9,57.4 C24.9,64.6 23.1,72 20.4,79.2 C20.2,79.8 20.1,80.3 20.1,80.7 C20.1,81.4 20.5,81.7 21.2,81.7 C21.8,81.7 22.3,81.3 22.7,80.6 C27.2,72.6 28.9,63.3 28.9,54.2 C28.4,41.3 21,31.8 21,31.8 C21.3,31.8 11.8,19.5 9.1,15.3 C5.4,9.6 3.7,3.9 3.5,3.5 C3.4,3.2 2.5,-0.4 2.5,-0.4 C2.4,-0.8 1.9,-1.2 1.3,-1.2 C0.6,-1.2 0,-0.6 0,0.1 L0,22.7 "/>
<path class="Hook" transform="matrix(0.992,0,0,0.992,1756.62,621.798)" d="M0,22.7 C0,23 0.1,23.6 0.8,23.8 C5.1,25.2 13.7,30.6 20.2,41.7 C22,44.8 24.9,49.1 24.9,57.4 C24.9,64.6 23.1,72 20.4,79.2 C20.2,79.8 20.1,80.3 20.1,80.7 C20.1,81.4 20.5,81.7 21.2,81.7 C21.8,81.7 22.3,81.3 22.7,80.6 C27.2,72.6 28.9,63.3 28.9,54.2 C28.4,41.3 21,31.8 21,31.8 C21.3,31.8 11.8,19.5 9.1,15.3 C5.4,9.6 3.7,3.9 3.5,3.5 C3.4,3.2 2.5,-0.4 2.5,-0.4 C2.4,-0.8 1.9,-1.2 1.3,-1.2 C0.6,-1.2 0,-0.6 0,0.1 L0,22.7 "/>
<path class="Hook" transform="matrix(0.992,0,0,0.992,1221.72,1564.2)" d="M0,22.7 C0,23 0.1,23.6 0.8,23.8 C5.1,25.2 13.7,30.6 20.2,41.7 C22,44.8 24.9,49.1 24.9,57.4 C24.9,64.6 23.1,72 20.4,79.2 C20.2,79.8 20.1,80.3 20.1,80.7 C20.1,81.4 20.5,81.7 21.2,81.7 C21.8,81.7 22.3,81.3 22.7,80.6 C27.2,72.6 28.9,63.3 28.9,54.2 C28.4,41.3 21,31.8 21,31.8 C21.3,31.8 11.8,19.5 9.1,15.3 C5.4,9.6 3.7,3.9 3.5,3.5 C3.4,3.2 2.5,-0.4 2.5,-0.4 C2.4,-0.8 1.9,-1.2 1.3,-1.2 C0.6,-1.2 0,-0.6 0,0.1 L0,22.7 "/>
<path class="Hook" transform="matrix(0.992,0,0,0.992,1486.01,621.798)" d="M0,22.7 C0,23 0.1,23.6 0.8,23.8 C5.1,25.2 13.7,30.6 20.2,41.7 C22,44.8 24.9,49.1 24.9,57.4 C24.9,64.6 23.1,72 20.4,79.2 C20.2,79.8 20.1,80.3 20.1,80.7 C20.1,81.4 20.5,81.7 21.2,81.7 C21.8,81.7 22.3,81.3 22.7,80.6 C27.2,72.6 28.9,63.3 28.9,54.2 C28.4,41.3 21,31.8 21,31.8 C21.3,31.8 11.8,19.5 9.1,15.3 C5.4,9.6 3.7,3.9 3.5,3.5 C3.4,3.2 2.5,-0.4 2.5,-0.4 C2.4,-0.8 1.9,-1.2 1.3,-1.2 C0.6,-1.2 0,-0.6 0,0.1 L0,22.7 "/>
<path class="Hook" transform="matrix(0.992,0,0,0.992,1725.79,1564.2)" d="M0,22.7 C0,23 0.1,23.6 0.8,23.8 C5.1,25.2 13.7,30.6 20.2,41.7 C22,44.8 24.9,49.1 24.9,57.4 C24.9,64.6 23.1,72 20.4,79.2 C20.2,79.8 20.1,80.3 20.1,80.7 C20.1,81.4 20.5,81.7 21.2,81.7 C21.8,81.7 22.3,81.3 22.7,80.6 C27.2,72.6 28.9,63.3 28.9,54.2 C28.4,41.3 21,31.8 21,31.8 C21.3,31.8 11.8,19.5 9.1,15.3 C5.4,9.6 3.7,3.9 3.5,3.5 C3.4,3.2 2.5,-0.4 2.5,-0.4 C2.4,-0.8 1.9,-1.2 1.3,-1.2 C0.6,-1.2 0,-0.6 0,0.1 L0,22.7 "/>
<path class="Hook" transform="matrix(0.992,0,0,0.992,1492.11,1558)" d="M0,22.7 C0,23 0.1,23.6 0.8,23.8 C5.1,25.2 13.7,30.6 20.2,41.7 C22,44.8 24.9,49.1 24.9,57.4 C24.9,64.6 23.1,72 20.4,79.2 C20.2,79.8 20.1,80.3 20.1,80.7 C20.1,81.4 20.5,81.7 21.2,81.7 C21.8,81.7 22.3,81.3 22.7,80.6 C27.2,72.6 28.9,63.3 28.9,54.2 C28.4,41.3 21,31.8 21,31.8 C21.3,31.8 11.8,19.5 9.1,15.3 C5.4,9.6 3.7,3.9 3.5,3.5 C3.4,3.2 2.5,-0.4 2.5,-0.4 C2.4,-0.8 1.9,-1.2 1.3,-1.2 C0.6,-1.2 0,-0.6 0,0.1 L0,22.7 "/>
<path class="Hook" transform="matrix(0.992,0,0,0.992,1215.41,621.798)" d="M0,22.7 C0,23 0.1,23.6 0.8,23.8 C5.1,25.2 13.7,30.6 20.2,41.7 C22,44.8 24.9,49.1 24.9,57.4 C24.9,64.6 23.1,72 20.4,79.2 C20.2,79.8 20.1,80.3 20.1,80.7 C20.1,81.4 20.5,81.7 21.2,81.7 C21.8,81.7 22.3,81.3 22.7,80.6 C27.2,72.6 28.9,63.3 28.9,54.2 C28.4,41.3 21,31.8 21,31.8 C21.3,31.8 11.8,19.5 9.1,15.3 C5.4,9.6 3.7,3.9 3.5,3.5 C3.4,3.2 2.5,-0.4 2.5,-0.4 C2.4,-0.8 1.9,-1.2 1.3,-1.2 C0.6,-1.2 0,-0.6 0,0.1 L0,22.7 "/>
<path class="Hook" transform="matrix(0.992,0,0,0.992,1863.28,1130.2)" d="M0,22.7 C0,23 0.1,23.6 0.8,23.8 C5.1,25.2 13.7,30.6 20.2,41.7 C22,44.8 24.9,49.1 24.9,57.4 C24.9,64.6 23.1,72 20.4,79.2 C20.2,79.8 20.1,80.3 20.1,80.7 C20.1,81.4 20.5,81.7 21.2,81.7 C21.8,81.7 22.3,81.3 22.7,80.6 C27.2,72.6 28.9,63.3 28.9,54.2 C28.4,41.3 21,31.8 21,31.8 C21.3,31.8 11.8,19.5 9.1,15.3 C5.4,9.6 3.7,3.9 3.5,3.5 C3.4,3.2 2.5,-0.4 2.5,-0.4 C2.4,-0.8 1.9,-1.2 1.3,-1.2 C0.6,-1.2 0,-0.6 0,0.1 L0,22.7 "/>
<path class="Hook" transform="matrix(0.992,0,0,0.992,810.296,1558)" d="M0,22.7 C0,23 0.1,23.6 0.8,23.8 C5.1,25.2 13.7,30.6 20.2,41.7 C22,44.8 24.9,49.1 24.9,57.4 C24.9,64.6 23.1,72 20.4,79.2 C20.2,79.8 20.1,80.3 20.1,80.7 C20.1,81.4 20.5,81.7 21.2,81.7 C21.8,81.7 22.3,81.3 22.7,80.6 C27.2,72.6 28.9,63.3 28.9,54.2 C28.4,41.3 21,31.8 21,31.8 C21.3,31.8 11.8,19.5 9.1,15.3 C5.4,9.6 3.7,3.9 3.5,3.5 C3.4,3.2 2.5,-0.4 2.5,-0.4 C2.4,-0.8 1.9,-1.2 1.3,-1.2 C0.6,-1.2 0,-0.6 0,0.1 L0,22.7 "/>
<path class="Note" transform="matrix(0.992,0,0,0.992,1712.78,1217)" d="M0,4.2 C0,8.5 3.1,13.3 11.2,13.3 C21.6,13.3 32.5,4.8 32.5,-4 C32.5,-9.9 27.5,-13.2 21.3,-13.2 C11.6,-13.2 0,-5 0,4.2"/>
<path class="Note" transform="matrix(0.992,0,0,0.992,1696.29,1651)" d="M0,4.2 C0,8.5 3.1,13.3 11.2,13.3 C21.6,13.3 32.5,4.8 32.5,-4 C32.5,-9.9 27.5,-13.2 21.3,-13.2 C11.6,-13.2 0,-5 0,4.2"/>
<path class="Note" transform="matrix(0.992,0,0,0.992,1833.78,1217)" d="M0,4.2 C0,8.5 3.1,13.3 11.2,13.3 C21.6,13.3 32.5,4.8 32.5,-4 C32.5,-9.9 27.5,-13.2 21.3,-13.2 C11.6,-13.2 0,-5 0,4.2"/>
<path class="Note" transform="matrix(0.992,0,0,0.992,1462.61,1638.6)" d="M0,4.2 C0,8.5 3.1,13.3 11.2,13.3 C21.6,13.3 32.5,4.8 32.5,-4 C32.5,-9.9 27.5,-13.2 21.3,-13.2 C11.6,-13.2 0,-5 0,4.2"/>
<path class="Note" transform="matrix(0.992,0,0,0.992,1322.4,1638.6)" d="M0,4.2 C0,8.5 3.1,13.3 11.2,13.3 C21.6,13.3 32.5,4.8 32.5,-4 C32.5,-9.9 27.5,-13.2 21.3,-13.2 C11.6,-13.2 0,-5 0,4.2"/>
<path class="Note" transform="matrix(0.992,0,0,0.992,1294.16,708.598)" d="M0,4.2 C0,8.5 3.1,13.3 11.2,13.3 C21.6,13.3 32.5,4.8 32.5,-4 C32.5,-9.9 27.5,-13.2 21.3,-13.2 C11.6,-13.2 0,-5 0,4.2"/>
<path class="Note" transform="matrix(0.992,0,0,0.992,1252.59,1155)" d="M0,4.2 C0,8.5 3.1,13.3 11.2,13.3 C21.6,13.3 32.5,4.8 32.5,-4 C32.5,-9.9 27.5,-13.2 21.3,-13.2 C11.6,-13.2 0,-5 0,4.2"/>
<path class="Note" transform="matrix(0.992,0,0,0.992,1953.44,1155)" d="M0,4.2 C0,8.5 3.1,13.3 11.2,13.3 C21.6,13.3 32.5,4.8 32.5,-4 C32.5,-9.9 27.5,-13.2 21.3,-13.2 C11.6,-13.2 0,-5 0,4.2"/>
<path class="Note" transform="matrix(0.992,0,0,0.992,2293.84,1651)" d="M0,4.2 C0,8.5 3.1,13.3 11.2,13.3 C21.6,13.3 32.5,4.8 32.5,-4 C32.5,-9.9 27.5,-13.2 21.3,-13.2 C11.6,-13.2 0,-5 0,4.2"/>
<path class="Note" transform="matrix(0.992,0,0,0.992,1132.93,1167.4)" d="M0,4.2 C0,8.5 3.1,13.3 11.2,13.3 C21.6,13.3 32.5,4.8 32.5,-4 C32.5,-9.9 27.5,-13.2 21.3,-13.2 C11.6,-13.2 0,-5 0,4.2"/>
<path class="Note" transform="matrix(0.992,0,0,0.992,1023.55,708.598)" d="M0,4.2 C0,8.5 3.1,13.3 11.2,13.3 C21.6,13.3 32.5,4.8 32.5,-4 C32.5,-9.9 27.5,-13.2 21.3,-13.2 C11.6,-13.2 0,-5 0,4.2"/>
<path class="Note" transform="matrix(0.992,0,0,0.992,2074.45,1155)" d="M0,4.2 C0,8.5 3.1,13.3 11.2,13.3 C21.6,13.3 32.5,4.8 32.5,-4 C32.5,-9.9 27.5,-13.2 21.3,-13.2 C11.6,-13.2 0,-5 0,4.2"/>
<path class="Note" transform="matrix(0.992,0,0,0.992,1011.93,1179.8)" d="M0,4.2 C0,8.5 3.1,13.3 11.2,13.3 C21.6,13.3 32.5,4.8 32.5,-4 C32.5,-9.9 27.5,-13.2 21.3,-13.2 C11.6,-13.2 0,-5 0,4.2"/>
<path class="Note" transform="matrix(0.992,0,0,0.992,2155.11,1155)" d="M0,4.2 C0,8.5 3.1,13.3 11.2,13.3 C21.6,13.3 32.5,4.8 32.5,-4 C32.5,-9.9 27.5,-13.2 21.3,-13.2 C11.6,-13.2 0,-5 0,4.2"/>
<path class="Note" transform="matrix(0.992,0,0,0.992,1456.52,708.598)" d="M0,4.2 C0,8.5 3.1,13.3 11.2,13.3 C21.6,13.3 32.5,4.8 32.5,-4 C32.5,-9.9 27.5,-13.2 21.3,-13.2 C11.6,-13.2 0,-5 0,4.2"/>
<path class="Note" transform="matrix(0.992,0,0,0.992,931.26,1167.4)" d="M0,4.2 C0,8.5 3.1,13.3 11.2,13.3 C21.6,13.3 32.5,4.8 32.5,-4 C32.5,-9.9 27.5,-13.2 21.3,-13.2 C11.6,-13.2 0,-5 0,4.2"/>
<path class="Note" transform="matrix(0.992,0,0,0.992,1192.22,1651)" d="M0,4.2 C0,8.5 3.1,13.3 11.2,13.3 C21.6,13.3 32.5,4.8 32.5,-4 C32.5,-9.9 27.5,-13.2 21.3,-13.2 C11.6,-13.2 0,-5 0,4.2"/>
<path class="Note" transform="matrix(0.992,0,0,0.992,2276.12,1155)" d="M0,4.2 C0,8.5 3.1,13.3 11.2,13.3 C21.6,13.3 32.5,4.8 32.5,-4 C32.5,-9.9 27.5,-13.2 21.3,-13.2 C11.6,-13.2 0,-5 0,4.2"/>
<path class="Note" transform="matrix(0.992,0,0,0.992,810.255,1167.4)" d="M0,4.2 C0,8.5 3.1,13.3 11.2,13.3 C21.6,13.3 32.5,4.8 32.5,-4 C32.5,-9.9 27.5,-13.2 21.3,-13.2 C11.6,-13.2 0,-5 0,4.2"/>
<path class="Note" transform="matrix(0.992,0,0,0.992,2356.79,1155)" d="M0,4.2 C0,8.5 3.1,13.3 11.2,13.3 C21.6,13.3 32.5,4.8 32.5,-4 C32.5,-9.9 27.5,-13.2 21.3,-13.2 C11.6,-13.2 0,-5 0,4.2"/>
<path class="Note" transform="matrix(0.992,0,0,0.992,2163.66,1663.4)" d="M0,4.2 C0,8.5 3.1,13.3 11.2,13.3 C21.6,13.3 32.5,4.8 32.5,-4 C32.5,-9.9 27.5,-13.2 21.3,-13.2 C11.6,-13.2 0,-5 0,4.2"/>
<path class="Note" transform="matrix(0.992,0,0,0.992,729.585,1167.4)" d="M0,4.2 C0,8.5 3.1,13.3 11.2,13.3 C21.6,13.3 32.5,4.8 32.5,-4 C32.5,-9.9 27.5,-13.2 21.3,-13.2 C11.6,-13.2 0,-5 0,4.2"/>
<path class="Note" transform="matrix(0.992,0,0,0.992,445.641,745.798)" d="M0,4.2 C0,8.5 3.1,13.3 11.2,13.3 C21.6,13.3 32.5,4.8 32.5,-4 C32.5,-9.9 27.5,-13.2 21.3,-13.2 C11.6,-13.2 0,-5 0,4.2"/>
<path class="Note" transform="matrix(0.992,0,0,0.992,2477.79,1155)" d="M0,4.2 C0,8.5 3.1,13.3 11.2,13.3 C21.6,13.3 32.5,4.8 32.5,-4 C32.5,-9.9 27.5,-13.2 21.3,-13.2 C11.6,-13.2 0,-5 0,4.2"/>
<path class="Note" transform="matrix(0.992,0,0,0.992,608.581,1167.4)" d="M0,4.2 C0,8.5 3.1,13.3 11.2,13.3 C21.6,13.3 32.5,4.8 32.5,-4 C32.5,-9.9 27.5,-13.2 21.3,-13.2 C11.6,-13.2 0,-5 0,4.2"/>
<path class="Note" transform="matrix(0.992,0,0,0.992,2558.46,1167.4)" d="M0,4.2 C0,8.5 3.1,13.3 11.2,13.3 C21.6,13.3 32.5,4.8 32.5,-4 C32.5,-9.9 27.5,-13.2 21.3,-13.2 C11.6,-13.2 0,-5 0,4.2"/>
<path class="Note" transform="matrix(0.992,0,0,0.992,2023.45,1675.8)" d="M0,4.2 C0,8.5 3.1,13.3 11.2,13.3 C21.6,13.3 32.5,4.8 32.5,-4 C32.5,-9.9 27.5,-13.2 21.3,-13.2 C11.6,-13.2 0,-5 0,4.2"/>
<path class="Note" transform="matrix(0.992,0,0,0.992,527.911,1167.4)" d="M0,4.2 C0,8.5 3.1,13.3 11.2,13.3 C21.6,13.3 32.5,4.8 32.5,-4 C32.5,-9.9 27.5,-13.2 21.3,-13.2 C11.6,-13.2 0,-5 0,4.2"/>
<path class="Note" transform="matrix(0.992,0,0,0.992,1929.98,1688.2)" d="M0,4.2 C0,8.5 3.1,13.3 11.2,13.3 C21.6,13.3 32.5,4.8 32.5,-4 C32.5,-9.9 27.5,-13.2 21.3,-13.2 C11.6,-13.2 0,-5 0,4.2"/>
<path class="Note" transform="matrix(0.992,0,0,0.992,2679.47,1155)" d="M0,4.2 C0,8.5 3.1,13.3 11.2,13.3 C21.6,13.3 32.5,4.8 32.5,-4 C32.5,-9.9 27.5,-13.2 21.3,-13.2 C11.6,-13.2 0,-5 0,4.2"/>
<path class="Note" transform="matrix(0.992,0,0,0.992,406.906,1167.4)" d="M0,4.2 C0,8.5 3.1,13.3 11.2,13.3 C21.6,13.3 32.5,4.8 32.5,-4 C32.5,-9.9 27.5,-13.2 21.3,-13.2 C11.6,-13.2 0,-5 0,4.2"/>
<path class="Note" transform="matrix(0.992,0,0,0.992,1564.76,720.998)" d="M0,4.2 C0,8.5 3.1,13.3 11.2,13.3 C21.6,13.3 32.5,4.8 32.5,-4 C32.5,-9.9 27.5,-13.2 21.3,-13.2 C11.6,-13.2 0,-5 0,4.2"/>
<path class="Note" transform="matrix(0.992,0,0,0.992,1556.08,1638.6)" d="M0,4.2 C0,8.5 3.1,13.3 11.2,13.3 C21.6,13.3 32.5,4.8 32.5,-4 C32.5,-9.9 27.5,-13.2 21.3,-13.2 C11.6,-13.2 0,-5 0,4.2"/>
<path class="Note" transform="matrix(0.992,0,0,0.992,915.311,708.598)" d="M0,4.2 C0,8.5 3.1,13.3 11.2,13.3 C21.6,13.3 32.5,4.8 32.5,-4 C32.5,-9.9 27.5,-13.2 21.3,-13.2 C11.6,-13.2 0,-5 0,4.2"/>
<path class="Note" transform="matrix(0.992,0,0,0.992,1052.01,1663.4)" d="M0,4.2 C0,8.5 3.1,13.3 11.2,13.3 C21.6,13.3 32.5,4.8 32.5,-4 C32.5,-9.9 27.5,-13.2 21.3,-13.2 C11.6,-13.2 0,-5 0,4.2"/>
<path class="Note" transform="matrix(0.992,0,0,0.992,2651.9,745.798)" d="M0,4.2 C0,8.5 3.1,13.3 11.2,13.3 C21.6,13.3 32.5,4.8 32.5,-4 C32.5,-9.9 27.5,-13.2 21.3,-13.2 C11.6,-13.2 0,-5 0,4.2"/>
<path class="Note" transform="matrix(0.992,0,0,0.992,406.906,1613.8)" d="M0,4.2 C0,8.5 3.1,13.3 11.2,13.3 C21.6,13.3 32.5,4.8 32.5,-4 C32.5,-9.9 27.5,-13.2 21.3,-13.2 C11.6,-13.2 0,-5 0,4.2"/>
<path class="Note" transform="matrix(0.992,0,0,0.992,608.003,745.798)" d="M0,4.2 C0,8.5 3.1,13.3 11.2,13.3 C21.6,13.3 32.5,4.8 32.5,-4 C32.5,-9.9 27.5,-13.2 21.3,-13.2 C11.6,-13.2 0,-5 0,4.2"/>
<path class="Note" transform="matrix(0.992,0,0,0.992,752.949,708.598)" d="M0,4.2 C0,8.5 3.1,13.3 11.2,13.3 C21.6,13.3 32.5,4.8 32.5,-4 C32.5,-9.9 27.5,-13.2 21.3,-13.2 C11.6,-13.2 0,-5 0,4.2"/>
<path class="Note" transform="matrix(0.992,0,0,0.992,2489.53,745.798)" d="M0,4.2 C0,8.5 3.1,13.3 11.2,13.3 C21.6,13.3 32.5,4.8 32.5,-4 C32.5,-9.9 27.5,-13.2 21.3,-13.2 C11.6,-13.2 0,-5 0,4.2"/>
<path class="Note" transform="matrix(0.992,0,0,0.992,547.116,1613.8)" d="M0,4.2 C0,8.5 3.1,13.3 11.2,13.3 C21.6,13.3 32.5,4.8 32.5,-4 C32.5,-9.9 27.5,-13.2 21.3,-13.2 C11.6,-13.2 0,-5 0,4.2"/>
<path class="Note" transform="matrix(0.992,0,0,0.992,1727.12,708.598)" d="M0,4.2 C0,8.5 3.1,13.3 11.2,13.3 C21.6,13.3 32.5,4.8 32.5,-4 C32.5,-9.9 27.5,-13.2 21.3,-13.2 C11.6,-13.2 0,-5 0,4.2"/>
<path class="Note" transform="matrix(0.992,0,0,0.992,640.59,1626.2)" d="M0,4.2 C0,8.5 3.1,13.3 11.2,13.3 C21.6,13.3 32.5,4.8 32.5,-4 C32.5,-9.9 27.5,-13.2 21.3,-13.2 C11.6,-13.2 0,-5 0,4.2"/>
<path class="Note" transform="matrix(0.992,0,0,0.992,1789.77,1663.4)" d="M0,4.2 C0,8.5 3.1,13.3 11.2,13.3 C21.6,13.3 32.5,4.8 32.5,-4 C32.5,-9.9 27.5,-13.2 21.3,-13.2 C11.6,-13.2 0,-5 0,4.2"/>
<path class="Note" transform="matrix(0.992,0,0,0.992,874.273,1651)" d="M0,4.2 C0,8.5 3.1,13.3 11.2,13.3 C21.6,13.3 32.5,4.8 32.5,-4 C32.5,-9.9 27.5,-13.2 21.3,-13.2 C11.6,-13.2 0,-5 0,4.2"/>
<path class="Note" transform="matrix(0.992,0,0,0.992,1872.07,696.198)" d="M0,4.2 C0,8.5 3.1,13.3 11.2,13.3 C21.6,13.3 32.5,4.8 32.5,-4 C32.5,-9.9 27.5,-13.2 21.3,-13.2 C11.6,-13.2 0,-5 0,4.2"/>
<path class="Note" transform="matrix(0.992,0,0,0.992,780.8,1638.6)" d="M0,4.2 C0,8.5 3.1,13.3 11.2,13.3 C21.6,13.3 32.5,4.8 32.5,-4 C32.5,-9.9 27.5,-13.2 21.3,-13.2 C11.6,-13.2 0,-5 0,4.2"/>
<path class="Note" transform="matrix(0.992,0,0,0.992,1185.91,708.598)" d="M0,4.2 C0,8.5 3.1,13.3 11.2,13.3 C21.6,13.3 32.5,4.8 32.5,-4 C32.5,-9.9 27.5,-13.2 21.3,-13.2 C11.6,-13.2 0,-5 0,4.2"/>
<path class="Clef" transform="matrix(0.992,0,0,0.992,232.438,1651)" d="M12.3,51.3 C12.3,57.9 17.3,66.6 30.8,66.6 C35.5,66.6 39.6,65.4 43.2,63.2 C48.6,59.4 50,52.8 50,46.5 C50,42.6 49.4,38.1 48.4,32.4 C48.1,30.4 47.5,27.4 46.9,23.5 C56.7,20.3 64,10.1 64,-0.2 C64,-15.3 53.3,-25.5 38.7,-25.5 C37.7,-31.5 36.7,-37.4 35.9,-43 C46.4,-54.1 53.7,-66.6 53.7,-82.5 C53.7,-91.6 50.9,-99 49.3,-102.6 C46.9,-107.7 44,-111.2 42.2,-111.2 C41.5,-111.2 38.4,-110 35.1,-106.1 C28.7,-98.5 26.9,-85.7 26.9,-77.3 C26.9,-71.9 27.4,-67 29.1,-55.8 C29,-55.7 23.8,-50.4 21.7,-48.7 C12.6,-40.3 0,-28.1 0,-8.1 C0,10.6 16.3,25.3 34.9,25.3 C37.8,25.3 40.5,25 42.8,24.6 C44.7,34.2 45.9,41.2 45.9,46.5 C45.9,56.9 40.5,62.4 30.4,62.4 C28,62.4 25.9,61.9 25.7,61.9 C25.6,61.8 25.4,61.7 25.4,61.6 C25.4,61.4 25.6,61.3 25.9,61.3 C30.6,60.5 35.3,56.5 35.3,50.1 C35.3,44.7 31.2,39 23.7,39 C16.7,39 12.3,44.7 12.3,51.3 M33.2,-82.2 C34.1,-86.2 38.7,-96.7 43.9,-96.7 C45.4,-96.7 47.8,-91.9 47.8,-84.9 C47.8,-74.5 40.1,-66.7 33.2,-59.9 C32.6,-63.9 32.1,-67.8 32.1,-72 C32.1,-75.7 32.4,-79.1 33.2,-82.2 M42,20.6 C40,21 38.1,21.2 36.2,21.2 C21.9,21.2 9.7,11.2 9.7,-3.9 C9.7,-16.1 18.3,-27 27.1,-34.6 C28.8,-36.1 30.4,-37.5 31.9,-39 C32.8,-33.6 33.5,-28.9 34.2,-24.8 C25.1,-22.1 18.9,-12.5 18.9,-3.1 C18.9,3.9 24.4,13.5 32.4,13.5 C33.2,13.5 34.1,13.1 34.1,12.2 C34.1,11.3 33.1,10.8 31.9,10 C28,7.6 25.8,5 25.8,0.1 C25.8,-6 30.4,-10.9 36.2,-12.3 L42,20.6 M56.2,2.1 C56.2,9.2 53.3,16.5 46.2,19.4 C44.1,7.4 41.4,-8.5 40.7,-12.9 C49.7,-12.9 56.2,-6.8 56.2,2.1"/>
<path class="Clef" transform="matrix(0.992,0,0,0.992,232.438,1179.8)" d="M12.3,51.3 C12.3,57.9 17.3,66.6 30.8,66.6 C35.5,66.6 39.6,65.4 43.2,63.2 C48.6,59.4 50,52.8 50,46.5 C50,42.6 49.4,38.1 48.4,32.4 C48.1,30.4 47.5,27.4 46.9,23.5 C56.7,20.3 64,10.1 64,-0.2 C64,-15.3 53.3,-25.5 38.7,-25.5 C37.7,-31.5 36.7,-37.4 35.9,-43 C46.4,-54.1 53.7,-66.6 53.7,-82.5 C53.7,-91.6 50.9,-99 49.3,-102.6 C46.9,-107.7 44,-111.2 42.2,-111.2 C41.5,-111.2 38.4,-110 35.1,-106.1 C28.7,-98.5 26.9,-85.7 26.9,-77.3 C26.9,-71.9 27.4,-67 29.1,-55.8 C29,-55.7 23.8,-50.4 21.7,-48.7 C12.6,-40.3 0,-28.1 0,-8.1 C0,10.6 16.3,25.3 34.9,25.3 C37.8,25.3 40.5,25 42.8,24.6 C44.7,34.2 45.9,41.2 45.9,46.5 C45.9,56.9 40.5,62.4 30.4,62.4 C28,62.4 25.9,61.9 25.7,61.9 C25.6,61.8 25.4,61.7 25.4,61.6 C25.4,61.4 25.6,61.3 25.9,61.3 C30.6,60.5 35.3,56.5 35.3,50.1 C35.3,44.7 31.2,39 23.7,39 C16.7,39 12.3,44.7 12.3,51.3 M33.2,-82.2 C34.1,-86.2 38.7,-96.7 43.9,-96.7 C45.4,-96.7 47.8,-91.9 47.8,-84.9 C47.8,-74.5 40.1,-66.7 33.2,-59.9 C32.6,-63.9 32.1,-67.8 32.1,-72 C32.1,-75.7 32.4,-79.1 33.2,-82.2 M42,20.6 C40,21 38.1,21.2 36.2,21.2 C21.9,21.2 9.7,11.2 9.7,-3.9 C9.7,-16.1 18.3,-27 27.1,-34.6 C28.8,-36.1 30.4,-37.5 31.9,-39 C32.8,-33.6 33.5,-28.9 34.2,-24.8 C25.1,-22.1 18.9,-12.5 18.9,-3.1 C18.9,3.9 24.4,13.5 32.4,13.5 C33.2,13.5 34.1,13.1 34.1,12.2 C34.1,11.3 33.1,10.8 31.9,10 C28,7.6 25.8,5 25.8,0.1 C25.8,-6 30.4,-10.9 36.2,-12.3 L42,20.6 M56.2,2.1 C56.2,9.2 53.3,16.5 46.2,19.4 C44.1,7.4 41.4,-8.5 40.7,-12.9 C49.7,-12.9 56.2,-6.8 56.2,2.1"/>
<path class="Clef" transform="matrix(0.992,0,0,0.992,232.438,708.598)" d="M12.3,51.3 C12.3,57.9 17.3,66.6 30.8,66.6 C35.5,66.6 39.6,65.4 43.2,63.2 C48.6,59.4 50,52.8 50,46.5 C50,42.6 49.4,38.1 48.4,32.4 C48.1,30.4 47.5,27.4 46.9,23.5 C56.7,20.3 64,10.1 64,-0.2 C64,-15.3 53.3,-25.5 38.7,-25.5 C37.7,-31.5 36.7,-37.4 35.9,-43 C46.4,-54.1 53.7,-66.6 53.7,-82.5 C53.7,-91.6 50.9,-99 49.3,-102.6 C46.9,-107.7 44,-111.2 42.2,-111.2 C41.5,-111.2 38.4,-110 35.1,-106.1 C28.7,-98.5 26.9,-85.7 26.9,-77.3 C26.9,-71.9 27.4,-67 29.1,-55.8 C29,-55.7 23.8,-50.4 21.7,-48.7 C12.6,-40.3 0,-28.1 0,-8.1 C0,10.6 16.3,25.3 34.9,25.3 C37.8,25.3 40.5,25 42.8,24.6 C44.7,34.2 45.9,41.2 45.9,46.5 C45.9,56.9 40.5,62.4 30.4,62.4 C28,62.4 25.9,61.9 25.7,61.9 C25.6,61.8 25.4,61.7 25.4,61.6 C25.4,61.4 25.6,61.3 25.9,61.3 C30.6,60.5 35.3,56.5 35.3,50.1 C35.3,44.7 31.2,39 23.7,39 C16.7,39 12.3,44.7 12.3,51.3 M33.2,-82.2 C34.1,-86.2 38.7,-96.7 43.9,-96.7 C45.4,-96.7 47.8,-91.9 47.8,-84.9 C47.8,-74.5 40.1,-66.7 33.2,-59.9 C32.6,-63.9 32.1,-67.8 32.1,-72 C32.1,-75.7 32.4,-79.1 33.2,-82.2 M42,20.6 C40,21 38.1,21.2 36.2,21.2 C21.9,21.2 9.7,11.2 9.7,-3.9 C9.7,-16.1 18.3,-27 27.1,-34.6 C28.8,-36.1 30.4,-37.5 31.9,-39 C32.8,-33.6 33.5,-28.9 34.2,-24.8 C25.1,-22.1 18.9,-12.5 18.9,-3.1 C18.9,3.9 24.4,13.5 32.4,13.5 C33.2,13.5 34.1,13.1 34.1,12.2 C34.1,11.3 33.1,10.8 31.9,10 C28,7.6 25.8,5 25.8,0.1 C25.8,-6 30.4,-10.9 36.2,-12.3 L42,20.6 M56.2,2.1 C56.2,9.2 53.3,16.5 46.2,19.4 C44.1,7.4 41.4,-8.5 40.7,-12.9 C49.7,-12.9 56.2,-6.8 56.2,2.1"/>
<path class="KeySig" transform="matrix(0.992,0,0,0.992,320.711,1576.6)" d="M23.3,-10.5 C23.9,-10.6 24.4,-11.3 24.4,-11.9 L24.4,-17.8 C24.4,-18.8 23.7,-19.2 22.8,-19.2 L19.5,-18.5 L19.5,-33.4 L16.7,-33.4 L16.7,-17.9 L7.8,-16.1 L7.8,-30.2 L5,-30.2 L5,-15.5 L1.1,-14.7 C0.5,-14.6 0,-13.9 0,-13.3 L0,-7.5 C0,-6.4 0.8,-6.1 1.7,-6.1 L5,-6.8 L5,9.7 L1.1,10.5 C0.5,10.6 0,11.3 0,11.9 L0,17.7 C0,18.8 0.8,19.1 1.7,19.1 L5,18.4 L5,33.3 L7.8,33.3 L7.8,17.8 L16.7,16 L16.7,30.1 L19.5,30.1 L19.5,15.4 L23.3,14.7 C23.9,14.6 24.4,13.9 24.4,13.3 L24.4,7.4 C24.4,6.4 23.7,6 22.8,6 L19.5,6.7 L19.5,-9.8 L23.3,-10.5 M7.8,-7.4 L16.7,-9.2 L16.7,7.3 L7.8,9.2 L7.8,-7.4 "/>
<path class="KeySig" transform="matrix(0.992,0,0,0.992,320.711,1105.4)" d="M23.3,-10.5 C23.9,-10.6 24.4,-11.3 24.4,-11.9 L24.4,-17.8 C24.4,-18.8 23.7,-19.2 22.8,-19.2 L19.5,-18.5 L19.5,-33.4 L16.7,-33.4 L16.7,-17.9 L7.8,-16.1 L7.8,-30.2 L5,-30.2 L5,-15.5 L1.1,-14.7 C0.5,-14.6 0,-13.9 0,-13.3 L0,-7.5 C0,-6.4 0.8,-6.1 1.7,-6.1 L5,-6.8 L5,9.7 L1.1,10.5 C0.5,10.6 0,11.3 0,11.9 L0,17.7 C0,18.8 0.8,19.1 1.7,19.1 L5,18.4 L5,33.3 L7.8,33.3 L7.8,17.8 L16.7,16 L16.7,30.1 L19.5,30.1 L19.5,15.4 L23.3,14.7 C23.9,14.6 24.4,13.9 24.4,13.3 L24.4,7.4 C24.4,6.4 23.7,6 22.8,6 L19.5,6.7 L19.5,-9.8 L23.3,-10.5 M7.8,-7.4 L16.7,-9.2 L16.7,7.3 L7.8,9.2 L7.8,-7.4 "/>
<path class="KeySig" transform="matrix(0.992,0,0,0.992,320.711,634.198)" d="M23.3,-10.5 C23.9,-10.6 24.4,-11.3 24.4,-11.9 L24.4,-17.8 C24.4,-18.8 23.7,-19.2 22.8,-19.2 L19.5,-18.5 L19.5,-33.4 L16.7,-33.4 L16.7,-17.9 L7.8,-16.1 L7.8,-30.2 L5,-30.2 L5,-15.5 L1.1,-14.7 C0.5,-14.6 0,-13.9 0,-13.3 L0,-7.5 C0,-6.4 0.8,-6.1 1.7,-6.1 L5,-6.8 L5,9.7 L1.1,10.5 C0.5,10.6 0,11.3 0,11.9 L0,17.7 C0,18.8 0.8,19.1 1.7,19.1 L5,18.4 L5,33.3 L7.8,33.3 L7.8,17.8 L16.7,16 L16.7,30.1 L19.5,30.1 L19.5,15.4 L23.3,14.7 C23.9,14.6 24.4,13.9 24.4,13.3 L24.4,7.4 C24.4,6.4 23.7,6 22.8,6 L19.5,6.7 L19.5,-9.8 L23.3,-10.5 M7.8,-7.4 L16.7,-9.2 L16.7,7.3 L7.8,9.2 L7.8,-7.4 "/>
<path class="TimeSig" transform="matrix(0.992,0,0,0.992,368.327,658.998)" d="M20.8,12.7 L20.8,20.1 L12.5,20.1 C11.8,20.1 11.1,20.7 11.1,21.5 L11.1,23.4 C11.1,24.2 11.8,24.8 12.5,24.8 L42.8,24.8 C43.6,24.8 44.2,24.2 44.2,23.4 L44.2,21.5 C44.2,20.7 43.6,20.1 42.8,20.1 L33.9,20.1 L33.9,12.7 L42.8,12.7 C43.6,12.7 44.2,12 44.2,11.2 L44.2,9.3 C44.2,8.6 43.6,7.9 42.8,7.9 L33.9,7.9 L33.9,-8 C33.9,-8.6 33.6,-9.1 33.1,-9.3 L31.9,-9.9 C31.7,-10 31.4,-10.1 31.2,-10.1 C30.9,-10 30.5,-9.9 30.3,-9.7 L21.2,-1.4 C20.9,-1.1 20.8,-0.7 20.8,-0.3 L20.8,7.9 L9.3,7.9 C9.3,7.9 20.4,-4.1 32.2,-19.9 C32.6,-20.4 32.7,-20.9 32.7,-21.3 C32.7,-21.8 32.5,-22.2 32.4,-22.3 L30.2,-24.5 C30,-24.7 29.6,-24.9 29.2,-24.9 C28.6,-24.9 15.1,-24.9 14.4,-24.9 C13.6,-24.9 13.1,-24.3 13,-23.7 C13,-23.7 12.5,-16.3 9.9,-8.2 C7.3,-0.1 4.3,4.9 1.7,8.6 C1.7,8.6 1.4,9.1 1.4,9.7 C1.4,9.9 1.4,10.1 1.5,10.3 C1.9,11 2.5,12.1 2.5,12.1 C2.5,12.1 2.7,12.7 3.6,12.7 L20.8,12.7 "/>
<path class="TimeSig" transform="matrix(0.992,0,0,0.992,368.327,708.598)" d="M20.8,12.7 L20.8,20.1 L12.5,20.1 C11.8,20.1 11.1,20.7 11.1,21.5 L11.1,23.4 C11.1,24.2 11.8,24.8 12.5,24.8 L42.8,24.8 C43.6,24.8 44.2,24.2 44.2,23.4 L44.2,21.5 C44.2,20.7 43.6,20.1 42.8,20.1 L33.9,20.1 L33.9,12.7 L42.8,12.7 C43.6,12.7 44.2,12 44.2,11.2 L44.2,9.3 C44.2,8.6 43.6,7.9 42.8,7.9 L33.9,7.9 L33.9,-8 C33.9,-8.6 33.6,-9.1 33.1,-9.3 L31.9,-9.9 C31.7,-10 31.4,-10.1 31.2,-10.1 C30.9,-10 30.5,-9.9 30.3,-9.7 L21.2,-1.4 C20.9,-1.1 20.8,-0.7 20.8,-0.3 L20.8,7.9 L9.3,7.9 C9.3,7.9 20.4,-4.1 32.2,-19.9 C32.6,-20.4 32.7,-20.9 32.7,-21.3 C32.7,-21.8 32.5,-22.2 32.4,-22.3 L30.2,-24.5 C30,-24.7 29.6,-24.9 29.2,-24.9 C28.6,-24.9 15.1,-24.9 14.4,-24.9 C13.6,-24.9 13.1,-24.3 13,-23.7 C13,-23.7 12.5,-16.3 9.9,-8.2 C7.3,-0.1 4.3,4.9 1.7,8.6 C1.7,8.6 1.4,9.1 1.4,9.7 C1.4,9.9 1.4,10.1 1.5,10.3 C1.9,11 2.5,12.1 2.5,12.1 C2.5,12.1 2.7,12.7 3.6,12.7 L20.8,12.7 "/>
<path class="Rest" transform="matrix(0.992,0,0,0.992,2077.89,683.798)" d="M23,16.6 C22.9,16.5 22.7,16.3 22.4,15.9 L10.9,1.7 C10.8,1.6 10.7,1.3 10.7,1.1 C10.7,0.8 10.8,0.4 10.9,0.2 L21.1,-15.2 C21.2,-15.4 21.3,-15.7 21.3,-15.9 L21.3,-16.8 C21.3,-17.1 21.2,-17.4 21,-17.6 L4.8,-39.5 C4.8,-39.5 4.4,-40.1 3.8,-40.1 C3.5,-40.1 3.3,-40.1 3,-39.8 C2.6,-39.5 2.5,-39.1 2.5,-38.8 C2.5,-38.2 2.8,-37.7 2.8,-37.7 L10.4,-27.3 C10.6,-27 10.7,-26.6 10.7,-26.1 C10.7,-25.7 10.6,-25.2 10.4,-24.9 L0.3,-9.5 C0.2,-9.3 0.1,-8.9 0.1,-8.7 L0.1,-7.8 C0.1,-7.5 0.2,-7.2 0.4,-7 L11.6,6.9 C11.2,6.8 10.3,6.6 9.1,6.6 C4,6.6 0,10.8 0,15.9 C0,17.3 0.3,18.7 1.1,19.8 C3.2,23 10.7,32.5 10.7,32.5 C10.7,32.5 11.2,33.1 11.9,33.1 C12.1,33.1 12.3,33.1 12.5,32.9 C13,32.5 13.2,32.1 13.2,31.7 C13.2,31.3 13,31 12.9,30.8 C12.6,30.3 9.4,24.5 9.4,24.5 C9.4,24.5 8.7,23.1 8.7,21.3 C8.7,18.1 11.1,15.5 14.3,15.5 C15.6,15.5 16.7,15.9 17.5,16.4 L21.4,18.9 C21.4,18.9 21.8,19.1 22.2,19.1 C22.6,19.1 22.9,19 23.2,18.6 C23.4,18.3 23.5,18 23.5,17.7 C23.5,17.4 23.4,17.2 23.2,16.9 L23,16.6 "/>
<path class="Rest" transform="matrix(0.992,0,0,0.992,2283.71,683.798)" d="M23,16.6 C22.9,16.5 22.7,16.3 22.4,15.9 L10.9,1.7 C10.8,1.6 10.7,1.3 10.7,1.1 C10.7,0.8 10.8,0.4 10.9,0.2 L21.1,-15.2 C21.2,-15.4 21.3,-15.7 21.3,-15.9 L21.3,-16.8 C21.3,-17.1 21.2,-17.4 21,-17.6 L4.8,-39.5 C4.8,-39.5 4.4,-40.1 3.8,-40.1 C3.5,-40.1 3.3,-40.1 3,-39.8 C2.6,-39.5 2.5,-39.1 2.5,-38.8 C2.5,-38.2 2.8,-37.7 2.8,-37.7 L10.4,-27.3 C10.6,-27 10.7,-26.6 10.7,-26.1 C10.7,-25.7 10.6,-25.2 10.4,-24.9 L0.3,-9.5 C0.2,-9.3 0.1,-8.9 0.1,-8.7 L0.1,-7.8 C0.1,-7.5 0.2,-7.2 0.4,-7 L11.6,6.9 C11.2,6.8 10.3,6.6 9.1,6.6 C4,6.6 0,10.8 0,15.9 C0,17.3 0.3,18.7 1.1,19.8 C3.2,23 10.7,32.5 10.7,32.5 C10.7,32.5 11.2,33.1 11.9,33.1 C12.1,33.1 12.3,33.1 12.5,32.9 C13,32.5 13.2,32.1 13.2,31.7 C13.2,31.3 13,31 12.9,30.8 C12.6,30.3 9.4,24.5 9.4,24.5 C9.4,24.5 8.7,23.1 8.7,21.3 C8.7,18.1 11.1,15.5 14.3,15.5 C15.6,15.5 16.7,15.9 17.5,16.4 L21.4,18.9 C21.4,18.9 21.8,19.1 22.2,19.1 C22.6,19.1 22.9,19 23.2,18.6 C23.4,18.3 23.5,18 23.5,17.7 C23.5,17.4 23.4,17.2 23.2,16.9 L23,16.6 "/>
<path class="Rest" transform="matrix(0.992,0,0,0.992,1405.99,1155)" d="M23,16.6 C22.9,16.5 22.7,16.3 22.4,15.9 L10.9,1.7 C10.8,1.6 10.7,1.3 10.7,1.1 C10.7,0.8 10.8,0.4 10.9,0.2 L21.1,-15.2 C21.2,-15.4 21.3,-15.7 21.3,-15.9 L21.3,-16.8 C21.3,-17.1 21.2,-17.4 21,-17.6 L4.8,-39.5 C4.8,-39.5 4.4,-40.1 3.8,-40.1 C3.5,-40.1 3.3,-40.1 3,-39.8 C2.6,-39.5 2.5,-39.1 2.5,-38.8 C2.5,-38.2 2.8,-37.7 2.8,-37.7 L10.4,-27.3 C10.6,-27 10.7,-26.6 10.7,-26.1 C10.7,-25.7 10.6,-25.2 10.4,-24.9 L0.3,-9.5 C0.2,-9.3 0.1,-8.9 0.1,-8.7 L0.1,-7.8 C0.1,-7.5 0.2,-7.2 0.4,-7 L11.6,6.9 C11.2,6.8 10.3,6.6 9.1,6.6 C4,6.6 0,10.8 0,15.9 C0,17.3 0.3,18.7 1.1,19.8 C3.2,23 10.7,32.5 10.7,32.5 C10.7,32.5 11.2,33.1 11.9,33.1 C12.1,33.1 12.3,33.1 12.5,32.9 C13,32.5 13.2,32.1 13.2,31.7 C13.2,31.3 13,31 12.9,30.8 C12.6,30.3 9.4,24.5 9.4,24.5 C9.4,24.5 8.7,23.1 8.7,21.3 C8.7,18.1 11.1,15.5 14.3,15.5 C15.6,15.5 16.7,15.9 17.5,16.4 L21.4,18.9 C21.4,18.9 21.8,19.1 22.2,19.1 C22.6,19.1 22.9,19 23.2,18.6 C23.4,18.3 23.5,18 23.5,17.7 C23.5,17.4 23.4,17.2 23.2,16.9 L23,16.6 "/>
<path class="Rest" transform="matrix(0.992,0,0,0.992,2471.58,1626.2)" d="M0,-1 C0,0.4 0,0.4 1.4,0.4 L31.1,0.4 C32.5,0.4 32.5,0.4 32.5,-1 L32.5,-11.8 C32.5,-13.2 32.5,-13.2 31.1,-13.2 L1.4,-13.2 C0,-13.2 0,-13.2 0,-11.8 L0,-1 "/>
<path class="Rest" transform="matrix(0.992,0,0,0.992,1559.38,1155)" d="M23,16.6 C22.9,16.5 22.7,16.3 22.4,15.9 L10.9,1.7 C10.8,1.6 10.7,1.3 10.7,1.1 C10.7,0.8 10.8,0.4 10.9,0.2 L21.1,-15.2 C21.2,-15.4 21.3,-15.7 21.3,-15.9 L21.3,-16.8 C21.3,-17.1 21.2,-17.4 21,-17.6 L4.8,-39.5 C4.8,-39.5 4.4,-40.1 3.8,-40.1 C3.5,-40.1 3.3,-40.1 3,-39.8 C2.6,-39.5 2.5,-39.1 2.5,-38.8 C2.5,-38.2 2.8,-37.7 2.8,-37.7 L10.4,-27.3 C10.6,-27 10.7,-26.6 10.7,-26.1 C10.7,-25.7 10.6,-25.2 10.4,-24.9 L0.3,-9.5 C0.2,-9.3 0.1,-8.9 0.1,-8.7 L0.1,-7.8 C0.1,-7.5 0.2,-7.2 0.4,-7 L11.6,6.9 C11.2,6.8 10.3,6.6 9.1,6.6 C4,6.6 0,10.8 0,15.9 C0,17.3 0.3,18.7 1.1,19.8 C3.2,23 10.7,32.5 10.7,32.5 C10.7,32.5 11.2,33.1 11.9,33.1 C12.1,33.1 12.3,33.1 12.5,32.9 C13,32.5 13.2,32.1 13.2,31.7 C13.2,31.3 13,31 12.9,30.8 C12.6,30.3 9.4,24.5 9.4,24.5 C9.4,24.5 8.7,23.1 8.7,21.3 C8.7,18.1 11.1,15.5 14.3,15.5 C15.6,15.5 16.7,15.9 17.5,16.4 L21.4,18.9 C21.4,18.9 21.8,19.1 22.2,19.1 C22.6,19.1 22.9,19 23.2,18.6 C23.4,18.3 23.5,18 23.5,17.7 C23.5,17.4 23.4,17.2 23.2,16.9 L23,16.6 "/>
<path class="Tuplet" d="M1814.29,1072.15 C1816.41,1071.48 1817.26,1071.12 1818.34,1070.4 C1820.46,1069 1821.76,1066.53 1821.76,1064.01 C1821.76,1059.73 1818.34,1056.85 1813.3,1056.85 C1808.4,1056.85 1804.26,1059.91 1804.26,1063.6 C1804.26,1065.45 1805.38,1066.71 1807.09,1066.71 C1808.58,1066.71 1809.66,1065.63 1809.66,1064.14 C1809.66,1063.38 1809.43,1062.84 1808.71,1062.12 C1808.26,1061.71 1808.08,1061.4 1808.08,1061.08 C1808.08,1060 1810.33,1058.88 1812.45,1058.88 C1815.46,1058.88 1817.26,1060.54 1817.26,1063.33 C1817.26,1067.34 1814.43,1071.12 1811.41,1071.12 C1811.28,1071.12 1810.87,1071.07 1810.38,1071.03 C1809.07,1070.94 1809.07,1070.94 1808.8,1070.94 C1807.81,1070.94 1807.27,1071.39 1807.27,1072.2 C1807.27,1072.92 1807.77,1073.37 1808.58,1073.37 C1808.8,1073.37 1809.12,1073.32 1809.48,1073.28 C1810.11,1073.14 1810.78,1073.1 1811.19,1073.1 C1813.3,1073.1 1814.74,1074.99 1814.74,1077.78 C1814.74,1082.64 1812.36,1087.32 1806.91,1087.32 C1804.39,1087.32 1802.23,1086.06 1802.23,1084.62 C1802.23,1084.12 1802.41,1083.94 1803.13,1083.63 C1804.44,1083.04 1804.98,1082.23 1804.98,1081.02 C1804.98,1079.44 1803.72,1078.23 1802.1,1078.23 C1800.16,1078.23 1798.9,1079.76 1798.9,1082.1 C1798.9,1086.46 1802.23,1089.21 1807.63,1089.21 C1814.43,1089.21 1819.6,1084.66 1819.6,1078.63 C1819.6,1075.12 1817.44,1073.14 1814.29,1072.15"/>
<polyline class="Tuplet" fill="none" stroke="#000000" stroke-width="2.48" stroke-linejoin="miter" stroke-miterlimit="2" points="1743.51,1091.63 1743.51,1073.03 1786.51,1073.03"/>
<polyline class="Tuplet" fill="none" stroke="#000000" stroke-width="2.48" stroke-linejoin="miter" stroke-miterlimit="2" points="1834.17,1073.03 1877.17,1073.03 1877.17,1091.63"/>
<path class="Tuplet" d="M2227.14,1264.64 C2229.25,1263.97 2230.11,1263.61 2231.19,1262.89 C2233.3,1261.49 2234.61,1259.02 2234.61,1256.5 C2234.61,1252.22 2231.19,1249.34 2226.15,1249.34 C2221.24,1249.34 2217.1,1252.4 2217.1,1256.09 C2217.1,1257.94 2218.23,1259.2 2219.94,1259.2 C2221.42,1259.2 2222.5,1258.12 2222.5,1256.63 C2222.5,1255.87 2222.28,1255.33 2221.56,1254.61 C2221.11,1254.2 2220.93,1253.89 2220.93,1253.57 C2220.93,1252.49 2223.18,1251.37 2225.29,1251.37 C2228.31,1251.37 2230.11,1253.03 2230.11,1255.82 C2230.11,1259.83 2227.27,1263.61 2224.26,1263.61 C2224.12,1263.61 2223.72,1263.56 2223.22,1263.52 C2221.92,1263.43 2221.92,1263.43 2221.65,1263.43 C2220.66,1263.43 2220.12,1263.88 2220.12,1264.69 C2220.12,1265.41 2220.61,1265.86 2221.42,1265.86 C2221.65,1265.86 2221.96,1265.81 2222.32,1265.77 C2222.95,1265.63 2223.63,1265.59 2224.03,1265.59 C2226.15,1265.59 2227.59,1267.48 2227.59,1270.27 C2227.59,1275.13 2225.2,1279.81 2219.76,1279.81 C2217.24,1279.81 2215.08,1278.55 2215.08,1277.11 C2215.08,1276.61 2215.26,1276.43 2215.98,1276.12 C2217.28,1275.53 2217.82,1274.72 2217.82,1273.51 C2217.82,1271.93 2216.56,1270.72 2214.94,1270.72 C2213.01,1270.72 2211.75,1272.25 2211.75,1274.59 C2211.75,1278.95 2215.08,1281.7 2220.48,1281.7 C2227.27,1281.7 2232.45,1277.15 2232.45,1271.12 C2232.45,1267.61 2230.29,1265.63 2227.14,1264.64"/>
<polyline class="Tuplet" fill="none" stroke="#000000" stroke-width="2.48" stroke-linejoin="miter" stroke-miterlimit="2" points="2156.35,1243.87 2156.35,1262.47 2199.35,1264.43"/>
<polyline class="Tuplet" fill="none" stroke="#000000" stroke-width="2.48" stroke-linejoin="miter" stroke-miterlimit="2" points="2247.01,1266.61 2290.01,1268.57 2290.01,1249.97"/>
<path class="Tuplet" d="M1433.52,1524.74 C1435.64,1524.07 1436.49,1523.71 1437.57,1522.99 C1439.69,1521.59 1440.99,1519.12 1440.99,1516.6 C1440.99,1512.32 1437.57,1509.44 1432.53,1509.44 C1427.63,1509.44 1423.49,1512.5 1423.49,1516.19 C1423.49,1518.04 1424.61,1519.3 1426.32,1519.3 C1427.81,1519.3 1428.89,1518.22 1428.89,1516.73 C1428.89,1515.97 1428.66,1515.43 1427.94,1514.71 C1427.49,1514.3 1427.31,1513.99 1427.31,1513.67 C1427.31,1512.59 1429.56,1511.47 1431.68,1511.47 C1434.69,1511.47 1436.49,1513.13 1436.49,1515.92 C1436.49,1519.93 1433.66,1523.71 1430.64,1523.71 C1430.51,1523.71 1430.1,1523.66 1429.61,1523.62 C1428.3,1523.53 1428.3,1523.53 1428.03,1523.53 C1427.04,1523.53 1426.5,1523.98 1426.5,1524.79 C1426.5,1525.51 1427,1525.96 1427.81,1525.96 C1428.03,1525.96 1428.35,1525.91 1428.71,1525.87 C1429.34,1525.73 1430.01,1525.69 1430.42,1525.69 C1432.53,1525.69 1433.97,1527.58 1433.97,1530.37 C1433.97,1535.23 1431.59,1539.91 1426.14,1539.91 C1423.62,1539.91 1421.46,1538.65 1421.46,1537.21 C1421.46,1536.71 1421.64,1536.53 1422.36,1536.22 C1423.67,1535.63 1424.21,1534.82 1424.21,1533.61 C1424.21,1532.03 1422.95,1530.82 1421.33,1530.82 C1419.39,1530.82 1418.13,1532.35 1418.13,1534.69 C1418.13,1539.05 1421.46,1541.8 1426.86,1541.8 C1433.66,1541.8 1438.83,1537.25 1438.83,1531.22 C1438.83,1527.71 1436.67,1525.73 1433.52,1524.74"/>
<polyline class="Tuplet" fill="none" stroke="#000000" stroke-width="2.48" stroke-linejoin="miter" stroke-miterlimit="2" points="1353.14,1544.12 1353.14,1525.52 1405.74,1525.59"/>
<polyline class="Tuplet" fill="none" stroke="#000000" stroke-width="2.48" stroke-linejoin="miter" stroke-miterlimit="2" points="1453.4,1525.66 1506,1525.72 1506,1544.32"/>
<path class="Tuplet" d="M1416.35,588.545 C1418.47,587.87 1419.32,587.51 1420.4,586.79 C1422.52,585.395 1423.82,582.92 1423.82,580.4 C1423.82,576.125 1420.4,573.245 1415.36,573.245 C1410.46,573.245 1406.32,576.305 1406.32,579.995 C1406.32,581.84 1407.44,583.1 1409.15,583.1 C1410.64,583.1 1411.72,582.02 1411.72,580.535 C1411.72,579.77 1411.49,579.23 1410.77,578.51 C1410.32,578.105 1410.14,577.79 1410.14,577.475 C1410.14,576.395 1412.39,575.27 1414.51,575.27 C1417.52,575.27 1419.32,576.935 1419.32,579.725 C1419.32,583.73 1416.49,587.51 1413.47,587.51 C1413.34,587.51 1412.93,587.465 1412.44,587.42 C1411.13,587.33 1411.13,587.33 1410.86,587.33 C1409.87,587.33 1409.33,587.78 1409.33,588.59 C1409.33,589.31 1409.83,589.76 1410.64,589.76 C1410.86,589.76 1411.18,589.715 1411.54,589.67 C1412.17,589.535 1412.84,589.49 1413.25,589.49 C1415.36,589.49 1416.8,591.38 1416.8,594.17 C1416.8,599.03 1414.42,603.71 1408.97,603.71 C1406.45,603.71 1404.29,602.45 1404.29,601.01 C1404.29,600.515 1404.47,600.335 1405.19,600.02 C1406.5,599.435 1407.04,598.625 1407.04,597.41 C1407.04,595.835 1405.78,594.62 1404.16,594.62 C1402.22,594.62 1400.96,596.15 1400.96,598.49 C1400.96,602.855 1404.29,605.6 1409.69,605.6 C1416.49,605.6 1421.66,601.055 1421.66,595.025 C1421.66,591.515 1419.5,589.535 1416.35,588.545"/>
<polyline class="Tuplet" fill="none" stroke="#000000" stroke-width="2.48" stroke-linejoin="miter" stroke-miterlimit="2" points="1324.89,607.926 1324.89,589.326 1388.57,589.398"/>
<polyline class="Tuplet" fill="none" stroke="#000000" stroke-width="2.48" stroke-linejoin="miter" stroke-miterlimit="2" points="1436.23,589.452 1499.9,589.524 1499.9,608.124"/>
<path class="Tuplet" d="M1686.96,593.253 C1689.07,592.578 1689.93,592.218 1691.01,591.498 C1693.12,590.103 1694.43,587.628 1694.43,585.108 C1694.43,580.833 1691.01,577.953 1685.97,577.953 C1681.06,577.953 1676.92,581.013 1676.92,584.703 C1676.92,586.548 1678.05,587.808 1679.76,587.808 C1681.24,587.808 1682.32,586.728 1682.32,585.243 C1682.32,584.478 1682.1,583.938 1681.38,583.218 C1680.93,582.813 1680.75,582.498 1680.75,582.183 C1680.75,581.103 1683,579.978 1685.11,579.978 C1688.13,579.978 1689.93,581.643 1689.93,584.433 C1689.93,588.438 1687.09,592.218 1684.08,592.218 C1683.94,592.218 1683.54,592.173 1683.04,592.128 C1681.74,592.038 1681.74,592.038 1681.47,592.038 C1680.48,592.038 1679.94,592.488 1679.94,593.298 C1679.94,594.018 1680.43,594.468 1681.24,594.468 C1681.47,594.468 1681.78,594.423 1682.14,594.378 C1682.77,594.243 1683.45,594.198 1683.85,594.198 C1685.97,594.198 1687.41,596.088 1687.41,598.878 C1687.41,603.738 1685.02,608.418 1679.58,608.418 C1677.06,608.418 1674.9,607.158 1674.9,605.718 C1674.9,605.223 1675.08,605.043 1675.8,604.728 C1677.1,604.143 1677.64,603.333 1677.64,602.118 C1677.64,600.543 1676.38,599.328 1674.76,599.328 C1672.83,599.328 1671.57,600.858 1671.57,603.198 C1671.57,607.563 1674.9,610.308 1680.3,610.308 C1687.09,610.308 1692.27,605.763 1692.27,599.733 C1692.27,596.223 1690.11,594.243 1686.96,593.253"/>
<polyline class="Tuplet" fill="none" stroke="#000000" stroke-width="2.48" stroke-linejoin="miter" stroke-miterlimit="2" points="1595.5,618.834 1595.5,600.234 1659.17,595.794"/>
<polyline class="Tuplet" fill="none" stroke="#000000" stroke-width="2.48" stroke-linejoin="miter" stroke-miterlimit="2" points="1706.83,592.472 1770.51,588.032 1770.51,606.632"/>
<path class="Tuplet" d="M1667.21,1528.2 C1669.32,1527.52 1670.18,1527.16 1671.26,1526.44 C1673.37,1525.05 1674.68,1522.57 1674.68,1520.05 C1674.68,1515.78 1671.26,1512.9 1666.22,1512.9 C1661.31,1512.9 1657.17,1515.96 1657.17,1519.65 C1657.17,1521.49 1658.3,1522.75 1660.01,1522.75 C1661.49,1522.75 1662.57,1521.67 1662.57,1520.19 C1662.57,1519.42 1662.35,1518.88 1661.63,1518.16 C1661.18,1517.76 1661,1517.44 1661,1517.13 C1661,1516.05 1663.25,1514.92 1665.36,1514.92 C1668.38,1514.92 1670.18,1516.59 1670.18,1519.38 C1670.18,1523.38 1667.34,1527.16 1664.33,1527.16 C1664.19,1527.16 1663.79,1527.12 1663.29,1527.07 C1661.99,1526.98 1661.99,1526.98 1661.72,1526.98 C1660.73,1526.98 1660.19,1527.43 1660.19,1528.24 C1660.19,1528.96 1660.68,1529.41 1661.49,1529.41 C1661.72,1529.41 1662.03,1529.37 1662.39,1529.32 C1663.02,1529.19 1663.7,1529.14 1664.1,1529.14 C1666.22,1529.14 1667.66,1531.03 1667.66,1533.82 C1667.66,1538.68 1665.27,1543.36 1659.83,1543.36 C1657.31,1543.36 1655.15,1542.1 1655.15,1540.66 C1655.15,1540.17 1655.33,1539.99 1656.05,1539.67 C1657.35,1539.09 1657.89,1538.28 1657.89,1537.06 C1657.89,1535.49 1656.63,1534.27 1655.01,1534.27 C1653.08,1534.27 1651.82,1535.8 1651.82,1538.14 C1651.82,1542.51 1655.15,1545.25 1660.55,1545.25 C1667.34,1545.25 1672.52,1540.71 1672.52,1534.68 C1672.52,1531.17 1670.36,1529.19 1667.21,1528.2"/>
<polyline class="Tuplet" fill="none" stroke="#000000" stroke-width="2.48" stroke-linejoin="miter" stroke-miterlimit="2" points="1586.82,1544.48 1586.82,1525.88 1639.42,1528.08"/>
<polyline class="Tuplet" fill="none" stroke="#000000" stroke-width="2.48" stroke-linejoin="miter" stroke-miterlimit="2" points="1687.08,1530.08 1739.68,1532.28 1739.68,1550.88"/>
<path class="Tuplet" d="M1163.14,1535.73 C1165.25,1535.06 1166.11,1534.7 1167.19,1533.98 C1169.3,1532.58 1170.61,1530.11 1170.61,1527.59 C1170.61,1523.31 1167.19,1520.43 1162.15,1520.43 C1157.24,1520.43 1153.1,1523.49 1153.1,1527.18 C1153.1,1529.03 1154.23,1530.29 1155.94,1530.29 C1157.42,1530.29 1158.5,1529.21 1158.5,1527.72 C1158.5,1526.96 1158.28,1526.42 1157.56,1525.7 C1157.11,1525.29 1156.93,1524.98 1156.93,1524.66 C1156.93,1523.58 1159.18,1522.46 1161.29,1522.46 C1164.31,1522.46 1166.11,1524.12 1166.11,1526.91 C1166.11,1530.92 1163.27,1534.7 1160.26,1534.7 C1160.12,1534.7 1159.72,1534.65 1159.22,1534.61 C1157.92,1534.52 1157.92,1534.52 1157.65,1534.52 C1156.66,1534.52 1156.12,1534.97 1156.12,1535.78 C1156.12,1536.5 1156.61,1536.95 1157.42,1536.95 C1157.65,1536.95 1157.96,1536.9 1158.32,1536.86 C1158.95,1536.72 1159.63,1536.68 1160.03,1536.68 C1162.15,1536.68 1163.59,1538.57 1163.59,1541.36 C1163.59,1546.22 1161.2,1550.9 1155.76,1550.9 C1153.24,1550.9 1151.08,1549.64 1151.08,1548.2 C1151.08,1547.7 1151.26,1547.52 1151.98,1547.21 C1153.28,1546.62 1153.82,1545.81 1153.82,1544.6 C1153.82,1543.02 1152.56,1541.81 1150.94,1541.81 C1149.01,1541.81 1147.75,1543.34 1147.75,1545.68 C1147.75,1550.04 1151.08,1552.79 1156.48,1552.79 C1163.27,1552.79 1168.45,1548.24 1168.45,1542.21 C1168.45,1538.7 1166.29,1536.72 1163.14,1535.73"/>
<polyline class="Tuplet" fill="none" stroke="#000000" stroke-width="2.48" stroke-linejoin="miter" stroke-miterlimit="2" points="1082.75,1561.31 1082.75,1542.71 1135.35,1538.52"/>
<polyline class="Tuplet" fill="none" stroke="#000000" stroke-width="2.48" stroke-linejoin="miter" stroke-miterlimit="2" points="1183.01,1534.71 1235.61,1530.51 1235.61,1549.11"/>
<path class="Tuplet" d="M2025.46,1264.64 C2027.58,1263.97 2028.43,1263.61 2029.51,1262.89 C2031.63,1261.49 2032.93,1259.02 2032.93,1256.5 C2032.93,1252.22 2029.51,1249.34 2024.47,1249.34 C2019.57,1249.34 2015.43,1252.4 2015.43,1256.09 C2015.43,1257.94 2016.55,1259.2 2018.26,1259.2 C2019.75,1259.2 2020.83,1258.12 2020.83,1256.63 C2020.83,1255.87 2020.6,1255.33 2019.88,1254.61 C2019.43,1254.2 2019.25,1253.89 2019.25,1253.57 C2019.25,1252.49 2021.5,1251.37 2023.62,1251.37 C2026.63,1251.37 2028.43,1253.03 2028.43,1255.82 C2028.43,1259.83 2025.6,1263.61 2022.58,1263.61 C2022.45,1263.61 2022.04,1263.56 2021.55,1263.52 C2020.24,1263.43 2020.24,1263.43 2019.97,1263.43 C2018.98,1263.43 2018.44,1263.88 2018.44,1264.69 C2018.44,1265.41 2018.94,1265.86 2019.75,1265.86 C2019.97,1265.86 2020.29,1265.81 2020.65,1265.77 C2021.28,1265.63 2021.95,1265.59 2022.36,1265.59 C2024.47,1265.59 2025.91,1267.48 2025.91,1270.27 C2025.91,1275.13 2023.53,1279.81 2018.08,1279.81 C2015.56,1279.81 2013.4,1278.55 2013.4,1277.11 C2013.4,1276.61 2013.58,1276.43 2014.3,1276.12 C2015.61,1275.53 2016.15,1274.72 2016.15,1273.51 C2016.15,1271.93 2014.89,1270.72 2013.27,1270.72 C2011.33,1270.72 2010.07,1272.25 2010.07,1274.59 C2010.07,1278.95 2013.4,1281.7 2018.8,1281.7 C2025.6,1281.7 2030.77,1277.15 2030.77,1271.12 C2030.77,1267.61 2028.61,1265.63 2025.46,1264.64"/>
<polyline class="Tuplet" fill="none" stroke="#000000" stroke-width="2.48" stroke-linejoin="miter" stroke-miterlimit="2" points="1954.68,1243.87 1954.68,1262.47 1997.68,1264.43"/>
<polyline class="Tuplet" fill="none" stroke="#000000" stroke-width="2.48" stroke-linejoin="miter" stroke-miterlimit="2" points="2045.34,1266.61 2088.33,1268.57 2088.33,1249.97"/>
<path class="Tuplet" d="M1113.45,1055.67 C1115.56,1054.99 1116.42,1054.63 1117.5,1053.91 C1119.61,1052.52 1120.92,1050.04 1120.92,1047.52 C1120.92,1043.25 1117.5,1040.37 1112.46,1040.37 C1107.55,1040.37 1103.41,1043.43 1103.41,1047.12 C1103.41,1048.96 1104.54,1050.22 1106.25,1050.22 C1107.73,1050.22 1108.81,1049.14 1108.81,1047.66 C1108.81,1046.89 1108.59,1046.35 1107.87,1045.63 C1107.42,1045.23 1107.24,1044.91 1107.24,1044.6 C1107.24,1043.52 1109.49,1042.39 1111.6,1042.39 C1114.62,1042.39 1116.42,1044.06 1116.42,1046.85 C1116.42,1050.85 1113.58,1054.63 1110.57,1054.63 C1110.43,1054.63 1110.03,1054.59 1109.53,1054.54 C1108.23,1054.45 1108.23,1054.45 1107.96,1054.45 C1106.97,1054.45 1106.43,1054.9 1106.43,1055.71 C1106.43,1056.43 1106.92,1056.88 1107.73,1056.88 C1107.96,1056.88 1108.27,1056.84 1108.63,1056.79 C1109.26,1056.66 1109.94,1056.61 1110.34,1056.61 C1112.46,1056.61 1113.9,1058.5 1113.9,1061.29 C1113.9,1066.15 1111.51,1070.83 1106.07,1070.83 C1103.55,1070.83 1101.39,1069.57 1101.39,1068.13 C1101.39,1067.64 1101.57,1067.46 1102.29,1067.14 C1103.59,1066.56 1104.13,1065.75 1104.13,1064.53 C1104.13,1062.96 1102.87,1061.74 1101.25,1061.74 C1099.32,1061.74 1098.06,1063.27 1098.06,1065.61 C1098.06,1069.98 1101.39,1072.72 1106.79,1072.72 C1113.58,1072.72 1118.76,1068.18 1118.76,1062.15 C1118.76,1058.64 1116.6,1056.66 1113.45,1055.67"/>
<polyline class="Tuplet" fill="none" stroke="#000000" stroke-width="2.48" stroke-linejoin="miter" stroke-miterlimit="2" points="1042.67,1078.15 1042.67,1059.55 1085.66,1057.62"/>
<polyline class="Tuplet" fill="none" stroke="#000000" stroke-width="2.48" stroke-linejoin="miter" stroke-miterlimit="2" points="1133.32,1055.48 1176.32,1053.55 1176.32,1072.15"/>
<path class="Tuplet" d="M875.147,588.545 C877.262,587.87 878.117,587.51 879.197,586.79 C881.312,585.395 882.617,582.92 882.617,580.4 C882.617,576.125 879.197,573.245 874.157,573.245 C869.252,573.245 865.112,576.305 865.112,579.995 C865.112,581.84 866.237,583.1 867.947,583.1 C869.432,583.1 870.512,582.02 870.512,580.535 C870.512,579.77 870.287,579.23 869.567,578.51 C869.117,578.105 868.937,577.79 868.937,577.475 C868.937,576.395 871.187,575.27 873.302,575.27 C876.317,575.27 878.117,576.935 878.117,579.725 C878.117,583.73 875.282,587.51 872.267,587.51 C872.132,587.51 871.727,587.465 871.232,587.42 C869.927,587.33 869.927,587.33 869.657,587.33 C868.667,587.33 868.127,587.78 868.127,588.59 C868.127,589.31 868.622,589.76 869.432,589.76 C869.657,589.76 869.972,589.715 870.332,589.67 C870.962,589.535 871.637,589.49 872.042,589.49 C874.157,589.49 875.597,591.38 875.597,594.17 C875.597,599.03 873.212,603.71 867.767,603.71 C865.247,603.71 863.087,602.45 863.087,601.01 C863.087,600.515 863.267,600.335 863.987,600.02 C865.292,599.435 865.832,598.625 865.832,597.41 C865.832,595.835 864.572,594.62 862.952,594.62 C861.017,594.62 859.757,596.15 859.757,598.49 C859.757,602.855 863.087,605.6 868.487,605.6 C875.282,605.6 880.457,601.055 880.457,595.025 C880.457,591.515 878.297,589.535 875.147,588.545"/>
<polyline class="Tuplet" fill="none" stroke="#000000" stroke-width="2.48" stroke-linejoin="miter" stroke-miterlimit="2" points="783.685,607.926 783.685,589.326 847.361,589.398"/>
<polyline class="Tuplet" fill="none" stroke="#000000" stroke-width="2.48" stroke-linejoin="miter" stroke-miterlimit="2" points="895.02,589.452 958.695,589.524 958.695,608.124"/>
<path class="Tuplet" d="M743.163,1531.83 C745.278,1531.15 746.133,1530.79 747.213,1530.07 C749.328,1528.68 750.633,1526.2 750.633,1523.68 C750.633,1519.41 747.213,1516.53 742.173,1516.53 C737.268,1516.53 733.128,1519.59 733.128,1523.28 C733.128,1525.12 734.253,1526.38 735.963,1526.38 C737.448,1526.38 738.528,1525.3 738.528,1523.82 C738.528,1523.05 738.303,1522.51 737.583,1521.79 C737.133,1521.39 736.953,1521.07 736.953,1520.76 C736.953,1519.68 739.203,1518.55 741.318,1518.55 C744.333,1518.55 746.133,1520.22 746.133,1523.01 C746.133,1527.01 743.298,1530.79 740.283,1530.79 C740.148,1530.79 739.743,1530.75 739.248,1530.7 C737.943,1530.61 737.943,1530.61 737.673,1530.61 C736.683,1530.61 736.143,1531.06 736.143,1531.87 C736.143,1532.59 736.638,1533.04 737.448,1533.04 C737.673,1533.04 737.988,1533 738.348,1532.95 C738.978,1532.82 739.653,1532.77 740.058,1532.77 C742.173,1532.77 743.613,1534.66 743.613,1537.45 C743.613,1542.31 741.228,1546.99 735.783,1546.99 C733.263,1546.99 731.103,1545.73 731.103,1544.29 C731.103,1543.8 731.283,1543.62 732.003,1543.3 C733.308,1542.72 733.848,1541.91 733.848,1540.69 C733.848,1539.12 732.588,1537.9 730.968,1537.9 C729.033,1537.9 727.773,1539.43 727.773,1541.77 C727.773,1546.14 731.103,1548.88 736.503,1548.88 C743.298,1548.88 748.473,1544.34 748.473,1538.31 C748.473,1534.8 746.313,1532.82 743.163,1531.83"/>
<polyline class="Tuplet" fill="none" stroke="#000000" stroke-width="2.48" stroke-linejoin="miter" stroke-miterlimit="2" points="654.23,1560.51 654.23,1541.91 715.377,1535.29"/>
<polyline class="Tuplet" fill="none" stroke="#000000" stroke-width="2.48" stroke-linejoin="miter" stroke-miterlimit="2" points="763.037,1530.13 824.184,1523.51 824.184,1542.11"/>
<path class="Tuplet" d="M1900.89,1543.35 C1903,1542.68 1903.86,1542.32 1904.94,1541.6 C1907.05,1540.2 1908.36,1537.73 1908.36,1535.21 C1908.36,1530.93 1904.94,1528.05 1899.9,1528.05 C1894.99,1528.05 1890.85,1531.11 1890.85,1534.8 C1890.85,1536.65 1891.98,1537.91 1893.69,1537.91 C1895.17,1537.91 1896.25,1536.83 1896.25,1535.34 C1896.25,1534.58 1896.03,1534.04 1895.31,1533.32 C1894.86,1532.91 1894.68,1532.6 1894.68,1532.28 C1894.68,1531.2 1896.93,1530.08 1899.04,1530.08 C1902.06,1530.08 1903.86,1531.74 1903.86,1534.53 C1903.86,1538.54 1901.02,1542.32 1898.01,1542.32 C1897.87,1542.32 1897.47,1542.27 1896.97,1542.23 C1895.67,1542.14 1895.67,1542.14 1895.4,1542.14 C1894.41,1542.14 1893.87,1542.59 1893.87,1543.4 C1893.87,1544.12 1894.36,1544.57 1895.17,1544.57 C1895.4,1544.57 1895.71,1544.52 1896.07,1544.48 C1896.7,1544.34 1897.38,1544.3 1897.78,1544.3 C1899.9,1544.3 1901.34,1546.19 1901.34,1548.98 C1901.34,1553.84 1898.95,1558.52 1893.51,1558.52 C1890.99,1558.52 1888.83,1557.26 1888.83,1555.82 C1888.83,1555.32 1889.01,1555.14 1889.73,1554.83 C1891.03,1554.24 1891.57,1553.43 1891.57,1552.22 C1891.57,1550.64 1890.31,1549.43 1888.69,1549.43 C1886.76,1549.43 1885.5,1550.96 1885.5,1553.3 C1885.5,1557.66 1888.83,1560.41 1894.23,1560.41 C1901.02,1560.41 1906.2,1555.86 1906.2,1549.83 C1906.2,1546.32 1904.04,1544.34 1900.89,1543.35"/>
<polyline class="Tuplet" fill="none" stroke="#000000" stroke-width="2.48" stroke-linejoin="miter" stroke-miterlimit="2" points="1820.5,1562.83 1820.5,1544.23 1873.1,1544.23"/>
<polyline class="Tuplet" fill="none" stroke="#000000" stroke-width="2.48" stroke-linejoin="miter" stroke-miterlimit="2" points="1920.76,1544.23 1973.36,1544.23 1973.36,1562.83"/>
<path class="Tuplet" d="M2611.73,600.954 C2613.85,600.279 2614.7,599.919 2615.78,599.199 C2617.9,597.804 2619.2,595.329 2619.2,592.809 C2619.2,588.534 2615.78,585.654 2610.74,585.654 C2605.84,585.654 2601.7,588.714 2601.7,592.404 C2601.7,594.249 2602.82,595.509 2604.53,595.509 C2606.02,595.509 2607.1,594.429 2607.1,592.944 C2607.1,592.179 2606.87,591.639 2606.15,590.919 C2605.7,590.514 2605.52,590.199 2605.52,589.884 C2605.52,588.804 2607.77,587.679 2609.89,587.679 C2612.9,587.679 2614.7,589.344 2614.7,592.134 C2614.7,596.139 2611.87,599.919 2608.85,599.919 C2608.72,599.919 2608.31,599.874 2607.82,599.829 C2606.51,599.739 2606.51,599.739 2606.24,599.739 C2605.25,599.739 2604.71,600.189 2604.71,600.999 C2604.71,601.719 2605.21,602.169 2606.02,602.169 C2606.24,602.169 2606.56,602.124 2606.92,602.079 C2607.55,601.944 2608.22,601.899 2608.63,601.899 C2610.74,601.899 2612.18,603.789 2612.18,606.579 C2612.18,611.439 2609.8,616.119 2604.35,616.119 C2601.83,616.119 2599.67,614.859 2599.67,613.419 C2599.67,612.924 2599.85,612.744 2600.57,612.429 C2601.88,611.844 2602.42,611.034 2602.42,609.819 C2602.42,608.244 2601.16,607.029 2599.54,607.029 C2597.6,607.029 2596.34,608.559 2596.34,610.899 C2596.34,615.264 2599.67,618.009 2605.07,618.009 C2611.87,618.009 2617.04,613.464 2617.04,607.434 C2617.04,603.924 2614.88,601.944 2611.73,600.954"/>
<polyline class="Tuplet" fill="none" stroke="#000000" stroke-width="2.48" stroke-linejoin="miter" stroke-miterlimit="2" points="2520.27,620.434 2520.27,601.834 2583.95,601.834"/>
<polyline class="Tuplet" fill="none" stroke="#000000" stroke-width="2.48" stroke-linejoin="miter" stroke-miterlimit="2" points="2631.61,601.834 2695.28,601.834 2695.28,620.434"/>
<path class="Tuplet" d="M488.532,1725.55 C490.647,1724.88 491.502,1724.52 492.582,1723.8 C494.697,1722.4 496.002,1719.93 496.002,1717.41 C496.002,1713.13 492.582,1710.25 487.542,1710.25 C482.637,1710.25 478.497,1713.31 478.497,1717 C478.497,1718.85 479.622,1720.11 481.332,1720.11 C482.817,1720.11 483.897,1719.03 483.897,1717.54 C483.897,1716.78 483.672,1716.24 482.952,1715.52 C482.502,1715.11 482.322,1714.8 482.322,1714.48 C482.322,1713.4 484.572,1712.28 486.687,1712.28 C489.702,1712.28 491.502,1713.94 491.502,1716.73 C491.502,1720.74 488.667,1724.52 485.652,1724.52 C485.517,1724.52 485.112,1724.47 484.617,1724.43 C483.312,1724.34 483.312,1724.34 483.042,1724.34 C482.052,1724.34 481.512,1724.79 481.512,1725.6 C481.512,1726.32 482.007,1726.77 482.817,1726.77 C483.042,1726.77 483.357,1726.72 483.717,1726.68 C484.347,1726.54 485.022,1726.5 485.427,1726.5 C487.542,1726.5 488.982,1728.39 488.982,1731.18 C488.982,1736.04 486.597,1740.72 481.152,1740.72 C478.632,1740.72 476.472,1739.46 476.472,1738.02 C476.472,1737.52 476.652,1737.34 477.372,1737.03 C478.677,1736.44 479.217,1735.63 479.217,1734.42 C479.217,1732.84 477.957,1731.63 476.337,1731.63 C474.402,1731.63 473.142,1733.16 473.142,1735.5 C473.142,1739.86 476.472,1742.61 481.872,1742.61 C488.667,1742.61 493.842,1738.06 493.842,1732.03 C493.842,1728.52 491.682,1726.54 488.532,1725.55"/>
<polyline class="Tuplet" fill="none" stroke="#000000" stroke-width="2.48" stroke-linejoin="miter" stroke-miterlimit="2" points="408.146,1707.88 408.146,1726.48 460.746,1726.45"/>
<polyline class="Tuplet" fill="none" stroke="#000000" stroke-width="2.48" stroke-linejoin="miter" stroke-miterlimit="2" points="508.405,1726.42 561.004,1726.38 561.004,1707.78"/>
<path class="Tuplet" d="M508.425,1053.55 C510.54,1052.87 511.395,1052.51 512.475,1051.79 C514.59,1050.4 515.895,1047.92 515.895,1045.4 C515.895,1041.13 512.475,1038.25 507.435,1038.25 C502.53,1038.25 498.39,1041.31 498.39,1045 C498.39,1046.84 499.515,1048.1 501.225,1048.1 C502.71,1048.1 503.79,1047.02 503.79,1045.54 C503.79,1044.77 503.565,1044.23 502.845,1043.51 C502.395,1043.11 502.215,1042.79 502.215,1042.48 C502.215,1041.4 504.465,1040.27 506.58,1040.27 C509.595,1040.27 511.395,1041.94 511.395,1044.73 C511.395,1048.73 508.56,1052.51 505.545,1052.51 C505.41,1052.51 505.005,1052.47 504.51,1052.42 C503.205,1052.33 503.205,1052.33 502.935,1052.33 C501.945,1052.33 501.405,1052.78 501.405,1053.59 C501.405,1054.31 501.9,1054.76 502.71,1054.76 C502.935,1054.76 503.25,1054.72 503.61,1054.67 C504.24,1054.54 504.915,1054.49 505.32,1054.49 C507.435,1054.49 508.875,1056.38 508.875,1059.17 C508.875,1064.03 506.49,1068.71 501.045,1068.71 C498.525,1068.71 496.365,1067.45 496.365,1066.01 C496.365,1065.52 496.545,1065.34 497.265,1065.02 C498.57,1064.44 499.11,1063.63 499.11,1062.41 C499.11,1060.84 497.85,1059.62 496.23,1059.62 C494.295,1059.62 493.035,1061.15 493.035,1063.49 C493.035,1067.86 496.365,1070.6 501.765,1070.6 C508.56,1070.6 513.735,1066.06 513.735,1060.03 C513.735,1056.52 511.575,1054.54 508.425,1053.55"/>
<polyline class="Tuplet" fill="none" stroke="#000000" stroke-width="2.48" stroke-linejoin="miter" stroke-miterlimit="2" points="437.643,1072.93 437.643,1054.33 480.64,1054.39"/>
<polyline class="Tuplet" fill="none" stroke="#000000" stroke-width="2.48" stroke-linejoin="miter" stroke-miterlimit="2" points="528.299,1054.46 571.295,1054.53 571.295,1073.13"/>
<path class="Tuplet" d="M1145.75,588.545 C1147.87,587.87 1148.72,587.51 1149.8,586.79 C1151.92,585.395 1153.22,582.92 1153.22,580.4 C1153.22,576.125 1149.8,573.245 1144.76,573.245 C1139.86,573.245 1135.72,576.305 1135.72,579.995 C1135.72,581.84 1136.84,583.1 1138.55,583.1 C1140.04,583.1 1141.12,582.02 1141.12,580.535 C1141.12,579.77 1140.89,579.23 1140.17,578.51 C1139.72,578.105 1139.54,577.79 1139.54,577.475 C1139.54,576.395 1141.79,575.27 1143.91,575.27 C1146.92,575.27 1148.72,576.935 1148.72,579.725 C1148.72,583.73 1145.89,587.51 1142.87,587.51 C1142.74,587.51 1142.33,587.465 1141.84,587.42 C1140.53,587.33 1140.53,587.33 1140.26,587.33 C1139.27,587.33 1138.73,587.78 1138.73,588.59 C1138.73,589.31 1139.23,589.76 1140.04,589.76 C1140.26,589.76 1140.58,589.715 1140.94,589.67 C1141.57,589.535 1142.24,589.49 1142.65,589.49 C1144.76,589.49 1146.2,591.38 1146.2,594.17 C1146.2,599.03 1143.82,603.71 1138.37,603.71 C1135.85,603.71 1133.69,602.45 1133.69,601.01 C1133.69,600.515 1133.87,600.335 1134.59,600.02 C1135.9,599.435 1136.44,598.625 1136.44,597.41 C1136.44,595.835 1135.18,594.62 1133.56,594.62 C1131.62,594.62 1130.36,596.15 1130.36,598.49 C1130.36,602.855 1133.69,605.6 1139.09,605.6 C1145.89,605.6 1151.06,601.055 1151.06,595.025 C1151.06,591.515 1148.9,589.535 1145.75,588.545"/>
<polyline class="Tuplet" fill="none" stroke="#000000" stroke-width="2.48" stroke-linejoin="miter" stroke-miterlimit="2" points="1054.29,607.926 1054.29,589.326 1117.96,589.398"/>
<polyline class="Tuplet" fill="none" stroke="#000000" stroke-width="2.48" stroke-linejoin="miter" stroke-miterlimit="2" points="1165.62,589.452 1229.3,589.524 1229.3,608.124"/>
<path class="Tuplet" d="M2653.78,1064.22 C2655.9,1063.54 2656.75,1063.18 2657.83,1062.46 C2659.95,1061.07 2661.25,1058.59 2661.25,1056.07 C2661.25,1051.8 2657.83,1048.92 2652.79,1048.92 C2647.89,1048.92 2643.75,1051.98 2643.75,1055.67 C2643.75,1057.51 2644.87,1058.77 2646.58,1058.77 C2648.07,1058.77 2649.15,1057.69 2649.15,1056.21 C2649.15,1055.44 2648.92,1054.9 2648.2,1054.18 C2647.75,1053.78 2647.57,1053.46 2647.57,1053.15 C2647.57,1052.07 2649.82,1050.94 2651.94,1050.94 C2654.95,1050.94 2656.75,1052.61 2656.75,1055.4 C2656.75,1059.4 2653.92,1063.18 2650.9,1063.18 C2650.77,1063.18 2650.36,1063.14 2649.87,1063.09 C2648.56,1063 2648.56,1063 2648.29,1063 C2647.3,1063 2646.76,1063.45 2646.76,1064.26 C2646.76,1064.98 2647.26,1065.43 2648.07,1065.43 C2648.29,1065.43 2648.61,1065.39 2648.97,1065.34 C2649.6,1065.21 2650.27,1065.16 2650.68,1065.16 C2652.79,1065.16 2654.23,1067.05 2654.23,1069.84 C2654.23,1074.7 2651.85,1079.38 2646.4,1079.38 C2643.88,1079.38 2641.72,1078.12 2641.72,1076.68 C2641.72,1076.19 2641.9,1076.01 2642.62,1075.69 C2643.93,1075.11 2644.47,1074.3 2644.47,1073.08 C2644.47,1071.51 2643.21,1070.29 2641.59,1070.29 C2639.65,1070.29 2638.39,1071.82 2638.39,1074.16 C2638.39,1078.53 2641.72,1081.27 2647.12,1081.27 C2653.92,1081.27 2659.09,1076.73 2659.09,1070.7 C2659.09,1067.19 2656.93,1065.21 2653.78,1064.22"/>
<polyline class="Tuplet" fill="none" stroke="#000000" stroke-width="2.48" stroke-linejoin="miter" stroke-miterlimit="2" points="2589.2,1074.4 2589.2,1055.8 2626,1061.44"/>
<polyline class="Tuplet" fill="none" stroke="#000000" stroke-width="2.48" stroke-linejoin="miter" stroke-miterlimit="2" points="2673.66,1068.75 2710.45,1074.4 2710.45,1093"/>
<path class="Tuplet" d="M2134.57,1543.35 C2136.69,1542.68 2137.54,1542.32 2138.62,1541.6 C2140.74,1540.2 2142.04,1537.73 2142.04,1535.21 C2142.04,1530.93 2138.62,1528.05 2133.58,1528.05 C2128.68,1528.05 2124.54,1531.11 2124.54,1534.8 C2124.54,1536.65 2125.66,1537.91 2127.37,1537.91 C2128.86,1537.91 2129.94,1536.83 2129.94,1535.34 C2129.94,1534.58 2129.71,1534.04 2128.99,1533.32 C2128.54,1532.91 2128.36,1532.6 2128.36,1532.28 C2128.36,1531.2 2130.61,1530.08 2132.73,1530.08 C2135.74,1530.08 2137.54,1531.74 2137.54,1534.53 C2137.54,1538.54 2134.71,1542.32 2131.69,1542.32 C2131.56,1542.32 2131.15,1542.27 2130.66,1542.23 C2129.35,1542.14 2129.35,1542.14 2129.08,1542.14 C2128.09,1542.14 2127.55,1542.59 2127.55,1543.4 C2127.55,1544.12 2128.05,1544.57 2128.86,1544.57 C2129.08,1544.57 2129.4,1544.52 2129.76,1544.48 C2130.39,1544.34 2131.06,1544.3 2131.47,1544.3 C2133.58,1544.3 2135.02,1546.19 2135.02,1548.98 C2135.02,1553.84 2132.64,1558.52 2127.19,1558.52 C2124.67,1558.52 2122.51,1557.26 2122.51,1555.82 C2122.51,1555.32 2122.69,1555.14 2123.41,1554.83 C2124.72,1554.24 2125.26,1553.43 2125.26,1552.22 C2125.26,1550.64 2124,1549.43 2122.38,1549.43 C2120.44,1549.43 2119.18,1550.96 2119.18,1553.3 C2119.18,1557.66 2122.51,1560.41 2127.91,1560.41 C2134.71,1560.41 2139.88,1555.86 2139.88,1549.83 C2139.88,1546.32 2137.72,1544.34 2134.57,1543.35"/>
<polyline class="Tuplet" fill="none" stroke="#000000" stroke-width="2.48" stroke-linejoin="miter" stroke-miterlimit="2" points="2054.19,1562.83 2054.19,1544.23 2106.79,1544.23"/>
<polyline class="Tuplet" fill="none" stroke="#000000" stroke-width="2.48" stroke-linejoin="miter" stroke-miterlimit="2" points="2154.45,1544.23 2207.05,1544.23 2207.05,1562.83"/>
<path class="Tuplet" d="M567.839,600.954 C569.954,600.279 570.809,599.919 571.889,599.199 C574.004,597.804 575.309,595.329 575.309,592.809 C575.309,588.534 571.889,585.654 566.849,585.654 C561.944,585.654 557.804,588.714 557.804,592.404 C557.804,594.249 558.929,595.509 560.639,595.509 C562.124,595.509 563.204,594.429 563.204,592.944 C563.204,592.179 562.979,591.639 562.259,590.919 C561.809,590.514 561.629,590.199 561.629,589.884 C561.629,588.804 563.879,587.679 565.994,587.679 C569.009,587.679 570.809,589.344 570.809,592.134 C570.809,596.139 567.974,599.919 564.959,599.919 C564.824,599.919 564.419,599.874 563.924,599.829 C562.619,599.739 562.619,599.739 562.349,599.739 C561.359,599.739 560.819,600.189 560.819,600.999 C560.819,601.719 561.314,602.169 562.124,602.169 C562.349,602.169 562.664,602.124 563.024,602.079 C563.654,601.944 564.329,601.899 564.734,601.899 C566.849,601.899 568.289,603.789 568.289,606.579 C568.289,611.439 565.904,616.119 560.459,616.119 C557.939,616.119 555.779,614.859 555.779,613.419 C555.779,612.924 555.959,612.744 556.679,612.429 C557.984,611.844 558.524,611.034 558.524,609.819 C558.524,608.244 557.264,607.029 555.644,607.029 C553.709,607.029 552.449,608.559 552.449,610.899 C552.449,615.264 555.779,618.009 561.179,618.009 C567.974,618.009 573.149,613.464 573.149,607.434 C573.149,603.924 570.989,601.944 567.839,600.954"/>
<polyline class="Tuplet" fill="none" stroke="#000000" stroke-width="2.48" stroke-linejoin="miter" stroke-miterlimit="2" points="476.377,620.434 476.377,601.834 540.053,601.834"/>
<polyline class="Tuplet" fill="none" stroke="#000000" stroke-width="2.48" stroke-linejoin="miter" stroke-miterlimit="2" points="587.712,601.834 651.388,601.834 651.388,620.434"/>
<path class="Tuplet" d="M710.1,1053.55 C712.215,1052.87 713.07,1052.51 714.15,1051.79 C716.265,1050.4 717.57,1047.92 717.57,1045.4 C717.57,1041.13 714.15,1038.25 709.11,1038.25 C704.205,1038.25 700.065,1041.31 700.065,1045 C700.065,1046.84 701.19,1048.1 702.9,1048.1 C704.385,1048.1 705.465,1047.02 705.465,1045.54 C705.465,1044.77 705.24,1044.23 704.52,1043.51 C704.07,1043.11 703.89,1042.79 703.89,1042.48 C703.89,1041.4 706.14,1040.27 708.255,1040.27 C711.27,1040.27 713.07,1041.94 713.07,1044.73 C713.07,1048.73 710.235,1052.51 707.22,1052.51 C707.085,1052.51 706.68,1052.47 706.185,1052.42 C704.88,1052.33 704.88,1052.33 704.61,1052.33 C703.62,1052.33 703.08,1052.78 703.08,1053.59 C703.08,1054.31 703.575,1054.76 704.385,1054.76 C704.61,1054.76 704.925,1054.72 705.285,1054.67 C705.915,1054.54 706.59,1054.49 706.995,1054.49 C709.11,1054.49 710.55,1056.38 710.55,1059.17 C710.55,1064.03 708.165,1068.71 702.72,1068.71 C700.2,1068.71 698.04,1067.45 698.04,1066.01 C698.04,1065.52 698.22,1065.34 698.94,1065.02 C700.245,1064.44 700.785,1063.63 700.785,1062.41 C700.785,1060.84 699.525,1059.62 697.905,1059.62 C695.97,1059.62 694.71,1061.15 694.71,1063.49 C694.71,1067.86 698.04,1070.6 703.44,1070.6 C710.235,1070.6 715.41,1066.06 715.41,1060.03 C715.41,1056.52 713.25,1054.54 710.1,1053.55"/>
<polyline class="Tuplet" fill="none" stroke="#000000" stroke-width="2.48" stroke-linejoin="miter" stroke-miterlimit="2" points="639.317,1072.93 639.317,1054.33 682.314,1054.39"/>
<polyline class="Tuplet" fill="none" stroke="#000000" stroke-width="2.48" stroke-linejoin="miter" stroke-miterlimit="2" points="729.973,1054.46 772.97,1054.53 772.97,1073.13"/>
<path class="Tuplet" d="M2428.81,1264.64 C2430.93,1263.97 2431.78,1263.61 2432.86,1262.89 C2434.98,1261.49 2436.28,1259.02 2436.28,1256.5 C2436.28,1252.22 2432.86,1249.34 2427.82,1249.34 C2422.92,1249.34 2418.78,1252.4 2418.78,1256.09 C2418.78,1257.94 2419.9,1259.2 2421.61,1259.2 C2423.1,1259.2 2424.18,1258.12 2424.18,1256.63 C2424.18,1255.87 2423.95,1255.33 2423.23,1254.61 C2422.78,1254.2 2422.6,1253.89 2422.6,1253.57 C2422.6,1252.49 2424.85,1251.37 2426.97,1251.37 C2429.98,1251.37 2431.78,1253.03 2431.78,1255.82 C2431.78,1259.83 2428.95,1263.61 2425.93,1263.61 C2425.8,1263.61 2425.39,1263.56 2424.9,1263.52 C2423.59,1263.43 2423.59,1263.43 2423.32,1263.43 C2422.33,1263.43 2421.79,1263.88 2421.79,1264.69 C2421.79,1265.41 2422.29,1265.86 2423.1,1265.86 C2423.32,1265.86 2423.64,1265.81 2424,1265.77 C2424.63,1265.63 2425.3,1265.59 2425.71,1265.59 C2427.82,1265.59 2429.26,1267.48 2429.26,1270.27 C2429.26,1275.13 2426.88,1279.81 2421.43,1279.81 C2418.91,1279.81 2416.75,1278.55 2416.75,1277.11 C2416.75,1276.61 2416.93,1276.43 2417.65,1276.12 C2418.96,1275.53 2419.5,1274.72 2419.5,1273.51 C2419.5,1271.93 2418.24,1270.72 2416.62,1270.72 C2414.68,1270.72 2413.42,1272.25 2413.42,1274.59 C2413.42,1278.95 2416.75,1281.7 2422.15,1281.7 C2428.95,1281.7 2434.12,1277.15 2434.12,1271.12 C2434.12,1267.61 2431.96,1265.63 2428.81,1264.64"/>
<polyline class="Tuplet" fill="none" stroke="#000000" stroke-width="2.48" stroke-linejoin="miter" stroke-miterlimit="2" points="2358.03,1243.87 2358.03,1262.47 2401.03,1264.43"/>
<polyline class="Tuplet" fill="none" stroke="#000000" stroke-width="2.48" stroke-linejoin="miter" stroke-miterlimit="2" points="2448.69,1266.61 2491.68,1268.57 2491.68,1249.97"/>
<path class="Tuplet" d="M911.774,1053.55 C913.889,1052.87 914.744,1052.51 915.824,1051.79 C917.939,1050.4 919.244,1047.92 919.244,1045.4 C919.244,1041.13 915.824,1038.25 910.784,1038.25 C905.879,1038.25 901.739,1041.31 901.739,1045 C901.739,1046.84 902.864,1048.1 904.574,1048.1 C906.059,1048.1 907.139,1047.02 907.139,1045.54 C907.139,1044.77 906.914,1044.23 906.194,1043.51 C905.744,1043.11 905.564,1042.79 905.564,1042.48 C905.564,1041.4 907.814,1040.27 909.929,1040.27 C912.944,1040.27 914.744,1041.94 914.744,1044.73 C914.744,1048.73 911.909,1052.51 908.894,1052.51 C908.759,1052.51 908.354,1052.47 907.859,1052.42 C906.554,1052.33 906.554,1052.33 906.284,1052.33 C905.294,1052.33 904.754,1052.78 904.754,1053.59 C904.754,1054.31 905.249,1054.76 906.059,1054.76 C906.284,1054.76 906.599,1054.72 906.959,1054.67 C907.589,1054.54 908.264,1054.49 908.669,1054.49 C910.784,1054.49 912.224,1056.38 912.224,1059.17 C912.224,1064.03 909.839,1068.71 904.394,1068.71 C901.874,1068.71 899.714,1067.45 899.714,1066.01 C899.714,1065.52 899.894,1065.34 900.614,1065.02 C901.919,1064.44 902.459,1063.63 902.459,1062.41 C902.459,1060.84 901.199,1059.62 899.579,1059.62 C897.644,1059.62 896.384,1061.15 896.384,1063.49 C896.384,1067.86 899.714,1070.6 905.114,1070.6 C911.909,1070.6 917.084,1066.06 917.084,1060.03 C917.084,1056.52 914.924,1054.54 911.774,1053.55"/>
<polyline class="Tuplet" fill="none" stroke="#000000" stroke-width="2.48" stroke-linejoin="miter" stroke-miterlimit="2" points="840.991,1072.93 840.991,1054.33 883.988,1054.39"/>
<polyline class="Tuplet" fill="none" stroke="#000000" stroke-width="2.48" stroke-linejoin="miter" stroke-miterlimit="2" points="931.647,1054.46 974.644,1054.53 974.644,1073.13"/>
<path class="Harmony" d="M786.402,532.103 L784.312,532.103 L782.167,535.403 C778.592,532.598 776.172,531.663 772.157,531.663 C767.812,531.663 764.402,532.873 760.937,535.678 C755.492,540.078 752.962,545.633 752.962,553.058 C752.962,558.668 754.557,563.343 757.802,566.918 C761.212,570.768 766.272,573.023 771.552,573.023 C776.172,573.023 779.417,571.593 782.992,568.018 L785.027,572.968 L787.337,572.968 L787.337,560.868 C787.337,558.063 787.337,557.953 787.667,557.458 C788.162,556.853 789.152,556.688 792.287,556.688 L793.112,556.688 L793.112,554.103 L775.622,554.103 L775.622,556.688 L776.667,556.688 C781.287,556.688 781.672,556.963 781.672,560.043 C781.672,562.408 781.287,564.553 780.572,565.873 C779.197,568.568 775.677,570.438 772.102,570.438 C768.527,570.438 765.007,568.623 763.137,565.873 C761.102,562.793 760.222,558.943 760.222,553.058 C760.222,540.793 764.292,534.248 771.937,534.248 C778.207,534.248 782.552,538.758 784.807,547.558 L787.172,547.558 L786.402,532.103 "/>
</svg>
