<?xml version="1.0" encoding="UTF-8" standalone="no"?>
<svg width="2977.2px" height="4208.4px" viewBox="0 0 2977.2 4208.4"
 xmlns="http://www.w3.org/2000/svg" xmlns:xlink="http://www.w3.org/1999/xlink" version="1.2" baseProfile="tiny">
<title>新世界より</title>
<desc>Generated by MuseScore Studio 4.4.3</desc>
<path class="" fill="#ffffff" fill-rule="evenodd" d="M0,0 L2977.2,0 L2977.2,4208.4 L0,4208.4 L0,0 "/>
<polyline class="StaffLines" fill="none" stroke="#000000" stroke-width="2.73" stroke-linejoin="bevel" points="212.598,634.198 2764.6,634.198"/>
<polyline class="StaffLines" fill="none" stroke="#000000" stroke-width="2.73" stroke-linejoin="bevel" points="212.598,658.998 2764.6,658.998"/>
<polyline class="StaffLines" fill="none" stroke="#000000" stroke-width="2.73" stroke-linejoin="bevel" points="212.598,683.798 2764.6,683.798"/>
<polyline class="StaffLines" fill="none" stroke="#000000" stroke-width="2.73" stroke-linejoin="bevel" points="212.598,708.598 2764.6,708.598"/>
<polyline class="StaffLines" fill="none" stroke="#000000" stroke-width="2.73" stroke-linejoin="bevel" points="212.598,733.398 2764.6,733.398"/>
<polyline class="StaffLines" fill="none" stroke="#000000" stroke-width="2.73" stroke-linejoin="bevel" points="212.598,1316.2 2764.6,1316.2"/>
<polyline class="StaffLines" fill="none" stroke="#000000" stroke-width="2.73" stroke-linejoin="bevel" points="212.598,1341 2764.6,1341"/>
<polyline class="StaffLines" fill="none" stroke="#000000" stroke-width="2.73" stroke-linejoin="bevel" points="212.598,1365.8 2764.6,1365.8"/>
<polyline class="StaffLines" fill="none" stroke="#000000" stroke-width="2.73" stroke-linejoin="bevel" points="212.598,1390.6 2764.6,1390.6"/>
<polyline class="StaffLines" fill="none" stroke="#000000" stroke-width="2.73" stroke-linejoin="bevel" points="212.598,1415.4 2764.6,1415.4"/>
<path class="Text" d="M1297.09,247.792 L1297.09,228.982 C1311.28,226.672 1319.64,224.582 1328.77,220.842 C1331.63,219.632 1331.74,219.632 1332.73,219.302 L1327.12,213.142 C1324.37,215.122 1321.62,216.332 1317,217.872 C1307.98,220.732 1296.76,222.932 1290.93,222.932 C1290.71,222.932 1290.16,222.932 1289.61,222.932 C1289.94,226.122 1290.16,230.852 1290.16,243.282 C1290.16,280.022 1286.86,295.422 1276.3,308.402 C1279.05,309.832 1280.26,310.822 1282.57,313.022 C1286.31,307.962 1288.51,303.782 1290.71,297.952 C1294.56,287.942 1296.87,273.092 1296.98,258.462 C1296.98,255.602 1296.98,255.602 1296.98,254.172 L1314.25,254.172 L1314.25,302.132 C1314.25,307.522 1314.03,310.272 1313.59,313.132 L1322.06,313.132 C1321.51,310.382 1321.4,307.632 1321.4,302.132 L1321.4,254.172 L1325.47,254.172 C1329.98,254.172 1332.4,254.282 1335.15,254.722 L1335.15,247.132 C1332.62,247.572 1329.98,247.792 1325.03,247.792 L1297.09,247.792 M1264.64,223.262 L1264.64,220.292 C1264.64,216.662 1264.75,214.902 1265.19,212.592 L1257.16,212.592 C1257.6,215.012 1257.71,216.772 1257.71,220.292 L1257.71,223.262 L1246.71,223.262 C1241.87,223.262 1239.56,223.152 1237.03,222.712 L1237.03,230.082 C1239.89,229.642 1241.98,229.532 1246.6,229.532 L1274.76,229.532 C1279.05,229.532 1281.14,229.642 1284.11,230.082 L1284.11,222.712 C1281.47,223.152 1279.38,223.262 1274.87,223.262 L1264.64,223.262 M1243.96,248.562 C1239.56,248.562 1237.25,248.452 1234.83,248.012 L1234.83,255.382 C1237.36,254.942 1239.67,254.832 1243.96,254.832 L1276.63,254.832 C1280.59,254.832 1282.79,254.942 1285.54,255.382 L1285.54,248.012 C1283.01,248.452 1280.81,248.562 1276.63,248.562 L1270.14,248.562 C1272.67,244.272 1274.98,239.212 1277.62,232.612 L1271.02,230.522 C1269.48,237.122 1267.5,242.072 1263.65,248.562 L1243.96,248.562 M1255.4,273.092 C1252.32,278.812 1250.67,281.122 1247.37,284.862 C1243.3,289.372 1238.57,293.332 1233.07,296.962 C1234.83,298.832 1236.04,300.592 1237.25,303.122 C1247.26,295.422 1253.53,288.162 1258.04,278.702 C1257.82,282.332 1257.71,285.192 1257.71,287.832 L1257.71,303.452 C1257.71,307.082 1257.49,310.052 1257.05,312.912 L1264.64,312.912 C1264.2,309.942 1264.09,307.302 1264.09,303.452 L1264.09,287.502 C1263.98,283.432 1263.87,280.242 1263.65,277.822 C1267.94,284.422 1270.25,286.952 1277.4,293.002 C1278.72,290.472 1279.49,289.152 1281.25,287.062 C1273,281.782 1269.92,278.922 1265.74,273.092 L1276.19,273.092 C1280.37,273.092 1282.57,273.202 1285.1,273.642 L1285.1,266.492 C1282.24,267.042 1280.04,267.152 1276.19,267.152 L1264.09,267.152 L1264.09,261.322 C1264.09,259.892 1264.2,258.132 1264.53,256.812 L1257.16,256.812 C1257.49,258.132 1257.71,259.892 1257.71,261.322 L1257.71,267.152 L1244.29,267.152 C1239.78,267.152 1237.58,267.042 1235.05,266.492 L1235.05,273.752 C1237.69,273.202 1239.78,273.092 1244.07,273.092 L1255.4,273.092 M1255.51,245.482 C1253.64,239.432 1252.32,236.132 1249.24,230.632 L1243.41,232.832 C1246.38,238.002 1247.81,241.412 1249.68,247.572 L1255.51,245.482 M1359.79,238.882 L1354.62,238.882 C1349.89,238.882 1346.59,238.662 1343.51,238.222 L1343.51,245.922 C1346.7,245.482 1350.11,245.262 1354.62,245.262 L1359.79,245.262 L1359.79,299.822 C1359.79,306.202 1359.57,309.942 1359.13,313.462 L1367.05,313.462 L1367.05,306.532 L1427.88,306.532 C1432.61,306.532 1436.24,306.752 1439.65,307.192 L1439.65,299.162 C1436.02,299.602 1432.83,299.822 1427.88,299.822 L1367.05,299.822 L1367.05,245.262 L1389.05,245.262 L1389.05,271.442 C1389.05,275.072 1388.94,277.822 1388.61,280.352 C1391.25,280.022 1393.67,279.912 1397.52,279.912 L1418.09,279.912 C1421.83,279.912 1424.47,280.022 1426.89,280.352 C1426.56,277.602 1426.45,274.852 1426.45,271.222 L1426.45,245.262 L1433.49,245.262 C1438,245.262 1441.41,245.482 1444.6,245.922 L1444.6,238.222 C1441.63,238.662 1438.22,238.882 1433.49,238.882 L1426.45,238.882 L1426.45,225.022 C1426.45,220.952 1426.67,217.652 1427.22,213.802 L1418.75,213.802 C1419.3,217.542 1419.52,220.842 1419.52,225.022 L1419.52,238.882 L1396.09,238.882 L1396.09,225.022 C1396.09,220.952 1396.31,217.432 1396.86,213.802 L1388.28,213.802 C1388.83,217.432 1389.05,221.062 1389.05,225.132 L1389.05,238.882 L1367.05,238.882 L1367.05,225.572 C1367.05,220.952 1367.27,217.322 1367.82,213.912 L1359.02,213.912 C1359.57,217.872 1359.79,221.392 1359.79,225.572 L1359.79,238.882 M1419.52,245.262 L1419.52,273.642 L1396.09,273.642 L1396.09,245.262 L1419.52,245.262 M1488.93,260.222 C1481.01,270.012 1470.56,276.282 1453.73,281.232 C1455.93,283.762 1456.48,284.532 1457.91,287.502 C1469.24,283.212 1476.39,279.472 1483.32,274.192 C1489.04,269.902 1492.45,266.382 1496.96,260.222 L1511.26,260.222 C1516.21,266.492 1519.07,269.242 1523.91,272.982 L1516.54,272.982 C1516.98,275.402 1517.09,276.832 1517.09,281.452 L1517.09,301.582 C1517.09,306.862 1516.87,309.832 1516.43,312.802 L1524.79,312.802 C1524.35,309.502 1524.13,306.312 1524.13,301.582 L1524.13,280.902 C1524.13,277.492 1524.24,275.512 1524.57,273.422 C1532.49,279.362 1539.2,282.772 1551.52,287.172 C1552.62,284.422 1553.39,282.882 1555.37,280.462 C1539.2,276.282 1527.76,269.792 1519.29,260.222 L1533.15,260.222 C1537.11,260.222 1540.19,260.332 1543.49,260.772 C1543.16,257.912 1543.05,255.162 1543.05,250.432 L1543.05,227.552 C1543.05,222.492 1543.16,219.632 1543.49,216.772 C1540.3,217.212 1537.11,217.322 1533.04,217.322 L1475.84,217.322 C1471.66,217.322 1468.47,217.212 1465.39,216.772 C1465.72,219.742 1465.83,222.712 1465.83,227.552 L1465.83,250.432 C1465.83,254.942 1465.72,257.802 1465.39,260.772 C1468.69,260.332 1471.77,260.222 1475.62,260.222 L1488.93,260.222 M1472.65,223.152 L1500.59,223.152 L1500.59,236.022 L1472.65,236.022 L1472.65,223.152 M1472.65,241.742 L1500.59,241.742 L1500.59,254.612 L1472.65,254.612 L1472.65,241.742 M1507.08,223.152 L1536.23,223.152 L1536.23,236.022 L1507.08,236.022 L1507.08,223.152 M1507.08,241.742 L1536.23,241.742 L1536.23,254.612 L1507.08,254.612 L1507.08,241.742 M1486.4,273.202 C1486.62,274.742 1486.73,276.612 1486.73,279.252 C1486.73,287.502 1484.09,294.102 1479.36,298.172 C1474.74,301.912 1469.57,304.332 1459.34,307.302 C1462.42,310.712 1462.86,311.262 1464.18,313.572 C1471.55,310.822 1474.19,309.722 1477.16,307.962 C1480.68,305.872 1484.09,303.122 1486.29,300.702 C1491.13,295.422 1493.11,289.262 1493.77,278.042 C1493.99,275.512 1493.99,274.632 1494.32,273.312 L1486.4,273.202 "/>
<path class="Text" d="M1608.5,215.892 C1608.94,218.532 1608.94,219.412 1609.05,224.802 C1609.16,240.532 1609.93,261.762 1610.81,274.412 C1610.81,274.742 1610.81,274.962 1610.81,275.072 C1610.92,275.512 1610.92,275.622 1610.92,276.062 C1610.59,275.842 1610.59,275.842 1610.37,275.842 C1609.93,275.842 1609.93,275.732 1609.38,275.622 C1607.07,275.072 1603.11,274.632 1599.81,274.632 C1584.19,274.632 1573.96,281.452 1573.96,292.012 C1573.96,302.132 1582.65,308.292 1596.84,308.292 C1605.97,308.292 1613.01,305.542 1616.42,300.702 C1618.18,298.282 1619.17,294.212 1619.17,289.592 C1619.17,288.162 1618.95,286.072 1618.73,284.862 C1619.72,285.412 1619.83,285.412 1621.37,286.072 C1625.11,287.722 1631.16,291.132 1636.22,294.542 C1642.16,298.502 1645.35,301.252 1647.66,304.112 L1652.83,296.412 C1650.08,294.762 1650.08,294.652 1647.77,293.002 C1636.33,284.752 1627.31,279.912 1618.4,277.382 C1617.85,270.342 1617.3,259.672 1616.97,249.002 C1626.1,248.782 1633.58,248.122 1643.48,246.582 C1648.21,245.922 1648.21,245.922 1650.08,245.812 L1649.09,237.672 C1643.04,240.092 1628.96,241.852 1616.86,241.852 C1616.64,234.042 1616.64,232.832 1616.64,230.412 C1616.64,221.832 1616.75,218.642 1617.3,215.892 L1608.5,215.892 M1611.03,283.102 C1611.14,283.102 1611.36,287.502 1611.36,289.152 C1611.36,293.332 1610.59,295.642 1608.72,297.402 C1606.08,299.712 1601.79,301.032 1596.51,301.032 C1590.68,301.032 1585.62,299.382 1583.31,296.632 C1582.32,295.532 1581.66,293.662 1581.66,291.902 C1581.66,285.522 1588.48,281.562 1599.7,281.562 C1603.99,281.562 1606.52,281.892 1611.03,283.102 M1698.48,215.452 C1698.48,216.772 1698.37,217.322 1698.15,218.972 C1695.4,238.442 1694.41,248.782 1694.41,259.562 C1694.41,260.112 1694.41,261.102 1694.41,262.092 L1694.63,273.532 L1694.74,275.512 C1694.74,275.732 1694.74,276.172 1694.74,276.722 L1702.66,276.392 C1702.55,274.742 1702.55,274.192 1702.55,273.752 C1702.55,265.722 1704.64,257.252 1708.49,249.222 C1714.76,236.352 1721.8,230.082 1730.16,230.082 C1740.72,230.082 1746.88,240.312 1746.88,258.022 C1746.88,275.622 1740.83,287.172 1727.96,294.542 C1721.58,298.172 1715.86,299.932 1705.63,301.472 C1708.05,304.442 1708.71,305.652 1710.03,308.952 C1717.73,307.302 1724.33,305.102 1729.61,302.462 C1746.11,294.212 1755.02,279.142 1755.02,259.232 C1755.02,247.462 1753.04,239.322 1748.42,232.502 C1744.13,226.122 1737.97,222.712 1730.82,222.712 C1722.24,222.712 1714.98,227.442 1708.82,236.902 C1705.63,241.852 1703.43,247.242 1702.11,253.292 C1701.56,255.602 1701.56,255.602 1701.34,256.482 L1700.9,256.372 C1701.23,250.762 1702.77,238.772 1704.53,227.662 C1705.52,221.722 1706.18,218.642 1707.06,216.332 L1698.48,215.452 "/>
<path class="MeasureNumber" d="M216.922,1251.28 C215.682,1252.04 215.322,1252.52 215.322,1253.32 C215.322,1254.08 215.962,1254.64 216.762,1254.64 C217.802,1254.64 218.402,1253.88 218.522,1252.4 C219.762,1251.4 221.082,1250.96 222.682,1250.96 C225.642,1250.96 227.282,1252.8 227.282,1256.12 C227.282,1261.32 223.922,1265.56 219.802,1265.56 C217.442,1265.56 215.522,1264.44 215.522,1263.12 C215.522,1262.88 215.562,1262.8 215.762,1262.68 C217.042,1262.08 218.082,1261.64 218.082,1259.96 C218.082,1258.68 217.082,1257.72 215.682,1257.72 C213.922,1257.72 212.602,1259.2 212.602,1261.12 C212.602,1264.64 215.642,1267.2 219.922,1267.2 C226.402,1267.2 231.642,1262.04 231.642,1255.64 C231.642,1251.6 228.562,1248.76 224.202,1248.76 C222.482,1248.76 221.082,1249.12 219.162,1250.08 L221.402,1242.52 C223.522,1242.96 225.202,1243.16 226.642,1243.16 C229.282,1243.16 231.642,1242.32 232.962,1240.92 C233.642,1240.12 234.042,1239.44 234.042,1238.92 C234.042,1238.68 233.922,1238.44 233.762,1238.44 C233.642,1238.44 233.562,1238.48 233.322,1238.6 C232.002,1239.24 230.322,1239.6 228.762,1239.6 C226.362,1239.6 223.522,1239.2 220.562,1238.44 L216.922,1251.28 "/>
<polyline class="BarLine" fill="none" stroke="#000000" stroke-width="4.46" stroke-linejoin="bevel" points="1043.29,632.834 1043.29,734.762"/>
<polyline class="BarLine" fill="none" stroke="#000000" stroke-width="4.46" stroke-linejoin="bevel" points="2762.37,1314.83 2762.37,1416.76"/>
<polyline class="BarLine" fill="none" stroke="#000000" stroke-width="4.46" stroke-linejoin="bevel" points="2277.15,1314.83 2277.15,1416.76"/>
<polyline class="BarLine" fill="none" stroke="#000000" stroke-width="4.46" stroke-linejoin="bevel" points="1555.41,1314.83 1555.41,1416.76"/>
<polyline class="BarLine" fill="none" stroke="#000000" stroke-width="4.46" stroke-linejoin="bevel" points="1005.07,1314.83 1005.07,1416.76"/>
<polyline class="BarLine" fill="none" stroke="#000000" stroke-width="4.46" stroke-linejoin="bevel" points="2762.37,632.834 2762.37,734.762"/>
<polyline class="BarLine" fill="none" stroke="#000000" stroke-width="4.46" stroke-linejoin="bevel" points="2202.71,632.834 2202.71,734.762"/>
<polyline class="BarLine" fill="none" stroke="#000000" stroke-width="4.46" stroke-linejoin="bevel" points="1593.12,632.834 1593.12,734.762"/>
<polyline class="LedgerLine" fill="none" stroke="#000000" stroke-width="3.97" stroke-linejoin="bevel" points="2116.82,1440.2 2165.41,1440.2"/>
<polyline class="LedgerLine" fill="none" stroke="#000000" stroke-width="3.97" stroke-linejoin="bevel" points="1992.6,758.198 2041.19,758.198"/>
<polyline class="Stem" fill="none" stroke="#000000" stroke-width="2.48" stroke-linejoin="bevel" points="509.113,1399.03 509.113,1316.2"/>
<polyline class="Stem" fill="none" stroke="#000000" stroke-width="2.48" stroke-linejoin="bevel" points="922.275,692.23 922.275,615.598"/>
<polyline class="Stem" fill="none" stroke="#000000" stroke-width="2.48" stroke-linejoin="bevel" points="2155.99,1436.23 2155.99,1353.4"/>
<polyline class="Stem" fill="none" stroke="#000000" stroke-width="2.48" stroke-linejoin="bevel" points="1297.37,717.03 1297.37,634.397"/>
<polyline class="Stem" fill="none" stroke="#000000" stroke-width="2.48" stroke-linejoin="bevel" points="1657.34,717.03 1657.34,634.198"/>
<polyline class="Stem" fill="none" stroke="#000000" stroke-width="2.48" stroke-linejoin="bevel" points="1976.32,1357.56 1976.32,1434"/>
<polyline class="Stem" fill="none" stroke="#000000" stroke-width="2.48" stroke-linejoin="bevel" points="1881.99,729.43 1881.99,646.598"/>
<polyline class="Stem" fill="none" stroke="#000000" stroke-width="2.48" stroke-linejoin="bevel" points="1927.23,1374.23 1927.23,1310"/>
<polyline class="Stem" fill="none" stroke="#000000" stroke-width="2.48" stroke-linejoin="bevel" points="2031.77,754.23 2031.77,665.123"/>
<polyline class="Stem" fill="none" stroke="#000000" stroke-width="2.48" stroke-linejoin="bevel" points="733.991,1386.63 733.991,1303.8"/>
<polyline class="Stem" fill="none" stroke="#000000" stroke-width="2.48" stroke-linejoin="bevel" points="1848.38,1399.03 1848.38,1310"/>
<polyline class="Stem" fill="none" stroke="#000000" stroke-width="2.48" stroke-linejoin="bevel" points="1769.54,1374.23 1769.54,1310"/>
<polyline class="Stem" fill="none" stroke="#000000" stroke-width="2.48" stroke-linejoin="bevel" points="2131.61,729.43 2131.61,659.074"/>
<polyline class="Stem" fill="none" stroke="#000000" stroke-width="2.48" stroke-linejoin="bevel" points="1619.62,1399.03 1619.62,1316.2"/>
<polyline class="Stem" fill="none" stroke="#000000" stroke-width="2.48" stroke-linejoin="bevel" points="772.504,704.63 772.504,621.798"/>
<polyline class="Stem" fill="none" stroke="#000000" stroke-width="2.48" stroke-linejoin="bevel" points="2341.37,1399.03 2341.37,1316.2"/>
<polyline class="Stem" fill="none" stroke="#000000" stroke-width="2.48" stroke-linejoin="bevel" points="1107.51,704.63 1107.51,621.798"/>
<polyline class="Stem" fill="none" stroke="#000000" stroke-width="2.48" stroke-linejoin="bevel" points="2266.92,717.03 2266.92,634.198"/>
<polyline class="Stem" fill="none" stroke="#000000" stroke-width="2.48" stroke-linejoin="bevel" points="1359.28,1399.03 1359.28,1316.2"/>
<polyline class="Stem" fill="none" stroke="#000000" stroke-width="2.48" stroke-linejoin="bevel" points="1259.34,1399.03 1259.34,1316.4"/>
<polyline class="Stem" fill="none" stroke="#000000" stroke-width="2.48" stroke-linejoin="bevel" points="2641.35,717.03 2641.35,634.198"/>
<polyline class="Stem" fill="none" stroke="#000000" stroke-width="2.48" stroke-linejoin="bevel" points="883.909,1374.23 883.909,1297.6"/>
<polyline class="Stem" fill="none" stroke="#000000" stroke-width="2.48" stroke-linejoin="bevel" points="1069.29,1386.63 1069.29,1303.8"/>
<polyline class="Stem" fill="none" stroke="#000000" stroke-width="2.48" stroke-linejoin="bevel" points="547.848,717.03 547.848,634.198"/>
<polyline class="Stem" fill="none" stroke="#000000" stroke-width="2.48" stroke-linejoin="bevel" points="1397.22,717.03 1397.22,634.198"/>
<path class="Hook" transform="matrix(0.992,0,0,0.992,1258.1,1316.2)" d="M0,22.7 C0,23 0.1,23.6 0.8,23.8 C5.1,25.2 13.7,30.6 20.2,41.7 C22,44.8 24.9,49.1 24.9,57.4 C24.9,64.6 23.1,72 20.4,79.2 C20.2,79.8 20.1,80.3 20.1,80.7 C20.1,81.4 20.5,81.7 21.2,81.7 C21.8,81.7 22.3,81.3 22.7,80.6 C27.2,72.6 28.9,63.3 28.9,54.2 C28.4,41.3 21,31.8 21,31.8 C21.3,31.8 11.8,19.5 9.1,15.3 C5.4,9.6 3.7,3.9 3.5,3.5 C3.4,3.2 2.5,-0.4 2.5,-0.4 C2.4,-0.8 1.9,-1.2 1.3,-1.2 C0.6,-1.2 0,-0.6 0,0.1 L0,22.7 "/>
<path class="Hook" transform="matrix(0.992,0,0,0.992,1296.13,634.198)" d="M0,22.7 C0,23 0.1,23.6 0.8,23.8 C5.1,25.2 13.7,30.6 20.2,41.7 C22,44.8 24.9,49.1 24.9,57.4 C24.9,64.6 23.1,72 20.4,79.2 C20.2,79.8 20.1,80.3 20.1,80.7 C20.1,81.4 20.5,81.7 21.2,81.7 C21.8,81.7 22.3,81.3 22.7,80.6 C27.2,72.6 28.9,63.3 28.9,54.2 C28.4,41.3 21,31.8 21,31.8 C21.3,31.8 11.8,19.5 9.1,15.3 C5.4,9.6 3.7,3.9 3.5,3.5 C3.4,3.2 2.5,-0.4 2.5,-0.4 C2.4,-0.8 1.9,-1.2 1.3,-1.2 C0.6,-1.2 0,-0.6 0,0.1 L0,22.7 "/>
<path class="Note" transform="matrix(0.992,0,0,0.992,891.291,696.198)" d="M0,4.2 C0,8.5 3.1,13.3 11.2,13.3 C21.6,13.3 32.5,4.8 32.5,-4 C32.5,-9.9 27.5,-13.2 21.3,-13.2 C11.6,-13.2 0,-5 0,4.2"/>
<path class="Note" transform="matrix(0.992,0,0,0.992,2000.78,758.198)" d="M0,4.2 C0,8.5 3.1,13.3 11.2,13.3 C21.6,13.3 32.5,4.8 32.5,-4 C32.5,-9.9 27.5,-13.2 21.3,-13.2 C11.6,-13.2 0,-5 0,4.2"/>
<path class="Note" transform="matrix(0.992,0,0,0.992,741.52,708.598)" d="M0,4.2 C0,8.5 3.1,13.3 11.2,13.3 C21.6,13.3 32.5,4.8 32.5,-4 C32.5,-9.9 27.5,-13.2 21.3,-13.2 C11.6,-13.2 0,-5 0,4.2"/>
<path class="Note" transform="matrix(0.992,0,0,0.992,703.006,1390.6)" d="M0,4.2 C0,8.5 3.1,13.3 11.2,13.3 C21.6,13.3 32.5,4.8 32.5,-4 C32.5,-9.9 27.5,-13.2 21.3,-13.2 C11.6,-13.2 0,-5 0,4.2"/>
<path class="Note" transform="matrix(0.992,0,0,0.992,1975.08,1353.4)" d="M0,4.2 C0,8.5 3.1,13.3 11.2,13.3 C21.6,13.3 32.5,4.8 32.5,-4 C32.5,-9.9 27.5,-13.2 21.3,-13.2 C11.6,-13.2 0,-5 0,4.2"/>
<path class="Note" transform="matrix(0.992,0,0,0.992,852.924,1378.2)" d="M0,4.2 C0,8.5 3.1,13.3 11.2,13.3 C21.6,13.3 32.5,4.8 32.5,-4 C32.5,-9.9 27.5,-13.2 21.3,-13.2 C11.6,-13.2 0,-5 0,4.2"/>
<path class="Note" transform="matrix(0.992,0,0,0.992,1626.35,720.998)" d="M21.3,-13.2 C11.6,-13.2 0,-5.1 0,4.2 C0,8.5 3.1,13.3 11.2,13.3 C21.6,13.3 32.5,4.8 32.5,-4 C32.5,-9.9 27.5,-13.2 21.3,-13.2 M7.5,8.6 C4.2,8.6 3.5,5.9 3.5,5 C3.5,0.1 20.3,-8.5 25,-8.5 C27.4,-8.5 29,-7.1 29,-4.9 C29,0.1 12.1,8.6 7.5,8.6"/>
<path class="Note" transform="matrix(0.992,0,0,0.992,1896.24,1378.2)" d="M0,4.2 C0,8.5 3.1,13.3 11.2,13.3 C21.6,13.3 32.5,4.8 32.5,-4 C32.5,-9.9 27.5,-13.2 21.3,-13.2 C11.6,-13.2 0,-5 0,4.2"/>
<path class="Note" transform="matrix(0.992,0,0,0.992,516.863,720.998)" d="M21.3,-13.2 C11.6,-13.2 0,-5.1 0,4.2 C0,8.5 3.1,13.3 11.2,13.3 C21.6,13.3 32.5,4.8 32.5,-4 C32.5,-9.9 27.5,-13.2 21.3,-13.2 M7.5,8.6 C4.2,8.6 3.5,5.9 3.5,5 C3.5,0.1 20.3,-8.5 25,-8.5 C27.4,-8.5 29,-7.1 29,-4.9 C29,0.1 12.1,8.6 7.5,8.6"/>
<path class="Note" transform="matrix(0.992,0,0,0.992,1038.31,1390.6)" d="M0,4.2 C0,8.5 3.1,13.3 11.2,13.3 C21.6,13.3 32.5,4.8 32.5,-4 C32.5,-9.9 27.5,-13.2 21.3,-13.2 C11.6,-13.2 0,-5 0,4.2"/>
<path class="Note" transform="matrix(0.992,0,0,0.992,1851.01,733.398)" d="M0,4.2 C0,8.5 3.1,13.3 11.2,13.3 C21.6,13.3 32.5,4.8 32.5,-4 C32.5,-9.9 27.5,-13.2 21.3,-13.2 C11.6,-13.2 0,-5 0,4.2"/>
<path class="Note" transform="matrix(0.992,0,0,0.992,2610.37,720.998)" d="M0,4.2 C0,8.5 3.1,13.3 11.2,13.3 C21.6,13.3 32.5,4.8 32.5,-4 C32.5,-9.9 27.5,-13.2 21.3,-13.2 C11.6,-13.2 0,-5 0,4.2"/>
<path class="Note" transform="matrix(0.992,0,0,0.992,1817.4,1403)" d="M0,4.2 C0,8.5 3.1,13.3 11.2,13.3 C21.6,13.3 32.5,4.8 32.5,-4 C32.5,-9.9 27.5,-13.2 21.3,-13.2 C11.6,-13.2 0,-5 0,4.2"/>
<path class="Note" transform="matrix(0.992,0,0,0.992,1228.35,1403)" d="M0,4.2 C0,8.5 3.1,13.3 11.2,13.3 C21.6,13.3 32.5,4.8 32.5,-4 C32.5,-9.9 27.5,-13.2 21.3,-13.2 C11.6,-13.2 0,-5 0,4.2"/>
<path class="Note" transform="matrix(0.992,0,0,0.992,2235.94,720.998)" d="M21.3,-13.2 C11.6,-13.2 0,-5.1 0,4.2 C0,8.5 3.1,13.3 11.2,13.3 C21.6,13.3 32.5,4.8 32.5,-4 C32.5,-9.9 27.5,-13.2 21.3,-13.2 M7.5,8.6 C4.2,8.6 3.5,5.9 3.5,5 C3.5,0.1 20.3,-8.5 25,-8.5 C27.4,-8.5 29,-7.1 29,-4.9 C29,0.1 12.1,8.6 7.5,8.6"/>
<path class="Note" transform="matrix(0.992,0,0,0.992,1328.3,1403)" d="M21.3,-13.2 C11.6,-13.2 0,-5.1 0,4.2 C0,8.5 3.1,13.3 11.2,13.3 C21.6,13.3 32.5,4.8 32.5,-4 C32.5,-9.9 27.5,-13.2 21.3,-13.2 M7.5,8.6 C4.2,8.6 3.5,5.9 3.5,5 C3.5,0.1 20.3,-8.5 25,-8.5 C27.4,-8.5 29,-7.1 29,-4.9 C29,0.1 12.1,8.6 7.5,8.6"/>
<path class="Note" transform="matrix(0.992,0,0,0.992,2125,1440.2)" d="M0,4.2 C0,8.5 3.1,13.3 11.2,13.3 C21.6,13.3 32.5,4.8 32.5,-4 C32.5,-9.9 27.5,-13.2 21.3,-13.2 C11.6,-13.2 0,-5 0,4.2"/>
<path class="Note" transform="matrix(0.992,0,0,0.992,2310.38,1403)" d="M21.3,-13.2 C11.6,-13.2 0,-5.1 0,4.2 C0,8.5 3.1,13.3 11.2,13.3 C21.6,13.3 32.5,4.8 32.5,-4 C32.5,-9.9 27.5,-13.2 21.3,-13.2 M7.5,8.6 C4.2,8.6 3.5,5.9 3.5,5 C3.5,0.1 20.3,-8.5 25,-8.5 C27.4,-8.5 29,-7.1 29,-4.9 C29,0.1 12.1,8.6 7.5,8.6"/>
<path class="Note" transform="matrix(0.992,0,0,0.992,2100.63,733.398)" d="M0,4.2 C0,8.5 3.1,13.3 11.2,13.3 C21.6,13.3 32.5,4.8 32.5,-4 C32.5,-9.9 27.5,-13.2 21.3,-13.2 C11.6,-13.2 0,-5 0,4.2"/>
<path class="Note" transform="matrix(0.992,0,0,0.992,1588.64,1403)" d="M0,4.2 C0,8.5 3.1,13.3 11.2,13.3 C21.6,13.3 32.5,4.8 32.5,-4 C32.5,-9.9 27.5,-13.2 21.3,-13.2 C11.6,-13.2 0,-5 0,4.2"/>
<path class="Note" transform="matrix(0.992,0,0,0.992,478.129,1403)" d="M21.3,-13.2 C11.6,-13.2 0,-5.1 0,4.2 C0,8.5 3.1,13.3 11.2,13.3 C21.6,13.3 32.5,4.8 32.5,-4 C32.5,-9.9 27.5,-13.2 21.3,-13.2 M7.5,8.6 C4.2,8.6 3.5,5.9 3.5,5 C3.5,0.1 20.3,-8.5 25,-8.5 C27.4,-8.5 29,-7.1 29,-4.9 C29,0.1 12.1,8.6 7.5,8.6"/>
<path class="Note" transform="matrix(0.992,0,0,0.992,1738.56,1378.2)" d="M0,4.2 C0,8.5 3.1,13.3 11.2,13.3 C21.6,13.3 32.5,4.8 32.5,-4 C32.5,-9.9 27.5,-13.2 21.3,-13.2 C11.6,-13.2 0,-5 0,4.2"/>
<path class="Note" transform="matrix(0.992,0,0,0.992,1076.53,708.598)" d="M0,4.2 C0,8.5 3.1,13.3 11.2,13.3 C21.6,13.3 32.5,4.8 32.5,-4 C32.5,-9.9 27.5,-13.2 21.3,-13.2 C11.6,-13.2 0,-5 0,4.2"/>
<path class="Note" transform="matrix(0.992,0,0,0.992,1266.39,720.998)" d="M0,4.2 C0,8.5 3.1,13.3 11.2,13.3 C21.6,13.3 32.5,4.8 32.5,-4 C32.5,-9.9 27.5,-13.2 21.3,-13.2 C11.6,-13.2 0,-5 0,4.2"/>
<path class="Note" transform="matrix(0.992,0,0,0.992,1366.23,720.998)" d="M21.3,-13.2 C11.6,-13.2 0,-5.1 0,4.2 C0,8.5 3.1,13.3 11.2,13.3 C21.6,13.3 32.5,4.8 32.5,-4 C32.5,-9.9 27.5,-13.2 21.3,-13.2 M7.5,8.6 C4.2,8.6 3.5,5.9 3.5,5 C3.5,0.1 20.3,-8.5 25,-8.5 C27.4,-8.5 29,-7.1 29,-4.9 C29,0.1 12.1,8.6 7.5,8.6"/>
<path class="Clef" transform="matrix(0.992,0,0,0.992,231.198,1390.6)" d="M12.3,51.3 C12.3,57.9 17.3,66.6 30.8,66.6 C35.5,66.6 39.6,65.4 43.2,63.2 C48.6,59.4 50,52.8 50,46.5 C50,42.6 49.4,38.1 48.4,32.4 C48.1,30.4 47.5,27.4 46.9,23.5 C56.7,20.3 64,10.1 64,-0.2 C64,-15.3 53.3,-25.5 38.7,-25.5 C37.7,-31.5 36.7,-37.4 35.9,-43 C46.4,-54.1 53.7,-66.6 53.7,-82.5 C53.7,-91.6 50.9,-99 49.3,-102.6 C46.9,-107.7 44,-111.2 42.2,-111.2 C41.5,-111.2 38.4,-110 35.1,-106.1 C28.7,-98.5 26.9,-85.7 26.9,-77.3 C26.9,-71.9 27.4,-67 29.1,-55.8 C29,-55.7 23.8,-50.4 21.7,-48.7 C12.6,-40.3 0,-28.1 0,-8.1 C0,10.6 16.3,25.3 34.9,25.3 C37.8,25.3 40.5,25 42.8,24.6 C44.7,34.2 45.9,41.2 45.9,46.5 C45.9,56.9 40.5,62.4 30.4,62.4 C28,62.4 25.9,61.9 25.7,61.9 C25.6,61.8 25.4,61.7 25.4,61.6 C25.4,61.4 25.6,61.3 25.9,61.3 C30.6,60.5 35.3,56.5 35.3,50.1 C35.3,44.7 31.2,39 23.7,39 C16.7,39 12.3,44.7 12.3,51.3 M33.2,-82.2 C34.1,-86.2 38.7,-96.7 43.9,-96.7 C45.4,-96.7 47.8,-91.9 47.8,-84.9 C47.8,-74.5 40.1,-66.7 33.2,-59.9 C32.6,-63.9 32.1,-67.8 32.1,-72 C32.1,-75.7 32.4,-79.1 33.2,-82.2 M42,20.6 C40,21 38.1,21.2 36.2,21.2 C21.9,21.2 9.7,11.2 9.7,-3.9 C9.7,-16.1 18.3,-27 27.1,-34.6 C28.8,-36.1 30.4,-37.5 31.9,-39 C32.8,-33.6 33.5,-28.9 34.2,-24.8 C25.1,-22.1 18.9,-12.5 18.9,-3.1 C18.9,3.9 24.4,13.5 32.4,13.5 C33.2,13.5 34.1,13.1 34.1,12.2 C34.1,11.3 33.1,10.8 31.9,10 C28,7.6 25.8,5 25.8,0.1 C25.8,-6 30.4,-10.9 36.2,-12.3 L42,20.6 M56.2,2.1 C56.2,9.2 53.3,16.5 46.2,19.4 C44.1,7.4 41.4,-8.5 40.7,-12.9 C49.7,-12.9 56.2,-6.8 56.2,2.1"/>
<path class="Clef" transform="matrix(0.992,0,0,0.992,231.198,708.598)" d="M12.3,51.3 C12.3,57.9 17.3,66.6 30.8,66.6 C35.5,66.6 39.6,65.4 43.2,63.2 C48.6,59.4 50,52.8 50,46.5 C50,42.6 49.4,38.1 48.4,32.4 C48.1,30.4 47.5,27.4 46.9,23.5 C56.7,20.3 64,10.1 64,-0.2 C64,-15.3 53.3,-25.5 38.7,-25.5 C37.7,-31.5 36.7,-37.4 35.9,-43 C46.4,-54.1 53.7,-66.6 53.7,-82.5 C53.7,-91.6 50.9,-99 49.3,-102.6 C46.9,-107.7 44,-111.2 42.2,-111.2 C41.5,-111.2 38.4,-110 35.1,-106.1 C28.7,-98.5 26.9,-85.7 26.9,-77.3 C26.9,-71.9 27.4,-67 29.1,-55.8 C29,-55.7 23.8,-50.4 21.7,-48.7 C12.6,-40.3 0,-28.1 0,-8.1 C0,10.6 16.3,25.3 34.9,25.3 C37.8,25.3 40.5,25 42.8,24.6 C44.7,34.2 45.9,41.2 45.9,46.5 C45.9,56.9 40.5,62.4 30.4,62.4 C28,62.4 25.9,61.9 25.7,61.9 C25.6,61.8 25.4,61.7 25.4,61.6 C25.4,61.4 25.6,61.3 25.9,61.3 C30.6,60.5 35.3,56.5 35.3,50.1 C35.3,44.7 31.2,39 23.7,39 C16.7,39 12.3,44.7 12.3,51.3 M33.2,-82.2 C34.1,-86.2 38.7,-96.7 43.9,-96.7 C45.4,-96.7 47.8,-91.9 47.8,-84.9 C47.8,-74.5 40.1,-66.7 33.2,-59.9 C32.6,-63.9 32.1,-67.8 32.1,-72 C32.1,-75.7 32.4,-79.1 33.2,-82.2 M42,20.6 C40,21 38.1,21.2 36.2,21.2 C21.9,21.2 9.7,11.2 9.7,-3.9 C9.7,-16.1 18.3,-27 27.1,-34.6 C28.8,-36.1 30.4,-37.5 31.9,-39 C32.8,-33.6 33.5,-28.9 34.2,-24.8 C25.1,-22.1 18.9,-12.5 18.9,-3.1 C18.9,3.9 24.4,13.5 32.4,13.5 C33.2,13.5 34.1,13.1 34.1,12.2 C34.1,11.3 33.1,10.8 31.9,10 C28,7.6 25.8,5 25.8,0.1 C25.8,-6 30.4,-10.9 36.2,-12.3 L42,20.6 M56.2,2.1 C56.2,9.2 53.3,16.5 46.2,19.4 C44.1,7.4 41.4,-8.5 40.7,-12.9 C49.7,-12.9 56.2,-6.8 56.2,2.1"/>
<path class="KeySig" transform="matrix(0.992,0,0,0.992,313.271,683.798)" d="M12,-15.5 C7,-15.5 4.1,-12.4 3.6,-11.8 L4,-43.9 C4,-44.7 3.4,-45.3 2.6,-45.3 L1.4,-45.3 C0.6,-45.3 0,-44.7 0,-43.9 L0.5,16.2 C0.5,17 1.1,17.6 1.9,17.6 C2.1,17.6 2.5,17.5 2.7,17.4 C11.3,13.1 20.3,4.9 20.3,-5.4 C20.3,-10.6 17.9,-15.5 12,-15.5 M3.3,12.7 L3.6,-6.8 C3.8,-7.7 5.3,-10.6 9.3,-10.6 C12.9,-10.6 13.2,-7.2 13.2,-5.1 C13.2,3.8 9.9,7.5 3.3,12.7"/>
<path class="KeySig" transform="matrix(0.992,0,0,0.992,340.845,646.598)" d="M12,-15.5 C7,-15.5 4.1,-12.4 3.6,-11.8 L4,-43.9 C4,-44.7 3.4,-45.3 2.6,-45.3 L1.4,-45.3 C0.6,-45.3 0,-44.7 0,-43.9 L0.5,16.2 C0.5,17 1.1,17.6 1.9,17.6 C2.1,17.6 2.5,17.5 2.7,17.4 C11.3,13.1 20.3,4.9 20.3,-5.4 C20.3,-10.6 17.9,-15.5 12,-15.5 M3.3,12.7 L3.6,-6.8 C3.8,-7.7 5.3,-10.6 9.3,-10.6 C12.9,-10.6 13.2,-7.2 13.2,-5.1 C13.2,3.8 9.9,7.5 3.3,12.7"/>
<path class="KeySig" transform="matrix(0.992,0,0,0.992,368.42,696.198)" d="M12,-15.5 C7,-15.5 4.1,-12.4 3.6,-11.8 L4,-43.9 C4,-44.7 3.4,-45.3 2.6,-45.3 L1.4,-45.3 C0.6,-45.3 0,-44.7 0,-43.9 L0.5,16.2 C0.5,17 1.1,17.6 1.9,17.6 C2.1,17.6 2.5,17.5 2.7,17.4 C11.3,13.1 20.3,4.9 20.3,-5.4 C20.3,-10.6 17.9,-15.5 12,-15.5 M3.3,12.7 L3.6,-6.8 C3.8,-7.7 5.3,-10.6 9.3,-10.6 C12.9,-10.6 13.2,-7.2 13.2,-5.1 C13.2,3.8 9.9,7.5 3.3,12.7"/>
<path class="KeySig" transform="matrix(0.992,0,0,0.992,395.979,658.998)" d="M12,-15.5 C7,-15.5 4.1,-12.4 3.6,-11.8 L4,-43.9 C4,-44.7 3.4,-45.3 2.6,-45.3 L1.4,-45.3 C0.6,-45.3 0,-44.7 0,-43.9 L0.5,16.2 C0.5,17 1.1,17.6 1.9,17.6 C2.1,17.6 2.5,17.5 2.7,17.4 C11.3,13.1 20.3,4.9 20.3,-5.4 C20.3,-10.6 17.9,-15.5 12,-15.5 M3.3,12.7 L3.6,-6.8 C3.8,-7.7 5.3,-10.6 9.3,-10.6 C12.9,-10.6 13.2,-7.2 13.2,-5.1 C13.2,3.8 9.9,7.5 3.3,12.7"/>
<path class="KeySig" transform="matrix(0.992,0,0,0.992,313.271,1365.8)" d="M12,-15.5 C7,-15.5 4.1,-12.4 3.6,-11.8 L4,-43.9 C4,-44.7 3.4,-45.3 2.6,-45.3 L1.4,-45.3 C0.6,-45.3 0,-44.7 0,-43.9 L0.5,16.2 C0.5,17 1.1,17.6 1.9,17.6 C2.1,17.6 2.5,17.5 2.7,17.4 C11.3,13.1 20.3,4.9 20.3,-5.4 C20.3,-10.6 17.9,-15.5 12,-15.5 M3.3,12.7 L3.6,-6.8 C3.8,-7.7 5.3,-10.6 9.3,-10.6 C12.9,-10.6 13.2,-7.2 13.2,-5.1 C13.2,3.8 9.9,7.5 3.3,12.7"/>
<path class="KeySig" transform="matrix(0.992,0,0,0.992,340.845,1328.6)" d="M12,-15.5 C7,-15.5 4.1,-12.4 3.6,-11.8 L4,-43.9 C4,-44.7 3.4,-45.3 2.6,-45.3 L1.4,-45.3 C0.6,-45.3 0,-44.7 0,-43.9 L0.5,16.2 C0.5,17 1.1,17.6 1.9,17.6 C2.1,17.6 2.5,17.5 2.7,17.4 C11.3,13.1 20.3,4.9 20.3,-5.4 C20.3,-10.6 17.9,-15.5 12,-15.5 M3.3,12.7 L3.6,-6.8 C3.8,-7.7 5.3,-10.6 9.3,-10.6 C12.9,-10.6 13.2,-7.2 13.2,-5.1 C13.2,3.8 9.9,7.5 3.3,12.7"/>
<path class="KeySig" transform="matrix(0.992,0,0,0.992,368.42,1378.2)" d="M12,-15.5 C7,-15.5 4.1,-12.4 3.6,-11.8 L4,-43.9 C4,-44.7 3.4,-45.3 2.6,-45.3 L1.4,-45.3 C0.6,-45.3 0,-44.7 0,-43.9 L0.5,16.2 C0.5,17 1.1,17.6 1.9,17.6 C2.1,17.6 2.5,17.5 2.7,17.4 C11.3,13.1 20.3,4.9 20.3,-5.4 C20.3,-10.6 17.9,-15.5 12,-15.5 M3.3,12.7 L3.6,-6.8 C3.8,-7.7 5.3,-10.6 9.3,-10.6 C12.9,-10.6 13.2,-7.2 13.2,-5.1 C13.2,3.8 9.9,7.5 3.3,12.7"/>
<path class="KeySig" transform="matrix(0.992,0,0,0.992,395.979,1341)" d="M12,-15.5 C7,-15.5 4.1,-12.4 3.6,-11.8 L4,-43.9 C4,-44.7 3.4,-45.3 2.6,-45.3 L1.4,-45.3 C0.6,-45.3 0,-44.7 0,-43.9 L0.5,16.2 C0.5,17 1.1,17.6 1.9,17.6 C2.1,17.6 2.5,17.5 2.7,17.4 C11.3,13.1 20.3,4.9 20.3,-5.4 C20.3,-10.6 17.9,-15.5 12,-15.5 M3.3,12.7 L3.6,-6.8 C3.8,-7.7 5.3,-10.6 9.3,-10.6 C12.9,-10.6 13.2,-7.2 13.2,-5.1 C13.2,3.8 9.9,7.5 3.3,12.7"/>
<path class="TimeSig" transform="matrix(0.992,0,0,0.992,439.549,658.998)" d="M20.8,12.7 L20.8,20.1 L12.5,20.1 C11.8,20.1 11.1,20.7 11.1,21.5 L11.1,23.4 C11.1,24.2 11.8,24.8 12.5,24.8 L42.8,24.8 C43.6,24.8 44.2,24.2 44.2,23.4 L44.2,21.5 C44.2,20.7 43.6,20.1 42.8,20.1 L33.9,20.1 L33.9,12.7 L42.8,12.7 C43.6,12.7 44.2,12 44.2,11.2 L44.2,9.3 C44.2,8.6 43.6,7.9 42.8,7.9 L33.9,7.9 L33.9,-8 C33.9,-8.6 33.6,-9.1 33.1,-9.3 L31.9,-9.9 C31.7,-10 31.4,-10.1 31.2,-10.1 C30.9,-10 30.5,-9.9 30.3,-9.7 L21.2,-1.4 C20.9,-1.1 20.8,-0.7 20.8,-0.3 L20.8,7.9 L9.3,7.9 C9.3,7.9 20.4,-4.1 32.2,-19.9 C32.6,-20.4 32.7,-20.9 32.7,-21.3 C32.7,-21.8 32.5,-22.2 32.4,-22.3 L30.2,-24.5 C30,-24.7 29.6,-24.9 29.2,-24.9 C28.6,-24.9 15.1,-24.9 14.4,-24.9 C13.6,-24.9 13.1,-24.3 13,-23.7 C13,-23.7 12.5,-16.3 9.9,-8.2 C7.3,-0.1 4.3,4.9 1.7,8.6 C1.7,8.6 1.4,9.1 1.4,9.7 C1.4,9.9 1.4,10.1 1.5,10.3 C1.9,11 2.5,12.1 2.5,12.1 C2.5,12.1 2.7,12.7 3.6,12.7 L20.8,12.7 "/>
<path class="TimeSig" transform="matrix(0.992,0,0,0.992,439.549,708.598)" d="M20.8,12.7 L20.8,20.1 L12.5,20.1 C11.8,20.1 11.1,20.7 11.1,21.5 L11.1,23.4 C11.1,24.2 11.8,24.8 12.5,24.8 L42.8,24.8 C43.6,24.8 44.2,24.2 44.2,23.4 L44.2,21.5 C44.2,20.7 43.6,20.1 42.8,20.1 L33.9,20.1 L33.9,12.7 L42.8,12.7 C43.6,12.7 44.2,12 44.2,11.2 L44.2,9.3 C44.2,8.6 43.6,7.9 42.8,7.9 L33.9,7.9 L33.9,-8 C33.9,-8.6 33.6,-9.1 33.1,-9.3 L31.9,-9.9 C31.7,-10 31.4,-10.1 31.2,-10.1 C30.9,-10 30.5,-9.9 30.3,-9.7 L21.2,-1.4 C20.9,-1.1 20.8,-0.7 20.8,-0.3 L20.8,7.9 L9.3,7.9 C9.3,7.9 20.4,-4.1 32.2,-19.9 C32.6,-20.4 32.7,-20.9 32.7,-21.3 C32.7,-21.8 32.5,-22.2 32.4,-22.3 L30.2,-24.5 C30,-24.7 29.6,-24.9 29.2,-24.9 C28.6,-24.9 15.1,-24.9 14.4,-24.9 C13.6,-24.9 13.1,-24.3 13,-23.7 C13,-23.7 12.5,-16.3 9.9,-8.2 C7.3,-0.1 4.3,4.9 1.7,8.6 C1.7,8.6 1.4,9.1 1.4,9.7 C1.4,9.9 1.4,10.1 1.5,10.3 C1.9,11 2.5,12.1 2.5,12.1 C2.5,12.1 2.7,12.7 3.6,12.7 L20.8,12.7 "/>
<path class="Rest" transform="matrix(0.992,0,0,0.992,2460.6,683.798)" d="M23,16.6 C22.9,16.5 22.7,16.3 22.4,15.9 L10.9,1.7 C10.8,1.6 10.7,1.3 10.7,1.1 C10.7,0.8 10.8,0.4 10.9,0.2 L21.1,-15.2 C21.2,-15.4 21.3,-15.7 21.3,-15.9 L21.3,-16.8 C21.3,-17.1 21.2,-17.4 21,-17.6 L4.8,-39.5 C4.8,-39.5 4.4,-40.1 3.8,-40.1 C3.5,-40.1 3.3,-40.1 3,-39.8 C2.6,-39.5 2.5,-39.1 2.5,-38.8 C2.5,-38.2 2.8,-37.7 2.8,-37.7 L10.4,-27.3 C10.6,-27 10.7,-26.6 10.7,-26.1 C10.7,-25.7 10.6,-25.2 10.4,-24.9 L0.3,-9.5 C0.2,-9.3 0.1,-8.9 0.1,-8.7 L0.1,-7.8 C0.1,-7.5 0.2,-7.2 0.4,-7 L11.6,6.9 C11.2,6.8 10.3,6.6 9.1,6.6 C4,6.6 0,10.8 0,15.9 C0,17.3 0.3,18.7 1.1,19.8 C3.2,23 10.7,32.5 10.7,32.5 C10.7,32.5 11.2,33.1 11.9,33.1 C12.1,33.1 12.3,33.1 12.5,32.9 C13,32.5 13.2,32.1 13.2,31.7 C13.2,31.3 13,31 12.9,30.8 C12.6,30.3 9.4,24.5 9.4,24.5 C9.4,24.5 8.7,23.1 8.7,21.3 C8.7,18.1 11.1,15.5 14.3,15.5 C15.6,15.5 16.7,15.9 17.5,16.4 L21.4,18.9 C21.4,18.9 21.8,19.1 22.2,19.1 C22.6,19.1 22.9,19 23.2,18.6 C23.4,18.3 23.5,18 23.5,17.7 C23.5,17.4 23.4,17.2 23.2,16.9 L23,16.6 "/>
<path class="Rest" transform="matrix(0.992,0,0,0.992,2535.26,1365.8)" d="M0,-1 C0,0.4 0,0.4 1.4,0.4 L31.1,0.4 C32.5,0.4 32.5,0.4 32.5,-1 L32.5,-11.8 C32.5,-13.2 32.5,-13.2 31.1,-13.2 L1.4,-13.2 C0,-13.2 0,-13.2 0,-11.8 L0,-1 "/>
<path class="Beam" fill-rule="evenodd" d="M2030.53,658.987 L2132.85,652.787 L2132.85,665.21 L2030.53,671.41 L2030.53,658.987 "/>
<path class="Beam" fill-rule="evenodd" d="M1768.3,1303.8 L1928.47,1303.8 L1928.47,1316.2 L1768.3,1316.2 L1768.3,1303.8 "/>
<path class="Tuplet" d="M1851.1,1271.92 C1853.22,1271.24 1854.07,1270.88 1855.15,1270.16 C1857.27,1268.77 1858.57,1266.29 1858.57,1263.77 C1858.57,1259.5 1855.15,1256.62 1850.11,1256.62 C1845.21,1256.62 1841.07,1259.68 1841.07,1263.37 C1841.07,1265.21 1842.19,1266.47 1843.9,1266.47 C1845.39,1266.47 1846.47,1265.39 1846.47,1263.91 C1846.47,1263.14 1846.24,1262.6 1845.52,1261.88 C1845.07,1261.48 1844.89,1261.16 1844.89,1260.85 C1844.89,1259.77 1847.14,1258.64 1849.26,1258.64 C1852.27,1258.64 1854.07,1260.31 1854.07,1263.1 C1854.07,1267.1 1851.24,1270.88 1848.22,1270.88 C1848.09,1270.88 1847.68,1270.84 1847.19,1270.79 C1845.88,1270.7 1845.88,1270.7 1845.61,1270.7 C1844.62,1270.7 1844.08,1271.15 1844.08,1271.96 C1844.08,1272.68 1844.58,1273.13 1845.39,1273.13 C1845.61,1273.13 1845.93,1273.09 1846.29,1273.04 C1846.92,1272.91 1847.59,1272.86 1848,1272.86 C1850.11,1272.86 1851.55,1274.75 1851.55,1277.54 C1851.55,1282.4 1849.17,1287.08 1843.72,1287.08 C1841.2,1287.08 1839.04,1285.82 1839.04,1284.38 C1839.04,1283.89 1839.22,1283.71 1839.94,1283.39 C1841.25,1282.81 1841.79,1282 1841.79,1280.78 C1841.79,1279.21 1840.53,1277.99 1838.91,1277.99 C1836.97,1277.99 1835.71,1279.52 1835.71,1281.86 C1835.71,1286.23 1839.04,1288.97 1844.44,1288.97 C1851.24,1288.97 1856.41,1284.43 1856.41,1278.4 C1856.41,1274.89 1854.25,1272.91 1851.1,1271.92"/>
<path class="NoteDot" transform="matrix(0.992,0,0,0.992,1121.15,696.198)" d="M0,0 C0,2.8 2.2,5 5,5 C7.8,5 10,2.8 10,0 C10,-2.8 7.8,-5 5,-5 C2.2,-5 0,-2.8 0,0"/>
<path class="NoteDot" transform="matrix(0.992,0,0,0.992,1082.93,1378.2)" d="M0,0 C0,2.8 2.2,5 5,5 C7.8,5 10,2.8 10,0 C10,-2.8 7.8,-5 5,-5 C2.2,-5 0,-2.8 0,0"/>
</svg>
