<?xml version="1.0" encoding="UTF-8" standalone="no"?>
<svg width="2977.2px" height="4208.4px" viewBox="0 0 2977.2 4208.4"
 xmlns="http://www.w3.org/2000/svg" xmlns:xlink="http://www.w3.org/1999/xlink" version="1.2" baseProfile="tiny">
<title>早春賦</title>
<desc>Generated by MuseScore Studio 4.4.0</desc>
<path class="" fill="#ffffff" fill-rule="evenodd" d="M0,0 L2977.2,0 L2977.2,4208.4 L0,4208.4 L0,0 "/>
<polyline class="StaffLines" fill="none" stroke="#000000" stroke-width="2.73" stroke-linejoin="bevel" points="212.598,628.785 2764.6,628.785"/>
<polyline class="StaffLines" fill="none" stroke="#000000" stroke-width="2.73" stroke-linejoin="bevel" points="212.598,653.585 2764.6,653.585"/>
<polyline class="StaffLines" fill="none" stroke="#000000" stroke-width="2.73" stroke-linejoin="bevel" points="212.598,678.385 2764.6,678.385"/>
<polyline class="StaffLines" fill="none" stroke="#000000" stroke-width="2.73" stroke-linejoin="bevel" points="212.598,703.185 2764.6,703.185"/>
<polyline class="StaffLines" fill="none" stroke="#000000" stroke-width="2.73" stroke-linejoin="bevel" points="212.598,727.985 2764.6,727.985"/>
<polyline class="StaffLines" fill="none" stroke="#000000" stroke-width="2.73" stroke-linejoin="bevel" points="212.598,1099.98 2764.6,1099.98"/>
<polyline class="StaffLines" fill="none" stroke="#000000" stroke-width="2.73" stroke-linejoin="bevel" points="212.598,1124.78 2764.6,1124.78"/>
<polyline class="StaffLines" fill="none" stroke="#000000" stroke-width="2.73" stroke-linejoin="bevel" points="212.598,1149.58 2764.6,1149.58"/>
<polyline class="StaffLines" fill="none" stroke="#000000" stroke-width="2.73" stroke-linejoin="bevel" points="212.598,1174.38 2764.6,1174.38"/>
<polyline class="StaffLines" fill="none" stroke="#000000" stroke-width="2.73" stroke-linejoin="bevel" points="212.598,1199.18 2764.6,1199.18"/>
<polyline class="StaffLines" fill="none" stroke="#000000" stroke-width="2.73" stroke-linejoin="bevel" points="212.598,1571.18 2764.6,1571.18"/>
<polyline class="StaffLines" fill="none" stroke="#000000" stroke-width="2.73" stroke-linejoin="bevel" points="212.598,1595.98 2764.6,1595.98"/>
<polyline class="StaffLines" fill="none" stroke="#000000" stroke-width="2.73" stroke-linejoin="bevel" points="212.598,1620.78 2764.6,1620.78"/>
<polyline class="StaffLines" fill="none" stroke="#000000" stroke-width="2.73" stroke-linejoin="bevel" points="212.598,1645.58 2764.6,1645.58"/>
<polyline class="StaffLines" fill="none" stroke="#000000" stroke-width="2.73" stroke-linejoin="bevel" points="212.598,1670.38 2764.6,1670.38"/>
<path class="Text" d="M1372.28,293.732 L1372.28,307.482 L1340.71,307.482 C1335.54,307.482 1332.24,307.262 1329.16,306.822 L1329.16,314.632 C1332.46,314.192 1335.87,313.972 1340.71,313.972 L1372.28,313.972 L1372.28,331.242 C1372.28,337.732 1372.06,341.472 1371.62,344.002 L1380.09,344.002 C1379.54,341.142 1379.32,337.402 1379.32,331.242 L1379.32,313.972 L1412.98,313.972 C1417.93,313.972 1421.23,314.192 1424.53,314.632 L1424.53,306.822 C1421.45,307.262 1418.15,307.482 1412.98,307.482 L1379.32,307.482 L1379.32,293.732 L1400.66,293.732 C1406.05,293.732 1409.02,293.842 1413.09,294.282 C1412.54,290.872 1412.43,288.452 1412.43,283.942 L1412.43,258.532 C1412.43,254.022 1412.54,251.382 1413.09,247.972 C1409.02,248.412 1405.94,248.522 1400.11,248.522 L1352.92,248.522 C1347.42,248.522 1344.67,248.412 1340.6,247.972 C1341.15,251.492 1341.26,254.132 1341.26,258.862 L1341.26,283.282 C1341.26,287.902 1341.15,290.652 1340.6,294.282 C1344.67,293.842 1347.64,293.732 1353.03,293.732 L1372.28,293.732 M1348.08,254.902 L1405.61,254.902 L1405.61,267.882 L1348.08,267.882 L1348.08,254.902 M1348.08,274.042 L1405.61,274.042 L1405.61,287.572 L1348.08,287.572 L1348.08,274.042 M1458.3,331.682 C1458.3,337.622 1458.19,340.372 1457.64,343.232 L1465.01,343.232 L1465.01,338.282 L1507.25,338.282 L1507.25,342.902 L1514.73,342.902 C1514.18,340.152 1514.07,337.402 1514.07,331.132 L1514.07,304.622 C1520.45,310.342 1525.18,313.862 1533.98,319.252 C1535.74,316.172 1535.85,315.952 1538.49,313.092 C1525.29,306.492 1515.94,299.452 1507.58,289.552 L1523.2,289.552 C1527.93,289.552 1531.45,289.772 1535.19,290.212 L1535.19,282.952 C1532.33,283.392 1528.92,283.612 1523.2,283.612 L1503.07,283.612 C1500.65,280.092 1499.88,278.662 1497.24,273.272 L1513.08,273.272 C1519.57,273.272 1521.77,273.382 1524.52,273.712 L1524.52,267.002 C1521.88,267.332 1519.68,267.442 1513.08,267.442 L1482.94,267.442 C1484.15,264.032 1484.81,261.612 1485.58,258.752 L1517.04,258.752 C1522.32,258.752 1525.62,258.862 1528.92,259.302 L1528.92,252.152 C1525.95,252.592 1522.54,252.812 1516.82,252.812 L1487.01,252.812 C1487.45,250.502 1487.45,250.392 1487.78,248.852 C1488.44,245.332 1488.66,244.452 1488.99,243.132 L1481.29,242.362 C1481.29,242.912 1481.29,243.352 1481.29,243.682 C1481.29,245.882 1480.96,248.522 1480.19,252.812 L1456.54,252.812 C1451.04,252.812 1447.41,252.592 1444.55,252.152 L1444.55,259.302 C1447.85,258.862 1451.15,258.752 1456.32,258.752 L1478.87,258.752 C1477.88,262.382 1477.44,264.032 1476.12,267.442 L1460.06,267.442 C1453.9,267.442 1451.59,267.332 1449.06,267.002 L1449.06,273.712 C1451.7,273.382 1454.01,273.272 1460.06,273.272 L1473.7,273.272 C1471.94,277.232 1470.51,279.872 1468.31,283.612 L1450.49,283.612 C1444.44,283.612 1441.03,283.392 1438.17,282.952 L1438.17,290.212 C1441.91,289.772 1445.43,289.552 1450.49,289.552 L1464.35,289.552 C1461.38,293.402 1458.3,296.702 1453.79,300.772 C1447.52,306.382 1443.23,309.352 1435.09,313.752 C1437.29,315.622 1438.17,316.612 1439.93,319.362 C1447.74,314.302 1452.25,310.672 1458.3,304.952 L1458.3,331.682 M1463.91,299.232 C1467.1,295.712 1468.97,293.402 1471.72,289.552 L1500.1,289.552 C1502.85,293.292 1504.83,295.602 1508.46,299.232 L1463.91,299.232 M1475.46,283.612 C1477.66,279.762 1478.87,277.342 1480.63,273.272 L1490.64,273.272 C1493.17,278.552 1494.05,280.312 1496.03,283.612 L1475.46,283.612 M1465.01,304.952 L1507.25,304.952 L1507.25,315.182 L1465.01,315.182 L1465.01,304.952 M1465.01,320.792 L1507.25,320.792 L1507.25,332.452 L1465.01,332.452 L1465.01,320.792 M1620.99,277.232 C1621.87,297.692 1623.52,310.562 1626.6,321.672 C1630.01,333.772 1634.96,341.362 1639.69,341.362 C1642.11,341.362 1644.09,339.272 1645.41,335.422 C1646.62,332.012 1647.17,328.822 1648.05,320.902 C1645.74,319.802 1644.31,318.702 1642.11,316.502 C1641.78,324.202 1641.45,327.392 1640.46,330.692 C1640.13,331.682 1639.58,332.672 1639.25,332.672 C1638.59,332.672 1637.16,330.472 1636.06,328.162 C1633.2,322.002 1631.11,313.642 1629.57,302.532 C1628.47,294.612 1628.47,294.612 1627.7,277.232 L1635.07,277.232 C1639.69,277.232 1642.99,277.452 1646.07,277.892 L1646.07,270.302 C1643.1,270.742 1639.91,270.962 1635.18,270.962 L1627.37,270.962 C1627.15,262.712 1627.04,256.662 1627.04,253.142 C1627.04,250.392 1627.15,247.862 1627.48,245.772 L1619.78,245.772 C1620.11,248.302 1620.22,249.622 1620.33,252.262 L1620.77,270.962 L1592.72,270.962 C1587.88,270.962 1584.91,270.742 1581.83,270.302 L1581.83,277.892 C1585.13,277.452 1588.1,277.232 1592.72,277.232 L1620.99,277.232 M1600.64,328.932 C1596.79,330.032 1596.02,330.142 1592.39,331.022 L1592.39,299.892 C1592.39,295.602 1592.5,293.182 1592.94,290.542 L1585.68,290.542 C1586.12,293.292 1586.23,295.712 1586.23,299.892 L1586.23,332.452 C1582.82,333.222 1581.39,333.442 1579.08,333.552 L1580.84,340.812 C1583.48,339.932 1584.91,339.492 1587,338.942 C1601.52,335.312 1611.53,332.232 1621.76,328.272 L1621.65,322.112 C1615.05,324.642 1612.96,325.302 1607.02,327.062 L1607.02,303.082 L1612.63,303.082 C1615.16,303.082 1617.14,303.192 1619.45,303.522 L1619.45,296.812 C1617.58,297.252 1615.82,297.362 1612.41,297.362 L1607.02,297.362 L1607.02,289.882 C1607.02,285.922 1607.13,283.722 1607.57,281.192 L1600.09,281.192 C1600.53,283.832 1600.64,286.142 1600.64,289.992 L1600.64,328.932 M1569.73,316.392 C1573.36,316.392 1576.44,316.502 1578.75,316.722 C1578.53,314.632 1578.42,311.332 1578.42,306.822 L1578.42,258.642 C1578.42,253.582 1578.53,252.042 1578.75,249.292 C1576.22,249.512 1574.46,249.622 1569.29,249.622 L1560.82,249.622 C1556.2,249.622 1554.55,249.512 1551.03,249.292 C1551.36,251.712 1551.47,254.792 1551.47,259.082 L1551.47,306.712 C1551.47,311.002 1551.36,314.742 1551.14,316.722 C1552.9,316.502 1555.21,316.392 1559.83,316.392 L1569.73,316.392 M1557.63,255.562 L1572.37,255.562 L1572.37,269.642 L1557.63,269.642 L1557.63,255.562 M1557.63,275.362 L1572.37,275.362 L1572.37,289.882 L1557.63,289.882 L1557.63,275.362 M1557.63,295.602 L1572.37,295.602 L1572.37,310.562 L1557.63,310.562 L1557.63,295.602 M1556.64,320.682 C1553.67,329.152 1551.25,333.222 1545.53,339.272 C1548.06,340.812 1549.16,341.692 1550.81,343.562 C1556.31,336.962 1558.84,332.562 1562.36,323.322 L1556.64,320.682 M1567.53,322.772 C1570.61,329.262 1572.04,331.682 1575.45,336.632 C1577.21,334.872 1578.31,333.992 1580.18,332.782 C1576.88,328.712 1575.23,326.072 1572.26,320.352 L1567.53,322.772 M1586.89,260.952 C1589.42,260.622 1591.62,260.512 1595.36,260.512 L1606.14,260.512 C1608.67,260.512 1610.98,260.622 1614.06,260.952 L1614.06,254.022 C1611.64,254.462 1609.99,254.572 1606.14,254.572 L1595.36,254.572 C1591.73,254.572 1589.75,254.462 1586.89,253.912 L1586.89,260.952 M1644.53,263.702 C1641.45,257.432 1639.8,254.792 1635.29,249.292 L1630.01,251.822 C1633.97,256.772 1636.06,260.072 1639.03,266.672 L1644.53,263.702 "/>
<path class="MeasureNumber" d="M228.958,1493.26 L227.798,1493.26 C225.598,1494.9 221.358,1496.3 218.478,1496.3 L217.998,1498.06 L220.758,1498.06 C223.198,1498.06 223.478,1498.14 223.478,1498.86 C223.478,1499.22 223.478,1499.22 223.078,1500.66 L218.798,1516.66 C218.278,1518.66 218.238,1518.78 217.878,1519.14 C217.478,1519.54 216.638,1519.66 214.518,1519.7 L212.798,1519.7 L212.598,1521.58 L227.398,1521.58 L227.638,1519.7 L225.478,1519.7 C222.878,1519.7 222.318,1519.5 222.318,1518.62 C222.318,1518.34 222.478,1517.42 222.678,1516.66 L228.958,1493.26 M250.233,1513.3 L249.193,1515.14 C247.593,1517.9 247.273,1518.14 245.233,1518.18 L235.953,1518.18 C236.913,1516.9 238.673,1515.42 241.873,1513.18 C247.153,1509.54 247.513,1509.3 248.633,1508.42 C251.833,1505.94 253.153,1503.58 253.153,1500.42 C253.153,1496.22 250.033,1493.42 245.433,1493.42 C240.313,1493.42 235.873,1497.18 235.873,1501.54 C235.873,1503.78 237.073,1505.22 238.993,1505.22 C240.433,1505.22 241.553,1504.14 241.553,1502.66 C241.553,1501.62 241.033,1500.94 239.713,1500.22 C238.753,1499.74 238.593,1499.54 238.593,1499.06 C238.593,1497.34 241.553,1495.42 244.273,1495.42 C247.073,1495.42 248.953,1497.3 248.953,1500.1 C248.953,1503.1 247.633,1505.3 244.033,1508.42 C233.393,1517.66 231.793,1519.34 231.433,1521.58 L248.593,1521.58 L251.673,1513.86 L250.233,1513.3 "/>
<path class="MeasureNumber" d="M217.481,1036.98 C218.161,1033.46 218.961,1031.26 220.481,1028.58 C222.281,1025.42 224.441,1023.82 226.841,1023.82 C228.081,1023.82 228.841,1024.3 228.841,1025.06 C228.841,1025.34 228.761,1025.5 228.481,1026.02 C228.121,1026.7 227.961,1027.18 227.961,1027.78 C227.961,1029.06 228.921,1029.94 230.281,1029.94 C231.921,1029.94 233.041,1028.74 233.041,1026.94 C233.041,1024.22 230.481,1022.22 226.921,1022.22 C218.001,1022.22 212.601,1033.86 212.601,1041.54 C212.601,1047.42 215.521,1050.98 220.401,1050.98 C226.401,1050.98 230.841,1046.02 230.841,1040.14 C230.841,1036.06 228.081,1033.22 224.081,1033.22 C221.281,1033.22 219.121,1034.42 217.481,1036.98 M222.801,1035.54 C225.281,1035.54 226.641,1037.26 226.641,1040.38 C226.641,1045.46 223.961,1049.34 220.401,1049.34 C217.841,1049.34 216.321,1047.46 216.321,1044.26 C216.321,1039.26 219.081,1035.54 222.801,1035.54"/>
<path class="SlurSegment" stroke="#000000" stroke-width="1.74" stroke-linecap="round" stroke-linejoin="round" fill-rule="evenodd" d="M2052.92,1589.7 C2094.87,1559.43 2181.64,1555.01 2226.45,1580.85 C2181.99,1561.95 2095.23,1566.37 2052.92,1589.7"/>
<path class="SlurSegment" stroke="#000000" stroke-width="1.74" stroke-linecap="round" stroke-linejoin="round" fill-rule="evenodd" d="M992.964,1078.77 C1010.46,1062.74 1042.06,1065.78 1056.18,1084.85 C1041.53,1071.27 1009.93,1068.23 992.964,1078.77"/>
<path class="TieSegment" stroke="#000000" stroke-width="1.74" stroke-linecap="round" stroke-linejoin="round" fill-rule="evenodd" d="M1957.62,733.681 C1988.32,754.599 2080.43,754.599 2111.13,733.681 C2080.43,761.543 1988.32,761.543 1957.62,733.681"/>
<path class="TieSegment" stroke="#000000" stroke-width="1.74" stroke-linecap="round" stroke-linejoin="round" fill-rule="evenodd" d="M2439.66,1700.88 C2474.03,1722.96 2577.12,1722.96 2611.48,1700.88 C2577.12,1729.91 2474.03,1729.91 2439.66,1700.88"/>
<path class="TieSegment" stroke="#000000" stroke-width="1.74" stroke-linecap="round" stroke-linejoin="round" fill-rule="evenodd" d="M1224.75,1229.68 C1250.63,1248.93 1328.26,1248.93 1354.13,1229.68 C1328.26,1255.87 1250.63,1255.87 1224.75,1229.68"/>
<polyline class="BarLine" fill="none" stroke="#000000" stroke-width="4.46" stroke-linejoin="bevel" points="553.44,627.421 553.44,729.349"/>
<polyline class="BarLine" fill="none" stroke="#000000" stroke-width="4.46" stroke-linejoin="bevel" points="1347.06,1569.82 1347.06,1671.75"/>
<polyline class="BarLine" fill="none" stroke="#000000" stroke-width="4.46" stroke-linejoin="bevel" points="2762.37,627.421 2762.37,729.349"/>
<polyline class="BarLine" fill="none" stroke="#000000" stroke-width="4.46" stroke-linejoin="bevel" points="845.513,1569.82 845.513,1671.75"/>
<polyline class="BarLine" fill="none" stroke="#000000" stroke-width="4.46" stroke-linejoin="bevel" points="1792.97,1569.82 1792.97,1671.75"/>
<polyline class="BarLine" fill="none" stroke="#000000" stroke-width="4.46" stroke-linejoin="bevel" points="1410.37,627.421 1410.37,729.349"/>
<polyline class="BarLine" fill="none" stroke="#000000" stroke-width="4.46" stroke-linejoin="bevel" points="2387.48,1569.82 2387.48,1671.75"/>
<polyline class="BarLine" fill="none" stroke="#000000" stroke-width="4.46" stroke-linejoin="bevel" points="747.283,1098.62 747.283,1200.55"/>
<polyline class="BarLine" fill="none" stroke="#000000" stroke-width="4.46" stroke-linejoin="bevel" points="2308.97,627.421 2308.97,729.349"/>
<polyline class="BarLine" fill="none" stroke="#000000" stroke-width="4.46" stroke-linejoin="bevel" points="2740.42,1569.82 2740.42,1671.75"/>
<polyline class="BarLine" fill="none" stroke="#000000" stroke-width="13.64" stroke-linejoin="bevel" points="2757.78,1569.82 2757.78,1671.75"/>
<polyline class="BarLine" fill="none" stroke="#000000" stroke-width="4.46" stroke-linejoin="bevel" points="2762.37,1098.62 2762.37,1200.55"/>
<polyline class="BarLine" fill="none" stroke="#000000" stroke-width="4.46" stroke-linejoin="bevel" points="1172.57,1098.62 1172.57,1200.55"/>
<polyline class="BarLine" fill="none" stroke="#000000" stroke-width="4.46" stroke-linejoin="bevel" points="2337.08,1098.62 2337.08,1200.55"/>
<polyline class="BarLine" fill="none" stroke="#000000" stroke-width="4.46" stroke-linejoin="bevel" points="1905.44,627.421 1905.44,729.349"/>
<polyline class="BarLine" fill="none" stroke="#000000" stroke-width="4.46" stroke-linejoin="bevel" points="1934.82,1098.62 1934.82,1200.55"/>
<polyline class="BarLine" fill="none" stroke="#000000" stroke-width="4.46" stroke-linejoin="bevel" points="1006.84,627.421 1006.84,729.349"/>
<polyline class="BarLine" fill="none" stroke="#000000" stroke-width="4.46" stroke-linejoin="bevel" points="1532.55,1098.62 1532.55,1200.55"/>
<polyline class="LedgerLine" fill="none" stroke="#000000" stroke-width="3.97" stroke-linejoin="bevel" points="1438.68,1223.98 1488.27,1223.98"/>
<polyline class="LedgerLine" fill="none" stroke="#000000" stroke-width="3.97" stroke-linejoin="bevel" points="2214.71,752.785 2264.3,752.785"/>
<polyline class="LedgerLine" fill="none" stroke="#000000" stroke-width="3.97" stroke-linejoin="bevel" points="1664.32,1223.98 1713.9,1223.98"/>
<polyline class="LedgerLine" fill="none" stroke="#000000" stroke-width="3.97" stroke-linejoin="bevel" points="1438.68,1248.78 1488.27,1248.78"/>
<polyline class="LedgerLine" fill="none" stroke="#000000" stroke-width="3.97" stroke-linejoin="bevel" points="1840.95,1223.98 1890.53,1223.98"/>
<polyline class="LedgerLine" fill="none" stroke="#000000" stroke-width="3.97" stroke-linejoin="bevel" points="1840.95,1248.78 1890.53,1248.78"/>
<polyline class="LedgerLine" fill="none" stroke="#000000" stroke-width="3.97" stroke-linejoin="bevel" points="741.632,1695.18 791.216,1695.18"/>
<polyline class="LedgerLine" fill="none" stroke="#000000" stroke-width="3.97" stroke-linejoin="bevel" points="741.632,1719.98 791.216,1719.98"/>
<polyline class="LedgerLine" fill="none" stroke="#000000" stroke-width="3.97" stroke-linejoin="bevel" points="459.188,777.585 508.772,777.585"/>
<polyline class="LedgerLine" fill="none" stroke="#000000" stroke-width="3.97" stroke-linejoin="bevel" points="459.188,752.785 508.772,752.785"/>
<polyline class="LedgerLine" fill="none" stroke="#000000" stroke-width="3.97" stroke-linejoin="bevel" points="2214.71,777.585 2264.3,777.585"/>
<polyline class="LedgerLine" fill="none" stroke="#000000" stroke-width="3.97" stroke-linejoin="bevel" points="2097.67,1719.98 2147.25,1719.98"/>
<polyline class="LedgerLine" fill="none" stroke="#000000" stroke-width="3.97" stroke-linejoin="bevel" points="2097.67,1695.18 2147.25,1695.18"/>
<polyline class="LedgerLine" fill="none" stroke="#000000" stroke-width="3.97" stroke-linejoin="bevel" points="1664.32,1248.78 1713.9,1248.78"/>
<polyline class="Stem" fill="none" stroke="#000000" stroke-width="2.73" stroke-linejoin="bevel" points="1970.77,711.617 1970.77,628.785"/>
<polyline class="Stem" fill="none" stroke="#000000" stroke-width="2.73" stroke-linejoin="bevel" points="1237.9,1207.62 1237.9,1124.78"/>
<polyline class="Stem" fill="none" stroke="#000000" stroke-width="2.73" stroke-linejoin="bevel" points="1951.27,1654.02 1951.27,1571.18"/>
<polyline class="Stem" fill="none" stroke="#000000" stroke-width="2.73" stroke-linejoin="bevel" points="1858.3,1629.22 1858.3,1565.07"/>
<polyline class="Stem" fill="none" stroke="#000000" stroke-width="2.73" stroke-linejoin="bevel" points="2129.25,711.617 2129.25,628.785"/>
<polyline class="Stem" fill="none" stroke="#000000" stroke-width="2.73" stroke-linejoin="bevel" points="498.728,773.617 498.728,678.583"/>
<polyline class="Stem" fill="none" stroke="#000000" stroke-width="2.73" stroke-linejoin="bevel" points="2254.25,773.617 2254.25,678.583"/>
<polyline class="Stem" fill="none" stroke="#000000" stroke-width="2.73" stroke-linejoin="bevel" points="2137.21,1716.02 2137.21,1602.1"/>
<polyline class="Stem" fill="none" stroke="#000000" stroke-width="2.73" stroke-linejoin="bevel" points="1850.73,686.817 1850.73,622.635"/>
<polyline class="Stem" fill="none" stroke="#000000" stroke-width="2.73" stroke-linejoin="bevel" points="1699.13,1624.95 1699.13,1701.29"/>
<polyline class="Stem" fill="none" stroke="#000000" stroke-width="2.73" stroke-linejoin="bevel" points="1475.7,686.817 1475.7,610.185"/>
<polyline class="Stem" fill="none" stroke="#000000" stroke-width="2.73" stroke-linejoin="bevel" points="1559.68,1624.95 1559.68,1695.18"/>
<polyline class="Stem" fill="none" stroke="#000000" stroke-width="2.73" stroke-linejoin="bevel" points="2374.3,736.417 2374.3,653.585"/>
<polyline class="Stem" fill="none" stroke="#000000" stroke-width="2.73" stroke-linejoin="bevel" points="1774.51,1182.82 1774.51,1099.98"/>
<polyline class="Stem" fill="none" stroke="#000000" stroke-width="2.73" stroke-linejoin="bevel" points="1600.71,711.617 1600.71,628.983"/>
<polyline class="Stem" fill="none" stroke="#000000" stroke-width="2.73" stroke-linejoin="bevel" points="1703.86,1244.82 1703.86,1149.78"/>
<polyline class="Stem" fill="none" stroke="#000000" stroke-width="2.73" stroke-linejoin="bevel" points="1382.9,1600.15 1382.9,1682.78"/>
<polyline class="Stem" fill="none" stroke="#000000" stroke-width="2.73" stroke-linejoin="bevel" points="2230.17,1666.42 2230.17,1595.98"/>
<polyline class="Stem" fill="none" stroke="#000000" stroke-width="2.73" stroke-linejoin="bevel" points="1880.49,1244.82 1880.49,1149.78"/>
<polyline class="Stem" fill="none" stroke="#000000" stroke-width="2.73" stroke-linejoin="bevel" points="2499.31,711.617 2499.31,628.983"/>
<polyline class="Stem" fill="none" stroke="#000000" stroke-width="2.73" stroke-linejoin="bevel" points="1767.39,724.017 1767.39,625.685"/>
<polyline class="Stem" fill="none" stroke="#000000" stroke-width="2.73" stroke-linejoin="bevel" points="2582.65,686.817 2582.65,610.185"/>
<polyline class="Stem" fill="none" stroke="#000000" stroke-width="2.73" stroke-linejoin="bevel" points="1253.22,1600.15 1253.22,1682.69"/>
<polyline class="Stem" fill="none" stroke="#000000" stroke-width="2.73" stroke-linejoin="bevel" points="1597.88,1195.22 1597.88,1112.38"/>
<polyline class="Stem" fill="none" stroke="#000000" stroke-width="2.73" stroke-linejoin="bevel" points="922.635,657.751 922.635,740.286"/>
<polyline class="Stem" fill="none" stroke="#000000" stroke-width="2.73" stroke-linejoin="bevel" points="2678.16,657.751 2678.16,740.286"/>
<polyline class="Stem" fill="none" stroke="#000000" stroke-width="2.73" stroke-linejoin="bevel" points="1143.27,1629.22 1143.27,1552.58"/>
<polyline class="Stem" fill="none" stroke="#000000" stroke-width="2.73" stroke-linejoin="bevel" points="1326.16,682.551 1326.16,758.886"/>
<polyline class="Stem" fill="none" stroke="#000000" stroke-width="2.73" stroke-linejoin="bevel" points="2000.15,1170.42 2000.15,1087.58"/>
<polyline class="Stem" fill="none" stroke="#000000" stroke-width="2.73" stroke-linejoin="bevel" points="1050.3,1654.02 1050.3,1571.38"/>
<polyline class="Stem" fill="none" stroke="#000000" stroke-width="2.73" stroke-linejoin="bevel" points="1684.05,699.217 1684.05,628.735"/>
<polyline class="Stem" fill="none" stroke="#000000" stroke-width="2.73" stroke-linejoin="bevel" points="910.845,1678.82 910.845,1595.98"/>
<polyline class="Stem" fill="none" stroke="#000000" stroke-width="2.73" stroke-linejoin="bevel" points="2323.14,1654.02 2323.14,1589.87"/>
<polyline class="Stem" fill="none" stroke="#000000" stroke-width="2.73" stroke-linejoin="bevel" points="435.442,1128.95 435.442,1211.58"/>
<polyline class="Stem" fill="none" stroke="#000000" stroke-width="2.73" stroke-linejoin="bevel" points="2452.82,1678.82 2452.82,1595.98"/>
<polyline class="Stem" fill="none" stroke="#000000" stroke-width="2.73" stroke-linejoin="bevel" points="781.172,1716.02 781.172,1620.98"/>
<polyline class="Stem" fill="none" stroke="#000000" stroke-width="2.73" stroke-linejoin="bevel" points="1042.68,657.751 1042.68,740.385"/>
<polyline class="Stem" fill="none" stroke="#000000" stroke-width="2.73" stroke-linejoin="bevel" points="569.786,1153.75 569.786,1223.98"/>
<polyline class="Stem" fill="none" stroke="#000000" stroke-width="2.73" stroke-linejoin="bevel" points="641.719,1654.02 641.719,1571.18"/>
<polyline class="Stem" fill="none" stroke="#000000" stroke-width="2.73" stroke-linejoin="bevel" points="464.938,1629.22 464.938,1552.58"/>
<polyline class="Stem" fill="none" stroke="#000000" stroke-width="2.73" stroke-linejoin="bevel" points="1478.22,1244.82 1478.22,1149.78"/>
<polyline class="Stem" fill="none" stroke="#000000" stroke-width="2.73" stroke-linejoin="bevel" points="675.763,1153.75 675.763,1230.09"/>
<polyline class="Stem" fill="none" stroke="#000000" stroke-width="2.73" stroke-linejoin="bevel" points="618.772,736.417 618.772,653.585"/>
<polyline class="Stem" fill="none" stroke="#000000" stroke-width="2.73" stroke-linejoin="bevel" points="1201.15,682.551 1201.15,752.785"/>
<polyline class="Stem" fill="none" stroke="#000000" stroke-width="2.73" stroke-linejoin="bevel" points="2629.6,1678.82 2629.6,1595.98"/>
<polyline class="Stem" fill="none" stroke="#000000" stroke-width="2.73" stroke-linejoin="bevel" points="812.615,1158.02 812.615,1081.38"/>
<polyline class="Stem" fill="none" stroke="#000000" stroke-width="2.73" stroke-linejoin="bevel" points="743.782,711.617 743.782,628.983"/>
<polyline class="Stem" fill="none" stroke="#000000" stroke-width="2.73" stroke-linejoin="bevel" points="2720.35,1145.62 2720.35,1081.44"/>
<polyline class="Stem" fill="none" stroke="#000000" stroke-width="2.73" stroke-linejoin="bevel" points="1372.25,1207.62 1372.25,1124.78"/>
<polyline class="Stem" fill="none" stroke="#000000" stroke-width="2.73" stroke-linejoin="bevel" points="918.592,1182.82 918.592,1100.18"/>
<polyline class="Stem" fill="none" stroke="#000000" stroke-width="2.73" stroke-linejoin="bevel" points="2649.7,1195.22 2649.7,1084.48"/>
<polyline class="Stem" fill="none" stroke="#000000" stroke-width="2.73" stroke-linejoin="bevel" points="989.244,1158.02 989.244,1093.9"/>
<polyline class="Stem" fill="none" stroke="#000000" stroke-width="2.73" stroke-linejoin="bevel" points="2579.04,1170.42 2579.04,1087.53"/>
<polyline class="Stem" fill="none" stroke="#000000" stroke-width="2.73" stroke-linejoin="bevel" points="2508.39,1182.82 2508.39,1100.18"/>
<polyline class="Stem" fill="none" stroke="#000000" stroke-width="2.73" stroke-linejoin="bevel" points="2106.13,1182.82 2106.13,1100.18"/>
<polyline class="Stem" fill="none" stroke="#000000" stroke-width="2.73" stroke-linejoin="bevel" points="1059.9,1170.42 1059.9,1099.98"/>
<polyline class="Stem" fill="none" stroke="#000000" stroke-width="2.73" stroke-linejoin="bevel" points="2402.42,1195.22 2402.42,1112.38"/>
<polyline class="Stem" fill="none" stroke="#000000" stroke-width="2.73" stroke-linejoin="bevel" points="1130.55,1195.22 1130.55,1106.07"/>
<polyline class="Stem" fill="none" stroke="#000000" stroke-width="2.73" stroke-linejoin="bevel" points="827.122,686.817 827.122,610.185"/>
<polyline class="Stem" fill="none" stroke="#000000" stroke-width="2.73" stroke-linejoin="bevel" points="2282.76,1195.22 2282.76,1112.58"/>
<polyline class="Stem" fill="none" stroke="#000000" stroke-width="2.73" stroke-linejoin="bevel" points="2176.78,1195.22 2176.78,1112.38"/>
<polyline class="Stem" fill="none" stroke="#000000" stroke-width="2.73" stroke-linejoin="bevel" points="2044.24,1678.82 2044.24,1577.3"/>
<path class="Hook" transform="matrix(0.992,0,0,0.992,2281.39,1112.38)" d="M0,22.7 C0,23 0.1,23.6 0.8,23.8 C5.1,25.2 13.7,30.6 20.2,41.7 C22,44.8 24.9,49.1 24.9,57.4 C24.9,64.6 23.1,72 20.4,79.2 C20.2,79.8 20.1,80.3 20.1,80.7 C20.1,81.4 20.5,81.7 21.2,81.7 C21.8,81.7 22.3,81.3 22.7,80.6 C27.2,72.6 28.9,63.3 28.9,54.2 C28.4,41.3 21,31.8 21,31.8 C21.3,31.8 11.8,19.5 9.1,15.3 C5.4,9.6 3.7,3.9 3.5,3.5 C3.4,3.2 2.5,-0.4 2.5,-0.4 C2.4,-0.8 1.9,-1.2 1.3,-1.2 C0.6,-1.2 0,-0.6 0,0.1 L0,22.7 "/>
<path class="Hook" transform="matrix(0.992,0,0,0.992,2507.03,1099.98)" d="M0,22.7 C0,23 0.1,23.6 0.8,23.8 C5.1,25.2 13.7,30.6 20.2,41.7 C22,44.8 24.9,49.1 24.9,57.4 C24.9,64.6 23.1,72 20.4,79.2 C20.2,79.8 20.1,80.3 20.1,80.7 C20.1,81.4 20.5,81.7 21.2,81.7 C21.8,81.7 22.3,81.3 22.7,80.6 C27.2,72.6 28.9,63.3 28.9,54.2 C28.4,41.3 21,31.8 21,31.8 C21.3,31.8 11.8,19.5 9.1,15.3 C5.4,9.6 3.7,3.9 3.5,3.5 C3.4,3.2 2.5,-0.4 2.5,-0.4 C2.4,-0.8 1.9,-1.2 1.3,-1.2 C0.6,-1.2 0,-0.6 0,0.1 L0,22.7 "/>
<path class="Hook" transform="matrix(0.992,0,0,0.992,2104.76,1099.98)" d="M0,22.7 C0,23 0.1,23.6 0.8,23.8 C5.1,25.2 13.7,30.6 20.2,41.7 C22,44.8 24.9,49.1 24.9,57.4 C24.9,64.6 23.1,72 20.4,79.2 C20.2,79.8 20.1,80.3 20.1,80.7 C20.1,81.4 20.5,81.7 21.2,81.7 C21.8,81.7 22.3,81.3 22.7,80.6 C27.2,72.6 28.9,63.3 28.9,54.2 C28.4,41.3 21,31.8 21,31.8 C21.3,31.8 11.8,19.5 9.1,15.3 C5.4,9.6 3.7,3.9 3.5,3.5 C3.4,3.2 2.5,-0.4 2.5,-0.4 C2.4,-0.8 1.9,-1.2 1.3,-1.2 C0.6,-1.2 0,-0.6 0,0.1 L0,22.7 "/>
<path class="Hook" transform="matrix(0.992,0,0,0.992,917.228,1099.98)" d="M0,22.7 C0,23 0.1,23.6 0.8,23.8 C5.1,25.2 13.7,30.6 20.2,41.7 C22,44.8 24.9,49.1 24.9,57.4 C24.9,64.6 23.1,72 20.4,79.2 C20.2,79.8 20.1,80.3 20.1,80.7 C20.1,81.4 20.5,81.7 21.2,81.7 C21.8,81.7 22.3,81.3 22.7,80.6 C27.2,72.6 28.9,63.3 28.9,54.2 C28.4,41.3 21,31.8 21,31.8 C21.3,31.8 11.8,19.5 9.1,15.3 C5.4,9.6 3.7,3.9 3.5,3.5 C3.4,3.2 2.5,-0.4 2.5,-0.4 C2.4,-0.8 1.9,-1.2 1.3,-1.2 C0.6,-1.2 0,-0.6 0,0.1 L0,22.7 "/>
<path class="Hook" transform="matrix(0.992,0,0,0.992,1599.35,628.785)" d="M0,22.7 C0,23 0.1,23.6 0.8,23.8 C5.1,25.2 13.7,30.6 20.2,41.7 C22,44.8 24.9,49.1 24.9,57.4 C24.9,64.6 23.1,72 20.4,79.2 C20.2,79.8 20.1,80.3 20.1,80.7 C20.1,81.4 20.5,81.7 21.2,81.7 C21.8,81.7 22.3,81.3 22.7,80.6 C27.2,72.6 28.9,63.3 28.9,54.2 C28.4,41.3 21,31.8 21,31.8 C21.3,31.8 11.8,19.5 9.1,15.3 C5.4,9.6 3.7,3.9 3.5,3.5 C3.4,3.2 2.5,-0.4 2.5,-0.4 C2.4,-0.8 1.9,-1.2 1.3,-1.2 C0.6,-1.2 0,-0.6 0,0.1 L0,22.7 "/>
<path class="Hook" transform="matrix(0.992,0,0,0.992,742.418,628.785)" d="M0,22.7 C0,23 0.1,23.6 0.8,23.8 C5.1,25.2 13.7,30.6 20.2,41.7 C22,44.8 24.9,49.1 24.9,57.4 C24.9,64.6 23.1,72 20.4,79.2 C20.2,79.8 20.1,80.3 20.1,80.7 C20.1,81.4 20.5,81.7 21.2,81.7 C21.8,81.7 22.3,81.3 22.7,80.6 C27.2,72.6 28.9,63.3 28.9,54.2 C28.4,41.3 21,31.8 21,31.8 C21.3,31.8 11.8,19.5 9.1,15.3 C5.4,9.6 3.7,3.9 3.5,3.5 C3.4,3.2 2.5,-0.4 2.5,-0.4 C2.4,-0.8 1.9,-1.2 1.3,-1.2 C0.6,-1.2 0,-0.6 0,0.1 L0,22.7 "/>
<path class="Hook" transform="matrix(0.992,0,0,0.992,1476.86,1149.58)" d="M0,22.7 C0,23 0.1,23.6 0.8,23.8 C5.1,25.2 13.7,30.6 20.2,41.7 C22,44.8 24.9,49.1 24.9,57.4 C24.9,64.6 23.1,72 20.4,79.2 C20.2,79.8 20.1,80.3 20.1,80.7 C20.1,81.4 20.5,81.7 21.2,81.7 C21.8,81.7 22.3,81.3 22.7,80.6 C27.2,72.6 28.9,63.3 28.9,54.2 C28.4,41.3 21,31.8 21,31.8 C21.3,31.8 11.8,19.5 9.1,15.3 C5.4,9.6 3.7,3.9 3.5,3.5 C3.4,3.2 2.5,-0.4 2.5,-0.4 C2.4,-0.8 1.9,-1.2 1.3,-1.2 C0.6,-1.2 0,-0.6 0,0.1 L0,22.7 "/>
<path class="Hook" transform="matrix(0.992,0,0,0.992,674.399,1230.18)" d="M0,-0.1 C0,0.6 0.6,1.2 1.3,1.2 C1.8,1.2 2.4,0.8 2.5,0.4 C2.5,0.3 3.4,-3.2 3.5,-3.5 C3.6,-3.9 4.5,-7.7 8.1,-13.6 C12,-20.1 18,-24.8 23,-31.8 C28,-38.8 30.9,-45.4 30.9,-54.2 C30.9,-63.3 28.9,-70.9 23.5,-80.6 C23.2,-81.3 22.6,-81.7 22,-81.7 C21.8,-81.7 21.6,-81.7 21.5,-81.6 C21,-81.4 20.8,-81 20.8,-80.4 C20.8,-80.1 20.9,-79.7 21.1,-79.2 C25.1,-69.9 26.7,-64.6 26.7,-57.4 C26.7,-49.1 23.8,-44.8 22,-41.7 C15.5,-30.6 5,-25.2 0.8,-23.8 C0.1,-23.6 0,-23 0,-22.7 L0,-0.1 "/>
<path class="Hook" transform="matrix(0.992,0,0,0.992,779.808,1620.78)" d="M0,22.7 C0,23 0.1,23.6 0.8,23.8 C5.1,25.2 13.7,30.6 20.2,41.7 C22,44.8 24.9,49.1 24.9,57.4 C24.9,64.6 23.1,72 20.4,79.2 C20.2,79.8 20.1,80.3 20.1,80.7 C20.1,81.4 20.5,81.7 21.2,81.7 C21.8,81.7 22.3,81.3 22.7,80.6 C27.2,72.6 28.9,63.3 28.9,54.2 C28.4,41.3 21,31.8 21,31.8 C21.3,31.8 11.8,19.5 9.1,15.3 C5.4,9.6 3.7,3.9 3.5,3.5 C3.4,3.2 2.5,-0.4 2.5,-0.4 C2.4,-0.8 1.9,-1.2 1.3,-1.2 C0.6,-1.2 0,-0.6 0,0.1 L0,22.7 "/>
<path class="Hook" transform="matrix(0.992,0,0,0.992,1048.93,1571.18)" d="M0,22.7 C0,23 0.1,23.6 0.8,23.8 C5.1,25.2 13.7,30.6 20.2,41.7 C22,44.8 24.9,49.1 24.9,57.4 C24.9,64.6 23.1,72 20.4,79.2 C20.2,79.8 20.1,80.3 20.1,80.7 C20.1,81.4 20.5,81.7 21.2,81.7 C21.8,81.7 22.3,81.3 22.7,80.6 C27.2,72.6 28.9,63.3 28.9,54.2 C28.4,41.3 21,31.8 21,31.8 C21.3,31.8 11.8,19.5 9.1,15.3 C5.4,9.6 3.7,3.9 3.5,3.5 C3.4,3.2 2.5,-0.4 2.5,-0.4 C2.4,-0.8 1.9,-1.2 1.3,-1.2 C0.6,-1.2 0,-0.6 0,0.1 L0,22.7 "/>
<path class="Hook" transform="matrix(0.992,0,0,0.992,1324.8,758.985)" d="M0,-0.1 C0,0.6 0.6,1.2 1.3,1.2 C1.8,1.2 2.4,0.8 2.5,0.4 C2.5,0.3 3.4,-3.2 3.5,-3.5 C3.6,-3.9 4.5,-7.7 8.1,-13.6 C12,-20.1 18,-24.8 23,-31.8 C28,-38.8 30.9,-45.4 30.9,-54.2 C30.9,-63.3 28.9,-70.9 23.5,-80.6 C23.2,-81.3 22.6,-81.7 22,-81.7 C21.8,-81.7 21.6,-81.7 21.5,-81.6 C21,-81.4 20.8,-81 20.8,-80.4 C20.8,-80.1 20.9,-79.7 21.1,-79.2 C25.1,-69.9 26.7,-64.6 26.7,-57.4 C26.7,-49.1 23.8,-44.8 22,-41.7 C15.5,-30.6 5,-25.2 0.8,-23.8 C0.1,-23.6 0,-23 0,-22.7 L0,-0.1 "/>
<path class="Hook" transform="matrix(0.992,0,0,0.992,2676.8,740.385)" d="M0,-0.1 C0,0.6 0.6,1.2 1.3,1.2 C1.8,1.2 2.4,0.8 2.5,0.4 C2.5,0.3 3.4,-3.2 3.5,-3.5 C3.6,-3.9 4.5,-7.7 8.1,-13.6 C12,-20.1 18,-24.8 23,-31.8 C28,-38.8 30.9,-45.4 30.9,-54.2 C30.9,-63.3 28.9,-70.9 23.5,-80.6 C23.2,-81.3 22.6,-81.7 22,-81.7 C21.8,-81.7 21.6,-81.7 21.5,-81.6 C21,-81.4 20.8,-81 20.8,-80.4 C20.8,-80.1 20.9,-79.7 21.1,-79.2 C25.1,-69.9 26.7,-64.6 26.7,-57.4 C26.7,-49.1 23.8,-44.8 22,-41.7 C15.5,-30.6 5,-25.2 0.8,-23.8 C0.1,-23.6 0,-23 0,-22.7 L0,-0.1 "/>
<path class="Hook" transform="matrix(0.992,0,0,0.992,921.271,740.385)" d="M0,-0.1 C0,0.6 0.6,1.2 1.3,1.2 C1.8,1.2 2.4,0.8 2.5,0.4 C2.5,0.3 3.4,-3.2 3.5,-3.5 C3.6,-3.9 4.5,-7.7 8.1,-13.6 C12,-20.1 18,-24.8 23,-31.8 C28,-38.8 30.9,-45.4 30.9,-54.2 C30.9,-63.3 28.9,-70.9 23.5,-80.6 C23.2,-81.3 22.6,-81.7 22,-81.7 C21.8,-81.7 21.6,-81.7 21.5,-81.6 C21,-81.4 20.8,-81 20.8,-80.4 C20.8,-80.1 20.9,-79.7 21.1,-79.2 C25.1,-69.9 26.7,-64.6 26.7,-57.4 C26.7,-49.1 23.8,-44.8 22,-41.7 C15.5,-30.6 5,-25.2 0.8,-23.8 C0.1,-23.6 0,-23 0,-22.7 L0,-0.1 "/>
<path class="Hook" transform="matrix(0.992,0,0,0.992,1251.86,1682.78)" d="M0,-0.1 C0,0.6 0.6,1.2 1.3,1.2 C1.8,1.2 2.4,0.8 2.5,0.4 C2.5,0.3 3.4,-3.2 3.5,-3.5 C3.6,-3.9 4.5,-7.7 8.1,-13.6 C12,-20.1 18,-24.8 23,-31.8 C28,-38.8 30.9,-45.4 30.9,-54.2 C30.9,-63.3 28.9,-70.9 23.5,-80.6 C23.2,-81.3 22.6,-81.7 22,-81.7 C21.8,-81.7 21.6,-81.7 21.5,-81.6 C21,-81.4 20.8,-81 20.8,-80.4 C20.8,-80.1 20.9,-79.7 21.1,-79.2 C25.1,-69.9 26.7,-64.6 26.7,-57.4 C26.7,-49.1 23.8,-44.8 22,-41.7 C15.5,-30.6 5,-25.2 0.8,-23.8 C0.1,-23.6 0,-23 0,-22.7 L0,-0.1 "/>
<path class="Hook" transform="matrix(0.992,0,0,0.992,2497.94,628.785)" d="M0,22.7 C0,23 0.1,23.6 0.8,23.8 C5.1,25.2 13.7,30.6 20.2,41.7 C22,44.8 24.9,49.1 24.9,57.4 C24.9,64.6 23.1,72 20.4,79.2 C20.2,79.8 20.1,80.3 20.1,80.7 C20.1,81.4 20.5,81.7 21.2,81.7 C21.8,81.7 22.3,81.3 22.7,80.6 C27.2,72.6 28.9,63.3 28.9,54.2 C28.4,41.3 21,31.8 21,31.8 C21.3,31.8 11.8,19.5 9.1,15.3 C5.4,9.6 3.7,3.9 3.5,3.5 C3.4,3.2 2.5,-0.4 2.5,-0.4 C2.4,-0.8 1.9,-1.2 1.3,-1.2 C0.6,-1.2 0,-0.6 0,0.1 L0,22.7 "/>
<path class="Hook" transform="matrix(0.992,0,0,0.992,1879.13,1149.58)" d="M0,22.7 C0,23 0.1,23.6 0.8,23.8 C5.1,25.2 13.7,30.6 20.2,41.7 C22,44.8 24.9,49.1 24.9,57.4 C24.9,64.6 23.1,72 20.4,79.2 C20.2,79.8 20.1,80.3 20.1,80.7 C20.1,81.4 20.5,81.7 21.2,81.7 C21.8,81.7 22.3,81.3 22.7,80.6 C27.2,72.6 28.9,63.3 28.9,54.2 C28.4,41.3 21,31.8 21,31.8 C21.3,31.8 11.8,19.5 9.1,15.3 C5.4,9.6 3.7,3.9 3.5,3.5 C3.4,3.2 2.5,-0.4 2.5,-0.4 C2.4,-0.8 1.9,-1.2 1.3,-1.2 C0.6,-1.2 0,-0.6 0,0.1 L0,22.7 "/>
<path class="Hook" transform="matrix(0.992,0,0,0.992,1702.5,1149.58)" d="M0,22.7 C0,23 0.1,23.6 0.8,23.8 C5.1,25.2 13.7,30.6 20.2,41.7 C22,44.8 24.9,49.1 24.9,57.4 C24.9,64.6 23.1,72 20.4,79.2 C20.2,79.8 20.1,80.3 20.1,80.7 C20.1,81.4 20.5,81.7 21.2,81.7 C21.8,81.7 22.3,81.3 22.7,80.6 C27.2,72.6 28.9,63.3 28.9,54.2 C28.4,41.3 21,31.8 21,31.8 C21.3,31.8 11.8,19.5 9.1,15.3 C5.4,9.6 3.7,3.9 3.5,3.5 C3.4,3.2 2.5,-0.4 2.5,-0.4 C2.4,-0.8 1.9,-1.2 1.3,-1.2 C0.6,-1.2 0,-0.6 0,0.1 L0,22.7 "/>
<path class="Hook" transform="matrix(0.992,0,0,0.992,1697.77,1701.38)" d="M0,-0.1 C0,0.6 0.6,1.2 1.3,1.2 C1.8,1.2 2.4,0.8 2.5,0.4 C2.5,0.3 3.4,-3.2 3.5,-3.5 C3.6,-3.9 4.5,-7.7 8.1,-13.6 C12,-20.1 18,-24.8 23,-31.8 C28,-38.8 30.9,-45.4 30.9,-54.2 C30.9,-63.3 28.9,-70.9 23.5,-80.6 C23.2,-81.3 22.6,-81.7 22,-81.7 C21.8,-81.7 21.6,-81.7 21.5,-81.6 C21,-81.4 20.8,-81 20.8,-80.4 C20.8,-80.1 20.9,-79.7 21.1,-79.2 C25.1,-69.9 26.7,-64.6 26.7,-57.4 C26.7,-49.1 23.8,-44.8 22,-41.7 C15.5,-30.6 5,-25.2 0.8,-23.8 C0.1,-23.6 0,-23 0,-22.7 L0,-0.1 "/>
<path class="Hook" transform="matrix(0.992,0,0,0.992,2252.89,678.385)" d="M0,22.7 C0,23 0.1,23.6 0.8,23.8 C5.1,25.2 13.7,30.6 20.2,41.7 C22,44.8 24.9,49.1 24.9,57.4 C24.9,64.6 23.1,72 20.4,79.2 C20.2,79.8 20.1,80.3 20.1,80.7 C20.1,81.4 20.5,81.7 21.2,81.7 C21.8,81.7 22.3,81.3 22.7,80.6 C27.2,72.6 28.9,63.3 28.9,54.2 C28.4,41.3 21,31.8 21,31.8 C21.3,31.8 11.8,19.5 9.1,15.3 C5.4,9.6 3.7,3.9 3.5,3.5 C3.4,3.2 2.5,-0.4 2.5,-0.4 C2.4,-0.8 1.9,-1.2 1.3,-1.2 C0.6,-1.2 0,-0.6 0,0.1 L0,22.7 "/>
<path class="Hook" transform="matrix(0.992,0,0,0.992,497.364,678.385)" d="M0,22.7 C0,23 0.1,23.6 0.8,23.8 C5.1,25.2 13.7,30.6 20.2,41.7 C22,44.8 24.9,49.1 24.9,57.4 C24.9,64.6 23.1,72 20.4,79.2 C20.2,79.8 20.1,80.3 20.1,80.7 C20.1,81.4 20.5,81.7 21.2,81.7 C21.8,81.7 22.3,81.3 22.7,80.6 C27.2,72.6 28.9,63.3 28.9,54.2 C28.4,41.3 21,31.8 21,31.8 C21.3,31.8 11.8,19.5 9.1,15.3 C5.4,9.6 3.7,3.9 3.5,3.5 C3.4,3.2 2.5,-0.4 2.5,-0.4 C2.4,-0.8 1.9,-1.2 1.3,-1.2 C0.6,-1.2 0,-0.6 0,0.1 L0,22.7 "/>
<path class="Note" transform="matrix(0.992,0,0,0.992,1569.85,715.585)" d="M0,4.2 C0,8.5 3.1,13.3 11.2,13.3 C21.6,13.3 32.5,4.8 32.5,-4 C32.5,-9.9 27.5,-13.2 21.3,-13.2 C11.6,-13.2 0,-5 0,4.2"/>
<path class="Note" transform="matrix(0.992,0,0,0.992,879.985,1682.78)" d="M0,4.2 C0,8.5 3.1,13.3 11.2,13.3 C21.6,13.3 32.5,4.8 32.5,-4 C32.5,-9.9 27.5,-13.2 21.3,-13.2 C11.6,-13.2 0,-5 0,4.2"/>
<path class="Note" transform="matrix(0.992,0,0,0.992,1743.65,1186.78)" d="M0,4.2 C0,8.5 3.1,13.3 11.2,13.3 C21.6,13.3 32.5,4.8 32.5,-4 C32.5,-9.9 27.5,-13.2 21.3,-13.2 C11.6,-13.2 0,-5 0,4.2"/>
<path class="Note" transform="matrix(0.992,0,0,0.992,1447.36,1248.78)" d="M0,4.2 C0,8.5 3.1,13.3 11.2,13.3 C21.6,13.3 32.5,4.8 32.5,-4 C32.5,-9.9 27.5,-13.2 21.3,-13.2 C11.6,-13.2 0,-5 0,4.2"/>
<path class="Note" transform="matrix(0.992,0,0,0.992,2598.74,1682.78)" d="M0,4.2 C0,8.5 3.1,13.3 11.2,13.3 C21.6,13.3 32.5,4.8 32.5,-4 C32.5,-9.9 27.5,-13.2 21.3,-13.2 C11.6,-13.2 0,-5 0,4.2"/>
<path class="Note" transform="matrix(0.992,0,0,0.992,1567.02,1199.18)" d="M0,4.2 C0,8.5 3.1,13.3 11.2,13.3 C21.6,13.3 32.5,4.8 32.5,-4 C32.5,-9.9 27.5,-13.2 21.3,-13.2 C11.6,-13.2 0,-5 0,4.2"/>
<path class="Note" transform="matrix(0.992,0,0,0.992,921.271,653.585)" d="M0,4.2 C0,8.5 3.1,13.3 11.2,13.3 C21.6,13.3 32.5,4.8 32.5,-4 C32.5,-9.9 27.5,-13.2 21.3,-13.2 C11.6,-13.2 0,-5 0,4.2"/>
<path class="Note" transform="matrix(0.992,0,0,0.992,1653.19,703.185)" d="M0,4.2 C0,8.5 3.1,13.3 11.2,13.3 C21.6,13.3 32.5,4.8 32.5,-4 C32.5,-9.9 27.5,-13.2 21.3,-13.2 C11.6,-13.2 0,-5 0,4.2"/>
<path class="Note" transform="matrix(0.992,0,0,0.992,1849.63,1248.78)" d="M0,4.2 C0,8.5 3.1,13.3 11.2,13.3 C21.6,13.3 32.5,4.8 32.5,-4 C32.5,-9.9 27.5,-13.2 21.3,-13.2 C11.6,-13.2 0,-5 0,4.2"/>
<path class="Note" transform="matrix(0.992,0,0,0.992,796.261,690.785)" d="M0,4.2 C0,8.5 3.1,13.3 11.2,13.3 C21.6,13.3 32.5,4.8 32.5,-4 C32.5,-9.9 27.5,-13.2 21.3,-13.2 C11.6,-13.2 0,-5 0,4.2"/>
<path class="Note" transform="matrix(0.992,0,0,0.992,1341.39,1211.58)" d="M0,4.2 C0,8.5 3.1,13.3 11.2,13.3 C21.6,13.3 32.5,4.8 32.5,-4 C32.5,-9.9 27.5,-13.2 21.3,-13.2 C11.6,-13.2 0,-5 0,4.2"/>
<path class="Note" transform="matrix(0.992,0,0,0.992,2421.96,1682.78)" d="M0,4.2 C0,8.5 3.1,13.3 11.2,13.3 C21.6,13.3 32.5,4.8 32.5,-4 C32.5,-9.9 27.5,-13.2 21.3,-13.2 C11.6,-13.2 0,-5 0,4.2"/>
<path class="Note" transform="matrix(0.992,0,0,0.992,1969.29,1174.38)" d="M0,4.2 C0,8.5 3.1,13.3 11.2,13.3 C21.6,13.3 32.5,4.8 32.5,-4 C32.5,-9.9 27.5,-13.2 21.3,-13.2 C11.6,-13.2 0,-5 0,4.2"/>
<path class="Note" transform="matrix(0.992,0,0,0.992,2292.28,1657.98)" d="M0,4.2 C0,8.5 3.1,13.3 11.2,13.3 C21.6,13.3 32.5,4.8 32.5,-4 C32.5,-9.9 27.5,-13.2 21.3,-13.2 C11.6,-13.2 0,-5 0,4.2"/>
<path class="Note" transform="matrix(0.992,0,0,0.992,2199.31,1670.38)" d="M0,4.2 C0,8.5 3.1,13.3 11.2,13.3 C21.6,13.3 32.5,4.8 32.5,-4 C32.5,-9.9 27.5,-13.2 21.3,-13.2 C11.6,-13.2 0,-5 0,4.2"/>
<path class="Note" transform="matrix(0.992,0,0,0.992,1736.53,727.985)" d="M0,4.2 C0,8.5 3.1,13.3 11.2,13.3 C21.6,13.3 32.5,4.8 32.5,-4 C32.5,-9.9 27.5,-13.2 21.3,-13.2 C11.6,-13.2 0,-5 0,4.2"/>
<path class="Note" transform="matrix(0.992,0,0,0.992,2075.27,1186.78)" d="M0,4.2 C0,8.5 3.1,13.3 11.2,13.3 C21.6,13.3 32.5,4.8 32.5,-4 C32.5,-9.9 27.5,-13.2 21.3,-13.2 C11.6,-13.2 0,-5 0,4.2"/>
<path class="Note" transform="matrix(0.992,0,0,0.992,1207.04,1211.58)" d="M0,4.2 C0,8.5 3.1,13.3 11.2,13.3 C21.6,13.3 32.5,4.8 32.5,-4 C32.5,-9.9 27.5,-13.2 21.3,-13.2 C11.6,-13.2 0,-5 0,4.2"/>
<path class="Note" transform="matrix(0.992,0,0,0.992,2145.92,1199.18)" d="M0,4.2 C0,8.5 3.1,13.3 11.2,13.3 C21.6,13.3 32.5,4.8 32.5,-4 C32.5,-9.9 27.5,-13.2 21.3,-13.2 C11.6,-13.2 0,-5 0,4.2"/>
<path class="Note" transform="matrix(0.992,0,0,0.992,2106.35,1719.98)" d="M0,4.2 C0,8.5 3.1,13.3 11.2,13.3 C21.6,13.3 32.5,4.8 32.5,-4 C32.5,-9.9 27.5,-13.2 21.3,-13.2 C11.6,-13.2 0,-5 0,4.2"/>
<path class="Note" transform="matrix(0.992,0,0,0.992,1041.32,653.585)" d="M0,4.2 C0,8.5 3.1,13.3 11.2,13.3 C21.6,13.3 32.5,4.8 32.5,-4 C32.5,-9.9 27.5,-13.2 21.3,-13.2 C11.6,-13.2 0,-5 0,4.2"/>
<path class="Note" transform="matrix(0.992,0,0,0.992,1819.87,690.785)" d="M0,4.2 C0,8.5 3.1,13.3 11.2,13.3 C21.6,13.3 32.5,4.8 32.5,-4 C32.5,-9.9 27.5,-13.2 21.3,-13.2 C11.6,-13.2 0,-5 0,4.2"/>
<path class="Note" transform="matrix(0.992,0,0,0.992,2251.89,1199.18)" d="M0,4.2 C0,8.5 3.1,13.3 11.2,13.3 C21.6,13.3 32.5,4.8 32.5,-4 C32.5,-9.9 27.5,-13.2 21.3,-13.2 C11.6,-13.2 0,-5 0,4.2"/>
<path class="Note" transform="matrix(0.992,0,0,0.992,1099.69,1199.18)" d="M0,4.2 C0,8.5 3.1,13.3 11.2,13.3 C21.6,13.3 32.5,4.8 32.5,-4 C32.5,-9.9 27.5,-13.2 21.3,-13.2 C11.6,-13.2 0,-5 0,4.2"/>
<path class="Note" transform="matrix(0.992,0,0,0.992,1444.84,690.785)" d="M0,4.2 C0,8.5 3.1,13.3 11.2,13.3 C21.6,13.3 32.5,4.8 32.5,-4 C32.5,-9.9 27.5,-13.2 21.3,-13.2 C11.6,-13.2 0,-5 0,4.2"/>
<path class="Note" transform="matrix(0.992,0,0,0.992,712.922,715.585)" d="M0,4.2 C0,8.5 3.1,13.3 11.2,13.3 C21.6,13.3 32.5,4.8 32.5,-4 C32.5,-9.9 27.5,-13.2 21.3,-13.2 C11.6,-13.2 0,-5 0,4.2"/>
<path class="Note" transform="matrix(0.992,0,0,0.992,1029.03,1174.38)" d="M0,4.2 C0,8.5 3.1,13.3 11.2,13.3 C21.6,13.3 32.5,4.8 32.5,-4 C32.5,-9.9 27.5,-13.2 21.3,-13.2 C11.6,-13.2 0,-5 0,4.2"/>
<path class="Note" transform="matrix(0.992,0,0,0.992,2371.55,1199.18)" d="M0,4.2 C0,8.5 3.1,13.3 11.2,13.3 C21.6,13.3 32.5,4.8 32.5,-4 C32.5,-9.9 27.5,-13.2 21.3,-13.2 C11.6,-13.2 0,-5 0,4.2"/>
<path class="Note" transform="matrix(0.992,0,0,0.992,2013.38,1682.78)" d="M0,4.2 C0,8.5 3.1,13.3 11.2,13.3 C21.6,13.3 32.5,4.8 32.5,-4 C32.5,-9.9 27.5,-13.2 21.3,-13.2 C11.6,-13.2 0,-5 0,4.2"/>
<path class="Note" transform="matrix(0.992,0,0,0.992,1939.91,715.585)" d="M0,4.2 C0,8.5 3.1,13.3 11.2,13.3 C21.6,13.3 32.5,4.8 32.5,-4 C32.5,-9.9 27.5,-13.2 21.3,-13.2 C11.6,-13.2 0,-5 0,4.2"/>
<path class="Note" transform="matrix(0.992,0,0,0.992,1920.41,1657.98)" d="M0,4.2 C0,8.5 3.1,13.3 11.2,13.3 C21.6,13.3 32.5,4.8 32.5,-4 C32.5,-9.9 27.5,-13.2 21.3,-13.2 C11.6,-13.2 0,-5 0,4.2"/>
<path class="Note" transform="matrix(0.992,0,0,0.992,2477.53,1186.78)" d="M0,4.2 C0,8.5 3.1,13.3 11.2,13.3 C21.6,13.3 32.5,4.8 32.5,-4 C32.5,-9.9 27.5,-13.2 21.3,-13.2 C11.6,-13.2 0,-5 0,4.2"/>
<path class="Note" transform="matrix(0.992,0,0,0.992,958.383,1161.98)" d="M0,4.2 C0,8.5 3.1,13.3 11.2,13.3 C21.6,13.3 32.5,4.8 32.5,-4 C32.5,-9.9 27.5,-13.2 21.3,-13.2 C11.6,-13.2 0,-5 0,4.2"/>
<path class="Note" transform="matrix(0.992,0,0,0.992,2548.18,1174.38)" d="M0,4.2 C0,8.5 3.1,13.3 11.2,13.3 C21.6,13.3 32.5,4.8 32.5,-4 C32.5,-9.9 27.5,-13.2 21.3,-13.2 C11.6,-13.2 0,-5 0,4.2"/>
<path class="Note" transform="matrix(0.992,0,0,0.992,1827.44,1633.18)" d="M0,4.2 C0,8.5 3.1,13.3 11.2,13.3 C21.6,13.3 32.5,4.8 32.5,-4 C32.5,-9.9 27.5,-13.2 21.3,-13.2 C11.6,-13.2 0,-5 0,4.2"/>
<path class="Note" transform="matrix(0.992,0,0,0.992,2098.38,715.585)" d="M0,4.2 C0,8.5 3.1,13.3 11.2,13.3 C21.6,13.3 32.5,4.8 32.5,-4 C32.5,-9.9 27.5,-13.2 21.3,-13.2 C11.6,-13.2 0,-5 0,4.2"/>
<path class="Note" transform="matrix(0.992,0,0,0.992,887.732,1186.78)" d="M0,4.2 C0,8.5 3.1,13.3 11.2,13.3 C21.6,13.3 32.5,4.8 32.5,-4 C32.5,-9.9 27.5,-13.2 21.3,-13.2 C11.6,-13.2 0,-5 0,4.2"/>
<path class="Note" transform="matrix(0.992,0,0,0.992,2618.83,1199.18)" d="M0,4.2 C0,8.5 3.1,13.3 11.2,13.3 C21.6,13.3 32.5,4.8 32.5,-4 C32.5,-9.9 27.5,-13.2 21.3,-13.2 C11.6,-13.2 0,-5 0,4.2"/>
<path class="Note" transform="matrix(0.992,0,0,0.992,1697.77,1620.78)" d="M0,4.2 C0,8.5 3.1,13.3 11.2,13.3 C21.6,13.3 32.5,4.8 32.5,-4 C32.5,-9.9 27.5,-13.2 21.3,-13.2 C11.6,-13.2 0,-5 0,4.2"/>
<path class="Note" transform="matrix(0.992,0,0,0.992,2689.49,1149.58)" d="M0,4.2 C0,8.5 3.1,13.3 11.2,13.3 C21.6,13.3 32.5,4.8 32.5,-4 C32.5,-9.9 27.5,-13.2 21.3,-13.2 C11.6,-13.2 0,-5 0,4.2"/>
<path class="Note" transform="matrix(0.992,0,0,0.992,781.755,1161.98)" d="M0,4.2 C0,8.5 3.1,13.3 11.2,13.3 C21.6,13.3 32.5,4.8 32.5,-4 C32.5,-9.9 27.5,-13.2 21.3,-13.2 C11.6,-13.2 0,-5 0,4.2"/>
<path class="Note" transform="matrix(0.992,0,0,0.992,2223.39,777.585)" d="M0,4.2 C0,8.5 3.1,13.3 11.2,13.3 C21.6,13.3 32.5,4.8 32.5,-4 C32.5,-9.9 27.5,-13.2 21.3,-13.2 C11.6,-13.2 0,-5 0,4.2"/>
<path class="Note" transform="matrix(0.992,0,0,0.992,1558.31,1620.78)" d="M0,4.2 C0,8.5 3.1,13.3 11.2,13.3 C21.6,13.3 32.5,4.8 32.5,-4 C32.5,-9.9 27.5,-13.2 21.3,-13.2 C11.6,-13.2 0,-5 0,4.2"/>
<path class="Note" transform="matrix(0.992,0,0,0.992,587.912,740.385)" d="M0,4.2 C0,8.5 3.1,13.3 11.2,13.3 C21.6,13.3 32.5,4.8 32.5,-4 C32.5,-9.9 27.5,-13.2 21.3,-13.2 C11.6,-13.2 0,-5 0,4.2"/>
<path class="Note" transform="matrix(0.992,0,0,0.992,674.399,1149.58)" d="M0,4.2 C0,8.5 3.1,13.3 11.2,13.3 C21.6,13.3 32.5,4.8 32.5,-4 C32.5,-9.9 27.5,-13.2 21.3,-13.2 C11.6,-13.2 0,-5 0,4.2"/>
<path class="Note" transform="matrix(0.992,0,0,0.992,1324.8,678.385)" d="M0,4.2 C0,8.5 3.1,13.3 11.2,13.3 C21.6,13.3 32.5,4.8 32.5,-4 C32.5,-9.9 27.5,-13.2 21.3,-13.2 C11.6,-13.2 0,-5 0,4.2"/>
<path class="Note" transform="matrix(0.992,0,0,0.992,1381.53,1595.98)" d="M0,4.2 C0,8.5 3.1,13.3 11.2,13.3 C21.6,13.3 32.5,4.8 32.5,-4 C32.5,-9.9 27.5,-13.2 21.3,-13.2 C11.6,-13.2 0,-5 0,4.2"/>
<path class="Note" transform="matrix(0.992,0,0,0.992,2343.44,740.385)" d="M0,4.2 C0,8.5 3.1,13.3 11.2,13.3 C21.6,13.3 32.5,4.8 32.5,-4 C32.5,-9.9 27.5,-13.2 21.3,-13.2 C11.6,-13.2 0,-5 0,4.2"/>
<path class="Note" transform="matrix(0.992,0,0,0.992,434.078,1633.18)" d="M0,4.2 C0,8.5 3.1,13.3 11.2,13.3 C21.6,13.3 32.5,4.8 32.5,-4 C32.5,-9.9 27.5,-13.2 21.3,-13.2 C11.6,-13.2 0,-5 0,4.2"/>
<path class="Note" transform="matrix(0.992,0,0,0.992,2468.45,715.585)" d="M0,4.2 C0,8.5 3.1,13.3 11.2,13.3 C21.6,13.3 32.5,4.8 32.5,-4 C32.5,-9.9 27.5,-13.2 21.3,-13.2 C11.6,-13.2 0,-5 0,4.2"/>
<path class="Note" transform="matrix(0.992,0,0,0.992,1251.86,1595.98)" d="M0,4.2 C0,8.5 3.1,13.3 11.2,13.3 C21.6,13.3 32.5,4.8 32.5,-4 C32.5,-9.9 27.5,-13.2 21.3,-13.2 C11.6,-13.2 0,-5 0,4.2"/>
<path class="Note" transform="matrix(0.992,0,0,0.992,568.422,1149.58)" d="M0,4.2 C0,8.5 3.1,13.3 11.2,13.3 C21.6,13.3 32.5,4.8 32.5,-4 C32.5,-9.9 27.5,-13.2 21.3,-13.2 C11.6,-13.2 0,-5 0,4.2"/>
<path class="Note" transform="matrix(0.992,0,0,0.992,610.859,1657.98)" d="M0,4.2 C0,8.5 3.1,13.3 11.2,13.3 C21.6,13.3 32.5,4.8 32.5,-4 C32.5,-9.9 27.5,-13.2 21.3,-13.2 C11.6,-13.2 0,-5 0,4.2"/>
<path class="Note" transform="matrix(0.992,0,0,0.992,2551.79,690.785)" d="M0,4.2 C0,8.5 3.1,13.3 11.2,13.3 C21.6,13.3 32.5,4.8 32.5,-4 C32.5,-9.9 27.5,-13.2 21.3,-13.2 C11.6,-13.2 0,-5 0,4.2"/>
<path class="Note" transform="matrix(0.992,0,0,0.992,1112.41,1633.18)" d="M0,4.2 C0,8.5 3.1,13.3 11.2,13.3 C21.6,13.3 32.5,4.8 32.5,-4 C32.5,-9.9 27.5,-13.2 21.3,-13.2 C11.6,-13.2 0,-5 0,4.2"/>
<path class="Note" transform="matrix(0.992,0,0,0.992,2676.8,653.585)" d="M0,4.2 C0,8.5 3.1,13.3 11.2,13.3 C21.6,13.3 32.5,4.8 32.5,-4 C32.5,-9.9 27.5,-13.2 21.3,-13.2 C11.6,-13.2 0,-5 0,4.2"/>
<path class="Note" transform="matrix(0.992,0,0,0.992,434.078,1124.78)" d="M0,4.2 C0,8.5 3.1,13.3 11.2,13.3 C21.6,13.3 32.5,4.8 32.5,-4 C32.5,-9.9 27.5,-13.2 21.3,-13.2 C11.6,-13.2 0,-5 0,4.2"/>
<path class="Note" transform="matrix(0.992,0,0,0.992,1019.44,1657.98)" d="M0,4.2 C0,8.5 3.1,13.3 11.2,13.3 C21.6,13.3 32.5,4.8 32.5,-4 C32.5,-9.9 27.5,-13.2 21.3,-13.2 C11.6,-13.2 0,-5 0,4.2"/>
<path class="Note" transform="matrix(0.992,0,0,0.992,750.312,1719.98)" d="M0,4.2 C0,8.5 3.1,13.3 11.2,13.3 C21.6,13.3 32.5,4.8 32.5,-4 C32.5,-9.9 27.5,-13.2 21.3,-13.2 C11.6,-13.2 0,-5 0,4.2"/>
<path class="Note" transform="matrix(0.992,0,0,0.992,1199.79,678.385)" d="M0,4.2 C0,8.5 3.1,13.3 11.2,13.3 C21.6,13.3 32.5,4.8 32.5,-4 C32.5,-9.9 27.5,-13.2 21.3,-13.2 C11.6,-13.2 0,-5 0,4.2"/>
<path class="Note" transform="matrix(0.992,0,0,0.992,467.868,777.585)" d="M0,4.2 C0,8.5 3.1,13.3 11.2,13.3 C21.6,13.3 32.5,4.8 32.5,-4 C32.5,-9.9 27.5,-13.2 21.3,-13.2 C11.6,-13.2 0,-5 0,4.2"/>
<path class="Note" transform="matrix(0.992,0,0,0.992,1673,1248.78)" d="M0,4.2 C0,8.5 3.1,13.3 11.2,13.3 C21.6,13.3 32.5,4.8 32.5,-4 C32.5,-9.9 27.5,-13.2 21.3,-13.2 C11.6,-13.2 0,-5 0,4.2"/>
<path class="Clef" transform="matrix(0.992,0,0,0.992,232.438,703.185)" d="M12.3,51.3 C12.3,57.9 17.3,66.6 30.8,66.6 C35.5,66.6 39.6,65.4 43.2,63.2 C48.6,59.4 50,52.8 50,46.5 C50,42.6 49.4,38.1 48.4,32.4 C48.1,30.4 47.5,27.4 46.9,23.5 C56.7,20.3 64,10.1 64,-0.2 C64,-15.3 53.3,-25.5 38.7,-25.5 C37.7,-31.5 36.7,-37.4 35.9,-43 C46.4,-54.1 53.7,-66.6 53.7,-82.5 C53.7,-91.6 50.9,-99 49.3,-102.6 C46.9,-107.7 44,-111.2 42.2,-111.2 C41.5,-111.2 38.4,-110 35.1,-106.1 C28.7,-98.5 26.9,-85.7 26.9,-77.3 C26.9,-71.9 27.4,-67 29.1,-55.8 C29,-55.7 23.8,-50.4 21.7,-48.7 C12.6,-40.3 0,-28.1 0,-8.1 C0,10.6 16.3,25.3 34.9,25.3 C37.8,25.3 40.5,25 42.8,24.6 C44.7,34.2 45.9,41.2 45.9,46.5 C45.9,56.9 40.5,62.4 30.4,62.4 C28,62.4 25.9,61.9 25.7,61.9 C25.6,61.8 25.4,61.7 25.4,61.6 C25.4,61.4 25.6,61.3 25.9,61.3 C30.6,60.5 35.3,56.5 35.3,50.1 C35.3,44.7 31.2,39 23.7,39 C16.7,39 12.3,44.7 12.3,51.3 M33.2,-82.2 C34.1,-86.2 38.7,-96.7 43.9,-96.7 C45.4,-96.7 47.8,-91.9 47.8,-84.9 C47.8,-74.5 40.1,-66.7 33.2,-59.9 C32.6,-63.9 32.1,-67.8 32.1,-72 C32.1,-75.7 32.4,-79.1 33.2,-82.2 M42,20.6 C40,21 38.1,21.2 36.2,21.2 C21.9,21.2 9.7,11.2 9.7,-3.9 C9.7,-16.1 18.3,-27 27.1,-34.6 C28.8,-36.1 30.4,-37.5 31.9,-39 C32.8,-33.6 33.5,-28.9 34.2,-24.8 C25.1,-22.1 18.9,-12.5 18.9,-3.1 C18.9,3.9 24.4,13.5 32.4,13.5 C33.2,13.5 34.1,13.1 34.1,12.2 C34.1,11.3 33.1,10.8 31.9,10 C28,7.6 25.8,5 25.8,0.1 C25.8,-6 30.4,-10.9 36.2,-12.3 L42,20.6 M56.2,2.1 C56.2,9.2 53.3,16.5 46.2,19.4 C44.1,7.4 41.4,-8.5 40.7,-12.9 C49.7,-12.9 56.2,-6.8 56.2,2.1"/>
<path class="Clef" transform="matrix(0.992,0,0,0.992,232.438,1174.38)" d="M12.3,51.3 C12.3,57.9 17.3,66.6 30.8,66.6 C35.5,66.6 39.6,65.4 43.2,63.2 C48.6,59.4 50,52.8 50,46.5 C50,42.6 49.4,38.1 48.4,32.4 C48.1,30.4 47.5,27.4 46.9,23.5 C56.7,20.3 64,10.1 64,-0.2 C64,-15.3 53.3,-25.5 38.7,-25.5 C37.7,-31.5 36.7,-37.4 35.9,-43 C46.4,-54.1 53.7,-66.6 53.7,-82.5 C53.7,-91.6 50.9,-99 49.3,-102.6 C46.9,-107.7 44,-111.2 42.2,-111.2 C41.5,-111.2 38.4,-110 35.1,-106.1 C28.7,-98.5 26.9,-85.7 26.9,-77.3 C26.9,-71.9 27.4,-67 29.1,-55.8 C29,-55.7 23.8,-50.4 21.7,-48.7 C12.6,-40.3 0,-28.1 0,-8.1 C0,10.6 16.3,25.3 34.9,25.3 C37.8,25.3 40.5,25 42.8,24.6 C44.7,34.2 45.9,41.2 45.9,46.5 C45.9,56.9 40.5,62.4 30.4,62.4 C28,62.4 25.9,61.9 25.7,61.9 C25.6,61.8 25.4,61.7 25.4,61.6 C25.4,61.4 25.6,61.3 25.9,61.3 C30.6,60.5 35.3,56.5 35.3,50.1 C35.3,44.7 31.2,39 23.7,39 C16.7,39 12.3,44.7 12.3,51.3 M33.2,-82.2 C34.1,-86.2 38.7,-96.7 43.9,-96.7 C45.4,-96.7 47.8,-91.9 47.8,-84.9 C47.8,-74.5 40.1,-66.7 33.2,-59.9 C32.6,-63.9 32.1,-67.8 32.1,-72 C32.1,-75.7 32.4,-79.1 33.2,-82.2 M42,20.6 C40,21 38.1,21.2 36.2,21.2 C21.9,21.2 9.7,11.2 9.7,-3.9 C9.7,-16.1 18.3,-27 27.1,-34.6 C28.8,-36.1 30.4,-37.5 31.9,-39 C32.8,-33.6 33.5,-28.9 34.2,-24.8 C25.1,-22.1 18.9,-12.5 18.9,-3.1 C18.9,3.9 24.4,13.5 32.4,13.5 C33.2,13.5 34.1,13.1 34.1,12.2 C34.1,11.3 33.1,10.8 31.9,10 C28,7.6 25.8,5 25.8,0.1 C25.8,-6 30.4,-10.9 36.2,-12.3 L42,20.6 M56.2,2.1 C56.2,9.2 53.3,16.5 46.2,19.4 C44.1,7.4 41.4,-8.5 40.7,-12.9 C49.7,-12.9 56.2,-6.8 56.2,2.1"/>
<path class="Clef" transform="matrix(0.992,0,0,0.992,232.438,1645.58)" d="M12.3,51.3 C12.3,57.9 17.3,66.6 30.8,66.6 C35.5,66.6 39.6,65.4 43.2,63.2 C48.6,59.4 50,52.8 50,46.5 C50,42.6 49.4,38.1 48.4,32.4 C48.1,30.4 47.5,27.4 46.9,23.5 C56.7,20.3 64,10.1 64,-0.2 C64,-15.3 53.3,-25.5 38.7,-25.5 C37.7,-31.5 36.7,-37.4 35.9,-43 C46.4,-54.1 53.7,-66.6 53.7,-82.5 C53.7,-91.6 50.9,-99 49.3,-102.6 C46.9,-107.7 44,-111.2 42.2,-111.2 C41.5,-111.2 38.4,-110 35.1,-106.1 C28.7,-98.5 26.9,-85.7 26.9,-77.3 C26.9,-71.9 27.4,-67 29.1,-55.8 C29,-55.7 23.8,-50.4 21.7,-48.7 C12.6,-40.3 0,-28.1 0,-8.1 C0,10.6 16.3,25.3 34.9,25.3 C37.8,25.3 40.5,25 42.8,24.6 C44.7,34.2 45.9,41.2 45.9,46.5 C45.9,56.9 40.5,62.4 30.4,62.4 C28,62.4 25.9,61.9 25.7,61.9 C25.6,61.8 25.4,61.7 25.4,61.6 C25.4,61.4 25.6,61.3 25.9,61.3 C30.6,60.5 35.3,56.5 35.3,50.1 C35.3,44.7 31.2,39 23.7,39 C16.7,39 12.3,44.7 12.3,51.3 M33.2,-82.2 C34.1,-86.2 38.7,-96.7 43.9,-96.7 C45.4,-96.7 47.8,-91.9 47.8,-84.9 C47.8,-74.5 40.1,-66.7 33.2,-59.9 C32.6,-63.9 32.1,-67.8 32.1,-72 C32.1,-75.7 32.4,-79.1 33.2,-82.2 M42,20.6 C40,21 38.1,21.2 36.2,21.2 C21.9,21.2 9.7,11.2 9.7,-3.9 C9.7,-16.1 18.3,-27 27.1,-34.6 C28.8,-36.1 30.4,-37.5 31.9,-39 C32.8,-33.6 33.5,-28.9 34.2,-24.8 C25.1,-22.1 18.9,-12.5 18.9,-3.1 C18.9,3.9 24.4,13.5 32.4,13.5 C33.2,13.5 34.1,13.1 34.1,12.2 C34.1,11.3 33.1,10.8 31.9,10 C28,7.6 25.8,5 25.8,0.1 C25.8,-6 30.4,-10.9 36.2,-12.3 L42,20.6 M56.2,2.1 C56.2,9.2 53.3,16.5 46.2,19.4 C44.1,7.4 41.4,-8.5 40.7,-12.9 C49.7,-12.9 56.2,-6.8 56.2,2.1"/>
<path class="KeySig" transform="matrix(0.992,0,0,0.992,320.711,1571.18)" d="M23.3,-10.5 C23.9,-10.6 24.4,-11.3 24.4,-11.9 L24.4,-17.8 C24.4,-18.8 23.7,-19.2 22.8,-19.2 L19.5,-18.5 L19.5,-33.4 L16.7,-33.4 L16.7,-17.9 L7.8,-16.1 L7.8,-30.2 L5,-30.2 L5,-15.5 L1.1,-14.7 C0.5,-14.6 0,-13.9 0,-13.3 L0,-7.5 C0,-6.4 0.8,-6.1 1.7,-6.1 L5,-6.8 L5,9.7 L1.1,10.5 C0.5,10.6 0,11.3 0,11.9 L0,17.7 C0,18.8 0.8,19.1 1.7,19.1 L5,18.4 L5,33.3 L7.8,33.3 L7.8,17.8 L16.7,16 L16.7,30.1 L19.5,30.1 L19.5,15.4 L23.3,14.7 C23.9,14.6 24.4,13.9 24.4,13.3 L24.4,7.4 C24.4,6.4 23.7,6 22.8,6 L19.5,6.7 L19.5,-9.8 L23.3,-10.5 M7.8,-7.4 L16.7,-9.2 L16.7,7.3 L7.8,9.2 L7.8,-7.4 "/>
<path class="KeySig" transform="matrix(0.992,0,0,0.992,347.882,1608.38)" d="M23.3,-10.5 C23.9,-10.6 24.4,-11.3 24.4,-11.9 L24.4,-17.8 C24.4,-18.8 23.7,-19.2 22.8,-19.2 L19.5,-18.5 L19.5,-33.4 L16.7,-33.4 L16.7,-17.9 L7.8,-16.1 L7.8,-30.2 L5,-30.2 L5,-15.5 L1.1,-14.7 C0.5,-14.6 0,-13.9 0,-13.3 L0,-7.5 C0,-6.4 0.8,-6.1 1.7,-6.1 L5,-6.8 L5,9.7 L1.1,10.5 C0.5,10.6 0,11.3 0,11.9 L0,17.7 C0,18.8 0.8,19.1 1.7,19.1 L5,18.4 L5,33.3 L7.8,33.3 L7.8,17.8 L16.7,16 L16.7,30.1 L19.5,30.1 L19.5,15.4 L23.3,14.7 C23.9,14.6 24.4,13.9 24.4,13.3 L24.4,7.4 C24.4,6.4 23.7,6 22.8,6 L19.5,6.7 L19.5,-9.8 L23.3,-10.5 M7.8,-7.4 L16.7,-9.2 L16.7,7.3 L7.8,9.2 L7.8,-7.4 "/>
<path class="KeySig" transform="matrix(0.992,0,0,0.992,320.711,628.785)" d="M23.3,-10.5 C23.9,-10.6 24.4,-11.3 24.4,-11.9 L24.4,-17.8 C24.4,-18.8 23.7,-19.2 22.8,-19.2 L19.5,-18.5 L19.5,-33.4 L16.7,-33.4 L16.7,-17.9 L7.8,-16.1 L7.8,-30.2 L5,-30.2 L5,-15.5 L1.1,-14.7 C0.5,-14.6 0,-13.9 0,-13.3 L0,-7.5 C0,-6.4 0.8,-6.1 1.7,-6.1 L5,-6.8 L5,9.7 L1.1,10.5 C0.5,10.6 0,11.3 0,11.9 L0,17.7 C0,18.8 0.8,19.1 1.7,19.1 L5,18.4 L5,33.3 L7.8,33.3 L7.8,17.8 L16.7,16 L16.7,30.1 L19.5,30.1 L19.5,15.4 L23.3,14.7 C23.9,14.6 24.4,13.9 24.4,13.3 L24.4,7.4 C24.4,6.4 23.7,6 22.8,6 L19.5,6.7 L19.5,-9.8 L23.3,-10.5 M7.8,-7.4 L16.7,-9.2 L16.7,7.3 L7.8,9.2 L7.8,-7.4 "/>
<path class="KeySig" transform="matrix(0.992,0,0,0.992,347.882,665.985)" d="M23.3,-10.5 C23.9,-10.6 24.4,-11.3 24.4,-11.9 L24.4,-17.8 C24.4,-18.8 23.7,-19.2 22.8,-19.2 L19.5,-18.5 L19.5,-33.4 L16.7,-33.4 L16.7,-17.9 L7.8,-16.1 L7.8,-30.2 L5,-30.2 L5,-15.5 L1.1,-14.7 C0.5,-14.6 0,-13.9 0,-13.3 L0,-7.5 C0,-6.4 0.8,-6.1 1.7,-6.1 L5,-6.8 L5,9.7 L1.1,10.5 C0.5,10.6 0,11.3 0,11.9 L0,17.7 C0,18.8 0.8,19.1 1.7,19.1 L5,18.4 L5,33.3 L7.8,33.3 L7.8,17.8 L16.7,16 L16.7,30.1 L19.5,30.1 L19.5,15.4 L23.3,14.7 C23.9,14.6 24.4,13.9 24.4,13.3 L24.4,7.4 C24.4,6.4 23.7,6 22.8,6 L19.5,6.7 L19.5,-9.8 L23.3,-10.5 M7.8,-7.4 L16.7,-9.2 L16.7,7.3 L7.8,9.2 L7.8,-7.4 "/>
<path class="KeySig" transform="matrix(0.992,0,0,0.992,320.711,1099.98)" d="M23.3,-10.5 C23.9,-10.6 24.4,-11.3 24.4,-11.9 L24.4,-17.8 C24.4,-18.8 23.7,-19.2 22.8,-19.2 L19.5,-18.5 L19.5,-33.4 L16.7,-33.4 L16.7,-17.9 L7.8,-16.1 L7.8,-30.2 L5,-30.2 L5,-15.5 L1.1,-14.7 C0.5,-14.6 0,-13.9 0,-13.3 L0,-7.5 C0,-6.4 0.8,-6.1 1.7,-6.1 L5,-6.8 L5,9.7 L1.1,10.5 C0.5,10.6 0,11.3 0,11.9 L0,17.7 C0,18.8 0.8,19.1 1.7,19.1 L5,18.4 L5,33.3 L7.8,33.3 L7.8,17.8 L16.7,16 L16.7,30.1 L19.5,30.1 L19.5,15.4 L23.3,14.7 C23.9,14.6 24.4,13.9 24.4,13.3 L24.4,7.4 C24.4,6.4 23.7,6 22.8,6 L19.5,6.7 L19.5,-9.8 L23.3,-10.5 M7.8,-7.4 L16.7,-9.2 L16.7,7.3 L7.8,9.2 L7.8,-7.4 "/>
<path class="KeySig" transform="matrix(0.992,0,0,0.992,347.882,1137.18)" d="M23.3,-10.5 C23.9,-10.6 24.4,-11.3 24.4,-11.9 L24.4,-17.8 C24.4,-18.8 23.7,-19.2 22.8,-19.2 L19.5,-18.5 L19.5,-33.4 L16.7,-33.4 L16.7,-17.9 L7.8,-16.1 L7.8,-30.2 L5,-30.2 L5,-15.5 L1.1,-14.7 C0.5,-14.6 0,-13.9 0,-13.3 L0,-7.5 C0,-6.4 0.8,-6.1 1.7,-6.1 L5,-6.8 L5,9.7 L1.1,10.5 C0.5,10.6 0,11.3 0,11.9 L0,17.7 C0,18.8 0.8,19.1 1.7,19.1 L5,18.4 L5,33.3 L7.8,33.3 L7.8,17.8 L16.7,16 L16.7,30.1 L19.5,30.1 L19.5,15.4 L23.3,14.7 C23.9,14.6 24.4,13.9 24.4,13.3 L24.4,7.4 C24.4,6.4 23.7,6 22.8,6 L19.5,6.7 L19.5,-9.8 L23.3,-10.5 M7.8,-7.4 L16.7,-9.2 L16.7,7.3 L7.8,9.2 L7.8,-7.4 "/>
<path class="TimeSig" transform="matrix(0.992,0,0,0.992,395.7,654.081)" d="M24.7,-4.8 C18.6,-4.8 16.4,-3 15,-1.5 C14.7,-3.6 14.5,-5.2 14.5,-6.8 C14.5,-12.5 16.5,-19.9 23.5,-19.9 C26,-19.9 27.5,-19.1 28.5,-18 C26.4,-17.1 24.7,-14.4 24.7,-12.1 C24.7,-8.5 27.5,-5.7 31.1,-5.7 C34.7,-5.7 37.6,-8.5 37.6,-12.1 L37.6,-12.4 C37.6,-13.3 37.4,-14.8 37,-15.6 C35.7,-19.2 31.5,-24.5 21.5,-24.5 C12.5,-24.5 6,-15.9 4,-11.3 C3,-8.9 1.5,-4 1.5,1.6 C1.5,7.7 3.2,14.6 9.1,19.8 C14.9,24.2 18.6,24.4 22.1,24.4 C25.6,24.4 38.7,20.3 38.7,8.7 C38.7,-1.1 31,-4.8 24.7,-4.8 M21,20.2 C17.7,20.2 15,15.7 15,10.1 C15,4.5 17.7,-0.1 21,-0.1 C24.3,-0.1 27.1,4.5 27.1,10.1 C27.1,15.7 24.3,20.2 21,20.2"/>
<path class="TimeSig" transform="matrix(0.992,0,0,0.992,395.405,702.937)" d="M32.4,-1.8 C35.7,-4.3 38,-7.5 38,-11.5 C38,-18.7 30.1,-24.6 20.4,-24.6 C10.7,-24.6 2.8,-18.7 2.8,-11.5 C2.8,-7.5 3.8,-3.9 8.5,-0.9 C4,1.7 1.5,5.4 1.5,10.2 C1.5,18.3 10,24.8 20.4,24.8 C30.8,24.8 39.3,18.3 39.3,10.2 C39.3,5.4 37.6,0.9 32.4,-1.8 M26.8,-4.5 C20,-6.7 12.5,-10 12.5,-14.5 C12.5,-18.4 16.1,-20 20.4,-20 C26.6,-20 30.8,-17.1 30.8,-12.5 C30.8,-7.7 28.6,-5.4 26.8,-4.5 M20.4,19.2 C14,19.2 8.5,15.7 8.5,10.1 C8.5,3.4 13.7,1.8 13.7,1.8 C20.5,4.1 30.2,7.5 30.2,13 C30.2,15.7 26.8,19.2 20.4,19.2"/>
<path class="Beam" fill-rule="evenodd" d="M1856.94,1558.77 L2045.6,1571.17 L2045.6,1583.6 L1856.94,1571.2 L1856.94,1558.77 "/>
<path class="Beam" fill-rule="evenodd" d="M2577.68,1081.38 L2721.71,1075.18 L2721.71,1087.59 L2577.68,1093.79 L2577.68,1081.38 "/>
<path class="Beam" fill-rule="evenodd" d="M1682.69,622.581 L1852.09,616.381 L1852.09,628.789 L1682.69,634.989 L1682.69,622.581 "/>
<path class="Beam" fill-rule="evenodd" d="M2135.84,1595.97 L2324.51,1583.57 L2324.51,1596 L2135.84,1608.4 L2135.84,1595.97 "/>
<path class="Beam" fill-rule="evenodd" d="M987.88,1087.56 L1131.91,1099.96 L1131.91,1112.41 L987.88,1100.01 L987.88,1087.56 "/>
<path class="Harmony" d="M2551.79,566.785 L2570.27,566.785 C2575.16,566.785 2578.9,566.015 2581.82,564.365 C2587.37,561.23 2590.45,554.96 2590.45,546.71 C2590.45,539.12 2587.7,533.18 2582.64,529.88 C2579.62,527.955 2575.55,527.075 2569.28,527.075 L2551.79,527.075 L2551.79,529.66 L2552.83,529.66 C2555.91,529.715 2556.96,529.88 2557.4,530.43 C2557.73,530.925 2557.73,531.035 2557.73,533.84 L2557.73,560.02 C2557.73,562.825 2557.73,562.935 2557.4,563.43 C2556.96,563.98 2555.91,564.145 2552.83,564.2 L2551.79,564.2 L2551.79,566.785 M2567.02,564.2 C2564.22,564.2 2563.89,563.87 2563.89,561.175 L2563.89,532.74 C2563.89,530.045 2564.27,529.66 2567.02,529.66 L2569.88,529.66 C2579.29,529.66 2583.19,534.775 2583.19,546.93 C2583.19,559.25 2579.67,564.2 2570.76,564.2 L2567.02,564.2 "/>
<path class="Harmony" d="M1990.52,997.505 L1988.21,997.505 L1975.56,1029.57 C1974.07,1033.86 1972.64,1035.18 1969.51,1035.4 L1969.29,1035.4 L1969.29,1037.98 L1983.86,1037.98 L1983.86,1035.4 L1982.76,1035.4 C1979.79,1035.4 1978.31,1034.35 1978.31,1032.26 C1978.31,1031.55 1978.47,1030.89 1978.8,1029.95 L1980.62,1025.11 L1995.19,1025.11 L1998.16,1032.48 C1998.49,1033.36 1998.6,1033.69 1998.6,1033.97 C1998.6,1034.85 1997.23,1035.4 1995.19,1035.4 L1992.88,1035.4 L1992.88,1037.98 L2009.93,1037.98 L2009.93,1035.4 L2009.16,1035.4 C2006.3,1035.34 2005.81,1035.01 2004.54,1031.88 L1990.52,997.505 M1987.82,1006.52 L1994.04,1022.14 L1981.72,1022.14 L1987.82,1006.52 "/>
<path class="Harmony" d="M1743.65,1037.98 L1762.13,1037.98 C1767.03,1037.98 1770.77,1037.21 1773.68,1035.56 C1779.24,1032.43 1782.32,1026.16 1782.32,1017.91 C1782.32,1010.32 1779.57,1004.38 1774.51,1001.08 C1771.48,999.155 1767.41,998.275 1761.14,998.275 L1743.65,998.275 L1743.65,1000.86 L1744.7,1000.86 C1747.78,1000.91 1748.82,1001.08 1749.26,1001.63 C1749.59,1002.12 1749.59,1002.23 1749.59,1005.04 L1749.59,1031.22 C1749.59,1034.02 1749.59,1034.13 1749.26,1034.63 C1748.82,1035.18 1747.78,1035.34 1744.7,1035.4 L1743.65,1035.4 L1743.65,1037.98 M1758.89,1035.4 C1756.08,1035.4 1755.75,1035.07 1755.75,1032.37 L1755.75,1003.94 C1755.75,1001.24 1756.14,1000.86 1758.89,1000.86 L1761.75,1000.86 C1771.15,1000.86 1775.06,1005.97 1775.06,1018.13 C1775.06,1030.45 1771.54,1035.4 1762.63,1035.4 L1758.89,1035.4 "/>
<path class="Harmony" d="M1414.99,1469.09 L1412.9,1469.09 L1410.75,1472.39 C1407.18,1469.58 1404.76,1468.65 1400.74,1468.65 C1396.4,1468.65 1392.99,1469.86 1389.52,1472.66 C1384.08,1477.06 1381.55,1482.62 1381.55,1490.04 C1381.55,1495.65 1383.14,1500.33 1386.39,1503.9 C1389.8,1507.75 1394.86,1510.01 1400.14,1510.01 C1404.76,1510.01 1408,1508.58 1411.58,1505 L1413.61,1509.95 L1415.92,1509.95 L1415.92,1497.85 C1415.92,1495.05 1415.92,1494.94 1416.25,1494.44 C1416.75,1493.84 1417.74,1493.67 1420.87,1493.67 L1421.7,1493.67 L1421.7,1491.09 L1404.21,1491.09 L1404.21,1493.67 L1405.25,1493.67 C1409.87,1493.67 1410.26,1493.95 1410.26,1497.03 C1410.26,1499.39 1409.87,1501.54 1409.16,1502.86 C1407.78,1505.55 1404.26,1507.42 1400.69,1507.42 C1397.11,1507.42 1393.59,1505.61 1391.72,1502.86 C1389.69,1499.78 1388.81,1495.93 1388.81,1490.04 C1388.81,1477.78 1392.88,1471.23 1400.52,1471.23 C1406.79,1471.23 1411.14,1475.74 1413.39,1484.54 L1415.76,1484.54 L1414.99,1469.09 "/>
<path class="Harmony" d="M467.531,997.89 L465.441,997.89 L463.296,1001.19 C459.721,998.385 457.301,997.45 453.286,997.45 C448.941,997.45 445.531,998.66 442.066,1001.46 C436.621,1005.86 434.091,1011.42 434.091,1018.84 C434.091,1024.45 435.686,1029.13 438.931,1032.7 C442.341,1036.55 447.401,1038.81 452.681,1038.81 C457.301,1038.81 460.546,1037.38 464.121,1033.8 L466.156,1038.75 L468.466,1038.75 L468.466,1026.65 C468.466,1023.85 468.466,1023.74 468.796,1023.24 C469.291,1022.64 470.281,1022.47 473.416,1022.47 L474.241,1022.47 L474.241,1019.89 L456.751,1019.89 L456.751,1022.47 L457.796,1022.47 C462.416,1022.47 462.801,1022.75 462.801,1025.83 C462.801,1028.19 462.416,1030.34 461.701,1031.66 C460.326,1034.35 456.806,1036.22 453.231,1036.22 C449.656,1036.22 446.136,1034.41 444.266,1031.66 C442.231,1028.58 441.351,1024.73 441.351,1018.84 C441.351,1006.58 445.421,1000.03 453.066,1000.03 C459.336,1000.03 463.681,1004.54 465.936,1013.34 L468.301,1013.34 L467.531,997.89 "/>
<path class="Harmony" d="M587.913,566.785 L606.393,566.785 C611.288,566.785 615.028,566.015 617.943,564.365 C623.498,561.23 626.578,554.96 626.578,546.71 C626.578,539.12 623.828,533.18 618.768,529.88 C615.743,527.955 611.673,527.075 605.403,527.075 L587.913,527.075 L587.913,529.66 L588.958,529.66 C592.038,529.715 593.083,529.88 593.523,530.43 C593.853,530.925 593.853,531.035 593.853,533.84 L593.853,560.02 C593.853,562.825 593.853,562.935 593.523,563.43 C593.083,563.98 592.038,564.145 588.958,564.2 L587.913,564.2 L587.913,566.785 M603.148,564.2 C600.343,564.2 600.013,563.87 600.013,561.175 L600.013,532.74 C600.013,530.045 600.398,529.66 603.148,529.66 L606.008,529.66 C615.413,529.66 619.318,534.775 619.318,546.93 C619.318,559.25 615.798,564.2 606.888,564.2 L603.148,564.2 "/>
<path class="Harmony" d="M1591.77,1469.09 L1589.68,1469.09 L1587.53,1472.39 C1583.96,1469.58 1581.54,1468.65 1577.52,1468.65 C1573.18,1468.65 1569.77,1469.86 1566.3,1472.66 C1560.86,1477.06 1558.33,1482.62 1558.33,1490.04 C1558.33,1495.65 1559.92,1500.33 1563.17,1503.9 C1566.58,1507.75 1571.64,1510.01 1576.92,1510.01 C1581.54,1510.01 1584.78,1508.58 1588.36,1505 L1590.39,1509.95 L1592.7,1509.95 L1592.7,1497.85 C1592.7,1495.05 1592.7,1494.94 1593.03,1494.44 C1593.53,1493.84 1594.52,1493.67 1597.65,1493.67 L1598.48,1493.67 L1598.48,1491.09 L1580.99,1491.09 L1580.99,1493.67 L1582.03,1493.67 C1586.65,1493.67 1587.04,1493.95 1587.04,1497.03 C1587.04,1499.39 1586.65,1501.54 1585.94,1502.86 C1584.56,1505.55 1581.04,1507.42 1577.47,1507.42 C1573.89,1507.42 1570.37,1505.61 1568.5,1502.86 C1566.47,1499.78 1565.59,1495.93 1565.59,1490.04 C1565.59,1477.78 1569.66,1471.23 1577.3,1471.23 C1583.57,1471.23 1587.92,1475.74 1590.17,1484.54 L1592.54,1484.54 L1591.77,1469.09 "/>
<path class="Harmony" d="M879.986,1509.18 L898.466,1509.18 C903.361,1509.18 907.101,1508.41 910.016,1506.76 C915.571,1503.63 918.651,1497.36 918.651,1489.11 C918.651,1481.52 915.901,1475.58 910.841,1472.28 C907.816,1470.35 903.746,1469.47 897.476,1469.47 L879.986,1469.47 L879.986,1472.06 L881.031,1472.06 C884.111,1472.11 885.156,1472.28 885.596,1472.83 C885.926,1473.32 885.926,1473.43 885.926,1476.24 L885.926,1502.42 C885.926,1505.22 885.926,1505.33 885.596,1505.83 C885.156,1506.38 884.111,1506.54 881.031,1506.6 L879.986,1506.6 L879.986,1509.18 M895.221,1506.6 C892.416,1506.6 892.086,1506.27 892.086,1503.57 L892.086,1475.14 C892.086,1472.44 892.471,1472.06 895.221,1472.06 L898.081,1472.06 C907.486,1472.06 911.391,1477.17 911.391,1489.33 C911.391,1501.65 907.871,1506.6 898.961,1506.6 L895.221,1506.6 "/>
<path class="Harmony" d="M1074.77,526.69 L1072.68,526.69 L1070.53,529.99 C1066.96,527.185 1064.54,526.25 1060.52,526.25 C1056.18,526.25 1052.77,527.46 1049.3,530.265 C1043.86,534.665 1041.33,540.22 1041.33,547.645 C1041.33,553.255 1042.92,557.93 1046.17,561.505 C1049.58,565.355 1054.64,567.61 1059.92,567.61 C1064.54,567.61 1067.78,566.18 1071.36,562.605 L1073.39,567.555 L1075.7,567.555 L1075.7,555.455 C1075.7,552.65 1075.7,552.54 1076.03,552.045 C1076.53,551.44 1077.52,551.275 1080.65,551.275 L1081.48,551.275 L1081.48,548.69 L1063.99,548.69 L1063.99,551.275 L1065.03,551.275 C1069.65,551.275 1070.04,551.55 1070.04,554.63 C1070.04,556.995 1069.65,559.14 1068.94,560.46 C1067.56,563.155 1064.04,565.025 1060.47,565.025 C1056.89,565.025 1053.37,563.21 1051.5,560.46 C1049.47,557.38 1048.59,553.53 1048.59,547.645 C1048.59,535.38 1052.66,528.835 1060.3,528.835 C1066.57,528.835 1070.92,533.345 1073.17,542.145 L1075.54,542.145 L1074.77,526.69 "/>
<path class="Harmony" d="M781.756,1037.98 L800.236,1037.98 C805.131,1037.98 808.871,1037.21 811.786,1035.56 C817.341,1032.43 820.421,1026.16 820.421,1017.91 C820.421,1010.32 817.671,1004.38 812.611,1001.08 C809.586,999.155 805.516,998.275 799.246,998.275 L781.756,998.275 L781.756,1000.86 L782.801,1000.86 C785.881,1000.91 786.926,1001.08 787.366,1001.63 C787.696,1002.12 787.696,1002.23 787.696,1005.04 L787.696,1031.22 C787.696,1034.02 787.696,1034.13 787.366,1034.63 C786.926,1035.18 785.881,1035.34 782.801,1035.4 L781.756,1035.4 L781.756,1037.98 M796.991,1035.4 C794.186,1035.4 793.856,1035.07 793.856,1032.37 L793.856,1003.94 C793.856,1001.24 794.241,1000.86 796.991,1000.86 L799.851,1000.86 C809.256,1000.86 813.161,1005.97 813.161,1018.13 C813.161,1030.45 809.641,1035.4 800.731,1035.4 L796.991,1035.4 "/>
<path class="Harmony" d="M2098.39,566.785 L2116.87,566.785 C2121.76,566.785 2125.5,566.015 2128.42,564.365 C2133.97,561.23 2137.05,554.96 2137.05,546.71 C2137.05,539.12 2134.3,533.18 2129.24,529.88 C2126.22,527.955 2122.15,527.075 2115.88,527.075 L2098.39,527.075 L2098.39,529.66 L2099.43,529.66 C2102.51,529.715 2103.56,529.88 2104,530.43 C2104.33,530.925 2104.33,531.035 2104.33,533.84 L2104.33,560.02 C2104.33,562.825 2104.33,562.935 2104,563.43 C2103.56,563.98 2102.51,564.145 2099.43,564.2 L2098.39,564.2 L2098.39,566.785 M2113.62,564.2 C2110.82,564.2 2110.49,563.87 2110.49,561.175 L2110.49,532.74 C2110.49,530.045 2110.87,529.66 2113.62,529.66 L2116.48,529.66 C2125.89,529.66 2129.79,534.775 2129.79,546.93 C2129.79,559.25 2126.27,564.2 2117.36,564.2 L2113.62,564.2 "/>
<path class="Harmony" d="M2569.41,997.505 L2567.1,997.505 L2554.45,1029.57 C2552.97,1033.86 2551.54,1035.18 2548.4,1035.4 L2548.18,1035.4 L2548.18,1037.98 L2562.76,1037.98 L2562.76,1035.4 L2561.66,1035.4 C2558.69,1035.4 2557.2,1034.35 2557.2,1032.26 C2557.2,1031.55 2557.37,1030.89 2557.7,1029.95 L2559.51,1025.11 L2574.09,1025.11 L2577.06,1032.48 C2577.39,1033.36 2577.5,1033.69 2577.5,1033.97 C2577.5,1034.85 2576.12,1035.4 2574.09,1035.4 L2571.78,1035.4 L2571.78,1037.98 L2588.83,1037.98 L2588.83,1035.4 L2588.06,1035.4 C2585.2,1035.34 2584.7,1035.01 2583.44,1031.88 L2569.41,997.505 M2566.72,1006.52 L2572.93,1022.14 L2560.61,1022.14 L2566.72,1006.52 "/>
<path class="Harmony" d="M1939.91,566.785 L1958.39,566.785 C1963.29,566.785 1967.03,566.015 1969.94,564.365 C1975.5,561.23 1978.58,554.96 1978.58,546.71 C1978.58,539.12 1975.83,533.18 1970.77,529.88 C1967.74,527.955 1963.67,527.075 1957.4,527.075 L1939.91,527.075 L1939.91,529.66 L1940.96,529.66 C1944.04,529.715 1945.08,529.88 1945.52,530.43 C1945.85,530.925 1945.85,531.035 1945.85,533.84 L1945.85,560.02 C1945.85,562.825 1945.85,562.935 1945.52,563.43 C1945.08,563.98 1944.04,564.145 1940.96,564.2 L1939.91,564.2 L1939.91,566.785 M1955.15,564.2 C1952.34,564.2 1952.01,563.87 1952.01,561.175 L1952.01,532.74 C1952.01,530.045 1952.4,529.66 1955.15,529.66 L1958.01,529.66 C1967.41,529.66 1971.32,534.775 1971.32,546.93 C1971.32,559.25 1967.8,564.2 1958.89,564.2 L1955.15,564.2 "/>
<path class="Harmony" d="M601.875,997.89 L599.785,997.89 L597.64,1001.19 C594.065,998.385 591.645,997.45 587.63,997.45 C583.285,997.45 579.875,998.66 576.41,1001.46 C570.965,1005.86 568.435,1011.42 568.435,1018.84 C568.435,1024.45 570.03,1029.13 573.275,1032.7 C576.685,1036.55 581.745,1038.81 587.025,1038.81 C591.645,1038.81 594.89,1037.38 598.465,1033.8 L600.5,1038.75 L602.81,1038.75 L602.81,1026.65 C602.81,1023.85 602.81,1023.74 603.14,1023.24 C603.635,1022.64 604.625,1022.47 607.76,1022.47 L608.585,1022.47 L608.585,1019.89 L591.095,1019.89 L591.095,1022.47 L592.14,1022.47 C596.76,1022.47 597.145,1022.75 597.145,1025.83 C597.145,1028.19 596.76,1030.34 596.045,1031.66 C594.67,1034.35 591.15,1036.22 587.575,1036.22 C584,1036.22 580.48,1034.41 578.61,1031.66 C576.575,1028.58 575.695,1024.73 575.695,1018.84 C575.695,1006.58 579.765,1000.03 587.41,1000.03 C593.68,1000.03 598.025,1004.54 600.28,1013.34 L602.645,1013.34 L601.875,997.89 "/>
<path class="Harmony" d="M1588.25,997.505 L1585.94,997.505 L1573.29,1029.57 C1571.81,1033.86 1570.38,1035.18 1567.24,1035.4 L1567.02,1035.4 L1567.02,1037.98 L1581.6,1037.98 L1581.6,1035.4 L1580.5,1035.4 C1577.53,1035.4 1576.04,1034.35 1576.04,1032.26 C1576.04,1031.55 1576.21,1030.89 1576.54,1029.95 L1578.35,1025.11 L1592.93,1025.11 L1595.9,1032.48 C1596.23,1033.36 1596.34,1033.69 1596.34,1033.97 C1596.34,1034.85 1594.96,1035.4 1592.93,1035.4 L1590.62,1035.4 L1590.62,1037.98 L1607.67,1037.98 L1607.67,1035.4 L1606.9,1035.4 C1604.04,1035.34 1603.54,1035.01 1602.28,1031.88 L1588.25,997.505 M1585.56,1006.52 L1591.77,1022.14 L1579.45,1022.14 L1585.56,1006.52 "/>
<path class="Harmony" d="M1827.44,1509.18 L1845.92,1509.18 C1850.82,1509.18 1854.56,1508.41 1857.47,1506.76 C1863.03,1503.63 1866.11,1497.36 1866.11,1489.11 C1866.11,1481.52 1863.36,1475.58 1858.3,1472.28 C1855.27,1470.35 1851.2,1469.47 1844.93,1469.47 L1827.44,1469.47 L1827.44,1472.06 L1828.49,1472.06 C1831.57,1472.11 1832.61,1472.28 1833.05,1472.83 C1833.38,1473.32 1833.38,1473.43 1833.38,1476.24 L1833.38,1502.42 C1833.38,1505.22 1833.38,1505.33 1833.05,1505.83 C1832.61,1506.38 1831.57,1506.54 1828.49,1506.6 L1827.44,1506.6 L1827.44,1509.18 M1842.68,1506.6 C1839.87,1506.6 1839.54,1506.27 1839.54,1503.57 L1839.54,1475.14 C1839.54,1472.44 1839.93,1472.06 1842.68,1472.06 L1845.54,1472.06 C1854.94,1472.06 1858.85,1477.17 1858.85,1489.33 C1858.85,1501.65 1855.33,1506.6 1846.42,1506.6 L1842.68,1506.6 "/>
<path class="Harmony" d="M1341.39,1037.98 L1359.87,1037.98 C1364.76,1037.98 1368.5,1037.21 1371.42,1035.56 C1376.97,1032.43 1380.05,1026.16 1380.05,1017.91 C1380.05,1010.32 1377.3,1004.38 1372.24,1001.08 C1369.22,999.155 1365.15,998.275 1358.88,998.275 L1341.39,998.275 L1341.39,1000.86 L1342.43,1000.86 C1345.51,1000.91 1346.56,1001.08 1347,1001.63 C1347.33,1002.12 1347.33,1002.23 1347.33,1005.04 L1347.33,1031.22 C1347.33,1034.02 1347.33,1034.13 1347,1034.63 C1346.56,1035.18 1345.51,1035.34 1342.43,1035.4 L1341.39,1035.4 L1341.39,1037.98 M1356.62,1035.4 C1353.82,1035.4 1353.49,1035.07 1353.49,1032.37 L1353.49,1003.94 C1353.49,1001.24 1353.87,1000.86 1356.62,1000.86 L1359.48,1000.86 C1368.89,1000.86 1372.79,1005.97 1372.79,1018.13 C1372.79,1030.45 1369.27,1035.4 1360.36,1035.4 L1356.62,1035.4 "/>
<path class="Harmony" d="M2343.44,566.785 L2361.92,566.785 C2366.81,566.785 2370.55,566.015 2373.47,564.365 C2379.02,561.23 2382.1,554.96 2382.1,546.71 C2382.1,539.12 2379.35,533.18 2374.29,529.88 C2371.27,527.955 2367.2,527.075 2360.93,527.075 L2343.44,527.075 L2343.44,529.66 L2344.48,529.66 C2347.56,529.715 2348.61,529.88 2349.05,530.43 C2349.38,530.925 2349.38,531.035 2349.38,533.84 L2349.38,560.02 C2349.38,562.825 2349.38,562.935 2349.05,563.43 C2348.61,563.98 2347.56,564.145 2344.48,564.2 L2343.44,564.2 L2343.44,566.785 M2358.67,564.2 C2355.87,564.2 2355.54,563.87 2355.54,561.175 L2355.54,532.74 C2355.54,530.045 2355.92,529.66 2358.67,529.66 L2361.53,529.66 C2370.94,529.66 2374.84,534.775 2374.84,546.93 C2374.84,559.25 2371.32,564.2 2362.41,564.2 L2358.67,564.2 "/>
<path class="Harmony" d="M979.611,997.505 L977.301,997.505 L964.651,1029.57 C963.166,1033.86 961.736,1035.18 958.601,1035.4 L958.381,1035.4 L958.381,1037.98 L972.956,1037.98 L972.956,1035.4 L971.856,1035.4 C968.886,1035.4 967.401,1034.35 967.401,1032.26 C967.401,1031.55 967.566,1030.89 967.896,1029.95 L969.711,1025.11 L984.286,1025.11 L987.256,1032.48 C987.586,1033.36 987.696,1033.69 987.696,1033.97 C987.696,1034.85 986.321,1035.4 984.286,1035.4 L981.976,1035.4 L981.976,1037.98 L999.026,1037.98 L999.026,1035.4 L998.256,1035.4 C995.396,1035.34 994.901,1035.01 993.636,1031.88 L979.611,997.505 M976.916,1006.52 L983.131,1022.14 L970.811,1022.14 L976.916,1006.52 "/>
<path class="Harmony" d="M1004.22,1012.57 L1006.64,1012.96 L1007.63,1008.61 C1008.46,1004.98 1008.84,1004.43 1010.44,1004.43 C1010.71,1004.43 1011.15,1004.43 1011.65,1004.49 C1018.41,1004.82 1018.41,1004.82 1020.94,1004.82 C1021.66,1004.82 1022.92,1004.82 1024.46,1004.76 L1020.72,1012.3 C1016.65,1020.38 1016.16,1021.37 1014.78,1024.78 C1013.08,1028.91 1012.2,1032.37 1012.2,1034.68 C1012.2,1037.21 1013.52,1038.75 1015.66,1038.75 C1018.3,1038.75 1019.35,1036.99 1019.29,1032.21 C1019.02,1024.29 1020.01,1020.44 1025.89,1007.57 C1026.88,1005.42 1027.93,1003.22 1028.92,1001.08 L1028.92,999.485 C1025.62,999.76 1023.86,999.87 1020.45,999.87 C1015.66,999.87 1011.87,999.705 1005.93,999.265 L1004.22,1012.57 "/>
<path class="Harmony" d="M2392.78,997.505 L2390.47,997.505 L2377.82,1029.57 C2376.34,1033.86 2374.91,1035.18 2371.77,1035.4 L2371.55,1035.4 L2371.55,1037.98 L2386.13,1037.98 L2386.13,1035.4 L2385.03,1035.4 C2382.06,1035.4 2380.57,1034.35 2380.57,1032.26 C2380.57,1031.55 2380.74,1030.89 2381.07,1029.95 L2382.88,1025.11 L2397.46,1025.11 L2400.43,1032.48 C2400.76,1033.36 2400.87,1033.69 2400.87,1033.97 C2400.87,1034.85 2399.49,1035.4 2397.46,1035.4 L2395.15,1035.4 L2395.15,1037.98 L2412.2,1037.98 L2412.2,1035.4 L2411.43,1035.4 C2408.57,1035.34 2408.07,1035.01 2406.81,1031.88 L2392.78,997.505 M2390.09,1006.52 L2396.3,1022.14 L2383.98,1022.14 L2390.09,1006.52 "/>
<path class="Harmony" d="M796.263,566.785 L814.743,566.785 C819.638,566.785 823.378,566.015 826.293,564.365 C831.848,561.23 834.928,554.96 834.928,546.71 C834.928,539.12 832.178,533.18 827.118,529.88 C824.093,527.955 820.023,527.075 813.753,527.075 L796.263,527.075 L796.263,529.66 L797.308,529.66 C800.388,529.715 801.433,529.88 801.873,530.43 C802.203,530.925 802.203,531.035 802.203,533.84 L802.203,560.02 C802.203,562.825 802.203,562.935 801.873,563.43 C801.433,563.98 800.388,564.145 797.308,564.2 L796.263,564.2 L796.263,566.785 M811.498,564.2 C808.693,564.2 808.363,563.87 808.363,561.175 L808.363,532.74 C808.363,530.045 808.748,529.66 811.498,529.66 L814.358,529.66 C823.763,529.66 827.668,534.775 827.668,546.93 C827.668,559.25 824.148,564.2 815.238,564.2 L811.498,564.2 "/>
<path class="Harmony" d="M1444.84,566.785 L1463.32,566.785 C1468.22,566.785 1471.96,566.015 1474.87,564.365 C1480.43,561.23 1483.51,554.96 1483.51,546.71 C1483.51,539.12 1480.76,533.18 1475.7,529.88 C1472.67,527.955 1468.6,527.075 1462.33,527.075 L1444.84,527.075 L1444.84,529.66 L1445.89,529.66 C1448.97,529.715 1450.01,529.88 1450.45,530.43 C1450.78,530.925 1450.78,531.035 1450.78,533.84 L1450.78,560.02 C1450.78,562.825 1450.78,562.935 1450.45,563.43 C1450.01,563.98 1448.97,564.145 1445.89,564.2 L1444.84,564.2 L1444.84,566.785 M1460.08,564.2 C1457.27,564.2 1456.94,563.87 1456.94,561.175 L1456.94,532.74 C1456.94,530.045 1457.33,529.66 1460.08,529.66 L1462.94,529.66 C1472.34,529.66 1476.25,534.775 1476.25,546.93 C1476.25,559.25 1472.73,564.2 1463.82,564.2 L1460.08,564.2 "/>
<path class="Harmony" d="M610.86,1509.18 L629.34,1509.18 C634.235,1509.18 637.975,1508.41 640.89,1506.76 C646.445,1503.63 649.525,1497.36 649.525,1489.11 C649.525,1481.52 646.775,1475.58 641.715,1472.28 C638.69,1470.35 634.62,1469.47 628.35,1469.47 L610.86,1469.47 L610.86,1472.06 L611.905,1472.06 C614.985,1472.11 616.03,1472.28 616.47,1472.83 C616.8,1473.32 616.8,1473.43 616.8,1476.24 L616.8,1502.42 C616.8,1505.22 616.8,1505.33 616.47,1505.83 C616.03,1506.38 614.985,1506.54 611.905,1506.6 L610.86,1506.6 L610.86,1509.18 M626.095,1506.6 C623.29,1506.6 622.96,1506.27 622.96,1503.57 L622.96,1475.14 C622.96,1472.44 623.345,1472.06 626.095,1472.06 L628.955,1472.06 C638.36,1472.06 642.265,1477.17 642.265,1489.33 C642.265,1501.65 638.745,1506.6 629.835,1506.6 L626.095,1506.6 "/>
<path class="Harmony" d="M2167.14,997.505 L2164.83,997.505 L2152.18,1029.57 C2150.7,1033.86 2149.27,1035.18 2146.13,1035.4 L2145.91,1035.4 L2145.91,1037.98 L2160.49,1037.98 L2160.49,1035.4 L2159.39,1035.4 C2156.42,1035.4 2154.93,1034.35 2154.93,1032.26 C2154.93,1031.55 2155.1,1030.89 2155.43,1029.95 L2157.24,1025.11 L2171.82,1025.11 L2174.79,1032.48 C2175.12,1033.36 2175.23,1033.69 2175.23,1033.97 C2175.23,1034.85 2173.85,1035.4 2171.82,1035.4 L2169.51,1035.4 L2169.51,1037.98 L2186.56,1037.98 L2186.56,1035.4 L2185.79,1035.4 C2182.93,1035.34 2182.43,1035.01 2181.17,1031.88 L2167.14,997.505 M2164.45,1006.52 L2170.66,1022.14 L2158.34,1022.14 L2164.45,1006.52 "/>
<path class="Harmony" d="M434.079,1509.18 L452.559,1509.18 C457.454,1509.18 461.194,1508.41 464.109,1506.76 C469.664,1503.63 472.744,1497.36 472.744,1489.11 C472.744,1481.52 469.994,1475.58 464.934,1472.28 C461.909,1470.35 457.839,1469.47 451.569,1469.47 L434.079,1469.47 L434.079,1472.06 L435.124,1472.06 C438.204,1472.11 439.249,1472.28 439.689,1472.83 C440.019,1473.32 440.019,1473.43 440.019,1476.24 L440.019,1502.42 C440.019,1505.22 440.019,1505.33 439.689,1505.83 C439.249,1506.38 438.204,1506.54 435.124,1506.6 L434.079,1506.6 L434.079,1509.18 M449.314,1506.6 C446.509,1506.6 446.179,1506.27 446.179,1503.57 L446.179,1475.14 C446.179,1472.44 446.564,1472.06 449.314,1472.06 L452.174,1472.06 C461.579,1472.06 465.484,1477.17 465.484,1489.33 C465.484,1501.65 461.964,1506.6 453.054,1506.6 L449.314,1506.6 "/>
<path class="Harmony" d="M2127.57,1468.7 L2125.26,1468.7 L2112.61,1500.77 C2111.13,1505.06 2109.7,1506.38 2106.56,1506.6 L2106.34,1506.6 L2106.34,1509.18 L2120.92,1509.18 L2120.92,1506.6 L2119.82,1506.6 C2116.85,1506.6 2115.36,1505.55 2115.36,1503.46 C2115.36,1502.75 2115.53,1502.09 2115.86,1501.15 L2117.67,1496.31 L2132.25,1496.31 L2135.22,1503.68 C2135.55,1504.56 2135.66,1504.89 2135.66,1505.17 C2135.66,1506.05 2134.28,1506.6 2132.25,1506.6 L2129.94,1506.6 L2129.94,1509.18 L2146.99,1509.18 L2146.99,1506.6 L2146.22,1506.6 C2143.36,1506.54 2142.86,1506.21 2141.6,1503.08 L2127.57,1468.7 M2124.88,1477.72 L2131.09,1493.34 L2118.77,1493.34 L2124.88,1477.72 "/>
<path class="Harmony" d="M2152.18,1483.77 L2154.6,1484.16 L2155.59,1479.81 C2156.42,1476.18 2156.8,1475.63 2158.4,1475.63 C2158.67,1475.63 2159.11,1475.63 2159.61,1475.69 C2166.37,1476.02 2166.37,1476.02 2168.9,1476.02 C2169.62,1476.02 2170.88,1476.02 2172.42,1475.96 L2168.68,1483.5 C2164.61,1491.58 2164.12,1492.57 2162.74,1495.98 C2161.04,1500.11 2160.16,1503.57 2160.16,1505.88 C2160.16,1508.41 2161.48,1509.95 2163.62,1509.95 C2166.26,1509.95 2167.31,1508.19 2167.25,1503.41 C2166.98,1495.49 2167.97,1491.64 2173.85,1478.77 C2174.84,1476.62 2175.89,1474.42 2176.88,1472.28 L2176.88,1470.68 C2173.58,1470.96 2171.82,1471.07 2168.41,1471.07 C2163.62,1471.07 2159.83,1470.9 2153.89,1470.46 L2152.18,1483.77 "/>
<path class="Harmony" d="M1233.24,526.69 L1231.15,526.69 L1229,529.99 C1225.43,527.185 1223.01,526.25 1218.99,526.25 C1214.65,526.25 1211.24,527.46 1207.77,530.265 C1202.33,534.665 1199.8,540.22 1199.8,547.645 C1199.8,553.255 1201.39,557.93 1204.64,561.505 C1208.05,565.355 1213.11,567.61 1218.39,567.61 C1223.01,567.61 1226.25,566.18 1229.83,562.605 L1231.86,567.555 L1234.17,567.555 L1234.17,555.455 C1234.17,552.65 1234.17,552.54 1234.5,552.045 C1235,551.44 1235.99,551.275 1239.12,551.275 L1239.95,551.275 L1239.95,548.69 L1222.46,548.69 L1222.46,551.275 L1223.5,551.275 C1228.12,551.275 1228.51,551.55 1228.51,554.63 C1228.51,556.995 1228.12,559.14 1227.41,560.46 C1226.03,563.155 1222.51,565.025 1218.94,565.025 C1215.36,565.025 1211.84,563.21 1209.97,560.46 C1207.94,557.38 1207.06,553.53 1207.06,547.645 C1207.06,535.38 1211.13,528.835 1218.77,528.835 C1225.04,528.835 1229.39,533.345 1231.64,542.145 L1234.01,542.145 L1233.24,526.69 "/>
<path class="Harmony" d="M1207.04,1037.98 L1225.52,1037.98 C1230.42,1037.98 1234.16,1037.21 1237.07,1035.56 C1242.63,1032.43 1245.71,1026.16 1245.71,1017.91 C1245.71,1010.32 1242.96,1004.38 1237.9,1001.08 C1234.87,999.155 1230.8,998.275 1224.53,998.275 L1207.04,998.275 L1207.04,1000.86 L1208.09,1000.86 C1211.17,1000.91 1212.21,1001.08 1212.65,1001.63 C1212.98,1002.12 1212.98,1002.23 1212.98,1005.04 L1212.98,1031.22 C1212.98,1034.02 1212.98,1034.13 1212.65,1034.63 C1212.21,1035.18 1211.17,1035.34 1208.09,1035.4 L1207.04,1035.4 L1207.04,1037.98 M1222.28,1035.4 C1219.47,1035.4 1219.14,1035.07 1219.14,1032.37 L1219.14,1003.94 C1219.14,1001.24 1219.53,1000.86 1222.28,1000.86 L1225.14,1000.86 C1234.54,1000.86 1238.45,1005.97 1238.45,1018.13 C1238.45,1030.45 1234.93,1035.4 1226.02,1035.4 L1222.28,1035.4 "/>
<path class="Harmony" d="M1674.42,526.305 L1672.11,526.305 L1659.46,558.37 C1657.97,562.66 1656.54,563.98 1653.41,564.2 L1653.19,564.2 L1653.19,566.785 L1667.76,566.785 L1667.76,564.2 L1666.66,564.2 C1663.69,564.2 1662.21,563.155 1662.21,561.065 C1662.21,560.35 1662.37,559.69 1662.7,558.755 L1664.52,553.915 L1679.09,553.915 L1682.06,561.285 C1682.39,562.165 1682.5,562.495 1682.5,562.77 C1682.5,563.65 1681.13,564.2 1679.09,564.2 L1676.78,564.2 L1676.78,566.785 L1693.83,566.785 L1693.83,564.2 L1693.06,564.2 C1690.2,564.145 1689.71,563.815 1688.44,560.68 L1674.42,526.305 M1671.72,535.325 L1677.94,550.945 L1665.62,550.945 L1671.72,535.325 "/>
<path class="Harmony" d="M1699.03,541.375 L1701.45,541.76 L1702.44,537.415 C1703.26,533.785 1703.65,533.235 1705.24,533.235 C1705.52,533.235 1705.96,533.235 1706.45,533.29 C1713.22,533.62 1713.22,533.62 1715.75,533.62 C1716.46,533.62 1717.73,533.62 1719.27,533.565 L1715.53,541.1 C1711.46,549.185 1710.96,550.175 1709.59,553.585 C1707.88,557.71 1707,561.175 1707,563.485 C1707,566.015 1708.32,567.555 1710.47,567.555 C1713.11,567.555 1714.15,565.795 1714.1,561.01 C1713.82,553.09 1714.81,549.24 1720.7,536.37 C1721.69,534.225 1722.73,532.025 1723.72,529.88 L1723.72,528.285 C1720.42,528.56 1718.66,528.67 1715.25,528.67 C1710.47,528.67 1706.67,528.505 1700.73,528.065 L1699.03,541.375 "/>
<path class="Harmony" d="M1112.41,1509.18 L1130.89,1509.18 C1135.78,1509.18 1139.52,1508.41 1142.44,1506.76 C1147.99,1503.63 1151.07,1497.36 1151.07,1489.11 C1151.07,1481.52 1148.32,1475.58 1143.26,1472.28 C1140.24,1470.35 1136.17,1469.47 1129.9,1469.47 L1112.41,1469.47 L1112.41,1472.06 L1113.45,1472.06 C1116.53,1472.11 1117.58,1472.28 1118.02,1472.83 C1118.35,1473.32 1118.35,1473.43 1118.35,1476.24 L1118.35,1502.42 C1118.35,1505.22 1118.35,1505.33 1118.02,1505.83 C1117.58,1506.38 1116.53,1506.54 1113.45,1506.6 L1112.41,1506.6 L1112.41,1509.18 M1127.64,1506.6 C1124.84,1506.6 1124.51,1506.27 1124.51,1503.57 L1124.51,1475.14 C1124.51,1472.44 1124.89,1472.06 1127.64,1472.06 L1130.5,1472.06 C1139.91,1472.06 1143.81,1477.17 1143.81,1489.33 C1143.81,1501.65 1140.29,1506.6 1131.38,1506.6 L1127.64,1506.6 "/>
<path class="NoteDot" transform="matrix(0.992,0,0,0.992,1251.67,1211.58)" d="M0,0 C0,2.8 2.2,5 5,5 C7.8,5 10,2.8 10,0 C10,-2.8 7.8,-5 5,-5 C2.2,-5 0,-2.8 0,0"/>
<path class="NoteDot" transform="matrix(0.992,0,0,0.992,478.702,1633.18)" d="M0,0 C0,2.8 2.2,5 5,5 C7.8,5 10,2.8 10,0 C10,-2.8 7.8,-5 5,-5 C2.2,-5 0,-2.8 0,0"/>
<path class="NoteDot" transform="matrix(0.992,0,0,0.992,1085.94,641.185)" d="M0,0 C0,2.8 2.2,5 5,5 C7.8,5 10,2.8 10,0 C10,-2.8 7.8,-5 5,-5 C2.2,-5 0,-2.8 0,0"/>
<path class="NoteDot" transform="matrix(0.992,0,0,0.992,2466.58,1682.78)" d="M0,0 C0,2.8 2.2,5 5,5 C7.8,5 10,2.8 10,0 C10,-2.8 7.8,-5 5,-5 C2.2,-5 0,-2.8 0,0"/>
<path class="NoteDot" transform="matrix(0.992,0,0,0.992,1984.54,715.585)" d="M0,0 C0,2.8 2.2,5 5,5 C7.8,5 10,2.8 10,0 C10,-2.8 7.8,-5 5,-5 C2.2,-5 0,-2.8 0,0"/>
<path class="NoteDot" transform="matrix(0.992,0,0,0.992,478.702,1112.38)" d="M0,0 C0,2.8 2.2,5 5,5 C7.8,5 10,2.8 10,0 C10,-2.8 7.8,-5 5,-5 C2.2,-5 0,-2.8 0,0"/>
<path class="NoteDot" transform="matrix(0.992,0,0,0.992,1426.16,1583.58)" d="M0,0 C0,2.8 2.2,5 5,5 C7.8,5 10,2.8 10,0 C10,-2.8 7.8,-5 5,-5 C2.2,-5 0,-2.8 0,0"/>
</svg>
