<?xml version="1.0" encoding="UTF-8" standalone="no"?>
<svg width="2977.2px" height="4208.4px" viewBox="0 0 2977.2 4208.4"
 xmlns="http://www.w3.org/2000/svg" xmlns:xlink="http://www.w3.org/1999/xlink" version="1.2" baseProfile="tiny">
<title>村まつり</title>
<desc>Generated by MuseScore Studio 4.4.2</desc>
<path class="" fill="#ffffff" fill-rule="evenodd" d="M0,0 L2977.2,0 L2977.2,4208.4 L0,4208.4 L0,0 "/>
<polyline class="StaffLines" fill="none" stroke="#000000" stroke-width="2.73" stroke-linejoin="bevel" points="212.598,634.198 2764.6,634.198"/>
<polyline class="StaffLines" fill="none" stroke="#000000" stroke-width="2.73" stroke-linejoin="bevel" points="212.598,658.998 2764.6,658.998"/>
<polyline class="StaffLines" fill="none" stroke="#000000" stroke-width="2.73" stroke-linejoin="bevel" points="212.598,683.798 2764.6,683.798"/>
<polyline class="StaffLines" fill="none" stroke="#000000" stroke-width="2.73" stroke-linejoin="bevel" points="212.598,708.598 2764.6,708.598"/>
<polyline class="StaffLines" fill="none" stroke="#000000" stroke-width="2.73" stroke-linejoin="bevel" points="212.598,733.398 2764.6,733.398"/>
<polyline class="StaffLines" fill="none" stroke="#000000" stroke-width="2.73" stroke-linejoin="bevel" points="212.598,1105.4 2764.6,1105.4"/>
<polyline class="StaffLines" fill="none" stroke="#000000" stroke-width="2.73" stroke-linejoin="bevel" points="212.598,1130.2 2764.6,1130.2"/>
<polyline class="StaffLines" fill="none" stroke="#000000" stroke-width="2.73" stroke-linejoin="bevel" points="212.598,1155 2764.6,1155"/>
<polyline class="StaffLines" fill="none" stroke="#000000" stroke-width="2.73" stroke-linejoin="bevel" points="212.598,1179.8 2764.6,1179.8"/>
<polyline class="StaffLines" fill="none" stroke="#000000" stroke-width="2.73" stroke-linejoin="bevel" points="212.598,1204.6 2764.6,1204.6"/>
<polyline class="StaffLines" fill="none" stroke="#000000" stroke-width="2.73" stroke-linejoin="bevel" points="212.598,1576.6 2764.6,1576.6"/>
<polyline class="StaffLines" fill="none" stroke="#000000" stroke-width="2.73" stroke-linejoin="bevel" points="212.598,1601.4 2764.6,1601.4"/>
<polyline class="StaffLines" fill="none" stroke="#000000" stroke-width="2.73" stroke-linejoin="bevel" points="212.598,1626.2 2764.6,1626.2"/>
<polyline class="StaffLines" fill="none" stroke="#000000" stroke-width="2.73" stroke-linejoin="bevel" points="212.598,1651 2764.6,1651"/>
<polyline class="StaffLines" fill="none" stroke="#000000" stroke-width="2.73" stroke-linejoin="bevel" points="212.598,1675.8 2764.6,1675.8"/>
<path class="Text" d="M1310.19,234.391 L1301.72,234.391 C1297.76,234.391 1294.79,234.171 1291.82,233.841 L1291.82,241.101 C1295.01,240.661 1297.54,240.551 1301.72,240.551 L1308.98,240.551 C1305.9,254.411 1297.1,272.011 1288.63,281.361 C1290.28,283.011 1291.82,285.101 1293.14,287.521 C1301.06,277.401 1306.23,266.731 1310.74,251.441 C1310.3,259.141 1310.19,264.311 1310.19,271.681 L1310.19,301.821 C1310.19,306.441 1309.97,309.301 1309.53,312.051 L1317.56,312.051 C1317.12,309.081 1316.9,306.551 1316.9,301.711 L1316.9,269.921 C1316.9,261.781 1316.79,257.271 1316.46,249.681 C1320.42,259.581 1322.95,264.091 1328.67,271.681 C1329.88,269.151 1331.31,267.061 1332.74,265.301 C1328.12,260.461 1325.59,256.941 1322.4,251.221 C1320.53,247.701 1320.42,247.481 1317.56,240.551 L1322.07,240.551 C1325.7,240.551 1328.45,240.661 1331.64,241.101 L1331.64,233.841 C1328.45,234.281 1325.81,234.391 1322.07,234.391 L1316.9,234.391 L1316.9,222.071 C1316.9,217.891 1317.01,215.581 1317.56,212.611 L1309.53,212.611 C1309.97,215.251 1310.19,217.781 1310.19,221.961 L1310.19,234.391 M1375.31,241.981 L1378.28,241.981 C1381.8,241.981 1385.32,242.091 1388.73,242.421 L1388.73,234.941 C1385.76,235.381 1382.68,235.601 1378.17,235.601 L1375.31,235.601 L1375.31,225.921 C1375.31,220.641 1375.53,216.571 1375.97,213.161 L1367.28,213.161 C1367.83,216.241 1368.05,220.531 1368.05,225.811 L1368.05,235.601 L1345.17,235.601 C1340.44,235.601 1336.48,235.381 1333.84,234.941 L1333.84,242.641 C1336.7,242.201 1340.88,241.981 1345.28,241.981 L1368.05,241.981 L1368.05,299.621 C1368.05,302.151 1367.28,302.481 1362.44,302.481 C1359.14,302.481 1354.3,302.041 1347.81,301.051 C1348.91,303.581 1349.46,305.341 1349.79,308.531 C1355.29,308.971 1358.81,309.191 1362.99,309.191 C1373,309.191 1375.31,307.541 1375.31,300.611 L1375.31,241.981 M1357.82,278.501 C1353.09,268.491 1348.58,260.791 1342.09,252.101 L1335.82,255.291 C1342.64,264.421 1346.6,271.351 1351.22,282.681 L1357.82,278.501 "/>
<path class="Text" d="M1490.15,295.111 C1488.72,294.231 1488.17,293.901 1486.41,292.581 C1474.86,284.221 1465.29,279.161 1455.72,276.521 C1455.28,265.851 1455.28,265.851 1455.06,259.691 C1463.2,259.141 1471.89,258.261 1479.48,257.051 C1483.33,256.501 1484.43,256.391 1485.86,256.281 L1485.42,248.691 C1479.37,250.781 1469.91,252.101 1454.95,253.201 C1454.84,247.371 1454.84,247.371 1454.73,238.351 C1466.94,237.581 1469.91,237.251 1480.25,235.711 C1485.97,234.941 1485.97,234.941 1487.84,234.831 L1487.29,227.351 C1481.24,229.331 1469.91,230.871 1454.73,231.861 C1454.84,223.941 1455.06,218.661 1455.5,216.351 L1447.03,216.351 C1447.47,218.771 1447.47,218.771 1447.58,232.191 C1443.95,232.191 1440.21,232.301 1438.01,232.301 C1426.02,232.301 1414.58,231.421 1409.85,230.101 L1409.74,237.581 C1410.4,237.471 1410.95,237.471 1411.28,237.471 C1411.83,237.471 1412.49,237.471 1413.26,237.581 C1423.16,238.351 1432.07,238.681 1440.1,238.681 C1442.63,238.681 1444.39,238.681 1447.58,238.571 L1447.8,253.641 C1444.72,253.751 1440.87,253.751 1438.01,253.751 C1426.9,253.751 1417.77,253.091 1412.82,251.991 L1412.71,259.251 C1413.04,259.251 1413.48,259.251 1413.59,259.251 C1414.25,259.251 1415.13,259.251 1416.34,259.361 C1423.16,259.911 1428.33,260.131 1434.93,260.131 C1438.45,260.131 1443.95,260.021 1447.91,259.911 C1448.02,262.771 1448.02,264.861 1448.13,266.291 C1448.24,269.481 1448.24,271.791 1448.35,272.781 C1448.35,273.441 1448.46,273.881 1448.46,273.991 C1448.46,274.981 1448.46,274.981 1448.57,275.311 C1443.84,274.541 1442.3,274.431 1438.67,274.431 C1433.83,274.431 1430.53,274.761 1427.23,275.531 C1417.55,277.731 1411.83,283.451 1411.83,290.711 C1411.83,295.221 1414.03,299.511 1417.77,302.261 C1421.51,305.121 1427.56,306.661 1434.82,306.661 C1443.51,306.661 1450.22,304.241 1453.41,299.731 C1455.39,297.091 1456.16,293.571 1456.16,287.741 C1456.16,286.311 1456.16,286.311 1455.94,283.781 C1458.91,284.991 1461.44,286.091 1463.31,287.081 C1472.66,291.921 1480.69,297.531 1485.75,302.811 L1490.15,295.111 M1448.68,286.201 C1448.68,291.481 1448.02,294.561 1446.48,296.101 C1444.39,298.521 1440.21,299.731 1434.38,299.731 C1424.81,299.731 1419.31,296.431 1419.31,290.601 C1419.31,284.771 1426.46,280.811 1437.35,280.811 C1442.19,280.811 1444.39,281.031 1448.57,282.021 L1448.68,286.201 M1515.67,249.901 C1517.54,249.021 1518.97,248.581 1523.59,247.261 C1542.62,241.981 1557.03,239.451 1568.47,239.451 C1583.43,239.451 1592.56,246.931 1592.56,259.251 C1592.56,271.571 1584.09,281.471 1569.02,286.971 C1560.66,290.051 1550.76,291.591 1538.44,292.031 C1540.42,295.001 1540.97,296.321 1541.85,300.171 C1558.9,298.741 1568.14,296.651 1578.26,291.811 C1593,284.661 1601.14,273.111 1601.14,259.361 C1601.14,242.531 1588.38,231.861 1568.25,231.861 C1559.12,231.861 1548.56,233.181 1536.35,235.931 C1516.77,240.331 1516.77,240.331 1513.47,240.551 L1515.67,249.901 M1643.16,214.811 C1643.16,216.131 1643.05,216.681 1642.83,218.331 C1640.08,237.801 1639.09,248.141 1639.09,258.921 C1639.09,259.471 1639.09,260.461 1639.09,261.451 L1639.31,272.891 L1639.42,274.871 C1639.42,275.091 1639.42,275.531 1639.42,276.081 L1647.34,275.751 C1647.23,274.101 1647.23,273.551 1647.23,273.111 C1647.23,265.081 1649.32,256.611 1653.17,248.581 C1659.44,235.711 1666.48,229.441 1674.84,229.441 C1685.4,229.441 1691.56,239.671 1691.56,257.381 C1691.56,274.981 1685.51,286.531 1672.64,293.901 C1666.26,297.531 1660.54,299.291 1650.31,300.831 C1652.73,303.801 1653.39,305.011 1654.71,308.311 C1662.41,306.661 1669.01,304.461 1674.29,301.821 C1690.79,293.571 1699.7,278.501 1699.7,258.591 C1699.7,246.821 1697.72,238.681 1693.1,231.861 C1688.81,225.481 1682.65,222.071 1675.5,222.071 C1666.92,222.071 1659.66,226.801 1653.5,236.261 C1650.31,241.211 1648.11,246.601 1646.79,252.651 C1646.24,254.961 1646.24,254.961 1646.02,255.841 L1645.58,255.731 C1645.91,250.121 1647.45,238.131 1649.21,227.021 C1650.2,221.081 1650.86,218.001 1651.74,215.691 L1643.16,214.811 "/>
<path class="MeasureNumber" d="M228.958,1498.68 L227.798,1498.68 C225.598,1500.32 221.358,1501.72 218.478,1501.72 L217.998,1503.48 L220.758,1503.48 C223.198,1503.48 223.478,1503.56 223.478,1504.28 C223.478,1504.64 223.478,1504.64 223.078,1506.08 L218.798,1522.08 C218.278,1524.08 218.238,1524.2 217.878,1524.56 C217.478,1524.96 216.638,1525.08 214.518,1525.12 L212.798,1525.12 L212.598,1527 L227.398,1527 L227.638,1525.12 L225.478,1525.12 C222.878,1525.12 222.318,1524.92 222.318,1524.04 C222.318,1523.76 222.478,1522.84 222.678,1522.08 L228.958,1498.68 M250.233,1518.72 L249.193,1520.56 C247.593,1523.32 247.273,1523.56 245.233,1523.6 L235.953,1523.6 C236.913,1522.32 238.673,1520.84 241.873,1518.6 C247.153,1514.96 247.513,1514.72 248.633,1513.84 C251.833,1511.36 253.153,1509 253.153,1505.84 C253.153,1501.64 250.033,1498.84 245.433,1498.84 C240.313,1498.84 235.873,1502.6 235.873,1506.96 C235.873,1509.2 237.073,1510.64 238.993,1510.64 C240.433,1510.64 241.553,1509.56 241.553,1508.08 C241.553,1507.04 241.033,1506.36 239.713,1505.64 C238.753,1505.16 238.593,1504.96 238.593,1504.48 C238.593,1502.76 241.553,1500.84 244.273,1500.84 C247.073,1500.84 248.953,1502.72 248.953,1505.52 C248.953,1508.52 247.633,1510.72 244.033,1513.84 C233.393,1523.08 231.793,1524.76 231.433,1527 L248.593,1527 L251.673,1519.28 L250.233,1518.72 "/>
<path class="MeasureNumber" d="M232.288,1027.64 C230.168,1027.88 227.568,1028.04 225.328,1028.04 C224.208,1028.04 222.928,1028 221.488,1027.92 C220.168,1027.84 218.848,1027.76 217.488,1027.68 L216.488,1027.64 L212.608,1036.08 L214.088,1036.56 L215.048,1034.96 C216.928,1031.84 217.808,1031.4 221.888,1031.44 L228.648,1031.44 L224.288,1037.68 C219.168,1044.88 219.168,1044.88 217.208,1048.08 C215.448,1050.92 214.728,1052.68 214.728,1054.12 C214.728,1055.52 215.608,1056.4 217.008,1056.4 C218.488,1056.4 219.248,1055.68 219.768,1053.8 C221.768,1046.28 222.968,1043.68 228.528,1034.68 L232.288,1028.84 L232.288,1027.64 "/>
<polyline class="BarLine" fill="none" stroke="#000000" stroke-width="4.46" stroke-linejoin="bevel" points="1630.21,632.834 1630.21,734.762"/>
<polyline class="BarLine" fill="none" stroke="#000000" stroke-width="4.46" stroke-linejoin="bevel" points="1727.93,1104.03 1727.93,1205.96"/>
<polyline class="BarLine" fill="none" stroke="#000000" stroke-width="4.46" stroke-linejoin="bevel" points="1958.93,632.834 1958.93,734.762"/>
<polyline class="BarLine" fill="none" stroke="#000000" stroke-width="4.46" stroke-linejoin="bevel" points="1876.68,1575.23 1876.68,1677.16"/>
<polyline class="BarLine" fill="none" stroke="#000000" stroke-width="4.46" stroke-linejoin="bevel" points="2336.31,632.834 2336.31,734.762"/>
<polyline class="BarLine" fill="none" stroke="#000000" stroke-width="4.46" stroke-linejoin="bevel" points="1384.08,1575.23 1384.08,1677.16"/>
<polyline class="BarLine" fill="none" stroke="#000000" stroke-width="4.46" stroke-linejoin="bevel" points="2762.37,632.834 2762.37,734.762"/>
<polyline class="BarLine" fill="none" stroke="#000000" stroke-width="4.46" stroke-linejoin="bevel" points="898.964,1575.23 898.964,1677.16"/>
<polyline class="BarLine" fill="none" stroke="#000000" stroke-width="4.46" stroke-linejoin="bevel" points="2740.42,1575.23 2740.42,1677.16"/>
<polyline class="BarLine" fill="none" stroke="#000000" stroke-width="13.64" stroke-linejoin="bevel" points="2757.78,1575.23 2757.78,1677.16"/>
<polyline class="BarLine" fill="none" stroke="#000000" stroke-width="4.46" stroke-linejoin="bevel" points="1210.55,632.834 1210.55,734.762"/>
<polyline class="BarLine" fill="none" stroke="#000000" stroke-width="4.46" stroke-linejoin="bevel" points="841.348,1104.03 841.348,1205.96"/>
<polyline class="BarLine" fill="none" stroke="#000000" stroke-width="4.46" stroke-linejoin="bevel" points="2762.37,1104.03 2762.37,1205.96"/>
<polyline class="BarLine" fill="none" stroke="#000000" stroke-width="4.46" stroke-linejoin="bevel" points="1210.72,1104.03 1210.72,1205.96"/>
<polyline class="BarLine" fill="none" stroke="#000000" stroke-width="4.46" stroke-linejoin="bevel" points="784.494,632.834 784.494,734.762"/>
<polyline class="BarLine" fill="none" stroke="#000000" stroke-width="4.46" stroke-linejoin="bevel" points="2361.8,1575.23 2361.8,1677.16"/>
<polyline class="BarLine" fill="none" stroke="#000000" stroke-width="4.46" stroke-linejoin="bevel" points="2245.15,1104.03 2245.15,1205.96"/>
<polyline class="LedgerLine" fill="none" stroke="#000000" stroke-width="3.97" stroke-linejoin="bevel" points="1236.51,1229.4 1286.09,1229.4"/>
<polyline class="LedgerLine" fill="none" stroke="#000000" stroke-width="3.97" stroke-linejoin="bevel" points="608.66,1229.4 658.245,1229.4"/>
<polyline class="LedgerLine" fill="none" stroke="#000000" stroke-width="3.97" stroke-linejoin="bevel" points="534.735,1229.4 584.319,1229.4"/>
<polyline class="LedgerLine" fill="none" stroke="#000000" stroke-width="3.97" stroke-linejoin="bevel" points="394.165,1229.4 443.75,1229.4"/>
<polyline class="LedgerLine" fill="none" stroke="#000000" stroke-width="3.97" stroke-linejoin="bevel" points="660.105,1700.6 709.689,1700.6"/>
<polyline class="LedgerLine" fill="none" stroke="#000000" stroke-width="3.97" stroke-linejoin="bevel" points="1347.4,1229.4 1396.98,1229.4"/>
<polyline class="Stem" fill="none" stroke="#000000" stroke-width="2.73" stroke-linejoin="bevel" points="1386.94,1225.43 1386.94,1155"/>
<polyline class="Stem" fill="none" stroke="#000000" stroke-width="2.73" stroke-linejoin="bevel" points="1276.05,1225.43 1276.05,1155"/>
<polyline class="Stem" fill="none" stroke="#000000" stroke-width="2.73" stroke-linejoin="bevel" points="1561.5,692.23 1561.5,628.083"/>
<polyline class="Stem" fill="none" stroke="#000000" stroke-width="2.73" stroke-linejoin="bevel" points="2427.13,1659.43 2427.13,1576.6"/>
<polyline class="Stem" fill="none" stroke="#000000" stroke-width="2.73" stroke-linejoin="bevel" points="2276.45,1647.03 2276.45,1576.53"/>
<polyline class="Stem" fill="none" stroke="#000000" stroke-width="2.73" stroke-linejoin="bevel" points="2162.48,1634.63 2162.48,1570.47"/>
<polyline class="Stem" fill="none" stroke="#000000" stroke-width="2.73" stroke-linejoin="bevel" points="1695.54,704.63 1695.54,621.798"/>
<polyline class="Stem" fill="none" stroke="#000000" stroke-width="2.73" stroke-linejoin="bevel" points="2086.49,1647.03 2086.49,1576.66"/>
<polyline class="Stem" fill="none" stroke="#000000" stroke-width="2.73" stroke-linejoin="bevel" points="1942.01,1659.43 1942.01,1582.74"/>
<polyline class="Stem" fill="none" stroke="#000000" stroke-width="2.73" stroke-linejoin="bevel" points="472.44,667.43 472.44,603.198"/>
<polyline class="Stem" fill="none" stroke="#000000" stroke-width="2.73" stroke-linejoin="bevel" points="1791.33,1647.03 1791.33,1564.13"/>
<polyline class="Stem" fill="none" stroke="#000000" stroke-width="2.73" stroke-linejoin="bevel" points="1464.17,704.63 1464.17,634.114"/>
<polyline class="Stem" fill="none" stroke="#000000" stroke-width="2.73" stroke-linejoin="bevel" points="1677.36,1622.23 1677.36,1558.07"/>
<polyline class="Stem" fill="none" stroke="#000000" stroke-width="2.73" stroke-linejoin="bevel" points="2024.26,704.63 2024.26,621.798"/>
<polyline class="Stem" fill="none" stroke="#000000" stroke-width="2.73" stroke-linejoin="bevel" points="1563.39,1597.43 1563.39,1539.47"/>
<polyline class="Stem" fill="none" stroke="#000000" stroke-width="2.73" stroke-linejoin="bevel" points="1449.41,1609.83 1449.41,1545.53"/>
<polyline class="Stem" fill="none" stroke="#000000" stroke-width="2.73" stroke-linejoin="bevel" points="2170.27,667.43 2170.27,603.198"/>
<polyline class="Stem" fill="none" stroke="#000000" stroke-width="2.73" stroke-linejoin="bevel" points="1298.73,1609.83 1298.73,1545.6"/>
<polyline class="Stem" fill="none" stroke="#000000" stroke-width="2.73" stroke-linejoin="bevel" points="1184.76,1609.83 1184.76,1545.6"/>
<polyline class="Stem" fill="none" stroke="#000000" stroke-width="2.73" stroke-linejoin="bevel" points="1108.78,1609.83 1108.78,1539.4"/>
<polyline class="Stem" fill="none" stroke="#000000" stroke-width="2.73" stroke-linejoin="bevel" points="2267.61,667.43 2267.61,603.198"/>
<polyline class="Stem" fill="none" stroke="#000000" stroke-width="2.73" stroke-linejoin="bevel" points="964.297,1609.83 964.297,1539.4"/>
<polyline class="Stem" fill="none" stroke="#000000" stroke-width="2.73" stroke-linejoin="bevel" points="1399.27,717.03 1399.27,640.398"/>
<polyline class="Stem" fill="none" stroke="#000000" stroke-width="2.73" stroke-linejoin="bevel" points="618.447,667.43 618.447,603.198"/>
<polyline class="Stem" fill="none" stroke="#000000" stroke-width="2.73" stroke-linejoin="bevel" points="699.645,1696.63 699.645,1614"/>
<polyline class="Stem" fill="none" stroke="#000000" stroke-width="2.73" stroke-linejoin="bevel" points="2401.65,679.83 2401.65,615.683"/>
<polyline class="Stem" fill="none" stroke="#000000" stroke-width="2.73" stroke-linejoin="bevel" points="759.088,1175.83 759.088,1105.47"/>
<polyline class="Stem" fill="none" stroke="#000000" stroke-width="2.73" stroke-linejoin="bevel" points="623.662,1659.43 623.662,1582.71"/>
<polyline class="Stem" fill="none" stroke="#000000" stroke-width="2.73" stroke-linejoin="bevel" points="547.68,1659.43 547.68,1577.82"/>
<polyline class="Stem" fill="none" stroke="#000000" stroke-width="2.73" stroke-linejoin="bevel" points="2498.99,692.23 2498.99,621.714"/>
<polyline class="Stem" fill="none" stroke="#000000" stroke-width="2.73" stroke-linejoin="bevel" points="433.706,1634.63 433.706,1570.49"/>
<polyline class="Stem" fill="none" stroke="#000000" stroke-width="2.73" stroke-linejoin="bevel" points="2596.32,704.63 2596.32,634.283"/>
<polyline class="Stem" fill="none" stroke="#000000" stroke-width="2.73" stroke-linejoin="bevel" points="715.785,667.43 715.785,603.198"/>
<polyline class="Stem" fill="none" stroke="#000000" stroke-width="2.73" stroke-linejoin="bevel" points="2680.11,1188.23 2680.11,1111.6"/>
<polyline class="Stem" fill="none" stroke="#000000" stroke-width="2.73" stroke-linejoin="bevel" points="2606.18,1188.23 2606.18,1111.6"/>
<polyline class="Stem" fill="none" stroke="#000000" stroke-width="2.73" stroke-linejoin="bevel" points="2693.66,717.03 2693.66,640.314"/>
<polyline class="Stem" fill="none" stroke="#000000" stroke-width="2.73" stroke-linejoin="bevel" points="2532.26,1188.23 2532.26,1111.6"/>
<polyline class="Stem" fill="none" stroke="#000000" stroke-width="2.73" stroke-linejoin="bevel" points="2421.37,1163.43 2421.37,1099.2"/>
<polyline class="Stem" fill="none" stroke="#000000" stroke-width="2.73" stroke-linejoin="bevel" points="2310.48,1163.43 2310.48,1099.2"/>
<polyline class="Stem" fill="none" stroke="#000000" stroke-width="2.73" stroke-linejoin="bevel" points="849.826,667.43 849.826,603.114"/>
<polyline class="Stem" fill="none" stroke="#000000" stroke-width="2.73" stroke-linejoin="bevel" points="2052,1138.63 2052,1062.2"/>
<polyline class="Stem" fill="none" stroke="#000000" stroke-width="2.73" stroke-linejoin="bevel" points="1044.5,679.83 1044.5,615.683"/>
<polyline class="Stem" fill="none" stroke="#000000" stroke-width="2.73" stroke-linejoin="bevel" points="433.706,1225.43 433.706,1155"/>
<polyline class="Stem" fill="none" stroke="#000000" stroke-width="2.73" stroke-linejoin="bevel" points="1275.88,717.03 1275.88,640.398"/>
<polyline class="Stem" fill="none" stroke="#000000" stroke-width="2.73" stroke-linejoin="bevel" points="1978.08,1163.43 1978.08,1086.8"/>
<polyline class="Stem" fill="none" stroke="#000000" stroke-width="2.73" stroke-linejoin="bevel" points="1904.15,1163.43 1904.15,1086.8"/>
<polyline class="Stem" fill="none" stroke="#000000" stroke-width="2.73" stroke-linejoin="bevel" points="1793.27,1163.43 1793.27,1086.8"/>
<polyline class="Stem" fill="none" stroke="#000000" stroke-width="2.73" stroke-linejoin="bevel" points="1645.67,1188.23 1645.67,1111.6"/>
<polyline class="Stem" fill="none" stroke="#000000" stroke-width="2.73" stroke-linejoin="bevel" points="574.275,1225.43 574.275,1155"/>
<polyline class="Stem" fill="none" stroke="#000000" stroke-width="2.73" stroke-linejoin="bevel" points="1571.75,1188.23 1571.75,1111.6"/>
<polyline class="Stem" fill="none" stroke="#000000" stroke-width="2.73" stroke-linejoin="bevel" points="1497.82,1188.23 1497.82,1111.6"/>
<polyline class="Stem" fill="none" stroke="#000000" stroke-width="2.73" stroke-linejoin="bevel" points="648.201,1213.03 648.201,1111.52"/>
<polyline class="Stem" fill="none" stroke="#000000" stroke-width="2.73" stroke-linejoin="bevel" points="1141.84,704.63 1141.84,621.714"/>
<polyline class="Stem" fill="none" stroke="#000000" stroke-width="2.73" stroke-linejoin="bevel" points="947.164,655.03 947.164,597.083"/>
<polyline class="Stem" fill="none" stroke="#000000" stroke-width="2.73" stroke-linejoin="bevel" points="906.68,1188.23 906.68,1105.4"/>
<path class="Hook" transform="matrix(0.992,0,0,0.992,2050.64,1062)" d="M0,22.7 C0,23 0.1,23.6 0.8,23.8 C5.1,25.2 13.7,30.6 20.2,41.7 C22,44.8 24.9,49.1 24.9,57.4 C24.9,64.6 23.1,72 20.4,79.2 C20.2,79.8 20.1,80.3 20.1,80.7 C20.1,81.4 20.5,81.7 21.2,81.7 C21.8,81.7 22.3,81.3 22.7,80.6 C27.2,72.6 28.9,63.3 28.9,54.2 C28.4,41.3 21,31.8 21,31.8 C21.3,31.8 11.8,19.5 9.1,15.3 C5.4,9.6 3.7,3.9 3.5,3.5 C3.4,3.2 2.5,-0.4 2.5,-0.4 C2.4,-0.8 1.9,-1.2 1.3,-1.2 C0.6,-1.2 0,-0.6 0,0.1 L0,22.7 "/>
<path class="Hook" transform="matrix(0.992,0,0,0.992,698.281,1613.8)" d="M0,22.7 C0,23 0.1,23.6 0.8,23.8 C5.1,25.2 13.7,30.6 20.2,41.7 C22,44.8 24.9,49.1 24.9,57.4 C24.9,64.6 23.1,72 20.4,79.2 C20.2,79.8 20.1,80.3 20.1,80.7 C20.1,81.4 20.5,81.7 21.2,81.7 C21.8,81.7 22.3,81.3 22.7,80.6 C27.2,72.6 28.9,63.3 28.9,54.2 C28.4,41.3 21,31.8 21,31.8 C21.3,31.8 11.8,19.5 9.1,15.3 C5.4,9.6 3.7,3.9 3.5,3.5 C3.4,3.2 2.5,-0.4 2.5,-0.4 C2.4,-0.8 1.9,-1.2 1.3,-1.2 C0.6,-1.2 0,-0.6 0,0.1 L0,22.7 "/>
<path class="Note" transform="matrix(0.992,0,0,0.992,2021.14,1142.6)" d="M0,4.2 C0,8.5 3.1,13.3 11.2,13.3 C21.6,13.3 32.5,4.8 32.5,-4 C32.5,-9.9 27.5,-13.2 21.3,-13.2 C11.6,-13.2 0,-5 0,4.2"/>
<path class="Note" transform="matrix(0.992,0,0,0.992,2575.32,1192.2)" d="M0,4.2 C0,8.5 3.1,13.3 11.2,13.3 C21.6,13.3 32.5,4.8 32.5,-4 C32.5,-9.9 27.5,-13.2 21.3,-13.2 C11.6,-13.2 0,-5 0,4.2"/>
<path class="Note" transform="matrix(0.992,0,0,0.992,402.845,1638.6)" d="M0,4.2 C0,8.5 3.1,13.3 11.2,13.3 C21.6,13.3 32.5,4.8 32.5,-4 C32.5,-9.9 27.5,-13.2 21.3,-13.2 C11.6,-13.2 0,-5 0,4.2"/>
<path class="Note" transform="matrix(0.992,0,0,0.992,728.228,1179.8)" d="M0,4.2 C0,8.5 3.1,13.3 11.2,13.3 C21.6,13.3 32.5,4.8 32.5,-4 C32.5,-9.9 27.5,-13.2 21.3,-13.2 C11.6,-13.2 0,-5 0,4.2"/>
<path class="Note" transform="matrix(0.992,0,0,0.992,875.82,1192.2)" d="M0,4.2 C0,8.5 3.1,13.3 11.2,13.3 C21.6,13.3 32.5,4.8 32.5,-4 C32.5,-9.9 27.5,-13.2 21.3,-13.2 C11.6,-13.2 0,-5 0,4.2"/>
<path class="Note" transform="matrix(0.992,0,0,0.992,1267.87,1613.8)" d="M0,4.2 C0,8.5 3.1,13.3 11.2,13.3 C21.6,13.3 32.5,4.8 32.5,-4 C32.5,-9.9 27.5,-13.2 21.3,-13.2 C11.6,-13.2 0,-5 0,4.2"/>
<path class="Note" transform="matrix(0.992,0,0,0.992,1153.9,1613.8)" d="M0,4.2 C0,8.5 3.1,13.3 11.2,13.3 C21.6,13.3 32.5,4.8 32.5,-4 C32.5,-9.9 27.5,-13.2 21.3,-13.2 C11.6,-13.2 0,-5 0,4.2"/>
<path class="Note" transform="matrix(0.992,0,0,0.992,2396.27,1663.4)" d="M0,4.2 C0,8.5 3.1,13.3 11.2,13.3 C21.6,13.3 32.5,4.8 32.5,-4 C32.5,-9.9 27.5,-13.2 21.3,-13.2 C11.6,-13.2 0,-5 0,4.2"/>
<path class="Note" transform="matrix(0.992,0,0,0.992,1013.64,683.798)" d="M0,4.2 C0,8.5 3.1,13.3 11.2,13.3 C21.6,13.3 32.5,4.8 32.5,-4 C32.5,-9.9 27.5,-13.2 21.3,-13.2 C11.6,-13.2 0,-5 0,4.2"/>
<path class="Note" transform="matrix(0.992,0,0,0.992,1530.64,696.198)" d="M0,4.2 C0,8.5 3.1,13.3 11.2,13.3 C21.6,13.3 32.5,4.8 32.5,-4 C32.5,-9.9 27.5,-13.2 21.3,-13.2 C11.6,-13.2 0,-5 0,4.2"/>
<path class="Note" transform="matrix(0.992,0,0,0.992,1077.92,1613.8)" d="M0,4.2 C0,8.5 3.1,13.3 11.2,13.3 C21.6,13.3 32.5,4.8 32.5,-4 C32.5,-9.9 27.5,-13.2 21.3,-13.2 C11.6,-13.2 0,-5 0,4.2"/>
<path class="Note" transform="matrix(0.992,0,0,0.992,916.303,658.998)" d="M0,4.2 C0,8.5 3.1,13.3 11.2,13.3 C21.6,13.3 32.5,4.8 32.5,-4 C32.5,-9.9 27.5,-13.2 21.3,-13.2 C11.6,-13.2 0,-5 0,4.2"/>
<path class="Note" transform="matrix(0.992,0,0,0.992,1245.19,1229.4)" d="M0,4.2 C0,8.5 3.1,13.3 11.2,13.3 C21.6,13.3 32.5,4.8 32.5,-4 C32.5,-9.9 27.5,-13.2 21.3,-13.2 C11.6,-13.2 0,-5 0,4.2"/>
<path class="Note" transform="matrix(0.992,0,0,0.992,441.58,671.398)" d="M0,4.2 C0,8.5 3.1,13.3 11.2,13.3 C21.6,13.3 32.5,4.8 32.5,-4 C32.5,-9.9 27.5,-13.2 21.3,-13.2 C11.6,-13.2 0,-5 0,4.2"/>
<path class="Note" transform="matrix(0.992,0,0,0.992,1418.55,1613.8)" d="M0,4.2 C0,8.5 3.1,13.3 11.2,13.3 C21.6,13.3 32.5,4.8 32.5,-4 C32.5,-9.9 27.5,-13.2 21.3,-13.2 C11.6,-13.2 0,-5 0,4.2"/>
<path class="Note" transform="matrix(0.992,0,0,0.992,617.34,1217)" d="M0,4.2 C0,8.5 3.1,13.3 11.2,13.3 C21.6,13.3 32.5,4.8 32.5,-4 C32.5,-9.9 27.5,-13.2 21.3,-13.2 C11.6,-13.2 0,-5 0,4.2"/>
<path class="Note" transform="matrix(0.992,0,0,0.992,933.436,1613.8)" d="M0,4.2 C0,8.5 3.1,13.3 11.2,13.3 C21.6,13.3 32.5,4.8 32.5,-4 C32.5,-9.9 27.5,-13.2 21.3,-13.2 C11.6,-13.2 0,-5 0,4.2"/>
<path class="Note" transform="matrix(0.992,0,0,0.992,1356.08,1229.4)" d="M0,4.2 C0,8.5 3.1,13.3 11.2,13.3 C21.6,13.3 32.5,4.8 32.5,-4 C32.5,-9.9 27.5,-13.2 21.3,-13.2 C11.6,-13.2 0,-5 0,4.2"/>
<path class="Note" transform="matrix(0.992,0,0,0.992,543.415,1229.4)" d="M0,4.2 C0,8.5 3.1,13.3 11.2,13.3 C21.6,13.3 32.5,4.8 32.5,-4 C32.5,-9.9 27.5,-13.2 21.3,-13.2 C11.6,-13.2 0,-5 0,4.2"/>
<path class="Note" transform="matrix(0.992,0,0,0.992,1466.96,1192.2)" d="M0,4.2 C0,8.5 3.1,13.3 11.2,13.3 C21.6,13.3 32.5,4.8 32.5,-4 C32.5,-9.9 27.5,-13.2 21.3,-13.2 C11.6,-13.2 0,-5 0,4.2"/>
<path class="Note" transform="matrix(0.992,0,0,0.992,2236.75,671.398)" d="M0,4.2 C0,8.5 3.1,13.3 11.2,13.3 C21.6,13.3 32.5,4.8 32.5,-4 C32.5,-9.9 27.5,-13.2 21.3,-13.2 C11.6,-13.2 0,-5 0,4.2"/>
<path class="Note" transform="matrix(0.992,0,0,0.992,2245.59,1651)" d="M0,4.2 C0,8.5 3.1,13.3 11.2,13.3 C21.6,13.3 32.5,4.8 32.5,-4 C32.5,-9.9 27.5,-13.2 21.3,-13.2 C11.6,-13.2 0,-5 0,4.2"/>
<path class="Note" transform="matrix(0.992,0,0,0.992,1110.98,708.598)" d="M0,4.2 C0,8.5 3.1,13.3 11.2,13.3 C21.6,13.3 32.5,4.8 32.5,-4 C32.5,-9.9 27.5,-13.2 21.3,-13.2 C11.6,-13.2 0,-5 0,4.2"/>
<path class="Note" transform="matrix(0.992,0,0,0.992,1540.89,1192.2)" d="M0,4.2 C0,8.5 3.1,13.3 11.2,13.3 C21.6,13.3 32.5,4.8 32.5,-4 C32.5,-9.9 27.5,-13.2 21.3,-13.2 C11.6,-13.2 0,-5 0,4.2"/>
<path class="Note" transform="matrix(0.992,0,0,0.992,1993.4,708.598)" d="M0,4.2 C0,8.5 3.1,13.3 11.2,13.3 C21.6,13.3 32.5,4.8 32.5,-4 C32.5,-9.9 27.5,-13.2 21.3,-13.2 C11.6,-13.2 0,-5 0,4.2"/>
<path class="Note" transform="matrix(0.992,0,0,0.992,1614.81,1192.2)" d="M0,4.2 C0,8.5 3.1,13.3 11.2,13.3 C21.6,13.3 32.5,4.8 32.5,-4 C32.5,-9.9 27.5,-13.2 21.3,-13.2 C11.6,-13.2 0,-5 0,4.2"/>
<path class="Note" transform="matrix(0.992,0,0,0.992,1532.53,1601.4)" d="M0,4.2 C0,8.5 3.1,13.3 11.2,13.3 C21.6,13.3 32.5,4.8 32.5,-4 C32.5,-9.9 27.5,-13.2 21.3,-13.2 C11.6,-13.2 0,-5 0,4.2"/>
<path class="Note" transform="matrix(0.992,0,0,0.992,818.966,671.398)" d="M0,4.2 C0,8.5 3.1,13.3 11.2,13.3 C21.6,13.3 32.5,4.8 32.5,-4 C32.5,-9.9 27.5,-13.2 21.3,-13.2 C11.6,-13.2 0,-5 0,4.2"/>
<path class="Note" transform="matrix(0.992,0,0,0.992,668.785,1700.6)" d="M0,4.2 C0,8.5 3.1,13.3 11.2,13.3 C21.6,13.3 32.5,4.8 32.5,-4 C32.5,-9.9 27.5,-13.2 21.3,-13.2 C11.6,-13.2 0,-5 0,4.2"/>
<path class="Note" transform="matrix(0.992,0,0,0.992,1762.41,1167.4)" d="M0,4.2 C0,8.5 3.1,13.3 11.2,13.3 C21.6,13.3 32.5,4.8 32.5,-4 C32.5,-9.9 27.5,-13.2 21.3,-13.2 C11.6,-13.2 0,-5 0,4.2"/>
<path class="Note" transform="matrix(0.992,0,0,0.992,587.586,671.398)" d="M0,4.2 C0,8.5 3.1,13.3 11.2,13.3 C21.6,13.3 32.5,4.8 32.5,-4 C32.5,-9.9 27.5,-13.2 21.3,-13.2 C11.6,-13.2 0,-5 0,4.2"/>
<path class="Note" transform="matrix(0.992,0,0,0.992,1368.41,720.998)" d="M0,4.2 C0,8.5 3.1,13.3 11.2,13.3 C21.6,13.3 32.5,4.8 32.5,-4 C32.5,-9.9 27.5,-13.2 21.3,-13.2 C11.6,-13.2 0,-5 0,4.2"/>
<path class="Note" transform="matrix(0.992,0,0,0.992,2131.62,1638.6)" d="M0,4.2 C0,8.5 3.1,13.3 11.2,13.3 C21.6,13.3 32.5,4.8 32.5,-4 C32.5,-9.9 27.5,-13.2 21.3,-13.2 C11.6,-13.2 0,-5 0,4.2"/>
<path class="Note" transform="matrix(0.992,0,0,0.992,1873.29,1167.4)" d="M0,4.2 C0,8.5 3.1,13.3 11.2,13.3 C21.6,13.3 32.5,4.8 32.5,-4 C32.5,-9.9 27.5,-13.2 21.3,-13.2 C11.6,-13.2 0,-5 0,4.2"/>
<path class="Note" transform="matrix(0.992,0,0,0.992,402.845,1229.4)" d="M0,4.2 C0,8.5 3.1,13.3 11.2,13.3 C21.6,13.3 32.5,4.8 32.5,-4 C32.5,-9.9 27.5,-13.2 21.3,-13.2 C11.6,-13.2 0,-5 0,4.2"/>
<path class="Note" transform="matrix(0.992,0,0,0.992,1947.22,1167.4)" d="M0,4.2 C0,8.5 3.1,13.3 11.2,13.3 C21.6,13.3 32.5,4.8 32.5,-4 C32.5,-9.9 27.5,-13.2 21.3,-13.2 C11.6,-13.2 0,-5 0,4.2"/>
<path class="Note" transform="matrix(0.992,0,0,0.992,2370.79,683.798)" d="M0,4.2 C0,8.5 3.1,13.3 11.2,13.3 C21.6,13.3 32.5,4.8 32.5,-4 C32.5,-9.9 27.5,-13.2 21.3,-13.2 C11.6,-13.2 0,-5 0,4.2"/>
<path class="Note" transform="matrix(0.992,0,0,0.992,592.802,1663.4)" d="M0,4.2 C0,8.5 3.1,13.3 11.2,13.3 C21.6,13.3 32.5,4.8 32.5,-4 C32.5,-9.9 27.5,-13.2 21.3,-13.2 C11.6,-13.2 0,-5 0,4.2"/>
<path class="Note" transform="matrix(0.992,0,0,0.992,1433.3,708.598)" d="M0,4.2 C0,8.5 3.1,13.3 11.2,13.3 C21.6,13.3 32.5,4.8 32.5,-4 C32.5,-9.9 27.5,-13.2 21.3,-13.2 C11.6,-13.2 0,-5 0,4.2"/>
<path class="Note" transform="matrix(0.992,0,0,0.992,2055.63,1651)" d="M0,4.2 C0,8.5 3.1,13.3 11.2,13.3 C21.6,13.3 32.5,4.8 32.5,-4 C32.5,-9.9 27.5,-13.2 21.3,-13.2 C11.6,-13.2 0,-5 0,4.2"/>
<path class="Note" transform="matrix(0.992,0,0,0.992,516.819,1663.4)" d="M0,4.2 C0,8.5 3.1,13.3 11.2,13.3 C21.6,13.3 32.5,4.8 32.5,-4 C32.5,-9.9 27.5,-13.2 21.3,-13.2 C11.6,-13.2 0,-5 0,4.2"/>
<path class="Note" transform="matrix(0.992,0,0,0.992,1245.02,720.998)" d="M0,4.2 C0,8.5 3.1,13.3 11.2,13.3 C21.6,13.3 32.5,4.8 32.5,-4 C32.5,-9.9 27.5,-13.2 21.3,-13.2 C11.6,-13.2 0,-5 0,4.2"/>
<path class="Note" transform="matrix(0.992,0,0,0.992,1664.68,708.598)" d="M0,4.2 C0,8.5 3.1,13.3 11.2,13.3 C21.6,13.3 32.5,4.8 32.5,-4 C32.5,-9.9 27.5,-13.2 21.3,-13.2 C11.6,-13.2 0,-5 0,4.2"/>
<path class="Note" transform="matrix(0.992,0,0,0.992,684.924,671.398)" d="M0,4.2 C0,8.5 3.1,13.3 11.2,13.3 C21.6,13.3 32.5,4.8 32.5,-4 C32.5,-9.9 27.5,-13.2 21.3,-13.2 C11.6,-13.2 0,-5 0,4.2"/>
<path class="Note" transform="matrix(0.992,0,0,0.992,1646.5,1626.2)" d="M0,4.2 C0,8.5 3.1,13.3 11.2,13.3 C21.6,13.3 32.5,4.8 32.5,-4 C32.5,-9.9 27.5,-13.2 21.3,-13.2 C11.6,-13.2 0,-5 0,4.2"/>
<path class="Note" transform="matrix(0.992,0,0,0.992,2279.62,1167.4)" d="M0,4.2 C0,8.5 3.1,13.3 11.2,13.3 C21.6,13.3 32.5,4.8 32.5,-4 C32.5,-9.9 27.5,-13.2 21.3,-13.2 C11.6,-13.2 0,-5 0,4.2"/>
<path class="Note" transform="matrix(0.992,0,0,0.992,2468.12,696.198)" d="M0,4.2 C0,8.5 3.1,13.3 11.2,13.3 C21.6,13.3 32.5,4.8 32.5,-4 C32.5,-9.9 27.5,-13.2 21.3,-13.2 C11.6,-13.2 0,-5 0,4.2"/>
<path class="Note" transform="matrix(0.992,0,0,0.992,1911.15,1663.4)" d="M0,4.2 C0,8.5 3.1,13.3 11.2,13.3 C21.6,13.3 32.5,4.8 32.5,-4 C32.5,-9.9 27.5,-13.2 21.3,-13.2 C11.6,-13.2 0,-5 0,4.2"/>
<path class="Note" transform="matrix(0.992,0,0,0.992,1760.47,1651)" d="M0,4.2 C0,8.5 3.1,13.3 11.2,13.3 C21.6,13.3 32.5,4.8 32.5,-4 C32.5,-9.9 27.5,-13.2 21.3,-13.2 C11.6,-13.2 0,-5 0,4.2"/>
<path class="Note" transform="matrix(0.992,0,0,0.992,2390.51,1167.4)" d="M0,4.2 C0,8.5 3.1,13.3 11.2,13.3 C21.6,13.3 32.5,4.8 32.5,-4 C32.5,-9.9 27.5,-13.2 21.3,-13.2 C11.6,-13.2 0,-5 0,4.2"/>
<path class="Note" transform="matrix(0.992,0,0,0.992,2662.8,720.998)" d="M0,4.2 C0,8.5 3.1,13.3 11.2,13.3 C21.6,13.3 32.5,4.8 32.5,-4 C32.5,-9.9 27.5,-13.2 21.3,-13.2 C11.6,-13.2 0,-5 0,4.2"/>
<path class="Note" transform="matrix(0.992,0,0,0.992,2501.4,1192.2)" d="M0,4.2 C0,8.5 3.1,13.3 11.2,13.3 C21.6,13.3 32.5,4.8 32.5,-4 C32.5,-9.9 27.5,-13.2 21.3,-13.2 C11.6,-13.2 0,-5 0,4.2"/>
<path class="Note" transform="matrix(0.992,0,0,0.992,2565.46,708.598)" d="M0,4.2 C0,8.5 3.1,13.3 11.2,13.3 C21.6,13.3 32.5,4.8 32.5,-4 C32.5,-9.9 27.5,-13.2 21.3,-13.2 C11.6,-13.2 0,-5 0,4.2"/>
<path class="Note" transform="matrix(0.992,0,0,0.992,2649.25,1192.2)" d="M0,4.2 C0,8.5 3.1,13.3 11.2,13.3 C21.6,13.3 32.5,4.8 32.5,-4 C32.5,-9.9 27.5,-13.2 21.3,-13.2 C11.6,-13.2 0,-5 0,4.2"/>
<path class="Note" transform="matrix(0.992,0,0,0.992,2139.41,671.398)" d="M0,4.2 C0,8.5 3.1,13.3 11.2,13.3 C21.6,13.3 32.5,4.8 32.5,-4 C32.5,-9.9 27.5,-13.2 21.3,-13.2 C11.6,-13.2 0,-5 0,4.2"/>
<path class="Clef" transform="matrix(0.992,0,0,0.992,232.438,708.598)" d="M12.3,51.3 C12.3,57.9 17.3,66.6 30.8,66.6 C35.5,66.6 39.6,65.4 43.2,63.2 C48.6,59.4 50,52.8 50,46.5 C50,42.6 49.4,38.1 48.4,32.4 C48.1,30.4 47.5,27.4 46.9,23.5 C56.7,20.3 64,10.1 64,-0.2 C64,-15.3 53.3,-25.5 38.7,-25.5 C37.7,-31.5 36.7,-37.4 35.9,-43 C46.4,-54.1 53.7,-66.6 53.7,-82.5 C53.7,-91.6 50.9,-99 49.3,-102.6 C46.9,-107.7 44,-111.2 42.2,-111.2 C41.5,-111.2 38.4,-110 35.1,-106.1 C28.7,-98.5 26.9,-85.7 26.9,-77.3 C26.9,-71.9 27.4,-67 29.1,-55.8 C29,-55.7 23.8,-50.4 21.7,-48.7 C12.6,-40.3 0,-28.1 0,-8.1 C0,10.6 16.3,25.3 34.9,25.3 C37.8,25.3 40.5,25 42.8,24.6 C44.7,34.2 45.9,41.2 45.9,46.5 C45.9,56.9 40.5,62.4 30.4,62.4 C28,62.4 25.9,61.9 25.7,61.9 C25.6,61.8 25.4,61.7 25.4,61.6 C25.4,61.4 25.6,61.3 25.9,61.3 C30.6,60.5 35.3,56.5 35.3,50.1 C35.3,44.7 31.2,39 23.7,39 C16.7,39 12.3,44.7 12.3,51.3 M33.2,-82.2 C34.1,-86.2 38.7,-96.7 43.9,-96.7 C45.4,-96.7 47.8,-91.9 47.8,-84.9 C47.8,-74.5 40.1,-66.7 33.2,-59.9 C32.6,-63.9 32.1,-67.8 32.1,-72 C32.1,-75.7 32.4,-79.1 33.2,-82.2 M42,20.6 C40,21 38.1,21.2 36.2,21.2 C21.9,21.2 9.7,11.2 9.7,-3.9 C9.7,-16.1 18.3,-27 27.1,-34.6 C28.8,-36.1 30.4,-37.5 31.9,-39 C32.8,-33.6 33.5,-28.9 34.2,-24.8 C25.1,-22.1 18.9,-12.5 18.9,-3.1 C18.9,3.9 24.4,13.5 32.4,13.5 C33.2,13.5 34.1,13.1 34.1,12.2 C34.1,11.3 33.1,10.8 31.9,10 C28,7.6 25.8,5 25.8,0.1 C25.8,-6 30.4,-10.9 36.2,-12.3 L42,20.6 M56.2,2.1 C56.2,9.2 53.3,16.5 46.2,19.4 C44.1,7.4 41.4,-8.5 40.7,-12.9 C49.7,-12.9 56.2,-6.8 56.2,2.1"/>
<path class="Clef" transform="matrix(0.992,0,0,0.992,232.438,1179.8)" d="M12.3,51.3 C12.3,57.9 17.3,66.6 30.8,66.6 C35.5,66.6 39.6,65.4 43.2,63.2 C48.6,59.4 50,52.8 50,46.5 C50,42.6 49.4,38.1 48.4,32.4 C48.1,30.4 47.5,27.4 46.9,23.5 C56.7,20.3 64,10.1 64,-0.2 C64,-15.3 53.3,-25.5 38.7,-25.5 C37.7,-31.5 36.7,-37.4 35.9,-43 C46.4,-54.1 53.7,-66.6 53.7,-82.5 C53.7,-91.6 50.9,-99 49.3,-102.6 C46.9,-107.7 44,-111.2 42.2,-111.2 C41.5,-111.2 38.4,-110 35.1,-106.1 C28.7,-98.5 26.9,-85.7 26.9,-77.3 C26.9,-71.9 27.4,-67 29.1,-55.8 C29,-55.7 23.8,-50.4 21.7,-48.7 C12.6,-40.3 0,-28.1 0,-8.1 C0,10.6 16.3,25.3 34.9,25.3 C37.8,25.3 40.5,25 42.8,24.6 C44.7,34.2 45.9,41.2 45.9,46.5 C45.9,56.9 40.5,62.4 30.4,62.4 C28,62.4 25.9,61.9 25.7,61.9 C25.6,61.8 25.4,61.7 25.4,61.6 C25.4,61.4 25.6,61.3 25.9,61.3 C30.6,60.5 35.3,56.5 35.3,50.1 C35.3,44.7 31.2,39 23.7,39 C16.7,39 12.3,44.7 12.3,51.3 M33.2,-82.2 C34.1,-86.2 38.7,-96.7 43.9,-96.7 C45.4,-96.7 47.8,-91.9 47.8,-84.9 C47.8,-74.5 40.1,-66.7 33.2,-59.9 C32.6,-63.9 32.1,-67.8 32.1,-72 C32.1,-75.7 32.4,-79.1 33.2,-82.2 M42,20.6 C40,21 38.1,21.2 36.2,21.2 C21.9,21.2 9.7,11.2 9.7,-3.9 C9.7,-16.1 18.3,-27 27.1,-34.6 C28.8,-36.1 30.4,-37.5 31.9,-39 C32.8,-33.6 33.5,-28.9 34.2,-24.8 C25.1,-22.1 18.9,-12.5 18.9,-3.1 C18.9,3.9 24.4,13.5 32.4,13.5 C33.2,13.5 34.1,13.1 34.1,12.2 C34.1,11.3 33.1,10.8 31.9,10 C28,7.6 25.8,5 25.8,0.1 C25.8,-6 30.4,-10.9 36.2,-12.3 L42,20.6 M56.2,2.1 C56.2,9.2 53.3,16.5 46.2,19.4 C44.1,7.4 41.4,-8.5 40.7,-12.9 C49.7,-12.9 56.2,-6.8 56.2,2.1"/>
<path class="Clef" transform="matrix(0.992,0,0,0.992,232.438,1651)" d="M12.3,51.3 C12.3,57.9 17.3,66.6 30.8,66.6 C35.5,66.6 39.6,65.4 43.2,63.2 C48.6,59.4 50,52.8 50,46.5 C50,42.6 49.4,38.1 48.4,32.4 C48.1,30.4 47.5,27.4 46.9,23.5 C56.7,20.3 64,10.1 64,-0.2 C64,-15.3 53.3,-25.5 38.7,-25.5 C37.7,-31.5 36.7,-37.4 35.9,-43 C46.4,-54.1 53.7,-66.6 53.7,-82.5 C53.7,-91.6 50.9,-99 49.3,-102.6 C46.9,-107.7 44,-111.2 42.2,-111.2 C41.5,-111.2 38.4,-110 35.1,-106.1 C28.7,-98.5 26.9,-85.7 26.9,-77.3 C26.9,-71.9 27.4,-67 29.1,-55.8 C29,-55.7 23.8,-50.4 21.7,-48.7 C12.6,-40.3 0,-28.1 0,-8.1 C0,10.6 16.3,25.3 34.9,25.3 C37.8,25.3 40.5,25 42.8,24.6 C44.7,34.2 45.9,41.2 45.9,46.5 C45.9,56.9 40.5,62.4 30.4,62.4 C28,62.4 25.9,61.9 25.7,61.9 C25.6,61.8 25.4,61.7 25.4,61.6 C25.4,61.4 25.6,61.3 25.9,61.3 C30.6,60.5 35.3,56.5 35.3,50.1 C35.3,44.7 31.2,39 23.7,39 C16.7,39 12.3,44.7 12.3,51.3 M33.2,-82.2 C34.1,-86.2 38.7,-96.7 43.9,-96.7 C45.4,-96.7 47.8,-91.9 47.8,-84.9 C47.8,-74.5 40.1,-66.7 33.2,-59.9 C32.6,-63.9 32.1,-67.8 32.1,-72 C32.1,-75.7 32.4,-79.1 33.2,-82.2 M42,20.6 C40,21 38.1,21.2 36.2,21.2 C21.9,21.2 9.7,11.2 9.7,-3.9 C9.7,-16.1 18.3,-27 27.1,-34.6 C28.8,-36.1 30.4,-37.5 31.9,-39 C32.8,-33.6 33.5,-28.9 34.2,-24.8 C25.1,-22.1 18.9,-12.5 18.9,-3.1 C18.9,3.9 24.4,13.5 32.4,13.5 C33.2,13.5 34.1,13.1 34.1,12.2 C34.1,11.3 33.1,10.8 31.9,10 C28,7.6 25.8,5 25.8,0.1 C25.8,-6 30.4,-10.9 36.2,-12.3 L42,20.6 M56.2,2.1 C56.2,9.2 53.3,16.5 46.2,19.4 C44.1,7.4 41.4,-8.5 40.7,-12.9 C49.7,-12.9 56.2,-6.8 56.2,2.1"/>
<path class="KeySig" transform="matrix(0.992,0,0,0.992,320.711,1626.2)" d="M12,-15.5 C7,-15.5 4.1,-12.4 3.6,-11.8 L4,-43.9 C4,-44.7 3.4,-45.3 2.6,-45.3 L1.4,-45.3 C0.6,-45.3 0,-44.7 0,-43.9 L0.5,16.2 C0.5,17 1.1,17.6 1.9,17.6 C2.1,17.6 2.5,17.5 2.7,17.4 C11.3,13.1 20.3,4.9 20.3,-5.4 C20.3,-10.6 17.9,-15.5 12,-15.5 M3.3,12.7 L3.6,-6.8 C3.8,-7.7 5.3,-10.6 9.3,-10.6 C12.9,-10.6 13.2,-7.2 13.2,-5.1 C13.2,3.8 9.9,7.5 3.3,12.7"/>
<path class="KeySig" transform="matrix(0.992,0,0,0.992,320.711,683.798)" d="M12,-15.5 C7,-15.5 4.1,-12.4 3.6,-11.8 L4,-43.9 C4,-44.7 3.4,-45.3 2.6,-45.3 L1.4,-45.3 C0.6,-45.3 0,-44.7 0,-43.9 L0.5,16.2 C0.5,17 1.1,17.6 1.9,17.6 C2.1,17.6 2.5,17.5 2.7,17.4 C11.3,13.1 20.3,4.9 20.3,-5.4 C20.3,-10.6 17.9,-15.5 12,-15.5 M3.3,12.7 L3.6,-6.8 C3.8,-7.7 5.3,-10.6 9.3,-10.6 C12.9,-10.6 13.2,-7.2 13.2,-5.1 C13.2,3.8 9.9,7.5 3.3,12.7"/>
<path class="KeySig" transform="matrix(0.992,0,0,0.992,320.711,1155)" d="M12,-15.5 C7,-15.5 4.1,-12.4 3.6,-11.8 L4,-43.9 C4,-44.7 3.4,-45.3 2.6,-45.3 L1.4,-45.3 C0.6,-45.3 0,-44.7 0,-43.9 L0.5,16.2 C0.5,17 1.1,17.6 1.9,17.6 C2.1,17.6 2.5,17.5 2.7,17.4 C11.3,13.1 20.3,4.9 20.3,-5.4 C20.3,-10.6 17.9,-15.5 12,-15.5 M3.3,12.7 L3.6,-6.8 C3.8,-7.7 5.3,-10.6 9.3,-10.6 C12.9,-10.6 13.2,-7.2 13.2,-5.1 C13.2,3.8 9.9,7.5 3.3,12.7"/>
<path class="TimeSig" transform="matrix(0.992,0,0,0.992,367.536,659.494)" d="M34.2,3.9 C33.4,6.1 31.4,13.3 26.5,13.3 C20,13.3 18.6,9.3 13.2,9.3 C12.4,9.3 11.6,9.4 10.6,9.6 C10.6,9.6 13.1,5.8 23.7,2.5 C34.3,-0.8 37,-6 37,-12 C37,-16.2 35.1,-24.5 20,-24.5 C4.9,-24.5 2.1,-15.4 2.1,-10.8 C2.1,-6.7 5.5,-3.4 9.6,-3.4 C13.7,-3.4 17,-6.7 17,-10.8 C17,-13.6 15,-16.7 12.4,-17.7 C12.1,-17.8 11.7,-18.3 11.7,-18.8 C11.7,-19.4 12.2,-20.1 14,-20.6 C14.5,-20.8 15.9,-21.1 17.4,-21.1 C23.1,-21.1 24.2,-17.6 24.2,-12.5 C24.2,-0.8 10.3,1.7 4.5,10.4 C4.5,10.4 1.5,14.6 1.5,19.3 C1.5,24 3.9,24.3 5.1,24.3 C6.7,24.3 8.4,23 8.4,21.2 C8.4,20.8 8.3,20.4 8.1,19.9 C7.5,18.5 7.3,17.4 7.3,16.6 C7.3,16.3 7.3,16 7.4,15.7 C7.5,15.1 8.3,14.1 10.7,14.1 C13.6,14.1 14.7,17.5 16.5,20.1 C18.3,22.7 21.1,24.3 24.3,24.3 C27.5,24.3 31.8,22 33.6,18.3 C35.4,14.6 37.7,7.1 37.7,4.4 C37.7,3.1 36.9,2.5 36,2.5 C35.3,2.5 34.6,2.9 34.2,3.9"/>
<path class="TimeSig" transform="matrix(0.992,0,0,0.992,364.266,708.598)" d="M20.8,12.7 L20.8,20.1 L12.5,20.1 C11.8,20.1 11.1,20.7 11.1,21.5 L11.1,23.4 C11.1,24.2 11.8,24.8 12.5,24.8 L42.8,24.8 C43.6,24.8 44.2,24.2 44.2,23.4 L44.2,21.5 C44.2,20.7 43.6,20.1 42.8,20.1 L33.9,20.1 L33.9,12.7 L42.8,12.7 C43.6,12.7 44.2,12 44.2,11.2 L44.2,9.3 C44.2,8.6 43.6,7.9 42.8,7.9 L33.9,7.9 L33.9,-8 C33.9,-8.6 33.6,-9.1 33.1,-9.3 L31.9,-9.9 C31.7,-10 31.4,-10.1 31.2,-10.1 C30.9,-10 30.5,-9.9 30.3,-9.7 L21.2,-1.4 C20.9,-1.1 20.8,-0.7 20.8,-0.3 L20.8,7.9 L9.3,7.9 C9.3,7.9 20.4,-4.1 32.2,-19.9 C32.6,-20.4 32.7,-20.9 32.7,-21.3 C32.7,-21.8 32.5,-22.2 32.4,-22.3 L30.2,-24.5 C30,-24.7 29.6,-24.9 29.2,-24.9 C28.6,-24.9 15.1,-24.9 14.4,-24.9 C13.6,-24.9 13.1,-24.3 13,-23.7 C13,-23.7 12.5,-16.3 9.9,-8.2 C7.3,-0.1 4.3,4.9 1.7,8.6 C1.7,8.6 1.4,9.1 1.4,9.7 C1.4,9.9 1.4,10.1 1.5,10.3 C1.9,11 2.5,12.1 2.5,12.1 C2.5,12.1 2.7,12.7 3.6,12.7 L20.8,12.7 "/>
<path class="Rest" transform="matrix(0.992,0,0,0.992,2567.23,1626.2)" d="M23,16.6 C22.9,16.5 22.7,16.3 22.4,15.9 L10.9,1.7 C10.8,1.6 10.7,1.3 10.7,1.1 C10.7,0.8 10.8,0.4 10.9,0.2 L21.1,-15.2 C21.2,-15.4 21.3,-15.7 21.3,-15.9 L21.3,-16.8 C21.3,-17.1 21.2,-17.4 21,-17.6 L4.8,-39.5 C4.8,-39.5 4.4,-40.1 3.8,-40.1 C3.5,-40.1 3.3,-40.1 3,-39.8 C2.6,-39.5 2.5,-39.1 2.5,-38.8 C2.5,-38.2 2.8,-37.7 2.8,-37.7 L10.4,-27.3 C10.6,-27 10.7,-26.6 10.7,-26.1 C10.7,-25.7 10.6,-25.2 10.4,-24.9 L0.3,-9.5 C0.2,-9.3 0.1,-8.9 0.1,-8.7 L0.1,-7.8 C0.1,-7.5 0.2,-7.2 0.4,-7 L11.6,6.9 C11.2,6.8 10.3,6.6 9.1,6.6 C4,6.6 0,10.8 0,15.9 C0,17.3 0.3,18.7 1.1,19.8 C3.2,23 10.7,32.5 10.7,32.5 C10.7,32.5 11.2,33.1 11.9,33.1 C12.1,33.1 12.3,33.1 12.5,32.9 C13,32.5 13.2,32.1 13.2,31.7 C13.2,31.3 13,31 12.9,30.8 C12.6,30.3 9.4,24.5 9.4,24.5 C9.4,24.5 8.7,23.1 8.7,21.3 C8.7,18.1 11.1,15.5 14.3,15.5 C15.6,15.5 16.7,15.9 17.5,16.4 L21.4,18.9 C21.4,18.9 21.8,19.1 22.2,19.1 C22.6,19.1 22.9,19 23.2,18.6 C23.4,18.3 23.5,18 23.5,17.7 C23.5,17.4 23.4,17.2 23.2,16.9 L23,16.6 "/>
<path class="Rest" transform="matrix(0.992,0,0,0.992,2132.03,1155)" d="M26.7,-20.3 C26.6,-20.3 26.4,-20.4 26.3,-20.4 C25.7,-20.4 25.2,-20.1 25,-19.6 C22.7,-15 17.9,-8.8 12.5,-7.8 C13.6,-9.1 14.3,-10.7 14.3,-12.6 C14.3,-16.5 11.1,-19.7 7.2,-19.7 C3.2,-19.7 0,-16.5 0,-12.6 C0,-7.2 5.3,-4.7 10,-4.7 C15.3,-4.7 18.8,-7.2 22.2,-10.9 L10.8,24.7 L13.5,25.5 L27.5,-18.6 C27.6,-18.7 27.6,-18.9 27.6,-19.1 C27.6,-19.6 27.3,-20 26.7,-20.3"/>
<path class="Rest" transform="matrix(0.992,0,0,0.992,1042.15,1155)" d="M23,16.6 C22.9,16.5 22.7,16.3 22.4,15.9 L10.9,1.7 C10.8,1.6 10.7,1.3 10.7,1.1 C10.7,0.8 10.8,0.4 10.9,0.2 L21.1,-15.2 C21.2,-15.4 21.3,-15.7 21.3,-15.9 L21.3,-16.8 C21.3,-17.1 21.2,-17.4 21,-17.6 L4.8,-39.5 C4.8,-39.5 4.4,-40.1 3.8,-40.1 C3.5,-40.1 3.3,-40.1 3,-39.8 C2.6,-39.5 2.5,-39.1 2.5,-38.8 C2.5,-38.2 2.8,-37.7 2.8,-37.7 L10.4,-27.3 C10.6,-27 10.7,-26.6 10.7,-26.1 C10.7,-25.7 10.6,-25.2 10.4,-24.9 L0.3,-9.5 C0.2,-9.3 0.1,-8.9 0.1,-8.7 L0.1,-7.8 C0.1,-7.5 0.2,-7.2 0.4,-7 L11.6,6.9 C11.2,6.8 10.3,6.6 9.1,6.6 C4,6.6 0,10.8 0,15.9 C0,17.3 0.3,18.7 1.1,19.8 C3.2,23 10.7,32.5 10.7,32.5 C10.7,32.5 11.2,33.1 11.9,33.1 C12.1,33.1 12.3,33.1 12.5,32.9 C13,32.5 13.2,32.1 13.2,31.7 C13.2,31.3 13,31 12.9,30.8 C12.6,30.3 9.4,24.5 9.4,24.5 C9.4,24.5 8.7,23.1 8.7,21.3 C8.7,18.1 11.1,15.5 14.3,15.5 C15.6,15.5 16.7,15.9 17.5,16.4 L21.4,18.9 C21.4,18.9 21.8,19.1 22.2,19.1 C22.6,19.1 22.9,19 23.2,18.6 C23.4,18.3 23.5,18 23.5,17.7 C23.5,17.4 23.4,17.2 23.2,16.9 L23,16.6 "/>
<path class="Rest" transform="matrix(0.992,0,0,0.992,782.758,1626.2)" d="M26.7,-20.3 C26.6,-20.3 26.4,-20.4 26.3,-20.4 C25.7,-20.4 25.2,-20.1 25,-19.6 C22.7,-15 17.9,-8.8 12.5,-7.8 C13.6,-9.1 14.3,-10.7 14.3,-12.6 C14.3,-16.5 11.1,-19.7 7.2,-19.7 C3.2,-19.7 0,-16.5 0,-12.6 C0,-7.2 5.3,-4.7 10,-4.7 C15.3,-4.7 18.8,-7.2 22.2,-10.9 L10.8,24.7 L13.5,25.5 L27.5,-18.6 C27.6,-18.7 27.6,-18.9 27.6,-19.1 C27.6,-19.6 27.3,-20 26.7,-20.3"/>
<path class="Rest" transform="matrix(0.992,0,0,0.992,1810.69,683.798)" d="M23,16.6 C22.9,16.5 22.7,16.3 22.4,15.9 L10.9,1.7 C10.8,1.6 10.7,1.3 10.7,1.1 C10.7,0.8 10.8,0.4 10.9,0.2 L21.1,-15.2 C21.2,-15.4 21.3,-15.7 21.3,-15.9 L21.3,-16.8 C21.3,-17.1 21.2,-17.4 21,-17.6 L4.8,-39.5 C4.8,-39.5 4.4,-40.1 3.8,-40.1 C3.5,-40.1 3.3,-40.1 3,-39.8 C2.6,-39.5 2.5,-39.1 2.5,-38.8 C2.5,-38.2 2.8,-37.7 2.8,-37.7 L10.4,-27.3 C10.6,-27 10.7,-26.6 10.7,-26.1 C10.7,-25.7 10.6,-25.2 10.4,-24.9 L0.3,-9.5 C0.2,-9.3 0.1,-8.9 0.1,-8.7 L0.1,-7.8 C0.1,-7.5 0.2,-7.2 0.4,-7 L11.6,6.9 C11.2,6.8 10.3,6.6 9.1,6.6 C4,6.6 0,10.8 0,15.9 C0,17.3 0.3,18.7 1.1,19.8 C3.2,23 10.7,32.5 10.7,32.5 C10.7,32.5 11.2,33.1 11.9,33.1 C12.1,33.1 12.3,33.1 12.5,32.9 C13,32.5 13.2,32.1 13.2,31.7 C13.2,31.3 13,31 12.9,30.8 C12.6,30.3 9.4,24.5 9.4,24.5 C9.4,24.5 8.7,23.1 8.7,21.3 C8.7,18.1 11.1,15.5 14.3,15.5 C15.6,15.5 16.7,15.9 17.5,16.4 L21.4,18.9 C21.4,18.9 21.8,19.1 22.2,19.1 C22.6,19.1 22.9,19 23.2,18.6 C23.4,18.3 23.5,18 23.5,17.7 C23.5,17.4 23.4,17.2 23.2,16.9 L23,16.6 "/>
<path class="Beam" fill-rule="evenodd" d="M2309.12,1093 L2422.74,1093 L2422.74,1105.4 L2309.12,1105.4 L2309.12,1093 "/>
<path class="Beam" fill-rule="evenodd" d="M1940.65,1576.59 L2087.86,1570.39 L2087.86,1582.8 L1940.65,1589 L1940.65,1576.59 "/>
<path class="Beam" fill-rule="evenodd" d="M2087.86,1588.99 L2055.62,1590.35 L2055.62,1602.76 L2087.86,1601.4 L2087.86,1588.99 "/>
<path class="Beam" fill-rule="evenodd" d="M2400.28,609.387 L2500.35,615.587 L2500.35,628.01 L2400.28,621.81 L2400.28,609.387 "/>
<path class="Beam" fill-rule="evenodd" d="M617.083,596.998 L717.149,596.998 L717.149,609.398 L617.083,609.398 L617.083,596.998 "/>
<path class="Beam" fill-rule="evenodd" d="M1274.52,634.198 L1400.64,634.198 L1400.64,646.598 L1274.52,646.598 L1274.52,634.198 "/>
<path class="Beam" fill-rule="evenodd" d="M1400.64,652.798 L1368.4,652.798 L1368.4,665.198 L1400.64,665.198 L1400.64,652.798 "/>
<path class="Beam" fill-rule="evenodd" d="M1676,1551.79 L1792.7,1557.99 L1792.7,1570.41 L1676,1564.21 L1676,1551.79 "/>
<path class="Beam" fill-rule="evenodd" d="M1791.9,1080.6 L1979.44,1080.6 L1979.44,1093 L1791.9,1093 L1791.9,1080.6 "/>
<path class="Beam" fill-rule="evenodd" d="M1902.79,1099.2 L1979.44,1099.2 L1979.44,1111.6 L1902.79,1111.6 L1902.79,1099.2 "/>
<path class="Beam" fill-rule="evenodd" d="M432.342,1148.8 L575.639,1148.8 L575.639,1161.2 L432.342,1161.2 L432.342,1148.8 "/>
<path class="Beam" fill-rule="evenodd" d="M575.639,1167.4 L543.399,1167.4 L543.399,1179.8 L575.639,1179.8 L575.639,1167.4 "/>
<path class="Beam" fill-rule="evenodd" d="M848.462,596.987 L948.528,590.787 L948.528,603.21 L848.462,609.41 L848.462,596.987 "/>
<path class="Beam" fill-rule="evenodd" d="M432.342,1564.19 L625.026,1576.59 L625.026,1589.01 L432.342,1576.61 L432.342,1564.19 "/>
<path class="Beam" fill-rule="evenodd" d="M546.316,1590.12 L625.026,1595.19 L625.026,1607.61 L546.316,1602.55 L546.316,1590.12 "/>
<path class="Beam" fill-rule="evenodd" d="M1462.8,627.987 L1562.87,621.787 L1562.87,634.21 L1462.8,640.41 L1462.8,627.987 "/>
<path class="Beam" fill-rule="evenodd" d="M1448.05,1539.39 L1564.75,1533.19 L1564.75,1545.61 L1448.05,1551.81 L1448.05,1539.39 "/>
<path class="Beam" fill-rule="evenodd" d="M1496.46,1105.4 L1647.04,1105.4 L1647.04,1117.8 L1496.46,1117.8 L1496.46,1105.4 "/>
<path class="Beam" fill-rule="evenodd" d="M1496.46,1124 L1573.11,1124 L1573.11,1136.4 L1496.46,1136.4 L1496.46,1124 "/>
<path class="Beam" fill-rule="evenodd" d="M2530.9,1105.4 L2681.47,1105.4 L2681.47,1117.8 L2530.9,1117.8 L2530.9,1105.4 "/>
<path class="Beam" fill-rule="evenodd" d="M2530.9,1124 L2607.55,1124 L2607.55,1136.4 L2530.9,1136.4 L2530.9,1124 "/>
<path class="Beam" fill-rule="evenodd" d="M2594.96,627.987 L2695.02,634.187 L2695.02,646.61 L2594.96,640.41 L2594.96,627.987 "/>
<path class="Beam" fill-rule="evenodd" d="M962.933,1533.2 L1110.14,1533.2 L1110.14,1545.6 L962.933,1545.6 L962.933,1533.2 "/>
<path class="Beam" fill-rule="evenodd" d="M1110.14,1551.8 L1077.9,1551.8 L1077.9,1564.2 L1110.14,1564.2 L1110.14,1551.8 "/>
<path class="Beam" fill-rule="evenodd" d="M1274.68,1148.8 L1388.3,1148.8 L1388.3,1161.2 L1274.68,1161.2 L1274.68,1148.8 "/>
<path class="Beam" fill-rule="evenodd" d="M646.837,1105.39 L760.452,1099.19 L760.452,1111.61 L646.837,1117.81 L646.837,1105.39 "/>
<path class="Beam" fill-rule="evenodd" d="M2168.9,596.998 L2268.97,596.998 L2268.97,609.398 L2168.9,609.398 L2168.9,596.998 "/>
<path class="Beam" fill-rule="evenodd" d="M1043.14,609.387 L1143.2,615.587 L1143.2,628.01 L1043.14,621.81 L1043.14,609.387 "/>
<path class="Beam" fill-rule="evenodd" d="M1183.4,1539.4 L1300.1,1539.4 L1300.1,1551.8 L1183.4,1551.8 L1183.4,1539.4 "/>
<path class="Beam" fill-rule="evenodd" d="M2161.11,1564.19 L2277.81,1570.39 L2277.81,1582.81 L2161.11,1576.61 L2161.11,1564.19 "/>
<path class="Harmony" d="M1046.32,532.103 L1044.23,532.103 L1042.03,535.348 C1038.01,532.433 1035.98,531.663 1032.18,531.663 C1026.96,531.663 1022.5,533.863 1018.82,538.263 C1015.3,542.443 1013.65,547.063 1013.65,552.728 C1013.65,564.608 1021.4,573.023 1032.24,573.023 C1041.04,573.023 1046.65,567.853 1047.91,558.613 L1045.33,558.173 C1043.84,566.368 1039.66,570.438 1032.9,570.438 C1024.76,570.438 1020.91,564.828 1020.91,552.948 C1020.91,546.678 1021.73,542.553 1023.6,539.253 C1025.31,536.173 1028.66,534.248 1032.24,534.248 C1036.09,534.248 1039.5,536.283 1041.59,539.803 C1042.63,541.618 1043.4,543.653 1044.72,547.998 L1047.14,547.998 L1046.32,532.103 "/>
<path class="Harmony" d="M1056.57,546.788 L1058.99,547.173 L1059.98,542.828 C1060.81,539.198 1061.19,538.648 1062.79,538.648 C1063.06,538.648 1063.5,538.648 1064,538.703 C1070.76,539.033 1070.76,539.033 1073.29,539.033 C1074.01,539.033 1075.27,539.033 1076.81,538.978 L1073.07,546.513 C1069,554.598 1068.51,555.588 1067.13,558.998 C1065.43,563.123 1064.55,566.588 1064.55,568.898 C1064.55,571.428 1065.87,572.968 1068.01,572.968 C1070.65,572.968 1071.7,571.208 1071.64,566.423 C1071.37,558.503 1072.36,554.653 1078.24,541.783 C1079.23,539.638 1080.28,537.438 1081.27,535.293 L1081.27,533.698 C1077.97,533.973 1076.21,534.083 1072.8,534.083 C1068.01,534.083 1064.22,533.918 1058.28,533.478 L1056.57,546.788 "/>
<path class="Harmony" d="M851.642,532.103 L849.552,532.103 L847.352,535.348 C843.337,532.433 841.302,531.663 837.507,531.663 C832.282,531.663 827.827,533.863 824.142,538.263 C820.622,542.443 818.972,547.063 818.972,552.728 C818.972,564.608 826.727,573.023 837.562,573.023 C846.362,573.023 851.972,567.853 853.237,558.613 L850.652,558.173 C849.167,566.368 844.987,570.438 838.222,570.438 C830.082,570.438 826.232,564.828 826.232,552.948 C826.232,546.678 827.057,542.553 828.927,539.253 C830.632,536.173 833.987,534.248 837.562,534.248 C841.412,534.248 844.822,536.283 846.912,539.803 C847.957,541.618 848.727,543.653 850.047,547.998 L852.467,547.998 L851.642,532.103 "/>
<path class="Harmony" d="M861.898,546.788 L864.318,547.173 L865.308,542.828 C866.133,539.198 866.518,538.648 868.113,538.648 C868.388,538.648 868.828,538.648 869.323,538.703 C876.088,539.033 876.088,539.033 878.618,539.033 C879.333,539.033 880.598,539.033 882.138,538.978 L878.398,546.513 C874.328,554.598 873.833,555.588 872.458,558.998 C870.753,563.123 869.873,566.588 869.873,568.898 C869.873,571.428 871.193,572.968 873.338,572.968 C875.978,572.968 877.023,571.208 876.968,566.423 C876.693,558.503 877.683,554.653 883.568,541.783 C884.558,539.638 885.603,537.438 886.593,535.293 L886.593,533.698 C883.293,533.973 881.533,534.083 878.123,534.083 C873.338,534.083 869.543,533.918 863.603,533.478 L861.898,546.788 "/>
<path class="Harmony" d="M2172.08,532.103 L2169.99,532.103 L2167.79,535.348 C2163.78,532.433 2161.74,531.663 2157.95,531.663 C2152.72,531.663 2148.27,533.863 2144.58,538.263 C2141.06,542.443 2139.41,547.063 2139.41,552.728 C2139.41,564.608 2147.17,573.023 2158,573.023 C2166.8,573.023 2172.41,567.853 2173.68,558.613 L2171.09,558.173 C2169.61,566.368 2165.43,570.438 2158.66,570.438 C2150.52,570.438 2146.67,564.828 2146.67,552.948 C2146.67,546.678 2147.5,542.553 2149.37,539.253 C2151.07,536.173 2154.43,534.248 2158,534.248 C2161.85,534.248 2165.26,536.283 2167.35,539.803 C2168.4,541.618 2169.17,543.653 2170.49,547.998 L2172.91,547.998 L2172.08,532.103 "/>
<path class="Harmony" d="M2182.34,546.788 L2184.76,547.173 L2185.75,542.828 C2186.57,539.198 2186.96,538.648 2188.55,538.648 C2188.83,538.648 2189.27,538.648 2189.76,538.703 C2196.53,539.033 2196.53,539.033 2199.06,539.033 C2199.77,539.033 2201.04,539.033 2202.58,538.978 L2198.84,546.513 C2194.77,554.598 2194.27,555.588 2192.9,558.998 C2191.19,563.123 2190.31,566.588 2190.31,568.898 C2190.31,571.428 2191.63,572.968 2193.78,572.968 C2196.42,572.968 2197.46,571.208 2197.41,566.423 C2197.13,558.503 2198.12,554.653 2204.01,541.783 C2205,539.638 2206.04,537.438 2207.03,535.293 L2207.03,533.698 C2203.73,533.973 2201.97,534.083 2198.56,534.083 C2193.78,534.083 2189.98,533.918 2184.04,533.478 L2182.34,546.788 "/>
<path class="Harmony" d="M966.163,1474.89 L933.438,1474.89 L933.438,1477.47 L934.428,1477.47 C937.563,1477.53 938.608,1477.69 939.048,1478.24 C939.378,1478.74 939.378,1478.85 939.378,1481.65 L939.378,1507.83 C939.378,1510.64 939.378,1510.75 939.048,1511.24 C938.608,1511.79 937.563,1512.01 934.428,1512.01 L933.438,1512.01 L933.438,1514.6 L952.303,1514.6 L952.303,1512.01 L950.488,1512.01 C947.353,1512.01 946.308,1511.79 945.868,1511.24 C945.538,1510.75 945.538,1510.58 945.538,1507.83 L945.538,1495.35 L946.638,1495.35 C952.303,1495.13 954.338,1497.16 954.558,1503.27 L957.143,1503.27 L957.143,1485.23 L954.558,1485.23 C954.228,1490.62 952.083,1492.71 946.858,1492.76 L945.538,1492.76 L945.538,1480.22 C945.483,1477.91 946.033,1477.53 949.003,1477.47 L951.533,1477.47 C960.553,1477.42 962.808,1479.45 964.513,1488.91 L966.933,1488.91 L966.163,1474.89 "/>
<path class="Harmony" d="M2026.08,532.103 L2023.99,532.103 L2021.79,535.348 C2017.77,532.433 2015.74,531.663 2011.94,531.663 C2006.72,531.663 2002.26,533.863 1998.58,538.263 C1995.06,542.443 1993.41,547.063 1993.41,552.728 C1993.41,564.608 2001.16,573.023 2012,573.023 C2020.8,573.023 2026.41,567.853 2027.67,558.613 L2025.09,558.173 C2023.6,566.368 2019.42,570.438 2012.66,570.438 C2004.52,570.438 2000.67,564.828 2000.67,552.948 C2000.67,546.678 2001.49,542.553 2003.36,539.253 C2005.07,536.173 2008.42,534.248 2012,534.248 C2015.85,534.248 2019.26,536.283 2021.35,539.803 C2022.39,541.618 2023.16,543.653 2024.48,547.998 L2026.9,547.998 L2026.08,532.103 "/>
<path class="Harmony" d="M2036.33,546.788 L2038.75,547.173 L2039.74,542.828 C2040.57,539.198 2040.95,538.648 2042.55,538.648 C2042.82,538.648 2043.26,538.648 2043.76,538.703 C2050.52,539.033 2050.52,539.033 2053.05,539.033 C2053.77,539.033 2055.03,539.033 2056.57,538.978 L2052.83,546.513 C2048.76,554.598 2048.27,555.588 2046.89,558.998 C2045.19,563.123 2044.31,566.588 2044.31,568.898 C2044.31,571.428 2045.63,572.968 2047.77,572.968 C2050.41,572.968 2051.46,571.208 2051.4,566.423 C2051.13,558.503 2052.12,554.653 2058,541.783 C2058.99,539.638 2060.04,537.438 2061.03,535.293 L2061.03,533.698 C2057.73,533.973 2055.97,534.083 2052.56,534.083 C2047.77,534.083 2043.98,533.918 2038.04,533.478 L2036.33,546.788 "/>
<path class="Harmony" d="M2599.95,1474.89 L2567.23,1474.89 L2567.23,1477.47 L2568.22,1477.47 C2571.35,1477.53 2572.4,1477.69 2572.84,1478.24 C2573.17,1478.74 2573.17,1478.85 2573.17,1481.65 L2573.17,1507.83 C2573.17,1510.64 2573.17,1510.75 2572.84,1511.24 C2572.4,1511.79 2571.35,1512.01 2568.22,1512.01 L2567.23,1512.01 L2567.23,1514.6 L2586.09,1514.6 L2586.09,1512.01 L2584.28,1512.01 C2581.14,1512.01 2580.1,1511.79 2579.66,1511.24 C2579.33,1510.75 2579.33,1510.58 2579.33,1507.83 L2579.33,1495.35 L2580.43,1495.35 C2586.09,1495.13 2588.13,1497.16 2588.35,1503.27 L2590.93,1503.27 L2590.93,1485.23 L2588.35,1485.23 C2588.02,1490.62 2585.87,1492.71 2580.65,1492.76 L2579.33,1492.76 L2579.33,1480.22 C2579.27,1477.91 2579.82,1477.53 2582.79,1477.47 L2585.32,1477.47 C2594.34,1477.42 2596.6,1479.45 2598.3,1488.91 L2600.72,1488.91 L2599.95,1474.89 "/>
<path class="Harmony" d="M474.306,532.488 L441.581,532.488 L441.581,535.073 L442.571,535.073 C445.706,535.128 446.751,535.293 447.191,535.843 C447.521,536.338 447.521,536.448 447.521,539.253 L447.521,565.433 C447.521,568.238 447.521,568.348 447.191,568.843 C446.751,569.393 445.706,569.613 442.571,569.613 L441.581,569.613 L441.581,572.198 L460.446,572.198 L460.446,569.613 L458.631,569.613 C455.496,569.613 454.451,569.393 454.011,568.843 C453.681,568.348 453.681,568.183 453.681,565.433 L453.681,552.948 L454.781,552.948 C460.446,552.728 462.481,554.763 462.701,560.868 L465.286,560.868 L465.286,542.828 L462.701,542.828 C462.371,548.218 460.226,550.308 455.001,550.363 L453.681,550.363 L453.681,537.823 C453.626,535.513 454.176,535.128 457.146,535.073 L459.676,535.073 C468.696,535.018 470.951,537.053 472.656,546.513 L475.076,546.513 L474.306,532.488 "/>
<path class="Harmony" d="M1451.23,1474.5 L1449.14,1474.5 L1446.94,1477.75 C1442.92,1474.83 1440.89,1474.06 1437.09,1474.06 C1431.87,1474.06 1427.41,1476.26 1423.73,1480.66 C1420.21,1484.84 1418.56,1489.46 1418.56,1495.13 C1418.56,1507.01 1426.31,1515.42 1437.15,1515.42 C1445.95,1515.42 1451.56,1510.25 1452.82,1501.01 L1450.24,1500.57 C1448.75,1508.77 1444.57,1512.84 1437.81,1512.84 C1429.67,1512.84 1425.82,1507.23 1425.82,1495.35 C1425.82,1489.08 1426.64,1484.95 1428.51,1481.65 C1430.22,1478.57 1433.57,1476.65 1437.15,1476.65 C1441,1476.65 1444.41,1478.68 1446.5,1482.2 C1447.54,1484.02 1448.31,1486.05 1449.63,1490.4 L1452.05,1490.4 L1451.23,1474.5 "/>
<path class="Harmony" d="M1461.48,1489.19 L1463.9,1489.57 L1464.89,1485.23 C1465.72,1481.6 1466.1,1481.05 1467.7,1481.05 C1467.97,1481.05 1468.41,1481.05 1468.91,1481.1 C1475.67,1481.43 1475.67,1481.43 1478.2,1481.43 C1478.92,1481.43 1480.18,1481.43 1481.72,1481.38 L1477.98,1488.91 C1473.91,1497 1473.42,1497.99 1472.04,1501.4 C1470.34,1505.52 1469.46,1508.99 1469.46,1511.3 C1469.46,1513.83 1470.78,1515.37 1472.92,1515.37 C1475.56,1515.37 1476.61,1513.61 1476.55,1508.82 C1476.28,1500.9 1477.27,1497.05 1483.15,1484.18 C1484.14,1482.04 1485.19,1479.84 1486.18,1477.69 L1486.18,1476.1 C1482.88,1476.37 1481.12,1476.48 1477.71,1476.48 C1472.92,1476.48 1469.13,1476.32 1463.19,1475.88 L1461.48,1489.19 "/>
<path class="Harmony" d="M650.016,1003.3 L647.926,1003.3 L645.726,1006.55 C641.711,1003.63 639.676,1002.86 635.881,1002.86 C630.656,1002.86 626.201,1005.06 622.516,1009.46 C618.996,1013.64 617.346,1018.26 617.346,1023.93 C617.346,1035.81 625.101,1044.22 635.936,1044.22 C644.736,1044.22 650.346,1039.05 651.611,1029.81 L649.026,1029.37 C647.541,1037.57 643.361,1041.64 636.596,1041.64 C628.456,1041.64 624.606,1036.03 624.606,1024.15 C624.606,1017.88 625.431,1013.75 627.301,1010.45 C629.006,1007.37 632.361,1005.45 635.936,1005.45 C639.786,1005.45 643.196,1007.48 645.286,1011 C646.331,1012.82 647.101,1014.85 648.421,1019.2 L650.841,1019.2 L650.016,1003.3 "/>
<path class="Harmony" d="M660.273,1017.99 L662.693,1018.37 L663.683,1014.03 C664.508,1010.4 664.893,1009.85 666.488,1009.85 C666.763,1009.85 667.203,1009.85 667.698,1009.9 C674.463,1010.23 674.463,1010.23 676.993,1010.23 C677.708,1010.23 678.973,1010.23 680.513,1010.18 L676.773,1017.71 C672.703,1025.8 672.208,1026.79 670.833,1030.2 C669.128,1034.32 668.248,1037.79 668.248,1040.1 C668.248,1042.63 669.568,1044.17 671.713,1044.17 C674.353,1044.17 675.398,1042.41 675.343,1037.62 C675.068,1029.7 676.058,1025.85 681.943,1012.98 C682.933,1010.84 683.978,1008.64 684.968,1006.49 L684.968,1004.9 C681.668,1005.17 679.908,1005.28 676.498,1005.28 C671.713,1005.28 667.918,1005.12 661.978,1004.68 L660.273,1017.99 "/>
<path class="Harmony" d="M701.461,1474.5 L699.371,1474.5 L697.171,1477.75 C693.156,1474.83 691.121,1474.06 687.326,1474.06 C682.101,1474.06 677.646,1476.26 673.961,1480.66 C670.441,1484.84 668.791,1489.46 668.791,1495.13 C668.791,1507.01 676.546,1515.42 687.381,1515.42 C696.181,1515.42 701.791,1510.25 703.056,1501.01 L700.471,1500.57 C698.986,1508.77 694.806,1512.84 688.041,1512.84 C679.901,1512.84 676.051,1507.23 676.051,1495.35 C676.051,1489.08 676.876,1484.95 678.746,1481.65 C680.451,1478.57 683.806,1476.65 687.381,1476.65 C691.231,1476.65 694.641,1478.68 696.731,1482.2 C697.776,1484.02 698.546,1486.05 699.866,1490.4 L702.286,1490.4 L701.461,1474.5 "/>
<path class="Harmony" d="M711.717,1489.19 L714.137,1489.57 L715.127,1485.23 C715.952,1481.6 716.337,1481.05 717.932,1481.05 C718.207,1481.05 718.647,1481.05 719.142,1481.1 C725.907,1481.43 725.907,1481.43 728.437,1481.43 C729.152,1481.43 730.417,1481.43 731.957,1481.38 L728.217,1488.91 C724.147,1497 723.652,1497.99 722.277,1501.4 C720.572,1505.52 719.692,1508.99 719.692,1511.3 C719.692,1513.83 721.012,1515.37 723.157,1515.37 C725.797,1515.37 726.842,1513.61 726.787,1508.82 C726.512,1500.9 727.502,1497.05 733.387,1484.18 C734.377,1482.04 735.422,1479.84 736.412,1477.69 L736.412,1476.1 C733.112,1476.37 731.352,1476.48 727.942,1476.48 C723.157,1476.48 719.362,1476.32 713.422,1475.88 L711.717,1489.19 "/>
<path class="Harmony" d="M1277.75,532.488 L1245.02,532.488 L1245.02,535.073 L1246.01,535.073 C1249.15,535.128 1250.19,535.293 1250.63,535.843 C1250.96,536.338 1250.96,536.448 1250.96,539.253 L1250.96,565.433 C1250.96,568.238 1250.96,568.348 1250.63,568.843 C1250.19,569.393 1249.15,569.613 1246.01,569.613 L1245.02,569.613 L1245.02,572.198 L1263.89,572.198 L1263.89,569.613 L1262.07,569.613 C1258.94,569.613 1257.89,569.393 1257.45,568.843 C1257.12,568.348 1257.12,568.183 1257.12,565.433 L1257.12,552.948 L1258.22,552.948 C1263.89,552.728 1265.92,554.763 1266.14,560.868 L1268.73,560.868 L1268.73,542.828 L1266.14,542.828 C1265.81,548.218 1263.67,550.308 1258.44,550.363 L1257.12,550.363 L1257.12,537.823 C1257.07,535.513 1257.62,535.128 1260.59,535.073 L1263.12,535.073 C1272.14,535.018 1274.39,537.053 1276.1,546.513 L1278.52,546.513 L1277.75,532.488 "/>
<path class="Harmony" d="M2403.51,532.488 L2370.79,532.488 L2370.79,535.073 L2371.78,535.073 C2374.91,535.128 2375.96,535.293 2376.4,535.843 C2376.73,536.338 2376.73,536.448 2376.73,539.253 L2376.73,565.433 C2376.73,568.238 2376.73,568.348 2376.4,568.843 C2375.96,569.393 2374.91,569.613 2371.78,569.613 L2370.79,569.613 L2370.79,572.198 L2389.65,572.198 L2389.65,569.613 L2387.84,569.613 C2384.7,569.613 2383.66,569.393 2383.22,568.843 C2382.89,568.348 2382.89,568.183 2382.89,565.433 L2382.89,552.948 L2383.99,552.948 C2389.65,552.728 2391.69,554.763 2391.91,560.868 L2394.49,560.868 L2394.49,542.828 L2391.91,542.828 C2391.58,548.218 2389.43,550.308 2384.21,550.363 L2382.89,550.363 L2382.89,537.823 C2382.83,535.513 2383.38,535.128 2386.35,535.073 L2388.88,535.073 C2397.9,535.018 2400.16,537.053 2401.86,546.513 L2404.28,546.513 L2403.51,532.488 "/>
<path class="Harmony" d="M435.572,1474.89 L402.847,1474.89 L402.847,1477.47 L403.837,1477.47 C406.972,1477.53 408.017,1477.69 408.457,1478.24 C408.787,1478.74 408.787,1478.85 408.787,1481.65 L408.787,1507.83 C408.787,1510.64 408.787,1510.75 408.457,1511.24 C408.017,1511.79 406.972,1512.01 403.837,1512.01 L402.847,1512.01 L402.847,1514.6 L421.712,1514.6 L421.712,1512.01 L419.897,1512.01 C416.762,1512.01 415.717,1511.79 415.277,1511.24 C414.947,1510.75 414.947,1510.58 414.947,1507.83 L414.947,1495.35 L416.047,1495.35 C421.712,1495.13 423.747,1497.16 423.967,1503.27 L426.552,1503.27 L426.552,1485.23 L423.967,1485.23 C423.637,1490.62 421.492,1492.71 416.267,1492.76 L414.947,1492.76 L414.947,1480.22 C414.892,1477.91 415.442,1477.53 418.412,1477.47 L420.942,1477.47 C429.962,1477.42 432.217,1479.45 433.922,1488.91 L436.342,1488.91 L435.572,1474.89 "/>
<path class="Harmony" d="M1679.18,1474.5 L1677.09,1474.5 L1674.89,1477.75 C1670.87,1474.83 1668.84,1474.06 1665.04,1474.06 C1659.82,1474.06 1655.36,1476.26 1651.68,1480.66 C1648.16,1484.84 1646.51,1489.46 1646.51,1495.13 C1646.51,1507.01 1654.26,1515.42 1665.1,1515.42 C1673.9,1515.42 1679.51,1510.25 1680.77,1501.01 L1678.19,1500.57 C1676.7,1508.77 1672.52,1512.84 1665.76,1512.84 C1657.62,1512.84 1653.77,1507.23 1653.77,1495.35 C1653.77,1489.08 1654.59,1484.95 1656.46,1481.65 C1658.17,1478.57 1661.52,1476.65 1665.1,1476.65 C1668.95,1476.65 1672.36,1478.68 1674.45,1482.2 C1675.49,1484.02 1676.26,1486.05 1677.58,1490.4 L1680,1490.4 L1679.18,1474.5 "/>
<path class="Harmony" d="M1689.43,1489.19 L1691.85,1489.57 L1692.84,1485.23 C1693.67,1481.6 1694.05,1481.05 1695.65,1481.05 C1695.92,1481.05 1696.36,1481.05 1696.86,1481.1 C1703.62,1481.43 1703.62,1481.43 1706.15,1481.43 C1706.87,1481.43 1708.13,1481.43 1709.67,1481.38 L1705.93,1488.91 C1701.86,1497 1701.37,1497.99 1699.99,1501.4 C1698.29,1505.52 1697.41,1508.99 1697.41,1511.3 C1697.41,1513.83 1698.73,1515.37 1700.87,1515.37 C1703.51,1515.37 1704.56,1513.61 1704.5,1508.82 C1704.23,1500.9 1705.22,1497.05 1711.1,1484.18 C1712.09,1482.04 1713.14,1479.84 1714.13,1477.69 L1714.13,1476.1 C1710.83,1476.37 1709.07,1476.48 1705.66,1476.48 C1700.87,1476.48 1697.08,1476.32 1691.14,1475.88 L1689.43,1489.19 "/>
<path class="Harmony" d="M1843.37,532.103 L1841.28,532.103 L1839.08,535.348 C1835.06,532.433 1833.03,531.663 1829.23,531.663 C1824.01,531.663 1819.55,533.863 1815.87,538.263 C1812.35,542.443 1810.7,547.063 1810.7,552.728 C1810.7,564.608 1818.45,573.023 1829.29,573.023 C1838.09,573.023 1843.7,567.853 1844.96,558.613 L1842.38,558.173 C1840.89,566.368 1836.71,570.438 1829.95,570.438 C1821.81,570.438 1817.96,564.828 1817.96,552.948 C1817.96,546.678 1818.78,542.553 1820.65,539.253 C1822.36,536.173 1825.71,534.248 1829.29,534.248 C1833.14,534.248 1836.55,536.283 1838.64,539.803 C1839.68,541.618 1840.45,543.653 1841.77,547.998 L1844.19,547.998 L1843.37,532.103 "/>
<path class="Harmony" d="M1853.62,546.788 L1856.04,547.173 L1857.03,542.828 C1857.86,539.198 1858.24,538.648 1859.84,538.648 C1860.11,538.648 1860.55,538.648 1861.05,538.703 C1867.81,539.033 1867.81,539.033 1870.34,539.033 C1871.06,539.033 1872.32,539.033 1873.86,538.978 L1870.12,546.513 C1866.05,554.598 1865.56,555.588 1864.18,558.998 C1862.48,563.123 1861.6,566.588 1861.6,568.898 C1861.6,571.428 1862.92,572.968 1865.06,572.968 C1867.7,572.968 1868.75,571.208 1868.69,566.423 C1868.42,558.503 1869.41,554.653 1875.29,541.783 C1876.28,539.638 1877.33,537.438 1878.32,535.293 L1878.32,533.698 C1875.02,533.973 1873.26,534.083 1869.85,534.083 C1865.06,534.083 1861.27,533.918 1855.33,533.478 L1853.62,546.788 "/>
<path class="Harmony" d="M620.313,532.488 L587.588,532.488 L587.588,535.073 L588.578,535.073 C591.713,535.128 592.758,535.293 593.198,535.843 C593.528,536.338 593.528,536.448 593.528,539.253 L593.528,565.433 C593.528,568.238 593.528,568.348 593.198,568.843 C592.758,569.393 591.713,569.613 588.578,569.613 L587.588,569.613 L587.588,572.198 L606.453,572.198 L606.453,569.613 L604.638,569.613 C601.503,569.613 600.458,569.393 600.018,568.843 C599.688,568.348 599.688,568.183 599.688,565.433 L599.688,552.948 L600.788,552.948 C606.453,552.728 608.488,554.763 608.708,560.868 L611.293,560.868 L611.293,542.828 L608.708,542.828 C608.378,548.218 606.233,550.308 601.008,550.363 L599.688,550.363 L599.688,537.823 C599.633,535.513 600.183,535.128 603.153,535.073 L605.683,535.073 C614.703,535.018 616.958,537.053 618.663,546.513 L621.083,546.513 L620.313,532.488 "/>
<path class="Harmony" d="M2598.19,532.488 L2565.46,532.488 L2565.46,535.073 L2566.45,535.073 C2569.59,535.128 2570.63,535.293 2571.07,535.843 C2571.4,536.338 2571.4,536.448 2571.4,539.253 L2571.4,565.433 C2571.4,568.238 2571.4,568.348 2571.07,568.843 C2570.63,569.393 2569.59,569.613 2566.45,569.613 L2565.46,569.613 L2565.46,572.198 L2584.33,572.198 L2584.33,569.613 L2582.51,569.613 C2579.38,569.613 2578.33,569.393 2577.89,568.843 C2577.56,568.348 2577.56,568.183 2577.56,565.433 L2577.56,552.948 L2578.66,552.948 C2584.33,552.728 2586.36,554.763 2586.58,560.868 L2589.17,560.868 L2589.17,542.828 L2586.58,542.828 C2586.25,548.218 2584.11,550.308 2578.88,550.363 L2577.56,550.363 L2577.56,537.823 C2577.51,535.513 2578.06,535.128 2581.03,535.073 L2583.56,535.073 C2592.58,535.018 2594.83,537.053 2596.54,546.513 L2598.96,546.513 L2598.19,532.488 "/>
<path class="Harmony" d="M2534.13,1003.69 L2501.4,1003.69 L2501.4,1006.27 L2502.39,1006.27 C2505.53,1006.33 2506.57,1006.49 2507.01,1007.04 C2507.34,1007.54 2507.34,1007.65 2507.34,1010.45 L2507.34,1036.63 C2507.34,1039.44 2507.34,1039.55 2507.01,1040.04 C2506.57,1040.59 2505.53,1040.81 2502.39,1040.81 L2501.4,1040.81 L2501.4,1043.4 L2520.27,1043.4 L2520.27,1040.81 L2518.45,1040.81 C2515.32,1040.81 2514.27,1040.59 2513.83,1040.04 C2513.5,1039.55 2513.5,1039.38 2513.5,1036.63 L2513.5,1024.15 L2514.6,1024.15 C2520.27,1023.93 2522.3,1025.96 2522.52,1032.07 L2525.11,1032.07 L2525.11,1014.03 L2522.52,1014.03 C2522.19,1019.42 2520.05,1021.51 2514.82,1021.56 L2513.5,1021.56 L2513.5,1009.02 C2513.45,1006.71 2514,1006.33 2516.97,1006.27 L2519.5,1006.27 C2528.52,1006.22 2530.77,1008.25 2532.48,1017.71 L2534.9,1017.71 L2534.13,1003.69 "/>
<path class="Harmony" d="M1697.36,532.103 L1695.27,532.103 L1693.07,535.348 C1689.06,532.433 1687.02,531.663 1683.23,531.663 C1678,531.663 1673.55,533.863 1669.86,538.263 C1666.34,542.443 1664.69,547.063 1664.69,552.728 C1664.69,564.608 1672.45,573.023 1683.28,573.023 C1692.08,573.023 1697.69,567.853 1698.96,558.613 L1696.37,558.173 C1694.89,566.368 1690.71,570.438 1683.94,570.438 C1675.8,570.438 1671.95,564.828 1671.95,552.948 C1671.95,546.678 1672.78,542.553 1674.65,539.253 C1676.35,536.173 1679.71,534.248 1683.28,534.248 C1687.13,534.248 1690.54,536.283 1692.63,539.803 C1693.68,541.618 1694.45,543.653 1695.77,547.998 L1698.19,547.998 L1697.36,532.103 "/>
<path class="Harmony" d="M1707.62,546.788 L1710.04,547.173 L1711.03,542.828 C1711.85,539.198 1712.24,538.648 1713.83,538.648 C1714.11,538.648 1714.55,538.648 1715.04,538.703 C1721.81,539.033 1721.81,539.033 1724.34,539.033 C1725.05,539.033 1726.32,539.033 1727.86,538.978 L1724.12,546.513 C1720.05,554.598 1719.55,555.588 1718.18,558.998 C1716.47,563.123 1715.59,566.588 1715.59,568.898 C1715.59,571.428 1716.91,572.968 1719.06,572.968 C1721.7,572.968 1722.74,571.208 1722.69,566.423 C1722.41,558.503 1723.4,554.653 1729.29,541.783 C1730.28,539.638 1731.32,537.438 1732.31,535.293 L1732.31,533.698 C1729.01,533.973 1727.25,534.083 1723.84,534.083 C1719.06,534.083 1715.26,533.918 1709.32,533.478 L1707.62,546.788 "/>
<path class="Harmony" d="M2312.35,1003.69 L2279.62,1003.69 L2279.62,1006.27 L2280.61,1006.27 C2283.75,1006.33 2284.79,1006.49 2285.23,1007.04 C2285.56,1007.54 2285.56,1007.65 2285.56,1010.45 L2285.56,1036.63 C2285.56,1039.44 2285.56,1039.55 2285.23,1040.04 C2284.79,1040.59 2283.75,1040.81 2280.61,1040.81 L2279.62,1040.81 L2279.62,1043.4 L2298.49,1043.4 L2298.49,1040.81 L2296.67,1040.81 C2293.54,1040.81 2292.49,1040.59 2292.05,1040.04 C2291.72,1039.55 2291.72,1039.38 2291.72,1036.63 L2291.72,1024.15 L2292.82,1024.15 C2298.49,1023.93 2300.52,1025.96 2300.74,1032.07 L2303.33,1032.07 L2303.33,1014.03 L2300.74,1014.03 C2300.41,1019.42 2298.27,1021.51 2293.04,1021.56 L2291.72,1021.56 L2291.72,1009.02 C2291.67,1006.71 2292.22,1006.33 2295.19,1006.27 L2297.72,1006.27 C2306.74,1006.22 2308.99,1008.25 2310.7,1017.71 L2313.12,1017.71 L2312.35,1003.69 "/>
<path class="Harmony" d="M1186.63,1474.89 L1153.9,1474.89 L1153.9,1477.47 L1154.89,1477.47 C1158.03,1477.53 1159.07,1477.69 1159.51,1478.24 C1159.84,1478.74 1159.84,1478.85 1159.84,1481.65 L1159.84,1507.83 C1159.84,1510.64 1159.84,1510.75 1159.51,1511.24 C1159.07,1511.79 1158.03,1512.01 1154.89,1512.01 L1153.9,1512.01 L1153.9,1514.6 L1172.77,1514.6 L1172.77,1512.01 L1170.95,1512.01 C1167.82,1512.01 1166.77,1511.79 1166.33,1511.24 C1166,1510.75 1166,1510.58 1166,1507.83 L1166,1495.35 L1167.1,1495.35 C1172.77,1495.13 1174.8,1497.16 1175.02,1503.27 L1177.61,1503.27 L1177.61,1485.23 L1175.02,1485.23 C1174.69,1490.62 1172.55,1492.71 1167.32,1492.76 L1166,1492.76 L1166,1480.22 C1165.95,1477.91 1166.5,1477.53 1169.47,1477.47 L1172,1477.47 C1181.02,1477.42 1183.27,1479.45 1184.98,1488.91 L1187.4,1488.91 L1186.63,1474.89 "/>
<path class="Harmony" d="M908.546,1003.69 L875.821,1003.69 L875.821,1006.27 L876.811,1006.27 C879.946,1006.33 880.991,1006.49 881.431,1007.04 C881.761,1007.54 881.761,1007.65 881.761,1010.45 L881.761,1036.63 C881.761,1039.44 881.761,1039.55 881.431,1040.04 C880.991,1040.59 879.946,1040.81 876.811,1040.81 L875.821,1040.81 L875.821,1043.4 L894.686,1043.4 L894.686,1040.81 L892.871,1040.81 C889.736,1040.81 888.691,1040.59 888.251,1040.04 C887.921,1039.55 887.921,1039.38 887.921,1036.63 L887.921,1024.15 L889.021,1024.15 C894.686,1023.93 896.721,1025.96 896.941,1032.07 L899.526,1032.07 L899.526,1014.03 L896.941,1014.03 C896.611,1019.42 894.466,1021.51 889.241,1021.56 L887.921,1021.56 L887.921,1009.02 C887.866,1006.71 888.416,1006.33 891.386,1006.27 L893.916,1006.27 C902.936,1006.22 905.191,1008.25 906.896,1017.71 L909.316,1017.71 L908.546,1003.69 "/>
<path class="Harmony" d="M1943.88,1474.89 L1911.15,1474.89 L1911.15,1477.47 L1912.14,1477.47 C1915.28,1477.53 1916.32,1477.69 1916.76,1478.24 C1917.09,1478.74 1917.09,1478.85 1917.09,1481.65 L1917.09,1507.83 C1917.09,1510.64 1917.09,1510.75 1916.76,1511.24 C1916.32,1511.79 1915.28,1512.01 1912.14,1512.01 L1911.15,1512.01 L1911.15,1514.6 L1930.02,1514.6 L1930.02,1512.01 L1928.2,1512.01 C1925.07,1512.01 1924.02,1511.79 1923.58,1511.24 C1923.25,1510.75 1923.25,1510.58 1923.25,1507.83 L1923.25,1495.35 L1924.35,1495.35 C1930.02,1495.13 1932.05,1497.16 1932.27,1503.27 L1934.86,1503.27 L1934.86,1485.23 L1932.27,1485.23 C1931.94,1490.62 1929.8,1492.71 1924.57,1492.76 L1923.25,1492.76 L1923.25,1480.22 C1923.2,1477.91 1923.75,1477.53 1926.72,1477.47 L1929.25,1477.47 C1938.27,1477.42 1940.52,1479.45 1942.23,1488.91 L1944.65,1488.91 L1943.88,1474.89 "/>
<path class="Harmony" d="M1277.91,1003.69 L1245.19,1003.69 L1245.19,1006.27 L1246.18,1006.27 C1249.31,1006.33 1250.36,1006.49 1250.8,1007.04 C1251.13,1007.54 1251.13,1007.65 1251.13,1010.45 L1251.13,1036.63 C1251.13,1039.44 1251.13,1039.55 1250.8,1040.04 C1250.36,1040.59 1249.31,1040.81 1246.18,1040.81 L1245.19,1040.81 L1245.19,1043.4 L1264.05,1043.4 L1264.05,1040.81 L1262.24,1040.81 C1259.1,1040.81 1258.06,1040.59 1257.62,1040.04 C1257.29,1039.55 1257.29,1039.38 1257.29,1036.63 L1257.29,1024.15 L1258.39,1024.15 C1264.05,1023.93 1266.09,1025.96 1266.31,1032.07 L1268.89,1032.07 L1268.89,1014.03 L1266.31,1014.03 C1265.98,1019.42 1263.83,1021.51 1258.61,1021.56 L1257.29,1021.56 L1257.29,1009.02 C1257.23,1006.71 1257.78,1006.33 1260.75,1006.27 L1263.28,1006.27 C1272.3,1006.22 1274.56,1008.25 1276.26,1017.71 L1278.68,1017.71 L1277.91,1003.69 "/>
<path class="Harmony" d="M2053.87,1003.69 L2021.15,1003.69 L2021.15,1006.27 L2022.14,1006.27 C2025.27,1006.33 2026.32,1006.49 2026.76,1007.04 C2027.09,1007.54 2027.09,1007.65 2027.09,1010.45 L2027.09,1036.63 C2027.09,1039.44 2027.09,1039.55 2026.76,1040.04 C2026.32,1040.59 2025.27,1040.81 2022.14,1040.81 L2021.15,1040.81 L2021.15,1043.4 L2040.01,1043.4 L2040.01,1040.81 L2038.2,1040.81 C2035.06,1040.81 2034.02,1040.59 2033.58,1040.04 C2033.25,1039.55 2033.25,1039.38 2033.25,1036.63 L2033.25,1024.15 L2034.35,1024.15 C2040.01,1023.93 2042.05,1025.96 2042.27,1032.07 L2044.85,1032.07 L2044.85,1014.03 L2042.27,1014.03 C2041.94,1019.42 2039.79,1021.51 2034.57,1021.56 L2033.25,1021.56 L2033.25,1009.02 C2033.19,1006.71 2033.74,1006.33 2036.71,1006.27 L2039.24,1006.27 C2048.26,1006.22 2050.52,1008.25 2052.22,1017.71 L2054.64,1017.71 L2053.87,1003.69 "/>
<path class="Harmony" d="M1466.03,532.488 L1433.31,532.488 L1433.31,535.073 L1434.3,535.073 C1437.43,535.128 1438.48,535.293 1438.92,535.843 C1439.25,536.338 1439.25,536.448 1439.25,539.253 L1439.25,565.433 C1439.25,568.238 1439.25,568.348 1438.92,568.843 C1438.48,569.393 1437.43,569.613 1434.3,569.613 L1433.31,569.613 L1433.31,572.198 L1452.17,572.198 L1452.17,569.613 L1450.36,569.613 C1447.22,569.613 1446.18,569.393 1445.74,568.843 C1445.41,568.348 1445.41,568.183 1445.41,565.433 L1445.41,552.948 L1446.51,552.948 C1452.17,552.728 1454.21,554.763 1454.43,560.868 L1457.01,560.868 L1457.01,542.828 L1454.43,542.828 C1454.1,548.218 1451.95,550.308 1446.73,550.363 L1445.41,550.363 L1445.41,537.823 C1445.35,535.513 1445.9,535.128 1448.87,535.073 L1451.4,535.073 C1460.42,535.018 1462.68,537.053 1464.38,546.513 L1466.8,546.513 L1466.03,532.488 "/>
<path class="Harmony" d="M2428.99,1474.89 L2396.27,1474.89 L2396.27,1477.47 L2397.26,1477.47 C2400.39,1477.53 2401.44,1477.69 2401.88,1478.24 C2402.21,1478.74 2402.21,1478.85 2402.21,1481.65 L2402.21,1507.83 C2402.21,1510.64 2402.21,1510.75 2401.88,1511.24 C2401.44,1511.79 2400.39,1512.01 2397.26,1512.01 L2396.27,1512.01 L2396.27,1514.6 L2415.13,1514.6 L2415.13,1512.01 L2413.32,1512.01 C2410.18,1512.01 2409.14,1511.79 2408.7,1511.24 C2408.37,1510.75 2408.37,1510.58 2408.37,1507.83 L2408.37,1495.35 L2409.47,1495.35 C2415.13,1495.13 2417.17,1497.16 2417.39,1503.27 L2419.97,1503.27 L2419.97,1485.23 L2417.39,1485.23 C2417.06,1490.62 2414.91,1492.71 2409.69,1492.76 L2408.37,1492.76 L2408.37,1480.22 C2408.31,1477.91 2408.86,1477.53 2411.83,1477.47 L2414.36,1477.47 C2423.38,1477.42 2425.64,1479.45 2427.34,1488.91 L2429.76,1488.91 L2428.99,1474.89 "/>
<path class="Harmony" d="M1795.13,1003.69 L1762.41,1003.69 L1762.41,1006.27 L1763.4,1006.27 C1766.53,1006.33 1767.58,1006.49 1768.02,1007.04 C1768.35,1007.54 1768.35,1007.65 1768.35,1010.45 L1768.35,1036.63 C1768.35,1039.44 1768.35,1039.55 1768.02,1040.04 C1767.58,1040.59 1766.53,1040.81 1763.4,1040.81 L1762.41,1040.81 L1762.41,1043.4 L1781.27,1043.4 L1781.27,1040.81 L1779.46,1040.81 C1776.32,1040.81 1775.28,1040.59 1774.84,1040.04 C1774.51,1039.55 1774.51,1039.38 1774.51,1036.63 L1774.51,1024.15 L1775.61,1024.15 C1781.27,1023.93 1783.31,1025.96 1783.53,1032.07 L1786.11,1032.07 L1786.11,1014.03 L1783.53,1014.03 C1783.2,1019.42 1781.05,1021.51 1775.83,1021.56 L1774.51,1021.56 L1774.51,1009.02 C1774.45,1006.71 1775,1006.33 1777.97,1006.27 L1780.5,1006.27 C1789.52,1006.22 1791.78,1008.25 1793.48,1017.71 L1795.9,1017.71 L1795.13,1003.69 "/>
<path class="Harmony" d="M2164.29,1474.5 L2162.2,1474.5 L2160,1477.75 C2155.99,1474.83 2153.95,1474.06 2150.16,1474.06 C2144.93,1474.06 2140.48,1476.26 2136.79,1480.66 C2133.27,1484.84 2131.62,1489.46 2131.62,1495.13 C2131.62,1507.01 2139.38,1515.42 2150.21,1515.42 C2159.01,1515.42 2164.62,1510.25 2165.89,1501.01 L2163.3,1500.57 C2161.82,1508.77 2157.64,1512.84 2150.87,1512.84 C2142.73,1512.84 2138.88,1507.23 2138.88,1495.35 C2138.88,1489.08 2139.71,1484.95 2141.58,1481.65 C2143.28,1478.57 2146.64,1476.65 2150.21,1476.65 C2154.06,1476.65 2157.47,1478.68 2159.56,1482.2 C2160.61,1484.02 2161.38,1486.05 2162.7,1490.4 L2165.12,1490.4 L2164.29,1474.5 "/>
<path class="Harmony" d="M2174.55,1489.19 L2176.97,1489.57 L2177.96,1485.23 C2178.78,1481.6 2179.17,1481.05 2180.76,1481.05 C2181.04,1481.05 2181.48,1481.05 2181.97,1481.1 C2188.74,1481.43 2188.74,1481.43 2191.27,1481.43 C2191.98,1481.43 2193.25,1481.43 2194.79,1481.38 L2191.05,1488.91 C2186.98,1497 2186.48,1497.99 2185.11,1501.4 C2183.4,1505.52 2182.52,1508.99 2182.52,1511.3 C2182.52,1513.83 2183.84,1515.37 2185.99,1515.37 C2188.63,1515.37 2189.67,1513.61 2189.62,1508.82 C2189.34,1500.9 2190.33,1497.05 2196.22,1484.18 C2197.21,1482.04 2198.25,1479.84 2199.24,1477.69 L2199.24,1476.1 C2195.94,1476.37 2194.18,1476.48 2190.77,1476.48 C2185.99,1476.48 2182.19,1476.32 2176.25,1475.88 L2174.55,1489.19 "/>
<path class="Harmony" d="M435.522,1003.3 L433.432,1003.3 L431.232,1006.55 C427.217,1003.63 425.182,1002.86 421.387,1002.86 C416.162,1002.86 411.707,1005.06 408.022,1009.46 C404.502,1013.64 402.852,1018.26 402.852,1023.93 C402.852,1035.81 410.607,1044.22 421.442,1044.22 C430.242,1044.22 435.852,1039.05 437.117,1029.81 L434.532,1029.37 C433.047,1037.57 428.867,1041.64 422.102,1041.64 C413.962,1041.64 410.112,1036.03 410.112,1024.15 C410.112,1017.88 410.937,1013.75 412.807,1010.45 C414.512,1007.37 417.867,1005.45 421.442,1005.45 C425.292,1005.45 428.702,1007.48 430.792,1011 C431.837,1012.82 432.607,1014.85 433.927,1019.2 L436.347,1019.2 L435.522,1003.3 "/>
<path class="Harmony" d="M445.778,1017.99 L448.198,1018.37 L449.188,1014.03 C450.013,1010.4 450.398,1009.85 451.993,1009.85 C452.268,1009.85 452.708,1009.85 453.203,1009.9 C459.968,1010.23 459.968,1010.23 462.498,1010.23 C463.213,1010.23 464.478,1010.23 466.018,1010.18 L462.278,1017.71 C458.208,1025.8 457.713,1026.79 456.338,1030.2 C454.633,1034.32 453.753,1037.79 453.753,1040.1 C453.753,1042.63 455.073,1044.17 457.218,1044.17 C459.858,1044.17 460.903,1042.41 460.848,1037.62 C460.573,1029.7 461.563,1025.85 467.448,1012.98 C468.438,1010.84 469.483,1008.64 470.473,1006.49 L470.473,1004.9 C467.173,1005.17 465.413,1005.28 462.003,1005.28 C457.218,1005.28 453.423,1005.12 447.483,1004.68 L445.778,1017.99 "/>
<path class="Harmony" d="M1499.69,1003.69 L1466.96,1003.69 L1466.96,1006.27 L1467.95,1006.27 C1471.09,1006.33 1472.13,1006.49 1472.57,1007.04 C1472.9,1007.54 1472.9,1007.65 1472.9,1010.45 L1472.9,1036.63 C1472.9,1039.44 1472.9,1039.55 1472.57,1040.04 C1472.13,1040.59 1471.09,1040.81 1467.95,1040.81 L1466.96,1040.81 L1466.96,1043.4 L1485.83,1043.4 L1485.83,1040.81 L1484.01,1040.81 C1480.88,1040.81 1479.83,1040.59 1479.39,1040.04 C1479.06,1039.55 1479.06,1039.38 1479.06,1036.63 L1479.06,1024.15 L1480.16,1024.15 C1485.83,1023.93 1487.86,1025.96 1488.08,1032.07 L1490.67,1032.07 L1490.67,1014.03 L1488.08,1014.03 C1487.75,1019.42 1485.61,1021.51 1480.38,1021.56 L1479.06,1021.56 L1479.06,1009.02 C1479.01,1006.71 1479.56,1006.33 1482.53,1006.27 L1485.06,1006.27 C1494.08,1006.22 1496.33,1008.25 1498.04,1017.71 L1500.46,1017.71 L1499.69,1003.69 "/>
<path class="Harmony" d="M1074.88,1003.69 L1042.15,1003.69 L1042.15,1006.27 L1043.14,1006.27 C1046.28,1006.33 1047.32,1006.49 1047.76,1007.04 C1048.09,1007.54 1048.09,1007.65 1048.09,1010.45 L1048.09,1036.63 C1048.09,1039.44 1048.09,1039.55 1047.76,1040.04 C1047.32,1040.59 1046.28,1040.81 1043.14,1040.81 L1042.15,1040.81 L1042.15,1043.4 L1061.02,1043.4 L1061.02,1040.81 L1059.2,1040.81 C1056.07,1040.81 1055.02,1040.59 1054.58,1040.04 C1054.25,1039.55 1054.25,1039.38 1054.25,1036.63 L1054.25,1024.15 L1055.35,1024.15 C1061.02,1023.93 1063.05,1025.96 1063.27,1032.07 L1065.86,1032.07 L1065.86,1014.03 L1063.27,1014.03 C1062.94,1019.42 1060.8,1021.51 1055.57,1021.56 L1054.25,1021.56 L1054.25,1009.02 C1054.2,1006.71 1054.75,1006.33 1057.72,1006.27 L1060.25,1006.27 C1069.27,1006.22 1071.52,1008.25 1073.23,1017.71 L1075.65,1017.71 L1074.88,1003.69 "/>
<path class="NoteDot" transform="matrix(0.992,0,0,0.992,1955.78,1663.4)" d="M0,0 C0,2.8 2.2,5 5,5 C7.8,5 10,2.8 10,0 C10,-2.8 7.8,-5 5,-5 C2.2,-5 0,-2.8 0,0"/>
<path class="NoteDot" transform="matrix(0.992,0,0,0.992,447.47,1217)" d="M0,0 C0,2.8 2.2,5 5,5 C7.8,5 10,2.8 10,0 C10,-2.8 7.8,-5 5,-5 C2.2,-5 0,-2.8 0,0"/>
<path class="NoteDot" transform="matrix(0.992,0,0,0.992,1289.65,720.998)" d="M0,0 C0,2.8 2.2,5 5,5 C7.8,5 10,2.8 10,0 C10,-2.8 7.8,-5 5,-5 C2.2,-5 0,-2.8 0,0"/>
<path class="NoteDot" transform="matrix(0.992,0,0,0.992,978.061,1613.8)" d="M0,0 C0,2.8 2.2,5 5,5 C7.8,5 10,2.8 10,0 C10,-2.8 7.8,-5 5,-5 C2.2,-5 0,-2.8 0,0"/>
</svg>
