<?xml version="1.0" encoding="UTF-8" standalone="no"?>
<svg width="2977.2px" height="4208.4px" viewBox="0 0 2977.2 4208.4"
 xmlns="http://www.w3.org/2000/svg" xmlns:xlink="http://www.w3.org/1999/xlink" version="1.2" baseProfile="tiny">
<title>武田薬品</title>
<desc>Generated by MuseScore Studio 4.4.2</desc>
<path class="" fill="#ffffff" fill-rule="evenodd" d="M0,0 L2977.2,0 L2977.2,4208.4 L0,4208.4 L0,0 "/>
<polyline class="StaffLines" fill="none" stroke="#000000" stroke-width="2.73" stroke-linejoin="bevel" points="212.598,634.198 2764.6,634.198"/>
<polyline class="StaffLines" fill="none" stroke="#000000" stroke-width="2.73" stroke-linejoin="bevel" points="212.598,658.998 2764.6,658.998"/>
<polyline class="StaffLines" fill="none" stroke="#000000" stroke-width="2.73" stroke-linejoin="bevel" points="212.598,683.798 2764.6,683.798"/>
<polyline class="StaffLines" fill="none" stroke="#000000" stroke-width="2.73" stroke-linejoin="bevel" points="212.598,708.598 2764.6,708.598"/>
<polyline class="StaffLines" fill="none" stroke="#000000" stroke-width="2.73" stroke-linejoin="bevel" points="212.598,733.398 2764.6,733.398"/>
<polyline class="StaffLines" fill="none" stroke="#000000" stroke-width="2.73" stroke-linejoin="bevel" points="212.598,1105.4 2764.6,1105.4"/>
<polyline class="StaffLines" fill="none" stroke="#000000" stroke-width="2.73" stroke-linejoin="bevel" points="212.598,1130.2 2764.6,1130.2"/>
<polyline class="StaffLines" fill="none" stroke="#000000" stroke-width="2.73" stroke-linejoin="bevel" points="212.598,1155 2764.6,1155"/>
<polyline class="StaffLines" fill="none" stroke="#000000" stroke-width="2.73" stroke-linejoin="bevel" points="212.598,1179.8 2764.6,1179.8"/>
<polyline class="StaffLines" fill="none" stroke="#000000" stroke-width="2.73" stroke-linejoin="bevel" points="212.598,1204.6 2764.6,1204.6"/>
<path class="Text" d="M1346.42,239.102 C1346.2,230.412 1346.09,225.352 1346.09,224.032 C1346.09,219.522 1346.31,216.442 1346.75,214.242 L1338.39,214.242 C1338.83,216.442 1339.05,219.412 1339.05,223.702 C1339.16,229.752 1339.16,234.042 1339.38,239.102 L1288.67,239.102 C1283.72,239.102 1280.2,238.882 1277.23,238.442 L1277.23,246.142 C1280.53,245.702 1284.05,245.482 1288.56,245.482 L1339.6,245.482 C1340.48,261.542 1342.02,272.872 1344.77,283.102 C1349.28,299.712 1357.64,311.482 1364.79,311.482 C1369.96,311.482 1373.04,305.322 1375.57,290.032 C1373.26,288.932 1371.72,287.832 1369.3,285.522 C1368.64,291.572 1368.2,294.542 1367.65,297.072 C1366.66,301.142 1365.45,303.122 1364.13,303.122 C1361.16,303.122 1355.99,294.872 1352.69,284.862 C1349.5,275.072 1347.41,261.762 1346.64,245.482 L1361.6,245.482 C1366.33,245.482 1369.96,245.702 1373.04,246.142 L1373.04,238.442 C1369.96,238.882 1366.77,239.102 1362.04,239.102 L1346.42,239.102 M1308.47,297.292 C1301.76,298.722 1300.77,298.942 1294.28,300.262 L1294.28,270.342 C1294.28,266.272 1294.39,263.632 1294.83,260.772 L1286.91,260.772 C1287.35,263.412 1287.57,265.942 1287.57,270.562 L1287.57,301.362 C1282.73,302.132 1278.66,302.572 1275.91,302.572 L1277.67,310.382 C1280.75,309.612 1281.63,309.392 1283.5,309.062 C1304.4,305.102 1317.38,302.022 1338.72,295.862 L1338.5,289.262 C1328.05,292.452 1323.43,293.772 1315.29,295.752 L1315.29,271.442 L1326.73,271.442 C1330.91,271.442 1333.11,271.552 1335.75,271.992 L1335.75,264.842 C1333,265.282 1331.24,265.392 1326.73,265.392 L1315.29,265.392 L1315.29,257.912 C1315.29,253.952 1315.4,251.422 1315.84,248.672 L1307.81,248.672 C1308.25,251.092 1308.47,253.402 1308.47,257.912 L1308.47,297.292 M1327.83,220.842 C1324.86,221.282 1322.77,221.392 1318.15,221.392 L1296.7,221.392 C1292.19,221.392 1289.88,221.282 1287.02,220.842 L1287.02,228.322 C1289.77,227.882 1292.63,227.772 1296.7,227.772 L1318.26,227.772 C1322.33,227.772 1324.97,227.882 1327.83,228.322 L1327.83,220.842 M1369.08,231.952 C1364.9,225.682 1362.37,222.822 1356.1,217.322 L1350.93,220.402 C1356.65,225.462 1359.51,228.982 1363.8,235.582 L1369.08,231.952 M1478.75,311.152 C1478.31,307.412 1478.09,303.452 1478.09,298.392 L1478.09,230.082 C1478.09,225.682 1478.2,222.492 1478.64,219.082 C1474.46,219.522 1470.94,219.632 1466.1,219.632 L1403.62,219.632 C1398.67,219.632 1395.15,219.522 1390.97,219.082 C1391.3,222.602 1391.52,226.012 1391.52,230.082 L1391.52,298.392 C1391.52,303.452 1391.3,307.192 1390.86,311.152 L1398.56,311.152 L1398.56,304.442 L1471.05,304.442 L1471.05,311.152 L1478.75,311.152 M1398.56,226.012 L1430.13,226.012 L1430.13,257.582 L1398.56,257.582 L1398.56,226.012 M1437.06,226.012 L1471.05,226.012 L1471.05,257.582 L1437.06,257.582 L1437.06,226.012 M1398.56,263.852 L1430.13,263.852 L1430.13,298.062 L1398.56,298.062 L1398.56,263.852 M1437.06,263.852 L1471.05,263.852 L1471.05,298.062 L1437.06,298.062 L1437.06,263.852 M1546.84,272.982 L1552.89,272.982 C1557.4,272.982 1559.6,273.092 1562.68,273.422 C1562.35,270.782 1562.24,268.472 1562.24,264.182 L1562.24,247.352 C1562.24,243.502 1562.35,241.082 1562.68,238.332 C1560.26,238.552 1558.39,238.662 1552.89,238.662 L1544.09,238.662 C1545.63,236.022 1546.62,233.932 1547.72,231.292 L1541.12,229.752 C1540.13,233.272 1539.25,235.582 1537.71,238.662 L1534.96,238.662 C1529.13,238.662 1527.92,238.662 1524.95,238.332 C1525.28,241.632 1525.39,243.392 1525.39,247.132 L1525.39,263.962 C1525.39,267.922 1525.28,270.672 1524.95,273.422 C1528.03,273.092 1530.45,272.982 1534.74,272.982 L1540.35,272.982 L1540.35,280.352 L1509.11,280.352 C1503.06,280.352 1499.98,280.132 1497.12,279.692 L1497.12,286.952 C1500.97,286.512 1504.6,286.292 1509.55,286.292 L1537.05,286.292 C1531.88,290.032 1529.02,291.792 1523.41,294.652 C1513.73,299.602 1506.8,302.022 1494.37,304.882 C1496.24,306.642 1497.56,308.512 1498.77,311.042 C1515.93,306.202 1526.49,301.032 1540.79,290.362 C1540.46,294.542 1540.24,297.402 1540.24,298.942 L1540.24,304.442 C1540.24,307.522 1540.02,310.272 1539.58,313.572 L1547.5,313.572 C1546.95,310.932 1546.84,308.732 1546.84,304.442 L1546.84,298.942 C1546.62,294.762 1546.51,291.902 1546.4,290.252 C1561.91,301.472 1571.59,305.982 1590.62,311.042 C1591.83,308.182 1592.82,306.752 1594.69,304.552 C1576.54,301.032 1563.34,295.642 1550.25,286.292 L1579.95,286.292 C1585.12,286.292 1588.75,286.512 1592.49,286.952 L1592.49,279.692 C1589.52,280.132 1586.33,280.352 1580.17,280.352 L1546.84,280.352 L1546.84,272.982 M1531.44,252.962 L1531.44,243.832 L1556.19,243.832 L1556.19,252.962 L1531.44,252.962 M1531.44,258.132 L1556.19,258.132 L1556.19,267.812 L1531.44,267.812 L1531.44,258.132 M1524.18,221.502 L1509,221.502 C1503.61,221.502 1499.87,221.282 1496.68,220.842 L1496.68,227.992 C1500.2,227.552 1503.5,227.442 1508.89,227.442 L1524.18,227.442 L1524.18,228.322 C1524.18,230.962 1524.07,232.392 1523.74,235.032 L1531.22,235.032 C1530.89,233.052 1530.89,231.842 1530.89,228.322 L1530.89,227.442 L1556.85,227.442 L1556.85,228.322 C1556.85,231.842 1556.85,232.942 1556.52,235.142 L1564,235.142 C1563.67,232.722 1563.56,231.072 1563.56,228.322 L1563.56,227.442 L1581.49,227.442 C1586.99,227.442 1590.29,227.552 1593.81,227.992 L1593.81,220.842 C1590.62,221.282 1586.88,221.502 1581.38,221.502 L1563.56,221.502 L1563.56,219.742 C1563.56,217.432 1563.67,215.232 1564.11,212.592 L1556.41,212.592 C1556.74,214.902 1556.85,216.772 1556.85,219.632 L1556.85,221.502 L1530.89,221.502 L1530.89,219.632 C1530.89,216.662 1531,215.012 1531.33,212.592 L1523.63,212.592 C1524.07,215.452 1524.18,217.322 1524.18,219.742 L1524.18,221.502 M1497.89,238.882 C1504.93,243.062 1509.77,246.912 1513.95,251.642 L1518.9,246.912 C1513.18,241.742 1508.56,238.332 1502.29,234.482 L1497.89,238.882 M1520.55,255.272 C1511.86,261.542 1502.95,266.052 1495.8,267.812 L1498.99,274.412 C1500.53,273.532 1500.53,273.532 1506.69,270.452 C1511.53,268.032 1516.15,265.282 1522.64,260.882 L1520.55,255.272 M1583.69,234.482 C1578.52,239.652 1574.67,242.622 1566.53,247.352 L1570.38,251.752 C1576.65,248.342 1581.05,245.372 1588.86,239.212 L1583.69,234.482 M1565.1,259.782 C1575.55,264.952 1580.5,268.032 1588.42,274.412 L1592.16,269.022 C1584.35,263.412 1578.3,259.892 1569.17,255.272 L1565.1,259.782 M1624.83,244.162 C1624.83,247.902 1624.72,250.762 1624.39,253.732 C1627.36,253.402 1630.77,253.292 1636.05,253.292 L1673.56,253.292 C1678.95,253.292 1682.03,253.402 1685.11,253.732 C1684.78,251.092 1684.67,248.232 1684.67,244.052 L1684.67,225.462 C1684.67,221.502 1684.78,219.192 1685.11,216.332 C1682.14,216.772 1679.06,216.882 1672.68,216.882 L1636.71,216.882 C1630.88,216.882 1627.8,216.772 1624.39,216.332 C1624.72,219.192 1624.83,221.832 1624.83,225.572 L1624.83,244.162 M1631.76,223.152 L1677.63,223.152 L1677.63,247.022 L1631.76,247.022 L1631.76,223.152 M1608.99,301.472 C1608.99,307.082 1608.88,310.052 1608.44,312.912 L1615.81,312.912 L1615.81,305.982 L1641.33,305.982 L1641.33,310.822 L1648.48,310.822 C1648.15,308.182 1648.04,305.432 1648.04,300.042 L1648.04,274.632 C1648.04,268.472 1648.15,266.602 1648.37,264.292 C1645.51,264.512 1642.98,264.622 1639.46,264.622 L1618.67,264.622 C1614.38,264.622 1611.74,264.512 1608.55,264.182 C1608.88,267.482 1608.99,270.562 1608.99,274.852 L1608.99,301.472 M1615.81,270.782 L1641.33,270.782 L1641.33,299.822 L1615.81,299.822 L1615.81,270.782 M1658.93,302.132 C1658.93,307.192 1658.82,310.052 1658.49,312.912 L1665.64,312.912 L1665.64,305.982 L1693.8,305.982 L1693.8,312.912 L1701.28,312.912 C1700.84,310.162 1700.73,307.412 1700.73,301.472 L1700.73,274.962 C1700.73,270.342 1700.84,267.042 1701.17,264.182 C1698.53,264.512 1695.89,264.622 1691.71,264.622 L1667.51,264.622 C1663.77,264.622 1661.35,264.512 1658.6,264.292 C1658.93,266.932 1658.93,268.582 1658.93,273.752 L1658.93,302.132 M1665.64,270.782 L1693.91,270.782 L1693.91,299.822 L1665.64,299.822 L1665.64,270.782 "/>
<path class="MeasureNumber" d="M226.277,1041.24 C228.157,1040.64 228.917,1040.32 229.877,1039.68 C231.757,1038.44 232.917,1036.24 232.917,1034 C232.917,1030.2 229.877,1027.64 225.397,1027.64 C221.037,1027.64 217.357,1030.36 217.357,1033.64 C217.357,1035.28 218.357,1036.4 219.877,1036.4 C221.197,1036.4 222.157,1035.44 222.157,1034.12 C222.157,1033.44 221.957,1032.96 221.317,1032.32 C220.917,1031.96 220.757,1031.68 220.757,1031.4 C220.757,1030.44 222.757,1029.44 224.637,1029.44 C227.317,1029.44 228.917,1030.92 228.917,1033.4 C228.917,1036.96 226.397,1040.32 223.717,1040.32 C223.597,1040.32 223.237,1040.28 222.797,1040.24 C221.637,1040.16 221.637,1040.16 221.397,1040.16 C220.517,1040.16 220.037,1040.56 220.037,1041.28 C220.037,1041.92 220.477,1042.32 221.197,1042.32 C221.397,1042.32 221.677,1042.28 221.997,1042.24 C222.557,1042.12 223.157,1042.08 223.517,1042.08 C225.397,1042.08 226.677,1043.76 226.677,1046.24 C226.677,1050.56 224.557,1054.72 219.717,1054.72 C217.477,1054.72 215.557,1053.6 215.557,1052.32 C215.557,1051.88 215.717,1051.72 216.357,1051.44 C217.517,1050.92 217.997,1050.2 217.997,1049.12 C217.997,1047.72 216.877,1046.64 215.437,1046.64 C213.717,1046.64 212.597,1048 212.597,1050.08 C212.597,1053.96 215.557,1056.4 220.357,1056.4 C226.397,1056.4 230.997,1052.36 230.997,1047 C230.997,1043.88 229.077,1042.12 226.277,1041.24"/>
<path class="TieSegment" stroke="#000000" stroke-width="1.74" stroke-linecap="round" stroke-linejoin="round" fill-rule="evenodd" d="M2419.38,714.295 C2438.24,726.723 2494.82,726.723 2513.68,714.295 C2494.82,733.471 2438.24,733.471 2419.38,714.295"/>
<path class="TieSegment" stroke="#000000" stroke-width="1.74" stroke-linecap="round" stroke-linejoin="round" fill-rule="evenodd" d="M1300.67,739.095 C1319.53,755.615 1376.1,755.615 1394.96,739.095 C1376.1,762.363 1319.53,762.363 1300.67,739.095"/>
<polyline class="BarLine" fill="none" stroke="#000000" stroke-width="4.46" stroke-linejoin="bevel" points="1573.18,632.834 1573.18,734.762"/>
<polyline class="BarLine" fill="none" stroke="#000000" stroke-width="4.46" stroke-linejoin="bevel" points="2740.42,1104.03 2740.42,1205.96"/>
<polyline class="BarLine" fill="none" stroke="#000000" stroke-width="13.64" stroke-linejoin="bevel" points="2757.78,1104.03 2757.78,1205.96"/>
<polyline class="BarLine" fill="none" stroke="#000000" stroke-width="4.46" stroke-linejoin="bevel" points="1811.6,1104.03 1811.6,1205.96"/>
<polyline class="BarLine" fill="none" stroke="#000000" stroke-width="4.46" stroke-linejoin="bevel" points="2691.89,632.834 2691.89,734.762"/>
<polyline class="Stem" fill="none" stroke="#000000" stroke-width="2.73" stroke-linejoin="bevel" points="2035.52,704.63 2035.52,634.198"/>
<polyline class="Stem" fill="none" stroke="#000000" stroke-width="2.73" stroke-linejoin="bevel" points="1638.51,692.23 1638.51,627.998"/>
<polyline class="Stem" fill="none" stroke="#000000" stroke-width="2.73" stroke-linejoin="bevel" points="713.888,1175.83 713.888,1086.8"/>
<polyline class="Stem" fill="none" stroke="#000000" stroke-width="2.73" stroke-linejoin="bevel" points="817.553,717.03 817.553,652.882"/>
<polyline class="Stem" fill="none" stroke="#000000" stroke-width="2.73" stroke-linejoin="bevel" points="907.983,1175.83 907.983,1086.8"/>
<polyline class="Stem" fill="none" stroke="#000000" stroke-width="2.73" stroke-linejoin="bevel" points="519.793,1175.83 519.793,1086.8"/>
<polyline class="Stem" fill="none" stroke="#000000" stroke-width="2.73" stroke-linejoin="bevel" points="519.793,717.03 519.793,640.398"/>
<polyline class="Stem" fill="none" stroke="#000000" stroke-width="2.73" stroke-linejoin="bevel" points="916.806,729.43 916.806,658.998"/>
<polyline class="Stem" fill="none" stroke="#000000" stroke-width="2.73" stroke-linejoin="bevel" points="1072.58,1146.76 1072.58,1235.6"/>
<polyline class="Stem" fill="none" stroke="#000000" stroke-width="2.73" stroke-linejoin="bevel" points="1016.06,741.83 1016.06,665.114"/>
<polyline class="Stem" fill="none" stroke="#000000" stroke-width="2.73" stroke-linejoin="bevel" points="2531.79,692.23 2531.79,615.598"/>
<polyline class="Stem" fill="none" stroke="#000000" stroke-width="2.73" stroke-linejoin="bevel" points="1115.31,717.03 1115.31,640.398"/>
<polyline class="Stem" fill="none" stroke="#000000" stroke-width="2.73" stroke-linejoin="bevel" points="2432.54,692.23 2432.54,627.998"/>
<polyline class="Stem" fill="none" stroke="#000000" stroke-width="2.73" stroke-linejoin="bevel" points="2333.28,692.23 2333.28,627.998"/>
<polyline class="Stem" fill="none" stroke="#000000" stroke-width="2.73" stroke-linejoin="bevel" points="718.3,717.03 718.3,640.398"/>
<polyline class="Stem" fill="none" stroke="#000000" stroke-width="2.73" stroke-linejoin="bevel" points="1214.57,717.03 1214.57,640.398"/>
<polyline class="Stem" fill="none" stroke="#000000" stroke-width="2.73" stroke-linejoin="bevel" points="2234.03,692.23 2234.03,627.998"/>
<polyline class="Stem" fill="none" stroke="#000000" stroke-width="2.73" stroke-linejoin="bevel" points="1313.82,717.03 1313.82,640.398"/>
<polyline class="Stem" fill="none" stroke="#000000" stroke-width="2.73" stroke-linejoin="bevel" points="2134.78,717.03 2134.78,640.314"/>
<polyline class="Stem" fill="none" stroke="#000000" stroke-width="2.73" stroke-linejoin="bevel" points="1413.07,717.03 1413.07,634.198"/>
<polyline class="Stem" fill="none" stroke="#000000" stroke-width="2.73" stroke-linejoin="bevel" points="1441.66,1146.76 1441.66,1235.6"/>
<polyline class="Stem" fill="none" stroke="#000000" stroke-width="2.73" stroke-linejoin="bevel" points="1936.27,692.23 1936.27,628.082"/>
<polyline class="Stem" fill="none" stroke="#000000" stroke-width="2.73" stroke-linejoin="bevel" points="1837.01,692.23 1837.01,627.998"/>
<polyline class="Stem" fill="none" stroke="#000000" stroke-width="2.73" stroke-linejoin="bevel" points="619.046,717.03 619.046,640.398"/>
<polyline class="Stem" fill="none" stroke="#000000" stroke-width="2.73" stroke-linejoin="bevel" points="1737.76,692.23 1737.76,627.998"/>
<path class="Note" transform="matrix(0.992,0,0,0.992,683.028,1155)" d="M0,4.2 C0,8.5 3.1,13.3 11.2,13.3 C21.6,13.3 32.5,4.8 32.5,-4 C32.5,-9.9 27.5,-13.2 21.3,-13.2 C11.6,-13.2 0,-5 0,4.2"/>
<path class="Note" transform="matrix(0.992,0,0,0.992,1905.39,1130.2)" d="M18.7,-13.6 C4.9,-13.6 0,-6.6 0,-0.1 C0,6.4 4.9,13.4 18.7,13.4 C32.5,13.4 37.3,6.4 37.3,-0.1 C37.3,-6.6 32.5,-13.6 18.7,-13.6 M19.5,10.2 C16.7,10.2 14.8,9.4 13.5,6.9 C12.2,4.4 10.4,-2.1 10.3,-4.7 C10.1,-7.4 11.1,-9 13.5,-9.8 C14.7,-10.2 16.3,-10.4 17.9,-10.4 C20.6,-10.4 22.4,-9.8 23.8,-7.1 C25.2,-4.5 27.1,2 27.1,4.5 C27.1,9.4 23.5,10.2 19.5,10.2"/>
<path class="Note" transform="matrix(0.992,0,0,0.992,1440.29,1142.6)" d="M0,4.2 C0,8.5 3.1,13.3 11.2,13.3 C21.6,13.3 32.5,4.8 32.5,-4 C32.5,-9.9 27.5,-13.2 21.3,-13.2 C11.6,-13.2 0,-5 0,4.2"/>
<path class="Note" transform="matrix(0.992,0,0,0.992,1607.65,696.198)" d="M0,4.2 C0,8.5 3.1,13.3 11.2,13.3 C21.6,13.3 32.5,4.8 32.5,-4 C32.5,-9.9 27.5,-13.2 21.3,-13.2 C11.6,-13.2 0,-5 0,4.2"/>
<path class="Note" transform="matrix(0.992,0,0,0.992,1706.9,696.198)" d="M0,4.2 C0,8.5 3.1,13.3 11.2,13.3 C21.6,13.3 32.5,4.8 32.5,-4 C32.5,-9.9 27.5,-13.2 21.3,-13.2 C11.6,-13.2 0,-5 0,4.2"/>
<path class="Note" transform="matrix(0.992,0,0,0.992,687.439,720.998)" d="M0,4.2 C0,8.5 3.1,13.3 11.2,13.3 C21.6,13.3 32.5,4.8 32.5,-4 C32.5,-9.9 27.5,-13.2 21.3,-13.2 C11.6,-13.2 0,-5 0,4.2"/>
<path class="Note" transform="matrix(0.992,0,0,0.992,1806.15,696.198)" d="M0,4.2 C0,8.5 3.1,13.3 11.2,13.3 C21.6,13.3 32.5,4.8 32.5,-4 C32.5,-9.9 27.5,-13.2 21.3,-13.2 C11.6,-13.2 0,-5 0,4.2"/>
<path class="Note" transform="matrix(0.992,0,0,0.992,588.186,720.998)" d="M0,4.2 C0,8.5 3.1,13.3 11.2,13.3 C21.6,13.3 32.5,4.8 32.5,-4 C32.5,-9.9 27.5,-13.2 21.3,-13.2 C11.6,-13.2 0,-5 0,4.2"/>
<path class="Note" transform="matrix(0.992,0,0,0.992,1905.41,696.198)" d="M0,4.2 C0,8.5 3.1,13.3 11.2,13.3 C21.6,13.3 32.5,4.8 32.5,-4 C32.5,-9.9 27.5,-13.2 21.3,-13.2 C11.6,-13.2 0,-5 0,4.2"/>
<path class="Note" transform="matrix(0.992,0,0,0.992,1440.29,1167.4)" d="M0,4.2 C0,8.5 3.1,13.3 11.2,13.3 C21.6,13.3 32.5,4.8 32.5,-4 C32.5,-9.9 27.5,-13.2 21.3,-13.2 C11.6,-13.2 0,-5 0,4.2"/>
<path class="Note" transform="matrix(0.992,0,0,0.992,1382.21,720.998)" d="M0,4.2 C0,8.5 3.1,13.3 11.2,13.3 C21.6,13.3 32.5,4.8 32.5,-4 C32.5,-9.9 27.5,-13.2 21.3,-13.2 C11.6,-13.2 0,-5 0,4.2"/>
<path class="Note" transform="matrix(0.992,0,0,0.992,1071.22,1142.6)" d="M0,4.2 C0,8.5 3.1,13.3 11.2,13.3 C21.6,13.3 32.5,4.8 32.5,-4 C32.5,-9.9 27.5,-13.2 21.3,-13.2 C11.6,-13.2 0,-5 0,4.2"/>
<path class="Note" transform="matrix(0.992,0,0,0.992,2004.66,708.598)" d="M0,4.2 C0,8.5 3.1,13.3 11.2,13.3 C21.6,13.3 32.5,4.8 32.5,-4 C32.5,-9.9 27.5,-13.2 21.3,-13.2 C11.6,-13.2 0,-5 0,4.2"/>
<path class="Note" transform="matrix(0.992,0,0,0.992,1282.96,720.998)" d="M0,4.2 C0,8.5 3.1,13.3 11.2,13.3 C21.6,13.3 32.5,4.8 32.5,-4 C32.5,-9.9 27.5,-13.2 21.3,-13.2 C11.6,-13.2 0,-5 0,4.2"/>
<path class="Note" transform="matrix(0.992,0,0,0.992,2103.91,720.998)" d="M0,4.2 C0,8.5 3.1,13.3 11.2,13.3 C21.6,13.3 32.5,4.8 32.5,-4 C32.5,-9.9 27.5,-13.2 21.3,-13.2 C11.6,-13.2 0,-5 0,4.2"/>
<path class="Note" transform="matrix(0.992,0,0,0.992,1183.71,720.998)" d="M0,4.2 C0,8.5 3.1,13.3 11.2,13.3 C21.6,13.3 32.5,4.8 32.5,-4 C32.5,-9.9 27.5,-13.2 21.3,-13.2 C11.6,-13.2 0,-5 0,4.2"/>
<path class="Note" transform="matrix(0.992,0,0,0.992,2203.17,696.198)" d="M0,4.2 C0,8.5 3.1,13.3 11.2,13.3 C21.6,13.3 32.5,4.8 32.5,-4 C32.5,-9.9 27.5,-13.2 21.3,-13.2 C11.6,-13.2 0,-5 0,4.2"/>
<path class="Note" transform="matrix(0.992,0,0,0.992,786.693,720.998)" d="M0,4.2 C0,8.5 3.1,13.3 11.2,13.3 C21.6,13.3 32.5,4.8 32.5,-4 C32.5,-9.9 27.5,-13.2 21.3,-13.2 C11.6,-13.2 0,-5 0,4.2"/>
<path class="Note" transform="matrix(0.992,0,0,0.992,1071.22,1167.4)" d="M0,4.2 C0,8.5 3.1,13.3 11.2,13.3 C21.6,13.3 32.5,4.8 32.5,-4 C32.5,-9.9 27.5,-13.2 21.3,-13.2 C11.6,-13.2 0,-5 0,4.2"/>
<path class="Note" transform="matrix(0.992,0,0,0.992,1905.39,1192.2)" d="M18.7,-13.6 C4.9,-13.6 0,-6.6 0,-0.1 C0,6.4 4.9,13.4 18.7,13.4 C32.5,13.4 37.3,6.4 37.3,-0.1 C37.3,-6.6 32.5,-13.6 18.7,-13.6 M19.5,10.2 C16.7,10.2 14.8,9.4 13.5,6.9 C12.2,4.4 10.4,-2.1 10.3,-4.7 C10.1,-7.4 11.1,-9 13.5,-9.8 C14.7,-10.2 16.3,-10.4 17.9,-10.4 C20.6,-10.4 22.4,-9.8 23.8,-7.1 C25.2,-4.5 27.1,2 27.1,4.5 C27.1,9.4 23.5,10.2 19.5,10.2"/>
<path class="Note" transform="matrix(0.992,0,0,0.992,2302.42,696.198)" d="M0,4.2 C0,8.5 3.1,13.3 11.2,13.3 C21.6,13.3 32.5,4.8 32.5,-4 C32.5,-9.9 27.5,-13.2 21.3,-13.2 C11.6,-13.2 0,-5 0,4.2"/>
<path class="Note" transform="matrix(0.992,0,0,0.992,1084.45,720.998)" d="M0,4.2 C0,8.5 3.1,13.3 11.2,13.3 C21.6,13.3 32.5,4.8 32.5,-4 C32.5,-9.9 27.5,-13.2 21.3,-13.2 C11.6,-13.2 0,-5 0,4.2"/>
<path class="Note" transform="matrix(0.992,0,0,0.992,2401.67,696.198)" d="M0,4.2 C0,8.5 3.1,13.3 11.2,13.3 C21.6,13.3 32.5,4.8 32.5,-4 C32.5,-9.9 27.5,-13.2 21.3,-13.2 C11.6,-13.2 0,-5 0,4.2"/>
<path class="Note" transform="matrix(0.992,0,0,0.992,985.199,745.798)" d="M0,4.2 C0,8.5 3.1,13.3 11.2,13.3 C21.6,13.3 32.5,4.8 32.5,-4 C32.5,-9.9 27.5,-13.2 21.3,-13.2 C11.6,-13.2 0,-5 0,4.2"/>
<path class="Note" transform="matrix(0.992,0,0,0.992,2500.93,696.198)" d="M0,4.2 C0,8.5 3.1,13.3 11.2,13.3 C21.6,13.3 32.5,4.8 32.5,-4 C32.5,-9.9 27.5,-13.2 21.3,-13.2 C11.6,-13.2 0,-5 0,4.2"/>
<path class="Note" transform="matrix(0.992,0,0,0.992,885.946,733.398)" d="M0,4.2 C0,8.5 3.1,13.3 11.2,13.3 C21.6,13.3 32.5,4.8 32.5,-4 C32.5,-9.9 27.5,-13.2 21.3,-13.2 C11.6,-13.2 0,-5 0,4.2"/>
<path class="Note" transform="matrix(0.992,0,0,0.992,877.123,1179.8)" d="M0,4.2 C0,8.5 3.1,13.3 11.2,13.3 C21.6,13.3 32.5,4.8 32.5,-4 C32.5,-9.9 27.5,-13.2 21.3,-13.2 C11.6,-13.2 0,-5 0,4.2"/>
<path class="Note" transform="matrix(0.992,0,0,0.992,877.123,1155)" d="M0,4.2 C0,8.5 3.1,13.3 11.2,13.3 C21.6,13.3 32.5,4.8 32.5,-4 C32.5,-9.9 27.5,-13.2 21.3,-13.2 C11.6,-13.2 0,-5 0,4.2"/>
<path class="Note" transform="matrix(0.992,0,0,0.992,488.932,720.998)" d="M0,4.2 C0,8.5 3.1,13.3 11.2,13.3 C21.6,13.3 32.5,4.8 32.5,-4 C32.5,-9.9 27.5,-13.2 21.3,-13.2 C11.6,-13.2 0,-5 0,4.2"/>
<path class="Note" transform="matrix(0.992,0,0,0.992,1905.39,1167.4)" d="M18.7,-13.6 C4.9,-13.6 0,-6.6 0,-0.1 C0,6.4 4.9,13.4 18.7,13.4 C32.5,13.4 37.3,6.4 37.3,-0.1 C37.3,-6.6 32.5,-13.6 18.7,-13.6 M19.5,10.2 C16.7,10.2 14.8,9.4 13.5,6.9 C12.2,4.4 10.4,-2.1 10.3,-4.7 C10.1,-7.4 11.1,-9 13.5,-9.8 C14.7,-10.2 16.3,-10.4 17.9,-10.4 C20.6,-10.4 22.4,-9.8 23.8,-7.1 C25.2,-4.5 27.1,2 27.1,4.5 C27.1,9.4 23.5,10.2 19.5,10.2"/>
<path class="Note" transform="matrix(0.992,0,0,0.992,488.932,1155)" d="M0,4.2 C0,8.5 3.1,13.3 11.2,13.3 C21.6,13.3 32.5,4.8 32.5,-4 C32.5,-9.9 27.5,-13.2 21.3,-13.2 C11.6,-13.2 0,-5 0,4.2"/>
<path class="Note" transform="matrix(0.992,0,0,0.992,488.932,1179.8)" d="M0,4.2 C0,8.5 3.1,13.3 11.2,13.3 C21.6,13.3 32.5,4.8 32.5,-4 C32.5,-9.9 27.5,-13.2 21.3,-13.2 C11.6,-13.2 0,-5 0,4.2"/>
<path class="Note" transform="matrix(0.992,0,0,0.992,683.028,1179.8)" d="M0,4.2 C0,8.5 3.1,13.3 11.2,13.3 C21.6,13.3 32.5,4.8 32.5,-4 C32.5,-9.9 27.5,-13.2 21.3,-13.2 C11.6,-13.2 0,-5 0,4.2"/>
<path class="Clef" transform="matrix(0.992,0,0,0.992,232.438,1179.8)" d="M12.3,51.3 C12.3,57.9 17.3,66.6 30.8,66.6 C35.5,66.6 39.6,65.4 43.2,63.2 C48.6,59.4 50,52.8 50,46.5 C50,42.6 49.4,38.1 48.4,32.4 C48.1,30.4 47.5,27.4 46.9,23.5 C56.7,20.3 64,10.1 64,-0.2 C64,-15.3 53.3,-25.5 38.7,-25.5 C37.7,-31.5 36.7,-37.4 35.9,-43 C46.4,-54.1 53.7,-66.6 53.7,-82.5 C53.7,-91.6 50.9,-99 49.3,-102.6 C46.9,-107.7 44,-111.2 42.2,-111.2 C41.5,-111.2 38.4,-110 35.1,-106.1 C28.7,-98.5 26.9,-85.7 26.9,-77.3 C26.9,-71.9 27.4,-67 29.1,-55.8 C29,-55.7 23.8,-50.4 21.7,-48.7 C12.6,-40.3 0,-28.1 0,-8.1 C0,10.6 16.3,25.3 34.9,25.3 C37.8,25.3 40.5,25 42.8,24.6 C44.7,34.2 45.9,41.2 45.9,46.5 C45.9,56.9 40.5,62.4 30.4,62.4 C28,62.4 25.9,61.9 25.7,61.9 C25.6,61.8 25.4,61.7 25.4,61.6 C25.4,61.4 25.6,61.3 25.9,61.3 C30.6,60.5 35.3,56.5 35.3,50.1 C35.3,44.7 31.2,39 23.7,39 C16.7,39 12.3,44.7 12.3,51.3 M33.2,-82.2 C34.1,-86.2 38.7,-96.7 43.9,-96.7 C45.4,-96.7 47.8,-91.9 47.8,-84.9 C47.8,-74.5 40.1,-66.7 33.2,-59.9 C32.6,-63.9 32.1,-67.8 32.1,-72 C32.1,-75.7 32.4,-79.1 33.2,-82.2 M42,20.6 C40,21 38.1,21.2 36.2,21.2 C21.9,21.2 9.7,11.2 9.7,-3.9 C9.7,-16.1 18.3,-27 27.1,-34.6 C28.8,-36.1 30.4,-37.5 31.9,-39 C32.8,-33.6 33.5,-28.9 34.2,-24.8 C25.1,-22.1 18.9,-12.5 18.9,-3.1 C18.9,3.9 24.4,13.5 32.4,13.5 C33.2,13.5 34.1,13.1 34.1,12.2 C34.1,11.3 33.1,10.8 31.9,10 C28,7.6 25.8,5 25.8,0.1 C25.8,-6 30.4,-10.9 36.2,-12.3 L42,20.6 M56.2,2.1 C56.2,9.2 53.3,16.5 46.2,19.4 C44.1,7.4 41.4,-8.5 40.7,-12.9 C49.7,-12.9 56.2,-6.8 56.2,2.1"/>
<path class="Clef" transform="matrix(0.992,0,0,0.992,232.438,708.598)" d="M12.3,51.3 C12.3,57.9 17.3,66.6 30.8,66.6 C35.5,66.6 39.6,65.4 43.2,63.2 C48.6,59.4 50,52.8 50,46.5 C50,42.6 49.4,38.1 48.4,32.4 C48.1,30.4 47.5,27.4 46.9,23.5 C56.7,20.3 64,10.1 64,-0.2 C64,-15.3 53.3,-25.5 38.7,-25.5 C37.7,-31.5 36.7,-37.4 35.9,-43 C46.4,-54.1 53.7,-66.6 53.7,-82.5 C53.7,-91.6 50.9,-99 49.3,-102.6 C46.9,-107.7 44,-111.2 42.2,-111.2 C41.5,-111.2 38.4,-110 35.1,-106.1 C28.7,-98.5 26.9,-85.7 26.9,-77.3 C26.9,-71.9 27.4,-67 29.1,-55.8 C29,-55.7 23.8,-50.4 21.7,-48.7 C12.6,-40.3 0,-28.1 0,-8.1 C0,10.6 16.3,25.3 34.9,25.3 C37.8,25.3 40.5,25 42.8,24.6 C44.7,34.2 45.9,41.2 45.9,46.5 C45.9,56.9 40.5,62.4 30.4,62.4 C28,62.4 25.9,61.9 25.7,61.9 C25.6,61.8 25.4,61.7 25.4,61.6 C25.4,61.4 25.6,61.3 25.9,61.3 C30.6,60.5 35.3,56.5 35.3,50.1 C35.3,44.7 31.2,39 23.7,39 C16.7,39 12.3,44.7 12.3,51.3 M33.2,-82.2 C34.1,-86.2 38.7,-96.7 43.9,-96.7 C45.4,-96.7 47.8,-91.9 47.8,-84.9 C47.8,-74.5 40.1,-66.7 33.2,-59.9 C32.6,-63.9 32.1,-67.8 32.1,-72 C32.1,-75.7 32.4,-79.1 33.2,-82.2 M42,20.6 C40,21 38.1,21.2 36.2,21.2 C21.9,21.2 9.7,11.2 9.7,-3.9 C9.7,-16.1 18.3,-27 27.1,-34.6 C28.8,-36.1 30.4,-37.5 31.9,-39 C32.8,-33.6 33.5,-28.9 34.2,-24.8 C25.1,-22.1 18.9,-12.5 18.9,-3.1 C18.9,3.9 24.4,13.5 32.4,13.5 C33.2,13.5 34.1,13.1 34.1,12.2 C34.1,11.3 33.1,10.8 31.9,10 C28,7.6 25.8,5 25.8,0.1 C25.8,-6 30.4,-10.9 36.2,-12.3 L42,20.6 M56.2,2.1 C56.2,9.2 53.3,16.5 46.2,19.4 C44.1,7.4 41.4,-8.5 40.7,-12.9 C49.7,-12.9 56.2,-6.8 56.2,2.1"/>
<path class="KeySig" transform="matrix(0.992,0,0,0.992,320.711,1105.4)" d="M23.3,-10.5 C23.9,-10.6 24.4,-11.3 24.4,-11.9 L24.4,-17.8 C24.4,-18.8 23.7,-19.2 22.8,-19.2 L19.5,-18.5 L19.5,-33.4 L16.7,-33.4 L16.7,-17.9 L7.8,-16.1 L7.8,-30.2 L5,-30.2 L5,-15.5 L1.1,-14.7 C0.5,-14.6 0,-13.9 0,-13.3 L0,-7.5 C0,-6.4 0.8,-6.1 1.7,-6.1 L5,-6.8 L5,9.7 L1.1,10.5 C0.5,10.6 0,11.3 0,11.9 L0,17.7 C0,18.8 0.8,19.1 1.7,19.1 L5,18.4 L5,33.3 L7.8,33.3 L7.8,17.8 L16.7,16 L16.7,30.1 L19.5,30.1 L19.5,15.4 L23.3,14.7 C23.9,14.6 24.4,13.9 24.4,13.3 L24.4,7.4 C24.4,6.4 23.7,6 22.8,6 L19.5,6.7 L19.5,-9.8 L23.3,-10.5 M7.8,-7.4 L16.7,-9.2 L16.7,7.3 L7.8,9.2 L7.8,-7.4 "/>
<path class="KeySig" transform="matrix(0.992,0,0,0.992,347.882,1142.6)" d="M23.3,-10.5 C23.9,-10.6 24.4,-11.3 24.4,-11.9 L24.4,-17.8 C24.4,-18.8 23.7,-19.2 22.8,-19.2 L19.5,-18.5 L19.5,-33.4 L16.7,-33.4 L16.7,-17.9 L7.8,-16.1 L7.8,-30.2 L5,-30.2 L5,-15.5 L1.1,-14.7 C0.5,-14.6 0,-13.9 0,-13.3 L0,-7.5 C0,-6.4 0.8,-6.1 1.7,-6.1 L5,-6.8 L5,9.7 L1.1,10.5 C0.5,10.6 0,11.3 0,11.9 L0,17.7 C0,18.8 0.8,19.1 1.7,19.1 L5,18.4 L5,33.3 L7.8,33.3 L7.8,17.8 L16.7,16 L16.7,30.1 L19.5,30.1 L19.5,15.4 L23.3,14.7 C23.9,14.6 24.4,13.9 24.4,13.3 L24.4,7.4 C24.4,6.4 23.7,6 22.8,6 L19.5,6.7 L19.5,-9.8 L23.3,-10.5 M7.8,-7.4 L16.7,-9.2 L16.7,7.3 L7.8,9.2 L7.8,-7.4 "/>
<path class="KeySig" transform="matrix(0.992,0,0,0.992,320.711,634.198)" d="M23.3,-10.5 C23.9,-10.6 24.4,-11.3 24.4,-11.9 L24.4,-17.8 C24.4,-18.8 23.7,-19.2 22.8,-19.2 L19.5,-18.5 L19.5,-33.4 L16.7,-33.4 L16.7,-17.9 L7.8,-16.1 L7.8,-30.2 L5,-30.2 L5,-15.5 L1.1,-14.7 C0.5,-14.6 0,-13.9 0,-13.3 L0,-7.5 C0,-6.4 0.8,-6.1 1.7,-6.1 L5,-6.8 L5,9.7 L1.1,10.5 C0.5,10.6 0,11.3 0,11.9 L0,17.7 C0,18.8 0.8,19.1 1.7,19.1 L5,18.4 L5,33.3 L7.8,33.3 L7.8,17.8 L16.7,16 L16.7,30.1 L19.5,30.1 L19.5,15.4 L23.3,14.7 C23.9,14.6 24.4,13.9 24.4,13.3 L24.4,7.4 C24.4,6.4 23.7,6 22.8,6 L19.5,6.7 L19.5,-9.8 L23.3,-10.5 M7.8,-7.4 L16.7,-9.2 L16.7,7.3 L7.8,9.2 L7.8,-7.4 "/>
<path class="KeySig" transform="matrix(0.992,0,0,0.992,347.882,671.398)" d="M23.3,-10.5 C23.9,-10.6 24.4,-11.3 24.4,-11.9 L24.4,-17.8 C24.4,-18.8 23.7,-19.2 22.8,-19.2 L19.5,-18.5 L19.5,-33.4 L16.7,-33.4 L16.7,-17.9 L7.8,-16.1 L7.8,-30.2 L5,-30.2 L5,-15.5 L1.1,-14.7 C0.5,-14.6 0,-13.9 0,-13.3 L0,-7.5 C0,-6.4 0.8,-6.1 1.7,-6.1 L5,-6.8 L5,9.7 L1.1,10.5 C0.5,10.6 0,11.3 0,11.9 L0,17.7 C0,18.8 0.8,19.1 1.7,19.1 L5,18.4 L5,33.3 L7.8,33.3 L7.8,17.8 L16.7,16 L16.7,30.1 L19.5,30.1 L19.5,15.4 L23.3,14.7 C23.9,14.6 24.4,13.9 24.4,13.3 L24.4,7.4 C24.4,6.4 23.7,6 22.8,6 L19.5,6.7 L19.5,-9.8 L23.3,-10.5 M7.8,-7.4 L16.7,-9.2 L16.7,7.3 L7.8,9.2 L7.8,-7.4 "/>
<path class="TimeSig" transform="matrix(0.992,0,0,0.992,399.404,1130.69)" d="M27.2,-1.6 C32.2,-3.5 35.7,-6.7 35.7,-12.2 C35.7,-13.1 35.4,-24.4 18.2,-24.4 C1,-24.4 1.5,-12.2 1.5,-12.2 L1.6,-12.2 L1.5,-12 C1.5,-8.4 4.4,-5.6 8,-5.6 C11.6,-5.6 14.4,-8.4 14.4,-12 C14.4,-14.9 12.2,-17.7 9.4,-18.3 C9.5,-18.4 9.6,-18.5 9.7,-18.6 C11.1,-19.6 13,-20.1 14.9,-20.1 C19.1,-20.1 23.6,-17.6 23.6,-12.2 C23.6,-5.9 18.9,-5 17.7,-4.8 C16.5,-4.6 10.9,-4.2 9.7,-4.2 C8.5,-4.2 8.4,-2.8 8.4,-2.8 L8.4,-0.8 C8.4,-0.8 8.6,0.3 9.7,0.4 C11.4,0.5 13.7,0.5 16.9,1 C21.3,1.6 23.6,4.6 23.6,11.6 C23.6,18.3 19.1,20.1 14.9,20.1 C12.1,20.1 9.5,19.3 8.4,18.5 C11.7,18.3 14.4,15.4 14.4,12.1 C14.4,8.5 11.6,5.6 8,5.6 C4.4,5.6 1.5,8.5 1.5,12.1 C1.5,20.3 9,24.4 16.4,24.4 C26,24.4 36.4,21.1 36.4,10.2 C36.4,2.9 31.4,-0.2 27,-1.6 L27.2,-1.6 "/>
<path class="TimeSig" transform="matrix(0.992,0,0,0.992,395.498,1179.8)" d="M20.8,12.7 L20.8,20.1 L12.5,20.1 C11.8,20.1 11.1,20.7 11.1,21.5 L11.1,23.4 C11.1,24.2 11.8,24.8 12.5,24.8 L42.8,24.8 C43.6,24.8 44.2,24.2 44.2,23.4 L44.2,21.5 C44.2,20.7 43.6,20.1 42.8,20.1 L33.9,20.1 L33.9,12.7 L42.8,12.7 C43.6,12.7 44.2,12 44.2,11.2 L44.2,9.3 C44.2,8.6 43.6,7.9 42.8,7.9 L33.9,7.9 L33.9,-8 C33.9,-8.6 33.6,-9.1 33.1,-9.3 L31.9,-9.9 C31.7,-10 31.4,-10.1 31.2,-10.1 C30.9,-10 30.5,-9.9 30.3,-9.7 L21.2,-1.4 C20.9,-1.1 20.8,-0.7 20.8,-0.3 L20.8,7.9 L9.3,7.9 C9.3,7.9 20.4,-4.1 32.2,-19.9 C32.6,-20.4 32.7,-20.9 32.7,-21.3 C32.7,-21.8 32.5,-22.2 32.4,-22.3 L30.2,-24.5 C30,-24.7 29.6,-24.9 29.2,-24.9 C28.6,-24.9 15.1,-24.9 14.4,-24.9 C13.6,-24.9 13.1,-24.3 13,-23.7 C13,-23.7 12.5,-16.3 9.9,-8.2 C7.3,-0.1 4.3,4.9 1.7,8.6 C1.7,8.6 1.4,9.1 1.4,9.7 C1.4,9.9 1.4,10.1 1.5,10.3 C1.9,11 2.5,12.1 2.5,12.1 C2.5,12.1 2.7,12.7 3.6,12.7 L20.8,12.7 "/>
<path class="TimeSig" transform="matrix(0.992,0,0,0.992,395.498,658.998)" d="M20.8,12.7 L20.8,20.1 L12.5,20.1 C11.8,20.1 11.1,20.7 11.1,21.5 L11.1,23.4 C11.1,24.2 11.8,24.8 12.5,24.8 L42.8,24.8 C43.6,24.8 44.2,24.2 44.2,23.4 L44.2,21.5 C44.2,20.7 43.6,20.1 42.8,20.1 L33.9,20.1 L33.9,12.7 L42.8,12.7 C43.6,12.7 44.2,12 44.2,11.2 L44.2,9.3 C44.2,8.6 43.6,7.9 42.8,7.9 L33.9,7.9 L33.9,-8 C33.9,-8.6 33.6,-9.1 33.1,-9.3 L31.9,-9.9 C31.7,-10 31.4,-10.1 31.2,-10.1 C30.9,-10 30.5,-9.9 30.3,-9.7 L21.2,-1.4 C20.9,-1.1 20.8,-0.7 20.8,-0.3 L20.8,7.9 L9.3,7.9 C9.3,7.9 20.4,-4.1 32.2,-19.9 C32.6,-20.4 32.7,-20.9 32.7,-21.3 C32.7,-21.8 32.5,-22.2 32.4,-22.3 L30.2,-24.5 C30,-24.7 29.6,-24.9 29.2,-24.9 C28.6,-24.9 15.1,-24.9 14.4,-24.9 C13.6,-24.9 13.1,-24.3 13,-23.7 C13,-23.7 12.5,-16.3 9.9,-8.2 C7.3,-0.1 4.3,4.9 1.7,8.6 C1.7,8.6 1.4,9.1 1.4,9.7 C1.4,9.9 1.4,10.1 1.5,10.3 C1.9,11 2.5,12.1 2.5,12.1 C2.5,12.1 2.7,12.7 3.6,12.7 L20.8,12.7 "/>
<path class="TimeSig" transform="matrix(0.992,0,0,0.992,395.498,708.598)" d="M20.8,12.7 L20.8,20.1 L12.5,20.1 C11.8,20.1 11.1,20.7 11.1,21.5 L11.1,23.4 C11.1,24.2 11.8,24.8 12.5,24.8 L42.8,24.8 C43.6,24.8 44.2,24.2 44.2,23.4 L44.2,21.5 C44.2,20.7 43.6,20.1 42.8,20.1 L33.9,20.1 L33.9,12.7 L42.8,12.7 C43.6,12.7 44.2,12 44.2,11.2 L44.2,9.3 C44.2,8.6 43.6,7.9 42.8,7.9 L33.9,7.9 L33.9,-8 C33.9,-8.6 33.6,-9.1 33.1,-9.3 L31.9,-9.9 C31.7,-10 31.4,-10.1 31.2,-10.1 C30.9,-10 30.5,-9.9 30.3,-9.7 L21.2,-1.4 C20.9,-1.1 20.8,-0.7 20.8,-0.3 L20.8,7.9 L9.3,7.9 C9.3,7.9 20.4,-4.1 32.2,-19.9 C32.6,-20.4 32.7,-20.9 32.7,-21.3 C32.7,-21.8 32.5,-22.2 32.4,-22.3 L30.2,-24.5 C30,-24.7 29.6,-24.9 29.2,-24.9 C28.6,-24.9 15.1,-24.9 14.4,-24.9 C13.6,-24.9 13.1,-24.3 13,-23.7 C13,-23.7 12.5,-16.3 9.9,-8.2 C7.3,-0.1 4.3,4.9 1.7,8.6 C1.7,8.6 1.4,9.1 1.4,9.7 C1.4,9.9 1.4,10.1 1.5,10.3 C1.9,11 2.5,12.1 2.5,12.1 C2.5,12.1 2.7,12.7 3.6,12.7 L20.8,12.7 "/>
<path class="TimeSig" transform="matrix(0.992,0,0,0.992,2712.27,659.494)" d="M27.2,-1.6 C32.2,-3.5 35.7,-6.7 35.7,-12.2 C35.7,-13.1 35.4,-24.4 18.2,-24.4 C1,-24.4 1.5,-12.2 1.5,-12.2 L1.6,-12.2 L1.5,-12 C1.5,-8.4 4.4,-5.6 8,-5.6 C11.6,-5.6 14.4,-8.4 14.4,-12 C14.4,-14.9 12.2,-17.7 9.4,-18.3 C9.5,-18.4 9.6,-18.5 9.7,-18.6 C11.1,-19.6 13,-20.1 14.9,-20.1 C19.1,-20.1 23.6,-17.6 23.6,-12.2 C23.6,-5.9 18.9,-5 17.7,-4.8 C16.5,-4.6 10.9,-4.2 9.7,-4.2 C8.5,-4.2 8.4,-2.8 8.4,-2.8 L8.4,-0.8 C8.4,-0.8 8.6,0.3 9.7,0.4 C11.4,0.5 13.7,0.5 16.9,1 C21.3,1.6 23.6,4.6 23.6,11.6 C23.6,18.3 19.1,20.1 14.9,20.1 C12.1,20.1 9.5,19.3 8.4,18.5 C11.7,18.3 14.4,15.4 14.4,12.1 C14.4,8.5 11.6,5.6 8,5.6 C4.4,5.6 1.5,8.5 1.5,12.1 C1.5,20.3 9,24.4 16.4,24.4 C26,24.4 36.4,21.1 36.4,10.2 C36.4,2.9 31.4,-0.2 27,-1.6 L27.2,-1.6 "/>
<path class="TimeSig" transform="matrix(0.992,0,0,0.992,2708.37,708.598)" d="M20.8,12.7 L20.8,20.1 L12.5,20.1 C11.8,20.1 11.1,20.7 11.1,21.5 L11.1,23.4 C11.1,24.2 11.8,24.8 12.5,24.8 L42.8,24.8 C43.6,24.8 44.2,24.2 44.2,23.4 L44.2,21.5 C44.2,20.7 43.6,20.1 42.8,20.1 L33.9,20.1 L33.9,12.7 L42.8,12.7 C43.6,12.7 44.2,12 44.2,11.2 L44.2,9.3 C44.2,8.6 43.6,7.9 42.8,7.9 L33.9,7.9 L33.9,-8 C33.9,-8.6 33.6,-9.1 33.1,-9.3 L31.9,-9.9 C31.7,-10 31.4,-10.1 31.2,-10.1 C30.9,-10 30.5,-9.9 30.3,-9.7 L21.2,-1.4 C20.9,-1.1 20.8,-0.7 20.8,-0.3 L20.8,7.9 L9.3,7.9 C9.3,7.9 20.4,-4.1 32.2,-19.9 C32.6,-20.4 32.7,-20.9 32.7,-21.3 C32.7,-21.8 32.5,-22.2 32.4,-22.3 L30.2,-24.5 C30,-24.7 29.6,-24.9 29.2,-24.9 C28.6,-24.9 15.1,-24.9 14.4,-24.9 C13.6,-24.9 13.1,-24.3 13,-23.7 C13,-23.7 12.5,-16.3 9.9,-8.2 C7.3,-0.1 4.3,4.9 1.7,8.6 C1.7,8.6 1.4,9.1 1.4,9.7 C1.4,9.9 1.4,10.1 1.5,10.3 C1.9,11 2.5,12.1 2.5,12.1 C2.5,12.1 2.7,12.7 3.6,12.7 L20.8,12.7 "/>
<path class="TimeSig" transform="matrix(0.992,0,0,0.992,1828.07,1130.2)" d="M20.8,12.7 L20.8,20.1 L12.5,20.1 C11.8,20.1 11.1,20.7 11.1,21.5 L11.1,23.4 C11.1,24.2 11.8,24.8 12.5,24.8 L42.8,24.8 C43.6,24.8 44.2,24.2 44.2,23.4 L44.2,21.5 C44.2,20.7 43.6,20.1 42.8,20.1 L33.9,20.1 L33.9,12.7 L42.8,12.7 C43.6,12.7 44.2,12 44.2,11.2 L44.2,9.3 C44.2,8.6 43.6,7.9 42.8,7.9 L33.9,7.9 L33.9,-8 C33.9,-8.6 33.6,-9.1 33.1,-9.3 L31.9,-9.9 C31.7,-10 31.4,-10.1 31.2,-10.1 C30.9,-10 30.5,-9.9 30.3,-9.7 L21.2,-1.4 C20.9,-1.1 20.8,-0.7 20.8,-0.3 L20.8,7.9 L9.3,7.9 C9.3,7.9 20.4,-4.1 32.2,-19.9 C32.6,-20.4 32.7,-20.9 32.7,-21.3 C32.7,-21.8 32.5,-22.2 32.4,-22.3 L30.2,-24.5 C30,-24.7 29.6,-24.9 29.2,-24.9 C28.6,-24.9 15.1,-24.9 14.4,-24.9 C13.6,-24.9 13.1,-24.3 13,-23.7 C13,-23.7 12.5,-16.3 9.9,-8.2 C7.3,-0.1 4.3,4.9 1.7,8.6 C1.7,8.6 1.4,9.1 1.4,9.7 C1.4,9.9 1.4,10.1 1.5,10.3 C1.9,11 2.5,12.1 2.5,12.1 C2.5,12.1 2.7,12.7 3.6,12.7 L20.8,12.7 "/>
<path class="TimeSig" transform="matrix(0.992,0,0,0.992,1828.07,1179.8)" d="M20.8,12.7 L20.8,20.1 L12.5,20.1 C11.8,20.1 11.1,20.7 11.1,21.5 L11.1,23.4 C11.1,24.2 11.8,24.8 12.5,24.8 L42.8,24.8 C43.6,24.8 44.2,24.2 44.2,23.4 L44.2,21.5 C44.2,20.7 43.6,20.1 42.8,20.1 L33.9,20.1 L33.9,12.7 L42.8,12.7 C43.6,12.7 44.2,12 44.2,11.2 L44.2,9.3 C44.2,8.6 43.6,7.9 42.8,7.9 L33.9,7.9 L33.9,-8 C33.9,-8.6 33.6,-9.1 33.1,-9.3 L31.9,-9.9 C31.7,-10 31.4,-10.1 31.2,-10.1 C30.9,-10 30.5,-9.9 30.3,-9.7 L21.2,-1.4 C20.9,-1.1 20.8,-0.7 20.8,-0.3 L20.8,7.9 L9.3,7.9 C9.3,7.9 20.4,-4.1 32.2,-19.9 C32.6,-20.4 32.7,-20.9 32.7,-21.3 C32.7,-21.8 32.5,-22.2 32.4,-22.3 L30.2,-24.5 C30,-24.7 29.6,-24.9 29.2,-24.9 C28.6,-24.9 15.1,-24.9 14.4,-24.9 C13.6,-24.9 13.1,-24.3 13,-23.7 C13,-23.7 12.5,-16.3 9.9,-8.2 C7.3,-0.1 4.3,4.9 1.7,8.6 C1.7,8.6 1.4,9.1 1.4,9.7 C1.4,9.9 1.4,10.1 1.5,10.3 C1.9,11 2.5,12.1 2.5,12.1 C2.5,12.1 2.7,12.7 3.6,12.7 L20.8,12.7 "/>
<path class="Beam" fill-rule="evenodd" d="M2232.66,621.798 L2433.9,621.798 L2433.9,634.198 L2232.66,634.198 L2232.66,621.798 "/>
<path class="Beam" fill-rule="evenodd" d="M518.429,1080.6 L909.347,1080.6 L909.347,1093 L518.429,1093 L518.429,1080.6 "/>
<path class="Beam" fill-rule="evenodd" d="M518.429,634.198 L719.664,634.198 L719.664,646.598 L518.429,646.598 L518.429,634.198 "/>
<path class="Beam" fill-rule="evenodd" d="M1934.9,621.787 L2136.14,634.187 L2136.14,646.61 L1934.9,634.21 L1934.9,621.787 "/>
<path class="Beam" fill-rule="evenodd" d="M1637.14,621.798 L1838.38,621.798 L1838.38,634.198 L1637.14,634.198 L1637.14,621.798 "/>
<path class="Beam" fill-rule="evenodd" d="M1113.95,634.198 L1315.18,634.198 L1315.18,646.598 L1113.95,646.598 L1113.95,634.198 "/>
<path class="Beam" fill-rule="evenodd" d="M816.189,646.587 L1017.42,658.987 L1017.42,671.41 L816.189,659.01 L816.189,646.587 "/>
<path class="Tuplet" d="M716.48,1048.72 C718.595,1048.04 719.45,1047.68 720.53,1046.96 C722.645,1045.57 723.95,1043.09 723.95,1040.57 C723.95,1036.3 720.53,1033.42 715.49,1033.42 C710.585,1033.42 706.445,1036.48 706.445,1040.17 C706.445,1042.01 707.57,1043.27 709.28,1043.27 C710.765,1043.27 711.845,1042.19 711.845,1040.71 C711.845,1039.94 711.62,1039.4 710.9,1038.68 C710.45,1038.28 710.27,1037.96 710.27,1037.65 C710.27,1036.57 712.52,1035.44 714.635,1035.44 C717.65,1035.44 719.45,1037.11 719.45,1039.9 C719.45,1043.9 716.615,1047.68 713.6,1047.68 C713.465,1047.68 713.06,1047.64 712.565,1047.59 C711.26,1047.5 711.26,1047.5 710.99,1047.5 C710,1047.5 709.46,1047.95 709.46,1048.76 C709.46,1049.48 709.955,1049.93 710.765,1049.93 C710.99,1049.93 711.305,1049.89 711.665,1049.84 C712.295,1049.71 712.97,1049.66 713.375,1049.66 C715.49,1049.66 716.93,1051.55 716.93,1054.34 C716.93,1059.2 714.545,1063.88 709.1,1063.88 C706.58,1063.88 704.42,1062.62 704.42,1061.18 C704.42,1060.69 704.6,1060.51 705.32,1060.19 C706.625,1059.61 707.165,1058.8 707.165,1057.58 C707.165,1056.01 705.905,1054.79 704.285,1054.79 C702.35,1054.79 701.09,1056.32 701.09,1058.66 C701.09,1063.03 704.42,1065.77 709.82,1065.77 C716.615,1065.77 721.79,1061.23 721.79,1055.2 C721.79,1051.69 719.63,1049.71 716.48,1048.72"/>
<path class="Tuplet" d="M621.639,602.318 C623.754,601.643 624.609,601.283 625.689,600.563 C627.804,599.168 629.109,596.693 629.109,594.173 C629.109,589.898 625.689,587.018 620.649,587.018 C615.744,587.018 611.604,590.078 611.604,593.768 C611.604,595.613 612.729,596.873 614.439,596.873 C615.924,596.873 617.004,595.793 617.004,594.308 C617.004,593.543 616.779,593.003 616.059,592.283 C615.609,591.878 615.429,591.563 615.429,591.248 C615.429,590.168 617.679,589.043 619.794,589.043 C622.809,589.043 624.609,590.708 624.609,593.498 C624.609,597.503 621.774,601.283 618.759,601.283 C618.624,601.283 618.219,601.238 617.724,601.193 C616.419,601.103 616.419,601.103 616.149,601.103 C615.159,601.103 614.619,601.553 614.619,602.363 C614.619,603.083 615.114,603.533 615.924,603.533 C616.149,603.533 616.464,603.488 616.824,603.443 C617.454,603.308 618.129,603.263 618.534,603.263 C620.649,603.263 622.089,605.153 622.089,607.943 C622.089,612.803 619.704,617.483 614.259,617.483 C611.739,617.483 609.579,616.223 609.579,614.783 C609.579,614.288 609.759,614.108 610.479,613.793 C611.784,613.208 612.324,612.398 612.324,611.183 C612.324,609.608 611.064,608.393 609.444,608.393 C607.509,608.393 606.249,609.923 606.249,612.263 C606.249,616.628 609.579,619.373 614.979,619.373 C621.774,619.373 626.949,614.828 626.949,608.798 C626.949,605.288 624.789,603.308 621.639,602.318"/>
<path class="Tuplet" d="M2335.87,589.918 C2337.99,589.243 2338.84,588.883 2339.92,588.163 C2342.04,586.768 2343.34,584.293 2343.34,581.773 C2343.34,577.498 2339.92,574.618 2334.88,574.618 C2329.98,574.618 2325.84,577.678 2325.84,581.368 C2325.84,583.213 2326.96,584.473 2328.67,584.473 C2330.16,584.473 2331.24,583.393 2331.24,581.908 C2331.24,581.143 2331.01,580.603 2330.29,579.883 C2329.84,579.478 2329.66,579.163 2329.66,578.848 C2329.66,577.768 2331.91,576.643 2334.03,576.643 C2337.04,576.643 2338.84,578.308 2338.84,581.098 C2338.84,585.103 2336.01,588.883 2332.99,588.883 C2332.86,588.883 2332.45,588.838 2331.96,588.793 C2330.65,588.703 2330.65,588.703 2330.38,588.703 C2329.39,588.703 2328.85,589.153 2328.85,589.963 C2328.85,590.683 2329.35,591.133 2330.16,591.133 C2330.38,591.133 2330.7,591.088 2331.06,591.043 C2331.69,590.908 2332.36,590.863 2332.77,590.863 C2334.88,590.863 2336.32,592.753 2336.32,595.543 C2336.32,600.403 2333.94,605.083 2328.49,605.083 C2325.97,605.083 2323.81,603.823 2323.81,602.383 C2323.81,601.888 2323.99,601.708 2324.71,601.393 C2326.02,600.808 2326.56,599.998 2326.56,598.783 C2326.56,597.208 2325.3,595.993 2323.68,595.993 C2321.74,595.993 2320.48,597.523 2320.48,599.863 C2320.48,604.228 2323.81,606.973 2329.21,606.973 C2336.01,606.973 2341.18,602.428 2341.18,596.398 C2341.18,592.888 2339.02,590.908 2335.87,589.918"/>
<path class="Tuplet" d="M2038.11,596.118 C2040.23,595.443 2041.08,595.083 2042.16,594.363 C2044.28,592.968 2045.58,590.493 2045.58,587.973 C2045.58,583.698 2042.16,580.818 2037.12,580.818 C2032.22,580.818 2028.08,583.878 2028.08,587.568 C2028.08,589.413 2029.2,590.673 2030.91,590.673 C2032.4,590.673 2033.48,589.593 2033.48,588.108 C2033.48,587.343 2033.25,586.803 2032.53,586.083 C2032.08,585.678 2031.9,585.363 2031.9,585.048 C2031.9,583.968 2034.15,582.843 2036.27,582.843 C2039.28,582.843 2041.08,584.508 2041.08,587.298 C2041.08,591.303 2038.25,595.083 2035.23,595.083 C2035.1,595.083 2034.69,595.038 2034.2,594.993 C2032.89,594.903 2032.89,594.903 2032.62,594.903 C2031.63,594.903 2031.09,595.353 2031.09,596.163 C2031.09,596.883 2031.59,597.333 2032.4,597.333 C2032.62,597.333 2032.94,597.288 2033.3,597.243 C2033.93,597.108 2034.6,597.063 2035.01,597.063 C2037.12,597.063 2038.56,598.953 2038.56,601.743 C2038.56,606.603 2036.18,611.283 2030.73,611.283 C2028.21,611.283 2026.05,610.023 2026.05,608.583 C2026.05,608.088 2026.23,607.908 2026.95,607.593 C2028.26,607.008 2028.8,606.198 2028.8,604.983 C2028.8,603.408 2027.54,602.193 2025.92,602.193 C2023.98,602.193 2022.72,603.723 2022.72,606.063 C2022.72,610.428 2026.05,613.173 2031.45,613.173 C2038.25,613.173 2043.42,608.628 2043.42,602.598 C2043.42,599.088 2041.26,597.108 2038.11,596.118"/>
<path class="Tuplet" d="M1740.35,589.918 C1742.47,589.243 1743.32,588.883 1744.4,588.163 C1746.52,586.768 1747.82,584.293 1747.82,581.773 C1747.82,577.498 1744.4,574.618 1739.36,574.618 C1734.46,574.618 1730.32,577.678 1730.32,581.368 C1730.32,583.213 1731.44,584.473 1733.15,584.473 C1734.64,584.473 1735.72,583.393 1735.72,581.908 C1735.72,581.143 1735.49,580.603 1734.77,579.883 C1734.32,579.478 1734.14,579.163 1734.14,578.848 C1734.14,577.768 1736.39,576.643 1738.51,576.643 C1741.52,576.643 1743.32,578.308 1743.32,581.098 C1743.32,585.103 1740.49,588.883 1737.47,588.883 C1737.34,588.883 1736.93,588.838 1736.44,588.793 C1735.13,588.703 1735.13,588.703 1734.86,588.703 C1733.87,588.703 1733.33,589.153 1733.33,589.963 C1733.33,590.683 1733.83,591.133 1734.64,591.133 C1734.86,591.133 1735.18,591.088 1735.54,591.043 C1736.17,590.908 1736.84,590.863 1737.25,590.863 C1739.36,590.863 1740.8,592.753 1740.8,595.543 C1740.8,600.403 1738.42,605.083 1732.97,605.083 C1730.45,605.083 1728.29,603.823 1728.29,602.383 C1728.29,601.888 1728.47,601.708 1729.19,601.393 C1730.5,600.808 1731.04,599.998 1731.04,598.783 C1731.04,597.208 1729.78,595.993 1728.16,595.993 C1726.22,595.993 1724.96,597.523 1724.96,599.863 C1724.96,604.228 1728.29,606.973 1733.69,606.973 C1740.49,606.973 1745.66,602.428 1745.66,596.398 C1745.66,592.888 1743.5,590.908 1740.35,589.918"/>
<path class="Tuplet" d="M1217.16,602.318 C1219.27,601.643 1220.13,601.283 1221.21,600.563 C1223.32,599.168 1224.63,596.693 1224.63,594.173 C1224.63,589.898 1221.21,587.018 1216.17,587.018 C1211.26,587.018 1207.12,590.078 1207.12,593.768 C1207.12,595.613 1208.25,596.873 1209.96,596.873 C1211.44,596.873 1212.52,595.793 1212.52,594.308 C1212.52,593.543 1212.3,593.003 1211.58,592.283 C1211.13,591.878 1210.95,591.563 1210.95,591.248 C1210.95,590.168 1213.2,589.043 1215.31,589.043 C1218.33,589.043 1220.13,590.708 1220.13,593.498 C1220.13,597.503 1217.29,601.283 1214.28,601.283 C1214.14,601.283 1213.74,601.238 1213.24,601.193 C1211.94,601.103 1211.94,601.103 1211.67,601.103 C1210.68,601.103 1210.14,601.553 1210.14,602.363 C1210.14,603.083 1210.63,603.533 1211.44,603.533 C1211.67,603.533 1211.98,603.488 1212.34,603.443 C1212.97,603.308 1213.65,603.263 1214.05,603.263 C1216.17,603.263 1217.61,605.153 1217.61,607.943 C1217.61,612.803 1215.22,617.483 1209.78,617.483 C1207.26,617.483 1205.1,616.223 1205.1,614.783 C1205.1,614.288 1205.28,614.108 1206,613.793 C1207.3,613.208 1207.84,612.398 1207.84,611.183 C1207.84,609.608 1206.58,608.393 1204.96,608.393 C1203.03,608.393 1201.77,609.923 1201.77,612.263 C1201.77,616.628 1205.1,619.373 1210.5,619.373 C1217.29,619.373 1222.47,614.828 1222.47,608.798 C1222.47,605.288 1220.31,603.308 1217.16,602.318"/>
<path class="Tuplet" d="M919.399,602.318 C921.514,601.643 922.369,601.283 923.449,600.563 C925.564,599.168 926.869,596.693 926.869,594.173 C926.869,589.898 923.449,587.018 918.409,587.018 C913.504,587.018 909.364,590.078 909.364,593.768 C909.364,595.613 910.489,596.873 912.199,596.873 C913.684,596.873 914.764,595.793 914.764,594.308 C914.764,593.543 914.539,593.003 913.819,592.283 C913.369,591.878 913.189,591.563 913.189,591.248 C913.189,590.168 915.439,589.043 917.554,589.043 C920.569,589.043 922.369,590.708 922.369,593.498 C922.369,597.503 919.534,601.283 916.519,601.283 C916.384,601.283 915.979,601.238 915.484,601.193 C914.179,601.103 914.179,601.103 913.909,601.103 C912.919,601.103 912.379,601.553 912.379,602.363 C912.379,603.083 912.874,603.533 913.684,603.533 C913.909,603.533 914.224,603.488 914.584,603.443 C915.214,603.308 915.889,603.263 916.294,603.263 C918.409,603.263 919.849,605.153 919.849,607.943 C919.849,612.803 917.464,617.483 912.019,617.483 C909.499,617.483 907.339,616.223 907.339,614.783 C907.339,614.288 907.519,614.108 908.239,613.793 C909.544,613.208 910.084,612.398 910.084,611.183 C910.084,609.608 908.824,608.393 907.204,608.393 C905.269,608.393 904.009,609.923 904.009,612.263 C904.009,616.628 907.339,619.373 912.739,619.373 C919.534,619.373 924.709,614.828 924.709,608.798 C924.709,605.288 922.549,603.308 919.399,602.318"/>
<path class="Tempo" d="M211.816,467.691 L208.549,467.691 L208.549,509.964 C207.46,509.271 206.074,508.875 204.49,508.677 C200.926,508.677 198.055,509.073 194.887,510.855 C190.927,512.934 186.571,517.29 186.571,522.141 C186.571,526.893 190.828,529.17 195.184,529.17 C202.114,529.17 211.816,523.23 211.816,515.706 L211.816,467.691 "/>
<path class="Tempo" d="M234.067,505.647 L264.307,505.647 L264.307,498.747 L234.067,498.747 L234.067,505.647 M234.067,518.007 L264.307,518.007 L264.307,511.107 L234.067,511.107 L234.067,518.007 M306.845,481.047 L304.745,481.047 C300.965,483.867 296.705,485.067 289.565,485.187 L289.565,488.547 L292.085,488.547 C297.425,488.547 297.485,488.667 297.425,493.587 L297.425,514.887 C297.425,518.607 297.425,518.787 297.005,519.387 C296.465,520.047 295.265,520.287 292.025,520.287 L290.105,520.287 L290.105,523.527 L314.045,523.527 L314.045,520.287 L312.125,520.287 C308.945,520.287 307.805,520.047 307.265,519.387 C306.845,518.787 306.845,518.547 306.845,514.887 L306.845,481.047 M341.283,481.047 L339.183,481.047 C335.403,483.867 331.143,485.067 324.003,485.187 L324.003,488.547 L326.523,488.547 C331.863,488.547 331.923,488.667 331.863,493.587 L331.863,514.887 C331.863,518.607 331.863,518.787 331.443,519.387 C330.903,520.047 329.703,520.287 326.463,520.287 L324.543,520.287 L324.543,523.527 L348.483,523.527 L348.483,520.287 L346.563,520.287 C343.383,520.287 342.243,520.047 341.703,519.387 C341.283,518.787 341.283,518.547 341.283,514.887 L341.283,481.047 M370.68,481.047 C361.68,481.047 355.08,490.227 355.08,502.707 C355.08,515.187 361.68,524.367 370.68,524.367 C379.5,524.367 386.22,515.187 386.22,503.007 C386.22,495.927 384.6,490.707 381.06,486.267 C378.24,482.847 374.7,481.047 370.68,481.047 M370.62,484.167 C372.42,484.167 373.86,485.247 374.52,487.167 C375.3,489.147 375.78,495.447 375.78,502.887 C375.78,509.067 375.3,515.547 374.76,517.587 C374.1,519.987 372.66,521.247 370.62,521.247 C368.76,521.247 367.38,520.227 366.66,518.247 C365.88,516.267 365.4,509.907 365.4,502.707 C365.4,496.407 365.88,489.867 366.42,487.827 C367.08,485.427 368.52,484.167 370.62,484.167"/>
</svg>
