<?xml version="1.0" encoding="UTF-8" standalone="no"?>
<svg width="2977.2px" height="4208.4px" viewBox="0 0 2977.2 4208.4"
 xmlns="http://www.w3.org/2000/svg" xmlns:xlink="http://www.w3.org/1999/xlink" version="1.2" baseProfile="tiny">
<title>汝が友</title>
<desc>Generated by MuseScore Studio 4.4.3</desc>
<path class="" fill="#ffffff" fill-rule="evenodd" d="M0,0 L2977.2,0 L2977.2,4208.4 L0,4208.4 L0,0 "/>
<polyline class="StaffLines" fill="none" stroke="#000000" stroke-width="2.73" stroke-linejoin="bevel" points="212.598,634.198 2764.6,634.198"/>
<polyline class="StaffLines" fill="none" stroke="#000000" stroke-width="2.73" stroke-linejoin="bevel" points="212.598,658.998 2764.6,658.998"/>
<polyline class="StaffLines" fill="none" stroke="#000000" stroke-width="2.73" stroke-linejoin="bevel" points="212.598,683.798 2764.6,683.798"/>
<polyline class="StaffLines" fill="none" stroke="#000000" stroke-width="2.73" stroke-linejoin="bevel" points="212.598,708.598 2764.6,708.598"/>
<polyline class="StaffLines" fill="none" stroke="#000000" stroke-width="2.73" stroke-linejoin="bevel" points="212.598,733.398 2764.6,733.398"/>
<polyline class="StaffLines" fill="none" stroke="#000000" stroke-width="2.73" stroke-linejoin="bevel" points="212.598,1192.2 2764.6,1192.2"/>
<polyline class="StaffLines" fill="none" stroke="#000000" stroke-width="2.73" stroke-linejoin="bevel" points="212.598,1217 2764.6,1217"/>
<polyline class="StaffLines" fill="none" stroke="#000000" stroke-width="2.73" stroke-linejoin="bevel" points="212.598,1241.8 2764.6,1241.8"/>
<polyline class="StaffLines" fill="none" stroke="#000000" stroke-width="2.73" stroke-linejoin="bevel" points="212.598,1266.6 2764.6,1266.6"/>
<polyline class="StaffLines" fill="none" stroke="#000000" stroke-width="2.73" stroke-linejoin="bevel" points="212.598,1291.4 2764.6,1291.4"/>
<polyline class="StaffLines" fill="none" stroke="#000000" stroke-width="2.73" stroke-linejoin="bevel" points="212.598,1750.2 2764.6,1750.2"/>
<polyline class="StaffLines" fill="none" stroke="#000000" stroke-width="2.73" stroke-linejoin="bevel" points="212.598,1775 2764.6,1775"/>
<polyline class="StaffLines" fill="none" stroke="#000000" stroke-width="2.73" stroke-linejoin="bevel" points="212.598,1799.8 2764.6,1799.8"/>
<polyline class="StaffLines" fill="none" stroke="#000000" stroke-width="2.73" stroke-linejoin="bevel" points="212.598,1824.6 2764.6,1824.6"/>
<polyline class="StaffLines" fill="none" stroke="#000000" stroke-width="2.73" stroke-linejoin="bevel" points="212.598,1849.4 2764.6,1849.4"/>
<polyline class="StaffLines" fill="none" stroke="#000000" stroke-width="2.73" stroke-linejoin="bevel" points="212.598,2308.2 2764.6,2308.2"/>
<polyline class="StaffLines" fill="none" stroke="#000000" stroke-width="2.73" stroke-linejoin="bevel" points="212.598,2333 2764.6,2333"/>
<polyline class="StaffLines" fill="none" stroke="#000000" stroke-width="2.73" stroke-linejoin="bevel" points="212.598,2357.8 2764.6,2357.8"/>
<polyline class="StaffLines" fill="none" stroke="#000000" stroke-width="2.73" stroke-linejoin="bevel" points="212.598,2382.6 2764.6,2382.6"/>
<polyline class="StaffLines" fill="none" stroke="#000000" stroke-width="2.73" stroke-linejoin="bevel" points="212.598,2407.4 2764.6,2407.4"/>
<path class="Text" d="M1415.25,249.329 C1419.98,249.329 1423.61,249.549 1427.57,249.989 L1427.57,242.069 C1424.71,242.509 1420.97,242.729 1415.25,242.729 L1383.79,242.729 C1385.88,236.349 1386.43,234.479 1388.85,226.009 C1389.73,222.819 1389.73,222.819 1391.38,217.759 L1382.91,215.999 C1382.14,222.929 1380.16,230.959 1376.31,242.729 L1367.07,242.729 C1361.35,242.729 1357.72,242.509 1354.53,242.069 L1354.53,249.989 C1358.27,249.549 1362.23,249.329 1366.96,249.329 L1374,249.329 C1369.82,260.219 1365.64,268.909 1360.36,277.819 C1369.71,281.559 1376.64,284.749 1386.1,290.029 C1376.86,298.829 1365.64,304.329 1348.92,308.289 C1351.34,310.929 1351.89,311.809 1353.43,314.889 C1370.92,309.939 1382.36,303.669 1392.15,293.549 C1404.03,300.919 1412.83,307.189 1421.3,314.669 L1426.8,308.289 C1417.01,300.589 1410.08,295.969 1396.99,288.159 C1405.35,277.489 1409.64,267.039 1412.94,249.329 L1415.25,249.329 M1405.46,249.329 C1402.71,265.389 1398.97,274.299 1390.94,284.749 C1384.67,281.229 1378.51,278.259 1370.04,274.739 C1376.09,262.749 1378.4,257.689 1381.37,249.329 L1405.46,249.329 M1334.29,222.379 C1342.65,227.659 1347.71,231.839 1354.42,238.879 L1358.93,233.049 C1351.12,225.899 1346.61,222.379 1338.91,217.429 L1334.29,222.379 M1327.91,248.339 C1336.27,253.399 1341.33,257.249 1348.26,264.179 L1352.77,258.129 C1344.74,251.309 1340.56,248.119 1332.31,243.059 L1327.91,248.339 M1348.37,275.179 C1343.86,286.179 1339.9,293.549 1334.4,301.249 C1332.2,304.219 1330.77,305.869 1329.01,307.409 L1335.28,313.349 C1336.27,311.699 1336.6,311.149 1336.93,310.709 C1343.42,301.359 1348.48,292.229 1354.09,279.689 L1348.37,275.179 "/>
<path class="Text" d="M1512.93,221.389 C1516.23,224.909 1521.51,233.049 1524.26,238.879 L1529.76,235.579 C1526.46,229.089 1523.38,224.469 1518.43,218.529 L1512.93,221.389 M1442.09,255.269 C1447.04,253.839 1450.12,253.289 1464.2,251.309 C1459.25,272.099 1449.79,294.099 1440.66,306.089 L1448.14,310.489 C1459.58,290.359 1467.28,271.219 1471.9,250.649 C1475.97,250.209 1477.4,250.099 1479.82,250.099 C1490.05,250.099 1493.35,253.839 1493.35,265.499 C1493.35,277.819 1491.7,289.039 1488.73,296.079 C1487.3,299.599 1485.21,301.359 1482.46,301.359 C1478.5,301.359 1472.34,299.489 1466.07,296.299 C1466.4,298.279 1466.4,298.939 1466.4,300.589 C1466.4,302.129 1466.4,302.899 1466.18,304.549 C1473.44,307.629 1478.06,308.839 1482.79,308.839 C1487.96,308.839 1490.93,307.409 1493.57,303.669 C1498.08,297.289 1500.94,282.659 1500.94,265.829 C1500.94,256.809 1499.4,251.749 1495.55,248.119 C1492.14,244.819 1487.52,243.499 1479.71,243.499 C1477.18,243.499 1475.75,243.609 1473.22,243.829 C1474.1,239.099 1475.09,234.039 1475.53,231.289 C1476.41,225.349 1476.96,222.819 1477.62,220.729 L1468.82,219.739 C1468.82,220.399 1468.82,220.949 1468.82,221.169 C1468.82,225.789 1467.39,236.239 1465.52,244.489 C1449.35,246.799 1445.17,247.239 1441.21,247.349 L1442.09,255.269 M1525.47,215.559 C1529.76,220.509 1534.38,227.659 1536.69,232.829 L1542.19,229.639 C1538.56,222.709 1535.81,218.639 1530.86,212.589 L1525.47,215.559 M1506.99,240.639 C1516.89,250.429 1525.8,266.159 1529.43,280.129 L1536.47,276.169 C1531.85,261.649 1524.37,248.889 1513.48,237.229 L1506.99,240.639 "/>
<path class="Text" d="M1628.87,255.159 C1626.56,255.599 1623.92,255.709 1619.08,255.709 L1585.64,255.709 C1586.96,249.549 1587.51,245.919 1588.28,239.429 L1635.25,239.429 C1640.42,239.429 1643.39,239.649 1646.91,240.089 L1646.91,232.169 C1643.72,232.609 1640.31,232.829 1635.25,232.829 L1589.05,232.829 C1589.27,230.409 1589.38,228.869 1589.6,226.339 C1590.04,219.409 1590.15,218.199 1590.59,215.999 L1582.01,215.889 C1582.34,218.529 1582.45,219.409 1582.45,221.829 C1582.45,224.909 1582.23,227.549 1581.79,232.829 L1560.89,232.829 C1555.94,232.829 1552.42,232.609 1549.34,232.169 L1549.34,240.089 C1551.98,239.649 1556.16,239.429 1560.89,239.429 L1581.02,239.429 C1578.27,261.319 1573.1,276.389 1563.97,289.479 C1559.13,296.519 1554.95,300.919 1547.25,307.409 C1549.67,309.169 1549.78,309.389 1552.75,313.239 C1561.88,304.879 1567.93,297.619 1573.1,288.709 C1577.72,280.899 1581.13,272.649 1583.66,263.849 C1588.28,274.739 1593.45,282.329 1601.92,290.689 C1591.47,299.379 1581.35,304.439 1565.29,308.729 C1567.6,311.259 1568.48,312.579 1569.69,315.439 C1586.08,310.159 1596.42,304.549 1607.09,295.199 C1617.65,303.889 1629.2,310.269 1643.83,315.329 C1645.26,312.249 1646.25,310.819 1648.67,308.179 C1633.6,304.109 1623.26,299.049 1612.04,290.469 C1619.08,283.209 1625.02,274.739 1629.64,265.609 C1631.51,261.759 1632.06,260.769 1632.72,259.669 L1628.87,255.159 M1623.7,261.979 C1619.3,271.109 1613.69,279.139 1606.87,286.069 C1603.46,282.879 1600.71,279.799 1597.63,275.729 C1594,270.779 1592.79,268.689 1589.82,261.979 L1623.7,261.979 "/>
<path class="MeasureNumber" d="M228.053,1686.92 C227.053,1691.56 224.373,1699.52 218.653,1699.52 C217.493,1699.52 216.733,1699.04 216.733,1698.32 C216.733,1698.04 216.813,1697.92 217.133,1697.44 C217.533,1696.92 217.733,1696.44 217.733,1695.88 C217.733,1694.56 216.693,1693.56 215.333,1693.56 C213.733,1693.56 212.613,1694.76 212.613,1696.52 C212.613,1699.24 215.173,1701.2 218.733,1701.2 C227.493,1701.2 233.093,1690 233.093,1682.4 C233.093,1676.16 230.093,1672.44 225.133,1672.44 C219.173,1672.44 214.733,1677.92 214.733,1683.64 C214.733,1687.44 217.653,1690.32 221.533,1690.32 C224.173,1690.32 226.213,1689.24 228.053,1686.92 M225.093,1674.12 C227.653,1674.12 229.293,1676.16 229.293,1679.36 C229.293,1684.32 226.573,1687.96 222.893,1687.96 C220.373,1687.96 218.973,1686.24 218.973,1683.24 C218.973,1679.64 220.693,1674.12 225.093,1674.12"/>
<path class="MeasureNumber" d="M228.958,2230.28 L227.798,2230.28 C225.598,2231.92 221.358,2233.32 218.478,2233.32 L217.998,2235.08 L220.758,2235.08 C223.198,2235.08 223.478,2235.16 223.478,2235.88 C223.478,2236.24 223.478,2236.24 223.078,2237.68 L218.798,2253.68 C218.278,2255.68 218.238,2255.8 217.878,2256.16 C217.478,2256.56 216.638,2256.68 214.518,2256.72 L212.798,2256.72 L212.598,2258.6 L227.398,2258.6 L227.638,2256.72 L225.478,2256.72 C222.878,2256.72 222.318,2256.52 222.318,2255.64 C222.318,2255.36 222.478,2254.44 222.678,2253.68 L228.958,2230.28 M246.433,2244.04 C248.313,2243.44 249.073,2243.12 250.033,2242.48 C251.913,2241.24 253.073,2239.04 253.073,2236.8 C253.073,2233 250.033,2230.44 245.553,2230.44 C241.193,2230.44 237.513,2233.16 237.513,2236.44 C237.513,2238.08 238.513,2239.2 240.033,2239.2 C241.353,2239.2 242.313,2238.24 242.313,2236.92 C242.313,2236.24 242.113,2235.76 241.473,2235.12 C241.073,2234.76 240.913,2234.48 240.913,2234.2 C240.913,2233.24 242.913,2232.24 244.793,2232.24 C247.473,2232.24 249.073,2233.72 249.073,2236.2 C249.073,2239.76 246.553,2243.12 243.873,2243.12 C243.753,2243.12 243.393,2243.08 242.953,2243.04 C241.793,2242.96 241.793,2242.96 241.553,2242.96 C240.673,2242.96 240.193,2243.36 240.193,2244.08 C240.193,2244.72 240.633,2245.12 241.353,2245.12 C241.553,2245.12 241.833,2245.08 242.153,2245.04 C242.713,2244.92 243.313,2244.88 243.673,2244.88 C245.553,2244.88 246.833,2246.56 246.833,2249.04 C246.833,2253.36 244.713,2257.52 239.873,2257.52 C237.633,2257.52 235.713,2256.4 235.713,2255.12 C235.713,2254.68 235.873,2254.52 236.513,2254.24 C237.673,2253.72 238.153,2253 238.153,2251.92 C238.153,2250.52 237.033,2249.44 235.593,2249.44 C233.873,2249.44 232.753,2250.8 232.753,2252.88 C232.753,2256.76 235.713,2259.2 240.513,2259.2 C246.553,2259.2 251.153,2255.16 251.153,2249.8 C251.153,2246.68 249.233,2244.92 246.433,2244.04"/>
<path class="MeasureNumber" d="M216.922,1127.28 C215.682,1128.04 215.322,1128.52 215.322,1129.32 C215.322,1130.08 215.962,1130.64 216.762,1130.64 C217.802,1130.64 218.402,1129.88 218.522,1128.4 C219.762,1127.4 221.082,1126.96 222.682,1126.96 C225.642,1126.96 227.282,1128.8 227.282,1132.12 C227.282,1137.32 223.922,1141.56 219.802,1141.56 C217.442,1141.56 215.522,1140.44 215.522,1139.12 C215.522,1138.88 215.562,1138.8 215.762,1138.68 C217.042,1138.08 218.082,1137.64 218.082,1135.96 C218.082,1134.68 217.082,1133.72 215.682,1133.72 C213.922,1133.72 212.602,1135.2 212.602,1137.12 C212.602,1140.64 215.642,1143.2 219.922,1143.2 C226.402,1143.2 231.642,1138.04 231.642,1131.64 C231.642,1127.6 228.562,1124.76 224.202,1124.76 C222.482,1124.76 221.082,1125.12 219.162,1126.08 L221.402,1118.52 C223.522,1118.96 225.202,1119.16 226.642,1119.16 C229.282,1119.16 231.642,1118.32 232.962,1116.92 C233.642,1116.12 234.042,1115.44 234.042,1114.92 C234.042,1114.68 233.922,1114.44 233.762,1114.44 C233.642,1114.44 233.562,1114.48 233.322,1114.6 C232.002,1115.24 230.322,1115.6 228.762,1115.6 C226.362,1115.6 223.522,1115.2 220.562,1114.44 L216.922,1127.28 "/>
<polyline class="BarLine" fill="none" stroke="#000000" stroke-width="4.46" stroke-linejoin="bevel" points="1541.87,632.834 1541.87,734.762"/>
<polyline class="BarLine" fill="none" stroke="#000000" stroke-width="4.46" stroke-linejoin="bevel" points="2762.37,1190.83 2762.37,1292.76"/>
<polyline class="BarLine" fill="none" stroke="#000000" stroke-width="4.46" stroke-linejoin="bevel" points="2296.93,2306.83 2296.93,2408.76"/>
<polyline class="BarLine" fill="none" stroke="#000000" stroke-width="4.46" stroke-linejoin="bevel" points="1522.15,2306.83 1522.15,2408.76"/>
<polyline class="BarLine" fill="none" stroke="#000000" stroke-width="4.46" stroke-linejoin="bevel" points="913.385,2306.83 913.385,2408.76"/>
<polyline class="BarLine" fill="none" stroke="#000000" stroke-width="4.46" stroke-linejoin="bevel" points="2762.37,1748.83 2762.37,1850.76"/>
<polyline class="BarLine" fill="none" stroke="#000000" stroke-width="4.46" stroke-linejoin="bevel" points="2187.27,1748.83 2187.27,1850.76"/>
<polyline class="BarLine" fill="none" stroke="#000000" stroke-width="4.46" stroke-linejoin="bevel" points="1455.92,1748.83 1455.92,1850.76"/>
<polyline class="BarLine" fill="none" stroke="#000000" stroke-width="4.46" stroke-linejoin="bevel" points="898.537,1748.83 898.537,1850.76"/>
<polyline class="BarLine" fill="none" stroke="#000000" stroke-width="4.46" stroke-linejoin="bevel" points="2762.37,2306.83 2762.37,2408.76"/>
<polyline class="BarLine" fill="none" stroke="#000000" stroke-width="4.46" stroke-linejoin="bevel" points="961.274,632.834 961.274,734.762"/>
<polyline class="BarLine" fill="none" stroke="#000000" stroke-width="4.46" stroke-linejoin="bevel" points="2296.93,1190.83 2296.93,1292.76"/>
<polyline class="BarLine" fill="none" stroke="#000000" stroke-width="4.46" stroke-linejoin="bevel" points="1522.15,1190.83 1522.15,1292.76"/>
<polyline class="BarLine" fill="none" stroke="#000000" stroke-width="4.46" stroke-linejoin="bevel" points="932.207,1190.83 932.207,1292.76"/>
<polyline class="BarLine" fill="none" stroke="#000000" stroke-width="4.46" stroke-linejoin="bevel" points="2762.37,632.834 2762.37,734.762"/>
<polyline class="BarLine" fill="none" stroke="#000000" stroke-width="4.46" stroke-linejoin="bevel" points="2304.18,632.834 2304.18,734.762"/>
<path class="Accidental" transform="matrix(0.992,0,0,0.992,2459.93,1824.6)" d="M23.3,-10.5 C23.9,-10.6 24.4,-11.3 24.4,-11.9 L24.4,-17.8 C24.4,-18.8 23.7,-19.2 22.8,-19.2 L19.5,-18.5 L19.5,-33.4 L16.7,-33.4 L16.7,-17.9 L7.8,-16.1 L7.8,-30.2 L5,-30.2 L5,-15.5 L1.1,-14.7 C0.5,-14.6 0,-13.9 0,-13.3 L0,-7.5 C0,-6.4 0.8,-6.1 1.7,-6.1 L5,-6.8 L5,9.7 L1.1,10.5 C0.5,10.6 0,11.3 0,11.9 L0,17.7 C0,18.8 0.8,19.1 1.7,19.1 L5,18.4 L5,33.3 L7.8,33.3 L7.8,17.8 L16.7,16 L16.7,30.1 L19.5,30.1 L19.5,15.4 L23.3,14.7 C23.9,14.6 24.4,13.9 24.4,13.3 L24.4,7.4 C24.4,6.4 23.7,6 22.8,6 L19.5,6.7 L19.5,-9.8 L23.3,-10.5 M7.8,-7.4 L16.7,-9.2 L16.7,7.3 L7.8,9.2 L7.8,-7.4 "/>
<polyline class="LedgerLine" fill="none" stroke="#000000" stroke-width="3.97" stroke-linejoin="bevel" points="2329.23,758.198 2377.82,758.198"/>
<polyline class="LedgerLine" fill="none" stroke="#000000" stroke-width="3.97" stroke-linejoin="bevel" points="2321.98,2457 2370.57,2457"/>
<polyline class="LedgerLine" fill="none" stroke="#000000" stroke-width="3.97" stroke-linejoin="bevel" points="2321.98,2432.2 2370.57,2432.2"/>
<polyline class="LedgerLine" fill="none" stroke="#000000" stroke-width="3.97" stroke-linejoin="bevel" points="2055.59,758.198 2104.19,758.198"/>
<polyline class="LedgerLine" fill="none" stroke="#000000" stroke-width="3.97" stroke-linejoin="bevel" points="2055.59,782.998 2104.19,782.998"/>
<polyline class="LedgerLine" fill="none" stroke="#000000" stroke-width="3.97" stroke-linejoin="bevel" points="1547.2,2432.2 1595.79,2432.2"/>
<polyline class="LedgerLine" fill="none" stroke="#000000" stroke-width="3.97" stroke-linejoin="bevel" points="1692.17,758.198 1740.76,758.198"/>
<polyline class="LedgerLine" fill="none" stroke="#000000" stroke-width="3.97" stroke-linejoin="bevel" points="1916.86,2432.2 1965.45,2432.2"/>
<polyline class="LedgerLine" fill="none" stroke="#000000" stroke-width="3.97" stroke-linejoin="bevel" points="1930.34,758.198 1978.93,758.198"/>
<polyline class="LedgerLine" fill="none" stroke="#000000" stroke-width="3.97" stroke-linejoin="bevel" points="2044.26,2432.2 2092.85,2432.2"/>
<polyline class="Stem" fill="none" stroke="#000000" stroke-width="2.48" stroke-linejoin="bevel" points="1956.02,2440.63 1956.02,2363.94"/>
<polyline class="Stem" fill="none" stroke="#000000" stroke-width="2.48" stroke-linejoin="bevel" points="2083.43,1275.03 2083.43,1192.26"/>
<polyline class="Stem" fill="none" stroke="#000000" stroke-width="2.48" stroke-linejoin="bevel" points="1969.51,766.63 1969.51,683.859"/>
<polyline class="Stem" fill="none" stroke="#000000" stroke-width="2.48" stroke-linejoin="bevel" points="751.036,2391.03 751.036,2308.4"/>
<polyline class="Stem" fill="none" stroke="#000000" stroke-width="2.48" stroke-linejoin="bevel" points="387.655,2366.23 387.655,2289.6"/>
<polyline class="Stem" fill="none" stroke="#000000" stroke-width="2.48" stroke-linejoin="bevel" points="2083.43,2428.23 2083.43,2357.86"/>
<polyline class="Stem" fill="none" stroke="#000000" stroke-width="2.48" stroke-linejoin="bevel" points="426.39,729.43 426.39,646.598"/>
<polyline class="Stem" fill="none" stroke="#000000" stroke-width="2.48" stroke-linejoin="bevel" points="2368.39,766.63 2368.39,683.798"/>
<polyline class="Stem" fill="none" stroke="#000000" stroke-width="2.48" stroke-linejoin="bevel" points="1264.25,2415.83 1264.25,2333"/>
<polyline class="Stem" fill="none" stroke="#000000" stroke-width="2.48" stroke-linejoin="bevel" points="387.655,1287.43 387.655,1204.6"/>
<polyline class="Stem" fill="none" stroke="#000000" stroke-width="2.48" stroke-linejoin="bevel" points="2521.31,1820.63 2521.31,1737.8"/>
<polyline class="Stem" fill="none" stroke="#000000" stroke-width="2.48" stroke-linejoin="bevel" points="2251.49,1845.43 2251.49,1762.6"/>
<polyline class="Stem" fill="none" stroke="#000000" stroke-width="2.48" stroke-linejoin="bevel" points="644.563,1233.56 644.563,1310"/>
<polyline class="Stem" fill="none" stroke="#000000" stroke-width="2.48" stroke-linejoin="bevel" points="1586.37,2428.23 1586.37,2339.14"/>
<polyline class="Stem" fill="none" stroke="#000000" stroke-width="2.48" stroke-linejoin="bevel" points="1988,1833.03 1988,1750.26"/>
<polyline class="Stem" fill="none" stroke="#000000" stroke-width="2.48" stroke-linejoin="bevel" points="1868.08,1845.43 1868.08,1756.34"/>
<polyline class="Stem" fill="none" stroke="#000000" stroke-width="2.48" stroke-linejoin="bevel" points="1731.34,754.23 1731.34,665.138"/>
<polyline class="Stem" fill="none" stroke="#000000" stroke-width="2.48" stroke-linejoin="bevel" points="966.679,1245.96 966.679,1316.2"/>
<polyline class="Stem" fill="none" stroke="#000000" stroke-width="2.48" stroke-linejoin="bevel" points="1640.05,1857.83 1640.05,1756.34"/>
<polyline class="Stem" fill="none" stroke="#000000" stroke-width="2.48" stroke-linejoin="bevel" points="1520.13,1820.63 1520.13,1750.26"/>
<polyline class="Stem" fill="none" stroke="#000000" stroke-width="2.48" stroke-linejoin="bevel" points="2361.14,2453.03 2361.14,2357.8"/>
<polyline class="Stem" fill="none" stroke="#000000" stroke-width="2.48" stroke-linejoin="bevel" points="1304.79,1808.23 1304.79,1731.8"/>
<polyline class="Stem" fill="none" stroke="#000000" stroke-width="2.48" stroke-linejoin="bevel" points="933.009,1791.56 933.009,1868"/>
<polyline class="Stem" fill="none" stroke="#000000" stroke-width="2.48" stroke-linejoin="bevel" points="1359.8,1250.23 1359.8,1173.8"/>
<polyline class="Stem" fill="none" stroke="#000000" stroke-width="2.48" stroke-linejoin="bevel" points="1382.74,729.43 1382.74,646.797"/>
<polyline class="Stem" fill="none" stroke="#000000" stroke-width="2.48" stroke-linejoin="bevel" points="1025.49,692.23 1025.49,615.598"/>
<polyline class="Stem" fill="none" stroke="#000000" stroke-width="2.48" stroke-linejoin="bevel" points="2094.76,779.03 2094.76,689.938"/>
<polyline class="Stem" fill="none" stroke="#000000" stroke-width="2.48" stroke-linejoin="bevel" points="1586.37,1262.63 1586.37,1192.26"/>
<polyline class="Stem" fill="none" stroke="#000000" stroke-width="2.48" stroke-linejoin="bevel" points="708.208,729.43 708.208,646.598"/>
<polyline class="Stem" fill="none" stroke="#000000" stroke-width="2.48" stroke-linejoin="bevel" points="627.728,1803.96 627.728,1874.2"/>
<polyline class="Stem" fill="none" stroke="#000000" stroke-width="2.48" stroke-linejoin="bevel" points="387.655,1845.43 387.655,1762.6"/>
<polyline class="Stem" fill="none" stroke="#000000" stroke-width="2.48" stroke-linejoin="bevel" points="1713.77,1299.83 1713.77,1198.34"/>
<polyline class="Stem" fill="none" stroke="#000000" stroke-width="2.48" stroke-linejoin="bevel" points="1606.09,741.83 1606.09,659.059"/>
<polyline class="Stem" fill="none" stroke="#000000" stroke-width="2.48" stroke-linejoin="bevel" points="2361.14,1287.43 2361.14,1204.6"/>
<polyline class="Stem" fill="none" stroke="#000000" stroke-width="2.48" stroke-linejoin="bevel" points="1956.02,1287.43 1956.02,1198.34"/>
<polyline class="Stem" fill="none" stroke="#000000" stroke-width="2.48" stroke-linejoin="bevel" points="1713.77,2415.83 1713.77,2333.06"/>
<polyline class="Stem" fill="none" stroke="#000000" stroke-width="2.48" stroke-linejoin="bevel" points="977.602,2403.43 977.602,2320.6"/>
<path class="Hook" transform="matrix(0.992,0,0,0.992,1381.5,646.598)" d="M0,22.7 C0,23 0.1,23.6 0.8,23.8 C5.1,25.2 13.7,30.6 20.2,41.7 C22,44.8 24.9,49.1 24.9,57.4 C24.9,64.6 23.1,72 20.4,79.2 C20.2,79.8 20.1,80.3 20.1,80.7 C20.1,81.4 20.5,81.7 21.2,81.7 C21.8,81.7 22.3,81.3 22.7,80.6 C27.2,72.6 28.9,63.3 28.9,54.2 C28.4,41.3 21,31.8 21,31.8 C21.3,31.8 11.8,19.5 9.1,15.3 C5.4,9.6 3.7,3.9 3.5,3.5 C3.4,3.2 2.5,-0.4 2.5,-0.4 C2.4,-0.8 1.9,-1.2 1.3,-1.2 C0.6,-1.2 0,-0.6 0,0.1 L0,22.7 "/>
<path class="Hook" transform="matrix(0.992,0,0,0.992,749.796,2308.2)" d="M0,22.7 C0,23 0.1,23.6 0.8,23.8 C5.1,25.2 13.7,30.6 20.2,41.7 C22,44.8 24.9,49.1 24.9,57.4 C24.9,64.6 23.1,72 20.4,79.2 C20.2,79.8 20.1,80.3 20.1,80.7 C20.1,81.4 20.5,81.7 21.2,81.7 C21.8,81.7 22.3,81.3 22.7,80.6 C27.2,72.6 28.9,63.3 28.9,54.2 C28.4,41.3 21,31.8 21,31.8 C21.3,31.8 11.8,19.5 9.1,15.3 C5.4,9.6 3.7,3.9 3.5,3.5 C3.4,3.2 2.5,-0.4 2.5,-0.4 C2.4,-0.8 1.9,-1.2 1.3,-1.2 C0.6,-1.2 0,-0.6 0,0.1 L0,22.7 "/>
<path class="Hook" transform="matrix(0.992,0,0,0.992,1303.55,1731.6)" d="M0,22.7 C0,23 0.1,23.6 0.8,23.8 C5.1,25.2 13.7,30.6 20.2,41.7 C22,44.8 24.9,49.1 24.9,57.4 C24.9,64.6 23.1,72 20.4,79.2 C20.2,79.8 20.1,80.3 20.1,80.7 C20.1,81.4 20.5,81.7 21.2,81.7 C21.8,81.7 22.3,81.3 22.7,80.6 C27.2,72.6 28.9,63.3 28.9,54.2 C28.4,41.3 21,31.8 21,31.8 C21.3,31.8 11.8,19.5 9.1,15.3 C5.4,9.6 3.7,3.9 3.5,3.5 C3.4,3.2 2.5,-0.4 2.5,-0.4 C2.4,-0.8 1.9,-1.2 1.3,-1.2 C0.6,-1.2 0,-0.6 0,0.1 L0,22.7 "/>
<path class="Hook" transform="matrix(0.992,0,0,0.992,1358.56,1173.6)" d="M0,22.7 C0,23 0.1,23.6 0.8,23.8 C5.1,25.2 13.7,30.6 20.2,41.7 C22,44.8 24.9,49.1 24.9,57.4 C24.9,64.6 23.1,72 20.4,79.2 C20.2,79.8 20.1,80.3 20.1,80.7 C20.1,81.4 20.5,81.7 21.2,81.7 C21.8,81.7 22.3,81.3 22.7,80.6 C27.2,72.6 28.9,63.3 28.9,54.2 C28.4,41.3 21,31.8 21,31.8 C21.3,31.8 11.8,19.5 9.1,15.3 C5.4,9.6 3.7,3.9 3.5,3.5 C3.4,3.2 2.5,-0.4 2.5,-0.4 C2.4,-0.8 1.9,-1.2 1.3,-1.2 C0.6,-1.2 0,-0.6 0,0.1 L0,22.7 "/>
<path class="Note" transform="matrix(0.992,0,0,0.992,994.506,696.198)" d="M0,4.2 C0,8.5 3.1,13.3 11.2,13.3 C21.6,13.3 32.5,4.8 32.5,-4 C32.5,-9.9 27.5,-13.2 21.3,-13.2 C11.6,-13.2 0,-5 0,4.2"/>
<path class="Note" transform="matrix(0.992,0,0,0.992,1233.27,2419.8)" d="M0,4.2 C0,8.5 3.1,13.3 11.2,13.3 C21.6,13.3 32.5,4.8 32.5,-4 C32.5,-9.9 27.5,-13.2 21.3,-13.2 C11.6,-13.2 0,-5 0,4.2"/>
<path class="Note" transform="matrix(0.992,0,0,0.992,1925.04,1291.4)" d="M0,4.2 C0,8.5 3.1,13.3 11.2,13.3 C21.6,13.3 32.5,4.8 32.5,-4 C32.5,-9.9 27.5,-13.2 21.3,-13.2 C11.6,-13.2 0,-5 0,4.2"/>
<path class="Note" transform="matrix(0.992,0,0,0.992,1575.1,745.798)" d="M0,4.2 C0,8.5 3.1,13.3 11.2,13.3 C21.6,13.3 32.5,4.8 32.5,-4 C32.5,-9.9 27.5,-13.2 21.3,-13.2 C11.6,-13.2 0,-5 0,4.2"/>
<path class="Note" transform="matrix(0.992,0,0,0.992,2330.16,1291.4)" d="M21.3,-13.2 C11.6,-13.2 0,-5.1 0,4.2 C0,8.5 3.1,13.3 11.2,13.3 C21.6,13.3 32.5,4.8 32.5,-4 C32.5,-9.9 27.5,-13.2 21.3,-13.2 M7.5,8.6 C4.2,8.6 3.5,5.9 3.5,5 C3.5,0.1 20.3,-8.5 25,-8.5 C27.4,-8.5 29,-7.1 29,-4.9 C29,0.1 12.1,8.6 7.5,8.6"/>
<path class="Note" transform="matrix(0.992,0,0,0.992,356.671,1291.4)" d="M0,4.2 C0,8.5 3.1,13.3 11.2,13.3 C21.6,13.3 32.5,4.8 32.5,-4 C32.5,-9.9 27.5,-13.2 21.3,-13.2 C11.6,-13.2 0,-5 0,4.2"/>
<path class="Note" transform="matrix(0.992,0,0,0.992,2220.5,1849.4)" d="M0,4.2 C0,8.5 3.1,13.3 11.2,13.3 C21.6,13.3 32.5,4.8 32.5,-4 C32.5,-9.9 27.5,-13.2 21.3,-13.2 C11.6,-13.2 0,-5 0,4.2"/>
<path class="Note" transform="matrix(0.992,0,0,0.992,2052.44,2432.2)" d="M0,4.2 C0,8.5 3.1,13.3 11.2,13.3 C21.6,13.3 32.5,4.8 32.5,-4 C32.5,-9.9 27.5,-13.2 21.3,-13.2 C11.6,-13.2 0,-5 0,4.2"/>
<path class="Note" transform="matrix(0.992,0,0,0.992,677.224,733.398)" d="M0,4.2 C0,8.5 3.1,13.3 11.2,13.3 C21.6,13.3 32.5,4.8 32.5,-4 C32.5,-9.9 27.5,-13.2 21.3,-13.2 C11.6,-13.2 0,-5 0,4.2"/>
<path class="Note" transform="matrix(0.992,0,0,0.992,1682.79,1303.8)" d="M0,4.2 C0,8.5 3.1,13.3 11.2,13.3 C21.6,13.3 32.5,4.8 32.5,-4 C32.5,-9.9 27.5,-13.2 21.3,-13.2 C11.6,-13.2 0,-5 0,4.2"/>
<path class="Note" transform="matrix(0.992,0,0,0.992,356.671,2370.2)" d="M0,4.2 C0,8.5 3.1,13.3 11.2,13.3 C21.6,13.3 32.5,4.8 32.5,-4 C32.5,-9.9 27.5,-13.2 21.3,-13.2 C11.6,-13.2 0,-5 0,4.2"/>
<path class="Note" transform="matrix(0.992,0,0,0.992,643.323,1229.4)" d="M0,4.2 C0,8.5 3.1,13.3 11.2,13.3 C21.6,13.3 32.5,4.8 32.5,-4 C32.5,-9.9 27.5,-13.2 21.3,-13.2 C11.6,-13.2 0,-5 0,4.2"/>
<path class="Note" transform="matrix(0.992,0,0,0.992,1700.36,758.198)" d="M0,4.2 C0,8.5 3.1,13.3 11.2,13.3 C21.6,13.3 32.5,4.8 32.5,-4 C32.5,-9.9 27.5,-13.2 21.3,-13.2 C11.6,-13.2 0,-5 0,4.2"/>
<path class="Note" transform="matrix(0.992,0,0,0.992,356.671,1849.4)" d="M0,4.2 C0,8.5 3.1,13.3 11.2,13.3 C21.6,13.3 32.5,4.8 32.5,-4 C32.5,-9.9 27.5,-13.2 21.3,-13.2 C11.6,-13.2 0,-5 0,4.2"/>
<path class="Note" transform="matrix(0.992,0,0,0.992,2490.32,1824.6)" d="M0,4.2 C0,8.5 3.1,13.3 11.2,13.3 C21.6,13.3 32.5,4.8 32.5,-4 C32.5,-9.9 27.5,-13.2 21.3,-13.2 C11.6,-13.2 0,-5 0,4.2"/>
<path class="Note" transform="matrix(0.992,0,0,0.992,720.052,2395)" d="M0,4.2 C0,8.5 3.1,13.3 11.2,13.3 C21.6,13.3 32.5,4.8 32.5,-4 C32.5,-9.9 27.5,-13.2 21.3,-13.2 C11.6,-13.2 0,-5 0,4.2"/>
<path class="Note" transform="matrix(0.992,0,0,0.992,626.488,1799.8)" d="M0,4.2 C0,8.5 3.1,13.3 11.2,13.3 C21.6,13.3 32.5,4.8 32.5,-4 C32.5,-9.9 27.5,-13.2 21.3,-13.2 C11.6,-13.2 0,-5 0,4.2"/>
<path class="Note" transform="matrix(0.992,0,0,0.992,1555.39,1266.6)" d="M0,4.2 C0,8.5 3.1,13.3 11.2,13.3 C21.6,13.3 32.5,4.8 32.5,-4 C32.5,-9.9 27.5,-13.2 21.3,-13.2 C11.6,-13.2 0,-5 0,4.2"/>
<path class="Note" transform="matrix(0.992,0,0,0.992,1328.82,1254.2)" d="M0,4.2 C0,8.5 3.1,13.3 11.2,13.3 C21.6,13.3 32.5,4.8 32.5,-4 C32.5,-9.9 27.5,-13.2 21.3,-13.2 C11.6,-13.2 0,-5 0,4.2"/>
<path class="Note" transform="matrix(0.992,0,0,0.992,1925.04,2444.6)" d="M0,4.2 C0,8.5 3.1,13.3 11.2,13.3 C21.6,13.3 32.5,4.8 32.5,-4 C32.5,-9.9 27.5,-13.2 21.3,-13.2 C11.6,-13.2 0,-5 0,4.2"/>
<path class="Note" transform="matrix(0.992,0,0,0.992,2330.16,2457)" d="M21.3,-13.2 C11.6,-13.2 0,-5.1 0,4.2 C0,8.5 3.1,13.3 11.2,13.3 C21.6,13.3 32.5,4.8 32.5,-4 C32.5,-9.9 27.5,-13.2 21.3,-13.2 M7.5,8.6 C4.2,8.6 3.5,5.9 3.5,5 C3.5,0.1 20.3,-8.5 25,-8.5 C27.4,-8.5 29,-7.1 29,-4.9 C29,0.1 12.1,8.6 7.5,8.6"/>
<path class="Note" transform="matrix(0.992,0,0,0.992,931.769,1787.4)" d="M0,4.2 C0,8.5 3.1,13.3 11.2,13.3 C21.6,13.3 32.5,4.8 32.5,-4 C32.5,-9.9 27.5,-13.2 21.3,-13.2 C11.6,-13.2 0,-5 0,4.2"/>
<path class="Note" transform="matrix(0.992,0,0,0.992,1938.52,770.598)" d="M0,4.2 C0,8.5 3.1,13.3 11.2,13.3 C21.6,13.3 32.5,4.8 32.5,-4 C32.5,-9.9 27.5,-13.2 21.3,-13.2 C11.6,-13.2 0,-5 0,4.2"/>
<path class="Note" transform="matrix(0.992,0,0,0.992,1957.01,1837)" d="M0,4.2 C0,8.5 3.1,13.3 11.2,13.3 C21.6,13.3 32.5,4.8 32.5,-4 C32.5,-9.9 27.5,-13.2 21.3,-13.2 C11.6,-13.2 0,-5 0,4.2"/>
<path class="Note" transform="matrix(0.992,0,0,0.992,1682.79,2419.8)" d="M0,4.2 C0,8.5 3.1,13.3 11.2,13.3 C21.6,13.3 32.5,4.8 32.5,-4 C32.5,-9.9 27.5,-13.2 21.3,-13.2 C11.6,-13.2 0,-5 0,4.2"/>
<path class="Note" transform="matrix(0.992,0,0,0.992,2052.44,1279)" d="M0,4.2 C0,8.5 3.1,13.3 11.2,13.3 C21.6,13.3 32.5,4.8 32.5,-4 C32.5,-9.9 27.5,-13.2 21.3,-13.2 C11.6,-13.2 0,-5 0,4.2"/>
<path class="Note" transform="matrix(0.992,0,0,0.992,395.405,733.398)" d="M0,4.2 C0,8.5 3.1,13.3 11.2,13.3 C21.6,13.3 32.5,4.8 32.5,-4 C32.5,-9.9 27.5,-13.2 21.3,-13.2 C11.6,-13.2 0,-5 0,4.2"/>
<path class="Note" transform="matrix(0.992,0,0,0.992,1273.81,1812.2)" d="M0,4.2 C0,8.5 3.1,13.3 11.2,13.3 C21.6,13.3 32.5,4.8 32.5,-4 C32.5,-9.9 27.5,-13.2 21.3,-13.2 C11.6,-13.2 0,-5 0,4.2"/>
<path class="Note" transform="matrix(0.992,0,0,0.992,2337.41,770.598)" d="M21.3,-13.2 C11.6,-13.2 0,-5.1 0,4.2 C0,8.5 3.1,13.3 11.2,13.3 C21.6,13.3 32.5,4.8 32.5,-4 C32.5,-9.9 27.5,-13.2 21.3,-13.2 M7.5,8.6 C4.2,8.6 3.5,5.9 3.5,5 C3.5,0.1 20.3,-8.5 25,-8.5 C27.4,-8.5 29,-7.1 29,-4.9 C29,0.1 12.1,8.6 7.5,8.6"/>
<path class="Note" transform="matrix(0.992,0,0,0.992,1555.39,2432.2)" d="M0,4.2 C0,8.5 3.1,13.3 11.2,13.3 C21.6,13.3 32.5,4.8 32.5,-4 C32.5,-9.9 27.5,-13.2 21.3,-13.2 C11.6,-13.2 0,-5 0,4.2"/>
<path class="Note" transform="matrix(0.992,0,0,0.992,2063.78,782.998)" d="M0,4.2 C0,8.5 3.1,13.3 11.2,13.3 C21.6,13.3 32.5,4.8 32.5,-4 C32.5,-9.9 27.5,-13.2 21.3,-13.2 C11.6,-13.2 0,-5 0,4.2"/>
<path class="Note" transform="matrix(0.992,0,0,0.992,1489.15,1824.6)" d="M0,4.2 C0,8.5 3.1,13.3 11.2,13.3 C21.6,13.3 32.5,4.8 32.5,-4 C32.5,-9.9 27.5,-13.2 21.3,-13.2 C11.6,-13.2 0,-5 0,4.2"/>
<path class="Note" transform="matrix(0.992,0,0,0.992,946.617,2407.4)" d="M0,4.2 C0,8.5 3.1,13.3 11.2,13.3 C21.6,13.3 32.5,4.8 32.5,-4 C32.5,-9.9 27.5,-13.2 21.3,-13.2 C11.6,-13.2 0,-5 0,4.2"/>
<path class="Note" transform="matrix(0.992,0,0,0.992,1837.09,1849.4)" d="M0,4.2 C0,8.5 3.1,13.3 11.2,13.3 C21.6,13.3 32.5,4.8 32.5,-4 C32.5,-9.9 27.5,-13.2 21.3,-13.2 C11.6,-13.2 0,-5 0,4.2"/>
<path class="Note" transform="matrix(0.992,0,0,0.992,965.439,1241.8)" d="M0,4.2 C0,8.5 3.1,13.3 11.2,13.3 C21.6,13.3 32.5,4.8 32.5,-4 C32.5,-9.9 27.5,-13.2 21.3,-13.2 C11.6,-13.2 0,-5 0,4.2"/>
<path class="Note" transform="matrix(0.992,0,0,0.992,1609.07,1861.8)" d="M0,4.2 C0,8.5 3.1,13.3 11.2,13.3 C21.6,13.3 32.5,4.8 32.5,-4 C32.5,-9.9 27.5,-13.2 21.3,-13.2 C11.6,-13.2 0,-5 0,4.2"/>
<path class="Note" transform="matrix(0.992,0,0,0.992,1351.76,733.398)" d="M0,4.2 C0,8.5 3.1,13.3 11.2,13.3 C21.6,13.3 32.5,4.8 32.5,-4 C32.5,-9.9 27.5,-13.2 21.3,-13.2 C11.6,-13.2 0,-5 0,4.2"/>
<path class="Clef" transform="matrix(0.992,0,0,0.992,231.198,1266.6)" d="M12.3,51.3 C12.3,57.9 17.3,66.6 30.8,66.6 C35.5,66.6 39.6,65.4 43.2,63.2 C48.6,59.4 50,52.8 50,46.5 C50,42.6 49.4,38.1 48.4,32.4 C48.1,30.4 47.5,27.4 46.9,23.5 C56.7,20.3 64,10.1 64,-0.2 C64,-15.3 53.3,-25.5 38.7,-25.5 C37.7,-31.5 36.7,-37.4 35.9,-43 C46.4,-54.1 53.7,-66.6 53.7,-82.5 C53.7,-91.6 50.9,-99 49.3,-102.6 C46.9,-107.7 44,-111.2 42.2,-111.2 C41.5,-111.2 38.4,-110 35.1,-106.1 C28.7,-98.5 26.9,-85.7 26.9,-77.3 C26.9,-71.9 27.4,-67 29.1,-55.8 C29,-55.7 23.8,-50.4 21.7,-48.7 C12.6,-40.3 0,-28.1 0,-8.1 C0,10.6 16.3,25.3 34.9,25.3 C37.8,25.3 40.5,25 42.8,24.6 C44.7,34.2 45.9,41.2 45.9,46.5 C45.9,56.9 40.5,62.4 30.4,62.4 C28,62.4 25.9,61.9 25.7,61.9 C25.6,61.8 25.4,61.7 25.4,61.6 C25.4,61.4 25.6,61.3 25.9,61.3 C30.6,60.5 35.3,56.5 35.3,50.1 C35.3,44.7 31.2,39 23.7,39 C16.7,39 12.3,44.7 12.3,51.3 M33.2,-82.2 C34.1,-86.2 38.7,-96.7 43.9,-96.7 C45.4,-96.7 47.8,-91.9 47.8,-84.9 C47.8,-74.5 40.1,-66.7 33.2,-59.9 C32.6,-63.9 32.1,-67.8 32.1,-72 C32.1,-75.7 32.4,-79.1 33.2,-82.2 M42,20.6 C40,21 38.1,21.2 36.2,21.2 C21.9,21.2 9.7,11.2 9.7,-3.9 C9.7,-16.1 18.3,-27 27.1,-34.6 C28.8,-36.1 30.4,-37.5 31.9,-39 C32.8,-33.6 33.5,-28.9 34.2,-24.8 C25.1,-22.1 18.9,-12.5 18.9,-3.1 C18.9,3.9 24.4,13.5 32.4,13.5 C33.2,13.5 34.1,13.1 34.1,12.2 C34.1,11.3 33.1,10.8 31.9,10 C28,7.6 25.8,5 25.8,0.1 C25.8,-6 30.4,-10.9 36.2,-12.3 L42,20.6 M56.2,2.1 C56.2,9.2 53.3,16.5 46.2,19.4 C44.1,7.4 41.4,-8.5 40.7,-12.9 C49.7,-12.9 56.2,-6.8 56.2,2.1"/>
<path class="Clef" transform="matrix(0.992,0,0,0.992,231.198,1824.6)" d="M12.3,51.3 C12.3,57.9 17.3,66.6 30.8,66.6 C35.5,66.6 39.6,65.4 43.2,63.2 C48.6,59.4 50,52.8 50,46.5 C50,42.6 49.4,38.1 48.4,32.4 C48.1,30.4 47.5,27.4 46.9,23.5 C56.7,20.3 64,10.1 64,-0.2 C64,-15.3 53.3,-25.5 38.7,-25.5 C37.7,-31.5 36.7,-37.4 35.9,-43 C46.4,-54.1 53.7,-66.6 53.7,-82.5 C53.7,-91.6 50.9,-99 49.3,-102.6 C46.9,-107.7 44,-111.2 42.2,-111.2 C41.5,-111.2 38.4,-110 35.1,-106.1 C28.7,-98.5 26.9,-85.7 26.9,-77.3 C26.9,-71.9 27.4,-67 29.1,-55.8 C29,-55.7 23.8,-50.4 21.7,-48.7 C12.6,-40.3 0,-28.1 0,-8.1 C0,10.6 16.3,25.3 34.9,25.3 C37.8,25.3 40.5,25 42.8,24.6 C44.7,34.2 45.9,41.2 45.9,46.5 C45.9,56.9 40.5,62.4 30.4,62.4 C28,62.4 25.9,61.9 25.7,61.9 C25.6,61.8 25.4,61.7 25.4,61.6 C25.4,61.4 25.6,61.3 25.9,61.3 C30.6,60.5 35.3,56.5 35.3,50.1 C35.3,44.7 31.2,39 23.7,39 C16.7,39 12.3,44.7 12.3,51.3 M33.2,-82.2 C34.1,-86.2 38.7,-96.7 43.9,-96.7 C45.4,-96.7 47.8,-91.9 47.8,-84.9 C47.8,-74.5 40.1,-66.7 33.2,-59.9 C32.6,-63.9 32.1,-67.8 32.1,-72 C32.1,-75.7 32.4,-79.1 33.2,-82.2 M42,20.6 C40,21 38.1,21.2 36.2,21.2 C21.9,21.2 9.7,11.2 9.7,-3.9 C9.7,-16.1 18.3,-27 27.1,-34.6 C28.8,-36.1 30.4,-37.5 31.9,-39 C32.8,-33.6 33.5,-28.9 34.2,-24.8 C25.1,-22.1 18.9,-12.5 18.9,-3.1 C18.9,3.9 24.4,13.5 32.4,13.5 C33.2,13.5 34.1,13.1 34.1,12.2 C34.1,11.3 33.1,10.8 31.9,10 C28,7.6 25.8,5 25.8,0.1 C25.8,-6 30.4,-10.9 36.2,-12.3 L42,20.6 M56.2,2.1 C56.2,9.2 53.3,16.5 46.2,19.4 C44.1,7.4 41.4,-8.5 40.7,-12.9 C49.7,-12.9 56.2,-6.8 56.2,2.1"/>
<path class="Clef" transform="matrix(0.992,0,0,0.992,231.198,708.598)" d="M12.3,51.3 C12.3,57.9 17.3,66.6 30.8,66.6 C35.5,66.6 39.6,65.4 43.2,63.2 C48.6,59.4 50,52.8 50,46.5 C50,42.6 49.4,38.1 48.4,32.4 C48.1,30.4 47.5,27.4 46.9,23.5 C56.7,20.3 64,10.1 64,-0.2 C64,-15.3 53.3,-25.5 38.7,-25.5 C37.7,-31.5 36.7,-37.4 35.9,-43 C46.4,-54.1 53.7,-66.6 53.7,-82.5 C53.7,-91.6 50.9,-99 49.3,-102.6 C46.9,-107.7 44,-111.2 42.2,-111.2 C41.5,-111.2 38.4,-110 35.1,-106.1 C28.7,-98.5 26.9,-85.7 26.9,-77.3 C26.9,-71.9 27.4,-67 29.1,-55.8 C29,-55.7 23.8,-50.4 21.7,-48.7 C12.6,-40.3 0,-28.1 0,-8.1 C0,10.6 16.3,25.3 34.9,25.3 C37.8,25.3 40.5,25 42.8,24.6 C44.7,34.2 45.9,41.2 45.9,46.5 C45.9,56.9 40.5,62.4 30.4,62.4 C28,62.4 25.9,61.9 25.7,61.9 C25.6,61.8 25.4,61.7 25.4,61.6 C25.4,61.4 25.6,61.3 25.9,61.3 C30.6,60.5 35.3,56.5 35.3,50.1 C35.3,44.7 31.2,39 23.7,39 C16.7,39 12.3,44.7 12.3,51.3 M33.2,-82.2 C34.1,-86.2 38.7,-96.7 43.9,-96.7 C45.4,-96.7 47.8,-91.9 47.8,-84.9 C47.8,-74.5 40.1,-66.7 33.2,-59.9 C32.6,-63.9 32.1,-67.8 32.1,-72 C32.1,-75.7 32.4,-79.1 33.2,-82.2 M42,20.6 C40,21 38.1,21.2 36.2,21.2 C21.9,21.2 9.7,11.2 9.7,-3.9 C9.7,-16.1 18.3,-27 27.1,-34.6 C28.8,-36.1 30.4,-37.5 31.9,-39 C32.8,-33.6 33.5,-28.9 34.2,-24.8 C25.1,-22.1 18.9,-12.5 18.9,-3.1 C18.9,3.9 24.4,13.5 32.4,13.5 C33.2,13.5 34.1,13.1 34.1,12.2 C34.1,11.3 33.1,10.8 31.9,10 C28,7.6 25.8,5 25.8,0.1 C25.8,-6 30.4,-10.9 36.2,-12.3 L42,20.6 M56.2,2.1 C56.2,9.2 53.3,16.5 46.2,19.4 C44.1,7.4 41.4,-8.5 40.7,-12.9 C49.7,-12.9 56.2,-6.8 56.2,2.1"/>
<path class="Clef" transform="matrix(0.992,0,0,0.992,231.198,2382.6)" d="M12.3,51.3 C12.3,57.9 17.3,66.6 30.8,66.6 C35.5,66.6 39.6,65.4 43.2,63.2 C48.6,59.4 50,52.8 50,46.5 C50,42.6 49.4,38.1 48.4,32.4 C48.1,30.4 47.5,27.4 46.9,23.5 C56.7,20.3 64,10.1 64,-0.2 C64,-15.3 53.3,-25.5 38.7,-25.5 C37.7,-31.5 36.7,-37.4 35.9,-43 C46.4,-54.1 53.7,-66.6 53.7,-82.5 C53.7,-91.6 50.9,-99 49.3,-102.6 C46.9,-107.7 44,-111.2 42.2,-111.2 C41.5,-111.2 38.4,-110 35.1,-106.1 C28.7,-98.5 26.9,-85.7 26.9,-77.3 C26.9,-71.9 27.4,-67 29.1,-55.8 C29,-55.7 23.8,-50.4 21.7,-48.7 C12.6,-40.3 0,-28.1 0,-8.1 C0,10.6 16.3,25.3 34.9,25.3 C37.8,25.3 40.5,25 42.8,24.6 C44.7,34.2 45.9,41.2 45.9,46.5 C45.9,56.9 40.5,62.4 30.4,62.4 C28,62.4 25.9,61.9 25.7,61.9 C25.6,61.8 25.4,61.7 25.4,61.6 C25.4,61.4 25.6,61.3 25.9,61.3 C30.6,60.5 35.3,56.5 35.3,50.1 C35.3,44.7 31.2,39 23.7,39 C16.7,39 12.3,44.7 12.3,51.3 M33.2,-82.2 C34.1,-86.2 38.7,-96.7 43.9,-96.7 C45.4,-96.7 47.8,-91.9 47.8,-84.9 C47.8,-74.5 40.1,-66.7 33.2,-59.9 C32.6,-63.9 32.1,-67.8 32.1,-72 C32.1,-75.7 32.4,-79.1 33.2,-82.2 M42,20.6 C40,21 38.1,21.2 36.2,21.2 C21.9,21.2 9.7,11.2 9.7,-3.9 C9.7,-16.1 18.3,-27 27.1,-34.6 C28.8,-36.1 30.4,-37.5 31.9,-39 C32.8,-33.6 33.5,-28.9 34.2,-24.8 C25.1,-22.1 18.9,-12.5 18.9,-3.1 C18.9,3.9 24.4,13.5 32.4,13.5 C33.2,13.5 34.1,13.1 34.1,12.2 C34.1,11.3 33.1,10.8 31.9,10 C28,7.6 25.8,5 25.8,0.1 C25.8,-6 30.4,-10.9 36.2,-12.3 L42,20.6 M56.2,2.1 C56.2,9.2 53.3,16.5 46.2,19.4 C44.1,7.4 41.4,-8.5 40.7,-12.9 C49.7,-12.9 56.2,-6.8 56.2,2.1"/>
<path class="TimeSig" transform="matrix(0.992,0,0,0.992,321.362,659.494)" d="M34.2,3.9 C33.4,6.1 31.4,13.3 26.5,13.3 C20,13.3 18.6,9.3 13.2,9.3 C12.4,9.3 11.6,9.4 10.6,9.6 C10.6,9.6 13.1,5.8 23.7,2.5 C34.3,-0.8 37,-6 37,-12 C37,-16.2 35.1,-24.5 20,-24.5 C4.9,-24.5 2.1,-15.4 2.1,-10.8 C2.1,-6.7 5.5,-3.4 9.6,-3.4 C13.7,-3.4 17,-6.7 17,-10.8 C17,-13.6 15,-16.7 12.4,-17.7 C12.1,-17.8 11.7,-18.3 11.7,-18.8 C11.7,-19.4 12.2,-20.1 14,-20.6 C14.5,-20.8 15.9,-21.1 17.4,-21.1 C23.1,-21.1 24.2,-17.6 24.2,-12.5 C24.2,-0.8 10.3,1.7 4.5,10.4 C4.5,10.4 1.5,14.6 1.5,19.3 C1.5,24 3.9,24.3 5.1,24.3 C6.7,24.3 8.4,23 8.4,21.2 C8.4,20.8 8.3,20.4 8.1,19.9 C7.5,18.5 7.3,17.4 7.3,16.6 C7.3,16.3 7.3,16 7.4,15.7 C7.5,15.1 8.3,14.1 10.7,14.1 C13.6,14.1 14.7,17.5 16.5,20.1 C18.3,22.7 21.1,24.3 24.3,24.3 C27.5,24.3 31.8,22 33.6,18.3 C35.4,14.6 37.7,7.1 37.7,4.4 C37.7,3.1 36.9,2.5 36,2.5 C35.3,2.5 34.6,2.9 34.2,3.9"/>
<path class="TimeSig" transform="matrix(0.992,0,0,0.992,318.091,708.598)" d="M20.8,12.7 L20.8,20.1 L12.5,20.1 C11.8,20.1 11.1,20.7 11.1,21.5 L11.1,23.4 C11.1,24.2 11.8,24.8 12.5,24.8 L42.8,24.8 C43.6,24.8 44.2,24.2 44.2,23.4 L44.2,21.5 C44.2,20.7 43.6,20.1 42.8,20.1 L33.9,20.1 L33.9,12.7 L42.8,12.7 C43.6,12.7 44.2,12 44.2,11.2 L44.2,9.3 C44.2,8.6 43.6,7.9 42.8,7.9 L33.9,7.9 L33.9,-8 C33.9,-8.6 33.6,-9.1 33.1,-9.3 L31.9,-9.9 C31.7,-10 31.4,-10.1 31.2,-10.1 C30.9,-10 30.5,-9.9 30.3,-9.7 L21.2,-1.4 C20.9,-1.1 20.8,-0.7 20.8,-0.3 L20.8,7.9 L9.3,7.9 C9.3,7.9 20.4,-4.1 32.2,-19.9 C32.6,-20.4 32.7,-20.9 32.7,-21.3 C32.7,-21.8 32.5,-22.2 32.4,-22.3 L30.2,-24.5 C30,-24.7 29.6,-24.9 29.2,-24.9 C28.6,-24.9 15.1,-24.9 14.4,-24.9 C13.6,-24.9 13.1,-24.3 13,-23.7 C13,-23.7 12.5,-16.3 9.9,-8.2 C7.3,-0.1 4.3,4.9 1.7,8.6 C1.7,8.6 1.4,9.1 1.4,9.7 C1.4,9.9 1.4,10.1 1.5,10.3 C1.9,11 2.5,12.1 2.5,12.1 C2.5,12.1 2.7,12.7 3.6,12.7 L20.8,12.7 "/>
<path class="Beam" fill-rule="evenodd" d="M1866.84,1750.19 L1989.24,1743.99 L1989.24,1756.41 L1866.84,1762.61 L1866.84,1750.19 "/>
<path class="Beam" fill-rule="evenodd" d="M1866.84,1768.79 L1894.12,1767.41 L1894.12,1779.82 L1866.84,1781.21 L1866.84,1768.79 "/>
<path class="Beam" fill-rule="evenodd" d="M1518.89,1743.99 L1641.29,1750.19 L1641.29,1762.61 L1518.89,1756.41 L1518.89,1743.99 "/>
<path class="Beam" fill-rule="evenodd" d="M1518.89,1762.59 L1546.17,1763.97 L1546.17,1776.39 L1518.89,1775.01 L1518.89,1762.59 "/>
<path class="Beam" fill-rule="evenodd" d="M1968.27,677.591 L2096,683.791 L2096,696.206 L1968.27,690.006 L1968.27,677.591 "/>
<path class="Beam" fill-rule="evenodd" d="M1968.27,696.191 L1995.55,697.515 L1995.55,709.93 L1968.27,708.606 L1968.27,696.191 "/>
<path class="Beam" fill-rule="evenodd" d="M1585.13,1185.99 L1715.01,1192.19 L1715.01,1204.61 L1585.13,1198.41 L1585.13,1185.99 "/>
<path class="Beam" fill-rule="evenodd" d="M1585.13,1204.59 L1612.41,1205.89 L1612.41,1218.31 L1585.13,1217.01 L1585.13,1204.59 "/>
<path class="Beam" fill-rule="evenodd" d="M1954.78,2357.79 L2084.67,2351.59 L2084.67,2364.01 L1954.78,2370.21 L1954.78,2357.79 "/>
<path class="Beam" fill-rule="evenodd" d="M1954.78,2376.39 L1982.06,2375.09 L1982.06,2387.5 L1954.78,2388.81 L1954.78,2376.39 "/>
<path class="Beam" fill-rule="evenodd" d="M1604.85,652.791 L1732.58,658.991 L1732.58,671.406 L1604.85,665.206 L1604.85,652.791 "/>
<path class="Beam" fill-rule="evenodd" d="M1604.85,671.391 L1632.13,672.715 L1632.13,685.13 L1604.85,683.806 L1604.85,671.391 "/>
<path class="Beam" fill-rule="evenodd" d="M1954.78,1192.19 L2084.67,1185.99 L2084.67,1198.41 L1954.78,1204.61 L1954.78,1192.19 "/>
<path class="Beam" fill-rule="evenodd" d="M1954.78,1210.79 L1982.06,1209.49 L1982.06,1221.9 L1954.78,1223.21 L1954.78,1210.79 "/>
<path class="Beam" fill-rule="evenodd" d="M1585.13,2332.99 L1715.01,2326.79 L1715.01,2339.21 L1585.13,2345.41 L1585.13,2332.99 "/>
<path class="Beam" fill-rule="evenodd" d="M1585.13,2351.59 L1612.41,2350.29 L1612.41,2362.7 L1585.13,2364.01 L1585.13,2351.59 "/>
<path class="Tempo" d="M343.337,466.337 L340.07,466.337 L340.07,508.61 C338.981,507.917 337.595,507.521 336.011,507.323 C332.447,507.323 329.576,507.719 326.408,509.501 C322.448,511.58 318.092,515.936 318.092,520.787 C318.092,525.539 322.349,527.816 326.705,527.816 C333.635,527.816 343.337,521.876 343.337,514.352 L343.337,466.337 "/>
<path class="Tempo" d="M365.589,504.293 L395.829,504.293 L395.829,497.393 L365.589,497.393 L365.589,504.293 M365.589,516.653 L395.829,516.653 L395.829,509.753 L365.589,509.753 L365.589,516.653 M440.287,497.513 C444.247,496.013 447.367,493.673 447.367,488.933 C447.367,483.413 442.147,479.693 434.347,479.693 C425.047,479.693 419.047,484.673 419.047,492.473 C419.047,497.213 421.267,500.693 426.007,503.213 C424.147,503.813 423.367,504.053 422.347,504.593 C419.347,506.153 417.727,508.913 417.727,512.393 C417.727,518.873 423.547,523.013 432.667,523.013 C442.327,523.013 448.867,517.493 448.867,509.273 C448.867,503.633 446.107,499.913 440.287,497.513 M436.927,496.253 C434.407,495.653 432.547,495.113 431.407,494.693 C428.647,493.673 426.847,491.213 426.847,488.573 C426.847,485.273 429.607,482.813 433.327,482.813 C437.347,482.813 439.867,485.453 439.867,489.653 C439.867,492.353 438.847,494.633 436.927,496.253 M429.247,504.833 C431.707,505.493 434.707,506.393 436.207,506.873 C439.987,508.193 441.427,509.813 441.427,512.873 C441.427,516.953 438.067,519.893 433.327,519.893 C428.467,519.893 425.527,517.013 425.527,512.213 C425.527,509.033 426.547,506.993 429.247,504.833 M467.765,479.693 C458.765,479.693 452.165,488.873 452.165,501.353 C452.165,513.833 458.765,523.013 467.765,523.013 C476.585,523.013 483.305,513.833 483.305,501.653 C483.305,494.573 481.685,489.353 478.145,484.913 C475.325,481.493 471.785,479.693 467.765,479.693 M467.705,482.813 C469.505,482.813 470.945,483.893 471.605,485.813 C472.385,487.793 472.865,494.093 472.865,501.533 C472.865,507.713 472.385,514.193 471.845,516.233 C471.185,518.633 469.745,519.893 467.705,519.893 C465.845,519.893 464.465,518.873 463.745,516.893 C462.965,514.913 462.485,508.553 462.485,501.353 C462.485,495.053 462.965,488.513 463.505,486.473 C464.165,484.073 465.605,482.813 467.705,482.813"/>
<path class="Harmony" d="M1955.45,1093.75 L1953.55,1093.75 L1951.6,1096.75 C1948.35,1094.2 1946.15,1093.35 1942.5,1093.35 C1938.55,1093.35 1935.45,1094.45 1932.3,1097 C1927.35,1101 1925.05,1106.05 1925.05,1112.8 C1925.05,1117.9 1926.5,1122.15 1929.45,1125.4 C1932.55,1128.9 1937.15,1130.95 1941.95,1130.95 C1946.15,1130.95 1949.1,1129.65 1952.35,1126.4 L1954.2,1130.9 L1956.3,1130.9 L1956.3,1119.9 C1956.3,1117.35 1956.3,1117.25 1956.6,1116.8 C1957.05,1116.25 1957.95,1116.1 1960.8,1116.1 L1961.55,1116.1 L1961.55,1113.75 L1945.65,1113.75 L1945.65,1116.1 L1946.6,1116.1 C1950.8,1116.1 1951.15,1116.35 1951.15,1119.15 C1951.15,1121.3 1950.8,1123.25 1950.15,1124.45 C1948.9,1126.9 1945.7,1128.6 1942.45,1128.6 C1939.2,1128.6 1936,1126.95 1934.3,1124.45 C1932.45,1121.65 1931.65,1118.15 1931.65,1112.8 C1931.65,1101.65 1935.35,1095.7 1942.3,1095.7 C1948,1095.7 1951.95,1099.8 1954,1107.8 L1956.15,1107.8 L1955.45,1093.75 "/>
<path class="Harmony" d="M1967.24,1107.1 L1969.44,1107.45 L1970.34,1103.5 C1971.09,1100.2 1971.44,1099.7 1972.89,1099.7 C1973.14,1099.7 1973.54,1099.7 1973.99,1099.75 C1980.14,1100.05 1980.14,1100.05 1982.44,1100.05 C1983.09,1100.05 1984.24,1100.05 1985.64,1100 L1982.24,1106.85 C1978.54,1114.2 1978.09,1115.1 1976.84,1118.2 C1975.29,1121.95 1974.49,1125.1 1974.49,1127.2 C1974.49,1129.5 1975.69,1130.9 1977.64,1130.9 C1980.04,1130.9 1980.99,1129.3 1980.94,1124.95 C1980.69,1117.75 1981.59,1114.25 1986.94,1102.55 C1987.84,1100.6 1988.79,1098.6 1989.69,1096.65 L1989.69,1095.2 C1986.69,1095.45 1985.09,1095.55 1981.99,1095.55 C1977.64,1095.55 1974.19,1095.4 1968.79,1095 L1967.24,1107.1 "/>
<path class="Harmony" d="M696.515,535.398 L694.415,535.398 L682.915,564.548 C681.565,568.448 680.265,569.648 677.415,569.848 L677.215,569.848 L677.215,572.198 L690.465,572.198 L690.465,569.848 L689.465,569.848 C686.765,569.848 685.415,568.898 685.415,566.998 C685.415,566.348 685.565,565.748 685.865,564.898 L687.515,560.498 L700.765,560.498 L703.465,567.198 C703.765,567.998 703.865,568.298 703.865,568.548 C703.865,569.348 702.615,569.848 700.765,569.848 L698.665,569.848 L698.665,572.198 L714.165,572.198 L714.165,569.848 L713.465,569.848 C710.865,569.798 710.415,569.498 709.265,566.648 L696.515,535.398 M694.065,543.598 L699.715,557.798 L688.515,557.798 L694.065,543.598 "/>
<path class="Harmony" d="M726.211,548.898 L717.311,549.448 L717.311,551.598 L719.361,551.598 C721.261,551.648 721.511,551.948 721.511,554.098 L721.511,568.398 C721.461,569.148 721.411,569.448 721.211,569.698 C720.861,570.148 719.911,570.348 717.761,570.398 L717.561,570.398 L717.561,572.198 L730.161,572.198 L730.161,570.398 L729.961,570.398 C726.661,570.298 726.211,570.048 726.211,568.198 L726.211,558.948 C726.211,554.498 728.661,551.198 731.911,551.198 C734.761,551.198 736.211,553.248 736.211,557.298 L736.211,568.448 C736.161,569.098 736.111,569.448 735.861,569.698 C735.561,570.148 734.561,570.348 732.411,570.398 L732.211,570.398 L732.211,572.198 L744.861,572.198 L744.861,570.398 L744.661,570.398 C741.361,570.298 740.911,570.048 740.911,568.248 L740.911,559.398 C740.911,554.398 743.161,551.198 746.661,551.198 C749.511,551.198 750.911,553.348 750.911,557.848 L750.911,568.398 C750.861,569.098 750.811,569.448 750.561,569.698 C750.261,570.148 749.261,570.348 747.111,570.398 L746.911,570.398 L746.911,572.198 L759.561,572.198 L759.561,570.398 L759.361,570.398 C756.061,570.298 755.611,570.048 755.611,568.198 L755.611,556.848 C755.611,553.748 755.311,552.698 754.011,550.998 C752.561,549.148 750.511,548.148 748.111,548.148 C744.861,548.148 742.461,549.698 740.311,553.148 C739.461,550.148 736.761,548.148 733.411,548.148 C730.361,548.148 728.161,549.598 726.211,552.748 L726.211,548.898 "/>
<path class="Harmony" d="M2520.38,1652.1 L2490.33,1652.1 L2490.33,1654.45 L2491.23,1654.45 C2494.08,1654.5 2495.03,1654.65 2495.43,1655.15 C2495.73,1655.6 2495.73,1655.7 2495.73,1658.25 L2495.73,1682.05 C2495.73,1684.6 2495.73,1684.7 2495.43,1685.15 C2495.03,1685.65 2494.08,1685.85 2491.23,1685.85 L2490.33,1685.85 L2490.33,1688.2 L2521.03,1688.2 L2522.03,1674.85 L2519.83,1674.85 C2517.93,1683.75 2515.88,1685.65 2508.23,1685.85 L2504.93,1685.85 C2501.93,1685.75 2501.18,1685.25 2501.33,1683.45 L2501.33,1670.7 L2502.33,1670.7 C2507.48,1670.5 2509.33,1672.35 2509.53,1677.9 L2511.88,1677.9 L2511.88,1661.5 L2509.53,1661.5 C2509.23,1666.4 2507.28,1668.35 2502.53,1668.35 L2501.33,1668.35 L2501.33,1656.95 C2501.28,1654.85 2501.78,1654.5 2504.48,1654.45 L2507.08,1654.45 C2515.28,1654.4 2517.33,1656.2 2518.93,1664.85 L2521.08,1664.85 L2520.38,1652.1 "/>
<path class="Harmony" d="M2250.57,1652.1 L2220.52,1652.1 L2220.52,1654.45 L2221.42,1654.45 C2224.27,1654.5 2225.22,1654.65 2225.62,1655.15 C2225.92,1655.6 2225.92,1655.7 2225.92,1658.25 L2225.92,1682.05 C2225.92,1684.6 2225.92,1684.7 2225.62,1685.15 C2225.22,1685.65 2224.27,1685.85 2221.42,1685.85 L2220.52,1685.85 L2220.52,1688.2 L2251.22,1688.2 L2252.22,1674.85 L2250.02,1674.85 C2248.12,1683.75 2246.07,1685.65 2238.42,1685.85 L2235.12,1685.85 C2232.12,1685.75 2231.37,1685.25 2231.52,1683.45 L2231.52,1670.7 L2232.52,1670.7 C2237.67,1670.5 2239.52,1672.35 2239.72,1677.9 L2242.07,1677.9 L2242.07,1661.5 L2239.72,1661.5 C2239.42,1666.4 2237.47,1668.35 2232.72,1668.35 L2231.52,1668.35 L2231.52,1656.95 C2231.47,1654.85 2231.97,1654.5 2234.67,1654.45 L2237.27,1654.45 C2245.47,1654.4 2247.52,1656.2 2249.12,1664.85 L2251.27,1664.85 L2250.57,1652.1 "/>
<path class="Harmony" d="M1013.8,535.398 L1011.7,535.398 L1000.2,564.548 C998.847,568.448 997.547,569.648 994.697,569.848 L994.497,569.848 L994.497,572.198 L1007.75,572.198 L1007.75,569.848 L1006.75,569.848 C1004.05,569.848 1002.7,568.898 1002.7,566.998 C1002.7,566.348 1002.85,565.748 1003.15,564.898 L1004.8,560.498 L1018.05,560.498 L1020.75,567.198 C1021.05,567.998 1021.15,568.298 1021.15,568.548 C1021.15,569.348 1019.9,569.848 1018.05,569.848 L1015.95,569.848 L1015.95,572.198 L1031.45,572.198 L1031.45,569.848 L1030.75,569.848 C1028.15,569.798 1027.7,569.498 1026.55,566.648 L1013.8,535.398 M1011.35,543.598 L1017,557.798 L1005.8,557.798 L1011.35,543.598 "/>
<path class="Harmony" d="M1043.49,548.898 L1034.59,549.448 L1034.59,551.598 L1036.64,551.598 C1038.54,551.648 1038.79,551.948 1038.79,554.098 L1038.79,568.398 C1038.74,569.148 1038.69,569.448 1038.49,569.698 C1038.14,570.148 1037.19,570.348 1035.04,570.398 L1034.84,570.398 L1034.84,572.198 L1047.44,572.198 L1047.44,570.398 L1047.24,570.398 C1043.94,570.298 1043.49,570.048 1043.49,568.198 L1043.49,558.948 C1043.49,554.498 1045.94,551.198 1049.19,551.198 C1052.04,551.198 1053.49,553.248 1053.49,557.298 L1053.49,568.448 C1053.44,569.098 1053.39,569.448 1053.14,569.698 C1052.84,570.148 1051.84,570.348 1049.69,570.398 L1049.49,570.398 L1049.49,572.198 L1062.14,572.198 L1062.14,570.398 L1061.94,570.398 C1058.64,570.298 1058.19,570.048 1058.19,568.248 L1058.19,559.398 C1058.19,554.398 1060.44,551.198 1063.94,551.198 C1066.79,551.198 1068.19,553.348 1068.19,557.848 L1068.19,568.398 C1068.14,569.098 1068.09,569.448 1067.84,569.698 C1067.54,570.148 1066.54,570.348 1064.39,570.398 L1064.19,570.398 L1064.19,572.198 L1076.84,572.198 L1076.84,570.398 L1076.64,570.398 C1073.34,570.298 1072.89,570.048 1072.89,568.198 L1072.89,556.848 C1072.89,553.748 1072.59,552.698 1071.29,550.998 C1069.84,549.148 1067.79,548.148 1065.39,548.148 C1062.14,548.148 1059.74,549.698 1057.59,553.148 C1056.74,550.148 1054.04,548.148 1050.69,548.148 C1047.64,548.148 1045.44,549.598 1043.49,552.748 L1043.49,548.898 "/>
<path class="Harmony" d="M375.962,1093.4 L373.862,1093.4 L362.362,1122.55 C361.012,1126.45 359.712,1127.65 356.862,1127.85 L356.662,1127.85 L356.662,1130.2 L369.912,1130.2 L369.912,1127.85 L368.912,1127.85 C366.212,1127.85 364.862,1126.9 364.862,1125 C364.862,1124.35 365.012,1123.75 365.312,1122.9 L366.962,1118.5 L380.212,1118.5 L382.912,1125.2 C383.212,1126 383.312,1126.3 383.312,1126.55 C383.312,1127.35 382.062,1127.85 380.212,1127.85 L378.112,1127.85 L378.112,1130.2 L393.612,1130.2 L393.612,1127.85 L392.912,1127.85 C390.312,1127.8 389.862,1127.5 388.712,1124.65 L375.962,1093.4 M373.512,1101.6 L379.162,1115.8 L367.962,1115.8 L373.512,1101.6 "/>
<path class="Harmony" d="M405.658,1106.9 L396.758,1107.45 L396.758,1109.6 L398.808,1109.6 C400.708,1109.65 400.958,1109.95 400.958,1112.1 L400.958,1126.4 C400.908,1127.15 400.858,1127.45 400.658,1127.7 C400.308,1128.15 399.358,1128.35 397.208,1128.4 L397.008,1128.4 L397.008,1130.2 L409.608,1130.2 L409.608,1128.4 L409.408,1128.4 C406.108,1128.3 405.658,1128.05 405.658,1126.2 L405.658,1116.95 C405.658,1112.5 408.108,1109.2 411.358,1109.2 C414.208,1109.2 415.658,1111.25 415.658,1115.3 L415.658,1126.45 C415.608,1127.1 415.558,1127.45 415.308,1127.7 C415.008,1128.15 414.008,1128.35 411.858,1128.4 L411.658,1128.4 L411.658,1130.2 L424.308,1130.2 L424.308,1128.4 L424.108,1128.4 C420.808,1128.3 420.358,1128.05 420.358,1126.25 L420.358,1117.4 C420.358,1112.4 422.608,1109.2 426.108,1109.2 C428.958,1109.2 430.358,1111.35 430.358,1115.85 L430.358,1126.4 C430.308,1127.1 430.258,1127.45 430.008,1127.7 C429.708,1128.15 428.708,1128.35 426.558,1128.4 L426.358,1128.4 L426.358,1130.2 L439.008,1130.2 L439.008,1128.4 L438.808,1128.4 C435.508,1128.3 435.058,1128.05 435.058,1126.2 L435.058,1114.85 C435.058,1111.75 434.758,1110.7 433.458,1109 C432.008,1107.15 429.958,1106.15 427.558,1106.15 C424.308,1106.15 421.908,1107.7 419.758,1111.15 C418.908,1108.15 416.208,1106.15 412.858,1106.15 C409.808,1106.15 407.608,1107.6 405.658,1110.75 L405.658,1106.9 "/>
<path class="Harmony" d="M2564.44,2209.4 L2562.34,2209.4 L2550.84,2238.55 C2549.49,2242.45 2548.19,2243.65 2545.34,2243.85 L2545.14,2243.85 L2545.14,2246.2 L2558.39,2246.2 L2558.39,2243.85 L2557.39,2243.85 C2554.69,2243.85 2553.34,2242.9 2553.34,2241 C2553.34,2240.35 2553.49,2239.75 2553.79,2238.9 L2555.44,2234.5 L2568.69,2234.5 L2571.39,2241.2 C2571.69,2242 2571.79,2242.3 2571.79,2242.55 C2571.79,2243.35 2570.54,2243.85 2568.69,2243.85 L2566.59,2243.85 L2566.59,2246.2 L2582.09,2246.2 L2582.09,2243.85 L2581.39,2243.85 C2578.79,2243.8 2578.34,2243.5 2577.19,2240.65 L2564.44,2209.4 M2561.99,2217.6 L2567.64,2231.8 L2556.44,2231.8 L2561.99,2217.6 "/>
<path class="Harmony" d="M2594.14,2222.9 L2585.24,2223.45 L2585.24,2225.6 L2587.29,2225.6 C2589.19,2225.65 2589.44,2225.95 2589.44,2228.1 L2589.44,2242.4 C2589.39,2243.15 2589.34,2243.45 2589.14,2243.7 C2588.79,2244.15 2587.84,2244.35 2585.69,2244.4 L2585.49,2244.4 L2585.49,2246.2 L2598.09,2246.2 L2598.09,2244.4 L2597.89,2244.4 C2594.59,2244.3 2594.14,2244.05 2594.14,2242.2 L2594.14,2232.95 C2594.14,2228.5 2596.59,2225.2 2599.84,2225.2 C2602.69,2225.2 2604.14,2227.25 2604.14,2231.3 L2604.14,2242.45 C2604.09,2243.1 2604.04,2243.45 2603.79,2243.7 C2603.49,2244.15 2602.49,2244.35 2600.34,2244.4 L2600.14,2244.4 L2600.14,2246.2 L2612.79,2246.2 L2612.79,2244.4 L2612.59,2244.4 C2609.29,2244.3 2608.84,2244.05 2608.84,2242.25 L2608.84,2233.4 C2608.84,2228.4 2611.09,2225.2 2614.59,2225.2 C2617.44,2225.2 2618.84,2227.35 2618.84,2231.85 L2618.84,2242.4 C2618.79,2243.1 2618.74,2243.45 2618.49,2243.7 C2618.19,2244.15 2617.19,2244.35 2615.04,2244.4 L2614.84,2244.4 L2614.84,2246.2 L2627.49,2246.2 L2627.49,2244.4 L2627.29,2244.4 C2623.99,2244.3 2623.54,2244.05 2623.54,2242.2 L2623.54,2230.85 C2623.54,2227.75 2623.24,2226.7 2621.94,2225 C2620.49,2223.15 2618.44,2222.15 2616.04,2222.15 C2612.79,2222.15 2610.39,2223.7 2608.24,2227.15 C2607.39,2224.15 2604.69,2222.15 2601.34,2222.15 C2598.29,2222.15 2596.09,2223.6 2594.14,2226.75 L2594.14,2222.9 "/>
<path class="Harmony" d="M375.962,2209.4 L373.862,2209.4 L362.362,2238.55 C361.012,2242.45 359.712,2243.65 356.862,2243.85 L356.662,2243.85 L356.662,2246.2 L369.912,2246.2 L369.912,2243.85 L368.912,2243.85 C366.212,2243.85 364.862,2242.9 364.862,2241 C364.862,2240.35 365.012,2239.75 365.312,2238.9 L366.962,2234.5 L380.212,2234.5 L382.912,2241.2 C383.212,2242 383.312,2242.3 383.312,2242.55 C383.312,2243.35 382.062,2243.85 380.212,2243.85 L378.112,2243.85 L378.112,2246.2 L393.612,2246.2 L393.612,2243.85 L392.912,2243.85 C390.312,2243.8 389.862,2243.5 388.712,2240.65 L375.962,2209.4 M373.512,2217.6 L379.162,2231.8 L367.962,2231.8 L373.512,2217.6 "/>
<path class="Harmony" d="M405.658,2222.9 L396.758,2223.45 L396.758,2225.6 L398.808,2225.6 C400.708,2225.65 400.958,2225.95 400.958,2228.1 L400.958,2242.4 C400.908,2243.15 400.858,2243.45 400.658,2243.7 C400.308,2244.15 399.358,2244.35 397.208,2244.4 L397.008,2244.4 L397.008,2246.2 L409.608,2246.2 L409.608,2244.4 L409.408,2244.4 C406.108,2244.3 405.658,2244.05 405.658,2242.2 L405.658,2232.95 C405.658,2228.5 408.108,2225.2 411.358,2225.2 C414.208,2225.2 415.658,2227.25 415.658,2231.3 L415.658,2242.45 C415.608,2243.1 415.558,2243.45 415.308,2243.7 C415.008,2244.15 414.008,2244.35 411.858,2244.4 L411.658,2244.4 L411.658,2246.2 L424.308,2246.2 L424.308,2244.4 L424.108,2244.4 C420.808,2244.3 420.358,2244.05 420.358,2242.25 L420.358,2233.4 C420.358,2228.4 422.608,2225.2 426.108,2225.2 C428.958,2225.2 430.358,2227.35 430.358,2231.85 L430.358,2242.4 C430.308,2243.1 430.258,2243.45 430.008,2243.7 C429.708,2244.15 428.708,2244.35 426.558,2244.4 L426.358,2244.4 L426.358,2246.2 L439.008,2246.2 L439.008,2244.4 L438.808,2244.4 C435.508,2244.3 435.058,2244.05 435.058,2242.2 L435.058,2230.85 C435.058,2227.75 434.758,2226.7 433.458,2225 C432.008,2223.15 429.958,2222.15 427.558,2222.15 C424.308,2222.15 421.908,2223.7 419.758,2227.15 C418.908,2224.15 416.208,2222.15 412.858,2222.15 C409.808,2222.15 407.608,2223.6 405.658,2226.75 L405.658,2222.9 "/>
<path class="Harmony" d="M618.215,2209.4 L616.115,2209.4 L604.615,2238.55 C603.265,2242.45 601.965,2243.65 599.115,2243.85 L598.915,2243.85 L598.915,2246.2 L612.165,2246.2 L612.165,2243.85 L611.165,2243.85 C608.465,2243.85 607.115,2242.9 607.115,2241 C607.115,2240.35 607.265,2239.75 607.565,2238.9 L609.215,2234.5 L622.465,2234.5 L625.165,2241.2 C625.465,2242 625.565,2242.3 625.565,2242.55 C625.565,2243.35 624.315,2243.85 622.465,2243.85 L620.365,2243.85 L620.365,2246.2 L635.865,2246.2 L635.865,2243.85 L635.165,2243.85 C632.565,2243.8 632.115,2243.5 630.965,2240.65 L618.215,2209.4 M615.765,2217.6 L621.415,2231.8 L610.215,2231.8 L615.765,2217.6 "/>
<path class="Harmony" d="M647.912,2222.9 L639.012,2223.45 L639.012,2225.6 L641.062,2225.6 C642.962,2225.65 643.212,2225.95 643.212,2228.1 L643.212,2242.4 C643.162,2243.15 643.112,2243.45 642.912,2243.7 C642.562,2244.15 641.612,2244.35 639.462,2244.4 L639.262,2244.4 L639.262,2246.2 L651.862,2246.2 L651.862,2244.4 L651.662,2244.4 C648.362,2244.3 647.912,2244.05 647.912,2242.2 L647.912,2232.95 C647.912,2228.5 650.362,2225.2 653.612,2225.2 C656.462,2225.2 657.912,2227.25 657.912,2231.3 L657.912,2242.45 C657.862,2243.1 657.812,2243.45 657.562,2243.7 C657.262,2244.15 656.262,2244.35 654.112,2244.4 L653.912,2244.4 L653.912,2246.2 L666.562,2246.2 L666.562,2244.4 L666.362,2244.4 C663.062,2244.3 662.612,2244.05 662.612,2242.25 L662.612,2233.4 C662.612,2228.4 664.862,2225.2 668.362,2225.2 C671.212,2225.2 672.612,2227.35 672.612,2231.85 L672.612,2242.4 C672.562,2243.1 672.512,2243.45 672.262,2243.7 C671.962,2244.15 670.962,2244.35 668.812,2244.4 L668.612,2244.4 L668.612,2246.2 L681.262,2246.2 L681.262,2244.4 L681.062,2244.4 C677.762,2244.3 677.312,2244.05 677.312,2242.2 L677.312,2230.85 C677.312,2227.75 677.012,2226.7 675.712,2225 C674.262,2223.15 672.212,2222.15 669.812,2222.15 C666.562,2222.15 664.162,2223.7 662.012,2227.15 C661.162,2224.15 658.462,2222.15 655.112,2222.15 C652.062,2222.15 649.862,2223.6 647.912,2226.75 L647.912,2222.9 "/>
<path class="Harmony" d="M386.733,1652.1 L356.683,1652.1 L356.683,1654.45 L357.583,1654.45 C360.433,1654.5 361.383,1654.65 361.783,1655.15 C362.083,1655.6 362.083,1655.7 362.083,1658.25 L362.083,1682.05 C362.083,1684.6 362.083,1684.7 361.783,1685.15 C361.383,1685.65 360.433,1685.85 357.583,1685.85 L356.683,1685.85 L356.683,1688.2 L387.383,1688.2 L388.383,1674.85 L386.183,1674.85 C384.283,1683.75 382.233,1685.65 374.583,1685.85 L371.283,1685.85 C368.283,1685.75 367.533,1685.25 367.683,1683.45 L367.683,1670.7 L368.683,1670.7 C373.833,1670.5 375.683,1672.35 375.883,1677.9 L378.233,1677.9 L378.233,1661.5 L375.883,1661.5 C375.583,1666.4 373.633,1668.35 368.883,1668.35 L367.683,1668.35 L367.683,1656.95 C367.633,1654.85 368.133,1654.5 370.833,1654.45 L373.433,1654.45 C381.633,1654.4 383.683,1656.2 385.283,1664.85 L387.433,1664.85 L386.733,1652.1 "/>
<path class="Harmony" d="M2578.84,536.098 L2548.79,536.098 L2548.79,538.448 L2549.69,538.448 C2552.54,538.498 2553.49,538.648 2553.89,539.148 C2554.19,539.598 2554.19,539.698 2554.19,542.248 L2554.19,566.048 C2554.19,568.598 2554.19,568.698 2553.89,569.148 C2553.49,569.648 2552.54,569.848 2549.69,569.848 L2548.79,569.848 L2548.79,572.198 L2579.49,572.198 L2580.49,558.848 L2578.29,558.848 C2576.39,567.748 2574.34,569.648 2566.69,569.848 L2563.39,569.848 C2560.39,569.748 2559.64,569.248 2559.79,567.448 L2559.79,554.698 L2560.79,554.698 C2565.94,554.498 2567.79,556.348 2567.99,561.898 L2570.34,561.898 L2570.34,545.498 L2567.99,545.498 C2567.69,550.398 2565.74,552.348 2560.99,552.348 L2559.79,552.348 L2559.79,540.948 C2559.74,538.848 2560.24,538.498 2562.94,538.448 L2565.54,538.448 C2573.74,538.398 2575.79,540.198 2577.39,548.848 L2579.54,548.848 L2578.84,536.098 "/>
<path class="Harmony" d="M2588.83,549.098 L2591.03,549.448 L2591.93,545.498 C2592.68,542.198 2593.03,541.698 2594.48,541.698 C2594.73,541.698 2595.13,541.698 2595.58,541.748 C2601.73,542.048 2601.73,542.048 2604.03,542.048 C2604.68,542.048 2605.83,542.048 2607.23,541.998 L2603.83,548.848 C2600.13,556.198 2599.68,557.098 2598.43,560.198 C2596.88,563.948 2596.08,567.098 2596.08,569.198 C2596.08,571.498 2597.28,572.898 2599.23,572.898 C2601.63,572.898 2602.58,571.298 2602.53,566.948 C2602.28,559.748 2603.18,556.248 2608.53,544.548 C2609.43,542.598 2610.38,540.598 2611.28,538.648 L2611.28,537.198 C2608.28,537.448 2606.68,537.548 2603.58,537.548 C2599.23,537.548 2595.78,537.398 2590.38,536.998 L2588.83,549.098 "/>
<path class="Harmony" d="M414.696,535.398 L412.596,535.398 L401.096,564.548 C399.746,568.448 398.446,569.648 395.596,569.848 L395.396,569.848 L395.396,572.198 L408.646,572.198 L408.646,569.848 L407.646,569.848 C404.946,569.848 403.596,568.898 403.596,566.998 C403.596,566.348 403.746,565.748 404.046,564.898 L405.696,560.498 L418.946,560.498 L421.646,567.198 C421.946,567.998 422.046,568.298 422.046,568.548 C422.046,569.348 420.796,569.848 418.946,569.848 L416.846,569.848 L416.846,572.198 L432.346,572.198 L432.346,569.848 L431.646,569.848 C429.046,569.798 428.596,569.498 427.446,566.648 L414.696,535.398 M412.246,543.598 L417.896,557.798 L406.696,557.798 L412.246,543.598 "/>
<path class="Harmony" d="M444.393,548.898 L435.493,549.448 L435.493,551.598 L437.543,551.598 C439.443,551.648 439.693,551.948 439.693,554.098 L439.693,568.398 C439.643,569.148 439.593,569.448 439.393,569.698 C439.043,570.148 438.093,570.348 435.943,570.398 L435.743,570.398 L435.743,572.198 L448.343,572.198 L448.343,570.398 L448.143,570.398 C444.843,570.298 444.393,570.048 444.393,568.198 L444.393,558.948 C444.393,554.498 446.843,551.198 450.093,551.198 C452.943,551.198 454.393,553.248 454.393,557.298 L454.393,568.448 C454.343,569.098 454.293,569.448 454.043,569.698 C453.743,570.148 452.743,570.348 450.593,570.398 L450.393,570.398 L450.393,572.198 L463.043,572.198 L463.043,570.398 L462.843,570.398 C459.543,570.298 459.093,570.048 459.093,568.248 L459.093,559.398 C459.093,554.398 461.343,551.198 464.843,551.198 C467.693,551.198 469.093,553.348 469.093,557.848 L469.093,568.398 C469.043,569.098 468.993,569.448 468.743,569.698 C468.443,570.148 467.443,570.348 465.293,570.398 L465.093,570.398 L465.093,572.198 L477.743,572.198 L477.743,570.398 L477.543,570.398 C474.243,570.298 473.793,570.048 473.793,568.198 L473.793,556.848 C473.793,553.748 473.493,552.698 472.193,550.998 C470.743,549.148 468.693,548.148 466.293,548.148 C463.043,548.148 460.643,549.698 458.493,553.148 C457.643,550.148 454.943,548.148 451.593,548.148 C448.543,548.148 446.343,549.598 444.393,552.748 L444.393,548.898 "/>
<path class="Harmony" d="M2349.45,2209.4 L2347.35,2209.4 L2335.85,2238.55 C2334.5,2242.45 2333.2,2243.65 2330.35,2243.85 L2330.15,2243.85 L2330.15,2246.2 L2343.4,2246.2 L2343.4,2243.85 L2342.4,2243.85 C2339.7,2243.85 2338.35,2242.9 2338.35,2241 C2338.35,2240.35 2338.5,2239.75 2338.8,2238.9 L2340.45,2234.5 L2353.7,2234.5 L2356.4,2241.2 C2356.7,2242 2356.8,2242.3 2356.8,2242.55 C2356.8,2243.35 2355.55,2243.85 2353.7,2243.85 L2351.6,2243.85 L2351.6,2246.2 L2367.1,2246.2 L2367.1,2243.85 L2366.4,2243.85 C2363.8,2243.8 2363.35,2243.5 2362.2,2240.65 L2349.45,2209.4 M2347,2217.6 L2352.65,2231.8 L2341.45,2231.8 L2347,2217.6 "/>
<path class="Harmony" d="M2379.15,2222.9 L2370.25,2223.45 L2370.25,2225.6 L2372.3,2225.6 C2374.2,2225.65 2374.45,2225.95 2374.45,2228.1 L2374.45,2242.4 C2374.4,2243.15 2374.35,2243.45 2374.15,2243.7 C2373.8,2244.15 2372.85,2244.35 2370.7,2244.4 L2370.5,2244.4 L2370.5,2246.2 L2383.1,2246.2 L2383.1,2244.4 L2382.9,2244.4 C2379.6,2244.3 2379.15,2244.05 2379.15,2242.2 L2379.15,2232.95 C2379.15,2228.5 2381.6,2225.2 2384.85,2225.2 C2387.7,2225.2 2389.15,2227.25 2389.15,2231.3 L2389.15,2242.45 C2389.1,2243.1 2389.05,2243.45 2388.8,2243.7 C2388.5,2244.15 2387.5,2244.35 2385.35,2244.4 L2385.15,2244.4 L2385.15,2246.2 L2397.8,2246.2 L2397.8,2244.4 L2397.6,2244.4 C2394.3,2244.3 2393.85,2244.05 2393.85,2242.25 L2393.85,2233.4 C2393.85,2228.4 2396.1,2225.2 2399.6,2225.2 C2402.45,2225.2 2403.85,2227.35 2403.85,2231.85 L2403.85,2242.4 C2403.8,2243.1 2403.75,2243.45 2403.5,2243.7 C2403.2,2244.15 2402.2,2244.35 2400.05,2244.4 L2399.85,2244.4 L2399.85,2246.2 L2412.5,2246.2 L2412.5,2244.4 L2412.3,2244.4 C2409,2244.3 2408.55,2244.05 2408.55,2242.2 L2408.55,2230.85 C2408.55,2227.75 2408.25,2226.7 2406.95,2225 C2405.5,2223.15 2403.45,2222.15 2401.05,2222.15 C2397.8,2222.15 2395.4,2223.7 2393.25,2227.15 C2392.4,2224.15 2389.7,2222.15 2386.35,2222.15 C2383.3,2222.15 2381.1,2223.6 2379.15,2226.75 L2379.15,2222.9 "/>
<path class="Harmony" d="M2367.47,536.098 L2337.42,536.098 L2337.42,538.448 L2338.32,538.448 C2341.17,538.498 2342.12,538.648 2342.52,539.148 C2342.82,539.598 2342.82,539.698 2342.82,542.248 L2342.82,566.048 C2342.82,568.598 2342.82,568.698 2342.52,569.148 C2342.12,569.648 2341.17,569.848 2338.32,569.848 L2337.42,569.848 L2337.42,572.198 L2368.12,572.198 L2369.12,558.848 L2366.92,558.848 C2365.02,567.748 2362.97,569.648 2355.32,569.848 L2352.02,569.848 C2349.02,569.748 2348.27,569.248 2348.42,567.448 L2348.42,554.698 L2349.42,554.698 C2354.57,554.498 2356.42,556.348 2356.62,561.898 L2358.97,561.898 L2358.97,545.498 L2356.62,545.498 C2356.32,550.398 2354.37,552.348 2349.62,552.348 L2348.42,552.348 L2348.42,540.948 C2348.37,538.848 2348.87,538.498 2351.57,538.448 L2354.17,538.448 C2362.37,538.398 2364.42,540.198 2366.02,548.848 L2368.17,548.848 L2367.47,536.098 "/>
<path class="Harmony" d="M2377.47,549.098 L2379.67,549.448 L2380.57,545.498 C2381.32,542.198 2381.67,541.698 2383.12,541.698 C2383.37,541.698 2383.77,541.698 2384.22,541.748 C2390.37,542.048 2390.37,542.048 2392.67,542.048 C2393.32,542.048 2394.47,542.048 2395.87,541.998 L2392.47,548.848 C2388.77,556.198 2388.32,557.098 2387.07,560.198 C2385.52,563.948 2384.72,567.098 2384.72,569.198 C2384.72,571.498 2385.92,572.898 2387.87,572.898 C2390.27,572.898 2391.22,571.298 2391.17,566.948 C2390.92,559.748 2391.82,556.248 2397.17,544.548 C2398.07,542.598 2399.02,540.598 2399.92,538.648 L2399.92,537.198 C2396.92,537.448 2395.32,537.548 2392.22,537.548 C2387.87,537.548 2384.42,537.398 2379.02,536.998 L2377.47,549.098 "/>
<path class="Harmony" d="M662.614,1093.4 L660.514,1093.4 L649.014,1122.55 C647.664,1126.45 646.364,1127.65 643.514,1127.85 L643.314,1127.85 L643.314,1130.2 L656.564,1130.2 L656.564,1127.85 L655.564,1127.85 C652.864,1127.85 651.514,1126.9 651.514,1125 C651.514,1124.35 651.664,1123.75 651.964,1122.9 L653.614,1118.5 L666.864,1118.5 L669.564,1125.2 C669.864,1126 669.964,1126.3 669.964,1126.55 C669.964,1127.35 668.714,1127.85 666.864,1127.85 L664.764,1127.85 L664.764,1130.2 L680.264,1130.2 L680.264,1127.85 L679.564,1127.85 C676.964,1127.8 676.514,1127.5 675.364,1124.65 L662.614,1093.4 M660.164,1101.6 L665.814,1115.8 L654.614,1115.8 L660.164,1101.6 "/>
<path class="Harmony" d="M692.311,1106.9 L683.411,1107.45 L683.411,1109.6 L685.461,1109.6 C687.361,1109.65 687.611,1109.95 687.611,1112.1 L687.611,1126.4 C687.561,1127.15 687.511,1127.45 687.311,1127.7 C686.961,1128.15 686.011,1128.35 683.861,1128.4 L683.661,1128.4 L683.661,1130.2 L696.261,1130.2 L696.261,1128.4 L696.061,1128.4 C692.761,1128.3 692.311,1128.05 692.311,1126.2 L692.311,1116.95 C692.311,1112.5 694.761,1109.2 698.011,1109.2 C700.861,1109.2 702.311,1111.25 702.311,1115.3 L702.311,1126.45 C702.261,1127.1 702.211,1127.45 701.961,1127.7 C701.661,1128.15 700.661,1128.35 698.511,1128.4 L698.311,1128.4 L698.311,1130.2 L710.961,1130.2 L710.961,1128.4 L710.761,1128.4 C707.461,1128.3 707.011,1128.05 707.011,1126.25 L707.011,1117.4 C707.011,1112.4 709.261,1109.2 712.761,1109.2 C715.611,1109.2 717.011,1111.35 717.011,1115.85 L717.011,1126.4 C716.961,1127.1 716.911,1127.45 716.661,1127.7 C716.361,1128.15 715.361,1128.35 713.211,1128.4 L713.011,1128.4 L713.011,1130.2 L725.661,1130.2 L725.661,1128.4 L725.461,1128.4 C722.161,1128.3 721.711,1128.05 721.711,1126.2 L721.711,1114.85 C721.711,1111.75 721.411,1110.7 720.111,1109 C718.661,1107.15 716.611,1106.15 714.211,1106.15 C710.961,1106.15 708.561,1107.7 706.411,1111.15 C705.561,1108.15 702.861,1106.15 699.511,1106.15 C696.461,1106.15 694.261,1107.6 692.311,1110.75 L692.311,1106.9 "/>
<path class="Harmony" d="M1867.5,1651.75 L1865.6,1651.75 L1863.65,1654.75 C1860.4,1652.2 1858.2,1651.35 1854.55,1651.35 C1850.6,1651.35 1847.5,1652.45 1844.35,1655 C1839.4,1659 1837.1,1664.05 1837.1,1670.8 C1837.1,1675.9 1838.55,1680.15 1841.5,1683.4 C1844.6,1686.9 1849.2,1688.95 1854,1688.95 C1858.2,1688.95 1861.15,1687.65 1864.4,1684.4 L1866.25,1688.9 L1868.35,1688.9 L1868.35,1677.9 C1868.35,1675.35 1868.35,1675.25 1868.65,1674.8 C1869.1,1674.25 1870,1674.1 1872.85,1674.1 L1873.6,1674.1 L1873.6,1671.75 L1857.7,1671.75 L1857.7,1674.1 L1858.65,1674.1 C1862.85,1674.1 1863.2,1674.35 1863.2,1677.15 C1863.2,1679.3 1862.85,1681.25 1862.2,1682.45 C1860.95,1684.9 1857.75,1686.6 1854.5,1686.6 C1851.25,1686.6 1848.05,1684.95 1846.35,1682.45 C1844.5,1679.65 1843.7,1676.15 1843.7,1670.8 C1843.7,1659.65 1847.4,1653.7 1854.35,1653.7 C1860.05,1653.7 1864,1657.8 1866.05,1665.8 L1868.2,1665.8 L1867.5,1651.75 "/>
<path class="Harmony" d="M1879.29,1665.1 L1881.49,1665.45 L1882.39,1661.5 C1883.14,1658.2 1883.49,1657.7 1884.94,1657.7 C1885.19,1657.7 1885.59,1657.7 1886.04,1657.75 C1892.19,1658.05 1892.19,1658.05 1894.49,1658.05 C1895.14,1658.05 1896.29,1658.05 1897.69,1658 L1894.29,1664.85 C1890.59,1672.2 1890.14,1673.1 1888.89,1676.2 C1887.34,1679.95 1886.54,1683.1 1886.54,1685.2 C1886.54,1687.5 1887.74,1688.9 1889.69,1688.9 C1892.09,1688.9 1893.04,1687.3 1892.99,1682.95 C1892.74,1675.75 1893.64,1672.25 1898.99,1660.55 C1899.89,1658.6 1900.84,1656.6 1901.74,1654.65 L1901.74,1653.2 C1898.74,1653.45 1897.14,1653.55 1894.04,1653.55 C1889.69,1653.55 1886.24,1653.4 1880.84,1653 L1879.29,1665.1 "/>
<path class="Harmony" d="M976.68,2210.1 L946.63,2210.1 L946.63,2212.45 L947.53,2212.45 C950.38,2212.5 951.33,2212.65 951.73,2213.15 C952.03,2213.6 952.03,2213.7 952.03,2216.25 L952.03,2240.05 C952.03,2242.6 952.03,2242.7 951.73,2243.15 C951.33,2243.65 950.38,2243.85 947.53,2243.85 L946.63,2243.85 L946.63,2246.2 L977.33,2246.2 L978.33,2232.85 L976.13,2232.85 C974.23,2241.75 972.18,2243.65 964.53,2243.85 L961.23,2243.85 C958.23,2243.75 957.48,2243.25 957.63,2241.45 L957.63,2228.7 L958.63,2228.7 C963.78,2228.5 965.63,2230.35 965.83,2235.9 L968.18,2235.9 L968.18,2219.5 L965.83,2219.5 C965.53,2224.4 963.58,2226.35 958.83,2226.35 L957.63,2226.35 L957.63,2214.95 C957.58,2212.85 958.08,2212.5 960.78,2212.45 L963.38,2212.45 C971.58,2212.4 973.63,2214.2 975.23,2222.85 L977.38,2222.85 L976.68,2210.1 "/>
<path class="Harmony" d="M986.677,2223.1 L988.877,2223.45 L989.777,2219.5 C990.527,2216.2 990.877,2215.7 992.327,2215.7 C992.577,2215.7 992.977,2215.7 993.427,2215.75 C999.577,2216.05 999.577,2216.05 1001.88,2216.05 C1002.53,2216.05 1003.68,2216.05 1005.08,2216 L1001.68,2222.85 C997.977,2230.2 997.527,2231.1 996.277,2234.2 C994.727,2237.95 993.927,2241.1 993.927,2243.2 C993.927,2245.5 995.127,2246.9 997.077,2246.9 C999.477,2246.9 1000.43,2245.3 1000.38,2240.95 C1000.13,2233.75 1001.03,2230.25 1006.38,2218.55 C1007.28,2216.6 1008.23,2214.6 1009.13,2212.65 L1009.13,2211.2 C1006.13,2211.45 1004.53,2211.55 1001.43,2211.55 C997.077,2211.55 993.627,2211.4 988.227,2211 L986.677,2223.1 "/>
<path class="Harmony" d="M656.55,1652.1 L626.5,1652.1 L626.5,1654.45 L627.4,1654.45 C630.25,1654.5 631.2,1654.65 631.6,1655.15 C631.9,1655.6 631.9,1655.7 631.9,1658.25 L631.9,1682.05 C631.9,1684.6 631.9,1684.7 631.6,1685.15 C631.2,1685.65 630.25,1685.85 627.4,1685.85 L626.5,1685.85 L626.5,1688.2 L657.2,1688.2 L658.2,1674.85 L656,1674.85 C654.1,1683.75 652.05,1685.65 644.4,1685.85 L641.1,1685.85 C638.1,1685.75 637.35,1685.25 637.5,1683.45 L637.5,1670.7 L638.5,1670.7 C643.65,1670.5 645.5,1672.35 645.7,1677.9 L648.05,1677.9 L648.05,1661.5 L645.7,1661.5 C645.4,1666.4 643.45,1668.35 638.7,1668.35 L637.5,1668.35 L637.5,1656.95 C637.45,1654.85 637.95,1654.5 640.65,1654.45 L643.25,1654.45 C651.45,1654.4 653.5,1656.2 655.1,1664.85 L657.25,1664.85 L656.55,1652.1 "/>
<path class="Harmony" d="M1585.79,1093.75 L1583.89,1093.75 L1581.94,1096.75 C1578.69,1094.2 1576.49,1093.35 1572.84,1093.35 C1568.89,1093.35 1565.79,1094.45 1562.64,1097 C1557.69,1101 1555.39,1106.05 1555.39,1112.8 C1555.39,1117.9 1556.84,1122.15 1559.79,1125.4 C1562.89,1128.9 1567.49,1130.95 1572.29,1130.95 C1576.49,1130.95 1579.44,1129.65 1582.69,1126.4 L1584.54,1130.9 L1586.64,1130.9 L1586.64,1119.9 C1586.64,1117.35 1586.64,1117.25 1586.94,1116.8 C1587.39,1116.25 1588.29,1116.1 1591.14,1116.1 L1591.89,1116.1 L1591.89,1113.75 L1575.99,1113.75 L1575.99,1116.1 L1576.94,1116.1 C1581.14,1116.1 1581.49,1116.35 1581.49,1119.15 C1581.49,1121.3 1581.14,1123.25 1580.49,1124.45 C1579.24,1126.9 1576.04,1128.6 1572.79,1128.6 C1569.54,1128.6 1566.34,1126.95 1564.64,1124.45 C1562.79,1121.65 1561.99,1118.15 1561.99,1112.8 C1561.99,1101.65 1565.69,1095.7 1572.64,1095.7 C1578.34,1095.7 1582.29,1099.8 1584.34,1107.8 L1586.49,1107.8 L1585.79,1093.75 "/>
<path class="Harmony" d="M1597.59,1107.1 L1599.79,1107.45 L1600.69,1103.5 C1601.44,1100.2 1601.79,1099.7 1603.24,1099.7 C1603.49,1099.7 1603.89,1099.7 1604.34,1099.75 C1610.49,1100.05 1610.49,1100.05 1612.79,1100.05 C1613.44,1100.05 1614.59,1100.05 1615.99,1100 L1612.59,1106.85 C1608.89,1114.2 1608.44,1115.1 1607.19,1118.2 C1605.64,1121.95 1604.84,1125.1 1604.84,1127.2 C1604.84,1129.5 1606.04,1130.9 1607.99,1130.9 C1610.39,1130.9 1611.34,1129.3 1611.29,1124.95 C1611.04,1117.75 1611.94,1114.25 1617.29,1102.55 C1618.19,1100.6 1619.14,1098.6 1620.04,1096.65 L1620.04,1095.2 C1617.04,1095.45 1615.44,1095.55 1612.34,1095.55 C1607.99,1095.55 1604.54,1095.4 1599.14,1095 L1597.59,1107.1 "/>
<path class="Harmony" d="M1263.33,2210.1 L1233.28,2210.1 L1233.28,2212.45 L1234.18,2212.45 C1237.03,2212.5 1237.98,2212.65 1238.38,2213.15 C1238.68,2213.6 1238.68,2213.7 1238.68,2216.25 L1238.68,2240.05 C1238.68,2242.6 1238.68,2242.7 1238.38,2243.15 C1237.98,2243.65 1237.03,2243.85 1234.18,2243.85 L1233.28,2243.85 L1233.28,2246.2 L1263.98,2246.2 L1264.98,2232.85 L1262.78,2232.85 C1260.88,2241.75 1258.83,2243.65 1251.18,2243.85 L1247.88,2243.85 C1244.88,2243.75 1244.13,2243.25 1244.28,2241.45 L1244.28,2228.7 L1245.28,2228.7 C1250.43,2228.5 1252.28,2230.35 1252.48,2235.9 L1254.83,2235.9 L1254.83,2219.5 L1252.48,2219.5 C1252.18,2224.4 1250.23,2226.35 1245.48,2226.35 L1244.28,2226.35 L1244.28,2214.95 C1244.23,2212.85 1244.73,2212.5 1247.43,2212.45 L1250.03,2212.45 C1258.23,2212.4 1260.28,2214.2 1261.88,2222.85 L1264.03,2222.85 L1263.33,2210.1 "/>
<path class="Harmony" d="M1273.33,2223.1 L1275.53,2223.45 L1276.43,2219.5 C1277.18,2216.2 1277.53,2215.7 1278.98,2215.7 C1279.23,2215.7 1279.63,2215.7 1280.08,2215.75 C1286.23,2216.05 1286.23,2216.05 1288.53,2216.05 C1289.18,2216.05 1290.33,2216.05 1291.73,2216 L1288.33,2222.85 C1284.63,2230.2 1284.18,2231.1 1282.93,2234.2 C1281.38,2237.95 1280.58,2241.1 1280.58,2243.2 C1280.58,2245.5 1281.78,2246.9 1283.73,2246.9 C1286.13,2246.9 1287.08,2245.3 1287.03,2240.95 C1286.78,2233.75 1287.68,2230.25 1293.03,2218.55 C1293.93,2216.6 1294.88,2214.6 1295.78,2212.65 L1295.78,2211.2 C1292.78,2211.45 1291.18,2211.55 1288.08,2211.55 C1283.73,2211.55 1280.28,2211.4 1274.88,2211 L1273.33,2223.1 "/>
<path class="Harmony" d="M1519.56,1651.75 L1517.66,1651.75 L1515.71,1654.75 C1512.46,1652.2 1510.26,1651.35 1506.61,1651.35 C1502.66,1651.35 1499.56,1652.45 1496.41,1655 C1491.46,1659 1489.16,1664.05 1489.16,1670.8 C1489.16,1675.9 1490.61,1680.15 1493.56,1683.4 C1496.66,1686.9 1501.26,1688.95 1506.06,1688.95 C1510.26,1688.95 1513.21,1687.65 1516.46,1684.4 L1518.31,1688.9 L1520.41,1688.9 L1520.41,1677.9 C1520.41,1675.35 1520.41,1675.25 1520.71,1674.8 C1521.16,1674.25 1522.06,1674.1 1524.91,1674.1 L1525.66,1674.1 L1525.66,1671.75 L1509.76,1671.75 L1509.76,1674.1 L1510.71,1674.1 C1514.91,1674.1 1515.26,1674.35 1515.26,1677.15 C1515.26,1679.3 1514.91,1681.25 1514.26,1682.45 C1513.01,1684.9 1509.81,1686.6 1506.56,1686.6 C1503.31,1686.6 1500.11,1684.95 1498.41,1682.45 C1496.56,1679.65 1495.76,1676.15 1495.76,1670.8 C1495.76,1659.65 1499.46,1653.7 1506.41,1653.7 C1512.11,1653.7 1516.06,1657.8 1518.11,1665.8 L1520.26,1665.8 L1519.56,1651.75 "/>
<path class="Harmony" d="M1531.35,1665.1 L1533.55,1665.45 L1534.45,1661.5 C1535.2,1658.2 1535.55,1657.7 1537,1657.7 C1537.25,1657.7 1537.65,1657.7 1538.1,1657.75 C1544.25,1658.05 1544.25,1658.05 1546.55,1658.05 C1547.2,1658.05 1548.35,1658.05 1549.75,1658 L1546.35,1664.85 C1542.65,1672.2 1542.2,1673.1 1540.95,1676.2 C1539.4,1679.95 1538.6,1683.1 1538.6,1685.2 C1538.6,1687.5 1539.8,1688.9 1541.75,1688.9 C1544.15,1688.9 1545.1,1687.3 1545.05,1682.95 C1544.8,1675.75 1545.7,1672.25 1551.05,1660.55 C1551.95,1658.6 1552.9,1656.6 1553.8,1654.65 L1553.8,1653.2 C1550.8,1653.45 1549.2,1653.55 1546.1,1653.55 C1541.75,1653.55 1538.3,1653.4 1532.9,1653 L1531.35,1665.1 "/>
<path class="Harmony" d="M1251.97,535.398 L1249.87,535.398 L1238.37,564.548 C1237.02,568.448 1235.72,569.648 1232.87,569.848 L1232.67,569.848 L1232.67,572.198 L1245.92,572.198 L1245.92,569.848 L1244.92,569.848 C1242.22,569.848 1240.87,568.898 1240.87,566.998 C1240.87,566.348 1241.02,565.748 1241.32,564.898 L1242.97,560.498 L1256.22,560.498 L1258.92,567.198 C1259.22,567.998 1259.32,568.298 1259.32,568.548 C1259.32,569.348 1258.07,569.848 1256.22,569.848 L1254.12,569.848 L1254.12,572.198 L1269.62,572.198 L1269.62,569.848 L1268.92,569.848 C1266.32,569.798 1265.87,569.498 1264.72,566.648 L1251.97,535.398 M1249.52,543.598 L1255.17,557.798 L1243.97,557.798 L1249.52,543.598 "/>
<path class="Harmony" d="M1281.66,548.898 L1272.76,549.448 L1272.76,551.598 L1274.81,551.598 C1276.71,551.648 1276.96,551.948 1276.96,554.098 L1276.96,568.398 C1276.91,569.148 1276.86,569.448 1276.66,569.698 C1276.31,570.148 1275.36,570.348 1273.21,570.398 L1273.01,570.398 L1273.01,572.198 L1285.61,572.198 L1285.61,570.398 L1285.41,570.398 C1282.11,570.298 1281.66,570.048 1281.66,568.198 L1281.66,558.948 C1281.66,554.498 1284.11,551.198 1287.36,551.198 C1290.21,551.198 1291.66,553.248 1291.66,557.298 L1291.66,568.448 C1291.61,569.098 1291.56,569.448 1291.31,569.698 C1291.01,570.148 1290.01,570.348 1287.86,570.398 L1287.66,570.398 L1287.66,572.198 L1300.31,572.198 L1300.31,570.398 L1300.11,570.398 C1296.81,570.298 1296.36,570.048 1296.36,568.248 L1296.36,559.398 C1296.36,554.398 1298.61,551.198 1302.11,551.198 C1304.96,551.198 1306.36,553.348 1306.36,557.848 L1306.36,568.398 C1306.31,569.098 1306.26,569.448 1306.01,569.698 C1305.71,570.148 1304.71,570.348 1302.56,570.398 L1302.36,570.398 L1302.36,572.198 L1315.01,572.198 L1315.01,570.398 L1314.81,570.398 C1311.51,570.298 1311.06,570.048 1311.06,568.198 L1311.06,556.848 C1311.06,553.748 1310.76,552.698 1309.46,550.998 C1308.01,549.148 1305.96,548.148 1303.56,548.148 C1300.31,548.148 1297.91,549.698 1295.76,553.148 C1294.91,550.148 1292.21,548.148 1288.86,548.148 C1285.81,548.148 1283.61,549.598 1281.66,552.748 L1281.66,548.898 "/>
<path class="Harmony" d="M2359.86,1093.75 L2357.96,1093.75 L2355.96,1096.7 C2352.31,1094.05 2350.46,1093.35 2347.01,1093.35 C2342.26,1093.35 2338.21,1095.35 2334.86,1099.35 C2331.66,1103.15 2330.16,1107.35 2330.16,1112.5 C2330.16,1123.3 2337.21,1130.95 2347.06,1130.95 C2355.06,1130.95 2360.16,1126.25 2361.31,1117.85 L2358.96,1117.45 C2357.61,1124.9 2353.81,1128.6 2347.66,1128.6 C2340.26,1128.6 2336.76,1123.5 2336.76,1112.7 C2336.76,1107 2337.51,1103.25 2339.21,1100.25 C2340.76,1097.45 2343.81,1095.7 2347.06,1095.7 C2350.56,1095.7 2353.66,1097.55 2355.56,1100.75 C2356.51,1102.4 2357.21,1104.25 2358.41,1108.2 L2360.61,1108.2 L2359.86,1093.75 "/>
<path class="Harmony" d="M1604.87,536.098 L1575.12,536.098 L1575.12,538.448 L1576.02,538.448 C1578.87,538.498 1579.82,538.648 1580.22,539.148 C1580.52,539.598 1580.52,539.698 1580.52,542.248 L1580.52,566.048 C1580.52,568.598 1580.52,568.698 1580.22,569.148 C1579.82,569.648 1578.87,569.848 1576.02,569.848 L1575.12,569.848 L1575.12,572.198 L1592.27,572.198 L1592.27,569.848 L1590.62,569.848 C1587.77,569.848 1586.82,569.648 1586.42,569.148 C1586.12,568.698 1586.12,568.548 1586.12,566.048 L1586.12,554.698 L1587.12,554.698 C1592.27,554.498 1594.12,556.348 1594.32,561.898 L1596.67,561.898 L1596.67,545.498 L1594.32,545.498 C1594.02,550.398 1592.07,552.298 1587.32,552.348 L1586.12,552.348 L1586.12,540.948 C1586.07,538.848 1586.57,538.498 1589.27,538.448 L1591.57,538.448 C1599.77,538.398 1601.82,540.248 1603.37,548.848 L1605.57,548.848 L1604.87,536.098 "/>
<path class="Harmony" d="M965.452,1130.2 L982.252,1130.2 C986.702,1130.2 990.102,1129.5 992.752,1128 C997.802,1125.15 1000.6,1119.45 1000.6,1111.95 C1000.6,1105.05 998.102,1099.65 993.502,1096.65 C990.752,1094.9 987.052,1094.1 981.352,1094.1 L965.452,1094.1 L965.452,1096.45 L966.402,1096.45 C969.202,1096.5 970.152,1096.65 970.552,1097.15 C970.852,1097.6 970.852,1097.7 970.852,1100.25 L970.852,1124.05 C970.852,1126.6 970.852,1126.7 970.552,1127.15 C970.152,1127.65 969.202,1127.8 966.402,1127.85 L965.452,1127.85 L965.452,1130.2 M979.302,1127.85 C976.752,1127.85 976.452,1127.55 976.452,1125.1 L976.452,1099.25 C976.452,1096.8 976.802,1096.45 979.302,1096.45 L981.902,1096.45 C990.452,1096.45 994.002,1101.1 994.002,1112.15 C994.002,1123.35 990.802,1127.85 982.702,1127.85 L979.302,1127.85 "/>
<path class="Harmony" d="M1015.4,1106.9 L1006.5,1107.45 L1006.5,1109.6 L1008.55,1109.6 C1010.45,1109.65 1010.7,1109.95 1010.7,1112.1 L1010.7,1126.4 C1010.65,1127.15 1010.6,1127.45 1010.4,1127.7 C1010.05,1128.15 1009.1,1128.35 1006.95,1128.4 L1006.75,1128.4 L1006.75,1130.2 L1019.35,1130.2 L1019.35,1128.4 L1019.15,1128.4 C1015.85,1128.3 1015.4,1128.05 1015.4,1126.2 L1015.4,1116.95 C1015.4,1112.5 1017.85,1109.2 1021.1,1109.2 C1023.95,1109.2 1025.4,1111.25 1025.4,1115.3 L1025.4,1126.45 C1025.35,1127.1 1025.3,1127.45 1025.05,1127.7 C1024.75,1128.15 1023.75,1128.35 1021.6,1128.4 L1021.4,1128.4 L1021.4,1130.2 L1034.05,1130.2 L1034.05,1128.4 L1033.85,1128.4 C1030.55,1128.3 1030.1,1128.05 1030.1,1126.25 L1030.1,1117.4 C1030.1,1112.4 1032.35,1109.2 1035.85,1109.2 C1038.7,1109.2 1040.1,1111.35 1040.1,1115.85 L1040.1,1126.4 C1040.05,1127.1 1040,1127.45 1039.75,1127.7 C1039.45,1128.15 1038.45,1128.35 1036.3,1128.4 L1036.1,1128.4 L1036.1,1130.2 L1048.75,1130.2 L1048.75,1128.4 L1048.55,1128.4 C1045.25,1128.3 1044.8,1128.05 1044.8,1126.2 L1044.8,1114.85 C1044.8,1111.75 1044.5,1110.7 1043.2,1109 C1041.75,1107.15 1039.7,1106.15 1037.3,1106.15 C1034.05,1106.15 1031.65,1107.7 1029.5,1111.15 C1028.65,1108.15 1025.95,1106.15 1022.6,1106.15 C1019.55,1106.15 1017.35,1107.6 1015.4,1110.75 L1015.4,1106.9 "/>
<path class="Harmony" d="M1207.71,1130.2 L1224.51,1130.2 C1228.96,1130.2 1232.36,1129.5 1235.01,1128 C1240.06,1125.15 1242.86,1119.45 1242.86,1111.95 C1242.86,1105.05 1240.36,1099.65 1235.76,1096.65 C1233.01,1094.9 1229.31,1094.1 1223.61,1094.1 L1207.71,1094.1 L1207.71,1096.45 L1208.66,1096.45 C1211.46,1096.5 1212.41,1096.65 1212.81,1097.15 C1213.11,1097.6 1213.11,1097.7 1213.11,1100.25 L1213.11,1124.05 C1213.11,1126.6 1213.11,1126.7 1212.81,1127.15 C1212.41,1127.65 1211.46,1127.8 1208.66,1127.85 L1207.71,1127.85 L1207.71,1130.2 M1221.56,1127.85 C1219.01,1127.85 1218.71,1127.55 1218.71,1125.1 L1218.71,1099.25 C1218.71,1096.8 1219.06,1096.45 1221.56,1096.45 L1224.16,1096.45 C1232.71,1096.45 1236.26,1101.1 1236.26,1112.15 C1236.26,1123.35 1233.06,1127.85 1224.96,1127.85 L1221.56,1127.85 "/>
<path class="Harmony" d="M1257.65,1106.9 L1248.75,1107.45 L1248.75,1109.6 L1250.8,1109.6 C1252.7,1109.65 1252.95,1109.95 1252.95,1112.1 L1252.95,1126.4 C1252.9,1127.15 1252.85,1127.45 1252.65,1127.7 C1252.3,1128.15 1251.35,1128.35 1249.2,1128.4 L1249,1128.4 L1249,1130.2 L1261.6,1130.2 L1261.6,1128.4 L1261.4,1128.4 C1258.1,1128.3 1257.65,1128.05 1257.65,1126.2 L1257.65,1116.95 C1257.65,1112.5 1260.1,1109.2 1263.35,1109.2 C1266.2,1109.2 1267.65,1111.25 1267.65,1115.3 L1267.65,1126.45 C1267.6,1127.1 1267.55,1127.45 1267.3,1127.7 C1267,1128.15 1266,1128.35 1263.85,1128.4 L1263.65,1128.4 L1263.65,1130.2 L1276.3,1130.2 L1276.3,1128.4 L1276.1,1128.4 C1272.8,1128.3 1272.35,1128.05 1272.35,1126.25 L1272.35,1117.4 C1272.35,1112.4 1274.6,1109.2 1278.1,1109.2 C1280.95,1109.2 1282.35,1111.35 1282.35,1115.85 L1282.35,1126.4 C1282.3,1127.1 1282.25,1127.45 1282,1127.7 C1281.7,1128.15 1280.7,1128.35 1278.55,1128.4 L1278.35,1128.4 L1278.35,1130.2 L1291,1130.2 L1291,1128.4 L1290.8,1128.4 C1287.5,1128.3 1287.05,1128.05 1287.05,1126.2 L1287.05,1114.85 C1287.05,1111.75 1286.75,1110.7 1285.45,1109 C1284,1107.15 1281.95,1106.15 1279.55,1106.15 C1276.3,1106.15 1273.9,1107.7 1271.75,1111.15 C1270.9,1108.15 1268.2,1106.15 1264.85,1106.15 C1261.8,1106.15 1259.6,1107.6 1257.65,1110.75 L1257.65,1106.9 "/>
<path class="Harmony" d="M1574.68,2209.4 L1572.58,2209.4 L1561.08,2238.55 C1559.73,2242.45 1558.43,2243.65 1555.58,2243.85 L1555.38,2243.85 L1555.38,2246.2 L1568.63,2246.2 L1568.63,2243.85 L1567.63,2243.85 C1564.93,2243.85 1563.58,2242.9 1563.58,2241 C1563.58,2240.35 1563.73,2239.75 1564.03,2238.9 L1565.68,2234.5 L1578.93,2234.5 L1581.63,2241.2 C1581.93,2242 1582.03,2242.3 1582.03,2242.55 C1582.03,2243.35 1580.78,2243.85 1578.93,2243.85 L1576.83,2243.85 L1576.83,2246.2 L1592.33,2246.2 L1592.33,2243.85 L1591.63,2243.85 C1589.03,2243.8 1588.58,2243.5 1587.43,2240.65 L1574.68,2209.4 M1572.23,2217.6 L1577.88,2231.8 L1566.68,2231.8 L1572.23,2217.6 "/>
<path class="Harmony" d="M1604.37,2222.9 L1595.47,2223.45 L1595.47,2225.6 L1597.52,2225.6 C1599.42,2225.65 1599.67,2225.95 1599.67,2228.1 L1599.67,2242.4 C1599.62,2243.15 1599.57,2243.45 1599.37,2243.7 C1599.02,2244.15 1598.07,2244.35 1595.92,2244.4 L1595.72,2244.4 L1595.72,2246.2 L1608.32,2246.2 L1608.32,2244.4 L1608.12,2244.4 C1604.82,2244.3 1604.37,2244.05 1604.37,2242.2 L1604.37,2232.95 C1604.37,2228.5 1606.82,2225.2 1610.07,2225.2 C1612.92,2225.2 1614.37,2227.25 1614.37,2231.3 L1614.37,2242.45 C1614.32,2243.1 1614.27,2243.45 1614.02,2243.7 C1613.72,2244.15 1612.72,2244.35 1610.57,2244.4 L1610.37,2244.4 L1610.37,2246.2 L1623.02,2246.2 L1623.02,2244.4 L1622.82,2244.4 C1619.52,2244.3 1619.07,2244.05 1619.07,2242.25 L1619.07,2233.4 C1619.07,2228.4 1621.32,2225.2 1624.82,2225.2 C1627.67,2225.2 1629.07,2227.35 1629.07,2231.85 L1629.07,2242.4 C1629.02,2243.1 1628.97,2243.45 1628.72,2243.7 C1628.42,2244.15 1627.42,2244.35 1625.27,2244.4 L1625.07,2244.4 L1625.07,2246.2 L1637.72,2246.2 L1637.72,2244.4 L1637.52,2244.4 C1634.22,2244.3 1633.77,2244.05 1633.77,2242.2 L1633.77,2230.85 C1633.77,2227.75 1633.47,2226.7 1632.17,2225 C1630.72,2223.15 1628.67,2222.15 1626.27,2222.15 C1623.02,2222.15 1620.62,2223.7 1618.47,2227.15 C1617.62,2224.15 1614.92,2222.15 1611.57,2222.15 C1608.52,2222.15 1606.32,2223.6 1604.37,2226.75 L1604.37,2222.9 "/>
<path class="Harmony" d="M1938.54,572.198 L1955.34,572.198 C1959.79,572.198 1963.19,571.498 1965.84,569.998 C1970.89,567.148 1973.69,561.448 1973.69,553.948 C1973.69,547.048 1971.19,541.648 1966.59,538.648 C1963.84,536.898 1960.14,536.098 1954.44,536.098 L1938.54,536.098 L1938.54,538.448 L1939.49,538.448 C1942.29,538.498 1943.24,538.648 1943.64,539.148 C1943.94,539.598 1943.94,539.698 1943.94,542.248 L1943.94,566.048 C1943.94,568.598 1943.94,568.698 1943.64,569.148 C1943.24,569.648 1942.29,569.798 1939.49,569.848 L1938.54,569.848 L1938.54,572.198 M1952.39,569.848 C1949.84,569.848 1949.54,569.548 1949.54,567.098 L1949.54,541.248 C1949.54,538.798 1949.89,538.448 1952.39,538.448 L1954.99,538.448 C1963.54,538.448 1967.09,543.098 1967.09,554.148 C1967.09,565.348 1963.89,569.848 1955.79,569.848 L1952.39,569.848 "/>
<path class="Harmony" d="M1988.48,548.898 L1979.58,549.448 L1979.58,551.598 L1981.63,551.598 C1983.53,551.648 1983.78,551.948 1983.78,554.098 L1983.78,568.398 C1983.73,569.148 1983.68,569.448 1983.48,569.698 C1983.13,570.148 1982.18,570.348 1980.03,570.398 L1979.83,570.398 L1979.83,572.198 L1992.43,572.198 L1992.43,570.398 L1992.23,570.398 C1988.93,570.298 1988.48,570.048 1988.48,568.198 L1988.48,558.948 C1988.48,554.498 1990.93,551.198 1994.18,551.198 C1997.03,551.198 1998.48,553.248 1998.48,557.298 L1998.48,568.448 C1998.43,569.098 1998.38,569.448 1998.13,569.698 C1997.83,570.148 1996.83,570.348 1994.68,570.398 L1994.48,570.398 L1994.48,572.198 L2007.13,572.198 L2007.13,570.398 L2006.93,570.398 C2003.63,570.298 2003.18,570.048 2003.18,568.248 L2003.18,559.398 C2003.18,554.398 2005.43,551.198 2008.93,551.198 C2011.78,551.198 2013.18,553.348 2013.18,557.848 L2013.18,568.398 C2013.13,569.098 2013.08,569.448 2012.83,569.698 C2012.53,570.148 2011.53,570.348 2009.38,570.398 L2009.18,570.398 L2009.18,572.198 L2021.83,572.198 L2021.83,570.398 L2021.63,570.398 C2018.33,570.298 2017.88,570.048 2017.88,568.198 L2017.88,556.848 C2017.88,553.748 2017.58,552.698 2016.28,550.998 C2014.83,549.148 2012.78,548.148 2010.38,548.148 C2007.13,548.148 2004.73,549.698 2002.58,553.148 C2001.73,550.148 1999.03,548.148 1995.68,548.148 C1992.63,548.148 1990.43,549.598 1988.48,552.748 L1988.48,548.898 "/>
<path class="Harmony" d="M1179.09,1651.4 L1176.99,1651.4 L1165.49,1680.55 C1164.14,1684.45 1162.84,1685.65 1159.99,1685.85 L1159.79,1685.85 L1159.79,1688.2 L1173.04,1688.2 L1173.04,1685.85 L1172.04,1685.85 C1169.34,1685.85 1167.99,1684.9 1167.99,1683 C1167.99,1682.35 1168.14,1681.75 1168.44,1680.9 L1170.09,1676.5 L1183.34,1676.5 L1186.04,1683.2 C1186.34,1684 1186.44,1684.3 1186.44,1684.55 C1186.44,1685.35 1185.19,1685.85 1183.34,1685.85 L1181.24,1685.85 L1181.24,1688.2 L1196.74,1688.2 L1196.74,1685.85 L1196.04,1685.85 C1193.44,1685.8 1192.99,1685.5 1191.84,1682.65 L1179.09,1651.4 M1176.64,1659.6 L1182.29,1673.8 L1171.09,1673.8 L1176.64,1659.6 "/>
<path class="Harmony" d="M1208.78,1664.9 L1199.88,1665.45 L1199.88,1667.6 L1201.93,1667.6 C1203.83,1667.65 1204.08,1667.95 1204.08,1670.1 L1204.08,1684.4 C1204.03,1685.15 1203.98,1685.45 1203.78,1685.7 C1203.43,1686.15 1202.48,1686.35 1200.33,1686.4 L1200.13,1686.4 L1200.13,1688.2 L1212.73,1688.2 L1212.73,1686.4 L1212.53,1686.4 C1209.23,1686.3 1208.78,1686.05 1208.78,1684.2 L1208.78,1674.95 C1208.78,1670.5 1211.23,1667.2 1214.48,1667.2 C1217.33,1667.2 1218.78,1669.25 1218.78,1673.3 L1218.78,1684.45 C1218.73,1685.1 1218.68,1685.45 1218.43,1685.7 C1218.13,1686.15 1217.13,1686.35 1214.98,1686.4 L1214.78,1686.4 L1214.78,1688.2 L1227.43,1688.2 L1227.43,1686.4 L1227.23,1686.4 C1223.93,1686.3 1223.48,1686.05 1223.48,1684.25 L1223.48,1675.4 C1223.48,1670.4 1225.73,1667.2 1229.23,1667.2 C1232.08,1667.2 1233.48,1669.35 1233.48,1673.85 L1233.48,1684.4 C1233.43,1685.1 1233.38,1685.45 1233.13,1685.7 C1232.83,1686.15 1231.83,1686.35 1229.68,1686.4 L1229.48,1686.4 L1229.48,1688.2 L1242.13,1688.2 L1242.13,1686.4 L1241.93,1686.4 C1238.63,1686.3 1238.18,1686.05 1238.18,1684.2 L1238.18,1672.85 C1238.18,1669.75 1237.88,1668.7 1236.58,1667 C1235.13,1665.15 1233.08,1664.15 1230.68,1664.15 C1227.43,1664.15 1225.03,1665.7 1222.88,1669.15 C1222.03,1666.15 1219.33,1664.15 1215.98,1664.15 C1212.93,1664.15 1210.73,1665.6 1208.78,1668.75 L1208.78,1664.9 "/>
<path class="Harmony" d="M2574.85,1093.75 L2572.95,1093.75 L2570.95,1096.7 C2567.3,1094.05 2565.45,1093.35 2562,1093.35 C2557.25,1093.35 2553.2,1095.35 2549.85,1099.35 C2546.65,1103.15 2545.15,1107.35 2545.15,1112.5 C2545.15,1123.3 2552.2,1130.95 2562.05,1130.95 C2570.05,1130.95 2575.15,1126.25 2576.3,1117.85 L2573.95,1117.45 C2572.6,1124.9 2568.8,1128.6 2562.65,1128.6 C2555.25,1128.6 2551.75,1123.5 2551.75,1112.7 C2551.75,1107 2552.5,1103.25 2554.2,1100.25 C2555.75,1097.45 2558.8,1095.7 2562.05,1095.7 C2565.55,1095.7 2568.65,1097.55 2570.55,1100.75 C2571.5,1102.4 2572.2,1104.25 2573.4,1108.2 L2575.6,1108.2 L2574.85,1093.75 "/>
<path class="Harmony" d="M951.059,1651.4 L948.959,1651.4 L937.459,1680.55 C936.109,1684.45 934.809,1685.65 931.959,1685.85 L931.759,1685.85 L931.759,1688.2 L945.009,1688.2 L945.009,1685.85 L944.009,1685.85 C941.309,1685.85 939.959,1684.9 939.959,1683 C939.959,1682.35 940.109,1681.75 940.409,1680.9 L942.059,1676.5 L955.309,1676.5 L958.009,1683.2 C958.309,1684 958.409,1684.3 958.409,1684.55 C958.409,1685.35 957.159,1685.85 955.309,1685.85 L953.209,1685.85 L953.209,1688.2 L968.709,1688.2 L968.709,1685.85 L968.009,1685.85 C965.409,1685.8 964.959,1685.5 963.809,1682.65 L951.059,1651.4 M948.609,1659.6 L954.259,1673.8 L943.059,1673.8 L948.609,1659.6 "/>
<path class="Harmony" d="M980.756,1664.9 L971.856,1665.45 L971.856,1667.6 L973.906,1667.6 C975.806,1667.65 976.056,1667.95 976.056,1670.1 L976.056,1684.4 C976.006,1685.15 975.956,1685.45 975.756,1685.7 C975.406,1686.15 974.456,1686.35 972.306,1686.4 L972.106,1686.4 L972.106,1688.2 L984.706,1688.2 L984.706,1686.4 L984.506,1686.4 C981.206,1686.3 980.756,1686.05 980.756,1684.2 L980.756,1674.95 C980.756,1670.5 983.206,1667.2 986.456,1667.2 C989.306,1667.2 990.756,1669.25 990.756,1673.3 L990.756,1684.45 C990.706,1685.1 990.656,1685.45 990.406,1685.7 C990.106,1686.15 989.106,1686.35 986.956,1686.4 L986.756,1686.4 L986.756,1688.2 L999.406,1688.2 L999.406,1686.4 L999.206,1686.4 C995.906,1686.3 995.456,1686.05 995.456,1684.25 L995.456,1675.4 C995.456,1670.4 997.706,1667.2 1001.21,1667.2 C1004.06,1667.2 1005.46,1669.35 1005.46,1673.85 L1005.46,1684.4 C1005.41,1685.1 1005.36,1685.45 1005.11,1685.7 C1004.81,1686.15 1003.81,1686.35 1001.66,1686.4 L1001.46,1686.4 L1001.46,1688.2 L1014.11,1688.2 L1014.11,1686.4 L1013.91,1686.4 C1010.61,1686.3 1010.16,1686.05 1010.16,1684.2 L1010.16,1672.85 C1010.16,1669.75 1009.86,1668.7 1008.56,1667 C1007.11,1665.15 1005.06,1664.15 1002.66,1664.15 C999.406,1664.15 997.006,1665.7 994.856,1669.15 C994.006,1666.15 991.306,1664.15 987.956,1664.15 C984.906,1664.15 982.706,1665.6 980.756,1668.75 L980.756,1664.9 "/>
<path class="Harmony" d="M1955.1,2210.1 L1925.05,2210.1 L1925.05,2212.45 L1925.95,2212.45 C1928.8,2212.5 1929.75,2212.65 1930.15,2213.15 C1930.45,2213.6 1930.45,2213.7 1930.45,2216.25 L1930.45,2240.05 C1930.45,2242.6 1930.45,2242.7 1930.15,2243.15 C1929.75,2243.65 1928.8,2243.85 1925.95,2243.85 L1925.05,2243.85 L1925.05,2246.2 L1955.75,2246.2 L1956.75,2232.85 L1954.55,2232.85 C1952.65,2241.75 1950.6,2243.65 1942.95,2243.85 L1939.65,2243.85 C1936.65,2243.75 1935.9,2243.25 1936.05,2241.45 L1936.05,2228.7 L1937.05,2228.7 C1942.2,2228.5 1944.05,2230.35 1944.25,2235.9 L1946.6,2235.9 L1946.6,2219.5 L1944.25,2219.5 C1943.95,2224.4 1942,2226.35 1937.25,2226.35 L1936.05,2226.35 L1936.05,2214.95 C1936,2212.85 1936.5,2212.5 1939.2,2212.45 L1941.8,2212.45 C1950,2212.4 1952.05,2214.2 1953.65,2222.85 L1955.8,2222.85 L1955.1,2210.1 "/>
<path class="Harmony" d="M1965.1,2223.1 L1967.3,2223.45 L1968.2,2219.5 C1968.95,2216.2 1969.3,2215.7 1970.75,2215.7 C1971,2215.7 1971.4,2215.7 1971.85,2215.75 C1978,2216.05 1978,2216.05 1980.3,2216.05 C1980.95,2216.05 1982.1,2216.05 1983.5,2216 L1980.1,2222.85 C1976.4,2230.2 1975.95,2231.1 1974.7,2234.2 C1973.15,2237.95 1972.35,2241.1 1972.35,2243.2 C1972.35,2245.5 1973.55,2246.9 1975.5,2246.9 C1977.9,2246.9 1978.85,2245.3 1978.8,2240.95 C1978.55,2233.75 1979.45,2230.25 1984.8,2218.55 C1985.7,2216.6 1986.65,2214.6 1987.55,2212.65 L1987.55,2211.2 C1984.55,2211.45 1982.95,2211.55 1979.85,2211.55 C1975.5,2211.55 1972.05,2211.4 1966.65,2211 L1965.1,2223.1 "/>
<path class="NoteDot" transform="matrix(0.992,0,0,0.992,1039.13,696.198)" d="M0,0 C0,2.8 2.2,5 5,5 C7.8,5 10,2.8 10,0 C10,-2.8 7.8,-5 5,-5 C2.2,-5 0,-2.8 0,0"/>
<path class="NoteDot" transform="matrix(0.992,0,0,0.992,1744.98,745.798)" d="M0,0 C0,2.8 2.2,5 5,5 C7.8,5 10,2.8 10,0 C10,-2.8 7.8,-5 5,-5 C2.2,-5 0,-2.8 0,0"/>
<path class="NoteDot" transform="matrix(0.992,0,0,0.992,976.393,1787.4)" d="M0,0 C0,2.8 2.2,5 5,5 C7.8,5 10,2.8 10,0 C10,-2.8 7.8,-5 5,-5 C2.2,-5 0,-2.8 0,0"/>
<path class="NoteDot" transform="matrix(0.992,0,0,0.992,2097.07,2419.8)" d="M0,0 C0,2.8 2.2,5 5,5 C7.8,5 10,2.8 10,0 C10,-2.8 7.8,-5 5,-5 C2.2,-5 0,-2.8 0,0"/>
<path class="NoteDot" transform="matrix(0.992,0,0,0.992,1727.41,2419.8)" d="M0,0 C0,2.8 2.2,5 5,5 C7.8,5 10,2.8 10,0 C10,-2.8 7.8,-5 5,-5 C2.2,-5 0,-2.8 0,0"/>
<path class="NoteDot" transform="matrix(0.992,0,0,0.992,1010.06,1229.4)" d="M0,0 C0,2.8 2.2,5 5,5 C7.8,5 10,2.8 10,0 C10,-2.8 7.8,-5 5,-5 C2.2,-5 0,-2.8 0,0"/>
<path class="NoteDot" transform="matrix(0.992,0,0,0.992,2108.4,770.598)" d="M0,0 C0,2.8 2.2,5 5,5 C7.8,5 10,2.8 10,0 C10,-2.8 7.8,-5 5,-5 C2.2,-5 0,-2.8 0,0"/>
<path class="NoteDot" transform="matrix(0.992,0,0,0.992,1727.41,1303.8)" d="M0,0 C0,2.8 2.2,5 5,5 C7.8,5 10,2.8 10,0 C10,-2.8 7.8,-5 5,-5 C2.2,-5 0,-2.8 0,0"/>
<path class="NoteDot" transform="matrix(0.992,0,0,0.992,1653.69,1861.8)" d="M0,0 C0,2.8 2.2,5 5,5 C7.8,5 10,2.8 10,0 C10,-2.8 7.8,-5 5,-5 C2.2,-5 0,-2.8 0,0"/>
<path class="NoteDot" transform="matrix(0.992,0,0,0.992,2097.07,1279)" d="M0,0 C0,2.8 2.2,5 5,5 C7.8,5 10,2.8 10,0 C10,-2.8 7.8,-5 5,-5 C2.2,-5 0,-2.8 0,0"/>
<path class="NoteDot" transform="matrix(0.992,0,0,0.992,2001.64,1837)" d="M0,0 C0,2.8 2.2,5 5,5 C7.8,5 10,2.8 10,0 C10,-2.8 7.8,-5 5,-5 C2.2,-5 0,-2.8 0,0"/>
<path class="NoteDot" transform="matrix(0.992,0,0,0.992,401.295,2370.2)" d="M0,0 C0,2.8 2.2,5 5,5 C7.8,5 10,2.8 10,0 C10,-2.8 7.8,-5 5,-5 C2.2,-5 0,-2.8 0,0"/>
</svg>
