<?xml version="1.0" encoding="UTF-8" standalone="no"?>
<svg width="2977.2px" height="4208.4px" viewBox="0 0 2977.2 4208.4"
 xmlns="http://www.w3.org/2000/svg" xmlns:xlink="http://www.w3.org/1999/xlink" version="1.2" baseProfile="tiny">
<title>江戸の子守唄</title>
<desc>Generated by MuseScore Studio 4.4.1</desc>
<path class="" fill="#ffffff" fill-rule="evenodd" d="M0,0 L2977.2,0 L2977.2,4208.4 L0,4208.4 L0,0 "/>
<polyline class="StaffLines" fill="none" stroke="#000000" stroke-width="2.73" stroke-linejoin="bevel" points="212.598,634.198 2764.6,634.198"/>
<polyline class="StaffLines" fill="none" stroke="#000000" stroke-width="2.73" stroke-linejoin="bevel" points="212.598,658.998 2764.6,658.998"/>
<polyline class="StaffLines" fill="none" stroke="#000000" stroke-width="2.73" stroke-linejoin="bevel" points="212.598,683.798 2764.6,683.798"/>
<polyline class="StaffLines" fill="none" stroke="#000000" stroke-width="2.73" stroke-linejoin="bevel" points="212.598,708.598 2764.6,708.598"/>
<polyline class="StaffLines" fill="none" stroke="#000000" stroke-width="2.73" stroke-linejoin="bevel" points="212.598,733.398 2764.6,733.398"/>
<polyline class="StaffLines" fill="none" stroke="#000000" stroke-width="2.73" stroke-linejoin="bevel" points="212.598,1105.4 2764.6,1105.4"/>
<polyline class="StaffLines" fill="none" stroke="#000000" stroke-width="2.73" stroke-linejoin="bevel" points="212.598,1130.2 2764.6,1130.2"/>
<polyline class="StaffLines" fill="none" stroke="#000000" stroke-width="2.73" stroke-linejoin="bevel" points="212.598,1155 2764.6,1155"/>
<polyline class="StaffLines" fill="none" stroke="#000000" stroke-width="2.73" stroke-linejoin="bevel" points="212.598,1179.8 2764.6,1179.8"/>
<polyline class="StaffLines" fill="none" stroke="#000000" stroke-width="2.73" stroke-linejoin="bevel" points="212.598,1204.6 2764.6,1204.6"/>
<path class="Text" d="M1221.26,297.405 L1201.13,297.405 C1196.07,297.405 1192,297.185 1189.14,296.745 L1189.14,304.995 C1192.55,304.445 1196.51,304.225 1201.24,304.225 L1249.97,304.225 C1254.48,304.225 1258.55,304.445 1261.96,304.995 L1261.96,296.745 C1259.32,297.185 1255.03,297.405 1249.97,297.405 L1228.96,297.405 L1228.96,228.105 L1246.78,228.105 C1250.74,228.105 1254.92,228.325 1258.33,228.765 L1258.33,220.625 C1255.03,221.175 1251.18,221.395 1246.78,221.395 L1207.29,221.395 C1202.34,221.395 1198.82,221.175 1195.74,220.735 L1195.74,228.655 C1198.71,228.325 1202.89,228.105 1207.29,228.105 L1221.26,228.105 L1221.26,297.405 M1168.13,219.525 C1176.71,224.585 1181.88,228.655 1188.81,235.695 L1193.54,229.865 C1186.72,223.595 1181.11,219.415 1172.97,214.575 L1168.13,219.525 M1162.41,246.475 C1171.32,251.205 1176.71,254.945 1183.64,261.545 L1188.15,255.055 C1180.23,248.785 1175.5,245.595 1166.81,240.755 L1162.41,246.475 M1183.97,271.335 C1180.89,278.265 1179.24,281.345 1175.72,287.175 C1172.64,292.345 1172.64,292.345 1167.58,298.835 C1165.82,301.145 1165.6,301.365 1163.51,303.235 L1169.89,309.285 C1170.99,307.525 1171.1,307.305 1173.19,304.555 C1178.36,297.405 1184.63,286.735 1189.8,275.955 L1183.97,271.335 M1369.98,217.765 C1366.46,218.205 1363.38,218.425 1357.77,218.425 L1289.35,218.425 C1283.96,218.425 1280.66,218.205 1277.14,217.765 L1277.14,225.575 C1280.88,225.135 1284.29,224.915 1289.35,224.915 L1357.77,224.915 C1363.27,224.915 1366.13,225.025 1369.98,225.575 L1369.98,217.765 M1353.26,273.205 L1353.26,281.015 L1361.07,281.015 C1360.63,278.155 1360.52,275.185 1360.52,270.015 L1360.52,247.245 C1360.52,242.625 1360.63,240.205 1360.96,237.345 C1357.99,237.675 1355.02,237.785 1350.51,237.785 L1297.82,237.785 C1292.87,237.785 1290.34,237.675 1286.82,237.345 C1287.15,240.975 1287.26,244.275 1287.26,250.215 C1287.26,282.445 1284.18,293.885 1271.97,308.075 C1274.5,309.725 1275.16,310.275 1278.24,313.245 C1287.92,300.925 1291.99,290.365 1293.64,273.205 L1353.26,273.205 M1293.97,266.715 C1294.3,263.965 1294.52,257.145 1294.52,254.175 L1294.52,244.275 L1353.26,244.275 L1353.26,266.715 L1293.97,266.715 "/>
<path class="Text" d="M1438.4,231.075 C1443.9,231.295 1447.09,232.065 1451.16,233.825 C1462.27,238.775 1468.65,248.895 1468.65,261.435 C1468.65,274.965 1461.28,286.735 1449.18,292.235 C1444.01,294.655 1438.84,296.085 1430.81,297.405 C1432.9,300.045 1433.56,301.145 1434.66,304.775 C1442.25,303.125 1446.43,301.805 1451.38,299.715 C1467.33,292.895 1476.57,278.815 1476.57,261.765 C1476.57,251.205 1472.83,241.635 1465.9,234.925 C1458.75,227.885 1447.97,224.035 1435.65,224.035 C1420.91,224.035 1408.92,228.985 1400.12,238.665 C1392.75,246.915 1388.57,257.805 1388.57,269.025 C1388.57,284.425 1396.38,295.865 1406.83,295.865 C1414.75,295.865 1421.24,289.265 1427.62,274.745 C1432.57,263.195 1436.75,246.365 1438.4,231.075 M1430.48,231.185 C1429.05,245.265 1424.98,261.545 1420.47,271.885 C1415.74,282.665 1411.34,287.835 1406.72,287.835 C1400.78,287.835 1396.16,279.695 1396.16,269.135 C1396.16,255.495 1402.98,243.065 1414.09,236.355 C1419.15,233.275 1423.88,231.735 1430.48,231.185"/>
<path class="Text" d="M1539.82,257.035 L1507.26,257.035 C1501.1,257.035 1497.58,256.815 1493.51,256.375 L1493.51,264.515 C1497.69,264.075 1501.54,263.855 1507.04,263.855 L1539.82,263.855 L1539.82,299.605 C1539.82,302.245 1538.83,302.795 1534.54,302.795 C1530.03,302.795 1525.41,302.355 1518.7,301.365 C1519.8,304.225 1520.13,305.655 1520.57,309.065 C1527.61,309.615 1531.02,309.835 1534.54,309.835 C1544.55,309.835 1547.19,307.965 1547.19,300.595 L1547.19,263.855 L1578.1,263.855 C1584.04,263.855 1587.45,264.075 1591.41,264.515 L1591.41,256.375 C1587.67,256.815 1584.37,257.035 1578.1,257.035 L1547.19,257.035 L1547.19,248.125 C1561.38,240.095 1565.34,237.235 1577.77,226.015 C1579.31,224.585 1579.42,224.475 1581.73,222.495 L1577.22,217.435 C1575.24,217.765 1573.15,217.875 1568.64,217.875 L1516.5,217.875 C1511.88,217.875 1508.58,217.655 1505.28,217.215 L1505.28,225.135 C1508.14,224.695 1511.99,224.475 1516.39,224.475 L1569.63,224.475 C1560.72,232.615 1554.78,237.015 1544.55,242.515 L1539.49,242.515 C1539.71,244.825 1539.82,246.915 1539.82,249.775 L1539.82,257.035 M1676,254.725 L1676,249.995 C1676,244.935 1676.11,241.965 1676.66,238.555 L1667.97,238.555 C1668.52,241.525 1668.74,244.385 1668.74,249.995 L1668.74,254.725 L1617.04,254.725 C1612.31,254.725 1608.9,254.505 1605.93,254.065 L1605.93,261.875 C1609.12,261.435 1612.53,261.215 1617.04,261.215 L1668.74,261.215 L1668.74,301.915 C1668.74,304.115 1667.64,304.665 1663.46,304.665 C1659.28,304.665 1654.88,304.225 1648.61,303.345 C1650.15,306.755 1650.59,308.185 1651.14,310.935 C1655.32,311.155 1659.83,311.375 1662.36,311.375 C1668.41,311.375 1671.71,310.935 1673.25,309.835 C1675.12,308.515 1676,306.315 1676,302.685 L1676,261.215 L1689.31,261.215 C1693.93,261.215 1697.12,261.435 1700.42,261.875 L1700.42,254.065 C1697.45,254.505 1694.04,254.725 1689.31,254.725 L1676,254.725 M1647.84,224.695 L1617.92,224.695 C1613.3,224.695 1610.44,224.585 1606.92,224.255 C1607.25,226.455 1607.36,228.545 1607.36,231.735 L1607.36,238.885 C1607.36,242.295 1607.25,244.275 1606.92,246.585 L1614.18,246.585 L1614.18,231.185 L1691.18,231.185 L1691.18,246.585 L1698.44,246.585 C1698.11,244.275 1698,242.185 1698,238.885 L1698,231.735 C1698,228.435 1698.11,226.345 1698.44,224.255 C1694.92,224.585 1692.06,224.695 1687.44,224.695 L1654.99,224.695 L1654.99,219.415 C1654.99,216.885 1655.21,215.125 1655.76,212.595 L1647.07,212.595 C1647.62,215.235 1647.84,216.995 1647.84,219.525 L1647.84,224.695 M1647.84,289.595 C1641.68,280.465 1637.39,275.405 1628.92,267.045 L1623.09,271.445 C1631.45,279.475 1635.74,284.865 1641.57,294.655 L1647.84,289.595 M1725.72,221.395 C1721.21,221.395 1718.68,221.285 1715.71,220.955 C1716.04,223.815 1716.15,226.895 1716.15,231.625 L1716.15,286.185 C1716.15,291.025 1715.93,294.655 1715.49,298.065 L1722.75,298.065 L1722.75,286.625 L1737.82,286.625 L1737.82,294.985 L1744.86,294.985 C1744.53,292.125 1744.42,289.485 1744.42,284.095 L1744.42,231.295 C1744.42,225.685 1744.53,222.935 1744.75,220.955 C1741.89,221.285 1739.25,221.395 1735.29,221.395 L1725.72,221.395 M1722.75,227.445 L1737.82,227.445 L1737.82,280.575 L1722.75,280.575 L1722.75,227.445 M1795.35,287.175 C1800.3,287.175 1803.93,287.285 1807.45,287.615 C1807.12,283.875 1807.01,281.015 1807.01,276.065 L1807.01,228.985 C1807.01,223.925 1807.12,220.845 1807.45,217.215 C1803.82,217.545 1800.3,217.655 1795.13,217.655 L1766.75,217.655 C1761.47,217.655 1757.95,217.545 1754.21,217.215 C1754.54,220.735 1754.65,223.815 1754.65,228.985 L1754.65,276.065 C1754.65,280.575 1754.54,284.315 1754.21,287.615 C1757.62,287.285 1761.14,287.175 1766.31,287.175 L1795.35,287.175 M1761.36,223.815 L1800.3,223.815 L1800.3,238.115 L1761.36,238.115 L1761.36,223.815 M1761.36,244.055 L1800.3,244.055 L1800.3,259.125 L1761.36,259.125 L1761.36,244.055 M1761.36,265.065 L1800.3,265.065 L1800.3,281.015 L1761.36,281.015 L1761.36,265.065 M1786.99,294.325 C1795.46,302.795 1800.08,306.205 1811.3,311.925 C1812.73,309.395 1813.83,307.965 1815.92,305.875 C1805.14,301.915 1800.19,298.615 1791.94,290.145 L1786.99,294.325 M1766.2,290.475 C1761.58,294.985 1759.27,296.855 1754.54,299.605 C1749.48,302.465 1746.18,303.785 1738.7,305.875 C1741.12,308.075 1742.11,309.175 1743.76,311.815 C1756.3,307.085 1761.91,303.565 1771.92,294.545 L1766.2,290.475 "/>
<path class="MeasureNumber" d="M216.922,1040.48 C215.682,1041.24 215.322,1041.72 215.322,1042.52 C215.322,1043.28 215.962,1043.84 216.762,1043.84 C217.802,1043.84 218.402,1043.08 218.522,1041.6 C219.762,1040.6 221.082,1040.16 222.682,1040.16 C225.642,1040.16 227.282,1042 227.282,1045.32 C227.282,1050.52 223.922,1054.76 219.802,1054.76 C217.442,1054.76 215.522,1053.64 215.522,1052.32 C215.522,1052.08 215.562,1052 215.762,1051.88 C217.042,1051.28 218.082,1050.84 218.082,1049.16 C218.082,1047.88 217.082,1046.92 215.682,1046.92 C213.922,1046.92 212.602,1048.4 212.602,1050.32 C212.602,1053.84 215.642,1056.4 219.922,1056.4 C226.402,1056.4 231.642,1051.24 231.642,1044.84 C231.642,1040.8 228.562,1037.96 224.202,1037.96 C222.482,1037.96 221.082,1038.32 219.162,1039.28 L221.402,1031.72 C223.522,1032.16 225.202,1032.36 226.642,1032.36 C229.282,1032.36 231.642,1031.52 232.962,1030.12 C233.642,1029.32 234.042,1028.64 234.042,1028.12 C234.042,1027.88 233.922,1027.64 233.762,1027.64 C233.642,1027.64 233.562,1027.68 233.322,1027.8 C232.002,1028.44 230.322,1028.8 228.762,1028.8 C226.362,1028.8 223.522,1028.4 220.562,1027.64 L216.922,1040.48 "/>
<polyline class="BarLine" fill="none" stroke="#000000" stroke-width="4.46" stroke-linejoin="bevel" points="1606.21,1104.03 1606.21,1205.96"/>
<polyline class="BarLine" fill="none" stroke="#000000" stroke-width="4.46" stroke-linejoin="bevel" points="2740.42,1104.03 2740.42,1205.96"/>
<polyline class="BarLine" fill="none" stroke="#000000" stroke-width="13.64" stroke-linejoin="bevel" points="2757.78,1104.03 2757.78,1205.96"/>
<polyline class="BarLine" fill="none" stroke="#000000" stroke-width="4.46" stroke-linejoin="bevel" points="2322.8,632.834 2322.8,734.762"/>
<polyline class="BarLine" fill="none" stroke="#000000" stroke-width="4.46" stroke-linejoin="bevel" points="2762.37,632.834 2762.37,734.762"/>
<polyline class="BarLine" fill="none" stroke="#000000" stroke-width="4.46" stroke-linejoin="bevel" points="2284.61,1104.03 2284.61,1205.96"/>
<polyline class="BarLine" fill="none" stroke="#000000" stroke-width="4.46" stroke-linejoin="bevel" points="968.266,632.834 968.266,734.762"/>
<polyline class="BarLine" fill="none" stroke="#000000" stroke-width="4.46" stroke-linejoin="bevel" points="1621.81,632.834 1621.81,734.762"/>
<polyline class="BarLine" fill="none" stroke="#000000" stroke-width="4.46" stroke-linejoin="bevel" points="927.802,1104.03 927.802,1205.96"/>
<polyline class="LedgerLine" fill="none" stroke="#000000" stroke-width="3.97" stroke-linejoin="bevel" points="1730.72,1229.4 1780.31,1229.4"/>
<polyline class="LedgerLine" fill="none" stroke="#000000" stroke-width="3.97" stroke-linejoin="bevel" points="2125.62,1229.4 2175.2,1229.4"/>
<polyline class="LedgerLine" fill="none" stroke="#000000" stroke-width="3.97" stroke-linejoin="bevel" points="719.443,1254.2 769.028,1254.2"/>
<polyline class="LedgerLine" fill="none" stroke="#000000" stroke-width="3.97" stroke-linejoin="bevel" points="719.443,1229.4 769.028,1229.4"/>
<polyline class="LedgerLine" fill="none" stroke="#000000" stroke-width="3.97" stroke-linejoin="bevel" points="571.358,1229.4 620.943,1229.4"/>
<polyline class="LedgerLine" fill="none" stroke="#000000" stroke-width="3.97" stroke-linejoin="bevel" points="349.231,1254.2 398.815,1254.2"/>
<polyline class="LedgerLine" fill="none" stroke="#000000" stroke-width="3.97" stroke-linejoin="bevel" points="2125.62,1254.2 2175.2,1254.2"/>
<polyline class="LedgerLine" fill="none" stroke="#000000" stroke-width="3.97" stroke-linejoin="bevel" points="349.231,1229.4 398.815,1229.4"/>
<polyline class="LedgerLine" fill="none" stroke="#000000" stroke-width="3.97" stroke-linejoin="bevel" points="1183.85,609.398 1233.44,609.398"/>
<polyline class="LedgerLine" fill="none" stroke="#000000" stroke-width="3.97" stroke-linejoin="bevel" points="1977.53,1229.4 2027.11,1229.4"/>
<polyline class="LedgerLine" fill="none" stroke="#000000" stroke-width="3.97" stroke-linejoin="bevel" points="1829.45,1229.4 1879.03,1229.4"/>
<polyline class="LedgerLine" fill="none" stroke="#000000" stroke-width="3.97" stroke-linejoin="bevel" points="2310.4,1229.4 2359.99,1229.4"/>
<polyline class="LedgerLine" fill="none" stroke="#000000" stroke-width="3.97" stroke-linejoin="bevel" points="1052.32,1229.4 1101.9,1229.4"/>
<polyline class="LedgerLine" fill="none" stroke="#000000" stroke-width="3.97" stroke-linejoin="bevel" points="1730.72,1254.2 1780.31,1254.2"/>
<polyline class="LedgerLine" fill="none" stroke="#000000" stroke-width="3.97" stroke-linejoin="bevel" points="2027.19,609.398 2076.78,609.398"/>
<polyline class="LedgerLine" fill="none" stroke="#000000" stroke-width="3.97" stroke-linejoin="bevel" points="1742.5,758.198 1792.08,758.198"/>
<polyline class="LedgerLine" fill="none" stroke="#000000" stroke-width="3.97" stroke-linejoin="bevel" points="818.166,1229.4 867.751,1229.4"/>
<polyline class="Stem" fill="none" stroke="#000000" stroke-width="2.73" stroke-linejoin="bevel" points="388.771,1250.23 388.771,1155"/>
<polyline class="Stem" fill="none" stroke="#000000" stroke-width="2.73" stroke-linejoin="bevel" points="427.506,717.03 427.506,634.198"/>
<polyline class="Stem" fill="none" stroke="#000000" stroke-width="2.73" stroke-linejoin="bevel" points="1338.67,1188.23 1338.67,1105.4"/>
<polyline class="Stem" fill="none" stroke="#000000" stroke-width="2.73" stroke-linejoin="bevel" points="712.2,717.03 712.2,634.198"/>
<polyline class="Stem" fill="none" stroke="#000000" stroke-width="2.73" stroke-linejoin="bevel" points="1782.04,754.23 1782.04,665.111"/>
<polyline class="Stem" fill="none" stroke="#000000" stroke-width="2.73" stroke-linejoin="bevel" points="1190.58,1200.63 1190.58,1117.8"/>
<polyline class="Stem" fill="none" stroke="#000000" stroke-width="2.73" stroke-linejoin="bevel" points="1091.86,1225.43 1091.86,1142.8"/>
<polyline class="Stem" fill="none" stroke="#000000" stroke-width="2.73" stroke-linejoin="bevel" points="854.547,729.43 854.547,646.598"/>
<polyline class="Stem" fill="none" stroke="#000000" stroke-width="2.73" stroke-linejoin="bevel" points="1876.94,729.43 1876.94,658.998"/>
<polyline class="Stem" fill="none" stroke="#000000" stroke-width="2.73" stroke-linejoin="bevel" points="1770.26,1250.23 1770.26,1155.2"/>
<polyline class="Stem" fill="none" stroke="#000000" stroke-width="2.73" stroke-linejoin="bevel" points="857.707,1237.83 857.707,1155.08"/>
<polyline class="Stem" fill="none" stroke="#000000" stroke-width="2.73" stroke-linejoin="bevel" points="1971.83,717.03 1971.83,652.886"/>
<polyline class="Stem" fill="none" stroke="#000000" stroke-width="2.73" stroke-linejoin="bevel" points="758.984,1250.23 758.984,1161.12"/>
<polyline class="Stem" fill="none" stroke="#000000" stroke-width="2.73" stroke-linejoin="bevel" points="2037.24,700.365 2037.24,764.398"/>
<polyline class="Stem" fill="none" stroke="#000000" stroke-width="2.73" stroke-linejoin="bevel" points="1508.09,729.43 1508.09,646.598"/>
<polyline class="Stem" fill="none" stroke="#000000" stroke-width="2.73" stroke-linejoin="bevel" points="1868.99,1237.83 1868.99,1155"/>
<polyline class="Stem" fill="none" stroke="#000000" stroke-width="2.73" stroke-linejoin="bevel" points="610.899,1237.83 610.899,1155"/>
<polyline class="Stem" fill="none" stroke="#000000" stroke-width="2.73" stroke-linejoin="bevel" points="2209.08,717.03 2209.08,634.198"/>
<polyline class="Stem" fill="none" stroke="#000000" stroke-width="2.73" stroke-linejoin="bevel" points="2017.07,1225.43 2017.07,1142.6"/>
<polyline class="Stem" fill="none" stroke="#000000" stroke-width="2.73" stroke-linejoin="bevel" points="2349.94,1237.83 2349.94,1155"/>
<polyline class="Stem" fill="none" stroke="#000000" stroke-width="2.73" stroke-linejoin="bevel" points="1128.5,717.03 1128.5,634.397"/>
<polyline class="Stem" fill="none" stroke="#000000" stroke-width="2.73" stroke-linejoin="bevel" points="1193.9,700.365 1193.9,764.398"/>
<polyline class="Stem" fill="none" stroke="#000000" stroke-width="2.73" stroke-linejoin="bevel" points="1365.74,717.03 1365.74,634.198"/>
<polyline class="Stem" fill="none" stroke="#000000" stroke-width="2.73" stroke-linejoin="bevel" points="2388.13,729.43 2388.13,646.598"/>
<polyline class="Stem" fill="none" stroke="#000000" stroke-width="2.73" stroke-linejoin="bevel" points="2165.16,1250.23 2165.16,1155"/>
<polyline class="Stem" fill="none" stroke="#000000" stroke-width="2.73" stroke-linejoin="bevel" points="1486.75,1200.63 1486.75,1117.8"/>
<path class="Hook" transform="matrix(0.992,0,0,0.992,1127.13,634.198)" d="M0,22.7 C0,23 0.1,23.6 0.8,23.8 C5.1,25.2 13.7,30.6 20.2,41.7 C22,44.8 24.9,49.1 24.9,57.4 C24.9,64.6 23.1,72 20.4,79.2 C20.2,79.8 20.1,80.3 20.1,80.7 C20.1,81.4 20.5,81.7 21.2,81.7 C21.8,81.7 22.3,81.3 22.7,80.6 C27.2,72.6 28.9,63.3 28.9,54.2 C28.4,41.3 21,31.8 21,31.8 C21.3,31.8 11.8,19.5 9.1,15.3 C5.4,9.6 3.7,3.9 3.5,3.5 C3.4,3.2 2.5,-0.4 2.5,-0.4 C2.4,-0.8 1.9,-1.2 1.3,-1.2 C0.6,-1.2 0,-0.6 0,0.1 L0,22.7 "/>
<path class="Hook" transform="matrix(0.992,0,0,0.992,1090.49,1142.6)" d="M0,22.7 C0,23 0.1,23.6 0.8,23.8 C5.1,25.2 13.7,30.6 20.2,41.7 C22,44.8 24.9,49.1 24.9,57.4 C24.9,64.6 23.1,72 20.4,79.2 C20.2,79.8 20.1,80.3 20.1,80.7 C20.1,81.4 20.5,81.7 21.2,81.7 C21.8,81.7 22.3,81.3 22.7,80.6 C27.2,72.6 28.9,63.3 28.9,54.2 C28.4,41.3 21,31.8 21,31.8 C21.3,31.8 11.8,19.5 9.1,15.3 C5.4,9.6 3.7,3.9 3.5,3.5 C3.4,3.2 2.5,-0.4 2.5,-0.4 C2.4,-0.8 1.9,-1.2 1.3,-1.2 C0.6,-1.2 0,-0.6 0,0.1 L0,22.7 "/>
<path class="Hook" transform="matrix(0.992,0,0,0.992,1768.9,1155)" d="M0,22.7 C0,23 0.1,23.6 0.8,23.8 C5.1,25.2 13.7,30.6 20.2,41.7 C22,44.8 24.9,49.1 24.9,57.4 C24.9,64.6 23.1,72 20.4,79.2 C20.2,79.8 20.1,80.3 20.1,80.7 C20.1,81.4 20.5,81.7 21.2,81.7 C21.8,81.7 22.3,81.3 22.7,80.6 C27.2,72.6 28.9,63.3 28.9,54.2 C28.4,41.3 21,31.8 21,31.8 C21.3,31.8 11.8,19.5 9.1,15.3 C5.4,9.6 3.7,3.9 3.5,3.5 C3.4,3.2 2.5,-0.4 2.5,-0.4 C2.4,-0.8 1.9,-1.2 1.3,-1.2 C0.6,-1.2 0,-0.6 0,0.1 L0,22.7 "/>
<path class="Note" transform="matrix(0.992,0,0,0.992,1455.89,1204.6)" d="M0,4.2 C0,8.5 3.1,13.3 11.2,13.3 C21.6,13.3 32.5,4.8 32.5,-4 C32.5,-9.9 27.5,-13.2 21.3,-13.2 C11.6,-13.2 0,-5 0,4.2"/>
<path class="Note" transform="matrix(0.992,0,0,0.992,826.846,1241.8)" d="M0,4.2 C0,8.5 3.1,13.3 11.2,13.3 C21.6,13.3 32.5,4.8 32.5,-4 C32.5,-9.9 27.5,-13.2 21.3,-13.2 C11.6,-13.2 0,-5 0,4.2"/>
<path class="Note" transform="matrix(0.992,0,0,0.992,1334.88,720.998)" d="M0,4.2 C0,8.5 3.1,13.3 11.2,13.3 C21.6,13.3 32.5,4.8 32.5,-4 C32.5,-9.9 27.5,-13.2 21.3,-13.2 C11.6,-13.2 0,-5 0,4.2"/>
<path class="Note" transform="matrix(0.992,0,0,0.992,681.34,720.998)" d="M0,4.2 C0,8.5 3.1,13.3 11.2,13.3 C21.6,13.3 32.5,4.8 32.5,-4 C32.5,-9.9 27.5,-13.2 21.3,-13.2 C11.6,-13.2 0,-5 0,4.2"/>
<path class="Note" transform="matrix(0.992,0,0,0.992,1192.53,696.198)" d="M0,4.2 C0,8.5 3.1,13.3 11.2,13.3 C21.6,13.3 32.5,4.8 32.5,-4 C32.5,-9.9 27.5,-13.2 21.3,-13.2 C11.6,-13.2 0,-5 0,4.2"/>
<path class="Note" transform="matrix(0.992,0,0,0.992,396.645,720.998)" d="M0,4.2 C0,8.5 3.1,13.3 11.2,13.3 C21.6,13.3 32.5,4.8 32.5,-4 C32.5,-9.9 27.5,-13.2 21.3,-13.2 C11.6,-13.2 0,-5 0,4.2"/>
<path class="Note" transform="matrix(0.992,0,0,0.992,2357.27,733.398)" d="M21.3,-13.2 C11.6,-13.2 0,-5.1 0,4.2 C0,8.5 3.1,13.3 11.2,13.3 C21.6,13.3 32.5,4.8 32.5,-4 C32.5,-9.9 27.5,-13.2 21.3,-13.2 M7.5,8.6 C4.2,8.6 3.5,5.9 3.5,5 C3.5,0.1 20.3,-8.5 25,-8.5 C27.4,-8.5 29,-7.1 29,-4.9 C29,0.1 12.1,8.6 7.5,8.6"/>
<path class="Note" transform="matrix(0.992,0,0,0.992,1097.64,720.998)" d="M0,4.2 C0,8.5 3.1,13.3 11.2,13.3 C21.6,13.3 32.5,4.8 32.5,-4 C32.5,-9.9 27.5,-13.2 21.3,-13.2 C11.6,-13.2 0,-5 0,4.2"/>
<path class="Note" transform="matrix(0.992,0,0,0.992,1061,1229.4)" d="M0,4.2 C0,8.5 3.1,13.3 11.2,13.3 C21.6,13.3 32.5,4.8 32.5,-4 C32.5,-9.9 27.5,-13.2 21.3,-13.2 C11.6,-13.2 0,-5 0,4.2"/>
<path class="Note" transform="matrix(0.992,0,0,0.992,1477.23,733.398)" d="M0,4.2 C0,8.5 3.1,13.3 11.2,13.3 C21.6,13.3 32.5,4.8 32.5,-4 C32.5,-9.9 27.5,-13.2 21.3,-13.2 C11.6,-13.2 0,-5 0,4.2"/>
<path class="Note" transform="matrix(0.992,0,0,0.992,357.911,1254.2)" d="M21.3,-13.2 C11.6,-13.2 0,-5.1 0,4.2 C0,8.5 3.1,13.3 11.2,13.3 C21.6,13.3 32.5,4.8 32.5,-4 C32.5,-9.9 27.5,-13.2 21.3,-13.2 M7.5,8.6 C4.2,8.6 3.5,5.9 3.5,5 C3.5,0.1 20.3,-8.5 25,-8.5 C27.4,-8.5 29,-7.1 29,-4.9 C29,0.1 12.1,8.6 7.5,8.6"/>
<path class="Note" transform="matrix(0.992,0,0,0.992,2178.22,720.998)" d="M0,4.2 C0,8.5 3.1,13.3 11.2,13.3 C21.6,13.3 32.5,4.8 32.5,-4 C32.5,-9.9 27.5,-13.2 21.3,-13.2 C11.6,-13.2 0,-5 0,4.2"/>
<path class="Note" transform="matrix(0.992,0,0,0.992,1838.13,1241.8)" d="M0,4.2 C0,8.5 3.1,13.3 11.2,13.3 C21.6,13.3 32.5,4.8 32.5,-4 C32.5,-9.9 27.5,-13.2 21.3,-13.2 C11.6,-13.2 0,-5 0,4.2"/>
<path class="Note" transform="matrix(0.992,0,0,0.992,823.687,733.398)" d="M0,4.2 C0,8.5 3.1,13.3 11.2,13.3 C21.6,13.3 32.5,4.8 32.5,-4 C32.5,-9.9 27.5,-13.2 21.3,-13.2 C11.6,-13.2 0,-5 0,4.2"/>
<path class="Note" transform="matrix(0.992,0,0,0.992,1307.81,1192.2)" d="M0,4.2 C0,8.5 3.1,13.3 11.2,13.3 C21.6,13.3 32.5,4.8 32.5,-4 C32.5,-9.9 27.5,-13.2 21.3,-13.2 C11.6,-13.2 0,-5 0,4.2"/>
<path class="Note" transform="matrix(0.992,0,0,0.992,580.038,1241.8)" d="M0,4.2 C0,8.5 3.1,13.3 11.2,13.3 C21.6,13.3 32.5,4.8 32.5,-4 C32.5,-9.9 27.5,-13.2 21.3,-13.2 C11.6,-13.2 0,-5 0,4.2"/>
<path class="Note" transform="matrix(0.992,0,0,0.992,2035.87,696.198)" d="M0,4.2 C0,8.5 3.1,13.3 11.2,13.3 C21.6,13.3 32.5,4.8 32.5,-4 C32.5,-9.9 27.5,-13.2 21.3,-13.2 C11.6,-13.2 0,-5 0,4.2"/>
<path class="Note" transform="matrix(0.992,0,0,0.992,1940.97,720.998)" d="M0,4.2 C0,8.5 3.1,13.3 11.2,13.3 C21.6,13.3 32.5,4.8 32.5,-4 C32.5,-9.9 27.5,-13.2 21.3,-13.2 C11.6,-13.2 0,-5 0,4.2"/>
<path class="Note" transform="matrix(0.992,0,0,0.992,1739.4,1254.2)" d="M0,4.2 C0,8.5 3.1,13.3 11.2,13.3 C21.6,13.3 32.5,4.8 32.5,-4 C32.5,-9.9 27.5,-13.2 21.3,-13.2 C11.6,-13.2 0,-5 0,4.2"/>
<path class="Note" transform="matrix(0.992,0,0,0.992,2134.3,1254.2)" d="M0,4.2 C0,8.5 3.1,13.3 11.2,13.3 C21.6,13.3 32.5,4.8 32.5,-4 C32.5,-9.9 27.5,-13.2 21.3,-13.2 C11.6,-13.2 0,-5 0,4.2"/>
<path class="Note" transform="matrix(0.992,0,0,0.992,728.123,1254.2)" d="M0,4.2 C0,8.5 3.1,13.3 11.2,13.3 C21.6,13.3 32.5,4.8 32.5,-4 C32.5,-9.9 27.5,-13.2 21.3,-13.2 C11.6,-13.2 0,-5 0,4.2"/>
<path class="Note" transform="matrix(0.992,0,0,0.992,1986.21,1229.4)" d="M0,4.2 C0,8.5 3.1,13.3 11.2,13.3 C21.6,13.3 32.5,4.8 32.5,-4 C32.5,-9.9 27.5,-13.2 21.3,-13.2 C11.6,-13.2 0,-5 0,4.2"/>
<path class="Note" transform="matrix(0.992,0,0,0.992,1159.72,1204.6)" d="M0,4.2 C0,8.5 3.1,13.3 11.2,13.3 C21.6,13.3 32.5,4.8 32.5,-4 C32.5,-9.9 27.5,-13.2 21.3,-13.2 C11.6,-13.2 0,-5 0,4.2"/>
<path class="Note" transform="matrix(0.992,0,0,0.992,2319.08,1241.8)" d="M21.3,-13.2 C11.6,-13.2 0,-5.1 0,4.2 C0,8.5 3.1,13.3 11.2,13.3 C21.6,13.3 32.5,4.8 32.5,-4 C32.5,-9.9 27.5,-13.2 21.3,-13.2 M7.5,8.6 C4.2,8.6 3.5,5.9 3.5,5 C3.5,0.1 20.3,-8.5 25,-8.5 C27.4,-8.5 29,-7.1 29,-4.9 C29,0.1 12.1,8.6 7.5,8.6"/>
<path class="Note" transform="matrix(0.992,0,0,0.992,1846.08,733.398)" d="M0,4.2 C0,8.5 3.1,13.3 11.2,13.3 C21.6,13.3 32.5,4.8 32.5,-4 C32.5,-9.9 27.5,-13.2 21.3,-13.2 C11.6,-13.2 0,-5 0,4.2"/>
<path class="Note" transform="matrix(0.992,0,0,0.992,1751.18,758.198)" d="M0,4.2 C0,8.5 3.1,13.3 11.2,13.3 C21.6,13.3 32.5,4.8 32.5,-4 C32.5,-9.9 27.5,-13.2 21.3,-13.2 C11.6,-13.2 0,-5 0,4.2"/>
<path class="Clef" transform="matrix(0.992,0,0,0.992,232.438,708.598)" d="M12.3,51.3 C12.3,57.9 17.3,66.6 30.8,66.6 C35.5,66.6 39.6,65.4 43.2,63.2 C48.6,59.4 50,52.8 50,46.5 C50,42.6 49.4,38.1 48.4,32.4 C48.1,30.4 47.5,27.4 46.9,23.5 C56.7,20.3 64,10.1 64,-0.2 C64,-15.3 53.3,-25.5 38.7,-25.5 C37.7,-31.5 36.7,-37.4 35.9,-43 C46.4,-54.1 53.7,-66.6 53.7,-82.5 C53.7,-91.6 50.9,-99 49.3,-102.6 C46.9,-107.7 44,-111.2 42.2,-111.2 C41.5,-111.2 38.4,-110 35.1,-106.1 C28.7,-98.5 26.9,-85.7 26.9,-77.3 C26.9,-71.9 27.4,-67 29.1,-55.8 C29,-55.7 23.8,-50.4 21.7,-48.7 C12.6,-40.3 0,-28.1 0,-8.1 C0,10.6 16.3,25.3 34.9,25.3 C37.8,25.3 40.5,25 42.8,24.6 C44.7,34.2 45.9,41.2 45.9,46.5 C45.9,56.9 40.5,62.4 30.4,62.4 C28,62.4 25.9,61.9 25.7,61.9 C25.6,61.8 25.4,61.7 25.4,61.6 C25.4,61.4 25.6,61.3 25.9,61.3 C30.6,60.5 35.3,56.5 35.3,50.1 C35.3,44.7 31.2,39 23.7,39 C16.7,39 12.3,44.7 12.3,51.3 M33.2,-82.2 C34.1,-86.2 38.7,-96.7 43.9,-96.7 C45.4,-96.7 47.8,-91.9 47.8,-84.9 C47.8,-74.5 40.1,-66.7 33.2,-59.9 C32.6,-63.9 32.1,-67.8 32.1,-72 C32.1,-75.7 32.4,-79.1 33.2,-82.2 M42,20.6 C40,21 38.1,21.2 36.2,21.2 C21.9,21.2 9.7,11.2 9.7,-3.9 C9.7,-16.1 18.3,-27 27.1,-34.6 C28.8,-36.1 30.4,-37.5 31.9,-39 C32.8,-33.6 33.5,-28.9 34.2,-24.8 C25.1,-22.1 18.9,-12.5 18.9,-3.1 C18.9,3.9 24.4,13.5 32.4,13.5 C33.2,13.5 34.1,13.1 34.1,12.2 C34.1,11.3 33.1,10.8 31.9,10 C28,7.6 25.8,5 25.8,0.1 C25.8,-6 30.4,-10.9 36.2,-12.3 L42,20.6 M56.2,2.1 C56.2,9.2 53.3,16.5 46.2,19.4 C44.1,7.4 41.4,-8.5 40.7,-12.9 C49.7,-12.9 56.2,-6.8 56.2,2.1"/>
<path class="Clef" transform="matrix(0.992,0,0,0.992,232.438,1179.8)" d="M12.3,51.3 C12.3,57.9 17.3,66.6 30.8,66.6 C35.5,66.6 39.6,65.4 43.2,63.2 C48.6,59.4 50,52.8 50,46.5 C50,42.6 49.4,38.1 48.4,32.4 C48.1,30.4 47.5,27.4 46.9,23.5 C56.7,20.3 64,10.1 64,-0.2 C64,-15.3 53.3,-25.5 38.7,-25.5 C37.7,-31.5 36.7,-37.4 35.9,-43 C46.4,-54.1 53.7,-66.6 53.7,-82.5 C53.7,-91.6 50.9,-99 49.3,-102.6 C46.9,-107.7 44,-111.2 42.2,-111.2 C41.5,-111.2 38.4,-110 35.1,-106.1 C28.7,-98.5 26.9,-85.7 26.9,-77.3 C26.9,-71.9 27.4,-67 29.1,-55.8 C29,-55.7 23.8,-50.4 21.7,-48.7 C12.6,-40.3 0,-28.1 0,-8.1 C0,10.6 16.3,25.3 34.9,25.3 C37.8,25.3 40.5,25 42.8,24.6 C44.7,34.2 45.9,41.2 45.9,46.5 C45.9,56.9 40.5,62.4 30.4,62.4 C28,62.4 25.9,61.9 25.7,61.9 C25.6,61.8 25.4,61.7 25.4,61.6 C25.4,61.4 25.6,61.3 25.9,61.3 C30.6,60.5 35.3,56.5 35.3,50.1 C35.3,44.7 31.2,39 23.7,39 C16.7,39 12.3,44.7 12.3,51.3 M33.2,-82.2 C34.1,-86.2 38.7,-96.7 43.9,-96.7 C45.4,-96.7 47.8,-91.9 47.8,-84.9 C47.8,-74.5 40.1,-66.7 33.2,-59.9 C32.6,-63.9 32.1,-67.8 32.1,-72 C32.1,-75.7 32.4,-79.1 33.2,-82.2 M42,20.6 C40,21 38.1,21.2 36.2,21.2 C21.9,21.2 9.7,11.2 9.7,-3.9 C9.7,-16.1 18.3,-27 27.1,-34.6 C28.8,-36.1 30.4,-37.5 31.9,-39 C32.8,-33.6 33.5,-28.9 34.2,-24.8 C25.1,-22.1 18.9,-12.5 18.9,-3.1 C18.9,3.9 24.4,13.5 32.4,13.5 C33.2,13.5 34.1,13.1 34.1,12.2 C34.1,11.3 33.1,10.8 31.9,10 C28,7.6 25.8,5 25.8,0.1 C25.8,-6 30.4,-10.9 36.2,-12.3 L42,20.6 M56.2,2.1 C56.2,9.2 53.3,16.5 46.2,19.4 C44.1,7.4 41.4,-8.5 40.7,-12.9 C49.7,-12.9 56.2,-6.8 56.2,2.1"/>
<path class="TimeSig" transform="matrix(0.992,0,0,0.992,319.331,658.998)" d="M20.8,12.7 L20.8,20.1 L12.5,20.1 C11.8,20.1 11.1,20.7 11.1,21.5 L11.1,23.4 C11.1,24.2 11.8,24.8 12.5,24.8 L42.8,24.8 C43.6,24.8 44.2,24.2 44.2,23.4 L44.2,21.5 C44.2,20.7 43.6,20.1 42.8,20.1 L33.9,20.1 L33.9,12.7 L42.8,12.7 C43.6,12.7 44.2,12 44.2,11.2 L44.2,9.3 C44.2,8.6 43.6,7.9 42.8,7.9 L33.9,7.9 L33.9,-8 C33.9,-8.6 33.6,-9.1 33.1,-9.3 L31.9,-9.9 C31.7,-10 31.4,-10.1 31.2,-10.1 C30.9,-10 30.5,-9.9 30.3,-9.7 L21.2,-1.4 C20.9,-1.1 20.8,-0.7 20.8,-0.3 L20.8,7.9 L9.3,7.9 C9.3,7.9 20.4,-4.1 32.2,-19.9 C32.6,-20.4 32.7,-20.9 32.7,-21.3 C32.7,-21.8 32.5,-22.2 32.4,-22.3 L30.2,-24.5 C30,-24.7 29.6,-24.9 29.2,-24.9 C28.6,-24.9 15.1,-24.9 14.4,-24.9 C13.6,-24.9 13.1,-24.3 13,-23.7 C13,-23.7 12.5,-16.3 9.9,-8.2 C7.3,-0.1 4.3,4.9 1.7,8.6 C1.7,8.6 1.4,9.1 1.4,9.7 C1.4,9.9 1.4,10.1 1.5,10.3 C1.9,11 2.5,12.1 2.5,12.1 C2.5,12.1 2.7,12.7 3.6,12.7 L20.8,12.7 "/>
<path class="TimeSig" transform="matrix(0.992,0,0,0.992,319.331,708.598)" d="M20.8,12.7 L20.8,20.1 L12.5,20.1 C11.8,20.1 11.1,20.7 11.1,21.5 L11.1,23.4 C11.1,24.2 11.8,24.8 12.5,24.8 L42.8,24.8 C43.6,24.8 44.2,24.2 44.2,23.4 L44.2,21.5 C44.2,20.7 43.6,20.1 42.8,20.1 L33.9,20.1 L33.9,12.7 L42.8,12.7 C43.6,12.7 44.2,12 44.2,11.2 L44.2,9.3 C44.2,8.6 43.6,7.9 42.8,7.9 L33.9,7.9 L33.9,-8 C33.9,-8.6 33.6,-9.1 33.1,-9.3 L31.9,-9.9 C31.7,-10 31.4,-10.1 31.2,-10.1 C30.9,-10 30.5,-9.9 30.3,-9.7 L21.2,-1.4 C20.9,-1.1 20.8,-0.7 20.8,-0.3 L20.8,7.9 L9.3,7.9 C9.3,7.9 20.4,-4.1 32.2,-19.9 C32.6,-20.4 32.7,-20.9 32.7,-21.3 C32.7,-21.8 32.5,-22.2 32.4,-22.3 L30.2,-24.5 C30,-24.7 29.6,-24.9 29.2,-24.9 C28.6,-24.9 15.1,-24.9 14.4,-24.9 C13.6,-24.9 13.1,-24.3 13,-23.7 C13,-23.7 12.5,-16.3 9.9,-8.2 C7.3,-0.1 4.3,4.9 1.7,8.6 C1.7,8.6 1.4,9.1 1.4,9.7 C1.4,9.9 1.4,10.1 1.5,10.3 C1.9,11 2.5,12.1 2.5,12.1 C2.5,12.1 2.7,12.7 3.6,12.7 L20.8,12.7 "/>
<path class="Rest" transform="matrix(0.992,0,0,0.992,1002.74,683.798)" d="M26.7,-20.3 C26.6,-20.3 26.4,-20.4 26.3,-20.4 C25.7,-20.4 25.2,-20.1 25,-19.6 C22.7,-15 17.9,-8.8 12.5,-7.8 C13.6,-9.1 14.3,-10.7 14.3,-12.6 C14.3,-16.5 11.1,-19.7 7.2,-19.7 C3.2,-19.7 0,-16.5 0,-12.6 C0,-7.2 5.3,-4.7 10,-4.7 C15.3,-4.7 18.8,-7.2 22.2,-10.9 L10.8,24.7 L13.5,25.5 L27.5,-18.6 C27.6,-18.7 27.6,-18.9 27.6,-19.1 C27.6,-19.6 27.3,-20 26.7,-20.3"/>
<path class="Rest" transform="matrix(0.992,0,0,0.992,1640.68,1155)" d="M26.7,-20.3 C26.6,-20.3 26.4,-20.4 26.3,-20.4 C25.7,-20.4 25.2,-20.1 25,-19.6 C22.7,-15 17.9,-8.8 12.5,-7.8 C13.6,-9.1 14.3,-10.7 14.3,-12.6 C14.3,-16.5 11.1,-19.7 7.2,-19.7 C3.2,-19.7 0,-16.5 0,-12.6 C0,-7.2 5.3,-4.7 10,-4.7 C15.3,-4.7 18.8,-7.2 22.2,-10.9 L10.8,24.7 L13.5,25.5 L27.5,-18.6 C27.6,-18.7 27.6,-18.9 27.6,-19.1 C27.6,-19.6 27.3,-20 26.7,-20.3"/>
<path class="Rest" transform="matrix(0.992,0,0,0.992,962.274,1155)" d="M26.7,-20.3 C26.6,-20.3 26.4,-20.4 26.3,-20.4 C25.7,-20.4 25.2,-20.1 25,-19.6 C22.7,-15 17.9,-8.8 12.5,-7.8 C13.6,-9.1 14.3,-10.7 14.3,-12.6 C14.3,-16.5 11.1,-19.7 7.2,-19.7 C3.2,-19.7 0,-16.5 0,-12.6 C0,-7.2 5.3,-4.7 10,-4.7 C15.3,-4.7 18.8,-7.2 22.2,-10.9 L10.8,24.7 L13.5,25.5 L27.5,-18.6 C27.6,-18.7 27.6,-18.9 27.6,-19.1 C27.6,-19.6 27.3,-20 26.7,-20.3"/>
<path class="Rest" transform="matrix(0.992,0,0,0.992,538.993,683.798)" d="M23,16.6 C22.9,16.5 22.7,16.3 22.4,15.9 L10.9,1.7 C10.8,1.6 10.7,1.3 10.7,1.1 C10.7,0.8 10.8,0.4 10.9,0.2 L21.1,-15.2 C21.2,-15.4 21.3,-15.7 21.3,-15.9 L21.3,-16.8 C21.3,-17.1 21.2,-17.4 21,-17.6 L4.8,-39.5 C4.8,-39.5 4.4,-40.1 3.8,-40.1 C3.5,-40.1 3.3,-40.1 3,-39.8 C2.6,-39.5 2.5,-39.1 2.5,-38.8 C2.5,-38.2 2.8,-37.7 2.8,-37.7 L10.4,-27.3 C10.6,-27 10.7,-26.6 10.7,-26.1 C10.7,-25.7 10.6,-25.2 10.4,-24.9 L0.3,-9.5 C0.2,-9.3 0.1,-8.9 0.1,-8.7 L0.1,-7.8 C0.1,-7.5 0.2,-7.2 0.4,-7 L11.6,6.9 C11.2,6.8 10.3,6.6 9.1,6.6 C4,6.6 0,10.8 0,15.9 C0,17.3 0.3,18.7 1.1,19.8 C3.2,23 10.7,32.5 10.7,32.5 C10.7,32.5 11.2,33.1 11.9,33.1 C12.1,33.1 12.3,33.1 12.5,32.9 C13,32.5 13.2,32.1 13.2,31.7 C13.2,31.3 13,31 12.9,30.8 C12.6,30.3 9.4,24.5 9.4,24.5 C9.4,24.5 8.7,23.1 8.7,21.3 C8.7,18.1 11.1,15.5 14.3,15.5 C15.6,15.5 16.7,15.9 17.5,16.4 L21.4,18.9 C21.4,18.9 21.8,19.1 22.2,19.1 C22.6,19.1 22.9,19 23.2,18.6 C23.4,18.3 23.5,18 23.5,17.7 C23.5,17.4 23.4,17.2 23.2,16.9 L23,16.6 "/>
<path class="Rest" transform="matrix(0.992,0,0,0.992,2590.1,1155)" d="M23,16.6 C22.9,16.5 22.7,16.3 22.4,15.9 L10.9,1.7 C10.8,1.6 10.7,1.3 10.7,1.1 C10.7,0.8 10.8,0.4 10.9,0.2 L21.1,-15.2 C21.2,-15.4 21.3,-15.7 21.3,-15.9 L21.3,-16.8 C21.3,-17.1 21.2,-17.4 21,-17.6 L4.8,-39.5 C4.8,-39.5 4.4,-40.1 3.8,-40.1 C3.5,-40.1 3.3,-40.1 3,-39.8 C2.6,-39.5 2.5,-39.1 2.5,-38.8 C2.5,-38.2 2.8,-37.7 2.8,-37.7 L10.4,-27.3 C10.6,-27 10.7,-26.6 10.7,-26.1 C10.7,-25.7 10.6,-25.2 10.4,-24.9 L0.3,-9.5 C0.2,-9.3 0.1,-8.9 0.1,-8.7 L0.1,-7.8 C0.1,-7.5 0.2,-7.2 0.4,-7 L11.6,6.9 C11.2,6.8 10.3,6.6 9.1,6.6 C4,6.6 0,10.8 0,15.9 C0,17.3 0.3,18.7 1.1,19.8 C3.2,23 10.7,32.5 10.7,32.5 C10.7,32.5 11.2,33.1 11.9,33.1 C12.1,33.1 12.3,33.1 12.5,32.9 C13,32.5 13.2,32.1 13.2,31.7 C13.2,31.3 13,31 12.9,30.8 C12.6,30.3 9.4,24.5 9.4,24.5 C9.4,24.5 8.7,23.1 8.7,21.3 C8.7,18.1 11.1,15.5 14.3,15.5 C15.6,15.5 16.7,15.9 17.5,16.4 L21.4,18.9 C21.4,18.9 21.8,19.1 22.2,19.1 C22.6,19.1 22.9,19 23.2,18.6 C23.4,18.3 23.5,18 23.5,17.7 C23.5,17.4 23.4,17.2 23.2,16.9 L23,16.6 "/>
<path class="Rest" transform="matrix(0.992,0,0,0.992,2617.79,683.798)" d="M23,16.6 C22.9,16.5 22.7,16.3 22.4,15.9 L10.9,1.7 C10.8,1.6 10.7,1.3 10.7,1.1 C10.7,0.8 10.8,0.4 10.9,0.2 L21.1,-15.2 C21.2,-15.4 21.3,-15.7 21.3,-15.9 L21.3,-16.8 C21.3,-17.1 21.2,-17.4 21,-17.6 L4.8,-39.5 C4.8,-39.5 4.4,-40.1 3.8,-40.1 C3.5,-40.1 3.3,-40.1 3,-39.8 C2.6,-39.5 2.5,-39.1 2.5,-38.8 C2.5,-38.2 2.8,-37.7 2.8,-37.7 L10.4,-27.3 C10.6,-27 10.7,-26.6 10.7,-26.1 C10.7,-25.7 10.6,-25.2 10.4,-24.9 L0.3,-9.5 C0.2,-9.3 0.1,-8.9 0.1,-8.7 L0.1,-7.8 C0.1,-7.5 0.2,-7.2 0.4,-7 L11.6,6.9 C11.2,6.8 10.3,6.6 9.1,6.6 C4,6.6 0,10.8 0,15.9 C0,17.3 0.3,18.7 1.1,19.8 C3.2,23 10.7,32.5 10.7,32.5 C10.7,32.5 11.2,33.1 11.9,33.1 C12.1,33.1 12.3,33.1 12.5,32.9 C13,32.5 13.2,32.1 13.2,31.7 C13.2,31.3 13,31 12.9,30.8 C12.6,30.3 9.4,24.5 9.4,24.5 C9.4,24.5 8.7,23.1 8.7,21.3 C8.7,18.1 11.1,15.5 14.3,15.5 C15.6,15.5 16.7,15.9 17.5,16.4 L21.4,18.9 C21.4,18.9 21.8,19.1 22.2,19.1 C22.6,19.1 22.9,19 23.2,18.6 C23.4,18.3 23.5,18 23.5,17.7 C23.5,17.4 23.4,17.2 23.2,16.9 L23,16.6 "/>
<path class="Rest" transform="matrix(0.992,0,0,0.992,1656.28,683.798)" d="M26.7,-20.3 C26.6,-20.3 26.4,-20.4 26.3,-20.4 C25.7,-20.4 25.2,-20.1 25,-19.6 C22.7,-15 17.9,-8.8 12.5,-7.8 C13.6,-9.1 14.3,-10.7 14.3,-12.6 C14.3,-16.5 11.1,-19.7 7.2,-19.7 C3.2,-19.7 0,-16.5 0,-12.6 C0,-7.2 5.3,-4.7 10,-4.7 C15.3,-4.7 18.8,-7.2 22.2,-10.9 L10.8,24.7 L13.5,25.5 L27.5,-18.6 C27.6,-18.7 27.6,-18.9 27.6,-19.1 C27.6,-19.6 27.3,-20 26.7,-20.3"/>
<path class="Beam" fill-rule="evenodd" d="M1780.67,658.986 L1973.2,646.586 L1973.2,659.011 L1780.67,671.411 L1780.67,658.986 "/>
<path class="Beam" fill-rule="evenodd" d="M757.62,1154.99 L859.071,1148.79 L859.071,1161.21 L757.62,1167.41 L757.62,1154.99 "/>
<path class="Harmony" d="M1477.23,572.198 L1495.71,572.198 C1500.6,572.198 1504.34,571.428 1507.26,569.778 C1512.81,566.643 1515.89,560.373 1515.89,552.123 C1515.89,544.533 1513.14,538.593 1508.08,535.293 C1505.06,533.368 1500.99,532.488 1494.72,532.488 L1477.23,532.488 L1477.23,535.073 L1478.27,535.073 C1481.35,535.128 1482.4,535.293 1482.84,535.843 C1483.17,536.338 1483.17,536.448 1483.17,539.253 L1483.17,565.433 C1483.17,568.238 1483.17,568.348 1482.84,568.843 C1482.4,569.393 1481.35,569.558 1478.27,569.613 L1477.23,569.613 L1477.23,572.198 M1492.46,569.613 C1489.66,569.613 1489.33,569.283 1489.33,566.588 L1489.33,538.153 C1489.33,535.458 1489.71,535.073 1492.46,535.073 L1495.32,535.073 C1504.73,535.073 1508.63,540.188 1508.63,552.343 C1508.63,564.663 1505.11,569.613 1496.2,569.613 L1492.46,569.613 "/>
<path class="Harmony" d="M1531.92,546.568 L1522.13,547.173 L1522.13,549.538 L1524.39,549.538 C1526.48,549.593 1526.75,549.923 1526.75,552.288 L1526.75,568.018 C1526.7,568.843 1526.64,569.173 1526.42,569.448 C1526.04,569.943 1524.99,570.163 1522.63,570.218 L1522.41,570.218 L1522.41,572.198 L1536.27,572.198 L1536.27,570.218 L1536.05,570.218 C1532.42,570.108 1531.92,569.833 1531.92,567.798 L1531.92,557.623 C1531.92,552.728 1534.62,549.098 1538.19,549.098 C1541.33,549.098 1542.92,551.353 1542.92,555.808 L1542.92,568.073 C1542.87,568.788 1542.81,569.173 1542.54,569.448 C1542.21,569.943 1541.11,570.163 1538.74,570.218 L1538.52,570.218 L1538.52,572.198 L1552.44,572.198 L1552.44,570.218 L1552.22,570.218 C1548.59,570.108 1548.09,569.833 1548.09,567.853 L1548.09,558.118 C1548.09,552.618 1550.57,549.098 1554.42,549.098 C1557.55,549.098 1559.09,551.463 1559.09,556.413 L1559.09,568.018 C1559.04,568.788 1558.98,569.173 1558.71,569.448 C1558.38,569.943 1557.28,570.163 1554.91,570.218 L1554.69,570.218 L1554.69,572.198 L1568.61,572.198 L1568.61,570.218 L1568.39,570.218 C1564.76,570.108 1564.26,569.833 1564.26,567.798 L1564.26,555.313 C1564.26,551.903 1563.93,550.748 1562.5,548.878 C1560.91,546.843 1558.65,545.743 1556.01,545.743 C1552.44,545.743 1549.8,547.448 1547.43,551.243 C1546.5,547.943 1543.53,545.743 1539.84,545.743 C1536.49,545.743 1534.07,547.338 1531.92,550.803 L1531.92,546.568 "/>
<path class="Harmony" d="M2446,1003.69 L2412.95,1003.69 L2412.95,1006.27 L2413.94,1006.27 C2417.07,1006.33 2418.12,1006.49 2418.56,1007.04 C2418.89,1007.54 2418.89,1007.65 2418.89,1010.45 L2418.89,1036.63 C2418.89,1039.44 2418.89,1039.55 2418.56,1040.04 C2418.12,1040.59 2417.07,1040.81 2413.94,1040.81 L2412.95,1040.81 L2412.95,1043.4 L2446.72,1043.4 L2447.82,1028.71 L2445.4,1028.71 C2443.31,1038.5 2441.05,1040.59 2432.64,1040.81 L2429.01,1040.81 C2425.71,1040.7 2424.88,1040.15 2425.05,1038.17 L2425.05,1024.15 L2426.15,1024.15 C2431.81,1023.93 2433.85,1025.96 2434.07,1032.07 L2436.65,1032.07 L2436.65,1014.03 L2434.07,1014.03 C2433.74,1019.42 2431.59,1021.56 2426.37,1021.56 L2425.05,1021.56 L2425.05,1009.02 C2424.99,1006.71 2425.54,1006.33 2428.51,1006.27 L2431.37,1006.27 C2440.39,1006.22 2442.65,1008.2 2444.41,1017.71 L2446.77,1017.71 L2446,1003.69 "/>
<path class="Harmony" d="M1329.03,1002.92 L1326.72,1002.92 L1314.07,1034.98 C1312.59,1039.27 1311.16,1040.59 1308.02,1040.81 L1307.8,1040.81 L1307.8,1043.4 L1322.38,1043.4 L1322.38,1040.81 L1321.28,1040.81 C1318.31,1040.81 1316.82,1039.77 1316.82,1037.68 C1316.82,1036.96 1316.99,1036.3 1317.32,1035.37 L1319.13,1030.53 L1333.71,1030.53 L1336.68,1037.9 C1337.01,1038.78 1337.12,1039.11 1337.12,1039.38 C1337.12,1040.26 1335.74,1040.81 1333.71,1040.81 L1331.4,1040.81 L1331.4,1043.4 L1348.45,1043.4 L1348.45,1040.81 L1347.68,1040.81 C1344.82,1040.76 1344.32,1040.43 1343.06,1037.29 L1329.03,1002.92 M1326.34,1011.94 L1332.55,1027.56 L1320.23,1027.56 L1326.34,1011.94 "/>
<path class="Harmony" d="M1361.45,1017.77 L1351.66,1018.37 L1351.66,1020.74 L1353.92,1020.74 C1356.01,1020.79 1356.28,1021.12 1356.28,1023.49 L1356.28,1039.22 C1356.23,1040.04 1356.17,1040.37 1355.95,1040.65 C1355.57,1041.14 1354.52,1041.36 1352.16,1041.42 L1351.94,1041.42 L1351.94,1043.4 L1365.8,1043.4 L1365.8,1041.42 L1365.58,1041.42 C1361.95,1041.31 1361.45,1041.03 1361.45,1039 L1361.45,1028.82 C1361.45,1023.93 1364.15,1020.3 1367.72,1020.3 C1370.86,1020.3 1372.45,1022.55 1372.45,1027.01 L1372.45,1039.27 C1372.4,1039.99 1372.34,1040.37 1372.07,1040.65 C1371.74,1041.14 1370.64,1041.36 1368.27,1041.42 L1368.05,1041.42 L1368.05,1043.4 L1381.97,1043.4 L1381.97,1041.42 L1381.75,1041.42 C1378.12,1041.31 1377.62,1041.03 1377.62,1039.05 L1377.62,1029.32 C1377.62,1023.82 1380.1,1020.3 1383.95,1020.3 C1387.08,1020.3 1388.62,1022.66 1388.62,1027.61 L1388.62,1039.22 C1388.57,1039.99 1388.51,1040.37 1388.24,1040.65 C1387.91,1041.14 1386.81,1041.36 1384.44,1041.42 L1384.22,1041.42 L1384.22,1043.4 L1398.14,1043.4 L1398.14,1041.42 L1397.92,1041.42 C1394.29,1041.31 1393.79,1041.03 1393.79,1039 L1393.79,1026.51 C1393.79,1023.1 1393.46,1021.95 1392.03,1020.08 C1390.44,1018.04 1388.18,1016.94 1385.54,1016.94 C1381.97,1016.94 1379.33,1018.65 1376.96,1022.44 C1376.03,1019.14 1373.06,1016.94 1369.37,1016.94 C1366.02,1016.94 1363.6,1018.54 1361.45,1022 L1361.45,1017.77 "/>
<path class="Harmony" d="M1180.95,1002.92 L1178.64,1002.92 L1165.99,1034.98 C1164.5,1039.27 1163.07,1040.59 1159.94,1040.81 L1159.72,1040.81 L1159.72,1043.4 L1174.29,1043.4 L1174.29,1040.81 L1173.19,1040.81 C1170.22,1040.81 1168.74,1039.77 1168.74,1037.68 C1168.74,1036.96 1168.9,1036.3 1169.23,1035.37 L1171.05,1030.53 L1185.62,1030.53 L1188.59,1037.9 C1188.92,1038.78 1189.03,1039.11 1189.03,1039.38 C1189.03,1040.26 1187.66,1040.81 1185.62,1040.81 L1183.31,1040.81 L1183.31,1043.4 L1200.36,1043.4 L1200.36,1040.81 L1199.59,1040.81 C1196.73,1040.76 1196.24,1040.43 1194.97,1037.29 L1180.95,1002.92 M1178.25,1011.94 L1184.47,1027.56 L1172.15,1027.56 L1178.25,1011.94 "/>
<path class="Harmony" d="M1213.37,1017.77 L1203.58,1018.37 L1203.58,1020.74 L1205.83,1020.74 C1207.92,1020.79 1208.2,1021.12 1208.2,1023.49 L1208.2,1039.22 C1208.14,1040.04 1208.09,1040.37 1207.87,1040.65 C1207.48,1041.14 1206.44,1041.36 1204.07,1041.42 L1203.85,1041.42 L1203.85,1043.4 L1217.71,1043.4 L1217.71,1041.42 L1217.49,1041.42 C1213.86,1041.31 1213.37,1041.03 1213.37,1039 L1213.37,1028.82 C1213.37,1023.93 1216.06,1020.3 1219.64,1020.3 C1222.77,1020.3 1224.37,1022.55 1224.37,1027.01 L1224.37,1039.27 C1224.31,1039.99 1224.26,1040.37 1223.98,1040.65 C1223.65,1041.14 1222.55,1041.36 1220.19,1041.42 L1219.97,1041.42 L1219.97,1043.4 L1233.88,1043.4 L1233.88,1041.42 L1233.66,1041.42 C1230.03,1041.31 1229.54,1041.03 1229.54,1039.05 L1229.54,1029.32 C1229.54,1023.82 1232.01,1020.3 1235.86,1020.3 C1239,1020.3 1240.54,1022.66 1240.54,1027.61 L1240.54,1039.22 C1240.48,1039.99 1240.43,1040.37 1240.15,1040.65 C1239.82,1041.14 1238.72,1041.36 1236.36,1041.42 L1236.14,1041.42 L1236.14,1043.4 L1250.05,1043.4 L1250.05,1041.42 L1249.83,1041.42 C1246.2,1041.31 1245.71,1041.03 1245.71,1039 L1245.71,1026.51 C1245.71,1023.1 1245.38,1021.95 1243.95,1020.08 C1242.35,1018.04 1240.1,1016.94 1237.46,1016.94 C1233.88,1016.94 1231.24,1018.65 1228.88,1022.44 C1227.94,1019.14 1224.97,1016.94 1221.29,1016.94 C1217.93,1016.94 1215.51,1018.54 1213.37,1022 L1213.37,1017.77 "/>
<path class="Harmony" d="M681.341,572.198 L699.821,572.198 C704.716,572.198 708.456,571.428 711.371,569.778 C716.926,566.643 720.006,560.373 720.006,552.123 C720.006,544.533 717.256,538.593 712.196,535.293 C709.171,533.368 705.101,532.488 698.831,532.488 L681.341,532.488 L681.341,535.073 L682.386,535.073 C685.466,535.128 686.511,535.293 686.951,535.843 C687.281,536.338 687.281,536.448 687.281,539.253 L687.281,565.433 C687.281,568.238 687.281,568.348 686.951,568.843 C686.511,569.393 685.466,569.558 682.386,569.613 L681.341,569.613 L681.341,572.198 M696.576,569.613 C693.771,569.613 693.441,569.283 693.441,566.588 L693.441,538.153 C693.441,535.458 693.826,535.073 696.576,535.073 L699.436,535.073 C708.841,535.073 712.746,540.188 712.746,552.343 C712.746,564.663 709.226,569.613 700.316,569.613 L696.576,569.613 "/>
<path class="Harmony" d="M736.035,546.568 L726.245,547.173 L726.245,549.538 L728.5,549.538 C730.59,549.593 730.865,549.923 730.865,552.288 L730.865,568.018 C730.81,568.843 730.755,569.173 730.535,569.448 C730.15,569.943 729.105,570.163 726.74,570.218 L726.52,570.218 L726.52,572.198 L740.38,572.198 L740.38,570.218 L740.16,570.218 C736.53,570.108 736.035,569.833 736.035,567.798 L736.035,557.623 C736.035,552.728 738.73,549.098 742.305,549.098 C745.44,549.098 747.035,551.353 747.035,555.808 L747.035,568.073 C746.98,568.788 746.925,569.173 746.65,569.448 C746.32,569.943 745.22,570.163 742.855,570.218 L742.635,570.218 L742.635,572.198 L756.55,572.198 L756.55,570.218 L756.33,570.218 C752.7,570.108 752.205,569.833 752.205,567.853 L752.205,558.118 C752.205,552.618 754.68,549.098 758.53,549.098 C761.665,549.098 763.205,551.463 763.205,556.413 L763.205,568.018 C763.15,568.788 763.095,569.173 762.82,569.448 C762.49,569.943 761.39,570.163 759.025,570.218 L758.805,570.218 L758.805,572.198 L772.72,572.198 L772.72,570.218 L772.5,570.218 C768.87,570.108 768.375,569.833 768.375,567.798 L768.375,555.313 C768.375,551.903 768.045,550.748 766.615,548.878 C765.02,546.843 762.765,545.743 760.125,545.743 C756.55,545.743 753.91,547.448 751.545,551.243 C750.61,547.943 747.64,545.743 743.955,545.743 C740.6,545.743 738.18,547.338 736.035,550.803 L736.035,546.568 "/>
<path class="Harmony" d="M1661.91,1002.92 L1659.6,1002.92 L1646.95,1034.98 C1645.46,1039.27 1644.03,1040.59 1640.9,1040.81 L1640.68,1040.81 L1640.68,1043.4 L1655.25,1043.4 L1655.25,1040.81 L1654.15,1040.81 C1651.18,1040.81 1649.7,1039.77 1649.7,1037.68 C1649.7,1036.96 1649.86,1036.3 1650.19,1035.37 L1652.01,1030.53 L1666.58,1030.53 L1669.55,1037.9 C1669.88,1038.78 1669.99,1039.11 1669.99,1039.38 C1669.99,1040.26 1668.62,1040.81 1666.58,1040.81 L1664.27,1040.81 L1664.27,1043.4 L1681.32,1043.4 L1681.32,1040.81 L1680.55,1040.81 C1677.69,1040.76 1677.2,1040.43 1675.93,1037.29 L1661.91,1002.92 M1659.21,1011.94 L1665.43,1027.56 L1653.11,1027.56 L1659.21,1011.94 "/>
<path class="Harmony" d="M1694.33,1017.77 L1684.54,1018.37 L1684.54,1020.74 L1686.79,1020.74 C1688.88,1020.79 1689.16,1021.12 1689.16,1023.49 L1689.16,1039.22 C1689.1,1040.04 1689.05,1040.37 1688.83,1040.65 C1688.44,1041.14 1687.4,1041.36 1685.03,1041.42 L1684.81,1041.42 L1684.81,1043.4 L1698.67,1043.4 L1698.67,1041.42 L1698.45,1041.42 C1694.82,1041.31 1694.33,1041.03 1694.33,1039 L1694.33,1028.82 C1694.33,1023.93 1697.02,1020.3 1700.6,1020.3 C1703.73,1020.3 1705.33,1022.55 1705.33,1027.01 L1705.33,1039.27 C1705.27,1039.99 1705.22,1040.37 1704.94,1040.65 C1704.61,1041.14 1703.51,1041.36 1701.15,1041.42 L1700.93,1041.42 L1700.93,1043.4 L1714.84,1043.4 L1714.84,1041.42 L1714.62,1041.42 C1710.99,1041.31 1710.5,1041.03 1710.5,1039.05 L1710.5,1029.32 C1710.5,1023.82 1712.97,1020.3 1716.82,1020.3 C1719.96,1020.3 1721.5,1022.66 1721.5,1027.61 L1721.5,1039.22 C1721.44,1039.99 1721.39,1040.37 1721.11,1040.65 C1720.78,1041.14 1719.68,1041.36 1717.32,1041.42 L1717.1,1041.42 L1717.1,1043.4 L1731.01,1043.4 L1731.01,1041.42 L1730.79,1041.42 C1727.16,1041.31 1726.67,1041.03 1726.67,1039 L1726.67,1026.51 C1726.67,1023.1 1726.34,1021.95 1724.91,1020.08 C1723.31,1018.04 1721.06,1016.94 1718.42,1016.94 C1714.84,1016.94 1712.2,1018.65 1709.84,1022.44 C1708.9,1019.14 1705.93,1016.94 1702.25,1016.94 C1698.89,1016.94 1696.47,1018.54 1694.33,1022 L1694.33,1017.77 "/>
<path class="Harmony" d="M983.501,1002.92 L981.191,1002.92 L968.541,1034.98 C967.056,1039.27 965.626,1040.59 962.491,1040.81 L962.271,1040.81 L962.271,1043.4 L976.846,1043.4 L976.846,1040.81 L975.746,1040.81 C972.776,1040.81 971.291,1039.77 971.291,1037.68 C971.291,1036.96 971.456,1036.3 971.786,1035.37 L973.601,1030.53 L988.176,1030.53 L991.146,1037.9 C991.476,1038.78 991.586,1039.11 991.586,1039.38 C991.586,1040.26 990.211,1040.81 988.176,1040.81 L985.866,1040.81 L985.866,1043.4 L1002.92,1043.4 L1002.92,1040.81 L1002.15,1040.81 C999.286,1040.76 998.791,1040.43 997.526,1037.29 L983.501,1002.92 M980.806,1011.94 L987.021,1027.56 L974.701,1027.56 L980.806,1011.94 "/>
<path class="Harmony" d="M1015.92,1017.77 L1006.13,1018.37 L1006.13,1020.74 L1008.39,1020.74 C1010.48,1020.79 1010.75,1021.12 1010.75,1023.49 L1010.75,1039.22 C1010.7,1040.04 1010.64,1040.37 1010.42,1040.65 C1010.04,1041.14 1008.99,1041.36 1006.63,1041.42 L1006.41,1041.42 L1006.41,1043.4 L1020.27,1043.4 L1020.27,1041.42 L1020.05,1041.42 C1016.42,1041.31 1015.92,1041.03 1015.92,1039 L1015.92,1028.82 C1015.92,1023.93 1018.62,1020.3 1022.19,1020.3 C1025.33,1020.3 1026.92,1022.55 1026.92,1027.01 L1026.92,1039.27 C1026.87,1039.99 1026.81,1040.37 1026.54,1040.65 C1026.21,1041.14 1025.11,1041.36 1022.74,1041.42 L1022.52,1041.42 L1022.52,1043.4 L1036.44,1043.4 L1036.44,1041.42 L1036.22,1041.42 C1032.59,1041.31 1032.09,1041.03 1032.09,1039.05 L1032.09,1029.32 C1032.09,1023.82 1034.57,1020.3 1038.42,1020.3 C1041.55,1020.3 1043.09,1022.66 1043.09,1027.61 L1043.09,1039.22 C1043.04,1039.99 1042.98,1040.37 1042.71,1040.65 C1042.38,1041.14 1041.28,1041.36 1038.91,1041.42 L1038.69,1041.42 L1038.69,1043.4 L1052.61,1043.4 L1052.61,1041.42 L1052.39,1041.42 C1048.76,1041.31 1048.26,1041.03 1048.26,1039 L1048.26,1026.51 C1048.26,1023.1 1047.93,1021.95 1046.5,1020.08 C1044.91,1018.04 1042.65,1016.94 1040.01,1016.94 C1036.44,1016.94 1033.8,1018.65 1031.43,1022.44 C1030.5,1019.14 1027.53,1016.94 1023.84,1016.94 C1020.49,1016.94 1018.07,1018.54 1015.92,1022 L1015.92,1017.77 "/>
<path class="Harmony" d="M823.688,572.198 L842.168,572.198 C847.063,572.198 850.803,571.428 853.718,569.778 C859.273,566.643 862.353,560.373 862.353,552.123 C862.353,544.533 859.603,538.593 854.543,535.293 C851.518,533.368 847.448,532.488 841.178,532.488 L823.688,532.488 L823.688,535.073 L824.733,535.073 C827.813,535.128 828.858,535.293 829.298,535.843 C829.628,536.338 829.628,536.448 829.628,539.253 L829.628,565.433 C829.628,568.238 829.628,568.348 829.298,568.843 C828.858,569.393 827.813,569.558 824.733,569.613 L823.688,569.613 L823.688,572.198 M838.923,569.613 C836.118,569.613 835.788,569.283 835.788,566.588 L835.788,538.153 C835.788,535.458 836.173,535.073 838.923,535.073 L841.783,535.073 C851.188,535.073 855.093,540.188 855.093,552.343 C855.093,564.663 851.573,569.613 842.663,569.613 L838.923,569.613 "/>
<path class="Harmony" d="M878.383,546.568 L868.593,547.173 L868.593,549.538 L870.848,549.538 C872.938,549.593 873.213,549.923 873.213,552.288 L873.213,568.018 C873.158,568.843 873.103,569.173 872.883,569.448 C872.498,569.943 871.453,570.163 869.088,570.218 L868.868,570.218 L868.868,572.198 L882.728,572.198 L882.728,570.218 L882.508,570.218 C878.878,570.108 878.383,569.833 878.383,567.798 L878.383,557.623 C878.383,552.728 881.078,549.098 884.653,549.098 C887.788,549.098 889.383,551.353 889.383,555.808 L889.383,568.073 C889.328,568.788 889.273,569.173 888.998,569.448 C888.668,569.943 887.568,570.163 885.203,570.218 L884.983,570.218 L884.983,572.198 L898.898,572.198 L898.898,570.218 L898.678,570.218 C895.048,570.108 894.553,569.833 894.553,567.853 L894.553,558.118 C894.553,552.618 897.028,549.098 900.878,549.098 C904.013,549.098 905.553,551.463 905.553,556.413 L905.553,568.018 C905.498,568.788 905.443,569.173 905.168,569.448 C904.838,569.943 903.738,570.163 901.373,570.218 L901.153,570.218 L901.153,572.198 L915.068,572.198 L915.068,570.218 L914.848,570.218 C911.218,570.108 910.723,569.833 910.723,567.798 L910.723,555.313 C910.723,551.903 910.393,550.748 908.963,548.878 C907.368,546.843 905.113,545.743 902.473,545.743 C898.898,545.743 896.258,547.448 893.893,551.243 C892.958,547.943 889.988,545.743 886.303,545.743 C882.948,545.743 880.528,547.338 878.383,550.803 L878.383,546.568 "/>
<path class="Harmony" d="M538.994,572.198 L557.474,572.198 C562.369,572.198 566.109,571.428 569.024,569.778 C574.579,566.643 577.659,560.373 577.659,552.123 C577.659,544.533 574.909,538.593 569.849,535.293 C566.824,533.368 562.754,532.488 556.484,532.488 L538.994,532.488 L538.994,535.073 L540.039,535.073 C543.119,535.128 544.164,535.293 544.604,535.843 C544.934,536.338 544.934,536.448 544.934,539.253 L544.934,565.433 C544.934,568.238 544.934,568.348 544.604,568.843 C544.164,569.393 543.119,569.558 540.039,569.613 L538.994,569.613 L538.994,572.198 M554.229,569.613 C551.424,569.613 551.094,569.283 551.094,566.588 L551.094,538.153 C551.094,535.458 551.479,535.073 554.229,535.073 L557.089,535.073 C566.494,535.073 570.399,540.188 570.399,552.343 C570.399,564.663 566.879,569.613 557.969,569.613 L554.229,569.613 "/>
<path class="Harmony" d="M593.688,546.568 L583.898,547.173 L583.898,549.538 L586.153,549.538 C588.243,549.593 588.518,549.923 588.518,552.288 L588.518,568.018 C588.463,568.843 588.408,569.173 588.188,569.448 C587.803,569.943 586.758,570.163 584.393,570.218 L584.173,570.218 L584.173,572.198 L598.033,572.198 L598.033,570.218 L597.813,570.218 C594.183,570.108 593.688,569.833 593.688,567.798 L593.688,557.623 C593.688,552.728 596.383,549.098 599.958,549.098 C603.093,549.098 604.688,551.353 604.688,555.808 L604.688,568.073 C604.633,568.788 604.578,569.173 604.303,569.448 C603.973,569.943 602.873,570.163 600.508,570.218 L600.288,570.218 L600.288,572.198 L614.203,572.198 L614.203,570.218 L613.983,570.218 C610.353,570.108 609.858,569.833 609.858,567.853 L609.858,558.118 C609.858,552.618 612.333,549.098 616.183,549.098 C619.318,549.098 620.858,551.463 620.858,556.413 L620.858,568.018 C620.803,568.788 620.748,569.173 620.473,569.448 C620.143,569.943 619.043,570.163 616.678,570.218 L616.458,570.218 L616.458,572.198 L630.373,572.198 L630.373,570.218 L630.153,570.218 C626.523,570.108 626.028,569.833 626.028,567.798 L626.028,555.313 C626.028,551.903 625.698,550.748 624.268,548.878 C622.673,546.843 620.418,545.743 617.778,545.743 C614.203,545.743 611.563,547.448 609.198,551.243 C608.263,547.943 605.293,545.743 601.608,545.743 C598.253,545.743 595.833,547.338 593.688,550.803 L593.688,546.568 "/>
<path class="Harmony" d="M749.351,1002.92 L747.041,1002.92 L734.391,1034.98 C732.906,1039.27 731.476,1040.59 728.341,1040.81 L728.121,1040.81 L728.121,1043.4 L742.696,1043.4 L742.696,1040.81 L741.596,1040.81 C738.626,1040.81 737.141,1039.77 737.141,1037.68 C737.141,1036.96 737.306,1036.3 737.636,1035.37 L739.451,1030.53 L754.026,1030.53 L756.996,1037.9 C757.326,1038.78 757.436,1039.11 757.436,1039.38 C757.436,1040.26 756.061,1040.81 754.026,1040.81 L751.716,1040.81 L751.716,1043.4 L768.766,1043.4 L768.766,1040.81 L767.996,1040.81 C765.136,1040.76 764.641,1040.43 763.376,1037.29 L749.351,1002.92 M746.656,1011.94 L752.871,1027.56 L740.551,1027.56 L746.656,1011.94 "/>
<path class="Harmony" d="M781.772,1017.77 L771.982,1018.37 L771.982,1020.74 L774.237,1020.74 C776.327,1020.79 776.602,1021.12 776.602,1023.49 L776.602,1039.22 C776.547,1040.04 776.492,1040.37 776.272,1040.65 C775.887,1041.14 774.842,1041.36 772.477,1041.42 L772.257,1041.42 L772.257,1043.4 L786.117,1043.4 L786.117,1041.42 L785.897,1041.42 C782.267,1041.31 781.772,1041.03 781.772,1039 L781.772,1028.82 C781.772,1023.93 784.467,1020.3 788.042,1020.3 C791.177,1020.3 792.772,1022.55 792.772,1027.01 L792.772,1039.27 C792.717,1039.99 792.662,1040.37 792.387,1040.65 C792.057,1041.14 790.957,1041.36 788.592,1041.42 L788.372,1041.42 L788.372,1043.4 L802.287,1043.4 L802.287,1041.42 L802.067,1041.42 C798.437,1041.31 797.942,1041.03 797.942,1039.05 L797.942,1029.32 C797.942,1023.82 800.417,1020.3 804.267,1020.3 C807.402,1020.3 808.942,1022.66 808.942,1027.61 L808.942,1039.22 C808.887,1039.99 808.832,1040.37 808.557,1040.65 C808.227,1041.14 807.127,1041.36 804.762,1041.42 L804.542,1041.42 L804.542,1043.4 L818.457,1043.4 L818.457,1041.42 L818.237,1041.42 C814.607,1041.31 814.112,1041.03 814.112,1039 L814.112,1026.51 C814.112,1023.1 813.782,1021.95 812.352,1020.08 C810.757,1018.04 808.502,1016.94 805.862,1016.94 C802.287,1016.94 799.647,1018.65 797.282,1022.44 C796.347,1019.14 793.377,1016.94 789.692,1016.94 C786.337,1016.94 783.917,1018.54 781.772,1022 L781.772,1017.77 "/>
<path class="Harmony" d="M1002.74,572.198 L1021.22,572.198 C1026.11,572.198 1029.85,571.428 1032.77,569.778 C1038.32,566.643 1041.4,560.373 1041.4,552.123 C1041.4,544.533 1038.65,538.593 1033.59,535.293 C1030.57,533.368 1026.5,532.488 1020.23,532.488 L1002.74,532.488 L1002.74,535.073 L1003.78,535.073 C1006.86,535.128 1007.91,535.293 1008.35,535.843 C1008.68,536.338 1008.68,536.448 1008.68,539.253 L1008.68,565.433 C1008.68,568.238 1008.68,568.348 1008.35,568.843 C1007.91,569.393 1006.86,569.558 1003.78,569.613 L1002.74,569.613 L1002.74,572.198 M1017.97,569.613 C1015.17,569.613 1014.84,569.283 1014.84,566.588 L1014.84,538.153 C1014.84,535.458 1015.22,535.073 1017.97,535.073 L1020.83,535.073 C1030.24,535.073 1034.14,540.188 1034.14,552.343 C1034.14,564.663 1030.62,569.613 1021.71,569.613 L1017.97,569.613 "/>
<path class="Harmony" d="M1057.43,546.568 L1047.64,547.173 L1047.64,549.538 L1049.9,549.538 C1051.99,549.593 1052.26,549.923 1052.26,552.288 L1052.26,568.018 C1052.21,568.843 1052.15,569.173 1051.93,569.448 C1051.55,569.943 1050.5,570.163 1048.14,570.218 L1047.92,570.218 L1047.92,572.198 L1061.78,572.198 L1061.78,570.218 L1061.56,570.218 C1057.93,570.108 1057.43,569.833 1057.43,567.798 L1057.43,557.623 C1057.43,552.728 1060.13,549.098 1063.7,549.098 C1066.84,549.098 1068.43,551.353 1068.43,555.808 L1068.43,568.073 C1068.38,568.788 1068.32,569.173 1068.05,569.448 C1067.72,569.943 1066.62,570.163 1064.25,570.218 L1064.03,570.218 L1064.03,572.198 L1077.95,572.198 L1077.95,570.218 L1077.73,570.218 C1074.1,570.108 1073.6,569.833 1073.6,567.853 L1073.6,558.118 C1073.6,552.618 1076.08,549.098 1079.93,549.098 C1083.06,549.098 1084.6,551.463 1084.6,556.413 L1084.6,568.018 C1084.55,568.788 1084.49,569.173 1084.22,569.448 C1083.89,569.943 1082.79,570.163 1080.42,570.218 L1080.2,570.218 L1080.2,572.198 L1094.12,572.198 L1094.12,570.218 L1093.9,570.218 C1090.27,570.108 1089.77,569.833 1089.77,567.798 L1089.77,555.313 C1089.77,551.903 1089.44,550.748 1088.01,548.878 C1086.42,546.843 1084.16,545.743 1081.52,545.743 C1077.95,545.743 1075.31,547.448 1072.94,551.243 C1072.01,547.943 1069.04,545.743 1065.35,545.743 C1062,545.743 1059.58,547.338 1057.43,550.803 L1057.43,546.568 "/>
<path class="Harmony" d="M601.266,1002.92 L598.956,1002.92 L586.306,1034.98 C584.821,1039.27 583.391,1040.59 580.256,1040.81 L580.036,1040.81 L580.036,1043.4 L594.611,1043.4 L594.611,1040.81 L593.511,1040.81 C590.541,1040.81 589.056,1039.77 589.056,1037.68 C589.056,1036.96 589.221,1036.3 589.551,1035.37 L591.366,1030.53 L605.941,1030.53 L608.911,1037.9 C609.241,1038.78 609.351,1039.11 609.351,1039.38 C609.351,1040.26 607.976,1040.81 605.941,1040.81 L603.631,1040.81 L603.631,1043.4 L620.681,1043.4 L620.681,1040.81 L619.911,1040.81 C617.051,1040.76 616.556,1040.43 615.291,1037.29 L601.266,1002.92 M598.571,1011.94 L604.786,1027.56 L592.466,1027.56 L598.571,1011.94 "/>
<path class="Harmony" d="M633.687,1017.77 L623.897,1018.37 L623.897,1020.74 L626.152,1020.74 C628.242,1020.79 628.517,1021.12 628.517,1023.49 L628.517,1039.22 C628.462,1040.04 628.407,1040.37 628.187,1040.65 C627.802,1041.14 626.757,1041.36 624.392,1041.42 L624.172,1041.42 L624.172,1043.4 L638.032,1043.4 L638.032,1041.42 L637.812,1041.42 C634.182,1041.31 633.687,1041.03 633.687,1039 L633.687,1028.82 C633.687,1023.93 636.382,1020.3 639.957,1020.3 C643.092,1020.3 644.687,1022.55 644.687,1027.01 L644.687,1039.27 C644.632,1039.99 644.577,1040.37 644.302,1040.65 C643.972,1041.14 642.872,1041.36 640.507,1041.42 L640.287,1041.42 L640.287,1043.4 L654.202,1043.4 L654.202,1041.42 L653.982,1041.42 C650.352,1041.31 649.857,1041.03 649.857,1039.05 L649.857,1029.32 C649.857,1023.82 652.332,1020.3 656.182,1020.3 C659.317,1020.3 660.857,1022.66 660.857,1027.61 L660.857,1039.22 C660.802,1039.99 660.747,1040.37 660.472,1040.65 C660.142,1041.14 659.042,1041.36 656.677,1041.42 L656.457,1041.42 L656.457,1043.4 L670.372,1043.4 L670.372,1041.42 L670.152,1041.42 C666.522,1041.31 666.027,1041.03 666.027,1039 L666.027,1026.51 C666.027,1023.1 665.697,1021.95 664.267,1020.08 C662.672,1018.04 660.417,1016.94 657.777,1016.94 C654.202,1016.94 651.562,1018.65 649.197,1022.44 C648.262,1019.14 645.292,1016.94 641.607,1016.94 C638.252,1016.94 635.832,1018.54 633.687,1022 L633.687,1017.77 "/>
<path class="Harmony" d="M396.647,572.198 L415.127,572.198 C420.022,572.198 423.762,571.428 426.677,569.778 C432.232,566.643 435.312,560.373 435.312,552.123 C435.312,544.533 432.562,538.593 427.502,535.293 C424.477,533.368 420.407,532.488 414.137,532.488 L396.647,532.488 L396.647,535.073 L397.692,535.073 C400.772,535.128 401.817,535.293 402.257,535.843 C402.587,536.338 402.587,536.448 402.587,539.253 L402.587,565.433 C402.587,568.238 402.587,568.348 402.257,568.843 C401.817,569.393 400.772,569.558 397.692,569.613 L396.647,569.613 L396.647,572.198 M411.882,569.613 C409.077,569.613 408.747,569.283 408.747,566.588 L408.747,538.153 C408.747,535.458 409.132,535.073 411.882,535.073 L414.742,535.073 C424.147,535.073 428.052,540.188 428.052,552.343 C428.052,564.663 424.532,569.613 415.622,569.613 L411.882,569.613 "/>
<path class="Harmony" d="M451.341,546.568 L441.551,547.173 L441.551,549.538 L443.806,549.538 C445.896,549.593 446.171,549.923 446.171,552.288 L446.171,568.018 C446.116,568.843 446.061,569.173 445.841,569.448 C445.456,569.943 444.411,570.163 442.046,570.218 L441.826,570.218 L441.826,572.198 L455.686,572.198 L455.686,570.218 L455.466,570.218 C451.836,570.108 451.341,569.833 451.341,567.798 L451.341,557.623 C451.341,552.728 454.036,549.098 457.611,549.098 C460.746,549.098 462.341,551.353 462.341,555.808 L462.341,568.073 C462.286,568.788 462.231,569.173 461.956,569.448 C461.626,569.943 460.526,570.163 458.161,570.218 L457.941,570.218 L457.941,572.198 L471.856,572.198 L471.856,570.218 L471.636,570.218 C468.006,570.108 467.511,569.833 467.511,567.853 L467.511,558.118 C467.511,552.618 469.986,549.098 473.836,549.098 C476.971,549.098 478.511,551.463 478.511,556.413 L478.511,568.018 C478.456,568.788 478.401,569.173 478.126,569.448 C477.796,569.943 476.696,570.163 474.331,570.218 L474.111,570.218 L474.111,572.198 L488.026,572.198 L488.026,570.218 L487.806,570.218 C484.176,570.108 483.681,569.833 483.681,567.798 L483.681,555.313 C483.681,551.903 483.351,550.748 481.921,548.878 C480.326,546.843 478.071,545.743 475.431,545.743 C471.856,545.743 469.216,547.448 466.851,551.243 C465.916,547.943 462.946,545.743 459.261,545.743 C455.906,545.743 453.486,547.338 451.341,550.803 L451.341,546.568 "/>
<path class="Harmony" d="M490.202,1002.92 L487.892,1002.92 L475.242,1034.98 C473.757,1039.27 472.327,1040.59 469.192,1040.81 L468.972,1040.81 L468.972,1043.4 L483.547,1043.4 L483.547,1040.81 L482.447,1040.81 C479.477,1040.81 477.992,1039.77 477.992,1037.68 C477.992,1036.96 478.157,1036.3 478.487,1035.37 L480.302,1030.53 L494.877,1030.53 L497.847,1037.9 C498.177,1038.78 498.287,1039.11 498.287,1039.38 C498.287,1040.26 496.912,1040.81 494.877,1040.81 L492.567,1040.81 L492.567,1043.4 L509.617,1043.4 L509.617,1040.81 L508.847,1040.81 C505.987,1040.76 505.492,1040.43 504.227,1037.29 L490.202,1002.92 M487.507,1011.94 L493.722,1027.56 L481.402,1027.56 L487.507,1011.94 "/>
<path class="Harmony" d="M522.623,1017.77 L512.833,1018.37 L512.833,1020.74 L515.088,1020.74 C517.178,1020.79 517.453,1021.12 517.453,1023.49 L517.453,1039.22 C517.398,1040.04 517.343,1040.37 517.123,1040.65 C516.738,1041.14 515.693,1041.36 513.328,1041.42 L513.108,1041.42 L513.108,1043.4 L526.968,1043.4 L526.968,1041.42 L526.748,1041.42 C523.118,1041.31 522.623,1041.03 522.623,1039 L522.623,1028.82 C522.623,1023.93 525.318,1020.3 528.893,1020.3 C532.028,1020.3 533.623,1022.55 533.623,1027.01 L533.623,1039.27 C533.568,1039.99 533.513,1040.37 533.238,1040.65 C532.908,1041.14 531.808,1041.36 529.443,1041.42 L529.223,1041.42 L529.223,1043.4 L543.138,1043.4 L543.138,1041.42 L542.918,1041.42 C539.288,1041.31 538.793,1041.03 538.793,1039.05 L538.793,1029.32 C538.793,1023.82 541.268,1020.3 545.118,1020.3 C548.253,1020.3 549.793,1022.66 549.793,1027.61 L549.793,1039.22 C549.738,1039.99 549.683,1040.37 549.408,1040.65 C549.078,1041.14 547.978,1041.36 545.613,1041.42 L545.393,1041.42 L545.393,1043.4 L559.308,1043.4 L559.308,1041.42 L559.088,1041.42 C555.458,1041.31 554.963,1041.03 554.963,1039 L554.963,1026.51 C554.963,1023.1 554.633,1021.95 553.203,1020.08 C551.608,1018.04 549.353,1016.94 546.713,1016.94 C543.138,1016.94 540.498,1018.65 538.133,1022.44 C537.198,1019.14 534.228,1016.94 530.543,1016.94 C527.188,1016.94 524.768,1018.54 522.623,1022 L522.623,1017.77 "/>
<path class="Harmony" d="M1859.35,1002.92 L1857.04,1002.92 L1844.39,1034.98 C1842.91,1039.27 1841.48,1040.59 1838.34,1040.81 L1838.12,1040.81 L1838.12,1043.4 L1852.7,1043.4 L1852.7,1040.81 L1851.6,1040.81 C1848.63,1040.81 1847.14,1039.77 1847.14,1037.68 C1847.14,1036.96 1847.31,1036.3 1847.64,1035.37 L1849.45,1030.53 L1864.03,1030.53 L1867,1037.9 C1867.33,1038.78 1867.44,1039.11 1867.44,1039.38 C1867.44,1040.26 1866.06,1040.81 1864.03,1040.81 L1861.72,1040.81 L1861.72,1043.4 L1878.77,1043.4 L1878.77,1040.81 L1878,1040.81 C1875.14,1040.76 1874.64,1040.43 1873.38,1037.29 L1859.35,1002.92 M1856.66,1011.94 L1862.87,1027.56 L1850.55,1027.56 L1856.66,1011.94 "/>
<path class="Harmony" d="M1891.77,1017.77 L1881.98,1018.37 L1881.98,1020.74 L1884.24,1020.74 C1886.33,1020.79 1886.6,1021.12 1886.6,1023.49 L1886.6,1039.22 C1886.55,1040.04 1886.49,1040.37 1886.27,1040.65 C1885.89,1041.14 1884.84,1041.36 1882.48,1041.42 L1882.26,1041.42 L1882.26,1043.4 L1896.12,1043.4 L1896.12,1041.42 L1895.9,1041.42 C1892.27,1041.31 1891.77,1041.03 1891.77,1039 L1891.77,1028.82 C1891.77,1023.93 1894.47,1020.3 1898.04,1020.3 C1901.18,1020.3 1902.77,1022.55 1902.77,1027.01 L1902.77,1039.27 C1902.72,1039.99 1902.66,1040.37 1902.39,1040.65 C1902.06,1041.14 1900.96,1041.36 1898.59,1041.42 L1898.37,1041.42 L1898.37,1043.4 L1912.29,1043.4 L1912.29,1041.42 L1912.07,1041.42 C1908.44,1041.31 1907.94,1041.03 1907.94,1039.05 L1907.94,1029.32 C1907.94,1023.82 1910.42,1020.3 1914.27,1020.3 C1917.4,1020.3 1918.94,1022.66 1918.94,1027.61 L1918.94,1039.22 C1918.89,1039.99 1918.83,1040.37 1918.56,1040.65 C1918.23,1041.14 1917.13,1041.36 1914.76,1041.42 L1914.54,1041.42 L1914.54,1043.4 L1928.46,1043.4 L1928.46,1041.42 L1928.24,1041.42 C1924.61,1041.31 1924.11,1041.03 1924.11,1039 L1924.11,1026.51 C1924.11,1023.1 1923.78,1021.95 1922.35,1020.08 C1920.76,1018.04 1918.5,1016.94 1915.86,1016.94 C1912.29,1016.94 1909.65,1018.65 1907.28,1022.44 C1906.35,1019.14 1903.38,1016.94 1899.69,1016.94 C1896.34,1016.94 1893.92,1018.54 1891.77,1022 L1891.77,1017.77 "/>
<path class="Harmony" d="M379.138,1002.92 L376.828,1002.92 L364.178,1034.98 C362.693,1039.27 361.263,1040.59 358.128,1040.81 L357.908,1040.81 L357.908,1043.4 L372.483,1043.4 L372.483,1040.81 L371.383,1040.81 C368.413,1040.81 366.928,1039.77 366.928,1037.68 C366.928,1036.96 367.093,1036.3 367.423,1035.37 L369.238,1030.53 L383.813,1030.53 L386.783,1037.9 C387.113,1038.78 387.223,1039.11 387.223,1039.38 C387.223,1040.26 385.848,1040.81 383.813,1040.81 L381.503,1040.81 L381.503,1043.4 L398.553,1043.4 L398.553,1040.81 L397.783,1040.81 C394.923,1040.76 394.428,1040.43 393.163,1037.29 L379.138,1002.92 M376.443,1011.94 L382.658,1027.56 L370.338,1027.56 L376.443,1011.94 "/>
<path class="Harmony" d="M411.56,1017.77 L401.77,1018.37 L401.77,1020.74 L404.025,1020.74 C406.115,1020.79 406.39,1021.12 406.39,1023.49 L406.39,1039.22 C406.335,1040.04 406.28,1040.37 406.06,1040.65 C405.675,1041.14 404.63,1041.36 402.265,1041.42 L402.045,1041.42 L402.045,1043.4 L415.905,1043.4 L415.905,1041.42 L415.685,1041.42 C412.055,1041.31 411.56,1041.03 411.56,1039 L411.56,1028.82 C411.56,1023.93 414.255,1020.3 417.83,1020.3 C420.965,1020.3 422.56,1022.55 422.56,1027.01 L422.56,1039.27 C422.505,1039.99 422.45,1040.37 422.175,1040.65 C421.845,1041.14 420.745,1041.36 418.38,1041.42 L418.16,1041.42 L418.16,1043.4 L432.075,1043.4 L432.075,1041.42 L431.855,1041.42 C428.225,1041.31 427.73,1041.03 427.73,1039.05 L427.73,1029.32 C427.73,1023.82 430.205,1020.3 434.055,1020.3 C437.19,1020.3 438.73,1022.66 438.73,1027.61 L438.73,1039.22 C438.675,1039.99 438.62,1040.37 438.345,1040.65 C438.015,1041.14 436.915,1041.36 434.55,1041.42 L434.33,1041.42 L434.33,1043.4 L448.245,1043.4 L448.245,1041.42 L448.025,1041.42 C444.395,1041.31 443.9,1041.03 443.9,1039 L443.9,1026.51 C443.9,1023.1 443.57,1021.95 442.14,1020.08 C440.545,1018.04 438.29,1016.94 435.65,1016.94 C432.075,1016.94 429.435,1018.65 427.07,1022.44 C426.135,1019.14 423.165,1016.94 419.48,1016.94 C416.125,1016.94 413.705,1018.54 411.56,1022 L411.56,1017.77 "/>
<path class="Harmony" d="M1192.54,572.198 L1211.02,572.198 C1215.91,572.198 1219.65,571.428 1222.57,569.778 C1228.12,566.643 1231.2,560.373 1231.2,552.123 C1231.2,544.533 1228.45,538.593 1223.39,535.293 C1220.37,533.368 1216.3,532.488 1210.03,532.488 L1192.54,532.488 L1192.54,535.073 L1193.58,535.073 C1196.66,535.128 1197.71,535.293 1198.15,535.843 C1198.48,536.338 1198.48,536.448 1198.48,539.253 L1198.48,565.433 C1198.48,568.238 1198.48,568.348 1198.15,568.843 C1197.71,569.393 1196.66,569.558 1193.58,569.613 L1192.54,569.613 L1192.54,572.198 M1207.77,569.613 C1204.97,569.613 1204.64,569.283 1204.64,566.588 L1204.64,538.153 C1204.64,535.458 1205.02,535.073 1207.77,535.073 L1210.63,535.073 C1220.04,535.073 1223.94,540.188 1223.94,552.343 C1223.94,564.663 1220.42,569.613 1211.51,569.613 L1207.77,569.613 "/>
<path class="Harmony" d="M1247.23,546.568 L1237.44,547.173 L1237.44,549.538 L1239.69,549.538 C1241.78,549.593 1242.06,549.923 1242.06,552.288 L1242.06,568.018 C1242,568.843 1241.95,569.173 1241.73,569.448 C1241.34,569.943 1240.3,570.163 1237.93,570.218 L1237.71,570.218 L1237.71,572.198 L1251.57,572.198 L1251.57,570.218 L1251.35,570.218 C1247.72,570.108 1247.23,569.833 1247.23,567.798 L1247.23,557.623 C1247.23,552.728 1249.92,549.098 1253.5,549.098 C1256.63,549.098 1258.23,551.353 1258.23,555.808 L1258.23,568.073 C1258.17,568.788 1258.12,569.173 1257.84,569.448 C1257.51,569.943 1256.41,570.163 1254.05,570.218 L1253.83,570.218 L1253.83,572.198 L1267.74,572.198 L1267.74,570.218 L1267.52,570.218 C1263.89,570.108 1263.4,569.833 1263.4,567.853 L1263.4,558.118 C1263.4,552.618 1265.87,549.098 1269.72,549.098 C1272.86,549.098 1274.4,551.463 1274.4,556.413 L1274.4,568.018 C1274.34,568.788 1274.29,569.173 1274.01,569.448 C1273.68,569.943 1272.58,570.163 1270.22,570.218 L1270,570.218 L1270,572.198 L1283.91,572.198 L1283.91,570.218 L1283.69,570.218 C1280.06,570.108 1279.57,569.833 1279.57,567.798 L1279.57,555.313 C1279.57,551.903 1279.24,550.748 1277.81,548.878 C1276.21,546.843 1273.96,545.743 1271.32,545.743 C1267.74,545.743 1265.1,547.448 1262.74,551.243 C1261.8,547.943 1258.83,545.743 1255.15,545.743 C1251.79,545.743 1249.37,547.338 1247.23,550.803 L1247.23,546.568 "/>
<path class="Harmony" d="M2650.85,532.488 L2617.79,532.488 L2617.79,535.073 L2618.78,535.073 C2621.92,535.128 2622.96,535.293 2623.4,535.843 C2623.73,536.338 2623.73,536.448 2623.73,539.253 L2623.73,565.433 C2623.73,568.238 2623.73,568.348 2623.4,568.843 C2622.96,569.393 2621.92,569.613 2618.78,569.613 L2617.79,569.613 L2617.79,572.198 L2651.56,572.198 L2652.66,557.513 L2650.24,557.513 C2648.15,567.303 2645.9,569.393 2637.48,569.613 L2633.85,569.613 C2630.55,569.503 2629.73,568.953 2629.89,566.973 L2629.89,552.948 L2630.99,552.948 C2636.66,552.728 2638.69,554.763 2638.91,560.868 L2641.5,560.868 L2641.5,542.828 L2638.91,542.828 C2638.58,548.218 2636.44,550.363 2631.21,550.363 L2629.89,550.363 L2629.89,537.823 C2629.84,535.513 2630.39,535.128 2633.36,535.073 L2636.22,535.073 C2645.24,535.018 2647.49,536.998 2649.25,546.513 L2651.62,546.513 L2650.85,532.488 "/>
<path class="Harmony" d="M2007.44,1002.92 L2005.13,1002.92 L1992.48,1034.98 C1990.99,1039.27 1989.56,1040.59 1986.43,1040.81 L1986.21,1040.81 L1986.21,1043.4 L2000.78,1043.4 L2000.78,1040.81 L1999.68,1040.81 C1996.71,1040.81 1995.23,1039.77 1995.23,1037.68 C1995.23,1036.96 1995.39,1036.3 1995.72,1035.37 L1997.54,1030.53 L2012.11,1030.53 L2015.08,1037.9 C2015.41,1038.78 2015.52,1039.11 2015.52,1039.38 C2015.52,1040.26 2014.15,1040.81 2012.11,1040.81 L2009.8,1040.81 L2009.8,1043.4 L2026.85,1043.4 L2026.85,1040.81 L2026.08,1040.81 C2023.22,1040.76 2022.73,1040.43 2021.46,1037.29 L2007.44,1002.92 M2004.74,1011.94 L2010.96,1027.56 L1998.64,1027.56 L2004.74,1011.94 "/>
<path class="Harmony" d="M2039.86,1017.77 L2030.07,1018.37 L2030.07,1020.74 L2032.32,1020.74 C2034.41,1020.79 2034.69,1021.12 2034.69,1023.49 L2034.69,1039.22 C2034.63,1040.04 2034.58,1040.37 2034.36,1040.65 C2033.97,1041.14 2032.93,1041.36 2030.56,1041.42 L2030.34,1041.42 L2030.34,1043.4 L2044.2,1043.4 L2044.2,1041.42 L2043.98,1041.42 C2040.35,1041.31 2039.86,1041.03 2039.86,1039 L2039.86,1028.82 C2039.86,1023.93 2042.55,1020.3 2046.13,1020.3 C2049.26,1020.3 2050.86,1022.55 2050.86,1027.01 L2050.86,1039.27 C2050.8,1039.99 2050.75,1040.37 2050.47,1040.65 C2050.14,1041.14 2049.04,1041.36 2046.68,1041.42 L2046.46,1041.42 L2046.46,1043.4 L2060.37,1043.4 L2060.37,1041.42 L2060.15,1041.42 C2056.52,1041.31 2056.03,1041.03 2056.03,1039.05 L2056.03,1029.32 C2056.03,1023.82 2058.5,1020.3 2062.35,1020.3 C2065.49,1020.3 2067.03,1022.66 2067.03,1027.61 L2067.03,1039.22 C2066.97,1039.99 2066.92,1040.37 2066.64,1040.65 C2066.31,1041.14 2065.21,1041.36 2062.85,1041.42 L2062.63,1041.42 L2062.63,1043.4 L2076.54,1043.4 L2076.54,1041.42 L2076.32,1041.42 C2072.69,1041.31 2072.2,1041.03 2072.2,1039 L2072.2,1026.51 C2072.2,1023.1 2071.87,1021.95 2070.44,1020.08 C2068.84,1018.04 2066.59,1016.94 2063.95,1016.94 C2060.37,1016.94 2057.73,1018.65 2055.37,1022.44 C2054.43,1019.14 2051.46,1016.94 2047.78,1016.94 C2044.42,1016.94 2042,1018.54 2039.86,1022 L2039.86,1017.77 "/>
<path class="Harmony" d="M2570.78,532.488 L2537.72,532.488 L2537.72,535.073 L2538.71,535.073 C2541.85,535.128 2542.89,535.293 2543.33,535.843 C2543.66,536.338 2543.66,536.448 2543.66,539.253 L2543.66,565.433 C2543.66,568.238 2543.66,568.348 2543.33,568.843 C2542.89,569.393 2541.85,569.613 2538.71,569.613 L2537.72,569.613 L2537.72,572.198 L2571.49,572.198 L2572.59,557.513 L2570.17,557.513 C2568.08,567.303 2565.83,569.393 2557.41,569.613 L2553.78,569.613 C2550.48,569.503 2549.66,568.953 2549.82,566.973 L2549.82,552.948 L2550.92,552.948 C2556.59,552.728 2558.62,554.763 2558.84,560.868 L2561.43,560.868 L2561.43,542.828 L2558.84,542.828 C2558.51,548.218 2556.37,550.363 2551.14,550.363 L2549.82,550.363 L2549.82,537.823 C2549.77,535.513 2550.32,535.128 2553.29,535.073 L2556.15,535.073 C2565.17,535.018 2567.42,536.998 2569.18,546.513 L2571.55,546.513 L2570.78,532.488 "/>
<path class="Harmony" d="M2480.55,532.488 L2447.5,532.488 L2447.5,535.073 L2448.49,535.073 C2451.62,535.128 2452.67,535.293 2453.11,535.843 C2453.44,536.338 2453.44,536.448 2453.44,539.253 L2453.44,565.433 C2453.44,568.238 2453.44,568.348 2453.11,568.843 C2452.67,569.393 2451.62,569.613 2448.49,569.613 L2447.5,569.613 L2447.5,572.198 L2481.27,572.198 L2482.37,557.513 L2479.95,557.513 C2477.86,567.303 2475.6,569.393 2467.19,569.613 L2463.56,569.613 C2460.26,569.503 2459.43,568.953 2459.6,566.973 L2459.6,552.948 L2460.7,552.948 C2466.36,552.728 2468.4,554.763 2468.62,560.868 L2471.2,560.868 L2471.2,542.828 L2468.62,542.828 C2468.29,548.218 2466.14,550.363 2460.92,550.363 L2459.6,550.363 L2459.6,537.823 C2459.54,535.513 2460.09,535.128 2463.06,535.073 L2465.92,535.073 C2474.94,535.018 2477.2,536.998 2478.96,546.513 L2481.32,546.513 L2480.55,532.488 "/>
<path class="Harmony" d="M2390.33,532.488 L2357.27,532.488 L2357.27,535.073 L2358.26,535.073 C2361.4,535.128 2362.44,535.293 2362.88,535.843 C2363.21,536.338 2363.21,536.448 2363.21,539.253 L2363.21,565.433 C2363.21,568.238 2363.21,568.348 2362.88,568.843 C2362.44,569.393 2361.4,569.613 2358.26,569.613 L2357.27,569.613 L2357.27,572.198 L2391.04,572.198 L2392.14,557.513 L2389.72,557.513 C2387.63,567.303 2385.38,569.393 2376.96,569.613 L2373.33,569.613 C2370.03,569.503 2369.21,568.953 2369.37,566.973 L2369.37,552.948 L2370.47,552.948 C2376.14,552.728 2378.17,554.763 2378.39,560.868 L2380.98,560.868 L2380.98,542.828 L2378.39,542.828 C2378.06,548.218 2375.92,550.363 2370.69,550.363 L2369.37,550.363 L2369.37,537.823 C2369.32,535.513 2369.87,535.128 2372.84,535.073 L2375.7,535.073 C2384.72,535.018 2386.97,536.998 2388.73,546.513 L2391.1,546.513 L2390.33,532.488 "/>
<path class="Harmony" d="M2623.16,1003.69 L2590.11,1003.69 L2590.11,1006.27 L2591.1,1006.27 C2594.23,1006.33 2595.28,1006.49 2595.72,1007.04 C2596.05,1007.54 2596.05,1007.65 2596.05,1010.45 L2596.05,1036.63 C2596.05,1039.44 2596.05,1039.55 2595.72,1040.04 C2595.28,1040.59 2594.23,1040.81 2591.1,1040.81 L2590.11,1040.81 L2590.11,1043.4 L2623.88,1043.4 L2624.98,1028.71 L2622.56,1028.71 C2620.47,1038.5 2618.21,1040.59 2609.8,1040.81 L2606.17,1040.81 C2602.87,1040.7 2602.04,1040.15 2602.21,1038.17 L2602.21,1024.15 L2603.31,1024.15 C2608.97,1023.93 2611.01,1025.96 2611.23,1032.07 L2613.81,1032.07 L2613.81,1014.03 L2611.23,1014.03 C2610.9,1019.42 2608.75,1021.56 2603.53,1021.56 L2602.21,1021.56 L2602.21,1009.02 C2602.15,1006.71 2602.7,1006.33 2605.67,1006.27 L2608.53,1006.27 C2617.55,1006.22 2619.81,1008.2 2621.57,1017.71 L2623.93,1017.71 L2623.16,1003.69 "/>
<path class="Harmony" d="M2155.52,1002.92 L2153.21,1002.92 L2140.56,1034.98 C2139.08,1039.27 2137.65,1040.59 2134.51,1040.81 L2134.29,1040.81 L2134.29,1043.4 L2148.87,1043.4 L2148.87,1040.81 L2147.77,1040.81 C2144.8,1040.81 2143.31,1039.77 2143.31,1037.68 C2143.31,1036.96 2143.48,1036.3 2143.81,1035.37 L2145.62,1030.53 L2160.2,1030.53 L2163.17,1037.9 C2163.5,1038.78 2163.61,1039.11 2163.61,1039.38 C2163.61,1040.26 2162.23,1040.81 2160.2,1040.81 L2157.89,1040.81 L2157.89,1043.4 L2174.94,1043.4 L2174.94,1040.81 L2174.17,1040.81 C2171.31,1040.76 2170.81,1040.43 2169.55,1037.29 L2155.52,1002.92 M2152.83,1011.94 L2159.04,1027.56 L2146.72,1027.56 L2152.83,1011.94 "/>
<path class="Harmony" d="M2187.94,1017.77 L2178.15,1018.37 L2178.15,1020.74 L2180.41,1020.74 C2182.5,1020.79 2182.77,1021.12 2182.77,1023.49 L2182.77,1039.22 C2182.72,1040.04 2182.66,1040.37 2182.44,1040.65 C2182.06,1041.14 2181.01,1041.36 2178.65,1041.42 L2178.43,1041.42 L2178.43,1043.4 L2192.29,1043.4 L2192.29,1041.42 L2192.07,1041.42 C2188.44,1041.31 2187.94,1041.03 2187.94,1039 L2187.94,1028.82 C2187.94,1023.93 2190.64,1020.3 2194.21,1020.3 C2197.35,1020.3 2198.94,1022.55 2198.94,1027.01 L2198.94,1039.27 C2198.89,1039.99 2198.83,1040.37 2198.56,1040.65 C2198.23,1041.14 2197.13,1041.36 2194.76,1041.42 L2194.54,1041.42 L2194.54,1043.4 L2208.46,1043.4 L2208.46,1041.42 L2208.24,1041.42 C2204.61,1041.31 2204.11,1041.03 2204.11,1039.05 L2204.11,1029.32 C2204.11,1023.82 2206.59,1020.3 2210.44,1020.3 C2213.57,1020.3 2215.11,1022.66 2215.11,1027.61 L2215.11,1039.22 C2215.06,1039.99 2215,1040.37 2214.73,1040.65 C2214.4,1041.14 2213.3,1041.36 2210.93,1041.42 L2210.71,1041.42 L2210.71,1043.4 L2224.63,1043.4 L2224.63,1041.42 L2224.41,1041.42 C2220.78,1041.31 2220.28,1041.03 2220.28,1039 L2220.28,1026.51 C2220.28,1023.1 2219.95,1021.95 2218.52,1020.08 C2216.93,1018.04 2214.67,1016.94 2212.03,1016.94 C2208.46,1016.94 2205.82,1018.65 2203.45,1022.44 C2202.52,1019.14 2199.55,1016.94 2195.86,1016.94 C2192.51,1016.94 2190.09,1018.54 2187.94,1022 L2187.94,1017.77 "/>
<path class="Harmony" d="M1656.28,572.198 L1674.76,572.198 C1679.66,572.198 1683.4,571.428 1686.31,569.778 C1691.87,566.643 1694.95,560.373 1694.95,552.123 C1694.95,544.533 1692.2,538.593 1687.14,535.293 C1684.11,533.368 1680.04,532.488 1673.77,532.488 L1656.28,532.488 L1656.28,535.073 L1657.33,535.073 C1660.41,535.128 1661.45,535.293 1661.89,535.843 C1662.22,536.338 1662.22,536.448 1662.22,539.253 L1662.22,565.433 C1662.22,568.238 1662.22,568.348 1661.89,568.843 C1661.45,569.393 1660.41,569.558 1657.33,569.613 L1656.28,569.613 L1656.28,572.198 M1671.52,569.613 C1668.71,569.613 1668.38,569.283 1668.38,566.588 L1668.38,538.153 C1668.38,535.458 1668.77,535.073 1671.52,535.073 L1674.38,535.073 C1683.78,535.073 1687.69,540.188 1687.69,552.343 C1687.69,564.663 1684.17,569.613 1675.26,569.613 L1671.52,569.613 "/>
<path class="Harmony" d="M1710.98,546.568 L1701.19,547.173 L1701.19,549.538 L1703.44,549.538 C1705.53,549.593 1705.81,549.923 1705.81,552.288 L1705.81,568.018 C1705.75,568.843 1705.7,569.173 1705.48,569.448 C1705.09,569.943 1704.05,570.163 1701.68,570.218 L1701.46,570.218 L1701.46,572.198 L1715.32,572.198 L1715.32,570.218 L1715.1,570.218 C1711.47,570.108 1710.98,569.833 1710.98,567.798 L1710.98,557.623 C1710.98,552.728 1713.67,549.098 1717.25,549.098 C1720.38,549.098 1721.98,551.353 1721.98,555.808 L1721.98,568.073 C1721.92,568.788 1721.87,569.173 1721.59,569.448 C1721.26,569.943 1720.16,570.163 1717.8,570.218 L1717.58,570.218 L1717.58,572.198 L1731.49,572.198 L1731.49,570.218 L1731.27,570.218 C1727.64,570.108 1727.15,569.833 1727.15,567.853 L1727.15,558.118 C1727.15,552.618 1729.62,549.098 1733.47,549.098 C1736.61,549.098 1738.15,551.463 1738.15,556.413 L1738.15,568.018 C1738.09,568.788 1738.04,569.173 1737.76,569.448 C1737.43,569.943 1736.33,570.163 1733.97,570.218 L1733.75,570.218 L1733.75,572.198 L1747.66,572.198 L1747.66,570.218 L1747.44,570.218 C1743.81,570.108 1743.32,569.833 1743.32,567.798 L1743.32,555.313 C1743.32,551.903 1742.99,550.748 1741.56,548.878 C1739.96,546.843 1737.71,545.743 1735.07,545.743 C1731.49,545.743 1728.85,547.448 1726.49,551.243 C1725.55,547.943 1722.58,545.743 1718.9,545.743 C1715.54,545.743 1713.12,547.338 1710.98,550.803 L1710.98,546.568 "/>
<path class="Harmony" d="M1334.88,572.198 L1353.36,572.198 C1358.26,572.198 1362,571.428 1364.91,569.778 C1370.47,566.643 1373.55,560.373 1373.55,552.123 C1373.55,544.533 1370.8,538.593 1365.74,535.293 C1362.71,533.368 1358.64,532.488 1352.37,532.488 L1334.88,532.488 L1334.88,535.073 L1335.93,535.073 C1339.01,535.128 1340.05,535.293 1340.49,535.843 C1340.82,536.338 1340.82,536.448 1340.82,539.253 L1340.82,565.433 C1340.82,568.238 1340.82,568.348 1340.49,568.843 C1340.05,569.393 1339.01,569.558 1335.93,569.613 L1334.88,569.613 L1334.88,572.198 M1350.12,569.613 C1347.31,569.613 1346.98,569.283 1346.98,566.588 L1346.98,538.153 C1346.98,535.458 1347.37,535.073 1350.12,535.073 L1352.98,535.073 C1362.38,535.073 1366.29,540.188 1366.29,552.343 C1366.29,564.663 1362.77,569.613 1353.86,569.613 L1350.12,569.613 "/>
<path class="Harmony" d="M1389.58,546.568 L1379.79,547.173 L1379.79,549.538 L1382.04,549.538 C1384.13,549.593 1384.41,549.923 1384.41,552.288 L1384.41,568.018 C1384.35,568.843 1384.3,569.173 1384.08,569.448 C1383.69,569.943 1382.65,570.163 1380.28,570.218 L1380.06,570.218 L1380.06,572.198 L1393.92,572.198 L1393.92,570.218 L1393.7,570.218 C1390.07,570.108 1389.58,569.833 1389.58,567.798 L1389.58,557.623 C1389.58,552.728 1392.27,549.098 1395.85,549.098 C1398.98,549.098 1400.58,551.353 1400.58,555.808 L1400.58,568.073 C1400.52,568.788 1400.47,569.173 1400.19,569.448 C1399.86,569.943 1398.76,570.163 1396.4,570.218 L1396.18,570.218 L1396.18,572.198 L1410.09,572.198 L1410.09,570.218 L1409.87,570.218 C1406.24,570.108 1405.75,569.833 1405.75,567.853 L1405.75,558.118 C1405.75,552.618 1408.22,549.098 1412.07,549.098 C1415.21,549.098 1416.75,551.463 1416.75,556.413 L1416.75,568.018 C1416.69,568.788 1416.64,569.173 1416.36,569.448 C1416.03,569.943 1414.93,570.163 1412.57,570.218 L1412.35,570.218 L1412.35,572.198 L1426.26,572.198 L1426.26,570.218 L1426.04,570.218 C1422.41,570.108 1421.92,569.833 1421.92,567.798 L1421.92,555.313 C1421.92,551.903 1421.59,550.748 1420.16,548.878 C1418.56,546.843 1416.31,545.743 1413.67,545.743 C1410.09,545.743 1407.45,547.448 1405.09,551.243 C1404.15,547.943 1401.18,545.743 1397.5,545.743 C1394.14,545.743 1391.72,547.338 1389.58,550.803 L1389.58,546.568 "/>
<path class="Harmony" d="M2178.22,572.198 L2196.7,572.198 C2201.6,572.198 2205.34,571.428 2208.25,569.778 C2213.81,566.643 2216.89,560.373 2216.89,552.123 C2216.89,544.533 2214.14,538.593 2209.08,535.293 C2206.05,533.368 2201.98,532.488 2195.71,532.488 L2178.22,532.488 L2178.22,535.073 L2179.27,535.073 C2182.35,535.128 2183.39,535.293 2183.83,535.843 C2184.16,536.338 2184.16,536.448 2184.16,539.253 L2184.16,565.433 C2184.16,568.238 2184.16,568.348 2183.83,568.843 C2183.39,569.393 2182.35,569.558 2179.27,569.613 L2178.22,569.613 L2178.22,572.198 M2193.46,569.613 C2190.65,569.613 2190.32,569.283 2190.32,566.588 L2190.32,538.153 C2190.32,535.458 2190.71,535.073 2193.46,535.073 L2196.32,535.073 C2205.72,535.073 2209.63,540.188 2209.63,552.343 C2209.63,564.663 2206.11,569.613 2197.2,569.613 L2193.46,569.613 "/>
<path class="Harmony" d="M2232.92,546.568 L2223.13,547.173 L2223.13,549.538 L2225.38,549.538 C2227.47,549.593 2227.75,549.923 2227.75,552.288 L2227.75,568.018 C2227.69,568.843 2227.64,569.173 2227.42,569.448 C2227.03,569.943 2225.99,570.163 2223.62,570.218 L2223.4,570.218 L2223.4,572.198 L2237.26,572.198 L2237.26,570.218 L2237.04,570.218 C2233.41,570.108 2232.92,569.833 2232.92,567.798 L2232.92,557.623 C2232.92,552.728 2235.61,549.098 2239.19,549.098 C2242.32,549.098 2243.92,551.353 2243.92,555.808 L2243.92,568.073 C2243.86,568.788 2243.81,569.173 2243.53,569.448 C2243.2,569.943 2242.1,570.163 2239.74,570.218 L2239.52,570.218 L2239.52,572.198 L2253.43,572.198 L2253.43,570.218 L2253.21,570.218 C2249.58,570.108 2249.09,569.833 2249.09,567.853 L2249.09,558.118 C2249.09,552.618 2251.56,549.098 2255.41,549.098 C2258.55,549.098 2260.09,551.463 2260.09,556.413 L2260.09,568.018 C2260.03,568.788 2259.98,569.173 2259.7,569.448 C2259.37,569.943 2258.27,570.163 2255.91,570.218 L2255.69,570.218 L2255.69,572.198 L2269.6,572.198 L2269.6,570.218 L2269.38,570.218 C2265.75,570.108 2265.26,569.833 2265.26,567.798 L2265.26,555.313 C2265.26,551.903 2264.93,550.748 2263.5,548.878 C2261.9,546.843 2259.65,545.743 2257.01,545.743 C2253.43,545.743 2250.79,547.448 2248.43,551.243 C2247.49,547.943 2244.52,545.743 2240.84,545.743 C2237.48,545.743 2235.06,547.338 2232.92,550.803 L2232.92,546.568 "/>
<path class="Harmony" d="M2035.87,572.198 L2054.35,572.198 C2059.25,572.198 2062.99,571.428 2065.9,569.778 C2071.46,566.643 2074.54,560.373 2074.54,552.123 C2074.54,544.533 2071.79,538.593 2066.73,535.293 C2063.7,533.368 2059.63,532.488 2053.36,532.488 L2035.87,532.488 L2035.87,535.073 L2036.92,535.073 C2040,535.128 2041.04,535.293 2041.48,535.843 C2041.81,536.338 2041.81,536.448 2041.81,539.253 L2041.81,565.433 C2041.81,568.238 2041.81,568.348 2041.48,568.843 C2041.04,569.393 2040,569.558 2036.92,569.613 L2035.87,569.613 L2035.87,572.198 M2051.11,569.613 C2048.3,569.613 2047.97,569.283 2047.97,566.588 L2047.97,538.153 C2047.97,535.458 2048.36,535.073 2051.11,535.073 L2053.97,535.073 C2063.37,535.073 2067.28,540.188 2067.28,552.343 C2067.28,564.663 2063.76,569.613 2054.85,569.613 L2051.11,569.613 "/>
<path class="Harmony" d="M2090.57,546.568 L2080.78,547.173 L2080.78,549.538 L2083.03,549.538 C2085.12,549.593 2085.4,549.923 2085.4,552.288 L2085.4,568.018 C2085.34,568.843 2085.29,569.173 2085.07,569.448 C2084.68,569.943 2083.64,570.163 2081.27,570.218 L2081.05,570.218 L2081.05,572.198 L2094.91,572.198 L2094.91,570.218 L2094.69,570.218 C2091.06,570.108 2090.57,569.833 2090.57,567.798 L2090.57,557.623 C2090.57,552.728 2093.26,549.098 2096.84,549.098 C2099.97,549.098 2101.57,551.353 2101.57,555.808 L2101.57,568.073 C2101.51,568.788 2101.46,569.173 2101.18,569.448 C2100.85,569.943 2099.75,570.163 2097.39,570.218 L2097.17,570.218 L2097.17,572.198 L2111.08,572.198 L2111.08,570.218 L2110.86,570.218 C2107.23,570.108 2106.74,569.833 2106.74,567.853 L2106.74,558.118 C2106.74,552.618 2109.21,549.098 2113.06,549.098 C2116.2,549.098 2117.74,551.463 2117.74,556.413 L2117.74,568.018 C2117.68,568.788 2117.63,569.173 2117.35,569.448 C2117.02,569.943 2115.92,570.163 2113.56,570.218 L2113.34,570.218 L2113.34,572.198 L2127.25,572.198 L2127.25,570.218 L2127.03,570.218 C2123.4,570.108 2122.91,569.833 2122.91,567.798 L2122.91,555.313 C2122.91,551.903 2122.58,550.748 2121.15,548.878 C2119.55,546.843 2117.3,545.743 2114.66,545.743 C2111.08,545.743 2108.44,547.448 2106.08,551.243 C2105.14,547.943 2102.17,545.743 2098.49,545.743 C2095.13,545.743 2092.71,547.338 2090.57,550.803 L2090.57,546.568 "/>
<path class="Harmony" d="M1846.08,572.198 L1864.56,572.198 C1869.45,572.198 1873.19,571.428 1876.11,569.778 C1881.66,566.643 1884.74,560.373 1884.74,552.123 C1884.74,544.533 1881.99,538.593 1876.93,535.293 C1873.91,533.368 1869.84,532.488 1863.57,532.488 L1846.08,532.488 L1846.08,535.073 L1847.12,535.073 C1850.2,535.128 1851.25,535.293 1851.69,535.843 C1852.02,536.338 1852.02,536.448 1852.02,539.253 L1852.02,565.433 C1852.02,568.238 1852.02,568.348 1851.69,568.843 C1851.25,569.393 1850.2,569.558 1847.12,569.613 L1846.08,569.613 L1846.08,572.198 M1861.31,569.613 C1858.51,569.613 1858.18,569.283 1858.18,566.588 L1858.18,538.153 C1858.18,535.458 1858.56,535.073 1861.31,535.073 L1864.17,535.073 C1873.58,535.073 1877.48,540.188 1877.48,552.343 C1877.48,564.663 1873.96,569.613 1865.05,569.613 L1861.31,569.613 "/>
<path class="Harmony" d="M1900.77,546.568 L1890.98,547.173 L1890.98,549.538 L1893.24,549.538 C1895.33,549.593 1895.6,549.923 1895.6,552.288 L1895.6,568.018 C1895.55,568.843 1895.49,569.173 1895.27,569.448 C1894.89,569.943 1893.84,570.163 1891.48,570.218 L1891.26,570.218 L1891.26,572.198 L1905.12,572.198 L1905.12,570.218 L1904.9,570.218 C1901.27,570.108 1900.77,569.833 1900.77,567.798 L1900.77,557.623 C1900.77,552.728 1903.47,549.098 1907.04,549.098 C1910.18,549.098 1911.77,551.353 1911.77,555.808 L1911.77,568.073 C1911.72,568.788 1911.66,569.173 1911.39,569.448 C1911.06,569.943 1909.96,570.163 1907.59,570.218 L1907.37,570.218 L1907.37,572.198 L1921.29,572.198 L1921.29,570.218 L1921.07,570.218 C1917.44,570.108 1916.94,569.833 1916.94,567.853 L1916.94,558.118 C1916.94,552.618 1919.42,549.098 1923.27,549.098 C1926.4,549.098 1927.94,551.463 1927.94,556.413 L1927.94,568.018 C1927.89,568.788 1927.83,569.173 1927.56,569.448 C1927.23,569.943 1926.13,570.163 1923.76,570.218 L1923.54,570.218 L1923.54,572.198 L1937.46,572.198 L1937.46,570.218 L1937.24,570.218 C1933.61,570.108 1933.11,569.833 1933.11,567.798 L1933.11,555.313 C1933.11,551.903 1932.78,550.748 1931.35,548.878 C1929.76,546.843 1927.5,545.743 1924.86,545.743 C1921.29,545.743 1918.65,547.448 1916.28,551.243 C1915.35,547.943 1912.38,545.743 1908.69,545.743 C1905.34,545.743 1902.92,547.338 1900.77,550.803 L1900.77,546.568 "/>
<path class="Harmony" d="M2539.86,1003.69 L2506.81,1003.69 L2506.81,1006.27 L2507.8,1006.27 C2510.93,1006.33 2511.98,1006.49 2512.42,1007.04 C2512.75,1007.54 2512.75,1007.65 2512.75,1010.45 L2512.75,1036.63 C2512.75,1039.44 2512.75,1039.55 2512.42,1040.04 C2511.98,1040.59 2510.93,1040.81 2507.8,1040.81 L2506.81,1040.81 L2506.81,1043.4 L2540.58,1043.4 L2541.68,1028.71 L2539.26,1028.71 C2537.17,1038.5 2534.91,1040.59 2526.5,1040.81 L2522.87,1040.81 C2519.57,1040.7 2518.74,1040.15 2518.91,1038.17 L2518.91,1024.15 L2520.01,1024.15 C2525.67,1023.93 2527.71,1025.96 2527.93,1032.07 L2530.51,1032.07 L2530.51,1014.03 L2527.93,1014.03 C2527.6,1019.42 2525.45,1021.56 2520.23,1021.56 L2518.91,1021.56 L2518.91,1009.02 C2518.85,1006.71 2519.4,1006.33 2522.37,1006.27 L2525.23,1006.27 C2534.25,1006.22 2536.51,1008.2 2538.27,1017.71 L2540.63,1017.71 L2539.86,1003.69 "/>
<path class="Harmony" d="M2352.14,1003.69 L2319.09,1003.69 L2319.09,1006.27 L2320.08,1006.27 C2323.21,1006.33 2324.26,1006.49 2324.7,1007.04 C2325.03,1007.54 2325.03,1007.65 2325.03,1010.45 L2325.03,1036.63 C2325.03,1039.44 2325.03,1039.55 2324.7,1040.04 C2324.26,1040.59 2323.21,1040.81 2320.08,1040.81 L2319.09,1040.81 L2319.09,1043.4 L2352.86,1043.4 L2353.96,1028.71 L2351.54,1028.71 C2349.45,1038.5 2347.19,1040.59 2338.78,1040.81 L2335.15,1040.81 C2331.85,1040.7 2331.02,1040.15 2331.19,1038.17 L2331.19,1024.15 L2332.29,1024.15 C2337.95,1023.93 2339.99,1025.96 2340.21,1032.07 L2342.79,1032.07 L2342.79,1014.03 L2340.21,1014.03 C2339.88,1019.42 2337.73,1021.56 2332.51,1021.56 L2331.19,1021.56 L2331.19,1009.02 C2331.13,1006.71 2331.68,1006.33 2334.65,1006.27 L2337.51,1006.27 C2346.53,1006.22 2348.79,1008.2 2350.55,1017.71 L2352.91,1017.71 L2352.14,1003.69 "/>
<path class="Harmony" d="M1477.12,1002.92 L1474.81,1002.92 L1462.16,1034.98 C1460.67,1039.27 1459.24,1040.59 1456.11,1040.81 L1455.89,1040.81 L1455.89,1043.4 L1470.46,1043.4 L1470.46,1040.81 L1469.36,1040.81 C1466.39,1040.81 1464.91,1039.77 1464.91,1037.68 C1464.91,1036.96 1465.07,1036.3 1465.4,1035.37 L1467.22,1030.53 L1481.79,1030.53 L1484.76,1037.9 C1485.09,1038.78 1485.2,1039.11 1485.2,1039.38 C1485.2,1040.26 1483.83,1040.81 1481.79,1040.81 L1479.48,1040.81 L1479.48,1043.4 L1496.53,1043.4 L1496.53,1040.81 L1495.76,1040.81 C1492.9,1040.76 1492.41,1040.43 1491.14,1037.29 L1477.12,1002.92 M1474.42,1011.94 L1480.64,1027.56 L1468.32,1027.56 L1474.42,1011.94 "/>
<path class="Harmony" d="M1509.54,1017.77 L1499.75,1018.37 L1499.75,1020.74 L1502,1020.74 C1504.09,1020.79 1504.37,1021.12 1504.37,1023.49 L1504.37,1039.22 C1504.31,1040.04 1504.26,1040.37 1504.04,1040.65 C1503.65,1041.14 1502.61,1041.36 1500.24,1041.42 L1500.02,1041.42 L1500.02,1043.4 L1513.88,1043.4 L1513.88,1041.42 L1513.66,1041.42 C1510.03,1041.31 1509.54,1041.03 1509.54,1039 L1509.54,1028.82 C1509.54,1023.93 1512.23,1020.3 1515.81,1020.3 C1518.94,1020.3 1520.54,1022.55 1520.54,1027.01 L1520.54,1039.27 C1520.48,1039.99 1520.43,1040.37 1520.15,1040.65 C1519.82,1041.14 1518.72,1041.36 1516.36,1041.42 L1516.14,1041.42 L1516.14,1043.4 L1530.05,1043.4 L1530.05,1041.42 L1529.83,1041.42 C1526.2,1041.31 1525.71,1041.03 1525.71,1039.05 L1525.71,1029.32 C1525.71,1023.82 1528.18,1020.3 1532.03,1020.3 C1535.17,1020.3 1536.71,1022.66 1536.71,1027.61 L1536.71,1039.22 C1536.65,1039.99 1536.6,1040.37 1536.32,1040.65 C1535.99,1041.14 1534.89,1041.36 1532.53,1041.42 L1532.31,1041.42 L1532.31,1043.4 L1546.22,1043.4 L1546.22,1041.42 L1546,1041.42 C1542.37,1041.31 1541.88,1041.03 1541.88,1039 L1541.88,1026.51 C1541.88,1023.1 1541.55,1021.95 1540.12,1020.08 C1538.52,1018.04 1536.27,1016.94 1533.63,1016.94 C1530.05,1016.94 1527.41,1018.65 1525.05,1022.44 C1524.11,1019.14 1521.14,1016.94 1517.46,1016.94 C1514.1,1016.94 1511.68,1018.54 1509.54,1022 L1509.54,1017.77 "/>
<path class="NoteDot" transform="matrix(0.992,0,0,0.992,2363.71,1241.8)" d="M0,0 C0,2.8 2.2,5 5,5 C7.8,5 10,2.8 10,0 C10,-2.8 7.8,-5 5,-5 C2.2,-5 0,-2.8 0,0"/>
<path class="NoteDot" transform="matrix(0.992,0,0,0.992,2401.9,720.998)" d="M0,0 C0,2.8 2.2,5 5,5 C7.8,5 10,2.8 10,0 C10,-2.8 7.8,-5 5,-5 C2.2,-5 0,-2.8 0,0"/>
</svg>
