<?xml version="1.0" encoding="UTF-8" standalone="no"?>
<svg width="2977.2px" height="4208.4px" viewBox="0 0 2977.2 4208.4"
 xmlns="http://www.w3.org/2000/svg" xmlns:xlink="http://www.w3.org/1999/xlink" version="1.2" baseProfile="tiny">
<title>白バラの匂う夕べは</title>
<desc>Generated by MuseScore Studio 4.4.3</desc>
<path class="" fill="#ffffff" fill-rule="evenodd" d="M0,0 L2977.2,0 L2977.2,4208.4 L0,4208.4 L0,0 "/>
<polyline class="StaffLines" fill="none" stroke="#000000" stroke-width="2.73" stroke-linejoin="bevel" points="212.598,634.198 2764.6,634.198"/>
<polyline class="StaffLines" fill="none" stroke="#000000" stroke-width="2.73" stroke-linejoin="bevel" points="212.598,658.998 2764.6,658.998"/>
<polyline class="StaffLines" fill="none" stroke="#000000" stroke-width="2.73" stroke-linejoin="bevel" points="212.598,683.798 2764.6,683.798"/>
<polyline class="StaffLines" fill="none" stroke="#000000" stroke-width="2.73" stroke-linejoin="bevel" points="212.598,708.598 2764.6,708.598"/>
<polyline class="StaffLines" fill="none" stroke="#000000" stroke-width="2.73" stroke-linejoin="bevel" points="212.598,733.398 2764.6,733.398"/>
<polyline class="StaffLines" fill="none" stroke="#000000" stroke-width="2.73" stroke-linejoin="bevel" points="212.598,1192.2 2764.6,1192.2"/>
<polyline class="StaffLines" fill="none" stroke="#000000" stroke-width="2.73" stroke-linejoin="bevel" points="212.598,1217 2764.6,1217"/>
<polyline class="StaffLines" fill="none" stroke="#000000" stroke-width="2.73" stroke-linejoin="bevel" points="212.598,1241.8 2764.6,1241.8"/>
<polyline class="StaffLines" fill="none" stroke="#000000" stroke-width="2.73" stroke-linejoin="bevel" points="212.598,1266.6 2764.6,1266.6"/>
<polyline class="StaffLines" fill="none" stroke="#000000" stroke-width="2.73" stroke-linejoin="bevel" points="212.598,1291.4 2764.6,1291.4"/>
<polyline class="StaffLines" fill="none" stroke="#000000" stroke-width="2.73" stroke-linejoin="bevel" points="212.598,1750.2 2764.6,1750.2"/>
<polyline class="StaffLines" fill="none" stroke="#000000" stroke-width="2.73" stroke-linejoin="bevel" points="212.598,1775 2764.6,1775"/>
<polyline class="StaffLines" fill="none" stroke="#000000" stroke-width="2.73" stroke-linejoin="bevel" points="212.598,1799.8 2764.6,1799.8"/>
<polyline class="StaffLines" fill="none" stroke="#000000" stroke-width="2.73" stroke-linejoin="bevel" points="212.598,1824.6 2764.6,1824.6"/>
<polyline class="StaffLines" fill="none" stroke="#000000" stroke-width="2.73" stroke-linejoin="bevel" points="212.598,1849.4 2764.6,1849.4"/>
<polyline class="StaffLines" fill="none" stroke="#000000" stroke-width="2.73" stroke-linejoin="bevel" points="212.598,2308.2 2764.6,2308.2"/>
<polyline class="StaffLines" fill="none" stroke="#000000" stroke-width="2.73" stroke-linejoin="bevel" points="212.598,2333 2764.6,2333"/>
<polyline class="StaffLines" fill="none" stroke="#000000" stroke-width="2.73" stroke-linejoin="bevel" points="212.598,2357.8 2764.6,2357.8"/>
<polyline class="StaffLines" fill="none" stroke="#000000" stroke-width="2.73" stroke-linejoin="bevel" points="212.598,2382.6 2764.6,2382.6"/>
<polyline class="StaffLines" fill="none" stroke="#000000" stroke-width="2.73" stroke-linejoin="bevel" points="212.598,2407.4 2764.6,2407.4"/>
<path class="Text" d="M1013.74,230.528 C1008.13,230.528 1004.83,230.418 1001.09,229.978 C1001.53,233.498 1001.64,237.458 1001.64,243.618 L1001.64,299.608 C1001.64,306.208 1001.42,309.618 1000.98,312.918 L1009.01,312.918 L1009.01,306.538 L1068.74,306.538 L1068.74,312.918 L1076.77,312.918 C1076.22,309.728 1076.11,306.538 1076.11,299.828 L1076.11,243.618 C1076.11,237.128 1076.22,233.828 1076.66,229.978 C1072.7,230.418 1069.51,230.528 1063.79,230.528 L1034.97,230.528 C1037.06,226.788 1039.37,222.168 1041.13,217.768 C1041.68,216.338 1041.68,216.338 1042.01,215.788 L1033.87,214.138 C1032.66,219.308 1030.46,224.698 1027.16,230.528 L1013.74,230.528 M1009.01,237.238 L1068.74,237.238 L1068.74,263.748 L1009.01,263.748 L1009.01,237.238 M1009.01,270.458 L1068.74,270.458 L1068.74,299.718 L1009.01,299.718 L1009.01,270.458 "/>
<path class="Text" d="M1127.04,226.238 C1127.15,227.008 1127.15,227.668 1127.15,227.998 C1127.15,229.978 1126.71,233.938 1126.05,238.338 C1123.96,252.748 1120.11,265.618 1114.72,276.508 C1110.1,285.748 1105.59,291.908 1098.77,298.288 C1101.85,300.048 1103.06,301.038 1105.81,304.008 C1121.32,287.838 1130.23,266.718 1134.85,235.368 C1135.73,229.758 1135.84,229.098 1136.28,227.888 L1127.04,226.238 M1158.61,227.888 C1159.05,229.318 1159.49,231.298 1160.04,235.148 C1164.33,263.308 1175.33,288.718 1189.96,304.228 C1192.49,301.148 1193.81,299.938 1196.78,298.068 C1186.11,288.278 1177.09,271.998 1171.81,252.638 C1169.17,243.618 1166.75,230.968 1166.75,226.238 L1158.61,227.888 M1172.91,223.158 C1175.99,226.568 1181.27,235.038 1183.8,240.868 L1189.41,237.678 C1186.33,231.188 1183.25,226.458 1178.41,220.408 L1172.91,223.158 M1185.56,217.548 C1189.74,222.718 1194.14,229.758 1196.45,235.038 L1201.95,232.068 C1198.54,225.138 1195.79,220.738 1190.95,214.688 L1185.56,217.548 M1228.46,231.408 C1231.43,230.968 1234.07,230.858 1239.9,230.858 L1276.86,230.858 C1282.69,230.858 1285.33,230.968 1288.3,231.408 L1288.3,222.938 C1285.11,223.598 1282.91,223.708 1276.75,223.708 L1240.01,223.708 C1233.85,223.708 1231.65,223.598 1228.46,222.938 L1228.46,231.408 M1219,256.708 C1222.74,256.268 1225.93,256.158 1231.76,256.158 L1289.18,256.158 C1284.12,269.688 1279.17,277.828 1271.36,284.978 C1263.11,292.568 1253.43,297.518 1238.69,301.698 C1241.33,304.888 1242.1,306.098 1243.42,309.288 C1271.91,299.718 1287.09,285.638 1296.44,260.008 C1298.31,255.168 1298.53,254.618 1299.52,253.078 L1295.45,248.348 C1293.58,249.008 1292.37,249.118 1288.3,249.118 L1231.87,249.118 C1225.27,249.118 1222.96,249.008 1219,248.458 L1219,256.708 "/>
<path class="Text" d="M1374.76,233.278 C1380.26,233.498 1383.45,234.268 1387.52,236.028 C1398.63,240.978 1405.01,251.098 1405.01,263.638 C1405.01,277.168 1397.64,288.938 1385.54,294.438 C1380.37,296.858 1375.2,298.288 1367.17,299.608 C1369.26,302.248 1369.92,303.348 1371.02,306.978 C1378.61,305.328 1382.79,304.008 1387.74,301.918 C1403.69,295.098 1412.93,281.018 1412.93,263.968 C1412.93,253.408 1409.19,243.838 1402.26,237.128 C1395.11,230.088 1384.33,226.238 1372.01,226.238 C1357.27,226.238 1345.28,231.188 1336.48,240.868 C1329.11,249.118 1324.93,260.008 1324.93,271.228 C1324.93,286.628 1332.74,298.068 1343.19,298.068 C1351.11,298.068 1357.6,291.468 1363.98,276.948 C1368.93,265.398 1373.11,248.568 1374.76,233.278 M1366.84,233.388 C1365.41,247.468 1361.34,263.748 1356.83,274.088 C1352.1,284.868 1347.7,290.038 1343.08,290.038 C1337.14,290.038 1332.52,281.898 1332.52,271.338 C1332.52,257.698 1339.34,245.268 1350.45,238.558 C1355.51,235.478 1360.24,233.938 1366.84,233.388"/>
<path class="Text" d="M1455.28,252.968 C1455.28,248.238 1455.5,245.708 1455.94,243.508 L1447.69,243.508 C1448.13,246.478 1448.35,249.228 1448.35,253.078 L1448.35,286.848 C1448.35,291.248 1449.23,292.788 1452.53,293.778 C1454.84,294.548 1460.67,294.878 1473.32,294.878 C1479.92,294.878 1485.09,294.548 1488.17,293.998 C1490.48,293.558 1491.91,292.788 1493.23,291.248 C1495.65,288.498 1496.75,284.428 1497.41,274.638 C1494.44,273.978 1493.01,273.428 1490.48,271.998 C1490.15,284.318 1489.49,286.408 1485.86,287.618 C1484.43,288.058 1476.51,288.498 1469.47,288.498 C1462.98,288.498 1458.14,288.168 1456.71,287.618 C1455.61,287.288 1455.28,286.628 1455.28,285.088 L1455.28,271.338 C1469.69,267.158 1479.48,262.758 1489.71,256.158 C1491.36,255.058 1493.23,253.848 1493.78,253.518 L1488.17,247.688 C1479.92,255.278 1469.58,260.668 1455.28,264.738 L1455.28,252.968 M1515.45,234.928 C1515.23,250.658 1515.01,258.798 1514.24,268.918 C1513.36,281.678 1511.6,295.208 1510.17,300.928 C1509.07,305.328 1507.42,306.648 1503.13,306.648 C1498.51,306.648 1492.02,305.878 1483.99,304.448 C1484.87,307.418 1485.09,308.738 1485.31,312.038 C1491.8,312.918 1498.29,313.358 1503.13,313.358 C1507.64,313.358 1510.28,312.808 1512.15,311.378 C1514.68,309.508 1516.44,306.098 1517.43,300.928 C1520.4,286.298 1522.16,265.288 1522.6,236.028 C1522.71,232.838 1522.82,230.198 1523.15,227.778 C1519.41,228.218 1516.44,228.438 1512.37,228.438 L1455.28,228.438 C1456.49,225.908 1456.82,225.138 1458.58,221.068 C1459.02,220.078 1459.35,219.308 1459.57,218.758 C1460.01,217.878 1460.34,217.328 1460.45,216.998 C1461.11,215.348 1461.11,215.348 1461.55,214.358 L1453.41,212.598 C1453.08,214.798 1452.2,217.878 1450.66,221.398 C1445.6,233.718 1436.8,246.148 1427.01,254.728 C1429.21,256.488 1430.64,258.028 1432.29,260.558 C1439.77,253.078 1445.6,245.378 1451.76,234.928 L1515.45,234.928 "/>
<path class="Text" d="M1564.29,227.008 C1579.03,231.188 1592.56,233.278 1610.49,234.268 L1611.7,226.348 C1593.66,226.128 1577.71,223.598 1566.93,219.528 L1564.29,227.008 M1552.85,262.758 C1561.43,259.238 1583.43,255.388 1594.76,255.388 C1600.48,255.388 1605.54,256.268 1608.29,257.808 C1612.8,260.228 1615.33,264.628 1615.33,270.128 C1615.33,275.188 1613.46,280.138 1609.72,285.088 C1607.08,288.498 1604.66,290.478 1600.26,292.898 C1591.02,298.178 1581.01,301.038 1569.35,301.808 C1571,304.448 1571.44,305.438 1572.87,309.838 C1589.26,306.758 1596.41,304.448 1604.77,299.388 C1616.98,291.908 1623.69,281.458 1623.69,269.688 C1623.69,262.098 1620.5,256.048 1614.34,252.198 C1609.83,249.338 1603.67,248.018 1595.42,248.018 C1586.73,248.018 1576.5,249.228 1561.87,251.978 C1553.29,253.628 1553.29,253.628 1550.76,253.848 L1552.85,262.758 "/>
<path class="Text" d="M1680.89,258.908 C1691.12,264.958 1697.17,269.138 1706.85,277.278 C1702.45,282.228 1698.38,285.968 1693.87,289.598 C1684.19,297.188 1674.51,302.578 1659.77,308.298 C1660.21,308.848 1660.54,309.178 1660.76,309.508 C1661.64,310.608 1662.19,311.268 1662.41,311.598 C1663.07,312.478 1663.51,313.358 1664.28,315.008 C1681.66,307.528 1692.44,300.818 1703.55,290.808 C1714.99,280.468 1722.25,270.788 1730.94,254.068 C1734.79,246.698 1736,243.838 1738.31,237.678 C1738.75,236.248 1738.97,235.808 1739.52,234.818 L1735.67,230.418 C1733.8,230.748 1731.16,230.858 1726.32,230.858 L1693.32,230.858 C1695.08,227.778 1696.51,225.138 1698.16,222.058 C1699.26,219.638 1700.25,217.988 1701.13,216.558 L1692.88,214.028 C1691.78,218.318 1690.24,221.728 1686.83,227.558 C1677.92,242.848 1668.24,253.518 1654.27,263.198 C1656.8,265.398 1657.9,266.608 1659.55,269.248 C1671.98,259.678 1680.67,250.328 1689.47,237.238 L1730.39,237.238 C1725.77,249.888 1719.28,261.768 1711.69,271.668 C1703.55,265.178 1695.63,259.788 1685.84,253.848 L1680.89,258.908 "/>
<path class="Text" d="M1765.59,278.818 C1766.58,277.608 1766.8,277.388 1768.78,275.188 C1775.27,268.148 1781.1,260.998 1788.03,251.758 C1793.31,244.718 1794.3,243.838 1796.72,243.838 C1798.59,243.838 1800.35,245.158 1803.32,248.568 C1820.48,268.698 1831.7,279.698 1851.39,295.978 C1852.93,297.188 1852.93,297.188 1854.03,298.288 L1857.77,288.828 C1851.94,287.178 1827.52,265.068 1814.1,249.228 C1809.04,243.398 1807.17,241.308 1806.07,240.318 C1802.66,236.908 1799.69,235.368 1796.61,235.368 C1793.75,235.368 1790.89,236.798 1787.81,239.548 C1786.38,240.868 1785.5,241.968 1782.31,246.148 C1772.63,258.798 1763.94,268.368 1760.2,270.678 L1765.59,278.818 M1825.98,231.958 C1829.28,235.368 1834.56,243.618 1837.31,249.448 L1842.81,246.148 C1839.51,239.658 1836.43,235.038 1831.48,229.098 L1825.98,231.958 M1838.52,226.018 C1842.81,231.078 1847.43,238.118 1849.74,243.398 L1855.24,240.208 C1851.61,233.278 1848.86,229.208 1843.91,223.048 L1838.52,226.018 M1904.19,249.448 C1904.41,249.448 1904.52,249.448 1904.63,249.448 C1904.85,249.448 1905.18,249.448 1905.73,249.558 C1905.95,249.558 1906.61,249.558 1907.6,249.668 C1908.04,249.668 1909.25,249.668 1911.12,249.888 C1914.97,250.108 1919.04,250.218 1923.55,250.218 C1927.73,250.218 1931.14,250.108 1936.09,249.888 C1936.42,265.948 1936.86,276.288 1937.19,278.598 C1934.66,277.278 1929.49,276.398 1924.98,276.398 C1912.77,276.398 1904.08,282.888 1904.08,292.018 C1904.08,301.588 1912.11,307.638 1924.87,307.638 C1933.89,307.638 1940.6,304.228 1943.24,298.398 C1944.12,296.418 1944.56,293.778 1944.56,290.918 C1944.56,289.928 1944.56,289.708 1944.34,288.058 C1944.89,288.388 1944.89,288.388 1945.33,288.718 C1945.99,289.158 1945.99,289.158 1946.43,289.378 C1954.24,293.888 1958.64,296.968 1962.05,300.818 L1965.46,293.118 C1964.25,292.348 1964.03,292.128 1962.71,291.248 C1955.45,285.858 1952.37,284.098 1944.34,280.468 C1943.46,265.838 1943.24,260.228 1943.13,249.338 C1948.85,248.678 1951.93,248.238 1954.79,247.578 C1962.27,246.038 1962.27,246.038 1962.49,246.038 L1962.16,238.558 C1957.98,240.318 1951.6,241.638 1943.13,242.628 C1943.02,240.208 1943.02,238.448 1943.02,237.238 C1943.02,228.108 1943.24,222.938 1943.79,219.968 L1935.54,219.968 C1935.76,221.068 1935.87,222.608 1935.87,224.478 C1935.87,232.838 1935.87,232.838 1935.98,243.178 C1931.47,243.398 1928.5,243.508 1924.21,243.508 C1914.53,243.508 1909.8,243.068 1904.41,241.748 L1904.19,249.448 M1937.3,285.308 C1937.3,285.308 1937.41,287.838 1937.41,288.608 C1937.41,292.898 1936.75,295.538 1935.32,297.188 C1933.23,299.608 1928.94,301.038 1924.1,301.038 C1916.4,301.038 1911.34,297.518 1911.34,292.128 C1911.34,286.628 1916.95,282.998 1925.53,282.998 C1929.93,282.998 1932.79,283.548 1937.3,285.308 M1884.72,219.858 C1884.61,221.288 1884.5,221.948 1883.51,226.788 C1879.22,245.818 1877.79,257.368 1877.79,271.998 C1877.79,283.108 1878.89,294.438 1880.87,304.668 C1881.31,307.198 1881.42,307.748 1881.53,308.738 L1889.34,307.968 C1889.12,306.428 1889.12,306.318 1889.12,305.768 C1889.12,299.278 1893.41,285.308 1898.58,274.528 L1893.19,271.998 C1892.97,272.768 1892.75,273.208 1892.31,274.198 C1888.57,283.218 1887.8,285.308 1885.82,293.558 L1885.38,293.448 C1885.38,292.348 1885.38,292.348 1885.38,291.358 C1885.27,289.378 1885.27,289.158 1885.27,288.278 C1885.05,283.218 1884.83,276.728 1884.83,272.878 C1884.83,254.838 1888.57,232.288 1893.3,221.288 L1884.72,219.858 "/>
<path class="MeasureNumber" d="M228.053,1686.92 C227.053,1691.56 224.373,1699.52 218.653,1699.52 C217.493,1699.52 216.733,1699.04 216.733,1698.32 C216.733,1698.04 216.813,1697.92 217.133,1697.44 C217.533,1696.92 217.733,1696.44 217.733,1695.88 C217.733,1694.56 216.693,1693.56 215.333,1693.56 C213.733,1693.56 212.613,1694.76 212.613,1696.52 C212.613,1699.24 215.173,1701.2 218.733,1701.2 C227.493,1701.2 233.093,1690 233.093,1682.4 C233.093,1676.16 230.093,1672.44 225.133,1672.44 C219.173,1672.44 214.733,1677.92 214.733,1683.64 C214.733,1687.44 217.653,1690.32 221.533,1690.32 C224.173,1690.32 226.213,1689.24 228.053,1686.92 M225.093,1674.12 C227.653,1674.12 229.293,1676.16 229.293,1679.36 C229.293,1684.32 226.573,1687.96 222.893,1687.96 C220.373,1687.96 218.973,1686.24 218.973,1683.24 C218.973,1679.64 220.693,1674.12 225.093,1674.12"/>
<path class="MeasureNumber" d="M228.958,2230.28 L227.798,2230.28 C225.598,2231.92 221.358,2233.32 218.478,2233.32 L217.998,2235.08 L220.758,2235.08 C223.198,2235.08 223.478,2235.16 223.478,2235.88 C223.478,2236.24 223.478,2236.24 223.078,2237.68 L218.798,2253.68 C218.278,2255.68 218.238,2255.8 217.878,2256.16 C217.478,2256.56 216.638,2256.68 214.518,2256.72 L212.798,2256.72 L212.598,2258.6 L227.398,2258.6 L227.638,2256.72 L225.478,2256.72 C222.878,2256.72 222.318,2256.52 222.318,2255.64 C222.318,2255.36 222.478,2254.44 222.678,2253.68 L228.958,2230.28 M246.433,2244.04 C248.313,2243.44 249.073,2243.12 250.033,2242.48 C251.913,2241.24 253.073,2239.04 253.073,2236.8 C253.073,2233 250.033,2230.44 245.553,2230.44 C241.193,2230.44 237.513,2233.16 237.513,2236.44 C237.513,2238.08 238.513,2239.2 240.033,2239.2 C241.353,2239.2 242.313,2238.24 242.313,2236.92 C242.313,2236.24 242.113,2235.76 241.473,2235.12 C241.073,2234.76 240.913,2234.48 240.913,2234.2 C240.913,2233.24 242.913,2232.24 244.793,2232.24 C247.473,2232.24 249.073,2233.72 249.073,2236.2 C249.073,2239.76 246.553,2243.12 243.873,2243.12 C243.753,2243.12 243.393,2243.08 242.953,2243.04 C241.793,2242.96 241.793,2242.96 241.553,2242.96 C240.673,2242.96 240.193,2243.36 240.193,2244.08 C240.193,2244.72 240.633,2245.12 241.353,2245.12 C241.553,2245.12 241.833,2245.08 242.153,2245.04 C242.713,2244.92 243.313,2244.88 243.673,2244.88 C245.553,2244.88 246.833,2246.56 246.833,2249.04 C246.833,2253.36 244.713,2257.52 239.873,2257.52 C237.633,2257.52 235.713,2256.4 235.713,2255.12 C235.713,2254.68 235.873,2254.52 236.513,2254.24 C237.673,2253.72 238.153,2253 238.153,2251.92 C238.153,2250.52 237.033,2249.44 235.593,2249.44 C233.873,2249.44 232.753,2250.8 232.753,2252.88 C232.753,2256.76 235.713,2259.2 240.513,2259.2 C246.553,2259.2 251.153,2255.16 251.153,2249.8 C251.153,2246.68 249.233,2244.92 246.433,2244.04"/>
<path class="MeasureNumber" d="M216.922,1127.28 C215.682,1128.04 215.322,1128.52 215.322,1129.32 C215.322,1130.08 215.962,1130.64 216.762,1130.64 C217.802,1130.64 218.402,1129.88 218.522,1128.4 C219.762,1127.4 221.082,1126.96 222.682,1126.96 C225.642,1126.96 227.282,1128.8 227.282,1132.12 C227.282,1137.32 223.922,1141.56 219.802,1141.56 C217.442,1141.56 215.522,1140.44 215.522,1139.12 C215.522,1138.88 215.562,1138.8 215.762,1138.68 C217.042,1138.08 218.082,1137.64 218.082,1135.96 C218.082,1134.68 217.082,1133.72 215.682,1133.72 C213.922,1133.72 212.602,1135.2 212.602,1137.12 C212.602,1140.64 215.642,1143.2 219.922,1143.2 C226.402,1143.2 231.642,1138.04 231.642,1131.64 C231.642,1127.6 228.562,1124.76 224.202,1124.76 C222.482,1124.76 221.082,1125.12 219.162,1126.08 L221.402,1118.52 C223.522,1118.96 225.202,1119.16 226.642,1119.16 C229.282,1119.16 231.642,1118.32 232.962,1116.92 C233.642,1116.12 234.042,1115.44 234.042,1114.92 C234.042,1114.68 233.922,1114.44 233.762,1114.44 C233.642,1114.44 233.562,1114.48 233.322,1114.6 C232.002,1115.24 230.322,1115.6 228.762,1115.6 C226.362,1115.6 223.522,1115.2 220.562,1114.44 L216.922,1127.28 "/>
<polyline class="BarLine" fill="none" stroke="#000000" stroke-width="4.46" stroke-linejoin="bevel" points="2164.23,632.834 2164.23,734.762"/>
<polyline class="BarLine" fill="none" stroke="#000000" stroke-width="4.46" stroke-linejoin="bevel" points="969.098,2306.83 969.098,2408.76"/>
<polyline class="BarLine" fill="none" stroke="#000000" stroke-width="4.46" stroke-linejoin="bevel" points="2739.55,2306.83 2739.55,2408.76"/>
<polyline class="BarLine" fill="none" stroke="#000000" stroke-width="13.64" stroke-linejoin="bevel" points="2757.78,2306.83 2757.78,2408.76"/>
<polyline class="BarLine" fill="none" stroke="#000000" stroke-width="4.46" stroke-linejoin="bevel" points="2228.53,2306.83 2228.53,2408.76"/>
<polyline class="BarLine" fill="none" stroke="#000000" stroke-width="4.46" stroke-linejoin="bevel" points="1566.08,632.834 1566.08,734.762"/>
<polyline class="BarLine" fill="none" stroke="#000000" stroke-width="4.46" stroke-linejoin="bevel" points="2200.05,1190.83 2200.05,1292.76"/>
<polyline class="BarLine" fill="none" stroke="#000000" stroke-width="4.46" stroke-linejoin="bevel" points="2762.37,1190.83 2762.37,1292.76"/>
<polyline class="BarLine" fill="none" stroke="#000000" stroke-width="4.46" stroke-linejoin="bevel" points="1012.16,1748.83 1012.16,1850.76"/>
<polyline class="BarLine" fill="none" stroke="#000000" stroke-width="4.46" stroke-linejoin="bevel" points="2762.37,1748.83 2762.37,1850.76"/>
<polyline class="BarLine" fill="none" stroke="#000000" stroke-width="4.46" stroke-linejoin="bevel" points="2762.37,632.834 2762.37,734.762"/>
<polyline class="BarLine" fill="none" stroke="#000000" stroke-width="4.46" stroke-linejoin="bevel" points="1577.89,1190.83 1577.89,1292.76"/>
<polyline class="BarLine" fill="none" stroke="#000000" stroke-width="4.46" stroke-linejoin="bevel" points="2196.64,1748.83 2196.64,1850.76"/>
<polyline class="BarLine" fill="none" stroke="#000000" stroke-width="4.46" stroke-linejoin="bevel" points="1577.89,1748.83 1577.89,1850.76"/>
<polyline class="BarLine" fill="none" stroke="#000000" stroke-width="4.46" stroke-linejoin="bevel" points="1015.57,1190.83 1015.57,1292.76"/>
<polyline class="BarLine" fill="none" stroke="#000000" stroke-width="4.46" stroke-linejoin="bevel" points="1544.79,2306.83 1544.79,2408.76"/>
<polyline class="BarLine" fill="none" stroke="#000000" stroke-width="4.46" stroke-linejoin="bevel" points="1025.34,632.834 1025.34,734.762"/>
<polyline class="Stem" fill="none" stroke="#000000" stroke-width="2.48" stroke-linejoin="bevel" points="2641.68,1258.36 2641.68,1334.7"/>
<polyline class="Stem" fill="none" stroke="#000000" stroke-width="2.48" stroke-linejoin="bevel" points="722.754,1845.43 722.754,1756.36"/>
<polyline class="Stem" fill="none" stroke="#000000" stroke-width="2.48" stroke-linejoin="bevel" points="2498.19,2403.43 2498.19,2320.6"/>
<polyline class="Stem" fill="none" stroke="#000000" stroke-width="2.48" stroke-linejoin="bevel" points="697.992,2337.16 697.992,2419.8"/>
<polyline class="Stem" fill="none" stroke="#000000" stroke-width="2.48" stroke-linejoin="bevel" points="619.691,2378.63 619.691,2296"/>
<polyline class="Stem" fill="none" stroke="#000000" stroke-width="2.48" stroke-linejoin="bevel" points="1963.38,741.83 1963.38,658.998"/>
<polyline class="Stem" fill="none" stroke="#000000" stroke-width="2.48" stroke-linejoin="bevel" points="2292.74,2391.03 2292.74,2308.2"/>
<polyline class="Stem" fill="none" stroke="#000000" stroke-width="2.48" stroke-linejoin="bevel" points="2078.18,729.43 2078.18,658.998"/>
<polyline class="Stem" fill="none" stroke="#000000" stroke-width="2.48" stroke-linejoin="bevel" points="427.878,2361.96 427.878,2432.2"/>
<polyline class="Stem" fill="none" stroke="#000000" stroke-width="2.48" stroke-linejoin="bevel" points="860.06,2361.96 860.06,2438.3"/>
<polyline class="Stem" fill="none" stroke="#000000" stroke-width="2.48" stroke-linejoin="bevel" points="1630.3,741.83 1630.3,658.998"/>
<polyline class="Stem" fill="none" stroke="#000000" stroke-width="2.48" stroke-linejoin="bevel" points="1003.57,2374.36 1003.57,2438.4"/>
<polyline class="Stem" fill="none" stroke="#000000" stroke-width="2.48" stroke-linejoin="bevel" points="2228.44,717.03 2228.44,634.198"/>
<polyline class="Stem" fill="none" stroke="#000000" stroke-width="2.48" stroke-linejoin="bevel" points="491.412,717.03 491.412,634.198"/>
<polyline class="Stem" fill="none" stroke="#000000" stroke-width="2.48" stroke-linejoin="bevel" points="1195.38,2391.03 1195.38,2308.4"/>
<polyline class="Stem" fill="none" stroke="#000000" stroke-width="2.48" stroke-linejoin="bevel" points="2655.32,1816.36 2655.32,1892.7"/>
<polyline class="Stem" fill="none" stroke="#000000" stroke-width="2.48" stroke-linejoin="bevel" points="2343.24,704.63 2343.24,634.198"/>
<polyline class="Stem" fill="none" stroke="#000000" stroke-width="2.48" stroke-linejoin="bevel" points="2264.27,1299.83 2264.27,1217"/>
<polyline class="Stem" fill="none" stroke="#000000" stroke-width="2.48" stroke-linejoin="bevel" points="2458.04,717.03 2458.04,634.198"/>
<polyline class="Stem" fill="none" stroke="#000000" stroke-width="2.48" stroke-linejoin="bevel" points="2525.99,1857.83 2525.99,1775"/>
<polyline class="Stem" fill="none" stroke="#000000" stroke-width="2.48" stroke-linejoin="bevel" points="2572.83,729.43 2572.83,646.598"/>
<polyline class="Stem" fill="none" stroke="#000000" stroke-width="2.48" stroke-linejoin="bevel" points="2419.94,1833.03 2419.94,1750.4"/>
<polyline class="Stem" fill="none" stroke="#000000" stroke-width="2.48" stroke-linejoin="bevel" points="2149.23,2391.03 2149.23,2314.33"/>
<polyline class="Stem" fill="none" stroke="#000000" stroke-width="2.48" stroke-linejoin="bevel" points="2231.11,1816.36 2231.11,1880.4"/>
<polyline class="Stem" fill="none" stroke="#000000" stroke-width="2.48" stroke-linejoin="bevel" points="1346.8,663.165 1346.8,745.798"/>
<polyline class="Stem" fill="none" stroke="#000000" stroke-width="2.48" stroke-linejoin="bevel" points="1273.68,2337.16 1273.68,2419.8"/>
<polyline class="Stem" fill="none" stroke="#000000" stroke-width="2.48" stroke-linejoin="bevel" points="1232.01,663.165 1232.01,745.699"/>
<polyline class="Stem" fill="none" stroke="#000000" stroke-width="2.48" stroke-linejoin="bevel" points="427.878,1816.36 427.878,1880.4"/>
<polyline class="Stem" fill="none" stroke="#000000" stroke-width="2.48" stroke-linejoin="bevel" points="2041.19,2378.63 2041.19,2308.2"/>
<polyline class="Stem" fill="none" stroke="#000000" stroke-width="2.48" stroke-linejoin="bevel" points="457.622,1275.03 457.622,1192.2"/>
<polyline class="Stem" fill="none" stroke="#000000" stroke-width="2.48" stroke-linejoin="bevel" points="2119.34,1820.63 2119.34,1750.23"/>
<polyline class="Stem" fill="none" stroke="#000000" stroke-width="2.48" stroke-linejoin="bevel" points="2013.29,1833.03 2013.29,1753.3"/>
<polyline class="Stem" fill="none" stroke="#000000" stroke-width="2.48" stroke-linejoin="bevel" points="1907.24,1845.43 1907.24,1756.36"/>
<polyline class="Stem" fill="none" stroke="#000000" stroke-width="2.48" stroke-linejoin="bevel" points="685.229,1262.63 685.229,1192.2"/>
<polyline class="Stem" fill="none" stroke="#000000" stroke-width="2.48" stroke-linejoin="bevel" points="1801.18,1820.63 1801.18,1738"/>
<polyline class="Stem" fill="none" stroke="#000000" stroke-width="2.48" stroke-linejoin="bevel" points="1933.14,2366.23 1933.14,2302.07"/>
<polyline class="Stem" fill="none" stroke="#000000" stroke-width="2.48" stroke-linejoin="bevel" points="1612.36,1816.36 1612.36,1880.4"/>
<polyline class="Stem" fill="none" stroke="#000000" stroke-width="2.48" stroke-linejoin="bevel" points="804.928,1275.03 804.928,1192.2"/>
<polyline class="Stem" fill="none" stroke="#000000" stroke-width="2.48" stroke-linejoin="bevel" points="1435.75,2374.36 1435.75,2450.7"/>
<polyline class="Stem" fill="none" stroke="#000000" stroke-width="2.48" stroke-linejoin="bevel" points="924.626,1262.63 924.626,1192.2"/>
<polyline class="Stem" fill="none" stroke="#000000" stroke-width="2.48" stroke-linejoin="bevel" points="1059.81,700.365 1059.81,764.398"/>
<polyline class="Stem" fill="none" stroke="#000000" stroke-width="2.48" stroke-linejoin="bevel" points="939.294,704.63 939.294,634.198"/>
<polyline class="Stem" fill="none" stroke="#000000" stroke-width="2.48" stroke-linejoin="bevel" points="824.497,717.03 824.497,634.198"/>
<polyline class="Stem" fill="none" stroke="#000000" stroke-width="2.48" stroke-linejoin="bevel" points="1050.04,1258.36 1050.04,1322.4"/>
<polyline class="Stem" fill="none" stroke="#000000" stroke-width="2.48" stroke-linejoin="bevel" points="1470.84,1816.36 1470.84,1892.7"/>
<polyline class="Stem" fill="none" stroke="#000000" stroke-width="2.48" stroke-linejoin="bevel" points="2109.11,1287.43 2109.11,1217"/>
<polyline class="Stem" fill="none" stroke="#000000" stroke-width="2.48" stroke-linejoin="bevel" points="1989.41,1299.83 1989.41,1217"/>
<polyline class="Stem" fill="none" stroke="#000000" stroke-width="2.48" stroke-linejoin="bevel" points="1229.59,1221.16 1229.59,1303.7"/>
<polyline class="Stem" fill="none" stroke="#000000" stroke-width="2.48" stroke-linejoin="bevel" points="1341.51,1857.83 1341.51,1775"/>
<polyline class="Stem" fill="none" stroke="#000000" stroke-width="2.48" stroke-linejoin="bevel" points="1349.29,1221.16 1349.29,1303.8"/>
<polyline class="Stem" fill="none" stroke="#000000" stroke-width="2.48" stroke-linejoin="bevel" points="1235.46,1833.03 1235.46,1750.4"/>
<polyline class="Stem" fill="none" stroke="#000000" stroke-width="2.48" stroke-linejoin="bevel" points="616.702,1820.63 616.702,1738"/>
<polyline class="Stem" fill="none" stroke="#000000" stroke-width="2.48" stroke-linejoin="bevel" points="1046.63,1816.36 1046.63,1880.4"/>
<polyline class="Stem" fill="none" stroke="#000000" stroke-width="2.48" stroke-linejoin="bevel" points="1579.26,2374.36 1579.26,2438.4"/>
<polyline class="Stem" fill="none" stroke="#000000" stroke-width="2.48" stroke-linejoin="bevel" points="1687.31,2361.96 1687.31,2438.4"/>
<polyline class="Stem" fill="none" stroke="#000000" stroke-width="2.48" stroke-linejoin="bevel" points="1642.1,1275.03 1642.1,1192.2"/>
<polyline class="Stem" fill="none" stroke="#000000" stroke-width="2.48" stroke-linejoin="bevel" points="1795.35,2374.36 1795.35,2438.4"/>
<polyline class="Stem" fill="none" stroke="#000000" stroke-width="2.48" stroke-linejoin="bevel" points="709.7,704.63 709.7,634.198"/>
<polyline class="Stem" fill="none" stroke="#000000" stroke-width="2.48" stroke-linejoin="bevel" points="934.86,1820.63 934.86,1750.23"/>
<polyline class="Stem" fill="none" stroke="#000000" stroke-width="2.48" stroke-linejoin="bevel" points="1869.71,1287.43 1869.71,1217"/>
<polyline class="Stem" fill="none" stroke="#000000" stroke-width="2.48" stroke-linejoin="bevel" points="828.807,1833.03 828.807,1753.3"/>
<polyline class="Stem" fill="none" stroke="#000000" stroke-width="2.48" stroke-linejoin="bevel" points="1848.59,729.43 1848.59,658.998"/>
<path class="Hook" transform="matrix(0.992,0,0,0.992,1234.22,1750.2)" d="M0,22.7 C0,23 0.1,23.6 0.8,23.8 C5.1,25.2 13.7,30.6 20.2,41.7 C22,44.8 24.9,49.1 24.9,57.4 C24.9,64.6 23.1,72 20.4,79.2 C20.2,79.8 20.1,80.3 20.1,80.7 C20.1,81.4 20.5,81.7 21.2,81.7 C21.8,81.7 22.3,81.3 22.7,80.6 C27.2,72.6 28.9,63.3 28.9,54.2 C28.4,41.3 21,31.8 21,31.8 C21.3,31.8 11.8,19.5 9.1,15.3 C5.4,9.6 3.7,3.9 3.5,3.5 C3.4,3.2 2.5,-0.4 2.5,-0.4 C2.4,-0.8 1.9,-1.2 1.3,-1.2 C0.6,-1.2 0,-0.6 0,0.1 L0,22.7 "/>
<path class="Hook" transform="matrix(0.992,0,0,0.992,1228.35,1303.8)" d="M0,-0.1 C0,0.6 0.6,1.2 1.3,1.2 C1.8,1.2 2.4,0.8 2.5,0.4 C2.5,0.3 3.4,-3.2 3.5,-3.5 C3.6,-3.9 4.5,-7.7 8.1,-13.6 C12,-20.1 18,-24.8 23,-31.8 C28,-38.8 30.9,-45.4 30.9,-54.2 C30.9,-63.3 28.9,-70.9 23.5,-80.6 C23.2,-81.3 22.6,-81.7 22,-81.7 C21.8,-81.7 21.6,-81.7 21.5,-81.6 C21,-81.4 20.8,-81 20.8,-80.4 C20.8,-80.1 20.9,-79.7 21.1,-79.2 C25.1,-69.9 26.7,-64.6 26.7,-57.4 C26.7,-49.1 23.8,-44.8 22,-41.7 C15.5,-30.6 5,-25.2 0.8,-23.8 C0.1,-23.6 0,-23 0,-22.7 L0,-0.1 "/>
<path class="Hook" transform="matrix(0.992,0,0,0.992,615.462,1737.8)" d="M0,22.7 C0,23 0.1,23.6 0.8,23.8 C5.1,25.2 13.7,30.6 20.2,41.7 C22,44.8 24.9,49.1 24.9,57.4 C24.9,64.6 23.1,72 20.4,79.2 C20.2,79.8 20.1,80.3 20.1,80.7 C20.1,81.4 20.5,81.7 21.2,81.7 C21.8,81.7 22.3,81.3 22.7,80.6 C27.2,72.6 28.9,63.3 28.9,54.2 C28.4,41.3 21,31.8 21,31.8 C21.3,31.8 11.8,19.5 9.1,15.3 C5.4,9.6 3.7,3.9 3.5,3.5 C3.4,3.2 2.5,-0.4 2.5,-0.4 C2.4,-0.8 1.9,-1.2 1.3,-1.2 C0.6,-1.2 0,-0.6 0,0.1 L0,22.7 "/>
<path class="Hook" transform="matrix(0.992,0,0,0.992,1469.6,1892.8)" d="M0,-0.1 C0,0.6 0.6,1.2 1.3,1.2 C1.8,1.2 2.4,0.8 2.5,0.4 C2.5,0.3 3.4,-3.2 3.5,-3.5 C3.6,-3.9 4.5,-7.7 8.1,-13.6 C12,-20.1 18,-24.8 23,-31.8 C28,-38.8 30.9,-45.4 30.9,-54.2 C30.9,-63.3 28.9,-70.9 23.5,-80.6 C23.2,-81.3 22.6,-81.7 22,-81.7 C21.8,-81.7 21.6,-81.7 21.5,-81.6 C21,-81.4 20.8,-81 20.8,-80.4 C20.8,-80.1 20.9,-79.7 21.1,-79.2 C25.1,-69.9 26.7,-64.6 26.7,-57.4 C26.7,-49.1 23.8,-44.8 22,-41.7 C15.5,-30.6 5,-25.2 0.8,-23.8 C0.1,-23.6 0,-23 0,-22.7 L0,-0.1 "/>
<path class="Hook" transform="matrix(0.992,0,0,0.992,1799.94,1737.8)" d="M0,22.7 C0,23 0.1,23.6 0.8,23.8 C5.1,25.2 13.7,30.6 20.2,41.7 C22,44.8 24.9,49.1 24.9,57.4 C24.9,64.6 23.1,72 20.4,79.2 C20.2,79.8 20.1,80.3 20.1,80.7 C20.1,81.4 20.5,81.7 21.2,81.7 C21.8,81.7 22.3,81.3 22.7,80.6 C27.2,72.6 28.9,63.3 28.9,54.2 C28.4,41.3 21,31.8 21,31.8 C21.3,31.8 11.8,19.5 9.1,15.3 C5.4,9.6 3.7,3.9 3.5,3.5 C3.4,3.2 2.5,-0.4 2.5,-0.4 C2.4,-0.8 1.9,-1.2 1.3,-1.2 C0.6,-1.2 0,-0.6 0,0.1 L0,22.7 "/>
<path class="Hook" transform="matrix(0.992,0,0,0.992,1434.51,2450.8)" d="M0,-0.1 C0,0.6 0.6,1.2 1.3,1.2 C1.8,1.2 2.4,0.8 2.5,0.4 C2.5,0.3 3.4,-3.2 3.5,-3.5 C3.6,-3.9 4.5,-7.7 8.1,-13.6 C12,-20.1 18,-24.8 23,-31.8 C28,-38.8 30.9,-45.4 30.9,-54.2 C30.9,-63.3 28.9,-70.9 23.5,-80.6 C23.2,-81.3 22.6,-81.7 22,-81.7 C21.8,-81.7 21.6,-81.7 21.5,-81.6 C21,-81.4 20.8,-81 20.8,-80.4 C20.8,-80.1 20.9,-79.7 21.1,-79.2 C25.1,-69.9 26.7,-64.6 26.7,-57.4 C26.7,-49.1 23.8,-44.8 22,-41.7 C15.5,-30.6 5,-25.2 0.8,-23.8 C0.1,-23.6 0,-23 0,-22.7 L0,-0.1 "/>
<path class="Hook" transform="matrix(0.992,0,0,0.992,1230.77,745.798)" d="M0,-0.1 C0,0.6 0.6,1.2 1.3,1.2 C1.8,1.2 2.4,0.8 2.5,0.4 C2.5,0.3 3.4,-3.2 3.5,-3.5 C3.6,-3.9 4.5,-7.7 8.1,-13.6 C12,-20.1 18,-24.8 23,-31.8 C28,-38.8 30.9,-45.4 30.9,-54.2 C30.9,-63.3 28.9,-70.9 23.5,-80.6 C23.2,-81.3 22.6,-81.7 22,-81.7 C21.8,-81.7 21.6,-81.7 21.5,-81.6 C21,-81.4 20.8,-81 20.8,-80.4 C20.8,-80.1 20.9,-79.7 21.1,-79.2 C25.1,-69.9 26.7,-64.6 26.7,-57.4 C26.7,-49.1 23.8,-44.8 22,-41.7 C15.5,-30.6 5,-25.2 0.8,-23.8 C0.1,-23.6 0,-23 0,-22.7 L0,-0.1 "/>
<path class="Hook" transform="matrix(0.992,0,0,0.992,2418.7,1750.2)" d="M0,22.7 C0,23 0.1,23.6 0.8,23.8 C5.1,25.2 13.7,30.6 20.2,41.7 C22,44.8 24.9,49.1 24.9,57.4 C24.9,64.6 23.1,72 20.4,79.2 C20.2,79.8 20.1,80.3 20.1,80.7 C20.1,81.4 20.5,81.7 21.2,81.7 C21.8,81.7 22.3,81.3 22.7,80.6 C27.2,72.6 28.9,63.3 28.9,54.2 C28.4,41.3 21,31.8 21,31.8 C21.3,31.8 11.8,19.5 9.1,15.3 C5.4,9.6 3.7,3.9 3.5,3.5 C3.4,3.2 2.5,-0.4 2.5,-0.4 C2.4,-0.8 1.9,-1.2 1.3,-1.2 C0.6,-1.2 0,-0.6 0,0.1 L0,22.7 "/>
<path class="Hook" transform="matrix(0.992,0,0,0.992,2654.08,1892.8)" d="M0,-0.1 C0,0.6 0.6,1.2 1.3,1.2 C1.8,1.2 2.4,0.8 2.5,0.4 C2.5,0.3 3.4,-3.2 3.5,-3.5 C3.6,-3.9 4.5,-7.7 8.1,-13.6 C12,-20.1 18,-24.8 23,-31.8 C28,-38.8 30.9,-45.4 30.9,-54.2 C30.9,-63.3 28.9,-70.9 23.5,-80.6 C23.2,-81.3 22.6,-81.7 22,-81.7 C21.8,-81.7 21.6,-81.7 21.5,-81.6 C21,-81.4 20.8,-81 20.8,-80.4 C20.8,-80.1 20.9,-79.7 21.1,-79.2 C25.1,-69.9 26.7,-64.6 26.7,-57.4 C26.7,-49.1 23.8,-44.8 22,-41.7 C15.5,-30.6 5,-25.2 0.8,-23.8 C0.1,-23.6 0,-23 0,-22.7 L0,-0.1 "/>
<path class="Hook" transform="matrix(0.992,0,0,0.992,1194.14,2308.2)" d="M0,22.7 C0,23 0.1,23.6 0.8,23.8 C5.1,25.2 13.7,30.6 20.2,41.7 C22,44.8 24.9,49.1 24.9,57.4 C24.9,64.6 23.1,72 20.4,79.2 C20.2,79.8 20.1,80.3 20.1,80.7 C20.1,81.4 20.5,81.7 21.2,81.7 C21.8,81.7 22.3,81.3 22.7,80.6 C27.2,72.6 28.9,63.3 28.9,54.2 C28.4,41.3 21,31.8 21,31.8 C21.3,31.8 11.8,19.5 9.1,15.3 C5.4,9.6 3.7,3.9 3.5,3.5 C3.4,3.2 2.5,-0.4 2.5,-0.4 C2.4,-0.8 1.9,-1.2 1.3,-1.2 C0.6,-1.2 0,-0.6 0,0.1 L0,22.7 "/>
<path class="Hook" transform="matrix(0.992,0,0,0.992,618.451,2295.8)" d="M0,22.7 C0,23 0.1,23.6 0.8,23.8 C5.1,25.2 13.7,30.6 20.2,41.7 C22,44.8 24.9,49.1 24.9,57.4 C24.9,64.6 23.1,72 20.4,79.2 C20.2,79.8 20.1,80.3 20.1,80.7 C20.1,81.4 20.5,81.7 21.2,81.7 C21.8,81.7 22.3,81.3 22.7,80.6 C27.2,72.6 28.9,63.3 28.9,54.2 C28.4,41.3 21,31.8 21,31.8 C21.3,31.8 11.8,19.5 9.1,15.3 C5.4,9.6 3.7,3.9 3.5,3.5 C3.4,3.2 2.5,-0.4 2.5,-0.4 C2.4,-0.8 1.9,-1.2 1.3,-1.2 C0.6,-1.2 0,-0.6 0,0.1 L0,22.7 "/>
<path class="Hook" transform="matrix(0.992,0,0,0.992,858.82,2438.4)" d="M0,-0.1 C0,0.6 0.6,1.2 1.3,1.2 C1.8,1.2 2.4,0.8 2.5,0.4 C2.5,0.3 3.4,-3.2 3.5,-3.5 C3.6,-3.9 4.5,-7.7 8.1,-13.6 C12,-20.1 18,-24.8 23,-31.8 C28,-38.8 30.9,-45.4 30.9,-54.2 C30.9,-63.3 28.9,-70.9 23.5,-80.6 C23.2,-81.3 22.6,-81.7 22,-81.7 C21.8,-81.7 21.6,-81.7 21.5,-81.6 C21,-81.4 20.8,-81 20.8,-80.4 C20.8,-80.1 20.9,-79.7 21.1,-79.2 C25.1,-69.9 26.7,-64.6 26.7,-57.4 C26.7,-49.1 23.8,-44.8 22,-41.7 C15.5,-30.6 5,-25.2 0.8,-23.8 C0.1,-23.6 0,-23 0,-22.7 L0,-0.1 "/>
<path class="Hook" transform="matrix(0.992,0,0,0.992,2640.44,1334.8)" d="M0,-0.1 C0,0.6 0.6,1.2 1.3,1.2 C1.8,1.2 2.4,0.8 2.5,0.4 C2.5,0.3 3.4,-3.2 3.5,-3.5 C3.6,-3.9 4.5,-7.7 8.1,-13.6 C12,-20.1 18,-24.8 23,-31.8 C28,-38.8 30.9,-45.4 30.9,-54.2 C30.9,-63.3 28.9,-70.9 23.5,-80.6 C23.2,-81.3 22.6,-81.7 22,-81.7 C21.8,-81.7 21.6,-81.7 21.5,-81.6 C21,-81.4 20.8,-81 20.8,-80.4 C20.8,-80.1 20.9,-79.7 21.1,-79.2 C25.1,-69.9 26.7,-64.6 26.7,-57.4 C26.7,-49.1 23.8,-44.8 22,-41.7 C15.5,-30.6 5,-25.2 0.8,-23.8 C0.1,-23.6 0,-23 0,-22.7 L0,-0.1 "/>
<path class="Note" transform="matrix(0.992,0,0,0.992,426.638,1812.2)" d="M0,4.2 C0,8.5 3.1,13.3 11.2,13.3 C21.6,13.3 32.5,4.8 32.5,-4 C32.5,-9.9 27.5,-13.2 21.3,-13.2 C11.6,-13.2 0,-5 0,4.2"/>
<path class="Note" transform="matrix(0.992,0,0,0.992,2388.95,1837)" d="M0,4.2 C0,8.5 3.1,13.3 11.2,13.3 C21.6,13.3 32.5,4.8 32.5,-4 C32.5,-9.9 27.5,-13.2 21.3,-13.2 C11.6,-13.2 0,-5 0,4.2"/>
<path class="Note" transform="matrix(0.992,0,0,0.992,1599.32,745.798)" d="M0,4.2 C0,8.5 3.1,13.3 11.2,13.3 C21.6,13.3 32.5,4.8 32.5,-4 C32.5,-9.9 27.5,-13.2 21.3,-13.2 C11.6,-13.2 0,-5 0,4.2"/>
<path class="Note" transform="matrix(0.992,0,0,0.992,2640.44,1254.2)" d="M0,4.2 C0,8.5 3.1,13.3 11.2,13.3 C21.6,13.3 32.5,4.8 32.5,-4 C32.5,-9.9 27.5,-13.2 21.3,-13.2 C11.6,-13.2 0,-5 0,4.2"/>
<path class="Note" transform="matrix(0.992,0,0,0.992,696.752,2333)" d="M0,4.2 C0,8.5 3.1,13.3 11.2,13.3 C21.6,13.3 32.5,4.8 32.5,-4 C32.5,-9.9 27.5,-13.2 21.3,-13.2 C11.6,-13.2 0,-5 0,4.2"/>
<path class="Note" transform="matrix(0.992,0,0,0.992,2467.21,2407.4)" d="M0,4.2 C0,8.5 3.1,13.3 11.2,13.3 C21.6,13.3 32.5,4.8 32.5,-4 C32.5,-9.9 27.5,-13.2 21.3,-13.2 C11.6,-13.2 0,-5 0,4.2"/>
<path class="Note" transform="matrix(0.992,0,0,0.992,2233.29,1303.8)" d="M0,4.2 C0,8.5 3.1,13.3 11.2,13.3 C21.6,13.3 32.5,4.8 32.5,-4 C32.5,-9.9 27.5,-13.2 21.3,-13.2 C11.6,-13.2 0,-5 0,4.2"/>
<path class="Note" transform="matrix(0.992,0,0,0.992,588.706,2382.6)" d="M0,4.2 C0,8.5 3.1,13.3 11.2,13.3 C21.6,13.3 32.5,4.8 32.5,-4 C32.5,-9.9 27.5,-13.2 21.3,-13.2 C11.6,-13.2 0,-5 0,4.2"/>
<path class="Note" transform="matrix(0.992,0,0,0.992,1002.33,2370.2)" d="M0,4.2 C0,8.5 3.1,13.3 11.2,13.3 C21.6,13.3 32.5,4.8 32.5,-4 C32.5,-9.9 27.5,-13.2 21.3,-13.2 C11.6,-13.2 0,-5 0,4.2"/>
<path class="Note" transform="matrix(0.992,0,0,0.992,2078.12,1291.4)" d="M0,4.2 C0,8.5 3.1,13.3 11.2,13.3 C21.6,13.3 32.5,4.8 32.5,-4 C32.5,-9.9 27.5,-13.2 21.3,-13.2 C11.6,-13.2 0,-5 0,4.2"/>
<path class="Note" transform="matrix(0.992,0,0,0.992,1932.4,745.798)" d="M0,4.2 C0,8.5 3.1,13.3 11.2,13.3 C21.6,13.3 32.5,4.8 32.5,-4 C32.5,-9.9 27.5,-13.2 21.3,-13.2 C11.6,-13.2 0,-5 0,4.2"/>
<path class="Note" transform="matrix(0.992,0,0,0.992,2261.76,2395)" d="M0,4.2 C0,8.5 3.1,13.3 11.2,13.3 C21.6,13.3 32.5,4.8 32.5,-4 C32.5,-9.9 27.5,-13.2 21.3,-13.2 C11.6,-13.2 0,-5 0,4.2"/>
<path class="Note" transform="matrix(0.992,0,0,0.992,1958.42,1303.8)" d="M0,4.2 C0,8.5 3.1,13.3 11.2,13.3 C21.6,13.3 32.5,4.8 32.5,-4 C32.5,-9.9 27.5,-13.2 21.3,-13.2 C11.6,-13.2 0,-5 0,4.2"/>
<path class="Note" transform="matrix(0.992,0,0,0.992,1345.56,658.998)" d="M0,4.2 C0,8.5 3.1,13.3 11.2,13.3 C21.6,13.3 32.5,4.8 32.5,-4 C32.5,-9.9 27.5,-13.2 21.3,-13.2 C11.6,-13.2 0,-5 0,4.2"/>
<path class="Note" transform="matrix(0.992,0,0,0.992,585.717,1824.6)" d="M0,4.2 C0,8.5 3.1,13.3 11.2,13.3 C21.6,13.3 32.5,4.8 32.5,-4 C32.5,-9.9 27.5,-13.2 21.3,-13.2 C11.6,-13.2 0,-5 0,4.2"/>
<path class="Note" transform="matrix(0.992,0,0,0.992,426.638,2357.8)" d="M0,4.2 C0,8.5 3.1,13.3 11.2,13.3 C21.6,13.3 32.5,4.8 32.5,-4 C32.5,-9.9 27.5,-13.2 21.3,-13.2 C11.6,-13.2 0,-5 0,4.2"/>
<path class="Note" transform="matrix(0.992,0,0,0.992,691.77,1849.4)" d="M0,4.2 C0,8.5 3.1,13.3 11.2,13.3 C21.6,13.3 32.5,4.8 32.5,-4 C32.5,-9.9 27.5,-13.2 21.3,-13.2 C11.6,-13.2 0,-5 0,4.2"/>
<path class="Note" transform="matrix(0.992,0,0,0.992,2047.2,733.398)" d="M0,4.2 C0,8.5 3.1,13.3 11.2,13.3 C21.6,13.3 32.5,4.8 32.5,-4 C32.5,-9.9 27.5,-13.2 21.3,-13.2 C11.6,-13.2 0,-5 0,4.2"/>
<path class="Note" transform="matrix(0.992,0,0,0.992,1164.4,2395)" d="M0,4.2 C0,8.5 3.1,13.3 11.2,13.3 C21.6,13.3 32.5,4.8 32.5,-4 C32.5,-9.9 27.5,-13.2 21.3,-13.2 C11.6,-13.2 0,-5 0,4.2"/>
<path class="Note" transform="matrix(0.992,0,0,0.992,1838.73,1291.4)" d="M0,4.2 C0,8.5 3.1,13.3 11.2,13.3 C21.6,13.3 32.5,4.8 32.5,-4 C32.5,-9.9 27.5,-13.2 21.3,-13.2 C11.6,-13.2 0,-5 0,4.2"/>
<path class="Note" transform="matrix(0.992,0,0,0.992,797.823,1837)" d="M0,4.2 C0,8.5 3.1,13.3 11.2,13.3 C21.6,13.3 32.5,4.8 32.5,-4 C32.5,-9.9 27.5,-13.2 21.3,-13.2 C11.6,-13.2 0,-5 0,4.2"/>
<path class="Note" transform="matrix(0.992,0,0,0.992,460.428,720.998)" d="M0,4.2 C0,8.5 3.1,13.3 11.2,13.3 C21.6,13.3 32.5,4.8 32.5,-4 C32.5,-9.9 27.5,-13.2 21.3,-13.2 C11.6,-13.2 0,-5 0,4.2"/>
<path class="Note" transform="matrix(0.992,0,0,0.992,903.875,1824.6)" d="M0,4.2 C0,8.5 3.1,13.3 11.2,13.3 C21.6,13.3 32.5,4.8 32.5,-4 C32.5,-9.9 27.5,-13.2 21.3,-13.2 C11.6,-13.2 0,-5 0,4.2"/>
<path class="Note" transform="matrix(0.992,0,0,0.992,2118.25,2395)" d="M0,4.2 C0,8.5 3.1,13.3 11.2,13.3 C21.6,13.3 32.5,4.8 32.5,-4 C32.5,-9.9 27.5,-13.2 21.3,-13.2 C11.6,-13.2 0,-5 0,4.2"/>
<path class="Note" transform="matrix(0.992,0,0,0.992,1611.12,1279)" d="M0,4.2 C0,8.5 3.1,13.3 11.2,13.3 C21.6,13.3 32.5,4.8 32.5,-4 C32.5,-9.9 27.5,-13.2 21.3,-13.2 C11.6,-13.2 0,-5 0,4.2"/>
<path class="Note" transform="matrix(0.992,0,0,0.992,2010.2,2382.6)" d="M0,4.2 C0,8.5 3.1,13.3 11.2,13.3 C21.6,13.3 32.5,4.8 32.5,-4 C32.5,-9.9 27.5,-13.2 21.3,-13.2 C11.6,-13.2 0,-5 0,4.2"/>
<path class="Note" transform="matrix(0.992,0,0,0.992,1045.39,1812.2)" d="M0,4.2 C0,8.5 3.1,13.3 11.2,13.3 C21.6,13.3 32.5,4.8 32.5,-4 C32.5,-9.9 27.5,-13.2 21.3,-13.2 C11.6,-13.2 0,-5 0,4.2"/>
<path class="Note" transform="matrix(0.992,0,0,0.992,2197.46,720.998)" d="M0,4.2 C0,8.5 3.1,13.3 11.2,13.3 C21.6,13.3 32.5,4.8 32.5,-4 C32.5,-9.9 27.5,-13.2 21.3,-13.2 C11.6,-13.2 0,-5 0,4.2"/>
<path class="Note" transform="matrix(0.992,0,0,0.992,1902.16,2370.2)" d="M0,4.2 C0,8.5 3.1,13.3 11.2,13.3 C21.6,13.3 32.5,4.8 32.5,-4 C32.5,-9.9 27.5,-13.2 21.3,-13.2 C11.6,-13.2 0,-5 0,4.2"/>
<path class="Note" transform="matrix(0.992,0,0,0.992,1348.05,1217)" d="M0,4.2 C0,8.5 3.1,13.3 11.2,13.3 C21.6,13.3 32.5,4.8 32.5,-4 C32.5,-9.9 27.5,-13.2 21.3,-13.2 C11.6,-13.2 0,-5 0,4.2"/>
<path class="Note" transform="matrix(0.992,0,0,0.992,1204.47,1837)" d="M0,4.2 C0,8.5 3.1,13.3 11.2,13.3 C21.6,13.3 32.5,4.8 32.5,-4 C32.5,-9.9 27.5,-13.2 21.3,-13.2 C11.6,-13.2 0,-5 0,4.2"/>
<path class="Note" transform="matrix(0.992,0,0,0.992,1228.35,1217)" d="M0,4.2 C0,8.5 3.1,13.3 11.2,13.3 C21.6,13.3 32.5,4.8 32.5,-4 C32.5,-9.9 27.5,-13.2 21.3,-13.2 C11.6,-13.2 0,-5 0,4.2"/>
<path class="Note" transform="matrix(0.992,0,0,0.992,1310.52,1861.8)" d="M0,4.2 C0,8.5 3.1,13.3 11.2,13.3 C21.6,13.3 32.5,4.8 32.5,-4 C32.5,-9.9 27.5,-13.2 21.3,-13.2 C11.6,-13.2 0,-5 0,4.2"/>
<path class="Note" transform="matrix(0.992,0,0,0.992,2654.08,1812.2)" d="M0,4.2 C0,8.5 3.1,13.3 11.2,13.3 C21.6,13.3 32.5,4.8 32.5,-4 C32.5,-9.9 27.5,-13.2 21.3,-13.2 C11.6,-13.2 0,-5 0,4.2"/>
<path class="Note" transform="matrix(0.992,0,0,0.992,1794.11,2370.2)" d="M0,4.2 C0,8.5 3.1,13.3 11.2,13.3 C21.6,13.3 32.5,4.8 32.5,-4 C32.5,-9.9 27.5,-13.2 21.3,-13.2 C11.6,-13.2 0,-5 0,4.2"/>
<path class="Note" transform="matrix(0.992,0,0,0.992,1048.8,1254.2)" d="M0,4.2 C0,8.5 3.1,13.3 11.2,13.3 C21.6,13.3 32.5,4.8 32.5,-4 C32.5,-9.9 27.5,-13.2 21.3,-13.2 C11.6,-13.2 0,-5 0,4.2"/>
<path class="Note" transform="matrix(0.992,0,0,0.992,1469.6,1812.2)" d="M0,4.2 C0,8.5 3.1,13.3 11.2,13.3 C21.6,13.3 32.5,4.8 32.5,-4 C32.5,-9.9 27.5,-13.2 21.3,-13.2 C11.6,-13.2 0,-5 0,4.2"/>
<path class="Note" transform="matrix(0.992,0,0,0.992,893.641,1266.6)" d="M0,4.2 C0,8.5 3.1,13.3 11.2,13.3 C21.6,13.3 32.5,4.8 32.5,-4 C32.5,-9.9 27.5,-13.2 21.3,-13.2 C11.6,-13.2 0,-5 0,4.2"/>
<path class="Note" transform="matrix(0.992,0,0,0.992,773.943,1279)" d="M0,4.2 C0,8.5 3.1,13.3 11.2,13.3 C21.6,13.3 32.5,4.8 32.5,-4 C32.5,-9.9 27.5,-13.2 21.3,-13.2 C11.6,-13.2 0,-5 0,4.2"/>
<path class="Note" transform="matrix(0.992,0,0,0.992,678.716,708.598)" d="M0,4.2 C0,8.5 3.1,13.3 11.2,13.3 C21.6,13.3 32.5,4.8 32.5,-4 C32.5,-9.9 27.5,-13.2 21.3,-13.2 C11.6,-13.2 0,-5 0,4.2"/>
<path class="Note" transform="matrix(0.992,0,0,0.992,1611.12,1812.2)" d="M0,4.2 C0,8.5 3.1,13.3 11.2,13.3 C21.6,13.3 32.5,4.8 32.5,-4 C32.5,-9.9 27.5,-13.2 21.3,-13.2 C11.6,-13.2 0,-5 0,4.2"/>
<path class="Note" transform="matrix(0.992,0,0,0.992,1686.07,2357.8)" d="M0,4.2 C0,8.5 3.1,13.3 11.2,13.3 C21.6,13.3 32.5,4.8 32.5,-4 C32.5,-9.9 27.5,-13.2 21.3,-13.2 C11.6,-13.2 0,-5 0,4.2"/>
<path class="Note" transform="matrix(0.992,0,0,0.992,858.82,2357.8)" d="M0,4.2 C0,8.5 3.1,13.3 11.2,13.3 C21.6,13.3 32.5,4.8 32.5,-4 C32.5,-9.9 27.5,-13.2 21.3,-13.2 C11.6,-13.2 0,-5 0,4.2"/>
<path class="Note" transform="matrix(0.992,0,0,0.992,654.245,1266.6)" d="M0,4.2 C0,8.5 3.1,13.3 11.2,13.3 C21.6,13.3 32.5,4.8 32.5,-4 C32.5,-9.9 27.5,-13.2 21.3,-13.2 C11.6,-13.2 0,-5 0,4.2"/>
<path class="Note" transform="matrix(0.992,0,0,0.992,1770.2,1824.6)" d="M0,4.2 C0,8.5 3.1,13.3 11.2,13.3 C21.6,13.3 32.5,4.8 32.5,-4 C32.5,-9.9 27.5,-13.2 21.3,-13.2 C11.6,-13.2 0,-5 0,4.2"/>
<path class="Note" transform="matrix(0.992,0,0,0.992,1230.77,658.998)" d="M0,4.2 C0,8.5 3.1,13.3 11.2,13.3 C21.6,13.3 32.5,4.8 32.5,-4 C32.5,-9.9 27.5,-13.2 21.3,-13.2 C11.6,-13.2 0,-5 0,4.2"/>
<path class="Note" transform="matrix(0.992,0,0,0.992,1876.25,1849.4)" d="M0,4.2 C0,8.5 3.1,13.3 11.2,13.3 C21.6,13.3 32.5,4.8 32.5,-4 C32.5,-9.9 27.5,-13.2 21.3,-13.2 C11.6,-13.2 0,-5 0,4.2"/>
<path class="Note" transform="matrix(0.992,0,0,0.992,2312.26,708.598)" d="M0,4.2 C0,8.5 3.1,13.3 11.2,13.3 C21.6,13.3 32.5,4.8 32.5,-4 C32.5,-9.9 27.5,-13.2 21.3,-13.2 C11.6,-13.2 0,-5 0,4.2"/>
<path class="Note" transform="matrix(0.992,0,0,0.992,1272.44,2333)" d="M0,4.2 C0,8.5 3.1,13.3 11.2,13.3 C21.6,13.3 32.5,4.8 32.5,-4 C32.5,-9.9 27.5,-13.2 21.3,-13.2 C11.6,-13.2 0,-5 0,4.2"/>
<path class="Note" transform="matrix(0.992,0,0,0.992,1578.02,2370.2)" d="M0,4.2 C0,8.5 3.1,13.3 11.2,13.3 C21.6,13.3 32.5,4.8 32.5,-4 C32.5,-9.9 27.5,-13.2 21.3,-13.2 C11.6,-13.2 0,-5 0,4.2"/>
<path class="Note" transform="matrix(0.992,0,0,0.992,1982.3,1837)" d="M0,4.2 C0,8.5 3.1,13.3 11.2,13.3 C21.6,13.3 32.5,4.8 32.5,-4 C32.5,-9.9 27.5,-13.2 21.3,-13.2 C11.6,-13.2 0,-5 0,4.2"/>
<path class="Note" transform="matrix(0.992,0,0,0.992,426.638,1279)" d="M0,4.2 C0,8.5 3.1,13.3 11.2,13.3 C21.6,13.3 32.5,4.8 32.5,-4 C32.5,-9.9 27.5,-13.2 21.3,-13.2 C11.6,-13.2 0,-5 0,4.2"/>
<path class="Note" transform="matrix(0.992,0,0,0.992,2088.36,1824.6)" d="M0,4.2 C0,8.5 3.1,13.3 11.2,13.3 C21.6,13.3 32.5,4.8 32.5,-4 C32.5,-9.9 27.5,-13.2 21.3,-13.2 C11.6,-13.2 0,-5 0,4.2"/>
<path class="Note" transform="matrix(0.992,0,0,0.992,2495.01,1861.8)" d="M0,4.2 C0,8.5 3.1,13.3 11.2,13.3 C21.6,13.3 32.5,4.8 32.5,-4 C32.5,-9.9 27.5,-13.2 21.3,-13.2 C11.6,-13.2 0,-5 0,4.2"/>
<path class="Note" transform="matrix(0.992,0,0,0.992,793.513,720.998)" d="M0,4.2 C0,8.5 3.1,13.3 11.2,13.3 C21.6,13.3 32.5,4.8 32.5,-4 C32.5,-9.9 27.5,-13.2 21.3,-13.2 C11.6,-13.2 0,-5 0,4.2"/>
<path class="Note" transform="matrix(0.992,0,0,0.992,2427.05,720.998)" d="M0,4.2 C0,8.5 3.1,13.3 11.2,13.3 C21.6,13.3 32.5,4.8 32.5,-4 C32.5,-9.9 27.5,-13.2 21.3,-13.2 C11.6,-13.2 0,-5 0,4.2"/>
<path class="Note" transform="matrix(0.992,0,0,0.992,908.31,708.598)" d="M0,4.2 C0,8.5 3.1,13.3 11.2,13.3 C21.6,13.3 32.5,4.8 32.5,-4 C32.5,-9.9 27.5,-13.2 21.3,-13.2 C11.6,-13.2 0,-5 0,4.2"/>
<path class="Note" transform="matrix(0.992,0,0,0.992,2229.87,1812.2)" d="M0,4.2 C0,8.5 3.1,13.3 11.2,13.3 C21.6,13.3 32.5,4.8 32.5,-4 C32.5,-9.9 27.5,-13.2 21.3,-13.2 C11.6,-13.2 0,-5 0,4.2"/>
<path class="Note" transform="matrix(0.992,0,0,0.992,1434.51,2370.2)" d="M0,4.2 C0,8.5 3.1,13.3 11.2,13.3 C21.6,13.3 32.5,4.8 32.5,-4 C32.5,-9.9 27.5,-13.2 21.3,-13.2 C11.6,-13.2 0,-5 0,4.2"/>
<path class="Note" transform="matrix(0.992,0,0,0.992,1058.57,696.198)" d="M0,4.2 C0,8.5 3.1,13.3 11.2,13.3 C21.6,13.3 32.5,4.8 32.5,-4 C32.5,-9.9 27.5,-13.2 21.3,-13.2 C11.6,-13.2 0,-5 0,4.2"/>
<path class="Note" transform="matrix(0.992,0,0,0.992,2541.85,733.398)" d="M0,4.2 C0,8.5 3.1,13.3 11.2,13.3 C21.6,13.3 32.5,4.8 32.5,-4 C32.5,-9.9 27.5,-13.2 21.3,-13.2 C11.6,-13.2 0,-5 0,4.2"/>
<path class="Note" transform="matrix(0.992,0,0,0.992,1817.6,733.398)" d="M0,4.2 C0,8.5 3.1,13.3 11.2,13.3 C21.6,13.3 32.5,4.8 32.5,-4 C32.5,-9.9 27.5,-13.2 21.3,-13.2 C11.6,-13.2 0,-5 0,4.2"/>
<path class="Clef" transform="matrix(0.992,0,0,0.992,231.198,1266.6)" d="M12.3,51.3 C12.3,57.9 17.3,66.6 30.8,66.6 C35.5,66.6 39.6,65.4 43.2,63.2 C48.6,59.4 50,52.8 50,46.5 C50,42.6 49.4,38.1 48.4,32.4 C48.1,30.4 47.5,27.4 46.9,23.5 C56.7,20.3 64,10.1 64,-0.2 C64,-15.3 53.3,-25.5 38.7,-25.5 C37.7,-31.5 36.7,-37.4 35.9,-43 C46.4,-54.1 53.7,-66.6 53.7,-82.5 C53.7,-91.6 50.9,-99 49.3,-102.6 C46.9,-107.7 44,-111.2 42.2,-111.2 C41.5,-111.2 38.4,-110 35.1,-106.1 C28.7,-98.5 26.9,-85.7 26.9,-77.3 C26.9,-71.9 27.4,-67 29.1,-55.8 C29,-55.7 23.8,-50.4 21.7,-48.7 C12.6,-40.3 0,-28.1 0,-8.1 C0,10.6 16.3,25.3 34.9,25.3 C37.8,25.3 40.5,25 42.8,24.6 C44.7,34.2 45.9,41.2 45.9,46.5 C45.9,56.9 40.5,62.4 30.4,62.4 C28,62.4 25.9,61.9 25.7,61.9 C25.6,61.8 25.4,61.7 25.4,61.6 C25.4,61.4 25.6,61.3 25.9,61.3 C30.6,60.5 35.3,56.5 35.3,50.1 C35.3,44.7 31.2,39 23.7,39 C16.7,39 12.3,44.7 12.3,51.3 M33.2,-82.2 C34.1,-86.2 38.7,-96.7 43.9,-96.7 C45.4,-96.7 47.8,-91.9 47.8,-84.9 C47.8,-74.5 40.1,-66.7 33.2,-59.9 C32.6,-63.9 32.1,-67.8 32.1,-72 C32.1,-75.7 32.4,-79.1 33.2,-82.2 M42,20.6 C40,21 38.1,21.2 36.2,21.2 C21.9,21.2 9.7,11.2 9.7,-3.9 C9.7,-16.1 18.3,-27 27.1,-34.6 C28.8,-36.1 30.4,-37.5 31.9,-39 C32.8,-33.6 33.5,-28.9 34.2,-24.8 C25.1,-22.1 18.9,-12.5 18.9,-3.1 C18.9,3.9 24.4,13.5 32.4,13.5 C33.2,13.5 34.1,13.1 34.1,12.2 C34.1,11.3 33.1,10.8 31.9,10 C28,7.6 25.8,5 25.8,0.1 C25.8,-6 30.4,-10.9 36.2,-12.3 L42,20.6 M56.2,2.1 C56.2,9.2 53.3,16.5 46.2,19.4 C44.1,7.4 41.4,-8.5 40.7,-12.9 C49.7,-12.9 56.2,-6.8 56.2,2.1"/>
<path class="Clef" transform="matrix(0.992,0,0,0.992,231.198,2382.6)" d="M12.3,51.3 C12.3,57.9 17.3,66.6 30.8,66.6 C35.5,66.6 39.6,65.4 43.2,63.2 C48.6,59.4 50,52.8 50,46.5 C50,42.6 49.4,38.1 48.4,32.4 C48.1,30.4 47.5,27.4 46.9,23.5 C56.7,20.3 64,10.1 64,-0.2 C64,-15.3 53.3,-25.5 38.7,-25.5 C37.7,-31.5 36.7,-37.4 35.9,-43 C46.4,-54.1 53.7,-66.6 53.7,-82.5 C53.7,-91.6 50.9,-99 49.3,-102.6 C46.9,-107.7 44,-111.2 42.2,-111.2 C41.5,-111.2 38.4,-110 35.1,-106.1 C28.7,-98.5 26.9,-85.7 26.9,-77.3 C26.9,-71.9 27.4,-67 29.1,-55.8 C29,-55.7 23.8,-50.4 21.7,-48.7 C12.6,-40.3 0,-28.1 0,-8.1 C0,10.6 16.3,25.3 34.9,25.3 C37.8,25.3 40.5,25 42.8,24.6 C44.7,34.2 45.9,41.2 45.9,46.5 C45.9,56.9 40.5,62.4 30.4,62.4 C28,62.4 25.9,61.9 25.7,61.9 C25.6,61.8 25.4,61.7 25.4,61.6 C25.4,61.4 25.6,61.3 25.9,61.3 C30.6,60.5 35.3,56.5 35.3,50.1 C35.3,44.7 31.2,39 23.7,39 C16.7,39 12.3,44.7 12.3,51.3 M33.2,-82.2 C34.1,-86.2 38.7,-96.7 43.9,-96.7 C45.4,-96.7 47.8,-91.9 47.8,-84.9 C47.8,-74.5 40.1,-66.7 33.2,-59.9 C32.6,-63.9 32.1,-67.8 32.1,-72 C32.1,-75.7 32.4,-79.1 33.2,-82.2 M42,20.6 C40,21 38.1,21.2 36.2,21.2 C21.9,21.2 9.7,11.2 9.7,-3.9 C9.7,-16.1 18.3,-27 27.1,-34.6 C28.8,-36.1 30.4,-37.5 31.9,-39 C32.8,-33.6 33.5,-28.9 34.2,-24.8 C25.1,-22.1 18.9,-12.5 18.9,-3.1 C18.9,3.9 24.4,13.5 32.4,13.5 C33.2,13.5 34.1,13.1 34.1,12.2 C34.1,11.3 33.1,10.8 31.9,10 C28,7.6 25.8,5 25.8,0.1 C25.8,-6 30.4,-10.9 36.2,-12.3 L42,20.6 M56.2,2.1 C56.2,9.2 53.3,16.5 46.2,19.4 C44.1,7.4 41.4,-8.5 40.7,-12.9 C49.7,-12.9 56.2,-6.8 56.2,2.1"/>
<path class="Clef" transform="matrix(0.992,0,0,0.992,231.198,708.598)" d="M12.3,51.3 C12.3,57.9 17.3,66.6 30.8,66.6 C35.5,66.6 39.6,65.4 43.2,63.2 C48.6,59.4 50,52.8 50,46.5 C50,42.6 49.4,38.1 48.4,32.4 C48.1,30.4 47.5,27.4 46.9,23.5 C56.7,20.3 64,10.1 64,-0.2 C64,-15.3 53.3,-25.5 38.7,-25.5 C37.7,-31.5 36.7,-37.4 35.9,-43 C46.4,-54.1 53.7,-66.6 53.7,-82.5 C53.7,-91.6 50.9,-99 49.3,-102.6 C46.9,-107.7 44,-111.2 42.2,-111.2 C41.5,-111.2 38.4,-110 35.1,-106.1 C28.7,-98.5 26.9,-85.7 26.9,-77.3 C26.9,-71.9 27.4,-67 29.1,-55.8 C29,-55.7 23.8,-50.4 21.7,-48.7 C12.6,-40.3 0,-28.1 0,-8.1 C0,10.6 16.3,25.3 34.9,25.3 C37.8,25.3 40.5,25 42.8,24.6 C44.7,34.2 45.9,41.2 45.9,46.5 C45.9,56.9 40.5,62.4 30.4,62.4 C28,62.4 25.9,61.9 25.7,61.9 C25.6,61.8 25.4,61.7 25.4,61.6 C25.4,61.4 25.6,61.3 25.9,61.3 C30.6,60.5 35.3,56.5 35.3,50.1 C35.3,44.7 31.2,39 23.7,39 C16.7,39 12.3,44.7 12.3,51.3 M33.2,-82.2 C34.1,-86.2 38.7,-96.7 43.9,-96.7 C45.4,-96.7 47.8,-91.9 47.8,-84.9 C47.8,-74.5 40.1,-66.7 33.2,-59.9 C32.6,-63.9 32.1,-67.8 32.1,-72 C32.1,-75.7 32.4,-79.1 33.2,-82.2 M42,20.6 C40,21 38.1,21.2 36.2,21.2 C21.9,21.2 9.7,11.2 9.7,-3.9 C9.7,-16.1 18.3,-27 27.1,-34.6 C28.8,-36.1 30.4,-37.5 31.9,-39 C32.8,-33.6 33.5,-28.9 34.2,-24.8 C25.1,-22.1 18.9,-12.5 18.9,-3.1 C18.9,3.9 24.4,13.5 32.4,13.5 C33.2,13.5 34.1,13.1 34.1,12.2 C34.1,11.3 33.1,10.8 31.9,10 C28,7.6 25.8,5 25.8,0.1 C25.8,-6 30.4,-10.9 36.2,-12.3 L42,20.6 M56.2,2.1 C56.2,9.2 53.3,16.5 46.2,19.4 C44.1,7.4 41.4,-8.5 40.7,-12.9 C49.7,-12.9 56.2,-6.8 56.2,2.1"/>
<path class="Clef" transform="matrix(0.992,0,0,0.992,231.198,1824.6)" d="M12.3,51.3 C12.3,57.9 17.3,66.6 30.8,66.6 C35.5,66.6 39.6,65.4 43.2,63.2 C48.6,59.4 50,52.8 50,46.5 C50,42.6 49.4,38.1 48.4,32.4 C48.1,30.4 47.5,27.4 46.9,23.5 C56.7,20.3 64,10.1 64,-0.2 C64,-15.3 53.3,-25.5 38.7,-25.5 C37.7,-31.5 36.7,-37.4 35.9,-43 C46.4,-54.1 53.7,-66.6 53.7,-82.5 C53.7,-91.6 50.9,-99 49.3,-102.6 C46.9,-107.7 44,-111.2 42.2,-111.2 C41.5,-111.2 38.4,-110 35.1,-106.1 C28.7,-98.5 26.9,-85.7 26.9,-77.3 C26.9,-71.9 27.4,-67 29.1,-55.8 C29,-55.7 23.8,-50.4 21.7,-48.7 C12.6,-40.3 0,-28.1 0,-8.1 C0,10.6 16.3,25.3 34.9,25.3 C37.8,25.3 40.5,25 42.8,24.6 C44.7,34.2 45.9,41.2 45.9,46.5 C45.9,56.9 40.5,62.4 30.4,62.4 C28,62.4 25.9,61.9 25.7,61.9 C25.6,61.8 25.4,61.7 25.4,61.6 C25.4,61.4 25.6,61.3 25.9,61.3 C30.6,60.5 35.3,56.5 35.3,50.1 C35.3,44.7 31.2,39 23.7,39 C16.7,39 12.3,44.7 12.3,51.3 M33.2,-82.2 C34.1,-86.2 38.7,-96.7 43.9,-96.7 C45.4,-96.7 47.8,-91.9 47.8,-84.9 C47.8,-74.5 40.1,-66.7 33.2,-59.9 C32.6,-63.9 32.1,-67.8 32.1,-72 C32.1,-75.7 32.4,-79.1 33.2,-82.2 M42,20.6 C40,21 38.1,21.2 36.2,21.2 C21.9,21.2 9.7,11.2 9.7,-3.9 C9.7,-16.1 18.3,-27 27.1,-34.6 C28.8,-36.1 30.4,-37.5 31.9,-39 C32.8,-33.6 33.5,-28.9 34.2,-24.8 C25.1,-22.1 18.9,-12.5 18.9,-3.1 C18.9,3.9 24.4,13.5 32.4,13.5 C33.2,13.5 34.1,13.1 34.1,12.2 C34.1,11.3 33.1,10.8 31.9,10 C28,7.6 25.8,5 25.8,0.1 C25.8,-6 30.4,-10.9 36.2,-12.3 L42,20.6 M56.2,2.1 C56.2,9.2 53.3,16.5 46.2,19.4 C44.1,7.4 41.4,-8.5 40.7,-12.9 C49.7,-12.9 56.2,-6.8 56.2,2.1"/>
<path class="KeySig" transform="matrix(0.992,0,0,0.992,313.271,1192.2)" d="M23.3,-10.5 C23.9,-10.6 24.4,-11.3 24.4,-11.9 L24.4,-17.8 C24.4,-18.8 23.7,-19.2 22.8,-19.2 L19.5,-18.5 L19.5,-33.4 L16.7,-33.4 L16.7,-17.9 L7.8,-16.1 L7.8,-30.2 L5,-30.2 L5,-15.5 L1.1,-14.7 C0.5,-14.6 0,-13.9 0,-13.3 L0,-7.5 C0,-6.4 0.8,-6.1 1.7,-6.1 L5,-6.8 L5,9.7 L1.1,10.5 C0.5,10.6 0,11.3 0,11.9 L0,17.7 C0,18.8 0.8,19.1 1.7,19.1 L5,18.4 L5,33.3 L7.8,33.3 L7.8,17.8 L16.7,16 L16.7,30.1 L19.5,30.1 L19.5,15.4 L23.3,14.7 C23.9,14.6 24.4,13.9 24.4,13.3 L24.4,7.4 C24.4,6.4 23.7,6 22.8,6 L19.5,6.7 L19.5,-9.8 L23.3,-10.5 M7.8,-7.4 L16.7,-9.2 L16.7,7.3 L7.8,9.2 L7.8,-7.4 "/>
<path class="KeySig" transform="matrix(0.992,0,0,0.992,340.442,1229.4)" d="M23.3,-10.5 C23.9,-10.6 24.4,-11.3 24.4,-11.9 L24.4,-17.8 C24.4,-18.8 23.7,-19.2 22.8,-19.2 L19.5,-18.5 L19.5,-33.4 L16.7,-33.4 L16.7,-17.9 L7.8,-16.1 L7.8,-30.2 L5,-30.2 L5,-15.5 L1.1,-14.7 C0.5,-14.6 0,-13.9 0,-13.3 L0,-7.5 C0,-6.4 0.8,-6.1 1.7,-6.1 L5,-6.8 L5,9.7 L1.1,10.5 C0.5,10.6 0,11.3 0,11.9 L0,17.7 C0,18.8 0.8,19.1 1.7,19.1 L5,18.4 L5,33.3 L7.8,33.3 L7.8,17.8 L16.7,16 L16.7,30.1 L19.5,30.1 L19.5,15.4 L23.3,14.7 C23.9,14.6 24.4,13.9 24.4,13.3 L24.4,7.4 C24.4,6.4 23.7,6 22.8,6 L19.5,6.7 L19.5,-9.8 L23.3,-10.5 M7.8,-7.4 L16.7,-9.2 L16.7,7.3 L7.8,9.2 L7.8,-7.4 "/>
<path class="KeySig" transform="matrix(0.992,0,0,0.992,313.271,2308.2)" d="M23.3,-10.5 C23.9,-10.6 24.4,-11.3 24.4,-11.9 L24.4,-17.8 C24.4,-18.8 23.7,-19.2 22.8,-19.2 L19.5,-18.5 L19.5,-33.4 L16.7,-33.4 L16.7,-17.9 L7.8,-16.1 L7.8,-30.2 L5,-30.2 L5,-15.5 L1.1,-14.7 C0.5,-14.6 0,-13.9 0,-13.3 L0,-7.5 C0,-6.4 0.8,-6.1 1.7,-6.1 L5,-6.8 L5,9.7 L1.1,10.5 C0.5,10.6 0,11.3 0,11.9 L0,17.7 C0,18.8 0.8,19.1 1.7,19.1 L5,18.4 L5,33.3 L7.8,33.3 L7.8,17.8 L16.7,16 L16.7,30.1 L19.5,30.1 L19.5,15.4 L23.3,14.7 C23.9,14.6 24.4,13.9 24.4,13.3 L24.4,7.4 C24.4,6.4 23.7,6 22.8,6 L19.5,6.7 L19.5,-9.8 L23.3,-10.5 M7.8,-7.4 L16.7,-9.2 L16.7,7.3 L7.8,9.2 L7.8,-7.4 "/>
<path class="KeySig" transform="matrix(0.992,0,0,0.992,340.442,2345.4)" d="M23.3,-10.5 C23.9,-10.6 24.4,-11.3 24.4,-11.9 L24.4,-17.8 C24.4,-18.8 23.7,-19.2 22.8,-19.2 L19.5,-18.5 L19.5,-33.4 L16.7,-33.4 L16.7,-17.9 L7.8,-16.1 L7.8,-30.2 L5,-30.2 L5,-15.5 L1.1,-14.7 C0.5,-14.6 0,-13.9 0,-13.3 L0,-7.5 C0,-6.4 0.8,-6.1 1.7,-6.1 L5,-6.8 L5,9.7 L1.1,10.5 C0.5,10.6 0,11.3 0,11.9 L0,17.7 C0,18.8 0.8,19.1 1.7,19.1 L5,18.4 L5,33.3 L7.8,33.3 L7.8,17.8 L16.7,16 L16.7,30.1 L19.5,30.1 L19.5,15.4 L23.3,14.7 C23.9,14.6 24.4,13.9 24.4,13.3 L24.4,7.4 C24.4,6.4 23.7,6 22.8,6 L19.5,6.7 L19.5,-9.8 L23.3,-10.5 M7.8,-7.4 L16.7,-9.2 L16.7,7.3 L7.8,9.2 L7.8,-7.4 "/>
<path class="KeySig" transform="matrix(0.992,0,0,0.992,313.271,634.198)" d="M23.3,-10.5 C23.9,-10.6 24.4,-11.3 24.4,-11.9 L24.4,-17.8 C24.4,-18.8 23.7,-19.2 22.8,-19.2 L19.5,-18.5 L19.5,-33.4 L16.7,-33.4 L16.7,-17.9 L7.8,-16.1 L7.8,-30.2 L5,-30.2 L5,-15.5 L1.1,-14.7 C0.5,-14.6 0,-13.9 0,-13.3 L0,-7.5 C0,-6.4 0.8,-6.1 1.7,-6.1 L5,-6.8 L5,9.7 L1.1,10.5 C0.5,10.6 0,11.3 0,11.9 L0,17.7 C0,18.8 0.8,19.1 1.7,19.1 L5,18.4 L5,33.3 L7.8,33.3 L7.8,17.8 L16.7,16 L16.7,30.1 L19.5,30.1 L19.5,15.4 L23.3,14.7 C23.9,14.6 24.4,13.9 24.4,13.3 L24.4,7.4 C24.4,6.4 23.7,6 22.8,6 L19.5,6.7 L19.5,-9.8 L23.3,-10.5 M7.8,-7.4 L16.7,-9.2 L16.7,7.3 L7.8,9.2 L7.8,-7.4 "/>
<path class="KeySig" transform="matrix(0.992,0,0,0.992,340.442,671.398)" d="M23.3,-10.5 C23.9,-10.6 24.4,-11.3 24.4,-11.9 L24.4,-17.8 C24.4,-18.8 23.7,-19.2 22.8,-19.2 L19.5,-18.5 L19.5,-33.4 L16.7,-33.4 L16.7,-17.9 L7.8,-16.1 L7.8,-30.2 L5,-30.2 L5,-15.5 L1.1,-14.7 C0.5,-14.6 0,-13.9 0,-13.3 L0,-7.5 C0,-6.4 0.8,-6.1 1.7,-6.1 L5,-6.8 L5,9.7 L1.1,10.5 C0.5,10.6 0,11.3 0,11.9 L0,17.7 C0,18.8 0.8,19.1 1.7,19.1 L5,18.4 L5,33.3 L7.8,33.3 L7.8,17.8 L16.7,16 L16.7,30.1 L19.5,30.1 L19.5,15.4 L23.3,14.7 C23.9,14.6 24.4,13.9 24.4,13.3 L24.4,7.4 C24.4,6.4 23.7,6 22.8,6 L19.5,6.7 L19.5,-9.8 L23.3,-10.5 M7.8,-7.4 L16.7,-9.2 L16.7,7.3 L7.8,9.2 L7.8,-7.4 "/>
<path class="KeySig" transform="matrix(0.992,0,0,0.992,313.271,1750.2)" d="M23.3,-10.5 C23.9,-10.6 24.4,-11.3 24.4,-11.9 L24.4,-17.8 C24.4,-18.8 23.7,-19.2 22.8,-19.2 L19.5,-18.5 L19.5,-33.4 L16.7,-33.4 L16.7,-17.9 L7.8,-16.1 L7.8,-30.2 L5,-30.2 L5,-15.5 L1.1,-14.7 C0.5,-14.6 0,-13.9 0,-13.3 L0,-7.5 C0,-6.4 0.8,-6.1 1.7,-6.1 L5,-6.8 L5,9.7 L1.1,10.5 C0.5,10.6 0,11.3 0,11.9 L0,17.7 C0,18.8 0.8,19.1 1.7,19.1 L5,18.4 L5,33.3 L7.8,33.3 L7.8,17.8 L16.7,16 L16.7,30.1 L19.5,30.1 L19.5,15.4 L23.3,14.7 C23.9,14.6 24.4,13.9 24.4,13.3 L24.4,7.4 C24.4,6.4 23.7,6 22.8,6 L19.5,6.7 L19.5,-9.8 L23.3,-10.5 M7.8,-7.4 L16.7,-9.2 L16.7,7.3 L7.8,9.2 L7.8,-7.4 "/>
<path class="KeySig" transform="matrix(0.992,0,0,0.992,340.442,1787.4)" d="M23.3,-10.5 C23.9,-10.6 24.4,-11.3 24.4,-11.9 L24.4,-17.8 C24.4,-18.8 23.7,-19.2 22.8,-19.2 L19.5,-18.5 L19.5,-33.4 L16.7,-33.4 L16.7,-17.9 L7.8,-16.1 L7.8,-30.2 L5,-30.2 L5,-15.5 L1.1,-14.7 C0.5,-14.6 0,-13.9 0,-13.3 L0,-7.5 C0,-6.4 0.8,-6.1 1.7,-6.1 L5,-6.8 L5,9.7 L1.1,10.5 C0.5,10.6 0,11.3 0,11.9 L0,17.7 C0,18.8 0.8,19.1 1.7,19.1 L5,18.4 L5,33.3 L7.8,33.3 L7.8,17.8 L16.7,16 L16.7,30.1 L19.5,30.1 L19.5,15.4 L23.3,14.7 C23.9,14.6 24.4,13.9 24.4,13.3 L24.4,7.4 C24.4,6.4 23.7,6 22.8,6 L19.5,6.7 L19.5,-9.8 L23.3,-10.5 M7.8,-7.4 L16.7,-9.2 L16.7,7.3 L7.8,9.2 L7.8,-7.4 "/>
<path class="TimeSig" transform="matrix(0.992,0,0,0.992,388.26,659.494)" d="M24.7,-4.8 C18.6,-4.8 16.4,-3 15,-1.5 C14.7,-3.6 14.5,-5.2 14.5,-6.8 C14.5,-12.5 16.5,-19.9 23.5,-19.9 C26,-19.9 27.5,-19.1 28.5,-18 C26.4,-17.1 24.7,-14.4 24.7,-12.1 C24.7,-8.5 27.5,-5.7 31.1,-5.7 C34.7,-5.7 37.6,-8.5 37.6,-12.1 L37.6,-12.4 C37.6,-13.3 37.4,-14.8 37,-15.6 C35.7,-19.2 31.5,-24.5 21.5,-24.5 C12.5,-24.5 6,-15.9 4,-11.3 C3,-8.9 1.5,-4 1.5,1.6 C1.5,7.7 3.2,14.6 9.1,19.8 C14.9,24.2 18.6,24.4 22.1,24.4 C25.6,24.4 38.7,20.3 38.7,8.7 C38.7,-1.1 31,-4.8 24.7,-4.8 M21,20.2 C17.7,20.2 15,15.7 15,10.1 C15,4.5 17.7,-0.1 21,-0.1 C24.3,-0.1 27.1,4.5 27.1,10.1 C27.1,15.7 24.3,20.2 21,20.2"/>
<path class="TimeSig" transform="matrix(0.992,0,0,0.992,387.965,708.35)" d="M32.4,-1.8 C35.7,-4.3 38,-7.5 38,-11.5 C38,-18.7 30.1,-24.6 20.4,-24.6 C10.7,-24.6 2.8,-18.7 2.8,-11.5 C2.8,-7.5 3.8,-3.9 8.5,-0.9 C4,1.7 1.5,5.4 1.5,10.2 C1.5,18.3 10,24.8 20.4,24.8 C30.8,24.8 39.3,18.3 39.3,10.2 C39.3,5.4 37.6,0.9 32.4,-1.8 M26.8,-4.5 C20,-6.7 12.5,-10 12.5,-14.5 C12.5,-18.4 16.1,-20 20.4,-20 C26.6,-20 30.8,-17.1 30.8,-12.5 C30.8,-7.7 28.6,-5.4 26.8,-4.5 M20.4,19.2 C14,19.2 8.5,15.7 8.5,10.1 C8.5,3.4 13.7,1.8 13.7,1.8 C20.5,4.1 30.2,7.5 30.2,13 C30.2,15.7 26.8,19.2 20.4,19.2"/>
<path class="Rest" transform="matrix(0.992,0,0,0.992,2629.28,2357.8)" d="M26.7,-20.3 C26.6,-20.3 26.4,-20.4 26.3,-20.4 C25.7,-20.4 25.2,-20.1 25,-19.6 C22.7,-15 17.9,-8.8 12.5,-7.8 C13.6,-9.1 14.3,-10.7 14.3,-12.6 C14.3,-16.5 11.1,-19.7 7.2,-19.7 C3.2,-19.7 0,-16.5 0,-12.6 C0,-7.2 5.3,-4.7 10,-4.7 C15.3,-4.7 18.8,-7.2 22.2,-10.9 L10.8,24.7 L13.5,25.5 L27.5,-18.6 C27.6,-18.7 27.6,-18.9 27.6,-19.1 C27.6,-19.6 27.3,-20 26.7,-20.3"/>
<path class="Rest" transform="matrix(0.992,0,0,0.992,2460.89,1241.8)" d="M23,16.6 C22.9,16.5 22.7,16.3 22.4,15.9 L10.9,1.7 C10.8,1.6 10.7,1.3 10.7,1.1 C10.7,0.8 10.8,0.4 10.9,0.2 L21.1,-15.2 C21.2,-15.4 21.3,-15.7 21.3,-15.9 L21.3,-16.8 C21.3,-17.1 21.2,-17.4 21,-17.6 L4.8,-39.5 C4.8,-39.5 4.4,-40.1 3.8,-40.1 C3.5,-40.1 3.3,-40.1 3,-39.8 C2.6,-39.5 2.5,-39.1 2.5,-38.8 C2.5,-38.2 2.8,-37.7 2.8,-37.7 L10.4,-27.3 C10.6,-27 10.7,-26.6 10.7,-26.1 C10.7,-25.7 10.6,-25.2 10.4,-24.9 L0.3,-9.5 C0.2,-9.3 0.1,-8.9 0.1,-8.7 L0.1,-7.8 C0.1,-7.5 0.2,-7.2 0.4,-7 L11.6,6.9 C11.2,6.8 10.3,6.6 9.1,6.6 C4,6.6 0,10.8 0,15.9 C0,17.3 0.3,18.7 1.1,19.8 C3.2,23 10.7,32.5 10.7,32.5 C10.7,32.5 11.2,33.1 11.9,33.1 C12.1,33.1 12.3,33.1 12.5,32.9 C13,32.5 13.2,32.1 13.2,31.7 C13.2,31.3 13,31 12.9,30.8 C12.6,30.3 9.4,24.5 9.4,24.5 C9.4,24.5 8.7,23.1 8.7,21.3 C8.7,18.1 11.1,15.5 14.3,15.5 C15.6,15.5 16.7,15.9 17.5,16.4 L21.4,18.9 C21.4,18.9 21.8,19.1 22.2,19.1 C22.6,19.1 22.9,19 23.2,18.6 C23.4,18.3 23.5,18 23.5,17.7 C23.5,17.4 23.4,17.2 23.2,16.9 L23,16.6 "/>
<path class="Beam" fill-rule="evenodd" d="M1578.02,2432.2 L1796.59,2432.2 L1796.59,2444.6 L1578.02,2444.6 L1578.02,2432.2 "/>
<path class="Beam" fill-rule="evenodd" d="M1906,1750.2 L2120.58,1744 L2120.58,1756.4 L1906,1762.6 L1906,1750.2 "/>
<path class="Beam" fill-rule="evenodd" d="M708.46,627.998 L940.534,627.998 L940.534,640.398 L708.46,640.398 L708.46,627.998 "/>
<path class="Beam" fill-rule="evenodd" d="M2227.2,627.998 L2459.28,627.998 L2459.28,640.398 L2227.2,640.398 L2227.2,627.998 "/>
<path class="Beam" fill-rule="evenodd" d="M1931.9,2295.79 L2150.47,2308.19 L2150.47,2320.61 L1931.9,2308.21 L1931.9,2295.79 "/>
<path class="Beam" fill-rule="evenodd" d="M721.514,1750.2 L936.1,1744 L936.1,1756.4 L721.514,1762.6 L721.514,1750.2 "/>
<path class="Beam" fill-rule="evenodd" d="M1868.47,1210.8 L2110.35,1210.8 L2110.35,1223.2 L1868.47,1223.2 L1868.47,1210.8 "/>
<path class="Beam" fill-rule="evenodd" d="M1847.35,652.798 L2079.42,652.798 L2079.42,665.198 L1847.35,665.198 L1847.35,652.798 "/>
<path class="Beam" fill-rule="evenodd" d="M683.989,1186 L925.866,1186 L925.866,1198.4 L683.989,1198.4 L683.989,1186 "/>
<path class="Tempo" d="M413.211,467.041 L409.944,467.041 L409.944,509.314 C408.855,508.621 407.469,508.225 405.885,508.027 C402.321,508.027 399.45,508.423 396.282,510.205 C392.322,512.284 387.966,516.64 387.966,521.491 C387.966,526.243 392.223,528.52 396.579,528.52 C403.509,528.52 413.211,522.58 413.211,515.056 L413.211,467.041 "/>
<path class="Tempo" d="M435.463,504.997 L465.703,504.997 L465.703,498.097 L435.463,498.097 L435.463,504.997 M435.463,517.357 L465.703,517.357 L465.703,510.457 L435.463,510.457 L435.463,517.357 M510.161,498.217 C514.121,496.717 517.241,494.377 517.241,489.637 C517.241,484.117 512.021,480.397 504.221,480.397 C494.921,480.397 488.921,485.377 488.921,493.177 C488.921,497.917 491.141,501.397 495.881,503.917 C494.021,504.517 493.241,504.757 492.221,505.297 C489.221,506.857 487.601,509.617 487.601,513.097 C487.601,519.577 493.421,523.717 502.541,523.717 C512.201,523.717 518.741,518.197 518.741,509.977 C518.741,504.337 515.981,500.617 510.161,498.217 M506.801,496.957 C504.281,496.357 502.421,495.817 501.281,495.397 C498.521,494.377 496.721,491.917 496.721,489.277 C496.721,485.977 499.481,483.517 503.201,483.517 C507.221,483.517 509.741,486.157 509.741,490.357 C509.741,493.057 508.721,495.337 506.801,496.957 M499.121,505.537 C501.581,506.197 504.581,507.097 506.081,507.577 C509.861,508.897 511.301,510.517 511.301,513.577 C511.301,517.657 507.941,520.597 503.201,520.597 C498.341,520.597 495.401,517.717 495.401,512.917 C495.401,509.737 496.421,507.697 499.121,505.537 M537.639,480.397 C528.639,480.397 522.039,489.577 522.039,502.057 C522.039,514.537 528.639,523.717 537.639,523.717 C546.459,523.717 553.179,514.537 553.179,502.357 C553.179,495.277 551.559,490.057 548.019,485.617 C545.199,482.197 541.659,480.397 537.639,480.397 M537.579,483.517 C539.379,483.517 540.819,484.597 541.479,486.517 C542.259,488.497 542.739,494.797 542.739,502.237 C542.739,508.417 542.259,514.897 541.719,516.937 C541.059,519.337 539.619,520.597 537.579,520.597 C535.719,520.597 534.339,519.577 533.619,517.597 C532.839,515.617 532.359,509.257 532.359,502.057 C532.359,495.757 532.839,489.217 533.379,487.177 C534.039,484.777 535.479,483.517 537.579,483.517"/>
<path class="Harmony" d="M2460.9,1130.2 L2477.7,1130.2 C2482.15,1130.2 2485.55,1129.5 2488.2,1128 C2493.25,1125.15 2496.05,1119.45 2496.05,1111.95 C2496.05,1105.05 2493.55,1099.65 2488.95,1096.65 C2486.2,1094.9 2482.5,1094.1 2476.8,1094.1 L2460.9,1094.1 L2460.9,1096.45 L2461.85,1096.45 C2464.65,1096.5 2465.6,1096.65 2466,1097.15 C2466.3,1097.6 2466.3,1097.7 2466.3,1100.25 L2466.3,1124.05 C2466.3,1126.6 2466.3,1126.7 2466,1127.15 C2465.6,1127.65 2464.65,1127.8 2461.85,1127.85 L2460.9,1127.85 L2460.9,1130.2 M2474.75,1127.85 C2472.2,1127.85 2471.9,1127.55 2471.9,1125.1 L2471.9,1099.25 C2471.9,1096.8 2472.25,1096.45 2474.75,1096.45 L2477.35,1096.45 C2485.9,1096.45 2489.45,1101.1 2489.45,1112.15 C2489.45,1123.35 2486.25,1127.85 2478.15,1127.85 L2474.75,1127.85 "/>
<path class="Harmony" d="M1348.06,1130.2 L1364.86,1130.2 C1369.31,1130.2 1372.71,1129.5 1375.36,1128 C1380.41,1125.15 1383.21,1119.45 1383.21,1111.95 C1383.21,1105.05 1380.71,1099.65 1376.11,1096.65 C1373.36,1094.9 1369.66,1094.1 1363.96,1094.1 L1348.06,1094.1 L1348.06,1096.45 L1349.01,1096.45 C1351.81,1096.5 1352.76,1096.65 1353.16,1097.15 C1353.46,1097.6 1353.46,1097.7 1353.46,1100.25 L1353.46,1124.05 C1353.46,1126.6 1353.46,1126.7 1353.16,1127.15 C1352.76,1127.65 1351.81,1127.8 1349.01,1127.85 L1348.06,1127.85 L1348.06,1130.2 M1361.91,1127.85 C1359.36,1127.85 1359.06,1127.55 1359.06,1125.1 L1359.06,1099.25 C1359.06,1096.8 1359.41,1096.45 1361.91,1096.45 L1364.51,1096.45 C1373.06,1096.45 1376.61,1101.1 1376.61,1112.15 C1376.61,1123.35 1373.41,1127.85 1365.31,1127.85 L1361.91,1127.85 "/>
<path class="Harmony" d="M2233.3,1130.2 L2250.1,1130.2 C2254.55,1130.2 2257.95,1129.5 2260.6,1128 C2265.65,1125.15 2268.45,1119.45 2268.45,1111.95 C2268.45,1105.05 2265.95,1099.65 2261.35,1096.65 C2258.6,1094.9 2254.9,1094.1 2249.2,1094.1 L2233.3,1094.1 L2233.3,1096.45 L2234.25,1096.45 C2237.05,1096.5 2238,1096.65 2238.4,1097.15 C2238.7,1097.6 2238.7,1097.7 2238.7,1100.25 L2238.7,1124.05 C2238.7,1126.6 2238.7,1126.7 2238.4,1127.15 C2238,1127.65 2237.05,1127.8 2234.25,1127.85 L2233.3,1127.85 L2233.3,1130.2 M2247.15,1127.85 C2244.6,1127.85 2244.3,1127.55 2244.3,1125.1 L2244.3,1099.25 C2244.3,1096.8 2244.65,1096.45 2247.15,1096.45 L2249.75,1096.45 C2258.3,1096.45 2261.85,1101.1 2261.85,1112.15 C2261.85,1123.35 2258.65,1127.85 2250.55,1127.85 L2247.15,1127.85 "/>
<path class="Harmony" d="M727.158,2209.75 L725.258,2209.75 L723.308,2212.75 C720.058,2210.2 717.858,2209.35 714.208,2209.35 C710.258,2209.35 707.158,2210.45 704.008,2213 C699.058,2217 696.758,2222.05 696.758,2228.8 C696.758,2233.9 698.208,2238.15 701.158,2241.4 C704.258,2244.9 708.858,2246.95 713.658,2246.95 C717.858,2246.95 720.808,2245.65 724.058,2242.4 L725.908,2246.9 L728.008,2246.9 L728.008,2235.9 C728.008,2233.35 728.008,2233.25 728.308,2232.8 C728.758,2232.25 729.658,2232.1 732.508,2232.1 L733.258,2232.1 L733.258,2229.75 L717.358,2229.75 L717.358,2232.1 L718.308,2232.1 C722.508,2232.1 722.858,2232.35 722.858,2235.15 C722.858,2237.3 722.508,2239.25 721.858,2240.45 C720.608,2242.9 717.408,2244.6 714.158,2244.6 C710.908,2244.6 707.708,2242.95 706.008,2240.45 C704.158,2237.65 703.358,2234.15 703.358,2228.8 C703.358,2217.65 707.058,2211.7 714.008,2211.7 C719.708,2211.7 723.658,2215.8 725.708,2223.8 L727.858,2223.8 L727.158,2209.75 "/>
<path class="Harmony" d="M1345.58,572.198 L1362.38,572.198 C1366.83,572.198 1370.23,571.498 1372.88,569.998 C1377.93,567.148 1380.73,561.448 1380.73,553.948 C1380.73,547.048 1378.23,541.648 1373.63,538.648 C1370.88,536.898 1367.18,536.098 1361.48,536.098 L1345.58,536.098 L1345.58,538.448 L1346.53,538.448 C1349.33,538.498 1350.28,538.648 1350.68,539.148 C1350.98,539.598 1350.98,539.698 1350.98,542.248 L1350.98,566.048 C1350.98,568.598 1350.98,568.698 1350.68,569.148 C1350.28,569.648 1349.33,569.798 1346.53,569.848 L1345.58,569.848 L1345.58,572.198 M1359.43,569.848 C1356.88,569.848 1356.58,569.548 1356.58,567.098 L1356.58,541.248 C1356.58,538.798 1356.93,538.448 1359.43,538.448 L1362.03,538.448 C1370.58,538.448 1374.13,543.098 1374.13,554.148 C1374.13,565.348 1370.93,569.848 1362.83,569.848 L1359.43,569.848 "/>
<path class="Harmony" d="M1836.89,535.398 L1834.79,535.398 L1823.29,564.548 C1821.94,568.448 1820.64,569.648 1817.79,569.848 L1817.59,569.848 L1817.59,572.198 L1830.84,572.198 L1830.84,569.848 L1829.84,569.848 C1827.14,569.848 1825.79,568.898 1825.79,566.998 C1825.79,566.348 1825.94,565.748 1826.24,564.898 L1827.89,560.498 L1841.14,560.498 L1843.84,567.198 C1844.14,567.998 1844.24,568.298 1844.24,568.548 C1844.24,569.348 1842.99,569.848 1841.14,569.848 L1839.04,569.848 L1839.04,572.198 L1854.54,572.198 L1854.54,569.848 L1853.84,569.848 C1851.24,569.798 1850.79,569.498 1849.64,566.648 L1836.89,535.398 M1834.44,543.598 L1840.09,557.798 L1828.89,557.798 L1834.44,543.598 "/>
<path class="Harmony" d="M1002.34,2246.2 L1019.14,2246.2 C1023.59,2246.2 1026.99,2245.5 1029.64,2244 C1034.69,2241.15 1037.49,2235.45 1037.49,2227.95 C1037.49,2221.05 1034.99,2215.65 1030.39,2212.65 C1027.64,2210.9 1023.94,2210.1 1018.24,2210.1 L1002.34,2210.1 L1002.34,2212.45 L1003.29,2212.45 C1006.09,2212.5 1007.04,2212.65 1007.44,2213.15 C1007.74,2213.6 1007.74,2213.7 1007.74,2216.25 L1007.74,2240.05 C1007.74,2242.6 1007.74,2242.7 1007.44,2243.15 C1007.04,2243.65 1006.09,2243.8 1003.29,2243.85 L1002.34,2243.85 L1002.34,2246.2 M1016.19,2243.85 C1013.64,2243.85 1013.34,2243.55 1013.34,2241.1 L1013.34,2215.25 C1013.34,2212.8 1013.69,2212.45 1016.19,2212.45 L1018.79,2212.45 C1027.34,2212.45 1030.89,2217.1 1030.89,2228.15 C1030.89,2239.35 1027.69,2243.85 1019.59,2243.85 L1016.19,2243.85 "/>
<path class="Harmony" d="M2486.5,2209.4 L2484.4,2209.4 L2472.9,2238.55 C2471.55,2242.45 2470.25,2243.65 2467.4,2243.85 L2467.2,2243.85 L2467.2,2246.2 L2480.45,2246.2 L2480.45,2243.85 L2479.45,2243.85 C2476.75,2243.85 2475.4,2242.9 2475.4,2241 C2475.4,2240.35 2475.55,2239.75 2475.85,2238.9 L2477.5,2234.5 L2490.75,2234.5 L2493.45,2241.2 C2493.75,2242 2493.85,2242.3 2493.85,2242.55 C2493.85,2243.35 2492.6,2243.85 2490.75,2243.85 L2488.65,2243.85 L2488.65,2246.2 L2504.15,2246.2 L2504.15,2243.85 L2503.45,2243.85 C2500.85,2243.8 2500.4,2243.5 2499.25,2240.65 L2486.5,2209.4 M2484.05,2217.6 L2489.7,2231.8 L2478.5,2231.8 L2484.05,2217.6 "/>
<path class="Harmony" d="M2509.1,2223.1 L2511.3,2223.45 L2512.2,2219.5 C2512.95,2216.2 2513.3,2215.7 2514.75,2215.7 C2515,2215.7 2515.4,2215.7 2515.85,2215.75 C2522,2216.05 2522,2216.05 2524.3,2216.05 C2524.95,2216.05 2526.1,2216.05 2527.5,2216 L2524.1,2222.85 C2520.4,2230.2 2519.95,2231.1 2518.7,2234.2 C2517.15,2237.95 2516.35,2241.1 2516.35,2243.2 C2516.35,2245.5 2517.55,2246.9 2519.5,2246.9 C2521.9,2246.9 2522.85,2245.3 2522.8,2240.95 C2522.55,2233.75 2523.45,2230.25 2528.8,2218.55 C2529.7,2216.6 2530.65,2214.6 2531.55,2212.65 L2531.55,2211.2 C2528.55,2211.45 2526.95,2211.55 2523.85,2211.55 C2519.5,2211.55 2516.05,2211.4 2510.65,2211 L2509.1,2223.1 "/>
<path class="Harmony" d="M457.044,2209.75 L455.144,2209.75 L453.194,2212.75 C449.944,2210.2 447.744,2209.35 444.094,2209.35 C440.144,2209.35 437.044,2210.45 433.894,2213 C428.944,2217 426.644,2222.05 426.644,2228.8 C426.644,2233.9 428.094,2238.15 431.044,2241.4 C434.144,2244.9 438.744,2246.95 443.544,2246.95 C447.744,2246.95 450.694,2245.65 453.944,2242.4 L455.794,2246.9 L457.894,2246.9 L457.894,2235.9 C457.894,2233.35 457.894,2233.25 458.194,2232.8 C458.644,2232.25 459.544,2232.1 462.394,2232.1 L463.144,2232.1 L463.144,2229.75 L447.244,2229.75 L447.244,2232.1 L448.194,2232.1 C452.394,2232.1 452.744,2232.35 452.744,2235.15 C452.744,2237.3 452.394,2239.25 451.744,2240.45 C450.494,2242.9 447.294,2244.6 444.044,2244.6 C440.794,2244.6 437.594,2242.95 435.894,2240.45 C434.044,2237.65 433.244,2234.15 433.244,2228.8 C433.244,2217.65 436.944,2211.7 443.894,2211.7 C449.594,2211.7 453.544,2215.8 455.594,2223.8 L457.744,2223.8 L457.044,2209.75 "/>
<path class="Harmony" d="M2261.77,2246.2 L2278.57,2246.2 C2283.02,2246.2 2286.42,2245.5 2289.07,2244 C2294.12,2241.15 2296.92,2235.45 2296.92,2227.95 C2296.92,2221.05 2294.42,2215.65 2289.82,2212.65 C2287.07,2210.9 2283.37,2210.1 2277.67,2210.1 L2261.77,2210.1 L2261.77,2212.45 L2262.72,2212.45 C2265.52,2212.5 2266.47,2212.65 2266.87,2213.15 C2267.17,2213.6 2267.17,2213.7 2267.17,2216.25 L2267.17,2240.05 C2267.17,2242.6 2267.17,2242.7 2266.87,2243.15 C2266.47,2243.65 2265.52,2243.8 2262.72,2243.85 L2261.77,2243.85 L2261.77,2246.2 M2275.62,2243.85 C2273.07,2243.85 2272.77,2243.55 2272.77,2241.1 L2272.77,2215.25 C2272.77,2212.8 2273.12,2212.45 2275.62,2212.45 L2278.22,2212.45 C2286.77,2212.45 2290.32,2217.1 2290.32,2228.15 C2290.32,2239.35 2287.12,2243.85 2279.02,2243.85 L2275.62,2243.85 "/>
<path class="Harmony" d="M2197.47,572.198 L2214.27,572.198 C2218.72,572.198 2222.12,571.498 2224.77,569.998 C2229.82,567.148 2232.62,561.448 2232.62,553.948 C2232.62,547.048 2230.12,541.648 2225.52,538.648 C2222.77,536.898 2219.07,536.098 2213.37,536.098 L2197.47,536.098 L2197.47,538.448 L2198.42,538.448 C2201.22,538.498 2202.17,538.648 2202.57,539.148 C2202.87,539.598 2202.87,539.698 2202.87,542.248 L2202.87,566.048 C2202.87,568.598 2202.87,568.698 2202.57,569.148 C2202.17,569.648 2201.22,569.798 2198.42,569.848 L2197.47,569.848 L2197.47,572.198 M2211.32,569.848 C2208.77,569.848 2208.47,569.548 2208.47,567.098 L2208.47,541.248 C2208.47,538.798 2208.82,538.448 2211.32,538.448 L2213.92,538.448 C2222.47,538.448 2226.02,543.098 2226.02,554.148 C2226.02,565.348 2222.82,569.848 2214.72,569.848 L2211.32,569.848 "/>
<path class="Harmony" d="M2495.02,1688.2 L2511.82,1688.2 C2516.27,1688.2 2519.67,1687.5 2522.32,1686 C2527.37,1683.15 2530.17,1677.45 2530.17,1669.95 C2530.17,1663.05 2527.67,1657.65 2523.07,1654.65 C2520.32,1652.9 2516.62,1652.1 2510.92,1652.1 L2495.02,1652.1 L2495.02,1654.45 L2495.97,1654.45 C2498.77,1654.5 2499.72,1654.65 2500.12,1655.15 C2500.42,1655.6 2500.42,1655.7 2500.42,1658.25 L2500.42,1682.05 C2500.42,1684.6 2500.42,1684.7 2500.12,1685.15 C2499.72,1685.65 2498.77,1685.8 2495.97,1685.85 L2495.02,1685.85 L2495.02,1688.2 M2508.87,1685.85 C2506.32,1685.85 2506.02,1685.55 2506.02,1683.1 L2506.02,1657.25 C2506.02,1654.8 2506.37,1654.45 2508.87,1654.45 L2511.47,1654.45 C2520.02,1654.45 2523.57,1659.1 2523.57,1670.15 C2523.57,1681.35 2520.37,1685.85 2512.27,1685.85 L2508.87,1685.85 "/>
<path class="Harmony" d="M1272.46,2246.2 L1289.26,2246.2 C1293.71,2246.2 1297.11,2245.5 1299.76,2244 C1304.81,2241.15 1307.61,2235.45 1307.61,2227.95 C1307.61,2221.05 1305.11,2215.65 1300.51,2212.65 C1297.76,2210.9 1294.06,2210.1 1288.36,2210.1 L1272.46,2210.1 L1272.46,2212.45 L1273.41,2212.45 C1276.21,2212.5 1277.16,2212.65 1277.56,2213.15 C1277.86,2213.6 1277.86,2213.7 1277.86,2216.25 L1277.86,2240.05 C1277.86,2242.6 1277.86,2242.7 1277.56,2243.15 C1277.16,2243.65 1276.21,2243.8 1273.41,2243.85 L1272.46,2243.85 L1272.46,2246.2 M1286.31,2243.85 C1283.76,2243.85 1283.46,2243.55 1283.46,2241.1 L1283.46,2215.25 C1283.46,2212.8 1283.81,2212.45 1286.31,2212.45 L1288.91,2212.45 C1297.46,2212.45 1301.01,2217.1 1301.01,2228.15 C1301.01,2239.35 1297.81,2243.85 1289.71,2243.85 L1286.31,2243.85 "/>
<path class="Harmony" d="M1058.58,572.198 L1075.38,572.198 C1079.83,572.198 1083.23,571.498 1085.88,569.998 C1090.93,567.148 1093.73,561.448 1093.73,553.948 C1093.73,547.048 1091.23,541.648 1086.63,538.648 C1083.88,536.898 1080.18,536.098 1074.48,536.098 L1058.58,536.098 L1058.58,538.448 L1059.53,538.448 C1062.33,538.498 1063.28,538.648 1063.68,539.148 C1063.98,539.598 1063.98,539.698 1063.98,542.248 L1063.98,566.048 C1063.98,568.598 1063.98,568.698 1063.68,569.148 C1063.28,569.648 1062.33,569.798 1059.53,569.848 L1058.58,569.848 L1058.58,572.198 M1072.43,569.848 C1069.88,569.848 1069.58,569.548 1069.58,567.098 L1069.58,541.248 C1069.58,538.798 1069.93,538.448 1072.43,538.448 L1075.03,538.448 C1083.58,538.448 1087.13,543.098 1087.13,554.148 C1087.13,565.348 1083.93,569.848 1075.83,569.848 L1072.43,569.848 "/>
<path class="Harmony" d="M445.929,1651.4 L443.829,1651.4 L432.329,1680.55 C430.979,1684.45 429.679,1685.65 426.829,1685.85 L426.629,1685.85 L426.629,1688.2 L439.879,1688.2 L439.879,1685.85 L438.879,1685.85 C436.179,1685.85 434.829,1684.9 434.829,1683 C434.829,1682.35 434.979,1681.75 435.279,1680.9 L436.929,1676.5 L450.179,1676.5 L452.879,1683.2 C453.179,1684 453.279,1684.3 453.279,1684.55 C453.279,1685.35 452.029,1685.85 450.179,1685.85 L448.079,1685.85 L448.079,1688.2 L463.579,1688.2 L463.579,1685.85 L462.879,1685.85 C460.279,1685.8 459.829,1685.5 458.679,1682.65 L445.929,1651.4 M443.479,1659.6 L449.129,1673.8 L437.929,1673.8 L443.479,1659.6 "/>
<path class="Harmony" d="M2229.89,1688.2 L2246.69,1688.2 C2251.14,1688.2 2254.54,1687.5 2257.19,1686 C2262.24,1683.15 2265.04,1677.45 2265.04,1669.95 C2265.04,1663.05 2262.54,1657.65 2257.94,1654.65 C2255.19,1652.9 2251.49,1652.1 2245.79,1652.1 L2229.89,1652.1 L2229.89,1654.45 L2230.84,1654.45 C2233.64,1654.5 2234.59,1654.65 2234.99,1655.15 C2235.29,1655.6 2235.29,1655.7 2235.29,1658.25 L2235.29,1682.05 C2235.29,1684.6 2235.29,1684.7 2234.99,1685.15 C2234.59,1685.65 2233.64,1685.8 2230.84,1685.85 L2229.89,1685.85 L2229.89,1688.2 M2243.74,1685.85 C2241.19,1685.85 2240.89,1685.55 2240.89,1683.1 L2240.89,1657.25 C2240.89,1654.8 2241.24,1654.45 2243.74,1654.45 L2246.34,1654.45 C2254.89,1654.45 2258.44,1659.1 2258.44,1670.15 C2258.44,1681.35 2255.24,1685.85 2247.14,1685.85 L2243.74,1685.85 "/>
<path class="Harmony" d="M2561.14,535.398 L2559.04,535.398 L2547.54,564.548 C2546.19,568.448 2544.89,569.648 2542.04,569.848 L2541.84,569.848 L2541.84,572.198 L2555.09,572.198 L2555.09,569.848 L2554.09,569.848 C2551.39,569.848 2550.04,568.898 2550.04,566.998 C2550.04,566.348 2550.19,565.748 2550.49,564.898 L2552.14,560.498 L2565.39,560.498 L2568.09,567.198 C2568.39,567.998 2568.49,568.298 2568.49,568.548 C2568.49,569.348 2567.24,569.848 2565.39,569.848 L2563.29,569.848 L2563.29,572.198 L2578.79,572.198 L2578.79,569.848 L2578.09,569.848 C2575.49,569.798 2575.04,569.498 2573.89,566.648 L2561.14,535.398 M2558.69,543.598 L2564.34,557.798 L2553.14,557.798 L2558.69,543.598 "/>
<path class="Harmony" d="M1858.02,1093.4 L1855.92,1093.4 L1844.42,1122.55 C1843.07,1126.45 1841.77,1127.65 1838.92,1127.85 L1838.72,1127.85 L1838.72,1130.2 L1851.97,1130.2 L1851.97,1127.85 L1850.97,1127.85 C1848.27,1127.85 1846.92,1126.9 1846.92,1125 C1846.92,1124.35 1847.07,1123.75 1847.37,1122.9 L1849.02,1118.5 L1862.27,1118.5 L1864.97,1125.2 C1865.27,1126 1865.37,1126.3 1865.37,1126.55 C1865.37,1127.35 1864.12,1127.85 1862.27,1127.85 L1860.17,1127.85 L1860.17,1130.2 L1875.67,1130.2 L1875.67,1127.85 L1874.97,1127.85 C1872.37,1127.8 1871.92,1127.5 1870.77,1124.65 L1858.02,1093.4 M1855.57,1101.6 L1861.22,1115.8 L1850.02,1115.8 L1855.57,1101.6 "/>
<path class="Harmony" d="M698.006,535.398 L695.906,535.398 L684.406,564.548 C683.056,568.448 681.756,569.648 678.906,569.848 L678.706,569.848 L678.706,572.198 L691.956,572.198 L691.956,569.848 L690.956,569.848 C688.256,569.848 686.906,568.898 686.906,566.998 C686.906,566.348 687.056,565.748 687.356,564.898 L689.006,560.498 L702.256,560.498 L704.956,567.198 C705.256,567.998 705.356,568.298 705.356,568.548 C705.356,569.348 704.106,569.848 702.256,569.848 L700.156,569.848 L700.156,572.198 L715.656,572.198 L715.656,569.848 L714.956,569.848 C712.356,569.798 711.906,569.498 710.756,566.648 L698.006,535.398 M695.556,543.598 L701.206,557.798 L690.006,557.798 L695.556,543.598 "/>
<path class="Harmony" d="M711.06,1651.4 L708.96,1651.4 L697.46,1680.55 C696.11,1684.45 694.81,1685.65 691.96,1685.85 L691.76,1685.85 L691.76,1688.2 L705.01,1688.2 L705.01,1685.85 L704.01,1685.85 C701.31,1685.85 699.96,1684.9 699.96,1683 C699.96,1682.35 700.11,1681.75 700.41,1680.9 L702.06,1676.5 L715.31,1676.5 L718.01,1683.2 C718.31,1684 718.41,1684.3 718.41,1684.55 C718.41,1685.35 717.16,1685.85 715.31,1685.85 L713.21,1685.85 L713.21,1688.2 L728.71,1688.2 L728.71,1685.85 L728.01,1685.85 C725.41,1685.8 724.96,1685.5 723.81,1682.65 L711.06,1651.4 M708.61,1659.6 L714.26,1673.8 L703.06,1673.8 L708.61,1659.6 "/>
<path class="Harmony" d="M1895.54,1651.4 L1893.44,1651.4 L1881.94,1680.55 C1880.59,1684.45 1879.29,1685.65 1876.44,1685.85 L1876.24,1685.85 L1876.24,1688.2 L1889.49,1688.2 L1889.49,1685.85 L1888.49,1685.85 C1885.79,1685.85 1884.44,1684.9 1884.44,1683 C1884.44,1682.35 1884.59,1681.75 1884.89,1680.9 L1886.54,1676.5 L1899.79,1676.5 L1902.49,1683.2 C1902.79,1684 1902.89,1684.3 1902.89,1684.55 C1902.89,1685.35 1901.64,1685.85 1899.79,1685.85 L1897.69,1685.85 L1897.69,1688.2 L1913.19,1688.2 L1913.19,1685.85 L1912.49,1685.85 C1909.89,1685.8 1909.44,1685.5 1908.29,1682.65 L1895.54,1651.4 M1893.09,1659.6 L1898.74,1673.8 L1887.54,1673.8 L1893.09,1659.6 "/>
<path class="Harmony" d="M1578.03,2246.2 L1594.83,2246.2 C1599.28,2246.2 1602.68,2245.5 1605.33,2244 C1610.38,2241.15 1613.18,2235.45 1613.18,2227.95 C1613.18,2221.05 1610.68,2215.65 1606.08,2212.65 C1603.33,2210.9 1599.63,2210.1 1593.93,2210.1 L1578.03,2210.1 L1578.03,2212.45 L1578.98,2212.45 C1581.78,2212.5 1582.73,2212.65 1583.13,2213.15 C1583.43,2213.6 1583.43,2213.7 1583.43,2216.25 L1583.43,2240.05 C1583.43,2242.6 1583.43,2242.7 1583.13,2243.15 C1582.73,2243.65 1581.78,2243.8 1578.98,2243.85 L1578.03,2243.85 L1578.03,2246.2 M1591.88,2243.85 C1589.33,2243.85 1589.03,2243.55 1589.03,2241.1 L1589.03,2215.25 C1589.03,2212.8 1589.38,2212.45 1591.88,2212.45 L1594.48,2212.45 C1603.03,2212.45 1606.58,2217.1 1606.58,2228.15 C1606.58,2239.35 1603.38,2243.85 1595.28,2243.85 L1591.88,2243.85 "/>
<path class="Harmony" d="M426.65,1130.2 L443.45,1130.2 C447.9,1130.2 451.3,1129.5 453.95,1128 C459,1125.15 461.8,1119.45 461.8,1111.95 C461.8,1105.05 459.3,1099.65 454.7,1096.65 C451.95,1094.9 448.25,1094.1 442.55,1094.1 L426.65,1094.1 L426.65,1096.45 L427.6,1096.45 C430.4,1096.5 431.35,1096.65 431.75,1097.15 C432.05,1097.6 432.05,1097.7 432.05,1100.25 L432.05,1124.05 C432.05,1126.6 432.05,1126.7 431.75,1127.15 C431.35,1127.65 430.4,1127.8 427.6,1127.85 L426.65,1127.85 L426.65,1130.2 M440.5,1127.85 C437.95,1127.85 437.65,1127.55 437.65,1125.1 L437.65,1099.25 C437.65,1096.8 438,1096.45 440.5,1096.45 L443.1,1096.45 C451.65,1096.45 455.2,1101.1 455.2,1112.15 C455.2,1123.35 452,1127.85 443.9,1127.85 L440.5,1127.85 "/>
<path class="Harmony" d="M1630.41,1651.4 L1628.31,1651.4 L1616.81,1680.55 C1615.46,1684.45 1614.16,1685.65 1611.31,1685.85 L1611.11,1685.85 L1611.11,1688.2 L1624.36,1688.2 L1624.36,1685.85 L1623.36,1685.85 C1620.66,1685.85 1619.31,1684.9 1619.31,1683 C1619.31,1682.35 1619.46,1681.75 1619.76,1680.9 L1621.41,1676.5 L1634.66,1676.5 L1637.36,1683.2 C1637.66,1684 1637.76,1684.3 1637.76,1684.55 C1637.76,1685.35 1636.51,1685.85 1634.66,1685.85 L1632.56,1685.85 L1632.56,1688.2 L1648.06,1688.2 L1648.06,1685.85 L1647.36,1685.85 C1644.76,1685.8 1644.31,1685.5 1643.16,1682.65 L1630.41,1651.4 M1627.96,1659.6 L1633.61,1673.8 L1622.41,1673.8 L1627.96,1659.6 "/>
<path class="Harmony" d="M673.536,1093.4 L671.436,1093.4 L659.936,1122.55 C658.586,1126.45 657.286,1127.65 654.436,1127.85 L654.236,1127.85 L654.236,1130.2 L667.486,1130.2 L667.486,1127.85 L666.486,1127.85 C663.786,1127.85 662.436,1126.9 662.436,1125 C662.436,1124.35 662.586,1123.75 662.886,1122.9 L664.536,1118.5 L677.786,1118.5 L680.486,1125.2 C680.786,1126 680.886,1126.3 680.886,1126.55 C680.886,1127.35 679.636,1127.85 677.786,1127.85 L675.686,1127.85 L675.686,1130.2 L691.186,1130.2 L691.186,1127.85 L690.486,1127.85 C687.886,1127.8 687.436,1127.5 686.286,1124.65 L673.536,1093.4 M671.086,1101.6 L676.736,1115.8 L665.536,1115.8 L671.086,1101.6 "/>
<path class="Harmony" d="M1048.82,1130.2 L1065.62,1130.2 C1070.07,1130.2 1073.47,1129.5 1076.12,1128 C1081.17,1125.15 1083.97,1119.45 1083.97,1111.95 C1083.97,1105.05 1081.47,1099.65 1076.87,1096.65 C1074.12,1094.9 1070.42,1094.1 1064.72,1094.1 L1048.82,1094.1 L1048.82,1096.45 L1049.77,1096.45 C1052.57,1096.5 1053.52,1096.65 1053.92,1097.15 C1054.22,1097.6 1054.22,1097.7 1054.22,1100.25 L1054.22,1124.05 C1054.22,1126.6 1054.22,1126.7 1053.92,1127.15 C1053.52,1127.65 1052.57,1127.8 1049.77,1127.85 L1048.82,1127.85 L1048.82,1130.2 M1062.67,1127.85 C1060.12,1127.85 1059.82,1127.55 1059.82,1125.1 L1059.82,1099.25 C1059.82,1096.8 1060.17,1096.45 1062.67,1096.45 L1065.27,1096.45 C1073.82,1096.45 1077.37,1101.1 1077.37,1112.15 C1077.37,1123.35 1074.17,1127.85 1066.07,1127.85 L1062.67,1127.85 "/>
<path class="Harmony" d="M1310.54,1688.2 L1327.34,1688.2 C1331.79,1688.2 1335.19,1687.5 1337.84,1686 C1342.89,1683.15 1345.69,1677.45 1345.69,1669.95 C1345.69,1663.05 1343.19,1657.65 1338.59,1654.65 C1335.84,1652.9 1332.14,1652.1 1326.44,1652.1 L1310.54,1652.1 L1310.54,1654.45 L1311.49,1654.45 C1314.29,1654.5 1315.24,1654.65 1315.64,1655.15 C1315.94,1655.6 1315.94,1655.7 1315.94,1658.25 L1315.94,1682.05 C1315.94,1684.6 1315.94,1684.7 1315.64,1685.15 C1315.24,1685.65 1314.29,1685.8 1311.49,1685.85 L1310.54,1685.85 L1310.54,1688.2 M1324.39,1685.85 C1321.84,1685.85 1321.54,1685.55 1321.54,1683.1 L1321.54,1657.25 C1321.54,1654.8 1321.89,1654.45 1324.39,1654.45 L1326.99,1654.45 C1335.54,1654.45 1339.09,1659.1 1339.09,1670.15 C1339.09,1681.35 1335.89,1685.85 1327.79,1685.85 L1324.39,1685.85 "/>
<path class="Harmony" d="M1611.13,1130.2 L1627.93,1130.2 C1632.38,1130.2 1635.78,1129.5 1638.43,1128 C1643.48,1125.15 1646.28,1119.45 1646.28,1111.95 C1646.28,1105.05 1643.78,1099.65 1639.18,1096.65 C1636.43,1094.9 1632.73,1094.1 1627.03,1094.1 L1611.13,1094.1 L1611.13,1096.45 L1612.08,1096.45 C1614.88,1096.5 1615.83,1096.65 1616.23,1097.15 C1616.53,1097.6 1616.53,1097.7 1616.53,1100.25 L1616.53,1124.05 C1616.53,1126.6 1616.53,1126.7 1616.23,1127.15 C1615.83,1127.65 1614.88,1127.8 1612.08,1127.85 L1611.13,1127.85 L1611.13,1130.2 M1624.98,1127.85 C1622.43,1127.85 1622.13,1127.55 1622.13,1125.1 L1622.13,1099.25 C1622.13,1096.8 1622.48,1096.45 1624.98,1096.45 L1627.58,1096.45 C1636.13,1096.45 1639.68,1101.1 1639.68,1112.15 C1639.68,1123.35 1636.48,1127.85 1628.38,1127.85 L1624.98,1127.85 "/>
<path class="Harmony" d="M1045.4,1688.2 L1062.2,1688.2 C1066.65,1688.2 1070.05,1687.5 1072.7,1686 C1077.75,1683.15 1080.55,1677.45 1080.55,1669.95 C1080.55,1663.05 1078.05,1657.65 1073.45,1654.65 C1070.7,1652.9 1067,1652.1 1061.3,1652.1 L1045.4,1652.1 L1045.4,1654.45 L1046.35,1654.45 C1049.15,1654.5 1050.1,1654.65 1050.5,1655.15 C1050.8,1655.6 1050.8,1655.7 1050.8,1658.25 L1050.8,1682.05 C1050.8,1684.6 1050.8,1684.7 1050.5,1685.15 C1050.1,1685.65 1049.15,1685.8 1046.35,1685.85 L1045.4,1685.85 L1045.4,1688.2 M1059.25,1685.85 C1056.7,1685.85 1056.4,1685.55 1056.4,1683.1 L1056.4,1657.25 C1056.4,1654.8 1056.75,1654.45 1059.25,1654.45 L1061.85,1654.45 C1070.4,1654.45 1073.95,1659.1 1073.95,1670.15 C1073.95,1681.35 1070.75,1685.85 1062.65,1685.85 L1059.25,1685.85 "/>
<path class="Harmony" d="M1902.17,2246.2 L1918.97,2246.2 C1923.42,2246.2 1926.82,2245.5 1929.47,2244 C1934.52,2241.15 1937.32,2235.45 1937.32,2227.95 C1937.32,2221.05 1934.82,2215.65 1930.22,2212.65 C1927.47,2210.9 1923.77,2210.1 1918.07,2210.1 L1902.17,2210.1 L1902.17,2212.45 L1903.12,2212.45 C1905.92,2212.5 1906.87,2212.65 1907.27,2213.15 C1907.57,2213.6 1907.57,2213.7 1907.57,2216.25 L1907.57,2240.05 C1907.57,2242.6 1907.57,2242.7 1907.27,2243.15 C1906.87,2243.65 1905.92,2243.8 1903.12,2243.85 L1902.17,2243.85 L1902.17,2246.2 M1916.02,2243.85 C1913.47,2243.85 1913.17,2243.55 1913.17,2241.1 L1913.17,2215.25 C1913.17,2212.8 1913.52,2212.45 1916.02,2212.45 L1918.62,2212.45 C1927.17,2212.45 1930.72,2217.1 1930.72,2228.15 C1930.72,2239.35 1927.52,2243.85 1919.42,2243.85 L1916.02,2243.85 "/>
<path class="Harmony" d="M460.44,572.198 L477.24,572.198 C481.69,572.198 485.09,571.498 487.74,569.998 C492.79,567.148 495.59,561.448 495.59,553.948 C495.59,547.048 493.09,541.648 488.49,538.648 C485.74,536.898 482.04,536.098 476.34,536.098 L460.44,536.098 L460.44,538.448 L461.39,538.448 C464.19,538.498 465.14,538.648 465.54,539.148 C465.84,539.598 465.84,539.698 465.84,542.248 L465.84,566.048 C465.84,568.598 465.84,568.698 465.54,569.148 C465.14,569.648 464.19,569.798 461.39,569.848 L460.44,569.848 L460.44,572.198 M474.29,569.848 C471.74,569.848 471.44,569.548 471.44,567.098 L471.44,541.248 C471.44,538.798 471.79,538.448 474.29,538.448 L476.89,538.448 C485.44,538.448 488.99,543.098 488.99,554.148 C488.99,565.348 485.79,569.848 477.69,569.848 L474.29,569.848 "/>
<path class="Harmony" d="M1599.33,572.198 L1616.13,572.198 C1620.58,572.198 1623.98,571.498 1626.63,569.998 C1631.68,567.148 1634.48,561.448 1634.48,553.948 C1634.48,547.048 1631.98,541.648 1627.38,538.648 C1624.63,536.898 1620.93,536.098 1615.23,536.098 L1599.33,536.098 L1599.33,538.448 L1600.28,538.448 C1603.08,538.498 1604.03,538.648 1604.43,539.148 C1604.73,539.598 1604.73,539.698 1604.73,542.248 L1604.73,566.048 C1604.73,568.598 1604.73,568.698 1604.43,569.148 C1604.03,569.648 1603.08,569.798 1600.28,569.848 L1599.33,569.848 L1599.33,572.198 M1613.18,569.848 C1610.63,569.848 1610.33,569.548 1610.33,567.098 L1610.33,541.248 C1610.33,538.798 1610.68,538.448 1613.18,538.448 L1615.78,538.448 C1624.33,538.448 1627.88,543.098 1627.88,554.148 C1627.88,565.348 1624.68,569.848 1616.58,569.848 L1613.18,569.848 "/>
<path class="NoteDot" transform="matrix(0.992,0,0,0.992,505.052,720.998)" d="M0,0 C0,2.8 2.2,5 5,5 C7.8,5 10,2.8 10,0 C10,-2.8 7.8,-5 5,-5 C2.2,-5 0,-2.8 0,0"/>
<path class="NoteDot" transform="matrix(0.992,0,0,0.992,1655.74,1279)" d="M0,0 C0,2.8 2.2,5 5,5 C7.8,5 10,2.8 10,0 C10,-2.8 7.8,-5 5,-5 C2.2,-5 0,-2.8 0,0"/>
<path class="NoteDot" transform="matrix(0.992,0,0,0.992,1392.67,1204.6)" d="M0,0 C0,2.8 2.2,5 5,5 C7.8,5 10,2.8 10,0 C10,-2.8 7.8,-5 5,-5 C2.2,-5 0,-2.8 0,0"/>
<path class="NoteDot" transform="matrix(0.992,0,0,0.992,471.262,1279)" d="M0,0 C0,2.8 2.2,5 5,5 C7.8,5 10,2.8 10,0 C10,-2.8 7.8,-5 5,-5 C2.2,-5 0,-2.8 0,0"/>
<path class="NoteDot" transform="matrix(0.992,0,0,0.992,2586.47,720.998)" d="M0,0 C0,2.8 2.2,5 5,5 C7.8,5 10,2.8 10,0 C10,-2.8 7.8,-5 5,-5 C2.2,-5 0,-2.8 0,0"/>
<path class="NoteDot" transform="matrix(0.992,0,0,0.992,2306.38,2395)" d="M0,0 C0,2.8 2.2,5 5,5 C7.8,5 10,2.8 10,0 C10,-2.8 7.8,-5 5,-5 C2.2,-5 0,-2.8 0,0"/>
<path class="NoteDot" transform="matrix(0.992,0,0,0.992,2277.91,1303.8)" d="M0,0 C0,2.8 2.2,5 5,5 C7.8,5 10,2.8 10,0 C10,-2.8 7.8,-5 5,-5 C2.2,-5 0,-2.8 0,0"/>
<path class="NoteDot" transform="matrix(0.992,0,0,0.992,1390.19,646.598)" d="M0,0 C0,2.8 2.2,5 5,5 C7.8,5 10,2.8 10,0 C10,-2.8 7.8,-5 5,-5 C2.2,-5 0,-2.8 0,0"/>
<path class="NoteDot" transform="matrix(0.992,0,0,0.992,1643.94,745.798)" d="M0,0 C0,2.8 2.2,5 5,5 C7.8,5 10,2.8 10,0 C10,-2.8 7.8,-5 5,-5 C2.2,-5 0,-2.8 0,0"/>
</svg>
