<?xml version="1.0" encoding="UTF-8" standalone="no"?>
<svg width="2977.2px" height="4208.4px" viewBox="0 0 2977.2 4208.4"
 xmlns="http://www.w3.org/2000/svg" xmlns:xlink="http://www.w3.org/1999/xlink" version="1.2" baseProfile="tiny">
<title>聖夜</title>
<desc>Generated by MuseScore Studio 4.4.3</desc>
<path class="" fill="#ffffff" fill-rule="evenodd" d="M0,0 L2977.2,0 L2977.2,4208.4 L0,4208.4 L0,0 "/>
<polyline class="StaffLines" fill="none" stroke="#000000" stroke-width="2.73" stroke-linejoin="bevel" points="212.598,634.198 2764.6,634.198"/>
<polyline class="StaffLines" fill="none" stroke="#000000" stroke-width="2.73" stroke-linejoin="bevel" points="212.598,658.998 2764.6,658.998"/>
<polyline class="StaffLines" fill="none" stroke="#000000" stroke-width="2.73" stroke-linejoin="bevel" points="212.598,683.798 2764.6,683.798"/>
<polyline class="StaffLines" fill="none" stroke="#000000" stroke-width="2.73" stroke-linejoin="bevel" points="212.598,708.598 2764.6,708.598"/>
<polyline class="StaffLines" fill="none" stroke="#000000" stroke-width="2.73" stroke-linejoin="bevel" points="212.598,733.398 2764.6,733.398"/>
<polyline class="StaffLines" fill="none" stroke="#000000" stroke-width="2.73" stroke-linejoin="bevel" points="212.598,1105.4 2764.6,1105.4"/>
<polyline class="StaffLines" fill="none" stroke="#000000" stroke-width="2.73" stroke-linejoin="bevel" points="212.598,1130.2 2764.6,1130.2"/>
<polyline class="StaffLines" fill="none" stroke="#000000" stroke-width="2.73" stroke-linejoin="bevel" points="212.598,1155 2764.6,1155"/>
<polyline class="StaffLines" fill="none" stroke="#000000" stroke-width="2.73" stroke-linejoin="bevel" points="212.598,1179.8 2764.6,1179.8"/>
<polyline class="StaffLines" fill="none" stroke="#000000" stroke-width="2.73" stroke-linejoin="bevel" points="212.598,1204.6 2764.6,1204.6"/>
<polyline class="StaffLines" fill="none" stroke="#000000" stroke-width="2.73" stroke-linejoin="bevel" points="212.598,1576.6 2764.6,1576.6"/>
<polyline class="StaffLines" fill="none" stroke="#000000" stroke-width="2.73" stroke-linejoin="bevel" points="212.598,1601.4 2764.6,1601.4"/>
<polyline class="StaffLines" fill="none" stroke="#000000" stroke-width="2.73" stroke-linejoin="bevel" points="212.598,1626.2 2764.6,1626.2"/>
<polyline class="StaffLines" fill="none" stroke="#000000" stroke-width="2.73" stroke-linejoin="bevel" points="212.598,1651 2764.6,1651"/>
<polyline class="StaffLines" fill="none" stroke="#000000" stroke-width="2.73" stroke-linejoin="bevel" points="212.598,1675.8 2764.6,1675.8"/>
<path class="Text" d="M1220.33,372.411 C1221.77,372.251 1221.93,372.251 1225.29,372.171 C1234.33,372.011 1240.73,371.611 1246.89,370.731 C1248.89,375.051 1249.37,375.931 1251.45,379.851 C1244.89,381.051 1234.57,381.851 1226.25,381.851 C1223.05,381.851 1221.61,381.771 1219.85,381.611 L1220.01,386.891 C1221.45,386.731 1221.77,386.731 1225.61,386.571 C1240.57,386.091 1245.77,385.691 1253.69,384.251 C1256.49,389.131 1259.77,393.931 1262.25,396.571 C1256.97,394.891 1252.73,394.251 1246.09,394.251 C1230.89,394.251 1221.69,399.451 1221.69,408.091 C1221.69,412.251 1223.85,415.851 1227.69,418.011 C1231.77,420.331 1236.81,421.371 1244.17,421.371 C1251.29,421.371 1258.09,420.411 1264.65,418.411 C1268.33,417.291 1268.33,417.291 1269.45,417.051 L1268.33,410.811 C1263.53,413.771 1252.97,416.171 1244.65,416.171 C1233.69,416.171 1227.61,413.291 1227.61,408.011 C1227.61,402.491 1235.05,398.891 1246.57,398.891 C1250.17,398.891 1254.25,399.211 1257.05,399.611 C1260.97,400.251 1262.81,400.891 1265.85,402.651 L1270.57,399.291 C1264.41,392.091 1263.53,390.971 1258.81,383.371 C1261.77,382.811 1265.77,381.931 1271.37,380.491 C1274.01,379.771 1274.33,379.771 1275.69,379.451 L1275.05,374.091 C1271.77,375.691 1267.29,376.891 1256.73,379.051 C1255.53,376.891 1253.37,372.651 1252.17,370.011 C1256.65,369.291 1265.21,367.451 1272.33,365.531 L1271.85,360.331 C1267.37,362.251 1259.85,364.091 1250.49,365.611 C1248.49,361.371 1246.97,357.211 1246.25,354.331 L1240.25,355.371 C1240.97,356.491 1242.57,360.171 1245.05,366.331 C1237.69,367.131 1232.81,367.451 1226.09,367.451 C1223.37,367.451 1222.01,367.371 1220.09,367.211 L1220.33,372.411 M1323.77,354.491 C1324.09,356.411 1324.09,357.051 1324.17,360.971 C1324.25,372.411 1324.81,387.851 1325.45,397.051 C1325.45,397.291 1325.45,397.451 1325.45,397.531 C1325.53,397.851 1325.53,397.931 1325.53,398.251 C1325.29,398.091 1325.29,398.091 1325.13,398.091 C1324.81,398.091 1324.81,398.011 1324.41,397.931 C1322.73,397.531 1319.85,397.211 1317.45,397.211 C1306.09,397.211 1298.65,402.171 1298.65,409.851 C1298.65,417.211 1304.97,421.691 1315.29,421.691 C1321.93,421.691 1327.05,419.691 1329.53,416.171 C1330.81,414.411 1331.53,411.451 1331.53,408.091 C1331.53,407.051 1331.37,405.531 1331.21,404.651 C1331.93,405.051 1332.01,405.051 1333.13,405.531 C1335.85,406.731 1340.25,409.211 1343.93,411.691 C1348.25,414.571 1350.57,416.571 1352.25,418.651 L1356.01,413.051 C1354.01,411.851 1354.01,411.771 1352.33,410.571 C1344.01,404.571 1337.45,401.051 1330.97,399.211 C1330.57,394.091 1330.17,386.331 1329.93,378.571 C1336.57,378.411 1342.01,377.931 1349.21,376.811 C1352.65,376.331 1352.65,376.331 1354.01,376.251 L1353.29,370.331 C1348.89,372.091 1338.65,373.371 1329.85,373.371 C1329.69,367.691 1329.69,366.811 1329.69,365.051 C1329.69,358.811 1329.77,356.491 1330.17,354.491 L1323.77,354.491 M1325.61,403.371 C1325.69,403.371 1325.85,406.571 1325.85,407.771 C1325.85,410.811 1325.29,412.491 1323.93,413.771 C1322.01,415.451 1318.89,416.411 1315.05,416.411 C1310.81,416.411 1307.13,415.211 1305.45,413.211 C1304.73,412.411 1304.25,411.051 1304.25,409.771 C1304.25,405.131 1309.21,402.251 1317.37,402.251 C1320.49,402.251 1322.33,402.491 1325.61,403.371 M1386.49,356.571 C1386.73,358.171 1386.81,359.131 1386.81,360.811 C1386.81,362.091 1386.81,363.611 1386.73,366.011 C1386.09,391.211 1386.01,393.211 1386.01,398.571 C1386.01,406.971 1387.13,411.211 1390.41,414.971 C1393.61,418.651 1398.65,420.571 1405.45,420.571 C1414.81,420.571 1422.33,417.291 1428.01,410.571 C1431.53,406.491 1433.85,401.771 1436.89,392.411 C1434.33,391.131 1433.37,390.491 1431.13,388.571 C1430.01,394.171 1429.05,397.291 1427.21,401.131 C1422.65,410.251 1415.29,415.051 1405.77,415.051 C1401.61,415.051 1398.01,413.931 1395.77,411.931 C1393.37,409.771 1392.33,407.131 1392.01,402.331 C1391.93,400.491 1391.85,398.491 1391.85,397.531 C1391.85,393.931 1392.09,383.051 1392.41,373.451 C1392.65,363.371 1392.97,359.291 1393.45,356.571 L1386.49,356.571 M1466.73,367.131 C1467.77,367.131 1467.93,367.211 1469.37,367.371 C1474.57,368.011 1481.37,368.411 1486.97,368.411 C1491.53,368.411 1494.25,368.171 1499.05,367.371 C1498.25,367.851 1498.09,367.851 1497.53,368.171 C1496.57,368.651 1496.41,368.731 1495.53,369.211 C1491.93,371.211 1490.01,372.411 1484.89,375.851 L1488.97,379.131 C1496.81,373.451 1504.17,369.051 1509.13,366.971 L1508.73,361.691 C1504.33,362.811 1497.85,363.371 1488.49,363.371 C1479.37,363.371 1473.05,362.811 1467.21,361.451 L1466.73,367.131 M1471.53,387.611 C1465.37,392.811 1462.33,397.851 1462.33,403.051 C1462.33,408.571 1465.45,412.651 1471.45,415.131 C1475.37,416.651 1482.17,417.611 1489.85,417.611 C1496.89,417.611 1504.49,416.971 1511.45,415.771 C1512.81,415.531 1513.13,415.451 1514.17,415.371 L1513.45,408.811 C1508.97,410.651 1499.45,411.851 1489.45,411.851 C1483.13,411.851 1477.85,411.291 1474.81,410.251 C1470.33,408.731 1468.01,406.091 1468.01,402.411 C1468.01,398.651 1470.41,394.971 1475.61,390.651 L1471.53,387.611 M1572.25,365.931 C1576.25,366.091 1578.57,366.651 1581.53,367.931 C1589.61,371.531 1594.25,378.891 1594.25,388.011 C1594.25,397.851 1588.89,406.411 1580.09,410.411 C1576.33,412.171 1572.57,413.211 1566.73,414.171 C1568.25,416.091 1568.73,416.891 1569.53,419.531 C1575.05,418.331 1578.09,417.371 1581.69,415.851 C1593.29,410.891 1600.01,400.651 1600.01,388.251 C1600.01,380.571 1597.29,373.611 1592.25,368.731 C1587.05,363.611 1579.21,360.811 1570.25,360.811 C1559.53,360.811 1550.81,364.411 1544.41,371.451 C1539.05,377.451 1536.01,385.371 1536.01,393.531 C1536.01,404.731 1541.69,413.051 1549.29,413.051 C1555.05,413.051 1559.77,408.251 1564.41,397.691 C1568.01,389.291 1571.05,377.051 1572.25,365.931 M1566.49,366.011 C1565.45,376.251 1562.49,388.091 1559.21,395.611 C1555.77,403.451 1552.57,407.211 1549.21,407.211 C1544.89,407.211 1541.53,401.291 1541.53,393.611 C1541.53,383.691 1546.49,374.651 1554.57,369.771 C1558.25,367.531 1561.69,366.411 1566.49,366.011 M1643.77,354.491 C1644.09,356.411 1644.09,357.051 1644.17,360.971 C1644.25,372.411 1644.81,387.851 1645.45,397.051 C1645.45,397.291 1645.45,397.451 1645.45,397.531 C1645.53,397.851 1645.53,397.931 1645.53,398.251 C1645.29,398.091 1645.29,398.091 1645.13,398.091 C1644.81,398.091 1644.81,398.011 1644.41,397.931 C1642.73,397.531 1639.85,397.211 1637.45,397.211 C1626.09,397.211 1618.65,402.171 1618.65,409.851 C1618.65,417.211 1624.97,421.691 1635.29,421.691 C1641.93,421.691 1647.05,419.691 1649.53,416.171 C1650.81,414.411 1651.53,411.451 1651.53,408.091 C1651.53,407.051 1651.37,405.531 1651.21,404.651 C1651.93,405.051 1652.01,405.051 1653.13,405.531 C1655.85,406.731 1660.25,409.211 1663.93,411.691 C1668.25,414.571 1670.57,416.571 1672.25,418.651 L1676.01,413.051 C1674.01,411.851 1674.01,411.771 1672.33,410.571 C1664.01,404.571 1657.45,401.051 1650.97,399.211 C1650.57,394.091 1650.17,386.331 1649.93,378.571 C1656.57,378.411 1662.01,377.931 1669.21,376.811 C1672.65,376.331 1672.65,376.331 1674.01,376.251 L1673.29,370.331 C1668.89,372.091 1658.65,373.371 1649.85,373.371 C1649.69,367.691 1649.69,366.811 1649.69,365.051 C1649.69,358.811 1649.77,356.491 1650.17,354.491 L1643.77,354.491 M1645.61,403.371 C1645.69,403.371 1645.85,406.571 1645.85,407.771 C1645.85,410.811 1645.29,412.491 1643.93,413.771 C1642.01,415.451 1638.89,416.411 1635.05,416.411 C1630.81,416.411 1627.13,415.211 1625.45,413.211 C1624.73,412.411 1624.25,411.051 1624.25,409.771 C1624.25,405.131 1629.21,402.251 1637.37,402.251 C1640.49,402.251 1642.33,402.491 1645.61,403.371 M1704.8,365.371 C1706.56,365.131 1707.36,365.051 1709.12,364.971 C1721.28,364.571 1730.88,364.011 1733.44,363.531 C1733.92,363.451 1733.92,363.451 1734.16,363.451 L1734.32,363.611 L1734,363.931 C1733.84,364.091 1733.68,364.251 1733.68,364.251 C1733.04,364.891 1733.04,364.891 1732.56,365.371 C1727.04,370.811 1714.4,381.931 1705.84,388.731 C1700.4,393.131 1697.52,395.211 1694.64,396.891 L1698.24,402.011 C1707.52,393.451 1720.16,388.331 1731.92,388.331 C1742.72,388.331 1749.12,392.891 1749.12,400.571 C1749.12,407.371 1744.72,412.251 1736.32,414.571 C1735.2,411.051 1734.32,409.131 1732.64,406.891 C1729.44,402.651 1724.8,400.331 1719.44,400.331 C1712.8,400.331 1707.84,404.331 1707.84,409.691 C1707.84,417.051 1714.32,421.211 1725.6,421.211 C1743.36,421.211 1754.96,412.971 1754.96,400.491 C1754.96,390.251 1746.4,383.691 1733.04,383.691 C1726,383.691 1719.52,385.371 1713.44,388.651 L1713.28,388.411 C1718.88,384.811 1728.56,376.491 1739.6,365.691 C1742.16,363.211 1742.56,362.891 1743.68,362.331 L1740.32,357.931 C1739.28,358.491 1738.56,358.651 1736.48,358.811 C1729.28,359.371 1718.64,359.851 1712,359.851 C1708.16,359.851 1706.72,359.771 1704.48,359.371 L1704.8,365.371 M1731.04,416.011 C1728.16,416.491 1727.2,416.571 1725.2,416.571 C1721.76,416.571 1718.32,415.851 1716.24,414.731 C1714.08,413.451 1713.04,411.931 1713.04,409.851 C1713.04,406.811 1715.52,404.891 1719.52,404.891 C1725.28,404.891 1729.28,408.731 1731.04,416.011"/>
<path class="Text" d="M1393.24,223.041 L1393.24,259.011 C1386.86,259.561 1385.98,259.561 1384.55,259.561 C1384,259.561 1383.67,259.561 1382.9,259.451 L1383.78,266.051 C1385.1,265.721 1387.08,265.391 1390.16,265.171 C1399.73,264.181 1408.75,262.971 1424.04,260.661 C1423.93,263.741 1423.71,266.271 1423.38,268.251 L1430.97,268.251 C1430.53,265.391 1430.31,262.531 1430.31,257.691 L1430.31,223.041 C1433.28,223.151 1434.38,223.151 1436.8,223.591 L1436.8,216.881 C1434.05,217.321 1431.85,217.431 1427.23,217.431 L1393.13,217.431 C1388.51,217.431 1385.87,217.321 1383.23,216.881 L1383.23,223.591 C1385.98,223.151 1388.51,223.041 1392.25,223.041 L1393.24,223.041 M1399.62,223.041 L1424.04,223.041 L1424.04,230.961 L1399.62,230.961 L1399.62,223.041 M1399.62,236.131 L1424.04,236.131 L1424.04,243.941 L1399.62,243.941 L1399.62,236.131 M1399.62,249.111 L1424.04,249.111 L1424.04,255.271 C1416.34,256.591 1409.08,257.471 1399.62,258.461 L1399.62,249.111 M1427.67,277.381 L1427.67,286.401 L1406.33,286.401 C1401.38,286.401 1398.85,286.291 1395.77,285.961 L1395.77,292.451 C1398.96,292.121 1401.71,292.011 1406.33,292.011 L1427.67,292.011 L1427.67,302.241 L1395.44,302.241 C1390.71,302.241 1387.08,302.021 1383.45,301.581 L1383.45,308.841 C1386.97,308.401 1391.26,308.181 1395.99,308.181 L1467.82,308.181 C1472.55,308.181 1476.95,308.401 1480.47,308.841 L1480.47,301.581 C1476.73,302.021 1473.32,302.241 1468.37,302.241 L1434.49,302.241 L1434.49,292.011 L1458.14,292.011 C1462.76,292.011 1465.51,292.121 1468.7,292.451 L1468.7,285.961 C1465.62,286.291 1462.98,286.401 1458.14,286.401 L1434.49,286.401 L1434.49,277.381 L1463.2,277.381 C1468.15,277.381 1471.23,277.491 1474.31,277.821 L1474.31,271.111 C1471.45,271.551 1468.37,271.661 1463.2,271.661 L1401.05,271.661 C1395.66,271.661 1393.13,271.551 1390.05,271.111 L1390.05,277.821 C1393.13,277.491 1396.1,277.381 1401.05,277.381 L1427.67,277.381 M1439.88,253.731 C1439.88,257.801 1439.77,260.221 1439.44,263.301 C1442.3,262.971 1444.94,262.861 1448.68,262.861 L1467.82,262.861 C1471.78,262.861 1474.2,262.971 1477.06,263.301 C1476.73,260.441 1476.62,257.801 1476.62,253.401 L1476.62,230.081 C1476.62,225.901 1476.73,223.261 1477.06,220.291 C1474.2,220.621 1472,220.731 1467.82,220.731 L1448.68,220.731 C1444.5,220.731 1442.3,220.621 1439.44,220.291 C1439.77,223.371 1439.88,225.901 1439.88,229.861 L1439.88,253.731 M1446.48,226.671 L1469.8,226.671 L1469.8,256.921 L1446.48,256.921 L1446.48,226.671 M1544.71,258.681 C1550.65,262.971 1553.51,265.721 1558.24,271.441 L1562.86,266.931 C1557.36,260.991 1556.26,260.001 1548.89,254.721 L1544.71,258.681 M1579.58,243.721 C1577.49,244.161 1574.85,244.271 1569.57,244.271 L1546.58,244.271 C1547.35,242.621 1547.46,242.511 1547.57,242.291 C1550.21,236.901 1550.43,236.461 1551.31,235.031 L1544.05,232.831 C1543.28,236.241 1542.07,239.431 1539.65,244.051 C1533.71,255.931 1526.01,265.501 1516.33,273.421 C1518.64,275.291 1519.41,276.061 1521.17,278.591 C1526.12,273.971 1528.43,271.441 1532.61,266.161 C1537.12,274.961 1541.96,281.121 1549.66,288.381 C1540.97,295.971 1531.84,301.361 1519.19,306.421 C1521.83,309.611 1522.05,309.941 1523.37,312.801 C1536.79,306.641 1545.59,301.031 1554.83,292.891 C1565.94,302.131 1576.28,307.851 1590.25,312.911 C1591.35,310.051 1592.45,307.961 1594.32,305.431 C1582.33,302.241 1570.78,296.411 1559.78,288.161 C1569.57,278.041 1575.51,268.361 1581.23,253.401 C1582.55,250.101 1582.77,249.661 1583.76,247.681 L1579.58,243.721 M1575.07,250.321 C1570.34,264.181 1564.29,274.081 1554.5,283.871 C1546.03,276.391 1541.52,270.671 1536.46,260.881 C1539.54,256.591 1541.19,254.061 1543.28,250.321 L1575.07,250.321 M1537.78,225.021 L1505.55,225.021 C1500.49,225.021 1496.64,224.801 1493.34,224.251 L1493.34,232.061 C1496.31,231.621 1499.94,231.401 1505.44,231.401 L1578.48,231.401 C1584.53,231.401 1588.16,231.621 1591.02,232.061 L1591.02,224.251 C1587.72,224.801 1583.98,225.021 1578.48,225.021 L1544.82,225.021 L1544.82,220.951 C1544.82,217.651 1545.04,215.341 1545.59,212.591 L1537.12,212.591 C1537.56,215.011 1537.78,217.541 1537.78,220.951 L1537.78,225.021 M1507.09,299.821 C1507.09,305.321 1506.87,308.951 1506.43,312.691 L1514.68,312.691 C1514.13,308.731 1514.02,305.321 1514.02,299.821 L1514.02,254.941 C1518.86,247.021 1521.72,242.291 1522.6,240.641 C1524.36,237.561 1525.13,236.351 1525.68,235.471 L1518.42,232.391 C1517.43,235.691 1515.78,239.431 1513.14,243.941 C1506.87,255.161 1499.06,264.731 1490.26,271.991 C1491.8,273.531 1493.89,276.391 1494.55,278.041 C1500.49,272.321 1503.24,269.131 1507.42,262.861 C1507.2,267.371 1507.09,270.121 1507.09,274.961 L1507.09,299.821 "/>
<path class="MeasureNumber" d="M228.053,1513.32 C227.053,1517.96 224.373,1525.92 218.653,1525.92 C217.493,1525.92 216.733,1525.44 216.733,1524.72 C216.733,1524.44 216.813,1524.32 217.133,1523.84 C217.533,1523.32 217.733,1522.84 217.733,1522.28 C217.733,1520.96 216.693,1519.96 215.333,1519.96 C213.733,1519.96 212.613,1521.16 212.613,1522.92 C212.613,1525.64 215.173,1527.6 218.733,1527.6 C227.493,1527.6 233.093,1516.4 233.093,1508.8 C233.093,1502.56 230.093,1498.84 225.133,1498.84 C219.173,1498.84 214.733,1504.32 214.733,1510.04 C214.733,1513.84 217.653,1516.72 221.533,1516.72 C224.173,1516.72 226.213,1515.64 228.053,1513.32 M225.093,1500.52 C227.653,1500.52 229.293,1502.56 229.293,1505.76 C229.293,1510.72 226.573,1514.36 222.893,1514.36 C220.373,1514.36 218.973,1512.64 218.973,1509.64 C218.973,1506.04 220.693,1500.52 225.093,1500.52"/>
<path class="MeasureNumber" d="M216.922,1040.48 C215.682,1041.24 215.322,1041.72 215.322,1042.52 C215.322,1043.28 215.962,1043.84 216.762,1043.84 C217.802,1043.84 218.402,1043.08 218.522,1041.6 C219.762,1040.6 221.082,1040.16 222.682,1040.16 C225.642,1040.16 227.282,1042 227.282,1045.32 C227.282,1050.52 223.922,1054.76 219.802,1054.76 C217.442,1054.76 215.522,1053.64 215.522,1052.32 C215.522,1052.08 215.562,1052 215.762,1051.88 C217.042,1051.28 218.082,1050.84 218.082,1049.16 C218.082,1047.88 217.082,1046.92 215.682,1046.92 C213.922,1046.92 212.602,1048.4 212.602,1050.32 C212.602,1053.84 215.642,1056.4 219.922,1056.4 C226.402,1056.4 231.642,1051.24 231.642,1044.84 C231.642,1040.8 228.562,1037.96 224.202,1037.96 C222.482,1037.96 221.082,1038.32 219.162,1039.28 L221.402,1031.72 C223.522,1032.16 225.202,1032.36 226.642,1032.36 C229.282,1032.36 231.642,1031.52 232.962,1030.12 C233.642,1029.32 234.042,1028.64 234.042,1028.12 C234.042,1027.88 233.922,1027.64 233.762,1027.64 C233.642,1027.64 233.562,1027.68 233.322,1027.8 C232.002,1028.44 230.322,1028.8 228.762,1028.8 C226.362,1028.8 223.522,1028.4 220.562,1027.64 L216.922,1040.48 "/>
<path class="TieSegment" stroke="#000000" stroke-width="1.74" stroke-linecap="round" stroke-linejoin="round" fill-rule="evenodd" d="M2321.61,1743.49 C2364.05,1767.91 2491.36,1767.91 2533.79,1743.49 C2491.36,1774.86 2364.05,1774.86 2321.61,1743.49"/>
<polyline class="BarLine" fill="none" stroke="#000000" stroke-width="4.46" stroke-linejoin="bevel" points="1061.35,632.834 1061.35,734.762"/>
<polyline class="BarLine" fill="none" stroke="#000000" stroke-width="4.46" stroke-linejoin="bevel" points="2740.42,1575.23 2740.42,1677.16"/>
<polyline class="BarLine" fill="none" stroke="#000000" stroke-width="13.64" stroke-linejoin="bevel" points="2757.78,1575.23 2757.78,1677.16"/>
<polyline class="BarLine" fill="none" stroke="#000000" stroke-width="4.46" stroke-linejoin="bevel" points="1594.57,1104.03 1594.57,1205.96"/>
<polyline class="BarLine" fill="none" stroke="#000000" stroke-width="4.46" stroke-linejoin="bevel" points="2269.43,1575.23 2269.43,1677.16"/>
<polyline class="BarLine" fill="none" stroke="#000000" stroke-width="4.46" stroke-linejoin="bevel" points="1555.05,1575.23 1555.05,1677.16"/>
<polyline class="BarLine" fill="none" stroke="#000000" stroke-width="4.46" stroke-linejoin="bevel" points="1084.06,1575.23 1084.06,1677.16"/>
<polyline class="BarLine" fill="none" stroke="#000000" stroke-width="4.46" stroke-linejoin="bevel" points="2762.37,1104.03 2762.37,1205.96"/>
<polyline class="BarLine" fill="none" stroke="#000000" stroke-width="4.46" stroke-linejoin="bevel" points="2210.36,1104.03 2210.36,1205.96"/>
<polyline class="BarLine" fill="none" stroke="#000000" stroke-width="4.46" stroke-linejoin="bevel" points="1042.56,1104.03 1042.56,1205.96"/>
<polyline class="BarLine" fill="none" stroke="#000000" stroke-width="4.46" stroke-linejoin="bevel" points="2762.37,632.834 2762.37,734.762"/>
<polyline class="BarLine" fill="none" stroke="#000000" stroke-width="4.46" stroke-linejoin="bevel" points="2212.25,632.834 2212.25,734.762"/>
<polyline class="BarLine" fill="none" stroke="#000000" stroke-width="4.46" stroke-linejoin="bevel" points="1662.13,632.834 1662.13,734.762"/>
<polyline class="LedgerLine" fill="none" stroke="#000000" stroke-width="3.97" stroke-linejoin="bevel" points="2144.32,1700.6 2193.91,1700.6"/>
<polyline class="LedgerLine" fill="none" stroke="#000000" stroke-width="3.97" stroke-linejoin="bevel" points="1381.04,1229.4 1430.62,1229.4"/>
<polyline class="LedgerLine" fill="none" stroke="#000000" stroke-width="3.97" stroke-linejoin="bevel" points="2512.37,1700.6 2561.95,1700.6"/>
<polyline class="LedgerLine" fill="none" stroke="#000000" stroke-width="3.97" stroke-linejoin="bevel" points="1809.23,1700.6 1858.82,1700.6"/>
<polyline class="LedgerLine" fill="none" stroke="#000000" stroke-width="3.97" stroke-linejoin="bevel" points="828.636,758.198 878.22,758.198"/>
<polyline class="LedgerLine" fill="none" stroke="#000000" stroke-width="3.97" stroke-linejoin="bevel" points="2295.22,1725.4 2344.81,1725.4"/>
<polyline class="LedgerLine" fill="none" stroke="#000000" stroke-width="3.97" stroke-linejoin="bevel" points="2295.22,1700.6 2344.81,1700.6"/>
<polyline class="LedgerLine" fill="none" stroke="#000000" stroke-width="3.97" stroke-linejoin="bevel" points="2512.37,1725.4 2561.95,1725.4"/>
<polyline class="LedgerLine" fill="none" stroke="#000000" stroke-width="3.97" stroke-linejoin="bevel" points="2548.83,1229.4 2598.42,1229.4"/>
<polyline class="LedgerLine" fill="none" stroke="#000000" stroke-width="3.97" stroke-linejoin="bevel" points="1429.42,758.198 1479,758.198"/>
<polyline class="Stem" fill="none" stroke="#000000" stroke-width="2.73" stroke-linejoin="bevel" points="1314.02,1200.63 1314.02,1111.6"/>
<polyline class="Stem" fill="none" stroke="#000000" stroke-width="2.73" stroke-linejoin="bevel" points="1107.9,1200.63 1107.9,1111.6"/>
<polyline class="Stem" fill="none" stroke="#000000" stroke-width="2.73" stroke-linejoin="bevel" points="892.865,1630.36 892.865,1704.4"/>
<polyline class="Stem" fill="none" stroke="#000000" stroke-width="2.73" stroke-linejoin="bevel" points="748.102,1605.56 748.102,1688.35"/>
<polyline class="Stem" fill="none" stroke="#000000" stroke-width="2.73" stroke-linejoin="bevel" points="1242.98,1188.23 1242.98,1111.6"/>
<polyline class="Stem" fill="none" stroke="#000000" stroke-width="2.73" stroke-linejoin="bevel" points="1872.94,687.965 1872.94,764.299"/>
<polyline class="Stem" fill="none" stroke="#000000" stroke-width="2.73" stroke-linejoin="bevel" points="633.907,1630.36 633.907,1706.7"/>
<polyline class="Stem" fill="none" stroke="#000000" stroke-width="2.73" stroke-linejoin="bevel" points="2019.08,704.63 2019.08,621.798"/>
<polyline class="Stem" fill="none" stroke="#000000" stroke-width="2.73" stroke-linejoin="bevel" points="1420.58,1225.43 1420.58,1142.6"/>
<polyline class="Stem" fill="none" stroke="#000000" stroke-width="2.73" stroke-linejoin="bevel" points="462.613,1630.36 462.613,1700.6"/>
<polyline class="Stem" fill="none" stroke="#000000" stroke-width="2.73" stroke-linejoin="bevel" points="525.9,729.43 525.9,640.398"/>
<polyline class="Stem" fill="none" stroke="#000000" stroke-width="2.73" stroke-linejoin="bevel" points="751.531,729.43 751.531,640.398"/>
<polyline class="Stem" fill="none" stroke="#000000" stroke-width="2.73" stroke-linejoin="bevel" points="968.995,1655.16 968.995,1712.85"/>
<polyline class="Stem" fill="none" stroke="#000000" stroke-width="2.73" stroke-linejoin="bevel" points="1149.39,1634.63 1149.39,1558"/>
<polyline class="Stem" fill="none" stroke="#000000" stroke-width="2.73" stroke-linejoin="bevel" points="2277.58,692.23 2277.58,615.598"/>
<polyline class="Stem" fill="none" stroke="#000000" stroke-width="2.73" stroke-linejoin="bevel" points="2334.76,1721.43 2334.76,1626.2"/>
<polyline class="Stem" fill="none" stroke="#000000" stroke-width="2.73" stroke-linejoin="bevel" points="1468.96,754.23 1468.96,671.398"/>
<polyline class="Stem" fill="none" stroke="#000000" stroke-width="2.73" stroke-linejoin="bevel" points="1962.97,1671.83 1962.97,1601.44"/>
<polyline class="Stem" fill="none" stroke="#000000" stroke-width="2.73" stroke-linejoin="bevel" points="2452.55,692.23 2452.55,615.797"/>
<polyline class="Stem" fill="none" stroke="#000000" stroke-width="2.73" stroke-linejoin="bevel" points="2588.37,1225.43 2588.37,1142.6"/>
<polyline class="Stem" fill="none" stroke="#000000" stroke-width="2.73" stroke-linejoin="bevel" points="2569.2,729.43 2569.2,646.598"/>
<polyline class="Stem" fill="none" stroke="#000000" stroke-width="2.73" stroke-linejoin="bevel" points="2481.81,1200.63 2481.81,1111.6"/>
<polyline class="Stem" fill="none" stroke="#000000" stroke-width="2.73" stroke-linejoin="bevel" points="1337.04,1617.96 1337.04,1694.4"/>
<polyline class="Stem" fill="none" stroke="#000000" stroke-width="2.73" stroke-linejoin="bevel" points="2410.77,1188.23 2410.77,1111.6"/>
<polyline class="Stem" fill="none" stroke="#000000" stroke-width="2.73" stroke-linejoin="bevel" points="1352.31,729.43 1352.31,640.398"/>
<polyline class="Stem" fill="none" stroke="#000000" stroke-width="2.73" stroke-linejoin="bevel" points="1274.55,717.03 1274.55,640.398"/>
<polyline class="Stem" fill="none" stroke="#000000" stroke-width="2.73" stroke-linejoin="bevel" points="673.768,717.03 673.768,640.398"/>
<polyline class="Stem" fill="none" stroke="#000000" stroke-width="2.73" stroke-linejoin="bevel" points="2275.69,1200.63 2275.69,1111.6"/>
<polyline class="Stem" fill="none" stroke="#000000" stroke-width="2.73" stroke-linejoin="bevel" points="1620.38,1634.63 1620.38,1570.47"/>
<polyline class="Stem" fill="none" stroke="#000000" stroke-width="2.73" stroke-linejoin="bevel" points="492.11,1188.23 492.11,1105.4"/>
<polyline class="Stem" fill="none" stroke="#000000" stroke-width="2.73" stroke-linejoin="bevel" points="1734.58,1671.83 1734.58,1576.6"/>
<polyline class="Stem" fill="none" stroke="#000000" stroke-width="2.73" stroke-linejoin="bevel" points="2132.43,1188.23 2132.43,1111.52"/>
<polyline class="Stem" fill="none" stroke="#000000" stroke-width="2.73" stroke-linejoin="bevel" points="2551.91,1721.43 2551.91,1626.2"/>
<polyline class="Stem" fill="none" stroke="#000000" stroke-width="2.73" stroke-linejoin="bevel" points="651.95,1188.23 651.95,1105.6"/>
<polyline class="Stem" fill="none" stroke="#000000" stroke-width="2.73" stroke-linejoin="bevel" points="2061.39,1175.83 2061.39,1107.3"/>
<polyline class="Stem" fill="none" stroke="#000000" stroke-width="2.73" stroke-linejoin="bevel" points="758.509,1163.43 758.509,1099.28"/>
<polyline class="Stem" fill="none" stroke="#000000" stroke-width="2.73" stroke-linejoin="bevel" points="1848.77,1696.63 1848.77,1582.73"/>
<polyline class="Stem" fill="none" stroke="#000000" stroke-width="2.73" stroke-linejoin="bevel" points="1126.68,729.43 1126.68,640.398"/>
<polyline class="Stem" fill="none" stroke="#000000" stroke-width="2.73" stroke-linejoin="bevel" points="1926.31,1163.43 1926.31,1099.28"/>
<polyline class="Stem" fill="none" stroke="#000000" stroke-width="2.73" stroke-linejoin="bevel" points="1819.75,1188.23 1819.75,1105.6"/>
<polyline class="Stem" fill="none" stroke="#000000" stroke-width="2.73" stroke-linejoin="bevel" points="893.592,1175.83 893.592,1107.3"/>
<polyline class="Stem" fill="none" stroke="#000000" stroke-width="2.73" stroke-linejoin="bevel" points="2107.73,1684.23 2107.73,1605.45"/>
<polyline class="Stem" fill="none" stroke="#000000" stroke-width="2.73" stroke-linejoin="bevel" points="964.632,1188.23 964.632,1111.52"/>
<polyline class="Stem" fill="none" stroke="#000000" stroke-width="2.73" stroke-linejoin="bevel" points="1659.91,1188.23 1659.91,1105.4"/>
<polyline class="Stem" fill="none" stroke="#000000" stroke-width="2.73" stroke-linejoin="bevel" points="2183.86,1709.03 2183.86,1607.56"/>
<polyline class="Stem" fill="none" stroke="#000000" stroke-width="2.73" stroke-linejoin="bevel" points="868.176,754.23 868.176,671.398"/>
<polyline class="Stem" fill="none" stroke="#000000" stroke-width="2.73" stroke-linejoin="bevel" points="1697.97,687.965 1697.97,758.198"/>
<path class="Hook" transform="matrix(0.992,0,0,0.992,1818.38,1105.4)" d="M0,22.7 C0,23 0.1,23.6 0.8,23.8 C5.1,25.2 13.7,30.6 20.2,41.7 C22,44.8 24.9,49.1 24.9,57.4 C24.9,64.6 23.1,72 20.4,79.2 C20.2,79.8 20.1,80.3 20.1,80.7 C20.1,81.4 20.5,81.7 21.2,81.7 C21.8,81.7 22.3,81.3 22.7,80.6 C27.2,72.6 28.9,63.3 28.9,54.2 C28.4,41.3 21,31.8 21,31.8 C21.3,31.8 11.8,19.5 9.1,15.3 C5.4,9.6 3.7,3.9 3.5,3.5 C3.4,3.2 2.5,-0.4 2.5,-0.4 C2.4,-0.8 1.9,-1.2 1.3,-1.2 C0.6,-1.2 0,-0.6 0,0.1 L0,22.7 "/>
<path class="Hook" transform="matrix(0.992,0,0,0.992,650.586,1105.4)" d="M0,22.7 C0,23 0.1,23.6 0.8,23.8 C5.1,25.2 13.7,30.6 20.2,41.7 C22,44.8 24.9,49.1 24.9,57.4 C24.9,64.6 23.1,72 20.4,79.2 C20.2,79.8 20.1,80.3 20.1,80.7 C20.1,81.4 20.5,81.7 21.2,81.7 C21.8,81.7 22.3,81.3 22.7,80.6 C27.2,72.6 28.9,63.3 28.9,54.2 C28.4,41.3 21,31.8 21,31.8 C21.3,31.8 11.8,19.5 9.1,15.3 C5.4,9.6 3.7,3.9 3.5,3.5 C3.4,3.2 2.5,-0.4 2.5,-0.4 C2.4,-0.8 1.9,-1.2 1.3,-1.2 C0.6,-1.2 0,-0.6 0,0.1 L0,22.7 "/>
<path class="Hook" transform="matrix(0.992,0,0,0.992,2451.19,615.598)" d="M0,22.7 C0,23 0.1,23.6 0.8,23.8 C5.1,25.2 13.7,30.6 20.2,41.7 C22,44.8 24.9,49.1 24.9,57.4 C24.9,64.6 23.1,72 20.4,79.2 C20.2,79.8 20.1,80.3 20.1,80.7 C20.1,81.4 20.5,81.7 21.2,81.7 C21.8,81.7 22.3,81.3 22.7,80.6 C27.2,72.6 28.9,63.3 28.9,54.2 C28.4,41.3 21,31.8 21,31.8 C21.3,31.8 11.8,19.5 9.1,15.3 C5.4,9.6 3.7,3.9 3.5,3.5 C3.4,3.2 2.5,-0.4 2.5,-0.4 C2.4,-0.8 1.9,-1.2 1.3,-1.2 C0.6,-1.2 0,-0.6 0,0.1 L0,22.7 "/>
<path class="Hook" transform="matrix(0.992,0,0,0.992,632.543,1706.8)" d="M0,-0.1 C0,0.6 0.6,1.2 1.3,1.2 C1.8,1.2 2.4,0.8 2.5,0.4 C2.5,0.3 3.4,-3.2 3.5,-3.5 C3.6,-3.9 4.5,-7.7 8.1,-13.6 C12,-20.1 18,-24.8 23,-31.8 C28,-38.8 30.9,-45.4 30.9,-54.2 C30.9,-63.3 28.9,-70.9 23.5,-80.6 C23.2,-81.3 22.6,-81.7 22,-81.7 C21.8,-81.7 21.6,-81.7 21.5,-81.6 C21,-81.4 20.8,-81 20.8,-80.4 C20.8,-80.1 20.9,-79.7 21.1,-79.2 C25.1,-69.9 26.7,-64.6 26.7,-57.4 C26.7,-49.1 23.8,-44.8 22,-41.7 C15.5,-30.6 5,-25.2 0.8,-23.8 C0.1,-23.6 0,-23 0,-22.7 L0,-0.1 "/>
<path class="Hook" transform="matrix(0.992,0,0,0.992,1871.57,764.398)" d="M0,-0.1 C0,0.6 0.6,1.2 1.3,1.2 C1.8,1.2 2.4,0.8 2.5,0.4 C2.5,0.3 3.4,-3.2 3.5,-3.5 C3.6,-3.9 4.5,-7.7 8.1,-13.6 C12,-20.1 18,-24.8 23,-31.8 C28,-38.8 30.9,-45.4 30.9,-54.2 C30.9,-63.3 28.9,-70.9 23.5,-80.6 C23.2,-81.3 22.6,-81.7 22,-81.7 C21.8,-81.7 21.6,-81.7 21.5,-81.6 C21,-81.4 20.8,-81 20.8,-80.4 C20.8,-80.1 20.9,-79.7 21.1,-79.2 C25.1,-69.9 26.7,-64.6 26.7,-57.4 C26.7,-49.1 23.8,-44.8 22,-41.7 C15.5,-30.6 5,-25.2 0.8,-23.8 C0.1,-23.6 0,-23 0,-22.7 L0,-0.1 "/>
<path class="Note" transform="matrix(0.992,0,0,0.992,2076.87,1688.2)" d="M0,4.2 C0,8.5 3.1,13.3 11.2,13.3 C21.6,13.3 32.5,4.8 32.5,-4 C32.5,-9.9 27.5,-13.2 21.3,-13.2 C11.6,-13.2 0,-5 0,4.2"/>
<path class="Note" transform="matrix(0.992,0,0,0.992,461.249,1626.2)" d="M0,4.2 C0,8.5 3.1,13.3 11.2,13.3 C21.6,13.3 32.5,4.8 32.5,-4 C32.5,-9.9 27.5,-13.2 21.3,-13.2 C11.6,-13.2 0,-5 0,4.2"/>
<path class="Note" transform="matrix(0.992,0,0,0.992,1283.16,1204.6)" d="M0,4.2 C0,8.5 3.1,13.3 11.2,13.3 C21.6,13.3 32.5,4.8 32.5,-4 C32.5,-9.9 27.5,-13.2 21.3,-13.2 C11.6,-13.2 0,-5 0,4.2"/>
<path class="Note" transform="matrix(0.992,0,0,0.992,1932.11,1675.8)" d="M0,4.2 C0,8.5 3.1,13.3 11.2,13.3 C21.6,13.3 32.5,4.8 32.5,-4 C32.5,-9.9 27.5,-13.2 21.3,-13.2 C11.6,-13.2 0,-5 0,4.2"/>
<path class="Note" transform="matrix(0.992,0,0,0.992,1817.91,1700.6)" d="M0,4.2 C0,8.5 3.1,13.3 11.2,13.3 C21.6,13.3 32.5,4.8 32.5,-4 C32.5,-9.9 27.5,-13.2 21.3,-13.2 C11.6,-13.2 0,-5 0,4.2"/>
<path class="Note" transform="matrix(0.992,0,0,0.992,1389.72,1229.4)" d="M0,4.2 C0,8.5 3.1,13.3 11.2,13.3 C21.6,13.3 32.5,4.8 32.5,-4 C32.5,-9.9 27.5,-13.2 21.3,-13.2 C11.6,-13.2 0,-5 0,4.2"/>
<path class="Note" transform="matrix(0.992,0,0,0.992,1095.82,733.398)" d="M0,4.2 C0,8.5 3.1,13.3 11.2,13.3 C21.6,13.3 32.5,4.8 32.5,-4 C32.5,-9.9 27.5,-13.2 21.3,-13.2 C11.6,-13.2 0,-5 0,4.2"/>
<path class="Note" transform="matrix(0.992,0,0,0.992,1077.04,1204.6)" d="M0,4.2 C0,8.5 3.1,13.3 11.2,13.3 C21.6,13.3 32.5,4.8 32.5,-4 C32.5,-9.9 27.5,-13.2 21.3,-13.2 C11.6,-13.2 0,-5 0,4.2"/>
<path class="Note" transform="matrix(0.992,0,0,0.992,1895.44,1167.4)" d="M0,4.2 C0,8.5 3.1,13.3 11.2,13.3 C21.6,13.3 32.5,4.8 32.5,-4 C32.5,-9.9 27.5,-13.2 21.3,-13.2 C11.6,-13.2 0,-5 0,4.2"/>
<path class="Note" transform="matrix(0.992,0,0,0.992,1703.72,1675.8)" d="M0,4.2 C0,8.5 3.1,13.3 11.2,13.3 C21.6,13.3 32.5,4.8 32.5,-4 C32.5,-9.9 27.5,-13.2 21.3,-13.2 C11.6,-13.2 0,-5 0,4.2"/>
<path class="Note" transform="matrix(0.992,0,0,0.992,933.771,1192.2)" d="M0,4.2 C0,8.5 3.1,13.3 11.2,13.3 C21.6,13.3 32.5,4.8 32.5,-4 C32.5,-9.9 27.5,-13.2 21.3,-13.2 C11.6,-13.2 0,-5 0,4.2"/>
<path class="Note" transform="matrix(0.992,0,0,0.992,1629.05,1192.2)" d="M0,4.2 C0,8.5 3.1,13.3 11.2,13.3 C21.6,13.3 32.5,4.8 32.5,-4 C32.5,-9.9 27.5,-13.2 21.3,-13.2 C11.6,-13.2 0,-5 0,4.2"/>
<path class="Note" transform="matrix(0.992,0,0,0.992,1589.52,1638.6)" d="M0,4.2 C0,8.5 3.1,13.3 11.2,13.3 C21.6,13.3 32.5,4.8 32.5,-4 C32.5,-9.9 27.5,-13.2 21.3,-13.2 C11.6,-13.2 0,-5 0,4.2"/>
<path class="Note" transform="matrix(0.992,0,0,0.992,862.732,1179.8)" d="M0,4.2 C0,8.5 3.1,13.3 11.2,13.3 C21.6,13.3 32.5,4.8 32.5,-4 C32.5,-9.9 27.5,-13.2 21.3,-13.2 C11.6,-13.2 0,-5 0,4.2"/>
<path class="Note" transform="matrix(0.992,0,0,0.992,1243.69,720.998)" d="M0,4.2 C0,8.5 3.1,13.3 11.2,13.3 C21.6,13.3 32.5,4.8 32.5,-4 C32.5,-9.9 27.5,-13.2 21.3,-13.2 C11.6,-13.2 0,-5 0,4.2"/>
<path class="Note" transform="matrix(0.992,0,0,0.992,1788.89,1192.2)" d="M0,4.2 C0,8.5 3.1,13.3 11.2,13.3 C21.6,13.3 32.5,4.8 32.5,-4 C32.5,-9.9 27.5,-13.2 21.3,-13.2 C11.6,-13.2 0,-5 0,4.2"/>
<path class="Note" transform="matrix(0.992,0,0,0.992,2153,1713)" d="M0,4.2 C0,8.5 3.1,13.3 11.2,13.3 C21.6,13.3 32.5,4.8 32.5,-4 C32.5,-9.9 27.5,-13.2 21.3,-13.2 C11.6,-13.2 0,-5 0,4.2"/>
<path class="Note" transform="matrix(0.992,0,0,0.992,837.316,758.198)" d="M0,4.2 C0,8.5 3.1,13.3 11.2,13.3 C21.6,13.3 32.5,4.8 32.5,-4 C32.5,-9.9 27.5,-13.2 21.3,-13.2 C11.6,-13.2 0,-5 0,4.2"/>
<path class="Note" transform="matrix(0.992,0,0,0.992,727.649,1167.4)" d="M0,4.2 C0,8.5 3.1,13.3 11.2,13.3 C21.6,13.3 32.5,4.8 32.5,-4 C32.5,-9.9 27.5,-13.2 21.3,-13.2 C11.6,-13.2 0,-5 0,4.2"/>
<path class="Note" transform="matrix(0.992,0,0,0.992,2303.9,1725.4)" d="M0,4.2 C0,8.5 3.1,13.3 11.2,13.3 C21.6,13.3 32.5,4.8 32.5,-4 C32.5,-9.9 27.5,-13.2 21.3,-13.2 C11.6,-13.2 0,-5 0,4.2"/>
<path class="Note" transform="matrix(0.992,0,0,0.992,1335.67,1613.8)" d="M0,4.2 C0,8.5 3.1,13.3 11.2,13.3 C21.6,13.3 32.5,4.8 32.5,-4 C32.5,-9.9 27.5,-13.2 21.3,-13.2 C11.6,-13.2 0,-5 0,4.2"/>
<path class="Note" transform="matrix(0.992,0,0,0.992,621.089,1192.2)" d="M0,4.2 C0,8.5 3.1,13.3 11.2,13.3 C21.6,13.3 32.5,4.8 32.5,-4 C32.5,-9.9 27.5,-13.2 21.3,-13.2 C11.6,-13.2 0,-5 0,4.2"/>
<path class="Note" transform="matrix(0.992,0,0,0.992,2030.53,1179.8)" d="M0,4.2 C0,8.5 3.1,13.3 11.2,13.3 C21.6,13.3 32.5,4.8 32.5,-4 C32.5,-9.9 27.5,-13.2 21.3,-13.2 C11.6,-13.2 0,-5 0,4.2"/>
<path class="Note" transform="matrix(0.992,0,0,0.992,1321.45,733.398)" d="M0,4.2 C0,8.5 3.1,13.3 11.2,13.3 C21.6,13.3 32.5,4.8 32.5,-4 C32.5,-9.9 27.5,-13.2 21.3,-13.2 C11.6,-13.2 0,-5 0,4.2"/>
<path class="Note" transform="matrix(0.992,0,0,0.992,2101.57,1192.2)" d="M0,4.2 C0,8.5 3.1,13.3 11.2,13.3 C21.6,13.3 32.5,4.8 32.5,-4 C32.5,-9.9 27.5,-13.2 21.3,-13.2 C11.6,-13.2 0,-5 0,4.2"/>
<path class="Note" transform="matrix(0.992,0,0,0.992,461.249,1192.2)" d="M0,4.2 C0,8.5 3.1,13.3 11.2,13.3 C21.6,13.3 32.5,4.8 32.5,-4 C32.5,-9.9 27.5,-13.2 21.3,-13.2 C11.6,-13.2 0,-5 0,4.2"/>
<path class="Note" transform="matrix(0.992,0,0,0.992,1118.53,1638.6)" d="M0,4.2 C0,8.5 3.1,13.3 11.2,13.3 C21.6,13.3 32.5,4.8 32.5,-4 C32.5,-9.9 27.5,-13.2 21.3,-13.2 C11.6,-13.2 0,-5 0,4.2"/>
<path class="Note" transform="matrix(0.992,0,0,0.992,1438.1,758.198)" d="M0,4.2 C0,8.5 3.1,13.3 11.2,13.3 C21.6,13.3 32.5,4.8 32.5,-4 C32.5,-9.9 27.5,-13.2 21.3,-13.2 C11.6,-13.2 0,-5 0,4.2"/>
<path class="Note" transform="matrix(0.992,0,0,0.992,967.631,1651)" d="M0,4.2 C0,8.5 3.1,13.3 11.2,13.3 C21.6,13.3 32.5,4.8 32.5,-4 C32.5,-9.9 27.5,-13.2 21.3,-13.2 C11.6,-13.2 0,-5 0,4.2"/>
<path class="Note" transform="matrix(0.992,0,0,0.992,2244.83,1204.6)" d="M0,4.2 C0,8.5 3.1,13.3 11.2,13.3 C21.6,13.3 32.5,4.8 32.5,-4 C32.5,-9.9 27.5,-13.2 21.3,-13.2 C11.6,-13.2 0,-5 0,4.2"/>
<path class="Note" transform="matrix(0.992,0,0,0.992,642.907,720.998)" d="M0,4.2 C0,8.5 3.1,13.3 11.2,13.3 C21.6,13.3 32.5,4.8 32.5,-4 C32.5,-9.9 27.5,-13.2 21.3,-13.2 C11.6,-13.2 0,-5 0,4.2"/>
<path class="Note" transform="matrix(0.992,0,0,0.992,891.501,1626.2)" d="M0,4.2 C0,8.5 3.1,13.3 11.2,13.3 C21.6,13.3 32.5,4.8 32.5,-4 C32.5,-9.9 27.5,-13.2 21.3,-13.2 C11.6,-13.2 0,-5 0,4.2"/>
<path class="Note" transform="matrix(0.992,0,0,0.992,720.671,733.398)" d="M0,4.2 C0,8.5 3.1,13.3 11.2,13.3 C21.6,13.3 32.5,4.8 32.5,-4 C32.5,-9.9 27.5,-13.2 21.3,-13.2 C11.6,-13.2 0,-5 0,4.2"/>
<path class="Note" transform="matrix(0.992,0,0,0.992,1696.6,683.798)" d="M0,4.2 C0,8.5 3.1,13.3 11.2,13.3 C21.6,13.3 32.5,4.8 32.5,-4 C32.5,-9.9 27.5,-13.2 21.3,-13.2 C11.6,-13.2 0,-5 0,4.2"/>
<path class="Note" transform="matrix(0.992,0,0,0.992,2379.91,1192.2)" d="M0,4.2 C0,8.5 3.1,13.3 11.2,13.3 C21.6,13.3 32.5,4.8 32.5,-4 C32.5,-9.9 27.5,-13.2 21.3,-13.2 C11.6,-13.2 0,-5 0,4.2"/>
<path class="Note" transform="matrix(0.992,0,0,0.992,2538.34,733.398)" d="M0,4.2 C0,8.5 3.1,13.3 11.2,13.3 C21.6,13.3 32.5,4.8 32.5,-4 C32.5,-9.9 27.5,-13.2 21.3,-13.2 C11.6,-13.2 0,-5 0,4.2"/>
<path class="Note" transform="matrix(0.992,0,0,0.992,2450.95,1204.6)" d="M0,4.2 C0,8.5 3.1,13.3 11.2,13.3 C21.6,13.3 32.5,4.8 32.5,-4 C32.5,-9.9 27.5,-13.2 21.3,-13.2 C11.6,-13.2 0,-5 0,4.2"/>
<path class="Note" transform="matrix(0.992,0,0,0.992,2421.69,696.198)" d="M0,4.2 C0,8.5 3.1,13.3 11.2,13.3 C21.6,13.3 32.5,4.8 32.5,-4 C32.5,-9.9 27.5,-13.2 21.3,-13.2 C11.6,-13.2 0,-5 0,4.2"/>
<path class="Note" transform="matrix(0.992,0,0,0.992,746.738,1601.4)" d="M0,4.2 C0,8.5 3.1,13.3 11.2,13.3 C21.6,13.3 32.5,4.8 32.5,-4 C32.5,-9.9 27.5,-13.2 21.3,-13.2 C11.6,-13.2 0,-5 0,4.2"/>
<path class="Note" transform="matrix(0.992,0,0,0.992,2557.51,1229.4)" d="M0,4.2 C0,8.5 3.1,13.3 11.2,13.3 C21.6,13.3 32.5,4.8 32.5,-4 C32.5,-9.9 27.5,-13.2 21.3,-13.2 C11.6,-13.2 0,-5 0,4.2"/>
<path class="Note" transform="matrix(0.992,0,0,0.992,2246.72,696.198)" d="M0,4.2 C0,8.5 3.1,13.3 11.2,13.3 C21.6,13.3 32.5,4.8 32.5,-4 C32.5,-9.9 27.5,-13.2 21.3,-13.2 C11.6,-13.2 0,-5 0,4.2"/>
<path class="Note" transform="matrix(0.992,0,0,0.992,632.543,1626.2)" d="M0,4.2 C0,8.5 3.1,13.3 11.2,13.3 C21.6,13.3 32.5,4.8 32.5,-4 C32.5,-9.9 27.5,-13.2 21.3,-13.2 C11.6,-13.2 0,-5 0,4.2"/>
<path class="Note" transform="matrix(0.992,0,0,0.992,495.039,733.398)" d="M0,4.2 C0,8.5 3.1,13.3 11.2,13.3 C21.6,13.3 32.5,4.8 32.5,-4 C32.5,-9.9 27.5,-13.2 21.3,-13.2 C11.6,-13.2 0,-5 0,4.2"/>
<path class="Note" transform="matrix(0.992,0,0,0.992,1871.57,683.798)" d="M0,4.2 C0,8.5 3.1,13.3 11.2,13.3 C21.6,13.3 32.5,4.8 32.5,-4 C32.5,-9.9 27.5,-13.2 21.3,-13.2 C11.6,-13.2 0,-5 0,4.2"/>
<path class="Note" transform="matrix(0.992,0,0,0.992,1988.22,708.598)" d="M0,4.2 C0,8.5 3.1,13.3 11.2,13.3 C21.6,13.3 32.5,4.8 32.5,-4 C32.5,-9.9 27.5,-13.2 21.3,-13.2 C11.6,-13.2 0,-5 0,4.2"/>
<path class="Note" transform="matrix(0.992,0,0,0.992,1212.12,1192.2)" d="M0,4.2 C0,8.5 3.1,13.3 11.2,13.3 C21.6,13.3 32.5,4.8 32.5,-4 C32.5,-9.9 27.5,-13.2 21.3,-13.2 C11.6,-13.2 0,-5 0,4.2"/>
<path class="Note" transform="matrix(0.992,0,0,0.992,2521.05,1725.4)" d="M0,4.2 C0,8.5 3.1,13.3 11.2,13.3 C21.6,13.3 32.5,4.8 32.5,-4 C32.5,-9.9 27.5,-13.2 21.3,-13.2 C11.6,-13.2 0,-5 0,4.2"/>
<path class="Clef" transform="matrix(0.992,0,0,0.992,232.438,1651)" d="M12.3,51.3 C12.3,57.9 17.3,66.6 30.8,66.6 C35.5,66.6 39.6,65.4 43.2,63.2 C48.6,59.4 50,52.8 50,46.5 C50,42.6 49.4,38.1 48.4,32.4 C48.1,30.4 47.5,27.4 46.9,23.5 C56.7,20.3 64,10.1 64,-0.2 C64,-15.3 53.3,-25.5 38.7,-25.5 C37.7,-31.5 36.7,-37.4 35.9,-43 C46.4,-54.1 53.7,-66.6 53.7,-82.5 C53.7,-91.6 50.9,-99 49.3,-102.6 C46.9,-107.7 44,-111.2 42.2,-111.2 C41.5,-111.2 38.4,-110 35.1,-106.1 C28.7,-98.5 26.9,-85.7 26.9,-77.3 C26.9,-71.9 27.4,-67 29.1,-55.8 C29,-55.7 23.8,-50.4 21.7,-48.7 C12.6,-40.3 0,-28.1 0,-8.1 C0,10.6 16.3,25.3 34.9,25.3 C37.8,25.3 40.5,25 42.8,24.6 C44.7,34.2 45.9,41.2 45.9,46.5 C45.9,56.9 40.5,62.4 30.4,62.4 C28,62.4 25.9,61.9 25.7,61.9 C25.6,61.8 25.4,61.7 25.4,61.6 C25.4,61.4 25.6,61.3 25.9,61.3 C30.6,60.5 35.3,56.5 35.3,50.1 C35.3,44.7 31.2,39 23.7,39 C16.7,39 12.3,44.7 12.3,51.3 M33.2,-82.2 C34.1,-86.2 38.7,-96.7 43.9,-96.7 C45.4,-96.7 47.8,-91.9 47.8,-84.9 C47.8,-74.5 40.1,-66.7 33.2,-59.9 C32.6,-63.9 32.1,-67.8 32.1,-72 C32.1,-75.7 32.4,-79.1 33.2,-82.2 M42,20.6 C40,21 38.1,21.2 36.2,21.2 C21.9,21.2 9.7,11.2 9.7,-3.9 C9.7,-16.1 18.3,-27 27.1,-34.6 C28.8,-36.1 30.4,-37.5 31.9,-39 C32.8,-33.6 33.5,-28.9 34.2,-24.8 C25.1,-22.1 18.9,-12.5 18.9,-3.1 C18.9,3.9 24.4,13.5 32.4,13.5 C33.2,13.5 34.1,13.1 34.1,12.2 C34.1,11.3 33.1,10.8 31.9,10 C28,7.6 25.8,5 25.8,0.1 C25.8,-6 30.4,-10.9 36.2,-12.3 L42,20.6 M56.2,2.1 C56.2,9.2 53.3,16.5 46.2,19.4 C44.1,7.4 41.4,-8.5 40.7,-12.9 C49.7,-12.9 56.2,-6.8 56.2,2.1"/>
<path class="Clef" transform="matrix(0.992,0,0,0.992,232.438,708.598)" d="M12.3,51.3 C12.3,57.9 17.3,66.6 30.8,66.6 C35.5,66.6 39.6,65.4 43.2,63.2 C48.6,59.4 50,52.8 50,46.5 C50,42.6 49.4,38.1 48.4,32.4 C48.1,30.4 47.5,27.4 46.9,23.5 C56.7,20.3 64,10.1 64,-0.2 C64,-15.3 53.3,-25.5 38.7,-25.5 C37.7,-31.5 36.7,-37.4 35.9,-43 C46.4,-54.1 53.7,-66.6 53.7,-82.5 C53.7,-91.6 50.9,-99 49.3,-102.6 C46.9,-107.7 44,-111.2 42.2,-111.2 C41.5,-111.2 38.4,-110 35.1,-106.1 C28.7,-98.5 26.9,-85.7 26.9,-77.3 C26.9,-71.9 27.4,-67 29.1,-55.8 C29,-55.7 23.8,-50.4 21.7,-48.7 C12.6,-40.3 0,-28.1 0,-8.1 C0,10.6 16.3,25.3 34.9,25.3 C37.8,25.3 40.5,25 42.8,24.6 C44.7,34.2 45.9,41.2 45.9,46.5 C45.9,56.9 40.5,62.4 30.4,62.4 C28,62.4 25.9,61.9 25.7,61.9 C25.6,61.8 25.4,61.7 25.4,61.6 C25.4,61.4 25.6,61.3 25.9,61.3 C30.6,60.5 35.3,56.5 35.3,50.1 C35.3,44.7 31.2,39 23.7,39 C16.7,39 12.3,44.7 12.3,51.3 M33.2,-82.2 C34.1,-86.2 38.7,-96.7 43.9,-96.7 C45.4,-96.7 47.8,-91.9 47.8,-84.9 C47.8,-74.5 40.1,-66.7 33.2,-59.9 C32.6,-63.9 32.1,-67.8 32.1,-72 C32.1,-75.7 32.4,-79.1 33.2,-82.2 M42,20.6 C40,21 38.1,21.2 36.2,21.2 C21.9,21.2 9.7,11.2 9.7,-3.9 C9.7,-16.1 18.3,-27 27.1,-34.6 C28.8,-36.1 30.4,-37.5 31.9,-39 C32.8,-33.6 33.5,-28.9 34.2,-24.8 C25.1,-22.1 18.9,-12.5 18.9,-3.1 C18.9,3.9 24.4,13.5 32.4,13.5 C33.2,13.5 34.1,13.1 34.1,12.2 C34.1,11.3 33.1,10.8 31.9,10 C28,7.6 25.8,5 25.8,0.1 C25.8,-6 30.4,-10.9 36.2,-12.3 L42,20.6 M56.2,2.1 C56.2,9.2 53.3,16.5 46.2,19.4 C44.1,7.4 41.4,-8.5 40.7,-12.9 C49.7,-12.9 56.2,-6.8 56.2,2.1"/>
<path class="Clef" transform="matrix(0.992,0,0,0.992,232.438,1179.8)" d="M12.3,51.3 C12.3,57.9 17.3,66.6 30.8,66.6 C35.5,66.6 39.6,65.4 43.2,63.2 C48.6,59.4 50,52.8 50,46.5 C50,42.6 49.4,38.1 48.4,32.4 C48.1,30.4 47.5,27.4 46.9,23.5 C56.7,20.3 64,10.1 64,-0.2 C64,-15.3 53.3,-25.5 38.7,-25.5 C37.7,-31.5 36.7,-37.4 35.9,-43 C46.4,-54.1 53.7,-66.6 53.7,-82.5 C53.7,-91.6 50.9,-99 49.3,-102.6 C46.9,-107.7 44,-111.2 42.2,-111.2 C41.5,-111.2 38.4,-110 35.1,-106.1 C28.7,-98.5 26.9,-85.7 26.9,-77.3 C26.9,-71.9 27.4,-67 29.1,-55.8 C29,-55.7 23.8,-50.4 21.7,-48.7 C12.6,-40.3 0,-28.1 0,-8.1 C0,10.6 16.3,25.3 34.9,25.3 C37.8,25.3 40.5,25 42.8,24.6 C44.7,34.2 45.9,41.2 45.9,46.5 C45.9,56.9 40.5,62.4 30.4,62.4 C28,62.4 25.9,61.9 25.7,61.9 C25.6,61.8 25.4,61.7 25.4,61.6 C25.4,61.4 25.6,61.3 25.9,61.3 C30.6,60.5 35.3,56.5 35.3,50.1 C35.3,44.7 31.2,39 23.7,39 C16.7,39 12.3,44.7 12.3,51.3 M33.2,-82.2 C34.1,-86.2 38.7,-96.7 43.9,-96.7 C45.4,-96.7 47.8,-91.9 47.8,-84.9 C47.8,-74.5 40.1,-66.7 33.2,-59.9 C32.6,-63.9 32.1,-67.8 32.1,-72 C32.1,-75.7 32.4,-79.1 33.2,-82.2 M42,20.6 C40,21 38.1,21.2 36.2,21.2 C21.9,21.2 9.7,11.2 9.7,-3.9 C9.7,-16.1 18.3,-27 27.1,-34.6 C28.8,-36.1 30.4,-37.5 31.9,-39 C32.8,-33.6 33.5,-28.9 34.2,-24.8 C25.1,-22.1 18.9,-12.5 18.9,-3.1 C18.9,3.9 24.4,13.5 32.4,13.5 C33.2,13.5 34.1,13.1 34.1,12.2 C34.1,11.3 33.1,10.8 31.9,10 C28,7.6 25.8,5 25.8,0.1 C25.8,-6 30.4,-10.9 36.2,-12.3 L42,20.6 M56.2,2.1 C56.2,9.2 53.3,16.5 46.2,19.4 C44.1,7.4 41.4,-8.5 40.7,-12.9 C49.7,-12.9 56.2,-6.8 56.2,2.1"/>
<path class="KeySig" transform="matrix(0.992,0,0,0.992,320.711,1105.4)" d="M23.3,-10.5 C23.9,-10.6 24.4,-11.3 24.4,-11.9 L24.4,-17.8 C24.4,-18.8 23.7,-19.2 22.8,-19.2 L19.5,-18.5 L19.5,-33.4 L16.7,-33.4 L16.7,-17.9 L7.8,-16.1 L7.8,-30.2 L5,-30.2 L5,-15.5 L1.1,-14.7 C0.5,-14.6 0,-13.9 0,-13.3 L0,-7.5 C0,-6.4 0.8,-6.1 1.7,-6.1 L5,-6.8 L5,9.7 L1.1,10.5 C0.5,10.6 0,11.3 0,11.9 L0,17.7 C0,18.8 0.8,19.1 1.7,19.1 L5,18.4 L5,33.3 L7.8,33.3 L7.8,17.8 L16.7,16 L16.7,30.1 L19.5,30.1 L19.5,15.4 L23.3,14.7 C23.9,14.6 24.4,13.9 24.4,13.3 L24.4,7.4 C24.4,6.4 23.7,6 22.8,6 L19.5,6.7 L19.5,-9.8 L23.3,-10.5 M7.8,-7.4 L16.7,-9.2 L16.7,7.3 L7.8,9.2 L7.8,-7.4 "/>
<path class="KeySig" transform="matrix(0.992,0,0,0.992,347.882,1142.6)" d="M23.3,-10.5 C23.9,-10.6 24.4,-11.3 24.4,-11.9 L24.4,-17.8 C24.4,-18.8 23.7,-19.2 22.8,-19.2 L19.5,-18.5 L19.5,-33.4 L16.7,-33.4 L16.7,-17.9 L7.8,-16.1 L7.8,-30.2 L5,-30.2 L5,-15.5 L1.1,-14.7 C0.5,-14.6 0,-13.9 0,-13.3 L0,-7.5 C0,-6.4 0.8,-6.1 1.7,-6.1 L5,-6.8 L5,9.7 L1.1,10.5 C0.5,10.6 0,11.3 0,11.9 L0,17.7 C0,18.8 0.8,19.1 1.7,19.1 L5,18.4 L5,33.3 L7.8,33.3 L7.8,17.8 L16.7,16 L16.7,30.1 L19.5,30.1 L19.5,15.4 L23.3,14.7 C23.9,14.6 24.4,13.9 24.4,13.3 L24.4,7.4 C24.4,6.4 23.7,6 22.8,6 L19.5,6.7 L19.5,-9.8 L23.3,-10.5 M7.8,-7.4 L16.7,-9.2 L16.7,7.3 L7.8,9.2 L7.8,-7.4 "/>
<path class="KeySig" transform="matrix(0.992,0,0,0.992,375.054,1093)" d="M23.3,-10.5 C23.9,-10.6 24.4,-11.3 24.4,-11.9 L24.4,-17.8 C24.4,-18.8 23.7,-19.2 22.8,-19.2 L19.5,-18.5 L19.5,-33.4 L16.7,-33.4 L16.7,-17.9 L7.8,-16.1 L7.8,-30.2 L5,-30.2 L5,-15.5 L1.1,-14.7 C0.5,-14.6 0,-13.9 0,-13.3 L0,-7.5 C0,-6.4 0.8,-6.1 1.7,-6.1 L5,-6.8 L5,9.7 L1.1,10.5 C0.5,10.6 0,11.3 0,11.9 L0,17.7 C0,18.8 0.8,19.1 1.7,19.1 L5,18.4 L5,33.3 L7.8,33.3 L7.8,17.8 L16.7,16 L16.7,30.1 L19.5,30.1 L19.5,15.4 L23.3,14.7 C23.9,14.6 24.4,13.9 24.4,13.3 L24.4,7.4 C24.4,6.4 23.7,6 22.8,6 L19.5,6.7 L19.5,-9.8 L23.3,-10.5 M7.8,-7.4 L16.7,-9.2 L16.7,7.3 L7.8,9.2 L7.8,-7.4 "/>
<path class="KeySig" transform="matrix(0.992,0,0,0.992,320.711,634.198)" d="M23.3,-10.5 C23.9,-10.6 24.4,-11.3 24.4,-11.9 L24.4,-17.8 C24.4,-18.8 23.7,-19.2 22.8,-19.2 L19.5,-18.5 L19.5,-33.4 L16.7,-33.4 L16.7,-17.9 L7.8,-16.1 L7.8,-30.2 L5,-30.2 L5,-15.5 L1.1,-14.7 C0.5,-14.6 0,-13.9 0,-13.3 L0,-7.5 C0,-6.4 0.8,-6.1 1.7,-6.1 L5,-6.8 L5,9.7 L1.1,10.5 C0.5,10.6 0,11.3 0,11.9 L0,17.7 C0,18.8 0.8,19.1 1.7,19.1 L5,18.4 L5,33.3 L7.8,33.3 L7.8,17.8 L16.7,16 L16.7,30.1 L19.5,30.1 L19.5,15.4 L23.3,14.7 C23.9,14.6 24.4,13.9 24.4,13.3 L24.4,7.4 C24.4,6.4 23.7,6 22.8,6 L19.5,6.7 L19.5,-9.8 L23.3,-10.5 M7.8,-7.4 L16.7,-9.2 L16.7,7.3 L7.8,9.2 L7.8,-7.4 "/>
<path class="KeySig" transform="matrix(0.992,0,0,0.992,347.882,671.398)" d="M23.3,-10.5 C23.9,-10.6 24.4,-11.3 24.4,-11.9 L24.4,-17.8 C24.4,-18.8 23.7,-19.2 22.8,-19.2 L19.5,-18.5 L19.5,-33.4 L16.7,-33.4 L16.7,-17.9 L7.8,-16.1 L7.8,-30.2 L5,-30.2 L5,-15.5 L1.1,-14.7 C0.5,-14.6 0,-13.9 0,-13.3 L0,-7.5 C0,-6.4 0.8,-6.1 1.7,-6.1 L5,-6.8 L5,9.7 L1.1,10.5 C0.5,10.6 0,11.3 0,11.9 L0,17.7 C0,18.8 0.8,19.1 1.7,19.1 L5,18.4 L5,33.3 L7.8,33.3 L7.8,17.8 L16.7,16 L16.7,30.1 L19.5,30.1 L19.5,15.4 L23.3,14.7 C23.9,14.6 24.4,13.9 24.4,13.3 L24.4,7.4 C24.4,6.4 23.7,6 22.8,6 L19.5,6.7 L19.5,-9.8 L23.3,-10.5 M7.8,-7.4 L16.7,-9.2 L16.7,7.3 L7.8,9.2 L7.8,-7.4 "/>
<path class="KeySig" transform="matrix(0.992,0,0,0.992,375.054,621.798)" d="M23.3,-10.5 C23.9,-10.6 24.4,-11.3 24.4,-11.9 L24.4,-17.8 C24.4,-18.8 23.7,-19.2 22.8,-19.2 L19.5,-18.5 L19.5,-33.4 L16.7,-33.4 L16.7,-17.9 L7.8,-16.1 L7.8,-30.2 L5,-30.2 L5,-15.5 L1.1,-14.7 C0.5,-14.6 0,-13.9 0,-13.3 L0,-7.5 C0,-6.4 0.8,-6.1 1.7,-6.1 L5,-6.8 L5,9.7 L1.1,10.5 C0.5,10.6 0,11.3 0,11.9 L0,17.7 C0,18.8 0.8,19.1 1.7,19.1 L5,18.4 L5,33.3 L7.8,33.3 L7.8,17.8 L16.7,16 L16.7,30.1 L19.5,30.1 L19.5,15.4 L23.3,14.7 C23.9,14.6 24.4,13.9 24.4,13.3 L24.4,7.4 C24.4,6.4 23.7,6 22.8,6 L19.5,6.7 L19.5,-9.8 L23.3,-10.5 M7.8,-7.4 L16.7,-9.2 L16.7,7.3 L7.8,9.2 L7.8,-7.4 "/>
<path class="KeySig" transform="matrix(0.992,0,0,0.992,320.711,1576.6)" d="M23.3,-10.5 C23.9,-10.6 24.4,-11.3 24.4,-11.9 L24.4,-17.8 C24.4,-18.8 23.7,-19.2 22.8,-19.2 L19.5,-18.5 L19.5,-33.4 L16.7,-33.4 L16.7,-17.9 L7.8,-16.1 L7.8,-30.2 L5,-30.2 L5,-15.5 L1.1,-14.7 C0.5,-14.6 0,-13.9 0,-13.3 L0,-7.5 C0,-6.4 0.8,-6.1 1.7,-6.1 L5,-6.8 L5,9.7 L1.1,10.5 C0.5,10.6 0,11.3 0,11.9 L0,17.7 C0,18.8 0.8,19.1 1.7,19.1 L5,18.4 L5,33.3 L7.8,33.3 L7.8,17.8 L16.7,16 L16.7,30.1 L19.5,30.1 L19.5,15.4 L23.3,14.7 C23.9,14.6 24.4,13.9 24.4,13.3 L24.4,7.4 C24.4,6.4 23.7,6 22.8,6 L19.5,6.7 L19.5,-9.8 L23.3,-10.5 M7.8,-7.4 L16.7,-9.2 L16.7,7.3 L7.8,9.2 L7.8,-7.4 "/>
<path class="KeySig" transform="matrix(0.992,0,0,0.992,347.882,1613.8)" d="M23.3,-10.5 C23.9,-10.6 24.4,-11.3 24.4,-11.9 L24.4,-17.8 C24.4,-18.8 23.7,-19.2 22.8,-19.2 L19.5,-18.5 L19.5,-33.4 L16.7,-33.4 L16.7,-17.9 L7.8,-16.1 L7.8,-30.2 L5,-30.2 L5,-15.5 L1.1,-14.7 C0.5,-14.6 0,-13.9 0,-13.3 L0,-7.5 C0,-6.4 0.8,-6.1 1.7,-6.1 L5,-6.8 L5,9.7 L1.1,10.5 C0.5,10.6 0,11.3 0,11.9 L0,17.7 C0,18.8 0.8,19.1 1.7,19.1 L5,18.4 L5,33.3 L7.8,33.3 L7.8,17.8 L16.7,16 L16.7,30.1 L19.5,30.1 L19.5,15.4 L23.3,14.7 C23.9,14.6 24.4,13.9 24.4,13.3 L24.4,7.4 C24.4,6.4 23.7,6 22.8,6 L19.5,6.7 L19.5,-9.8 L23.3,-10.5 M7.8,-7.4 L16.7,-9.2 L16.7,7.3 L7.8,9.2 L7.8,-7.4 "/>
<path class="KeySig" transform="matrix(0.992,0,0,0.992,375.054,1564.2)" d="M23.3,-10.5 C23.9,-10.6 24.4,-11.3 24.4,-11.9 L24.4,-17.8 C24.4,-18.8 23.7,-19.2 22.8,-19.2 L19.5,-18.5 L19.5,-33.4 L16.7,-33.4 L16.7,-17.9 L7.8,-16.1 L7.8,-30.2 L5,-30.2 L5,-15.5 L1.1,-14.7 C0.5,-14.6 0,-13.9 0,-13.3 L0,-7.5 C0,-6.4 0.8,-6.1 1.7,-6.1 L5,-6.8 L5,9.7 L1.1,10.5 C0.5,10.6 0,11.3 0,11.9 L0,17.7 C0,18.8 0.8,19.1 1.7,19.1 L5,18.4 L5,33.3 L7.8,33.3 L7.8,17.8 L16.7,16 L16.7,30.1 L19.5,30.1 L19.5,15.4 L23.3,14.7 C23.9,14.6 24.4,13.9 24.4,13.3 L24.4,7.4 C24.4,6.4 23.7,6 22.8,6 L19.5,6.7 L19.5,-9.8 L23.3,-10.5 M7.8,-7.4 L16.7,-9.2 L16.7,7.3 L7.8,9.2 L7.8,-7.4 "/>
<path class="TimeSig" transform="matrix(0.992,0,0,0.992,422.871,659.494)" d="M24.7,-4.8 C18.6,-4.8 16.4,-3 15,-1.5 C14.7,-3.6 14.5,-5.2 14.5,-6.8 C14.5,-12.5 16.5,-19.9 23.5,-19.9 C26,-19.9 27.5,-19.1 28.5,-18 C26.4,-17.1 24.7,-14.4 24.7,-12.1 C24.7,-8.5 27.5,-5.7 31.1,-5.7 C34.7,-5.7 37.6,-8.5 37.6,-12.1 L37.6,-12.4 C37.6,-13.3 37.4,-14.8 37,-15.6 C35.7,-19.2 31.5,-24.5 21.5,-24.5 C12.5,-24.5 6,-15.9 4,-11.3 C3,-8.9 1.5,-4 1.5,1.6 C1.5,7.7 3.2,14.6 9.1,19.8 C14.9,24.2 18.6,24.4 22.1,24.4 C25.6,24.4 38.7,20.3 38.7,8.7 C38.7,-1.1 31,-4.8 24.7,-4.8 M21,20.2 C17.7,20.2 15,15.7 15,10.1 C15,4.5 17.7,-0.1 21,-0.1 C24.3,-0.1 27.1,4.5 27.1,10.1 C27.1,15.7 24.3,20.2 21,20.2"/>
<path class="TimeSig" transform="matrix(0.992,0,0,0.992,422.577,708.35)" d="M32.4,-1.8 C35.7,-4.3 38,-7.5 38,-11.5 C38,-18.7 30.1,-24.6 20.4,-24.6 C10.7,-24.6 2.8,-18.7 2.8,-11.5 C2.8,-7.5 3.8,-3.9 8.5,-0.9 C4,1.7 1.5,5.4 1.5,10.2 C1.5,18.3 10,24.8 20.4,24.8 C30.8,24.8 39.3,18.3 39.3,10.2 C39.3,5.4 37.6,0.9 32.4,-1.8 M26.8,-4.5 C20,-6.7 12.5,-10 12.5,-14.5 C12.5,-18.4 16.1,-20 20.4,-20 C26.6,-20 30.8,-17.1 30.8,-12.5 C30.8,-7.7 28.6,-5.4 26.8,-4.5 M20.4,19.2 C14,19.2 8.5,15.7 8.5,10.1 C8.5,3.4 13.7,1.8 13.7,1.8 C20.5,4.1 30.2,7.5 30.2,13 C30.2,15.7 26.8,19.2 20.4,19.2"/>
<path class="Beam" fill-rule="evenodd" d="M1961.61,1595.2 L2185.23,1601.4 L2185.23,1613.8 L1961.61,1607.6 L1961.61,1595.2 "/>
<path class="Beam" fill-rule="evenodd" d="M2109.1,1617.89 L2076.86,1616.99 L2076.86,1629.4 L2109.1,1630.29 L2109.1,1617.89 "/>
<path class="Beam" fill-rule="evenodd" d="M1924.94,1092.99 L2133.79,1105.39 L2133.79,1117.81 L1924.94,1105.41 L1924.94,1092.99 "/>
<path class="Beam" fill-rule="evenodd" d="M2062.75,1119.77 L2030.51,1117.86 L2030.51,1130.28 L2062.75,1132.19 L2062.75,1119.77 "/>
<path class="Beam" fill-rule="evenodd" d="M1106.53,1105.4 L1315.38,1105.4 L1315.38,1117.8 L1106.53,1117.8 L1106.53,1105.4 "/>
<path class="Beam" fill-rule="evenodd" d="M1244.34,1124 L1212.1,1124 L1212.1,1136.4 L1244.34,1136.4 L1244.34,1124 "/>
<path class="Beam" fill-rule="evenodd" d="M524.536,634.198 L752.895,634.198 L752.895,646.598 L524.536,646.598 L524.536,634.198 "/>
<path class="Beam" fill-rule="evenodd" d="M675.132,652.798 L642.892,652.798 L642.892,665.198 L675.132,665.198 L675.132,652.798 "/>
<path class="Beam" fill-rule="evenodd" d="M1125.32,634.198 L1353.68,634.198 L1353.68,646.598 L1125.32,646.598 L1125.32,634.198 "/>
<path class="Beam" fill-rule="evenodd" d="M1275.91,652.798 L1243.67,652.798 L1243.67,665.198 L1275.91,665.198 L1275.91,652.798 "/>
<path class="Beam" fill-rule="evenodd" d="M1619.02,1564.19 L1850.14,1576.59 L1850.14,1589.01 L1619.02,1576.61 L1619.02,1564.19 "/>
<path class="Beam" fill-rule="evenodd" d="M746.738,1681.96 L970.359,1706.76 L970.359,1719.24 L746.738,1694.44 L746.738,1681.96 "/>
<path class="Beam" fill-rule="evenodd" d="M894.229,1679.72 L861.989,1676.14 L861.989,1688.62 L894.229,1692.19 L894.229,1679.72 "/>
<path class="Beam" fill-rule="evenodd" d="M757.145,1092.99 L965.996,1105.39 L965.996,1117.81 L757.145,1105.41 L757.145,1092.99 "/>
<path class="Beam" fill-rule="evenodd" d="M894.956,1119.77 L862.716,1117.86 L862.716,1130.28 L894.956,1132.19 L894.956,1119.77 "/>
<path class="Beam" fill-rule="evenodd" d="M2274.33,1105.4 L2483.18,1105.4 L2483.18,1117.8 L2274.33,1117.8 L2274.33,1105.4 "/>
<path class="Beam" fill-rule="evenodd" d="M2412.14,1124 L2379.9,1124 L2379.9,1136.4 L2412.14,1136.4 L2412.14,1124 "/>
<path class="Harmony" d="M2542.27,1474.12 L2539.96,1474.12 L2527.31,1506.18 C2525.83,1510.47 2524.4,1511.79 2521.26,1512.01 L2521.04,1512.01 L2521.04,1514.6 L2535.62,1514.6 L2535.62,1512.01 L2534.52,1512.01 C2531.55,1512.01 2530.06,1510.97 2530.06,1508.88 C2530.06,1508.16 2530.23,1507.5 2530.56,1506.57 L2532.37,1501.73 L2546.95,1501.73 L2549.92,1509.1 C2550.25,1509.98 2550.36,1510.31 2550.36,1510.58 C2550.36,1511.46 2548.98,1512.01 2546.95,1512.01 L2544.64,1512.01 L2544.64,1514.6 L2561.69,1514.6 L2561.69,1512.01 L2560.92,1512.01 C2558.06,1511.96 2557.56,1511.63 2556.3,1508.49 L2542.27,1474.12 M2539.58,1483.14 L2545.79,1498.76 L2533.47,1498.76 L2539.58,1483.14 "/>
<path class="Harmony" d="M1965.17,1474.89 L1932.11,1474.89 L1932.11,1477.47 L1933.1,1477.47 C1936.24,1477.53 1937.28,1477.69 1937.72,1478.24 C1938.05,1478.74 1938.05,1478.85 1938.05,1481.65 L1938.05,1507.83 C1938.05,1510.64 1938.05,1510.75 1937.72,1511.24 C1937.28,1511.79 1936.24,1512.01 1933.1,1512.01 L1932.11,1512.01 L1932.11,1514.6 L1965.88,1514.6 L1966.98,1499.91 L1964.56,1499.91 C1962.47,1509.7 1960.22,1511.79 1951.8,1512.01 L1948.17,1512.01 C1944.87,1511.9 1944.05,1511.35 1944.21,1509.37 L1944.21,1495.35 L1945.31,1495.35 C1950.98,1495.13 1953.01,1497.16 1953.23,1503.27 L1955.82,1503.27 L1955.82,1485.23 L1953.23,1485.23 C1952.9,1490.62 1950.76,1492.76 1945.53,1492.76 L1944.21,1492.76 L1944.21,1480.22 C1944.16,1477.91 1944.71,1477.53 1947.68,1477.47 L1950.54,1477.47 C1959.56,1477.42 1961.81,1479.4 1963.57,1488.91 L1965.94,1488.91 L1965.17,1474.89 "/>
<path class="Harmony" d="M1975.92,1489.19 L1978.34,1489.57 L1979.33,1485.23 C1980.15,1481.6 1980.54,1481.05 1982.13,1481.05 C1982.41,1481.05 1982.85,1481.05 1983.34,1481.1 C1990.11,1481.43 1990.11,1481.43 1992.64,1481.43 C1993.35,1481.43 1994.62,1481.43 1996.16,1481.38 L1992.42,1488.91 C1988.35,1497 1987.85,1497.99 1986.48,1501.4 C1984.77,1505.52 1983.89,1508.99 1983.89,1511.3 C1983.89,1513.83 1985.21,1515.37 1987.36,1515.37 C1990,1515.37 1991.04,1513.61 1990.99,1508.82 C1990.71,1500.9 1991.7,1497.05 1997.59,1484.18 C1998.58,1482.04 1999.62,1479.84 2000.61,1477.69 L2000.61,1476.1 C1997.31,1476.37 1995.55,1476.48 1992.14,1476.48 C1987.36,1476.48 1983.56,1476.32 1977.62,1475.88 L1975.92,1489.19 "/>
<path class="Harmony" d="M1139.76,1474.12 L1137.45,1474.12 L1124.8,1506.18 C1123.31,1510.47 1121.88,1511.79 1118.75,1512.01 L1118.53,1512.01 L1118.53,1514.6 L1133.1,1514.6 L1133.1,1512.01 L1132,1512.01 C1129.03,1512.01 1127.55,1510.97 1127.55,1508.88 C1127.55,1508.16 1127.71,1507.5 1128.04,1506.57 L1129.86,1501.73 L1144.43,1501.73 L1147.4,1509.1 C1147.73,1509.98 1147.84,1510.31 1147.84,1510.58 C1147.84,1511.46 1146.47,1512.01 1144.43,1512.01 L1142.12,1512.01 L1142.12,1514.6 L1159.17,1514.6 L1159.17,1512.01 L1158.4,1512.01 C1155.54,1511.96 1155.05,1511.63 1153.78,1508.49 L1139.76,1474.12 M1137.06,1483.14 L1143.28,1498.76 L1130.96,1498.76 L1137.06,1483.14 "/>
<path class="Harmony" d="M461.251,1043.4 L479.731,1043.4 C484.626,1043.4 488.366,1042.63 491.281,1040.98 C496.836,1037.84 499.916,1031.57 499.916,1023.32 C499.916,1015.73 497.166,1009.79 492.106,1006.49 C489.081,1004.57 485.011,1003.69 478.741,1003.69 L461.251,1003.69 L461.251,1006.27 L462.296,1006.27 C465.376,1006.33 466.421,1006.49 466.861,1007.04 C467.191,1007.54 467.191,1007.65 467.191,1010.45 L467.191,1036.63 C467.191,1039.44 467.191,1039.55 466.861,1040.04 C466.421,1040.59 465.376,1040.76 462.296,1040.81 L461.251,1040.81 L461.251,1043.4 M476.486,1040.81 C473.681,1040.81 473.351,1040.48 473.351,1037.79 L473.351,1009.35 C473.351,1006.66 473.736,1006.27 476.486,1006.27 L479.346,1006.27 C488.751,1006.27 492.656,1011.39 492.656,1023.54 C492.656,1035.86 489.136,1040.81 480.226,1040.81 L476.486,1040.81 "/>
<path class="Harmony" d="M2266.06,1002.92 L2263.75,1002.92 L2251.1,1034.98 C2249.61,1039.27 2248.18,1040.59 2245.05,1040.81 L2244.83,1040.81 L2244.83,1043.4 L2259.4,1043.4 L2259.4,1040.81 L2258.3,1040.81 C2255.33,1040.81 2253.85,1039.77 2253.85,1037.68 C2253.85,1036.96 2254.01,1036.3 2254.34,1035.37 L2256.16,1030.53 L2270.73,1030.53 L2273.7,1037.9 C2274.03,1038.78 2274.14,1039.11 2274.14,1039.38 C2274.14,1040.26 2272.77,1040.81 2270.73,1040.81 L2268.42,1040.81 L2268.42,1043.4 L2285.47,1043.4 L2285.47,1040.81 L2284.7,1040.81 C2281.84,1040.76 2281.35,1040.43 2280.08,1037.29 L2266.06,1002.92 M2263.36,1011.94 L2269.58,1027.56 L2257.26,1027.56 L2263.36,1011.94 "/>
<path class="Harmony" d="M779.795,1474.89 L746.74,1474.89 L746.74,1477.47 L747.73,1477.47 C750.865,1477.53 751.91,1477.69 752.35,1478.24 C752.68,1478.74 752.68,1478.85 752.68,1481.65 L752.68,1507.83 C752.68,1510.64 752.68,1510.75 752.35,1511.24 C751.91,1511.79 750.865,1512.01 747.73,1512.01 L746.74,1512.01 L746.74,1514.6 L780.51,1514.6 L781.61,1499.91 L779.19,1499.91 C777.1,1509.7 774.845,1511.79 766.43,1512.01 L762.8,1512.01 C759.5,1511.9 758.675,1511.35 758.84,1509.37 L758.84,1495.35 L759.94,1495.35 C765.605,1495.13 767.64,1497.16 767.86,1503.27 L770.445,1503.27 L770.445,1485.23 L767.86,1485.23 C767.53,1490.62 765.385,1492.76 760.16,1492.76 L758.84,1492.76 L758.84,1480.22 C758.785,1477.91 759.335,1477.53 762.305,1477.47 L765.165,1477.47 C774.185,1477.42 776.44,1479.4 778.2,1488.91 L780.565,1488.91 L779.795,1474.89 "/>
<path class="Harmony" d="M790.546,1489.19 L792.966,1489.57 L793.956,1485.23 C794.781,1481.6 795.166,1481.05 796.761,1481.05 C797.036,1481.05 797.476,1481.05 797.971,1481.1 C804.736,1481.43 804.736,1481.43 807.266,1481.43 C807.981,1481.43 809.246,1481.43 810.786,1481.38 L807.046,1488.91 C802.976,1497 802.481,1497.99 801.106,1501.4 C799.401,1505.52 798.521,1508.99 798.521,1511.3 C798.521,1513.83 799.841,1515.37 801.986,1515.37 C804.626,1515.37 805.671,1513.61 805.616,1508.82 C805.341,1500.9 806.331,1497.05 812.216,1484.18 C813.206,1482.04 814.251,1479.84 815.241,1477.69 L815.241,1476.1 C811.941,1476.37 810.181,1476.48 806.771,1476.48 C801.986,1476.48 798.191,1476.32 792.251,1475.88 L790.546,1489.19 "/>
<path class="Harmony" d="M1356.9,1474.12 L1354.59,1474.12 L1341.94,1506.18 C1340.46,1510.47 1339.03,1511.79 1335.89,1512.01 L1335.67,1512.01 L1335.67,1514.6 L1350.25,1514.6 L1350.25,1512.01 L1349.15,1512.01 C1346.18,1512.01 1344.69,1510.97 1344.69,1508.88 C1344.69,1508.16 1344.86,1507.5 1345.19,1506.57 L1347,1501.73 L1361.58,1501.73 L1364.55,1509.1 C1364.88,1509.98 1364.99,1510.31 1364.99,1510.58 C1364.99,1511.46 1363.61,1512.01 1361.58,1512.01 L1359.27,1512.01 L1359.27,1514.6 L1376.32,1514.6 L1376.32,1512.01 L1375.55,1512.01 C1372.69,1511.96 1372.19,1511.63 1370.93,1508.49 L1356.9,1474.12 M1354.21,1483.14 L1360.42,1498.76 L1348.1,1498.76 L1354.21,1483.14 "/>
<path class="Harmony" d="M2559.56,531.718 L2557.25,531.718 L2544.6,563.783 C2543.12,568.073 2541.69,569.393 2538.55,569.613 L2538.33,569.613 L2538.33,572.198 L2552.91,572.198 L2552.91,569.613 L2551.81,569.613 C2548.84,569.613 2547.35,568.568 2547.35,566.478 C2547.35,565.763 2547.52,565.103 2547.85,564.168 L2549.66,559.328 L2564.24,559.328 L2567.21,566.698 C2567.54,567.578 2567.65,567.908 2567.65,568.183 C2567.65,569.063 2566.27,569.613 2564.24,569.613 L2561.93,569.613 L2561.93,572.198 L2578.98,572.198 L2578.98,569.613 L2578.21,569.613 C2575.35,569.558 2574.85,569.228 2573.59,566.093 L2559.56,531.718 M2556.87,540.738 L2563.08,556.358 L2550.76,556.358 L2556.87,540.738 "/>
<path class="Harmony" d="M727.65,1043.4 L746.13,1043.4 C751.025,1043.4 754.765,1042.63 757.68,1040.98 C763.235,1037.84 766.315,1031.57 766.315,1023.32 C766.315,1015.73 763.565,1009.79 758.505,1006.49 C755.48,1004.57 751.41,1003.69 745.14,1003.69 L727.65,1003.69 L727.65,1006.27 L728.695,1006.27 C731.775,1006.33 732.82,1006.49 733.26,1007.04 C733.59,1007.54 733.59,1007.65 733.59,1010.45 L733.59,1036.63 C733.59,1039.44 733.59,1039.55 733.26,1040.04 C732.82,1040.59 731.775,1040.76 728.695,1040.81 L727.65,1040.81 L727.65,1043.4 M742.885,1040.81 C740.08,1040.81 739.75,1040.48 739.75,1037.79 L739.75,1009.35 C739.75,1006.66 740.135,1006.27 742.885,1006.27 L745.745,1006.27 C755.15,1006.27 759.055,1011.39 759.055,1023.54 C759.055,1035.86 755.535,1040.81 746.625,1040.81 L742.885,1040.81 "/>
<path class="Harmony" d="M1117.05,531.718 L1114.74,531.718 L1102.09,563.783 C1100.6,568.073 1099.17,569.393 1096.04,569.613 L1095.82,569.613 L1095.82,572.198 L1110.39,572.198 L1110.39,569.613 L1109.29,569.613 C1106.32,569.613 1104.84,568.568 1104.84,566.478 C1104.84,565.763 1105,565.103 1105.33,564.168 L1107.15,559.328 L1121.72,559.328 L1124.69,566.698 C1125.02,567.578 1125.13,567.908 1125.13,568.183 C1125.13,569.063 1123.76,569.613 1121.72,569.613 L1119.41,569.613 L1119.41,572.198 L1136.46,572.198 L1136.46,569.613 L1135.69,569.613 C1132.83,569.558 1132.34,569.228 1131.07,566.093 L1117.05,531.718 M1114.35,540.738 L1120.57,556.358 L1108.25,556.358 L1114.35,540.738 "/>
<path class="Harmony" d="M1629.05,1043.4 L1647.53,1043.4 C1652.42,1043.4 1656.16,1042.63 1659.08,1040.98 C1664.63,1037.84 1667.71,1031.57 1667.71,1023.32 C1667.71,1015.73 1664.96,1009.79 1659.9,1006.49 C1656.88,1004.57 1652.81,1003.69 1646.54,1003.69 L1629.05,1003.69 L1629.05,1006.27 L1630.09,1006.27 C1633.17,1006.33 1634.22,1006.49 1634.66,1007.04 C1634.99,1007.54 1634.99,1007.65 1634.99,1010.45 L1634.99,1036.63 C1634.99,1039.44 1634.99,1039.55 1634.66,1040.04 C1634.22,1040.59 1633.17,1040.76 1630.09,1040.81 L1629.05,1040.81 L1629.05,1043.4 M1644.28,1040.81 C1641.48,1040.81 1641.15,1040.48 1641.15,1037.79 L1641.15,1009.35 C1641.15,1006.66 1641.53,1006.27 1644.28,1006.27 L1647.14,1006.27 C1656.55,1006.27 1660.45,1011.39 1660.45,1023.54 C1660.45,1035.86 1656.93,1040.81 1648.02,1040.81 L1644.28,1040.81 "/>
<path class="Harmony" d="M1895.45,1043.4 L1913.93,1043.4 C1918.82,1043.4 1922.56,1042.63 1925.48,1040.98 C1931.03,1037.84 1934.11,1031.57 1934.11,1023.32 C1934.11,1015.73 1931.36,1009.79 1926.3,1006.49 C1923.28,1004.57 1919.21,1003.69 1912.94,1003.69 L1895.45,1003.69 L1895.45,1006.27 L1896.49,1006.27 C1899.57,1006.33 1900.62,1006.49 1901.06,1007.04 C1901.39,1007.54 1901.39,1007.65 1901.39,1010.45 L1901.39,1036.63 C1901.39,1039.44 1901.39,1039.55 1901.06,1040.04 C1900.62,1040.59 1899.57,1040.76 1896.49,1040.81 L1895.45,1040.81 L1895.45,1043.4 M1910.68,1040.81 C1907.88,1040.81 1907.55,1040.48 1907.55,1037.79 L1907.55,1009.35 C1907.55,1006.66 1907.93,1006.27 1910.68,1006.27 L1913.54,1006.27 C1922.95,1006.27 1926.85,1011.39 1926.85,1023.54 C1926.85,1035.86 1923.33,1040.81 1914.42,1040.81 L1910.68,1040.81 "/>
<path class="Harmony" d="M2267.95,531.718 L2265.64,531.718 L2252.99,563.783 C2251.51,568.073 2250.08,569.393 2246.94,569.613 L2246.72,569.613 L2246.72,572.198 L2261.3,572.198 L2261.3,569.613 L2260.2,569.613 C2257.23,569.613 2255.74,568.568 2255.74,566.478 C2255.74,565.763 2255.91,565.103 2256.24,564.168 L2258.05,559.328 L2272.63,559.328 L2275.6,566.698 C2275.93,567.578 2276.04,567.908 2276.04,568.183 C2276.04,569.063 2274.66,569.613 2272.63,569.613 L2270.32,569.613 L2270.32,572.198 L2287.37,572.198 L2287.37,569.613 L2286.6,569.613 C2283.74,569.558 2283.24,569.228 2281.98,566.093 L2267.95,531.718 M2265.26,540.738 L2271.47,556.358 L2259.15,556.358 L2265.26,540.738 "/>
<path class="Harmony" d="M1610.75,1474.12 L1608.44,1474.12 L1595.79,1506.18 C1594.31,1510.47 1592.88,1511.79 1589.74,1512.01 L1589.52,1512.01 L1589.52,1514.6 L1604.1,1514.6 L1604.1,1512.01 L1603,1512.01 C1600.03,1512.01 1598.54,1510.97 1598.54,1508.88 C1598.54,1508.16 1598.71,1507.5 1599.04,1506.57 L1600.85,1501.73 L1615.43,1501.73 L1618.4,1509.1 C1618.73,1509.98 1618.84,1510.31 1618.84,1510.58 C1618.84,1511.46 1617.46,1512.01 1615.43,1512.01 L1613.12,1512.01 L1613.12,1514.6 L1630.17,1514.6 L1630.17,1512.01 L1629.4,1512.01 C1626.54,1511.96 1626.04,1511.63 1624.78,1508.49 L1610.75,1474.12 M1608.06,1483.14 L1614.27,1498.76 L1601.95,1498.76 L1608.06,1483.14 "/>
<path class="Harmony" d="M1729.66,532.488 L1696.61,532.488 L1696.61,535.073 L1697.6,535.073 C1700.73,535.128 1701.78,535.293 1702.22,535.843 C1702.55,536.338 1702.55,536.448 1702.55,539.253 L1702.55,565.433 C1702.55,568.238 1702.55,568.348 1702.22,568.843 C1701.78,569.393 1700.73,569.613 1697.6,569.613 L1696.61,569.613 L1696.61,572.198 L1730.38,572.198 L1731.48,557.513 L1729.06,557.513 C1726.97,567.303 1724.71,569.393 1716.3,569.613 L1712.67,569.613 C1709.37,569.503 1708.54,568.953 1708.71,566.973 L1708.71,552.948 L1709.81,552.948 C1715.47,552.728 1717.51,554.763 1717.73,560.868 L1720.31,560.868 L1720.31,542.828 L1717.73,542.828 C1717.4,548.218 1715.25,550.363 1710.03,550.363 L1708.71,550.363 L1708.71,537.823 C1708.65,535.513 1709.2,535.128 1712.17,535.073 L1715.03,535.073 C1724.05,535.018 1726.31,536.998 1728.07,546.513 L1730.43,546.513 L1729.66,532.488 "/>
<path class="Harmony" d="M1740.41,546.788 L1742.83,547.173 L1743.82,542.828 C1744.65,539.198 1745.03,538.648 1746.63,538.648 C1746.9,538.648 1747.34,538.648 1747.84,538.703 C1754.6,539.033 1754.6,539.033 1757.13,539.033 C1757.85,539.033 1759.11,539.033 1760.65,538.978 L1756.91,546.513 C1752.84,554.598 1752.35,555.588 1750.97,558.998 C1749.27,563.123 1748.39,566.588 1748.39,568.898 C1748.39,571.428 1749.71,572.968 1751.85,572.968 C1754.49,572.968 1755.54,571.208 1755.48,566.423 C1755.21,558.503 1756.2,554.653 1762.08,541.783 C1763.07,539.638 1764.12,537.438 1765.11,535.293 L1765.11,533.698 C1761.81,533.973 1760.05,534.083 1756.64,534.083 C1751.85,534.083 1748.06,533.918 1742.12,533.478 L1740.41,546.788 "/>
<path class="Harmony" d="M2578.74,1002.92 L2576.43,1002.92 L2563.78,1034.98 C2562.3,1039.27 2560.87,1040.59 2557.73,1040.81 L2557.51,1040.81 L2557.51,1043.4 L2572.09,1043.4 L2572.09,1040.81 L2570.99,1040.81 C2568.02,1040.81 2566.53,1039.77 2566.53,1037.68 C2566.53,1036.96 2566.7,1036.3 2567.03,1035.37 L2568.84,1030.53 L2583.42,1030.53 L2586.39,1037.9 C2586.72,1038.78 2586.83,1039.11 2586.83,1039.38 C2586.83,1040.26 2585.45,1040.81 2583.42,1040.81 L2581.11,1040.81 L2581.11,1043.4 L2598.16,1043.4 L2598.16,1040.81 L2597.39,1040.81 C2594.53,1040.76 2594.03,1040.43 2592.77,1037.29 L2578.74,1002.92 M2576.05,1011.94 L2582.26,1027.56 L2569.94,1027.56 L2576.05,1011.94 "/>
<path class="Harmony" d="M516.267,531.718 L513.957,531.718 L501.307,563.783 C499.822,568.073 498.392,569.393 495.257,569.613 L495.037,569.613 L495.037,572.198 L509.612,572.198 L509.612,569.613 L508.512,569.613 C505.542,569.613 504.057,568.568 504.057,566.478 C504.057,565.763 504.222,565.103 504.552,564.168 L506.367,559.328 L520.942,559.328 L523.912,566.698 C524.242,567.578 524.352,567.908 524.352,568.183 C524.352,569.063 522.977,569.613 520.942,569.613 L518.632,569.613 L518.632,572.198 L535.682,572.198 L535.682,569.613 L534.912,569.613 C532.052,569.558 531.557,569.228 530.292,566.093 L516.267,531.718 M513.572,540.738 L519.787,556.358 L507.467,556.358 L513.572,540.738 "/>
<path class="Harmony" d="M2325.13,1474.12 L2322.82,1474.12 L2310.17,1506.18 C2308.68,1510.47 2307.25,1511.79 2304.12,1512.01 L2303.9,1512.01 L2303.9,1514.6 L2318.47,1514.6 L2318.47,1512.01 L2317.37,1512.01 C2314.4,1512.01 2312.92,1510.97 2312.92,1508.88 C2312.92,1508.16 2313.08,1507.5 2313.41,1506.57 L2315.23,1501.73 L2329.8,1501.73 L2332.77,1509.1 C2333.1,1509.98 2333.21,1510.31 2333.21,1510.58 C2333.21,1511.46 2331.84,1512.01 2329.8,1512.01 L2327.49,1512.01 L2327.49,1514.6 L2344.54,1514.6 L2344.54,1512.01 L2343.77,1512.01 C2340.91,1511.96 2340.42,1511.63 2339.15,1508.49 L2325.13,1474.12 M2322.43,1483.14 L2328.65,1498.76 L2316.33,1498.76 L2322.43,1483.14 "/>
<path class="Harmony" d="M1410.94,1002.92 L1408.63,1002.92 L1395.98,1034.98 C1394.5,1039.27 1393.07,1040.59 1389.93,1040.81 L1389.71,1040.81 L1389.71,1043.4 L1404.29,1043.4 L1404.29,1040.81 L1403.19,1040.81 C1400.22,1040.81 1398.73,1039.77 1398.73,1037.68 C1398.73,1036.96 1398.9,1036.3 1399.23,1035.37 L1401.04,1030.53 L1415.62,1030.53 L1418.59,1037.9 C1418.92,1038.78 1419.03,1039.11 1419.03,1039.38 C1419.03,1040.26 1417.65,1040.81 1415.62,1040.81 L1413.31,1040.81 L1413.31,1043.4 L1430.36,1043.4 L1430.36,1040.81 L1429.59,1040.81 C1426.73,1040.76 1426.23,1040.43 1424.97,1037.29 L1410.94,1002.92 M1408.25,1011.94 L1414.46,1027.56 L1402.14,1027.56 L1408.25,1011.94 "/>
<path class="Harmony" d="M858.543,531.718 L856.233,531.718 L843.583,563.783 C842.098,568.073 840.668,569.393 837.533,569.613 L837.313,569.613 L837.313,572.198 L851.888,572.198 L851.888,569.613 L850.788,569.613 C847.818,569.613 846.333,568.568 846.333,566.478 C846.333,565.763 846.498,565.103 846.828,564.168 L848.643,559.328 L863.218,559.328 L866.188,566.698 C866.518,567.578 866.628,567.908 866.628,568.183 C866.628,569.063 865.253,569.613 863.218,569.613 L860.908,569.613 L860.908,572.198 L877.958,572.198 L877.958,569.613 L877.188,569.613 C874.328,569.558 873.833,569.228 872.568,566.093 L858.543,531.718 M855.848,540.738 L862.063,556.358 L849.743,556.358 L855.848,540.738 "/>
<path class="Harmony" d="M1098.26,1002.92 L1095.95,1002.92 L1083.3,1034.98 C1081.82,1039.27 1080.39,1040.59 1077.25,1040.81 L1077.03,1040.81 L1077.03,1043.4 L1091.61,1043.4 L1091.61,1040.81 L1090.51,1040.81 C1087.54,1040.81 1086.05,1039.77 1086.05,1037.68 C1086.05,1036.96 1086.22,1036.3 1086.55,1035.37 L1088.36,1030.53 L1102.94,1030.53 L1105.91,1037.9 C1106.24,1038.78 1106.35,1039.11 1106.35,1039.38 C1106.35,1040.26 1104.97,1040.81 1102.94,1040.81 L1100.63,1040.81 L1100.63,1043.4 L1117.68,1043.4 L1117.68,1040.81 L1116.91,1040.81 C1114.05,1040.76 1113.55,1040.43 1112.29,1037.29 L1098.26,1002.92 M1095.57,1011.94 L1101.78,1027.56 L1089.46,1027.56 L1095.57,1011.94 "/>
<path class="Harmony" d="M2021.27,532.488 L1988.22,532.488 L1988.22,535.073 L1989.21,535.073 C1992.34,535.128 1993.39,535.293 1993.83,535.843 C1994.16,536.338 1994.16,536.448 1994.16,539.253 L1994.16,565.433 C1994.16,568.238 1994.16,568.348 1993.83,568.843 C1993.39,569.393 1992.34,569.613 1989.21,569.613 L1988.22,569.613 L1988.22,572.198 L2021.99,572.198 L2023.09,557.513 L2020.67,557.513 C2018.58,567.303 2016.32,569.393 2007.91,569.613 L2004.28,569.613 C2000.98,569.503 2000.15,568.953 2000.32,566.973 L2000.32,552.948 L2001.42,552.948 C2007.08,552.728 2009.12,554.763 2009.34,560.868 L2011.92,560.868 L2011.92,542.828 L2009.34,542.828 C2009.01,548.218 2006.86,550.363 2001.64,550.363 L2000.32,550.363 L2000.32,537.823 C2000.26,535.513 2000.81,535.128 2003.78,535.073 L2006.64,535.073 C2015.66,535.018 2017.92,536.998 2019.68,546.513 L2022.04,546.513 L2021.27,532.488 "/>
<path class="Harmony" d="M2032.02,546.788 L2034.44,547.173 L2035.43,542.828 C2036.26,539.198 2036.64,538.648 2038.24,538.648 C2038.51,538.648 2038.95,538.648 2039.45,538.703 C2046.21,539.033 2046.21,539.033 2048.74,539.033 C2049.46,539.033 2050.72,539.033 2052.26,538.978 L2048.52,546.513 C2044.45,554.598 2043.96,555.588 2042.58,558.998 C2040.88,563.123 2040,566.588 2040,568.898 C2040,571.428 2041.32,572.968 2043.46,572.968 C2046.1,572.968 2047.15,571.208 2047.09,566.423 C2046.82,558.503 2047.81,554.653 2053.69,541.783 C2054.68,539.638 2055.73,537.438 2056.72,535.293 L2056.72,533.698 C2053.42,533.973 2051.66,534.083 2048.25,534.083 C2043.46,534.083 2039.67,533.918 2033.73,533.478 L2032.02,546.788 "/>
<path class="Harmony" d="M494.306,1474.89 L461.251,1474.89 L461.251,1477.47 L462.241,1477.47 C465.376,1477.53 466.421,1477.69 466.861,1478.24 C467.191,1478.74 467.191,1478.85 467.191,1481.65 L467.191,1507.83 C467.191,1510.64 467.191,1510.75 466.861,1511.24 C466.421,1511.79 465.376,1512.01 462.241,1512.01 L461.251,1512.01 L461.251,1514.6 L495.021,1514.6 L496.121,1499.91 L493.701,1499.91 C491.611,1509.7 489.356,1511.79 480.941,1512.01 L477.311,1512.01 C474.011,1511.9 473.186,1511.35 473.351,1509.37 L473.351,1495.35 L474.451,1495.35 C480.116,1495.13 482.151,1497.16 482.371,1503.27 L484.956,1503.27 L484.956,1485.23 L482.371,1485.23 C482.041,1490.62 479.896,1492.76 474.671,1492.76 L473.351,1492.76 L473.351,1480.22 C473.296,1477.91 473.846,1477.53 476.816,1477.47 L479.676,1477.47 C488.696,1477.42 490.951,1479.4 492.711,1488.91 L495.076,1488.91 L494.306,1474.89 "/>
<path class="Harmony" d="M505.057,1489.19 L507.477,1489.57 L508.467,1485.23 C509.292,1481.6 509.677,1481.05 511.272,1481.05 C511.547,1481.05 511.987,1481.05 512.482,1481.1 C519.247,1481.43 519.247,1481.43 521.777,1481.43 C522.492,1481.43 523.757,1481.43 525.297,1481.38 L521.557,1488.91 C517.487,1497 516.992,1497.99 515.617,1501.4 C513.912,1505.52 513.032,1508.99 513.032,1511.3 C513.032,1513.83 514.352,1515.37 516.497,1515.37 C519.137,1515.37 520.182,1513.61 520.127,1508.82 C519.852,1500.9 520.842,1497.05 526.727,1484.18 C527.717,1482.04 528.762,1479.84 529.752,1477.69 L529.752,1476.1 C526.452,1476.37 524.692,1476.48 521.282,1476.48 C516.497,1476.48 512.702,1476.32 506.762,1475.88 L505.057,1489.19 "/>
<path class="Harmony" d="M1459.33,531.718 L1457.02,531.718 L1444.37,563.783 C1442.88,568.073 1441.45,569.393 1438.32,569.613 L1438.1,569.613 L1438.1,572.198 L1452.67,572.198 L1452.67,569.613 L1451.57,569.613 C1448.6,569.613 1447.12,568.568 1447.12,566.478 C1447.12,565.763 1447.28,565.103 1447.61,564.168 L1449.43,559.328 L1464,559.328 L1466.97,566.698 C1467.3,567.578 1467.41,567.908 1467.41,568.183 C1467.41,569.063 1466.04,569.613 1464,569.613 L1461.69,569.613 L1461.69,572.198 L1478.74,572.198 L1478.74,569.613 L1477.97,569.613 C1475.11,569.558 1474.62,569.228 1473.35,566.093 L1459.33,531.718 M1456.63,540.738 L1462.85,556.358 L1450.53,556.358 L1456.63,540.738 "/>
<path class="NoteDot" transform="matrix(0.992,0,0,0.992,1940.07,1167.4)" d="M0,0 C0,2.8 2.2,5 5,5 C7.8,5 10,2.8 10,0 C10,-2.8 7.8,-5 5,-5 C2.2,-5 0,-2.8 0,0"/>
<path class="NoteDot" transform="matrix(0.992,0,0,0.992,1976.73,1663.4)" d="M0,0 C0,2.8 2.2,5 5,5 C7.8,5 10,2.8 10,0 C10,-2.8 7.8,-5 5,-5 C2.2,-5 0,-2.8 0,0"/>
<path class="NoteDot" transform="matrix(0.992,0,0,0.992,1380.3,1613.8)" d="M0,0 C0,2.8 2.2,5 5,5 C7.8,5 10,2.8 10,0 C10,-2.8 7.8,-5 5,-5 C2.2,-5 0,-2.8 0,0"/>
<path class="NoteDot" transform="matrix(0.992,0,0,0.992,1163.16,1638.6)" d="M0,0 C0,2.8 2.2,5 5,5 C7.8,5 10,2.8 10,0 C10,-2.8 7.8,-5 5,-5 C2.2,-5 0,-2.8 0,0"/>
<path class="NoteDot" transform="matrix(0.992,0,0,0.992,791.363,1589)" d="M0,0 C0,2.8 2.2,5 5,5 C7.8,5 10,2.8 10,0 C10,-2.8 7.8,-5 5,-5 C2.2,-5 0,-2.8 0,0"/>
<path class="NoteDot" transform="matrix(0.992,0,0,0.992,2602.14,1217)" d="M0,0 C0,2.8 2.2,5 5,5 C7.8,5 10,2.8 10,0 C10,-2.8 7.8,-5 5,-5 C2.2,-5 0,-2.8 0,0"/>
<path class="NoteDot" transform="matrix(0.992,0,0,0.992,2289.46,1192.2)" d="M0,0 C0,2.8 2.2,5 5,5 C7.8,5 10,2.8 10,0 C10,-2.8 7.8,-5 5,-5 C2.2,-5 0,-2.8 0,0"/>
<path class="NoteDot" transform="matrix(0.992,0,0,0.992,539.664,720.998)" d="M0,0 C0,2.8 2.2,5 5,5 C7.8,5 10,2.8 10,0 C10,-2.8 7.8,-5 5,-5 C2.2,-5 0,-2.8 0,0"/>
<path class="NoteDot" transform="matrix(0.992,0,0,0.992,881.94,745.798)" d="M0,0 C0,2.8 2.2,5 5,5 C7.8,5 10,2.8 10,0 C10,-2.8 7.8,-5 5,-5 C2.2,-5 0,-2.8 0,0"/>
<path class="NoteDot" transform="matrix(0.992,0,0,0.992,2348.53,1713)" d="M0,0 C0,2.8 2.2,5 5,5 C7.8,5 10,2.8 10,0 C10,-2.8 7.8,-5 5,-5 C2.2,-5 0,-2.8 0,0"/>
<path class="NoteDot" transform="matrix(0.992,0,0,0.992,1434.34,1217)" d="M0,0 C0,2.8 2.2,5 5,5 C7.8,5 10,2.8 10,0 C10,-2.8 7.8,-5 5,-5 C2.2,-5 0,-2.8 0,0"/>
<path class="NoteDot" transform="matrix(0.992,0,0,0.992,1121.66,1192.2)" d="M0,0 C0,2.8 2.2,5 5,5 C7.8,5 10,2.8 10,0 C10,-2.8 7.8,-5 5,-5 C2.2,-5 0,-2.8 0,0"/>
<path class="NoteDot" transform="matrix(0.992,0,0,0.992,772.273,1167.4)" d="M0,0 C0,2.8 2.2,5 5,5 C7.8,5 10,2.8 10,0 C10,-2.8 7.8,-5 5,-5 C2.2,-5 0,-2.8 0,0"/>
<path class="NoteDot" transform="matrix(0.992,0,0,0.992,2582.96,720.998)" d="M0,0 C0,2.8 2.2,5 5,5 C7.8,5 10,2.8 10,0 C10,-2.8 7.8,-5 5,-5 C2.2,-5 0,-2.8 0,0"/>
<path class="NoteDot" transform="matrix(0.992,0,0,0.992,2032.84,696.198)" d="M0,0 C0,2.8 2.2,5 5,5 C7.8,5 10,2.8 10,0 C10,-2.8 7.8,-5 5,-5 C2.2,-5 0,-2.8 0,0"/>
<path class="NoteDot" transform="matrix(0.992,0,0,0.992,2565.67,1713)" d="M0,0 C0,2.8 2.2,5 5,5 C7.8,5 10,2.8 10,0 C10,-2.8 7.8,-5 5,-5 C2.2,-5 0,-2.8 0,0"/>
<path class="NoteDot" transform="matrix(0.992,0,0,0.992,1482.72,745.798)" d="M0,0 C0,2.8 2.2,5 5,5 C7.8,5 10,2.8 10,0 C10,-2.8 7.8,-5 5,-5 C2.2,-5 0,-2.8 0,0"/>
<path class="NoteDot" transform="matrix(0.992,0,0,0.992,1140.45,720.998)" d="M0,0 C0,2.8 2.2,5 5,5 C7.8,5 10,2.8 10,0 C10,-2.8 7.8,-5 5,-5 C2.2,-5 0,-2.8 0,0"/>
</svg>
