<?xml version="1.0" encoding="UTF-8" standalone="no"?>
<svg width="2977.2px" height="4208.4px" viewBox="0 0 2977.2 4208.4"
 xmlns="http://www.w3.org/2000/svg" xmlns:xlink="http://www.w3.org/1999/xlink" version="1.2" baseProfile="tiny">
<title>花火</title>
<desc>Generated by MuseScore Studio 4.4.2</desc>
<path class="" fill="#ffffff" fill-rule="evenodd" d="M0,0 L2977.2,0 L2977.2,4208.4 L0,4208.4 L0,0 "/>
<polyline class="StaffLines" fill="none" stroke="#000000" stroke-width="2.73" stroke-linejoin="bevel" points="212.598,634.198 2764.6,634.198"/>
<polyline class="StaffLines" fill="none" stroke="#000000" stroke-width="2.73" stroke-linejoin="bevel" points="212.598,658.998 2764.6,658.998"/>
<polyline class="StaffLines" fill="none" stroke="#000000" stroke-width="2.73" stroke-linejoin="bevel" points="212.598,683.798 2764.6,683.798"/>
<polyline class="StaffLines" fill="none" stroke="#000000" stroke-width="2.73" stroke-linejoin="bevel" points="212.598,708.598 2764.6,708.598"/>
<polyline class="StaffLines" fill="none" stroke="#000000" stroke-width="2.73" stroke-linejoin="bevel" points="212.598,733.398 2764.6,733.398"/>
<polyline class="StaffLines" fill="none" stroke="#000000" stroke-width="2.73" stroke-linejoin="bevel" points="212.598,1105.4 2764.6,1105.4"/>
<polyline class="StaffLines" fill="none" stroke="#000000" stroke-width="2.73" stroke-linejoin="bevel" points="212.598,1130.2 2764.6,1130.2"/>
<polyline class="StaffLines" fill="none" stroke="#000000" stroke-width="2.73" stroke-linejoin="bevel" points="212.598,1155 2764.6,1155"/>
<polyline class="StaffLines" fill="none" stroke="#000000" stroke-width="2.73" stroke-linejoin="bevel" points="212.598,1179.8 2764.6,1179.8"/>
<polyline class="StaffLines" fill="none" stroke="#000000" stroke-width="2.73" stroke-linejoin="bevel" points="212.598,1204.6 2764.6,1204.6"/>
<path class="Text" d="M1413.59,223.93 L1398.3,223.93 C1392.69,223.93 1389.06,223.71 1386.09,223.27 L1386.09,230.86 C1389.06,230.42 1392.69,230.31 1398.3,230.31 L1413.59,230.31 L1413.59,232.29 C1413.59,234.93 1413.37,237.24 1413.15,239.44 L1420.74,239.44 C1420.52,237.35 1420.41,235.26 1420.41,232.18 L1420.41,230.31 L1446.7,230.31 L1446.7,232.95 C1446.7,235.7 1446.59,237.57 1446.26,240.1 L1453.85,240.1 C1453.63,237.9 1453.52,235.92 1453.52,232.84 L1453.52,230.31 L1470.57,230.31 C1476.29,230.31 1479.92,230.42 1483,230.86 L1483,223.27 C1479.92,223.71 1476.29,223.93 1470.57,223.93 L1453.52,223.93 L1453.52,220.41 C1453.52,217.66 1453.63,215.02 1454.07,212.6 L1446.04,212.6 C1446.48,215.13 1446.7,217.77 1446.7,220.41 L1446.7,223.93 L1420.41,223.93 L1420.41,220.41 C1420.41,217.55 1420.52,215.13 1420.96,212.6 L1412.93,212.6 C1413.37,215.24 1413.59,217.66 1413.59,220.41 L1413.59,223.93 M1442.96,276.18 C1455.06,270.35 1464.3,264.85 1474.09,257.37 C1476.62,255.39 1476.84,255.28 1478.27,254.29 L1472.44,248.79 C1467.71,254.73 1455.39,263.2 1442.96,269.03 L1442.96,253.41 C1442.96,248.79 1443.07,245.6 1443.51,242.41 L1435.26,242.41 C1435.7,245.82 1435.92,248.57 1435.92,253.63 L1435.92,299.28 C1435.92,307.31 1438.45,308.52 1455.5,308.52 C1470.13,308.52 1474.53,307.86 1477.39,305.11 C1480.03,302.69 1480.91,299.39 1482.67,285.86 C1479.7,284.87 1478.27,284.21 1475.63,282.34 C1474.97,293.45 1474.09,298.4 1472.44,299.94 C1470.68,301.59 1467.6,302.03 1457.04,302.03 C1444.61,302.03 1442.96,301.59 1442.96,298.29 L1442.96,276.18 M1404.57,298.29 C1404.57,303.68 1404.35,306.76 1403.91,310.5 L1412.38,310.5 C1411.94,306.1 1411.72,302.58 1411.72,298.29 L1411.72,258.03 C1414.14,254.51 1416.12,251.54 1417.99,248.35 C1419.2,246.15 1419.2,246.15 1420.74,243.73 L1413.81,240.43 C1412.71,243.95 1411.06,247.25 1408.31,251.32 C1401.6,261.44 1393.02,269.58 1383.34,275.3 C1385.21,277.17 1386.64,279.15 1387.52,281.35 C1395.66,275.74 1400.83,270.9 1404.9,265.29 C1404.68,269.69 1404.57,273.87 1404.57,277.94 L1404.57,298.29 M1506.98,267.38 C1511.38,261.22 1513.03,258.25 1515.67,252.2 C1518.42,246.15 1519.74,242.19 1521.83,234.05 L1514.46,231.74 C1512.81,239.77 1511.71,243.51 1508.96,249.45 C1506.54,254.95 1504.78,257.81 1500.27,263.53 L1506.98,267.38 M1568.25,263.86 C1576.17,254.29 1580.79,246.92 1587.06,234.27 L1579.8,230.75 C1574.96,242.96 1570.56,250.11 1562.09,260.01 L1568.25,263.86 M1539.98,213.48 C1540.42,216.45 1540.53,219.42 1540.53,226.13 C1540.53,238.12 1539.98,246.04 1538.77,253.19 C1537.01,263.64 1533.27,272.88 1527.44,280.8 C1519.74,291.58 1509.73,298.73 1495.32,303.9 C1497.85,306.32 1499.17,307.97 1500.71,310.83 C1506.54,308.19 1509.84,306.32 1513.91,303.68 C1524.36,296.97 1532.5,288.28 1537.78,278.05 C1541.41,270.9 1543.28,265.4 1544.71,256.6 C1545.92,262.65 1546.69,265.4 1548.45,269.91 C1551.86,278.82 1556.04,285.64 1561.98,292.13 C1569.35,300.27 1577.38,305.88 1588.49,310.94 C1590.14,307.86 1591.46,306.21 1593.88,303.9 C1586.62,301.04 1581.45,298.4 1575.95,294.33 C1565.83,286.96 1557.8,276.07 1553.18,263.64 C1549.55,253.85 1548.23,244.72 1548.23,230.09 C1548.23,219.42 1548.34,216.56 1548.78,213.48 L1539.98,213.48 "/>
<path class="MeasureNumber" d="M232.288,1027.64 C230.168,1027.88 227.568,1028.04 225.328,1028.04 C224.208,1028.04 222.928,1028 221.488,1027.92 C220.168,1027.84 218.848,1027.76 217.488,1027.68 L216.488,1027.64 L212.608,1036.08 L214.088,1036.56 L215.048,1034.96 C216.928,1031.84 217.808,1031.4 221.888,1031.44 L228.648,1031.44 L224.288,1037.68 C219.168,1044.88 219.168,1044.88 217.208,1048.08 C215.448,1050.92 214.728,1052.68 214.728,1054.12 C214.728,1055.52 215.608,1056.4 217.008,1056.4 C218.488,1056.4 219.248,1055.68 219.768,1053.8 C221.768,1046.28 222.968,1043.68 228.528,1034.68 L232.288,1028.84 L232.288,1027.64 "/>
<polyline class="BarLine" fill="none" stroke="#000000" stroke-width="4.46" stroke-linejoin="bevel" points="1978.87,1104.03 1978.87,1205.96"/>
<polyline class="BarLine" fill="none" stroke="#000000" stroke-width="4.46" stroke-linejoin="bevel" points="2740.42,1104.03 2740.42,1205.96"/>
<polyline class="BarLine" fill="none" stroke="#000000" stroke-width="13.64" stroke-linejoin="bevel" points="2757.78,1104.03 2757.78,1205.96"/>
<polyline class="BarLine" fill="none" stroke="#000000" stroke-width="4.46" stroke-linejoin="bevel" points="1934.54,632.834 1934.54,734.762"/>
<polyline class="BarLine" fill="none" stroke="#000000" stroke-width="4.46" stroke-linejoin="bevel" points="2762.37,632.834 2762.37,734.762"/>
<polyline class="BarLine" fill="none" stroke="#000000" stroke-width="4.46" stroke-linejoin="bevel" points="2406,1104.03 2406,1205.96"/>
<polyline class="BarLine" fill="none" stroke="#000000" stroke-width="4.46" stroke-linejoin="bevel" points="1610.21,632.834 1610.21,734.762"/>
<polyline class="BarLine" fill="none" stroke="#000000" stroke-width="4.46" stroke-linejoin="bevel" points="750.577,1104.03 750.577,1205.96"/>
<polyline class="BarLine" fill="none" stroke="#000000" stroke-width="4.46" stroke-linejoin="bevel" points="1084.99,1104.03 1084.99,1205.96"/>
<polyline class="BarLine" fill="none" stroke="#000000" stroke-width="4.46" stroke-linejoin="bevel" points="2348.46,632.834 2348.46,734.762"/>
<polyline class="BarLine" fill="none" stroke="#000000" stroke-width="4.46" stroke-linejoin="bevel" points="1196.3,632.834 1196.3,734.762"/>
<polyline class="BarLine" fill="none" stroke="#000000" stroke-width="4.46" stroke-linejoin="bevel" points="1512.13,1104.03 1512.13,1205.96"/>
<polyline class="BarLine" fill="none" stroke="#000000" stroke-width="4.46" stroke-linejoin="bevel" points="776.087,632.834 776.087,734.762"/>
<polyline class="LedgerLine" fill="none" stroke="#000000" stroke-width="3.97" stroke-linejoin="bevel" points="2004.66,1229.4 2054.24,1229.4"/>
<polyline class="LedgerLine" fill="none" stroke="#000000" stroke-width="3.97" stroke-linejoin="bevel" points="2081.87,758.198 2131.46,758.198"/>
<polyline class="LedgerLine" fill="none" stroke="#000000" stroke-width="3.97" stroke-linejoin="bevel" points="1960.33,758.198 2009.92,758.198"/>
<polyline class="LedgerLine" fill="none" stroke="#000000" stroke-width="3.97" stroke-linejoin="bevel" points="1503.42,758.198 1553.01,758.198"/>
<polyline class="LedgerLine" fill="none" stroke="#000000" stroke-width="3.97" stroke-linejoin="bevel" points="1222.09,758.198 1271.67,758.198"/>
<polyline class="Stem" fill="none" stroke="#000000" stroke-width="2.73" stroke-linejoin="bevel" points="612.963,729.43 612.963,659.084"/>
<polyline class="Stem" fill="none" stroke="#000000" stroke-width="2.73" stroke-linejoin="bevel" points="2281.21,741.83 2281.21,665.198"/>
<polyline class="Stem" fill="none" stroke="#000000" stroke-width="2.73" stroke-linejoin="bevel" points="1150.33,1213.03 1150.33,1136.4"/>
<polyline class="Stem" fill="none" stroke="#000000" stroke-width="2.73" stroke-linejoin="bevel" points="2044.2,1237.83 2044.2,1136.33"/>
<polyline class="Stem" fill="none" stroke="#000000" stroke-width="2.73" stroke-linejoin="bevel" points="1276.13,1213.03 1276.13,1136.4"/>
<polyline class="Stem" fill="none" stroke="#000000" stroke-width="2.73" stroke-linejoin="bevel" points="1261.63,766.63 1261.63,665.13"/>
<polyline class="Stem" fill="none" stroke="#000000" stroke-width="2.73" stroke-linejoin="bevel" points="1342.29,1151.03 1342.29,1086.88"/>
<polyline class="Stem" fill="none" stroke="#000000" stroke-width="2.73" stroke-linejoin="bevel" points="1441.52,1163.43 1441.52,1092.92"/>
<polyline class="Stem" fill="none" stroke="#000000" stroke-width="2.73" stroke-linejoin="bevel" points="2170,1200.63 2170,1130.26"/>
<polyline class="Stem" fill="none" stroke="#000000" stroke-width="2.73" stroke-linejoin="bevel" points="815.91,1163.43 815.91,1086.8"/>
<polyline class="Stem" fill="none" stroke="#000000" stroke-width="2.73" stroke-linejoin="bevel" points="1033.17,729.43 1033.17,659.084"/>
<polyline class="Stem" fill="none" stroke="#000000" stroke-width="2.73" stroke-linejoin="bevel" points="1383.17,729.43 1383.17,659.066"/>
<polyline class="Stem" fill="none" stroke="#000000" stroke-width="2.73" stroke-linejoin="bevel" points="2236.16,1213.03 2236.16,1136.4"/>
<polyline class="Stem" fill="none" stroke="#000000" stroke-width="2.73" stroke-linejoin="bevel" points="1447.09,741.83 1447.09,677.77"/>
<polyline class="Stem" fill="none" stroke="#000000" stroke-width="2.73" stroke-linejoin="bevel" points="679.968,1175.83 679.968,1105.4"/>
<polyline class="Stem" fill="none" stroke="#000000" stroke-width="2.73" stroke-linejoin="bevel" points="580.731,1175.83 580.731,1105.4"/>
<polyline class="Stem" fill="none" stroke="#000000" stroke-width="2.73" stroke-linejoin="bevel" points="514.572,1200.63 514.572,1130.2"/>
<polyline class="Stem" fill="none" stroke="#000000" stroke-width="2.73" stroke-linejoin="bevel" points="1542.96,766.63 1542.96,689.827"/>
<polyline class="Stem" fill="none" stroke="#000000" stroke-width="2.73" stroke-linejoin="bevel" points="549.046,741.83 549.046,640.33"/>
<polyline class="Stem" fill="none" stroke="#000000" stroke-width="2.73" stroke-linejoin="bevel" points="388.771,1200.63 388.771,1130.2"/>
<polyline class="Stem" fill="none" stroke="#000000" stroke-width="2.73" stroke-linejoin="bevel" points="2335.4,1213.03 2335.4,1136.4"/>
<polyline class="Stem" fill="none" stroke="#000000" stroke-width="2.73" stroke-linejoin="bevel" points="937.296,704.63 937.296,634.113"/>
<polyline class="Stem" fill="none" stroke="#000000" stroke-width="2.73" stroke-linejoin="bevel" points="1675.54,741.83 1675.54,658.998"/>
<polyline class="Stem" fill="none" stroke="#000000" stroke-width="2.73" stroke-linejoin="bevel" points="427.506,704.63 427.506,634.266"/>
<polyline class="Stem" fill="none" stroke="#000000" stroke-width="2.73" stroke-linejoin="bevel" points="1577.47,1175.83 1577.47,1086.8"/>
<polyline class="Stem" fill="none" stroke="#000000" stroke-width="2.73" stroke-linejoin="bevel" points="1676.7,1163.43 1676.7,1086.8"/>
<polyline class="Stem" fill="none" stroke="#000000" stroke-width="2.73" stroke-linejoin="bevel" points="2695.12,741.83 2695.12,665.113"/>
<polyline class="Stem" fill="none" stroke="#000000" stroke-width="2.73" stroke-linejoin="bevel" points="2471.34,1175.83 2471.34,1093"/>
<polyline class="Stem" fill="none" stroke="#000000" stroke-width="2.73" stroke-linejoin="bevel" points="841.42,692.23 841.42,628.084"/>
<polyline class="Stem" fill="none" stroke="#000000" stroke-width="2.73" stroke-linejoin="bevel" points="1999.87,766.63 1999.87,689.998"/>
<polyline class="Stem" fill="none" stroke="#000000" stroke-width="2.73" stroke-linejoin="bevel" points="1742.86,1175.83 1742.86,1086.8"/>
<polyline class="Stem" fill="none" stroke="#000000" stroke-width="2.73" stroke-linejoin="bevel" points="708.839,741.83 708.839,665.113"/>
<polyline class="Stem" fill="none" stroke="#000000" stroke-width="2.73" stroke-linejoin="bevel" points="2599.25,729.43 2599.25,659.084"/>
<polyline class="Stem" fill="none" stroke="#000000" stroke-width="2.73" stroke-linejoin="bevel" points="2535.33,729.43 2535.33,658.998"/>
<polyline class="Stem" fill="none" stroke="#000000" stroke-width="2.73" stroke-linejoin="bevel" points="2413.79,729.43 2413.79,658.998"/>
<polyline class="Stem" fill="none" stroke="#000000" stroke-width="2.73" stroke-linejoin="bevel" points="2121.41,766.63 2121.41,689.998"/>
<polyline class="Stem" fill="none" stroke="#000000" stroke-width="2.73" stroke-linejoin="bevel" points="1809.02,1200.63 1809.02,1130.28"/>
<polyline class="Stem" fill="none" stroke="#000000" stroke-width="2.73" stroke-linejoin="bevel" points="1908.26,1213.03 1908.26,1136.32"/>
<polyline class="Stem" fill="none" stroke="#000000" stroke-width="2.73" stroke-linejoin="bevel" points="2185.33,741.83 2185.33,665.198"/>
<polyline class="Stem" fill="none" stroke="#000000" stroke-width="2.73" stroke-linejoin="bevel" points="1129.05,741.83 1129.05,665.113"/>
<path class="Note" transform="matrix(0.992,0,0,0.992,2568.39,733.398)" d="M0,4.2 C0,8.5 3.1,13.3 11.2,13.3 C21.6,13.3 32.5,4.8 32.5,-4 C32.5,-9.9 27.5,-13.2 21.3,-13.2 C11.6,-13.2 0,-5 0,4.2"/>
<path class="Note" transform="matrix(0.992,0,0,0.992,2013.34,1241.8)" d="M0,4.2 C0,8.5 3.1,13.3 11.2,13.3 C21.6,13.3 32.5,4.8 32.5,-4 C32.5,-9.9 27.5,-13.2 21.3,-13.2 C11.6,-13.2 0,-5 0,4.2"/>
<path class="Note" transform="matrix(0.992,0,0,0.992,677.979,745.798)" d="M0,4.2 C0,8.5 3.1,13.3 11.2,13.3 C21.6,13.3 32.5,4.8 32.5,-4 C32.5,-9.9 27.5,-13.2 21.3,-13.2 C11.6,-13.2 0,-5 0,4.2"/>
<path class="Note" transform="matrix(0.992,0,0,0.992,2250.35,745.798)" d="M0,4.2 C0,8.5 3.1,13.3 11.2,13.3 C21.6,13.3 32.5,4.8 32.5,-4 C32.5,-9.9 27.5,-13.2 21.3,-13.2 C11.6,-13.2 0,-5 0,4.2"/>
<path class="Note" transform="matrix(0.992,0,0,0.992,2154.47,745.798)" d="M0,4.2 C0,8.5 3.1,13.3 11.2,13.3 C21.6,13.3 32.5,4.8 32.5,-4 C32.5,-9.9 27.5,-13.2 21.3,-13.2 C11.6,-13.2 0,-5 0,4.2"/>
<path class="Note" transform="matrix(0.992,0,0,0.992,1546.6,1179.8)" d="M0,4.2 C0,8.5 3.1,13.3 11.2,13.3 C21.6,13.3 32.5,4.8 32.5,-4 C32.5,-9.9 27.5,-13.2 21.3,-13.2 C11.6,-13.2 0,-5 0,4.2"/>
<path class="Note" transform="matrix(0.992,0,0,0.992,2090.55,770.598)" d="M0,4.2 C0,8.5 3.1,13.3 11.2,13.3 C21.6,13.3 32.5,4.8 32.5,-4 C32.5,-9.9 27.5,-13.2 21.3,-13.2 C11.6,-13.2 0,-5 0,4.2"/>
<path class="Note" transform="matrix(0.992,0,0,0.992,2440.48,1179.8)" d="M0,4.2 C0,8.5 3.1,13.3 11.2,13.3 C21.6,13.3 32.5,4.8 32.5,-4 C32.5,-9.9 27.5,-13.2 21.3,-13.2 C11.6,-13.2 0,-5 0,4.2"/>
<path class="Note" transform="matrix(0.992,0,0,0.992,2382.93,733.398)" d="M0,4.2 C0,8.5 3.1,13.3 11.2,13.3 C21.6,13.3 32.5,4.8 32.5,-4 C32.5,-9.9 27.5,-13.2 21.3,-13.2 C11.6,-13.2 0,-5 0,4.2"/>
<path class="Note" transform="matrix(0.992,0,0,0.992,1712,1179.8)" d="M0,4.2 C0,8.5 3.1,13.3 11.2,13.3 C21.6,13.3 32.5,4.8 32.5,-4 C32.5,-9.9 27.5,-13.2 21.3,-13.2 C11.6,-13.2 0,-5 0,4.2"/>
<path class="Note" transform="matrix(0.992,0,0,0.992,906.435,708.598)" d="M0,4.2 C0,8.5 3.1,13.3 11.2,13.3 C21.6,13.3 32.5,4.8 32.5,-4 C32.5,-9.9 27.5,-13.2 21.3,-13.2 C11.6,-13.2 0,-5 0,4.2"/>
<path class="Note" transform="matrix(0.992,0,0,0.992,1410.66,1167.4)" d="M0,4.2 C0,8.5 3.1,13.3 11.2,13.3 C21.6,13.3 32.5,4.8 32.5,-4 C32.5,-9.9 27.5,-13.2 21.3,-13.2 C11.6,-13.2 0,-5 0,4.2"/>
<path class="Note" transform="matrix(0.992,0,0,0.992,1002.31,733.398)" d="M0,4.2 C0,8.5 3.1,13.3 11.2,13.3 C21.6,13.3 32.5,4.8 32.5,-4 C32.5,-9.9 27.5,-13.2 21.3,-13.2 C11.6,-13.2 0,-5 0,4.2"/>
<path class="Note" transform="matrix(0.992,0,0,0.992,2504.47,733.398)" d="M0,4.2 C0,8.5 3.1,13.3 11.2,13.3 C21.6,13.3 32.5,4.8 32.5,-4 C32.5,-9.9 27.5,-13.2 21.3,-13.2 C11.6,-13.2 0,-5 0,4.2"/>
<path class="Note" transform="matrix(0.992,0,0,0.992,1778.16,1204.6)" d="M0,4.2 C0,8.5 3.1,13.3 11.2,13.3 C21.6,13.3 32.5,4.8 32.5,-4 C32.5,-9.9 27.5,-13.2 21.3,-13.2 C11.6,-13.2 0,-5 0,4.2"/>
<path class="Note" transform="matrix(0.992,0,0,0.992,1969.01,770.598)" d="M0,4.2 C0,8.5 3.1,13.3 11.2,13.3 C21.6,13.3 32.5,4.8 32.5,-4 C32.5,-9.9 27.5,-13.2 21.3,-13.2 C11.6,-13.2 0,-5 0,4.2"/>
<path class="Note" transform="matrix(0.992,0,0,0.992,1311.43,1155)" d="M0,4.2 C0,8.5 3.1,13.3 11.2,13.3 C21.6,13.3 32.5,4.8 32.5,-4 C32.5,-9.9 27.5,-13.2 21.3,-13.2 C11.6,-13.2 0,-5 0,4.2"/>
<path class="Note" transform="matrix(0.992,0,0,0.992,2304.54,1217)" d="M0,4.2 C0,8.5 3.1,13.3 11.2,13.3 C21.6,13.3 32.5,4.8 32.5,-4 C32.5,-9.9 27.5,-13.2 21.3,-13.2 C11.6,-13.2 0,-5 0,4.2"/>
<path class="Note" transform="matrix(0.992,0,0,0.992,396.645,708.598)" d="M0,4.2 C0,8.5 3.1,13.3 11.2,13.3 C21.6,13.3 32.5,4.8 32.5,-4 C32.5,-9.9 27.5,-13.2 21.3,-13.2 C11.6,-13.2 0,-5 0,4.2"/>
<path class="Note" transform="matrix(0.992,0,0,0.992,2664.26,745.798)" d="M0,4.2 C0,8.5 3.1,13.3 11.2,13.3 C21.6,13.3 32.5,4.8 32.5,-4 C32.5,-9.9 27.5,-13.2 21.3,-13.2 C11.6,-13.2 0,-5 0,4.2"/>
<path class="Note" transform="matrix(0.992,0,0,0.992,1245.27,1217)" d="M0,4.2 C0,8.5 3.1,13.3 11.2,13.3 C21.6,13.3 32.5,4.8 32.5,-4 C32.5,-9.9 27.5,-13.2 21.3,-13.2 C11.6,-13.2 0,-5 0,4.2"/>
<path class="Note" transform="matrix(0.992,0,0,0.992,1877.4,1217)" d="M0,4.2 C0,8.5 3.1,13.3 11.2,13.3 C21.6,13.3 32.5,4.8 32.5,-4 C32.5,-9.9 27.5,-13.2 21.3,-13.2 C11.6,-13.2 0,-5 0,4.2"/>
<path class="Note" transform="matrix(0.992,0,0,0.992,1644.68,745.798)" d="M0,4.2 C0,8.5 3.1,13.3 11.2,13.3 C21.6,13.3 32.5,4.8 32.5,-4 C32.5,-9.9 27.5,-13.2 21.3,-13.2 C11.6,-13.2 0,-5 0,4.2"/>
<path class="Note" transform="matrix(0.992,0,0,0.992,1119.47,1217)" d="M0,4.2 C0,8.5 3.1,13.3 11.2,13.3 C21.6,13.3 32.5,4.8 32.5,-4 C32.5,-9.9 27.5,-13.2 21.3,-13.2 C11.6,-13.2 0,-5 0,4.2"/>
<path class="Note" transform="matrix(0.992,0,0,0.992,1098.19,745.798)" d="M0,4.2 C0,8.5 3.1,13.3 11.2,13.3 C21.6,13.3 32.5,4.8 32.5,-4 C32.5,-9.9 27.5,-13.2 21.3,-13.2 C11.6,-13.2 0,-5 0,4.2"/>
<path class="Note" transform="matrix(0.992,0,0,0.992,1512.1,770.598)" d="M0,4.2 C0,8.5 3.1,13.3 11.2,13.3 C21.6,13.3 32.5,4.8 32.5,-4 C32.5,-9.9 27.5,-13.2 21.3,-13.2 C11.6,-13.2 0,-5 0,4.2"/>
<path class="Note" transform="matrix(0.992,0,0,0.992,357.911,1204.6)" d="M0,4.2 C0,8.5 3.1,13.3 11.2,13.3 C21.6,13.3 32.5,4.8 32.5,-4 C32.5,-9.9 27.5,-13.2 21.3,-13.2 C11.6,-13.2 0,-5 0,4.2"/>
<path class="Note" transform="matrix(0.992,0,0,0.992,2205.3,1217)" d="M0,4.2 C0,8.5 3.1,13.3 11.2,13.3 C21.6,13.3 32.5,4.8 32.5,-4 C32.5,-9.9 27.5,-13.2 21.3,-13.2 C11.6,-13.2 0,-5 0,4.2"/>
<path class="Note" transform="matrix(0.992,0,0,0.992,1230.77,770.598)" d="M0,4.2 C0,8.5 3.1,13.3 11.2,13.3 C21.6,13.3 32.5,4.8 32.5,-4 C32.5,-9.9 27.5,-13.2 21.3,-13.2 C11.6,-13.2 0,-5 0,4.2"/>
<path class="Note" transform="matrix(0.992,0,0,0.992,2139.14,1204.6)" d="M0,4.2 C0,8.5 3.1,13.3 11.2,13.3 C21.6,13.3 32.5,4.8 32.5,-4 C32.5,-9.9 27.5,-13.2 21.3,-13.2 C11.6,-13.2 0,-5 0,4.2"/>
<path class="Note" transform="matrix(0.992,0,0,0.992,582.103,733.398)" d="M0,4.2 C0,8.5 3.1,13.3 11.2,13.3 C21.6,13.3 32.5,4.8 32.5,-4 C32.5,-9.9 27.5,-13.2 21.3,-13.2 C11.6,-13.2 0,-5 0,4.2"/>
<path class="Note" transform="matrix(0.992,0,0,0.992,483.712,1204.6)" d="M0,4.2 C0,8.5 3.1,13.3 11.2,13.3 C21.6,13.3 32.5,4.8 32.5,-4 C32.5,-9.9 27.5,-13.2 21.3,-13.2 C11.6,-13.2 0,-5 0,4.2"/>
<path class="Note" transform="matrix(0.992,0,0,0.992,518.185,745.798)" d="M0,4.2 C0,8.5 3.1,13.3 11.2,13.3 C21.6,13.3 32.5,4.8 32.5,-4 C32.5,-9.9 27.5,-13.2 21.3,-13.2 C11.6,-13.2 0,-5 0,4.2"/>
<path class="Note" transform="matrix(0.992,0,0,0.992,549.87,1179.8)" d="M0,4.2 C0,8.5 3.1,13.3 11.2,13.3 C21.6,13.3 32.5,4.8 32.5,-4 C32.5,-9.9 27.5,-13.2 21.3,-13.2 C11.6,-13.2 0,-5 0,4.2"/>
<path class="Note" transform="matrix(0.992,0,0,0.992,1645.84,1167.4)" d="M0,4.2 C0,8.5 3.1,13.3 11.2,13.3 C21.6,13.3 32.5,4.8 32.5,-4 C32.5,-9.9 27.5,-13.2 21.3,-13.2 C11.6,-13.2 0,-5 0,4.2"/>
<path class="Note" transform="matrix(0.992,0,0,0.992,785.049,1167.4)" d="M0,4.2 C0,8.5 3.1,13.3 11.2,13.3 C21.6,13.3 32.5,4.8 32.5,-4 C32.5,-9.9 27.5,-13.2 21.3,-13.2 C11.6,-13.2 0,-5 0,4.2"/>
<path class="Note" transform="matrix(0.992,0,0,0.992,1416.23,745.798)" d="M0,4.2 C0,8.5 3.1,13.3 11.2,13.3 C21.6,13.3 32.5,4.8 32.5,-4 C32.5,-9.9 27.5,-13.2 21.3,-13.2 C11.6,-13.2 0,-5 0,4.2"/>
<path class="Note" transform="matrix(0.992,0,0,0.992,649.108,1179.8)" d="M0,4.2 C0,8.5 3.1,13.3 11.2,13.3 C21.6,13.3 32.5,4.8 32.5,-4 C32.5,-9.9 27.5,-13.2 21.3,-13.2 C11.6,-13.2 0,-5 0,4.2"/>
<path class="Note" transform="matrix(0.992,0,0,0.992,1352.31,733.398)" d="M0,4.2 C0,8.5 3.1,13.3 11.2,13.3 C21.6,13.3 32.5,4.8 32.5,-4 C32.5,-9.9 27.5,-13.2 21.3,-13.2 C11.6,-13.2 0,-5 0,4.2"/>
<path class="Note" transform="matrix(0.992,0,0,0.992,810.559,696.198)" d="M0,4.2 C0,8.5 3.1,13.3 11.2,13.3 C21.6,13.3 32.5,4.8 32.5,-4 C32.5,-9.9 27.5,-13.2 21.3,-13.2 C11.6,-13.2 0,-5 0,4.2"/>
<path class="Clef" transform="matrix(0.992,0,0,0.992,232.438,1179.8)" d="M12.3,51.3 C12.3,57.9 17.3,66.6 30.8,66.6 C35.5,66.6 39.6,65.4 43.2,63.2 C48.6,59.4 50,52.8 50,46.5 C50,42.6 49.4,38.1 48.4,32.4 C48.1,30.4 47.5,27.4 46.9,23.5 C56.7,20.3 64,10.1 64,-0.2 C64,-15.3 53.3,-25.5 38.7,-25.5 C37.7,-31.5 36.7,-37.4 35.9,-43 C46.4,-54.1 53.7,-66.6 53.7,-82.5 C53.7,-91.6 50.9,-99 49.3,-102.6 C46.9,-107.7 44,-111.2 42.2,-111.2 C41.5,-111.2 38.4,-110 35.1,-106.1 C28.7,-98.5 26.9,-85.7 26.9,-77.3 C26.9,-71.9 27.4,-67 29.1,-55.8 C29,-55.7 23.8,-50.4 21.7,-48.7 C12.6,-40.3 0,-28.1 0,-8.1 C0,10.6 16.3,25.3 34.9,25.3 C37.8,25.3 40.5,25 42.8,24.6 C44.7,34.2 45.9,41.2 45.9,46.5 C45.9,56.9 40.5,62.4 30.4,62.4 C28,62.4 25.9,61.9 25.7,61.9 C25.6,61.8 25.4,61.7 25.4,61.6 C25.4,61.4 25.6,61.3 25.9,61.3 C30.6,60.5 35.3,56.5 35.3,50.1 C35.3,44.7 31.2,39 23.7,39 C16.7,39 12.3,44.7 12.3,51.3 M33.2,-82.2 C34.1,-86.2 38.7,-96.7 43.9,-96.7 C45.4,-96.7 47.8,-91.9 47.8,-84.9 C47.8,-74.5 40.1,-66.7 33.2,-59.9 C32.6,-63.9 32.1,-67.8 32.1,-72 C32.1,-75.7 32.4,-79.1 33.2,-82.2 M42,20.6 C40,21 38.1,21.2 36.2,21.2 C21.9,21.2 9.7,11.2 9.7,-3.9 C9.7,-16.1 18.3,-27 27.1,-34.6 C28.8,-36.1 30.4,-37.5 31.9,-39 C32.8,-33.6 33.5,-28.9 34.2,-24.8 C25.1,-22.1 18.9,-12.5 18.9,-3.1 C18.9,3.9 24.4,13.5 32.4,13.5 C33.2,13.5 34.1,13.1 34.1,12.2 C34.1,11.3 33.1,10.8 31.9,10 C28,7.6 25.8,5 25.8,0.1 C25.8,-6 30.4,-10.9 36.2,-12.3 L42,20.6 M56.2,2.1 C56.2,9.2 53.3,16.5 46.2,19.4 C44.1,7.4 41.4,-8.5 40.7,-12.9 C49.7,-12.9 56.2,-6.8 56.2,2.1"/>
<path class="Clef" transform="matrix(0.992,0,0,0.992,232.438,708.598)" d="M12.3,51.3 C12.3,57.9 17.3,66.6 30.8,66.6 C35.5,66.6 39.6,65.4 43.2,63.2 C48.6,59.4 50,52.8 50,46.5 C50,42.6 49.4,38.1 48.4,32.4 C48.1,30.4 47.5,27.4 46.9,23.5 C56.7,20.3 64,10.1 64,-0.2 C64,-15.3 53.3,-25.5 38.7,-25.5 C37.7,-31.5 36.7,-37.4 35.9,-43 C46.4,-54.1 53.7,-66.6 53.7,-82.5 C53.7,-91.6 50.9,-99 49.3,-102.6 C46.9,-107.7 44,-111.2 42.2,-111.2 C41.5,-111.2 38.4,-110 35.1,-106.1 C28.7,-98.5 26.9,-85.7 26.9,-77.3 C26.9,-71.9 27.4,-67 29.1,-55.8 C29,-55.7 23.8,-50.4 21.7,-48.7 C12.6,-40.3 0,-28.1 0,-8.1 C0,10.6 16.3,25.3 34.9,25.3 C37.8,25.3 40.5,25 42.8,24.6 C44.7,34.2 45.9,41.2 45.9,46.5 C45.9,56.9 40.5,62.4 30.4,62.4 C28,62.4 25.9,61.9 25.7,61.9 C25.6,61.8 25.4,61.7 25.4,61.6 C25.4,61.4 25.6,61.3 25.9,61.3 C30.6,60.5 35.3,56.5 35.3,50.1 C35.3,44.7 31.2,39 23.7,39 C16.7,39 12.3,44.7 12.3,51.3 M33.2,-82.2 C34.1,-86.2 38.7,-96.7 43.9,-96.7 C45.4,-96.7 47.8,-91.9 47.8,-84.9 C47.8,-74.5 40.1,-66.7 33.2,-59.9 C32.6,-63.9 32.1,-67.8 32.1,-72 C32.1,-75.7 32.4,-79.1 33.2,-82.2 M42,20.6 C40,21 38.1,21.2 36.2,21.2 C21.9,21.2 9.7,11.2 9.7,-3.9 C9.7,-16.1 18.3,-27 27.1,-34.6 C28.8,-36.1 30.4,-37.5 31.9,-39 C32.8,-33.6 33.5,-28.9 34.2,-24.8 C25.1,-22.1 18.9,-12.5 18.9,-3.1 C18.9,3.9 24.4,13.5 32.4,13.5 C33.2,13.5 34.1,13.1 34.1,12.2 C34.1,11.3 33.1,10.8 31.9,10 C28,7.6 25.8,5 25.8,0.1 C25.8,-6 30.4,-10.9 36.2,-12.3 L42,20.6 M56.2,2.1 C56.2,9.2 53.3,16.5 46.2,19.4 C44.1,7.4 41.4,-8.5 40.7,-12.9 C49.7,-12.9 56.2,-6.8 56.2,2.1"/>
<path class="TimeSig" transform="matrix(0.992,0,0,0.992,322.602,659.494)" d="M34.2,3.9 C33.4,6.1 31.4,13.3 26.5,13.3 C20,13.3 18.6,9.3 13.2,9.3 C12.4,9.3 11.6,9.4 10.6,9.6 C10.6,9.6 13.1,5.8 23.7,2.5 C34.3,-0.8 37,-6 37,-12 C37,-16.2 35.1,-24.5 20,-24.5 C4.9,-24.5 2.1,-15.4 2.1,-10.8 C2.1,-6.7 5.5,-3.4 9.6,-3.4 C13.7,-3.4 17,-6.7 17,-10.8 C17,-13.6 15,-16.7 12.4,-17.7 C12.1,-17.8 11.7,-18.3 11.7,-18.8 C11.7,-19.4 12.2,-20.1 14,-20.6 C14.5,-20.8 15.9,-21.1 17.4,-21.1 C23.1,-21.1 24.2,-17.6 24.2,-12.5 C24.2,-0.8 10.3,1.7 4.5,10.4 C4.5,10.4 1.5,14.6 1.5,19.3 C1.5,24 3.9,24.3 5.1,24.3 C6.7,24.3 8.4,23 8.4,21.2 C8.4,20.8 8.3,20.4 8.1,19.9 C7.5,18.5 7.3,17.4 7.3,16.6 C7.3,16.3 7.3,16 7.4,15.7 C7.5,15.1 8.3,14.1 10.7,14.1 C13.6,14.1 14.7,17.5 16.5,20.1 C18.3,22.7 21.1,24.3 24.3,24.3 C27.5,24.3 31.8,22 33.6,18.3 C35.4,14.6 37.7,7.1 37.7,4.4 C37.7,3.1 36.9,2.5 36,2.5 C35.3,2.5 34.6,2.9 34.2,3.9"/>
<path class="TimeSig" transform="matrix(0.992,0,0,0.992,319.331,708.598)" d="M20.8,12.7 L20.8,20.1 L12.5,20.1 C11.8,20.1 11.1,20.7 11.1,21.5 L11.1,23.4 C11.1,24.2 11.8,24.8 12.5,24.8 L42.8,24.8 C43.6,24.8 44.2,24.2 44.2,23.4 L44.2,21.5 C44.2,20.7 43.6,20.1 42.8,20.1 L33.9,20.1 L33.9,12.7 L42.8,12.7 C43.6,12.7 44.2,12 44.2,11.2 L44.2,9.3 C44.2,8.6 43.6,7.9 42.8,7.9 L33.9,7.9 L33.9,-8 C33.9,-8.6 33.6,-9.1 33.1,-9.3 L31.9,-9.9 C31.7,-10 31.4,-10.1 31.2,-10.1 C30.9,-10 30.5,-9.9 30.3,-9.7 L21.2,-1.4 C20.9,-1.1 20.8,-0.7 20.8,-0.3 L20.8,7.9 L9.3,7.9 C9.3,7.9 20.4,-4.1 32.2,-19.9 C32.6,-20.4 32.7,-20.9 32.7,-21.3 C32.7,-21.8 32.5,-22.2 32.4,-22.3 L30.2,-24.5 C30,-24.7 29.6,-24.9 29.2,-24.9 C28.6,-24.9 15.1,-24.9 14.4,-24.9 C13.6,-24.9 13.1,-24.3 13,-23.7 C13,-23.7 12.5,-16.3 9.9,-8.2 C7.3,-0.1 4.3,4.9 1.7,8.6 C1.7,8.6 1.4,9.1 1.4,9.7 C1.4,9.9 1.4,10.1 1.5,10.3 C1.9,11 2.5,12.1 2.5,12.1 C2.5,12.1 2.7,12.7 3.6,12.7 L20.8,12.7 "/>
<path class="Rest" transform="matrix(0.992,0,0,0.992,2589.33,1155)" d="M23,16.6 C22.9,16.5 22.7,16.3 22.4,15.9 L10.9,1.7 C10.8,1.6 10.7,1.3 10.7,1.1 C10.7,0.8 10.8,0.4 10.9,0.2 L21.1,-15.2 C21.2,-15.4 21.3,-15.7 21.3,-15.9 L21.3,-16.8 C21.3,-17.1 21.2,-17.4 21,-17.6 L4.8,-39.5 C4.8,-39.5 4.4,-40.1 3.8,-40.1 C3.5,-40.1 3.3,-40.1 3,-39.8 C2.6,-39.5 2.5,-39.1 2.5,-38.8 C2.5,-38.2 2.8,-37.7 2.8,-37.7 L10.4,-27.3 C10.6,-27 10.7,-26.6 10.7,-26.1 C10.7,-25.7 10.6,-25.2 10.4,-24.9 L0.3,-9.5 C0.2,-9.3 0.1,-8.9 0.1,-8.7 L0.1,-7.8 C0.1,-7.5 0.2,-7.2 0.4,-7 L11.6,6.9 C11.2,6.8 10.3,6.6 9.1,6.6 C4,6.6 0,10.8 0,15.9 C0,17.3 0.3,18.7 1.1,19.8 C3.2,23 10.7,32.5 10.7,32.5 C10.7,32.5 11.2,33.1 11.9,33.1 C12.1,33.1 12.3,33.1 12.5,32.9 C13,32.5 13.2,32.1 13.2,31.7 C13.2,31.3 13,31 12.9,30.8 C12.6,30.3 9.4,24.5 9.4,24.5 C9.4,24.5 8.7,23.1 8.7,21.3 C8.7,18.1 11.1,15.5 14.3,15.5 C15.6,15.5 16.7,15.9 17.5,16.4 L21.4,18.9 C21.4,18.9 21.8,19.1 22.2,19.1 C22.6,19.1 22.9,19 23.2,18.6 C23.4,18.3 23.5,18 23.5,17.7 C23.5,17.4 23.4,17.2 23.2,16.9 L23,16.6 "/>
<path class="Rest" transform="matrix(0.992,0,0,0.992,933.906,1155)" d="M23,16.6 C22.9,16.5 22.7,16.3 22.4,15.9 L10.9,1.7 C10.8,1.6 10.7,1.3 10.7,1.1 C10.7,0.8 10.8,0.4 10.9,0.2 L21.1,-15.2 C21.2,-15.4 21.3,-15.7 21.3,-15.9 L21.3,-16.8 C21.3,-17.1 21.2,-17.4 21,-17.6 L4.8,-39.5 C4.8,-39.5 4.4,-40.1 3.8,-40.1 C3.5,-40.1 3.3,-40.1 3,-39.8 C2.6,-39.5 2.5,-39.1 2.5,-38.8 C2.5,-38.2 2.8,-37.7 2.8,-37.7 L10.4,-27.3 C10.6,-27 10.7,-26.6 10.7,-26.1 C10.7,-25.7 10.6,-25.2 10.4,-24.9 L0.3,-9.5 C0.2,-9.3 0.1,-8.9 0.1,-8.7 L0.1,-7.8 C0.1,-7.5 0.2,-7.2 0.4,-7 L11.6,6.9 C11.2,6.8 10.3,6.6 9.1,6.6 C4,6.6 0,10.8 0,15.9 C0,17.3 0.3,18.7 1.1,19.8 C3.2,23 10.7,32.5 10.7,32.5 C10.7,32.5 11.2,33.1 11.9,33.1 C12.1,33.1 12.3,33.1 12.5,32.9 C13,32.5 13.2,32.1 13.2,31.7 C13.2,31.3 13,31 12.9,30.8 C12.6,30.3 9.4,24.5 9.4,24.5 C9.4,24.5 8.7,23.1 8.7,21.3 C8.7,18.1 11.1,15.5 14.3,15.5 C15.6,15.5 16.7,15.9 17.5,16.4 L21.4,18.9 C21.4,18.9 21.8,19.1 22.2,19.1 C22.6,19.1 22.9,19 23.2,18.6 C23.4,18.3 23.5,18 23.5,17.7 C23.5,17.4 23.4,17.2 23.2,16.9 L23,16.6 "/>
<path class="Rest" transform="matrix(0.992,0,0,0.992,1788.5,683.798)" d="M23,16.6 C22.9,16.5 22.7,16.3 22.4,15.9 L10.9,1.7 C10.8,1.6 10.7,1.3 10.7,1.1 C10.7,0.8 10.8,0.4 10.9,0.2 L21.1,-15.2 C21.2,-15.4 21.3,-15.7 21.3,-15.9 L21.3,-16.8 C21.3,-17.1 21.2,-17.4 21,-17.6 L4.8,-39.5 C4.8,-39.5 4.4,-40.1 3.8,-40.1 C3.5,-40.1 3.3,-40.1 3,-39.8 C2.6,-39.5 2.5,-39.1 2.5,-38.8 C2.5,-38.2 2.8,-37.7 2.8,-37.7 L10.4,-27.3 C10.6,-27 10.7,-26.6 10.7,-26.1 C10.7,-25.7 10.6,-25.2 10.4,-24.9 L0.3,-9.5 C0.2,-9.3 0.1,-8.9 0.1,-8.7 L0.1,-7.8 C0.1,-7.5 0.2,-7.2 0.4,-7 L11.6,6.9 C11.2,6.8 10.3,6.6 9.1,6.6 C4,6.6 0,10.8 0,15.9 C0,17.3 0.3,18.7 1.1,19.8 C3.2,23 10.7,32.5 10.7,32.5 C10.7,32.5 11.2,33.1 11.9,33.1 C12.1,33.1 12.3,33.1 12.5,32.9 C13,32.5 13.2,32.1 13.2,31.7 C13.2,31.3 13,31 12.9,30.8 C12.6,30.3 9.4,24.5 9.4,24.5 C9.4,24.5 8.7,23.1 8.7,21.3 C8.7,18.1 11.1,15.5 14.3,15.5 C15.6,15.5 16.7,15.9 17.5,16.4 L21.4,18.9 C21.4,18.9 21.8,19.1 22.2,19.1 C22.6,19.1 22.9,19 23.2,18.6 C23.4,18.3 23.5,18 23.5,17.7 C23.5,17.4 23.4,17.2 23.2,16.9 L23,16.6 "/>
<path class="Beam" fill-rule="evenodd" d="M1260.26,658.991 L1384.53,652.791 L1384.53,665.206 L1260.26,671.406 L1260.26,658.991 "/>
<path class="Beam" fill-rule="evenodd" d="M1384.53,671.391 L1352.29,672.999 L1352.29,685.415 L1384.53,683.806 L1384.53,671.391 "/>
<path class="Beam" fill-rule="evenodd" d="M2234.79,1130.2 L2336.76,1130.2 L2336.76,1142.6 L2234.79,1142.6 L2234.79,1130.2 "/>
<path class="Beam" fill-rule="evenodd" d="M1148.96,1130.2 L1277.49,1130.2 L1277.49,1142.6 L1148.96,1142.6 L1148.96,1130.2 "/>
<path class="Beam" fill-rule="evenodd" d="M1277.49,1148.8 L1245.25,1148.8 L1245.25,1161.2 L1277.49,1161.2 L1277.49,1148.8 "/>
<path class="Beam" fill-rule="evenodd" d="M611.599,652.786 L710.203,658.986 L710.203,671.411 L611.599,665.211 L611.599,652.786 "/>
<path class="Beam" fill-rule="evenodd" d="M1807.66,1123.99 L1909.62,1130.19 L1909.62,1142.61 L1807.66,1136.41 L1807.66,1123.99 "/>
<path class="Beam" fill-rule="evenodd" d="M387.407,1124 L515.936,1124 L515.936,1136.4 L387.407,1136.4 L387.407,1124 "/>
<path class="Beam" fill-rule="evenodd" d="M515.936,1142.6 L483.696,1142.6 L483.696,1155 L515.936,1155 L515.936,1142.6 "/>
<path class="Beam" fill-rule="evenodd" d="M1031.81,652.786 L1130.41,658.986 L1130.41,671.411 L1031.81,665.211 L1031.81,652.786 "/>
<path class="Beam" fill-rule="evenodd" d="M2597.88,652.786 L2696.49,658.986 L2696.49,671.411 L2597.88,665.211 L2597.88,652.786 "/>
<path class="Beam" fill-rule="evenodd" d="M1340.92,1080.59 L1442.89,1086.79 L1442.89,1099.21 L1340.92,1093.01 L1340.92,1080.59 "/>
<path class="Beam" fill-rule="evenodd" d="M426.142,627.991 L550.41,634.191 L550.41,646.606 L426.142,640.406 L426.142,627.991 "/>
<path class="Beam" fill-rule="evenodd" d="M550.41,652.791 L518.17,651.182 L518.17,663.598 L550.41,665.206 L550.41,652.791 "/>
<path class="Beam" fill-rule="evenodd" d="M1998.51,683.798 L2122.78,683.798 L2122.78,696.198 L1998.51,696.198 L1998.51,683.798 "/>
<path class="Beam" fill-rule="evenodd" d="M2122.78,702.398 L2090.54,702.398 L2090.54,714.798 L2122.78,714.798 L2122.78,702.398 "/>
<path class="Beam" fill-rule="evenodd" d="M1445.72,671.35 L1544.33,683.75 L1544.33,696.247 L1445.72,683.847 L1445.72,671.35 "/>
<path class="Beam" fill-rule="evenodd" d="M2412.42,652.798 L2536.69,652.798 L2536.69,665.198 L2412.42,665.198 L2412.42,652.798 "/>
<path class="Beam" fill-rule="evenodd" d="M2536.69,671.398 L2504.45,671.398 L2504.45,683.798 L2536.69,683.798 L2536.69,671.398 "/>
<path class="Beam" fill-rule="evenodd" d="M840.056,621.786 L938.66,627.986 L938.66,640.411 L840.056,634.211 L840.056,621.786 "/>
<path class="Beam" fill-rule="evenodd" d="M2042.83,1130.19 L2171.36,1123.99 L2171.36,1136.41 L2042.83,1142.61 L2042.83,1130.19 "/>
<path class="Beam" fill-rule="evenodd" d="M2171.36,1142.59 L2139.12,1144.15 L2139.12,1156.56 L2171.36,1155.01 L2171.36,1142.59 "/>
<path class="Beam" fill-rule="evenodd" d="M1576.1,1080.6 L1744.23,1080.6 L1744.23,1093 L1576.1,1093 L1576.1,1080.6 "/>
<path class="Beam" fill-rule="evenodd" d="M1675.34,1099.2 L1744.23,1099.2 L1744.23,1111.6 L1675.34,1111.6 L1675.34,1099.2 "/>
<path class="Beam" fill-rule="evenodd" d="M2183.97,658.998 L2282.57,658.998 L2282.57,671.398 L2183.97,671.398 L2183.97,658.998 "/>
<path class="Beam" fill-rule="evenodd" d="M579.367,1099.2 L681.332,1099.2 L681.332,1111.6 L579.367,1111.6 L579.367,1099.2 "/>
<path class="Harmony" d="M2187.92,532.103 L2185.83,532.103 L2183.69,535.403 C2180.11,532.598 2177.69,531.663 2173.68,531.663 C2169.33,531.663 2165.92,532.873 2162.46,535.678 C2157.01,540.078 2154.48,545.633 2154.48,553.058 C2154.48,558.668 2156.08,563.343 2159.32,566.918 C2162.73,570.768 2167.79,573.023 2173.07,573.023 C2177.69,573.023 2180.94,571.593 2184.51,568.018 L2186.55,572.968 L2188.86,572.968 L2188.86,560.868 C2188.86,558.063 2188.86,557.953 2189.19,557.458 C2189.68,556.853 2190.67,556.688 2193.81,556.688 L2194.63,556.688 L2194.63,554.103 L2177.14,554.103 L2177.14,556.688 L2178.19,556.688 C2182.81,556.688 2183.19,556.963 2183.19,560.043 C2183.19,562.408 2182.81,564.553 2182.09,565.873 C2180.72,568.568 2177.2,570.438 2173.62,570.438 C2170.05,570.438 2166.53,568.623 2164.66,565.873 C2162.62,562.793 2161.74,558.943 2161.74,553.058 C2161.74,540.793 2165.81,534.248 2173.46,534.248 C2179.73,534.248 2184.07,538.758 2186.33,547.558 L2188.69,547.558 L2187.92,532.103 "/>
<path class="Harmony" d="M1788.5,572.198 L1806.98,572.198 C1811.87,572.198 1815.61,571.428 1818.53,569.778 C1824.08,566.643 1827.16,560.373 1827.16,552.123 C1827.16,544.533 1824.41,538.593 1819.35,535.293 C1816.33,533.368 1812.26,532.488 1805.99,532.488 L1788.5,532.488 L1788.5,535.073 L1789.54,535.073 C1792.62,535.128 1793.67,535.293 1794.11,535.843 C1794.44,536.338 1794.44,536.448 1794.44,539.253 L1794.44,565.433 C1794.44,568.238 1794.44,568.348 1794.11,568.843 C1793.67,569.393 1792.62,569.558 1789.54,569.613 L1788.5,569.613 L1788.5,572.198 M1803.73,569.613 C1800.93,569.613 1800.6,569.283 1800.6,566.588 L1800.6,538.153 C1800.6,535.458 1800.98,535.073 1803.73,535.073 L1806.59,535.073 C1816,535.073 1819.9,540.188 1819.9,552.343 C1819.9,564.663 1816.38,569.613 1807.47,569.613 L1803.73,569.613 "/>
<path class="Harmony" d="M1835.38,546.788 L1837.8,547.173 L1838.79,542.828 C1839.62,539.198 1840,538.648 1841.6,538.648 C1841.87,538.648 1842.31,538.648 1842.81,538.703 C1849.57,539.033 1849.57,539.033 1852.1,539.033 C1852.82,539.033 1854.08,539.033 1855.62,538.978 L1851.88,546.513 C1847.81,554.598 1847.32,555.588 1845.94,558.998 C1844.24,563.123 1843.36,566.588 1843.36,568.898 C1843.36,571.428 1844.68,572.968 1846.82,572.968 C1849.46,572.968 1850.51,571.208 1850.45,566.423 C1850.18,558.503 1851.17,554.653 1857.05,541.783 C1858.04,539.638 1859.09,537.438 1860.08,535.293 L1860.08,533.698 C1856.78,533.973 1855.02,534.083 1851.61,534.083 C1846.82,534.083 1843.03,533.918 1837.09,533.478 L1835.38,546.788 "/>
<path class="Harmony" d="M844.012,532.103 L841.922,532.103 L839.777,535.403 C836.202,532.598 833.782,531.663 829.767,531.663 C825.422,531.663 822.012,532.873 818.547,535.678 C813.102,540.078 810.572,545.633 810.572,553.058 C810.572,558.668 812.167,563.343 815.412,566.918 C818.822,570.768 823.882,573.023 829.162,573.023 C833.782,573.023 837.027,571.593 840.602,568.018 L842.637,572.968 L844.947,572.968 L844.947,560.868 C844.947,558.063 844.947,557.953 845.277,557.458 C845.772,556.853 846.762,556.688 849.897,556.688 L850.722,556.688 L850.722,554.103 L833.232,554.103 L833.232,556.688 L834.277,556.688 C838.897,556.688 839.282,556.963 839.282,560.043 C839.282,562.408 838.897,564.553 838.182,565.873 C836.807,568.568 833.287,570.438 829.712,570.438 C826.137,570.438 822.617,568.623 820.747,565.873 C818.712,562.793 817.832,558.943 817.832,553.058 C817.832,540.793 821.902,534.248 829.547,534.248 C835.817,534.248 840.162,538.758 842.417,547.558 L844.782,547.558 L844.012,532.103 "/>
<path class="Harmony" d="M615.556,532.103 L613.466,532.103 L611.321,535.403 C607.746,532.598 605.326,531.663 601.311,531.663 C596.966,531.663 593.556,532.873 590.091,535.678 C584.646,540.078 582.116,545.633 582.116,553.058 C582.116,558.668 583.711,563.343 586.956,566.918 C590.366,570.768 595.426,573.023 600.706,573.023 C605.326,573.023 608.571,571.593 612.146,568.018 L614.181,572.968 L616.491,572.968 L616.491,560.868 C616.491,558.063 616.491,557.953 616.821,557.458 C617.316,556.853 618.306,556.688 621.441,556.688 L622.266,556.688 L622.266,554.103 L604.776,554.103 L604.776,556.688 L605.821,556.688 C610.441,556.688 610.826,556.963 610.826,560.043 C610.826,562.408 610.441,564.553 609.726,565.873 C608.351,568.568 604.831,570.438 601.256,570.438 C597.681,570.438 594.161,568.623 592.291,565.873 C590.256,562.793 589.376,558.943 589.376,553.058 C589.376,540.793 593.446,534.248 601.091,534.248 C607.361,534.248 611.706,538.758 613.961,547.558 L616.326,547.558 L615.556,532.103 "/>
<path class="Harmony" d="M1344.88,1003.3 L1342.79,1003.3 L1340.64,1006.6 C1337.07,1003.8 1334.65,1002.86 1330.63,1002.86 C1326.29,1002.86 1322.88,1004.07 1319.41,1006.88 C1313.97,1011.28 1311.44,1016.83 1311.44,1024.26 C1311.44,1029.87 1313.03,1034.54 1316.28,1038.12 C1319.69,1041.97 1324.75,1044.22 1330.03,1044.22 C1334.65,1044.22 1337.89,1042.79 1341.47,1039.22 L1343.5,1044.17 L1345.81,1044.17 L1345.81,1032.07 C1345.81,1029.26 1345.81,1029.15 1346.14,1028.66 C1346.64,1028.05 1347.63,1027.89 1350.76,1027.89 L1351.59,1027.89 L1351.59,1025.3 L1334.1,1025.3 L1334.1,1027.89 L1335.14,1027.89 C1339.76,1027.89 1340.15,1028.16 1340.15,1031.24 C1340.15,1033.61 1339.76,1035.75 1339.05,1037.07 C1337.67,1039.77 1334.15,1041.64 1330.58,1041.64 C1327,1041.64 1323.48,1039.82 1321.61,1037.07 C1319.58,1033.99 1318.7,1030.14 1318.7,1024.26 C1318.7,1011.99 1322.77,1005.45 1330.41,1005.45 C1336.68,1005.45 1341.03,1009.96 1343.28,1018.76 L1345.65,1018.76 L1344.88,1003.3 "/>
<path class="Harmony" d="M1035.76,532.103 L1033.67,532.103 L1031.53,535.403 C1027.95,532.598 1025.53,531.663 1021.52,531.663 C1017.17,531.663 1013.76,532.873 1010.3,535.678 C1004.85,540.078 1002.32,545.633 1002.32,553.058 C1002.32,558.668 1003.92,563.343 1007.16,566.918 C1010.57,570.768 1015.63,573.023 1020.91,573.023 C1025.53,573.023 1028.78,571.593 1032.35,568.018 L1034.39,572.968 L1036.7,572.968 L1036.7,560.868 C1036.7,558.063 1036.7,557.953 1037.03,557.458 C1037.52,556.853 1038.51,556.688 1041.65,556.688 L1042.47,556.688 L1042.47,554.103 L1024.98,554.103 L1024.98,556.688 L1026.03,556.688 C1030.65,556.688 1031.03,556.963 1031.03,560.043 C1031.03,562.408 1030.65,564.553 1029.93,565.873 C1028.56,568.568 1025.04,570.438 1021.46,570.438 C1017.89,570.438 1014.37,568.623 1012.5,565.873 C1010.46,562.793 1009.58,558.943 1009.58,553.058 C1009.58,540.793 1013.65,534.248 1021.3,534.248 C1027.57,534.248 1031.91,538.758 1034.17,547.558 L1036.53,547.558 L1035.76,532.103 "/>
<path class="Harmony" d="M1810.84,1003.3 L1808.75,1003.3 L1806.55,1006.55 C1802.53,1003.63 1800.5,1002.86 1796.7,1002.86 C1791.48,1002.86 1787.02,1005.06 1783.34,1009.46 C1779.82,1013.64 1778.17,1018.26 1778.17,1023.93 C1778.17,1035.81 1785.92,1044.22 1796.76,1044.22 C1805.56,1044.22 1811.17,1039.05 1812.43,1029.81 L1809.85,1029.37 C1808.36,1037.57 1804.18,1041.64 1797.42,1041.64 C1789.28,1041.64 1785.43,1036.03 1785.43,1024.15 C1785.43,1017.88 1786.25,1013.75 1788.12,1010.45 C1789.83,1007.37 1793.18,1005.45 1796.76,1005.45 C1800.61,1005.45 1804.02,1007.48 1806.11,1011 C1807.15,1012.82 1807.92,1014.85 1809.24,1019.2 L1811.66,1019.2 L1810.84,1003.3 "/>
<path class="Harmony" d="M1152.92,1003.3 L1150.83,1003.3 L1148.68,1006.6 C1145.11,1003.8 1142.69,1002.86 1138.67,1002.86 C1134.33,1002.86 1130.92,1004.07 1127.45,1006.88 C1122.01,1011.28 1119.48,1016.83 1119.48,1024.26 C1119.48,1029.87 1121.07,1034.54 1124.32,1038.12 C1127.73,1041.97 1132.79,1044.22 1138.07,1044.22 C1142.69,1044.22 1145.93,1042.79 1149.51,1039.22 L1151.54,1044.17 L1153.85,1044.17 L1153.85,1032.07 C1153.85,1029.26 1153.85,1029.15 1154.18,1028.66 C1154.68,1028.05 1155.67,1027.89 1158.8,1027.89 L1159.63,1027.89 L1159.63,1025.3 L1142.14,1025.3 L1142.14,1027.89 L1143.18,1027.89 C1147.8,1027.89 1148.19,1028.16 1148.19,1031.24 C1148.19,1033.61 1147.8,1035.75 1147.09,1037.07 C1145.71,1039.77 1142.19,1041.64 1138.62,1041.64 C1135.04,1041.64 1131.52,1039.82 1129.65,1037.07 C1127.62,1033.99 1126.74,1030.14 1126.74,1024.26 C1126.74,1011.99 1130.81,1005.45 1138.45,1005.45 C1144.72,1005.45 1149.07,1009.96 1151.32,1018.76 L1153.69,1018.76 L1152.92,1003.3 "/>
<path class="Harmony" d="M2622.79,1003.3 L2620.7,1003.3 L2618.55,1006.6 C2614.98,1003.8 2612.56,1002.86 2608.54,1002.86 C2604.2,1002.86 2600.79,1004.07 2597.32,1006.88 C2591.88,1011.28 2589.35,1016.83 2589.35,1024.26 C2589.35,1029.87 2590.94,1034.54 2594.19,1038.12 C2597.6,1041.97 2602.66,1044.22 2607.94,1044.22 C2612.56,1044.22 2615.8,1042.79 2619.38,1039.22 L2621.41,1044.17 L2623.72,1044.17 L2623.72,1032.07 C2623.72,1029.26 2623.72,1029.15 2624.05,1028.66 C2624.55,1028.05 2625.54,1027.89 2628.67,1027.89 L2629.5,1027.89 L2629.5,1025.3 L2612.01,1025.3 L2612.01,1027.89 L2613.05,1027.89 C2617.67,1027.89 2618.06,1028.16 2618.06,1031.24 C2618.06,1033.61 2617.67,1035.75 2616.96,1037.07 C2615.58,1039.77 2612.06,1041.64 2608.49,1041.64 C2604.91,1041.64 2601.39,1039.82 2599.52,1037.07 C2597.49,1033.99 2596.61,1030.14 2596.61,1024.26 C2596.61,1011.99 2600.68,1005.45 2608.32,1005.45 C2614.59,1005.45 2618.94,1009.96 2621.19,1018.76 L2623.56,1018.76 L2622.79,1003.3 "/>
<path class="Harmony" d="M2473.93,1003.3 L2471.84,1003.3 L2469.69,1006.6 C2466.12,1003.8 2463.7,1002.86 2459.68,1002.86 C2455.34,1002.86 2451.93,1004.07 2448.46,1006.88 C2443.02,1011.28 2440.49,1016.83 2440.49,1024.26 C2440.49,1029.87 2442.08,1034.54 2445.33,1038.12 C2448.74,1041.97 2453.8,1044.22 2459.08,1044.22 C2463.7,1044.22 2466.94,1042.79 2470.52,1039.22 L2472.55,1044.17 L2474.86,1044.17 L2474.86,1032.07 C2474.86,1029.26 2474.86,1029.15 2475.19,1028.66 C2475.69,1028.05 2476.68,1027.89 2479.81,1027.89 L2480.64,1027.89 L2480.64,1025.3 L2463.15,1025.3 L2463.15,1027.89 L2464.19,1027.89 C2468.81,1027.89 2469.2,1028.16 2469.2,1031.24 C2469.2,1033.61 2468.81,1035.75 2468.1,1037.07 C2466.72,1039.77 2463.2,1041.64 2459.63,1041.64 C2456.05,1041.64 2452.53,1039.82 2450.66,1037.07 C2448.63,1033.99 2447.75,1030.14 2447.75,1024.26 C2447.75,1011.99 2451.82,1005.45 2459.46,1005.45 C2465.73,1005.45 2470.08,1009.96 2472.33,1018.76 L2474.7,1018.76 L2473.93,1003.3 "/>
<path class="Harmony" d="M933.907,1043.4 L952.387,1043.4 C957.282,1043.4 961.022,1042.63 963.937,1040.98 C969.492,1037.84 972.572,1031.57 972.572,1023.32 C972.572,1015.73 969.822,1009.79 964.762,1006.49 C961.737,1004.57 957.667,1003.69 951.397,1003.69 L933.907,1003.69 L933.907,1006.27 L934.952,1006.27 C938.032,1006.33 939.077,1006.49 939.517,1007.04 C939.847,1007.54 939.847,1007.65 939.847,1010.45 L939.847,1036.63 C939.847,1039.44 939.847,1039.55 939.517,1040.04 C939.077,1040.59 938.032,1040.76 934.952,1040.81 L933.907,1040.81 L933.907,1043.4 M949.142,1040.81 C946.337,1040.81 946.007,1040.48 946.007,1037.79 L946.007,1009.35 C946.007,1006.66 946.392,1006.27 949.142,1006.27 L952.002,1006.27 C961.407,1006.27 965.312,1011.39 965.312,1023.54 C965.312,1035.86 961.792,1040.81 952.882,1040.81 L949.142,1040.81 "/>
<path class="Harmony" d="M980.791,1017.99 L983.211,1018.37 L984.201,1014.03 C985.026,1010.4 985.411,1009.85 987.006,1009.85 C987.281,1009.85 987.721,1009.85 988.216,1009.9 C994.981,1010.23 994.981,1010.23 997.511,1010.23 C998.226,1010.23 999.491,1010.23 1001.03,1010.18 L997.291,1017.71 C993.221,1025.8 992.726,1026.79 991.351,1030.2 C989.646,1034.32 988.766,1037.79 988.766,1040.1 C988.766,1042.63 990.086,1044.17 992.231,1044.17 C994.871,1044.17 995.916,1042.41 995.861,1037.62 C995.586,1029.7 996.576,1025.85 1002.46,1012.98 C1003.45,1010.84 1004.5,1008.64 1005.49,1006.49 L1005.49,1004.9 C1002.19,1005.17 1000.43,1005.28 997.016,1005.28 C992.231,1005.28 988.436,1005.12 982.496,1004.68 L980.791,1017.99 "/>
<path class="Harmony" d="M430.099,532.103 L428.009,532.103 L425.864,535.403 C422.289,532.598 419.869,531.663 415.854,531.663 C411.509,531.663 408.099,532.873 404.634,535.678 C399.189,540.078 396.659,545.633 396.659,553.058 C396.659,558.668 398.254,563.343 401.499,566.918 C404.909,570.768 409.969,573.023 415.249,573.023 C419.869,573.023 423.114,571.593 426.689,568.018 L428.724,572.968 L431.034,572.968 L431.034,560.868 C431.034,558.063 431.034,557.953 431.364,557.458 C431.859,556.853 432.849,556.688 435.984,556.688 L436.809,556.688 L436.809,554.103 L419.319,554.103 L419.319,556.688 L420.364,556.688 C424.984,556.688 425.369,556.963 425.369,560.043 C425.369,562.408 424.984,564.553 424.269,565.873 C422.894,568.568 419.374,570.438 415.799,570.438 C412.224,570.438 408.704,568.623 406.834,565.873 C404.799,562.793 403.919,558.943 403.919,553.058 C403.919,540.793 407.989,534.248 415.634,534.248 C421.904,534.248 426.249,538.758 428.504,547.558 L430.869,547.558 L430.099,532.103 "/>
<path class="Harmony" d="M785.051,1043.4 L803.531,1043.4 C808.426,1043.4 812.166,1042.63 815.081,1040.98 C820.636,1037.84 823.716,1031.57 823.716,1023.32 C823.716,1015.73 820.966,1009.79 815.906,1006.49 C812.881,1004.57 808.811,1003.69 802.541,1003.69 L785.051,1003.69 L785.051,1006.27 L786.096,1006.27 C789.176,1006.33 790.221,1006.49 790.661,1007.04 C790.991,1007.54 790.991,1007.65 790.991,1010.45 L790.991,1036.63 C790.991,1039.44 790.991,1039.55 790.661,1040.04 C790.221,1040.59 789.176,1040.76 786.096,1040.81 L785.051,1040.81 L785.051,1043.4 M800.286,1040.81 C797.481,1040.81 797.151,1040.48 797.151,1037.79 L797.151,1009.35 C797.151,1006.66 797.536,1006.27 800.286,1006.27 L803.146,1006.27 C812.551,1006.27 816.456,1011.39 816.456,1023.54 C816.456,1035.86 812.936,1040.81 804.026,1040.81 L800.286,1040.81 "/>
<path class="Harmony" d="M831.935,1017.99 L834.355,1018.37 L835.345,1014.03 C836.17,1010.4 836.555,1009.85 838.15,1009.85 C838.425,1009.85 838.865,1009.85 839.36,1009.9 C846.125,1010.23 846.125,1010.23 848.655,1010.23 C849.37,1010.23 850.635,1010.23 852.175,1010.18 L848.435,1017.71 C844.365,1025.8 843.87,1026.79 842.495,1030.2 C840.79,1034.32 839.91,1037.79 839.91,1040.1 C839.91,1042.63 841.23,1044.17 843.375,1044.17 C846.015,1044.17 847.06,1042.41 847.005,1037.62 C846.73,1029.7 847.72,1025.85 853.605,1012.98 C854.595,1010.84 855.64,1008.64 856.63,1006.49 L856.63,1004.9 C853.33,1005.17 851.57,1005.28 848.16,1005.28 C843.375,1005.28 839.58,1005.12 833.64,1004.68 L831.935,1017.99 "/>
<path class="Harmony" d="M1264.22,532.103 L1262.13,532.103 L1259.99,535.403 C1256.41,532.598 1253.99,531.663 1249.98,531.663 C1245.63,531.663 1242.22,532.873 1238.76,535.678 C1233.31,540.078 1230.78,545.633 1230.78,553.058 C1230.78,558.668 1232.38,563.343 1235.62,566.918 C1239.03,570.768 1244.09,573.023 1249.37,573.023 C1253.99,573.023 1257.24,571.593 1260.81,568.018 L1262.85,572.968 L1265.16,572.968 L1265.16,560.868 C1265.16,558.063 1265.16,557.953 1265.49,557.458 C1265.98,556.853 1266.97,556.688 1270.11,556.688 L1270.93,556.688 L1270.93,554.103 L1253.44,554.103 L1253.44,556.688 L1254.49,556.688 C1259.11,556.688 1259.49,556.963 1259.49,560.043 C1259.49,562.408 1259.11,564.553 1258.39,565.873 C1257.02,568.568 1253.5,570.438 1249.92,570.438 C1246.35,570.438 1242.83,568.623 1240.96,565.873 C1238.92,562.793 1238.04,558.943 1238.04,553.058 C1238.04,540.793 1242.11,534.248 1249.76,534.248 C1256.03,534.248 1260.37,538.758 1262.63,547.558 L1264.99,547.558 L1264.22,532.103 "/>
<path class="Harmony" d="M2002.47,532.103 L2000.38,532.103 L1998.23,535.403 C1994.66,532.598 1992.24,531.663 1988.22,531.663 C1983.88,531.663 1980.47,532.873 1977,535.678 C1971.56,540.078 1969.03,545.633 1969.03,553.058 C1969.03,558.668 1970.62,563.343 1973.87,566.918 C1977.28,570.768 1982.34,573.023 1987.62,573.023 C1992.24,573.023 1995.48,571.593 1999.06,568.018 L2001.09,572.968 L2003.4,572.968 L2003.4,560.868 C2003.4,558.063 2003.4,557.953 2003.73,557.458 C2004.23,556.853 2005.22,556.688 2008.35,556.688 L2009.18,556.688 L2009.18,554.103 L1991.69,554.103 L1991.69,556.688 L1992.73,556.688 C1997.35,556.688 1997.74,556.963 1997.74,560.043 C1997.74,562.408 1997.35,564.553 1996.64,565.873 C1995.26,568.568 1991.74,570.438 1988.17,570.438 C1984.59,570.438 1981.07,568.623 1979.2,565.873 C1977.17,562.793 1976.29,558.943 1976.29,553.058 C1976.29,540.793 1980.36,534.248 1988,534.248 C1994.27,534.248 1998.62,538.758 2000.87,547.558 L2003.24,547.558 L2002.47,532.103 "/>
<path class="Harmony" d="M582.546,1003.3 L580.456,1003.3 L578.256,1006.55 C574.241,1003.63 572.206,1002.86 568.411,1002.86 C563.186,1002.86 558.731,1005.06 555.046,1009.46 C551.526,1013.64 549.876,1018.26 549.876,1023.93 C549.876,1035.81 557.631,1044.22 568.466,1044.22 C577.266,1044.22 582.876,1039.05 584.141,1029.81 L581.556,1029.37 C580.071,1037.57 575.891,1041.64 569.126,1041.64 C560.986,1041.64 557.136,1036.03 557.136,1024.15 C557.136,1017.88 557.961,1013.75 559.831,1010.45 C561.536,1007.37 564.891,1005.45 568.466,1005.45 C572.316,1005.45 575.726,1007.48 577.816,1011 C578.861,1012.82 579.631,1014.85 580.951,1019.2 L583.371,1019.2 L582.546,1003.3 "/>
<path class="Harmony" d="M2046.79,1003.3 L2044.7,1003.3 L2042.56,1006.6 C2038.98,1003.8 2036.56,1002.86 2032.55,1002.86 C2028.2,1002.86 2024.79,1004.07 2021.33,1006.88 C2015.88,1011.28 2013.35,1016.83 2013.35,1024.26 C2013.35,1029.87 2014.95,1034.54 2018.19,1038.12 C2021.6,1041.97 2026.66,1044.22 2031.94,1044.22 C2036.56,1044.22 2039.81,1042.79 2043.38,1039.22 L2045.42,1044.17 L2047.73,1044.17 L2047.73,1032.07 C2047.73,1029.26 2047.73,1029.15 2048.06,1028.66 C2048.55,1028.05 2049.54,1027.89 2052.68,1027.89 L2053.5,1027.89 L2053.5,1025.3 L2036.01,1025.3 L2036.01,1027.89 L2037.06,1027.89 C2041.68,1027.89 2042.06,1028.16 2042.06,1031.24 C2042.06,1033.61 2041.68,1035.75 2040.96,1037.07 C2039.59,1039.77 2036.07,1041.64 2032.49,1041.64 C2028.92,1041.64 2025.4,1039.82 2023.53,1037.07 C2021.49,1033.99 2020.61,1030.14 2020.61,1024.26 C2020.61,1011.99 2024.68,1005.45 2032.33,1005.45 C2038.6,1005.45 2042.94,1009.96 2045.2,1018.76 L2047.56,1018.76 L2046.79,1003.3 "/>
<path class="Harmony" d="M1449.68,532.103 L1447.59,532.103 L1445.44,535.403 C1441.87,532.598 1439.45,531.663 1435.43,531.663 C1431.09,531.663 1427.68,532.873 1424.21,535.678 C1418.77,540.078 1416.24,545.633 1416.24,553.058 C1416.24,558.668 1417.83,563.343 1421.08,566.918 C1424.49,570.768 1429.55,573.023 1434.83,573.023 C1439.45,573.023 1442.69,571.593 1446.27,568.018 L1448.3,572.968 L1450.61,572.968 L1450.61,560.868 C1450.61,558.063 1450.61,557.953 1450.94,557.458 C1451.44,556.853 1452.43,556.688 1455.56,556.688 L1456.39,556.688 L1456.39,554.103 L1438.9,554.103 L1438.9,556.688 L1439.94,556.688 C1444.56,556.688 1444.95,556.963 1444.95,560.043 C1444.95,562.408 1444.56,564.553 1443.85,565.873 C1442.47,568.568 1438.95,570.438 1435.38,570.438 C1431.8,570.438 1428.28,568.623 1426.41,565.873 C1424.38,562.793 1423.5,558.943 1423.5,553.058 C1423.5,540.793 1427.57,534.248 1435.21,534.248 C1441.48,534.248 1445.83,538.758 1448.08,547.558 L1450.45,547.558 L1449.68,532.103 "/>
<path class="Harmony" d="M390.587,1003.3 L388.497,1003.3 L386.297,1006.55 C382.282,1003.63 380.247,1002.86 376.452,1002.86 C371.227,1002.86 366.772,1005.06 363.087,1009.46 C359.567,1013.64 357.917,1018.26 357.917,1023.93 C357.917,1035.81 365.672,1044.22 376.507,1044.22 C385.307,1044.22 390.917,1039.05 392.182,1029.81 L389.597,1029.37 C388.112,1037.57 383.932,1041.64 377.167,1041.64 C369.027,1041.64 365.177,1036.03 365.177,1024.15 C365.177,1017.88 366.002,1013.75 367.872,1010.45 C369.577,1007.37 372.932,1005.45 376.507,1005.45 C380.357,1005.45 383.767,1007.48 385.857,1011 C386.902,1012.82 387.672,1014.85 388.992,1019.2 L391.412,1019.2 L390.587,1003.3 "/>
<path class="Harmony" d="M2415.6,532.103 L2413.51,532.103 L2411.31,535.348 C2407.3,532.433 2405.26,531.663 2401.47,531.663 C2396.24,531.663 2391.79,533.863 2388.1,538.263 C2384.58,542.443 2382.93,547.063 2382.93,552.728 C2382.93,564.608 2390.69,573.023 2401.52,573.023 C2410.32,573.023 2415.93,567.853 2417.2,558.613 L2414.61,558.173 C2413.13,566.368 2408.95,570.438 2402.18,570.438 C2394.04,570.438 2390.19,564.828 2390.19,552.948 C2390.19,546.678 2391.02,542.553 2392.89,539.253 C2394.59,536.173 2397.95,534.248 2401.52,534.248 C2405.37,534.248 2408.78,536.283 2410.87,539.803 C2411.92,541.618 2412.69,543.653 2414.01,547.998 L2416.43,547.998 L2415.6,532.103 "/>
<path class="Harmony" d="M2601.06,532.103 L2598.97,532.103 L2596.77,535.348 C2592.76,532.433 2590.72,531.663 2586.93,531.663 C2581.7,531.663 2577.25,533.863 2573.56,538.263 C2570.04,542.443 2568.39,547.063 2568.39,552.728 C2568.39,564.608 2576.15,573.023 2586.98,573.023 C2595.78,573.023 2601.39,567.853 2602.66,558.613 L2600.07,558.173 C2598.59,566.368 2594.41,570.438 2587.64,570.438 C2579.5,570.438 2575.65,564.828 2575.65,552.948 C2575.65,546.678 2576.48,542.553 2578.35,539.253 C2580.05,536.173 2583.41,534.248 2586.98,534.248 C2590.83,534.248 2594.24,536.283 2596.33,539.803 C2597.38,541.618 2598.15,543.653 2599.47,547.998 L2601.89,547.998 L2601.06,532.103 "/>
<path class="Harmony" d="M1644.68,572.198 L1663.16,572.198 C1668.06,572.198 1671.8,571.428 1674.71,569.778 C1680.27,566.643 1683.35,560.373 1683.35,552.123 C1683.35,544.533 1680.6,538.593 1675.54,535.293 C1672.51,533.368 1668.44,532.488 1662.17,532.488 L1644.68,532.488 L1644.68,535.073 L1645.73,535.073 C1648.81,535.128 1649.85,535.293 1650.29,535.843 C1650.62,536.338 1650.62,536.448 1650.62,539.253 L1650.62,565.433 C1650.62,568.238 1650.62,568.348 1650.29,568.843 C1649.85,569.393 1648.81,569.558 1645.73,569.613 L1644.68,569.613 L1644.68,572.198 M1659.92,569.613 C1657.11,569.613 1656.78,569.283 1656.78,566.588 L1656.78,538.153 C1656.78,535.458 1657.17,535.073 1659.92,535.073 L1662.78,535.073 C1672.18,535.073 1676.09,540.188 1676.09,552.343 C1676.09,564.663 1672.57,569.613 1663.66,569.613 L1659.92,569.613 "/>
<path class="Harmony" d="M1691.57,546.788 L1693.99,547.173 L1694.98,542.828 C1695.8,539.198 1696.19,538.648 1697.78,538.648 C1698.06,538.648 1698.5,538.648 1698.99,538.703 C1705.76,539.033 1705.76,539.033 1708.29,539.033 C1709,539.033 1710.27,539.033 1711.81,538.978 L1708.07,546.513 C1704,554.598 1703.5,555.588 1702.13,558.998 C1700.42,563.123 1699.54,566.588 1699.54,568.898 C1699.54,571.428 1700.86,572.968 1703.01,572.968 C1705.65,572.968 1706.69,571.208 1706.64,566.423 C1706.36,558.503 1707.35,554.653 1713.24,541.783 C1714.23,539.638 1715.27,537.438 1716.26,535.293 L1716.26,533.698 C1712.96,533.973 1711.2,534.083 1707.79,534.083 C1703.01,534.083 1699.21,533.918 1693.27,533.478 L1691.57,546.788 "/>
<path class="Harmony" d="M2205.3,1043.4 L2223.78,1043.4 C2228.67,1043.4 2232.41,1042.63 2235.33,1040.98 C2240.88,1037.84 2243.96,1031.57 2243.96,1023.32 C2243.96,1015.73 2241.21,1009.79 2236.15,1006.49 C2233.13,1004.57 2229.06,1003.69 2222.79,1003.69 L2205.3,1003.69 L2205.3,1006.27 L2206.34,1006.27 C2209.42,1006.33 2210.47,1006.49 2210.91,1007.04 C2211.24,1007.54 2211.24,1007.65 2211.24,1010.45 L2211.24,1036.63 C2211.24,1039.44 2211.24,1039.55 2210.91,1040.04 C2210.47,1040.59 2209.42,1040.76 2206.34,1040.81 L2205.3,1040.81 L2205.3,1043.4 M2220.53,1040.81 C2217.73,1040.81 2217.4,1040.48 2217.4,1037.79 L2217.4,1009.35 C2217.4,1006.66 2217.78,1006.27 2220.53,1006.27 L2223.39,1006.27 C2232.8,1006.27 2236.7,1011.39 2236.7,1023.54 C2236.7,1035.86 2233.18,1040.81 2224.27,1040.81 L2220.53,1040.81 "/>
<path class="Harmony" d="M2252.18,1017.99 L2254.6,1018.37 L2255.59,1014.03 C2256.42,1010.4 2256.8,1009.85 2258.4,1009.85 C2258.67,1009.85 2259.11,1009.85 2259.61,1009.9 C2266.37,1010.23 2266.37,1010.23 2268.9,1010.23 C2269.62,1010.23 2270.88,1010.23 2272.42,1010.18 L2268.68,1017.71 C2264.61,1025.8 2264.12,1026.79 2262.74,1030.2 C2261.04,1034.32 2260.16,1037.79 2260.16,1040.1 C2260.16,1042.63 2261.48,1044.17 2263.62,1044.17 C2266.26,1044.17 2267.31,1042.41 2267.25,1037.62 C2266.98,1029.7 2267.97,1025.85 2273.85,1012.98 C2274.84,1010.84 2275.89,1008.64 2276.88,1006.49 L2276.88,1004.9 C2273.58,1005.17 2271.82,1005.28 2268.41,1005.28 C2263.62,1005.28 2259.83,1005.12 2253.89,1004.68 L2252.18,1017.99 "/>
<path class="Harmony" d="M1579.28,1003.3 L1577.19,1003.3 L1574.99,1006.55 C1570.98,1003.63 1568.94,1002.86 1565.15,1002.86 C1559.92,1002.86 1555.47,1005.06 1551.78,1009.46 C1548.26,1013.64 1546.61,1018.26 1546.61,1023.93 C1546.61,1035.81 1554.37,1044.22 1565.2,1044.22 C1574,1044.22 1579.61,1039.05 1580.88,1029.81 L1578.29,1029.37 C1576.81,1037.57 1572.63,1041.64 1565.86,1041.64 C1557.72,1041.64 1553.87,1036.03 1553.87,1024.15 C1553.87,1017.88 1554.7,1013.75 1556.57,1010.45 C1558.27,1007.37 1561.63,1005.45 1565.2,1005.45 C1569.05,1005.45 1572.46,1007.48 1574.55,1011 C1575.6,1012.82 1576.37,1014.85 1577.69,1019.2 L1580.11,1019.2 L1579.28,1003.3 "/>
<path class="NoteDot" transform="matrix(0.992,0,0,0.992,402.535,1192.2)" d="M0,0 C0,2.8 2.2,5 5,5 C7.8,5 10,2.8 10,0 C10,-2.8 7.8,-5 5,-5 C2.2,-5 0,-2.8 0,0"/>
<path class="NoteDot" transform="matrix(0.992,0,0,0.992,2013.64,770.598)" d="M0,0 C0,2.8 2.2,5 5,5 C7.8,5 10,2.8 10,0 C10,-2.8 7.8,-5 5,-5 C2.2,-5 0,-2.8 0,0"/>
<path class="NoteDot" transform="matrix(0.992,0,0,0.992,441.27,696.198)" d="M0,0 C0,2.8 2.2,5 5,5 C7.8,5 10,2.8 10,0 C10,-2.8 7.8,-5 5,-5 C2.2,-5 0,-2.8 0,0"/>
<path class="NoteDot" transform="matrix(0.992,0,0,0.992,2427.55,720.998)" d="M0,0 C0,2.8 2.2,5 5,5 C7.8,5 10,2.8 10,0 C10,-2.8 7.8,-5 5,-5 C2.2,-5 0,-2.8 0,0"/>
<path class="NoteDot" transform="matrix(0.992,0,0,0.992,2057.96,1241.8)" d="M0,0 C0,2.8 2.2,5 5,5 C7.8,5 10,2.8 10,0 C10,-2.8 7.8,-5 5,-5 C2.2,-5 0,-2.8 0,0"/>
<path class="NoteDot" transform="matrix(0.992,0,0,0.992,1275.39,770.598)" d="M0,0 C0,2.8 2.2,5 5,5 C7.8,5 10,2.8 10,0 C10,-2.8 7.8,-5 5,-5 C2.2,-5 0,-2.8 0,0"/>
<path class="NoteDot" transform="matrix(0.992,0,0,0.992,1164.09,1217)" d="M0,0 C0,2.8 2.2,5 5,5 C7.8,5 10,2.8 10,0 C10,-2.8 7.8,-5 5,-5 C2.2,-5 0,-2.8 0,0"/>
</svg>
