<?xml version="1.0" encoding="UTF-8" standalone="no"?>
<svg width="2977.2px" height="4208.4px" viewBox="0 0 2977.2 4208.4"
 xmlns="http://www.w3.org/2000/svg" xmlns:xlink="http://www.w3.org/1999/xlink" version="1.2" baseProfile="tiny">
<title>麦打ち歌</title>
<desc>Generated by MuseScore Studio 4.4.2</desc>
<path class="" fill="#ffffff" fill-rule="evenodd" d="M0,0 L2977.2,0 L2977.2,4208.4 L0,4208.4 L0,0 "/>
<polyline class="StaffLines" fill="none" stroke="#000000" stroke-width="2.73" stroke-linejoin="bevel" points="212.598,634.198 2764.6,634.198"/>
<polyline class="StaffLines" fill="none" stroke="#000000" stroke-width="2.73" stroke-linejoin="bevel" points="212.598,658.998 2764.6,658.998"/>
<polyline class="StaffLines" fill="none" stroke="#000000" stroke-width="2.73" stroke-linejoin="bevel" points="212.598,683.798 2764.6,683.798"/>
<polyline class="StaffLines" fill="none" stroke="#000000" stroke-width="2.73" stroke-linejoin="bevel" points="212.598,708.598 2764.6,708.598"/>
<polyline class="StaffLines" fill="none" stroke="#000000" stroke-width="2.73" stroke-linejoin="bevel" points="212.598,733.398 2764.6,733.398"/>
<polyline class="StaffLines" fill="none" stroke="#000000" stroke-width="2.73" stroke-linejoin="bevel" points="212.598,1105.4 2764.6,1105.4"/>
<polyline class="StaffLines" fill="none" stroke="#000000" stroke-width="2.73" stroke-linejoin="bevel" points="212.598,1130.2 2764.6,1130.2"/>
<polyline class="StaffLines" fill="none" stroke="#000000" stroke-width="2.73" stroke-linejoin="bevel" points="212.598,1155 2764.6,1155"/>
<polyline class="StaffLines" fill="none" stroke="#000000" stroke-width="2.73" stroke-linejoin="bevel" points="212.598,1179.8 2764.6,1179.8"/>
<polyline class="StaffLines" fill="none" stroke="#000000" stroke-width="2.73" stroke-linejoin="bevel" points="212.598,1204.6 2764.6,1204.6"/>
<polyline class="StaffLines" fill="none" stroke="#000000" stroke-width="2.73" stroke-linejoin="bevel" points="212.598,1576.6 2764.6,1576.6"/>
<polyline class="StaffLines" fill="none" stroke="#000000" stroke-width="2.73" stroke-linejoin="bevel" points="212.598,1601.4 2764.6,1601.4"/>
<polyline class="StaffLines" fill="none" stroke="#000000" stroke-width="2.73" stroke-linejoin="bevel" points="212.598,1626.2 2764.6,1626.2"/>
<polyline class="StaffLines" fill="none" stroke="#000000" stroke-width="2.73" stroke-linejoin="bevel" points="212.598,1651 2764.6,1651"/>
<polyline class="StaffLines" fill="none" stroke="#000000" stroke-width="2.73" stroke-linejoin="bevel" points="212.598,1675.8 2764.6,1675.8"/>
<path class="Text" d="M1347.31,267.275 C1344.56,267.715 1342.14,267.825 1337.41,267.825 L1310.13,267.825 C1312.99,264.525 1313.87,263.315 1316.29,259.575 L1358.42,259.575 C1363.26,259.575 1366.89,259.795 1369.75,260.235 L1369.75,252.865 C1367.22,253.305 1364.25,253.525 1358.86,253.525 L1323.22,253.525 L1323.22,244.065 L1348.52,244.065 C1352.26,244.065 1355.34,244.175 1358.53,244.615 L1358.53,237.465 C1355.45,237.905 1352.59,238.015 1348.52,238.015 L1323.22,238.015 L1323.22,229.545 L1351.6,229.545 C1356.88,229.545 1359.85,229.655 1362.6,230.095 L1362.6,222.725 C1359.52,223.165 1356.33,223.385 1351.16,223.385 L1323.22,223.385 L1323.22,221.625 C1323.22,217.555 1323.44,215.355 1323.99,212.605 L1315.85,212.605 C1316.4,215.025 1316.51,217.115 1316.51,221.625 L1316.51,223.385 L1289.78,223.385 C1284.83,223.385 1281.42,223.165 1278.56,222.725 L1278.56,230.095 C1281.2,229.655 1284.28,229.545 1289.45,229.545 L1316.51,229.545 L1316.51,238.015 L1293.41,238.015 C1289.45,238.015 1286.37,237.905 1283.29,237.465 L1283.29,244.615 C1286.7,244.175 1289.67,244.065 1293.41,244.065 L1316.51,244.065 L1316.51,253.525 L1283.07,253.525 C1277.57,253.525 1274.6,253.305 1272.18,252.865 L1272.18,260.235 C1275.37,259.795 1278.67,259.575 1283.4,259.575 L1308.48,259.575 C1301.33,270.355 1289.67,278.935 1272.84,285.755 C1275.15,287.515 1276.14,288.505 1277.68,290.925 C1287.47,286.745 1293.96,282.785 1301.22,276.625 C1306.06,282.895 1310.13,286.965 1316.51,291.695 C1304.3,298.295 1290.22,303.025 1272.73,306.325 C1274.6,308.635 1275.59,310.175 1276.47,312.705 C1295.5,308.745 1309.25,303.685 1322.56,295.655 C1334.44,302.915 1349.29,308.195 1367.99,311.935 C1368.98,308.745 1369.64,307.315 1371.4,304.675 C1354.02,302.145 1340.6,298.075 1328.61,291.805 C1336.86,285.975 1340.82,282.345 1347.2,275.305 C1349.62,272.665 1349.95,272.225 1350.61,271.675 C1350.72,271.565 1350.94,271.455 1351.05,271.235 L1347.31,267.275 M1340.05,273.325 C1333.34,280.365 1329.71,283.445 1322.45,288.065 C1315.74,283.555 1311.12,279.375 1306.28,273.325 L1340.05,273.325 M1399.67,235.375 L1391.42,235.375 C1387.79,235.375 1385.15,235.155 1382.51,234.715 L1382.51,242.195 C1385.81,241.755 1388.34,241.645 1391.75,241.645 L1399.67,241.645 L1399.67,265.735 C1390.65,268.265 1385.92,269.145 1381.08,269.365 L1382.73,277.285 C1384.16,276.735 1386.25,276.185 1388.78,275.525 C1392.63,274.535 1394.94,273.985 1399.67,272.665 L1399.67,302.035 C1399.67,304.455 1398.79,305.005 1394.83,305.005 C1392.3,305.005 1388.45,304.675 1384.6,304.015 C1385.7,306.875 1385.92,307.755 1386.25,311.385 C1388.67,311.495 1391.86,311.605 1394.17,311.605 C1398.13,311.605 1401.65,311.165 1403.41,310.505 C1405.72,309.735 1406.93,307.425 1406.93,303.905 L1406.93,270.575 C1412.87,268.705 1415.95,267.715 1423.65,264.965 L1423.43,258.365 C1414.85,261.445 1411.99,262.435 1406.93,263.755 L1406.93,241.645 L1414.19,241.645 C1417.49,241.645 1420.68,241.865 1423.43,242.195 L1423.43,234.825 C1420.68,235.265 1418.37,235.375 1415.18,235.375 L1406.93,235.375 L1406.93,224.265 C1406.93,220.195 1407.15,216.565 1407.59,213.265 L1398.9,213.265 C1399.34,216.565 1399.67,220.195 1399.67,224.375 L1399.67,235.375 M1454.89,228.665 L1454.89,301.155 C1454.89,303.685 1453.9,304.125 1449.17,304.125 C1444.66,304.125 1438.39,303.465 1431.68,302.255 C1432.56,305.005 1433,306.875 1433.33,310.065 C1439.05,310.615 1443.89,310.835 1448.51,310.835 C1459.62,310.835 1462.26,309.185 1462.26,302.035 L1462.26,228.665 L1469.63,228.665 C1474.14,228.665 1478.1,228.885 1481.29,229.325 L1481.29,221.515 C1478.54,221.955 1474.47,222.175 1469.74,222.175 L1432.89,222.175 C1428.05,222.175 1423.98,221.955 1421.34,221.515 L1421.34,229.325 C1424.31,228.885 1428.38,228.665 1432.78,228.665 L1454.89,228.665 "/>
<path class="Text" d="M1499.22,241.315 C1499.55,241.315 1499.88,241.315 1500.1,241.315 C1500.76,241.315 1501.75,241.315 1503.18,241.425 C1509.56,241.865 1514.4,242.085 1521.44,242.195 C1517.7,255.175 1511.43,270.575 1506.7,278.055 L1514.62,281.245 C1516.82,278.385 1519.35,276.405 1523.86,274.205 C1531.34,270.465 1540.91,268.265 1549.38,268.265 C1562.58,268.265 1570.5,273.325 1570.5,281.685 C1570.5,292.245 1559.06,299.175 1541.68,299.175 C1531.67,299.175 1522.76,297.415 1514.18,293.675 C1514.51,297.195 1514.73,299.175 1514.73,299.725 C1514.73,299.835 1514.73,299.945 1514.73,300.385 C1514.73,300.715 1514.73,301.375 1514.62,302.145 C1523.42,305.115 1532,306.435 1541.79,306.435 C1564.01,306.435 1578.64,296.645 1578.64,281.685 C1578.64,269.365 1567.53,261.445 1550.15,261.445 C1538.16,261.445 1525.84,264.965 1518.14,270.685 L1518.03,270.465 C1521.11,265.405 1525.95,252.865 1529.03,242.195 C1545.64,241.645 1554.44,240.985 1569.84,239.005 C1572.15,238.675 1572.81,238.675 1574.68,238.455 L1574.13,230.535 C1566.98,232.955 1552.35,234.495 1530.79,235.265 C1531.89,231.305 1532.22,229.985 1533.76,223.605 C1534.97,218.215 1534.97,218.215 1535.52,216.565 L1526.72,215.685 C1526.61,220.635 1525.51,226.795 1523.2,235.375 C1511.65,235.375 1504.61,234.825 1499.44,233.505 L1499.22,241.315 "/>
<path class="Text" d="M1669.83,244.945 C1670.16,246.705 1670.27,248.135 1670.27,249.785 C1670.27,257.485 1669.72,264.085 1668.4,270.685 C1665.87,283.335 1661.69,292.245 1654.21,300.715 C1651.68,303.575 1650.47,304.565 1647.06,306.875 C1647.39,305.335 1647.5,304.455 1647.5,301.485 L1647.5,268.485 C1651.46,268.595 1654.1,268.705 1657.07,269.035 L1657.07,261.885 C1654.21,262.325 1650.69,262.545 1645.96,262.545 L1610.76,262.545 C1606.58,262.545 1603.83,262.325 1600.97,261.885 L1600.97,269.035 C1603.61,268.595 1606.25,268.485 1610.87,268.485 L1641.01,268.485 L1641.01,301.375 C1641.01,304.565 1640.79,304.785 1636.5,304.785 C1634.08,304.785 1631.22,304.565 1627.81,304.015 C1628.58,306.545 1628.8,308.305 1628.91,310.615 C1631.88,310.725 1633.31,310.835 1635.4,310.835 C1639.69,310.835 1642,310.615 1644.09,309.955 C1645.52,309.515 1646.18,308.855 1647.06,306.985 C1649.15,309.075 1649.26,309.295 1651.35,312.815 C1657.18,308.085 1661.03,303.795 1664.55,297.965 C1670.05,289.055 1672.47,281.685 1674.01,269.585 C1675.66,279.045 1677.64,284.985 1681.6,291.915 C1686.11,299.945 1690.95,305.555 1699.31,312.485 C1699.64,311.935 1699.86,311.495 1699.97,311.165 C1700.74,310.065 1701.18,309.295 1701.29,309.075 C1701.73,308.415 1702.06,307.975 1703.82,306.105 C1697.77,301.815 1694.14,298.295 1690.4,293.455 C1681.82,282.125 1677.2,267.055 1677.2,250.335 C1677.2,248.025 1677.31,246.705 1677.64,244.945 L1669.83,244.945 M1641.45,224.595 L1641.45,250.555 C1641.45,252.645 1640.9,253.195 1638.48,253.195 C1636.94,253.195 1635.84,253.085 1634.19,252.865 C1633.97,250.775 1633.86,249.125 1633.86,245.275 L1633.86,238.455 C1633.86,234.935 1633.97,233.065 1634.19,230.865 C1631.99,231.085 1629.57,231.195 1625.39,231.195 L1617.25,231.195 C1613.07,231.195 1610.65,231.085 1608.34,230.865 C1608.56,233.285 1608.67,235.705 1608.67,239.555 L1608.67,246.485 C1608.67,248.135 1608.45,251.325 1608.23,253.085 C1610.54,252.865 1613.07,252.755 1615.27,252.755 L1625.72,252.755 C1628.36,252.755 1630.78,252.865 1632.65,252.975 C1633.31,254.735 1633.64,256.385 1633.86,258.805 C1635.29,258.805 1636.94,258.915 1638.15,258.915 C1645.74,258.915 1647.83,257.155 1647.83,250.775 L1647.83,224.595 C1651.9,224.705 1653.77,224.815 1655.75,225.145 L1655.75,218.215 C1652.78,218.655 1649.04,218.875 1644.2,218.875 L1612.52,218.875 C1608.12,218.875 1605.15,218.655 1602.29,218.215 L1602.29,225.145 C1605.04,224.705 1607.46,224.595 1612.08,224.595 L1641.45,224.595 M1614.39,236.145 L1628.25,236.145 L1628.25,247.805 L1614.39,247.805 L1614.39,236.145 M1668.95,230.645 C1670.16,226.245 1670.93,223.165 1671.59,219.975 C1672.14,217.445 1672.36,216.565 1672.91,214.695 L1665.32,213.155 C1665.32,215.685 1664.66,220.305 1663.67,224.485 C1661.25,235.815 1655.97,247.145 1650.25,253.855 C1652.78,255.505 1654.43,256.935 1655.64,258.585 C1660.37,251.985 1663.67,245.495 1666.86,236.695 L1693.81,236.695 C1690.84,246.595 1688.42,251.875 1684.24,258.255 C1686.33,259.135 1687.1,259.575 1690.07,261.555 C1693.81,255.395 1697.77,246.595 1699.53,240.325 C1700.41,237.135 1700.96,235.595 1701.62,234.165 L1697.88,230.095 C1696.12,230.535 1693.48,230.645 1688.86,230.645 L1668.95,230.645 M1613.62,303.245 L1613.62,297.305 L1626.05,297.305 C1630.67,297.305 1632.21,297.415 1634.3,297.635 C1633.97,295.435 1633.97,294.335 1633.97,290.045 L1633.97,282.455 C1633.97,278.055 1633.97,276.735 1634.3,274.645 C1632.1,274.975 1630.67,274.975 1625.39,274.975 L1616.37,274.975 C1611.2,274.975 1609.77,274.975 1607.35,274.645 C1607.68,277.285 1607.79,279.705 1607.79,283.335 L1607.79,294.115 C1607.79,297.855 1607.57,300.935 1607.13,303.245 L1613.62,303.245 M1613.62,280.145 L1628.25,280.145 L1628.25,292.135 L1613.62,292.135 L1613.62,280.145 "/>
<path class="MeasureNumber" d="M216.922,1040.48 C215.682,1041.24 215.322,1041.72 215.322,1042.52 C215.322,1043.28 215.962,1043.84 216.762,1043.84 C217.802,1043.84 218.402,1043.08 218.522,1041.6 C219.762,1040.6 221.082,1040.16 222.682,1040.16 C225.642,1040.16 227.282,1042 227.282,1045.32 C227.282,1050.52 223.922,1054.76 219.802,1054.76 C217.442,1054.76 215.522,1053.64 215.522,1052.32 C215.522,1052.08 215.562,1052 215.762,1051.88 C217.042,1051.28 218.082,1050.84 218.082,1049.16 C218.082,1047.88 217.082,1046.92 215.682,1046.92 C213.922,1046.92 212.602,1048.4 212.602,1050.32 C212.602,1053.84 215.642,1056.4 219.922,1056.4 C226.402,1056.4 231.642,1051.24 231.642,1044.84 C231.642,1040.8 228.562,1037.96 224.202,1037.96 C222.482,1037.96 221.082,1038.32 219.162,1039.28 L221.402,1031.72 C223.522,1032.16 225.202,1032.36 226.642,1032.36 C229.282,1032.36 231.642,1031.52 232.962,1030.12 C233.642,1029.32 234.042,1028.64 234.042,1028.12 C234.042,1027.88 233.922,1027.64 233.762,1027.64 C233.642,1027.64 233.562,1027.68 233.322,1027.8 C232.002,1028.44 230.322,1028.8 228.762,1028.8 C226.362,1028.8 223.522,1028.4 220.562,1027.64 L216.922,1040.48 "/>
<path class="MeasureNumber" d="M228.053,1513.32 C227.053,1517.96 224.373,1525.92 218.653,1525.92 C217.493,1525.92 216.733,1525.44 216.733,1524.72 C216.733,1524.44 216.813,1524.32 217.133,1523.84 C217.533,1523.32 217.733,1522.84 217.733,1522.28 C217.733,1520.96 216.693,1519.96 215.333,1519.96 C213.733,1519.96 212.613,1521.16 212.613,1522.92 C212.613,1525.64 215.173,1527.6 218.733,1527.6 C227.493,1527.6 233.093,1516.4 233.093,1508.8 C233.093,1502.56 230.093,1498.84 225.133,1498.84 C219.173,1498.84 214.733,1504.32 214.733,1510.04 C214.733,1513.84 217.653,1516.72 221.533,1516.72 C224.173,1516.72 226.213,1515.64 228.053,1513.32 M225.093,1500.52 C227.653,1500.52 229.293,1502.56 229.293,1505.76 C229.293,1510.72 226.573,1514.36 222.893,1514.36 C220.373,1514.36 218.973,1512.64 218.973,1509.64 C218.973,1506.04 220.693,1500.52 225.093,1500.52"/>
<path class="TieSegment" stroke="#000000" stroke-width="1.74" stroke-linecap="round" stroke-linejoin="round" fill-rule="evenodd" d="M2110.51,1718.8 C2177.73,1749.12 2379.38,1749.12 2446.6,1718.8 C2379.38,1756.07 2177.73,1756.07 2110.51,1718.8"/>
<polyline class="BarLine" fill="none" stroke="#000000" stroke-width="4.46" stroke-linejoin="bevel" points="2218.89,632.834 2218.89,734.762"/>
<polyline class="BarLine" fill="none" stroke="#000000" stroke-width="4.46" stroke-linejoin="bevel" points="2740.42,1575.23 2740.42,1677.16"/>
<polyline class="BarLine" fill="none" stroke="#000000" stroke-width="13.64" stroke-linejoin="bevel" points="2757.78,1575.23 2757.78,1677.16"/>
<polyline class="BarLine" fill="none" stroke="#000000" stroke-width="4.46" stroke-linejoin="bevel" points="2762.37,632.834 2762.37,734.762"/>
<polyline class="BarLine" fill="none" stroke="#000000" stroke-width="4.46" stroke-linejoin="bevel" points="2399.38,1575.23 2399.38,1677.16"/>
<polyline class="BarLine" fill="none" stroke="#000000" stroke-width="4.46" stroke-linejoin="bevel" points="989.192,1104.03 989.192,1205.96"/>
<polyline class="BarLine" fill="none" stroke="#000000" stroke-width="4.46" stroke-linejoin="bevel" points="1658.2,632.834 1658.2,734.762"/>
<polyline class="BarLine" fill="none" stroke="#000000" stroke-width="4.46" stroke-linejoin="bevel" points="2058.33,1575.23 2058.33,1677.16"/>
<polyline class="BarLine" fill="none" stroke="#000000" stroke-width="4.46" stroke-linejoin="bevel" points="1585.5,1104.03 1585.5,1205.96"/>
<polyline class="BarLine" fill="none" stroke="#000000" stroke-width="4.46" stroke-linejoin="bevel" points="1402.44,1575.23 1402.44,1677.16"/>
<polyline class="BarLine" fill="none" stroke="#000000" stroke-width="4.46" stroke-linejoin="bevel" points="2261.75,1104.03 2261.75,1205.96"/>
<polyline class="BarLine" fill="none" stroke="#000000" stroke-width="4.46" stroke-linejoin="bevel" points="892.312,1575.23 892.312,1677.16"/>
<polyline class="BarLine" fill="none" stroke="#000000" stroke-width="4.46" stroke-linejoin="bevel" points="1097.52,632.834 1097.52,734.762"/>
<polyline class="BarLine" fill="none" stroke="#000000" stroke-width="4.46" stroke-linejoin="bevel" points="2762.37,1104.03 2762.37,1205.96"/>
<polyline class="LedgerLine" fill="none" stroke="#000000" stroke-width="3.97" stroke-linejoin="bevel" points="1256.26,1700.6 1305.85,1700.6"/>
<polyline class="LedgerLine" fill="none" stroke="#000000" stroke-width="3.97" stroke-linejoin="bevel" points="1414.7,1229.4 1464.29,1229.4"/>
<polyline class="LedgerLine" fill="none" stroke="#000000" stroke-width="3.97" stroke-linejoin="bevel" points="2084.12,1700.6 2133.71,1700.6"/>
<polyline class="LedgerLine" fill="none" stroke="#000000" stroke-width="3.97" stroke-linejoin="bevel" points="2425.17,1700.6 2474.75,1700.6"/>
<polyline class="Stem" fill="none" stroke="#000000" stroke-width="2.73" stroke-linejoin="bevel" points="1810.72,1200.63 1810.72,1130.25"/>
<polyline class="Stem" fill="none" stroke="#000000" stroke-width="2.73" stroke-linejoin="bevel" points="1454.24,1225.43 1454.24,1136.35"/>
<polyline class="Stem" fill="none" stroke="#000000" stroke-width="2.73" stroke-linejoin="bevel" points="2631.11,1175.83 2631.11,1093.2"/>
<polyline class="Stem" fill="none" stroke="#000000" stroke-width="2.73" stroke-linejoin="bevel" points="2284.22,704.63 2284.22,621.798"/>
<polyline class="Stem" fill="none" stroke="#000000" stroke-width="2.73" stroke-linejoin="bevel" points="602.166,704.63 602.166,621.997"/>
<polyline class="Stem" fill="none" stroke="#000000" stroke-width="2.73" stroke-linejoin="bevel" points="1970.61,1188.23 1970.61,1111.55"/>
<polyline class="Stem" fill="none" stroke="#000000" stroke-width="2.73" stroke-linejoin="bevel" points="1295.8,1696.63 1295.8,1607.54"/>
<polyline class="Stem" fill="none" stroke="#000000" stroke-width="2.73" stroke-linejoin="bevel" points="1160.54,1671.83 1160.54,1601.46"/>
<polyline class="Stem" fill="none" stroke="#000000" stroke-width="2.73" stroke-linejoin="bevel" points="957.645,1647.03 957.645,1564.2"/>
<polyline class="Stem" fill="none" stroke="#000000" stroke-width="2.73" stroke-linejoin="bevel" points="2616.34,704.63 2616.34,621.997"/>
<polyline class="Stem" fill="none" stroke="#000000" stroke-width="2.73" stroke-linejoin="bevel" points="747.33,675.565 747.33,739.598"/>
<polyline class="Stem" fill="none" stroke="#000000" stroke-width="2.73" stroke-linejoin="bevel" points="785.678,1622.23 785.678,1558.06"/>
<polyline class="Stem" fill="none" stroke="#000000" stroke-width="2.73" stroke-linejoin="bevel" points="1956.03,687.965 1956.03,758.198"/>
<polyline class="Stem" fill="none" stroke="#000000" stroke-width="2.73" stroke-linejoin="bevel" points="2464.71,1696.63 2464.71,1613.8"/>
<polyline class="Stem" fill="none" stroke="#000000" stroke-width="2.73" stroke-linejoin="bevel" points="1603.03,1671.83 1603.03,1601.46"/>
<polyline class="Stem" fill="none" stroke="#000000" stroke-width="2.73" stroke-linejoin="bevel" points="650.415,1634.63 650.415,1564.14"/>
<polyline class="Stem" fill="none" stroke="#000000" stroke-width="2.73" stroke-linejoin="bevel" points="388.771,1188.23 388.771,1111.56"/>
<polyline class="Stem" fill="none" stroke="#000000" stroke-width="2.73" stroke-linejoin="bevel" points="560.24,1647.03 560.24,1576.65"/>
<polyline class="Stem" fill="none" stroke="#000000" stroke-width="2.73" stroke-linejoin="bevel" points="1738.29,1659.43 1738.29,1576.63"/>
<polyline class="Stem" fill="none" stroke="#000000" stroke-width="2.73" stroke-linejoin="bevel" points="388.771,1659.43 388.771,1582.75"/>
<polyline class="Stem" fill="none" stroke="#000000" stroke-width="2.73" stroke-linejoin="bevel" points="921.99,675.565 921.99,739.598"/>
<polyline class="Stem" fill="none" stroke="#000000" stroke-width="2.73" stroke-linejoin="bevel" points="591.456,1175.83 591.456,1105.44"/>
<polyline class="Stem" fill="none" stroke="#000000" stroke-width="2.73" stroke-linejoin="bevel" points="1873.56,1684.23 1873.56,1579.62"/>
<polyline class="Stem" fill="none" stroke="#000000" stroke-width="2.73" stroke-linejoin="bevel" points="698.047,1163.43 698.047,1099.2"/>
<polyline class="Stem" fill="none" stroke="#000000" stroke-width="2.73" stroke-linejoin="bevel" points="2327.08,1200.63 2327.08,1117.8"/>
<polyline class="Stem" fill="none" stroke="#000000" stroke-width="2.73" stroke-linejoin="bevel" points="1944.69,1671.83 1944.69,1581.19"/>
<polyline class="Stem" fill="none" stroke="#000000" stroke-width="2.73" stroke-linejoin="bevel" points="1133.35,687.965 1133.35,758.198"/>
<polyline class="Stem" fill="none" stroke="#000000" stroke-width="2.73" stroke-linejoin="bevel" points="857.934,1163.43 857.934,1099.2"/>
<polyline class="Stem" fill="none" stroke="#000000" stroke-width="2.73" stroke-linejoin="bevel" points="2130.49,1175.83 2130.49,1105.45"/>
<polyline class="Stem" fill="none" stroke="#000000" stroke-width="2.73" stroke-linejoin="bevel" points="1467.77,1684.23 1467.77,1607.54"/>
<polyline class="Stem" fill="none" stroke="#000000" stroke-width="2.73" stroke-linejoin="bevel" points="1723.54,692.23 1723.54,615.598"/>
<polyline class="Stem" fill="none" stroke="#000000" stroke-width="2.73" stroke-linejoin="bevel" points="1054.52,1175.83 1054.52,1093"/>
<polyline class="Stem" fill="none" stroke="#000000" stroke-width="2.73" stroke-linejoin="bevel" points="2015.83,1684.23 2015.83,1582.77"/>
<polyline class="Stem" fill="none" stroke="#000000" stroke-width="2.73" stroke-linejoin="bevel" points="1650.83,1213.03 1650.83,1136.35"/>
<polyline class="Stem" fill="none" stroke="#000000" stroke-width="2.73" stroke-linejoin="bevel" points="1294.36,1200.63 1294.36,1130.25"/>
<polyline class="Stem" fill="none" stroke="#000000" stroke-width="2.73" stroke-linejoin="bevel" points="1424.84,704.63 1424.84,621.798"/>
<polyline class="Stem" fill="none" stroke="#000000" stroke-width="2.73" stroke-linejoin="bevel" points="2123.66,1696.63 2123.66,1613.8"/>
<path class="Hook" transform="matrix(0.992,0,0,0.992,600.802,621.798)" d="M0,22.7 C0,23 0.1,23.6 0.8,23.8 C5.1,25.2 13.7,30.6 20.2,41.7 C22,44.8 24.9,49.1 24.9,57.4 C24.9,64.6 23.1,72 20.4,79.2 C20.2,79.8 20.1,80.3 20.1,80.7 C20.1,81.4 20.5,81.7 21.2,81.7 C21.8,81.7 22.3,81.3 22.7,80.6 C27.2,72.6 28.9,63.3 28.9,54.2 C28.4,41.3 21,31.8 21,31.8 C21.3,31.8 11.8,19.5 9.1,15.3 C5.4,9.6 3.7,3.9 3.5,3.5 C3.4,3.2 2.5,-0.4 2.5,-0.4 C2.4,-0.8 1.9,-1.2 1.3,-1.2 C0.6,-1.2 0,-0.6 0,0.1 L0,22.7 "/>
<path class="Hook" transform="matrix(0.992,0,0,0.992,2629.75,1093)" d="M0,22.7 C0,23 0.1,23.6 0.8,23.8 C5.1,25.2 13.7,30.6 20.2,41.7 C22,44.8 24.9,49.1 24.9,57.4 C24.9,64.6 23.1,72 20.4,79.2 C20.2,79.8 20.1,80.3 20.1,80.7 C20.1,81.4 20.5,81.7 21.2,81.7 C21.8,81.7 22.3,81.3 22.7,80.6 C27.2,72.6 28.9,63.3 28.9,54.2 C28.4,41.3 21,31.8 21,31.8 C21.3,31.8 11.8,19.5 9.1,15.3 C5.4,9.6 3.7,3.9 3.5,3.5 C3.4,3.2 2.5,-0.4 2.5,-0.4 C2.4,-0.8 1.9,-1.2 1.3,-1.2 C0.6,-1.2 0,-0.6 0,0.1 L0,22.7 "/>
<path class="Hook" transform="matrix(0.992,0,0,0.992,2614.97,621.798)" d="M0,22.7 C0,23 0.1,23.6 0.8,23.8 C5.1,25.2 13.7,30.6 20.2,41.7 C22,44.8 24.9,49.1 24.9,57.4 C24.9,64.6 23.1,72 20.4,79.2 C20.2,79.8 20.1,80.3 20.1,80.7 C20.1,81.4 20.5,81.7 21.2,81.7 C21.8,81.7 22.3,81.3 22.7,80.6 C27.2,72.6 28.9,63.3 28.9,54.2 C28.4,41.3 21,31.8 21,31.8 C21.3,31.8 11.8,19.5 9.1,15.3 C5.4,9.6 3.7,3.9 3.5,3.5 C3.4,3.2 2.5,-0.4 2.5,-0.4 C2.4,-0.8 1.9,-1.2 1.3,-1.2 C0.6,-1.2 0,-0.6 0,0.1 L0,22.7 "/>
<path class="Note" transform="matrix(0.992,0,0,0.992,2585.48,708.598)" d="M0,4.2 C0,8.5 3.1,13.3 11.2,13.3 C21.6,13.3 32.5,4.8 32.5,-4 C32.5,-9.9 27.5,-13.2 21.3,-13.2 C11.6,-13.2 0,-5 0,4.2"/>
<path class="Note" transform="matrix(0.992,0,0,0.992,1572.17,1675.8)" d="M0,4.2 C0,8.5 3.1,13.3 11.2,13.3 C21.6,13.3 32.5,4.8 32.5,-4 C32.5,-9.9 27.5,-13.2 21.3,-13.2 C11.6,-13.2 0,-5 0,4.2"/>
<path class="Note" transform="matrix(0.992,0,0,0.992,1263.49,1204.6)" d="M0,4.2 C0,8.5 3.1,13.3 11.2,13.3 C21.6,13.3 32.5,4.8 32.5,-4 C32.5,-9.9 27.5,-13.2 21.3,-13.2 C11.6,-13.2 0,-5 0,4.2"/>
<path class="Note" transform="matrix(0.992,0,0,0.992,745.966,671.398)" d="M0,4.2 C0,8.5 3.1,13.3 11.2,13.3 C21.6,13.3 32.5,4.8 32.5,-4 C32.5,-9.9 27.5,-13.2 21.3,-13.2 C11.6,-13.2 0,-5 0,4.2"/>
<path class="Note" transform="matrix(0.992,0,0,0.992,1619.97,1217)" d="M0,4.2 C0,8.5 3.1,13.3 11.2,13.3 C21.6,13.3 32.5,4.8 32.5,-4 C32.5,-9.9 27.5,-13.2 21.3,-13.2 C11.6,-13.2 0,-5 0,4.2"/>
<path class="Note" transform="matrix(0.992,0,0,0.992,1264.94,1700.6)" d="M0,4.2 C0,8.5 3.1,13.3 11.2,13.3 C21.6,13.3 32.5,4.8 32.5,-4 C32.5,-9.9 27.5,-13.2 21.3,-13.2 C11.6,-13.2 0,-5 0,4.2"/>
<path class="Note" transform="matrix(0.992,0,0,0.992,1984.96,1688.2)" d="M0,4.2 C0,8.5 3.1,13.3 11.2,13.3 C21.6,13.3 32.5,4.8 32.5,-4 C32.5,-9.9 27.5,-13.2 21.3,-13.2 C11.6,-13.2 0,-5 0,4.2"/>
<path class="Note" transform="matrix(0.992,0,0,0.992,1023.66,1179.8)" d="M0,4.2 C0,8.5 3.1,13.3 11.2,13.3 C21.6,13.3 32.5,4.8 32.5,-4 C32.5,-9.9 27.5,-13.2 21.3,-13.2 C11.6,-13.2 0,-5 0,4.2"/>
<path class="Note" transform="matrix(0.992,0,0,0.992,1131.99,683.798)" d="M0,4.2 C0,8.5 3.1,13.3 11.2,13.3 C21.6,13.3 32.5,4.8 32.5,-4 C32.5,-9.9 27.5,-13.2 21.3,-13.2 C11.6,-13.2 0,-5 0,4.2"/>
<path class="Note" transform="matrix(0.992,0,0,0.992,1692.67,696.198)" d="M0,4.2 C0,8.5 3.1,13.3 11.2,13.3 C21.6,13.3 32.5,4.8 32.5,-4 C32.5,-9.9 27.5,-13.2 21.3,-13.2 C11.6,-13.2 0,-5 0,4.2"/>
<path class="Note" transform="matrix(0.992,0,0,0.992,1939.75,1192.2)" d="M0,4.2 C0,8.5 3.1,13.3 11.2,13.3 C21.6,13.3 32.5,4.8 32.5,-4 C32.5,-9.9 27.5,-13.2 21.3,-13.2 C11.6,-13.2 0,-5 0,4.2"/>
<path class="Note" transform="matrix(0.992,0,0,0.992,571.306,708.598)" d="M0,4.2 C0,8.5 3.1,13.3 11.2,13.3 C21.6,13.3 32.5,4.8 32.5,-4 C32.5,-9.9 27.5,-13.2 21.3,-13.2 C11.6,-13.2 0,-5 0,4.2"/>
<path class="Note" transform="matrix(0.992,0,0,0.992,1913.83,1675.8)" d="M0,4.2 C0,8.5 3.1,13.3 11.2,13.3 C21.6,13.3 32.5,4.8 32.5,-4 C32.5,-9.9 27.5,-13.2 21.3,-13.2 C11.6,-13.2 0,-5 0,4.2"/>
<path class="Note" transform="matrix(0.992,0,0,0.992,827.073,1167.4)" d="M0,4.2 C0,8.5 3.1,13.3 11.2,13.3 C21.6,13.3 32.5,4.8 32.5,-4 C32.5,-9.9 27.5,-13.2 21.3,-13.2 C11.6,-13.2 0,-5 0,4.2"/>
<path class="Note" transform="matrix(0.992,0,0,0.992,2099.63,1179.8)" d="M0,4.2 C0,8.5 3.1,13.3 11.2,13.3 C21.6,13.3 32.5,4.8 32.5,-4 C32.5,-9.9 27.5,-13.2 21.3,-13.2 C11.6,-13.2 0,-5 0,4.2"/>
<path class="Note" transform="matrix(0.992,0,0,0.992,2092.8,1700.6)" d="M21.3,-13.2 C11.6,-13.2 0,-5.1 0,4.2 C0,8.5 3.1,13.3 11.2,13.3 C21.6,13.3 32.5,4.8 32.5,-4 C32.5,-9.9 27.5,-13.2 21.3,-13.2 M7.5,8.6 C4.2,8.6 3.5,5.9 3.5,5 C3.5,0.1 20.3,-8.5 25,-8.5 C27.4,-8.5 29,-7.1 29,-4.9 C29,0.1 12.1,8.6 7.5,8.6"/>
<path class="Note" transform="matrix(0.992,0,0,0.992,2433.85,1700.6)" d="M21.3,-13.2 C11.6,-13.2 0,-5.1 0,4.2 C0,8.5 3.1,13.3 11.2,13.3 C21.6,13.3 32.5,4.8 32.5,-4 C32.5,-9.9 27.5,-13.2 21.3,-13.2 M7.5,8.6 C4.2,8.6 3.5,5.9 3.5,5 C3.5,0.1 20.3,-8.5 25,-8.5 C27.4,-8.5 29,-7.1 29,-4.9 C29,0.1 12.1,8.6 7.5,8.6"/>
<path class="Note" transform="matrix(0.992,0,0,0.992,920.626,671.398)" d="M0,4.2 C0,8.5 3.1,13.3 11.2,13.3 C21.6,13.3 32.5,4.8 32.5,-4 C32.5,-9.9 27.5,-13.2 21.3,-13.2 C11.6,-13.2 0,-5 0,4.2"/>
<path class="Note" transform="matrix(0.992,0,0,0.992,667.186,1167.4)" d="M0,4.2 C0,8.5 3.1,13.3 11.2,13.3 C21.6,13.3 32.5,4.8 32.5,-4 C32.5,-9.9 27.5,-13.2 21.3,-13.2 C11.6,-13.2 0,-5 0,4.2"/>
<path class="Note" transform="matrix(0.992,0,0,0.992,2296.22,1204.6)" d="M0,4.2 C0,8.5 3.1,13.3 11.2,13.3 C21.6,13.3 32.5,4.8 32.5,-4 C32.5,-9.9 27.5,-13.2 21.3,-13.2 C11.6,-13.2 0,-5 0,4.2"/>
<path class="Note" transform="matrix(0.992,0,0,0.992,1436.91,1688.2)" d="M0,4.2 C0,8.5 3.1,13.3 11.2,13.3 C21.6,13.3 32.5,4.8 32.5,-4 C32.5,-9.9 27.5,-13.2 21.3,-13.2 C11.6,-13.2 0,-5 0,4.2"/>
<path class="Note" transform="matrix(0.992,0,0,0.992,1842.7,1688.2)" d="M0,4.2 C0,8.5 3.1,13.3 11.2,13.3 C21.6,13.3 32.5,4.8 32.5,-4 C32.5,-9.9 27.5,-13.2 21.3,-13.2 C11.6,-13.2 0,-5 0,4.2"/>
<path class="Note" transform="matrix(0.992,0,0,0.992,560.595,1179.8)" d="M0,4.2 C0,8.5 3.1,13.3 11.2,13.3 C21.6,13.3 32.5,4.8 32.5,-4 C32.5,-9.9 27.5,-13.2 21.3,-13.2 C11.6,-13.2 0,-5 0,4.2"/>
<path class="Note" transform="matrix(0.992,0,0,0.992,1423.38,1229.4)" d="M0,4.2 C0,8.5 3.1,13.3 11.2,13.3 C21.6,13.3 32.5,4.8 32.5,-4 C32.5,-9.9 27.5,-13.2 21.3,-13.2 C11.6,-13.2 0,-5 0,4.2"/>
<path class="Note" transform="matrix(0.992,0,0,0.992,754.818,1626.2)" d="M0,4.2 C0,8.5 3.1,13.3 11.2,13.3 C21.6,13.3 32.5,4.8 32.5,-4 C32.5,-9.9 27.5,-13.2 21.3,-13.2 C11.6,-13.2 0,-5 0,4.2"/>
<path class="Note" transform="matrix(0.992,0,0,0.992,2600.25,1179.8)" d="M0,4.2 C0,8.5 3.1,13.3 11.2,13.3 C21.6,13.3 32.5,4.8 32.5,-4 C32.5,-9.9 27.5,-13.2 21.3,-13.2 C11.6,-13.2 0,-5 0,4.2"/>
<path class="Note" transform="matrix(0.992,0,0,0.992,1129.68,1675.8)" d="M0,4.2 C0,8.5 3.1,13.3 11.2,13.3 C21.6,13.3 32.5,4.8 32.5,-4 C32.5,-9.9 27.5,-13.2 21.3,-13.2 C11.6,-13.2 0,-5 0,4.2"/>
<path class="Note" transform="matrix(0.992,0,0,0.992,1707.43,1663.4)" d="M0,4.2 C0,8.5 3.1,13.3 11.2,13.3 C21.6,13.3 32.5,4.8 32.5,-4 C32.5,-9.9 27.5,-13.2 21.3,-13.2 C11.6,-13.2 0,-5 0,4.2"/>
<path class="Note" transform="matrix(0.992,0,0,0.992,1779.86,1204.6)" d="M0,4.2 C0,8.5 3.1,13.3 11.2,13.3 C21.6,13.3 32.5,4.8 32.5,-4 C32.5,-9.9 27.5,-13.2 21.3,-13.2 C11.6,-13.2 0,-5 0,4.2"/>
<path class="Note" transform="matrix(0.992,0,0,0.992,1954.67,683.798)" d="M0,4.2 C0,8.5 3.1,13.3 11.2,13.3 C21.6,13.3 32.5,4.8 32.5,-4 C32.5,-9.9 27.5,-13.2 21.3,-13.2 C11.6,-13.2 0,-5 0,4.2"/>
<path class="Note" transform="matrix(0.992,0,0,0.992,2253.36,708.598)" d="M0,4.2 C0,8.5 3.1,13.3 11.2,13.3 C21.6,13.3 32.5,4.8 32.5,-4 C32.5,-9.9 27.5,-13.2 21.3,-13.2 C11.6,-13.2 0,-5 0,4.2"/>
<path class="Note" transform="matrix(0.992,0,0,0.992,619.555,1638.6)" d="M0,4.2 C0,8.5 3.1,13.3 11.2,13.3 C21.6,13.3 32.5,4.8 32.5,-4 C32.5,-9.9 27.5,-13.2 21.3,-13.2 C11.6,-13.2 0,-5 0,4.2"/>
<path class="Note" transform="matrix(0.992,0,0,0.992,529.38,1651)" d="M0,4.2 C0,8.5 3.1,13.3 11.2,13.3 C21.6,13.3 32.5,4.8 32.5,-4 C32.5,-9.9 27.5,-13.2 21.3,-13.2 C11.6,-13.2 0,-5 0,4.2"/>
<path class="Note" transform="matrix(0.992,0,0,0.992,357.911,1192.2)" d="M0,4.2 C0,8.5 3.1,13.3 11.2,13.3 C21.6,13.3 32.5,4.8 32.5,-4 C32.5,-9.9 27.5,-13.2 21.3,-13.2 C11.6,-13.2 0,-5 0,4.2"/>
<path class="Note" transform="matrix(0.992,0,0,0.992,926.784,1651)" d="M0,4.2 C0,8.5 3.1,13.3 11.2,13.3 C21.6,13.3 32.5,4.8 32.5,-4 C32.5,-9.9 27.5,-13.2 21.3,-13.2 C11.6,-13.2 0,-5 0,4.2"/>
<path class="Note" transform="matrix(0.992,0,0,0.992,1393.98,708.598)" d="M0,4.2 C0,8.5 3.1,13.3 11.2,13.3 C21.6,13.3 32.5,4.8 32.5,-4 C32.5,-9.9 27.5,-13.2 21.3,-13.2 C11.6,-13.2 0,-5 0,4.2"/>
<path class="Note" transform="matrix(0.992,0,0,0.992,357.911,1663.4)" d="M0,4.2 C0,8.5 3.1,13.3 11.2,13.3 C21.6,13.3 32.5,4.8 32.5,-4 C32.5,-9.9 27.5,-13.2 21.3,-13.2 C11.6,-13.2 0,-5 0,4.2"/>
<path class="Clef" transform="matrix(0.992,0,0,0.992,232.438,708.598)" d="M12.3,51.3 C12.3,57.9 17.3,66.6 30.8,66.6 C35.5,66.6 39.6,65.4 43.2,63.2 C48.6,59.4 50,52.8 50,46.5 C50,42.6 49.4,38.1 48.4,32.4 C48.1,30.4 47.5,27.4 46.9,23.5 C56.7,20.3 64,10.1 64,-0.2 C64,-15.3 53.3,-25.5 38.7,-25.5 C37.7,-31.5 36.7,-37.4 35.9,-43 C46.4,-54.1 53.7,-66.6 53.7,-82.5 C53.7,-91.6 50.9,-99 49.3,-102.6 C46.9,-107.7 44,-111.2 42.2,-111.2 C41.5,-111.2 38.4,-110 35.1,-106.1 C28.7,-98.5 26.9,-85.7 26.9,-77.3 C26.9,-71.9 27.4,-67 29.1,-55.8 C29,-55.7 23.8,-50.4 21.7,-48.7 C12.6,-40.3 0,-28.1 0,-8.1 C0,10.6 16.3,25.3 34.9,25.3 C37.8,25.3 40.5,25 42.8,24.6 C44.7,34.2 45.9,41.2 45.9,46.5 C45.9,56.9 40.5,62.4 30.4,62.4 C28,62.4 25.9,61.9 25.7,61.9 C25.6,61.8 25.4,61.7 25.4,61.6 C25.4,61.4 25.6,61.3 25.9,61.3 C30.6,60.5 35.3,56.5 35.3,50.1 C35.3,44.7 31.2,39 23.7,39 C16.7,39 12.3,44.7 12.3,51.3 M33.2,-82.2 C34.1,-86.2 38.7,-96.7 43.9,-96.7 C45.4,-96.7 47.8,-91.9 47.8,-84.9 C47.8,-74.5 40.1,-66.7 33.2,-59.9 C32.6,-63.9 32.1,-67.8 32.1,-72 C32.1,-75.7 32.4,-79.1 33.2,-82.2 M42,20.6 C40,21 38.1,21.2 36.2,21.2 C21.9,21.2 9.7,11.2 9.7,-3.9 C9.7,-16.1 18.3,-27 27.1,-34.6 C28.8,-36.1 30.4,-37.5 31.9,-39 C32.8,-33.6 33.5,-28.9 34.2,-24.8 C25.1,-22.1 18.9,-12.5 18.9,-3.1 C18.9,3.9 24.4,13.5 32.4,13.5 C33.2,13.5 34.1,13.1 34.1,12.2 C34.1,11.3 33.1,10.8 31.9,10 C28,7.6 25.8,5 25.8,0.1 C25.8,-6 30.4,-10.9 36.2,-12.3 L42,20.6 M56.2,2.1 C56.2,9.2 53.3,16.5 46.2,19.4 C44.1,7.4 41.4,-8.5 40.7,-12.9 C49.7,-12.9 56.2,-6.8 56.2,2.1"/>
<path class="Clef" transform="matrix(0.992,0,0,0.992,232.438,1179.8)" d="M12.3,51.3 C12.3,57.9 17.3,66.6 30.8,66.6 C35.5,66.6 39.6,65.4 43.2,63.2 C48.6,59.4 50,52.8 50,46.5 C50,42.6 49.4,38.1 48.4,32.4 C48.1,30.4 47.5,27.4 46.9,23.5 C56.7,20.3 64,10.1 64,-0.2 C64,-15.3 53.3,-25.5 38.7,-25.5 C37.7,-31.5 36.7,-37.4 35.9,-43 C46.4,-54.1 53.7,-66.6 53.7,-82.5 C53.7,-91.6 50.9,-99 49.3,-102.6 C46.9,-107.7 44,-111.2 42.2,-111.2 C41.5,-111.2 38.4,-110 35.1,-106.1 C28.7,-98.5 26.9,-85.7 26.9,-77.3 C26.9,-71.9 27.4,-67 29.1,-55.8 C29,-55.7 23.8,-50.4 21.7,-48.7 C12.6,-40.3 0,-28.1 0,-8.1 C0,10.6 16.3,25.3 34.9,25.3 C37.8,25.3 40.5,25 42.8,24.6 C44.7,34.2 45.9,41.2 45.9,46.5 C45.9,56.9 40.5,62.4 30.4,62.4 C28,62.4 25.9,61.9 25.7,61.9 C25.6,61.8 25.4,61.7 25.4,61.6 C25.4,61.4 25.6,61.3 25.9,61.3 C30.6,60.5 35.3,56.5 35.3,50.1 C35.3,44.7 31.2,39 23.7,39 C16.7,39 12.3,44.7 12.3,51.3 M33.2,-82.2 C34.1,-86.2 38.7,-96.7 43.9,-96.7 C45.4,-96.7 47.8,-91.9 47.8,-84.9 C47.8,-74.5 40.1,-66.7 33.2,-59.9 C32.6,-63.9 32.1,-67.8 32.1,-72 C32.1,-75.7 32.4,-79.1 33.2,-82.2 M42,20.6 C40,21 38.1,21.2 36.2,21.2 C21.9,21.2 9.7,11.2 9.7,-3.9 C9.7,-16.1 18.3,-27 27.1,-34.6 C28.8,-36.1 30.4,-37.5 31.9,-39 C32.8,-33.6 33.5,-28.9 34.2,-24.8 C25.1,-22.1 18.9,-12.5 18.9,-3.1 C18.9,3.9 24.4,13.5 32.4,13.5 C33.2,13.5 34.1,13.1 34.1,12.2 C34.1,11.3 33.1,10.8 31.9,10 C28,7.6 25.8,5 25.8,0.1 C25.8,-6 30.4,-10.9 36.2,-12.3 L42,20.6 M56.2,2.1 C56.2,9.2 53.3,16.5 46.2,19.4 C44.1,7.4 41.4,-8.5 40.7,-12.9 C49.7,-12.9 56.2,-6.8 56.2,2.1"/>
<path class="Clef" transform="matrix(0.992,0,0,0.992,232.438,1651)" d="M12.3,51.3 C12.3,57.9 17.3,66.6 30.8,66.6 C35.5,66.6 39.6,65.4 43.2,63.2 C48.6,59.4 50,52.8 50,46.5 C50,42.6 49.4,38.1 48.4,32.4 C48.1,30.4 47.5,27.4 46.9,23.5 C56.7,20.3 64,10.1 64,-0.2 C64,-15.3 53.3,-25.5 38.7,-25.5 C37.7,-31.5 36.7,-37.4 35.9,-43 C46.4,-54.1 53.7,-66.6 53.7,-82.5 C53.7,-91.6 50.9,-99 49.3,-102.6 C46.9,-107.7 44,-111.2 42.2,-111.2 C41.5,-111.2 38.4,-110 35.1,-106.1 C28.7,-98.5 26.9,-85.7 26.9,-77.3 C26.9,-71.9 27.4,-67 29.1,-55.8 C29,-55.7 23.8,-50.4 21.7,-48.7 C12.6,-40.3 0,-28.1 0,-8.1 C0,10.6 16.3,25.3 34.9,25.3 C37.8,25.3 40.5,25 42.8,24.6 C44.7,34.2 45.9,41.2 45.9,46.5 C45.9,56.9 40.5,62.4 30.4,62.4 C28,62.4 25.9,61.9 25.7,61.9 C25.6,61.8 25.4,61.7 25.4,61.6 C25.4,61.4 25.6,61.3 25.9,61.3 C30.6,60.5 35.3,56.5 35.3,50.1 C35.3,44.7 31.2,39 23.7,39 C16.7,39 12.3,44.7 12.3,51.3 M33.2,-82.2 C34.1,-86.2 38.7,-96.7 43.9,-96.7 C45.4,-96.7 47.8,-91.9 47.8,-84.9 C47.8,-74.5 40.1,-66.7 33.2,-59.9 C32.6,-63.9 32.1,-67.8 32.1,-72 C32.1,-75.7 32.4,-79.1 33.2,-82.2 M42,20.6 C40,21 38.1,21.2 36.2,21.2 C21.9,21.2 9.7,11.2 9.7,-3.9 C9.7,-16.1 18.3,-27 27.1,-34.6 C28.8,-36.1 30.4,-37.5 31.9,-39 C32.8,-33.6 33.5,-28.9 34.2,-24.8 C25.1,-22.1 18.9,-12.5 18.9,-3.1 C18.9,3.9 24.4,13.5 32.4,13.5 C33.2,13.5 34.1,13.1 34.1,12.2 C34.1,11.3 33.1,10.8 31.9,10 C28,7.6 25.8,5 25.8,0.1 C25.8,-6 30.4,-10.9 36.2,-12.3 L42,20.6 M56.2,2.1 C56.2,9.2 53.3,16.5 46.2,19.4 C44.1,7.4 41.4,-8.5 40.7,-12.9 C49.7,-12.9 56.2,-6.8 56.2,2.1"/>
<path class="TimeSig" transform="matrix(0.992,0,0,0.992,322.602,659.494)" d="M34.2,3.9 C33.4,6.1 31.4,13.3 26.5,13.3 C20,13.3 18.6,9.3 13.2,9.3 C12.4,9.3 11.6,9.4 10.6,9.6 C10.6,9.6 13.1,5.8 23.7,2.5 C34.3,-0.8 37,-6 37,-12 C37,-16.2 35.1,-24.5 20,-24.5 C4.9,-24.5 2.1,-15.4 2.1,-10.8 C2.1,-6.7 5.5,-3.4 9.6,-3.4 C13.7,-3.4 17,-6.7 17,-10.8 C17,-13.6 15,-16.7 12.4,-17.7 C12.1,-17.8 11.7,-18.3 11.7,-18.8 C11.7,-19.4 12.2,-20.1 14,-20.6 C14.5,-20.8 15.9,-21.1 17.4,-21.1 C23.1,-21.1 24.2,-17.6 24.2,-12.5 C24.2,-0.8 10.3,1.7 4.5,10.4 C4.5,10.4 1.5,14.6 1.5,19.3 C1.5,24 3.9,24.3 5.1,24.3 C6.7,24.3 8.4,23 8.4,21.2 C8.4,20.8 8.3,20.4 8.1,19.9 C7.5,18.5 7.3,17.4 7.3,16.6 C7.3,16.3 7.3,16 7.4,15.7 C7.5,15.1 8.3,14.1 10.7,14.1 C13.6,14.1 14.7,17.5 16.5,20.1 C18.3,22.7 21.1,24.3 24.3,24.3 C27.5,24.3 31.8,22 33.6,18.3 C35.4,14.6 37.7,7.1 37.7,4.4 C37.7,3.1 36.9,2.5 36,2.5 C35.3,2.5 34.6,2.9 34.2,3.9"/>
<path class="TimeSig" transform="matrix(0.992,0,0,0.992,319.331,708.598)" d="M20.8,12.7 L20.8,20.1 L12.5,20.1 C11.8,20.1 11.1,20.7 11.1,21.5 L11.1,23.4 C11.1,24.2 11.8,24.8 12.5,24.8 L42.8,24.8 C43.6,24.8 44.2,24.2 44.2,23.4 L44.2,21.5 C44.2,20.7 43.6,20.1 42.8,20.1 L33.9,20.1 L33.9,12.7 L42.8,12.7 C43.6,12.7 44.2,12 44.2,11.2 L44.2,9.3 C44.2,8.6 43.6,7.9 42.8,7.9 L33.9,7.9 L33.9,-8 C33.9,-8.6 33.6,-9.1 33.1,-9.3 L31.9,-9.9 C31.7,-10 31.4,-10.1 31.2,-10.1 C30.9,-10 30.5,-9.9 30.3,-9.7 L21.2,-1.4 C20.9,-1.1 20.8,-0.7 20.8,-0.3 L20.8,7.9 L9.3,7.9 C9.3,7.9 20.4,-4.1 32.2,-19.9 C32.6,-20.4 32.7,-20.9 32.7,-21.3 C32.7,-21.8 32.5,-22.2 32.4,-22.3 L30.2,-24.5 C30,-24.7 29.6,-24.9 29.2,-24.9 C28.6,-24.9 15.1,-24.9 14.4,-24.9 C13.6,-24.9 13.1,-24.3 13,-23.7 C13,-23.7 12.5,-16.3 9.9,-8.2 C7.3,-0.1 4.3,4.9 1.7,8.6 C1.7,8.6 1.4,9.1 1.4,9.7 C1.4,9.9 1.4,10.1 1.5,10.3 C1.9,11 2.5,12.1 2.5,12.1 C2.5,12.1 2.7,12.7 3.6,12.7 L20.8,12.7 "/>
<path class="Rest" transform="matrix(0.992,0,0,0.992,396.645,683.798)" d="M26.7,-20.3 C26.6,-20.3 26.4,-20.4 26.3,-20.4 C25.7,-20.4 25.2,-20.1 25,-19.6 C22.7,-15 17.9,-8.8 12.5,-7.8 C13.6,-9.1 14.3,-10.7 14.3,-12.6 C14.3,-16.5 11.1,-19.7 7.2,-19.7 C3.2,-19.7 0,-16.5 0,-12.6 C0,-7.2 5.3,-4.7 10,-4.7 C15.3,-4.7 18.8,-7.2 22.2,-10.9 L10.8,24.7 L13.5,25.5 L27.5,-18.6 C27.6,-18.7 27.6,-18.9 27.6,-19.1 C27.6,-19.6 27.3,-20 26.7,-20.3"/>
<path class="Beam" fill-rule="evenodd" d="M745.966,733.398 L923.354,733.398 L923.354,745.798 L745.966,745.798 L745.966,733.398 "/>
<path class="Beam" fill-rule="evenodd" d="M649.051,1557.99 L787.042,1551.79 L787.042,1564.2 L649.051,1570.4 L649.051,1557.99 "/>
<path class="Beam" fill-rule="evenodd" d="M387.407,1576.59 L561.604,1570.39 L561.604,1582.8 L387.407,1589 L387.407,1576.59 "/>
<path class="Beam" fill-rule="evenodd" d="M561.604,1588.99 L529.364,1590.14 L529.364,1602.55 L561.604,1601.4 L561.604,1588.99 "/>
<path class="Beam" fill-rule="evenodd" d="M1466.4,1601.39 L1604.39,1595.19 L1604.39,1607.6 L1466.4,1613.8 L1466.4,1601.39 "/>
<path class="Beam" fill-rule="evenodd" d="M387.407,1105.4 L592.82,1099.2 L592.82,1111.6 L387.407,1117.8 L387.407,1105.4 "/>
<path class="Beam" fill-rule="evenodd" d="M592.82,1117.8 L560.58,1118.77 L560.58,1131.17 L592.82,1130.2 L592.82,1117.8 "/>
<path class="Beam" fill-rule="evenodd" d="M1736.93,1570.4 L2017.19,1576.6 L2017.19,1589 L1736.93,1582.8 L1736.93,1570.4 "/>
<path class="Beam" fill-rule="evenodd" d="M1872.19,1591.99 L2017.19,1595.2 L2017.19,1607.6 L1872.19,1604.39 L1872.19,1591.99 "/>
<path class="Beam" fill-rule="evenodd" d="M1159.17,1595.19 L1297.17,1601.39 L1297.17,1613.8 L1159.17,1607.6 L1159.17,1595.19 "/>
<path class="Beam" fill-rule="evenodd" d="M696.683,1093 L859.298,1093 L859.298,1105.4 L696.683,1105.4 L696.683,1093 "/>
<path class="Beam" fill-rule="evenodd" d="M1969.24,1105.39 L2131.86,1099.19 L2131.86,1111.6 L1969.24,1117.8 L1969.24,1105.39 "/>
<path class="Beam" fill-rule="evenodd" d="M1649.47,1130.19 L1812.08,1123.99 L1812.08,1136.4 L1649.47,1142.6 L1649.47,1130.19 "/>
<path class="Beam" fill-rule="evenodd" d="M1292.99,1123.99 L1455.61,1130.19 L1455.61,1142.6 L1292.99,1136.4 L1292.99,1123.99 "/>
<path class="Tuplet" d="M1947.28,1543.11 C1949.4,1542.44 1950.25,1542.08 1951.33,1541.36 C1953.45,1539.96 1954.75,1537.49 1954.75,1534.97 C1954.75,1530.69 1951.33,1527.81 1946.29,1527.81 C1941.39,1527.81 1937.25,1530.87 1937.25,1534.56 C1937.25,1536.41 1938.37,1537.67 1940.08,1537.67 C1941.57,1537.67 1942.65,1536.59 1942.65,1535.1 C1942.65,1534.34 1942.42,1533.8 1941.7,1533.08 C1941.25,1532.67 1941.07,1532.36 1941.07,1532.04 C1941.07,1530.96 1943.32,1529.84 1945.44,1529.84 C1948.45,1529.84 1950.25,1531.5 1950.25,1534.29 C1950.25,1538.3 1947.42,1542.08 1944.4,1542.08 C1944.27,1542.08 1943.86,1542.03 1943.37,1541.99 C1942.06,1541.9 1942.06,1541.9 1941.79,1541.9 C1940.8,1541.9 1940.26,1542.35 1940.26,1543.16 C1940.26,1543.88 1940.76,1544.33 1941.57,1544.33 C1941.79,1544.33 1942.11,1544.28 1942.47,1544.24 C1943.1,1544.1 1943.77,1544.06 1944.18,1544.06 C1946.29,1544.06 1947.73,1545.95 1947.73,1548.74 C1947.73,1553.6 1945.35,1558.28 1939.9,1558.28 C1937.38,1558.28 1935.22,1557.02 1935.22,1555.58 C1935.22,1555.08 1935.4,1554.9 1936.12,1554.59 C1937.43,1554 1937.97,1553.19 1937.97,1551.98 C1937.97,1550.4 1936.71,1549.19 1935.09,1549.19 C1933.15,1549.19 1931.89,1550.72 1931.89,1553.06 C1931.89,1557.42 1935.22,1560.17 1940.62,1560.17 C1947.42,1560.17 1952.59,1555.62 1952.59,1549.59 C1952.59,1546.08 1950.43,1544.1 1947.28,1543.11"/>
<path class="Harmony" d="M1975.89,531.718 L1973.58,531.718 L1960.93,563.783 C1959.45,568.073 1958.02,569.393 1954.88,569.613 L1954.66,569.613 L1954.66,572.198 L1969.24,572.198 L1969.24,569.613 L1968.14,569.613 C1965.17,569.613 1963.68,568.568 1963.68,566.478 C1963.68,565.763 1963.85,565.103 1964.18,564.168 L1965.99,559.328 L1980.57,559.328 L1983.54,566.698 C1983.87,567.578 1983.98,567.908 1983.98,568.183 C1983.98,569.063 1982.6,569.613 1980.57,569.613 L1978.26,569.613 L1978.26,572.198 L1995.31,572.198 L1995.31,569.613 L1994.54,569.613 C1991.68,569.558 1991.18,569.228 1989.92,566.093 L1975.89,531.718 M1973.2,540.738 L1979.41,556.358 L1967.09,556.358 L1973.2,540.738 "/>
<path class="Harmony" d="M2008.31,546.568 L1998.52,547.173 L1998.52,549.538 L2000.78,549.538 C2002.87,549.593 2003.14,549.923 2003.14,552.288 L2003.14,568.018 C2003.09,568.843 2003.03,569.173 2002.81,569.448 C2002.43,569.943 2001.38,570.163 1999.02,570.218 L1998.8,570.218 L1998.8,572.198 L2012.66,572.198 L2012.66,570.218 L2012.44,570.218 C2008.81,570.108 2008.31,569.833 2008.31,567.798 L2008.31,557.623 C2008.31,552.728 2011.01,549.098 2014.58,549.098 C2017.72,549.098 2019.31,551.353 2019.31,555.808 L2019.31,568.073 C2019.26,568.788 2019.2,569.173 2018.93,569.448 C2018.6,569.943 2017.5,570.163 2015.13,570.218 L2014.91,570.218 L2014.91,572.198 L2028.83,572.198 L2028.83,570.218 L2028.61,570.218 C2024.98,570.108 2024.48,569.833 2024.48,567.853 L2024.48,558.118 C2024.48,552.618 2026.96,549.098 2030.81,549.098 C2033.94,549.098 2035.48,551.463 2035.48,556.413 L2035.48,568.018 C2035.43,568.788 2035.37,569.173 2035.1,569.448 C2034.77,569.943 2033.67,570.163 2031.3,570.218 L2031.08,570.218 L2031.08,572.198 L2045,572.198 L2045,570.218 L2044.78,570.218 C2041.15,570.108 2040.65,569.833 2040.65,567.798 L2040.65,555.313 C2040.65,551.903 2040.32,550.748 2038.89,548.878 C2037.3,546.843 2035.04,545.743 2032.4,545.743 C2028.83,545.743 2026.19,547.448 2023.82,551.243 C2022.89,547.943 2019.92,545.743 2016.23,545.743 C2012.88,545.743 2010.46,547.338 2008.31,550.803 L2008.31,546.568 "/>
<path class="Harmony" d="M2277.65,1474.5 L2275.56,1474.5 L2273.36,1477.75 C2269.35,1474.83 2267.31,1474.06 2263.52,1474.06 C2258.29,1474.06 2253.84,1476.26 2250.15,1480.66 C2246.63,1484.84 2244.98,1489.46 2244.98,1495.13 C2244.98,1507.01 2252.74,1515.42 2263.57,1515.42 C2272.37,1515.42 2277.98,1510.25 2279.25,1501.01 L2276.66,1500.57 C2275.18,1508.77 2271,1512.84 2264.23,1512.84 C2256.09,1512.84 2252.24,1507.23 2252.24,1495.35 C2252.24,1489.08 2253.07,1484.95 2254.94,1481.65 C2256.64,1478.57 2260,1476.65 2263.57,1476.65 C2267.42,1476.65 2270.83,1478.68 2272.92,1482.2 C2273.97,1484.02 2274.74,1486.05 2276.06,1490.4 L2278.48,1490.4 L2277.65,1474.5 "/>
<path class="Harmony" d="M959.46,1474.5 L957.37,1474.5 L955.17,1477.75 C951.155,1474.83 949.12,1474.06 945.325,1474.06 C940.1,1474.06 935.645,1476.26 931.96,1480.66 C928.44,1484.84 926.79,1489.46 926.79,1495.13 C926.79,1507.01 934.545,1515.42 945.38,1515.42 C954.18,1515.42 959.79,1510.25 961.055,1501.01 L958.47,1500.57 C956.985,1508.77 952.805,1512.84 946.04,1512.84 C937.9,1512.84 934.05,1507.23 934.05,1495.35 C934.05,1489.08 934.875,1484.95 936.745,1481.65 C938.45,1478.57 941.805,1476.65 945.38,1476.65 C949.23,1476.65 952.64,1478.68 954.73,1482.2 C955.775,1484.02 956.545,1486.05 957.865,1490.4 L960.285,1490.4 L959.46,1474.5 "/>
<path class="Harmony" d="M1470.36,1474.5 L1468.27,1474.5 L1466.13,1477.8 C1462.55,1475 1460.13,1474.06 1456.12,1474.06 C1451.77,1474.06 1448.36,1475.27 1444.9,1478.08 C1439.45,1482.48 1436.92,1488.03 1436.92,1495.46 C1436.92,1501.07 1438.52,1505.74 1441.76,1509.32 C1445.17,1513.17 1450.23,1515.42 1455.51,1515.42 C1460.13,1515.42 1463.38,1513.99 1466.95,1510.42 L1468.99,1515.37 L1471.3,1515.37 L1471.3,1503.27 C1471.3,1500.46 1471.3,1500.35 1471.63,1499.86 C1472.12,1499.25 1473.11,1499.09 1476.25,1499.09 L1477.07,1499.09 L1477.07,1496.5 L1459.58,1496.5 L1459.58,1499.09 L1460.63,1499.09 C1465.25,1499.09 1465.63,1499.36 1465.63,1502.44 C1465.63,1504.81 1465.25,1506.95 1464.53,1508.27 C1463.16,1510.97 1459.64,1512.84 1456.06,1512.84 C1452.49,1512.84 1448.97,1511.02 1447.1,1508.27 C1445.06,1505.19 1444.18,1501.34 1444.18,1495.46 C1444.18,1483.19 1448.25,1476.65 1455.9,1476.65 C1462.17,1476.65 1466.51,1481.16 1468.77,1489.96 L1471.13,1489.96 L1470.36,1474.5 "/>
<path class="Harmony" d="M1483.09,1489.19 L1485.51,1489.57 L1486.5,1485.23 C1487.33,1481.6 1487.71,1481.05 1489.31,1481.05 C1489.58,1481.05 1490.02,1481.05 1490.52,1481.1 C1497.28,1481.43 1497.28,1481.43 1499.81,1481.43 C1500.53,1481.43 1501.79,1481.43 1503.33,1481.38 L1499.59,1488.91 C1495.52,1497 1495.03,1497.99 1493.65,1501.4 C1491.95,1505.52 1491.07,1508.99 1491.07,1511.3 C1491.07,1513.83 1492.39,1515.37 1494.53,1515.37 C1497.17,1515.37 1498.22,1513.61 1498.16,1508.82 C1497.89,1500.9 1498.88,1497.05 1504.76,1484.18 C1505.75,1482.04 1506.8,1479.84 1507.79,1477.69 L1507.79,1476.1 C1504.49,1476.37 1502.73,1476.48 1499.32,1476.48 C1494.53,1476.48 1490.74,1476.32 1484.8,1475.88 L1483.09,1489.19 "/>
<path class="Harmony" d="M652.281,1474.89 L619.556,1474.89 L619.556,1477.47 L620.546,1477.47 C623.681,1477.53 624.726,1477.69 625.166,1478.24 C625.496,1478.74 625.496,1478.85 625.496,1481.65 L625.496,1507.83 C625.496,1510.64 625.496,1510.75 625.166,1511.24 C624.726,1511.79 623.681,1512.01 620.546,1512.01 L619.556,1512.01 L619.556,1514.6 L638.421,1514.6 L638.421,1512.01 L636.606,1512.01 C633.471,1512.01 632.426,1511.79 631.986,1511.24 C631.656,1510.75 631.656,1510.58 631.656,1507.83 L631.656,1495.35 L632.756,1495.35 C638.421,1495.13 640.456,1497.16 640.676,1503.27 L643.261,1503.27 L643.261,1485.23 L640.676,1485.23 C640.346,1490.62 638.201,1492.71 632.976,1492.76 L631.656,1492.76 L631.656,1480.22 C631.601,1477.91 632.151,1477.53 635.121,1477.47 L637.651,1477.47 C646.671,1477.42 648.926,1479.45 650.631,1488.91 L653.051,1488.91 L652.281,1474.89 "/>
<path class="Harmony" d="M390.637,1474.89 L357.912,1474.89 L357.912,1477.47 L358.902,1477.47 C362.037,1477.53 363.082,1477.69 363.522,1478.24 C363.852,1478.74 363.852,1478.85 363.852,1481.65 L363.852,1507.83 C363.852,1510.64 363.852,1510.75 363.522,1511.24 C363.082,1511.79 362.037,1512.01 358.902,1512.01 L357.912,1512.01 L357.912,1514.6 L376.777,1514.6 L376.777,1512.01 L374.962,1512.01 C371.827,1512.01 370.782,1511.79 370.342,1511.24 C370.012,1510.75 370.012,1510.58 370.012,1507.83 L370.012,1495.35 L371.112,1495.35 C376.777,1495.13 378.812,1497.16 379.032,1503.27 L381.617,1503.27 L381.617,1485.23 L379.032,1485.23 C378.702,1490.62 376.557,1492.71 371.332,1492.76 L370.012,1492.76 L370.012,1480.22 C369.957,1477.91 370.507,1477.53 373.477,1477.47 L376.007,1477.47 C385.027,1477.42 387.282,1479.45 388.987,1488.91 L391.407,1488.91 L390.637,1474.89 "/>
<path class="Harmony" d="M2286.04,532.103 L2283.95,532.103 L2281.75,535.348 C2277.73,532.433 2275.7,531.663 2271.9,531.663 C2266.68,531.663 2262.22,533.863 2258.54,538.263 C2255.02,542.443 2253.37,547.063 2253.37,552.728 C2253.37,564.608 2261.12,573.023 2271.96,573.023 C2280.76,573.023 2286.37,567.853 2287.63,558.613 L2285.05,558.173 C2283.56,566.368 2279.38,570.438 2272.62,570.438 C2264.48,570.438 2260.63,564.828 2260.63,552.948 C2260.63,546.678 2261.45,542.553 2263.32,539.253 C2265.03,536.173 2268.38,534.248 2271.96,534.248 C2275.81,534.248 2279.22,536.283 2281.31,539.803 C2282.35,541.618 2283.12,543.653 2284.44,547.998 L2286.86,547.998 L2286.04,532.103 "/>
<path class="Harmony" d="M778.642,532.103 L776.552,532.103 L774.352,535.348 C770.337,532.433 768.302,531.663 764.507,531.663 C759.282,531.663 754.827,533.863 751.142,538.263 C747.622,542.443 745.972,547.063 745.972,552.728 C745.972,564.608 753.727,573.023 764.562,573.023 C773.362,573.023 778.972,567.853 780.237,558.613 L777.652,558.173 C776.167,566.368 771.987,570.438 765.222,570.438 C757.082,570.438 753.232,564.828 753.232,552.948 C753.232,546.678 754.057,542.553 755.927,539.253 C757.632,536.173 760.987,534.248 764.562,534.248 C768.412,534.248 771.822,536.283 773.912,539.803 C774.957,541.618 775.727,543.653 777.047,547.998 L779.467,547.998 L778.642,532.103 "/>
<path class="Harmony" d="M2507.45,532.103 L2505.36,532.103 L2503.16,535.348 C2499.14,532.433 2497.11,531.663 2493.31,531.663 C2488.09,531.663 2483.63,533.863 2479.95,538.263 C2476.43,542.443 2474.78,547.063 2474.78,552.728 C2474.78,564.608 2482.53,573.023 2493.37,573.023 C2502.17,573.023 2507.78,567.853 2509.04,558.613 L2506.46,558.173 C2504.97,566.368 2500.79,570.438 2494.03,570.438 C2485.89,570.438 2482.04,564.828 2482.04,552.948 C2482.04,546.678 2482.86,542.553 2484.73,539.253 C2486.44,536.173 2489.79,534.248 2493.37,534.248 C2497.22,534.248 2500.63,536.283 2502.72,539.803 C2503.76,541.618 2504.53,543.653 2505.85,547.998 L2508.27,547.998 L2507.45,532.103 "/>
<path class="Harmony" d="M1740.89,1474.5 L1738.8,1474.5 L1736.65,1477.8 C1733.08,1475 1730.66,1474.06 1726.64,1474.06 C1722.3,1474.06 1718.89,1475.27 1715.42,1478.08 C1709.98,1482.48 1707.45,1488.03 1707.45,1495.46 C1707.45,1501.07 1709.04,1505.74 1712.29,1509.32 C1715.7,1513.17 1720.76,1515.42 1726.04,1515.42 C1730.66,1515.42 1733.9,1513.99 1737.48,1510.42 L1739.51,1515.37 L1741.82,1515.37 L1741.82,1503.27 C1741.82,1500.46 1741.82,1500.35 1742.15,1499.86 C1742.65,1499.25 1743.64,1499.09 1746.77,1499.09 L1747.6,1499.09 L1747.6,1496.5 L1730.11,1496.5 L1730.11,1499.09 L1731.15,1499.09 C1735.77,1499.09 1736.16,1499.36 1736.16,1502.44 C1736.16,1504.81 1735.77,1506.95 1735.06,1508.27 C1733.68,1510.97 1730.16,1512.84 1726.59,1512.84 C1723.01,1512.84 1719.49,1511.02 1717.62,1508.27 C1715.59,1505.19 1714.71,1501.34 1714.71,1495.46 C1714.71,1483.19 1718.78,1476.65 1726.42,1476.65 C1732.69,1476.65 1737.04,1481.16 1739.29,1489.96 L1741.66,1489.96 L1740.89,1474.5 "/>
<path class="Harmony" d="M1753.62,1489.19 L1756.04,1489.57 L1757.03,1485.23 C1757.85,1481.6 1758.24,1481.05 1759.83,1481.05 C1760.11,1481.05 1760.55,1481.05 1761.04,1481.1 C1767.81,1481.43 1767.81,1481.43 1770.34,1481.43 C1771.05,1481.43 1772.32,1481.43 1773.86,1481.38 L1770.12,1488.91 C1766.05,1497 1765.55,1497.99 1764.18,1501.4 C1762.47,1505.52 1761.59,1508.99 1761.59,1511.3 C1761.59,1513.83 1762.91,1515.37 1765.06,1515.37 C1767.7,1515.37 1768.74,1513.61 1768.69,1508.82 C1768.41,1500.9 1769.4,1497.05 1775.29,1484.18 C1776.28,1482.04 1777.32,1479.84 1778.31,1477.69 L1778.31,1476.1 C1775.01,1476.37 1773.25,1476.48 1769.84,1476.48 C1765.06,1476.48 1761.26,1476.32 1755.32,1475.88 L1753.62,1489.19 "/>
<path class="Harmony" d="M2531.58,1003.3 L2529.49,1003.3 L2527.29,1006.55 C2523.28,1003.63 2521.24,1002.86 2517.45,1002.86 C2512.22,1002.86 2507.77,1005.06 2504.08,1009.46 C2500.56,1013.64 2498.91,1018.26 2498.91,1023.93 C2498.91,1035.81 2506.67,1044.22 2517.5,1044.22 C2526.3,1044.22 2531.91,1039.05 2533.18,1029.81 L2530.59,1029.37 C2529.11,1037.57 2524.93,1041.64 2518.16,1041.64 C2510.02,1041.64 2506.17,1036.03 2506.17,1024.15 C2506.17,1017.88 2507,1013.75 2508.87,1010.45 C2510.57,1007.37 2513.93,1005.45 2517.5,1005.45 C2521.35,1005.45 2524.76,1007.48 2526.85,1011 C2527.9,1012.82 2528.67,1014.85 2529.99,1019.2 L2532.41,1019.2 L2531.58,1003.3 "/>
<path class="Harmony" d="M2328.9,1003.3 L2326.81,1003.3 L2324.61,1006.55 C2320.6,1003.63 2318.56,1002.86 2314.77,1002.86 C2309.54,1002.86 2305.09,1005.06 2301.4,1009.46 C2297.88,1013.64 2296.23,1018.26 2296.23,1023.93 C2296.23,1035.81 2303.99,1044.22 2314.82,1044.22 C2323.62,1044.22 2329.23,1039.05 2330.5,1029.81 L2327.91,1029.37 C2326.43,1037.57 2322.25,1041.64 2315.48,1041.64 C2307.34,1041.64 2303.49,1036.03 2303.49,1024.15 C2303.49,1017.88 2304.32,1013.75 2306.19,1010.45 C2307.89,1007.37 2311.25,1005.45 2314.82,1005.45 C2318.67,1005.45 2322.08,1007.48 2324.17,1011 C2325.22,1012.82 2325.99,1014.85 2327.31,1019.2 L2329.73,1019.2 L2328.9,1003.3 "/>
<path class="Harmony" d="M1713.9,531.718 L1711.59,531.718 L1698.94,563.783 C1697.46,568.073 1696.03,569.393 1692.89,569.613 L1692.67,569.613 L1692.67,572.198 L1707.25,572.198 L1707.25,569.613 L1706.15,569.613 C1703.18,569.613 1701.69,568.568 1701.69,566.478 C1701.69,565.763 1701.86,565.103 1702.19,564.168 L1704,559.328 L1718.58,559.328 L1721.55,566.698 C1721.88,567.578 1721.99,567.908 1721.99,568.183 C1721.99,569.063 1720.61,569.613 1718.58,569.613 L1716.27,569.613 L1716.27,572.198 L1733.32,572.198 L1733.32,569.613 L1732.55,569.613 C1729.69,569.558 1729.19,569.228 1727.93,566.093 L1713.9,531.718 M1711.21,540.738 L1717.42,556.358 L1705.1,556.358 L1711.21,540.738 "/>
<path class="Harmony" d="M1746.32,546.568 L1736.53,547.173 L1736.53,549.538 L1738.79,549.538 C1740.88,549.593 1741.15,549.923 1741.15,552.288 L1741.15,568.018 C1741.1,568.843 1741.04,569.173 1740.82,569.448 C1740.44,569.943 1739.39,570.163 1737.03,570.218 L1736.81,570.218 L1736.81,572.198 L1750.67,572.198 L1750.67,570.218 L1750.45,570.218 C1746.82,570.108 1746.32,569.833 1746.32,567.798 L1746.32,557.623 C1746.32,552.728 1749.02,549.098 1752.59,549.098 C1755.73,549.098 1757.32,551.353 1757.32,555.808 L1757.32,568.073 C1757.27,568.788 1757.21,569.173 1756.94,569.448 C1756.61,569.943 1755.51,570.163 1753.14,570.218 L1752.92,570.218 L1752.92,572.198 L1766.84,572.198 L1766.84,570.218 L1766.62,570.218 C1762.99,570.108 1762.49,569.833 1762.49,567.853 L1762.49,558.118 C1762.49,552.618 1764.97,549.098 1768.82,549.098 C1771.95,549.098 1773.49,551.463 1773.49,556.413 L1773.49,568.018 C1773.44,568.788 1773.38,569.173 1773.11,569.448 C1772.78,569.943 1771.68,570.163 1769.31,570.218 L1769.09,570.218 L1769.09,572.198 L1783.01,572.198 L1783.01,570.218 L1782.79,570.218 C1779.16,570.108 1778.66,569.833 1778.66,567.798 L1778.66,555.313 C1778.66,551.903 1778.33,550.748 1776.9,548.878 C1775.31,546.843 1773.05,545.743 1770.41,545.743 C1766.84,545.743 1764.2,547.448 1761.83,551.243 C1760.9,547.943 1757.93,545.743 1754.24,545.743 C1750.89,545.743 1748.47,547.338 1746.32,550.803 L1746.32,546.568 "/>
<path class="Harmony" d="M390.637,1003.69 L357.912,1003.69 L357.912,1006.27 L358.902,1006.27 C362.037,1006.33 363.082,1006.49 363.522,1007.04 C363.852,1007.54 363.852,1007.65 363.852,1010.45 L363.852,1036.63 C363.852,1039.44 363.852,1039.55 363.522,1040.04 C363.082,1040.59 362.037,1040.81 358.902,1040.81 L357.912,1040.81 L357.912,1043.4 L376.777,1043.4 L376.777,1040.81 L374.962,1040.81 C371.827,1040.81 370.782,1040.59 370.342,1040.04 C370.012,1039.55 370.012,1039.38 370.012,1036.63 L370.012,1024.15 L371.112,1024.15 C376.777,1023.93 378.812,1025.96 379.032,1032.07 L381.617,1032.07 L381.617,1014.03 L379.032,1014.03 C378.702,1019.42 376.557,1021.51 371.332,1021.56 L370.012,1021.56 L370.012,1009.02 C369.957,1006.71 370.507,1006.33 373.477,1006.27 L376.007,1006.27 C385.027,1006.22 387.282,1008.25 388.987,1017.71 L391.407,1017.71 L390.637,1003.69 "/>
<path class="Harmony" d="M1973.2,1003.3 L1971.11,1003.3 L1968.96,1006.6 C1965.39,1003.8 1962.97,1002.86 1958.95,1002.86 C1954.61,1002.86 1951.2,1004.07 1947.73,1006.88 C1942.29,1011.28 1939.76,1016.83 1939.76,1024.26 C1939.76,1029.87 1941.35,1034.54 1944.6,1038.12 C1948.01,1041.97 1953.07,1044.22 1958.35,1044.22 C1962.97,1044.22 1966.21,1042.79 1969.79,1039.22 L1971.82,1044.17 L1974.13,1044.17 L1974.13,1032.07 C1974.13,1029.26 1974.13,1029.15 1974.46,1028.66 C1974.96,1028.05 1975.95,1027.89 1979.08,1027.89 L1979.91,1027.89 L1979.91,1025.3 L1962.42,1025.3 L1962.42,1027.89 L1963.46,1027.89 C1968.08,1027.89 1968.47,1028.16 1968.47,1031.24 C1968.47,1033.61 1968.08,1035.75 1967.37,1037.07 C1965.99,1039.77 1962.47,1041.64 1958.9,1041.64 C1955.32,1041.64 1951.8,1039.82 1949.93,1037.07 C1947.9,1033.99 1947.02,1030.14 1947.02,1024.26 C1947.02,1011.99 1951.09,1005.45 1958.73,1005.45 C1965,1005.45 1969.35,1009.96 1971.6,1018.76 L1973.97,1018.76 L1973.2,1003.3 "/>
<path class="Harmony" d="M1985.93,1017.99 L1988.35,1018.37 L1989.34,1014.03 C1990.16,1010.4 1990.55,1009.85 1992.14,1009.85 C1992.42,1009.85 1992.86,1009.85 1993.35,1009.9 C2000.12,1010.23 2000.12,1010.23 2002.65,1010.23 C2003.36,1010.23 2004.63,1010.23 2006.17,1010.18 L2002.43,1017.71 C1998.36,1025.8 1997.86,1026.79 1996.49,1030.2 C1994.78,1034.32 1993.9,1037.79 1993.9,1040.1 C1993.9,1042.63 1995.22,1044.17 1997.37,1044.17 C2000.01,1044.17 2001.05,1042.41 2001,1037.62 C2000.72,1029.7 2001.71,1025.85 2007.6,1012.98 C2008.59,1010.84 2009.63,1008.64 2010.62,1006.49 L2010.62,1004.9 C2007.32,1005.17 2005.56,1005.28 2002.15,1005.28 C1997.37,1005.28 1993.57,1005.12 1987.63,1004.68 L1985.93,1017.99 "/>
<path class="Harmony" d="M1165.44,532.103 L1163.35,532.103 L1161.21,535.403 C1157.63,532.598 1155.21,531.663 1151.2,531.663 C1146.85,531.663 1143.44,532.873 1139.98,535.678 C1134.53,540.078 1132,545.633 1132,553.058 C1132,558.668 1133.6,563.343 1136.84,566.918 C1140.25,570.768 1145.31,573.023 1150.59,573.023 C1155.21,573.023 1158.46,571.593 1162.03,568.018 L1164.07,572.968 L1166.38,572.968 L1166.38,560.868 C1166.38,558.063 1166.38,557.953 1166.71,557.458 C1167.2,556.853 1168.19,556.688 1171.33,556.688 L1172.15,556.688 L1172.15,554.103 L1154.66,554.103 L1154.66,556.688 L1155.71,556.688 C1160.33,556.688 1160.71,556.963 1160.71,560.043 C1160.71,562.408 1160.33,564.553 1159.61,565.873 C1158.24,568.568 1154.72,570.438 1151.14,570.438 C1147.57,570.438 1144.05,568.623 1142.18,565.873 C1140.14,562.793 1139.26,558.943 1139.26,553.058 C1139.26,540.793 1143.33,534.248 1150.98,534.248 C1157.25,534.248 1161.59,538.758 1163.85,547.558 L1166.21,547.558 L1165.44,532.103 "/>
<path class="Harmony" d="M1178.17,546.788 L1180.59,547.173 L1181.58,542.828 C1182.41,539.198 1182.79,538.648 1184.39,538.648 C1184.66,538.648 1185.1,538.648 1185.6,538.703 C1192.36,539.033 1192.36,539.033 1194.89,539.033 C1195.61,539.033 1196.87,539.033 1198.41,538.978 L1194.67,546.513 C1190.6,554.598 1190.11,555.588 1188.73,558.998 C1187.03,563.123 1186.15,566.588 1186.15,568.898 C1186.15,571.428 1187.47,572.968 1189.61,572.968 C1192.25,572.968 1193.3,571.208 1193.24,566.423 C1192.97,558.503 1193.96,554.653 1199.84,541.783 C1200.83,539.638 1201.88,537.438 1202.87,535.293 L1202.87,533.698 C1199.57,533.973 1197.81,534.083 1194.4,534.083 C1189.61,534.083 1185.82,533.918 1179.88,533.478 L1178.17,546.788 "/>
<path class="Harmony" d="M1653.43,1003.3 L1651.34,1003.3 L1649.19,1006.6 C1645.62,1003.8 1643.2,1002.86 1639.18,1002.86 C1634.84,1002.86 1631.43,1004.07 1627.96,1006.88 C1622.52,1011.28 1619.99,1016.83 1619.99,1024.26 C1619.99,1029.87 1621.58,1034.54 1624.83,1038.12 C1628.24,1041.97 1633.3,1044.22 1638.58,1044.22 C1643.2,1044.22 1646.44,1042.79 1650.02,1039.22 L1652.05,1044.17 L1654.36,1044.17 L1654.36,1032.07 C1654.36,1029.26 1654.36,1029.15 1654.69,1028.66 C1655.19,1028.05 1656.18,1027.89 1659.31,1027.89 L1660.14,1027.89 L1660.14,1025.3 L1642.65,1025.3 L1642.65,1027.89 L1643.69,1027.89 C1648.31,1027.89 1648.7,1028.16 1648.7,1031.24 C1648.7,1033.61 1648.31,1035.75 1647.6,1037.07 C1646.22,1039.77 1642.7,1041.64 1639.13,1041.64 C1635.55,1041.64 1632.03,1039.82 1630.16,1037.07 C1628.13,1033.99 1627.25,1030.14 1627.25,1024.26 C1627.25,1011.99 1631.32,1005.45 1638.96,1005.45 C1645.23,1005.45 1649.58,1009.96 1651.83,1018.76 L1654.2,1018.76 L1653.43,1003.3 "/>
<path class="Harmony" d="M1666.16,1017.99 L1668.58,1018.37 L1669.57,1014.03 C1670.39,1010.4 1670.78,1009.85 1672.37,1009.85 C1672.65,1009.85 1673.09,1009.85 1673.58,1009.9 C1680.35,1010.23 1680.35,1010.23 1682.88,1010.23 C1683.59,1010.23 1684.86,1010.23 1686.4,1010.18 L1682.66,1017.71 C1678.59,1025.8 1678.09,1026.79 1676.72,1030.2 C1675.01,1034.32 1674.13,1037.79 1674.13,1040.1 C1674.13,1042.63 1675.45,1044.17 1677.6,1044.17 C1680.24,1044.17 1681.28,1042.41 1681.23,1037.62 C1680.95,1029.7 1681.94,1025.85 1687.83,1012.98 C1688.82,1010.84 1689.86,1008.64 1690.85,1006.49 L1690.85,1004.9 C1687.55,1005.17 1685.79,1005.28 1682.38,1005.28 C1677.6,1005.28 1673.8,1005.12 1667.86,1004.68 L1666.16,1017.99 "/>
<path class="Harmony" d="M429.322,532.103 L427.232,532.103 L425.032,535.348 C421.017,532.433 418.982,531.663 415.187,531.663 C409.962,531.663 405.507,533.863 401.822,538.263 C398.302,542.443 396.652,547.063 396.652,552.728 C396.652,564.608 404.407,573.023 415.242,573.023 C424.042,573.023 429.652,567.853 430.917,558.613 L428.332,558.173 C426.847,566.368 422.667,570.438 415.902,570.438 C407.762,570.438 403.912,564.828 403.912,552.948 C403.912,546.678 404.737,542.553 406.607,539.253 C408.312,536.173 411.667,534.248 415.242,534.248 C419.092,534.248 422.502,536.283 424.592,539.803 C425.637,541.618 426.407,543.653 427.727,547.998 L430.147,547.998 L429.322,532.103 "/>
<path class="Harmony" d="M1427.43,532.103 L1425.34,532.103 L1423.2,535.403 C1419.62,532.598 1417.2,531.663 1413.19,531.663 C1408.84,531.663 1405.43,532.873 1401.97,535.678 C1396.52,540.078 1393.99,545.633 1393.99,553.058 C1393.99,558.668 1395.59,563.343 1398.83,566.918 C1402.24,570.768 1407.3,573.023 1412.58,573.023 C1417.2,573.023 1420.45,571.593 1424.02,568.018 L1426.06,572.968 L1428.37,572.968 L1428.37,560.868 C1428.37,558.063 1428.37,557.953 1428.7,557.458 C1429.19,556.853 1430.18,556.688 1433.32,556.688 L1434.14,556.688 L1434.14,554.103 L1416.65,554.103 L1416.65,556.688 L1417.7,556.688 C1422.32,556.688 1422.7,556.963 1422.7,560.043 C1422.7,562.408 1422.32,564.553 1421.6,565.873 C1420.23,568.568 1416.71,570.438 1413.13,570.438 C1409.56,570.438 1406.04,568.623 1404.17,565.873 C1402.13,562.793 1401.25,558.943 1401.25,553.058 C1401.25,540.793 1405.32,534.248 1412.97,534.248 C1419.24,534.248 1423.58,538.758 1425.84,547.558 L1428.2,547.558 L1427.43,532.103 "/>
<path class="Harmony" d="M1440.16,546.788 L1442.58,547.173 L1443.57,542.828 C1444.4,539.198 1444.78,538.648 1446.38,538.648 C1446.65,538.648 1447.09,538.648 1447.59,538.703 C1454.35,539.033 1454.35,539.033 1456.88,539.033 C1457.6,539.033 1458.86,539.033 1460.4,538.978 L1456.66,546.513 C1452.59,554.598 1452.1,555.588 1450.72,558.998 C1449.02,563.123 1448.14,566.588 1448.14,568.898 C1448.14,571.428 1449.46,572.968 1451.6,572.968 C1454.24,572.968 1455.29,571.208 1455.23,566.423 C1454.96,558.503 1455.95,554.653 1461.83,541.783 C1462.82,539.638 1463.87,537.438 1464.86,535.293 L1464.86,533.698 C1461.56,533.973 1459.8,534.083 1456.39,534.083 C1451.6,534.083 1447.81,533.918 1441.87,533.478 L1440.16,546.788 "/>
<path class="Harmony" d="M1296.17,1003.3 L1294.08,1003.3 L1291.88,1006.55 C1287.87,1003.63 1285.83,1002.86 1282.04,1002.86 C1276.81,1002.86 1272.36,1005.06 1268.67,1009.46 C1265.15,1013.64 1263.5,1018.26 1263.5,1023.93 C1263.5,1035.81 1271.26,1044.22 1282.09,1044.22 C1290.89,1044.22 1296.5,1039.05 1297.77,1029.81 L1295.18,1029.37 C1293.7,1037.57 1289.52,1041.64 1282.75,1041.64 C1274.61,1041.64 1270.76,1036.03 1270.76,1024.15 C1270.76,1017.88 1271.59,1013.75 1273.46,1010.45 C1275.16,1007.37 1278.52,1005.45 1282.09,1005.45 C1285.94,1005.45 1289.35,1007.48 1291.44,1011 C1292.49,1012.82 1293.26,1014.85 1294.58,1019.2 L1297,1019.2 L1296.17,1003.3 "/>
<path class="Harmony" d="M1056.34,1003.3 L1054.25,1003.3 L1052.05,1006.55 C1048.04,1003.63 1046,1002.86 1042.21,1002.86 C1036.98,1002.86 1032.53,1005.06 1028.84,1009.46 C1025.32,1013.64 1023.67,1018.26 1023.67,1023.93 C1023.67,1035.81 1031.43,1044.22 1042.26,1044.22 C1051.06,1044.22 1056.67,1039.05 1057.94,1029.81 L1055.35,1029.37 C1053.87,1037.57 1049.69,1041.64 1042.92,1041.64 C1034.78,1041.64 1030.93,1036.03 1030.93,1024.15 C1030.93,1017.88 1031.76,1013.75 1033.63,1010.45 C1035.33,1007.37 1038.69,1005.45 1042.26,1005.45 C1046.11,1005.45 1049.52,1007.48 1051.61,1011 C1052.66,1012.82 1053.43,1014.85 1054.75,1019.2 L1057.17,1019.2 L1056.34,1003.3 "/>
<path class="Harmony" d="M699.913,1003.69 L667.188,1003.69 L667.188,1006.27 L668.178,1006.27 C671.313,1006.33 672.358,1006.49 672.798,1007.04 C673.128,1007.54 673.128,1007.65 673.128,1010.45 L673.128,1036.63 C673.128,1039.44 673.128,1039.55 672.798,1040.04 C672.358,1040.59 671.313,1040.81 668.178,1040.81 L667.188,1040.81 L667.188,1043.4 L686.053,1043.4 L686.053,1040.81 L684.238,1040.81 C681.103,1040.81 680.058,1040.59 679.618,1040.04 C679.288,1039.55 679.288,1039.38 679.288,1036.63 L679.288,1024.15 L680.388,1024.15 C686.053,1023.93 688.088,1025.96 688.308,1032.07 L690.893,1032.07 L690.893,1014.03 L688.308,1014.03 C687.978,1019.42 685.833,1021.51 680.608,1021.56 L679.288,1021.56 L679.288,1009.02 C679.233,1006.71 679.783,1006.33 682.753,1006.27 L685.283,1006.27 C694.303,1006.22 696.558,1008.25 698.263,1017.71 L700.683,1017.71 L699.913,1003.69 "/>
<path class="Harmony" d="M2125.48,1474.5 L2123.39,1474.5 L2121.19,1477.75 C2117.17,1474.83 2115.14,1474.06 2111.34,1474.06 C2106.12,1474.06 2101.66,1476.26 2097.98,1480.66 C2094.46,1484.84 2092.81,1489.46 2092.81,1495.13 C2092.81,1507.01 2100.56,1515.42 2111.4,1515.42 C2120.2,1515.42 2125.81,1510.25 2127.07,1501.01 L2124.49,1500.57 C2123,1508.77 2118.82,1512.84 2112.06,1512.84 C2103.92,1512.84 2100.07,1507.23 2100.07,1495.35 C2100.07,1489.08 2100.89,1484.95 2102.76,1481.65 C2104.47,1478.57 2107.82,1476.65 2111.4,1476.65 C2115.25,1476.65 2118.66,1478.68 2120.75,1482.2 C2121.79,1484.02 2122.56,1486.05 2123.88,1490.4 L2126.3,1490.4 L2125.48,1474.5 "/>
<path class="Harmony" d="M1162.35,1474.5 L1160.26,1474.5 L1158.06,1477.75 C1154.05,1474.83 1152.01,1474.06 1148.22,1474.06 C1142.99,1474.06 1138.54,1476.26 1134.85,1480.66 C1131.33,1484.84 1129.68,1489.46 1129.68,1495.13 C1129.68,1507.01 1137.44,1515.42 1148.27,1515.42 C1157.07,1515.42 1162.68,1510.25 1163.95,1501.01 L1161.36,1500.57 C1159.88,1508.77 1155.7,1512.84 1148.93,1512.84 C1140.79,1512.84 1136.94,1507.23 1136.94,1495.35 C1136.94,1489.08 1137.77,1484.95 1139.64,1481.65 C1141.34,1478.57 1144.7,1476.65 1148.27,1476.65 C1152.12,1476.65 1155.53,1478.68 1157.62,1482.2 C1158.67,1484.02 1159.44,1486.05 1160.76,1490.4 L1163.18,1490.4 L1162.35,1474.5 "/>
<path class="NoteDot" transform="matrix(0.992,0,0,0.992,402.535,1192.2)" d="M0,0 C0,2.8 2.2,5 5,5 C7.8,5 10,2.8 10,0 C10,-2.8 7.8,-5 5,-5 C2.2,-5 0,-2.8 0,0"/>
<path class="NoteDot" transform="matrix(0.992,0,0,0.992,2340.85,1192.2)" d="M0,0 C0,2.8 2.2,5 5,5 C7.8,5 10,2.8 10,0 C10,-2.8 7.8,-5 5,-5 C2.2,-5 0,-2.8 0,0"/>
<path class="NoteDot" transform="matrix(0.992,0,0,0.992,402.535,1663.4)" d="M0,0 C0,2.8 2.2,5 5,5 C7.8,5 10,2.8 10,0 C10,-2.8 7.8,-5 5,-5 C2.2,-5 0,-2.8 0,0"/>
<path class="NoteDot" transform="matrix(0.992,0,0,0.992,2297.98,696.198)" d="M0,0 C0,2.8 2.2,5 5,5 C7.8,5 10,2.8 10,0 C10,-2.8 7.8,-5 5,-5 C2.2,-5 0,-2.8 0,0"/>
</svg>
