<?xml version="1.0" encoding="UTF-8" standalone="no"?>
<svg width="2977.2px" height="4208.4px" viewBox="0 0 2977.2 4208.4"
 xmlns="http://www.w3.org/2000/svg" xmlns:xlink="http://www.w3.org/1999/xlink" version="1.2" baseProfile="tiny">
<title>げんこつやま</title>
<desc>Generated by MuseScore Studio 4.4.0</desc>
<path class="" fill="#ffffff" fill-rule="evenodd" d="M0,0 L2977.2,0 L2977.2,4208.4 L0,4208.4 L0,0 "/>
<polyline class="StaffLines" fill="none" stroke="#000000" stroke-width="2.73" stroke-linejoin="bevel" points="212.598,634.198 2764.6,634.198"/>
<polyline class="StaffLines" fill="none" stroke="#000000" stroke-width="2.73" stroke-linejoin="bevel" points="212.598,658.998 2764.6,658.998"/>
<polyline class="StaffLines" fill="none" stroke="#000000" stroke-width="2.73" stroke-linejoin="bevel" points="212.598,683.798 2764.6,683.798"/>
<polyline class="StaffLines" fill="none" stroke="#000000" stroke-width="2.73" stroke-linejoin="bevel" points="212.598,708.598 2764.6,708.598"/>
<polyline class="StaffLines" fill="none" stroke="#000000" stroke-width="2.73" stroke-linejoin="bevel" points="212.598,733.398 2764.6,733.398"/>
<polyline class="StaffLines" fill="none" stroke="#000000" stroke-width="2.73" stroke-linejoin="bevel" points="212.598,1105.4 2764.6,1105.4"/>
<polyline class="StaffLines" fill="none" stroke="#000000" stroke-width="2.73" stroke-linejoin="bevel" points="212.598,1130.2 2764.6,1130.2"/>
<polyline class="StaffLines" fill="none" stroke="#000000" stroke-width="2.73" stroke-linejoin="bevel" points="212.598,1155 2764.6,1155"/>
<polyline class="StaffLines" fill="none" stroke="#000000" stroke-width="2.73" stroke-linejoin="bevel" points="212.598,1179.8 2764.6,1179.8"/>
<polyline class="StaffLines" fill="none" stroke="#000000" stroke-width="2.73" stroke-linejoin="bevel" points="212.598,1204.6 2764.6,1204.6"/>
<path class="Text" d="M908.523,240.185 C911.493,245.135 913.693,250.415 916.223,258.555 L922.053,256.575 C919.633,248.765 917.873,244.915 914.353,238.535 L908.523,240.185 M845.603,245.355 C845.493,246.785 845.493,247.225 845.383,247.995 C845.273,248.875 845.163,249.535 844.613,252.835 C841.203,273.295 840.213,282.315 840.213,295.185 C840.213,306.845 841.533,317.515 844.283,327.745 C844.943,330.165 844.943,330.275 845.163,331.595 L852.753,331.045 C852.753,330.825 852.753,330.605 852.753,330.385 C852.753,324.885 857.153,312.015 863.973,297.715 L858.363,295.185 C852.533,307.615 851.213,310.915 849.123,318.395 C849.013,316.525 848.793,314.545 848.463,312.455 C848.023,308.715 847.583,300.575 847.583,294.635 C847.583,279.565 850.773,257.125 854.293,246.565 L845.603,245.355 M921.283,236.775 C923.923,241.065 927.003,248.105 929.093,254.815 L934.813,252.835 C933.053,246.895 930.303,240.625 927.003,234.905 L921.283,236.775 M865.403,276.595 C866.173,276.485 866.723,276.485 867.053,276.485 C867.493,276.485 868.043,276.485 869.033,276.595 C872.993,276.815 879.263,277.035 882.343,277.035 C887.183,277.035 893.563,276.815 898.403,276.375 C898.623,279.455 898.623,281.985 898.623,285.065 C898.623,302.555 896.863,310.585 891.253,317.735 C887.293,322.905 882.123,326.645 874.423,330.385 C877.063,332.475 878.383,333.685 880.363,336.325 C888.833,331.485 893.563,327.635 897.633,322.245 C904.123,313.445 906.103,304.315 906.103,283.415 C906.103,280.335 906.103,278.575 905.993,275.605 C910.063,275.055 913.693,274.395 917.983,273.295 C921.173,272.525 921.503,272.415 923.813,272.085 L923.263,264.165 C920.293,265.815 913.693,267.575 905.773,268.785 L905.553,262.075 C905.333,255.695 905.223,252.835 905.113,250.965 C905.003,248.875 905.003,248.325 905.003,247.665 C905.003,246.345 905.113,245.575 905.333,243.815 L896.863,244.035 C897.303,246.235 897.633,250.745 898.183,269.665 C892.683,270.105 888.613,270.325 884.213,270.325 C876.073,270.325 869.693,269.775 865.513,268.785 L865.403,276.595 M969.46,242.715 C968.8,246.015 966.38,252.945 954.39,284.735 C938.55,326.975 938.55,326.975 937.12,330.055 L945.59,332.695 C947.02,326.095 952.08,313.555 955.71,307.395 C961.87,296.945 969.02,291.115 975.4,291.115 C978.7,291.115 980.68,292.435 981.67,295.185 C982.33,296.945 982.55,299.035 982.55,303.545 L982.55,309.815 C982.55,315.975 982.88,319.495 983.54,321.695 C985.63,327.965 991.46,331.595 999.6,331.595 C1008.62,331.595 1016.43,327.305 1021.49,319.605 C1024.9,314.435 1027.1,308.935 1029.3,300.245 C1026.11,298.375 1024.9,297.385 1022.04,294.635 C1021.38,300.575 1020.17,305.195 1017.86,310.255 C1013.79,319.495 1008.07,324.005 1000.26,324.005 C996.63,324.005 993.33,322.685 991.9,320.595 C990.58,318.615 990.14,315.865 990.14,310.145 L990.14,302.665 C990.14,296.395 989.59,292.875 988.27,290.235 C986.29,286.275 982,283.745 977.27,283.745 C969.46,283.745 963.85,287.705 956.59,298.155 L956.04,297.935 C956.48,296.945 956.59,296.725 957.03,295.955 C957.58,294.855 958.02,293.975 958.24,293.535 C962.75,284.075 962.75,284.075 966.16,275.385 C976.94,247.775 976.94,247.775 978.37,245.135 L969.46,242.715 M1063.62,259.545 C1065.05,259.545 1065.27,259.655 1067.25,259.875 C1074.4,260.755 1083.75,261.305 1091.45,261.305 C1097.72,261.305 1101.46,260.975 1108.06,259.875 C1106.96,260.535 1106.74,260.535 1105.97,260.975 C1104.65,261.635 1104.43,261.745 1103.22,262.405 C1098.27,265.155 1095.63,266.805 1088.59,271.535 L1094.2,276.045 C1104.98,268.235 1115.1,262.185 1121.92,259.325 L1121.37,252.065 C1115.32,253.605 1106.41,254.375 1093.54,254.375 C1081,254.375 1072.31,253.605 1064.28,251.735 L1063.62,259.545 M1070.22,287.705 C1061.75,294.855 1057.57,301.785 1057.57,308.935 C1057.57,316.525 1061.86,322.135 1070.11,325.545 C1075.5,327.635 1084.85,328.955 1095.41,328.955 C1105.09,328.955 1115.54,328.075 1125.11,326.425 C1126.98,326.095 1127.42,325.985 1128.85,325.875 L1127.86,316.855 C1121.7,319.385 1108.61,321.035 1094.86,321.035 C1086.17,321.035 1078.91,320.265 1074.73,318.835 C1068.57,316.745 1065.38,313.115 1065.38,308.055 C1065.38,302.885 1068.68,297.825 1075.83,291.885 L1070.22,287.705 M1159.54,276.815 C1161.41,275.935 1162.84,275.495 1167.46,274.175 C1186.49,268.895 1200.9,266.365 1212.34,266.365 C1227.3,266.365 1236.43,273.845 1236.43,286.165 C1236.43,298.485 1227.96,308.385 1212.89,313.885 C1204.53,316.965 1194.63,318.505 1182.31,318.945 C1184.29,321.915 1184.84,323.235 1185.72,327.085 C1202.77,325.655 1212.01,323.565 1222.13,318.725 C1236.87,311.575 1245.01,300.025 1245.01,286.275 C1245.01,269.445 1232.25,258.775 1212.12,258.775 C1202.99,258.775 1192.43,260.095 1180.22,262.845 C1160.64,267.245 1160.64,267.245 1157.34,267.465 L1159.54,276.815 M1279.55,249.315 C1281.64,252.835 1284.06,259.215 1287.47,270.215 C1285.71,270.765 1284.61,270.985 1281.86,271.975 C1268.77,276.485 1268.77,276.485 1265.69,277.145 L1268.55,284.955 C1271.52,283.305 1277.35,280.995 1283.62,278.905 C1288.57,277.365 1288.57,277.365 1289.56,276.925 C1296.71,300.795 1302.87,327.305 1303.42,336.325 L1312.33,334.345 C1311.67,332.475 1311.45,331.925 1310.9,329.615 C1306.28,308.935 1302.32,293.425 1296.71,274.725 C1312.66,269.555 1324.54,266.915 1332.57,266.915 C1343.68,266.915 1350.17,271.865 1350.17,280.225 C1350.17,284.955 1348.41,288.805 1344.89,291.445 C1341.26,294.195 1336.42,295.735 1331.69,295.735 C1325.31,295.735 1319.04,293.975 1313.21,290.675 C1313.76,294.965 1313.87,295.625 1313.87,296.945 C1313.87,297.275 1313.87,298.045 1313.76,298.925 C1320.25,301.675 1326.19,302.995 1332.35,302.995 C1347.42,302.995 1358.2,293.535 1358.2,280.335 C1358.2,268.015 1348.74,260.095 1334,260.095 C1331.25,260.095 1328.83,260.315 1325.75,260.755 C1325.64,259.435 1325.64,257.345 1325.64,257.235 C1325.64,248.655 1325.75,245.245 1326.19,242.385 L1317.94,242.385 C1318.27,245.135 1318.38,246.125 1318.38,261.855 C1310.13,263.505 1310.13,263.505 1294.73,268.015 C1293.19,263.065 1292.09,259.985 1289.89,253.495 C1288.68,250.195 1288.35,249.205 1287.8,246.785 L1279.55,249.315 M1464.02,322.025 C1462.59,321.145 1462.04,320.815 1460.28,319.495 C1448.73,311.135 1439.16,306.075 1429.59,303.435 C1429.15,292.765 1429.15,292.765 1428.93,286.605 C1437.07,286.055 1445.76,285.175 1453.35,283.965 C1457.2,283.415 1458.3,283.305 1459.73,283.195 L1459.29,275.605 C1453.24,277.695 1443.78,279.015 1428.82,280.115 C1428.71,274.285 1428.71,274.285 1428.6,265.265 C1440.81,264.495 1443.78,264.165 1454.12,262.625 C1459.84,261.855 1459.84,261.855 1461.71,261.745 L1461.16,254.265 C1455.11,256.245 1443.78,257.785 1428.6,258.775 C1428.71,250.855 1428.93,245.575 1429.37,243.265 L1420.9,243.265 C1421.34,245.685 1421.34,245.685 1421.45,259.105 C1417.82,259.105 1414.08,259.215 1411.88,259.215 C1399.89,259.215 1388.45,258.335 1383.72,257.015 L1383.61,264.495 C1384.27,264.385 1384.82,264.385 1385.15,264.385 C1385.7,264.385 1386.36,264.385 1387.13,264.495 C1397.03,265.265 1405.94,265.595 1413.97,265.595 C1416.5,265.595 1418.26,265.595 1421.45,265.485 L1421.67,280.555 C1418.59,280.665 1414.74,280.665 1411.88,280.665 C1400.77,280.665 1391.64,280.005 1386.69,278.905 L1386.58,286.165 C1386.91,286.165 1387.35,286.165 1387.46,286.165 C1388.12,286.165 1389,286.165 1390.21,286.275 C1397.03,286.825 1402.2,287.045 1408.8,287.045 C1412.32,287.045 1417.82,286.935 1421.78,286.825 C1421.89,289.685 1421.89,291.775 1422,293.205 C1422.11,296.395 1422.11,298.705 1422.22,299.695 C1422.22,300.355 1422.33,300.795 1422.33,300.905 C1422.33,301.895 1422.33,301.895 1422.44,302.225 C1417.71,301.455 1416.17,301.345 1412.54,301.345 C1407.7,301.345 1404.4,301.675 1401.1,302.445 C1391.42,304.645 1385.7,310.365 1385.7,317.625 C1385.7,322.135 1387.9,326.425 1391.64,329.175 C1395.38,332.035 1401.43,333.575 1408.69,333.575 C1417.38,333.575 1424.09,331.155 1427.28,326.645 C1429.26,324.005 1430.03,320.485 1430.03,314.655 C1430.03,313.225 1430.03,313.225 1429.81,310.695 C1432.78,311.905 1435.31,313.005 1437.18,313.995 C1446.53,318.835 1454.56,324.445 1459.62,329.725 L1464.02,322.025 M1422.55,313.115 C1422.55,318.395 1421.89,321.475 1420.35,323.015 C1418.26,325.435 1414.08,326.645 1408.25,326.645 C1398.68,326.645 1393.18,323.345 1393.18,317.515 C1393.18,311.685 1400.33,307.725 1411.22,307.725 C1416.06,307.725 1418.26,307.945 1422.44,308.935 L1422.55,313.115 M1538.71,257.895 C1544.21,258.115 1547.4,258.885 1551.47,260.645 C1562.58,265.595 1568.96,275.715 1568.96,288.255 C1568.96,301.785 1561.59,313.555 1549.49,319.055 C1544.32,321.475 1539.15,322.905 1531.12,324.225 C1533.21,326.865 1533.87,327.965 1534.97,331.595 C1542.56,329.945 1546.74,328.625 1551.69,326.535 C1567.64,319.715 1576.88,305.635 1576.88,288.585 C1576.88,278.025 1573.14,268.455 1566.21,261.745 C1559.06,254.705 1548.28,250.855 1535.96,250.855 C1521.22,250.855 1509.23,255.805 1500.43,265.485 C1493.06,273.735 1488.88,284.625 1488.88,295.845 C1488.88,311.245 1496.69,322.685 1507.14,322.685 C1515.06,322.685 1521.55,316.085 1527.93,301.565 C1532.88,290.015 1537.06,273.185 1538.71,257.895 M1530.79,258.005 C1529.36,272.085 1525.29,288.365 1520.78,298.705 C1516.05,309.485 1511.65,314.655 1507.03,314.655 C1501.09,314.655 1496.47,306.515 1496.47,295.955 C1496.47,282.315 1503.29,269.885 1514.4,263.175 C1519.46,260.095 1524.19,258.555 1530.79,258.005 M1599.98,269.445 C1600.97,269.335 1601.63,269.335 1601.85,269.335 C1601.85,269.335 1602.07,269.335 1602.29,269.335 C1606.58,269.555 1607.57,269.555 1611.42,269.555 C1615.49,269.555 1616.81,269.555 1619.01,269.445 C1614.94,291.005 1606.47,316.085 1598.33,330.275 L1606.36,333.685 C1612.19,320.265 1615.38,311.905 1619.01,300.135 C1621.98,290.125 1625.06,277.695 1626.71,269.005 C1632.1,268.565 1639.69,267.575 1645.3,266.365 C1647.5,265.925 1647.5,265.925 1648.38,265.815 L1647.83,258.225 C1642.55,259.985 1636.61,261.085 1628.03,261.965 C1628.58,258.665 1628.91,257.125 1629.46,253.605 C1630.78,245.795 1630.78,245.795 1631.44,243.155 L1622.75,242.275 C1622.75,247.115 1622.53,248.985 1620.33,262.515 C1617.14,262.735 1615.93,262.735 1613.73,262.735 C1607.9,262.735 1603.5,262.405 1599.98,261.745 L1599.98,269.445 M1683.03,274.835 C1674.78,274.505 1673.13,274.505 1671.04,274.505 C1661.8,274.505 1654.65,275.385 1641.89,278.135 L1642.66,285.615 C1652.67,282.865 1660.37,281.875 1670.16,281.875 C1674.78,281.875 1677.86,282.095 1683.14,282.645 L1683.03,274.835 M1642.99,298.595 C1637.16,306.075 1635.62,309.485 1635.62,314.435 C1635.62,325.325 1644.97,330.935 1663.01,330.935 C1668.84,330.935 1675.22,330.385 1682.59,329.065 C1686.22,328.515 1686.22,328.515 1687.43,328.295 L1686.66,320.045 C1680.39,322.245 1670.6,323.785 1662.35,323.785 C1649.81,323.785 1643.1,320.265 1643.1,313.665 C1643.1,311.025 1644.09,308.165 1645.85,305.855 C1646.62,304.645 1646.95,304.315 1649.15,301.675 L1642.99,298.595 M1717.68,251.295 C1718.12,252.835 1718.34,253.605 1718.67,254.815 C1720.65,263.725 1722.19,270.655 1722.96,273.625 C1712.84,282.205 1707.34,293.205 1707.34,304.865 C1707.34,317.515 1713.5,326.095 1722.52,326.095 C1728.24,326.095 1734.29,322.245 1740.12,314.985 C1749.14,303.655 1756.62,287.815 1762.01,268.345 C1769.05,269.005 1773.78,270.655 1777.96,273.735 C1785,278.795 1788.96,287.045 1788.96,296.725 C1788.96,301.895 1788.52,304.425 1787.09,308.825 C1780.38,304.755 1775.43,303.215 1768.94,303.215 C1764.54,303.215 1760.58,304.205 1757.72,305.965 C1753.54,308.715 1751.01,313.005 1751.01,317.625 C1751.01,325.655 1758.27,331.155 1768.83,331.155 C1778.29,331.155 1785.44,327.305 1790.39,319.275 C1794.35,322.465 1796.44,324.555 1799.85,328.295 L1803.37,320.705 C1798.53,316.635 1795.23,313.885 1793.58,312.675 C1795.67,307.065 1796.33,303.655 1796.33,297.935 C1796.33,282.755 1790.06,271.755 1778.07,265.925 C1773.89,263.835 1768.5,262.405 1763.88,261.965 C1764.65,258.775 1764.87,257.895 1765.42,255.585 C1766.96,248.545 1767.4,246.785 1768.06,245.355 L1759.7,243.925 C1759.59,246.565 1758.93,250.305 1758.05,254.595 C1756.73,260.315 1756.73,260.315 1756.4,261.635 C1745.51,262.185 1737.15,264.605 1729.23,269.335 C1727.47,262.405 1725.71,253.165 1725.6,249.535 L1717.68,251.295 M1725.27,280.885 C1728.46,292.875 1731.43,300.685 1735.72,308.825 C1731.32,314.985 1726.48,318.725 1722.63,318.725 C1717.9,318.725 1714.49,313.005 1714.49,305.195 C1714.49,295.955 1717.79,288.365 1725.27,280.885 M1740.23,302.995 C1740.12,302.335 1740.12,302.335 1739.68,301.345 C1739.57,301.125 1739.57,301.125 1737.48,295.845 C1733.74,286.385 1733.63,286.055 1730.88,275.935 C1738.58,270.985 1745.29,268.785 1754.75,268.125 C1752,277.695 1748.81,286.165 1745.73,292.435 C1741.77,300.245 1741,301.785 1740.56,302.995 L1740.23,302.995 M1784.67,315.205 C1782.58,318.725 1781.7,319.715 1779.28,321.475 C1776.31,323.675 1772.79,324.775 1768.83,324.775 C1762.34,324.775 1757.83,321.805 1757.83,317.405 C1757.83,312.785 1762.23,309.595 1768.61,309.595 C1774.22,309.595 1779.06,311.245 1784.67,315.205 M1824.82,266.805 C1826.8,266.585 1827.02,266.585 1831.64,266.475 C1844.07,266.255 1852.87,265.705 1861.34,264.495 C1864.09,270.435 1864.75,271.645 1867.61,277.035 C1858.59,278.685 1844.4,279.785 1832.96,279.785 C1828.56,279.785 1826.58,279.675 1824.16,279.455 L1824.38,286.715 C1826.36,286.495 1826.8,286.495 1832.08,286.275 C1852.65,285.615 1859.8,285.065 1870.69,283.085 C1874.54,289.795 1879.05,296.395 1882.46,300.025 C1875.2,297.715 1869.37,296.835 1860.24,296.835 C1839.34,296.835 1826.69,303.985 1826.69,315.865 C1826.69,321.585 1829.66,326.535 1834.94,329.505 C1840.55,332.695 1847.48,334.125 1857.6,334.125 C1867.39,334.125 1876.74,332.805 1885.76,330.055 C1890.82,328.515 1890.82,328.515 1892.36,328.185 L1890.82,319.605 C1884.22,323.675 1869.7,326.975 1858.26,326.975 C1843.19,326.975 1834.83,323.015 1834.83,315.755 C1834.83,308.165 1845.06,303.215 1860.9,303.215 C1865.85,303.215 1871.46,303.655 1875.31,304.205 C1880.7,305.085 1883.23,305.965 1887.41,308.385 L1893.9,303.765 C1885.43,293.865 1884.22,292.325 1877.73,281.875 C1881.8,281.105 1887.3,279.895 1895,277.915 C1898.63,276.925 1899.07,276.925 1900.94,276.485 L1900.06,269.115 C1895.55,271.315 1889.39,272.965 1874.87,275.935 C1873.22,272.965 1870.25,267.135 1868.6,263.505 C1874.76,262.515 1886.53,259.985 1896.32,257.345 L1895.66,250.195 C1889.5,252.835 1879.16,255.365 1866.29,257.455 C1863.54,251.625 1861.45,245.905 1860.46,241.945 L1852.21,243.375 C1853.2,244.915 1855.4,249.975 1858.81,258.445 C1848.69,259.545 1841.98,259.985 1832.74,259.985 C1829,259.985 1827.13,259.875 1824.49,259.655 L1824.82,266.805 M1934.38,272.635 C1936.03,272.415 1936.58,272.305 1938.67,272.305 C1953.19,272.085 1966.94,270.985 1977.83,269.445 C1978.49,270.545 1978.49,270.765 1979.7,273.075 C1984.43,282.315 1987.18,286.825 1992.9,294.635 C1988.28,292.215 1979.59,290.675 1970.13,290.675 C1961.22,290.675 1954.62,291.885 1948.79,294.745 C1941.09,298.485 1936.36,305.415 1936.36,312.675 C1936.36,317.075 1938.12,321.365 1941.31,324.775 C1946.37,330.055 1956.49,333.025 1969.91,333.025 C1980.8,333.025 1991.25,331.155 2002.25,327.085 L2001.04,318.615 C1992.79,322.905 1980.69,325.655 1969.8,325.655 C1960.34,325.655 1952.42,323.785 1948.35,320.595 C1945.71,318.395 1944.17,315.425 1944.17,312.015 C1944.17,308.055 1946.48,304.095 1950.11,301.785 C1955.06,298.705 1961.77,297.165 1971.01,297.165 C1978.49,297.165 1984.65,298.155 1990.26,300.025 C1993.34,301.125 1994.88,302.115 1997.85,304.535 L2005.22,300.355 C1997.52,290.125 1989.38,276.925 1985.42,268.345 C1986.52,268.125 1986.52,268.125 1989.16,267.575 C1996.09,266.255 1997.41,265.925 2004.01,264.165 C2007.31,263.285 2008.19,263.065 2010.5,262.625 L2009.4,254.815 C2003.46,257.345 1993.45,259.985 1982.78,261.745 C1981.79,259.655 1981.46,259.105 1978.82,252.065 C1976.07,245.025 1976.07,245.025 1975.63,242.165 L1966.94,243.375 C1967.93,245.355 1968.59,246.895 1969.8,249.755 C1971.78,254.705 1973.54,259.105 1975.19,262.845 C1964.85,264.275 1952.42,265.155 1942.41,265.155 C1938.67,265.155 1936.8,265.045 1933.94,264.605 L1934.38,272.635 M2069.46,242.715 C2068.8,246.015 2066.38,252.945 2054.39,284.735 C2038.55,326.975 2038.55,326.975 2037.12,330.055 L2045.59,332.695 C2047.02,326.095 2052.08,313.555 2055.71,307.395 C2061.87,296.945 2069.02,291.115 2075.4,291.115 C2078.7,291.115 2080.68,292.435 2081.67,295.185 C2082.33,296.945 2082.55,299.035 2082.55,303.545 L2082.55,309.815 C2082.55,315.975 2082.88,319.495 2083.54,321.695 C2085.63,327.965 2091.46,331.595 2099.6,331.595 C2108.62,331.595 2116.43,327.305 2121.49,319.605 C2124.9,314.435 2127.1,308.935 2129.3,300.245 C2126.11,298.375 2124.9,297.385 2122.04,294.635 C2121.38,300.575 2120.17,305.195 2117.86,310.255 C2113.79,319.495 2108.07,324.005 2100.26,324.005 C2096.63,324.005 2093.33,322.685 2091.9,320.595 C2090.58,318.615 2090.14,315.865 2090.14,310.145 L2090.14,302.665 C2090.14,296.395 2089.59,292.875 2088.27,290.235 C2086.29,286.275 2082,283.745 2077.27,283.745 C2069.46,283.745 2063.85,287.705 2056.59,298.155 L2056.04,297.935 C2056.48,296.945 2056.59,296.725 2057.03,295.955 C2057.58,294.855 2058.02,293.975 2058.24,293.535 C2062.75,284.075 2062.75,284.075 2066.16,275.385 C2076.94,247.775 2076.94,247.775 2078.37,245.135 L2069.46,242.715 "/>
<path class="MeasureNumber" d="M233.391,1027.48 L231.231,1027.48 L212.591,1046.76 L212.591,1048.44 L223.871,1048.44 L223.231,1050.88 C222.431,1053.92 222.431,1053.92 218.951,1053.92 L218.231,1053.92 L217.991,1055.8 L230.431,1055.8 L230.631,1053.92 L229.911,1053.92 C227.271,1053.92 226.711,1053.72 226.711,1052.84 C226.711,1052.52 226.791,1052.12 227.111,1050.88 L227.791,1048.44 L232.351,1048.44 L232.951,1046.28 L228.351,1046.28 L233.391,1027.48 M224.471,1046.28 L215.511,1046.28 L227.871,1033.56 L224.471,1046.28 "/>
<polyline class="BarLine" fill="none" stroke="#000000" stroke-width="4.46" stroke-linejoin="bevel" points="1227.32,632.834 1227.32,734.762"/>
<polyline class="BarLine" fill="none" stroke="#000000" stroke-width="4.46" stroke-linejoin="bevel" points="2740.42,1104.03 2740.42,1205.96"/>
<polyline class="BarLine" fill="none" stroke="#000000" stroke-width="13.64" stroke-linejoin="bevel" points="2757.78,1104.03 2757.78,1205.96"/>
<polyline class="BarLine" fill="none" stroke="#000000" stroke-width="4.46" stroke-linejoin="bevel" points="2762.37,632.834 2762.37,734.762"/>
<polyline class="BarLine" fill="none" stroke="#000000" stroke-width="4.46" stroke-linejoin="bevel" points="2002,632.834 2002,734.762"/>
<polyline class="BarLine" fill="none" stroke="#000000" stroke-width="4.46" stroke-linejoin="bevel" points="1041.21,1104.03 1041.21,1205.96"/>
<polyline class="BarLine" fill="none" stroke="#000000" stroke-width="4.46" stroke-linejoin="bevel" points="1939.16,1104.03 1939.16,1205.96"/>
<polyline class="Stem" fill="none" stroke="#000000" stroke-width="2.73" stroke-linejoin="bevel" points="1759.25,729.43 1759.25,646.598"/>
<polyline class="Stem" fill="none" stroke="#000000" stroke-width="2.73" stroke-linejoin="bevel" points="1752.48,1175.83 1752.48,1105.4"/>
<polyline class="Stem" fill="none" stroke="#000000" stroke-width="2.73" stroke-linejoin="bevel" points="745.188,1200.63 745.188,1130.2"/>
<polyline class="Stem" fill="none" stroke="#000000" stroke-width="2.73" stroke-linejoin="bevel" points="841.725,692.23 841.725,615.598"/>
<polyline class="Stem" fill="none" stroke="#000000" stroke-width="2.73" stroke-linejoin="bevel" points="1247.65,1175.83 1247.65,1092.94"/>
<polyline class="Stem" fill="none" stroke="#000000" stroke-width="2.73" stroke-linejoin="bevel" points="1321.86,1175.83 1321.86,1105.4"/>
<polyline class="Stem" fill="none" stroke="#000000" stroke-width="2.73" stroke-linejoin="bevel" points="2219.81,1163.43 2219.81,1086.8"/>
<polyline class="Stem" fill="none" stroke="#000000" stroke-width="2.73" stroke-linejoin="bevel" points="604.083,1200.63 604.083,1130.2"/>
<polyline class="Stem" fill="none" stroke="#000000" stroke-width="2.73" stroke-linejoin="bevel" points="994.62,692.23 994.62,615.598"/>
<polyline class="Stem" fill="none" stroke="#000000" stroke-width="2.73" stroke-linejoin="bevel" points="529.876,1175.83 529.876,1092.94"/>
<polyline class="Stem" fill="none" stroke="#000000" stroke-width="2.73" stroke-linejoin="bevel" points="1045.53,687.965 1045.53,758.198"/>
<polyline class="Stem" fill="none" stroke="#000000" stroke-width="2.73" stroke-linejoin="bevel" points="1462.96,1175.83 1462.96,1105.4"/>
<polyline class="Stem" fill="none" stroke="#000000" stroke-width="2.73" stroke-linejoin="bevel" points="2145.6,1163.43 2145.6,1086.86"/>
<polyline class="Stem" fill="none" stroke="#000000" stroke-width="2.73" stroke-linejoin="bevel" points="2360.91,1163.43 2360.91,1086.8"/>
<polyline class="Stem" fill="none" stroke="#000000" stroke-width="2.73" stroke-linejoin="bevel" points="819.394,1200.63 819.394,1117.8"/>
<polyline class="Stem" fill="none" stroke="#000000" stroke-width="2.73" stroke-linejoin="bevel" points="1292.65,692.23 1292.65,615.653"/>
<polyline class="Stem" fill="none" stroke="#000000" stroke-width="2.73" stroke-linejoin="bevel" points="388.771,1163.43 388.771,1086.86"/>
<polyline class="Stem" fill="none" stroke="#000000" stroke-width="2.73" stroke-linejoin="bevel" points="2435.12,1163.43 2435.12,1086.8"/>
<polyline class="Stem" fill="none" stroke="#000000" stroke-width="2.73" stroke-linejoin="bevel" points="2004.5,1175.83 2004.5,1092.94"/>
<polyline class="Stem" fill="none" stroke="#000000" stroke-width="2.73" stroke-linejoin="bevel" points="1106.55,1163.43 1106.55,1086.86"/>
<polyline class="Stem" fill="none" stroke="#000000" stroke-width="2.73" stroke-linejoin="bevel" points="1445.54,704.63 1445.54,621.744"/>
<polyline class="Stem" fill="none" stroke="#000000" stroke-width="2.73" stroke-linejoin="bevel" points="2610.08,704.63 2610.08,621.798"/>
<polyline class="Stem" fill="none" stroke="#000000" stroke-width="2.73" stroke-linejoin="bevel" points="1525.95,729.43 1525.95,658.998"/>
<polyline class="Stem" fill="none" stroke="#000000" stroke-width="2.73" stroke-linejoin="bevel" points="1537.17,1163.43 1537.17,1086.86"/>
<polyline class="Stem" fill="none" stroke="#000000" stroke-width="2.73" stroke-linejoin="bevel" points="2429.16,704.63 2429.16,621.798"/>
<polyline class="Stem" fill="none" stroke="#000000" stroke-width="2.73" stroke-linejoin="bevel" points="2248.25,704.63 2248.25,621.798"/>
<polyline class="Stem" fill="none" stroke="#000000" stroke-width="2.73" stroke-linejoin="bevel" points="1893.59,1175.83 1893.59,1105.4"/>
<polyline class="Stem" fill="none" stroke="#000000" stroke-width="2.73" stroke-linejoin="bevel" points="1678.85,729.43 1678.85,658.998"/>
<polyline class="Stem" fill="none" stroke="#000000" stroke-width="2.73" stroke-linejoin="bevel" points="1678.27,1175.83 1678.27,1092.94"/>
<polyline class="Stem" fill="none" stroke="#000000" stroke-width="2.73" stroke-linejoin="bevel" points="427.506,692.23 427.506,615.598"/>
<polyline class="Stem" fill="none" stroke="#000000" stroke-width="2.73" stroke-linejoin="bevel" points="2067.33,692.23 2067.33,615.598"/>
<polyline class="Stem" fill="none" stroke="#000000" stroke-width="2.73" stroke-linejoin="bevel" points="608.422,692.23 608.422,615.598"/>
<polyline class="Stem" fill="none" stroke="#000000" stroke-width="2.73" stroke-linejoin="bevel" points="761.318,692.23 761.318,615.598"/>
<path class="Note" transform="matrix(0.992,0,0,0.992,2404.26,1167.4)" d="M0,4.2 C0,8.5 3.1,13.3 11.2,13.3 C21.6,13.3 32.5,4.8 32.5,-4 C32.5,-9.9 27.5,-13.2 21.3,-13.2 C11.6,-13.2 0,-5 0,4.2"/>
<path class="Note" transform="matrix(0.992,0,0,0.992,730.457,696.198)" d="M0,4.2 C0,8.5 3.1,13.3 11.2,13.3 C21.6,13.3 32.5,4.8 32.5,-4 C32.5,-9.9 27.5,-13.2 21.3,-13.2 C11.6,-13.2 0,-5 0,4.2"/>
<path class="Note" transform="matrix(0.992,0,0,0.992,1721.62,1179.8)" d="M0,4.2 C0,8.5 3.1,13.3 11.2,13.3 C21.6,13.3 32.5,4.8 32.5,-4 C32.5,-9.9 27.5,-13.2 21.3,-13.2 C11.6,-13.2 0,-5 0,4.2"/>
<path class="Note" transform="matrix(0.992,0,0,0.992,1728.39,733.398)" d="M21.3,-13.2 C11.6,-13.2 0,-5.1 0,4.2 C0,8.5 3.1,13.3 11.2,13.3 C21.6,13.3 32.5,4.8 32.5,-4 C32.5,-9.9 27.5,-13.2 21.3,-13.2 M7.5,8.6 C4.2,8.6 3.5,5.9 3.5,5 C3.5,0.1 20.3,-8.5 25,-8.5 C27.4,-8.5 29,-7.1 29,-4.9 C29,0.1 12.1,8.6 7.5,8.6"/>
<path class="Note" transform="matrix(0.992,0,0,0.992,2036.47,696.198)" d="M0,4.2 C0,8.5 3.1,13.3 11.2,13.3 C21.6,13.3 32.5,4.8 32.5,-4 C32.5,-9.9 27.5,-13.2 21.3,-13.2 C11.6,-13.2 0,-5 0,4.2"/>
<path class="Note" transform="matrix(0.992,0,0,0.992,1647.99,733.398)" d="M0,4.2 C0,8.5 3.1,13.3 11.2,13.3 C21.6,13.3 32.5,4.8 32.5,-4 C32.5,-9.9 27.5,-13.2 21.3,-13.2 C11.6,-13.2 0,-5 0,4.2"/>
<path class="Note" transform="matrix(0.992,0,0,0.992,1862.73,1179.8)" d="M0,4.2 C0,8.5 3.1,13.3 11.2,13.3 C21.6,13.3 32.5,4.8 32.5,-4 C32.5,-9.9 27.5,-13.2 21.3,-13.2 C11.6,-13.2 0,-5 0,4.2"/>
<path class="Note" transform="matrix(0.992,0,0,0.992,2217.39,708.598)" d="M0,4.2 C0,8.5 3.1,13.3 11.2,13.3 C21.6,13.3 32.5,4.8 32.5,-4 C32.5,-9.9 27.5,-13.2 21.3,-13.2 C11.6,-13.2 0,-5 0,4.2"/>
<path class="Note" transform="matrix(0.992,0,0,0.992,1506.31,1167.4)" d="M0,4.2 C0,8.5 3.1,13.3 11.2,13.3 C21.6,13.3 32.5,4.8 32.5,-4 C32.5,-9.9 27.5,-13.2 21.3,-13.2 C11.6,-13.2 0,-5 0,4.2"/>
<path class="Note" transform="matrix(0.992,0,0,0.992,396.645,696.198)" d="M0,4.2 C0,8.5 3.1,13.3 11.2,13.3 C21.6,13.3 32.5,4.8 32.5,-4 C32.5,-9.9 27.5,-13.2 21.3,-13.2 C11.6,-13.2 0,-5 0,4.2"/>
<path class="Note" transform="matrix(0.992,0,0,0.992,2398.3,708.598)" d="M0,4.2 C0,8.5 3.1,13.3 11.2,13.3 C21.6,13.3 32.5,4.8 32.5,-4 C32.5,-9.9 27.5,-13.2 21.3,-13.2 C11.6,-13.2 0,-5 0,4.2"/>
<path class="Note" transform="matrix(0.992,0,0,0.992,1495.09,733.398)" d="M0,4.2 C0,8.5 3.1,13.3 11.2,13.3 C21.6,13.3 32.5,4.8 32.5,-4 C32.5,-9.9 27.5,-13.2 21.3,-13.2 C11.6,-13.2 0,-5 0,4.2"/>
<path class="Note" transform="matrix(0.992,0,0,0.992,1414.68,708.598)" d="M0,4.2 C0,8.5 3.1,13.3 11.2,13.3 C21.6,13.3 32.5,4.8 32.5,-4 C32.5,-9.9 27.5,-13.2 21.3,-13.2 C11.6,-13.2 0,-5 0,4.2"/>
<path class="Note" transform="matrix(0.992,0,0,0.992,2579.22,708.598)" d="M0,4.2 C0,8.5 3.1,13.3 11.2,13.3 C21.6,13.3 32.5,4.8 32.5,-4 C32.5,-9.9 27.5,-13.2 21.3,-13.2 C11.6,-13.2 0,-5 0,4.2"/>
<path class="Note" transform="matrix(0.992,0,0,0.992,1432.1,1179.8)" d="M0,4.2 C0,8.5 3.1,13.3 11.2,13.3 C21.6,13.3 32.5,4.8 32.5,-4 C32.5,-9.9 27.5,-13.2 21.3,-13.2 C11.6,-13.2 0,-5 0,4.2"/>
<path class="Note" transform="matrix(0.992,0,0,0.992,577.562,696.198)" d="M0,4.2 C0,8.5 3.1,13.3 11.2,13.3 C21.6,13.3 32.5,4.8 32.5,-4 C32.5,-9.9 27.5,-13.2 21.3,-13.2 C11.6,-13.2 0,-5 0,4.2"/>
<path class="Note" transform="matrix(0.992,0,0,0.992,1973.64,1179.8)" d="M0,4.2 C0,8.5 3.1,13.3 11.2,13.3 C21.6,13.3 32.5,4.8 32.5,-4 C32.5,-9.9 27.5,-13.2 21.3,-13.2 C11.6,-13.2 0,-5 0,4.2"/>
<path class="Note" transform="matrix(0.992,0,0,0.992,1075.69,1167.4)" d="M0,4.2 C0,8.5 3.1,13.3 11.2,13.3 C21.6,13.3 32.5,4.8 32.5,-4 C32.5,-9.9 27.5,-13.2 21.3,-13.2 C11.6,-13.2 0,-5 0,4.2"/>
<path class="Note" transform="matrix(0.992,0,0,0.992,788.534,1204.6)" d="M21.3,-13.2 C11.6,-13.2 0,-5.1 0,4.2 C0,8.5 3.1,13.3 11.2,13.3 C21.6,13.3 32.5,4.8 32.5,-4 C32.5,-9.9 27.5,-13.2 21.3,-13.2 M7.5,8.6 C4.2,8.6 3.5,5.9 3.5,5 C3.5,0.1 20.3,-8.5 25,-8.5 C27.4,-8.5 29,-7.1 29,-4.9 C29,0.1 12.1,8.6 7.5,8.6"/>
<path class="Note" transform="matrix(0.992,0,0,0.992,2330.05,1167.4)" d="M0,4.2 C0,8.5 3.1,13.3 11.2,13.3 C21.6,13.3 32.5,4.8 32.5,-4 C32.5,-9.9 27.5,-13.2 21.3,-13.2 C11.6,-13.2 0,-5 0,4.2"/>
<path class="Note" transform="matrix(0.992,0,0,0.992,1261.79,696.198)" d="M0,4.2 C0,8.5 3.1,13.3 11.2,13.3 C21.6,13.3 32.5,4.8 32.5,-4 C32.5,-9.9 27.5,-13.2 21.3,-13.2 C11.6,-13.2 0,-5 0,4.2"/>
<path class="Note" transform="matrix(0.992,0,0,0.992,357.911,1167.4)" d="M0,4.2 C0,8.5 3.1,13.3 11.2,13.3 C21.6,13.3 32.5,4.8 32.5,-4 C32.5,-9.9 27.5,-13.2 21.3,-13.2 C11.6,-13.2 0,-5 0,4.2"/>
<path class="Note" transform="matrix(0.992,0,0,0.992,714.327,1204.6)" d="M0,4.2 C0,8.5 3.1,13.3 11.2,13.3 C21.6,13.3 32.5,4.8 32.5,-4 C32.5,-9.9 27.5,-13.2 21.3,-13.2 C11.6,-13.2 0,-5 0,4.2"/>
<path class="Note" transform="matrix(0.992,0,0,0.992,1044.17,683.798)" d="M0,4.2 C0,8.5 3.1,13.3 11.2,13.3 C21.6,13.3 32.5,4.8 32.5,-4 C32.5,-9.9 27.5,-13.2 21.3,-13.2 C11.6,-13.2 0,-5 0,4.2"/>
<path class="Note" transform="matrix(0.992,0,0,0.992,1291,1179.8)" d="M0,4.2 C0,8.5 3.1,13.3 11.2,13.3 C21.6,13.3 32.5,4.8 32.5,-4 C32.5,-9.9 27.5,-13.2 21.3,-13.2 C11.6,-13.2 0,-5 0,4.2"/>
<path class="Note" transform="matrix(0.992,0,0,0.992,963.76,696.198)" d="M0,4.2 C0,8.5 3.1,13.3 11.2,13.3 C21.6,13.3 32.5,4.8 32.5,-4 C32.5,-9.9 27.5,-13.2 21.3,-13.2 C11.6,-13.2 0,-5 0,4.2"/>
<path class="Note" transform="matrix(0.992,0,0,0.992,499.016,1179.8)" d="M0,4.2 C0,8.5 3.1,13.3 11.2,13.3 C21.6,13.3 32.5,4.8 32.5,-4 C32.5,-9.9 27.5,-13.2 21.3,-13.2 C11.6,-13.2 0,-5 0,4.2"/>
<path class="Note" transform="matrix(0.992,0,0,0.992,2114.74,1167.4)" d="M0,4.2 C0,8.5 3.1,13.3 11.2,13.3 C21.6,13.3 32.5,4.8 32.5,-4 C32.5,-9.9 27.5,-13.2 21.3,-13.2 C11.6,-13.2 0,-5 0,4.2"/>
<path class="Note" transform="matrix(0.992,0,0,0.992,573.222,1204.6)" d="M0,4.2 C0,8.5 3.1,13.3 11.2,13.3 C21.6,13.3 32.5,4.8 32.5,-4 C32.5,-9.9 27.5,-13.2 21.3,-13.2 C11.6,-13.2 0,-5 0,4.2"/>
<path class="Note" transform="matrix(0.992,0,0,0.992,2188.95,1167.4)" d="M0,4.2 C0,8.5 3.1,13.3 11.2,13.3 C21.6,13.3 32.5,4.8 32.5,-4 C32.5,-9.9 27.5,-13.2 21.3,-13.2 C11.6,-13.2 0,-5 0,4.2"/>
<path class="Note" transform="matrix(0.992,0,0,0.992,1216.79,1179.8)" d="M0,4.2 C0,8.5 3.1,13.3 11.2,13.3 C21.6,13.3 32.5,4.8 32.5,-4 C32.5,-9.9 27.5,-13.2 21.3,-13.2 C11.6,-13.2 0,-5 0,4.2"/>
<path class="Note" transform="matrix(0.992,0,0,0.992,810.864,696.198)" d="M0,4.2 C0,8.5 3.1,13.3 11.2,13.3 C21.6,13.3 32.5,4.8 32.5,-4 C32.5,-9.9 27.5,-13.2 21.3,-13.2 C11.6,-13.2 0,-5 0,4.2"/>
<path class="Note" transform="matrix(0.992,0,0,0.992,1647.41,1179.8)" d="M0,4.2 C0,8.5 3.1,13.3 11.2,13.3 C21.6,13.3 32.5,4.8 32.5,-4 C32.5,-9.9 27.5,-13.2 21.3,-13.2 C11.6,-13.2 0,-5 0,4.2"/>
<path class="Clef" transform="matrix(0.992,0,0,0.992,232.438,1179.8)" d="M12.3,51.3 C12.3,57.9 17.3,66.6 30.8,66.6 C35.5,66.6 39.6,65.4 43.2,63.2 C48.6,59.4 50,52.8 50,46.5 C50,42.6 49.4,38.1 48.4,32.4 C48.1,30.4 47.5,27.4 46.9,23.5 C56.7,20.3 64,10.1 64,-0.2 C64,-15.3 53.3,-25.5 38.7,-25.5 C37.7,-31.5 36.7,-37.4 35.9,-43 C46.4,-54.1 53.7,-66.6 53.7,-82.5 C53.7,-91.6 50.9,-99 49.3,-102.6 C46.9,-107.7 44,-111.2 42.2,-111.2 C41.5,-111.2 38.4,-110 35.1,-106.1 C28.7,-98.5 26.9,-85.7 26.9,-77.3 C26.9,-71.9 27.4,-67 29.1,-55.8 C29,-55.7 23.8,-50.4 21.7,-48.7 C12.6,-40.3 0,-28.1 0,-8.1 C0,10.6 16.3,25.3 34.9,25.3 C37.8,25.3 40.5,25 42.8,24.6 C44.7,34.2 45.9,41.2 45.9,46.5 C45.9,56.9 40.5,62.4 30.4,62.4 C28,62.4 25.9,61.9 25.7,61.9 C25.6,61.8 25.4,61.7 25.4,61.6 C25.4,61.4 25.6,61.3 25.9,61.3 C30.6,60.5 35.3,56.5 35.3,50.1 C35.3,44.7 31.2,39 23.7,39 C16.7,39 12.3,44.7 12.3,51.3 M33.2,-82.2 C34.1,-86.2 38.7,-96.7 43.9,-96.7 C45.4,-96.7 47.8,-91.9 47.8,-84.9 C47.8,-74.5 40.1,-66.7 33.2,-59.9 C32.6,-63.9 32.1,-67.8 32.1,-72 C32.1,-75.7 32.4,-79.1 33.2,-82.2 M42,20.6 C40,21 38.1,21.2 36.2,21.2 C21.9,21.2 9.7,11.2 9.7,-3.9 C9.7,-16.1 18.3,-27 27.1,-34.6 C28.8,-36.1 30.4,-37.5 31.9,-39 C32.8,-33.6 33.5,-28.9 34.2,-24.8 C25.1,-22.1 18.9,-12.5 18.9,-3.1 C18.9,3.9 24.4,13.5 32.4,13.5 C33.2,13.5 34.1,13.1 34.1,12.2 C34.1,11.3 33.1,10.8 31.9,10 C28,7.6 25.8,5 25.8,0.1 C25.8,-6 30.4,-10.9 36.2,-12.3 L42,20.6 M56.2,2.1 C56.2,9.2 53.3,16.5 46.2,19.4 C44.1,7.4 41.4,-8.5 40.7,-12.9 C49.7,-12.9 56.2,-6.8 56.2,2.1"/>
<path class="Clef" transform="matrix(0.992,0,0,0.992,232.438,708.598)" d="M12.3,51.3 C12.3,57.9 17.3,66.6 30.8,66.6 C35.5,66.6 39.6,65.4 43.2,63.2 C48.6,59.4 50,52.8 50,46.5 C50,42.6 49.4,38.1 48.4,32.4 C48.1,30.4 47.5,27.4 46.9,23.5 C56.7,20.3 64,10.1 64,-0.2 C64,-15.3 53.3,-25.5 38.7,-25.5 C37.7,-31.5 36.7,-37.4 35.9,-43 C46.4,-54.1 53.7,-66.6 53.7,-82.5 C53.7,-91.6 50.9,-99 49.3,-102.6 C46.9,-107.7 44,-111.2 42.2,-111.2 C41.5,-111.2 38.4,-110 35.1,-106.1 C28.7,-98.5 26.9,-85.7 26.9,-77.3 C26.9,-71.9 27.4,-67 29.1,-55.8 C29,-55.7 23.8,-50.4 21.7,-48.7 C12.6,-40.3 0,-28.1 0,-8.1 C0,10.6 16.3,25.3 34.9,25.3 C37.8,25.3 40.5,25 42.8,24.6 C44.7,34.2 45.9,41.2 45.9,46.5 C45.9,56.9 40.5,62.4 30.4,62.4 C28,62.4 25.9,61.9 25.7,61.9 C25.6,61.8 25.4,61.7 25.4,61.6 C25.4,61.4 25.6,61.3 25.9,61.3 C30.6,60.5 35.3,56.5 35.3,50.1 C35.3,44.7 31.2,39 23.7,39 C16.7,39 12.3,44.7 12.3,51.3 M33.2,-82.2 C34.1,-86.2 38.7,-96.7 43.9,-96.7 C45.4,-96.7 47.8,-91.9 47.8,-84.9 C47.8,-74.5 40.1,-66.7 33.2,-59.9 C32.6,-63.9 32.1,-67.8 32.1,-72 C32.1,-75.7 32.4,-79.1 33.2,-82.2 M42,20.6 C40,21 38.1,21.2 36.2,21.2 C21.9,21.2 9.7,11.2 9.7,-3.9 C9.7,-16.1 18.3,-27 27.1,-34.6 C28.8,-36.1 30.4,-37.5 31.9,-39 C32.8,-33.6 33.5,-28.9 34.2,-24.8 C25.1,-22.1 18.9,-12.5 18.9,-3.1 C18.9,3.9 24.4,13.5 32.4,13.5 C33.2,13.5 34.1,13.1 34.1,12.2 C34.1,11.3 33.1,10.8 31.9,10 C28,7.6 25.8,5 25.8,0.1 C25.8,-6 30.4,-10.9 36.2,-12.3 L42,20.6 M56.2,2.1 C56.2,9.2 53.3,16.5 46.2,19.4 C44.1,7.4 41.4,-8.5 40.7,-12.9 C49.7,-12.9 56.2,-6.8 56.2,2.1"/>
<path class="TimeSig" transform="matrix(0.992,0,0,0.992,319.331,658.998)" d="M20.8,12.7 L20.8,20.1 L12.5,20.1 C11.8,20.1 11.1,20.7 11.1,21.5 L11.1,23.4 C11.1,24.2 11.8,24.8 12.5,24.8 L42.8,24.8 C43.6,24.8 44.2,24.2 44.2,23.4 L44.2,21.5 C44.2,20.7 43.6,20.1 42.8,20.1 L33.9,20.1 L33.9,12.7 L42.8,12.7 C43.6,12.7 44.2,12 44.2,11.2 L44.2,9.3 C44.2,8.6 43.6,7.9 42.8,7.9 L33.9,7.9 L33.9,-8 C33.9,-8.6 33.6,-9.1 33.1,-9.3 L31.9,-9.9 C31.7,-10 31.4,-10.1 31.2,-10.1 C30.9,-10 30.5,-9.9 30.3,-9.7 L21.2,-1.4 C20.9,-1.1 20.8,-0.7 20.8,-0.3 L20.8,7.9 L9.3,7.9 C9.3,7.9 20.4,-4.1 32.2,-19.9 C32.6,-20.4 32.7,-20.9 32.7,-21.3 C32.7,-21.8 32.5,-22.2 32.4,-22.3 L30.2,-24.5 C30,-24.7 29.6,-24.9 29.2,-24.9 C28.6,-24.9 15.1,-24.9 14.4,-24.9 C13.6,-24.9 13.1,-24.3 13,-23.7 C13,-23.7 12.5,-16.3 9.9,-8.2 C7.3,-0.1 4.3,4.9 1.7,8.6 C1.7,8.6 1.4,9.1 1.4,9.7 C1.4,9.9 1.4,10.1 1.5,10.3 C1.9,11 2.5,12.1 2.5,12.1 C2.5,12.1 2.7,12.7 3.6,12.7 L20.8,12.7 "/>
<path class="TimeSig" transform="matrix(0.992,0,0,0.992,319.331,708.598)" d="M20.8,12.7 L20.8,20.1 L12.5,20.1 C11.8,20.1 11.1,20.7 11.1,21.5 L11.1,23.4 C11.1,24.2 11.8,24.8 12.5,24.8 L42.8,24.8 C43.6,24.8 44.2,24.2 44.2,23.4 L44.2,21.5 C44.2,20.7 43.6,20.1 42.8,20.1 L33.9,20.1 L33.9,12.7 L42.8,12.7 C43.6,12.7 44.2,12 44.2,11.2 L44.2,9.3 C44.2,8.6 43.6,7.9 42.8,7.9 L33.9,7.9 L33.9,-8 C33.9,-8.6 33.6,-9.1 33.1,-9.3 L31.9,-9.9 C31.7,-10 31.4,-10.1 31.2,-10.1 C30.9,-10 30.5,-9.9 30.3,-9.7 L21.2,-1.4 C20.9,-1.1 20.8,-0.7 20.8,-0.3 L20.8,7.9 L9.3,7.9 C9.3,7.9 20.4,-4.1 32.2,-19.9 C32.6,-20.4 32.7,-20.9 32.7,-21.3 C32.7,-21.8 32.5,-22.2 32.4,-22.3 L30.2,-24.5 C30,-24.7 29.6,-24.9 29.2,-24.9 C28.6,-24.9 15.1,-24.9 14.4,-24.9 C13.6,-24.9 13.1,-24.3 13,-23.7 C13,-23.7 12.5,-16.3 9.9,-8.2 C7.3,-0.1 4.3,4.9 1.7,8.6 C1.7,8.6 1.4,9.1 1.4,9.7 C1.4,9.9 1.4,10.1 1.5,10.3 C1.9,11 2.5,12.1 2.5,12.1 C2.5,12.1 2.7,12.7 3.6,12.7 L20.8,12.7 "/>
<path class="Rest" transform="matrix(0.992,0,0,0.992,2571.22,1155)" d="M23,16.6 C22.9,16.5 22.7,16.3 22.4,15.9 L10.9,1.7 C10.8,1.6 10.7,1.3 10.7,1.1 C10.7,0.8 10.8,0.4 10.9,0.2 L21.1,-15.2 C21.2,-15.4 21.3,-15.7 21.3,-15.9 L21.3,-16.8 C21.3,-17.1 21.2,-17.4 21,-17.6 L4.8,-39.5 C4.8,-39.5 4.4,-40.1 3.8,-40.1 C3.5,-40.1 3.3,-40.1 3,-39.8 C2.6,-39.5 2.5,-39.1 2.5,-38.8 C2.5,-38.2 2.8,-37.7 2.8,-37.7 L10.4,-27.3 C10.6,-27 10.7,-26.6 10.7,-26.1 C10.7,-25.7 10.6,-25.2 10.4,-24.9 L0.3,-9.5 C0.2,-9.3 0.1,-8.9 0.1,-8.7 L0.1,-7.8 C0.1,-7.5 0.2,-7.2 0.4,-7 L11.6,6.9 C11.2,6.8 10.3,6.6 9.1,6.6 C4,6.6 0,10.8 0,15.9 C0,17.3 0.3,18.7 1.1,19.8 C3.2,23 10.7,32.5 10.7,32.5 C10.7,32.5 11.2,33.1 11.9,33.1 C12.1,33.1 12.3,33.1 12.5,32.9 C13,32.5 13.2,32.1 13.2,31.7 C13.2,31.3 13,31 12.9,30.8 C12.6,30.3 9.4,24.5 9.4,24.5 C9.4,24.5 8.7,23.1 8.7,21.3 C8.7,18.1 11.1,15.5 14.3,15.5 C15.6,15.5 16.7,15.9 17.5,16.4 L21.4,18.9 C21.4,18.9 21.8,19.1 22.2,19.1 C22.6,19.1 22.9,19 23.2,18.6 C23.4,18.3 23.5,18 23.5,17.7 C23.5,17.4 23.4,17.2 23.2,16.9 L23,16.6 "/>
<path class="Beam" fill-rule="evenodd" d="M387.407,1080.59 L531.24,1086.79 L531.24,1099.2 L387.407,1093 L387.407,1080.59 "/>
<path class="Beam" fill-rule="evenodd" d="M531.24,1105.39 L499,1104 L499,1116.41 L531.24,1117.8 L531.24,1105.39 "/>
<path class="Beam" fill-rule="evenodd" d="M1535.81,1080.59 L1679.64,1086.79 L1679.64,1099.2 L1535.81,1093 L1535.81,1080.59 "/>
<path class="Beam" fill-rule="evenodd" d="M1679.64,1105.39 L1647.4,1104 L1647.4,1116.41 L1679.64,1117.8 L1679.64,1105.39 "/>
<path class="Beam" fill-rule="evenodd" d="M607.058,609.398 L762.682,609.398 L762.682,621.798 L607.058,621.798 L607.058,609.398 "/>
<path class="Beam" fill-rule="evenodd" d="M762.682,627.998 L730.442,627.998 L730.442,640.398 L762.682,640.398 L762.682,627.998 "/>
<path class="Beam" fill-rule="evenodd" d="M1105.18,1080.59 L1249.02,1086.79 L1249.02,1099.2 L1105.18,1093 L1105.18,1080.59 "/>
<path class="Beam" fill-rule="evenodd" d="M1249.02,1105.39 L1216.78,1104 L1216.78,1116.41 L1249.02,1117.8 L1249.02,1105.39 "/>
<path class="Beam" fill-rule="evenodd" d="M2218.44,1080.6 L2362.28,1080.6 L2362.28,1093 L2218.44,1093 L2218.44,1080.6 "/>
<path class="Beam" fill-rule="evenodd" d="M2362.28,1099.2 L2330.04,1099.2 L2330.04,1111.6 L2362.28,1111.6 L2362.28,1099.2 "/>
<path class="Beam" fill-rule="evenodd" d="M840.361,609.398 L995.984,609.398 L995.984,621.798 L840.361,621.798 L840.361,609.398 "/>
<path class="Beam" fill-rule="evenodd" d="M995.984,627.998 L963.744,627.998 L963.744,640.398 L995.984,640.398 L995.984,627.998 "/>
<path class="Beam" fill-rule="evenodd" d="M602.719,1124 L746.552,1124 L746.552,1136.4 L602.719,1136.4 L602.719,1124 "/>
<path class="Beam" fill-rule="evenodd" d="M746.552,1142.6 L714.312,1142.6 L714.312,1155 L746.552,1155 L746.552,1142.6 "/>
<path class="Beam" fill-rule="evenodd" d="M2003.13,1086.79 L2146.97,1080.59 L2146.97,1093 L2003.13,1099.2 L2003.13,1086.79 "/>
<path class="Beam" fill-rule="evenodd" d="M2146.97,1099.19 L2114.73,1100.58 L2114.73,1112.99 L2146.97,1111.6 L2146.97,1099.19 "/>
<path class="Beam" fill-rule="evenodd" d="M1291.28,609.394 L1446.91,615.594 L1446.91,628.003 L1291.28,621.803 L1291.28,609.394 "/>
<path class="Beam" fill-rule="evenodd" d="M1446.91,634.194 L1414.67,632.909 L1414.67,645.319 L1446.91,646.603 L1446.91,634.194 "/>
<path class="Beam" fill-rule="evenodd" d="M1524.59,652.798 L1680.21,652.798 L1680.21,665.198 L1524.59,665.198 L1524.59,652.798 "/>
<path class="Beam" fill-rule="evenodd" d="M1680.21,671.398 L1647.97,671.398 L1647.97,683.798 L1680.21,683.798 L1680.21,671.398 "/>
<path class="Beam" fill-rule="evenodd" d="M1320.49,1099.2 L1464.33,1099.2 L1464.33,1111.6 L1320.49,1111.6 L1320.49,1099.2 "/>
<path class="Beam" fill-rule="evenodd" d="M1464.33,1117.8 L1432.09,1117.8 L1432.09,1130.2 L1464.33,1130.2 L1464.33,1117.8 "/>
<path class="Beam" fill-rule="evenodd" d="M1751.12,1099.2 L1894.95,1099.2 L1894.95,1111.6 L1751.12,1111.6 L1751.12,1099.2 "/>
<path class="Beam" fill-rule="evenodd" d="M1894.95,1117.8 L1862.71,1117.8 L1862.71,1130.2 L1894.95,1130.2 L1894.95,1117.8 "/>
<path class="Harmony" d="M946.814,1003.69 L913.759,1003.69 L913.759,1006.27 L914.749,1006.27 C917.884,1006.33 918.929,1006.49 919.369,1007.04 C919.699,1007.54 919.699,1007.65 919.699,1010.45 L919.699,1036.63 C919.699,1039.44 919.699,1039.55 919.369,1040.04 C918.929,1040.59 917.884,1040.81 914.749,1040.81 L913.759,1040.81 L913.759,1043.4 L947.529,1043.4 L948.629,1028.71 L946.209,1028.71 C944.119,1038.5 941.864,1040.59 933.449,1040.81 L929.819,1040.81 C926.519,1040.7 925.694,1040.15 925.859,1038.17 L925.859,1024.15 L926.959,1024.15 C932.624,1023.93 934.659,1025.96 934.879,1032.07 L937.464,1032.07 L937.464,1014.03 L934.879,1014.03 C934.549,1019.42 932.404,1021.56 927.179,1021.56 L925.859,1021.56 L925.859,1009.02 C925.804,1006.71 926.354,1006.33 929.324,1006.27 L932.184,1006.27 C941.204,1006.22 943.459,1008.2 945.219,1017.71 L947.584,1017.71 L946.814,1003.69 "/>
<path class="Harmony" d="M965.375,1017.77 L955.585,1018.37 L955.585,1020.74 L957.84,1020.74 C959.93,1020.79 960.205,1021.12 960.205,1023.49 L960.205,1039.22 C960.15,1040.04 960.095,1040.37 959.875,1040.65 C959.49,1041.14 958.445,1041.36 956.08,1041.42 L955.86,1041.42 L955.86,1043.4 L969.72,1043.4 L969.72,1041.42 L969.5,1041.42 C965.87,1041.31 965.375,1041.03 965.375,1039 L965.375,1028.82 C965.375,1023.93 968.07,1020.3 971.645,1020.3 C974.78,1020.3 976.375,1022.55 976.375,1027.01 L976.375,1039.27 C976.32,1039.99 976.265,1040.37 975.99,1040.65 C975.66,1041.14 974.56,1041.36 972.195,1041.42 L971.975,1041.42 L971.975,1043.4 L985.89,1043.4 L985.89,1041.42 L985.67,1041.42 C982.04,1041.31 981.545,1041.03 981.545,1039.05 L981.545,1029.32 C981.545,1023.82 984.02,1020.3 987.87,1020.3 C991.005,1020.3 992.545,1022.66 992.545,1027.61 L992.545,1039.22 C992.49,1039.99 992.435,1040.37 992.16,1040.65 C991.83,1041.14 990.73,1041.36 988.365,1041.42 L988.145,1041.42 L988.145,1043.4 L1002.06,1043.4 L1002.06,1041.42 L1001.84,1041.42 C998.21,1041.31 997.715,1041.03 997.715,1039 L997.715,1026.51 C997.715,1023.1 997.385,1021.95 995.955,1020.08 C994.36,1018.04 992.105,1016.94 989.465,1016.94 C985.89,1016.94 983.25,1018.65 980.885,1022.44 C979.95,1019.14 976.98,1016.94 973.295,1016.94 C969.94,1016.94 967.52,1018.54 965.375,1022 L965.375,1017.77 "/>
<path class="Harmony" d="M1077.22,532.488 L1044.17,532.488 L1044.17,535.073 L1045.16,535.073 C1048.29,535.128 1049.34,535.293 1049.78,535.843 C1050.11,536.338 1050.11,536.448 1050.11,539.253 L1050.11,565.433 C1050.11,568.238 1050.11,568.348 1049.78,568.843 C1049.34,569.393 1048.29,569.613 1045.16,569.613 L1044.17,569.613 L1044.17,572.198 L1077.94,572.198 L1079.04,557.513 L1076.62,557.513 C1074.53,567.303 1072.27,569.393 1063.86,569.613 L1060.23,569.613 C1056.93,569.503 1056.1,568.953 1056.27,566.973 L1056.27,552.948 L1057.37,552.948 C1063.03,552.728 1065.07,554.763 1065.29,560.868 L1067.87,560.868 L1067.87,542.828 L1065.29,542.828 C1064.96,548.218 1062.81,550.363 1057.59,550.363 L1056.27,550.363 L1056.27,537.823 C1056.21,535.513 1056.76,535.128 1059.73,535.073 L1062.59,535.073 C1071.61,535.018 1073.87,536.998 1075.63,546.513 L1077.99,546.513 L1077.22,532.488 "/>
<path class="Harmony" d="M1095.78,546.568 L1085.99,547.173 L1085.99,549.538 L1088.25,549.538 C1090.34,549.593 1090.61,549.923 1090.61,552.288 L1090.61,568.018 C1090.56,568.843 1090.5,569.173 1090.28,569.448 C1089.9,569.943 1088.85,570.163 1086.49,570.218 L1086.27,570.218 L1086.27,572.198 L1100.13,572.198 L1100.13,570.218 L1099.91,570.218 C1096.28,570.108 1095.78,569.833 1095.78,567.798 L1095.78,557.623 C1095.78,552.728 1098.48,549.098 1102.05,549.098 C1105.19,549.098 1106.78,551.353 1106.78,555.808 L1106.78,568.073 C1106.73,568.788 1106.67,569.173 1106.4,569.448 C1106.07,569.943 1104.97,570.163 1102.6,570.218 L1102.38,570.218 L1102.38,572.198 L1116.3,572.198 L1116.3,570.218 L1116.08,570.218 C1112.45,570.108 1111.95,569.833 1111.95,567.853 L1111.95,558.118 C1111.95,552.618 1114.43,549.098 1118.28,549.098 C1121.41,549.098 1122.95,551.463 1122.95,556.413 L1122.95,568.018 C1122.9,568.788 1122.84,569.173 1122.57,569.448 C1122.24,569.943 1121.14,570.163 1118.77,570.218 L1118.55,570.218 L1118.55,572.198 L1132.47,572.198 L1132.47,570.218 L1132.25,570.218 C1128.62,570.108 1128.12,569.833 1128.12,567.798 L1128.12,555.313 C1128.12,551.903 1127.79,550.748 1126.36,548.878 C1124.77,546.843 1122.51,545.743 1119.87,545.743 C1116.3,545.743 1113.66,547.448 1111.29,551.243 C1110.36,547.943 1107.39,545.743 1103.7,545.743 C1100.35,545.743 1097.93,547.338 1095.78,550.803 L1095.78,546.568 "/>
<path class="Harmony" d="M2431.36,532.488 L2398.31,532.488 L2398.31,535.073 L2399.3,535.073 C2402.43,535.128 2403.48,535.293 2403.92,535.843 C2404.25,536.338 2404.25,536.448 2404.25,539.253 L2404.25,565.433 C2404.25,568.238 2404.25,568.348 2403.92,568.843 C2403.48,569.393 2402.43,569.613 2399.3,569.613 L2398.31,569.613 L2398.31,572.198 L2432.08,572.198 L2433.18,557.513 L2430.76,557.513 C2428.67,567.303 2426.41,569.393 2418,569.613 L2414.37,569.613 C2411.07,569.503 2410.24,568.953 2410.41,566.973 L2410.41,552.948 L2411.51,552.948 C2417.17,552.728 2419.21,554.763 2419.43,560.868 L2422.01,560.868 L2422.01,542.828 L2419.43,542.828 C2419.1,548.218 2416.95,550.363 2411.73,550.363 L2410.41,550.363 L2410.41,537.823 C2410.35,535.513 2410.9,535.128 2413.87,535.073 L2416.73,535.073 C2425.75,535.018 2428.01,536.998 2429.77,546.513 L2432.13,546.513 L2431.36,532.488 "/>
<path class="Harmony" d="M2449.92,546.568 L2440.13,547.173 L2440.13,549.538 L2442.39,549.538 C2444.48,549.593 2444.75,549.923 2444.75,552.288 L2444.75,568.018 C2444.7,568.843 2444.64,569.173 2444.42,569.448 C2444.04,569.943 2442.99,570.163 2440.63,570.218 L2440.41,570.218 L2440.41,572.198 L2454.27,572.198 L2454.27,570.218 L2454.05,570.218 C2450.42,570.108 2449.92,569.833 2449.92,567.798 L2449.92,557.623 C2449.92,552.728 2452.62,549.098 2456.19,549.098 C2459.33,549.098 2460.92,551.353 2460.92,555.808 L2460.92,568.073 C2460.87,568.788 2460.81,569.173 2460.54,569.448 C2460.21,569.943 2459.11,570.163 2456.74,570.218 L2456.52,570.218 L2456.52,572.198 L2470.44,572.198 L2470.44,570.218 L2470.22,570.218 C2466.59,570.108 2466.09,569.833 2466.09,567.853 L2466.09,558.118 C2466.09,552.618 2468.57,549.098 2472.42,549.098 C2475.55,549.098 2477.09,551.463 2477.09,556.413 L2477.09,568.018 C2477.04,568.788 2476.98,569.173 2476.71,569.448 C2476.38,569.943 2475.28,570.163 2472.91,570.218 L2472.69,570.218 L2472.69,572.198 L2486.61,572.198 L2486.61,570.218 L2486.39,570.218 C2482.76,570.108 2482.26,569.833 2482.26,567.798 L2482.26,555.313 C2482.26,551.903 2481.93,550.748 2480.5,548.878 C2478.91,546.843 2476.65,545.743 2474.01,545.743 C2470.44,545.743 2467.8,547.448 2465.43,551.243 C2464.5,547.943 2461.53,545.743 2457.84,545.743 C2454.49,545.743 2452.07,547.338 2449.92,550.803 L2449.92,546.568 "/>
<path class="Harmony" d="M2250.44,532.488 L2217.39,532.488 L2217.39,535.073 L2218.38,535.073 C2221.51,535.128 2222.56,535.293 2223,535.843 C2223.33,536.338 2223.33,536.448 2223.33,539.253 L2223.33,565.433 C2223.33,568.238 2223.33,568.348 2223,568.843 C2222.56,569.393 2221.51,569.613 2218.38,569.613 L2217.39,569.613 L2217.39,572.198 L2251.16,572.198 L2252.26,557.513 L2249.84,557.513 C2247.75,567.303 2245.49,569.393 2237.08,569.613 L2233.45,569.613 C2230.15,569.503 2229.32,568.953 2229.49,566.973 L2229.49,552.948 L2230.59,552.948 C2236.25,552.728 2238.29,554.763 2238.51,560.868 L2241.09,560.868 L2241.09,542.828 L2238.51,542.828 C2238.18,548.218 2236.03,550.363 2230.81,550.363 L2229.49,550.363 L2229.49,537.823 C2229.43,535.513 2229.98,535.128 2232.95,535.073 L2235.81,535.073 C2244.83,535.018 2247.09,536.998 2248.85,546.513 L2251.21,546.513 L2250.44,532.488 "/>
<path class="Harmony" d="M2269.01,546.568 L2259.22,547.173 L2259.22,549.538 L2261.47,549.538 C2263.56,549.593 2263.84,549.923 2263.84,552.288 L2263.84,568.018 C2263.78,568.843 2263.73,569.173 2263.51,569.448 C2263.12,569.943 2262.08,570.163 2259.71,570.218 L2259.49,570.218 L2259.49,572.198 L2273.35,572.198 L2273.35,570.218 L2273.13,570.218 C2269.5,570.108 2269.01,569.833 2269.01,567.798 L2269.01,557.623 C2269.01,552.728 2271.7,549.098 2275.28,549.098 C2278.41,549.098 2280.01,551.353 2280.01,555.808 L2280.01,568.073 C2279.95,568.788 2279.9,569.173 2279.62,569.448 C2279.29,569.943 2278.19,570.163 2275.83,570.218 L2275.61,570.218 L2275.61,572.198 L2289.52,572.198 L2289.52,570.218 L2289.3,570.218 C2285.67,570.108 2285.18,569.833 2285.18,567.853 L2285.18,558.118 C2285.18,552.618 2287.65,549.098 2291.5,549.098 C2294.64,549.098 2296.18,551.463 2296.18,556.413 L2296.18,568.018 C2296.12,568.788 2296.07,569.173 2295.79,569.448 C2295.46,569.943 2294.36,570.163 2292,570.218 L2291.78,570.218 L2291.78,572.198 L2305.69,572.198 L2305.69,570.218 L2305.47,570.218 C2301.84,570.108 2301.35,569.833 2301.35,567.798 L2301.35,555.313 C2301.35,551.903 2301.02,550.748 2299.59,548.878 C2297.99,546.843 2295.74,545.743 2293.1,545.743 C2289.52,545.743 2286.88,547.448 2284.52,551.243 C2283.58,547.943 2280.61,545.743 2276.93,545.743 C2273.57,545.743 2271.15,547.338 2269.01,550.803 L2269.01,546.568 "/>
<path class="Harmony" d="M2592.45,1002.92 L2590.14,1002.92 L2577.49,1034.98 C2576.01,1039.27 2574.58,1040.59 2571.44,1040.81 L2571.22,1040.81 L2571.22,1043.4 L2585.8,1043.4 L2585.8,1040.81 L2584.7,1040.81 C2581.73,1040.81 2580.24,1039.77 2580.24,1037.68 C2580.24,1036.96 2580.41,1036.3 2580.74,1035.37 L2582.55,1030.53 L2597.13,1030.53 L2600.1,1037.9 C2600.43,1038.78 2600.54,1039.11 2600.54,1039.38 C2600.54,1040.26 2599.16,1040.81 2597.13,1040.81 L2594.82,1040.81 L2594.82,1043.4 L2611.87,1043.4 L2611.87,1040.81 L2611.1,1040.81 C2608.24,1040.76 2607.74,1040.43 2606.48,1037.29 L2592.45,1002.92 M2589.76,1011.94 L2595.97,1027.56 L2583.65,1027.56 L2589.76,1011.94 "/>
<path class="Harmony" d="M2624.87,1017.77 L2615.08,1018.37 L2615.08,1020.74 L2617.34,1020.74 C2619.43,1020.79 2619.7,1021.12 2619.7,1023.49 L2619.7,1039.22 C2619.65,1040.04 2619.59,1040.37 2619.37,1040.65 C2618.99,1041.14 2617.94,1041.36 2615.58,1041.42 L2615.36,1041.42 L2615.36,1043.4 L2629.22,1043.4 L2629.22,1041.42 L2629,1041.42 C2625.37,1041.31 2624.87,1041.03 2624.87,1039 L2624.87,1028.82 C2624.87,1023.93 2627.57,1020.3 2631.14,1020.3 C2634.28,1020.3 2635.87,1022.55 2635.87,1027.01 L2635.87,1039.27 C2635.82,1039.99 2635.76,1040.37 2635.49,1040.65 C2635.16,1041.14 2634.06,1041.36 2631.69,1041.42 L2631.47,1041.42 L2631.47,1043.4 L2645.39,1043.4 L2645.39,1041.42 L2645.17,1041.42 C2641.54,1041.31 2641.04,1041.03 2641.04,1039.05 L2641.04,1029.32 C2641.04,1023.82 2643.52,1020.3 2647.37,1020.3 C2650.5,1020.3 2652.04,1022.66 2652.04,1027.61 L2652.04,1039.22 C2651.99,1039.99 2651.93,1040.37 2651.66,1040.65 C2651.33,1041.14 2650.23,1041.36 2647.86,1041.42 L2647.64,1041.42 L2647.64,1043.4 L2661.56,1043.4 L2661.56,1041.42 L2661.34,1041.42 C2657.71,1041.31 2657.21,1041.03 2657.21,1039 L2657.21,1026.51 C2657.21,1023.1 2656.88,1021.95 2655.45,1020.08 C2653.86,1018.04 2651.6,1016.94 2648.96,1016.94 C2645.39,1016.94 2642.75,1018.65 2640.38,1022.44 C2639.45,1019.14 2636.48,1016.94 2632.79,1016.94 C2629.44,1016.94 2627.02,1018.54 2624.87,1022 L2624.87,1017.77 "/>
<path class="Harmony" d="M821.59,1003.69 L788.535,1003.69 L788.535,1006.27 L789.525,1006.27 C792.66,1006.33 793.705,1006.49 794.145,1007.04 C794.475,1007.54 794.475,1007.65 794.475,1010.45 L794.475,1036.63 C794.475,1039.44 794.475,1039.55 794.145,1040.04 C793.705,1040.59 792.66,1040.81 789.525,1040.81 L788.535,1040.81 L788.535,1043.4 L822.305,1043.4 L823.405,1028.71 L820.985,1028.71 C818.895,1038.5 816.64,1040.59 808.225,1040.81 L804.595,1040.81 C801.295,1040.7 800.47,1040.15 800.635,1038.17 L800.635,1024.15 L801.735,1024.15 C807.4,1023.93 809.435,1025.96 809.655,1032.07 L812.24,1032.07 L812.24,1014.03 L809.655,1014.03 C809.325,1019.42 807.18,1021.56 801.955,1021.56 L800.635,1021.56 L800.635,1009.02 C800.58,1006.71 801.13,1006.33 804.1,1006.27 L806.96,1006.27 C815.98,1006.22 818.235,1008.2 819.995,1017.71 L822.36,1017.71 L821.59,1003.69 "/>
<path class="Harmony" d="M840.151,1017.77 L830.361,1018.37 L830.361,1020.74 L832.616,1020.74 C834.706,1020.79 834.981,1021.12 834.981,1023.49 L834.981,1039.22 C834.926,1040.04 834.871,1040.37 834.651,1040.65 C834.266,1041.14 833.221,1041.36 830.856,1041.42 L830.636,1041.42 L830.636,1043.4 L844.496,1043.4 L844.496,1041.42 L844.276,1041.42 C840.646,1041.31 840.151,1041.03 840.151,1039 L840.151,1028.82 C840.151,1023.93 842.846,1020.3 846.421,1020.3 C849.556,1020.3 851.151,1022.55 851.151,1027.01 L851.151,1039.27 C851.096,1039.99 851.041,1040.37 850.766,1040.65 C850.436,1041.14 849.336,1041.36 846.971,1041.42 L846.751,1041.42 L846.751,1043.4 L860.666,1043.4 L860.666,1041.42 L860.446,1041.42 C856.816,1041.31 856.321,1041.03 856.321,1039.05 L856.321,1029.32 C856.321,1023.82 858.796,1020.3 862.646,1020.3 C865.781,1020.3 867.321,1022.66 867.321,1027.61 L867.321,1039.22 C867.266,1039.99 867.211,1040.37 866.936,1040.65 C866.606,1041.14 865.506,1041.36 863.141,1041.42 L862.921,1041.42 L862.921,1043.4 L876.836,1043.4 L876.836,1041.42 L876.616,1041.42 C872.986,1041.31 872.491,1041.03 872.491,1039 L872.491,1026.51 C872.491,1023.1 872.161,1021.95 870.731,1020.08 C869.136,1018.04 866.881,1016.94 864.241,1016.94 C860.666,1016.94 858.026,1018.65 855.661,1022.44 C854.726,1019.14 851.756,1016.94 848.071,1016.94 C844.716,1016.94 842.296,1018.54 840.151,1022 L840.151,1017.77 "/>
<path class="Harmony" d="M1527.54,1002.92 L1525.23,1002.92 L1512.58,1034.98 C1511.09,1039.27 1509.66,1040.59 1506.53,1040.81 L1506.31,1040.81 L1506.31,1043.4 L1520.88,1043.4 L1520.88,1040.81 L1519.78,1040.81 C1516.81,1040.81 1515.33,1039.77 1515.33,1037.68 C1515.33,1036.96 1515.49,1036.3 1515.82,1035.37 L1517.64,1030.53 L1532.21,1030.53 L1535.18,1037.9 C1535.51,1038.78 1535.62,1039.11 1535.62,1039.38 C1535.62,1040.26 1534.25,1040.81 1532.21,1040.81 L1529.9,1040.81 L1529.9,1043.4 L1546.95,1043.4 L1546.95,1040.81 L1546.18,1040.81 C1543.32,1040.76 1542.83,1040.43 1541.56,1037.29 L1527.54,1002.92 M1524.84,1011.94 L1531.06,1027.56 L1518.74,1027.56 L1524.84,1011.94 "/>
<path class="Harmony" d="M1559.96,1017.77 L1550.17,1018.37 L1550.17,1020.74 L1552.42,1020.74 C1554.51,1020.79 1554.79,1021.12 1554.79,1023.49 L1554.79,1039.22 C1554.73,1040.04 1554.68,1040.37 1554.46,1040.65 C1554.07,1041.14 1553.03,1041.36 1550.66,1041.42 L1550.44,1041.42 L1550.44,1043.4 L1564.3,1043.4 L1564.3,1041.42 L1564.08,1041.42 C1560.45,1041.31 1559.96,1041.03 1559.96,1039 L1559.96,1028.82 C1559.96,1023.93 1562.65,1020.3 1566.23,1020.3 C1569.36,1020.3 1570.96,1022.55 1570.96,1027.01 L1570.96,1039.27 C1570.9,1039.99 1570.85,1040.37 1570.57,1040.65 C1570.24,1041.14 1569.14,1041.36 1566.78,1041.42 L1566.56,1041.42 L1566.56,1043.4 L1580.47,1043.4 L1580.47,1041.42 L1580.25,1041.42 C1576.62,1041.31 1576.13,1041.03 1576.13,1039.05 L1576.13,1029.32 C1576.13,1023.82 1578.6,1020.3 1582.45,1020.3 C1585.59,1020.3 1587.13,1022.66 1587.13,1027.61 L1587.13,1039.22 C1587.07,1039.99 1587.02,1040.37 1586.74,1040.65 C1586.41,1041.14 1585.31,1041.36 1582.95,1041.42 L1582.73,1041.42 L1582.73,1043.4 L1596.64,1043.4 L1596.64,1041.42 L1596.42,1041.42 C1592.79,1041.31 1592.3,1041.03 1592.3,1039 L1592.3,1026.51 C1592.3,1023.1 1591.97,1021.95 1590.54,1020.08 C1588.94,1018.04 1586.69,1016.94 1584.05,1016.94 C1580.47,1016.94 1577.83,1018.65 1575.47,1022.44 C1574.53,1019.14 1571.56,1016.94 1567.88,1016.94 C1564.52,1016.94 1562.1,1018.54 1559.96,1022 L1559.96,1017.77 "/>
<path class="Harmony" d="M2057.7,531.718 L2055.39,531.718 L2042.74,563.783 C2041.25,568.073 2039.82,569.393 2036.69,569.613 L2036.47,569.613 L2036.47,572.198 L2051.04,572.198 L2051.04,569.613 L2049.94,569.613 C2046.97,569.613 2045.49,568.568 2045.49,566.478 C2045.49,565.763 2045.65,565.103 2045.98,564.168 L2047.8,559.328 L2062.37,559.328 L2065.34,566.698 C2065.67,567.578 2065.78,567.908 2065.78,568.183 C2065.78,569.063 2064.41,569.613 2062.37,569.613 L2060.06,569.613 L2060.06,572.198 L2077.11,572.198 L2077.11,569.613 L2076.34,569.613 C2073.48,569.558 2072.99,569.228 2071.72,566.093 L2057.7,531.718 M2055,540.738 L2061.22,556.358 L2048.9,556.358 L2055,540.738 "/>
<path class="Harmony" d="M2090.12,546.568 L2080.33,547.173 L2080.33,549.538 L2082.59,549.538 C2084.68,549.593 2084.95,549.923 2084.95,552.288 L2084.95,568.018 C2084.9,568.843 2084.84,569.173 2084.62,569.448 C2084.24,569.943 2083.19,570.163 2080.83,570.218 L2080.61,570.218 L2080.61,572.198 L2094.47,572.198 L2094.47,570.218 L2094.25,570.218 C2090.62,570.108 2090.12,569.833 2090.12,567.798 L2090.12,557.623 C2090.12,552.728 2092.82,549.098 2096.39,549.098 C2099.53,549.098 2101.12,551.353 2101.12,555.808 L2101.12,568.073 C2101.07,568.788 2101.01,569.173 2100.74,569.448 C2100.41,569.943 2099.31,570.163 2096.94,570.218 L2096.72,570.218 L2096.72,572.198 L2110.64,572.198 L2110.64,570.218 L2110.42,570.218 C2106.79,570.108 2106.29,569.833 2106.29,567.853 L2106.29,558.118 C2106.29,552.618 2108.77,549.098 2112.62,549.098 C2115.75,549.098 2117.29,551.463 2117.29,556.413 L2117.29,568.018 C2117.24,568.788 2117.18,569.173 2116.91,569.448 C2116.58,569.943 2115.48,570.163 2113.11,570.218 L2112.89,570.218 L2112.89,572.198 L2126.81,572.198 L2126.81,570.218 L2126.59,570.218 C2122.96,570.108 2122.46,569.833 2122.46,567.798 L2122.46,555.313 C2122.46,551.903 2122.13,550.748 2120.7,548.878 C2119.11,546.843 2116.85,545.743 2114.21,545.743 C2110.64,545.743 2108,547.448 2105.63,551.243 C2104.7,547.943 2101.73,545.743 2098.04,545.743 C2094.69,545.743 2092.27,547.338 2090.12,550.803 L2090.12,546.568 "/>
<path class="Harmony" d="M832.092,531.718 L829.782,531.718 L817.132,563.783 C815.647,568.073 814.217,569.393 811.082,569.613 L810.862,569.613 L810.862,572.198 L825.437,572.198 L825.437,569.613 L824.337,569.613 C821.367,569.613 819.882,568.568 819.882,566.478 C819.882,565.763 820.047,565.103 820.377,564.168 L822.192,559.328 L836.767,559.328 L839.737,566.698 C840.067,567.578 840.177,567.908 840.177,568.183 C840.177,569.063 838.802,569.613 836.767,569.613 L834.457,569.613 L834.457,572.198 L851.507,572.198 L851.507,569.613 L850.737,569.613 C847.877,569.558 847.382,569.228 846.117,566.093 L832.092,531.718 M829.397,540.738 L835.612,556.358 L823.292,556.358 L829.397,540.738 "/>
<path class="Harmony" d="M864.513,546.568 L854.723,547.173 L854.723,549.538 L856.978,549.538 C859.068,549.593 859.343,549.923 859.343,552.288 L859.343,568.018 C859.288,568.843 859.233,569.173 859.013,569.448 C858.628,569.943 857.583,570.163 855.218,570.218 L854.998,570.218 L854.998,572.198 L868.858,572.198 L868.858,570.218 L868.638,570.218 C865.008,570.108 864.513,569.833 864.513,567.798 L864.513,557.623 C864.513,552.728 867.208,549.098 870.783,549.098 C873.918,549.098 875.513,551.353 875.513,555.808 L875.513,568.073 C875.458,568.788 875.403,569.173 875.128,569.448 C874.798,569.943 873.698,570.163 871.333,570.218 L871.113,570.218 L871.113,572.198 L885.028,572.198 L885.028,570.218 L884.808,570.218 C881.178,570.108 880.683,569.833 880.683,567.853 L880.683,558.118 C880.683,552.618 883.158,549.098 887.008,549.098 C890.143,549.098 891.683,551.463 891.683,556.413 L891.683,568.018 C891.628,568.788 891.573,569.173 891.298,569.448 C890.968,569.943 889.868,570.163 887.503,570.218 L887.283,570.218 L887.283,572.198 L901.198,572.198 L901.198,570.218 L900.978,570.218 C897.348,570.108 896.853,569.833 896.853,567.798 L896.853,555.313 C896.853,551.903 896.523,550.748 895.093,548.878 C893.498,546.843 891.243,545.743 888.603,545.743 C885.028,545.743 882.388,547.448 880.023,551.243 C879.088,547.943 876.118,545.743 872.433,545.743 C869.078,545.743 866.658,547.338 864.513,550.803 L864.513,546.568 "/>
<path class="Harmony" d="M1897.14,532.488 L1864.08,532.488 L1864.08,535.073 L1865.07,535.073 C1868.21,535.128 1869.25,535.293 1869.69,535.843 C1870.02,536.338 1870.02,536.448 1870.02,539.253 L1870.02,565.433 C1870.02,568.238 1870.02,568.348 1869.69,568.843 C1869.25,569.393 1868.21,569.613 1865.07,569.613 L1864.08,569.613 L1864.08,572.198 L1897.85,572.198 L1898.95,557.513 L1896.53,557.513 C1894.44,567.303 1892.19,569.393 1883.77,569.613 L1880.14,569.613 C1876.84,569.503 1876.02,568.953 1876.18,566.973 L1876.18,552.948 L1877.28,552.948 C1882.95,552.728 1884.98,554.763 1885.2,560.868 L1887.79,560.868 L1887.79,542.828 L1885.2,542.828 C1884.87,548.218 1882.73,550.363 1877.5,550.363 L1876.18,550.363 L1876.18,537.823 C1876.13,535.513 1876.68,535.128 1879.65,535.073 L1882.51,535.073 C1891.53,535.018 1893.78,536.998 1895.54,546.513 L1897.91,546.513 L1897.14,532.488 "/>
<path class="Harmony" d="M1915.7,546.568 L1905.91,547.173 L1905.91,549.538 L1908.16,549.538 C1910.25,549.593 1910.53,549.923 1910.53,552.288 L1910.53,568.018 C1910.47,568.843 1910.42,569.173 1910.2,569.448 C1909.81,569.943 1908.77,570.163 1906.4,570.218 L1906.18,570.218 L1906.18,572.198 L1920.04,572.198 L1920.04,570.218 L1919.82,570.218 C1916.19,570.108 1915.7,569.833 1915.7,567.798 L1915.7,557.623 C1915.7,552.728 1918.39,549.098 1921.97,549.098 C1925.1,549.098 1926.7,551.353 1926.7,555.808 L1926.7,568.073 C1926.64,568.788 1926.59,569.173 1926.31,569.448 C1925.98,569.943 1924.88,570.163 1922.52,570.218 L1922.3,570.218 L1922.3,572.198 L1936.21,572.198 L1936.21,570.218 L1935.99,570.218 C1932.36,570.108 1931.87,569.833 1931.87,567.853 L1931.87,558.118 C1931.87,552.618 1934.34,549.098 1938.19,549.098 C1941.33,549.098 1942.87,551.463 1942.87,556.413 L1942.87,568.018 C1942.81,568.788 1942.76,569.173 1942.48,569.448 C1942.15,569.943 1941.05,570.163 1938.69,570.218 L1938.47,570.218 L1938.47,572.198 L1952.38,572.198 L1952.38,570.218 L1952.16,570.218 C1948.53,570.108 1948.04,569.833 1948.04,567.798 L1948.04,555.313 C1948.04,551.903 1947.71,550.748 1946.28,548.878 C1944.68,546.843 1942.43,545.743 1939.79,545.743 C1936.21,545.743 1933.57,547.448 1931.21,551.243 C1930.27,547.943 1927.3,545.743 1923.62,545.743 C1920.26,545.743 1917.84,547.338 1915.7,550.803 L1915.7,546.568 "/>
<path class="Harmony" d="M1761.45,532.488 L1728.39,532.488 L1728.39,535.073 L1729.38,535.073 C1732.52,535.128 1733.56,535.293 1734,535.843 C1734.33,536.338 1734.33,536.448 1734.33,539.253 L1734.33,565.433 C1734.33,568.238 1734.33,568.348 1734,568.843 C1733.56,569.393 1732.52,569.613 1729.38,569.613 L1728.39,569.613 L1728.39,572.198 L1762.16,572.198 L1763.26,557.513 L1760.84,557.513 C1758.75,567.303 1756.5,569.393 1748.08,569.613 L1744.45,569.613 C1741.15,569.503 1740.33,568.953 1740.49,566.973 L1740.49,552.948 L1741.59,552.948 C1747.26,552.728 1749.29,554.763 1749.51,560.868 L1752.1,560.868 L1752.1,542.828 L1749.51,542.828 C1749.18,548.218 1747.04,550.363 1741.81,550.363 L1740.49,550.363 L1740.49,537.823 C1740.44,535.513 1740.99,535.128 1743.96,535.073 L1746.82,535.073 C1755.84,535.018 1758.09,536.998 1759.85,546.513 L1762.22,546.513 L1761.45,532.488 "/>
<path class="Harmony" d="M1780.01,546.568 L1770.22,547.173 L1770.22,549.538 L1772.48,549.538 C1774.57,549.593 1774.84,549.923 1774.84,552.288 L1774.84,568.018 C1774.79,568.843 1774.73,569.173 1774.51,569.448 C1774.13,569.943 1773.08,570.163 1770.72,570.218 L1770.5,570.218 L1770.5,572.198 L1784.36,572.198 L1784.36,570.218 L1784.14,570.218 C1780.51,570.108 1780.01,569.833 1780.01,567.798 L1780.01,557.623 C1780.01,552.728 1782.71,549.098 1786.28,549.098 C1789.42,549.098 1791.01,551.353 1791.01,555.808 L1791.01,568.073 C1790.96,568.788 1790.9,569.173 1790.63,569.448 C1790.3,569.943 1789.2,570.163 1786.83,570.218 L1786.61,570.218 L1786.61,572.198 L1800.53,572.198 L1800.53,570.218 L1800.31,570.218 C1796.68,570.108 1796.18,569.833 1796.18,567.853 L1796.18,558.118 C1796.18,552.618 1798.66,549.098 1802.51,549.098 C1805.64,549.098 1807.18,551.463 1807.18,556.413 L1807.18,568.018 C1807.13,568.788 1807.07,569.173 1806.8,569.448 C1806.47,569.943 1805.37,570.163 1803,570.218 L1802.78,570.218 L1802.78,572.198 L1816.7,572.198 L1816.7,570.218 L1816.48,570.218 C1812.85,570.108 1812.35,569.833 1812.35,567.798 L1812.35,555.313 C1812.35,551.903 1812.02,550.748 1810.59,548.878 C1809,546.843 1806.74,545.743 1804.1,545.743 C1800.53,545.743 1797.89,547.448 1795.52,551.243 C1794.59,547.943 1791.62,545.743 1787.93,545.743 C1784.58,545.743 1782.16,547.338 1780.01,550.803 L1780.01,546.568 "/>
<path class="Harmony" d="M2425.49,1002.92 L2423.18,1002.92 L2410.53,1034.98 C2409.04,1039.27 2407.61,1040.59 2404.48,1040.81 L2404.26,1040.81 L2404.26,1043.4 L2418.83,1043.4 L2418.83,1040.81 L2417.73,1040.81 C2414.76,1040.81 2413.28,1039.77 2413.28,1037.68 C2413.28,1036.96 2413.44,1036.3 2413.77,1035.37 L2415.59,1030.53 L2430.16,1030.53 L2433.13,1037.9 C2433.46,1038.78 2433.57,1039.11 2433.57,1039.38 C2433.57,1040.26 2432.2,1040.81 2430.16,1040.81 L2427.85,1040.81 L2427.85,1043.4 L2444.9,1043.4 L2444.9,1040.81 L2444.13,1040.81 C2441.27,1040.76 2440.78,1040.43 2439.51,1037.29 L2425.49,1002.92 M2422.79,1011.94 L2429.01,1027.56 L2416.69,1027.56 L2422.79,1011.94 "/>
<path class="Harmony" d="M2457.91,1017.77 L2448.12,1018.37 L2448.12,1020.74 L2450.37,1020.74 C2452.46,1020.79 2452.74,1021.12 2452.74,1023.49 L2452.74,1039.22 C2452.68,1040.04 2452.63,1040.37 2452.41,1040.65 C2452.02,1041.14 2450.98,1041.36 2448.61,1041.42 L2448.39,1041.42 L2448.39,1043.4 L2462.25,1043.4 L2462.25,1041.42 L2462.03,1041.42 C2458.4,1041.31 2457.91,1041.03 2457.91,1039 L2457.91,1028.82 C2457.91,1023.93 2460.6,1020.3 2464.18,1020.3 C2467.31,1020.3 2468.91,1022.55 2468.91,1027.01 L2468.91,1039.27 C2468.85,1039.99 2468.8,1040.37 2468.52,1040.65 C2468.19,1041.14 2467.09,1041.36 2464.73,1041.42 L2464.51,1041.42 L2464.51,1043.4 L2478.42,1043.4 L2478.42,1041.42 L2478.2,1041.42 C2474.57,1041.31 2474.08,1041.03 2474.08,1039.05 L2474.08,1029.32 C2474.08,1023.82 2476.55,1020.3 2480.4,1020.3 C2483.54,1020.3 2485.08,1022.66 2485.08,1027.61 L2485.08,1039.22 C2485.02,1039.99 2484.97,1040.37 2484.69,1040.65 C2484.36,1041.14 2483.26,1041.36 2480.9,1041.42 L2480.68,1041.42 L2480.68,1043.4 L2494.59,1043.4 L2494.59,1041.42 L2494.37,1041.42 C2490.74,1041.31 2490.25,1041.03 2490.25,1039 L2490.25,1026.51 C2490.25,1023.1 2489.92,1021.95 2488.49,1020.08 C2486.89,1018.04 2484.64,1016.94 2482,1016.94 C2478.42,1016.94 2475.78,1018.65 2473.42,1022.44 C2472.48,1019.14 2469.51,1016.94 2465.83,1016.94 C2462.47,1016.94 2460.05,1018.54 2457.91,1022 L2457.91,1017.77 "/>
<path class="Harmony" d="M1324.05,1003.69 L1291,1003.69 L1291,1006.27 L1291.99,1006.27 C1295.12,1006.33 1296.17,1006.49 1296.61,1007.04 C1296.94,1007.54 1296.94,1007.65 1296.94,1010.45 L1296.94,1036.63 C1296.94,1039.44 1296.94,1039.55 1296.61,1040.04 C1296.17,1040.59 1295.12,1040.81 1291.99,1040.81 L1291,1040.81 L1291,1043.4 L1324.77,1043.4 L1325.87,1028.71 L1323.45,1028.71 C1321.36,1038.5 1319.1,1040.59 1310.69,1040.81 L1307.06,1040.81 C1303.76,1040.7 1302.93,1040.15 1303.1,1038.17 L1303.1,1024.15 L1304.2,1024.15 C1309.86,1023.93 1311.9,1025.96 1312.12,1032.07 L1314.7,1032.07 L1314.7,1014.03 L1312.12,1014.03 C1311.79,1019.42 1309.64,1021.56 1304.42,1021.56 L1303.1,1021.56 L1303.1,1009.02 C1303.04,1006.71 1303.59,1006.33 1306.56,1006.27 L1309.42,1006.27 C1318.44,1006.22 1320.7,1008.2 1322.46,1017.71 L1324.82,1017.71 L1324.05,1003.69 "/>
<path class="Harmony" d="M1342.61,1017.77 L1332.82,1018.37 L1332.82,1020.74 L1335.08,1020.74 C1337.17,1020.79 1337.44,1021.12 1337.44,1023.49 L1337.44,1039.22 C1337.39,1040.04 1337.33,1040.37 1337.11,1040.65 C1336.73,1041.14 1335.68,1041.36 1333.32,1041.42 L1333.1,1041.42 L1333.1,1043.4 L1346.96,1043.4 L1346.96,1041.42 L1346.74,1041.42 C1343.11,1041.31 1342.61,1041.03 1342.61,1039 L1342.61,1028.82 C1342.61,1023.93 1345.31,1020.3 1348.88,1020.3 C1352.02,1020.3 1353.61,1022.55 1353.61,1027.01 L1353.61,1039.27 C1353.56,1039.99 1353.5,1040.37 1353.23,1040.65 C1352.9,1041.14 1351.8,1041.36 1349.43,1041.42 L1349.21,1041.42 L1349.21,1043.4 L1363.13,1043.4 L1363.13,1041.42 L1362.91,1041.42 C1359.28,1041.31 1358.78,1041.03 1358.78,1039.05 L1358.78,1029.32 C1358.78,1023.82 1361.26,1020.3 1365.11,1020.3 C1368.24,1020.3 1369.78,1022.66 1369.78,1027.61 L1369.78,1039.22 C1369.73,1039.99 1369.67,1040.37 1369.4,1040.65 C1369.07,1041.14 1367.97,1041.36 1365.6,1041.42 L1365.38,1041.42 L1365.38,1043.4 L1379.3,1043.4 L1379.3,1041.42 L1379.08,1041.42 C1375.45,1041.31 1374.95,1041.03 1374.95,1039 L1374.95,1026.51 C1374.95,1023.1 1374.62,1021.95 1373.19,1020.08 C1371.6,1018.04 1369.34,1016.94 1366.7,1016.94 C1363.13,1016.94 1360.49,1018.65 1358.12,1022.44 C1357.19,1019.14 1354.22,1016.94 1350.53,1016.94 C1347.18,1016.94 1344.76,1018.54 1342.61,1022 L1342.61,1017.77 "/>
<path class="Harmony" d="M1754.68,1003.69 L1721.62,1003.69 L1721.62,1006.27 L1722.61,1006.27 C1725.75,1006.33 1726.79,1006.49 1727.23,1007.04 C1727.56,1007.54 1727.56,1007.65 1727.56,1010.45 L1727.56,1036.63 C1727.56,1039.44 1727.56,1039.55 1727.23,1040.04 C1726.79,1040.59 1725.75,1040.81 1722.61,1040.81 L1721.62,1040.81 L1721.62,1043.4 L1755.39,1043.4 L1756.49,1028.71 L1754.07,1028.71 C1751.98,1038.5 1749.73,1040.59 1741.31,1040.81 L1737.68,1040.81 C1734.38,1040.7 1733.56,1040.15 1733.72,1038.17 L1733.72,1024.15 L1734.82,1024.15 C1740.49,1023.93 1742.52,1025.96 1742.74,1032.07 L1745.33,1032.07 L1745.33,1014.03 L1742.74,1014.03 C1742.41,1019.42 1740.27,1021.56 1735.04,1021.56 L1733.72,1021.56 L1733.72,1009.02 C1733.67,1006.71 1734.22,1006.33 1737.19,1006.27 L1740.05,1006.27 C1749.07,1006.22 1751.32,1008.2 1753.08,1017.71 L1755.45,1017.71 L1754.68,1003.69 "/>
<path class="Harmony" d="M1773.24,1017.77 L1763.45,1018.37 L1763.45,1020.74 L1765.7,1020.74 C1767.79,1020.79 1768.07,1021.12 1768.07,1023.49 L1768.07,1039.22 C1768.01,1040.04 1767.96,1040.37 1767.74,1040.65 C1767.35,1041.14 1766.31,1041.36 1763.94,1041.42 L1763.72,1041.42 L1763.72,1043.4 L1777.58,1043.4 L1777.58,1041.42 L1777.36,1041.42 C1773.73,1041.31 1773.24,1041.03 1773.24,1039 L1773.24,1028.82 C1773.24,1023.93 1775.93,1020.3 1779.51,1020.3 C1782.64,1020.3 1784.24,1022.55 1784.24,1027.01 L1784.24,1039.27 C1784.18,1039.99 1784.13,1040.37 1783.85,1040.65 C1783.52,1041.14 1782.42,1041.36 1780.06,1041.42 L1779.84,1041.42 L1779.84,1043.4 L1793.75,1043.4 L1793.75,1041.42 L1793.53,1041.42 C1789.9,1041.31 1789.41,1041.03 1789.41,1039.05 L1789.41,1029.32 C1789.41,1023.82 1791.88,1020.3 1795.73,1020.3 C1798.87,1020.3 1800.41,1022.66 1800.41,1027.61 L1800.41,1039.22 C1800.35,1039.99 1800.3,1040.37 1800.02,1040.65 C1799.69,1041.14 1798.59,1041.36 1796.23,1041.42 L1796.01,1041.42 L1796.01,1043.4 L1809.92,1043.4 L1809.92,1041.42 L1809.7,1041.42 C1806.07,1041.31 1805.58,1041.03 1805.58,1039 L1805.58,1026.51 C1805.58,1023.1 1805.25,1021.95 1803.82,1020.08 C1802.22,1018.04 1799.97,1016.94 1797.33,1016.94 C1793.75,1016.94 1791.11,1018.65 1788.75,1022.44 C1787.81,1019.14 1784.84,1016.94 1781.16,1016.94 C1777.8,1016.94 1775.38,1018.54 1773.24,1022 L1773.24,1017.77 "/>
<path class="Harmony" d="M1528.15,532.488 L1495.09,532.488 L1495.09,535.073 L1496.08,535.073 C1499.22,535.128 1500.26,535.293 1500.7,535.843 C1501.03,536.338 1501.03,536.448 1501.03,539.253 L1501.03,565.433 C1501.03,568.238 1501.03,568.348 1500.7,568.843 C1500.26,569.393 1499.22,569.613 1496.08,569.613 L1495.09,569.613 L1495.09,572.198 L1528.86,572.198 L1529.96,557.513 L1527.54,557.513 C1525.45,567.303 1523.2,569.393 1514.78,569.613 L1511.15,569.613 C1507.85,569.503 1507.03,568.953 1507.19,566.973 L1507.19,552.948 L1508.29,552.948 C1513.96,552.728 1515.99,554.763 1516.21,560.868 L1518.8,560.868 L1518.8,542.828 L1516.21,542.828 C1515.88,548.218 1513.74,550.363 1508.51,550.363 L1507.19,550.363 L1507.19,537.823 C1507.14,535.513 1507.69,535.128 1510.66,535.073 L1513.52,535.073 C1522.54,535.018 1524.79,536.998 1526.55,546.513 L1528.92,546.513 L1528.15,532.488 "/>
<path class="Harmony" d="M1546.71,546.568 L1536.92,547.173 L1536.92,549.538 L1539.17,549.538 C1541.26,549.593 1541.54,549.923 1541.54,552.288 L1541.54,568.018 C1541.48,568.843 1541.43,569.173 1541.21,569.448 C1540.82,569.943 1539.78,570.163 1537.41,570.218 L1537.19,570.218 L1537.19,572.198 L1551.05,572.198 L1551.05,570.218 L1550.83,570.218 C1547.2,570.108 1546.71,569.833 1546.71,567.798 L1546.71,557.623 C1546.71,552.728 1549.4,549.098 1552.98,549.098 C1556.11,549.098 1557.71,551.353 1557.71,555.808 L1557.71,568.073 C1557.65,568.788 1557.6,569.173 1557.32,569.448 C1556.99,569.943 1555.89,570.163 1553.53,570.218 L1553.31,570.218 L1553.31,572.198 L1567.22,572.198 L1567.22,570.218 L1567,570.218 C1563.37,570.108 1562.88,569.833 1562.88,567.853 L1562.88,558.118 C1562.88,552.618 1565.35,549.098 1569.2,549.098 C1572.34,549.098 1573.88,551.463 1573.88,556.413 L1573.88,568.018 C1573.82,568.788 1573.77,569.173 1573.49,569.448 C1573.16,569.943 1572.06,570.163 1569.7,570.218 L1569.48,570.218 L1569.48,572.198 L1583.39,572.198 L1583.39,570.218 L1583.17,570.218 C1579.54,570.108 1579.05,569.833 1579.05,567.798 L1579.05,555.313 C1579.05,551.903 1578.72,550.748 1577.29,548.878 C1575.69,546.843 1573.44,545.743 1570.8,545.743 C1567.22,545.743 1564.58,547.448 1562.22,551.243 C1561.28,547.943 1558.31,545.743 1554.63,545.743 C1551.27,545.743 1548.85,547.338 1546.71,550.803 L1546.71,546.568 "/>
<path class="Harmony" d="M417.873,531.718 L415.563,531.718 L402.913,563.783 C401.428,568.073 399.998,569.393 396.863,569.613 L396.643,569.613 L396.643,572.198 L411.218,572.198 L411.218,569.613 L410.118,569.613 C407.148,569.613 405.663,568.568 405.663,566.478 C405.663,565.763 405.828,565.103 406.158,564.168 L407.973,559.328 L422.548,559.328 L425.518,566.698 C425.848,567.578 425.958,567.908 425.958,568.183 C425.958,569.063 424.583,569.613 422.548,569.613 L420.238,569.613 L420.238,572.198 L437.288,572.198 L437.288,569.613 L436.518,569.613 C433.658,569.558 433.163,569.228 431.898,566.093 L417.873,531.718 M415.178,540.738 L421.393,556.358 L409.073,556.358 L415.178,540.738 "/>
<path class="Harmony" d="M450.294,546.568 L440.504,547.173 L440.504,549.538 L442.759,549.538 C444.849,549.593 445.124,549.923 445.124,552.288 L445.124,568.018 C445.069,568.843 445.014,569.173 444.794,569.448 C444.409,569.943 443.364,570.163 440.999,570.218 L440.779,570.218 L440.779,572.198 L454.639,572.198 L454.639,570.218 L454.419,570.218 C450.789,570.108 450.294,569.833 450.294,567.798 L450.294,557.623 C450.294,552.728 452.989,549.098 456.564,549.098 C459.699,549.098 461.294,551.353 461.294,555.808 L461.294,568.073 C461.239,568.788 461.184,569.173 460.909,569.448 C460.579,569.943 459.479,570.163 457.114,570.218 L456.894,570.218 L456.894,572.198 L470.809,572.198 L470.809,570.218 L470.589,570.218 C466.959,570.108 466.464,569.833 466.464,567.853 L466.464,558.118 C466.464,552.618 468.939,549.098 472.789,549.098 C475.924,549.098 477.464,551.463 477.464,556.413 L477.464,568.018 C477.409,568.788 477.354,569.173 477.079,569.448 C476.749,569.943 475.649,570.163 473.284,570.218 L473.064,570.218 L473.064,572.198 L486.979,572.198 L486.979,570.218 L486.759,570.218 C483.129,570.108 482.634,569.833 482.634,567.798 L482.634,555.313 C482.634,551.903 482.304,550.748 480.874,548.878 C479.279,546.843 477.024,545.743 474.384,545.743 C470.809,545.743 468.169,547.448 465.804,551.243 C464.869,547.943 461.899,545.743 458.214,545.743 C454.859,545.743 452.439,547.338 450.294,550.803 L450.294,546.568 "/>
<path class="Harmony" d="M598.789,531.718 L596.479,531.718 L583.829,563.783 C582.344,568.073 580.914,569.393 577.779,569.613 L577.559,569.613 L577.559,572.198 L592.134,572.198 L592.134,569.613 L591.034,569.613 C588.064,569.613 586.579,568.568 586.579,566.478 C586.579,565.763 586.744,565.103 587.074,564.168 L588.889,559.328 L603.464,559.328 L606.434,566.698 C606.764,567.578 606.874,567.908 606.874,568.183 C606.874,569.063 605.499,569.613 603.464,569.613 L601.154,569.613 L601.154,572.198 L618.204,572.198 L618.204,569.613 L617.434,569.613 C614.574,569.558 614.079,569.228 612.814,566.093 L598.789,531.718 M596.094,540.738 L602.309,556.358 L589.989,556.358 L596.094,540.738 "/>
<path class="Harmony" d="M631.211,546.568 L621.421,547.173 L621.421,549.538 L623.676,549.538 C625.766,549.593 626.041,549.923 626.041,552.288 L626.041,568.018 C625.986,568.843 625.931,569.173 625.711,569.448 C625.326,569.943 624.281,570.163 621.916,570.218 L621.696,570.218 L621.696,572.198 L635.556,572.198 L635.556,570.218 L635.336,570.218 C631.706,570.108 631.211,569.833 631.211,567.798 L631.211,557.623 C631.211,552.728 633.906,549.098 637.481,549.098 C640.616,549.098 642.211,551.353 642.211,555.808 L642.211,568.073 C642.156,568.788 642.101,569.173 641.826,569.448 C641.496,569.943 640.396,570.163 638.031,570.218 L637.811,570.218 L637.811,572.198 L651.726,572.198 L651.726,570.218 L651.506,570.218 C647.876,570.108 647.381,569.833 647.381,567.853 L647.381,558.118 C647.381,552.618 649.856,549.098 653.706,549.098 C656.841,549.098 658.381,551.463 658.381,556.413 L658.381,568.018 C658.326,568.788 658.271,569.173 657.996,569.448 C657.666,569.943 656.566,570.163 654.201,570.218 L653.981,570.218 L653.981,572.198 L667.896,572.198 L667.896,570.218 L667.676,570.218 C664.046,570.108 663.551,569.833 663.551,567.798 L663.551,555.313 C663.551,551.903 663.221,550.748 661.791,548.878 C660.196,546.843 657.941,545.743 655.301,545.743 C651.726,545.743 649.086,547.448 646.721,551.243 C645.786,547.943 642.816,545.743 639.131,545.743 C635.776,545.743 633.356,547.338 631.211,550.803 L631.211,546.568 "/>
<path class="Harmony" d="M1283.02,531.718 L1280.71,531.718 L1268.06,563.783 C1266.57,568.073 1265.14,569.393 1262.01,569.613 L1261.79,569.613 L1261.79,572.198 L1276.36,572.198 L1276.36,569.613 L1275.26,569.613 C1272.29,569.613 1270.81,568.568 1270.81,566.478 C1270.81,565.763 1270.97,565.103 1271.3,564.168 L1273.12,559.328 L1287.69,559.328 L1290.66,566.698 C1290.99,567.578 1291.1,567.908 1291.1,568.183 C1291.1,569.063 1289.73,569.613 1287.69,569.613 L1285.38,569.613 L1285.38,572.198 L1302.43,572.198 L1302.43,569.613 L1301.66,569.613 C1298.8,569.558 1298.31,569.228 1297.04,566.093 L1283.02,531.718 M1280.32,540.738 L1286.54,556.358 L1274.22,556.358 L1280.32,540.738 "/>
<path class="Harmony" d="M1315.44,546.568 L1305.65,547.173 L1305.65,549.538 L1307.9,549.538 C1309.99,549.593 1310.27,549.923 1310.27,552.288 L1310.27,568.018 C1310.21,568.843 1310.16,569.173 1309.94,569.448 C1309.55,569.943 1308.51,570.163 1306.14,570.218 L1305.92,570.218 L1305.92,572.198 L1319.78,572.198 L1319.78,570.218 L1319.56,570.218 C1315.93,570.108 1315.44,569.833 1315.44,567.798 L1315.44,557.623 C1315.44,552.728 1318.13,549.098 1321.71,549.098 C1324.84,549.098 1326.44,551.353 1326.44,555.808 L1326.44,568.073 C1326.38,568.788 1326.33,569.173 1326.05,569.448 C1325.72,569.943 1324.62,570.163 1322.26,570.218 L1322.04,570.218 L1322.04,572.198 L1335.95,572.198 L1335.95,570.218 L1335.73,570.218 C1332.1,570.108 1331.61,569.833 1331.61,567.853 L1331.61,558.118 C1331.61,552.618 1334.08,549.098 1337.93,549.098 C1341.07,549.098 1342.61,551.463 1342.61,556.413 L1342.61,568.018 C1342.55,568.788 1342.5,569.173 1342.22,569.448 C1341.89,569.943 1340.79,570.163 1338.43,570.218 L1338.21,570.218 L1338.21,572.198 L1352.12,572.198 L1352.12,570.218 L1351.9,570.218 C1348.27,570.108 1347.78,569.833 1347.78,567.798 L1347.78,555.313 C1347.78,551.903 1347.45,550.748 1346.02,548.878 C1344.42,546.843 1342.17,545.743 1339.53,545.743 C1335.95,545.743 1333.31,547.448 1330.95,551.243 C1330.01,547.943 1327.04,545.743 1323.36,545.743 C1320,545.743 1317.58,547.338 1315.44,550.803 L1315.44,546.568 "/>
<path class="Harmony" d="M379.138,1002.92 L376.828,1002.92 L364.178,1034.98 C362.693,1039.27 361.263,1040.59 358.128,1040.81 L357.908,1040.81 L357.908,1043.4 L372.483,1043.4 L372.483,1040.81 L371.383,1040.81 C368.413,1040.81 366.928,1039.77 366.928,1037.68 C366.928,1036.96 367.093,1036.3 367.423,1035.37 L369.238,1030.53 L383.813,1030.53 L386.783,1037.9 C387.113,1038.78 387.223,1039.11 387.223,1039.38 C387.223,1040.26 385.848,1040.81 383.813,1040.81 L381.503,1040.81 L381.503,1043.4 L398.553,1043.4 L398.553,1040.81 L397.783,1040.81 C394.923,1040.76 394.428,1040.43 393.163,1037.29 L379.138,1002.92 M376.443,1011.94 L382.658,1027.56 L370.338,1027.56 L376.443,1011.94 "/>
<path class="Harmony" d="M411.56,1017.77 L401.77,1018.37 L401.77,1020.74 L404.025,1020.74 C406.115,1020.79 406.39,1021.12 406.39,1023.49 L406.39,1039.22 C406.335,1040.04 406.28,1040.37 406.06,1040.65 C405.675,1041.14 404.63,1041.36 402.265,1041.42 L402.045,1041.42 L402.045,1043.4 L415.905,1043.4 L415.905,1041.42 L415.685,1041.42 C412.055,1041.31 411.56,1041.03 411.56,1039 L411.56,1028.82 C411.56,1023.93 414.255,1020.3 417.83,1020.3 C420.965,1020.3 422.56,1022.55 422.56,1027.01 L422.56,1039.27 C422.505,1039.99 422.45,1040.37 422.175,1040.65 C421.845,1041.14 420.745,1041.36 418.38,1041.42 L418.16,1041.42 L418.16,1043.4 L432.075,1043.4 L432.075,1041.42 L431.855,1041.42 C428.225,1041.31 427.73,1041.03 427.73,1039.05 L427.73,1029.32 C427.73,1023.82 430.205,1020.3 434.055,1020.3 C437.19,1020.3 438.73,1022.66 438.73,1027.61 L438.73,1039.22 C438.675,1039.99 438.62,1040.37 438.345,1040.65 C438.015,1041.14 436.915,1041.36 434.55,1041.42 L434.33,1041.42 L434.33,1043.4 L448.245,1043.4 L448.245,1041.42 L448.025,1041.42 C444.395,1041.31 443.9,1041.03 443.9,1039 L443.9,1026.51 C443.9,1023.1 443.57,1021.95 442.14,1020.08 C440.545,1018.04 438.29,1016.94 435.65,1016.94 C432.075,1016.94 429.435,1018.65 427.07,1022.44 C426.135,1019.14 423.165,1016.94 419.48,1016.94 C416.125,1016.94 413.705,1018.54 411.56,1022 L411.56,1017.77 "/>
<path class="Harmony" d="M2222,1003.69 L2188.95,1003.69 L2188.95,1006.27 L2189.94,1006.27 C2193.07,1006.33 2194.12,1006.49 2194.56,1007.04 C2194.89,1007.54 2194.89,1007.65 2194.89,1010.45 L2194.89,1036.63 C2194.89,1039.44 2194.89,1039.55 2194.56,1040.04 C2194.12,1040.59 2193.07,1040.81 2189.94,1040.81 L2188.95,1040.81 L2188.95,1043.4 L2222.72,1043.4 L2223.82,1028.71 L2221.4,1028.71 C2219.31,1038.5 2217.05,1040.59 2208.64,1040.81 L2205.01,1040.81 C2201.71,1040.7 2200.88,1040.15 2201.05,1038.17 L2201.05,1024.15 L2202.15,1024.15 C2207.81,1023.93 2209.85,1025.96 2210.07,1032.07 L2212.65,1032.07 L2212.65,1014.03 L2210.07,1014.03 C2209.74,1019.42 2207.59,1021.56 2202.37,1021.56 L2201.05,1021.56 L2201.05,1009.02 C2200.99,1006.71 2201.54,1006.33 2204.51,1006.27 L2207.37,1006.27 C2216.39,1006.22 2218.65,1008.2 2220.41,1017.71 L2222.77,1017.71 L2222,1003.69 "/>
<path class="Harmony" d="M2240.57,1017.77 L2230.78,1018.37 L2230.78,1020.74 L2233.03,1020.74 C2235.12,1020.79 2235.4,1021.12 2235.4,1023.49 L2235.4,1039.22 C2235.34,1040.04 2235.29,1040.37 2235.07,1040.65 C2234.68,1041.14 2233.64,1041.36 2231.27,1041.42 L2231.05,1041.42 L2231.05,1043.4 L2244.91,1043.4 L2244.91,1041.42 L2244.69,1041.42 C2241.06,1041.31 2240.57,1041.03 2240.57,1039 L2240.57,1028.82 C2240.57,1023.93 2243.26,1020.3 2246.84,1020.3 C2249.97,1020.3 2251.57,1022.55 2251.57,1027.01 L2251.57,1039.27 C2251.51,1039.99 2251.46,1040.37 2251.18,1040.65 C2250.85,1041.14 2249.75,1041.36 2247.39,1041.42 L2247.17,1041.42 L2247.17,1043.4 L2261.08,1043.4 L2261.08,1041.42 L2260.86,1041.42 C2257.23,1041.31 2256.74,1041.03 2256.74,1039.05 L2256.74,1029.32 C2256.74,1023.82 2259.21,1020.3 2263.06,1020.3 C2266.2,1020.3 2267.74,1022.66 2267.74,1027.61 L2267.74,1039.22 C2267.68,1039.99 2267.63,1040.37 2267.35,1040.65 C2267.02,1041.14 2265.92,1041.36 2263.56,1041.42 L2263.34,1041.42 L2263.34,1043.4 L2277.25,1043.4 L2277.25,1041.42 L2277.03,1041.42 C2273.4,1041.31 2272.91,1041.03 2272.91,1039 L2272.91,1026.51 C2272.91,1023.1 2272.58,1021.95 2271.15,1020.08 C2269.55,1018.04 2267.3,1016.94 2264.66,1016.94 C2261.08,1016.94 2258.44,1018.65 2256.08,1022.44 C2255.14,1019.14 2252.17,1016.94 2248.49,1016.94 C2245.13,1016.94 2242.71,1018.54 2240.57,1022 L2240.57,1017.77 "/>
<path class="Harmony" d="M2612.28,532.488 L2579.22,532.488 L2579.22,535.073 L2580.21,535.073 C2583.35,535.128 2584.39,535.293 2584.83,535.843 C2585.16,536.338 2585.16,536.448 2585.16,539.253 L2585.16,565.433 C2585.16,568.238 2585.16,568.348 2584.83,568.843 C2584.39,569.393 2583.35,569.613 2580.21,569.613 L2579.22,569.613 L2579.22,572.198 L2612.99,572.198 L2614.09,557.513 L2611.67,557.513 C2609.58,567.303 2607.33,569.393 2598.91,569.613 L2595.28,569.613 C2591.98,569.503 2591.16,568.953 2591.32,566.973 L2591.32,552.948 L2592.42,552.948 C2598.09,552.728 2600.12,554.763 2600.34,560.868 L2602.93,560.868 L2602.93,542.828 L2600.34,542.828 C2600.01,548.218 2597.87,550.363 2592.64,550.363 L2591.32,550.363 L2591.32,537.823 C2591.27,535.513 2591.82,535.128 2594.79,535.073 L2597.65,535.073 C2606.67,535.018 2608.92,536.998 2610.68,546.513 L2613.05,546.513 L2612.28,532.488 "/>
<path class="Harmony" d="M2630.84,546.568 L2621.05,547.173 L2621.05,549.538 L2623.3,549.538 C2625.39,549.593 2625.67,549.923 2625.67,552.288 L2625.67,568.018 C2625.61,568.843 2625.56,569.173 2625.34,569.448 C2624.95,569.943 2623.91,570.163 2621.54,570.218 L2621.32,570.218 L2621.32,572.198 L2635.18,572.198 L2635.18,570.218 L2634.96,570.218 C2631.33,570.108 2630.84,569.833 2630.84,567.798 L2630.84,557.623 C2630.84,552.728 2633.53,549.098 2637.11,549.098 C2640.24,549.098 2641.84,551.353 2641.84,555.808 L2641.84,568.073 C2641.78,568.788 2641.73,569.173 2641.45,569.448 C2641.12,569.943 2640.02,570.163 2637.66,570.218 L2637.44,570.218 L2637.44,572.198 L2651.35,572.198 L2651.35,570.218 L2651.13,570.218 C2647.5,570.108 2647.01,569.833 2647.01,567.853 L2647.01,558.118 C2647.01,552.618 2649.48,549.098 2653.33,549.098 C2656.47,549.098 2658.01,551.463 2658.01,556.413 L2658.01,568.018 C2657.95,568.788 2657.9,569.173 2657.62,569.448 C2657.29,569.943 2656.19,570.163 2653.83,570.218 L2653.61,570.218 L2653.61,572.198 L2667.52,572.198 L2667.52,570.218 L2667.3,570.218 C2663.67,570.108 2663.18,569.833 2663.18,567.798 L2663.18,555.313 C2663.18,551.903 2662.85,550.748 2661.42,548.878 C2659.82,546.843 2657.57,545.743 2654.93,545.743 C2651.35,545.743 2648.71,547.448 2646.35,551.243 C2645.41,547.943 2642.44,545.743 2638.76,545.743 C2635.4,545.743 2632.98,547.338 2630.84,550.803 L2630.84,546.568 "/>
<path class="Harmony" d="M1096.91,1002.92 L1094.6,1002.92 L1081.95,1034.98 C1080.47,1039.27 1079.04,1040.59 1075.9,1040.81 L1075.68,1040.81 L1075.68,1043.4 L1090.26,1043.4 L1090.26,1040.81 L1089.16,1040.81 C1086.19,1040.81 1084.7,1039.77 1084.7,1037.68 C1084.7,1036.96 1084.87,1036.3 1085.2,1035.37 L1087.01,1030.53 L1101.59,1030.53 L1104.56,1037.9 C1104.89,1038.78 1105,1039.11 1105,1039.38 C1105,1040.26 1103.62,1040.81 1101.59,1040.81 L1099.28,1040.81 L1099.28,1043.4 L1116.33,1043.4 L1116.33,1040.81 L1115.56,1040.81 C1112.7,1040.76 1112.2,1040.43 1110.94,1037.29 L1096.91,1002.92 M1094.22,1011.94 L1100.43,1027.56 L1088.11,1027.56 L1094.22,1011.94 "/>
<path class="Harmony" d="M1129.33,1017.77 L1119.54,1018.37 L1119.54,1020.74 L1121.8,1020.74 C1123.89,1020.79 1124.16,1021.12 1124.16,1023.49 L1124.16,1039.22 C1124.11,1040.04 1124.05,1040.37 1123.83,1040.65 C1123.45,1041.14 1122.4,1041.36 1120.04,1041.42 L1119.82,1041.42 L1119.82,1043.4 L1133.68,1043.4 L1133.68,1041.42 L1133.46,1041.42 C1129.83,1041.31 1129.33,1041.03 1129.33,1039 L1129.33,1028.82 C1129.33,1023.93 1132.03,1020.3 1135.6,1020.3 C1138.74,1020.3 1140.33,1022.55 1140.33,1027.01 L1140.33,1039.27 C1140.28,1039.99 1140.22,1040.37 1139.95,1040.65 C1139.62,1041.14 1138.52,1041.36 1136.15,1041.42 L1135.93,1041.42 L1135.93,1043.4 L1149.85,1043.4 L1149.85,1041.42 L1149.63,1041.42 C1146,1041.31 1145.5,1041.03 1145.5,1039.05 L1145.5,1029.32 C1145.5,1023.82 1147.98,1020.3 1151.83,1020.3 C1154.96,1020.3 1156.5,1022.66 1156.5,1027.61 L1156.5,1039.22 C1156.45,1039.99 1156.39,1040.37 1156.12,1040.65 C1155.79,1041.14 1154.69,1041.36 1152.32,1041.42 L1152.1,1041.42 L1152.1,1043.4 L1166.02,1043.4 L1166.02,1041.42 L1165.8,1041.42 C1162.17,1041.31 1161.67,1041.03 1161.67,1039 L1161.67,1026.51 C1161.67,1023.1 1161.34,1021.95 1159.91,1020.08 C1158.32,1018.04 1156.06,1016.94 1153.42,1016.94 C1149.85,1016.94 1147.21,1018.65 1144.84,1022.44 C1143.91,1019.14 1140.94,1016.94 1137.25,1016.94 C1133.9,1016.94 1131.48,1018.54 1129.33,1022 L1129.33,1017.77 "/>
<path class="Harmony" d="M2006.69,1003.69 L1973.64,1003.69 L1973.64,1006.27 L1974.63,1006.27 C1977.76,1006.33 1978.81,1006.49 1979.25,1007.04 C1979.58,1007.54 1979.58,1007.65 1979.58,1010.45 L1979.58,1036.63 C1979.58,1039.44 1979.58,1039.55 1979.25,1040.04 C1978.81,1040.59 1977.76,1040.81 1974.63,1040.81 L1973.64,1040.81 L1973.64,1043.4 L2007.41,1043.4 L2008.51,1028.71 L2006.09,1028.71 C2004,1038.5 2001.74,1040.59 1993.33,1040.81 L1989.7,1040.81 C1986.4,1040.7 1985.57,1040.15 1985.74,1038.17 L1985.74,1024.15 L1986.84,1024.15 C1992.5,1023.93 1994.54,1025.96 1994.76,1032.07 L1997.34,1032.07 L1997.34,1014.03 L1994.76,1014.03 C1994.43,1019.42 1992.28,1021.56 1987.06,1021.56 L1985.74,1021.56 L1985.74,1009.02 C1985.68,1006.71 1986.23,1006.33 1989.2,1006.27 L1992.06,1006.27 C2001.08,1006.22 2003.34,1008.2 2005.1,1017.71 L2007.46,1017.71 L2006.69,1003.69 "/>
<path class="Harmony" d="M2025.25,1017.77 L2015.46,1018.37 L2015.46,1020.74 L2017.72,1020.74 C2019.81,1020.79 2020.08,1021.12 2020.08,1023.49 L2020.08,1039.22 C2020.03,1040.04 2019.97,1040.37 2019.75,1040.65 C2019.37,1041.14 2018.32,1041.36 2015.96,1041.42 L2015.74,1041.42 L2015.74,1043.4 L2029.6,1043.4 L2029.6,1041.42 L2029.38,1041.42 C2025.75,1041.31 2025.25,1041.03 2025.25,1039 L2025.25,1028.82 C2025.25,1023.93 2027.95,1020.3 2031.52,1020.3 C2034.66,1020.3 2036.25,1022.55 2036.25,1027.01 L2036.25,1039.27 C2036.2,1039.99 2036.14,1040.37 2035.87,1040.65 C2035.54,1041.14 2034.44,1041.36 2032.07,1041.42 L2031.85,1041.42 L2031.85,1043.4 L2045.77,1043.4 L2045.77,1041.42 L2045.55,1041.42 C2041.92,1041.31 2041.42,1041.03 2041.42,1039.05 L2041.42,1029.32 C2041.42,1023.82 2043.9,1020.3 2047.75,1020.3 C2050.88,1020.3 2052.42,1022.66 2052.42,1027.61 L2052.42,1039.22 C2052.37,1039.99 2052.31,1040.37 2052.04,1040.65 C2051.71,1041.14 2050.61,1041.36 2048.24,1041.42 L2048.02,1041.42 L2048.02,1043.4 L2061.94,1043.4 L2061.94,1041.42 L2061.72,1041.42 C2058.09,1041.31 2057.59,1041.03 2057.59,1039 L2057.59,1026.51 C2057.59,1023.1 2057.26,1021.95 2055.83,1020.08 C2054.24,1018.04 2051.98,1016.94 2049.34,1016.94 C2045.77,1016.94 2043.13,1018.65 2040.76,1022.44 C2039.83,1019.14 2036.86,1016.94 2033.17,1016.94 C2029.82,1016.94 2027.4,1018.54 2025.25,1022 L2025.25,1017.77 "/>
<path class="Harmony" d="M606.279,1003.69 L573.224,1003.69 L573.224,1006.27 L574.214,1006.27 C577.349,1006.33 578.394,1006.49 578.834,1007.04 C579.164,1007.54 579.164,1007.65 579.164,1010.45 L579.164,1036.63 C579.164,1039.44 579.164,1039.55 578.834,1040.04 C578.394,1040.59 577.349,1040.81 574.214,1040.81 L573.224,1040.81 L573.224,1043.4 L606.994,1043.4 L608.094,1028.71 L605.674,1028.71 C603.584,1038.5 601.329,1040.59 592.914,1040.81 L589.284,1040.81 C585.984,1040.7 585.159,1040.15 585.324,1038.17 L585.324,1024.15 L586.424,1024.15 C592.089,1023.93 594.124,1025.96 594.344,1032.07 L596.929,1032.07 L596.929,1014.03 L594.344,1014.03 C594.014,1019.42 591.869,1021.56 586.644,1021.56 L585.324,1021.56 L585.324,1009.02 C585.269,1006.71 585.819,1006.33 588.789,1006.27 L591.649,1006.27 C600.669,1006.22 602.924,1008.2 604.684,1017.71 L607.049,1017.71 L606.279,1003.69 "/>
<path class="Harmony" d="M624.84,1017.77 L615.05,1018.37 L615.05,1020.74 L617.305,1020.74 C619.395,1020.79 619.67,1021.12 619.67,1023.49 L619.67,1039.22 C619.615,1040.04 619.56,1040.37 619.34,1040.65 C618.955,1041.14 617.91,1041.36 615.545,1041.42 L615.325,1041.42 L615.325,1043.4 L629.185,1043.4 L629.185,1041.42 L628.965,1041.42 C625.335,1041.31 624.84,1041.03 624.84,1039 L624.84,1028.82 C624.84,1023.93 627.535,1020.3 631.11,1020.3 C634.245,1020.3 635.84,1022.55 635.84,1027.01 L635.84,1039.27 C635.785,1039.99 635.73,1040.37 635.455,1040.65 C635.125,1041.14 634.025,1041.36 631.66,1041.42 L631.44,1041.42 L631.44,1043.4 L645.355,1043.4 L645.355,1041.42 L645.135,1041.42 C641.505,1041.31 641.01,1041.03 641.01,1039.05 L641.01,1029.32 C641.01,1023.82 643.485,1020.3 647.335,1020.3 C650.47,1020.3 652.01,1022.66 652.01,1027.61 L652.01,1039.22 C651.955,1039.99 651.9,1040.37 651.625,1040.65 C651.295,1041.14 650.195,1041.36 647.83,1041.42 L647.61,1041.42 L647.61,1043.4 L661.525,1043.4 L661.525,1041.42 L661.305,1041.42 C657.675,1041.31 657.18,1041.03 657.18,1039 L657.18,1026.51 C657.18,1023.1 656.85,1021.95 655.42,1020.08 C653.825,1018.04 651.57,1016.94 648.93,1016.94 C645.355,1016.94 642.715,1018.65 640.35,1022.44 C639.415,1019.14 636.445,1016.94 632.76,1016.94 C629.405,1016.94 626.985,1018.54 624.84,1022 L624.84,1017.77 "/>
<path class="NoteDot" transform="matrix(0.992,0,0,0.992,2018.26,1167.4)" d="M0,0 C0,2.8 2.2,5 5,5 C7.8,5 10,2.8 10,0 C10,-2.8 7.8,-5 5,-5 C2.2,-5 0,-2.8 0,0"/>
<path class="NoteDot" transform="matrix(0.992,0,0,0.992,855.489,696.198)" d="M0,0 C0,2.8 2.2,5 5,5 C7.8,5 10,2.8 10,0 C10,-2.8 7.8,-5 5,-5 C2.2,-5 0,-2.8 0,0"/>
<path class="NoteDot" transform="matrix(0.992,0,0,0.992,2233.57,1167.4)" d="M0,0 C0,2.8 2.2,5 5,5 C7.8,5 10,2.8 10,0 C10,-2.8 7.8,-5 5,-5 C2.2,-5 0,-2.8 0,0"/>
<path class="NoteDot" transform="matrix(0.992,0,0,0.992,617.847,1192.2)" d="M0,0 C0,2.8 2.2,5 5,5 C7.8,5 10,2.8 10,0 C10,-2.8 7.8,-5 5,-5 C2.2,-5 0,-2.8 0,0"/>
<path class="NoteDot" transform="matrix(0.992,0,0,0.992,1306.41,696.198)" d="M0,0 C0,2.8 2.2,5 5,5 C7.8,5 10,2.8 10,0 C10,-2.8 7.8,-5 5,-5 C2.2,-5 0,-2.8 0,0"/>
<path class="NoteDot" transform="matrix(0.992,0,0,0.992,1539.71,720.998)" d="M0,0 C0,2.8 2.2,5 5,5 C7.8,5 10,2.8 10,0 C10,-2.8 7.8,-5 5,-5 C2.2,-5 0,-2.8 0,0"/>
<path class="NoteDot" transform="matrix(0.992,0,0,0.992,1120.31,1167.4)" d="M0,0 C0,2.8 2.2,5 5,5 C7.8,5 10,2.8 10,0 C10,-2.8 7.8,-5 5,-5 C2.2,-5 0,-2.8 0,0"/>
<path class="NoteDot" transform="matrix(0.992,0,0,0.992,622.186,696.198)" d="M0,0 C0,2.8 2.2,5 5,5 C7.8,5 10,2.8 10,0 C10,-2.8 7.8,-5 5,-5 C2.2,-5 0,-2.8 0,0"/>
<path class="NoteDot" transform="matrix(0.992,0,0,0.992,1335.62,1167.4)" d="M0,0 C0,2.8 2.2,5 5,5 C7.8,5 10,2.8 10,0 C10,-2.8 7.8,-5 5,-5 C2.2,-5 0,-2.8 0,0"/>
<path class="NoteDot" transform="matrix(0.992,0,0,0.992,1766.24,1167.4)" d="M0,0 C0,2.8 2.2,5 5,5 C7.8,5 10,2.8 10,0 C10,-2.8 7.8,-5 5,-5 C2.2,-5 0,-2.8 0,0"/>
<path class="NoteDot" transform="matrix(0.992,0,0,0.992,402.535,1167.4)" d="M0,0 C0,2.8 2.2,5 5,5 C7.8,5 10,2.8 10,0 C10,-2.8 7.8,-5 5,-5 C2.2,-5 0,-2.8 0,0"/>
<path class="NoteDot" transform="matrix(0.992,0,0,0.992,1550.93,1167.4)" d="M0,0 C0,2.8 2.2,5 5,5 C7.8,5 10,2.8 10,0 C10,-2.8 7.8,-5 5,-5 C2.2,-5 0,-2.8 0,0"/>
</svg>
