<?xml version="1.0" encoding="UTF-8" standalone="no"?>
<svg width="2977.2px" height="4208.4px" viewBox="0 0 2977.2 4208.4"
 xmlns="http://www.w3.org/2000/svg" xmlns:xlink="http://www.w3.org/1999/xlink" version="1.2" baseProfile="tiny">
<title>そりすべり</title>
<desc>Generated by MuseScore Studio 4.4.3</desc>
<path class="" fill="#ffffff" fill-rule="evenodd" d="M0,0 L2977.2,0 L2977.2,4208.4 L0,4208.4 L0,0 "/>
<polyline class="StaffLines" fill="none" stroke="#000000" stroke-width="2.73" stroke-linejoin="bevel" points="212.598,634.198 2764.6,634.198"/>
<polyline class="StaffLines" fill="none" stroke="#000000" stroke-width="2.73" stroke-linejoin="bevel" points="212.598,658.998 2764.6,658.998"/>
<polyline class="StaffLines" fill="none" stroke="#000000" stroke-width="2.73" stroke-linejoin="bevel" points="212.598,683.798 2764.6,683.798"/>
<polyline class="StaffLines" fill="none" stroke="#000000" stroke-width="2.73" stroke-linejoin="bevel" points="212.598,708.598 2764.6,708.598"/>
<polyline class="StaffLines" fill="none" stroke="#000000" stroke-width="2.73" stroke-linejoin="bevel" points="212.598,733.398 2764.6,733.398"/>
<polyline class="StaffLines" fill="none" stroke="#000000" stroke-width="2.73" stroke-linejoin="bevel" points="212.598,1316.2 2764.6,1316.2"/>
<polyline class="StaffLines" fill="none" stroke="#000000" stroke-width="2.73" stroke-linejoin="bevel" points="212.598,1341 2764.6,1341"/>
<polyline class="StaffLines" fill="none" stroke="#000000" stroke-width="2.73" stroke-linejoin="bevel" points="212.598,1365.8 2764.6,1365.8"/>
<polyline class="StaffLines" fill="none" stroke="#000000" stroke-width="2.73" stroke-linejoin="bevel" points="212.598,1390.6 2764.6,1390.6"/>
<polyline class="StaffLines" fill="none" stroke="#000000" stroke-width="2.73" stroke-linejoin="bevel" points="212.598,1415.4 2764.6,1415.4"/>
<path class="Text" d="M1248.91,227.568 C1251.11,227.348 1251.55,227.348 1255.73,227.128 C1271.9,226.578 1284,225.698 1290.16,224.488 C1288.73,225.588 1288.29,225.918 1286.53,227.568 C1275.53,238.018 1260.9,249.458 1250.01,255.948 C1242.42,257.268 1234.17,258.148 1230.76,258.148 C1230.54,258.148 1230.32,258.148 1229.99,258.148 L1230.87,266.508 C1234.94,265.298 1245.83,263.648 1263.32,261.558 C1269.59,260.788 1279.38,259.468 1281.25,259.248 C1285.76,258.478 1285.76,258.478 1287.3,258.258 C1271.46,265.188 1263.32,273.878 1263.32,283.668 C1263.32,289.058 1265.63,294.008 1269.81,297.528 C1275.09,302.038 1284.66,304.458 1297.53,304.678 C1303.14,304.788 1303.14,304.788 1305.01,304.898 L1304.68,296.428 C1302.26,296.868 1300.06,297.088 1297.2,297.088 C1280.48,297.088 1271.02,291.918 1271.02,282.898 C1271.02,279.598 1272.01,277.068 1274.54,273.768 C1277.62,269.808 1282.68,265.958 1288.29,263.318 C1296.43,259.468 1307.32,257.378 1318.54,257.378 C1318.98,257.378 1319.86,257.378 1320.96,257.378 L1320.19,249.678 C1318.87,250.008 1318.43,250.008 1317,250.118 C1314.8,250.338 1311.5,250.668 1306.99,250.998 C1298.63,251.768 1291.92,252.428 1287.41,252.758 C1270.69,254.188 1266.4,254.738 1261.01,255.728 C1272.01,249.238 1286.31,238.128 1297.09,227.678 C1299.95,224.928 1300.72,224.268 1302.48,223.058 L1297.86,217.228 C1296.32,217.888 1294.12,218.328 1291.7,218.548 C1283.89,219.428 1268.05,220.088 1258.15,220.088 C1253.64,220.088 1251.66,219.978 1248.25,219.648 L1248.91,227.568 M1360.67,212.608 C1360.67,213.928 1360.56,214.478 1360.34,216.128 C1357.59,235.598 1356.6,245.938 1356.6,256.718 C1356.6,257.268 1356.6,258.258 1356.6,259.248 L1356.82,270.688 L1356.93,272.668 C1356.93,272.888 1356.93,273.328 1356.93,273.878 L1364.85,273.548 C1364.74,271.898 1364.74,271.348 1364.74,270.908 C1364.74,262.878 1366.83,254.408 1370.68,246.378 C1376.95,233.508 1383.99,227.238 1392.35,227.238 C1402.91,227.238 1409.07,237.468 1409.07,255.178 C1409.07,272.778 1403.02,284.328 1390.15,291.698 C1383.77,295.328 1378.05,297.088 1367.82,298.628 C1370.24,301.598 1370.9,302.808 1372.22,306.108 C1379.92,304.458 1386.52,302.258 1391.8,299.618 C1408.3,291.368 1417.21,276.298 1417.21,256.388 C1417.21,244.618 1415.23,236.478 1410.61,229.658 C1406.32,223.278 1400.16,219.868 1393.01,219.868 C1384.43,219.868 1377.17,224.598 1371.01,234.058 C1367.82,239.008 1365.62,244.398 1364.3,250.448 C1363.75,252.758 1363.75,252.758 1363.53,253.638 L1363.09,253.528 C1363.42,247.918 1364.96,235.928 1366.72,224.818 C1367.71,218.878 1368.37,215.798 1369.25,213.488 L1360.67,212.608 M1502.24,228.448 C1494.76,228.668 1486.18,228.888 1475.62,229.328 C1457.91,229.988 1457.91,229.988 1454.72,229.988 C1453.07,229.988 1452.3,229.988 1450.32,229.878 L1450.65,237.908 C1458.02,236.698 1480.24,235.598 1502.35,235.158 C1502.35,239.338 1502.35,239.338 1502.35,240.878 C1502.35,242.198 1502.46,243.298 1502.46,243.738 C1502.46,247.808 1502.46,248.248 1502.57,249.788 C1499.71,246.598 1495.09,244.838 1489.81,244.838 C1478.59,244.838 1470.34,252.538 1470.34,262.988 C1470.34,273.108 1477.82,280.368 1488.38,280.368 C1494.21,280.368 1498.94,278.388 1502.24,274.428 C1503.56,272.888 1504.22,271.678 1505.21,269.038 C1504.77,279.048 1500.92,286.198 1492.89,292.248 C1488.49,295.548 1483.65,297.748 1475.07,300.498 C1477.38,302.918 1478.04,303.908 1479.91,307.428 C1487.94,304.348 1492.78,301.818 1497.29,298.518 C1506.75,291.368 1512.03,281.248 1512.03,269.808 C1512.03,264.968 1511.26,261.448 1509.39,256.828 L1509.39,235.048 C1518.3,234.828 1519.51,234.828 1521.16,234.828 C1534.25,234.828 1538.1,234.938 1542.17,235.378 L1542.17,227.568 C1538.54,228.008 1530.07,228.228 1509.28,228.338 L1509.28,227.128 C1509.28,218.548 1509.39,216.898 1509.83,213.378 L1501.58,213.378 C1501.91,215.688 1502.02,216.898 1502.02,219.758 L1502.24,228.448 M1501.91,260.568 C1501.91,268.268 1496.63,273.548 1489.04,273.548 C1482.33,273.548 1477.71,269.038 1477.71,262.658 C1477.71,256.058 1482.99,251.108 1489.92,251.108 C1492.89,251.108 1495.2,251.658 1497.29,252.868 C1500.48,254.628 1501.91,256.938 1501.91,260.568 M1555.48,274.318 C1556.47,273.108 1556.69,272.888 1558.67,270.688 C1565.16,263.648 1570.99,256.498 1577.92,247.258 C1583.2,240.218 1584.19,239.338 1586.61,239.338 C1588.48,239.338 1590.24,240.658 1593.21,244.068 C1610.37,264.198 1621.59,275.198 1641.28,291.478 C1642.82,292.688 1642.82,292.688 1643.92,293.788 L1647.66,284.328 C1641.83,282.678 1617.41,260.568 1603.99,244.728 C1598.93,238.898 1597.06,236.808 1595.96,235.818 C1592.55,232.408 1589.58,230.868 1586.5,230.868 C1583.64,230.868 1580.78,232.298 1577.7,235.048 C1576.27,236.368 1575.39,237.468 1572.2,241.648 C1562.52,254.298 1553.83,263.868 1550.09,266.178 L1555.48,274.318 M1615.87,227.458 C1619.17,230.868 1624.45,239.118 1627.2,244.948 L1632.7,241.648 C1629.4,235.158 1626.32,230.538 1621.37,224.598 L1615.87,227.458 M1628.41,221.518 C1632.7,226.578 1637.32,233.618 1639.63,238.898 L1645.13,235.708 C1641.5,228.778 1638.75,224.708 1633.8,218.548 L1628.41,221.518 M1682.97,212.608 C1682.97,213.928 1682.86,214.478 1682.64,216.128 C1679.89,235.598 1678.9,245.938 1678.9,256.718 C1678.9,257.268 1678.9,258.258 1678.9,259.248 L1679.12,270.688 L1679.23,272.668 C1679.23,272.888 1679.23,273.328 1679.23,273.878 L1687.15,273.548 C1687.04,271.898 1687.04,271.348 1687.04,270.908 C1687.04,262.878 1689.13,254.408 1692.98,246.378 C1699.25,233.508 1706.29,227.238 1714.65,227.238 C1725.21,227.238 1731.37,237.468 1731.37,255.178 C1731.37,272.778 1725.32,284.328 1712.45,291.698 C1706.07,295.328 1700.35,297.088 1690.12,298.628 C1692.54,301.598 1693.2,302.808 1694.52,306.108 C1702.22,304.458 1708.82,302.258 1714.1,299.618 C1730.6,291.368 1739.51,276.298 1739.51,256.388 C1739.51,244.618 1737.53,236.478 1732.91,229.658 C1728.62,223.278 1722.46,219.868 1715.31,219.868 C1706.73,219.868 1699.47,224.598 1693.31,234.058 C1690.12,239.008 1687.92,244.398 1686.6,250.448 C1686.05,252.758 1686.05,252.758 1685.83,253.638 L1685.39,253.528 C1685.72,247.918 1687.26,235.928 1689.02,224.818 C1690.01,218.878 1690.67,215.798 1691.55,213.488 L1682.97,212.608 "/>
<path class="MeasureNumber" d="M216.922,1251.28 C215.682,1252.04 215.322,1252.52 215.322,1253.32 C215.322,1254.08 215.962,1254.64 216.762,1254.64 C217.802,1254.64 218.402,1253.88 218.522,1252.4 C219.762,1251.4 221.082,1250.96 222.682,1250.96 C225.642,1250.96 227.282,1252.8 227.282,1256.12 C227.282,1261.32 223.922,1265.56 219.802,1265.56 C217.442,1265.56 215.522,1264.44 215.522,1263.12 C215.522,1262.88 215.562,1262.8 215.762,1262.68 C217.042,1262.08 218.082,1261.64 218.082,1259.96 C218.082,1258.68 217.082,1257.72 215.682,1257.72 C213.922,1257.72 212.602,1259.2 212.602,1261.12 C212.602,1264.64 215.642,1267.2 219.922,1267.2 C226.402,1267.2 231.642,1262.04 231.642,1255.64 C231.642,1251.6 228.562,1248.76 224.202,1248.76 C222.482,1248.76 221.082,1249.12 219.162,1250.08 L221.402,1242.52 C223.522,1242.96 225.202,1243.16 226.642,1243.16 C229.282,1243.16 231.642,1242.32 232.962,1240.92 C233.642,1240.12 234.042,1239.44 234.042,1238.92 C234.042,1238.68 233.922,1238.44 233.762,1238.44 C233.642,1238.44 233.562,1238.48 233.322,1238.6 C232.002,1239.24 230.322,1239.6 228.762,1239.6 C226.362,1239.6 223.522,1239.2 220.562,1238.44 L216.922,1251.28 "/>
<path class="TieSegment" stroke="#000000" stroke-width="1.24" stroke-linecap="round" stroke-linejoin="round" fill-rule="evenodd" d="M2039.57,1421.44 C2093.12,1448.2 2253.75,1448.2 2307.29,1421.44 C2253.75,1456.14 2093.12,1456.14 2039.57,1421.44"/>
<path class="TieSegment" stroke="#000000" stroke-width="1.24" stroke-linecap="round" stroke-linejoin="round" fill-rule="evenodd" d="M358.205,1458.29 C368.195,1470.24 398.163,1470.24 408.153,1458.29 C398.163,1476.21 368.195,1476.21 358.205,1458.29"/>
<path class="TieSegment" stroke="#000000" stroke-width="1.24" stroke-linecap="round" stroke-linejoin="round" fill-rule="evenodd" d="M2427.1,776.643 C2492.46,806.08 2688.57,806.08 2753.94,776.643 C2688.57,814.016 2492.46,814.016 2427.1,776.643"/>
<polyline class="BarLine" fill="none" stroke="#000000" stroke-width="13.64" stroke-linejoin="bevel" points="909.805,632.834 909.805,734.762"/>
<polyline class="BarLine" fill="none" stroke="#000000" stroke-width="4.46" stroke-linejoin="bevel" points="928.033,632.834 928.033,734.762"/>
<path class="BarLine" transform="matrix(0.992,0,0,0.992,939.441,671.398)" d="M10.4,0 C10.4,-2.9 8.1,-5.3 5.2,-5.3 C2.3,-5.3 0,-2.9 0,0 C0,2.9 2.3,5.3 5.2,5.3 C8.1,5.3 10.4,2.9 10.4,0"/>
<path class="BarLine" transform="matrix(0.992,0,0,0.992,939.441,696.198)" d="M10.4,0 C10.4,-2.9 8.1,-5.3 5.2,-5.3 C2.3,-5.3 0,-2.9 0,0 C0,2.9 2.3,5.3 5.2,5.3 C8.1,5.3 10.4,2.9 10.4,0"/>
<polyline class="BarLine" fill="none" stroke="#000000" stroke-width="4.46" stroke-linejoin="bevel" points="1456.06,1314.83 1456.06,1416.76"/>
<path class="BarLine" transform="matrix(0.992,0,0,0.992,2717.84,1353.4)" d="M10.4,0 C10.4,-2.9 8.1,-5.3 5.2,-5.3 C2.3,-5.3 0,-2.9 0,0 C0,2.9 2.3,5.3 5.2,5.3 C8.1,5.3 10.4,2.9 10.4,0"/>
<path class="BarLine" transform="matrix(0.992,0,0,0.992,2717.84,1378.2)" d="M10.4,0 C10.4,-2.9 8.1,-5.3 5.2,-5.3 C2.3,-5.3 0,-2.9 0,0 C0,2.9 2.3,5.3 5.2,5.3 C8.1,5.3 10.4,2.9 10.4,0"/>
<polyline class="BarLine" fill="none" stroke="#000000" stroke-width="4.46" stroke-linejoin="bevel" points="2739.55,1314.83 2739.55,1416.76"/>
<polyline class="BarLine" fill="none" stroke="#000000" stroke-width="13.64" stroke-linejoin="bevel" points="2757.78,1314.83 2757.78,1416.76"/>
<polyline class="BarLine" fill="none" stroke="#000000" stroke-width="4.46" stroke-linejoin="bevel" points="926.752,1314.83 926.752,1416.76"/>
<polyline class="BarLine" fill="none" stroke="#000000" stroke-width="4.46" stroke-linejoin="bevel" points="2372.88,632.834 2372.88,734.762"/>
<polyline class="BarLine" fill="none" stroke="#000000" stroke-width="4.46" stroke-linejoin="bevel" points="1985.36,1314.83 1985.36,1416.76"/>
<polyline class="BarLine" fill="none" stroke="#000000" stroke-width="4.46" stroke-linejoin="bevel" points="2261.31,1314.83 2261.31,1416.76"/>
<polyline class="BarLine" fill="none" stroke="#000000" stroke-width="4.46" stroke-linejoin="bevel" points="1660.2,632.834 1660.2,734.762"/>
<polyline class="BarLine" fill="none" stroke="#000000" stroke-width="4.46" stroke-linejoin="bevel" points="2762.37,632.834 2762.37,734.762"/>
<polyline class="LedgerLine" fill="none" stroke="#000000" stroke-width="3.97" stroke-linejoin="bevel" points="2397.93,758.198 2451.3,758.198"/>
<polyline class="LedgerLine" fill="none" stroke="#000000" stroke-width="3.97" stroke-linejoin="bevel" points="387.221,1440.2 435.814,1440.2"/>
<polyline class="Stem" fill="none" stroke="#000000" stroke-width="2.48" stroke-linejoin="bevel" points="743.859,1386.63 743.859,1309.96"/>
<polyline class="Stem" fill="none" stroke="#000000" stroke-width="2.48" stroke-linejoin="bevel" points="814.408,1374.23 814.408,1303.83"/>
<polyline class="Stem" fill="none" stroke="#000000" stroke-width="2.48" stroke-linejoin="bevel" points="1532.67,717.03 1532.67,634.198"/>
<polyline class="Stem" fill="none" stroke="#000000" stroke-width="2.48" stroke-linejoin="bevel" points="1724.42,704.63 1724.42,621.798"/>
<polyline class="Stem" fill="none" stroke="#000000" stroke-width="2.48" stroke-linejoin="bevel" points="1696.65,1374.23 1696.65,1310.1"/>
<polyline class="Stem" fill="none" stroke="#000000" stroke-width="2.48" stroke-linejoin="bevel" points="1880.7,692.23 1880.7,615.598"/>
<polyline class="Stem" fill="none" stroke="#000000" stroke-width="2.48" stroke-linejoin="bevel" points="1626.1,1386.63 1626.1,1316.09"/>
<polyline class="Stem" fill="none" stroke="#000000" stroke-width="2.48" stroke-linejoin="bevel" points="2036.98,704.63 2036.98,634.27"/>
<polyline class="Stem" fill="none" stroke="#000000" stroke-width="2.48" stroke-linejoin="bevel" points="1520.27,1386.63 1520.27,1303.8"/>
<polyline class="Stem" fill="none" stroke="#000000" stroke-width="2.48" stroke-linejoin="bevel" points="1837.74,1399.03 1837.74,1322.29"/>
<polyline class="Stem" fill="none" stroke="#000000" stroke-width="2.48" stroke-linejoin="bevel" points="2141.17,729.43 2141.17,640.326"/>
<polyline class="Stem" fill="none" stroke="#000000" stroke-width="2.48" stroke-linejoin="bevel" points="1398.74,700.365 1398.74,764.254"/>
<polyline class="Stem" fill="none" stroke="#000000" stroke-width="2.48" stroke-linejoin="bevel" points="2245.36,741.83 2245.36,658.998"/>
<polyline class="Stem" fill="none" stroke="#000000" stroke-width="2.48" stroke-linejoin="bevel" points="1414.26,1399.03 1414.26,1303.69"/>
<polyline class="Stem" fill="none" stroke="#000000" stroke-width="2.48" stroke-linejoin="bevel" points="1908.29,1423.83 1908.29,1341"/>
<polyline class="Stem" fill="none" stroke="#000000" stroke-width="2.48" stroke-linejoin="bevel" points="1343.71,1386.63 1343.71,1297.56"/>
<polyline class="Stem" fill="none" stroke="#000000" stroke-width="2.48" stroke-linejoin="bevel" points="1294.55,675.565 1294.55,752.143"/>
<polyline class="Stem" fill="none" stroke="#000000" stroke-width="2.48" stroke-linejoin="bevel" points="1138.27,663.165 1138.27,745.798"/>
<polyline class="Stem" fill="none" stroke="#000000" stroke-width="2.48" stroke-linejoin="bevel" points="1273.16,1374.23 1273.16,1291.43"/>
<polyline class="Stem" fill="none" stroke="#000000" stroke-width="2.48" stroke-linejoin="bevel" points="981.988,675.565 981.988,751.998"/>
<polyline class="Stem" fill="none" stroke="#000000" stroke-width="2.48" stroke-linejoin="bevel" points="747.943,675.565 747.943,751.998"/>
<polyline class="Stem" fill="none" stroke="#000000" stroke-width="2.48" stroke-linejoin="bevel" points="2325.53,1399.03 2325.53,1316.2"/>
<polyline class="Stem" fill="none" stroke="#000000" stroke-width="2.48" stroke-linejoin="bevel" points="591.662,675.565 591.662,751.998"/>
<polyline class="Stem" fill="none" stroke="#000000" stroke-width="2.48" stroke-linejoin="bevel" points="1202.61,1349.43 1202.61,1285.31"/>
<polyline class="Stem" fill="none" stroke="#000000" stroke-width="2.48" stroke-linejoin="bevel" points="1067.05,1345.16 1067.05,1427.8"/>
<polyline class="Stem" fill="none" stroke="#000000" stroke-width="2.48" stroke-linejoin="bevel" points="426.39,1436.23 426.39,1353.4"/>
<polyline class="Stem" fill="none" stroke="#000000" stroke-width="2.48" stroke-linejoin="bevel" points="2401.61,1357.56 2401.61,1434"/>
<polyline class="Stem" fill="none" stroke="#000000" stroke-width="2.48" stroke-linejoin="bevel" points="961.224,1357.56 961.224,1434"/>
<polyline class="Stem" fill="none" stroke="#000000" stroke-width="2.48" stroke-linejoin="bevel" points="532.213,1423.83 532.213,1347.09"/>
<polyline class="Stem" fill="none" stroke="#000000" stroke-width="2.48" stroke-linejoin="bevel" points="2507.43,1357.56 2507.43,1434"/>
<polyline class="Stem" fill="none" stroke="#000000" stroke-width="2.48" stroke-linejoin="bevel" points="435.38,675.565 435.38,751.998"/>
<polyline class="Stem" fill="none" stroke="#000000" stroke-width="2.48" stroke-linejoin="bevel" points="602.762,1411.43 602.762,1341.1"/>
<polyline class="Stem" fill="none" stroke="#000000" stroke-width="2.48" stroke-linejoin="bevel" points="2613.26,1357.56 2613.26,1434"/>
<polyline class="Stem" fill="none" stroke="#000000" stroke-width="2.48" stroke-linejoin="bevel" points="673.31,1399.03 673.31,1316.09"/>
<polyline class="Stem" fill="none" stroke="#000000" stroke-width="2.48" stroke-linejoin="bevel" points="884.956,1361.83 884.956,1297.71"/>
<polyline class="Stem" fill="none" stroke="#000000" stroke-width="2.48" stroke-linejoin="bevel" points="1767.19,1386.63 1767.19,1316.3"/>
<path class="Note" transform="matrix(0.992,0,0,0.992,571.777,1415.4)" d="M0,4.2 C0,8.5 3.1,13.3 11.2,13.3 C21.6,13.3 32.5,4.8 32.5,-4 C32.5,-9.9 27.5,-13.2 21.3,-13.2 C11.6,-13.2 0,-5 0,4.2"/>
<path class="Note" transform="matrix(0.992,0,0,0.992,1293.31,671.398)" d="M0,4.2 C0,8.5 3.1,13.3 11.2,13.3 C21.6,13.3 32.5,4.8 32.5,-4 C32.5,-9.9 27.5,-13.2 21.3,-13.2 C11.6,-13.2 0,-5 0,4.2"/>
<path class="Note" transform="matrix(0.992,0,0,0.992,590.422,671.398)" d="M0,4.2 C0,8.5 3.1,13.3 11.2,13.3 C21.6,13.3 32.5,4.8 32.5,-4 C32.5,-9.9 27.5,-13.2 21.3,-13.2 C11.6,-13.2 0,-5 0,4.2"/>
<path class="Note" transform="matrix(0.992,0,0,0.992,783.423,1378.2)" d="M0,4.2 C0,8.5 3.1,13.3 11.2,13.3 C21.6,13.3 32.5,4.8 32.5,-4 C32.5,-9.9 27.5,-13.2 21.3,-13.2 C11.6,-13.2 0,-5 0,4.2"/>
<path class="Note" transform="matrix(0.992,0,0,0.992,642.326,1403)" d="M0,4.2 C0,8.5 3.1,13.3 11.2,13.3 C21.6,13.3 32.5,4.8 32.5,-4 C32.5,-9.9 27.5,-13.2 21.3,-13.2 C11.6,-13.2 0,-5 0,4.2"/>
<path class="Note" transform="matrix(0.992,0,0,0.992,853.972,1365.8)" d="M0,4.2 C0,8.5 3.1,13.3 11.2,13.3 C21.6,13.3 32.5,4.8 32.5,-4 C32.5,-9.9 27.5,-13.2 21.3,-13.2 C11.6,-13.2 0,-5 0,4.2"/>
<path class="Note" transform="matrix(0.992,0,0,0.992,746.703,671.398)" d="M0,4.2 C0,8.5 3.1,13.3 11.2,13.3 C21.6,13.3 32.5,4.8 32.5,-4 C32.5,-9.9 27.5,-13.2 21.3,-13.2 C11.6,-13.2 0,-5 0,4.2"/>
<path class="Note" transform="matrix(0.992,0,0,0.992,501.228,1427.8)" d="M0,4.2 C0,8.5 3.1,13.3 11.2,13.3 C21.6,13.3 32.5,4.8 32.5,-4 C32.5,-9.9 27.5,-13.2 21.3,-13.2 C11.6,-13.2 0,-5 0,4.2"/>
<path class="Note" transform="matrix(0.992,0,0,0.992,395.405,1440.2)" d="M0,4.2 C0,8.5 3.1,13.3 11.2,13.3 C21.6,13.3 32.5,4.8 32.5,-4 C32.5,-9.9 27.5,-13.2 21.3,-13.2 C11.6,-13.2 0,-5 0,4.2"/>
<path class="Note" transform="matrix(0.992,0,0,0.992,959.984,1353.4)" d="M0,4.2 C0,8.5 3.1,13.3 11.2,13.3 C21.6,13.3 32.5,4.8 32.5,-4 C32.5,-9.9 27.5,-13.2 21.3,-13.2 C11.6,-13.2 0,-5 0,4.2"/>
<path class="Note" transform="matrix(0.992,0,0,0.992,980.748,671.398)" d="M0,4.2 C0,8.5 3.1,13.3 11.2,13.3 C21.6,13.3 32.5,4.8 32.5,-4 C32.5,-9.9 27.5,-13.2 21.3,-13.2 C11.6,-13.2 0,-5 0,4.2"/>
<path class="Note" transform="matrix(0.992,0,0,0.992,1065.81,1341)" d="M0,4.2 C0,8.5 3.1,13.3 11.2,13.3 C21.6,13.3 32.5,4.8 32.5,-4 C32.5,-9.9 27.5,-13.2 21.3,-13.2 C11.6,-13.2 0,-5 0,4.2"/>
<path class="Note" transform="matrix(0.992,0,0,0.992,2018.59,1403)" d="M18.7,-13.6 C4.9,-13.6 0,-6.6 0,-0.1 C0,6.4 4.9,13.4 18.7,13.4 C32.5,13.4 37.3,6.4 37.3,-0.1 C37.3,-6.6 32.5,-13.6 18.7,-13.6 M19.5,10.2 C16.7,10.2 14.8,9.4 13.5,6.9 C12.2,4.4 10.4,-2.1 10.3,-4.7 C10.1,-7.4 11.1,-9 13.5,-9.8 C14.7,-10.2 16.3,-10.4 17.9,-10.4 C20.6,-10.4 22.4,-9.8 23.8,-7.1 C25.2,-4.5 27.1,2 27.1,4.5 C27.1,9.4 23.5,10.2 19.5,10.2"/>
<path class="Note" transform="matrix(0.992,0,0,0.992,1171.63,1353.4)" d="M0,4.2 C0,8.5 3.1,13.3 11.2,13.3 C21.6,13.3 32.5,4.8 32.5,-4 C32.5,-9.9 27.5,-13.2 21.3,-13.2 C11.6,-13.2 0,-5 0,4.2"/>
<path class="Note" transform="matrix(0.992,0,0,0.992,2612.02,1353.4)" d="M0,4.2 C0,8.5 3.1,13.3 11.2,13.3 C21.6,13.3 32.5,4.8 32.5,-4 C32.5,-9.9 27.5,-13.2 21.3,-13.2 C11.6,-13.2 0,-5 0,4.2"/>
<path class="Note" transform="matrix(0.992,0,0,0.992,2406.12,758.198)" d="M18.7,-13.6 C4.9,-13.6 0,-6.6 0,-0.1 C0,6.4 4.9,13.4 18.7,13.4 C32.5,13.4 37.3,6.4 37.3,-0.1 C37.3,-6.6 32.5,-13.6 18.7,-13.6 M19.5,10.2 C16.7,10.2 14.8,9.4 13.5,6.9 C12.2,4.4 10.4,-2.1 10.3,-4.7 C10.1,-7.4 11.1,-9 13.5,-9.8 C14.7,-10.2 16.3,-10.4 17.9,-10.4 C20.6,-10.4 22.4,-9.8 23.8,-7.1 C25.2,-4.5 27.1,2 27.1,4.5 C27.1,9.4 23.5,10.2 19.5,10.2"/>
<path class="Note" transform="matrix(0.992,0,0,0.992,1242.18,1378.2)" d="M0,4.2 C0,8.5 3.1,13.3 11.2,13.3 C21.6,13.3 32.5,4.8 32.5,-4 C32.5,-9.9 27.5,-13.2 21.3,-13.2 C11.6,-13.2 0,-5 0,4.2"/>
<path class="Note" transform="matrix(0.992,0,0,0.992,1137.03,658.998)" d="M0,4.2 C0,8.5 3.1,13.3 11.2,13.3 C21.6,13.3 32.5,4.8 32.5,-4 C32.5,-9.9 27.5,-13.2 21.3,-13.2 C11.6,-13.2 0,-5 0,4.2"/>
<path class="Note" transform="matrix(0.992,0,0,0.992,1312.73,1390.6)" d="M0,4.2 C0,8.5 3.1,13.3 11.2,13.3 C21.6,13.3 32.5,4.8 32.5,-4 C32.5,-9.9 27.5,-13.2 21.3,-13.2 C11.6,-13.2 0,-5 0,4.2"/>
<path class="Note" transform="matrix(0.992,0,0,0.992,2214.37,745.798)" d="M0,4.2 C0,8.5 3.1,13.3 11.2,13.3 C21.6,13.3 32.5,4.8 32.5,-4 C32.5,-9.9 27.5,-13.2 21.3,-13.2 C11.6,-13.2 0,-5 0,4.2"/>
<path class="Note" transform="matrix(0.992,0,0,0.992,1383.28,1403)" d="M0,4.2 C0,8.5 3.1,13.3 11.2,13.3 C21.6,13.3 32.5,4.8 32.5,-4 C32.5,-9.9 27.5,-13.2 21.3,-13.2 C11.6,-13.2 0,-5 0,4.2"/>
<path class="Note" transform="matrix(0.992,0,0,0.992,2110.18,733.398)" d="M0,4.2 C0,8.5 3.1,13.3 11.2,13.3 C21.6,13.3 32.5,4.8 32.5,-4 C32.5,-9.9 27.5,-13.2 21.3,-13.2 C11.6,-13.2 0,-5 0,4.2"/>
<path class="Note" transform="matrix(0.992,0,0,0.992,2506.19,1353.4)" d="M0,4.2 C0,8.5 3.1,13.3 11.2,13.3 C21.6,13.3 32.5,4.8 32.5,-4 C32.5,-9.9 27.5,-13.2 21.3,-13.2 C11.6,-13.2 0,-5 0,4.2"/>
<path class="Note" transform="matrix(0.992,0,0,0.992,2006,708.598)" d="M0,4.2 C0,8.5 3.1,13.3 11.2,13.3 C21.6,13.3 32.5,4.8 32.5,-4 C32.5,-9.9 27.5,-13.2 21.3,-13.2 C11.6,-13.2 0,-5 0,4.2"/>
<path class="Note" transform="matrix(0.992,0,0,0.992,1489.29,1390.6)" d="M0,4.2 C0,8.5 3.1,13.3 11.2,13.3 C21.6,13.3 32.5,4.8 32.5,-4 C32.5,-9.9 27.5,-13.2 21.3,-13.2 C11.6,-13.2 0,-5 0,4.2"/>
<path class="Note" transform="matrix(0.992,0,0,0.992,1849.71,696.198)" d="M0,4.2 C0,8.5 3.1,13.3 11.2,13.3 C21.6,13.3 32.5,4.8 32.5,-4 C32.5,-9.9 27.5,-13.2 21.3,-13.2 C11.6,-13.2 0,-5 0,4.2"/>
<path class="Note" transform="matrix(0.992,0,0,0.992,1595.11,1390.6)" d="M0,4.2 C0,8.5 3.1,13.3 11.2,13.3 C21.6,13.3 32.5,4.8 32.5,-4 C32.5,-9.9 27.5,-13.2 21.3,-13.2 C11.6,-13.2 0,-5 0,4.2"/>
<path class="Note" transform="matrix(0.992,0,0,0.992,712.874,1390.6)" d="M0,4.2 C0,8.5 3.1,13.3 11.2,13.3 C21.6,13.3 32.5,4.8 32.5,-4 C32.5,-9.9 27.5,-13.2 21.3,-13.2 C11.6,-13.2 0,-5 0,4.2"/>
<path class="Note" transform="matrix(0.992,0,0,0.992,1693.43,708.598)" d="M0,4.2 C0,8.5 3.1,13.3 11.2,13.3 C21.6,13.3 32.5,4.8 32.5,-4 C32.5,-9.9 27.5,-13.2 21.3,-13.2 C11.6,-13.2 0,-5 0,4.2"/>
<path class="Note" transform="matrix(0.992,0,0,0.992,1665.66,1378.2)" d="M0,4.2 C0,8.5 3.1,13.3 11.2,13.3 C21.6,13.3 32.5,4.8 32.5,-4 C32.5,-9.9 27.5,-13.2 21.3,-13.2 C11.6,-13.2 0,-5 0,4.2"/>
<path class="Note" transform="matrix(0.992,0,0,0.992,1501.69,720.998)" d="M0,4.2 C0,8.5 3.1,13.3 11.2,13.3 C21.6,13.3 32.5,4.8 32.5,-4 C32.5,-9.9 27.5,-13.2 21.3,-13.2 C11.6,-13.2 0,-5 0,4.2"/>
<path class="Note" transform="matrix(0.992,0,0,0.992,1736.21,1390.6)" d="M0,4.2 C0,8.5 3.1,13.3 11.2,13.3 C21.6,13.3 32.5,4.8 32.5,-4 C32.5,-9.9 27.5,-13.2 21.3,-13.2 C11.6,-13.2 0,-5 0,4.2"/>
<path class="Note" transform="matrix(0.992,0,0,0.992,434.14,671.398)" d="M0,4.2 C0,8.5 3.1,13.3 11.2,13.3 C21.6,13.3 32.5,4.8 32.5,-4 C32.5,-9.9 27.5,-13.2 21.3,-13.2 C11.6,-13.2 0,-5 0,4.2"/>
<path class="Note" transform="matrix(0.992,0,0,0.992,1397.5,696.198)" d="M0,4.2 C0,8.5 3.1,13.3 11.2,13.3 C21.6,13.3 32.5,4.8 32.5,-4 C32.5,-9.9 27.5,-13.2 21.3,-13.2 C11.6,-13.2 0,-5 0,4.2"/>
<path class="Note" transform="matrix(0.992,0,0,0.992,1806.76,1403)" d="M0,4.2 C0,8.5 3.1,13.3 11.2,13.3 C21.6,13.3 32.5,4.8 32.5,-4 C32.5,-9.9 27.5,-13.2 21.3,-13.2 C11.6,-13.2 0,-5 0,4.2"/>
<path class="Note" transform="matrix(0.992,0,0,0.992,2400.37,1353.4)" d="M0,4.2 C0,8.5 3.1,13.3 11.2,13.3 C21.6,13.3 32.5,4.8 32.5,-4 C32.5,-9.9 27.5,-13.2 21.3,-13.2 C11.6,-13.2 0,-5 0,4.2"/>
<path class="Note" transform="matrix(0.992,0,0,0.992,1877.31,1427.8)" d="M0,4.2 C0,8.5 3.1,13.3 11.2,13.3 C21.6,13.3 32.5,4.8 32.5,-4 C32.5,-9.9 27.5,-13.2 21.3,-13.2 C11.6,-13.2 0,-5 0,4.2"/>
<path class="Note" transform="matrix(0.992,0,0,0.992,2294.55,1403)" d="M0,4.2 C0,8.5 3.1,13.3 11.2,13.3 C21.6,13.3 32.5,4.8 32.5,-4 C32.5,-9.9 27.5,-13.2 21.3,-13.2 C11.6,-13.2 0,-5 0,4.2"/>
<path class="Clef" transform="matrix(0.992,0,0,0.992,231.198,1390.6)" d="M12.3,51.3 C12.3,57.9 17.3,66.6 30.8,66.6 C35.5,66.6 39.6,65.4 43.2,63.2 C48.6,59.4 50,52.8 50,46.5 C50,42.6 49.4,38.1 48.4,32.4 C48.1,30.4 47.5,27.4 46.9,23.5 C56.7,20.3 64,10.1 64,-0.2 C64,-15.3 53.3,-25.5 38.7,-25.5 C37.7,-31.5 36.7,-37.4 35.9,-43 C46.4,-54.1 53.7,-66.6 53.7,-82.5 C53.7,-91.6 50.9,-99 49.3,-102.6 C46.9,-107.7 44,-111.2 42.2,-111.2 C41.5,-111.2 38.4,-110 35.1,-106.1 C28.7,-98.5 26.9,-85.7 26.9,-77.3 C26.9,-71.9 27.4,-67 29.1,-55.8 C29,-55.7 23.8,-50.4 21.7,-48.7 C12.6,-40.3 0,-28.1 0,-8.1 C0,10.6 16.3,25.3 34.9,25.3 C37.8,25.3 40.5,25 42.8,24.6 C44.7,34.2 45.9,41.2 45.9,46.5 C45.9,56.9 40.5,62.4 30.4,62.4 C28,62.4 25.9,61.9 25.7,61.9 C25.6,61.8 25.4,61.7 25.4,61.6 C25.4,61.4 25.6,61.3 25.9,61.3 C30.6,60.5 35.3,56.5 35.3,50.1 C35.3,44.7 31.2,39 23.7,39 C16.7,39 12.3,44.7 12.3,51.3 M33.2,-82.2 C34.1,-86.2 38.7,-96.7 43.9,-96.7 C45.4,-96.7 47.8,-91.9 47.8,-84.9 C47.8,-74.5 40.1,-66.7 33.2,-59.9 C32.6,-63.9 32.1,-67.8 32.1,-72 C32.1,-75.7 32.4,-79.1 33.2,-82.2 M42,20.6 C40,21 38.1,21.2 36.2,21.2 C21.9,21.2 9.7,11.2 9.7,-3.9 C9.7,-16.1 18.3,-27 27.1,-34.6 C28.8,-36.1 30.4,-37.5 31.9,-39 C32.8,-33.6 33.5,-28.9 34.2,-24.8 C25.1,-22.1 18.9,-12.5 18.9,-3.1 C18.9,3.9 24.4,13.5 32.4,13.5 C33.2,13.5 34.1,13.1 34.1,12.2 C34.1,11.3 33.1,10.8 31.9,10 C28,7.6 25.8,5 25.8,0.1 C25.8,-6 30.4,-10.9 36.2,-12.3 L42,20.6 M56.2,2.1 C56.2,9.2 53.3,16.5 46.2,19.4 C44.1,7.4 41.4,-8.5 40.7,-12.9 C49.7,-12.9 56.2,-6.8 56.2,2.1"/>
<path class="Clef" transform="matrix(0.992,0,0,0.992,231.198,708.598)" d="M12.3,51.3 C12.3,57.9 17.3,66.6 30.8,66.6 C35.5,66.6 39.6,65.4 43.2,63.2 C48.6,59.4 50,52.8 50,46.5 C50,42.6 49.4,38.1 48.4,32.4 C48.1,30.4 47.5,27.4 46.9,23.5 C56.7,20.3 64,10.1 64,-0.2 C64,-15.3 53.3,-25.5 38.7,-25.5 C37.7,-31.5 36.7,-37.4 35.9,-43 C46.4,-54.1 53.7,-66.6 53.7,-82.5 C53.7,-91.6 50.9,-99 49.3,-102.6 C46.9,-107.7 44,-111.2 42.2,-111.2 C41.5,-111.2 38.4,-110 35.1,-106.1 C28.7,-98.5 26.9,-85.7 26.9,-77.3 C26.9,-71.9 27.4,-67 29.1,-55.8 C29,-55.7 23.8,-50.4 21.7,-48.7 C12.6,-40.3 0,-28.1 0,-8.1 C0,10.6 16.3,25.3 34.9,25.3 C37.8,25.3 40.5,25 42.8,24.6 C44.7,34.2 45.9,41.2 45.9,46.5 C45.9,56.9 40.5,62.4 30.4,62.4 C28,62.4 25.9,61.9 25.7,61.9 C25.6,61.8 25.4,61.7 25.4,61.6 C25.4,61.4 25.6,61.3 25.9,61.3 C30.6,60.5 35.3,56.5 35.3,50.1 C35.3,44.7 31.2,39 23.7,39 C16.7,39 12.3,44.7 12.3,51.3 M33.2,-82.2 C34.1,-86.2 38.7,-96.7 43.9,-96.7 C45.4,-96.7 47.8,-91.9 47.8,-84.9 C47.8,-74.5 40.1,-66.7 33.2,-59.9 C32.6,-63.9 32.1,-67.8 32.1,-72 C32.1,-75.7 32.4,-79.1 33.2,-82.2 M42,20.6 C40,21 38.1,21.2 36.2,21.2 C21.9,21.2 9.7,11.2 9.7,-3.9 C9.7,-16.1 18.3,-27 27.1,-34.6 C28.8,-36.1 30.4,-37.5 31.9,-39 C32.8,-33.6 33.5,-28.9 34.2,-24.8 C25.1,-22.1 18.9,-12.5 18.9,-3.1 C18.9,3.9 24.4,13.5 32.4,13.5 C33.2,13.5 34.1,13.1 34.1,12.2 C34.1,11.3 33.1,10.8 31.9,10 C28,7.6 25.8,5 25.8,0.1 C25.8,-6 30.4,-10.9 36.2,-12.3 L42,20.6 M56.2,2.1 C56.2,9.2 53.3,16.5 46.2,19.4 C44.1,7.4 41.4,-8.5 40.7,-12.9 C49.7,-12.9 56.2,-6.8 56.2,2.1"/>
<path class="KeySig" transform="matrix(0.992,0,0,0.992,313.271,1365.8)" d="M12,-15.5 C7,-15.5 4.1,-12.4 3.6,-11.8 L4,-43.9 C4,-44.7 3.4,-45.3 2.6,-45.3 L1.4,-45.3 C0.6,-45.3 0,-44.7 0,-43.9 L0.5,16.2 C0.5,17 1.1,17.6 1.9,17.6 C2.1,17.6 2.5,17.5 2.7,17.4 C11.3,13.1 20.3,4.9 20.3,-5.4 C20.3,-10.6 17.9,-15.5 12,-15.5 M3.3,12.7 L3.6,-6.8 C3.8,-7.7 5.3,-10.6 9.3,-10.6 C12.9,-10.6 13.2,-7.2 13.2,-5.1 C13.2,3.8 9.9,7.5 3.3,12.7"/>
<path class="KeySig" transform="matrix(0.992,0,0,0.992,313.271,683.798)" d="M12,-15.5 C7,-15.5 4.1,-12.4 3.6,-11.8 L4,-43.9 C4,-44.7 3.4,-45.3 2.6,-45.3 L1.4,-45.3 C0.6,-45.3 0,-44.7 0,-43.9 L0.5,16.2 C0.5,17 1.1,17.6 1.9,17.6 C2.1,17.6 2.5,17.5 2.7,17.4 C11.3,13.1 20.3,4.9 20.3,-5.4 C20.3,-10.6 17.9,-15.5 12,-15.5 M3.3,12.7 L3.6,-6.8 C3.8,-7.7 5.3,-10.6 9.3,-10.6 C12.9,-10.6 13.2,-7.2 13.2,-5.1 C13.2,3.8 9.9,7.5 3.3,12.7"/>
<path class="TimeSig" transform="matrix(0.992,0,0,0.992,356.826,658.998)" d="M20.8,12.7 L20.8,20.1 L12.5,20.1 C11.8,20.1 11.1,20.7 11.1,21.5 L11.1,23.4 C11.1,24.2 11.8,24.8 12.5,24.8 L42.8,24.8 C43.6,24.8 44.2,24.2 44.2,23.4 L44.2,21.5 C44.2,20.7 43.6,20.1 42.8,20.1 L33.9,20.1 L33.9,12.7 L42.8,12.7 C43.6,12.7 44.2,12 44.2,11.2 L44.2,9.3 C44.2,8.6 43.6,7.9 42.8,7.9 L33.9,7.9 L33.9,-8 C33.9,-8.6 33.6,-9.1 33.1,-9.3 L31.9,-9.9 C31.7,-10 31.4,-10.1 31.2,-10.1 C30.9,-10 30.5,-9.9 30.3,-9.7 L21.2,-1.4 C20.9,-1.1 20.8,-0.7 20.8,-0.3 L20.8,7.9 L9.3,7.9 C9.3,7.9 20.4,-4.1 32.2,-19.9 C32.6,-20.4 32.7,-20.9 32.7,-21.3 C32.7,-21.8 32.5,-22.2 32.4,-22.3 L30.2,-24.5 C30,-24.7 29.6,-24.9 29.2,-24.9 C28.6,-24.9 15.1,-24.9 14.4,-24.9 C13.6,-24.9 13.1,-24.3 13,-23.7 C13,-23.7 12.5,-16.3 9.9,-8.2 C7.3,-0.1 4.3,4.9 1.7,8.6 C1.7,8.6 1.4,9.1 1.4,9.7 C1.4,9.9 1.4,10.1 1.5,10.3 C1.9,11 2.5,12.1 2.5,12.1 C2.5,12.1 2.7,12.7 3.6,12.7 L20.8,12.7 "/>
<path class="TimeSig" transform="matrix(0.992,0,0,0.992,356.826,708.598)" d="M20.8,12.7 L20.8,20.1 L12.5,20.1 C11.8,20.1 11.1,20.7 11.1,21.5 L11.1,23.4 C11.1,24.2 11.8,24.8 12.5,24.8 L42.8,24.8 C43.6,24.8 44.2,24.2 44.2,23.4 L44.2,21.5 C44.2,20.7 43.6,20.1 42.8,20.1 L33.9,20.1 L33.9,12.7 L42.8,12.7 C43.6,12.7 44.2,12 44.2,11.2 L44.2,9.3 C44.2,8.6 43.6,7.9 42.8,7.9 L33.9,7.9 L33.9,-8 C33.9,-8.6 33.6,-9.1 33.1,-9.3 L31.9,-9.9 C31.7,-10 31.4,-10.1 31.2,-10.1 C30.9,-10 30.5,-9.9 30.3,-9.7 L21.2,-1.4 C20.9,-1.1 20.8,-0.7 20.8,-0.3 L20.8,7.9 L9.3,7.9 C9.3,7.9 20.4,-4.1 32.2,-19.9 C32.6,-20.4 32.7,-20.9 32.7,-21.3 C32.7,-21.8 32.5,-22.2 32.4,-22.3 L30.2,-24.5 C30,-24.7 29.6,-24.9 29.2,-24.9 C28.6,-24.9 15.1,-24.9 14.4,-24.9 C13.6,-24.9 13.1,-24.3 13,-23.7 C13,-23.7 12.5,-16.3 9.9,-8.2 C7.3,-0.1 4.3,4.9 1.7,8.6 C1.7,8.6 1.4,9.1 1.4,9.7 C1.4,9.9 1.4,10.1 1.5,10.3 C1.9,11 2.5,12.1 2.5,12.1 C2.5,12.1 2.7,12.7 3.6,12.7 L20.8,12.7 "/>
<path class="Beam" fill-rule="evenodd" d="M1624.86,1309.98 L1697.89,1303.78 L1697.89,1316.22 L1624.86,1322.42 L1624.86,1309.98 "/>
<path class="Beam" fill-rule="evenodd" d="M1293.31,745.757 L1399.98,758.157 L1399.98,770.64 L1293.31,758.24 L1293.31,745.757 "/>
<path class="Beam" fill-rule="evenodd" d="M1765.95,1309.98 L1838.98,1316.18 L1838.98,1328.62 L1765.95,1322.42 L1765.95,1309.98 "/>
<path class="Beam" fill-rule="evenodd" d="M2035.74,627.988 L2142.41,634.188 L2142.41,646.609 L2035.74,640.409 L2035.74,627.988 "/>
<path class="Beam" fill-rule="evenodd" d="M1201.37,1278.98 L1415.5,1297.58 L1415.5,1310.02 L1201.37,1291.42 L1201.37,1278.98 "/>
<path class="Beam" fill-rule="evenodd" d="M530.973,1340.98 L604.002,1334.78 L604.002,1347.22 L530.973,1353.42 L530.973,1340.98 "/>
<path class="Beam" fill-rule="evenodd" d="M672.07,1309.98 L886.196,1291.38 L886.196,1303.82 L672.07,1322.42 L672.07,1309.98 "/>
<path class="Tempo" d="M301.715,461.262 L298.448,461.262 L298.448,503.535 C297.359,502.842 295.973,502.446 294.389,502.248 C290.825,502.248 287.954,502.644 284.786,504.426 C280.826,506.505 276.47,510.861 276.47,515.712 C276.47,520.464 280.727,522.741 285.083,522.741 C292.013,522.741 301.715,516.801 301.715,509.277 L301.715,461.262 "/>
<path class="Tempo" d="M323.966,499.218 L354.206,499.218 L354.206,492.318 L323.966,492.318 L323.966,499.218 M323.966,511.578 L354.206,511.578 L354.206,504.678 L323.966,504.678 L323.966,511.578 M403.104,501.138 L402.444,504.138 C401.904,506.538 401.544,507.318 401.064,507.618 C400.464,508.038 400.344,508.038 396.564,508.098 L384.984,508.098 C387.084,506.298 388.644,505.158 390.984,503.598 C399.444,498.138 401.184,496.818 402.924,494.598 C404.964,491.898 406.164,488.718 406.164,485.898 C406.164,479.478 399.864,474.618 391.404,474.618 C383.244,474.618 376.944,479.898 376.944,486.738 C376.944,490.938 379.284,493.638 382.884,493.638 C386.004,493.638 387.984,491.658 387.984,488.538 C387.984,485.958 386.844,484.458 384.084,483.138 C383.424,482.838 383.124,482.478 383.124,481.998 C383.124,480.078 386.364,478.038 389.364,478.038 C393.564,478.038 395.964,480.618 395.964,485.058 C395.964,490.038 394.044,493.578 387.684,500.358 C380.964,507.498 378.624,510.198 375.624,514.518 L375.624,517.338 C377.184,517.158 377.844,517.098 378.744,517.098 L401.304,517.098 C402.444,517.098 403.164,517.158 404.964,517.338 L406.344,501.138 L403.104,501.138 M435.682,502.218 L435.682,483.738 C435.682,482.838 435.802,478.938 436.042,474.618 L431.902,474.618 L410.062,501.798 L410.062,506.238 L426.262,506.238 L426.262,508.458 C426.262,512.178 426.262,512.418 425.842,513.018 C425.362,513.618 424.102,513.858 421.282,513.858 L420.622,513.858 L420.622,517.098 L441.082,517.098 L441.082,513.858 L440.422,513.858 C437.782,513.798 436.522,513.558 436.102,513.018 C435.682,512.358 435.682,512.178 435.682,508.458 L435.682,506.238 L441.682,506.238 L441.682,502.218 L435.682,502.218 M426.262,502.218 L414.442,502.218 L426.262,487.218 L426.262,502.218 M460.579,474.618 C451.579,474.618 444.979,483.798 444.979,496.278 C444.979,508.758 451.579,517.938 460.579,517.938 C469.399,517.938 476.119,508.758 476.119,496.578 C476.119,489.498 474.499,484.278 470.959,479.838 C468.139,476.418 464.599,474.618 460.579,474.618 M460.519,477.738 C462.319,477.738 463.759,478.818 464.419,480.738 C465.199,482.718 465.679,489.018 465.679,496.458 C465.679,502.638 465.199,509.118 464.659,511.158 C463.999,513.558 462.559,514.818 460.519,514.818 C458.659,514.818 457.279,513.798 456.559,511.818 C455.779,509.838 455.299,503.478 455.299,496.278 C455.299,489.978 455.779,483.438 456.319,481.398 C456.979,478.998 458.419,477.738 460.519,477.738"/>
</svg>
