<?xml version="1.0" encoding="UTF-8" standalone="no"?>
<svg width="2977.2px" height="4208.4px" viewBox="0 0 2977.2 4208.4"
 xmlns="http://www.w3.org/2000/svg" xmlns:xlink="http://www.w3.org/1999/xlink" version="1.2" baseProfile="tiny">
<title>ひらいたひらいた</title>
<desc>Generated by MuseScore Studio 4.4.3</desc>
<path class="" fill="#ffffff" fill-rule="evenodd" d="M0,0 L2977.2,0 L2977.2,4208.4 L0,4208.4 L0,0 "/>
<polyline class="StaffLines" fill="none" stroke="#000000" stroke-width="2.73" stroke-linejoin="bevel" points="212.598,634.198 2764.6,634.198"/>
<polyline class="StaffLines" fill="none" stroke="#000000" stroke-width="2.73" stroke-linejoin="bevel" points="212.598,658.998 2764.6,658.998"/>
<polyline class="StaffLines" fill="none" stroke="#000000" stroke-width="2.73" stroke-linejoin="bevel" points="212.598,683.798 2764.6,683.798"/>
<polyline class="StaffLines" fill="none" stroke="#000000" stroke-width="2.73" stroke-linejoin="bevel" points="212.598,708.598 2764.6,708.598"/>
<polyline class="StaffLines" fill="none" stroke="#000000" stroke-width="2.73" stroke-linejoin="bevel" points="212.598,733.398 2764.6,733.398"/>
<polyline class="StaffLines" fill="none" stroke="#000000" stroke-width="2.73" stroke-linejoin="bevel" points="212.598,1316.2 2764.6,1316.2"/>
<polyline class="StaffLines" fill="none" stroke="#000000" stroke-width="2.73" stroke-linejoin="bevel" points="212.598,1341 2764.6,1341"/>
<polyline class="StaffLines" fill="none" stroke="#000000" stroke-width="2.73" stroke-linejoin="bevel" points="212.598,1365.8 2764.6,1365.8"/>
<polyline class="StaffLines" fill="none" stroke="#000000" stroke-width="2.73" stroke-linejoin="bevel" points="212.598,1390.6 2764.6,1390.6"/>
<polyline class="StaffLines" fill="none" stroke="#000000" stroke-width="2.73" stroke-linejoin="bevel" points="212.598,1415.4 2764.6,1415.4"/>
<path class="Text" d="M1060.87,229.975 C1061.97,229.865 1061.97,229.865 1064.06,229.645 C1079.9,228.545 1080.89,228.325 1088.59,226.345 C1082.32,231.625 1082.32,231.625 1078.69,236.135 C1069.12,247.905 1064.06,260.555 1064.06,272.765 C1064.06,290.805 1076.05,303.345 1093.32,303.345 C1106.41,303.345 1117.96,295.865 1122.8,284.205 C1125.66,277.495 1127.09,269.905 1127.09,261.655 C1127.09,252.965 1126.1,247.135 1122.69,236.685 C1123.57,238.225 1123.57,238.225 1124.89,240.535 C1125.99,242.625 1126.87,244.055 1128.63,246.915 C1132.48,252.965 1136.66,257.805 1142.6,262.975 C1145.13,265.175 1145.13,265.175 1147.11,267.045 L1151.29,259.345 C1149.64,258.685 1148.98,258.245 1147.22,256.705 C1140.51,251.315 1136.11,246.475 1131.38,239.545 C1126.98,233.165 1122.69,224.915 1121.04,219.525 L1113.12,222.165 C1117.19,230.525 1119.94,245.045 1119.94,257.585 C1119.94,267.045 1118.73,274.085 1115.98,280.575 C1112.13,289.595 1103,295.645 1093.32,295.645 C1080.78,295.645 1071.65,286.075 1071.65,272.875 C1071.65,261.655 1076.71,249.775 1086.72,237.675 C1091.34,232.175 1093.65,230.085 1099.59,225.905 L1094.97,218.975 C1090.9,220.955 1078.14,222.495 1065.93,222.495 C1063.62,222.495 1062.63,222.385 1060.76,222.055 L1060.87,229.975 M1191.77,221.395 C1201.56,225.905 1201.56,225.905 1208.6,228.325 C1215.97,230.965 1215.97,230.965 1230.05,234.595 L1233.13,226.895 C1221.14,225.025 1204.42,219.525 1195.84,214.685 L1191.77,221.395 M1182.64,233.275 C1182.53,235.255 1182.42,236.135 1181.87,239.105 C1180.33,248.345 1178.35,261.105 1177.25,269.465 C1176.81,272.985 1176.7,273.975 1176.37,275.955 L1184.95,276.175 C1186.82,273.755 1187.59,272.985 1189.35,271.665 C1197.6,265.615 1208.93,262.095 1220.15,262.095 C1233.57,262.095 1241.49,267.375 1241.49,276.395 C1241.49,287.615 1229.94,294.875 1211.79,294.875 C1202.55,294.875 1192.1,292.785 1183.74,289.375 C1184.4,292.235 1184.51,293.665 1184.51,296.195 C1184.51,296.635 1184.51,297.295 1184.4,298.285 C1191.11,299.935 1191.11,299.935 1193.2,300.485 C1199.25,301.805 1205.85,302.465 1212.45,302.465 C1224.11,302.465 1232.8,300.155 1239.84,295.205 C1246,290.805 1249.74,283.655 1249.74,276.285 C1249.74,263.415 1238.19,255.055 1220.26,255.055 C1208.16,255.055 1196.06,258.685 1188.47,264.515 C1187.26,265.505 1186.49,266.275 1185.06,267.815 L1184.84,267.705 C1185.06,266.715 1185.17,266.495 1185.28,265.175 C1185.61,262.645 1185.83,261.875 1188.47,245.925 C1189.46,239.875 1190.01,237.235 1191,233.825 L1182.64,233.275 M1281.75,223.155 C1281.97,225.135 1281.97,225.465 1282.08,229.645 C1282.63,256.705 1284.17,270.785 1288.02,281.235 C1291.76,291.795 1297.48,297.955 1303.64,297.955 C1311.45,297.955 1316.51,290.585 1321.9,271.335 C1318.82,268.915 1317.83,267.925 1315.41,265.065 C1313.98,272.545 1312.22,278.375 1309.69,283.875 C1308.04,287.505 1306.17,289.375 1304.19,289.375 C1300.01,289.375 1295.5,281.785 1293.08,270.565 C1291.43,263.525 1290.22,248.455 1290.22,236.355 C1290.22,230.305 1290.44,226.675 1290.99,223.265 L1281.75,223.155 M1337.41,232.505 C1350.28,247.465 1358.31,266.275 1360.29,286.735 L1368.1,283.545 C1366.12,271.225 1364.03,263.415 1359.85,254.175 C1355.78,244.825 1351.27,237.565 1344.12,229.095 L1337.41,232.505 M1389,239.765 C1389.99,239.655 1390.65,239.655 1390.87,239.655 C1390.87,239.655 1391.09,239.655 1391.31,239.655 C1395.6,239.875 1396.59,239.875 1400.44,239.875 C1404.51,239.875 1405.83,239.875 1408.03,239.765 C1403.96,261.325 1395.49,286.405 1387.35,300.595 L1395.38,304.005 C1401.21,290.585 1404.4,282.225 1408.03,270.455 C1411,260.445 1414.08,248.015 1415.73,239.325 C1421.12,238.885 1428.71,237.895 1434.32,236.685 C1436.52,236.245 1436.52,236.245 1437.4,236.135 L1436.85,228.545 C1431.57,230.305 1425.63,231.405 1417.05,232.285 C1417.6,228.985 1417.93,227.445 1418.48,223.925 C1419.8,216.115 1419.8,216.115 1420.46,213.475 L1411.77,212.595 C1411.77,217.435 1411.55,219.305 1409.35,232.835 C1406.16,233.055 1404.95,233.055 1402.75,233.055 C1396.92,233.055 1392.52,232.725 1389,232.065 L1389,239.765 M1472.05,245.155 C1463.8,244.825 1462.15,244.825 1460.06,244.825 C1450.82,244.825 1443.67,245.705 1430.91,248.455 L1431.68,255.935 C1441.69,253.185 1449.39,252.195 1459.18,252.195 C1463.8,252.195 1466.88,252.415 1472.16,252.965 L1472.05,245.155 M1432.01,268.915 C1426.18,276.395 1424.64,279.805 1424.64,284.755 C1424.64,295.645 1433.99,301.255 1452.03,301.255 C1457.86,301.255 1464.24,300.705 1471.61,299.385 C1475.24,298.835 1475.24,298.835 1476.45,298.615 L1475.68,290.365 C1469.41,292.565 1459.62,294.105 1451.37,294.105 C1438.83,294.105 1432.12,290.585 1432.12,283.985 C1432.12,281.345 1433.11,278.485 1434.87,276.175 C1435.64,274.965 1435.97,274.635 1438.17,271.995 L1432.01,268.915 M1500.87,229.975 C1501.97,229.865 1501.97,229.865 1504.06,229.645 C1519.9,228.545 1520.89,228.325 1528.59,226.345 C1522.32,231.625 1522.32,231.625 1518.69,236.135 C1509.12,247.905 1504.06,260.555 1504.06,272.765 C1504.06,290.805 1516.05,303.345 1533.32,303.345 C1546.41,303.345 1557.96,295.865 1562.8,284.205 C1565.66,277.495 1567.09,269.905 1567.09,261.655 C1567.09,252.965 1566.1,247.135 1562.69,236.685 C1563.57,238.225 1563.57,238.225 1564.89,240.535 C1565.99,242.625 1566.87,244.055 1568.63,246.915 C1572.48,252.965 1576.66,257.805 1582.6,262.975 C1585.13,265.175 1585.13,265.175 1587.11,267.045 L1591.29,259.345 C1589.64,258.685 1588.98,258.245 1587.22,256.705 C1580.51,251.315 1576.11,246.475 1571.38,239.545 C1566.98,233.165 1562.69,224.915 1561.04,219.525 L1553.12,222.165 C1557.19,230.525 1559.94,245.045 1559.94,257.585 C1559.94,267.045 1558.73,274.085 1555.98,280.575 C1552.13,289.595 1543,295.645 1533.32,295.645 C1520.78,295.645 1511.65,286.075 1511.65,272.875 C1511.65,261.655 1516.71,249.775 1526.72,237.675 C1531.34,232.175 1533.65,230.085 1539.59,225.905 L1534.97,218.975 C1530.9,220.955 1518.14,222.495 1505.93,222.495 C1503.62,222.495 1502.63,222.385 1500.76,222.055 L1500.87,229.975 M1631.77,221.395 C1641.56,225.905 1641.56,225.905 1648.6,228.325 C1655.97,230.965 1655.97,230.965 1670.05,234.595 L1673.13,226.895 C1661.14,225.025 1644.42,219.525 1635.84,214.685 L1631.77,221.395 M1622.64,233.275 C1622.53,235.255 1622.42,236.135 1621.87,239.105 C1620.33,248.345 1618.35,261.105 1617.25,269.465 C1616.81,272.985 1616.7,273.975 1616.37,275.955 L1624.95,276.175 C1626.82,273.755 1627.59,272.985 1629.35,271.665 C1637.6,265.615 1648.93,262.095 1660.15,262.095 C1673.57,262.095 1681.49,267.375 1681.49,276.395 C1681.49,287.615 1669.94,294.875 1651.79,294.875 C1642.55,294.875 1632.1,292.785 1623.74,289.375 C1624.4,292.235 1624.51,293.665 1624.51,296.195 C1624.51,296.635 1624.51,297.295 1624.4,298.285 C1631.11,299.935 1631.11,299.935 1633.2,300.485 C1639.25,301.805 1645.85,302.465 1652.45,302.465 C1664.11,302.465 1672.8,300.155 1679.84,295.205 C1686,290.805 1689.74,283.655 1689.74,276.285 C1689.74,263.415 1678.19,255.055 1660.26,255.055 C1648.16,255.055 1636.06,258.685 1628.47,264.515 C1627.26,265.505 1626.49,266.275 1625.06,267.815 L1624.84,267.705 C1625.06,266.715 1625.17,266.495 1625.28,265.175 C1625.61,262.645 1625.83,261.875 1628.47,245.925 C1629.46,239.875 1630.01,237.235 1631,233.825 L1622.64,233.275 M1721.75,223.155 C1721.97,225.135 1721.97,225.465 1722.08,229.645 C1722.63,256.705 1724.17,270.785 1728.02,281.235 C1731.76,291.795 1737.48,297.955 1743.64,297.955 C1751.45,297.955 1756.51,290.585 1761.9,271.335 C1758.82,268.915 1757.83,267.925 1755.41,265.065 C1753.98,272.545 1752.22,278.375 1749.69,283.875 C1748.04,287.505 1746.17,289.375 1744.19,289.375 C1740.01,289.375 1735.5,281.785 1733.08,270.565 C1731.43,263.525 1730.22,248.455 1730.22,236.355 C1730.22,230.305 1730.44,226.675 1730.99,223.265 L1721.75,223.155 M1777.41,232.505 C1790.28,247.465 1798.31,266.275 1800.29,286.735 L1808.1,283.545 C1806.12,271.225 1804.03,263.415 1799.85,254.175 C1795.78,244.825 1791.27,237.565 1784.12,229.095 L1777.41,232.505 M1829,239.765 C1829.99,239.655 1830.65,239.655 1830.87,239.655 C1830.87,239.655 1831.09,239.655 1831.31,239.655 C1835.6,239.875 1836.59,239.875 1840.44,239.875 C1844.51,239.875 1845.83,239.875 1848.03,239.765 C1843.96,261.325 1835.49,286.405 1827.35,300.595 L1835.38,304.005 C1841.21,290.585 1844.4,282.225 1848.03,270.455 C1851,260.445 1854.08,248.015 1855.73,239.325 C1861.12,238.885 1868.71,237.895 1874.32,236.685 C1876.52,236.245 1876.52,236.245 1877.4,236.135 L1876.85,228.545 C1871.57,230.305 1865.63,231.405 1857.05,232.285 C1857.6,228.985 1857.93,227.445 1858.48,223.925 C1859.8,216.115 1859.8,216.115 1860.46,213.475 L1851.77,212.595 C1851.77,217.435 1851.55,219.305 1849.35,232.835 C1846.16,233.055 1844.95,233.055 1842.75,233.055 C1836.92,233.055 1832.52,232.725 1829,232.065 L1829,239.765 M1912.05,245.155 C1903.8,244.825 1902.15,244.825 1900.06,244.825 C1890.82,244.825 1883.67,245.705 1870.91,248.455 L1871.68,255.935 C1881.69,253.185 1889.39,252.195 1899.18,252.195 C1903.8,252.195 1906.88,252.415 1912.16,252.965 L1912.05,245.155 M1872.01,268.915 C1866.18,276.395 1864.64,279.805 1864.64,284.755 C1864.64,295.645 1873.99,301.255 1892.03,301.255 C1897.86,301.255 1904.24,300.705 1911.61,299.385 C1915.24,298.835 1915.24,298.835 1916.45,298.615 L1915.68,290.365 C1909.41,292.565 1899.62,294.105 1891.37,294.105 C1878.83,294.105 1872.12,290.585 1872.12,283.985 C1872.12,281.345 1873.11,278.485 1874.87,276.175 C1875.64,274.965 1875.97,274.635 1878.17,271.995 L1872.01,268.915 "/>
<path class="MeasureNumber" d="M232.288,1238.44 C230.168,1238.68 227.568,1238.84 225.328,1238.84 C224.208,1238.84 222.928,1238.8 221.488,1238.72 C220.168,1238.64 218.848,1238.56 217.488,1238.48 L216.488,1238.44 L212.608,1246.88 L214.088,1247.36 L215.048,1245.76 C216.928,1242.64 217.808,1242.2 221.888,1242.24 L228.648,1242.24 L224.288,1248.48 C219.168,1255.68 219.168,1255.68 217.208,1258.88 C215.448,1261.72 214.728,1263.48 214.728,1264.92 C214.728,1266.32 215.608,1267.2 217.008,1267.2 C218.488,1267.2 219.248,1266.48 219.768,1264.6 C221.768,1257.08 222.968,1254.48 228.528,1245.48 L232.288,1239.64 L232.288,1238.44 "/>
<polyline class="BarLine" fill="none" stroke="#000000" stroke-width="4.46" stroke-linejoin="bevel" points="1110.28,632.834 1110.28,734.762"/>
<polyline class="BarLine" fill="none" stroke="#000000" stroke-width="4.46" stroke-linejoin="bevel" points="2416.28,1314.83 2416.28,1416.76"/>
<polyline class="BarLine" fill="none" stroke="#000000" stroke-width="4.46" stroke-linejoin="bevel" points="2070.19,1314.83 2070.19,1416.76"/>
<polyline class="BarLine" fill="none" stroke="#000000" stroke-width="4.46" stroke-linejoin="bevel" points="1672.33,1314.83 1672.33,1416.76"/>
<polyline class="BarLine" fill="none" stroke="#000000" stroke-width="4.46" stroke-linejoin="bevel" points="1222.7,1314.83 1222.7,1416.76"/>
<polyline class="BarLine" fill="none" stroke="#000000" stroke-width="4.46" stroke-linejoin="bevel" points="773.07,1314.83 773.07,1416.76"/>
<polyline class="BarLine" fill="none" stroke="#000000" stroke-width="4.46" stroke-linejoin="bevel" points="700.207,632.834 700.207,734.762"/>
<polyline class="BarLine" fill="none" stroke="#000000" stroke-width="4.46" stroke-linejoin="bevel" points="2762.37,632.834 2762.37,734.762"/>
<polyline class="BarLine" fill="none" stroke="#000000" stroke-width="4.46" stroke-linejoin="bevel" points="2762.37,1314.83 2762.37,1416.76"/>
<polyline class="BarLine" fill="none" stroke="#000000" stroke-width="4.46" stroke-linejoin="bevel" points="2352.3,632.834 2352.3,734.762"/>
<polyline class="BarLine" fill="none" stroke="#000000" stroke-width="4.46" stroke-linejoin="bevel" points="1901.61,632.834 1901.61,734.762"/>
<polyline class="BarLine" fill="none" stroke="#000000" stroke-width="4.46" stroke-linejoin="bevel" points="1491.54,632.834 1491.54,734.762"/>
<polyline class="Stem" fill="none" stroke="#000000" stroke-width="2.48" stroke-linejoin="bevel" points="2416.51,692.23 2416.51,615.651"/>
<polyline class="Stem" fill="none" stroke="#000000" stroke-width="2.48" stroke-linejoin="bevel" points="2560.59,704.63 2560.59,621.746"/>
<polyline class="Stem" fill="none" stroke="#000000" stroke-width="2.48" stroke-linejoin="bevel" points="1464.26,1345.16 1464.26,1427.87"/>
<polyline class="Stem" fill="none" stroke="#000000" stroke-width="2.48" stroke-linejoin="bevel" points="1174.5,692.23 1174.5,628.085"/>
<polyline class="Stem" fill="none" stroke="#000000" stroke-width="2.48" stroke-linejoin="bevel" points="1360.71,1369.96 1360.71,1434"/>
<polyline class="Stem" fill="none" stroke="#000000" stroke-width="2.48" stroke-linejoin="bevel" points="1736.55,1374.23 1736.55,1297.6"/>
<polyline class="Stem" fill="none" stroke="#000000" stroke-width="2.48" stroke-linejoin="bevel" points="1260.95,704.63 1260.95,634.112"/>
<polyline class="Stem" fill="none" stroke="#000000" stroke-width="2.48" stroke-linejoin="bevel" points="1257.17,1369.96 1257.17,1434"/>
<polyline class="Stem" fill="none" stroke="#000000" stroke-width="2.48" stroke-linejoin="bevel" points="1347.39,692.23 1347.39,621.712"/>
<polyline class="Stem" fill="none" stroke="#000000" stroke-width="2.48" stroke-linejoin="bevel" points="556.063,692.23 556.063,628.085"/>
<polyline class="Stem" fill="none" stroke="#000000" stroke-width="2.48" stroke-linejoin="bevel" points="2480.5,1374.23 2480.5,1297.6"/>
<polyline class="Stem" fill="none" stroke="#000000" stroke-width="2.48" stroke-linejoin="bevel" points="1433.84,679.83 1433.84,615.685"/>
<polyline class="Stem" fill="none" stroke="#000000" stroke-width="2.48" stroke-linejoin="bevel" points="1147.91,1386.63 1147.91,1316.2"/>
<polyline class="Stem" fill="none" stroke="#000000" stroke-width="2.48" stroke-linejoin="bevel" points="966.137,729.43 966.137,646.797"/>
<polyline class="Stem" fill="none" stroke="#000000" stroke-width="2.48" stroke-linejoin="bevel" points="2134.41,1386.63 2134.41,1303.8"/>
<polyline class="Stem" fill="none" stroke="#000000" stroke-width="2.48" stroke-linejoin="bevel" points="1555.76,692.23 1555.76,615.651"/>
<polyline class="Stem" fill="none" stroke="#000000" stroke-width="2.48" stroke-linejoin="bevel" points="1044.37,1386.63 1044.37,1316.2"/>
<polyline class="Stem" fill="none" stroke="#000000" stroke-width="2.48" stroke-linejoin="bevel" points="940.828,1386.63 940.828,1316.2"/>
<polyline class="Stem" fill="none" stroke="#000000" stroke-width="2.48" stroke-linejoin="bevel" points="1642.2,692.23 1642.2,619.308"/>
<polyline class="Stem" fill="none" stroke="#000000" stroke-width="2.48" stroke-linejoin="bevel" points="1891.86,1361.83 1891.86,1297.67"/>
<polyline class="Stem" fill="none" stroke="#000000" stroke-width="2.48" stroke-linejoin="bevel" points="1699.84,704.63 1699.84,621.746"/>
<polyline class="Stem" fill="none" stroke="#000000" stroke-width="2.48" stroke-linejoin="bevel" points="837.286,1386.63 837.286,1316.2"/>
<polyline class="Stem" fill="none" stroke="#000000" stroke-width="2.48" stroke-linejoin="bevel" points="850.872,692.23 850.872,619.308"/>
<polyline class="Stem" fill="none" stroke="#000000" stroke-width="2.48" stroke-linejoin="bevel" points="1757.47,729.43 1757.47,646.797"/>
<polyline class="Stem" fill="none" stroke="#000000" stroke-width="2.48" stroke-linejoin="bevel" points="642.511,704.63 642.511,634.112"/>
<polyline class="Stem" fill="none" stroke="#000000" stroke-width="2.48" stroke-linejoin="bevel" points="698.281,1386.63 698.281,1316.2"/>
<polyline class="Stem" fill="none" stroke="#000000" stroke-width="2.48" stroke-linejoin="bevel" points="1995.4,1374.23 1995.4,1303.73"/>
<polyline class="Stem" fill="none" stroke="#000000" stroke-width="2.48" stroke-linejoin="bevel" points="908.504,704.63 908.504,621.746"/>
<polyline class="Stem" fill="none" stroke="#000000" stroke-width="2.48" stroke-linejoin="bevel" points="1965.83,692.23 1965.83,615.598"/>
<polyline class="Stem" fill="none" stroke="#000000" stroke-width="2.48" stroke-linejoin="bevel" points="594.739,1386.63 594.739,1316.2"/>
<polyline class="Stem" fill="none" stroke="#000000" stroke-width="2.48" stroke-linejoin="bevel" points="491.197,1374.23 491.197,1310"/>
<polyline class="Stem" fill="none" stroke="#000000" stroke-width="2.48" stroke-linejoin="bevel" points="2052.28,692.23 2052.28,615.598"/>
<polyline class="Stem" fill="none" stroke="#000000" stroke-width="2.48" stroke-linejoin="bevel" points="387.655,1374.23 387.655,1310"/>
<polyline class="Stem" fill="none" stroke="#000000" stroke-width="2.48" stroke-linejoin="bevel" points="2109.91,692.23 2109.91,615.598"/>
<polyline class="Stem" fill="none" stroke="#000000" stroke-width="2.48" stroke-linejoin="bevel" points="764.424,692.23 764.424,615.651"/>
<polyline class="Stem" fill="none" stroke="#000000" stroke-width="2.48" stroke-linejoin="bevel" points="2167.54,692.23 2167.54,615.546"/>
<polyline class="Stem" fill="none" stroke="#000000" stroke-width="2.48" stroke-linejoin="bevel" points="426.39,692.23 426.39,615.598"/>
<polyline class="Stem" fill="none" stroke="#000000" stroke-width="2.48" stroke-linejoin="bevel" points="2289.72,1386.63 2289.72,1303.8"/>
<polyline class="Stem" fill="none" stroke="#000000" stroke-width="2.48" stroke-linejoin="bevel" points="2253.99,679.83 2253.99,611.889"/>
<polyline class="Stem" fill="none" stroke="#000000" stroke-width="2.48" stroke-linejoin="bevel" points="2618.23,729.43 2618.23,646.797"/>
<polyline class="Stem" fill="none" stroke="#000000" stroke-width="2.48" stroke-linejoin="bevel" points="2311.62,679.83 2311.62,609.451"/>
<polyline class="Stem" fill="none" stroke="#000000" stroke-width="2.48" stroke-linejoin="bevel" points="2502.96,692.23 2502.96,619.308"/>
<polyline class="Stem" fill="none" stroke="#000000" stroke-width="2.48" stroke-linejoin="bevel" points="1567.8,1369.96 1567.8,1433.93"/>
<path class="Hook" transform="matrix(0.992,0,0,0.992,2616.99,646.598)" d="M0,22.7 C0,23 0.1,23.6 0.8,23.8 C5.1,25.2 13.7,30.6 20.2,41.7 C22,44.8 24.9,49.1 24.9,57.4 C24.9,64.6 23.1,72 20.4,79.2 C20.2,79.8 20.1,80.3 20.1,80.7 C20.1,81.4 20.5,81.7 21.2,81.7 C21.8,81.7 22.3,81.3 22.7,80.6 C27.2,72.6 28.9,63.3 28.9,54.2 C28.4,41.3 21,31.8 21,31.8 C21.3,31.8 11.8,19.5 9.1,15.3 C5.4,9.6 3.7,3.9 3.5,3.5 C3.4,3.2 2.5,-0.4 2.5,-0.4 C2.4,-0.8 1.9,-1.2 1.3,-1.2 C0.6,-1.2 0,-0.6 0,0.1 L0,22.7 "/>
<path class="Hook" transform="matrix(0.992,0,0,0.992,1756.23,646.598)" d="M0,22.7 C0,23 0.1,23.6 0.8,23.8 C5.1,25.2 13.7,30.6 20.2,41.7 C22,44.8 24.9,49.1 24.9,57.4 C24.9,64.6 23.1,72 20.4,79.2 C20.2,79.8 20.1,80.3 20.1,80.7 C20.1,81.4 20.5,81.7 21.2,81.7 C21.8,81.7 22.3,81.3 22.7,80.6 C27.2,72.6 28.9,63.3 28.9,54.2 C28.4,41.3 21,31.8 21,31.8 C21.3,31.8 11.8,19.5 9.1,15.3 C5.4,9.6 3.7,3.9 3.5,3.5 C3.4,3.2 2.5,-0.4 2.5,-0.4 C2.4,-0.8 1.9,-1.2 1.3,-1.2 C0.6,-1.2 0,-0.6 0,0.1 L0,22.7 "/>
<path class="Hook" transform="matrix(0.992,0,0,0.992,964.897,646.598)" d="M0,22.7 C0,23 0.1,23.6 0.8,23.8 C5.1,25.2 13.7,30.6 20.2,41.7 C22,44.8 24.9,49.1 24.9,57.4 C24.9,64.6 23.1,72 20.4,79.2 C20.2,79.8 20.1,80.3 20.1,80.7 C20.1,81.4 20.5,81.7 21.2,81.7 C21.8,81.7 22.3,81.3 22.7,80.6 C27.2,72.6 28.9,63.3 28.9,54.2 C28.4,41.3 21,31.8 21,31.8 C21.3,31.8 11.8,19.5 9.1,15.3 C5.4,9.6 3.7,3.9 3.5,3.5 C3.4,3.2 2.5,-0.4 2.5,-0.4 C2.4,-0.8 1.9,-1.2 1.3,-1.2 C0.6,-1.2 0,-0.6 0,0.1 L0,22.7 "/>
<path class="Note" transform="matrix(0.992,0,0,0.992,1566.56,1365.8)" d="M0,4.2 C0,8.5 3.1,13.3 11.2,13.3 C21.6,13.3 32.5,4.8 32.5,-4 C32.5,-9.9 27.5,-13.2 21.3,-13.2 C11.6,-13.2 0,-5 0,4.2"/>
<path class="Note" transform="matrix(0.992,0,0,0.992,1143.51,696.198)" d="M0,4.2 C0,8.5 3.1,13.3 11.2,13.3 C21.6,13.3 32.5,4.8 32.5,-4 C32.5,-9.9 27.5,-13.2 21.3,-13.2 C11.6,-13.2 0,-5 0,4.2"/>
<path class="Note" transform="matrix(0.992,0,0,0.992,2103.42,1390.6)" d="M0,4.2 C0,8.5 3.1,13.3 11.2,13.3 C21.6,13.3 32.5,4.8 32.5,-4 C32.5,-9.9 27.5,-13.2 21.3,-13.2 C11.6,-13.2 0,-5 0,4.2"/>
<path class="Note" transform="matrix(0.992,0,0,0.992,2471.98,696.198)" d="M0,4.2 C0,8.5 3.1,13.3 11.2,13.3 C21.6,13.3 32.5,4.8 32.5,-4 C32.5,-9.9 27.5,-13.2 21.3,-13.2 C11.6,-13.2 0,-5 0,4.2"/>
<path class="Note" transform="matrix(0.992,0,0,0.992,819.888,696.198)" d="M0,4.2 C0,8.5 3.1,13.3 11.2,13.3 C21.6,13.3 32.5,4.8 32.5,-4 C32.5,-9.9 27.5,-13.2 21.3,-13.2 C11.6,-13.2 0,-5 0,4.2"/>
<path class="Note" transform="matrix(0.992,0,0,0.992,2529.61,708.598)" d="M0,4.2 C0,8.5 3.1,13.3 11.2,13.3 C21.6,13.3 32.5,4.8 32.5,-4 C32.5,-9.9 27.5,-13.2 21.3,-13.2 C11.6,-13.2 0,-5 0,4.2"/>
<path class="Note" transform="matrix(0.992,0,0,0.992,2280.64,683.798)" d="M0,4.2 C0,8.5 3.1,13.3 11.2,13.3 C21.6,13.3 32.5,4.8 32.5,-4 C32.5,-9.9 27.5,-13.2 21.3,-13.2 C11.6,-13.2 0,-5 0,4.2"/>
<path class="Note" transform="matrix(0.992,0,0,0.992,2223.01,683.798)" d="M0,4.2 C0,8.5 3.1,13.3 11.2,13.3 C21.6,13.3 32.5,4.8 32.5,-4 C32.5,-9.9 27.5,-13.2 21.3,-13.2 C11.6,-13.2 0,-5 0,4.2"/>
<path class="Note" transform="matrix(0.992,0,0,0.992,2587.24,733.398)" d="M0,4.2 C0,8.5 3.1,13.3 11.2,13.3 C21.6,13.3 32.5,4.8 32.5,-4 C32.5,-9.9 27.5,-13.2 21.3,-13.2 C11.6,-13.2 0,-5 0,4.2"/>
<path class="Note" transform="matrix(0.992,0,0,0.992,2136.56,696.198)" d="M0,4.2 C0,8.5 3.1,13.3 11.2,13.3 C21.6,13.3 32.5,4.8 32.5,-4 C32.5,-9.9 27.5,-13.2 21.3,-13.2 C11.6,-13.2 0,-5 0,4.2"/>
<path class="Note" transform="matrix(0.992,0,0,0.992,733.439,696.198)" d="M0,4.2 C0,8.5 3.1,13.3 11.2,13.3 C21.6,13.3 32.5,4.8 32.5,-4 C32.5,-9.9 27.5,-13.2 21.3,-13.2 C11.6,-13.2 0,-5 0,4.2"/>
<path class="Note" transform="matrix(0.992,0,0,0.992,2078.93,696.198)" d="M0,4.2 C0,8.5 3.1,13.3 11.2,13.3 C21.6,13.3 32.5,4.8 32.5,-4 C32.5,-9.9 27.5,-13.2 21.3,-13.2 C11.6,-13.2 0,-5 0,4.2"/>
<path class="Note" transform="matrix(0.992,0,0,0.992,611.527,708.598)" d="M0,4.2 C0,8.5 3.1,13.3 11.2,13.3 C21.6,13.3 32.5,4.8 32.5,-4 C32.5,-9.9 27.5,-13.2 21.3,-13.2 C11.6,-13.2 0,-5 0,4.2"/>
<path class="Note" transform="matrix(0.992,0,0,0.992,395.405,696.198)" d="M0,4.2 C0,8.5 3.1,13.3 11.2,13.3 C21.6,13.3 32.5,4.8 32.5,-4 C32.5,-9.9 27.5,-13.2 21.3,-13.2 C11.6,-13.2 0,-5 0,4.2"/>
<path class="Note" transform="matrix(0.992,0,0,0.992,1463.02,1341)" d="M0,4.2 C0,8.5 3.1,13.3 11.2,13.3 C21.6,13.3 32.5,4.8 32.5,-4 C32.5,-9.9 27.5,-13.2 21.3,-13.2 C11.6,-13.2 0,-5 0,4.2"/>
<path class="Note" transform="matrix(0.992,0,0,0.992,2021.29,696.198)" d="M0,4.2 C0,8.5 3.1,13.3 11.2,13.3 C21.6,13.3 32.5,4.8 32.5,-4 C32.5,-9.9 27.5,-13.2 21.3,-13.2 C11.6,-13.2 0,-5 0,4.2"/>
<path class="Note" transform="matrix(0.992,0,0,0.992,356.671,1378.2)" d="M0,4.2 C0,8.5 3.1,13.3 11.2,13.3 C21.6,13.3 32.5,4.8 32.5,-4 C32.5,-9.9 27.5,-13.2 21.3,-13.2 C11.6,-13.2 0,-5 0,4.2"/>
<path class="Note" transform="matrix(0.992,0,0,0.992,1964.42,1378.2)" d="M0,4.2 C0,8.5 3.1,13.3 11.2,13.3 C21.6,13.3 32.5,4.8 32.5,-4 C32.5,-9.9 27.5,-13.2 21.3,-13.2 C11.6,-13.2 0,-5 0,4.2"/>
<path class="Note" transform="matrix(0.992,0,0,0.992,2258.74,1390.6)" d="M0,4.2 C0,8.5 3.1,13.3 11.2,13.3 C21.6,13.3 32.5,4.8 32.5,-4 C32.5,-9.9 27.5,-13.2 21.3,-13.2 C11.6,-13.2 0,-5 0,4.2"/>
<path class="Note" transform="matrix(0.992,0,0,0.992,460.213,1378.2)" d="M0,4.2 C0,8.5 3.1,13.3 11.2,13.3 C21.6,13.3 32.5,4.8 32.5,-4 C32.5,-9.9 27.5,-13.2 21.3,-13.2 C11.6,-13.2 0,-5 0,4.2"/>
<path class="Note" transform="matrix(0.992,0,0,0.992,1934.85,696.198)" d="M0,4.2 C0,8.5 3.1,13.3 11.2,13.3 C21.6,13.3 32.5,4.8 32.5,-4 C32.5,-9.9 27.5,-13.2 21.3,-13.2 C11.6,-13.2 0,-5 0,4.2"/>
<path class="Note" transform="matrix(0.992,0,0,0.992,563.754,1390.6)" d="M0,4.2 C0,8.5 3.1,13.3 11.2,13.3 C21.6,13.3 32.5,4.8 32.5,-4 C32.5,-9.9 27.5,-13.2 21.3,-13.2 C11.6,-13.2 0,-5 0,4.2"/>
<path class="Note" transform="matrix(0.992,0,0,0.992,877.52,708.598)" d="M0,4.2 C0,8.5 3.1,13.3 11.2,13.3 C21.6,13.3 32.5,4.8 32.5,-4 C32.5,-9.9 27.5,-13.2 21.3,-13.2 C11.6,-13.2 0,-5 0,4.2"/>
<path class="Note" transform="matrix(0.992,0,0,0.992,935.152,733.398)" d="M0,4.2 C0,8.5 3.1,13.3 11.2,13.3 C21.6,13.3 32.5,4.8 32.5,-4 C32.5,-9.9 27.5,-13.2 21.3,-13.2 C11.6,-13.2 0,-5 0,4.2"/>
<path class="Note" transform="matrix(0.992,0,0,0.992,667.296,1390.6)" d="M0,4.2 C0,8.5 3.1,13.3 11.2,13.3 C21.6,13.3 32.5,4.8 32.5,-4 C32.5,-9.9 27.5,-13.2 21.3,-13.2 C11.6,-13.2 0,-5 0,4.2"/>
<path class="Note" transform="matrix(0.992,0,0,0.992,1726.48,733.398)" d="M0,4.2 C0,8.5 3.1,13.3 11.2,13.3 C21.6,13.3 32.5,4.8 32.5,-4 C32.5,-9.9 27.5,-13.2 21.3,-13.2 C11.6,-13.2 0,-5 0,4.2"/>
<path class="Note" transform="matrix(0.992,0,0,0.992,1860.88,1365.8)" d="M0,4.2 C0,8.5 3.1,13.3 11.2,13.3 C21.6,13.3 32.5,4.8 32.5,-4 C32.5,-9.9 27.5,-13.2 21.3,-13.2 C11.6,-13.2 0,-5 0,4.2"/>
<path class="Note" transform="matrix(0.992,0,0,0.992,1668.85,708.598)" d="M0,4.2 C0,8.5 3.1,13.3 11.2,13.3 C21.6,13.3 32.5,4.8 32.5,-4 C32.5,-9.9 27.5,-13.2 21.3,-13.2 C11.6,-13.2 0,-5 0,4.2"/>
<path class="Note" transform="matrix(0.992,0,0,0.992,806.302,1390.6)" d="M0,4.2 C0,8.5 3.1,13.3 11.2,13.3 C21.6,13.3 32.5,4.8 32.5,-4 C32.5,-9.9 27.5,-13.2 21.3,-13.2 C11.6,-13.2 0,-5 0,4.2"/>
<path class="Note" transform="matrix(0.992,0,0,0.992,1611.22,696.198)" d="M0,4.2 C0,8.5 3.1,13.3 11.2,13.3 C21.6,13.3 32.5,4.8 32.5,-4 C32.5,-9.9 27.5,-13.2 21.3,-13.2 C11.6,-13.2 0,-5 0,4.2"/>
<path class="Note" transform="matrix(0.992,0,0,0.992,1359.47,1365.8)" d="M0,4.2 C0,8.5 3.1,13.3 11.2,13.3 C21.6,13.3 32.5,4.8 32.5,-4 C32.5,-9.9 27.5,-13.2 21.3,-13.2 C11.6,-13.2 0,-5 0,4.2"/>
<path class="Note" transform="matrix(0.992,0,0,0.992,909.843,1390.6)" d="M0,4.2 C0,8.5 3.1,13.3 11.2,13.3 C21.6,13.3 32.5,4.8 32.5,-4 C32.5,-9.9 27.5,-13.2 21.3,-13.2 C11.6,-13.2 0,-5 0,4.2"/>
<path class="Note" transform="matrix(0.992,0,0,0.992,1524.77,696.198)" d="M0,4.2 C0,8.5 3.1,13.3 11.2,13.3 C21.6,13.3 32.5,4.8 32.5,-4 C32.5,-9.9 27.5,-13.2 21.3,-13.2 C11.6,-13.2 0,-5 0,4.2"/>
<path class="Note" transform="matrix(0.992,0,0,0.992,1013.39,1390.6)" d="M0,4.2 C0,8.5 3.1,13.3 11.2,13.3 C21.6,13.3 32.5,4.8 32.5,-4 C32.5,-9.9 27.5,-13.2 21.3,-13.2 C11.6,-13.2 0,-5 0,4.2"/>
<path class="Note" transform="matrix(0.992,0,0,0.992,1705.56,1378.2)" d="M0,4.2 C0,8.5 3.1,13.3 11.2,13.3 C21.6,13.3 32.5,4.8 32.5,-4 C32.5,-9.9 27.5,-13.2 21.3,-13.2 C11.6,-13.2 0,-5 0,4.2"/>
<path class="Note" transform="matrix(0.992,0,0,0.992,1402.86,683.798)" d="M0,4.2 C0,8.5 3.1,13.3 11.2,13.3 C21.6,13.3 32.5,4.8 32.5,-4 C32.5,-9.9 27.5,-13.2 21.3,-13.2 C11.6,-13.2 0,-5 0,4.2"/>
<path class="Note" transform="matrix(0.992,0,0,0.992,1116.93,1390.6)" d="M0,4.2 C0,8.5 3.1,13.3 11.2,13.3 C21.6,13.3 32.5,4.8 32.5,-4 C32.5,-9.9 27.5,-13.2 21.3,-13.2 C11.6,-13.2 0,-5 0,4.2"/>
<path class="Note" transform="matrix(0.992,0,0,0.992,525.078,696.198)" d="M0,4.2 C0,8.5 3.1,13.3 11.2,13.3 C21.6,13.3 32.5,4.8 32.5,-4 C32.5,-9.9 27.5,-13.2 21.3,-13.2 C11.6,-13.2 0,-5 0,4.2"/>
<path class="Note" transform="matrix(0.992,0,0,0.992,1316.41,696.198)" d="M0,4.2 C0,8.5 3.1,13.3 11.2,13.3 C21.6,13.3 32.5,4.8 32.5,-4 C32.5,-9.9 27.5,-13.2 21.3,-13.2 C11.6,-13.2 0,-5 0,4.2"/>
<path class="Note" transform="matrix(0.992,0,0,0.992,1229.96,708.598)" d="M0,4.2 C0,8.5 3.1,13.3 11.2,13.3 C21.6,13.3 32.5,4.8 32.5,-4 C32.5,-9.9 27.5,-13.2 21.3,-13.2 C11.6,-13.2 0,-5 0,4.2"/>
<path class="Note" transform="matrix(0.992,0,0,0.992,1255.93,1365.8)" d="M0,4.2 C0,8.5 3.1,13.3 11.2,13.3 C21.6,13.3 32.5,4.8 32.5,-4 C32.5,-9.9 27.5,-13.2 21.3,-13.2 C11.6,-13.2 0,-5 0,4.2"/>
<path class="Note" transform="matrix(0.992,0,0,0.992,2449.51,1378.2)" d="M0,4.2 C0,8.5 3.1,13.3 11.2,13.3 C21.6,13.3 32.5,4.8 32.5,-4 C32.5,-9.9 27.5,-13.2 21.3,-13.2 C11.6,-13.2 0,-5 0,4.2"/>
<path class="Note" transform="matrix(0.992,0,0,0.992,2385.53,696.198)" d="M0,4.2 C0,8.5 3.1,13.3 11.2,13.3 C21.6,13.3 32.5,4.8 32.5,-4 C32.5,-9.9 27.5,-13.2 21.3,-13.2 C11.6,-13.2 0,-5 0,4.2"/>
<path class="Clef" transform="matrix(0.992,0,0,0.992,231.198,708.598)" d="M12.3,51.3 C12.3,57.9 17.3,66.6 30.8,66.6 C35.5,66.6 39.6,65.4 43.2,63.2 C48.6,59.4 50,52.8 50,46.5 C50,42.6 49.4,38.1 48.4,32.4 C48.1,30.4 47.5,27.4 46.9,23.5 C56.7,20.3 64,10.1 64,-0.2 C64,-15.3 53.3,-25.5 38.7,-25.5 C37.7,-31.5 36.7,-37.4 35.9,-43 C46.4,-54.1 53.7,-66.6 53.7,-82.5 C53.7,-91.6 50.9,-99 49.3,-102.6 C46.9,-107.7 44,-111.2 42.2,-111.2 C41.5,-111.2 38.4,-110 35.1,-106.1 C28.7,-98.5 26.9,-85.7 26.9,-77.3 C26.9,-71.9 27.4,-67 29.1,-55.8 C29,-55.7 23.8,-50.4 21.7,-48.7 C12.6,-40.3 0,-28.1 0,-8.1 C0,10.6 16.3,25.3 34.9,25.3 C37.8,25.3 40.5,25 42.8,24.6 C44.7,34.2 45.9,41.2 45.9,46.5 C45.9,56.9 40.5,62.4 30.4,62.4 C28,62.4 25.9,61.9 25.7,61.9 C25.6,61.8 25.4,61.7 25.4,61.6 C25.4,61.4 25.6,61.3 25.9,61.3 C30.6,60.5 35.3,56.5 35.3,50.1 C35.3,44.7 31.2,39 23.7,39 C16.7,39 12.3,44.7 12.3,51.3 M33.2,-82.2 C34.1,-86.2 38.7,-96.7 43.9,-96.7 C45.4,-96.7 47.8,-91.9 47.8,-84.9 C47.8,-74.5 40.1,-66.7 33.2,-59.9 C32.6,-63.9 32.1,-67.8 32.1,-72 C32.1,-75.7 32.4,-79.1 33.2,-82.2 M42,20.6 C40,21 38.1,21.2 36.2,21.2 C21.9,21.2 9.7,11.2 9.7,-3.9 C9.7,-16.1 18.3,-27 27.1,-34.6 C28.8,-36.1 30.4,-37.5 31.9,-39 C32.8,-33.6 33.5,-28.9 34.2,-24.8 C25.1,-22.1 18.9,-12.5 18.9,-3.1 C18.9,3.9 24.4,13.5 32.4,13.5 C33.2,13.5 34.1,13.1 34.1,12.2 C34.1,11.3 33.1,10.8 31.9,10 C28,7.6 25.8,5 25.8,0.1 C25.8,-6 30.4,-10.9 36.2,-12.3 L42,20.6 M56.2,2.1 C56.2,9.2 53.3,16.5 46.2,19.4 C44.1,7.4 41.4,-8.5 40.7,-12.9 C49.7,-12.9 56.2,-6.8 56.2,2.1"/>
<path class="Clef" transform="matrix(0.992,0,0,0.992,231.198,1390.6)" d="M12.3,51.3 C12.3,57.9 17.3,66.6 30.8,66.6 C35.5,66.6 39.6,65.4 43.2,63.2 C48.6,59.4 50,52.8 50,46.5 C50,42.6 49.4,38.1 48.4,32.4 C48.1,30.4 47.5,27.4 46.9,23.5 C56.7,20.3 64,10.1 64,-0.2 C64,-15.3 53.3,-25.5 38.7,-25.5 C37.7,-31.5 36.7,-37.4 35.9,-43 C46.4,-54.1 53.7,-66.6 53.7,-82.5 C53.7,-91.6 50.9,-99 49.3,-102.6 C46.9,-107.7 44,-111.2 42.2,-111.2 C41.5,-111.2 38.4,-110 35.1,-106.1 C28.7,-98.5 26.9,-85.7 26.9,-77.3 C26.9,-71.9 27.4,-67 29.1,-55.8 C29,-55.7 23.8,-50.4 21.7,-48.7 C12.6,-40.3 0,-28.1 0,-8.1 C0,10.6 16.3,25.3 34.9,25.3 C37.8,25.3 40.5,25 42.8,24.6 C44.7,34.2 45.9,41.2 45.9,46.5 C45.9,56.9 40.5,62.4 30.4,62.4 C28,62.4 25.9,61.9 25.7,61.9 C25.6,61.8 25.4,61.7 25.4,61.6 C25.4,61.4 25.6,61.3 25.9,61.3 C30.6,60.5 35.3,56.5 35.3,50.1 C35.3,44.7 31.2,39 23.7,39 C16.7,39 12.3,44.7 12.3,51.3 M33.2,-82.2 C34.1,-86.2 38.7,-96.7 43.9,-96.7 C45.4,-96.7 47.8,-91.9 47.8,-84.9 C47.8,-74.5 40.1,-66.7 33.2,-59.9 C32.6,-63.9 32.1,-67.8 32.1,-72 C32.1,-75.7 32.4,-79.1 33.2,-82.2 M42,20.6 C40,21 38.1,21.2 36.2,21.2 C21.9,21.2 9.7,11.2 9.7,-3.9 C9.7,-16.1 18.3,-27 27.1,-34.6 C28.8,-36.1 30.4,-37.5 31.9,-39 C32.8,-33.6 33.5,-28.9 34.2,-24.8 C25.1,-22.1 18.9,-12.5 18.9,-3.1 C18.9,3.9 24.4,13.5 32.4,13.5 C33.2,13.5 34.1,13.1 34.1,12.2 C34.1,11.3 33.1,10.8 31.9,10 C28,7.6 25.8,5 25.8,0.1 C25.8,-6 30.4,-10.9 36.2,-12.3 L42,20.6 M56.2,2.1 C56.2,9.2 53.3,16.5 46.2,19.4 C44.1,7.4 41.4,-8.5 40.7,-12.9 C49.7,-12.9 56.2,-6.8 56.2,2.1"/>
<path class="TimeSig" transform="matrix(0.992,0,0,0.992,321.362,659.494)" d="M34.2,3.9 C33.4,6.1 31.4,13.3 26.5,13.3 C20,13.3 18.6,9.3 13.2,9.3 C12.4,9.3 11.6,9.4 10.6,9.6 C10.6,9.6 13.1,5.8 23.7,2.5 C34.3,-0.8 37,-6 37,-12 C37,-16.2 35.1,-24.5 20,-24.5 C4.9,-24.5 2.1,-15.4 2.1,-10.8 C2.1,-6.7 5.5,-3.4 9.6,-3.4 C13.7,-3.4 17,-6.7 17,-10.8 C17,-13.6 15,-16.7 12.4,-17.7 C12.1,-17.8 11.7,-18.3 11.7,-18.8 C11.7,-19.4 12.2,-20.1 14,-20.6 C14.5,-20.8 15.9,-21.1 17.4,-21.1 C23.1,-21.1 24.2,-17.6 24.2,-12.5 C24.2,-0.8 10.3,1.7 4.5,10.4 C4.5,10.4 1.5,14.6 1.5,19.3 C1.5,24 3.9,24.3 5.1,24.3 C6.7,24.3 8.4,23 8.4,21.2 C8.4,20.8 8.3,20.4 8.1,19.9 C7.5,18.5 7.3,17.4 7.3,16.6 C7.3,16.3 7.3,16 7.4,15.7 C7.5,15.1 8.3,14.1 10.7,14.1 C13.6,14.1 14.7,17.5 16.5,20.1 C18.3,22.7 21.1,24.3 24.3,24.3 C27.5,24.3 31.8,22 33.6,18.3 C35.4,14.6 37.7,7.1 37.7,4.4 C37.7,3.1 36.9,2.5 36,2.5 C35.3,2.5 34.6,2.9 34.2,3.9"/>
<path class="TimeSig" transform="matrix(0.992,0,0,0.992,318.091,708.598)" d="M20.8,12.7 L20.8,20.1 L12.5,20.1 C11.8,20.1 11.1,20.7 11.1,21.5 L11.1,23.4 C11.1,24.2 11.8,24.8 12.5,24.8 L42.8,24.8 C43.6,24.8 44.2,24.2 44.2,23.4 L44.2,21.5 C44.2,20.7 43.6,20.1 42.8,20.1 L33.9,20.1 L33.9,12.7 L42.8,12.7 C43.6,12.7 44.2,12 44.2,11.2 L44.2,9.3 C44.2,8.6 43.6,7.9 42.8,7.9 L33.9,7.9 L33.9,-8 C33.9,-8.6 33.6,-9.1 33.1,-9.3 L31.9,-9.9 C31.7,-10 31.4,-10.1 31.2,-10.1 C30.9,-10 30.5,-9.9 30.3,-9.7 L21.2,-1.4 C20.9,-1.1 20.8,-0.7 20.8,-0.3 L20.8,7.9 L9.3,7.9 C9.3,7.9 20.4,-4.1 32.2,-19.9 C32.6,-20.4 32.7,-20.9 32.7,-21.3 C32.7,-21.8 32.5,-22.2 32.4,-22.3 L30.2,-24.5 C30,-24.7 29.6,-24.9 29.2,-24.9 C28.6,-24.9 15.1,-24.9 14.4,-24.9 C13.6,-24.9 13.1,-24.3 13,-23.7 C13,-23.7 12.5,-16.3 9.9,-8.2 C7.3,-0.1 4.3,4.9 1.7,8.6 C1.7,8.6 1.4,9.1 1.4,9.7 C1.4,9.9 1.4,10.1 1.5,10.3 C1.9,11 2.5,12.1 2.5,12.1 C2.5,12.1 2.7,12.7 3.6,12.7 L20.8,12.7 "/>
<path class="Rest" transform="matrix(0.992,0,0,0.992,1021.6,683.798)" d="M26.7,-20.3 C26.6,-20.3 26.4,-20.4 26.3,-20.4 C25.7,-20.4 25.2,-20.1 25,-19.6 C22.7,-15 17.9,-8.8 12.5,-7.8 C13.6,-9.1 14.3,-10.7 14.3,-12.6 C14.3,-16.5 11.1,-19.7 7.2,-19.7 C3.2,-19.7 0,-16.5 0,-12.6 C0,-7.2 5.3,-4.7 10,-4.7 C15.3,-4.7 18.8,-7.2 22.2,-10.9 L10.8,24.7 L13.5,25.5 L27.5,-18.6 C27.6,-18.7 27.6,-18.9 27.6,-19.1 C27.6,-19.6 27.3,-20 26.7,-20.3"/>
<path class="Rest" transform="matrix(0.992,0,0,0.992,2673.69,683.798)" d="M26.7,-20.3 C26.6,-20.3 26.4,-20.4 26.3,-20.4 C25.7,-20.4 25.2,-20.1 25,-19.6 C22.7,-15 17.9,-8.8 12.5,-7.8 C13.6,-9.1 14.3,-10.7 14.3,-12.6 C14.3,-16.5 11.1,-19.7 7.2,-19.7 C3.2,-19.7 0,-16.5 0,-12.6 C0,-7.2 5.3,-4.7 10,-4.7 C15.3,-4.7 18.8,-7.2 22.2,-10.9 L10.8,24.7 L13.5,25.5 L27.5,-18.6 C27.6,-18.7 27.6,-18.9 27.6,-19.1 C27.6,-19.6 27.3,-20 26.7,-20.3"/>
<path class="Rest" transform="matrix(0.992,0,0,0.992,1812.93,683.798)" d="M26.7,-20.3 C26.6,-20.3 26.4,-20.4 26.3,-20.4 C25.7,-20.4 25.2,-20.1 25,-19.6 C22.7,-15 17.9,-8.8 12.5,-7.8 C13.6,-9.1 14.3,-10.7 14.3,-12.6 C14.3,-16.5 11.1,-19.7 7.2,-19.7 C3.2,-19.7 0,-16.5 0,-12.6 C0,-7.2 5.3,-4.7 10,-4.7 C15.3,-4.7 18.8,-7.2 22.2,-10.9 L10.8,24.7 L13.5,25.5 L27.5,-18.6 C27.6,-18.7 27.6,-18.9 27.6,-19.1 C27.6,-19.6 27.3,-20 26.7,-20.3"/>
<path class="Rest" transform="matrix(0.992,0,0,0.992,2604.83,1365.8)" d="M23,16.6 C22.9,16.5 22.7,16.3 22.4,15.9 L10.9,1.7 C10.8,1.6 10.7,1.3 10.7,1.1 C10.7,0.8 10.8,0.4 10.9,0.2 L21.1,-15.2 C21.2,-15.4 21.3,-15.7 21.3,-15.9 L21.3,-16.8 C21.3,-17.1 21.2,-17.4 21,-17.6 L4.8,-39.5 C4.8,-39.5 4.4,-40.1 3.8,-40.1 C3.5,-40.1 3.3,-40.1 3,-39.8 C2.6,-39.5 2.5,-39.1 2.5,-38.8 C2.5,-38.2 2.8,-37.7 2.8,-37.7 L10.4,-27.3 C10.6,-27 10.7,-26.6 10.7,-26.1 C10.7,-25.7 10.6,-25.2 10.4,-24.9 L0.3,-9.5 C0.2,-9.3 0.1,-8.9 0.1,-8.7 L0.1,-7.8 C0.1,-7.5 0.2,-7.2 0.4,-7 L11.6,6.9 C11.2,6.8 10.3,6.6 9.1,6.6 C4,6.6 0,10.8 0,15.9 C0,17.3 0.3,18.7 1.1,19.8 C3.2,23 10.7,32.5 10.7,32.5 C10.7,32.5 11.2,33.1 11.9,33.1 C12.1,33.1 12.3,33.1 12.5,32.9 C13,32.5 13.2,32.1 13.2,31.7 C13.2,31.3 13,31 12.9,30.8 C12.6,30.3 9.4,24.5 9.4,24.5 C9.4,24.5 8.7,23.1 8.7,21.3 C8.7,18.1 11.1,15.5 14.3,15.5 C15.6,15.5 16.7,15.9 17.5,16.4 L21.4,18.9 C21.4,18.9 21.8,19.1 22.2,19.1 C22.6,19.1 22.9,19 23.2,18.6 C23.4,18.3 23.5,18 23.5,17.7 C23.5,17.4 23.4,17.2 23.2,16.9 L23,16.6 "/>
<path class="Beam" fill-rule="evenodd" d="M1463.02,1421.59 L1569.04,1427.79 L1569.04,1440.21 L1463.02,1434.01 L1463.02,1421.59 "/>
<path class="Beam" fill-rule="evenodd" d="M1255.93,1427.8 L1361.95,1427.8 L1361.95,1440.2 L1255.93,1440.2 L1255.93,1427.8 "/>
<path class="Beam" fill-rule="evenodd" d="M1043.13,1310 L1149.15,1310 L1149.15,1322.4 L1043.13,1322.4 L1043.13,1310 "/>
<path class="Beam" fill-rule="evenodd" d="M836.046,1310 L942.068,1310 L942.068,1322.4 L836.046,1322.4 L836.046,1310 "/>
<path class="Beam" fill-rule="evenodd" d="M554.823,621.783 L643.751,627.983 L643.751,640.413 L554.823,634.213 L554.823,621.783 "/>
<path class="Beam" fill-rule="evenodd" d="M1890.62,1291.39 L1996.64,1297.59 L1996.64,1310.01 L1890.62,1303.81 L1890.62,1291.39 "/>
<path class="Beam" fill-rule="evenodd" d="M593.499,1310 L699.521,1310 L699.521,1322.4 L593.499,1322.4 L593.499,1310 "/>
<path class="Beam" fill-rule="evenodd" d="M386.415,1303.8 L492.437,1303.8 L492.437,1316.2 L386.415,1316.2 L386.415,1303.8 "/>
<path class="Beam" fill-rule="evenodd" d="M2415.27,609.393 L2561.83,615.593 L2561.83,628.004 L2415.27,621.804 L2415.27,609.393 "/>
<path class="Beam" fill-rule="evenodd" d="M2501.72,631.65 L2561.83,634.193 L2561.83,646.604 L2501.72,644.061 L2501.72,631.65 "/>
<path class="Beam" fill-rule="evenodd" d="M763.184,609.393 L909.744,615.593 L909.744,628.004 L763.184,621.804 L763.184,609.393 "/>
<path class="Beam" fill-rule="evenodd" d="M849.632,631.65 L909.744,634.193 L909.744,646.604 L849.632,644.061 L849.632,631.65 "/>
<path class="Beam" fill-rule="evenodd" d="M2166.3,609.393 L2312.86,603.193 L2312.86,615.604 L2166.3,621.804 L2166.3,609.393 "/>
<path class="Beam" fill-rule="evenodd" d="M2252.75,624.336 L2312.86,621.793 L2312.86,634.204 L2252.75,636.747 L2252.75,624.336 "/>
<path class="Beam" fill-rule="evenodd" d="M1964.59,609.398 L2111.15,609.398 L2111.15,621.798 L1964.59,621.798 L1964.59,609.398 "/>
<path class="Beam" fill-rule="evenodd" d="M2051.04,627.998 L2111.15,627.998 L2111.15,640.398 L2051.04,640.398 L2051.04,627.998 "/>
<path class="Beam" fill-rule="evenodd" d="M1554.52,609.393 L1701.08,615.593 L1701.08,628.004 L1554.52,621.804 L1554.52,609.393 "/>
<path class="Beam" fill-rule="evenodd" d="M1640.96,631.65 L1701.08,634.193 L1701.08,646.604 L1640.96,644.061 L1640.96,631.65 "/>
<path class="Beam" fill-rule="evenodd" d="M1346.15,615.583 L1435.08,609.383 L1435.08,621.813 L1346.15,628.013 L1346.15,615.583 "/>
<path class="Beam" fill-rule="evenodd" d="M1173.26,621.783 L1262.19,627.983 L1262.19,640.413 L1173.26,634.213 L1173.26,621.783 "/>
<path class="Tempo" d="M317.623,496.62 L314.356,496.62 L314.356,538.893 C313.267,538.2 311.881,537.804 310.297,537.606 C306.733,537.606 303.862,538.002 300.694,539.784 C296.734,541.863 292.378,546.219 292.378,551.07 C292.378,555.822 296.635,558.099 300.991,558.099 C307.921,558.099 317.623,552.159 317.623,544.635 L317.623,496.62 "/>
<path class="Tempo" d="M339.875,534.576 L370.115,534.576 L370.115,527.676 L339.875,527.676 L339.875,534.576 M339.875,546.936 L370.115,546.936 L370.115,540.036 L339.875,540.036 L339.875,546.936 M423.153,509.976 C419.133,510.636 415.773,510.816 409.533,510.816 C403.833,510.816 401.613,510.696 395.133,509.976 L393.093,527.916 L396.393,528.276 L396.993,525.576 C398.133,520.296 398.553,519.516 400.713,519.516 C400.953,519.516 401.313,519.516 401.733,519.576 C403.413,519.636 407.133,519.756 408.573,519.756 C409.173,519.756 411.153,519.696 414.153,519.636 L416.493,519.576 L412.413,525.636 L409.413,530.316 C404.733,537.636 404.733,537.636 403.293,540.936 C402.093,543.576 401.613,545.556 401.613,547.416 C401.613,551.016 403.773,553.296 407.133,553.296 C410.913,553.296 413.073,550.956 413.073,546.696 C413.013,535.596 414.213,531.516 423.153,512.496 L423.153,509.976 M442.05,509.976 C433.05,509.976 426.45,519.156 426.45,531.636 C426.45,544.116 433.05,553.296 442.05,553.296 C450.87,553.296 457.59,544.116 457.59,531.936 C457.59,524.856 455.97,519.636 452.43,515.196 C449.61,511.776 446.07,509.976 442.05,509.976 M441.99,513.096 C443.79,513.096 445.23,514.176 445.89,516.096 C446.67,518.076 447.15,524.376 447.15,531.816 C447.15,537.996 446.67,544.476 446.13,546.516 C445.47,548.916 444.03,550.176 441.99,550.176 C440.13,550.176 438.75,549.156 438.03,547.176 C437.25,545.196 436.77,538.836 436.77,531.636 C436.77,525.336 437.25,518.796 437.79,516.756 C438.45,514.356 439.89,513.096 441.99,513.096"/>
</svg>
