<?xml version="1.0" encoding="UTF-8" standalone="no"?>
<svg width="2977.2px" height="4208.4px" viewBox="0 0 2977.2 4208.4"
 xmlns="http://www.w3.org/2000/svg" xmlns:xlink="http://www.w3.org/1999/xlink" version="1.2" baseProfile="tiny">
<title>アリラン</title>
<desc>Generated by MuseScore Studio 4.4.2</desc>
<path class="" fill="#ffffff" fill-rule="evenodd" d="M0,0 L2977.2,0 L2977.2,4208.4 L0,4208.4 L0,0 "/>
<polyline class="StaffLines" fill="none" stroke="#000000" stroke-width="2.73" stroke-linejoin="bevel" points="212.598,634.198 2764.6,634.198"/>
<polyline class="StaffLines" fill="none" stroke="#000000" stroke-width="2.73" stroke-linejoin="bevel" points="212.598,658.998 2764.6,658.998"/>
<polyline class="StaffLines" fill="none" stroke="#000000" stroke-width="2.73" stroke-linejoin="bevel" points="212.598,683.798 2764.6,683.798"/>
<polyline class="StaffLines" fill="none" stroke="#000000" stroke-width="2.73" stroke-linejoin="bevel" points="212.598,708.598 2764.6,708.598"/>
<polyline class="StaffLines" fill="none" stroke="#000000" stroke-width="2.73" stroke-linejoin="bevel" points="212.598,733.398 2764.6,733.398"/>
<polyline class="StaffLines" fill="none" stroke="#000000" stroke-width="2.73" stroke-linejoin="bevel" points="212.598,1105.4 2764.6,1105.4"/>
<polyline class="StaffLines" fill="none" stroke="#000000" stroke-width="2.73" stroke-linejoin="bevel" points="212.598,1130.2 2764.6,1130.2"/>
<polyline class="StaffLines" fill="none" stroke="#000000" stroke-width="2.73" stroke-linejoin="bevel" points="212.598,1155 2764.6,1155"/>
<polyline class="StaffLines" fill="none" stroke="#000000" stroke-width="2.73" stroke-linejoin="bevel" points="212.598,1179.8 2764.6,1179.8"/>
<polyline class="StaffLines" fill="none" stroke="#000000" stroke-width="2.73" stroke-linejoin="bevel" points="212.598,1204.6 2764.6,1204.6"/>
<polyline class="StaffLines" fill="none" stroke="#000000" stroke-width="2.73" stroke-linejoin="bevel" points="212.598,1576.6 2764.6,1576.6"/>
<polyline class="StaffLines" fill="none" stroke="#000000" stroke-width="2.73" stroke-linejoin="bevel" points="212.598,1601.4 2764.6,1601.4"/>
<polyline class="StaffLines" fill="none" stroke="#000000" stroke-width="2.73" stroke-linejoin="bevel" points="212.598,1626.2 2764.6,1626.2"/>
<polyline class="StaffLines" fill="none" stroke="#000000" stroke-width="2.73" stroke-linejoin="bevel" points="212.598,1651 2764.6,1651"/>
<polyline class="StaffLines" fill="none" stroke="#000000" stroke-width="2.73" stroke-linejoin="bevel" points="212.598,1675.8 2764.6,1675.8"/>
<polyline class="StaffLines" fill="none" stroke="#000000" stroke-width="2.73" stroke-linejoin="bevel" points="212.598,2047.8 2764.6,2047.8"/>
<polyline class="StaffLines" fill="none" stroke="#000000" stroke-width="2.73" stroke-linejoin="bevel" points="212.598,2072.6 2764.6,2072.6"/>
<polyline class="StaffLines" fill="none" stroke="#000000" stroke-width="2.73" stroke-linejoin="bevel" points="212.598,2097.4 2764.6,2097.4"/>
<polyline class="StaffLines" fill="none" stroke="#000000" stroke-width="2.73" stroke-linejoin="bevel" points="212.598,2122.2 2764.6,2122.2"/>
<polyline class="StaffLines" fill="none" stroke="#000000" stroke-width="2.73" stroke-linejoin="bevel" points="212.598,2147 2764.6,2147"/>
<path class="Text" d="M1363.82,216.34 C1361.84,217.11 1361.84,217.11 1354.47,217.11 L1295.4,217.11 C1289.13,217.11 1286.05,216.89 1282.31,216.34 L1282.31,224.81 C1286.38,224.37 1289.24,224.26 1295.29,224.26 L1357.77,224.26 C1354.58,230.53 1350.51,235.92 1345.45,240.65 C1340.28,245.49 1335.77,248.13 1328.07,251.1 C1330.93,253.63 1331.81,254.62 1333.46,257.37 C1347.76,250.77 1357.99,240.76 1365.58,226.02 C1366.9,223.38 1367.12,223.05 1368.22,221.62 L1363.82,216.34 M1315.86,235.48 C1316.19,237.57 1316.3,238.34 1316.3,241.42 C1316.3,262.87 1312.01,274.09 1300.35,283.44 C1294.63,288.17 1289.13,290.92 1280.22,293.56 C1282.86,296.31 1283.63,297.41 1285.28,300.93 C1298.59,295.87 1306.73,290.37 1313.44,281.9 C1320.92,272.44 1324,261.55 1324.33,243.18 C1324.44,237.46 1324.44,237.46 1324.77,235.48 L1315.86,235.48 M1403.75,212.6 C1404.08,215.24 1404.19,217.11 1404.19,221.84 L1404.19,251.21 C1404.19,255.61 1404.08,257.92 1403.75,260.45 L1412.88,260.45 C1412.55,257.81 1412.44,256.6 1412.44,251.32 L1412.44,221.73 C1412.44,216.67 1412.55,215.24 1412.88,212.6 L1403.75,212.6 M1452.37,212.6 C1452.7,215.02 1452.81,216.56 1452.81,222.28 L1452.81,234.71 C1452.81,251.43 1452.48,256.49 1451.27,262.76 C1449.18,272.99 1443.9,280.03 1433.67,285.97 C1427.95,289.38 1422.67,291.25 1412.77,293.45 C1415.52,296.75 1416.18,297.85 1417.39,301.04 C1426.74,298.29 1432.02,296.2 1437.41,293.12 C1448.19,287.07 1455.12,279.04 1458.31,268.7 C1460.29,262.32 1461.06,252.64 1461.06,235.15 L1461.06,222.17 C1461.06,216.89 1461.17,215.13 1461.61,212.6 L1452.37,212.6 M1512.54,222.72 C1515.51,222.28 1518.15,222.17 1523.98,222.17 L1560.94,222.17 C1566.77,222.17 1569.41,222.28 1572.38,222.72 L1572.38,214.25 C1569.19,214.91 1566.99,215.02 1560.83,215.02 L1524.09,215.02 C1517.93,215.02 1515.73,214.91 1512.54,214.25 L1512.54,222.72 M1503.08,248.02 C1506.82,247.58 1510.01,247.47 1515.84,247.47 L1573.26,247.47 C1568.2,261 1563.25,269.14 1555.44,276.29 C1547.19,283.88 1537.51,288.83 1522.77,293.01 C1525.41,296.2 1526.18,297.41 1527.5,300.6 C1555.99,291.03 1571.17,276.95 1580.52,251.32 C1582.39,246.48 1582.61,245.93 1583.6,244.39 L1579.53,239.66 C1577.66,240.32 1576.45,240.43 1572.38,240.43 L1515.95,240.43 C1509.35,240.43 1507.04,240.32 1503.08,239.77 L1503.08,248.02 M1615.06,225.69 C1624.63,231.52 1633.32,238.67 1641.24,247.25 L1646.96,240.43 C1639.04,232.62 1632.22,227.23 1620.45,219.75 L1615.06,225.69 M1615.83,297.19 C1618.58,296.31 1619.46,296.09 1622.43,295.43 C1640.8,291.25 1652.13,286.74 1663.46,279.04 C1677.98,269.03 1688.21,256.16 1697.01,237.02 C1693.93,234.93 1692.83,233.94 1690.3,230.53 C1681.39,253.85 1666.65,270.02 1645.42,279.48 C1635.19,284.21 1621.99,287.62 1613.41,287.95 L1615.83,297.19 "/>
<path class="MeasureNumber" d="M228.958,1969.88 L227.798,1969.88 C225.598,1971.52 221.358,1972.92 218.478,1972.92 L217.998,1974.68 L220.758,1974.68 C223.198,1974.68 223.478,1974.76 223.478,1975.48 C223.478,1975.84 223.478,1975.84 223.078,1977.28 L218.798,1993.28 C218.278,1995.28 218.238,1995.4 217.878,1995.76 C217.478,1996.16 216.638,1996.28 214.518,1996.32 L212.798,1996.32 L212.598,1998.2 L227.398,1998.2 L227.638,1996.32 L225.478,1996.32 C222.878,1996.32 222.318,1996.12 222.318,1995.24 C222.318,1994.96 222.478,1994.04 222.678,1993.28 L228.958,1969.88 M246.433,1983.64 C248.313,1983.04 249.073,1982.72 250.033,1982.08 C251.913,1980.84 253.073,1978.64 253.073,1976.4 C253.073,1972.6 250.033,1970.04 245.553,1970.04 C241.193,1970.04 237.513,1972.76 237.513,1976.04 C237.513,1977.68 238.513,1978.8 240.033,1978.8 C241.353,1978.8 242.313,1977.84 242.313,1976.52 C242.313,1975.84 242.113,1975.36 241.473,1974.72 C241.073,1974.36 240.913,1974.08 240.913,1973.8 C240.913,1972.84 242.913,1971.84 244.793,1971.84 C247.473,1971.84 249.073,1973.32 249.073,1975.8 C249.073,1979.36 246.553,1982.72 243.873,1982.72 C243.753,1982.72 243.393,1982.68 242.953,1982.64 C241.793,1982.56 241.793,1982.56 241.553,1982.56 C240.673,1982.56 240.193,1982.96 240.193,1983.68 C240.193,1984.32 240.633,1984.72 241.353,1984.72 C241.553,1984.72 241.833,1984.68 242.153,1984.64 C242.713,1984.52 243.313,1984.48 243.673,1984.48 C245.553,1984.48 246.833,1986.16 246.833,1988.64 C246.833,1992.96 244.713,1997.12 239.873,1997.12 C237.633,1997.12 235.713,1996 235.713,1994.72 C235.713,1994.28 235.873,1994.12 236.513,1993.84 C237.673,1993.32 238.153,1992.6 238.153,1991.52 C238.153,1990.12 237.033,1989.04 235.593,1989.04 C233.873,1989.04 232.753,1990.4 232.753,1992.48 C232.753,1996.36 235.713,1998.8 240.513,1998.8 C246.553,1998.8 251.153,1994.76 251.153,1989.4 C251.153,1986.28 249.233,1984.52 246.433,1983.64"/>
<path class="MeasureNumber" d="M228.053,1513.32 C227.053,1517.96 224.373,1525.92 218.653,1525.92 C217.493,1525.92 216.733,1525.44 216.733,1524.72 C216.733,1524.44 216.813,1524.32 217.133,1523.84 C217.533,1523.32 217.733,1522.84 217.733,1522.28 C217.733,1520.96 216.693,1519.96 215.333,1519.96 C213.733,1519.96 212.613,1521.16 212.613,1522.92 C212.613,1525.64 215.173,1527.6 218.733,1527.6 C227.493,1527.6 233.093,1516.4 233.093,1508.8 C233.093,1502.56 230.093,1498.84 225.133,1498.84 C219.173,1498.84 214.733,1504.32 214.733,1510.04 C214.733,1513.84 217.653,1516.72 221.533,1516.72 C224.173,1516.72 226.213,1515.64 228.053,1513.32 M225.093,1500.52 C227.653,1500.52 229.293,1502.56 229.293,1505.76 C229.293,1510.72 226.573,1514.36 222.893,1514.36 C220.373,1514.36 218.973,1512.64 218.973,1509.64 C218.973,1506.04 220.693,1500.52 225.093,1500.52"/>
<path class="MeasureNumber" d="M216.922,1040.48 C215.682,1041.24 215.322,1041.72 215.322,1042.52 C215.322,1043.28 215.962,1043.84 216.762,1043.84 C217.802,1043.84 218.402,1043.08 218.522,1041.6 C219.762,1040.6 221.082,1040.16 222.682,1040.16 C225.642,1040.16 227.282,1042 227.282,1045.32 C227.282,1050.52 223.922,1054.76 219.802,1054.76 C217.442,1054.76 215.522,1053.64 215.522,1052.32 C215.522,1052.08 215.562,1052 215.762,1051.88 C217.042,1051.28 218.082,1050.84 218.082,1049.16 C218.082,1047.88 217.082,1046.92 215.682,1046.92 C213.922,1046.92 212.602,1048.4 212.602,1050.32 C212.602,1053.84 215.642,1056.4 219.922,1056.4 C226.402,1056.4 231.642,1051.24 231.642,1044.84 C231.642,1040.8 228.562,1037.96 224.202,1037.96 C222.482,1037.96 221.082,1038.32 219.162,1039.28 L221.402,1031.72 C223.522,1032.16 225.202,1032.36 226.642,1032.36 C229.282,1032.36 231.642,1031.52 232.962,1030.12 C233.642,1029.32 234.042,1028.64 234.042,1028.12 C234.042,1027.88 233.922,1027.64 233.762,1027.64 C233.642,1027.64 233.562,1027.68 233.322,1027.8 C232.002,1028.44 230.322,1028.8 228.762,1028.8 C226.362,1028.8 223.522,1028.4 220.562,1027.64 L216.922,1040.48 "/>
<polyline class="BarLine" fill="none" stroke="#000000" stroke-width="4.46" stroke-linejoin="bevel" points="982.645,632.834 982.645,734.762"/>
<polyline class="BarLine" fill="none" stroke="#000000" stroke-width="4.46" stroke-linejoin="bevel" points="2740.42,2046.43 2740.42,2148.36"/>
<polyline class="BarLine" fill="none" stroke="#000000" stroke-width="13.64" stroke-linejoin="bevel" points="2757.78,2046.43 2757.78,2148.36"/>
<polyline class="BarLine" fill="none" stroke="#000000" stroke-width="4.46" stroke-linejoin="bevel" points="2364.12,2046.43 2364.12,2148.36"/>
<polyline class="BarLine" fill="none" stroke="#000000" stroke-width="4.46" stroke-linejoin="bevel" points="1743.82,2046.43 1743.82,2148.36"/>
<polyline class="BarLine" fill="none" stroke="#000000" stroke-width="4.46" stroke-linejoin="bevel" points="992.731,2046.43 992.731,2148.36"/>
<polyline class="BarLine" fill="none" stroke="#000000" stroke-width="4.46" stroke-linejoin="bevel" points="2762.37,1575.23 2762.37,1677.16"/>
<polyline class="BarLine" fill="none" stroke="#000000" stroke-width="4.46" stroke-linejoin="bevel" points="2199.64,1575.23 2199.64,1677.16"/>
<polyline class="BarLine" fill="none" stroke="#000000" stroke-width="4.46" stroke-linejoin="bevel" points="1519.03,1575.23 1519.03,1677.16"/>
<polyline class="BarLine" fill="none" stroke="#000000" stroke-width="4.46" stroke-linejoin="bevel" points="945.731,1575.23 945.731,1677.16"/>
<polyline class="BarLine" fill="none" stroke="#000000" stroke-width="4.46" stroke-linejoin="bevel" points="2762.37,1104.03 2762.37,1205.96"/>
<polyline class="BarLine" fill="none" stroke="#000000" stroke-width="4.46" stroke-linejoin="bevel" points="2373.26,1104.03 2373.26,1205.96"/>
<polyline class="BarLine" fill="none" stroke="#000000" stroke-width="4.46" stroke-linejoin="bevel" points="1792.74,1104.03 1792.74,1205.96"/>
<polyline class="BarLine" fill="none" stroke="#000000" stroke-width="4.46" stroke-linejoin="bevel" points="1014.73,1104.03 1014.73,1205.96"/>
<polyline class="BarLine" fill="none" stroke="#000000" stroke-width="4.46" stroke-linejoin="bevel" points="2762.37,632.834 2762.37,734.762"/>
<polyline class="BarLine" fill="none" stroke="#000000" stroke-width="4.46" stroke-linejoin="bevel" points="2190.89,632.834 2190.89,734.762"/>
<polyline class="BarLine" fill="none" stroke="#000000" stroke-width="4.46" stroke-linejoin="bevel" points="1554.12,632.834 1554.12,734.762"/>
<polyline class="Stem" fill="none" stroke="#000000" stroke-width="2.73" stroke-linejoin="bevel" points="1534.32,2155.43 1534.32,2049"/>
<polyline class="Stem" fill="none" stroke="#000000" stroke-width="2.73" stroke-linejoin="bevel" points="1589.96,687.965 1589.96,758.198"/>
<polyline class="Stem" fill="none" stroke="#000000" stroke-width="2.73" stroke-linejoin="bevel" points="1415.26,2143.03 1415.26,2044.07"/>
<polyline class="Stem" fill="none" stroke="#000000" stroke-width="2.73" stroke-linejoin="bevel" points="1296.19,2118.23 1296.19,2039.13"/>
<polyline class="Stem" fill="none" stroke="#000000" stroke-width="2.73" stroke-linejoin="bevel" points="1783.11,692.23 1783.11,615.598"/>
<polyline class="Stem" fill="none" stroke="#000000" stroke-width="2.73" stroke-linejoin="bevel" points="1177.13,2105.83 1177.13,2034.19"/>
<polyline class="Stem" fill="none" stroke="#000000" stroke-width="2.73" stroke-linejoin="bevel" points="1058.06,2093.43 1058.06,2029.25"/>
<polyline class="Stem" fill="none" stroke="#000000" stroke-width="2.73" stroke-linejoin="bevel" points="1653.38,2143.03 1653.38,2053.94"/>
<polyline class="Stem" fill="none" stroke="#000000" stroke-width="2.73" stroke-linejoin="bevel" points="1892.21,679.83 1892.21,615.598"/>
<polyline class="Stem" fill="none" stroke="#000000" stroke-width="2.73" stroke-linejoin="bevel" points="902.296,2105.83 902.296,2041.6"/>
<polyline class="Stem" fill="none" stroke="#000000" stroke-width="2.73" stroke-linejoin="bevel" points="2001.32,704.63 2001.32,615.598"/>
<polyline class="Stem" fill="none" stroke="#000000" stroke-width="2.73" stroke-linejoin="bevel" points="783.232,2118.23 783.232,2041.6"/>
<polyline class="Stem" fill="none" stroke="#000000" stroke-width="2.73" stroke-linejoin="bevel" points="664.168,2105.83 664.168,2041.6"/>
<polyline class="Stem" fill="none" stroke="#000000" stroke-width="2.73" stroke-linejoin="bevel" points="2110.42,729.43 2110.42,615.598"/>
<polyline class="Stem" fill="none" stroke="#000000" stroke-width="2.73" stroke-linejoin="bevel" points="437.767,2118.23 437.767,2035.4"/>
<polyline class="Stem" fill="none" stroke="#000000" stroke-width="2.73" stroke-linejoin="bevel" points="902.17,729.43 902.17,658.998"/>
<polyline class="Stem" fill="none" stroke="#000000" stroke-width="2.73" stroke-linejoin="bevel" points="1473.65,692.23 1473.65,627.998"/>
<polyline class="Stem" fill="none" stroke="#000000" stroke-width="2.73" stroke-linejoin="bevel" points="1809.15,2118.23 1809.15,2035.4"/>
<polyline class="Stem" fill="none" stroke="#000000" stroke-width="2.73" stroke-linejoin="bevel" points="2256.23,741.83 2256.23,658.998"/>
<polyline class="Stem" fill="none" stroke="#000000" stroke-width="2.73" stroke-linejoin="bevel" points="476.501,741.83 476.501,658.998"/>
<polyline class="Stem" fill="none" stroke="#000000" stroke-width="2.73" stroke-linejoin="bevel" points="2683.68,1671.83 2683.68,1601.4"/>
<polyline class="Stem" fill="none" stroke="#000000" stroke-width="2.73" stroke-linejoin="bevel" points="2576.36,1684.23 2576.36,1601.4"/>
<polyline class="Stem" fill="none" stroke="#000000" stroke-width="2.73" stroke-linejoin="bevel" points="2469.04,1671.83 2469.04,1601.4"/>
<polyline class="Stem" fill="none" stroke="#000000" stroke-width="2.73" stroke-linejoin="bevel" points="2463.69,729.43 2463.69,658.998"/>
<polyline class="Stem" fill="none" stroke="#000000" stroke-width="2.73" stroke-linejoin="bevel" points="2264.98,1684.23 2264.98,1601.4"/>
<polyline class="Stem" fill="none" stroke="#000000" stroke-width="2.73" stroke-linejoin="bevel" points="1364.54,704.63 1364.54,627.998"/>
<polyline class="Stem" fill="none" stroke="#000000" stroke-width="2.73" stroke-linejoin="bevel" points="2572.79,741.83 2572.79,658.998"/>
<polyline class="Stem" fill="none" stroke="#000000" stroke-width="2.73" stroke-linejoin="bevel" points="2120.95,1671.83 2120.95,1558"/>
<polyline class="Stem" fill="none" stroke="#000000" stroke-width="2.73" stroke-linejoin="bevel" points="2013.63,1647.03 2013.63,1558"/>
<polyline class="Stem" fill="none" stroke="#000000" stroke-width="2.73" stroke-linejoin="bevel" points="2681.89,729.43 2681.89,658.998"/>
<polyline class="Stem" fill="none" stroke="#000000" stroke-width="2.73" stroke-linejoin="bevel" points="1906.32,1622.23 1906.32,1558"/>
<polyline class="Stem" fill="none" stroke="#000000" stroke-width="2.73" stroke-linejoin="bevel" points="1799,1634.63 1799,1558"/>
<polyline class="Stem" fill="none" stroke="#000000" stroke-width="2.73" stroke-linejoin="bevel" points="2035.55,2105.83 2035.55,2041.63"/>
<polyline class="Stem" fill="none" stroke="#000000" stroke-width="2.73" stroke-linejoin="bevel" points="1691.68,1622.23 1691.68,1558"/>
<polyline class="Stem" fill="none" stroke="#000000" stroke-width="2.73" stroke-linejoin="bevel" points="1584.36,1622.23 1584.36,1558"/>
<polyline class="Stem" fill="none" stroke="#000000" stroke-width="2.73" stroke-linejoin="bevel" points="2154.62,2118.23 2154.62,2044.7"/>
<polyline class="Stem" fill="none" stroke="#000000" stroke-width="2.73" stroke-linejoin="bevel" points="437.767,1175.83 437.767,1093"/>
<polyline class="Stem" fill="none" stroke="#000000" stroke-width="2.73" stroke-linejoin="bevel" points="1386.68,1634.63 1386.68,1558"/>
<polyline class="Stem" fill="none" stroke="#000000" stroke-width="2.73" stroke-linejoin="bevel" points="1196.2,1630.36 1196.2,1700.6"/>
<polyline class="Stem" fill="none" stroke="#000000" stroke-width="2.73" stroke-linejoin="bevel" points="1088.89,1630.36 1088.89,1694.32"/>
<polyline class="Stem" fill="none" stroke="#000000" stroke-width="2.73" stroke-linejoin="bevel" points="981.567,1605.56 981.567,1688.28"/>
<polyline class="Stem" fill="none" stroke="#000000" stroke-width="2.73" stroke-linejoin="bevel" points="672.702,1163.43 672.702,1099.2"/>
<polyline class="Stem" fill="none" stroke="#000000" stroke-width="2.73" stroke-linejoin="bevel" points="1255.44,692.23 1255.44,627.998"/>
<polyline class="Stem" fill="none" stroke="#000000" stroke-width="2.73" stroke-linejoin="bevel" points="783.885,1605.56 783.885,1688.2"/>
<polyline class="Stem" fill="none" stroke="#000000" stroke-width="2.73" stroke-linejoin="bevel" points="796.254,1175.83 796.254,1099.2"/>
<polyline class="Stem" fill="none" stroke="#000000" stroke-width="2.73" stroke-linejoin="bevel" points="2273.68,2118.23 2273.68,2047.76"/>
<polyline class="Stem" fill="none" stroke="#000000" stroke-width="2.73" stroke-linejoin="bevel" points="622.907,1605.56 622.907,1688.2"/>
<polyline class="Stem" fill="none" stroke="#000000" stroke-width="2.73" stroke-linejoin="bevel" points="919.806,1163.43 919.806,1099.2"/>
<polyline class="Stem" fill="none" stroke="#000000" stroke-width="2.73" stroke-linejoin="bevel" points="515.589,1605.56 515.589,1675.8"/>
<polyline class="Stem" fill="none" stroke="#000000" stroke-width="2.73" stroke-linejoin="bevel" points="793.066,741.83 793.066,658.998"/>
<polyline class="Stem" fill="none" stroke="#000000" stroke-width="2.73" stroke-linejoin="bevel" points="2429.45,2118.23 2429.45,2035.4"/>
<polyline class="Stem" fill="none" stroke="#000000" stroke-width="2.73" stroke-linejoin="bevel" points="1080.06,1151.03 1080.06,1086.85"/>
<polyline class="Stem" fill="none" stroke="#000000" stroke-width="2.73" stroke-linejoin="bevel" points="408.27,1605.56 408.27,1675.8"/>
<polyline class="Stem" fill="none" stroke="#000000" stroke-width="2.73" stroke-linejoin="bevel" points="683.963,729.43 683.963,658.998"/>
<polyline class="Stem" fill="none" stroke="#000000" stroke-width="2.73" stroke-linejoin="bevel" points="2438.6,1175.83 2438.6,1093"/>
<polyline class="Stem" fill="none" stroke="#000000" stroke-width="2.73" stroke-linejoin="bevel" points="1203.61,1163.43 1203.61,1091.79"/>
<polyline class="Stem" fill="none" stroke="#000000" stroke-width="2.73" stroke-linejoin="bevel" points="1047.98,704.63 1047.98,621.798"/>
<polyline class="Stem" fill="none" stroke="#000000" stroke-width="2.73" stroke-linejoin="bevel" points="1327.17,1175.83 1327.17,1096.73"/>
<polyline class="Stem" fill="none" stroke="#000000" stroke-width="2.73" stroke-linejoin="bevel" points="2216.56,1175.83 2216.56,1093"/>
<polyline class="Stem" fill="none" stroke="#000000" stroke-width="2.73" stroke-linejoin="bevel" points="2093.01,1163.43 2093.01,1087"/>
<polyline class="Stem" fill="none" stroke="#000000" stroke-width="2.73" stroke-linejoin="bevel" points="1450.72,1200.63 1450.72,1101.67"/>
<polyline class="Stem" fill="none" stroke="#000000" stroke-width="2.73" stroke-linejoin="bevel" points="1574.27,1213.03 1574.27,1106.61"/>
<polyline class="Stem" fill="none" stroke="#000000" stroke-width="2.73" stroke-linejoin="bevel" points="1858.08,1175.83 1858.08,1093"/>
<polyline class="Stem" fill="none" stroke="#000000" stroke-width="2.73" stroke-linejoin="bevel" points="1697.82,1200.63 1697.82,1111.54"/>
<path class="Hook" transform="matrix(0.992,0,0,0.992,2091.65,1086.8)" d="M0,22.7 C0,23 0.1,23.6 0.8,23.8 C5.1,25.2 13.7,30.6 20.2,41.7 C22,44.8 24.9,49.1 24.9,57.4 C24.9,64.6 23.1,72 20.4,79.2 C20.2,79.8 20.1,80.3 20.1,80.7 C20.1,81.4 20.5,81.7 21.2,81.7 C21.8,81.7 22.3,81.3 22.7,80.6 C27.2,72.6 28.9,63.3 28.9,54.2 C28.4,41.3 21,31.8 21,31.8 C21.3,31.8 11.8,19.5 9.1,15.3 C5.4,9.6 3.7,3.9 3.5,3.5 C3.4,3.2 2.5,-0.4 2.5,-0.4 C2.4,-0.8 1.9,-1.2 1.3,-1.2 C0.6,-1.2 0,-0.6 0,0.1 L0,22.7 "/>
<path class="Note" transform="matrix(0.992,0,0,0.992,514.225,1601.4)" d="M0,4.2 C0,8.5 3.1,13.3 11.2,13.3 C21.6,13.3 32.5,4.8 32.5,-4 C32.5,-9.9 27.5,-13.2 21.3,-13.2 C11.6,-13.2 0,-5 0,4.2"/>
<path class="Note" transform="matrix(0.992,0,0,0.992,1861.35,683.798)" d="M0,4.2 C0,8.5 3.1,13.3 11.2,13.3 C21.6,13.3 32.5,4.8 32.5,-4 C32.5,-9.9 27.5,-13.2 21.3,-13.2 C11.6,-13.2 0,-5 0,4.2"/>
<path class="Note" transform="matrix(0.992,0,0,0.992,2225.37,745.798)" d="M0,4.2 C0,8.5 3.1,13.3 11.2,13.3 C21.6,13.3 32.5,4.8 32.5,-4 C32.5,-9.9 27.5,-13.2 21.3,-13.2 C11.6,-13.2 0,-5 0,4.2"/>
<path class="Note" transform="matrix(0.992,0,0,0.992,2432.83,733.398)" d="M0,4.2 C0,8.5 3.1,13.3 11.2,13.3 C21.6,13.3 32.5,4.8 32.5,-4 C32.5,-9.9 27.5,-13.2 21.3,-13.2 C11.6,-13.2 0,-5 0,4.2"/>
<path class="Note" transform="matrix(0.992,0,0,0.992,1543.41,1217)" d="M0,4.2 C0,8.5 3.1,13.3 11.2,13.3 C21.6,13.3 32.5,4.8 32.5,-4 C32.5,-9.9 27.5,-13.2 21.3,-13.2 C11.6,-13.2 0,-5 0,4.2"/>
<path class="Note" transform="matrix(0.992,0,0,0.992,1827.22,1179.8)" d="M0,4.2 C0,8.5 3.1,13.3 11.2,13.3 C21.6,13.3 32.5,4.8 32.5,-4 C32.5,-9.9 27.5,-13.2 21.3,-13.2 C11.6,-13.2 0,-5 0,4.2"/>
<path class="Note" transform="matrix(0.992,0,0,0.992,2398.59,2122.2)" d="M21.3,-13.2 C11.6,-13.2 0,-5.1 0,4.2 C0,8.5 3.1,13.3 11.2,13.3 C21.6,13.3 32.5,4.8 32.5,-4 C32.5,-9.9 27.5,-13.2 21.3,-13.2 M7.5,8.6 C4.2,8.6 3.5,5.9 3.5,5 C3.5,0.1 20.3,-8.5 25,-8.5 C27.4,-8.5 29,-7.1 29,-4.9 C29,0.1 12.1,8.6 7.5,8.6"/>
<path class="Note" transform="matrix(0.992,0,0,0.992,1017.12,708.598)" d="M0,4.2 C0,8.5 3.1,13.3 11.2,13.3 C21.6,13.3 32.5,4.8 32.5,-4 C32.5,-9.9 27.5,-13.2 21.3,-13.2 C11.6,-13.2 0,-5 0,4.2"/>
<path class="Note" transform="matrix(0.992,0,0,0.992,2242.82,2122.2)" d="M0,4.2 C0,8.5 3.1,13.3 11.2,13.3 C21.6,13.3 32.5,4.8 32.5,-4 C32.5,-9.9 27.5,-13.2 21.3,-13.2 C11.6,-13.2 0,-5 0,4.2"/>
<path class="Note" transform="matrix(0.992,0,0,0.992,1419.86,1204.6)" d="M0,4.2 C0,8.5 3.1,13.3 11.2,13.3 C21.6,13.3 32.5,4.8 32.5,-4 C32.5,-9.9 27.5,-13.2 21.3,-13.2 C11.6,-13.2 0,-5 0,4.2"/>
<path class="Note" transform="matrix(0.992,0,0,0.992,2123.76,2122.2)" d="M0,4.2 C0,8.5 3.1,13.3 11.2,13.3 C21.6,13.3 32.5,4.8 32.5,-4 C32.5,-9.9 27.5,-13.2 21.3,-13.2 C11.6,-13.2 0,-5 0,4.2"/>
<path class="Note" transform="matrix(0.992,0,0,0.992,2062.15,1167.4)" d="M0,4.2 C0,8.5 3.1,13.3 11.2,13.3 C21.6,13.3 32.5,4.8 32.5,-4 C32.5,-9.9 27.5,-13.2 21.3,-13.2 C11.6,-13.2 0,-5 0,4.2"/>
<path class="Note" transform="matrix(0.992,0,0,0.992,1296.3,1179.8)" d="M0,4.2 C0,8.5 3.1,13.3 11.2,13.3 C21.6,13.3 32.5,4.8 32.5,-4 C32.5,-9.9 27.5,-13.2 21.3,-13.2 C11.6,-13.2 0,-5 0,4.2"/>
<path class="Note" transform="matrix(0.992,0,0,0.992,2185.7,1179.8)" d="M0,4.2 C0,8.5 3.1,13.3 11.2,13.3 C21.6,13.3 32.5,4.8 32.5,-4 C32.5,-9.9 27.5,-13.2 21.3,-13.2 C11.6,-13.2 0,-5 0,4.2"/>
<path class="Note" transform="matrix(0.992,0,0,0.992,1224.58,696.198)" d="M0,4.2 C0,8.5 3.1,13.3 11.2,13.3 C21.6,13.3 32.5,4.8 32.5,-4 C32.5,-9.9 27.5,-13.2 21.3,-13.2 C11.6,-13.2 0,-5 0,4.2"/>
<path class="Note" transform="matrix(0.992,0,0,0.992,653.102,733.398)" d="M0,4.2 C0,8.5 3.1,13.3 11.2,13.3 C21.6,13.3 32.5,4.8 32.5,-4 C32.5,-9.9 27.5,-13.2 21.3,-13.2 C11.6,-13.2 0,-5 0,4.2"/>
<path class="Note" transform="matrix(0.992,0,0,0.992,2545.5,1688.2)" d="M0,4.2 C0,8.5 3.1,13.3 11.2,13.3 C21.6,13.3 32.5,4.8 32.5,-4 C32.5,-9.9 27.5,-13.2 21.3,-13.2 C11.6,-13.2 0,-5 0,4.2"/>
<path class="Note" transform="matrix(0.992,0,0,0.992,1172.75,1167.4)" d="M0,4.2 C0,8.5 3.1,13.3 11.2,13.3 C21.6,13.3 32.5,4.8 32.5,-4 C32.5,-9.9 27.5,-13.2 21.3,-13.2 C11.6,-13.2 0,-5 0,4.2"/>
<path class="Note" transform="matrix(0.992,0,0,0.992,2004.69,2109.8)" d="M0,4.2 C0,8.5 3.1,13.3 11.2,13.3 C21.6,13.3 32.5,4.8 32.5,-4 C32.5,-9.9 27.5,-13.2 21.3,-13.2 C11.6,-13.2 0,-5 0,4.2"/>
<path class="Note" transform="matrix(0.992,0,0,0.992,2407.74,1179.8)" d="M21.3,-13.2 C11.6,-13.2 0,-5.1 0,4.2 C0,8.5 3.1,13.3 11.2,13.3 C21.6,13.3 32.5,4.8 32.5,-4 C32.5,-9.9 27.5,-13.2 21.3,-13.2 M7.5,8.6 C4.2,8.6 3.5,5.9 3.5,5 C3.5,0.1 20.3,-8.5 25,-8.5 C27.4,-8.5 29,-7.1 29,-4.9 C29,0.1 12.1,8.6 7.5,8.6"/>
<path class="Note" transform="matrix(0.992,0,0,0.992,2438.18,1675.8)" d="M0,4.2 C0,8.5 3.1,13.3 11.2,13.3 C21.6,13.3 32.5,4.8 32.5,-4 C32.5,-9.9 27.5,-13.2 21.3,-13.2 C11.6,-13.2 0,-5 0,4.2"/>
<path class="Note" transform="matrix(0.992,0,0,0.992,1778.29,2122.2)" d="M0,4.2 C0,8.5 3.1,13.3 11.2,13.3 C21.6,13.3 32.5,4.8 32.5,-4 C32.5,-9.9 27.5,-13.2 21.3,-13.2 C11.6,-13.2 0,-5 0,4.2"/>
<path class="Note" transform="matrix(0.992,0,0,0.992,1333.68,708.598)" d="M0,4.2 C0,8.5 3.1,13.3 11.2,13.3 C21.6,13.3 32.5,4.8 32.5,-4 C32.5,-9.9 27.5,-13.2 21.3,-13.2 C11.6,-13.2 0,-5 0,4.2"/>
<path class="Note" transform="matrix(0.992,0,0,0.992,2079.56,733.398)" d="M0,4.2 C0,8.5 3.1,13.3 11.2,13.3 C21.6,13.3 32.5,4.8 32.5,-4 C32.5,-9.9 27.5,-13.2 21.3,-13.2 C11.6,-13.2 0,-5 0,4.2"/>
<path class="Note" transform="matrix(0.992,0,0,0.992,406.906,2122.2)" d="M0,4.2 C0,8.5 3.1,13.3 11.2,13.3 C21.6,13.3 32.5,4.8 32.5,-4 C32.5,-9.9 27.5,-13.2 21.3,-13.2 C11.6,-13.2 0,-5 0,4.2"/>
<path class="Note" transform="matrix(0.992,0,0,0.992,1622.52,2147)" d="M0,4.2 C0,8.5 3.1,13.3 11.2,13.3 C21.6,13.3 32.5,4.8 32.5,-4 C32.5,-9.9 27.5,-13.2 21.3,-13.2 C11.6,-13.2 0,-5 0,4.2"/>
<path class="Note" transform="matrix(0.992,0,0,0.992,1442.78,696.198)" d="M0,4.2 C0,8.5 3.1,13.3 11.2,13.3 C21.6,13.3 32.5,4.8 32.5,-4 C32.5,-9.9 27.5,-13.2 21.3,-13.2 C11.6,-13.2 0,-5 0,4.2"/>
<path class="Note" transform="matrix(0.992,0,0,0.992,2234.11,1688.2)" d="M0,4.2 C0,8.5 3.1,13.3 11.2,13.3 C21.6,13.3 32.5,4.8 32.5,-4 C32.5,-9.9 27.5,-13.2 21.3,-13.2 C11.6,-13.2 0,-5 0,4.2"/>
<path class="Note" transform="matrix(0.992,0,0,0.992,633.307,2109.8)" d="M0,4.2 C0,8.5 3.1,13.3 11.2,13.3 C21.6,13.3 32.5,4.8 32.5,-4 C32.5,-9.9 27.5,-13.2 21.3,-13.2 C11.6,-13.2 0,-5 0,4.2"/>
<path class="Note" transform="matrix(0.992,0,0,0.992,1049.2,1155)" d="M0,4.2 C0,8.5 3.1,13.3 11.2,13.3 C21.6,13.3 32.5,4.8 32.5,-4 C32.5,-9.9 27.5,-13.2 21.3,-13.2 C11.6,-13.2 0,-5 0,4.2"/>
<path class="Note" transform="matrix(0.992,0,0,0.992,406.906,1601.4)" d="M0,4.2 C0,8.5 3.1,13.3 11.2,13.3 C21.6,13.3 32.5,4.8 32.5,-4 C32.5,-9.9 27.5,-13.2 21.3,-13.2 C11.6,-13.2 0,-5 0,4.2"/>
<path class="Note" transform="matrix(0.992,0,0,0.992,1666.96,1204.6)" d="M0,4.2 C0,8.5 3.1,13.3 11.2,13.3 C21.6,13.3 32.5,4.8 32.5,-4 C32.5,-9.9 27.5,-13.2 21.3,-13.2 C11.6,-13.2 0,-5 0,4.2"/>
<path class="Note" transform="matrix(0.992,0,0,0.992,1503.46,2159.4)" d="M0,4.2 C0,8.5 3.1,13.3 11.2,13.3 C21.6,13.3 32.5,4.8 32.5,-4 C32.5,-9.9 27.5,-13.2 21.3,-13.2 C11.6,-13.2 0,-5 0,4.2"/>
<path class="Note" transform="matrix(0.992,0,0,0.992,888.945,1167.4)" d="M0,4.2 C0,8.5 3.1,13.3 11.2,13.3 C21.6,13.3 32.5,4.8 32.5,-4 C32.5,-9.9 27.5,-13.2 21.3,-13.2 C11.6,-13.2 0,-5 0,4.2"/>
<path class="Note" transform="matrix(0.992,0,0,0.992,871.309,733.398)" d="M0,4.2 C0,8.5 3.1,13.3 11.2,13.3 C21.6,13.3 32.5,4.8 32.5,-4 C32.5,-9.9 27.5,-13.2 21.3,-13.2 C11.6,-13.2 0,-5 0,4.2"/>
<path class="Note" transform="matrix(0.992,0,0,0.992,765.393,1179.8)" d="M0,4.2 C0,8.5 3.1,13.3 11.2,13.3 C21.6,13.3 32.5,4.8 32.5,-4 C32.5,-9.9 27.5,-13.2 21.3,-13.2 C11.6,-13.2 0,-5 0,4.2"/>
<path class="Note" transform="matrix(0.992,0,0,0.992,621.543,1601.4)" d="M0,4.2 C0,8.5 3.1,13.3 11.2,13.3 C21.6,13.3 32.5,4.8 32.5,-4 C32.5,-9.9 27.5,-13.2 21.3,-13.2 C11.6,-13.2 0,-5 0,4.2"/>
<path class="Note" transform="matrix(0.992,0,0,0.992,1384.4,2147)" d="M0,4.2 C0,8.5 3.1,13.3 11.2,13.3 C21.6,13.3 32.5,4.8 32.5,-4 C32.5,-9.9 27.5,-13.2 21.3,-13.2 C11.6,-13.2 0,-5 0,4.2"/>
<path class="Note" transform="matrix(0.992,0,0,0.992,445.641,745.798)" d="M0,4.2 C0,8.5 3.1,13.3 11.2,13.3 C21.6,13.3 32.5,4.8 32.5,-4 C32.5,-9.9 27.5,-13.2 21.3,-13.2 C11.6,-13.2 0,-5 0,4.2"/>
<path class="Note" transform="matrix(0.992,0,0,0.992,782.521,1601.4)" d="M0,4.2 C0,8.5 3.1,13.3 11.2,13.3 C21.6,13.3 32.5,4.8 32.5,-4 C32.5,-9.9 27.5,-13.2 21.3,-13.2 C11.6,-13.2 0,-5 0,4.2"/>
<path class="Note" transform="matrix(0.992,0,0,0.992,1588.59,683.798)" d="M0,4.2 C0,8.5 3.1,13.3 11.2,13.3 C21.6,13.3 32.5,4.8 32.5,-4 C32.5,-9.9 27.5,-13.2 21.3,-13.2 C11.6,-13.2 0,-5 0,4.2"/>
<path class="Note" transform="matrix(0.992,0,0,0.992,2090.09,1675.8)" d="M0,4.2 C0,8.5 3.1,13.3 11.2,13.3 C21.6,13.3 32.5,4.8 32.5,-4 C32.5,-9.9 27.5,-13.2 21.3,-13.2 C11.6,-13.2 0,-5 0,4.2"/>
<path class="Note" transform="matrix(0.992,0,0,0.992,641.841,1167.4)" d="M0,4.2 C0,8.5 3.1,13.3 11.2,13.3 C21.6,13.3 32.5,4.8 32.5,-4 C32.5,-9.9 27.5,-13.2 21.3,-13.2 C11.6,-13.2 0,-5 0,4.2"/>
<path class="Note" transform="matrix(0.992,0,0,0.992,1265.33,2122.2)" d="M0,4.2 C0,8.5 3.1,13.3 11.2,13.3 C21.6,13.3 32.5,4.8 32.5,-4 C32.5,-9.9 27.5,-13.2 21.3,-13.2 C11.6,-13.2 0,-5 0,4.2"/>
<path class="Note" transform="matrix(0.992,0,0,0.992,980.203,1601.4)" d="M0,4.2 C0,8.5 3.1,13.3 11.2,13.3 C21.6,13.3 32.5,4.8 32.5,-4 C32.5,-9.9 27.5,-13.2 21.3,-13.2 C11.6,-13.2 0,-5 0,4.2"/>
<path class="Note" transform="matrix(0.992,0,0,0.992,2541.93,745.798)" d="M0,4.2 C0,8.5 3.1,13.3 11.2,13.3 C21.6,13.3 32.5,4.8 32.5,-4 C32.5,-9.9 27.5,-13.2 21.3,-13.2 C11.6,-13.2 0,-5 0,4.2"/>
<path class="Note" transform="matrix(0.992,0,0,0.992,1146.27,2109.8)" d="M0,4.2 C0,8.5 3.1,13.3 11.2,13.3 C21.6,13.3 32.5,4.8 32.5,-4 C32.5,-9.9 27.5,-13.2 21.3,-13.2 C11.6,-13.2 0,-5 0,4.2"/>
<path class="Note" transform="matrix(0.992,0,0,0.992,1752.25,696.198)" d="M0,4.2 C0,8.5 3.1,13.3 11.2,13.3 C21.6,13.3 32.5,4.8 32.5,-4 C32.5,-9.9 27.5,-13.2 21.3,-13.2 C11.6,-13.2 0,-5 0,4.2"/>
<path class="Note" transform="matrix(0.992,0,0,0.992,1087.52,1626.2)" d="M0,4.2 C0,8.5 3.1,13.3 11.2,13.3 C21.6,13.3 32.5,4.8 32.5,-4 C32.5,-9.9 27.5,-13.2 21.3,-13.2 C11.6,-13.2 0,-5 0,4.2"/>
<path class="Note" transform="matrix(0.992,0,0,0.992,1982.77,1651)" d="M0,4.2 C0,8.5 3.1,13.3 11.2,13.3 C21.6,13.3 32.5,4.8 32.5,-4 C32.5,-9.9 27.5,-13.2 21.3,-13.2 C11.6,-13.2 0,-5 0,4.2"/>
<path class="Note" transform="matrix(0.992,0,0,0.992,1194.84,1626.2)" d="M0,4.2 C0,8.5 3.1,13.3 11.2,13.3 C21.6,13.3 32.5,4.8 32.5,-4 C32.5,-9.9 27.5,-13.2 21.3,-13.2 C11.6,-13.2 0,-5 0,4.2"/>
<path class="Note" transform="matrix(0.992,0,0,0.992,1027.2,2097.4)" d="M0,4.2 C0,8.5 3.1,13.3 11.2,13.3 C21.6,13.3 32.5,4.8 32.5,-4 C32.5,-9.9 27.5,-13.2 21.3,-13.2 C11.6,-13.2 0,-5 0,4.2"/>
<path class="Note" transform="matrix(0.992,0,0,0.992,406.906,1179.8)" d="M0,4.2 C0,8.5 3.1,13.3 11.2,13.3 C21.6,13.3 32.5,4.8 32.5,-4 C32.5,-9.9 27.5,-13.2 21.3,-13.2 C11.6,-13.2 0,-5 0,4.2"/>
<path class="Note" transform="matrix(0.992,0,0,0.992,1355.82,1638.6)" d="M0,4.2 C0,8.5 3.1,13.3 11.2,13.3 C21.6,13.3 32.5,4.8 32.5,-4 C32.5,-9.9 27.5,-13.2 21.3,-13.2 C11.6,-13.2 0,-5 0,4.2"/>
<path class="Note" transform="matrix(0.992,0,0,0.992,1970.45,708.598)" d="M0,4.2 C0,8.5 3.1,13.3 11.2,13.3 C21.6,13.3 32.5,4.8 32.5,-4 C32.5,-9.9 27.5,-13.2 21.3,-13.2 C11.6,-13.2 0,-5 0,4.2"/>
<path class="Note" transform="matrix(0.992,0,0,0.992,1875.46,1626.2)" d="M0,4.2 C0,8.5 3.1,13.3 11.2,13.3 C21.6,13.3 32.5,4.8 32.5,-4 C32.5,-9.9 27.5,-13.2 21.3,-13.2 C11.6,-13.2 0,-5 0,4.2"/>
<path class="Note" transform="matrix(0.992,0,0,0.992,2651.03,733.398)" d="M0,4.2 C0,8.5 3.1,13.3 11.2,13.3 C21.6,13.3 32.5,4.8 32.5,-4 C32.5,-9.9 27.5,-13.2 21.3,-13.2 C11.6,-13.2 0,-5 0,4.2"/>
<path class="Note" transform="matrix(0.992,0,0,0.992,752.371,2122.2)" d="M0,4.2 C0,8.5 3.1,13.3 11.2,13.3 C21.6,13.3 32.5,4.8 32.5,-4 C32.5,-9.9 27.5,-13.2 21.3,-13.2 C11.6,-13.2 0,-5 0,4.2"/>
<path class="Note" transform="matrix(0.992,0,0,0.992,1553.5,1626.2)" d="M0,4.2 C0,8.5 3.1,13.3 11.2,13.3 C21.6,13.3 32.5,4.8 32.5,-4 C32.5,-9.9 27.5,-13.2 21.3,-13.2 C11.6,-13.2 0,-5 0,4.2"/>
<path class="Note" transform="matrix(0.992,0,0,0.992,1768.14,1638.6)" d="M0,4.2 C0,8.5 3.1,13.3 11.2,13.3 C21.6,13.3 32.5,4.8 32.5,-4 C32.5,-9.9 27.5,-13.2 21.3,-13.2 C11.6,-13.2 0,-5 0,4.2"/>
<path class="Note" transform="matrix(0.992,0,0,0.992,871.435,2109.8)" d="M0,4.2 C0,8.5 3.1,13.3 11.2,13.3 C21.6,13.3 32.5,4.8 32.5,-4 C32.5,-9.9 27.5,-13.2 21.3,-13.2 C11.6,-13.2 0,-5 0,4.2"/>
<path class="Note" transform="matrix(0.992,0,0,0.992,762.206,745.798)" d="M0,4.2 C0,8.5 3.1,13.3 11.2,13.3 C21.6,13.3 32.5,4.8 32.5,-4 C32.5,-9.9 27.5,-13.2 21.3,-13.2 C11.6,-13.2 0,-5 0,4.2"/>
<path class="Note" transform="matrix(0.992,0,0,0.992,1660.82,1626.2)" d="M0,4.2 C0,8.5 3.1,13.3 11.2,13.3 C21.6,13.3 32.5,4.8 32.5,-4 C32.5,-9.9 27.5,-13.2 21.3,-13.2 C11.6,-13.2 0,-5 0,4.2"/>
<path class="Note" transform="matrix(0.992,0,0,0.992,2652.82,1675.8)" d="M0,4.2 C0,8.5 3.1,13.3 11.2,13.3 C21.6,13.3 32.5,4.8 32.5,-4 C32.5,-9.9 27.5,-13.2 21.3,-13.2 C11.6,-13.2 0,-5 0,4.2"/>
<path class="Clef" transform="matrix(0.992,0,0,0.992,232.438,1179.8)" d="M12.3,51.3 C12.3,57.9 17.3,66.6 30.8,66.6 C35.5,66.6 39.6,65.4 43.2,63.2 C48.6,59.4 50,52.8 50,46.5 C50,42.6 49.4,38.1 48.4,32.4 C48.1,30.4 47.5,27.4 46.9,23.5 C56.7,20.3 64,10.1 64,-0.2 C64,-15.3 53.3,-25.5 38.7,-25.5 C37.7,-31.5 36.7,-37.4 35.9,-43 C46.4,-54.1 53.7,-66.6 53.7,-82.5 C53.7,-91.6 50.9,-99 49.3,-102.6 C46.9,-107.7 44,-111.2 42.2,-111.2 C41.5,-111.2 38.4,-110 35.1,-106.1 C28.7,-98.5 26.9,-85.7 26.9,-77.3 C26.9,-71.9 27.4,-67 29.1,-55.8 C29,-55.7 23.8,-50.4 21.7,-48.7 C12.6,-40.3 0,-28.1 0,-8.1 C0,10.6 16.3,25.3 34.9,25.3 C37.8,25.3 40.5,25 42.8,24.6 C44.7,34.2 45.9,41.2 45.9,46.5 C45.9,56.9 40.5,62.4 30.4,62.4 C28,62.4 25.9,61.9 25.7,61.9 C25.6,61.8 25.4,61.7 25.4,61.6 C25.4,61.4 25.6,61.3 25.9,61.3 C30.6,60.5 35.3,56.5 35.3,50.1 C35.3,44.7 31.2,39 23.7,39 C16.7,39 12.3,44.7 12.3,51.3 M33.2,-82.2 C34.1,-86.2 38.7,-96.7 43.9,-96.7 C45.4,-96.7 47.8,-91.9 47.8,-84.9 C47.8,-74.5 40.1,-66.7 33.2,-59.9 C32.6,-63.9 32.1,-67.8 32.1,-72 C32.1,-75.7 32.4,-79.1 33.2,-82.2 M42,20.6 C40,21 38.1,21.2 36.2,21.2 C21.9,21.2 9.7,11.2 9.7,-3.9 C9.7,-16.1 18.3,-27 27.1,-34.6 C28.8,-36.1 30.4,-37.5 31.9,-39 C32.8,-33.6 33.5,-28.9 34.2,-24.8 C25.1,-22.1 18.9,-12.5 18.9,-3.1 C18.9,3.9 24.4,13.5 32.4,13.5 C33.2,13.5 34.1,13.1 34.1,12.2 C34.1,11.3 33.1,10.8 31.9,10 C28,7.6 25.8,5 25.8,0.1 C25.8,-6 30.4,-10.9 36.2,-12.3 L42,20.6 M56.2,2.1 C56.2,9.2 53.3,16.5 46.2,19.4 C44.1,7.4 41.4,-8.5 40.7,-12.9 C49.7,-12.9 56.2,-6.8 56.2,2.1"/>
<path class="Clef" transform="matrix(0.992,0,0,0.992,232.438,1651)" d="M12.3,51.3 C12.3,57.9 17.3,66.6 30.8,66.6 C35.5,66.6 39.6,65.4 43.2,63.2 C48.6,59.4 50,52.8 50,46.5 C50,42.6 49.4,38.1 48.4,32.4 C48.1,30.4 47.5,27.4 46.9,23.5 C56.7,20.3 64,10.1 64,-0.2 C64,-15.3 53.3,-25.5 38.7,-25.5 C37.7,-31.5 36.7,-37.4 35.9,-43 C46.4,-54.1 53.7,-66.6 53.7,-82.5 C53.7,-91.6 50.9,-99 49.3,-102.6 C46.9,-107.7 44,-111.2 42.2,-111.2 C41.5,-111.2 38.4,-110 35.1,-106.1 C28.7,-98.5 26.9,-85.7 26.9,-77.3 C26.9,-71.9 27.4,-67 29.1,-55.8 C29,-55.7 23.8,-50.4 21.7,-48.7 C12.6,-40.3 0,-28.1 0,-8.1 C0,10.6 16.3,25.3 34.9,25.3 C37.8,25.3 40.5,25 42.8,24.6 C44.7,34.2 45.9,41.2 45.9,46.5 C45.9,56.9 40.5,62.4 30.4,62.4 C28,62.4 25.9,61.9 25.7,61.9 C25.6,61.8 25.4,61.7 25.4,61.6 C25.4,61.4 25.6,61.3 25.9,61.3 C30.6,60.5 35.3,56.5 35.3,50.1 C35.3,44.7 31.2,39 23.7,39 C16.7,39 12.3,44.7 12.3,51.3 M33.2,-82.2 C34.1,-86.2 38.7,-96.7 43.9,-96.7 C45.4,-96.7 47.8,-91.9 47.8,-84.9 C47.8,-74.5 40.1,-66.7 33.2,-59.9 C32.6,-63.9 32.1,-67.8 32.1,-72 C32.1,-75.7 32.4,-79.1 33.2,-82.2 M42,20.6 C40,21 38.1,21.2 36.2,21.2 C21.9,21.2 9.7,11.2 9.7,-3.9 C9.7,-16.1 18.3,-27 27.1,-34.6 C28.8,-36.1 30.4,-37.5 31.9,-39 C32.8,-33.6 33.5,-28.9 34.2,-24.8 C25.1,-22.1 18.9,-12.5 18.9,-3.1 C18.9,3.9 24.4,13.5 32.4,13.5 C33.2,13.5 34.1,13.1 34.1,12.2 C34.1,11.3 33.1,10.8 31.9,10 C28,7.6 25.8,5 25.8,0.1 C25.8,-6 30.4,-10.9 36.2,-12.3 L42,20.6 M56.2,2.1 C56.2,9.2 53.3,16.5 46.2,19.4 C44.1,7.4 41.4,-8.5 40.7,-12.9 C49.7,-12.9 56.2,-6.8 56.2,2.1"/>
<path class="Clef" transform="matrix(0.992,0,0,0.992,232.438,708.598)" d="M12.3,51.3 C12.3,57.9 17.3,66.6 30.8,66.6 C35.5,66.6 39.6,65.4 43.2,63.2 C48.6,59.4 50,52.8 50,46.5 C50,42.6 49.4,38.1 48.4,32.4 C48.1,30.4 47.5,27.4 46.9,23.5 C56.7,20.3 64,10.1 64,-0.2 C64,-15.3 53.3,-25.5 38.7,-25.5 C37.7,-31.5 36.7,-37.4 35.9,-43 C46.4,-54.1 53.7,-66.6 53.7,-82.5 C53.7,-91.6 50.9,-99 49.3,-102.6 C46.9,-107.7 44,-111.2 42.2,-111.2 C41.5,-111.2 38.4,-110 35.1,-106.1 C28.7,-98.5 26.9,-85.7 26.9,-77.3 C26.9,-71.9 27.4,-67 29.1,-55.8 C29,-55.7 23.8,-50.4 21.7,-48.7 C12.6,-40.3 0,-28.1 0,-8.1 C0,10.6 16.3,25.3 34.9,25.3 C37.8,25.3 40.5,25 42.8,24.6 C44.7,34.2 45.9,41.2 45.9,46.5 C45.9,56.9 40.5,62.4 30.4,62.4 C28,62.4 25.9,61.9 25.7,61.9 C25.6,61.8 25.4,61.7 25.4,61.6 C25.4,61.4 25.6,61.3 25.9,61.3 C30.6,60.5 35.3,56.5 35.3,50.1 C35.3,44.7 31.2,39 23.7,39 C16.7,39 12.3,44.7 12.3,51.3 M33.2,-82.2 C34.1,-86.2 38.7,-96.7 43.9,-96.7 C45.4,-96.7 47.8,-91.9 47.8,-84.9 C47.8,-74.5 40.1,-66.7 33.2,-59.9 C32.6,-63.9 32.1,-67.8 32.1,-72 C32.1,-75.7 32.4,-79.1 33.2,-82.2 M42,20.6 C40,21 38.1,21.2 36.2,21.2 C21.9,21.2 9.7,11.2 9.7,-3.9 C9.7,-16.1 18.3,-27 27.1,-34.6 C28.8,-36.1 30.4,-37.5 31.9,-39 C32.8,-33.6 33.5,-28.9 34.2,-24.8 C25.1,-22.1 18.9,-12.5 18.9,-3.1 C18.9,3.9 24.4,13.5 32.4,13.5 C33.2,13.5 34.1,13.1 34.1,12.2 C34.1,11.3 33.1,10.8 31.9,10 C28,7.6 25.8,5 25.8,0.1 C25.8,-6 30.4,-10.9 36.2,-12.3 L42,20.6 M56.2,2.1 C56.2,9.2 53.3,16.5 46.2,19.4 C44.1,7.4 41.4,-8.5 40.7,-12.9 C49.7,-12.9 56.2,-6.8 56.2,2.1"/>
<path class="Clef" transform="matrix(0.992,0,0,0.992,232.438,2122.2)" d="M12.3,51.3 C12.3,57.9 17.3,66.6 30.8,66.6 C35.5,66.6 39.6,65.4 43.2,63.2 C48.6,59.4 50,52.8 50,46.5 C50,42.6 49.4,38.1 48.4,32.4 C48.1,30.4 47.5,27.4 46.9,23.5 C56.7,20.3 64,10.1 64,-0.2 C64,-15.3 53.3,-25.5 38.7,-25.5 C37.7,-31.5 36.7,-37.4 35.9,-43 C46.4,-54.1 53.7,-66.6 53.7,-82.5 C53.7,-91.6 50.9,-99 49.3,-102.6 C46.9,-107.7 44,-111.2 42.2,-111.2 C41.5,-111.2 38.4,-110 35.1,-106.1 C28.7,-98.5 26.9,-85.7 26.9,-77.3 C26.9,-71.9 27.4,-67 29.1,-55.8 C29,-55.7 23.8,-50.4 21.7,-48.7 C12.6,-40.3 0,-28.1 0,-8.1 C0,10.6 16.3,25.3 34.9,25.3 C37.8,25.3 40.5,25 42.8,24.6 C44.7,34.2 45.9,41.2 45.9,46.5 C45.9,56.9 40.5,62.4 30.4,62.4 C28,62.4 25.9,61.9 25.7,61.9 C25.6,61.8 25.4,61.7 25.4,61.6 C25.4,61.4 25.6,61.3 25.9,61.3 C30.6,60.5 35.3,56.5 35.3,50.1 C35.3,44.7 31.2,39 23.7,39 C16.7,39 12.3,44.7 12.3,51.3 M33.2,-82.2 C34.1,-86.2 38.7,-96.7 43.9,-96.7 C45.4,-96.7 47.8,-91.9 47.8,-84.9 C47.8,-74.5 40.1,-66.7 33.2,-59.9 C32.6,-63.9 32.1,-67.8 32.1,-72 C32.1,-75.7 32.4,-79.1 33.2,-82.2 M42,20.6 C40,21 38.1,21.2 36.2,21.2 C21.9,21.2 9.7,11.2 9.7,-3.9 C9.7,-16.1 18.3,-27 27.1,-34.6 C28.8,-36.1 30.4,-37.5 31.9,-39 C32.8,-33.6 33.5,-28.9 34.2,-24.8 C25.1,-22.1 18.9,-12.5 18.9,-3.1 C18.9,3.9 24.4,13.5 32.4,13.5 C33.2,13.5 34.1,13.1 34.1,12.2 C34.1,11.3 33.1,10.8 31.9,10 C28,7.6 25.8,5 25.8,0.1 C25.8,-6 30.4,-10.9 36.2,-12.3 L42,20.6 M56.2,2.1 C56.2,9.2 53.3,16.5 46.2,19.4 C44.1,7.4 41.4,-8.5 40.7,-12.9 C49.7,-12.9 56.2,-6.8 56.2,2.1"/>
<path class="KeySig" transform="matrix(0.992,0,0,0.992,320.711,1105.4)" d="M23.3,-10.5 C23.9,-10.6 24.4,-11.3 24.4,-11.9 L24.4,-17.8 C24.4,-18.8 23.7,-19.2 22.8,-19.2 L19.5,-18.5 L19.5,-33.4 L16.7,-33.4 L16.7,-17.9 L7.8,-16.1 L7.8,-30.2 L5,-30.2 L5,-15.5 L1.1,-14.7 C0.5,-14.6 0,-13.9 0,-13.3 L0,-7.5 C0,-6.4 0.8,-6.1 1.7,-6.1 L5,-6.8 L5,9.7 L1.1,10.5 C0.5,10.6 0,11.3 0,11.9 L0,17.7 C0,18.8 0.8,19.1 1.7,19.1 L5,18.4 L5,33.3 L7.8,33.3 L7.8,17.8 L16.7,16 L16.7,30.1 L19.5,30.1 L19.5,15.4 L23.3,14.7 C23.9,14.6 24.4,13.9 24.4,13.3 L24.4,7.4 C24.4,6.4 23.7,6 22.8,6 L19.5,6.7 L19.5,-9.8 L23.3,-10.5 M7.8,-7.4 L16.7,-9.2 L16.7,7.3 L7.8,9.2 L7.8,-7.4 "/>
<path class="KeySig" transform="matrix(0.992,0,0,0.992,320.711,634.198)" d="M23.3,-10.5 C23.9,-10.6 24.4,-11.3 24.4,-11.9 L24.4,-17.8 C24.4,-18.8 23.7,-19.2 22.8,-19.2 L19.5,-18.5 L19.5,-33.4 L16.7,-33.4 L16.7,-17.9 L7.8,-16.1 L7.8,-30.2 L5,-30.2 L5,-15.5 L1.1,-14.7 C0.5,-14.6 0,-13.9 0,-13.3 L0,-7.5 C0,-6.4 0.8,-6.1 1.7,-6.1 L5,-6.8 L5,9.7 L1.1,10.5 C0.5,10.6 0,11.3 0,11.9 L0,17.7 C0,18.8 0.8,19.1 1.7,19.1 L5,18.4 L5,33.3 L7.8,33.3 L7.8,17.8 L16.7,16 L16.7,30.1 L19.5,30.1 L19.5,15.4 L23.3,14.7 C23.9,14.6 24.4,13.9 24.4,13.3 L24.4,7.4 C24.4,6.4 23.7,6 22.8,6 L19.5,6.7 L19.5,-9.8 L23.3,-10.5 M7.8,-7.4 L16.7,-9.2 L16.7,7.3 L7.8,9.2 L7.8,-7.4 "/>
<path class="KeySig" transform="matrix(0.992,0,0,0.992,320.711,1576.6)" d="M23.3,-10.5 C23.9,-10.6 24.4,-11.3 24.4,-11.9 L24.4,-17.8 C24.4,-18.8 23.7,-19.2 22.8,-19.2 L19.5,-18.5 L19.5,-33.4 L16.7,-33.4 L16.7,-17.9 L7.8,-16.1 L7.8,-30.2 L5,-30.2 L5,-15.5 L1.1,-14.7 C0.5,-14.6 0,-13.9 0,-13.3 L0,-7.5 C0,-6.4 0.8,-6.1 1.7,-6.1 L5,-6.8 L5,9.7 L1.1,10.5 C0.5,10.6 0,11.3 0,11.9 L0,17.7 C0,18.8 0.8,19.1 1.7,19.1 L5,18.4 L5,33.3 L7.8,33.3 L7.8,17.8 L16.7,16 L16.7,30.1 L19.5,30.1 L19.5,15.4 L23.3,14.7 C23.9,14.6 24.4,13.9 24.4,13.3 L24.4,7.4 C24.4,6.4 23.7,6 22.8,6 L19.5,6.7 L19.5,-9.8 L23.3,-10.5 M7.8,-7.4 L16.7,-9.2 L16.7,7.3 L7.8,9.2 L7.8,-7.4 "/>
<path class="KeySig" transform="matrix(0.992,0,0,0.992,320.711,2047.8)" d="M23.3,-10.5 C23.9,-10.6 24.4,-11.3 24.4,-11.9 L24.4,-17.8 C24.4,-18.8 23.7,-19.2 22.8,-19.2 L19.5,-18.5 L19.5,-33.4 L16.7,-33.4 L16.7,-17.9 L7.8,-16.1 L7.8,-30.2 L5,-30.2 L5,-15.5 L1.1,-14.7 C0.5,-14.6 0,-13.9 0,-13.3 L0,-7.5 C0,-6.4 0.8,-6.1 1.7,-6.1 L5,-6.8 L5,9.7 L1.1,10.5 C0.5,10.6 0,11.3 0,11.9 L0,17.7 C0,18.8 0.8,19.1 1.7,19.1 L5,18.4 L5,33.3 L7.8,33.3 L7.8,17.8 L16.7,16 L16.7,30.1 L19.5,30.1 L19.5,15.4 L23.3,14.7 C23.9,14.6 24.4,13.9 24.4,13.3 L24.4,7.4 C24.4,6.4 23.7,6 22.8,6 L19.5,6.7 L19.5,-9.8 L23.3,-10.5 M7.8,-7.4 L16.7,-9.2 L16.7,7.3 L7.8,9.2 L7.8,-7.4 "/>
<path class="TimeSig" transform="matrix(0.992,0,0,0.992,372.233,659.494)" d="M27.2,-1.6 C32.2,-3.5 35.7,-6.7 35.7,-12.2 C35.7,-13.1 35.4,-24.4 18.2,-24.4 C1,-24.4 1.5,-12.2 1.5,-12.2 L1.6,-12.2 L1.5,-12 C1.5,-8.4 4.4,-5.6 8,-5.6 C11.6,-5.6 14.4,-8.4 14.4,-12 C14.4,-14.9 12.2,-17.7 9.4,-18.3 C9.5,-18.4 9.6,-18.5 9.7,-18.6 C11.1,-19.6 13,-20.1 14.9,-20.1 C19.1,-20.1 23.6,-17.6 23.6,-12.2 C23.6,-5.9 18.9,-5 17.7,-4.8 C16.5,-4.6 10.9,-4.2 9.7,-4.2 C8.5,-4.2 8.4,-2.8 8.4,-2.8 L8.4,-0.8 C8.4,-0.8 8.6,0.3 9.7,0.4 C11.4,0.5 13.7,0.5 16.9,1 C21.3,1.6 23.6,4.6 23.6,11.6 C23.6,18.3 19.1,20.1 14.9,20.1 C12.1,20.1 9.5,19.3 8.4,18.5 C11.7,18.3 14.4,15.4 14.4,12.1 C14.4,8.5 11.6,5.6 8,5.6 C4.4,5.6 1.5,8.5 1.5,12.1 C1.5,20.3 9,24.4 16.4,24.4 C26,24.4 36.4,21.1 36.4,10.2 C36.4,2.9 31.4,-0.2 27,-1.6 L27.2,-1.6 "/>
<path class="TimeSig" transform="matrix(0.992,0,0,0.992,368.327,708.598)" d="M20.8,12.7 L20.8,20.1 L12.5,20.1 C11.8,20.1 11.1,20.7 11.1,21.5 L11.1,23.4 C11.1,24.2 11.8,24.8 12.5,24.8 L42.8,24.8 C43.6,24.8 44.2,24.2 44.2,23.4 L44.2,21.5 C44.2,20.7 43.6,20.1 42.8,20.1 L33.9,20.1 L33.9,12.7 L42.8,12.7 C43.6,12.7 44.2,12 44.2,11.2 L44.2,9.3 C44.2,8.6 43.6,7.9 42.8,7.9 L33.9,7.9 L33.9,-8 C33.9,-8.6 33.6,-9.1 33.1,-9.3 L31.9,-9.9 C31.7,-10 31.4,-10.1 31.2,-10.1 C30.9,-10 30.5,-9.9 30.3,-9.7 L21.2,-1.4 C20.9,-1.1 20.8,-0.7 20.8,-0.3 L20.8,7.9 L9.3,7.9 C9.3,7.9 20.4,-4.1 32.2,-19.9 C32.6,-20.4 32.7,-20.9 32.7,-21.3 C32.7,-21.8 32.5,-22.2 32.4,-22.3 L30.2,-24.5 C30,-24.7 29.6,-24.9 29.2,-24.9 C28.6,-24.9 15.1,-24.9 14.4,-24.9 C13.6,-24.9 13.1,-24.3 13,-23.7 C13,-23.7 12.5,-16.3 9.9,-8.2 C7.3,-0.1 4.3,4.9 1.7,8.6 C1.7,8.6 1.4,9.1 1.4,9.7 C1.4,9.9 1.4,10.1 1.5,10.3 C1.9,11 2.5,12.1 2.5,12.1 C2.5,12.1 2.7,12.7 3.6,12.7 L20.8,12.7 "/>
<path class="Beam" fill-rule="evenodd" d="M1583,1551.8 L2122.32,1551.8 L2122.32,1564.2 L1583,1564.2 L1583,1551.8 "/>
<path class="Beam" fill-rule="evenodd" d="M1781.74,609.398 L2111.78,609.398 L2111.78,621.798 L1781.74,621.798 L1781.74,609.398 "/>
<path class="Beam" fill-rule="evenodd" d="M1056.7,2022.99 L1654.75,2047.79 L1654.75,2060.2 L1056.7,2035.4 L1056.7,2022.99 "/>
<path class="Beam" fill-rule="evenodd" d="M662.804,2035.4 L903.66,2035.4 L903.66,2047.8 L662.804,2047.8 L662.804,2035.4 "/>
<path class="Beam" fill-rule="evenodd" d="M980.203,1681.99 L1090.25,1688.19 L1090.25,1700.61 L980.203,1694.41 L980.203,1681.99 "/>
<path class="Beam" fill-rule="evenodd" d="M671.338,1093 L921.17,1093 L921.17,1105.4 L671.338,1105.4 L671.338,1093 "/>
<path class="Beam" fill-rule="evenodd" d="M2462.32,652.798 L2683.26,652.798 L2683.26,665.198 L2462.32,665.198 L2462.32,652.798 "/>
<path class="Beam" fill-rule="evenodd" d="M406.906,1669.6 L516.953,1669.6 L516.953,1682 L406.906,1682 L406.906,1669.6 "/>
<path class="Beam" fill-rule="evenodd" d="M1078.7,1080.59 L1699.19,1105.39 L1699.19,1117.8 L1078.7,1093 L1078.7,1080.59 "/>
<path class="Beam" fill-rule="evenodd" d="M1254.07,621.798 L1475.01,621.798 L1475.01,634.198 L1254.07,634.198 L1254.07,621.798 "/>
<path class="Beam" fill-rule="evenodd" d="M2467.68,1595.2 L2685.04,1595.2 L2685.04,1607.6 L2467.68,1607.6 L2467.68,1595.2 "/>
<path class="Beam" fill-rule="evenodd" d="M2034.19,2035.4 L2275.04,2041.6 L2275.04,2054 L2034.19,2047.8 L2034.19,2035.4 "/>
<path class="Beam" fill-rule="evenodd" d="M682.599,652.798 L903.534,652.798 L903.534,665.198 L682.599,665.198 L682.599,652.798 "/>
<path class="Harmony" d="M1543.41,1043.4 L1561.89,1043.4 C1566.78,1043.4 1570.52,1042.63 1573.44,1040.98 C1578.99,1037.84 1582.07,1031.57 1582.07,1023.32 C1582.07,1015.73 1579.32,1009.79 1574.26,1006.49 C1571.24,1004.57 1567.17,1003.69 1560.9,1003.69 L1543.41,1003.69 L1543.41,1006.27 L1544.45,1006.27 C1547.53,1006.33 1548.58,1006.49 1549.02,1007.04 C1549.35,1007.54 1549.35,1007.65 1549.35,1010.45 L1549.35,1036.63 C1549.35,1039.44 1549.35,1039.55 1549.02,1040.04 C1548.58,1040.59 1547.53,1040.76 1544.45,1040.81 L1543.41,1040.81 L1543.41,1043.4 M1558.64,1040.81 C1555.84,1040.81 1555.51,1040.48 1555.51,1037.79 L1555.51,1009.35 C1555.51,1006.66 1555.89,1006.27 1558.64,1006.27 L1561.5,1006.27 C1570.91,1006.27 1574.81,1011.39 1574.81,1023.54 C1574.81,1035.86 1571.29,1040.81 1562.38,1040.81 L1558.64,1040.81 "/>
<path class="Harmony" d="M2219.16,1003.3 L2217.07,1003.3 L2214.92,1006.6 C2211.35,1003.8 2208.93,1002.86 2204.91,1002.86 C2200.57,1002.86 2197.16,1004.07 2193.69,1006.88 C2188.25,1011.28 2185.72,1016.83 2185.72,1024.26 C2185.72,1029.87 2187.31,1034.54 2190.56,1038.12 C2193.97,1041.97 2199.03,1044.22 2204.31,1044.22 C2208.93,1044.22 2212.17,1042.79 2215.75,1039.22 L2217.78,1044.17 L2220.09,1044.17 L2220.09,1032.07 C2220.09,1029.26 2220.09,1029.15 2220.42,1028.66 C2220.92,1028.05 2221.91,1027.89 2225.04,1027.89 L2225.87,1027.89 L2225.87,1025.3 L2208.38,1025.3 L2208.38,1027.89 L2209.42,1027.89 C2214.04,1027.89 2214.43,1028.16 2214.43,1031.24 C2214.43,1033.61 2214.04,1035.75 2213.33,1037.07 C2211.95,1039.77 2208.43,1041.64 2204.86,1041.64 C2201.28,1041.64 2197.76,1039.82 2195.89,1037.07 C2193.86,1033.99 2192.98,1030.14 2192.98,1024.26 C2192.98,1011.99 2197.05,1005.45 2204.69,1005.45 C2210.96,1005.45 2215.31,1009.96 2217.56,1018.76 L2219.93,1018.76 L2219.16,1003.3 "/>
<path class="Harmony" d="M2578.95,1474.5 L2576.86,1474.5 L2574.72,1477.8 C2571.14,1475 2568.72,1474.06 2564.71,1474.06 C2560.36,1474.06 2556.95,1475.27 2553.49,1478.08 C2548.04,1482.48 2545.51,1488.03 2545.51,1495.46 C2545.51,1501.07 2547.11,1505.74 2550.35,1509.32 C2553.76,1513.17 2558.82,1515.42 2564.1,1515.42 C2568.72,1515.42 2571.97,1513.99 2575.54,1510.42 L2577.58,1515.37 L2579.89,1515.37 L2579.89,1503.27 C2579.89,1500.46 2579.89,1500.35 2580.22,1499.86 C2580.71,1499.25 2581.7,1499.09 2584.84,1499.09 L2585.66,1499.09 L2585.66,1496.5 L2568.17,1496.5 L2568.17,1499.09 L2569.22,1499.09 C2573.84,1499.09 2574.22,1499.36 2574.22,1502.44 C2574.22,1504.81 2573.84,1506.95 2573.12,1508.27 C2571.75,1510.97 2568.23,1512.84 2564.65,1512.84 C2561.08,1512.84 2557.56,1511.02 2555.69,1508.27 C2553.65,1505.19 2552.77,1501.34 2552.77,1495.46 C2552.77,1483.19 2556.84,1476.65 2564.49,1476.65 C2570.76,1476.65 2575.1,1481.16 2577.36,1489.96 L2579.72,1489.96 L2578.95,1474.5 "/>
<path class="Harmony" d="M2157.21,1945.7 L2155.12,1945.7 L2152.97,1949 C2149.4,1946.2 2146.98,1945.26 2142.96,1945.26 C2138.62,1945.26 2135.21,1946.47 2131.74,1949.28 C2126.3,1953.68 2123.77,1959.23 2123.77,1966.66 C2123.77,1972.27 2125.36,1976.94 2128.61,1980.52 C2132.02,1984.37 2137.08,1986.62 2142.36,1986.62 C2146.98,1986.62 2150.22,1985.19 2153.8,1981.62 L2155.83,1986.57 L2158.14,1986.57 L2158.14,1974.47 C2158.14,1971.66 2158.14,1971.55 2158.47,1971.06 C2158.97,1970.45 2159.96,1970.29 2163.09,1970.29 L2163.92,1970.29 L2163.92,1967.7 L2146.43,1967.7 L2146.43,1970.29 L2147.47,1970.29 C2152.09,1970.29 2152.48,1970.56 2152.48,1973.64 C2152.48,1976.01 2152.09,1978.15 2151.38,1979.47 C2150,1982.17 2146.48,1984.04 2142.91,1984.04 C2139.33,1984.04 2135.81,1982.22 2133.94,1979.47 C2131.91,1976.39 2131.03,1972.54 2131.03,1966.66 C2131.03,1954.39 2135.1,1947.85 2142.74,1947.85 C2149.01,1947.85 2153.36,1952.36 2155.61,1961.16 L2157.98,1961.16 L2157.21,1945.7 "/>
<path class="Harmony" d="M2258.82,532.103 L2256.73,532.103 L2254.58,535.403 C2251.01,532.598 2248.59,531.663 2244.57,531.663 C2240.23,531.663 2236.82,532.873 2233.35,535.678 C2227.91,540.078 2225.38,545.633 2225.38,553.058 C2225.38,558.668 2226.97,563.343 2230.22,566.918 C2233.63,570.768 2238.69,573.023 2243.97,573.023 C2248.59,573.023 2251.83,571.593 2255.41,568.018 L2257.44,572.968 L2259.75,572.968 L2259.75,560.868 C2259.75,558.063 2259.75,557.953 2260.08,557.458 C2260.58,556.853 2261.57,556.688 2264.7,556.688 L2265.53,556.688 L2265.53,554.103 L2248.04,554.103 L2248.04,556.688 L2249.08,556.688 C2253.7,556.688 2254.09,556.963 2254.09,560.043 C2254.09,562.408 2253.7,564.553 2252.99,565.873 C2251.61,568.568 2248.09,570.438 2244.52,570.438 C2240.94,570.438 2237.42,568.623 2235.55,565.873 C2233.52,562.793 2232.64,558.943 2232.64,553.058 C2232.64,540.793 2236.71,534.248 2244.35,534.248 C2250.62,534.248 2254.97,538.758 2257.22,547.558 L2259.59,547.558 L2258.82,532.103 "/>
<path class="Harmony" d="M2397.13,532.103 L2395.04,532.103 L2392.89,535.403 C2389.32,532.598 2386.9,531.663 2382.88,531.663 C2378.54,531.663 2375.13,532.873 2371.66,535.678 C2366.22,540.078 2363.69,545.633 2363.69,553.058 C2363.69,558.668 2365.28,563.343 2368.53,566.918 C2371.94,570.768 2377,573.023 2382.28,573.023 C2386.9,573.023 2390.14,571.593 2393.72,568.018 L2395.75,572.968 L2398.06,572.968 L2398.06,560.868 C2398.06,558.063 2398.06,557.953 2398.39,557.458 C2398.89,556.853 2399.88,556.688 2403.01,556.688 L2403.84,556.688 L2403.84,554.103 L2386.35,554.103 L2386.35,556.688 L2387.39,556.688 C2392.01,556.688 2392.4,556.963 2392.4,560.043 C2392.4,562.408 2392.01,564.553 2391.3,565.873 C2389.92,568.568 2386.4,570.438 2382.83,570.438 C2379.25,570.438 2375.73,568.623 2373.86,565.873 C2371.83,562.793 2370.95,558.943 2370.95,553.058 C2370.95,540.793 2375.02,534.248 2382.66,534.248 C2388.93,534.248 2393.28,538.758 2395.53,547.558 L2397.9,547.558 L2397.13,532.103 "/>
<path class="Harmony" d="M2403.61,1474.5 L2401.52,1474.5 L2399.38,1477.8 C2395.8,1475 2393.38,1474.06 2389.37,1474.06 C2385.02,1474.06 2381.61,1475.27 2378.15,1478.08 C2372.7,1482.48 2370.17,1488.03 2370.17,1495.46 C2370.17,1501.07 2371.77,1505.74 2375.01,1509.32 C2378.42,1513.17 2383.48,1515.42 2388.76,1515.42 C2393.38,1515.42 2396.63,1513.99 2400.2,1510.42 L2402.24,1515.37 L2404.55,1515.37 L2404.55,1503.27 C2404.55,1500.46 2404.55,1500.35 2404.88,1499.86 C2405.37,1499.25 2406.36,1499.09 2409.5,1499.09 L2410.32,1499.09 L2410.32,1496.5 L2392.83,1496.5 L2392.83,1499.09 L2393.88,1499.09 C2398.5,1499.09 2398.88,1499.36 2398.88,1502.44 C2398.88,1504.81 2398.5,1506.95 2397.78,1508.27 C2396.41,1510.97 2392.89,1512.84 2389.31,1512.84 C2385.74,1512.84 2382.22,1511.02 2380.35,1508.27 C2378.31,1505.19 2377.43,1501.34 2377.43,1495.46 C2377.43,1483.19 2381.5,1476.65 2389.15,1476.65 C2395.42,1476.65 2399.76,1481.16 2402.02,1489.96 L2404.38,1489.96 L2403.61,1474.5 "/>
<path class="Harmony" d="M2267.57,1474.5 L2265.48,1474.5 L2263.33,1477.8 C2259.76,1475 2257.34,1474.06 2253.32,1474.06 C2248.98,1474.06 2245.57,1475.27 2242.1,1478.08 C2236.66,1482.48 2234.13,1488.03 2234.13,1495.46 C2234.13,1501.07 2235.72,1505.74 2238.97,1509.32 C2242.38,1513.17 2247.44,1515.42 2252.72,1515.42 C2257.34,1515.42 2260.58,1513.99 2264.16,1510.42 L2266.19,1515.37 L2268.5,1515.37 L2268.5,1503.27 C2268.5,1500.46 2268.5,1500.35 2268.83,1499.86 C2269.33,1499.25 2270.32,1499.09 2273.45,1499.09 L2274.28,1499.09 L2274.28,1496.5 L2256.79,1496.5 L2256.79,1499.09 L2257.83,1499.09 C2262.45,1499.09 2262.84,1499.36 2262.84,1502.44 C2262.84,1504.81 2262.45,1506.95 2261.74,1508.27 C2260.36,1510.97 2256.84,1512.84 2253.27,1512.84 C2249.69,1512.84 2246.17,1511.02 2244.3,1508.27 C2242.27,1505.19 2241.39,1501.34 2241.39,1495.46 C2241.39,1483.19 2245.46,1476.65 2253.1,1476.65 C2259.37,1476.65 2263.72,1481.16 2265.97,1489.96 L2268.34,1489.96 L2267.57,1474.5 "/>
<path class="Harmony" d="M2658.44,1945.7 L2656.35,1945.7 L2654.21,1949 C2650.63,1946.2 2648.21,1945.26 2644.2,1945.26 C2639.85,1945.26 2636.44,1946.47 2632.98,1949.28 C2627.53,1953.68 2625,1959.23 2625,1966.66 C2625,1972.27 2626.6,1976.94 2629.84,1980.52 C2633.25,1984.37 2638.31,1986.62 2643.59,1986.62 C2648.21,1986.62 2651.46,1985.19 2655.03,1981.62 L2657.07,1986.57 L2659.38,1986.57 L2659.38,1974.47 C2659.38,1971.66 2659.38,1971.55 2659.71,1971.06 C2660.2,1970.45 2661.19,1970.29 2664.33,1970.29 L2665.15,1970.29 L2665.15,1967.7 L2647.66,1967.7 L2647.66,1970.29 L2648.71,1970.29 C2653.33,1970.29 2653.71,1970.56 2653.71,1973.64 C2653.71,1976.01 2653.33,1978.15 2652.61,1979.47 C2651.24,1982.17 2647.72,1984.04 2644.14,1984.04 C2640.57,1984.04 2637.05,1982.22 2635.18,1979.47 C2633.14,1976.39 2632.26,1972.54 2632.26,1966.66 C2632.26,1954.39 2636.33,1947.85 2643.98,1947.85 C2650.25,1947.85 2654.59,1952.36 2656.85,1961.16 L2659.21,1961.16 L2658.44,1945.7 "/>
<path class="Harmony" d="M2545.24,1945.7 L2543.15,1945.7 L2541.01,1949 C2537.43,1946.2 2535.01,1945.26 2531,1945.26 C2526.65,1945.26 2523.24,1946.47 2519.78,1949.28 C2514.33,1953.68 2511.8,1959.23 2511.8,1966.66 C2511.8,1972.27 2513.4,1976.94 2516.64,1980.52 C2520.05,1984.37 2525.11,1986.62 2530.39,1986.62 C2535.01,1986.62 2538.26,1985.19 2541.83,1981.62 L2543.87,1986.57 L2546.18,1986.57 L2546.18,1974.47 C2546.18,1971.66 2546.18,1971.55 2546.51,1971.06 C2547,1970.45 2547.99,1970.29 2551.13,1970.29 L2551.95,1970.29 L2551.95,1967.7 L2534.46,1967.7 L2534.46,1970.29 L2535.51,1970.29 C2540.13,1970.29 2540.51,1970.56 2540.51,1973.64 C2540.51,1976.01 2540.13,1978.15 2539.41,1979.47 C2538.04,1982.17 2534.52,1984.04 2530.94,1984.04 C2527.37,1984.04 2523.85,1982.22 2521.98,1979.47 C2519.94,1976.39 2519.06,1972.54 2519.06,1966.66 C2519.06,1954.39 2523.13,1947.85 2530.78,1947.85 C2537.05,1947.85 2541.39,1952.36 2543.65,1961.16 L2546.01,1961.16 L2545.24,1945.7 "/>
<path class="Harmony" d="M440.36,1945.7 L438.27,1945.7 L436.125,1949 C432.55,1946.2 430.13,1945.26 426.115,1945.26 C421.77,1945.26 418.36,1946.47 414.895,1949.28 C409.45,1953.68 406.92,1959.23 406.92,1966.66 C406.92,1972.27 408.515,1976.94 411.76,1980.52 C415.17,1984.37 420.23,1986.62 425.51,1986.62 C430.13,1986.62 433.375,1985.19 436.95,1981.62 L438.985,1986.57 L441.295,1986.57 L441.295,1974.47 C441.295,1971.66 441.295,1971.55 441.625,1971.06 C442.12,1970.45 443.11,1970.29 446.245,1970.29 L447.07,1970.29 L447.07,1967.7 L429.58,1967.7 L429.58,1970.29 L430.625,1970.29 C435.245,1970.29 435.63,1970.56 435.63,1973.64 C435.63,1976.01 435.245,1978.15 434.53,1979.47 C433.155,1982.17 429.635,1984.04 426.06,1984.04 C422.485,1984.04 418.965,1982.22 417.095,1979.47 C415.06,1976.39 414.18,1972.54 414.18,1966.66 C414.18,1954.39 418.25,1947.85 425.895,1947.85 C432.165,1947.85 436.51,1952.36 438.765,1961.16 L441.13,1961.16 L440.36,1945.7 "/>
<path class="Harmony" d="M591.294,1945.7 L589.204,1945.7 L587.059,1949 C583.484,1946.2 581.064,1945.26 577.049,1945.26 C572.704,1945.26 569.294,1946.47 565.829,1949.28 C560.384,1953.68 557.854,1959.23 557.854,1966.66 C557.854,1972.27 559.449,1976.94 562.694,1980.52 C566.104,1984.37 571.164,1986.62 576.444,1986.62 C581.064,1986.62 584.309,1985.19 587.884,1981.62 L589.919,1986.57 L592.229,1986.57 L592.229,1974.47 C592.229,1971.66 592.229,1971.55 592.559,1971.06 C593.054,1970.45 594.044,1970.29 597.179,1970.29 L598.004,1970.29 L598.004,1967.7 L580.514,1967.7 L580.514,1970.29 L581.559,1970.29 C586.179,1970.29 586.564,1970.56 586.564,1973.64 C586.564,1976.01 586.179,1978.15 585.464,1979.47 C584.089,1982.17 580.569,1984.04 576.994,1984.04 C573.419,1984.04 569.899,1982.22 568.029,1979.47 C565.994,1976.39 565.114,1972.54 565.114,1966.66 C565.114,1954.39 569.184,1947.85 576.829,1947.85 C583.099,1947.85 587.444,1952.36 589.699,1961.16 L592.064,1961.16 L591.294,1945.7 "/>
<path class="Harmony" d="M2003.13,532.103 L2001.04,532.103 L1998.84,535.348 C1994.83,532.433 1992.79,531.663 1989,531.663 C1983.77,531.663 1979.32,533.863 1975.63,538.263 C1972.11,542.443 1970.46,547.063 1970.46,552.728 C1970.46,564.608 1978.22,573.023 1989.05,573.023 C1997.85,573.023 2003.46,567.853 2004.73,558.613 L2002.14,558.173 C2000.66,566.368 1996.48,570.438 1989.71,570.438 C1981.57,570.438 1977.72,564.828 1977.72,552.948 C1977.72,546.678 1978.55,542.553 1980.42,539.253 C1982.12,536.173 1985.48,534.248 1989.05,534.248 C1992.9,534.248 1996.31,536.283 1998.4,539.803 C1999.45,541.618 2000.22,543.653 2001.54,547.998 L2003.96,547.998 L2003.13,532.103 "/>
<path class="Harmony" d="M1329.36,1003.69 L1296.31,1003.69 L1296.31,1006.27 L1297.3,1006.27 C1300.43,1006.33 1301.48,1006.49 1301.92,1007.04 C1302.25,1007.54 1302.25,1007.65 1302.25,1010.45 L1302.25,1036.63 C1302.25,1039.44 1302.25,1039.55 1301.92,1040.04 C1301.48,1040.59 1300.43,1040.81 1297.3,1040.81 L1296.31,1040.81 L1296.31,1043.4 L1330.08,1043.4 L1331.18,1028.71 L1328.76,1028.71 C1326.67,1038.5 1324.41,1040.59 1316,1040.81 L1312.37,1040.81 C1309.07,1040.7 1308.24,1040.15 1308.41,1038.17 L1308.41,1024.15 L1309.51,1024.15 C1315.17,1023.93 1317.21,1025.96 1317.43,1032.07 L1320.01,1032.07 L1320.01,1014.03 L1317.43,1014.03 C1317.1,1019.42 1314.95,1021.56 1309.73,1021.56 L1308.41,1021.56 L1308.41,1009.02 C1308.35,1006.71 1308.9,1006.33 1311.87,1006.27 L1314.73,1006.27 C1323.75,1006.22 1326.01,1008.2 1327.77,1017.71 L1330.13,1017.71 L1329.36,1003.69 "/>
<path class="Harmony" d="M1347.92,1017.77 L1338.13,1018.37 L1338.13,1020.74 L1340.39,1020.74 C1342.48,1020.79 1342.75,1021.12 1342.75,1023.49 L1342.75,1039.22 C1342.7,1040.04 1342.64,1040.37 1342.42,1040.65 C1342.04,1041.14 1340.99,1041.36 1338.63,1041.42 L1338.41,1041.42 L1338.41,1043.4 L1352.27,1043.4 L1352.27,1041.42 L1352.05,1041.42 C1348.42,1041.31 1347.92,1041.03 1347.92,1039 L1347.92,1028.82 C1347.92,1023.93 1350.62,1020.3 1354.19,1020.3 C1357.33,1020.3 1358.92,1022.55 1358.92,1027.01 L1358.92,1039.27 C1358.87,1039.99 1358.81,1040.37 1358.54,1040.65 C1358.21,1041.14 1357.11,1041.36 1354.74,1041.42 L1354.52,1041.42 L1354.52,1043.4 L1368.44,1043.4 L1368.44,1041.42 L1368.22,1041.42 C1364.59,1041.31 1364.09,1041.03 1364.09,1039.05 L1364.09,1029.32 C1364.09,1023.82 1366.57,1020.3 1370.42,1020.3 C1373.55,1020.3 1375.09,1022.66 1375.09,1027.61 L1375.09,1039.22 C1375.04,1039.99 1374.98,1040.37 1374.71,1040.65 C1374.38,1041.14 1373.28,1041.36 1370.91,1041.42 L1370.69,1041.42 L1370.69,1043.4 L1384.61,1043.4 L1384.61,1041.42 L1384.39,1041.42 C1380.76,1041.31 1380.26,1041.03 1380.26,1039 L1380.26,1026.51 C1380.26,1023.1 1379.93,1021.95 1378.5,1020.08 C1376.91,1018.04 1374.65,1016.94 1372.01,1016.94 C1368.44,1016.94 1365.8,1018.65 1363.43,1022.44 C1362.5,1019.14 1359.53,1016.94 1355.84,1016.94 C1352.49,1016.94 1350.07,1018.54 1347.92,1022 L1347.92,1017.77 "/>
<path class="Harmony" d="M2015.83,1474.89 L1982.78,1474.89 L1982.78,1477.47 L1983.77,1477.47 C1986.9,1477.53 1987.95,1477.69 1988.39,1478.24 C1988.72,1478.74 1988.72,1478.85 1988.72,1481.65 L1988.72,1507.83 C1988.72,1510.64 1988.72,1510.75 1988.39,1511.24 C1987.95,1511.79 1986.9,1512.01 1983.77,1512.01 L1982.78,1512.01 L1982.78,1514.6 L2016.55,1514.6 L2017.65,1499.91 L2015.23,1499.91 C2013.14,1509.7 2010.88,1511.79 2002.47,1512.01 L1998.84,1512.01 C1995.54,1511.9 1994.71,1511.35 1994.88,1509.37 L1994.88,1495.35 L1995.98,1495.35 C2001.64,1495.13 2003.68,1497.16 2003.9,1503.27 L2006.48,1503.27 L2006.48,1485.23 L2003.9,1485.23 C2003.57,1490.62 2001.42,1492.76 1996.2,1492.76 L1994.88,1492.76 L1994.88,1480.22 C1994.82,1477.91 1995.37,1477.53 1998.34,1477.47 L2001.2,1477.47 C2010.22,1477.42 2012.48,1479.4 2014.24,1488.91 L2016.6,1488.91 L2015.83,1474.89 "/>
<path class="Harmony" d="M2034.39,1488.97 L2024.6,1489.57 L2024.6,1491.94 L2026.86,1491.94 C2028.95,1491.99 2029.22,1492.32 2029.22,1494.69 L2029.22,1510.42 C2029.17,1511.24 2029.11,1511.57 2028.89,1511.85 C2028.51,1512.34 2027.46,1512.56 2025.1,1512.62 L2024.88,1512.62 L2024.88,1514.6 L2038.74,1514.6 L2038.74,1512.62 L2038.52,1512.62 C2034.89,1512.51 2034.39,1512.23 2034.39,1510.2 L2034.39,1500.02 C2034.39,1495.13 2037.09,1491.5 2040.66,1491.5 C2043.8,1491.5 2045.39,1493.75 2045.39,1498.21 L2045.39,1510.47 C2045.34,1511.19 2045.28,1511.57 2045.01,1511.85 C2044.68,1512.34 2043.58,1512.56 2041.21,1512.62 L2040.99,1512.62 L2040.99,1514.6 L2054.91,1514.6 L2054.91,1512.62 L2054.69,1512.62 C2051.06,1512.51 2050.56,1512.23 2050.56,1510.25 L2050.56,1500.52 C2050.56,1495.02 2053.04,1491.5 2056.89,1491.5 C2060.02,1491.5 2061.56,1493.86 2061.56,1498.81 L2061.56,1510.42 C2061.51,1511.19 2061.45,1511.57 2061.18,1511.85 C2060.85,1512.34 2059.75,1512.56 2057.38,1512.62 L2057.16,1512.62 L2057.16,1514.6 L2071.08,1514.6 L2071.08,1512.62 L2070.86,1512.62 C2067.23,1512.51 2066.73,1512.23 2066.73,1510.2 L2066.73,1497.71 C2066.73,1494.3 2066.4,1493.15 2064.97,1491.28 C2063.38,1489.24 2061.12,1488.14 2058.48,1488.14 C2054.91,1488.14 2052.27,1489.85 2049.9,1493.64 C2048.97,1490.34 2046,1488.14 2042.31,1488.14 C2038.96,1488.14 2036.54,1489.74 2034.39,1493.2 L2034.39,1488.97 "/>
<path class="Harmony" d="M2575.38,532.103 L2573.29,532.103 L2571.15,535.403 C2567.57,532.598 2565.15,531.663 2561.14,531.663 C2556.79,531.663 2553.38,532.873 2549.92,535.678 C2544.47,540.078 2541.94,545.633 2541.94,553.058 C2541.94,558.668 2543.54,563.343 2546.78,566.918 C2550.19,570.768 2555.25,573.023 2560.53,573.023 C2565.15,573.023 2568.4,571.593 2571.97,568.018 L2574.01,572.968 L2576.32,572.968 L2576.32,560.868 C2576.32,558.063 2576.32,557.953 2576.65,557.458 C2577.14,556.853 2578.13,556.688 2581.27,556.688 L2582.09,556.688 L2582.09,554.103 L2564.6,554.103 L2564.6,556.688 L2565.65,556.688 C2570.27,556.688 2570.65,556.963 2570.65,560.043 C2570.65,562.408 2570.27,564.553 2569.55,565.873 C2568.18,568.568 2564.66,570.438 2561.08,570.438 C2557.51,570.438 2553.99,568.623 2552.12,565.873 C2550.08,562.793 2549.2,558.943 2549.2,553.058 C2549.2,540.793 2553.27,534.248 2560.92,534.248 C2567.19,534.248 2571.53,538.758 2573.79,547.558 L2576.15,547.558 L2575.38,532.103 "/>
<path class="Harmony" d="M1801.59,1474.5 L1799.5,1474.5 L1797.35,1477.8 C1793.78,1475 1791.36,1474.06 1787.34,1474.06 C1783,1474.06 1779.59,1475.27 1776.12,1478.08 C1770.68,1482.48 1768.15,1488.03 1768.15,1495.46 C1768.15,1501.07 1769.74,1505.74 1772.99,1509.32 C1776.4,1513.17 1781.46,1515.42 1786.74,1515.42 C1791.36,1515.42 1794.6,1513.99 1798.18,1510.42 L1800.21,1515.37 L1802.52,1515.37 L1802.52,1503.27 C1802.52,1500.46 1802.52,1500.35 1802.85,1499.86 C1803.35,1499.25 1804.34,1499.09 1807.47,1499.09 L1808.3,1499.09 L1808.3,1496.5 L1790.81,1496.5 L1790.81,1499.09 L1791.85,1499.09 C1796.47,1499.09 1796.86,1499.36 1796.86,1502.44 C1796.86,1504.81 1796.47,1506.95 1795.76,1508.27 C1794.38,1510.97 1790.86,1512.84 1787.29,1512.84 C1783.71,1512.84 1780.19,1511.02 1778.32,1508.27 C1776.29,1505.19 1775.41,1501.34 1775.41,1495.46 C1775.41,1483.19 1779.48,1476.65 1787.12,1476.65 C1793.39,1476.65 1797.74,1481.16 1799.99,1489.96 L1802.36,1489.96 L1801.59,1474.5 "/>
<path class="Harmony" d="M785.825,1945.7 L783.735,1945.7 L781.59,1949 C778.015,1946.2 775.595,1945.26 771.58,1945.26 C767.235,1945.26 763.825,1946.47 760.36,1949.28 C754.915,1953.68 752.385,1959.23 752.385,1966.66 C752.385,1972.27 753.98,1976.94 757.225,1980.52 C760.635,1984.37 765.695,1986.62 770.975,1986.62 C775.595,1986.62 778.84,1985.19 782.415,1981.62 L784.45,1986.57 L786.76,1986.57 L786.76,1974.47 C786.76,1971.66 786.76,1971.55 787.09,1971.06 C787.585,1970.45 788.575,1970.29 791.71,1970.29 L792.535,1970.29 L792.535,1967.7 L775.045,1967.7 L775.045,1970.29 L776.09,1970.29 C780.71,1970.29 781.095,1970.56 781.095,1973.64 C781.095,1976.01 780.71,1978.15 779.995,1979.47 C778.62,1982.17 775.1,1984.04 771.525,1984.04 C767.95,1984.04 764.43,1982.22 762.56,1979.47 C760.525,1976.39 759.645,1972.54 759.645,1966.66 C759.645,1954.39 763.715,1947.85 771.36,1947.85 C777.63,1947.85 781.975,1952.36 784.23,1961.16 L786.595,1961.16 L785.825,1945.7 "/>
<path class="Harmony" d="M795.659,532.103 L793.569,532.103 L791.424,535.403 C787.849,532.598 785.429,531.663 781.414,531.663 C777.069,531.663 773.659,532.873 770.194,535.678 C764.749,540.078 762.219,545.633 762.219,553.058 C762.219,558.668 763.814,563.343 767.059,566.918 C770.469,570.768 775.529,573.023 780.809,573.023 C785.429,573.023 788.674,571.593 792.249,568.018 L794.284,572.968 L796.594,572.968 L796.594,560.868 C796.594,558.063 796.594,557.953 796.924,557.458 C797.419,556.853 798.409,556.688 801.544,556.688 L802.369,556.688 L802.369,554.103 L784.879,554.103 L784.879,556.688 L785.924,556.688 C790.544,556.688 790.929,556.963 790.929,560.043 C790.929,562.408 790.544,564.553 789.829,565.873 C788.454,568.568 784.934,570.438 781.359,570.438 C777.784,570.438 774.264,568.623 772.394,565.873 C770.359,562.793 769.479,558.943 769.479,553.058 C769.479,540.793 773.549,534.248 781.194,534.248 C787.464,534.248 791.809,538.758 794.064,547.558 L796.429,547.558 L795.659,532.103 "/>
<path class="Harmony" d="M1586.95,1474.5 L1584.86,1474.5 L1582.72,1477.8 C1579.14,1475 1576.72,1474.06 1572.71,1474.06 C1568.36,1474.06 1564.95,1475.27 1561.49,1478.08 C1556.04,1482.48 1553.51,1488.03 1553.51,1495.46 C1553.51,1501.07 1555.11,1505.74 1558.35,1509.32 C1561.76,1513.17 1566.82,1515.42 1572.1,1515.42 C1576.72,1515.42 1579.97,1513.99 1583.54,1510.42 L1585.58,1515.37 L1587.89,1515.37 L1587.89,1503.27 C1587.89,1500.46 1587.89,1500.35 1588.22,1499.86 C1588.71,1499.25 1589.7,1499.09 1592.84,1499.09 L1593.66,1499.09 L1593.66,1496.5 L1576.17,1496.5 L1576.17,1499.09 L1577.22,1499.09 C1581.84,1499.09 1582.22,1499.36 1582.22,1502.44 C1582.22,1504.81 1581.84,1506.95 1581.12,1508.27 C1579.75,1510.97 1576.23,1512.84 1572.65,1512.84 C1569.08,1512.84 1565.56,1511.02 1563.69,1508.27 C1561.65,1505.19 1560.77,1501.34 1560.77,1495.46 C1560.77,1483.19 1564.84,1476.65 1572.49,1476.65 C1578.76,1476.65 1583.1,1481.16 1585.36,1489.96 L1587.72,1489.96 L1586.95,1474.5 "/>
<path class="Harmony" d="M2432.04,1945.7 L2429.95,1945.7 L2427.81,1949 C2424.23,1946.2 2421.81,1945.26 2417.8,1945.26 C2413.45,1945.26 2410.04,1946.47 2406.58,1949.28 C2401.13,1953.68 2398.6,1959.23 2398.6,1966.66 C2398.6,1972.27 2400.2,1976.94 2403.44,1980.52 C2406.85,1984.37 2411.91,1986.62 2417.19,1986.62 C2421.81,1986.62 2425.06,1985.19 2428.63,1981.62 L2430.67,1986.57 L2432.98,1986.57 L2432.98,1974.47 C2432.98,1971.66 2432.98,1971.55 2433.31,1971.06 C2433.8,1970.45 2434.79,1970.29 2437.93,1970.29 L2438.75,1970.29 L2438.75,1967.7 L2421.26,1967.7 L2421.26,1970.29 L2422.31,1970.29 C2426.93,1970.29 2427.31,1970.56 2427.31,1973.64 C2427.31,1976.01 2426.93,1978.15 2426.21,1979.47 C2424.84,1982.17 2421.32,1984.04 2417.74,1984.04 C2414.17,1984.04 2410.65,1982.22 2408.78,1979.47 C2406.74,1976.39 2405.86,1972.54 2405.86,1966.66 C2405.86,1954.39 2409.93,1947.85 2417.58,1947.85 C2423.85,1947.85 2428.19,1952.36 2430.45,1961.16 L2432.81,1961.16 L2432.04,1945.7 "/>
<path class="Harmony" d="M1785.7,532.103 L1783.61,532.103 L1781.47,535.403 C1777.89,532.598 1775.47,531.663 1771.46,531.663 C1767.11,531.663 1763.7,532.873 1760.24,535.678 C1754.79,540.078 1752.26,545.633 1752.26,553.058 C1752.26,558.668 1753.86,563.343 1757.1,566.918 C1760.51,570.768 1765.57,573.023 1770.85,573.023 C1775.47,573.023 1778.72,571.593 1782.29,568.018 L1784.33,572.968 L1786.64,572.968 L1786.64,560.868 C1786.64,558.063 1786.64,557.953 1786.97,557.458 C1787.46,556.853 1788.45,556.688 1791.59,556.688 L1792.41,556.688 L1792.41,554.103 L1774.92,554.103 L1774.92,556.688 L1775.97,556.688 C1780.59,556.688 1780.97,556.963 1780.97,560.043 C1780.97,562.408 1780.59,564.553 1779.87,565.873 C1778.5,568.568 1774.98,570.438 1771.4,570.438 C1767.83,570.438 1764.31,568.623 1762.44,565.873 C1760.4,562.793 1759.52,558.943 1759.52,553.058 C1759.52,540.793 1763.59,534.248 1771.24,534.248 C1777.51,534.248 1781.85,538.758 1784.11,547.558 L1786.47,547.558 L1785.7,532.103 "/>
<path class="Harmony" d="M1355.82,1514.6 L1374.3,1514.6 C1379.19,1514.6 1382.93,1513.83 1385.85,1512.18 C1391.4,1509.04 1394.48,1502.77 1394.48,1494.52 C1394.48,1486.93 1391.73,1480.99 1386.67,1477.69 C1383.65,1475.77 1379.58,1474.89 1373.31,1474.89 L1355.82,1474.89 L1355.82,1477.47 L1356.86,1477.47 C1359.94,1477.53 1360.99,1477.69 1361.43,1478.24 C1361.76,1478.74 1361.76,1478.85 1361.76,1481.65 L1361.76,1507.83 C1361.76,1510.64 1361.76,1510.75 1361.43,1511.24 C1360.99,1511.79 1359.94,1511.96 1356.86,1512.01 L1355.82,1512.01 L1355.82,1514.6 M1371.05,1512.01 C1368.25,1512.01 1367.92,1511.68 1367.92,1508.99 L1367.92,1480.55 C1367.92,1477.86 1368.3,1477.47 1371.05,1477.47 L1373.91,1477.47 C1383.32,1477.47 1387.22,1482.59 1387.22,1494.74 C1387.22,1507.06 1383.7,1512.01 1374.79,1512.01 L1371.05,1512.01 "/>
<path class="Harmony" d="M1228.29,1474.5 L1226.2,1474.5 L1224.06,1477.8 C1220.48,1475 1218.06,1474.06 1214.05,1474.06 C1209.7,1474.06 1206.29,1475.27 1202.83,1478.08 C1197.38,1482.48 1194.85,1488.03 1194.85,1495.46 C1194.85,1501.07 1196.45,1505.74 1199.69,1509.32 C1203.1,1513.17 1208.16,1515.42 1213.44,1515.42 C1218.06,1515.42 1221.31,1513.99 1224.88,1510.42 L1226.92,1515.37 L1229.23,1515.37 L1229.23,1503.27 C1229.23,1500.46 1229.23,1500.35 1229.56,1499.86 C1230.05,1499.25 1231.04,1499.09 1234.18,1499.09 L1235,1499.09 L1235,1496.5 L1217.51,1496.5 L1217.51,1499.09 L1218.56,1499.09 C1223.18,1499.09 1223.56,1499.36 1223.56,1502.44 C1223.56,1504.81 1223.18,1506.95 1222.46,1508.27 C1221.09,1510.97 1217.57,1512.84 1213.99,1512.84 C1210.42,1512.84 1206.9,1511.02 1205.03,1508.27 C1202.99,1505.19 1202.11,1501.34 1202.11,1495.46 C1202.11,1483.19 1206.18,1476.65 1213.83,1476.65 C1220.1,1476.65 1224.44,1481.16 1226.7,1489.96 L1229.06,1489.96 L1228.29,1474.5 "/>
<path class="Harmony" d="M1860.67,1003.3 L1858.58,1003.3 L1856.43,1006.6 C1852.86,1003.8 1850.44,1002.86 1846.42,1002.86 C1842.08,1002.86 1838.67,1004.07 1835.2,1006.88 C1829.76,1011.28 1827.23,1016.83 1827.23,1024.26 C1827.23,1029.87 1828.82,1034.54 1832.07,1038.12 C1835.48,1041.97 1840.54,1044.22 1845.82,1044.22 C1850.44,1044.22 1853.68,1042.79 1857.26,1039.22 L1859.29,1044.17 L1861.6,1044.17 L1861.6,1032.07 C1861.6,1029.26 1861.6,1029.15 1861.93,1028.66 C1862.43,1028.05 1863.42,1027.89 1866.55,1027.89 L1867.38,1027.89 L1867.38,1025.3 L1849.89,1025.3 L1849.89,1027.89 L1850.93,1027.89 C1855.55,1027.89 1855.94,1028.16 1855.94,1031.24 C1855.94,1033.61 1855.55,1035.75 1854.84,1037.07 C1853.46,1039.77 1849.94,1041.64 1846.37,1041.64 C1842.79,1041.64 1839.27,1039.82 1837.4,1037.07 C1835.37,1033.99 1834.49,1030.14 1834.49,1024.26 C1834.49,1011.99 1838.56,1005.45 1846.2,1005.45 C1852.47,1005.45 1856.82,1009.96 1859.07,1018.76 L1861.44,1018.76 L1860.67,1003.3 "/>
<path class="Harmony" d="M1060.66,1945.7 L1058.57,1945.7 L1056.42,1949 C1052.85,1946.2 1050.43,1945.26 1046.41,1945.26 C1042.07,1945.26 1038.66,1946.47 1035.19,1949.28 C1029.75,1953.68 1027.22,1959.23 1027.22,1966.66 C1027.22,1972.27 1028.81,1976.94 1032.06,1980.52 C1035.47,1984.37 1040.53,1986.62 1045.81,1986.62 C1050.43,1986.62 1053.67,1985.19 1057.25,1981.62 L1059.28,1986.57 L1061.59,1986.57 L1061.59,1974.47 C1061.59,1971.66 1061.59,1971.55 1061.92,1971.06 C1062.42,1970.45 1063.41,1970.29 1066.54,1970.29 L1067.37,1970.29 L1067.37,1967.7 L1049.88,1967.7 L1049.88,1970.29 L1050.92,1970.29 C1055.54,1970.29 1055.93,1970.56 1055.93,1973.64 C1055.93,1976.01 1055.54,1978.15 1054.83,1979.47 C1053.45,1982.17 1049.93,1984.04 1046.36,1984.04 C1042.78,1984.04 1039.26,1982.22 1037.39,1979.47 C1035.36,1976.39 1034.48,1972.54 1034.48,1966.66 C1034.48,1954.39 1038.55,1947.85 1046.19,1947.85 C1052.46,1947.85 1056.81,1952.36 1059.06,1961.16 L1061.43,1961.16 L1060.66,1945.7 "/>
<path class="Harmony" d="M440.36,1003.3 L438.27,1003.3 L436.125,1006.6 C432.55,1003.8 430.13,1002.86 426.115,1002.86 C421.77,1002.86 418.36,1004.07 414.895,1006.88 C409.45,1011.28 406.92,1016.83 406.92,1024.26 C406.92,1029.87 408.515,1034.54 411.76,1038.12 C415.17,1041.97 420.23,1044.22 425.51,1044.22 C430.13,1044.22 433.375,1042.79 436.95,1039.22 L438.985,1044.17 L441.295,1044.17 L441.295,1032.07 C441.295,1029.26 441.295,1029.15 441.625,1028.66 C442.12,1028.05 443.11,1027.89 446.245,1027.89 L447.07,1027.89 L447.07,1025.3 L429.58,1025.3 L429.58,1027.89 L430.625,1027.89 C435.245,1027.89 435.63,1028.16 435.63,1031.24 C435.63,1033.61 435.245,1035.75 434.53,1037.07 C433.155,1039.77 429.635,1041.64 426.06,1041.64 C422.485,1041.64 418.965,1039.82 417.095,1037.07 C415.06,1033.99 414.18,1030.14 414.18,1024.26 C414.18,1011.99 418.25,1005.45 425.895,1005.45 C432.165,1005.45 436.51,1009.96 438.765,1018.76 L441.13,1018.76 L440.36,1003.3 "/>
<path class="Harmony" d="M1013.66,1474.5 L1011.57,1474.5 L1009.42,1477.8 C1005.85,1475 1003.43,1474.06 999.411,1474.06 C995.066,1474.06 991.656,1475.27 988.191,1478.08 C982.746,1482.48 980.216,1488.03 980.216,1495.46 C980.216,1501.07 981.811,1505.74 985.056,1509.32 C988.466,1513.17 993.526,1515.42 998.806,1515.42 C1003.43,1515.42 1006.67,1513.99 1010.25,1510.42 L1012.28,1515.37 L1014.59,1515.37 L1014.59,1503.27 C1014.59,1500.46 1014.59,1500.35 1014.92,1499.86 C1015.42,1499.25 1016.41,1499.09 1019.54,1499.09 L1020.37,1499.09 L1020.37,1496.5 L1002.88,1496.5 L1002.88,1499.09 L1003.92,1499.09 C1008.54,1499.09 1008.93,1499.36 1008.93,1502.44 C1008.93,1504.81 1008.54,1506.95 1007.83,1508.27 C1006.45,1510.97 1002.93,1512.84 999.356,1512.84 C995.781,1512.84 992.261,1511.02 990.391,1508.27 C988.356,1505.19 987.476,1501.34 987.476,1495.46 C987.476,1483.19 991.546,1476.65 999.191,1476.65 C1005.46,1476.65 1009.81,1481.16 1012.06,1489.96 L1014.43,1489.96 L1013.66,1474.5 "/>
<path class="Harmony" d="M1622.05,532.103 L1619.96,532.103 L1617.81,535.403 C1614.24,532.598 1611.82,531.663 1607.8,531.663 C1603.46,531.663 1600.05,532.873 1596.58,535.678 C1591.14,540.078 1588.61,545.633 1588.61,553.058 C1588.61,558.668 1590.2,563.343 1593.45,566.918 C1596.86,570.768 1601.92,573.023 1607.2,573.023 C1611.82,573.023 1615.06,571.593 1618.64,568.018 L1620.67,572.968 L1622.98,572.968 L1622.98,560.868 C1622.98,558.063 1622.98,557.953 1623.31,557.458 C1623.81,556.853 1624.8,556.688 1627.93,556.688 L1628.76,556.688 L1628.76,554.103 L1611.27,554.103 L1611.27,556.688 L1612.31,556.688 C1616.93,556.688 1617.32,556.963 1617.32,560.043 C1617.32,562.408 1616.93,564.553 1616.22,565.873 C1614.84,568.568 1611.32,570.438 1607.75,570.438 C1604.17,570.438 1600.65,568.623 1598.78,565.873 C1596.75,562.793 1595.87,558.943 1595.87,553.058 C1595.87,540.793 1599.94,534.248 1607.58,534.248 C1613.85,534.248 1618.2,538.758 1620.45,547.558 L1622.82,547.558 L1622.05,532.103 "/>
<path class="Harmony" d="M596.983,1003.3 L594.893,1003.3 L592.748,1006.6 C589.173,1003.8 586.753,1002.86 582.738,1002.86 C578.393,1002.86 574.983,1004.07 571.518,1006.88 C566.073,1011.28 563.543,1016.83 563.543,1024.26 C563.543,1029.87 565.138,1034.54 568.383,1038.12 C571.793,1041.97 576.853,1044.22 582.133,1044.22 C586.753,1044.22 589.998,1042.79 593.573,1039.22 L595.608,1044.17 L597.918,1044.17 L597.918,1032.07 C597.918,1029.26 597.918,1029.15 598.248,1028.66 C598.743,1028.05 599.733,1027.89 602.868,1027.89 L603.693,1027.89 L603.693,1025.3 L586.203,1025.3 L586.203,1027.89 L587.248,1027.89 C591.868,1027.89 592.253,1028.16 592.253,1031.24 C592.253,1033.61 591.868,1035.75 591.153,1037.07 C589.778,1039.77 586.258,1041.64 582.683,1041.64 C579.108,1041.64 575.588,1039.82 573.718,1037.07 C571.683,1033.99 570.803,1030.14 570.803,1024.26 C570.803,1011.99 574.873,1005.45 582.518,1005.45 C588.788,1005.45 593.133,1009.96 595.388,1018.76 L597.753,1018.76 L596.983,1003.3 "/>
<path class="Harmony" d="M1298.39,1946.09 L1265.33,1946.09 L1265.33,1948.67 L1266.32,1948.67 C1269.46,1948.73 1270.5,1948.89 1270.94,1949.44 C1271.27,1949.94 1271.27,1950.05 1271.27,1952.85 L1271.27,1979.03 C1271.27,1981.84 1271.27,1981.95 1270.94,1982.44 C1270.5,1982.99 1269.46,1983.21 1266.32,1983.21 L1265.33,1983.21 L1265.33,1985.8 L1299.1,1985.8 L1300.2,1971.11 L1297.78,1971.11 C1295.69,1980.9 1293.44,1982.99 1285.02,1983.21 L1281.39,1983.21 C1278.09,1983.1 1277.27,1982.55 1277.43,1980.57 L1277.43,1966.55 L1278.53,1966.55 C1284.2,1966.33 1286.23,1968.36 1286.45,1974.47 L1289.04,1974.47 L1289.04,1956.43 L1286.45,1956.43 C1286.12,1961.82 1283.98,1963.96 1278.75,1963.96 L1277.43,1963.96 L1277.43,1951.42 C1277.38,1949.11 1277.93,1948.73 1280.9,1948.67 L1283.76,1948.67 C1292.78,1948.62 1295.03,1950.6 1296.79,1960.11 L1299.16,1960.11 L1298.39,1946.09 "/>
<path class="Harmony" d="M1316.95,1960.17 L1307.16,1960.77 L1307.16,1963.14 L1309.41,1963.14 C1311.5,1963.19 1311.78,1963.52 1311.78,1965.89 L1311.78,1981.62 C1311.72,1982.44 1311.67,1982.77 1311.45,1983.05 C1311.06,1983.54 1310.02,1983.76 1307.65,1983.82 L1307.43,1983.82 L1307.43,1985.8 L1321.29,1985.8 L1321.29,1983.82 L1321.07,1983.82 C1317.44,1983.71 1316.95,1983.43 1316.95,1981.4 L1316.95,1971.22 C1316.95,1966.33 1319.64,1962.7 1323.22,1962.7 C1326.35,1962.7 1327.95,1964.95 1327.95,1969.41 L1327.95,1981.67 C1327.89,1982.39 1327.84,1982.77 1327.56,1983.05 C1327.23,1983.54 1326.13,1983.76 1323.77,1983.82 L1323.55,1983.82 L1323.55,1985.8 L1337.46,1985.8 L1337.46,1983.82 L1337.24,1983.82 C1333.61,1983.71 1333.12,1983.43 1333.12,1981.45 L1333.12,1971.72 C1333.12,1966.22 1335.59,1962.7 1339.44,1962.7 C1342.58,1962.7 1344.12,1965.06 1344.12,1970.01 L1344.12,1981.62 C1344.06,1982.39 1344.01,1982.77 1343.73,1983.05 C1343.4,1983.54 1342.3,1983.76 1339.94,1983.82 L1339.72,1983.82 L1339.72,1985.8 L1353.63,1985.8 L1353.63,1983.82 L1353.41,1983.82 C1349.78,1983.71 1349.29,1983.43 1349.29,1981.4 L1349.29,1968.91 C1349.29,1965.5 1348.96,1964.35 1347.53,1962.48 C1345.93,1960.44 1343.68,1959.34 1341.04,1959.34 C1337.46,1959.34 1334.82,1961.05 1332.46,1964.84 C1331.52,1961.54 1328.55,1959.34 1324.87,1959.34 C1321.51,1959.34 1319.09,1960.94 1316.95,1964.4 L1316.95,1960.17 "/>
<path class="Harmony" d="M815.974,1474.5 L813.884,1474.5 L811.739,1477.8 C808.164,1475 805.744,1474.06 801.729,1474.06 C797.384,1474.06 793.974,1475.27 790.509,1478.08 C785.064,1482.48 782.534,1488.03 782.534,1495.46 C782.534,1501.07 784.129,1505.74 787.374,1509.32 C790.784,1513.17 795.844,1515.42 801.124,1515.42 C805.744,1515.42 808.989,1513.99 812.564,1510.42 L814.599,1515.37 L816.909,1515.37 L816.909,1503.27 C816.909,1500.46 816.909,1500.35 817.239,1499.86 C817.734,1499.25 818.724,1499.09 821.859,1499.09 L822.684,1499.09 L822.684,1496.5 L805.194,1496.5 L805.194,1499.09 L806.239,1499.09 C810.859,1499.09 811.244,1499.36 811.244,1502.44 C811.244,1504.81 810.859,1506.95 810.144,1508.27 C808.769,1510.97 805.249,1512.84 801.674,1512.84 C798.099,1512.84 794.579,1511.02 792.709,1508.27 C790.674,1505.19 789.794,1501.34 789.794,1495.46 C789.794,1483.19 793.864,1476.65 801.509,1476.65 C807.779,1476.65 812.124,1481.16 814.379,1489.96 L816.744,1489.96 L815.974,1474.5 "/>
<path class="Harmony" d="M654.997,1474.5 L652.907,1474.5 L650.762,1477.8 C647.187,1475 644.767,1474.06 640.752,1474.06 C636.407,1474.06 632.997,1475.27 629.532,1478.08 C624.087,1482.48 621.557,1488.03 621.557,1495.46 C621.557,1501.07 623.152,1505.74 626.397,1509.32 C629.807,1513.17 634.867,1515.42 640.147,1515.42 C644.767,1515.42 648.012,1513.99 651.587,1510.42 L653.622,1515.37 L655.932,1515.37 L655.932,1503.27 C655.932,1500.46 655.932,1500.35 656.262,1499.86 C656.757,1499.25 657.747,1499.09 660.882,1499.09 L661.707,1499.09 L661.707,1496.5 L644.217,1496.5 L644.217,1499.09 L645.262,1499.09 C649.882,1499.09 650.267,1499.36 650.267,1502.44 C650.267,1504.81 649.882,1506.95 649.167,1508.27 C647.792,1510.97 644.272,1512.84 640.697,1512.84 C637.122,1512.84 633.602,1511.02 631.732,1508.27 C629.697,1505.19 628.817,1501.34 628.817,1495.46 C628.817,1483.19 632.887,1476.65 640.532,1476.65 C646.802,1476.65 651.147,1481.16 653.402,1489.96 L655.767,1489.96 L654.997,1474.5 "/>
<path class="Harmony" d="M798.846,1003.3 L796.756,1003.3 L794.611,1006.6 C791.036,1003.8 788.616,1002.86 784.601,1002.86 C780.256,1002.86 776.846,1004.07 773.381,1006.88 C767.936,1011.28 765.406,1016.83 765.406,1024.26 C765.406,1029.87 767.001,1034.54 770.246,1038.12 C773.656,1041.97 778.716,1044.22 783.996,1044.22 C788.616,1044.22 791.861,1042.79 795.436,1039.22 L797.471,1044.17 L799.781,1044.17 L799.781,1032.07 C799.781,1029.26 799.781,1029.15 800.111,1028.66 C800.606,1028.05 801.596,1027.89 804.731,1027.89 L805.556,1027.89 L805.556,1025.3 L788.066,1025.3 L788.066,1027.89 L789.111,1027.89 C793.731,1027.89 794.116,1028.16 794.116,1031.24 C794.116,1033.61 793.731,1035.75 793.016,1037.07 C791.641,1039.77 788.121,1041.64 784.546,1041.64 C780.971,1041.64 777.451,1039.82 775.581,1037.07 C773.546,1033.99 772.666,1030.14 772.666,1024.26 C772.666,1011.99 776.736,1005.45 784.381,1005.45 C790.651,1005.45 794.996,1009.96 797.251,1018.76 L799.616,1018.76 L798.846,1003.3 "/>
<path class="Harmony" d="M440.36,1474.5 L438.27,1474.5 L436.125,1477.8 C432.55,1475 430.13,1474.06 426.115,1474.06 C421.77,1474.06 418.36,1475.27 414.895,1478.08 C409.45,1482.48 406.92,1488.03 406.92,1495.46 C406.92,1501.07 408.515,1505.74 411.76,1509.32 C415.17,1513.17 420.23,1515.42 425.51,1515.42 C430.13,1515.42 433.375,1513.99 436.95,1510.42 L438.985,1515.37 L441.295,1515.37 L441.295,1503.27 C441.295,1500.46 441.295,1500.35 441.625,1499.86 C442.12,1499.25 443.11,1499.09 446.245,1499.09 L447.07,1499.09 L447.07,1496.5 L429.58,1496.5 L429.58,1499.09 L430.625,1499.09 C435.245,1499.09 435.63,1499.36 435.63,1502.44 C435.63,1504.81 435.245,1506.95 434.53,1508.27 C433.155,1510.97 429.635,1512.84 426.06,1512.84 C422.485,1512.84 418.965,1511.02 417.095,1508.27 C415.06,1505.19 414.18,1501.34 414.18,1495.46 C414.18,1483.19 418.25,1476.65 425.895,1476.65 C432.165,1476.65 436.51,1481.16 438.765,1489.96 L441.13,1489.96 L440.36,1474.5 "/>
<path class="Harmony" d="M1503.46,1985.8 L1521.94,1985.8 C1526.84,1985.8 1530.58,1985.03 1533.49,1983.38 C1539.05,1980.24 1542.13,1973.97 1542.13,1965.72 C1542.13,1958.13 1539.38,1952.19 1534.32,1948.89 C1531.29,1946.97 1527.22,1946.09 1520.95,1946.09 L1503.46,1946.09 L1503.46,1948.67 L1504.51,1948.67 C1507.59,1948.73 1508.63,1948.89 1509.07,1949.44 C1509.4,1949.94 1509.4,1950.05 1509.4,1952.85 L1509.4,1979.03 C1509.4,1981.84 1509.4,1981.95 1509.07,1982.44 C1508.63,1982.99 1507.59,1983.16 1504.51,1983.21 L1503.46,1983.21 L1503.46,1985.8 M1518.7,1983.21 C1515.89,1983.21 1515.56,1982.88 1515.56,1980.19 L1515.56,1951.75 C1515.56,1949.06 1515.95,1948.67 1518.7,1948.67 L1521.56,1948.67 C1530.96,1948.67 1534.87,1953.79 1534.87,1965.94 C1534.87,1978.26 1531.35,1983.21 1522.44,1983.21 L1518.7,1983.21 "/>
<path class="Harmony" d="M479.094,532.103 L477.004,532.103 L474.859,535.403 C471.284,532.598 468.864,531.663 464.849,531.663 C460.504,531.663 457.094,532.873 453.629,535.678 C448.184,540.078 445.654,545.633 445.654,553.058 C445.654,558.668 447.249,563.343 450.494,566.918 C453.904,570.768 458.964,573.023 464.244,573.023 C468.864,573.023 472.109,571.593 475.684,568.018 L477.719,572.968 L480.029,572.968 L480.029,560.868 C480.029,558.063 480.029,557.953 480.359,557.458 C480.854,556.853 481.844,556.688 484.979,556.688 L485.804,556.688 L485.804,554.103 L468.314,554.103 L468.314,556.688 L469.359,556.688 C473.979,556.688 474.364,556.963 474.364,560.043 C474.364,562.408 473.979,564.553 473.264,565.873 C471.889,568.568 468.369,570.438 464.794,570.438 C461.219,570.438 457.699,568.623 455.829,565.873 C453.794,562.793 452.914,558.943 452.914,553.058 C452.914,540.793 456.984,534.248 464.629,534.248 C470.899,534.248 475.244,538.758 477.499,547.558 L479.864,547.558 L479.094,532.103 "/>
<path class="Harmony" d="M2676.12,1003.3 L2674.03,1003.3 L2671.89,1006.6 C2668.31,1003.8 2665.89,1002.86 2661.88,1002.86 C2657.53,1002.86 2654.12,1004.07 2650.66,1006.88 C2645.21,1011.28 2642.68,1016.83 2642.68,1024.26 C2642.68,1029.87 2644.28,1034.54 2647.52,1038.12 C2650.93,1041.97 2655.99,1044.22 2661.27,1044.22 C2665.89,1044.22 2669.14,1042.79 2672.71,1039.22 L2674.75,1044.17 L2677.06,1044.17 L2677.06,1032.07 C2677.06,1029.26 2677.06,1029.15 2677.39,1028.66 C2677.88,1028.05 2678.87,1027.89 2682.01,1027.89 L2682.83,1027.89 L2682.83,1025.3 L2665.34,1025.3 L2665.34,1027.89 L2666.39,1027.89 C2671.01,1027.89 2671.39,1028.16 2671.39,1031.24 C2671.39,1033.61 2671.01,1035.75 2670.29,1037.07 C2668.92,1039.77 2665.4,1041.64 2661.82,1041.64 C2658.25,1041.64 2654.73,1039.82 2652.86,1037.07 C2650.82,1033.99 2649.94,1030.14 2649.94,1024.26 C2649.94,1011.99 2654.01,1005.45 2661.66,1005.45 C2667.93,1005.45 2672.27,1009.96 2674.53,1018.76 L2676.89,1018.76 L2676.12,1003.3 "/>
<path class="Harmony" d="M617.401,532.103 L615.311,532.103 L613.166,535.403 C609.591,532.598 607.171,531.663 603.156,531.663 C598.811,531.663 595.401,532.873 591.936,535.678 C586.491,540.078 583.961,545.633 583.961,553.058 C583.961,558.668 585.556,563.343 588.801,566.918 C592.211,570.768 597.271,573.023 602.551,573.023 C607.171,573.023 610.416,571.593 613.991,568.018 L616.026,572.968 L618.336,572.968 L618.336,560.868 C618.336,558.063 618.336,557.953 618.666,557.458 C619.161,556.853 620.151,556.688 623.286,556.688 L624.111,556.688 L624.111,554.103 L606.621,554.103 L606.621,556.688 L607.666,556.688 C612.286,556.688 612.671,556.963 612.671,560.043 C612.671,562.408 612.286,564.553 611.571,565.873 C610.196,568.568 606.676,570.438 603.101,570.438 C599.526,570.438 596.006,568.623 594.136,565.873 C592.101,562.793 591.221,558.943 591.221,553.058 C591.221,540.793 595.291,534.248 602.936,534.248 C609.206,534.248 613.551,538.758 615.806,547.558 L618.171,547.558 L617.401,532.103 "/>
<path class="Harmony" d="M1367.13,532.103 L1365.04,532.103 L1362.9,535.403 C1359.32,532.598 1356.9,531.663 1352.89,531.663 C1348.54,531.663 1345.13,532.873 1341.67,535.678 C1336.22,540.078 1333.69,545.633 1333.69,553.058 C1333.69,558.668 1335.29,563.343 1338.53,566.918 C1341.94,570.768 1347,573.023 1352.28,573.023 C1356.9,573.023 1360.15,571.593 1363.72,568.018 L1365.76,572.968 L1368.07,572.968 L1368.07,560.868 C1368.07,558.063 1368.07,557.953 1368.4,557.458 C1368.89,556.853 1369.88,556.688 1373.02,556.688 L1373.84,556.688 L1373.84,554.103 L1356.35,554.103 L1356.35,556.688 L1357.4,556.688 C1362.02,556.688 1362.4,556.963 1362.4,560.043 C1362.4,562.408 1362.02,564.553 1361.3,565.873 C1359.93,568.568 1356.41,570.438 1352.83,570.438 C1349.26,570.438 1345.74,568.623 1343.87,565.873 C1341.83,562.793 1340.95,558.943 1340.95,553.058 C1340.95,540.793 1345.02,534.248 1352.67,534.248 C1358.94,534.248 1363.28,538.758 1365.54,547.558 L1367.9,547.558 L1367.13,532.103 "/>
<path class="Harmony" d="M2558.66,1003.3 L2556.57,1003.3 L2554.42,1006.6 C2550.85,1003.8 2548.43,1002.86 2544.41,1002.86 C2540.07,1002.86 2536.66,1004.07 2533.19,1006.88 C2527.75,1011.28 2525.22,1016.83 2525.22,1024.26 C2525.22,1029.87 2526.81,1034.54 2530.06,1038.12 C2533.47,1041.97 2538.53,1044.22 2543.81,1044.22 C2548.43,1044.22 2551.67,1042.79 2555.25,1039.22 L2557.28,1044.17 L2559.59,1044.17 L2559.59,1032.07 C2559.59,1029.26 2559.59,1029.15 2559.92,1028.66 C2560.42,1028.05 2561.41,1027.89 2564.54,1027.89 L2565.37,1027.89 L2565.37,1025.3 L2547.88,1025.3 L2547.88,1027.89 L2548.92,1027.89 C2553.54,1027.89 2553.93,1028.16 2553.93,1031.24 C2553.93,1033.61 2553.54,1035.75 2552.83,1037.07 C2551.45,1039.77 2547.93,1041.64 2544.36,1041.64 C2540.78,1041.64 2537.26,1039.82 2535.39,1037.07 C2533.36,1033.99 2532.48,1030.14 2532.48,1024.26 C2532.48,1011.99 2536.55,1005.45 2544.19,1005.45 C2550.46,1005.45 2554.81,1009.96 2557.06,1018.76 L2559.43,1018.76 L2558.66,1003.3 "/>
<path class="Harmony" d="M2441.19,1003.3 L2439.1,1003.3 L2436.95,1006.6 C2433.38,1003.8 2430.96,1002.86 2426.94,1002.86 C2422.6,1002.86 2419.19,1004.07 2415.72,1006.88 C2410.28,1011.28 2407.75,1016.83 2407.75,1024.26 C2407.75,1029.87 2409.34,1034.54 2412.59,1038.12 C2416,1041.97 2421.06,1044.22 2426.34,1044.22 C2430.96,1044.22 2434.2,1042.79 2437.78,1039.22 L2439.81,1044.17 L2442.12,1044.17 L2442.12,1032.07 C2442.12,1029.26 2442.12,1029.15 2442.45,1028.66 C2442.95,1028.05 2443.94,1027.89 2447.07,1027.89 L2447.9,1027.89 L2447.9,1025.3 L2430.41,1025.3 L2430.41,1027.89 L2431.45,1027.89 C2436.07,1027.89 2436.46,1028.16 2436.46,1031.24 C2436.46,1033.61 2436.07,1035.75 2435.36,1037.07 C2433.98,1039.77 2430.46,1041.64 2426.89,1041.64 C2423.31,1041.64 2419.79,1039.82 2417.92,1037.07 C2415.89,1033.99 2415.01,1030.14 2415.01,1024.26 C2415.01,1011.99 2419.08,1005.45 2426.72,1005.45 C2432.99,1005.45 2437.34,1009.96 2439.59,1018.76 L2441.96,1018.76 L2441.19,1003.3 "/>
<path class="Harmony" d="M1050.57,532.103 L1048.48,532.103 L1046.33,535.403 C1042.76,532.598 1040.34,531.663 1036.32,531.663 C1031.98,531.663 1028.57,532.873 1025.1,535.678 C1019.66,540.078 1017.13,545.633 1017.13,553.058 C1017.13,558.668 1018.72,563.343 1021.97,566.918 C1025.38,570.768 1030.44,573.023 1035.72,573.023 C1040.34,573.023 1043.58,571.593 1047.16,568.018 L1049.19,572.968 L1051.5,572.968 L1051.5,560.868 C1051.5,558.063 1051.5,557.953 1051.83,557.458 C1052.33,556.853 1053.32,556.688 1056.45,556.688 L1057.28,556.688 L1057.28,554.103 L1039.79,554.103 L1039.79,556.688 L1040.83,556.688 C1045.45,556.688 1045.84,556.963 1045.84,560.043 C1045.84,562.408 1045.45,564.553 1044.74,565.873 C1043.36,568.568 1039.84,570.438 1036.27,570.438 C1032.69,570.438 1029.17,568.623 1027.3,565.873 C1025.27,562.793 1024.39,558.943 1024.39,553.058 C1024.39,540.793 1028.46,534.248 1036.1,534.248 C1042.37,534.248 1046.72,538.758 1048.97,547.558 L1051.34,547.558 L1050.57,532.103 "/>
<path class="Harmony" d="M1811.74,1945.7 L1809.65,1945.7 L1807.51,1949 C1803.93,1946.2 1801.51,1945.26 1797.5,1945.26 C1793.15,1945.26 1789.74,1946.47 1786.28,1949.28 C1780.83,1953.68 1778.3,1959.23 1778.3,1966.66 C1778.3,1972.27 1779.9,1976.94 1783.14,1980.52 C1786.55,1984.37 1791.61,1986.62 1796.89,1986.62 C1801.51,1986.62 1804.76,1985.19 1808.33,1981.62 L1810.37,1986.57 L1812.68,1986.57 L1812.68,1974.47 C1812.68,1971.66 1812.68,1971.55 1813.01,1971.06 C1813.5,1970.45 1814.49,1970.29 1817.63,1970.29 L1818.45,1970.29 L1818.45,1967.7 L1800.96,1967.7 L1800.96,1970.29 L1802.01,1970.29 C1806.63,1970.29 1807.01,1970.56 1807.01,1973.64 C1807.01,1976.01 1806.63,1978.15 1805.91,1979.47 C1804.54,1982.17 1801.02,1984.04 1797.44,1984.04 C1793.87,1984.04 1790.35,1982.22 1788.48,1979.47 C1786.44,1976.39 1785.56,1972.54 1785.56,1966.66 C1785.56,1954.39 1789.63,1947.85 1797.28,1947.85 C1803.55,1947.85 1807.89,1952.36 1810.15,1961.16 L1812.51,1961.16 L1811.74,1945.7 "/>
<path class="Harmony" d="M1929.23,1985.8 L1947.71,1985.8 C1952.6,1985.8 1956.34,1985.03 1959.26,1983.38 C1964.81,1980.24 1967.89,1973.97 1967.89,1965.72 C1967.89,1958.13 1965.14,1952.19 1960.08,1948.89 C1957.06,1946.97 1952.99,1946.09 1946.72,1946.09 L1929.23,1946.09 L1929.23,1948.67 L1930.27,1948.67 C1933.35,1948.73 1934.4,1948.89 1934.84,1949.44 C1935.17,1949.94 1935.17,1950.05 1935.17,1952.85 L1935.17,1979.03 C1935.17,1981.84 1935.17,1981.95 1934.84,1982.44 C1934.4,1982.99 1933.35,1983.16 1930.27,1983.21 L1929.23,1983.21 L1929.23,1985.8 M1944.46,1983.21 C1941.66,1983.21 1941.33,1982.88 1941.33,1980.19 L1941.33,1951.75 C1941.33,1949.06 1941.71,1948.67 1944.46,1948.67 L1947.32,1948.67 C1956.73,1948.67 1960.63,1953.79 1960.63,1965.94 C1960.63,1978.26 1957.11,1983.21 1948.2,1983.21 L1944.46,1983.21 "/>
<path class="Harmony" d="M2017.29,1003.3 L2015.2,1003.3 L2013.06,1006.6 C2009.48,1003.8 2007.06,1002.86 2003.05,1002.86 C1998.7,1002.86 1995.29,1004.07 1991.83,1006.88 C1986.38,1011.28 1983.85,1016.83 1983.85,1024.26 C1983.85,1029.87 1985.45,1034.54 1988.69,1038.12 C1992.1,1041.97 1997.16,1044.22 2002.44,1044.22 C2007.06,1044.22 2010.31,1042.79 2013.88,1039.22 L2015.92,1044.17 L2018.23,1044.17 L2018.23,1032.07 C2018.23,1029.26 2018.23,1029.15 2018.56,1028.66 C2019.05,1028.05 2020.04,1027.89 2023.18,1027.89 L2024,1027.89 L2024,1025.3 L2006.51,1025.3 L2006.51,1027.89 L2007.56,1027.89 C2012.18,1027.89 2012.56,1028.16 2012.56,1031.24 C2012.56,1033.61 2012.18,1035.75 2011.46,1037.07 C2010.09,1039.77 2006.57,1041.64 2002.99,1041.64 C1999.42,1041.64 1995.9,1039.82 1994.03,1037.07 C1991.99,1033.99 1991.11,1030.14 1991.11,1024.26 C1991.11,1011.99 1995.18,1005.45 2002.83,1005.45 C2009.1,1005.45 2013.44,1009.96 2015.7,1018.76 L2018.06,1018.76 L2017.29,1003.3 "/>
<path class="Harmony" d="M1082.65,1003.3 L1080.56,1003.3 L1078.42,1006.6 C1074.84,1003.8 1072.42,1002.86 1068.41,1002.86 C1064.06,1002.86 1060.65,1004.07 1057.19,1006.88 C1051.74,1011.28 1049.21,1016.83 1049.21,1024.26 C1049.21,1029.87 1050.81,1034.54 1054.05,1038.12 C1057.46,1041.97 1062.52,1044.22 1067.8,1044.22 C1072.42,1044.22 1075.67,1042.79 1079.24,1039.22 L1081.28,1044.17 L1083.59,1044.17 L1083.59,1032.07 C1083.59,1029.26 1083.59,1029.15 1083.92,1028.66 C1084.41,1028.05 1085.4,1027.89 1088.54,1027.89 L1089.36,1027.89 L1089.36,1025.3 L1071.87,1025.3 L1071.87,1027.89 L1072.92,1027.89 C1077.54,1027.89 1077.92,1028.16 1077.92,1031.24 C1077.92,1033.61 1077.54,1035.75 1076.82,1037.07 C1075.45,1039.77 1071.93,1041.64 1068.35,1041.64 C1064.78,1041.64 1061.26,1039.82 1059.39,1037.07 C1057.35,1033.99 1056.47,1030.14 1056.47,1024.26 C1056.47,1011.99 1060.54,1005.45 1068.19,1005.45 C1074.46,1005.45 1078.8,1009.96 1081.06,1018.76 L1083.42,1018.76 L1082.65,1003.3 "/>
<path class="Harmony" d="M1188.88,532.103 L1186.79,532.103 L1184.64,535.403 C1181.07,532.598 1178.65,531.663 1174.63,531.663 C1170.29,531.663 1166.88,532.873 1163.41,535.678 C1157.97,540.078 1155.44,545.633 1155.44,553.058 C1155.44,558.668 1157.03,563.343 1160.28,566.918 C1163.69,570.768 1168.75,573.023 1174.03,573.023 C1178.65,573.023 1181.89,571.593 1185.47,568.018 L1187.5,572.968 L1189.81,572.968 L1189.81,560.868 C1189.81,558.063 1189.81,557.953 1190.14,557.458 C1190.64,556.853 1191.63,556.688 1194.76,556.688 L1195.59,556.688 L1195.59,554.103 L1178.1,554.103 L1178.1,556.688 L1179.14,556.688 C1183.76,556.688 1184.15,556.963 1184.15,560.043 C1184.15,562.408 1183.76,564.553 1183.05,565.873 C1181.67,568.568 1178.15,570.438 1174.58,570.438 C1171,570.438 1167.48,568.623 1165.61,565.873 C1163.58,562.793 1162.7,558.943 1162.7,553.058 C1162.7,540.793 1166.77,534.248 1174.41,534.248 C1180.68,534.248 1185.03,538.758 1187.28,547.558 L1189.65,547.558 L1188.88,532.103 "/>
<path class="NoteDot" transform="matrix(0.992,0,0,0.992,2269.99,745.798)" d="M0,0 C0,2.8 2.2,5 5,5 C7.8,5 10,2.8 10,0 C10,-2.8 7.8,-5 5,-5 C2.2,-5 0,-2.8 0,0"/>
<path class="NoteDot" transform="matrix(0.992,0,0,0.992,2452.36,1167.4)" d="M0,0 C0,2.8 2.2,5 5,5 C7.8,5 10,2.8 10,0 C10,-2.8 7.8,-5 5,-5 C2.2,-5 0,-2.8 0,0"/>
<path class="NoteDot" transform="matrix(0.992,0,0,0.992,1822.92,2109.8)" d="M0,0 C0,2.8 2.2,5 5,5 C7.8,5 10,2.8 10,0 C10,-2.8 7.8,-5 5,-5 C2.2,-5 0,-2.8 0,0"/>
<path class="NoteDot" transform="matrix(0.992,0,0,0.992,1061.74,696.198)" d="M0,0 C0,2.8 2.2,5 5,5 C7.8,5 10,2.8 10,0 C10,-2.8 7.8,-5 5,-5 C2.2,-5 0,-2.8 0,0"/>
<path class="NoteDot" transform="matrix(0.992,0,0,0.992,451.531,1167.4)" d="M0,0 C0,2.8 2.2,5 5,5 C7.8,5 10,2.8 10,0 C10,-2.8 7.8,-5 5,-5 C2.2,-5 0,-2.8 0,0"/>
<path class="NoteDot" transform="matrix(0.992,0,0,0.992,1871.84,1167.4)" d="M0,0 C0,2.8 2.2,5 5,5 C7.8,5 10,2.8 10,0 C10,-2.8 7.8,-5 5,-5 C2.2,-5 0,-2.8 0,0"/>
<path class="NoteDot" transform="matrix(0.992,0,0,0.992,2443.21,2109.8)" d="M0,0 C0,2.8 2.2,5 5,5 C7.8,5 10,2.8 10,0 C10,-2.8 7.8,-5 5,-5 C2.2,-5 0,-2.8 0,0"/>
<path class="NoteDot" transform="matrix(0.992,0,0,0.992,490.265,745.798)" d="M0,0 C0,2.8 2.2,5 5,5 C7.8,5 10,2.8 10,0 C10,-2.8 7.8,-5 5,-5 C2.2,-5 0,-2.8 0,0"/>
<path class="NoteDot" transform="matrix(0.992,0,0,0.992,451.531,2109.8)" d="M0,0 C0,2.8 2.2,5 5,5 C7.8,5 10,2.8 10,0 C10,-2.8 7.8,-5 5,-5 C2.2,-5 0,-2.8 0,0"/>
<path class="NoteDot" transform="matrix(0.992,0,0,0.992,2278.74,1688.2)" d="M0,0 C0,2.8 2.2,5 5,5 C7.8,5 10,2.8 10,0 C10,-2.8 7.8,-5 5,-5 C2.2,-5 0,-2.8 0,0"/>
</svg>
