<?xml version="1.0" encoding="UTF-8" standalone="no"?>
<svg width="2977.2px" height="4208.4px" viewBox="0 0 2977.2 4208.4"
 xmlns="http://www.w3.org/2000/svg" xmlns:xlink="http://www.w3.org/1999/xlink" version="1.2" baseProfile="tiny">
<title>オン・トップ・オブ・オールド・スモーキー</title>
<desc>Generated by MuseScore Studio 4.4.3</desc>
<path class="" fill="#ffffff" fill-rule="evenodd" d="M0,0 L2977.2,0 L2977.2,4208.4 L0,4208.4 L0,0 "/>
<polyline class="StaffLines" fill="none" stroke="#000000" stroke-width="2.73" stroke-linejoin="bevel" points="212.598,634.198 2764.6,634.198"/>
<polyline class="StaffLines" fill="none" stroke="#000000" stroke-width="2.73" stroke-linejoin="bevel" points="212.598,658.998 2764.6,658.998"/>
<polyline class="StaffLines" fill="none" stroke="#000000" stroke-width="2.73" stroke-linejoin="bevel" points="212.598,683.798 2764.6,683.798"/>
<polyline class="StaffLines" fill="none" stroke="#000000" stroke-width="2.73" stroke-linejoin="bevel" points="212.598,708.598 2764.6,708.598"/>
<polyline class="StaffLines" fill="none" stroke="#000000" stroke-width="2.73" stroke-linejoin="bevel" points="212.598,733.398 2764.6,733.398"/>
<polyline class="StaffLines" fill="none" stroke="#000000" stroke-width="2.73" stroke-linejoin="bevel" points="212.598,1316.2 2764.6,1316.2"/>
<polyline class="StaffLines" fill="none" stroke="#000000" stroke-width="2.73" stroke-linejoin="bevel" points="212.598,1341 2764.6,1341"/>
<polyline class="StaffLines" fill="none" stroke="#000000" stroke-width="2.73" stroke-linejoin="bevel" points="212.598,1365.8 2764.6,1365.8"/>
<polyline class="StaffLines" fill="none" stroke="#000000" stroke-width="2.73" stroke-linejoin="bevel" points="212.598,1390.6 2764.6,1390.6"/>
<polyline class="StaffLines" fill="none" stroke="#000000" stroke-width="2.73" stroke-linejoin="bevel" points="212.598,1415.4 2764.6,1415.4"/>
<path class="Text" d="M454.876,260.56 L454.876,261.22 L455.316,301.7 C455.316,302.36 455.316,302.91 455.316,304.12 C455.316,308.41 455.206,309.62 454.876,312.81 L463.786,312.81 C463.456,309.84 463.236,306.32 463.236,301.59 L462.466,248.02 L477.206,248.02 C477.756,248.02 478.416,248.02 478.856,248.02 C483.366,248.02 485.676,248.13 487.986,248.35 L487.986,240.32 C484.466,240.87 483.146,240.98 476.986,240.98 L462.466,240.98 L462.246,229.98 L462.246,227.34 C462.246,225.47 462.356,223.71 462.686,221.29 L453.886,221.29 C454.326,224.48 454.326,224.48 454.436,230.2 L454.546,240.98 L414.506,241.2 C408.016,241.2 406.036,241.09 402.076,240.43 L402.076,248.68 C405.816,248.24 407.356,248.24 414.286,248.24 L450.366,248.02 C446.736,254.29 440.686,261.88 434.526,268.04 C422.976,279.59 410.546,288.39 397.236,294.33 C400.096,296.64 400.976,297.74 402.736,300.93 C411.646,295.87 415.936,293.23 420.886,289.6 C431.556,281.9 441.236,272.88 446.956,265.29 C452.126,258.47 453.116,257.04 455.206,252.97 C454.986,257.7 454.876,259.35 454.876,260.12 L454.876,260.56 M516.696,236.8 C526.266,242.63 534.956,249.78 542.876,258.36 L548.596,251.54 C540.676,243.73 533.856,238.34 522.086,230.86 L516.696,236.8 M517.466,308.3 C520.216,307.42 521.096,307.2 524.066,306.54 C542.436,302.36 553.766,297.85 565.096,290.15 C579.616,280.14 589.846,267.27 598.646,248.13 C595.566,246.04 594.466,245.05 591.936,241.64 C583.026,264.96 568.286,281.13 547.056,290.59 C536.826,295.32 523.626,298.73 515.046,299.06 L517.466,308.3 M664.536,257.81 C659.586,257.81 655.516,261.88 655.516,266.83 C655.516,271.78 659.586,275.85 664.536,275.85 C669.486,275.85 673.556,271.78 673.556,266.83 C673.556,261.88 669.486,257.81 664.536,257.81 M761.556,312.04 C761.116,308.96 761.006,306.54 761.006,300.38 L761.006,267.27 C761.006,264.52 760.896,262.98 760.566,260.78 L760.786,260.67 C761.776,261.44 762.546,261.88 764.196,262.54 C779.706,268.92 794.886,277.06 805.226,284.32 L809.956,276.18 C790.706,265.07 777.946,259.02 761.006,252.97 L761.006,232.4 C761.006,226.13 761.116,223.82 761.556,220.96 L752.096,220.96 C752.536,223.71 752.756,226.35 752.756,232.18 L752.756,300.49 C752.756,306.43 752.536,309.07 752.096,312.04 L761.556,312.04 M850.106,250.55 C854.726,258.14 857.806,265.51 860.446,275.19 L867.926,272.66 C863.856,261 861.436,255.83 857.036,248.24 L850.106,250.55 M872.766,245.93 C877.496,254.18 880.906,262.21 882.886,270.02 L890.146,267.49 C887.286,258.69 885.306,254.29 879.476,243.84 L872.766,245.93 M910.936,245.82 C910.936,246.15 910.936,246.15 910.936,246.48 L910.936,246.92 C910.936,248.24 910.496,250.77 909.726,254.4 C907.746,262.87 904.556,271.12 900.376,278.05 C892.786,290.7 882.446,299.17 865.506,306.76 C868.036,309.07 868.916,310.17 870.566,312.92 C887.616,304.67 899.166,294.55 906.976,281.13 C910.936,274.31 914.896,264.19 916.656,256.49 C918.416,249.34 918.416,249.34 919.076,247.58 L910.936,245.82 M1014.66,231.74 L960.537,231.74 C954.597,231.74 952.067,231.63 948.107,231.08 L948.107,239.88 C951.407,239.44 954.047,239.22 960.427,239.22 L1016.42,239.22 C1012.57,255.28 1006.19,268.15 997.167,278.38 C987.267,289.6 971.647,299.28 956.907,303.35 C959.547,305.99 960.757,307.53 962.297,310.94 C978.467,304.89 990.897,296.86 1002.34,284.87 C1012.35,274.42 1019.39,260.67 1024.78,241.09 C1024.89,240.76 1024.89,240.76 1025,240.43 C1026.54,240.87 1027.64,240.98 1028.85,240.98 C1035.78,240.98 1041.39,235.37 1041.39,228.44 C1041.39,221.62 1035.78,216.01 1028.96,216.01 C1022.03,216.01 1016.42,221.62 1016.42,228.55 C1016.42,229.54 1016.53,230.53 1016.86,231.74 L1014.66,231.74 M1028.96,220.63 C1033.25,220.63 1036.77,224.15 1036.77,228.44 C1036.77,232.84 1033.25,236.36 1028.96,236.36 C1024.56,236.36 1021.04,232.84 1021.04,228.44 C1021.04,224.15 1024.56,220.63 1028.96,220.63 M1097.93,257.81 C1092.98,257.81 1088.91,261.88 1088.91,266.83 C1088.91,271.78 1092.98,275.85 1097.93,275.85 C1102.88,275.85 1106.95,271.78 1106.95,266.83 C1106.95,261.88 1102.88,257.81 1097.93,257.81 M1218.27,260.56 L1218.27,261.22 L1218.71,301.7 C1218.71,302.36 1218.71,302.91 1218.71,304.12 C1218.71,308.41 1218.6,309.62 1218.27,312.81 L1227.18,312.81 C1226.85,309.84 1226.63,306.32 1226.63,301.59 L1225.86,248.02 L1240.6,248.02 C1241.15,248.02 1241.81,248.02 1242.25,248.02 C1246.76,248.02 1249.07,248.13 1251.38,248.35 L1251.38,240.32 C1247.86,240.87 1246.54,240.98 1240.38,240.98 L1225.86,240.98 L1225.64,229.98 L1225.64,227.34 C1225.64,225.47 1225.75,223.71 1226.08,221.29 L1217.28,221.29 C1217.72,224.48 1217.72,224.48 1217.83,230.2 L1217.94,240.98 L1177.9,241.2 C1171.41,241.2 1169.43,241.09 1165.47,240.43 L1165.47,248.68 C1169.21,248.24 1170.75,248.24 1177.68,248.24 L1213.76,248.02 C1210.13,254.29 1204.08,261.88 1197.92,268.04 C1186.37,279.59 1173.94,288.39 1160.63,294.33 C1163.49,296.64 1164.37,297.74 1166.13,300.93 C1175.04,295.87 1179.33,293.23 1184.28,289.6 C1194.95,281.9 1204.63,272.88 1210.35,265.29 C1215.52,258.47 1216.51,257.04 1218.6,252.97 C1218.38,257.7 1218.27,259.35 1218.27,260.12 L1218.27,260.56 M1352.69,236.47 L1356.76,234.05 C1354.56,229.1 1350.49,223.16 1344.88,216.45 L1339.38,219.31 C1343.34,223.82 1345.21,226.46 1349.72,234.27 C1346.97,234.38 1345.54,234.38 1343.23,234.38 L1290.1,234.38 C1284.16,234.38 1281.63,234.27 1277.67,233.72 L1277.67,242.52 C1280.97,242.08 1283.61,241.86 1289.99,241.86 L1345.98,241.86 C1342.13,257.92 1335.75,270.79 1326.73,281.02 C1316.83,292.24 1301.21,301.92 1286.47,305.99 C1289.11,308.63 1290.32,310.17 1291.86,313.58 C1305.72,308.41 1316.06,302.25 1326.4,292.9 C1339.27,281.35 1347.41,267.6 1353.35,247.25 C1354.78,241.86 1355,241.42 1355.66,240.43 L1352.69,236.47 M1353.68,215.57 C1358.08,220.74 1362.7,227.67 1365.01,232.84 L1370.62,229.54 C1366.77,222.61 1364.02,218.54 1359.07,212.6 L1353.68,215.57 M1427.93,257.81 C1422.98,257.81 1418.91,261.88 1418.91,266.83 C1418.91,271.78 1422.98,275.85 1427.93,275.85 C1432.88,275.85 1436.95,271.78 1436.95,266.83 C1436.95,261.88 1432.88,257.81 1427.93,257.81 M1548.27,260.56 L1548.27,261.22 L1548.71,301.7 C1548.71,302.36 1548.71,302.91 1548.71,304.12 C1548.71,308.41 1548.6,309.62 1548.27,312.81 L1557.18,312.81 C1556.85,309.84 1556.63,306.32 1556.63,301.59 L1555.86,248.02 L1570.6,248.02 C1571.15,248.02 1571.81,248.02 1572.25,248.02 C1576.76,248.02 1579.07,248.13 1581.38,248.35 L1581.38,240.32 C1577.86,240.87 1576.54,240.98 1570.38,240.98 L1555.86,240.98 L1555.64,229.98 L1555.64,227.34 C1555.64,225.47 1555.75,223.71 1556.08,221.29 L1547.28,221.29 C1547.72,224.48 1547.72,224.48 1547.83,230.2 L1547.94,240.98 L1507.9,241.2 C1501.41,241.2 1499.43,241.09 1495.47,240.43 L1495.47,248.68 C1499.21,248.24 1500.75,248.24 1507.68,248.24 L1543.76,248.02 C1540.13,254.29 1534.08,261.88 1527.92,268.04 C1516.37,279.59 1503.94,288.39 1490.63,294.33 C1493.49,296.64 1494.37,297.74 1496.13,300.93 C1505.04,295.87 1509.33,293.23 1514.28,289.6 C1524.95,281.9 1534.63,272.88 1540.35,265.29 C1545.52,258.47 1546.51,257.04 1548.6,252.97 C1548.38,257.7 1548.27,259.35 1548.27,260.12 L1548.27,260.56 M1602.5,270.9 C1605.8,270.57 1608.11,270.46 1616.14,270.46 L1679.94,270.46 C1687.31,270.46 1689.84,270.57 1693.36,270.9 L1693.36,261.99 C1689.95,262.43 1688.19,262.54 1680.05,262.54 L1616.14,262.54 C1608.66,262.54 1605.69,262.43 1602.5,261.88 L1602.5,270.9 M1728.11,224.81 C1728.44,227.34 1728.55,228.66 1728.55,232.62 C1728.55,255.83 1727.01,270.24 1723.6,279.81 C1719.97,290.04 1714.03,297.96 1705.01,305.11 C1708.31,307.2 1709.41,308.19 1711.61,311.05 C1721.62,301.48 1726.9,294.11 1730.64,283.88 C1734.82,272.77 1735.7,264.63 1736.58,234.82 C1736.8,228.11 1736.8,228.11 1737.24,225.36 L1728.11,224.81 M1755.5,224.04 C1755.94,226.68 1755.94,226.68 1755.94,233.83 L1755.28,298.18 C1755.28,302.91 1755.17,303.79 1754.51,305.66 L1758.91,310.72 C1759.9,310.17 1760.12,310.06 1761.44,309.51 C1762.98,308.96 1762.98,308.96 1764.96,308.19 C1771.45,305.66 1775.85,303.46 1780.69,300.16 C1790.15,293.67 1797.41,284.54 1802.8,271.89 C1799.83,269.47 1798.95,268.48 1796.64,265.51 C1794,273.98 1789.71,281.24 1783.66,287.51 C1777.94,293.34 1772.33,296.86 1763.2,300.27 L1763.86,233.83 C1763.86,228.77 1763.97,226.79 1764.52,224.15 L1755.5,224.04 M1850.54,312.04 C1850.1,309.4 1849.99,306.98 1849.99,300.38 L1849.99,267.27 C1849.99,264.52 1849.88,262.76 1849.55,260.78 L1849.77,260.67 C1850.76,261.44 1851.64,261.88 1853.18,262.54 C1868.69,269.03 1885.96,278.16 1894.21,284.32 L1898.94,276.18 C1880.9,265.73 1865.72,258.58 1849.99,252.97 L1849.99,232.4 C1849.99,225.58 1850.1,223.49 1850.54,220.96 L1841.08,220.96 C1841.52,223.38 1841.63,225.25 1841.74,232.18 L1841.74,300.49 C1841.63,307.2 1841.52,309.51 1841.08,312.04 L1850.54,312.04 M1877.82,228.22 C1881.12,231.63 1886.4,239.88 1889.15,245.71 L1894.65,242.41 C1891.35,235.92 1888.27,231.3 1883.32,225.36 L1877.82,228.22 M1890.36,222.28 C1894.65,227.34 1899.27,234.38 1901.58,239.66 L1907.08,236.47 C1903.45,229.54 1900.7,225.47 1895.75,219.31 L1890.36,222.28 M1973.52,257.81 C1968.57,257.81 1964.5,261.88 1964.5,266.83 C1964.5,271.78 1968.57,275.85 1973.52,275.85 C1978.47,275.85 1982.54,271.78 1982.54,266.83 C1982.54,261.88 1978.47,257.81 1973.52,257.81 M2127.63,302.69 C2115.09,289.38 2105.41,280.69 2091,269.69 C2097.82,261.22 2102.99,252.53 2109.15,238.89 C2110.36,236.14 2111.13,234.82 2112.23,233.5 L2107.61,228.77 C2105.74,229.43 2104.42,229.54 2100.57,229.65 L2061.3,230.09 C2059.76,230.09 2058.77,230.09 2058.44,230.09 C2054.7,230.09 2052.72,229.98 2049.75,229.54 L2049.97,238.45 C2053.16,237.9 2056.35,237.68 2061.3,237.57 L2098.04,237.02 C2099.36,237.02 2099.69,237.02 2100.68,236.91 C2100.57,237.24 2100.57,237.35 2100.35,237.68 C2100.13,238.23 2100.02,238.34 2099.8,239 C2091.77,258.25 2078.13,275.63 2060.53,288.61 C2052.06,294.88 2046.67,297.85 2038.2,301.26 C2040.95,304.01 2041.83,305.22 2043.59,308.52 C2051.73,304.45 2057.56,300.82 2065.15,295.32 C2073.07,289.49 2078.46,284.43 2086.16,275.63 C2100.24,286.52 2112.67,298.51 2121.36,309.62 L2127.63,302.69 M2177.23,266.28 L2177.23,290.48 C2177.23,304.23 2182.07,307.64 2201.54,307.64 C2206.6,307.64 2214.52,307.31 2218.59,306.98 C2225.52,306.32 2225.74,306.32 2226.84,306.32 C2227.17,306.32 2227.61,306.32 2228.16,306.43 L2228.16,297.85 C2224.53,298.84 2222.88,299.17 2218.59,299.5 C2212.43,300.05 2206.38,300.38 2202.2,300.38 C2194.83,300.38 2189.99,299.61 2187.9,298.18 C2185.59,296.75 2185.15,294.88 2185.15,287.95 L2185.15,266.28 L2218.7,266.28 C2224.53,266.28 2227.61,266.39 2231.35,266.83 L2231.35,258.58 C2227.5,259.13 2225.08,259.24 2218.59,259.24 L2185.15,259.24 L2185.15,236.14 L2211.77,236.14 C2218.26,236.14 2221.12,236.25 2224.42,236.69 L2224.42,228.33 C2220.79,228.99 2218.59,229.1 2211.66,229.1 L2161.06,229.1 C2154.24,229.1 2152.04,228.99 2148.41,228.33 L2148.41,236.69 C2151.71,236.25 2154.57,236.14 2160.95,236.14 L2177.23,236.14 L2177.23,259.24 L2154.79,259.24 C2148.19,259.24 2145.88,259.13 2142.03,258.58 L2142.03,266.83 C2145.77,266.39 2148.85,266.28 2154.68,266.28 L2177.23,266.28 M2251.48,270.9 C2254.78,270.57 2257.09,270.46 2265.12,270.46 L2328.92,270.46 C2336.29,270.46 2338.82,270.57 2342.34,270.9 L2342.34,261.99 C2338.93,262.43 2337.17,262.54 2329.03,262.54 L2265.12,262.54 C2257.64,262.54 2254.67,262.43 2251.48,261.88 L2251.48,270.9 M2398.66,242.74 L2376.22,246.26 C2371.27,247.03 2368.41,247.25 2364.78,247.36 L2366.32,255.72 C2369.18,254.84 2372.81,254.07 2377.32,253.3 L2399.98,249.78 L2403.94,272 L2374.68,276.73 C2370.17,277.5 2367.42,277.72 2363.79,277.72 L2365.22,286.08 C2368.85,284.98 2369.51,284.87 2375.78,283.88 L2405.26,279.15 L2409.77,303.79 C2410.54,308.63 2410.98,311.38 2411.09,314.35 L2419.89,312.7 C2418.79,309.29 2418.46,307.97 2417.47,302.25 L2412.96,277.94 L2440.57,273.54 C2441.34,273.43 2441.89,273.32 2443.1,273.1 C2444.97,272.77 2446.07,272.55 2446.51,272.55 C2448.49,272.22 2449.15,272.11 2451.35,272 L2449.81,263.86 C2447.06,264.85 2443.87,265.51 2438.92,266.39 L2411.64,270.79 L2407.46,248.57 L2432.43,244.72 C2439.25,243.62 2439.25,243.62 2442.22,243.29 L2440.68,235.37 C2438.15,236.25 2435.84,236.8 2431,237.57 L2406.14,241.42 L2403.94,229.32 C2403.06,224.7 2402.84,222.61 2402.73,219.97 L2394.04,221.4 C2395.14,224.04 2395.69,226.13 2396.46,230.75 L2398.66,242.74 M2471.48,270.9 C2474.78,270.57 2477.09,270.46 2485.12,270.46 L2548.92,270.46 C2556.29,270.46 2558.82,270.57 2562.34,270.9 L2562.34,261.99 C2558.93,262.43 2557.17,262.54 2549.03,262.54 L2485.12,262.54 C2477.64,262.54 2474.67,262.43 2471.48,261.88 L2471.48,270.9 "/>
<path class="MeasureNumber" d="M228.958,1238.28 L227.798,1238.28 C225.598,1239.92 221.358,1241.32 218.478,1241.32 L217.998,1243.08 L220.758,1243.08 C223.198,1243.08 223.478,1243.16 223.478,1243.88 C223.478,1244.24 223.478,1244.24 223.078,1245.68 L218.798,1261.68 C218.278,1263.68 218.238,1263.8 217.878,1264.16 C217.478,1264.56 216.638,1264.68 214.518,1264.72 L212.798,1264.72 L212.598,1266.6 L227.398,1266.6 L227.638,1264.72 L225.478,1264.72 C222.878,1264.72 222.318,1264.52 222.318,1263.64 C222.318,1263.36 222.478,1262.44 222.678,1261.68 L228.958,1238.28 M246.873,1238.44 C238.273,1238.44 233.993,1250.28 233.993,1257.32 C233.993,1263.12 236.873,1267.2 240.953,1267.2 C247.793,1267.2 253.913,1258.32 253.913,1248.4 C253.913,1242.44 251.073,1238.44 246.873,1238.44 M246.833,1240.04 C248.913,1240.04 250.033,1241.88 250.033,1245.32 C250.033,1249.24 249.033,1254.32 247.393,1258.44 C245.473,1263.44 243.553,1265.6 241.153,1265.6 C238.993,1265.6 237.793,1263.68 237.793,1260.28 C237.793,1255.08 239.633,1248.12 242.193,1243.48 C243.433,1241.24 245.033,1240.04 246.833,1240.04"/>
<path class="TieSegment" stroke="#000000" stroke-width="1.24" stroke-linecap="round" stroke-linejoin="round" fill-rule="evenodd" d="M2043.09,726.795 C2088.74,751.579 2225.72,751.579 2271.38,726.795 C2225.72,759.515 2088.74,759.515 2043.09,726.795"/>
<path class="TieSegment" stroke="#000000" stroke-width="1.24" stroke-linecap="round" stroke-linejoin="round" fill-rule="evenodd" d="M2262.55,1458.4 C2312.95,1484.39 2464.13,1484.39 2514.52,1458.4 C2464.13,1492.32 2312.95,1492.32 2262.55,1458.4"/>
<path class="TieSegment" stroke="#000000" stroke-width="1.24" stroke-linecap="round" stroke-linejoin="round" fill-rule="evenodd" d="M2000.66,1458.4 C2051.06,1484.39 2202.24,1484.39 2252.63,1458.4 C2202.24,1492.32 2051.06,1492.32 2000.66,1458.4"/>
<path class="TieSegment" stroke="#000000" stroke-width="1.24" stroke-linecap="round" stroke-linejoin="round" fill-rule="evenodd" d="M2281.3,726.795 C2326.95,751.579 2463.93,751.579 2509.59,726.795 C2463.93,759.515 2326.95,759.515 2281.3,726.795"/>
<path class="TieSegment" stroke="#000000" stroke-width="1.24" stroke-linecap="round" stroke-linejoin="round" fill-rule="evenodd" d="M1157.17,714.395 C1203.32,745.86 1341.79,745.86 1387.94,714.395 C1341.79,753.796 1203.32,753.796 1157.17,714.395"/>
<path class="TieSegment" stroke="#000000" stroke-width="1.24" stroke-linecap="round" stroke-linejoin="round" fill-rule="evenodd" d="M1022.57,1446 C1073.46,1472.11 1226.13,1472.11 1277.02,1446 C1226.13,1480.04 1073.46,1480.04 1022.57,1446"/>
<polyline class="BarLine" fill="none" stroke="#000000" stroke-width="4.46" stroke-linejoin="bevel" points="2739.55,1314.83 2739.55,1416.76"/>
<polyline class="BarLine" fill="none" stroke="#000000" stroke-width="13.64" stroke-linejoin="bevel" points="2757.78,1314.83 2757.78,1416.76"/>
<polyline class="BarLine" fill="none" stroke="#000000" stroke-width="4.46" stroke-linejoin="bevel" points="1949.72,1314.83 1949.72,1416.76"/>
<polyline class="BarLine" fill="none" stroke="#000000" stroke-width="4.46" stroke-linejoin="bevel" points="1560.94,1314.83 1560.94,1416.76"/>
<polyline class="BarLine" fill="none" stroke="#000000" stroke-width="4.46" stroke-linejoin="bevel" points="1231.04,1314.83 1231.04,1416.76"/>
<polyline class="BarLine" fill="none" stroke="#000000" stroke-width="4.46" stroke-linejoin="bevel" points="519.077,632.834 519.077,734.762"/>
<polyline class="BarLine" fill="none" stroke="#000000" stroke-width="4.46" stroke-linejoin="bevel" points="971.632,1314.83 971.632,1416.76"/>
<polyline class="BarLine" fill="none" stroke="#000000" stroke-width="4.46" stroke-linejoin="bevel" points="712.222,1314.83 712.222,1416.76"/>
<polyline class="BarLine" fill="none" stroke="#000000" stroke-width="4.46" stroke-linejoin="bevel" points="2468.54,1314.83 2468.54,1416.76"/>
<polyline class="BarLine" fill="none" stroke="#000000" stroke-width="4.46" stroke-linejoin="bevel" points="2762.37,632.834 2762.37,734.762"/>
<polyline class="BarLine" fill="none" stroke="#000000" stroke-width="4.46" stroke-linejoin="bevel" points="2209.13,1314.83 2209.13,1416.76"/>
<polyline class="BarLine" fill="none" stroke="#000000" stroke-width="4.46" stroke-linejoin="bevel" points="2463.61,632.834 2463.61,734.762"/>
<polyline class="BarLine" fill="none" stroke="#000000" stroke-width="4.46" stroke-linejoin="bevel" points="870.5,632.834 870.5,734.762"/>
<polyline class="BarLine" fill="none" stroke="#000000" stroke-width="4.46" stroke-linejoin="bevel" points="2227.88,632.834 2227.88,734.762"/>
<polyline class="BarLine" fill="none" stroke="#000000" stroke-width="4.46" stroke-linejoin="bevel" points="1992.15,632.834 1992.15,734.762"/>
<polyline class="BarLine" fill="none" stroke="#000000" stroke-width="4.46" stroke-linejoin="bevel" points="1640.72,632.834 1640.72,734.762"/>
<polyline class="BarLine" fill="none" stroke="#000000" stroke-width="4.46" stroke-linejoin="bevel" points="1106.23,632.834 1106.23,734.762"/>
<polyline class="BarLine" fill="none" stroke="#000000" stroke-width="4.46" stroke-linejoin="bevel" points="1341.96,632.834 1341.96,734.762"/>
<polyline class="LedgerLine" fill="none" stroke="#000000" stroke-width="3.97" stroke-linejoin="bevel" points="544.125,758.198 592.718,758.198"/>
<polyline class="LedgerLine" fill="none" stroke="#000000" stroke-width="3.97" stroke-linejoin="bevel" points="2493.59,1440.2 2542.18,1440.2"/>
<polyline class="LedgerLine" fill="none" stroke="#000000" stroke-width="3.97" stroke-linejoin="bevel" points="1974.77,1440.2 2023.36,1440.2"/>
<polyline class="LedgerLine" fill="none" stroke="#000000" stroke-width="3.97" stroke-linejoin="bevel" points="1821.53,1440.2 1870.13,1440.2"/>
<polyline class="LedgerLine" fill="none" stroke="#000000" stroke-width="3.97" stroke-linejoin="bevel" points="403.341,758.198 451.934,758.198"/>
<polyline class="LedgerLine" fill="none" stroke="#000000" stroke-width="3.97" stroke-linejoin="bevel" points="2234.18,1440.2 2282.77,1440.2"/>
<polyline class="LedgerLine" fill="none" stroke="#000000" stroke-width="3.97" stroke-linejoin="bevel" points="348.487,1440.2 397.079,1440.2"/>
<polyline class="Stem" fill="none" stroke="#000000" stroke-width="2.48" stroke-linejoin="bevel" points="904.972,675.565 904.972,751.998"/>
<polyline class="Stem" fill="none" stroke="#000000" stroke-width="2.48" stroke-linejoin="bevel" points="776.439,1386.63 776.439,1303.8"/>
<polyline class="Stem" fill="none" stroke="#000000" stroke-width="2.48" stroke-linejoin="bevel" points="2292.09,704.63 2292.09,621.798"/>
<polyline class="Stem" fill="none" stroke="#000000" stroke-width="2.48" stroke-linejoin="bevel" points="2056.36,704.63 2056.36,621.798"/>
<polyline class="Stem" fill="none" stroke="#000000" stroke-width="2.48" stroke-linejoin="bevel" points="2532.76,1436.23 2532.76,1353.4"/>
<polyline class="Stem" fill="none" stroke="#000000" stroke-width="2.48" stroke-linejoin="bevel" points="793.933,704.63 793.933,621.798"/>
<polyline class="Stem" fill="none" stroke="#000000" stroke-width="2.48" stroke-linejoin="bevel" points="2527.82,704.63 2527.82,621.798"/>
<polyline class="Stem" fill="none" stroke="#000000" stroke-width="2.48" stroke-linejoin="bevel" points="2013.94,1436.23 2013.94,1353.4"/>
<polyline class="Stem" fill="none" stroke="#000000" stroke-width="2.48" stroke-linejoin="bevel" points="2685.8,704.63 2685.8,621.798"/>
<polyline class="Stem" fill="none" stroke="#000000" stroke-width="2.48" stroke-linejoin="bevel" points="1170.45,692.23 1170.45,615.598"/>
<polyline class="Stem" fill="none" stroke="#000000" stroke-width="2.48" stroke-linejoin="bevel" points="442.51,754.23 442.51,671.398"/>
<polyline class="Stem" fill="none" stroke="#000000" stroke-width="2.48" stroke-linejoin="bevel" points="688.613,729.43 688.613,646.598"/>
<polyline class="Stem" fill="none" stroke="#000000" stroke-width="2.48" stroke-linejoin="bevel" points="1860.7,1423.83 1860.7,1341"/>
<polyline class="Stem" fill="none" stroke="#000000" stroke-width="2.48" stroke-linejoin="bevel" points="1742.93,1411.43 1742.93,1328.6"/>
<polyline class="Stem" fill="none" stroke="#000000" stroke-width="2.48" stroke-linejoin="bevel" points="1810.26,704.63 1810.26,621.798"/>
<polyline class="Stem" fill="none" stroke="#000000" stroke-width="2.48" stroke-linejoin="bevel" points="1625.16,1399.03 1625.16,1316.2"/>
<polyline class="Stem" fill="none" stroke="#000000" stroke-width="2.48" stroke-linejoin="bevel" points="1704.94,717.03 1704.94,634.198"/>
<polyline class="Stem" fill="none" stroke="#000000" stroke-width="2.48" stroke-linejoin="bevel" points="1406.18,692.23 1406.18,615.598"/>
<polyline class="Stem" fill="none" stroke="#000000" stroke-width="2.48" stroke-linejoin="bevel" points="387.655,1436.23 387.655,1353.4"/>
<polyline class="Stem" fill="none" stroke="#000000" stroke-width="2.48" stroke-linejoin="bevel" points="1915.58,692.23 1915.58,615.598"/>
<polyline class="Stem" fill="none" stroke="#000000" stroke-width="2.48" stroke-linejoin="bevel" points="1471.92,1411.43 1471.92,1328.6"/>
<polyline class="Stem" fill="none" stroke="#000000" stroke-width="2.48" stroke-linejoin="bevel" points="505.428,1411.43 505.428,1328.6"/>
<polyline class="Stem" fill="none" stroke="#000000" stroke-width="2.48" stroke-linejoin="bevel" points="1295.26,1423.83 1295.26,1341"/>
<polyline class="Stem" fill="none" stroke="#000000" stroke-width="2.48" stroke-linejoin="bevel" points="623.202,1386.63 623.202,1303.8"/>
<polyline class="Stem" fill="none" stroke="#000000" stroke-width="2.48" stroke-linejoin="bevel" points="2273.35,1436.23 2273.35,1353.4"/>
<polyline class="Stem" fill="none" stroke="#000000" stroke-width="2.48" stroke-linejoin="bevel" points="583.294,754.23 583.294,671.398"/>
<polyline class="Stem" fill="none" stroke="#000000" stroke-width="2.48" stroke-linejoin="bevel" points="1035.85,1423.83 1035.85,1341"/>
<polyline class="Stem" fill="none" stroke="#000000" stroke-width="2.48" stroke-linejoin="bevel" points="1564.16,692.23 1564.16,615.598"/>
<path class="Note" transform="matrix(0.992,0,0,0.992,2261.11,708.598)" d="M21.3,-13.2 C11.6,-13.2 0,-5.1 0,4.2 C0,8.5 3.1,13.3 11.2,13.3 C21.6,13.3 32.5,4.8 32.5,-4 C32.5,-9.9 27.5,-13.2 21.3,-13.2 M7.5,8.6 C4.2,8.6 3.5,5.9 3.5,5 C3.5,0.1 20.3,-8.5 25,-8.5 C27.4,-8.5 29,-7.1 29,-4.9 C29,0.1 12.1,8.6 7.5,8.6"/>
<path class="Note" transform="matrix(0.992,0,0,0.992,1139.46,696.198)" d="M21.3,-13.2 C11.6,-13.2 0,-5.1 0,4.2 C0,8.5 3.1,13.3 11.2,13.3 C21.6,13.3 32.5,4.8 32.5,-4 C32.5,-9.9 27.5,-13.2 21.3,-13.2 M7.5,8.6 C4.2,8.6 3.5,5.9 3.5,5 C3.5,0.1 20.3,-8.5 25,-8.5 C27.4,-8.5 29,-7.1 29,-4.9 C29,0.1 12.1,8.6 7.5,8.6"/>
<path class="Note" transform="matrix(0.992,0,0,0.992,1533.17,696.198)" d="M0,4.2 C0,8.5 3.1,13.3 11.2,13.3 C21.6,13.3 32.5,4.8 32.5,-4 C32.5,-9.9 27.5,-13.2 21.3,-13.2 C11.6,-13.2 0,-5 0,4.2"/>
<path class="Note" transform="matrix(0.992,0,0,0.992,745.454,1390.6)" d="M21.3,-13.2 C11.6,-13.2 0,-5.1 0,4.2 C0,8.5 3.1,13.3 11.2,13.3 C21.6,13.3 32.5,4.8 32.5,-4 C32.5,-9.9 27.5,-13.2 21.3,-13.2 M7.5,8.6 C4.2,8.6 3.5,5.9 3.5,5 C3.5,0.1 20.3,-8.5 25,-8.5 C27.4,-8.5 29,-7.1 29,-4.9 C29,0.1 12.1,8.6 7.5,8.6"/>
<path class="Note" transform="matrix(0.992,0,0,0.992,903.732,671.398)" d="M21.3,-13.2 C11.6,-13.2 0,-5.1 0,4.2 C0,8.5 3.1,13.3 11.2,13.3 C21.6,13.3 32.5,4.8 32.5,-4 C32.5,-9.9 27.5,-13.2 21.3,-13.2 M7.5,8.6 C4.2,8.6 3.5,5.9 3.5,5 C3.5,0.1 20.3,-8.5 25,-8.5 C27.4,-8.5 29,-7.1 29,-4.9 C29,0.1 12.1,8.6 7.5,8.6"/>
<path class="Note" transform="matrix(0.992,0,0,0.992,1004.86,1427.8)" d="M21.3,-13.2 C11.6,-13.2 0,-5.1 0,4.2 C0,8.5 3.1,13.3 11.2,13.3 C21.6,13.3 32.5,4.8 32.5,-4 C32.5,-9.9 27.5,-13.2 21.3,-13.2 M7.5,8.6 C4.2,8.6 3.5,5.9 3.5,5 C3.5,0.1 20.3,-8.5 25,-8.5 C27.4,-8.5 29,-7.1 29,-4.9 C29,0.1 12.1,8.6 7.5,8.6"/>
<path class="Note" transform="matrix(0.992,0,0,0.992,592.217,1390.6)" d="M0,4.2 C0,8.5 3.1,13.3 11.2,13.3 C21.6,13.3 32.5,4.8 32.5,-4 C32.5,-9.9 27.5,-13.2 21.3,-13.2 C11.6,-13.2 0,-5 0,4.2"/>
<path class="Note" transform="matrix(0.992,0,0,0.992,411.525,758.198)" d="M0,4.2 C0,8.5 3.1,13.3 11.2,13.3 C21.6,13.3 32.5,4.8 32.5,-4 C32.5,-9.9 27.5,-13.2 21.3,-13.2 C11.6,-13.2 0,-5 0,4.2"/>
<path class="Note" transform="matrix(0.992,0,0,0.992,1375.19,696.198)" d="M21.3,-13.2 C11.6,-13.2 0,-5.1 0,4.2 C0,8.5 3.1,13.3 11.2,13.3 C21.6,13.3 32.5,4.8 32.5,-4 C32.5,-9.9 27.5,-13.2 21.3,-13.2 M7.5,8.6 C4.2,8.6 3.5,5.9 3.5,5 C3.5,0.1 20.3,-8.5 25,-8.5 C27.4,-8.5 29,-7.1 29,-4.9 C29,0.1 12.1,8.6 7.5,8.6"/>
<path class="Note" transform="matrix(0.992,0,0,0.992,474.444,1415.4)" d="M0,4.2 C0,8.5 3.1,13.3 11.2,13.3 C21.6,13.3 32.5,4.8 32.5,-4 C32.5,-9.9 27.5,-13.2 21.3,-13.2 C11.6,-13.2 0,-5 0,4.2"/>
<path class="Note" transform="matrix(0.992,0,0,0.992,1264.27,1427.8)" d="M21.3,-13.2 C11.6,-13.2 0,-5.1 0,4.2 C0,8.5 3.1,13.3 11.2,13.3 C21.6,13.3 32.5,4.8 32.5,-4 C32.5,-9.9 27.5,-13.2 21.3,-13.2 M7.5,8.6 C4.2,8.6 3.5,5.9 3.5,5 C3.5,0.1 20.3,-8.5 25,-8.5 C27.4,-8.5 29,-7.1 29,-4.9 C29,0.1 12.1,8.6 7.5,8.6"/>
<path class="Note" transform="matrix(0.992,0,0,0.992,356.671,1440.2)" d="M0,4.2 C0,8.5 3.1,13.3 11.2,13.3 C21.6,13.3 32.5,4.8 32.5,-4 C32.5,-9.9 27.5,-13.2 21.3,-13.2 C11.6,-13.2 0,-5 0,4.2"/>
<path class="Note" transform="matrix(0.992,0,0,0.992,1440.93,1415.4)" d="M0,4.2 C0,8.5 3.1,13.3 11.2,13.3 C21.6,13.3 32.5,4.8 32.5,-4 C32.5,-9.9 27.5,-13.2 21.3,-13.2 C11.6,-13.2 0,-5 0,4.2"/>
<path class="Note" transform="matrix(0.992,0,0,0.992,2501.78,1440.2)" d="M0,4.2 C0,8.5 3.1,13.3 11.2,13.3 C21.6,13.3 32.5,4.8 32.5,-4 C32.5,-9.9 27.5,-13.2 21.3,-13.2 C11.6,-13.2 0,-5 0,4.2"/>
<path class="Note" transform="matrix(0.992,0,0,0.992,2242.37,1440.2)" d="M21.3,-13.2 C11.6,-13.2 0,-5.1 0,4.2 C0,8.5 3.1,13.3 11.2,13.3 C21.6,13.3 32.5,4.8 32.5,-4 C32.5,-9.9 27.5,-13.2 21.3,-13.2 M7.5,8.6 C4.2,8.6 3.5,5.9 3.5,5 C3.5,0.1 20.3,-8.5 25,-8.5 C27.4,-8.5 29,-7.1 29,-4.9 C29,0.1 12.1,8.6 7.5,8.6"/>
<path class="Note" transform="matrix(0.992,0,0,0.992,1673.96,720.998)" d="M0,4.2 C0,8.5 3.1,13.3 11.2,13.3 C21.6,13.3 32.5,4.8 32.5,-4 C32.5,-9.9 27.5,-13.2 21.3,-13.2 C11.6,-13.2 0,-5 0,4.2"/>
<path class="Note" transform="matrix(0.992,0,0,0.992,1594.17,1403)" d="M0,4.2 C0,8.5 3.1,13.3 11.2,13.3 C21.6,13.3 32.5,4.8 32.5,-4 C32.5,-9.9 27.5,-13.2 21.3,-13.2 C11.6,-13.2 0,-5 0,4.2"/>
<path class="Note" transform="matrix(0.992,0,0,0.992,552.309,758.198)" d="M0,4.2 C0,8.5 3.1,13.3 11.2,13.3 C21.6,13.3 32.5,4.8 32.5,-4 C32.5,-9.9 27.5,-13.2 21.3,-13.2 C11.6,-13.2 0,-5 0,4.2"/>
<path class="Note" transform="matrix(0.992,0,0,0.992,1711.94,1415.4)" d="M0,4.2 C0,8.5 3.1,13.3 11.2,13.3 C21.6,13.3 32.5,4.8 32.5,-4 C32.5,-9.9 27.5,-13.2 21.3,-13.2 C11.6,-13.2 0,-5 0,4.2"/>
<path class="Note" transform="matrix(0.992,0,0,0.992,1779.27,708.598)" d="M0,4.2 C0,8.5 3.1,13.3 11.2,13.3 C21.6,13.3 32.5,4.8 32.5,-4 C32.5,-9.9 27.5,-13.2 21.3,-13.2 C11.6,-13.2 0,-5 0,4.2"/>
<path class="Note" transform="matrix(0.992,0,0,0.992,2025.38,708.598)" d="M21.3,-13.2 C11.6,-13.2 0,-5.1 0,4.2 C0,8.5 3.1,13.3 11.2,13.3 C21.6,13.3 32.5,4.8 32.5,-4 C32.5,-9.9 27.5,-13.2 21.3,-13.2 M7.5,8.6 C4.2,8.6 3.5,5.9 3.5,5 C3.5,0.1 20.3,-8.5 25,-8.5 C27.4,-8.5 29,-7.1 29,-4.9 C29,0.1 12.1,8.6 7.5,8.6"/>
<path class="Note" transform="matrix(0.992,0,0,0.992,1829.72,1427.8)" d="M0,4.2 C0,8.5 3.1,13.3 11.2,13.3 C21.6,13.3 32.5,4.8 32.5,-4 C32.5,-9.9 27.5,-13.2 21.3,-13.2 C11.6,-13.2 0,-5 0,4.2"/>
<path class="Note" transform="matrix(0.992,0,0,0.992,657.629,733.398)" d="M0,4.2 C0,8.5 3.1,13.3 11.2,13.3 C21.6,13.3 32.5,4.8 32.5,-4 C32.5,-9.9 27.5,-13.2 21.3,-13.2 C11.6,-13.2 0,-5 0,4.2"/>
<path class="Note" transform="matrix(0.992,0,0,0.992,2654.82,708.598)" d="M0,4.2 C0,8.5 3.1,13.3 11.2,13.3 C21.6,13.3 32.5,4.8 32.5,-4 C32.5,-9.9 27.5,-13.2 21.3,-13.2 C11.6,-13.2 0,-5 0,4.2"/>
<path class="Note" transform="matrix(0.992,0,0,0.992,2496.84,708.598)" d="M21.3,-13.2 C11.6,-13.2 0,-5.1 0,4.2 C0,8.5 3.1,13.3 11.2,13.3 C21.6,13.3 32.5,4.8 32.5,-4 C32.5,-9.9 27.5,-13.2 21.3,-13.2 M7.5,8.6 C4.2,8.6 3.5,5.9 3.5,5 C3.5,0.1 20.3,-8.5 25,-8.5 C27.4,-8.5 29,-7.1 29,-4.9 C29,0.1 12.1,8.6 7.5,8.6"/>
<path class="Note" transform="matrix(0.992,0,0,0.992,762.948,708.598)" d="M0,4.2 C0,8.5 3.1,13.3 11.2,13.3 C21.6,13.3 32.5,4.8 32.5,-4 C32.5,-9.9 27.5,-13.2 21.3,-13.2 C11.6,-13.2 0,-5 0,4.2"/>
<path class="Note" transform="matrix(0.992,0,0,0.992,1982.95,1440.2)" d="M21.3,-13.2 C11.6,-13.2 0,-5.1 0,4.2 C0,8.5 3.1,13.3 11.2,13.3 C21.6,13.3 32.5,4.8 32.5,-4 C32.5,-9.9 27.5,-13.2 21.3,-13.2 M7.5,8.6 C4.2,8.6 3.5,5.9 3.5,5 C3.5,0.1 20.3,-8.5 25,-8.5 C27.4,-8.5 29,-7.1 29,-4.9 C29,0.1 12.1,8.6 7.5,8.6"/>
<path class="Note" transform="matrix(0.992,0,0,0.992,1884.59,696.198)" d="M0,4.2 C0,8.5 3.1,13.3 11.2,13.3 C21.6,13.3 32.5,4.8 32.5,-4 C32.5,-9.9 27.5,-13.2 21.3,-13.2 C11.6,-13.2 0,-5 0,4.2"/>
<path class="Clef" transform="matrix(0.992,0,0,0.992,231.198,708.598)" d="M12.3,51.3 C12.3,57.9 17.3,66.6 30.8,66.6 C35.5,66.6 39.6,65.4 43.2,63.2 C48.6,59.4 50,52.8 50,46.5 C50,42.6 49.4,38.1 48.4,32.4 C48.1,30.4 47.5,27.4 46.9,23.5 C56.7,20.3 64,10.1 64,-0.2 C64,-15.3 53.3,-25.5 38.7,-25.5 C37.7,-31.5 36.7,-37.4 35.9,-43 C46.4,-54.1 53.7,-66.6 53.7,-82.5 C53.7,-91.6 50.9,-99 49.3,-102.6 C46.9,-107.7 44,-111.2 42.2,-111.2 C41.5,-111.2 38.4,-110 35.1,-106.1 C28.7,-98.5 26.9,-85.7 26.9,-77.3 C26.9,-71.9 27.4,-67 29.1,-55.8 C29,-55.7 23.8,-50.4 21.7,-48.7 C12.6,-40.3 0,-28.1 0,-8.1 C0,10.6 16.3,25.3 34.9,25.3 C37.8,25.3 40.5,25 42.8,24.6 C44.7,34.2 45.9,41.2 45.9,46.5 C45.9,56.9 40.5,62.4 30.4,62.4 C28,62.4 25.9,61.9 25.7,61.9 C25.6,61.8 25.4,61.7 25.4,61.6 C25.4,61.4 25.6,61.3 25.9,61.3 C30.6,60.5 35.3,56.5 35.3,50.1 C35.3,44.7 31.2,39 23.7,39 C16.7,39 12.3,44.7 12.3,51.3 M33.2,-82.2 C34.1,-86.2 38.7,-96.7 43.9,-96.7 C45.4,-96.7 47.8,-91.9 47.8,-84.9 C47.8,-74.5 40.1,-66.7 33.2,-59.9 C32.6,-63.9 32.1,-67.8 32.1,-72 C32.1,-75.7 32.4,-79.1 33.2,-82.2 M42,20.6 C40,21 38.1,21.2 36.2,21.2 C21.9,21.2 9.7,11.2 9.7,-3.9 C9.7,-16.1 18.3,-27 27.1,-34.6 C28.8,-36.1 30.4,-37.5 31.9,-39 C32.8,-33.6 33.5,-28.9 34.2,-24.8 C25.1,-22.1 18.9,-12.5 18.9,-3.1 C18.9,3.9 24.4,13.5 32.4,13.5 C33.2,13.5 34.1,13.1 34.1,12.2 C34.1,11.3 33.1,10.8 31.9,10 C28,7.6 25.8,5 25.8,0.1 C25.8,-6 30.4,-10.9 36.2,-12.3 L42,20.6 M56.2,2.1 C56.2,9.2 53.3,16.5 46.2,19.4 C44.1,7.4 41.4,-8.5 40.7,-12.9 C49.7,-12.9 56.2,-6.8 56.2,2.1"/>
<path class="Clef" transform="matrix(0.992,0,0,0.992,231.198,1390.6)" d="M12.3,51.3 C12.3,57.9 17.3,66.6 30.8,66.6 C35.5,66.6 39.6,65.4 43.2,63.2 C48.6,59.4 50,52.8 50,46.5 C50,42.6 49.4,38.1 48.4,32.4 C48.1,30.4 47.5,27.4 46.9,23.5 C56.7,20.3 64,10.1 64,-0.2 C64,-15.3 53.3,-25.5 38.7,-25.5 C37.7,-31.5 36.7,-37.4 35.9,-43 C46.4,-54.1 53.7,-66.6 53.7,-82.5 C53.7,-91.6 50.9,-99 49.3,-102.6 C46.9,-107.7 44,-111.2 42.2,-111.2 C41.5,-111.2 38.4,-110 35.1,-106.1 C28.7,-98.5 26.9,-85.7 26.9,-77.3 C26.9,-71.9 27.4,-67 29.1,-55.8 C29,-55.7 23.8,-50.4 21.7,-48.7 C12.6,-40.3 0,-28.1 0,-8.1 C0,10.6 16.3,25.3 34.9,25.3 C37.8,25.3 40.5,25 42.8,24.6 C44.7,34.2 45.9,41.2 45.9,46.5 C45.9,56.9 40.5,62.4 30.4,62.4 C28,62.4 25.9,61.9 25.7,61.9 C25.6,61.8 25.4,61.7 25.4,61.6 C25.4,61.4 25.6,61.3 25.9,61.3 C30.6,60.5 35.3,56.5 35.3,50.1 C35.3,44.7 31.2,39 23.7,39 C16.7,39 12.3,44.7 12.3,51.3 M33.2,-82.2 C34.1,-86.2 38.7,-96.7 43.9,-96.7 C45.4,-96.7 47.8,-91.9 47.8,-84.9 C47.8,-74.5 40.1,-66.7 33.2,-59.9 C32.6,-63.9 32.1,-67.8 32.1,-72 C32.1,-75.7 32.4,-79.1 33.2,-82.2 M42,20.6 C40,21 38.1,21.2 36.2,21.2 C21.9,21.2 9.7,11.2 9.7,-3.9 C9.7,-16.1 18.3,-27 27.1,-34.6 C28.8,-36.1 30.4,-37.5 31.9,-39 C32.8,-33.6 33.5,-28.9 34.2,-24.8 C25.1,-22.1 18.9,-12.5 18.9,-3.1 C18.9,3.9 24.4,13.5 32.4,13.5 C33.2,13.5 34.1,13.1 34.1,12.2 C34.1,11.3 33.1,10.8 31.9,10 C28,7.6 25.8,5 25.8,0.1 C25.8,-6 30.4,-10.9 36.2,-12.3 L42,20.6 M56.2,2.1 C56.2,9.2 53.3,16.5 46.2,19.4 C44.1,7.4 41.4,-8.5 40.7,-12.9 C49.7,-12.9 56.2,-6.8 56.2,2.1"/>
<path class="TimeSig" transform="matrix(0.992,0,0,0.992,321.997,659.494)" d="M27.2,-1.6 C32.2,-3.5 35.7,-6.7 35.7,-12.2 C35.7,-13.1 35.4,-24.4 18.2,-24.4 C1,-24.4 1.5,-12.2 1.5,-12.2 L1.6,-12.2 L1.5,-12 C1.5,-8.4 4.4,-5.6 8,-5.6 C11.6,-5.6 14.4,-8.4 14.4,-12 C14.4,-14.9 12.2,-17.7 9.4,-18.3 C9.5,-18.4 9.6,-18.5 9.7,-18.6 C11.1,-19.6 13,-20.1 14.9,-20.1 C19.1,-20.1 23.6,-17.6 23.6,-12.2 C23.6,-5.9 18.9,-5 17.7,-4.8 C16.5,-4.6 10.9,-4.2 9.7,-4.2 C8.5,-4.2 8.4,-2.8 8.4,-2.8 L8.4,-0.8 C8.4,-0.8 8.6,0.3 9.7,0.4 C11.4,0.5 13.7,0.5 16.9,1 C21.3,1.6 23.6,4.6 23.6,11.6 C23.6,18.3 19.1,20.1 14.9,20.1 C12.1,20.1 9.5,19.3 8.4,18.5 C11.7,18.3 14.4,15.4 14.4,12.1 C14.4,8.5 11.6,5.6 8,5.6 C4.4,5.6 1.5,8.5 1.5,12.1 C1.5,20.3 9,24.4 16.4,24.4 C26,24.4 36.4,21.1 36.4,10.2 C36.4,2.9 31.4,-0.2 27,-1.6 L27.2,-1.6 "/>
<path class="TimeSig" transform="matrix(0.992,0,0,0.992,318.091,708.598)" d="M20.8,12.7 L20.8,20.1 L12.5,20.1 C11.8,20.1 11.1,20.7 11.1,21.5 L11.1,23.4 C11.1,24.2 11.8,24.8 12.5,24.8 L42.8,24.8 C43.6,24.8 44.2,24.2 44.2,23.4 L44.2,21.5 C44.2,20.7 43.6,20.1 42.8,20.1 L33.9,20.1 L33.9,12.7 L42.8,12.7 C43.6,12.7 44.2,12 44.2,11.2 L44.2,9.3 C44.2,8.6 43.6,7.9 42.8,7.9 L33.9,7.9 L33.9,-8 C33.9,-8.6 33.6,-9.1 33.1,-9.3 L31.9,-9.9 C31.7,-10 31.4,-10.1 31.2,-10.1 C30.9,-10 30.5,-9.9 30.3,-9.7 L21.2,-1.4 C20.9,-1.1 20.8,-0.7 20.8,-0.3 L20.8,7.9 L9.3,7.9 C9.3,7.9 20.4,-4.1 32.2,-19.9 C32.6,-20.4 32.7,-20.9 32.7,-21.3 C32.7,-21.8 32.5,-22.2 32.4,-22.3 L30.2,-24.5 C30,-24.7 29.6,-24.9 29.2,-24.9 C28.6,-24.9 15.1,-24.9 14.4,-24.9 C13.6,-24.9 13.1,-24.3 13,-23.7 C13,-23.7 12.5,-16.3 9.9,-8.2 C7.3,-0.1 4.3,4.9 1.7,8.6 C1.7,8.6 1.4,9.1 1.4,9.7 C1.4,9.9 1.4,10.1 1.5,10.3 C1.9,11 2.5,12.1 2.5,12.1 C2.5,12.1 2.7,12.7 3.6,12.7 L20.8,12.7 "/>
<path class="Rest" transform="matrix(0.992,0,0,0.992,2619.55,1365.8)" d="M23,16.6 C22.9,16.5 22.7,16.3 22.4,15.9 L10.9,1.7 C10.8,1.6 10.7,1.3 10.7,1.1 C10.7,0.8 10.8,0.4 10.9,0.2 L21.1,-15.2 C21.2,-15.4 21.3,-15.7 21.3,-15.9 L21.3,-16.8 C21.3,-17.1 21.2,-17.4 21,-17.6 L4.8,-39.5 C4.8,-39.5 4.4,-40.1 3.8,-40.1 C3.5,-40.1 3.3,-40.1 3,-39.8 C2.6,-39.5 2.5,-39.1 2.5,-38.8 C2.5,-38.2 2.8,-37.7 2.8,-37.7 L10.4,-27.3 C10.6,-27 10.7,-26.6 10.7,-26.1 C10.7,-25.7 10.6,-25.2 10.4,-24.9 L0.3,-9.5 C0.2,-9.3 0.1,-8.9 0.1,-8.7 L0.1,-7.8 C0.1,-7.5 0.2,-7.2 0.4,-7 L11.6,6.9 C11.2,6.8 10.3,6.6 9.1,6.6 C4,6.6 0,10.8 0,15.9 C0,17.3 0.3,18.7 1.1,19.8 C3.2,23 10.7,32.5 10.7,32.5 C10.7,32.5 11.2,33.1 11.9,33.1 C12.1,33.1 12.3,33.1 12.5,32.9 C13,32.5 13.2,32.1 13.2,31.7 C13.2,31.3 13,31 12.9,30.8 C12.6,30.3 9.4,24.5 9.4,24.5 C9.4,24.5 8.7,23.1 8.7,21.3 C8.7,18.1 11.1,15.5 14.3,15.5 C15.6,15.5 16.7,15.9 17.5,16.4 L21.4,18.9 C21.4,18.9 21.8,19.1 22.2,19.1 C22.6,19.1 22.9,19 23.2,18.6 C23.4,18.3 23.5,18 23.5,17.7 C23.5,17.4 23.4,17.2 23.2,16.9 L23,16.6 "/>
<path class="NoteDot" transform="matrix(0.992,0,0,0.992,2027.58,1427.8)" d="M0,0 C0,2.8 2.2,5 5,5 C7.8,5 10,2.8 10,0 C10,-2.8 7.8,-5 5,-5 C2.2,-5 0,-2.8 0,0"/>
<path class="NoteDot" transform="matrix(0.992,0,0,0.992,1049.49,1427.8)" d="M0,0 C0,2.8 2.2,5 5,5 C7.8,5 10,2.8 10,0 C10,-2.8 7.8,-5 5,-5 C2.2,-5 0,-2.8 0,0"/>
<path class="NoteDot" transform="matrix(0.992,0,0,0.992,790.079,1378.2)" d="M0,0 C0,2.8 2.2,5 5,5 C7.8,5 10,2.8 10,0 C10,-2.8 7.8,-5 5,-5 C2.2,-5 0,-2.8 0,0"/>
<path class="NoteDot" transform="matrix(0.992,0,0,0.992,2286.99,1427.8)" d="M0,0 C0,2.8 2.2,5 5,5 C7.8,5 10,2.8 10,0 C10,-2.8 7.8,-5 5,-5 C2.2,-5 0,-2.8 0,0"/>
<path class="NoteDot" transform="matrix(0.992,0,0,0.992,2305.73,696.198)" d="M0,0 C0,2.8 2.2,5 5,5 C7.8,5 10,2.8 10,0 C10,-2.8 7.8,-5 5,-5 C2.2,-5 0,-2.8 0,0"/>
<path class="NoteDot" transform="matrix(0.992,0,0,0.992,2070,696.198)" d="M0,0 C0,2.8 2.2,5 5,5 C7.8,5 10,2.8 10,0 C10,-2.8 7.8,-5 5,-5 C2.2,-5 0,-2.8 0,0"/>
<path class="NoteDot" transform="matrix(0.992,0,0,0.992,1184.09,696.198)" d="M0,0 C0,2.8 2.2,5 5,5 C7.8,5 10,2.8 10,0 C10,-2.8 7.8,-5 5,-5 C2.2,-5 0,-2.8 0,0"/>
<path class="NoteDot" transform="matrix(0.992,0,0,0.992,948.357,671.398)" d="M0,0 C0,2.8 2.2,5 5,5 C7.8,5 10,2.8 10,0 C10,-2.8 7.8,-5 5,-5 C2.2,-5 0,-2.8 0,0"/>
</svg>
