<?xml version="1.0" encoding="UTF-8" standalone="no"?>
<svg width="2977.2px" height="4208.4px" viewBox="0 0 2977.2 4208.4"
 xmlns="http://www.w3.org/2000/svg" xmlns:xlink="http://www.w3.org/1999/xlink" version="1.2" baseProfile="tiny">
<title>ジムノペディ1番</title>
<desc>Generated by MuseScore Studio 4.4.3</desc>
<path class="" fill="#ffffff" fill-rule="evenodd" d="M0,0 L2977.2,0 L2977.2,4208.4 L0,4208.4 L0,0 "/>
<polyline class="StaffLines" fill="none" stroke="#000000" stroke-width="2.73" stroke-linejoin="bevel" points="212.598,634.198 2764.6,634.198"/>
<polyline class="StaffLines" fill="none" stroke="#000000" stroke-width="2.73" stroke-linejoin="bevel" points="212.598,658.998 2764.6,658.998"/>
<polyline class="StaffLines" fill="none" stroke="#000000" stroke-width="2.73" stroke-linejoin="bevel" points="212.598,683.798 2764.6,683.798"/>
<polyline class="StaffLines" fill="none" stroke="#000000" stroke-width="2.73" stroke-linejoin="bevel" points="212.598,708.598 2764.6,708.598"/>
<polyline class="StaffLines" fill="none" stroke="#000000" stroke-width="2.73" stroke-linejoin="bevel" points="212.598,733.398 2764.6,733.398"/>
<polyline class="StaffLines" fill="none" stroke="#000000" stroke-width="2.73" stroke-linejoin="bevel" points="212.598,1167.4 2764.6,1167.4"/>
<polyline class="StaffLines" fill="none" stroke="#000000" stroke-width="2.73" stroke-linejoin="bevel" points="212.598,1192.2 2764.6,1192.2"/>
<polyline class="StaffLines" fill="none" stroke="#000000" stroke-width="2.73" stroke-linejoin="bevel" points="212.598,1217 2764.6,1217"/>
<polyline class="StaffLines" fill="none" stroke="#000000" stroke-width="2.73" stroke-linejoin="bevel" points="212.598,1241.8 2764.6,1241.8"/>
<polyline class="StaffLines" fill="none" stroke="#000000" stroke-width="2.73" stroke-linejoin="bevel" points="212.598,1266.6 2764.6,1266.6"/>
<polyline class="StaffLines" fill="none" stroke="#000000" stroke-width="2.73" stroke-linejoin="bevel" points="212.598,1700.6 2764.6,1700.6"/>
<polyline class="StaffLines" fill="none" stroke="#000000" stroke-width="2.73" stroke-linejoin="bevel" points="212.598,1725.4 2764.6,1725.4"/>
<polyline class="StaffLines" fill="none" stroke="#000000" stroke-width="2.73" stroke-linejoin="bevel" points="212.598,1750.2 2764.6,1750.2"/>
<polyline class="StaffLines" fill="none" stroke="#000000" stroke-width="2.73" stroke-linejoin="bevel" points="212.598,1775 2764.6,1775"/>
<polyline class="StaffLines" fill="none" stroke="#000000" stroke-width="2.73" stroke-linejoin="bevel" points="212.598,1799.8 2764.6,1799.8"/>
<polyline class="StaffLines" fill="none" stroke="#000000" stroke-width="2.73" stroke-linejoin="bevel" points="212.598,2233.8 2764.6,2233.8"/>
<polyline class="StaffLines" fill="none" stroke="#000000" stroke-width="2.73" stroke-linejoin="bevel" points="212.598,2258.6 2764.6,2258.6"/>
<polyline class="StaffLines" fill="none" stroke="#000000" stroke-width="2.73" stroke-linejoin="bevel" points="212.598,2283.4 2764.6,2283.4"/>
<polyline class="StaffLines" fill="none" stroke="#000000" stroke-width="2.73" stroke-linejoin="bevel" points="212.598,2308.2 2764.6,2308.2"/>
<polyline class="StaffLines" fill="none" stroke="#000000" stroke-width="2.73" stroke-linejoin="bevel" points="212.598,2333 2764.6,2333"/>
<polyline class="StaffLines" fill="none" stroke="#000000" stroke-width="2.73" stroke-linejoin="bevel" points="212.598,2767 2764.6,2767"/>
<polyline class="StaffLines" fill="none" stroke="#000000" stroke-width="2.73" stroke-linejoin="bevel" points="212.598,2791.8 2764.6,2791.8"/>
<polyline class="StaffLines" fill="none" stroke="#000000" stroke-width="2.73" stroke-linejoin="bevel" points="212.598,2816.6 2764.6,2816.6"/>
<polyline class="StaffLines" fill="none" stroke="#000000" stroke-width="2.73" stroke-linejoin="bevel" points="212.598,2841.4 2764.6,2841.4"/>
<polyline class="StaffLines" fill="none" stroke="#000000" stroke-width="2.73" stroke-linejoin="bevel" points="212.598,2866.2 2764.6,2866.2"/>
<path class="Text" d="M1086.23,231.298 C1092.5,233.168 1107.13,241.088 1113.29,245.928 L1117.8,238.558 C1109.22,233.168 1100.53,228.768 1090.52,224.698 L1086.23,231.298 M1077.54,257.698 C1086.45,260.888 1099.1,267.708 1105.59,272.768 L1109.88,265.288 C1101.19,259.788 1091.51,254.838 1081.94,250.988 L1077.54,257.698 M1081.28,310.278 C1082.93,309.728 1083.15,309.728 1085.57,309.178 C1125.17,301.698 1147.83,284.428 1161.69,251.098 C1158.83,249.118 1157.51,248.018 1154.87,245.158 C1146.95,268.478 1129.9,286.628 1108.67,294.438 C1098.33,298.398 1086.01,301.258 1079.74,301.258 C1079.52,301.258 1079.3,301.258 1079.08,301.258 L1081.28,310.278 M1142.66,222.498 C1145.85,226.018 1151.13,234.158 1153.88,239.988 L1159.38,236.688 C1156.08,230.198 1153,225.578 1148.16,219.638 L1142.66,222.498 M1155.09,216.668 C1159.38,221.618 1164,228.768 1166.42,233.938 L1171.92,230.748 C1168.29,223.818 1165.54,219.748 1160.48,213.698 L1155.09,216.668 M1207.67,221.398 C1206.79,227.668 1204.37,236.468 1198.98,253.078 C1193.59,269.578 1189.19,281.238 1182.37,296.638 C1179.84,296.858 1173.79,297.188 1173.02,297.188 C1172.47,297.188 1172.47,297.188 1169.94,297.078 L1171.04,306.208 C1173.13,305.768 1176.21,305.328 1180.39,304.998 C1207.67,302.468 1229.56,299.498 1248.04,295.868 C1250.57,300.928 1252.11,304.448 1254.53,310.718 L1262.23,306.538 C1254.64,288.828 1243.64,268.918 1234.84,256.818 L1228.02,260.558 C1233.41,268.038 1239.13,277.498 1244.96,289.048 C1231.98,291.578 1206.13,294.988 1191.5,295.978 C1198.87,279.148 1206.35,258.028 1214.38,231.628 C1215.48,227.998 1216.25,225.798 1217.35,223.708 L1207.67,221.398 M1352.54,224.698 C1351.55,230.968 1346.82,242.518 1340.99,252.858 C1328.34,275.188 1311.62,289.708 1286.76,300.268 C1289.73,303.348 1290.61,304.558 1292.37,307.968 C1310.74,298.728 1323.06,289.818 1333.84,277.498 C1343.85,266.278 1351.44,253.078 1358.92,234.158 C1360.79,229.428 1360.79,229.428 1361.67,227.778 L1352.54,224.698 M1385.32,283.878 C1386.64,282.118 1386.97,281.788 1388.62,279.808 C1393.02,274.858 1404.13,261.218 1408.31,255.608 C1413.15,249.118 1413.81,248.568 1415.9,248.568 C1418.1,248.568 1418.54,249.008 1425.8,256.708 C1440.32,272.328 1452.86,284.648 1463.09,293.118 C1467.38,296.858 1470.24,299.278 1470.79,299.718 C1471.01,299.938 1471.89,300.818 1472.88,301.588 L1477.06,292.568 C1468.59,287.948 1445.71,267.158 1430.31,250.108 C1422.39,241.308 1420.52,239.988 1416.12,239.988 C1411.17,239.988 1408.31,242.078 1402.15,250.438 C1389.72,266.278 1382.35,274.638 1379.71,275.628 L1385.32,283.878 M1459.46,227.888 C1452.53,227.888 1446.92,233.498 1446.92,240.318 C1446.92,247.248 1452.53,252.858 1459.46,252.858 C1466.28,252.858 1471.89,247.248 1471.89,240.318 C1471.89,233.388 1466.39,227.888 1459.46,227.888 M1459.46,232.508 C1463.75,232.508 1467.27,236.028 1467.27,240.318 C1467.27,244.718 1463.75,248.238 1459.46,248.238 C1455.06,248.238 1451.54,244.718 1451.54,240.318 C1451.54,236.028 1455.06,232.508 1459.46,232.508 M1570.67,260.888 C1577.6,260.888 1579.91,260.998 1583.32,261.438 L1583.32,253.298 C1579.69,253.848 1577.6,253.958 1570.56,253.958 L1506.21,253.958 C1499.28,253.958 1497.08,253.848 1493.45,253.298 L1493.45,261.438 C1496.86,260.998 1499.17,260.888 1506.1,260.888 L1535.91,260.888 C1535.03,285.968 1526.45,297.738 1503.68,305.328 C1506.32,307.858 1507.42,309.288 1508.85,312.478 C1533.71,302.798 1542.95,289.378 1544.27,260.888 L1570.67,260.888 M1504.56,234.378 C1507.64,233.938 1509.51,233.828 1517.1,233.828 L1550.54,233.828 C1557.47,233.938 1561.65,234.048 1563.08,234.158 L1563.08,226.238 C1559.23,226.678 1556.37,226.788 1550.43,226.788 L1517.21,226.788 C1510.06,226.788 1507.86,226.678 1504.56,226.018 L1504.56,234.378 M1563.52,219.418 C1566.6,222.938 1571.66,231.298 1574.19,237.238 L1579.8,234.158 C1576.72,227.668 1573.75,222.828 1569.02,216.778 L1563.52,219.418 M1577.05,215.348 C1581.12,220.518 1585.52,227.778 1587.72,233.058 L1593.33,229.978 C1589.92,223.048 1587.28,218.758 1582.55,212.598 L1577.05,215.348 M1664.93,241.088 C1663.28,243.618 1662.07,245.048 1658.77,248.238 C1649.42,257.588 1639.41,264.958 1627.31,271.118 C1619.28,275.408 1612.79,277.828 1601.79,280.798 C1603.88,283.438 1604.54,284.538 1605.64,287.398 C1619.28,283.218 1628.63,279.038 1639.41,272.218 L1639.41,304.888 C1639.41,310.388 1639.3,311.818 1638.97,314.458 L1647.55,314.458 C1647.11,311.708 1647,309.068 1647,304.778 L1647,267.598 C1657.67,259.348 1663.17,254.398 1669.11,248.238 C1670.32,246.918 1670.54,246.588 1671.75,245.708 L1664.93,241.088 "/>
<path class="Text" d="M1730.38,231.408 C1726.64,235.918 1716.52,239.328 1706.4,239.548 L1706.4,244.278 L1716.08,244.278 C1722.46,244.388 1723.12,245.048 1722.9,251.208 L1722.9,295.318 C1722.9,300.928 1722.9,301.148 1722.24,302.138 C1721.36,303.238 1719.27,303.678 1713.11,303.678 L1705.96,303.678 L1705.96,308.848 L1749.52,308.848 L1749.52,303.678 L1743.47,303.678 C1737.31,303.678 1735.22,303.238 1734.34,302.138 C1733.57,301.148 1733.57,301.038 1733.57,295.318 L1733.57,249.888 C1733.57,243.728 1733.79,238.558 1734.34,231.408 L1730.38,231.408 "/>
<path class="Text" d="M1806.93,245.598 L1794.06,245.598 C1791.31,239.988 1789.77,237.348 1786.14,232.068 L1780.31,234.598 C1783.39,238.778 1785.15,241.638 1787.13,245.598 L1774.7,245.598 C1769.64,245.598 1766.56,245.378 1763.59,244.938 L1763.59,252.088 C1766.67,251.648 1770.08,251.428 1774.7,251.428 L1800.44,251.428 C1790.65,260.668 1777.67,267.818 1761.17,272.878 C1763.48,275.518 1764.14,276.618 1765.13,279.038 C1770.74,276.838 1772.94,275.848 1777.67,273.538 C1777.67,275.188 1777.78,277.498 1777.78,279.698 L1777.78,307.088 C1777.78,310.828 1777.56,314.568 1777.12,317.318 L1784.27,317.318 L1784.27,311.378 L1837.95,311.378 L1837.95,317.318 L1845.1,317.318 C1844.66,314.568 1844.44,311.268 1844.44,306.978 L1844.44,279.588 C1844.44,276.838 1844.44,275.958 1844.55,273.428 C1848.62,275.298 1849.28,275.628 1858.3,279.148 C1859.4,276.398 1860.28,274.968 1862.15,272.548 C1844.33,267.708 1830.36,260.668 1819.91,251.428 L1846.97,251.428 C1851.7,251.428 1854.89,251.648 1858.08,252.088 L1858.08,244.938 C1854.89,245.488 1852.25,245.598 1846.97,245.598 L1833.77,245.598 C1837.51,240.208 1839.49,236.908 1842.24,231.518 L1835.53,228.988 C1832.89,235.588 1830.8,239.548 1826.73,245.598 L1813.53,245.598 L1813.53,228.988 C1822.55,227.998 1836.85,225.908 1844.88,224.258 C1845.98,224.038 1846.75,223.928 1847.19,223.818 L1849.28,223.488 L1844.33,217.218 C1831.02,221.728 1805.06,224.808 1779.76,224.808 C1777.45,224.808 1775.14,224.808 1770.74,224.698 C1772.17,226.788 1772.72,228.108 1773.71,231.078 C1784.82,230.968 1796.04,230.418 1806.93,229.648 L1806.93,245.598 M1786.36,270.898 C1784.82,270.898 1784.38,270.898 1782.95,270.898 C1794.06,264.738 1800.22,260.008 1807.37,252.088 C1807.04,254.398 1806.93,255.388 1806.93,256.378 L1806.93,260.228 C1806.93,263.198 1806.82,265.288 1806.49,267.708 L1813.86,267.708 C1813.64,265.948 1813.53,263.418 1813.53,260.228 L1813.53,256.268 C1813.53,255.718 1813.42,255.278 1813.31,253.738 C1813.2,252.968 1813.2,252.638 1813.09,251.978 C1821.67,260.558 1827.39,264.628 1839.27,270.898 C1837.62,270.898 1836.96,270.898 1835.53,270.898 L1786.36,270.898 M1784.27,276.618 L1807.04,276.618 L1807.04,287.838 L1784.27,287.838 L1784.27,276.618 M1784.27,293.448 L1807.04,293.448 L1807.04,305.548 L1784.27,305.548 L1784.27,293.448 M1813.42,276.618 L1837.95,276.618 L1837.95,287.838 L1813.42,287.838 L1813.42,276.618 M1813.53,293.448 L1837.84,293.448 L1837.84,305.548 L1813.53,305.548 L1813.53,293.448 "/>
<path class="MeasureNumber" d="M231.389,2709.12 L230.349,2710.96 C228.749,2713.72 228.429,2713.96 226.389,2714 L217.109,2714 C218.069,2712.72 219.829,2711.24 223.029,2709 C228.309,2705.36 228.669,2705.12 229.789,2704.24 C232.989,2701.76 234.309,2699.4 234.309,2696.24 C234.309,2692.04 231.189,2689.24 226.589,2689.24 C221.469,2689.24 217.029,2693 217.029,2697.36 C217.029,2699.6 218.229,2701.04 220.149,2701.04 C221.589,2701.04 222.709,2699.96 222.709,2698.48 C222.709,2697.44 222.189,2696.76 220.869,2696.04 C219.909,2695.56 219.749,2695.36 219.749,2694.88 C219.749,2693.16 222.709,2691.24 225.429,2691.24 C228.229,2691.24 230.109,2693.12 230.109,2695.92 C230.109,2698.92 228.789,2701.12 225.189,2704.24 C214.549,2713.48 212.949,2715.16 212.589,2717.4 L229.749,2717.4 L232.829,2709.68 L231.389,2709.12 M249.823,2702.84 C251.703,2702.24 252.463,2701.92 253.423,2701.28 C255.303,2700.04 256.463,2697.84 256.463,2695.6 C256.463,2691.8 253.423,2689.24 248.943,2689.24 C244.583,2689.24 240.903,2691.96 240.903,2695.24 C240.903,2696.88 241.903,2698 243.423,2698 C244.743,2698 245.703,2697.04 245.703,2695.72 C245.703,2695.04 245.503,2694.56 244.863,2693.92 C244.463,2693.56 244.303,2693.28 244.303,2693 C244.303,2692.04 246.303,2691.04 248.183,2691.04 C250.863,2691.04 252.463,2692.52 252.463,2695 C252.463,2698.56 249.943,2701.92 247.263,2701.92 C247.143,2701.92 246.783,2701.88 246.343,2701.84 C245.183,2701.76 245.183,2701.76 244.943,2701.76 C244.063,2701.76 243.583,2702.16 243.583,2702.88 C243.583,2703.52 244.023,2703.92 244.743,2703.92 C244.943,2703.92 245.223,2703.88 245.543,2703.84 C246.103,2703.72 246.703,2703.68 247.063,2703.68 C248.943,2703.68 250.223,2705.36 250.223,2707.84 C250.223,2712.16 248.103,2716.32 243.263,2716.32 C241.023,2716.32 239.103,2715.2 239.103,2713.92 C239.103,2713.48 239.263,2713.32 239.903,2713.04 C241.063,2712.52 241.543,2711.8 241.543,2710.72 C241.543,2709.32 240.423,2708.24 238.983,2708.24 C237.263,2708.24 236.143,2709.6 236.143,2711.68 C236.143,2715.56 239.103,2718 243.903,2718 C249.943,2718 254.543,2713.96 254.543,2708.6 C254.543,2705.48 252.623,2703.72 249.823,2702.84"/>
<path class="MeasureNumber" d="M228.958,1622.68 L227.798,1622.68 C225.598,1624.32 221.358,1625.72 218.478,1625.72 L217.998,1627.48 L220.758,1627.48 C223.198,1627.48 223.478,1627.56 223.478,1628.28 C223.478,1628.64 223.478,1628.64 223.078,1630.08 L218.798,1646.08 C218.278,1648.08 218.238,1648.2 217.878,1648.56 C217.478,1648.96 216.638,1649.08 214.518,1649.12 L212.798,1649.12 L212.598,1651 L227.398,1651 L227.638,1649.12 L225.478,1649.12 C222.878,1649.12 222.318,1648.92 222.318,1648.04 C222.318,1647.76 222.478,1646.84 222.678,1646.08 L228.958,1622.68 M246.433,1636.44 C248.313,1635.84 249.073,1635.52 250.033,1634.88 C251.913,1633.64 253.073,1631.44 253.073,1629.2 C253.073,1625.4 250.033,1622.84 245.553,1622.84 C241.193,1622.84 237.513,1625.56 237.513,1628.84 C237.513,1630.48 238.513,1631.6 240.033,1631.6 C241.353,1631.6 242.313,1630.64 242.313,1629.32 C242.313,1628.64 242.113,1628.16 241.473,1627.52 C241.073,1627.16 240.913,1626.88 240.913,1626.6 C240.913,1625.64 242.913,1624.64 244.793,1624.64 C247.473,1624.64 249.073,1626.12 249.073,1628.6 C249.073,1632.16 246.553,1635.52 243.873,1635.52 C243.753,1635.52 243.393,1635.48 242.953,1635.44 C241.793,1635.36 241.793,1635.36 241.553,1635.36 C240.673,1635.36 240.193,1635.76 240.193,1636.48 C240.193,1637.12 240.633,1637.52 241.353,1637.52 C241.553,1637.52 241.833,1637.48 242.153,1637.44 C242.713,1637.32 243.313,1637.28 243.673,1637.28 C245.553,1637.28 246.833,1638.96 246.833,1641.44 C246.833,1645.76 244.713,1649.92 239.873,1649.92 C237.633,1649.92 235.713,1648.8 235.713,1647.52 C235.713,1647.08 235.873,1646.92 236.513,1646.64 C237.673,1646.12 238.153,1645.4 238.153,1644.32 C238.153,1642.92 237.033,1641.84 235.593,1641.84 C233.873,1641.84 232.753,1643.2 232.753,1645.28 C232.753,1649.16 235.713,1651.6 240.513,1651.6 C246.553,1651.6 251.153,1647.56 251.153,1642.2 C251.153,1639.08 249.233,1637.32 246.433,1636.44"/>
<path class="MeasureNumber" d="M217.481,1104.4 C218.161,1100.88 218.961,1098.68 220.481,1096 C222.281,1092.84 224.441,1091.24 226.841,1091.24 C228.081,1091.24 228.841,1091.72 228.841,1092.48 C228.841,1092.76 228.761,1092.92 228.481,1093.44 C228.121,1094.12 227.961,1094.6 227.961,1095.2 C227.961,1096.48 228.921,1097.36 230.281,1097.36 C231.921,1097.36 233.041,1096.16 233.041,1094.36 C233.041,1091.64 230.481,1089.64 226.921,1089.64 C218.001,1089.64 212.601,1101.28 212.601,1108.96 C212.601,1114.84 215.521,1118.4 220.401,1118.4 C226.401,1118.4 230.841,1113.44 230.841,1107.56 C230.841,1103.48 228.081,1100.64 224.081,1100.64 C221.281,1100.64 219.121,1101.84 217.481,1104.4 M222.801,1102.96 C225.281,1102.96 226.641,1104.68 226.641,1107.8 C226.641,1112.88 223.961,1116.76 220.401,1116.76 C217.841,1116.76 216.321,1114.88 216.321,1111.68 C216.321,1106.68 219.081,1102.96 222.801,1102.96"/>
<path class="MeasureNumber" d="M228.958,2155.88 L227.798,2155.88 C225.598,2157.52 221.358,2158.92 218.478,2158.92 L217.998,2160.68 L220.758,2160.68 C223.198,2160.68 223.478,2160.76 223.478,2161.48 C223.478,2161.84 223.478,2161.84 223.078,2163.28 L218.798,2179.28 C218.278,2181.28 218.238,2181.4 217.878,2181.76 C217.478,2182.16 216.638,2182.28 214.518,2182.32 L212.798,2182.32 L212.598,2184.2 L227.398,2184.2 L227.638,2182.32 L225.478,2182.32 C222.878,2182.32 222.318,2182.12 222.318,2181.24 C222.318,2180.96 222.478,2180.04 222.678,2179.28 L228.958,2155.88 M247.873,2169.4 C250.993,2167.92 253.913,2166.28 253.913,2162.28 C253.913,2158.64 250.833,2156.04 246.553,2156.04 C241.393,2156.04 237.393,2159.76 237.393,2164.6 C237.393,2167.04 238.233,2168.6 240.393,2170.16 C235.673,2171.96 233.153,2174.88 233.153,2178.52 C233.153,2182.4 236.353,2184.8 241.473,2184.8 C247.633,2184.8 252.033,2181.04 252.033,2175.84 C252.033,2172.68 250.313,2171 247.873,2169.4 M246.153,2168.44 C242.073,2166.52 240.593,2164.96 240.593,2162.68 C240.593,2159.92 243.073,2157.76 246.233,2157.76 C248.993,2157.76 250.913,2159.52 250.913,2162.04 C250.913,2165.04 248.833,2167.4 246.153,2168.44 M241.913,2171.24 C243.833,2172.12 244.473,2172.44 245.473,2173.04 C247.473,2174.24 248.553,2175.84 248.553,2177.64 C248.553,2180.72 245.673,2183.04 241.913,2183.04 C238.513,2183.04 236.393,2181.12 236.393,2178.04 C236.393,2175.04 238.313,2172.68 241.913,2171.24"/>
<path class="TieSegment" stroke="#000000" stroke-width="1.24" stroke-linecap="round" stroke-linejoin="round" fill-rule="evenodd" d="M2013.65,1793.2 C2082.71,1823.41 2289.91,1823.41 2358.97,1793.2 C2289.91,1831.35 2082.71,1831.35 2013.65,1793.2"/>
<path class="TieSegment" stroke="#000000" stroke-width="1.24" stroke-linecap="round" stroke-linejoin="round" fill-rule="evenodd" d="M2013.65,2326.4 C2082.71,2356.61 2289.91,2356.61 2358.97,2326.4 C2289.91,2364.55 2082.71,2364.55 2013.65,2326.4"/>
<polyline class="BarLine" fill="none" stroke="#000000" stroke-width="4.46" stroke-linejoin="bevel" points="1222.84,2765.63 1222.84,2867.56"/>
<polyline class="BarLine" fill="none" stroke="#000000" stroke-width="4.46" stroke-linejoin="bevel" points="2762.37,632.834 2762.37,734.762"/>
<polyline class="BarLine" fill="none" stroke="#000000" stroke-width="4.46" stroke-linejoin="bevel" points="1584.09,2765.63 1584.09,2867.56"/>
<polyline class="BarLine" fill="none" stroke="#000000" stroke-width="4.46" stroke-linejoin="bevel" points="861.599,2765.63 861.599,2867.56"/>
<polyline class="BarLine" fill="none" stroke="#000000" stroke-width="4.46" stroke-linejoin="bevel" points="2762.37,2232.43 2762.37,2334.36"/>
<polyline class="BarLine" fill="none" stroke="#000000" stroke-width="4.46" stroke-linejoin="bevel" points="951.269,632.834 951.269,734.762"/>
<polyline class="BarLine" fill="none" stroke="#000000" stroke-width="4.46" stroke-linejoin="bevel" points="2312.99,2232.43 2312.99,2334.36"/>
<polyline class="BarLine" fill="none" stroke="#000000" stroke-width="4.46" stroke-linejoin="bevel" points="1962.71,2232.43 1962.71,2334.36"/>
<polyline class="BarLine" fill="none" stroke="#000000" stroke-width="4.46" stroke-linejoin="bevel" points="1430.55,2232.43 1430.55,2334.36"/>
<polyline class="BarLine" fill="none" stroke="#000000" stroke-width="4.46" stroke-linejoin="bevel" points="898.392,2232.43 898.392,2334.36"/>
<polyline class="BarLine" fill="none" stroke="#000000" stroke-width="4.46" stroke-linejoin="bevel" points="1945.33,2765.63 1945.33,2867.56"/>
<polyline class="BarLine" fill="none" stroke="#000000" stroke-width="4.46" stroke-linejoin="bevel" points="2270.18,2765.63 2270.18,2867.56"/>
<polyline class="BarLine" fill="none" stroke="#000000" stroke-width="4.46" stroke-linejoin="bevel" points="2762.37,1699.23 2762.37,1801.16"/>
<polyline class="BarLine" fill="none" stroke="#000000" stroke-width="4.46" stroke-linejoin="bevel" points="1497.57,632.834 1497.57,734.762"/>
<polyline class="BarLine" fill="none" stroke="#000000" stroke-width="4.46" stroke-linejoin="bevel" points="2312.99,1699.23 2312.99,1801.16"/>
<polyline class="BarLine" fill="none" stroke="#000000" stroke-width="4.46" stroke-linejoin="bevel" points="2520.41,2765.63 2520.41,2867.56"/>
<polyline class="BarLine" fill="none" stroke="#000000" stroke-width="4.46" stroke-linejoin="bevel" points="2762.37,2765.63 2762.37,2867.56"/>
<polyline class="BarLine" fill="none" stroke="#000000" stroke-width="4.46" stroke-linejoin="bevel" points="1430.55,1699.23 1430.55,1801.16"/>
<polyline class="BarLine" fill="none" stroke="#000000" stroke-width="4.46" stroke-linejoin="bevel" points="898.392,1699.23 898.392,1801.16"/>
<polyline class="BarLine" fill="none" stroke="#000000" stroke-width="4.46" stroke-linejoin="bevel" points="1962.71,1699.23 1962.71,1801.16"/>
<polyline class="BarLine" fill="none" stroke="#000000" stroke-width="4.46" stroke-linejoin="bevel" points="2762.37,1166.03 2762.37,1267.96"/>
<polyline class="BarLine" fill="none" stroke="#000000" stroke-width="4.46" stroke-linejoin="bevel" points="2043.87,632.834 2043.87,734.762"/>
<polyline class="BarLine" fill="none" stroke="#000000" stroke-width="4.46" stroke-linejoin="bevel" points="2480.96,1166.03 2480.96,1267.96"/>
<polyline class="BarLine" fill="none" stroke="#000000" stroke-width="4.46" stroke-linejoin="bevel" points="2199.55,1166.03 2199.55,1267.96"/>
<polyline class="BarLine" fill="none" stroke="#000000" stroke-width="4.46" stroke-linejoin="bevel" points="1918.13,1166.03 1918.13,1267.96"/>
<polyline class="BarLine" fill="none" stroke="#000000" stroke-width="4.46" stroke-linejoin="bevel" points="1636.72,1166.03 1636.72,1267.96"/>
<polyline class="BarLine" fill="none" stroke="#000000" stroke-width="4.46" stroke-linejoin="bevel" points="2403.12,632.834 2403.12,734.762"/>
<polyline class="BarLine" fill="none" stroke="#000000" stroke-width="4.46" stroke-linejoin="bevel" points="1213.23,1166.03 1213.23,1267.96"/>
<polyline class="BarLine" fill="none" stroke="#000000" stroke-width="4.46" stroke-linejoin="bevel" points="789.73,1166.03 789.73,1267.96"/>
<polyline class="BarLine" fill="none" stroke="#000000" stroke-width="4.46" stroke-linejoin="bevel" points="608.19,2765.63 608.19,2867.56"/>
<path class="Accidental" transform="matrix(0.992,0,0,0.992,1606.19,1787.4)" d="M16.6,-18.3 C16.4,-18.5 16.1,-18.6 15.7,-18.6 L15.5,-18.5 C15.5,-18.5 15.4,-18.5 15.4,-18.5 L2.8,-15 L2.8,-32.5 L0,-32.5 L0,17 C0,18.1 0.9,18.3 1.8,18.3 L14.4,14.8 L14.4,32.3 L17.1,32.3 C17.1,15.7 17.1,-0.1 17.1,-17.2 C17.1,-17.6 16.9,-18.1 16.6,-18.3 M2.8,9.7 L2.8,-6.7 L14.4,-10 L14.4,6.5 L2.8,9.7 "/>
<path class="Accidental" transform="matrix(0.992,0,0,0.992,1811.35,2853.8)" d="M16.6,-18.3 C16.4,-18.5 16.1,-18.6 15.7,-18.6 L15.5,-18.5 C15.5,-18.5 15.4,-18.5 15.4,-18.5 L2.8,-15 L2.8,-32.5 L0,-32.5 L0,17 C0,18.1 0.9,18.3 1.8,18.3 L14.4,14.8 L14.4,32.3 L17.1,32.3 C17.1,15.7 17.1,-0.1 17.1,-17.2 C17.1,-17.6 16.9,-18.1 16.6,-18.3 M2.8,9.7 L2.8,-6.7 L14.4,-10 L14.4,6.5 L2.8,9.7 "/>
<path class="Accidental" transform="matrix(0.992,0,0,0.992,707.439,1787.4)" d="M16.6,-18.3 C16.4,-18.5 16.1,-18.6 15.7,-18.6 L15.5,-18.5 C15.5,-18.5 15.4,-18.5 15.4,-18.5 L2.8,-15 L2.8,-32.5 L0,-32.5 L0,17 C0,18.1 0.9,18.3 1.8,18.3 L14.4,14.8 L14.4,32.3 L17.1,32.3 C17.1,15.7 17.1,-0.1 17.1,-17.2 C17.1,-17.6 16.9,-18.1 16.6,-18.3 M2.8,9.7 L2.8,-6.7 L14.4,-10 L14.4,6.5 L2.8,9.7 "/>
<path class="Accidental" transform="matrix(0.992,0,0,0.992,626.542,2816.6)" d="M12,-15.5 C7,-15.5 4.1,-12.4 3.6,-11.8 L4,-43.9 C4,-44.7 3.4,-45.3 2.6,-45.3 L1.4,-45.3 C0.6,-45.3 0,-44.7 0,-43.9 L0.5,16.2 C0.5,17 1.1,17.6 1.9,17.6 C2.1,17.6 2.5,17.5 2.7,17.4 C11.3,13.1 20.3,4.9 20.3,-5.4 C20.3,-10.6 17.9,-15.5 12,-15.5 M3.3,12.7 L3.6,-6.8 C3.8,-7.7 5.3,-10.6 9.3,-10.6 C12.9,-10.6 13.2,-7.2 13.2,-5.1 C13.2,3.8 9.9,7.5 3.3,12.7"/>
<path class="Accidental" transform="matrix(0.992,0,0,0.992,1963.68,2903.4)" d="M12,-15.5 C7,-15.5 4.1,-12.4 3.6,-11.8 L4,-43.9 C4,-44.7 3.4,-45.3 2.6,-45.3 L1.4,-45.3 C0.6,-45.3 0,-44.7 0,-43.9 L0.5,16.2 C0.5,17 1.1,17.6 1.9,17.6 C2.1,17.6 2.5,17.5 2.7,17.4 C11.3,13.1 20.3,4.9 20.3,-5.4 C20.3,-10.6 17.9,-15.5 12,-15.5 M3.3,12.7 L3.6,-6.8 C3.8,-7.7 5.3,-10.6 9.3,-10.6 C12.9,-10.6 13.2,-7.2 13.2,-5.1 C13.2,3.8 9.9,7.5 3.3,12.7"/>
<path class="Accidental" transform="matrix(0.992,0,0,0.992,1450.11,2853.8)" d="M16.6,-18.3 C16.4,-18.5 16.1,-18.6 15.7,-18.6 L15.5,-18.5 C15.5,-18.5 15.4,-18.5 15.4,-18.5 L2.8,-15 L2.8,-32.5 L0,-32.5 L0,17 C0,18.1 0.9,18.3 1.8,18.3 L14.4,14.8 L14.4,32.3 L17.1,32.3 C17.1,15.7 17.1,-0.1 17.1,-17.2 C17.1,-17.6 16.9,-18.1 16.6,-18.3 M2.8,9.7 L2.8,-6.7 L14.4,-10 L14.4,6.5 L2.8,9.7 "/>
<path class="Accidental" transform="matrix(0.992,0,0,0.992,1771.75,2320.6)" d="M16.6,-18.3 C16.4,-18.5 16.1,-18.6 15.7,-18.6 L15.5,-18.5 C15.5,-18.5 15.4,-18.5 15.4,-18.5 L2.8,-15 L2.8,-32.5 L0,-32.5 L0,17 C0,18.1 0.9,18.3 1.8,18.3 L14.4,14.8 L14.4,32.3 L17.1,32.3 C17.1,15.7 17.1,-0.1 17.1,-17.2 C17.1,-17.6 16.9,-18.1 16.6,-18.3 M2.8,9.7 L2.8,-6.7 L14.4,-10 L14.4,6.5 L2.8,9.7 "/>
<path class="Accidental" transform="matrix(0.992,0,0,0.992,2288.53,2853.8)" d="M16.6,-18.3 C16.4,-18.5 16.1,-18.6 15.7,-18.6 L15.5,-18.5 C15.5,-18.5 15.4,-18.5 15.4,-18.5 L2.8,-15 L2.8,-32.5 L0,-32.5 L0,17 C0,18.1 0.9,18.3 1.8,18.3 L14.4,14.8 L14.4,32.3 L17.1,32.3 C17.1,15.7 17.1,-0.1 17.1,-17.2 C17.1,-17.6 16.9,-18.1 16.6,-18.3 M2.8,9.7 L2.8,-6.7 L14.4,-10 L14.4,6.5 L2.8,9.7 "/>
<path class="Accidental" transform="matrix(0.992,0,0,0.992,1074.03,2320.6)" d="M16.6,-18.3 C16.4,-18.5 16.1,-18.6 15.7,-18.6 L15.5,-18.5 C15.5,-18.5 15.4,-18.5 15.4,-18.5 L2.8,-15 L2.8,-32.5 L0,-32.5 L0,17 C0,18.1 0.9,18.3 1.8,18.3 L14.4,14.8 L14.4,32.3 L17.1,32.3 C17.1,15.7 17.1,-0.1 17.1,-17.2 C17.1,-17.6 16.9,-18.1 16.6,-18.3 M2.8,9.7 L2.8,-6.7 L14.4,-10 L14.4,6.5 L2.8,9.7 "/>
<path class="Accidental" transform="matrix(0.992,0,0,0.992,980.268,2853.8)" d="M16.6,-18.3 C16.4,-18.5 16.1,-18.6 15.7,-18.6 L15.5,-18.5 C15.5,-18.5 15.4,-18.5 15.4,-18.5 L2.8,-15 L2.8,-32.5 L0,-32.5 L0,17 C0,18.1 0.9,18.3 1.8,18.3 L14.4,14.8 L14.4,32.3 L17.1,32.3 C17.1,15.7 17.1,-0.1 17.1,-17.2 C17.1,-17.6 16.9,-18.1 16.6,-18.3 M2.8,9.7 L2.8,-6.7 L14.4,-10 L14.4,6.5 L2.8,9.7 "/>
<path class="Accidental" transform="matrix(0.992,0,0,0.992,1085.68,2816.6)" d="M12,-15.5 C7,-15.5 4.1,-12.4 3.6,-11.8 L4,-43.9 C4,-44.7 3.4,-45.3 2.6,-45.3 L1.4,-45.3 C0.6,-45.3 0,-44.7 0,-43.9 L0.5,16.2 C0.5,17 1.1,17.6 1.9,17.6 C2.1,17.6 2.5,17.5 2.7,17.4 C11.3,13.1 20.3,4.9 20.3,-5.4 C20.3,-10.6 17.9,-15.5 12,-15.5 M3.3,12.7 L3.6,-6.8 C3.8,-7.7 5.3,-10.6 9.3,-10.6 C12.9,-10.6 13.2,-7.2 13.2,-5.1 C13.2,3.8 9.9,7.5 3.3,12.7"/>
<path class="Accidental" transform="matrix(0.992,0,0,0.992,538.697,2283.4)" d="M12,-15.5 C7,-15.5 4.1,-12.4 3.6,-11.8 L4,-43.9 C4,-44.7 3.4,-45.3 2.6,-45.3 L1.4,-45.3 C0.6,-45.3 0,-44.7 0,-43.9 L0.5,16.2 C0.5,17 1.1,17.6 1.9,17.6 C2.1,17.6 2.5,17.5 2.7,17.4 C11.3,13.1 20.3,4.9 20.3,-5.4 C20.3,-10.6 17.9,-15.5 12,-15.5 M3.3,12.7 L3.6,-6.8 C3.8,-7.7 5.3,-10.6 9.3,-10.6 C12.9,-10.6 13.2,-7.2 13.2,-5.1 C13.2,3.8 9.9,7.5 3.3,12.7"/>
<polyline class="LedgerLine" fill="none" stroke="#000000" stroke-width="3.97" stroke-linejoin="bevel" points="1988.28,2891 2036.88,2891"/>
<polyline class="LedgerLine" fill="none" stroke="#000000" stroke-width="3.97" stroke-linejoin="bevel" points="2151.17,2891 2199.77,2891"/>
<polyline class="LedgerLine" fill="none" stroke="#000000" stroke-width="3.97" stroke-linejoin="bevel" points="2506.01,1316.2 2554.6,1316.2"/>
<polyline class="LedgerLine" fill="none" stroke="#000000" stroke-width="3.97" stroke-linejoin="bevel" points="2428.17,758.198 2476.76,758.198"/>
<polyline class="LedgerLine" fill="none" stroke="#000000" stroke-width="3.97" stroke-linejoin="bevel" points="2506.01,1291.4 2554.6,1291.4"/>
<polyline class="Stem" fill="none" stroke="#000000" stroke-width="2.48" stroke-linejoin="bevel" points="1902.34,704.63 1902.34,621.798"/>
<polyline class="Stem" fill="none" stroke="#000000" stroke-width="2.48" stroke-linejoin="bevel" points="932.864,2262.76 932.864,2345.4"/>
<polyline class="Stem" fill="none" stroke="#000000" stroke-width="2.48" stroke-linejoin="bevel" points="1287.06,2825.03 1287.06,2748.4"/>
<polyline class="Stem" fill="none" stroke="#000000" stroke-width="2.48" stroke-linejoin="bevel" points="1395.65,2837.43 1395.65,2754.6"/>
<polyline class="Stem" fill="none" stroke="#000000" stroke-width="2.48" stroke-linejoin="bevel" points="1113.26,2820.76 1113.26,2891"/>
<polyline class="Stem" fill="none" stroke="#000000" stroke-width="2.48" stroke-linejoin="bevel" points="2234.02,1221.16 2234.02,1291.4"/>
<polyline class="Stem" fill="none" stroke="#000000" stroke-width="2.48" stroke-linejoin="bevel" points="2108.09,741.83 2108.09,658.998"/>
<polyline class="Stem" fill="none" stroke="#000000" stroke-width="2.48" stroke-linejoin="bevel" points="1504.25,2849.83 1504.25,2767"/>
<polyline class="Stem" fill="none" stroke="#000000" stroke-width="2.48" stroke-linejoin="bevel" points="1034.41,2849.83 1034.41,2767"/>
<polyline class="Stem" fill="none" stroke="#000000" stroke-width="2.48" stroke-linejoin="bevel" points="925.816,2862.23 925.816,2779.4"/>
<polyline class="Stem" fill="none" stroke="#000000" stroke-width="2.48" stroke-linejoin="bevel" points="430.451,1808.23 430.451,1725.4"/>
<polyline class="Stem" fill="none" stroke="#000000" stroke-width="2.48" stroke-linejoin="bevel" points="1982.35,1250.23 1982.35,1167.4"/>
<polyline class="Stem" fill="none" stroke="#000000" stroke-width="2.48" stroke-linejoin="bevel" points="596.016,1795.83 596.016,1713"/>
<polyline class="Stem" fill="none" stroke="#000000" stroke-width="2.48" stroke-linejoin="bevel" points="1648.3,2825.03 1648.3,2748.4"/>
<polyline class="Stem" fill="none" stroke="#000000" stroke-width="2.48" stroke-linejoin="bevel" points="761.58,1783.43 761.58,1700.6"/>
<polyline class="Stem" fill="none" stroke="#000000" stroke-width="2.48" stroke-linejoin="bevel" points="654.116,2820.76 654.116,2891"/>
<polyline class="Stem" fill="none" stroke="#000000" stroke-width="2.48" stroke-linejoin="bevel" points="1756.9,2837.43 1756.9,2754.6"/>
<polyline class="Stem" fill="none" stroke="#000000" stroke-width="2.48" stroke-linejoin="bevel" points="1700.94,1275.03 1700.94,1192.2"/>
<polyline class="Stem" fill="none" stroke="#000000" stroke-width="2.48" stroke-linejoin="bevel" points="1865.49,2849.83 1865.49,2767"/>
<polyline class="Stem" fill="none" stroke="#000000" stroke-width="2.48" stroke-linejoin="bevel" points="962.609,1758.63 962.609,1682"/>
<polyline class="Stem" fill="none" stroke="#000000" stroke-width="2.48" stroke-linejoin="bevel" points="609.72,687.965 609.72,758.198"/>
<polyline class="Stem" fill="none" stroke="#000000" stroke-width="2.48" stroke-linejoin="bevel" points="1128.17,1771.03 1128.17,1688.2"/>
<polyline class="Stem" fill="none" stroke="#000000" stroke-width="2.48" stroke-linejoin="bevel" points="400.706,2808.36 400.706,2884.8"/>
<polyline class="Stem" fill="none" stroke="#000000" stroke-width="2.48" stroke-linejoin="bevel" points="1293.74,1795.83 1293.74,1713"/>
<polyline class="Stem" fill="none" stroke="#000000" stroke-width="2.48" stroke-linejoin="bevel" points="1536.13,1237.83 1536.13,1155"/>
<polyline class="Stem" fill="none" stroke="#000000" stroke-width="2.48" stroke-linejoin="bevel" points="1732.06,717.03 1732.06,634.198"/>
<polyline class="Stem" fill="none" stroke="#000000" stroke-width="2.48" stroke-linejoin="bevel" points="1406.79,1250.23 1406.79,1167.4"/>
<polyline class="Stem" fill="none" stroke="#000000" stroke-width="2.48" stroke-linejoin="bevel" points="1494.77,1771.03 1494.77,1688.2"/>
<polyline class="Stem" fill="none" stroke="#000000" stroke-width="2.48" stroke-linejoin="bevel" points="779.998,663.165 779.998,745.798"/>
<polyline class="Stem" fill="none" stroke="#000000" stroke-width="2.48" stroke-linejoin="bevel" points="1660.33,1783.43 1660.33,1700.6"/>
<polyline class="Stem" fill="none" stroke="#000000" stroke-width="2.48" stroke-linejoin="bevel" points="2625.56,2304.23 2625.56,2221.4"/>
<polyline class="Stem" fill="none" stroke="#000000" stroke-width="2.48" stroke-linejoin="bevel" points="2027.45,2899.43 2027.45,2816.6"/>
<polyline class="Stem" fill="none" stroke="#000000" stroke-width="2.48" stroke-linejoin="bevel" points="1825.9,1795.83 1825.9,1713"/>
<polyline class="Stem" fill="none" stroke="#000000" stroke-width="2.48" stroke-linejoin="bevel" points="2377.21,2304.23 2377.21,2221.4"/>
<polyline class="Stem" fill="none" stroke="#000000" stroke-width="2.48" stroke-linejoin="bevel" points="1277.44,1262.63 1277.44,1179.8"/>
<polyline class="Stem" fill="none" stroke="#000000" stroke-width="2.48" stroke-linejoin="bevel" points="1561.79,729.43 1561.79,646.598"/>
<polyline class="Stem" fill="none" stroke="#000000" stroke-width="2.48" stroke-linejoin="bevel" points="2026.92,1771.03 2026.92,1688.2"/>
<polyline class="Stem" fill="none" stroke="#000000" stroke-width="2.48" stroke-linejoin="bevel" points="1112.63,1250.23 1112.63,1167.4"/>
<polyline class="Stem" fill="none" stroke="#000000" stroke-width="2.48" stroke-linejoin="bevel" points="2026.92,2304.23 2026.92,2221.4"/>
<polyline class="Stem" fill="none" stroke="#000000" stroke-width="2.48" stroke-linejoin="bevel" points="2190.34,2887.03 2190.34,2804.2"/>
<polyline class="Stem" fill="none" stroke="#000000" stroke-width="2.48" stroke-linejoin="bevel" points="953.546,1221.16 953.546,1291.4"/>
<polyline class="Stem" fill="none" stroke="#000000" stroke-width="2.48" stroke-linejoin="bevel" points="824.202,1208.76 824.202,1285.2"/>
<polyline class="Stem" fill="none" stroke="#000000" stroke-width="2.48" stroke-linejoin="bevel" points="2377.21,1771.03 2377.21,1688.2"/>
<polyline class="Stem" fill="none" stroke="#000000" stroke-width="2.48" stroke-linejoin="bevel" points="985.741,675.565 985.741,751.998"/>
<polyline class="Stem" fill="none" stroke="#000000" stroke-width="2.48" stroke-linejoin="bevel" points="2625.56,1771.03 2625.56,1688.2"/>
<polyline class="Stem" fill="none" stroke="#000000" stroke-width="2.48" stroke-linejoin="bevel" points="659.394,1196.36 659.394,1279"/>
<polyline class="Stem" fill="none" stroke="#000000" stroke-width="2.48" stroke-linejoin="bevel" points="1825.9,2316.63 1825.9,2233.8"/>
<polyline class="Stem" fill="none" stroke="#000000" stroke-width="2.48" stroke-linejoin="bevel" points="1356.04,717.03 1356.04,634.198"/>
<polyline class="Stem" fill="none" stroke="#000000" stroke-width="2.48" stroke-linejoin="bevel" points="2342.68,2849.83 2342.68,2767"/>
<polyline class="Stem" fill="none" stroke="#000000" stroke-width="2.48" stroke-linejoin="bevel" points="1660.33,2304.23 1660.33,2221.4"/>
<polyline class="Stem" fill="none" stroke="#000000" stroke-width="2.48" stroke-linejoin="bevel" points="1494.77,2291.83 1494.77,2215.2"/>
<polyline class="Stem" fill="none" stroke="#000000" stroke-width="2.48" stroke-linejoin="bevel" points="530.05,1221.16 530.05,1291.4"/>
<polyline class="Stem" fill="none" stroke="#000000" stroke-width="2.48" stroke-linejoin="bevel" points="430.451,2291.83 430.451,2215.2"/>
<polyline class="Stem" fill="none" stroke="#000000" stroke-width="2.48" stroke-linejoin="bevel" points="1293.74,2304.23 1293.74,2221.4"/>
<polyline class="Stem" fill="none" stroke="#000000" stroke-width="2.48" stroke-linejoin="bevel" points="566.271,2287.56 566.271,2357.8"/>
<polyline class="Stem" fill="none" stroke="#000000" stroke-width="2.48" stroke-linejoin="bevel" points="2467.34,766.63 2467.34,683.798"/>
<polyline class="Stem" fill="none" stroke="#000000" stroke-width="2.48" stroke-linejoin="bevel" points="2584.63,2837.43 2584.63,2754.6"/>
<polyline class="Stem" fill="none" stroke="#000000" stroke-width="2.48" stroke-linejoin="bevel" points="731.836,2275.16 731.836,2351.6"/>
<polyline class="Stem" fill="none" stroke="#000000" stroke-width="2.48" stroke-linejoin="bevel" points="1128.17,2316.63 1128.17,2233.8"/>
<polyline class="Stem" fill="none" stroke="#000000" stroke-width="2.48" stroke-linejoin="bevel" points="1156.02,687.965 1156.02,758.198"/>
<polyline class="Stem" fill="none" stroke="#000000" stroke-width="2.48" stroke-linejoin="bevel" points="2545.17,1312.23 2545.17,1217"/>
<path class="Note" transform="matrix(0.992,0,0,0.992,565.031,2283.4)" d="M0,4.2 C0,8.5 3.1,13.3 11.2,13.3 C21.6,13.3 32.5,4.8 32.5,-4 C32.5,-9.9 27.5,-13.2 21.3,-13.2 C11.6,-13.2 0,-5 0,4.2"/>
<path class="Note" transform="matrix(0.992,0,0,0.992,1473.26,2853.8)" d="M0,4.2 C0,8.5 3.1,13.3 11.2,13.3 C21.6,13.3 32.5,4.8 32.5,-4 C32.5,-9.9 27.5,-13.2 21.3,-13.2 C11.6,-13.2 0,-5 0,4.2"/>
<path class="Note" transform="matrix(0.992,0,0,0.992,730.596,2271)" d="M0,4.2 C0,8.5 3.1,13.3 11.2,13.3 C21.6,13.3 32.5,4.8 32.5,-4 C32.5,-9.9 27.5,-13.2 21.3,-13.2 C11.6,-13.2 0,-5 0,4.2"/>
<path class="Note" transform="matrix(0.992,0,0,0.992,1097.19,2320.6)" d="M0,4.2 C0,8.5 3.1,13.3 11.2,13.3 C21.6,13.3 32.5,4.8 32.5,-4 C32.5,-9.9 27.5,-13.2 21.3,-13.2 C11.6,-13.2 0,-5 0,4.2"/>
<path class="Note" transform="matrix(0.992,0,0,0.992,2553.65,2841.4)" d="M21.3,-13.2 C11.6,-13.2 0,-5.1 0,4.2 C0,8.5 3.1,13.3 11.2,13.3 C21.6,13.3 32.5,4.8 32.5,-4 C32.5,-9.9 27.5,-13.2 21.3,-13.2 M7.5,8.6 C4.2,8.6 3.5,5.9 3.5,5 C3.5,0.1 20.3,-8.5 25,-8.5 C27.4,-8.5 29,-7.1 29,-4.9 C29,0.1 12.1,8.6 7.5,8.6"/>
<path class="Note" transform="matrix(0.992,0,0,0.992,2436.35,770.598)" d="M21.3,-13.2 C11.6,-13.2 0,-5.1 0,4.2 C0,8.5 3.1,13.3 11.2,13.3 C21.6,13.3 32.5,4.8 32.5,-4 C32.5,-9.9 27.5,-13.2 21.3,-13.2 M7.5,8.6 C4.2,8.6 3.5,5.9 3.5,5 C3.5,0.1 20.3,-8.5 25,-8.5 C27.4,-8.5 29,-7.1 29,-4.9 C29,0.1 12.1,8.6 7.5,8.6"/>
<path class="Note" transform="matrix(0.992,0,0,0.992,1262.75,2308.2)" d="M0,4.2 C0,8.5 3.1,13.3 11.2,13.3 C21.6,13.3 32.5,4.8 32.5,-4 C32.5,-9.9 27.5,-13.2 21.3,-13.2 C11.6,-13.2 0,-5 0,4.2"/>
<path class="Note" transform="matrix(0.992,0,0,0.992,984.501,671.398)" d="M0,4.2 C0,8.5 3.1,13.3 11.2,13.3 C21.6,13.3 32.5,4.8 32.5,-4 C32.5,-9.9 27.5,-13.2 21.3,-13.2 C11.6,-13.2 0,-5 0,4.2"/>
<path class="Note" transform="matrix(0.992,0,0,0.992,399.466,2295.8)" d="M0,4.2 C0,8.5 3.1,13.3 11.2,13.3 C21.6,13.3 32.5,4.8 32.5,-4 C32.5,-9.9 27.5,-13.2 21.3,-13.2 C11.6,-13.2 0,-5 0,4.2"/>
<path class="Note" transform="matrix(0.992,0,0,0.992,2311.69,2853.8)" d="M21.3,-13.2 C11.6,-13.2 0,-5.1 0,4.2 C0,8.5 3.1,13.3 11.2,13.3 C21.6,13.3 32.5,4.8 32.5,-4 C32.5,-9.9 27.5,-13.2 21.3,-13.2 M7.5,8.6 C4.2,8.6 3.5,5.9 3.5,5 C3.5,0.1 20.3,-8.5 25,-8.5 C27.4,-8.5 29,-7.1 29,-4.9 C29,0.1 12.1,8.6 7.5,8.6"/>
<path class="Note" transform="matrix(0.992,0,0,0.992,1463.78,2295.8)" d="M0,4.2 C0,8.5 3.1,13.3 11.2,13.3 C21.6,13.3 32.5,4.8 32.5,-4 C32.5,-9.9 27.5,-13.2 21.3,-13.2 C11.6,-13.2 0,-5 0,4.2"/>
<path class="Note" transform="matrix(0.992,0,0,0.992,1154.78,683.798)" d="M0,4.2 C0,8.5 3.1,13.3 11.2,13.3 C21.6,13.3 32.5,4.8 32.5,-4 C32.5,-9.9 27.5,-13.2 21.3,-13.2 C11.6,-13.2 0,-5 0,4.2"/>
<path class="Note" transform="matrix(0.992,0,0,0.992,1629.35,2308.2)" d="M0,4.2 C0,8.5 3.1,13.3 11.2,13.3 C21.6,13.3 32.5,4.8 32.5,-4 C32.5,-9.9 27.5,-13.2 21.3,-13.2 C11.6,-13.2 0,-5 0,4.2"/>
<path class="Note" transform="matrix(0.992,0,0,0.992,1325.06,720.998)" d="M0,4.2 C0,8.5 3.1,13.3 11.2,13.3 C21.6,13.3 32.5,4.8 32.5,-4 C32.5,-9.9 27.5,-13.2 21.3,-13.2 C11.6,-13.2 0,-5 0,4.2"/>
<path class="Note" transform="matrix(0.992,0,0,0.992,1794.91,2320.6)" d="M0,4.2 C0,8.5 3.1,13.3 11.2,13.3 C21.6,13.3 32.5,4.8 32.5,-4 C32.5,-9.9 27.5,-13.2 21.3,-13.2 C11.6,-13.2 0,-5 0,4.2"/>
<path class="Note" transform="matrix(0.992,0,0,0.992,2594.57,1775)" d="M0,4.2 C0,8.5 3.1,13.3 11.2,13.3 C21.6,13.3 32.5,4.8 32.5,-4 C32.5,-9.9 27.5,-13.2 21.3,-13.2 C11.6,-13.2 0,-5 0,4.2"/>
<path class="Note" transform="matrix(0.992,0,0,0.992,2346.23,1775)" d="M21.3,-13.2 C11.6,-13.2 0,-5.1 0,4.2 C0,8.5 3.1,13.3 11.2,13.3 C21.6,13.3 32.5,4.8 32.5,-4 C32.5,-9.9 27.5,-13.2 21.3,-13.2 M7.5,8.6 C4.2,8.6 3.5,5.9 3.5,5 C3.5,0.1 20.3,-8.5 25,-8.5 C27.4,-8.5 29,-7.1 29,-4.9 C29,0.1 12.1,8.6 7.5,8.6"/>
<path class="Note" transform="matrix(0.992,0,0,0.992,528.81,1217)" d="M0,4.2 C0,8.5 3.1,13.3 11.2,13.3 C21.6,13.3 32.5,4.8 32.5,-4 C32.5,-9.9 27.5,-13.2 21.3,-13.2 C11.6,-13.2 0,-5 0,4.2"/>
<path class="Note" transform="matrix(0.992,0,0,0.992,658.154,1192.2)" d="M0,4.2 C0,8.5 3.1,13.3 11.2,13.3 C21.6,13.3 32.5,4.8 32.5,-4 C32.5,-9.9 27.5,-13.2 21.3,-13.2 C11.6,-13.2 0,-5 0,4.2"/>
<path class="Note" transform="matrix(0.992,0,0,0.992,1995.94,2308.2)" d="M21.3,-13.2 C11.6,-13.2 0,-5.1 0,4.2 C0,8.5 3.1,13.3 11.2,13.3 C21.6,13.3 32.5,4.8 32.5,-4 C32.5,-9.9 27.5,-13.2 21.3,-13.2 M7.5,8.6 C4.2,8.6 3.5,5.9 3.5,5 C3.5,0.1 20.3,-8.5 25,-8.5 C27.4,-8.5 29,-7.1 29,-4.9 C29,0.1 12.1,8.6 7.5,8.6"/>
<path class="Note" transform="matrix(0.992,0,0,0.992,2159.36,2891)" d="M0,4.2 C0,8.5 3.1,13.3 11.2,13.3 C21.6,13.3 32.5,4.8 32.5,-4 C32.5,-9.9 27.5,-13.2 21.3,-13.2 C11.6,-13.2 0,-5 0,4.2"/>
<path class="Note" transform="matrix(0.992,0,0,0.992,1995.94,1775)" d="M21.3,-13.2 C11.6,-13.2 0,-5.1 0,4.2 C0,8.5 3.1,13.3 11.2,13.3 C21.6,13.3 32.5,4.8 32.5,-4 C32.5,-9.9 27.5,-13.2 21.3,-13.2 M7.5,8.6 C4.2,8.6 3.5,5.9 3.5,5 C3.5,0.1 20.3,-8.5 25,-8.5 C27.4,-8.5 29,-7.1 29,-4.9 C29,0.1 12.1,8.6 7.5,8.6"/>
<path class="Note" transform="matrix(0.992,0,0,0.992,822.962,1204.6)" d="M0,4.2 C0,8.5 3.1,13.3 11.2,13.3 C21.6,13.3 32.5,4.8 32.5,-4 C32.5,-9.9 27.5,-13.2 21.3,-13.2 C11.6,-13.2 0,-5 0,4.2"/>
<path class="Note" transform="matrix(0.992,0,0,0.992,1530.8,733.398)" d="M0,4.2 C0,8.5 3.1,13.3 11.2,13.3 C21.6,13.3 32.5,4.8 32.5,-4 C32.5,-9.9 27.5,-13.2 21.3,-13.2 C11.6,-13.2 0,-5 0,4.2"/>
<path class="Note" transform="matrix(0.992,0,0,0.992,1794.91,1799.8)" d="M0,4.2 C0,8.5 3.1,13.3 11.2,13.3 C21.6,13.3 32.5,4.8 32.5,-4 C32.5,-9.9 27.5,-13.2 21.3,-13.2 C11.6,-13.2 0,-5 0,4.2"/>
<path class="Note" transform="matrix(0.992,0,0,0.992,2346.23,2308.2)" d="M21.3,-13.2 C11.6,-13.2 0,-5.1 0,4.2 C0,8.5 3.1,13.3 11.2,13.3 C21.6,13.3 32.5,4.8 32.5,-4 C32.5,-9.9 27.5,-13.2 21.3,-13.2 M7.5,8.6 C4.2,8.6 3.5,5.9 3.5,5 C3.5,0.1 20.3,-8.5 25,-8.5 C27.4,-8.5 29,-7.1 29,-4.9 C29,0.1 12.1,8.6 7.5,8.6"/>
<path class="Note" transform="matrix(0.992,0,0,0.992,1629.35,1787.4)" d="M0,4.2 C0,8.5 3.1,13.3 11.2,13.3 C21.6,13.3 32.5,4.8 32.5,-4 C32.5,-9.9 27.5,-13.2 21.3,-13.2 C11.6,-13.2 0,-5 0,4.2"/>
<path class="Note" transform="matrix(0.992,0,0,0.992,2594.57,2308.2)" d="M0,4.2 C0,8.5 3.1,13.3 11.2,13.3 C21.6,13.3 32.5,4.8 32.5,-4 C32.5,-9.9 27.5,-13.2 21.3,-13.2 C11.6,-13.2 0,-5 0,4.2"/>
<path class="Note" transform="matrix(0.992,0,0,0.992,778.758,658.998)" d="M0,4.2 C0,8.5 3.1,13.3 11.2,13.3 C21.6,13.3 32.5,4.8 32.5,-4 C32.5,-9.9 27.5,-13.2 21.3,-13.2 C11.6,-13.2 0,-5 0,4.2"/>
<path class="Note" transform="matrix(0.992,0,0,0.992,1463.78,1775)" d="M0,4.2 C0,8.5 3.1,13.3 11.2,13.3 C21.6,13.3 32.5,4.8 32.5,-4 C32.5,-9.9 27.5,-13.2 21.3,-13.2 C11.6,-13.2 0,-5 0,4.2"/>
<path class="Note" transform="matrix(0.992,0,0,0.992,1262.75,1799.8)" d="M0,4.2 C0,8.5 3.1,13.3 11.2,13.3 C21.6,13.3 32.5,4.8 32.5,-4 C32.5,-9.9 27.5,-13.2 21.3,-13.2 C11.6,-13.2 0,-5 0,4.2"/>
<path class="Note" transform="matrix(0.992,0,0,0.992,608.48,683.798)" d="M0,4.2 C0,8.5 3.1,13.3 11.2,13.3 C21.6,13.3 32.5,4.8 32.5,-4 C32.5,-9.9 27.5,-13.2 21.3,-13.2 C11.6,-13.2 0,-5 0,4.2"/>
<path class="Note" transform="matrix(0.992,0,0,0.992,952.306,1217)" d="M0,4.2 C0,8.5 3.1,13.3 11.2,13.3 C21.6,13.3 32.5,4.8 32.5,-4 C32.5,-9.9 27.5,-13.2 21.3,-13.2 C11.6,-13.2 0,-5 0,4.2"/>
<path class="Note" transform="matrix(0.992,0,0,0.992,1081.65,1254.2)" d="M0,4.2 C0,8.5 3.1,13.3 11.2,13.3 C21.6,13.3 32.5,4.8 32.5,-4 C32.5,-9.9 27.5,-13.2 21.3,-13.2 C11.6,-13.2 0,-5 0,4.2"/>
<path class="Note" transform="matrix(0.992,0,0,0.992,1097.19,1775)" d="M0,4.2 C0,8.5 3.1,13.3 11.2,13.3 C21.6,13.3 32.5,4.8 32.5,-4 C32.5,-9.9 27.5,-13.2 21.3,-13.2 C11.6,-13.2 0,-5 0,4.2"/>
<path class="Note" transform="matrix(0.992,0,0,0.992,399.466,2804.2)" d="M21.3,-13.2 C11.6,-13.2 0,-5.1 0,4.2 C0,8.5 3.1,13.3 11.2,13.3 C21.6,13.3 32.5,4.8 32.5,-4 C32.5,-9.9 27.5,-13.2 21.3,-13.2 M7.5,8.6 C4.2,8.6 3.5,5.9 3.5,5 C3.5,0.1 20.3,-8.5 25,-8.5 C27.4,-8.5 29,-7.1 29,-4.9 C29,0.1 12.1,8.6 7.5,8.6"/>
<path class="Note" transform="matrix(0.992,0,0,0.992,1996.47,2903.4)" d="M21.3,-13.2 C11.6,-13.2 0,-5.1 0,4.2 C0,8.5 3.1,13.3 11.2,13.3 C21.6,13.3 32.5,4.8 32.5,-4 C32.5,-9.9 27.5,-13.2 21.3,-13.2 M7.5,8.6 C4.2,8.6 3.5,5.9 3.5,5 C3.5,0.1 20.3,-8.5 25,-8.5 C27.4,-8.5 29,-7.1 29,-4.9 C29,0.1 12.1,8.6 7.5,8.6"/>
<path class="Note" transform="matrix(0.992,0,0,0.992,931.624,1762.6)" d="M0,4.2 C0,8.5 3.1,13.3 11.2,13.3 C21.6,13.3 32.5,4.8 32.5,-4 C32.5,-9.9 27.5,-13.2 21.3,-13.2 C11.6,-13.2 0,-5 0,4.2"/>
<path class="Note" transform="matrix(0.992,0,0,0.992,1701.08,720.998)" d="M0,4.2 C0,8.5 3.1,13.3 11.2,13.3 C21.6,13.3 32.5,4.8 32.5,-4 C32.5,-9.9 27.5,-13.2 21.3,-13.2 C11.6,-13.2 0,-5 0,4.2"/>
<path class="Note" transform="matrix(0.992,0,0,0.992,730.596,1787.4)" d="M0,4.2 C0,8.5 3.1,13.3 11.2,13.3 C21.6,13.3 32.5,4.8 32.5,-4 C32.5,-9.9 27.5,-13.2 21.3,-13.2 C11.6,-13.2 0,-5 0,4.2"/>
<path class="Note" transform="matrix(0.992,0,0,0.992,652.876,2816.6)" d="M21.3,-13.2 C11.6,-13.2 0,-5.1 0,4.2 C0,8.5 3.1,13.3 11.2,13.3 C21.6,13.3 32.5,4.8 32.5,-4 C32.5,-9.9 27.5,-13.2 21.3,-13.2 M7.5,8.6 C4.2,8.6 3.5,5.9 3.5,5 C3.5,0.1 20.3,-8.5 25,-8.5 C27.4,-8.5 29,-7.1 29,-4.9 C29,0.1 12.1,8.6 7.5,8.6"/>
<path class="Note" transform="matrix(0.992,0,0,0.992,565.031,1799.8)" d="M0,4.2 C0,8.5 3.1,13.3 11.2,13.3 C21.6,13.3 32.5,4.8 32.5,-4 C32.5,-9.9 27.5,-13.2 21.3,-13.2 C11.6,-13.2 0,-5 0,4.2"/>
<path class="Note" transform="matrix(0.992,0,0,0.992,1246.46,1266.6)" d="M0,4.2 C0,8.5 3.1,13.3 11.2,13.3 C21.6,13.3 32.5,4.8 32.5,-4 C32.5,-9.9 27.5,-13.2 21.3,-13.2 C11.6,-13.2 0,-5 0,4.2"/>
<path class="Note" transform="matrix(0.992,0,0,0.992,1375.8,1254.2)" d="M0,4.2 C0,8.5 3.1,13.3 11.2,13.3 C21.6,13.3 32.5,4.8 32.5,-4 C32.5,-9.9 27.5,-13.2 21.3,-13.2 C11.6,-13.2 0,-5 0,4.2"/>
<path class="Note" transform="matrix(0.992,0,0,0.992,399.466,1812.2)" d="M0,4.2 C0,8.5 3.1,13.3 11.2,13.3 C21.6,13.3 32.5,4.8 32.5,-4 C32.5,-9.9 27.5,-13.2 21.3,-13.2 C11.6,-13.2 0,-5 0,4.2"/>
<path class="Note" transform="matrix(0.992,0,0,0.992,1505.14,1241.8)" d="M0,4.2 C0,8.5 3.1,13.3 11.2,13.3 C21.6,13.3 32.5,4.8 32.5,-4 C32.5,-9.9 27.5,-13.2 21.3,-13.2 C11.6,-13.2 0,-5 0,4.2"/>
<path class="Note" transform="matrix(0.992,0,0,0.992,894.831,2866.2)" d="M0,4.2 C0,8.5 3.1,13.3 11.2,13.3 C21.6,13.3 32.5,4.8 32.5,-4 C32.5,-9.9 27.5,-13.2 21.3,-13.2 C11.6,-13.2 0,-5 0,4.2"/>
<path class="Note" transform="matrix(0.992,0,0,0.992,931.624,2258.6)" d="M0,4.2 C0,8.5 3.1,13.3 11.2,13.3 C21.6,13.3 32.5,4.8 32.5,-4 C32.5,-9.9 27.5,-13.2 21.3,-13.2 C11.6,-13.2 0,-5 0,4.2"/>
<path class="Note" transform="matrix(0.992,0,0,0.992,1003.42,2853.8)" d="M0,4.2 C0,8.5 3.1,13.3 11.2,13.3 C21.6,13.3 32.5,4.8 32.5,-4 C32.5,-9.9 27.5,-13.2 21.3,-13.2 C11.6,-13.2 0,-5 0,4.2"/>
<path class="Note" transform="matrix(0.992,0,0,0.992,1871.36,708.598)" d="M0,4.2 C0,8.5 3.1,13.3 11.2,13.3 C21.6,13.3 32.5,4.8 32.5,-4 C32.5,-9.9 27.5,-13.2 21.3,-13.2 C11.6,-13.2 0,-5 0,4.2"/>
<path class="Note" transform="matrix(0.992,0,0,0.992,1834.51,2853.8)" d="M0,4.2 C0,8.5 3.1,13.3 11.2,13.3 C21.6,13.3 32.5,4.8 32.5,-4 C32.5,-9.9 27.5,-13.2 21.3,-13.2 C11.6,-13.2 0,-5 0,4.2"/>
<path class="Note" transform="matrix(0.992,0,0,0.992,1112.02,2816.6)" d="M0,4.2 C0,8.5 3.1,13.3 11.2,13.3 C21.6,13.3 32.5,4.8 32.5,-4 C32.5,-9.9 27.5,-13.2 21.3,-13.2 C11.6,-13.2 0,-5 0,4.2"/>
<path class="Note" transform="matrix(0.992,0,0,0.992,2514.19,1316.2)" d="M21.3,-13.2 C11.6,-13.2 0,-5.1 0,4.2 C0,8.5 3.1,13.3 11.2,13.3 C21.6,13.3 32.5,4.8 32.5,-4 C32.5,-9.9 27.5,-13.2 21.3,-13.2 M7.5,8.6 C4.2,8.6 3.5,5.9 3.5,5 C3.5,0.1 20.3,-8.5 25,-8.5 C27.4,-8.5 29,-7.1 29,-4.9 C29,0.1 12.1,8.6 7.5,8.6"/>
<path class="Note" transform="matrix(0.992,0,0,0.992,1725.91,2841.4)" d="M0,4.2 C0,8.5 3.1,13.3 11.2,13.3 C21.6,13.3 32.5,4.8 32.5,-4 C32.5,-9.9 27.5,-13.2 21.3,-13.2 C11.6,-13.2 0,-5 0,4.2"/>
<path class="Note" transform="matrix(0.992,0,0,0.992,1669.95,1279)" d="M21.3,-13.2 C11.6,-13.2 0,-5.1 0,4.2 C0,8.5 3.1,13.3 11.2,13.3 C21.6,13.3 32.5,4.8 32.5,-4 C32.5,-9.9 27.5,-13.2 21.3,-13.2 M7.5,8.6 C4.2,8.6 3.5,5.9 3.5,5 C3.5,0.1 20.3,-8.5 25,-8.5 C27.4,-8.5 29,-7.1 29,-4.9 C29,0.1 12.1,8.6 7.5,8.6"/>
<path class="Note" transform="matrix(0.992,0,0,0.992,1617.32,2829)" d="M0,4.2 C0,8.5 3.1,13.3 11.2,13.3 C21.6,13.3 32.5,4.8 32.5,-4 C32.5,-9.9 27.5,-13.2 21.3,-13.2 C11.6,-13.2 0,-5 0,4.2"/>
<path class="Note" transform="matrix(0.992,0,0,0.992,1256.08,2829)" d="M0,4.2 C0,8.5 3.1,13.3 11.2,13.3 C21.6,13.3 32.5,4.8 32.5,-4 C32.5,-9.9 27.5,-13.2 21.3,-13.2 C11.6,-13.2 0,-5 0,4.2"/>
<path class="Note" transform="matrix(0.992,0,0,0.992,2232.78,1217)" d="M21.3,-13.2 C11.6,-13.2 0,-5.1 0,4.2 C0,8.5 3.1,13.3 11.2,13.3 C21.6,13.3 32.5,4.8 32.5,-4 C32.5,-9.9 27.5,-13.2 21.3,-13.2 M7.5,8.6 C4.2,8.6 3.5,5.9 3.5,5 C3.5,0.1 20.3,-8.5 25,-8.5 C27.4,-8.5 29,-7.1 29,-4.9 C29,0.1 12.1,8.6 7.5,8.6"/>
<path class="Note" transform="matrix(0.992,0,0,0.992,1364.67,2841.4)" d="M0,4.2 C0,8.5 3.1,13.3 11.2,13.3 C21.6,13.3 32.5,4.8 32.5,-4 C32.5,-9.9 27.5,-13.2 21.3,-13.2 C11.6,-13.2 0,-5 0,4.2"/>
<path class="Note" transform="matrix(0.992,0,0,0.992,2077.1,745.798)" d="M21.3,-13.2 C11.6,-13.2 0,-5.1 0,4.2 C0,8.5 3.1,13.3 11.2,13.3 C21.6,13.3 32.5,4.8 32.5,-4 C32.5,-9.9 27.5,-13.2 21.3,-13.2 M7.5,8.6 C4.2,8.6 3.5,5.9 3.5,5 C3.5,0.1 20.3,-8.5 25,-8.5 C27.4,-8.5 29,-7.1 29,-4.9 C29,0.1 12.1,8.6 7.5,8.6"/>
<path class="Note" transform="matrix(0.992,0,0,0.992,1951.36,1254.2)" d="M21.3,-13.2 C11.6,-13.2 0,-5.1 0,4.2 C0,8.5 3.1,13.3 11.2,13.3 C21.6,13.3 32.5,4.8 32.5,-4 C32.5,-9.9 27.5,-13.2 21.3,-13.2 M7.5,8.6 C4.2,8.6 3.5,5.9 3.5,5 C3.5,0.1 20.3,-8.5 25,-8.5 C27.4,-8.5 29,-7.1 29,-4.9 C29,0.1 12.1,8.6 7.5,8.6"/>
<path class="Clef" transform="matrix(0.992,0,0,0.992,231.198,1775)" d="M12.3,51.3 C12.3,57.9 17.3,66.6 30.8,66.6 C35.5,66.6 39.6,65.4 43.2,63.2 C48.6,59.4 50,52.8 50,46.5 C50,42.6 49.4,38.1 48.4,32.4 C48.1,30.4 47.5,27.4 46.9,23.5 C56.7,20.3 64,10.1 64,-0.2 C64,-15.3 53.3,-25.5 38.7,-25.5 C37.7,-31.5 36.7,-37.4 35.9,-43 C46.4,-54.1 53.7,-66.6 53.7,-82.5 C53.7,-91.6 50.9,-99 49.3,-102.6 C46.9,-107.7 44,-111.2 42.2,-111.2 C41.5,-111.2 38.4,-110 35.1,-106.1 C28.7,-98.5 26.9,-85.7 26.9,-77.3 C26.9,-71.9 27.4,-67 29.1,-55.8 C29,-55.7 23.8,-50.4 21.7,-48.7 C12.6,-40.3 0,-28.1 0,-8.1 C0,10.6 16.3,25.3 34.9,25.3 C37.8,25.3 40.5,25 42.8,24.6 C44.7,34.2 45.9,41.2 45.9,46.5 C45.9,56.9 40.5,62.4 30.4,62.4 C28,62.4 25.9,61.9 25.7,61.9 C25.6,61.8 25.4,61.7 25.4,61.6 C25.4,61.4 25.6,61.3 25.9,61.3 C30.6,60.5 35.3,56.5 35.3,50.1 C35.3,44.7 31.2,39 23.7,39 C16.7,39 12.3,44.7 12.3,51.3 M33.2,-82.2 C34.1,-86.2 38.7,-96.7 43.9,-96.7 C45.4,-96.7 47.8,-91.9 47.8,-84.9 C47.8,-74.5 40.1,-66.7 33.2,-59.9 C32.6,-63.9 32.1,-67.8 32.1,-72 C32.1,-75.7 32.4,-79.1 33.2,-82.2 M42,20.6 C40,21 38.1,21.2 36.2,21.2 C21.9,21.2 9.7,11.2 9.7,-3.9 C9.7,-16.1 18.3,-27 27.1,-34.6 C28.8,-36.1 30.4,-37.5 31.9,-39 C32.8,-33.6 33.5,-28.9 34.2,-24.8 C25.1,-22.1 18.9,-12.5 18.9,-3.1 C18.9,3.9 24.4,13.5 32.4,13.5 C33.2,13.5 34.1,13.1 34.1,12.2 C34.1,11.3 33.1,10.8 31.9,10 C28,7.6 25.8,5 25.8,0.1 C25.8,-6 30.4,-10.9 36.2,-12.3 L42,20.6 M56.2,2.1 C56.2,9.2 53.3,16.5 46.2,19.4 C44.1,7.4 41.4,-8.5 40.7,-12.9 C49.7,-12.9 56.2,-6.8 56.2,2.1"/>
<path class="Clef" transform="matrix(0.992,0,0,0.992,231.198,1241.8)" d="M12.3,51.3 C12.3,57.9 17.3,66.6 30.8,66.6 C35.5,66.6 39.6,65.4 43.2,63.2 C48.6,59.4 50,52.8 50,46.5 C50,42.6 49.4,38.1 48.4,32.4 C48.1,30.4 47.5,27.4 46.9,23.5 C56.7,20.3 64,10.1 64,-0.2 C64,-15.3 53.3,-25.5 38.7,-25.5 C37.7,-31.5 36.7,-37.4 35.9,-43 C46.4,-54.1 53.7,-66.6 53.7,-82.5 C53.7,-91.6 50.9,-99 49.3,-102.6 C46.9,-107.7 44,-111.2 42.2,-111.2 C41.5,-111.2 38.4,-110 35.1,-106.1 C28.7,-98.5 26.9,-85.7 26.9,-77.3 C26.9,-71.9 27.4,-67 29.1,-55.8 C29,-55.7 23.8,-50.4 21.7,-48.7 C12.6,-40.3 0,-28.1 0,-8.1 C0,10.6 16.3,25.3 34.9,25.3 C37.8,25.3 40.5,25 42.8,24.6 C44.7,34.2 45.9,41.2 45.9,46.5 C45.9,56.9 40.5,62.4 30.4,62.4 C28,62.4 25.9,61.9 25.7,61.9 C25.6,61.8 25.4,61.7 25.4,61.6 C25.4,61.4 25.6,61.3 25.9,61.3 C30.6,60.5 35.3,56.5 35.3,50.1 C35.3,44.7 31.2,39 23.7,39 C16.7,39 12.3,44.7 12.3,51.3 M33.2,-82.2 C34.1,-86.2 38.7,-96.7 43.9,-96.7 C45.4,-96.7 47.8,-91.9 47.8,-84.9 C47.8,-74.5 40.1,-66.7 33.2,-59.9 C32.6,-63.9 32.1,-67.8 32.1,-72 C32.1,-75.7 32.4,-79.1 33.2,-82.2 M42,20.6 C40,21 38.1,21.2 36.2,21.2 C21.9,21.2 9.7,11.2 9.7,-3.9 C9.7,-16.1 18.3,-27 27.1,-34.6 C28.8,-36.1 30.4,-37.5 31.9,-39 C32.8,-33.6 33.5,-28.9 34.2,-24.8 C25.1,-22.1 18.9,-12.5 18.9,-3.1 C18.9,3.9 24.4,13.5 32.4,13.5 C33.2,13.5 34.1,13.1 34.1,12.2 C34.1,11.3 33.1,10.8 31.9,10 C28,7.6 25.8,5 25.8,0.1 C25.8,-6 30.4,-10.9 36.2,-12.3 L42,20.6 M56.2,2.1 C56.2,9.2 53.3,16.5 46.2,19.4 C44.1,7.4 41.4,-8.5 40.7,-12.9 C49.7,-12.9 56.2,-6.8 56.2,2.1"/>
<path class="Clef" transform="matrix(0.992,0,0,0.992,231.198,2308.2)" d="M12.3,51.3 C12.3,57.9 17.3,66.6 30.8,66.6 C35.5,66.6 39.6,65.4 43.2,63.2 C48.6,59.4 50,52.8 50,46.5 C50,42.6 49.4,38.1 48.4,32.4 C48.1,30.4 47.5,27.4 46.9,23.5 C56.7,20.3 64,10.1 64,-0.2 C64,-15.3 53.3,-25.5 38.7,-25.5 C37.7,-31.5 36.7,-37.4 35.9,-43 C46.4,-54.1 53.7,-66.6 53.7,-82.5 C53.7,-91.6 50.9,-99 49.3,-102.6 C46.9,-107.7 44,-111.2 42.2,-111.2 C41.5,-111.2 38.4,-110 35.1,-106.1 C28.7,-98.5 26.9,-85.7 26.9,-77.3 C26.9,-71.9 27.4,-67 29.1,-55.8 C29,-55.7 23.8,-50.4 21.7,-48.7 C12.6,-40.3 0,-28.1 0,-8.1 C0,10.6 16.3,25.3 34.9,25.3 C37.8,25.3 40.5,25 42.8,24.6 C44.7,34.2 45.9,41.2 45.9,46.5 C45.9,56.9 40.5,62.4 30.4,62.4 C28,62.4 25.9,61.9 25.7,61.9 C25.6,61.8 25.4,61.7 25.4,61.6 C25.4,61.4 25.6,61.3 25.9,61.3 C30.6,60.5 35.3,56.5 35.3,50.1 C35.3,44.7 31.2,39 23.7,39 C16.7,39 12.3,44.7 12.3,51.3 M33.2,-82.2 C34.1,-86.2 38.7,-96.7 43.9,-96.7 C45.4,-96.7 47.8,-91.9 47.8,-84.9 C47.8,-74.5 40.1,-66.7 33.2,-59.9 C32.6,-63.9 32.1,-67.8 32.1,-72 C32.1,-75.7 32.4,-79.1 33.2,-82.2 M42,20.6 C40,21 38.1,21.2 36.2,21.2 C21.9,21.2 9.7,11.2 9.7,-3.9 C9.7,-16.1 18.3,-27 27.1,-34.6 C28.8,-36.1 30.4,-37.5 31.9,-39 C32.8,-33.6 33.5,-28.9 34.2,-24.8 C25.1,-22.1 18.9,-12.5 18.9,-3.1 C18.9,3.9 24.4,13.5 32.4,13.5 C33.2,13.5 34.1,13.1 34.1,12.2 C34.1,11.3 33.1,10.8 31.9,10 C28,7.6 25.8,5 25.8,0.1 C25.8,-6 30.4,-10.9 36.2,-12.3 L42,20.6 M56.2,2.1 C56.2,9.2 53.3,16.5 46.2,19.4 C44.1,7.4 41.4,-8.5 40.7,-12.9 C49.7,-12.9 56.2,-6.8 56.2,2.1"/>
<path class="Clef" transform="matrix(0.992,0,0,0.992,231.198,708.598)" d="M12.3,51.3 C12.3,57.9 17.3,66.6 30.8,66.6 C35.5,66.6 39.6,65.4 43.2,63.2 C48.6,59.4 50,52.8 50,46.5 C50,42.6 49.4,38.1 48.4,32.4 C48.1,30.4 47.5,27.4 46.9,23.5 C56.7,20.3 64,10.1 64,-0.2 C64,-15.3 53.3,-25.5 38.7,-25.5 C37.7,-31.5 36.7,-37.4 35.9,-43 C46.4,-54.1 53.7,-66.6 53.7,-82.5 C53.7,-91.6 50.9,-99 49.3,-102.6 C46.9,-107.7 44,-111.2 42.2,-111.2 C41.5,-111.2 38.4,-110 35.1,-106.1 C28.7,-98.5 26.9,-85.7 26.9,-77.3 C26.9,-71.9 27.4,-67 29.1,-55.8 C29,-55.7 23.8,-50.4 21.7,-48.7 C12.6,-40.3 0,-28.1 0,-8.1 C0,10.6 16.3,25.3 34.9,25.3 C37.8,25.3 40.5,25 42.8,24.6 C44.7,34.2 45.9,41.2 45.9,46.5 C45.9,56.9 40.5,62.4 30.4,62.4 C28,62.4 25.9,61.9 25.7,61.9 C25.6,61.8 25.4,61.7 25.4,61.6 C25.4,61.4 25.6,61.3 25.9,61.3 C30.6,60.5 35.3,56.5 35.3,50.1 C35.3,44.7 31.2,39 23.7,39 C16.7,39 12.3,44.7 12.3,51.3 M33.2,-82.2 C34.1,-86.2 38.7,-96.7 43.9,-96.7 C45.4,-96.7 47.8,-91.9 47.8,-84.9 C47.8,-74.5 40.1,-66.7 33.2,-59.9 C32.6,-63.9 32.1,-67.8 32.1,-72 C32.1,-75.7 32.4,-79.1 33.2,-82.2 M42,20.6 C40,21 38.1,21.2 36.2,21.2 C21.9,21.2 9.7,11.2 9.7,-3.9 C9.7,-16.1 18.3,-27 27.1,-34.6 C28.8,-36.1 30.4,-37.5 31.9,-39 C32.8,-33.6 33.5,-28.9 34.2,-24.8 C25.1,-22.1 18.9,-12.5 18.9,-3.1 C18.9,3.9 24.4,13.5 32.4,13.5 C33.2,13.5 34.1,13.1 34.1,12.2 C34.1,11.3 33.1,10.8 31.9,10 C28,7.6 25.8,5 25.8,0.1 C25.8,-6 30.4,-10.9 36.2,-12.3 L42,20.6 M56.2,2.1 C56.2,9.2 53.3,16.5 46.2,19.4 C44.1,7.4 41.4,-8.5 40.7,-12.9 C49.7,-12.9 56.2,-6.8 56.2,2.1"/>
<path class="Clef" transform="matrix(0.992,0,0,0.992,231.198,2841.4)" d="M12.3,51.3 C12.3,57.9 17.3,66.6 30.8,66.6 C35.5,66.6 39.6,65.4 43.2,63.2 C48.6,59.4 50,52.8 50,46.5 C50,42.6 49.4,38.1 48.4,32.4 C48.1,30.4 47.5,27.4 46.9,23.5 C56.7,20.3 64,10.1 64,-0.2 C64,-15.3 53.3,-25.5 38.7,-25.5 C37.7,-31.5 36.7,-37.4 35.9,-43 C46.4,-54.1 53.7,-66.6 53.7,-82.5 C53.7,-91.6 50.9,-99 49.3,-102.6 C46.9,-107.7 44,-111.2 42.2,-111.2 C41.5,-111.2 38.4,-110 35.1,-106.1 C28.7,-98.5 26.9,-85.7 26.9,-77.3 C26.9,-71.9 27.4,-67 29.1,-55.8 C29,-55.7 23.8,-50.4 21.7,-48.7 C12.6,-40.3 0,-28.1 0,-8.1 C0,10.6 16.3,25.3 34.9,25.3 C37.8,25.3 40.5,25 42.8,24.6 C44.7,34.2 45.9,41.2 45.9,46.5 C45.9,56.9 40.5,62.4 30.4,62.4 C28,62.4 25.9,61.9 25.7,61.9 C25.6,61.8 25.4,61.7 25.4,61.6 C25.4,61.4 25.6,61.3 25.9,61.3 C30.6,60.5 35.3,56.5 35.3,50.1 C35.3,44.7 31.2,39 23.7,39 C16.7,39 12.3,44.7 12.3,51.3 M33.2,-82.2 C34.1,-86.2 38.7,-96.7 43.9,-96.7 C45.4,-96.7 47.8,-91.9 47.8,-84.9 C47.8,-74.5 40.1,-66.7 33.2,-59.9 C32.6,-63.9 32.1,-67.8 32.1,-72 C32.1,-75.7 32.4,-79.1 33.2,-82.2 M42,20.6 C40,21 38.1,21.2 36.2,21.2 C21.9,21.2 9.7,11.2 9.7,-3.9 C9.7,-16.1 18.3,-27 27.1,-34.6 C28.8,-36.1 30.4,-37.5 31.9,-39 C32.8,-33.6 33.5,-28.9 34.2,-24.8 C25.1,-22.1 18.9,-12.5 18.9,-3.1 C18.9,3.9 24.4,13.5 32.4,13.5 C33.2,13.5 34.1,13.1 34.1,12.2 C34.1,11.3 33.1,10.8 31.9,10 C28,7.6 25.8,5 25.8,0.1 C25.8,-6 30.4,-10.9 36.2,-12.3 L42,20.6 M56.2,2.1 C56.2,9.2 53.3,16.5 46.2,19.4 C44.1,7.4 41.4,-8.5 40.7,-12.9 C49.7,-12.9 56.2,-6.8 56.2,2.1"/>
<path class="KeySig" transform="matrix(0.992,0,0,0.992,313.271,634.198)" d="M23.3,-10.5 C23.9,-10.6 24.4,-11.3 24.4,-11.9 L24.4,-17.8 C24.4,-18.8 23.7,-19.2 22.8,-19.2 L19.5,-18.5 L19.5,-33.4 L16.7,-33.4 L16.7,-17.9 L7.8,-16.1 L7.8,-30.2 L5,-30.2 L5,-15.5 L1.1,-14.7 C0.5,-14.6 0,-13.9 0,-13.3 L0,-7.5 C0,-6.4 0.8,-6.1 1.7,-6.1 L5,-6.8 L5,9.7 L1.1,10.5 C0.5,10.6 0,11.3 0,11.9 L0,17.7 C0,18.8 0.8,19.1 1.7,19.1 L5,18.4 L5,33.3 L7.8,33.3 L7.8,17.8 L16.7,16 L16.7,30.1 L19.5,30.1 L19.5,15.4 L23.3,14.7 C23.9,14.6 24.4,13.9 24.4,13.3 L24.4,7.4 C24.4,6.4 23.7,6 22.8,6 L19.5,6.7 L19.5,-9.8 L23.3,-10.5 M7.8,-7.4 L16.7,-9.2 L16.7,7.3 L7.8,9.2 L7.8,-7.4 "/>
<path class="KeySig" transform="matrix(0.992,0,0,0.992,313.271,2233.8)" d="M23.3,-10.5 C23.9,-10.6 24.4,-11.3 24.4,-11.9 L24.4,-17.8 C24.4,-18.8 23.7,-19.2 22.8,-19.2 L19.5,-18.5 L19.5,-33.4 L16.7,-33.4 L16.7,-17.9 L7.8,-16.1 L7.8,-30.2 L5,-30.2 L5,-15.5 L1.1,-14.7 C0.5,-14.6 0,-13.9 0,-13.3 L0,-7.5 C0,-6.4 0.8,-6.1 1.7,-6.1 L5,-6.8 L5,9.7 L1.1,10.5 C0.5,10.6 0,11.3 0,11.9 L0,17.7 C0,18.8 0.8,19.1 1.7,19.1 L5,18.4 L5,33.3 L7.8,33.3 L7.8,17.8 L16.7,16 L16.7,30.1 L19.5,30.1 L19.5,15.4 L23.3,14.7 C23.9,14.6 24.4,13.9 24.4,13.3 L24.4,7.4 C24.4,6.4 23.7,6 22.8,6 L19.5,6.7 L19.5,-9.8 L23.3,-10.5 M7.8,-7.4 L16.7,-9.2 L16.7,7.3 L7.8,9.2 L7.8,-7.4 "/>
<path class="KeySig" transform="matrix(0.992,0,0,0.992,313.271,1167.4)" d="M23.3,-10.5 C23.9,-10.6 24.4,-11.3 24.4,-11.9 L24.4,-17.8 C24.4,-18.8 23.7,-19.2 22.8,-19.2 L19.5,-18.5 L19.5,-33.4 L16.7,-33.4 L16.7,-17.9 L7.8,-16.1 L7.8,-30.2 L5,-30.2 L5,-15.5 L1.1,-14.7 C0.5,-14.6 0,-13.9 0,-13.3 L0,-7.5 C0,-6.4 0.8,-6.1 1.7,-6.1 L5,-6.8 L5,9.7 L1.1,10.5 C0.5,10.6 0,11.3 0,11.9 L0,17.7 C0,18.8 0.8,19.1 1.7,19.1 L5,18.4 L5,33.3 L7.8,33.3 L7.8,17.8 L16.7,16 L16.7,30.1 L19.5,30.1 L19.5,15.4 L23.3,14.7 C23.9,14.6 24.4,13.9 24.4,13.3 L24.4,7.4 C24.4,6.4 23.7,6 22.8,6 L19.5,6.7 L19.5,-9.8 L23.3,-10.5 M7.8,-7.4 L16.7,-9.2 L16.7,7.3 L7.8,9.2 L7.8,-7.4 "/>
<path class="KeySig" transform="matrix(0.992,0,0,0.992,313.271,2767)" d="M23.3,-10.5 C23.9,-10.6 24.4,-11.3 24.4,-11.9 L24.4,-17.8 C24.4,-18.8 23.7,-19.2 22.8,-19.2 L19.5,-18.5 L19.5,-33.4 L16.7,-33.4 L16.7,-17.9 L7.8,-16.1 L7.8,-30.2 L5,-30.2 L5,-15.5 L1.1,-14.7 C0.5,-14.6 0,-13.9 0,-13.3 L0,-7.5 C0,-6.4 0.8,-6.1 1.7,-6.1 L5,-6.8 L5,9.7 L1.1,10.5 C0.5,10.6 0,11.3 0,11.9 L0,17.7 C0,18.8 0.8,19.1 1.7,19.1 L5,18.4 L5,33.3 L7.8,33.3 L7.8,17.8 L16.7,16 L16.7,30.1 L19.5,30.1 L19.5,15.4 L23.3,14.7 C23.9,14.6 24.4,13.9 24.4,13.3 L24.4,7.4 C24.4,6.4 23.7,6 22.8,6 L19.5,6.7 L19.5,-9.8 L23.3,-10.5 M7.8,-7.4 L16.7,-9.2 L16.7,7.3 L7.8,9.2 L7.8,-7.4 "/>
<path class="KeySig" transform="matrix(0.992,0,0,0.992,313.271,1700.6)" d="M23.3,-10.5 C23.9,-10.6 24.4,-11.3 24.4,-11.9 L24.4,-17.8 C24.4,-18.8 23.7,-19.2 22.8,-19.2 L19.5,-18.5 L19.5,-33.4 L16.7,-33.4 L16.7,-17.9 L7.8,-16.1 L7.8,-30.2 L5,-30.2 L5,-15.5 L1.1,-14.7 C0.5,-14.6 0,-13.9 0,-13.3 L0,-7.5 C0,-6.4 0.8,-6.1 1.7,-6.1 L5,-6.8 L5,9.7 L1.1,10.5 C0.5,10.6 0,11.3 0,11.9 L0,17.7 C0,18.8 0.8,19.1 1.7,19.1 L5,18.4 L5,33.3 L7.8,33.3 L7.8,17.8 L16.7,16 L16.7,30.1 L19.5,30.1 L19.5,15.4 L23.3,14.7 C23.9,14.6 24.4,13.9 24.4,13.3 L24.4,7.4 C24.4,6.4 23.7,6 22.8,6 L19.5,6.7 L19.5,-9.8 L23.3,-10.5 M7.8,-7.4 L16.7,-9.2 L16.7,7.3 L7.8,9.2 L7.8,-7.4 "/>
<path class="TimeSig" transform="matrix(0.992,0,0,0.992,364.793,659.494)" d="M27.2,-1.6 C32.2,-3.5 35.7,-6.7 35.7,-12.2 C35.7,-13.1 35.4,-24.4 18.2,-24.4 C1,-24.4 1.5,-12.2 1.5,-12.2 L1.6,-12.2 L1.5,-12 C1.5,-8.4 4.4,-5.6 8,-5.6 C11.6,-5.6 14.4,-8.4 14.4,-12 C14.4,-14.9 12.2,-17.7 9.4,-18.3 C9.5,-18.4 9.6,-18.5 9.7,-18.6 C11.1,-19.6 13,-20.1 14.9,-20.1 C19.1,-20.1 23.6,-17.6 23.6,-12.2 C23.6,-5.9 18.9,-5 17.7,-4.8 C16.5,-4.6 10.9,-4.2 9.7,-4.2 C8.5,-4.2 8.4,-2.8 8.4,-2.8 L8.4,-0.8 C8.4,-0.8 8.6,0.3 9.7,0.4 C11.4,0.5 13.7,0.5 16.9,1 C21.3,1.6 23.6,4.6 23.6,11.6 C23.6,18.3 19.1,20.1 14.9,20.1 C12.1,20.1 9.5,19.3 8.4,18.5 C11.7,18.3 14.4,15.4 14.4,12.1 C14.4,8.5 11.6,5.6 8,5.6 C4.4,5.6 1.5,8.5 1.5,12.1 C1.5,20.3 9,24.4 16.4,24.4 C26,24.4 36.4,21.1 36.4,10.2 C36.4,2.9 31.4,-0.2 27,-1.6 L27.2,-1.6 "/>
<path class="TimeSig" transform="matrix(0.992,0,0,0.992,360.887,708.598)" d="M20.8,12.7 L20.8,20.1 L12.5,20.1 C11.8,20.1 11.1,20.7 11.1,21.5 L11.1,23.4 C11.1,24.2 11.8,24.8 12.5,24.8 L42.8,24.8 C43.6,24.8 44.2,24.2 44.2,23.4 L44.2,21.5 C44.2,20.7 43.6,20.1 42.8,20.1 L33.9,20.1 L33.9,12.7 L42.8,12.7 C43.6,12.7 44.2,12 44.2,11.2 L44.2,9.3 C44.2,8.6 43.6,7.9 42.8,7.9 L33.9,7.9 L33.9,-8 C33.9,-8.6 33.6,-9.1 33.1,-9.3 L31.9,-9.9 C31.7,-10 31.4,-10.1 31.2,-10.1 C30.9,-10 30.5,-9.9 30.3,-9.7 L21.2,-1.4 C20.9,-1.1 20.8,-0.7 20.8,-0.3 L20.8,7.9 L9.3,7.9 C9.3,7.9 20.4,-4.1 32.2,-19.9 C32.6,-20.4 32.7,-20.9 32.7,-21.3 C32.7,-21.8 32.5,-22.2 32.4,-22.3 L30.2,-24.5 C30,-24.7 29.6,-24.9 29.2,-24.9 C28.6,-24.9 15.1,-24.9 14.4,-24.9 C13.6,-24.9 13.1,-24.3 13,-23.7 C13,-23.7 12.5,-16.3 9.9,-8.2 C7.3,-0.1 4.3,4.9 1.7,8.6 C1.7,8.6 1.4,9.1 1.4,9.7 C1.4,9.9 1.4,10.1 1.5,10.3 C1.9,11 2.5,12.1 2.5,12.1 C2.5,12.1 2.7,12.7 3.6,12.7 L20.8,12.7 "/>
<path class="Rest" transform="matrix(0.992,0,0,0.992,438.201,683.798)" d="M23,16.6 C22.9,16.5 22.7,16.3 22.4,15.9 L10.9,1.7 C10.8,1.6 10.7,1.3 10.7,1.1 C10.7,0.8 10.8,0.4 10.9,0.2 L21.1,-15.2 C21.2,-15.4 21.3,-15.7 21.3,-15.9 L21.3,-16.8 C21.3,-17.1 21.2,-17.4 21,-17.6 L4.8,-39.5 C4.8,-39.5 4.4,-40.1 3.8,-40.1 C3.5,-40.1 3.3,-40.1 3,-39.8 C2.6,-39.5 2.5,-39.1 2.5,-38.8 C2.5,-38.2 2.8,-37.7 2.8,-37.7 L10.4,-27.3 C10.6,-27 10.7,-26.6 10.7,-26.1 C10.7,-25.7 10.6,-25.2 10.4,-24.9 L0.3,-9.5 C0.2,-9.3 0.1,-8.9 0.1,-8.7 L0.1,-7.8 C0.1,-7.5 0.2,-7.2 0.4,-7 L11.6,6.9 C11.2,6.8 10.3,6.6 9.1,6.6 C4,6.6 0,10.8 0,15.9 C0,17.3 0.3,18.7 1.1,19.8 C3.2,23 10.7,32.5 10.7,32.5 C10.7,32.5 11.2,33.1 11.9,33.1 C12.1,33.1 12.3,33.1 12.5,32.9 C13,32.5 13.2,32.1 13.2,31.7 C13.2,31.3 13,31 12.9,30.8 C12.6,30.3 9.4,24.5 9.4,24.5 C9.4,24.5 8.7,23.1 8.7,21.3 C8.7,18.1 11.1,15.5 14.3,15.5 C15.6,15.5 16.7,15.9 17.5,16.4 L21.4,18.9 C21.4,18.9 21.8,19.1 22.2,19.1 C22.6,19.1 22.9,19 23.2,18.6 C23.4,18.3 23.5,18 23.5,17.7 C23.5,17.4 23.4,17.2 23.2,16.9 L23,16.6 "/>
<path class="Rest" transform="matrix(0.992,0,0,0.992,399.466,1217)" d="M23,16.6 C22.9,16.5 22.7,16.3 22.4,15.9 L10.9,1.7 C10.8,1.6 10.7,1.3 10.7,1.1 C10.7,0.8 10.8,0.4 10.9,0.2 L21.1,-15.2 C21.2,-15.4 21.3,-15.7 21.3,-15.9 L21.3,-16.8 C21.3,-17.1 21.2,-17.4 21,-17.6 L4.8,-39.5 C4.8,-39.5 4.4,-40.1 3.8,-40.1 C3.5,-40.1 3.3,-40.1 3,-39.8 C2.6,-39.5 2.5,-39.1 2.5,-38.8 C2.5,-38.2 2.8,-37.7 2.8,-37.7 L10.4,-27.3 C10.6,-27 10.7,-26.6 10.7,-26.1 C10.7,-25.7 10.6,-25.2 10.4,-24.9 L0.3,-9.5 C0.2,-9.3 0.1,-8.9 0.1,-8.7 L0.1,-7.8 C0.1,-7.5 0.2,-7.2 0.4,-7 L11.6,6.9 C11.2,6.8 10.3,6.6 9.1,6.6 C4,6.6 0,10.8 0,15.9 C0,17.3 0.3,18.7 1.1,19.8 C3.2,23 10.7,32.5 10.7,32.5 C10.7,32.5 11.2,33.1 11.9,33.1 C12.1,33.1 12.3,33.1 12.5,32.9 C13,32.5 13.2,32.1 13.2,31.7 C13.2,31.3 13,31 12.9,30.8 C12.6,30.3 9.4,24.5 9.4,24.5 C9.4,24.5 8.7,23.1 8.7,21.3 C8.7,18.1 11.1,15.5 14.3,15.5 C15.6,15.5 16.7,15.9 17.5,16.4 L21.4,18.9 C21.4,18.9 21.8,19.1 22.2,19.1 C22.6,19.1 22.9,19 23.2,18.6 C23.4,18.3 23.5,18 23.5,17.7 C23.5,17.4 23.4,17.2 23.2,16.9 L23,16.6 "/>
<path class="Tempo" d="M350.776,496.62 L347.509,496.62 L347.509,538.893 C346.42,538.2 345.034,537.804 343.45,537.606 C339.886,537.606 337.015,538.002 333.847,539.784 C329.887,541.863 325.531,546.219 325.531,551.07 C325.531,555.822 329.788,558.099 334.144,558.099 C341.074,558.099 350.776,552.159 350.776,544.635 L350.776,496.62 "/>
<path class="Tempo" d="M373.027,534.576 L403.267,534.576 L403.267,527.676 L373.027,527.676 L373.027,534.576 M373.027,546.936 L403.267,546.936 L403.267,540.036 L373.027,540.036 L373.027,546.936 M445.805,509.976 L443.705,509.976 C439.925,512.796 435.665,513.996 428.525,514.116 L428.525,517.476 L431.045,517.476 C436.385,517.476 436.445,517.596 436.385,522.516 L436.385,543.816 C436.385,547.536 436.385,547.716 435.965,548.316 C435.425,548.976 434.225,549.216 430.985,549.216 L429.065,549.216 L429.065,552.456 L453.005,552.456 L453.005,549.216 L451.085,549.216 C447.905,549.216 446.765,548.976 446.225,548.316 C445.805,547.716 445.805,547.476 445.805,543.816 L445.805,509.976 M475.203,509.976 C466.203,509.976 459.603,519.156 459.603,531.636 C459.603,544.116 466.203,553.296 475.203,553.296 C484.023,553.296 490.743,544.116 490.743,531.936 C490.743,524.856 489.123,519.636 485.583,515.196 C482.763,511.776 479.223,509.976 475.203,509.976 M475.143,513.096 C476.943,513.096 478.383,514.176 479.043,516.096 C479.823,518.076 480.303,524.376 480.303,531.816 C480.303,537.996 479.823,544.476 479.283,546.516 C478.623,548.916 477.183,550.176 475.143,550.176 C473.283,550.176 471.903,549.156 471.183,547.176 C470.403,545.196 469.923,538.836 469.923,531.636 C469.923,525.336 470.403,518.796 470.943,516.756 C471.603,514.356 473.043,513.096 475.143,513.096 M509.64,509.976 C500.64,509.976 494.04,519.156 494.04,531.636 C494.04,544.116 500.64,553.296 509.64,553.296 C518.46,553.296 525.18,544.116 525.18,531.936 C525.18,524.856 523.56,519.636 520.02,515.196 C517.2,511.776 513.66,509.976 509.64,509.976 M509.58,513.096 C511.38,513.096 512.82,514.176 513.48,516.096 C514.26,518.076 514.74,524.376 514.74,531.816 C514.74,537.996 514.26,544.476 513.72,546.516 C513.06,548.916 511.62,550.176 509.58,550.176 C507.72,550.176 506.34,549.156 505.62,547.176 C504.84,545.196 504.36,538.836 504.36,531.636 C504.36,525.336 504.84,518.796 505.38,516.756 C506.04,514.356 507.48,513.096 509.58,513.096"/>
<path class="NoteDot" transform="matrix(0.992,0,0,0.992,697.501,2804.2)" d="M0,0 C0,2.8 2.2,5 5,5 C7.8,5 10,2.8 10,0 C10,-2.8 7.8,-5 5,-5 C2.2,-5 0,-2.8 0,0"/>
<path class="NoteDot" transform="matrix(0.992,0,0,0.992,444.091,2804.2)" d="M0,0 C0,2.8 2.2,5 5,5 C7.8,5 10,2.8 10,0 C10,-2.8 7.8,-5 5,-5 C2.2,-5 0,-2.8 0,0"/>
<path class="NoteDot" transform="matrix(0.992,0,0,0.992,2558.81,1303.8)" d="M0,0 C0,2.8 2.2,5 5,5 C7.8,5 10,2.8 10,0 C10,-2.8 7.8,-5 5,-5 C2.2,-5 0,-2.8 0,0"/>
<path class="NoteDot" transform="matrix(0.992,0,0,0.992,2121.73,745.798)" d="M0,0 C0,2.8 2.2,5 5,5 C7.8,5 10,2.8 10,0 C10,-2.8 7.8,-5 5,-5 C2.2,-5 0,-2.8 0,0"/>
<path class="NoteDot" transform="matrix(0.992,0,0,0.992,2040.56,2295.8)" d="M0,0 C0,2.8 2.2,5 5,5 C7.8,5 10,2.8 10,0 C10,-2.8 7.8,-5 5,-5 C2.2,-5 0,-2.8 0,0"/>
<path class="NoteDot" transform="matrix(0.992,0,0,0.992,2040.56,1762.6)" d="M0,0 C0,2.8 2.2,5 5,5 C7.8,5 10,2.8 10,0 C10,-2.8 7.8,-5 5,-5 C2.2,-5 0,-2.8 0,0"/>
<path class="NoteDot" transform="matrix(0.992,0,0,0.992,2356.32,2853.8)" d="M0,0 C0,2.8 2.2,5 5,5 C7.8,5 10,2.8 10,0 C10,-2.8 7.8,-5 5,-5 C2.2,-5 0,-2.8 0,0"/>
<path class="NoteDot" transform="matrix(0.992,0,0,0.992,2277.4,1204.6)" d="M0,0 C0,2.8 2.2,5 5,5 C7.8,5 10,2.8 10,0 C10,-2.8 7.8,-5 5,-5 C2.2,-5 0,-2.8 0,0"/>
<path class="NoteDot" transform="matrix(0.992,0,0,0.992,1714.58,1279)" d="M0,0 C0,2.8 2.2,5 5,5 C7.8,5 10,2.8 10,0 C10,-2.8 7.8,-5 5,-5 C2.2,-5 0,-2.8 0,0"/>
<path class="NoteDot" transform="matrix(0.992,0,0,0.992,1995.99,1254.2)" d="M0,0 C0,2.8 2.2,5 5,5 C7.8,5 10,2.8 10,0 C10,-2.8 7.8,-5 5,-5 C2.2,-5 0,-2.8 0,0"/>
<path class="NoteDot" transform="matrix(0.992,0,0,0.992,2480.98,770.598)" d="M0,0 C0,2.8 2.2,5 5,5 C7.8,5 10,2.8 10,0 C10,-2.8 7.8,-5 5,-5 C2.2,-5 0,-2.8 0,0"/>
<path class="NoteDot" transform="matrix(0.992,0,0,0.992,2598.27,2829)" d="M0,0 C0,2.8 2.2,5 5,5 C7.8,5 10,2.8 10,0 C10,-2.8 7.8,-5 5,-5 C2.2,-5 0,-2.8 0,0"/>
</svg>
