<?xml version="1.0" encoding="UTF-8" standalone="no"?>
<svg width="2977.2px" height="4208.4px" viewBox="0 0 2977.2 4208.4"
 xmlns="http://www.w3.org/2000/svg" xmlns:xlink="http://www.w3.org/1999/xlink" version="1.2" baseProfile="tiny">
<title>ジェリコの戦い</title>
<desc>Generated by MuseScore Studio 4.4.3</desc>
<path class="" fill="#ffffff" fill-rule="evenodd" d="M0,0 L2977.2,0 L2977.2,4208.4 L0,4208.4 L0,0 "/>
<polyline class="StaffLines" fill="none" stroke="#000000" stroke-width="2.73" stroke-linejoin="bevel" points="212.598,634.198 2764.6,634.198"/>
<polyline class="StaffLines" fill="none" stroke="#000000" stroke-width="2.73" stroke-linejoin="bevel" points="212.598,658.998 2764.6,658.998"/>
<polyline class="StaffLines" fill="none" stroke="#000000" stroke-width="2.73" stroke-linejoin="bevel" points="212.598,683.798 2764.6,683.798"/>
<polyline class="StaffLines" fill="none" stroke="#000000" stroke-width="2.73" stroke-linejoin="bevel" points="212.598,708.598 2764.6,708.598"/>
<polyline class="StaffLines" fill="none" stroke="#000000" stroke-width="2.73" stroke-linejoin="bevel" points="212.598,733.398 2764.6,733.398"/>
<polyline class="StaffLines" fill="none" stroke="#000000" stroke-width="2.73" stroke-linejoin="bevel" points="212.598,1192.2 2764.6,1192.2"/>
<polyline class="StaffLines" fill="none" stroke="#000000" stroke-width="2.73" stroke-linejoin="bevel" points="212.598,1217 2764.6,1217"/>
<polyline class="StaffLines" fill="none" stroke="#000000" stroke-width="2.73" stroke-linejoin="bevel" points="212.598,1241.8 2764.6,1241.8"/>
<polyline class="StaffLines" fill="none" stroke="#000000" stroke-width="2.73" stroke-linejoin="bevel" points="212.598,1266.6 2764.6,1266.6"/>
<polyline class="StaffLines" fill="none" stroke="#000000" stroke-width="2.73" stroke-linejoin="bevel" points="212.598,1291.4 2764.6,1291.4"/>
<polyline class="StaffLines" fill="none" stroke="#000000" stroke-width="2.73" stroke-linejoin="bevel" points="212.598,1750.2 2764.6,1750.2"/>
<polyline class="StaffLines" fill="none" stroke="#000000" stroke-width="2.73" stroke-linejoin="bevel" points="212.598,1775 2764.6,1775"/>
<polyline class="StaffLines" fill="none" stroke="#000000" stroke-width="2.73" stroke-linejoin="bevel" points="212.598,1799.8 2764.6,1799.8"/>
<polyline class="StaffLines" fill="none" stroke="#000000" stroke-width="2.73" stroke-linejoin="bevel" points="212.598,1824.6 2764.6,1824.6"/>
<polyline class="StaffLines" fill="none" stroke="#000000" stroke-width="2.73" stroke-linejoin="bevel" points="212.598,1849.4 2764.6,1849.4"/>
<polyline class="StaffLines" fill="none" stroke="#000000" stroke-width="2.73" stroke-linejoin="bevel" points="212.598,2308.2 2764.6,2308.2"/>
<polyline class="StaffLines" fill="none" stroke="#000000" stroke-width="2.73" stroke-linejoin="bevel" points="212.598,2333 2764.6,2333"/>
<polyline class="StaffLines" fill="none" stroke="#000000" stroke-width="2.73" stroke-linejoin="bevel" points="212.598,2357.8 2764.6,2357.8"/>
<polyline class="StaffLines" fill="none" stroke="#000000" stroke-width="2.73" stroke-linejoin="bevel" points="212.598,2382.6 2764.6,2382.6"/>
<polyline class="StaffLines" fill="none" stroke="#000000" stroke-width="2.73" stroke-linejoin="bevel" points="212.598,2407.4 2764.6,2407.4"/>
<path class="Text" d="M1124.12,230.205 C1130.39,232.075 1145.02,239.995 1151.18,244.835 L1155.69,237.465 C1147.11,232.075 1138.42,227.675 1128.41,223.605 L1124.12,230.205 M1115.43,256.605 C1124.34,259.795 1136.99,266.615 1143.48,271.675 L1147.77,264.195 C1139.08,258.695 1129.4,253.745 1119.83,249.895 L1115.43,256.605 M1119.17,309.185 C1120.82,308.635 1121.04,308.635 1123.46,308.085 C1163.06,300.605 1185.72,283.335 1199.58,250.005 C1196.72,248.025 1195.4,246.925 1192.76,244.065 C1184.84,267.385 1167.79,285.535 1146.56,293.345 C1136.22,297.305 1123.9,300.165 1117.63,300.165 C1117.41,300.165 1117.19,300.165 1116.97,300.165 L1119.17,309.185 M1180.55,221.405 C1183.74,224.925 1189.02,233.065 1191.77,238.895 L1197.27,235.595 C1193.97,229.105 1190.89,224.485 1186.05,218.545 L1180.55,221.405 M1192.98,215.575 C1197.27,220.525 1201.89,227.675 1204.31,232.845 L1209.81,229.655 C1206.18,222.725 1203.43,218.655 1198.37,212.605 L1192.98,215.575 M1264.15,262.985 L1281.09,262.985 C1286.92,262.985 1287.8,262.985 1290.77,263.425 L1290.77,255.725 C1288.13,256.165 1285.49,256.385 1280.98,256.385 L1240.83,256.385 C1236.43,256.385 1233.79,256.165 1231.04,255.725 L1231.04,263.425 C1233.57,263.095 1235.99,262.985 1240.83,262.985 L1256.56,262.985 L1256.56,301.045 L1234.23,301.045 C1228.95,301.045 1227.19,300.935 1224.33,300.385 L1224.33,308.195 C1226.97,307.865 1229.61,307.755 1234.34,307.755 L1287.58,307.755 C1292.09,307.755 1294.95,307.865 1297.59,308.195 L1297.59,300.495 C1294.84,300.935 1292.86,301.045 1287.69,301.045 L1264.15,301.045 L1264.15,262.985 M1341.81,222.835 C1342.14,225.475 1342.25,227.345 1342.25,232.075 L1342.25,261.445 C1342.25,265.845 1342.14,268.155 1341.81,270.685 L1350.94,270.685 C1350.61,268.045 1350.5,266.835 1350.5,261.555 L1350.5,231.965 C1350.5,226.905 1350.61,225.475 1350.94,222.835 L1341.81,222.835 M1390.43,222.835 C1390.76,225.255 1390.87,226.795 1390.87,232.515 L1390.87,244.945 C1390.87,261.665 1390.54,266.725 1389.33,272.995 C1387.24,283.225 1381.96,290.265 1371.73,296.205 C1366.01,299.615 1360.73,301.485 1350.83,303.685 C1353.58,306.985 1354.24,308.085 1355.45,311.275 C1364.8,308.525 1370.08,306.435 1375.47,303.355 C1386.25,297.305 1393.18,289.275 1396.37,278.935 C1398.35,272.555 1399.12,262.875 1399.12,245.385 L1399.12,232.405 C1399.12,227.125 1399.23,225.365 1399.67,222.835 L1390.43,222.835 M1508.35,299.835 L1508.35,306.435 L1517.15,306.435 C1516.82,304.455 1516.6,300.495 1516.6,296.425 L1516.6,240.105 C1516.6,236.145 1516.6,234.275 1516.82,231.525 C1514.07,231.635 1512.53,231.745 1511.1,231.745 L1458.3,231.745 C1451.15,231.745 1449.5,231.635 1445.65,230.975 L1445.65,239.775 C1449.39,239.335 1451.7,239.225 1458.3,239.225 L1508.35,239.225 L1508.35,292.355 L1455.99,292.355 C1449.17,292.355 1447.63,292.245 1444,291.585 L1444,300.275 C1446.86,299.945 1446.86,299.945 1455.77,299.835 L1508.35,299.835 "/>
<path class="Text" d="M1596.9,234.825 C1602.4,235.045 1605.59,235.815 1609.66,237.575 C1620.77,242.525 1627.15,252.645 1627.15,265.185 C1627.15,278.715 1619.78,290.485 1607.68,295.985 C1602.51,298.405 1597.34,299.835 1589.31,301.155 C1591.4,303.795 1592.06,304.895 1593.16,308.525 C1600.75,306.875 1604.93,305.555 1609.88,303.465 C1625.83,296.645 1635.07,282.565 1635.07,265.515 C1635.07,254.955 1631.33,245.385 1624.4,238.675 C1617.25,231.635 1606.47,227.785 1594.15,227.785 C1579.41,227.785 1567.42,232.735 1558.62,242.415 C1551.25,250.665 1547.07,261.555 1547.07,272.775 C1547.07,288.175 1554.88,299.615 1565.33,299.615 C1573.25,299.615 1579.74,293.015 1586.12,278.495 C1591.07,266.945 1595.25,250.115 1596.9,234.825 M1588.98,234.935 C1587.55,249.015 1583.48,265.295 1578.97,275.635 C1574.24,286.415 1569.84,291.585 1565.22,291.585 C1559.28,291.585 1554.66,283.445 1554.66,272.885 C1554.66,259.245 1561.48,246.815 1572.59,240.105 C1577.65,237.025 1582.38,235.485 1588.98,234.935"/>
<path class="Text" d="M1677.2,278.715 L1677.2,289.275 L1662.79,289.275 C1658.28,289.275 1654.43,289.055 1651.57,288.615 L1651.57,295.985 C1654.21,295.545 1658.39,295.325 1663.12,295.325 L1677.2,295.325 L1677.2,304.785 C1677.2,309.515 1676.98,313.255 1676.54,316.115 L1684.24,316.115 C1683.8,313.255 1683.58,309.735 1683.58,304.895 L1683.58,295.325 L1696.56,295.325 C1699.86,295.325 1703.38,295.545 1707.56,295.875 L1707.56,288.725 C1704.48,289.055 1700.85,289.275 1696.67,289.275 L1683.58,289.275 L1683.58,278.715 L1695.02,278.715 C1699.31,278.715 1701.95,278.825 1705.03,279.155 C1704.7,276.955 1704.59,273.765 1704.59,269.035 L1704.59,249.015 C1704.59,243.955 1704.7,241.095 1705.03,238.565 C1702.39,238.895 1700.19,239.005 1694.91,239.005 C1698.98,233.505 1702.28,227.785 1706.35,219.425 L1699.64,217.005 C1696.01,226.355 1693.04,231.965 1687.87,239.005 L1665.65,239.005 C1660.92,239.005 1658.28,238.895 1656.08,238.565 C1656.3,240.655 1656.41,243.075 1656.41,248.465 L1656.41,269.365 C1656.41,274.755 1656.3,277.065 1656.08,279.155 C1658.39,278.825 1661.58,278.715 1666.31,278.715 L1677.2,278.715 M1677.2,244.725 L1677.2,255.835 L1662.79,255.835 L1662.79,244.725 L1677.2,244.725 M1683.58,244.725 L1698.32,244.725 L1698.32,255.835 L1683.58,255.835 L1683.58,244.725 M1677.2,261.335 L1677.2,273.105 L1662.79,273.105 L1662.79,261.335 L1677.2,261.335 M1683.58,261.335 L1698.32,261.335 L1698.32,273.105 L1683.58,273.105 L1683.58,261.335 M1738.69,259.465 C1737.37,265.515 1733.74,273.215 1728.79,280.145 C1727.14,272.885 1726.04,264.855 1725.38,254.075 L1741.11,252.205 C1744.08,251.875 1747.27,251.655 1748.81,251.655 C1749.14,251.655 1749.47,251.655 1749.91,251.655 L1749.47,244.615 C1747.16,245.275 1744.85,245.605 1740.67,246.045 L1725.05,247.805 C1724.83,243.625 1724.61,233.835 1724.61,228.005 C1724.61,222.065 1724.72,219.645 1725.27,217.335 L1717.24,217.335 C1717.68,219.645 1717.79,221.515 1717.9,225.915 C1718.12,239.225 1718.12,239.335 1718.56,248.465 L1715.59,248.795 C1712.73,249.125 1709.87,249.345 1708.33,249.345 C1708,249.345 1707.45,249.345 1706.68,249.235 L1707.45,256.385 C1709.65,255.835 1711.08,255.615 1715.81,255.175 L1719,254.735 C1720.1,267.935 1721.42,276.295 1723.95,286.305 C1715.59,295.985 1706.9,302.695 1695.13,308.415 C1697.33,310.065 1698.76,311.495 1700.3,313.915 C1710.86,307.755 1718.12,301.925 1726.04,293.345 C1730.66,306.435 1736.93,314.685 1742.21,314.685 C1746.61,314.685 1749.58,309.185 1752.22,295.545 C1750.24,294.445 1748.92,293.345 1746.61,290.925 C1745.07,301.155 1743.31,306.765 1741.66,306.765 C1739.13,306.765 1734.4,298.295 1730.88,287.625 C1735.72,281.135 1737.48,278.275 1742.21,268.705 C1743.97,265.185 1744.96,263.205 1745.18,262.875 L1738.69,259.465 M1653.22,220.415 C1657.07,225.915 1659.16,230.095 1661.69,236.915 L1667.74,234.495 C1664.77,227.345 1663.23,224.485 1659.16,218.105 L1653.22,220.415 M1671.37,218.765 C1675.11,225.255 1676.65,229.105 1678.63,236.145 L1684.79,233.945 C1682.37,226.245 1681.27,223.605 1677.53,216.675 L1671.37,218.765 M1746.61,237.465 C1742.54,230.645 1740.34,227.675 1734.07,220.855 L1729.34,223.935 C1735.28,230.755 1737.48,233.835 1741.44,240.985 L1746.61,237.465 "/>
<path class="Text" d="M1770.92,229.765 C1771.14,231.745 1771.14,232.075 1771.25,236.255 C1771.8,263.315 1773.34,277.395 1777.19,287.845 C1780.93,298.405 1786.65,304.565 1792.81,304.565 C1800.62,304.565 1805.68,297.195 1811.07,277.945 C1807.99,275.525 1807,274.535 1804.58,271.675 C1803.15,279.155 1801.39,284.985 1798.86,290.485 C1797.21,294.115 1795.34,295.985 1793.36,295.985 C1789.18,295.985 1784.67,288.395 1782.25,277.175 C1780.6,270.135 1779.39,255.065 1779.39,242.965 C1779.39,236.915 1779.61,233.285 1780.16,229.875 L1770.92,229.765 M1826.58,239.115 C1839.45,254.075 1847.48,272.885 1849.46,293.345 L1857.27,290.155 C1855.29,277.835 1853.2,270.025 1849.02,260.785 C1844.95,251.435 1840.44,244.175 1833.29,235.705 L1826.58,239.115 "/>
<path class="MeasureNumber" d="M216.922,1127.28 C215.682,1128.04 215.322,1128.52 215.322,1129.32 C215.322,1130.08 215.962,1130.64 216.762,1130.64 C217.802,1130.64 218.402,1129.88 218.522,1128.4 C219.762,1127.4 221.082,1126.96 222.682,1126.96 C225.642,1126.96 227.282,1128.8 227.282,1132.12 C227.282,1137.32 223.922,1141.56 219.802,1141.56 C217.442,1141.56 215.522,1140.44 215.522,1139.12 C215.522,1138.88 215.562,1138.8 215.762,1138.68 C217.042,1138.08 218.082,1137.64 218.082,1135.96 C218.082,1134.68 217.082,1133.72 215.682,1133.72 C213.922,1133.72 212.602,1135.2 212.602,1137.12 C212.602,1140.64 215.642,1143.2 219.922,1143.2 C226.402,1143.2 231.642,1138.04 231.642,1131.64 C231.642,1127.6 228.562,1124.76 224.202,1124.76 C222.482,1124.76 221.082,1125.12 219.162,1126.08 L221.402,1118.52 C223.522,1118.96 225.202,1119.16 226.642,1119.16 C229.282,1119.16 231.642,1118.32 232.962,1116.92 C233.642,1116.12 234.042,1115.44 234.042,1114.92 C234.042,1114.68 233.922,1114.44 233.762,1114.44 C233.642,1114.44 233.562,1114.48 233.322,1114.6 C232.002,1115.24 230.322,1115.6 228.762,1115.6 C226.362,1115.6 223.522,1115.2 220.562,1114.44 L216.922,1127.28 "/>
<path class="MeasureNumber" d="M228.958,2230.28 L227.798,2230.28 C225.598,2231.92 221.358,2233.32 218.478,2233.32 L217.998,2235.08 L220.758,2235.08 C223.198,2235.08 223.478,2235.16 223.478,2235.88 C223.478,2236.24 223.478,2236.24 223.078,2237.68 L218.798,2253.68 C218.278,2255.68 218.238,2255.8 217.878,2256.16 C217.478,2256.56 216.638,2256.68 214.518,2256.72 L212.798,2256.72 L212.598,2258.6 L227.398,2258.6 L227.638,2256.72 L225.478,2256.72 C222.878,2256.72 222.318,2256.52 222.318,2255.64 C222.318,2255.36 222.478,2254.44 222.678,2253.68 L228.958,2230.28 M246.433,2244.04 C248.313,2243.44 249.073,2243.12 250.033,2242.48 C251.913,2241.24 253.073,2239.04 253.073,2236.8 C253.073,2233 250.033,2230.44 245.553,2230.44 C241.193,2230.44 237.513,2233.16 237.513,2236.44 C237.513,2238.08 238.513,2239.2 240.033,2239.2 C241.353,2239.2 242.313,2238.24 242.313,2236.92 C242.313,2236.24 242.113,2235.76 241.473,2235.12 C241.073,2234.76 240.913,2234.48 240.913,2234.2 C240.913,2233.24 242.913,2232.24 244.793,2232.24 C247.473,2232.24 249.073,2233.72 249.073,2236.2 C249.073,2239.76 246.553,2243.12 243.873,2243.12 C243.753,2243.12 243.393,2243.08 242.953,2243.04 C241.793,2242.96 241.793,2242.96 241.553,2242.96 C240.673,2242.96 240.193,2243.36 240.193,2244.08 C240.193,2244.72 240.633,2245.12 241.353,2245.12 C241.553,2245.12 241.833,2245.08 242.153,2245.04 C242.713,2244.92 243.313,2244.88 243.673,2244.88 C245.553,2244.88 246.833,2246.56 246.833,2249.04 C246.833,2253.36 244.713,2257.52 239.873,2257.52 C237.633,2257.52 235.713,2256.4 235.713,2255.12 C235.713,2254.68 235.873,2254.52 236.513,2254.24 C237.673,2253.72 238.153,2253 238.153,2251.92 C238.153,2250.52 237.033,2249.44 235.593,2249.44 C233.873,2249.44 232.753,2250.8 232.753,2252.88 C232.753,2256.76 235.713,2259.2 240.513,2259.2 C246.553,2259.2 251.153,2255.16 251.153,2249.8 C251.153,2246.68 249.233,2244.92 246.433,2244.04"/>
<path class="MeasureNumber" d="M228.053,1686.92 C227.053,1691.56 224.373,1699.52 218.653,1699.52 C217.493,1699.52 216.733,1699.04 216.733,1698.32 C216.733,1698.04 216.813,1697.92 217.133,1697.44 C217.533,1696.92 217.733,1696.44 217.733,1695.88 C217.733,1694.56 216.693,1693.56 215.333,1693.56 C213.733,1693.56 212.613,1694.76 212.613,1696.52 C212.613,1699.24 215.173,1701.2 218.733,1701.2 C227.493,1701.2 233.093,1690 233.093,1682.4 C233.093,1676.16 230.093,1672.44 225.133,1672.44 C219.173,1672.44 214.733,1677.92 214.733,1683.64 C214.733,1687.44 217.653,1690.32 221.533,1690.32 C224.173,1690.32 226.213,1689.24 228.053,1686.92 M225.093,1674.12 C227.653,1674.12 229.293,1676.16 229.293,1679.36 C229.293,1684.32 226.573,1687.96 222.893,1687.96 C220.373,1687.96 218.973,1686.24 218.973,1683.24 C218.973,1679.64 220.693,1674.12 225.093,1674.12"/>
<path class="TieSegment" stroke="#000000" stroke-width="1.24" stroke-linecap="round" stroke-linejoin="round" fill-rule="evenodd" d="M1952.47,726.795 C1969.03,743.36 2018.72,743.36 2035.28,726.795 C2018.72,750.64 1969.03,750.64 1952.47,726.795"/>
<path class="TieSegment" stroke="#000000" stroke-width="1.24" stroke-linecap="round" stroke-linejoin="round" fill-rule="evenodd" d="M1365.81,1272.29 C1382.29,1283.92 1431.73,1283.92 1448.21,1272.29 C1431.73,1291.18 1382.29,1291.18 1365.81,1272.29"/>
<path class="TieSegment" stroke="#000000" stroke-width="1.24" stroke-linecap="round" stroke-linejoin="round" fill-rule="evenodd" d="M1412.34,714.395 C1428.91,725.911 1478.59,725.911 1495.15,714.395 C1478.59,733.192 1428.91,733.192 1412.34,714.395"/>
<path class="TieSegment" stroke="#000000" stroke-width="1.24" stroke-linecap="round" stroke-linejoin="round" fill-rule="evenodd" d="M2492.6,714.395 C2509.16,725.911 2558.85,725.911 2575.41,714.395 C2558.85,733.192 2509.16,733.192 2492.6,714.395"/>
<polyline class="BarLine" fill="none" stroke="#000000" stroke-width="4.46" stroke-linejoin="bevel" points="1141.99,632.834 1141.99,734.762"/>
<polyline class="BarLine" fill="none" stroke="#000000" stroke-width="4.46" stroke-linejoin="bevel" points="1654.26,1748.83 1654.26,1850.76"/>
<polyline class="BarLine" fill="none" stroke="#000000" stroke-width="4.46" stroke-linejoin="bevel" points="1096.48,1190.83 1096.48,1292.76"/>
<polyline class="BarLine" fill="none" stroke="#000000" stroke-width="4.46" stroke-linejoin="bevel" points="2325.79,1748.83 2325.79,1850.76"/>
<path class="BarLine" transform="matrix(0.992,0,0,0.992,2314.19,2345.4)" d="M10.4,0 C10.4,-2.9 8.1,-5.3 5.2,-5.3 C2.3,-5.3 0,-2.9 0,0 C0,2.9 2.3,5.3 5.2,5.3 C8.1,5.3 10.4,2.9 10.4,0"/>
<path class="BarLine" transform="matrix(0.992,0,0,0.992,2314.19,2370.2)" d="M10.4,0 C10.4,-2.9 8.1,-5.3 5.2,-5.3 C2.3,-5.3 0,-2.9 0,0 C0,2.9 2.3,5.3 5.2,5.3 C8.1,5.3 10.4,2.9 10.4,0"/>
<polyline class="BarLine" fill="none" stroke="#000000" stroke-width="4.46" stroke-linejoin="bevel" points="2335.91,2306.83 2335.91,2408.76"/>
<polyline class="BarLine" fill="none" stroke="#000000" stroke-width="13.64" stroke-linejoin="bevel" points="2354.14,2306.83 2354.14,2408.76"/>
<polyline class="BarLine" fill="none" stroke="#000000" stroke-width="4.46" stroke-linejoin="bevel" points="1743.44,1190.83 1743.44,1292.76"/>
<polyline class="BarLine" fill="none" stroke="#000000" stroke-width="4.46" stroke-linejoin="bevel" points="1042.78,1748.83 1042.78,1850.76"/>
<polyline class="BarLine" fill="none" stroke="#000000" stroke-width="4.46" stroke-linejoin="bevel" points="2303.03,1190.83 2303.03,1292.76"/>
<polyline class="BarLine" fill="none" stroke="#000000" stroke-width="4.46" stroke-linejoin="bevel" points="1898.67,2306.83 1898.67,2408.76"/>
<polyline class="BarLine" fill="none" stroke="#000000" stroke-width="4.46" stroke-linejoin="bevel" points="2762.37,632.834 2762.37,734.762"/>
<polyline class="BarLine" fill="none" stroke="#000000" stroke-width="4.46" stroke-linejoin="bevel" points="2762.37,1748.83 2762.37,1850.76"/>
<polyline class="BarLine" fill="none" stroke="#000000" stroke-width="4.46" stroke-linejoin="bevel" points="1351.09,2306.83 1351.09,2408.76"/>
<polyline class="BarLine" fill="none" stroke="#000000" stroke-width="4.46" stroke-linejoin="bevel" points="2748.73,2306.83 2748.73,2408.76"/>
<polyline class="BarLine" fill="none" stroke="#000000" stroke-width="4.46" stroke-linejoin="bevel" points="2762.37,2306.83 2762.37,2408.76"/>
<polyline class="BarLine" fill="none" stroke="#000000" stroke-width="4.46" stroke-linejoin="bevel" points="2222.24,632.834 2222.24,734.762"/>
<polyline class="BarLine" fill="none" stroke="#000000" stroke-width="4.46" stroke-linejoin="bevel" points="2762.37,1190.83 2762.37,1292.76"/>
<polyline class="BarLine" fill="none" stroke="#000000" stroke-width="4.46" stroke-linejoin="bevel" points="1682.11,632.834 1682.11,734.762"/>
<polyline class="BarLine" fill="none" stroke="#000000" stroke-width="4.46" stroke-linejoin="bevel" points="862.599,2306.83 862.599,2408.76"/>
<path class="Accidental" transform="matrix(0.992,0,0,0.992,445.918,1316.2)" d="M23.3,-10.5 C23.9,-10.6 24.4,-11.3 24.4,-11.9 L24.4,-17.8 C24.4,-18.8 23.7,-19.2 22.8,-19.2 L19.5,-18.5 L19.5,-33.4 L16.7,-33.4 L16.7,-17.9 L7.8,-16.1 L7.8,-30.2 L5,-30.2 L5,-15.5 L1.1,-14.7 C0.5,-14.6 0,-13.9 0,-13.3 L0,-7.5 C0,-6.4 0.8,-6.1 1.7,-6.1 L5,-6.8 L5,9.7 L1.1,10.5 C0.5,10.6 0,11.3 0,11.9 L0,17.7 C0,18.8 0.8,19.1 1.7,19.1 L5,18.4 L5,33.3 L7.8,33.3 L7.8,17.8 L16.7,16 L16.7,30.1 L19.5,30.1 L19.5,15.4 L23.3,14.7 C23.9,14.6 24.4,13.9 24.4,13.3 L24.4,7.4 C24.4,6.4 23.7,6 22.8,6 L19.5,6.7 L19.5,-9.8 L23.3,-10.5 M7.8,-7.4 L16.7,-9.2 L16.7,7.3 L7.8,9.2 L7.8,-7.4 "/>
<path class="Accidental" transform="matrix(0.992,0,0,0.992,488.536,758.198)" d="M23.3,-10.5 C23.9,-10.6 24.4,-11.3 24.4,-11.9 L24.4,-17.8 C24.4,-18.8 23.7,-19.2 22.8,-19.2 L19.5,-18.5 L19.5,-33.4 L16.7,-33.4 L16.7,-17.9 L7.8,-16.1 L7.8,-30.2 L5,-30.2 L5,-15.5 L1.1,-14.7 C0.5,-14.6 0,-13.9 0,-13.3 L0,-7.5 C0,-6.4 0.8,-6.1 1.7,-6.1 L5,-6.8 L5,9.7 L1.1,10.5 C0.5,10.6 0,11.3 0,11.9 L0,17.7 C0,18.8 0.8,19.1 1.7,19.1 L5,18.4 L5,33.3 L7.8,33.3 L7.8,17.8 L16.7,16 L16.7,30.1 L19.5,30.1 L19.5,15.4 L23.3,14.7 C23.9,14.6 24.4,13.9 24.4,13.3 L24.4,7.4 C24.4,6.4 23.7,6 22.8,6 L19.5,6.7 L19.5,-9.8 L23.3,-10.5 M7.8,-7.4 L16.7,-9.2 L16.7,7.3 L7.8,9.2 L7.8,-7.4 "/>
<path class="Accidental" transform="matrix(0.992,0,0,0.992,2591.5,1787.4)" d="M23.3,-10.5 C23.9,-10.6 24.4,-11.3 24.4,-11.9 L24.4,-17.8 C24.4,-18.8 23.7,-19.2 22.8,-19.2 L19.5,-18.5 L19.5,-33.4 L16.7,-33.4 L16.7,-17.9 L7.8,-16.1 L7.8,-30.2 L5,-30.2 L5,-15.5 L1.1,-14.7 C0.5,-14.6 0,-13.9 0,-13.3 L0,-7.5 C0,-6.4 0.8,-6.1 1.7,-6.1 L5,-6.8 L5,9.7 L1.1,10.5 C0.5,10.6 0,11.3 0,11.9 L0,17.7 C0,18.8 0.8,19.1 1.7,19.1 L5,18.4 L5,33.3 L7.8,33.3 L7.8,17.8 L16.7,16 L16.7,30.1 L19.5,30.1 L19.5,15.4 L23.3,14.7 C23.9,14.6 24.4,13.9 24.4,13.3 L24.4,7.4 C24.4,6.4 23.7,6 22.8,6 L19.5,6.7 L19.5,-9.8 L23.3,-10.5 M7.8,-7.4 L16.7,-9.2 L16.7,7.3 L7.8,9.2 L7.8,-7.4 "/>
<polyline class="LedgerLine" fill="none" stroke="#000000" stroke-width="3.97" stroke-linejoin="bevel" points="517.196,758.198 565.788,758.198"/>
<polyline class="LedgerLine" fill="none" stroke="#000000" stroke-width="3.97" stroke-linejoin="bevel" points="474.577,1316.2 523.17,1316.2"/>
<polyline class="Stem" fill="none" stroke="#000000" stroke-width="2.48" stroke-linejoin="bevel" points="926.815,2366.23 926.815,2289.6"/>
<polyline class="Stem" fill="none" stroke="#000000" stroke-width="2.48" stroke-linejoin="bevel" points="2586.67,1221.16 2586.67,1291.4"/>
<polyline class="Stem" fill="none" stroke="#000000" stroke-width="2.48" stroke-linejoin="bevel" points="2053.52,704.63 2053.52,621.798"/>
<polyline class="Stem" fill="none" stroke="#000000" stroke-width="2.48" stroke-linejoin="bevel" points="1222.27,2366.23 1222.27,2302"/>
<polyline class="Stem" fill="none" stroke="#000000" stroke-width="2.48" stroke-linejoin="bevel" points="907.435,729.43 907.435,638.322"/>
<polyline class="Stem" fill="none" stroke="#000000" stroke-width="2.48" stroke-linejoin="bevel" points="1301.05,2366.23 1301.05,2302"/>
<polyline class="Stem" fill="none" stroke="#000000" stroke-width="2.48" stroke-linejoin="bevel" points="1965.75,704.63 1965.75,621.997"/>
<polyline class="Stem" fill="none" stroke="#000000" stroke-width="2.48" stroke-linejoin="bevel" points="396.645,1779.16 396.645,1880.4"/>
<polyline class="Stem" fill="none" stroke="#000000" stroke-width="2.48" stroke-linejoin="bevel" points="2286.46,692.23 2286.46,615.797"/>
<polyline class="Stem" fill="none" stroke="#000000" stroke-width="2.48" stroke-linejoin="bevel" points="2157.86,2337.16 2157.86,2407.4"/>
<polyline class="Stem" fill="none" stroke="#000000" stroke-width="2.48" stroke-linejoin="bevel" points="2374.23,692.23 2374.23,615.598"/>
<polyline class="Stem" fill="none" stroke="#000000" stroke-width="2.48" stroke-linejoin="bevel" points="819.667,717.03 819.667,640.369"/>
<polyline class="Stem" fill="none" stroke="#000000" stroke-width="2.48" stroke-linejoin="bevel" points="1082.97,704.63 1082.97,634.227"/>
<polyline class="Stem" fill="none" stroke="#000000" stroke-width="2.48" stroke-linejoin="bevel" points="2505.88,692.23 2505.88,615.797"/>
<polyline class="Stem" fill="none" stroke="#000000" stroke-width="2.48" stroke-linejoin="bevel" points="544.57,2366.23 544.57,2289.6"/>
<polyline class="Stem" fill="none" stroke="#000000" stroke-width="2.48" stroke-linejoin="bevel" points="2593.64,692.23 2593.64,615.598"/>
<polyline class="Stem" fill="none" stroke="#000000" stroke-width="2.48" stroke-linejoin="bevel" points="2623.13,1791.56 2623.13,1868"/>
<polyline class="Stem" fill="none" stroke="#000000" stroke-width="2.48" stroke-linejoin="bevel" points="1834.1,704.63 1834.1,621.798"/>
<polyline class="Stem" fill="none" stroke="#000000" stroke-width="2.48" stroke-linejoin="bevel" points="731.899,729.43 731.899,659.027"/>
<polyline class="Stem" fill="none" stroke="#000000" stroke-width="2.48" stroke-linejoin="bevel" points="1415.3,2366.23 1415.3,2302"/>
<polyline class="Stem" fill="none" stroke="#000000" stroke-width="2.48" stroke-linejoin="bevel" points="644.132,741.83 644.132,661.075"/>
<polyline class="Stem" fill="none" stroke="#000000" stroke-width="2.48" stroke-linejoin="bevel" points="1962.88,2415.83 1962.88,2333"/>
<polyline class="Stem" fill="none" stroke="#000000" stroke-width="2.48" stroke-linejoin="bevel" points="1746.33,704.63 1746.33,621.997"/>
<polyline class="Stem" fill="none" stroke="#000000" stroke-width="2.48" stroke-linejoin="bevel" points="1494.09,2366.23 1494.09,2302"/>
<polyline class="Stem" fill="none" stroke="#000000" stroke-width="2.48" stroke-linejoin="bevel" points="2390,1808.23 2390,1731.6"/>
<polyline class="Stem" fill="none" stroke="#000000" stroke-width="2.48" stroke-linejoin="bevel" points="426.39,1299.83 426.39,1223.17"/>
<polyline class="Stem" fill="none" stroke="#000000" stroke-width="2.48" stroke-linejoin="bevel" points="488.808,1816.36 488.808,1880.4"/>
<polyline class="Stem" fill="none" stroke="#000000" stroke-width="2.48" stroke-linejoin="bevel" points="995.202,717.03 995.202,636.275"/>
<polyline class="Stem" fill="none" stroke="#000000" stroke-width="2.48" stroke-linejoin="bevel" points="513.746,1312.23 513.746,1221.12"/>
<polyline class="Stem" fill="none" stroke="#000000" stroke-width="2.48" stroke-linejoin="bevel" points="662.751,2366.23 662.751,2289.8"/>
<polyline class="Stem" fill="none" stroke="#000000" stroke-width="2.48" stroke-linejoin="bevel" points="1513.39,692.23 1513.39,615.598"/>
<polyline class="Stem" fill="none" stroke="#000000" stroke-width="2.48" stroke-linejoin="bevel" points="741.538,2366.23 741.538,2289.6"/>
<polyline class="Stem" fill="none" stroke="#000000" stroke-width="2.48" stroke-linejoin="bevel" points="601.101,1299.83 601.101,1219.07"/>
<polyline class="Stem" fill="none" stroke="#000000" stroke-width="2.48" stroke-linejoin="bevel" points="2422.94,2415.83 2422.94,2333"/>
<polyline class="Stem" fill="none" stroke="#000000" stroke-width="2.48" stroke-linejoin="bevel" points="688.457,1287.43 688.457,1217.03"/>
<polyline class="Stem" fill="none" stroke="#000000" stroke-width="2.48" stroke-linejoin="bevel" points="2179.29,1808.23 2179.29,1731.6"/>
<polyline class="Stem" fill="none" stroke="#000000" stroke-width="2.48" stroke-linejoin="bevel" points="775.812,1275.03 775.812,1198.37"/>
<polyline class="Stem" fill="none" stroke="#000000" stroke-width="2.48" stroke-linejoin="bevel" points="2087.13,1808.23 2087.13,1731.8"/>
<polyline class="Stem" fill="none" stroke="#000000" stroke-width="2.48" stroke-linejoin="bevel" points="2674.02,1221.16 2674.02,1291.4"/>
<polyline class="Stem" fill="none" stroke="#000000" stroke-width="2.48" stroke-linejoin="bevel" points="863.168,1287.43 863.168,1196.32"/>
<polyline class="Stem" fill="none" stroke="#000000" stroke-width="2.48" stroke-linejoin="bevel" points="1994.97,1808.23 1994.97,1744"/>
<polyline class="Stem" fill="none" stroke="#000000" stroke-width="2.48" stroke-linejoin="bevel" points="950.524,1275.03 950.524,1194.27"/>
<polyline class="Stem" fill="none" stroke="#000000" stroke-width="2.48" stroke-linejoin="bevel" points="1902.8,1808.23 1902.8,1744"/>
<polyline class="Stem" fill="none" stroke="#000000" stroke-width="2.48" stroke-linejoin="bevel" points="1037.88,1262.63 1037.88,1192.23"/>
<polyline class="Stem" fill="none" stroke="#000000" stroke-width="2.48" stroke-linejoin="bevel" points="1810.64,1808.23 1810.64,1744"/>
<polyline class="Stem" fill="none" stroke="#000000" stroke-width="2.48" stroke-linejoin="bevel" points="556.364,754.23 556.364,663.122"/>
<polyline class="Stem" fill="none" stroke="#000000" stroke-width="2.48" stroke-linejoin="bevel" points="1425.62,692.23 1425.62,615.797"/>
<polyline class="Stem" fill="none" stroke="#000000" stroke-width="2.48" stroke-linejoin="bevel" points="580.971,1816.36 580.971,1880.4"/>
<polyline class="Stem" fill="none" stroke="#000000" stroke-width="2.48" stroke-linejoin="bevel" points="1160.7,1250.23 1160.7,1173.8"/>
<polyline class="Stem" fill="none" stroke="#000000" stroke-width="2.48" stroke-linejoin="bevel" points="1718.48,1808.23 1718.48,1744"/>
<polyline class="Stem" fill="none" stroke="#000000" stroke-width="2.48" stroke-linejoin="bevel" points="1248.05,1250.23 1248.05,1173.6"/>
<polyline class="Stem" fill="none" stroke="#000000" stroke-width="2.48" stroke-linejoin="bevel" points="673.134,1816.36 673.134,1880.4"/>
<polyline class="Stem" fill="none" stroke="#000000" stroke-width="2.48" stroke-linejoin="bevel" points="795.042,1808.23 795.042,1731.6"/>
<polyline class="Stem" fill="none" stroke="#000000" stroke-width="2.48" stroke-linejoin="bevel" points="1379.09,1250.23 1379.09,1173.8"/>
<polyline class="Stem" fill="none" stroke="#000000" stroke-width="2.48" stroke-linejoin="bevel" points="1572.88,2378.63 1572.88,2295.8"/>
<polyline class="Stem" fill="none" stroke="#000000" stroke-width="2.48" stroke-linejoin="bevel" points="1466.44,1250.23 1466.44,1173.6"/>
<polyline class="Stem" fill="none" stroke="#000000" stroke-width="2.48" stroke-linejoin="bevel" points="1590.85,1808.23 1590.85,1744"/>
<polyline class="Stem" fill="none" stroke="#000000" stroke-width="2.48" stroke-linejoin="bevel" points="1597.48,1275.03 1597.48,1198.31"/>
<polyline class="Stem" fill="none" stroke="#000000" stroke-width="2.48" stroke-linejoin="bevel" points="1498.69,1808.23 1498.69,1744"/>
<polyline class="Stem" fill="none" stroke="#000000" stroke-width="2.48" stroke-linejoin="bevel" points="1291.32,1808.23 1291.32,1731.6"/>
<polyline class="Stem" fill="none" stroke="#000000" stroke-width="2.48" stroke-linejoin="bevel" points="1684.83,1262.63 1684.83,1192.28"/>
<polyline class="Stem" fill="none" stroke="#000000" stroke-width="2.48" stroke-linejoin="bevel" points="1199.16,1808.23 1199.16,1744"/>
<polyline class="Stem" fill="none" stroke="#000000" stroke-width="2.48" stroke-linejoin="bevel" points="1691.06,2391.03 1691.06,2308.2"/>
<polyline class="Stem" fill="none" stroke="#000000" stroke-width="2.48" stroke-linejoin="bevel" points="1045,2366.23 1045,2289.6"/>
<polyline class="Stem" fill="none" stroke="#000000" stroke-width="2.48" stroke-linejoin="bevel" points="1807.65,1250.23 1807.65,1173.6"/>
<polyline class="Stem" fill="none" stroke="#000000" stroke-width="2.48" stroke-linejoin="bevel" points="1106.99,1808.23 1106.99,1744"/>
<polyline class="Stem" fill="none" stroke="#000000" stroke-width="2.48" stroke-linejoin="bevel" points="1938.69,1262.63 1938.69,1179.8"/>
<polyline class="Stem" fill="none" stroke="#000000" stroke-width="2.48" stroke-linejoin="bevel" points="1293.97,692.23 1293.97,615.598"/>
<polyline class="Stem" fill="none" stroke="#000000" stroke-width="2.48" stroke-linejoin="bevel" points="2069.72,1275.03 2069.72,1192.2"/>
<polyline class="Stem" fill="none" stroke="#000000" stroke-width="2.48" stroke-linejoin="bevel" points="2236.65,2337.16 2236.65,2407.4"/>
<polyline class="Stem" fill="none" stroke="#000000" stroke-width="2.48" stroke-linejoin="bevel" points="2200.75,1287.43 2200.75,1204.6"/>
<polyline class="Stem" fill="none" stroke="#000000" stroke-width="2.48" stroke-linejoin="bevel" points="1809.24,2403.43 1809.24,2320.6"/>
<polyline class="Stem" fill="none" stroke="#000000" stroke-width="2.48" stroke-linejoin="bevel" points="468.596,741.83 468.596,665.169"/>
<polyline class="Stem" fill="none" stroke="#000000" stroke-width="2.48" stroke-linejoin="bevel" points="933.286,1808.23 933.286,1731.6"/>
<polyline class="Stem" fill="none" stroke="#000000" stroke-width="2.48" stroke-linejoin="bevel" points="1206.2,692.23 1206.2,615.797"/>
<polyline class="Stem" fill="none" stroke="#000000" stroke-width="2.48" stroke-linejoin="bevel" points="2367.25,1299.83 2367.25,1217"/>
<polyline class="Stem" fill="none" stroke="#000000" stroke-width="2.48" stroke-linejoin="bevel" points="396.645,2337.16 396.645,2419.8"/>
<path class="Hook" transform="matrix(0.992,0,0,0.992,1204.96,615.598)" d="M0,22.7 C0,23 0.1,23.6 0.8,23.8 C5.1,25.2 13.7,30.6 20.2,41.7 C22,44.8 24.9,49.1 24.9,57.4 C24.9,64.6 23.1,72 20.4,79.2 C20.2,79.8 20.1,80.3 20.1,80.7 C20.1,81.4 20.5,81.7 21.2,81.7 C21.8,81.7 22.3,81.3 22.7,80.6 C27.2,72.6 28.9,63.3 28.9,54.2 C28.4,41.3 21,31.8 21,31.8 C21.3,31.8 11.8,19.5 9.1,15.3 C5.4,9.6 3.7,3.9 3.5,3.5 C3.4,3.2 2.5,-0.4 2.5,-0.4 C2.4,-0.8 1.9,-1.2 1.3,-1.2 C0.6,-1.2 0,-0.6 0,0.1 L0,22.7 "/>
<path class="Hook" transform="matrix(0.992,0,0,0.992,1377.85,1173.6)" d="M0,22.7 C0,23 0.1,23.6 0.8,23.8 C5.1,25.2 13.7,30.6 20.2,41.7 C22,44.8 24.9,49.1 24.9,57.4 C24.9,64.6 23.1,72 20.4,79.2 C20.2,79.8 20.1,80.3 20.1,80.7 C20.1,81.4 20.5,81.7 21.2,81.7 C21.8,81.7 22.3,81.3 22.7,80.6 C27.2,72.6 28.9,63.3 28.9,54.2 C28.4,41.3 21,31.8 21,31.8 C21.3,31.8 11.8,19.5 9.1,15.3 C5.4,9.6 3.7,3.9 3.5,3.5 C3.4,3.2 2.5,-0.4 2.5,-0.4 C2.4,-0.8 1.9,-1.2 1.3,-1.2 C0.6,-1.2 0,-0.6 0,0.1 L0,22.7 "/>
<path class="Hook" transform="matrix(0.992,0,0,0.992,1424.38,615.598)" d="M0,22.7 C0,23 0.1,23.6 0.8,23.8 C5.1,25.2 13.7,30.6 20.2,41.7 C22,44.8 24.9,49.1 24.9,57.4 C24.9,64.6 23.1,72 20.4,79.2 C20.2,79.8 20.1,80.3 20.1,80.7 C20.1,81.4 20.5,81.7 21.2,81.7 C21.8,81.7 22.3,81.3 22.7,80.6 C27.2,72.6 28.9,63.3 28.9,54.2 C28.4,41.3 21,31.8 21,31.8 C21.3,31.8 11.8,19.5 9.1,15.3 C5.4,9.6 3.7,3.9 3.5,3.5 C3.4,3.2 2.5,-0.4 2.5,-0.4 C2.4,-0.8 1.9,-1.2 1.3,-1.2 C0.6,-1.2 0,-0.6 0,0.1 L0,22.7 "/>
<path class="Hook" transform="matrix(0.992,0,0,0.992,1159.46,1173.6)" d="M0,22.7 C0,23 0.1,23.6 0.8,23.8 C5.1,25.2 13.7,30.6 20.2,41.7 C22,44.8 24.9,49.1 24.9,57.4 C24.9,64.6 23.1,72 20.4,79.2 C20.2,79.8 20.1,80.3 20.1,80.7 C20.1,81.4 20.5,81.7 21.2,81.7 C21.8,81.7 22.3,81.3 22.7,80.6 C27.2,72.6 28.9,63.3 28.9,54.2 C28.4,41.3 21,31.8 21,31.8 C21.3,31.8 11.8,19.5 9.1,15.3 C5.4,9.6 3.7,3.9 3.5,3.5 C3.4,3.2 2.5,-0.4 2.5,-0.4 C2.4,-0.8 1.9,-1.2 1.3,-1.2 C0.6,-1.2 0,-0.6 0,0.1 L0,22.7 "/>
<path class="Hook" transform="matrix(0.992,0,0,0.992,2085.89,1731.6)" d="M0,22.7 C0,23 0.1,23.6 0.8,23.8 C5.1,25.2 13.7,30.6 20.2,41.7 C22,44.8 24.9,49.1 24.9,57.4 C24.9,64.6 23.1,72 20.4,79.2 C20.2,79.8 20.1,80.3 20.1,80.7 C20.1,81.4 20.5,81.7 21.2,81.7 C21.8,81.7 22.3,81.3 22.7,80.6 C27.2,72.6 28.9,63.3 28.9,54.2 C28.4,41.3 21,31.8 21,31.8 C21.3,31.8 11.8,19.5 9.1,15.3 C5.4,9.6 3.7,3.9 3.5,3.5 C3.4,3.2 2.5,-0.4 2.5,-0.4 C2.4,-0.8 1.9,-1.2 1.3,-1.2 C0.6,-1.2 0,-0.6 0,0.1 L0,22.7 "/>
<path class="Hook" transform="matrix(0.992,0,0,0.992,1745.09,621.798)" d="M0,22.7 C0,23 0.1,23.6 0.8,23.8 C5.1,25.2 13.7,30.6 20.2,41.7 C22,44.8 24.9,49.1 24.9,57.4 C24.9,64.6 23.1,72 20.4,79.2 C20.2,79.8 20.1,80.3 20.1,80.7 C20.1,81.4 20.5,81.7 21.2,81.7 C21.8,81.7 22.3,81.3 22.7,80.6 C27.2,72.6 28.9,63.3 28.9,54.2 C28.4,41.3 21,31.8 21,31.8 C21.3,31.8 11.8,19.5 9.1,15.3 C5.4,9.6 3.7,3.9 3.5,3.5 C3.4,3.2 2.5,-0.4 2.5,-0.4 C2.4,-0.8 1.9,-1.2 1.3,-1.2 C0.6,-1.2 0,-0.6 0,0.1 L0,22.7 "/>
<path class="Hook" transform="matrix(0.992,0,0,0.992,661.511,2289.6)" d="M0,22.7 C0,23 0.1,23.6 0.8,23.8 C5.1,25.2 13.7,30.6 20.2,41.7 C22,44.8 24.9,49.1 24.9,57.4 C24.9,64.6 23.1,72 20.4,79.2 C20.2,79.8 20.1,80.3 20.1,80.7 C20.1,81.4 20.5,81.7 21.2,81.7 C21.8,81.7 22.3,81.3 22.7,80.6 C27.2,72.6 28.9,63.3 28.9,54.2 C28.4,41.3 21,31.8 21,31.8 C21.3,31.8 11.8,19.5 9.1,15.3 C5.4,9.6 3.7,3.9 3.5,3.5 C3.4,3.2 2.5,-0.4 2.5,-0.4 C2.4,-0.8 1.9,-1.2 1.3,-1.2 C0.6,-1.2 0,-0.6 0,0.1 L0,22.7 "/>
<path class="Hook" transform="matrix(0.992,0,0,0.992,2504.64,615.598)" d="M0,22.7 C0,23 0.1,23.6 0.8,23.8 C5.1,25.2 13.7,30.6 20.2,41.7 C22,44.8 24.9,49.1 24.9,57.4 C24.9,64.6 23.1,72 20.4,79.2 C20.2,79.8 20.1,80.3 20.1,80.7 C20.1,81.4 20.5,81.7 21.2,81.7 C21.8,81.7 22.3,81.3 22.7,80.6 C27.2,72.6 28.9,63.3 28.9,54.2 C28.4,41.3 21,31.8 21,31.8 C21.3,31.8 11.8,19.5 9.1,15.3 C5.4,9.6 3.7,3.9 3.5,3.5 C3.4,3.2 2.5,-0.4 2.5,-0.4 C2.4,-0.8 1.9,-1.2 1.3,-1.2 C0.6,-1.2 0,-0.6 0,0.1 L0,22.7 "/>
<path class="Hook" transform="matrix(0.992,0,0,0.992,1964.51,621.798)" d="M0,22.7 C0,23 0.1,23.6 0.8,23.8 C5.1,25.2 13.7,30.6 20.2,41.7 C22,44.8 24.9,49.1 24.9,57.4 C24.9,64.6 23.1,72 20.4,79.2 C20.2,79.8 20.1,80.3 20.1,80.7 C20.1,81.4 20.5,81.7 21.2,81.7 C21.8,81.7 22.3,81.3 22.7,80.6 C27.2,72.6 28.9,63.3 28.9,54.2 C28.4,41.3 21,31.8 21,31.8 C21.3,31.8 11.8,19.5 9.1,15.3 C5.4,9.6 3.7,3.9 3.5,3.5 C3.4,3.2 2.5,-0.4 2.5,-0.4 C2.4,-0.8 1.9,-1.2 1.3,-1.2 C0.6,-1.2 0,-0.6 0,0.1 L0,22.7 "/>
<path class="Hook" transform="matrix(0.992,0,0,0.992,2285.22,615.598)" d="M0,22.7 C0,23 0.1,23.6 0.8,23.8 C5.1,25.2 13.7,30.6 20.2,41.7 C22,44.8 24.9,49.1 24.9,57.4 C24.9,64.6 23.1,72 20.4,79.2 C20.2,79.8 20.1,80.3 20.1,80.7 C20.1,81.4 20.5,81.7 21.2,81.7 C21.8,81.7 22.3,81.3 22.7,80.6 C27.2,72.6 28.9,63.3 28.9,54.2 C28.4,41.3 21,31.8 21,31.8 C21.3,31.8 11.8,19.5 9.1,15.3 C5.4,9.6 3.7,3.9 3.5,3.5 C3.4,3.2 2.5,-0.4 2.5,-0.4 C2.4,-0.8 1.9,-1.2 1.3,-1.2 C0.6,-1.2 0,-0.6 0,0.1 L0,22.7 "/>
<path class="Note" transform="matrix(0.992,0,0,0.992,2336.27,1303.8)" d="M21.3,-13.2 C11.6,-13.2 0,-5.1 0,4.2 C0,8.5 3.1,13.3 11.2,13.3 C21.6,13.3 32.5,4.8 32.5,-4 C32.5,-9.9 27.5,-13.2 21.3,-13.2 M7.5,8.6 C4.2,8.6 3.5,5.9 3.5,5 C3.5,0.1 20.3,-8.5 25,-8.5 C27.4,-8.5 29,-7.1 29,-4.9 C29,0.1 12.1,8.6 7.5,8.6"/>
<path class="Note" transform="matrix(0.992,0,0,0.992,876.45,733.398)" d="M0,4.2 C0,8.5 3.1,13.3 11.2,13.3 C21.6,13.3 32.5,4.8 32.5,-4 C32.5,-9.9 27.5,-13.2 21.3,-13.2 C11.6,-13.2 0,-5 0,4.2"/>
<path class="Note" transform="matrix(0.992,0,0,0.992,1270.07,2370.2)" d="M0,4.2 C0,8.5 3.1,13.3 11.2,13.3 C21.6,13.3 32.5,4.8 32.5,-4 C32.5,-9.9 27.5,-13.2 21.3,-13.2 C11.6,-13.2 0,-5 0,4.2"/>
<path class="Note" transform="matrix(0.992,0,0,0.992,395.405,1775)" d="M0,4.2 C0,8.5 3.1,13.3 11.2,13.3 C21.6,13.3 32.5,4.8 32.5,-4 C32.5,-9.9 27.5,-13.2 21.3,-13.2 C11.6,-13.2 0,-5 0,4.2"/>
<path class="Note" transform="matrix(0.992,0,0,0.992,2038.73,1279)" d="M0,4.2 C0,8.5 3.1,13.3 11.2,13.3 C21.6,13.3 32.5,4.8 32.5,-4 C32.5,-9.9 27.5,-13.2 21.3,-13.2 C11.6,-13.2 0,-5 0,4.2"/>
<path class="Note" transform="matrix(0.992,0,0,0.992,2672.78,1217)" d="M0,4.2 C0,8.5 3.1,13.3 11.2,13.3 C21.6,13.3 32.5,4.8 32.5,-4 C32.5,-9.9 27.5,-13.2 21.3,-13.2 C11.6,-13.2 0,-5 0,4.2"/>
<path class="Note" transform="matrix(0.992,0,0,0.992,487.568,1812.2)" d="M0,4.2 C0,8.5 3.1,13.3 11.2,13.3 C21.6,13.3 32.5,4.8 32.5,-4 C32.5,-9.9 27.5,-13.2 21.3,-13.2 C11.6,-13.2 0,-5 0,4.2"/>
<path class="Note" transform="matrix(0.992,0,0,0.992,2169.77,1291.4)" d="M0,4.2 C0,8.5 3.1,13.3 11.2,13.3 C21.6,13.3 32.5,4.8 32.5,-4 C32.5,-9.9 27.5,-13.2 21.3,-13.2 C11.6,-13.2 0,-5 0,4.2"/>
<path class="Note" transform="matrix(0.992,0,0,0.992,579.731,1812.2)" d="M0,4.2 C0,8.5 3.1,13.3 11.2,13.3 C21.6,13.3 32.5,4.8 32.5,-4 C32.5,-9.9 27.5,-13.2 21.3,-13.2 C11.6,-13.2 0,-5 0,4.2"/>
<path class="Note" transform="matrix(0.992,0,0,0.992,2585.43,1217)" d="M0,4.2 C0,8.5 3.1,13.3 11.2,13.3 C21.6,13.3 32.5,4.8 32.5,-4 C32.5,-9.9 27.5,-13.2 21.3,-13.2 C11.6,-13.2 0,-5 0,4.2"/>
<path class="Note" transform="matrix(0.992,0,0,0.992,671.894,1812.2)" d="M0,4.2 C0,8.5 3.1,13.3 11.2,13.3 C21.6,13.3 32.5,4.8 32.5,-4 C32.5,-9.9 27.5,-13.2 21.3,-13.2 C11.6,-13.2 0,-5 0,4.2"/>
<path class="Note" transform="matrix(0.992,0,0,0.992,2391.96,2419.8)" d="M21.3,-13.2 C11.6,-13.2 0,-5.1 0,4.2 C0,8.5 3.1,13.3 11.2,13.3 C21.6,13.3 32.5,4.8 32.5,-4 C32.5,-9.9 27.5,-13.2 21.3,-13.2 M7.5,8.6 C4.2,8.6 3.5,5.9 3.5,5 C3.5,0.1 20.3,-8.5 25,-8.5 C27.4,-8.5 29,-7.1 29,-4.9 C29,0.1 12.1,8.6 7.5,8.6"/>
<path class="Note" transform="matrix(0.992,0,0,0.992,764.057,1812.2)" d="M0,4.2 C0,8.5 3.1,13.3 11.2,13.3 C21.6,13.3 32.5,4.8 32.5,-4 C32.5,-9.9 27.5,-13.2 21.3,-13.2 C11.6,-13.2 0,-5 0,4.2"/>
<path class="Note" transform="matrix(0.992,0,0,0.992,1931.9,2419.8)" d="M21.3,-13.2 C11.6,-13.2 0,-5.1 0,4.2 C0,8.5 3.1,13.3 11.2,13.3 C21.6,13.3 32.5,4.8 32.5,-4 C32.5,-9.9 27.5,-13.2 21.3,-13.2 M7.5,8.6 C4.2,8.6 3.5,5.9 3.5,5 C3.5,0.1 20.3,-8.5 25,-8.5 C27.4,-8.5 29,-7.1 29,-4.9 C29,0.1 12.1,8.6 7.5,8.6"/>
<path class="Note" transform="matrix(0.992,0,0,0.992,902.302,1812.2)" d="M0,4.2 C0,8.5 3.1,13.3 11.2,13.3 C21.6,13.3 32.5,4.8 32.5,-4 C32.5,-9.9 27.5,-13.2 21.3,-13.2 C11.6,-13.2 0,-5 0,4.2"/>
<path class="Note" transform="matrix(0.992,0,0,0.992,2156.62,2333)" d="M0,4.2 C0,8.5 3.1,13.3 11.2,13.3 C21.6,13.3 32.5,4.8 32.5,-4 C32.5,-9.9 27.5,-13.2 21.3,-13.2 C11.6,-13.2 0,-5 0,4.2"/>
<path class="Note" transform="matrix(0.992,0,0,0.992,1907.7,1266.6)" d="M0,4.2 C0,8.5 3.1,13.3 11.2,13.3 C21.6,13.3 32.5,4.8 32.5,-4 C32.5,-9.9 27.5,-13.2 21.3,-13.2 C11.6,-13.2 0,-5 0,4.2"/>
<path class="Note" transform="matrix(0.992,0,0,0.992,1776.67,1254.2)" d="M0,4.2 C0,8.5 3.1,13.3 11.2,13.3 C21.6,13.3 32.5,4.8 32.5,-4 C32.5,-9.9 27.5,-13.2 21.3,-13.2 C11.6,-13.2 0,-5 0,4.2"/>
<path class="Note" transform="matrix(0.992,0,0,0.992,1076.01,1812.2)" d="M0,4.2 C0,8.5 3.1,13.3 11.2,13.3 C21.6,13.3 32.5,4.8 32.5,-4 C32.5,-9.9 27.5,-13.2 21.3,-13.2 C11.6,-13.2 0,-5 0,4.2"/>
<path class="Note" transform="matrix(0.992,0,0,0.992,700.915,733.398)" d="M0,4.2 C0,8.5 3.1,13.3 11.2,13.3 C21.6,13.3 32.5,4.8 32.5,-4 C32.5,-9.9 27.5,-13.2 21.3,-13.2 C11.6,-13.2 0,-5 0,4.2"/>
<path class="Note" transform="matrix(0.992,0,0,0.992,1653.85,1266.6)" d="M0,4.2 C0,8.5 3.1,13.3 11.2,13.3 C21.6,13.3 32.5,4.8 32.5,-4 C32.5,-9.9 27.5,-13.2 21.3,-13.2 C11.6,-13.2 0,-5 0,4.2"/>
<path class="Note" transform="matrix(0.992,0,0,0.992,1168.17,1812.2)" d="M0,4.2 C0,8.5 3.1,13.3 11.2,13.3 C21.6,13.3 32.5,4.8 32.5,-4 C32.5,-9.9 27.5,-13.2 21.3,-13.2 C11.6,-13.2 0,-5 0,4.2"/>
<path class="Note" transform="matrix(0.992,0,0,0.992,1778.25,2407.4)" d="M0,4.2 C0,8.5 3.1,13.3 11.2,13.3 C21.6,13.3 32.5,4.8 32.5,-4 C32.5,-9.9 27.5,-13.2 21.3,-13.2 C11.6,-13.2 0,-5 0,4.2"/>
<path class="Note" transform="matrix(0.992,0,0,0.992,1260.34,1812.2)" d="M21.3,-13.2 C11.6,-13.2 0,-5.1 0,4.2 C0,8.5 3.1,13.3 11.2,13.3 C21.6,13.3 32.5,4.8 32.5,-4 C32.5,-9.9 27.5,-13.2 21.3,-13.2 M7.5,8.6 C4.2,8.6 3.5,5.9 3.5,5 C3.5,0.1 20.3,-8.5 25,-8.5 C27.4,-8.5 29,-7.1 29,-4.9 C29,0.1 12.1,8.6 7.5,8.6"/>
<path class="Note" transform="matrix(0.992,0,0,0.992,1566.49,1279)" d="M0,4.2 C0,8.5 3.1,13.3 11.2,13.3 C21.6,13.3 32.5,4.8 32.5,-4 C32.5,-9.9 27.5,-13.2 21.3,-13.2 C11.6,-13.2 0,-5 0,4.2"/>
<path class="Note" transform="matrix(0.992,0,0,0.992,1467.7,1812.2)" d="M0,4.2 C0,8.5 3.1,13.3 11.2,13.3 C21.6,13.3 32.5,4.8 32.5,-4 C32.5,-9.9 27.5,-13.2 21.3,-13.2 C11.6,-13.2 0,-5 0,4.2"/>
<path class="Note" transform="matrix(0.992,0,0,0.992,437.612,745.798)" d="M0,4.2 C0,8.5 3.1,13.3 11.2,13.3 C21.6,13.3 32.5,4.8 32.5,-4 C32.5,-9.9 27.5,-13.2 21.3,-13.2 C11.6,-13.2 0,-5 0,4.2"/>
<path class="Note" transform="matrix(0.992,0,0,0.992,1435.46,1254.2)" d="M0,4.2 C0,8.5 3.1,13.3 11.2,13.3 C21.6,13.3 32.5,4.8 32.5,-4 C32.5,-9.9 27.5,-13.2 21.3,-13.2 C11.6,-13.2 0,-5 0,4.2"/>
<path class="Note" transform="matrix(0.992,0,0,0.992,1559.87,1812.2)" d="M0,4.2 C0,8.5 3.1,13.3 11.2,13.3 C21.6,13.3 32.5,4.8 32.5,-4 C32.5,-9.9 27.5,-13.2 21.3,-13.2 C11.6,-13.2 0,-5 0,4.2"/>
<path class="Note" transform="matrix(0.992,0,0,0.992,1348.1,1254.2)" d="M0,4.2 C0,8.5 3.1,13.3 11.2,13.3 C21.6,13.3 32.5,4.8 32.5,-4 C32.5,-9.9 27.5,-13.2 21.3,-13.2 C11.6,-13.2 0,-5 0,4.2"/>
<path class="Note" transform="matrix(0.992,0,0,0.992,1217.07,1254.2)" d="M0,4.2 C0,8.5 3.1,13.3 11.2,13.3 C21.6,13.3 32.5,4.8 32.5,-4 C32.5,-9.9 27.5,-13.2 21.3,-13.2 C11.6,-13.2 0,-5 0,4.2"/>
<path class="Note" transform="matrix(0.992,0,0,0.992,1129.71,1254.2)" d="M0,4.2 C0,8.5 3.1,13.3 11.2,13.3 C21.6,13.3 32.5,4.8 32.5,-4 C32.5,-9.9 27.5,-13.2 21.3,-13.2 C11.6,-13.2 0,-5 0,4.2"/>
<path class="Note" transform="matrix(0.992,0,0,0.992,1687.49,1812.2)" d="M0,4.2 C0,8.5 3.1,13.3 11.2,13.3 C21.6,13.3 32.5,4.8 32.5,-4 C32.5,-9.9 27.5,-13.2 21.3,-13.2 C11.6,-13.2 0,-5 0,4.2"/>
<path class="Note" transform="matrix(0.992,0,0,0.992,1660.07,2395)" d="M0,4.2 C0,8.5 3.1,13.3 11.2,13.3 C21.6,13.3 32.5,4.8 32.5,-4 C32.5,-9.9 27.5,-13.2 21.3,-13.2 C11.6,-13.2 0,-5 0,4.2"/>
<path class="Note" transform="matrix(0.992,0,0,0.992,1006.89,1266.6)" d="M0,4.2 C0,8.5 3.1,13.3 11.2,13.3 C21.6,13.3 32.5,4.8 32.5,-4 C32.5,-9.9 27.5,-13.2 21.3,-13.2 C11.6,-13.2 0,-5 0,4.2"/>
<path class="Note" transform="matrix(0.992,0,0,0.992,1779.66,1812.2)" d="M0,4.2 C0,8.5 3.1,13.3 11.2,13.3 C21.6,13.3 32.5,4.8 32.5,-4 C32.5,-9.9 27.5,-13.2 21.3,-13.2 C11.6,-13.2 0,-5 0,4.2"/>
<path class="Note" transform="matrix(0.992,0,0,0.992,919.539,1279)" d="M0,4.2 C0,8.5 3.1,13.3 11.2,13.3 C21.6,13.3 32.5,4.8 32.5,-4 C32.5,-9.9 27.5,-13.2 21.3,-13.2 C11.6,-13.2 0,-5 0,4.2"/>
<path class="Note" transform="matrix(0.992,0,0,0.992,1871.82,1812.2)" d="M0,4.2 C0,8.5 3.1,13.3 11.2,13.3 C21.6,13.3 32.5,4.8 32.5,-4 C32.5,-9.9 27.5,-13.2 21.3,-13.2 C11.6,-13.2 0,-5 0,4.2"/>
<path class="Note" transform="matrix(0.992,0,0,0.992,832.183,1291.4)" d="M0,4.2 C0,8.5 3.1,13.3 11.2,13.3 C21.6,13.3 32.5,4.8 32.5,-4 C32.5,-9.9 27.5,-13.2 21.3,-13.2 C11.6,-13.2 0,-5 0,4.2"/>
<path class="Note" transform="matrix(0.992,0,0,0.992,1963.98,1812.2)" d="M0,4.2 C0,8.5 3.1,13.3 11.2,13.3 C21.6,13.3 32.5,4.8 32.5,-4 C32.5,-9.9 27.5,-13.2 21.3,-13.2 C11.6,-13.2 0,-5 0,4.2"/>
<path class="Note" transform="matrix(0.992,0,0,0.992,1541.89,2382.6)" d="M0,4.2 C0,8.5 3.1,13.3 11.2,13.3 C21.6,13.3 32.5,4.8 32.5,-4 C32.5,-9.9 27.5,-13.2 21.3,-13.2 C11.6,-13.2 0,-5 0,4.2"/>
<path class="Note" transform="matrix(0.992,0,0,0.992,744.828,1279)" d="M0,4.2 C0,8.5 3.1,13.3 11.2,13.3 C21.6,13.3 32.5,4.8 32.5,-4 C32.5,-9.9 27.5,-13.2 21.3,-13.2 C11.6,-13.2 0,-5 0,4.2"/>
<path class="Note" transform="matrix(0.992,0,0,0.992,2056.14,1812.2)" d="M0,4.2 C0,8.5 3.1,13.3 11.2,13.3 C21.6,13.3 32.5,4.8 32.5,-4 C32.5,-9.9 27.5,-13.2 21.3,-13.2 C11.6,-13.2 0,-5 0,4.2"/>
<path class="Note" transform="matrix(0.992,0,0,0.992,657.472,1291.4)" d="M0,4.2 C0,8.5 3.1,13.3 11.2,13.3 C21.6,13.3 32.5,4.8 32.5,-4 C32.5,-9.9 27.5,-13.2 21.3,-13.2 C11.6,-13.2 0,-5 0,4.2"/>
<path class="Note" transform="matrix(0.992,0,0,0.992,2148.31,1812.2)" d="M0,4.2 C0,8.5 3.1,13.3 11.2,13.3 C21.6,13.3 32.5,4.8 32.5,-4 C32.5,-9.9 27.5,-13.2 21.3,-13.2 C11.6,-13.2 0,-5 0,4.2"/>
<path class="Note" transform="matrix(0.992,0,0,0.992,570.117,1303.8)" d="M0,4.2 C0,8.5 3.1,13.3 11.2,13.3 C21.6,13.3 32.5,4.8 32.5,-4 C32.5,-9.9 27.5,-13.2 21.3,-13.2 C11.6,-13.2 0,-5 0,4.2"/>
<path class="Note" transform="matrix(0.992,0,0,0.992,482.761,1316.2)" d="M0,4.2 C0,8.5 3.1,13.3 11.2,13.3 C21.6,13.3 32.5,4.8 32.5,-4 C32.5,-9.9 27.5,-13.2 21.3,-13.2 C11.6,-13.2 0,-5 0,4.2"/>
<path class="Note" transform="matrix(0.992,0,0,0.992,1463.11,2370.2)" d="M0,4.2 C0,8.5 3.1,13.3 11.2,13.3 C21.6,13.3 32.5,4.8 32.5,-4 C32.5,-9.9 27.5,-13.2 21.3,-13.2 C11.6,-13.2 0,-5 0,4.2"/>
<path class="Note" transform="matrix(0.992,0,0,0.992,395.405,1303.8)" d="M0,4.2 C0,8.5 3.1,13.3 11.2,13.3 C21.6,13.3 32.5,4.8 32.5,-4 C32.5,-9.9 27.5,-13.2 21.3,-13.2 C11.6,-13.2 0,-5 0,4.2"/>
<path class="Note" transform="matrix(0.992,0,0,0.992,525.38,758.198)" d="M0,4.2 C0,8.5 3.1,13.3 11.2,13.3 C21.6,13.3 32.5,4.8 32.5,-4 C32.5,-9.9 27.5,-13.2 21.3,-13.2 C11.6,-13.2 0,-5 0,4.2"/>
<path class="Note" transform="matrix(0.992,0,0,0.992,2359.02,1812.2)" d="M21.3,-13.2 C11.6,-13.2 0,-5.1 0,4.2 C0,8.5 3.1,13.3 11.2,13.3 C21.6,13.3 32.5,4.8 32.5,-4 C32.5,-9.9 27.5,-13.2 21.3,-13.2 M7.5,8.6 C4.2,8.6 3.5,5.9 3.5,5 C3.5,0.1 20.3,-8.5 25,-8.5 C27.4,-8.5 29,-7.1 29,-4.9 C29,0.1 12.1,8.6 7.5,8.6"/>
<path class="Note" transform="matrix(0.992,0,0,0.992,613.147,745.798)" d="M0,4.2 C0,8.5 3.1,13.3 11.2,13.3 C21.6,13.3 32.5,4.8 32.5,-4 C32.5,-9.9 27.5,-13.2 21.3,-13.2 C11.6,-13.2 0,-5 0,4.2"/>
<path class="Note" transform="matrix(0.992,0,0,0.992,2562.66,696.198)" d="M21.3,-13.2 C11.6,-13.2 0,-5.1 0,4.2 C0,8.5 3.1,13.3 11.2,13.3 C21.6,13.3 32.5,4.8 32.5,-4 C32.5,-9.9 27.5,-13.2 21.3,-13.2 M7.5,8.6 C4.2,8.6 3.5,5.9 3.5,5 C3.5,0.1 20.3,-8.5 25,-8.5 C27.4,-8.5 29,-7.1 29,-4.9 C29,0.1 12.1,8.6 7.5,8.6"/>
<path class="Note" transform="matrix(0.992,0,0,0.992,2621.89,1787.4)" d="M0,4.2 C0,8.5 3.1,13.3 11.2,13.3 C21.6,13.3 32.5,4.8 32.5,-4 C32.5,-9.9 27.5,-13.2 21.3,-13.2 C11.6,-13.2 0,-5 0,4.2"/>
<path class="Note" transform="matrix(0.992,0,0,0.992,2474.89,696.198)" d="M0,4.2 C0,8.5 3.1,13.3 11.2,13.3 C21.6,13.3 32.5,4.8 32.5,-4 C32.5,-9.9 27.5,-13.2 21.3,-13.2 C11.6,-13.2 0,-5 0,4.2"/>
<path class="Note" transform="matrix(0.992,0,0,0.992,2343.24,696.198)" d="M0,4.2 C0,8.5 3.1,13.3 11.2,13.3 C21.6,13.3 32.5,4.8 32.5,-4 C32.5,-9.9 27.5,-13.2 21.3,-13.2 C11.6,-13.2 0,-5 0,4.2"/>
<path class="Note" transform="matrix(0.992,0,0,0.992,2255.47,696.198)" d="M0,4.2 C0,8.5 3.1,13.3 11.2,13.3 C21.6,13.3 32.5,4.8 32.5,-4 C32.5,-9.9 27.5,-13.2 21.3,-13.2 C11.6,-13.2 0,-5 0,4.2"/>
<path class="Note" transform="matrix(0.992,0,0,0.992,2022.53,708.598)" d="M21.3,-13.2 C11.6,-13.2 0,-5.1 0,4.2 C0,8.5 3.1,13.3 11.2,13.3 C21.6,13.3 32.5,4.8 32.5,-4 C32.5,-9.9 27.5,-13.2 21.3,-13.2 M7.5,8.6 C4.2,8.6 3.5,5.9 3.5,5 C3.5,0.1 20.3,-8.5 25,-8.5 C27.4,-8.5 29,-7.1 29,-4.9 C29,0.1 12.1,8.6 7.5,8.6"/>
<path class="Note" transform="matrix(0.992,0,0,0.992,1191.28,2370.2)" d="M0,4.2 C0,8.5 3.1,13.3 11.2,13.3 C21.6,13.3 32.5,4.8 32.5,-4 C32.5,-9.9 27.5,-13.2 21.3,-13.2 C11.6,-13.2 0,-5 0,4.2"/>
<path class="Note" transform="matrix(0.992,0,0,0.992,1384.32,2370.2)" d="M0,4.2 C0,8.5 3.1,13.3 11.2,13.3 C21.6,13.3 32.5,4.8 32.5,-4 C32.5,-9.9 27.5,-13.2 21.3,-13.2 C11.6,-13.2 0,-5 0,4.2"/>
<path class="Note" transform="matrix(0.992,0,0,0.992,1934.76,708.598)" d="M0,4.2 C0,8.5 3.1,13.3 11.2,13.3 C21.6,13.3 32.5,4.8 32.5,-4 C32.5,-9.9 27.5,-13.2 21.3,-13.2 C11.6,-13.2 0,-5 0,4.2"/>
<path class="Note" transform="matrix(0.992,0,0,0.992,395.405,2333)" d="M0,4.2 C0,8.5 3.1,13.3 11.2,13.3 C21.6,13.3 32.5,4.8 32.5,-4 C32.5,-9.9 27.5,-13.2 21.3,-13.2 C11.6,-13.2 0,-5 0,4.2"/>
<path class="Note" transform="matrix(0.992,0,0,0.992,1803.11,708.598)" d="M0,4.2 C0,8.5 3.1,13.3 11.2,13.3 C21.6,13.3 32.5,4.8 32.5,-4 C32.5,-9.9 27.5,-13.2 21.3,-13.2 C11.6,-13.2 0,-5 0,4.2"/>
<path class="Note" transform="matrix(0.992,0,0,0.992,513.586,2370.2)" d="M0,4.2 C0,8.5 3.1,13.3 11.2,13.3 C21.6,13.3 32.5,4.8 32.5,-4 C32.5,-9.9 27.5,-13.2 21.3,-13.2 C11.6,-13.2 0,-5 0,4.2"/>
<path class="Note" transform="matrix(0.992,0,0,0.992,1715.35,708.598)" d="M0,4.2 C0,8.5 3.1,13.3 11.2,13.3 C21.6,13.3 32.5,4.8 32.5,-4 C32.5,-9.9 27.5,-13.2 21.3,-13.2 C11.6,-13.2 0,-5 0,4.2"/>
<path class="Note" transform="matrix(0.992,0,0,0.992,1482.4,696.198)" d="M21.3,-13.2 C11.6,-13.2 0,-5.1 0,4.2 C0,8.5 3.1,13.3 11.2,13.3 C21.6,13.3 32.5,4.8 32.5,-4 C32.5,-9.9 27.5,-13.2 21.3,-13.2 M7.5,8.6 C4.2,8.6 3.5,5.9 3.5,5 C3.5,0.1 20.3,-8.5 25,-8.5 C27.4,-8.5 29,-7.1 29,-4.9 C29,0.1 12.1,8.6 7.5,8.6"/>
<path class="Note" transform="matrix(0.992,0,0,0.992,631.766,2370.2)" d="M0,4.2 C0,8.5 3.1,13.3 11.2,13.3 C21.6,13.3 32.5,4.8 32.5,-4 C32.5,-9.9 27.5,-13.2 21.3,-13.2 C11.6,-13.2 0,-5 0,4.2"/>
<path class="Note" transform="matrix(0.992,0,0,0.992,1394.64,696.198)" d="M0,4.2 C0,8.5 3.1,13.3 11.2,13.3 C21.6,13.3 32.5,4.8 32.5,-4 C32.5,-9.9 27.5,-13.2 21.3,-13.2 C11.6,-13.2 0,-5 0,4.2"/>
<path class="Note" transform="matrix(0.992,0,0,0.992,710.553,2370.2)" d="M0,4.2 C0,8.5 3.1,13.3 11.2,13.3 C21.6,13.3 32.5,4.8 32.5,-4 C32.5,-9.9 27.5,-13.2 21.3,-13.2 C11.6,-13.2 0,-5 0,4.2"/>
<path class="Note" transform="matrix(0.992,0,0,0.992,2235.41,2333)" d="M0,4.2 C0,8.5 3.1,13.3 11.2,13.3 C21.6,13.3 32.5,4.8 32.5,-4 C32.5,-9.9 27.5,-13.2 21.3,-13.2 C11.6,-13.2 0,-5 0,4.2"/>
<path class="Note" transform="matrix(0.992,0,0,0.992,1262.98,696.198)" d="M0,4.2 C0,8.5 3.1,13.3 11.2,13.3 C21.6,13.3 32.5,4.8 32.5,-4 C32.5,-9.9 27.5,-13.2 21.3,-13.2 C11.6,-13.2 0,-5 0,4.2"/>
<path class="Note" transform="matrix(0.992,0,0,0.992,1175.22,696.198)" d="M0,4.2 C0,8.5 3.1,13.3 11.2,13.3 C21.6,13.3 32.5,4.8 32.5,-4 C32.5,-9.9 27.5,-13.2 21.3,-13.2 C11.6,-13.2 0,-5 0,4.2"/>
<path class="Note" transform="matrix(0.992,0,0,0.992,1051.99,708.598)" d="M0,4.2 C0,8.5 3.1,13.3 11.2,13.3 C21.6,13.3 32.5,4.8 32.5,-4 C32.5,-9.9 27.5,-13.2 21.3,-13.2 C11.6,-13.2 0,-5 0,4.2"/>
<path class="Note" transform="matrix(0.992,0,0,0.992,895.831,2370.2)" d="M0,4.2 C0,8.5 3.1,13.3 11.2,13.3 C21.6,13.3 32.5,4.8 32.5,-4 C32.5,-9.9 27.5,-13.2 21.3,-13.2 C11.6,-13.2 0,-5 0,4.2"/>
<path class="Note" transform="matrix(0.992,0,0,0.992,964.218,720.998)" d="M0,4.2 C0,8.5 3.1,13.3 11.2,13.3 C21.6,13.3 32.5,4.8 32.5,-4 C32.5,-9.9 27.5,-13.2 21.3,-13.2 C11.6,-13.2 0,-5 0,4.2"/>
<path class="Note" transform="matrix(0.992,0,0,0.992,1014.01,2370.2)" d="M21.3,-13.2 C11.6,-13.2 0,-5.1 0,4.2 C0,8.5 3.1,13.3 11.2,13.3 C21.6,13.3 32.5,4.8 32.5,-4 C32.5,-9.9 27.5,-13.2 21.3,-13.2 M7.5,8.6 C4.2,8.6 3.5,5.9 3.5,5 C3.5,0.1 20.3,-8.5 25,-8.5 C27.4,-8.5 29,-7.1 29,-4.9 C29,0.1 12.1,8.6 7.5,8.6"/>
<path class="Note" transform="matrix(0.992,0,0,0.992,788.683,720.998)" d="M0,4.2 C0,8.5 3.1,13.3 11.2,13.3 C21.6,13.3 32.5,4.8 32.5,-4 C32.5,-9.9 27.5,-13.2 21.3,-13.2 C11.6,-13.2 0,-5 0,4.2"/>
<path class="Clef" transform="matrix(0.992,0,0,0.992,231.198,2382.6)" d="M12.3,51.3 C12.3,57.9 17.3,66.6 30.8,66.6 C35.5,66.6 39.6,65.4 43.2,63.2 C48.6,59.4 50,52.8 50,46.5 C50,42.6 49.4,38.1 48.4,32.4 C48.1,30.4 47.5,27.4 46.9,23.5 C56.7,20.3 64,10.1 64,-0.2 C64,-15.3 53.3,-25.5 38.7,-25.5 C37.7,-31.5 36.7,-37.4 35.9,-43 C46.4,-54.1 53.7,-66.6 53.7,-82.5 C53.7,-91.6 50.9,-99 49.3,-102.6 C46.9,-107.7 44,-111.2 42.2,-111.2 C41.5,-111.2 38.4,-110 35.1,-106.1 C28.7,-98.5 26.9,-85.7 26.9,-77.3 C26.9,-71.9 27.4,-67 29.1,-55.8 C29,-55.7 23.8,-50.4 21.7,-48.7 C12.6,-40.3 0,-28.1 0,-8.1 C0,10.6 16.3,25.3 34.9,25.3 C37.8,25.3 40.5,25 42.8,24.6 C44.7,34.2 45.9,41.2 45.9,46.5 C45.9,56.9 40.5,62.4 30.4,62.4 C28,62.4 25.9,61.9 25.7,61.9 C25.6,61.8 25.4,61.7 25.4,61.6 C25.4,61.4 25.6,61.3 25.9,61.3 C30.6,60.5 35.3,56.5 35.3,50.1 C35.3,44.7 31.2,39 23.7,39 C16.7,39 12.3,44.7 12.3,51.3 M33.2,-82.2 C34.1,-86.2 38.7,-96.7 43.9,-96.7 C45.4,-96.7 47.8,-91.9 47.8,-84.9 C47.8,-74.5 40.1,-66.7 33.2,-59.9 C32.6,-63.9 32.1,-67.8 32.1,-72 C32.1,-75.7 32.4,-79.1 33.2,-82.2 M42,20.6 C40,21 38.1,21.2 36.2,21.2 C21.9,21.2 9.7,11.2 9.7,-3.9 C9.7,-16.1 18.3,-27 27.1,-34.6 C28.8,-36.1 30.4,-37.5 31.9,-39 C32.8,-33.6 33.5,-28.9 34.2,-24.8 C25.1,-22.1 18.9,-12.5 18.9,-3.1 C18.9,3.9 24.4,13.5 32.4,13.5 C33.2,13.5 34.1,13.1 34.1,12.2 C34.1,11.3 33.1,10.8 31.9,10 C28,7.6 25.8,5 25.8,0.1 C25.8,-6 30.4,-10.9 36.2,-12.3 L42,20.6 M56.2,2.1 C56.2,9.2 53.3,16.5 46.2,19.4 C44.1,7.4 41.4,-8.5 40.7,-12.9 C49.7,-12.9 56.2,-6.8 56.2,2.1"/>
<path class="Clef" transform="matrix(0.992,0,0,0.992,231.198,1266.6)" d="M12.3,51.3 C12.3,57.9 17.3,66.6 30.8,66.6 C35.5,66.6 39.6,65.4 43.2,63.2 C48.6,59.4 50,52.8 50,46.5 C50,42.6 49.4,38.1 48.4,32.4 C48.1,30.4 47.5,27.4 46.9,23.5 C56.7,20.3 64,10.1 64,-0.2 C64,-15.3 53.3,-25.5 38.7,-25.5 C37.7,-31.5 36.7,-37.4 35.9,-43 C46.4,-54.1 53.7,-66.6 53.7,-82.5 C53.7,-91.6 50.9,-99 49.3,-102.6 C46.9,-107.7 44,-111.2 42.2,-111.2 C41.5,-111.2 38.4,-110 35.1,-106.1 C28.7,-98.5 26.9,-85.7 26.9,-77.3 C26.9,-71.9 27.4,-67 29.1,-55.8 C29,-55.7 23.8,-50.4 21.7,-48.7 C12.6,-40.3 0,-28.1 0,-8.1 C0,10.6 16.3,25.3 34.9,25.3 C37.8,25.3 40.5,25 42.8,24.6 C44.7,34.2 45.9,41.2 45.9,46.5 C45.9,56.9 40.5,62.4 30.4,62.4 C28,62.4 25.9,61.9 25.7,61.9 C25.6,61.8 25.4,61.7 25.4,61.6 C25.4,61.4 25.6,61.3 25.9,61.3 C30.6,60.5 35.3,56.5 35.3,50.1 C35.3,44.7 31.2,39 23.7,39 C16.7,39 12.3,44.7 12.3,51.3 M33.2,-82.2 C34.1,-86.2 38.7,-96.7 43.9,-96.7 C45.4,-96.7 47.8,-91.9 47.8,-84.9 C47.8,-74.5 40.1,-66.7 33.2,-59.9 C32.6,-63.9 32.1,-67.8 32.1,-72 C32.1,-75.7 32.4,-79.1 33.2,-82.2 M42,20.6 C40,21 38.1,21.2 36.2,21.2 C21.9,21.2 9.7,11.2 9.7,-3.9 C9.7,-16.1 18.3,-27 27.1,-34.6 C28.8,-36.1 30.4,-37.5 31.9,-39 C32.8,-33.6 33.5,-28.9 34.2,-24.8 C25.1,-22.1 18.9,-12.5 18.9,-3.1 C18.9,3.9 24.4,13.5 32.4,13.5 C33.2,13.5 34.1,13.1 34.1,12.2 C34.1,11.3 33.1,10.8 31.9,10 C28,7.6 25.8,5 25.8,0.1 C25.8,-6 30.4,-10.9 36.2,-12.3 L42,20.6 M56.2,2.1 C56.2,9.2 53.3,16.5 46.2,19.4 C44.1,7.4 41.4,-8.5 40.7,-12.9 C49.7,-12.9 56.2,-6.8 56.2,2.1"/>
<path class="Clef" transform="matrix(0.992,0,0,0.992,231.198,708.598)" d="M12.3,51.3 C12.3,57.9 17.3,66.6 30.8,66.6 C35.5,66.6 39.6,65.4 43.2,63.2 C48.6,59.4 50,52.8 50,46.5 C50,42.6 49.4,38.1 48.4,32.4 C48.1,30.4 47.5,27.4 46.9,23.5 C56.7,20.3 64,10.1 64,-0.2 C64,-15.3 53.3,-25.5 38.7,-25.5 C37.7,-31.5 36.7,-37.4 35.9,-43 C46.4,-54.1 53.7,-66.6 53.7,-82.5 C53.7,-91.6 50.9,-99 49.3,-102.6 C46.9,-107.7 44,-111.2 42.2,-111.2 C41.5,-111.2 38.4,-110 35.1,-106.1 C28.7,-98.5 26.9,-85.7 26.9,-77.3 C26.9,-71.9 27.4,-67 29.1,-55.8 C29,-55.7 23.8,-50.4 21.7,-48.7 C12.6,-40.3 0,-28.1 0,-8.1 C0,10.6 16.3,25.3 34.9,25.3 C37.8,25.3 40.5,25 42.8,24.6 C44.7,34.2 45.9,41.2 45.9,46.5 C45.9,56.9 40.5,62.4 30.4,62.4 C28,62.4 25.9,61.9 25.7,61.9 C25.6,61.8 25.4,61.7 25.4,61.6 C25.4,61.4 25.6,61.3 25.9,61.3 C30.6,60.5 35.3,56.5 35.3,50.1 C35.3,44.7 31.2,39 23.7,39 C16.7,39 12.3,44.7 12.3,51.3 M33.2,-82.2 C34.1,-86.2 38.7,-96.7 43.9,-96.7 C45.4,-96.7 47.8,-91.9 47.8,-84.9 C47.8,-74.5 40.1,-66.7 33.2,-59.9 C32.6,-63.9 32.1,-67.8 32.1,-72 C32.1,-75.7 32.4,-79.1 33.2,-82.2 M42,20.6 C40,21 38.1,21.2 36.2,21.2 C21.9,21.2 9.7,11.2 9.7,-3.9 C9.7,-16.1 18.3,-27 27.1,-34.6 C28.8,-36.1 30.4,-37.5 31.9,-39 C32.8,-33.6 33.5,-28.9 34.2,-24.8 C25.1,-22.1 18.9,-12.5 18.9,-3.1 C18.9,3.9 24.4,13.5 32.4,13.5 C33.2,13.5 34.1,13.1 34.1,12.2 C34.1,11.3 33.1,10.8 31.9,10 C28,7.6 25.8,5 25.8,0.1 C25.8,-6 30.4,-10.9 36.2,-12.3 L42,20.6 M56.2,2.1 C56.2,9.2 53.3,16.5 46.2,19.4 C44.1,7.4 41.4,-8.5 40.7,-12.9 C49.7,-12.9 56.2,-6.8 56.2,2.1"/>
<path class="Clef" transform="matrix(0.992,0,0,0.992,231.198,1824.6)" d="M12.3,51.3 C12.3,57.9 17.3,66.6 30.8,66.6 C35.5,66.6 39.6,65.4 43.2,63.2 C48.6,59.4 50,52.8 50,46.5 C50,42.6 49.4,38.1 48.4,32.4 C48.1,30.4 47.5,27.4 46.9,23.5 C56.7,20.3 64,10.1 64,-0.2 C64,-15.3 53.3,-25.5 38.7,-25.5 C37.7,-31.5 36.7,-37.4 35.9,-43 C46.4,-54.1 53.7,-66.6 53.7,-82.5 C53.7,-91.6 50.9,-99 49.3,-102.6 C46.9,-107.7 44,-111.2 42.2,-111.2 C41.5,-111.2 38.4,-110 35.1,-106.1 C28.7,-98.5 26.9,-85.7 26.9,-77.3 C26.9,-71.9 27.4,-67 29.1,-55.8 C29,-55.7 23.8,-50.4 21.7,-48.7 C12.6,-40.3 0,-28.1 0,-8.1 C0,10.6 16.3,25.3 34.9,25.3 C37.8,25.3 40.5,25 42.8,24.6 C44.7,34.2 45.9,41.2 45.9,46.5 C45.9,56.9 40.5,62.4 30.4,62.4 C28,62.4 25.9,61.9 25.7,61.9 C25.6,61.8 25.4,61.7 25.4,61.6 C25.4,61.4 25.6,61.3 25.9,61.3 C30.6,60.5 35.3,56.5 35.3,50.1 C35.3,44.7 31.2,39 23.7,39 C16.7,39 12.3,44.7 12.3,51.3 M33.2,-82.2 C34.1,-86.2 38.7,-96.7 43.9,-96.7 C45.4,-96.7 47.8,-91.9 47.8,-84.9 C47.8,-74.5 40.1,-66.7 33.2,-59.9 C32.6,-63.9 32.1,-67.8 32.1,-72 C32.1,-75.7 32.4,-79.1 33.2,-82.2 M42,20.6 C40,21 38.1,21.2 36.2,21.2 C21.9,21.2 9.7,11.2 9.7,-3.9 C9.7,-16.1 18.3,-27 27.1,-34.6 C28.8,-36.1 30.4,-37.5 31.9,-39 C32.8,-33.6 33.5,-28.9 34.2,-24.8 C25.1,-22.1 18.9,-12.5 18.9,-3.1 C18.9,3.9 24.4,13.5 32.4,13.5 C33.2,13.5 34.1,13.1 34.1,12.2 C34.1,11.3 33.1,10.8 31.9,10 C28,7.6 25.8,5 25.8,0.1 C25.8,-6 30.4,-10.9 36.2,-12.3 L42,20.6 M56.2,2.1 C56.2,9.2 53.3,16.5 46.2,19.4 C44.1,7.4 41.4,-8.5 40.7,-12.9 C49.7,-12.9 56.2,-6.8 56.2,2.1"/>
<path class="KeySig" transform="matrix(0.992,0,0,0.992,313.271,1799.8)" d="M12,-15.5 C7,-15.5 4.1,-12.4 3.6,-11.8 L4,-43.9 C4,-44.7 3.4,-45.3 2.6,-45.3 L1.4,-45.3 C0.6,-45.3 0,-44.7 0,-43.9 L0.5,16.2 C0.5,17 1.1,17.6 1.9,17.6 C2.1,17.6 2.5,17.5 2.7,17.4 C11.3,13.1 20.3,4.9 20.3,-5.4 C20.3,-10.6 17.9,-15.5 12,-15.5 M3.3,12.7 L3.6,-6.8 C3.8,-7.7 5.3,-10.6 9.3,-10.6 C12.9,-10.6 13.2,-7.2 13.2,-5.1 C13.2,3.8 9.9,7.5 3.3,12.7"/>
<path class="KeySig" transform="matrix(0.992,0,0,0.992,313.271,2357.8)" d="M12,-15.5 C7,-15.5 4.1,-12.4 3.6,-11.8 L4,-43.9 C4,-44.7 3.4,-45.3 2.6,-45.3 L1.4,-45.3 C0.6,-45.3 0,-44.7 0,-43.9 L0.5,16.2 C0.5,17 1.1,17.6 1.9,17.6 C2.1,17.6 2.5,17.5 2.7,17.4 C11.3,13.1 20.3,4.9 20.3,-5.4 C20.3,-10.6 17.9,-15.5 12,-15.5 M3.3,12.7 L3.6,-6.8 C3.8,-7.7 5.3,-10.6 9.3,-10.6 C12.9,-10.6 13.2,-7.2 13.2,-5.1 C13.2,3.8 9.9,7.5 3.3,12.7"/>
<path class="KeySig" transform="matrix(0.992,0,0,0.992,313.271,1241.8)" d="M12,-15.5 C7,-15.5 4.1,-12.4 3.6,-11.8 L4,-43.9 C4,-44.7 3.4,-45.3 2.6,-45.3 L1.4,-45.3 C0.6,-45.3 0,-44.7 0,-43.9 L0.5,16.2 C0.5,17 1.1,17.6 1.9,17.6 C2.1,17.6 2.5,17.5 2.7,17.4 C11.3,13.1 20.3,4.9 20.3,-5.4 C20.3,-10.6 17.9,-15.5 12,-15.5 M3.3,12.7 L3.6,-6.8 C3.8,-7.7 5.3,-10.6 9.3,-10.6 C12.9,-10.6 13.2,-7.2 13.2,-5.1 C13.2,3.8 9.9,7.5 3.3,12.7"/>
<path class="KeySig" transform="matrix(0.992,0,0,0.992,313.271,683.798)" d="M12,-15.5 C7,-15.5 4.1,-12.4 3.6,-11.8 L4,-43.9 C4,-44.7 3.4,-45.3 2.6,-45.3 L1.4,-45.3 C0.6,-45.3 0,-44.7 0,-43.9 L0.5,16.2 C0.5,17 1.1,17.6 1.9,17.6 C2.1,17.6 2.5,17.5 2.7,17.4 C11.3,13.1 20.3,4.9 20.3,-5.4 C20.3,-10.6 17.9,-15.5 12,-15.5 M3.3,12.7 L3.6,-6.8 C3.8,-7.7 5.3,-10.6 9.3,-10.6 C12.9,-10.6 13.2,-7.2 13.2,-5.1 C13.2,3.8 9.9,7.5 3.3,12.7"/>
<path class="TimeSig" transform="matrix(0.992,0,0,0.992,358.205,683.798)" d="M32.5,-17.9 C30,-16.3 28.2,-13.4 28.2,-10.2 C28.2,-9.8 28.2,-9.4 28.3,-9 C28.8,-4.9 32.1,-1.7 36.2,-1.2 C36.5,-1.2 37,-1.2 37.3,-1.2 C42.3,-1.2 46.3,-5.2 46.3,-10.2 C46.3,-10.9 46.3,-11.6 46.1,-12.3 C45.2,-16.6 41.3,-25.8 24.3,-25.8 C2.5,-25.8 0,-7.7 0,-1.2 C0,10.7 1.5,25.6 26.5,25.6 C36.4,25.6 44.1,19.8 44.5,9.1 C44.5,8.6 44.2,8.3 43.7,8.3 L42.4,8.3 C42,8.3 41.6,8.7 41.6,9.1 C41.2,17.4 35.3,22.4 26.5,22.4 C17.8,22.4 13.6,17.7 13.6,8.9 L13.6,-10.2 C13.6,-15.8 15.8,-22.2 24.7,-22.2 C29.4,-22.2 31.5,-20.5 32.6,-18.8 C32.7,-18.6 32.7,-18.5 32.7,-18.3 C32.7,-18.2 32.7,-18 32.5,-17.9"/>
<path class="Rest" transform="matrix(0.992,0,0,0.992,2569.23,2357.8)" d="M0,-1 C0,0.4 0,0.4 1.4,0.4 L31.1,0.4 C32.5,0.4 32.5,0.4 32.5,-1 L32.5,-11.8 C32.5,-13.2 32.5,-13.2 31.1,-13.2 L1.4,-13.2 C0,-13.2 0,-13.2 0,-11.8 L0,-1 "/>
<path class="Beam" fill-rule="evenodd" d="M818.427,634.197 L1084.21,627.997 L1084.21,640.4 L818.427,646.6 L818.427,634.197 "/>
<path class="Beam" fill-rule="evenodd" d="M1221.03,2295.8 L1302.29,2295.8 L1302.29,2308.2 L1221.03,2308.2 L1221.03,2295.8 "/>
<path class="Beam" fill-rule="evenodd" d="M1414.06,2295.8 L1495.33,2295.8 L1495.33,2308.2 L1414.06,2308.2 L1414.06,2295.8 "/>
<path class="Beam" fill-rule="evenodd" d="M425.15,1217 L689.697,1210.8 L689.697,1223.2 L425.15,1229.4 L425.15,1217 "/>
<path class="Beam" fill-rule="evenodd" d="M774.572,1192.2 L1039.12,1186 L1039.12,1198.4 L774.572,1204.6 L774.572,1192.2 "/>
<path class="Beam" fill-rule="evenodd" d="M467.356,658.997 L733.139,652.797 L733.139,665.2 L467.356,671.4 L467.356,658.997 "/>
<path class="Beam" fill-rule="evenodd" d="M1717.24,1737.8 L1996.21,1737.8 L1996.21,1750.2 L1717.24,1750.2 L1717.24,1737.8 "/>
<path class="Beam" fill-rule="evenodd" d="M1497.45,1737.8 L1592.09,1737.8 L1592.09,1750.2 L1497.45,1750.2 L1497.45,1737.8 "/>
<path class="Beam" fill-rule="evenodd" d="M1596.24,1192.18 L1686.07,1185.98 L1686.07,1198.41 L1596.24,1204.61 L1596.24,1192.18 "/>
<path class="Beam" fill-rule="evenodd" d="M1105.75,1737.8 L1200.4,1737.8 L1200.4,1750.2 L1105.75,1750.2 L1105.75,1737.8 "/>
<path class="Beam" fill-rule="evenodd" d="M2585.43,1285.2 L2675.26,1285.2 L2675.26,1297.6 L2585.43,1297.6 L2585.43,1285.2 "/>
<path class="Beam" fill-rule="evenodd" d="M395.405,1874.2 L674.374,1874.2 L674.374,1886.6 L395.405,1886.6 L395.405,1874.2 "/>
<path class="Beam" fill-rule="evenodd" d="M2156.62,2401.2 L2237.89,2401.2 L2237.89,2413.6 L2156.62,2413.6 L2156.62,2401.2 "/>
<path class="VoltaSegment" d="M2399.68,2267.19 L2399.07,2269.94 C2398.58,2272.14 2398.25,2272.85 2397.81,2273.13 C2397.26,2273.51 2397.15,2273.51 2393.68,2273.57 L2383.07,2273.57 C2384.99,2271.92 2386.42,2270.87 2388.57,2269.44 C2396.32,2264.44 2397.92,2263.23 2399.51,2261.19 C2401.38,2258.72 2402.48,2255.8 2402.48,2253.22 C2402.48,2247.33 2396.71,2242.88 2388.95,2242.88 C2381.47,2242.88 2375.7,2247.72 2375.7,2253.99 C2375.7,2257.84 2377.84,2260.31 2381.14,2260.31 C2384,2260.31 2385.82,2258.5 2385.82,2255.64 C2385.82,2253.27 2384.77,2251.9 2382.24,2250.69 C2381.64,2250.41 2381.36,2250.08 2381.36,2249.64 C2381.36,2247.88 2384.33,2246.01 2387.08,2246.01 C2390.93,2246.01 2393.13,2248.38 2393.13,2252.45 C2393.13,2257.01 2391.37,2260.26 2385.54,2266.47 C2379.38,2273.02 2377.24,2275.49 2374.49,2279.45 L2374.49,2282.04 C2375.92,2281.87 2376.52,2281.82 2377.35,2281.82 L2398.03,2281.82 C2399.07,2281.82 2399.73,2281.87 2401.38,2282.04 L2402.65,2267.19 L2399.68,2267.19 "/>
<polyline class="VoltaSegment" fill="none" stroke="#000000" stroke-width="2.73" stroke-linejoin="miter" stroke-miterlimit="2" points="2359.59,2281.82 2359.59,2227.26 2763.24,2227.26 2763.24,2281.82"/>
<path class="VoltaSegment" d="M1930.26,2242.88 L1928.33,2242.88 C1924.87,2245.46 1920.96,2246.56 1914.42,2246.67 L1914.42,2249.75 L1916.73,2249.75 C1921.62,2249.75 1921.68,2249.86 1921.62,2254.37 L1921.62,2273.9 C1921.62,2277.31 1921.62,2277.47 1921.24,2278.02 C1920.74,2278.63 1919.64,2278.85 1916.67,2278.85 L1914.91,2278.85 L1914.91,2281.82 L1936.86,2281.82 L1936.86,2278.85 L1935.1,2278.85 C1932.18,2278.85 1931.14,2278.63 1930.64,2278.02 C1930.26,2277.47 1930.26,2277.25 1930.26,2273.9 L1930.26,2242.88 "/>
<polyline class="VoltaSegment" fill="none" stroke="#000000" stroke-width="2.73" stroke-linejoin="miter" stroke-miterlimit="2" points="1899.53,2281.82 1899.53,2227.26 2335.04,2227.26 2335.04,2281.82"/>
<path class="NoteDot" transform="matrix(0.992,0,0,0.992,1976.52,2419.8)" d="M0,0 C0,2.8 2.2,5 5,5 C7.8,5 10,2.8 10,0 C10,-2.8 7.8,-5 5,-5 C2.2,-5 0,-2.8 0,0"/>
<path class="NoteDot" transform="matrix(0.992,0,0,0.992,755.178,2370.2)" d="M0,0 C0,2.8 2.2,5 5,5 C7.8,5 10,2.8 10,0 C10,-2.8 7.8,-5 5,-5 C2.2,-5 0,-2.8 0,0"/>
<path class="NoteDot" transform="matrix(0.992,0,0,0.992,2403.64,1812.2)" d="M0,0 C0,2.8 2.2,5 5,5 C7.8,5 10,2.8 10,0 C10,-2.8 7.8,-5 5,-5 C2.2,-5 0,-2.8 0,0"/>
<path class="NoteDot" transform="matrix(0.992,0,0,0.992,2192.93,1812.2)" d="M0,0 C0,2.8 2.2,5 5,5 C7.8,5 10,2.8 10,0 C10,-2.8 7.8,-5 5,-5 C2.2,-5 0,-2.8 0,0"/>
<path class="NoteDot" transform="matrix(0.992,0,0,0.992,2380.89,1303.8)" d="M0,0 C0,2.8 2.2,5 5,5 C7.8,5 10,2.8 10,0 C10,-2.8 7.8,-5 5,-5 C2.2,-5 0,-2.8 0,0"/>
</svg>
