<?xml version="1.0" encoding="UTF-8" standalone="no"?>
<svg width="2977.2px" height="4208.4px" viewBox="0 0 2977.2 4208.4"
 xmlns="http://www.w3.org/2000/svg" xmlns:xlink="http://www.w3.org/1999/xlink" version="1.2" baseProfile="tiny">
<title>タイム・トゥ・セイ・グウバイ</title>
<desc>Generated by MuseScore Studio 4.4.2</desc>
<path class="" fill="#ffffff" fill-rule="evenodd" d="M0,0 L2977.2,0 L2977.2,4208.4 L0,4208.4 L0,0 "/>
<polyline class="StaffLines" fill="none" stroke="#000000" stroke-width="2.73" stroke-linejoin="bevel" points="212.598,634.198 2764.6,634.198"/>
<polyline class="StaffLines" fill="none" stroke="#000000" stroke-width="2.73" stroke-linejoin="bevel" points="212.598,658.998 2764.6,658.998"/>
<polyline class="StaffLines" fill="none" stroke="#000000" stroke-width="2.73" stroke-linejoin="bevel" points="212.598,683.798 2764.6,683.798"/>
<polyline class="StaffLines" fill="none" stroke="#000000" stroke-width="2.73" stroke-linejoin="bevel" points="212.598,708.598 2764.6,708.598"/>
<polyline class="StaffLines" fill="none" stroke="#000000" stroke-width="2.73" stroke-linejoin="bevel" points="212.598,733.398 2764.6,733.398"/>
<polyline class="StaffLines" fill="none" stroke="#000000" stroke-width="2.73" stroke-linejoin="bevel" points="212.598,1105.4 2764.6,1105.4"/>
<polyline class="StaffLines" fill="none" stroke="#000000" stroke-width="2.73" stroke-linejoin="bevel" points="212.598,1130.2 2764.6,1130.2"/>
<polyline class="StaffLines" fill="none" stroke="#000000" stroke-width="2.73" stroke-linejoin="bevel" points="212.598,1155 2764.6,1155"/>
<polyline class="StaffLines" fill="none" stroke="#000000" stroke-width="2.73" stroke-linejoin="bevel" points="212.598,1179.8 2764.6,1179.8"/>
<polyline class="StaffLines" fill="none" stroke="#000000" stroke-width="2.73" stroke-linejoin="bevel" points="212.598,1204.6 2764.6,1204.6"/>
<path class="Text" d="M767.332,218.098 C766.452,222.058 764.362,226.788 760.842,233.168 C753.692,245.818 744.672,255.938 732.792,264.518 C735.652,266.168 736.642,266.938 739.172,269.798 C750.062,261.108 757.872,252.528 765.352,240.538 L803.852,239.988 C800.002,251.648 795.052,262.098 788.562,271.888 C779.652,264.518 773.602,260.228 764.252,254.838 L759.192,260.448 C767.882,265.398 775.912,271.118 783.832,278.268 C778.442,285.198 773.382,289.708 764.802,295.648 C757.322,300.818 751.382,304.008 742.032,307.638 C744.672,309.948 745.662,311.158 747.422,314.458 C762.052,307.748 772.942,300.598 782.182,291.798 C793.622,280.798 803.302,264.958 810.892,244.498 C812.762,239.328 812.872,238.998 814.082,237.238 L809.132,232.288 C807.482,232.948 805.502,233.278 802.752,233.388 C770.302,233.718 770.302,233.718 768.762,233.938 C770.082,231.848 771.182,229.978 772.172,227.888 C774.592,222.718 774.592,222.718 776.022,220.628 L767.332,218.098 M916.822,221.618 C913.742,226.788 906.042,234.488 895.812,242.408 C878.432,256.048 859.402,265.508 838.722,270.898 C840.922,273.648 841.472,274.748 843.012,278.268 C863.142,271.448 871.172,267.818 885.472,259.018 L885.472,300.818 C885.472,306.868 885.362,309.398 884.812,312.258 L894.382,312.258 C893.942,309.288 893.832,306.868 893.832,300.598 L893.832,253.738 C903.292,246.918 912.642,238.888 919.572,231.628 C922.322,228.658 922.432,228.438 924.412,227.008 L916.822,221.618 M976.986,221.508 C976.106,227.778 973.686,236.578 968.296,253.188 C962.906,269.688 958.506,281.348 951.686,296.748 C949.156,296.968 943.106,297.298 942.336,297.298 C941.786,297.298 941.786,297.298 939.256,297.188 L940.356,306.318 C942.446,305.878 945.526,305.438 949.706,305.108 C976.986,302.578 998.876,299.608 1017.36,295.978 C1019.89,301.038 1021.43,304.558 1023.85,310.828 L1031.55,306.648 C1023.96,288.938 1012.96,269.028 1004.16,256.928 L997.336,260.668 C1002.73,268.148 1008.45,277.608 1014.28,289.158 C1001.3,291.688 975.446,295.098 960.816,296.088 C968.186,279.258 975.666,258.138 983.696,231.738 C984.796,228.108 985.566,225.908 986.666,223.818 L976.986,221.508 M1095.79,258.138 C1090.84,258.138 1086.77,262.208 1086.77,267.158 C1086.77,272.108 1090.84,276.178 1095.79,276.178 C1100.74,276.178 1104.81,272.108 1104.81,267.158 C1104.81,262.208 1100.74,258.138 1095.79,258.138 M1192.81,312.368 C1192.37,309.288 1192.26,306.868 1192.26,300.708 L1192.26,267.598 C1192.26,264.848 1192.15,263.308 1191.82,261.108 L1192.04,260.998 C1193.03,261.768 1193.8,262.208 1195.45,262.868 C1210.96,269.248 1226.14,277.388 1236.48,284.648 L1241.21,276.508 C1221.96,265.398 1209.2,259.348 1192.26,253.298 L1192.26,232.728 C1192.26,226.458 1192.37,224.148 1192.81,221.288 L1183.35,221.288 C1183.79,224.038 1184.01,226.678 1184.01,232.508 L1184.01,300.818 C1184.01,306.758 1183.79,309.398 1183.35,312.368 L1192.81,312.368 M1319.2,254.398 L1319.2,247.248 C1319.2,243.508 1319.31,241.858 1319.64,239.988 L1311.5,239.988 C1311.83,241.748 1311.94,243.398 1311.94,247.358 L1311.94,254.398 L1294.01,254.398 C1289.83,254.398 1287.41,254.288 1284.88,253.848 C1285.1,256.488 1285.21,258.358 1285.21,261.988 L1285.21,271.558 C1285.21,275.298 1285.1,277.388 1284.77,280.138 L1293.02,280.138 C1292.69,277.498 1292.58,275.628 1292.58,271.668 L1292.58,260.778 L1339.99,260.778 C1339.33,266.278 1338.56,270.238 1337.02,275.188 C1333.61,285.748 1328.33,292.568 1319.2,298.728 C1312.93,302.798 1307.98,304.888 1300.06,306.868 C1302.26,309.398 1302.92,310.388 1304.68,313.688 C1317.55,308.848 1324.59,304.888 1330.97,298.728 C1339.99,290.148 1344.72,279.698 1347.14,263.418 C1347.69,259.898 1347.91,258.798 1348.68,257.368 L1344.61,253.518 C1342.96,254.288 1341.97,254.398 1338.78,254.398 L1319.2,254.398 M1425.79,258.138 C1420.84,258.138 1416.77,262.208 1416.77,267.158 C1416.77,272.108 1420.84,276.178 1425.79,276.178 C1430.74,276.178 1434.81,272.108 1434.81,267.158 C1434.81,262.208 1430.74,258.138 1425.79,258.138 M1514.56,250.658 L1500.59,252.528 C1496.85,252.968 1493,253.298 1491.13,253.298 C1490.69,253.298 1490.25,253.298 1489.48,253.298 L1490.47,261.548 C1493.99,260.668 1493.99,260.668 1501.25,259.678 L1514.56,257.808 L1514.56,284.318 C1514.56,295.538 1515.33,298.948 1518.63,302.468 C1522.15,306.098 1528.53,307.638 1541.07,307.638 C1548.55,307.638 1556.03,307.088 1567.14,305.658 C1570.11,305.328 1570.77,305.218 1573.74,305.108 L1573.19,296.198 C1564.72,298.618 1552.73,300.048 1541.18,300.048 C1532.16,300.048 1527.54,299.278 1525.23,297.298 C1522.92,295.318 1522.48,293.008 1522.48,282.778 L1522.48,256.818 C1535.02,255.058 1549.1,253.078 1564.5,250.988 C1565.16,250.878 1565.38,250.878 1565.82,250.768 C1566.92,250.548 1567.36,250.438 1568.35,250.218 C1563.51,260.228 1555.37,268.588 1543.38,275.738 C1546.46,277.388 1547.45,278.158 1549.98,281.018 C1558.01,275.408 1564.06,269.798 1568.68,263.858 C1571.54,260.118 1574.07,256.048 1577.04,249.778 C1577.92,248.128 1578.03,247.908 1578.8,246.698 L1573.41,242.188 C1571.54,243.178 1571.32,243.288 1567.14,243.728 L1522.48,249.668 L1522.48,233.608 C1522.48,228.768 1522.59,226.568 1523.03,223.488 L1514.12,223.488 C1514.56,227.118 1514.56,227.888 1514.56,233.608 L1514.56,250.658 M1673.6,221.618 C1670.52,226.788 1662.82,234.488 1652.59,242.408 C1635.21,256.048 1616.18,265.508 1595.5,270.898 C1597.7,273.648 1598.25,274.748 1599.79,278.268 C1619.92,271.448 1627.95,267.818 1642.25,259.018 L1642.25,300.818 C1642.25,306.868 1642.14,309.398 1641.59,312.258 L1651.16,312.258 C1650.72,309.288 1650.61,306.868 1650.61,300.598 L1650.61,253.738 C1660.07,246.918 1669.42,238.888 1676.35,231.628 C1679.1,228.658 1679.21,228.438 1681.19,227.008 L1673.6,221.618 M1752.47,258.138 C1747.52,258.138 1743.45,262.208 1743.45,267.158 C1743.45,272.108 1747.52,276.178 1752.47,276.178 C1757.42,276.178 1761.49,272.108 1761.49,267.158 C1761.49,262.208 1757.42,258.138 1752.47,258.138 M1850.59,219.968 C1850.37,222.828 1848.06,228.328 1843.66,235.918 C1835.63,249.668 1826.83,259.348 1816.05,266.168 C1819.24,268.038 1820.34,269.138 1822.21,271.778 C1832,264.738 1842.45,253.188 1848.5,243.178 L1885.57,242.628 C1877.1,273.098 1856.42,296.198 1827.82,307.198 C1830.57,309.288 1831.67,310.718 1833.32,313.688 C1863.9,300.048 1883.04,278.488 1893.16,246.148 C1894.04,243.288 1894.15,243.068 1895.03,241.858 L1888.43,234.928 C1886.89,235.588 1886.56,235.588 1882.71,235.698 L1856.09,236.138 C1854,236.138 1853.01,236.248 1852.13,236.468 C1853.23,234.928 1854.44,232.398 1857.19,226.788 C1858.51,223.818 1858.62,223.708 1859.61,222.278 L1850.59,219.968 M1888.1,221.728 C1891.62,225.358 1896.57,232.948 1899.32,238.668 L1904.82,235.368 C1901.41,228.768 1898.99,225.138 1893.6,218.758 L1888.1,221.728 M1900.53,215.678 C1905.15,220.958 1909.11,227.008 1911.75,232.508 L1917.25,229.318 C1913.29,222.168 1911.42,219.308 1905.92,212.598 L1900.53,215.678 M1932.54,250.878 C1937.16,258.468 1940.24,265.838 1942.88,275.518 L1950.36,272.988 C1946.29,261.328 1943.87,256.158 1939.47,248.568 L1932.54,250.878 M1955.2,246.258 C1959.93,254.508 1963.34,262.538 1965.32,270.348 L1972.58,267.818 C1969.72,259.018 1967.74,254.618 1961.91,244.168 L1955.2,246.258 M1993.37,246.148 C1993.37,246.478 1993.37,246.478 1993.37,246.808 L1993.37,247.248 C1993.37,248.568 1992.93,251.098 1992.16,254.728 C1990.18,263.198 1986.99,271.448 1982.81,278.378 C1975.22,291.028 1964.88,299.498 1947.94,307.088 C1950.47,309.398 1951.35,310.498 1953,313.248 C1970.05,304.998 1981.6,294.878 1989.41,281.458 C1993.37,274.638 1997.33,264.518 1999.09,256.818 C2000.85,249.668 2000.85,249.668 2001.51,247.908 L1993.37,246.148 M2055.19,228.988 C2055.3,229.758 2055.3,230.418 2055.3,230.748 C2055.3,232.728 2054.86,236.688 2054.2,241.088 C2052.11,255.498 2048.26,268.368 2042.87,279.258 C2038.25,288.498 2033.74,294.658 2026.92,301.038 C2030,302.798 2031.21,303.788 2033.96,306.758 C2049.47,290.588 2058.38,269.468 2063,238.118 C2063.88,232.508 2063.99,231.848 2064.43,230.638 L2055.19,228.988 M2086.76,230.638 C2087.2,232.068 2087.64,234.048 2088.19,237.898 C2092.48,266.058 2103.48,291.468 2118.11,306.978 C2120.64,303.898 2121.96,302.688 2124.93,300.818 C2114.26,291.028 2105.24,274.748 2099.96,255.388 C2097.32,246.368 2094.9,233.718 2094.9,228.988 L2086.76,230.638 M2101.06,225.908 C2104.14,229.318 2109.42,237.788 2111.95,243.618 L2117.56,240.428 C2114.48,233.938 2111.4,229.208 2106.56,223.158 L2101.06,225.908 M2113.71,220.298 C2117.89,225.468 2122.29,232.508 2124.6,237.788 L2130.1,234.818 C2126.69,227.888 2123.94,223.488 2119.1,217.438 L2113.71,220.298 M2213.7,221.618 C2210.62,226.788 2202.92,234.488 2192.69,242.408 C2175.31,256.048 2156.28,265.508 2135.6,270.898 C2137.8,273.648 2138.35,274.748 2139.89,278.268 C2160.02,271.448 2168.05,267.818 2182.35,259.018 L2182.35,300.818 C2182.35,306.868 2182.24,309.398 2181.69,312.258 L2191.26,312.258 C2190.82,309.288 2190.71,306.868 2190.71,300.598 L2190.71,253.738 C2200.17,246.918 2209.52,238.888 2216.45,231.628 C2219.2,228.658 2219.31,228.438 2221.29,227.008 L2213.7,221.618 "/>
<path class="MeasureNumber" d="M232.288,1027.64 C230.168,1027.88 227.568,1028.04 225.328,1028.04 C224.208,1028.04 222.928,1028 221.488,1027.92 C220.168,1027.84 218.848,1027.76 217.488,1027.68 L216.488,1027.64 L212.608,1036.08 L214.088,1036.56 L215.048,1034.96 C216.928,1031.84 217.808,1031.4 221.888,1031.44 L228.648,1031.44 L224.288,1037.68 C219.168,1044.88 219.168,1044.88 217.208,1048.08 C215.448,1050.92 214.728,1052.68 214.728,1054.12 C214.728,1055.52 215.608,1056.4 217.008,1056.4 C218.488,1056.4 219.248,1055.68 219.768,1053.8 C221.768,1046.28 222.968,1043.68 228.528,1034.68 L232.288,1028.84 L232.288,1027.64 "/>
<path class="TieSegment" stroke="#000000" stroke-width="1.74" stroke-linecap="round" stroke-linejoin="round" fill-rule="evenodd" d="M868.602,1235.2 C895.294,1254.74 975.369,1254.74 1002.06,1235.2 C975.369,1261.68 895.294,1261.68 868.602,1235.2"/>
<path class="TieSegment" stroke="#000000" stroke-width="1.74" stroke-linecap="round" stroke-linejoin="round" fill-rule="evenodd" d="M861.469,763.995 C892.28,784.949 984.715,784.949 1015.53,763.995 C984.715,791.893 892.28,791.893 861.469,763.995"/>
<path class="TieSegment" stroke="#000000" stroke-width="1.74" stroke-linecap="round" stroke-linejoin="round" fill-rule="evenodd" d="M2374.21,776.395 C2406.3,797.766 2502.6,797.766 2534.69,776.395 C2502.6,804.71 2406.3,804.71 2374.21,776.395"/>
<polyline class="BarLine" fill="none" stroke="#000000" stroke-width="4.46" stroke-linejoin="bevel" points="2740.42,1104.03 2740.42,1205.96"/>
<polyline class="BarLine" fill="none" stroke="#000000" stroke-width="13.64" stroke-linejoin="bevel" points="2757.78,1104.03 2757.78,1205.96"/>
<polyline class="BarLine" fill="none" stroke="#000000" stroke-width="4.46" stroke-linejoin="bevel" points="809.289,632.834 809.289,734.762"/>
<polyline class="BarLine" fill="none" stroke="#000000" stroke-width="4.46" stroke-linejoin="bevel" points="2246.06,1104.03 2246.06,1205.96"/>
<polyline class="BarLine" fill="none" stroke="#000000" stroke-width="4.46" stroke-linejoin="bevel" points="1971.08,632.834 1971.08,734.762"/>
<polyline class="BarLine" fill="none" stroke="#000000" stroke-width="4.46" stroke-linejoin="bevel" points="1516.23,1104.03 1516.23,1205.96"/>
<polyline class="BarLine" fill="none" stroke="#000000" stroke-width="4.46" stroke-linejoin="bevel" points="2448.94,1104.03 2448.94,1205.96"/>
<polyline class="BarLine" fill="none" stroke="#000000" stroke-width="4.46" stroke-linejoin="bevel" points="1130.19,632.834 1130.19,734.762"/>
<polyline class="BarLine" fill="none" stroke="#000000" stroke-width="4.46" stroke-linejoin="bevel" points="1109.5,1104.03 1109.5,1205.96"/>
<polyline class="BarLine" fill="none" stroke="#000000" stroke-width="4.46" stroke-linejoin="bevel" points="1954.58,1104.03 1954.58,1205.96"/>
<polyline class="BarLine" fill="none" stroke="#000000" stroke-width="4.46" stroke-linejoin="bevel" points="2428.16,632.834 2428.16,734.762"/>
<polyline class="BarLine" fill="none" stroke="#000000" stroke-width="4.46" stroke-linejoin="bevel" points="816.423,1104.03 816.423,1205.96"/>
<polyline class="BarLine" fill="none" stroke="#000000" stroke-width="4.46" stroke-linejoin="bevel" points="1483.29,632.834 1483.29,734.762"/>
<path class="BarLine" transform="matrix(0.992,0,0,0.992,2647.39,671.398)" d="M10.4,0 C10.4,-2.9 8.1,-5.3 5.2,-5.3 C2.3,-5.3 0,-2.9 0,0 C0,2.9 2.3,5.3 5.2,5.3 C8.1,5.3 10.4,2.9 10.4,0"/>
<path class="BarLine" transform="matrix(0.992,0,0,0.992,2647.39,696.198)" d="M10.4,0 C10.4,-2.9 8.1,-5.3 5.2,-5.3 C2.3,-5.3 0,-2.9 0,0 C0,2.9 2.3,5.3 5.2,5.3 C8.1,5.3 10.4,2.9 10.4,0"/>
<polyline class="BarLine" fill="none" stroke="#000000" stroke-width="4.46" stroke-linejoin="bevel" points="2669.94,632.834 2669.94,734.762"/>
<polyline class="BarLine" fill="none" stroke="#000000" stroke-width="13.64" stroke-linejoin="bevel" points="2687.3,632.834 2687.3,734.762"/>
<polyline class="LedgerLine" fill="none" stroke="#000000" stroke-width="3.97" stroke-linejoin="bevel" points="480.252,1229.4 529.837,1229.4"/>
<polyline class="LedgerLine" fill="none" stroke="#000000" stroke-width="3.97" stroke-linejoin="bevel" points="2513.27,758.198 2562.85,758.198"/>
<polyline class="LedgerLine" fill="none" stroke="#000000" stroke-width="3.97" stroke-linejoin="bevel" points="480.252,1254.2 529.837,1254.2"/>
<polyline class="LedgerLine" fill="none" stroke="#000000" stroke-width="3.97" stroke-linejoin="bevel" points="673.201,758.198 722.786,758.198"/>
<polyline class="LedgerLine" fill="none" stroke="#000000" stroke-width="3.97" stroke-linejoin="bevel" points="2347.82,758.198 2397.4,758.198"/>
<polyline class="LedgerLine" fill="none" stroke="#000000" stroke-width="3.97" stroke-linejoin="bevel" points="2298.24,758.198 2347.82,758.198"/>
<polyline class="LedgerLine" fill="none" stroke="#000000" stroke-width="3.97" stroke-linejoin="bevel" points="464.132,782.998 513.717,782.998"/>
<polyline class="LedgerLine" fill="none" stroke="#000000" stroke-width="3.97" stroke-linejoin="bevel" points="2166.3,758.198 2215.88,758.198"/>
<polyline class="LedgerLine" fill="none" stroke="#000000" stroke-width="3.97" stroke-linejoin="bevel" points="464.132,758.198 513.717,758.198"/>
<polyline class="LedgerLine" fill="none" stroke="#000000" stroke-width="3.97" stroke-linejoin="bevel" points="1509.09,758.198 1558.67,758.198"/>
<polyline class="Stem" fill="none" stroke="#000000" stroke-width="2.73" stroke-linejoin="bevel" points="1581.56,1213.03 1581.56,1130.2"/>
<polyline class="Stem" fill="none" stroke="#000000" stroke-width="2.73" stroke-linejoin="bevel" points="1875.5,1163.43 1875.5,1077.5"/>
<polyline class="Stem" fill="none" stroke="#000000" stroke-width="2.73" stroke-linejoin="bevel" points="1442.5,717.03 1442.5,634.198"/>
<polyline class="Stem" fill="none" stroke="#000000" stroke-width="2.73" stroke-linejoin="bevel" points="1548.63,741.83 1548.63,658.998"/>
<polyline class="Stem" fill="none" stroke="#000000" stroke-width="2.73" stroke-linejoin="bevel" points="1475.43,1188.23 1475.43,1105.4"/>
<polyline class="Stem" fill="none" stroke="#000000" stroke-width="2.73" stroke-linejoin="bevel" points="1437.15,1175.83 1437.15,1105.4"/>
<polyline class="Stem" fill="none" stroke="#000000" stroke-width="2.73" stroke-linejoin="bevel" points="1398.52,704.63 1398.52,634.198"/>
<polyline class="Stem" fill="none" stroke="#000000" stroke-width="2.73" stroke-linejoin="bevel" points="874.622,741.83 874.622,658.998"/>
<polyline class="Stem" fill="none" stroke="#000000" stroke-width="2.73" stroke-linejoin="bevel" points="1625.14,663.165 1625.14,745.699"/>
<polyline class="Stem" fill="none" stroke="#000000" stroke-width="2.73" stroke-linejoin="bevel" points="1644.34,1134.36 1644.34,1216.9"/>
<polyline class="Stem" fill="none" stroke="#000000" stroke-width="2.73" stroke-linejoin="bevel" points="1680.89,675.565 1680.89,764.398"/>
<polyline class="Stem" fill="none" stroke="#000000" stroke-width="2.73" stroke-linejoin="bevel" points="1398.87,1200.63 1398.87,1105.4"/>
<polyline class="Stem" fill="none" stroke="#000000" stroke-width="2.73" stroke-linejoin="bevel" points="1289.68,1188.23 1289.68,1105.4"/>
<polyline class="Stem" fill="none" stroke="#000000" stroke-width="2.73" stroke-linejoin="bevel" points="2172.4,1146.76 2172.4,1223.2"/>
<polyline class="Stem" fill="none" stroke="#000000" stroke-width="2.73" stroke-linejoin="bevel" points="1724.87,700.365 1724.87,764.398"/>
<polyline class="Stem" fill="none" stroke="#000000" stroke-width="2.73" stroke-linejoin="bevel" points="1251.4,1188.23 1251.4,1111.6"/>
<polyline class="Stem" fill="none" stroke="#000000" stroke-width="2.73" stroke-linejoin="bevel" points="1768.85,663.165 1768.85,764.398"/>
<polyline class="Stem" fill="none" stroke="#000000" stroke-width="2.73" stroke-linejoin="bevel" points="1213.11,1188.23 1213.11,1111.6"/>
<polyline class="Stem" fill="none" stroke="#000000" stroke-width="2.73" stroke-linejoin="bevel" points="1842.33,667.43 1842.33,603.385"/>
<polyline class="Stem" fill="none" stroke="#000000" stroke-width="2.73" stroke-linejoin="bevel" points="1692.87,1146.76 1692.87,1235.6"/>
<polyline class="Stem" fill="none" stroke="#000000" stroke-width="2.73" stroke-linejoin="bevel" points="1174.83,1188.23 1174.83,1111.6"/>
<polyline class="Stem" fill="none" stroke="#000000" stroke-width="2.73" stroke-linejoin="bevel" points="2099.61,1159.16 2099.61,1229.4"/>
<polyline class="Stem" fill="none" stroke="#000000" stroke-width="2.73" stroke-linejoin="bevel" points="1886.31,692.23 1886.31,609.398"/>
<polyline class="Stem" fill="none" stroke="#000000" stroke-width="2.73" stroke-linejoin="bevel" points="587.3,741.83 587.3,658.998"/>
<polyline class="Stem" fill="none" stroke="#000000" stroke-width="2.73" stroke-linejoin="bevel" points="1930.29,717.03 1930.29,615.412"/>
<polyline class="Stem" fill="none" stroke="#000000" stroke-width="2.73" stroke-linejoin="bevel" points="1068.7,1200.63 1068.7,1130.36"/>
<polyline class="Stem" fill="none" stroke="#000000" stroke-width="2.73" stroke-linejoin="bevel" points="1731.16,1171.56 1731.16,1235.6"/>
<polyline class="Stem" fill="none" stroke="#000000" stroke-width="2.73" stroke-linejoin="bevel" points="1020.17,1213.03 1020.17,1136.23"/>
<polyline class="Stem" fill="none" stroke="#000000" stroke-width="2.73" stroke-linejoin="bevel" points="2036.42,692.23 2036.42,615.598"/>
<polyline class="Stem" fill="none" stroke="#000000" stroke-width="2.73" stroke-linejoin="bevel" points="881.756,1213.03 881.756,1130.2"/>
<polyline class="Stem" fill="none" stroke="#000000" stroke-width="2.73" stroke-linejoin="bevel" points="2161.86,729.43 2161.86,634.198"/>
<polyline class="Stem" fill="none" stroke="#000000" stroke-width="2.73" stroke-linejoin="bevel" points="712.742,754.23 712.742,665.054"/>
<polyline class="Stem" fill="none" stroke="#000000" stroke-width="2.73" stroke-linejoin="bevel" points="775.627,1200.63 775.627,1130.36"/>
<polyline class="Stem" fill="none" stroke="#000000" stroke-width="2.73" stroke-linejoin="bevel" points="2019.91,1163.43 2019.91,1086.8"/>
<polyline class="Stem" fill="none" stroke="#000000" stroke-width="2.73" stroke-linejoin="bevel" points="2205.84,704.63 2205.84,634.198"/>
<polyline class="Stem" fill="none" stroke="#000000" stroke-width="2.73" stroke-linejoin="bevel" points="1354.54,729.43 1354.54,634.198"/>
<polyline class="Stem" fill="none" stroke="#000000" stroke-width="2.73" stroke-linejoin="bevel" points="1769.44,1134.36 1769.44,1235.6"/>
<polyline class="Stem" fill="none" stroke="#000000" stroke-width="2.73" stroke-linejoin="bevel" points="2249.82,717.03 2249.82,634.198"/>
<polyline class="Stem" fill="none" stroke="#000000" stroke-width="2.73" stroke-linejoin="bevel" points="727.098,1213.03 727.098,1136.23"/>
<polyline class="Stem" fill="none" stroke="#000000" stroke-width="2.73" stroke-linejoin="bevel" points="2293.8,729.43 2293.8,659.086"/>
<polyline class="Stem" fill="none" stroke="#000000" stroke-width="2.73" stroke-linejoin="bevel" points="503.673,779.03 503.673,683.798"/>
<polyline class="Stem" fill="none" stroke="#000000" stroke-width="2.73" stroke-linejoin="bevel" points="1195.52,717.03 1195.52,634.198"/>
<polyline class="Stem" fill="none" stroke="#000000" stroke-width="2.73" stroke-linejoin="bevel" points="617.907,1213.03 617.907,1130.2"/>
<polyline class="Stem" fill="none" stroke="#000000" stroke-width="2.73" stroke-linejoin="bevel" points="2337.78,741.83 2337.78,661.918"/>
<polyline class="Stem" fill="none" stroke="#000000" stroke-width="2.73" stroke-linejoin="bevel" points="1089.39,729.43 1089.39,659.143"/>
<polyline class="Stem" fill="none" stroke="#000000" stroke-width="2.73" stroke-linejoin="bevel" points="569.377,1213.03 569.377,1148.96"/>
<polyline class="Stem" fill="none" stroke="#000000" stroke-width="2.73" stroke-linejoin="bevel" points="2387.36,754.23 2387.36,665.111"/>
<polyline class="Stem" fill="none" stroke="#000000" stroke-width="2.73" stroke-linejoin="bevel" points="768.493,729.43 768.493,659.143"/>
<polyline class="Stem" fill="none" stroke="#000000" stroke-width="2.73" stroke-linejoin="bevel" points="519.793,1250.23 519.793,1154.84"/>
<polyline class="Stem" fill="none" stroke="#000000" stroke-width="2.73" stroke-linejoin="bevel" points="1033.64,741.83 1033.64,665.054"/>
<polyline class="Stem" fill="none" stroke="#000000" stroke-width="2.73" stroke-linejoin="bevel" points="2484.77,1134.36 2484.77,1217"/>
<polyline class="Stem" fill="none" stroke="#000000" stroke-width="2.73" stroke-linejoin="bevel" points="1837.22,1138.63 1837.22,1074.51"/>
<polyline class="Stem" fill="none" stroke="#000000" stroke-width="2.73" stroke-linejoin="bevel" points="2552.81,754.23 2552.81,671.398"/>
<polyline class="Stem" fill="none" stroke="#000000" stroke-width="2.73" stroke-linejoin="bevel" points="1913.78,1188.23 1913.78,1080.49"/>
<path class="Hook" transform="matrix(0.992,0,0,0.992,1642.98,1217)" d="M0,-0.1 C0,0.6 0.6,1.2 1.3,1.2 C1.8,1.2 2.4,0.8 2.5,0.4 C2.5,0.3 3.4,-3.2 3.5,-3.5 C3.6,-3.9 4.5,-7.7 8.1,-13.6 C12,-20.1 18,-24.8 23,-31.8 C28,-38.8 30.9,-45.4 30.9,-54.2 C30.9,-63.3 28.9,-70.9 23.5,-80.6 C23.2,-81.3 22.6,-81.7 22,-81.7 C21.8,-81.7 21.6,-81.7 21.5,-81.6 C21,-81.4 20.8,-81 20.8,-80.4 C20.8,-80.1 20.9,-79.7 21.1,-79.2 C25.1,-69.9 26.7,-64.6 26.7,-57.4 C26.7,-49.1 23.8,-44.8 22,-41.7 C15.5,-30.6 5,-25.2 0.8,-23.8 C0.1,-23.6 0,-23 0,-22.7 L0,-0.1 "/>
<path class="Hook" transform="matrix(0.992,0,0,0.992,1623.78,745.798)" d="M0,-0.1 C0,0.6 0.6,1.2 1.3,1.2 C1.8,1.2 2.4,0.8 2.5,0.4 C2.5,0.3 3.4,-3.2 3.5,-3.5 C3.6,-3.9 4.5,-7.7 8.1,-13.6 C12,-20.1 18,-24.8 23,-31.8 C28,-38.8 30.9,-45.4 30.9,-54.2 C30.9,-63.3 28.9,-70.9 23.5,-80.6 C23.2,-81.3 22.6,-81.7 22,-81.7 C21.8,-81.7 21.6,-81.7 21.5,-81.6 C21,-81.4 20.8,-81 20.8,-80.4 C20.8,-80.1 20.9,-79.7 21.1,-79.2 C25.1,-69.9 26.7,-64.6 26.7,-57.4 C26.7,-49.1 23.8,-44.8 22,-41.7 C15.5,-30.6 5,-25.2 0.8,-23.8 C0.1,-23.6 0,-23 0,-22.7 L0,-0.1 "/>
<path class="Note" transform="matrix(0.992,0,0,0.992,1411.64,720.998)" d="M0,4.2 C0,8.5 3.1,13.3 11.2,13.3 C21.6,13.3 32.5,4.8 32.5,-4 C32.5,-9.9 27.5,-13.2 21.3,-13.2 C11.6,-13.2 0,-5 0,4.2"/>
<path class="Note" transform="matrix(0.992,0,0,0.992,2262.94,733.398)" d="M0,4.2 C0,8.5 3.1,13.3 11.2,13.3 C21.6,13.3 32.5,4.8 32.5,-4 C32.5,-9.9 27.5,-13.2 21.3,-13.2 C11.6,-13.2 0,-5 0,4.2"/>
<path class="Note" transform="matrix(0.992,0,0,0.992,737.633,733.398)" d="M0,4.2 C0,8.5 3.1,13.3 11.2,13.3 C21.6,13.3 32.5,4.8 32.5,-4 C32.5,-9.9 27.5,-13.2 21.3,-13.2 C11.6,-13.2 0,-5 0,4.2"/>
<path class="Note" transform="matrix(0.992,0,0,0.992,2521.95,758.198)" d="M21.3,-13.2 C11.6,-13.2 0,-5.1 0,4.2 C0,8.5 3.1,13.3 11.2,13.3 C21.6,13.3 32.5,4.8 32.5,-4 C32.5,-9.9 27.5,-13.2 21.3,-13.2 M7.5,8.6 C4.2,8.6 3.5,5.9 3.5,5 C3.5,0.1 20.3,-8.5 25,-8.5 C27.4,-8.5 29,-7.1 29,-4.9 C29,0.1 12.1,8.6 7.5,8.6"/>
<path class="Note" transform="matrix(0.992,0,0,0.992,843.761,745.798)" d="M21.3,-13.2 C11.6,-13.2 0,-5.1 0,4.2 C0,8.5 3.1,13.3 11.2,13.3 C21.6,13.3 32.5,4.8 32.5,-4 C32.5,-9.9 27.5,-13.2 21.3,-13.2 M7.5,8.6 C4.2,8.6 3.5,5.9 3.5,5 C3.5,0.1 20.3,-8.5 25,-8.5 C27.4,-8.5 29,-7.1 29,-4.9 C29,0.1 12.1,8.6 7.5,8.6"/>
<path class="Note" transform="matrix(0.992,0,0,0.992,1550.7,1217)" d="M0,4.2 C0,8.5 3.1,13.3 11.2,13.3 C21.6,13.3 32.5,4.8 32.5,-4 C32.5,-9.9 27.5,-13.2 21.3,-13.2 C11.6,-13.2 0,-5 0,4.2"/>
<path class="Note" transform="matrix(0.992,0,0,0.992,2218.96,720.998)" d="M0,4.2 C0,8.5 3.1,13.3 11.2,13.3 C21.6,13.3 32.5,4.8 32.5,-4 C32.5,-9.9 27.5,-13.2 21.3,-13.2 C11.6,-13.2 0,-5 0,4.2"/>
<path class="Note" transform="matrix(0.992,0,0,0.992,1806.36,1142.6)" d="M0,4.2 C0,8.5 3.1,13.3 11.2,13.3 C21.6,13.3 32.5,4.8 32.5,-4 C32.5,-9.9 27.5,-13.2 21.3,-13.2 C11.6,-13.2 0,-5 0,4.2"/>
<path class="Note" transform="matrix(0.992,0,0,0.992,1882.92,1192.2)" d="M0,4.2 C0,8.5 3.1,13.3 11.2,13.3 C21.6,13.3 32.5,4.8 32.5,-4 C32.5,-9.9 27.5,-13.2 21.3,-13.2 C11.6,-13.2 0,-5 0,4.2"/>
<path class="Note" transform="matrix(0.992,0,0,0.992,2356.5,758.198)" d="M0,4.2 C0,8.5 3.1,13.3 11.2,13.3 C21.6,13.3 32.5,4.8 32.5,-4 C32.5,-9.9 27.5,-13.2 21.3,-13.2 C11.6,-13.2 0,-5 0,4.2"/>
<path class="Note" transform="matrix(0.992,0,0,0.992,1002.78,745.798)" d="M0,4.2 C0,8.5 3.1,13.3 11.2,13.3 C21.6,13.3 32.5,4.8 32.5,-4 C32.5,-9.9 27.5,-13.2 21.3,-13.2 C11.6,-13.2 0,-5 0,4.2"/>
<path class="Note" transform="matrix(0.992,0,0,0.992,2483.41,1130.2)" d="M0,4.2 C0,8.5 3.1,13.3 11.2,13.3 C21.6,13.3 32.5,4.8 32.5,-4 C32.5,-9.9 27.5,-13.2 21.3,-13.2 C11.6,-13.2 0,-5 0,4.2"/>
<path class="Note" transform="matrix(0.992,0,0,0.992,488.932,1254.2)" d="M0,4.2 C0,8.5 3.1,13.3 11.2,13.3 C21.6,13.3 32.5,4.8 32.5,-4 C32.5,-9.9 27.5,-13.2 21.3,-13.2 C11.6,-13.2 0,-5 0,4.2"/>
<path class="Note" transform="matrix(0.992,0,0,0.992,1768.07,1130.2)" d="M0,4.2 C0,8.5 3.1,13.3 11.2,13.3 C21.6,13.3 32.5,4.8 32.5,-4 C32.5,-9.9 27.5,-13.2 21.3,-13.2 C11.6,-13.2 0,-5 0,4.2"/>
<path class="Note" transform="matrix(0.992,0,0,0.992,2306.92,745.798)" d="M0,4.2 C0,8.5 3.1,13.3 11.2,13.3 C21.6,13.3 32.5,4.8 32.5,-4 C32.5,-9.9 27.5,-13.2 21.3,-13.2 C11.6,-13.2 0,-5 0,4.2"/>
<path class="Note" transform="matrix(0.992,0,0,0.992,538.517,1217)" d="M0,4.2 C0,8.5 3.1,13.3 11.2,13.3 C21.6,13.3 32.5,4.8 32.5,-4 C32.5,-9.9 27.5,-13.2 21.3,-13.2 C11.6,-13.2 0,-5 0,4.2"/>
<path class="Note" transform="matrix(0.992,0,0,0.992,1058.53,733.398)" d="M0,4.2 C0,8.5 3.1,13.3 11.2,13.3 C21.6,13.3 32.5,4.8 32.5,-4 C32.5,-9.9 27.5,-13.2 21.3,-13.2 C11.6,-13.2 0,-5 0,4.2"/>
<path class="Note" transform="matrix(0.992,0,0,0.992,587.046,1217)" d="M21.3,-13.2 C11.6,-13.2 0,-5.1 0,4.2 C0,8.5 3.1,13.3 11.2,13.3 C21.6,13.3 32.5,4.8 32.5,-4 C32.5,-9.9 27.5,-13.2 21.3,-13.2 M7.5,8.6 C4.2,8.6 3.5,5.9 3.5,5 C3.5,0.1 20.3,-8.5 25,-8.5 C27.4,-8.5 29,-7.1 29,-4.9 C29,0.1 12.1,8.6 7.5,8.6"/>
<path class="Note" transform="matrix(0.992,0,0,0.992,1164.66,720.998)" d="M21.3,-13.2 C11.6,-13.2 0,-5.1 0,4.2 C0,8.5 3.1,13.3 11.2,13.3 C21.6,13.3 32.5,4.8 32.5,-4 C32.5,-9.9 27.5,-13.2 21.3,-13.2 M7.5,8.6 C4.2,8.6 3.5,5.9 3.5,5 C3.5,0.1 20.3,-8.5 25,-8.5 C27.4,-8.5 29,-7.1 29,-4.9 C29,0.1 12.1,8.6 7.5,8.6"/>
<path class="Note" transform="matrix(0.992,0,0,0.992,696.237,1217)" d="M0,4.2 C0,8.5 3.1,13.3 11.2,13.3 C21.6,13.3 32.5,4.8 32.5,-4 C32.5,-9.9 27.5,-13.2 21.3,-13.2 C11.6,-13.2 0,-5 0,4.2"/>
<path class="Note" transform="matrix(0.992,0,0,0.992,2174.98,708.598)" d="M0,4.2 C0,8.5 3.1,13.3 11.2,13.3 C21.6,13.3 32.5,4.8 32.5,-4 C32.5,-9.9 27.5,-13.2 21.3,-13.2 C11.6,-13.2 0,-5 0,4.2"/>
<path class="Note" transform="matrix(0.992,0,0,0.992,1989.05,1167.4)" d="M21.3,-13.2 C11.6,-13.2 0,-5.1 0,4.2 C0,8.5 3.1,13.3 11.2,13.3 C21.6,13.3 32.5,4.8 32.5,-4 C32.5,-9.9 27.5,-13.2 21.3,-13.2 M7.5,8.6 C4.2,8.6 3.5,5.9 3.5,5 C3.5,0.1 20.3,-8.5 25,-8.5 C27.4,-8.5 29,-7.1 29,-4.9 C29,0.1 12.1,8.6 7.5,8.6"/>
<path class="Note" transform="matrix(0.992,0,0,0.992,744.767,1204.6)" d="M0,4.2 C0,8.5 3.1,13.3 11.2,13.3 C21.6,13.3 32.5,4.8 32.5,-4 C32.5,-9.9 27.5,-13.2 21.3,-13.2 C11.6,-13.2 0,-5 0,4.2"/>
<path class="Note" transform="matrix(0.992,0,0,0.992,681.881,758.198)" d="M0,4.2 C0,8.5 3.1,13.3 11.2,13.3 C21.6,13.3 32.5,4.8 32.5,-4 C32.5,-9.9 27.5,-13.2 21.3,-13.2 C11.6,-13.2 0,-5 0,4.2"/>
<path class="Note" transform="matrix(0.992,0,0,0.992,2131,733.398)" d="M0,4.2 C0,8.5 3.1,13.3 11.2,13.3 C21.6,13.3 32.5,4.8 32.5,-4 C32.5,-9.9 27.5,-13.2 21.3,-13.2 C11.6,-13.2 0,-5 0,4.2"/>
<path class="Note" transform="matrix(0.992,0,0,0.992,2005.56,696.198)" d="M21.3,-13.2 C11.6,-13.2 0,-5.1 0,4.2 C0,8.5 3.1,13.3 11.2,13.3 C21.6,13.3 32.5,4.8 32.5,-4 C32.5,-9.9 27.5,-13.2 21.3,-13.2 M7.5,8.6 C4.2,8.6 3.5,5.9 3.5,5 C3.5,0.1 20.3,-8.5 25,-8.5 C27.4,-8.5 29,-7.1 29,-4.9 C29,0.1 12.1,8.6 7.5,8.6"/>
<path class="Note" transform="matrix(0.992,0,0,0.992,850.895,1217)" d="M21.3,-13.2 C11.6,-13.2 0,-5.1 0,4.2 C0,8.5 3.1,13.3 11.2,13.3 C21.6,13.3 32.5,4.8 32.5,-4 C32.5,-9.9 27.5,-13.2 21.3,-13.2 M7.5,8.6 C4.2,8.6 3.5,5.9 3.5,5 C3.5,0.1 20.3,-8.5 25,-8.5 C27.4,-8.5 29,-7.1 29,-4.9 C29,0.1 12.1,8.6 7.5,8.6"/>
<path class="Note" transform="matrix(0.992,0,0,0.992,1729.79,1167.4)" d="M0,4.2 C0,8.5 3.1,13.3 11.2,13.3 C21.6,13.3 32.5,4.8 32.5,-4 C32.5,-9.9 27.5,-13.2 21.3,-13.2 C11.6,-13.2 0,-5 0,4.2"/>
<path class="Note" transform="matrix(0.992,0,0,0.992,1323.68,733.398)" d="M0,4.2 C0,8.5 3.1,13.3 11.2,13.3 C21.6,13.3 32.5,4.8 32.5,-4 C32.5,-9.9 27.5,-13.2 21.3,-13.2 C11.6,-13.2 0,-5 0,4.2"/>
<path class="Note" transform="matrix(0.992,0,0,0.992,989.313,1217)" d="M0,4.2 C0,8.5 3.1,13.3 11.2,13.3 C21.6,13.3 32.5,4.8 32.5,-4 C32.5,-9.9 27.5,-13.2 21.3,-13.2 C11.6,-13.2 0,-5 0,4.2"/>
<path class="Note" transform="matrix(0.992,0,0,0.992,2280.53,1130.2)" d="M18.7,-13.6 C4.9,-13.6 0,-6.6 0,-0.1 C0,6.4 4.9,13.4 18.7,13.4 C32.5,13.4 37.3,6.4 37.3,-0.1 C37.3,-6.6 32.5,-13.6 18.7,-13.6 M19.5,10.2 C16.7,10.2 14.8,9.4 13.5,6.9 C12.2,4.4 10.4,-2.1 10.3,-4.7 C10.1,-7.4 11.1,-9 13.5,-9.8 C14.7,-10.2 16.3,-10.4 17.9,-10.4 C20.6,-10.4 22.4,-9.8 23.8,-7.1 C25.2,-4.5 27.1,2 27.1,4.5 C27.1,9.4 23.5,10.2 19.5,10.2"/>
<path class="Note" transform="matrix(0.992,0,0,0.992,1899.43,720.998)" d="M0,4.2 C0,8.5 3.1,13.3 11.2,13.3 C21.6,13.3 32.5,4.8 32.5,-4 C32.5,-9.9 27.5,-13.2 21.3,-13.2 C11.6,-13.2 0,-5 0,4.2"/>
<path class="Note" transform="matrix(0.992,0,0,0.992,1037.84,1204.6)" d="M0,4.2 C0,8.5 3.1,13.3 11.2,13.3 C21.6,13.3 32.5,4.8 32.5,-4 C32.5,-9.9 27.5,-13.2 21.3,-13.2 C11.6,-13.2 0,-5 0,4.2"/>
<path class="Note" transform="matrix(0.992,0,0,0.992,556.44,745.798)" d="M21.3,-13.2 C11.6,-13.2 0,-5.1 0,4.2 C0,8.5 3.1,13.3 11.2,13.3 C21.6,13.3 32.5,4.8 32.5,-4 C32.5,-9.9 27.5,-13.2 21.3,-13.2 M7.5,8.6 C4.2,8.6 3.5,5.9 3.5,5 C3.5,0.1 20.3,-8.5 25,-8.5 C27.4,-8.5 29,-7.1 29,-4.9 C29,0.1 12.1,8.6 7.5,8.6"/>
<path class="Note" transform="matrix(0.992,0,0,0.992,1855.45,696.198)" d="M0,4.2 C0,8.5 3.1,13.3 11.2,13.3 C21.6,13.3 32.5,4.8 32.5,-4 C32.5,-9.9 27.5,-13.2 21.3,-13.2 C11.6,-13.2 0,-5 0,4.2"/>
<path class="Note" transform="matrix(0.992,0,0,0.992,2098.24,1155)" d="M0,4.2 C0,8.5 3.1,13.3 11.2,13.3 C21.6,13.3 32.5,4.8 32.5,-4 C32.5,-9.9 27.5,-13.2 21.3,-13.2 C11.6,-13.2 0,-5 0,4.2"/>
<path class="Note" transform="matrix(0.992,0,0,0.992,1143.97,1192.2)" d="M0,4.2 C0,8.5 3.1,13.3 11.2,13.3 C21.6,13.3 32.5,4.8 32.5,-4 C32.5,-9.9 27.5,-13.2 21.3,-13.2 C11.6,-13.2 0,-5 0,4.2"/>
<path class="Note" transform="matrix(0.992,0,0,0.992,1691.51,1142.6)" d="M0,4.2 C0,8.5 3.1,13.3 11.2,13.3 C21.6,13.3 32.5,4.8 32.5,-4 C32.5,-9.9 27.5,-13.2 21.3,-13.2 C11.6,-13.2 0,-5 0,4.2"/>
<path class="Note" transform="matrix(0.992,0,0,0.992,1811.47,671.398)" d="M0,4.2 C0,8.5 3.1,13.3 11.2,13.3 C21.6,13.3 32.5,4.8 32.5,-4 C32.5,-9.9 27.5,-13.2 21.3,-13.2 C11.6,-13.2 0,-5 0,4.2"/>
<path class="Note" transform="matrix(0.992,0,0,0.992,1767.49,658.998)" d="M0,4.2 C0,8.5 3.1,13.3 11.2,13.3 C21.6,13.3 32.5,4.8 32.5,-4 C32.5,-9.9 27.5,-13.2 21.3,-13.2 C11.6,-13.2 0,-5 0,4.2"/>
<path class="Note" transform="matrix(0.992,0,0,0.992,1182.25,1192.2)" d="M0,4.2 C0,8.5 3.1,13.3 11.2,13.3 C21.6,13.3 32.5,4.8 32.5,-4 C32.5,-9.9 27.5,-13.2 21.3,-13.2 C11.6,-13.2 0,-5 0,4.2"/>
<path class="Note" transform="matrix(0.992,0,0,0.992,1723.51,696.198)" d="M0,4.2 C0,8.5 3.1,13.3 11.2,13.3 C21.6,13.3 32.5,4.8 32.5,-4 C32.5,-9.9 27.5,-13.2 21.3,-13.2 C11.6,-13.2 0,-5 0,4.2"/>
<path class="Note" transform="matrix(0.992,0,0,0.992,1220.54,1192.2)" d="M0,4.2 C0,8.5 3.1,13.3 11.2,13.3 C21.6,13.3 32.5,4.8 32.5,-4 C32.5,-9.9 27.5,-13.2 21.3,-13.2 C11.6,-13.2 0,-5 0,4.2"/>
<path class="Note" transform="matrix(0.992,0,0,0.992,2171.04,1142.6)" d="M0,4.2 C0,8.5 3.1,13.3 11.2,13.3 C21.6,13.3 32.5,4.8 32.5,-4 C32.5,-9.9 27.5,-13.2 21.3,-13.2 C11.6,-13.2 0,-5 0,4.2"/>
<path class="Note" transform="matrix(0.992,0,0,0.992,1258.82,1192.2)" d="M21.3,-13.2 C11.6,-13.2 0,-5.1 0,4.2 C0,8.5 3.1,13.3 11.2,13.3 C21.6,13.3 32.5,4.8 32.5,-4 C32.5,-9.9 27.5,-13.2 21.3,-13.2 M7.5,8.6 C4.2,8.6 3.5,5.9 3.5,5 C3.5,0.1 20.3,-8.5 25,-8.5 C27.4,-8.5 29,-7.1 29,-4.9 C29,0.1 12.1,8.6 7.5,8.6"/>
<path class="Note" transform="matrix(0.992,0,0,0.992,1679.53,671.398)" d="M0,4.2 C0,8.5 3.1,13.3 11.2,13.3 C21.6,13.3 32.5,4.8 32.5,-4 C32.5,-9.9 27.5,-13.2 21.3,-13.2 C11.6,-13.2 0,-5 0,4.2"/>
<path class="Note" transform="matrix(0.992,0,0,0.992,1368.01,1204.6)" d="M0,4.2 C0,8.5 3.1,13.3 11.2,13.3 C21.6,13.3 32.5,4.8 32.5,-4 C32.5,-9.9 27.5,-13.2 21.3,-13.2 C11.6,-13.2 0,-5 0,4.2"/>
<path class="Note" transform="matrix(0.992,0,0,0.992,1642.98,1130.2)" d="M0,4.2 C0,8.5 3.1,13.3 11.2,13.3 C21.6,13.3 32.5,4.8 32.5,-4 C32.5,-9.9 27.5,-13.2 21.3,-13.2 C11.6,-13.2 0,-5 0,4.2"/>
<path class="Note" transform="matrix(0.992,0,0,0.992,1623.78,658.998)" d="M0,4.2 C0,8.5 3.1,13.3 11.2,13.3 C21.6,13.3 32.5,4.8 32.5,-4 C32.5,-9.9 27.5,-13.2 21.3,-13.2 C11.6,-13.2 0,-5 0,4.2"/>
<path class="Note" transform="matrix(0.992,0,0,0.992,1517.77,745.798)" d="M0,4.2 C0,8.5 3.1,13.3 11.2,13.3 C21.6,13.3 32.5,4.8 32.5,-4 C32.5,-9.9 27.5,-13.2 21.3,-13.2 C11.6,-13.2 0,-5 0,4.2"/>
<path class="Note" transform="matrix(0.992,0,0,0.992,1406.29,1179.8)" d="M0,4.2 C0,8.5 3.1,13.3 11.2,13.3 C21.6,13.3 32.5,4.8 32.5,-4 C32.5,-9.9 27.5,-13.2 21.3,-13.2 C11.6,-13.2 0,-5 0,4.2"/>
<path class="Note" transform="matrix(0.992,0,0,0.992,1367.66,708.598)" d="M0,4.2 C0,8.5 3.1,13.3 11.2,13.3 C21.6,13.3 32.5,4.8 32.5,-4 C32.5,-9.9 27.5,-13.2 21.3,-13.2 C11.6,-13.2 0,-5 0,4.2"/>
<path class="Note" transform="matrix(0.992,0,0,0.992,1444.57,1192.2)" d="M0,4.2 C0,8.5 3.1,13.3 11.2,13.3 C21.6,13.3 32.5,4.8 32.5,-4 C32.5,-9.9 27.5,-13.2 21.3,-13.2 C11.6,-13.2 0,-5 0,4.2"/>
<path class="Note" transform="matrix(0.992,0,0,0.992,472.812,782.998)" d="M0,4.2 C0,8.5 3.1,13.3 11.2,13.3 C21.6,13.3 32.5,4.8 32.5,-4 C32.5,-9.9 27.5,-13.2 21.3,-13.2 C11.6,-13.2 0,-5 0,4.2"/>
<path class="Note" transform="matrix(0.992,0,0,0.992,1844.64,1167.4)" d="M0,4.2 C0,8.5 3.1,13.3 11.2,13.3 C21.6,13.3 32.5,4.8 32.5,-4 C32.5,-9.9 27.5,-13.2 21.3,-13.2 C11.6,-13.2 0,-5 0,4.2"/>
<path class="Clef" transform="matrix(0.992,0,0,0.992,232.438,1179.8)" d="M12.3,51.3 C12.3,57.9 17.3,66.6 30.8,66.6 C35.5,66.6 39.6,65.4 43.2,63.2 C48.6,59.4 50,52.8 50,46.5 C50,42.6 49.4,38.1 48.4,32.4 C48.1,30.4 47.5,27.4 46.9,23.5 C56.7,20.3 64,10.1 64,-0.2 C64,-15.3 53.3,-25.5 38.7,-25.5 C37.7,-31.5 36.7,-37.4 35.9,-43 C46.4,-54.1 53.7,-66.6 53.7,-82.5 C53.7,-91.6 50.9,-99 49.3,-102.6 C46.9,-107.7 44,-111.2 42.2,-111.2 C41.5,-111.2 38.4,-110 35.1,-106.1 C28.7,-98.5 26.9,-85.7 26.9,-77.3 C26.9,-71.9 27.4,-67 29.1,-55.8 C29,-55.7 23.8,-50.4 21.7,-48.7 C12.6,-40.3 0,-28.1 0,-8.1 C0,10.6 16.3,25.3 34.9,25.3 C37.8,25.3 40.5,25 42.8,24.6 C44.7,34.2 45.9,41.2 45.9,46.5 C45.9,56.9 40.5,62.4 30.4,62.4 C28,62.4 25.9,61.9 25.7,61.9 C25.6,61.8 25.4,61.7 25.4,61.6 C25.4,61.4 25.6,61.3 25.9,61.3 C30.6,60.5 35.3,56.5 35.3,50.1 C35.3,44.7 31.2,39 23.7,39 C16.7,39 12.3,44.7 12.3,51.3 M33.2,-82.2 C34.1,-86.2 38.7,-96.7 43.9,-96.7 C45.4,-96.7 47.8,-91.9 47.8,-84.9 C47.8,-74.5 40.1,-66.7 33.2,-59.9 C32.6,-63.9 32.1,-67.8 32.1,-72 C32.1,-75.7 32.4,-79.1 33.2,-82.2 M42,20.6 C40,21 38.1,21.2 36.2,21.2 C21.9,21.2 9.7,11.2 9.7,-3.9 C9.7,-16.1 18.3,-27 27.1,-34.6 C28.8,-36.1 30.4,-37.5 31.9,-39 C32.8,-33.6 33.5,-28.9 34.2,-24.8 C25.1,-22.1 18.9,-12.5 18.9,-3.1 C18.9,3.9 24.4,13.5 32.4,13.5 C33.2,13.5 34.1,13.1 34.1,12.2 C34.1,11.3 33.1,10.8 31.9,10 C28,7.6 25.8,5 25.8,0.1 C25.8,-6 30.4,-10.9 36.2,-12.3 L42,20.6 M56.2,2.1 C56.2,9.2 53.3,16.5 46.2,19.4 C44.1,7.4 41.4,-8.5 40.7,-12.9 C49.7,-12.9 56.2,-6.8 56.2,2.1"/>
<path class="Clef" transform="matrix(0.992,0,0,0.992,232.438,708.598)" d="M12.3,51.3 C12.3,57.9 17.3,66.6 30.8,66.6 C35.5,66.6 39.6,65.4 43.2,63.2 C48.6,59.4 50,52.8 50,46.5 C50,42.6 49.4,38.1 48.4,32.4 C48.1,30.4 47.5,27.4 46.9,23.5 C56.7,20.3 64,10.1 64,-0.2 C64,-15.3 53.3,-25.5 38.7,-25.5 C37.7,-31.5 36.7,-37.4 35.9,-43 C46.4,-54.1 53.7,-66.6 53.7,-82.5 C53.7,-91.6 50.9,-99 49.3,-102.6 C46.9,-107.7 44,-111.2 42.2,-111.2 C41.5,-111.2 38.4,-110 35.1,-106.1 C28.7,-98.5 26.9,-85.7 26.9,-77.3 C26.9,-71.9 27.4,-67 29.1,-55.8 C29,-55.7 23.8,-50.4 21.7,-48.7 C12.6,-40.3 0,-28.1 0,-8.1 C0,10.6 16.3,25.3 34.9,25.3 C37.8,25.3 40.5,25 42.8,24.6 C44.7,34.2 45.9,41.2 45.9,46.5 C45.9,56.9 40.5,62.4 30.4,62.4 C28,62.4 25.9,61.9 25.7,61.9 C25.6,61.8 25.4,61.7 25.4,61.6 C25.4,61.4 25.6,61.3 25.9,61.3 C30.6,60.5 35.3,56.5 35.3,50.1 C35.3,44.7 31.2,39 23.7,39 C16.7,39 12.3,44.7 12.3,51.3 M33.2,-82.2 C34.1,-86.2 38.7,-96.7 43.9,-96.7 C45.4,-96.7 47.8,-91.9 47.8,-84.9 C47.8,-74.5 40.1,-66.7 33.2,-59.9 C32.6,-63.9 32.1,-67.8 32.1,-72 C32.1,-75.7 32.4,-79.1 33.2,-82.2 M42,20.6 C40,21 38.1,21.2 36.2,21.2 C21.9,21.2 9.7,11.2 9.7,-3.9 C9.7,-16.1 18.3,-27 27.1,-34.6 C28.8,-36.1 30.4,-37.5 31.9,-39 C32.8,-33.6 33.5,-28.9 34.2,-24.8 C25.1,-22.1 18.9,-12.5 18.9,-3.1 C18.9,3.9 24.4,13.5 32.4,13.5 C33.2,13.5 34.1,13.1 34.1,12.2 C34.1,11.3 33.1,10.8 31.9,10 C28,7.6 25.8,5 25.8,0.1 C25.8,-6 30.4,-10.9 36.2,-12.3 L42,20.6 M56.2,2.1 C56.2,9.2 53.3,16.5 46.2,19.4 C44.1,7.4 41.4,-8.5 40.7,-12.9 C49.7,-12.9 56.2,-6.8 56.2,2.1"/>
<path class="KeySig" transform="matrix(0.992,0,0,0.992,320.711,634.198)" d="M23.3,-10.5 C23.9,-10.6 24.4,-11.3 24.4,-11.9 L24.4,-17.8 C24.4,-18.8 23.7,-19.2 22.8,-19.2 L19.5,-18.5 L19.5,-33.4 L16.7,-33.4 L16.7,-17.9 L7.8,-16.1 L7.8,-30.2 L5,-30.2 L5,-15.5 L1.1,-14.7 C0.5,-14.6 0,-13.9 0,-13.3 L0,-7.5 C0,-6.4 0.8,-6.1 1.7,-6.1 L5,-6.8 L5,9.7 L1.1,10.5 C0.5,10.6 0,11.3 0,11.9 L0,17.7 C0,18.8 0.8,19.1 1.7,19.1 L5,18.4 L5,33.3 L7.8,33.3 L7.8,17.8 L16.7,16 L16.7,30.1 L19.5,30.1 L19.5,15.4 L23.3,14.7 C23.9,14.6 24.4,13.9 24.4,13.3 L24.4,7.4 C24.4,6.4 23.7,6 22.8,6 L19.5,6.7 L19.5,-9.8 L23.3,-10.5 M7.8,-7.4 L16.7,-9.2 L16.7,7.3 L7.8,9.2 L7.8,-7.4 "/>
<path class="KeySig" transform="matrix(0.992,0,0,0.992,347.882,671.398)" d="M23.3,-10.5 C23.9,-10.6 24.4,-11.3 24.4,-11.9 L24.4,-17.8 C24.4,-18.8 23.7,-19.2 22.8,-19.2 L19.5,-18.5 L19.5,-33.4 L16.7,-33.4 L16.7,-17.9 L7.8,-16.1 L7.8,-30.2 L5,-30.2 L5,-15.5 L1.1,-14.7 C0.5,-14.6 0,-13.9 0,-13.3 L0,-7.5 C0,-6.4 0.8,-6.1 1.7,-6.1 L5,-6.8 L5,9.7 L1.1,10.5 C0.5,10.6 0,11.3 0,11.9 L0,17.7 C0,18.8 0.8,19.1 1.7,19.1 L5,18.4 L5,33.3 L7.8,33.3 L7.8,17.8 L16.7,16 L16.7,30.1 L19.5,30.1 L19.5,15.4 L23.3,14.7 C23.9,14.6 24.4,13.9 24.4,13.3 L24.4,7.4 C24.4,6.4 23.7,6 22.8,6 L19.5,6.7 L19.5,-9.8 L23.3,-10.5 M7.8,-7.4 L16.7,-9.2 L16.7,7.3 L7.8,9.2 L7.8,-7.4 "/>
<path class="KeySig" transform="matrix(0.992,0,0,0.992,320.711,1105.4)" d="M23.3,-10.5 C23.9,-10.6 24.4,-11.3 24.4,-11.9 L24.4,-17.8 C24.4,-18.8 23.7,-19.2 22.8,-19.2 L19.5,-18.5 L19.5,-33.4 L16.7,-33.4 L16.7,-17.9 L7.8,-16.1 L7.8,-30.2 L5,-30.2 L5,-15.5 L1.1,-14.7 C0.5,-14.6 0,-13.9 0,-13.3 L0,-7.5 C0,-6.4 0.8,-6.1 1.7,-6.1 L5,-6.8 L5,9.7 L1.1,10.5 C0.5,10.6 0,11.3 0,11.9 L0,17.7 C0,18.8 0.8,19.1 1.7,19.1 L5,18.4 L5,33.3 L7.8,33.3 L7.8,17.8 L16.7,16 L16.7,30.1 L19.5,30.1 L19.5,15.4 L23.3,14.7 C23.9,14.6 24.4,13.9 24.4,13.3 L24.4,7.4 C24.4,6.4 23.7,6 22.8,6 L19.5,6.7 L19.5,-9.8 L23.3,-10.5 M7.8,-7.4 L16.7,-9.2 L16.7,7.3 L7.8,9.2 L7.8,-7.4 "/>
<path class="KeySig" transform="matrix(0.992,0,0,0.992,347.882,1142.6)" d="M23.3,-10.5 C23.9,-10.6 24.4,-11.3 24.4,-11.9 L24.4,-17.8 C24.4,-18.8 23.7,-19.2 22.8,-19.2 L19.5,-18.5 L19.5,-33.4 L16.7,-33.4 L16.7,-17.9 L7.8,-16.1 L7.8,-30.2 L5,-30.2 L5,-15.5 L1.1,-14.7 C0.5,-14.6 0,-13.9 0,-13.3 L0,-7.5 C0,-6.4 0.8,-6.1 1.7,-6.1 L5,-6.8 L5,9.7 L1.1,10.5 C0.5,10.6 0,11.3 0,11.9 L0,17.7 C0,18.8 0.8,19.1 1.7,19.1 L5,18.4 L5,33.3 L7.8,33.3 L7.8,17.8 L16.7,16 L16.7,30.1 L19.5,30.1 L19.5,15.4 L23.3,14.7 C23.9,14.6 24.4,13.9 24.4,13.3 L24.4,7.4 C24.4,6.4 23.7,6 22.8,6 L19.5,6.7 L19.5,-9.8 L23.3,-10.5 M7.8,-7.4 L16.7,-9.2 L16.7,7.3 L7.8,9.2 L7.8,-7.4 "/>
<path class="TimeSig" transform="matrix(0.992,0,0,0.992,395.498,1130.2)" d="M20.8,12.7 L20.8,20.1 L12.5,20.1 C11.8,20.1 11.1,20.7 11.1,21.5 L11.1,23.4 C11.1,24.2 11.8,24.8 12.5,24.8 L42.8,24.8 C43.6,24.8 44.2,24.2 44.2,23.4 L44.2,21.5 C44.2,20.7 43.6,20.1 42.8,20.1 L33.9,20.1 L33.9,12.7 L42.8,12.7 C43.6,12.7 44.2,12 44.2,11.2 L44.2,9.3 C44.2,8.6 43.6,7.9 42.8,7.9 L33.9,7.9 L33.9,-8 C33.9,-8.6 33.6,-9.1 33.1,-9.3 L31.9,-9.9 C31.7,-10 31.4,-10.1 31.2,-10.1 C30.9,-10 30.5,-9.9 30.3,-9.7 L21.2,-1.4 C20.9,-1.1 20.8,-0.7 20.8,-0.3 L20.8,7.9 L9.3,7.9 C9.3,7.9 20.4,-4.1 32.2,-19.9 C32.6,-20.4 32.7,-20.9 32.7,-21.3 C32.7,-21.8 32.5,-22.2 32.4,-22.3 L30.2,-24.5 C30,-24.7 29.6,-24.9 29.2,-24.9 C28.6,-24.9 15.1,-24.9 14.4,-24.9 C13.6,-24.9 13.1,-24.3 13,-23.7 C13,-23.7 12.5,-16.3 9.9,-8.2 C7.3,-0.1 4.3,4.9 1.7,8.6 C1.7,8.6 1.4,9.1 1.4,9.7 C1.4,9.9 1.4,10.1 1.5,10.3 C1.9,11 2.5,12.1 2.5,12.1 C2.5,12.1 2.7,12.7 3.6,12.7 L20.8,12.7 "/>
<path class="TimeSig" transform="matrix(0.992,0,0,0.992,395.498,1179.8)" d="M20.8,12.7 L20.8,20.1 L12.5,20.1 C11.8,20.1 11.1,20.7 11.1,21.5 L11.1,23.4 C11.1,24.2 11.8,24.8 12.5,24.8 L42.8,24.8 C43.6,24.8 44.2,24.2 44.2,23.4 L44.2,21.5 C44.2,20.7 43.6,20.1 42.8,20.1 L33.9,20.1 L33.9,12.7 L42.8,12.7 C43.6,12.7 44.2,12 44.2,11.2 L44.2,9.3 C44.2,8.6 43.6,7.9 42.8,7.9 L33.9,7.9 L33.9,-8 C33.9,-8.6 33.6,-9.1 33.1,-9.3 L31.9,-9.9 C31.7,-10 31.4,-10.1 31.2,-10.1 C30.9,-10 30.5,-9.9 30.3,-9.7 L21.2,-1.4 C20.9,-1.1 20.8,-0.7 20.8,-0.3 L20.8,7.9 L9.3,7.9 C9.3,7.9 20.4,-4.1 32.2,-19.9 C32.6,-20.4 32.7,-20.9 32.7,-21.3 C32.7,-21.8 32.5,-22.2 32.4,-22.3 L30.2,-24.5 C30,-24.7 29.6,-24.9 29.2,-24.9 C28.6,-24.9 15.1,-24.9 14.4,-24.9 C13.6,-24.9 13.1,-24.3 13,-23.7 C13,-23.7 12.5,-16.3 9.9,-8.2 C7.3,-0.1 4.3,4.9 1.7,8.6 C1.7,8.6 1.4,9.1 1.4,9.7 C1.4,9.9 1.4,10.1 1.5,10.3 C1.9,11 2.5,12.1 2.5,12.1 C2.5,12.1 2.7,12.7 3.6,12.7 L20.8,12.7 "/>
<path class="TimeSig" transform="matrix(0.992,0,0,0.992,2447.9,659.494)" d="M34.2,3.9 C33.4,6.1 31.4,13.3 26.5,13.3 C20,13.3 18.6,9.3 13.2,9.3 C12.4,9.3 11.6,9.4 10.6,9.6 C10.6,9.6 13.1,5.8 23.7,2.5 C34.3,-0.8 37,-6 37,-12 C37,-16.2 35.1,-24.5 20,-24.5 C4.9,-24.5 2.1,-15.4 2.1,-10.8 C2.1,-6.7 5.5,-3.4 9.6,-3.4 C13.7,-3.4 17,-6.7 17,-10.8 C17,-13.6 15,-16.7 12.4,-17.7 C12.1,-17.8 11.7,-18.3 11.7,-18.8 C11.7,-19.4 12.2,-20.1 14,-20.6 C14.5,-20.8 15.9,-21.1 17.4,-21.1 C23.1,-21.1 24.2,-17.6 24.2,-12.5 C24.2,-0.8 10.3,1.7 4.5,10.4 C4.5,10.4 1.5,14.6 1.5,19.3 C1.5,24 3.9,24.3 5.1,24.3 C6.7,24.3 8.4,23 8.4,21.2 C8.4,20.8 8.3,20.4 8.1,19.9 C7.5,18.5 7.3,17.4 7.3,16.6 C7.3,16.3 7.3,16 7.4,15.7 C7.5,15.1 8.3,14.1 10.7,14.1 C13.6,14.1 14.7,17.5 16.5,20.1 C18.3,22.7 21.1,24.3 24.3,24.3 C27.5,24.3 31.8,22 33.6,18.3 C35.4,14.6 37.7,7.1 37.7,4.4 C37.7,3.1 36.9,2.5 36,2.5 C35.3,2.5 34.6,2.9 34.2,3.9"/>
<path class="TimeSig" transform="matrix(0.992,0,0,0.992,2444.63,708.598)" d="M20.8,12.7 L20.8,20.1 L12.5,20.1 C11.8,20.1 11.1,20.7 11.1,21.5 L11.1,23.4 C11.1,24.2 11.8,24.8 12.5,24.8 L42.8,24.8 C43.6,24.8 44.2,24.2 44.2,23.4 L44.2,21.5 C44.2,20.7 43.6,20.1 42.8,20.1 L33.9,20.1 L33.9,12.7 L42.8,12.7 C43.6,12.7 44.2,12 44.2,11.2 L44.2,9.3 C44.2,8.6 43.6,7.9 42.8,7.9 L33.9,7.9 L33.9,-8 C33.9,-8.6 33.6,-9.1 33.1,-9.3 L31.9,-9.9 C31.7,-10 31.4,-10.1 31.2,-10.1 C30.9,-10 30.5,-9.9 30.3,-9.7 L21.2,-1.4 C20.9,-1.1 20.8,-0.7 20.8,-0.3 L20.8,7.9 L9.3,7.9 C9.3,7.9 20.4,-4.1 32.2,-19.9 C32.6,-20.4 32.7,-20.9 32.7,-21.3 C32.7,-21.8 32.5,-22.2 32.4,-22.3 L30.2,-24.5 C30,-24.7 29.6,-24.9 29.2,-24.9 C28.6,-24.9 15.1,-24.9 14.4,-24.9 C13.6,-24.9 13.1,-24.3 13,-23.7 C13,-23.7 12.5,-16.3 9.9,-8.2 C7.3,-0.1 4.3,4.9 1.7,8.6 C1.7,8.6 1.4,9.1 1.4,9.7 C1.4,9.9 1.4,10.1 1.5,10.3 C1.9,11 2.5,12.1 2.5,12.1 C2.5,12.1 2.7,12.7 3.6,12.7 L20.8,12.7 "/>
<path class="TimeSig" transform="matrix(0.992,0,0,0.992,395.498,658.998)" d="M20.8,12.7 L20.8,20.1 L12.5,20.1 C11.8,20.1 11.1,20.7 11.1,21.5 L11.1,23.4 C11.1,24.2 11.8,24.8 12.5,24.8 L42.8,24.8 C43.6,24.8 44.2,24.2 44.2,23.4 L44.2,21.5 C44.2,20.7 43.6,20.1 42.8,20.1 L33.9,20.1 L33.9,12.7 L42.8,12.7 C43.6,12.7 44.2,12 44.2,11.2 L44.2,9.3 C44.2,8.6 43.6,7.9 42.8,7.9 L33.9,7.9 L33.9,-8 C33.9,-8.6 33.6,-9.1 33.1,-9.3 L31.9,-9.9 C31.7,-10 31.4,-10.1 31.2,-10.1 C30.9,-10 30.5,-9.9 30.3,-9.7 L21.2,-1.4 C20.9,-1.1 20.8,-0.7 20.8,-0.3 L20.8,7.9 L9.3,7.9 C9.3,7.9 20.4,-4.1 32.2,-19.9 C32.6,-20.4 32.7,-20.9 32.7,-21.3 C32.7,-21.8 32.5,-22.2 32.4,-22.3 L30.2,-24.5 C30,-24.7 29.6,-24.9 29.2,-24.9 C28.6,-24.9 15.1,-24.9 14.4,-24.9 C13.6,-24.9 13.1,-24.3 13,-23.7 C13,-23.7 12.5,-16.3 9.9,-8.2 C7.3,-0.1 4.3,4.9 1.7,8.6 C1.7,8.6 1.4,9.1 1.4,9.7 C1.4,9.9 1.4,10.1 1.5,10.3 C1.9,11 2.5,12.1 2.5,12.1 C2.5,12.1 2.7,12.7 3.6,12.7 L20.8,12.7 "/>
<path class="TimeSig" transform="matrix(0.992,0,0,0.992,395.498,708.598)" d="M20.8,12.7 L20.8,20.1 L12.5,20.1 C11.8,20.1 11.1,20.7 11.1,21.5 L11.1,23.4 C11.1,24.2 11.8,24.8 12.5,24.8 L42.8,24.8 C43.6,24.8 44.2,24.2 44.2,23.4 L44.2,21.5 C44.2,20.7 43.6,20.1 42.8,20.1 L33.9,20.1 L33.9,12.7 L42.8,12.7 C43.6,12.7 44.2,12 44.2,11.2 L44.2,9.3 C44.2,8.6 43.6,7.9 42.8,7.9 L33.9,7.9 L33.9,-8 C33.9,-8.6 33.6,-9.1 33.1,-9.3 L31.9,-9.9 C31.7,-10 31.4,-10.1 31.2,-10.1 C30.9,-10 30.5,-9.9 30.3,-9.7 L21.2,-1.4 C20.9,-1.1 20.8,-0.7 20.8,-0.3 L20.8,7.9 L9.3,7.9 C9.3,7.9 20.4,-4.1 32.2,-19.9 C32.6,-20.4 32.7,-20.9 32.7,-21.3 C32.7,-21.8 32.5,-22.2 32.4,-22.3 L30.2,-24.5 C30,-24.7 29.6,-24.9 29.2,-24.9 C28.6,-24.9 15.1,-24.9 14.4,-24.9 C13.6,-24.9 13.1,-24.3 13,-23.7 C13,-23.7 12.5,-16.3 9.9,-8.2 C7.3,-0.1 4.3,4.9 1.7,8.6 C1.7,8.6 1.4,9.1 1.4,9.7 C1.4,9.9 1.4,10.1 1.5,10.3 C1.9,11 2.5,12.1 2.5,12.1 C2.5,12.1 2.7,12.7 3.6,12.7 L20.8,12.7 "/>
<path class="TimeSig" transform="matrix(0.992,0,0,0.992,2708.37,658.998)" d="M20.8,12.7 L20.8,20.1 L12.5,20.1 C11.8,20.1 11.1,20.7 11.1,21.5 L11.1,23.4 C11.1,24.2 11.8,24.8 12.5,24.8 L42.8,24.8 C43.6,24.8 44.2,24.2 44.2,23.4 L44.2,21.5 C44.2,20.7 43.6,20.1 42.8,20.1 L33.9,20.1 L33.9,12.7 L42.8,12.7 C43.6,12.7 44.2,12 44.2,11.2 L44.2,9.3 C44.2,8.6 43.6,7.9 42.8,7.9 L33.9,7.9 L33.9,-8 C33.9,-8.6 33.6,-9.1 33.1,-9.3 L31.9,-9.9 C31.7,-10 31.4,-10.1 31.2,-10.1 C30.9,-10 30.5,-9.9 30.3,-9.7 L21.2,-1.4 C20.9,-1.1 20.8,-0.7 20.8,-0.3 L20.8,7.9 L9.3,7.9 C9.3,7.9 20.4,-4.1 32.2,-19.9 C32.6,-20.4 32.7,-20.9 32.7,-21.3 C32.7,-21.8 32.5,-22.2 32.4,-22.3 L30.2,-24.5 C30,-24.7 29.6,-24.9 29.2,-24.9 C28.6,-24.9 15.1,-24.9 14.4,-24.9 C13.6,-24.9 13.1,-24.3 13,-23.7 C13,-23.7 12.5,-16.3 9.9,-8.2 C7.3,-0.1 4.3,4.9 1.7,8.6 C1.7,8.6 1.4,9.1 1.4,9.7 C1.4,9.9 1.4,10.1 1.5,10.3 C1.9,11 2.5,12.1 2.5,12.1 C2.5,12.1 2.7,12.7 3.6,12.7 L20.8,12.7 "/>
<path class="TimeSig" transform="matrix(0.992,0,0,0.992,2708.37,708.598)" d="M20.8,12.7 L20.8,20.1 L12.5,20.1 C11.8,20.1 11.1,20.7 11.1,21.5 L11.1,23.4 C11.1,24.2 11.8,24.8 12.5,24.8 L42.8,24.8 C43.6,24.8 44.2,24.2 44.2,23.4 L44.2,21.5 C44.2,20.7 43.6,20.1 42.8,20.1 L33.9,20.1 L33.9,12.7 L42.8,12.7 C43.6,12.7 44.2,12 44.2,11.2 L44.2,9.3 C44.2,8.6 43.6,7.9 42.8,7.9 L33.9,7.9 L33.9,-8 C33.9,-8.6 33.6,-9.1 33.1,-9.3 L31.9,-9.9 C31.7,-10 31.4,-10.1 31.2,-10.1 C30.9,-10 30.5,-9.9 30.3,-9.7 L21.2,-1.4 C20.9,-1.1 20.8,-0.7 20.8,-0.3 L20.8,7.9 L9.3,7.9 C9.3,7.9 20.4,-4.1 32.2,-19.9 C32.6,-20.4 32.7,-20.9 32.7,-21.3 C32.7,-21.8 32.5,-22.2 32.4,-22.3 L30.2,-24.5 C30,-24.7 29.6,-24.9 29.2,-24.9 C28.6,-24.9 15.1,-24.9 14.4,-24.9 C13.6,-24.9 13.1,-24.3 13,-23.7 C13,-23.7 12.5,-16.3 9.9,-8.2 C7.3,-0.1 4.3,4.9 1.7,8.6 C1.7,8.6 1.4,9.1 1.4,9.7 C1.4,9.9 1.4,10.1 1.5,10.3 C1.9,11 2.5,12.1 2.5,12.1 C2.5,12.1 2.7,12.7 3.6,12.7 L20.8,12.7 "/>
<path class="Rest" transform="matrix(0.992,0,0,0.992,2556.2,1155)" d="M23,16.6 C22.9,16.5 22.7,16.3 22.4,15.9 L10.9,1.7 C10.8,1.6 10.7,1.3 10.7,1.1 C10.7,0.8 10.8,0.4 10.9,0.2 L21.1,-15.2 C21.2,-15.4 21.3,-15.7 21.3,-15.9 L21.3,-16.8 C21.3,-17.1 21.2,-17.4 21,-17.6 L4.8,-39.5 C4.8,-39.5 4.4,-40.1 3.8,-40.1 C3.5,-40.1 3.3,-40.1 3,-39.8 C2.6,-39.5 2.5,-39.1 2.5,-38.8 C2.5,-38.2 2.8,-37.7 2.8,-37.7 L10.4,-27.3 C10.6,-27 10.7,-26.6 10.7,-26.1 C10.7,-25.7 10.6,-25.2 10.4,-24.9 L0.3,-9.5 C0.2,-9.3 0.1,-8.9 0.1,-8.7 L0.1,-7.8 C0.1,-7.5 0.2,-7.2 0.4,-7 L11.6,6.9 C11.2,6.8 10.3,6.6 9.1,6.6 C4,6.6 0,10.8 0,15.9 C0,17.3 0.3,18.7 1.1,19.8 C3.2,23 10.7,32.5 10.7,32.5 C10.7,32.5 11.2,33.1 11.9,33.1 C12.1,33.1 12.3,33.1 12.5,32.9 C13,32.5 13.2,32.1 13.2,31.7 C13.2,31.3 13,31 12.9,30.8 C12.6,30.3 9.4,24.5 9.4,24.5 C9.4,24.5 8.7,23.1 8.7,21.3 C8.7,18.1 11.1,15.5 14.3,15.5 C15.6,15.5 16.7,15.9 17.5,16.4 L21.4,18.9 C21.4,18.9 21.8,19.1 22.2,19.1 C22.6,19.1 22.9,19 23.2,18.6 C23.4,18.3 23.5,18 23.5,17.7 C23.5,17.4 23.4,17.2 23.2,16.9 L23,16.6 "/>
<path class="Rest" transform="matrix(0.992,0,0,0.992,2629,1155)" d="M0,-1 C0,0.4 0,0.4 1.4,0.4 L31.1,0.4 C32.5,0.4 32.5,0.4 32.5,-1 L32.5,-11.8 C32.5,-13.2 32.5,-13.2 31.1,-13.2 L1.4,-13.2 C0,-13.2 0,-13.2 0,-11.8 L0,-1 "/>
<path class="Beam" fill-rule="evenodd" d="M711.378,658.964 L769.857,652.764 L769.857,665.233 L711.378,671.433 L711.378,658.964 "/>
<path class="Beam" fill-rule="evenodd" d="M2292.43,652.786 L2388.72,658.986 L2388.72,671.411 L2292.43,665.211 L2292.43,652.786 "/>
<path class="Beam" fill-rule="evenodd" d="M725.734,1130.15 L776.991,1123.95 L776.991,1136.44 L725.734,1142.64 L725.734,1130.15 "/>
<path class="Beam" fill-rule="evenodd" d="M518.429,1148.76 L570.741,1142.56 L570.741,1155.04 L518.429,1161.24 L518.429,1148.76 "/>
<path class="Beam" fill-rule="evenodd" d="M1018.81,1130.15 L1070.07,1123.95 L1070.07,1136.44 L1018.81,1142.64 L1018.81,1130.15 "/>
<path class="Beam" fill-rule="evenodd" d="M1353.17,627.998 L1443.86,627.998 L1443.86,640.398 L1353.17,640.398 L1353.17,627.998 "/>
<path class="Beam" fill-rule="evenodd" d="M1835.85,1068.18 L1915.15,1074.38 L1915.15,1086.82 L1835.85,1080.62 L1835.85,1068.18 "/>
<path class="Beam" fill-rule="evenodd" d="M1397.51,1099.2 L1476.8,1099.2 L1476.8,1111.6 L1397.51,1111.6 L1397.51,1099.2 "/>
<path class="Beam" fill-rule="evenodd" d="M1679.53,758.198 L1770.22,758.198 L1770.22,770.598 L1679.53,770.598 L1679.53,758.198 "/>
<path class="Beam" fill-rule="evenodd" d="M1691.51,1229.4 L1770.8,1229.4 L1770.8,1241.8 L1691.51,1241.8 L1691.51,1229.4 "/>
<path class="Beam" fill-rule="evenodd" d="M1173.47,1105.4 L1252.76,1105.4 L1252.76,1117.8 L1173.47,1117.8 L1173.47,1105.4 "/>
<path class="Beam" fill-rule="evenodd" d="M1840.96,596.941 L1931.65,609.341 L1931.65,621.856 L1840.96,609.456 L1840.96,596.941 "/>
<path class="Beam" fill-rule="evenodd" d="M2160.49,627.998 L2251.18,627.998 L2251.18,640.398 L2160.49,640.398 L2160.49,627.998 "/>
<path class="Beam" fill-rule="evenodd" d="M1032.28,658.964 L1090.76,652.764 L1090.76,665.233 L1032.28,671.433 L1032.28,658.964 "/>
<path class="Tuplet" d="M2208.43,596.118 C2210.54,595.443 2211.4,595.083 2212.48,594.363 C2214.59,592.968 2215.9,590.493 2215.9,587.973 C2215.9,583.698 2212.48,580.818 2207.44,580.818 C2202.53,580.818 2198.39,583.878 2198.39,587.568 C2198.39,589.413 2199.52,590.673 2201.23,590.673 C2202.71,590.673 2203.79,589.593 2203.79,588.108 C2203.79,587.343 2203.57,586.803 2202.85,586.083 C2202.4,585.678 2202.22,585.363 2202.22,585.048 C2202.22,583.968 2204.47,582.843 2206.58,582.843 C2209.6,582.843 2211.4,584.508 2211.4,587.298 C2211.4,591.303 2208.56,595.083 2205.55,595.083 C2205.41,595.083 2205.01,595.038 2204.51,594.993 C2203.21,594.903 2203.21,594.903 2202.94,594.903 C2201.95,594.903 2201.41,595.353 2201.41,596.163 C2201.41,596.883 2201.9,597.333 2202.71,597.333 C2202.94,597.333 2203.25,597.288 2203.61,597.243 C2204.24,597.108 2204.92,597.063 2205.32,597.063 C2207.44,597.063 2208.88,598.953 2208.88,601.743 C2208.88,606.603 2206.49,611.283 2201.05,611.283 C2198.53,611.283 2196.37,610.023 2196.37,608.583 C2196.37,608.088 2196.55,607.908 2197.27,607.593 C2198.57,607.008 2199.11,606.198 2199.11,604.983 C2199.11,603.408 2197.85,602.193 2196.23,602.193 C2194.3,602.193 2193.04,603.723 2193.04,606.063 C2193.04,610.428 2196.37,613.173 2201.77,613.173 C2208.56,613.173 2213.74,608.628 2213.74,602.598 C2213.74,599.088 2211.58,597.108 2208.43,596.118"/>
<path class="Tuplet" d="M2343.17,602.318 C2345.29,601.643 2346.14,601.283 2347.22,600.563 C2349.34,599.168 2350.64,596.693 2350.64,594.173 C2350.64,589.898 2347.22,587.018 2342.18,587.018 C2337.28,587.018 2333.14,590.078 2333.14,593.768 C2333.14,595.613 2334.26,596.873 2335.97,596.873 C2337.46,596.873 2338.54,595.793 2338.54,594.308 C2338.54,593.543 2338.31,593.003 2337.59,592.283 C2337.14,591.878 2336.96,591.563 2336.96,591.248 C2336.96,590.168 2339.21,589.043 2341.33,589.043 C2344.34,589.043 2346.14,590.708 2346.14,593.498 C2346.14,597.503 2343.31,601.283 2340.29,601.283 C2340.16,601.283 2339.75,601.238 2339.26,601.193 C2337.95,601.103 2337.95,601.103 2337.68,601.103 C2336.69,601.103 2336.15,601.553 2336.15,602.363 C2336.15,603.083 2336.65,603.533 2337.46,603.533 C2337.68,603.533 2338,603.488 2338.36,603.443 C2338.99,603.308 2339.66,603.263 2340.07,603.263 C2342.18,603.263 2343.62,605.153 2343.62,607.943 C2343.62,612.803 2341.24,617.483 2335.79,617.483 C2333.27,617.483 2331.11,616.223 2331.11,614.783 C2331.11,614.288 2331.29,614.108 2332.01,613.793 C2333.32,613.208 2333.86,612.398 2333.86,611.183 C2333.86,609.608 2332.6,608.393 2330.98,608.393 C2329.04,608.393 2327.78,609.923 2327.78,612.263 C2327.78,616.628 2331.11,619.373 2336.51,619.373 C2343.31,619.373 2348.48,614.828 2348.48,608.798 C2348.48,605.288 2346.32,603.308 2343.17,602.318"/>
<path class="Tuplet" d="M1888.9,571.318 C1891.02,570.643 1891.87,570.283 1892.95,569.563 C1895.07,568.168 1896.37,565.693 1896.37,563.173 C1896.37,558.898 1892.95,556.018 1887.91,556.018 C1883.01,556.018 1878.87,559.078 1878.87,562.768 C1878.87,564.613 1879.99,565.873 1881.7,565.873 C1883.19,565.873 1884.27,564.793 1884.27,563.308 C1884.27,562.543 1884.04,562.003 1883.32,561.283 C1882.87,560.878 1882.69,560.563 1882.69,560.248 C1882.69,559.168 1884.94,558.043 1887.06,558.043 C1890.07,558.043 1891.87,559.708 1891.87,562.498 C1891.87,566.503 1889.04,570.283 1886.02,570.283 C1885.89,570.283 1885.48,570.238 1884.99,570.193 C1883.68,570.103 1883.68,570.103 1883.41,570.103 C1882.42,570.103 1881.88,570.553 1881.88,571.363 C1881.88,572.083 1882.38,572.533 1883.19,572.533 C1883.41,572.533 1883.73,572.488 1884.09,572.443 C1884.72,572.308 1885.39,572.263 1885.8,572.263 C1887.91,572.263 1889.35,574.153 1889.35,576.943 C1889.35,581.803 1886.97,586.483 1881.52,586.483 C1879,586.483 1876.84,585.223 1876.84,583.783 C1876.84,583.288 1877.02,583.108 1877.74,582.793 C1879.05,582.208 1879.59,581.398 1879.59,580.183 C1879.59,578.608 1878.33,577.393 1876.71,577.393 C1874.77,577.393 1873.51,578.923 1873.51,581.263 C1873.51,585.628 1876.84,588.373 1882.24,588.373 C1889.04,588.373 1894.21,583.828 1894.21,577.798 C1894.21,574.288 1892.05,572.308 1888.9,571.318"/>
<path class="Tuplet" d="M1215.71,1073.52 C1217.82,1072.84 1218.68,1072.48 1219.76,1071.76 C1221.87,1070.37 1223.18,1067.89 1223.18,1065.37 C1223.18,1061.1 1219.76,1058.22 1214.72,1058.22 C1209.81,1058.22 1205.67,1061.28 1205.67,1064.97 C1205.67,1066.81 1206.8,1068.07 1208.51,1068.07 C1209.99,1068.07 1211.07,1066.99 1211.07,1065.51 C1211.07,1064.74 1210.85,1064.2 1210.13,1063.48 C1209.68,1063.08 1209.5,1062.76 1209.5,1062.45 C1209.5,1061.37 1211.75,1060.24 1213.86,1060.24 C1216.88,1060.24 1218.68,1061.91 1218.68,1064.7 C1218.68,1068.7 1215.84,1072.48 1212.83,1072.48 C1212.69,1072.48 1212.29,1072.44 1211.79,1072.39 C1210.49,1072.3 1210.49,1072.3 1210.22,1072.3 C1209.23,1072.3 1208.69,1072.75 1208.69,1073.56 C1208.69,1074.28 1209.18,1074.73 1209.99,1074.73 C1210.22,1074.73 1210.53,1074.69 1210.89,1074.64 C1211.52,1074.51 1212.2,1074.46 1212.6,1074.46 C1214.72,1074.46 1216.16,1076.35 1216.16,1079.14 C1216.16,1084 1213.77,1088.68 1208.33,1088.68 C1205.81,1088.68 1203.65,1087.42 1203.65,1085.98 C1203.65,1085.49 1203.83,1085.31 1204.55,1084.99 C1205.85,1084.41 1206.39,1083.6 1206.39,1082.38 C1206.39,1080.81 1205.13,1079.59 1203.51,1079.59 C1201.58,1079.59 1200.32,1081.12 1200.32,1083.46 C1200.32,1087.83 1203.65,1090.57 1209.05,1090.57 C1215.84,1090.57 1221.02,1086.03 1221.02,1080 C1221.02,1076.49 1218.86,1074.51 1215.71,1073.52"/>
<path class="Tuplet" d="M1727.47,800.718 C1729.58,800.043 1730.44,799.683 1731.52,798.963 C1733.63,797.568 1734.94,795.093 1734.94,792.573 C1734.94,788.298 1731.52,785.418 1726.48,785.418 C1721.57,785.418 1717.43,788.478 1717.43,792.168 C1717.43,794.013 1718.56,795.273 1720.27,795.273 C1721.75,795.273 1722.83,794.193 1722.83,792.708 C1722.83,791.943 1722.61,791.403 1721.89,790.683 C1721.44,790.278 1721.26,789.963 1721.26,789.648 C1721.26,788.568 1723.51,787.443 1725.62,787.443 C1728.64,787.443 1730.44,789.108 1730.44,791.898 C1730.44,795.903 1727.6,799.683 1724.59,799.683 C1724.45,799.683 1724.05,799.638 1723.55,799.593 C1722.25,799.503 1722.25,799.503 1721.98,799.503 C1720.99,799.503 1720.45,799.953 1720.45,800.763 C1720.45,801.483 1720.94,801.933 1721.75,801.933 C1721.98,801.933 1722.29,801.888 1722.65,801.843 C1723.28,801.708 1723.96,801.663 1724.36,801.663 C1726.48,801.663 1727.92,803.553 1727.92,806.343 C1727.92,811.203 1725.53,815.883 1720.09,815.883 C1717.57,815.883 1715.41,814.623 1715.41,813.183 C1715.41,812.688 1715.59,812.508 1716.31,812.193 C1717.61,811.608 1718.15,810.798 1718.15,809.583 C1718.15,808.008 1716.89,806.793 1715.27,806.793 C1713.34,806.793 1712.08,808.323 1712.08,810.663 C1712.08,815.028 1715.41,817.773 1720.81,817.773 C1727.6,817.773 1732.78,813.228 1732.78,807.198 C1732.78,803.688 1730.62,801.708 1727.47,800.718"/>
<path class="Tuplet" d="M1878.09,1039.42 C1880.21,1038.74 1881.06,1038.38 1882.14,1037.66 C1884.26,1036.27 1885.56,1033.79 1885.56,1031.27 C1885.56,1027 1882.14,1024.12 1877.1,1024.12 C1872.2,1024.12 1868.06,1027.18 1868.06,1030.87 C1868.06,1032.71 1869.18,1033.97 1870.89,1033.97 C1872.38,1033.97 1873.46,1032.89 1873.46,1031.41 C1873.46,1030.64 1873.23,1030.1 1872.51,1029.38 C1872.06,1028.98 1871.88,1028.66 1871.88,1028.35 C1871.88,1027.27 1874.13,1026.14 1876.25,1026.14 C1879.26,1026.14 1881.06,1027.81 1881.06,1030.6 C1881.06,1034.6 1878.23,1038.38 1875.21,1038.38 C1875.08,1038.38 1874.67,1038.34 1874.18,1038.29 C1872.87,1038.2 1872.87,1038.2 1872.6,1038.2 C1871.61,1038.2 1871.07,1038.65 1871.07,1039.46 C1871.07,1040.18 1871.57,1040.63 1872.38,1040.63 C1872.6,1040.63 1872.92,1040.59 1873.28,1040.54 C1873.91,1040.41 1874.58,1040.36 1874.99,1040.36 C1877.1,1040.36 1878.54,1042.25 1878.54,1045.04 C1878.54,1049.9 1876.16,1054.58 1870.71,1054.58 C1868.19,1054.58 1866.03,1053.32 1866.03,1051.88 C1866.03,1051.39 1866.21,1051.21 1866.93,1050.89 C1868.24,1050.31 1868.78,1049.5 1868.78,1048.28 C1868.78,1046.71 1867.52,1045.49 1865.9,1045.49 C1863.96,1045.49 1862.7,1047.02 1862.7,1049.36 C1862.7,1053.73 1866.03,1056.47 1871.43,1056.47 C1878.23,1056.47 1883.4,1051.93 1883.4,1045.9 C1883.4,1042.39 1881.24,1040.41 1878.09,1039.42"/>
<path class="Tuplet" d="M1401.11,596.118 C1403.23,595.443 1404.08,595.083 1405.16,594.363 C1407.28,592.968 1408.58,590.493 1408.58,587.973 C1408.58,583.698 1405.16,580.818 1400.12,580.818 C1395.22,580.818 1391.08,583.878 1391.08,587.568 C1391.08,589.413 1392.2,590.673 1393.91,590.673 C1395.4,590.673 1396.48,589.593 1396.48,588.108 C1396.48,587.343 1396.25,586.803 1395.53,586.083 C1395.08,585.678 1394.9,585.363 1394.9,585.048 C1394.9,583.968 1397.15,582.843 1399.27,582.843 C1402.28,582.843 1404.08,584.508 1404.08,587.298 C1404.08,591.303 1401.25,595.083 1398.23,595.083 C1398.1,595.083 1397.69,595.038 1397.2,594.993 C1395.89,594.903 1395.89,594.903 1395.62,594.903 C1394.63,594.903 1394.09,595.353 1394.09,596.163 C1394.09,596.883 1394.59,597.333 1395.4,597.333 C1395.62,597.333 1395.94,597.288 1396.3,597.243 C1396.93,597.108 1397.6,597.063 1398.01,597.063 C1400.12,597.063 1401.56,598.953 1401.56,601.743 C1401.56,606.603 1399.18,611.283 1393.73,611.283 C1391.21,611.283 1389.05,610.023 1389.05,608.583 C1389.05,608.088 1389.23,607.908 1389.95,607.593 C1391.26,607.008 1391.8,606.198 1391.8,604.983 C1391.8,603.408 1390.54,602.193 1388.92,602.193 C1386.98,602.193 1385.72,603.723 1385.72,606.063 C1385.72,610.428 1389.05,613.173 1394.45,613.173 C1401.25,613.173 1406.42,608.628 1406.42,602.598 C1406.42,599.088 1404.26,597.108 1401.11,596.118"/>
<path class="Tuplet" d="M1733.75,1271.92 C1735.86,1271.24 1736.72,1270.88 1737.8,1270.16 C1739.91,1268.77 1741.22,1266.29 1741.22,1263.77 C1741.22,1259.5 1737.8,1256.62 1732.76,1256.62 C1727.85,1256.62 1723.71,1259.68 1723.71,1263.37 C1723.71,1265.21 1724.84,1266.47 1726.55,1266.47 C1728.03,1266.47 1729.11,1265.39 1729.11,1263.91 C1729.11,1263.14 1728.89,1262.6 1728.17,1261.88 C1727.72,1261.48 1727.54,1261.16 1727.54,1260.85 C1727.54,1259.77 1729.79,1258.64 1731.9,1258.64 C1734.92,1258.64 1736.72,1260.31 1736.72,1263.1 C1736.72,1267.1 1733.88,1270.88 1730.87,1270.88 C1730.73,1270.88 1730.33,1270.84 1729.83,1270.79 C1728.53,1270.7 1728.53,1270.7 1728.26,1270.7 C1727.27,1270.7 1726.73,1271.15 1726.73,1271.96 C1726.73,1272.68 1727.22,1273.13 1728.03,1273.13 C1728.26,1273.13 1728.57,1273.09 1728.93,1273.04 C1729.56,1272.91 1730.24,1272.86 1730.64,1272.86 C1732.76,1272.86 1734.2,1274.75 1734.2,1277.54 C1734.2,1282.4 1731.81,1287.08 1726.37,1287.08 C1723.85,1287.08 1721.69,1285.82 1721.69,1284.38 C1721.69,1283.89 1721.87,1283.71 1722.59,1283.39 C1723.89,1282.81 1724.43,1282 1724.43,1280.78 C1724.43,1279.21 1723.17,1277.99 1721.55,1277.99 C1719.62,1277.99 1718.36,1279.52 1718.36,1281.86 C1718.36,1286.23 1721.69,1288.97 1727.09,1288.97 C1733.88,1288.97 1739.06,1284.43 1739.06,1278.4 C1739.06,1274.89 1736.9,1272.91 1733.75,1271.92"/>
<path class="Tuplet" d="M1439.74,1067.32 C1441.86,1066.64 1442.71,1066.28 1443.79,1065.56 C1445.91,1064.17 1447.21,1061.69 1447.21,1059.17 C1447.21,1054.9 1443.79,1052.02 1438.75,1052.02 C1433.85,1052.02 1429.71,1055.08 1429.71,1058.77 C1429.71,1060.61 1430.83,1061.87 1432.54,1061.87 C1434.03,1061.87 1435.11,1060.79 1435.11,1059.31 C1435.11,1058.54 1434.88,1058 1434.16,1057.28 C1433.71,1056.88 1433.53,1056.56 1433.53,1056.25 C1433.53,1055.17 1435.78,1054.04 1437.9,1054.04 C1440.91,1054.04 1442.71,1055.71 1442.71,1058.5 C1442.71,1062.5 1439.88,1066.28 1436.86,1066.28 C1436.73,1066.28 1436.32,1066.24 1435.83,1066.19 C1434.52,1066.1 1434.52,1066.1 1434.25,1066.1 C1433.26,1066.1 1432.72,1066.55 1432.72,1067.36 C1432.72,1068.08 1433.22,1068.53 1434.03,1068.53 C1434.25,1068.53 1434.57,1068.49 1434.93,1068.44 C1435.56,1068.31 1436.23,1068.26 1436.64,1068.26 C1438.75,1068.26 1440.19,1070.15 1440.19,1072.94 C1440.19,1077.8 1437.81,1082.48 1432.36,1082.48 C1429.84,1082.48 1427.68,1081.22 1427.68,1079.78 C1427.68,1079.29 1427.86,1079.11 1428.58,1078.79 C1429.89,1078.21 1430.43,1077.4 1430.43,1076.18 C1430.43,1074.61 1429.17,1073.39 1427.55,1073.39 C1425.61,1073.39 1424.35,1074.92 1424.35,1077.26 C1424.35,1081.63 1427.68,1084.37 1433.08,1084.37 C1439.88,1084.37 1445.05,1079.83 1445.05,1073.8 C1445.05,1070.29 1442.89,1068.31 1439.74,1067.32"/>
<path class="VoltaSegment" d="M2459.75,568.282 L2457.82,568.282 C2454.36,570.867 2450.45,571.967 2443.91,572.077 L2443.91,575.157 L2446.22,575.157 C2451.11,575.157 2451.17,575.267 2451.11,579.777 L2451.11,599.302 C2451.11,602.712 2451.11,602.877 2450.73,603.427 C2450.23,604.032 2449.13,604.252 2446.16,604.252 L2444.4,604.252 L2444.4,607.222 L2466.35,607.222 L2466.35,604.252 L2464.59,604.252 C2461.67,604.252 2460.63,604.032 2460.13,603.427 C2459.75,602.877 2459.75,602.657 2459.75,599.302 L2459.75,568.282 M2478.55,597.707 C2475.69,597.707 2473.38,600.017 2473.38,602.877 C2473.38,605.682 2475.69,608.047 2478.49,608.047 C2481.41,608.047 2483.72,605.737 2483.72,602.877 C2483.72,600.017 2481.41,597.707 2478.55,597.707"/>
<polyline class="VoltaSegment" fill="none" stroke="#000000" stroke-width="2.73" stroke-linejoin="miter" stroke-miterlimit="2" points="2429.02,607.222 2429.02,552.662 2692.76,552.662 2692.76,607.222"/>
<path class="NoteDot" transform="matrix(0.992,0,0,0.992,1595.33,1217)" d="M0,0 C0,2.8 2.2,5 5,5 C7.8,5 10,2.8 10,0 C10,-2.8 7.8,-5 5,-5 C2.2,-5 0,-2.8 0,0"/>
<path class="NoteDot" transform="matrix(0.992,0,0,0.992,888.386,745.798)" d="M0,0 C0,2.8 2.2,5 5,5 C7.8,5 10,2.8 10,0 C10,-2.8 7.8,-5 5,-5 C2.2,-5 0,-2.8 0,0"/>
<path class="NoteDot" transform="matrix(0.992,0,0,0.992,1209.28,720.998)" d="M0,0 C0,2.8 2.2,5 5,5 C7.8,5 10,2.8 10,0 C10,-2.8 7.8,-5 5,-5 C2.2,-5 0,-2.8 0,0"/>
<path class="NoteDot" transform="matrix(0.992,0,0,0.992,1562.39,745.798)" d="M0,0 C0,2.8 2.2,5 5,5 C7.8,5 10,2.8 10,0 C10,-2.8 7.8,-5 5,-5 C2.2,-5 0,-2.8 0,0"/>
<path class="NoteDot" transform="matrix(0.992,0,0,0.992,895.52,1217)" d="M0,0 C0,2.8 2.2,5 5,5 C7.8,5 10,2.8 10,0 C10,-2.8 7.8,-5 5,-5 C2.2,-5 0,-2.8 0,0"/>
</svg>
