<?xml version="1.0" encoding="UTF-8" standalone="no"?>
<svg width="2977.2px" height="4208.4px" viewBox="0 0 2977.2 4208.4"
 xmlns="http://www.w3.org/2000/svg" xmlns:xlink="http://www.w3.org/1999/xlink" version="1.2" baseProfile="tiny">
<title>ビッグ・ベンの鐘</title>
<desc>Generated by MuseScore Studio 4.4.3</desc>
<path class="" fill="#ffffff" fill-rule="evenodd" d="M0,0 L2977.2,0 L2977.2,4208.4 L0,4208.4 L0,0 "/>
<polyline class="StaffLines" fill="none" stroke="#000000" stroke-width="2.73" stroke-linejoin="bevel" points="212.598,634.198 2764.6,634.198"/>
<polyline class="StaffLines" fill="none" stroke="#000000" stroke-width="2.73" stroke-linejoin="bevel" points="212.598,658.998 2764.6,658.998"/>
<polyline class="StaffLines" fill="none" stroke="#000000" stroke-width="2.73" stroke-linejoin="bevel" points="212.598,683.798 2764.6,683.798"/>
<polyline class="StaffLines" fill="none" stroke="#000000" stroke-width="2.73" stroke-linejoin="bevel" points="212.598,708.598 2764.6,708.598"/>
<polyline class="StaffLines" fill="none" stroke="#000000" stroke-width="2.73" stroke-linejoin="bevel" points="212.598,733.398 2764.6,733.398"/>
<polyline class="StaffLines" fill="none" stroke="#000000" stroke-width="2.73" stroke-linejoin="bevel" points="212.598,1105.4 2764.6,1105.4"/>
<polyline class="StaffLines" fill="none" stroke="#000000" stroke-width="2.73" stroke-linejoin="bevel" points="212.598,1130.2 2764.6,1130.2"/>
<polyline class="StaffLines" fill="none" stroke="#000000" stroke-width="2.73" stroke-linejoin="bevel" points="212.598,1155 2764.6,1155"/>
<polyline class="StaffLines" fill="none" stroke="#000000" stroke-width="2.73" stroke-linejoin="bevel" points="212.598,1179.8 2764.6,1179.8"/>
<polyline class="StaffLines" fill="none" stroke="#000000" stroke-width="2.73" stroke-linejoin="bevel" points="212.598,1204.6 2764.6,1204.6"/>
<path class="Text" d="M1061.3,234.158 C1061.3,229.318 1061.41,227.558 1061.85,224.918 L1052.83,224.918 C1053.16,227.448 1053.27,229.208 1053.27,234.048 L1053.27,284.758 C1053.27,289.378 1053.38,291.578 1053.49,293.338 C1054.04,298.508 1055.36,301.698 1058,303.898 C1061.85,307.088 1069.11,308.408 1082.09,308.408 C1089.68,308.408 1104.2,307.638 1111.24,306.868 L1116.52,306.318 L1117.95,306.208 C1119.6,305.988 1119.93,305.988 1121.58,305.878 L1120.92,297.078 C1116.85,298.288 1114.76,298.728 1110.03,299.278 C1101.45,300.378 1091.66,301.038 1084.84,301.038 C1080.44,301.038 1075.27,300.818 1071.86,300.378 C1067.35,299.828 1064.93,299.058 1063.5,297.518 C1061.63,295.648 1061.19,293.118 1061.19,285.418 C1061.19,284.978 1061.19,284.538 1061.19,284.208 L1061.3,283.548 L1061.3,267.488 C1079.78,264.188 1097.38,257.918 1113.77,248.898 C1116.3,247.578 1116.85,247.358 1118.5,246.588 L1112.89,239.108 C1105.52,246.368 1078.68,257.258 1061.3,260.228 L1061.3,234.158 M1110.91,222.168 C1114.21,225.578 1119.49,233.828 1122.24,239.658 L1127.74,236.358 C1124.44,229.868 1121.36,225.248 1116.41,219.308 L1110.91,222.168 M1123.45,216.228 C1127.74,221.288 1132.36,228.328 1134.67,233.498 L1140.28,230.418 C1136.54,223.488 1133.79,219.308 1128.84,213.258 L1123.45,216.228 M1155.9,250.878 C1160.52,258.468 1163.6,265.838 1166.24,275.518 L1173.72,272.988 C1169.65,261.328 1167.23,256.158 1162.83,248.568 L1155.9,250.878 M1178.56,246.258 C1183.29,254.508 1186.7,262.538 1188.68,270.348 L1195.94,267.818 C1193.08,259.018 1191.1,254.618 1185.27,244.168 L1178.56,246.258 M1216.73,246.148 C1216.73,246.478 1216.73,246.478 1216.73,246.808 L1216.73,247.248 C1216.73,248.568 1216.29,251.098 1215.52,254.728 C1213.54,263.198 1210.35,271.448 1206.17,278.378 C1198.58,291.028 1188.24,299.498 1171.3,307.088 C1173.83,309.398 1174.71,310.498 1176.36,313.248 C1193.41,304.998 1204.96,294.878 1212.77,281.458 C1216.73,274.638 1220.69,264.518 1222.45,256.818 C1224.21,249.668 1224.21,249.668 1224.87,247.908 L1216.73,246.148 M1288.45,219.968 C1288.23,222.828 1285.92,228.328 1281.52,235.918 C1273.49,249.668 1264.69,259.348 1253.91,266.168 C1257.1,268.038 1258.2,269.138 1260.07,271.778 C1269.86,264.738 1280.31,253.188 1286.36,243.178 L1323.43,242.628 C1314.96,273.098 1294.28,296.198 1265.68,307.198 C1268.43,309.288 1269.53,310.718 1271.18,313.688 C1301.76,300.048 1320.9,278.488 1331.02,246.148 C1331.9,243.288 1332.01,243.068 1332.89,241.858 L1326.29,234.928 C1324.75,235.588 1324.42,235.588 1320.57,235.698 L1293.95,236.138 C1291.86,236.138 1290.87,236.248 1289.99,236.468 C1291.09,234.928 1292.3,232.398 1295.05,226.788 C1296.37,223.818 1296.48,223.708 1297.47,222.278 L1288.45,219.968 M1325.96,221.728 C1329.48,225.358 1334.43,232.948 1337.18,238.668 L1342.68,235.368 C1339.27,228.768 1336.85,225.138 1331.46,218.758 L1325.96,221.728 M1338.39,215.678 C1343.01,220.958 1346.97,227.008 1349.61,232.508 L1355.11,229.318 C1351.15,222.168 1349.28,219.308 1343.78,212.598 L1338.39,215.678 M1410.33,258.138 C1405.38,258.138 1401.31,262.208 1401.31,267.158 C1401.31,272.108 1405.38,276.178 1410.33,276.178 C1415.28,276.178 1419.35,272.108 1419.35,267.158 C1419.35,262.208 1415.28,258.138 1410.33,258.138 M1476.99,282.448 C1478.31,280.688 1479.3,279.478 1480.07,278.598 C1485.24,272.768 1495.14,260.558 1499.98,254.178 C1504.82,247.688 1505.37,247.138 1507.57,247.138 C1509.77,247.138 1510.21,247.468 1517.47,255.278 C1532.21,271.118 1544.64,283.218 1554.76,291.688 C1559.05,295.428 1561.91,297.738 1562.46,298.288 C1562.68,298.508 1563.56,299.278 1564.55,300.158 L1568.73,291.138 C1560.26,286.628 1537.38,265.728 1521.98,248.568 C1514.06,239.768 1512.19,238.448 1507.79,238.448 C1502.84,238.448 1499.98,240.538 1493.82,248.898 C1481.28,264.958 1474.13,272.988 1471.38,274.198 L1476.99,282.448 M1536.28,234.048 C1539.47,237.568 1544.86,245.708 1547.5,251.538 L1553.11,248.238 C1549.81,241.748 1546.73,237.128 1541.78,231.188 L1536.28,234.048 M1548.82,228.218 C1553,233.168 1557.62,240.318 1560.04,245.488 L1565.54,242.298 C1561.91,235.368 1559.16,231.298 1554.1,225.248 L1548.82,228.218 M1592.49,237.128 C1602.06,242.958 1610.75,250.108 1618.67,258.688 L1624.39,251.868 C1616.47,244.058 1609.65,238.668 1597.88,231.188 L1592.49,237.128 M1593.26,308.628 C1596.01,307.748 1596.89,307.528 1599.86,306.868 C1618.23,302.688 1629.56,298.178 1640.89,290.478 C1655.41,280.468 1665.64,267.598 1674.44,248.458 C1671.36,246.368 1670.26,245.378 1667.73,241.968 C1658.82,265.288 1644.08,281.458 1622.85,290.918 C1612.62,295.648 1599.42,299.058 1590.84,299.388 L1593.26,308.628 "/>
<path class="Text" d="M1746.27,236.028 C1751.77,236.248 1754.96,237.018 1759.03,238.778 C1770.14,243.728 1776.52,253.848 1776.52,266.388 C1776.52,279.918 1769.15,291.688 1757.05,297.188 C1751.88,299.608 1746.71,301.038 1738.68,302.358 C1740.77,304.998 1741.43,306.098 1742.53,309.728 C1750.12,308.078 1754.3,306.758 1759.25,304.668 C1775.2,297.848 1784.44,283.768 1784.44,266.718 C1784.44,256.158 1780.7,246.588 1773.77,239.878 C1766.62,232.838 1755.84,228.988 1743.52,228.988 C1728.78,228.988 1716.79,233.938 1707.99,243.618 C1700.62,251.868 1696.44,262.758 1696.44,273.978 C1696.44,289.378 1704.25,300.818 1714.7,300.818 C1722.62,300.818 1729.11,294.218 1735.49,279.698 C1740.44,268.148 1744.62,251.318 1746.27,236.028 M1738.35,236.138 C1736.92,250.218 1732.85,266.498 1728.34,276.838 C1723.61,287.618 1719.21,292.788 1714.59,292.788 C1708.65,292.788 1704.03,284.648 1704.03,274.088 C1704.03,260.448 1710.85,248.018 1721.96,241.308 C1727.02,238.228 1731.75,236.688 1738.35,236.138"/>
<path class="Text" d="M1818.76,251.208 L1818.76,262.758 L1811.06,262.758 C1806.77,262.758 1804.46,262.648 1801.82,262.098 L1801.82,269.248 C1804.46,268.698 1806.77,268.588 1811.06,268.588 L1818.76,268.588 L1818.76,303.458 C1809.08,305.768 1804.46,306.538 1801.49,306.648 L1803.03,313.578 C1805.23,312.918 1805.78,312.808 1808.97,312.038 C1819.31,309.728 1828.66,307.088 1839.11,303.458 L1839,297.188 C1832.18,299.608 1829.76,300.488 1824.92,301.808 L1824.92,268.588 L1830.53,268.588 C1834.27,268.588 1836.58,268.698 1839.11,269.028 L1839.11,262.098 C1836.8,262.648 1834.71,262.758 1830.53,262.758 L1824.92,262.758 L1824.92,251.208 L1829.76,251.208 C1832.51,251.208 1834.38,251.318 1836.03,251.648 L1836.03,245.158 C1834.27,245.488 1832.95,245.598 1829.87,245.598 L1815.24,245.598 C1812.27,245.598 1810.84,245.488 1809.3,245.158 C1815.68,238.228 1819.64,232.288 1822.94,224.588 C1826.57,232.178 1829.32,236.248 1835.48,242.628 C1836.91,240.538 1838.12,239.108 1839.99,237.458 C1832.95,231.188 1830.2,227.338 1826.46,219.198 L1818.87,219.198 C1814.91,229.758 1809.08,237.678 1799.29,245.598 C1801.6,247.798 1801.82,248.128 1803.47,250.988 C1806,248.678 1806.88,247.798 1809.08,245.488 L1809.08,251.648 C1810.95,251.318 1812.82,251.208 1815.24,251.208 L1818.76,251.208 M1871.67,226.458 L1871.67,224.698 C1871.67,221.948 1871.78,219.528 1872.22,217.438 L1864.41,217.438 C1864.85,219.638 1864.96,222.168 1864.96,224.698 L1864.96,226.458 L1851.98,226.458 C1847.8,226.458 1844.17,226.238 1840.98,225.908 L1840.98,232.178 C1844.17,231.848 1846.7,231.738 1851.21,231.738 C1852.75,235.258 1853.96,238.778 1854.95,242.188 L1849.12,242.188 C1844.17,242.188 1841.42,242.078 1839,241.638 L1839,248.238 C1841.64,247.798 1844.28,247.688 1849.34,247.688 L1889.93,247.688 C1894.44,247.688 1897.52,247.798 1900.71,248.238 L1900.71,241.638 C1898.29,242.078 1895.32,242.188 1889.71,242.188 L1882.45,242.188 C1883.99,238.998 1885.31,235.698 1886.63,231.738 L1888.17,231.738 C1892.02,231.738 1894.55,231.848 1898.29,232.178 L1898.29,225.908 C1894.99,226.238 1891.58,226.458 1887.51,226.458 L1871.67,226.458 M1861.44,242.188 C1860.23,237.898 1859.24,235.148 1857.92,231.738 L1880.03,231.738 C1878.93,235.368 1877.72,238.448 1875.96,242.188 L1861.44,242.188 M1865.51,286.078 L1865.51,294.218 L1853.19,294.218 C1847.8,294.218 1844.61,294.108 1842.3,293.668 L1842.3,300.378 C1845.38,300.048 1848.9,299.828 1853.19,299.828 L1865.51,299.828 L1865.51,307.968 L1848.9,307.968 C1843.73,307.968 1840.65,307.748 1837.57,307.308 L1837.57,314.238 C1840.87,313.798 1844.06,313.578 1848.9,313.578 L1889.49,313.578 C1894.33,313.578 1897.74,313.798 1900.82,314.238 L1900.82,307.308 C1898.07,307.748 1894.77,307.968 1889.71,307.968 L1871.34,307.968 L1871.34,299.828 L1885.2,299.828 C1888.61,299.828 1892.35,300.048 1896.2,300.378 L1896.2,293.668 C1893.78,294.108 1890.59,294.218 1885.31,294.218 L1871.34,294.218 L1871.34,286.078 L1885.2,286.078 C1889.82,286.078 1893.01,286.188 1895.43,286.408 C1895.21,283.878 1895.1,281.568 1895.1,276.178 L1895.1,263.418 C1895.1,258.028 1895.21,256.158 1895.43,253.848 C1893.23,254.068 1889.82,254.178 1885.31,254.178 L1853.41,254.178 C1848.46,254.178 1845.38,254.068 1843.07,253.848 C1843.4,256.268 1843.4,257.808 1843.4,263.308 L1843.4,276.398 C1843.4,281.678 1843.29,283.988 1843.07,286.408 C1845.27,286.188 1848.57,286.078 1853.19,286.078 L1865.51,286.078 M1865.51,259.348 L1865.51,267.378 L1849.23,267.378 L1849.23,259.348 L1865.51,259.348 M1871.34,259.348 L1889.16,259.348 L1889.16,267.378 L1871.34,267.378 L1871.34,259.348 M1865.51,272.438 L1865.51,281.018 L1849.23,281.018 L1849.23,272.438 L1865.51,272.438 M1871.34,272.438 L1889.16,272.438 L1889.16,281.018 L1871.34,281.018 L1871.34,272.438 M1814.69,297.518 C1812.49,285.528 1811.5,281.678 1808.97,274.418 L1803.47,276.068 C1806.33,283.988 1807.65,289.598 1809.08,299.278 L1814.69,297.518 M1833.61,295.538 C1836.25,288.498 1837.46,283.768 1839,275.628 L1833.61,273.758 C1832.29,282.558 1831.3,287.068 1828.77,293.888 L1833.61,295.538 "/>
<path class="MeasureNumber" d="M216.922,1040.48 C215.682,1041.24 215.322,1041.72 215.322,1042.52 C215.322,1043.28 215.962,1043.84 216.762,1043.84 C217.802,1043.84 218.402,1043.08 218.522,1041.6 C219.762,1040.6 221.082,1040.16 222.682,1040.16 C225.642,1040.16 227.282,1042 227.282,1045.32 C227.282,1050.52 223.922,1054.76 219.802,1054.76 C217.442,1054.76 215.522,1053.64 215.522,1052.32 C215.522,1052.08 215.562,1052 215.762,1051.88 C217.042,1051.28 218.082,1050.84 218.082,1049.16 C218.082,1047.88 217.082,1046.92 215.682,1046.92 C213.922,1046.92 212.602,1048.4 212.602,1050.32 C212.602,1053.84 215.642,1056.4 219.922,1056.4 C226.402,1056.4 231.642,1051.24 231.642,1044.84 C231.642,1040.8 228.562,1037.96 224.202,1037.96 C222.482,1037.96 221.082,1038.32 219.162,1039.28 L221.402,1031.72 C223.522,1032.16 225.202,1032.36 226.642,1032.36 C229.282,1032.36 231.642,1031.52 232.962,1030.12 C233.642,1029.32 234.042,1028.64 234.042,1028.12 C234.042,1027.88 233.922,1027.64 233.762,1027.64 C233.642,1027.64 233.562,1027.68 233.322,1027.8 C232.002,1028.44 230.322,1028.8 228.762,1028.8 C226.362,1028.8 223.522,1028.4 220.562,1027.64 L216.922,1040.48 "/>
<polyline class="BarLine" fill="none" stroke="#000000" stroke-width="4.46" stroke-linejoin="bevel" points="1054.88,1104.03 1054.88,1205.96"/>
<polyline class="BarLine" fill="none" stroke="#000000" stroke-width="4.46" stroke-linejoin="bevel" points="2740.42,1104.03 2740.42,1205.96"/>
<polyline class="BarLine" fill="none" stroke="#000000" stroke-width="13.64" stroke-linejoin="bevel" points="2757.78,1104.03 2757.78,1205.96"/>
<polyline class="BarLine" fill="none" stroke="#000000" stroke-width="4.46" stroke-linejoin="bevel" points="2263.37,1104.03 2263.37,1205.96"/>
<polyline class="BarLine" fill="none" stroke="#000000" stroke-width="4.46" stroke-linejoin="bevel" points="2762.37,632.834 2762.37,734.762"/>
<polyline class="BarLine" fill="none" stroke="#000000" stroke-width="4.46" stroke-linejoin="bevel" points="1562.27,632.834 1562.27,734.762"/>
<polyline class="BarLine" fill="none" stroke="#000000" stroke-width="4.46" stroke-linejoin="bevel" points="1531.93,1104.03 1531.93,1205.96"/>
<polyline class="BarLine" fill="none" stroke="#000000" stroke-width="4.46" stroke-linejoin="bevel" points="2288.57,632.834 2288.57,734.762"/>
<polyline class="BarLine" fill="none" stroke="#000000" stroke-width="4.46" stroke-linejoin="bevel" points="1088.48,632.834 1088.48,734.762"/>
<polyline class="LedgerLine" fill="none" stroke="#000000" stroke-width="3.97" stroke-linejoin="bevel" points="1080.67,1229.4 1130.25,1229.4"/>
<polyline class="LedgerLine" fill="none" stroke="#000000" stroke-width="3.97" stroke-linejoin="bevel" points="617.831,758.198 667.416,758.198"/>
<polyline class="LedgerLine" fill="none" stroke="#000000" stroke-width="3.97" stroke-linejoin="bevel" points="1080.67,1254.2 1130.25,1254.2"/>
<polyline class="LedgerLine" fill="none" stroke="#000000" stroke-width="3.97" stroke-linejoin="bevel" points="2289.16,1229.4 2338.75,1229.4"/>
<polyline class="LedgerLine" fill="none" stroke="#000000" stroke-width="3.97" stroke-linejoin="bevel" points="349.231,1229.4 398.815,1229.4"/>
<polyline class="LedgerLine" fill="none" stroke="#000000" stroke-width="3.97" stroke-linejoin="bevel" points="1114.27,758.198 1163.85,758.198"/>
<polyline class="LedgerLine" fill="none" stroke="#000000" stroke-width="3.97" stroke-linejoin="bevel" points="1114.27,782.998 1163.85,782.998"/>
<polyline class="LedgerLine" fill="none" stroke="#000000" stroke-width="3.97" stroke-linejoin="bevel" points="1557.72,1229.4 1607.31,1229.4"/>
<polyline class="LedgerLine" fill="none" stroke="#000000" stroke-width="3.97" stroke-linejoin="bevel" points="1557.72,1254.2 1607.31,1254.2"/>
<polyline class="LedgerLine" fill="none" stroke="#000000" stroke-width="3.97" stroke-linejoin="bevel" points="1588.06,758.198 1637.65,758.198"/>
<polyline class="LedgerLine" fill="none" stroke="#000000" stroke-width="3.97" stroke-linejoin="bevel" points="1588.06,782.998 1637.65,782.998"/>
<polyline class="LedgerLine" fill="none" stroke="#000000" stroke-width="3.97" stroke-linejoin="bevel" points="2314.37,758.198 2363.95,758.198"/>
<polyline class="Stem" fill="none" stroke="#000000" stroke-width="2.73" stroke-linejoin="bevel" points="2353.91,754.23 2353.91,671.398"/>
<polyline class="Stem" fill="none" stroke="#000000" stroke-width="2.73" stroke-linejoin="bevel" points="620.35,1200.63 620.35,1117.8"/>
<polyline class="Stem" fill="none" stroke="#000000" stroke-width="2.73" stroke-linejoin="bevel" points="2060.42,1200.63 2060.42,1117.8"/>
<polyline class="Stem" fill="none" stroke="#000000" stroke-width="2.73" stroke-linejoin="bevel" points="2087.34,729.43 2087.34,646.598"/>
<polyline class="Stem" fill="none" stroke="#000000" stroke-width="2.73" stroke-linejoin="bevel" points="1828.84,1213.03 1828.84,1130.2"/>
<polyline class="Stem" fill="none" stroke="#000000" stroke-width="2.73" stroke-linejoin="bevel" points="1857.47,741.83 1857.47,658.998"/>
<polyline class="Stem" fill="none" stroke="#000000" stroke-width="2.73" stroke-linejoin="bevel" points="1597.26,1262.63 1597.26,1155"/>
<polyline class="Stem" fill="none" stroke="#000000" stroke-width="2.73" stroke-linejoin="bevel" points="427.506,729.43 427.506,646.598"/>
<polyline class="Stem" fill="none" stroke="#000000" stroke-width="2.73" stroke-linejoin="bevel" points="1627.6,791.43 1627.6,683.798"/>
<polyline class="Stem" fill="none" stroke="#000000" stroke-width="2.73" stroke-linejoin="bevel" points="657.372,754.23 657.372,671.398"/>
<polyline class="Stem" fill="none" stroke="#000000" stroke-width="2.73" stroke-linejoin="bevel" points="1120.21,1262.63 1120.21,1155"/>
<polyline class="Stem" fill="none" stroke="#000000" stroke-width="2.73" stroke-linejoin="bevel" points="887.238,741.83 887.238,658.998"/>
<polyline class="Stem" fill="none" stroke="#000000" stroke-width="2.73" stroke-linejoin="bevel" points="2328.7,1225.43 2328.7,1142.6"/>
<polyline class="Stem" fill="none" stroke="#000000" stroke-width="2.73" stroke-linejoin="bevel" points="388.771,1225.43 388.771,1142.6"/>
<polyline class="Stem" fill="none" stroke="#000000" stroke-width="2.73" stroke-linejoin="bevel" points="1153.81,791.43 1153.81,683.798"/>
<polyline class="Stem" fill="none" stroke="#000000" stroke-width="2.73" stroke-linejoin="bevel" points="851.928,1213.03 851.928,1130.2"/>
<path class="Note" transform="matrix(0.992,0,0,0.992,856.377,745.798)" d="M0,4.2 C0,8.5 3.1,13.3 11.2,13.3 C21.6,13.3 32.5,4.8 32.5,-4 C32.5,-9.9 27.5,-13.2 21.3,-13.2 C11.6,-13.2 0,-5 0,4.2"/>
<path class="Note" transform="matrix(0.992,0,0,0.992,589.489,1204.6)" d="M0,4.2 C0,8.5 3.1,13.3 11.2,13.3 C21.6,13.3 32.5,4.8 32.5,-4 C32.5,-9.9 27.5,-13.2 21.3,-13.2 C11.6,-13.2 0,-5 0,4.2"/>
<path class="Note" transform="matrix(0.992,0,0,0.992,357.911,1229.4)" d="M0,4.2 C0,8.5 3.1,13.3 11.2,13.3 C21.6,13.3 32.5,4.8 32.5,-4 C32.5,-9.9 27.5,-13.2 21.3,-13.2 C11.6,-13.2 0,-5 0,4.2"/>
<path class="Note" transform="matrix(0.992,0,0,0.992,821.068,1217)" d="M0,4.2 C0,8.5 3.1,13.3 11.2,13.3 C21.6,13.3 32.5,4.8 32.5,-4 C32.5,-9.9 27.5,-13.2 21.3,-13.2 C11.6,-13.2 0,-5 0,4.2"/>
<path class="Note" transform="matrix(0.992,0,0,0.992,1122.95,795.398)" d="M21.3,-13.2 C11.6,-13.2 0,-5.1 0,4.2 C0,8.5 3.1,13.3 11.2,13.3 C21.6,13.3 32.5,4.8 32.5,-4 C32.5,-9.9 27.5,-13.2 21.3,-13.2 M7.5,8.6 C4.2,8.6 3.5,5.9 3.5,5 C3.5,0.1 20.3,-8.5 25,-8.5 C27.4,-8.5 29,-7.1 29,-4.9 C29,0.1 12.1,8.6 7.5,8.6"/>
<path class="Note" transform="matrix(0.992,0,0,0.992,626.511,758.198)" d="M0,4.2 C0,8.5 3.1,13.3 11.2,13.3 C21.6,13.3 32.5,4.8 32.5,-4 C32.5,-9.9 27.5,-13.2 21.3,-13.2 C11.6,-13.2 0,-5 0,4.2"/>
<path class="Note" transform="matrix(0.992,0,0,0.992,2297.84,1229.4)" d="M21.3,-13.2 C11.6,-13.2 0,-5.1 0,4.2 C0,8.5 3.1,13.3 11.2,13.3 C21.6,13.3 32.5,4.8 32.5,-4 C32.5,-9.9 27.5,-13.2 21.3,-13.2 M7.5,8.6 C4.2,8.6 3.5,5.9 3.5,5 C3.5,0.1 20.3,-8.5 25,-8.5 C27.4,-8.5 29,-7.1 29,-4.9 C29,0.1 12.1,8.6 7.5,8.6"/>
<path class="Note" transform="matrix(0.992,0,0,0.992,1089.35,1266.6)" d="M21.3,-13.2 C11.6,-13.2 0,-5.1 0,4.2 C0,8.5 3.1,13.3 11.2,13.3 C21.6,13.3 32.5,4.8 32.5,-4 C32.5,-9.9 27.5,-13.2 21.3,-13.2 M7.5,8.6 C4.2,8.6 3.5,5.9 3.5,5 C3.5,0.1 20.3,-8.5 25,-8.5 C27.4,-8.5 29,-7.1 29,-4.9 C29,0.1 12.1,8.6 7.5,8.6"/>
<path class="Note" transform="matrix(0.992,0,0,0.992,396.645,733.398)" d="M0,4.2 C0,8.5 3.1,13.3 11.2,13.3 C21.6,13.3 32.5,4.8 32.5,-4 C32.5,-9.9 27.5,-13.2 21.3,-13.2 C11.6,-13.2 0,-5 0,4.2"/>
<path class="Note" transform="matrix(0.992,0,0,0.992,1596.74,795.398)" d="M0,4.2 C0,8.5 3.1,13.3 11.2,13.3 C21.6,13.3 32.5,4.8 32.5,-4 C32.5,-9.9 27.5,-13.2 21.3,-13.2 C11.6,-13.2 0,-5 0,4.2"/>
<path class="Note" transform="matrix(0.992,0,0,0.992,2323.05,758.198)" d="M21.3,-13.2 C11.6,-13.2 0,-5.1 0,4.2 C0,8.5 3.1,13.3 11.2,13.3 C21.6,13.3 32.5,4.8 32.5,-4 C32.5,-9.9 27.5,-13.2 21.3,-13.2 M7.5,8.6 C4.2,8.6 3.5,5.9 3.5,5 C3.5,0.1 20.3,-8.5 25,-8.5 C27.4,-8.5 29,-7.1 29,-4.9 C29,0.1 12.1,8.6 7.5,8.6"/>
<path class="Note" transform="matrix(0.992,0,0,0.992,1566.4,1266.6)" d="M0,4.2 C0,8.5 3.1,13.3 11.2,13.3 C21.6,13.3 32.5,4.8 32.5,-4 C32.5,-9.9 27.5,-13.2 21.3,-13.2 C11.6,-13.2 0,-5 0,4.2"/>
<path class="Note" transform="matrix(0.992,0,0,0.992,1826.61,745.798)" d="M0,4.2 C0,8.5 3.1,13.3 11.2,13.3 C21.6,13.3 32.5,4.8 32.5,-4 C32.5,-9.9 27.5,-13.2 21.3,-13.2 C11.6,-13.2 0,-5 0,4.2"/>
<path class="Note" transform="matrix(0.992,0,0,0.992,1797.98,1217)" d="M0,4.2 C0,8.5 3.1,13.3 11.2,13.3 C21.6,13.3 32.5,4.8 32.5,-4 C32.5,-9.9 27.5,-13.2 21.3,-13.2 C11.6,-13.2 0,-5 0,4.2"/>
<path class="Note" transform="matrix(0.992,0,0,0.992,2029.56,1204.6)" d="M0,4.2 C0,8.5 3.1,13.3 11.2,13.3 C21.6,13.3 32.5,4.8 32.5,-4 C32.5,-9.9 27.5,-13.2 21.3,-13.2 C11.6,-13.2 0,-5 0,4.2"/>
<path class="Note" transform="matrix(0.992,0,0,0.992,2056.48,733.398)" d="M0,4.2 C0,8.5 3.1,13.3 11.2,13.3 C21.6,13.3 32.5,4.8 32.5,-4 C32.5,-9.9 27.5,-13.2 21.3,-13.2 C11.6,-13.2 0,-5 0,4.2"/>
<path class="Clef" transform="matrix(0.992,0,0,0.992,232.438,1179.8)" d="M12.3,51.3 C12.3,57.9 17.3,66.6 30.8,66.6 C35.5,66.6 39.6,65.4 43.2,63.2 C48.6,59.4 50,52.8 50,46.5 C50,42.6 49.4,38.1 48.4,32.4 C48.1,30.4 47.5,27.4 46.9,23.5 C56.7,20.3 64,10.1 64,-0.2 C64,-15.3 53.3,-25.5 38.7,-25.5 C37.7,-31.5 36.7,-37.4 35.9,-43 C46.4,-54.1 53.7,-66.6 53.7,-82.5 C53.7,-91.6 50.9,-99 49.3,-102.6 C46.9,-107.7 44,-111.2 42.2,-111.2 C41.5,-111.2 38.4,-110 35.1,-106.1 C28.7,-98.5 26.9,-85.7 26.9,-77.3 C26.9,-71.9 27.4,-67 29.1,-55.8 C29,-55.7 23.8,-50.4 21.7,-48.7 C12.6,-40.3 0,-28.1 0,-8.1 C0,10.6 16.3,25.3 34.9,25.3 C37.8,25.3 40.5,25 42.8,24.6 C44.7,34.2 45.9,41.2 45.9,46.5 C45.9,56.9 40.5,62.4 30.4,62.4 C28,62.4 25.9,61.9 25.7,61.9 C25.6,61.8 25.4,61.7 25.4,61.6 C25.4,61.4 25.6,61.3 25.9,61.3 C30.6,60.5 35.3,56.5 35.3,50.1 C35.3,44.7 31.2,39 23.7,39 C16.7,39 12.3,44.7 12.3,51.3 M33.2,-82.2 C34.1,-86.2 38.7,-96.7 43.9,-96.7 C45.4,-96.7 47.8,-91.9 47.8,-84.9 C47.8,-74.5 40.1,-66.7 33.2,-59.9 C32.6,-63.9 32.1,-67.8 32.1,-72 C32.1,-75.7 32.4,-79.1 33.2,-82.2 M42,20.6 C40,21 38.1,21.2 36.2,21.2 C21.9,21.2 9.7,11.2 9.7,-3.9 C9.7,-16.1 18.3,-27 27.1,-34.6 C28.8,-36.1 30.4,-37.5 31.9,-39 C32.8,-33.6 33.5,-28.9 34.2,-24.8 C25.1,-22.1 18.9,-12.5 18.9,-3.1 C18.9,3.9 24.4,13.5 32.4,13.5 C33.2,13.5 34.1,13.1 34.1,12.2 C34.1,11.3 33.1,10.8 31.9,10 C28,7.6 25.8,5 25.8,0.1 C25.8,-6 30.4,-10.9 36.2,-12.3 L42,20.6 M56.2,2.1 C56.2,9.2 53.3,16.5 46.2,19.4 C44.1,7.4 41.4,-8.5 40.7,-12.9 C49.7,-12.9 56.2,-6.8 56.2,2.1"/>
<path class="Clef" transform="matrix(0.992,0,0,0.992,232.438,708.598)" d="M12.3,51.3 C12.3,57.9 17.3,66.6 30.8,66.6 C35.5,66.6 39.6,65.4 43.2,63.2 C48.6,59.4 50,52.8 50,46.5 C50,42.6 49.4,38.1 48.4,32.4 C48.1,30.4 47.5,27.4 46.9,23.5 C56.7,20.3 64,10.1 64,-0.2 C64,-15.3 53.3,-25.5 38.7,-25.5 C37.7,-31.5 36.7,-37.4 35.9,-43 C46.4,-54.1 53.7,-66.6 53.7,-82.5 C53.7,-91.6 50.9,-99 49.3,-102.6 C46.9,-107.7 44,-111.2 42.2,-111.2 C41.5,-111.2 38.4,-110 35.1,-106.1 C28.7,-98.5 26.9,-85.7 26.9,-77.3 C26.9,-71.9 27.4,-67 29.1,-55.8 C29,-55.7 23.8,-50.4 21.7,-48.7 C12.6,-40.3 0,-28.1 0,-8.1 C0,10.6 16.3,25.3 34.9,25.3 C37.8,25.3 40.5,25 42.8,24.6 C44.7,34.2 45.9,41.2 45.9,46.5 C45.9,56.9 40.5,62.4 30.4,62.4 C28,62.4 25.9,61.9 25.7,61.9 C25.6,61.8 25.4,61.7 25.4,61.6 C25.4,61.4 25.6,61.3 25.9,61.3 C30.6,60.5 35.3,56.5 35.3,50.1 C35.3,44.7 31.2,39 23.7,39 C16.7,39 12.3,44.7 12.3,51.3 M33.2,-82.2 C34.1,-86.2 38.7,-96.7 43.9,-96.7 C45.4,-96.7 47.8,-91.9 47.8,-84.9 C47.8,-74.5 40.1,-66.7 33.2,-59.9 C32.6,-63.9 32.1,-67.8 32.1,-72 C32.1,-75.7 32.4,-79.1 33.2,-82.2 M42,20.6 C40,21 38.1,21.2 36.2,21.2 C21.9,21.2 9.7,11.2 9.7,-3.9 C9.7,-16.1 18.3,-27 27.1,-34.6 C28.8,-36.1 30.4,-37.5 31.9,-39 C32.8,-33.6 33.5,-28.9 34.2,-24.8 C25.1,-22.1 18.9,-12.5 18.9,-3.1 C18.9,3.9 24.4,13.5 32.4,13.5 C33.2,13.5 34.1,13.1 34.1,12.2 C34.1,11.3 33.1,10.8 31.9,10 C28,7.6 25.8,5 25.8,0.1 C25.8,-6 30.4,-10.9 36.2,-12.3 L42,20.6 M56.2,2.1 C56.2,9.2 53.3,16.5 46.2,19.4 C44.1,7.4 41.4,-8.5 40.7,-12.9 C49.7,-12.9 56.2,-6.8 56.2,2.1"/>
<path class="TimeSig" transform="matrix(0.992,0,0,0.992,323.237,659.494)" d="M27.2,-1.6 C32.2,-3.5 35.7,-6.7 35.7,-12.2 C35.7,-13.1 35.4,-24.4 18.2,-24.4 C1,-24.4 1.5,-12.2 1.5,-12.2 L1.6,-12.2 L1.5,-12 C1.5,-8.4 4.4,-5.6 8,-5.6 C11.6,-5.6 14.4,-8.4 14.4,-12 C14.4,-14.9 12.2,-17.7 9.4,-18.3 C9.5,-18.4 9.6,-18.5 9.7,-18.6 C11.1,-19.6 13,-20.1 14.9,-20.1 C19.1,-20.1 23.6,-17.6 23.6,-12.2 C23.6,-5.9 18.9,-5 17.7,-4.8 C16.5,-4.6 10.9,-4.2 9.7,-4.2 C8.5,-4.2 8.4,-2.8 8.4,-2.8 L8.4,-0.8 C8.4,-0.8 8.6,0.3 9.7,0.4 C11.4,0.5 13.7,0.5 16.9,1 C21.3,1.6 23.6,4.6 23.6,11.6 C23.6,18.3 19.1,20.1 14.9,20.1 C12.1,20.1 9.5,19.3 8.4,18.5 C11.7,18.3 14.4,15.4 14.4,12.1 C14.4,8.5 11.6,5.6 8,5.6 C4.4,5.6 1.5,8.5 1.5,12.1 C1.5,20.3 9,24.4 16.4,24.4 C26,24.4 36.4,21.1 36.4,10.2 C36.4,2.9 31.4,-0.2 27,-1.6 L27.2,-1.6 "/>
<path class="TimeSig" transform="matrix(0.992,0,0,0.992,319.331,708.598)" d="M20.8,12.7 L20.8,20.1 L12.5,20.1 C11.8,20.1 11.1,20.7 11.1,21.5 L11.1,23.4 C11.1,24.2 11.8,24.8 12.5,24.8 L42.8,24.8 C43.6,24.8 44.2,24.2 44.2,23.4 L44.2,21.5 C44.2,20.7 43.6,20.1 42.8,20.1 L33.9,20.1 L33.9,12.7 L42.8,12.7 C43.6,12.7 44.2,12 44.2,11.2 L44.2,9.3 C44.2,8.6 43.6,7.9 42.8,7.9 L33.9,7.9 L33.9,-8 C33.9,-8.6 33.6,-9.1 33.1,-9.3 L31.9,-9.9 C31.7,-10 31.4,-10.1 31.2,-10.1 C30.9,-10 30.5,-9.9 30.3,-9.7 L21.2,-1.4 C20.9,-1.1 20.8,-0.7 20.8,-0.3 L20.8,7.9 L9.3,7.9 C9.3,7.9 20.4,-4.1 32.2,-19.9 C32.6,-20.4 32.7,-20.9 32.7,-21.3 C32.7,-21.8 32.5,-22.2 32.4,-22.3 L30.2,-24.5 C30,-24.7 29.6,-24.9 29.2,-24.9 C28.6,-24.9 15.1,-24.9 14.4,-24.9 C13.6,-24.9 13.1,-24.3 13,-23.7 C13,-23.7 12.5,-16.3 9.9,-8.2 C7.3,-0.1 4.3,4.9 1.7,8.6 C1.7,8.6 1.4,9.1 1.4,9.7 C1.4,9.9 1.4,10.1 1.5,10.3 C1.9,11 2.5,12.1 2.5,12.1 C2.5,12.1 2.7,12.7 3.6,12.7 L20.8,12.7 "/>
<path class="NoteDot" transform="matrix(0.992,0,0,0.992,2367.67,745.798)" d="M0,0 C0,2.8 2.2,5 5,5 C7.8,5 10,2.8 10,0 C10,-2.8 7.8,-5 5,-5 C2.2,-5 0,-2.8 0,0"/>
<path class="NoteDot" transform="matrix(0.992,0,0,0.992,1133.97,1266.6)" d="M0,0 C0,2.8 2.2,5 5,5 C7.8,5 10,2.8 10,0 C10,-2.8 7.8,-5 5,-5 C2.2,-5 0,-2.8 0,0"/>
<path class="NoteDot" transform="matrix(0.992,0,0,0.992,1167.57,795.398)" d="M0,0 C0,2.8 2.2,5 5,5 C7.8,5 10,2.8 10,0 C10,-2.8 7.8,-5 5,-5 C2.2,-5 0,-2.8 0,0"/>
<path class="NoteDot" transform="matrix(0.992,0,0,0.992,2342.47,1217)" d="M0,0 C0,2.8 2.2,5 5,5 C7.8,5 10,2.8 10,0 C10,-2.8 7.8,-5 5,-5 C2.2,-5 0,-2.8 0,0"/>
</svg>
