<?xml version="1.0" encoding="UTF-8" standalone="no"?>
<svg width="2977.2px" height="4208.4px" viewBox="0 0 2977.2 4208.4"
 xmlns="http://www.w3.org/2000/svg" xmlns:xlink="http://www.w3.org/1999/xlink" version="1.2" baseProfile="tiny">
<title>ベートーベンのトルコ行進曲</title>
<desc>Generated by MuseScore Studio 4.4.3</desc>
<path class="" fill="#ffffff" fill-rule="evenodd" d="M0,0 L2977.2,0 L2977.2,4208.4 L0,4208.4 L0,0 "/>
<polyline class="StaffLines" fill="none" stroke="#000000" stroke-width="2.73" stroke-linejoin="bevel" points="212.598,634.198 2764.6,634.198"/>
<polyline class="StaffLines" fill="none" stroke="#000000" stroke-width="2.73" stroke-linejoin="bevel" points="212.598,658.998 2764.6,658.998"/>
<polyline class="StaffLines" fill="none" stroke="#000000" stroke-width="2.73" stroke-linejoin="bevel" points="212.598,683.798 2764.6,683.798"/>
<polyline class="StaffLines" fill="none" stroke="#000000" stroke-width="2.73" stroke-linejoin="bevel" points="212.598,708.598 2764.6,708.598"/>
<polyline class="StaffLines" fill="none" stroke="#000000" stroke-width="2.73" stroke-linejoin="bevel" points="212.598,733.398 2764.6,733.398"/>
<polyline class="StaffLines" fill="none" stroke="#000000" stroke-width="2.73" stroke-linejoin="bevel" points="212.598,1105.4 2764.6,1105.4"/>
<polyline class="StaffLines" fill="none" stroke="#000000" stroke-width="2.73" stroke-linejoin="bevel" points="212.598,1130.2 2764.6,1130.2"/>
<polyline class="StaffLines" fill="none" stroke="#000000" stroke-width="2.73" stroke-linejoin="bevel" points="212.598,1155 2764.6,1155"/>
<polyline class="StaffLines" fill="none" stroke="#000000" stroke-width="2.73" stroke-linejoin="bevel" points="212.598,1179.8 2764.6,1179.8"/>
<polyline class="StaffLines" fill="none" stroke="#000000" stroke-width="2.73" stroke-linejoin="bevel" points="212.598,1204.6 2764.6,1204.6"/>
<polyline class="StaffLines" fill="none" stroke="#000000" stroke-width="2.73" stroke-linejoin="bevel" points="212.598,1576.6 2764.6,1576.6"/>
<polyline class="StaffLines" fill="none" stroke="#000000" stroke-width="2.73" stroke-linejoin="bevel" points="212.598,1601.4 2764.6,1601.4"/>
<polyline class="StaffLines" fill="none" stroke="#000000" stroke-width="2.73" stroke-linejoin="bevel" points="212.598,1626.2 2764.6,1626.2"/>
<polyline class="StaffLines" fill="none" stroke="#000000" stroke-width="2.73" stroke-linejoin="bevel" points="212.598,1651 2764.6,1651"/>
<polyline class="StaffLines" fill="none" stroke="#000000" stroke-width="2.73" stroke-linejoin="bevel" points="212.598,1675.8 2764.6,1675.8"/>
<polyline class="StaffLines" fill="none" stroke="#000000" stroke-width="2.73" stroke-linejoin="bevel" points="212.598,2047.8 2764.6,2047.8"/>
<polyline class="StaffLines" fill="none" stroke="#000000" stroke-width="2.73" stroke-linejoin="bevel" points="212.598,2072.6 2764.6,2072.6"/>
<polyline class="StaffLines" fill="none" stroke="#000000" stroke-width="2.73" stroke-linejoin="bevel" points="212.598,2097.4 2764.6,2097.4"/>
<polyline class="StaffLines" fill="none" stroke="#000000" stroke-width="2.73" stroke-linejoin="bevel" points="212.598,2122.2 2764.6,2122.2"/>
<polyline class="StaffLines" fill="none" stroke="#000000" stroke-width="2.73" stroke-linejoin="bevel" points="212.598,2147 2764.6,2147"/>
<polyline class="StaffLines" fill="none" stroke="#000000" stroke-width="2.73" stroke-linejoin="bevel" points="212.598,2519 2764.6,2519"/>
<polyline class="StaffLines" fill="none" stroke="#000000" stroke-width="2.73" stroke-linejoin="bevel" points="212.598,2543.8 2764.6,2543.8"/>
<polyline class="StaffLines" fill="none" stroke="#000000" stroke-width="2.73" stroke-linejoin="bevel" points="212.598,2568.6 2764.6,2568.6"/>
<polyline class="StaffLines" fill="none" stroke="#000000" stroke-width="2.73" stroke-linejoin="bevel" points="212.598,2593.4 2764.6,2593.4"/>
<polyline class="StaffLines" fill="none" stroke="#000000" stroke-width="2.73" stroke-linejoin="bevel" points="212.598,2618.2 2764.6,2618.2"/>
<path class="Text" d="M787.352,277.62 C788.672,275.86 789.662,274.65 790.432,273.77 C795.602,267.94 805.502,255.73 810.342,249.35 C815.182,242.86 815.732,242.31 817.932,242.31 C820.132,242.31 820.572,242.64 827.832,250.45 C842.572,266.29 855.002,278.39 865.122,286.86 C869.412,290.6 872.272,292.91 872.822,293.46 C873.042,293.68 873.922,294.45 874.912,295.33 L879.092,286.31 C870.622,281.8 847.742,260.9 832.342,243.74 C824.422,234.94 822.552,233.62 818.152,233.62 C813.202,233.62 810.342,235.71 804.182,244.07 C791.642,260.13 784.492,268.16 781.742,269.37 L787.352,277.62 M846.642,229.22 C849.832,232.74 855.222,240.88 857.862,246.71 L863.472,243.41 C860.172,236.92 857.092,232.3 852.142,226.36 L846.642,229.22 M859.182,223.39 C863.362,228.34 867.982,235.49 870.402,240.66 L875.902,237.47 C872.272,230.54 869.522,226.47 864.462,220.42 L859.182,223.39 M890.856,266.4 C894.156,266.07 896.466,265.96 904.496,265.96 L968.296,265.96 C975.666,265.96 978.196,266.07 981.716,266.4 L981.716,257.49 C978.306,257.93 976.546,258.04 968.406,258.04 L904.496,258.04 C897.016,258.04 894.046,257.93 890.856,257.38 L890.856,266.4 M1033.31,307.54 C1032.87,304.46 1032.76,302.04 1032.76,295.88 L1032.76,262.77 C1032.76,260.02 1032.65,258.48 1032.32,256.28 L1032.54,256.17 C1033.53,256.94 1034.3,257.38 1035.95,258.04 C1051.46,264.42 1066.64,272.56 1076.98,279.82 L1081.71,271.68 C1062.46,260.57 1049.7,254.52 1032.76,248.47 L1032.76,227.9 C1032.76,221.63 1032.87,219.32 1033.31,216.46 L1023.85,216.46 C1024.29,219.21 1024.51,221.85 1024.51,227.68 L1024.51,295.99 C1024.51,301.93 1024.29,304.57 1023.85,307.54 L1033.31,307.54 M1110.86,266.4 C1114.16,266.07 1116.47,265.96 1124.5,265.96 L1188.3,265.96 C1195.67,265.96 1198.2,266.07 1201.72,266.4 L1201.72,257.49 C1198.31,257.93 1196.55,258.04 1188.41,258.04 L1124.5,258.04 C1117.02,258.04 1114.05,257.93 1110.86,257.38 L1110.86,266.4 M1222.95,277.62 C1224.27,275.86 1225.26,274.65 1226.03,273.77 C1231.2,267.94 1241.1,255.73 1245.94,249.35 C1250.78,242.86 1251.33,242.31 1253.53,242.31 C1255.73,242.31 1256.17,242.64 1263.43,250.45 C1278.17,266.29 1290.6,278.39 1300.72,286.86 C1305.01,290.6 1307.87,292.91 1308.42,293.46 C1308.64,293.68 1309.52,294.45 1310.51,295.33 L1314.69,286.31 C1306.22,281.8 1283.34,260.9 1267.94,243.74 C1260.02,234.94 1258.15,233.62 1253.75,233.62 C1248.8,233.62 1245.94,235.71 1239.78,244.07 C1227.24,260.13 1220.09,268.16 1217.34,269.37 L1222.95,277.62 M1282.24,229.22 C1285.43,232.74 1290.82,240.88 1293.46,246.71 L1299.07,243.41 C1295.77,236.92 1292.69,232.3 1287.74,226.36 L1282.24,229.22 M1294.78,223.39 C1298.96,228.34 1303.58,235.49 1306,240.66 L1311.5,237.47 C1307.87,230.54 1305.12,226.47 1300.06,220.42 L1294.78,223.39 M1338.45,232.3 C1348.02,238.13 1356.71,245.28 1364.63,253.86 L1370.35,247.04 C1362.43,239.23 1355.61,233.84 1343.84,226.36 L1338.45,232.3 M1339.22,303.8 C1341.97,302.92 1342.85,302.7 1345.82,302.04 C1364.19,297.86 1375.52,293.35 1386.85,285.65 C1401.37,275.64 1411.6,262.77 1420.4,243.63 C1417.32,241.54 1416.22,240.55 1413.69,237.14 C1404.78,260.46 1390.04,276.63 1368.81,286.09 C1358.58,290.82 1345.38,294.23 1336.8,294.56 L1339.22,303.8 "/>
<path class="Text" d="M1492.23,231.2 C1497.73,231.42 1500.92,232.19 1504.99,233.95 C1516.1,238.9 1522.48,249.02 1522.48,261.56 C1522.48,275.09 1515.11,286.86 1503.01,292.36 C1497.84,294.78 1492.67,296.21 1484.64,297.53 C1486.73,300.17 1487.39,301.27 1488.49,304.9 C1496.08,303.25 1500.26,301.93 1505.21,299.84 C1521.16,293.02 1530.4,278.94 1530.4,261.89 C1530.4,251.33 1526.66,241.76 1519.73,235.05 C1512.58,228.01 1501.8,224.16 1489.48,224.16 C1474.74,224.16 1462.75,229.11 1453.95,238.79 C1446.58,247.04 1442.4,257.93 1442.4,269.15 C1442.4,284.55 1450.21,295.99 1460.66,295.99 C1468.58,295.99 1475.07,289.39 1481.45,274.87 C1486.4,263.32 1490.58,246.49 1492.23,231.2 M1484.31,231.31 C1482.88,245.39 1478.81,261.67 1474.3,272.01 C1469.57,282.79 1465.17,287.96 1460.55,287.96 C1454.61,287.96 1449.99,279.82 1449.99,269.26 C1449.99,255.62 1456.81,243.19 1467.92,236.48 C1472.98,233.4 1477.71,231.86 1484.31,231.31"/>
<path class="Text" d="M1583.31,307.54 C1582.87,304.46 1582.76,302.04 1582.76,295.88 L1582.76,262.77 C1582.76,260.02 1582.65,258.48 1582.32,256.28 L1582.54,256.17 C1583.53,256.94 1584.3,257.38 1585.95,258.04 C1601.46,264.42 1616.64,272.56 1626.98,279.82 L1631.71,271.68 C1612.46,260.57 1599.7,254.52 1582.76,248.47 L1582.76,227.9 C1582.76,221.63 1582.87,219.32 1583.31,216.46 L1573.85,216.46 C1574.29,219.21 1574.51,221.85 1574.51,227.68 L1574.51,295.99 C1574.51,301.93 1574.29,304.57 1573.85,307.54 L1583.31,307.54 M1676.47,220.31 C1676.8,222.84 1676.91,224.16 1676.91,228.12 C1676.91,251.33 1675.37,265.74 1671.96,275.31 C1668.33,285.54 1662.39,293.46 1653.37,300.61 C1656.67,302.7 1657.77,303.69 1659.97,306.55 C1669.98,296.98 1675.26,289.61 1679,279.38 C1683.18,268.27 1684.06,260.13 1684.94,230.32 C1685.16,223.61 1685.16,223.61 1685.6,220.86 L1676.47,220.31 M1703.86,219.54 C1704.3,222.18 1704.3,222.18 1704.3,229.33 L1703.64,293.68 C1703.64,298.41 1703.53,299.29 1702.87,301.16 L1707.27,306.22 C1708.26,305.67 1708.48,305.56 1709.8,305.01 C1711.34,304.46 1711.34,304.46 1713.32,303.69 C1719.81,301.16 1724.21,298.96 1729.05,295.66 C1738.51,289.17 1745.77,280.04 1751.16,267.39 C1748.19,264.97 1747.31,263.98 1745,261.01 C1742.36,269.48 1738.07,276.74 1732.02,283.01 C1726.3,288.84 1720.69,292.36 1711.56,295.77 L1712.22,229.33 C1712.22,224.27 1712.33,222.29 1712.88,219.65 L1703.86,219.54 M1839.27,296.21 L1839.27,302.81 L1848.07,302.81 C1847.74,300.83 1847.52,296.87 1847.52,292.8 L1847.52,236.48 C1847.52,232.52 1847.52,230.65 1847.74,227.9 C1844.99,228.01 1843.45,228.12 1842.02,228.12 L1789.22,228.12 C1782.07,228.12 1780.42,228.01 1776.57,227.35 L1776.57,236.15 C1780.31,235.71 1782.62,235.6 1789.22,235.6 L1839.27,235.6 L1839.27,288.73 L1786.91,288.73 C1780.09,288.73 1778.55,288.62 1774.92,287.96 L1774.92,296.65 C1777.78,296.32 1777.78,296.32 1786.69,296.21 L1839.27,296.21 "/>
<path class="Text" d="M1945.53,253.31 L1945.53,300.94 C1945.53,303.14 1944.65,303.58 1940.91,303.58 C1936.4,303.58 1931.67,303.14 1925.4,302.26 C1926.39,304.79 1926.83,306.77 1927.16,309.85 C1931.89,310.18 1937.06,310.4 1940.58,310.4 C1950.26,310.4 1952.9,308.53 1952.9,301.49 L1952.9,253.31 L1959.17,253.31 C1964.23,253.31 1968.3,253.53 1971.16,253.97 L1971.16,246.27 C1968.63,246.71 1964.67,246.93 1959.06,246.93 L1920.45,246.93 C1915.17,246.93 1910.88,246.71 1908.24,246.27 L1908.24,253.97 C1910.88,253.53 1915.28,253.31 1920.45,253.31 L1945.53,253.31 M1897.68,212.61 C1895.92,216.68 1893.17,220.53 1887.67,226.03 C1883.27,230.54 1879.31,233.73 1873.15,237.69 C1875.24,239.34 1876.45,240.66 1878.1,243.08 C1888,235.93 1895.92,228.23 1902.52,219.21 C1903.51,217.89 1903.73,217.56 1904.5,216.79 L1897.68,212.61 M1912.75,226.36 C1916.05,225.92 1919.79,225.7 1924.19,225.7 L1954.99,225.7 C1959.39,225.7 1963.02,225.92 1966.32,226.36 L1966.32,218.66 C1963.24,219.1 1959.94,219.32 1954.99,219.32 L1924.19,219.32 C1919.24,219.32 1915.72,219.1 1912.75,218.66 L1912.75,226.36 M1889.32,298.74 C1889.32,304.57 1889.1,309.08 1888.55,312.16 L1897.24,312.16 C1896.69,309.08 1896.47,304.68 1896.47,298.74 L1896.47,254.3 C1899.55,250.67 1901.53,248.14 1903.84,244.4 C1905.49,241.87 1905.82,241.32 1907.14,239.67 L1900.32,235.82 C1899.22,238.79 1897.57,241.87 1895.04,245.28 C1888.44,254.19 1881.4,261.12 1872.82,266.95 C1874.58,268.71 1875.79,270.47 1877.11,273.22 C1882.5,269.04 1885.69,265.96 1889.65,260.9 C1889.43,266.18 1889.32,269.37 1889.32,274.1 L1889.32,298.74 M2053.44,271.57 L2064.66,271.57 C2069.83,271.57 2072.47,271.68 2075.44,272.01 L2075.44,265.41 C2073.13,265.74 2070.16,265.85 2064.66,265.85 L2053.44,265.85 L2053.44,253.53 L2064.66,253.53 C2069.83,253.53 2072.47,253.64 2075.44,253.97 L2075.44,247.37 C2073.13,247.7 2070.16,247.81 2064.66,247.81 L2053.44,247.81 L2053.44,235.71 L2068.95,235.71 C2073.13,235.71 2075.88,235.82 2078.74,236.15 L2078.74,229.22 C2076.1,229.66 2073.13,229.77 2068.4,229.77 L2053.55,229.77 C2055.2,227.13 2056.74,224.16 2058.17,221.3 C2060.26,217.01 2060.7,216.24 2061.36,215.25 L2054.21,213.38 C2053,218.11 2050.36,223.83 2046.84,229.77 L2028.03,229.77 C2029.79,226.69 2031.88,222.51 2032.87,219.98 C2034.63,215.69 2034.63,215.69 2035.29,214.48 L2028.25,212.83 C2027.59,217.01 2024.73,223.94 2020.77,230.43 C2016.48,237.69 2012.85,241.98 2005.26,249.02 C2007.9,250.78 2008.12,251.11 2009.99,253.75 C2013.73,250.12 2016.7,246.71 2019.89,241.87 C2019.67,245.06 2019.56,248.36 2019.45,251.77 L2019.45,280.48 C2019.45,285.65 2019.34,288.51 2018.9,291.81 C2022.2,291.37 2024.18,291.26 2027.81,291.26 L2069.5,291.26 C2073.68,291.26 2077.09,291.48 2080.17,291.81 L2080.17,284.77 C2077.64,285.21 2075,285.32 2069.5,285.32 L2053.44,285.32 L2053.44,271.57 M2047.06,271.57 L2047.06,285.32 L2026.16,285.32 L2026.16,271.57 L2047.06,271.57 M2047.06,265.85 L2026.16,265.85 L2026.16,253.53 L2047.06,253.53 L2047.06,265.85 M2047.06,247.81 L2026.16,247.81 L2026.16,235.71 L2047.06,235.71 L2047.06,247.81 M1985.57,219.76 C1993.16,226.8 1996.46,230.76 2002.73,239.67 L2008.34,234.72 C2002.84,227.46 1997.89,222.07 1990.74,215.25 L1985.57,219.76 M1983.04,263.21 C1985.57,262.77 1987.44,262.66 1991.07,262.66 L1998.33,262.66 L1998.33,289.17 C1991.84,295.44 1985.46,300.28 1980.62,302.48 L1984.25,309.74 C1986.45,307.76 1987.22,307.1 1988.21,306.44 C1994.04,301.93 1996.46,299.84 2001.52,294.67 C2004.82,299.73 2008.45,303.03 2012.96,305.12 C2019.45,308.2 2025.94,308.97 2045.52,308.97 C2057.18,308.97 2070.93,308.75 2081.38,308.31 C2081.93,305.01 2082.37,303.69 2083.91,300.17 C2073.57,301.71 2060.15,302.37 2040.13,302.37 C2027.04,302.37 2020.44,301.49 2014.94,299.18 C2010.1,297.09 2007.9,294.67 2005.15,288.95 L2005.15,267.61 C2005.15,262.11 2005.26,259.36 2005.7,255.95 C2003.06,256.28 2000.42,256.5 1997.23,256.5 L1991.51,256.5 C1987.55,256.5 1985.57,256.39 1983.04,255.95 L1983.04,263.21 M2131.43,234.17 L2131.43,224.49 C2131.43,220.2 2131.65,216.9 2132.2,213.38 L2123.84,213.38 C2124.39,217.23 2124.61,220.53 2124.61,224.38 L2124.61,234.17 L2107.78,234.17 C2103.82,234.17 2100.74,233.95 2097.44,233.62 C2097.77,236.59 2097.88,239.12 2097.88,242.64 L2097.88,301.71 C2097.88,305.23 2097.66,308.42 2097.22,311.83 L2104.92,311.83 L2104.92,306 L2178.84,306 L2178.84,311.83 L2186.54,311.83 C2186.1,308.64 2185.88,305.56 2185.88,301.71 L2185.88,242.64 C2185.88,238.68 2185.99,236.59 2186.32,233.62 C2182.91,234.06 2179.94,234.17 2175.98,234.17 L2157.72,234.17 L2157.72,224.49 C2157.72,220.31 2157.94,216.9 2158.49,213.38 L2150.13,213.38 C2150.68,217.01 2150.9,220.31 2150.9,224.38 L2150.9,234.17 L2131.43,234.17 M2131.43,299.62 L2131.43,271.79 L2150.9,271.79 L2150.9,299.62 L2131.43,299.62 M2131.43,265.52 L2131.43,240.66 L2150.9,240.66 L2150.9,265.52 L2131.43,265.52 M2124.61,240.66 L2124.61,265.52 L2104.92,265.52 L2104.92,240.66 L2124.61,240.66 M2124.61,271.79 L2124.61,299.62 L2104.92,299.62 L2104.92,271.79 L2124.61,271.79 M2157.72,299.62 L2157.72,271.79 L2178.84,271.79 L2178.84,299.62 L2157.72,299.62 M2157.72,265.52 L2157.72,240.66 L2178.84,240.66 L2178.84,265.52 L2157.72,265.52 "/>
<path class="MeasureNumber" d="M228.958,2441.08 L227.798,2441.08 C225.598,2442.72 221.358,2444.12 218.478,2444.12 L217.998,2445.88 L220.758,2445.88 C223.198,2445.88 223.478,2445.96 223.478,2446.68 C223.478,2447.04 223.478,2447.04 223.078,2448.48 L218.798,2464.48 C218.278,2466.48 218.238,2466.6 217.878,2466.96 C217.478,2467.36 216.638,2467.48 214.518,2467.52 L212.798,2467.52 L212.598,2469.4 L227.398,2469.4 L227.638,2467.52 L225.478,2467.52 C222.878,2467.52 222.318,2467.32 222.318,2466.44 C222.318,2466.16 222.478,2465.24 222.678,2464.48 L228.958,2441.08 M255.273,2441.24 C253.153,2441.48 250.553,2441.64 248.313,2441.64 C247.193,2441.64 245.913,2441.6 244.473,2441.52 C243.153,2441.44 241.833,2441.36 240.473,2441.28 L239.473,2441.24 L235.593,2449.68 L237.073,2450.16 L238.033,2448.56 C239.913,2445.44 240.793,2445 244.873,2445.04 L251.633,2445.04 L247.273,2451.28 C242.153,2458.48 242.153,2458.48 240.193,2461.68 C238.433,2464.52 237.713,2466.28 237.713,2467.72 C237.713,2469.12 238.593,2470 239.993,2470 C241.473,2470 242.233,2469.28 242.753,2467.4 C244.753,2459.88 245.953,2457.28 251.513,2448.28 L255.273,2442.44 L255.273,2441.24 "/>
<path class="MeasureNumber" d="M228.053,1513.32 C227.053,1517.96 224.373,1525.92 218.653,1525.92 C217.493,1525.92 216.733,1525.44 216.733,1524.72 C216.733,1524.44 216.813,1524.32 217.133,1523.84 C217.533,1523.32 217.733,1522.84 217.733,1522.28 C217.733,1520.96 216.693,1519.96 215.333,1519.96 C213.733,1519.96 212.613,1521.16 212.613,1522.92 C212.613,1525.64 215.173,1527.6 218.733,1527.6 C227.493,1527.6 233.093,1516.4 233.093,1508.8 C233.093,1502.56 230.093,1498.84 225.133,1498.84 C219.173,1498.84 214.733,1504.32 214.733,1510.04 C214.733,1513.84 217.653,1516.72 221.533,1516.72 C224.173,1516.72 226.213,1515.64 228.053,1513.32 M225.093,1500.52 C227.653,1500.52 229.293,1502.56 229.293,1505.76 C229.293,1510.72 226.573,1514.36 222.893,1514.36 C220.373,1514.36 218.973,1512.64 218.973,1509.64 C218.973,1506.04 220.693,1500.52 225.093,1500.52"/>
<path class="MeasureNumber" d="M216.922,1040.48 C215.682,1041.24 215.322,1041.72 215.322,1042.52 C215.322,1043.28 215.962,1043.84 216.762,1043.84 C217.802,1043.84 218.402,1043.08 218.522,1041.6 C219.762,1040.6 221.082,1040.16 222.682,1040.16 C225.642,1040.16 227.282,1042 227.282,1045.32 C227.282,1050.52 223.922,1054.76 219.802,1054.76 C217.442,1054.76 215.522,1053.64 215.522,1052.32 C215.522,1052.08 215.562,1052 215.762,1051.88 C217.042,1051.28 218.082,1050.84 218.082,1049.16 C218.082,1047.88 217.082,1046.92 215.682,1046.92 C213.922,1046.92 212.602,1048.4 212.602,1050.32 C212.602,1053.84 215.642,1056.4 219.922,1056.4 C226.402,1056.4 231.642,1051.24 231.642,1044.84 C231.642,1040.8 228.562,1037.96 224.202,1037.96 C222.482,1037.96 221.082,1038.32 219.162,1039.28 L221.402,1031.72 C223.522,1032.16 225.202,1032.36 226.642,1032.36 C229.282,1032.36 231.642,1031.52 232.962,1030.12 C233.642,1029.32 234.042,1028.64 234.042,1028.12 C234.042,1027.88 233.922,1027.64 233.762,1027.64 C233.642,1027.64 233.562,1027.68 233.322,1027.8 C232.002,1028.44 230.322,1028.8 228.762,1028.8 C226.362,1028.8 223.522,1028.4 220.562,1027.64 L216.922,1040.48 "/>
<path class="MeasureNumber" d="M228.958,1969.88 L227.798,1969.88 C225.598,1971.52 221.358,1972.92 218.478,1972.92 L217.998,1974.68 L220.758,1974.68 C223.198,1974.68 223.478,1974.76 223.478,1975.48 C223.478,1975.84 223.478,1975.84 223.078,1977.28 L218.798,1993.28 C218.278,1995.28 218.238,1995.4 217.878,1995.76 C217.478,1996.16 216.638,1996.28 214.518,1996.32 L212.798,1996.32 L212.598,1998.2 L227.398,1998.2 L227.638,1996.32 L225.478,1996.32 C222.878,1996.32 222.318,1996.12 222.318,1995.24 C222.318,1994.96 222.478,1994.04 222.678,1993.28 L228.958,1969.88 M246.433,1983.64 C248.313,1983.04 249.073,1982.72 250.033,1982.08 C251.913,1980.84 253.073,1978.64 253.073,1976.4 C253.073,1972.6 250.033,1970.04 245.553,1970.04 C241.193,1970.04 237.513,1972.76 237.513,1976.04 C237.513,1977.68 238.513,1978.8 240.033,1978.8 C241.353,1978.8 242.313,1977.84 242.313,1976.52 C242.313,1975.84 242.113,1975.36 241.473,1974.72 C241.073,1974.36 240.913,1974.08 240.913,1973.8 C240.913,1972.84 242.913,1971.84 244.793,1971.84 C247.473,1971.84 249.073,1973.32 249.073,1975.8 C249.073,1979.36 246.553,1982.72 243.873,1982.72 C243.753,1982.72 243.393,1982.68 242.953,1982.64 C241.793,1982.56 241.793,1982.56 241.553,1982.56 C240.673,1982.56 240.193,1982.96 240.193,1983.68 C240.193,1984.32 240.633,1984.72 241.353,1984.72 C241.553,1984.72 241.833,1984.68 242.153,1984.64 C242.713,1984.52 243.313,1984.48 243.673,1984.48 C245.553,1984.48 246.833,1986.16 246.833,1988.64 C246.833,1992.96 244.713,1997.12 239.873,1997.12 C237.633,1997.12 235.713,1996 235.713,1994.72 C235.713,1994.28 235.873,1994.12 236.513,1993.84 C237.673,1993.32 238.153,1992.6 238.153,1991.52 C238.153,1990.12 237.033,1989.04 235.593,1989.04 C233.873,1989.04 232.753,1990.4 232.753,1992.48 C232.753,1996.36 235.713,1998.8 240.513,1998.8 C246.553,1998.8 251.153,1994.76 251.153,1989.4 C251.153,1986.28 249.233,1984.52 246.433,1983.64"/>
<polyline class="BarLine" fill="none" stroke="#000000" stroke-width="4.46" stroke-linejoin="bevel" points="1595.58,2046.43 1595.58,2148.36"/>
<polyline class="BarLine" fill="none" stroke="#000000" stroke-width="4.46" stroke-linejoin="bevel" points="2762.37,1104.03 2762.37,1205.96"/>
<polyline class="BarLine" fill="none" stroke="#000000" stroke-width="4.46" stroke-linejoin="bevel" points="2184.55,1575.23 2184.55,1677.16"/>
<polyline class="BarLine" fill="none" stroke="#000000" stroke-width="4.46" stroke-linejoin="bevel" points="1629.76,1104.03 1629.76,1205.96"/>
<polyline class="BarLine" fill="none" stroke="#000000" stroke-width="4.46" stroke-linejoin="bevel" points="2380.55,2517.63 2380.55,2619.56"/>
<polyline class="BarLine" fill="none" stroke="#000000" stroke-width="4.46" stroke-linejoin="bevel" points="2265.46,632.834 2265.46,734.762"/>
<polyline class="BarLine" fill="none" stroke="#000000" stroke-width="4.46" stroke-linejoin="bevel" points="1062.33,2517.63 1062.33,2619.56"/>
<polyline class="BarLine" fill="none" stroke="#000000" stroke-width="4.46" stroke-linejoin="bevel" points="1028.92,1575.23 1028.92,1677.16"/>
<polyline class="BarLine" fill="none" stroke="#000000" stroke-width="4.46" stroke-linejoin="bevel" points="2762.37,1575.23 2762.37,1677.16"/>
<polyline class="BarLine" fill="none" stroke="#000000" stroke-width="4.46" stroke-linejoin="bevel" points="2257.07,2046.43 2257.07,2148.36"/>
<polyline class="BarLine" fill="none" stroke="#000000" stroke-width="4.46" stroke-linejoin="bevel" points="1023.34,2046.43 1023.34,2148.36"/>
<polyline class="BarLine" fill="none" stroke="#000000" stroke-width="4.46" stroke-linejoin="bevel" points="1615.14,632.834 1615.14,734.762"/>
<polyline class="BarLine" fill="none" stroke="#000000" stroke-width="4.46" stroke-linejoin="bevel" points="2311.2,1104.03 2311.2,1205.96"/>
<polyline class="BarLine" fill="none" stroke="#000000" stroke-width="4.46" stroke-linejoin="bevel" points="2740.42,2517.63 2740.42,2619.56"/>
<polyline class="BarLine" fill="none" stroke="#000000" stroke-width="13.64" stroke-linejoin="bevel" points="2757.78,2517.63 2757.78,2619.56"/>
<polyline class="BarLine" fill="none" stroke="#000000" stroke-width="4.46" stroke-linejoin="bevel" points="1040.43,1104.03 1040.43,1205.96"/>
<polyline class="BarLine" fill="none" stroke="#000000" stroke-width="4.46" stroke-linejoin="bevel" points="1052.49,632.834 1052.49,734.762"/>
<polyline class="BarLine" fill="none" stroke="#000000" stroke-width="4.46" stroke-linejoin="bevel" points="2762.37,2046.43 2762.37,2148.36"/>
<polyline class="BarLine" fill="none" stroke="#000000" stroke-width="4.46" stroke-linejoin="bevel" points="2762.37,632.834 2762.37,734.762"/>
<polyline class="BarLine" fill="none" stroke="#000000" stroke-width="4.46" stroke-linejoin="bevel" points="1673.56,2517.63 1673.56,2619.56"/>
<polyline class="BarLine" fill="none" stroke="#000000" stroke-width="4.46" stroke-linejoin="bevel" points="1606.73,1575.23 1606.73,1677.16"/>
<path class="Accidental" transform="matrix(0.992,0,0,0.992,2147.65,1204.6)" d="M16.6,-18.3 C16.4,-18.5 16.1,-18.6 15.7,-18.6 L15.5,-18.5 C15.5,-18.5 15.4,-18.5 15.4,-18.5 L2.8,-15 L2.8,-32.5 L0,-32.5 L0,17 C0,18.1 0.9,18.3 1.8,18.3 L14.4,14.8 L14.4,32.3 L17.1,32.3 C17.1,15.7 17.1,-0.1 17.1,-17.2 C17.1,-17.6 16.9,-18.1 16.6,-18.3 M2.8,9.7 L2.8,-6.7 L14.4,-10 L14.4,6.5 L2.8,9.7 "/>
<polyline class="LedgerLine" fill="none" stroke="#000000" stroke-width="3.97" stroke-linejoin="bevel" points="615.046,1229.4 664.63,1229.4"/>
<polyline class="LedgerLine" fill="none" stroke="#000000" stroke-width="3.97" stroke-linejoin="bevel" points="764.153,2643 813.737,2643"/>
<polyline class="LedgerLine" fill="none" stroke="#000000" stroke-width="3.97" stroke-linejoin="bevel" points="1316.9,2171.8 1366.48,2171.8"/>
<polyline class="LedgerLine" fill="none" stroke="#000000" stroke-width="3.97" stroke-linejoin="bevel" points="620.521,2643 670.105,2643"/>
<polyline class="LedgerLine" fill="none" stroke="#000000" stroke-width="3.97" stroke-linejoin="bevel" points="907.785,2643 957.369,2643"/>
<polyline class="LedgerLine" fill="none" stroke="#000000" stroke-width="3.97" stroke-linejoin="bevel" points="1342.53,1229.4 1392.12,1229.4"/>
<polyline class="LedgerLine" fill="none" stroke="#000000" stroke-width="3.97" stroke-linejoin="bevel" points="1183.01,2171.8 1232.6,2171.8"/>
<polyline class="LedgerLine" fill="none" stroke="#000000" stroke-width="3.97" stroke-linejoin="bevel" points="1204.38,1229.4 1253.96,1229.4"/>
<polyline class="LedgerLine" fill="none" stroke="#000000" stroke-width="3.97" stroke-linejoin="bevel" points="2291.25,758.198 2340.83,758.198"/>
<polyline class="LedgerLine" fill="none" stroke="#000000" stroke-width="3.97" stroke-linejoin="bevel" points="878.541,2171.8 928.125,2171.8"/>
<polyline class="LedgerLine" fill="none" stroke="#000000" stroke-width="3.97" stroke-linejoin="bevel" points="1231.75,2643 1281.34,2643"/>
<polyline class="LedgerLine" fill="none" stroke="#000000" stroke-width="3.97" stroke-linejoin="bevel" points="1341.26,758.198 1390.84,758.198"/>
<polyline class="LedgerLine" fill="none" stroke="#000000" stroke-width="3.97" stroke-linejoin="bevel" points="744.657,2171.8 794.241,2171.8"/>
<polyline class="LedgerLine" fill="none" stroke="#000000" stroke-width="3.97" stroke-linejoin="bevel" points="891.359,1229.4 940.944,1229.4"/>
<polyline class="LedgerLine" fill="none" stroke="#000000" stroke-width="3.97" stroke-linejoin="bevel" points="1375.38,2643 1424.97,2643"/>
<polyline class="LedgerLine" fill="none" stroke="#000000" stroke-width="3.97" stroke-linejoin="bevel" points="1209.77,758.198 1259.35,758.198"/>
<polyline class="LedgerLine" fill="none" stroke="#000000" stroke-width="3.97" stroke-linejoin="bevel" points="910.087,758.198 959.672,758.198"/>
<polyline class="LedgerLine" fill="none" stroke="#000000" stroke-width="3.97" stroke-linejoin="bevel" points="610.773,2171.8 660.357,2171.8"/>
<polyline class="LedgerLine" fill="none" stroke="#000000" stroke-width="3.97" stroke-linejoin="bevel" points="778.599,758.198 828.184,758.198"/>
<polyline class="LedgerLine" fill="none" stroke="#000000" stroke-width="3.97" stroke-linejoin="bevel" points="753.203,1229.4 802.787,1229.4"/>
<polyline class="LedgerLine" fill="none" stroke="#000000" stroke-width="3.97" stroke-linejoin="bevel" points="647.111,758.198 696.696,758.198"/>
<polyline class="LedgerLine" fill="none" stroke="#000000" stroke-width="3.97" stroke-linejoin="bevel" points="2282.86,2171.8 2332.45,2171.8"/>
<polyline class="Stem" fill="none" stroke="#000000" stroke-width="2.73" stroke-linejoin="bevel" points="1807.34,1647.03 1807.34,1564.14"/>
<polyline class="Stem" fill="none" stroke="#000000" stroke-width="2.73" stroke-linejoin="bevel" points="1942.62,1622.23 1942.62,1558.06"/>
<polyline class="Stem" fill="none" stroke="#000000" stroke-width="2.73" stroke-linejoin="bevel" points="2322.4,2167.83 2322.4,2097.34"/>
<polyline class="Stem" fill="none" stroke="#000000" stroke-width="2.73" stroke-linejoin="bevel" points="516.429,1200.63 516.429,1130.26"/>
<polyline class="Stem" fill="none" stroke="#000000" stroke-width="2.73" stroke-linejoin="bevel" points="792.743,1225.43 792.743,1155"/>
<polyline class="Stem" fill="none" stroke="#000000" stroke-width="2.73" stroke-linejoin="bevel" points="2456.29,2155.43 2456.29,2091.26"/>
<polyline class="Stem" fill="none" stroke="#000000" stroke-width="2.73" stroke-linejoin="bevel" points="2590.17,2143.03 2590.17,2060.2"/>
<polyline class="Stem" fill="none" stroke="#000000" stroke-width="2.73" stroke-linejoin="bevel" points="2151.82,2155.43 2151.82,2078.74"/>
<polyline class="Stem" fill="none" stroke="#000000" stroke-width="2.73" stroke-linejoin="bevel" points="930.9,1225.43 930.9,1155"/>
<polyline class="Stem" fill="none" stroke="#000000" stroke-width="2.73" stroke-linejoin="bevel" points="2593.77,729.43 2593.77,646.598"/>
<polyline class="Stem" fill="none" stroke="#000000" stroke-width="2.73" stroke-linejoin="bevel" points="2017.93,2143.03 2017.93,2072.66"/>
<polyline class="Stem" fill="none" stroke="#000000" stroke-width="2.73" stroke-linejoin="bevel" points="2462.28,741.83 2462.28,677.661"/>
<polyline class="Stem" fill="none" stroke="#000000" stroke-width="2.73" stroke-linejoin="bevel" points="516.429,2614.23 516.429,2543.86"/>
<polyline class="Stem" fill="none" stroke="#000000" stroke-width="2.73" stroke-linejoin="bevel" points="1105.76,1200.63 1105.76,1130.26"/>
<polyline class="Stem" fill="none" stroke="#000000" stroke-width="2.73" stroke-linejoin="bevel" points="1928.68,2130.63 1928.68,2035.34"/>
<polyline class="Stem" fill="none" stroke="#000000" stroke-width="2.73" stroke-linejoin="bevel" points="1839.42,2118.23 1839.42,2031.24"/>
<polyline class="Stem" fill="none" stroke="#000000" stroke-width="2.73" stroke-linejoin="bevel" points="1243.92,1225.43 1243.92,1136.34"/>
<polyline class="Stem" fill="none" stroke="#000000" stroke-width="2.73" stroke-linejoin="bevel" points="2330.79,754.23 2330.79,683.735"/>
<polyline class="Stem" fill="none" stroke="#000000" stroke-width="2.73" stroke-linejoin="bevel" points="1750.16,2105.83 1750.16,2027.15"/>
<polyline class="Stem" fill="none" stroke="#000000" stroke-width="2.73" stroke-linejoin="bevel" points="1382.07,1225.43 1382.07,1092.82"/>
<polyline class="Stem" fill="none" stroke="#000000" stroke-width="2.73" stroke-linejoin="bevel" points="660.061,2639.03 660.061,2549.94"/>
<polyline class="Stem" fill="none" stroke="#000000" stroke-width="2.73" stroke-linejoin="bevel" points="1660.91,2093.43 1660.91,2023.06"/>
<polyline class="Stem" fill="none" stroke="#000000" stroke-width="2.73" stroke-linejoin="bevel" points="2162.6,741.83 2162.6,665.135"/>
<polyline class="Stem" fill="none" stroke="#000000" stroke-width="2.73" stroke-linejoin="bevel" points="1520.23,1138.63 1520.23,1074.58"/>
<polyline class="Stem" fill="none" stroke="#000000" stroke-width="2.73" stroke-linejoin="bevel" points="803.693,2639.03 803.693,2568.6"/>
<polyline class="Stem" fill="none" stroke="#000000" stroke-width="2.73" stroke-linejoin="bevel" points="2031.11,729.43 2031.11,659.061"/>
<polyline class="Stem" fill="none" stroke="#000000" stroke-width="2.73" stroke-linejoin="bevel" points="947.325,2639.03 947.325,2568.6"/>
<polyline class="Stem" fill="none" stroke="#000000" stroke-width="2.73" stroke-linejoin="bevel" points="1695.09,1151.03 1695.09,1080.66"/>
<polyline class="Stem" fill="none" stroke="#000000" stroke-width="2.73" stroke-linejoin="bevel" points="1490.32,2081.03 1490.32,2016.98"/>
<polyline class="Stem" fill="none" stroke="#000000" stroke-width="2.73" stroke-linejoin="bevel" points="1943.45,717.03 1943.45,621.735"/>
<polyline class="Stem" fill="none" stroke="#000000" stroke-width="2.73" stroke-linejoin="bevel" points="1787.2,1163.43 1787.2,1084.75"/>
<polyline class="Stem" fill="none" stroke="#000000" stroke-width="2.73" stroke-linejoin="bevel" points="1356.44,2167.83 1356.44,2035.21"/>
<polyline class="Stem" fill="none" stroke="#000000" stroke-width="2.73" stroke-linejoin="bevel" points="1879.3,1175.83 1879.3,1088.84"/>
<polyline class="Stem" fill="none" stroke="#000000" stroke-width="2.73" stroke-linejoin="bevel" points="1855.79,704.63 1855.79,617.644"/>
<polyline class="Stem" fill="none" stroke="#000000" stroke-width="2.73" stroke-linejoin="bevel" points="1971.41,1188.23 1971.41,1092.94"/>
<polyline class="Stem" fill="none" stroke="#000000" stroke-width="2.73" stroke-linejoin="bevel" points="1222.55,2167.83 1222.55,2078.74"/>
<polyline class="Stem" fill="none" stroke="#000000" stroke-width="2.73" stroke-linejoin="bevel" points="2063.51,1200.63 2063.51,1130.2"/>
<polyline class="Stem" fill="none" stroke="#000000" stroke-width="2.73" stroke-linejoin="bevel" points="1088.67,2143.03 1088.67,2072.66"/>
<polyline class="Stem" fill="none" stroke="#000000" stroke-width="2.73" stroke-linejoin="bevel" points="1768.13,692.23 1768.13,613.553"/>
<polyline class="Stem" fill="none" stroke="#000000" stroke-width="2.73" stroke-linejoin="bevel" points="2201.67,1200.63 2201.67,1130.2"/>
<polyline class="Stem" fill="none" stroke="#000000" stroke-width="2.73" stroke-linejoin="bevel" points="1127.66,2614.23 1127.66,2543.86"/>
<polyline class="Stem" fill="none" stroke="#000000" stroke-width="2.73" stroke-linejoin="bevel" points="1680.48,679.83 1680.48,609.462"/>
<polyline class="Stem" fill="none" stroke="#000000" stroke-width="2.73" stroke-linejoin="bevel" points="1271.29,2639.03 1271.29,2549.94"/>
<polyline class="Stem" fill="none" stroke="#000000" stroke-width="2.73" stroke-linejoin="bevel" points="1512.28,667.43 1512.28,603.387"/>
<polyline class="Stem" fill="none" stroke="#000000" stroke-width="2.73" stroke-linejoin="bevel" points="1414.92,2639.03 1414.92,2506.43"/>
<polyline class="Stem" fill="none" stroke="#000000" stroke-width="2.73" stroke-linejoin="bevel" points="2376.53,1188.23 2376.53,1105.4"/>
<polyline class="Stem" fill="none" stroke="#000000" stroke-width="2.73" stroke-linejoin="bevel" points="918.081,2167.83 918.081,2097.4"/>
<polyline class="Stem" fill="none" stroke="#000000" stroke-width="2.73" stroke-linejoin="bevel" points="1380.8,754.23 1380.8,621.609"/>
<polyline class="Stem" fill="none" stroke="#000000" stroke-width="2.73" stroke-linejoin="bevel" points="1249.31,754.23 1249.31,665.135"/>
<polyline class="Stem" fill="none" stroke="#000000" stroke-width="2.73" stroke-linejoin="bevel" points="1558.56,2552.23 1558.56,2488.17"/>
<polyline class="Stem" fill="none" stroke="#000000" stroke-width="2.73" stroke-linejoin="bevel" points="1117.82,729.43 1117.82,659.061"/>
<polyline class="Stem" fill="none" stroke="#000000" stroke-width="2.73" stroke-linejoin="bevel" points="784.197,2167.83 784.197,2097.4"/>
<polyline class="Stem" fill="none" stroke="#000000" stroke-width="2.73" stroke-linejoin="bevel" points="949.628,754.23 949.628,683.798"/>
<polyline class="Stem" fill="none" stroke="#000000" stroke-width="2.73" stroke-linejoin="bevel" points="516.429,1634.63 516.429,1570.52"/>
<polyline class="Stem" fill="none" stroke="#000000" stroke-width="2.73" stroke-linejoin="bevel" points="650.313,2167.83 650.313,2078.74"/>
<polyline class="Stem" fill="none" stroke="#000000" stroke-width="2.73" stroke-linejoin="bevel" points="516.429,2143.03 516.429,2072.66"/>
<polyline class="Stem" fill="none" stroke="#000000" stroke-width="2.73" stroke-linejoin="bevel" points="651.708,1659.43 651.708,1582.68"/>
<polyline class="Stem" fill="none" stroke="#000000" stroke-width="2.73" stroke-linejoin="bevel" points="1738.89,2564.63 1738.89,2494.26"/>
<polyline class="Stem" fill="none" stroke="#000000" stroke-width="2.73" stroke-linejoin="bevel" points="786.987,1659.43 786.987,1582.8"/>
<polyline class="Stem" fill="none" stroke="#000000" stroke-width="2.73" stroke-linejoin="bevel" points="1834.65,2577.03 1834.65,2498.35"/>
<polyline class="Stem" fill="none" stroke="#000000" stroke-width="2.73" stroke-linejoin="bevel" points="818.14,754.23 818.14,683.798"/>
<polyline class="Stem" fill="none" stroke="#000000" stroke-width="2.73" stroke-linejoin="bevel" points="922.265,1659.43 922.265,1582.8"/>
<polyline class="Stem" fill="none" stroke="#000000" stroke-width="2.73" stroke-linejoin="bevel" points="2626.22,1642.76 2626.22,1706.68"/>
<polyline class="Stem" fill="none" stroke="#000000" stroke-width="2.73" stroke-linejoin="bevel" points="1930.4,2589.43 1930.4,2502.45"/>
<polyline class="Stem" fill="none" stroke="#000000" stroke-width="2.73" stroke-linejoin="bevel" points="686.652,754.23 686.652,665.135"/>
<polyline class="Stem" fill="none" stroke="#000000" stroke-width="2.73" stroke-linejoin="bevel" points="1094.25,1622.23 1094.25,1558.06"/>
<polyline class="Stem" fill="none" stroke="#000000" stroke-width="2.73" stroke-linejoin="bevel" points="2490.94,1617.96 2490.94,1694.52"/>
<polyline class="Stem" fill="none" stroke="#000000" stroke-width="2.73" stroke-linejoin="bevel" points="2355.67,1642.76 2355.67,1706.68"/>
<polyline class="Stem" fill="none" stroke="#000000" stroke-width="2.73" stroke-linejoin="bevel" points="1229.53,1647.03 1229.53,1564.14"/>
<polyline class="Stem" fill="none" stroke="#000000" stroke-width="2.73" stroke-linejoin="bevel" points="2220.39,1617.96 2220.39,1694.52"/>
<polyline class="Stem" fill="none" stroke="#000000" stroke-width="2.73" stroke-linejoin="bevel" points="1364.8,1647.03 1364.8,1576.6"/>
<polyline class="Stem" fill="none" stroke="#000000" stroke-width="2.73" stroke-linejoin="bevel" points="1500.08,1647.03 1500.08,1576.6"/>
<polyline class="Stem" fill="none" stroke="#000000" stroke-width="2.73" stroke-linejoin="bevel" points="2026.16,2601.83 2026.16,2506.54"/>
<polyline class="Stem" fill="none" stroke="#000000" stroke-width="2.73" stroke-linejoin="bevel" points="2121.91,2614.23 2121.91,2525.14"/>
<polyline class="Stem" fill="none" stroke="#000000" stroke-width="2.73" stroke-linejoin="bevel" points="2265.54,2589.43 2265.54,2519.06"/>
<polyline class="Stem" fill="none" stroke="#000000" stroke-width="2.73" stroke-linejoin="bevel" points="555.164,729.43 555.164,659.061"/>
<polyline class="Stem" fill="none" stroke="#000000" stroke-width="2.73" stroke-linejoin="bevel" points="2445.88,2577.03 2445.88,2500.4"/>
<polyline class="Stem" fill="none" stroke="#000000" stroke-width="2.73" stroke-linejoin="bevel" points="1672.07,1622.23 1672.07,1558.06"/>
<polyline class="Stem" fill="none" stroke="#000000" stroke-width="2.73" stroke-linejoin="bevel" points="2077.9,1647.03 2077.9,1564.14"/>
<polyline class="Stem" fill="none" stroke="#000000" stroke-width="2.73" stroke-linejoin="bevel" points="654.586,1225.43 654.586,1136.34"/>
<path class="Note" transform="matrix(0.992,0,0,0.992,1333.94,1651)" d="M0,4.2 C0,8.5 3.1,13.3 11.2,13.3 C21.6,13.3 32.5,4.8 32.5,-4 C32.5,-9.9 27.5,-13.2 21.3,-13.2 C11.6,-13.2 0,-5 0,4.2"/>
<path class="Note" transform="matrix(0.992,0,0,0.992,2562.91,733.398)" d="M0,4.2 C0,8.5 3.1,13.3 11.2,13.3 C21.6,13.3 32.5,4.8 32.5,-4 C32.5,-9.9 27.5,-13.2 21.3,-13.2 C11.6,-13.2 0,-5 0,4.2"/>
<path class="Note" transform="matrix(0.992,0,0,0.992,2415.02,2581)" d="M21.3,-13.2 C11.6,-13.2 0,-5.1 0,4.2 C0,8.5 3.1,13.3 11.2,13.3 C21.6,13.3 32.5,4.8 32.5,-4 C32.5,-9.9 27.5,-13.2 21.3,-13.2 M7.5,8.6 C4.2,8.6 3.5,5.9 3.5,5 C3.5,0.1 20.3,-8.5 25,-8.5 C27.4,-8.5 29,-7.1 29,-4.9 C29,0.1 12.1,8.6 7.5,8.6"/>
<path class="Note" transform="matrix(0.992,0,0,0.992,1911.76,1626.2)" d="M0,4.2 C0,8.5 3.1,13.3 11.2,13.3 C21.6,13.3 32.5,4.8 32.5,-4 C32.5,-9.9 27.5,-13.2 21.3,-13.2 C11.6,-13.2 0,-5 0,4.2"/>
<path class="Note" transform="matrix(0.992,0,0,0.992,2234.68,2593.4)" d="M0,4.2 C0,8.5 3.1,13.3 11.2,13.3 C21.6,13.3 32.5,4.8 32.5,-4 C32.5,-9.9 27.5,-13.2 21.3,-13.2 C11.6,-13.2 0,-5 0,4.2"/>
<path class="Note" transform="matrix(0.992,0,0,0.992,1641.21,1626.2)" d="M0,4.2 C0,8.5 3.1,13.3 11.2,13.3 C21.6,13.3 32.5,4.8 32.5,-4 C32.5,-9.9 27.5,-13.2 21.3,-13.2 C11.6,-13.2 0,-5 0,4.2"/>
<path class="Note" transform="matrix(0.992,0,0,0.992,2047.04,1651)" d="M0,4.2 C0,8.5 3.1,13.3 11.2,13.3 C21.6,13.3 32.5,4.8 32.5,-4 C32.5,-9.9 27.5,-13.2 21.3,-13.2 C11.6,-13.2 0,-5 0,4.2"/>
<path class="Note" transform="matrix(0.992,0,0,0.992,1469.22,1651)" d="M0,4.2 C0,8.5 3.1,13.3 11.2,13.3 C21.6,13.3 32.5,4.8 32.5,-4 C32.5,-9.9 27.5,-13.2 21.3,-13.2 C11.6,-13.2 0,-5 0,4.2"/>
<path class="Note" transform="matrix(0.992,0,0,0.992,524.303,733.398)" d="M0,4.2 C0,8.5 3.1,13.3 11.2,13.3 C21.6,13.3 32.5,4.8 32.5,-4 C32.5,-9.9 27.5,-13.2 21.3,-13.2 C11.6,-13.2 0,-5 0,4.2"/>
<path class="Note" transform="matrix(0.992,0,0,0.992,2091.05,2618.2)" d="M0,4.2 C0,8.5 3.1,13.3 11.2,13.3 C21.6,13.3 32.5,4.8 32.5,-4 C32.5,-9.9 27.5,-13.2 21.3,-13.2 C11.6,-13.2 0,-5 0,4.2"/>
<path class="Note" transform="matrix(0.992,0,0,0.992,1198.67,1651)" d="M0,4.2 C0,8.5 3.1,13.3 11.2,13.3 C21.6,13.3 32.5,4.8 32.5,-4 C32.5,-9.9 27.5,-13.2 21.3,-13.2 C11.6,-13.2 0,-5 0,4.2"/>
<path class="Note" transform="matrix(0.992,0,0,0.992,2219.02,1613.8)" d="M0,4.2 C0,8.5 3.1,13.3 11.2,13.3 C21.6,13.3 32.5,4.8 32.5,-4 C32.5,-9.9 27.5,-13.2 21.3,-13.2 C11.6,-13.2 0,-5 0,4.2"/>
<path class="Note" transform="matrix(0.992,0,0,0.992,1995.3,2605.8)" d="M0,4.2 C0,8.5 3.1,13.3 11.2,13.3 C21.6,13.3 32.5,4.8 32.5,-4 C32.5,-9.9 27.5,-13.2 21.3,-13.2 C11.6,-13.2 0,-5 0,4.2"/>
<path class="Note" transform="matrix(0.992,0,0,0.992,1899.54,2593.4)" d="M0,4.2 C0,8.5 3.1,13.3 11.2,13.3 C21.6,13.3 32.5,4.8 32.5,-4 C32.5,-9.9 27.5,-13.2 21.3,-13.2 C11.6,-13.2 0,-5 0,4.2"/>
<path class="Note" transform="matrix(0.992,0,0,0.992,2354.3,1638.6)" d="M0,4.2 C0,8.5 3.1,13.3 11.2,13.3 C21.6,13.3 32.5,4.8 32.5,-4 C32.5,-9.9 27.5,-13.2 21.3,-13.2 C11.6,-13.2 0,-5 0,4.2"/>
<path class="Note" transform="matrix(0.992,0,0,0.992,1063.39,1626.2)" d="M0,4.2 C0,8.5 3.1,13.3 11.2,13.3 C21.6,13.3 32.5,4.8 32.5,-4 C32.5,-9.9 27.5,-13.2 21.3,-13.2 C11.6,-13.2 0,-5 0,4.2"/>
<path class="Note" transform="matrix(0.992,0,0,0.992,2489.58,1613.8)" d="M0,4.2 C0,8.5 3.1,13.3 11.2,13.3 C21.6,13.3 32.5,4.8 32.5,-4 C32.5,-9.9 27.5,-13.2 21.3,-13.2 C11.6,-13.2 0,-5 0,4.2"/>
<path class="Note" transform="matrix(0.992,0,0,0.992,655.791,758.198)" d="M0,4.2 C0,8.5 3.1,13.3 11.2,13.3 C21.6,13.3 32.5,4.8 32.5,-4 C32.5,-9.9 27.5,-13.2 21.3,-13.2 C11.6,-13.2 0,-5 0,4.2"/>
<path class="Note" transform="matrix(0.992,0,0,0.992,891.405,1663.4)" d="M0,4.2 C0,8.5 3.1,13.3 11.2,13.3 C21.6,13.3 32.5,4.8 32.5,-4 C32.5,-9.9 27.5,-13.2 21.3,-13.2 C11.6,-13.2 0,-5 0,4.2"/>
<path class="Note" transform="matrix(0.992,0,0,0.992,2624.86,1638.6)" d="M0,4.2 C0,8.5 3.1,13.3 11.2,13.3 C21.6,13.3 32.5,4.8 32.5,-4 C32.5,-9.9 27.5,-13.2 21.3,-13.2 C11.6,-13.2 0,-5 0,4.2"/>
<path class="Note" transform="matrix(0.992,0,0,0.992,1803.79,2581)" d="M0,4.2 C0,8.5 3.1,13.3 11.2,13.3 C21.6,13.3 32.5,4.8 32.5,-4 C32.5,-9.9 27.5,-13.2 21.3,-13.2 C11.6,-13.2 0,-5 0,4.2"/>
<path class="Note" transform="matrix(0.992,0,0,0.992,756.126,1663.4)" d="M0,4.2 C0,8.5 3.1,13.3 11.2,13.3 C21.6,13.3 32.5,4.8 32.5,-4 C32.5,-9.9 27.5,-13.2 21.3,-13.2 C11.6,-13.2 0,-5 0,4.2"/>
<path class="Note" transform="matrix(0.992,0,0,0.992,620.847,1663.4)" d="M0,4.2 C0,8.5 3.1,13.3 11.2,13.3 C21.6,13.3 32.5,4.8 32.5,-4 C32.5,-9.9 27.5,-13.2 21.3,-13.2 C11.6,-13.2 0,-5 0,4.2"/>
<path class="Note" transform="matrix(0.992,0,0,0.992,787.279,758.198)" d="M0,4.2 C0,8.5 3.1,13.3 11.2,13.3 C21.6,13.3 32.5,4.8 32.5,-4 C32.5,-9.9 27.5,-13.2 21.3,-13.2 C11.6,-13.2 0,-5 0,4.2"/>
<path class="Note" transform="matrix(0.992,0,0,0.992,1708.03,2568.6)" d="M0,4.2 C0,8.5 3.1,13.3 11.2,13.3 C21.6,13.3 32.5,4.8 32.5,-4 C32.5,-9.9 27.5,-13.2 21.3,-13.2 C11.6,-13.2 0,-5 0,4.2"/>
<path class="Note" transform="matrix(0.992,0,0,0.992,918.767,758.198)" d="M0,4.2 C0,8.5 3.1,13.3 11.2,13.3 C21.6,13.3 32.5,4.8 32.5,-4 C32.5,-9.9 27.5,-13.2 21.3,-13.2 C11.6,-13.2 0,-5 0,4.2"/>
<path class="Note" transform="matrix(0.992,0,0,0.992,485.569,2147)" d="M0,4.2 C0,8.5 3.1,13.3 11.2,13.3 C21.6,13.3 32.5,4.8 32.5,-4 C32.5,-9.9 27.5,-13.2 21.3,-13.2 C11.6,-13.2 0,-5 0,4.2"/>
<path class="Note" transform="matrix(0.992,0,0,0.992,1086.96,733.398)" d="M0,4.2 C0,8.5 3.1,13.3 11.2,13.3 C21.6,13.3 32.5,4.8 32.5,-4 C32.5,-9.9 27.5,-13.2 21.3,-13.2 C11.6,-13.2 0,-5 0,4.2"/>
<path class="Note" transform="matrix(0.992,0,0,0.992,485.569,1638.6)" d="M0,4.2 C0,8.5 3.1,13.3 11.2,13.3 C21.6,13.3 32.5,4.8 32.5,-4 C32.5,-9.9 27.5,-13.2 21.3,-13.2 C11.6,-13.2 0,-5 0,4.2"/>
<path class="Note" transform="matrix(0.992,0,0,0.992,1527.7,2556.2)" d="M0,4.2 C0,8.5 3.1,13.3 11.2,13.3 C21.6,13.3 32.5,4.8 32.5,-4 C32.5,-9.9 27.5,-13.2 21.3,-13.2 C11.6,-13.2 0,-5 0,4.2"/>
<path class="Note" transform="matrix(0.992,0,0,0.992,619.453,2171.8)" d="M0,4.2 C0,8.5 3.1,13.3 11.2,13.3 C21.6,13.3 32.5,4.8 32.5,-4 C32.5,-9.9 27.5,-13.2 21.3,-13.2 C11.6,-13.2 0,-5 0,4.2"/>
<path class="Note" transform="matrix(0.992,0,0,0.992,1384.06,2643)" d="M0,4.2 C0,8.5 3.1,13.3 11.2,13.3 C21.6,13.3 32.5,4.8 32.5,-4 C32.5,-9.9 27.5,-13.2 21.3,-13.2 C11.6,-13.2 0,-5 0,4.2"/>
<path class="Note" transform="matrix(0.992,0,0,0.992,1218.45,758.198)" d="M0,4.2 C0,8.5 3.1,13.3 11.2,13.3 C21.6,13.3 32.5,4.8 32.5,-4 C32.5,-9.9 27.5,-13.2 21.3,-13.2 C11.6,-13.2 0,-5 0,4.2"/>
<path class="Note" transform="matrix(0.992,0,0,0.992,753.337,2171.8)" d="M0,4.2 C0,8.5 3.1,13.3 11.2,13.3 C21.6,13.3 32.5,4.8 32.5,-4 C32.5,-9.9 27.5,-13.2 21.3,-13.2 C11.6,-13.2 0,-5 0,4.2"/>
<path class="Note" transform="matrix(0.992,0,0,0.992,1349.94,758.198)" d="M0,4.2 C0,8.5 3.1,13.3 11.2,13.3 C21.6,13.3 32.5,4.8 32.5,-4 C32.5,-9.9 27.5,-13.2 21.3,-13.2 C11.6,-13.2 0,-5 0,4.2"/>
<path class="Note" transform="matrix(0.992,0,0,0.992,2345.67,1192.2)" d="M0,4.2 C0,8.5 3.1,13.3 11.2,13.3 C21.6,13.3 32.5,4.8 32.5,-4 C32.5,-9.9 27.5,-13.2 21.3,-13.2 C11.6,-13.2 0,-5 0,4.2"/>
<path class="Note" transform="matrix(0.992,0,0,0.992,1240.43,2643)" d="M0,4.2 C0,8.5 3.1,13.3 11.2,13.3 C21.6,13.3 32.5,4.8 32.5,-4 C32.5,-9.9 27.5,-13.2 21.3,-13.2 C11.6,-13.2 0,-5 0,4.2"/>
<path class="Note" transform="matrix(0.992,0,0,0.992,887.221,2171.8)" d="M0,4.2 C0,8.5 3.1,13.3 11.2,13.3 C21.6,13.3 32.5,4.8 32.5,-4 C32.5,-9.9 27.5,-13.2 21.3,-13.2 C11.6,-13.2 0,-5 0,4.2"/>
<path class="Note" transform="matrix(0.992,0,0,0.992,2170.81,1204.6)" d="M0,4.2 C0,8.5 3.1,13.3 11.2,13.3 C21.6,13.3 32.5,4.8 32.5,-4 C32.5,-9.9 27.5,-13.2 21.3,-13.2 C11.6,-13.2 0,-5 0,4.2"/>
<path class="Note" transform="matrix(0.992,0,0,0.992,1481.42,671.398)" d="M0,4.2 C0,8.5 3.1,13.3 11.2,13.3 C21.6,13.3 32.5,4.8 32.5,-4 C32.5,-9.9 27.5,-13.2 21.3,-13.2 C11.6,-13.2 0,-5 0,4.2"/>
<path class="Note" transform="matrix(0.992,0,0,0.992,2032.65,1204.6)" d="M0,4.2 C0,8.5 3.1,13.3 11.2,13.3 C21.6,13.3 32.5,4.8 32.5,-4 C32.5,-9.9 27.5,-13.2 21.3,-13.2 C11.6,-13.2 0,-5 0,4.2"/>
<path class="Note" transform="matrix(0.992,0,0,0.992,1057.81,2147)" d="M0,4.2 C0,8.5 3.1,13.3 11.2,13.3 C21.6,13.3 32.5,4.8 32.5,-4 C32.5,-9.9 27.5,-13.2 21.3,-13.2 C11.6,-13.2 0,-5 0,4.2"/>
<path class="Note" transform="matrix(0.992,0,0,0.992,1096.8,2618.2)" d="M0,4.2 C0,8.5 3.1,13.3 11.2,13.3 C21.6,13.3 32.5,4.8 32.5,-4 C32.5,-9.9 27.5,-13.2 21.3,-13.2 C11.6,-13.2 0,-5 0,4.2"/>
<path class="Note" transform="matrix(0.992,0,0,0.992,1940.54,1192.2)" d="M0,4.2 C0,8.5 3.1,13.3 11.2,13.3 C21.6,13.3 32.5,4.8 32.5,-4 C32.5,-9.9 27.5,-13.2 21.3,-13.2 C11.6,-13.2 0,-5 0,4.2"/>
<path class="Note" transform="matrix(0.992,0,0,0.992,1848.44,1179.8)" d="M0,4.2 C0,8.5 3.1,13.3 11.2,13.3 C21.6,13.3 32.5,4.8 32.5,-4 C32.5,-9.9 27.5,-13.2 21.3,-13.2 C11.6,-13.2 0,-5 0,4.2"/>
<path class="Note" transform="matrix(0.992,0,0,0.992,1191.69,2171.8)" d="M0,4.2 C0,8.5 3.1,13.3 11.2,13.3 C21.6,13.3 32.5,4.8 32.5,-4 C32.5,-9.9 27.5,-13.2 21.3,-13.2 C11.6,-13.2 0,-5 0,4.2"/>
<path class="Note" transform="matrix(0.992,0,0,0.992,1756.34,1167.4)" d="M0,4.2 C0,8.5 3.1,13.3 11.2,13.3 C21.6,13.3 32.5,4.8 32.5,-4 C32.5,-9.9 27.5,-13.2 21.3,-13.2 C11.6,-13.2 0,-5 0,4.2"/>
<path class="Note" transform="matrix(0.992,0,0,0.992,1649.62,683.798)" d="M0,4.2 C0,8.5 3.1,13.3 11.2,13.3 C21.6,13.3 32.5,4.8 32.5,-4 C32.5,-9.9 27.5,-13.2 21.3,-13.2 C11.6,-13.2 0,-5 0,4.2"/>
<path class="Note" transform="matrix(0.992,0,0,0.992,1325.58,2171.8)" d="M0,4.2 C0,8.5 3.1,13.3 11.2,13.3 C21.6,13.3 32.5,4.8 32.5,-4 C32.5,-9.9 27.5,-13.2 21.3,-13.2 C11.6,-13.2 0,-5 0,4.2"/>
<path class="Note" transform="matrix(0.992,0,0,0.992,1737.27,696.198)" d="M0,4.2 C0,8.5 3.1,13.3 11.2,13.3 C21.6,13.3 32.5,4.8 32.5,-4 C32.5,-9.9 27.5,-13.2 21.3,-13.2 C11.6,-13.2 0,-5 0,4.2"/>
<path class="Note" transform="matrix(0.992,0,0,0.992,1664.23,1155)" d="M0,4.2 C0,8.5 3.1,13.3 11.2,13.3 C21.6,13.3 32.5,4.8 32.5,-4 C32.5,-9.9 27.5,-13.2 21.3,-13.2 C11.6,-13.2 0,-5 0,4.2"/>
<path class="Note" transform="matrix(0.992,0,0,0.992,1459.46,2085)" d="M0,4.2 C0,8.5 3.1,13.3 11.2,13.3 C21.6,13.3 32.5,4.8 32.5,-4 C32.5,-9.9 27.5,-13.2 21.3,-13.2 C11.6,-13.2 0,-5 0,4.2"/>
<path class="Note" transform="matrix(0.992,0,0,0.992,1489.37,1142.6)" d="M0,4.2 C0,8.5 3.1,13.3 11.2,13.3 C21.6,13.3 32.5,4.8 32.5,-4 C32.5,-9.9 27.5,-13.2 21.3,-13.2 C11.6,-13.2 0,-5 0,4.2"/>
<path class="Note" transform="matrix(0.992,0,0,0.992,916.465,2643)" d="M0,4.2 C0,8.5 3.1,13.3 11.2,13.3 C21.6,13.3 32.5,4.8 32.5,-4 C32.5,-9.9 27.5,-13.2 21.3,-13.2 C11.6,-13.2 0,-5 0,4.2"/>
<path class="Note" transform="matrix(0.992,0,0,0.992,1351.21,1229.4)" d="M0,4.2 C0,8.5 3.1,13.3 11.2,13.3 C21.6,13.3 32.5,4.8 32.5,-4 C32.5,-9.9 27.5,-13.2 21.3,-13.2 C11.6,-13.2 0,-5 0,4.2"/>
<path class="Note" transform="matrix(0.992,0,0,0.992,1630.05,2097.4)" d="M0,4.2 C0,8.5 3.1,13.3 11.2,13.3 C21.6,13.3 32.5,4.8 32.5,-4 C32.5,-9.9 27.5,-13.2 21.3,-13.2 C11.6,-13.2 0,-5 0,4.2"/>
<path class="Note" transform="matrix(0.992,0,0,0.992,1824.93,708.598)" d="M0,4.2 C0,8.5 3.1,13.3 11.2,13.3 C21.6,13.3 32.5,4.8 32.5,-4 C32.5,-9.9 27.5,-13.2 21.3,-13.2 C11.6,-13.2 0,-5 0,4.2"/>
<path class="Note" transform="matrix(0.992,0,0,0.992,1213.06,1229.4)" d="M0,4.2 C0,8.5 3.1,13.3 11.2,13.3 C21.6,13.3 32.5,4.8 32.5,-4 C32.5,-9.9 27.5,-13.2 21.3,-13.2 C11.6,-13.2 0,-5 0,4.2"/>
<path class="Note" transform="matrix(0.992,0,0,0.992,1719.3,2109.8)" d="M0,4.2 C0,8.5 3.1,13.3 11.2,13.3 C21.6,13.3 32.5,4.8 32.5,-4 C32.5,-9.9 27.5,-13.2 21.3,-13.2 C11.6,-13.2 0,-5 0,4.2"/>
<path class="Note" transform="matrix(0.992,0,0,0.992,1912.59,720.998)" d="M0,4.2 C0,8.5 3.1,13.3 11.2,13.3 C21.6,13.3 32.5,4.8 32.5,-4 C32.5,-9.9 27.5,-13.2 21.3,-13.2 C11.6,-13.2 0,-5 0,4.2"/>
<path class="Note" transform="matrix(0.992,0,0,0.992,1808.56,2122.2)" d="M0,4.2 C0,8.5 3.1,13.3 11.2,13.3 C21.6,13.3 32.5,4.8 32.5,-4 C32.5,-9.9 27.5,-13.2 21.3,-13.2 C11.6,-13.2 0,-5 0,4.2"/>
<path class="Note" transform="matrix(0.992,0,0,0.992,1074.9,1204.6)" d="M0,4.2 C0,8.5 3.1,13.3 11.2,13.3 C21.6,13.3 32.5,4.8 32.5,-4 C32.5,-9.9 27.5,-13.2 21.3,-13.2 C11.6,-13.2 0,-5 0,4.2"/>
<path class="Note" transform="matrix(0.992,0,0,0.992,1897.82,2134.6)" d="M0,4.2 C0,8.5 3.1,13.3 11.2,13.3 C21.6,13.3 32.5,4.8 32.5,-4 C32.5,-9.9 27.5,-13.2 21.3,-13.2 C11.6,-13.2 0,-5 0,4.2"/>
<path class="Note" transform="matrix(0.992,0,0,0.992,900.039,1229.4)" d="M0,4.2 C0,8.5 3.1,13.3 11.2,13.3 C21.6,13.3 32.5,4.8 32.5,-4 C32.5,-9.9 27.5,-13.2 21.3,-13.2 C11.6,-13.2 0,-5 0,4.2"/>
<path class="Note" transform="matrix(0.992,0,0,0.992,1987.07,2147)" d="M0,4.2 C0,8.5 3.1,13.3 11.2,13.3 C21.6,13.3 32.5,4.8 32.5,-4 C32.5,-9.9 27.5,-13.2 21.3,-13.2 C11.6,-13.2 0,-5 0,4.2"/>
<path class="Note" transform="matrix(0.992,0,0,0.992,772.833,2643)" d="M0,4.2 C0,8.5 3.1,13.3 11.2,13.3 C21.6,13.3 32.5,4.8 32.5,-4 C32.5,-9.9 27.5,-13.2 21.3,-13.2 C11.6,-13.2 0,-5 0,4.2"/>
<path class="Note" transform="matrix(0.992,0,0,0.992,2120.96,2159.4)" d="M0,4.2 C0,8.5 3.1,13.3 11.2,13.3 C21.6,13.3 32.5,4.8 32.5,-4 C32.5,-9.9 27.5,-13.2 21.3,-13.2 C11.6,-13.2 0,-5 0,4.2"/>
<path class="Note" transform="matrix(0.992,0,0,0.992,1776.48,1651)" d="M0,4.2 C0,8.5 3.1,13.3 11.2,13.3 C21.6,13.3 32.5,4.8 32.5,-4 C32.5,-9.9 27.5,-13.2 21.3,-13.2 C11.6,-13.2 0,-5 0,4.2"/>
<path class="Note" transform="matrix(0.992,0,0,0.992,2000.25,733.398)" d="M0,4.2 C0,8.5 3.1,13.3 11.2,13.3 C21.6,13.3 32.5,4.8 32.5,-4 C32.5,-9.9 27.5,-13.2 21.3,-13.2 C11.6,-13.2 0,-5 0,4.2"/>
<path class="Note" transform="matrix(0.992,0,0,0.992,629.201,2643)" d="M0,4.2 C0,8.5 3.1,13.3 11.2,13.3 C21.6,13.3 32.5,4.8 32.5,-4 C32.5,-9.9 27.5,-13.2 21.3,-13.2 C11.6,-13.2 0,-5 0,4.2"/>
<path class="Note" transform="matrix(0.992,0,0,0.992,623.726,1229.4)" d="M0,4.2 C0,8.5 3.1,13.3 11.2,13.3 C21.6,13.3 32.5,4.8 32.5,-4 C32.5,-9.9 27.5,-13.2 21.3,-13.2 C11.6,-13.2 0,-5 0,4.2"/>
<path class="Note" transform="matrix(0.992,0,0,0.992,2131.74,745.798)" d="M0,4.2 C0,8.5 3.1,13.3 11.2,13.3 C21.6,13.3 32.5,4.8 32.5,-4 C32.5,-9.9 27.5,-13.2 21.3,-13.2 C11.6,-13.2 0,-5 0,4.2"/>
<path class="Note" transform="matrix(0.992,0,0,0.992,485.569,1204.6)" d="M0,4.2 C0,8.5 3.1,13.3 11.2,13.3 C21.6,13.3 32.5,4.8 32.5,-4 C32.5,-9.9 27.5,-13.2 21.3,-13.2 C11.6,-13.2 0,-5 0,4.2"/>
<path class="Note" transform="matrix(0.992,0,0,0.992,2291.54,2171.8)" d="M0,4.2 C0,8.5 3.1,13.3 11.2,13.3 C21.6,13.3 32.5,4.8 32.5,-4 C32.5,-9.9 27.5,-13.2 21.3,-13.2 C11.6,-13.2 0,-5 0,4.2"/>
<path class="Note" transform="matrix(0.992,0,0,0.992,485.569,2618.2)" d="M0,4.2 C0,8.5 3.1,13.3 11.2,13.3 C21.6,13.3 32.5,4.8 32.5,-4 C32.5,-9.9 27.5,-13.2 21.3,-13.2 C11.6,-13.2 0,-5 0,4.2"/>
<path class="Note" transform="matrix(0.992,0,0,0.992,2299.93,758.198)" d="M0,4.2 C0,8.5 3.1,13.3 11.2,13.3 C21.6,13.3 32.5,4.8 32.5,-4 C32.5,-9.9 27.5,-13.2 21.3,-13.2 C11.6,-13.2 0,-5 0,4.2"/>
<path class="Note" transform="matrix(0.992,0,0,0.992,2425.43,2159.4)" d="M0,4.2 C0,8.5 3.1,13.3 11.2,13.3 C21.6,13.3 32.5,4.8 32.5,-4 C32.5,-9.9 27.5,-13.2 21.3,-13.2 C11.6,-13.2 0,-5 0,4.2"/>
<path class="Note" transform="matrix(0.992,0,0,0.992,2431.42,745.798)" d="M0,4.2 C0,8.5 3.1,13.3 11.2,13.3 C21.6,13.3 32.5,4.8 32.5,-4 C32.5,-9.9 27.5,-13.2 21.3,-13.2 C11.6,-13.2 0,-5 0,4.2"/>
<path class="Note" transform="matrix(0.992,0,0,0.992,2559.31,2147)" d="M0,4.2 C0,8.5 3.1,13.3 11.2,13.3 C21.6,13.3 32.5,4.8 32.5,-4 C32.5,-9.9 27.5,-13.2 21.3,-13.2 C11.6,-13.2 0,-5 0,4.2"/>
<path class="Note" transform="matrix(0.992,0,0,0.992,761.883,1229.4)" d="M0,4.2 C0,8.5 3.1,13.3 11.2,13.3 C21.6,13.3 32.5,4.8 32.5,-4 C32.5,-9.9 27.5,-13.2 21.3,-13.2 C11.6,-13.2 0,-5 0,4.2"/>
<path class="Clef" transform="matrix(0.992,0,0,0.992,232.438,1179.8)" d="M12.3,51.3 C12.3,57.9 17.3,66.6 30.8,66.6 C35.5,66.6 39.6,65.4 43.2,63.2 C48.6,59.4 50,52.8 50,46.5 C50,42.6 49.4,38.1 48.4,32.4 C48.1,30.4 47.5,27.4 46.9,23.5 C56.7,20.3 64,10.1 64,-0.2 C64,-15.3 53.3,-25.5 38.7,-25.5 C37.7,-31.5 36.7,-37.4 35.9,-43 C46.4,-54.1 53.7,-66.6 53.7,-82.5 C53.7,-91.6 50.9,-99 49.3,-102.6 C46.9,-107.7 44,-111.2 42.2,-111.2 C41.5,-111.2 38.4,-110 35.1,-106.1 C28.7,-98.5 26.9,-85.7 26.9,-77.3 C26.9,-71.9 27.4,-67 29.1,-55.8 C29,-55.7 23.8,-50.4 21.7,-48.7 C12.6,-40.3 0,-28.1 0,-8.1 C0,10.6 16.3,25.3 34.9,25.3 C37.8,25.3 40.5,25 42.8,24.6 C44.7,34.2 45.9,41.2 45.9,46.5 C45.9,56.9 40.5,62.4 30.4,62.4 C28,62.4 25.9,61.9 25.7,61.9 C25.6,61.8 25.4,61.7 25.4,61.6 C25.4,61.4 25.6,61.3 25.9,61.3 C30.6,60.5 35.3,56.5 35.3,50.1 C35.3,44.7 31.2,39 23.7,39 C16.7,39 12.3,44.7 12.3,51.3 M33.2,-82.2 C34.1,-86.2 38.7,-96.7 43.9,-96.7 C45.4,-96.7 47.8,-91.9 47.8,-84.9 C47.8,-74.5 40.1,-66.7 33.2,-59.9 C32.6,-63.9 32.1,-67.8 32.1,-72 C32.1,-75.7 32.4,-79.1 33.2,-82.2 M42,20.6 C40,21 38.1,21.2 36.2,21.2 C21.9,21.2 9.7,11.2 9.7,-3.9 C9.7,-16.1 18.3,-27 27.1,-34.6 C28.8,-36.1 30.4,-37.5 31.9,-39 C32.8,-33.6 33.5,-28.9 34.2,-24.8 C25.1,-22.1 18.9,-12.5 18.9,-3.1 C18.9,3.9 24.4,13.5 32.4,13.5 C33.2,13.5 34.1,13.1 34.1,12.2 C34.1,11.3 33.1,10.8 31.9,10 C28,7.6 25.8,5 25.8,0.1 C25.8,-6 30.4,-10.9 36.2,-12.3 L42,20.6 M56.2,2.1 C56.2,9.2 53.3,16.5 46.2,19.4 C44.1,7.4 41.4,-8.5 40.7,-12.9 C49.7,-12.9 56.2,-6.8 56.2,2.1"/>
<path class="Clef" transform="matrix(0.992,0,0,0.992,232.438,708.598)" d="M12.3,51.3 C12.3,57.9 17.3,66.6 30.8,66.6 C35.5,66.6 39.6,65.4 43.2,63.2 C48.6,59.4 50,52.8 50,46.5 C50,42.6 49.4,38.1 48.4,32.4 C48.1,30.4 47.5,27.4 46.9,23.5 C56.7,20.3 64,10.1 64,-0.2 C64,-15.3 53.3,-25.5 38.7,-25.5 C37.7,-31.5 36.7,-37.4 35.9,-43 C46.4,-54.1 53.7,-66.6 53.7,-82.5 C53.7,-91.6 50.9,-99 49.3,-102.6 C46.9,-107.7 44,-111.2 42.2,-111.2 C41.5,-111.2 38.4,-110 35.1,-106.1 C28.7,-98.5 26.9,-85.7 26.9,-77.3 C26.9,-71.9 27.4,-67 29.1,-55.8 C29,-55.7 23.8,-50.4 21.7,-48.7 C12.6,-40.3 0,-28.1 0,-8.1 C0,10.6 16.3,25.3 34.9,25.3 C37.8,25.3 40.5,25 42.8,24.6 C44.7,34.2 45.9,41.2 45.9,46.5 C45.9,56.9 40.5,62.4 30.4,62.4 C28,62.4 25.9,61.9 25.7,61.9 C25.6,61.8 25.4,61.7 25.4,61.6 C25.4,61.4 25.6,61.3 25.9,61.3 C30.6,60.5 35.3,56.5 35.3,50.1 C35.3,44.7 31.2,39 23.7,39 C16.7,39 12.3,44.7 12.3,51.3 M33.2,-82.2 C34.1,-86.2 38.7,-96.7 43.9,-96.7 C45.4,-96.7 47.8,-91.9 47.8,-84.9 C47.8,-74.5 40.1,-66.7 33.2,-59.9 C32.6,-63.9 32.1,-67.8 32.1,-72 C32.1,-75.7 32.4,-79.1 33.2,-82.2 M42,20.6 C40,21 38.1,21.2 36.2,21.2 C21.9,21.2 9.7,11.2 9.7,-3.9 C9.7,-16.1 18.3,-27 27.1,-34.6 C28.8,-36.1 30.4,-37.5 31.9,-39 C32.8,-33.6 33.5,-28.9 34.2,-24.8 C25.1,-22.1 18.9,-12.5 18.9,-3.1 C18.9,3.9 24.4,13.5 32.4,13.5 C33.2,13.5 34.1,13.1 34.1,12.2 C34.1,11.3 33.1,10.8 31.9,10 C28,7.6 25.8,5 25.8,0.1 C25.8,-6 30.4,-10.9 36.2,-12.3 L42,20.6 M56.2,2.1 C56.2,9.2 53.3,16.5 46.2,19.4 C44.1,7.4 41.4,-8.5 40.7,-12.9 C49.7,-12.9 56.2,-6.8 56.2,2.1"/>
<path class="Clef" transform="matrix(0.992,0,0,0.992,232.438,2593.4)" d="M12.3,51.3 C12.3,57.9 17.3,66.6 30.8,66.6 C35.5,66.6 39.6,65.4 43.2,63.2 C48.6,59.4 50,52.8 50,46.5 C50,42.6 49.4,38.1 48.4,32.4 C48.1,30.4 47.5,27.4 46.9,23.5 C56.7,20.3 64,10.1 64,-0.2 C64,-15.3 53.3,-25.5 38.7,-25.5 C37.7,-31.5 36.7,-37.4 35.9,-43 C46.4,-54.1 53.7,-66.6 53.7,-82.5 C53.7,-91.6 50.9,-99 49.3,-102.6 C46.9,-107.7 44,-111.2 42.2,-111.2 C41.5,-111.2 38.4,-110 35.1,-106.1 C28.7,-98.5 26.9,-85.7 26.9,-77.3 C26.9,-71.9 27.4,-67 29.1,-55.8 C29,-55.7 23.8,-50.4 21.7,-48.7 C12.6,-40.3 0,-28.1 0,-8.1 C0,10.6 16.3,25.3 34.9,25.3 C37.8,25.3 40.5,25 42.8,24.6 C44.7,34.2 45.9,41.2 45.9,46.5 C45.9,56.9 40.5,62.4 30.4,62.4 C28,62.4 25.9,61.9 25.7,61.9 C25.6,61.8 25.4,61.7 25.4,61.6 C25.4,61.4 25.6,61.3 25.9,61.3 C30.6,60.5 35.3,56.5 35.3,50.1 C35.3,44.7 31.2,39 23.7,39 C16.7,39 12.3,44.7 12.3,51.3 M33.2,-82.2 C34.1,-86.2 38.7,-96.7 43.9,-96.7 C45.4,-96.7 47.8,-91.9 47.8,-84.9 C47.8,-74.5 40.1,-66.7 33.2,-59.9 C32.6,-63.9 32.1,-67.8 32.1,-72 C32.1,-75.7 32.4,-79.1 33.2,-82.2 M42,20.6 C40,21 38.1,21.2 36.2,21.2 C21.9,21.2 9.7,11.2 9.7,-3.9 C9.7,-16.1 18.3,-27 27.1,-34.6 C28.8,-36.1 30.4,-37.5 31.9,-39 C32.8,-33.6 33.5,-28.9 34.2,-24.8 C25.1,-22.1 18.9,-12.5 18.9,-3.1 C18.9,3.9 24.4,13.5 32.4,13.5 C33.2,13.5 34.1,13.1 34.1,12.2 C34.1,11.3 33.1,10.8 31.9,10 C28,7.6 25.8,5 25.8,0.1 C25.8,-6 30.4,-10.9 36.2,-12.3 L42,20.6 M56.2,2.1 C56.2,9.2 53.3,16.5 46.2,19.4 C44.1,7.4 41.4,-8.5 40.7,-12.9 C49.7,-12.9 56.2,-6.8 56.2,2.1"/>
<path class="Clef" transform="matrix(0.992,0,0,0.992,232.438,2122.2)" d="M12.3,51.3 C12.3,57.9 17.3,66.6 30.8,66.6 C35.5,66.6 39.6,65.4 43.2,63.2 C48.6,59.4 50,52.8 50,46.5 C50,42.6 49.4,38.1 48.4,32.4 C48.1,30.4 47.5,27.4 46.9,23.5 C56.7,20.3 64,10.1 64,-0.2 C64,-15.3 53.3,-25.5 38.7,-25.5 C37.7,-31.5 36.7,-37.4 35.9,-43 C46.4,-54.1 53.7,-66.6 53.7,-82.5 C53.7,-91.6 50.9,-99 49.3,-102.6 C46.9,-107.7 44,-111.2 42.2,-111.2 C41.5,-111.2 38.4,-110 35.1,-106.1 C28.7,-98.5 26.9,-85.7 26.9,-77.3 C26.9,-71.9 27.4,-67 29.1,-55.8 C29,-55.7 23.8,-50.4 21.7,-48.7 C12.6,-40.3 0,-28.1 0,-8.1 C0,10.6 16.3,25.3 34.9,25.3 C37.8,25.3 40.5,25 42.8,24.6 C44.7,34.2 45.9,41.2 45.9,46.5 C45.9,56.9 40.5,62.4 30.4,62.4 C28,62.4 25.9,61.9 25.7,61.9 C25.6,61.8 25.4,61.7 25.4,61.6 C25.4,61.4 25.6,61.3 25.9,61.3 C30.6,60.5 35.3,56.5 35.3,50.1 C35.3,44.7 31.2,39 23.7,39 C16.7,39 12.3,44.7 12.3,51.3 M33.2,-82.2 C34.1,-86.2 38.7,-96.7 43.9,-96.7 C45.4,-96.7 47.8,-91.9 47.8,-84.9 C47.8,-74.5 40.1,-66.7 33.2,-59.9 C32.6,-63.9 32.1,-67.8 32.1,-72 C32.1,-75.7 32.4,-79.1 33.2,-82.2 M42,20.6 C40,21 38.1,21.2 36.2,21.2 C21.9,21.2 9.7,11.2 9.7,-3.9 C9.7,-16.1 18.3,-27 27.1,-34.6 C28.8,-36.1 30.4,-37.5 31.9,-39 C32.8,-33.6 33.5,-28.9 34.2,-24.8 C25.1,-22.1 18.9,-12.5 18.9,-3.1 C18.9,3.9 24.4,13.5 32.4,13.5 C33.2,13.5 34.1,13.1 34.1,12.2 C34.1,11.3 33.1,10.8 31.9,10 C28,7.6 25.8,5 25.8,0.1 C25.8,-6 30.4,-10.9 36.2,-12.3 L42,20.6 M56.2,2.1 C56.2,9.2 53.3,16.5 46.2,19.4 C44.1,7.4 41.4,-8.5 40.7,-12.9 C49.7,-12.9 56.2,-6.8 56.2,2.1"/>
<path class="Clef" transform="matrix(0.992,0,0,0.992,232.438,1651)" d="M12.3,51.3 C12.3,57.9 17.3,66.6 30.8,66.6 C35.5,66.6 39.6,65.4 43.2,63.2 C48.6,59.4 50,52.8 50,46.5 C50,42.6 49.4,38.1 48.4,32.4 C48.1,30.4 47.5,27.4 46.9,23.5 C56.7,20.3 64,10.1 64,-0.2 C64,-15.3 53.3,-25.5 38.7,-25.5 C37.7,-31.5 36.7,-37.4 35.9,-43 C46.4,-54.1 53.7,-66.6 53.7,-82.5 C53.7,-91.6 50.9,-99 49.3,-102.6 C46.9,-107.7 44,-111.2 42.2,-111.2 C41.5,-111.2 38.4,-110 35.1,-106.1 C28.7,-98.5 26.9,-85.7 26.9,-77.3 C26.9,-71.9 27.4,-67 29.1,-55.8 C29,-55.7 23.8,-50.4 21.7,-48.7 C12.6,-40.3 0,-28.1 0,-8.1 C0,10.6 16.3,25.3 34.9,25.3 C37.8,25.3 40.5,25 42.8,24.6 C44.7,34.2 45.9,41.2 45.9,46.5 C45.9,56.9 40.5,62.4 30.4,62.4 C28,62.4 25.9,61.9 25.7,61.9 C25.6,61.8 25.4,61.7 25.4,61.6 C25.4,61.4 25.6,61.3 25.9,61.3 C30.6,60.5 35.3,56.5 35.3,50.1 C35.3,44.7 31.2,39 23.7,39 C16.7,39 12.3,44.7 12.3,51.3 M33.2,-82.2 C34.1,-86.2 38.7,-96.7 43.9,-96.7 C45.4,-96.7 47.8,-91.9 47.8,-84.9 C47.8,-74.5 40.1,-66.7 33.2,-59.9 C32.6,-63.9 32.1,-67.8 32.1,-72 C32.1,-75.7 32.4,-79.1 33.2,-82.2 M42,20.6 C40,21 38.1,21.2 36.2,21.2 C21.9,21.2 9.7,11.2 9.7,-3.9 C9.7,-16.1 18.3,-27 27.1,-34.6 C28.8,-36.1 30.4,-37.5 31.9,-39 C32.8,-33.6 33.5,-28.9 34.2,-24.8 C25.1,-22.1 18.9,-12.5 18.9,-3.1 C18.9,3.9 24.4,13.5 32.4,13.5 C33.2,13.5 34.1,13.1 34.1,12.2 C34.1,11.3 33.1,10.8 31.9,10 C28,7.6 25.8,5 25.8,0.1 C25.8,-6 30.4,-10.9 36.2,-12.3 L42,20.6 M56.2,2.1 C56.2,9.2 53.3,16.5 46.2,19.4 C44.1,7.4 41.4,-8.5 40.7,-12.9 C49.7,-12.9 56.2,-6.8 56.2,2.1"/>
<path class="KeySig" transform="matrix(0.992,0,0,0.992,320.711,2568.6)" d="M12,-15.5 C7,-15.5 4.1,-12.4 3.6,-11.8 L4,-43.9 C4,-44.7 3.4,-45.3 2.6,-45.3 L1.4,-45.3 C0.6,-45.3 0,-44.7 0,-43.9 L0.5,16.2 C0.5,17 1.1,17.6 1.9,17.6 C2.1,17.6 2.5,17.5 2.7,17.4 C11.3,13.1 20.3,4.9 20.3,-5.4 C20.3,-10.6 17.9,-15.5 12,-15.5 M3.3,12.7 L3.6,-6.8 C3.8,-7.7 5.3,-10.6 9.3,-10.6 C12.9,-10.6 13.2,-7.2 13.2,-5.1 C13.2,3.8 9.9,7.5 3.3,12.7"/>
<path class="KeySig" transform="matrix(0.992,0,0,0.992,348.285,2531.4)" d="M12,-15.5 C7,-15.5 4.1,-12.4 3.6,-11.8 L4,-43.9 C4,-44.7 3.4,-45.3 2.6,-45.3 L1.4,-45.3 C0.6,-45.3 0,-44.7 0,-43.9 L0.5,16.2 C0.5,17 1.1,17.6 1.9,17.6 C2.1,17.6 2.5,17.5 2.7,17.4 C11.3,13.1 20.3,4.9 20.3,-5.4 C20.3,-10.6 17.9,-15.5 12,-15.5 M3.3,12.7 L3.6,-6.8 C3.8,-7.7 5.3,-10.6 9.3,-10.6 C12.9,-10.6 13.2,-7.2 13.2,-5.1 C13.2,3.8 9.9,7.5 3.3,12.7"/>
<path class="KeySig" transform="matrix(0.992,0,0,0.992,375.86,2581)" d="M12,-15.5 C7,-15.5 4.1,-12.4 3.6,-11.8 L4,-43.9 C4,-44.7 3.4,-45.3 2.6,-45.3 L1.4,-45.3 C0.6,-45.3 0,-44.7 0,-43.9 L0.5,16.2 C0.5,17 1.1,17.6 1.9,17.6 C2.1,17.6 2.5,17.5 2.7,17.4 C11.3,13.1 20.3,4.9 20.3,-5.4 C20.3,-10.6 17.9,-15.5 12,-15.5 M3.3,12.7 L3.6,-6.8 C3.8,-7.7 5.3,-10.6 9.3,-10.6 C12.9,-10.6 13.2,-7.2 13.2,-5.1 C13.2,3.8 9.9,7.5 3.3,12.7"/>
<path class="KeySig" transform="matrix(0.992,0,0,0.992,403.419,2543.8)" d="M12,-15.5 C7,-15.5 4.1,-12.4 3.6,-11.8 L4,-43.9 C4,-44.7 3.4,-45.3 2.6,-45.3 L1.4,-45.3 C0.6,-45.3 0,-44.7 0,-43.9 L0.5,16.2 C0.5,17 1.1,17.6 1.9,17.6 C2.1,17.6 2.5,17.5 2.7,17.4 C11.3,13.1 20.3,4.9 20.3,-5.4 C20.3,-10.6 17.9,-15.5 12,-15.5 M3.3,12.7 L3.6,-6.8 C3.8,-7.7 5.3,-10.6 9.3,-10.6 C12.9,-10.6 13.2,-7.2 13.2,-5.1 C13.2,3.8 9.9,7.5 3.3,12.7"/>
<path class="KeySig" transform="matrix(0.992,0,0,0.992,320.711,1155)" d="M12,-15.5 C7,-15.5 4.1,-12.4 3.6,-11.8 L4,-43.9 C4,-44.7 3.4,-45.3 2.6,-45.3 L1.4,-45.3 C0.6,-45.3 0,-44.7 0,-43.9 L0.5,16.2 C0.5,17 1.1,17.6 1.9,17.6 C2.1,17.6 2.5,17.5 2.7,17.4 C11.3,13.1 20.3,4.9 20.3,-5.4 C20.3,-10.6 17.9,-15.5 12,-15.5 M3.3,12.7 L3.6,-6.8 C3.8,-7.7 5.3,-10.6 9.3,-10.6 C12.9,-10.6 13.2,-7.2 13.2,-5.1 C13.2,3.8 9.9,7.5 3.3,12.7"/>
<path class="KeySig" transform="matrix(0.992,0,0,0.992,348.285,1117.8)" d="M12,-15.5 C7,-15.5 4.1,-12.4 3.6,-11.8 L4,-43.9 C4,-44.7 3.4,-45.3 2.6,-45.3 L1.4,-45.3 C0.6,-45.3 0,-44.7 0,-43.9 L0.5,16.2 C0.5,17 1.1,17.6 1.9,17.6 C2.1,17.6 2.5,17.5 2.7,17.4 C11.3,13.1 20.3,4.9 20.3,-5.4 C20.3,-10.6 17.9,-15.5 12,-15.5 M3.3,12.7 L3.6,-6.8 C3.8,-7.7 5.3,-10.6 9.3,-10.6 C12.9,-10.6 13.2,-7.2 13.2,-5.1 C13.2,3.8 9.9,7.5 3.3,12.7"/>
<path class="KeySig" transform="matrix(0.992,0,0,0.992,375.86,1167.4)" d="M12,-15.5 C7,-15.5 4.1,-12.4 3.6,-11.8 L4,-43.9 C4,-44.7 3.4,-45.3 2.6,-45.3 L1.4,-45.3 C0.6,-45.3 0,-44.7 0,-43.9 L0.5,16.2 C0.5,17 1.1,17.6 1.9,17.6 C2.1,17.6 2.5,17.5 2.7,17.4 C11.3,13.1 20.3,4.9 20.3,-5.4 C20.3,-10.6 17.9,-15.5 12,-15.5 M3.3,12.7 L3.6,-6.8 C3.8,-7.7 5.3,-10.6 9.3,-10.6 C12.9,-10.6 13.2,-7.2 13.2,-5.1 C13.2,3.8 9.9,7.5 3.3,12.7"/>
<path class="KeySig" transform="matrix(0.992,0,0,0.992,403.419,1130.2)" d="M12,-15.5 C7,-15.5 4.1,-12.4 3.6,-11.8 L4,-43.9 C4,-44.7 3.4,-45.3 2.6,-45.3 L1.4,-45.3 C0.6,-45.3 0,-44.7 0,-43.9 L0.5,16.2 C0.5,17 1.1,17.6 1.9,17.6 C2.1,17.6 2.5,17.5 2.7,17.4 C11.3,13.1 20.3,4.9 20.3,-5.4 C20.3,-10.6 17.9,-15.5 12,-15.5 M3.3,12.7 L3.6,-6.8 C3.8,-7.7 5.3,-10.6 9.3,-10.6 C12.9,-10.6 13.2,-7.2 13.2,-5.1 C13.2,3.8 9.9,7.5 3.3,12.7"/>
<path class="KeySig" transform="matrix(0.992,0,0,0.992,320.711,683.798)" d="M12,-15.5 C7,-15.5 4.1,-12.4 3.6,-11.8 L4,-43.9 C4,-44.7 3.4,-45.3 2.6,-45.3 L1.4,-45.3 C0.6,-45.3 0,-44.7 0,-43.9 L0.5,16.2 C0.5,17 1.1,17.6 1.9,17.6 C2.1,17.6 2.5,17.5 2.7,17.4 C11.3,13.1 20.3,4.9 20.3,-5.4 C20.3,-10.6 17.9,-15.5 12,-15.5 M3.3,12.7 L3.6,-6.8 C3.8,-7.7 5.3,-10.6 9.3,-10.6 C12.9,-10.6 13.2,-7.2 13.2,-5.1 C13.2,3.8 9.9,7.5 3.3,12.7"/>
<path class="KeySig" transform="matrix(0.992,0,0,0.992,348.285,646.598)" d="M12,-15.5 C7,-15.5 4.1,-12.4 3.6,-11.8 L4,-43.9 C4,-44.7 3.4,-45.3 2.6,-45.3 L1.4,-45.3 C0.6,-45.3 0,-44.7 0,-43.9 L0.5,16.2 C0.5,17 1.1,17.6 1.9,17.6 C2.1,17.6 2.5,17.5 2.7,17.4 C11.3,13.1 20.3,4.9 20.3,-5.4 C20.3,-10.6 17.9,-15.5 12,-15.5 M3.3,12.7 L3.6,-6.8 C3.8,-7.7 5.3,-10.6 9.3,-10.6 C12.9,-10.6 13.2,-7.2 13.2,-5.1 C13.2,3.8 9.9,7.5 3.3,12.7"/>
<path class="KeySig" transform="matrix(0.992,0,0,0.992,375.86,696.198)" d="M12,-15.5 C7,-15.5 4.1,-12.4 3.6,-11.8 L4,-43.9 C4,-44.7 3.4,-45.3 2.6,-45.3 L1.4,-45.3 C0.6,-45.3 0,-44.7 0,-43.9 L0.5,16.2 C0.5,17 1.1,17.6 1.9,17.6 C2.1,17.6 2.5,17.5 2.7,17.4 C11.3,13.1 20.3,4.9 20.3,-5.4 C20.3,-10.6 17.9,-15.5 12,-15.5 M3.3,12.7 L3.6,-6.8 C3.8,-7.7 5.3,-10.6 9.3,-10.6 C12.9,-10.6 13.2,-7.2 13.2,-5.1 C13.2,3.8 9.9,7.5 3.3,12.7"/>
<path class="KeySig" transform="matrix(0.992,0,0,0.992,403.419,658.998)" d="M12,-15.5 C7,-15.5 4.1,-12.4 3.6,-11.8 L4,-43.9 C4,-44.7 3.4,-45.3 2.6,-45.3 L1.4,-45.3 C0.6,-45.3 0,-44.7 0,-43.9 L0.5,16.2 C0.5,17 1.1,17.6 1.9,17.6 C2.1,17.6 2.5,17.5 2.7,17.4 C11.3,13.1 20.3,4.9 20.3,-5.4 C20.3,-10.6 17.9,-15.5 12,-15.5 M3.3,12.7 L3.6,-6.8 C3.8,-7.7 5.3,-10.6 9.3,-10.6 C12.9,-10.6 13.2,-7.2 13.2,-5.1 C13.2,3.8 9.9,7.5 3.3,12.7"/>
<path class="KeySig" transform="matrix(0.992,0,0,0.992,320.711,2097.4)" d="M12,-15.5 C7,-15.5 4.1,-12.4 3.6,-11.8 L4,-43.9 C4,-44.7 3.4,-45.3 2.6,-45.3 L1.4,-45.3 C0.6,-45.3 0,-44.7 0,-43.9 L0.5,16.2 C0.5,17 1.1,17.6 1.9,17.6 C2.1,17.6 2.5,17.5 2.7,17.4 C11.3,13.1 20.3,4.9 20.3,-5.4 C20.3,-10.6 17.9,-15.5 12,-15.5 M3.3,12.7 L3.6,-6.8 C3.8,-7.7 5.3,-10.6 9.3,-10.6 C12.9,-10.6 13.2,-7.2 13.2,-5.1 C13.2,3.8 9.9,7.5 3.3,12.7"/>
<path class="KeySig" transform="matrix(0.992,0,0,0.992,348.285,2060.2)" d="M12,-15.5 C7,-15.5 4.1,-12.4 3.6,-11.8 L4,-43.9 C4,-44.7 3.4,-45.3 2.6,-45.3 L1.4,-45.3 C0.6,-45.3 0,-44.7 0,-43.9 L0.5,16.2 C0.5,17 1.1,17.6 1.9,17.6 C2.1,17.6 2.5,17.5 2.7,17.4 C11.3,13.1 20.3,4.9 20.3,-5.4 C20.3,-10.6 17.9,-15.5 12,-15.5 M3.3,12.7 L3.6,-6.8 C3.8,-7.7 5.3,-10.6 9.3,-10.6 C12.9,-10.6 13.2,-7.2 13.2,-5.1 C13.2,3.8 9.9,7.5 3.3,12.7"/>
<path class="KeySig" transform="matrix(0.992,0,0,0.992,375.86,2109.8)" d="M12,-15.5 C7,-15.5 4.1,-12.4 3.6,-11.8 L4,-43.9 C4,-44.7 3.4,-45.3 2.6,-45.3 L1.4,-45.3 C0.6,-45.3 0,-44.7 0,-43.9 L0.5,16.2 C0.5,17 1.1,17.6 1.9,17.6 C2.1,17.6 2.5,17.5 2.7,17.4 C11.3,13.1 20.3,4.9 20.3,-5.4 C20.3,-10.6 17.9,-15.5 12,-15.5 M3.3,12.7 L3.6,-6.8 C3.8,-7.7 5.3,-10.6 9.3,-10.6 C12.9,-10.6 13.2,-7.2 13.2,-5.1 C13.2,3.8 9.9,7.5 3.3,12.7"/>
<path class="KeySig" transform="matrix(0.992,0,0,0.992,403.419,2072.6)" d="M12,-15.5 C7,-15.5 4.1,-12.4 3.6,-11.8 L4,-43.9 C4,-44.7 3.4,-45.3 2.6,-45.3 L1.4,-45.3 C0.6,-45.3 0,-44.7 0,-43.9 L0.5,16.2 C0.5,17 1.1,17.6 1.9,17.6 C2.1,17.6 2.5,17.5 2.7,17.4 C11.3,13.1 20.3,4.9 20.3,-5.4 C20.3,-10.6 17.9,-15.5 12,-15.5 M3.3,12.7 L3.6,-6.8 C3.8,-7.7 5.3,-10.6 9.3,-10.6 C12.9,-10.6 13.2,-7.2 13.2,-5.1 C13.2,3.8 9.9,7.5 3.3,12.7"/>
<path class="KeySig" transform="matrix(0.992,0,0,0.992,320.711,1626.2)" d="M12,-15.5 C7,-15.5 4.1,-12.4 3.6,-11.8 L4,-43.9 C4,-44.7 3.4,-45.3 2.6,-45.3 L1.4,-45.3 C0.6,-45.3 0,-44.7 0,-43.9 L0.5,16.2 C0.5,17 1.1,17.6 1.9,17.6 C2.1,17.6 2.5,17.5 2.7,17.4 C11.3,13.1 20.3,4.9 20.3,-5.4 C20.3,-10.6 17.9,-15.5 12,-15.5 M3.3,12.7 L3.6,-6.8 C3.8,-7.7 5.3,-10.6 9.3,-10.6 C12.9,-10.6 13.2,-7.2 13.2,-5.1 C13.2,3.8 9.9,7.5 3.3,12.7"/>
<path class="KeySig" transform="matrix(0.992,0,0,0.992,348.285,1589)" d="M12,-15.5 C7,-15.5 4.1,-12.4 3.6,-11.8 L4,-43.9 C4,-44.7 3.4,-45.3 2.6,-45.3 L1.4,-45.3 C0.6,-45.3 0,-44.7 0,-43.9 L0.5,16.2 C0.5,17 1.1,17.6 1.9,17.6 C2.1,17.6 2.5,17.5 2.7,17.4 C11.3,13.1 20.3,4.9 20.3,-5.4 C20.3,-10.6 17.9,-15.5 12,-15.5 M3.3,12.7 L3.6,-6.8 C3.8,-7.7 5.3,-10.6 9.3,-10.6 C12.9,-10.6 13.2,-7.2 13.2,-5.1 C13.2,3.8 9.9,7.5 3.3,12.7"/>
<path class="KeySig" transform="matrix(0.992,0,0,0.992,375.86,1638.6)" d="M12,-15.5 C7,-15.5 4.1,-12.4 3.6,-11.8 L4,-43.9 C4,-44.7 3.4,-45.3 2.6,-45.3 L1.4,-45.3 C0.6,-45.3 0,-44.7 0,-43.9 L0.5,16.2 C0.5,17 1.1,17.6 1.9,17.6 C2.1,17.6 2.5,17.5 2.7,17.4 C11.3,13.1 20.3,4.9 20.3,-5.4 C20.3,-10.6 17.9,-15.5 12,-15.5 M3.3,12.7 L3.6,-6.8 C3.8,-7.7 5.3,-10.6 9.3,-10.6 C12.9,-10.6 13.2,-7.2 13.2,-5.1 C13.2,3.8 9.9,7.5 3.3,12.7"/>
<path class="KeySig" transform="matrix(0.992,0,0,0.992,403.419,1601.4)" d="M12,-15.5 C7,-15.5 4.1,-12.4 3.6,-11.8 L4,-43.9 C4,-44.7 3.4,-45.3 2.6,-45.3 L1.4,-45.3 C0.6,-45.3 0,-44.7 0,-43.9 L0.5,16.2 C0.5,17 1.1,17.6 1.9,17.6 C2.1,17.6 2.5,17.5 2.7,17.4 C11.3,13.1 20.3,4.9 20.3,-5.4 C20.3,-10.6 17.9,-15.5 12,-15.5 M3.3,12.7 L3.6,-6.8 C3.8,-7.7 5.3,-10.6 9.3,-10.6 C12.9,-10.6 13.2,-7.2 13.2,-5.1 C13.2,3.8 9.9,7.5 3.3,12.7"/>
<path class="TimeSig" transform="matrix(0.992,0,0,0.992,450.26,659.494)" d="M34.2,3.9 C33.4,6.1 31.4,13.3 26.5,13.3 C20,13.3 18.6,9.3 13.2,9.3 C12.4,9.3 11.6,9.4 10.6,9.6 C10.6,9.6 13.1,5.8 23.7,2.5 C34.3,-0.8 37,-6 37,-12 C37,-16.2 35.1,-24.5 20,-24.5 C4.9,-24.5 2.1,-15.4 2.1,-10.8 C2.1,-6.7 5.5,-3.4 9.6,-3.4 C13.7,-3.4 17,-6.7 17,-10.8 C17,-13.6 15,-16.7 12.4,-17.7 C12.1,-17.8 11.7,-18.3 11.7,-18.8 C11.7,-19.4 12.2,-20.1 14,-20.6 C14.5,-20.8 15.9,-21.1 17.4,-21.1 C23.1,-21.1 24.2,-17.6 24.2,-12.5 C24.2,-0.8 10.3,1.7 4.5,10.4 C4.5,10.4 1.5,14.6 1.5,19.3 C1.5,24 3.9,24.3 5.1,24.3 C6.7,24.3 8.4,23 8.4,21.2 C8.4,20.8 8.3,20.4 8.1,19.9 C7.5,18.5 7.3,17.4 7.3,16.6 C7.3,16.3 7.3,16 7.4,15.7 C7.5,15.1 8.3,14.1 10.7,14.1 C13.6,14.1 14.7,17.5 16.5,20.1 C18.3,22.7 21.1,24.3 24.3,24.3 C27.5,24.3 31.8,22 33.6,18.3 C35.4,14.6 37.7,7.1 37.7,4.4 C37.7,3.1 36.9,2.5 36,2.5 C35.3,2.5 34.6,2.9 34.2,3.9"/>
<path class="TimeSig" transform="matrix(0.992,0,0,0.992,446.989,708.598)" d="M20.8,12.7 L20.8,20.1 L12.5,20.1 C11.8,20.1 11.1,20.7 11.1,21.5 L11.1,23.4 C11.1,24.2 11.8,24.8 12.5,24.8 L42.8,24.8 C43.6,24.8 44.2,24.2 44.2,23.4 L44.2,21.5 C44.2,20.7 43.6,20.1 42.8,20.1 L33.9,20.1 L33.9,12.7 L42.8,12.7 C43.6,12.7 44.2,12 44.2,11.2 L44.2,9.3 C44.2,8.6 43.6,7.9 42.8,7.9 L33.9,7.9 L33.9,-8 C33.9,-8.6 33.6,-9.1 33.1,-9.3 L31.9,-9.9 C31.7,-10 31.4,-10.1 31.2,-10.1 C30.9,-10 30.5,-9.9 30.3,-9.7 L21.2,-1.4 C20.9,-1.1 20.8,-0.7 20.8,-0.3 L20.8,7.9 L9.3,7.9 C9.3,7.9 20.4,-4.1 32.2,-19.9 C32.6,-20.4 32.7,-20.9 32.7,-21.3 C32.7,-21.8 32.5,-22.2 32.4,-22.3 L30.2,-24.5 C30,-24.7 29.6,-24.9 29.2,-24.9 C28.6,-24.9 15.1,-24.9 14.4,-24.9 C13.6,-24.9 13.1,-24.3 13,-23.7 C13,-23.7 12.5,-16.3 9.9,-8.2 C7.3,-0.1 4.3,4.9 1.7,8.6 C1.7,8.6 1.4,9.1 1.4,9.7 C1.4,9.9 1.4,10.1 1.5,10.3 C1.9,11 2.5,12.1 2.5,12.1 C2.5,12.1 2.7,12.7 3.6,12.7 L20.8,12.7 "/>
<path class="Rest" transform="matrix(0.992,0,0,0.992,2552.9,1155)" d="M23,16.6 C22.9,16.5 22.7,16.3 22.4,15.9 L10.9,1.7 C10.8,1.6 10.7,1.3 10.7,1.1 C10.7,0.8 10.8,0.4 10.9,0.2 L21.1,-15.2 C21.2,-15.4 21.3,-15.7 21.3,-15.9 L21.3,-16.8 C21.3,-17.1 21.2,-17.4 21,-17.6 L4.8,-39.5 C4.8,-39.5 4.4,-40.1 3.8,-40.1 C3.5,-40.1 3.3,-40.1 3,-39.8 C2.6,-39.5 2.5,-39.1 2.5,-38.8 C2.5,-38.2 2.8,-37.7 2.8,-37.7 L10.4,-27.3 C10.6,-27 10.7,-26.6 10.7,-26.1 C10.7,-25.7 10.6,-25.2 10.4,-24.9 L0.3,-9.5 C0.2,-9.3 0.1,-8.9 0.1,-8.7 L0.1,-7.8 C0.1,-7.5 0.2,-7.2 0.4,-7 L11.6,6.9 C11.2,6.8 10.3,6.6 9.1,6.6 C4,6.6 0,10.8 0,15.9 C0,17.3 0.3,18.7 1.1,19.8 C3.2,23 10.7,32.5 10.7,32.5 C10.7,32.5 11.2,33.1 11.9,33.1 C12.1,33.1 12.3,33.1 12.5,32.9 C13,32.5 13.2,32.1 13.2,31.7 C13.2,31.3 13,31 12.9,30.8 C12.6,30.3 9.4,24.5 9.4,24.5 C9.4,24.5 8.7,23.1 8.7,21.3 C8.7,18.1 11.1,15.5 14.3,15.5 C15.6,15.5 16.7,15.9 17.5,16.4 L21.4,18.9 C21.4,18.9 21.8,19.1 22.2,19.1 C22.6,19.1 22.9,19 23.2,18.6 C23.4,18.3 23.5,18 23.5,17.7 C23.5,17.4 23.4,17.2 23.2,16.9 L23,16.6 "/>
<path class="Beam" fill-rule="evenodd" d="M2016.57,2066.39 L2153.18,2072.59 L2153.18,2085 L2016.57,2078.8 L2016.57,2066.39 "/>
<path class="Beam" fill-rule="evenodd" d="M2321.04,2091.19 L2457.65,2084.99 L2457.65,2097.4 L2321.04,2103.6 L2321.04,2091.19 "/>
<path class="Beam" fill-rule="evenodd" d="M1104.4,1123.99 L1245.28,1130.19 L1245.28,1142.6 L1104.4,1136.4 L1104.4,1123.99 "/>
<path class="Beam" fill-rule="evenodd" d="M1659.54,2016.79 L1930.04,2029.19 L1930.04,2041.6 L1659.54,2029.2 L1659.54,2016.79 "/>
<path class="Beam" fill-rule="evenodd" d="M1659.54,2035.39 L1930.04,2047.79 L1930.04,2060.2 L1659.54,2047.8 L1659.54,2035.39 "/>
<path class="Beam" fill-rule="evenodd" d="M1380.71,1086.74 L1521.6,1068.14 L1521.6,1080.65 L1380.71,1099.25 L1380.71,1086.74 "/>
<path class="Beam" fill-rule="evenodd" d="M1355.07,2029.14 L1491.68,2010.54 L1491.68,2023.06 L1355.07,2041.66 L1355.07,2029.14 "/>
<path class="Beam" fill-rule="evenodd" d="M1679.11,603.192 L1944.82,615.592 L1944.82,628.005 L1679.11,615.605 L1679.11,603.192 "/>
<path class="Beam" fill-rule="evenodd" d="M1679.11,621.792 L1944.82,634.192 L1944.82,646.605 L1679.11,634.205 L1679.11,621.792 "/>
<path class="Beam" fill-rule="evenodd" d="M1693.73,1074.39 L1972.77,1086.79 L1972.77,1099.2 L1693.73,1086.8 L1693.73,1074.39 "/>
<path class="Beam" fill-rule="evenodd" d="M1693.73,1092.99 L1972.77,1105.39 L1972.77,1117.8 L1693.73,1105.4 L1693.73,1092.99 "/>
<path class="Beam" fill-rule="evenodd" d="M1087.31,2066.39 L1223.92,2072.59 L1223.92,2085 L1087.31,2078.8 L1087.31,2066.39 "/>
<path class="Beam" fill-rule="evenodd" d="M1126.3,2537.59 L1272.66,2543.79 L1272.66,2556.2 L1126.3,2550 L1126.3,2537.59 "/>
<path class="Beam" fill-rule="evenodd" d="M2062.15,1124 L2203.03,1124 L2203.03,1136.4 L2062.15,1136.4 L2062.15,1124 "/>
<path class="Beam" fill-rule="evenodd" d="M1379.43,615.539 L1513.65,596.939 L1513.65,609.458 L1379.43,628.058 L1379.43,615.539 "/>
<path class="Beam" fill-rule="evenodd" d="M782.833,2091.2 L919.445,2091.2 L919.445,2103.6 L782.833,2103.6 L782.833,2091.2 "/>
<path class="Beam" fill-rule="evenodd" d="M791.379,1148.8 L932.264,1148.8 L932.264,1161.2 L791.379,1161.2 L791.379,1148.8 "/>
<path class="Beam" fill-rule="evenodd" d="M2029.75,652.792 L2163.96,658.992 L2163.96,671.405 L2029.75,665.205 L2029.75,652.792 "/>
<path class="Beam" fill-rule="evenodd" d="M1413.56,2500.35 L1559.92,2481.75 L1559.92,2494.25 L1413.56,2512.85 L1413.56,2500.35 "/>
<path class="Beam" fill-rule="evenodd" d="M1116.46,652.792 L1250.67,658.992 L1250.67,671.405 L1116.46,665.205 L1116.46,652.792 "/>
<path class="Beam" fill-rule="evenodd" d="M515.065,2066.39 L651.677,2072.59 L651.677,2085 L515.065,2078.8 L515.065,2066.39 "/>
<path class="Beam" fill-rule="evenodd" d="M515.065,1564.17 L653.072,1576.57 L653.072,1589.02 L515.065,1576.62 L515.065,1564.17 "/>
<path class="Beam" fill-rule="evenodd" d="M816.776,677.598 L950.992,677.598 L950.992,689.998 L816.776,689.998 L816.776,677.598 "/>
<path class="Beam" fill-rule="evenodd" d="M1670.7,1551.79 L1808.71,1557.99 L1808.71,1570.4 L1670.7,1564.2 L1670.7,1551.79 "/>
<path class="Beam" fill-rule="evenodd" d="M802.329,2562.4 L948.689,2562.4 L948.689,2574.8 L802.329,2574.8 L802.329,2562.4 "/>
<path class="Beam" fill-rule="evenodd" d="M515.065,1123.99 L655.95,1130.19 L655.95,1142.6 L515.065,1136.4 L515.065,1123.99 "/>
<path class="Beam" fill-rule="evenodd" d="M1737.53,2487.99 L2027.52,2500.39 L2027.52,2512.8 L1737.53,2500.4 L1737.53,2487.99 "/>
<path class="Beam" fill-rule="evenodd" d="M1737.53,2506.59 L2027.52,2518.99 L2027.52,2531.4 L1737.53,2519 L1737.53,2506.59 "/>
<path class="Beam" fill-rule="evenodd" d="M2329.43,677.592 L2463.64,671.392 L2463.64,683.805 L2329.43,690.005 L2329.43,677.592 "/>
<path class="Beam" fill-rule="evenodd" d="M785.623,1576.6 L923.629,1576.6 L923.629,1589 L785.623,1589 L785.623,1576.6 "/>
<path class="Beam" fill-rule="evenodd" d="M2489.58,1688.17 L2627.59,1700.57 L2627.59,1713.02 L2489.58,1700.62 L2489.58,1688.17 "/>
<path class="Beam" fill-rule="evenodd" d="M1092.88,1551.79 L1230.89,1557.99 L1230.89,1570.4 L1092.88,1564.2 L1092.88,1551.79 "/>
<path class="Beam" fill-rule="evenodd" d="M1941.26,1551.79 L2079.27,1557.99 L2079.27,1570.4 L1941.26,1564.2 L1941.26,1551.79 "/>
<path class="Beam" fill-rule="evenodd" d="M2219.02,1688.17 L2357.03,1700.57 L2357.03,1713.02 L2219.02,1700.62 L2219.02,1688.17 "/>
<path class="Beam" fill-rule="evenodd" d="M553.8,652.792 L688.016,658.992 L688.016,671.405 L553.8,665.205 L553.8,652.792 "/>
<path class="Beam" fill-rule="evenodd" d="M1363.44,1570.4 L1501.45,1570.4 L1501.45,1582.8 L1363.44,1582.8 L1363.44,1570.4 "/>
<path class="Beam" fill-rule="evenodd" d="M2120.55,2518.99 L2266.91,2512.79 L2266.91,2525.2 L2120.55,2531.4 L2120.55,2518.99 "/>
<path class="Beam" fill-rule="evenodd" d="M515.065,2537.59 L661.425,2543.79 L661.425,2556.2 L515.065,2550 L515.065,2537.59 "/>
</svg>
