<?xml version="1.0" encoding="UTF-8" standalone="no"?>
<svg width="2977.2px" height="4208.4px" viewBox="0 0 2977.2 4208.4"
 xmlns="http://www.w3.org/2000/svg" xmlns:xlink="http://www.w3.org/1999/xlink" version="1.2" baseProfile="tiny">
<title>ローソンストア100</title>
<desc>Generated by MuseScore Studio 4.4.3</desc>
<path class="" fill="#ffffff" fill-rule="evenodd" d="M0,0 L2977.2,0 L2977.2,4208.4 L0,4208.4 L0,0 "/>
<polyline class="StaffLines" fill="none" stroke="#000000" stroke-width="2.73" stroke-linejoin="bevel" points="212.598,634.198 2764.6,634.198"/>
<polyline class="StaffLines" fill="none" stroke="#000000" stroke-width="2.73" stroke-linejoin="bevel" points="212.598,658.998 2764.6,658.998"/>
<polyline class="StaffLines" fill="none" stroke="#000000" stroke-width="2.73" stroke-linejoin="bevel" points="212.598,683.798 2764.6,683.798"/>
<polyline class="StaffLines" fill="none" stroke="#000000" stroke-width="2.73" stroke-linejoin="bevel" points="212.598,708.598 2764.6,708.598"/>
<polyline class="StaffLines" fill="none" stroke="#000000" stroke-width="2.73" stroke-linejoin="bevel" points="212.598,733.398 2764.6,733.398"/>
<polyline class="StaffLines" fill="none" stroke="#000000" stroke-width="2.73" stroke-linejoin="bevel" points="212.598,1316.2 2764.6,1316.2"/>
<polyline class="StaffLines" fill="none" stroke="#000000" stroke-width="2.73" stroke-linejoin="bevel" points="212.598,1341 2764.6,1341"/>
<polyline class="StaffLines" fill="none" stroke="#000000" stroke-width="2.73" stroke-linejoin="bevel" points="212.598,1365.8 2764.6,1365.8"/>
<polyline class="StaffLines" fill="none" stroke="#000000" stroke-width="2.73" stroke-linejoin="bevel" points="212.598,1390.6 2764.6,1390.6"/>
<polyline class="StaffLines" fill="none" stroke="#000000" stroke-width="2.73" stroke-linejoin="bevel" points="212.598,1415.4 2764.6,1415.4"/>
<path class="Text" d="M1090.14,291.25 L1090.14,299.06 L1098.5,299.06 C1098.28,296.75 1098.17,293.89 1098.17,290.59 L1098.17,231.08 C1098.17,226.57 1098.17,225.14 1098.5,222.5 C1095.97,222.83 1094.65,222.83 1089.92,222.83 L1031.29,222.83 C1027,222.83 1024.91,222.72 1022.71,222.5 C1023.04,225.14 1023.15,226.57 1023.15,231.08 L1023.15,290.81 C1023.15,294.44 1023.04,296.64 1022.71,299.06 L1031.18,299.06 L1031.18,291.25 L1090.14,291.25 M1090.14,284.1 L1031.18,284.1 L1031.18,230.09 L1090.14,230.09 L1090.14,284.1 M1125.23,262.54 C1128.53,262.21 1130.84,262.1 1138.87,262.1 L1202.67,262.1 C1210.04,262.1 1212.57,262.21 1216.09,262.54 L1216.09,253.63 C1212.68,254.07 1210.92,254.18 1202.78,254.18 L1138.87,254.18 C1131.39,254.18 1128.42,254.07 1125.23,253.52 L1125.23,262.54 M1241.94,223.82 C1248.1,233.61 1252.94,245.05 1256.35,257.92 L1264.49,254.51 C1259.87,239.55 1256.9,232.95 1249.75,220.74 L1241.94,223.82 M1309.04,220.19 C1308.82,223.49 1308.6,225.25 1307.72,229.32 C1302.99,250.33 1295.51,265.95 1284.07,278.05 C1275.82,286.85 1267.46,292.57 1255.14,297.96 C1257.89,300.05 1258.77,301.04 1260.97,304.67 C1273.07,298.73 1281.98,292.24 1290.34,283.33 C1302.11,270.68 1310.8,253.3 1315.42,233.06 C1317.18,225.47 1317.18,225.47 1318.28,222.61 L1309.04,220.19 M1352.82,228.44 C1362.39,234.27 1371.08,241.42 1379,250 L1384.72,243.18 C1376.8,235.37 1369.98,229.98 1358.21,222.5 L1352.82,228.44 M1353.59,299.94 C1356.34,299.06 1357.22,298.84 1360.19,298.18 C1378.56,294 1389.89,289.49 1401.22,281.79 C1415.74,271.78 1425.97,258.91 1434.77,239.77 C1431.69,237.68 1430.59,236.69 1428.06,233.28 C1419.15,256.6 1404.41,272.77 1383.18,282.23 C1372.95,286.96 1359.75,290.37 1351.17,290.7 L1353.59,299.94 M1540.36,294.33 C1527.82,281.02 1518.14,272.33 1503.73,261.33 C1510.55,252.86 1515.72,244.17 1521.88,230.53 C1523.09,227.78 1523.86,226.46 1524.96,225.14 L1520.34,220.41 C1518.47,221.07 1517.15,221.18 1513.3,221.29 L1474.03,221.73 C1472.49,221.73 1471.5,221.73 1471.17,221.73 C1467.43,221.73 1465.45,221.62 1462.48,221.18 L1462.7,230.09 C1465.89,229.54 1469.08,229.32 1474.03,229.21 L1510.77,228.66 C1512.09,228.66 1512.42,228.66 1513.41,228.55 C1513.3,228.88 1513.3,228.99 1513.08,229.32 C1512.86,229.87 1512.75,229.98 1512.53,230.64 C1504.5,249.89 1490.86,267.27 1473.26,280.25 C1464.79,286.52 1459.4,289.49 1450.93,292.9 C1453.68,295.65 1454.56,296.86 1456.32,300.16 C1464.46,296.09 1470.29,292.46 1477.88,286.96 C1485.8,281.13 1491.19,276.07 1498.89,267.27 C1512.97,278.16 1525.4,290.15 1534.09,301.26 L1540.36,294.33 M1593.27,303.68 C1592.83,300.6 1592.72,298.18 1592.72,292.02 L1592.72,258.91 C1592.72,256.16 1592.61,254.62 1592.28,252.42 L1592.5,252.31 C1593.49,253.08 1594.26,253.52 1595.91,254.18 C1611.42,260.56 1626.6,268.7 1636.94,275.96 L1641.67,267.82 C1622.42,256.71 1609.66,250.66 1592.72,244.61 L1592.72,224.04 C1592.72,217.77 1592.83,215.46 1593.27,212.6 L1583.81,212.6 C1584.25,215.35 1584.47,217.99 1584.47,223.82 L1584.47,292.13 C1584.47,298.07 1584.25,300.71 1583.81,303.68 L1593.27,303.68 M1751.67,219.09 C1749.69,219.86 1749.69,219.86 1742.32,219.86 L1683.25,219.86 C1676.98,219.86 1673.9,219.64 1670.16,219.09 L1670.16,227.56 C1674.23,227.12 1677.09,227.01 1683.14,227.01 L1745.62,227.01 C1742.43,233.28 1738.36,238.67 1733.3,243.4 C1728.13,248.24 1723.62,250.88 1715.92,253.85 C1718.78,256.38 1719.66,257.37 1721.31,260.12 C1735.61,253.52 1745.84,243.51 1753.43,228.77 C1754.75,226.13 1754.97,225.8 1756.07,224.37 L1751.67,219.09 M1703.71,238.23 C1704.04,240.32 1704.15,241.09 1704.15,244.17 C1704.15,265.62 1699.86,276.84 1688.2,286.19 C1682.48,290.92 1676.98,293.67 1668.07,296.31 C1670.71,299.06 1671.48,300.16 1673.13,303.68 C1686.44,298.62 1694.58,293.12 1701.29,284.65 C1708.77,275.19 1711.85,264.3 1712.18,245.93 C1712.29,240.21 1712.29,240.21 1712.62,238.23 L1703.71,238.23 "/>
<path class="Text" d="M1801.17,222.83 C1797.43,227.34 1787.31,230.75 1777.19,230.97 L1777.19,235.7 L1786.87,235.7 C1793.25,235.81 1793.91,236.47 1793.69,242.63 L1793.69,286.74 C1793.69,292.35 1793.69,292.57 1793.03,293.56 C1792.15,294.66 1790.06,295.1 1783.9,295.1 L1776.75,295.1 L1776.75,300.27 L1820.31,300.27 L1820.31,295.1 L1814.26,295.1 C1808.1,295.1 1806.01,294.66 1805.13,293.56 C1804.36,292.57 1804.36,292.46 1804.36,286.74 L1804.36,241.31 C1804.36,235.15 1804.58,229.98 1805.13,222.83 L1801.17,222.83 M1858.15,222.83 C1842.75,222.83 1831.53,239.55 1831.53,262.65 C1831.53,285.31 1842.42,301.92 1857.27,301.92 C1872.67,301.92 1883.45,285.86 1883.45,262.98 C1883.45,251.32 1881.03,241.64 1876.41,234.05 C1872.12,227.12 1865.08,222.83 1858.15,222.83 M1857.38,227.56 C1861.01,227.56 1864.53,229.98 1867.17,234.38 C1870.14,239.55 1871.13,245.82 1871.13,260.89 C1871.13,276.4 1870.36,283.66 1868.16,288.5 C1865.63,293.89 1861.67,297.19 1857.49,297.19 C1853.75,297.19 1850.34,294.77 1847.7,290.37 C1844.62,285.2 1843.74,278.38 1843.74,260.34 C1843.74,247.47 1844.51,241.09 1846.71,236.25 C1849.24,230.75 1853.2,227.56 1857.38,227.56 M1919.31,222.83 C1903.91,222.83 1892.69,239.55 1892.69,262.65 C1892.69,285.31 1903.58,301.92 1918.43,301.92 C1933.83,301.92 1944.61,285.86 1944.61,262.98 C1944.61,251.32 1942.19,241.64 1937.57,234.05 C1933.28,227.12 1926.24,222.83 1919.31,222.83 M1918.54,227.56 C1922.17,227.56 1925.69,229.98 1928.33,234.38 C1931.3,239.55 1932.29,245.82 1932.29,260.89 C1932.29,276.4 1931.52,283.66 1929.32,288.5 C1926.79,293.89 1922.83,297.19 1918.65,297.19 C1914.91,297.19 1911.5,294.77 1908.86,290.37 C1905.78,285.2 1904.9,278.38 1904.9,260.34 C1904.9,247.47 1905.67,241.09 1907.87,236.25 C1910.4,230.75 1914.36,227.56 1918.54,227.56"/>
<path class="MeasureNumber" d="M216.922,1251.28 C215.682,1252.04 215.322,1252.52 215.322,1253.32 C215.322,1254.08 215.962,1254.64 216.762,1254.64 C217.802,1254.64 218.402,1253.88 218.522,1252.4 C219.762,1251.4 221.082,1250.96 222.682,1250.96 C225.642,1250.96 227.282,1252.8 227.282,1256.12 C227.282,1261.32 223.922,1265.56 219.802,1265.56 C217.442,1265.56 215.522,1264.44 215.522,1263.12 C215.522,1262.88 215.562,1262.8 215.762,1262.68 C217.042,1262.08 218.082,1261.64 218.082,1259.96 C218.082,1258.68 217.082,1257.72 215.682,1257.72 C213.922,1257.72 212.602,1259.2 212.602,1261.12 C212.602,1264.64 215.642,1267.2 219.922,1267.2 C226.402,1267.2 231.642,1262.04 231.642,1255.64 C231.642,1251.6 228.562,1248.76 224.202,1248.76 C222.482,1248.76 221.082,1249.12 219.162,1250.08 L221.402,1242.52 C223.522,1242.96 225.202,1243.16 226.642,1243.16 C229.282,1243.16 231.642,1242.32 232.962,1240.92 C233.642,1240.12 234.042,1239.44 234.042,1238.92 C234.042,1238.68 233.922,1238.44 233.762,1238.44 C233.642,1238.44 233.562,1238.48 233.322,1238.6 C232.002,1239.24 230.322,1239.6 228.762,1239.6 C226.362,1239.6 223.522,1239.2 220.562,1238.44 L216.922,1251.28 "/>
<polyline class="BarLine" fill="none" stroke="#000000" stroke-width="4.46" stroke-linejoin="bevel" points="2762.37,1314.83 2762.37,1416.76"/>
<polyline class="BarLine" fill="none" stroke="#000000" stroke-width="4.46" stroke-linejoin="bevel" points="2346,1314.83 2346,1416.76"/>
<polyline class="BarLine" fill="none" stroke="#000000" stroke-width="4.46" stroke-linejoin="bevel" points="2762.37,632.834 2762.37,734.762"/>
<polyline class="BarLine" fill="none" stroke="#000000" stroke-width="4.46" stroke-linejoin="bevel" points="2259.44,632.834 2259.44,734.762"/>
<polyline class="BarLine" fill="none" stroke="#000000" stroke-width="4.46" stroke-linejoin="bevel" points="1661.21,632.834 1661.21,734.762"/>
<polyline class="BarLine" fill="none" stroke="#000000" stroke-width="4.46" stroke-linejoin="bevel" points="1082.42,1314.83 1082.42,1416.76"/>
<polyline class="BarLine" fill="none" stroke="#000000" stroke-width="4.46" stroke-linejoin="bevel" points="1031.06,632.834 1031.06,734.762"/>
<polyline class="BarLine" fill="none" stroke="#000000" stroke-width="4.46" stroke-linejoin="bevel" points="1706.3,1314.83 1706.3,1416.76"/>
<polyline class="LedgerLine" fill="none" stroke="#000000" stroke-width="3.97" stroke-linejoin="bevel" points="721.396,1440.2 769.988,1440.2"/>
<polyline class="LedgerLine" fill="none" stroke="#000000" stroke-width="3.97" stroke-linejoin="bevel" points="821.555,1440.2 870.147,1440.2"/>
<polyline class="Stem" fill="none" stroke="#000000" stroke-width="2.48" stroke-linejoin="bevel" points="426.39,1423.83 426.39,1341"/>
<polyline class="Stem" fill="none" stroke="#000000" stroke-width="2.48" stroke-linejoin="bevel" points="760.564,1436.23 760.564,1353.4"/>
<polyline class="Stem" fill="none" stroke="#000000" stroke-width="2.48" stroke-linejoin="bevel" points="875.86,704.63 875.86,621.997"/>
<polyline class="Stem" fill="none" stroke="#000000" stroke-width="2.48" stroke-linejoin="bevel" points="1740.78,1369.96 1740.78,1440.2"/>
<polyline class="Stem" fill="none" stroke="#000000" stroke-width="2.48" stroke-linejoin="bevel" points="942.944,692.23 942.944,615.598"/>
<polyline class="Stem" fill="none" stroke="#000000" stroke-width="2.48" stroke-linejoin="bevel" points="1897.49,1399.03 1897.49,1316.2"/>
<polyline class="Stem" fill="none" stroke="#000000" stroke-width="2.48" stroke-linejoin="bevel" points="783.671,717.03 783.671,634.198"/>
<polyline class="Stem" fill="none" stroke="#000000" stroke-width="2.48" stroke-linejoin="bevel" points="2024.46,1386.63 2024.46,1303.8"/>
<polyline class="Stem" fill="none" stroke="#000000" stroke-width="2.48" stroke-linejoin="bevel" points="1095.27,717.03 1095.27,634.198"/>
<polyline class="Stem" fill="none" stroke="#000000" stroke-width="2.48" stroke-linejoin="bevel" points="1481.12,1399.03 1481.12,1316.2"/>
<polyline class="Stem" fill="none" stroke="#000000" stroke-width="2.48" stroke-linejoin="bevel" points="1414.04,1399.03 1414.04,1316.4"/>
<polyline class="Stem" fill="none" stroke="#000000" stroke-width="2.48" stroke-linejoin="bevel" points="2410.22,1399.03 2410.22,1316.2"/>
<polyline class="Stem" fill="none" stroke="#000000" stroke-width="2.48" stroke-linejoin="bevel" points="1187.46,717.03 1187.46,634.397"/>
<polyline class="Stem" fill="none" stroke="#000000" stroke-width="2.48" stroke-linejoin="bevel" points="465.124,717.03 465.124,634.198"/>
<polyline class="Stem" fill="none" stroke="#000000" stroke-width="2.48" stroke-linejoin="bevel" points="1254.55,717.03 1254.55,634.198"/>
<polyline class="Stem" fill="none" stroke="#000000" stroke-width="2.48" stroke-linejoin="bevel" points="1313.88,1399.03 1313.88,1316.2"/>
<polyline class="Stem" fill="none" stroke="#000000" stroke-width="2.48" stroke-linejoin="bevel" points="1246.79,1399.03 1246.79,1316.4"/>
<polyline class="Stem" fill="none" stroke="#000000" stroke-width="2.48" stroke-linejoin="bevel" points="2291.55,1411.43 2291.55,1328.8"/>
<polyline class="Stem" fill="none" stroke="#000000" stroke-width="2.48" stroke-linejoin="bevel" points="1346.74,717.03 1346.74,634.397"/>
<polyline class="Stem" fill="none" stroke="#000000" stroke-width="2.48" stroke-linejoin="bevel" points="716.587,717.03 716.587,634.397"/>
<polyline class="Stem" fill="none" stroke="#000000" stroke-width="2.48" stroke-linejoin="bevel" points="1413.82,717.03 1413.82,634.198"/>
<polyline class="Stem" fill="none" stroke="#000000" stroke-width="2.48" stroke-linejoin="bevel" points="1146.63,1399.03 1146.63,1316.2"/>
<polyline class="Stem" fill="none" stroke="#000000" stroke-width="2.48" stroke-linejoin="bevel" points="2557.39,717.03 2557.39,634.198"/>
<polyline class="Stem" fill="none" stroke="#000000" stroke-width="2.48" stroke-linejoin="bevel" points="526.549,1423.83 526.549,1341.2"/>
<polyline class="Stem" fill="none" stroke="#000000" stroke-width="2.48" stroke-linejoin="bevel" points="1506.01,704.63 1506.01,621.997"/>
<polyline class="Stem" fill="none" stroke="#000000" stroke-width="2.48" stroke-linejoin="bevel" points="2440.53,717.03 2440.53,634.198"/>
<polyline class="Stem" fill="none" stroke="#000000" stroke-width="2.48" stroke-linejoin="bevel" points="1573.09,692.23 1573.09,615.598"/>
<polyline class="Stem" fill="none" stroke="#000000" stroke-width="2.48" stroke-linejoin="bevel" points="1027.97,1411.43 1027.97,1328.8"/>
<polyline class="Stem" fill="none" stroke="#000000" stroke-width="2.48" stroke-linejoin="bevel" points="2124.62,1386.63 2124.62,1304"/>
<polyline class="Stem" fill="none" stroke="#000000" stroke-width="2.48" stroke-linejoin="bevel" points="624.398,717.03 624.398,634.198"/>
<polyline class="Stem" fill="none" stroke="#000000" stroke-width="2.48" stroke-linejoin="bevel" points="1725.42,741.83 1725.42,658.998"/>
<polyline class="Stem" fill="none" stroke="#000000" stroke-width="2.48" stroke-linejoin="bevel" points="593.633,1423.83 593.633,1341"/>
<polyline class="Stem" fill="none" stroke="#000000" stroke-width="2.48" stroke-linejoin="bevel" points="1842.29,741.83 1842.29,658.998"/>
<polyline class="Stem" fill="none" stroke="#000000" stroke-width="2.48" stroke-linejoin="bevel" points="927.807,1423.83 927.807,1341"/>
<polyline class="Stem" fill="none" stroke="#000000" stroke-width="2.48" stroke-linejoin="bevel" points="1929.41,675.565 1929.41,751.998"/>
<polyline class="Stem" fill="none" stroke="#000000" stroke-width="2.48" stroke-linejoin="bevel" points="2191.39,1399.03 2191.39,1316.2"/>
<polyline class="Stem" fill="none" stroke="#000000" stroke-width="2.48" stroke-linejoin="bevel" points="860.723,1436.23 860.723,1353.6"/>
<polyline class="Stem" fill="none" stroke="#000000" stroke-width="2.48" stroke-linejoin="bevel" points="2323.66,717.03 2323.66,634.198"/>
<polyline class="Stem" fill="none" stroke="#000000" stroke-width="2.48" stroke-linejoin="bevel" points="2021.6,687.965 2021.6,764.299"/>
<polyline class="Stem" fill="none" stroke="#000000" stroke-width="2.48" stroke-linejoin="bevel" points="693.792,1423.83 693.792,1341.2"/>
<polyline class="Stem" fill="none" stroke="#000000" stroke-width="2.48" stroke-linejoin="bevel" points="2112.8,692.23 2112.8,615.598"/>
<polyline class="Stem" fill="none" stroke="#000000" stroke-width="2.48" stroke-linejoin="bevel" points="557.314,717.03 557.314,634.397"/>
<polyline class="Stem" fill="none" stroke="#000000" stroke-width="2.48" stroke-linejoin="bevel" points="2204.99,704.63 2204.99,621.997"/>
<path class="Hook" transform="matrix(0.992,0,0,0.992,874.62,621.798)" d="M0,22.7 C0,23 0.1,23.6 0.8,23.8 C5.1,25.2 13.7,30.6 20.2,41.7 C22,44.8 24.9,49.1 24.9,57.4 C24.9,64.6 23.1,72 20.4,79.2 C20.2,79.8 20.1,80.3 20.1,80.7 C20.1,81.4 20.5,81.7 21.2,81.7 C21.8,81.7 22.3,81.3 22.7,80.6 C27.2,72.6 28.9,63.3 28.9,54.2 C28.4,41.3 21,31.8 21,31.8 C21.3,31.8 11.8,19.5 9.1,15.3 C5.4,9.6 3.7,3.9 3.5,3.5 C3.4,3.2 2.5,-0.4 2.5,-0.4 C2.4,-0.8 1.9,-1.2 1.3,-1.2 C0.6,-1.2 0,-0.6 0,0.1 L0,22.7 "/>
<path class="Hook" transform="matrix(0.992,0,0,0.992,2203.75,621.798)" d="M0,22.7 C0,23 0.1,23.6 0.8,23.8 C5.1,25.2 13.7,30.6 20.2,41.7 C22,44.8 24.9,49.1 24.9,57.4 C24.9,64.6 23.1,72 20.4,79.2 C20.2,79.8 20.1,80.3 20.1,80.7 C20.1,81.4 20.5,81.7 21.2,81.7 C21.8,81.7 22.3,81.3 22.7,80.6 C27.2,72.6 28.9,63.3 28.9,54.2 C28.4,41.3 21,31.8 21,31.8 C21.3,31.8 11.8,19.5 9.1,15.3 C5.4,9.6 3.7,3.9 3.5,3.5 C3.4,3.2 2.5,-0.4 2.5,-0.4 C2.4,-0.8 1.9,-1.2 1.3,-1.2 C0.6,-1.2 0,-0.6 0,0.1 L0,22.7 "/>
<path class="Hook" transform="matrix(0.992,0,0,0.992,859.483,1353.4)" d="M0,22.7 C0,23 0.1,23.6 0.8,23.8 C5.1,25.2 13.7,30.6 20.2,41.7 C22,44.8 24.9,49.1 24.9,57.4 C24.9,64.6 23.1,72 20.4,79.2 C20.2,79.8 20.1,80.3 20.1,80.7 C20.1,81.4 20.5,81.7 21.2,81.7 C21.8,81.7 22.3,81.3 22.7,80.6 C27.2,72.6 28.9,63.3 28.9,54.2 C28.4,41.3 21,31.8 21,31.8 C21.3,31.8 11.8,19.5 9.1,15.3 C5.4,9.6 3.7,3.9 3.5,3.5 C3.4,3.2 2.5,-0.4 2.5,-0.4 C2.4,-0.8 1.9,-1.2 1.3,-1.2 C0.6,-1.2 0,-0.6 0,0.1 L0,22.7 "/>
<path class="Hook" transform="matrix(0.992,0,0,0.992,556.074,634.198)" d="M0,22.7 C0,23 0.1,23.6 0.8,23.8 C5.1,25.2 13.7,30.6 20.2,41.7 C22,44.8 24.9,49.1 24.9,57.4 C24.9,64.6 23.1,72 20.4,79.2 C20.2,79.8 20.1,80.3 20.1,80.7 C20.1,81.4 20.5,81.7 21.2,81.7 C21.8,81.7 22.3,81.3 22.7,80.6 C27.2,72.6 28.9,63.3 28.9,54.2 C28.4,41.3 21,31.8 21,31.8 C21.3,31.8 11.8,19.5 9.1,15.3 C5.4,9.6 3.7,3.9 3.5,3.5 C3.4,3.2 2.5,-0.4 2.5,-0.4 C2.4,-0.8 1.9,-1.2 1.3,-1.2 C0.6,-1.2 0,-0.6 0,0.1 L0,22.7 "/>
<path class="Hook" transform="matrix(0.992,0,0,0.992,692.552,1341)" d="M0,22.7 C0,23 0.1,23.6 0.8,23.8 C5.1,25.2 13.7,30.6 20.2,41.7 C22,44.8 24.9,49.1 24.9,57.4 C24.9,64.6 23.1,72 20.4,79.2 C20.2,79.8 20.1,80.3 20.1,80.7 C20.1,81.4 20.5,81.7 21.2,81.7 C21.8,81.7 22.3,81.3 22.7,80.6 C27.2,72.6 28.9,63.3 28.9,54.2 C28.4,41.3 21,31.8 21,31.8 C21.3,31.8 11.8,19.5 9.1,15.3 C5.4,9.6 3.7,3.9 3.5,3.5 C3.4,3.2 2.5,-0.4 2.5,-0.4 C2.4,-0.8 1.9,-1.2 1.3,-1.2 C0.6,-1.2 0,-0.6 0,0.1 L0,22.7 "/>
<path class="Hook" transform="matrix(0.992,0,0,0.992,2290.31,1328.6)" d="M0,22.7 C0,23 0.1,23.6 0.8,23.8 C5.1,25.2 13.7,30.6 20.2,41.7 C22,44.8 24.9,49.1 24.9,57.4 C24.9,64.6 23.1,72 20.4,79.2 C20.2,79.8 20.1,80.3 20.1,80.7 C20.1,81.4 20.5,81.7 21.2,81.7 C21.8,81.7 22.3,81.3 22.7,80.6 C27.2,72.6 28.9,63.3 28.9,54.2 C28.4,41.3 21,31.8 21,31.8 C21.3,31.8 11.8,19.5 9.1,15.3 C5.4,9.6 3.7,3.9 3.5,3.5 C3.4,3.2 2.5,-0.4 2.5,-0.4 C2.4,-0.8 1.9,-1.2 1.3,-1.2 C0.6,-1.2 0,-0.6 0,0.1 L0,22.7 "/>
<path class="Hook" transform="matrix(0.992,0,0,0.992,2020.36,764.398)" d="M0,-0.1 C0,0.6 0.6,1.2 1.3,1.2 C1.8,1.2 2.4,0.8 2.5,0.4 C2.5,0.3 3.4,-3.2 3.5,-3.5 C3.6,-3.9 4.5,-7.7 8.1,-13.6 C12,-20.1 18,-24.8 23,-31.8 C28,-38.8 30.9,-45.4 30.9,-54.2 C30.9,-63.3 28.9,-70.9 23.5,-80.6 C23.2,-81.3 22.6,-81.7 22,-81.7 C21.8,-81.7 21.6,-81.7 21.5,-81.6 C21,-81.4 20.8,-81 20.8,-80.4 C20.8,-80.1 20.9,-79.7 21.1,-79.2 C25.1,-69.9 26.7,-64.6 26.7,-57.4 C26.7,-49.1 23.8,-44.8 22,-41.7 C15.5,-30.6 5,-25.2 0.8,-23.8 C0.1,-23.6 0,-23 0,-22.7 L0,-0.1 "/>
<path class="Hook" transform="matrix(0.992,0,0,0.992,1026.73,1328.6)" d="M0,22.7 C0,23 0.1,23.6 0.8,23.8 C5.1,25.2 13.7,30.6 20.2,41.7 C22,44.8 24.9,49.1 24.9,57.4 C24.9,64.6 23.1,72 20.4,79.2 C20.2,79.8 20.1,80.3 20.1,80.7 C20.1,81.4 20.5,81.7 21.2,81.7 C21.8,81.7 22.3,81.3 22.7,80.6 C27.2,72.6 28.9,63.3 28.9,54.2 C28.4,41.3 21,31.8 21,31.8 C21.3,31.8 11.8,19.5 9.1,15.3 C5.4,9.6 3.7,3.9 3.5,3.5 C3.4,3.2 2.5,-0.4 2.5,-0.4 C2.4,-0.8 1.9,-1.2 1.3,-1.2 C0.6,-1.2 0,-0.6 0,0.1 L0,22.7 "/>
<path class="Hook" transform="matrix(0.992,0,0,0.992,2123.38,1303.8)" d="M0,22.7 C0,23 0.1,23.6 0.8,23.8 C5.1,25.2 13.7,30.6 20.2,41.7 C22,44.8 24.9,49.1 24.9,57.4 C24.9,64.6 23.1,72 20.4,79.2 C20.2,79.8 20.1,80.3 20.1,80.7 C20.1,81.4 20.5,81.7 21.2,81.7 C21.8,81.7 22.3,81.3 22.7,80.6 C27.2,72.6 28.9,63.3 28.9,54.2 C28.4,41.3 21,31.8 21,31.8 C21.3,31.8 11.8,19.5 9.1,15.3 C5.4,9.6 3.7,3.9 3.5,3.5 C3.4,3.2 2.5,-0.4 2.5,-0.4 C2.4,-0.8 1.9,-1.2 1.3,-1.2 C0.6,-1.2 0,-0.6 0,0.1 L0,22.7 "/>
<path class="Hook" transform="matrix(0.992,0,0,0.992,1504.77,621.798)" d="M0,22.7 C0,23 0.1,23.6 0.8,23.8 C5.1,25.2 13.7,30.6 20.2,41.7 C22,44.8 24.9,49.1 24.9,57.4 C24.9,64.6 23.1,72 20.4,79.2 C20.2,79.8 20.1,80.3 20.1,80.7 C20.1,81.4 20.5,81.7 21.2,81.7 C21.8,81.7 22.3,81.3 22.7,80.6 C27.2,72.6 28.9,63.3 28.9,54.2 C28.4,41.3 21,31.8 21,31.8 C21.3,31.8 11.8,19.5 9.1,15.3 C5.4,9.6 3.7,3.9 3.5,3.5 C3.4,3.2 2.5,-0.4 2.5,-0.4 C2.4,-0.8 1.9,-1.2 1.3,-1.2 C0.6,-1.2 0,-0.6 0,0.1 L0,22.7 "/>
<path class="Hook" transform="matrix(0.992,0,0,0.992,715.347,634.198)" d="M0,22.7 C0,23 0.1,23.6 0.8,23.8 C5.1,25.2 13.7,30.6 20.2,41.7 C22,44.8 24.9,49.1 24.9,57.4 C24.9,64.6 23.1,72 20.4,79.2 C20.2,79.8 20.1,80.3 20.1,80.7 C20.1,81.4 20.5,81.7 21.2,81.7 C21.8,81.7 22.3,81.3 22.7,80.6 C27.2,72.6 28.9,63.3 28.9,54.2 C28.4,41.3 21,31.8 21,31.8 C21.3,31.8 11.8,19.5 9.1,15.3 C5.4,9.6 3.7,3.9 3.5,3.5 C3.4,3.2 2.5,-0.4 2.5,-0.4 C2.4,-0.8 1.9,-1.2 1.3,-1.2 C0.6,-1.2 0,-0.6 0,0.1 L0,22.7 "/>
<path class="Hook" transform="matrix(0.992,0,0,0.992,1345.5,634.198)" d="M0,22.7 C0,23 0.1,23.6 0.8,23.8 C5.1,25.2 13.7,30.6 20.2,41.7 C22,44.8 24.9,49.1 24.9,57.4 C24.9,64.6 23.1,72 20.4,79.2 C20.2,79.8 20.1,80.3 20.1,80.7 C20.1,81.4 20.5,81.7 21.2,81.7 C21.8,81.7 22.3,81.3 22.7,80.6 C27.2,72.6 28.9,63.3 28.9,54.2 C28.4,41.3 21,31.8 21,31.8 C21.3,31.8 11.8,19.5 9.1,15.3 C5.4,9.6 3.7,3.9 3.5,3.5 C3.4,3.2 2.5,-0.4 2.5,-0.4 C2.4,-0.8 1.9,-1.2 1.3,-1.2 C0.6,-1.2 0,-0.6 0,0.1 L0,22.7 "/>
<path class="Hook" transform="matrix(0.992,0,0,0.992,525.309,1341)" d="M0,22.7 C0,23 0.1,23.6 0.8,23.8 C5.1,25.2 13.7,30.6 20.2,41.7 C22,44.8 24.9,49.1 24.9,57.4 C24.9,64.6 23.1,72 20.4,79.2 C20.2,79.8 20.1,80.3 20.1,80.7 C20.1,81.4 20.5,81.7 21.2,81.7 C21.8,81.7 22.3,81.3 22.7,80.6 C27.2,72.6 28.9,63.3 28.9,54.2 C28.4,41.3 21,31.8 21,31.8 C21.3,31.8 11.8,19.5 9.1,15.3 C5.4,9.6 3.7,3.9 3.5,3.5 C3.4,3.2 2.5,-0.4 2.5,-0.4 C2.4,-0.8 1.9,-1.2 1.3,-1.2 C0.6,-1.2 0,-0.6 0,0.1 L0,22.7 "/>
<path class="Hook" transform="matrix(0.992,0,0,0.992,1412.8,1316.2)" d="M0,22.7 C0,23 0.1,23.6 0.8,23.8 C5.1,25.2 13.7,30.6 20.2,41.7 C22,44.8 24.9,49.1 24.9,57.4 C24.9,64.6 23.1,72 20.4,79.2 C20.2,79.8 20.1,80.3 20.1,80.7 C20.1,81.4 20.5,81.7 21.2,81.7 C21.8,81.7 22.3,81.3 22.7,80.6 C27.2,72.6 28.9,63.3 28.9,54.2 C28.4,41.3 21,31.8 21,31.8 C21.3,31.8 11.8,19.5 9.1,15.3 C5.4,9.6 3.7,3.9 3.5,3.5 C3.4,3.2 2.5,-0.4 2.5,-0.4 C2.4,-0.8 1.9,-1.2 1.3,-1.2 C0.6,-1.2 0,-0.6 0,0.1 L0,22.7 "/>
<path class="Hook" transform="matrix(0.992,0,0,0.992,1186.22,634.198)" d="M0,22.7 C0,23 0.1,23.6 0.8,23.8 C5.1,25.2 13.7,30.6 20.2,41.7 C22,44.8 24.9,49.1 24.9,57.4 C24.9,64.6 23.1,72 20.4,79.2 C20.2,79.8 20.1,80.3 20.1,80.7 C20.1,81.4 20.5,81.7 21.2,81.7 C21.8,81.7 22.3,81.3 22.7,80.6 C27.2,72.6 28.9,63.3 28.9,54.2 C28.4,41.3 21,31.8 21,31.8 C21.3,31.8 11.8,19.5 9.1,15.3 C5.4,9.6 3.7,3.9 3.5,3.5 C3.4,3.2 2.5,-0.4 2.5,-0.4 C2.4,-0.8 1.9,-1.2 1.3,-1.2 C0.6,-1.2 0,-0.6 0,0.1 L0,22.7 "/>
<path class="Hook" transform="matrix(0.992,0,0,0.992,1245.55,1316.2)" d="M0,22.7 C0,23 0.1,23.6 0.8,23.8 C5.1,25.2 13.7,30.6 20.2,41.7 C22,44.8 24.9,49.1 24.9,57.4 C24.9,64.6 23.1,72 20.4,79.2 C20.2,79.8 20.1,80.3 20.1,80.7 C20.1,81.4 20.5,81.7 21.2,81.7 C21.8,81.7 22.3,81.3 22.7,80.6 C27.2,72.6 28.9,63.3 28.9,54.2 C28.4,41.3 21,31.8 21,31.8 C21.3,31.8 11.8,19.5 9.1,15.3 C5.4,9.6 3.7,3.9 3.5,3.5 C3.4,3.2 2.5,-0.4 2.5,-0.4 C2.4,-0.8 1.9,-1.2 1.3,-1.2 C0.6,-1.2 0,-0.6 0,0.1 L0,22.7 "/>
<path class="Note" transform="matrix(0.992,0,0,0.992,2526.41,720.998)" d="M0,4.2 C0,8.5 3.1,13.3 11.2,13.3 C21.6,13.3 32.5,4.8 32.5,-4 C32.5,-9.9 27.5,-13.2 21.3,-13.2 C11.6,-13.2 0,-5 0,4.2"/>
<path class="Note" transform="matrix(0.992,0,0,0.992,1064.29,720.998)" d="M0,4.2 C0,8.5 3.1,13.3 11.2,13.3 C21.6,13.3 32.5,4.8 32.5,-4 C32.5,-9.9 27.5,-13.2 21.3,-13.2 C11.6,-13.2 0,-5 0,4.2"/>
<path class="Note" transform="matrix(0.992,0,0,0.992,844.875,708.598)" d="M0,4.2 C0,8.5 3.1,13.3 11.2,13.3 C21.6,13.3 32.5,4.8 32.5,-4 C32.5,-9.9 27.5,-13.2 21.3,-13.2 C11.6,-13.2 0,-5 0,4.2"/>
<path class="Note" transform="matrix(0.992,0,0,0.992,395.405,1427.8)" d="M0,4.2 C0,8.5 3.1,13.3 11.2,13.3 C21.6,13.3 32.5,4.8 32.5,-4 C32.5,-9.9 27.5,-13.2 21.3,-13.2 C11.6,-13.2 0,-5 0,4.2"/>
<path class="Note" transform="matrix(0.992,0,0,0.992,2379.23,1403)" d="M21.3,-13.2 C11.6,-13.2 0,-5.1 0,4.2 C0,8.5 3.1,13.3 11.2,13.3 C21.6,13.3 32.5,4.8 32.5,-4 C32.5,-9.9 27.5,-13.2 21.3,-13.2 M7.5,8.6 C4.2,8.6 3.5,5.9 3.5,5 C3.5,0.1 20.3,-8.5 25,-8.5 C27.4,-8.5 29,-7.1 29,-4.9 C29,0.1 12.1,8.6 7.5,8.6"/>
<path class="Note" transform="matrix(0.992,0,0,0.992,1450.14,1403)" d="M0,4.2 C0,8.5 3.1,13.3 11.2,13.3 C21.6,13.3 32.5,4.8 32.5,-4 C32.5,-9.9 27.5,-13.2 21.3,-13.2 C11.6,-13.2 0,-5 0,4.2"/>
<path class="Note" transform="matrix(0.992,0,0,0.992,2409.54,720.998)" d="M0,4.2 C0,8.5 3.1,13.3 11.2,13.3 C21.6,13.3 32.5,4.8 32.5,-4 C32.5,-9.9 27.5,-13.2 21.3,-13.2 C11.6,-13.2 0,-5 0,4.2"/>
<path class="Note" transform="matrix(0.992,0,0,0.992,495.564,1427.8)" d="M0,4.2 C0,8.5 3.1,13.3 11.2,13.3 C21.6,13.3 32.5,4.8 32.5,-4 C32.5,-9.9 27.5,-13.2 21.3,-13.2 C11.6,-13.2 0,-5 0,4.2"/>
<path class="Note" transform="matrix(0.992,0,0,0.992,2292.68,720.998)" d="M0,4.2 C0,8.5 3.1,13.3 11.2,13.3 C21.6,13.3 32.5,4.8 32.5,-4 C32.5,-9.9 27.5,-13.2 21.3,-13.2 C11.6,-13.2 0,-5 0,4.2"/>
<path class="Note" transform="matrix(0.992,0,0,0.992,562.648,1427.8)" d="M0,4.2 C0,8.5 3.1,13.3 11.2,13.3 C21.6,13.3 32.5,4.8 32.5,-4 C32.5,-9.9 27.5,-13.2 21.3,-13.2 C11.6,-13.2 0,-5 0,4.2"/>
<path class="Note" transform="matrix(0.992,0,0,0.992,2260.56,1415.4)" d="M0,4.2 C0,8.5 3.1,13.3 11.2,13.3 C21.6,13.3 32.5,4.8 32.5,-4 C32.5,-9.9 27.5,-13.2 21.3,-13.2 C11.6,-13.2 0,-5 0,4.2"/>
<path class="Note" transform="matrix(0.992,0,0,0.992,434.14,720.998)" d="M0,4.2 C0,8.5 3.1,13.3 11.2,13.3 C21.6,13.3 32.5,4.8 32.5,-4 C32.5,-9.9 27.5,-13.2 21.3,-13.2 C11.6,-13.2 0,-5 0,4.2"/>
<path class="Note" transform="matrix(0.992,0,0,0.992,2174.01,708.598)" d="M0,4.2 C0,8.5 3.1,13.3 11.2,13.3 C21.6,13.3 32.5,4.8 32.5,-4 C32.5,-9.9 27.5,-13.2 21.3,-13.2 C11.6,-13.2 0,-5 0,4.2"/>
<path class="Note" transform="matrix(0.992,0,0,0.992,662.807,1427.8)" d="M0,4.2 C0,8.5 3.1,13.3 11.2,13.3 C21.6,13.3 32.5,4.8 32.5,-4 C32.5,-9.9 27.5,-13.2 21.3,-13.2 C11.6,-13.2 0,-5 0,4.2"/>
<path class="Note" transform="matrix(0.992,0,0,0.992,2160.4,1403)" d="M0,4.2 C0,8.5 3.1,13.3 11.2,13.3 C21.6,13.3 32.5,4.8 32.5,-4 C32.5,-9.9 27.5,-13.2 21.3,-13.2 C11.6,-13.2 0,-5 0,4.2"/>
<path class="Note" transform="matrix(0.992,0,0,0.992,2081.82,696.198)" d="M0,4.2 C0,8.5 3.1,13.3 11.2,13.3 C21.6,13.3 32.5,4.8 32.5,-4 C32.5,-9.9 27.5,-13.2 21.3,-13.2 C11.6,-13.2 0,-5 0,4.2"/>
<path class="Note" transform="matrix(0.992,0,0,0.992,729.58,1440.2)" d="M0,4.2 C0,8.5 3.1,13.3 11.2,13.3 C21.6,13.3 32.5,4.8 32.5,-4 C32.5,-9.9 27.5,-13.2 21.3,-13.2 C11.6,-13.2 0,-5 0,4.2"/>
<path class="Note" transform="matrix(0.992,0,0,0.992,526.329,720.998)" d="M0,4.2 C0,8.5 3.1,13.3 11.2,13.3 C21.6,13.3 32.5,4.8 32.5,-4 C32.5,-9.9 27.5,-13.2 21.3,-13.2 C11.6,-13.2 0,-5 0,4.2"/>
<path class="Note" transform="matrix(0.992,0,0,0.992,2020.36,683.798)" d="M0,4.2 C0,8.5 3.1,13.3 11.2,13.3 C21.6,13.3 32.5,4.8 32.5,-4 C32.5,-9.9 27.5,-13.2 21.3,-13.2 C11.6,-13.2 0,-5 0,4.2"/>
<path class="Note" transform="matrix(0.992,0,0,0.992,2093.63,1390.6)" d="M0,4.2 C0,8.5 3.1,13.3 11.2,13.3 C21.6,13.3 32.5,4.8 32.5,-4 C32.5,-9.9 27.5,-13.2 21.3,-13.2 C11.6,-13.2 0,-5 0,4.2"/>
<path class="Note" transform="matrix(0.992,0,0,0.992,1928.17,671.398)" d="M0,4.2 C0,8.5 3.1,13.3 11.2,13.3 C21.6,13.3 32.5,4.8 32.5,-4 C32.5,-9.9 27.5,-13.2 21.3,-13.2 C11.6,-13.2 0,-5 0,4.2"/>
<path class="Note" transform="matrix(0.992,0,0,0.992,829.739,1440.2)" d="M0,4.2 C0,8.5 3.1,13.3 11.2,13.3 C21.6,13.3 32.5,4.8 32.5,-4 C32.5,-9.9 27.5,-13.2 21.3,-13.2 C11.6,-13.2 0,-5 0,4.2"/>
<path class="Note" transform="matrix(0.992,0,0,0.992,1811.3,745.798)" d="M0,4.2 C0,8.5 3.1,13.3 11.2,13.3 C21.6,13.3 32.5,4.8 32.5,-4 C32.5,-9.9 27.5,-13.2 21.3,-13.2 C11.6,-13.2 0,-5 0,4.2"/>
<path class="Note" transform="matrix(0.992,0,0,0.992,896.823,1427.8)" d="M0,4.2 C0,8.5 3.1,13.3 11.2,13.3 C21.6,13.3 32.5,4.8 32.5,-4 C32.5,-9.9 27.5,-13.2 21.3,-13.2 C11.6,-13.2 0,-5 0,4.2"/>
<path class="Note" transform="matrix(0.992,0,0,0.992,593.413,720.998)" d="M0,4.2 C0,8.5 3.1,13.3 11.2,13.3 C21.6,13.3 32.5,4.8 32.5,-4 C32.5,-9.9 27.5,-13.2 21.3,-13.2 C11.6,-13.2 0,-5 0,4.2"/>
<path class="Note" transform="matrix(0.992,0,0,0.992,1694.44,745.798)" d="M0,4.2 C0,8.5 3.1,13.3 11.2,13.3 C21.6,13.3 32.5,4.8 32.5,-4 C32.5,-9.9 27.5,-13.2 21.3,-13.2 C11.6,-13.2 0,-5 0,4.2"/>
<path class="Note" transform="matrix(0.992,0,0,0.992,1542.11,696.198)" d="M0,4.2 C0,8.5 3.1,13.3 11.2,13.3 C21.6,13.3 32.5,4.8 32.5,-4 C32.5,-9.9 27.5,-13.2 21.3,-13.2 C11.6,-13.2 0,-5 0,4.2"/>
<path class="Note" transform="matrix(0.992,0,0,0.992,996.982,1415.4)" d="M0,4.2 C0,8.5 3.1,13.3 11.2,13.3 C21.6,13.3 32.5,4.8 32.5,-4 C32.5,-9.9 27.5,-13.2 21.3,-13.2 C11.6,-13.2 0,-5 0,4.2"/>
<path class="Note" transform="matrix(0.992,0,0,0.992,1475.02,708.598)" d="M0,4.2 C0,8.5 3.1,13.3 11.2,13.3 C21.6,13.3 32.5,4.8 32.5,-4 C32.5,-9.9 27.5,-13.2 21.3,-13.2 C11.6,-13.2 0,-5 0,4.2"/>
<path class="Note" transform="matrix(0.992,0,0,0.992,1993.47,1390.6)" d="M0,4.2 C0,8.5 3.1,13.3 11.2,13.3 C21.6,13.3 32.5,4.8 32.5,-4 C32.5,-9.9 27.5,-13.2 21.3,-13.2 C11.6,-13.2 0,-5 0,4.2"/>
<path class="Note" transform="matrix(0.992,0,0,0.992,1382.84,720.998)" d="M0,4.2 C0,8.5 3.1,13.3 11.2,13.3 C21.6,13.3 32.5,4.8 32.5,-4 C32.5,-9.9 27.5,-13.2 21.3,-13.2 C11.6,-13.2 0,-5 0,4.2"/>
<path class="Note" transform="matrix(0.992,0,0,0.992,1115.65,1403)" d="M0,4.2 C0,8.5 3.1,13.3 11.2,13.3 C21.6,13.3 32.5,4.8 32.5,-4 C32.5,-9.9 27.5,-13.2 21.3,-13.2 C11.6,-13.2 0,-5 0,4.2"/>
<path class="Note" transform="matrix(0.992,0,0,0.992,685.602,720.998)" d="M0,4.2 C0,8.5 3.1,13.3 11.2,13.3 C21.6,13.3 32.5,4.8 32.5,-4 C32.5,-9.9 27.5,-13.2 21.3,-13.2 C11.6,-13.2 0,-5 0,4.2"/>
<path class="Note" transform="matrix(0.992,0,0,0.992,1315.75,720.998)" d="M0,4.2 C0,8.5 3.1,13.3 11.2,13.3 C21.6,13.3 32.5,4.8 32.5,-4 C32.5,-9.9 27.5,-13.2 21.3,-13.2 C11.6,-13.2 0,-5 0,4.2"/>
<path class="Note" transform="matrix(0.992,0,0,0.992,1866.5,1403)" d="M0,4.2 C0,8.5 3.1,13.3 11.2,13.3 C21.6,13.3 32.5,4.8 32.5,-4 C32.5,-9.9 27.5,-13.2 21.3,-13.2 C11.6,-13.2 0,-5 0,4.2"/>
<path class="Note" transform="matrix(0.992,0,0,0.992,1215.81,1403)" d="M0,4.2 C0,8.5 3.1,13.3 11.2,13.3 C21.6,13.3 32.5,4.8 32.5,-4 C32.5,-9.9 27.5,-13.2 21.3,-13.2 C11.6,-13.2 0,-5 0,4.2"/>
<path class="Note" transform="matrix(0.992,0,0,0.992,1223.56,720.998)" d="M0,4.2 C0,8.5 3.1,13.3 11.2,13.3 C21.6,13.3 32.5,4.8 32.5,-4 C32.5,-9.9 27.5,-13.2 21.3,-13.2 C11.6,-13.2 0,-5 0,4.2"/>
<path class="Note" transform="matrix(0.992,0,0,0.992,1282.89,1403)" d="M0,4.2 C0,8.5 3.1,13.3 11.2,13.3 C21.6,13.3 32.5,4.8 32.5,-4 C32.5,-9.9 27.5,-13.2 21.3,-13.2 C11.6,-13.2 0,-5 0,4.2"/>
<path class="Note" transform="matrix(0.992,0,0,0.992,752.686,720.998)" d="M0,4.2 C0,8.5 3.1,13.3 11.2,13.3 C21.6,13.3 32.5,4.8 32.5,-4 C32.5,-9.9 27.5,-13.2 21.3,-13.2 C11.6,-13.2 0,-5 0,4.2"/>
<path class="Note" transform="matrix(0.992,0,0,0.992,1156.48,720.998)" d="M0,4.2 C0,8.5 3.1,13.3 11.2,13.3 C21.6,13.3 32.5,4.8 32.5,-4 C32.5,-9.9 27.5,-13.2 21.3,-13.2 C11.6,-13.2 0,-5 0,4.2"/>
<path class="Note" transform="matrix(0.992,0,0,0.992,1739.54,1365.8)" d="M0,4.2 C0,8.5 3.1,13.3 11.2,13.3 C21.6,13.3 32.5,4.8 32.5,-4 C32.5,-9.9 27.5,-13.2 21.3,-13.2 C11.6,-13.2 0,-5 0,4.2"/>
<path class="Note" transform="matrix(0.992,0,0,0.992,1383.05,1403)" d="M0,4.2 C0,8.5 3.1,13.3 11.2,13.3 C21.6,13.3 32.5,4.8 32.5,-4 C32.5,-9.9 27.5,-13.2 21.3,-13.2 C11.6,-13.2 0,-5 0,4.2"/>
<path class="Note" transform="matrix(0.992,0,0,0.992,911.959,696.198)" d="M0,4.2 C0,8.5 3.1,13.3 11.2,13.3 C21.6,13.3 32.5,4.8 32.5,-4 C32.5,-9.9 27.5,-13.2 21.3,-13.2 C11.6,-13.2 0,-5 0,4.2"/>
<path class="Clef" transform="matrix(0.992,0,0,0.992,231.198,708.598)" d="M12.3,51.3 C12.3,57.9 17.3,66.6 30.8,66.6 C35.5,66.6 39.6,65.4 43.2,63.2 C48.6,59.4 50,52.8 50,46.5 C50,42.6 49.4,38.1 48.4,32.4 C48.1,30.4 47.5,27.4 46.9,23.5 C56.7,20.3 64,10.1 64,-0.2 C64,-15.3 53.3,-25.5 38.7,-25.5 C37.7,-31.5 36.7,-37.4 35.9,-43 C46.4,-54.1 53.7,-66.6 53.7,-82.5 C53.7,-91.6 50.9,-99 49.3,-102.6 C46.9,-107.7 44,-111.2 42.2,-111.2 C41.5,-111.2 38.4,-110 35.1,-106.1 C28.7,-98.5 26.9,-85.7 26.9,-77.3 C26.9,-71.9 27.4,-67 29.1,-55.8 C29,-55.7 23.8,-50.4 21.7,-48.7 C12.6,-40.3 0,-28.1 0,-8.1 C0,10.6 16.3,25.3 34.9,25.3 C37.8,25.3 40.5,25 42.8,24.6 C44.7,34.2 45.9,41.2 45.9,46.5 C45.9,56.9 40.5,62.4 30.4,62.4 C28,62.4 25.9,61.9 25.7,61.9 C25.6,61.8 25.4,61.7 25.4,61.6 C25.4,61.4 25.6,61.3 25.9,61.3 C30.6,60.5 35.3,56.5 35.3,50.1 C35.3,44.7 31.2,39 23.7,39 C16.7,39 12.3,44.7 12.3,51.3 M33.2,-82.2 C34.1,-86.2 38.7,-96.7 43.9,-96.7 C45.4,-96.7 47.8,-91.9 47.8,-84.9 C47.8,-74.5 40.1,-66.7 33.2,-59.9 C32.6,-63.9 32.1,-67.8 32.1,-72 C32.1,-75.7 32.4,-79.1 33.2,-82.2 M42,20.6 C40,21 38.1,21.2 36.2,21.2 C21.9,21.2 9.7,11.2 9.7,-3.9 C9.7,-16.1 18.3,-27 27.1,-34.6 C28.8,-36.1 30.4,-37.5 31.9,-39 C32.8,-33.6 33.5,-28.9 34.2,-24.8 C25.1,-22.1 18.9,-12.5 18.9,-3.1 C18.9,3.9 24.4,13.5 32.4,13.5 C33.2,13.5 34.1,13.1 34.1,12.2 C34.1,11.3 33.1,10.8 31.9,10 C28,7.6 25.8,5 25.8,0.1 C25.8,-6 30.4,-10.9 36.2,-12.3 L42,20.6 M56.2,2.1 C56.2,9.2 53.3,16.5 46.2,19.4 C44.1,7.4 41.4,-8.5 40.7,-12.9 C49.7,-12.9 56.2,-6.8 56.2,2.1"/>
<path class="Clef" transform="matrix(0.992,0,0,0.992,231.198,1390.6)" d="M12.3,51.3 C12.3,57.9 17.3,66.6 30.8,66.6 C35.5,66.6 39.6,65.4 43.2,63.2 C48.6,59.4 50,52.8 50,46.5 C50,42.6 49.4,38.1 48.4,32.4 C48.1,30.4 47.5,27.4 46.9,23.5 C56.7,20.3 64,10.1 64,-0.2 C64,-15.3 53.3,-25.5 38.7,-25.5 C37.7,-31.5 36.7,-37.4 35.9,-43 C46.4,-54.1 53.7,-66.6 53.7,-82.5 C53.7,-91.6 50.9,-99 49.3,-102.6 C46.9,-107.7 44,-111.2 42.2,-111.2 C41.5,-111.2 38.4,-110 35.1,-106.1 C28.7,-98.5 26.9,-85.7 26.9,-77.3 C26.9,-71.9 27.4,-67 29.1,-55.8 C29,-55.7 23.8,-50.4 21.7,-48.7 C12.6,-40.3 0,-28.1 0,-8.1 C0,10.6 16.3,25.3 34.9,25.3 C37.8,25.3 40.5,25 42.8,24.6 C44.7,34.2 45.9,41.2 45.9,46.5 C45.9,56.9 40.5,62.4 30.4,62.4 C28,62.4 25.9,61.9 25.7,61.9 C25.6,61.8 25.4,61.7 25.4,61.6 C25.4,61.4 25.6,61.3 25.9,61.3 C30.6,60.5 35.3,56.5 35.3,50.1 C35.3,44.7 31.2,39 23.7,39 C16.7,39 12.3,44.7 12.3,51.3 M33.2,-82.2 C34.1,-86.2 38.7,-96.7 43.9,-96.7 C45.4,-96.7 47.8,-91.9 47.8,-84.9 C47.8,-74.5 40.1,-66.7 33.2,-59.9 C32.6,-63.9 32.1,-67.8 32.1,-72 C32.1,-75.7 32.4,-79.1 33.2,-82.2 M42,20.6 C40,21 38.1,21.2 36.2,21.2 C21.9,21.2 9.7,11.2 9.7,-3.9 C9.7,-16.1 18.3,-27 27.1,-34.6 C28.8,-36.1 30.4,-37.5 31.9,-39 C32.8,-33.6 33.5,-28.9 34.2,-24.8 C25.1,-22.1 18.9,-12.5 18.9,-3.1 C18.9,3.9 24.4,13.5 32.4,13.5 C33.2,13.5 34.1,13.1 34.1,12.2 C34.1,11.3 33.1,10.8 31.9,10 C28,7.6 25.8,5 25.8,0.1 C25.8,-6 30.4,-10.9 36.2,-12.3 L42,20.6 M56.2,2.1 C56.2,9.2 53.3,16.5 46.2,19.4 C44.1,7.4 41.4,-8.5 40.7,-12.9 C49.7,-12.9 56.2,-6.8 56.2,2.1"/>
<path class="KeySig" transform="matrix(0.992,0,0,0.992,313.271,1365.8)" d="M12,-15.5 C7,-15.5 4.1,-12.4 3.6,-11.8 L4,-43.9 C4,-44.7 3.4,-45.3 2.6,-45.3 L1.4,-45.3 C0.6,-45.3 0,-44.7 0,-43.9 L0.5,16.2 C0.5,17 1.1,17.6 1.9,17.6 C2.1,17.6 2.5,17.5 2.7,17.4 C11.3,13.1 20.3,4.9 20.3,-5.4 C20.3,-10.6 17.9,-15.5 12,-15.5 M3.3,12.7 L3.6,-6.8 C3.8,-7.7 5.3,-10.6 9.3,-10.6 C12.9,-10.6 13.2,-7.2 13.2,-5.1 C13.2,3.8 9.9,7.5 3.3,12.7"/>
<path class="KeySig" transform="matrix(0.992,0,0,0.992,313.271,683.798)" d="M12,-15.5 C7,-15.5 4.1,-12.4 3.6,-11.8 L4,-43.9 C4,-44.7 3.4,-45.3 2.6,-45.3 L1.4,-45.3 C0.6,-45.3 0,-44.7 0,-43.9 L0.5,16.2 C0.5,17 1.1,17.6 1.9,17.6 C2.1,17.6 2.5,17.5 2.7,17.4 C11.3,13.1 20.3,4.9 20.3,-5.4 C20.3,-10.6 17.9,-15.5 12,-15.5 M3.3,12.7 L3.6,-6.8 C3.8,-7.7 5.3,-10.6 9.3,-10.6 C12.9,-10.6 13.2,-7.2 13.2,-5.1 C13.2,3.8 9.9,7.5 3.3,12.7"/>
<path class="TimeSig" transform="matrix(0.992,0,0,0.992,356.826,658.998)" d="M20.8,12.7 L20.8,20.1 L12.5,20.1 C11.8,20.1 11.1,20.7 11.1,21.5 L11.1,23.4 C11.1,24.2 11.8,24.8 12.5,24.8 L42.8,24.8 C43.6,24.8 44.2,24.2 44.2,23.4 L44.2,21.5 C44.2,20.7 43.6,20.1 42.8,20.1 L33.9,20.1 L33.9,12.7 L42.8,12.7 C43.6,12.7 44.2,12 44.2,11.2 L44.2,9.3 C44.2,8.6 43.6,7.9 42.8,7.9 L33.9,7.9 L33.9,-8 C33.9,-8.6 33.6,-9.1 33.1,-9.3 L31.9,-9.9 C31.7,-10 31.4,-10.1 31.2,-10.1 C30.9,-10 30.5,-9.9 30.3,-9.7 L21.2,-1.4 C20.9,-1.1 20.8,-0.7 20.8,-0.3 L20.8,7.9 L9.3,7.9 C9.3,7.9 20.4,-4.1 32.2,-19.9 C32.6,-20.4 32.7,-20.9 32.7,-21.3 C32.7,-21.8 32.5,-22.2 32.4,-22.3 L30.2,-24.5 C30,-24.7 29.6,-24.9 29.2,-24.9 C28.6,-24.9 15.1,-24.9 14.4,-24.9 C13.6,-24.9 13.1,-24.3 13,-23.7 C13,-23.7 12.5,-16.3 9.9,-8.2 C7.3,-0.1 4.3,4.9 1.7,8.6 C1.7,8.6 1.4,9.1 1.4,9.7 C1.4,9.9 1.4,10.1 1.5,10.3 C1.9,11 2.5,12.1 2.5,12.1 C2.5,12.1 2.7,12.7 3.6,12.7 L20.8,12.7 "/>
<path class="TimeSig" transform="matrix(0.992,0,0,0.992,356.826,708.598)" d="M20.8,12.7 L20.8,20.1 L12.5,20.1 C11.8,20.1 11.1,20.7 11.1,21.5 L11.1,23.4 C11.1,24.2 11.8,24.8 12.5,24.8 L42.8,24.8 C43.6,24.8 44.2,24.2 44.2,23.4 L44.2,21.5 C44.2,20.7 43.6,20.1 42.8,20.1 L33.9,20.1 L33.9,12.7 L42.8,12.7 C43.6,12.7 44.2,12 44.2,11.2 L44.2,9.3 C44.2,8.6 43.6,7.9 42.8,7.9 L33.9,7.9 L33.9,-8 C33.9,-8.6 33.6,-9.1 33.1,-9.3 L31.9,-9.9 C31.7,-10 31.4,-10.1 31.2,-10.1 C30.9,-10 30.5,-9.9 30.3,-9.7 L21.2,-1.4 C20.9,-1.1 20.8,-0.7 20.8,-0.3 L20.8,7.9 L9.3,7.9 C9.3,7.9 20.4,-4.1 32.2,-19.9 C32.6,-20.4 32.7,-20.9 32.7,-21.3 C32.7,-21.8 32.5,-22.2 32.4,-22.3 L30.2,-24.5 C30,-24.7 29.6,-24.9 29.2,-24.9 C28.6,-24.9 15.1,-24.9 14.4,-24.9 C13.6,-24.9 13.1,-24.3 13,-23.7 C13,-23.7 12.5,-16.3 9.9,-8.2 C7.3,-0.1 4.3,4.9 1.7,8.6 C1.7,8.6 1.4,9.1 1.4,9.7 C1.4,9.9 1.4,10.1 1.5,10.3 C1.9,11 2.5,12.1 2.5,12.1 C2.5,12.1 2.7,12.7 3.6,12.7 L20.8,12.7 "/>
<path class="Rest" transform="matrix(0.992,0,0,0.992,1577.1,1365.8)" d="M23,16.6 C22.9,16.5 22.7,16.3 22.4,15.9 L10.9,1.7 C10.8,1.6 10.7,1.3 10.7,1.1 C10.7,0.8 10.8,0.4 10.9,0.2 L21.1,-15.2 C21.2,-15.4 21.3,-15.7 21.3,-15.9 L21.3,-16.8 C21.3,-17.1 21.2,-17.4 21,-17.6 L4.8,-39.5 C4.8,-39.5 4.4,-40.1 3.8,-40.1 C3.5,-40.1 3.3,-40.1 3,-39.8 C2.6,-39.5 2.5,-39.1 2.5,-38.8 C2.5,-38.2 2.8,-37.7 2.8,-37.7 L10.4,-27.3 C10.6,-27 10.7,-26.6 10.7,-26.1 C10.7,-25.7 10.6,-25.2 10.4,-24.9 L0.3,-9.5 C0.2,-9.3 0.1,-8.9 0.1,-8.7 L0.1,-7.8 C0.1,-7.5 0.2,-7.2 0.4,-7 L11.6,6.9 C11.2,6.8 10.3,6.6 9.1,6.6 C4,6.6 0,10.8 0,15.9 C0,17.3 0.3,18.7 1.1,19.8 C3.2,23 10.7,32.5 10.7,32.5 C10.7,32.5 11.2,33.1 11.9,33.1 C12.1,33.1 12.3,33.1 12.5,32.9 C13,32.5 13.2,32.1 13.2,31.7 C13.2,31.3 13,31 12.9,30.8 C12.6,30.3 9.4,24.5 9.4,24.5 C9.4,24.5 8.7,23.1 8.7,21.3 C8.7,18.1 11.1,15.5 14.3,15.5 C15.6,15.5 16.7,15.9 17.5,16.4 L21.4,18.9 C21.4,18.9 21.8,19.1 22.2,19.1 C22.6,19.1 22.9,19 23.2,18.6 C23.4,18.3 23.5,18 23.5,17.7 C23.5,17.4 23.4,17.2 23.2,16.9 L23,16.6 "/>
<path class="Rest" transform="matrix(0.992,0,0,0.992,2569.68,1365.8)" d="M0,-1 C0,0.4 0,0.4 1.4,0.4 L31.1,0.4 C32.5,0.4 32.5,0.4 32.5,-1 L32.5,-11.8 C32.5,-13.2 32.5,-13.2 31.1,-13.2 L1.4,-13.2 C0,-13.2 0,-13.2 0,-11.8 L0,-1 "/>
<path class="Rest" transform="matrix(0.992,0,0,0.992,2643.27,683.798)" d="M23,16.6 C22.9,16.5 22.7,16.3 22.4,15.9 L10.9,1.7 C10.8,1.6 10.7,1.3 10.7,1.1 C10.7,0.8 10.8,0.4 10.9,0.2 L21.1,-15.2 C21.2,-15.4 21.3,-15.7 21.3,-15.9 L21.3,-16.8 C21.3,-17.1 21.2,-17.4 21,-17.6 L4.8,-39.5 C4.8,-39.5 4.4,-40.1 3.8,-40.1 C3.5,-40.1 3.3,-40.1 3,-39.8 C2.6,-39.5 2.5,-39.1 2.5,-38.8 C2.5,-38.2 2.8,-37.7 2.8,-37.7 L10.4,-27.3 C10.6,-27 10.7,-26.6 10.7,-26.1 C10.7,-25.7 10.6,-25.2 10.4,-24.9 L0.3,-9.5 C0.2,-9.3 0.1,-8.9 0.1,-8.7 L0.1,-7.8 C0.1,-7.5 0.2,-7.2 0.4,-7 L11.6,6.9 C11.2,6.8 10.3,6.6 9.1,6.6 C4,6.6 0,10.8 0,15.9 C0,17.3 0.3,18.7 1.1,19.8 C3.2,23 10.7,32.5 10.7,32.5 C10.7,32.5 11.2,33.1 11.9,33.1 C12.1,33.1 12.3,33.1 12.5,32.9 C13,32.5 13.2,32.1 13.2,31.7 C13.2,31.3 13,31 12.9,30.8 C12.6,30.3 9.4,24.5 9.4,24.5 C9.4,24.5 8.7,23.1 8.7,21.3 C8.7,18.1 11.1,15.5 14.3,15.5 C15.6,15.5 16.7,15.9 17.5,16.4 L21.4,18.9 C21.4,18.9 21.8,19.1 22.2,19.1 C22.6,19.1 22.9,19 23.2,18.6 C23.4,18.3 23.5,18 23.5,17.7 C23.5,17.4 23.4,17.2 23.2,16.9 L23,16.6 "/>
<path class="Tuplet" d="M2162.85,585.907 C2164.97,585.232 2165.82,584.872 2166.9,584.152 C2169.02,582.757 2170.32,580.282 2170.32,577.762 C2170.32,573.487 2166.9,570.607 2161.86,570.607 C2156.96,570.607 2152.82,573.667 2152.82,577.357 C2152.82,579.202 2153.94,580.462 2155.65,580.462 C2157.14,580.462 2158.22,579.382 2158.22,577.897 C2158.22,577.132 2157.99,576.592 2157.27,575.872 C2156.82,575.467 2156.64,575.152 2156.64,574.837 C2156.64,573.757 2158.89,572.632 2161.01,572.632 C2164.02,572.632 2165.82,574.297 2165.82,577.087 C2165.82,581.092 2162.99,584.872 2159.97,584.872 C2159.84,584.872 2159.43,584.827 2158.94,584.782 C2157.63,584.692 2157.63,584.692 2157.36,584.692 C2156.37,584.692 2155.83,585.142 2155.83,585.952 C2155.83,586.672 2156.33,587.122 2157.14,587.122 C2157.36,587.122 2157.68,587.077 2158.04,587.032 C2158.67,586.897 2159.34,586.852 2159.75,586.852 C2161.86,586.852 2163.3,588.742 2163.3,591.532 C2163.3,596.392 2160.92,601.072 2155.47,601.072 C2152.95,601.072 2150.79,599.812 2150.79,598.372 C2150.79,597.877 2150.97,597.697 2151.69,597.382 C2153,596.797 2153.54,595.987 2153.54,594.772 C2153.54,593.197 2152.28,591.982 2150.66,591.982 C2148.72,591.982 2147.46,593.512 2147.46,595.852 C2147.46,600.217 2150.79,602.962 2156.19,602.962 C2162.99,602.962 2168.16,598.417 2168.16,592.387 C2168.16,588.877 2166,586.897 2162.85,585.907"/>
<polyline class="Tuplet" fill="none" stroke="#000000" stroke-width="2.48" stroke-linejoin="miter" stroke-miterlimit="2" points="2100.4,602.188 2100.4,583.588 2135.07,585.483"/>
<polyline class="Tuplet" fill="none" stroke="#000000" stroke-width="2.48" stroke-linejoin="miter" stroke-miterlimit="2" points="2182.73,588.09 2217.39,589.986 2217.39,608.586"/>
<path class="Tuplet" d="M1463.87,592.925 C1465.99,592.25 1466.84,591.89 1467.92,591.17 C1470.04,589.775 1471.34,587.3 1471.34,584.78 C1471.34,580.505 1467.92,577.625 1462.88,577.625 C1457.98,577.625 1453.84,580.685 1453.84,584.375 C1453.84,586.22 1454.96,587.48 1456.67,587.48 C1458.16,587.48 1459.24,586.4 1459.24,584.915 C1459.24,584.15 1459.01,583.61 1458.29,582.89 C1457.84,582.485 1457.66,582.17 1457.66,581.855 C1457.66,580.775 1459.91,579.65 1462.03,579.65 C1465.04,579.65 1466.84,581.315 1466.84,584.105 C1466.84,588.11 1464.01,591.89 1460.99,591.89 C1460.86,591.89 1460.45,591.845 1459.96,591.8 C1458.65,591.71 1458.65,591.71 1458.38,591.71 C1457.39,591.71 1456.85,592.16 1456.85,592.97 C1456.85,593.69 1457.35,594.14 1458.16,594.14 C1458.38,594.14 1458.7,594.095 1459.06,594.05 C1459.69,593.915 1460.36,593.87 1460.77,593.87 C1462.88,593.87 1464.32,595.76 1464.32,598.55 C1464.32,603.41 1461.94,608.09 1456.49,608.09 C1453.97,608.09 1451.81,606.83 1451.81,605.39 C1451.81,604.895 1451.99,604.715 1452.71,604.4 C1454.02,603.815 1454.56,603.005 1454.56,601.79 C1454.56,600.215 1453.3,599 1451.68,599 C1449.74,599 1448.48,600.53 1448.48,602.87 C1448.48,607.235 1451.81,609.98 1457.21,609.98 C1464.01,609.98 1469.18,605.435 1469.18,599.405 C1469.18,595.895 1467.02,593.915 1463.87,592.925"/>
<polyline class="Tuplet" fill="none" stroke="#000000" stroke-width="2.48" stroke-linejoin="miter" stroke-miterlimit="2" points="1401.42,618.506 1401.42,599.906 1436.08,596.29"/>
<polyline class="Tuplet" fill="none" stroke="#000000" stroke-width="2.48" stroke-linejoin="miter" stroke-miterlimit="2" points="1483.74,591.32 1518.41,587.704 1518.41,606.304"/>
<path class="Tuplet" d="M2078.49,1270.55 C2080.61,1269.87 2081.46,1269.51 2082.54,1268.79 C2084.66,1267.4 2085.96,1264.92 2085.96,1262.4 C2085.96,1258.13 2082.54,1255.25 2077.5,1255.25 C2072.6,1255.25 2068.46,1258.31 2068.46,1262 C2068.46,1263.84 2069.58,1265.1 2071.29,1265.1 C2072.78,1265.1 2073.86,1264.02 2073.86,1262.54 C2073.86,1261.77 2073.63,1261.23 2072.91,1260.51 C2072.46,1260.11 2072.28,1259.79 2072.28,1259.48 C2072.28,1258.4 2074.53,1257.27 2076.65,1257.27 C2079.66,1257.27 2081.46,1258.94 2081.46,1261.73 C2081.46,1265.73 2078.63,1269.51 2075.61,1269.51 C2075.48,1269.51 2075.07,1269.47 2074.58,1269.42 C2073.27,1269.33 2073.27,1269.33 2073,1269.33 C2072.01,1269.33 2071.47,1269.78 2071.47,1270.59 C2071.47,1271.31 2071.97,1271.76 2072.78,1271.76 C2073,1271.76 2073.32,1271.72 2073.68,1271.67 C2074.31,1271.54 2074.98,1271.49 2075.39,1271.49 C2077.5,1271.49 2078.94,1273.38 2078.94,1276.17 C2078.94,1281.03 2076.56,1285.71 2071.11,1285.71 C2068.59,1285.71 2066.43,1284.45 2066.43,1283.01 C2066.43,1282.52 2066.61,1282.34 2067.33,1282.02 C2068.64,1281.44 2069.18,1280.63 2069.18,1279.41 C2069.18,1277.84 2067.92,1276.62 2066.3,1276.62 C2064.36,1276.62 2063.1,1278.15 2063.1,1280.49 C2063.1,1284.86 2066.43,1287.6 2071.83,1287.6 C2078.63,1287.6 2083.8,1283.06 2083.8,1277.03 C2083.8,1273.52 2081.64,1271.54 2078.49,1270.55"/>
<polyline class="Tuplet" fill="none" stroke="#000000" stroke-width="2.48" stroke-linejoin="miter" stroke-miterlimit="2" points="2012.06,1289.93 2012.06,1271.33 2050.71,1271.39"/>
<polyline class="Tuplet" fill="none" stroke="#000000" stroke-width="2.48" stroke-linejoin="miter" stroke-miterlimit="2" points="2098.37,1271.47 2137.02,1271.53 2137.02,1290.13"/>
<path class="Tuplet" d="M674.448,600.954 C676.563,600.279 677.418,599.919 678.498,599.199 C680.613,597.804 681.918,595.329 681.918,592.809 C681.918,588.534 678.498,585.654 673.458,585.654 C668.553,585.654 664.413,588.714 664.413,592.404 C664.413,594.249 665.538,595.509 667.248,595.509 C668.733,595.509 669.813,594.429 669.813,592.944 C669.813,592.179 669.588,591.639 668.868,590.919 C668.418,590.514 668.238,590.199 668.238,589.884 C668.238,588.804 670.488,587.679 672.603,587.679 C675.618,587.679 677.418,589.344 677.418,592.134 C677.418,596.139 674.583,599.919 671.568,599.919 C671.433,599.919 671.028,599.874 670.533,599.829 C669.228,599.739 669.228,599.739 668.958,599.739 C667.968,599.739 667.428,600.189 667.428,600.999 C667.428,601.719 667.923,602.169 668.733,602.169 C668.958,602.169 669.273,602.124 669.633,602.079 C670.263,601.944 670.938,601.899 671.343,601.899 C673.458,601.899 674.898,603.789 674.898,606.579 C674.898,611.439 672.513,616.119 667.068,616.119 C664.548,616.119 662.388,614.859 662.388,613.419 C662.388,612.924 662.568,612.744 663.288,612.429 C664.593,611.844 665.133,611.034 665.133,609.819 C665.133,608.244 663.873,607.029 662.253,607.029 C660.318,607.029 659.058,608.559 659.058,610.899 C659.058,615.264 662.388,618.009 667.788,618.009 C674.583,618.009 679.758,613.464 679.758,607.434 C679.758,603.924 677.598,601.944 674.448,600.954"/>
<polyline class="Tuplet" fill="none" stroke="#000000" stroke-width="2.48" stroke-linejoin="miter" stroke-miterlimit="2" points="611.998,620.434 611.998,601.834 646.662,601.834"/>
<polyline class="Tuplet" fill="none" stroke="#000000" stroke-width="2.48" stroke-linejoin="miter" stroke-miterlimit="2" points="694.322,601.834 728.987,601.834 728.987,620.434"/>
<path class="Tuplet" d="M981.843,1282.95 C983.958,1282.28 984.813,1281.92 985.893,1281.2 C988.008,1279.8 989.313,1277.33 989.313,1274.81 C989.313,1270.53 985.893,1267.65 980.853,1267.65 C975.948,1267.65 971.808,1270.71 971.808,1274.4 C971.808,1276.25 972.933,1277.51 974.643,1277.51 C976.128,1277.51 977.208,1276.43 977.208,1274.94 C977.208,1274.18 976.983,1273.64 976.263,1272.92 C975.813,1272.51 975.633,1272.2 975.633,1271.88 C975.633,1270.8 977.883,1269.68 979.998,1269.68 C983.013,1269.68 984.813,1271.34 984.813,1274.13 C984.813,1278.14 981.978,1281.92 978.963,1281.92 C978.828,1281.92 978.423,1281.87 977.928,1281.83 C976.623,1281.74 976.623,1281.74 976.353,1281.74 C975.363,1281.74 974.823,1282.19 974.823,1283 C974.823,1283.72 975.318,1284.17 976.128,1284.17 C976.353,1284.17 976.668,1284.12 977.028,1284.08 C977.658,1283.94 978.333,1283.9 978.738,1283.9 C980.853,1283.9 982.293,1285.79 982.293,1288.58 C982.293,1293.44 979.908,1298.12 974.463,1298.12 C971.943,1298.12 969.783,1296.86 969.783,1295.42 C969.783,1294.92 969.963,1294.74 970.683,1294.43 C971.988,1293.84 972.528,1293.03 972.528,1291.82 C972.528,1290.24 971.268,1289.03 969.648,1289.03 C967.713,1289.03 966.453,1290.56 966.453,1292.9 C966.453,1297.26 969.783,1300.01 975.183,1300.01 C981.978,1300.01 987.153,1295.46 987.153,1289.43 C987.153,1285.92 984.993,1283.94 981.843,1282.95"/>
<polyline class="Tuplet" fill="none" stroke="#000000" stroke-width="2.48" stroke-linejoin="miter" stroke-miterlimit="2" points="915.407,1302.43 915.407,1283.83 954.057,1283.83"/>
<polyline class="Tuplet" fill="none" stroke="#000000" stroke-width="2.48" stroke-linejoin="miter" stroke-miterlimit="2" points="1001.72,1283.83 1040.37,1283.83 1040.37,1302.43"/>
<path class="Tuplet" d="M1979.46,791.182 C1981.58,790.507 1982.43,790.147 1983.51,789.427 C1985.63,788.032 1986.93,785.557 1986.93,783.037 C1986.93,778.762 1983.51,775.882 1978.47,775.882 C1973.57,775.882 1969.43,778.942 1969.43,782.632 C1969.43,784.477 1970.55,785.737 1972.26,785.737 C1973.75,785.737 1974.83,784.657 1974.83,783.172 C1974.83,782.407 1974.6,781.867 1973.88,781.147 C1973.43,780.742 1973.25,780.427 1973.25,780.112 C1973.25,779.032 1975.5,777.907 1977.62,777.907 C1980.63,777.907 1982.43,779.572 1982.43,782.362 C1982.43,786.367 1979.6,790.147 1976.58,790.147 C1976.45,790.147 1976.04,790.102 1975.55,790.057 C1974.24,789.967 1974.24,789.967 1973.97,789.967 C1972.98,789.967 1972.44,790.417 1972.44,791.227 C1972.44,791.947 1972.94,792.397 1973.75,792.397 C1973.97,792.397 1974.29,792.352 1974.65,792.307 C1975.28,792.172 1975.95,792.127 1976.36,792.127 C1978.47,792.127 1979.91,794.017 1979.91,796.807 C1979.91,801.667 1977.53,806.347 1972.08,806.347 C1969.56,806.347 1967.4,805.087 1967.4,803.647 C1967.4,803.152 1967.58,802.972 1968.3,802.657 C1969.61,802.072 1970.15,801.262 1970.15,800.047 C1970.15,798.472 1968.89,797.257 1967.27,797.257 C1965.33,797.257 1964.07,798.787 1964.07,801.127 C1964.07,805.492 1967.4,808.237 1972.8,808.237 C1979.6,808.237 1984.77,803.692 1984.77,797.662 C1984.77,794.152 1982.61,792.172 1979.46,791.182"/>
<polyline class="Tuplet" fill="none" stroke="#000000" stroke-width="2.48" stroke-linejoin="miter" stroke-miterlimit="2" points="1917.01,767.312 1917.01,785.912 1951.67,789.557"/>
<polyline class="Tuplet" fill="none" stroke="#000000" stroke-width="2.48" stroke-linejoin="miter" stroke-miterlimit="2" points="1999.33,794.568 2034,798.213 2034,779.613"/>
<path class="Tuplet" d="M814.6,1282.95 C816.715,1282.28 817.57,1281.92 818.65,1281.2 C820.765,1279.8 822.07,1277.33 822.07,1274.81 C822.07,1270.53 818.65,1267.65 813.61,1267.65 C808.705,1267.65 804.565,1270.71 804.565,1274.4 C804.565,1276.25 805.69,1277.51 807.4,1277.51 C808.885,1277.51 809.965,1276.43 809.965,1274.94 C809.965,1274.18 809.74,1273.64 809.02,1272.92 C808.57,1272.51 808.39,1272.2 808.39,1271.88 C808.39,1270.8 810.64,1269.68 812.755,1269.68 C815.77,1269.68 817.57,1271.34 817.57,1274.13 C817.57,1278.14 814.735,1281.92 811.72,1281.92 C811.585,1281.92 811.18,1281.87 810.685,1281.83 C809.38,1281.74 809.38,1281.74 809.11,1281.74 C808.12,1281.74 807.58,1282.19 807.58,1283 C807.58,1283.72 808.075,1284.17 808.885,1284.17 C809.11,1284.17 809.425,1284.12 809.785,1284.08 C810.415,1283.94 811.09,1283.9 811.495,1283.9 C813.61,1283.9 815.05,1285.79 815.05,1288.58 C815.05,1293.44 812.665,1298.12 807.22,1298.12 C804.7,1298.12 802.54,1296.86 802.54,1295.42 C802.54,1294.92 802.72,1294.74 803.44,1294.43 C804.745,1293.84 805.285,1293.03 805.285,1291.82 C805.285,1290.24 804.025,1289.03 802.405,1289.03 C800.47,1289.03 799.21,1290.56 799.21,1292.9 C799.21,1297.26 802.54,1300.01 807.94,1300.01 C814.735,1300.01 819.91,1295.46 819.91,1289.43 C819.91,1285.92 817.75,1283.94 814.6,1282.95"/>
<polyline class="Tuplet" fill="none" stroke="#000000" stroke-width="2.48" stroke-linejoin="miter" stroke-miterlimit="2" points="748.164,1302.43 748.164,1283.83 786.814,1283.83"/>
<polyline class="Tuplet" fill="none" stroke="#000000" stroke-width="2.48" stroke-linejoin="miter" stroke-miterlimit="2" points="834.473,1283.83 873.123,1283.83 873.123,1302.43"/>
<path class="Tuplet" d="M1200.67,1282.95 C1202.78,1282.28 1203.64,1281.92 1204.72,1281.2 C1206.83,1279.8 1208.14,1277.33 1208.14,1274.81 C1208.14,1270.53 1204.72,1267.65 1199.68,1267.65 C1194.77,1267.65 1190.63,1270.71 1190.63,1274.4 C1190.63,1276.25 1191.76,1277.51 1193.47,1277.51 C1194.95,1277.51 1196.03,1276.43 1196.03,1274.94 C1196.03,1274.18 1195.81,1273.64 1195.09,1272.92 C1194.64,1272.51 1194.46,1272.2 1194.46,1271.88 C1194.46,1270.8 1196.71,1269.68 1198.82,1269.68 C1201.84,1269.68 1203.64,1271.34 1203.64,1274.13 C1203.64,1278.14 1200.8,1281.92 1197.79,1281.92 C1197.65,1281.92 1197.25,1281.87 1196.75,1281.83 C1195.45,1281.74 1195.45,1281.74 1195.18,1281.74 C1194.19,1281.74 1193.65,1282.19 1193.65,1283 C1193.65,1283.72 1194.14,1284.17 1194.95,1284.17 C1195.18,1284.17 1195.49,1284.12 1195.85,1284.08 C1196.48,1283.94 1197.16,1283.9 1197.56,1283.9 C1199.68,1283.9 1201.12,1285.79 1201.12,1288.58 C1201.12,1293.44 1198.73,1298.12 1193.29,1298.12 C1190.77,1298.12 1188.61,1296.86 1188.61,1295.42 C1188.61,1294.92 1188.79,1294.74 1189.51,1294.43 C1190.81,1293.84 1191.35,1293.03 1191.35,1291.82 C1191.35,1290.24 1190.09,1289.03 1188.47,1289.03 C1186.54,1289.03 1185.28,1290.56 1185.28,1292.9 C1185.28,1297.26 1188.61,1300.01 1194.01,1300.01 C1200.8,1300.01 1205.98,1295.46 1205.98,1289.43 C1205.98,1285.92 1203.82,1283.94 1200.67,1282.95"/>
<polyline class="Tuplet" fill="none" stroke="#000000" stroke-width="2.48" stroke-linejoin="miter" stroke-miterlimit="2" points="1134.23,1302.43 1134.23,1283.83 1172.88,1283.83"/>
<polyline class="Tuplet" fill="none" stroke="#000000" stroke-width="2.48" stroke-linejoin="miter" stroke-miterlimit="2" points="1220.54,1283.83 1259.19,1283.83 1259.19,1302.43"/>
<path class="Tuplet" d="M2245.43,1282.95 C2247.54,1282.28 2248.4,1281.92 2249.48,1281.2 C2251.59,1279.8 2252.9,1277.33 2252.9,1274.81 C2252.9,1270.53 2249.48,1267.65 2244.44,1267.65 C2239.53,1267.65 2235.39,1270.71 2235.39,1274.4 C2235.39,1276.25 2236.52,1277.51 2238.23,1277.51 C2239.71,1277.51 2240.79,1276.43 2240.79,1274.94 C2240.79,1274.18 2240.57,1273.64 2239.85,1272.92 C2239.4,1272.51 2239.22,1272.2 2239.22,1271.88 C2239.22,1270.8 2241.47,1269.68 2243.58,1269.68 C2246.6,1269.68 2248.4,1271.34 2248.4,1274.13 C2248.4,1278.14 2245.56,1281.92 2242.55,1281.92 C2242.41,1281.92 2242.01,1281.87 2241.51,1281.83 C2240.21,1281.74 2240.21,1281.74 2239.94,1281.74 C2238.95,1281.74 2238.41,1282.19 2238.41,1283 C2238.41,1283.72 2238.9,1284.17 2239.71,1284.17 C2239.94,1284.17 2240.25,1284.12 2240.61,1284.08 C2241.24,1283.94 2241.92,1283.9 2242.32,1283.9 C2244.44,1283.9 2245.88,1285.79 2245.88,1288.58 C2245.88,1293.44 2243.49,1298.12 2238.05,1298.12 C2235.53,1298.12 2233.37,1296.86 2233.37,1295.42 C2233.37,1294.92 2233.55,1294.74 2234.27,1294.43 C2235.57,1293.84 2236.11,1293.03 2236.11,1291.82 C2236.11,1290.24 2234.85,1289.03 2233.23,1289.03 C2231.3,1289.03 2230.04,1290.56 2230.04,1292.9 C2230.04,1297.26 2233.37,1300.01 2238.77,1300.01 C2245.56,1300.01 2250.74,1295.46 2250.74,1289.43 C2250.74,1285.92 2248.58,1283.94 2245.43,1282.95"/>
<polyline class="Tuplet" fill="none" stroke="#000000" stroke-width="2.48" stroke-linejoin="miter" stroke-miterlimit="2" points="2178.99,1302.43 2178.99,1283.83 2217.64,1283.83"/>
<polyline class="Tuplet" fill="none" stroke="#000000" stroke-width="2.48" stroke-linejoin="miter" stroke-miterlimit="2" points="2265.3,1283.83 2303.95,1283.83 2303.95,1302.43"/>
<path class="Tuplet" d="M515.175,600.954 C517.29,600.279 518.145,599.919 519.225,599.199 C521.34,597.804 522.645,595.329 522.645,592.809 C522.645,588.534 519.225,585.654 514.185,585.654 C509.28,585.654 505.14,588.714 505.14,592.404 C505.14,594.249 506.265,595.509 507.975,595.509 C509.46,595.509 510.54,594.429 510.54,592.944 C510.54,592.179 510.315,591.639 509.595,590.919 C509.145,590.514 508.965,590.199 508.965,589.884 C508.965,588.804 511.215,587.679 513.33,587.679 C516.345,587.679 518.145,589.344 518.145,592.134 C518.145,596.139 515.31,599.919 512.295,599.919 C512.16,599.919 511.755,599.874 511.26,599.829 C509.955,599.739 509.955,599.739 509.685,599.739 C508.695,599.739 508.155,600.189 508.155,600.999 C508.155,601.719 508.65,602.169 509.46,602.169 C509.685,602.169 510,602.124 510.36,602.079 C510.99,601.944 511.665,601.899 512.07,601.899 C514.185,601.899 515.625,603.789 515.625,606.579 C515.625,611.439 513.24,616.119 507.795,616.119 C505.275,616.119 503.115,614.859 503.115,613.419 C503.115,612.924 503.295,612.744 504.015,612.429 C505.32,611.844 505.86,611.034 505.86,609.819 C505.86,608.244 504.6,607.029 502.98,607.029 C501.045,607.029 499.785,608.559 499.785,610.899 C499.785,615.264 503.115,618.009 508.515,618.009 C515.31,618.009 520.485,613.464 520.485,607.434 C520.485,603.924 518.325,601.944 515.175,600.954"/>
<polyline class="Tuplet" fill="none" stroke="#000000" stroke-width="2.48" stroke-linejoin="miter" stroke-miterlimit="2" points="452.724,620.434 452.724,601.834 487.389,601.834"/>
<polyline class="Tuplet" fill="none" stroke="#000000" stroke-width="2.48" stroke-linejoin="miter" stroke-miterlimit="2" points="535.049,601.834 569.714,601.834 569.714,620.434"/>
<path class="Tuplet" d="M647.668,1282.95 C649.783,1282.28 650.638,1281.92 651.718,1281.2 C653.833,1279.8 655.138,1277.33 655.138,1274.81 C655.138,1270.53 651.718,1267.65 646.678,1267.65 C641.773,1267.65 637.633,1270.71 637.633,1274.4 C637.633,1276.25 638.758,1277.51 640.468,1277.51 C641.953,1277.51 643.033,1276.43 643.033,1274.94 C643.033,1274.18 642.808,1273.64 642.088,1272.92 C641.638,1272.51 641.458,1272.2 641.458,1271.88 C641.458,1270.8 643.708,1269.68 645.823,1269.68 C648.838,1269.68 650.638,1271.34 650.638,1274.13 C650.638,1278.14 647.803,1281.92 644.788,1281.92 C644.653,1281.92 644.248,1281.87 643.753,1281.83 C642.448,1281.74 642.448,1281.74 642.178,1281.74 C641.188,1281.74 640.648,1282.19 640.648,1283 C640.648,1283.72 641.143,1284.17 641.953,1284.17 C642.178,1284.17 642.493,1284.12 642.853,1284.08 C643.483,1283.94 644.158,1283.9 644.563,1283.9 C646.678,1283.9 648.118,1285.79 648.118,1288.58 C648.118,1293.44 645.733,1298.12 640.288,1298.12 C637.768,1298.12 635.608,1296.86 635.608,1295.42 C635.608,1294.92 635.788,1294.74 636.508,1294.43 C637.813,1293.84 638.353,1293.03 638.353,1291.82 C638.353,1290.24 637.093,1289.03 635.473,1289.03 C633.538,1289.03 632.278,1290.56 632.278,1292.9 C632.278,1297.26 635.608,1300.01 641.008,1300.01 C647.803,1300.01 652.978,1295.46 652.978,1289.43 C652.978,1285.92 650.818,1283.94 647.668,1282.95"/>
<polyline class="Tuplet" fill="none" stroke="#000000" stroke-width="2.48" stroke-linejoin="miter" stroke-miterlimit="2" points="581.233,1302.43 581.233,1283.83 619.883,1283.83"/>
<polyline class="Tuplet" fill="none" stroke="#000000" stroke-width="2.48" stroke-linejoin="miter" stroke-miterlimit="2" points="667.542,1283.83 706.192,1283.83 706.192,1302.43"/>
<path class="Tuplet" d="M1304.6,600.954 C1306.71,600.279 1307.57,599.919 1308.65,599.199 C1310.76,597.804 1312.07,595.329 1312.07,592.809 C1312.07,588.534 1308.65,585.654 1303.61,585.654 C1298.7,585.654 1294.56,588.714 1294.56,592.404 C1294.56,594.249 1295.69,595.509 1297.4,595.509 C1298.88,595.509 1299.96,594.429 1299.96,592.944 C1299.96,592.179 1299.74,591.639 1299.02,590.919 C1298.57,590.514 1298.39,590.199 1298.39,589.884 C1298.39,588.804 1300.64,587.679 1302.75,587.679 C1305.77,587.679 1307.57,589.344 1307.57,592.134 C1307.57,596.139 1304.73,599.919 1301.72,599.919 C1301.58,599.919 1301.18,599.874 1300.68,599.829 C1299.38,599.739 1299.38,599.739 1299.11,599.739 C1298.12,599.739 1297.58,600.189 1297.58,600.999 C1297.58,601.719 1298.07,602.169 1298.88,602.169 C1299.11,602.169 1299.42,602.124 1299.78,602.079 C1300.41,601.944 1301.09,601.899 1301.49,601.899 C1303.61,601.899 1305.05,603.789 1305.05,606.579 C1305.05,611.439 1302.66,616.119 1297.22,616.119 C1294.7,616.119 1292.54,614.859 1292.54,613.419 C1292.54,612.924 1292.72,612.744 1293.44,612.429 C1294.74,611.844 1295.28,611.034 1295.28,609.819 C1295.28,608.244 1294.02,607.029 1292.4,607.029 C1290.47,607.029 1289.21,608.559 1289.21,610.899 C1289.21,615.264 1292.54,618.009 1297.94,618.009 C1304.73,618.009 1309.91,613.464 1309.91,607.434 C1309.91,603.924 1307.75,601.944 1304.6,600.954"/>
<polyline class="Tuplet" fill="none" stroke="#000000" stroke-width="2.48" stroke-linejoin="miter" stroke-miterlimit="2" points="1242.15,620.434 1242.15,601.834 1276.81,601.834"/>
<polyline class="Tuplet" fill="none" stroke="#000000" stroke-width="2.48" stroke-linejoin="miter" stroke-miterlimit="2" points="1324.47,601.834 1359.14,601.834 1359.14,620.434"/>
<path class="Tuplet" d="M1367.91,1282.95 C1370.03,1282.28 1370.88,1281.92 1371.96,1281.2 C1374.08,1279.8 1375.38,1277.33 1375.38,1274.81 C1375.38,1270.53 1371.96,1267.65 1366.92,1267.65 C1362.02,1267.65 1357.88,1270.71 1357.88,1274.4 C1357.88,1276.25 1359,1277.51 1360.71,1277.51 C1362.2,1277.51 1363.28,1276.43 1363.28,1274.94 C1363.28,1274.18 1363.05,1273.64 1362.33,1272.92 C1361.88,1272.51 1361.7,1272.2 1361.7,1271.88 C1361.7,1270.8 1363.95,1269.68 1366.07,1269.68 C1369.08,1269.68 1370.88,1271.34 1370.88,1274.13 C1370.88,1278.14 1368.05,1281.92 1365.03,1281.92 C1364.9,1281.92 1364.49,1281.87 1364,1281.83 C1362.69,1281.74 1362.69,1281.74 1362.42,1281.74 C1361.43,1281.74 1360.89,1282.19 1360.89,1283 C1360.89,1283.72 1361.39,1284.17 1362.2,1284.17 C1362.42,1284.17 1362.74,1284.12 1363.1,1284.08 C1363.73,1283.94 1364.4,1283.9 1364.81,1283.9 C1366.92,1283.9 1368.36,1285.79 1368.36,1288.58 C1368.36,1293.44 1365.98,1298.12 1360.53,1298.12 C1358.01,1298.12 1355.85,1296.86 1355.85,1295.42 C1355.85,1294.92 1356.03,1294.74 1356.75,1294.43 C1358.06,1293.84 1358.6,1293.03 1358.6,1291.82 C1358.6,1290.24 1357.34,1289.03 1355.72,1289.03 C1353.78,1289.03 1352.52,1290.56 1352.52,1292.9 C1352.52,1297.26 1355.85,1300.01 1361.25,1300.01 C1368.05,1300.01 1373.22,1295.46 1373.22,1289.43 C1373.22,1285.92 1371.06,1283.94 1367.91,1282.95"/>
<polyline class="Tuplet" fill="none" stroke="#000000" stroke-width="2.48" stroke-linejoin="miter" stroke-miterlimit="2" points="1301.48,1302.43 1301.48,1283.83 1340.13,1283.83"/>
<polyline class="Tuplet" fill="none" stroke="#000000" stroke-width="2.48" stroke-linejoin="miter" stroke-miterlimit="2" points="1387.79,1283.83 1426.44,1283.83 1426.44,1302.43"/>
<path class="Tuplet" d="M1145.32,600.954 C1147.44,600.279 1148.29,599.919 1149.37,599.199 C1151.49,597.804 1152.79,595.329 1152.79,592.809 C1152.79,588.534 1149.37,585.654 1144.33,585.654 C1139.43,585.654 1135.29,588.714 1135.29,592.404 C1135.29,594.249 1136.41,595.509 1138.12,595.509 C1139.61,595.509 1140.69,594.429 1140.69,592.944 C1140.69,592.179 1140.46,591.639 1139.74,590.919 C1139.29,590.514 1139.11,590.199 1139.11,589.884 C1139.11,588.804 1141.36,587.679 1143.48,587.679 C1146.49,587.679 1148.29,589.344 1148.29,592.134 C1148.29,596.139 1145.46,599.919 1142.44,599.919 C1142.31,599.919 1141.9,599.874 1141.41,599.829 C1140.1,599.739 1140.1,599.739 1139.83,599.739 C1138.84,599.739 1138.3,600.189 1138.3,600.999 C1138.3,601.719 1138.8,602.169 1139.61,602.169 C1139.83,602.169 1140.15,602.124 1140.51,602.079 C1141.14,601.944 1141.81,601.899 1142.22,601.899 C1144.33,601.899 1145.77,603.789 1145.77,606.579 C1145.77,611.439 1143.39,616.119 1137.94,616.119 C1135.42,616.119 1133.26,614.859 1133.26,613.419 C1133.26,612.924 1133.44,612.744 1134.16,612.429 C1135.47,611.844 1136.01,611.034 1136.01,609.819 C1136.01,608.244 1134.75,607.029 1133.13,607.029 C1131.19,607.029 1129.93,608.559 1129.93,610.899 C1129.93,615.264 1133.26,618.009 1138.66,618.009 C1145.46,618.009 1150.63,613.464 1150.63,607.434 C1150.63,603.924 1148.47,601.944 1145.32,600.954"/>
<polyline class="Tuplet" fill="none" stroke="#000000" stroke-width="2.48" stroke-linejoin="miter" stroke-miterlimit="2" points="1082.87,620.434 1082.87,601.834 1117.54,601.834"/>
<polyline class="Tuplet" fill="none" stroke="#000000" stroke-width="2.48" stroke-linejoin="miter" stroke-miterlimit="2" points="1165.2,601.834 1199.86,601.834 1199.86,620.434"/>
<path class="Tuplet" d="M480.426,1282.95 C482.541,1282.28 483.396,1281.92 484.476,1281.2 C486.591,1279.8 487.896,1277.33 487.896,1274.81 C487.896,1270.53 484.476,1267.65 479.436,1267.65 C474.531,1267.65 470.391,1270.71 470.391,1274.4 C470.391,1276.25 471.516,1277.51 473.226,1277.51 C474.711,1277.51 475.791,1276.43 475.791,1274.94 C475.791,1274.18 475.566,1273.64 474.846,1272.92 C474.396,1272.51 474.216,1272.2 474.216,1271.88 C474.216,1270.8 476.466,1269.68 478.581,1269.68 C481.596,1269.68 483.396,1271.34 483.396,1274.13 C483.396,1278.14 480.561,1281.92 477.546,1281.92 C477.411,1281.92 477.006,1281.87 476.511,1281.83 C475.206,1281.74 475.206,1281.74 474.936,1281.74 C473.946,1281.74 473.406,1282.19 473.406,1283 C473.406,1283.72 473.901,1284.17 474.711,1284.17 C474.936,1284.17 475.251,1284.12 475.611,1284.08 C476.241,1283.94 476.916,1283.9 477.321,1283.9 C479.436,1283.9 480.876,1285.79 480.876,1288.58 C480.876,1293.44 478.491,1298.12 473.046,1298.12 C470.526,1298.12 468.366,1296.86 468.366,1295.42 C468.366,1294.92 468.546,1294.74 469.266,1294.43 C470.571,1293.84 471.111,1293.03 471.111,1291.82 C471.111,1290.24 469.851,1289.03 468.231,1289.03 C466.296,1289.03 465.036,1290.56 465.036,1292.9 C465.036,1297.26 468.366,1300.01 473.766,1300.01 C480.561,1300.01 485.736,1295.46 485.736,1289.43 C485.736,1285.92 483.576,1283.94 480.426,1282.95"/>
<polyline class="Tuplet" fill="none" stroke="#000000" stroke-width="2.48" stroke-linejoin="miter" stroke-miterlimit="2" points="413.99,1302.43 413.99,1283.83 452.64,1283.83"/>
<polyline class="Tuplet" fill="none" stroke="#000000" stroke-width="2.48" stroke-linejoin="miter" stroke-miterlimit="2" points="500.299,1283.83 538.949,1283.83 538.949,1302.43"/>
<path class="Tuplet" d="M833.722,592.925 C835.837,592.25 836.692,591.89 837.772,591.17 C839.887,589.775 841.192,587.3 841.192,584.78 C841.192,580.505 837.772,577.625 832.732,577.625 C827.827,577.625 823.687,580.685 823.687,584.375 C823.687,586.22 824.812,587.48 826.522,587.48 C828.007,587.48 829.087,586.4 829.087,584.915 C829.087,584.15 828.862,583.61 828.142,582.89 C827.692,582.485 827.512,582.17 827.512,581.855 C827.512,580.775 829.762,579.65 831.877,579.65 C834.892,579.65 836.692,581.315 836.692,584.105 C836.692,588.11 833.857,591.89 830.842,591.89 C830.707,591.89 830.302,591.845 829.807,591.8 C828.502,591.71 828.502,591.71 828.232,591.71 C827.242,591.71 826.702,592.16 826.702,592.97 C826.702,593.69 827.197,594.14 828.007,594.14 C828.232,594.14 828.547,594.095 828.907,594.05 C829.537,593.915 830.212,593.87 830.617,593.87 C832.732,593.87 834.172,595.76 834.172,598.55 C834.172,603.41 831.787,608.09 826.342,608.09 C823.822,608.09 821.662,606.83 821.662,605.39 C821.662,604.895 821.842,604.715 822.562,604.4 C823.867,603.815 824.407,603.005 824.407,601.79 C824.407,600.215 823.147,599 821.527,599 C819.592,599 818.332,600.53 818.332,602.87 C818.332,607.235 821.662,609.98 827.062,609.98 C833.857,609.98 839.032,605.435 839.032,599.405 C839.032,595.895 836.872,593.915 833.722,592.925"/>
<polyline class="Tuplet" fill="none" stroke="#000000" stroke-width="2.48" stroke-linejoin="miter" stroke-miterlimit="2" points="771.271,618.506 771.271,599.906 805.936,596.29"/>
<polyline class="Tuplet" fill="none" stroke="#000000" stroke-width="2.48" stroke-linejoin="miter" stroke-miterlimit="2" points="853.595,591.32 888.26,587.704 888.26,606.304"/>
</svg>
