<?xml version="1.0" encoding="UTF-8" standalone="no"?>
<svg width="2977.2px" height="4208.4px" viewBox="0 0 2977.2 4208.4"
 xmlns="http://www.w3.org/2000/svg" xmlns:xlink="http://www.w3.org/1999/xlink" version="1.2" baseProfile="tiny">
<title>十人のインディアン</title>
<desc>Generated by MuseScore Studio 4.4.2</desc>
<path class="" fill="#ffffff" fill-rule="evenodd" d="M0,0 L2977.2,0 L2977.2,4208.4 L0,4208.4 L0,0 "/>
<polyline class="StaffLines" fill="none" stroke="#000000" stroke-width="2.73" stroke-linejoin="bevel" points="212.598,634.198 2764.6,634.198"/>
<polyline class="StaffLines" fill="none" stroke="#000000" stroke-width="2.73" stroke-linejoin="bevel" points="212.598,658.998 2764.6,658.998"/>
<polyline class="StaffLines" fill="none" stroke="#000000" stroke-width="2.73" stroke-linejoin="bevel" points="212.598,683.798 2764.6,683.798"/>
<polyline class="StaffLines" fill="none" stroke="#000000" stroke-width="2.73" stroke-linejoin="bevel" points="212.598,708.598 2764.6,708.598"/>
<polyline class="StaffLines" fill="none" stroke="#000000" stroke-width="2.73" stroke-linejoin="bevel" points="212.598,733.398 2764.6,733.398"/>
<polyline class="StaffLines" fill="none" stroke="#000000" stroke-width="2.73" stroke-linejoin="bevel" points="212.598,1105.4 2764.6,1105.4"/>
<polyline class="StaffLines" fill="none" stroke="#000000" stroke-width="2.73" stroke-linejoin="bevel" points="212.598,1130.2 2764.6,1130.2"/>
<polyline class="StaffLines" fill="none" stroke="#000000" stroke-width="2.73" stroke-linejoin="bevel" points="212.598,1155 2764.6,1155"/>
<polyline class="StaffLines" fill="none" stroke="#000000" stroke-width="2.73" stroke-linejoin="bevel" points="212.598,1179.8 2764.6,1179.8"/>
<polyline class="StaffLines" fill="none" stroke="#000000" stroke-width="2.73" stroke-linejoin="bevel" points="212.598,1204.6 2764.6,1204.6"/>
<path class="Text" d="M1046.94,256.928 L1015.59,256.928 C1010.31,256.928 1006.9,256.708 1003.05,256.268 L1003.05,264.848 C1006.68,264.408 1010.42,264.188 1015.59,264.188 L1046.94,264.188 L1046.94,304.448 C1046.94,309.618 1046.72,313.798 1046.17,317.428 L1055.52,317.428 C1054.97,313.908 1054.75,309.948 1054.75,304.448 L1054.75,264.188 L1088.52,264.188 C1094.02,264.188 1097.1,264.408 1101.06,264.848 L1101.06,256.268 C1097.32,256.708 1093.91,256.928 1088.52,256.928 L1054.75,256.928 L1054.75,228.988 C1054.75,223.818 1054.97,220.298 1055.41,216.888 L1046.28,216.888 C1046.72,220.518 1046.94,224.038 1046.94,228.988 L1046.94,256.928 M1157.6,218.758 C1157.93,221.618 1158.04,223.818 1158.04,228.438 C1158.04,255.498 1150.56,276.618 1135.27,293.008 C1128.89,299.828 1123.94,303.458 1112.83,309.618 C1115.58,311.708 1116.9,313.138 1118.77,316.108 C1128.34,310.058 1132.85,306.428 1139.01,300.048 C1146.05,293.008 1150.89,285.968 1154.74,277.498 C1158.48,269.358 1160.35,263.418 1162.33,252.968 C1165.63,267.708 1169.81,277.938 1176.63,287.948 C1184.44,299.278 1192.36,306.978 1205.78,316.108 C1207.65,312.918 1208.86,311.598 1211.5,309.178 C1205.12,305.438 1202.26,303.568 1198.74,300.598 C1192.8,295.648 1186.86,289.378 1182.46,283.218 C1176.08,274.198 1170.14,261.218 1168.27,252.418 C1166.95,246.258 1165.85,235.038 1165.85,228.548 C1165.85,225.028 1166.07,220.628 1166.4,218.758 L1157.6,218.758 "/>
<path class="Text" d="M1278.05,235.918 C1283.55,236.138 1286.74,236.908 1290.81,238.668 C1301.92,243.618 1308.3,253.738 1308.3,266.278 C1308.3,279.808 1300.93,291.578 1288.83,297.078 C1283.66,299.498 1278.49,300.928 1270.46,302.248 C1272.55,304.888 1273.21,305.988 1274.31,309.618 C1281.9,307.968 1286.08,306.648 1291.03,304.558 C1306.98,297.738 1316.22,283.658 1316.22,266.608 C1316.22,256.048 1312.48,246.478 1305.55,239.768 C1298.4,232.728 1287.62,228.878 1275.3,228.878 C1260.56,228.878 1248.57,233.828 1239.77,243.508 C1232.4,251.758 1228.22,262.648 1228.22,273.868 C1228.22,289.268 1236.03,300.708 1246.48,300.708 C1254.4,300.708 1260.89,294.108 1267.27,279.588 C1272.22,268.038 1276.4,251.208 1278.05,235.918 M1270.13,236.028 C1268.7,250.108 1264.63,266.388 1260.12,276.728 C1255.39,287.508 1250.99,292.678 1246.37,292.678 C1240.43,292.678 1235.81,284.538 1235.81,273.978 C1235.81,260.338 1242.63,247.908 1253.74,241.198 C1258.8,238.118 1263.53,236.578 1270.13,236.028"/>
<path class="Text" d="M1413.24,221.508 C1410.16,226.678 1402.46,234.378 1392.23,242.298 C1374.85,255.938 1355.82,265.398 1335.14,270.788 C1337.34,273.538 1337.89,274.638 1339.43,278.158 C1359.56,271.338 1367.59,267.708 1381.89,258.908 L1381.89,300.708 C1381.89,306.758 1381.78,309.288 1381.23,312.148 L1390.8,312.148 C1390.36,309.178 1390.25,306.758 1390.25,300.488 L1390.25,253.628 C1399.71,246.808 1409.06,238.778 1415.99,231.518 C1418.74,228.548 1418.85,228.328 1420.83,226.898 L1413.24,221.508 M1454.27,237.018 C1463.84,242.848 1472.53,249.998 1480.45,258.578 L1486.17,251.758 C1478.25,243.948 1471.43,238.558 1459.66,231.078 L1454.27,237.018 M1455.04,308.518 C1457.79,307.638 1458.67,307.418 1461.64,306.758 C1480.01,302.578 1491.34,298.068 1502.67,290.368 C1517.19,280.358 1527.42,267.488 1536.22,248.348 C1533.14,246.258 1532.04,245.268 1529.51,241.858 C1520.6,265.178 1505.86,281.348 1484.63,290.808 C1474.4,295.538 1461.2,298.948 1452.62,299.278 L1455.04,308.518 M1634.01,260.888 C1640.94,260.888 1643.25,260.998 1646.66,261.438 L1646.66,253.298 C1643.03,253.848 1640.94,253.958 1633.9,253.958 L1569.55,253.958 C1562.62,253.958 1560.42,253.848 1556.79,253.298 L1556.79,261.438 C1560.2,260.998 1562.51,260.888 1569.44,260.888 L1599.25,260.888 C1598.37,285.968 1589.79,297.738 1567.02,305.328 C1569.66,307.858 1570.76,309.288 1572.19,312.478 C1597.05,302.798 1606.29,289.378 1607.61,260.888 L1634.01,260.888 M1567.9,234.378 C1570.98,233.938 1572.85,233.828 1580.44,233.828 L1613.88,233.828 C1620.81,233.938 1624.99,234.048 1626.42,234.158 L1626.42,226.238 C1622.57,226.678 1619.71,226.788 1613.77,226.788 L1580.55,226.788 C1573.4,226.788 1571.2,226.678 1567.9,226.018 L1567.9,234.378 M1626.86,219.418 C1629.94,222.938 1635,231.298 1637.53,237.238 L1643.14,234.158 C1640.06,227.668 1637.09,222.828 1632.36,216.778 L1626.86,219.418 M1640.39,215.348 C1644.46,220.518 1648.86,227.778 1651.06,233.058 L1656.67,229.978 C1653.26,223.048 1650.62,218.758 1645.89,212.598 L1640.39,215.348 M1728.27,241.088 C1726.62,243.618 1725.41,245.048 1722.11,248.238 C1712.76,257.588 1702.75,264.958 1690.65,271.118 C1682.62,275.408 1676.13,277.828 1665.13,280.798 C1667.22,283.438 1667.88,284.538 1668.98,287.398 C1682.62,283.218 1691.97,279.038 1702.75,272.218 L1702.75,304.888 C1702.75,310.388 1702.64,311.818 1702.31,314.458 L1710.89,314.458 C1710.45,311.708 1710.34,309.068 1710.34,304.778 L1710.34,267.598 C1721.01,259.348 1726.51,254.398 1732.45,248.238 C1733.66,246.918 1733.88,246.588 1735.09,245.708 L1728.27,241.088 M1847.61,227.668 C1845.63,228.438 1845.63,228.438 1838.26,228.438 L1779.19,228.438 C1772.92,228.438 1769.84,228.218 1766.1,227.668 L1766.1,236.138 C1770.17,235.698 1773.03,235.588 1779.08,235.588 L1841.56,235.588 C1838.37,241.858 1834.3,247.248 1829.24,251.978 C1824.07,256.818 1819.56,259.458 1811.86,262.428 C1814.72,264.958 1815.6,265.948 1817.25,268.698 C1831.55,262.098 1841.78,252.088 1849.37,237.348 C1850.69,234.708 1850.91,234.378 1852.01,232.948 L1847.61,227.668 M1799.65,246.808 C1799.98,248.898 1800.09,249.668 1800.09,252.748 C1800.09,274.198 1795.8,285.418 1784.14,294.768 C1778.42,299.498 1772.92,302.248 1764.01,304.888 C1766.65,307.638 1767.42,308.738 1769.07,312.258 C1782.38,307.198 1790.52,301.698 1797.23,293.228 C1804.71,283.768 1807.79,272.878 1808.12,254.508 C1808.23,248.788 1808.23,248.788 1808.56,246.808 L1799.65,246.808 M1878.85,237.018 C1888.42,242.848 1897.11,249.998 1905.03,258.578 L1910.75,251.758 C1902.83,243.948 1896.01,238.558 1884.24,231.078 L1878.85,237.018 M1879.62,308.518 C1882.37,307.638 1883.25,307.418 1886.22,306.758 C1904.59,302.578 1915.92,298.068 1927.25,290.368 C1941.77,280.358 1952,267.488 1960.8,248.348 C1957.72,246.258 1956.62,245.268 1954.09,241.858 C1945.18,265.178 1930.44,281.348 1909.21,290.808 C1898.98,295.538 1885.78,298.948 1877.2,299.278 L1879.62,308.518 "/>
<path class="MeasureNumber" d="M216.922,1040.48 C215.682,1041.24 215.322,1041.72 215.322,1042.52 C215.322,1043.28 215.962,1043.84 216.762,1043.84 C217.802,1043.84 218.402,1043.08 218.522,1041.6 C219.762,1040.6 221.082,1040.16 222.682,1040.16 C225.642,1040.16 227.282,1042 227.282,1045.32 C227.282,1050.52 223.922,1054.76 219.802,1054.76 C217.442,1054.76 215.522,1053.64 215.522,1052.32 C215.522,1052.08 215.562,1052 215.762,1051.88 C217.042,1051.28 218.082,1050.84 218.082,1049.16 C218.082,1047.88 217.082,1046.92 215.682,1046.92 C213.922,1046.92 212.602,1048.4 212.602,1050.32 C212.602,1053.84 215.642,1056.4 219.922,1056.4 C226.402,1056.4 231.642,1051.24 231.642,1044.84 C231.642,1040.8 228.562,1037.96 224.202,1037.96 C222.482,1037.96 221.082,1038.32 219.162,1039.28 L221.402,1031.72 C223.522,1032.16 225.202,1032.36 226.642,1032.36 C229.282,1032.36 231.642,1031.52 232.962,1030.12 C233.642,1029.32 234.042,1028.64 234.042,1028.12 C234.042,1027.88 233.922,1027.64 233.762,1027.64 C233.642,1027.64 233.562,1027.68 233.322,1027.8 C232.002,1028.44 230.322,1028.8 228.762,1028.8 C226.362,1028.8 223.522,1028.4 220.562,1027.64 L216.922,1040.48 "/>
<polyline class="BarLine" fill="none" stroke="#000000" stroke-width="4.46" stroke-linejoin="bevel" points="2740.42,1104.03 2740.42,1205.96"/>
<polyline class="BarLine" fill="none" stroke="#000000" stroke-width="13.64" stroke-linejoin="bevel" points="2757.78,1104.03 2757.78,1205.96"/>
<polyline class="BarLine" fill="none" stroke="#000000" stroke-width="4.46" stroke-linejoin="bevel" points="2295,1104.03 2295,1205.96"/>
<polyline class="BarLine" fill="none" stroke="#000000" stroke-width="4.46" stroke-linejoin="bevel" points="1584.74,632.834 1584.74,734.762"/>
<polyline class="BarLine" fill="none" stroke="#000000" stroke-width="4.46" stroke-linejoin="bevel" points="2762.37,632.834 2762.37,734.762"/>
<polyline class="BarLine" fill="none" stroke="#000000" stroke-width="4.46" stroke-linejoin="bevel" points="2194,632.834 2194,734.762"/>
<polyline class="BarLine" fill="none" stroke="#000000" stroke-width="4.46" stroke-linejoin="bevel" points="1667.93,1104.03 1667.93,1205.96"/>
<polyline class="BarLine" fill="none" stroke="#000000" stroke-width="4.46" stroke-linejoin="bevel" points="1040.86,1104.03 1040.86,1205.96"/>
<polyline class="BarLine" fill="none" stroke="#000000" stroke-width="4.46" stroke-linejoin="bevel" points="1016.37,632.834 1016.37,734.762"/>
<polyline class="LedgerLine" fill="none" stroke="#000000" stroke-width="3.97" stroke-linejoin="bevel" points="2628.77,758.198 2678.35,758.198"/>
<polyline class="Stem" fill="none" stroke="#000000" stroke-width="2.73" stroke-linejoin="bevel" points="978.661,1188.23 978.661,1111.6"/>
<polyline class="Stem" fill="none" stroke="#000000" stroke-width="2.73" stroke-linejoin="bevel" points="2140.84,704.63 2140.84,634.198"/>
<polyline class="Stem" fill="none" stroke="#000000" stroke-width="2.73" stroke-linejoin="bevel" points="1212.93,1146.76 1212.93,1210.8"/>
<polyline class="Stem" fill="none" stroke="#000000" stroke-width="2.73" stroke-linejoin="bevel" points="1106.19,1163.43 1106.19,1086.8"/>
<polyline class="Stem" fill="none" stroke="#000000" stroke-width="2.73" stroke-linejoin="bevel" points="963.206,717.03 963.206,640.398"/>
<polyline class="Stem" fill="none" stroke="#000000" stroke-width="2.73" stroke-linejoin="bevel" points="881.412,717.03 881.412,640.398"/>
<polyline class="Stem" fill="none" stroke="#000000" stroke-width="2.73" stroke-linejoin="bevel" points="1424.08,1163.43 1424.08,1086.8"/>
<polyline class="Stem" fill="none" stroke="#000000" stroke-width="2.73" stroke-linejoin="bevel" points="1560.32,1188.23 1560.32,1105.4"/>
<polyline class="Stem" fill="none" stroke="#000000" stroke-width="2.73" stroke-linejoin="bevel" points="1081.7,692.23 1081.7,615.598"/>
<polyline class="Stem" fill="none" stroke="#000000" stroke-width="2.73" stroke-linejoin="bevel" points="758.72,717.03 758.72,634.198"/>
<polyline class="Stem" fill="none" stroke="#000000" stroke-width="2.73" stroke-linejoin="bevel" points="676.926,717.03 676.926,640.398"/>
<polyline class="Stem" fill="none" stroke="#000000" stroke-width="2.73" stroke-linejoin="bevel" points="1174.9,675.565 1174.9,739.598"/>
<polyline class="Stem" fill="none" stroke="#000000" stroke-width="2.73" stroke-linejoin="bevel" points="887.835,1188.23 887.835,1111.6"/>
<polyline class="Stem" fill="none" stroke="#000000" stroke-width="2.73" stroke-linejoin="bevel" points="751.596,1188.23 751.596,1105.4"/>
<polyline class="Stem" fill="none" stroke="#000000" stroke-width="2.73" stroke-linejoin="bevel" points="660.77,1188.23 660.77,1111.6"/>
<polyline class="Stem" fill="none" stroke="#000000" stroke-width="2.73" stroke-linejoin="bevel" points="1256.69,675.565 1256.69,739.598"/>
<polyline class="Stem" fill="none" stroke="#000000" stroke-width="2.73" stroke-linejoin="bevel" points="569.945,1188.23 569.945,1111.6"/>
<polyline class="Stem" fill="none" stroke="#000000" stroke-width="2.73" stroke-linejoin="bevel" points="1367.98,692.23 1367.98,615.598"/>
<polyline class="Stem" fill="none" stroke="#000000" stroke-width="2.73" stroke-linejoin="bevel" points="433.706,1188.23 433.706,1105.4"/>
<polyline class="Stem" fill="none" stroke="#000000" stroke-width="2.73" stroke-linejoin="bevel" points="1703.77,1146.76 1703.77,1223.2"/>
<polyline class="Stem" fill="none" stroke="#000000" stroke-width="2.73" stroke-linejoin="bevel" points="1490.68,717.03 1490.68,634.198"/>
<polyline class="Stem" fill="none" stroke="#000000" stroke-width="2.73" stroke-linejoin="bevel" points="1840,1159.16 1840,1223.2"/>
<polyline class="Stem" fill="none" stroke="#000000" stroke-width="2.73" stroke-linejoin="bevel" points="595.132,717.03 595.132,640.398"/>
<polyline class="Stem" fill="none" stroke="#000000" stroke-width="2.73" stroke-linejoin="bevel" points="1930.83,1159.16 1930.83,1223.2"/>
<polyline class="Stem" fill="none" stroke="#000000" stroke-width="2.73" stroke-linejoin="bevel" points="2051.15,1163.43 2051.15,1086.8"/>
<polyline class="Stem" fill="none" stroke="#000000" stroke-width="2.73" stroke-linejoin="bevel" points="1650.07,704.63 1650.07,621.798"/>
<polyline class="Stem" fill="none" stroke="#000000" stroke-width="2.73" stroke-linejoin="bevel" points="2187.39,1175.83 2187.39,1093"/>
<polyline class="Stem" fill="none" stroke="#000000" stroke-width="2.73" stroke-linejoin="bevel" points="2668.31,754.23 2668.31,671.398"/>
<polyline class="Stem" fill="none" stroke="#000000" stroke-width="2.73" stroke-linejoin="bevel" points="1772.76,704.63 1772.76,634.198"/>
<polyline class="Stem" fill="none" stroke="#000000" stroke-width="2.73" stroke-linejoin="bevel" points="472.44,717.03 472.44,634.198"/>
<polyline class="Stem" fill="none" stroke="#000000" stroke-width="2.73" stroke-linejoin="bevel" points="2545.62,729.43 2545.62,646.598"/>
<polyline class="Stem" fill="none" stroke="#000000" stroke-width="2.73" stroke-linejoin="bevel" points="2463.82,704.63 2463.82,634.198"/>
<polyline class="Stem" fill="none" stroke="#000000" stroke-width="2.73" stroke-linejoin="bevel" points="1854.56,704.63 1854.56,634.198"/>
<polyline class="Stem" fill="none" stroke="#000000" stroke-width="2.73" stroke-linejoin="bevel" points="2382.03,704.63 2382.03,634.198"/>
<polyline class="Stem" fill="none" stroke="#000000" stroke-width="2.73" stroke-linejoin="bevel" points="1936.35,704.63 1936.35,621.798"/>
<polyline class="Stem" fill="none" stroke="#000000" stroke-width="2.73" stroke-linejoin="bevel" points="2259.34,729.43 2259.34,646.598"/>
<polyline class="Stem" fill="none" stroke="#000000" stroke-width="2.73" stroke-linejoin="bevel" points="2360.33,1188.23 2360.33,1105.4"/>
<polyline class="Stem" fill="none" stroke="#000000" stroke-width="2.73" stroke-linejoin="bevel" points="2059.04,704.63 2059.04,634.198"/>
<polyline class="Stem" fill="none" stroke="#000000" stroke-width="2.73" stroke-linejoin="bevel" points="1303.76,1146.76 1303.76,1210.8"/>
<path class="Note" transform="matrix(0.992,0,0,0.992,2432.96,708.598)" d="M0,4.2 C0,8.5 3.1,13.3 11.2,13.3 C21.6,13.3 32.5,4.8 32.5,-4 C32.5,-9.9 27.5,-13.2 21.3,-13.2 C11.6,-13.2 0,-5 0,4.2"/>
<path class="Note" transform="matrix(0.992,0,0,0.992,720.736,1192.2)" d="M0,4.2 C0,8.5 3.1,13.3 11.2,13.3 C21.6,13.3 32.5,4.8 32.5,-4 C32.5,-9.9 27.5,-13.2 21.3,-13.2 C11.6,-13.2 0,-5 0,4.2"/>
<path class="Note" transform="matrix(0.992,0,0,0.992,850.551,720.998)" d="M0,4.2 C0,8.5 3.1,13.3 11.2,13.3 C21.6,13.3 32.5,4.8 32.5,-4 C32.5,-9.9 27.5,-13.2 21.3,-13.2 C11.6,-13.2 0,-5 0,4.2"/>
<path class="Note" transform="matrix(0.992,0,0,0.992,2109.98,708.598)" d="M0,4.2 C0,8.5 3.1,13.3 11.2,13.3 C21.6,13.3 32.5,4.8 32.5,-4 C32.5,-9.9 27.5,-13.2 21.3,-13.2 C11.6,-13.2 0,-5 0,4.2"/>
<path class="Note" transform="matrix(0.992,0,0,0.992,2028.18,708.598)" d="M0,4.2 C0,8.5 3.1,13.3 11.2,13.3 C21.6,13.3 32.5,4.8 32.5,-4 C32.5,-9.9 27.5,-13.2 21.3,-13.2 C11.6,-13.2 0,-5 0,4.2"/>
<path class="Note" transform="matrix(0.992,0,0,0.992,1393.22,1167.4)" d="M0,4.2 C0,8.5 3.1,13.3 11.2,13.3 C21.6,13.3 32.5,4.8 32.5,-4 C32.5,-9.9 27.5,-13.2 21.3,-13.2 C11.6,-13.2 0,-5 0,4.2"/>
<path class="Note" transform="matrix(0.992,0,0,0.992,2329.47,1192.2)" d="M21.3,-13.2 C11.6,-13.2 0,-5.1 0,4.2 C0,8.5 3.1,13.3 11.2,13.3 C21.6,13.3 32.5,4.8 32.5,-4 C32.5,-9.9 27.5,-13.2 21.3,-13.2 M7.5,8.6 C4.2,8.6 3.5,5.9 3.5,5 C3.5,0.1 20.3,-8.5 25,-8.5 C27.4,-8.5 29,-7.1 29,-4.9 C29,0.1 12.1,8.6 7.5,8.6"/>
<path class="Note" transform="matrix(0.992,0,0,0.992,1905.49,708.598)" d="M0,4.2 C0,8.5 3.1,13.3 11.2,13.3 C21.6,13.3 32.5,4.8 32.5,-4 C32.5,-9.9 27.5,-13.2 21.3,-13.2 C11.6,-13.2 0,-5 0,4.2"/>
<path class="Note" transform="matrix(0.992,0,0,0.992,2228.47,733.398)" d="M0,4.2 C0,8.5 3.1,13.3 11.2,13.3 C21.6,13.3 32.5,4.8 32.5,-4 C32.5,-9.9 27.5,-13.2 21.3,-13.2 C11.6,-13.2 0,-5 0,4.2"/>
<path class="Note" transform="matrix(0.992,0,0,0.992,1211.57,1142.6)" d="M0,4.2 C0,8.5 3.1,13.3 11.2,13.3 C21.6,13.3 32.5,4.8 32.5,-4 C32.5,-9.9 27.5,-13.2 21.3,-13.2 C11.6,-13.2 0,-5 0,4.2"/>
<path class="Note" transform="matrix(0.992,0,0,0.992,1823.7,708.598)" d="M0,4.2 C0,8.5 3.1,13.3 11.2,13.3 C21.6,13.3 32.5,4.8 32.5,-4 C32.5,-9.9 27.5,-13.2 21.3,-13.2 C11.6,-13.2 0,-5 0,4.2"/>
<path class="Note" transform="matrix(0.992,0,0,0.992,2351.17,708.598)" d="M0,4.2 C0,8.5 3.1,13.3 11.2,13.3 C21.6,13.3 32.5,4.8 32.5,-4 C32.5,-9.9 27.5,-13.2 21.3,-13.2 C11.6,-13.2 0,-5 0,4.2"/>
<path class="Note" transform="matrix(0.992,0,0,0.992,727.86,720.998)" d="M0,4.2 C0,8.5 3.1,13.3 11.2,13.3 C21.6,13.3 32.5,4.8 32.5,-4 C32.5,-9.9 27.5,-13.2 21.3,-13.2 C11.6,-13.2 0,-5 0,4.2"/>
<path class="Note" transform="matrix(0.992,0,0,0.992,1075.33,1167.4)" d="M0,4.2 C0,8.5 3.1,13.3 11.2,13.3 C21.6,13.3 32.5,4.8 32.5,-4 C32.5,-9.9 27.5,-13.2 21.3,-13.2 C11.6,-13.2 0,-5 0,4.2"/>
<path class="Note" transform="matrix(0.992,0,0,0.992,1529.46,1192.2)" d="M0,4.2 C0,8.5 3.1,13.3 11.2,13.3 C21.6,13.3 32.5,4.8 32.5,-4 C32.5,-9.9 27.5,-13.2 21.3,-13.2 C11.6,-13.2 0,-5 0,4.2"/>
<path class="Note" transform="matrix(0.992,0,0,0.992,932.346,720.998)" d="M0,4.2 C0,8.5 3.1,13.3 11.2,13.3 C21.6,13.3 32.5,4.8 32.5,-4 C32.5,-9.9 27.5,-13.2 21.3,-13.2 C11.6,-13.2 0,-5 0,4.2"/>
<path class="Note" transform="matrix(0.992,0,0,0.992,1741.9,708.598)" d="M0,4.2 C0,8.5 3.1,13.3 11.2,13.3 C21.6,13.3 32.5,4.8 32.5,-4 C32.5,-9.9 27.5,-13.2 21.3,-13.2 C11.6,-13.2 0,-5 0,4.2"/>
<path class="Note" transform="matrix(0.992,0,0,0.992,2514.75,733.398)" d="M0,4.2 C0,8.5 3.1,13.3 11.2,13.3 C21.6,13.3 32.5,4.8 32.5,-4 C32.5,-9.9 27.5,-13.2 21.3,-13.2 C11.6,-13.2 0,-5 0,4.2"/>
<path class="Note" transform="matrix(0.992,0,0,0.992,2156.53,1179.8)" d="M0,4.2 C0,8.5 3.1,13.3 11.2,13.3 C21.6,13.3 32.5,4.8 32.5,-4 C32.5,-9.9 27.5,-13.2 21.3,-13.2 C11.6,-13.2 0,-5 0,4.2"/>
<path class="Note" transform="matrix(0.992,0,0,0.992,441.58,720.998)" d="M0,4.2 C0,8.5 3.1,13.3 11.2,13.3 C21.6,13.3 32.5,4.8 32.5,-4 C32.5,-9.9 27.5,-13.2 21.3,-13.2 C11.6,-13.2 0,-5 0,4.2"/>
<path class="Note" transform="matrix(0.992,0,0,0.992,1619.21,708.598)" d="M0,4.2 C0,8.5 3.1,13.3 11.2,13.3 C21.6,13.3 32.5,4.8 32.5,-4 C32.5,-9.9 27.5,-13.2 21.3,-13.2 C11.6,-13.2 0,-5 0,4.2"/>
<path class="Note" transform="matrix(0.992,0,0,0.992,2637.45,758.198)" d="M0,4.2 C0,8.5 3.1,13.3 11.2,13.3 C21.6,13.3 32.5,4.8 32.5,-4 C32.5,-9.9 27.5,-13.2 21.3,-13.2 C11.6,-13.2 0,-5 0,4.2"/>
<path class="Note" transform="matrix(0.992,0,0,0.992,2020.29,1167.4)" d="M0,4.2 C0,8.5 3.1,13.3 11.2,13.3 C21.6,13.3 32.5,4.8 32.5,-4 C32.5,-9.9 27.5,-13.2 21.3,-13.2 C11.6,-13.2 0,-5 0,4.2"/>
<path class="Note" transform="matrix(0.992,0,0,0.992,1050.84,696.198)" d="M0,4.2 C0,8.5 3.1,13.3 11.2,13.3 C21.6,13.3 32.5,4.8 32.5,-4 C32.5,-9.9 27.5,-13.2 21.3,-13.2 C11.6,-13.2 0,-5 0,4.2"/>
<path class="Note" transform="matrix(0.992,0,0,0.992,1459.82,720.998)" d="M0,4.2 C0,8.5 3.1,13.3 11.2,13.3 C21.6,13.3 32.5,4.8 32.5,-4 C32.5,-9.9 27.5,-13.2 21.3,-13.2 C11.6,-13.2 0,-5 0,4.2"/>
<path class="Note" transform="matrix(0.992,0,0,0.992,1929.47,1155)" d="M0,4.2 C0,8.5 3.1,13.3 11.2,13.3 C21.6,13.3 32.5,4.8 32.5,-4 C32.5,-9.9 27.5,-13.2 21.3,-13.2 C11.6,-13.2 0,-5 0,4.2"/>
<path class="Note" transform="matrix(0.992,0,0,0.992,947.8,1192.2)" d="M0,4.2 C0,8.5 3.1,13.3 11.2,13.3 C21.6,13.3 32.5,4.8 32.5,-4 C32.5,-9.9 27.5,-13.2 21.3,-13.2 C11.6,-13.2 0,-5 0,4.2"/>
<path class="Note" transform="matrix(0.992,0,0,0.992,646.066,720.998)" d="M0,4.2 C0,8.5 3.1,13.3 11.2,13.3 C21.6,13.3 32.5,4.8 32.5,-4 C32.5,-9.9 27.5,-13.2 21.3,-13.2 C11.6,-13.2 0,-5 0,4.2"/>
<path class="Note" transform="matrix(0.992,0,0,0.992,1337.12,696.198)" d="M0,4.2 C0,8.5 3.1,13.3 11.2,13.3 C21.6,13.3 32.5,4.8 32.5,-4 C32.5,-9.9 27.5,-13.2 21.3,-13.2 C11.6,-13.2 0,-5 0,4.2"/>
<path class="Note" transform="matrix(0.992,0,0,0.992,402.845,1192.2)" d="M0,4.2 C0,8.5 3.1,13.3 11.2,13.3 C21.6,13.3 32.5,4.8 32.5,-4 C32.5,-9.9 27.5,-13.2 21.3,-13.2 C11.6,-13.2 0,-5 0,4.2"/>
<path class="Note" transform="matrix(0.992,0,0,0.992,856.974,1192.2)" d="M0,4.2 C0,8.5 3.1,13.3 11.2,13.3 C21.6,13.3 32.5,4.8 32.5,-4 C32.5,-9.9 27.5,-13.2 21.3,-13.2 C11.6,-13.2 0,-5 0,4.2"/>
<path class="Note" transform="matrix(0.992,0,0,0.992,1255.33,671.398)" d="M0,4.2 C0,8.5 3.1,13.3 11.2,13.3 C21.6,13.3 32.5,4.8 32.5,-4 C32.5,-9.9 27.5,-13.2 21.3,-13.2 C11.6,-13.2 0,-5 0,4.2"/>
<path class="Note" transform="matrix(0.992,0,0,0.992,539.084,1192.2)" d="M0,4.2 C0,8.5 3.1,13.3 11.2,13.3 C21.6,13.3 32.5,4.8 32.5,-4 C32.5,-9.9 27.5,-13.2 21.3,-13.2 C11.6,-13.2 0,-5 0,4.2"/>
<path class="Note" transform="matrix(0.992,0,0,0.992,1173.54,671.398)" d="M0,4.2 C0,8.5 3.1,13.3 11.2,13.3 C21.6,13.3 32.5,4.8 32.5,-4 C32.5,-9.9 27.5,-13.2 21.3,-13.2 C11.6,-13.2 0,-5 0,4.2"/>
<path class="Note" transform="matrix(0.992,0,0,0.992,1838.64,1155)" d="M0,4.2 C0,8.5 3.1,13.3 11.2,13.3 C21.6,13.3 32.5,4.8 32.5,-4 C32.5,-9.9 27.5,-13.2 21.3,-13.2 C11.6,-13.2 0,-5 0,4.2"/>
<path class="Note" transform="matrix(0.992,0,0,0.992,564.271,720.998)" d="M0,4.2 C0,8.5 3.1,13.3 11.2,13.3 C21.6,13.3 32.5,4.8 32.5,-4 C32.5,-9.9 27.5,-13.2 21.3,-13.2 C11.6,-13.2 0,-5 0,4.2"/>
<path class="Note" transform="matrix(0.992,0,0,0.992,629.91,1192.2)" d="M0,4.2 C0,8.5 3.1,13.3 11.2,13.3 C21.6,13.3 32.5,4.8 32.5,-4 C32.5,-9.9 27.5,-13.2 21.3,-13.2 C11.6,-13.2 0,-5 0,4.2"/>
<path class="Note" transform="matrix(0.992,0,0,0.992,1302.39,1142.6)" d="M0,4.2 C0,8.5 3.1,13.3 11.2,13.3 C21.6,13.3 32.5,4.8 32.5,-4 C32.5,-9.9 27.5,-13.2 21.3,-13.2 C11.6,-13.2 0,-5 0,4.2"/>
<path class="Note" transform="matrix(0.992,0,0,0.992,1702.4,1142.6)" d="M0,4.2 C0,8.5 3.1,13.3 11.2,13.3 C21.6,13.3 32.5,4.8 32.5,-4 C32.5,-9.9 27.5,-13.2 21.3,-13.2 C11.6,-13.2 0,-5 0,4.2"/>
<path class="Clef" transform="matrix(0.992,0,0,0.992,232.438,1179.8)" d="M12.3,51.3 C12.3,57.9 17.3,66.6 30.8,66.6 C35.5,66.6 39.6,65.4 43.2,63.2 C48.6,59.4 50,52.8 50,46.5 C50,42.6 49.4,38.1 48.4,32.4 C48.1,30.4 47.5,27.4 46.9,23.5 C56.7,20.3 64,10.1 64,-0.2 C64,-15.3 53.3,-25.5 38.7,-25.5 C37.7,-31.5 36.7,-37.4 35.9,-43 C46.4,-54.1 53.7,-66.6 53.7,-82.5 C53.7,-91.6 50.9,-99 49.3,-102.6 C46.9,-107.7 44,-111.2 42.2,-111.2 C41.5,-111.2 38.4,-110 35.1,-106.1 C28.7,-98.5 26.9,-85.7 26.9,-77.3 C26.9,-71.9 27.4,-67 29.1,-55.8 C29,-55.7 23.8,-50.4 21.7,-48.7 C12.6,-40.3 0,-28.1 0,-8.1 C0,10.6 16.3,25.3 34.9,25.3 C37.8,25.3 40.5,25 42.8,24.6 C44.7,34.2 45.9,41.2 45.9,46.5 C45.9,56.9 40.5,62.4 30.4,62.4 C28,62.4 25.9,61.9 25.7,61.9 C25.6,61.8 25.4,61.7 25.4,61.6 C25.4,61.4 25.6,61.3 25.9,61.3 C30.6,60.5 35.3,56.5 35.3,50.1 C35.3,44.7 31.2,39 23.7,39 C16.7,39 12.3,44.7 12.3,51.3 M33.2,-82.2 C34.1,-86.2 38.7,-96.7 43.9,-96.7 C45.4,-96.7 47.8,-91.9 47.8,-84.9 C47.8,-74.5 40.1,-66.7 33.2,-59.9 C32.6,-63.9 32.1,-67.8 32.1,-72 C32.1,-75.7 32.4,-79.1 33.2,-82.2 M42,20.6 C40,21 38.1,21.2 36.2,21.2 C21.9,21.2 9.7,11.2 9.7,-3.9 C9.7,-16.1 18.3,-27 27.1,-34.6 C28.8,-36.1 30.4,-37.5 31.9,-39 C32.8,-33.6 33.5,-28.9 34.2,-24.8 C25.1,-22.1 18.9,-12.5 18.9,-3.1 C18.9,3.9 24.4,13.5 32.4,13.5 C33.2,13.5 34.1,13.1 34.1,12.2 C34.1,11.3 33.1,10.8 31.9,10 C28,7.6 25.8,5 25.8,0.1 C25.8,-6 30.4,-10.9 36.2,-12.3 L42,20.6 M56.2,2.1 C56.2,9.2 53.3,16.5 46.2,19.4 C44.1,7.4 41.4,-8.5 40.7,-12.9 C49.7,-12.9 56.2,-6.8 56.2,2.1"/>
<path class="Clef" transform="matrix(0.992,0,0,0.992,232.438,708.598)" d="M12.3,51.3 C12.3,57.9 17.3,66.6 30.8,66.6 C35.5,66.6 39.6,65.4 43.2,63.2 C48.6,59.4 50,52.8 50,46.5 C50,42.6 49.4,38.1 48.4,32.4 C48.1,30.4 47.5,27.4 46.9,23.5 C56.7,20.3 64,10.1 64,-0.2 C64,-15.3 53.3,-25.5 38.7,-25.5 C37.7,-31.5 36.7,-37.4 35.9,-43 C46.4,-54.1 53.7,-66.6 53.7,-82.5 C53.7,-91.6 50.9,-99 49.3,-102.6 C46.9,-107.7 44,-111.2 42.2,-111.2 C41.5,-111.2 38.4,-110 35.1,-106.1 C28.7,-98.5 26.9,-85.7 26.9,-77.3 C26.9,-71.9 27.4,-67 29.1,-55.8 C29,-55.7 23.8,-50.4 21.7,-48.7 C12.6,-40.3 0,-28.1 0,-8.1 C0,10.6 16.3,25.3 34.9,25.3 C37.8,25.3 40.5,25 42.8,24.6 C44.7,34.2 45.9,41.2 45.9,46.5 C45.9,56.9 40.5,62.4 30.4,62.4 C28,62.4 25.9,61.9 25.7,61.9 C25.6,61.8 25.4,61.7 25.4,61.6 C25.4,61.4 25.6,61.3 25.9,61.3 C30.6,60.5 35.3,56.5 35.3,50.1 C35.3,44.7 31.2,39 23.7,39 C16.7,39 12.3,44.7 12.3,51.3 M33.2,-82.2 C34.1,-86.2 38.7,-96.7 43.9,-96.7 C45.4,-96.7 47.8,-91.9 47.8,-84.9 C47.8,-74.5 40.1,-66.7 33.2,-59.9 C32.6,-63.9 32.1,-67.8 32.1,-72 C32.1,-75.7 32.4,-79.1 33.2,-82.2 M42,20.6 C40,21 38.1,21.2 36.2,21.2 C21.9,21.2 9.7,11.2 9.7,-3.9 C9.7,-16.1 18.3,-27 27.1,-34.6 C28.8,-36.1 30.4,-37.5 31.9,-39 C32.8,-33.6 33.5,-28.9 34.2,-24.8 C25.1,-22.1 18.9,-12.5 18.9,-3.1 C18.9,3.9 24.4,13.5 32.4,13.5 C33.2,13.5 34.1,13.1 34.1,12.2 C34.1,11.3 33.1,10.8 31.9,10 C28,7.6 25.8,5 25.8,0.1 C25.8,-6 30.4,-10.9 36.2,-12.3 L42,20.6 M56.2,2.1 C56.2,9.2 53.3,16.5 46.2,19.4 C44.1,7.4 41.4,-8.5 40.7,-12.9 C49.7,-12.9 56.2,-6.8 56.2,2.1"/>
<path class="KeySig" transform="matrix(0.992,0,0,0.992,320.711,1155)" d="M12,-15.5 C7,-15.5 4.1,-12.4 3.6,-11.8 L4,-43.9 C4,-44.7 3.4,-45.3 2.6,-45.3 L1.4,-45.3 C0.6,-45.3 0,-44.7 0,-43.9 L0.5,16.2 C0.5,17 1.1,17.6 1.9,17.6 C2.1,17.6 2.5,17.5 2.7,17.4 C11.3,13.1 20.3,4.9 20.3,-5.4 C20.3,-10.6 17.9,-15.5 12,-15.5 M3.3,12.7 L3.6,-6.8 C3.8,-7.7 5.3,-10.6 9.3,-10.6 C12.9,-10.6 13.2,-7.2 13.2,-5.1 C13.2,3.8 9.9,7.5 3.3,12.7"/>
<path class="KeySig" transform="matrix(0.992,0,0,0.992,320.711,683.798)" d="M12,-15.5 C7,-15.5 4.1,-12.4 3.6,-11.8 L4,-43.9 C4,-44.7 3.4,-45.3 2.6,-45.3 L1.4,-45.3 C0.6,-45.3 0,-44.7 0,-43.9 L0.5,16.2 C0.5,17 1.1,17.6 1.9,17.6 C2.1,17.6 2.5,17.5 2.7,17.4 C11.3,13.1 20.3,4.9 20.3,-5.4 C20.3,-10.6 17.9,-15.5 12,-15.5 M3.3,12.7 L3.6,-6.8 C3.8,-7.7 5.3,-10.6 9.3,-10.6 C12.9,-10.6 13.2,-7.2 13.2,-5.1 C13.2,3.8 9.9,7.5 3.3,12.7"/>
<path class="TimeSig" transform="matrix(0.992,0,0,0.992,364.266,658.998)" d="M20.8,12.7 L20.8,20.1 L12.5,20.1 C11.8,20.1 11.1,20.7 11.1,21.5 L11.1,23.4 C11.1,24.2 11.8,24.8 12.5,24.8 L42.8,24.8 C43.6,24.8 44.2,24.2 44.2,23.4 L44.2,21.5 C44.2,20.7 43.6,20.1 42.8,20.1 L33.9,20.1 L33.9,12.7 L42.8,12.7 C43.6,12.7 44.2,12 44.2,11.2 L44.2,9.3 C44.2,8.6 43.6,7.9 42.8,7.9 L33.9,7.9 L33.9,-8 C33.9,-8.6 33.6,-9.1 33.1,-9.3 L31.9,-9.9 C31.7,-10 31.4,-10.1 31.2,-10.1 C30.9,-10 30.5,-9.9 30.3,-9.7 L21.2,-1.4 C20.9,-1.1 20.8,-0.7 20.8,-0.3 L20.8,7.9 L9.3,7.9 C9.3,7.9 20.4,-4.1 32.2,-19.9 C32.6,-20.4 32.7,-20.9 32.7,-21.3 C32.7,-21.8 32.5,-22.2 32.4,-22.3 L30.2,-24.5 C30,-24.7 29.6,-24.9 29.2,-24.9 C28.6,-24.9 15.1,-24.9 14.4,-24.9 C13.6,-24.9 13.1,-24.3 13,-23.7 C13,-23.7 12.5,-16.3 9.9,-8.2 C7.3,-0.1 4.3,4.9 1.7,8.6 C1.7,8.6 1.4,9.1 1.4,9.7 C1.4,9.9 1.4,10.1 1.5,10.3 C1.9,11 2.5,12.1 2.5,12.1 C2.5,12.1 2.7,12.7 3.6,12.7 L20.8,12.7 "/>
<path class="TimeSig" transform="matrix(0.992,0,0,0.992,364.266,708.598)" d="M20.8,12.7 L20.8,20.1 L12.5,20.1 C11.8,20.1 11.1,20.7 11.1,21.5 L11.1,23.4 C11.1,24.2 11.8,24.8 12.5,24.8 L42.8,24.8 C43.6,24.8 44.2,24.2 44.2,23.4 L44.2,21.5 C44.2,20.7 43.6,20.1 42.8,20.1 L33.9,20.1 L33.9,12.7 L42.8,12.7 C43.6,12.7 44.2,12 44.2,11.2 L44.2,9.3 C44.2,8.6 43.6,7.9 42.8,7.9 L33.9,7.9 L33.9,-8 C33.9,-8.6 33.6,-9.1 33.1,-9.3 L31.9,-9.9 C31.7,-10 31.4,-10.1 31.2,-10.1 C30.9,-10 30.5,-9.9 30.3,-9.7 L21.2,-1.4 C20.9,-1.1 20.8,-0.7 20.8,-0.3 L20.8,7.9 L9.3,7.9 C9.3,7.9 20.4,-4.1 32.2,-19.9 C32.6,-20.4 32.7,-20.9 32.7,-21.3 C32.7,-21.8 32.5,-22.2 32.4,-22.3 L30.2,-24.5 C30,-24.7 29.6,-24.9 29.2,-24.9 C28.6,-24.9 15.1,-24.9 14.4,-24.9 C13.6,-24.9 13.1,-24.3 13,-23.7 C13,-23.7 12.5,-16.3 9.9,-8.2 C7.3,-0.1 4.3,4.9 1.7,8.6 C1.7,8.6 1.4,9.1 1.4,9.7 C1.4,9.9 1.4,10.1 1.5,10.3 C1.9,11 2.5,12.1 2.5,12.1 C2.5,12.1 2.7,12.7 3.6,12.7 L20.8,12.7 "/>
<path class="Rest" transform="matrix(0.992,0,0,0.992,2533.83,1155)" d="M0,-1 C0,0.4 0,0.4 1.4,0.4 L31.1,0.4 C32.5,0.4 32.5,0.4 32.5,-1 L32.5,-11.8 C32.5,-13.2 32.5,-13.2 31.1,-13.2 L1.4,-13.2 C0,-13.2 0,-13.2 0,-11.8 L0,-1 "/>
<path class="Beam" fill-rule="evenodd" d="M1173.54,733.398 L1258.06,733.398 L1258.06,745.798 L1173.54,745.798 L1173.54,733.398 "/>
<path class="Beam" fill-rule="evenodd" d="M568.581,1105.4 L662.134,1105.4 L662.134,1117.8 L568.581,1117.8 L568.581,1105.4 "/>
<path class="Beam" fill-rule="evenodd" d="M1838.64,1217 L1932.19,1217 L1932.19,1229.4 L1838.64,1229.4 L1838.64,1217 "/>
<path class="Beam" fill-rule="evenodd" d="M886.471,1105.4 L980.025,1105.4 L980.025,1117.8 L886.471,1117.8 L886.471,1105.4 "/>
<path class="Beam" fill-rule="evenodd" d="M593.768,634.198 L678.29,634.198 L678.29,646.598 L593.768,646.598 L593.768,634.198 "/>
<path class="Beam" fill-rule="evenodd" d="M1771.4,627.998 L1855.92,627.998 L1855.92,640.398 L1771.4,640.398 L1771.4,627.998 "/>
<path class="Beam" fill-rule="evenodd" d="M2380.66,627.998 L2465.18,627.998 L2465.18,640.398 L2380.66,640.398 L2380.66,627.998 "/>
<path class="Beam" fill-rule="evenodd" d="M880.048,634.198 L964.57,634.198 L964.57,646.598 L880.048,646.598 L880.048,634.198 "/>
<path class="Beam" fill-rule="evenodd" d="M1211.57,1204.6 L1305.12,1204.6 L1305.12,1217 L1211.57,1217 L1211.57,1204.6 "/>
<path class="Beam" fill-rule="evenodd" d="M2057.68,627.998 L2142.2,627.998 L2142.2,640.398 L2057.68,640.398 L2057.68,627.998 "/>
<path class="Harmony" d="M2060.86,532.103 L2058.77,532.103 L2056.57,535.348 C2052.55,532.433 2050.52,531.663 2046.72,531.663 C2041.5,531.663 2037.04,533.863 2033.36,538.263 C2029.84,542.443 2028.19,547.063 2028.19,552.728 C2028.19,564.608 2035.94,573.023 2046.78,573.023 C2055.58,573.023 2061.19,567.853 2062.45,558.613 L2059.87,558.173 C2058.38,566.368 2054.2,570.438 2047.44,570.438 C2039.3,570.438 2035.45,564.828 2035.45,552.948 C2035.45,546.678 2036.27,542.553 2038.14,539.253 C2039.85,536.173 2043.2,534.248 2046.78,534.248 C2050.63,534.248 2054.04,536.283 2056.13,539.803 C2057.17,541.618 2057.94,543.653 2059.26,547.998 L2061.68,547.998 L2060.86,532.103 "/>
<path class="Harmony" d="M2071.11,546.788 L2073.53,547.173 L2074.52,542.828 C2075.35,539.198 2075.73,538.648 2077.33,538.648 C2077.6,538.648 2078.04,538.648 2078.54,538.703 C2085.3,539.033 2085.3,539.033 2087.83,539.033 C2088.55,539.033 2089.81,539.033 2091.35,538.978 L2087.61,546.513 C2083.54,554.598 2083.05,555.588 2081.67,558.998 C2079.97,563.123 2079.09,566.588 2079.09,568.898 C2079.09,571.428 2080.41,572.968 2082.55,572.968 C2085.19,572.968 2086.24,571.208 2086.18,566.423 C2085.91,558.503 2086.9,554.653 2092.78,541.783 C2093.77,539.638 2094.82,537.438 2095.81,535.293 L2095.81,533.698 C2092.51,533.973 2090.75,534.083 2087.34,534.083 C2082.55,534.083 2078.76,533.918 2072.82,533.478 L2071.11,546.788 "/>
<path class="Harmony" d="M2566.56,1003.69 L2533.83,1003.69 L2533.83,1006.27 L2534.82,1006.27 C2537.96,1006.33 2539,1006.49 2539.44,1007.04 C2539.77,1007.54 2539.77,1007.65 2539.77,1010.45 L2539.77,1036.63 C2539.77,1039.44 2539.77,1039.55 2539.44,1040.04 C2539,1040.59 2537.96,1040.81 2534.82,1040.81 L2533.83,1040.81 L2533.83,1043.4 L2552.7,1043.4 L2552.7,1040.81 L2550.88,1040.81 C2547.75,1040.81 2546.7,1040.59 2546.26,1040.04 C2545.93,1039.55 2545.93,1039.38 2545.93,1036.63 L2545.93,1024.15 L2547.03,1024.15 C2552.7,1023.93 2554.73,1025.96 2554.95,1032.07 L2557.54,1032.07 L2557.54,1014.03 L2554.95,1014.03 C2554.62,1019.42 2552.48,1021.51 2547.25,1021.56 L2545.93,1021.56 L2545.93,1009.02 C2545.88,1006.71 2546.43,1006.33 2549.4,1006.27 L2551.93,1006.27 C2560.95,1006.22 2563.2,1008.25 2564.91,1017.71 L2567.33,1017.71 L2566.56,1003.69 "/>
<path class="Harmony" d="M1244.29,1003.69 L1211.57,1003.69 L1211.57,1006.27 L1212.56,1006.27 C1215.69,1006.33 1216.74,1006.49 1217.18,1007.04 C1217.51,1007.54 1217.51,1007.65 1217.51,1010.45 L1217.51,1036.63 C1217.51,1039.44 1217.51,1039.55 1217.18,1040.04 C1216.74,1040.59 1215.69,1040.81 1212.56,1040.81 L1211.57,1040.81 L1211.57,1043.4 L1230.43,1043.4 L1230.43,1040.81 L1228.62,1040.81 C1225.48,1040.81 1224.44,1040.59 1224,1040.04 C1223.67,1039.55 1223.67,1039.38 1223.67,1036.63 L1223.67,1024.15 L1224.77,1024.15 C1230.43,1023.93 1232.47,1025.96 1232.69,1032.07 L1235.27,1032.07 L1235.27,1014.03 L1232.69,1014.03 C1232.36,1019.42 1230.21,1021.51 1224.99,1021.56 L1223.67,1021.56 L1223.67,1009.02 C1223.61,1006.71 1224.16,1006.33 1227.13,1006.27 L1229.66,1006.27 C1238.68,1006.22 1240.94,1008.25 1242.64,1017.71 L1245.06,1017.71 L1244.29,1003.69 "/>
<path class="Harmony" d="M1425.95,1003.69 L1393.22,1003.69 L1393.22,1006.27 L1394.21,1006.27 C1397.35,1006.33 1398.39,1006.49 1398.83,1007.04 C1399.16,1007.54 1399.16,1007.65 1399.16,1010.45 L1399.16,1036.63 C1399.16,1039.44 1399.16,1039.55 1398.83,1040.04 C1398.39,1040.59 1397.35,1040.81 1394.21,1040.81 L1393.22,1040.81 L1393.22,1043.4 L1412.09,1043.4 L1412.09,1040.81 L1410.27,1040.81 C1407.14,1040.81 1406.09,1040.59 1405.65,1040.04 C1405.32,1039.55 1405.32,1039.38 1405.32,1036.63 L1405.32,1024.15 L1406.42,1024.15 C1412.09,1023.93 1414.12,1025.96 1414.34,1032.07 L1416.93,1032.07 L1416.93,1014.03 L1414.34,1014.03 C1414.01,1019.42 1411.87,1021.51 1406.64,1021.56 L1405.32,1021.56 L1405.32,1009.02 C1405.27,1006.71 1405.82,1006.33 1408.79,1006.27 L1411.32,1006.27 C1420.34,1006.22 1422.59,1008.25 1424.3,1017.71 L1426.72,1017.71 L1425.95,1003.69 "/>
<path class="Harmony" d="M1108.06,1003.69 L1075.33,1003.69 L1075.33,1006.27 L1076.32,1006.27 C1079.46,1006.33 1080.5,1006.49 1080.94,1007.04 C1081.27,1007.54 1081.27,1007.65 1081.27,1010.45 L1081.27,1036.63 C1081.27,1039.44 1081.27,1039.55 1080.94,1040.04 C1080.5,1040.59 1079.46,1040.81 1076.32,1040.81 L1075.33,1040.81 L1075.33,1043.4 L1094.2,1043.4 L1094.2,1040.81 L1092.38,1040.81 C1089.25,1040.81 1088.2,1040.59 1087.76,1040.04 C1087.43,1039.55 1087.43,1039.38 1087.43,1036.63 L1087.43,1024.15 L1088.53,1024.15 C1094.2,1023.93 1096.23,1025.96 1096.45,1032.07 L1099.04,1032.07 L1099.04,1014.03 L1096.45,1014.03 C1096.12,1019.42 1093.98,1021.51 1088.75,1021.56 L1087.43,1021.56 L1087.43,1009.02 C1087.38,1006.71 1087.93,1006.33 1090.9,1006.27 L1093.43,1006.27 C1102.45,1006.22 1104.7,1008.25 1106.41,1017.71 L1108.83,1017.71 L1108.06,1003.69 "/>
<path class="Harmony" d="M883.278,532.488 L850.553,532.488 L850.553,535.073 L851.543,535.073 C854.678,535.128 855.723,535.293 856.163,535.843 C856.493,536.338 856.493,536.448 856.493,539.253 L856.493,565.433 C856.493,568.238 856.493,568.348 856.163,568.843 C855.723,569.393 854.678,569.613 851.543,569.613 L850.553,569.613 L850.553,572.198 L869.418,572.198 L869.418,569.613 L867.603,569.613 C864.468,569.613 863.423,569.393 862.983,568.843 C862.653,568.348 862.653,568.183 862.653,565.433 L862.653,552.948 L863.753,552.948 C869.418,552.728 871.453,554.763 871.673,560.868 L874.258,560.868 L874.258,542.828 L871.673,542.828 C871.343,548.218 869.198,550.308 863.973,550.363 L862.653,550.363 L862.653,537.823 C862.598,535.513 863.148,535.128 866.118,535.073 L868.648,535.073 C877.668,535.018 879.923,537.053 881.628,546.513 L884.048,546.513 L883.278,532.488 "/>
<path class="Harmony" d="M1562.19,1003.69 L1529.46,1003.69 L1529.46,1006.27 L1530.45,1006.27 C1533.59,1006.33 1534.63,1006.49 1535.07,1007.04 C1535.4,1007.54 1535.4,1007.65 1535.4,1010.45 L1535.4,1036.63 C1535.4,1039.44 1535.4,1039.55 1535.07,1040.04 C1534.63,1040.59 1533.59,1040.81 1530.45,1040.81 L1529.46,1040.81 L1529.46,1043.4 L1548.33,1043.4 L1548.33,1040.81 L1546.51,1040.81 C1543.38,1040.81 1542.33,1040.59 1541.89,1040.04 C1541.56,1039.55 1541.56,1039.38 1541.56,1036.63 L1541.56,1024.15 L1542.66,1024.15 C1548.33,1023.93 1550.36,1025.96 1550.58,1032.07 L1553.17,1032.07 L1553.17,1014.03 L1550.58,1014.03 C1550.25,1019.42 1548.11,1021.51 1542.88,1021.56 L1541.56,1021.56 L1541.56,1009.02 C1541.51,1006.71 1542.06,1006.33 1545.03,1006.27 L1547.56,1006.27 C1556.58,1006.22 1558.83,1008.25 1560.54,1017.71 L1562.96,1017.71 L1562.19,1003.69 "/>
<path class="Harmony" d="M1083.57,532.488 L1050.85,532.488 L1050.85,535.073 L1051.84,535.073 C1054.97,535.128 1056.02,535.293 1056.46,535.843 C1056.79,536.338 1056.79,536.448 1056.79,539.253 L1056.79,565.433 C1056.79,568.238 1056.79,568.348 1056.46,568.843 C1056.02,569.393 1054.97,569.613 1051.84,569.613 L1050.85,569.613 L1050.85,572.198 L1069.71,572.198 L1069.71,569.613 L1067.9,569.613 C1064.76,569.613 1063.72,569.393 1063.28,568.843 C1062.95,568.348 1062.95,568.183 1062.95,565.433 L1062.95,552.948 L1064.05,552.948 C1069.71,552.728 1071.75,554.763 1071.97,560.868 L1074.55,560.868 L1074.55,542.828 L1071.97,542.828 C1071.64,548.218 1069.49,550.308 1064.27,550.363 L1062.95,550.363 L1062.95,537.823 C1062.89,535.513 1063.44,535.128 1066.41,535.073 L1068.94,535.073 C1077.96,535.018 1080.22,537.053 1081.92,546.513 L1084.34,546.513 L1083.57,532.488 "/>
<path class="Harmony" d="M596.998,532.488 L564.273,532.488 L564.273,535.073 L565.263,535.073 C568.398,535.128 569.443,535.293 569.883,535.843 C570.213,536.338 570.213,536.448 570.213,539.253 L570.213,565.433 C570.213,568.238 570.213,568.348 569.883,568.843 C569.443,569.393 568.398,569.613 565.263,569.613 L564.273,569.613 L564.273,572.198 L583.138,572.198 L583.138,569.613 L581.323,569.613 C578.188,569.613 577.143,569.393 576.703,568.843 C576.373,568.348 576.373,568.183 576.373,565.433 L576.373,552.948 L577.473,552.948 C583.138,552.728 585.173,554.763 585.393,560.868 L587.978,560.868 L587.978,542.828 L585.393,542.828 C585.063,548.218 582.918,550.308 577.693,550.363 L576.373,550.363 L576.373,537.823 C576.318,535.513 576.868,535.128 579.838,535.073 L582.368,535.073 C591.388,535.018 593.643,537.053 595.348,546.513 L597.768,546.513 L596.998,532.488 "/>
<path class="Harmony" d="M889.701,1003.69 L856.976,1003.69 L856.976,1006.27 L857.966,1006.27 C861.101,1006.33 862.146,1006.49 862.586,1007.04 C862.916,1007.54 862.916,1007.65 862.916,1010.45 L862.916,1036.63 C862.916,1039.44 862.916,1039.55 862.586,1040.04 C862.146,1040.59 861.101,1040.81 857.966,1040.81 L856.976,1040.81 L856.976,1043.4 L875.841,1043.4 L875.841,1040.81 L874.026,1040.81 C870.891,1040.81 869.846,1040.59 869.406,1040.04 C869.076,1039.55 869.076,1039.38 869.076,1036.63 L869.076,1024.15 L870.176,1024.15 C875.841,1023.93 877.876,1025.96 878.096,1032.07 L880.681,1032.07 L880.681,1014.03 L878.096,1014.03 C877.766,1019.42 875.621,1021.51 870.396,1021.56 L869.076,1021.56 L869.076,1009.02 C869.021,1006.71 869.571,1006.33 872.541,1006.27 L875.071,1006.27 C884.091,1006.22 886.346,1008.25 888.051,1017.71 L890.471,1017.71 L889.701,1003.69 "/>
<path class="Harmony" d="M753.462,1003.69 L720.737,1003.69 L720.737,1006.27 L721.727,1006.27 C724.862,1006.33 725.907,1006.49 726.347,1007.04 C726.677,1007.54 726.677,1007.65 726.677,1010.45 L726.677,1036.63 C726.677,1039.44 726.677,1039.55 726.347,1040.04 C725.907,1040.59 724.862,1040.81 721.727,1040.81 L720.737,1040.81 L720.737,1043.4 L739.602,1043.4 L739.602,1040.81 L737.787,1040.81 C734.652,1040.81 733.607,1040.59 733.167,1040.04 C732.837,1039.55 732.837,1039.38 732.837,1036.63 L732.837,1024.15 L733.937,1024.15 C739.602,1023.93 741.637,1025.96 741.857,1032.07 L744.442,1032.07 L744.442,1014.03 L741.857,1014.03 C741.527,1019.42 739.382,1021.51 734.157,1021.56 L732.837,1021.56 L732.837,1009.02 C732.782,1006.71 733.332,1006.33 736.302,1006.27 L738.832,1006.27 C747.852,1006.22 750.107,1008.25 751.812,1017.71 L754.232,1017.71 L753.462,1003.69 "/>
<path class="Harmony" d="M1735.08,1003.3 L1732.99,1003.3 L1730.79,1006.55 C1726.77,1003.63 1724.74,1002.86 1720.94,1002.86 C1715.72,1002.86 1711.26,1005.06 1707.58,1009.46 C1704.06,1013.64 1702.41,1018.26 1702.41,1023.93 C1702.41,1035.81 1710.16,1044.22 1721,1044.22 C1729.8,1044.22 1735.41,1039.05 1736.67,1029.81 L1734.09,1029.37 C1732.6,1037.57 1728.42,1041.64 1721.66,1041.64 C1713.52,1041.64 1709.67,1036.03 1709.67,1024.15 C1709.67,1017.88 1710.49,1013.75 1712.36,1010.45 C1714.07,1007.37 1717.42,1005.45 1721,1005.45 C1724.85,1005.45 1728.26,1007.48 1730.35,1011 C1731.39,1012.82 1732.16,1014.85 1733.48,1019.2 L1735.9,1019.2 L1735.08,1003.3 "/>
<path class="Harmony" d="M1745.33,1017.99 L1747.75,1018.37 L1748.74,1014.03 C1749.57,1010.4 1749.95,1009.85 1751.55,1009.85 C1751.82,1009.85 1752.26,1009.85 1752.76,1009.9 C1759.52,1010.23 1759.52,1010.23 1762.05,1010.23 C1762.77,1010.23 1764.03,1010.23 1765.57,1010.18 L1761.83,1017.71 C1757.76,1025.8 1757.27,1026.79 1755.89,1030.2 C1754.19,1034.32 1753.31,1037.79 1753.31,1040.1 C1753.31,1042.63 1754.63,1044.17 1756.77,1044.17 C1759.41,1044.17 1760.46,1042.41 1760.4,1037.62 C1760.13,1029.7 1761.12,1025.85 1767,1012.98 C1767.99,1010.84 1769.04,1008.64 1770.03,1006.49 L1770.03,1004.9 C1766.73,1005.17 1764.97,1005.28 1761.56,1005.28 C1756.77,1005.28 1752.98,1005.12 1747.04,1004.68 L1745.33,1017.99 "/>
<path class="Harmony" d="M1206.26,532.488 L1173.54,532.488 L1173.54,535.073 L1174.53,535.073 C1177.66,535.128 1178.71,535.293 1179.15,535.843 C1179.48,536.338 1179.48,536.448 1179.48,539.253 L1179.48,565.433 C1179.48,568.238 1179.48,568.348 1179.15,568.843 C1178.71,569.393 1177.66,569.613 1174.53,569.613 L1173.54,569.613 L1173.54,572.198 L1192.4,572.198 L1192.4,569.613 L1190.59,569.613 C1187.45,569.613 1186.41,569.393 1185.97,568.843 C1185.64,568.348 1185.64,568.183 1185.64,565.433 L1185.64,552.948 L1186.74,552.948 C1192.4,552.728 1194.44,554.763 1194.66,560.868 L1197.24,560.868 L1197.24,542.828 L1194.66,542.828 C1194.33,548.218 1192.18,550.308 1186.96,550.363 L1185.64,550.363 L1185.64,537.823 C1185.58,535.513 1186.13,535.128 1189.1,535.073 L1191.63,535.073 C1200.65,535.018 1202.91,537.053 1204.61,546.513 L1207.03,546.513 L1206.26,532.488 "/>
<path class="Harmony" d="M571.81,1003.69 L539.085,1003.69 L539.085,1006.27 L540.075,1006.27 C543.21,1006.33 544.255,1006.49 544.695,1007.04 C545.025,1007.54 545.025,1007.65 545.025,1010.45 L545.025,1036.63 C545.025,1039.44 545.025,1039.55 544.695,1040.04 C544.255,1040.59 543.21,1040.81 540.075,1040.81 L539.085,1040.81 L539.085,1043.4 L557.95,1043.4 L557.95,1040.81 L556.135,1040.81 C553,1040.81 551.955,1040.59 551.515,1040.04 C551.185,1039.55 551.185,1039.38 551.185,1036.63 L551.185,1024.15 L552.285,1024.15 C557.95,1023.93 559.985,1025.96 560.205,1032.07 L562.79,1032.07 L562.79,1014.03 L560.205,1014.03 C559.875,1019.42 557.73,1021.51 552.505,1021.56 L551.185,1021.56 L551.185,1009.02 C551.13,1006.71 551.68,1006.33 554.65,1006.27 L557.18,1006.27 C566.2,1006.22 568.455,1008.25 570.16,1017.71 L572.58,1017.71 L571.81,1003.69 "/>
<path class="Harmony" d="M435.572,1003.69 L402.847,1003.69 L402.847,1006.27 L403.837,1006.27 C406.972,1006.33 408.017,1006.49 408.457,1007.04 C408.787,1007.54 408.787,1007.65 408.787,1010.45 L408.787,1036.63 C408.787,1039.44 408.787,1039.55 408.457,1040.04 C408.017,1040.59 406.972,1040.81 403.837,1040.81 L402.847,1040.81 L402.847,1043.4 L421.712,1043.4 L421.712,1040.81 L419.897,1040.81 C416.762,1040.81 415.717,1040.59 415.277,1040.04 C414.947,1039.55 414.947,1039.38 414.947,1036.63 L414.947,1024.15 L416.047,1024.15 C421.712,1023.93 423.747,1025.96 423.967,1032.07 L426.552,1032.07 L426.552,1014.03 L423.967,1014.03 C423.637,1019.42 421.492,1021.51 416.267,1021.56 L414.947,1021.56 L414.947,1009.02 C414.892,1006.71 415.442,1006.33 418.412,1006.27 L420.942,1006.27 C429.962,1006.22 432.217,1008.25 433.922,1017.71 L436.342,1017.71 L435.572,1003.69 "/>
<path class="Harmony" d="M1871.32,1003.3 L1869.23,1003.3 L1867.03,1006.55 C1863.01,1003.63 1860.98,1002.86 1857.18,1002.86 C1851.96,1002.86 1847.5,1005.06 1843.82,1009.46 C1840.3,1013.64 1838.65,1018.26 1838.65,1023.93 C1838.65,1035.81 1846.4,1044.22 1857.24,1044.22 C1866.04,1044.22 1871.65,1039.05 1872.91,1029.81 L1870.33,1029.37 C1868.84,1037.57 1864.66,1041.64 1857.9,1041.64 C1849.76,1041.64 1845.91,1036.03 1845.91,1024.15 C1845.91,1017.88 1846.73,1013.75 1848.6,1010.45 C1850.31,1007.37 1853.66,1005.45 1857.24,1005.45 C1861.09,1005.45 1864.5,1007.48 1866.59,1011 C1867.63,1012.82 1868.4,1014.85 1869.72,1019.2 L1872.14,1019.2 L1871.32,1003.3 "/>
<path class="Harmony" d="M1881.57,1017.99 L1883.99,1018.37 L1884.98,1014.03 C1885.81,1010.4 1886.19,1009.85 1887.79,1009.85 C1888.06,1009.85 1888.5,1009.85 1889,1009.9 C1895.76,1010.23 1895.76,1010.23 1898.29,1010.23 C1899.01,1010.23 1900.27,1010.23 1901.81,1010.18 L1898.07,1017.71 C1894,1025.8 1893.51,1026.79 1892.13,1030.2 C1890.43,1034.32 1889.55,1037.79 1889.55,1040.1 C1889.55,1042.63 1890.87,1044.17 1893.01,1044.17 C1895.65,1044.17 1896.7,1042.41 1896.64,1037.62 C1896.37,1029.7 1897.36,1025.85 1903.24,1012.98 C1904.23,1010.84 1905.28,1008.64 1906.27,1006.49 L1906.27,1004.9 C1902.97,1005.17 1901.21,1005.28 1897.8,1005.28 C1893.01,1005.28 1889.22,1005.12 1883.28,1004.68 L1881.57,1017.99 "/>
<path class="Harmony" d="M474.306,532.488 L441.581,532.488 L441.581,535.073 L442.571,535.073 C445.706,535.128 446.751,535.293 447.191,535.843 C447.521,536.338 447.521,536.448 447.521,539.253 L447.521,565.433 C447.521,568.238 447.521,568.348 447.191,568.843 C446.751,569.393 445.706,569.613 442.571,569.613 L441.581,569.613 L441.581,572.198 L460.446,572.198 L460.446,569.613 L458.631,569.613 C455.496,569.613 454.451,569.393 454.011,568.843 C453.681,568.348 453.681,568.183 453.681,565.433 L453.681,552.948 L454.781,552.948 C460.446,552.728 462.481,554.763 462.701,560.868 L465.286,560.868 L465.286,542.828 L462.701,542.828 C462.371,548.218 460.226,550.308 455.001,550.363 L453.681,550.363 L453.681,537.823 C453.626,535.513 454.176,535.128 457.146,535.073 L459.676,535.073 C468.696,535.018 470.951,537.053 472.656,546.513 L475.076,546.513 L474.306,532.488 "/>
<path class="Harmony" d="M1369.85,532.488 L1337.13,532.488 L1337.13,535.073 L1338.12,535.073 C1341.25,535.128 1342.3,535.293 1342.74,535.843 C1343.07,536.338 1343.07,536.448 1343.07,539.253 L1343.07,565.433 C1343.07,568.238 1343.07,568.348 1342.74,568.843 C1342.3,569.393 1341.25,569.613 1338.12,569.613 L1337.13,569.613 L1337.13,572.198 L1355.99,572.198 L1355.99,569.613 L1354.18,569.613 C1351.04,569.613 1350,569.393 1349.56,568.843 C1349.23,568.348 1349.23,568.183 1349.23,565.433 L1349.23,552.948 L1350.33,552.948 C1355.99,552.728 1358.03,554.763 1358.25,560.868 L1360.83,560.868 L1360.83,542.828 L1358.25,542.828 C1357.92,548.218 1355.77,550.308 1350.55,550.363 L1349.23,550.363 L1349.23,537.823 C1349.17,535.513 1349.72,535.128 1352.69,535.073 L1355.22,535.073 C1364.24,535.018 1366.5,537.053 1368.2,546.513 L1370.62,546.513 L1369.85,532.488 "/>
<path class="Harmony" d="M1492.54,532.488 L1459.82,532.488 L1459.82,535.073 L1460.81,535.073 C1463.94,535.128 1464.99,535.293 1465.43,535.843 C1465.76,536.338 1465.76,536.448 1465.76,539.253 L1465.76,565.433 C1465.76,568.238 1465.76,568.348 1465.43,568.843 C1464.99,569.393 1463.94,569.613 1460.81,569.613 L1459.82,569.613 L1459.82,572.198 L1478.68,572.198 L1478.68,569.613 L1476.87,569.613 C1473.73,569.613 1472.69,569.393 1472.25,568.843 C1471.92,568.348 1471.92,568.183 1471.92,565.433 L1471.92,552.948 L1473.02,552.948 C1478.68,552.728 1480.72,554.763 1480.94,560.868 L1483.52,560.868 L1483.52,542.828 L1480.94,542.828 C1480.61,548.218 1478.46,550.308 1473.24,550.363 L1471.92,550.363 L1471.92,537.823 C1471.86,535.513 1472.41,535.128 1475.38,535.073 L1477.91,535.073 C1486.93,535.018 1489.19,537.053 1490.89,546.513 L1493.31,546.513 L1492.54,532.488 "/>
<path class="Harmony" d="M2670.12,532.103 L2668.03,532.103 L2665.83,535.348 C2661.82,532.433 2659.78,531.663 2655.99,531.663 C2650.76,531.663 2646.31,533.863 2642.62,538.263 C2639.1,542.443 2637.45,547.063 2637.45,552.728 C2637.45,564.608 2645.21,573.023 2656.04,573.023 C2664.84,573.023 2670.45,567.853 2671.72,558.613 L2669.13,558.173 C2667.65,566.368 2663.47,570.438 2656.7,570.438 C2648.56,570.438 2644.71,564.828 2644.71,552.948 C2644.71,546.678 2645.54,542.553 2647.41,539.253 C2649.11,536.173 2652.47,534.248 2656.04,534.248 C2659.89,534.248 2663.3,536.283 2665.39,539.803 C2666.44,541.618 2667.21,543.653 2668.53,547.998 L2670.95,547.998 L2670.12,532.103 "/>
<path class="Harmony" d="M2680.38,546.788 L2682.8,547.173 L2683.79,542.828 C2684.61,539.198 2685,538.648 2686.59,538.648 C2686.87,538.648 2687.31,538.648 2687.8,538.703 C2694.57,539.033 2694.57,539.033 2697.1,539.033 C2697.81,539.033 2699.08,539.033 2700.62,538.978 L2696.88,546.513 C2692.81,554.598 2692.31,555.588 2690.94,558.998 C2689.23,563.123 2688.35,566.588 2688.35,568.898 C2688.35,571.428 2689.67,572.968 2691.82,572.968 C2694.46,572.968 2695.5,571.208 2695.45,566.423 C2695.17,558.503 2696.16,554.653 2702.05,541.783 C2703.04,539.638 2704.08,537.438 2705.07,535.293 L2705.07,533.698 C2701.77,533.973 2700.01,534.083 2696.6,534.083 C2691.82,534.083 2688.02,533.918 2682.08,533.478 L2680.38,546.788 "/>
<path class="Harmony" d="M2052.97,1003.3 L2050.88,1003.3 L2048.68,1006.55 C2044.66,1003.63 2042.63,1002.86 2038.83,1002.86 C2033.61,1002.86 2029.15,1005.06 2025.47,1009.46 C2021.95,1013.64 2020.3,1018.26 2020.3,1023.93 C2020.3,1035.81 2028.05,1044.22 2038.89,1044.22 C2047.69,1044.22 2053.3,1039.05 2054.56,1029.81 L2051.98,1029.37 C2050.49,1037.57 2046.31,1041.64 2039.55,1041.64 C2031.41,1041.64 2027.56,1036.03 2027.56,1024.15 C2027.56,1017.88 2028.38,1013.75 2030.25,1010.45 C2031.96,1007.37 2035.31,1005.45 2038.89,1005.45 C2042.74,1005.45 2046.15,1007.48 2048.24,1011 C2049.28,1012.82 2050.05,1014.85 2051.37,1019.2 L2053.79,1019.2 L2052.97,1003.3 "/>
<path class="Harmony" d="M2063.22,1017.99 L2065.64,1018.37 L2066.63,1014.03 C2067.46,1010.4 2067.84,1009.85 2069.44,1009.85 C2069.71,1009.85 2070.15,1009.85 2070.65,1009.9 C2077.41,1010.23 2077.41,1010.23 2079.94,1010.23 C2080.66,1010.23 2081.92,1010.23 2083.46,1010.18 L2079.72,1017.71 C2075.65,1025.8 2075.16,1026.79 2073.78,1030.2 C2072.08,1034.32 2071.2,1037.79 2071.2,1040.1 C2071.2,1042.63 2072.52,1044.17 2074.66,1044.17 C2077.3,1044.17 2078.35,1042.41 2078.29,1037.62 C2078.02,1029.7 2079.01,1025.85 2084.89,1012.98 C2085.88,1010.84 2086.93,1008.64 2087.92,1006.49 L2087.92,1004.9 C2084.62,1005.17 2082.86,1005.28 2079.45,1005.28 C2074.66,1005.28 2070.87,1005.12 2064.93,1004.68 L2063.22,1017.99 "/>
<path class="Harmony" d="M1651.89,532.103 L1649.8,532.103 L1647.6,535.348 C1643.58,532.433 1641.55,531.663 1637.75,531.663 C1632.53,531.663 1628.07,533.863 1624.39,538.263 C1620.87,542.443 1619.22,547.063 1619.22,552.728 C1619.22,564.608 1626.97,573.023 1637.81,573.023 C1646.61,573.023 1652.22,567.853 1653.48,558.613 L1650.9,558.173 C1649.41,566.368 1645.23,570.438 1638.47,570.438 C1630.33,570.438 1626.48,564.828 1626.48,552.948 C1626.48,546.678 1627.3,542.553 1629.17,539.253 C1630.88,536.173 1634.23,534.248 1637.81,534.248 C1641.66,534.248 1645.07,536.283 1647.16,539.803 C1648.2,541.618 1648.97,543.653 1650.29,547.998 L1652.71,547.998 L1651.89,532.103 "/>
<path class="Harmony" d="M1662.14,546.788 L1664.56,547.173 L1665.55,542.828 C1666.38,539.198 1666.76,538.648 1668.36,538.648 C1668.63,538.648 1669.07,538.648 1669.57,538.703 C1676.33,539.033 1676.33,539.033 1678.86,539.033 C1679.58,539.033 1680.84,539.033 1682.38,538.978 L1678.64,546.513 C1674.57,554.598 1674.08,555.588 1672.7,558.998 C1671,563.123 1670.12,566.588 1670.12,568.898 C1670.12,571.428 1671.44,572.968 1673.58,572.968 C1676.22,572.968 1677.27,571.208 1677.21,566.423 C1676.94,558.503 1677.93,554.653 1683.81,541.783 C1684.8,539.638 1685.85,537.438 1686.84,535.293 L1686.84,533.698 C1683.54,533.973 1681.78,534.083 1678.37,534.083 C1673.58,534.083 1669.79,533.918 1663.85,533.478 L1662.14,546.788 "/>
<path class="Harmony" d="M2547.43,532.103 L2545.34,532.103 L2543.14,535.348 C2539.13,532.433 2537.09,531.663 2533.3,531.663 C2528.07,531.663 2523.62,533.863 2519.93,538.263 C2516.41,542.443 2514.76,547.063 2514.76,552.728 C2514.76,564.608 2522.52,573.023 2533.35,573.023 C2542.15,573.023 2547.76,567.853 2549.03,558.613 L2546.44,558.173 C2544.96,566.368 2540.78,570.438 2534.01,570.438 C2525.87,570.438 2522.02,564.828 2522.02,552.948 C2522.02,546.678 2522.85,542.553 2524.72,539.253 C2526.42,536.173 2529.78,534.248 2533.35,534.248 C2537.2,534.248 2540.61,536.283 2542.7,539.803 C2543.75,541.618 2544.52,543.653 2545.84,547.998 L2548.26,547.998 L2547.43,532.103 "/>
<path class="Harmony" d="M2557.69,546.788 L2560.11,547.173 L2561.1,542.828 C2561.92,539.198 2562.31,538.648 2563.9,538.648 C2564.18,538.648 2564.62,538.648 2565.11,538.703 C2571.88,539.033 2571.88,539.033 2574.41,539.033 C2575.12,539.033 2576.39,539.033 2577.93,538.978 L2574.19,546.513 C2570.12,554.598 2569.62,555.588 2568.25,558.998 C2566.54,563.123 2565.66,566.588 2565.66,568.898 C2565.66,571.428 2566.98,572.968 2569.13,572.968 C2571.77,572.968 2572.81,571.208 2572.76,566.423 C2572.48,558.503 2573.47,554.653 2579.36,541.783 C2580.35,539.638 2581.39,537.438 2582.38,535.293 L2582.38,533.698 C2579.08,533.973 2577.32,534.083 2573.91,534.083 C2569.13,534.083 2565.33,533.918 2559.39,533.478 L2557.69,546.788 "/>
<path class="Harmony" d="M2189.21,1003.3 L2187.12,1003.3 L2184.92,1006.55 C2180.9,1003.63 2178.87,1002.86 2175.07,1002.86 C2169.85,1002.86 2165.39,1005.06 2161.71,1009.46 C2158.19,1013.64 2156.54,1018.26 2156.54,1023.93 C2156.54,1035.81 2164.29,1044.22 2175.13,1044.22 C2183.93,1044.22 2189.54,1039.05 2190.8,1029.81 L2188.22,1029.37 C2186.73,1037.57 2182.55,1041.64 2175.79,1041.64 C2167.65,1041.64 2163.8,1036.03 2163.8,1024.15 C2163.8,1017.88 2164.62,1013.75 2166.49,1010.45 C2168.2,1007.37 2171.55,1005.45 2175.13,1005.45 C2178.98,1005.45 2182.39,1007.48 2184.48,1011 C2185.52,1012.82 2186.29,1014.85 2187.61,1019.2 L2190.03,1019.2 L2189.21,1003.3 "/>
<path class="Harmony" d="M2199.46,1017.99 L2201.88,1018.37 L2202.87,1014.03 C2203.7,1010.4 2204.08,1009.85 2205.68,1009.85 C2205.95,1009.85 2206.39,1009.85 2206.89,1009.9 C2213.65,1010.23 2213.65,1010.23 2216.18,1010.23 C2216.9,1010.23 2218.16,1010.23 2219.7,1010.18 L2215.96,1017.71 C2211.89,1025.8 2211.4,1026.79 2210.02,1030.2 C2208.32,1034.32 2207.44,1037.79 2207.44,1040.1 C2207.44,1042.63 2208.76,1044.17 2210.9,1044.17 C2213.54,1044.17 2214.59,1042.41 2214.53,1037.62 C2214.26,1029.7 2215.25,1025.85 2221.13,1012.98 C2222.12,1010.84 2223.17,1008.64 2224.16,1006.49 L2224.16,1004.9 C2220.86,1005.17 2219.1,1005.28 2215.69,1005.28 C2210.9,1005.28 2207.11,1005.12 2201.17,1004.68 L2199.46,1017.99 "/>
<path class="Harmony" d="M1774.58,532.103 L1772.49,532.103 L1770.29,535.348 C1766.27,532.433 1764.24,531.663 1760.44,531.663 C1755.22,531.663 1750.76,533.863 1747.08,538.263 C1743.56,542.443 1741.91,547.063 1741.91,552.728 C1741.91,564.608 1749.66,573.023 1760.5,573.023 C1769.3,573.023 1774.91,567.853 1776.17,558.613 L1773.59,558.173 C1772.1,566.368 1767.92,570.438 1761.16,570.438 C1753.02,570.438 1749.17,564.828 1749.17,552.948 C1749.17,546.678 1749.99,542.553 1751.86,539.253 C1753.57,536.173 1756.92,534.248 1760.5,534.248 C1764.35,534.248 1767.76,536.283 1769.85,539.803 C1770.89,541.618 1771.66,543.653 1772.98,547.998 L1775.4,547.998 L1774.58,532.103 "/>
<path class="Harmony" d="M1784.83,546.788 L1787.25,547.173 L1788.24,542.828 C1789.07,539.198 1789.45,538.648 1791.05,538.648 C1791.32,538.648 1791.76,538.648 1792.26,538.703 C1799.02,539.033 1799.02,539.033 1801.55,539.033 C1802.27,539.033 1803.53,539.033 1805.07,538.978 L1801.33,546.513 C1797.26,554.598 1796.77,555.588 1795.39,558.998 C1793.69,563.123 1792.81,566.588 1792.81,568.898 C1792.81,571.428 1794.13,572.968 1796.27,572.968 C1798.91,572.968 1799.96,571.208 1799.9,566.423 C1799.63,558.503 1800.62,554.653 1806.5,541.783 C1807.49,539.638 1808.54,537.438 1809.53,535.293 L1809.53,533.698 C1806.23,533.973 1804.47,534.083 1801.06,534.083 C1796.27,534.083 1792.48,533.918 1786.54,533.478 L1784.83,546.788 "/>
<path class="Harmony" d="M2383.84,532.103 L2381.75,532.103 L2379.55,535.348 C2375.54,532.433 2373.5,531.663 2369.71,531.663 C2364.48,531.663 2360.03,533.863 2356.34,538.263 C2352.82,542.443 2351.17,547.063 2351.17,552.728 C2351.17,564.608 2358.93,573.023 2369.76,573.023 C2378.56,573.023 2384.17,567.853 2385.44,558.613 L2382.85,558.173 C2381.37,566.368 2377.19,570.438 2370.42,570.438 C2362.28,570.438 2358.43,564.828 2358.43,552.948 C2358.43,546.678 2359.26,542.553 2361.13,539.253 C2362.83,536.173 2366.19,534.248 2369.76,534.248 C2373.61,534.248 2377.02,536.283 2379.11,539.803 C2380.16,541.618 2380.93,543.653 2382.25,547.998 L2384.67,547.998 L2383.84,532.103 "/>
<path class="Harmony" d="M2394.1,546.788 L2396.52,547.173 L2397.51,542.828 C2398.33,539.198 2398.72,538.648 2400.31,538.648 C2400.59,538.648 2401.03,538.648 2401.52,538.703 C2408.29,539.033 2408.29,539.033 2410.82,539.033 C2411.53,539.033 2412.8,539.033 2414.34,538.978 L2410.6,546.513 C2406.53,554.598 2406.03,555.588 2404.66,558.998 C2402.95,563.123 2402.07,566.588 2402.07,568.898 C2402.07,571.428 2403.39,572.968 2405.54,572.968 C2408.18,572.968 2409.22,571.208 2409.17,566.423 C2408.89,558.503 2409.88,554.653 2415.77,541.783 C2416.76,539.638 2417.8,537.438 2418.79,535.293 L2418.79,533.698 C2415.49,533.973 2413.73,534.083 2410.32,534.083 C2405.54,534.083 2401.74,533.918 2395.8,533.478 L2394.1,546.788 "/>
<path class="Harmony" d="M2261.15,532.103 L2259.06,532.103 L2256.86,535.348 C2252.85,532.433 2250.81,531.663 2247.02,531.663 C2241.79,531.663 2237.34,533.863 2233.65,538.263 C2230.13,542.443 2228.48,547.063 2228.48,552.728 C2228.48,564.608 2236.24,573.023 2247.07,573.023 C2255.87,573.023 2261.48,567.853 2262.75,558.613 L2260.16,558.173 C2258.68,566.368 2254.5,570.438 2247.73,570.438 C2239.59,570.438 2235.74,564.828 2235.74,552.948 C2235.74,546.678 2236.57,542.553 2238.44,539.253 C2240.14,536.173 2243.5,534.248 2247.07,534.248 C2250.92,534.248 2254.33,536.283 2256.42,539.803 C2257.47,541.618 2258.24,543.653 2259.56,547.998 L2261.98,547.998 L2261.15,532.103 "/>
<path class="Harmony" d="M2271.41,546.788 L2273.83,547.173 L2274.82,542.828 C2275.64,539.198 2276.03,538.648 2277.62,538.648 C2277.9,538.648 2278.34,538.648 2278.83,538.703 C2285.6,539.033 2285.6,539.033 2288.13,539.033 C2288.84,539.033 2290.11,539.033 2291.65,538.978 L2287.91,546.513 C2283.84,554.598 2283.34,555.588 2281.97,558.998 C2280.26,563.123 2279.38,566.588 2279.38,568.898 C2279.38,571.428 2280.7,572.968 2282.85,572.968 C2285.49,572.968 2286.53,571.208 2286.48,566.423 C2286.2,558.503 2287.19,554.653 2293.08,541.783 C2294.07,539.638 2295.11,537.438 2296.1,535.293 L2296.1,533.698 C2292.8,533.973 2291.04,534.083 2287.63,534.083 C2282.85,534.083 2279.05,533.918 2273.11,533.478 L2271.41,546.788 "/>
<path class="Harmony" d="M1938.17,532.103 L1936.08,532.103 L1933.88,535.348 C1929.86,532.433 1927.83,531.663 1924.03,531.663 C1918.81,531.663 1914.35,533.863 1910.67,538.263 C1907.15,542.443 1905.5,547.063 1905.5,552.728 C1905.5,564.608 1913.25,573.023 1924.09,573.023 C1932.89,573.023 1938.5,567.853 1939.76,558.613 L1937.18,558.173 C1935.69,566.368 1931.51,570.438 1924.75,570.438 C1916.61,570.438 1912.76,564.828 1912.76,552.948 C1912.76,546.678 1913.58,542.553 1915.45,539.253 C1917.16,536.173 1920.51,534.248 1924.09,534.248 C1927.94,534.248 1931.35,536.283 1933.44,539.803 C1934.48,541.618 1935.25,543.653 1936.57,547.998 L1938.99,547.998 L1938.17,532.103 "/>
<path class="Harmony" d="M1948.42,546.788 L1950.84,547.173 L1951.83,542.828 C1952.66,539.198 1953.04,538.648 1954.64,538.648 C1954.91,538.648 1955.35,538.648 1955.85,538.703 C1962.61,539.033 1962.61,539.033 1965.14,539.033 C1965.86,539.033 1967.12,539.033 1968.66,538.978 L1964.92,546.513 C1960.85,554.598 1960.36,555.588 1958.98,558.998 C1957.28,563.123 1956.4,566.588 1956.4,568.898 C1956.4,571.428 1957.72,572.968 1959.86,572.968 C1962.5,572.968 1963.55,571.208 1963.49,566.423 C1963.22,558.503 1964.21,554.653 1970.09,541.783 C1971.08,539.638 1972.13,537.438 1973.12,535.293 L1973.12,533.698 C1969.82,533.973 1968.06,534.083 1964.65,534.083 C1959.86,534.083 1956.07,533.918 1950.13,533.478 L1948.42,546.788 "/>
<path class="Harmony" d="M2362.2,1003.69 L2329.47,1003.69 L2329.47,1006.27 L2330.46,1006.27 C2333.6,1006.33 2334.64,1006.49 2335.08,1007.04 C2335.41,1007.54 2335.41,1007.65 2335.41,1010.45 L2335.41,1036.63 C2335.41,1039.44 2335.41,1039.55 2335.08,1040.04 C2334.64,1040.59 2333.6,1040.81 2330.46,1040.81 L2329.47,1040.81 L2329.47,1043.4 L2348.34,1043.4 L2348.34,1040.81 L2346.52,1040.81 C2343.39,1040.81 2342.34,1040.59 2341.9,1040.04 C2341.57,1039.55 2341.57,1039.38 2341.57,1036.63 L2341.57,1024.15 L2342.67,1024.15 C2348.34,1023.93 2350.37,1025.96 2350.59,1032.07 L2353.18,1032.07 L2353.18,1014.03 L2350.59,1014.03 C2350.26,1019.42 2348.12,1021.51 2342.89,1021.56 L2341.57,1021.56 L2341.57,1009.02 C2341.52,1006.71 2342.07,1006.33 2345.04,1006.27 L2347.57,1006.27 C2356.59,1006.22 2358.84,1008.25 2360.55,1017.71 L2362.97,1017.71 L2362.2,1003.69 "/>
<path class="Harmony" d="M2464.38,1003.69 L2431.65,1003.69 L2431.65,1006.27 L2432.64,1006.27 C2435.78,1006.33 2436.82,1006.49 2437.26,1007.04 C2437.59,1007.54 2437.59,1007.65 2437.59,1010.45 L2437.59,1036.63 C2437.59,1039.44 2437.59,1039.55 2437.26,1040.04 C2436.82,1040.59 2435.78,1040.81 2432.64,1040.81 L2431.65,1040.81 L2431.65,1043.4 L2450.52,1043.4 L2450.52,1040.81 L2448.7,1040.81 C2445.57,1040.81 2444.52,1040.59 2444.08,1040.04 C2443.75,1039.55 2443.75,1039.38 2443.75,1036.63 L2443.75,1024.15 L2444.85,1024.15 C2450.52,1023.93 2452.55,1025.96 2452.77,1032.07 L2455.36,1032.07 L2455.36,1014.03 L2452.77,1014.03 C2452.44,1019.42 2450.3,1021.51 2445.07,1021.56 L2443.75,1021.56 L2443.75,1009.02 C2443.7,1006.71 2444.25,1006.33 2447.22,1006.27 L2449.75,1006.27 C2458.77,1006.22 2461.02,1008.25 2462.73,1017.71 L2465.15,1017.71 L2464.38,1003.69 "/>
<path class="Harmony" d="M2668.74,1003.69 L2636.01,1003.69 L2636.01,1006.27 L2637,1006.27 C2640.14,1006.33 2641.18,1006.49 2641.62,1007.04 C2641.95,1007.54 2641.95,1007.65 2641.95,1010.45 L2641.95,1036.63 C2641.95,1039.44 2641.95,1039.55 2641.62,1040.04 C2641.18,1040.59 2640.14,1040.81 2637,1040.81 L2636.01,1040.81 L2636.01,1043.4 L2654.88,1043.4 L2654.88,1040.81 L2653.06,1040.81 C2649.93,1040.81 2648.88,1040.59 2648.44,1040.04 C2648.11,1039.55 2648.11,1039.38 2648.11,1036.63 L2648.11,1024.15 L2649.21,1024.15 C2654.88,1023.93 2656.91,1025.96 2657.13,1032.07 L2659.72,1032.07 L2659.72,1014.03 L2657.13,1014.03 C2656.8,1019.42 2654.66,1021.51 2649.43,1021.56 L2648.11,1021.56 L2648.11,1009.02 C2648.06,1006.71 2648.61,1006.33 2651.58,1006.27 L2654.11,1006.27 C2663.13,1006.22 2665.38,1008.25 2667.09,1017.71 L2669.51,1017.71 L2668.74,1003.69 "/>
<path class="Harmony" d="M760.586,532.488 L727.861,532.488 L727.861,535.073 L728.851,535.073 C731.986,535.128 733.031,535.293 733.471,535.843 C733.801,536.338 733.801,536.448 733.801,539.253 L733.801,565.433 C733.801,568.238 733.801,568.348 733.471,568.843 C733.031,569.393 731.986,569.613 728.851,569.613 L727.861,569.613 L727.861,572.198 L746.726,572.198 L746.726,569.613 L744.911,569.613 C741.776,569.613 740.731,569.393 740.291,568.843 C739.961,568.348 739.961,568.183 739.961,565.433 L739.961,552.948 L741.061,552.948 C746.726,552.728 748.761,554.763 748.981,560.868 L751.566,560.868 L751.566,542.828 L748.981,542.828 C748.651,548.218 746.506,550.308 741.281,550.363 L739.961,550.363 L739.961,537.823 C739.906,535.513 740.456,535.128 743.426,535.073 L745.956,535.073 C754.976,535.018 757.231,537.053 758.936,546.513 L761.356,546.513 L760.586,532.488 "/>
</svg>
