<?xml version="1.0" encoding="UTF-8" standalone="no"?>
<svg width="2977.2px" height="4208.4px" viewBox="0 0 2977.2 4208.4"
 xmlns="http://www.w3.org/2000/svg" xmlns:xlink="http://www.w3.org/1999/xlink" version="1.2" baseProfile="tiny">
<title>夏は来ぬ</title>
<desc>Generated by MuseScore Studio 4.4.2</desc>
<path class="" fill="#ffffff" fill-rule="evenodd" d="M0,0 L2977.2,0 L2977.2,4208.4 L0,4208.4 L0,0 "/>
<polyline class="StaffLines" fill="none" stroke="#000000" stroke-width="2.73" stroke-linejoin="bevel" points="212.598,634.198 2764.6,634.198"/>
<polyline class="StaffLines" fill="none" stroke="#000000" stroke-width="2.73" stroke-linejoin="bevel" points="212.598,658.998 2764.6,658.998"/>
<polyline class="StaffLines" fill="none" stroke="#000000" stroke-width="2.73" stroke-linejoin="bevel" points="212.598,683.798 2764.6,683.798"/>
<polyline class="StaffLines" fill="none" stroke="#000000" stroke-width="2.73" stroke-linejoin="bevel" points="212.598,708.598 2764.6,708.598"/>
<polyline class="StaffLines" fill="none" stroke="#000000" stroke-width="2.73" stroke-linejoin="bevel" points="212.598,733.398 2764.6,733.398"/>
<polyline class="StaffLines" fill="none" stroke="#000000" stroke-width="2.73" stroke-linejoin="bevel" points="212.598,1105.4 2764.6,1105.4"/>
<polyline class="StaffLines" fill="none" stroke="#000000" stroke-width="2.73" stroke-linejoin="bevel" points="212.598,1130.2 2764.6,1130.2"/>
<polyline class="StaffLines" fill="none" stroke="#000000" stroke-width="2.73" stroke-linejoin="bevel" points="212.598,1155 2764.6,1155"/>
<polyline class="StaffLines" fill="none" stroke="#000000" stroke-width="2.73" stroke-linejoin="bevel" points="212.598,1179.8 2764.6,1179.8"/>
<polyline class="StaffLines" fill="none" stroke="#000000" stroke-width="2.73" stroke-linejoin="bevel" points="212.598,1204.6 2764.6,1204.6"/>
<path class="Text" d="M1352.81,278.043 C1350.17,278.483 1347.75,278.593 1342.69,278.593 L1310.57,278.593 C1314.31,274.963 1315.3,273.973 1317.06,271.883 L1348.85,271.883 C1352.92,271.883 1356.77,272.103 1360.18,272.433 C1359.85,269.903 1359.74,266.493 1359.74,260.223 L1359.74,240.203 C1359.74,235.473 1359.85,232.393 1360.18,228.983 C1356.99,229.203 1354.9,229.313 1348.3,229.313 L1323.55,229.313 C1325.75,226.123 1326.74,224.363 1328.28,221.723 L1363.04,221.723 C1367.77,221.723 1370.96,221.943 1374.26,222.383 L1374.26,215.123 C1371.18,215.563 1367.88,215.783 1362.93,215.783 L1288.9,215.783 C1284.17,215.783 1280.98,215.563 1277.79,215.123 L1277.79,222.383 C1281.09,221.943 1284.28,221.723 1288.79,221.723 L1320.8,221.723 C1319.26,224.693 1317.94,226.783 1316.07,229.313 L1303.75,229.313 C1297.15,229.313 1294.84,229.203 1291.76,228.983 C1292.09,232.613 1292.31,235.363 1292.31,240.203 L1292.31,260.553 C1292.31,266.823 1292.09,269.683 1291.76,272.433 C1295.17,272.103 1299.13,271.883 1303.09,271.883 L1309.47,271.883 C1302.21,280.463 1291.21,287.283 1276.25,292.453 C1278.45,294.433 1279.11,295.423 1280.65,298.063 C1290.22,293.993 1295.17,291.243 1301.88,286.183 C1307.38,291.133 1311.78,294.213 1319.04,298.283 C1305.84,303.013 1290.88,305.983 1275.59,306.973 C1277.13,309.283 1277.9,310.933 1278.67,313.793 C1298.14,311.483 1311.67,308.183 1326.63,302.023 C1340.27,308.183 1355.12,311.813 1373.16,313.573 C1374.04,310.493 1375.03,308.623 1376.68,306.423 C1361.5,305.983 1348.08,303.453 1334.33,298.503 C1341.7,294.763 1349.07,289.813 1353.58,285.633 C1355.01,284.313 1355.67,283.763 1357.21,282.773 L1352.81,278.043 M1345.77,283.983 C1339.72,288.823 1335.1,291.463 1326.52,295.313 C1319.15,291.903 1314.31,288.933 1308.04,283.983 L1345.77,283.983 M1298.69,234.593 L1353.25,234.593 L1353.25,241.633 L1298.69,241.633 L1298.69,234.593 M1298.69,246.913 L1353.25,246.913 L1353.25,253.843 L1298.69,253.843 L1298.69,246.913 M1298.69,259.123 L1353.25,259.123 L1353.25,266.603 L1298.69,266.603 L1298.69,259.123 "/>
<path class="Text" d="M1421.23,247.573 C1421.45,247.573 1421.56,247.573 1421.67,247.573 C1421.89,247.573 1422.22,247.573 1422.77,247.683 C1422.99,247.683 1423.65,247.683 1424.64,247.793 C1425.08,247.793 1426.29,247.793 1428.16,248.013 C1432.01,248.233 1436.08,248.343 1440.59,248.343 C1444.77,248.343 1448.18,248.233 1453.13,248.013 C1453.46,264.073 1453.9,274.413 1454.23,276.723 C1451.7,275.403 1446.53,274.523 1442.02,274.523 C1429.81,274.523 1421.12,281.013 1421.12,290.143 C1421.12,299.713 1429.15,305.763 1441.91,305.763 C1450.93,305.763 1457.64,302.353 1460.28,296.523 C1461.16,294.543 1461.6,291.903 1461.6,289.043 C1461.6,288.053 1461.6,287.833 1461.38,286.183 C1461.93,286.513 1461.93,286.513 1462.37,286.843 C1463.03,287.283 1463.03,287.283 1463.47,287.503 C1471.28,292.013 1475.68,295.093 1479.09,298.943 L1482.5,291.243 C1481.29,290.473 1481.07,290.253 1479.75,289.373 C1472.49,283.983 1469.41,282.223 1461.38,278.593 C1460.5,263.963 1460.28,258.353 1460.17,247.463 C1465.89,246.803 1468.97,246.363 1471.83,245.703 C1479.31,244.163 1479.31,244.163 1479.53,244.163 L1479.2,236.683 C1475.02,238.443 1468.64,239.763 1460.17,240.753 C1460.06,238.333 1460.06,236.573 1460.06,235.363 C1460.06,226.233 1460.28,221.063 1460.83,218.093 L1452.58,218.093 C1452.8,219.193 1452.91,220.733 1452.91,222.603 C1452.91,230.963 1452.91,230.963 1453.02,241.303 C1448.51,241.523 1445.54,241.633 1441.25,241.633 C1431.57,241.633 1426.84,241.193 1421.45,239.873 L1421.23,247.573 M1454.34,283.433 C1454.34,283.433 1454.45,285.963 1454.45,286.733 C1454.45,291.023 1453.79,293.663 1452.36,295.313 C1450.27,297.733 1445.98,299.163 1441.14,299.163 C1433.44,299.163 1428.38,295.643 1428.38,290.253 C1428.38,284.753 1433.99,281.123 1442.57,281.123 C1446.97,281.123 1449.83,281.673 1454.34,283.433 M1401.76,217.983 C1401.65,219.413 1401.54,220.073 1400.55,224.913 C1396.26,243.943 1394.83,255.493 1394.83,270.123 C1394.83,281.233 1395.93,292.563 1397.91,302.793 C1398.35,305.323 1398.46,305.873 1398.57,306.863 L1406.38,306.093 C1406.16,304.553 1406.16,304.443 1406.16,303.893 C1406.16,297.403 1410.45,283.433 1415.62,272.653 L1410.23,270.123 C1410.01,270.893 1409.79,271.333 1409.35,272.323 C1405.61,281.343 1404.84,283.433 1402.86,291.683 L1402.42,291.573 C1402.42,290.473 1402.42,290.473 1402.42,289.483 C1402.31,287.503 1402.31,287.283 1402.31,286.403 C1402.09,281.343 1401.87,274.853 1401.87,271.003 C1401.87,252.963 1405.61,230.413 1410.34,219.413 L1401.76,217.983 "/>
<path class="Text" d="M1548.17,260.443 L1548.17,231.623 L1576.44,231.623 C1581.72,231.623 1585.13,231.843 1588.43,232.283 L1588.43,224.583 C1585.68,225.133 1582.49,225.353 1576.22,225.353 L1548.17,225.353 L1548.17,221.723 C1548.17,217.323 1548.28,215.343 1548.83,212.593 L1540.69,212.593 C1541.13,215.563 1541.35,217.983 1541.35,221.723 L1541.35,225.353 L1515.28,225.353 C1510.44,225.353 1507.14,225.133 1503.29,224.583 L1503.29,232.283 C1507.14,231.843 1510.77,231.623 1515.06,231.623 L1541.35,231.623 L1541.35,260.443 L1509.45,260.443 C1504.39,260.443 1501.2,260.223 1497.46,259.673 L1497.46,267.483 C1501.86,267.043 1505.16,266.823 1509.56,266.823 L1538.27,266.823 C1532.11,274.633 1531.12,275.733 1527.05,279.693 C1518.14,288.493 1507.8,295.643 1496.47,301.143 C1498.89,303.563 1499.66,304.663 1501.42,307.523 C1508.68,303.453 1514.73,299.383 1521.11,294.103 C1529.91,286.843 1534.75,281.343 1541.79,270.453 C1541.46,277.053 1541.35,278.923 1541.35,282.223 L1541.35,301.913 C1541.35,306.423 1541.13,309.283 1540.58,312.583 L1548.94,312.583 C1548.39,309.393 1548.17,306.423 1548.17,301.913 L1548.17,282.223 C1548.17,279.363 1548.06,276.393 1547.73,270.343 C1553.78,279.033 1557.52,283.543 1563.24,288.823 C1571.38,296.193 1579.85,301.913 1590.96,307.523 C1592.5,304.663 1593.71,302.903 1595.69,300.703 C1584.47,296.083 1575.56,290.473 1565.99,282.113 C1560.82,277.603 1558.4,275.073 1551.47,266.823 L1582.05,266.823 C1587.33,266.823 1590.96,267.043 1594.37,267.483 L1594.37,259.673 C1591.73,260.223 1588.65,260.443 1582.27,260.443 L1565.99,260.443 C1570.94,252.743 1574.35,246.473 1578.2,238.003 L1571.38,235.253 C1567.64,245.153 1564.45,251.313 1558.29,260.443 L1548.17,260.443 M1512.31,238.003 C1517.15,245.483 1519.35,249.773 1522.98,258.683 L1529.14,255.493 C1524.85,246.143 1522.98,242.513 1518.25,235.143 L1512.31,238.003 "/>
<path class="Text" d="M1620.77,224.803 C1621.21,226.343 1621.43,227.113 1621.76,228.323 C1623.74,237.233 1625.28,244.163 1626.05,247.133 C1615.93,255.713 1610.43,266.713 1610.43,278.373 C1610.43,291.023 1616.59,299.603 1625.61,299.603 C1631.33,299.603 1637.38,295.753 1643.21,288.493 C1652.23,277.163 1659.71,261.323 1665.1,241.853 C1672.14,242.513 1676.87,244.163 1681.05,247.243 C1688.09,252.303 1692.05,260.553 1692.05,270.233 C1692.05,275.403 1691.61,277.933 1690.18,282.333 C1683.47,278.263 1678.52,276.723 1672.03,276.723 C1667.63,276.723 1663.67,277.713 1660.81,279.473 C1656.63,282.223 1654.1,286.513 1654.1,291.133 C1654.1,299.163 1661.36,304.663 1671.92,304.663 C1681.38,304.663 1688.53,300.813 1693.48,292.783 C1697.44,295.973 1699.53,298.063 1702.94,301.803 L1706.46,294.213 C1701.62,290.143 1698.32,287.393 1696.67,286.183 C1698.76,280.573 1699.42,277.163 1699.42,271.443 C1699.42,256.263 1693.15,245.263 1681.16,239.433 C1676.98,237.343 1671.59,235.913 1666.97,235.473 C1667.74,232.283 1667.96,231.403 1668.51,229.093 C1670.05,222.053 1670.49,220.293 1671.15,218.863 L1662.79,217.433 C1662.68,220.073 1662.02,223.813 1661.14,228.103 C1659.82,233.823 1659.82,233.823 1659.49,235.143 C1648.6,235.693 1640.24,238.113 1632.32,242.843 C1630.56,235.913 1628.8,226.673 1628.69,223.043 L1620.77,224.803 M1628.36,254.393 C1631.55,266.383 1634.52,274.193 1638.81,282.333 C1634.41,288.493 1629.57,292.233 1625.72,292.233 C1620.99,292.233 1617.58,286.513 1617.58,278.703 C1617.58,269.463 1620.88,261.873 1628.36,254.393 M1643.32,276.503 C1643.21,275.843 1643.21,275.843 1642.77,274.853 C1642.66,274.633 1642.66,274.633 1640.57,269.353 C1636.83,259.893 1636.72,259.563 1633.97,249.443 C1641.67,244.493 1648.38,242.293 1657.84,241.633 C1655.09,251.203 1651.9,259.673 1648.82,265.943 C1644.86,273.753 1644.09,275.293 1643.65,276.503 L1643.32,276.503 M1687.76,288.713 C1685.67,292.233 1684.79,293.223 1682.37,294.983 C1679.4,297.183 1675.88,298.283 1671.92,298.283 C1665.43,298.283 1660.92,295.313 1660.92,290.913 C1660.92,286.293 1665.32,283.103 1671.7,283.103 C1677.31,283.103 1682.15,284.753 1687.76,288.713"/>
<path class="MeasureNumber" d="M216.922,1040.48 C215.682,1041.24 215.322,1041.72 215.322,1042.52 C215.322,1043.28 215.962,1043.84 216.762,1043.84 C217.802,1043.84 218.402,1043.08 218.522,1041.6 C219.762,1040.6 221.082,1040.16 222.682,1040.16 C225.642,1040.16 227.282,1042 227.282,1045.32 C227.282,1050.52 223.922,1054.76 219.802,1054.76 C217.442,1054.76 215.522,1053.64 215.522,1052.32 C215.522,1052.08 215.562,1052 215.762,1051.88 C217.042,1051.28 218.082,1050.84 218.082,1049.16 C218.082,1047.88 217.082,1046.92 215.682,1046.92 C213.922,1046.92 212.602,1048.4 212.602,1050.32 C212.602,1053.84 215.642,1056.4 219.922,1056.4 C226.402,1056.4 231.642,1051.24 231.642,1044.84 C231.642,1040.8 228.562,1037.96 224.202,1037.96 C222.482,1037.96 221.082,1038.32 219.162,1039.28 L221.402,1031.72 C223.522,1032.16 225.202,1032.36 226.642,1032.36 C229.282,1032.36 231.642,1031.52 232.962,1030.12 C233.642,1029.32 234.042,1028.64 234.042,1028.12 C234.042,1027.88 233.922,1027.64 233.762,1027.64 C233.642,1027.64 233.562,1027.68 233.322,1027.8 C232.002,1028.44 230.322,1028.8 228.762,1028.8 C226.362,1028.8 223.522,1028.4 220.562,1027.64 L216.922,1040.48 "/>
<path class="TieSegment" stroke="#000000" stroke-width="1.74" stroke-linecap="round" stroke-linejoin="round" fill-rule="evenodd" d="M661.737,1197.89 C689.357,1217.77 772.217,1217.77 799.837,1197.89 C772.217,1224.71 689.357,1224.71 661.737,1197.89"/>
<polyline class="BarLine" fill="none" stroke="#000000" stroke-width="4.46" stroke-linejoin="bevel" points="918.816,632.834 918.816,734.762"/>
<polyline class="BarLine" fill="none" stroke="#000000" stroke-width="4.46" stroke-linejoin="bevel" points="2274.54,1104.03 2274.54,1205.96"/>
<polyline class="BarLine" fill="none" stroke="#000000" stroke-width="4.46" stroke-linejoin="bevel" points="1674.99,1104.03 1674.99,1205.96"/>
<polyline class="BarLine" fill="none" stroke="#000000" stroke-width="4.46" stroke-linejoin="bevel" points="980.068,1104.03 980.068,1205.96"/>
<polyline class="BarLine" fill="none" stroke="#000000" stroke-width="4.46" stroke-linejoin="bevel" points="2762.37,632.834 2762.37,734.762"/>
<polyline class="BarLine" fill="none" stroke="#000000" stroke-width="4.46" stroke-linejoin="bevel" points="2740.42,1104.03 2740.42,1205.96"/>
<polyline class="BarLine" fill="none" stroke="#000000" stroke-width="13.64" stroke-linejoin="bevel" points="2757.78,1104.03 2757.78,1205.96"/>
<polyline class="BarLine" fill="none" stroke="#000000" stroke-width="4.46" stroke-linejoin="bevel" points="2118.91,632.834 2118.91,734.762"/>
<polyline class="BarLine" fill="none" stroke="#000000" stroke-width="4.46" stroke-linejoin="bevel" points="1562.27,632.834 1562.27,734.762"/>
<polyline class="LedgerLine" fill="none" stroke="#000000" stroke-width="3.97" stroke-linejoin="bevel" points="349.231,1229.4 398.815,1229.4"/>
<polyline class="LedgerLine" fill="none" stroke="#000000" stroke-width="3.97" stroke-linejoin="bevel" points="2630.11,758.198 2679.69,758.198"/>
<polyline class="LedgerLine" fill="none" stroke="#000000" stroke-width="3.97" stroke-linejoin="bevel" points="2549.21,758.198 2598.79,758.198"/>
<polyline class="LedgerLine" fill="none" stroke="#000000" stroke-width="3.97" stroke-linejoin="bevel" points="2306.51,758.198 2356.09,758.198"/>
<polyline class="LedgerLine" fill="none" stroke="#000000" stroke-width="3.97" stroke-linejoin="bevel" points="2225.61,758.198 2275.19,758.198"/>
<polyline class="Stem" fill="none" stroke="#000000" stroke-width="2.73" stroke-linejoin="bevel" points="2507.85,729.43 2507.85,659.1"/>
<polyline class="Stem" fill="none" stroke="#000000" stroke-width="2.73" stroke-linejoin="bevel" points="2064.59,704.63 2064.59,621.997"/>
<polyline class="Stem" fill="none" stroke="#000000" stroke-width="2.73" stroke-linejoin="bevel" points="984.149,692.23 984.149,615.495"/>
<polyline class="Stem" fill="none" stroke="#000000" stroke-width="2.73" stroke-linejoin="bevel" points="548.856,729.43 548.856,658.897"/>
<polyline class="Stem" fill="none" stroke="#000000" stroke-width="2.73" stroke-linejoin="bevel" points="2310.37,1146.76 2310.37,1223.2"/>
<polyline class="Stem" fill="none" stroke="#000000" stroke-width="2.73" stroke-linejoin="bevel" points="2130.61,1134.36 2130.61,1217"/>
<polyline class="Stem" fill="none" stroke="#000000" stroke-width="2.73" stroke-linejoin="bevel" points="1065.05,667.43 1065.05,609.364"/>
<polyline class="Stem" fill="none" stroke="#000000" stroke-width="2.73" stroke-linejoin="bevel" points="1987.55,1134.36 1987.55,1217"/>
<polyline class="Stem" fill="none" stroke="#000000" stroke-width="2.73" stroke-linejoin="bevel" points="1145.95,704.63 1145.95,603.233"/>
<polyline class="Stem" fill="none" stroke="#000000" stroke-width="2.73" stroke-linejoin="bevel" points="1892.18,1121.96 1892.18,1204.5"/>
<polyline class="Stem" fill="none" stroke="#000000" stroke-width="2.73" stroke-linejoin="bevel" points="2265.15,741.83 2265.15,630.077"/>
<polyline class="Stem" fill="none" stroke="#000000" stroke-width="2.73" stroke-linejoin="bevel" points="1226.85,655.03 1226.85,597.102"/>
<polyline class="Stem" fill="none" stroke="#000000" stroke-width="2.73" stroke-linejoin="bevel" points="1710.83,1146.76 1710.83,1223.2"/>
<polyline class="Stem" fill="none" stroke="#000000" stroke-width="2.73" stroke-linejoin="bevel" points="1307.75,667.43 1307.75,603.401"/>
<polyline class="Stem" fill="none" stroke="#000000" stroke-width="2.73" stroke-linejoin="bevel" points="427.506,704.63 427.506,621.798"/>
<polyline class="Stem" fill="none" stroke="#000000" stroke-width="2.73" stroke-linejoin="bevel" points="1608.25,1175.83 1608.25,1093.2"/>
<polyline class="Stem" fill="none" stroke="#000000" stroke-width="2.73" stroke-linejoin="bevel" points="2346.05,741.83 2346.05,632.12"/>
<polyline class="Stem" fill="none" stroke="#000000" stroke-width="2.73" stroke-linejoin="bevel" points="1388.65,692.23 1388.65,615.396"/>
<polyline class="Stem" fill="none" stroke="#000000" stroke-width="2.73" stroke-linejoin="bevel" points="1426.89,1175.83 1426.89,1093"/>
<polyline class="Stem" fill="none" stroke="#000000" stroke-width="2.73" stroke-linejoin="bevel" points="1469.55,704.63 1469.55,621.798"/>
<polyline class="Stem" fill="none" stroke="#000000" stroke-width="2.73" stroke-linejoin="bevel" points="1331.52,1138.63 1331.52,1074.46"/>
<polyline class="Stem" fill="none" stroke="#000000" stroke-width="2.73" stroke-linejoin="bevel" points="1236.15,1163.43 1236.15,1078.55"/>
<polyline class="Stem" fill="none" stroke="#000000" stroke-width="2.73" stroke-linejoin="bevel" points="864.489,704.63 864.489,621.997"/>
<polyline class="Stem" fill="none" stroke="#000000" stroke-width="2.73" stroke-linejoin="bevel" points="2426.95,704.63 2426.95,634.164"/>
<polyline class="Stem" fill="none" stroke="#000000" stroke-width="2.73" stroke-linejoin="bevel" points="1627.6,692.23 1627.6,615.598"/>
<polyline class="Stem" fill="none" stroke="#000000" stroke-width="2.73" stroke-linejoin="bevel" points="1140.77,1175.83 1140.77,1082.65"/>
<polyline class="Stem" fill="none" stroke="#000000" stroke-width="2.73" stroke-linejoin="bevel" points="1045.4,1163.43 1045.4,1086.74"/>
<polyline class="Stem" fill="none" stroke="#000000" stroke-width="2.73" stroke-linejoin="bevel" points="1748.95,667.43 1748.95,603.401"/>
<polyline class="Stem" fill="none" stroke="#000000" stroke-width="2.73" stroke-linejoin="bevel" points="913.323,1175.83 913.323,1105.4"/>
<polyline class="Stem" fill="none" stroke="#000000" stroke-width="2.73" stroke-linejoin="bevel" points="817.95,1175.83 817.95,1105.4"/>
<polyline class="Stem" fill="none" stroke="#000000" stroke-width="2.73" stroke-linejoin="bevel" points="674.891,1175.83 674.891,1093"/>
<polyline class="Stem" fill="none" stroke="#000000" stroke-width="2.73" stroke-linejoin="bevel" points="1829.85,692.23 1829.85,615.396"/>
<polyline class="Stem" fill="none" stroke="#000000" stroke-width="2.73" stroke-linejoin="bevel" points="531.831,1200.63 531.831,1117.8"/>
<polyline class="Stem" fill="none" stroke="#000000" stroke-width="2.73" stroke-linejoin="bevel" points="1910.75,704.63 1910.75,621.798"/>
<polyline class="Stem" fill="none" stroke="#000000" stroke-width="2.73" stroke-linejoin="bevel" points="388.771,1225.43 388.771,1142.6"/>
<polyline class="Stem" fill="none" stroke="#000000" stroke-width="2.73" stroke-linejoin="bevel" points="2669.65,741.83 2669.65,658.998"/>
<polyline class="Stem" fill="none" stroke="#000000" stroke-width="2.73" stroke-linejoin="bevel" points="629.756,717.03 629.756,652.9"/>
<polyline class="Stem" fill="none" stroke="#000000" stroke-width="2.73" stroke-linejoin="bevel" points="2588.75,754.23 2588.75,665.097"/>
<polyline class="Stem" fill="none" stroke="#000000" stroke-width="2.73" stroke-linejoin="bevel" points="710.656,704.63 710.656,621.798"/>
<polyline class="Stem" fill="none" stroke="#000000" stroke-width="2.73" stroke-linejoin="bevel" points="2184.25,692.23 2184.25,628.033"/>
<path class="Hook" transform="matrix(0.992,0,0,0.992,2063.22,621.798)" d="M0,22.7 C0,23 0.1,23.6 0.8,23.8 C5.1,25.2 13.7,30.6 20.2,41.7 C22,44.8 24.9,49.1 24.9,57.4 C24.9,64.6 23.1,72 20.4,79.2 C20.2,79.8 20.1,80.3 20.1,80.7 C20.1,81.4 20.5,81.7 21.2,81.7 C21.8,81.7 22.3,81.3 22.7,80.6 C27.2,72.6 28.9,63.3 28.9,54.2 C28.4,41.3 21,31.8 21,31.8 C21.3,31.8 11.8,19.5 9.1,15.3 C5.4,9.6 3.7,3.9 3.5,3.5 C3.4,3.2 2.5,-0.4 2.5,-0.4 C2.4,-0.8 1.9,-1.2 1.3,-1.2 C0.6,-1.2 0,-0.6 0,0.1 L0,22.7 "/>
<path class="Hook" transform="matrix(0.992,0,0,0.992,863.125,621.798)" d="M0,22.7 C0,23 0.1,23.6 0.8,23.8 C5.1,25.2 13.7,30.6 20.2,41.7 C22,44.8 24.9,49.1 24.9,57.4 C24.9,64.6 23.1,72 20.4,79.2 C20.2,79.8 20.1,80.3 20.1,80.7 C20.1,81.4 20.5,81.7 21.2,81.7 C21.8,81.7 22.3,81.3 22.7,80.6 C27.2,72.6 28.9,63.3 28.9,54.2 C28.4,41.3 21,31.8 21,31.8 C21.3,31.8 11.8,19.5 9.1,15.3 C5.4,9.6 3.7,3.9 3.5,3.5 C3.4,3.2 2.5,-0.4 2.5,-0.4 C2.4,-0.8 1.9,-1.2 1.3,-1.2 C0.6,-1.2 0,-0.6 0,0.1 L0,22.7 "/>
<path class="Hook" transform="matrix(0.992,0,0,0.992,1606.88,1093)" d="M0,22.7 C0,23 0.1,23.6 0.8,23.8 C5.1,25.2 13.7,30.6 20.2,41.7 C22,44.8 24.9,49.1 24.9,57.4 C24.9,64.6 23.1,72 20.4,79.2 C20.2,79.8 20.1,80.3 20.1,80.7 C20.1,81.4 20.5,81.7 21.2,81.7 C21.8,81.7 22.3,81.3 22.7,80.6 C27.2,72.6 28.9,63.3 28.9,54.2 C28.4,41.3 21,31.8 21,31.8 C21.3,31.8 11.8,19.5 9.1,15.3 C5.4,9.6 3.7,3.9 3.5,3.5 C3.4,3.2 2.5,-0.4 2.5,-0.4 C2.4,-0.8 1.9,-1.2 1.3,-1.2 C0.6,-1.2 0,-0.6 0,0.1 L0,22.7 "/>
<path class="Hook" transform="matrix(0.992,0,0,0.992,1890.81,1204.6)" d="M0,-0.1 C0,0.6 0.6,1.2 1.3,1.2 C1.8,1.2 2.4,0.8 2.5,0.4 C2.5,0.3 3.4,-3.2 3.5,-3.5 C3.6,-3.9 4.5,-7.7 8.1,-13.6 C12,-20.1 18,-24.8 23,-31.8 C28,-38.8 30.9,-45.4 30.9,-54.2 C30.9,-63.3 28.9,-70.9 23.5,-80.6 C23.2,-81.3 22.6,-81.7 22,-81.7 C21.8,-81.7 21.6,-81.7 21.5,-81.6 C21,-81.4 20.8,-81 20.8,-80.4 C20.8,-80.1 20.9,-79.7 21.1,-79.2 C25.1,-69.9 26.7,-64.6 26.7,-57.4 C26.7,-49.1 23.8,-44.8 22,-41.7 C15.5,-30.6 5,-25.2 0.8,-23.8 C0.1,-23.6 0,-23 0,-22.7 L0,-0.1 "/>
<path class="Note" transform="matrix(0.992,0,0,0.992,953.288,696.198)" d="M0,4.2 C0,8.5 3.1,13.3 11.2,13.3 C21.6,13.3 32.5,4.8 32.5,-4 C32.5,-9.9 27.5,-13.2 21.3,-13.2 C11.6,-13.2 0,-5 0,4.2"/>
<path class="Note" transform="matrix(0.992,0,0,0.992,787.09,1179.8)" d="M0,4.2 C0,8.5 3.1,13.3 11.2,13.3 C21.6,13.3 32.5,4.8 32.5,-4 C32.5,-9.9 27.5,-13.2 21.3,-13.2 C11.6,-13.2 0,-5 0,4.2"/>
<path class="Note" transform="matrix(0.992,0,0,0.992,1300.66,1142.6)" d="M0,4.2 C0,8.5 3.1,13.3 11.2,13.3 C21.6,13.3 32.5,4.8 32.5,-4 C32.5,-9.9 27.5,-13.2 21.3,-13.2 C11.6,-13.2 0,-5 0,4.2"/>
<path class="Note" transform="matrix(0.992,0,0,0.992,2476.99,733.398)" d="M0,4.2 C0,8.5 3.1,13.3 11.2,13.3 C21.6,13.3 32.5,4.8 32.5,-4 C32.5,-9.9 27.5,-13.2 21.3,-13.2 C11.6,-13.2 0,-5 0,4.2"/>
<path class="Note" transform="matrix(0.992,0,0,0.992,1109.91,1179.8)" d="M0,4.2 C0,8.5 3.1,13.3 11.2,13.3 C21.6,13.3 32.5,4.8 32.5,-4 C32.5,-9.9 27.5,-13.2 21.3,-13.2 C11.6,-13.2 0,-5 0,4.2"/>
<path class="Note" transform="matrix(0.992,0,0,0.992,2309.01,1142.6)" d="M21.3,-13.2 C11.6,-13.2 0,-5.1 0,4.2 C0,8.5 3.1,13.3 11.2,13.3 C21.6,13.3 32.5,4.8 32.5,-4 C32.5,-9.9 27.5,-13.2 21.3,-13.2 M7.5,8.6 C4.2,8.6 3.5,5.9 3.5,5 C3.5,0.1 20.3,-8.5 25,-8.5 C27.4,-8.5 29,-7.1 29,-4.9 C29,0.1 12.1,8.6 7.5,8.6"/>
<path class="Note" transform="matrix(0.992,0,0,0.992,2234.29,745.798)" d="M0,4.2 C0,8.5 3.1,13.3 11.2,13.3 C21.6,13.3 32.5,4.8 32.5,-4 C32.5,-9.9 27.5,-13.2 21.3,-13.2 C11.6,-13.2 0,-5 0,4.2"/>
<path class="Note" transform="matrix(0.992,0,0,0.992,1596.74,696.198)" d="M0,4.2 C0,8.5 3.1,13.3 11.2,13.3 C21.6,13.3 32.5,4.8 32.5,-4 C32.5,-9.9 27.5,-13.2 21.3,-13.2 C11.6,-13.2 0,-5 0,4.2"/>
<path class="Note" transform="matrix(0.992,0,0,0.992,679.796,708.598)" d="M0,4.2 C0,8.5 3.1,13.3 11.2,13.3 C21.6,13.3 32.5,4.8 32.5,-4 C32.5,-9.9 27.5,-13.2 21.3,-13.2 C11.6,-13.2 0,-5 0,4.2"/>
<path class="Note" transform="matrix(0.992,0,0,0.992,2315.19,745.798)" d="M0,4.2 C0,8.5 3.1,13.3 11.2,13.3 C21.6,13.3 32.5,4.8 32.5,-4 C32.5,-9.9 27.5,-13.2 21.3,-13.2 C11.6,-13.2 0,-5 0,4.2"/>
<path class="Note" transform="matrix(0.992,0,0,0.992,1357.79,696.198)" d="M0,4.2 C0,8.5 3.1,13.3 11.2,13.3 C21.6,13.3 32.5,4.8 32.5,-4 C32.5,-9.9 27.5,-13.2 21.3,-13.2 C11.6,-13.2 0,-5 0,4.2"/>
<path class="Note" transform="matrix(0.992,0,0,0.992,1014.54,1167.4)" d="M0,4.2 C0,8.5 3.1,13.3 11.2,13.3 C21.6,13.3 32.5,4.8 32.5,-4 C32.5,-9.9 27.5,-13.2 21.3,-13.2 C11.6,-13.2 0,-5 0,4.2"/>
<path class="Note" transform="matrix(0.992,0,0,0.992,2033.73,708.598)" d="M0,4.2 C0,8.5 3.1,13.3 11.2,13.3 C21.6,13.3 32.5,4.8 32.5,-4 C32.5,-9.9 27.5,-13.2 21.3,-13.2 C11.6,-13.2 0,-5 0,4.2"/>
<path class="Note" transform="matrix(0.992,0,0,0.992,598.896,720.998)" d="M0,4.2 C0,8.5 3.1,13.3 11.2,13.3 C21.6,13.3 32.5,4.8 32.5,-4 C32.5,-9.9 27.5,-13.2 21.3,-13.2 C11.6,-13.2 0,-5 0,4.2"/>
<path class="Note" transform="matrix(0.992,0,0,0.992,2396.09,708.598)" d="M0,4.2 C0,8.5 3.1,13.3 11.2,13.3 C21.6,13.3 32.5,4.8 32.5,-4 C32.5,-9.9 27.5,-13.2 21.3,-13.2 C11.6,-13.2 0,-5 0,4.2"/>
<path class="Note" transform="matrix(0.992,0,0,0.992,2153.39,696.198)" d="M0,4.2 C0,8.5 3.1,13.3 11.2,13.3 C21.6,13.3 32.5,4.8 32.5,-4 C32.5,-9.9 27.5,-13.2 21.3,-13.2 C11.6,-13.2 0,-5 0,4.2"/>
<path class="Note" transform="matrix(0.992,0,0,0.992,2129.25,1130.2)" d="M0,4.2 C0,8.5 3.1,13.3 11.2,13.3 C21.6,13.3 32.5,4.8 32.5,-4 C32.5,-9.9 27.5,-13.2 21.3,-13.2 C11.6,-13.2 0,-5 0,4.2"/>
<path class="Note" transform="matrix(0.992,0,0,0.992,1986.19,1130.2)" d="M0,4.2 C0,8.5 3.1,13.3 11.2,13.3 C21.6,13.3 32.5,4.8 32.5,-4 C32.5,-9.9 27.5,-13.2 21.3,-13.2 C11.6,-13.2 0,-5 0,4.2"/>
<path class="Note" transform="matrix(0.992,0,0,0.992,1034.19,671.398)" d="M0,4.2 C0,8.5 3.1,13.3 11.2,13.3 C21.6,13.3 32.5,4.8 32.5,-4 C32.5,-9.9 27.5,-13.2 21.3,-13.2 C11.6,-13.2 0,-5 0,4.2"/>
<path class="Note" transform="matrix(0.992,0,0,0.992,2557.89,758.198)" d="M0,4.2 C0,8.5 3.1,13.3 11.2,13.3 C21.6,13.3 32.5,4.8 32.5,-4 C32.5,-9.9 27.5,-13.2 21.3,-13.2 C11.6,-13.2 0,-5 0,4.2"/>
<path class="Note" transform="matrix(0.992,0,0,0.992,1890.81,1117.8)" d="M0,4.2 C0,8.5 3.1,13.3 11.2,13.3 C21.6,13.3 32.5,4.8 32.5,-4 C32.5,-9.9 27.5,-13.2 21.3,-13.2 C11.6,-13.2 0,-5 0,4.2"/>
<path class="Note" transform="matrix(0.992,0,0,0.992,1115.09,708.598)" d="M0,4.2 C0,8.5 3.1,13.3 11.2,13.3 C21.6,13.3 32.5,4.8 32.5,-4 C32.5,-9.9 27.5,-13.2 21.3,-13.2 C11.6,-13.2 0,-5 0,4.2"/>
<path class="Note" transform="matrix(0.992,0,0,0.992,2638.79,745.798)" d="M0,4.2 C0,8.5 3.1,13.3 11.2,13.3 C21.6,13.3 32.5,4.8 32.5,-4 C32.5,-9.9 27.5,-13.2 21.3,-13.2 C11.6,-13.2 0,-5 0,4.2"/>
<path class="Note" transform="matrix(0.992,0,0,0.992,1709.46,1142.6)" d="M0,4.2 C0,8.5 3.1,13.3 11.2,13.3 C21.6,13.3 32.5,4.8 32.5,-4 C32.5,-9.9 27.5,-13.2 21.3,-13.2 C11.6,-13.2 0,-5 0,4.2"/>
<path class="Note" transform="matrix(0.992,0,0,0.992,517.996,733.398)" d="M0,4.2 C0,8.5 3.1,13.3 11.2,13.3 C21.6,13.3 32.5,4.8 32.5,-4 C32.5,-9.9 27.5,-13.2 21.3,-13.2 C11.6,-13.2 0,-5 0,4.2"/>
<path class="Note" transform="matrix(0.992,0,0,0.992,833.628,708.598)" d="M0,4.2 C0,8.5 3.1,13.3 11.2,13.3 C21.6,13.3 32.5,4.8 32.5,-4 C32.5,-9.9 27.5,-13.2 21.3,-13.2 C11.6,-13.2 0,-5 0,4.2"/>
<path class="Note" transform="matrix(0.992,0,0,0.992,396.645,708.598)" d="M0,4.2 C0,8.5 3.1,13.3 11.2,13.3 C21.6,13.3 32.5,4.8 32.5,-4 C32.5,-9.9 27.5,-13.2 21.3,-13.2 C11.6,-13.2 0,-5 0,4.2"/>
<path class="Note" transform="matrix(0.992,0,0,0.992,882.463,1179.8)" d="M0,4.2 C0,8.5 3.1,13.3 11.2,13.3 C21.6,13.3 32.5,4.8 32.5,-4 C32.5,-9.9 27.5,-13.2 21.3,-13.2 C11.6,-13.2 0,-5 0,4.2"/>
<path class="Note" transform="matrix(0.992,0,0,0.992,1438.69,708.598)" d="M0,4.2 C0,8.5 3.1,13.3 11.2,13.3 C21.6,13.3 32.5,4.8 32.5,-4 C32.5,-9.9 27.5,-13.2 21.3,-13.2 C11.6,-13.2 0,-5 0,4.2"/>
<path class="Note" transform="matrix(0.992,0,0,0.992,1879.89,708.598)" d="M0,4.2 C0,8.5 3.1,13.3 11.2,13.3 C21.6,13.3 32.5,4.8 32.5,-4 C32.5,-9.9 27.5,-13.2 21.3,-13.2 C11.6,-13.2 0,-5 0,4.2"/>
<path class="Note" transform="matrix(0.992,0,0,0.992,1195.99,658.998)" d="M0,4.2 C0,8.5 3.1,13.3 11.2,13.3 C21.6,13.3 32.5,4.8 32.5,-4 C32.5,-9.9 27.5,-13.2 21.3,-13.2 C11.6,-13.2 0,-5 0,4.2"/>
<path class="Note" transform="matrix(0.992,0,0,0.992,357.911,1229.4)" d="M0,4.2 C0,8.5 3.1,13.3 11.2,13.3 C21.6,13.3 32.5,4.8 32.5,-4 C32.5,-9.9 27.5,-13.2 21.3,-13.2 C11.6,-13.2 0,-5 0,4.2"/>
<path class="Note" transform="matrix(0.992,0,0,0.992,1718.09,671.398)" d="M0,4.2 C0,8.5 3.1,13.3 11.2,13.3 C21.6,13.3 32.5,4.8 32.5,-4 C32.5,-9.9 27.5,-13.2 21.3,-13.2 C11.6,-13.2 0,-5 0,4.2"/>
<path class="Note" transform="matrix(0.992,0,0,0.992,1798.99,696.198)" d="M0,4.2 C0,8.5 3.1,13.3 11.2,13.3 C21.6,13.3 32.5,4.8 32.5,-4 C32.5,-9.9 27.5,-13.2 21.3,-13.2 C11.6,-13.2 0,-5 0,4.2"/>
<path class="Note" transform="matrix(0.992,0,0,0.992,500.971,1204.6)" d="M0,4.2 C0,8.5 3.1,13.3 11.2,13.3 C21.6,13.3 32.5,4.8 32.5,-4 C32.5,-9.9 27.5,-13.2 21.3,-13.2 C11.6,-13.2 0,-5 0,4.2"/>
<path class="Note" transform="matrix(0.992,0,0,0.992,1276.89,671.398)" d="M0,4.2 C0,8.5 3.1,13.3 11.2,13.3 C21.6,13.3 32.5,4.8 32.5,-4 C32.5,-9.9 27.5,-13.2 21.3,-13.2 C11.6,-13.2 0,-5 0,4.2"/>
<path class="Note" transform="matrix(0.992,0,0,0.992,1577.38,1179.8)" d="M0,4.2 C0,8.5 3.1,13.3 11.2,13.3 C21.6,13.3 32.5,4.8 32.5,-4 C32.5,-9.9 27.5,-13.2 21.3,-13.2 C11.6,-13.2 0,-5 0,4.2"/>
<path class="Note" transform="matrix(0.992,0,0,0.992,644.03,1179.8)" d="M0,4.2 C0,8.5 3.1,13.3 11.2,13.3 C21.6,13.3 32.5,4.8 32.5,-4 C32.5,-9.9 27.5,-13.2 21.3,-13.2 C11.6,-13.2 0,-5 0,4.2"/>
<path class="Note" transform="matrix(0.992,0,0,0.992,1396.03,1179.8)" d="M0,4.2 C0,8.5 3.1,13.3 11.2,13.3 C21.6,13.3 32.5,4.8 32.5,-4 C32.5,-9.9 27.5,-13.2 21.3,-13.2 C11.6,-13.2 0,-5 0,4.2"/>
<path class="Note" transform="matrix(0.992,0,0,0.992,1205.29,1167.4)" d="M0,4.2 C0,8.5 3.1,13.3 11.2,13.3 C21.6,13.3 32.5,4.8 32.5,-4 C32.5,-9.9 27.5,-13.2 21.3,-13.2 C11.6,-13.2 0,-5 0,4.2"/>
<path class="Clef" transform="matrix(0.992,0,0,0.992,232.438,1179.8)" d="M12.3,51.3 C12.3,57.9 17.3,66.6 30.8,66.6 C35.5,66.6 39.6,65.4 43.2,63.2 C48.6,59.4 50,52.8 50,46.5 C50,42.6 49.4,38.1 48.4,32.4 C48.1,30.4 47.5,27.4 46.9,23.5 C56.7,20.3 64,10.1 64,-0.2 C64,-15.3 53.3,-25.5 38.7,-25.5 C37.7,-31.5 36.7,-37.4 35.9,-43 C46.4,-54.1 53.7,-66.6 53.7,-82.5 C53.7,-91.6 50.9,-99 49.3,-102.6 C46.9,-107.7 44,-111.2 42.2,-111.2 C41.5,-111.2 38.4,-110 35.1,-106.1 C28.7,-98.5 26.9,-85.7 26.9,-77.3 C26.9,-71.9 27.4,-67 29.1,-55.8 C29,-55.7 23.8,-50.4 21.7,-48.7 C12.6,-40.3 0,-28.1 0,-8.1 C0,10.6 16.3,25.3 34.9,25.3 C37.8,25.3 40.5,25 42.8,24.6 C44.7,34.2 45.9,41.2 45.9,46.5 C45.9,56.9 40.5,62.4 30.4,62.4 C28,62.4 25.9,61.9 25.7,61.9 C25.6,61.8 25.4,61.7 25.4,61.6 C25.4,61.4 25.6,61.3 25.9,61.3 C30.6,60.5 35.3,56.5 35.3,50.1 C35.3,44.7 31.2,39 23.7,39 C16.7,39 12.3,44.7 12.3,51.3 M33.2,-82.2 C34.1,-86.2 38.7,-96.7 43.9,-96.7 C45.4,-96.7 47.8,-91.9 47.8,-84.9 C47.8,-74.5 40.1,-66.7 33.2,-59.9 C32.6,-63.9 32.1,-67.8 32.1,-72 C32.1,-75.7 32.4,-79.1 33.2,-82.2 M42,20.6 C40,21 38.1,21.2 36.2,21.2 C21.9,21.2 9.7,11.2 9.7,-3.9 C9.7,-16.1 18.3,-27 27.1,-34.6 C28.8,-36.1 30.4,-37.5 31.9,-39 C32.8,-33.6 33.5,-28.9 34.2,-24.8 C25.1,-22.1 18.9,-12.5 18.9,-3.1 C18.9,3.9 24.4,13.5 32.4,13.5 C33.2,13.5 34.1,13.1 34.1,12.2 C34.1,11.3 33.1,10.8 31.9,10 C28,7.6 25.8,5 25.8,0.1 C25.8,-6 30.4,-10.9 36.2,-12.3 L42,20.6 M56.2,2.1 C56.2,9.2 53.3,16.5 46.2,19.4 C44.1,7.4 41.4,-8.5 40.7,-12.9 C49.7,-12.9 56.2,-6.8 56.2,2.1"/>
<path class="Clef" transform="matrix(0.992,0,0,0.992,232.438,708.598)" d="M12.3,51.3 C12.3,57.9 17.3,66.6 30.8,66.6 C35.5,66.6 39.6,65.4 43.2,63.2 C48.6,59.4 50,52.8 50,46.5 C50,42.6 49.4,38.1 48.4,32.4 C48.1,30.4 47.5,27.4 46.9,23.5 C56.7,20.3 64,10.1 64,-0.2 C64,-15.3 53.3,-25.5 38.7,-25.5 C37.7,-31.5 36.7,-37.4 35.9,-43 C46.4,-54.1 53.7,-66.6 53.7,-82.5 C53.7,-91.6 50.9,-99 49.3,-102.6 C46.9,-107.7 44,-111.2 42.2,-111.2 C41.5,-111.2 38.4,-110 35.1,-106.1 C28.7,-98.5 26.9,-85.7 26.9,-77.3 C26.9,-71.9 27.4,-67 29.1,-55.8 C29,-55.7 23.8,-50.4 21.7,-48.7 C12.6,-40.3 0,-28.1 0,-8.1 C0,10.6 16.3,25.3 34.9,25.3 C37.8,25.3 40.5,25 42.8,24.6 C44.7,34.2 45.9,41.2 45.9,46.5 C45.9,56.9 40.5,62.4 30.4,62.4 C28,62.4 25.9,61.9 25.7,61.9 C25.6,61.8 25.4,61.7 25.4,61.6 C25.4,61.4 25.6,61.3 25.9,61.3 C30.6,60.5 35.3,56.5 35.3,50.1 C35.3,44.7 31.2,39 23.7,39 C16.7,39 12.3,44.7 12.3,51.3 M33.2,-82.2 C34.1,-86.2 38.7,-96.7 43.9,-96.7 C45.4,-96.7 47.8,-91.9 47.8,-84.9 C47.8,-74.5 40.1,-66.7 33.2,-59.9 C32.6,-63.9 32.1,-67.8 32.1,-72 C32.1,-75.7 32.4,-79.1 33.2,-82.2 M42,20.6 C40,21 38.1,21.2 36.2,21.2 C21.9,21.2 9.7,11.2 9.7,-3.9 C9.7,-16.1 18.3,-27 27.1,-34.6 C28.8,-36.1 30.4,-37.5 31.9,-39 C32.8,-33.6 33.5,-28.9 34.2,-24.8 C25.1,-22.1 18.9,-12.5 18.9,-3.1 C18.9,3.9 24.4,13.5 32.4,13.5 C33.2,13.5 34.1,13.1 34.1,12.2 C34.1,11.3 33.1,10.8 31.9,10 C28,7.6 25.8,5 25.8,0.1 C25.8,-6 30.4,-10.9 36.2,-12.3 L42,20.6 M56.2,2.1 C56.2,9.2 53.3,16.5 46.2,19.4 C44.1,7.4 41.4,-8.5 40.7,-12.9 C49.7,-12.9 56.2,-6.8 56.2,2.1"/>
<path class="TimeSig" transform="matrix(0.992,0,0,0.992,319.331,658.998)" d="M20.8,12.7 L20.8,20.1 L12.5,20.1 C11.8,20.1 11.1,20.7 11.1,21.5 L11.1,23.4 C11.1,24.2 11.8,24.8 12.5,24.8 L42.8,24.8 C43.6,24.8 44.2,24.2 44.2,23.4 L44.2,21.5 C44.2,20.7 43.6,20.1 42.8,20.1 L33.9,20.1 L33.9,12.7 L42.8,12.7 C43.6,12.7 44.2,12 44.2,11.2 L44.2,9.3 C44.2,8.6 43.6,7.9 42.8,7.9 L33.9,7.9 L33.9,-8 C33.9,-8.6 33.6,-9.1 33.1,-9.3 L31.9,-9.9 C31.7,-10 31.4,-10.1 31.2,-10.1 C30.9,-10 30.5,-9.9 30.3,-9.7 L21.2,-1.4 C20.9,-1.1 20.8,-0.7 20.8,-0.3 L20.8,7.9 L9.3,7.9 C9.3,7.9 20.4,-4.1 32.2,-19.9 C32.6,-20.4 32.7,-20.9 32.7,-21.3 C32.7,-21.8 32.5,-22.2 32.4,-22.3 L30.2,-24.5 C30,-24.7 29.6,-24.9 29.2,-24.9 C28.6,-24.9 15.1,-24.9 14.4,-24.9 C13.6,-24.9 13.1,-24.3 13,-23.7 C13,-23.7 12.5,-16.3 9.9,-8.2 C7.3,-0.1 4.3,4.9 1.7,8.6 C1.7,8.6 1.4,9.1 1.4,9.7 C1.4,9.9 1.4,10.1 1.5,10.3 C1.9,11 2.5,12.1 2.5,12.1 C2.5,12.1 2.7,12.7 3.6,12.7 L20.8,12.7 "/>
<path class="TimeSig" transform="matrix(0.992,0,0,0.992,319.331,708.598)" d="M20.8,12.7 L20.8,20.1 L12.5,20.1 C11.8,20.1 11.1,20.7 11.1,21.5 L11.1,23.4 C11.1,24.2 11.8,24.8 12.5,24.8 L42.8,24.8 C43.6,24.8 44.2,24.2 44.2,23.4 L44.2,21.5 C44.2,20.7 43.6,20.1 42.8,20.1 L33.9,20.1 L33.9,12.7 L42.8,12.7 C43.6,12.7 44.2,12 44.2,11.2 L44.2,9.3 C44.2,8.6 43.6,7.9 42.8,7.9 L33.9,7.9 L33.9,-8 C33.9,-8.6 33.6,-9.1 33.1,-9.3 L31.9,-9.9 C31.7,-10 31.4,-10.1 31.2,-10.1 C30.9,-10 30.5,-9.9 30.3,-9.7 L21.2,-1.4 C20.9,-1.1 20.8,-0.7 20.8,-0.3 L20.8,7.9 L9.3,7.9 C9.3,7.9 20.4,-4.1 32.2,-19.9 C32.6,-20.4 32.7,-20.9 32.7,-21.3 C32.7,-21.8 32.5,-22.2 32.4,-22.3 L30.2,-24.5 C30,-24.7 29.6,-24.9 29.2,-24.9 C28.6,-24.9 15.1,-24.9 14.4,-24.9 C13.6,-24.9 13.1,-24.3 13,-23.7 C13,-23.7 12.5,-16.3 9.9,-8.2 C7.3,-0.1 4.3,4.9 1.7,8.6 C1.7,8.6 1.4,9.1 1.4,9.7 C1.4,9.9 1.4,10.1 1.5,10.3 C1.9,11 2.5,12.1 2.5,12.1 C2.5,12.1 2.7,12.7 3.6,12.7 L20.8,12.7 "/>
<path class="Rest" transform="matrix(0.992,0,0,0.992,2523.6,1155)" d="M0,-1 C0,0.4 0,0.4 1.4,0.4 L31.1,0.4 C32.5,0.4 32.5,0.4 32.5,-1 L32.5,-11.8 C32.5,-13.2 32.5,-13.2 31.1,-13.2 L1.4,-13.2 C0,-13.2 0,-13.2 0,-11.8 L0,-1 "/>
<path class="Beam" fill-rule="evenodd" d="M1747.59,596.931 L1831.22,609.331 L1831.22,621.866 L1747.59,609.466 L1747.59,596.931 "/>
<path class="Beam" fill-rule="evenodd" d="M816.586,1099.2 L914.687,1099.2 L914.687,1111.6 L816.586,1111.6 L816.586,1099.2 "/>
<path class="Beam" fill-rule="evenodd" d="M1306.39,596.931 L1390.01,609.331 L1390.01,621.866 L1306.39,609.466 L1306.39,596.931 "/>
<path class="Beam" fill-rule="evenodd" d="M547.492,652.781 L631.12,646.581 L631.12,659.015 L547.492,665.215 L547.492,652.781 "/>
<path class="Beam" fill-rule="evenodd" d="M2506.48,652.781 L2590.11,658.981 L2590.11,671.415 L2506.48,665.215 L2506.48,652.781 "/>
<path class="Beam" fill-rule="evenodd" d="M1044.04,1080.59 L1332.88,1068.19 L1332.88,1080.6 L1044.04,1093 L1044.04,1080.59 "/>
<path class="Beam" fill-rule="evenodd" d="M982.785,609.381 L1228.21,590.781 L1228.21,603.216 L982.785,621.816 L982.785,609.381 "/>
<path class="Beam" fill-rule="evenodd" d="M2182.88,621.796 L2428.31,627.996 L2428.31,640.4 L2182.88,634.2 L2182.88,621.796 "/>
<path class="Harmony" d="M1629.47,532.488 L1596.74,532.488 L1596.74,535.073 L1597.73,535.073 C1600.87,535.128 1601.91,535.293 1602.35,535.843 C1602.68,536.338 1602.68,536.448 1602.68,539.253 L1602.68,565.433 C1602.68,568.238 1602.68,568.348 1602.35,568.843 C1601.91,569.393 1600.87,569.613 1597.73,569.613 L1596.74,569.613 L1596.74,572.198 L1615.61,572.198 L1615.61,569.613 L1613.79,569.613 C1610.66,569.613 1609.61,569.393 1609.17,568.843 C1608.84,568.348 1608.84,568.183 1608.84,565.433 L1608.84,552.948 L1609.94,552.948 C1615.61,552.728 1617.64,554.763 1617.86,560.868 L1620.45,560.868 L1620.45,542.828 L1617.86,542.828 C1617.53,548.218 1615.39,550.308 1610.16,550.363 L1608.84,550.363 L1608.84,537.823 C1608.79,535.513 1609.34,535.128 1612.31,535.073 L1614.84,535.073 C1623.86,535.018 1626.11,537.053 1627.82,546.513 L1630.24,546.513 L1629.47,532.488 "/>
<path class="Harmony" d="M2341.69,1003.3 L2339.6,1003.3 L2337.4,1006.55 C2333.38,1003.63 2331.35,1002.86 2327.55,1002.86 C2322.33,1002.86 2317.87,1005.06 2314.19,1009.46 C2310.67,1013.64 2309.02,1018.26 2309.02,1023.93 C2309.02,1035.81 2316.77,1044.22 2327.61,1044.22 C2336.41,1044.22 2342.02,1039.05 2343.28,1029.81 L2340.7,1029.37 C2339.21,1037.57 2335.03,1041.64 2328.27,1041.64 C2320.13,1041.64 2316.28,1036.03 2316.28,1024.15 C2316.28,1017.88 2317.1,1013.75 2318.97,1010.45 C2320.68,1007.37 2324.03,1005.45 2327.61,1005.45 C2331.46,1005.45 2334.87,1007.48 2336.96,1011 C2338,1012.82 2338.77,1014.85 2340.09,1019.2 L2342.51,1019.2 L2341.69,1003.3 "/>
<path class="Harmony" d="M1471.37,532.103 L1469.28,532.103 L1467.08,535.348 C1463.06,532.433 1461.03,531.663 1457.23,531.663 C1452.01,531.663 1447.55,533.863 1443.87,538.263 C1440.35,542.443 1438.7,547.063 1438.7,552.728 C1438.7,564.608 1446.45,573.023 1457.29,573.023 C1466.09,573.023 1471.7,567.853 1472.96,558.613 L1470.38,558.173 C1468.89,566.368 1464.71,570.438 1457.95,570.438 C1449.81,570.438 1445.96,564.828 1445.96,552.948 C1445.96,546.678 1446.78,542.553 1448.65,539.253 C1450.36,536.173 1453.71,534.248 1457.29,534.248 C1461.14,534.248 1464.55,536.283 1466.64,539.803 C1467.68,541.618 1468.45,543.653 1469.77,547.998 L1472.19,547.998 L1471.37,532.103 "/>
<path class="Harmony" d="M1047.27,1003.69 L1014.54,1003.69 L1014.54,1006.27 L1015.53,1006.27 C1018.67,1006.33 1019.71,1006.49 1020.15,1007.04 C1020.48,1007.54 1020.48,1007.65 1020.48,1010.45 L1020.48,1036.63 C1020.48,1039.44 1020.48,1039.55 1020.15,1040.04 C1019.71,1040.59 1018.67,1040.81 1015.53,1040.81 L1014.54,1040.81 L1014.54,1043.4 L1033.41,1043.4 L1033.41,1040.81 L1031.59,1040.81 C1028.46,1040.81 1027.41,1040.59 1026.97,1040.04 C1026.64,1039.55 1026.64,1039.38 1026.64,1036.63 L1026.64,1024.15 L1027.74,1024.15 C1033.41,1023.93 1035.44,1025.96 1035.66,1032.07 L1038.25,1032.07 L1038.25,1014.03 L1035.66,1014.03 C1035.33,1019.42 1033.19,1021.51 1027.96,1021.56 L1026.64,1021.56 L1026.64,1009.02 C1026.59,1006.71 1027.14,1006.33 1030.11,1006.27 L1032.64,1006.27 C1041.66,1006.22 1043.91,1008.25 1045.62,1017.71 L1048.04,1017.71 L1047.27,1003.69 "/>
<path class="Harmony" d="M819.766,1003.3 L817.676,1003.3 L815.476,1006.55 C811.461,1003.63 809.426,1002.86 805.631,1002.86 C800.406,1002.86 795.951,1005.06 792.266,1009.46 C788.746,1013.64 787.096,1018.26 787.096,1023.93 C787.096,1035.81 794.851,1044.22 805.686,1044.22 C814.486,1044.22 820.096,1039.05 821.361,1029.81 L818.776,1029.37 C817.291,1037.57 813.111,1041.64 806.346,1041.64 C798.206,1041.64 794.356,1036.03 794.356,1024.15 C794.356,1017.88 795.181,1013.75 797.051,1010.45 C798.756,1007.37 802.111,1005.45 805.686,1005.45 C809.536,1005.45 812.946,1007.48 815.036,1011 C816.081,1012.82 816.851,1014.85 818.171,1019.2 L820.591,1019.2 L819.766,1003.3 "/>
<path class="Harmony" d="M2186.84,532.103 L2184.75,532.103 L2182.6,535.403 C2179.03,532.598 2176.61,531.663 2172.59,531.663 C2168.25,531.663 2164.84,532.873 2161.37,535.678 C2155.93,540.078 2153.4,545.633 2153.4,553.058 C2153.4,558.668 2154.99,563.343 2158.24,566.918 C2161.65,570.768 2166.71,573.023 2171.99,573.023 C2176.61,573.023 2179.85,571.593 2183.43,568.018 L2185.46,572.968 L2187.77,572.968 L2187.77,560.868 C2187.77,558.063 2187.77,557.953 2188.1,557.458 C2188.6,556.853 2189.59,556.688 2192.72,556.688 L2193.55,556.688 L2193.55,554.103 L2176.06,554.103 L2176.06,556.688 L2177.1,556.688 C2181.72,556.688 2182.11,556.963 2182.11,560.043 C2182.11,562.408 2181.72,564.553 2181.01,565.873 C2179.63,568.568 2176.11,570.438 2172.54,570.438 C2168.96,570.438 2165.44,568.623 2163.57,565.873 C2161.54,562.793 2160.66,558.943 2160.66,553.058 C2160.66,540.793 2164.73,534.248 2172.37,534.248 C2178.64,534.248 2182.99,538.758 2185.24,547.558 L2187.61,547.558 L2186.84,532.103 "/>
<path class="Harmony" d="M2199.57,546.788 L2201.99,547.173 L2202.98,542.828 C2203.8,539.198 2204.19,538.648 2205.78,538.648 C2206.06,538.648 2206.5,538.648 2206.99,538.703 C2213.76,539.033 2213.76,539.033 2216.29,539.033 C2217,539.033 2218.27,539.033 2219.81,538.978 L2216.07,546.513 C2212,554.598 2211.5,555.588 2210.13,558.998 C2208.42,563.123 2207.54,566.588 2207.54,568.898 C2207.54,571.428 2208.86,572.968 2211.01,572.968 C2213.65,572.968 2214.69,571.208 2214.64,566.423 C2214.36,558.503 2215.35,554.653 2221.24,541.783 C2222.23,539.638 2223.27,537.438 2224.26,535.293 L2224.26,533.698 C2220.96,533.973 2219.2,534.083 2215.79,534.083 C2211.01,534.083 2207.21,533.918 2201.27,533.478 L2199.57,546.788 "/>
<path class="Harmony" d="M1428.71,1003.3 L1426.62,1003.3 L1424.42,1006.55 C1420.4,1003.63 1418.37,1002.86 1414.57,1002.86 C1409.35,1002.86 1404.89,1005.06 1401.21,1009.46 C1397.69,1013.64 1396.04,1018.26 1396.04,1023.93 C1396.04,1035.81 1403.79,1044.22 1414.63,1044.22 C1423.43,1044.22 1429.04,1039.05 1430.3,1029.81 L1427.72,1029.37 C1426.23,1037.57 1422.05,1041.64 1415.29,1041.64 C1407.15,1041.64 1403.3,1036.03 1403.3,1024.15 C1403.3,1017.88 1404.12,1013.75 1405.99,1010.45 C1407.7,1007.37 1411.05,1005.45 1414.63,1005.45 C1418.48,1005.45 1421.89,1007.48 1423.98,1011 C1425.02,1012.82 1425.79,1014.85 1427.11,1019.2 L1429.53,1019.2 L1428.71,1003.3 "/>
<path class="Harmony" d="M1549.61,1003.3 L1547.52,1003.3 L1545.32,1006.55 C1541.31,1003.63 1539.27,1002.86 1535.48,1002.86 C1530.25,1002.86 1525.8,1005.06 1522.11,1009.46 C1518.59,1013.64 1516.94,1018.26 1516.94,1023.93 C1516.94,1035.81 1524.7,1044.22 1535.53,1044.22 C1544.33,1044.22 1549.94,1039.05 1551.21,1029.81 L1548.62,1029.37 C1547.14,1037.57 1542.96,1041.64 1536.19,1041.64 C1528.05,1041.64 1524.2,1036.03 1524.2,1024.15 C1524.2,1017.88 1525.03,1013.75 1526.9,1010.45 C1528.6,1007.37 1531.96,1005.45 1535.53,1005.45 C1539.38,1005.45 1542.79,1007.48 1544.88,1011 C1545.93,1012.82 1546.7,1014.85 1548.02,1019.2 L1550.44,1019.2 L1549.61,1003.3 "/>
<path class="Harmony" d="M1309.62,532.488 L1276.89,532.488 L1276.89,535.073 L1277.88,535.073 C1281.02,535.128 1282.06,535.293 1282.5,535.843 C1282.83,536.338 1282.83,536.448 1282.83,539.253 L1282.83,565.433 C1282.83,568.238 1282.83,568.348 1282.5,568.843 C1282.06,569.393 1281.02,569.613 1277.88,569.613 L1276.89,569.613 L1276.89,572.198 L1295.76,572.198 L1295.76,569.613 L1293.94,569.613 C1290.81,569.613 1289.76,569.393 1289.32,568.843 C1288.99,568.348 1288.99,568.183 1288.99,565.433 L1288.99,552.948 L1290.09,552.948 C1295.76,552.728 1297.79,554.763 1298.01,560.868 L1300.6,560.868 L1300.6,542.828 L1298.01,542.828 C1297.68,548.218 1295.54,550.308 1290.31,550.363 L1288.99,550.363 L1288.99,537.823 C1288.94,535.513 1289.49,535.128 1292.46,535.073 L1294.99,535.073 C1304.01,535.018 1306.26,537.053 1307.97,546.513 L1310.39,546.513 L1309.62,532.488 "/>
<path class="Harmony" d="M676.706,1003.3 L674.616,1003.3 L672.416,1006.55 C668.401,1003.63 666.366,1002.86 662.571,1002.86 C657.346,1002.86 652.891,1005.06 649.206,1009.46 C645.686,1013.64 644.036,1018.26 644.036,1023.93 C644.036,1035.81 651.791,1044.22 662.626,1044.22 C671.426,1044.22 677.036,1039.05 678.301,1029.81 L675.716,1029.37 C674.231,1037.57 670.051,1041.64 663.286,1041.64 C655.146,1041.64 651.296,1036.03 651.296,1024.15 C651.296,1017.88 652.121,1013.75 653.991,1010.45 C655.696,1007.37 659.051,1005.45 662.626,1005.45 C666.476,1005.45 669.886,1007.48 671.976,1011 C673.021,1012.82 673.791,1014.85 675.111,1019.2 L677.531,1019.2 L676.706,1003.3 "/>
<path class="Harmony" d="M1750.82,532.488 L1718.09,532.488 L1718.09,535.073 L1719.08,535.073 C1722.22,535.128 1723.26,535.293 1723.7,535.843 C1724.03,536.338 1724.03,536.448 1724.03,539.253 L1724.03,565.433 C1724.03,568.238 1724.03,568.348 1723.7,568.843 C1723.26,569.393 1722.22,569.613 1719.08,569.613 L1718.09,569.613 L1718.09,572.198 L1736.96,572.198 L1736.96,569.613 L1735.14,569.613 C1732.01,569.613 1730.96,569.393 1730.52,568.843 C1730.19,568.348 1730.19,568.183 1730.19,565.433 L1730.19,552.948 L1731.29,552.948 C1736.96,552.728 1738.99,554.763 1739.21,560.868 L1741.8,560.868 L1741.8,542.828 L1739.21,542.828 C1738.88,548.218 1736.74,550.308 1731.51,550.363 L1730.19,550.363 L1730.19,537.823 C1730.14,535.513 1730.69,535.128 1733.66,535.073 L1736.19,535.073 C1745.21,535.018 1747.46,537.053 1749.17,546.513 L1751.59,546.513 L1750.82,532.488 "/>
<path class="Harmony" d="M533.647,1003.3 L531.557,1003.3 L529.357,1006.55 C525.342,1003.63 523.307,1002.86 519.512,1002.86 C514.287,1002.86 509.832,1005.06 506.147,1009.46 C502.627,1013.64 500.977,1018.26 500.977,1023.93 C500.977,1035.81 508.732,1044.22 519.567,1044.22 C528.367,1044.22 533.977,1039.05 535.242,1029.81 L532.657,1029.37 C531.172,1037.57 526.992,1041.64 520.227,1041.64 C512.087,1041.64 508.237,1036.03 508.237,1024.15 C508.237,1017.88 509.062,1013.75 510.932,1010.45 C512.637,1007.37 515.992,1005.45 519.567,1005.45 C523.417,1005.45 526.827,1007.48 528.917,1011 C529.962,1012.82 530.732,1014.85 532.052,1019.2 L534.472,1019.2 L533.647,1003.3 "/>
<path class="Harmony" d="M390.587,1003.3 L388.497,1003.3 L386.297,1006.55 C382.282,1003.63 380.247,1002.86 376.452,1002.86 C371.227,1002.86 366.772,1005.06 363.087,1009.46 C359.567,1013.64 357.917,1018.26 357.917,1023.93 C357.917,1035.81 365.672,1044.22 376.507,1044.22 C385.307,1044.22 390.917,1039.05 392.182,1029.81 L389.597,1029.37 C388.112,1037.57 383.932,1041.64 377.167,1041.64 C369.027,1041.64 365.177,1036.03 365.177,1024.15 C365.177,1017.88 366.002,1013.75 367.872,1010.45 C369.577,1007.37 372.932,1005.45 376.507,1005.45 C380.357,1005.45 383.767,1007.48 385.857,1011 C386.902,1012.82 387.672,1014.85 388.992,1019.2 L391.412,1019.2 L390.587,1003.3 "/>
<path class="Harmony" d="M429.322,532.103 L427.232,532.103 L425.032,535.348 C421.017,532.433 418.982,531.663 415.187,531.663 C409.962,531.663 405.507,533.863 401.822,538.263 C398.302,542.443 396.652,547.063 396.652,552.728 C396.652,564.608 404.407,573.023 415.242,573.023 C424.042,573.023 429.652,567.853 430.917,558.613 L428.332,558.173 C426.847,566.368 422.667,570.438 415.902,570.438 C407.762,570.438 403.912,564.828 403.912,552.948 C403.912,546.678 404.737,542.553 406.607,539.253 C408.312,536.173 411.667,534.248 415.242,534.248 C419.092,534.248 422.502,536.283 424.592,539.803 C425.637,541.618 426.407,543.653 427.727,547.998 L430.147,547.998 L429.322,532.103 "/>
<path class="Harmony" d="M2672.24,532.103 L2670.15,532.103 L2668.01,535.403 C2664.43,532.598 2662.01,531.663 2658,531.663 C2653.65,531.663 2650.24,532.873 2646.78,535.678 C2641.33,540.078 2638.8,545.633 2638.8,553.058 C2638.8,558.668 2640.4,563.343 2643.64,566.918 C2647.05,570.768 2652.11,573.023 2657.39,573.023 C2662.01,573.023 2665.26,571.593 2668.83,568.018 L2670.87,572.968 L2673.18,572.968 L2673.18,560.868 C2673.18,558.063 2673.18,557.953 2673.51,557.458 C2674,556.853 2674.99,556.688 2678.13,556.688 L2678.95,556.688 L2678.95,554.103 L2661.46,554.103 L2661.46,556.688 L2662.51,556.688 C2667.13,556.688 2667.51,556.963 2667.51,560.043 C2667.51,562.408 2667.13,564.553 2666.41,565.873 C2665.04,568.568 2661.52,570.438 2657.94,570.438 C2654.37,570.438 2650.85,568.623 2648.98,565.873 C2646.94,562.793 2646.06,558.943 2646.06,553.058 C2646.06,540.793 2650.13,534.248 2657.78,534.248 C2664.05,534.248 2668.39,538.758 2670.65,547.558 L2673.01,547.558 L2672.24,532.103 "/>
<path class="Harmony" d="M2684.97,546.788 L2687.39,547.173 L2688.38,542.828 C2689.2,539.198 2689.59,538.648 2691.18,538.648 C2691.46,538.648 2691.9,538.648 2692.39,538.703 C2699.16,539.033 2699.16,539.033 2701.69,539.033 C2702.4,539.033 2703.67,539.033 2705.21,538.978 L2701.47,546.513 C2697.4,554.598 2696.9,555.588 2695.53,558.998 C2693.82,563.123 2692.94,566.588 2692.94,568.898 C2692.94,571.428 2694.26,572.968 2696.41,572.968 C2699.05,572.968 2700.09,571.208 2700.04,566.423 C2699.76,558.503 2700.75,554.653 2706.64,541.783 C2707.63,539.638 2708.67,537.438 2709.66,535.293 L2709.66,533.698 C2706.36,533.973 2704.6,534.083 2701.19,534.083 C2696.41,534.083 2692.61,533.918 2686.67,533.478 L2684.97,546.788 "/>
<path class="Harmony" d="M2663.57,1003.3 L2661.48,1003.3 L2659.28,1006.55 C2655.27,1003.63 2653.23,1002.86 2649.44,1002.86 C2644.21,1002.86 2639.76,1005.06 2636.07,1009.46 C2632.55,1013.64 2630.9,1018.26 2630.9,1023.93 C2630.9,1035.81 2638.66,1044.22 2649.49,1044.22 C2658.29,1044.22 2663.9,1039.05 2665.17,1029.81 L2662.58,1029.37 C2661.1,1037.57 2656.92,1041.64 2650.15,1041.64 C2642.01,1041.64 2638.16,1036.03 2638.16,1024.15 C2638.16,1017.88 2638.99,1013.75 2640.86,1010.45 C2642.56,1007.37 2645.92,1005.45 2649.49,1005.45 C2653.34,1005.45 2656.75,1007.48 2658.84,1011 C2659.89,1012.82 2660.66,1014.85 2661.98,1019.2 L2664.4,1019.2 L2663.57,1003.3 "/>
<path class="Harmony" d="M1742.19,1003.69 L1709.46,1003.69 L1709.46,1006.27 L1710.45,1006.27 C1713.59,1006.33 1714.63,1006.49 1715.07,1007.04 C1715.4,1007.54 1715.4,1007.65 1715.4,1010.45 L1715.4,1036.63 C1715.4,1039.44 1715.4,1039.55 1715.07,1040.04 C1714.63,1040.59 1713.59,1040.81 1710.45,1040.81 L1709.46,1040.81 L1709.46,1043.4 L1728.33,1043.4 L1728.33,1040.81 L1726.51,1040.81 C1723.38,1040.81 1722.33,1040.59 1721.89,1040.04 C1721.56,1039.55 1721.56,1039.38 1721.56,1036.63 L1721.56,1024.15 L1722.66,1024.15 C1728.33,1023.93 1730.36,1025.96 1730.58,1032.07 L1733.17,1032.07 L1733.17,1014.03 L1730.58,1014.03 C1730.25,1019.42 1728.11,1021.51 1722.88,1021.56 L1721.56,1021.56 L1721.56,1009.02 C1721.51,1006.71 1722.06,1006.33 1725.03,1006.27 L1727.56,1006.27 C1736.58,1006.22 1738.83,1008.25 1740.54,1017.71 L1742.96,1017.71 L1742.19,1003.69 "/>
<path class="Harmony" d="M1863.09,1003.69 L1830.36,1003.69 L1830.36,1006.27 L1831.35,1006.27 C1834.49,1006.33 1835.53,1006.49 1835.97,1007.04 C1836.3,1007.54 1836.3,1007.65 1836.3,1010.45 L1836.3,1036.63 C1836.3,1039.44 1836.3,1039.55 1835.97,1040.04 C1835.53,1040.59 1834.49,1040.81 1831.35,1040.81 L1830.36,1040.81 L1830.36,1043.4 L1849.23,1043.4 L1849.23,1040.81 L1847.41,1040.81 C1844.28,1040.81 1843.23,1040.59 1842.79,1040.04 C1842.46,1039.55 1842.46,1039.38 1842.46,1036.63 L1842.46,1024.15 L1843.56,1024.15 C1849.23,1023.93 1851.26,1025.96 1851.48,1032.07 L1854.07,1032.07 L1854.07,1014.03 L1851.48,1014.03 C1851.15,1019.42 1849.01,1021.51 1843.78,1021.56 L1842.46,1021.56 L1842.46,1009.02 C1842.41,1006.71 1842.96,1006.33 1845.93,1006.27 L1848.46,1006.27 C1857.48,1006.22 1859.73,1008.25 1861.44,1017.71 L1863.86,1017.71 L1863.09,1003.69 "/>
<path class="Harmony" d="M1147.76,532.103 L1145.67,532.103 L1143.47,535.348 C1139.46,532.433 1137.42,531.663 1133.63,531.663 C1128.4,531.663 1123.95,533.863 1120.26,538.263 C1116.74,542.443 1115.09,547.063 1115.09,552.728 C1115.09,564.608 1122.85,573.023 1133.68,573.023 C1142.48,573.023 1148.09,567.853 1149.36,558.613 L1146.77,558.173 C1145.29,566.368 1141.11,570.438 1134.34,570.438 C1126.2,570.438 1122.35,564.828 1122.35,552.948 C1122.35,546.678 1123.18,542.553 1125.05,539.253 C1126.75,536.173 1130.11,534.248 1133.68,534.248 C1137.53,534.248 1140.94,536.283 1143.03,539.803 C1144.08,541.618 1144.85,543.653 1146.17,547.998 L1148.59,547.998 L1147.76,532.103 "/>
<path class="Harmony" d="M550.672,532.103 L548.582,532.103 L546.382,535.348 C542.367,532.433 540.332,531.663 536.537,531.663 C531.312,531.663 526.857,533.863 523.172,538.263 C519.652,542.443 518.002,547.063 518.002,552.728 C518.002,564.608 525.757,573.023 536.592,573.023 C545.392,573.023 551.002,567.853 552.267,558.613 L549.682,558.173 C548.197,566.368 544.017,570.438 537.252,570.438 C529.112,570.438 525.262,564.828 525.262,552.948 C525.262,546.678 526.087,542.553 527.957,539.253 C529.662,536.173 533.017,534.248 536.592,534.248 C540.442,534.248 543.852,536.283 545.942,539.803 C546.987,541.618 547.757,543.653 549.077,547.998 L551.497,547.998 L550.672,532.103 "/>
<path class="Harmony" d="M1238.01,1003.69 L1205.29,1003.69 L1205.29,1006.27 L1206.28,1006.27 C1209.41,1006.33 1210.46,1006.49 1210.9,1007.04 C1211.23,1007.54 1211.23,1007.65 1211.23,1010.45 L1211.23,1036.63 C1211.23,1039.44 1211.23,1039.55 1210.9,1040.04 C1210.46,1040.59 1209.41,1040.81 1206.28,1040.81 L1205.29,1040.81 L1205.29,1043.4 L1224.15,1043.4 L1224.15,1040.81 L1222.34,1040.81 C1219.2,1040.81 1218.16,1040.59 1217.72,1040.04 C1217.39,1039.55 1217.39,1039.38 1217.39,1036.63 L1217.39,1024.15 L1218.49,1024.15 C1224.15,1023.93 1226.19,1025.96 1226.41,1032.07 L1228.99,1032.07 L1228.99,1014.03 L1226.41,1014.03 C1226.08,1019.42 1223.93,1021.51 1218.71,1021.56 L1217.39,1021.56 L1217.39,1009.02 C1217.33,1006.71 1217.88,1006.33 1220.85,1006.27 L1223.38,1006.27 C1232.4,1006.22 1234.66,1008.25 1236.36,1017.71 L1238.78,1017.71 L1238.01,1003.69 "/>
<path class="Harmony" d="M1912.57,532.103 L1910.48,532.103 L1908.28,535.348 C1904.27,532.433 1902.23,531.663 1898.44,531.663 C1893.21,531.663 1888.76,533.863 1885.07,538.263 C1881.55,542.443 1879.9,547.063 1879.9,552.728 C1879.9,564.608 1887.66,573.023 1898.49,573.023 C1907.29,573.023 1912.9,567.853 1914.17,558.613 L1911.58,558.173 C1910.1,566.368 1905.92,570.438 1899.15,570.438 C1891.01,570.438 1887.16,564.828 1887.16,552.948 C1887.16,546.678 1887.99,542.553 1889.86,539.253 C1891.56,536.173 1894.92,534.248 1898.49,534.248 C1902.34,534.248 1905.75,536.283 1907.84,539.803 C1908.89,541.618 1909.66,543.653 1910.98,547.998 L1913.4,547.998 L1912.57,532.103 "/>
<path class="Harmony" d="M2015.13,532.103 L2013.04,532.103 L2010.84,535.348 C2006.82,532.433 2004.79,531.663 2000.99,531.663 C1995.77,531.663 1991.31,533.863 1987.63,538.263 C1984.11,542.443 1982.46,547.063 1982.46,552.728 C1982.46,564.608 1990.21,573.023 2001.05,573.023 C2009.85,573.023 2015.46,567.853 2016.72,558.613 L2014.14,558.173 C2012.65,566.368 2008.47,570.438 2001.71,570.438 C1993.57,570.438 1989.72,564.828 1989.72,552.948 C1989.72,546.678 1990.54,542.553 1992.41,539.253 C1994.12,536.173 1997.47,534.248 2001.05,534.248 C2004.9,534.248 2008.31,536.283 2010.4,539.803 C2011.44,541.618 2012.21,543.653 2013.53,547.998 L2015.95,547.998 L2015.13,532.103 "/>
<path class="Harmony" d="M2019.64,1003.3 L2017.55,1003.3 L2015.41,1006.6 C2011.83,1003.8 2009.41,1002.86 2005.4,1002.86 C2001.05,1002.86 1997.64,1004.07 1994.18,1006.88 C1988.73,1011.28 1986.2,1016.83 1986.2,1024.26 C1986.2,1029.87 1987.8,1034.54 1991.04,1038.12 C1994.45,1041.97 1999.51,1044.22 2004.79,1044.22 C2009.41,1044.22 2012.66,1042.79 2016.23,1039.22 L2018.27,1044.17 L2020.58,1044.17 L2020.58,1032.07 C2020.58,1029.26 2020.58,1029.15 2020.91,1028.66 C2021.4,1028.05 2022.39,1027.89 2025.53,1027.89 L2026.35,1027.89 L2026.35,1025.3 L2008.86,1025.3 L2008.86,1027.89 L2009.91,1027.89 C2014.53,1027.89 2014.91,1028.16 2014.91,1031.24 C2014.91,1033.61 2014.53,1035.75 2013.81,1037.07 C2012.44,1039.77 2008.92,1041.64 2005.34,1041.64 C2001.77,1041.64 1998.25,1039.82 1996.38,1037.07 C1994.34,1033.99 1993.46,1030.14 1993.46,1024.26 C1993.46,1011.99 1997.53,1005.45 2005.18,1005.45 C2011.45,1005.45 2015.79,1009.96 2018.05,1018.76 L2020.41,1018.76 L2019.64,1003.3 "/>
<path class="Harmony" d="M2032.37,1017.99 L2034.79,1018.37 L2035.78,1014.03 C2036.61,1010.4 2036.99,1009.85 2038.59,1009.85 C2038.86,1009.85 2039.3,1009.85 2039.8,1009.9 C2046.56,1010.23 2046.56,1010.23 2049.09,1010.23 C2049.81,1010.23 2051.07,1010.23 2052.61,1010.18 L2048.87,1017.71 C2044.8,1025.8 2044.31,1026.79 2042.93,1030.2 C2041.23,1034.32 2040.35,1037.79 2040.35,1040.1 C2040.35,1042.63 2041.67,1044.17 2043.81,1044.17 C2046.45,1044.17 2047.5,1042.41 2047.44,1037.62 C2047.17,1029.7 2048.16,1025.85 2054.04,1012.98 C2055.03,1010.84 2056.08,1008.64 2057.07,1006.49 L2057.07,1004.9 C2053.77,1005.17 2052.01,1005.28 2048.6,1005.28 C2043.81,1005.28 2040.02,1005.12 2034.08,1004.68 L2032.37,1017.99 "/>
<path class="Harmony" d="M986.015,532.488 L953.29,532.488 L953.29,535.073 L954.28,535.073 C957.415,535.128 958.46,535.293 958.9,535.843 C959.23,536.338 959.23,536.448 959.23,539.253 L959.23,565.433 C959.23,568.238 959.23,568.348 958.9,568.843 C958.46,569.393 957.415,569.613 954.28,569.613 L953.29,569.613 L953.29,572.198 L972.155,572.198 L972.155,569.613 L970.34,569.613 C967.205,569.613 966.16,569.393 965.72,568.843 C965.39,568.348 965.39,568.183 965.39,565.433 L965.39,552.948 L966.49,552.948 C972.155,552.728 974.19,554.763 974.41,560.868 L976.995,560.868 L976.995,542.828 L974.41,542.828 C974.08,548.218 971.935,550.308 966.71,550.363 L965.39,550.363 L965.39,537.823 C965.335,535.513 965.885,535.128 968.855,535.073 L971.385,535.073 C980.405,535.018 982.66,537.053 984.365,546.513 L986.785,546.513 L986.015,532.488 "/>
<path class="Harmony" d="M2509.66,532.103 L2507.57,532.103 L2505.37,535.348 C2501.36,532.433 2499.32,531.663 2495.53,531.663 C2490.3,531.663 2485.85,533.863 2482.16,538.263 C2478.64,542.443 2476.99,547.063 2476.99,552.728 C2476.99,564.608 2484.75,573.023 2495.58,573.023 C2504.38,573.023 2509.99,567.853 2511.26,558.613 L2508.67,558.173 C2507.19,566.368 2503.01,570.438 2496.24,570.438 C2488.1,570.438 2484.25,564.828 2484.25,552.948 C2484.25,546.678 2485.08,542.553 2486.95,539.253 C2488.65,536.173 2492.01,534.248 2495.58,534.248 C2499.43,534.248 2502.84,536.283 2504.93,539.803 C2505.98,541.618 2506.75,543.653 2508.07,547.998 L2510.49,547.998 L2509.66,532.103 "/>
<path class="Harmony" d="M2162.7,1003.3 L2160.61,1003.3 L2158.47,1006.6 C2154.89,1003.8 2152.47,1002.86 2148.46,1002.86 C2144.11,1002.86 2140.7,1004.07 2137.24,1006.88 C2131.79,1011.28 2129.26,1016.83 2129.26,1024.26 C2129.26,1029.87 2130.86,1034.54 2134.1,1038.12 C2137.51,1041.97 2142.57,1044.22 2147.85,1044.22 C2152.47,1044.22 2155.72,1042.79 2159.29,1039.22 L2161.33,1044.17 L2163.64,1044.17 L2163.64,1032.07 C2163.64,1029.26 2163.64,1029.15 2163.97,1028.66 C2164.46,1028.05 2165.45,1027.89 2168.59,1027.89 L2169.41,1027.89 L2169.41,1025.3 L2151.92,1025.3 L2151.92,1027.89 L2152.97,1027.89 C2157.59,1027.89 2157.97,1028.16 2157.97,1031.24 C2157.97,1033.61 2157.59,1035.75 2156.87,1037.07 C2155.5,1039.77 2151.98,1041.64 2148.4,1041.64 C2144.83,1041.64 2141.31,1039.82 2139.44,1037.07 C2137.4,1033.99 2136.52,1030.14 2136.52,1024.26 C2136.52,1011.99 2140.59,1005.45 2148.24,1005.45 C2154.51,1005.45 2158.85,1009.96 2161.11,1018.76 L2163.47,1018.76 L2162.7,1003.3 "/>
<path class="Harmony" d="M2175.43,1017.99 L2177.85,1018.37 L2178.84,1014.03 C2179.66,1010.4 2180.05,1009.85 2181.64,1009.85 C2181.92,1009.85 2182.36,1009.85 2182.85,1009.9 C2189.62,1010.23 2189.62,1010.23 2192.15,1010.23 C2192.86,1010.23 2194.13,1010.23 2195.67,1010.18 L2191.93,1017.71 C2187.86,1025.8 2187.36,1026.79 2185.99,1030.2 C2184.28,1034.32 2183.4,1037.79 2183.4,1040.1 C2183.4,1042.63 2184.72,1044.17 2186.87,1044.17 C2189.51,1044.17 2190.55,1042.41 2190.5,1037.62 C2190.22,1029.7 2191.21,1025.85 2197.1,1012.98 C2198.09,1010.84 2199.13,1008.64 2200.12,1006.49 L2200.12,1004.9 C2196.82,1005.17 2195.06,1005.28 2191.65,1005.28 C2186.87,1005.28 2183.07,1005.12 2177.13,1004.68 L2175.43,1017.99 "/>
<path class="Harmony" d="M815.027,532.103 L812.937,532.103 L810.737,535.348 C806.722,532.433 804.687,531.663 800.892,531.663 C795.667,531.663 791.212,533.863 787.527,538.263 C784.007,542.443 782.357,547.063 782.357,552.728 C782.357,564.608 790.112,573.023 800.947,573.023 C809.747,573.023 815.357,567.853 816.622,558.613 L814.037,558.173 C812.552,566.368 808.372,570.438 801.607,570.438 C793.467,570.438 789.617,564.828 789.617,552.948 C789.617,546.678 790.442,542.553 792.312,539.253 C794.017,536.173 797.372,534.248 800.947,534.248 C804.797,534.248 808.207,536.283 810.297,539.803 C811.342,541.618 812.112,543.653 813.432,547.998 L815.852,547.998 L815.027,532.103 "/>
<path class="Harmony" d="M2348.64,532.103 L2346.55,532.103 L2344.4,535.403 C2340.83,532.598 2338.41,531.663 2334.39,531.663 C2330.05,531.663 2326.64,532.873 2323.17,535.678 C2317.73,540.078 2315.2,545.633 2315.2,553.058 C2315.2,558.668 2316.79,563.343 2320.04,566.918 C2323.45,570.768 2328.51,573.023 2333.79,573.023 C2338.41,573.023 2341.65,571.593 2345.23,568.018 L2347.26,572.968 L2349.57,572.968 L2349.57,560.868 C2349.57,558.063 2349.57,557.953 2349.9,557.458 C2350.4,556.853 2351.39,556.688 2354.52,556.688 L2355.35,556.688 L2355.35,554.103 L2337.86,554.103 L2337.86,556.688 L2338.9,556.688 C2343.52,556.688 2343.91,556.963 2343.91,560.043 C2343.91,562.408 2343.52,564.553 2342.81,565.873 C2341.43,568.568 2337.91,570.438 2334.34,570.438 C2330.76,570.438 2327.24,568.623 2325.37,565.873 C2323.34,562.793 2322.46,558.943 2322.46,553.058 C2322.46,540.793 2326.53,534.248 2334.17,534.248 C2340.44,534.248 2344.79,538.758 2347.04,547.558 L2349.41,547.558 L2348.64,532.103 "/>
<path class="Harmony" d="M2361.37,546.788 L2363.79,547.173 L2364.78,542.828 C2365.6,539.198 2365.99,538.648 2367.58,538.648 C2367.86,538.648 2368.3,538.648 2368.79,538.703 C2375.56,539.033 2375.56,539.033 2378.09,539.033 C2378.8,539.033 2380.07,539.033 2381.61,538.978 L2377.87,546.513 C2373.8,554.598 2373.3,555.588 2371.93,558.998 C2370.22,563.123 2369.34,566.588 2369.34,568.898 C2369.34,571.428 2370.66,572.968 2372.81,572.968 C2375.45,572.968 2376.49,571.208 2376.44,566.423 C2376.16,558.503 2377.15,554.653 2383.04,541.783 C2384.03,539.638 2385.07,537.438 2386.06,535.293 L2386.06,533.698 C2382.76,533.973 2381,534.083 2377.59,534.083 C2372.81,534.083 2369.01,533.918 2363.07,533.478 L2361.37,546.788 "/>
<path class="Harmony" d="M2448.98,1003.3 L2446.89,1003.3 L2444.69,1006.55 C2440.68,1003.63 2438.64,1002.86 2434.85,1002.86 C2429.62,1002.86 2425.17,1005.06 2421.48,1009.46 C2417.96,1013.64 2416.31,1018.26 2416.31,1023.93 C2416.31,1035.81 2424.07,1044.22 2434.9,1044.22 C2443.7,1044.22 2449.31,1039.05 2450.58,1029.81 L2447.99,1029.37 C2446.51,1037.57 2442.33,1041.64 2435.56,1041.64 C2427.42,1041.64 2423.57,1036.03 2423.57,1024.15 C2423.57,1017.88 2424.4,1013.75 2426.27,1010.45 C2427.97,1007.37 2431.33,1005.45 2434.9,1005.45 C2438.75,1005.45 2442.16,1007.48 2444.25,1011 C2445.3,1012.82 2446.07,1014.85 2447.39,1019.2 L2449.81,1019.2 L2448.98,1003.3 "/>
<path class="Harmony" d="M2556.28,1003.3 L2554.19,1003.3 L2551.99,1006.55 C2547.97,1003.63 2545.94,1002.86 2542.14,1002.86 C2536.92,1002.86 2532.46,1005.06 2528.78,1009.46 C2525.26,1013.64 2523.61,1018.26 2523.61,1023.93 C2523.61,1035.81 2531.36,1044.22 2542.2,1044.22 C2551,1044.22 2556.61,1039.05 2557.87,1029.81 L2555.29,1029.37 C2553.8,1037.57 2549.62,1041.64 2542.86,1041.64 C2534.72,1041.64 2530.87,1036.03 2530.87,1024.15 C2530.87,1017.88 2531.69,1013.75 2533.56,1010.45 C2535.27,1007.37 2538.62,1005.45 2542.2,1005.45 C2546.05,1005.45 2549.46,1007.48 2551.55,1011 C2552.59,1012.82 2553.36,1014.85 2554.68,1019.2 L2557.1,1019.2 L2556.28,1003.3 "/>
<path class="Harmony" d="M712.472,532.103 L710.382,532.103 L708.182,535.348 C704.167,532.433 702.132,531.663 698.337,531.663 C693.112,531.663 688.657,533.863 684.972,538.263 C681.452,542.443 679.802,547.063 679.802,552.728 C679.802,564.608 687.557,573.023 698.392,573.023 C707.192,573.023 712.802,567.853 714.067,558.613 L711.482,558.173 C709.997,566.368 705.817,570.438 699.052,570.438 C690.912,570.438 687.062,564.828 687.062,552.948 C687.062,546.678 687.887,542.553 689.757,539.253 C691.462,536.173 694.817,534.248 698.392,534.248 C702.242,534.248 705.652,536.283 707.742,539.803 C708.787,541.618 709.557,543.653 710.877,547.998 L713.297,547.998 L712.472,532.103 "/>
<path class="NoteDot" transform="matrix(0.992,0,0,0.992,1924.52,696.198)" d="M0,0 C0,2.8 2.2,5 5,5 C7.8,5 10,2.8 10,0 C10,-2.8 7.8,-5 5,-5 C2.2,-5 0,-2.8 0,0"/>
<path class="NoteDot" transform="matrix(0.992,0,0,0.992,724.42,696.198)" d="M0,0 C0,2.8 2.2,5 5,5 C7.8,5 10,2.8 10,0 C10,-2.8 7.8,-5 5,-5 C2.2,-5 0,-2.8 0,0"/>
<path class="NoteDot" transform="matrix(0.992,0,0,0.992,1754.09,1142.6)" d="M0,0 C0,2.8 2.2,5 5,5 C7.8,5 10,2.8 10,0 C10,-2.8 7.8,-5 5,-5 C2.2,-5 0,-2.8 0,0"/>
<path class="NoteDot" transform="matrix(0.992,0,0,0.992,1440.66,1167.4)" d="M0,0 C0,2.8 2.2,5 5,5 C7.8,5 10,2.8 10,0 C10,-2.8 7.8,-5 5,-5 C2.2,-5 0,-2.8 0,0"/>
</svg>
