<?xml version="1.0" encoding="UTF-8" standalone="no"?>
<svg width="2977.2px" height="4208.4px" viewBox="0 0 2977.2 4208.4"
 xmlns="http://www.w3.org/2000/svg" xmlns:xlink="http://www.w3.org/1999/xlink" version="1.2" baseProfile="tiny">
<title>夢はひそかに</title>
<desc>Generated by MuseScore Studio 4.4.1</desc>
<path class="" fill="#ffffff" fill-rule="evenodd" d="M0,0 L2977.2,0 L2977.2,4208.4 L0,4208.4 L0,0 "/>
<polyline class="StaffLines" fill="none" stroke="#000000" stroke-width="2.73" stroke-linejoin="bevel" points="212.598,634.198 2764.6,634.198"/>
<polyline class="StaffLines" fill="none" stroke="#000000" stroke-width="2.73" stroke-linejoin="bevel" points="212.598,658.998 2764.6,658.998"/>
<polyline class="StaffLines" fill="none" stroke="#000000" stroke-width="2.73" stroke-linejoin="bevel" points="212.598,683.798 2764.6,683.798"/>
<polyline class="StaffLines" fill="none" stroke="#000000" stroke-width="2.73" stroke-linejoin="bevel" points="212.598,708.598 2764.6,708.598"/>
<polyline class="StaffLines" fill="none" stroke="#000000" stroke-width="2.73" stroke-linejoin="bevel" points="212.598,733.398 2764.6,733.398"/>
<polyline class="StaffLines" fill="none" stroke="#000000" stroke-width="2.73" stroke-linejoin="bevel" points="212.598,1105.4 2764.6,1105.4"/>
<polyline class="StaffLines" fill="none" stroke="#000000" stroke-width="2.73" stroke-linejoin="bevel" points="212.598,1130.2 2764.6,1130.2"/>
<polyline class="StaffLines" fill="none" stroke="#000000" stroke-width="2.73" stroke-linejoin="bevel" points="212.598,1155 2764.6,1155"/>
<polyline class="StaffLines" fill="none" stroke="#000000" stroke-width="2.73" stroke-linejoin="bevel" points="212.598,1179.8 2764.6,1179.8"/>
<polyline class="StaffLines" fill="none" stroke="#000000" stroke-width="2.73" stroke-linejoin="bevel" points="212.598,1204.6 2764.6,1204.6"/>
<polyline class="StaffLines" fill="none" stroke="#000000" stroke-width="2.73" stroke-linejoin="bevel" points="212.598,1576.6 2764.6,1576.6"/>
<polyline class="StaffLines" fill="none" stroke="#000000" stroke-width="2.73" stroke-linejoin="bevel" points="212.598,1601.4 2764.6,1601.4"/>
<polyline class="StaffLines" fill="none" stroke="#000000" stroke-width="2.73" stroke-linejoin="bevel" points="212.598,1626.2 2764.6,1626.2"/>
<polyline class="StaffLines" fill="none" stroke="#000000" stroke-width="2.73" stroke-linejoin="bevel" points="212.598,1651 2764.6,1651"/>
<polyline class="StaffLines" fill="none" stroke="#000000" stroke-width="2.73" stroke-linejoin="bevel" points="212.598,1675.8 2764.6,1675.8"/>
<polyline class="StaffLines" fill="none" stroke="#000000" stroke-width="2.73" stroke-linejoin="bevel" points="212.598,2047.8 2764.6,2047.8"/>
<polyline class="StaffLines" fill="none" stroke="#000000" stroke-width="2.73" stroke-linejoin="bevel" points="212.598,2072.6 2764.6,2072.6"/>
<polyline class="StaffLines" fill="none" stroke="#000000" stroke-width="2.73" stroke-linejoin="bevel" points="212.598,2097.4 2764.6,2097.4"/>
<polyline class="StaffLines" fill="none" stroke="#000000" stroke-width="2.73" stroke-linejoin="bevel" points="212.598,2122.2 2764.6,2122.2"/>
<polyline class="StaffLines" fill="none" stroke="#000000" stroke-width="2.73" stroke-linejoin="bevel" points="212.598,2147 2764.6,2147"/>
<path class="Text" d="M828.512,413.284 L855.392,413.284 C862.512,413.284 867.952,412.164 872.192,409.764 C880.272,405.204 884.752,396.084 884.752,384.084 C884.752,373.044 880.752,364.404 873.392,359.604 C868.992,356.804 863.072,355.524 853.952,355.524 L828.512,355.524 L828.512,359.284 L830.032,359.284 C834.512,359.364 836.032,359.604 836.672,360.404 C837.152,361.124 837.152,361.284 837.152,365.364 L837.152,403.444 C837.152,407.524 837.152,407.684 836.672,408.404 C836.032,409.204 834.512,409.444 830.032,409.524 L828.512,409.524 L828.512,413.284 M850.672,409.524 C846.592,409.524 846.112,409.044 846.112,405.124 L846.112,363.764 C846.112,359.844 846.672,359.284 850.672,359.284 L854.832,359.284 C868.512,359.284 874.192,366.724 874.192,384.404 C874.192,402.324 869.072,409.524 856.112,409.524 L850.672,409.524 M904.267,376.004 L890.107,376.884 L890.107,380.324 L893.387,380.324 C896.427,380.404 896.827,380.884 896.827,384.324 L896.827,407.204 C896.747,408.404 896.667,408.884 896.347,409.284 C895.787,410.004 894.187,410.324 890.747,410.404 L890.427,410.404 L890.427,413.284 L911.787,413.284 L911.787,410.404 L910.347,410.404 C904.987,410.244 904.267,409.844 904.267,406.964 L904.267,402.644 C904.347,389.204 909.147,378.964 915.387,378.644 C914.267,379.924 913.947,380.724 913.947,382.244 C913.947,384.804 915.787,386.644 918.347,386.644 C921.307,386.644 923.227,384.484 923.227,381.284 C923.227,377.364 920.507,374.804 916.267,374.804 C911.227,374.804 906.907,378.804 904.267,385.924 L904.267,376.004 M960.658,395.284 C960.738,383.284 953.938,374.804 944.178,374.804 C933.938,374.804 926.258,383.684 926.258,395.684 C926.258,406.964 933.538,414.484 944.338,414.484 C952.018,414.484 957.378,410.724 960.658,403.124 L957.858,401.604 C954.578,407.764 951.218,410.164 945.858,410.164 C941.778,410.164 938.818,408.484 936.738,404.884 C935.298,402.484 934.658,399.684 934.738,395.284 L960.658,395.284 M934.818,391.844 C934.818,386.244 937.378,378.244 944.098,378.244 C948.898,378.244 952.098,382.484 952.098,388.964 C952.098,391.204 951.378,391.844 948.818,391.844 L934.818,391.844 M999.133,387.524 C999.133,382.484 998.253,379.924 995.933,378.004 C993.293,375.844 989.373,374.804 984.253,374.804 C975.213,374.804 968.653,379.044 968.653,384.884 C968.653,387.844 970.493,389.764 973.293,389.764 C975.853,389.764 977.613,388.084 977.613,385.684 C977.613,384.644 977.213,383.524 976.413,382.404 C975.933,381.844 975.853,381.684 975.853,381.284 C975.853,379.684 979.053,378.244 982.893,378.244 C985.453,378.244 988.253,379.044 989.533,380.244 C991.053,381.524 991.613,383.444 991.613,387.044 L991.613,390.164 C983.293,391.604 980.653,392.244 976.733,393.764 C969.773,396.324 966.493,400.004 966.493,405.124 C966.493,410.884 970.973,414.484 978.093,414.484 C983.613,414.484 988.573,412.244 992.013,408.164 C993.293,412.244 995.293,413.844 999.053,413.844 C1002.65,413.844 1006.41,411.524 1006.41,409.204 C1006.41,408.644 1006.09,408.244 1005.61,408.244 C1005.29,408.244 1004.97,408.324 1004.41,408.564 C1003.29,409.044 1002.81,409.124 1002.17,409.124 C999.933,409.124 999.133,407.684 999.133,403.604 L999.133,387.524 M991.613,397.284 C991.613,402.084 991.373,403.204 990.013,405.284 C988.013,408.244 984.413,410.244 980.893,410.244 C977.213,410.244 974.573,407.604 974.573,404.004 C974.573,400.644 976.253,398.244 979.773,396.564 C982.253,395.444 985.373,394.644 991.613,393.604 L991.613,397.284 M1023.52,376.004 L1009.28,376.884 L1009.28,380.324 L1012.56,380.324 C1015.6,380.404 1016,380.884 1016,384.324 L1016,407.204 C1015.92,408.404 1015.84,408.884 1015.52,409.284 C1014.96,410.004 1013.44,410.324 1010,410.404 L1009.68,410.404 L1009.68,413.284 L1029.84,413.284 L1029.84,410.404 L1029.52,410.404 C1024.24,410.244 1023.52,409.844 1023.52,406.884 L1023.52,392.084 C1023.52,384.964 1027.44,379.684 1032.64,379.684 C1037.2,379.684 1039.52,382.964 1039.52,389.444 L1039.52,407.284 C1039.44,408.324 1039.36,408.884 1038.96,409.284 C1038.48,410.004 1036.88,410.324 1033.44,410.404 L1033.12,410.404 L1033.12,413.284 L1053.36,413.284 L1053.36,410.404 L1053.04,410.404 C1047.76,410.244 1047.04,409.844 1047.04,406.964 L1047.04,392.804 C1047.04,384.804 1050.64,379.684 1056.24,379.684 C1060.8,379.684 1063.04,383.124 1063.04,390.324 L1063.04,407.204 C1062.96,408.324 1062.88,408.884 1062.48,409.284 C1062,410.004 1060.4,410.324 1056.96,410.404 L1056.64,410.404 L1056.64,413.284 L1076.88,413.284 L1076.88,410.404 L1076.56,410.404 C1071.28,410.244 1070.56,409.844 1070.56,406.884 L1070.56,388.724 C1070.56,383.764 1070.08,382.084 1068,379.364 C1065.68,376.404 1062.4,374.804 1058.56,374.804 C1053.36,374.804 1049.52,377.284 1046.08,382.804 C1044.72,378.004 1040.4,374.804 1035.04,374.804 C1030.16,374.804 1026.64,377.124 1023.52,382.164 L1023.52,376.004 M1113.51,356.084 C1110.95,356.084 1108.87,358.164 1108.87,360.724 C1108.87,363.284 1110.95,365.364 1113.43,365.364 C1116.07,365.364 1118.15,363.284 1118.15,360.724 C1118.15,358.164 1116.07,356.084 1113.51,356.084 M1117.27,376.004 L1102.23,376.884 L1102.23,380.324 L1106.31,380.324 C1109.35,380.404 1109.75,380.884 1109.75,384.324 L1109.75,407.204 C1109.67,408.404 1109.59,408.884 1109.27,409.284 C1108.71,410.004 1107.19,410.324 1103.75,410.404 L1103.19,410.404 L1103.19,413.284 L1123.91,413.284 L1123.91,410.404 L1123.35,410.404 C1117.99,410.244 1117.27,409.844 1117.27,406.964 L1117.27,376.004 M1157.17,375.124 L1154.37,375.124 L1152.05,378.004 C1149.17,375.764 1146.29,374.804 1142.29,374.804 C1135.25,374.804 1130.61,379.364 1130.61,386.404 C1130.61,393.924 1135.49,395.844 1141.89,397.364 L1146.13,398.324 C1152.45,399.844 1154.69,401.444 1154.69,404.644 C1154.69,408.404 1151.41,411.044 1146.77,411.044 C1139.97,411.044 1135.17,406.724 1133.25,398.724 L1130.05,398.724 L1130.05,413.844 L1132.85,413.844 L1135.65,410.564 C1138.93,413.204 1142.53,414.484 1146.61,414.484 C1154.45,414.484 1159.65,409.604 1159.65,402.164 C1159.65,398.644 1158.53,395.924 1156.29,394.084 C1154.37,392.404 1152.77,391.764 1147.89,390.724 L1143.89,389.844 C1139.49,388.884 1139.49,388.884 1138.05,388.084 C1136.29,387.284 1135.25,385.604 1135.25,383.844 C1135.25,380.564 1138.29,378.324 1142.69,378.324 C1149.25,378.324 1152.45,382.964 1154.37,388.564 L1157.17,388.564 L1157.17,375.124 M1221.4,387.524 C1221.4,382.484 1220.52,379.924 1218.2,378.004 C1215.56,375.844 1211.64,374.804 1206.52,374.804 C1197.48,374.804 1190.92,379.044 1190.92,384.884 C1190.92,387.844 1192.76,389.764 1195.56,389.764 C1198.12,389.764 1199.88,388.084 1199.88,385.684 C1199.88,384.644 1199.48,383.524 1198.68,382.404 C1198.2,381.844 1198.12,381.684 1198.12,381.284 C1198.12,379.684 1201.32,378.244 1205.16,378.244 C1207.72,378.244 1210.52,379.044 1211.8,380.244 C1213.32,381.524 1213.88,383.444 1213.88,387.044 L1213.88,390.164 C1205.56,391.604 1202.92,392.244 1199,393.764 C1192.04,396.324 1188.76,400.004 1188.76,405.124 C1188.76,410.884 1193.24,414.484 1200.36,414.484 C1205.88,414.484 1210.84,412.244 1214.28,408.164 C1215.56,412.244 1217.56,413.844 1221.32,413.844 C1224.92,413.844 1228.68,411.524 1228.68,409.204 C1228.68,408.644 1228.36,408.244 1227.88,408.244 C1227.56,408.244 1227.24,408.324 1226.68,408.564 C1225.56,409.044 1225.08,409.124 1224.44,409.124 C1222.2,409.124 1221.4,407.684 1221.4,403.604 L1221.4,387.524 M1213.88,397.284 C1213.88,402.084 1213.64,403.204 1212.28,405.284 C1210.28,408.244 1206.68,410.244 1203.16,410.244 C1199.48,410.244 1196.84,407.604 1196.84,404.004 C1196.84,400.644 1198.52,398.244 1202.04,396.564 C1204.52,395.444 1207.64,394.644 1213.88,393.604 L1213.88,397.284 M1279.86,398.724 L1268.34,362.884 C1268.1,362.084 1267.94,361.284 1267.94,360.884 C1267.94,359.684 1268.82,359.284 1271.38,359.284 L1274.98,359.284 L1274.98,355.524 L1252.42,355.524 L1252.42,359.284 L1253.94,359.284 C1257.38,359.284 1257.78,359.604 1258.74,362.404 L1276.02,414.484 L1279.46,414.484 L1291.3,374.724 L1304.26,414.484 L1307.54,414.484 L1321.62,367.524 C1323.3,361.364 1325.14,359.444 1329.7,359.284 L1330.02,359.284 L1330.02,355.524 L1310.42,355.524 L1310.42,359.284 L1311.06,359.284 C1315.7,359.284 1317.94,360.644 1317.94,363.444 C1317.94,364.244 1317.78,365.364 1317.46,366.244 L1307.86,398.724 L1296.82,363.684 C1296.26,362.084 1296.26,362.004 1296.26,361.444 C1296.26,360.724 1296.74,360.004 1297.46,359.684 C1298.34,359.364 1298.9,359.284 1302.02,359.284 L1303.3,359.284 L1303.3,355.524 L1280.18,355.524 L1280.18,359.284 L1282.02,359.284 C1285.46,359.364 1286.42,359.844 1287.06,361.764 L1289.14,368.004 L1279.86,398.724 M1342.01,356.084 C1339.45,356.084 1337.37,358.164 1337.37,360.724 C1337.37,363.284 1339.45,365.364 1341.93,365.364 C1344.57,365.364 1346.65,363.284 1346.65,360.724 C1346.65,358.164 1344.57,356.084 1342.01,356.084 M1345.77,376.004 L1330.73,376.884 L1330.73,380.324 L1334.81,380.324 C1337.85,380.404 1338.25,380.884 1338.25,384.324 L1338.25,407.204 C1338.17,408.404 1338.09,408.884 1337.77,409.284 C1337.21,410.004 1335.69,410.324 1332.25,410.404 L1331.69,410.404 L1331.69,413.284 L1352.41,413.284 L1352.41,410.404 L1351.85,410.404 C1346.49,410.244 1345.77,409.844 1345.77,406.964 L1345.77,376.004 M1385.67,375.124 L1382.87,375.124 L1380.55,378.004 C1377.67,375.764 1374.79,374.804 1370.79,374.804 C1363.75,374.804 1359.11,379.364 1359.11,386.404 C1359.11,393.924 1363.99,395.844 1370.39,397.364 L1374.63,398.324 C1380.95,399.844 1383.19,401.444 1383.19,404.644 C1383.19,408.404 1379.91,411.044 1375.27,411.044 C1368.47,411.044 1363.67,406.724 1361.75,398.724 L1358.55,398.724 L1358.55,413.844 L1361.35,413.844 L1364.15,410.564 C1367.43,413.204 1371.03,414.484 1375.11,414.484 C1382.95,414.484 1388.15,409.604 1388.15,402.164 C1388.15,398.644 1387.03,395.924 1384.79,394.084 C1382.87,392.404 1381.27,391.764 1376.39,390.724 L1372.39,389.844 C1367.99,388.884 1367.99,388.884 1366.55,388.084 C1364.79,387.284 1363.75,385.604 1363.75,383.844 C1363.75,380.564 1366.79,378.324 1371.19,378.324 C1377.75,378.324 1380.95,382.964 1382.87,388.564 L1385.67,388.564 L1385.67,375.124 M1407.5,354.324 L1392.7,355.204 L1392.7,358.644 L1396.54,358.644 C1399.58,358.724 1399.98,359.204 1399.98,362.644 L1399.98,407.284 C1399.9,408.404 1399.82,408.884 1399.5,409.284 C1398.94,410.004 1397.42,410.324 1393.98,410.404 L1393.66,410.404 L1393.66,413.284 L1413.9,413.284 L1413.9,410.404 L1413.58,410.404 C1408.22,410.244 1407.5,409.844 1407.5,406.964 L1407.5,395.124 C1407.5,391.204 1408.06,387.604 1408.94,385.764 C1410.7,382.164 1414.22,379.684 1417.66,379.684 C1419.74,379.684 1422.14,380.884 1423.26,382.484 C1424.54,384.244 1425.1,386.644 1425.1,390.564 L1425.1,407.284 C1425.02,408.404 1424.94,408.884 1424.62,409.284 C1424.06,410.004 1422.46,410.324 1419.02,410.404 L1418.7,410.404 L1418.7,413.284 L1438.94,413.284 L1438.94,410.404 L1438.62,410.404 C1433.34,410.244 1432.62,409.844 1432.62,406.964 L1432.62,390.884 C1432.62,385.124 1432.38,383.684 1430.94,380.964 C1428.94,377.044 1424.94,374.804 1420.14,374.804 C1414.94,374.804 1411.1,377.124 1407.5,382.484 L1407.5,354.324 M1493.73,384.724 L1480.29,363.044 C1479.65,362.084 1479.41,361.364 1479.41,360.804 C1479.41,359.764 1480.37,359.284 1482.53,359.284 L1487.25,359.284 L1487.25,355.524 L1461.57,355.524 L1461.57,359.284 L1463.33,359.284 C1466.93,359.364 1467.89,359.844 1469.81,362.964 L1487.09,390.324 L1487.09,403.444 C1487.09,407.524 1487.09,407.684 1486.61,408.404 C1485.97,409.204 1484.45,409.524 1479.89,409.524 L1477.81,409.524 L1477.81,413.284 L1505.25,413.284 L1505.25,409.524 L1503.17,409.524 C1498.61,409.444 1497.17,409.204 1496.53,408.404 C1496.05,407.684 1496.05,407.604 1496.05,403.444 L1496.05,389.364 L1507.97,367.844 C1511.41,361.444 1513.89,359.524 1519.01,359.284 L1519.65,359.284 L1519.65,355.524 L1496.93,355.524 L1496.93,359.284 L1498.77,359.284 C1503.09,359.284 1504.93,360.324 1504.93,362.884 C1504.93,364.084 1504.45,365.684 1503.65,367.044 L1493.73,384.724 M1532.35,374.804 C1522.51,374.804 1514.91,383.524 1514.91,394.724 C1514.91,405.684 1522.59,414.484 1532.19,414.484 C1541.79,414.484 1549.47,405.684 1549.47,394.644 C1549.47,383.684 1541.79,374.804 1532.35,374.804 M1532.35,378.244 C1537.95,378.244 1541.07,384.084 1541.07,394.644 C1541.07,405.284 1537.95,411.044 1532.19,411.044 C1526.43,411.044 1523.31,405.284 1523.31,394.724 C1523.31,383.844 1526.35,378.244 1532.35,378.244 M1585.15,413.844 L1599.71,413.284 L1599.71,409.844 L1597.71,409.844 C1593.07,409.684 1592.67,409.204 1592.67,404.004 L1592.67,376.004 L1577.63,376.884 L1577.63,380.324 L1581.71,380.324 C1584.75,380.404 1585.15,380.884 1585.15,384.324 L1585.15,394.164 C1585.15,401.124 1583.47,409.604 1574.67,409.604 C1572.19,409.604 1570.11,408.724 1569.07,407.124 C1568.03,405.604 1567.87,404.804 1567.87,400.404 L1567.87,376.004 L1553.87,376.884 L1553.87,380.324 L1556.91,380.324 C1559.95,380.404 1560.35,380.884 1560.35,384.324 L1560.35,401.604 C1560.35,405.684 1560.67,407.524 1561.87,409.364 C1564.03,412.644 1567.87,414.484 1572.67,414.484 C1577.95,414.484 1581.63,412.324 1585.15,407.204 L1585.15,413.844 M1616.91,376.004 L1602.75,376.884 L1602.75,380.324 L1606.03,380.324 C1609.07,380.404 1609.47,380.884 1609.47,384.324 L1609.47,407.204 C1609.39,408.404 1609.31,408.884 1608.99,409.284 C1608.43,410.004 1606.83,410.324 1603.39,410.404 L1603.07,410.404 L1603.07,413.284 L1624.43,413.284 L1624.43,410.404 L1622.99,410.404 C1617.63,410.244 1616.91,409.844 1616.91,406.964 L1616.91,402.644 C1616.99,389.204 1621.79,378.964 1628.03,378.644 C1626.91,379.924 1626.59,380.724 1626.59,382.244 C1626.59,384.804 1628.43,386.644 1630.99,386.644 C1633.95,386.644 1635.87,384.484 1635.87,381.284 C1635.87,377.364 1633.15,374.804 1628.91,374.804 C1623.87,374.804 1619.55,378.804 1616.91,385.924 L1616.91,376.004 M1705.54,385.524 L1705.54,403.444 C1705.54,407.524 1705.54,407.684 1705.06,408.404 C1704.42,409.204 1702.9,409.524 1698.34,409.524 L1696.9,409.524 L1696.9,413.284 L1723.14,413.284 L1723.14,409.524 L1721.7,409.524 C1717.14,409.524 1715.62,409.204 1714.98,408.404 C1714.5,407.684 1714.5,407.604 1714.5,403.444 L1714.5,365.364 C1714.5,361.204 1714.5,361.124 1714.98,360.404 C1715.7,359.524 1717.14,359.284 1721.7,359.284 L1723.14,359.284 L1723.14,355.524 L1697.22,355.524 L1697.22,359.284 L1698.34,359.284 C1702.9,359.284 1704.34,359.524 1705.06,360.404 C1705.54,361.124 1705.54,361.284 1705.54,365.364 L1705.54,381.204 L1678.74,381.204 L1678.74,365.364 C1678.74,361.284 1678.74,361.124 1679.3,360.404 C1679.94,359.524 1681.38,359.284 1685.94,359.284 L1687.46,359.284 L1687.46,355.524 L1661.14,355.524 L1661.14,359.284 L1662.58,359.284 C1667.14,359.284 1668.58,359.524 1669.3,360.404 C1669.78,361.124 1669.78,361.284 1669.78,365.364 L1669.78,403.444 C1669.78,407.444 1669.78,407.684 1669.3,408.404 C1668.66,409.204 1667.14,409.524 1662.58,409.524 L1661.14,409.524 L1661.14,413.284 L1687.46,413.284 L1687.46,409.524 L1685.94,409.524 C1681.38,409.444 1679.94,409.204 1679.3,408.404 C1678.74,407.684 1678.74,407.524 1678.74,403.444 L1678.74,385.524 L1705.54,385.524 M1762.64,395.284 C1762.72,383.284 1755.92,374.804 1746.16,374.804 C1735.92,374.804 1728.24,383.684 1728.24,395.684 C1728.24,406.964 1735.52,414.484 1746.32,414.484 C1754,414.484 1759.36,410.724 1762.64,403.124 L1759.84,401.604 C1756.56,407.764 1753.2,410.164 1747.84,410.164 C1743.76,410.164 1740.8,408.484 1738.72,404.884 C1737.28,402.484 1736.64,399.684 1736.72,395.284 L1762.64,395.284 M1736.8,391.844 C1736.8,386.244 1739.36,378.244 1746.08,378.244 C1750.88,378.244 1754.08,382.484 1754.08,388.964 C1754.08,391.204 1753.36,391.844 1750.8,391.844 L1736.8,391.844 M1801.12,387.524 C1801.12,382.484 1800.24,379.924 1797.92,378.004 C1795.28,375.844 1791.36,374.804 1786.24,374.804 C1777.2,374.804 1770.64,379.044 1770.64,384.884 C1770.64,387.844 1772.48,389.764 1775.28,389.764 C1777.84,389.764 1779.6,388.084 1779.6,385.684 C1779.6,384.644 1779.2,383.524 1778.4,382.404 C1777.92,381.844 1777.84,381.684 1777.84,381.284 C1777.84,379.684 1781.04,378.244 1784.88,378.244 C1787.44,378.244 1790.24,379.044 1791.52,380.244 C1793.04,381.524 1793.6,383.444 1793.6,387.044 L1793.6,390.164 C1785.28,391.604 1782.64,392.244 1778.72,393.764 C1771.76,396.324 1768.48,400.004 1768.48,405.124 C1768.48,410.884 1772.96,414.484 1780.08,414.484 C1785.6,414.484 1790.56,412.244 1794,408.164 C1795.28,412.244 1797.28,413.844 1801.04,413.844 C1804.64,413.844 1808.4,411.524 1808.4,409.204 C1808.4,408.644 1808.08,408.244 1807.6,408.244 C1807.28,408.244 1806.96,408.324 1806.4,408.564 C1805.28,409.044 1804.8,409.124 1804.16,409.124 C1801.92,409.124 1801.12,407.684 1801.12,403.604 L1801.12,387.524 M1793.6,397.284 C1793.6,402.084 1793.36,403.204 1792,405.284 C1790,408.244 1786.4,410.244 1782.88,410.244 C1779.2,410.244 1776.56,407.604 1776.56,404.004 C1776.56,400.644 1778.24,398.244 1781.76,396.564 C1784.24,395.444 1787.36,394.644 1793.6,393.604 L1793.6,397.284 M1825.27,376.004 L1811.11,376.884 L1811.11,380.324 L1814.39,380.324 C1817.43,380.404 1817.83,380.884 1817.83,384.324 L1817.83,407.204 C1817.75,408.404 1817.67,408.884 1817.35,409.284 C1816.79,410.004 1815.19,410.324 1811.75,410.404 L1811.43,410.404 L1811.43,413.284 L1832.79,413.284 L1832.79,410.404 L1831.35,410.404 C1825.99,410.244 1825.27,409.844 1825.27,406.964 L1825.27,402.644 C1825.35,389.204 1830.15,378.964 1836.39,378.644 C1835.27,379.924 1834.95,380.724 1834.95,382.244 C1834.95,384.804 1836.79,386.644 1839.35,386.644 C1842.31,386.644 1844.23,384.484 1844.23,381.284 C1844.23,377.364 1841.51,374.804 1837.27,374.804 C1832.23,374.804 1827.91,378.804 1825.27,385.924 L1825.27,376.004 M1861.98,376.004 L1861.98,360.164 L1858.7,360.164 C1857.9,370.564 1854.38,375.844 1847.9,376.324 L1847.9,379.444 L1854.46,379.444 L1854.46,399.844 C1854.46,405.444 1854.62,407.444 1855.42,409.284 C1856.7,412.644 1859.9,414.484 1864.54,414.484 C1871.74,414.484 1876.38,409.044 1876.38,400.564 C1876.38,400.084 1876.38,399.524 1876.3,398.724 L1872.94,398.724 C1872.7,405.924 1870.62,409.604 1866.7,409.604 C1864.86,409.604 1863.26,408.644 1862.7,407.284 C1862.22,406.164 1861.98,404.164 1861.98,401.284 L1861.98,379.444 L1873.74,379.444 L1873.74,376.004 L1861.98,376.004 M1922.76,355.524 L1902.12,355.524 L1902.12,359.284 L1903.64,359.284 C1908.2,359.364 1909.72,359.604 1910.28,360.404 C1910.84,361.124 1910.84,361.204 1910.84,365.364 L1910.84,396.004 C1910.84,406.884 1909.32,409.124 1901.56,409.524 L1901.56,413.284 L1924.36,413.284 L1924.36,409.524 C1916.68,409.124 1915.16,406.884 1915.16,396.004 L1915.16,360.644 L1934.2,413.284 L1937.4,413.284 L1955.24,360.644 L1955.24,403.444 C1955.24,407.524 1955.24,407.684 1954.76,408.484 C1954.12,409.284 1952.6,409.524 1948.04,409.524 L1946.6,409.524 L1946.6,413.284 L1972.84,413.284 L1972.84,409.524 L1971.4,409.524 C1966.84,409.524 1965.32,409.284 1964.68,408.484 C1964.2,407.684 1964.2,407.604 1964.2,403.444 L1964.2,365.364 C1964.2,361.284 1964.2,361.124 1964.68,360.404 C1965.32,359.604 1966.84,359.364 1971.4,359.284 L1972.84,359.284 L1972.84,355.524 L1952.76,355.524 L1938.12,398.164 L1922.76,355.524 M2011.48,387.524 C2011.48,382.484 2010.6,379.924 2008.28,378.004 C2005.64,375.844 2001.72,374.804 1996.6,374.804 C1987.56,374.804 1981,379.044 1981,384.884 C1981,387.844 1982.84,389.764 1985.64,389.764 C1988.2,389.764 1989.96,388.084 1989.96,385.684 C1989.96,384.644 1989.56,383.524 1988.76,382.404 C1988.28,381.844 1988.2,381.684 1988.2,381.284 C1988.2,379.684 1991.4,378.244 1995.24,378.244 C1997.8,378.244 2000.6,379.044 2001.88,380.244 C2003.4,381.524 2003.96,383.444 2003.96,387.044 L2003.96,390.164 C1995.64,391.604 1993,392.244 1989.08,393.764 C1982.12,396.324 1978.84,400.004 1978.84,405.124 C1978.84,410.884 1983.32,414.484 1990.44,414.484 C1995.96,414.484 2000.92,412.244 2004.36,408.164 C2005.64,412.244 2007.64,413.844 2011.4,413.844 C2015,413.844 2018.76,411.524 2018.76,409.204 C2018.76,408.644 2018.44,408.244 2017.96,408.244 C2017.64,408.244 2017.32,408.324 2016.76,408.564 C2015.64,409.044 2015.16,409.124 2014.52,409.124 C2012.28,409.124 2011.48,407.684 2011.48,403.604 L2011.48,387.524 M2003.96,397.284 C2003.96,402.084 2003.72,403.204 2002.36,405.284 C2000.36,408.244 1996.76,410.244 1993.24,410.244 C1989.56,410.244 1986.92,407.604 1986.92,404.004 C1986.92,400.644 1988.6,398.244 1992.12,396.564 C1994.6,395.444 1997.72,394.644 2003.96,393.604 L2003.96,397.284 M2035.71,393.924 L2035.71,354.324 L2020.91,355.204 L2020.91,358.644 L2024.75,358.644 C2027.79,358.724 2028.19,359.204 2028.19,362.644 L2028.19,407.284 C2028.11,408.404 2028.03,408.884 2027.71,409.284 C2027.15,410.004 2025.63,410.324 2022.19,410.404 L2021.87,410.404 L2021.87,413.284 L2042.11,413.284 L2042.11,410.404 L2041.79,410.404 C2036.43,410.244 2035.71,409.844 2035.71,406.964 L2035.71,398.884 L2040.59,394.244 L2050.11,407.604 C2050.51,408.244 2050.67,408.644 2050.67,408.964 C2050.67,410.084 2049.79,410.404 2047.15,410.404 L2045.63,410.404 L2045.63,413.284 L2066.75,413.284 L2066.75,410.404 C2062.27,410.004 2060.67,409.044 2057.39,404.884 L2046.03,389.364 L2049.63,385.844 C2054.35,381.284 2057.71,379.524 2063.15,378.884 L2063.15,376.004 L2042.11,376.004 L2042.11,378.884 L2044.59,378.884 C2047.15,378.884 2048.35,379.364 2048.35,380.404 C2048.35,381.284 2047.79,382.244 2046.51,383.524 L2035.71,393.924 M2102.97,395.284 C2103.05,383.284 2096.25,374.804 2086.49,374.804 C2076.25,374.804 2068.57,383.684 2068.57,395.684 C2068.57,406.964 2075.85,414.484 2086.65,414.484 C2094.33,414.484 2099.69,410.724 2102.97,403.124 L2100.17,401.604 C2096.89,407.764 2093.53,410.164 2088.17,410.164 C2084.09,410.164 2081.13,408.484 2079.05,404.884 C2077.61,402.484 2076.97,399.684 2077.05,395.284 L2102.97,395.284 M2077.13,391.844 C2077.13,386.244 2079.69,378.244 2086.41,378.244 C2091.21,378.244 2094.41,382.484 2094.41,388.964 C2094.41,391.204 2093.69,391.844 2091.13,391.844 L2077.13,391.844 M2136.64,375.124 L2133.84,375.124 L2131.52,378.004 C2128.64,375.764 2125.76,374.804 2121.76,374.804 C2114.72,374.804 2110.08,379.364 2110.08,386.404 C2110.08,393.924 2114.96,395.844 2121.36,397.364 L2125.6,398.324 C2131.92,399.844 2134.16,401.444 2134.16,404.644 C2134.16,408.404 2130.88,411.044 2126.24,411.044 C2119.44,411.044 2114.64,406.724 2112.72,398.724 L2109.52,398.724 L2109.52,413.844 L2112.32,413.844 L2115.12,410.564 C2118.4,413.204 2122,414.484 2126.08,414.484 C2133.92,414.484 2139.12,409.604 2139.12,402.164 C2139.12,398.644 2138,395.924 2135.76,394.084 C2133.84,392.404 2132.24,391.764 2127.36,390.724 L2123.36,389.844 C2118.96,388.884 2118.96,388.884 2117.52,388.084 C2115.76,387.284 2114.72,385.604 2114.72,383.844 C2114.72,380.564 2117.76,378.324 2122.16,378.324 C2128.72,378.324 2131.92,382.964 2133.84,388.564 L2136.64,388.564 L2136.64,375.124 "/>
<path class="Text" d="M1240.78,280.359 C1234.73,286.519 1230.44,289.709 1222.96,293.559 C1216.47,289.489 1212.62,287.399 1204.04,283.769 L1199.42,287.839 C1207.56,291.139 1211.52,293.119 1216.58,296.529 C1206.02,300.929 1195.9,303.239 1178.3,305.219 C1180.39,307.639 1181.49,309.509 1182.48,312.039 C1200.63,309.069 1210.86,306.099 1222.08,300.929 C1232.86,295.869 1241.22,289.929 1248.37,282.009 C1249.25,281.019 1250.24,279.919 1251.45,278.819 L1246.94,274.419 C1244.3,274.749 1241.99,274.859 1237.26,274.859 L1209.43,274.859 C1212.07,272.439 1213.17,271.119 1216.36,267.269 L1259.48,267.269 L1259.48,278.819 L1266.52,278.819 C1266.19,276.619 1266.08,275.079 1266.08,271.779 L1266.08,267.709 C1266.08,264.519 1266.19,263.419 1266.52,261.109 C1262.89,261.439 1260.25,261.549 1255.3,261.549 L1185.23,261.549 C1180.17,261.549 1177.64,261.439 1174.23,261.109 C1174.56,263.529 1174.67,264.739 1174.67,267.709 L1174.67,271.779 C1174.67,274.859 1174.56,276.509 1174.23,278.819 L1181.27,278.819 L1181.27,267.269 L1208.66,267.269 C1200.74,276.399 1190.73,282.339 1175.22,287.069 C1177.75,288.829 1179.07,290.149 1180.61,292.459 C1191.06,288.169 1196.12,285.419 1202.94,280.359 L1240.78,280.359 M1200.41,220.079 L1183.03,220.079 C1178.3,220.079 1174.89,219.859 1171.92,219.419 L1171.92,226.679 C1175.22,226.239 1178.3,226.019 1183.03,226.019 L1200.41,226.019 C1200.41,228.879 1200.3,229.869 1199.97,231.959 L1207.56,231.959 C1207.23,229.759 1207.12,228.769 1207.12,226.019 L1232.2,226.019 C1232.2,228.879 1232.09,229.979 1231.76,232.069 L1239.24,232.069 C1239.02,229.979 1238.91,228.769 1238.91,226.019 L1257.5,226.019 C1262.23,226.019 1265.64,226.239 1268.72,226.679 L1268.72,219.419 C1265.64,219.859 1262.23,220.079 1257.5,220.079 L1238.91,220.079 L1238.91,218.979 C1238.91,216.119 1238.91,214.799 1239.24,212.599 L1231.76,212.599 C1232.09,214.799 1232.2,216.449 1232.2,218.979 L1232.2,220.079 L1207.12,220.079 L1207.12,218.979 C1207.12,216.009 1207.23,214.799 1207.56,212.599 L1199.97,212.599 C1200.3,214.799 1200.41,216.339 1200.41,218.869 L1200.41,220.079 M1258.05,241.419 C1258.05,238.449 1258.16,236.469 1258.49,234.049 C1255.74,234.379 1253.54,234.489 1249.14,234.489 L1191.17,234.489 C1186.77,234.489 1184.57,234.379 1181.82,234.049 C1182.15,236.689 1182.26,238.779 1182.26,241.639 L1182.26,248.679 C1182.26,251.429 1182.15,253.409 1181.82,256.049 C1184.57,255.719 1187.1,255.609 1190.95,255.609 L1249.36,255.609 C1253.21,255.609 1255.63,255.719 1258.49,256.049 C1258.16,253.519 1258.05,251.759 1258.05,248.679 L1258.05,241.419 M1205.14,250.329 L1188.86,250.329 L1188.86,239.769 L1205.14,239.769 L1205.14,250.329 M1227.8,250.329 L1211.3,250.329 L1211.3,239.769 L1227.8,239.769 L1227.8,250.329 M1234.07,250.329 L1234.07,239.769 L1251.45,239.769 L1251.45,250.329 L1234.07,250.329 "/>
<path class="Text" d="M1315.47,246.479 C1315.69,246.479 1315.8,246.479 1315.91,246.479 C1316.13,246.479 1316.46,246.479 1317.01,246.589 C1317.23,246.589 1317.89,246.589 1318.88,246.699 C1319.32,246.699 1320.53,246.699 1322.4,246.919 C1326.25,247.139 1330.32,247.249 1334.83,247.249 C1339.01,247.249 1342.42,247.139 1347.37,246.919 C1347.7,262.979 1348.14,273.319 1348.47,275.629 C1345.94,274.309 1340.77,273.429 1336.26,273.429 C1324.05,273.429 1315.36,279.919 1315.36,289.049 C1315.36,298.619 1323.39,304.669 1336.15,304.669 C1345.17,304.669 1351.88,301.259 1354.52,295.429 C1355.4,293.449 1355.84,290.809 1355.84,287.949 C1355.84,286.959 1355.84,286.739 1355.62,285.089 C1356.17,285.419 1356.17,285.419 1356.61,285.749 C1357.27,286.189 1357.27,286.189 1357.71,286.409 C1365.52,290.919 1369.92,293.999 1373.33,297.849 L1376.74,290.149 C1375.53,289.379 1375.31,289.159 1373.99,288.279 C1366.73,282.889 1363.65,281.129 1355.62,277.499 C1354.74,262.869 1354.52,257.259 1354.41,246.369 C1360.13,245.709 1363.21,245.269 1366.07,244.609 C1373.55,243.069 1373.55,243.069 1373.77,243.069 L1373.44,235.589 C1369.26,237.349 1362.88,238.669 1354.41,239.659 C1354.3,237.239 1354.3,235.479 1354.3,234.269 C1354.3,225.139 1354.52,219.969 1355.07,216.999 L1346.82,216.999 C1347.04,218.099 1347.15,219.639 1347.15,221.509 C1347.15,229.869 1347.15,229.869 1347.26,240.209 C1342.75,240.429 1339.78,240.539 1335.49,240.539 C1325.81,240.539 1321.08,240.099 1315.69,238.779 L1315.47,246.479 M1348.58,282.339 C1348.58,282.339 1348.69,284.869 1348.69,285.639 C1348.69,289.929 1348.03,292.569 1346.6,294.219 C1344.51,296.639 1340.22,298.069 1335.38,298.069 C1327.68,298.069 1322.62,294.549 1322.62,289.159 C1322.62,283.659 1328.23,280.029 1336.81,280.029 C1341.21,280.029 1344.07,280.579 1348.58,282.339 M1296,216.889 C1295.89,218.319 1295.78,218.979 1294.79,223.819 C1290.5,242.849 1289.07,254.399 1289.07,269.029 C1289.07,280.139 1290.17,291.469 1292.15,301.699 C1292.59,304.229 1292.7,304.779 1292.81,305.769 L1300.62,304.999 C1300.4,303.459 1300.4,303.349 1300.4,302.799 C1300.4,296.309 1304.69,282.339 1309.86,271.559 L1304.47,269.029 C1304.25,269.799 1304.03,270.239 1303.59,271.229 C1299.85,280.249 1299.08,282.339 1297.1,290.589 L1296.66,290.479 C1296.66,289.379 1296.66,289.379 1296.66,288.389 C1296.55,286.409 1296.55,286.189 1296.55,285.309 C1296.33,280.249 1296.11,273.759 1296.11,269.909 C1296.11,251.869 1299.85,229.319 1304.58,218.319 L1296,216.889 M1399.18,232.069 C1400.28,231.959 1400.28,231.959 1402.37,231.739 C1418.21,230.639 1419.2,230.419 1426.9,228.439 C1420.63,233.719 1420.63,233.719 1417,238.229 C1407.43,249.999 1402.37,262.649 1402.37,274.859 C1402.37,292.899 1414.36,305.439 1431.63,305.439 C1444.72,305.439 1456.27,297.959 1461.11,286.299 C1463.97,279.589 1465.4,271.999 1465.4,263.749 C1465.4,255.059 1464.41,249.229 1461,238.779 C1461.88,240.319 1461.88,240.319 1463.2,242.629 C1464.3,244.719 1465.18,246.149 1466.94,249.009 C1470.79,255.059 1474.97,259.899 1480.91,265.069 C1483.44,267.269 1483.44,267.269 1485.42,269.139 L1489.6,261.439 C1487.95,260.779 1487.29,260.339 1485.53,258.799 C1478.82,253.409 1474.42,248.569 1469.69,241.639 C1465.29,235.259 1461,227.009 1459.35,221.619 L1451.43,224.259 C1455.5,232.619 1458.25,247.139 1458.25,259.679 C1458.25,269.139 1457.04,276.179 1454.29,282.669 C1450.44,291.689 1441.31,297.739 1431.63,297.739 C1419.09,297.739 1409.96,288.169 1409.96,274.969 C1409.96,263.749 1415.02,251.869 1425.03,239.769 C1429.65,234.269 1431.96,232.179 1437.9,227.999 L1433.28,221.069 C1429.21,223.049 1416.45,224.589 1404.24,224.589 C1401.93,224.589 1400.94,224.479 1399.07,224.149 L1399.18,232.069 M1522.6,229.099 C1524.8,228.879 1525.24,228.879 1529.42,228.659 C1545.59,228.109 1557.69,227.229 1563.85,226.019 C1562.42,227.119 1561.98,227.449 1560.22,229.099 C1549.22,239.549 1534.59,250.989 1523.7,257.479 C1516.11,258.799 1507.86,259.679 1504.45,259.679 C1504.23,259.679 1504.01,259.679 1503.68,259.679 L1504.56,268.039 C1508.63,266.829 1519.52,265.179 1537.01,263.089 C1543.28,262.319 1553.07,260.999 1554.94,260.779 C1559.45,260.009 1559.45,260.009 1560.99,259.789 C1545.15,266.719 1537.01,275.409 1537.01,285.199 C1537.01,290.589 1539.32,295.539 1543.5,299.059 C1548.78,303.569 1558.35,305.989 1571.22,306.209 C1576.83,306.319 1576.83,306.319 1578.7,306.429 L1578.37,297.959 C1575.95,298.399 1573.75,298.619 1570.89,298.619 C1554.17,298.619 1544.71,293.449 1544.71,284.429 C1544.71,281.129 1545.7,278.599 1548.23,275.299 C1551.31,271.339 1556.37,267.489 1561.98,264.849 C1570.12,260.999 1581.01,258.909 1592.23,258.909 C1592.67,258.909 1593.55,258.909 1594.65,258.909 L1593.88,251.209 C1592.56,251.539 1592.12,251.539 1590.69,251.649 C1588.49,251.869 1585.19,252.199 1580.68,252.529 C1572.32,253.299 1565.61,253.959 1561.1,254.289 C1544.38,255.719 1540.09,256.269 1534.7,257.259 C1545.7,250.769 1560,239.659 1570.78,229.209 C1573.64,226.459 1574.41,225.799 1576.17,224.589 L1571.55,218.759 C1570.01,219.419 1567.81,219.859 1565.39,220.079 C1557.58,220.959 1541.74,221.619 1531.84,221.619 C1527.33,221.619 1525.35,221.509 1521.94,221.179 L1522.6,229.099 M1615.77,250.329 C1618.74,249.559 1619.62,249.339 1622.15,248.899 C1623.14,248.679 1628.42,247.799 1637.88,246.369 C1634.25,260.559 1630.95,270.239 1625.78,281.239 C1621.93,289.599 1617.75,296.859 1614.34,301.149 L1621.82,305.549 C1625.23,299.389 1627.54,294.989 1628.97,292.349 C1636.45,277.169 1641.51,263.089 1645.58,245.709 C1649.65,245.269 1651.08,245.159 1653.5,245.159 C1663.73,245.159 1667.03,248.899 1667.03,260.559 C1667.03,272.879 1665.38,284.099 1662.41,291.139 C1660.98,294.659 1658.89,296.419 1656.14,296.419 C1652.18,296.419 1646.02,294.549 1639.75,291.359 C1640.08,293.339 1640.08,294.109 1640.08,295.759 C1640.08,297.189 1640.08,297.959 1639.86,299.609 C1647.12,302.689 1651.74,303.899 1656.47,303.899 C1661.64,303.899 1664.61,302.469 1667.25,298.729 C1671.76,292.349 1674.62,277.719 1674.62,260.889 C1674.62,251.869 1673.08,246.809 1669.23,243.179 C1665.82,239.879 1661.2,238.559 1653.39,238.559 C1650.86,238.559 1649.43,238.669 1646.9,238.889 C1647.89,233.609 1648.66,229.539 1649.21,226.349 C1650.2,220.079 1650.53,218.209 1651.3,215.789 L1642.5,214.799 C1642.5,215.459 1642.5,216.009 1642.5,216.229 C1642.5,220.849 1641.07,231.409 1639.2,239.549 C1630.29,240.979 1618.85,242.299 1614.89,242.409 L1615.77,250.329 M1680.67,235.809 C1691.34,246.699 1698.93,260.119 1703.11,275.299 L1710.15,271.229 C1704.98,255.719 1698.38,244.389 1687.16,232.289 L1680.67,235.809 M1736.44,217.439 C1736.22,219.969 1736,221.069 1734.9,226.239 C1731.27,242.519 1729.95,254.179 1729.95,269.799 C1729.95,281.349 1730.72,289.269 1732.81,300.929 C1733.14,303.019 1733.25,303.569 1733.47,305.329 L1741.39,304.669 C1741.39,303.899 1741.39,303.349 1741.39,303.019 C1741.39,296.859 1745.35,283.659 1750.3,272.769 L1745.02,270.239 C1741.5,278.269 1739.41,284.319 1737.87,291.689 C1737.43,285.859 1737.21,279.369 1737.21,270.789 C1737.21,257.589 1738.2,247.909 1740.51,236.359 C1742.16,228.879 1743.48,223.489 1745.13,218.759 L1736.44,217.439 M1759.1,238.229 C1766.25,238.999 1770.54,239.329 1776.7,239.329 C1785.17,239.329 1793.97,238.779 1800.35,237.899 C1805.19,237.239 1807.72,236.909 1807.94,236.909 L1807.39,229.099 C1800.02,231.079 1790.12,232.069 1777.91,232.069 C1769.33,232.069 1763.94,231.629 1759.21,230.419 L1759.1,238.229 M1767.13,259.679 C1760.31,267.489 1757.56,273.429 1757.56,280.139 C1757.56,284.209 1758.66,287.509 1760.86,290.259 C1765.59,295.979 1773.51,298.619 1786.05,298.619 C1793.53,298.619 1800.9,297.959 1808.6,296.419 C1810.8,296.089 1811.02,295.979 1812.45,295.869 L1811.35,287.399 C1805.41,289.819 1796.06,291.249 1786.05,291.249 C1771.86,291.249 1764.93,287.289 1764.93,279.149 C1764.93,274.309 1767.68,269.029 1773.18,262.979 L1767.13,259.679 "/>
<path class="MeasureNumber" d="M231.389,1989.92 L230.349,1991.76 C228.749,1994.52 228.429,1994.76 226.389,1994.8 L217.109,1994.8 C218.069,1993.52 219.829,1992.04 223.029,1989.8 C228.309,1986.16 228.669,1985.92 229.789,1985.04 C232.989,1982.56 234.309,1980.2 234.309,1977.04 C234.309,1972.84 231.189,1970.04 226.589,1970.04 C221.469,1970.04 217.029,1973.8 217.029,1978.16 C217.029,1980.4 218.229,1981.84 220.149,1981.84 C221.589,1981.84 222.709,1980.76 222.709,1979.28 C222.709,1978.24 222.189,1977.56 220.869,1976.84 C219.909,1976.36 219.749,1976.16 219.749,1975.68 C219.749,1973.96 222.709,1972.04 225.429,1972.04 C228.229,1972.04 230.109,1973.92 230.109,1976.72 C230.109,1979.72 228.789,1981.92 225.189,1985.04 C214.549,1994.28 212.949,1995.96 212.589,1998.2 L229.749,1998.2 L232.829,1990.48 L231.389,1989.92 M256.703,1969.88 L254.543,1969.88 L235.903,1989.16 L235.903,1990.84 L247.183,1990.84 L246.543,1993.28 C245.743,1996.32 245.743,1996.32 242.263,1996.32 L241.543,1996.32 L241.303,1998.2 L253.743,1998.2 L253.943,1996.32 L253.223,1996.32 C250.583,1996.32 250.023,1996.12 250.023,1995.24 C250.023,1994.92 250.103,1994.52 250.423,1993.28 L251.103,1990.84 L255.663,1990.84 L256.263,1988.68 L251.663,1988.68 L256.703,1969.88 M247.783,1988.68 L238.823,1988.68 L251.183,1975.96 L247.783,1988.68 "/>
<path class="MeasureNumber" d="M228.958,1498.68 L227.798,1498.68 C225.598,1500.32 221.358,1501.72 218.478,1501.72 L217.998,1503.48 L220.758,1503.48 C223.198,1503.48 223.478,1503.56 223.478,1504.28 C223.478,1504.64 223.478,1504.64 223.078,1506.08 L218.798,1522.08 C218.278,1524.08 218.238,1524.2 217.878,1524.56 C217.478,1524.96 216.638,1525.08 214.518,1525.12 L212.798,1525.12 L212.598,1527 L227.398,1527 L227.638,1525.12 L225.478,1525.12 C222.878,1525.12 222.318,1524.92 222.318,1524.04 C222.318,1523.76 222.478,1522.84 222.678,1522.08 L228.958,1498.68 M239.153,1513.6 C239.833,1510.08 240.633,1507.88 242.153,1505.2 C243.953,1502.04 246.113,1500.44 248.513,1500.44 C249.753,1500.44 250.513,1500.92 250.513,1501.68 C250.513,1501.96 250.433,1502.12 250.153,1502.64 C249.793,1503.32 249.633,1503.8 249.633,1504.4 C249.633,1505.68 250.593,1506.56 251.953,1506.56 C253.593,1506.56 254.713,1505.36 254.713,1503.56 C254.713,1500.84 252.153,1498.84 248.593,1498.84 C239.673,1498.84 234.273,1510.48 234.273,1518.16 C234.273,1524.04 237.193,1527.6 242.073,1527.6 C248.073,1527.6 252.513,1522.64 252.513,1516.76 C252.513,1512.68 249.753,1509.84 245.753,1509.84 C242.953,1509.84 240.793,1511.04 239.153,1513.6 M244.473,1512.16 C246.953,1512.16 248.313,1513.88 248.313,1517 C248.313,1522.08 245.633,1525.96 242.073,1525.96 C239.513,1525.96 237.993,1524.08 237.993,1520.88 C237.993,1515.88 240.753,1512.16 244.473,1512.16"/>
<path class="MeasureNumber" d="M227.326,1041 C230.446,1039.52 233.366,1037.88 233.366,1033.88 C233.366,1030.24 230.286,1027.64 226.006,1027.64 C220.846,1027.64 216.846,1031.36 216.846,1036.2 C216.846,1038.64 217.686,1040.2 219.846,1041.76 C215.126,1043.56 212.606,1046.48 212.606,1050.12 C212.606,1054 215.806,1056.4 220.926,1056.4 C227.086,1056.4 231.486,1052.64 231.486,1047.44 C231.486,1044.28 229.766,1042.6 227.326,1041 M225.606,1040.04 C221.526,1038.12 220.046,1036.56 220.046,1034.28 C220.046,1031.52 222.526,1029.36 225.686,1029.36 C228.446,1029.36 230.366,1031.12 230.366,1033.64 C230.366,1036.64 228.286,1039 225.606,1040.04 M221.366,1042.84 C223.286,1043.72 223.926,1044.04 224.926,1044.64 C226.926,1045.84 228.006,1047.44 228.006,1049.24 C228.006,1052.32 225.126,1054.64 221.366,1054.64 C217.966,1054.64 215.846,1052.72 215.846,1049.64 C215.846,1046.64 217.766,1044.28 221.366,1042.84"/>
<path class="TieSegment" stroke="#000000" stroke-width="1.74" stroke-linecap="round" stroke-linejoin="round" fill-rule="evenodd" d="M1449.88,727.043 C1486.42,749.785 1596.04,749.785 1632.58,727.043 C1596.04,756.729 1486.42,756.729 1449.88,727.043"/>
<path class="TieSegment" stroke="#000000" stroke-width="1.74" stroke-linecap="round" stroke-linejoin="round" fill-rule="evenodd" d="M1487.66,1669.2 C1519.08,1690.35 1613.35,1690.35 1644.77,1669.2 C1613.35,1697.29 1519.08,1697.29 1487.66,1669.2"/>
<path class="TieSegment" stroke="#000000" stroke-width="1.74" stroke-linecap="round" stroke-linejoin="round" fill-rule="evenodd" d="M2422.57,2140.64 C2458.91,2163.32 2567.92,2163.32 2604.26,2140.64 C2567.92,2170.27 2458.91,2170.27 2422.57,2140.64"/>
<path class="TieSegment" stroke="#000000" stroke-width="1.74" stroke-linecap="round" stroke-linejoin="round" fill-rule="evenodd" d="M1487.66,1185.6 C1519.08,1215.93 1613.35,1215.93 1644.77,1185.6 C1613.35,1222.87 1519.08,1222.87 1487.66,1185.6"/>
<polyline class="BarLine" fill="none" stroke="#000000" stroke-width="4.46" stroke-linejoin="bevel" points="2740.42,2046.43 2740.42,2148.36"/>
<polyline class="BarLine" fill="none" stroke="#000000" stroke-width="13.64" stroke-linejoin="bevel" points="2757.78,2046.43 2757.78,2148.36"/>
<polyline class="BarLine" fill="none" stroke="#000000" stroke-width="4.46" stroke-linejoin="bevel" points="2762.37,1575.23 2762.37,1677.16"/>
<polyline class="BarLine" fill="none" stroke="#000000" stroke-width="4.46" stroke-linejoin="bevel" points="1310.11,1104.03 1310.11,1205.96"/>
<polyline class="BarLine" fill="none" stroke="#000000" stroke-width="4.46" stroke-linejoin="bevel" points="1876.76,1104.03 1876.76,1205.96"/>
<polyline class="BarLine" fill="none" stroke="#000000" stroke-width="4.46" stroke-linejoin="bevel" points="2205.99,1104.03 2205.99,1205.96"/>
<polyline class="BarLine" fill="none" stroke="#000000" stroke-width="4.46" stroke-linejoin="bevel" points="2553.77,2046.43 2553.77,2148.36"/>
<polyline class="BarLine" fill="none" stroke="#000000" stroke-width="4.46" stroke-linejoin="bevel" points="1030.9,1104.03 1030.9,1205.96"/>
<polyline class="BarLine" fill="none" stroke="#000000" stroke-width="4.46" stroke-linejoin="bevel" points="2535.22,1104.03 2535.22,1205.96"/>
<polyline class="BarLine" fill="none" stroke="#000000" stroke-width="4.46" stroke-linejoin="bevel" points="2762.37,1104.03 2762.37,1205.96"/>
<polyline class="BarLine" fill="none" stroke="#000000" stroke-width="4.46" stroke-linejoin="bevel" points="2367.12,2046.43 2367.12,2148.36"/>
<polyline class="BarLine" fill="none" stroke="#000000" stroke-width="4.46" stroke-linejoin="bevel" points="701.666,1104.03 701.666,1205.96"/>
<polyline class="BarLine" fill="none" stroke="#000000" stroke-width="4.46" stroke-linejoin="bevel" points="927.636,632.834 927.636,734.762"/>
<polyline class="BarLine" fill="none" stroke="#000000" stroke-width="4.46" stroke-linejoin="bevel" points="546.331,632.834 546.331,734.762"/>
<polyline class="BarLine" fill="none" stroke="#000000" stroke-width="4.46" stroke-linejoin="bevel" points="2097.03,2046.43 2097.03,2148.36"/>
<polyline class="BarLine" fill="none" stroke="#000000" stroke-width="4.46" stroke-linejoin="bevel" points="1030.9,1575.23 1030.9,1677.16"/>
<polyline class="BarLine" fill="none" stroke="#000000" stroke-width="4.46" stroke-linejoin="bevel" points="1826.95,2046.43 1826.95,2148.36"/>
<polyline class="BarLine" fill="none" stroke="#000000" stroke-width="4.46" stroke-linejoin="bevel" points="1310.11,1575.23 1310.11,1677.16"/>
<polyline class="BarLine" fill="none" stroke="#000000" stroke-width="4.46" stroke-linejoin="bevel" points="1556.86,2046.43 1556.86,2148.36"/>
<polyline class="BarLine" fill="none" stroke="#000000" stroke-width="4.46" stroke-linejoin="bevel" points="1250.02,632.834 1250.02,734.762"/>
<polyline class="BarLine" fill="none" stroke="#000000" stroke-width="4.46" stroke-linejoin="bevel" points="1597.55,1575.23 1597.55,1677.16"/>
<polyline class="BarLine" fill="none" stroke="#000000" stroke-width="4.46" stroke-linejoin="bevel" points="2762.37,632.834 2762.37,734.762"/>
<polyline class="BarLine" fill="none" stroke="#000000" stroke-width="4.46" stroke-linejoin="bevel" points="1253.99,2046.43 1253.99,2148.36"/>
<polyline class="BarLine" fill="none" stroke="#000000" stroke-width="4.46" stroke-linejoin="bevel" points="1876.76,1575.23 1876.76,1677.16"/>
<polyline class="BarLine" fill="none" stroke="#000000" stroke-width="4.46" stroke-linejoin="bevel" points="983.904,2046.43 983.904,2148.36"/>
<polyline class="BarLine" fill="none" stroke="#000000" stroke-width="4.46" stroke-linejoin="bevel" points="1582.09,632.834 1582.09,734.762"/>
<polyline class="BarLine" fill="none" stroke="#000000" stroke-width="4.46" stroke-linejoin="bevel" points="2501.75,632.834 2501.75,734.762"/>
<polyline class="BarLine" fill="none" stroke="#000000" stroke-width="4.46" stroke-linejoin="bevel" points="2247.78,1575.23 2247.78,1677.16"/>
<polyline class="BarLine" fill="none" stroke="#000000" stroke-width="4.46" stroke-linejoin="bevel" points="1842.71,632.834 1842.71,734.762"/>
<polyline class="BarLine" fill="none" stroke="#000000" stroke-width="4.46" stroke-linejoin="bevel" points="2535.22,1575.23 2535.22,1677.16"/>
<polyline class="BarLine" fill="none" stroke="#000000" stroke-width="4.46" stroke-linejoin="bevel" points="681.028,2046.43 681.028,2148.36"/>
<polyline class="BarLine" fill="none" stroke="#000000" stroke-width="4.46" stroke-linejoin="bevel" points="1597.55,1104.03 1597.55,1205.96"/>
<polyline class="BarLine" fill="none" stroke="#000000" stroke-width="4.46" stroke-linejoin="bevel" points="701.666,1575.23 701.666,1677.16"/>
<polyline class="BarLine" fill="none" stroke="#000000" stroke-width="4.46" stroke-linejoin="bevel" points="2165.09,632.834 2165.09,734.762"/>
<path class="Accidental" transform="matrix(0.992,0,0,0.992,831.112,1217)" d="M23.3,-10.5 C23.9,-10.6 24.4,-11.3 24.4,-11.9 L24.4,-17.8 C24.4,-18.8 23.7,-19.2 22.8,-19.2 L19.5,-18.5 L19.5,-33.4 L16.7,-33.4 L16.7,-17.9 L7.8,-16.1 L7.8,-30.2 L5,-30.2 L5,-15.5 L1.1,-14.7 C0.5,-14.6 0,-13.9 0,-13.3 L0,-7.5 C0,-6.4 0.8,-6.1 1.7,-6.1 L5,-6.8 L5,9.7 L1.1,10.5 C0.5,10.6 0,11.3 0,11.9 L0,17.7 C0,18.8 0.8,19.1 1.7,19.1 L5,18.4 L5,33.3 L7.8,33.3 L7.8,17.8 L16.7,16 L16.7,30.1 L19.5,30.1 L19.5,15.4 L23.3,14.7 C23.9,14.6 24.4,13.9 24.4,13.3 L24.4,7.4 C24.4,6.4 23.7,6 22.8,6 L19.5,6.7 L19.5,-9.8 L23.3,-10.5 M7.8,-7.4 L16.7,-9.2 L16.7,7.3 L7.8,9.2 L7.8,-7.4 "/>
<path class="Accidental" transform="matrix(0.992,0,0,0.992,691.15,758.198)" d="M23.3,-10.5 C23.9,-10.6 24.4,-11.3 24.4,-11.9 L24.4,-17.8 C24.4,-18.8 23.7,-19.2 22.8,-19.2 L19.5,-18.5 L19.5,-33.4 L16.7,-33.4 L16.7,-17.9 L7.8,-16.1 L7.8,-30.2 L5,-30.2 L5,-15.5 L1.1,-14.7 C0.5,-14.6 0,-13.9 0,-13.3 L0,-7.5 C0,-6.4 0.8,-6.1 1.7,-6.1 L5,-6.8 L5,9.7 L1.1,10.5 C0.5,10.6 0,11.3 0,11.9 L0,17.7 C0,18.8 0.8,19.1 1.7,19.1 L5,18.4 L5,33.3 L7.8,33.3 L7.8,17.8 L16.7,16 L16.7,30.1 L19.5,30.1 L19.5,15.4 L23.3,14.7 C23.9,14.6 24.4,13.9 24.4,13.3 L24.4,7.4 C24.4,6.4 23.7,6 22.8,6 L19.5,6.7 L19.5,-9.8 L23.3,-10.5 M7.8,-7.4 L16.7,-9.2 L16.7,7.3 L7.8,9.2 L7.8,-7.4 "/>
<path class="Accidental" transform="matrix(0.992,0,0,0.992,1760.55,1179.8)" d="M23.3,-10.5 C23.9,-10.6 24.4,-11.3 24.4,-11.9 L24.4,-17.8 C24.4,-18.8 23.7,-19.2 22.8,-19.2 L19.5,-18.5 L19.5,-33.4 L16.7,-33.4 L16.7,-17.9 L7.8,-16.1 L7.8,-30.2 L5,-30.2 L5,-15.5 L1.1,-14.7 C0.5,-14.6 0,-13.9 0,-13.3 L0,-7.5 C0,-6.4 0.8,-6.1 1.7,-6.1 L5,-6.8 L5,9.7 L1.1,10.5 C0.5,10.6 0,11.3 0,11.9 L0,17.7 C0,18.8 0.8,19.1 1.7,19.1 L5,18.4 L5,33.3 L7.8,33.3 L7.8,17.8 L16.7,16 L16.7,30.1 L19.5,30.1 L19.5,15.4 L23.3,14.7 C23.9,14.6 24.4,13.9 24.4,13.3 L24.4,7.4 C24.4,6.4 23.7,6 22.8,6 L19.5,6.7 L19.5,-9.8 L23.3,-10.5 M7.8,-7.4 L16.7,-9.2 L16.7,7.3 L7.8,9.2 L7.8,-7.4 "/>
<path class="Accidental" transform="matrix(0.992,0,0,0.992,1193.9,1179.8)" d="M23.3,-10.5 C23.9,-10.6 24.4,-11.3 24.4,-11.9 L24.4,-17.8 C24.4,-18.8 23.7,-19.2 22.8,-19.2 L19.5,-18.5 L19.5,-33.4 L16.7,-33.4 L16.7,-17.9 L7.8,-16.1 L7.8,-30.2 L5,-30.2 L5,-15.5 L1.1,-14.7 C0.5,-14.6 0,-13.9 0,-13.3 L0,-7.5 C0,-6.4 0.8,-6.1 1.7,-6.1 L5,-6.8 L5,9.7 L1.1,10.5 C0.5,10.6 0,11.3 0,11.9 L0,17.7 C0,18.8 0.8,19.1 1.7,19.1 L5,18.4 L5,33.3 L7.8,33.3 L7.8,17.8 L16.7,16 L16.7,30.1 L19.5,30.1 L19.5,15.4 L23.3,14.7 C23.9,14.6 24.4,13.9 24.4,13.3 L24.4,7.4 C24.4,6.4 23.7,6 22.8,6 L19.5,6.7 L19.5,-9.8 L23.3,-10.5 M7.8,-7.4 L16.7,-9.2 L16.7,7.3 L7.8,9.2 L7.8,-7.4 "/>
<path class="Accidental" transform="matrix(0.992,0,0,0.992,824.168,1700.6)" d="M23.3,-10.5 C23.9,-10.6 24.4,-11.3 24.4,-11.9 L24.4,-17.8 C24.4,-18.8 23.7,-19.2 22.8,-19.2 L19.5,-18.5 L19.5,-33.4 L16.7,-33.4 L16.7,-17.9 L7.8,-16.1 L7.8,-30.2 L5,-30.2 L5,-15.5 L1.1,-14.7 C0.5,-14.6 0,-13.9 0,-13.3 L0,-7.5 C0,-6.4 0.8,-6.1 1.7,-6.1 L5,-6.8 L5,9.7 L1.1,10.5 C0.5,10.6 0,11.3 0,11.9 L0,17.7 C0,18.8 0.8,19.1 1.7,19.1 L5,18.4 L5,33.3 L7.8,33.3 L7.8,17.8 L16.7,16 L16.7,30.1 L19.5,30.1 L19.5,15.4 L23.3,14.7 C23.9,14.6 24.4,13.9 24.4,13.3 L24.4,7.4 C24.4,6.4 23.7,6 22.8,6 L19.5,6.7 L19.5,-9.8 L23.3,-10.5 M7.8,-7.4 L16.7,-9.2 L16.7,7.3 L7.8,9.2 L7.8,-7.4 "/>
<path class="Accidental" transform="matrix(0.992,0,0,0.992,513.393,2159.4)" d="M23.3,-10.5 C23.9,-10.6 24.4,-11.3 24.4,-11.9 L24.4,-17.8 C24.4,-18.8 23.7,-19.2 22.8,-19.2 L19.5,-18.5 L19.5,-33.4 L16.7,-33.4 L16.7,-17.9 L7.8,-16.1 L7.8,-30.2 L5,-30.2 L5,-15.5 L1.1,-14.7 C0.5,-14.6 0,-13.9 0,-13.3 L0,-7.5 C0,-6.4 0.8,-6.1 1.7,-6.1 L5,-6.8 L5,9.7 L1.1,10.5 C0.5,10.6 0,11.3 0,11.9 L0,17.7 C0,18.8 0.8,19.1 1.7,19.1 L5,18.4 L5,33.3 L7.8,33.3 L7.8,17.8 L16.7,16 L16.7,30.1 L19.5,30.1 L19.5,15.4 L23.3,14.7 C23.9,14.6 24.4,13.9 24.4,13.3 L24.4,7.4 C24.4,6.4 23.7,6 22.8,6 L19.5,6.7 L19.5,-9.8 L23.3,-10.5 M7.8,-7.4 L16.7,-9.2 L16.7,7.3 L7.8,9.2 L7.8,-7.4 "/>
<path class="Accidental" transform="matrix(0.992,0,0,0.992,2183.45,745.798)" d="M23.3,-10.5 C23.9,-10.6 24.4,-11.3 24.4,-11.9 L24.4,-17.8 C24.4,-18.8 23.7,-19.2 22.8,-19.2 L19.5,-18.5 L19.5,-33.4 L16.7,-33.4 L16.7,-17.9 L7.8,-16.1 L7.8,-30.2 L5,-30.2 L5,-15.5 L1.1,-14.7 C0.5,-14.6 0,-13.9 0,-13.3 L0,-7.5 C0,-6.4 0.8,-6.1 1.7,-6.1 L5,-6.8 L5,9.7 L1.1,10.5 C0.5,10.6 0,11.3 0,11.9 L0,17.7 C0,18.8 0.8,19.1 1.7,19.1 L5,18.4 L5,33.3 L7.8,33.3 L7.8,17.8 L16.7,16 L16.7,30.1 L19.5,30.1 L19.5,15.4 L23.3,14.7 C23.9,14.6 24.4,13.9 24.4,13.3 L24.4,7.4 C24.4,6.4 23.7,6 22.8,6 L19.5,6.7 L19.5,-9.8 L23.3,-10.5 M7.8,-7.4 L16.7,-9.2 L16.7,7.3 L7.8,9.2 L7.8,-7.4 "/>
<polyline class="LedgerLine" fill="none" stroke="#000000" stroke-width="3.97" stroke-linejoin="bevel" points="719.809,758.198 769.394,758.198"/>
<polyline class="LedgerLine" fill="none" stroke="#000000" stroke-width="3.97" stroke-linejoin="bevel" points="2561.02,1229.4 2615.38,1229.4"/>
<polyline class="LedgerLine" fill="none" stroke="#000000" stroke-width="3.97" stroke-linejoin="bevel" points="852.827,1700.6 902.412,1700.6"/>
<polyline class="Stem" fill="none" stroke="#000000" stroke-width="2.73" stroke-linejoin="bevel" points="892.368,1696.63 892.368,1613.8"/>
<polyline class="Stem" fill="none" stroke="#000000" stroke-width="2.73" stroke-linejoin="bevel" points="1821.81,1647.03 1821.81,1564.2"/>
<polyline class="Stem" fill="none" stroke="#000000" stroke-width="2.73" stroke-linejoin="bevel" points="2431.92,717.03 2431.92,634.198"/>
<polyline class="Stem" fill="none" stroke="#000000" stroke-width="2.73" stroke-linejoin="bevel" points="759.35,754.23 759.35,671.398"/>
<polyline class="Stem" fill="none" stroke="#000000" stroke-width="2.73" stroke-linejoin="bevel" points="1345.94,1159.16 1345.94,1229.4"/>
<polyline class="Stem" fill="none" stroke="#000000" stroke-width="2.73" stroke-linejoin="bevel" points="1662.88,1163.43 1662.88,1086.8"/>
<polyline class="Stem" fill="none" stroke="#000000" stroke-width="2.73" stroke-linejoin="bevel" points="857.807,741.83 857.807,658.998"/>
<polyline class="Stem" fill="none" stroke="#000000" stroke-width="2.73" stroke-linejoin="bevel" points="2296.83,2101.56 2296.83,2171.8"/>
<polyline class="Stem" fill="none" stroke="#000000" stroke-width="2.73" stroke-linejoin="bevel" points="1821.81,1175.83 1821.81,1093"/>
<polyline class="Stem" fill="none" stroke="#000000" stroke-width="2.73" stroke-linejoin="bevel" points="2260.74,2105.83 2260.74,2029.2"/>
<polyline class="Stem" fill="none" stroke="#000000" stroke-width="2.73" stroke-linejoin="bevel" points="2132.87,2089.16 2132.87,2165.6"/>
<polyline class="Stem" fill="none" stroke="#000000" stroke-width="2.73" stroke-linejoin="bevel" points="1255.16,1175.83 1255.16,1093"/>
<polyline class="Stem" fill="none" stroke="#000000" stroke-width="2.73" stroke-linejoin="bevel" points="963.472,687.965 963.472,758.198"/>
<polyline class="Stem" fill="none" stroke="#000000" stroke-width="2.73" stroke-linejoin="bevel" points="1912.6,1159.16 1912.6,1229.4"/>
<polyline class="Stem" fill="none" stroke="#000000" stroke-width="2.73" stroke-linejoin="bevel" points="2056.24,2118.23 2056.24,2035.4"/>
<polyline class="Stem" fill="none" stroke="#000000" stroke-width="2.73" stroke-linejoin="bevel" points="2025.67,1163.43 2025.67,1086.8"/>
<polyline class="Stem" fill="none" stroke="#000000" stroke-width="2.73" stroke-linejoin="bevel" points="1990.66,2130.63 1990.66,2047.8"/>
<polyline class="Stem" fill="none" stroke="#000000" stroke-width="2.73" stroke-linejoin="bevel" points="2151.04,1200.63 2151.04,1117.8"/>
<polyline class="Stem" fill="none" stroke="#000000" stroke-width="2.73" stroke-linejoin="bevel" points="1892.28,2143.03 1892.28,2060.2"/>
<polyline class="Stem" fill="none" stroke="#000000" stroke-width="2.73" stroke-linejoin="bevel" points="1786.15,2118.23 1786.15,2035.4"/>
<polyline class="Stem" fill="none" stroke="#000000" stroke-width="2.73" stroke-linejoin="bevel" points="1066.73,1146.76 1066.73,1223.2"/>
<polyline class="Stem" fill="none" stroke="#000000" stroke-width="2.73" stroke-linejoin="bevel" points="2271.33,1175.83 2271.33,1093"/>
<polyline class="Stem" fill="none" stroke="#000000" stroke-width="2.73" stroke-linejoin="bevel" points="1687.78,2105.83 1687.78,2029.2"/>
<polyline class="Stem" fill="none" stroke="#000000" stroke-width="2.73" stroke-linejoin="bevel" points="2354.9,1188.23 2354.9,1105.4"/>
<polyline class="Stem" fill="none" stroke="#000000" stroke-width="2.73" stroke-linejoin="bevel" points="1592.7,2101.56 1592.7,2171.8"/>
<polyline class="Stem" fill="none" stroke="#000000" stroke-width="2.73" stroke-linejoin="bevel" points="2480.27,1213.03 2480.27,1130.2"/>
<polyline class="Stem" fill="none" stroke="#000000" stroke-width="2.73" stroke-linejoin="bevel" points="1180.19,717.03 1180.19,634.198"/>
<polyline class="Stem" fill="none" stroke="#000000" stroke-width="2.73" stroke-linejoin="bevel" points="1516.07,2118.23 1516.07,2035.4"/>
<polyline class="Stem" fill="none" stroke="#000000" stroke-width="2.73" stroke-linejoin="bevel" points="1450.49,2105.83 1450.49,2029.2"/>
<polyline class="Stem" fill="none" stroke="#000000" stroke-width="2.73" stroke-linejoin="bevel" points="975.947,1200.63 975.947,1117.8"/>
<polyline class="Stem" fill="none" stroke="#000000" stroke-width="2.73" stroke-linejoin="bevel" points="1355.41,2101.56 1355.41,2171.8"/>
<polyline class="Stem" fill="none" stroke="#000000" stroke-width="2.73" stroke-linejoin="bevel" points="1289.82,2089.16 1289.82,2165.6"/>
<polyline class="Stem" fill="none" stroke="#000000" stroke-width="2.73" stroke-linejoin="bevel" points="892.368,1213.03 892.368,1130.2"/>
<polyline class="Stem" fill="none" stroke="#000000" stroke-width="2.73" stroke-linejoin="bevel" points="476.501,741.83 476.501,658.998"/>
<polyline class="Stem" fill="none" stroke="#000000" stroke-width="2.73" stroke-linejoin="bevel" points="1315.35,692.23 1315.35,615.598"/>
<polyline class="Stem" fill="none" stroke="#000000" stroke-width="2.73" stroke-linejoin="bevel" points="1183.7,2076.76 1183.7,2159.4"/>
<polyline class="Stem" fill="none" stroke="#000000" stroke-width="2.73" stroke-linejoin="bevel" points="1085.32,2089.16 1085.32,2165.6"/>
<polyline class="Stem" fill="none" stroke="#000000" stroke-width="2.73" stroke-linejoin="bevel" points="1019.74,2076.76 1019.74,2159.4"/>
<polyline class="Stem" fill="none" stroke="#000000" stroke-width="2.73" stroke-linejoin="bevel" points="1463.04,704.63 1463.04,621.798"/>
<polyline class="Stem" fill="none" stroke="#000000" stroke-width="2.73" stroke-linejoin="bevel" points="943.108,2105.83 943.108,2029.2"/>
<polyline class="Stem" fill="none" stroke="#000000" stroke-width="2.73" stroke-linejoin="bevel" points="848.029,2101.56 848.029,2171.8"/>
<polyline class="Stem" fill="none" stroke="#000000" stroke-width="2.73" stroke-linejoin="bevel" points="782.446,2089.16 782.446,2165.6"/>
<polyline class="Stem" fill="none" stroke="#000000" stroke-width="2.73" stroke-linejoin="bevel" points="716.864,2076.76 716.864,2159.4"/>
<polyline class="Stem" fill="none" stroke="#000000" stroke-width="2.73" stroke-linejoin="bevel" points="766.999,1200.63 766.999,1117.8"/>
<polyline class="Stem" fill="none" stroke="#000000" stroke-width="2.73" stroke-linejoin="bevel" points="766.999,1684.23 766.999,1601.4"/>
<polyline class="Stem" fill="none" stroke="#000000" stroke-width="2.73" stroke-linejoin="bevel" points="646.715,1684.23 646.715,1601.4"/>
<polyline class="Stem" fill="none" stroke="#000000" stroke-width="2.73" stroke-linejoin="bevel" points="1908.05,741.83 1908.05,658.998"/>
<polyline class="Stem" fill="none" stroke="#000000" stroke-width="2.73" stroke-linejoin="bevel" points="611.663,741.83 611.663,658.998"/>
<polyline class="Stem" fill="none" stroke="#000000" stroke-width="2.73" stroke-linejoin="bevel" points="640.232,2143.03 640.232,2060.2"/>
<polyline class="Stem" fill="none" stroke="#000000" stroke-width="2.73" stroke-linejoin="bevel" points="646.715,1200.63 646.715,1117.8"/>
<polyline class="Stem" fill="none" stroke="#000000" stroke-width="2.73" stroke-linejoin="bevel" points="975.947,1684.23 975.947,1601.4"/>
<polyline class="Stem" fill="none" stroke="#000000" stroke-width="2.73" stroke-linejoin="bevel" points="574.649,2155.43 574.649,2072.6"/>
<polyline class="Stem" fill="none" stroke="#000000" stroke-width="2.73" stroke-linejoin="bevel" points="503.349,2143.03 503.349,2060.2"/>
<polyline class="Stem" fill="none" stroke="#000000" stroke-width="2.73" stroke-linejoin="bevel" points="2095.26,704.63 2095.26,621.798"/>
<polyline class="Stem" fill="none" stroke="#000000" stroke-width="2.73" stroke-linejoin="bevel" points="1066.73,1630.36 1066.73,1700.6"/>
<polyline class="Stem" fill="none" stroke="#000000" stroke-width="2.73" stroke-linejoin="bevel" points="2244.7,741.83 2244.7,658.998"/>
<polyline class="Stem" fill="none" stroke="#000000" stroke-width="2.73" stroke-linejoin="bevel" points="2438.48,1634.63 2438.48,1558"/>
<polyline class="Stem" fill="none" stroke="#000000" stroke-width="2.73" stroke-linejoin="bevel" points="1255.16,1659.43 1255.16,1576.6"/>
<polyline class="Stem" fill="none" stroke="#000000" stroke-width="2.73" stroke-linejoin="bevel" points="1500.81,1163.43 1500.81,1086.8"/>
<polyline class="Stem" fill="none" stroke="#000000" stroke-width="2.73" stroke-linejoin="bevel" points="2283.62,1630.36 2283.62,1700.6"/>
<polyline class="Stem" fill="none" stroke="#000000" stroke-width="2.73" stroke-linejoin="bevel" points="2192.83,1647.03 2192.83,1564.2"/>
<polyline class="Stem" fill="none" stroke="#000000" stroke-width="2.73" stroke-linejoin="bevel" points="1375.44,1634.63 1375.44,1558"/>
<polyline class="Stem" fill="none" stroke="#000000" stroke-width="2.73" stroke-linejoin="bevel" points="2109.25,1634.63 2109.25,1558"/>
<polyline class="Stem" fill="none" stroke="#000000" stroke-width="2.73" stroke-linejoin="bevel" points="1500.81,1647.03 1500.81,1564.2"/>
<polyline class="Stem" fill="none" stroke="#000000" stroke-width="2.73" stroke-linejoin="bevel" points="2025.67,1647.03 2025.67,1564.2"/>
<polyline class="Stem" fill="none" stroke="#000000" stroke-width="2.73" stroke-linejoin="bevel" points="1942.09,1634.63 1942.09,1558"/>
<polyline class="Stem" fill="none" stroke="#000000" stroke-width="2.73" stroke-linejoin="bevel" points="1662.88,1647.03 1662.88,1564.2"/>
<path class="Note" transform="matrix(0.992,0,0,0.992,1469.95,1167.4)" d="M21.3,-13.2 C11.6,-13.2 0,-5.1 0,4.2 C0,8.5 3.1,13.3 11.2,13.3 C21.6,13.3 32.5,4.8 32.5,-4 C32.5,-9.9 27.5,-13.2 21.3,-13.2 M7.5,8.6 C4.2,8.6 3.5,5.9 3.5,5 C3.5,0.1 20.3,-8.5 25,-8.5 C27.4,-8.5 29,-7.1 29,-4.9 C29,0.1 12.1,8.6 7.5,8.6"/>
<path class="Note" transform="matrix(0.992,0,0,0.992,1656.92,2109.8)" d="M21.3,-13.2 C11.6,-13.2 0,-5.1 0,4.2 C0,8.5 3.1,13.3 11.2,13.3 C21.6,13.3 32.5,4.8 32.5,-4 C32.5,-9.9 27.5,-13.2 21.3,-13.2 M7.5,8.6 C4.2,8.6 3.5,5.9 3.5,5 C3.5,0.1 20.3,-8.5 25,-8.5 C27.4,-8.5 29,-7.1 29,-4.9 C29,0.1 12.1,8.6 7.5,8.6"/>
<path class="Note" transform="matrix(0.992,0,0,0.992,736.138,1688.2)" d="M21.3,-13.2 C11.6,-13.2 0,-5.1 0,4.2 C0,8.5 3.1,13.3 11.2,13.3 C21.6,13.3 32.5,4.8 32.5,-4 C32.5,-9.9 27.5,-13.2 21.3,-13.2 M7.5,8.6 C4.2,8.6 3.5,5.9 3.5,5 C3.5,0.1 20.3,-8.5 25,-8.5 C27.4,-8.5 29,-7.1 29,-4.9 C29,0.1 12.1,8.6 7.5,8.6"/>
<path class="Note" transform="matrix(0.992,0,0,0.992,2588.24,2122.2)" d="M18.7,-13.6 C4.9,-13.6 0,-6.6 0,-0.1 C0,6.4 4.9,13.4 18.7,13.4 C32.5,13.4 37.3,6.4 37.3,-0.1 C37.3,-6.6 32.5,-13.6 18.7,-13.6 M19.5,10.2 C16.7,10.2 14.8,9.4 13.5,6.9 C12.2,4.4 10.4,-2.1 10.3,-4.7 C10.1,-7.4 11.1,-9 13.5,-9.8 C14.7,-10.2 16.3,-10.4 17.9,-10.4 C20.6,-10.4 22.4,-9.8 23.8,-7.1 C25.2,-4.5 27.1,2 27.1,4.5 C27.1,9.4 23.5,10.2 19.5,10.2"/>
<path class="Note" transform="matrix(0.992,0,0,0.992,1790.95,1651)" d="M0,4.2 C0,8.5 3.1,13.3 11.2,13.3 C21.6,13.3 32.5,4.8 32.5,-4 C32.5,-9.9 27.5,-13.2 21.3,-13.2 C11.6,-13.2 0,-5 0,4.2"/>
<path class="Note" transform="matrix(0.992,0,0,0.992,2536.22,733.398)" d="M18.7,-13.6 C4.9,-13.6 0,-6.6 0,-0.1 C0,6.4 4.9,13.4 18.7,13.4 C32.5,13.4 37.3,6.4 37.3,-0.1 C37.3,-6.6 32.5,-13.6 18.7,-13.6 M19.5,10.2 C16.7,10.2 14.8,9.4 13.5,6.9 C12.2,4.4 10.4,-2.1 10.3,-4.7 C10.1,-7.4 11.1,-9 13.5,-9.8 C14.7,-10.2 16.3,-10.4 17.9,-10.4 C20.6,-10.4 22.4,-9.8 23.8,-7.1 C25.2,-4.5 27.1,2 27.1,4.5 C27.1,9.4 23.5,10.2 19.5,10.2"/>
<path class="Note" transform="matrix(0.992,0,0,0.992,580.803,745.798)" d="M21.3,-13.2 C11.6,-13.2 0,-5.1 0,4.2 C0,8.5 3.1,13.3 11.2,13.3 C21.6,13.3 32.5,4.8 32.5,-4 C32.5,-9.9 27.5,-13.2 21.3,-13.2 M7.5,8.6 C4.2,8.6 3.5,5.9 3.5,5 C3.5,0.1 20.3,-8.5 25,-8.5 C27.4,-8.5 29,-7.1 29,-4.9 C29,0.1 12.1,8.6 7.5,8.6"/>
<path class="Note" transform="matrix(0.992,0,0,0.992,445.641,745.798)" d="M0,4.2 C0,8.5 3.1,13.3 11.2,13.3 C21.6,13.3 32.5,4.8 32.5,-4 C32.5,-9.9 27.5,-13.2 21.3,-13.2 C11.6,-13.2 0,-5 0,4.2"/>
<path class="Note" transform="matrix(0.992,0,0,0.992,1911.23,1638.6)" d="M0,4.2 C0,8.5 3.1,13.3 11.2,13.3 C21.6,13.3 32.5,4.8 32.5,-4 C32.5,-9.9 27.5,-13.2 21.3,-13.2 C11.6,-13.2 0,-5 0,4.2"/>
<path class="Note" transform="matrix(0.992,0,0,0.992,1469.95,1651)" d="M21.3,-13.2 C11.6,-13.2 0,-5.1 0,4.2 C0,8.5 3.1,13.3 11.2,13.3 C21.6,13.3 32.5,4.8 32.5,-4 C32.5,-9.9 27.5,-13.2 21.3,-13.2 M7.5,8.6 C4.2,8.6 3.5,5.9 3.5,5 C3.5,0.1 20.3,-8.5 25,-8.5 C27.4,-8.5 29,-7.1 29,-4.9 C29,0.1 12.1,8.6 7.5,8.6"/>
<path class="Note" transform="matrix(0.992,0,0,0.992,1994.81,1651)" d="M0,4.2 C0,8.5 3.1,13.3 11.2,13.3 C21.6,13.3 32.5,4.8 32.5,-4 C32.5,-9.9 27.5,-13.2 21.3,-13.2 C11.6,-13.2 0,-5 0,4.2"/>
<path class="Note" transform="matrix(0.992,0,0,0.992,1344.58,1638.6)" d="M21.3,-13.2 C11.6,-13.2 0,-5.1 0,4.2 C0,8.5 3.1,13.3 11.2,13.3 C21.6,13.3 32.5,4.8 32.5,-4 C32.5,-9.9 27.5,-13.2 21.3,-13.2 M7.5,8.6 C4.2,8.6 3.5,5.9 3.5,5 C3.5,0.1 20.3,-8.5 25,-8.5 C27.4,-8.5 29,-7.1 29,-4.9 C29,0.1 12.1,8.6 7.5,8.6"/>
<path class="Note" transform="matrix(0.992,0,0,0.992,2078.39,1638.6)" d="M0,4.2 C0,8.5 3.1,13.3 11.2,13.3 C21.6,13.3 32.5,4.8 32.5,-4 C32.5,-9.9 27.5,-13.2 21.3,-13.2 C11.6,-13.2 0,-5 0,4.2"/>
<path class="Note" transform="matrix(0.992,0,0,0.992,1911.23,1155)" d="M0,4.2 C0,8.5 3.1,13.3 11.2,13.3 C21.6,13.3 32.5,4.8 32.5,-4 C32.5,-9.9 27.5,-13.2 21.3,-13.2 C11.6,-13.2 0,-5 0,4.2"/>
<path class="Note" transform="matrix(0.992,0,0,0.992,2161.97,1651)" d="M0,4.2 C0,8.5 3.1,13.3 11.2,13.3 C21.6,13.3 32.5,4.8 32.5,-4 C32.5,-9.9 27.5,-13.2 21.3,-13.2 C11.6,-13.2 0,-5 0,4.2"/>
<path class="Note" transform="matrix(0.992,0,0,0.992,2401.06,720.998)" d="M0,4.2 C0,8.5 3.1,13.3 11.2,13.3 C21.6,13.3 32.5,4.8 32.5,-4 C32.5,-9.9 27.5,-13.2 21.3,-13.2 C11.6,-13.2 0,-5 0,4.2"/>
<path class="Note" transform="matrix(0.992,0,0,0.992,1959.79,2134.6)" d="M0,4.2 C0,8.5 3.1,13.3 11.2,13.3 C21.6,13.3 32.5,4.8 32.5,-4 C32.5,-9.9 27.5,-13.2 21.3,-13.2 C11.6,-13.2 0,-5 0,4.2"/>
<path class="Note" transform="matrix(0.992,0,0,0.992,1224.3,1663.4)" d="M0,4.2 C0,8.5 3.1,13.3 11.2,13.3 C21.6,13.3 32.5,4.8 32.5,-4 C32.5,-9.9 27.5,-13.2 21.3,-13.2 C11.6,-13.2 0,-5 0,4.2"/>
<path class="Note" transform="matrix(0.992,0,0,0.992,2282.25,1626.2)" d="M21.3,-13.2 C11.6,-13.2 0,-5.1 0,4.2 C0,8.5 3.1,13.3 11.2,13.3 C21.6,13.3 32.5,4.8 32.5,-4 C32.5,-9.9 27.5,-13.2 21.3,-13.2 M7.5,8.6 C4.2,8.6 3.5,5.9 3.5,5 C3.5,0.1 20.3,-8.5 25,-8.5 C27.4,-8.5 29,-7.1 29,-4.9 C29,0.1 12.1,8.6 7.5,8.6"/>
<path class="Note" transform="matrix(0.992,0,0,0.992,1344.58,1155)" d="M21.3,-13.2 C11.6,-13.2 0,-5.1 0,4.2 C0,8.5 3.1,13.3 11.2,13.3 C21.6,13.3 32.5,4.8 32.5,-4 C32.5,-9.9 27.5,-13.2 21.3,-13.2 M7.5,8.6 C4.2,8.6 3.5,5.9 3.5,5 C3.5,0.1 20.3,-8.5 25,-8.5 C27.4,-8.5 29,-7.1 29,-4.9 C29,0.1 12.1,8.6 7.5,8.6"/>
<path class="Note" transform="matrix(0.992,0,0,0.992,2407.62,1638.6)" d="M21.3,-13.2 C11.6,-13.2 0,-5.1 0,4.2 C0,8.5 3.1,13.3 11.2,13.3 C21.6,13.3 32.5,4.8 32.5,-4 C32.5,-9.9 27.5,-13.2 21.3,-13.2 M7.5,8.6 C4.2,8.6 3.5,5.9 3.5,5 C3.5,0.1 20.3,-8.5 25,-8.5 C27.4,-8.5 29,-7.1 29,-4.9 C29,0.1 12.1,8.6 7.5,8.6"/>
<path class="Note" transform="matrix(0.992,0,0,0.992,2401.59,2122.2)" d="M18.7,-13.6 C4.9,-13.6 0,-6.6 0,-0.1 C0,6.4 4.9,13.4 18.7,13.4 C32.5,13.4 37.3,6.4 37.3,-0.1 C37.3,-6.6 32.5,-13.6 18.7,-13.6 M19.5,10.2 C16.7,10.2 14.8,9.4 13.5,6.9 C12.2,4.4 10.4,-2.1 10.3,-4.7 C10.1,-7.4 11.1,-9 13.5,-9.8 C14.7,-10.2 16.3,-10.4 17.9,-10.4 C20.6,-10.4 22.4,-9.8 23.8,-7.1 C25.2,-4.5 27.1,2 27.1,4.5 C27.1,9.4 23.5,10.2 19.5,10.2"/>
<path class="Note" transform="matrix(0.992,0,0,0.992,728.489,758.198)" d="M0,4.2 C0,8.5 3.1,13.3 11.2,13.3 C21.6,13.3 32.5,4.8 32.5,-4 C32.5,-9.9 27.5,-13.2 21.3,-13.2 C11.6,-13.2 0,-5 0,4.2"/>
<path class="Note" transform="matrix(0.992,0,0,0.992,2213.84,745.798)" d="M21.3,-13.2 C11.6,-13.2 0,-5.1 0,4.2 C0,8.5 3.1,13.3 11.2,13.3 C21.6,13.3 32.5,4.8 32.5,-4 C32.5,-9.9 27.5,-13.2 21.3,-13.2 M7.5,8.6 C4.2,8.6 3.5,5.9 3.5,5 C3.5,0.1 20.3,-8.5 25,-8.5 C27.4,-8.5 29,-7.1 29,-4.9 C29,0.1 12.1,8.6 7.5,8.6"/>
<path class="Note" transform="matrix(0.992,0,0,0.992,2569.7,1675.8)" d="M18.7,-13.6 C4.9,-13.6 0,-6.6 0,-0.1 C0,6.4 4.9,13.4 18.7,13.4 C32.5,13.4 37.3,6.4 37.3,-0.1 C37.3,-6.6 32.5,-13.6 18.7,-13.6 M19.5,10.2 C16.7,10.2 14.8,9.4 13.5,6.9 C12.2,4.4 10.4,-2.1 10.3,-4.7 C10.1,-7.4 11.1,-9 13.5,-9.8 C14.7,-10.2 16.3,-10.4 17.9,-10.4 C20.6,-10.4 22.4,-9.8 23.8,-7.1 C25.2,-4.5 27.1,2 27.1,4.5 C27.1,9.4 23.5,10.2 19.5,10.2"/>
<path class="Note" transform="matrix(0.992,0,0,0.992,1065.37,1626.2)" d="M21.3,-13.2 C11.6,-13.2 0,-5.1 0,4.2 C0,8.5 3.1,13.3 11.2,13.3 C21.6,13.3 32.5,4.8 32.5,-4 C32.5,-9.9 27.5,-13.2 21.3,-13.2 M7.5,8.6 C4.2,8.6 3.5,5.9 3.5,5 C3.5,0.1 20.3,-8.5 25,-8.5 C27.4,-8.5 29,-7.1 29,-4.9 C29,0.1 12.1,8.6 7.5,8.6"/>
<path class="Note" transform="matrix(0.992,0,0,0.992,2064.4,708.598)" d="M0,4.2 C0,8.5 3.1,13.3 11.2,13.3 C21.6,13.3 32.5,4.8 32.5,-4 C32.5,-9.9 27.5,-13.2 21.3,-13.2 C11.6,-13.2 0,-5 0,4.2"/>
<path class="Note" transform="matrix(0.992,0,0,0.992,1632.02,1167.4)" d="M21.3,-13.2 C11.6,-13.2 0,-5.1 0,4.2 C0,8.5 3.1,13.3 11.2,13.3 C21.6,13.3 32.5,4.8 32.5,-4 C32.5,-9.9 27.5,-13.2 21.3,-13.2 M7.5,8.6 C4.2,8.6 3.5,5.9 3.5,5 C3.5,0.1 20.3,-8.5 25,-8.5 C27.4,-8.5 29,-7.1 29,-4.9 C29,0.1 12.1,8.6 7.5,8.6"/>
<path class="Note" transform="matrix(0.992,0,0,0.992,2295.46,2097.4)" d="M0,4.2 C0,8.5 3.1,13.3 11.2,13.3 C21.6,13.3 32.5,4.8 32.5,-4 C32.5,-9.9 27.5,-13.2 21.3,-13.2 C11.6,-13.2 0,-5 0,4.2"/>
<path class="Note" transform="matrix(0.992,0,0,0.992,1994.81,1167.4)" d="M21.3,-13.2 C11.6,-13.2 0,-5.1 0,4.2 C0,8.5 3.1,13.3 11.2,13.3 C21.6,13.3 32.5,4.8 32.5,-4 C32.5,-9.9 27.5,-13.2 21.3,-13.2 M7.5,8.6 C4.2,8.6 3.5,5.9 3.5,5 C3.5,0.1 20.3,-8.5 25,-8.5 C27.4,-8.5 29,-7.1 29,-4.9 C29,0.1 12.1,8.6 7.5,8.6"/>
<path class="Note" transform="matrix(0.992,0,0,0.992,1861.42,2147)" d="M21.3,-13.2 C11.6,-13.2 0,-5.1 0,4.2 C0,8.5 3.1,13.3 11.2,13.3 C21.6,13.3 32.5,4.8 32.5,-4 C32.5,-9.9 27.5,-13.2 21.3,-13.2 M7.5,8.6 C4.2,8.6 3.5,5.9 3.5,5 C3.5,0.1 20.3,-8.5 25,-8.5 C27.4,-8.5 29,-7.1 29,-4.9 C29,0.1 12.1,8.6 7.5,8.6"/>
<path class="Note" transform="matrix(0.992,0,0,0.992,2229.88,2109.8)" d="M0,4.2 C0,8.5 3.1,13.3 11.2,13.3 C21.6,13.3 32.5,4.8 32.5,-4 C32.5,-9.9 27.5,-13.2 21.3,-13.2 C11.6,-13.2 0,-5 0,4.2"/>
<path class="Note" transform="matrix(0.992,0,0,0.992,1790.95,1179.8)" d="M0,4.2 C0,8.5 3.1,13.3 11.2,13.3 C21.6,13.3 32.5,4.8 32.5,-4 C32.5,-9.9 27.5,-13.2 21.3,-13.2 C11.6,-13.2 0,-5 0,4.2"/>
<path class="Note" transform="matrix(0.992,0,0,0.992,472.489,2147)" d="M0,4.2 C0,8.5 3.1,13.3 11.2,13.3 C21.6,13.3 32.5,4.8 32.5,-4 C32.5,-9.9 27.5,-13.2 21.3,-13.2 C11.6,-13.2 0,-5 0,4.2"/>
<path class="Note" transform="matrix(0.992,0,0,0.992,945.087,1688.2)" d="M0,4.2 C0,8.5 3.1,13.3 11.2,13.3 C21.6,13.3 32.5,4.8 32.5,-4 C32.5,-9.9 27.5,-13.2 21.3,-13.2 C11.6,-13.2 0,-5 0,4.2"/>
<path class="Note" transform="matrix(0.992,0,0,0.992,543.789,2159.4)" d="M0,4.2 C0,8.5 3.1,13.3 11.2,13.3 C21.6,13.3 32.5,4.8 32.5,-4 C32.5,-9.9 27.5,-13.2 21.3,-13.2 C11.6,-13.2 0,-5 0,4.2"/>
<path class="Note" transform="matrix(0.992,0,0,0.992,1877.19,745.798)" d="M21.3,-13.2 C11.6,-13.2 0,-5.1 0,4.2 C0,8.5 3.1,13.3 11.2,13.3 C21.6,13.3 32.5,4.8 32.5,-4 C32.5,-9.9 27.5,-13.2 21.3,-13.2 M7.5,8.6 C4.2,8.6 3.5,5.9 3.5,5 C3.5,0.1 20.3,-8.5 25,-8.5 C27.4,-8.5 29,-7.1 29,-4.9 C29,0.1 12.1,8.6 7.5,8.6"/>
<path class="Note" transform="matrix(0.992,0,0,0.992,861.507,1700.6)" d="M0,4.2 C0,8.5 3.1,13.3 11.2,13.3 C21.6,13.3 32.5,4.8 32.5,-4 C32.5,-9.9 27.5,-13.2 21.3,-13.2 C11.6,-13.2 0,-5 0,4.2"/>
<path class="Note" transform="matrix(0.992,0,0,0.992,609.371,2147)" d="M0,4.2 C0,8.5 3.1,13.3 11.2,13.3 C21.6,13.3 32.5,4.8 32.5,-4 C32.5,-9.9 27.5,-13.2 21.3,-13.2 C11.6,-13.2 0,-5 0,4.2"/>
<path class="Note" transform="matrix(0.992,0,0,0.992,615.855,1204.6)" d="M0,4.2 C0,8.5 3.1,13.3 11.2,13.3 C21.6,13.3 32.5,4.8 32.5,-4 C32.5,-9.9 27.5,-13.2 21.3,-13.2 C11.6,-13.2 0,-5 0,4.2"/>
<path class="Note" transform="matrix(0.992,0,0,0.992,1616.57,708.598)" d="M18.7,-13.6 C4.9,-13.6 0,-6.6 0,-0.1 C0,6.4 4.9,13.4 18.7,13.4 C32.5,13.4 37.3,6.4 37.3,-0.1 C37.3,-6.6 32.5,-13.6 18.7,-13.6 M19.5,10.2 C16.7,10.2 14.8,9.4 13.5,6.9 C12.2,4.4 10.4,-2.1 10.3,-4.7 C10.1,-7.4 11.1,-9 13.5,-9.8 C14.7,-10.2 16.3,-10.4 17.9,-10.4 C20.6,-10.4 22.4,-9.8 23.8,-7.1 C25.2,-4.5 27.1,2 27.1,4.5 C27.1,9.4 23.5,10.2 19.5,10.2"/>
<path class="Note" transform="matrix(0.992,0,0,0.992,615.855,1688.2)" d="M0,4.2 C0,8.5 3.1,13.3 11.2,13.3 C21.6,13.3 32.5,4.8 32.5,-4 C32.5,-9.9 27.5,-13.2 21.3,-13.2 C11.6,-13.2 0,-5 0,4.2"/>
<path class="Note" transform="matrix(0.992,0,0,0.992,715.5,2072.6)" d="M0,4.2 C0,8.5 3.1,13.3 11.2,13.3 C21.6,13.3 32.5,4.8 32.5,-4 C32.5,-9.9 27.5,-13.2 21.3,-13.2 C11.6,-13.2 0,-5 0,4.2"/>
<path class="Note" transform="matrix(0.992,0,0,0.992,2120.18,1204.6)" d="M0,4.2 C0,8.5 3.1,13.3 11.2,13.3 C21.6,13.3 32.5,4.8 32.5,-4 C32.5,-9.9 27.5,-13.2 21.3,-13.2 C11.6,-13.2 0,-5 0,4.2"/>
<path class="Note" transform="matrix(0.992,0,0,0.992,781.082,2085)" d="M0,4.2 C0,8.5 3.1,13.3 11.2,13.3 C21.6,13.3 32.5,4.8 32.5,-4 C32.5,-9.9 27.5,-13.2 21.3,-13.2 C11.6,-13.2 0,-5 0,4.2"/>
<path class="Note" transform="matrix(0.992,0,0,0.992,962.108,683.798)" d="M21.3,-13.2 C11.6,-13.2 0,-5.1 0,4.2 C0,8.5 3.1,13.3 11.2,13.3 C21.6,13.3 32.5,4.8 32.5,-4 C32.5,-9.9 27.5,-13.2 21.3,-13.2 M7.5,8.6 C4.2,8.6 3.5,5.9 3.5,5 C3.5,0.1 20.3,-8.5 25,-8.5 C27.4,-8.5 29,-7.1 29,-4.9 C29,0.1 12.1,8.6 7.5,8.6"/>
<path class="Note" transform="matrix(0.992,0,0,0.992,846.665,2097.4)" d="M0,4.2 C0,8.5 3.1,13.3 11.2,13.3 C21.6,13.3 32.5,4.8 32.5,-4 C32.5,-9.9 27.5,-13.2 21.3,-13.2 C11.6,-13.2 0,-5 0,4.2"/>
<path class="Note" transform="matrix(0.992,0,0,0.992,2131.51,2085)" d="M21.3,-13.2 C11.6,-13.2 0,-5.1 0,4.2 C0,8.5 3.1,13.3 11.2,13.3 C21.6,13.3 32.5,4.8 32.5,-4 C32.5,-9.9 27.5,-13.2 21.3,-13.2 M7.5,8.6 C4.2,8.6 3.5,5.9 3.5,5 C3.5,0.1 20.3,-8.5 25,-8.5 C27.4,-8.5 29,-7.1 29,-4.9 C29,0.1 12.1,8.6 7.5,8.6"/>
<path class="Note" transform="matrix(0.992,0,0,0.992,912.247,2109.8)" d="M0,4.2 C0,8.5 3.1,13.3 11.2,13.3 C21.6,13.3 32.5,4.8 32.5,-4 C32.5,-9.9 27.5,-13.2 21.3,-13.2 C11.6,-13.2 0,-5 0,4.2"/>
<path class="Note" transform="matrix(0.992,0,0,0.992,1432.17,708.598)" d="M21.3,-13.2 C11.6,-13.2 0,-5.1 0,4.2 C0,8.5 3.1,13.3 11.2,13.3 C21.6,13.3 32.5,4.8 32.5,-4 C32.5,-9.9 27.5,-13.2 21.3,-13.2 M7.5,8.6 C4.2,8.6 3.5,5.9 3.5,5 C3.5,0.1 20.3,-8.5 25,-8.5 C27.4,-8.5 29,-7.1 29,-4.9 C29,0.1 12.1,8.6 7.5,8.6"/>
<path class="Note" transform="matrix(0.992,0,0,0.992,1632.02,1651)" d="M21.3,-13.2 C11.6,-13.2 0,-5.1 0,4.2 C0,8.5 3.1,13.3 11.2,13.3 C21.6,13.3 32.5,4.8 32.5,-4 C32.5,-9.9 27.5,-13.2 21.3,-13.2 M7.5,8.6 C4.2,8.6 3.5,5.9 3.5,5 C3.5,0.1 20.3,-8.5 25,-8.5 C27.4,-8.5 29,-7.1 29,-4.9 C29,0.1 12.1,8.6 7.5,8.6"/>
<path class="Note" transform="matrix(0.992,0,0,0.992,826.947,745.798)" d="M0,4.2 C0,8.5 3.1,13.3 11.2,13.3 C21.6,13.3 32.5,4.8 32.5,-4 C32.5,-9.9 27.5,-13.2 21.3,-13.2 C11.6,-13.2 0,-5 0,4.2"/>
<path class="Note" transform="matrix(0.992,0,0,0.992,1018.38,2072.6)" d="M0,4.2 C0,8.5 3.1,13.3 11.2,13.3 C21.6,13.3 32.5,4.8 32.5,-4 C32.5,-9.9 27.5,-13.2 21.3,-13.2 C11.6,-13.2 0,-5 0,4.2"/>
<path class="Note" transform="matrix(0.992,0,0,0.992,1755.29,2122.2)" d="M0,4.2 C0,8.5 3.1,13.3 11.2,13.3 C21.6,13.3 32.5,4.8 32.5,-4 C32.5,-9.9 27.5,-13.2 21.3,-13.2 C11.6,-13.2 0,-5 0,4.2"/>
<path class="Note" transform="matrix(0.992,0,0,0.992,1083.96,2085)" d="M21.3,-13.2 C11.6,-13.2 0,-5.1 0,4.2 C0,8.5 3.1,13.3 11.2,13.3 C21.6,13.3 32.5,4.8 32.5,-4 C32.5,-9.9 27.5,-13.2 21.3,-13.2 M7.5,8.6 C4.2,8.6 3.5,5.9 3.5,5 C3.5,0.1 20.3,-8.5 25,-8.5 C27.4,-8.5 29,-7.1 29,-4.9 C29,0.1 12.1,8.6 7.5,8.6"/>
<path class="Note" transform="matrix(0.992,0,0,0.992,1065.37,1142.6)" d="M21.3,-13.2 C11.6,-13.2 0,-5.1 0,4.2 C0,8.5 3.1,13.3 11.2,13.3 C21.6,13.3 32.5,4.8 32.5,-4 C32.5,-9.9 27.5,-13.2 21.3,-13.2 M7.5,8.6 C4.2,8.6 3.5,5.9 3.5,5 C3.5,0.1 20.3,-8.5 25,-8.5 C27.4,-8.5 29,-7.1 29,-4.9 C29,0.1 12.1,8.6 7.5,8.6"/>
<path class="Note" transform="matrix(0.992,0,0,0.992,1182.33,2072.6)" d="M0,4.2 C0,8.5 3.1,13.3 11.2,13.3 C21.6,13.3 32.5,4.8 32.5,-4 C32.5,-9.9 27.5,-13.2 21.3,-13.2 C11.6,-13.2 0,-5 0,4.2"/>
<path class="Note" transform="matrix(0.992,0,0,0.992,1284.49,696.198)" d="M21.3,-13.2 C11.6,-13.2 0,-5.1 0,4.2 C0,8.5 3.1,13.3 11.2,13.3 C21.6,13.3 32.5,4.8 32.5,-4 C32.5,-9.9 27.5,-13.2 21.3,-13.2 M7.5,8.6 C4.2,8.6 3.5,5.9 3.5,5 C3.5,0.1 20.3,-8.5 25,-8.5 C27.4,-8.5 29,-7.1 29,-4.9 C29,0.1 12.1,8.6 7.5,8.6"/>
<path class="Note" transform="matrix(0.992,0,0,0.992,736.138,1204.6)" d="M21.3,-13.2 C11.6,-13.2 0,-5.1 0,4.2 C0,8.5 3.1,13.3 11.2,13.3 C21.6,13.3 32.5,4.8 32.5,-4 C32.5,-9.9 27.5,-13.2 21.3,-13.2 M7.5,8.6 C4.2,8.6 3.5,5.9 3.5,5 C3.5,0.1 20.3,-8.5 25,-8.5 C27.4,-8.5 29,-7.1 29,-4.9 C29,0.1 12.1,8.6 7.5,8.6"/>
<path class="Note" transform="matrix(0.992,0,0,0.992,2569.7,1241.8)" d="M18.7,-13.6 C4.9,-13.6 0,-6.6 0,-0.1 C0,6.4 4.9,13.4 18.7,13.4 C32.5,13.4 37.3,6.4 37.3,-0.1 C37.3,-6.6 32.5,-13.6 18.7,-13.6 M19.5,10.2 C16.7,10.2 14.8,9.4 13.5,6.9 C12.2,4.4 10.4,-2.1 10.3,-4.7 C10.1,-7.4 11.1,-9 13.5,-9.8 C14.7,-10.2 16.3,-10.4 17.9,-10.4 C20.6,-10.4 22.4,-9.8 23.8,-7.1 C25.2,-4.5 27.1,2 27.1,4.5 C27.1,9.4 23.5,10.2 19.5,10.2"/>
<path class="Note" transform="matrix(0.992,0,0,0.992,1288.46,2085)" d="M0,4.2 C0,8.5 3.1,13.3 11.2,13.3 C21.6,13.3 32.5,4.8 32.5,-4 C32.5,-9.9 27.5,-13.2 21.3,-13.2 C11.6,-13.2 0,-5 0,4.2"/>
<path class="Note" transform="matrix(0.992,0,0,0.992,861.507,1217)" d="M0,4.2 C0,8.5 3.1,13.3 11.2,13.3 C21.6,13.3 32.5,4.8 32.5,-4 C32.5,-9.9 27.5,-13.2 21.3,-13.2 C11.6,-13.2 0,-5 0,4.2"/>
<path class="Note" transform="matrix(0.992,0,0,0.992,1354.04,2097.4)" d="M0,4.2 C0,8.5 3.1,13.3 11.2,13.3 C21.6,13.3 32.5,4.8 32.5,-4 C32.5,-9.9 27.5,-13.2 21.3,-13.2 C11.6,-13.2 0,-5 0,4.2"/>
<path class="Note" transform="matrix(0.992,0,0,0.992,1224.3,1179.8)" d="M0,4.2 C0,8.5 3.1,13.3 11.2,13.3 C21.6,13.3 32.5,4.8 32.5,-4 C32.5,-9.9 27.5,-13.2 21.3,-13.2 C11.6,-13.2 0,-5 0,4.2"/>
<path class="Note" transform="matrix(0.992,0,0,0.992,1419.63,2109.8)" d="M0,4.2 C0,8.5 3.1,13.3 11.2,13.3 C21.6,13.3 32.5,4.8 32.5,-4 C32.5,-9.9 27.5,-13.2 21.3,-13.2 C11.6,-13.2 0,-5 0,4.2"/>
<path class="Note" transform="matrix(0.992,0,0,0.992,945.087,1204.6)" d="M0,4.2 C0,8.5 3.1,13.3 11.2,13.3 C21.6,13.3 32.5,4.8 32.5,-4 C32.5,-9.9 27.5,-13.2 21.3,-13.2 C11.6,-13.2 0,-5 0,4.2"/>
<path class="Note" transform="matrix(0.992,0,0,0.992,1485.21,2122.2)" d="M0,4.2 C0,8.5 3.1,13.3 11.2,13.3 C21.6,13.3 32.5,4.8 32.5,-4 C32.5,-9.9 27.5,-13.2 21.3,-13.2 C11.6,-13.2 0,-5 0,4.2"/>
<path class="Note" transform="matrix(0.992,0,0,0.992,1149.33,720.998)" d="M0,4.2 C0,8.5 3.1,13.3 11.2,13.3 C21.6,13.3 32.5,4.8 32.5,-4 C32.5,-9.9 27.5,-13.2 21.3,-13.2 C11.6,-13.2 0,-5 0,4.2"/>
<path class="Note" transform="matrix(0.992,0,0,0.992,2449.41,1217)" d="M0,4.2 C0,8.5 3.1,13.3 11.2,13.3 C21.6,13.3 32.5,4.8 32.5,-4 C32.5,-9.9 27.5,-13.2 21.3,-13.2 C11.6,-13.2 0,-5 0,4.2"/>
<path class="Note" transform="matrix(0.992,0,0,0.992,2324.04,1192.2)" d="M21.3,-13.2 C11.6,-13.2 0,-5.1 0,4.2 C0,8.5 3.1,13.3 11.2,13.3 C21.6,13.3 32.5,4.8 32.5,-4 C32.5,-9.9 27.5,-13.2 21.3,-13.2 M7.5,8.6 C4.2,8.6 3.5,5.9 3.5,5 C3.5,0.1 20.3,-8.5 25,-8.5 C27.4,-8.5 29,-7.1 29,-4.9 C29,0.1 12.1,8.6 7.5,8.6"/>
<path class="Note" transform="matrix(0.992,0,0,0.992,1591.34,2097.4)" d="M0,4.2 C0,8.5 3.1,13.3 11.2,13.3 C21.6,13.3 32.5,4.8 32.5,-4 C32.5,-9.9 27.5,-13.2 21.3,-13.2 C11.6,-13.2 0,-5 0,4.2"/>
<path class="Note" transform="matrix(0.992,0,0,0.992,2240.46,1179.8)" d="M0,4.2 C0,8.5 3.1,13.3 11.2,13.3 C21.6,13.3 32.5,4.8 32.5,-4 C32.5,-9.9 27.5,-13.2 21.3,-13.2 C11.6,-13.2 0,-5 0,4.2"/>
<path class="Note" transform="matrix(0.992,0,0,0.992,2025.38,2122.2)" d="M0,4.2 C0,8.5 3.1,13.3 11.2,13.3 C21.6,13.3 32.5,4.8 32.5,-4 C32.5,-9.9 27.5,-13.2 21.3,-13.2 C11.6,-13.2 0,-5 0,4.2"/>
<path class="Clef" transform="matrix(0.992,0,0,0.992,232.438,1651)" d="M12.3,51.3 C12.3,57.9 17.3,66.6 30.8,66.6 C35.5,66.6 39.6,65.4 43.2,63.2 C48.6,59.4 50,52.8 50,46.5 C50,42.6 49.4,38.1 48.4,32.4 C48.1,30.4 47.5,27.4 46.9,23.5 C56.7,20.3 64,10.1 64,-0.2 C64,-15.3 53.3,-25.5 38.7,-25.5 C37.7,-31.5 36.7,-37.4 35.9,-43 C46.4,-54.1 53.7,-66.6 53.7,-82.5 C53.7,-91.6 50.9,-99 49.3,-102.6 C46.9,-107.7 44,-111.2 42.2,-111.2 C41.5,-111.2 38.4,-110 35.1,-106.1 C28.7,-98.5 26.9,-85.7 26.9,-77.3 C26.9,-71.9 27.4,-67 29.1,-55.8 C29,-55.7 23.8,-50.4 21.7,-48.7 C12.6,-40.3 0,-28.1 0,-8.1 C0,10.6 16.3,25.3 34.9,25.3 C37.8,25.3 40.5,25 42.8,24.6 C44.7,34.2 45.9,41.2 45.9,46.5 C45.9,56.9 40.5,62.4 30.4,62.4 C28,62.4 25.9,61.9 25.7,61.9 C25.6,61.8 25.4,61.7 25.4,61.6 C25.4,61.4 25.6,61.3 25.9,61.3 C30.6,60.5 35.3,56.5 35.3,50.1 C35.3,44.7 31.2,39 23.7,39 C16.7,39 12.3,44.7 12.3,51.3 M33.2,-82.2 C34.1,-86.2 38.7,-96.7 43.9,-96.7 C45.4,-96.7 47.8,-91.9 47.8,-84.9 C47.8,-74.5 40.1,-66.7 33.2,-59.9 C32.6,-63.9 32.1,-67.8 32.1,-72 C32.1,-75.7 32.4,-79.1 33.2,-82.2 M42,20.6 C40,21 38.1,21.2 36.2,21.2 C21.9,21.2 9.7,11.2 9.7,-3.9 C9.7,-16.1 18.3,-27 27.1,-34.6 C28.8,-36.1 30.4,-37.5 31.9,-39 C32.8,-33.6 33.5,-28.9 34.2,-24.8 C25.1,-22.1 18.9,-12.5 18.9,-3.1 C18.9,3.9 24.4,13.5 32.4,13.5 C33.2,13.5 34.1,13.1 34.1,12.2 C34.1,11.3 33.1,10.8 31.9,10 C28,7.6 25.8,5 25.8,0.1 C25.8,-6 30.4,-10.9 36.2,-12.3 L42,20.6 M56.2,2.1 C56.2,9.2 53.3,16.5 46.2,19.4 C44.1,7.4 41.4,-8.5 40.7,-12.9 C49.7,-12.9 56.2,-6.8 56.2,2.1"/>
<path class="Clef" transform="matrix(0.992,0,0,0.992,232.438,708.598)" d="M12.3,51.3 C12.3,57.9 17.3,66.6 30.8,66.6 C35.5,66.6 39.6,65.4 43.2,63.2 C48.6,59.4 50,52.8 50,46.5 C50,42.6 49.4,38.1 48.4,32.4 C48.1,30.4 47.5,27.4 46.9,23.5 C56.7,20.3 64,10.1 64,-0.2 C64,-15.3 53.3,-25.5 38.7,-25.5 C37.7,-31.5 36.7,-37.4 35.9,-43 C46.4,-54.1 53.7,-66.6 53.7,-82.5 C53.7,-91.6 50.9,-99 49.3,-102.6 C46.9,-107.7 44,-111.2 42.2,-111.2 C41.5,-111.2 38.4,-110 35.1,-106.1 C28.7,-98.5 26.9,-85.7 26.9,-77.3 C26.9,-71.9 27.4,-67 29.1,-55.8 C29,-55.7 23.8,-50.4 21.7,-48.7 C12.6,-40.3 0,-28.1 0,-8.1 C0,10.6 16.3,25.3 34.9,25.3 C37.8,25.3 40.5,25 42.8,24.6 C44.7,34.2 45.9,41.2 45.9,46.5 C45.9,56.9 40.5,62.4 30.4,62.4 C28,62.4 25.9,61.9 25.7,61.9 C25.6,61.8 25.4,61.7 25.4,61.6 C25.4,61.4 25.6,61.3 25.9,61.3 C30.6,60.5 35.3,56.5 35.3,50.1 C35.3,44.7 31.2,39 23.7,39 C16.7,39 12.3,44.7 12.3,51.3 M33.2,-82.2 C34.1,-86.2 38.7,-96.7 43.9,-96.7 C45.4,-96.7 47.8,-91.9 47.8,-84.9 C47.8,-74.5 40.1,-66.7 33.2,-59.9 C32.6,-63.9 32.1,-67.8 32.1,-72 C32.1,-75.7 32.4,-79.1 33.2,-82.2 M42,20.6 C40,21 38.1,21.2 36.2,21.2 C21.9,21.2 9.7,11.2 9.7,-3.9 C9.7,-16.1 18.3,-27 27.1,-34.6 C28.8,-36.1 30.4,-37.5 31.9,-39 C32.8,-33.6 33.5,-28.9 34.2,-24.8 C25.1,-22.1 18.9,-12.5 18.9,-3.1 C18.9,3.9 24.4,13.5 32.4,13.5 C33.2,13.5 34.1,13.1 34.1,12.2 C34.1,11.3 33.1,10.8 31.9,10 C28,7.6 25.8,5 25.8,0.1 C25.8,-6 30.4,-10.9 36.2,-12.3 L42,20.6 M56.2,2.1 C56.2,9.2 53.3,16.5 46.2,19.4 C44.1,7.4 41.4,-8.5 40.7,-12.9 C49.7,-12.9 56.2,-6.8 56.2,2.1"/>
<path class="Clef" transform="matrix(0.992,0,0,0.992,232.438,2122.2)" d="M12.3,51.3 C12.3,57.9 17.3,66.6 30.8,66.6 C35.5,66.6 39.6,65.4 43.2,63.2 C48.6,59.4 50,52.8 50,46.5 C50,42.6 49.4,38.1 48.4,32.4 C48.1,30.4 47.5,27.4 46.9,23.5 C56.7,20.3 64,10.1 64,-0.2 C64,-15.3 53.3,-25.5 38.7,-25.5 C37.7,-31.5 36.7,-37.4 35.9,-43 C46.4,-54.1 53.7,-66.6 53.7,-82.5 C53.7,-91.6 50.9,-99 49.3,-102.6 C46.9,-107.7 44,-111.2 42.2,-111.2 C41.5,-111.2 38.4,-110 35.1,-106.1 C28.7,-98.5 26.9,-85.7 26.9,-77.3 C26.9,-71.9 27.4,-67 29.1,-55.8 C29,-55.7 23.8,-50.4 21.7,-48.7 C12.6,-40.3 0,-28.1 0,-8.1 C0,10.6 16.3,25.3 34.9,25.3 C37.8,25.3 40.5,25 42.8,24.6 C44.7,34.2 45.9,41.2 45.9,46.5 C45.9,56.9 40.5,62.4 30.4,62.4 C28,62.4 25.9,61.9 25.7,61.9 C25.6,61.8 25.4,61.7 25.4,61.6 C25.4,61.4 25.6,61.3 25.9,61.3 C30.6,60.5 35.3,56.5 35.3,50.1 C35.3,44.7 31.2,39 23.7,39 C16.7,39 12.3,44.7 12.3,51.3 M33.2,-82.2 C34.1,-86.2 38.7,-96.7 43.9,-96.7 C45.4,-96.7 47.8,-91.9 47.8,-84.9 C47.8,-74.5 40.1,-66.7 33.2,-59.9 C32.6,-63.9 32.1,-67.8 32.1,-72 C32.1,-75.7 32.4,-79.1 33.2,-82.2 M42,20.6 C40,21 38.1,21.2 36.2,21.2 C21.9,21.2 9.7,11.2 9.7,-3.9 C9.7,-16.1 18.3,-27 27.1,-34.6 C28.8,-36.1 30.4,-37.5 31.9,-39 C32.8,-33.6 33.5,-28.9 34.2,-24.8 C25.1,-22.1 18.9,-12.5 18.9,-3.1 C18.9,3.9 24.4,13.5 32.4,13.5 C33.2,13.5 34.1,13.1 34.1,12.2 C34.1,11.3 33.1,10.8 31.9,10 C28,7.6 25.8,5 25.8,0.1 C25.8,-6 30.4,-10.9 36.2,-12.3 L42,20.6 M56.2,2.1 C56.2,9.2 53.3,16.5 46.2,19.4 C44.1,7.4 41.4,-8.5 40.7,-12.9 C49.7,-12.9 56.2,-6.8 56.2,2.1"/>
<path class="Clef" transform="matrix(0.992,0,0,0.992,232.438,1179.8)" d="M12.3,51.3 C12.3,57.9 17.3,66.6 30.8,66.6 C35.5,66.6 39.6,65.4 43.2,63.2 C48.6,59.4 50,52.8 50,46.5 C50,42.6 49.4,38.1 48.4,32.4 C48.1,30.4 47.5,27.4 46.9,23.5 C56.7,20.3 64,10.1 64,-0.2 C64,-15.3 53.3,-25.5 38.7,-25.5 C37.7,-31.5 36.7,-37.4 35.9,-43 C46.4,-54.1 53.7,-66.6 53.7,-82.5 C53.7,-91.6 50.9,-99 49.3,-102.6 C46.9,-107.7 44,-111.2 42.2,-111.2 C41.5,-111.2 38.4,-110 35.1,-106.1 C28.7,-98.5 26.9,-85.7 26.9,-77.3 C26.9,-71.9 27.4,-67 29.1,-55.8 C29,-55.7 23.8,-50.4 21.7,-48.7 C12.6,-40.3 0,-28.1 0,-8.1 C0,10.6 16.3,25.3 34.9,25.3 C37.8,25.3 40.5,25 42.8,24.6 C44.7,34.2 45.9,41.2 45.9,46.5 C45.9,56.9 40.5,62.4 30.4,62.4 C28,62.4 25.9,61.9 25.7,61.9 C25.6,61.8 25.4,61.7 25.4,61.6 C25.4,61.4 25.6,61.3 25.9,61.3 C30.6,60.5 35.3,56.5 35.3,50.1 C35.3,44.7 31.2,39 23.7,39 C16.7,39 12.3,44.7 12.3,51.3 M33.2,-82.2 C34.1,-86.2 38.7,-96.7 43.9,-96.7 C45.4,-96.7 47.8,-91.9 47.8,-84.9 C47.8,-74.5 40.1,-66.7 33.2,-59.9 C32.6,-63.9 32.1,-67.8 32.1,-72 C32.1,-75.7 32.4,-79.1 33.2,-82.2 M42,20.6 C40,21 38.1,21.2 36.2,21.2 C21.9,21.2 9.7,11.2 9.7,-3.9 C9.7,-16.1 18.3,-27 27.1,-34.6 C28.8,-36.1 30.4,-37.5 31.9,-39 C32.8,-33.6 33.5,-28.9 34.2,-24.8 C25.1,-22.1 18.9,-12.5 18.9,-3.1 C18.9,3.9 24.4,13.5 32.4,13.5 C33.2,13.5 34.1,13.1 34.1,12.2 C34.1,11.3 33.1,10.8 31.9,10 C28,7.6 25.8,5 25.8,0.1 C25.8,-6 30.4,-10.9 36.2,-12.3 L42,20.6 M56.2,2.1 C56.2,9.2 53.3,16.5 46.2,19.4 C44.1,7.4 41.4,-8.5 40.7,-12.9 C49.7,-12.9 56.2,-6.8 56.2,2.1"/>
<path class="KeySig" transform="matrix(0.992,0,0,0.992,320.711,1576.6)" d="M23.3,-10.5 C23.9,-10.6 24.4,-11.3 24.4,-11.9 L24.4,-17.8 C24.4,-18.8 23.7,-19.2 22.8,-19.2 L19.5,-18.5 L19.5,-33.4 L16.7,-33.4 L16.7,-17.9 L7.8,-16.1 L7.8,-30.2 L5,-30.2 L5,-15.5 L1.1,-14.7 C0.5,-14.6 0,-13.9 0,-13.3 L0,-7.5 C0,-6.4 0.8,-6.1 1.7,-6.1 L5,-6.8 L5,9.7 L1.1,10.5 C0.5,10.6 0,11.3 0,11.9 L0,17.7 C0,18.8 0.8,19.1 1.7,19.1 L5,18.4 L5,33.3 L7.8,33.3 L7.8,17.8 L16.7,16 L16.7,30.1 L19.5,30.1 L19.5,15.4 L23.3,14.7 C23.9,14.6 24.4,13.9 24.4,13.3 L24.4,7.4 C24.4,6.4 23.7,6 22.8,6 L19.5,6.7 L19.5,-9.8 L23.3,-10.5 M7.8,-7.4 L16.7,-9.2 L16.7,7.3 L7.8,9.2 L7.8,-7.4 "/>
<path class="KeySig" transform="matrix(0.992,0,0,0.992,320.711,634.198)" d="M23.3,-10.5 C23.9,-10.6 24.4,-11.3 24.4,-11.9 L24.4,-17.8 C24.4,-18.8 23.7,-19.2 22.8,-19.2 L19.5,-18.5 L19.5,-33.4 L16.7,-33.4 L16.7,-17.9 L7.8,-16.1 L7.8,-30.2 L5,-30.2 L5,-15.5 L1.1,-14.7 C0.5,-14.6 0,-13.9 0,-13.3 L0,-7.5 C0,-6.4 0.8,-6.1 1.7,-6.1 L5,-6.8 L5,9.7 L1.1,10.5 C0.5,10.6 0,11.3 0,11.9 L0,17.7 C0,18.8 0.8,19.1 1.7,19.1 L5,18.4 L5,33.3 L7.8,33.3 L7.8,17.8 L16.7,16 L16.7,30.1 L19.5,30.1 L19.5,15.4 L23.3,14.7 C23.9,14.6 24.4,13.9 24.4,13.3 L24.4,7.4 C24.4,6.4 23.7,6 22.8,6 L19.5,6.7 L19.5,-9.8 L23.3,-10.5 M7.8,-7.4 L16.7,-9.2 L16.7,7.3 L7.8,9.2 L7.8,-7.4 "/>
<path class="KeySig" transform="matrix(0.992,0,0,0.992,320.711,2047.8)" d="M23.3,-10.5 C23.9,-10.6 24.4,-11.3 24.4,-11.9 L24.4,-17.8 C24.4,-18.8 23.7,-19.2 22.8,-19.2 L19.5,-18.5 L19.5,-33.4 L16.7,-33.4 L16.7,-17.9 L7.8,-16.1 L7.8,-30.2 L5,-30.2 L5,-15.5 L1.1,-14.7 C0.5,-14.6 0,-13.9 0,-13.3 L0,-7.5 C0,-6.4 0.8,-6.1 1.7,-6.1 L5,-6.8 L5,9.7 L1.1,10.5 C0.5,10.6 0,11.3 0,11.9 L0,17.7 C0,18.8 0.8,19.1 1.7,19.1 L5,18.4 L5,33.3 L7.8,33.3 L7.8,17.8 L16.7,16 L16.7,30.1 L19.5,30.1 L19.5,15.4 L23.3,14.7 C23.9,14.6 24.4,13.9 24.4,13.3 L24.4,7.4 C24.4,6.4 23.7,6 22.8,6 L19.5,6.7 L19.5,-9.8 L23.3,-10.5 M7.8,-7.4 L16.7,-9.2 L16.7,7.3 L7.8,9.2 L7.8,-7.4 "/>
<path class="KeySig" transform="matrix(0.992,0,0,0.992,320.711,1105.4)" d="M23.3,-10.5 C23.9,-10.6 24.4,-11.3 24.4,-11.9 L24.4,-17.8 C24.4,-18.8 23.7,-19.2 22.8,-19.2 L19.5,-18.5 L19.5,-33.4 L16.7,-33.4 L16.7,-17.9 L7.8,-16.1 L7.8,-30.2 L5,-30.2 L5,-15.5 L1.1,-14.7 C0.5,-14.6 0,-13.9 0,-13.3 L0,-7.5 C0,-6.4 0.8,-6.1 1.7,-6.1 L5,-6.8 L5,9.7 L1.1,10.5 C0.5,10.6 0,11.3 0,11.9 L0,17.7 C0,18.8 0.8,19.1 1.7,19.1 L5,18.4 L5,33.3 L7.8,33.3 L7.8,17.8 L16.7,16 L16.7,30.1 L19.5,30.1 L19.5,15.4 L23.3,14.7 C23.9,14.6 24.4,13.9 24.4,13.3 L24.4,7.4 C24.4,6.4 23.7,6 22.8,6 L19.5,6.7 L19.5,-9.8 L23.3,-10.5 M7.8,-7.4 L16.7,-9.2 L16.7,7.3 L7.8,9.2 L7.8,-7.4 "/>
<path class="TimeSig" transform="matrix(0.992,0,0,0.992,368.327,658.998)" d="M20.8,12.7 L20.8,20.1 L12.5,20.1 C11.8,20.1 11.1,20.7 11.1,21.5 L11.1,23.4 C11.1,24.2 11.8,24.8 12.5,24.8 L42.8,24.8 C43.6,24.8 44.2,24.2 44.2,23.4 L44.2,21.5 C44.2,20.7 43.6,20.1 42.8,20.1 L33.9,20.1 L33.9,12.7 L42.8,12.7 C43.6,12.7 44.2,12 44.2,11.2 L44.2,9.3 C44.2,8.6 43.6,7.9 42.8,7.9 L33.9,7.9 L33.9,-8 C33.9,-8.6 33.6,-9.1 33.1,-9.3 L31.9,-9.9 C31.7,-10 31.4,-10.1 31.2,-10.1 C30.9,-10 30.5,-9.9 30.3,-9.7 L21.2,-1.4 C20.9,-1.1 20.8,-0.7 20.8,-0.3 L20.8,7.9 L9.3,7.9 C9.3,7.9 20.4,-4.1 32.2,-19.9 C32.6,-20.4 32.7,-20.9 32.7,-21.3 C32.7,-21.8 32.5,-22.2 32.4,-22.3 L30.2,-24.5 C30,-24.7 29.6,-24.9 29.2,-24.9 C28.6,-24.9 15.1,-24.9 14.4,-24.9 C13.6,-24.9 13.1,-24.3 13,-23.7 C13,-23.7 12.5,-16.3 9.9,-8.2 C7.3,-0.1 4.3,4.9 1.7,8.6 C1.7,8.6 1.4,9.1 1.4,9.7 C1.4,9.9 1.4,10.1 1.5,10.3 C1.9,11 2.5,12.1 2.5,12.1 C2.5,12.1 2.7,12.7 3.6,12.7 L20.8,12.7 "/>
<path class="TimeSig" transform="matrix(0.992,0,0,0.992,368.327,708.598)" d="M20.8,12.7 L20.8,20.1 L12.5,20.1 C11.8,20.1 11.1,20.7 11.1,21.5 L11.1,23.4 C11.1,24.2 11.8,24.8 12.5,24.8 L42.8,24.8 C43.6,24.8 44.2,24.2 44.2,23.4 L44.2,21.5 C44.2,20.7 43.6,20.1 42.8,20.1 L33.9,20.1 L33.9,12.7 L42.8,12.7 C43.6,12.7 44.2,12 44.2,11.2 L44.2,9.3 C44.2,8.6 43.6,7.9 42.8,7.9 L33.9,7.9 L33.9,-8 C33.9,-8.6 33.6,-9.1 33.1,-9.3 L31.9,-9.9 C31.7,-10 31.4,-10.1 31.2,-10.1 C30.9,-10 30.5,-9.9 30.3,-9.7 L21.2,-1.4 C20.9,-1.1 20.8,-0.7 20.8,-0.3 L20.8,7.9 L9.3,7.9 C9.3,7.9 20.4,-4.1 32.2,-19.9 C32.6,-20.4 32.7,-20.9 32.7,-21.3 C32.7,-21.8 32.5,-22.2 32.4,-22.3 L30.2,-24.5 C30,-24.7 29.6,-24.9 29.2,-24.9 C28.6,-24.9 15.1,-24.9 14.4,-24.9 C13.6,-24.9 13.1,-24.3 13,-23.7 C13,-23.7 12.5,-16.3 9.9,-8.2 C7.3,-0.1 4.3,4.9 1.7,8.6 C1.7,8.6 1.4,9.1 1.4,9.7 C1.4,9.9 1.4,10.1 1.5,10.3 C1.9,11 2.5,12.1 2.5,12.1 C2.5,12.1 2.7,12.7 3.6,12.7 L20.8,12.7 "/>
<path class="Rest" transform="matrix(0.992,0,0,0.992,406.906,1626.2)" d="M0,-1 C0,0.4 0,0.4 1.4,0.4 L31.1,0.4 C32.5,0.4 32.5,0.4 32.5,-1 L32.5,-11.8 C32.5,-13.2 32.5,-13.2 31.1,-13.2 L1.4,-13.2 C0,-13.2 0,-13.2 0,-11.8 L0,-1 "/>
<path class="Rest" transform="matrix(0.992,0,0,0.992,532.276,1626.2)" d="M23,16.6 C22.9,16.5 22.7,16.3 22.4,15.9 L10.9,1.7 C10.8,1.6 10.7,1.3 10.7,1.1 C10.7,0.8 10.8,0.4 10.9,0.2 L21.1,-15.2 C21.2,-15.4 21.3,-15.7 21.3,-15.9 L21.3,-16.8 C21.3,-17.1 21.2,-17.4 21,-17.6 L4.8,-39.5 C4.8,-39.5 4.4,-40.1 3.8,-40.1 C3.5,-40.1 3.3,-40.1 3,-39.8 C2.6,-39.5 2.5,-39.1 2.5,-38.8 C2.5,-38.2 2.8,-37.7 2.8,-37.7 L10.4,-27.3 C10.6,-27 10.7,-26.6 10.7,-26.1 C10.7,-25.7 10.6,-25.2 10.4,-24.9 L0.3,-9.5 C0.2,-9.3 0.1,-8.9 0.1,-8.7 L0.1,-7.8 C0.1,-7.5 0.2,-7.2 0.4,-7 L11.6,6.9 C11.2,6.8 10.3,6.6 9.1,6.6 C4,6.6 0,10.8 0,15.9 C0,17.3 0.3,18.7 1.1,19.8 C3.2,23 10.7,32.5 10.7,32.5 C10.7,32.5 11.2,33.1 11.9,33.1 C12.1,33.1 12.3,33.1 12.5,32.9 C13,32.5 13.2,32.1 13.2,31.7 C13.2,31.3 13,31 12.9,30.8 C12.6,30.3 9.4,24.5 9.4,24.5 C9.4,24.5 8.7,23.1 8.7,21.3 C8.7,18.1 11.1,15.5 14.3,15.5 C15.6,15.5 16.7,15.9 17.5,16.4 L21.4,18.9 C21.4,18.9 21.8,19.1 22.2,19.1 C22.6,19.1 22.9,19 23.2,18.6 C23.4,18.3 23.5,18 23.5,17.7 C23.5,17.4 23.4,17.2 23.2,16.9 L23,16.6 "/>
<path class="Rest" transform="matrix(0.992,0,0,0.992,532.276,1155)" d="M23,16.6 C22.9,16.5 22.7,16.3 22.4,15.9 L10.9,1.7 C10.8,1.6 10.7,1.3 10.7,1.1 C10.7,0.8 10.8,0.4 10.9,0.2 L21.1,-15.2 C21.2,-15.4 21.3,-15.7 21.3,-15.9 L21.3,-16.8 C21.3,-17.1 21.2,-17.4 21,-17.6 L4.8,-39.5 C4.8,-39.5 4.4,-40.1 3.8,-40.1 C3.5,-40.1 3.3,-40.1 3,-39.8 C2.6,-39.5 2.5,-39.1 2.5,-38.8 C2.5,-38.2 2.8,-37.7 2.8,-37.7 L10.4,-27.3 C10.6,-27 10.7,-26.6 10.7,-26.1 C10.7,-25.7 10.6,-25.2 10.4,-24.9 L0.3,-9.5 C0.2,-9.3 0.1,-8.9 0.1,-8.7 L0.1,-7.8 C0.1,-7.5 0.2,-7.2 0.4,-7 L11.6,6.9 C11.2,6.8 10.3,6.6 9.1,6.6 C4,6.6 0,10.8 0,15.9 C0,17.3 0.3,18.7 1.1,19.8 C3.2,23 10.7,32.5 10.7,32.5 C10.7,32.5 11.2,33.1 11.9,33.1 C12.1,33.1 12.3,33.1 12.5,32.9 C13,32.5 13.2,32.1 13.2,31.7 C13.2,31.3 13,31 12.9,30.8 C12.6,30.3 9.4,24.5 9.4,24.5 C9.4,24.5 8.7,23.1 8.7,21.3 C8.7,18.1 11.1,15.5 14.3,15.5 C15.6,15.5 16.7,15.9 17.5,16.4 L21.4,18.9 C21.4,18.9 21.8,19.1 22.2,19.1 C22.6,19.1 22.9,19 23.2,18.6 C23.4,18.3 23.5,18 23.5,17.7 C23.5,17.4 23.4,17.2 23.2,16.9 L23,16.6 "/>
<path class="Rest" transform="matrix(0.992,0,0,0.992,406.906,2097.4)" d="M23,16.6 C22.9,16.5 22.7,16.3 22.4,15.9 L10.9,1.7 C10.8,1.6 10.7,1.3 10.7,1.1 C10.7,0.8 10.8,0.4 10.9,0.2 L21.1,-15.2 C21.2,-15.4 21.3,-15.7 21.3,-15.9 L21.3,-16.8 C21.3,-17.1 21.2,-17.4 21,-17.6 L4.8,-39.5 C4.8,-39.5 4.4,-40.1 3.8,-40.1 C3.5,-40.1 3.3,-40.1 3,-39.8 C2.6,-39.5 2.5,-39.1 2.5,-38.8 C2.5,-38.2 2.8,-37.7 2.8,-37.7 L10.4,-27.3 C10.6,-27 10.7,-26.6 10.7,-26.1 C10.7,-25.7 10.6,-25.2 10.4,-24.9 L0.3,-9.5 C0.2,-9.3 0.1,-8.9 0.1,-8.7 L0.1,-7.8 C0.1,-7.5 0.2,-7.2 0.4,-7 L11.6,6.9 C11.2,6.8 10.3,6.6 9.1,6.6 C4,6.6 0,10.8 0,15.9 C0,17.3 0.3,18.7 1.1,19.8 C3.2,23 10.7,32.5 10.7,32.5 C10.7,32.5 11.2,33.1 11.9,33.1 C12.1,33.1 12.3,33.1 12.5,32.9 C13,32.5 13.2,32.1 13.2,31.7 C13.2,31.3 13,31 12.9,30.8 C12.6,30.3 9.4,24.5 9.4,24.5 C9.4,24.5 8.7,23.1 8.7,21.3 C8.7,18.1 11.1,15.5 14.3,15.5 C15.6,15.5 16.7,15.9 17.5,16.4 L21.4,18.9 C21.4,18.9 21.8,19.1 22.2,19.1 C22.6,19.1 22.9,19 23.2,18.6 C23.4,18.3 23.5,18 23.5,17.7 C23.5,17.4 23.4,17.2 23.2,16.9 L23,16.6 "/>
<path class="Rest" transform="matrix(0.992,0,0,0.992,406.906,1155)" d="M0,-1 C0,0.4 0,0.4 1.4,0.4 L31.1,0.4 C32.5,0.4 32.5,0.4 32.5,-1 L32.5,-11.8 C32.5,-13.2 32.5,-13.2 31.1,-13.2 L1.4,-13.2 C0,-13.2 0,-13.2 0,-11.8 L0,-1 "/>
<path class="NoteDot" transform="matrix(0.992,0,0,0.992,1109.99,1142.6)" d="M0,0 C0,2.8 2.2,5 5,5 C7.8,5 10,2.8 10,0 C10,-2.8 7.8,-5 5,-5 C2.2,-5 0,-2.8 0,0"/>
<path class="NoteDot" transform="matrix(0.992,0,0,0.992,1006.73,671.398)" d="M0,0 C0,2.8 2.2,5 5,5 C7.8,5 10,2.8 10,0 C10,-2.8 7.8,-5 5,-5 C2.2,-5 0,-2.8 0,0"/>
<path class="NoteDot" transform="matrix(0.992,0,0,0.992,1676.65,1167.4)" d="M0,0 C0,2.8 2.2,5 5,5 C7.8,5 10,2.8 10,0 C10,-2.8 7.8,-5 5,-5 C2.2,-5 0,-2.8 0,0"/>
<path class="NoteDot" transform="matrix(0.992,0,0,0.992,1921.81,745.798)" d="M0,0 C0,2.8 2.2,5 5,5 C7.8,5 10,2.8 10,0 C10,-2.8 7.8,-5 5,-5 C2.2,-5 0,-2.8 0,0"/>
<path class="NoteDot" transform="matrix(0.992,0,0,0.992,2258.47,745.798)" d="M0,0 C0,2.8 2.2,5 5,5 C7.8,5 10,2.8 10,0 C10,-2.8 7.8,-5 5,-5 C2.2,-5 0,-2.8 0,0"/>
<path class="NoteDot" transform="matrix(0.992,0,0,0.992,1109.99,1613.8)" d="M0,0 C0,2.8 2.2,5 5,5 C7.8,5 10,2.8 10,0 C10,-2.8 7.8,-5 5,-5 C2.2,-5 0,-2.8 0,0"/>
<path class="NoteDot" transform="matrix(0.992,0,0,0.992,1676.65,1638.6)" d="M0,0 C0,2.8 2.2,5 5,5 C7.8,5 10,2.8 10,0 C10,-2.8 7.8,-5 5,-5 C2.2,-5 0,-2.8 0,0"/>
</svg>
