<?xml version="1.0" encoding="UTF-8" standalone="no"?>
<svg width="2977.2px" height="4208.4px" viewBox="0 0 2977.2 4208.4"
 xmlns="http://www.w3.org/2000/svg" xmlns:xlink="http://www.w3.org/1999/xlink" version="1.2" baseProfile="tiny">
<title>水あそび</title>
<desc>Generated by MuseScore Studio 4.4.2</desc>
<path class="" fill="#ffffff" fill-rule="evenodd" d="M0,0 L2977.2,0 L2977.2,4208.4 L0,4208.4 L0,0 "/>
<polyline class="StaffLines" fill="none" stroke="#000000" stroke-width="2.73" stroke-linejoin="bevel" points="212.598,634.198 2764.6,634.198"/>
<polyline class="StaffLines" fill="none" stroke="#000000" stroke-width="2.73" stroke-linejoin="bevel" points="212.598,658.998 2764.6,658.998"/>
<polyline class="StaffLines" fill="none" stroke="#000000" stroke-width="2.73" stroke-linejoin="bevel" points="212.598,683.798 2764.6,683.798"/>
<polyline class="StaffLines" fill="none" stroke="#000000" stroke-width="2.73" stroke-linejoin="bevel" points="212.598,708.598 2764.6,708.598"/>
<polyline class="StaffLines" fill="none" stroke="#000000" stroke-width="2.73" stroke-linejoin="bevel" points="212.598,733.398 2764.6,733.398"/>
<polyline class="StaffLines" fill="none" stroke="#000000" stroke-width="2.73" stroke-linejoin="bevel" points="212.598,1105.4 2764.6,1105.4"/>
<polyline class="StaffLines" fill="none" stroke="#000000" stroke-width="2.73" stroke-linejoin="bevel" points="212.598,1130.2 2764.6,1130.2"/>
<polyline class="StaffLines" fill="none" stroke="#000000" stroke-width="2.73" stroke-linejoin="bevel" points="212.598,1155 2764.6,1155"/>
<polyline class="StaffLines" fill="none" stroke="#000000" stroke-width="2.73" stroke-linejoin="bevel" points="212.598,1179.8 2764.6,1179.8"/>
<polyline class="StaffLines" fill="none" stroke="#000000" stroke-width="2.73" stroke-linejoin="bevel" points="212.598,1204.6 2764.6,1204.6"/>
<path class="Text" d="M1362.01,234.478 C1358.49,241.408 1351.23,249.328 1338.8,259.778 C1333.52,250.648 1330.99,244.048 1329.56,236.238 L1329.56,228.648 C1329.56,224.688 1329.78,221.168 1330.44,217.648 L1321.75,217.648 C1322.3,221.278 1322.52,224.798 1322.52,228.758 L1322.52,303.888 C1322.52,306.528 1321.86,307.078 1318.78,307.078 C1314.49,307.078 1310.2,306.638 1304.04,305.538 C1305.14,308.398 1305.58,309.938 1305.8,313.128 C1311.08,313.678 1315.59,313.898 1319.77,313.898 C1327.58,313.898 1329.78,312.028 1329.78,305.098 L1329.78,272.538 C1329.78,266.708 1329.56,260.658 1328.9,251.088 C1330.99,257.468 1332.09,260.108 1334.73,265.058 C1338.36,271.878 1342.32,277.708 1347.16,283.318 C1354.09,291.458 1361.79,298.058 1370.81,303.448 C1372.68,300.368 1373.89,298.938 1376.64,296.518 C1367.62,291.898 1361.79,287.608 1355.19,281.118 C1350.46,276.498 1346.06,271.108 1342.21,265.388 C1348.48,260.438 1348.48,260.438 1351.56,257.688 C1355.63,253.948 1363.11,246.358 1365.75,243.278 C1367.4,241.298 1367.4,241.298 1368.83,239.868 L1362.01,234.478 M1312.62,243.828 C1310.53,244.158 1308,244.268 1302.17,244.268 L1290.4,244.268 C1285.23,244.268 1282.48,244.158 1279.73,243.718 L1279.73,251.748 C1282.37,251.308 1285.56,251.088 1290.18,251.088 L1308.33,251.088 C1305.03,262.968 1300.85,271.328 1293.81,280.568 C1288.09,287.938 1282.7,292.998 1275.55,297.728 C1278.41,299.708 1279.62,300.698 1281.71,303.228 C1297.33,291.238 1308.55,274.628 1314.49,254.718 C1315.81,250.538 1315.92,250.098 1316.8,247.898 L1312.62,243.828 "/>
<path class="Text" d="M1396.11,240.638 C1396.88,240.528 1397.43,240.528 1397.87,240.528 C1398.09,240.528 1398.86,240.528 1399.85,240.638 C1408.65,240.968 1413.6,241.188 1414.7,241.188 L1419.1,241.188 C1418.55,249.218 1418.55,249.768 1418.44,257.798 C1402.49,264.728 1392.92,277.048 1392.92,290.578 C1392.92,300.368 1398.86,307.298 1407.11,307.298 C1414.81,307.298 1423.17,302.788 1431.64,293.988 C1440.22,285.298 1446.16,275.838 1452.54,260.988 C1464.42,264.068 1470.69,270.668 1470.69,280.128 C1470.69,289.918 1463.76,297.948 1451.77,302.128 C1446.49,303.998 1441.76,304.878 1435.27,305.098 C1437.25,308.068 1437.8,309.278 1438.79,312.468 C1448.69,311.258 1454.96,309.498 1461.23,306.198 C1472.56,300.258 1478.5,291.568 1478.5,280.788 C1478.5,267.918 1470.03,258.568 1454.85,255.048 C1456.72,249.878 1457.93,246.908 1458.26,246.248 L1450.67,243.938 C1450.23,247.238 1449.35,250.538 1448.03,253.838 C1445.28,253.618 1443.96,253.508 1441.65,253.508 C1435.82,253.508 1430.98,254.168 1425.37,255.708 C1425.48,250.318 1425.48,250.318 1426.14,240.968 C1436.37,240.638 1453.09,238.768 1465.08,236.568 C1467.17,236.238 1467.5,236.238 1468.93,236.018 L1468.49,228.318 C1460.13,231.288 1444.51,233.598 1426.58,234.478 C1427.35,225.898 1427.9,222.158 1428.89,219.078 L1420.31,218.528 C1420.42,219.298 1420.42,219.958 1420.42,220.178 C1420.42,220.948 1420.2,225.238 1420.09,226.448 C1419.65,232.058 1419.65,232.058 1419.54,234.698 C1417.56,234.808 1417.12,234.808 1416.79,234.808 C1406.67,234.808 1400.84,234.368 1396.22,233.048 L1396.11,240.638 M1418.44,264.728 C1418.44,278.038 1419.1,286.068 1420.64,294.538 C1415.69,298.498 1412.06,300.148 1407.99,300.148 C1403.26,300.148 1400.07,296.188 1400.07,290.138 C1400.07,284.638 1402.49,278.808 1406.78,273.748 C1409.86,270.228 1413.05,267.698 1418.44,264.728 M1426.58,289.918 C1426.58,289.368 1426.58,288.818 1426.58,288.708 C1426.58,288.048 1426.58,287.828 1426.47,287.168 C1425.48,278.038 1425.37,276.168 1425.26,261.978 C1430.32,260.328 1435.49,259.448 1440.55,259.448 C1441.76,259.448 1442.31,259.448 1445.83,259.668 C1440.77,271.218 1436.15,278.918 1429,287.168 C1428.12,288.048 1428.01,288.268 1426.91,290.028 L1426.58,289.918 M1518.43,233.818 C1520.63,233.598 1521.07,233.598 1525.25,233.378 C1541.42,232.828 1553.52,231.948 1559.68,230.738 C1558.25,231.838 1557.81,232.168 1556.05,233.818 C1545.05,244.268 1530.42,255.708 1519.53,262.198 C1511.94,263.518 1503.69,264.398 1500.28,264.398 C1500.06,264.398 1499.84,264.398 1499.51,264.398 L1500.39,272.758 C1504.46,271.548 1515.35,269.898 1532.84,267.808 C1539.11,267.038 1548.9,265.718 1550.77,265.498 C1555.28,264.728 1555.28,264.728 1556.82,264.508 C1540.98,271.438 1532.84,280.128 1532.84,289.918 C1532.84,295.308 1535.15,300.258 1539.33,303.778 C1544.61,308.288 1554.18,310.708 1567.05,310.928 C1572.66,311.038 1572.66,311.038 1574.53,311.148 L1574.2,302.678 C1571.78,303.118 1569.58,303.338 1566.72,303.338 C1550,303.338 1540.54,298.168 1540.54,289.148 C1540.54,285.848 1541.53,283.318 1544.06,280.018 C1547.14,276.058 1552.2,272.208 1557.81,269.568 C1565.95,265.718 1576.84,263.628 1588.06,263.628 C1588.5,263.628 1589.38,263.628 1590.48,263.628 L1589.71,255.928 C1588.39,256.258 1587.95,256.258 1586.52,256.368 C1584.32,256.588 1581.02,256.918 1576.51,257.248 C1568.15,258.018 1561.44,258.678 1556.93,259.008 C1540.21,260.438 1535.92,260.988 1530.53,261.978 C1541.53,255.488 1555.83,244.378 1566.61,233.928 C1569.47,231.178 1570.24,230.518 1572,229.308 L1567.38,223.478 C1565.84,224.138 1563.64,224.578 1561.22,224.798 C1553.41,225.678 1537.57,226.338 1527.67,226.338 C1523.16,226.338 1521.18,226.228 1517.77,225.898 L1518.43,233.818 M1614.02,237.338 C1614.46,237.338 1615.01,237.228 1615.12,237.228 C1615.34,237.228 1616.11,237.228 1617.21,237.118 C1631.51,236.128 1634.15,235.798 1641.74,233.708 C1635.47,239.098 1635.47,239.098 1631.84,243.498 C1622.27,255.378 1617.21,268.028 1617.21,280.128 C1617.21,298.168 1629.2,310.708 1646.47,310.708 C1659.56,310.708 1671.11,303.228 1675.95,291.568 C1678.81,284.858 1680.24,277.378 1680.24,269.128 C1680.24,260.328 1679.25,254.498 1675.84,244.048 C1682.99,257.358 1686.84,262.418 1695.75,270.448 L1697.84,272.318 L1698.39,272.758 L1700.26,274.408 L1704.44,266.818 C1699.16,264.288 1689.48,254.718 1684.53,247.018 C1680.46,241.188 1676.06,232.718 1674.19,226.998 L1666.27,229.638 C1670.34,237.998 1673.09,252.408 1673.09,265.058 C1673.09,274.408 1671.88,281.448 1669.13,287.938 C1665.28,296.958 1656.15,303.008 1646.47,303.008 C1634.04,303.008 1624.8,293.438 1624.8,280.458 C1624.8,269.238 1629.86,257.248 1639.87,245.148 C1644.49,239.538 1646.69,237.448 1652.74,233.268 L1648.12,226.338 C1644.05,228.318 1631.29,229.858 1619.08,229.858 C1616.77,229.858 1615.78,229.748 1613.91,229.528 L1614.02,237.338 M1679.8,221.388 C1682.99,224.798 1688.38,233.048 1691.02,238.878 L1696.63,235.578 C1693.33,229.088 1690.25,224.468 1685.3,218.528 L1679.8,221.388 M1692.34,215.558 C1696.52,220.508 1701.14,227.658 1703.56,232.828 L1709.06,229.638 C1705.43,222.708 1702.68,218.638 1697.62,212.588 L1692.34,215.558 "/>
<path class="MeasureNumber" d="M232.288,1027.64 C230.168,1027.88 227.568,1028.04 225.328,1028.04 C224.208,1028.04 222.928,1028 221.488,1027.92 C220.168,1027.84 218.848,1027.76 217.488,1027.68 L216.488,1027.64 L212.608,1036.08 L214.088,1036.56 L215.048,1034.96 C216.928,1031.84 217.808,1031.4 221.888,1031.44 L228.648,1031.44 L224.288,1037.68 C219.168,1044.88 219.168,1044.88 217.208,1048.08 C215.448,1050.92 214.728,1052.68 214.728,1054.12 C214.728,1055.52 215.608,1056.4 217.008,1056.4 C218.488,1056.4 219.248,1055.68 219.768,1053.8 C221.768,1046.28 222.968,1043.68 228.528,1034.68 L232.288,1028.84 L232.288,1027.64 "/>
<polyline class="BarLine" fill="none" stroke="#000000" stroke-width="4.46" stroke-linejoin="bevel" points="833.203,632.834 833.203,734.762"/>
<polyline class="BarLine" fill="none" stroke="#000000" stroke-width="4.46" stroke-linejoin="bevel" points="2740.42,1104.03 2740.42,1205.96"/>
<polyline class="BarLine" fill="none" stroke="#000000" stroke-width="13.64" stroke-linejoin="bevel" points="2757.78,1104.03 2757.78,1205.96"/>
<polyline class="BarLine" fill="none" stroke="#000000" stroke-width="4.46" stroke-linejoin="bevel" points="2762.37,632.834 2762.37,734.762"/>
<polyline class="BarLine" fill="none" stroke="#000000" stroke-width="4.46" stroke-linejoin="bevel" points="2000.74,632.834 2000.74,734.762"/>
<polyline class="BarLine" fill="none" stroke="#000000" stroke-width="4.46" stroke-linejoin="bevel" points="2363.6,1104.03 2363.6,1205.96"/>
<polyline class="BarLine" fill="none" stroke="#000000" stroke-width="4.46" stroke-linejoin="bevel" points="1645.03,632.834 1645.03,734.762"/>
<polyline class="BarLine" fill="none" stroke="#000000" stroke-width="4.46" stroke-linejoin="bevel" points="856.308,1104.03 856.308,1205.96"/>
<polyline class="BarLine" fill="none" stroke="#000000" stroke-width="4.46" stroke-linejoin="bevel" points="2406.66,632.834 2406.66,734.762"/>
<polyline class="BarLine" fill="none" stroke="#000000" stroke-width="4.46" stroke-linejoin="bevel" points="1239.12,632.834 1239.12,734.762"/>
<polyline class="BarLine" fill="none" stroke="#000000" stroke-width="4.46" stroke-linejoin="bevel" points="1233.13,1104.03 1233.13,1205.96"/>
<polyline class="BarLine" fill="none" stroke="#000000" stroke-width="4.46" stroke-linejoin="bevel" points="1986.78,1104.03 1986.78,1205.96"/>
<polyline class="BarLine" fill="none" stroke="#000000" stroke-width="4.46" stroke-linejoin="bevel" points="1609.95,1104.03 1609.95,1205.96"/>
<polyline class="Stem" fill="none" stroke="#000000" stroke-width="2.73" stroke-linejoin="bevel" points="1675.29,1175.83 1675.29,1093"/>
<polyline class="Stem" fill="none" stroke="#000000" stroke-width="2.73" stroke-linejoin="bevel" points="2631.49,704.63 2631.49,621.798"/>
<polyline class="Stem" fill="none" stroke="#000000" stroke-width="2.73" stroke-linejoin="bevel" points="2471.99,704.63 2471.99,621.798"/>
<polyline class="Stem" fill="none" stroke="#000000" stroke-width="2.73" stroke-linejoin="bevel" points="1108.24,704.63 1108.24,621.798"/>
<polyline class="Stem" fill="none" stroke="#000000" stroke-width="2.73" stroke-linejoin="bevel" points="1304.45,692.23 1304.45,615.598"/>
<polyline class="Stem" fill="none" stroke="#000000" stroke-width="2.73" stroke-linejoin="bevel" points="921.641,1213.03 921.641,1130.2"/>
<polyline class="Stem" fill="none" stroke="#000000" stroke-width="2.73" stroke-linejoin="bevel" points="1298.46,1213.03 1298.46,1130.2"/>
<polyline class="Stem" fill="none" stroke="#000000" stroke-width="2.73" stroke-linejoin="bevel" points="1434.46,687.965 1434.46,758.198"/>
<polyline class="Stem" fill="none" stroke="#000000" stroke-width="2.73" stroke-linejoin="bevel" points="2022.61,1134.36 2022.61,1217"/>
<polyline class="Stem" fill="none" stroke="#000000" stroke-width="2.73" stroke-linejoin="bevel" points="795.503,1200.63 795.503,1118"/>
<polyline class="Stem" fill="none" stroke="#000000" stroke-width="2.73" stroke-linejoin="bevel" points="2246.29,687.965 2246.29,758.198"/>
<polyline class="Stem" fill="none" stroke="#000000" stroke-width="2.73" stroke-linejoin="bevel" points="1024.36,704.63 1024.36,621.997"/>
<polyline class="Stem" fill="none" stroke="#000000" stroke-width="2.73" stroke-linejoin="bevel" points="1560.28,687.965 1560.28,764.299"/>
<polyline class="Stem" fill="none" stroke="#000000" stroke-width="2.73" stroke-linejoin="bevel" points="661.352,1175.83 661.352,1093"/>
<polyline class="Stem" fill="none" stroke="#000000" stroke-width="2.73" stroke-linejoin="bevel" points="2192.67,1134.36 2192.67,1217"/>
<polyline class="Stem" fill="none" stroke="#000000" stroke-width="2.73" stroke-linejoin="bevel" points="1815.85,1159.16 1815.85,1229.4"/>
<polyline class="Stem" fill="none" stroke="#000000" stroke-width="2.73" stroke-linejoin="bevel" points="1710.36,692.23 1710.36,615.598"/>
<polyline class="Stem" fill="none" stroke="#000000" stroke-width="2.73" stroke-linejoin="bevel" points="571.918,1163.43 571.918,1087"/>
<polyline class="Stem" fill="none" stroke="#000000" stroke-width="2.73" stroke-linejoin="bevel" points="2162.4,687.965 2162.4,764.299"/>
<polyline class="Stem" fill="none" stroke="#000000" stroke-width="2.73" stroke-linejoin="bevel" points="437.767,1163.43 437.767,1086.8"/>
<polyline class="Stem" fill="none" stroke="#000000" stroke-width="2.73" stroke-linejoin="bevel" points="492.621,741.83 492.621,658.998"/>
<polyline class="Stem" fill="none" stroke="#000000" stroke-width="2.73" stroke-linejoin="bevel" points="1468.52,1213.03 1468.52,1130.2"/>
<polyline class="Stem" fill="none" stroke="#000000" stroke-width="2.73" stroke-linejoin="bevel" points="702.328,741.83 702.328,658.998"/>
<polyline class="Stem" fill="none" stroke="#000000" stroke-width="2.73" stroke-linejoin="bevel" points="2036.58,687.965 2036.58,758.198"/>
<polyline class="Stem" fill="none" stroke="#000000" stroke-width="2.73" stroke-linejoin="bevel" points="898.536,704.63 898.536,621.798"/>
<polyline class="Stem" fill="none" stroke="#000000" stroke-width="2.73" stroke-linejoin="bevel" points="2428.93,1175.83 2428.93,1093"/>
<polyline class="Stem" fill="none" stroke="#000000" stroke-width="2.73" stroke-linejoin="bevel" points="618.446,741.83 618.446,659.197"/>
<path class="Hook" transform="matrix(0.992,0,0,0.992,2161.04,764.398)" d="M0,-0.1 C0,0.6 0.6,1.2 1.3,1.2 C1.8,1.2 2.4,0.8 2.5,0.4 C2.5,0.3 3.4,-3.2 3.5,-3.5 C3.6,-3.9 4.5,-7.7 8.1,-13.6 C12,-20.1 18,-24.8 23,-31.8 C28,-38.8 30.9,-45.4 30.9,-54.2 C30.9,-63.3 28.9,-70.9 23.5,-80.6 C23.2,-81.3 22.6,-81.7 22,-81.7 C21.8,-81.7 21.6,-81.7 21.5,-81.6 C21,-81.4 20.8,-81 20.8,-80.4 C20.8,-80.1 20.9,-79.7 21.1,-79.2 C25.1,-69.9 26.7,-64.6 26.7,-57.4 C26.7,-49.1 23.8,-44.8 22,-41.7 C15.5,-30.6 5,-25.2 0.8,-23.8 C0.1,-23.6 0,-23 0,-22.7 L0,-0.1 "/>
<path class="Hook" transform="matrix(0.992,0,0,0.992,570.554,1086.8)" d="M0,22.7 C0,23 0.1,23.6 0.8,23.8 C5.1,25.2 13.7,30.6 20.2,41.7 C22,44.8 24.9,49.1 24.9,57.4 C24.9,64.6 23.1,72 20.4,79.2 C20.2,79.8 20.1,80.3 20.1,80.7 C20.1,81.4 20.5,81.7 21.2,81.7 C21.8,81.7 22.3,81.3 22.7,80.6 C27.2,72.6 28.9,63.3 28.9,54.2 C28.4,41.3 21,31.8 21,31.8 C21.3,31.8 11.8,19.5 9.1,15.3 C5.4,9.6 3.7,3.9 3.5,3.5 C3.4,3.2 2.5,-0.4 2.5,-0.4 C2.4,-0.8 1.9,-1.2 1.3,-1.2 C0.6,-1.2 0,-0.6 0,0.1 L0,22.7 "/>
<path class="Hook" transform="matrix(0.992,0,0,0.992,1023,621.798)" d="M0,22.7 C0,23 0.1,23.6 0.8,23.8 C5.1,25.2 13.7,30.6 20.2,41.7 C22,44.8 24.9,49.1 24.9,57.4 C24.9,64.6 23.1,72 20.4,79.2 C20.2,79.8 20.1,80.3 20.1,80.7 C20.1,81.4 20.5,81.7 21.2,81.7 C21.8,81.7 22.3,81.3 22.7,80.6 C27.2,72.6 28.9,63.3 28.9,54.2 C28.4,41.3 21,31.8 21,31.8 C21.3,31.8 11.8,19.5 9.1,15.3 C5.4,9.6 3.7,3.9 3.5,3.5 C3.4,3.2 2.5,-0.4 2.5,-0.4 C2.4,-0.8 1.9,-1.2 1.3,-1.2 C0.6,-1.2 0,-0.6 0,0.1 L0,22.7 "/>
<path class="Hook" transform="matrix(0.992,0,0,0.992,794.139,1117.8)" d="M0,22.7 C0,23 0.1,23.6 0.8,23.8 C5.1,25.2 13.7,30.6 20.2,41.7 C22,44.8 24.9,49.1 24.9,57.4 C24.9,64.6 23.1,72 20.4,79.2 C20.2,79.8 20.1,80.3 20.1,80.7 C20.1,81.4 20.5,81.7 21.2,81.7 C21.8,81.7 22.3,81.3 22.7,80.6 C27.2,72.6 28.9,63.3 28.9,54.2 C28.4,41.3 21,31.8 21,31.8 C21.3,31.8 11.8,19.5 9.1,15.3 C5.4,9.6 3.7,3.9 3.5,3.5 C3.4,3.2 2.5,-0.4 2.5,-0.4 C2.4,-0.8 1.9,-1.2 1.3,-1.2 C0.6,-1.2 0,-0.6 0,0.1 L0,22.7 "/>
<path class="Hook" transform="matrix(0.992,0,0,0.992,617.082,658.998)" d="M0,22.7 C0,23 0.1,23.6 0.8,23.8 C5.1,25.2 13.7,30.6 20.2,41.7 C22,44.8 24.9,49.1 24.9,57.4 C24.9,64.6 23.1,72 20.4,79.2 C20.2,79.8 20.1,80.3 20.1,80.7 C20.1,81.4 20.5,81.7 21.2,81.7 C21.8,81.7 22.3,81.3 22.7,80.6 C27.2,72.6 28.9,63.3 28.9,54.2 C28.4,41.3 21,31.8 21,31.8 C21.3,31.8 11.8,19.5 9.1,15.3 C5.4,9.6 3.7,3.9 3.5,3.5 C3.4,3.2 2.5,-0.4 2.5,-0.4 C2.4,-0.8 1.9,-1.2 1.3,-1.2 C0.6,-1.2 0,-0.6 0,0.1 L0,22.7 "/>
<path class="Hook" transform="matrix(0.992,0,0,0.992,1558.92,764.398)" d="M0,-0.1 C0,0.6 0.6,1.2 1.3,1.2 C1.8,1.2 2.4,0.8 2.5,0.4 C2.5,0.3 3.4,-3.2 3.5,-3.5 C3.6,-3.9 4.5,-7.7 8.1,-13.6 C12,-20.1 18,-24.8 23,-31.8 C28,-38.8 30.9,-45.4 30.9,-54.2 C30.9,-63.3 28.9,-70.9 23.5,-80.6 C23.2,-81.3 22.6,-81.7 22,-81.7 C21.8,-81.7 21.6,-81.7 21.5,-81.6 C21,-81.4 20.8,-81 20.8,-80.4 C20.8,-80.1 20.9,-79.7 21.1,-79.2 C25.1,-69.9 26.7,-64.6 26.7,-57.4 C26.7,-49.1 23.8,-44.8 22,-41.7 C15.5,-30.6 5,-25.2 0.8,-23.8 C0.1,-23.6 0,-23 0,-22.7 L0,-0.1 "/>
<path class="Note" transform="matrix(0.992,0,0,0.992,2441.13,708.598)" d="M0,4.2 C0,8.5 3.1,13.3 11.2,13.3 C21.6,13.3 32.5,4.8 32.5,-4 C32.5,-9.9 27.5,-13.2 21.3,-13.2 C11.6,-13.2 0,-5 0,4.2"/>
<path class="Note" transform="matrix(0.992,0,0,0.992,993.5,708.598)" d="M0,4.2 C0,8.5 3.1,13.3 11.2,13.3 C21.6,13.3 32.5,4.8 32.5,-4 C32.5,-9.9 27.5,-13.2 21.3,-13.2 C11.6,-13.2 0,-5 0,4.2"/>
<path class="Note" transform="matrix(0.992,0,0,0.992,2161.04,683.798)" d="M0,4.2 C0,8.5 3.1,13.3 11.2,13.3 C21.6,13.3 32.5,4.8 32.5,-4 C32.5,-9.9 27.5,-13.2 21.3,-13.2 C11.6,-13.2 0,-5 0,4.2"/>
<path class="Note" transform="matrix(0.992,0,0,0.992,2600.63,708.598)" d="M0,4.2 C0,8.5 3.1,13.3 11.2,13.3 C21.6,13.3 32.5,4.8 32.5,-4 C32.5,-9.9 27.5,-13.2 21.3,-13.2 C11.6,-13.2 0,-5 0,4.2"/>
<path class="Note" transform="matrix(0.992,0,0,0.992,2035.22,683.798)" d="M0,4.2 C0,8.5 3.1,13.3 11.2,13.3 C21.6,13.3 32.5,4.8 32.5,-4 C32.5,-9.9 27.5,-13.2 21.3,-13.2 C11.6,-13.2 0,-5 0,4.2"/>
<path class="Note" transform="matrix(0.992,0,0,0.992,406.906,1167.4)" d="M0,4.2 C0,8.5 3.1,13.3 11.2,13.3 C21.6,13.3 32.5,4.8 32.5,-4 C32.5,-9.9 27.5,-13.2 21.3,-13.2 C11.6,-13.2 0,-5 0,4.2"/>
<path class="Note" transform="matrix(0.992,0,0,0.992,890.78,1217)" d="M0,4.2 C0,8.5 3.1,13.3 11.2,13.3 C21.6,13.3 32.5,4.8 32.5,-4 C32.5,-9.9 27.5,-13.2 21.3,-13.2 C11.6,-13.2 0,-5 0,4.2"/>
<path class="Note" transform="matrix(0.992,0,0,0.992,1273.59,696.198)" d="M0,4.2 C0,8.5 3.1,13.3 11.2,13.3 C21.6,13.3 32.5,4.8 32.5,-4 C32.5,-9.9 27.5,-13.2 21.3,-13.2 C11.6,-13.2 0,-5 0,4.2"/>
<path class="Note" transform="matrix(0.992,0,0,0.992,2398.07,1179.8)" d="M0,4.2 C0,8.5 3.1,13.3 11.2,13.3 C21.6,13.3 32.5,4.8 32.5,-4 C32.5,-9.9 27.5,-13.2 21.3,-13.2 C11.6,-13.2 0,-5 0,4.2"/>
<path class="Note" transform="matrix(0.992,0,0,0.992,1077.38,708.598)" d="M0,4.2 C0,8.5 3.1,13.3 11.2,13.3 C21.6,13.3 32.5,4.8 32.5,-4 C32.5,-9.9 27.5,-13.2 21.3,-13.2 C11.6,-13.2 0,-5 0,4.2"/>
<path class="Note" transform="matrix(0.992,0,0,0.992,1433.09,683.798)" d="M0,4.2 C0,8.5 3.1,13.3 11.2,13.3 C21.6,13.3 32.5,4.8 32.5,-4 C32.5,-9.9 27.5,-13.2 21.3,-13.2 C11.6,-13.2 0,-5 0,4.2"/>
<path class="Note" transform="matrix(0.992,0,0,0.992,764.642,1204.6)" d="M0,4.2 C0,8.5 3.1,13.3 11.2,13.3 C21.6,13.3 32.5,4.8 32.5,-4 C32.5,-9.9 27.5,-13.2 21.3,-13.2 C11.6,-13.2 0,-5 0,4.2"/>
<path class="Note" transform="matrix(0.992,0,0,0.992,2191.31,1130.2)" d="M0,4.2 C0,8.5 3.1,13.3 11.2,13.3 C21.6,13.3 32.5,4.8 32.5,-4 C32.5,-9.9 27.5,-13.2 21.3,-13.2 C11.6,-13.2 0,-5 0,4.2"/>
<path class="Note" transform="matrix(0.992,0,0,0.992,461.761,745.798)" d="M0,4.2 C0,8.5 3.1,13.3 11.2,13.3 C21.6,13.3 32.5,4.8 32.5,-4 C32.5,-9.9 27.5,-13.2 21.3,-13.2 C11.6,-13.2 0,-5 0,4.2"/>
<path class="Note" transform="matrix(0.992,0,0,0.992,2021.25,1130.2)" d="M0,4.2 C0,8.5 3.1,13.3 11.2,13.3 C21.6,13.3 32.5,4.8 32.5,-4 C32.5,-9.9 27.5,-13.2 21.3,-13.2 C11.6,-13.2 0,-5 0,4.2"/>
<path class="Note" transform="matrix(0.992,0,0,0.992,587.585,745.798)" d="M0,4.2 C0,8.5 3.1,13.3 11.2,13.3 C21.6,13.3 32.5,4.8 32.5,-4 C32.5,-9.9 27.5,-13.2 21.3,-13.2 C11.6,-13.2 0,-5 0,4.2"/>
<path class="Note" transform="matrix(0.992,0,0,0.992,1814.48,1155)" d="M0,4.2 C0,8.5 3.1,13.3 11.2,13.3 C21.6,13.3 32.5,4.8 32.5,-4 C32.5,-9.9 27.5,-13.2 21.3,-13.2 C11.6,-13.2 0,-5 0,4.2"/>
<path class="Note" transform="matrix(0.992,0,0,0.992,671.468,745.798)" d="M0,4.2 C0,8.5 3.1,13.3 11.2,13.3 C21.6,13.3 32.5,4.8 32.5,-4 C32.5,-9.9 27.5,-13.2 21.3,-13.2 C11.6,-13.2 0,-5 0,4.2"/>
<path class="Note" transform="matrix(0.992,0,0,0.992,1644.43,1179.8)" d="M0,4.2 C0,8.5 3.1,13.3 11.2,13.3 C21.6,13.3 32.5,4.8 32.5,-4 C32.5,-9.9 27.5,-13.2 21.3,-13.2 C11.6,-13.2 0,-5 0,4.2"/>
<path class="Note" transform="matrix(0.992,0,0,0.992,1679.5,696.198)" d="M0,4.2 C0,8.5 3.1,13.3 11.2,13.3 C21.6,13.3 32.5,4.8 32.5,-4 C32.5,-9.9 27.5,-13.2 21.3,-13.2 C11.6,-13.2 0,-5 0,4.2"/>
<path class="Note" transform="matrix(0.992,0,0,0.992,541.057,1167.4)" d="M0,4.2 C0,8.5 3.1,13.3 11.2,13.3 C21.6,13.3 32.5,4.8 32.5,-4 C32.5,-9.9 27.5,-13.2 21.3,-13.2 C11.6,-13.2 0,-5 0,4.2"/>
<path class="Note" transform="matrix(0.992,0,0,0.992,1558.92,683.798)" d="M0,4.2 C0,8.5 3.1,13.3 11.2,13.3 C21.6,13.3 32.5,4.8 32.5,-4 C32.5,-9.9 27.5,-13.2 21.3,-13.2 C11.6,-13.2 0,-5 0,4.2"/>
<path class="Note" transform="matrix(0.992,0,0,0.992,630.491,1179.8)" d="M0,4.2 C0,8.5 3.1,13.3 11.2,13.3 C21.6,13.3 32.5,4.8 32.5,-4 C32.5,-9.9 27.5,-13.2 21.3,-13.2 C11.6,-13.2 0,-5 0,4.2"/>
<path class="Note" transform="matrix(0.992,0,0,0.992,867.675,708.598)" d="M0,4.2 C0,8.5 3.1,13.3 11.2,13.3 C21.6,13.3 32.5,4.8 32.5,-4 C32.5,-9.9 27.5,-13.2 21.3,-13.2 C11.6,-13.2 0,-5 0,4.2"/>
<path class="Note" transform="matrix(0.992,0,0,0.992,1437.66,1217)" d="M0,4.2 C0,8.5 3.1,13.3 11.2,13.3 C21.6,13.3 32.5,4.8 32.5,-4 C32.5,-9.9 27.5,-13.2 21.3,-13.2 C11.6,-13.2 0,-5 0,4.2"/>
<path class="Note" transform="matrix(0.992,0,0,0.992,1267.6,1217)" d="M0,4.2 C0,8.5 3.1,13.3 11.2,13.3 C21.6,13.3 32.5,4.8 32.5,-4 C32.5,-9.9 27.5,-13.2 21.3,-13.2 C11.6,-13.2 0,-5 0,4.2"/>
<path class="Note" transform="matrix(0.992,0,0,0.992,2244.92,683.798)" d="M0,4.2 C0,8.5 3.1,13.3 11.2,13.3 C21.6,13.3 32.5,4.8 32.5,-4 C32.5,-9.9 27.5,-13.2 21.3,-13.2 C11.6,-13.2 0,-5 0,4.2"/>
<path class="Clef" transform="matrix(0.992,0,0,0.992,232.438,708.598)" d="M12.3,51.3 C12.3,57.9 17.3,66.6 30.8,66.6 C35.5,66.6 39.6,65.4 43.2,63.2 C48.6,59.4 50,52.8 50,46.5 C50,42.6 49.4,38.1 48.4,32.4 C48.1,30.4 47.5,27.4 46.9,23.5 C56.7,20.3 64,10.1 64,-0.2 C64,-15.3 53.3,-25.5 38.7,-25.5 C37.7,-31.5 36.7,-37.4 35.9,-43 C46.4,-54.1 53.7,-66.6 53.7,-82.5 C53.7,-91.6 50.9,-99 49.3,-102.6 C46.9,-107.7 44,-111.2 42.2,-111.2 C41.5,-111.2 38.4,-110 35.1,-106.1 C28.7,-98.5 26.9,-85.7 26.9,-77.3 C26.9,-71.9 27.4,-67 29.1,-55.8 C29,-55.7 23.8,-50.4 21.7,-48.7 C12.6,-40.3 0,-28.1 0,-8.1 C0,10.6 16.3,25.3 34.9,25.3 C37.8,25.3 40.5,25 42.8,24.6 C44.7,34.2 45.9,41.2 45.9,46.5 C45.9,56.9 40.5,62.4 30.4,62.4 C28,62.4 25.9,61.9 25.7,61.9 C25.6,61.8 25.4,61.7 25.4,61.6 C25.4,61.4 25.6,61.3 25.9,61.3 C30.6,60.5 35.3,56.5 35.3,50.1 C35.3,44.7 31.2,39 23.7,39 C16.7,39 12.3,44.7 12.3,51.3 M33.2,-82.2 C34.1,-86.2 38.7,-96.7 43.9,-96.7 C45.4,-96.7 47.8,-91.9 47.8,-84.9 C47.8,-74.5 40.1,-66.7 33.2,-59.9 C32.6,-63.9 32.1,-67.8 32.1,-72 C32.1,-75.7 32.4,-79.1 33.2,-82.2 M42,20.6 C40,21 38.1,21.2 36.2,21.2 C21.9,21.2 9.7,11.2 9.7,-3.9 C9.7,-16.1 18.3,-27 27.1,-34.6 C28.8,-36.1 30.4,-37.5 31.9,-39 C32.8,-33.6 33.5,-28.9 34.2,-24.8 C25.1,-22.1 18.9,-12.5 18.9,-3.1 C18.9,3.9 24.4,13.5 32.4,13.5 C33.2,13.5 34.1,13.1 34.1,12.2 C34.1,11.3 33.1,10.8 31.9,10 C28,7.6 25.8,5 25.8,0.1 C25.8,-6 30.4,-10.9 36.2,-12.3 L42,20.6 M56.2,2.1 C56.2,9.2 53.3,16.5 46.2,19.4 C44.1,7.4 41.4,-8.5 40.7,-12.9 C49.7,-12.9 56.2,-6.8 56.2,2.1"/>
<path class="Clef" transform="matrix(0.992,0,0,0.992,232.438,1179.8)" d="M12.3,51.3 C12.3,57.9 17.3,66.6 30.8,66.6 C35.5,66.6 39.6,65.4 43.2,63.2 C48.6,59.4 50,52.8 50,46.5 C50,42.6 49.4,38.1 48.4,32.4 C48.1,30.4 47.5,27.4 46.9,23.5 C56.7,20.3 64,10.1 64,-0.2 C64,-15.3 53.3,-25.5 38.7,-25.5 C37.7,-31.5 36.7,-37.4 35.9,-43 C46.4,-54.1 53.7,-66.6 53.7,-82.5 C53.7,-91.6 50.9,-99 49.3,-102.6 C46.9,-107.7 44,-111.2 42.2,-111.2 C41.5,-111.2 38.4,-110 35.1,-106.1 C28.7,-98.5 26.9,-85.7 26.9,-77.3 C26.9,-71.9 27.4,-67 29.1,-55.8 C29,-55.7 23.8,-50.4 21.7,-48.7 C12.6,-40.3 0,-28.1 0,-8.1 C0,10.6 16.3,25.3 34.9,25.3 C37.8,25.3 40.5,25 42.8,24.6 C44.7,34.2 45.9,41.2 45.9,46.5 C45.9,56.9 40.5,62.4 30.4,62.4 C28,62.4 25.9,61.9 25.7,61.9 C25.6,61.8 25.4,61.7 25.4,61.6 C25.4,61.4 25.6,61.3 25.9,61.3 C30.6,60.5 35.3,56.5 35.3,50.1 C35.3,44.7 31.2,39 23.7,39 C16.7,39 12.3,44.7 12.3,51.3 M33.2,-82.2 C34.1,-86.2 38.7,-96.7 43.9,-96.7 C45.4,-96.7 47.8,-91.9 47.8,-84.9 C47.8,-74.5 40.1,-66.7 33.2,-59.9 C32.6,-63.9 32.1,-67.8 32.1,-72 C32.1,-75.7 32.4,-79.1 33.2,-82.2 M42,20.6 C40,21 38.1,21.2 36.2,21.2 C21.9,21.2 9.7,11.2 9.7,-3.9 C9.7,-16.1 18.3,-27 27.1,-34.6 C28.8,-36.1 30.4,-37.5 31.9,-39 C32.8,-33.6 33.5,-28.9 34.2,-24.8 C25.1,-22.1 18.9,-12.5 18.9,-3.1 C18.9,3.9 24.4,13.5 32.4,13.5 C33.2,13.5 34.1,13.1 34.1,12.2 C34.1,11.3 33.1,10.8 31.9,10 C28,7.6 25.8,5 25.8,0.1 C25.8,-6 30.4,-10.9 36.2,-12.3 L42,20.6 M56.2,2.1 C56.2,9.2 53.3,16.5 46.2,19.4 C44.1,7.4 41.4,-8.5 40.7,-12.9 C49.7,-12.9 56.2,-6.8 56.2,2.1"/>
<path class="KeySig" transform="matrix(0.992,0,0,0.992,320.711,634.198)" d="M23.3,-10.5 C23.9,-10.6 24.4,-11.3 24.4,-11.9 L24.4,-17.8 C24.4,-18.8 23.7,-19.2 22.8,-19.2 L19.5,-18.5 L19.5,-33.4 L16.7,-33.4 L16.7,-17.9 L7.8,-16.1 L7.8,-30.2 L5,-30.2 L5,-15.5 L1.1,-14.7 C0.5,-14.6 0,-13.9 0,-13.3 L0,-7.5 C0,-6.4 0.8,-6.1 1.7,-6.1 L5,-6.8 L5,9.7 L1.1,10.5 C0.5,10.6 0,11.3 0,11.9 L0,17.7 C0,18.8 0.8,19.1 1.7,19.1 L5,18.4 L5,33.3 L7.8,33.3 L7.8,17.8 L16.7,16 L16.7,30.1 L19.5,30.1 L19.5,15.4 L23.3,14.7 C23.9,14.6 24.4,13.9 24.4,13.3 L24.4,7.4 C24.4,6.4 23.7,6 22.8,6 L19.5,6.7 L19.5,-9.8 L23.3,-10.5 M7.8,-7.4 L16.7,-9.2 L16.7,7.3 L7.8,9.2 L7.8,-7.4 "/>
<path class="KeySig" transform="matrix(0.992,0,0,0.992,320.711,1105.4)" d="M23.3,-10.5 C23.9,-10.6 24.4,-11.3 24.4,-11.9 L24.4,-17.8 C24.4,-18.8 23.7,-19.2 22.8,-19.2 L19.5,-18.5 L19.5,-33.4 L16.7,-33.4 L16.7,-17.9 L7.8,-16.1 L7.8,-30.2 L5,-30.2 L5,-15.5 L1.1,-14.7 C0.5,-14.6 0,-13.9 0,-13.3 L0,-7.5 C0,-6.4 0.8,-6.1 1.7,-6.1 L5,-6.8 L5,9.7 L1.1,10.5 C0.5,10.6 0,11.3 0,11.9 L0,17.7 C0,18.8 0.8,19.1 1.7,19.1 L5,18.4 L5,33.3 L7.8,33.3 L7.8,17.8 L16.7,16 L16.7,30.1 L19.5,30.1 L19.5,15.4 L23.3,14.7 C23.9,14.6 24.4,13.9 24.4,13.3 L24.4,7.4 C24.4,6.4 23.7,6 22.8,6 L19.5,6.7 L19.5,-9.8 L23.3,-10.5 M7.8,-7.4 L16.7,-9.2 L16.7,7.3 L7.8,9.2 L7.8,-7.4 "/>
<path class="TimeSig" transform="matrix(0.992,0,0,0.992,371.597,659.494)" d="M34.2,3.9 C33.4,6.1 31.4,13.3 26.5,13.3 C20,13.3 18.6,9.3 13.2,9.3 C12.4,9.3 11.6,9.4 10.6,9.6 C10.6,9.6 13.1,5.8 23.7,2.5 C34.3,-0.8 37,-6 37,-12 C37,-16.2 35.1,-24.5 20,-24.5 C4.9,-24.5 2.1,-15.4 2.1,-10.8 C2.1,-6.7 5.5,-3.4 9.6,-3.4 C13.7,-3.4 17,-6.7 17,-10.8 C17,-13.6 15,-16.7 12.4,-17.7 C12.1,-17.8 11.7,-18.3 11.7,-18.8 C11.7,-19.4 12.2,-20.1 14,-20.6 C14.5,-20.8 15.9,-21.1 17.4,-21.1 C23.1,-21.1 24.2,-17.6 24.2,-12.5 C24.2,-0.8 10.3,1.7 4.5,10.4 C4.5,10.4 1.5,14.6 1.5,19.3 C1.5,24 3.9,24.3 5.1,24.3 C6.7,24.3 8.4,23 8.4,21.2 C8.4,20.8 8.3,20.4 8.1,19.9 C7.5,18.5 7.3,17.4 7.3,16.6 C7.3,16.3 7.3,16 7.4,15.7 C7.5,15.1 8.3,14.1 10.7,14.1 C13.6,14.1 14.7,17.5 16.5,20.1 C18.3,22.7 21.1,24.3 24.3,24.3 C27.5,24.3 31.8,22 33.6,18.3 C35.4,14.6 37.7,7.1 37.7,4.4 C37.7,3.1 36.9,2.5 36,2.5 C35.3,2.5 34.6,2.9 34.2,3.9"/>
<path class="TimeSig" transform="matrix(0.992,0,0,0.992,368.327,708.598)" d="M20.8,12.7 L20.8,20.1 L12.5,20.1 C11.8,20.1 11.1,20.7 11.1,21.5 L11.1,23.4 C11.1,24.2 11.8,24.8 12.5,24.8 L42.8,24.8 C43.6,24.8 44.2,24.2 44.2,23.4 L44.2,21.5 C44.2,20.7 43.6,20.1 42.8,20.1 L33.9,20.1 L33.9,12.7 L42.8,12.7 C43.6,12.7 44.2,12 44.2,11.2 L44.2,9.3 C44.2,8.6 43.6,7.9 42.8,7.9 L33.9,7.9 L33.9,-8 C33.9,-8.6 33.6,-9.1 33.1,-9.3 L31.9,-9.9 C31.7,-10 31.4,-10.1 31.2,-10.1 C30.9,-10 30.5,-9.9 30.3,-9.7 L21.2,-1.4 C20.9,-1.1 20.8,-0.7 20.8,-0.3 L20.8,7.9 L9.3,7.9 C9.3,7.9 20.4,-4.1 32.2,-19.9 C32.6,-20.4 32.7,-20.9 32.7,-21.3 C32.7,-21.8 32.5,-22.2 32.4,-22.3 L30.2,-24.5 C30,-24.7 29.6,-24.9 29.2,-24.9 C28.6,-24.9 15.1,-24.9 14.4,-24.9 C13.6,-24.9 13.1,-24.3 13,-23.7 C13,-23.7 12.5,-16.3 9.9,-8.2 C7.3,-0.1 4.3,4.9 1.7,8.6 C1.7,8.6 1.4,9.1 1.4,9.7 C1.4,9.9 1.4,10.1 1.5,10.3 C1.9,11 2.5,12.1 2.5,12.1 C2.5,12.1 2.7,12.7 3.6,12.7 L20.8,12.7 "/>
<path class="Rest" transform="matrix(0.992,0,0,0.992,1060.84,1155)" d="M23,16.6 C22.9,16.5 22.7,16.3 22.4,15.9 L10.9,1.7 C10.8,1.6 10.7,1.3 10.7,1.1 C10.7,0.8 10.8,0.4 10.9,0.2 L21.1,-15.2 C21.2,-15.4 21.3,-15.7 21.3,-15.9 L21.3,-16.8 C21.3,-17.1 21.2,-17.4 21,-17.6 L4.8,-39.5 C4.8,-39.5 4.4,-40.1 3.8,-40.1 C3.5,-40.1 3.3,-40.1 3,-39.8 C2.6,-39.5 2.5,-39.1 2.5,-38.8 C2.5,-38.2 2.8,-37.7 2.8,-37.7 L10.4,-27.3 C10.6,-27 10.7,-26.6 10.7,-26.1 C10.7,-25.7 10.6,-25.2 10.4,-24.9 L0.3,-9.5 C0.2,-9.3 0.1,-8.9 0.1,-8.7 L0.1,-7.8 C0.1,-7.5 0.2,-7.2 0.4,-7 L11.6,6.9 C11.2,6.8 10.3,6.6 9.1,6.6 C4,6.6 0,10.8 0,15.9 C0,17.3 0.3,18.7 1.1,19.8 C3.2,23 10.7,32.5 10.7,32.5 C10.7,32.5 11.2,33.1 11.9,33.1 C12.1,33.1 12.3,33.1 12.5,32.9 C13,32.5 13.2,32.1 13.2,31.7 C13.2,31.3 13,31 12.9,30.8 C12.6,30.3 9.4,24.5 9.4,24.5 C9.4,24.5 8.7,23.1 8.7,21.3 C8.7,18.1 11.1,15.5 14.3,15.5 C15.6,15.5 16.7,15.9 17.5,16.4 L21.4,18.9 C21.4,18.9 21.8,19.1 22.2,19.1 C22.6,19.1 22.9,19 23.2,18.6 C23.4,18.3 23.5,18 23.5,17.7 C23.5,17.4 23.4,17.2 23.2,16.9 L23,16.6 "/>
<path class="Rest" transform="matrix(0.992,0,0,0.992,2568.13,1155)" d="M23,16.6 C22.9,16.5 22.7,16.3 22.4,15.9 L10.9,1.7 C10.8,1.6 10.7,1.3 10.7,1.1 C10.7,0.8 10.8,0.4 10.9,0.2 L21.1,-15.2 C21.2,-15.4 21.3,-15.7 21.3,-15.9 L21.3,-16.8 C21.3,-17.1 21.2,-17.4 21,-17.6 L4.8,-39.5 C4.8,-39.5 4.4,-40.1 3.8,-40.1 C3.5,-40.1 3.3,-40.1 3,-39.8 C2.6,-39.5 2.5,-39.1 2.5,-38.8 C2.5,-38.2 2.8,-37.7 2.8,-37.7 L10.4,-27.3 C10.6,-27 10.7,-26.6 10.7,-26.1 C10.7,-25.7 10.6,-25.2 10.4,-24.9 L0.3,-9.5 C0.2,-9.3 0.1,-8.9 0.1,-8.7 L0.1,-7.8 C0.1,-7.5 0.2,-7.2 0.4,-7 L11.6,6.9 C11.2,6.8 10.3,6.6 9.1,6.6 C4,6.6 0,10.8 0,15.9 C0,17.3 0.3,18.7 1.1,19.8 C3.2,23 10.7,32.5 10.7,32.5 C10.7,32.5 11.2,33.1 11.9,33.1 C12.1,33.1 12.3,33.1 12.5,32.9 C13,32.5 13.2,32.1 13.2,31.7 C13.2,31.3 13,31 12.9,30.8 C12.6,30.3 9.4,24.5 9.4,24.5 C9.4,24.5 8.7,23.1 8.7,21.3 C8.7,18.1 11.1,15.5 14.3,15.5 C15.6,15.5 16.7,15.9 17.5,16.4 L21.4,18.9 C21.4,18.9 21.8,19.1 22.2,19.1 C22.6,19.1 22.9,19 23.2,18.6 C23.4,18.3 23.5,18 23.5,17.7 C23.5,17.4 23.4,17.2 23.2,16.9 L23,16.6 "/>
<path class="Rest" transform="matrix(0.992,0,0,0.992,1839.01,683.798)" d="M23,16.6 C22.9,16.5 22.7,16.3 22.4,15.9 L10.9,1.7 C10.8,1.6 10.7,1.3 10.7,1.1 C10.7,0.8 10.8,0.4 10.9,0.2 L21.1,-15.2 C21.2,-15.4 21.3,-15.7 21.3,-15.9 L21.3,-16.8 C21.3,-17.1 21.2,-17.4 21,-17.6 L4.8,-39.5 C4.8,-39.5 4.4,-40.1 3.8,-40.1 C3.5,-40.1 3.3,-40.1 3,-39.8 C2.6,-39.5 2.5,-39.1 2.5,-38.8 C2.5,-38.2 2.8,-37.7 2.8,-37.7 L10.4,-27.3 C10.6,-27 10.7,-26.6 10.7,-26.1 C10.7,-25.7 10.6,-25.2 10.4,-24.9 L0.3,-9.5 C0.2,-9.3 0.1,-8.9 0.1,-8.7 L0.1,-7.8 C0.1,-7.5 0.2,-7.2 0.4,-7 L11.6,6.9 C11.2,6.8 10.3,6.6 9.1,6.6 C4,6.6 0,10.8 0,15.9 C0,17.3 0.3,18.7 1.1,19.8 C3.2,23 10.7,32.5 10.7,32.5 C10.7,32.5 11.2,33.1 11.9,33.1 C12.1,33.1 12.3,33.1 12.5,32.9 C13,32.5 13.2,32.1 13.2,31.7 C13.2,31.3 13,31 12.9,30.8 C12.6,30.3 9.4,24.5 9.4,24.5 C9.4,24.5 8.7,23.1 8.7,21.3 C8.7,18.1 11.1,15.5 14.3,15.5 C15.6,15.5 16.7,15.9 17.5,16.4 L21.4,18.9 C21.4,18.9 21.8,19.1 22.2,19.1 C22.6,19.1 22.9,19 23.2,18.6 C23.4,18.3 23.5,18 23.5,17.7 C23.5,17.4 23.4,17.2 23.2,16.9 L23,16.6 "/>
<path class="Tuplet" d="M514.999,1053.55 C517.114,1052.87 517.969,1052.51 519.049,1051.79 C521.164,1050.4 522.469,1047.92 522.469,1045.4 C522.469,1041.13 519.049,1038.25 514.009,1038.25 C509.104,1038.25 504.964,1041.31 504.964,1045 C504.964,1046.84 506.089,1048.1 507.799,1048.1 C509.284,1048.1 510.364,1047.02 510.364,1045.54 C510.364,1044.77 510.139,1044.23 509.419,1043.51 C508.969,1043.11 508.789,1042.79 508.789,1042.48 C508.789,1041.4 511.039,1040.27 513.154,1040.27 C516.169,1040.27 517.969,1041.94 517.969,1044.73 C517.969,1048.73 515.134,1052.51 512.119,1052.51 C511.984,1052.51 511.579,1052.47 511.084,1052.42 C509.779,1052.33 509.779,1052.33 509.509,1052.33 C508.519,1052.33 507.979,1052.78 507.979,1053.59 C507.979,1054.31 508.474,1054.76 509.284,1054.76 C509.509,1054.76 509.824,1054.72 510.184,1054.67 C510.814,1054.54 511.489,1054.49 511.894,1054.49 C514.009,1054.49 515.449,1056.38 515.449,1059.17 C515.449,1064.03 513.064,1068.71 507.619,1068.71 C505.099,1068.71 502.939,1067.45 502.939,1066.01 C502.939,1065.52 503.119,1065.34 503.839,1065.02 C505.144,1064.44 505.684,1063.63 505.684,1062.41 C505.684,1060.84 504.424,1059.62 502.804,1059.62 C500.869,1059.62 499.609,1061.15 499.609,1063.49 C499.609,1067.86 502.939,1070.6 508.339,1070.6 C515.134,1070.6 520.309,1066.06 520.309,1060.03 C520.309,1056.52 518.149,1054.54 514.999,1053.55"/>
<polyline class="Tuplet" fill="none" stroke="#000000" stroke-width="2.48" stroke-linejoin="miter" stroke-miterlimit="2" points="437.643,1072.93 437.643,1054.33 487.213,1054.4"/>
<polyline class="Tuplet" fill="none" stroke="#000000" stroke-width="2.48" stroke-linejoin="miter" stroke-miterlimit="2" points="534.872,1054.46 584.442,1054.53 584.442,1073.13"/>
<path class="Tuplet" d="M971.604,588.549 C973.719,587.874 974.574,587.514 975.654,586.794 C977.769,585.399 979.074,582.924 979.074,580.404 C979.074,576.129 975.654,573.249 970.614,573.249 C965.709,573.249 961.569,576.309 961.569,579.999 C961.569,581.844 962.694,583.104 964.404,583.104 C965.889,583.104 966.969,582.024 966.969,580.539 C966.969,579.774 966.744,579.234 966.024,578.514 C965.574,578.109 965.394,577.794 965.394,577.479 C965.394,576.399 967.644,575.274 969.759,575.274 C972.774,575.274 974.574,576.939 974.574,579.729 C974.574,583.734 971.739,587.514 968.724,587.514 C968.589,587.514 968.184,587.469 967.689,587.424 C966.384,587.334 966.384,587.334 966.114,587.334 C965.124,587.334 964.584,587.784 964.584,588.594 C964.584,589.314 965.079,589.764 965.889,589.764 C966.114,589.764 966.429,589.719 966.789,589.674 C967.419,589.539 968.094,589.494 968.499,589.494 C970.614,589.494 972.054,591.384 972.054,594.174 C972.054,599.034 969.669,603.714 964.224,603.714 C961.704,603.714 959.544,602.454 959.544,601.014 C959.544,600.519 959.724,600.339 960.444,600.024 C961.749,599.439 962.289,598.629 962.289,597.414 C962.289,595.839 961.029,594.624 959.409,594.624 C957.474,594.624 956.214,596.154 956.214,598.494 C956.214,602.859 959.544,605.604 964.944,605.604 C971.739,605.604 976.914,601.059 976.914,595.029 C976.914,591.519 974.754,589.539 971.604,588.549"/>
<polyline class="Tuplet" fill="none" stroke="#000000" stroke-width="2.48" stroke-linejoin="miter" stroke-miterlimit="2" points="898.412,607.93 898.412,589.33 943.818,589.395"/>
<polyline class="Tuplet" fill="none" stroke="#000000" stroke-width="2.48" stroke-linejoin="miter" stroke-miterlimit="2" points="991.478,589.463 1036.88,589.528 1036.88,608.128"/>
<path class="Tuplet" d="M1507.53,793.46 C1509.64,792.785 1510.5,792.425 1511.58,791.705 C1513.69,790.31 1515,787.835 1515,785.315 C1515,781.04 1511.58,778.16 1506.54,778.16 C1501.63,778.16 1497.49,781.22 1497.49,784.91 C1497.49,786.755 1498.62,788.015 1500.33,788.015 C1501.81,788.015 1502.89,786.935 1502.89,785.45 C1502.89,784.685 1502.67,784.145 1501.95,783.425 C1501.5,783.02 1501.32,782.705 1501.32,782.39 C1501.32,781.31 1503.57,780.185 1505.68,780.185 C1508.7,780.185 1510.5,781.85 1510.5,784.64 C1510.5,788.645 1507.66,792.425 1504.65,792.425 C1504.51,792.425 1504.11,792.38 1503.61,792.335 C1502.31,792.245 1502.31,792.245 1502.04,792.245 C1501.05,792.245 1500.51,792.695 1500.51,793.505 C1500.51,794.225 1501,794.675 1501.81,794.675 C1502.04,794.675 1502.35,794.63 1502.71,794.585 C1503.34,794.45 1504.02,794.405 1504.42,794.405 C1506.54,794.405 1507.98,796.295 1507.98,799.085 C1507.98,803.945 1505.59,808.625 1500.15,808.625 C1497.63,808.625 1495.47,807.365 1495.47,805.925 C1495.47,805.43 1495.65,805.25 1496.37,804.935 C1497.67,804.35 1498.21,803.54 1498.21,802.325 C1498.21,800.75 1496.95,799.535 1495.33,799.535 C1493.4,799.535 1492.14,801.065 1492.14,803.405 C1492.14,807.77 1495.47,810.515 1500.87,810.515 C1507.66,810.515 1512.84,805.97 1512.84,799.94 C1512.84,796.43 1510.68,794.45 1507.53,793.46"/>
<polyline class="Tuplet" fill="none" stroke="#000000" stroke-width="2.48" stroke-linejoin="miter" stroke-miterlimit="2" points="1434.33,772.69 1434.33,791.29 1479.74,793.29"/>
<polyline class="Tuplet" fill="none" stroke="#000000" stroke-width="2.48" stroke-linejoin="miter" stroke-miterlimit="2" points="1527.4,795.39 1572.81,797.391 1572.81,778.791"/>
<path class="Tuplet" d="M2109.65,793.46 C2111.76,792.785 2112.62,792.425 2113.7,791.705 C2115.81,790.31 2117.12,787.835 2117.12,785.315 C2117.12,781.04 2113.7,778.16 2108.66,778.16 C2103.75,778.16 2099.61,781.22 2099.61,784.91 C2099.61,786.755 2100.74,788.015 2102.45,788.015 C2103.93,788.015 2105.01,786.935 2105.01,785.45 C2105.01,784.685 2104.79,784.145 2104.07,783.425 C2103.62,783.02 2103.44,782.705 2103.44,782.39 C2103.44,781.31 2105.69,780.185 2107.8,780.185 C2110.82,780.185 2112.62,781.85 2112.62,784.64 C2112.62,788.645 2109.78,792.425 2106.77,792.425 C2106.63,792.425 2106.23,792.38 2105.73,792.335 C2104.43,792.245 2104.43,792.245 2104.16,792.245 C2103.17,792.245 2102.63,792.695 2102.63,793.505 C2102.63,794.225 2103.12,794.675 2103.93,794.675 C2104.16,794.675 2104.47,794.63 2104.83,794.585 C2105.46,794.45 2106.14,794.405 2106.54,794.405 C2108.66,794.405 2110.1,796.295 2110.1,799.085 C2110.1,803.945 2107.71,808.625 2102.27,808.625 C2099.75,808.625 2097.59,807.365 2097.59,805.925 C2097.59,805.43 2097.77,805.25 2098.49,804.935 C2099.79,804.35 2100.33,803.54 2100.33,802.325 C2100.33,800.75 2099.07,799.535 2097.45,799.535 C2095.52,799.535 2094.26,801.065 2094.26,803.405 C2094.26,807.77 2097.59,810.515 2102.99,810.515 C2109.78,810.515 2114.96,805.97 2114.96,799.94 C2114.96,796.43 2112.8,794.45 2109.65,793.46"/>
<polyline class="Tuplet" fill="none" stroke="#000000" stroke-width="2.48" stroke-linejoin="miter" stroke-miterlimit="2" points="2036.46,772.69 2036.46,791.29 2081.86,793.29"/>
<polyline class="Tuplet" fill="none" stroke="#000000" stroke-width="2.48" stroke-linejoin="miter" stroke-miterlimit="2" points="2129.52,795.39 2174.93,797.391 2174.93,778.791"/>
<path class="Tuplet" d="M565.69,600.954 C567.805,600.279 568.66,599.919 569.74,599.199 C571.855,597.804 573.16,595.329 573.16,592.809 C573.16,588.534 569.74,585.654 564.7,585.654 C559.795,585.654 555.655,588.714 555.655,592.404 C555.655,594.249 556.78,595.509 558.49,595.509 C559.975,595.509 561.055,594.429 561.055,592.944 C561.055,592.179 560.83,591.639 560.11,590.919 C559.66,590.514 559.48,590.199 559.48,589.884 C559.48,588.804 561.73,587.679 563.845,587.679 C566.86,587.679 568.66,589.344 568.66,592.134 C568.66,596.139 565.825,599.919 562.81,599.919 C562.675,599.919 562.27,599.874 561.775,599.829 C560.47,599.739 560.47,599.739 560.2,599.739 C559.21,599.739 558.67,600.189 558.67,600.999 C558.67,601.719 559.165,602.169 559.975,602.169 C560.2,602.169 560.515,602.124 560.875,602.079 C561.505,601.944 562.18,601.899 562.585,601.899 C564.7,601.899 566.14,603.789 566.14,606.579 C566.14,611.439 563.755,616.119 558.31,616.119 C555.79,616.119 553.63,614.859 553.63,613.419 C553.63,612.924 553.81,612.744 554.53,612.429 C555.835,611.844 556.375,611.034 556.375,609.819 C556.375,608.244 555.115,607.029 553.495,607.029 C551.56,607.029 550.3,608.559 550.3,610.899 C550.3,615.264 553.63,618.009 559.03,618.009 C565.825,618.009 571,613.464 571,607.434 C571,603.924 568.84,601.944 565.69,600.954"/>
<polyline class="Tuplet" fill="none" stroke="#000000" stroke-width="2.48" stroke-linejoin="miter" stroke-miterlimit="2" points="492.497,620.434 492.497,601.834 537.904,601.834"/>
<polyline class="Tuplet" fill="none" stroke="#000000" stroke-width="2.48" stroke-linejoin="miter" stroke-miterlimit="2" points="585.563,601.834 630.97,601.834 630.97,620.434"/>
<path class="Tuplet" d="M738.584,1067 C740.699,1066.33 741.554,1065.97 742.634,1065.25 C744.749,1063.85 746.054,1061.38 746.054,1058.86 C746.054,1054.58 742.634,1051.7 737.594,1051.7 C732.689,1051.7 728.549,1054.76 728.549,1058.45 C728.549,1060.3 729.674,1061.56 731.384,1061.56 C732.869,1061.56 733.949,1060.48 733.949,1058.99 C733.949,1058.23 733.724,1057.69 733.004,1056.97 C732.554,1056.56 732.374,1056.25 732.374,1055.93 C732.374,1054.85 734.624,1053.73 736.739,1053.73 C739.754,1053.73 741.554,1055.39 741.554,1058.18 C741.554,1062.19 738.719,1065.97 735.704,1065.97 C735.569,1065.97 735.164,1065.92 734.669,1065.88 C733.364,1065.79 733.364,1065.79 733.094,1065.79 C732.104,1065.79 731.564,1066.24 731.564,1067.05 C731.564,1067.77 732.059,1068.22 732.869,1068.22 C733.094,1068.22 733.409,1068.17 733.769,1068.13 C734.399,1067.99 735.074,1067.95 735.479,1067.95 C737.594,1067.95 739.034,1069.84 739.034,1072.63 C739.034,1077.49 736.649,1082.17 731.204,1082.17 C728.684,1082.17 726.524,1080.91 726.524,1079.47 C726.524,1078.97 726.704,1078.79 727.424,1078.48 C728.729,1077.89 729.269,1077.08 729.269,1075.87 C729.269,1074.29 728.009,1073.08 726.389,1073.08 C724.454,1073.08 723.194,1074.61 723.194,1076.95 C723.194,1081.31 726.524,1084.06 731.924,1084.06 C738.719,1084.06 743.894,1079.51 743.894,1073.48 C743.894,1069.97 741.734,1067.99 738.584,1067"/>
<polyline class="Tuplet" fill="none" stroke="#000000" stroke-width="2.48" stroke-linejoin="miter" stroke-miterlimit="2" points="661.228,1080.28 661.228,1061.68 710.798,1065.87"/>
<polyline class="Tuplet" fill="none" stroke="#000000" stroke-width="2.48" stroke-linejoin="miter" stroke-miterlimit="2" points="758.457,1069.89 808.027,1074.08 808.027,1092.68"/>
<path class="Harmony" d="M1294.82,531.718 L1292.51,531.718 L1279.86,563.783 C1278.37,568.073 1276.94,569.393 1273.81,569.613 L1273.59,569.613 L1273.59,572.198 L1288.16,572.198 L1288.16,569.613 L1287.06,569.613 C1284.09,569.613 1282.61,568.568 1282.61,566.478 C1282.61,565.763 1282.77,565.103 1283.1,564.168 L1284.92,559.328 L1299.49,559.328 L1302.46,566.698 C1302.79,567.578 1302.9,567.908 1302.9,568.183 C1302.9,569.063 1301.53,569.613 1299.49,569.613 L1297.18,569.613 L1297.18,572.198 L1314.23,572.198 L1314.23,569.613 L1313.46,569.613 C1310.6,569.558 1310.11,569.228 1308.84,566.093 L1294.82,531.718 M1292.12,540.738 L1298.34,556.358 L1286.02,556.358 L1292.12,540.738 "/>
<path class="Harmony" d="M1327.24,546.568 L1317.45,547.173 L1317.45,549.538 L1319.7,549.538 C1321.79,549.593 1322.07,549.923 1322.07,552.288 L1322.07,568.018 C1322.01,568.843 1321.96,569.173 1321.74,569.448 C1321.35,569.943 1320.31,570.163 1317.94,570.218 L1317.72,570.218 L1317.72,572.198 L1331.58,572.198 L1331.58,570.218 L1331.36,570.218 C1327.73,570.108 1327.24,569.833 1327.24,567.798 L1327.24,557.623 C1327.24,552.728 1329.93,549.098 1333.51,549.098 C1336.64,549.098 1338.24,551.353 1338.24,555.808 L1338.24,568.073 C1338.18,568.788 1338.13,569.173 1337.85,569.448 C1337.52,569.943 1336.42,570.163 1334.06,570.218 L1333.84,570.218 L1333.84,572.198 L1347.75,572.198 L1347.75,570.218 L1347.53,570.218 C1343.9,570.108 1343.41,569.833 1343.41,567.853 L1343.41,558.118 C1343.41,552.618 1345.88,549.098 1349.73,549.098 C1352.87,549.098 1354.41,551.463 1354.41,556.413 L1354.41,568.018 C1354.35,568.788 1354.3,569.173 1354.02,569.448 C1353.69,569.943 1352.59,570.163 1350.23,570.218 L1350.01,570.218 L1350.01,572.198 L1363.92,572.198 L1363.92,570.218 L1363.7,570.218 C1360.07,570.108 1359.58,569.833 1359.58,567.798 L1359.58,555.313 C1359.58,551.903 1359.25,550.748 1357.82,548.878 C1356.22,546.843 1353.97,545.743 1351.33,545.743 C1347.75,545.743 1345.11,547.448 1342.75,551.243 C1341.81,547.943 1338.84,545.743 1335.16,545.743 C1331.8,545.743 1329.38,547.338 1327.24,550.803 L1327.24,546.568 "/>
<path class="Harmony" d="M1471.12,1003.3 L1469.03,1003.3 L1466.88,1006.6 C1463.31,1003.8 1460.89,1002.86 1456.87,1002.86 C1452.53,1002.86 1449.12,1004.07 1445.65,1006.88 C1440.21,1011.28 1437.68,1016.83 1437.68,1024.26 C1437.68,1029.87 1439.27,1034.54 1442.52,1038.12 C1445.93,1041.97 1450.99,1044.22 1456.27,1044.22 C1460.89,1044.22 1464.13,1042.79 1467.71,1039.22 L1469.74,1044.17 L1472.05,1044.17 L1472.05,1032.07 C1472.05,1029.26 1472.05,1029.15 1472.38,1028.66 C1472.88,1028.05 1473.87,1027.89 1477,1027.89 L1477.83,1027.89 L1477.83,1025.3 L1460.34,1025.3 L1460.34,1027.89 L1461.38,1027.89 C1466,1027.89 1466.39,1028.16 1466.39,1031.24 C1466.39,1033.61 1466,1035.75 1465.29,1037.07 C1463.91,1039.77 1460.39,1041.64 1456.82,1041.64 C1453.24,1041.64 1449.72,1039.82 1447.85,1037.07 C1445.82,1033.99 1444.94,1030.14 1444.94,1024.26 C1444.94,1011.99 1449.01,1005.45 1456.65,1005.45 C1462.92,1005.45 1467.27,1009.96 1469.52,1018.76 L1471.89,1018.76 L1471.12,1003.3 "/>
<path class="Harmony" d="M651.719,1002.92 L649.409,1002.92 L636.759,1034.98 C635.274,1039.27 633.844,1040.59 630.709,1040.81 L630.489,1040.81 L630.489,1043.4 L645.064,1043.4 L645.064,1040.81 L643.964,1040.81 C640.994,1040.81 639.509,1039.77 639.509,1037.68 C639.509,1036.96 639.674,1036.3 640.004,1035.37 L641.819,1030.53 L656.394,1030.53 L659.364,1037.9 C659.694,1038.78 659.804,1039.11 659.804,1039.38 C659.804,1040.26 658.429,1040.81 656.394,1040.81 L654.084,1040.81 L654.084,1043.4 L671.134,1043.4 L671.134,1040.81 L670.364,1040.81 C667.504,1040.76 667.009,1040.43 665.744,1037.29 L651.719,1002.92 M649.024,1011.94 L655.239,1027.56 L642.919,1027.56 L649.024,1011.94 "/>
<path class="Harmony" d="M676.33,1017.99 L678.75,1018.37 L679.74,1014.03 C680.565,1010.4 680.95,1009.85 682.545,1009.85 C682.82,1009.85 683.26,1009.85 683.755,1009.9 C690.52,1010.23 690.52,1010.23 693.05,1010.23 C693.765,1010.23 695.03,1010.23 696.57,1010.18 L692.83,1017.71 C688.76,1025.8 688.265,1026.79 686.89,1030.2 C685.185,1034.32 684.305,1037.79 684.305,1040.1 C684.305,1042.63 685.625,1044.17 687.77,1044.17 C690.41,1044.17 691.455,1042.41 691.4,1037.62 C691.125,1029.7 692.115,1025.85 698,1012.98 C698.99,1010.84 700.035,1008.64 701.025,1006.49 L701.025,1004.9 C697.725,1005.17 695.965,1005.28 692.555,1005.28 C687.77,1005.28 683.975,1005.12 678.035,1004.68 L676.33,1017.99 "/>
<path class="Harmony" d="M901.129,532.103 L899.039,532.103 L896.894,535.403 C893.319,532.598 890.899,531.663 886.884,531.663 C882.539,531.663 879.129,532.873 875.664,535.678 C870.219,540.078 867.689,545.633 867.689,553.058 C867.689,558.668 869.284,563.343 872.529,566.918 C875.939,570.768 880.999,573.023 886.279,573.023 C890.899,573.023 894.144,571.593 897.719,568.018 L899.754,572.968 L902.064,572.968 L902.064,560.868 C902.064,558.063 902.064,557.953 902.394,557.458 C902.889,556.853 903.879,556.688 907.014,556.688 L907.839,556.688 L907.839,554.103 L890.349,554.103 L890.349,556.688 L891.394,556.688 C896.014,556.688 896.399,556.963 896.399,560.043 C896.399,562.408 896.014,564.553 895.299,565.873 C893.924,568.568 890.404,570.438 886.829,570.438 C883.254,570.438 879.734,568.623 877.864,565.873 C875.829,562.793 874.949,558.943 874.949,553.058 C874.949,540.793 879.019,534.248 886.664,534.248 C892.934,534.248 897.279,538.758 899.534,547.558 L901.899,547.558 L901.129,532.103 "/>
<path class="Harmony" d="M704.921,532.103 L702.831,532.103 L700.686,535.403 C697.111,532.598 694.691,531.663 690.676,531.663 C686.331,531.663 682.921,532.873 679.456,535.678 C674.011,540.078 671.481,545.633 671.481,553.058 C671.481,558.668 673.076,563.343 676.321,566.918 C679.731,570.768 684.791,573.023 690.071,573.023 C694.691,573.023 697.936,571.593 701.511,568.018 L703.546,572.968 L705.856,572.968 L705.856,560.868 C705.856,558.063 705.856,557.953 706.186,557.458 C706.681,556.853 707.671,556.688 710.806,556.688 L711.631,556.688 L711.631,554.103 L694.141,554.103 L694.141,556.688 L695.186,556.688 C699.806,556.688 700.191,556.963 700.191,560.043 C700.191,562.408 699.806,564.553 699.091,565.873 C697.716,568.568 694.196,570.438 690.621,570.438 C687.046,570.438 683.526,568.623 681.656,565.873 C679.621,562.793 678.741,558.943 678.741,553.058 C678.741,540.793 682.811,534.248 690.456,534.248 C696.726,534.248 701.071,538.758 703.326,547.558 L705.691,547.558 L704.921,532.103 "/>
<path class="Harmony" d="M1679.51,572.198 L1697.99,572.198 C1702.88,572.198 1706.62,571.428 1709.54,569.778 C1715.09,566.643 1718.17,560.373 1718.17,552.123 C1718.17,544.533 1715.42,538.593 1710.36,535.293 C1707.34,533.368 1703.27,532.488 1697,532.488 L1679.51,532.488 L1679.51,535.073 L1680.55,535.073 C1683.63,535.128 1684.68,535.293 1685.12,535.843 C1685.45,536.338 1685.45,536.448 1685.45,539.253 L1685.45,565.433 C1685.45,568.238 1685.45,568.348 1685.12,568.843 C1684.68,569.393 1683.63,569.558 1680.55,569.613 L1679.51,569.613 L1679.51,572.198 M1694.74,569.613 C1691.94,569.613 1691.61,569.283 1691.61,566.588 L1691.61,538.153 C1691.61,535.458 1691.99,535.073 1694.74,535.073 L1697.6,535.073 C1707.01,535.073 1710.91,540.188 1710.91,552.343 C1710.91,564.663 1707.39,569.613 1698.48,569.613 L1694.74,569.613 "/>
<path class="Harmony" d="M1677.88,1003.3 L1675.79,1003.3 L1673.64,1006.6 C1670.07,1003.8 1667.65,1002.86 1663.63,1002.86 C1659.29,1002.86 1655.88,1004.07 1652.41,1006.88 C1646.97,1011.28 1644.44,1016.83 1644.44,1024.26 C1644.44,1029.87 1646.03,1034.54 1649.28,1038.12 C1652.69,1041.97 1657.75,1044.22 1663.03,1044.22 C1667.65,1044.22 1670.89,1042.79 1674.47,1039.22 L1676.5,1044.17 L1678.81,1044.17 L1678.81,1032.07 C1678.81,1029.26 1678.81,1029.15 1679.14,1028.66 C1679.64,1028.05 1680.63,1027.89 1683.76,1027.89 L1684.59,1027.89 L1684.59,1025.3 L1667.1,1025.3 L1667.1,1027.89 L1668.14,1027.89 C1672.76,1027.89 1673.15,1028.16 1673.15,1031.24 C1673.15,1033.61 1672.76,1035.75 1672.05,1037.07 C1670.67,1039.77 1667.15,1041.64 1663.58,1041.64 C1660,1041.64 1656.48,1039.82 1654.61,1037.07 C1652.58,1033.99 1651.7,1030.14 1651.7,1024.26 C1651.7,1011.99 1655.77,1005.45 1663.41,1005.45 C1669.68,1005.45 1674.03,1009.96 1676.28,1018.76 L1678.65,1018.76 L1677.88,1003.3 "/>
<path class="Harmony" d="M428.134,985.378 L425.824,985.378 L413.174,1017.44 C411.689,1021.73 410.259,1023.05 407.124,1023.27 L406.904,1023.27 L406.904,1025.86 L421.479,1025.86 L421.479,1023.27 L420.379,1023.27 C417.409,1023.27 415.924,1022.23 415.924,1020.14 C415.924,1019.42 416.089,1018.76 416.419,1017.83 L418.234,1012.99 L432.809,1012.99 L435.779,1020.36 C436.109,1021.24 436.219,1021.57 436.219,1021.84 C436.219,1022.72 434.844,1023.27 432.809,1023.27 L430.499,1023.27 L430.499,1025.86 L447.549,1025.86 L447.549,1023.27 L446.779,1023.27 C443.919,1023.22 443.424,1022.89 442.159,1019.75 L428.134,985.378 M425.439,994.398 L431.654,1010.02 L419.334,1010.02 L425.439,994.398 "/>
<path class="Harmony" d="M460.555,1000.23 L450.765,1000.83 L450.765,1003.2 L453.02,1003.2 C455.11,1003.25 455.385,1003.58 455.385,1005.95 L455.385,1021.68 C455.33,1022.5 455.275,1022.83 455.055,1023.11 C454.67,1023.6 453.625,1023.82 451.26,1023.88 L451.04,1023.88 L451.04,1025.86 L464.9,1025.86 L464.9,1023.88 L464.68,1023.88 C461.05,1023.77 460.555,1023.49 460.555,1021.46 L460.555,1011.28 C460.555,1006.39 463.25,1002.76 466.825,1002.76 C469.96,1002.76 471.555,1005.01 471.555,1009.47 L471.555,1021.73 C471.5,1022.45 471.445,1022.83 471.17,1023.11 C470.84,1023.6 469.74,1023.82 467.375,1023.88 L467.155,1023.88 L467.155,1025.86 L481.07,1025.86 L481.07,1023.88 L480.85,1023.88 C477.22,1023.77 476.725,1023.49 476.725,1021.51 L476.725,1011.78 C476.725,1006.28 479.2,1002.76 483.05,1002.76 C486.185,1002.76 487.725,1005.12 487.725,1010.07 L487.725,1021.68 C487.67,1022.45 487.615,1022.83 487.34,1023.11 C487.01,1023.6 485.91,1023.82 483.545,1023.88 L483.325,1023.88 L483.325,1025.86 L497.24,1025.86 L497.24,1023.88 L497.02,1023.88 C493.39,1023.77 492.895,1023.49 492.895,1021.46 L492.895,1008.97 C492.895,1005.56 492.565,1004.41 491.135,1002.54 C489.54,1000.5 487.285,999.403 484.645,999.403 C481.07,999.403 478.43,1001.11 476.065,1004.9 C475.13,1001.6 472.16,999.403 468.475,999.403 C465.12,999.403 462.7,1001 460.555,1004.46 L460.555,1000.23 "/>
<path class="Harmony" d="M1110.84,532.103 L1108.75,532.103 L1106.6,535.403 C1103.03,532.598 1100.61,531.663 1096.59,531.663 C1092.25,531.663 1088.84,532.873 1085.37,535.678 C1079.93,540.078 1077.4,545.633 1077.4,553.058 C1077.4,558.668 1078.99,563.343 1082.24,566.918 C1085.65,570.768 1090.71,573.023 1095.99,573.023 C1100.61,573.023 1103.85,571.593 1107.43,568.018 L1109.46,572.968 L1111.77,572.968 L1111.77,560.868 C1111.77,558.063 1111.77,557.953 1112.1,557.458 C1112.6,556.853 1113.59,556.688 1116.72,556.688 L1117.55,556.688 L1117.55,554.103 L1100.06,554.103 L1100.06,556.688 L1101.1,556.688 C1105.72,556.688 1106.11,556.963 1106.11,560.043 C1106.11,562.408 1105.72,564.553 1105.01,565.873 C1103.63,568.568 1100.11,570.438 1096.54,570.438 C1092.96,570.438 1089.44,568.623 1087.57,565.873 C1085.54,562.793 1084.66,558.943 1084.66,553.058 C1084.66,540.793 1088.73,534.248 1096.37,534.248 C1102.64,534.248 1106.99,538.758 1109.24,547.558 L1111.61,547.558 L1110.84,532.103 "/>
<path class="Harmony" d="M1847.94,1003.3 L1845.85,1003.3 L1843.7,1006.6 C1840.13,1003.8 1837.71,1002.86 1833.69,1002.86 C1829.35,1002.86 1825.94,1004.07 1822.47,1006.88 C1817.03,1011.28 1814.5,1016.83 1814.5,1024.26 C1814.5,1029.87 1816.09,1034.54 1819.34,1038.12 C1822.75,1041.97 1827.81,1044.22 1833.09,1044.22 C1837.71,1044.22 1840.95,1042.79 1844.53,1039.22 L1846.56,1044.17 L1848.87,1044.17 L1848.87,1032.07 C1848.87,1029.26 1848.87,1029.15 1849.2,1028.66 C1849.7,1028.05 1850.69,1027.89 1853.82,1027.89 L1854.65,1027.89 L1854.65,1025.3 L1837.16,1025.3 L1837.16,1027.89 L1838.2,1027.89 C1842.82,1027.89 1843.21,1028.16 1843.21,1031.24 C1843.21,1033.61 1842.82,1035.75 1842.11,1037.07 C1840.73,1039.77 1837.21,1041.64 1833.64,1041.64 C1830.06,1041.64 1826.54,1039.82 1824.67,1037.07 C1822.64,1033.99 1821.76,1030.14 1821.76,1024.26 C1821.76,1011.99 1825.83,1005.45 1833.47,1005.45 C1839.74,1005.45 1844.09,1009.96 1846.34,1018.76 L1848.71,1018.76 L1847.94,1003.3 "/>
<path class="Harmony" d="M1839.01,572.198 L1857.49,572.198 C1862.38,572.198 1866.12,571.428 1869.04,569.778 C1874.59,566.643 1877.67,560.373 1877.67,552.123 C1877.67,544.533 1874.92,538.593 1869.86,535.293 C1866.84,533.368 1862.77,532.488 1856.5,532.488 L1839.01,532.488 L1839.01,535.073 L1840.05,535.073 C1843.13,535.128 1844.18,535.293 1844.62,535.843 C1844.95,536.338 1844.95,536.448 1844.95,539.253 L1844.95,565.433 C1844.95,568.238 1844.95,568.348 1844.62,568.843 C1844.18,569.393 1843.13,569.558 1840.05,569.613 L1839.01,569.613 L1839.01,572.198 M1854.24,569.613 C1851.44,569.613 1851.11,569.283 1851.11,566.588 L1851.11,538.153 C1851.11,535.458 1851.49,535.073 1854.24,535.073 L1857.1,535.073 C1866.51,535.073 1870.41,540.188 1870.41,552.343 C1870.41,564.663 1866.89,569.613 1857.98,569.613 L1854.24,569.613 "/>
<path class="Harmony" d="M495.214,532.103 L493.124,532.103 L490.979,535.403 C487.404,532.598 484.984,531.663 480.969,531.663 C476.624,531.663 473.214,532.873 469.749,535.678 C464.304,540.078 461.774,545.633 461.774,553.058 C461.774,558.668 463.369,563.343 466.614,566.918 C470.024,570.768 475.084,573.023 480.364,573.023 C484.984,573.023 488.229,571.593 491.804,568.018 L493.839,572.968 L496.149,572.968 L496.149,560.868 C496.149,558.063 496.149,557.953 496.479,557.458 C496.974,556.853 497.964,556.688 501.099,556.688 L501.924,556.688 L501.924,554.103 L484.434,554.103 L484.434,556.688 L485.479,556.688 C490.099,556.688 490.484,556.963 490.484,560.043 C490.484,562.408 490.099,564.553 489.384,565.873 C488.009,568.568 484.489,570.438 480.914,570.438 C477.339,570.438 473.819,568.623 471.949,565.873 C469.914,562.793 469.034,558.943 469.034,553.058 C469.034,540.793 473.104,534.248 480.749,534.248 C487.019,534.248 491.364,538.758 493.619,547.558 L495.984,547.558 L495.214,532.103 "/>
<path class="Harmony" d="M1301.06,1003.3 L1298.97,1003.3 L1296.82,1006.6 C1293.25,1003.8 1290.83,1002.86 1286.81,1002.86 C1282.47,1002.86 1279.06,1004.07 1275.59,1006.88 C1270.15,1011.28 1267.62,1016.83 1267.62,1024.26 C1267.62,1029.87 1269.21,1034.54 1272.46,1038.12 C1275.87,1041.97 1280.93,1044.22 1286.21,1044.22 C1290.83,1044.22 1294.07,1042.79 1297.65,1039.22 L1299.68,1044.17 L1301.99,1044.17 L1301.99,1032.07 C1301.99,1029.26 1301.99,1029.15 1302.32,1028.66 C1302.82,1028.05 1303.81,1027.89 1306.94,1027.89 L1307.77,1027.89 L1307.77,1025.3 L1290.28,1025.3 L1290.28,1027.89 L1291.32,1027.89 C1295.94,1027.89 1296.33,1028.16 1296.33,1031.24 C1296.33,1033.61 1295.94,1035.75 1295.23,1037.07 C1293.85,1039.77 1290.33,1041.64 1286.76,1041.64 C1283.18,1041.64 1279.66,1039.82 1277.79,1037.07 C1275.76,1033.99 1274.88,1030.14 1274.88,1024.26 C1274.88,1011.99 1278.95,1005.45 1286.59,1005.45 C1292.86,1005.45 1297.21,1009.96 1299.46,1018.76 L1301.83,1018.76 L1301.06,1003.3 "/>
<path class="Harmony" d="M2633.31,532.103 L2631.22,532.103 L2629.02,535.348 C2625.01,532.433 2622.97,531.663 2619.18,531.663 C2613.95,531.663 2609.5,533.863 2605.81,538.263 C2602.29,542.443 2600.64,547.063 2600.64,552.728 C2600.64,564.608 2608.4,573.023 2619.23,573.023 C2628.03,573.023 2633.64,567.853 2634.91,558.613 L2632.32,558.173 C2630.84,566.368 2626.66,570.438 2619.89,570.438 C2611.75,570.438 2607.9,564.828 2607.9,552.948 C2607.9,546.678 2608.73,542.553 2610.6,539.253 C2612.3,536.173 2615.66,534.248 2619.23,534.248 C2623.08,534.248 2626.49,536.283 2628.58,539.803 C2629.63,541.618 2630.4,543.653 2631.72,547.998 L2634.14,547.998 L2633.31,532.103 "/>
<path class="Harmony" d="M2021.25,1043.4 L2039.73,1043.4 C2044.62,1043.4 2048.36,1042.63 2051.28,1040.98 C2056.83,1037.84 2059.91,1031.57 2059.91,1023.32 C2059.91,1015.73 2057.16,1009.79 2052.1,1006.49 C2049.08,1004.57 2045.01,1003.69 2038.74,1003.69 L2021.25,1003.69 L2021.25,1006.27 L2022.29,1006.27 C2025.37,1006.33 2026.42,1006.49 2026.86,1007.04 C2027.19,1007.54 2027.19,1007.65 2027.19,1010.45 L2027.19,1036.63 C2027.19,1039.44 2027.19,1039.55 2026.86,1040.04 C2026.42,1040.59 2025.37,1040.76 2022.29,1040.81 L2021.25,1040.81 L2021.25,1043.4 M2036.48,1040.81 C2033.68,1040.81 2033.35,1040.48 2033.35,1037.79 L2033.35,1009.35 C2033.35,1006.66 2033.73,1006.27 2036.48,1006.27 L2039.34,1006.27 C2048.75,1006.27 2052.65,1011.39 2052.65,1023.54 C2052.65,1035.86 2049.13,1040.81 2040.22,1040.81 L2036.48,1040.81 "/>
<path class="Harmony" d="M2068.67,532.103 L2066.58,532.103 L2064.43,535.403 C2060.86,532.598 2058.44,531.663 2054.42,531.663 C2050.08,531.663 2046.67,532.873 2043.2,535.678 C2037.76,540.078 2035.23,545.633 2035.23,553.058 C2035.23,558.668 2036.82,563.343 2040.07,566.918 C2043.48,570.768 2048.54,573.023 2053.82,573.023 C2058.44,573.023 2061.68,571.593 2065.26,568.018 L2067.29,572.968 L2069.6,572.968 L2069.6,560.868 C2069.6,558.063 2069.6,557.953 2069.93,557.458 C2070.43,556.853 2071.42,556.688 2074.55,556.688 L2075.38,556.688 L2075.38,554.103 L2057.89,554.103 L2057.89,556.688 L2058.93,556.688 C2063.55,556.688 2063.94,556.963 2063.94,560.043 C2063.94,562.408 2063.55,564.553 2062.84,565.873 C2061.46,568.568 2057.94,570.438 2054.37,570.438 C2050.79,570.438 2047.27,568.623 2045.4,565.873 C2043.37,562.793 2042.49,558.943 2042.49,553.058 C2042.49,540.793 2046.56,534.248 2054.2,534.248 C2060.47,534.248 2064.82,538.758 2067.07,547.558 L2069.44,547.558 L2068.67,532.103 "/>
<path class="Harmony" d="M2473.81,532.103 L2471.72,532.103 L2469.52,535.348 C2465.5,532.433 2463.47,531.663 2459.67,531.663 C2454.45,531.663 2449.99,533.863 2446.31,538.263 C2442.79,542.443 2441.14,547.063 2441.14,552.728 C2441.14,564.608 2448.89,573.023 2459.73,573.023 C2468.53,573.023 2474.14,567.853 2475.4,558.613 L2472.82,558.173 C2471.33,566.368 2467.15,570.438 2460.39,570.438 C2452.25,570.438 2448.4,564.828 2448.4,552.948 C2448.4,546.678 2449.22,542.553 2451.09,539.253 C2452.8,536.173 2456.15,534.248 2459.73,534.248 C2463.58,534.248 2466.99,536.283 2469.08,539.803 C2470.12,541.618 2470.89,543.653 2472.21,547.998 L2474.63,547.998 L2473.81,532.103 "/>
<path class="Harmony" d="M2191.31,1043.4 L2209.79,1043.4 C2214.68,1043.4 2218.42,1042.63 2221.34,1040.98 C2226.89,1037.84 2229.97,1031.57 2229.97,1023.32 C2229.97,1015.73 2227.22,1009.79 2222.16,1006.49 C2219.14,1004.57 2215.07,1003.69 2208.8,1003.69 L2191.31,1003.69 L2191.31,1006.27 L2192.35,1006.27 C2195.43,1006.33 2196.48,1006.49 2196.92,1007.04 C2197.25,1007.54 2197.25,1007.65 2197.25,1010.45 L2197.25,1036.63 C2197.25,1039.44 2197.25,1039.55 2196.92,1040.04 C2196.48,1040.59 2195.43,1040.76 2192.35,1040.81 L2191.31,1040.81 L2191.31,1043.4 M2206.54,1040.81 C2203.74,1040.81 2203.41,1040.48 2203.41,1037.79 L2203.41,1009.35 C2203.41,1006.66 2203.79,1006.27 2206.54,1006.27 L2209.4,1006.27 C2218.81,1006.27 2222.71,1011.39 2222.71,1023.54 C2222.71,1035.86 2219.19,1040.81 2210.28,1040.81 L2206.54,1040.81 "/>
<path class="Harmony" d="M2278.38,532.103 L2276.29,532.103 L2274.14,535.403 C2270.57,532.598 2268.15,531.663 2264.13,531.663 C2259.79,531.663 2256.38,532.873 2252.91,535.678 C2247.47,540.078 2244.94,545.633 2244.94,553.058 C2244.94,558.668 2246.53,563.343 2249.78,566.918 C2253.19,570.768 2258.25,573.023 2263.53,573.023 C2268.15,573.023 2271.39,571.593 2274.97,568.018 L2277,572.968 L2279.31,572.968 L2279.31,560.868 C2279.31,558.063 2279.31,557.953 2279.64,557.458 C2280.14,556.853 2281.13,556.688 2284.26,556.688 L2285.09,556.688 L2285.09,554.103 L2267.6,554.103 L2267.6,556.688 L2268.64,556.688 C2273.26,556.688 2273.65,556.963 2273.65,560.043 C2273.65,562.408 2273.26,564.553 2272.55,565.873 C2271.17,568.568 2267.65,570.438 2264.08,570.438 C2260.5,570.438 2256.98,568.623 2255.11,565.873 C2253.08,562.793 2252.2,558.943 2252.2,553.058 C2252.2,540.793 2256.27,534.248 2263.91,534.248 C2270.18,534.248 2274.53,538.758 2276.78,547.558 L2279.15,547.558 L2278.38,532.103 "/>
<path class="Harmony" d="M2601.58,1003.3 L2599.49,1003.3 L2597.35,1006.6 C2593.77,1003.8 2591.35,1002.86 2587.34,1002.86 C2582.99,1002.86 2579.58,1004.07 2576.12,1006.88 C2570.67,1011.28 2568.14,1016.83 2568.14,1024.26 C2568.14,1029.87 2569.74,1034.54 2572.98,1038.12 C2576.39,1041.97 2581.45,1044.22 2586.73,1044.22 C2591.35,1044.22 2594.6,1042.79 2598.17,1039.22 L2600.21,1044.17 L2602.52,1044.17 L2602.52,1032.07 C2602.52,1029.26 2602.52,1029.15 2602.85,1028.66 C2603.34,1028.05 2604.33,1027.89 2607.47,1027.89 L2608.29,1027.89 L2608.29,1025.3 L2590.8,1025.3 L2590.8,1027.89 L2591.85,1027.89 C2596.47,1027.89 2596.85,1028.16 2596.85,1031.24 C2596.85,1033.61 2596.47,1035.75 2595.75,1037.07 C2594.38,1039.77 2590.86,1041.64 2587.28,1041.64 C2583.71,1041.64 2580.19,1039.82 2578.32,1037.07 C2576.28,1033.99 2575.4,1030.14 2575.4,1024.26 C2575.4,1011.99 2579.47,1005.45 2587.12,1005.45 C2593.39,1005.45 2597.73,1009.96 2599.99,1018.76 L2602.35,1018.76 L2601.58,1003.3 "/>
<path class="Harmony" d="M1454.32,531.718 L1452.01,531.718 L1439.36,563.783 C1437.88,568.073 1436.45,569.393 1433.31,569.613 L1433.09,569.613 L1433.09,572.198 L1447.67,572.198 L1447.67,569.613 L1446.57,569.613 C1443.6,569.613 1442.11,568.568 1442.11,566.478 C1442.11,565.763 1442.28,565.103 1442.61,564.168 L1444.42,559.328 L1459,559.328 L1461.97,566.698 C1462.3,567.578 1462.41,567.908 1462.41,568.183 C1462.41,569.063 1461.03,569.613 1459,569.613 L1456.69,569.613 L1456.69,572.198 L1473.74,572.198 L1473.74,569.613 L1472.97,569.613 C1470.11,569.558 1469.61,569.228 1468.35,566.093 L1454.32,531.718 M1451.63,540.738 L1457.84,556.358 L1445.52,556.358 L1451.63,540.738 "/>
<path class="Harmony" d="M1486.74,546.568 L1476.95,547.173 L1476.95,549.538 L1479.21,549.538 C1481.3,549.593 1481.57,549.923 1481.57,552.288 L1481.57,568.018 C1481.52,568.843 1481.46,569.173 1481.24,569.448 C1480.86,569.943 1479.81,570.163 1477.45,570.218 L1477.23,570.218 L1477.23,572.198 L1491.09,572.198 L1491.09,570.218 L1490.87,570.218 C1487.24,570.108 1486.74,569.833 1486.74,567.798 L1486.74,557.623 C1486.74,552.728 1489.44,549.098 1493.01,549.098 C1496.15,549.098 1497.74,551.353 1497.74,555.808 L1497.74,568.073 C1497.69,568.788 1497.63,569.173 1497.36,569.448 C1497.03,569.943 1495.93,570.163 1493.56,570.218 L1493.34,570.218 L1493.34,572.198 L1507.26,572.198 L1507.26,570.218 L1507.04,570.218 C1503.41,570.108 1502.91,569.833 1502.91,567.853 L1502.91,558.118 C1502.91,552.618 1505.39,549.098 1509.24,549.098 C1512.37,549.098 1513.91,551.463 1513.91,556.413 L1513.91,568.018 C1513.86,568.788 1513.8,569.173 1513.53,569.448 C1513.2,569.943 1512.1,570.163 1509.73,570.218 L1509.51,570.218 L1509.51,572.198 L1523.43,572.198 L1523.43,570.218 L1523.21,570.218 C1519.58,570.108 1519.08,569.833 1519.08,567.798 L1519.08,555.313 C1519.08,551.903 1518.75,550.748 1517.32,548.878 C1515.73,546.843 1513.47,545.743 1510.83,545.743 C1507.26,545.743 1504.62,547.448 1502.25,551.243 C1501.32,547.943 1498.35,545.743 1494.66,545.743 C1491.31,545.743 1488.89,547.338 1486.74,550.803 L1486.74,546.568 "/>
<path class="Harmony" d="M1060.84,1043.4 L1079.32,1043.4 C1084.22,1043.4 1087.96,1042.63 1090.87,1040.98 C1096.43,1037.84 1099.51,1031.57 1099.51,1023.32 C1099.51,1015.73 1096.76,1009.79 1091.7,1006.49 C1088.67,1004.57 1084.6,1003.69 1078.33,1003.69 L1060.84,1003.69 L1060.84,1006.27 L1061.89,1006.27 C1064.97,1006.33 1066.01,1006.49 1066.45,1007.04 C1066.78,1007.54 1066.78,1007.65 1066.78,1010.45 L1066.78,1036.63 C1066.78,1039.44 1066.78,1039.55 1066.45,1040.04 C1066.01,1040.59 1064.97,1040.76 1061.89,1040.81 L1060.84,1040.81 L1060.84,1043.4 M1076.08,1040.81 C1073.27,1040.81 1072.94,1040.48 1072.94,1037.79 L1072.94,1009.35 C1072.94,1006.66 1073.33,1006.27 1076.08,1006.27 L1078.94,1006.27 C1088.34,1006.27 1092.25,1011.39 1092.25,1023.54 C1092.25,1035.86 1088.73,1040.81 1079.82,1040.81 L1076.08,1040.81 "/>
<path class="Harmony" d="M2431.52,1003.3 L2429.43,1003.3 L2427.29,1006.6 C2423.71,1003.8 2421.29,1002.86 2417.28,1002.86 C2412.93,1002.86 2409.52,1004.07 2406.06,1006.88 C2400.61,1011.28 2398.08,1016.83 2398.08,1024.26 C2398.08,1029.87 2399.68,1034.54 2402.92,1038.12 C2406.33,1041.97 2411.39,1044.22 2416.67,1044.22 C2421.29,1044.22 2424.54,1042.79 2428.11,1039.22 L2430.15,1044.17 L2432.46,1044.17 L2432.46,1032.07 C2432.46,1029.26 2432.46,1029.15 2432.79,1028.66 C2433.28,1028.05 2434.27,1027.89 2437.41,1027.89 L2438.23,1027.89 L2438.23,1025.3 L2420.74,1025.3 L2420.74,1027.89 L2421.79,1027.89 C2426.41,1027.89 2426.79,1028.16 2426.79,1031.24 C2426.79,1033.61 2426.41,1035.75 2425.69,1037.07 C2424.32,1039.77 2420.8,1041.64 2417.22,1041.64 C2413.65,1041.64 2410.13,1039.82 2408.26,1037.07 C2406.22,1033.99 2405.34,1030.14 2405.34,1024.26 C2405.34,1011.99 2409.41,1005.45 2417.06,1005.45 C2423.33,1005.45 2427.67,1009.96 2429.93,1018.76 L2432.29,1018.76 L2431.52,1003.3 "/>
<path class="Harmony" d="M890.781,1043.4 L909.261,1043.4 C914.156,1043.4 917.896,1042.63 920.811,1040.98 C926.366,1037.84 929.446,1031.57 929.446,1023.32 C929.446,1015.73 926.696,1009.79 921.636,1006.49 C918.611,1004.57 914.541,1003.69 908.271,1003.69 L890.781,1003.69 L890.781,1006.27 L891.826,1006.27 C894.906,1006.33 895.951,1006.49 896.391,1007.04 C896.721,1007.54 896.721,1007.65 896.721,1010.45 L896.721,1036.63 C896.721,1039.44 896.721,1039.55 896.391,1040.04 C895.951,1040.59 894.906,1040.76 891.826,1040.81 L890.781,1040.81 L890.781,1043.4 M906.016,1040.81 C903.211,1040.81 902.881,1040.48 902.881,1037.79 L902.881,1009.35 C902.881,1006.66 903.266,1006.27 906.016,1006.27 L908.876,1006.27 C918.281,1006.27 922.186,1011.39 922.186,1023.54 C922.186,1035.86 918.666,1040.81 909.756,1040.81 L906.016,1040.81 "/>
</svg>
