<?xml version="1.0" encoding="UTF-8" standalone="no"?>
<svg width="2977.2px" height="4208.4px" viewBox="0 0 2977.2 4208.4"
 xmlns="http://www.w3.org/2000/svg" xmlns:xlink="http://www.w3.org/1999/xlink" version="1.2" baseProfile="tiny">
<title>茶色の小瓶</title>
<desc>Generated by MuseScore Studio 4.4.3</desc>
<path class="" fill="#ffffff" fill-rule="evenodd" d="M0,0 L2977.2,0 L2977.2,4208.4 L0,4208.4 L0,0 "/>
<polyline class="StaffLines" fill="none" stroke="#000000" stroke-width="2.73" stroke-linejoin="bevel" points="212.598,634.198 2764.6,634.198"/>
<polyline class="StaffLines" fill="none" stroke="#000000" stroke-width="2.73" stroke-linejoin="bevel" points="212.598,658.998 2764.6,658.998"/>
<polyline class="StaffLines" fill="none" stroke="#000000" stroke-width="2.73" stroke-linejoin="bevel" points="212.598,683.798 2764.6,683.798"/>
<polyline class="StaffLines" fill="none" stroke="#000000" stroke-width="2.73" stroke-linejoin="bevel" points="212.598,708.598 2764.6,708.598"/>
<polyline class="StaffLines" fill="none" stroke="#000000" stroke-width="2.73" stroke-linejoin="bevel" points="212.598,733.398 2764.6,733.398"/>
<polyline class="StaffLines" fill="none" stroke="#000000" stroke-width="2.73" stroke-linejoin="bevel" points="212.598,1105.4 2764.6,1105.4"/>
<polyline class="StaffLines" fill="none" stroke="#000000" stroke-width="2.73" stroke-linejoin="bevel" points="212.598,1130.2 2764.6,1130.2"/>
<polyline class="StaffLines" fill="none" stroke="#000000" stroke-width="2.73" stroke-linejoin="bevel" points="212.598,1155 2764.6,1155"/>
<polyline class="StaffLines" fill="none" stroke="#000000" stroke-width="2.73" stroke-linejoin="bevel" points="212.598,1179.8 2764.6,1179.8"/>
<polyline class="StaffLines" fill="none" stroke="#000000" stroke-width="2.73" stroke-linejoin="bevel" points="212.598,1204.6 2764.6,1204.6"/>
<path class="Text" d="M1269.55,276.845 L1291.99,276.845 C1297.05,276.845 1300.9,277.065 1304.42,277.505 L1304.42,270.135 C1301.34,270.685 1298.7,270.795 1292.54,270.795 L1269.55,270.795 L1269.55,264.195 C1269.55,260.235 1269.66,257.815 1270.21,254.625 L1262.18,254.625 C1262.62,257.815 1262.84,260.345 1262.84,264.085 L1262.84,270.795 L1242.16,270.795 C1236.11,270.795 1233.36,270.685 1230.39,270.135 L1230.39,277.505 C1233.91,277.065 1237.65,276.845 1242.49,276.845 L1262.84,276.845 L1262.84,302.475 C1262.84,306.325 1262.62,309.955 1262.07,313.695 L1270.32,313.695 C1269.77,309.845 1269.55,306.545 1269.55,302.475 L1269.55,276.845 M1246.23,224.045 L1230.83,224.045 C1225.22,224.045 1221.81,223.825 1218.62,223.385 L1218.62,230.755 C1222.14,230.315 1225.22,230.205 1230.83,230.205 L1246.23,230.205 L1246.23,234.275 C1246.23,236.585 1246.01,238.895 1245.68,241.425 L1253.49,241.425 C1253.16,239.005 1253.05,237.355 1253.05,234.275 L1253.05,230.205 L1280.55,230.205 L1280.55,234.605 C1280.55,237.355 1280.44,239.445 1280.11,241.755 L1287.92,241.755 C1287.48,238.895 1287.37,237.025 1287.37,234.495 L1287.37,230.205 L1303.21,230.205 C1308.93,230.205 1312.01,230.315 1315.53,230.755 L1315.53,223.385 C1312.45,223.825 1308.93,224.045 1303.21,224.045 L1287.37,224.045 L1287.37,222.285 C1287.37,219.425 1287.59,216.785 1288.03,214.365 L1279.89,214.365 C1280.33,216.785 1280.55,219.535 1280.55,222.285 L1280.55,224.045 L1253.05,224.045 L1253.05,221.955 C1253.05,219.095 1253.27,216.895 1253.6,214.145 L1245.57,214.145 C1246.01,216.785 1246.23,219.205 1246.23,221.955 L1246.23,224.045 M1244.25,282.455 C1241.39,288.065 1239.3,290.815 1235.01,294.885 C1231.05,298.625 1227.42,301.155 1221.26,304.565 C1223.68,306.105 1225,307.425 1226.76,310.065 C1238.09,302.475 1243.48,297.085 1250.85,285.975 L1244.25,282.455 M1282.53,286.085 C1290.67,296.865 1296.83,302.695 1307.94,309.955 C1309.7,307.315 1310.8,306.105 1313,304.235 C1300.68,296.975 1295.07,291.915 1288.91,282.345 L1282.53,286.085 M1262.73,236.255 C1258.11,242.305 1251.73,247.915 1243.92,252.755 C1235.67,258.035 1227.42,261.555 1216.64,264.525 C1218.62,266.615 1219.5,268.155 1220.71,271.015 C1232.26,266.945 1239.19,263.645 1247.11,258.475 C1254.92,253.305 1260.53,248.465 1266.36,241.535 C1279.01,255.175 1292.43,263.645 1313.33,271.015 C1314.76,267.715 1315.31,266.835 1317.51,264.195 C1296.94,258.695 1279.89,248.685 1269.88,236.255 L1262.73,236.255 M1384.17,242.965 C1387.69,239.225 1389.89,236.585 1393.85,231.415 C1397.04,227.235 1397.81,226.355 1398.47,225.585 L1393.85,221.625 C1392.2,222.065 1389.78,222.175 1384.17,222.175 L1364.04,222.175 C1366.24,218.985 1366.35,218.765 1367.34,217.225 C1368.11,215.905 1368.33,215.685 1368.99,214.805 L1361.18,212.605 C1360.08,216.015 1358.98,217.995 1356.01,222.505 C1348.31,233.725 1339.07,242.305 1326.86,249.895 C1328.95,251.545 1330.27,253.085 1331.48,255.175 C1336.65,251.545 1338.63,250.115 1341.6,247.585 L1341.6,299.065 C1341.6,305.115 1343.47,307.205 1350.18,308.305 C1355.24,309.075 1365.91,309.515 1382.74,309.515 C1400.89,309.515 1410.13,308.965 1414.97,307.425 C1420.58,305.775 1422.23,301.925 1423.44,287.405 C1419.81,286.415 1418.6,285.975 1416.07,284.545 C1415.85,290.045 1415.52,294.005 1414.86,296.645 C1413.87,300.605 1412.55,301.485 1406.83,302.145 C1403.09,302.585 1391.1,302.915 1381.31,302.915 C1367.89,302.915 1358.54,302.695 1354.14,302.145 C1349.85,301.705 1348.64,300.605 1348.64,297.085 L1348.64,274.755 L1408.15,274.755 C1411.12,274.755 1413.87,274.865 1417.06,275.305 C1416.73,272.555 1416.62,270.685 1416.62,267.605 L1416.62,250.115 C1416.62,246.925 1416.73,244.945 1417.06,242.415 C1413.65,242.855 1411.23,242.965 1408.15,242.965 L1384.17,242.965 M1346.66,242.965 C1352.82,237.135 1355.68,233.835 1359.97,228.115 L1388.35,228.115 C1384.72,233.505 1380.76,238.235 1375.92,242.965 L1346.66,242.965 M1381.31,249.125 L1409.69,249.125 L1409.69,268.485 L1381.31,268.485 L1381.31,249.125 M1374.49,268.485 L1348.64,268.485 L1348.64,249.125 L1374.49,249.125 L1374.49,268.485 "/>
<path class="Text" d="M1493.07,232.075 C1498.57,232.295 1501.76,233.065 1505.83,234.825 C1516.94,239.775 1523.32,249.895 1523.32,262.435 C1523.32,275.965 1515.95,287.735 1503.85,293.235 C1498.68,295.655 1493.51,297.085 1485.48,298.405 C1487.57,301.045 1488.23,302.145 1489.33,305.775 C1496.92,304.125 1501.1,302.805 1506.05,300.715 C1522,293.895 1531.24,279.815 1531.24,262.765 C1531.24,252.205 1527.5,242.635 1520.57,235.925 C1513.42,228.885 1502.64,225.035 1490.32,225.035 C1475.58,225.035 1463.59,229.985 1454.79,239.665 C1447.42,247.915 1443.24,258.805 1443.24,270.025 C1443.24,285.425 1451.05,296.865 1461.5,296.865 C1469.42,296.865 1475.91,290.265 1482.29,275.745 C1487.24,264.195 1491.42,247.365 1493.07,232.075 M1485.15,232.185 C1483.72,246.265 1479.65,262.545 1475.14,272.885 C1470.41,283.665 1466.01,288.835 1461.39,288.835 C1455.45,288.835 1450.83,280.695 1450.83,270.135 C1450.83,256.495 1457.65,244.065 1468.76,237.355 C1473.82,234.275 1478.55,232.735 1485.15,232.185"/>
<path class="Text" d="M1592.73,215.025 C1593.17,218.215 1593.39,221.405 1593.39,226.135 L1593.39,301.155 C1593.39,303.355 1592.4,303.905 1588.44,303.905 C1584.04,303.905 1579.2,303.355 1572.16,302.035 C1573.37,305.225 1573.81,306.765 1574.14,310.175 C1580.41,310.725 1584.81,310.945 1589.32,310.945 C1598.45,310.945 1600.98,308.965 1600.98,301.925 L1600.98,226.245 C1600.98,221.295 1601.2,217.995 1601.64,215.025 L1592.73,215.025 M1618.47,241.205 C1618.8,242.085 1618.8,242.085 1619.24,243.405 C1622.76,254.515 1624.41,260.125 1624.52,260.235 C1629.69,274.645 1633.87,282.675 1643.22,295.215 C1645.09,293.015 1646.63,291.695 1649.49,289.715 C1642.01,280.475 1637.39,272.555 1633.1,261.775 C1628.92,251.435 1627.16,245.385 1626.28,239.005 L1618.47,241.205 M1566.11,239.665 C1565.78,244.065 1564.68,249.565 1562.81,256.165 C1558.74,270.355 1554.23,279.375 1545.76,290.375 C1548.51,291.695 1550.27,292.905 1552.47,294.885 C1561.71,281.795 1566.77,270.465 1571.06,253.745 C1573.37,244.725 1573.7,243.405 1574.25,241.645 L1566.11,239.665 M1720.99,260.785 C1724.84,269.035 1726.71,274.865 1729.02,285.535 L1734.74,282.345 C1732.65,273.435 1730.45,267.165 1726.27,258.035 L1720.99,260.785 M1699.87,310.615 C1702.4,309.955 1703.72,309.625 1705.7,309.185 C1723.63,305.225 1729.13,303.905 1737.82,301.265 L1737.71,304.345 C1737.71,304.675 1737.71,305.115 1737.71,305.225 C1737.71,309.955 1739.47,311.055 1747.06,311.055 C1752.01,311.055 1754.54,310.395 1755.97,308.855 C1758.06,306.435 1759.05,301.045 1759.71,288.065 C1757.4,287.185 1755.64,286.305 1753.66,284.655 C1753.66,291.365 1753.44,295.655 1752.89,299.065 C1752.23,304.235 1751.68,304.785 1747.83,304.785 C1744.64,304.785 1743.98,304.455 1743.98,303.025 C1743.98,303.025 1743.98,302.805 1743.98,302.475 L1745.85,251.545 C1745.96,246.705 1746.18,243.845 1746.51,241.425 C1744.2,241.755 1741.12,241.865 1736.39,241.865 L1720.66,241.865 C1721.54,231.965 1721.54,231.965 1722.09,224.705 L1746.07,224.705 C1750.25,224.705 1752.78,224.815 1756.08,225.255 L1756.08,217.995 C1752.45,218.435 1749.81,218.655 1745.74,218.655 L1713.95,218.655 C1709.44,218.655 1706.47,218.545 1703.39,218.105 L1703.39,225.145 C1706.25,224.815 1708.89,224.705 1712.96,224.705 L1715.16,224.705 C1713.18,255.725 1710.87,274.865 1705.48,302.255 C1702.95,302.585 1701.08,302.695 1699.54,302.695 C1699.21,302.695 1698.77,302.695 1698.11,302.695 L1699.87,310.615 M1739.47,247.805 L1738.04,295.105 C1727.48,297.965 1725.61,298.405 1712.52,301.045 C1716.15,282.345 1716.92,276.405 1720.11,247.805 L1739.47,247.805 M1667.64,234.825 C1663.9,234.825 1661.81,234.715 1659.06,234.275 L1659.06,241.315 C1661.81,240.985 1664.12,240.875 1667.31,240.875 L1670.28,240.875 C1670.28,250.335 1670.17,257.595 1670.06,262.545 L1665.33,262.545 C1661.26,262.545 1658.95,262.435 1656.2,261.995 L1656.2,269.255 C1658.84,268.815 1661.15,268.705 1665.11,268.705 L1669.84,268.705 C1669.18,278.385 1668.19,285.315 1666.65,291.035 C1664.45,298.735 1661.92,303.575 1656.97,308.965 C1659.5,310.835 1660.49,311.715 1662.25,314.245 C1667.53,307.865 1670.06,303.135 1672.37,295.435 C1674.46,288.505 1675.67,280.255 1676.33,268.705 L1688.21,268.705 L1688.21,301.595 C1688.21,306.655 1687.99,309.955 1687.55,312.595 L1695.36,312.595 C1694.92,309.405 1694.7,306.215 1694.7,301.595 L1694.7,268.705 L1695.8,268.705 C1699.76,268.705 1701.74,268.815 1704.71,269.255 L1704.71,261.995 C1701.85,262.435 1699.76,262.545 1695.58,262.545 L1694.7,262.545 L1694.7,240.875 L1695.8,240.875 C1698.99,240.875 1701.52,240.985 1704.27,241.315 L1704.27,234.275 C1701.63,234.715 1698.99,234.825 1695.47,234.825 L1691.73,234.825 C1695.14,228.115 1697.12,223.385 1699.87,216.015 L1693.27,213.485 C1691.29,221.295 1689.2,226.795 1685.02,234.825 L1667.64,234.825 M1676.55,262.545 C1676.77,256.385 1676.77,256.385 1676.77,240.875 L1688.21,240.875 L1688.21,262.545 L1676.55,262.545 M1678.53,230.095 C1676.11,223.495 1674.02,218.985 1670.83,213.705 L1664.89,216.125 C1668.85,222.945 1670.06,225.695 1672.15,232.735 L1678.53,230.095 "/>
<path class="MeasureNumber" d="M232.288,1027.64 C230.168,1027.88 227.568,1028.04 225.328,1028.04 C224.208,1028.04 222.928,1028 221.488,1027.92 C220.168,1027.84 218.848,1027.76 217.488,1027.68 L216.488,1027.64 L212.608,1036.08 L214.088,1036.56 L215.048,1034.96 C216.928,1031.84 217.808,1031.4 221.888,1031.44 L228.648,1031.44 L224.288,1037.68 C219.168,1044.88 219.168,1044.88 217.208,1048.08 C215.448,1050.92 214.728,1052.68 214.728,1054.12 C214.728,1055.52 215.608,1056.4 217.008,1056.4 C218.488,1056.4 219.248,1055.68 219.768,1053.8 C221.768,1046.28 222.968,1043.68 228.528,1034.68 L232.288,1028.84 L232.288,1027.64 "/>
<path class="TieSegment" stroke="#000000" stroke-width="1.74" stroke-linecap="round" stroke-linejoin="round" fill-rule="evenodd" d="M1374.5,739.195 C1386.87,753.007 1424,753.007 1436.37,739.195 C1424,758.458 1386.87,758.458 1374.5,739.195"/>
<path class="TieSegment" stroke="#000000" stroke-width="1.74" stroke-linecap="round" stroke-linejoin="round" fill-rule="evenodd" d="M2557.74,714.295 C2570.11,728.106 2607.24,728.106 2619.61,714.295 C2607.24,733.557 2570.11,733.557 2557.74,714.295"/>
<path class="TieSegment" stroke="#000000" stroke-width="1.74" stroke-linecap="round" stroke-linejoin="round" fill-rule="evenodd" d="M2514.2,1185.49 C2526.57,1199.31 2563.7,1199.31 2576.07,1185.49 C2563.7,1204.76 2526.57,1204.76 2514.2,1185.49"/>
<path class="TieSegment" stroke="#000000" stroke-width="1.74" stroke-linecap="round" stroke-linejoin="round" fill-rule="evenodd" d="M2060.8,1124.5 C2069,1108.74 2093.61,1108.74 2101.82,1124.5 C2093.61,1113.35 2069,1113.35 2060.8,1124.5"/>
<path class="TieSegment" stroke="#000000" stroke-width="1.74" stroke-linecap="round" stroke-linejoin="round" fill-rule="evenodd" d="M1204.55,1210.4 C1216.92,1224.21 1254.05,1224.21 1266.42,1210.4 C1254.05,1229.66 1216.92,1229.66 1204.55,1210.4"/>
<path class="TieSegment" stroke="#000000" stroke-width="1.74" stroke-linecap="round" stroke-linejoin="round" fill-rule="evenodd" d="M765.081,1222.8 C777.456,1236.61 814.582,1236.61 826.957,1222.8 C814.582,1242.06 777.456,1242.06 765.081,1222.8"/>
<path class="TieSegment" stroke="#000000" stroke-width="1.74" stroke-linecap="round" stroke-linejoin="round" fill-rule="evenodd" d="M2150.93,653.302 C2158,638.816 2179.2,638.816 2186.27,653.302 C2179.2,643.206 2158,643.206 2150.93,653.302"/>
<path class="TieSegment" stroke="#000000" stroke-width="1.74" stroke-linecap="round" stroke-linejoin="round" fill-rule="evenodd" d="M968.259,751.595 C980.634,765.407 1017.76,765.407 1030.13,751.595 C1017.76,770.858 980.634,770.858 968.259,751.595"/>
<polyline class="BarLine" fill="none" stroke="#000000" stroke-width="4.46" stroke-linejoin="bevel" points="1134.57,632.834 1134.57,734.762"/>
<polyline class="BarLine" fill="none" stroke="#000000" stroke-width="4.46" stroke-linejoin="bevel" points="2740.42,1104.03 2740.42,1205.96"/>
<polyline class="BarLine" fill="none" stroke="#000000" stroke-width="13.64" stroke-linejoin="bevel" points="2757.78,1104.03 2757.78,1205.96"/>
<path class="BarLine" transform="matrix(0.992,0,0,0.992,2261.11,1142.6)" d="M10.4,0 C10.4,-2.9 8.1,-5.3 5.2,-5.3 C2.3,-5.3 0,-2.9 0,0 C0,2.9 2.3,5.3 5.2,5.3 C8.1,5.3 10.4,2.9 10.4,0"/>
<path class="BarLine" transform="matrix(0.992,0,0,0.992,2261.11,1167.4)" d="M10.4,0 C10.4,-2.9 8.1,-5.3 5.2,-5.3 C2.3,-5.3 0,-2.9 0,0 C0,2.9 2.3,5.3 5.2,5.3 C8.1,5.3 10.4,2.9 10.4,0"/>
<polyline class="BarLine" fill="none" stroke="#000000" stroke-width="4.46" stroke-linejoin="bevel" points="2283.66,1104.03 2283.66,1205.96"/>
<polyline class="BarLine" fill="none" stroke="#000000" stroke-width="13.64" stroke-linejoin="bevel" points="2301.02,1104.03 2301.02,1205.96"/>
<polyline class="BarLine" fill="none" stroke="#000000" stroke-width="4.46" stroke-linejoin="bevel" points="1849.39,1104.03 1849.39,1205.96"/>
<polyline class="BarLine" fill="none" stroke="#000000" stroke-width="4.46" stroke-linejoin="bevel" points="1387.06,1104.03 1387.06,1205.96"/>
<polyline class="BarLine" fill="none" stroke="#000000" stroke-width="13.64" stroke-linejoin="bevel" points="690.653,632.834 690.653,734.762"/>
<polyline class="BarLine" fill="none" stroke="#000000" stroke-width="4.46" stroke-linejoin="bevel" points="708.013,632.834 708.013,734.762"/>
<path class="BarLine" transform="matrix(0.992,0,0,0.992,720.258,671.398)" d="M10.4,0 C10.4,-2.9 8.1,-5.3 5.2,-5.3 C2.3,-5.3 0,-2.9 0,0 C0,2.9 2.3,5.3 5.2,5.3 C8.1,5.3 10.4,2.9 10.4,0"/>
<path class="BarLine" transform="matrix(0.992,0,0,0.992,720.258,696.198)" d="M10.4,0 C10.4,-2.9 8.1,-5.3 5.2,-5.3 C2.3,-5.3 0,-2.9 0,0 C0,2.9 2.3,5.3 5.2,5.3 C8.1,5.3 10.4,2.9 10.4,0"/>
<polyline class="BarLine" fill="none" stroke="#000000" stroke-width="4.46" stroke-linejoin="bevel" points="947.591,1104.03 947.591,1205.96"/>
<polyline class="BarLine" fill="none" stroke="#000000" stroke-width="13.64" stroke-linejoin="bevel" points="470.441,1104.03 470.441,1205.96"/>
<polyline class="BarLine" fill="none" stroke="#000000" stroke-width="4.46" stroke-linejoin="bevel" points="487.801,1104.03 487.801,1205.96"/>
<path class="BarLine" transform="matrix(0.992,0,0,0.992,500.046,1142.6)" d="M10.4,0 C10.4,-2.9 8.1,-5.3 5.2,-5.3 C2.3,-5.3 0,-2.9 0,0 C0,2.9 2.3,5.3 5.2,5.3 C8.1,5.3 10.4,2.9 10.4,0"/>
<path class="BarLine" transform="matrix(0.992,0,0,0.992,500.046,1167.4)" d="M10.4,0 C10.4,-2.9 8.1,-5.3 5.2,-5.3 C2.3,-5.3 0,-2.9 0,0 C0,2.9 2.3,5.3 5.2,5.3 C8.1,5.3 10.4,2.9 10.4,0"/>
<polyline class="BarLine" fill="none" stroke="#000000" stroke-width="4.46" stroke-linejoin="bevel" points="2762.37,632.834 2762.37,734.762"/>
<path class="BarLine" transform="matrix(0.992,0,0,0.992,2323.97,671.398)" d="M10.4,0 C10.4,-2.9 8.1,-5.3 5.2,-5.3 C2.3,-5.3 0,-2.9 0,0 C0,2.9 2.3,5.3 5.2,5.3 C8.1,5.3 10.4,2.9 10.4,0"/>
<path class="BarLine" transform="matrix(0.992,0,0,0.992,2323.97,696.198)" d="M10.4,0 C10.4,-2.9 8.1,-5.3 5.2,-5.3 C2.3,-5.3 0,-2.9 0,0 C0,2.9 2.3,5.3 5.2,5.3 C8.1,5.3 10.4,2.9 10.4,0"/>
<polyline class="BarLine" fill="none" stroke="#000000" stroke-width="4.46" stroke-linejoin="bevel" points="2346.52,632.834 2346.52,734.762"/>
<polyline class="BarLine" fill="none" stroke="#000000" stroke-width="13.64" stroke-linejoin="bevel" points="2363.88,632.834 2363.88,734.762"/>
<polyline class="BarLine" fill="none" stroke="#000000" stroke-width="4.46" stroke-linejoin="bevel" points="1958.83,632.834 1958.83,734.762"/>
<polyline class="BarLine" fill="none" stroke="#000000" stroke-width="4.46" stroke-linejoin="bevel" points="1540.81,632.834 1540.81,734.762"/>
<polyline class="LedgerLine" fill="none" stroke="#000000" stroke-width="3.97" stroke-linejoin="bevel" points="533.916,1229.4 583.5,1229.4"/>
<polyline class="LedgerLine" fill="none" stroke="#000000" stroke-width="3.97" stroke-linejoin="bevel" points="1160.36,758.198 1209.95,758.198"/>
<polyline class="LedgerLine" fill="none" stroke="#000000" stroke-width="3.97" stroke-linejoin="bevel" points="754.128,758.198 803.712,758.198"/>
<polyline class="Stem" fill="none" stroke="#000000" stroke-width="2.73" stroke-linejoin="bevel" points="1703.15,1188.23 1703.15,1105.4"/>
<polyline class="Stem" fill="none" stroke="#000000" stroke-width="2.73" stroke-linejoin="bevel" points="1081.89,1188.23 1081.89,1105.6"/>
<polyline class="Stem" fill="none" stroke="#000000" stroke-width="2.73" stroke-linejoin="bevel" points="1387.65,717.03 1387.65,634.397"/>
<polyline class="Stem" fill="none" stroke="#000000" stroke-width="2.73" stroke-linejoin="bevel" points="2341.45,1159.16 2341.45,1229.4"/>
<polyline class="Stem" fill="none" stroke="#000000" stroke-width="2.73" stroke-linejoin="bevel" points="1454.49,717.03 1454.49,634.198"/>
<polyline class="Stem" fill="none" stroke="#000000" stroke-width="2.73" stroke-linejoin="bevel" points="2458.38,1163.43 2458.38,1086.8"/>
<polyline class="Stem" fill="none" stroke="#000000" stroke-width="2.73" stroke-linejoin="bevel" points="1048.25,729.43 1048.25,646.598"/>
<polyline class="Stem" fill="none" stroke="#000000" stroke-width="2.73" stroke-linejoin="bevel" points="642.427,1163.43 642.427,1087"/>
<polyline class="Stem" fill="none" stroke="#000000" stroke-width="2.73" stroke-linejoin="bevel" points="1606.14,704.63 1606.14,621.798"/>
<polyline class="Stem" fill="none" stroke="#000000" stroke-width="2.73" stroke-linejoin="bevel" points="631.738,729.43 631.738,646.797"/>
<polyline class="Stem" fill="none" stroke="#000000" stroke-width="2.73" stroke-linejoin="bevel" points="2087.61,1146.76 2087.61,1223.2"/>
<polyline class="Stem" fill="none" stroke="#000000" stroke-width="2.73" stroke-linejoin="bevel" points="778.234,1200.63 778.234,1118"/>
<polyline class="Stem" fill="none" stroke="#000000" stroke-width="2.73" stroke-linejoin="bevel" points="1666.6,704.63 1666.6,621.997"/>
<polyline class="Stem" fill="none" stroke="#000000" stroke-width="2.73" stroke-linejoin="bevel" points="2041.63,1146.76 2041.63,1223.1"/>
<polyline class="Stem" fill="none" stroke="#000000" stroke-width="2.73" stroke-linejoin="bevel" points="845.07,1200.63 845.07,1117.8"/>
<polyline class="Stem" fill="none" stroke="#000000" stroke-width="2.73" stroke-linejoin="bevel" points="1972.66,1159.16 1972.66,1229.4"/>
<polyline class="Stem" fill="none" stroke="#000000" stroke-width="2.73" stroke-linejoin="bevel" points="793.668,754.23 793.668,671.398"/>
<polyline class="Stem" fill="none" stroke="#000000" stroke-width="2.73" stroke-linejoin="bevel" points="1793.89,704.63 1793.89,621.997"/>
<polyline class="Stem" fill="none" stroke="#000000" stroke-width="2.73" stroke-linejoin="bevel" points="1914.72,1163.43 1914.72,1086.8"/>
<polyline class="Stem" fill="none" stroke="#000000" stroke-width="2.73" stroke-linejoin="bevel" points="1834.19,717.03 1834.19,634.198"/>
<polyline class="Stem" fill="none" stroke="#000000" stroke-width="2.73" stroke-linejoin="bevel" points="2527.35,1163.43 2527.35,1087"/>
<polyline class="Stem" fill="none" stroke="#000000" stroke-width="2.73" stroke-linejoin="bevel" points="1910.82,704.63 1910.82,621.798"/>
<polyline class="Stem" fill="none" stroke="#000000" stroke-width="2.73" stroke-linejoin="bevel" points="1790.58,1175.83 1790.58,1093"/>
<polyline class="Stem" fill="none" stroke="#000000" stroke-width="2.73" stroke-linejoin="bevel" points="1260.36,717.03 1260.36,634.397"/>
<polyline class="Stem" fill="none" stroke="#000000" stroke-width="2.73" stroke-linejoin="bevel" points="854.122,729.43 854.122,646.797"/>
<polyline class="Stem" fill="none" stroke="#000000" stroke-width="2.73" stroke-linejoin="bevel" points="2024.16,692.23 2024.16,615.598"/>
<polyline class="Stem" fill="none" stroke="#000000" stroke-width="2.73" stroke-linejoin="bevel" points="1657.17,1175.83 1657.17,1093.2"/>
<polyline class="Stem" fill="none" stroke="#000000" stroke-width="2.73" stroke-linejoin="bevel" points="2071.3,687.965 2071.3,758.198"/>
<polyline class="Stem" fill="none" stroke="#000000" stroke-width="2.73" stroke-linejoin="bevel" points="981.412,729.43 981.412,646.797"/>
<polyline class="Stem" fill="none" stroke="#000000" stroke-width="2.73" stroke-linejoin="bevel" points="1521.36,1175.83 1521.36,1093.2"/>
<polyline class="Stem" fill="none" stroke="#000000" stroke-width="2.73" stroke-linejoin="bevel" points="543.96,1146.76 543.96,1223.2"/>
<polyline class="Stem" fill="none" stroke="#000000" stroke-width="2.73" stroke-linejoin="bevel" points="2131.76,675.565 2131.76,751.899"/>
<polyline class="Stem" fill="none" stroke="#000000" stroke-width="2.73" stroke-linejoin="bevel" points="1012.92,1213.03 1012.92,1130.2"/>
<polyline class="Stem" fill="none" stroke="#000000" stroke-width="2.73" stroke-linejoin="bevel" points="2172.06,675.565 2172.06,751.998"/>
<polyline class="Stem" fill="none" stroke="#000000" stroke-width="2.73" stroke-linejoin="bevel" points="1452.39,1175.83 1452.39,1093"/>
<polyline class="Stem" fill="none" stroke="#000000" stroke-width="2.73" stroke-linejoin="bevel" points="2594.18,1163.43 2594.18,1086.8"/>
<polyline class="Stem" fill="none" stroke="#000000" stroke-width="2.73" stroke-linejoin="bevel" points="2637.73,692.23 2637.73,615.598"/>
<polyline class="Stem" fill="none" stroke="#000000" stroke-width="2.73" stroke-linejoin="bevel" points="1199.91,741.83 1199.91,658.998"/>
<polyline class="Stem" fill="none" stroke="#000000" stroke-width="2.73" stroke-linejoin="bevel" points="2404.31,687.965 2404.31,758.198"/>
<polyline class="Stem" fill="none" stroke="#000000" stroke-width="2.73" stroke-linejoin="bevel" points="1284.54,1188.23 1284.54,1105.4"/>
<polyline class="Stem" fill="none" stroke="#000000" stroke-width="2.73" stroke-linejoin="bevel" points="2510.44,692.23 2510.44,615.598"/>
<polyline class="Stem" fill="none" stroke="#000000" stroke-width="2.73" stroke-linejoin="bevel" points="1217.7,1188.23 1217.7,1105.6"/>
<polyline class="Stem" fill="none" stroke="#000000" stroke-width="2.73" stroke-linejoin="bevel" points="2570.89,692.23 2570.89,615.797"/>
<path class="Hook" transform="matrix(0.992,0,0,0.992,2130.39,751.998)" d="M0,-0.1 C0,0.6 0.6,1.2 1.3,1.2 C1.8,1.2 2.4,0.8 2.5,0.4 C2.5,0.3 3.4,-3.2 3.5,-3.5 C3.6,-3.9 4.5,-7.7 8.1,-13.6 C12,-20.1 18,-24.8 23,-31.8 C28,-38.8 30.9,-45.4 30.9,-54.2 C30.9,-63.3 28.9,-70.9 23.5,-80.6 C23.2,-81.3 22.6,-81.7 22,-81.7 C21.8,-81.7 21.6,-81.7 21.5,-81.6 C21,-81.4 20.8,-81 20.8,-80.4 C20.8,-80.1 20.9,-79.7 21.1,-79.2 C25.1,-69.9 26.7,-64.6 26.7,-57.4 C26.7,-49.1 23.8,-44.8 22,-41.7 C15.5,-30.6 5,-25.2 0.8,-23.8 C0.1,-23.6 0,-23 0,-22.7 L0,-0.1 "/>
<path class="Hook" transform="matrix(0.992,0,0,0.992,2569.53,615.598)" d="M0,22.7 C0,23 0.1,23.6 0.8,23.8 C5.1,25.2 13.7,30.6 20.2,41.7 C22,44.8 24.9,49.1 24.9,57.4 C24.9,64.6 23.1,72 20.4,79.2 C20.2,79.8 20.1,80.3 20.1,80.7 C20.1,81.4 20.5,81.7 21.2,81.7 C21.8,81.7 22.3,81.3 22.7,80.6 C27.2,72.6 28.9,63.3 28.9,54.2 C28.4,41.3 21,31.8 21,31.8 C21.3,31.8 11.8,19.5 9.1,15.3 C5.4,9.6 3.7,3.9 3.5,3.5 C3.4,3.2 2.5,-0.4 2.5,-0.4 C2.4,-0.8 1.9,-1.2 1.3,-1.2 C0.6,-1.2 0,-0.6 0,0.1 L0,22.7 "/>
<path class="Hook" transform="matrix(0.992,0,0,0.992,1216.34,1105.4)" d="M0,22.7 C0,23 0.1,23.6 0.8,23.8 C5.1,25.2 13.7,30.6 20.2,41.7 C22,44.8 24.9,49.1 24.9,57.4 C24.9,64.6 23.1,72 20.4,79.2 C20.2,79.8 20.1,80.3 20.1,80.7 C20.1,81.4 20.5,81.7 21.2,81.7 C21.8,81.7 22.3,81.3 22.7,80.6 C27.2,72.6 28.9,63.3 28.9,54.2 C28.4,41.3 21,31.8 21,31.8 C21.3,31.8 11.8,19.5 9.1,15.3 C5.4,9.6 3.7,3.9 3.5,3.5 C3.4,3.2 2.5,-0.4 2.5,-0.4 C2.4,-0.8 1.9,-1.2 1.3,-1.2 C0.6,-1.2 0,-0.6 0,0.1 L0,22.7 "/>
<path class="Hook" transform="matrix(0.992,0,0,0.992,630.374,646.598)" d="M0,22.7 C0,23 0.1,23.6 0.8,23.8 C5.1,25.2 13.7,30.6 20.2,41.7 C22,44.8 24.9,49.1 24.9,57.4 C24.9,64.6 23.1,72 20.4,79.2 C20.2,79.8 20.1,80.3 20.1,80.7 C20.1,81.4 20.5,81.7 21.2,81.7 C21.8,81.7 22.3,81.3 22.7,80.6 C27.2,72.6 28.9,63.3 28.9,54.2 C28.4,41.3 21,31.8 21,31.8 C21.3,31.8 11.8,19.5 9.1,15.3 C5.4,9.6 3.7,3.9 3.5,3.5 C3.4,3.2 2.5,-0.4 2.5,-0.4 C2.4,-0.8 1.9,-1.2 1.3,-1.2 C0.6,-1.2 0,-0.6 0,0.1 L0,22.7 "/>
<path class="Hook" transform="matrix(0.992,0,0,0.992,1080.53,1105.4)" d="M0,22.7 C0,23 0.1,23.6 0.8,23.8 C5.1,25.2 13.7,30.6 20.2,41.7 C22,44.8 24.9,49.1 24.9,57.4 C24.9,64.6 23.1,72 20.4,79.2 C20.2,79.8 20.1,80.3 20.1,80.7 C20.1,81.4 20.5,81.7 21.2,81.7 C21.8,81.7 22.3,81.3 22.7,80.6 C27.2,72.6 28.9,63.3 28.9,54.2 C28.4,41.3 21,31.8 21,31.8 C21.3,31.8 11.8,19.5 9.1,15.3 C5.4,9.6 3.7,3.9 3.5,3.5 C3.4,3.2 2.5,-0.4 2.5,-0.4 C2.4,-0.8 1.9,-1.2 1.3,-1.2 C0.6,-1.2 0,-0.6 0,0.1 L0,22.7 "/>
<path class="Hook" transform="matrix(0.992,0,0,0.992,1520,1093)" d="M0,22.7 C0,23 0.1,23.6 0.8,23.8 C5.1,25.2 13.7,30.6 20.2,41.7 C22,44.8 24.9,49.1 24.9,57.4 C24.9,64.6 23.1,72 20.4,79.2 C20.2,79.8 20.1,80.3 20.1,80.7 C20.1,81.4 20.5,81.7 21.2,81.7 C21.8,81.7 22.3,81.3 22.7,80.6 C27.2,72.6 28.9,63.3 28.9,54.2 C28.4,41.3 21,31.8 21,31.8 C21.3,31.8 11.8,19.5 9.1,15.3 C5.4,9.6 3.7,3.9 3.5,3.5 C3.4,3.2 2.5,-0.4 2.5,-0.4 C2.4,-0.8 1.9,-1.2 1.3,-1.2 C0.6,-1.2 0,-0.6 0,0.1 L0,22.7 "/>
<path class="Hook" transform="matrix(0.992,0,0,0.992,1655.81,1093)" d="M0,22.7 C0,23 0.1,23.6 0.8,23.8 C5.1,25.2 13.7,30.6 20.2,41.7 C22,44.8 24.9,49.1 24.9,57.4 C24.9,64.6 23.1,72 20.4,79.2 C20.2,79.8 20.1,80.3 20.1,80.7 C20.1,81.4 20.5,81.7 21.2,81.7 C21.8,81.7 22.3,81.3 22.7,80.6 C27.2,72.6 28.9,63.3 28.9,54.2 C28.4,41.3 21,31.8 21,31.8 C21.3,31.8 11.8,19.5 9.1,15.3 C5.4,9.6 3.7,3.9 3.5,3.5 C3.4,3.2 2.5,-0.4 2.5,-0.4 C2.4,-0.8 1.9,-1.2 1.3,-1.2 C0.6,-1.2 0,-0.6 0,0.1 L0,22.7 "/>
<path class="Hook" transform="matrix(0.992,0,0,0.992,1259,634.198)" d="M0,22.7 C0,23 0.1,23.6 0.8,23.8 C5.1,25.2 13.7,30.6 20.2,41.7 C22,44.8 24.9,49.1 24.9,57.4 C24.9,64.6 23.1,72 20.4,79.2 C20.2,79.8 20.1,80.3 20.1,80.7 C20.1,81.4 20.5,81.7 21.2,81.7 C21.8,81.7 22.3,81.3 22.7,80.6 C27.2,72.6 28.9,63.3 28.9,54.2 C28.4,41.3 21,31.8 21,31.8 C21.3,31.8 11.8,19.5 9.1,15.3 C5.4,9.6 3.7,3.9 3.5,3.5 C3.4,3.2 2.5,-0.4 2.5,-0.4 C2.4,-0.8 1.9,-1.2 1.3,-1.2 C0.6,-1.2 0,-0.6 0,0.1 L0,22.7 "/>
<path class="Hook" transform="matrix(0.992,0,0,0.992,852.758,646.598)" d="M0,22.7 C0,23 0.1,23.6 0.8,23.8 C5.1,25.2 13.7,30.6 20.2,41.7 C22,44.8 24.9,49.1 24.9,57.4 C24.9,64.6 23.1,72 20.4,79.2 C20.2,79.8 20.1,80.3 20.1,80.7 C20.1,81.4 20.5,81.7 21.2,81.7 C21.8,81.7 22.3,81.3 22.7,80.6 C27.2,72.6 28.9,63.3 28.9,54.2 C28.4,41.3 21,31.8 21,31.8 C21.3,31.8 11.8,19.5 9.1,15.3 C5.4,9.6 3.7,3.9 3.5,3.5 C3.4,3.2 2.5,-0.4 2.5,-0.4 C2.4,-0.8 1.9,-1.2 1.3,-1.2 C0.6,-1.2 0,-0.6 0,0.1 L0,22.7 "/>
<path class="Hook" transform="matrix(0.992,0,0,0.992,1792.52,621.798)" d="M0,22.7 C0,23 0.1,23.6 0.8,23.8 C5.1,25.2 13.7,30.6 20.2,41.7 C22,44.8 24.9,49.1 24.9,57.4 C24.9,64.6 23.1,72 20.4,79.2 C20.2,79.8 20.1,80.3 20.1,80.7 C20.1,81.4 20.5,81.7 21.2,81.7 C21.8,81.7 22.3,81.3 22.7,80.6 C27.2,72.6 28.9,63.3 28.9,54.2 C28.4,41.3 21,31.8 21,31.8 C21.3,31.8 11.8,19.5 9.1,15.3 C5.4,9.6 3.7,3.9 3.5,3.5 C3.4,3.2 2.5,-0.4 2.5,-0.4 C2.4,-0.8 1.9,-1.2 1.3,-1.2 C0.6,-1.2 0,-0.6 0,0.1 L0,22.7 "/>
<path class="Hook" transform="matrix(0.992,0,0,0.992,2040.26,1223.2)" d="M0,-0.1 C0,0.6 0.6,1.2 1.3,1.2 C1.8,1.2 2.4,0.8 2.5,0.4 C2.5,0.3 3.4,-3.2 3.5,-3.5 C3.6,-3.9 4.5,-7.7 8.1,-13.6 C12,-20.1 18,-24.8 23,-31.8 C28,-38.8 30.9,-45.4 30.9,-54.2 C30.9,-63.3 28.9,-70.9 23.5,-80.6 C23.2,-81.3 22.6,-81.7 22,-81.7 C21.8,-81.7 21.6,-81.7 21.5,-81.6 C21,-81.4 20.8,-81 20.8,-80.4 C20.8,-80.1 20.9,-79.7 21.1,-79.2 C25.1,-69.9 26.7,-64.6 26.7,-57.4 C26.7,-49.1 23.8,-44.8 22,-41.7 C15.5,-30.6 5,-25.2 0.8,-23.8 C0.1,-23.6 0,-23 0,-22.7 L0,-0.1 "/>
<path class="Hook" transform="matrix(0.992,0,0,0.992,1665.23,621.798)" d="M0,22.7 C0,23 0.1,23.6 0.8,23.8 C5.1,25.2 13.7,30.6 20.2,41.7 C22,44.8 24.9,49.1 24.9,57.4 C24.9,64.6 23.1,72 20.4,79.2 C20.2,79.8 20.1,80.3 20.1,80.7 C20.1,81.4 20.5,81.7 21.2,81.7 C21.8,81.7 22.3,81.3 22.7,80.6 C27.2,72.6 28.9,63.3 28.9,54.2 C28.4,41.3 21,31.8 21,31.8 C21.3,31.8 11.8,19.5 9.1,15.3 C5.4,9.6 3.7,3.9 3.5,3.5 C3.4,3.2 2.5,-0.4 2.5,-0.4 C2.4,-0.8 1.9,-1.2 1.3,-1.2 C0.6,-1.2 0,-0.6 0,0.1 L0,22.7 "/>
<path class="Hook" transform="matrix(0.992,0,0,0.992,776.87,1117.8)" d="M0,22.7 C0,23 0.1,23.6 0.8,23.8 C5.1,25.2 13.7,30.6 20.2,41.7 C22,44.8 24.9,49.1 24.9,57.4 C24.9,64.6 23.1,72 20.4,79.2 C20.2,79.8 20.1,80.3 20.1,80.7 C20.1,81.4 20.5,81.7 21.2,81.7 C21.8,81.7 22.3,81.3 22.7,80.6 C27.2,72.6 28.9,63.3 28.9,54.2 C28.4,41.3 21,31.8 21,31.8 C21.3,31.8 11.8,19.5 9.1,15.3 C5.4,9.6 3.7,3.9 3.5,3.5 C3.4,3.2 2.5,-0.4 2.5,-0.4 C2.4,-0.8 1.9,-1.2 1.3,-1.2 C0.6,-1.2 0,-0.6 0,0.1 L0,22.7 "/>
<path class="Hook" transform="matrix(0.992,0,0,0.992,641.063,1086.8)" d="M0,22.7 C0,23 0.1,23.6 0.8,23.8 C5.1,25.2 13.7,30.6 20.2,41.7 C22,44.8 24.9,49.1 24.9,57.4 C24.9,64.6 23.1,72 20.4,79.2 C20.2,79.8 20.1,80.3 20.1,80.7 C20.1,81.4 20.5,81.7 21.2,81.7 C21.8,81.7 22.3,81.3 22.7,80.6 C27.2,72.6 28.9,63.3 28.9,54.2 C28.4,41.3 21,31.8 21,31.8 C21.3,31.8 11.8,19.5 9.1,15.3 C5.4,9.6 3.7,3.9 3.5,3.5 C3.4,3.2 2.5,-0.4 2.5,-0.4 C2.4,-0.8 1.9,-1.2 1.3,-1.2 C0.6,-1.2 0,-0.6 0,0.1 L0,22.7 "/>
<path class="Hook" transform="matrix(0.992,0,0,0.992,2525.98,1086.8)" d="M0,22.7 C0,23 0.1,23.6 0.8,23.8 C5.1,25.2 13.7,30.6 20.2,41.7 C22,44.8 24.9,49.1 24.9,57.4 C24.9,64.6 23.1,72 20.4,79.2 C20.2,79.8 20.1,80.3 20.1,80.7 C20.1,81.4 20.5,81.7 21.2,81.7 C21.8,81.7 22.3,81.3 22.7,80.6 C27.2,72.6 28.9,63.3 28.9,54.2 C28.4,41.3 21,31.8 21,31.8 C21.3,31.8 11.8,19.5 9.1,15.3 C5.4,9.6 3.7,3.9 3.5,3.5 C3.4,3.2 2.5,-0.4 2.5,-0.4 C2.4,-0.8 1.9,-1.2 1.3,-1.2 C0.6,-1.2 0,-0.6 0,0.1 L0,22.7 "/>
<path class="Hook" transform="matrix(0.992,0,0,0.992,980.048,646.598)" d="M0,22.7 C0,23 0.1,23.6 0.8,23.8 C5.1,25.2 13.7,30.6 20.2,41.7 C22,44.8 24.9,49.1 24.9,57.4 C24.9,64.6 23.1,72 20.4,79.2 C20.2,79.8 20.1,80.3 20.1,80.7 C20.1,81.4 20.5,81.7 21.2,81.7 C21.8,81.7 22.3,81.3 22.7,80.6 C27.2,72.6 28.9,63.3 28.9,54.2 C28.4,41.3 21,31.8 21,31.8 C21.3,31.8 11.8,19.5 9.1,15.3 C5.4,9.6 3.7,3.9 3.5,3.5 C3.4,3.2 2.5,-0.4 2.5,-0.4 C2.4,-0.8 1.9,-1.2 1.3,-1.2 C0.6,-1.2 0,-0.6 0,0.1 L0,22.7 "/>
<path class="Hook" transform="matrix(0.992,0,0,0.992,1386.29,634.198)" d="M0,22.7 C0,23 0.1,23.6 0.8,23.8 C5.1,25.2 13.7,30.6 20.2,41.7 C22,44.8 24.9,49.1 24.9,57.4 C24.9,64.6 23.1,72 20.4,79.2 C20.2,79.8 20.1,80.3 20.1,80.7 C20.1,81.4 20.5,81.7 21.2,81.7 C21.8,81.7 22.3,81.3 22.7,80.6 C27.2,72.6 28.9,63.3 28.9,54.2 C28.4,41.3 21,31.8 21,31.8 C21.3,31.8 11.8,19.5 9.1,15.3 C5.4,9.6 3.7,3.9 3.5,3.5 C3.4,3.2 2.5,-0.4 2.5,-0.4 C2.4,-0.8 1.9,-1.2 1.3,-1.2 C0.6,-1.2 0,-0.6 0,0.1 L0,22.7 "/>
<path class="Note" transform="matrix(0.992,0,0,0.992,1017.39,733.398)" d="M21.3,-13.2 C11.6,-13.2 0,-5.1 0,4.2 C0,8.5 3.1,13.3 11.2,13.3 C21.6,13.3 32.5,4.8 32.5,-4 C32.5,-9.9 27.5,-13.2 21.3,-13.2 M7.5,8.6 C4.2,8.6 3.5,5.9 3.5,5 C3.5,0.1 20.3,-8.5 25,-8.5 C27.4,-8.5 29,-7.1 29,-4.9 C29,0.1 12.1,8.6 7.5,8.6"/>
<path class="Note" transform="matrix(0.992,0,0,0.992,1626.31,1179.8)" d="M0,4.2 C0,8.5 3.1,13.3 11.2,13.3 C21.6,13.3 32.5,4.8 32.5,-4 C32.5,-9.9 27.5,-13.2 21.3,-13.2 C11.6,-13.2 0,-5 0,4.2"/>
<path class="Note" transform="matrix(0.992,0,0,0.992,1672.29,1192.2)" d="M0,4.2 C0,8.5 3.1,13.3 11.2,13.3 C21.6,13.3 32.5,4.8 32.5,-4 C32.5,-9.9 27.5,-13.2 21.3,-13.2 C11.6,-13.2 0,-5 0,4.2"/>
<path class="Note" transform="matrix(0.992,0,0,0.992,542.596,1142.6)" d="M0,4.2 C0,8.5 3.1,13.3 11.2,13.3 C21.6,13.3 32.5,4.8 32.5,-4 C32.5,-9.9 27.5,-13.2 21.3,-13.2 C11.6,-13.2 0,-5 0,4.2"/>
<path class="Note" transform="matrix(0.992,0,0,0.992,950.552,733.398)" d="M0,4.2 C0,8.5 3.1,13.3 11.2,13.3 C21.6,13.3 32.5,4.8 32.5,-4 C32.5,-9.9 27.5,-13.2 21.3,-13.2 C11.6,-13.2 0,-5 0,4.2"/>
<path class="Note" transform="matrix(0.992,0,0,0.992,1759.72,1179.8)" d="M0,4.2 C0,8.5 3.1,13.3 11.2,13.3 C21.6,13.3 32.5,4.8 32.5,-4 C32.5,-9.9 27.5,-13.2 21.3,-13.2 C11.6,-13.2 0,-5 0,4.2"/>
<path class="Note" transform="matrix(0.992,0,0,0.992,762.808,758.198)" d="M0,4.2 C0,8.5 3.1,13.3 11.2,13.3 C21.6,13.3 32.5,4.8 32.5,-4 C32.5,-9.9 27.5,-13.2 21.3,-13.2 C11.6,-13.2 0,-5 0,4.2"/>
<path class="Note" transform="matrix(0.992,0,0,0.992,611.567,1167.4)" d="M0,4.2 C0,8.5 3.1,13.3 11.2,13.3 C21.6,13.3 32.5,4.8 32.5,-4 C32.5,-9.9 27.5,-13.2 21.3,-13.2 C11.6,-13.2 0,-5 0,4.2"/>
<path class="Note" transform="matrix(0.992,0,0,0.992,1169.04,745.798)" d="M0,4.2 C0,8.5 3.1,13.3 11.2,13.3 C21.6,13.3 32.5,4.8 32.5,-4 C32.5,-9.9 27.5,-13.2 21.3,-13.2 C11.6,-13.2 0,-5 0,4.2"/>
<path class="Note" transform="matrix(0.992,0,0,0.992,2563.32,1167.4)" d="M0,4.2 C0,8.5 3.1,13.3 11.2,13.3 C21.6,13.3 32.5,4.8 32.5,-4 C32.5,-9.9 27.5,-13.2 21.3,-13.2 C11.6,-13.2 0,-5 0,4.2"/>
<path class="Note" transform="matrix(0.992,0,0,0.992,2496.49,1167.4)" d="M0,4.2 C0,8.5 3.1,13.3 11.2,13.3 C21.6,13.3 32.5,4.8 32.5,-4 C32.5,-9.9 27.5,-13.2 21.3,-13.2 C11.6,-13.2 0,-5 0,4.2"/>
<path class="Note" transform="matrix(0.992,0,0,0.992,1229.5,720.998)" d="M0,4.2 C0,8.5 3.1,13.3 11.2,13.3 C21.6,13.3 32.5,4.8 32.5,-4 C32.5,-9.9 27.5,-13.2 21.3,-13.2 C11.6,-13.2 0,-5 0,4.2"/>
<path class="Note" transform="matrix(0.992,0,0,0.992,747.374,1204.6)" d="M0,4.2 C0,8.5 3.1,13.3 11.2,13.3 C21.6,13.3 32.5,4.8 32.5,-4 C32.5,-9.9 27.5,-13.2 21.3,-13.2 C11.6,-13.2 0,-5 0,4.2"/>
<path class="Note" transform="matrix(0.992,0,0,0.992,2427.52,1167.4)" d="M0,4.2 C0,8.5 3.1,13.3 11.2,13.3 C21.6,13.3 32.5,4.8 32.5,-4 C32.5,-9.9 27.5,-13.2 21.3,-13.2 C11.6,-13.2 0,-5 0,4.2"/>
<path class="Note" transform="matrix(0.992,0,0,0.992,814.21,1204.6)" d="M21.3,-13.2 C11.6,-13.2 0,-5.1 0,4.2 C0,8.5 3.1,13.3 11.2,13.3 C21.6,13.3 32.5,4.8 32.5,-4 C32.5,-9.9 27.5,-13.2 21.3,-13.2 M7.5,8.6 C4.2,8.6 3.5,5.9 3.5,5 C3.5,0.1 20.3,-8.5 25,-8.5 C27.4,-8.5 29,-7.1 29,-4.9 C29,0.1 12.1,8.6 7.5,8.6"/>
<path class="Note" transform="matrix(0.992,0,0,0.992,2340.08,1155)" d="M0,4.2 C0,8.5 3.1,13.3 11.2,13.3 C21.6,13.3 32.5,4.8 32.5,-4 C32.5,-9.9 27.5,-13.2 21.3,-13.2 C11.6,-13.2 0,-5 0,4.2"/>
<path class="Note" transform="matrix(0.992,0,0,0.992,823.262,733.398)" d="M0,4.2 C0,8.5 3.1,13.3 11.2,13.3 C21.6,13.3 32.5,4.8 32.5,-4 C32.5,-9.9 27.5,-13.2 21.3,-13.2 C11.6,-13.2 0,-5 0,4.2"/>
<path class="Note" transform="matrix(0.992,0,0,0.992,1356.79,720.998)" d="M0,4.2 C0,8.5 3.1,13.3 11.2,13.3 C21.6,13.3 32.5,4.8 32.5,-4 C32.5,-9.9 27.5,-13.2 21.3,-13.2 C11.6,-13.2 0,-5 0,4.2"/>
<path class="Note" transform="matrix(0.992,0,0,0.992,982.063,1217)" d="M0,4.2 C0,8.5 3.1,13.3 11.2,13.3 C21.6,13.3 32.5,4.8 32.5,-4 C32.5,-9.9 27.5,-13.2 21.3,-13.2 C11.6,-13.2 0,-5 0,4.2"/>
<path class="Note" transform="matrix(0.992,0,0,0.992,1423.62,720.998)" d="M21.3,-13.2 C11.6,-13.2 0,-5.1 0,4.2 C0,8.5 3.1,13.3 11.2,13.3 C21.6,13.3 32.5,4.8 32.5,-4 C32.5,-9.9 27.5,-13.2 21.3,-13.2 M7.5,8.6 C4.2,8.6 3.5,5.9 3.5,5 C3.5,0.1 20.3,-8.5 25,-8.5 C27.4,-8.5 29,-7.1 29,-4.9 C29,0.1 12.1,8.6 7.5,8.6"/>
<path class="Note" transform="matrix(0.992,0,0,0.992,2606.87,696.198)" d="M0,4.2 C0,8.5 3.1,13.3 11.2,13.3 C21.6,13.3 32.5,4.8 32.5,-4 C32.5,-9.9 27.5,-13.2 21.3,-13.2 C11.6,-13.2 0,-5 0,4.2"/>
<path class="Note" transform="matrix(0.992,0,0,0.992,2540.03,696.198)" d="M0,4.2 C0,8.5 3.1,13.3 11.2,13.3 C21.6,13.3 32.5,4.8 32.5,-4 C32.5,-9.9 27.5,-13.2 21.3,-13.2 C11.6,-13.2 0,-5 0,4.2"/>
<path class="Note" transform="matrix(0.992,0,0,0.992,1051.03,1192.2)" d="M0,4.2 C0,8.5 3.1,13.3 11.2,13.3 C21.6,13.3 32.5,4.8 32.5,-4 C32.5,-9.9 27.5,-13.2 21.3,-13.2 C11.6,-13.2 0,-5 0,4.2"/>
<path class="Note" transform="matrix(0.992,0,0,0.992,1575.28,708.598)" d="M0,4.2 C0,8.5 3.1,13.3 11.2,13.3 C21.6,13.3 32.5,4.8 32.5,-4 C32.5,-9.9 27.5,-13.2 21.3,-13.2 C11.6,-13.2 0,-5 0,4.2"/>
<path class="Note" transform="matrix(0.992,0,0,0.992,2086.24,1142.6)" d="M0,4.2 C0,8.5 3.1,13.3 11.2,13.3 C21.6,13.3 32.5,4.8 32.5,-4 C32.5,-9.9 27.5,-13.2 21.3,-13.2 C11.6,-13.2 0,-5 0,4.2"/>
<path class="Note" transform="matrix(0.992,0,0,0.992,2040.26,1142.6)" d="M0,4.2 C0,8.5 3.1,13.3 11.2,13.3 C21.6,13.3 32.5,4.8 32.5,-4 C32.5,-9.9 27.5,-13.2 21.3,-13.2 C11.6,-13.2 0,-5 0,4.2"/>
<path class="Note" transform="matrix(0.992,0,0,0.992,2479.58,696.198)" d="M0,4.2 C0,8.5 3.1,13.3 11.2,13.3 C21.6,13.3 32.5,4.8 32.5,-4 C32.5,-9.9 27.5,-13.2 21.3,-13.2 C11.6,-13.2 0,-5 0,4.2"/>
<path class="Note" transform="matrix(0.992,0,0,0.992,1186.84,1192.2)" d="M0,4.2 C0,8.5 3.1,13.3 11.2,13.3 C21.6,13.3 32.5,4.8 32.5,-4 C32.5,-9.9 27.5,-13.2 21.3,-13.2 C11.6,-13.2 0,-5 0,4.2"/>
<path class="Note" transform="matrix(0.992,0,0,0.992,2402.94,683.798)" d="M0,4.2 C0,8.5 3.1,13.3 11.2,13.3 C21.6,13.3 32.5,4.8 32.5,-4 C32.5,-9.9 27.5,-13.2 21.3,-13.2 C11.6,-13.2 0,-5 0,4.2"/>
<path class="Note" transform="matrix(0.992,0,0,0.992,1253.68,1192.2)" d="M21.3,-13.2 C11.6,-13.2 0,-5.1 0,4.2 C0,8.5 3.1,13.3 11.2,13.3 C21.6,13.3 32.5,4.8 32.5,-4 C32.5,-9.9 27.5,-13.2 21.3,-13.2 M7.5,8.6 C4.2,8.6 3.5,5.9 3.5,5 C3.5,0.1 20.3,-8.5 25,-8.5 C27.4,-8.5 29,-7.1 29,-4.9 C29,0.1 12.1,8.6 7.5,8.6"/>
<path class="Note" transform="matrix(0.992,0,0,0.992,1635.74,708.598)" d="M0,4.2 C0,8.5 3.1,13.3 11.2,13.3 C21.6,13.3 32.5,4.8 32.5,-4 C32.5,-9.9 27.5,-13.2 21.3,-13.2 C11.6,-13.2 0,-5 0,4.2"/>
<path class="Note" transform="matrix(0.992,0,0,0.992,1971.29,1155)" d="M0,4.2 C0,8.5 3.1,13.3 11.2,13.3 C21.6,13.3 32.5,4.8 32.5,-4 C32.5,-9.9 27.5,-13.2 21.3,-13.2 C11.6,-13.2 0,-5 0,4.2"/>
<path class="Note" transform="matrix(0.992,0,0,0.992,2170.7,671.398)" d="M0,4.2 C0,8.5 3.1,13.3 11.2,13.3 C21.6,13.3 32.5,4.8 32.5,-4 C32.5,-9.9 27.5,-13.2 21.3,-13.2 C11.6,-13.2 0,-5 0,4.2"/>
<path class="Note" transform="matrix(0.992,0,0,0.992,1421.53,1179.8)" d="M0,4.2 C0,8.5 3.1,13.3 11.2,13.3 C21.6,13.3 32.5,4.8 32.5,-4 C32.5,-9.9 27.5,-13.2 21.3,-13.2 C11.6,-13.2 0,-5 0,4.2"/>
<path class="Note" transform="matrix(0.992,0,0,0.992,1883.86,1167.4)" d="M0,4.2 C0,8.5 3.1,13.3 11.2,13.3 C21.6,13.3 32.5,4.8 32.5,-4 C32.5,-9.9 27.5,-13.2 21.3,-13.2 C11.6,-13.2 0,-5 0,4.2"/>
<path class="Note" transform="matrix(0.992,0,0,0.992,2130.39,671.398)" d="M0,4.2 C0,8.5 3.1,13.3 11.2,13.3 C21.6,13.3 32.5,4.8 32.5,-4 C32.5,-9.9 27.5,-13.2 21.3,-13.2 C11.6,-13.2 0,-5 0,4.2"/>
<path class="Note" transform="matrix(0.992,0,0,0.992,1763.03,708.598)" d="M0,4.2 C0,8.5 3.1,13.3 11.2,13.3 C21.6,13.3 32.5,4.8 32.5,-4 C32.5,-9.9 27.5,-13.2 21.3,-13.2 C11.6,-13.2 0,-5 0,4.2"/>
<path class="Note" transform="matrix(0.992,0,0,0.992,1490.5,1179.8)" d="M0,4.2 C0,8.5 3.1,13.3 11.2,13.3 C21.6,13.3 32.5,4.8 32.5,-4 C32.5,-9.9 27.5,-13.2 21.3,-13.2 C11.6,-13.2 0,-5 0,4.2"/>
<path class="Note" transform="matrix(0.992,0,0,0.992,1803.33,720.998)" d="M0,4.2 C0,8.5 3.1,13.3 11.2,13.3 C21.6,13.3 32.5,4.8 32.5,-4 C32.5,-9.9 27.5,-13.2 21.3,-13.2 C11.6,-13.2 0,-5 0,4.2"/>
<path class="Note" transform="matrix(0.992,0,0,0.992,600.877,733.398)" d="M0,4.2 C0,8.5 3.1,13.3 11.2,13.3 C21.6,13.3 32.5,4.8 32.5,-4 C32.5,-9.9 27.5,-13.2 21.3,-13.2 C11.6,-13.2 0,-5 0,4.2"/>
<path class="Note" transform="matrix(0.992,0,0,0.992,2069.94,683.798)" d="M0,4.2 C0,8.5 3.1,13.3 11.2,13.3 C21.6,13.3 32.5,4.8 32.5,-4 C32.5,-9.9 27.5,-13.2 21.3,-13.2 C11.6,-13.2 0,-5 0,4.2"/>
<path class="Note" transform="matrix(0.992,0,0,0.992,1993.3,696.198)" d="M0,4.2 C0,8.5 3.1,13.3 11.2,13.3 C21.6,13.3 32.5,4.8 32.5,-4 C32.5,-9.9 27.5,-13.2 21.3,-13.2 C11.6,-13.2 0,-5 0,4.2"/>
<path class="Note" transform="matrix(0.992,0,0,0.992,1879.96,708.598)" d="M0,4.2 C0,8.5 3.1,13.3 11.2,13.3 C21.6,13.3 32.5,4.8 32.5,-4 C32.5,-9.9 27.5,-13.2 21.3,-13.2 C11.6,-13.2 0,-5 0,4.2"/>
<path class="Clef" transform="matrix(0.992,0,0,0.992,232.438,708.598)" d="M12.3,51.3 C12.3,57.9 17.3,66.6 30.8,66.6 C35.5,66.6 39.6,65.4 43.2,63.2 C48.6,59.4 50,52.8 50,46.5 C50,42.6 49.4,38.1 48.4,32.4 C48.1,30.4 47.5,27.4 46.9,23.5 C56.7,20.3 64,10.1 64,-0.2 C64,-15.3 53.3,-25.5 38.7,-25.5 C37.7,-31.5 36.7,-37.4 35.9,-43 C46.4,-54.1 53.7,-66.6 53.7,-82.5 C53.7,-91.6 50.9,-99 49.3,-102.6 C46.9,-107.7 44,-111.2 42.2,-111.2 C41.5,-111.2 38.4,-110 35.1,-106.1 C28.7,-98.5 26.9,-85.7 26.9,-77.3 C26.9,-71.9 27.4,-67 29.1,-55.8 C29,-55.7 23.8,-50.4 21.7,-48.7 C12.6,-40.3 0,-28.1 0,-8.1 C0,10.6 16.3,25.3 34.9,25.3 C37.8,25.3 40.5,25 42.8,24.6 C44.7,34.2 45.9,41.2 45.9,46.5 C45.9,56.9 40.5,62.4 30.4,62.4 C28,62.4 25.9,61.9 25.7,61.9 C25.6,61.8 25.4,61.7 25.4,61.6 C25.4,61.4 25.6,61.3 25.9,61.3 C30.6,60.5 35.3,56.5 35.3,50.1 C35.3,44.7 31.2,39 23.7,39 C16.7,39 12.3,44.7 12.3,51.3 M33.2,-82.2 C34.1,-86.2 38.7,-96.7 43.9,-96.7 C45.4,-96.7 47.8,-91.9 47.8,-84.9 C47.8,-74.5 40.1,-66.7 33.2,-59.9 C32.6,-63.9 32.1,-67.8 32.1,-72 C32.1,-75.7 32.4,-79.1 33.2,-82.2 M42,20.6 C40,21 38.1,21.2 36.2,21.2 C21.9,21.2 9.7,11.2 9.7,-3.9 C9.7,-16.1 18.3,-27 27.1,-34.6 C28.8,-36.1 30.4,-37.5 31.9,-39 C32.8,-33.6 33.5,-28.9 34.2,-24.8 C25.1,-22.1 18.9,-12.5 18.9,-3.1 C18.9,3.9 24.4,13.5 32.4,13.5 C33.2,13.5 34.1,13.1 34.1,12.2 C34.1,11.3 33.1,10.8 31.9,10 C28,7.6 25.8,5 25.8,0.1 C25.8,-6 30.4,-10.9 36.2,-12.3 L42,20.6 M56.2,2.1 C56.2,9.2 53.3,16.5 46.2,19.4 C44.1,7.4 41.4,-8.5 40.7,-12.9 C49.7,-12.9 56.2,-6.8 56.2,2.1"/>
<path class="Clef" transform="matrix(0.992,0,0,0.992,232.438,1179.8)" d="M12.3,51.3 C12.3,57.9 17.3,66.6 30.8,66.6 C35.5,66.6 39.6,65.4 43.2,63.2 C48.6,59.4 50,52.8 50,46.5 C50,42.6 49.4,38.1 48.4,32.4 C48.1,30.4 47.5,27.4 46.9,23.5 C56.7,20.3 64,10.1 64,-0.2 C64,-15.3 53.3,-25.5 38.7,-25.5 C37.7,-31.5 36.7,-37.4 35.9,-43 C46.4,-54.1 53.7,-66.6 53.7,-82.5 C53.7,-91.6 50.9,-99 49.3,-102.6 C46.9,-107.7 44,-111.2 42.2,-111.2 C41.5,-111.2 38.4,-110 35.1,-106.1 C28.7,-98.5 26.9,-85.7 26.9,-77.3 C26.9,-71.9 27.4,-67 29.1,-55.8 C29,-55.7 23.8,-50.4 21.7,-48.7 C12.6,-40.3 0,-28.1 0,-8.1 C0,10.6 16.3,25.3 34.9,25.3 C37.8,25.3 40.5,25 42.8,24.6 C44.7,34.2 45.9,41.2 45.9,46.5 C45.9,56.9 40.5,62.4 30.4,62.4 C28,62.4 25.9,61.9 25.7,61.9 C25.6,61.8 25.4,61.7 25.4,61.6 C25.4,61.4 25.6,61.3 25.9,61.3 C30.6,60.5 35.3,56.5 35.3,50.1 C35.3,44.7 31.2,39 23.7,39 C16.7,39 12.3,44.7 12.3,51.3 M33.2,-82.2 C34.1,-86.2 38.7,-96.7 43.9,-96.7 C45.4,-96.7 47.8,-91.9 47.8,-84.9 C47.8,-74.5 40.1,-66.7 33.2,-59.9 C32.6,-63.9 32.1,-67.8 32.1,-72 C32.1,-75.7 32.4,-79.1 33.2,-82.2 M42,20.6 C40,21 38.1,21.2 36.2,21.2 C21.9,21.2 9.7,11.2 9.7,-3.9 C9.7,-16.1 18.3,-27 27.1,-34.6 C28.8,-36.1 30.4,-37.5 31.9,-39 C32.8,-33.6 33.5,-28.9 34.2,-24.8 C25.1,-22.1 18.9,-12.5 18.9,-3.1 C18.9,3.9 24.4,13.5 32.4,13.5 C33.2,13.5 34.1,13.1 34.1,12.2 C34.1,11.3 33.1,10.8 31.9,10 C28,7.6 25.8,5 25.8,0.1 C25.8,-6 30.4,-10.9 36.2,-12.3 L42,20.6 M56.2,2.1 C56.2,9.2 53.3,16.5 46.2,19.4 C44.1,7.4 41.4,-8.5 40.7,-12.9 C49.7,-12.9 56.2,-6.8 56.2,2.1"/>
<path class="KeySig" transform="matrix(0.992,0,0,0.992,320.711,1155)" d="M12,-15.5 C7,-15.5 4.1,-12.4 3.6,-11.8 L4,-43.9 C4,-44.7 3.4,-45.3 2.6,-45.3 L1.4,-45.3 C0.6,-45.3 0,-44.7 0,-43.9 L0.5,16.2 C0.5,17 1.1,17.6 1.9,17.6 C2.1,17.6 2.5,17.5 2.7,17.4 C11.3,13.1 20.3,4.9 20.3,-5.4 C20.3,-10.6 17.9,-15.5 12,-15.5 M3.3,12.7 L3.6,-6.8 C3.8,-7.7 5.3,-10.6 9.3,-10.6 C12.9,-10.6 13.2,-7.2 13.2,-5.1 C13.2,3.8 9.9,7.5 3.3,12.7"/>
<path class="KeySig" transform="matrix(0.992,0,0,0.992,348.285,1117.8)" d="M12,-15.5 C7,-15.5 4.1,-12.4 3.6,-11.8 L4,-43.9 C4,-44.7 3.4,-45.3 2.6,-45.3 L1.4,-45.3 C0.6,-45.3 0,-44.7 0,-43.9 L0.5,16.2 C0.5,17 1.1,17.6 1.9,17.6 C2.1,17.6 2.5,17.5 2.7,17.4 C11.3,13.1 20.3,4.9 20.3,-5.4 C20.3,-10.6 17.9,-15.5 12,-15.5 M3.3,12.7 L3.6,-6.8 C3.8,-7.7 5.3,-10.6 9.3,-10.6 C12.9,-10.6 13.2,-7.2 13.2,-5.1 C13.2,3.8 9.9,7.5 3.3,12.7"/>
<path class="KeySig" transform="matrix(0.992,0,0,0.992,375.86,1167.4)" d="M12,-15.5 C7,-15.5 4.1,-12.4 3.6,-11.8 L4,-43.9 C4,-44.7 3.4,-45.3 2.6,-45.3 L1.4,-45.3 C0.6,-45.3 0,-44.7 0,-43.9 L0.5,16.2 C0.5,17 1.1,17.6 1.9,17.6 C2.1,17.6 2.5,17.5 2.7,17.4 C11.3,13.1 20.3,4.9 20.3,-5.4 C20.3,-10.6 17.9,-15.5 12,-15.5 M3.3,12.7 L3.6,-6.8 C3.8,-7.7 5.3,-10.6 9.3,-10.6 C12.9,-10.6 13.2,-7.2 13.2,-5.1 C13.2,3.8 9.9,7.5 3.3,12.7"/>
<path class="KeySig" transform="matrix(0.992,0,0,0.992,403.419,1130.2)" d="M12,-15.5 C7,-15.5 4.1,-12.4 3.6,-11.8 L4,-43.9 C4,-44.7 3.4,-45.3 2.6,-45.3 L1.4,-45.3 C0.6,-45.3 0,-44.7 0,-43.9 L0.5,16.2 C0.5,17 1.1,17.6 1.9,17.6 C2.1,17.6 2.5,17.5 2.7,17.4 C11.3,13.1 20.3,4.9 20.3,-5.4 C20.3,-10.6 17.9,-15.5 12,-15.5 M3.3,12.7 L3.6,-6.8 C3.8,-7.7 5.3,-10.6 9.3,-10.6 C12.9,-10.6 13.2,-7.2 13.2,-5.1 C13.2,3.8 9.9,7.5 3.3,12.7"/>
<path class="KeySig" transform="matrix(0.992,0,0,0.992,320.711,683.798)" d="M12,-15.5 C7,-15.5 4.1,-12.4 3.6,-11.8 L4,-43.9 C4,-44.7 3.4,-45.3 2.6,-45.3 L1.4,-45.3 C0.6,-45.3 0,-44.7 0,-43.9 L0.5,16.2 C0.5,17 1.1,17.6 1.9,17.6 C2.1,17.6 2.5,17.5 2.7,17.4 C11.3,13.1 20.3,4.9 20.3,-5.4 C20.3,-10.6 17.9,-15.5 12,-15.5 M3.3,12.7 L3.6,-6.8 C3.8,-7.7 5.3,-10.6 9.3,-10.6 C12.9,-10.6 13.2,-7.2 13.2,-5.1 C13.2,3.8 9.9,7.5 3.3,12.7"/>
<path class="KeySig" transform="matrix(0.992,0,0,0.992,348.285,646.598)" d="M12,-15.5 C7,-15.5 4.1,-12.4 3.6,-11.8 L4,-43.9 C4,-44.7 3.4,-45.3 2.6,-45.3 L1.4,-45.3 C0.6,-45.3 0,-44.7 0,-43.9 L0.5,16.2 C0.5,17 1.1,17.6 1.9,17.6 C2.1,17.6 2.5,17.5 2.7,17.4 C11.3,13.1 20.3,4.9 20.3,-5.4 C20.3,-10.6 17.9,-15.5 12,-15.5 M3.3,12.7 L3.6,-6.8 C3.8,-7.7 5.3,-10.6 9.3,-10.6 C12.9,-10.6 13.2,-7.2 13.2,-5.1 C13.2,3.8 9.9,7.5 3.3,12.7"/>
<path class="KeySig" transform="matrix(0.992,0,0,0.992,375.86,696.198)" d="M12,-15.5 C7,-15.5 4.1,-12.4 3.6,-11.8 L4,-43.9 C4,-44.7 3.4,-45.3 2.6,-45.3 L1.4,-45.3 C0.6,-45.3 0,-44.7 0,-43.9 L0.5,16.2 C0.5,17 1.1,17.6 1.9,17.6 C2.1,17.6 2.5,17.5 2.7,17.4 C11.3,13.1 20.3,4.9 20.3,-5.4 C20.3,-10.6 17.9,-15.5 12,-15.5 M3.3,12.7 L3.6,-6.8 C3.8,-7.7 5.3,-10.6 9.3,-10.6 C12.9,-10.6 13.2,-7.2 13.2,-5.1 C13.2,3.8 9.9,7.5 3.3,12.7"/>
<path class="KeySig" transform="matrix(0.992,0,0,0.992,403.419,658.998)" d="M12,-15.5 C7,-15.5 4.1,-12.4 3.6,-11.8 L4,-43.9 C4,-44.7 3.4,-45.3 2.6,-45.3 L1.4,-45.3 C0.6,-45.3 0,-44.7 0,-43.9 L0.5,16.2 C0.5,17 1.1,17.6 1.9,17.6 C2.1,17.6 2.5,17.5 2.7,17.4 C11.3,13.1 20.3,4.9 20.3,-5.4 C20.3,-10.6 17.9,-15.5 12,-15.5 M3.3,12.7 L3.6,-6.8 C3.8,-7.7 5.3,-10.6 9.3,-10.6 C12.9,-10.6 13.2,-7.2 13.2,-5.1 C13.2,3.8 9.9,7.5 3.3,12.7"/>
<path class="TimeSig" transform="matrix(0.992,0,0,0.992,446.989,658.998)" d="M20.8,12.7 L20.8,20.1 L12.5,20.1 C11.8,20.1 11.1,20.7 11.1,21.5 L11.1,23.4 C11.1,24.2 11.8,24.8 12.5,24.8 L42.8,24.8 C43.6,24.8 44.2,24.2 44.2,23.4 L44.2,21.5 C44.2,20.7 43.6,20.1 42.8,20.1 L33.9,20.1 L33.9,12.7 L42.8,12.7 C43.6,12.7 44.2,12 44.2,11.2 L44.2,9.3 C44.2,8.6 43.6,7.9 42.8,7.9 L33.9,7.9 L33.9,-8 C33.9,-8.6 33.6,-9.1 33.1,-9.3 L31.9,-9.9 C31.7,-10 31.4,-10.1 31.2,-10.1 C30.9,-10 30.5,-9.9 30.3,-9.7 L21.2,-1.4 C20.9,-1.1 20.8,-0.7 20.8,-0.3 L20.8,7.9 L9.3,7.9 C9.3,7.9 20.4,-4.1 32.2,-19.9 C32.6,-20.4 32.7,-20.9 32.7,-21.3 C32.7,-21.8 32.5,-22.2 32.4,-22.3 L30.2,-24.5 C30,-24.7 29.6,-24.9 29.2,-24.9 C28.6,-24.9 15.1,-24.9 14.4,-24.9 C13.6,-24.9 13.1,-24.3 13,-23.7 C13,-23.7 12.5,-16.3 9.9,-8.2 C7.3,-0.1 4.3,4.9 1.7,8.6 C1.7,8.6 1.4,9.1 1.4,9.7 C1.4,9.9 1.4,10.1 1.5,10.3 C1.9,11 2.5,12.1 2.5,12.1 C2.5,12.1 2.7,12.7 3.6,12.7 L20.8,12.7 "/>
<path class="TimeSig" transform="matrix(0.992,0,0,0.992,446.989,708.598)" d="M20.8,12.7 L20.8,20.1 L12.5,20.1 C11.8,20.1 11.1,20.7 11.1,21.5 L11.1,23.4 C11.1,24.2 11.8,24.8 12.5,24.8 L42.8,24.8 C43.6,24.8 44.2,24.2 44.2,23.4 L44.2,21.5 C44.2,20.7 43.6,20.1 42.8,20.1 L33.9,20.1 L33.9,12.7 L42.8,12.7 C43.6,12.7 44.2,12 44.2,11.2 L44.2,9.3 C44.2,8.6 43.6,7.9 42.8,7.9 L33.9,7.9 L33.9,-8 C33.9,-8.6 33.6,-9.1 33.1,-9.3 L31.9,-9.9 C31.7,-10 31.4,-10.1 31.2,-10.1 C30.9,-10 30.5,-9.9 30.3,-9.7 L21.2,-1.4 C20.9,-1.1 20.8,-0.7 20.8,-0.3 L20.8,7.9 L9.3,7.9 C9.3,7.9 20.4,-4.1 32.2,-19.9 C32.6,-20.4 32.7,-20.9 32.7,-21.3 C32.7,-21.8 32.5,-22.2 32.4,-22.3 L30.2,-24.5 C30,-24.7 29.6,-24.9 29.2,-24.9 C28.6,-24.9 15.1,-24.9 14.4,-24.9 C13.6,-24.9 13.1,-24.3 13,-23.7 C13,-23.7 12.5,-16.3 9.9,-8.2 C7.3,-0.1 4.3,4.9 1.7,8.6 C1.7,8.6 1.4,9.1 1.4,9.7 C1.4,9.9 1.4,10.1 1.5,10.3 C1.9,11 2.5,12.1 2.5,12.1 C2.5,12.1 2.7,12.7 3.6,12.7 L20.8,12.7 "/>
<path class="Rest" transform="matrix(0.992,0,0,0.992,890.098,683.798)" d="M23,16.6 C22.9,16.5 22.7,16.3 22.4,15.9 L10.9,1.7 C10.8,1.6 10.7,1.3 10.7,1.1 C10.7,0.8 10.8,0.4 10.9,0.2 L21.1,-15.2 C21.2,-15.4 21.3,-15.7 21.3,-15.9 L21.3,-16.8 C21.3,-17.1 21.2,-17.4 21,-17.6 L4.8,-39.5 C4.8,-39.5 4.4,-40.1 3.8,-40.1 C3.5,-40.1 3.3,-40.1 3,-39.8 C2.6,-39.5 2.5,-39.1 2.5,-38.8 C2.5,-38.2 2.8,-37.7 2.8,-37.7 L10.4,-27.3 C10.6,-27 10.7,-26.6 10.7,-26.1 C10.7,-25.7 10.6,-25.2 10.4,-24.9 L0.3,-9.5 C0.2,-9.3 0.1,-8.9 0.1,-8.7 L0.1,-7.8 C0.1,-7.5 0.2,-7.2 0.4,-7 L11.6,6.9 C11.2,6.8 10.3,6.6 9.1,6.6 C4,6.6 0,10.8 0,15.9 C0,17.3 0.3,18.7 1.1,19.8 C3.2,23 10.7,32.5 10.7,32.5 C10.7,32.5 11.2,33.1 11.9,33.1 C12.1,33.1 12.3,33.1 12.5,32.9 C13,32.5 13.2,32.1 13.2,31.7 C13.2,31.3 13,31 12.9,30.8 C12.6,30.3 9.4,24.5 9.4,24.5 C9.4,24.5 8.7,23.1 8.7,21.3 C8.7,18.1 11.1,15.5 14.3,15.5 C15.6,15.5 16.7,15.9 17.5,16.4 L21.4,18.9 C21.4,18.9 21.8,19.1 22.2,19.1 C22.6,19.1 22.9,19 23.2,18.6 C23.4,18.3 23.5,18 23.5,17.7 C23.5,17.4 23.4,17.2 23.2,16.9 L23,16.6 "/>
<path class="Rest" transform="matrix(0.992,0,0,0.992,2173.68,1155)" d="M23,16.6 C22.9,16.5 22.7,16.3 22.4,15.9 L10.9,1.7 C10.8,1.6 10.7,1.3 10.7,1.1 C10.7,0.8 10.8,0.4 10.9,0.2 L21.1,-15.2 C21.2,-15.4 21.3,-15.7 21.3,-15.9 L21.3,-16.8 C21.3,-17.1 21.2,-17.4 21,-17.6 L4.8,-39.5 C4.8,-39.5 4.4,-40.1 3.8,-40.1 C3.5,-40.1 3.3,-40.1 3,-39.8 C2.6,-39.5 2.5,-39.1 2.5,-38.8 C2.5,-38.2 2.8,-37.7 2.8,-37.7 L10.4,-27.3 C10.6,-27 10.7,-26.6 10.7,-26.1 C10.7,-25.7 10.6,-25.2 10.4,-24.9 L0.3,-9.5 C0.2,-9.3 0.1,-8.9 0.1,-8.7 L0.1,-7.8 C0.1,-7.5 0.2,-7.2 0.4,-7 L11.6,6.9 C11.2,6.8 10.3,6.6 9.1,6.6 C4,6.6 0,10.8 0,15.9 C0,17.3 0.3,18.7 1.1,19.8 C3.2,23 10.7,32.5 10.7,32.5 C10.7,32.5 11.2,33.1 11.9,33.1 C12.1,33.1 12.3,33.1 12.5,32.9 C13,32.5 13.2,32.1 13.2,31.7 C13.2,31.3 13,31 12.9,30.8 C12.6,30.3 9.4,24.5 9.4,24.5 C9.4,24.5 8.7,23.1 8.7,21.3 C8.7,18.1 11.1,15.5 14.3,15.5 C15.6,15.5 16.7,15.9 17.5,16.4 L21.4,18.9 C21.4,18.9 21.8,19.1 22.2,19.1 C22.6,19.1 22.9,19 23.2,18.6 C23.4,18.3 23.5,18 23.5,17.7 C23.5,17.4 23.4,17.2 23.2,16.9 L23,16.6 "/>
<path class="Rest" transform="matrix(0.992,0,0,0.992,540.423,683.798)" d="M23,16.6 C22.9,16.5 22.7,16.3 22.4,15.9 L10.9,1.7 C10.8,1.6 10.7,1.3 10.7,1.1 C10.7,0.8 10.8,0.4 10.9,0.2 L21.1,-15.2 C21.2,-15.4 21.3,-15.7 21.3,-15.9 L21.3,-16.8 C21.3,-17.1 21.2,-17.4 21,-17.6 L4.8,-39.5 C4.8,-39.5 4.4,-40.1 3.8,-40.1 C3.5,-40.1 3.3,-40.1 3,-39.8 C2.6,-39.5 2.5,-39.1 2.5,-38.8 C2.5,-38.2 2.8,-37.7 2.8,-37.7 L10.4,-27.3 C10.6,-27 10.7,-26.6 10.7,-26.1 C10.7,-25.7 10.6,-25.2 10.4,-24.9 L0.3,-9.5 C0.2,-9.3 0.1,-8.9 0.1,-8.7 L0.1,-7.8 C0.1,-7.5 0.2,-7.2 0.4,-7 L11.6,6.9 C11.2,6.8 10.3,6.6 9.1,6.6 C4,6.6 0,10.8 0,15.9 C0,17.3 0.3,18.7 1.1,19.8 C3.2,23 10.7,32.5 10.7,32.5 C10.7,32.5 11.2,33.1 11.9,33.1 C12.1,33.1 12.3,33.1 12.5,32.9 C13,32.5 13.2,32.1 13.2,31.7 C13.2,31.3 13,31 12.9,30.8 C12.6,30.3 9.4,24.5 9.4,24.5 C9.4,24.5 8.7,23.1 8.7,21.3 C8.7,18.1 11.1,15.5 14.3,15.5 C15.6,15.5 16.7,15.9 17.5,16.4 L21.4,18.9 C21.4,18.9 21.8,19.1 22.2,19.1 C22.6,19.1 22.9,19 23.2,18.6 C23.4,18.3 23.5,18 23.5,17.7 C23.5,17.4 23.4,17.2 23.2,16.9 L23,16.6 "/>
<path class="Rest" transform="matrix(0.992,0,0,0.992,1702.57,683.798)" d="M23,16.6 C22.9,16.5 22.7,16.3 22.4,15.9 L10.9,1.7 C10.8,1.6 10.7,1.3 10.7,1.1 C10.7,0.8 10.8,0.4 10.9,0.2 L21.1,-15.2 C21.2,-15.4 21.3,-15.7 21.3,-15.9 L21.3,-16.8 C21.3,-17.1 21.2,-17.4 21,-17.6 L4.8,-39.5 C4.8,-39.5 4.4,-40.1 3.8,-40.1 C3.5,-40.1 3.3,-40.1 3,-39.8 C2.6,-39.5 2.5,-39.1 2.5,-38.8 C2.5,-38.2 2.8,-37.7 2.8,-37.7 L10.4,-27.3 C10.6,-27 10.7,-26.6 10.7,-26.1 C10.7,-25.7 10.6,-25.2 10.4,-24.9 L0.3,-9.5 C0.2,-9.3 0.1,-8.9 0.1,-8.7 L0.1,-7.8 C0.1,-7.5 0.2,-7.2 0.4,-7 L11.6,6.9 C11.2,6.8 10.3,6.6 9.1,6.6 C4,6.6 0,10.8 0,15.9 C0,17.3 0.3,18.7 1.1,19.8 C3.2,23 10.7,32.5 10.7,32.5 C10.7,32.5 11.2,33.1 11.9,33.1 C12.1,33.1 12.3,33.1 12.5,32.9 C13,32.5 13.2,32.1 13.2,31.7 C13.2,31.3 13,31 12.9,30.8 C12.6,30.3 9.4,24.5 9.4,24.5 C9.4,24.5 8.7,23.1 8.7,21.3 C8.7,18.1 11.1,15.5 14.3,15.5 C15.6,15.5 16.7,15.9 17.5,16.4 L21.4,18.9 C21.4,18.9 21.8,19.1 22.2,19.1 C22.6,19.1 22.9,19 23.2,18.6 C23.4,18.3 23.5,18 23.5,17.7 C23.5,17.4 23.4,17.2 23.2,16.9 L23,16.6 "/>
<path class="Rest" transform="matrix(0.992,0,0,0.992,2247.33,683.798)" d="M23,16.6 C22.9,16.5 22.7,16.3 22.4,15.9 L10.9,1.7 C10.8,1.6 10.7,1.3 10.7,1.1 C10.7,0.8 10.8,0.4 10.9,0.2 L21.1,-15.2 C21.2,-15.4 21.3,-15.7 21.3,-15.9 L21.3,-16.8 C21.3,-17.1 21.2,-17.4 21,-17.6 L4.8,-39.5 C4.8,-39.5 4.4,-40.1 3.8,-40.1 C3.5,-40.1 3.3,-40.1 3,-39.8 C2.6,-39.5 2.5,-39.1 2.5,-38.8 C2.5,-38.2 2.8,-37.7 2.8,-37.7 L10.4,-27.3 C10.6,-27 10.7,-26.6 10.7,-26.1 C10.7,-25.7 10.6,-25.2 10.4,-24.9 L0.3,-9.5 C0.2,-9.3 0.1,-8.9 0.1,-8.7 L0.1,-7.8 C0.1,-7.5 0.2,-7.2 0.4,-7 L11.6,6.9 C11.2,6.8 10.3,6.6 9.1,6.6 C4,6.6 0,10.8 0,15.9 C0,17.3 0.3,18.7 1.1,19.8 C3.2,23 10.7,32.5 10.7,32.5 C10.7,32.5 11.2,33.1 11.9,33.1 C12.1,33.1 12.3,33.1 12.5,32.9 C13,32.5 13.2,32.1 13.2,31.7 C13.2,31.3 13,31 12.9,30.8 C12.6,30.3 9.4,24.5 9.4,24.5 C9.4,24.5 8.7,23.1 8.7,21.3 C8.7,18.1 11.1,15.5 14.3,15.5 C15.6,15.5 16.7,15.9 17.5,16.4 L21.4,18.9 C21.4,18.9 21.8,19.1 22.2,19.1 C22.6,19.1 22.9,19 23.2,18.6 C23.4,18.3 23.5,18 23.5,17.7 C23.5,17.4 23.4,17.2 23.2,16.9 L23,16.6 "/>
<path class="Rest" transform="matrix(0.992,0,0,0.992,2650.76,1155)" d="M23,16.6 C22.9,16.5 22.7,16.3 22.4,15.9 L10.9,1.7 C10.8,1.6 10.7,1.3 10.7,1.1 C10.7,0.8 10.8,0.4 10.9,0.2 L21.1,-15.2 C21.2,-15.4 21.3,-15.7 21.3,-15.9 L21.3,-16.8 C21.3,-17.1 21.2,-17.4 21,-17.6 L4.8,-39.5 C4.8,-39.5 4.4,-40.1 3.8,-40.1 C3.5,-40.1 3.3,-40.1 3,-39.8 C2.6,-39.5 2.5,-39.1 2.5,-38.8 C2.5,-38.2 2.8,-37.7 2.8,-37.7 L10.4,-27.3 C10.6,-27 10.7,-26.6 10.7,-26.1 C10.7,-25.7 10.6,-25.2 10.4,-24.9 L0.3,-9.5 C0.2,-9.3 0.1,-8.9 0.1,-8.7 L0.1,-7.8 C0.1,-7.5 0.2,-7.2 0.4,-7 L11.6,6.9 C11.2,6.8 10.3,6.6 9.1,6.6 C4,6.6 0,10.8 0,15.9 C0,17.3 0.3,18.7 1.1,19.8 C3.2,23 10.7,32.5 10.7,32.5 C10.7,32.5 11.2,33.1 11.9,33.1 C12.1,33.1 12.3,33.1 12.5,32.9 C13,32.5 13.2,32.1 13.2,31.7 C13.2,31.3 13,31 12.9,30.8 C12.6,30.3 9.4,24.5 9.4,24.5 C9.4,24.5 8.7,23.1 8.7,21.3 C8.7,18.1 11.1,15.5 14.3,15.5 C15.6,15.5 16.7,15.9 17.5,16.4 L21.4,18.9 C21.4,18.9 21.8,19.1 22.2,19.1 C22.6,19.1 22.9,19 23.2,18.6 C23.4,18.3 23.5,18 23.5,17.7 C23.5,17.4 23.4,17.2 23.2,16.9 L23,16.6 "/>
<path class="Rest" transform="matrix(0.992,0,0,0.992,678.403,1155)" d="M23,16.6 C22.9,16.5 22.7,16.3 22.4,15.9 L10.9,1.7 C10.8,1.6 10.7,1.3 10.7,1.1 C10.7,0.8 10.8,0.4 10.9,0.2 L21.1,-15.2 C21.2,-15.4 21.3,-15.7 21.3,-15.9 L21.3,-16.8 C21.3,-17.1 21.2,-17.4 21,-17.6 L4.8,-39.5 C4.8,-39.5 4.4,-40.1 3.8,-40.1 C3.5,-40.1 3.3,-40.1 3,-39.8 C2.6,-39.5 2.5,-39.1 2.5,-38.8 C2.5,-38.2 2.8,-37.7 2.8,-37.7 L10.4,-27.3 C10.6,-27 10.7,-26.6 10.7,-26.1 C10.7,-25.7 10.6,-25.2 10.4,-24.9 L0.3,-9.5 C0.2,-9.3 0.1,-8.9 0.1,-8.7 L0.1,-7.8 C0.1,-7.5 0.2,-7.2 0.4,-7 L11.6,6.9 C11.2,6.8 10.3,6.6 9.1,6.6 C4,6.6 0,10.8 0,15.9 C0,17.3 0.3,18.7 1.1,19.8 C3.2,23 10.7,32.5 10.7,32.5 C10.7,32.5 11.2,33.1 11.9,33.1 C12.1,33.1 12.3,33.1 12.5,32.9 C13,32.5 13.2,32.1 13.2,31.7 C13.2,31.3 13,31 12.9,30.8 C12.6,30.3 9.4,24.5 9.4,24.5 C9.4,24.5 8.7,23.1 8.7,21.3 C8.7,18.1 11.1,15.5 14.3,15.5 C15.6,15.5 16.7,15.9 17.5,16.4 L21.4,18.9 C21.4,18.9 21.8,19.1 22.2,19.1 C22.6,19.1 22.9,19 23.2,18.6 C23.4,18.3 23.5,18 23.5,17.7 C23.5,17.4 23.4,17.2 23.2,16.9 L23,16.6 "/>
<path class="Rest" transform="matrix(0.992,0,0,0.992,1557.34,1155)" d="M23,16.6 C22.9,16.5 22.7,16.3 22.4,15.9 L10.9,1.7 C10.8,1.6 10.7,1.3 10.7,1.1 C10.7,0.8 10.8,0.4 10.9,0.2 L21.1,-15.2 C21.2,-15.4 21.3,-15.7 21.3,-15.9 L21.3,-16.8 C21.3,-17.1 21.2,-17.4 21,-17.6 L4.8,-39.5 C4.8,-39.5 4.4,-40.1 3.8,-40.1 C3.5,-40.1 3.3,-40.1 3,-39.8 C2.6,-39.5 2.5,-39.1 2.5,-38.8 C2.5,-38.2 2.8,-37.7 2.8,-37.7 L10.4,-27.3 C10.6,-27 10.7,-26.6 10.7,-26.1 C10.7,-25.7 10.6,-25.2 10.4,-24.9 L0.3,-9.5 C0.2,-9.3 0.1,-8.9 0.1,-8.7 L0.1,-7.8 C0.1,-7.5 0.2,-7.2 0.4,-7 L11.6,6.9 C11.2,6.8 10.3,6.6 9.1,6.6 C4,6.6 0,10.8 0,15.9 C0,17.3 0.3,18.7 1.1,19.8 C3.2,23 10.7,32.5 10.7,32.5 C10.7,32.5 11.2,33.1 11.9,33.1 C12.1,33.1 12.3,33.1 12.5,32.9 C13,32.5 13.2,32.1 13.2,31.7 C13.2,31.3 13,31 12.9,30.8 C12.6,30.3 9.4,24.5 9.4,24.5 C9.4,24.5 8.7,23.1 8.7,21.3 C8.7,18.1 11.1,15.5 14.3,15.5 C15.6,15.5 16.7,15.9 17.5,16.4 L21.4,18.9 C21.4,18.9 21.8,19.1 22.2,19.1 C22.6,19.1 22.9,19 23.2,18.6 C23.4,18.3 23.5,18 23.5,17.7 C23.5,17.4 23.4,17.2 23.2,16.9 L23,16.6 "/>
<path class="Rest" transform="matrix(0.992,0,0,0.992,1296.33,683.798)" d="M23,16.6 C22.9,16.5 22.7,16.3 22.4,15.9 L10.9,1.7 C10.8,1.6 10.7,1.3 10.7,1.1 C10.7,0.8 10.8,0.4 10.9,0.2 L21.1,-15.2 C21.2,-15.4 21.3,-15.7 21.3,-15.9 L21.3,-16.8 C21.3,-17.1 21.2,-17.4 21,-17.6 L4.8,-39.5 C4.8,-39.5 4.4,-40.1 3.8,-40.1 C3.5,-40.1 3.3,-40.1 3,-39.8 C2.6,-39.5 2.5,-39.1 2.5,-38.8 C2.5,-38.2 2.8,-37.7 2.8,-37.7 L10.4,-27.3 C10.6,-27 10.7,-26.6 10.7,-26.1 C10.7,-25.7 10.6,-25.2 10.4,-24.9 L0.3,-9.5 C0.2,-9.3 0.1,-8.9 0.1,-8.7 L0.1,-7.8 C0.1,-7.5 0.2,-7.2 0.4,-7 L11.6,6.9 C11.2,6.8 10.3,6.6 9.1,6.6 C4,6.6 0,10.8 0,15.9 C0,17.3 0.3,18.7 1.1,19.8 C3.2,23 10.7,32.5 10.7,32.5 C10.7,32.5 11.2,33.1 11.9,33.1 C12.1,33.1 12.3,33.1 12.5,32.9 C13,32.5 13.2,32.1 13.2,31.7 C13.2,31.3 13,31 12.9,30.8 C12.6,30.3 9.4,24.5 9.4,24.5 C9.4,24.5 8.7,23.1 8.7,21.3 C8.7,18.1 11.1,15.5 14.3,15.5 C15.6,15.5 16.7,15.9 17.5,16.4 L21.4,18.9 C21.4,18.9 21.8,19.1 22.2,19.1 C22.6,19.1 22.9,19 23.2,18.6 C23.4,18.3 23.5,18 23.5,17.7 C23.5,17.4 23.4,17.2 23.2,16.9 L23,16.6 "/>
<path class="Rest" transform="matrix(0.992,0,0,0.992,2683.5,683.798)" d="M23,16.6 C22.9,16.5 22.7,16.3 22.4,15.9 L10.9,1.7 C10.8,1.6 10.7,1.3 10.7,1.1 C10.7,0.8 10.8,0.4 10.9,0.2 L21.1,-15.2 C21.2,-15.4 21.3,-15.7 21.3,-15.9 L21.3,-16.8 C21.3,-17.1 21.2,-17.4 21,-17.6 L4.8,-39.5 C4.8,-39.5 4.4,-40.1 3.8,-40.1 C3.5,-40.1 3.3,-40.1 3,-39.8 C2.6,-39.5 2.5,-39.1 2.5,-38.8 C2.5,-38.2 2.8,-37.7 2.8,-37.7 L10.4,-27.3 C10.6,-27 10.7,-26.6 10.7,-26.1 C10.7,-25.7 10.6,-25.2 10.4,-24.9 L0.3,-9.5 C0.2,-9.3 0.1,-8.9 0.1,-8.7 L0.1,-7.8 C0.1,-7.5 0.2,-7.2 0.4,-7 L11.6,6.9 C11.2,6.8 10.3,6.6 9.1,6.6 C4,6.6 0,10.8 0,15.9 C0,17.3 0.3,18.7 1.1,19.8 C3.2,23 10.7,32.5 10.7,32.5 C10.7,32.5 11.2,33.1 11.9,33.1 C12.1,33.1 12.3,33.1 12.5,32.9 C13,32.5 13.2,32.1 13.2,31.7 C13.2,31.3 13,31 12.9,30.8 C12.6,30.3 9.4,24.5 9.4,24.5 C9.4,24.5 8.7,23.1 8.7,21.3 C8.7,18.1 11.1,15.5 14.3,15.5 C15.6,15.5 16.7,15.9 17.5,16.4 L21.4,18.9 C21.4,18.9 21.8,19.1 22.2,19.1 C22.6,19.1 22.9,19 23.2,18.6 C23.4,18.3 23.5,18 23.5,17.7 C23.5,17.4 23.4,17.2 23.2,16.9 L23,16.6 "/>
<path class="Rest" transform="matrix(0.992,0,0,0.992,1117.87,1155)" d="M23,16.6 C22.9,16.5 22.7,16.3 22.4,15.9 L10.9,1.7 C10.8,1.6 10.7,1.3 10.7,1.1 C10.7,0.8 10.8,0.4 10.9,0.2 L21.1,-15.2 C21.2,-15.4 21.3,-15.7 21.3,-15.9 L21.3,-16.8 C21.3,-17.1 21.2,-17.4 21,-17.6 L4.8,-39.5 C4.8,-39.5 4.4,-40.1 3.8,-40.1 C3.5,-40.1 3.3,-40.1 3,-39.8 C2.6,-39.5 2.5,-39.1 2.5,-38.8 C2.5,-38.2 2.8,-37.7 2.8,-37.7 L10.4,-27.3 C10.6,-27 10.7,-26.6 10.7,-26.1 C10.7,-25.7 10.6,-25.2 10.4,-24.9 L0.3,-9.5 C0.2,-9.3 0.1,-8.9 0.1,-8.7 L0.1,-7.8 C0.1,-7.5 0.2,-7.2 0.4,-7 L11.6,6.9 C11.2,6.8 10.3,6.6 9.1,6.6 C4,6.6 0,10.8 0,15.9 C0,17.3 0.3,18.7 1.1,19.8 C3.2,23 10.7,32.5 10.7,32.5 C10.7,32.5 11.2,33.1 11.9,33.1 C12.1,33.1 12.3,33.1 12.5,32.9 C13,32.5 13.2,32.1 13.2,31.7 C13.2,31.3 13,31 12.9,30.8 C12.6,30.3 9.4,24.5 9.4,24.5 C9.4,24.5 8.7,23.1 8.7,21.3 C8.7,18.1 11.1,15.5 14.3,15.5 C15.6,15.5 16.7,15.9 17.5,16.4 L21.4,18.9 C21.4,18.9 21.8,19.1 22.2,19.1 C22.6,19.1 22.9,19 23.2,18.6 C23.4,18.3 23.5,18 23.5,17.7 C23.5,17.4 23.4,17.2 23.2,16.9 L23,16.6 "/>
<path class="Tuplet" d="M1624.29,1059.83 C1626.41,1059.16 1627.26,1058.8 1628.34,1058.08 C1630.46,1056.68 1631.76,1054.21 1631.76,1051.69 C1631.76,1047.41 1628.34,1044.53 1623.3,1044.53 C1618.4,1044.53 1614.26,1047.59 1614.26,1051.28 C1614.26,1053.13 1615.38,1054.39 1617.09,1054.39 C1618.58,1054.39 1619.66,1053.31 1619.66,1051.82 C1619.66,1051.06 1619.43,1050.52 1618.71,1049.8 C1618.26,1049.39 1618.08,1049.08 1618.08,1048.76 C1618.08,1047.68 1620.33,1046.56 1622.45,1046.56 C1625.46,1046.56 1627.26,1048.22 1627.26,1051.01 C1627.26,1055.02 1624.43,1058.8 1621.41,1058.8 C1621.28,1058.8 1620.87,1058.75 1620.38,1058.71 C1619.07,1058.62 1619.07,1058.62 1618.8,1058.62 C1617.81,1058.62 1617.27,1059.07 1617.27,1059.88 C1617.27,1060.6 1617.77,1061.05 1618.58,1061.05 C1618.8,1061.05 1619.12,1061 1619.48,1060.96 C1620.11,1060.82 1620.78,1060.78 1621.19,1060.78 C1623.3,1060.78 1624.74,1062.67 1624.74,1065.46 C1624.74,1070.32 1622.36,1075 1616.91,1075 C1614.39,1075 1612.23,1073.74 1612.23,1072.3 C1612.23,1071.8 1612.41,1071.62 1613.13,1071.31 C1614.44,1070.72 1614.98,1069.91 1614.98,1068.7 C1614.98,1067.12 1613.72,1065.91 1612.1,1065.91 C1610.16,1065.91 1608.9,1067.44 1608.9,1069.78 C1608.9,1074.14 1612.23,1076.89 1617.63,1076.89 C1624.43,1076.89 1629.6,1072.34 1629.6,1066.31 C1629.6,1062.8 1627.44,1060.82 1624.29,1059.83"/>
<polyline class="Tuplet" fill="none" stroke="#000000" stroke-width="2.48" stroke-linejoin="miter" stroke-miterlimit="2" points="1570.98,1079.31 1570.98,1060.71 1596.51,1060.71"/>
<polyline class="Tuplet" fill="none" stroke="#000000" stroke-width="2.48" stroke-linejoin="miter" stroke-miterlimit="2" points="1644.17,1060.71 1669.69,1060.71 1669.69,1079.31"/>
<path class="Tuplet" d="M1184.82,1072.15 C1186.94,1071.48 1187.79,1071.12 1188.87,1070.4 C1190.99,1069 1192.29,1066.53 1192.29,1064.01 C1192.29,1059.73 1188.87,1056.85 1183.83,1056.85 C1178.93,1056.85 1174.79,1059.91 1174.79,1063.6 C1174.79,1065.45 1175.91,1066.71 1177.62,1066.71 C1179.11,1066.71 1180.19,1065.63 1180.19,1064.14 C1180.19,1063.38 1179.96,1062.84 1179.24,1062.12 C1178.79,1061.71 1178.61,1061.4 1178.61,1061.08 C1178.61,1060 1180.86,1058.88 1182.98,1058.88 C1185.99,1058.88 1187.79,1060.54 1187.79,1063.33 C1187.79,1067.34 1184.96,1071.12 1181.94,1071.12 C1181.81,1071.12 1181.4,1071.07 1180.91,1071.03 C1179.6,1070.94 1179.6,1070.94 1179.33,1070.94 C1178.34,1070.94 1177.8,1071.39 1177.8,1072.2 C1177.8,1072.92 1178.3,1073.37 1179.11,1073.37 C1179.33,1073.37 1179.65,1073.32 1180.01,1073.28 C1180.64,1073.14 1181.31,1073.1 1181.72,1073.1 C1183.83,1073.1 1185.27,1074.99 1185.27,1077.78 C1185.27,1082.64 1182.89,1087.32 1177.44,1087.32 C1174.92,1087.32 1172.76,1086.06 1172.76,1084.62 C1172.76,1084.12 1172.94,1083.94 1173.66,1083.63 C1174.97,1083.04 1175.51,1082.23 1175.51,1081.02 C1175.51,1079.44 1174.25,1078.23 1172.63,1078.23 C1170.69,1078.23 1169.43,1079.76 1169.43,1082.1 C1169.43,1086.46 1172.76,1089.21 1178.16,1089.21 C1184.96,1089.21 1190.13,1084.66 1190.13,1078.63 C1190.13,1075.12 1187.97,1073.14 1184.82,1072.15"/>
<polyline class="Tuplet" fill="none" stroke="#000000" stroke-width="2.48" stroke-linejoin="miter" stroke-miterlimit="2" points="1131.51,1091.63 1131.51,1073.03 1157.04,1073.03"/>
<polyline class="Tuplet" fill="none" stroke="#000000" stroke-width="2.48" stroke-linejoin="miter" stroke-miterlimit="2" points="1204.7,1073.03 1230.23,1073.03 1230.23,1091.63"/>
<path class="Tuplet" d="M1057.57,1072.15 C1059.68,1071.48 1060.54,1071.12 1061.62,1070.4 C1063.73,1069 1065.04,1066.53 1065.04,1064.01 C1065.04,1059.73 1061.62,1056.85 1056.58,1056.85 C1051.67,1056.85 1047.53,1059.91 1047.53,1063.6 C1047.53,1065.45 1048.66,1066.71 1050.37,1066.71 C1051.85,1066.71 1052.93,1065.63 1052.93,1064.14 C1052.93,1063.38 1052.71,1062.84 1051.99,1062.12 C1051.54,1061.71 1051.36,1061.4 1051.36,1061.08 C1051.36,1060 1053.61,1058.88 1055.72,1058.88 C1058.74,1058.88 1060.54,1060.54 1060.54,1063.33 C1060.54,1067.34 1057.7,1071.12 1054.69,1071.12 C1054.55,1071.12 1054.15,1071.07 1053.65,1071.03 C1052.35,1070.94 1052.35,1070.94 1052.08,1070.94 C1051.09,1070.94 1050.55,1071.39 1050.55,1072.2 C1050.55,1072.92 1051.04,1073.37 1051.85,1073.37 C1052.08,1073.37 1052.39,1073.32 1052.75,1073.28 C1053.38,1073.14 1054.06,1073.1 1054.46,1073.1 C1056.58,1073.1 1058.02,1074.99 1058.02,1077.78 C1058.02,1082.64 1055.63,1087.32 1050.19,1087.32 C1047.67,1087.32 1045.51,1086.06 1045.51,1084.62 C1045.51,1084.12 1045.69,1083.94 1046.41,1083.63 C1047.71,1083.04 1048.25,1082.23 1048.25,1081.02 C1048.25,1079.44 1046.99,1078.23 1045.37,1078.23 C1043.44,1078.23 1042.18,1079.76 1042.18,1082.1 C1042.18,1086.46 1045.51,1089.21 1050.91,1089.21 C1057.7,1089.21 1062.88,1084.66 1062.88,1078.63 C1062.88,1075.12 1060.72,1073.14 1057.57,1072.15"/>
<polyline class="Tuplet" fill="none" stroke="#000000" stroke-width="2.48" stroke-linejoin="miter" stroke-miterlimit="2" points="1012.8,1091.63 1012.8,1073.03 1029.78,1073.03"/>
<polyline class="Tuplet" fill="none" stroke="#000000" stroke-width="2.48" stroke-linejoin="miter" stroke-miterlimit="2" points="1077.44,1073.03 1094.42,1073.03 1094.42,1091.63"/>
<path class="Tuplet" d="M1646.53,588.55 C1648.64,587.875 1649.5,587.515 1650.58,586.795 C1652.69,585.4 1654,582.925 1654,580.405 C1654,576.13 1650.58,573.25 1645.54,573.25 C1640.63,573.25 1636.49,576.31 1636.49,580 C1636.49,581.845 1637.62,583.105 1639.33,583.105 C1640.81,583.105 1641.89,582.025 1641.89,580.54 C1641.89,579.775 1641.67,579.235 1640.95,578.515 C1640.5,578.11 1640.32,577.795 1640.32,577.48 C1640.32,576.4 1642.57,575.275 1644.68,575.275 C1647.7,575.275 1649.5,576.94 1649.5,579.73 C1649.5,583.735 1646.66,587.515 1643.65,587.515 C1643.51,587.515 1643.11,587.47 1642.61,587.425 C1641.31,587.335 1641.31,587.335 1641.04,587.335 C1640.05,587.335 1639.51,587.785 1639.51,588.595 C1639.51,589.315 1640,589.765 1640.81,589.765 C1641.04,589.765 1641.35,589.72 1641.71,589.675 C1642.34,589.54 1643.02,589.495 1643.42,589.495 C1645.54,589.495 1646.98,591.385 1646.98,594.175 C1646.98,599.035 1644.59,603.715 1639.15,603.715 C1636.63,603.715 1634.47,602.455 1634.47,601.015 C1634.47,600.52 1634.65,600.34 1635.37,600.025 C1636.67,599.44 1637.21,598.63 1637.21,597.415 C1637.21,595.84 1635.95,594.625 1634.33,594.625 C1632.4,594.625 1631.14,596.155 1631.14,598.495 C1631.14,602.86 1634.47,605.605 1639.87,605.605 C1646.66,605.605 1651.84,601.06 1651.84,595.03 C1651.84,591.52 1649.68,589.54 1646.53,588.55"/>
<polyline class="Tuplet" fill="none" stroke="#000000" stroke-width="2.48" stroke-linejoin="miter" stroke-miterlimit="2" points="1606.02,607.931 1606.02,589.331 1618.74,589.365"/>
<polyline class="Tuplet" fill="none" stroke="#000000" stroke-width="2.48" stroke-linejoin="miter" stroke-miterlimit="2" points="1666.4,589.495 1679.12,589.529 1679.12,608.129"/>
<path class="Tuplet" d="M834.052,600.954 C836.167,600.279 837.022,599.919 838.102,599.199 C840.217,597.804 841.522,595.329 841.522,592.809 C841.522,588.534 838.102,585.654 833.062,585.654 C828.157,585.654 824.017,588.714 824.017,592.404 C824.017,594.249 825.142,595.509 826.852,595.509 C828.337,595.509 829.417,594.429 829.417,592.944 C829.417,592.179 829.192,591.639 828.472,590.919 C828.022,590.514 827.842,590.199 827.842,589.884 C827.842,588.804 830.092,587.679 832.207,587.679 C835.222,587.679 837.022,589.344 837.022,592.134 C837.022,596.139 834.187,599.919 831.172,599.919 C831.037,599.919 830.632,599.874 830.137,599.829 C828.832,599.739 828.832,599.739 828.562,599.739 C827.572,599.739 827.032,600.189 827.032,600.999 C827.032,601.719 827.527,602.169 828.337,602.169 C828.562,602.169 828.877,602.124 829.237,602.079 C829.867,601.944 830.542,601.899 830.947,601.899 C833.062,601.899 834.502,603.789 834.502,606.579 C834.502,611.439 832.117,616.119 826.672,616.119 C824.152,616.119 821.992,614.859 821.992,613.419 C821.992,612.924 822.172,612.744 822.892,612.429 C824.197,611.844 824.737,611.034 824.737,609.819 C824.737,608.244 823.477,607.029 821.857,607.029 C819.922,607.029 818.662,608.559 818.662,610.899 C818.662,615.264 821.992,618.009 827.392,618.009 C834.187,618.009 839.362,613.464 839.362,607.434 C839.362,603.924 837.202,601.944 834.052,600.954"/>
<polyline class="Tuplet" fill="none" stroke="#000000" stroke-width="2.48" stroke-linejoin="miter" stroke-miterlimit="2" points="793.544,620.434 793.544,601.834 806.266,601.834"/>
<polyline class="Tuplet" fill="none" stroke="#000000" stroke-width="2.48" stroke-linejoin="miter" stroke-miterlimit="2" points="853.925,601.834 866.646,601.834 866.646,620.434"/>
<path class="Tuplet" d="M2550.82,582.35 C2552.94,581.675 2553.79,581.315 2554.87,580.595 C2556.99,579.2 2558.29,576.725 2558.29,574.205 C2558.29,569.93 2554.87,567.05 2549.83,567.05 C2544.93,567.05 2540.79,570.11 2540.79,573.8 C2540.79,575.645 2541.91,576.905 2543.62,576.905 C2545.11,576.905 2546.19,575.825 2546.19,574.34 C2546.19,573.575 2545.96,573.035 2545.24,572.315 C2544.79,571.91 2544.61,571.595 2544.61,571.28 C2544.61,570.2 2546.86,569.075 2548.98,569.075 C2551.99,569.075 2553.79,570.74 2553.79,573.53 C2553.79,577.535 2550.96,581.315 2547.94,581.315 C2547.81,581.315 2547.4,581.27 2546.91,581.225 C2545.6,581.135 2545.6,581.135 2545.33,581.135 C2544.34,581.135 2543.8,581.585 2543.8,582.395 C2543.8,583.115 2544.3,583.565 2545.11,583.565 C2545.33,583.565 2545.65,583.52 2546.01,583.475 C2546.64,583.34 2547.31,583.295 2547.72,583.295 C2549.83,583.295 2551.27,585.185 2551.27,587.975 C2551.27,592.835 2548.89,597.515 2543.44,597.515 C2540.92,597.515 2538.76,596.255 2538.76,594.815 C2538.76,594.32 2538.94,594.14 2539.66,593.825 C2540.97,593.24 2541.51,592.43 2541.51,591.215 C2541.51,589.64 2540.25,588.425 2538.63,588.425 C2536.69,588.425 2535.43,589.955 2535.43,592.295 C2535.43,596.66 2538.76,599.405 2544.16,599.405 C2550.96,599.405 2556.13,594.86 2556.13,588.83 C2556.13,585.32 2553.97,583.34 2550.82,582.35"/>
<polyline class="Tuplet" fill="none" stroke="#000000" stroke-width="2.48" stroke-linejoin="miter" stroke-miterlimit="2" points="2510.31,601.731 2510.31,583.131 2523.03,583.165"/>
<polyline class="Tuplet" fill="none" stroke="#000000" stroke-width="2.48" stroke-linejoin="miter" stroke-miterlimit="2" points="2570.69,583.295 2583.41,583.329 2583.41,601.929"/>
<path class="Tuplet" d="M2111.69,785.712 C2113.8,785.037 2114.66,784.677 2115.74,783.957 C2117.85,782.562 2119.16,780.087 2119.16,777.567 C2119.16,773.292 2115.74,770.412 2110.7,770.412 C2105.79,770.412 2101.65,773.472 2101.65,777.162 C2101.65,779.007 2102.78,780.267 2104.49,780.267 C2105.97,780.267 2107.05,779.187 2107.05,777.702 C2107.05,776.937 2106.83,776.397 2106.11,775.677 C2105.66,775.272 2105.48,774.957 2105.48,774.642 C2105.48,773.562 2107.73,772.437 2109.84,772.437 C2112.86,772.437 2114.66,774.102 2114.66,776.892 C2114.66,780.897 2111.82,784.677 2108.81,784.677 C2108.67,784.677 2108.27,784.632 2107.77,784.587 C2106.47,784.497 2106.47,784.497 2106.2,784.497 C2105.21,784.497 2104.67,784.947 2104.67,785.757 C2104.67,786.477 2105.16,786.927 2105.97,786.927 C2106.2,786.927 2106.51,786.882 2106.87,786.837 C2107.5,786.702 2108.18,786.657 2108.58,786.657 C2110.7,786.657 2112.14,788.547 2112.14,791.337 C2112.14,796.197 2109.75,800.877 2104.31,800.877 C2101.79,800.877 2099.63,799.617 2099.63,798.177 C2099.63,797.682 2099.81,797.502 2100.53,797.187 C2101.83,796.602 2102.37,795.792 2102.37,794.577 C2102.37,793.002 2101.11,791.787 2099.49,791.787 C2097.56,791.787 2096.3,793.317 2096.3,795.657 C2096.3,800.022 2099.63,802.767 2105.03,802.767 C2111.82,802.767 2117,798.222 2117,792.192 C2117,788.682 2114.84,786.702 2111.69,785.712"/>
<polyline class="Tuplet" fill="none" stroke="#000000" stroke-width="2.48" stroke-linejoin="miter" stroke-miterlimit="2" points="2071.18,771.142 2071.18,789.742 2083.9,788.645"/>
<polyline class="Tuplet" fill="none" stroke="#000000" stroke-width="2.48" stroke-linejoin="miter" stroke-miterlimit="2" points="2131.56,784.539 2144.28,783.442 2144.28,764.842"/>
<path class="Tuplet" d="M2503.02,1053.55 C2505.13,1052.88 2505.99,1052.52 2507.07,1051.8 C2509.18,1050.4 2510.49,1047.93 2510.49,1045.41 C2510.49,1041.13 2507.07,1038.25 2502.03,1038.25 C2497.12,1038.25 2492.98,1041.31 2492.98,1045 C2492.98,1046.85 2494.11,1048.11 2495.82,1048.11 C2497.3,1048.11 2498.38,1047.03 2498.38,1045.54 C2498.38,1044.78 2498.16,1044.24 2497.44,1043.52 C2496.99,1043.11 2496.81,1042.8 2496.81,1042.48 C2496.81,1041.4 2499.06,1040.28 2501.17,1040.28 C2504.19,1040.28 2505.99,1041.94 2505.99,1044.73 C2505.99,1048.74 2503.15,1052.52 2500.14,1052.52 C2500,1052.52 2499.6,1052.47 2499.1,1052.43 C2497.8,1052.34 2497.8,1052.34 2497.53,1052.34 C2496.54,1052.34 2496,1052.79 2496,1053.6 C2496,1054.32 2496.49,1054.77 2497.3,1054.77 C2497.53,1054.77 2497.84,1054.72 2498.2,1054.68 C2498.83,1054.54 2499.51,1054.5 2499.91,1054.5 C2502.03,1054.5 2503.47,1056.39 2503.47,1059.18 C2503.47,1064.04 2501.08,1068.72 2495.64,1068.72 C2493.12,1068.72 2490.96,1067.46 2490.96,1066.02 C2490.96,1065.52 2491.14,1065.34 2491.86,1065.03 C2493.16,1064.44 2493.7,1063.63 2493.7,1062.42 C2493.7,1060.84 2492.44,1059.63 2490.82,1059.63 C2488.89,1059.63 2487.63,1061.16 2487.63,1063.5 C2487.63,1067.86 2490.96,1070.61 2496.36,1070.61 C2503.15,1070.61 2508.33,1066.06 2508.33,1060.03 C2508.33,1056.52 2506.17,1054.54 2503.02,1053.55"/>
<polyline class="Tuplet" fill="none" stroke="#000000" stroke-width="2.48" stroke-linejoin="miter" stroke-miterlimit="2" points="2458.25,1072.93 2458.25,1054.33 2475.23,1054.38"/>
<polyline class="Tuplet" fill="none" stroke="#000000" stroke-width="2.48" stroke-linejoin="miter" stroke-miterlimit="2" points="2522.89,1054.49 2539.87,1054.53 2539.87,1073.13"/>
<path class="Tuplet" d="M1359.03,600.954 C1361.15,600.279 1362,599.919 1363.08,599.199 C1365.2,597.804 1366.5,595.329 1366.5,592.809 C1366.5,588.534 1363.08,585.654 1358.04,585.654 C1353.14,585.654 1349,588.714 1349,592.404 C1349,594.249 1350.12,595.509 1351.83,595.509 C1353.32,595.509 1354.4,594.429 1354.4,592.944 C1354.4,592.179 1354.17,591.639 1353.45,590.919 C1353,590.514 1352.82,590.199 1352.82,589.884 C1352.82,588.804 1355.07,587.679 1357.19,587.679 C1360.2,587.679 1362,589.344 1362,592.134 C1362,596.139 1359.17,599.919 1356.15,599.919 C1356.02,599.919 1355.61,599.874 1355.12,599.829 C1353.81,599.739 1353.81,599.739 1353.54,599.739 C1352.55,599.739 1352.01,600.189 1352.01,600.999 C1352.01,601.719 1352.51,602.169 1353.32,602.169 C1353.54,602.169 1353.86,602.124 1354.22,602.079 C1354.85,601.944 1355.52,601.899 1355.93,601.899 C1358.04,601.899 1359.48,603.789 1359.48,606.579 C1359.48,611.439 1357.1,616.119 1351.65,616.119 C1349.13,616.119 1346.97,614.859 1346.97,613.419 C1346.97,612.924 1347.15,612.744 1347.87,612.429 C1349.18,611.844 1349.72,611.034 1349.72,609.819 C1349.72,608.244 1348.46,607.029 1346.84,607.029 C1344.9,607.029 1343.64,608.559 1343.64,610.899 C1343.64,615.264 1346.97,618.009 1352.37,618.009 C1359.17,618.009 1364.34,613.464 1364.34,607.434 C1364.34,603.924 1362.18,601.944 1359.03,600.954"/>
<polyline class="Tuplet" fill="none" stroke="#000000" stroke-width="2.48" stroke-linejoin="miter" stroke-miterlimit="2" points="1309.97,620.434 1309.97,601.834 1331.24,601.834"/>
<polyline class="Tuplet" fill="none" stroke="#000000" stroke-width="2.48" stroke-linejoin="miter" stroke-miterlimit="2" points="1378.9,601.834 1400.17,601.834 1400.17,620.434"/>
<path class="Tuplet" d="M609.55,1059.26 C611.665,1058.59 612.52,1058.23 613.6,1057.51 C615.715,1056.11 617.02,1053.64 617.02,1051.12 C617.02,1046.84 613.6,1043.96 608.56,1043.96 C603.655,1043.96 599.515,1047.02 599.515,1050.71 C599.515,1052.56 600.64,1053.82 602.35,1053.82 C603.835,1053.82 604.915,1052.74 604.915,1051.25 C604.915,1050.49 604.69,1049.95 603.97,1049.23 C603.52,1048.82 603.34,1048.51 603.34,1048.19 C603.34,1047.11 605.59,1045.99 607.705,1045.99 C610.72,1045.99 612.52,1047.65 612.52,1050.44 C612.52,1054.45 609.685,1058.23 606.67,1058.23 C606.535,1058.23 606.13,1058.18 605.635,1058.14 C604.33,1058.05 604.33,1058.05 604.06,1058.05 C603.07,1058.05 602.53,1058.5 602.53,1059.31 C602.53,1060.03 603.025,1060.48 603.835,1060.48 C604.06,1060.48 604.375,1060.43 604.735,1060.39 C605.365,1060.25 606.04,1060.21 606.445,1060.21 C608.56,1060.21 610,1062.1 610,1064.89 C610,1069.75 607.615,1074.43 602.17,1074.43 C599.65,1074.43 597.49,1073.17 597.49,1071.73 C597.49,1071.23 597.67,1071.05 598.39,1070.74 C599.695,1070.15 600.235,1069.34 600.235,1068.13 C600.235,1066.55 598.975,1065.34 597.355,1065.34 C595.42,1065.34 594.16,1066.87 594.16,1069.21 C594.16,1073.57 597.49,1076.32 602.89,1076.32 C609.685,1076.32 614.86,1071.77 614.86,1065.74 C614.86,1062.23 612.7,1060.25 609.55,1059.26"/>
<polyline class="Tuplet" fill="none" stroke="#000000" stroke-width="2.48" stroke-linejoin="miter" stroke-miterlimit="2" points="556.236,1087.94 556.236,1069.34 581.764,1064.59"/>
<polyline class="Tuplet" fill="none" stroke="#000000" stroke-width="2.48" stroke-linejoin="miter" stroke-miterlimit="2" points="629.423,1055.7 654.951,1050.94 654.951,1069.54"/>
<path class="Tuplet" d="M952.793,600.954 C954.908,600.279 955.763,599.919 956.843,599.199 C958.958,597.804 960.263,595.329 960.263,592.809 C960.263,588.534 956.843,585.654 951.803,585.654 C946.898,585.654 942.758,588.714 942.758,592.404 C942.758,594.249 943.883,595.509 945.593,595.509 C947.078,595.509 948.158,594.429 948.158,592.944 C948.158,592.179 947.933,591.639 947.213,590.919 C946.763,590.514 946.583,590.199 946.583,589.884 C946.583,588.804 948.833,587.679 950.948,587.679 C953.963,587.679 955.763,589.344 955.763,592.134 C955.763,596.139 952.928,599.919 949.913,599.919 C949.778,599.919 949.373,599.874 948.878,599.829 C947.573,599.739 947.573,599.739 947.303,599.739 C946.313,599.739 945.773,600.189 945.773,600.999 C945.773,601.719 946.268,602.169 947.078,602.169 C947.303,602.169 947.618,602.124 947.978,602.079 C948.608,601.944 949.283,601.899 949.688,601.899 C951.803,601.899 953.243,603.789 953.243,606.579 C953.243,611.439 950.858,616.119 945.413,616.119 C942.893,616.119 940.733,614.859 940.733,613.419 C940.733,612.924 940.913,612.744 941.633,612.429 C942.938,611.844 943.478,611.034 943.478,609.819 C943.478,608.244 942.218,607.029 940.598,607.029 C938.663,607.029 937.403,608.559 937.403,610.899 C937.403,615.264 940.733,618.009 946.133,618.009 C952.928,618.009 958.103,613.464 958.103,607.434 C958.103,603.924 955.943,601.944 952.793,600.954"/>
<polyline class="Tuplet" fill="none" stroke="#000000" stroke-width="2.48" stroke-linejoin="miter" stroke-miterlimit="2" points="903.738,620.434 903.738,601.834 925.007,601.834"/>
<polyline class="Tuplet" fill="none" stroke="#000000" stroke-width="2.48" stroke-linejoin="miter" stroke-miterlimit="2" points="972.667,601.834 993.936,601.834 993.936,620.434"/>
<path class="Tuplet" d="M1240.29,600.954 C1242.4,600.279 1243.26,599.919 1244.34,599.199 C1246.45,597.804 1247.76,595.329 1247.76,592.809 C1247.76,588.534 1244.34,585.654 1239.3,585.654 C1234.39,585.654 1230.25,588.714 1230.25,592.404 C1230.25,594.249 1231.38,595.509 1233.09,595.509 C1234.57,595.509 1235.65,594.429 1235.65,592.944 C1235.65,592.179 1235.43,591.639 1234.71,590.919 C1234.26,590.514 1234.08,590.199 1234.08,589.884 C1234.08,588.804 1236.33,587.679 1238.44,587.679 C1241.46,587.679 1243.26,589.344 1243.26,592.134 C1243.26,596.139 1240.42,599.919 1237.41,599.919 C1237.27,599.919 1236.87,599.874 1236.37,599.829 C1235.07,599.739 1235.07,599.739 1234.8,599.739 C1233.81,599.739 1233.27,600.189 1233.27,600.999 C1233.27,601.719 1233.76,602.169 1234.57,602.169 C1234.8,602.169 1235.11,602.124 1235.47,602.079 C1236.1,601.944 1236.78,601.899 1237.18,601.899 C1239.3,601.899 1240.74,603.789 1240.74,606.579 C1240.74,611.439 1238.35,616.119 1232.91,616.119 C1230.39,616.119 1228.23,614.859 1228.23,613.419 C1228.23,612.924 1228.41,612.744 1229.13,612.429 C1230.43,611.844 1230.97,611.034 1230.97,609.819 C1230.97,608.244 1229.71,607.029 1228.09,607.029 C1226.16,607.029 1224.9,608.559 1224.9,610.899 C1224.9,615.264 1228.23,618.009 1233.63,618.009 C1240.42,618.009 1245.6,613.464 1245.6,607.434 C1245.6,603.924 1243.44,601.944 1240.29,600.954"/>
<polyline class="Tuplet" fill="none" stroke="#000000" stroke-width="2.48" stroke-linejoin="miter" stroke-miterlimit="2" points="1199.78,620.434 1199.78,601.834 1212.5,601.834"/>
<polyline class="Tuplet" fill="none" stroke="#000000" stroke-width="2.48" stroke-linejoin="miter" stroke-miterlimit="2" points="1260.16,601.834 1272.88,601.834 1272.88,620.434"/>
<path class="Tuplet" d="M1765.27,588.632 C1767.38,587.957 1768.24,587.597 1769.32,586.877 C1771.43,585.482 1772.74,583.007 1772.74,580.487 C1772.74,576.212 1769.32,573.332 1764.28,573.332 C1759.37,573.332 1755.23,576.392 1755.23,580.082 C1755.23,581.927 1756.36,583.187 1758.07,583.187 C1759.55,583.187 1760.63,582.107 1760.63,580.622 C1760.63,579.857 1760.41,579.317 1759.69,578.597 C1759.24,578.192 1759.06,577.877 1759.06,577.562 C1759.06,576.482 1761.31,575.357 1763.42,575.357 C1766.44,575.357 1768.24,577.022 1768.24,579.812 C1768.24,583.817 1765.4,587.597 1762.39,587.597 C1762.25,587.597 1761.85,587.552 1761.35,587.507 C1760.05,587.417 1760.05,587.417 1759.78,587.417 C1758.79,587.417 1758.25,587.867 1758.25,588.677 C1758.25,589.397 1758.74,589.847 1759.55,589.847 C1759.78,589.847 1760.09,589.802 1760.45,589.757 C1761.08,589.622 1761.76,589.577 1762.16,589.577 C1764.28,589.577 1765.72,591.467 1765.72,594.257 C1765.72,599.117 1763.33,603.797 1757.89,603.797 C1755.37,603.797 1753.21,602.537 1753.21,601.097 C1753.21,600.602 1753.39,600.422 1754.11,600.107 C1755.41,599.522 1755.95,598.712 1755.95,597.497 C1755.95,595.922 1754.69,594.707 1753.07,594.707 C1751.14,594.707 1749.88,596.237 1749.88,598.577 C1749.88,602.942 1753.21,605.687 1758.61,605.687 C1765.4,605.687 1770.58,601.142 1770.58,595.112 C1770.58,591.602 1768.42,589.622 1765.27,588.632"/>
<polyline class="Tuplet" fill="none" stroke="#000000" stroke-width="2.48" stroke-linejoin="miter" stroke-miterlimit="2" points="1716.21,608.112 1716.21,589.512 1737.48,589.512"/>
<polyline class="Tuplet" fill="none" stroke="#000000" stroke-width="2.48" stroke-linejoin="miter" stroke-miterlimit="2" points="1785.14,589.512 1806.41,589.512 1806.41,608.112"/>
<path class="Tuplet" d="M2017.3,1256.8 C2019.41,1256.13 2020.27,1255.77 2021.35,1255.05 C2023.46,1253.65 2024.77,1251.18 2024.77,1248.66 C2024.77,1244.38 2021.35,1241.5 2016.31,1241.5 C2011.4,1241.5 2007.26,1244.56 2007.26,1248.25 C2007.26,1250.1 2008.39,1251.36 2010.1,1251.36 C2011.58,1251.36 2012.66,1250.28 2012.66,1248.79 C2012.66,1248.03 2012.44,1247.49 2011.72,1246.77 C2011.27,1246.36 2011.09,1246.05 2011.09,1245.73 C2011.09,1244.65 2013.34,1243.53 2015.45,1243.53 C2018.47,1243.53 2020.27,1245.19 2020.27,1247.98 C2020.27,1251.99 2017.43,1255.77 2014.42,1255.77 C2014.28,1255.77 2013.88,1255.72 2013.38,1255.68 C2012.08,1255.59 2012.08,1255.59 2011.81,1255.59 C2010.82,1255.59 2010.28,1256.04 2010.28,1256.85 C2010.28,1257.57 2010.77,1258.02 2011.58,1258.02 C2011.81,1258.02 2012.12,1257.97 2012.48,1257.93 C2013.11,1257.79 2013.79,1257.75 2014.19,1257.75 C2016.31,1257.75 2017.75,1259.64 2017.75,1262.43 C2017.75,1267.29 2015.36,1271.97 2009.92,1271.97 C2007.4,1271.97 2005.24,1270.71 2005.24,1269.27 C2005.24,1268.77 2005.42,1268.59 2006.14,1268.28 C2007.44,1267.69 2007.98,1266.88 2007.98,1265.67 C2007.98,1264.09 2006.72,1262.88 2005.1,1262.88 C2003.17,1262.88 2001.91,1264.41 2001.91,1266.75 C2001.91,1271.11 2005.24,1273.86 2010.64,1273.86 C2017.43,1273.86 2022.61,1269.31 2022.61,1263.28 C2022.61,1259.77 2020.45,1257.79 2017.3,1256.8"/>
<polyline class="Tuplet" fill="none" stroke="#000000" stroke-width="2.48" stroke-linejoin="miter" stroke-miterlimit="2" points="1972.53,1242.23 1972.53,1260.83 1989.51,1259.52"/>
<polyline class="Tuplet" fill="none" stroke="#000000" stroke-width="2.48" stroke-linejoin="miter" stroke-miterlimit="2" points="2037.17,1255.85 2054.15,1254.54 2054.15,1235.94"/>
<path class="Tuplet" d="M745.357,1072.15 C747.472,1071.48 748.327,1071.12 749.407,1070.4 C751.522,1069 752.827,1066.53 752.827,1064.01 C752.827,1059.73 749.407,1056.85 744.367,1056.85 C739.462,1056.85 735.322,1059.91 735.322,1063.6 C735.322,1065.45 736.447,1066.71 738.157,1066.71 C739.642,1066.71 740.722,1065.63 740.722,1064.14 C740.722,1063.38 740.497,1062.84 739.777,1062.12 C739.327,1061.71 739.147,1061.4 739.147,1061.08 C739.147,1060 741.397,1058.88 743.512,1058.88 C746.527,1058.88 748.327,1060.54 748.327,1063.33 C748.327,1067.34 745.492,1071.12 742.477,1071.12 C742.342,1071.12 741.937,1071.07 741.442,1071.03 C740.137,1070.94 740.137,1070.94 739.867,1070.94 C738.877,1070.94 738.337,1071.39 738.337,1072.2 C738.337,1072.92 738.832,1073.37 739.642,1073.37 C739.867,1073.37 740.182,1073.32 740.542,1073.28 C741.172,1073.14 741.847,1073.1 742.252,1073.1 C744.367,1073.1 745.807,1074.99 745.807,1077.78 C745.807,1082.64 743.422,1087.32 737.977,1087.32 C735.457,1087.32 733.297,1086.06 733.297,1084.62 C733.297,1084.12 733.477,1083.94 734.197,1083.63 C735.502,1083.04 736.042,1082.23 736.042,1081.02 C736.042,1079.44 734.782,1078.23 733.162,1078.23 C731.227,1078.23 729.967,1079.76 729.967,1082.1 C729.967,1086.46 733.297,1089.21 738.697,1089.21 C745.492,1089.21 750.667,1084.66 750.667,1078.63 C750.667,1075.12 748.507,1073.14 745.357,1072.15"/>
<polyline class="Tuplet" fill="none" stroke="#000000" stroke-width="2.48" stroke-linejoin="miter" stroke-miterlimit="2" points="692.043,1091.63 692.043,1073.03 717.571,1073.03"/>
<polyline class="Tuplet" fill="none" stroke="#000000" stroke-width="2.48" stroke-linejoin="miter" stroke-miterlimit="2" points="765.23,1073.03 790.758,1073.03 790.758,1091.63"/>
<path class="Tuplet" d="M1497.03,1059.75 C1499.15,1059.08 1500,1058.72 1501.08,1058 C1503.2,1056.6 1504.5,1054.13 1504.5,1051.61 C1504.5,1047.33 1501.08,1044.45 1496.04,1044.45 C1491.14,1044.45 1487,1047.51 1487,1051.2 C1487,1053.05 1488.12,1054.31 1489.83,1054.31 C1491.32,1054.31 1492.4,1053.23 1492.4,1051.74 C1492.4,1050.98 1492.17,1050.44 1491.45,1049.72 C1491,1049.31 1490.82,1049 1490.82,1048.68 C1490.82,1047.6 1493.07,1046.48 1495.19,1046.48 C1498.2,1046.48 1500,1048.14 1500,1050.93 C1500,1054.94 1497.17,1058.72 1494.15,1058.72 C1494.02,1058.72 1493.61,1058.67 1493.12,1058.63 C1491.81,1058.54 1491.81,1058.54 1491.54,1058.54 C1490.55,1058.54 1490.01,1058.99 1490.01,1059.8 C1490.01,1060.52 1490.51,1060.97 1491.32,1060.97 C1491.54,1060.97 1491.86,1060.92 1492.22,1060.88 C1492.85,1060.74 1493.52,1060.7 1493.93,1060.7 C1496.04,1060.7 1497.48,1062.59 1497.48,1065.38 C1497.48,1070.24 1495.1,1074.92 1489.65,1074.92 C1487.13,1074.92 1484.97,1073.66 1484.97,1072.22 C1484.97,1071.72 1485.15,1071.54 1485.87,1071.23 C1487.18,1070.64 1487.72,1069.83 1487.72,1068.62 C1487.72,1067.04 1486.46,1065.83 1484.84,1065.83 C1482.9,1065.83 1481.64,1067.36 1481.64,1069.7 C1481.64,1074.06 1484.97,1076.81 1490.37,1076.81 C1497.17,1076.81 1502.34,1072.26 1502.34,1066.23 C1502.34,1062.72 1500.18,1060.74 1497.03,1059.75"/>
<polyline class="Tuplet" fill="none" stroke="#000000" stroke-width="2.48" stroke-linejoin="miter" stroke-miterlimit="2" points="1452.27,1079.13 1452.27,1060.53 1469.25,1060.58"/>
<polyline class="Tuplet" fill="none" stroke="#000000" stroke-width="2.48" stroke-linejoin="miter" stroke-miterlimit="2" points="1516.91,1060.69 1533.89,1060.73 1533.89,1079.33"/>
<path class="Tuplet" d="M603.119,600.954 C605.234,600.279 606.089,599.919 607.169,599.199 C609.284,597.804 610.589,595.329 610.589,592.809 C610.589,588.534 607.169,585.654 602.129,585.654 C597.224,585.654 593.084,588.714 593.084,592.404 C593.084,594.249 594.209,595.509 595.919,595.509 C597.404,595.509 598.484,594.429 598.484,592.944 C598.484,592.179 598.259,591.639 597.539,590.919 C597.089,590.514 596.909,590.199 596.909,589.884 C596.909,588.804 599.159,587.679 601.274,587.679 C604.289,587.679 606.089,589.344 606.089,592.134 C606.089,596.139 603.254,599.919 600.239,599.919 C600.104,599.919 599.699,599.874 599.204,599.829 C597.899,599.739 597.899,599.739 597.629,599.739 C596.639,599.739 596.099,600.189 596.099,600.999 C596.099,601.719 596.594,602.169 597.404,602.169 C597.629,602.169 597.944,602.124 598.304,602.079 C598.934,601.944 599.609,601.899 600.014,601.899 C602.129,601.899 603.569,603.789 603.569,606.579 C603.569,611.439 601.184,616.119 595.739,616.119 C593.219,616.119 591.059,614.859 591.059,613.419 C591.059,612.924 591.239,612.744 591.959,612.429 C593.264,611.844 593.804,611.034 593.804,609.819 C593.804,608.244 592.544,607.029 590.924,607.029 C588.989,607.029 587.729,608.559 587.729,610.899 C587.729,615.264 591.059,618.009 596.459,618.009 C603.254,618.009 608.429,613.464 608.429,607.434 C608.429,603.924 606.269,601.944 603.119,600.954"/>
<polyline class="Tuplet" fill="none" stroke="#000000" stroke-width="2.48" stroke-linejoin="miter" stroke-miterlimit="2" points="554.063,620.434 554.063,601.834 575.333,601.834"/>
<polyline class="Tuplet" fill="none" stroke="#000000" stroke-width="2.48" stroke-linejoin="miter" stroke-miterlimit="2" points="622.992,601.834 644.262,601.834 644.262,620.434"/>
<path class="VoltaSegment" d="M2346.56,1052.03 L2345.96,1054.78 C2345.46,1056.98 2345.13,1057.69 2344.69,1057.97 C2344.14,1058.35 2344.03,1058.35 2340.57,1058.41 L2329.95,1058.41 C2331.88,1056.76 2333.31,1055.71 2335.45,1054.28 C2343.21,1049.28 2344.8,1048.07 2346.4,1046.03 C2348.27,1043.56 2349.37,1040.64 2349.37,1038.06 C2349.37,1032.17 2343.59,1027.72 2335.84,1027.72 C2328.36,1027.72 2322.58,1032.56 2322.58,1038.83 C2322.58,1042.68 2324.73,1045.15 2328.03,1045.15 C2330.89,1045.15 2332.7,1043.34 2332.7,1040.48 C2332.7,1038.11 2331.66,1036.74 2329.13,1035.53 C2328.52,1035.25 2328.25,1034.92 2328.25,1034.48 C2328.25,1032.72 2331.22,1030.85 2333.97,1030.85 C2337.82,1030.85 2340.02,1033.22 2340.02,1037.29 C2340.02,1041.85 2338.26,1045.1 2332.43,1051.31 C2326.27,1057.86 2324.12,1060.33 2321.37,1064.29 L2321.37,1066.88 C2322.8,1066.71 2323.41,1066.66 2324.23,1066.66 L2344.91,1066.66 C2345.96,1066.66 2346.62,1066.71 2348.27,1066.88 L2349.53,1052.03 L2346.56,1052.03 M2359.54,1057.14 C2356.68,1057.14 2354.37,1059.45 2354.37,1062.31 C2354.37,1065.12 2356.68,1067.48 2359.48,1067.48 C2362.4,1067.48 2364.71,1065.17 2364.71,1062.31 C2364.71,1059.45 2362.4,1057.14 2359.54,1057.14"/>
<polyline class="VoltaSegment" fill="none" stroke="#000000" stroke-width="2.73" stroke-linejoin="miter" stroke-miterlimit="2" points="2306.48,1066.66 2306.48,1012.1 2763.24,1012.1 2763.24,1066.66"/>
<path class="VoltaSegment" d="M2409.42,580.824 L2408.82,583.574 C2408.32,585.774 2407.99,586.489 2407.55,586.764 C2407,587.149 2406.89,587.149 2403.43,587.204 L2392.81,587.204 C2394.74,585.554 2396.17,584.509 2398.31,583.079 C2406.07,578.074 2407.66,576.864 2409.26,574.829 C2411.13,572.354 2412.23,569.439 2412.23,566.854 C2412.23,560.969 2406.45,556.514 2398.7,556.514 C2391.22,556.514 2385.44,561.354 2385.44,567.624 C2385.44,571.474 2387.59,573.949 2390.89,573.949 C2393.75,573.949 2395.56,572.134 2395.56,569.274 C2395.56,566.909 2394.52,565.534 2391.99,564.324 C2391.38,564.049 2391.11,563.719 2391.11,563.279 C2391.11,561.519 2394.08,559.649 2396.83,559.649 C2400.68,559.649 2402.88,562.014 2402.88,566.084 C2402.88,570.649 2401.12,573.894 2395.29,580.109 C2389.13,586.654 2386.98,589.129 2384.23,593.089 L2384.23,595.674 C2385.66,595.509 2386.27,595.454 2387.09,595.454 L2407.77,595.454 C2408.82,595.454 2409.48,595.509 2411.13,595.674 L2412.39,580.824 L2409.42,580.824 M2422.39,585.939 C2419.53,585.939 2417.22,588.249 2417.22,591.109 C2417.22,593.914 2419.53,596.279 2422.34,596.279 C2425.25,596.279 2427.56,593.969 2427.56,591.109 C2427.56,588.249 2425.25,585.939 2422.39,585.939"/>
<polyline class="VoltaSegment" fill="none" stroke="#000000" stroke-width="2.73" stroke-linejoin="miter" stroke-miterlimit="2" points="2369.34,595.454 2369.34,540.894 2763.24,540.894"/>
<path class="VoltaSegment" d="M1990.42,556.514 L1988.5,556.514 C1985.03,559.099 1981.13,560.199 1974.58,560.309 L1974.58,563.389 L1976.89,563.389 C1981.79,563.389 1981.84,563.499 1981.79,568.009 L1981.79,587.534 C1981.79,590.944 1981.79,591.109 1981.4,591.659 C1980.91,592.264 1979.81,592.484 1976.84,592.484 L1975.08,592.484 L1975.08,595.454 L1997.02,595.454 L1997.02,592.484 L1995.26,592.484 C1992.35,592.484 1991.3,592.264 1990.81,591.659 C1990.42,591.109 1990.42,590.889 1990.42,587.534 L1990.42,556.514 M2009.22,585.939 C2006.36,585.939 2004.05,588.249 2004.05,591.109 C2004.05,593.914 2006.36,596.279 2009.17,596.279 C2012.08,596.279 2014.39,593.969 2014.39,591.109 C2014.39,588.249 2012.08,585.939 2009.22,585.939"/>
<polyline class="VoltaSegment" fill="none" stroke="#000000" stroke-width="2.73" stroke-linejoin="miter" stroke-miterlimit="2" points="1959.7,595.454 1959.7,540.894 2345.65,540.894 2345.65,595.454"/>
<path class="VoltaSegment" d="M1880.98,1027.72 L1879.05,1027.72 C1875.59,1030.3 1871.68,1031.4 1865.14,1031.51 L1865.14,1034.59 L1867.45,1034.59 C1872.34,1034.59 1872.4,1034.7 1872.34,1039.21 L1872.34,1058.74 C1872.34,1062.15 1872.34,1062.31 1871.96,1062.86 C1871.46,1063.47 1870.36,1063.69 1867.39,1063.69 L1865.63,1063.69 L1865.63,1066.66 L1887.58,1066.66 L1887.58,1063.69 L1885.82,1063.69 C1882.9,1063.69 1881.86,1063.47 1881.36,1062.86 C1880.98,1062.31 1880.98,1062.09 1880.98,1058.74 L1880.98,1027.72 M1899.78,1057.14 C1896.92,1057.14 1894.61,1059.45 1894.61,1062.31 C1894.61,1065.12 1896.92,1067.48 1899.73,1067.48 C1902.64,1067.48 1904.95,1065.17 1904.95,1062.31 C1904.95,1059.45 1902.64,1057.14 1899.78,1057.14"/>
<polyline class="VoltaSegment" fill="none" stroke="#000000" stroke-width="2.73" stroke-linejoin="miter" stroke-miterlimit="2" points="1850.26,1066.66 1850.26,1012.1 2282.8,1012.1 2282.8,1066.66"/>
</svg>
