<?xml version="1.0" encoding="UTF-8" standalone="no"?>
<svg width="2976.12px" height="4208.4px" viewBox="0 0 2976.12 4208.4"
 xmlns="http://www.w3.org/2000/svg" xmlns:xlink="http://www.w3.org/1999/xlink" version="1.2" baseProfile="tiny">
<title>蒲田行進曲</title>
<desc>Generated by MuseScore Studio 4.4.2</desc>
<path class="" fill="#ffffff" fill-rule="evenodd" d="M0,0 L2976.12,0 L2976.12,4208.4 L0,4208.4 L0,0 "/>
<polyline class="StaffLines" fill="none" stroke="#000000" stroke-width="2.77" stroke-linejoin="bevel" points="201.6,630 2774.52,630"/>
<polyline class="StaffLines" fill="none" stroke="#000000" stroke-width="2.77" stroke-linejoin="bevel" points="201.6,655.2 2774.52,655.2"/>
<polyline class="StaffLines" fill="none" stroke="#000000" stroke-width="2.77" stroke-linejoin="bevel" points="201.6,680.4 2774.52,680.4"/>
<polyline class="StaffLines" fill="none" stroke="#000000" stroke-width="2.77" stroke-linejoin="bevel" points="201.6,705.6 2774.52,705.6"/>
<polyline class="StaffLines" fill="none" stroke="#000000" stroke-width="2.77" stroke-linejoin="bevel" points="201.6,730.8 2774.52,730.8"/>
<polyline class="StaffLines" fill="none" stroke="#000000" stroke-width="2.77" stroke-linejoin="bevel" points="201.6,1108.8 2774.52,1108.8"/>
<polyline class="StaffLines" fill="none" stroke="#000000" stroke-width="2.77" stroke-linejoin="bevel" points="201.6,1134 2774.52,1134"/>
<polyline class="StaffLines" fill="none" stroke="#000000" stroke-width="2.77" stroke-linejoin="bevel" points="201.6,1159.2 2774.52,1159.2"/>
<polyline class="StaffLines" fill="none" stroke="#000000" stroke-width="2.77" stroke-linejoin="bevel" points="201.6,1184.4 2774.52,1184.4"/>
<polyline class="StaffLines" fill="none" stroke="#000000" stroke-width="2.77" stroke-linejoin="bevel" points="201.6,1209.6 2774.52,1209.6"/>
<path class="Text" d="M1259.81,280.354 L1278.18,280.354 L1278.18,288.164 C1278.18,293.774 1277.96,297.184 1277.52,300.264 L1285.22,300.264 C1284.78,297.184 1284.56,293.994 1284.56,288.164 L1284.56,280.354 L1305.46,280.354 L1305.46,290.474 C1305.46,292.784 1304.91,293.334 1302.71,293.334 C1299.52,293.334 1296.66,293.114 1293.14,292.564 C1294.02,295.204 1294.24,296.414 1294.57,299.054 C1298.09,299.274 1299.74,299.274 1301.94,299.274 C1310.08,299.274 1312.06,297.844 1312.06,291.794 L1312.06,257.254 C1312.17,252.634 1312.17,249.554 1312.17,248.014 C1312.17,247.024 1312.28,245.924 1312.5,243.834 C1310.19,244.274 1307,244.384 1300.73,244.384 L1284.56,244.384 L1284.56,236.354 L1308.21,236.354 C1312.94,236.354 1316.24,236.574 1319.1,237.014 L1319.1,229.974 C1316.02,230.414 1313.05,230.634 1308.54,230.634 L1284.56,230.634 C1284.67,226.674 1284.89,224.914 1285.22,222.824 L1277.52,222.824 C1277.85,224.914 1278.07,226.784 1278.18,230.634 L1258.82,230.634 C1254.2,230.634 1251.12,230.414 1248.04,229.974 L1248.04,237.014 C1251.12,236.574 1254.2,236.354 1258.82,236.354 L1278.18,236.354 L1278.18,244.384 L1264.1,244.384 C1259.04,244.384 1255.85,244.274 1252.77,243.834 C1253.1,246.584 1253.21,249.114 1253.21,255.714 L1253.21,288.384 C1253.21,294.104 1252.99,297.514 1252.55,300.484 L1260.47,300.484 C1259.92,297.404 1259.81,294.324 1259.81,288.384 L1259.81,280.354 M1259.81,275.074 L1259.81,264.734 L1278.18,264.734 L1278.18,275.074 L1259.81,275.074 M1259.81,259.454 L1259.81,249.884 L1278.18,249.884 L1278.18,259.454 L1259.81,259.454 M1284.56,275.074 L1284.56,264.734 L1305.46,264.734 L1305.46,275.074 L1284.56,275.074 M1284.56,259.454 L1284.56,249.884 L1305.46,249.884 L1305.46,259.454 L1284.56,259.454 M1250.57,209.624 L1233.41,209.624 C1228.68,209.624 1225.27,209.404 1222.3,208.964 L1222.3,216.224 C1225.82,215.784 1228.9,215.564 1233.41,215.564 L1250.57,215.564 C1250.57,218.754 1250.46,220.624 1250.13,222.824 L1257.61,222.824 C1257.28,220.624 1257.17,219.194 1257.17,215.564 L1283.13,215.564 C1283.13,218.314 1283.02,219.964 1282.8,222.054 L1290.28,222.054 C1289.95,219.964 1289.84,218.644 1289.84,215.564 L1308.43,215.564 C1312.72,215.564 1316.24,215.784 1319.54,216.224 L1319.54,208.964 C1316.57,209.404 1313.16,209.624 1308.43,209.624 L1289.84,209.624 L1289.84,208.524 C1289.84,205.444 1289.95,203.684 1290.28,201.594 L1282.8,201.594 C1283.02,203.794 1283.13,205.774 1283.13,208.524 L1283.13,209.624 L1257.17,209.624 L1257.17,208.524 C1257.17,205.444 1257.28,203.684 1257.61,201.594 L1250.13,201.594 C1250.35,203.684 1250.57,205.774 1250.57,208.524 L1250.57,209.624 M1246.28,235.804 C1240.56,230.304 1236.93,227.444 1230.33,223.264 L1226.04,228.104 C1232.42,232.174 1235.94,235.034 1241.77,241.084 L1246.28,235.804 M1241.77,256.264 C1236.05,251.094 1232.75,248.564 1225.71,244.054 L1221.09,248.894 C1229.34,254.174 1231.65,256.044 1237.04,261.874 L1241.77,256.264 M1241.22,267.044 C1236.05,277.934 1229.45,287.284 1222.52,293.664 L1228.46,299.054 C1236.6,288.384 1241.88,280.464 1246.17,271.994 L1241.22,267.044 M1310.63,225.574 C1306.23,222.494 1304.03,221.064 1298.2,218.094 L1293.58,221.834 C1300.07,225.134 1302.49,226.564 1306.34,229.974 L1310.63,225.574 M1424.37,300.154 C1423.93,296.414 1423.71,292.454 1423.71,287.394 L1423.71,219.084 C1423.71,214.684 1423.82,211.494 1424.26,208.084 C1420.08,208.524 1416.56,208.634 1411.72,208.634 L1349.24,208.634 C1344.29,208.634 1340.77,208.524 1336.59,208.084 C1336.92,211.604 1337.14,215.014 1337.14,219.084 L1337.14,287.394 C1337.14,292.454 1336.92,296.194 1336.48,300.154 L1344.18,300.154 L1344.18,293.444 L1416.67,293.444 L1416.67,300.154 L1424.37,300.154 M1344.18,215.014 L1375.75,215.014 L1375.75,246.584 L1344.18,246.584 L1344.18,215.014 M1382.68,215.014 L1416.67,215.014 L1416.67,246.584 L1382.68,246.584 L1382.68,215.014 M1344.18,252.854 L1375.75,252.854 L1375.75,287.064 L1344.18,287.064 L1344.18,252.854 M1382.68,252.854 L1416.67,252.854 L1416.67,287.064 L1382.68,287.064 L1382.68,252.854 M1514.02,242.624 L1514.02,290.254 C1514.02,292.454 1513.14,292.894 1509.4,292.894 C1504.89,292.894 1500.16,292.454 1493.89,291.574 C1494.88,294.104 1495.32,296.084 1495.65,299.164 C1500.38,299.494 1505.55,299.714 1509.07,299.714 C1518.75,299.714 1521.39,297.844 1521.39,290.804 L1521.39,242.624 L1527.66,242.624 C1532.72,242.624 1536.79,242.844 1539.65,243.284 L1539.65,235.584 C1537.12,236.024 1533.16,236.244 1527.55,236.244 L1488.94,236.244 C1483.66,236.244 1479.37,236.024 1476.73,235.584 L1476.73,243.284 C1479.37,242.844 1483.77,242.624 1488.94,242.624 L1514.02,242.624 M1466.17,201.924 C1464.41,205.994 1461.66,209.844 1456.16,215.344 C1451.76,219.854 1447.8,223.044 1441.64,227.004 C1443.73,228.654 1444.94,229.974 1446.59,232.394 C1456.49,225.244 1464.41,217.544 1471.01,208.524 C1472,207.204 1472.22,206.874 1472.99,206.104 L1466.17,201.924 M1481.24,215.674 C1484.54,215.234 1488.28,215.014 1492.68,215.014 L1523.48,215.014 C1527.88,215.014 1531.51,215.234 1534.81,215.674 L1534.81,207.974 C1531.73,208.414 1528.43,208.634 1523.48,208.634 L1492.68,208.634 C1487.73,208.634 1484.21,208.414 1481.24,207.974 L1481.24,215.674 M1457.81,288.054 C1457.81,293.884 1457.59,298.394 1457.04,301.474 L1465.73,301.474 C1465.18,298.394 1464.96,293.994 1464.96,288.054 L1464.96,243.614 C1468.04,239.984 1470.02,237.454 1472.33,233.714 C1473.98,231.184 1474.31,230.634 1475.63,228.984 L1468.81,225.134 C1467.71,228.104 1466.06,231.184 1463.53,234.594 C1456.93,243.504 1449.89,250.434 1441.31,256.264 C1443.07,258.024 1444.28,259.784 1445.6,262.534 C1450.99,258.354 1454.18,255.274 1458.14,250.214 C1457.92,255.494 1457.81,258.684 1457.81,263.414 L1457.81,288.054 M1621.93,260.884 L1633.15,260.884 C1638.32,260.884 1640.96,260.994 1643.93,261.324 L1643.93,254.724 C1641.62,255.054 1638.65,255.164 1633.15,255.164 L1621.93,255.164 L1621.93,242.844 L1633.15,242.844 C1638.32,242.844 1640.96,242.954 1643.93,243.284 L1643.93,236.684 C1641.62,237.014 1638.65,237.124 1633.15,237.124 L1621.93,237.124 L1621.93,225.024 L1637.44,225.024 C1641.62,225.024 1644.37,225.134 1647.23,225.464 L1647.23,218.534 C1644.59,218.974 1641.62,219.084 1636.89,219.084 L1622.04,219.084 C1623.69,216.444 1625.23,213.474 1626.66,210.614 C1628.75,206.324 1629.19,205.554 1629.85,204.564 L1622.7,202.694 C1621.49,207.424 1618.85,213.144 1615.33,219.084 L1596.52,219.084 C1598.28,216.004 1600.37,211.824 1601.36,209.294 C1603.12,205.004 1603.12,205.004 1603.78,203.794 L1596.74,202.144 C1596.08,206.324 1593.22,213.254 1589.26,219.744 C1584.97,227.004 1581.34,231.294 1573.75,238.334 C1576.39,240.094 1576.61,240.424 1578.48,243.064 C1582.22,239.434 1585.19,236.024 1588.38,231.184 C1588.16,234.374 1588.05,237.674 1587.94,241.084 L1587.94,269.794 C1587.94,274.964 1587.83,277.824 1587.39,281.124 C1590.69,280.684 1592.67,280.574 1596.3,280.574 L1637.99,280.574 C1642.17,280.574 1645.58,280.794 1648.66,281.124 L1648.66,274.084 C1646.13,274.524 1643.49,274.634 1637.99,274.634 L1621.93,274.634 L1621.93,260.884 M1615.55,260.884 L1615.55,274.634 L1594.65,274.634 L1594.65,260.884 L1615.55,260.884 M1615.55,255.164 L1594.65,255.164 L1594.65,242.844 L1615.55,242.844 L1615.55,255.164 M1615.55,237.124 L1594.65,237.124 L1594.65,225.024 L1615.55,225.024 L1615.55,237.124 M1554.06,209.074 C1561.65,216.114 1564.95,220.074 1571.22,228.984 L1576.83,224.034 C1571.33,216.774 1566.38,211.384 1559.23,204.564 L1554.06,209.074 M1551.53,252.524 C1554.06,252.084 1555.93,251.974 1559.56,251.974 L1566.82,251.974 L1566.82,278.484 C1560.33,284.754 1553.95,289.594 1549.11,291.794 L1552.74,299.054 C1554.94,297.074 1555.71,296.414 1556.7,295.754 C1562.53,291.244 1564.95,289.154 1570.01,283.984 C1573.31,289.044 1576.94,292.344 1581.45,294.434 C1587.94,297.514 1594.43,298.284 1614.01,298.284 C1625.67,298.284 1639.42,298.064 1649.87,297.624 C1650.42,294.324 1650.86,293.004 1652.4,289.484 C1642.06,291.024 1628.64,291.684 1608.62,291.684 C1595.53,291.684 1588.93,290.804 1583.43,288.494 C1578.59,286.404 1576.39,283.984 1573.64,278.264 L1573.64,256.924 C1573.64,251.424 1573.75,248.674 1574.19,245.264 C1571.55,245.594 1568.91,245.814 1565.72,245.814 L1560,245.814 C1556.04,245.814 1554.06,245.704 1551.53,245.264 L1551.53,252.524 M1699.92,223.484 L1699.92,213.804 C1699.92,209.514 1700.14,206.214 1700.69,202.694 L1692.33,202.694 C1692.88,206.544 1693.1,209.844 1693.1,213.694 L1693.1,223.484 L1676.27,223.484 C1672.31,223.484 1669.23,223.264 1665.93,222.934 C1666.26,225.904 1666.37,228.434 1666.37,231.954 L1666.37,291.024 C1666.37,294.544 1666.15,297.734 1665.71,301.144 L1673.41,301.144 L1673.41,295.314 L1747.33,295.314 L1747.33,301.144 L1755.03,301.144 C1754.59,297.954 1754.37,294.874 1754.37,291.024 L1754.37,231.954 C1754.37,227.994 1754.48,225.904 1754.81,222.934 C1751.4,223.374 1748.43,223.484 1744.47,223.484 L1726.21,223.484 L1726.21,213.804 C1726.21,209.624 1726.43,206.214 1726.98,202.694 L1718.62,202.694 C1719.17,206.324 1719.39,209.624 1719.39,213.694 L1719.39,223.484 L1699.92,223.484 M1699.92,288.934 L1699.92,261.104 L1719.39,261.104 L1719.39,288.934 L1699.92,288.934 M1699.92,254.834 L1699.92,229.974 L1719.39,229.974 L1719.39,254.834 L1699.92,254.834 M1693.1,229.974 L1693.1,254.834 L1673.41,254.834 L1673.41,229.974 L1693.1,229.974 M1693.1,261.104 L1693.1,288.934 L1673.41,288.934 L1673.41,261.104 L1693.1,261.104 M1726.21,288.934 L1726.21,261.104 L1747.33,261.104 L1747.33,288.934 L1726.21,288.934 M1726.21,254.834 L1726.21,229.974 L1747.33,229.974 L1747.33,254.834 L1726.21,254.834 "/>
<path class="MeasureNumber" d="M205.924,1043.08 C204.684,1043.84 204.324,1044.32 204.324,1045.12 C204.324,1045.88 204.964,1046.44 205.764,1046.44 C206.804,1046.44 207.404,1045.68 207.524,1044.2 C208.764,1043.2 210.084,1042.76 211.684,1042.76 C214.644,1042.76 216.284,1044.6 216.284,1047.92 C216.284,1053.12 212.924,1057.36 208.804,1057.36 C206.444,1057.36 204.524,1056.24 204.524,1054.92 C204.524,1054.68 204.564,1054.6 204.764,1054.48 C206.044,1053.88 207.084,1053.44 207.084,1051.76 C207.084,1050.48 206.084,1049.52 204.684,1049.52 C202.924,1049.52 201.604,1051 201.604,1052.92 C201.604,1056.44 204.644,1059 208.924,1059 C215.404,1059 220.644,1053.84 220.644,1047.44 C220.644,1043.4 217.564,1040.56 213.204,1040.56 C211.484,1040.56 210.084,1040.92 208.164,1041.88 L210.404,1034.32 C212.524,1034.76 214.204,1034.96 215.644,1034.96 C218.284,1034.96 220.644,1034.12 221.964,1032.72 C222.644,1031.92 223.044,1031.24 223.044,1030.72 C223.044,1030.48 222.924,1030.24 222.764,1030.24 C222.644,1030.24 222.564,1030.28 222.324,1030.4 C221.004,1031.04 219.324,1031.4 217.764,1031.4 C215.364,1031.4 212.524,1031 209.564,1030.24 L205.924,1043.08 "/>
<path class="TieSegment" stroke="#000000" stroke-width="1.76" stroke-linecap="round" stroke-linejoin="round" fill-rule="evenodd" d="M1353.93,749.188 C1369.09,764.432 1414.57,764.432 1429.73,749.188 C1414.57,770.488 1369.09,770.488 1353.93,749.188"/>
<path class="TieSegment" stroke="#000000" stroke-width="1.76" stroke-linecap="round" stroke-linejoin="round" fill-rule="evenodd" d="M710.389,749.188 C725.548,764.432 771.024,764.432 786.182,749.188 C771.024,770.488 725.548,770.488 710.389,749.188"/>
<polyline class="BarLine" fill="none" stroke="#000000" stroke-width="4.54" stroke-linejoin="bevel" points="2749.95,1107.41 2749.95,1210.99"/>
<polyline class="BarLine" fill="none" stroke="#000000" stroke-width="13.86" stroke-linejoin="bevel" points="2767.59,1107.41 2767.59,1210.99"/>
<polyline class="BarLine" fill="none" stroke="#000000" stroke-width="4.54" stroke-linejoin="bevel" points="1098.83,628.614 1098.83,732.186"/>
<polyline class="BarLine" fill="none" stroke="#000000" stroke-width="4.54" stroke-linejoin="bevel" points="1742.38,628.614 1742.38,732.186"/>
<polyline class="BarLine" fill="none" stroke="#000000" stroke-width="4.54" stroke-linejoin="bevel" points="1559.39,1107.41 1559.39,1210.99"/>
<polyline class="BarLine" fill="none" stroke="#000000" stroke-width="4.54" stroke-linejoin="bevel" points="2340.2,628.614 2340.2,732.186"/>
<polyline class="BarLine" fill="none" stroke="#000000" stroke-width="4.54" stroke-linejoin="bevel" points="2137.95,1107.41 2137.95,1210.99"/>
<path class="BarLine" transform="matrix(1.008,0,0,1.008,2727.03,667.8)" d="M10.4,0 C10.4,-2.9 8.1,-5.3 5.2,-5.3 C2.3,-5.3 0,-2.9 0,0 C0,2.9 2.3,5.3 5.2,5.3 C8.1,5.3 10.4,2.9 10.4,0"/>
<path class="BarLine" transform="matrix(1.008,0,0,1.008,2727.03,693)" d="M10.4,0 C10.4,-2.9 8.1,-5.3 5.2,-5.3 C2.3,-5.3 0,-2.9 0,0 C0,2.9 2.3,5.3 5.2,5.3 C8.1,5.3 10.4,2.9 10.4,0"/>
<polyline class="BarLine" fill="none" stroke="#000000" stroke-width="4.54" stroke-linejoin="bevel" points="2749.95,628.614 2749.95,732.186"/>
<polyline class="BarLine" fill="none" stroke="#000000" stroke-width="13.86" stroke-linejoin="bevel" points="2767.59,628.614 2767.59,732.186"/>
<polyline class="BarLine" fill="none" stroke="#000000" stroke-width="4.54" stroke-linejoin="bevel" points="952.855,1107.41 952.855,1210.99"/>
<path class="Accidental" transform="matrix(1.008,0,0,1.008,2391.91,1197)" d="M23.3,-10.5 C23.9,-10.6 24.4,-11.3 24.4,-11.9 L24.4,-17.8 C24.4,-18.8 23.7,-19.2 22.8,-19.2 L19.5,-18.5 L19.5,-33.4 L16.7,-33.4 L16.7,-17.9 L7.8,-16.1 L7.8,-30.2 L5,-30.2 L5,-15.5 L1.1,-14.7 C0.5,-14.6 0,-13.9 0,-13.3 L0,-7.5 C0,-6.4 0.8,-6.1 1.7,-6.1 L5,-6.8 L5,9.7 L1.1,10.5 C0.5,10.6 0,11.3 0,11.9 L0,17.7 C0,18.8 0.8,19.1 1.7,19.1 L5,18.4 L5,33.3 L7.8,33.3 L7.8,17.8 L16.7,16 L16.7,30.1 L19.5,30.1 L19.5,15.4 L23.3,14.7 C23.9,14.6 24.4,13.9 24.4,13.3 L24.4,7.4 C24.4,6.4 23.7,6 22.8,6 L19.5,6.7 L19.5,-9.8 L23.3,-10.5 M7.8,-7.4 L16.7,-9.2 L16.7,7.3 L7.8,9.2 L7.8,-7.4 "/>
<path class="Accidental" transform="matrix(1.008,0,0,1.008,2028.88,1171.8)" d="M16.6,-18.3 C16.4,-18.5 16.1,-18.6 15.7,-18.6 L15.5,-18.5 C15.5,-18.5 15.4,-18.5 15.4,-18.5 L2.8,-15 L2.8,-32.5 L0,-32.5 L0,17 C0,18.1 0.9,18.3 1.8,18.3 L14.4,14.8 L14.4,32.3 L17.1,32.3 C17.1,15.7 17.1,-0.1 17.1,-17.2 C17.1,-17.6 16.9,-18.1 16.6,-18.3 M2.8,9.7 L2.8,-6.7 L14.4,-10 L14.4,6.5 L2.8,9.7 "/>
<path class="Accidental" transform="matrix(1.008,0,0,1.008,2232.72,1171.8)" d="M16.6,-18.3 C16.4,-18.5 16.1,-18.6 15.7,-18.6 L15.5,-18.5 C15.5,-18.5 15.4,-18.5 15.4,-18.5 L2.8,-15 L2.8,-32.5 L0,-32.5 L0,17 C0,18.1 0.9,18.3 1.8,18.3 L14.4,14.8 L14.4,32.3 L17.1,32.3 C17.1,15.7 17.1,-0.1 17.1,-17.2 C17.1,-17.6 16.9,-18.1 16.6,-18.3 M2.8,9.7 L2.8,-6.7 L14.4,-10 L14.4,6.5 L2.8,9.7 "/>
<polyline class="LedgerLine" fill="none" stroke="#000000" stroke-width="4.03" stroke-linejoin="bevel" points="481.493,756 531.878,756"/>
<polyline class="LedgerLine" fill="none" stroke="#000000" stroke-width="4.03" stroke-linejoin="bevel" points="2366.4,756 2416.79,756"/>
<polyline class="LedgerLine" fill="none" stroke="#000000" stroke-width="4.03" stroke-linejoin="bevel" points="1125.04,756 1175.42,756"/>
<polyline class="Stem" fill="none" stroke="#000000" stroke-width="2.77" stroke-linejoin="bevel" points="2083.77,1167.77 2083.77,1102.6"/>
<polyline class="Stem" fill="none" stroke="#000000" stroke-width="2.77" stroke-linejoin="bevel" points="885.421,739.368 885.421,655.2"/>
<polyline class="Stem" fill="none" stroke="#000000" stroke-width="2.77" stroke-linejoin="bevel" points="2000.5,1180.37 2000.5,1108.7"/>
<polyline class="Stem" fill="none" stroke="#000000" stroke-width="2.77" stroke-linejoin="bevel" points="1286.47,739.368 1286.47,661.396"/>
<polyline class="Stem" fill="none" stroke="#000000" stroke-width="2.77" stroke-linejoin="bevel" points="1875.59,1180.37 1875.59,1096.2"/>
<polyline class="Stem" fill="none" stroke="#000000" stroke-width="2.77" stroke-linejoin="bevel" points="1750.68,1180.37 1750.68,1096.2"/>
<polyline class="Stem" fill="none" stroke="#000000" stroke-width="2.77" stroke-linejoin="bevel" points="1367.3,726.768 1367.3,655.304"/>
<polyline class="Stem" fill="none" stroke="#000000" stroke-width="2.77" stroke-linejoin="bevel" points="1625.77,1180.37 1625.77,1096.2"/>
<polyline class="Stem" fill="none" stroke="#000000" stroke-width="2.77" stroke-linejoin="bevel" points="1448.13,726.768 1448.13,655.2"/>
<polyline class="Stem" fill="none" stroke="#000000" stroke-width="2.77" stroke-linejoin="bevel" points="1316.89,1150.83 1316.89,1228.5"/>
<polyline class="Stem" fill="none" stroke="#000000" stroke-width="2.77" stroke-linejoin="bevel" points="2454.15,1192.97 2454.15,1108.7"/>
<polyline class="Stem" fill="none" stroke="#000000" stroke-width="2.77" stroke-linejoin="bevel" points="1528.97,739.368 1528.97,655.2"/>
<polyline class="Stem" fill="none" stroke="#000000" stroke-width="2.77" stroke-linejoin="bevel" points="1263.59,1155.17 1263.59,1090"/>
<polyline class="Stem" fill="none" stroke="#000000" stroke-width="2.77" stroke-linejoin="bevel" points="1609.8,726.768 1609.8,655.2"/>
<polyline class="Stem" fill="none" stroke="#000000" stroke-width="2.77" stroke-linejoin="bevel" points="521.672,751.968 521.672,667.8"/>
<polyline class="Stem" fill="none" stroke="#000000" stroke-width="2.77" stroke-linejoin="bevel" points="1690.63,739.368 1690.63,655.2"/>
<polyline class="Stem" fill="none" stroke="#000000" stroke-width="2.77" stroke-linejoin="bevel" points="1180.32,1167.77 1180.32,1096.1"/>
<polyline class="Stem" fill="none" stroke="#000000" stroke-width="2.77" stroke-linejoin="bevel" points="1094.83,1163.43 1094.83,1234.72"/>
<polyline class="Stem" fill="none" stroke="#000000" stroke-width="2.77" stroke-linejoin="bevel" points="1047.09,739.368 1047.09,655.2"/>
<polyline class="Stem" fill="none" stroke="#000000" stroke-width="2.77" stroke-linejoin="bevel" points="1808.76,701.568 1808.76,617.4"/>
<polyline class="Stem" fill="none" stroke="#000000" stroke-width="2.77" stroke-linejoin="bevel" points="2204.34,1155.17 2204.34,1090"/>
<polyline class="Stem" fill="none" stroke="#000000" stroke-width="2.77" stroke-linejoin="bevel" points="1930.01,701.568 1930.01,617.4"/>
<polyline class="Stem" fill="none" stroke="#000000" stroke-width="2.77" stroke-linejoin="bevel" points="989.269,1150.83 989.269,1228.58"/>
<polyline class="Stem" fill="none" stroke="#000000" stroke-width="2.77" stroke-linejoin="bevel" points="2051.26,701.568 2051.26,630.083"/>
<polyline class="Stem" fill="none" stroke="#000000" stroke-width="2.77" stroke-linejoin="bevel" points="642.921,739.368 642.921,661.396"/>
<polyline class="Stem" fill="none" stroke="#000000" stroke-width="2.77" stroke-linejoin="bevel" points="827.065,1150.83 827.065,1228.5"/>
<polyline class="Stem" fill="none" stroke="#000000" stroke-width="2.77" stroke-linejoin="bevel" points="2370.88,1180.37 2370.88,1102.47"/>
<polyline class="Stem" fill="none" stroke="#000000" stroke-width="2.77" stroke-linejoin="bevel" points="2153.73,714.168 2153.73,636.217"/>
<polyline class="Stem" fill="none" stroke="#000000" stroke-width="2.77" stroke-linejoin="bevel" points="702.156,1150.83 702.156,1228.5"/>
<polyline class="Stem" fill="none" stroke="#000000" stroke-width="2.77" stroke-linejoin="bevel" points="2207.62,726.768 2207.62,655.304"/>
<polyline class="Stem" fill="none" stroke="#000000" stroke-width="2.77" stroke-linejoin="bevel" points="577.248,1150.83 577.248,1228.5"/>
<polyline class="Stem" fill="none" stroke="#000000" stroke-width="2.77" stroke-linejoin="bevel" points="452.34,1150.83 452.34,1228.5"/>
<polyline class="Stem" fill="none" stroke="#000000" stroke-width="2.77" stroke-linejoin="bevel" points="2288.45,739.368 2288.45,661.396"/>
<polyline class="Stem" fill="none" stroke="#000000" stroke-width="2.77" stroke-linejoin="bevel" points="2537.43,1180.37 2537.43,1096.2"/>
<polyline class="Stem" fill="none" stroke="#000000" stroke-width="2.77" stroke-linejoin="bevel" points="966.254,726.768 966.254,655.2"/>
<polyline class="Stem" fill="none" stroke="#000000" stroke-width="2.77" stroke-linejoin="bevel" points="723.755,726.768 723.755,655.304"/>
<polyline class="Stem" fill="none" stroke="#000000" stroke-width="2.77" stroke-linejoin="bevel" points="2287.61,1167.77 2287.61,1096.23"/>
<polyline class="Stem" fill="none" stroke="#000000" stroke-width="2.77" stroke-linejoin="bevel" points="804.588,726.768 804.588,655.2"/>
<polyline class="Stem" fill="none" stroke="#000000" stroke-width="2.77" stroke-linejoin="bevel" points="2406.58,751.968 2406.58,667.8"/>
<polyline class="Stem" fill="none" stroke="#000000" stroke-width="2.77" stroke-linejoin="bevel" points="1165.22,751.968 1165.22,667.8"/>
<path class="Note" transform="matrix(1.008,0,0,1.008,2375.22,756)" d="M21.3,-13.2 C11.6,-13.2 0,-5.1 0,4.2 C0,8.5 3.1,13.3 11.2,13.3 C21.6,13.3 32.5,4.8 32.5,-4 C32.5,-9.9 27.5,-13.2 21.3,-13.2 M7.5,8.6 C4.2,8.6 3.5,5.9 3.5,5 C3.5,0.1 20.3,-8.5 25,-8.5 C27.4,-8.5 29,-7.1 29,-4.9 C29,0.1 12.1,8.6 7.5,8.6"/>
<path class="Note" transform="matrix(1.008,0,0,1.008,2422.8,1197)" d="M0,4.2 C0,8.5 3.1,13.3 11.2,13.3 C21.6,13.3 32.5,4.8 32.5,-4 C32.5,-9.9 27.5,-13.2 21.3,-13.2 C11.6,-13.2 0,-5 0,4.2"/>
<path class="Note" transform="matrix(1.008,0,0,1.008,2172.98,1159.2)" d="M0,4.2 C0,8.5 3.1,13.3 11.2,13.3 C21.6,13.3 32.5,4.8 32.5,-4 C32.5,-9.9 27.5,-13.2 21.3,-13.2 C11.6,-13.2 0,-5 0,4.2"/>
<path class="Note" transform="matrix(1.008,0,0,1.008,854.063,743.4)" d="M0,4.2 C0,8.5 3.1,13.3 11.2,13.3 C21.6,13.3 32.5,4.8 32.5,-4 C32.5,-9.9 27.5,-13.2 21.3,-13.2 C11.6,-13.2 0,-5 0,4.2"/>
<path class="Note" transform="matrix(1.008,0,0,1.008,692.396,730.8)" d="M0,4.2 C0,8.5 3.1,13.3 11.2,13.3 C21.6,13.3 32.5,4.8 32.5,-4 C32.5,-9.9 27.5,-13.2 21.3,-13.2 C11.6,-13.2 0,-5 0,4.2"/>
<path class="Note" transform="matrix(1.008,0,0,1.008,2256.25,1171.8)" d="M0,4.2 C0,8.5 3.1,13.3 11.2,13.3 C21.6,13.3 32.5,4.8 32.5,-4 C32.5,-9.9 27.5,-13.2 21.3,-13.2 C11.6,-13.2 0,-5 0,4.2"/>
<path class="Note" transform="matrix(1.008,0,0,1.008,2257.1,743.4)" d="M0,4.2 C0,8.5 3.1,13.3 11.2,13.3 C21.6,13.3 32.5,4.8 32.5,-4 C32.5,-9.9 27.5,-13.2 21.3,-13.2 C11.6,-13.2 0,-5 0,4.2"/>
<path class="Note" transform="matrix(1.008,0,0,1.008,611.563,743.4)" d="M0,4.2 C0,8.5 3.1,13.3 11.2,13.3 C21.6,13.3 32.5,4.8 32.5,-4 C32.5,-9.9 27.5,-13.2 21.3,-13.2 C11.6,-13.2 0,-5 0,4.2"/>
<path class="Note" transform="matrix(1.008,0,0,1.008,934.896,730.8)" d="M0,4.2 C0,8.5 3.1,13.3 11.2,13.3 C21.6,13.3 32.5,4.8 32.5,-4 C32.5,-9.9 27.5,-13.2 21.3,-13.2 C11.6,-13.2 0,-5 0,4.2"/>
<path class="Note" transform="matrix(1.008,0,0,1.008,450.954,1146.6)" d="M0,4.2 C0,8.5 3.1,13.3 11.2,13.3 C21.6,13.3 32.5,4.8 32.5,-4 C32.5,-9.9 27.5,-13.2 21.3,-13.2 C11.6,-13.2 0,-5 0,4.2"/>
<path class="Note" transform="matrix(1.008,0,0,1.008,2176.26,730.8)" d="M0,4.2 C0,8.5 3.1,13.3 11.2,13.3 C21.6,13.3 32.5,4.8 32.5,-4 C32.5,-9.9 27.5,-13.2 21.3,-13.2 C11.6,-13.2 0,-5 0,4.2"/>
<path class="Note" transform="matrix(1.008,0,0,1.008,575.862,1146.6)" d="M0,4.2 C0,8.5 3.1,13.3 11.2,13.3 C21.6,13.3 32.5,4.8 32.5,-4 C32.5,-9.9 27.5,-13.2 21.3,-13.2 C11.6,-13.2 0,-5 0,4.2"/>
<path class="Note" transform="matrix(1.008,0,0,1.008,2122.37,718.2)" d="M0,4.2 C0,8.5 3.1,13.3 11.2,13.3 C21.6,13.3 32.5,4.8 32.5,-4 C32.5,-9.9 27.5,-13.2 21.3,-13.2 C11.6,-13.2 0,-5 0,4.2"/>
<path class="Note" transform="matrix(1.008,0,0,1.008,700.77,1146.6)" d="M0,4.2 C0,8.5 3.1,13.3 11.2,13.3 C21.6,13.3 32.5,4.8 32.5,-4 C32.5,-9.9 27.5,-13.2 21.3,-13.2 C11.6,-13.2 0,-5 0,4.2"/>
<path class="Note" transform="matrix(1.008,0,0,1.008,2339.52,1184.4)" d="M0,4.2 C0,8.5 3.1,13.3 11.2,13.3 C21.6,13.3 32.5,4.8 32.5,-4 C32.5,-9.9 27.5,-13.2 21.3,-13.2 C11.6,-13.2 0,-5 0,4.2"/>
<path class="Note" transform="matrix(1.008,0,0,1.008,825.679,1146.6)" d="M0,4.2 C0,8.5 3.1,13.3 11.2,13.3 C21.6,13.3 32.5,4.8 32.5,-4 C32.5,-9.9 27.5,-13.2 21.3,-13.2 C11.6,-13.2 0,-5 0,4.2"/>
<path class="Note" transform="matrix(1.008,0,0,1.008,1969.14,1184.4)" d="M0,4.2 C0,8.5 3.1,13.3 11.2,13.3 C21.6,13.3 32.5,4.8 32.5,-4 C32.5,-9.9 27.5,-13.2 21.3,-13.2 C11.6,-13.2 0,-5 0,4.2"/>
<path class="Note" transform="matrix(1.008,0,0,1.008,1133.86,756)" d="M0,4.2 C0,8.5 3.1,13.3 11.2,13.3 C21.6,13.3 32.5,4.8 32.5,-4 C32.5,-9.9 27.5,-13.2 21.3,-13.2 C11.6,-13.2 0,-5 0,4.2"/>
<path class="Note" transform="matrix(1.008,0,0,1.008,2019.9,705.6)" d="M0,4.2 C0,8.5 3.1,13.3 11.2,13.3 C21.6,13.3 32.5,4.8 32.5,-4 C32.5,-9.9 27.5,-13.2 21.3,-13.2 C11.6,-13.2 0,-5 0,4.2"/>
<path class="Note" transform="matrix(1.008,0,0,1.008,2506.07,1184.4)" d="M0,4.2 C0,8.5 3.1,13.3 11.2,13.3 C21.6,13.3 32.5,4.8 32.5,-4 C32.5,-9.9 27.5,-13.2 21.3,-13.2 C11.6,-13.2 0,-5 0,4.2"/>
<path class="Note" transform="matrix(1.008,0,0,1.008,1898.65,705.6)" d="M0,4.2 C0,8.5 3.1,13.3 11.2,13.3 C21.6,13.3 32.5,4.8 32.5,-4 C32.5,-9.9 27.5,-13.2 21.3,-13.2 C11.6,-13.2 0,-5 0,4.2"/>
<path class="Note" transform="matrix(1.008,0,0,1.008,987.883,1146.6)" d="M0,4.2 C0,8.5 3.1,13.3 11.2,13.3 C21.6,13.3 32.5,4.8 32.5,-4 C32.5,-9.9 27.5,-13.2 21.3,-13.2 C11.6,-13.2 0,-5 0,4.2"/>
<path class="Note" transform="matrix(1.008,0,0,1.008,1777.4,705.6)" d="M0,4.2 C0,8.5 3.1,13.3 11.2,13.3 C21.6,13.3 32.5,4.8 32.5,-4 C32.5,-9.9 27.5,-13.2 21.3,-13.2 C11.6,-13.2 0,-5 0,4.2"/>
<path class="Note" transform="matrix(1.008,0,0,1.008,490.313,756)" d="M0,4.2 C0,8.5 3.1,13.3 11.2,13.3 C21.6,13.3 32.5,4.8 32.5,-4 C32.5,-9.9 27.5,-13.2 21.3,-13.2 C11.6,-13.2 0,-5 0,4.2"/>
<path class="Note" transform="matrix(1.008,0,0,1.008,1015.73,743.4)" d="M0,4.2 C0,8.5 3.1,13.3 11.2,13.3 C21.6,13.3 32.5,4.8 32.5,-4 C32.5,-9.9 27.5,-13.2 21.3,-13.2 C11.6,-13.2 0,-5 0,4.2"/>
<path class="Note" transform="matrix(1.008,0,0,1.008,1093.44,1159.2)" d="M0,4.2 C0,8.5 3.1,13.3 11.2,13.3 C21.6,13.3 32.5,4.8 32.5,-4 C32.5,-9.9 27.5,-13.2 21.3,-13.2 C11.6,-13.2 0,-5 0,4.2"/>
<path class="Note" transform="matrix(1.008,0,0,1.008,1659.27,743.4)" d="M0,4.2 C0,8.5 3.1,13.3 11.2,13.3 C21.6,13.3 32.5,4.8 32.5,-4 C32.5,-9.9 27.5,-13.2 21.3,-13.2 C11.6,-13.2 0,-5 0,4.2"/>
<path class="Note" transform="matrix(1.008,0,0,1.008,1148.96,1171.8)" d="M0,4.2 C0,8.5 3.1,13.3 11.2,13.3 C21.6,13.3 32.5,4.8 32.5,-4 C32.5,-9.9 27.5,-13.2 21.3,-13.2 C11.6,-13.2 0,-5 0,4.2"/>
<path class="Note" transform="matrix(1.008,0,0,1.008,1578.44,730.8)" d="M0,4.2 C0,8.5 3.1,13.3 11.2,13.3 C21.6,13.3 32.5,4.8 32.5,-4 C32.5,-9.9 27.5,-13.2 21.3,-13.2 C11.6,-13.2 0,-5 0,4.2"/>
<path class="Note" transform="matrix(1.008,0,0,1.008,1497.61,743.4)" d="M0,4.2 C0,8.5 3.1,13.3 11.2,13.3 C21.6,13.3 32.5,4.8 32.5,-4 C32.5,-9.9 27.5,-13.2 21.3,-13.2 C11.6,-13.2 0,-5 0,4.2"/>
<path class="Note" transform="matrix(1.008,0,0,1.008,1232.23,1159.2)" d="M0,4.2 C0,8.5 3.1,13.3 11.2,13.3 C21.6,13.3 32.5,4.8 32.5,-4 C32.5,-9.9 27.5,-13.2 21.3,-13.2 C11.6,-13.2 0,-5 0,4.2"/>
<path class="Note" transform="matrix(1.008,0,0,1.008,1416.77,730.8)" d="M0,4.2 C0,8.5 3.1,13.3 11.2,13.3 C21.6,13.3 32.5,4.8 32.5,-4 C32.5,-9.9 27.5,-13.2 21.3,-13.2 C11.6,-13.2 0,-5 0,4.2"/>
<path class="Note" transform="matrix(1.008,0,0,1.008,1315.5,1146.6)" d="M0,4.2 C0,8.5 3.1,13.3 11.2,13.3 C21.6,13.3 32.5,4.8 32.5,-4 C32.5,-9.9 27.5,-13.2 21.3,-13.2 C11.6,-13.2 0,-5 0,4.2"/>
<path class="Note" transform="matrix(1.008,0,0,1.008,1844.23,1184.4)" d="M0,4.2 C0,8.5 3.1,13.3 11.2,13.3 C21.6,13.3 32.5,4.8 32.5,-4 C32.5,-9.9 27.5,-13.2 21.3,-13.2 C11.6,-13.2 0,-5 0,4.2"/>
<path class="Note" transform="matrix(1.008,0,0,1.008,2052.41,1171.8)" d="M0,4.2 C0,8.5 3.1,13.3 11.2,13.3 C21.6,13.3 32.5,4.8 32.5,-4 C32.5,-9.9 27.5,-13.2 21.3,-13.2 C11.6,-13.2 0,-5 0,4.2"/>
<path class="Note" transform="matrix(1.008,0,0,1.008,1255.11,743.4)" d="M0,4.2 C0,8.5 3.1,13.3 11.2,13.3 C21.6,13.3 32.5,4.8 32.5,-4 C32.5,-9.9 27.5,-13.2 21.3,-13.2 C11.6,-13.2 0,-5 0,4.2"/>
<path class="Note" transform="matrix(1.008,0,0,1.008,1719.32,1184.4)" d="M0,4.2 C0,8.5 3.1,13.3 11.2,13.3 C21.6,13.3 32.5,4.8 32.5,-4 C32.5,-9.9 27.5,-13.2 21.3,-13.2 C11.6,-13.2 0,-5 0,4.2"/>
<path class="Note" transform="matrix(1.008,0,0,1.008,1335.94,730.8)" d="M0,4.2 C0,8.5 3.1,13.3 11.2,13.3 C21.6,13.3 32.5,4.8 32.5,-4 C32.5,-9.9 27.5,-13.2 21.3,-13.2 C11.6,-13.2 0,-5 0,4.2"/>
<path class="Note" transform="matrix(1.008,0,0,1.008,1594.41,1184.4)" d="M0,4.2 C0,8.5 3.1,13.3 11.2,13.3 C21.6,13.3 32.5,4.8 32.5,-4 C32.5,-9.9 27.5,-13.2 21.3,-13.2 C11.6,-13.2 0,-5 0,4.2"/>
<path class="Note" transform="matrix(1.008,0,0,1.008,773.229,730.8)" d="M0,4.2 C0,8.5 3.1,13.3 11.2,13.3 C21.6,13.3 32.5,4.8 32.5,-4 C32.5,-9.9 27.5,-13.2 21.3,-13.2 C11.6,-13.2 0,-5 0,4.2"/>
<path class="Clef" transform="matrix(1.008,0,0,1.008,221.76,705.6)" d="M12.3,51.3 C12.3,57.9 17.3,66.6 30.8,66.6 C35.5,66.6 39.6,65.4 43.2,63.2 C48.6,59.4 50,52.8 50,46.5 C50,42.6 49.4,38.1 48.4,32.4 C48.1,30.4 47.5,27.4 46.9,23.5 C56.7,20.3 64,10.1 64,-0.2 C64,-15.3 53.3,-25.5 38.7,-25.5 C37.7,-31.5 36.7,-37.4 35.9,-43 C46.4,-54.1 53.7,-66.6 53.7,-82.5 C53.7,-91.6 50.9,-99 49.3,-102.6 C46.9,-107.7 44,-111.2 42.2,-111.2 C41.5,-111.2 38.4,-110 35.1,-106.1 C28.7,-98.5 26.9,-85.7 26.9,-77.3 C26.9,-71.9 27.4,-67 29.1,-55.8 C29,-55.7 23.8,-50.4 21.7,-48.7 C12.6,-40.3 0,-28.1 0,-8.1 C0,10.6 16.3,25.3 34.9,25.3 C37.8,25.3 40.5,25 42.8,24.6 C44.7,34.2 45.9,41.2 45.9,46.5 C45.9,56.9 40.5,62.4 30.4,62.4 C28,62.4 25.9,61.9 25.7,61.9 C25.6,61.8 25.4,61.7 25.4,61.6 C25.4,61.4 25.6,61.3 25.9,61.3 C30.6,60.5 35.3,56.5 35.3,50.1 C35.3,44.7 31.2,39 23.7,39 C16.7,39 12.3,44.7 12.3,51.3 M33.2,-82.2 C34.1,-86.2 38.7,-96.7 43.9,-96.7 C45.4,-96.7 47.8,-91.9 47.8,-84.9 C47.8,-74.5 40.1,-66.7 33.2,-59.9 C32.6,-63.9 32.1,-67.8 32.1,-72 C32.1,-75.7 32.4,-79.1 33.2,-82.2 M42,20.6 C40,21 38.1,21.2 36.2,21.2 C21.9,21.2 9.7,11.2 9.7,-3.9 C9.7,-16.1 18.3,-27 27.1,-34.6 C28.8,-36.1 30.4,-37.5 31.9,-39 C32.8,-33.6 33.5,-28.9 34.2,-24.8 C25.1,-22.1 18.9,-12.5 18.9,-3.1 C18.9,3.9 24.4,13.5 32.4,13.5 C33.2,13.5 34.1,13.1 34.1,12.2 C34.1,11.3 33.1,10.8 31.9,10 C28,7.6 25.8,5 25.8,0.1 C25.8,-6 30.4,-10.9 36.2,-12.3 L42,20.6 M56.2,2.1 C56.2,9.2 53.3,16.5 46.2,19.4 C44.1,7.4 41.4,-8.5 40.7,-12.9 C49.7,-12.9 56.2,-6.8 56.2,2.1"/>
<path class="Clef" transform="matrix(1.008,0,0,1.008,221.76,1184.4)" d="M12.3,51.3 C12.3,57.9 17.3,66.6 30.8,66.6 C35.5,66.6 39.6,65.4 43.2,63.2 C48.6,59.4 50,52.8 50,46.5 C50,42.6 49.4,38.1 48.4,32.4 C48.1,30.4 47.5,27.4 46.9,23.5 C56.7,20.3 64,10.1 64,-0.2 C64,-15.3 53.3,-25.5 38.7,-25.5 C37.7,-31.5 36.7,-37.4 35.9,-43 C46.4,-54.1 53.7,-66.6 53.7,-82.5 C53.7,-91.6 50.9,-99 49.3,-102.6 C46.9,-107.7 44,-111.2 42.2,-111.2 C41.5,-111.2 38.4,-110 35.1,-106.1 C28.7,-98.5 26.9,-85.7 26.9,-77.3 C26.9,-71.9 27.4,-67 29.1,-55.8 C29,-55.7 23.8,-50.4 21.7,-48.7 C12.6,-40.3 0,-28.1 0,-8.1 C0,10.6 16.3,25.3 34.9,25.3 C37.8,25.3 40.5,25 42.8,24.6 C44.7,34.2 45.9,41.2 45.9,46.5 C45.9,56.9 40.5,62.4 30.4,62.4 C28,62.4 25.9,61.9 25.7,61.9 C25.6,61.8 25.4,61.7 25.4,61.6 C25.4,61.4 25.6,61.3 25.9,61.3 C30.6,60.5 35.3,56.5 35.3,50.1 C35.3,44.7 31.2,39 23.7,39 C16.7,39 12.3,44.7 12.3,51.3 M33.2,-82.2 C34.1,-86.2 38.7,-96.7 43.9,-96.7 C45.4,-96.7 47.8,-91.9 47.8,-84.9 C47.8,-74.5 40.1,-66.7 33.2,-59.9 C32.6,-63.9 32.1,-67.8 32.1,-72 C32.1,-75.7 32.4,-79.1 33.2,-82.2 M42,20.6 C40,21 38.1,21.2 36.2,21.2 C21.9,21.2 9.7,11.2 9.7,-3.9 C9.7,-16.1 18.3,-27 27.1,-34.6 C28.8,-36.1 30.4,-37.5 31.9,-39 C32.8,-33.6 33.5,-28.9 34.2,-24.8 C25.1,-22.1 18.9,-12.5 18.9,-3.1 C18.9,3.9 24.4,13.5 32.4,13.5 C33.2,13.5 34.1,13.1 34.1,12.2 C34.1,11.3 33.1,10.8 31.9,10 C28,7.6 25.8,5 25.8,0.1 C25.8,-6 30.4,-10.9 36.2,-12.3 L42,20.6 M56.2,2.1 C56.2,9.2 53.3,16.5 46.2,19.4 C44.1,7.4 41.4,-8.5 40.7,-12.9 C49.7,-12.9 56.2,-6.8 56.2,2.1"/>
<path class="KeySig" transform="matrix(1.008,0,0,1.008,311.456,680.4)" d="M12,-15.5 C7,-15.5 4.1,-12.4 3.6,-11.8 L4,-43.9 C4,-44.7 3.4,-45.3 2.6,-45.3 L1.4,-45.3 C0.6,-45.3 0,-44.7 0,-43.9 L0.5,16.2 C0.5,17 1.1,17.6 1.9,17.6 C2.1,17.6 2.5,17.5 2.7,17.4 C11.3,13.1 20.3,4.9 20.3,-5.4 C20.3,-10.6 17.9,-15.5 12,-15.5 M3.3,12.7 L3.6,-6.8 C3.8,-7.7 5.3,-10.6 9.3,-10.6 C12.9,-10.6 13.2,-7.2 13.2,-5.1 C13.2,3.8 9.9,7.5 3.3,12.7"/>
<path class="KeySig" transform="matrix(1.008,0,0,1.008,339.476,642.6)" d="M12,-15.5 C7,-15.5 4.1,-12.4 3.6,-11.8 L4,-43.9 C4,-44.7 3.4,-45.3 2.6,-45.3 L1.4,-45.3 C0.6,-45.3 0,-44.7 0,-43.9 L0.5,16.2 C0.5,17 1.1,17.6 1.9,17.6 C2.1,17.6 2.5,17.5 2.7,17.4 C11.3,13.1 20.3,4.9 20.3,-5.4 C20.3,-10.6 17.9,-15.5 12,-15.5 M3.3,12.7 L3.6,-6.8 C3.8,-7.7 5.3,-10.6 9.3,-10.6 C12.9,-10.6 13.2,-7.2 13.2,-5.1 C13.2,3.8 9.9,7.5 3.3,12.7"/>
<path class="KeySig" transform="matrix(1.008,0,0,1.008,367.495,693)" d="M12,-15.5 C7,-15.5 4.1,-12.4 3.6,-11.8 L4,-43.9 C4,-44.7 3.4,-45.3 2.6,-45.3 L1.4,-45.3 C0.6,-45.3 0,-44.7 0,-43.9 L0.5,16.2 C0.5,17 1.1,17.6 1.9,17.6 C2.1,17.6 2.5,17.5 2.7,17.4 C11.3,13.1 20.3,4.9 20.3,-5.4 C20.3,-10.6 17.9,-15.5 12,-15.5 M3.3,12.7 L3.6,-6.8 C3.8,-7.7 5.3,-10.6 9.3,-10.6 C12.9,-10.6 13.2,-7.2 13.2,-5.1 C13.2,3.8 9.9,7.5 3.3,12.7"/>
<path class="KeySig" transform="matrix(1.008,0,0,1.008,311.456,1159.2)" d="M12,-15.5 C7,-15.5 4.1,-12.4 3.6,-11.8 L4,-43.9 C4,-44.7 3.4,-45.3 2.6,-45.3 L1.4,-45.3 C0.6,-45.3 0,-44.7 0,-43.9 L0.5,16.2 C0.5,17 1.1,17.6 1.9,17.6 C2.1,17.6 2.5,17.5 2.7,17.4 C11.3,13.1 20.3,4.9 20.3,-5.4 C20.3,-10.6 17.9,-15.5 12,-15.5 M3.3,12.7 L3.6,-6.8 C3.8,-7.7 5.3,-10.6 9.3,-10.6 C12.9,-10.6 13.2,-7.2 13.2,-5.1 C13.2,3.8 9.9,7.5 3.3,12.7"/>
<path class="KeySig" transform="matrix(1.008,0,0,1.008,339.476,1121.4)" d="M12,-15.5 C7,-15.5 4.1,-12.4 3.6,-11.8 L4,-43.9 C4,-44.7 3.4,-45.3 2.6,-45.3 L1.4,-45.3 C0.6,-45.3 0,-44.7 0,-43.9 L0.5,16.2 C0.5,17 1.1,17.6 1.9,17.6 C2.1,17.6 2.5,17.5 2.7,17.4 C11.3,13.1 20.3,4.9 20.3,-5.4 C20.3,-10.6 17.9,-15.5 12,-15.5 M3.3,12.7 L3.6,-6.8 C3.8,-7.7 5.3,-10.6 9.3,-10.6 C12.9,-10.6 13.2,-7.2 13.2,-5.1 C13.2,3.8 9.9,7.5 3.3,12.7"/>
<path class="KeySig" transform="matrix(1.008,0,0,1.008,367.495,1171.8)" d="M12,-15.5 C7,-15.5 4.1,-12.4 3.6,-11.8 L4,-43.9 C4,-44.7 3.4,-45.3 2.6,-45.3 L1.4,-45.3 C0.6,-45.3 0,-44.7 0,-43.9 L0.5,16.2 C0.5,17 1.1,17.6 1.9,17.6 C2.1,17.6 2.5,17.5 2.7,17.4 C11.3,13.1 20.3,4.9 20.3,-5.4 C20.3,-10.6 17.9,-15.5 12,-15.5 M3.3,12.7 L3.6,-6.8 C3.8,-7.7 5.3,-10.6 9.3,-10.6 C12.9,-10.6 13.2,-7.2 13.2,-5.1 C13.2,3.8 9.9,7.5 3.3,12.7"/>
<path class="TimeSig" transform="matrix(1.008,0,0,1.008,411.752,655.2)" d="M20.8,12.7 L20.8,20.1 L12.5,20.1 C11.8,20.1 11.1,20.7 11.1,21.5 L11.1,23.4 C11.1,24.2 11.8,24.8 12.5,24.8 L42.8,24.8 C43.6,24.8 44.2,24.2 44.2,23.4 L44.2,21.5 C44.2,20.7 43.6,20.1 42.8,20.1 L33.9,20.1 L33.9,12.7 L42.8,12.7 C43.6,12.7 44.2,12 44.2,11.2 L44.2,9.3 C44.2,8.6 43.6,7.9 42.8,7.9 L33.9,7.9 L33.9,-8 C33.9,-8.6 33.6,-9.1 33.1,-9.3 L31.9,-9.9 C31.7,-10 31.4,-10.1 31.2,-10.1 C30.9,-10 30.5,-9.9 30.3,-9.7 L21.2,-1.4 C20.9,-1.1 20.8,-0.7 20.8,-0.3 L20.8,7.9 L9.3,7.9 C9.3,7.9 20.4,-4.1 32.2,-19.9 C32.6,-20.4 32.7,-20.9 32.7,-21.3 C32.7,-21.8 32.5,-22.2 32.4,-22.3 L30.2,-24.5 C30,-24.7 29.6,-24.9 29.2,-24.9 C28.6,-24.9 15.1,-24.9 14.4,-24.9 C13.6,-24.9 13.1,-24.3 13,-23.7 C13,-23.7 12.5,-16.3 9.9,-8.2 C7.3,-0.1 4.3,4.9 1.7,8.6 C1.7,8.6 1.4,9.1 1.4,9.7 C1.4,9.9 1.4,10.1 1.5,10.3 C1.9,11 2.5,12.1 2.5,12.1 C2.5,12.1 2.7,12.7 3.6,12.7 L20.8,12.7 "/>
<path class="TimeSig" transform="matrix(1.008,0,0,1.008,411.752,705.6)" d="M20.8,12.7 L20.8,20.1 L12.5,20.1 C11.8,20.1 11.1,20.7 11.1,21.5 L11.1,23.4 C11.1,24.2 11.8,24.8 12.5,24.8 L42.8,24.8 C43.6,24.8 44.2,24.2 44.2,23.4 L44.2,21.5 C44.2,20.7 43.6,20.1 42.8,20.1 L33.9,20.1 L33.9,12.7 L42.8,12.7 C43.6,12.7 44.2,12 44.2,11.2 L44.2,9.3 C44.2,8.6 43.6,7.9 42.8,7.9 L33.9,7.9 L33.9,-8 C33.9,-8.6 33.6,-9.1 33.1,-9.3 L31.9,-9.9 C31.7,-10 31.4,-10.1 31.2,-10.1 C30.9,-10 30.5,-9.9 30.3,-9.7 L21.2,-1.4 C20.9,-1.1 20.8,-0.7 20.8,-0.3 L20.8,7.9 L9.3,7.9 C9.3,7.9 20.4,-4.1 32.2,-19.9 C32.6,-20.4 32.7,-20.9 32.7,-21.3 C32.7,-21.8 32.5,-22.2 32.4,-22.3 L30.2,-24.5 C30,-24.7 29.6,-24.9 29.2,-24.9 C28.6,-24.9 15.1,-24.9 14.4,-24.9 C13.6,-24.9 13.1,-24.3 13,-23.7 C13,-23.7 12.5,-16.3 9.9,-8.2 C7.3,-0.1 4.3,4.9 1.7,8.6 C1.7,8.6 1.4,9.1 1.4,9.7 C1.4,9.9 1.4,10.1 1.5,10.3 C1.9,11 2.5,12.1 2.5,12.1 C2.5,12.1 2.7,12.7 3.6,12.7 L20.8,12.7 "/>
<path class="Rest" transform="matrix(1.008,0,0,1.008,2605.78,680.4)" d="M23,16.6 C22.9,16.5 22.7,16.3 22.4,15.9 L10.9,1.7 C10.8,1.6 10.7,1.3 10.7,1.1 C10.7,0.8 10.8,0.4 10.9,0.2 L21.1,-15.2 C21.2,-15.4 21.3,-15.7 21.3,-15.9 L21.3,-16.8 C21.3,-17.1 21.2,-17.4 21,-17.6 L4.8,-39.5 C4.8,-39.5 4.4,-40.1 3.8,-40.1 C3.5,-40.1 3.3,-40.1 3,-39.8 C2.6,-39.5 2.5,-39.1 2.5,-38.8 C2.5,-38.2 2.8,-37.7 2.8,-37.7 L10.4,-27.3 C10.6,-27 10.7,-26.6 10.7,-26.1 C10.7,-25.7 10.6,-25.2 10.4,-24.9 L0.3,-9.5 C0.2,-9.3 0.1,-8.9 0.1,-8.7 L0.1,-7.8 C0.1,-7.5 0.2,-7.2 0.4,-7 L11.6,6.9 C11.2,6.8 10.3,6.6 9.1,6.6 C4,6.6 0,10.8 0,15.9 C0,17.3 0.3,18.7 1.1,19.8 C3.2,23 10.7,32.5 10.7,32.5 C10.7,32.5 11.2,33.1 11.9,33.1 C12.1,33.1 12.3,33.1 12.5,32.9 C13,32.5 13.2,32.1 13.2,31.7 C13.2,31.3 13,31 12.9,30.8 C12.6,30.3 9.4,24.5 9.4,24.5 C9.4,24.5 8.7,23.1 8.7,21.3 C8.7,18.1 11.1,15.5 14.3,15.5 C15.6,15.5 16.7,15.9 17.5,16.4 L21.4,18.9 C21.4,18.9 21.8,19.1 22.2,19.1 C22.6,19.1 22.9,19 23.2,18.6 C23.4,18.3 23.5,18 23.5,17.7 C23.5,17.4 23.4,17.2 23.2,16.9 L23,16.6 "/>
<path class="Rest" transform="matrix(1.008,0,0,1.008,1473.85,1159.2)" d="M26.7,-20.3 C26.6,-20.3 26.4,-20.4 26.3,-20.4 C25.7,-20.4 25.2,-20.1 25,-19.6 C22.7,-15 17.9,-8.8 12.5,-7.8 C13.6,-9.1 14.3,-10.7 14.3,-12.6 C14.3,-16.5 11.1,-19.7 7.2,-19.7 C3.2,-19.7 0,-16.5 0,-12.6 C0,-7.2 5.3,-4.7 10,-4.7 C15.3,-4.7 18.8,-7.2 22.2,-10.9 L10.8,24.7 L13.5,25.5 L27.5,-18.6 C27.6,-18.7 27.6,-18.9 27.6,-19.1 C27.6,-19.6 27.3,-20 26.7,-20.3"/>
<path class="Rest" transform="matrix(1.008,0,0,1.008,2664.41,1159.2)" d="M26.7,-20.3 C26.6,-20.3 26.4,-20.4 26.3,-20.4 C25.7,-20.4 25.2,-20.1 25,-19.6 C22.7,-15 17.9,-8.8 12.5,-7.8 C13.6,-9.1 14.3,-10.7 14.3,-12.6 C14.3,-16.5 11.1,-19.7 7.2,-19.7 C3.2,-19.7 0,-16.5 0,-12.6 C0,-7.2 5.3,-4.7 10,-4.7 C15.3,-4.7 18.8,-7.2 22.2,-10.9 L10.8,24.7 L13.5,25.5 L27.5,-18.6 C27.6,-18.7 27.6,-18.9 27.6,-19.1 C27.6,-19.6 27.3,-20 26.7,-20.3"/>
<path class="Beam" fill-rule="evenodd" d="M1999.11,1102.48 L2085.15,1096.18 L2085.15,1108.82 L1999.11,1115.12 L1999.11,1102.48 "/>
<path class="Beam" fill-rule="evenodd" d="M1178.93,1089.88 L1264.98,1083.58 L1264.98,1096.22 L1178.93,1102.52 L1178.93,1089.88 "/>
<path class="Beam" fill-rule="evenodd" d="M987.883,1222.19 L1096.22,1228.49 L1096.22,1241.11 L987.883,1234.81 L987.883,1222.19 "/>
<path class="Beam" fill-rule="evenodd" d="M1096.22,1209.59 L1063.46,1207.68 L1063.46,1220.31 L1096.22,1222.21 L1096.22,1209.59 "/>
<path class="Beam" fill-rule="evenodd" d="M2202.95,1083.58 L2455.54,1102.48 L2455.54,1115.12 L2202.95,1096.22 L2202.95,1083.58 "/>
<path class="Beam" fill-rule="evenodd" d="M2206.23,648.882 L2289.84,655.182 L2289.84,667.818 L2206.23,661.518 L2206.23,648.882 "/>
<path class="Beam" fill-rule="evenodd" d="M2049.88,623.689 L2155.12,629.989 L2155.12,642.611 L2049.88,636.311 L2049.88,623.689 "/>
<path class="Beam" fill-rule="evenodd" d="M2155.12,648.889 L2122.36,646.928 L2122.36,659.55 L2155.12,661.511 L2155.12,648.889 "/>
<path class="Beam" fill-rule="evenodd" d="M1446.75,648.9 L1692.02,648.9 L1692.02,661.5 L1446.75,661.5 L1446.75,648.9 "/>
<path class="Beam" fill-rule="evenodd" d="M1285.08,655.182 L1368.69,648.882 L1368.69,661.518 L1285.08,667.818 L1285.08,655.182 "/>
<path class="Beam" fill-rule="evenodd" d="M803.202,648.9 L1048.47,648.9 L1048.47,661.5 L803.202,661.5 L803.202,648.9 "/>
<path class="Beam" fill-rule="evenodd" d="M641.535,655.182 L725.141,648.882 L725.141,661.518 L641.535,667.818 L641.535,655.182 "/>
<path class="Marker" d="M2695.63,539.89 L2662.9,539.89 L2662.9,542.475 L2663.89,542.475 C2667.03,542.53 2668.07,542.695 2668.51,543.245 C2668.84,543.74 2668.84,543.85 2668.84,546.655 L2668.84,572.835 C2668.84,575.64 2668.84,575.75 2668.51,576.245 C2668.07,576.795 2667.03,577.015 2663.89,577.015 L2662.9,577.015 L2662.9,579.6 L2681.77,579.6 L2681.77,577.015 L2679.95,577.015 C2676.82,577.015 2675.77,576.795 2675.33,576.245 C2675,575.75 2675,575.585 2675,572.835 L2675,560.35 L2676.1,560.35 C2681.77,560.13 2683.8,562.165 2684.02,568.27 L2686.61,568.27 L2686.61,550.23 L2684.02,550.23 C2683.69,555.62 2681.55,557.71 2676.32,557.765 L2675,557.765 L2675,545.225 C2674.95,542.915 2675.5,542.53 2678.47,542.475 L2681,542.475 C2690.02,542.42 2692.27,544.455 2693.98,553.915 L2696.4,553.915 L2695.63,539.89 M2707.54,540.275 C2705.78,540.275 2704.35,541.705 2704.35,543.465 C2704.35,545.225 2705.78,546.655 2707.48,546.655 C2709.3,546.655 2710.73,545.225 2710.73,543.465 C2710.73,541.705 2709.3,540.275 2707.54,540.275 M2710.12,553.97 L2699.78,554.575 L2699.78,556.94 L2702.59,556.94 C2704.68,556.995 2704.95,557.325 2704.95,559.69 L2704.95,575.42 C2704.9,576.245 2704.84,576.575 2704.62,576.85 C2704.24,577.345 2703.19,577.565 2700.83,577.62 L2700.44,577.62 L2700.44,579.6 L2714.69,579.6 L2714.69,577.62 L2714.3,577.62 C2710.62,577.51 2710.12,577.235 2710.12,575.255 L2710.12,553.97 M2727.1,553.97 L2717.59,554.575 L2717.59,556.94 L2719.57,556.94 C2721.66,556.995 2721.93,557.325 2721.93,559.69 L2721.93,575.42 C2721.88,576.245 2721.82,576.575 2721.6,576.85 C2721.22,577.345 2720.17,577.565 2717.81,577.62 L2717.59,577.62 L2717.59,579.6 L2731.5,579.6 L2731.5,577.62 L2731.28,577.62 C2727.6,577.51 2727.1,577.235 2727.1,575.255 L2727.1,567.115 C2727.1,564.42 2727.49,561.945 2728.09,560.68 C2729.25,558.205 2731.72,556.5 2734.09,556.5 C2735.52,556.5 2737.17,557.27 2737.99,558.425 C2738.82,559.635 2739.2,561.285 2739.2,563.925 L2739.2,575.42 C2739.15,576.245 2739.09,576.575 2738.87,576.85 C2738.49,577.345 2737.39,577.565 2735.02,577.62 L2734.8,577.62 L2734.8,579.6 L2748.72,579.6 L2748.72,577.62 L2748.5,577.62 C2744.87,577.51 2744.37,577.235 2744.37,575.255 L2744.37,564.2 C2744.37,560.24 2744.21,559.25 2743.22,557.38 C2741.84,554.74 2739.09,553.145 2735.79,553.145 C2732.22,553.145 2729.52,554.795 2727.1,558.425 L2727.1,553.97 M2775.27,567.225 C2775.33,558.975 2770.65,553.145 2763.94,553.145 C2756.9,553.145 2751.62,559.25 2751.62,567.5 C2751.62,575.255 2756.63,580.425 2764.05,580.425 C2769.33,580.425 2773.02,577.84 2775.27,572.615 L2773.35,571.57 C2771.09,575.805 2768.78,577.455 2765.1,577.455 C2762.29,577.455 2760.26,576.3 2758.83,573.825 C2757.84,572.175 2757.4,570.25 2757.45,567.225 L2775.27,567.225 M2757.51,564.86 C2757.51,561.01 2759.27,555.51 2763.89,555.51 C2767.19,555.51 2769.39,558.425 2769.39,562.88 C2769.39,564.42 2768.89,564.86 2767.13,564.86 L2757.51,564.86 "/>
<path class="Jump" d="M2471.41,1058.4 L2489.89,1058.4 C2494.78,1058.4 2498.52,1057.63 2501.44,1055.98 C2506.99,1052.85 2510.07,1046.58 2510.07,1038.33 C2510.07,1030.74 2507.32,1024.8 2502.26,1021.5 C2499.24,1019.57 2495.17,1018.69 2488.9,1018.69 L2471.41,1018.69 L2471.41,1021.28 L2472.45,1021.28 C2475.53,1021.33 2476.58,1021.5 2477.02,1022.05 C2477.35,1022.54 2477.35,1022.65 2477.35,1025.46 L2477.35,1051.63 C2477.35,1054.44 2477.35,1054.55 2477.02,1055.05 C2476.58,1055.6 2475.53,1055.76 2472.45,1055.82 L2471.41,1055.82 L2471.41,1058.4 M2486.64,1055.82 C2483.84,1055.82 2483.51,1055.49 2483.51,1052.79 L2483.51,1024.36 C2483.51,1021.66 2483.89,1021.28 2486.64,1021.28 L2489.5,1021.28 C2498.91,1021.28 2502.81,1026.39 2502.81,1038.55 C2502.81,1050.87 2499.29,1055.82 2490.38,1055.82 L2486.64,1055.82 M2520.13,1052.3 C2518.2,1052.3 2516.66,1053.84 2516.66,1055.71 C2516.66,1057.63 2518.2,1059.17 2520.07,1059.17 C2522,1059.17 2523.54,1057.63 2523.54,1055.71 C2523.54,1053.84 2522,1052.3 2520.13,1052.3 M2563.02,1018.31 L2560.93,1018.31 L2558.73,1021.55 C2554.72,1018.64 2552.68,1017.87 2548.89,1017.87 C2543.66,1017.87 2539.21,1020.07 2535.52,1024.47 C2532,1028.64 2530.35,1033.27 2530.35,1038.93 C2530.35,1050.81 2538.11,1059.23 2548.94,1059.23 C2557.74,1059.23 2563.35,1054.06 2564.62,1044.82 L2562.03,1044.38 C2560.55,1052.57 2556.37,1056.64 2549.6,1056.64 C2541.46,1056.64 2537.61,1051.03 2537.61,1039.15 C2537.61,1032.88 2538.44,1028.76 2540.31,1025.46 C2542.01,1022.38 2545.37,1020.45 2548.94,1020.45 C2552.79,1020.45 2556.2,1022.49 2558.29,1026.01 C2559.34,1027.82 2560.11,1029.86 2561.43,1034.2 L2563.85,1034.2 L2563.02,1018.31 M2574.83,1052.3 C2572.91,1052.3 2571.37,1053.84 2571.37,1055.71 C2571.37,1057.63 2572.91,1059.17 2574.78,1059.17 C2576.7,1059.17 2578.24,1057.63 2578.24,1055.71 C2578.24,1053.84 2576.7,1052.3 2574.83,1052.3 M2622.72,1040.69 C2622.72,1037.23 2622.11,1035.47 2620.52,1034.14 C2618.7,1032.66 2616.01,1031.95 2612.49,1031.95 C2606.27,1031.95 2601.76,1034.86 2601.76,1038.88 C2601.76,1040.91 2603.03,1042.23 2604.95,1042.23 C2606.71,1042.23 2607.92,1041.08 2607.92,1039.43 C2607.92,1038.71 2607.65,1037.94 2607.1,1037.17 C2606.77,1036.79 2606.71,1036.68 2606.71,1036.4 C2606.71,1035.3 2608.91,1034.31 2611.55,1034.31 C2613.31,1034.31 2615.24,1034.86 2616.12,1035.69 C2617.16,1036.57 2617.55,1037.88 2617.55,1040.36 L2617.55,1042.51 C2611.83,1043.5 2610.01,1043.94 2607.32,1044.98 C2602.53,1046.74 2600.28,1049.27 2600.28,1052.79 C2600.28,1056.75 2603.36,1059.23 2608.25,1059.23 C2612.05,1059.23 2615.46,1057.69 2617.82,1054.88 C2618.7,1057.69 2620.08,1058.79 2622.66,1058.79 C2625.14,1058.79 2627.72,1057.19 2627.72,1055.6 C2627.72,1055.21 2627.5,1054.94 2627.17,1054.94 C2626.95,1054.94 2626.73,1054.99 2626.35,1055.16 C2625.58,1055.49 2625.25,1055.54 2624.81,1055.54 C2623.27,1055.54 2622.72,1054.55 2622.72,1051.75 L2622.72,1040.69 M2617.55,1047.4 C2617.55,1050.7 2617.38,1051.47 2616.45,1052.9 C2615.07,1054.94 2612.6,1056.31 2610.18,1056.31 C2607.65,1056.31 2605.83,1054.5 2605.83,1052.02 C2605.83,1049.71 2606.99,1048.06 2609.41,1046.91 C2611.11,1046.13 2613.26,1045.59 2617.55,1044.87 L2617.55,1047.4 M2639.66,1017.87 L2629.48,1018.47 L2629.48,1020.84 L2632.18,1020.84 C2634.21,1020.89 2634.49,1021.22 2634.49,1023.59 L2634.49,1054.22 C2634.43,1055.05 2634.38,1055.38 2634.16,1055.65 C2633.77,1056.14 2632.73,1056.37 2630.36,1056.42 L2629.98,1056.42 L2629.98,1058.4 L2644.22,1058.4 L2644.22,1056.42 L2643.84,1056.42 C2640.15,1056.31 2639.66,1056.04 2639.66,1054.06 L2639.66,1017.87 M2695.35,1018.69 L2662.63,1018.69 L2662.63,1021.28 L2663.62,1021.28 C2666.75,1021.33 2667.8,1021.5 2668.24,1022.05 C2668.57,1022.54 2668.57,1022.65 2668.57,1025.46 L2668.57,1051.63 C2668.57,1054.44 2668.57,1054.55 2668.24,1055.05 C2667.8,1055.6 2666.75,1055.82 2663.62,1055.82 L2662.63,1055.82 L2662.63,1058.4 L2681.49,1058.4 L2681.49,1055.82 L2679.68,1055.82 C2676.54,1055.82 2675.5,1055.6 2675.06,1055.05 C2674.73,1054.55 2674.73,1054.38 2674.73,1051.63 L2674.73,1039.15 L2675.83,1039.15 C2681.49,1038.93 2683.53,1040.97 2683.75,1047.07 L2686.33,1047.07 L2686.33,1029.03 L2683.75,1029.03 C2683.42,1034.42 2681.27,1036.51 2676.05,1036.57 L2674.73,1036.57 L2674.73,1024.03 C2674.67,1021.72 2675.22,1021.33 2678.19,1021.28 L2680.72,1021.28 C2689.74,1021.22 2692,1023.26 2693.7,1032.72 L2696.12,1032.72 L2695.35,1018.69 M2707.26,1019.08 C2705.5,1019.08 2704.07,1020.51 2704.07,1022.27 C2704.07,1024.03 2705.5,1025.46 2707.21,1025.46 C2709.02,1025.46 2710.45,1024.03 2710.45,1022.27 C2710.45,1020.51 2709.02,1019.08 2707.26,1019.08 M2709.85,1032.77 L2699.51,1033.38 L2699.51,1035.74 L2702.31,1035.74 C2704.4,1035.8 2704.68,1036.13 2704.68,1038.49 L2704.68,1054.22 C2704.62,1055.05 2704.57,1055.38 2704.35,1055.65 C2703.96,1056.14 2702.92,1056.37 2700.55,1056.42 L2700.17,1056.42 L2700.17,1058.4 L2714.41,1058.4 L2714.41,1056.42 L2714.03,1056.42 C2710.34,1056.31 2709.85,1056.04 2709.85,1054.06 L2709.85,1032.77 M2726.83,1032.77 L2717.31,1033.38 L2717.31,1035.74 L2719.29,1035.74 C2721.38,1035.8 2721.66,1036.13 2721.66,1038.49 L2721.66,1054.22 C2721.6,1055.05 2721.55,1055.38 2721.33,1055.65 C2720.94,1056.14 2719.9,1056.37 2717.53,1056.42 L2717.31,1056.42 L2717.31,1058.4 L2731.23,1058.4 L2731.23,1056.42 L2731.01,1056.42 C2727.32,1056.31 2726.83,1056.04 2726.83,1054.06 L2726.83,1045.92 C2726.83,1043.22 2727.21,1040.75 2727.82,1039.48 C2728.97,1037.01 2731.45,1035.3 2733.81,1035.3 C2735.24,1035.3 2736.89,1036.07 2737.72,1037.23 C2738.54,1038.44 2738.93,1040.09 2738.93,1042.73 L2738.93,1054.22 C2738.87,1055.05 2738.82,1055.38 2738.6,1055.65 C2738.21,1056.14 2737.11,1056.37 2734.75,1056.42 L2734.53,1056.42 L2734.53,1058.4 L2748.44,1058.4 L2748.44,1056.42 L2748.22,1056.42 C2744.59,1056.31 2744.1,1056.04 2744.1,1054.06 L2744.1,1043 C2744.1,1039.04 2743.93,1038.05 2742.94,1036.18 C2741.57,1033.54 2738.82,1031.95 2735.52,1031.95 C2731.94,1031.95 2729.25,1033.6 2726.83,1037.23 L2726.83,1032.77 M2775,1046.03 C2775.05,1037.78 2770.38,1031.95 2763.67,1031.95 C2756.63,1031.95 2751.35,1038.05 2751.35,1046.3 C2751.35,1054.06 2756.35,1059.23 2763.78,1059.23 C2769.06,1059.23 2772.74,1056.64 2775,1051.42 L2773.07,1050.37 C2770.82,1054.61 2768.51,1056.26 2764.82,1056.26 C2762.02,1056.26 2759.98,1055.1 2758.55,1052.63 C2757.56,1050.98 2757.12,1049.05 2757.18,1046.03 L2775,1046.03 M2757.23,1043.66 C2757.23,1039.81 2758.99,1034.31 2763.61,1034.31 C2766.91,1034.31 2769.11,1037.23 2769.11,1041.68 C2769.11,1043.22 2768.62,1043.66 2766.86,1043.66 L2757.23,1043.66 "/>
<path class="NoteDot" transform="matrix(1.008,0,0,1.008,1360.85,1146.6)" d="M0,0 C0,2.8 2.2,5 5,5 C7.8,5 10,2.8 10,0 C10,-2.8 7.8,-5 5,-5 C2.2,-5 0,-2.8 0,0"/>
<path class="NoteDot" transform="matrix(1.008,0,0,1.008,1033.23,1146.6)" d="M0,0 C0,2.8 2.2,5 5,5 C7.8,5 10,2.8 10,0 C10,-2.8 7.8,-5 5,-5 C2.2,-5 0,-2.8 0,0"/>
<path class="NoteDot" transform="matrix(1.008,0,0,1.008,2420.57,743.4)" d="M0,0 C0,2.8 2.2,5 5,5 C7.8,5 10,2.8 10,0 C10,-2.8 7.8,-5 5,-5 C2.2,-5 0,-2.8 0,0"/>
<path class="NoteDot" transform="matrix(1.008,0,0,1.008,2065.25,693)" d="M0,0 C0,2.8 2.2,5 5,5 C7.8,5 10,2.8 10,0 C10,-2.8 7.8,-5 5,-5 C2.2,-5 0,-2.8 0,0"/>
<path class="NoteDot" transform="matrix(1.008,0,0,1.008,2551.41,1171.8)" d="M0,0 C0,2.8 2.2,5 5,5 C7.8,5 10,2.8 10,0 C10,-2.8 7.8,-5 5,-5 C2.2,-5 0,-2.8 0,0"/>
</svg>
