<?xml version="1.0" encoding="UTF-8" standalone="no"?>
<svg width="2977.2px" height="4208.4px" viewBox="0 0 2977.2 4208.4"
 xmlns="http://www.w3.org/2000/svg" xmlns:xlink="http://www.w3.org/1999/xlink" version="1.2" baseProfile="tiny">
<title>赤とんぼ</title>
<desc>Generated by MuseScore Studio 4.4.3</desc>
<path class="" fill="#ffffff" fill-rule="evenodd" d="M0,0 L2977.2,0 L2977.2,4208.4 L0,4208.4 L0,0 "/>
<polyline class="StaffLines" fill="none" stroke="#000000" stroke-width="2.73" stroke-linejoin="bevel" points="212.598,634.198 2764.6,634.198"/>
<polyline class="StaffLines" fill="none" stroke="#000000" stroke-width="2.73" stroke-linejoin="bevel" points="212.598,658.998 2764.6,658.998"/>
<polyline class="StaffLines" fill="none" stroke="#000000" stroke-width="2.73" stroke-linejoin="bevel" points="212.598,683.798 2764.6,683.798"/>
<polyline class="StaffLines" fill="none" stroke="#000000" stroke-width="2.73" stroke-linejoin="bevel" points="212.598,708.598 2764.6,708.598"/>
<polyline class="StaffLines" fill="none" stroke="#000000" stroke-width="2.73" stroke-linejoin="bevel" points="212.598,733.398 2764.6,733.398"/>
<polyline class="StaffLines" fill="none" stroke="#000000" stroke-width="2.73" stroke-linejoin="bevel" points="212.598,1316.2 2764.6,1316.2"/>
<polyline class="StaffLines" fill="none" stroke="#000000" stroke-width="2.73" stroke-linejoin="bevel" points="212.598,1341 2764.6,1341"/>
<polyline class="StaffLines" fill="none" stroke="#000000" stroke-width="2.73" stroke-linejoin="bevel" points="212.598,1365.8 2764.6,1365.8"/>
<polyline class="StaffLines" fill="none" stroke="#000000" stroke-width="2.73" stroke-linejoin="bevel" points="212.598,1390.6 2764.6,1390.6"/>
<polyline class="StaffLines" fill="none" stroke="#000000" stroke-width="2.73" stroke-linejoin="bevel" points="212.598,1415.4 2764.6,1415.4"/>
<path class="Text" d="M1313.82,259.131 C1313.05,274.201 1312.06,280.471 1309.2,287.401 C1304.8,298.071 1298.09,304.231 1283.79,310.611 C1286.21,312.481 1287.53,313.911 1289.29,316.661 C1303.7,308.851 1310.96,301.701 1315.8,290.041 C1318.77,282.781 1320.31,273.541 1320.97,259.131 L1336.15,259.131 L1336.15,305.441 C1336.15,307.751 1335.05,308.301 1330.54,308.301 C1326.8,308.301 1322.84,307.971 1318.55,307.201 C1319.54,310.281 1319.87,311.821 1320.31,314.461 C1324.93,314.901 1328.67,315.011 1331.97,315.011 C1340.33,315.011 1343.19,312.921 1343.19,306.761 L1343.19,259.131 L1364.97,259.131 C1369.59,259.131 1373.11,259.351 1376.41,259.791 L1376.41,252.091 C1373.55,252.531 1370.03,252.751 1364.97,252.751 L1330.43,252.751 L1330.43,237.241 L1357.49,237.241 C1362.11,237.241 1364.64,237.351 1367.72,237.791 L1367.72,230.201 C1364.86,230.641 1362.33,230.751 1357.49,230.751 L1330.43,230.751 L1330.43,226.681 C1330.43,222.171 1330.65,219.201 1331.2,217.001 L1322.73,217.001 C1323.28,219.751 1323.39,221.731 1323.39,226.681 L1323.39,230.751 L1298.75,230.751 C1293.91,230.751 1291.38,230.641 1288.52,230.201 L1288.52,237.791 C1291.6,237.351 1294.24,237.241 1298.75,237.241 L1323.39,237.241 L1323.39,252.751 L1291.49,252.751 C1286.43,252.751 1282.91,252.531 1280.05,252.091 L1280.05,259.791 C1283.35,259.351 1286.87,259.131 1291.49,259.131 L1313.82,259.131 M1294.24,265.621 C1292.15,273.321 1290.61,276.951 1287.31,282.231 C1284.78,286.301 1282.91,288.501 1278.62,292.901 C1281.37,294.331 1282.69,295.211 1285,297.301 C1289.51,292.131 1291.38,289.491 1294.13,284.651 C1297.21,279.371 1298.64,275.741 1301.06,268.151 L1294.24,265.621 M1352.98,267.821 C1357.93,282.451 1361.45,289.271 1370.03,301.261 C1372.45,299.281 1373.88,298.181 1376.85,296.641 C1367.94,286.301 1364.31,279.591 1359.69,265.291 L1352.98,267.821 "/>
<path class="Text" d="M1416.89,222.061 C1417.55,223.821 1417.77,224.371 1418.76,228.991 C1421.62,243.071 1423.71,250.771 1426.79,259.791 C1419.97,263.201 1416.56,265.291 1412.38,268.701 C1405.89,273.981 1402.59,280.361 1402.59,287.401 C1402.59,296.091 1407.21,302.141 1416.23,305.441 C1421.51,307.421 1429.76,308.411 1440.65,308.411 C1448.35,308.411 1453.63,308.081 1464.96,306.981 C1471.01,306.321 1471.01,306.321 1473.1,306.321 L1472.22,297.191 C1465.73,299.501 1453.41,300.931 1440.76,300.931 C1419.2,300.931 1410.73,297.081 1410.73,287.071 C1410.73,277.941 1418.87,270.681 1437.68,263.201 C1447.36,259.241 1463.09,254.181 1470.79,252.531 L1467.49,244.171 C1465.29,245.271 1464.3,245.601 1460.45,247.031 C1443.4,252.971 1440.32,254.181 1433.83,256.821 C1430.09,245.821 1426.02,227.781 1425.58,220.411 L1416.89,222.061 M1534.48,220.301 C1533.82,223.601 1531.4,230.531 1519.41,262.321 C1503.57,304.561 1503.57,304.561 1502.14,307.641 L1510.61,310.281 C1512.04,303.681 1517.1,291.141 1520.73,284.981 C1526.89,274.531 1534.04,268.701 1540.42,268.701 C1543.72,268.701 1545.7,270.021 1546.69,272.771 C1547.35,274.531 1547.57,276.621 1547.57,281.131 L1547.57,287.401 C1547.57,293.561 1547.9,297.081 1548.56,299.281 C1550.65,305.551 1556.48,309.181 1564.62,309.181 C1573.64,309.181 1581.45,304.891 1586.51,297.191 C1589.92,292.021 1592.12,286.521 1594.32,277.831 C1591.13,275.961 1589.92,274.971 1587.06,272.221 C1586.4,278.161 1585.19,282.781 1582.88,287.841 C1578.81,297.081 1573.09,301.591 1565.28,301.591 C1561.65,301.591 1558.35,300.271 1556.92,298.181 C1555.6,296.201 1555.16,293.451 1555.16,287.731 L1555.16,280.251 C1555.16,273.981 1554.61,270.461 1553.29,267.821 C1551.31,263.861 1547.02,261.331 1542.29,261.331 C1534.48,261.331 1528.87,265.291 1521.61,275.741 L1521.06,275.521 C1521.5,274.531 1521.61,274.311 1522.05,273.541 C1522.6,272.441 1523.04,271.561 1523.26,271.121 C1527.77,261.661 1527.77,261.661 1531.18,252.971 C1541.96,225.361 1541.96,225.361 1543.39,222.721 L1534.48,220.301 M1625.78,311.381 C1625.67,310.831 1625.67,310.391 1625.67,310.171 C1625.67,304.121 1630.29,289.051 1635.57,277.501 L1630.4,274.861 C1627.65,281.131 1625.56,286.851 1624.02,292.241 L1623.36,294.551 C1623.36,294.881 1623.14,295.541 1622.81,296.421 L1622.48,296.421 C1622.37,292.461 1622.37,291.251 1622.37,290.261 L1622.37,288.061 C1622.37,287.731 1622.37,286.631 1622.26,284.871 C1622.15,282.231 1622.04,279.701 1622.04,277.061 C1622.04,265.181 1623.36,252.201 1625.89,240.211 C1627.54,232.291 1629.08,226.461 1630.4,223.271 L1621.82,221.951 C1621.71,223.711 1621.6,224.481 1620.83,228.001 C1616.54,248.901 1615,261.441 1615,276.291 C1615,285.201 1615.77,295.541 1616.87,303.571 L1617.64,308.301 C1617.75,309.291 1617.86,310.281 1617.86,310.721 C1617.86,310.941 1617.86,311.051 1617.86,311.821 L1625.78,311.381 M1703.11,296.421 C1702.01,295.761 1702.01,295.761 1700.14,294.331 C1694.31,290.041 1686.06,285.531 1681.11,283.881 C1680.67,277.941 1680.56,272.441 1680.34,260.671 C1685.95,260.121 1691.34,259.351 1696.62,258.361 C1698.38,257.921 1698.49,257.921 1699.7,257.811 L1699.48,250.551 C1697.28,251.651 1687.16,253.631 1680.23,254.181 C1680.23,246.701 1680.23,246.371 1680.23,245.711 C1680.23,242.521 1680.34,240.321 1680.45,236.471 C1682.43,236.361 1682.76,236.251 1685.18,235.921 C1686.39,235.811 1686.39,235.811 1688.04,235.591 L1687.71,228.881 C1679.79,230.311 1671.21,230.971 1661.53,230.971 C1653.06,230.971 1646.9,230.421 1642.61,229.431 L1642.28,236.691 C1644.48,236.691 1645.03,236.691 1648.88,236.911 C1653.28,237.241 1657.68,237.351 1662.08,237.351 C1665.93,237.351 1668.9,237.241 1673.3,237.021 C1673.08,241.861 1673.08,244.061 1673.08,246.041 C1673.08,247.361 1673.08,248.901 1673.19,254.731 C1667.91,254.951 1663.62,255.061 1659.99,255.061 C1651.74,255.061 1646.02,254.621 1641.73,253.521 L1641.51,260.891 C1641.95,260.891 1642.28,260.891 1642.39,260.891 C1643.16,260.891 1643.82,260.891 1644.7,261.001 C1653.39,261.441 1655.37,261.551 1660.32,261.551 C1663.95,261.551 1668.57,261.441 1673.41,261.111 C1673.52,266.611 1673.52,267.051 1673.52,267.931 L1673.96,279.701 L1674.07,281.131 C1674.07,281.351 1674.07,281.681 1674.18,282.121 C1670.66,280.801 1666.92,280.251 1662.52,280.251 C1649.87,280.251 1641.18,286.521 1641.18,295.651 C1641.18,304.891 1649.1,310.831 1661.42,310.831 C1670.55,310.831 1677.81,307.531 1680.01,302.251 C1681,299.941 1681.44,297.631 1681.44,294.331 C1681.44,292.901 1681.44,292.351 1681.22,291.141 C1687.05,293.781 1697.17,300.821 1699.81,304.011 L1703.11,296.421 M1674.07,288.611 C1674.18,288.611 1674.29,292.461 1674.29,293.341 C1674.29,300.821 1670.22,304.341 1661.53,304.341 C1653.39,304.341 1648.44,301.041 1648.44,295.651 C1648.44,290.151 1653.94,286.631 1662.63,286.631 C1666.81,286.631 1669.23,287.071 1674.07,288.611 M1686.28,217.881 C1689.14,222.501 1691.78,228.661 1694.09,236.251 L1699.92,234.271 C1697.5,226.571 1695.85,222.941 1692.11,216.231 L1686.28,217.881 M1699.04,214.471 C1701.68,218.651 1704.76,225.691 1706.85,232.511 L1712.57,230.421 C1710.81,224.481 1707.95,218.211 1704.65,212.601 L1699.04,214.471 "/>
<path class="MeasureNumber" d="M216.922,1251.28 C215.682,1252.04 215.322,1252.52 215.322,1253.32 C215.322,1254.08 215.962,1254.64 216.762,1254.64 C217.802,1254.64 218.402,1253.88 218.522,1252.4 C219.762,1251.4 221.082,1250.96 222.682,1250.96 C225.642,1250.96 227.282,1252.8 227.282,1256.12 C227.282,1261.32 223.922,1265.56 219.802,1265.56 C217.442,1265.56 215.522,1264.44 215.522,1263.12 C215.522,1262.88 215.562,1262.8 215.762,1262.68 C217.042,1262.08 218.082,1261.64 218.082,1259.96 C218.082,1258.68 217.082,1257.72 215.682,1257.72 C213.922,1257.72 212.602,1259.2 212.602,1261.12 C212.602,1264.64 215.642,1267.2 219.922,1267.2 C226.402,1267.2 231.642,1262.04 231.642,1255.64 C231.642,1251.6 228.562,1248.76 224.202,1248.76 C222.482,1248.76 221.082,1249.12 219.162,1250.08 L221.402,1242.52 C223.522,1242.96 225.202,1243.16 226.642,1243.16 C229.282,1243.16 231.642,1242.32 232.962,1240.92 C233.642,1240.12 234.042,1239.44 234.042,1238.92 C234.042,1238.68 233.922,1238.44 233.762,1238.44 C233.642,1238.44 233.562,1238.48 233.322,1238.6 C232.002,1239.24 230.322,1239.6 228.762,1239.6 C226.362,1239.6 223.522,1239.2 220.562,1238.44 L216.922,1251.28 "/>
<polyline class="BarLine" fill="none" stroke="#000000" stroke-width="4.46" stroke-linejoin="bevel" points="1027.68,632.834 1027.68,734.762"/>
<polyline class="BarLine" fill="none" stroke="#000000" stroke-width="4.46" stroke-linejoin="bevel" points="2762.37,1314.83 2762.37,1416.76"/>
<polyline class="BarLine" fill="none" stroke="#000000" stroke-width="4.46" stroke-linejoin="bevel" points="2323,1314.83 2323,1416.76"/>
<polyline class="BarLine" fill="none" stroke="#000000" stroke-width="4.46" stroke-linejoin="bevel" points="1641.3,1314.83 1641.3,1416.76"/>
<polyline class="BarLine" fill="none" stroke="#000000" stroke-width="4.46" stroke-linejoin="bevel" points="959.589,1314.83 959.589,1416.76"/>
<polyline class="BarLine" fill="none" stroke="#000000" stroke-width="4.46" stroke-linejoin="bevel" points="2762.37,632.834 2762.37,734.762"/>
<polyline class="BarLine" fill="none" stroke="#000000" stroke-width="4.46" stroke-linejoin="bevel" points="2298.41,632.834 2298.41,734.762"/>
<polyline class="BarLine" fill="none" stroke="#000000" stroke-width="4.46" stroke-linejoin="bevel" points="1691.61,632.834 1691.61,734.762"/>
<polyline class="LedgerLine" fill="none" stroke="#000000" stroke-width="3.97" stroke-linejoin="bevel" points="457.188,758.198 505.781,758.198"/>
<polyline class="LedgerLine" fill="none" stroke="#000000" stroke-width="3.97" stroke-linejoin="bevel" points="457.188,782.998 505.781,782.998"/>
<polyline class="Stem" fill="none" stroke="#000000" stroke-width="2.48" stroke-linejoin="bevel" points="1562.34,1399.03 1562.34,1303.74"/>
<polyline class="Stem" fill="none" stroke="#000000" stroke-width="2.48" stroke-linejoin="bevel" points="2155.76,729.43 2155.76,646.598"/>
<polyline class="Stem" fill="none" stroke="#000000" stroke-width="2.48" stroke-linejoin="bevel" points="1454.63,1374.23 1454.63,1298.8"/>
<polyline class="Stem" fill="none" stroke="#000000" stroke-width="2.48" stroke-linejoin="bevel" points="1346.93,1361.83 1346.93,1293.87"/>
<polyline class="Stem" fill="none" stroke="#000000" stroke-width="2.48" stroke-linejoin="bevel" points="1239.22,1374.23 1239.22,1288.93"/>
<polyline class="Stem" fill="none" stroke="#000000" stroke-width="2.48" stroke-linejoin="bevel" points="1091.9,717.03 1091.9,596.998"/>
<polyline class="Stem" fill="none" stroke="#000000" stroke-width="2.48" stroke-linejoin="bevel" points="1131.51,1361.83 1131.51,1283.99"/>
<polyline class="Stem" fill="none" stroke="#000000" stroke-width="2.48" stroke-linejoin="bevel" points="1023.81,1337.03 1023.81,1279.06"/>
<polyline class="Stem" fill="none" stroke="#000000" stroke-width="2.48" stroke-linejoin="bevel" points="2387.22,1423.83 2387.22,1341"/>
<polyline class="Stem" fill="none" stroke="#000000" stroke-width="2.48" stroke-linejoin="bevel" points="1206.16,692.23 1206.16,596.998"/>
<polyline class="Stem" fill="none" stroke="#000000" stroke-width="2.48" stroke-linejoin="bevel" points="610.623,741.83 610.623,677.73"/>
<polyline class="Stem" fill="none" stroke="#000000" stroke-width="2.48" stroke-linejoin="bevel" points="1320.43,655.03 1320.43,596.998"/>
<polyline class="Stem" fill="none" stroke="#000000" stroke-width="2.48" stroke-linejoin="bevel" points="850.89,1369.96 850.89,1446.3"/>
<polyline class="Stem" fill="none" stroke="#000000" stroke-width="2.48" stroke-linejoin="bevel" points="1705.51,1374.23 1705.51,1310.03"/>
<polyline class="Stem" fill="none" stroke="#000000" stroke-width="2.48" stroke-linejoin="bevel" points="1434.7,679.83 1434.7,596.998"/>
<polyline class="Stem" fill="none" stroke="#000000" stroke-width="2.48" stroke-linejoin="bevel" points="673.037,1374.23 673.037,1297.6"/>
<polyline class="Stem" fill="none" stroke="#000000" stroke-width="2.48" stroke-linejoin="bevel" points="1548.96,692.23 1548.96,615.598"/>
<polyline class="Stem" fill="none" stroke="#000000" stroke-width="2.48" stroke-linejoin="bevel" points="565.33,1361.83 565.33,1297.67"/>
<polyline class="Stem" fill="none" stroke="#000000" stroke-width="2.48" stroke-linejoin="bevel" points="2244.05,1423.83 2244.05,1322.37"/>
<polyline class="Stem" fill="none" stroke="#000000" stroke-width="2.48" stroke-linejoin="bevel" points="1813.22,1399.03 1813.22,1312.5"/>
<polyline class="Stem" fill="none" stroke="#000000" stroke-width="2.48" stroke-linejoin="bevel" points="457.622,1399.03 457.622,1303.73"/>
<polyline class="Stem" fill="none" stroke="#000000" stroke-width="2.48" stroke-linejoin="bevel" points="1755.83,679.83 1755.83,615.664"/>
<polyline class="Stem" fill="none" stroke="#000000" stroke-width="2.48" stroke-linejoin="bevel" points="496.357,779.03 496.357,689.867"/>
<polyline class="Stem" fill="none" stroke="#000000" stroke-width="2.48" stroke-linejoin="bevel" points="1920.93,1423.83 1920.93,1314.96"/>
<polyline class="Stem" fill="none" stroke="#000000" stroke-width="2.48" stroke-linejoin="bevel" points="2362.62,717.03 2362.62,634.198"/>
<polyline class="Stem" fill="none" stroke="#000000" stroke-width="2.48" stroke-linejoin="bevel" points="1870.09,741.83 1870.09,621.733"/>
<polyline class="Stem" fill="none" stroke="#000000" stroke-width="2.48" stroke-linejoin="bevel" points="724.89,741.83 724.89,658.998"/>
<polyline class="Stem" fill="none" stroke="#000000" stroke-width="2.48" stroke-linejoin="bevel" points="1984.36,741.83 1984.36,658.998"/>
<polyline class="Stem" fill="none" stroke="#000000" stroke-width="2.48" stroke-linejoin="bevel" points="2028.63,1399.03 2028.63,1317.43"/>
<polyline class="Stem" fill="none" stroke="#000000" stroke-width="2.48" stroke-linejoin="bevel" points="2136.34,1411.43 2136.34,1319.9"/>
<polyline class="Stem" fill="none" stroke="#000000" stroke-width="2.48" stroke-linejoin="bevel" points="942.168,729.43 942.168,646.797"/>
<path class="Hook" transform="matrix(0.992,0,0,0.992,849.65,1446.4)" d="M0,-0.1 C0,0.6 0.6,1.2 1.3,1.2 C1.8,1.2 2.4,0.8 2.5,0.4 C2.5,0.3 3.4,-3.2 3.5,-3.5 C3.6,-3.9 4.5,-7.7 8.1,-13.6 C12,-20.1 18,-24.8 23,-31.8 C28,-38.8 30.9,-45.4 30.9,-54.2 C30.9,-63.3 28.9,-70.9 23.5,-80.6 C23.2,-81.3 22.6,-81.7 22,-81.7 C21.8,-81.7 21.6,-81.7 21.5,-81.6 C21,-81.4 20.8,-81 20.8,-80.4 C20.8,-80.1 20.9,-79.7 21.1,-79.2 C25.1,-69.9 26.7,-64.6 26.7,-57.4 C26.7,-49.1 23.8,-44.8 22,-41.7 C15.5,-30.6 5,-25.2 0.8,-23.8 C0.1,-23.6 0,-23 0,-22.7 L0,-0.1 "/>
<path class="Hook" transform="matrix(0.992,0,0,0.992,940.928,646.598)" d="M0,22.7 C0,23 0.1,23.6 0.8,23.8 C5.1,25.2 13.7,30.6 20.2,41.7 C22,44.8 24.9,49.1 24.9,57.4 C24.9,64.6 23.1,72 20.4,79.2 C20.2,79.8 20.1,80.3 20.1,80.7 C20.1,81.4 20.5,81.7 21.2,81.7 C21.8,81.7 22.3,81.3 22.7,80.6 C27.2,72.6 28.9,63.3 28.9,54.2 C28.4,41.3 21,31.8 21,31.8 C21.3,31.8 11.8,19.5 9.1,15.3 C5.4,9.6 3.7,3.9 3.5,3.5 C3.4,3.2 2.5,-0.4 2.5,-0.4 C2.4,-0.8 1.9,-1.2 1.3,-1.2 C0.6,-1.2 0,-0.6 0,0.1 L0,22.7 "/>
<path class="Note" transform="matrix(0.992,0,0,0.992,2124.78,733.398)" d="M0,4.2 C0,8.5 3.1,13.3 11.2,13.3 C21.6,13.3 32.5,4.8 32.5,-4 C32.5,-9.9 27.5,-13.2 21.3,-13.2 C11.6,-13.2 0,-5 0,4.2"/>
<path class="Note" transform="matrix(0.992,0,0,0.992,1175.18,696.198)" d="M0,4.2 C0,8.5 3.1,13.3 11.2,13.3 C21.6,13.3 32.5,4.8 32.5,-4 C32.5,-9.9 27.5,-13.2 21.3,-13.2 C11.6,-13.2 0,-5 0,4.2"/>
<path class="Note" transform="matrix(0.992,0,0,0.992,1839.11,745.798)" d="M0,4.2 C0,8.5 3.1,13.3 11.2,13.3 C21.6,13.3 32.5,4.8 32.5,-4 C32.5,-9.9 27.5,-13.2 21.3,-13.2 C11.6,-13.2 0,-5 0,4.2"/>
<path class="Note" transform="matrix(0.992,0,0,0.992,2105.36,1415.4)" d="M0,4.2 C0,8.5 3.1,13.3 11.2,13.3 C21.6,13.3 32.5,4.8 32.5,-4 C32.5,-9.9 27.5,-13.2 21.3,-13.2 C11.6,-13.2 0,-5 0,4.2"/>
<path class="Note" transform="matrix(0.992,0,0,0.992,2331.64,720.998)" d="M21.3,-13.2 C11.6,-13.2 0,-5.1 0,4.2 C0,8.5 3.1,13.3 11.2,13.3 C21.6,13.3 32.5,4.8 32.5,-4 C32.5,-9.9 27.5,-13.2 21.3,-13.2 M7.5,8.6 C4.2,8.6 3.5,5.9 3.5,5 C3.5,0.1 20.3,-8.5 25,-8.5 C27.4,-8.5 29,-7.1 29,-4.9 C29,0.1 12.1,8.6 7.5,8.6"/>
<path class="Note" transform="matrix(0.992,0,0,0.992,1889.94,1427.8)" d="M0,4.2 C0,8.5 3.1,13.3 11.2,13.3 C21.6,13.3 32.5,4.8 32.5,-4 C32.5,-9.9 27.5,-13.2 21.3,-13.2 C11.6,-13.2 0,-5 0,4.2"/>
<path class="Note" transform="matrix(0.992,0,0,0.992,1423.65,1378.2)" d="M0,4.2 C0,8.5 3.1,13.3 11.2,13.3 C21.6,13.3 32.5,4.8 32.5,-4 C32.5,-9.9 27.5,-13.2 21.3,-13.2 C11.6,-13.2 0,-5 0,4.2"/>
<path class="Note" transform="matrix(0.992,0,0,0.992,911.184,733.398)" d="M0,4.2 C0,8.5 3.1,13.3 11.2,13.3 C21.6,13.3 32.5,4.8 32.5,-4 C32.5,-9.9 27.5,-13.2 21.3,-13.2 C11.6,-13.2 0,-5 0,4.2"/>
<path class="Note" transform="matrix(0.992,0,0,0.992,1782.24,1403)" d="M0,4.2 C0,8.5 3.1,13.3 11.2,13.3 C21.6,13.3 32.5,4.8 32.5,-4 C32.5,-9.9 27.5,-13.2 21.3,-13.2 C11.6,-13.2 0,-5 0,4.2"/>
<path class="Note" transform="matrix(0.992,0,0,0.992,579.639,745.798)" d="M0,4.2 C0,8.5 3.1,13.3 11.2,13.3 C21.6,13.3 32.5,4.8 32.5,-4 C32.5,-9.9 27.5,-13.2 21.3,-13.2 C11.6,-13.2 0,-5 0,4.2"/>
<path class="Note" transform="matrix(0.992,0,0,0.992,1724.84,683.798)" d="M0,4.2 C0,8.5 3.1,13.3 11.2,13.3 C21.6,13.3 32.5,4.8 32.5,-4 C32.5,-9.9 27.5,-13.2 21.3,-13.2 C11.6,-13.2 0,-5 0,4.2"/>
<path class="Note" transform="matrix(0.992,0,0,0.992,1315.94,1365.8)" d="M0,4.2 C0,8.5 3.1,13.3 11.2,13.3 C21.6,13.3 32.5,4.8 32.5,-4 C32.5,-9.9 27.5,-13.2 21.3,-13.2 C11.6,-13.2 0,-5 0,4.2"/>
<path class="Note" transform="matrix(0.992,0,0,0.992,1208.24,1378.2)" d="M0,4.2 C0,8.5 3.1,13.3 11.2,13.3 C21.6,13.3 32.5,4.8 32.5,-4 C32.5,-9.9 27.5,-13.2 21.3,-13.2 C11.6,-13.2 0,-5 0,4.2"/>
<path class="Note" transform="matrix(0.992,0,0,0.992,1997.65,1403)" d="M0,4.2 C0,8.5 3.1,13.3 11.2,13.3 C21.6,13.3 32.5,4.8 32.5,-4 C32.5,-9.9 27.5,-13.2 21.3,-13.2 C11.6,-13.2 0,-5 0,4.2"/>
<path class="Note" transform="matrix(0.992,0,0,0.992,2356.24,1427.8)" d="M21.3,-13.2 C11.6,-13.2 0,-5.1 0,4.2 C0,8.5 3.1,13.3 11.2,13.3 C21.6,13.3 32.5,4.8 32.5,-4 C32.5,-9.9 27.5,-13.2 21.3,-13.2 M7.5,8.6 C4.2,8.6 3.5,5.9 3.5,5 C3.5,0.1 20.3,-8.5 25,-8.5 C27.4,-8.5 29,-7.1 29,-4.9 C29,0.1 12.1,8.6 7.5,8.6"/>
<path class="Note" transform="matrix(0.992,0,0,0.992,426.638,1403)" d="M0,4.2 C0,8.5 3.1,13.3 11.2,13.3 C21.6,13.3 32.5,4.8 32.5,-4 C32.5,-9.9 27.5,-13.2 21.3,-13.2 C11.6,-13.2 0,-5 0,4.2"/>
<path class="Note" transform="matrix(0.992,0,0,0.992,1100.53,1365.8)" d="M0,4.2 C0,8.5 3.1,13.3 11.2,13.3 C21.6,13.3 32.5,4.8 32.5,-4 C32.5,-9.9 27.5,-13.2 21.3,-13.2 C11.6,-13.2 0,-5 0,4.2"/>
<path class="Note" transform="matrix(0.992,0,0,0.992,465.372,782.998)" d="M0,4.2 C0,8.5 3.1,13.3 11.2,13.3 C21.6,13.3 32.5,4.8 32.5,-4 C32.5,-9.9 27.5,-13.2 21.3,-13.2 C11.6,-13.2 0,-5 0,4.2"/>
<path class="Note" transform="matrix(0.992,0,0,0.992,1517.98,696.198)" d="M0,4.2 C0,8.5 3.1,13.3 11.2,13.3 C21.6,13.3 32.5,4.8 32.5,-4 C32.5,-9.9 27.5,-13.2 21.3,-13.2 C11.6,-13.2 0,-5 0,4.2"/>
<path class="Note" transform="matrix(0.992,0,0,0.992,534.345,1365.8)" d="M0,4.2 C0,8.5 3.1,13.3 11.2,13.3 C21.6,13.3 32.5,4.8 32.5,-4 C32.5,-9.9 27.5,-13.2 21.3,-13.2 C11.6,-13.2 0,-5 0,4.2"/>
<path class="Note" transform="matrix(0.992,0,0,0.992,1403.71,683.798)" d="M0,4.2 C0,8.5 3.1,13.3 11.2,13.3 C21.6,13.3 32.5,4.8 32.5,-4 C32.5,-9.9 27.5,-13.2 21.3,-13.2 C11.6,-13.2 0,-5 0,4.2"/>
<path class="Note" transform="matrix(0.992,0,0,0.992,642.052,1378.2)" d="M0,4.2 C0,8.5 3.1,13.3 11.2,13.3 C21.6,13.3 32.5,4.8 32.5,-4 C32.5,-9.9 27.5,-13.2 21.3,-13.2 C11.6,-13.2 0,-5 0,4.2"/>
<path class="Note" transform="matrix(0.992,0,0,0.992,1953.38,745.798)" d="M0,4.2 C0,8.5 3.1,13.3 11.2,13.3 C21.6,13.3 32.5,4.8 32.5,-4 C32.5,-9.9 27.5,-13.2 21.3,-13.2 C11.6,-13.2 0,-5 0,4.2"/>
<path class="Note" transform="matrix(0.992,0,0,0.992,1060.91,720.998)" d="M0,4.2 C0,8.5 3.1,13.3 11.2,13.3 C21.6,13.3 32.5,4.8 32.5,-4 C32.5,-9.9 27.5,-13.2 21.3,-13.2 C11.6,-13.2 0,-5 0,4.2"/>
<path class="Note" transform="matrix(0.992,0,0,0.992,2213.06,1427.8)" d="M0,4.2 C0,8.5 3.1,13.3 11.2,13.3 C21.6,13.3 32.5,4.8 32.5,-4 C32.5,-9.9 27.5,-13.2 21.3,-13.2 C11.6,-13.2 0,-5 0,4.2"/>
<path class="Note" transform="matrix(0.992,0,0,0.992,693.905,745.798)" d="M0,4.2 C0,8.5 3.1,13.3 11.2,13.3 C21.6,13.3 32.5,4.8 32.5,-4 C32.5,-9.9 27.5,-13.2 21.3,-13.2 C11.6,-13.2 0,-5 0,4.2"/>
<path class="Note" transform="matrix(0.992,0,0,0.992,1289.45,658.998)" d="M0,4.2 C0,8.5 3.1,13.3 11.2,13.3 C21.6,13.3 32.5,4.8 32.5,-4 C32.5,-9.9 27.5,-13.2 21.3,-13.2 C11.6,-13.2 0,-5 0,4.2"/>
<path class="Note" transform="matrix(0.992,0,0,0.992,849.65,1365.8)" d="M0,4.2 C0,8.5 3.1,13.3 11.2,13.3 C21.6,13.3 32.5,4.8 32.5,-4 C32.5,-9.9 27.5,-13.2 21.3,-13.2 C11.6,-13.2 0,-5 0,4.2"/>
<path class="Note" transform="matrix(0.992,0,0,0.992,992.821,1341)" d="M0,4.2 C0,8.5 3.1,13.3 11.2,13.3 C21.6,13.3 32.5,4.8 32.5,-4 C32.5,-9.9 27.5,-13.2 21.3,-13.2 C11.6,-13.2 0,-5 0,4.2"/>
<path class="Note" transform="matrix(0.992,0,0,0.992,1531.36,1403)" d="M0,4.2 C0,8.5 3.1,13.3 11.2,13.3 C21.6,13.3 32.5,4.8 32.5,-4 C32.5,-9.9 27.5,-13.2 21.3,-13.2 C11.6,-13.2 0,-5 0,4.2"/>
<path class="Note" transform="matrix(0.992,0,0,0.992,1674.53,1378.2)" d="M0,4.2 C0,8.5 3.1,13.3 11.2,13.3 C21.6,13.3 32.5,4.8 32.5,-4 C32.5,-9.9 27.5,-13.2 21.3,-13.2 C11.6,-13.2 0,-5 0,4.2"/>
<path class="Clef" transform="matrix(0.992,0,0,0.992,231.198,1390.6)" d="M12.3,51.3 C12.3,57.9 17.3,66.6 30.8,66.6 C35.5,66.6 39.6,65.4 43.2,63.2 C48.6,59.4 50,52.8 50,46.5 C50,42.6 49.4,38.1 48.4,32.4 C48.1,30.4 47.5,27.4 46.9,23.5 C56.7,20.3 64,10.1 64,-0.2 C64,-15.3 53.3,-25.5 38.7,-25.5 C37.7,-31.5 36.7,-37.4 35.9,-43 C46.4,-54.1 53.7,-66.6 53.7,-82.5 C53.7,-91.6 50.9,-99 49.3,-102.6 C46.9,-107.7 44,-111.2 42.2,-111.2 C41.5,-111.2 38.4,-110 35.1,-106.1 C28.7,-98.5 26.9,-85.7 26.9,-77.3 C26.9,-71.9 27.4,-67 29.1,-55.8 C29,-55.7 23.8,-50.4 21.7,-48.7 C12.6,-40.3 0,-28.1 0,-8.1 C0,10.6 16.3,25.3 34.9,25.3 C37.8,25.3 40.5,25 42.8,24.6 C44.7,34.2 45.9,41.2 45.9,46.5 C45.9,56.9 40.5,62.4 30.4,62.4 C28,62.4 25.9,61.9 25.7,61.9 C25.6,61.8 25.4,61.7 25.4,61.6 C25.4,61.4 25.6,61.3 25.9,61.3 C30.6,60.5 35.3,56.5 35.3,50.1 C35.3,44.7 31.2,39 23.7,39 C16.7,39 12.3,44.7 12.3,51.3 M33.2,-82.2 C34.1,-86.2 38.7,-96.7 43.9,-96.7 C45.4,-96.7 47.8,-91.9 47.8,-84.9 C47.8,-74.5 40.1,-66.7 33.2,-59.9 C32.6,-63.9 32.1,-67.8 32.1,-72 C32.1,-75.7 32.4,-79.1 33.2,-82.2 M42,20.6 C40,21 38.1,21.2 36.2,21.2 C21.9,21.2 9.7,11.2 9.7,-3.9 C9.7,-16.1 18.3,-27 27.1,-34.6 C28.8,-36.1 30.4,-37.5 31.9,-39 C32.8,-33.6 33.5,-28.9 34.2,-24.8 C25.1,-22.1 18.9,-12.5 18.9,-3.1 C18.9,3.9 24.4,13.5 32.4,13.5 C33.2,13.5 34.1,13.1 34.1,12.2 C34.1,11.3 33.1,10.8 31.9,10 C28,7.6 25.8,5 25.8,0.1 C25.8,-6 30.4,-10.9 36.2,-12.3 L42,20.6 M56.2,2.1 C56.2,9.2 53.3,16.5 46.2,19.4 C44.1,7.4 41.4,-8.5 40.7,-12.9 C49.7,-12.9 56.2,-6.8 56.2,2.1"/>
<path class="Clef" transform="matrix(0.992,0,0,0.992,231.198,708.598)" d="M12.3,51.3 C12.3,57.9 17.3,66.6 30.8,66.6 C35.5,66.6 39.6,65.4 43.2,63.2 C48.6,59.4 50,52.8 50,46.5 C50,42.6 49.4,38.1 48.4,32.4 C48.1,30.4 47.5,27.4 46.9,23.5 C56.7,20.3 64,10.1 64,-0.2 C64,-15.3 53.3,-25.5 38.7,-25.5 C37.7,-31.5 36.7,-37.4 35.9,-43 C46.4,-54.1 53.7,-66.6 53.7,-82.5 C53.7,-91.6 50.9,-99 49.3,-102.6 C46.9,-107.7 44,-111.2 42.2,-111.2 C41.5,-111.2 38.4,-110 35.1,-106.1 C28.7,-98.5 26.9,-85.7 26.9,-77.3 C26.9,-71.9 27.4,-67 29.1,-55.8 C29,-55.7 23.8,-50.4 21.7,-48.7 C12.6,-40.3 0,-28.1 0,-8.1 C0,10.6 16.3,25.3 34.9,25.3 C37.8,25.3 40.5,25 42.8,24.6 C44.7,34.2 45.9,41.2 45.9,46.5 C45.9,56.9 40.5,62.4 30.4,62.4 C28,62.4 25.9,61.9 25.7,61.9 C25.6,61.8 25.4,61.7 25.4,61.6 C25.4,61.4 25.6,61.3 25.9,61.3 C30.6,60.5 35.3,56.5 35.3,50.1 C35.3,44.7 31.2,39 23.7,39 C16.7,39 12.3,44.7 12.3,51.3 M33.2,-82.2 C34.1,-86.2 38.7,-96.7 43.9,-96.7 C45.4,-96.7 47.8,-91.9 47.8,-84.9 C47.8,-74.5 40.1,-66.7 33.2,-59.9 C32.6,-63.9 32.1,-67.8 32.1,-72 C32.1,-75.7 32.4,-79.1 33.2,-82.2 M42,20.6 C40,21 38.1,21.2 36.2,21.2 C21.9,21.2 9.7,11.2 9.7,-3.9 C9.7,-16.1 18.3,-27 27.1,-34.6 C28.8,-36.1 30.4,-37.5 31.9,-39 C32.8,-33.6 33.5,-28.9 34.2,-24.8 C25.1,-22.1 18.9,-12.5 18.9,-3.1 C18.9,3.9 24.4,13.5 32.4,13.5 C33.2,13.5 34.1,13.1 34.1,12.2 C34.1,11.3 33.1,10.8 31.9,10 C28,7.6 25.8,5 25.8,0.1 C25.8,-6 30.4,-10.9 36.2,-12.3 L42,20.6 M56.2,2.1 C56.2,9.2 53.3,16.5 46.2,19.4 C44.1,7.4 41.4,-8.5 40.7,-12.9 C49.7,-12.9 56.2,-6.8 56.2,2.1"/>
<path class="KeySig" transform="matrix(0.992,0,0,0.992,313.271,634.198)" d="M23.3,-10.5 C23.9,-10.6 24.4,-11.3 24.4,-11.9 L24.4,-17.8 C24.4,-18.8 23.7,-19.2 22.8,-19.2 L19.5,-18.5 L19.5,-33.4 L16.7,-33.4 L16.7,-17.9 L7.8,-16.1 L7.8,-30.2 L5,-30.2 L5,-15.5 L1.1,-14.7 C0.5,-14.6 0,-13.9 0,-13.3 L0,-7.5 C0,-6.4 0.8,-6.1 1.7,-6.1 L5,-6.8 L5,9.7 L1.1,10.5 C0.5,10.6 0,11.3 0,11.9 L0,17.7 C0,18.8 0.8,19.1 1.7,19.1 L5,18.4 L5,33.3 L7.8,33.3 L7.8,17.8 L16.7,16 L16.7,30.1 L19.5,30.1 L19.5,15.4 L23.3,14.7 C23.9,14.6 24.4,13.9 24.4,13.3 L24.4,7.4 C24.4,6.4 23.7,6 22.8,6 L19.5,6.7 L19.5,-9.8 L23.3,-10.5 M7.8,-7.4 L16.7,-9.2 L16.7,7.3 L7.8,9.2 L7.8,-7.4 "/>
<path class="KeySig" transform="matrix(0.992,0,0,0.992,340.442,671.398)" d="M23.3,-10.5 C23.9,-10.6 24.4,-11.3 24.4,-11.9 L24.4,-17.8 C24.4,-18.8 23.7,-19.2 22.8,-19.2 L19.5,-18.5 L19.5,-33.4 L16.7,-33.4 L16.7,-17.9 L7.8,-16.1 L7.8,-30.2 L5,-30.2 L5,-15.5 L1.1,-14.7 C0.5,-14.6 0,-13.9 0,-13.3 L0,-7.5 C0,-6.4 0.8,-6.1 1.7,-6.1 L5,-6.8 L5,9.7 L1.1,10.5 C0.5,10.6 0,11.3 0,11.9 L0,17.7 C0,18.8 0.8,19.1 1.7,19.1 L5,18.4 L5,33.3 L7.8,33.3 L7.8,17.8 L16.7,16 L16.7,30.1 L19.5,30.1 L19.5,15.4 L23.3,14.7 C23.9,14.6 24.4,13.9 24.4,13.3 L24.4,7.4 C24.4,6.4 23.7,6 22.8,6 L19.5,6.7 L19.5,-9.8 L23.3,-10.5 M7.8,-7.4 L16.7,-9.2 L16.7,7.3 L7.8,9.2 L7.8,-7.4 "/>
<path class="KeySig" transform="matrix(0.992,0,0,0.992,313.271,1316.2)" d="M23.3,-10.5 C23.9,-10.6 24.4,-11.3 24.4,-11.9 L24.4,-17.8 C24.4,-18.8 23.7,-19.2 22.8,-19.2 L19.5,-18.5 L19.5,-33.4 L16.7,-33.4 L16.7,-17.9 L7.8,-16.1 L7.8,-30.2 L5,-30.2 L5,-15.5 L1.1,-14.7 C0.5,-14.6 0,-13.9 0,-13.3 L0,-7.5 C0,-6.4 0.8,-6.1 1.7,-6.1 L5,-6.8 L5,9.7 L1.1,10.5 C0.5,10.6 0,11.3 0,11.9 L0,17.7 C0,18.8 0.8,19.1 1.7,19.1 L5,18.4 L5,33.3 L7.8,33.3 L7.8,17.8 L16.7,16 L16.7,30.1 L19.5,30.1 L19.5,15.4 L23.3,14.7 C23.9,14.6 24.4,13.9 24.4,13.3 L24.4,7.4 C24.4,6.4 23.7,6 22.8,6 L19.5,6.7 L19.5,-9.8 L23.3,-10.5 M7.8,-7.4 L16.7,-9.2 L16.7,7.3 L7.8,9.2 L7.8,-7.4 "/>
<path class="KeySig" transform="matrix(0.992,0,0,0.992,340.442,1353.4)" d="M23.3,-10.5 C23.9,-10.6 24.4,-11.3 24.4,-11.9 L24.4,-17.8 C24.4,-18.8 23.7,-19.2 22.8,-19.2 L19.5,-18.5 L19.5,-33.4 L16.7,-33.4 L16.7,-17.9 L7.8,-16.1 L7.8,-30.2 L5,-30.2 L5,-15.5 L1.1,-14.7 C0.5,-14.6 0,-13.9 0,-13.3 L0,-7.5 C0,-6.4 0.8,-6.1 1.7,-6.1 L5,-6.8 L5,9.7 L1.1,10.5 C0.5,10.6 0,11.3 0,11.9 L0,17.7 C0,18.8 0.8,19.1 1.7,19.1 L5,18.4 L5,33.3 L7.8,33.3 L7.8,17.8 L16.7,16 L16.7,30.1 L19.5,30.1 L19.5,15.4 L23.3,14.7 C23.9,14.6 24.4,13.9 24.4,13.3 L24.4,7.4 C24.4,6.4 23.7,6 22.8,6 L19.5,6.7 L19.5,-9.8 L23.3,-10.5 M7.8,-7.4 L16.7,-9.2 L16.7,7.3 L7.8,9.2 L7.8,-7.4 "/>
<path class="TimeSig" transform="matrix(0.992,0,0,0.992,391.964,659.494)" d="M27.2,-1.6 C32.2,-3.5 35.7,-6.7 35.7,-12.2 C35.7,-13.1 35.4,-24.4 18.2,-24.4 C1,-24.4 1.5,-12.2 1.5,-12.2 L1.6,-12.2 L1.5,-12 C1.5,-8.4 4.4,-5.6 8,-5.6 C11.6,-5.6 14.4,-8.4 14.4,-12 C14.4,-14.9 12.2,-17.7 9.4,-18.3 C9.5,-18.4 9.6,-18.5 9.7,-18.6 C11.1,-19.6 13,-20.1 14.9,-20.1 C19.1,-20.1 23.6,-17.6 23.6,-12.2 C23.6,-5.9 18.9,-5 17.7,-4.8 C16.5,-4.6 10.9,-4.2 9.7,-4.2 C8.5,-4.2 8.4,-2.8 8.4,-2.8 L8.4,-0.8 C8.4,-0.8 8.6,0.3 9.7,0.4 C11.4,0.5 13.7,0.5 16.9,1 C21.3,1.6 23.6,4.6 23.6,11.6 C23.6,18.3 19.1,20.1 14.9,20.1 C12.1,20.1 9.5,19.3 8.4,18.5 C11.7,18.3 14.4,15.4 14.4,12.1 C14.4,8.5 11.6,5.6 8,5.6 C4.4,5.6 1.5,8.5 1.5,12.1 C1.5,20.3 9,24.4 16.4,24.4 C26,24.4 36.4,21.1 36.4,10.2 C36.4,2.9 31.4,-0.2 27,-1.6 L27.2,-1.6 "/>
<path class="TimeSig" transform="matrix(0.992,0,0,0.992,388.058,708.598)" d="M20.8,12.7 L20.8,20.1 L12.5,20.1 C11.8,20.1 11.1,20.7 11.1,21.5 L11.1,23.4 C11.1,24.2 11.8,24.8 12.5,24.8 L42.8,24.8 C43.6,24.8 44.2,24.2 44.2,23.4 L44.2,21.5 C44.2,20.7 43.6,20.1 42.8,20.1 L33.9,20.1 L33.9,12.7 L42.8,12.7 C43.6,12.7 44.2,12 44.2,11.2 L44.2,9.3 C44.2,8.6 43.6,7.9 42.8,7.9 L33.9,7.9 L33.9,-8 C33.9,-8.6 33.6,-9.1 33.1,-9.3 L31.9,-9.9 C31.7,-10 31.4,-10.1 31.2,-10.1 C30.9,-10 30.5,-9.9 30.3,-9.7 L21.2,-1.4 C20.9,-1.1 20.8,-0.7 20.8,-0.3 L20.8,7.9 L9.3,7.9 C9.3,7.9 20.4,-4.1 32.2,-19.9 C32.6,-20.4 32.7,-20.9 32.7,-21.3 C32.7,-21.8 32.5,-22.2 32.4,-22.3 L30.2,-24.5 C30,-24.7 29.6,-24.9 29.2,-24.9 C28.6,-24.9 15.1,-24.9 14.4,-24.9 C13.6,-24.9 13.1,-24.3 13,-23.7 C13,-23.7 12.5,-16.3 9.9,-8.2 C7.3,-0.1 4.3,4.9 1.7,8.6 C1.7,8.6 1.4,9.1 1.4,9.7 C1.4,9.9 1.4,10.1 1.5,10.3 C1.9,11 2.5,12.1 2.5,12.1 C2.5,12.1 2.7,12.7 3.6,12.7 L20.8,12.7 "/>
<path class="Rest" transform="matrix(0.992,0,0,0.992,2598.58,1365.8)" d="M23,16.6 C22.9,16.5 22.7,16.3 22.4,15.9 L10.9,1.7 C10.8,1.6 10.7,1.3 10.7,1.1 C10.7,0.8 10.8,0.4 10.9,0.2 L21.1,-15.2 C21.2,-15.4 21.3,-15.7 21.3,-15.9 L21.3,-16.8 C21.3,-17.1 21.2,-17.4 21,-17.6 L4.8,-39.5 C4.8,-39.5 4.4,-40.1 3.8,-40.1 C3.5,-40.1 3.3,-40.1 3,-39.8 C2.6,-39.5 2.5,-39.1 2.5,-38.8 C2.5,-38.2 2.8,-37.7 2.8,-37.7 L10.4,-27.3 C10.6,-27 10.7,-26.6 10.7,-26.1 C10.7,-25.7 10.6,-25.2 10.4,-24.9 L0.3,-9.5 C0.2,-9.3 0.1,-8.9 0.1,-8.7 L0.1,-7.8 C0.1,-7.5 0.2,-7.2 0.4,-7 L11.6,6.9 C11.2,6.8 10.3,6.6 9.1,6.6 C4,6.6 0,10.8 0,15.9 C0,17.3 0.3,18.7 1.1,19.8 C3.2,23 10.7,32.5 10.7,32.5 C10.7,32.5 11.2,33.1 11.9,33.1 C12.1,33.1 12.3,33.1 12.5,32.9 C13,32.5 13.2,32.1 13.2,31.7 C13.2,31.3 13,31 12.9,30.8 C12.6,30.3 9.4,24.5 9.4,24.5 C9.4,24.5 8.7,23.1 8.7,21.3 C8.7,18.1 11.1,15.5 14.3,15.5 C15.6,15.5 16.7,15.9 17.5,16.4 L21.4,18.9 C21.4,18.9 21.8,19.1 22.2,19.1 C22.6,19.1 22.9,19 23.2,18.6 C23.4,18.3 23.5,18 23.5,17.7 C23.5,17.4 23.4,17.2 23.2,16.9 L23,16.6 "/>
<path class="Rest" transform="matrix(0.992,0,0,0.992,2588.74,683.798)" d="M23,16.6 C22.9,16.5 22.7,16.3 22.4,15.9 L10.9,1.7 C10.8,1.6 10.7,1.3 10.7,1.1 C10.7,0.8 10.8,0.4 10.9,0.2 L21.1,-15.2 C21.2,-15.4 21.3,-15.7 21.3,-15.9 L21.3,-16.8 C21.3,-17.1 21.2,-17.4 21,-17.6 L4.8,-39.5 C4.8,-39.5 4.4,-40.1 3.8,-40.1 C3.5,-40.1 3.3,-40.1 3,-39.8 C2.6,-39.5 2.5,-39.1 2.5,-38.8 C2.5,-38.2 2.8,-37.7 2.8,-37.7 L10.4,-27.3 C10.6,-27 10.7,-26.6 10.7,-26.1 C10.7,-25.7 10.6,-25.2 10.4,-24.9 L0.3,-9.5 C0.2,-9.3 0.1,-8.9 0.1,-8.7 L0.1,-7.8 C0.1,-7.5 0.2,-7.2 0.4,-7 L11.6,6.9 C11.2,6.8 10.3,6.6 9.1,6.6 C4,6.6 0,10.8 0,15.9 C0,17.3 0.3,18.7 1.1,19.8 C3.2,23 10.7,32.5 10.7,32.5 C10.7,32.5 11.2,33.1 11.9,33.1 C12.1,33.1 12.3,33.1 12.5,32.9 C13,32.5 13.2,32.1 13.2,31.7 C13.2,31.3 13,31 12.9,30.8 C12.6,30.3 9.4,24.5 9.4,24.5 C9.4,24.5 8.7,23.1 8.7,21.3 C8.7,18.1 11.1,15.5 14.3,15.5 C15.6,15.5 16.7,15.9 17.5,16.4 L21.4,18.9 C21.4,18.9 21.8,19.1 22.2,19.1 C22.6,19.1 22.9,19 23.2,18.6 C23.4,18.3 23.5,18 23.5,17.7 C23.5,17.4 23.4,17.2 23.2,16.9 L23,16.6 "/>
<path class="Beam" fill-rule="evenodd" d="M1090.66,590.798 L1435.94,590.798 L1435.94,603.198 L1090.66,603.198 L1090.66,590.798 "/>
<path class="Beam" fill-rule="evenodd" d="M1022.57,1272.79 L1563.58,1297.59 L1563.58,1310 L1022.57,1285.2 L1022.57,1272.79 "/>
<path class="Beam" fill-rule="evenodd" d="M456.382,1297.59 L566.57,1291.39 L566.57,1303.81 L456.382,1310.01 L456.382,1297.59 "/>
<path class="Beam" fill-rule="evenodd" d="M495.117,683.764 L611.863,671.364 L611.863,683.833 L495.117,696.233 L495.117,683.764 "/>
<path class="Beam" fill-rule="evenodd" d="M1754.59,609.39 L1871.33,615.59 L1871.33,628.007 L1754.59,621.807 L1754.59,609.39 "/>
<path class="Beam" fill-rule="evenodd" d="M1704.27,1303.8 L2245.29,1316.2 L2245.29,1328.6 L1704.27,1316.2 L1704.27,1303.8 "/>
<path class="Tempo" d="M413.304,467.041 L410.037,467.041 L410.037,509.314 C408.948,508.621 407.562,508.225 405.978,508.027 C402.414,508.027 399.543,508.423 396.375,510.205 C392.415,512.284 388.059,516.64 388.059,521.491 C388.059,526.243 392.316,528.52 396.672,528.52 C403.602,528.52 413.304,522.58 413.304,515.056 L413.304,467.041 "/>
<path class="Tempo" d="M435.556,504.997 L465.796,504.997 L465.796,498.097 L435.556,498.097 L435.556,504.997 M435.556,517.357 L465.796,517.357 L465.796,510.457 L435.556,510.457 L435.556,517.357 M510.254,498.217 C514.214,496.717 517.334,494.377 517.334,489.637 C517.334,484.117 512.114,480.397 504.314,480.397 C495.014,480.397 489.014,485.377 489.014,493.177 C489.014,497.917 491.234,501.397 495.974,503.917 C494.114,504.517 493.334,504.757 492.314,505.297 C489.314,506.857 487.694,509.617 487.694,513.097 C487.694,519.577 493.514,523.717 502.634,523.717 C512.294,523.717 518.834,518.197 518.834,509.977 C518.834,504.337 516.074,500.617 510.254,498.217 M506.894,496.957 C504.374,496.357 502.514,495.817 501.374,495.397 C498.614,494.377 496.814,491.917 496.814,489.277 C496.814,485.977 499.574,483.517 503.294,483.517 C507.314,483.517 509.834,486.157 509.834,490.357 C509.834,493.057 508.814,495.337 506.894,496.957 M499.214,505.537 C501.674,506.197 504.674,507.097 506.174,507.577 C509.954,508.897 511.394,510.517 511.394,513.577 C511.394,517.657 508.034,520.597 503.294,520.597 C498.434,520.597 495.494,517.717 495.494,512.917 C495.494,509.737 496.514,507.697 499.214,505.537 M537.732,480.397 C528.732,480.397 522.132,489.577 522.132,502.057 C522.132,514.537 528.732,523.717 537.732,523.717 C546.552,523.717 553.272,514.537 553.272,502.357 C553.272,495.277 551.652,490.057 548.112,485.617 C545.292,482.197 541.752,480.397 537.732,480.397 M537.672,483.517 C539.472,483.517 540.912,484.597 541.572,486.517 C542.352,488.497 542.832,494.797 542.832,502.237 C542.832,508.417 542.352,514.897 541.812,516.937 C541.152,519.337 539.712,520.597 537.672,520.597 C535.812,520.597 534.432,519.577 533.712,517.597 C532.932,515.617 532.452,509.257 532.452,502.057 C532.452,495.757 532.932,489.217 533.472,487.177 C534.132,484.777 535.572,483.517 537.672,483.517"/>
<path class="Harmony" d="M1423.66,1254.2 L1440.46,1254.2 C1444.91,1254.2 1448.31,1253.5 1450.96,1252 C1456.01,1249.15 1458.81,1243.45 1458.81,1235.95 C1458.81,1229.05 1456.31,1223.65 1451.71,1220.65 C1448.96,1218.9 1445.26,1218.1 1439.56,1218.1 L1423.66,1218.1 L1423.66,1220.45 L1424.61,1220.45 C1427.41,1220.5 1428.36,1220.65 1428.76,1221.15 C1429.06,1221.6 1429.06,1221.7 1429.06,1224.25 L1429.06,1248.05 C1429.06,1250.6 1429.06,1250.7 1428.76,1251.15 C1428.36,1251.65 1427.41,1251.8 1424.61,1251.85 L1423.66,1251.85 L1423.66,1254.2 M1437.51,1251.85 C1434.96,1251.85 1434.66,1251.55 1434.66,1249.1 L1434.66,1223.25 C1434.66,1220.8 1435.01,1220.45 1437.51,1220.45 L1440.11,1220.45 C1448.66,1220.45 1452.21,1225.1 1452.21,1236.15 C1452.21,1247.35 1449.01,1251.85 1440.91,1251.85 L1437.51,1251.85 "/>
<path class="Harmony" d="M2356.25,1254.2 L2373.05,1254.2 C2377.5,1254.2 2380.9,1253.5 2383.55,1252 C2388.6,1249.15 2391.4,1243.45 2391.4,1235.95 C2391.4,1229.05 2388.9,1223.65 2384.3,1220.65 C2381.55,1218.9 2377.85,1218.1 2372.15,1218.1 L2356.25,1218.1 L2356.25,1220.45 L2357.2,1220.45 C2360,1220.5 2360.95,1220.65 2361.35,1221.15 C2361.65,1221.6 2361.65,1221.7 2361.65,1224.25 L2361.65,1248.05 C2361.65,1250.6 2361.65,1250.7 2361.35,1251.15 C2360.95,1251.65 2360,1251.8 2357.2,1251.85 L2356.25,1251.85 L2356.25,1254.2 M2370.1,1251.85 C2367.55,1251.85 2367.25,1251.55 2367.25,1249.1 L2367.25,1223.25 C2367.25,1220.8 2367.6,1220.45 2370.1,1220.45 L2372.7,1220.45 C2381.25,1220.45 2384.8,1225.1 2384.8,1236.15 C2384.8,1247.35 2381.6,1251.85 2373.5,1251.85 L2370.1,1251.85 "/>
<path class="Harmony" d="M1023.23,1217.75 L1021.33,1217.75 L1019.38,1220.75 C1016.13,1218.2 1013.93,1217.35 1010.28,1217.35 C1006.33,1217.35 1003.23,1218.45 1000.08,1221 C995.127,1225 992.827,1230.05 992.827,1236.8 C992.827,1241.9 994.277,1246.15 997.227,1249.4 C1000.33,1252.9 1004.93,1254.95 1009.73,1254.95 C1013.93,1254.95 1016.88,1253.65 1020.13,1250.4 L1021.98,1254.9 L1024.08,1254.9 L1024.08,1243.9 C1024.08,1241.35 1024.08,1241.25 1024.38,1240.8 C1024.83,1240.25 1025.73,1240.1 1028.58,1240.1 L1029.33,1240.1 L1029.33,1237.75 L1013.43,1237.75 L1013.43,1240.1 L1014.38,1240.1 C1018.58,1240.1 1018.93,1240.35 1018.93,1243.15 C1018.93,1245.3 1018.58,1247.25 1017.93,1248.45 C1016.68,1250.9 1013.48,1252.6 1010.23,1252.6 C1006.98,1252.6 1003.78,1250.95 1002.08,1248.45 C1000.23,1245.65 999.427,1242.15 999.427,1236.8 C999.427,1225.65 1003.13,1219.7 1010.08,1219.7 C1015.78,1219.7 1019.73,1223.8 1021.78,1231.8 L1023.93,1231.8 L1023.23,1217.75 "/>
<path class="Harmony" d="M811.144,1218.1 L781.394,1218.1 L781.394,1220.45 L782.294,1220.45 C785.144,1220.5 786.094,1220.65 786.494,1221.15 C786.794,1221.6 786.794,1221.7 786.794,1224.25 L786.794,1248.05 C786.794,1250.6 786.794,1250.7 786.494,1251.15 C786.094,1251.65 785.144,1251.85 782.294,1251.85 L781.394,1251.85 L781.394,1254.2 L798.544,1254.2 L798.544,1251.85 L796.894,1251.85 C794.044,1251.85 793.094,1251.65 792.694,1251.15 C792.394,1250.7 792.394,1250.55 792.394,1248.05 L792.394,1236.7 L793.394,1236.7 C798.544,1236.5 800.394,1238.35 800.594,1243.9 L802.944,1243.9 L802.944,1227.5 L800.594,1227.5 C800.294,1232.4 798.344,1234.3 793.594,1234.35 L792.394,1234.35 L792.394,1222.95 C792.344,1220.85 792.844,1220.5 795.544,1220.45 L797.844,1220.45 C806.044,1220.4 808.094,1222.25 809.644,1230.85 L811.844,1230.85 L811.144,1218.1 "/>
<path class="Harmony" d="M834.441,1229.15 C834.841,1229.05 835.191,1228.65 835.191,1228.25 L835.191,1224.35 C835.191,1224.1 835.041,1223.8 834.841,1223.65 C834.691,1223.5 834.441,1223.4 834.291,1223.4 C834.241,1223.4 834.141,1223.45 834.091,1223.45 L831.941,1223.9 L831.941,1214.05 L830.091,1214.05 L830.091,1224.25 L824.191,1225.5 L824.191,1216.15 L822.341,1216.15 L822.341,1225.85 L819.791,1226.4 C819.391,1226.5 819.041,1226.9 819.041,1227.3 L819.041,1231.15 C819.041,1231.4 819.191,1231.7 819.391,1231.85 C819.641,1232 819.841,1232.05 820.141,1232.05 L822.341,1231.6 L822.341,1242.5 L819.791,1243.05 C819.391,1243.15 819.041,1243.55 819.041,1243.95 L819.041,1247.8 C819.041,1248 819.191,1248.35 819.391,1248.5 C819.541,1248.6 819.791,1248.7 819.941,1248.7 L819.991,1248.7 C820.041,1248.7 820.091,1248.7 820.141,1248.65 L822.341,1248.2 L822.341,1258.05 L824.191,1258.05 L824.191,1247.85 L830.091,1246.65 L830.091,1255.95 L831.941,1255.95 L831.941,1246.3 L834.441,1245.75 C834.841,1245.7 835.191,1245.3 835.191,1244.9 L835.191,1241 C835.191,1240.75 835.041,1240.4 834.841,1240.25 C834.741,1240.15 834.441,1240.05 834.291,1240.05 C834.241,1240.05 834.141,1240.05 834.091,1240.1 L831.941,1240.55 L831.941,1229.65 L834.441,1229.15 M824.191,1231.2 L830.091,1230 L830.091,1240.9 L824.191,1242.15 L824.191,1231.2 M848.541,1230.9 L839.641,1231.45 L839.641,1233.6 L841.691,1233.6 C843.591,1233.65 843.841,1233.95 843.841,1236.1 L843.841,1250.4 C843.791,1251.15 843.741,1251.45 843.541,1251.7 C843.191,1252.15 842.241,1252.35 840.091,1252.4 L839.891,1252.4 L839.891,1254.2 L852.491,1254.2 L852.491,1252.4 L852.291,1252.4 C848.991,1252.3 848.541,1252.05 848.541,1250.2 L848.541,1240.95 C848.541,1236.5 850.991,1233.2 854.241,1233.2 C857.091,1233.2 858.541,1235.25 858.541,1239.3 L858.541,1250.45 C858.491,1251.1 858.441,1251.45 858.191,1251.7 C857.891,1252.15 856.891,1252.35 854.741,1252.4 L854.541,1252.4 L854.541,1254.2 L867.191,1254.2 L867.191,1252.4 L866.991,1252.4 C863.691,1252.3 863.241,1252.05 863.241,1250.25 L863.241,1241.4 C863.241,1236.4 865.491,1233.2 868.991,1233.2 C871.841,1233.2 873.241,1235.35 873.241,1239.85 L873.241,1250.4 C873.191,1251.1 873.141,1251.45 872.891,1251.7 C872.591,1252.15 871.591,1252.35 869.441,1252.4 L869.241,1252.4 L869.241,1254.2 L881.891,1254.2 L881.891,1252.4 L881.691,1252.4 C878.391,1252.3 877.941,1252.05 877.941,1250.2 L877.941,1238.85 C877.941,1235.75 877.641,1234.7 876.341,1233 C874.891,1231.15 872.841,1230.15 870.441,1230.15 C867.191,1230.15 864.791,1231.7 862.641,1235.15 C861.791,1232.15 859.091,1230.15 855.741,1230.15 C852.691,1230.15 850.491,1231.6 848.541,1234.75 L848.541,1230.9 "/>
<path class="Harmony" d="M885.878,1231.1 L888.078,1231.45 L888.978,1227.5 C889.728,1224.2 890.078,1223.7 891.528,1223.7 C891.778,1223.7 892.178,1223.7 892.628,1223.75 C898.778,1224.05 898.778,1224.05 901.078,1224.05 C901.728,1224.05 902.878,1224.05 904.278,1224 L900.878,1230.85 C897.178,1238.2 896.728,1239.1 895.478,1242.2 C893.928,1245.95 893.128,1249.1 893.128,1251.2 C893.128,1253.5 894.328,1254.9 896.278,1254.9 C898.678,1254.9 899.628,1253.3 899.578,1248.95 C899.328,1241.75 900.228,1238.25 905.578,1226.55 C906.478,1224.6 907.428,1222.6 908.328,1220.65 L908.328,1219.2 C905.328,1219.45 903.728,1219.55 900.628,1219.55 C896.278,1219.55 892.828,1219.4 887.428,1219 L885.878,1231.1 "/>
<path class="Harmony" d="M671.815,1218.1 L642.065,1218.1 L642.065,1220.45 L642.965,1220.45 C645.815,1220.5 646.765,1220.65 647.165,1221.15 C647.465,1221.6 647.465,1221.7 647.465,1224.25 L647.465,1248.05 C647.465,1250.6 647.465,1250.7 647.165,1251.15 C646.765,1251.65 645.815,1251.85 642.965,1251.85 L642.065,1251.85 L642.065,1254.2 L659.215,1254.2 L659.215,1251.85 L657.565,1251.85 C654.715,1251.85 653.765,1251.65 653.365,1251.15 C653.065,1250.7 653.065,1250.55 653.065,1248.05 L653.065,1236.7 L654.065,1236.7 C659.215,1236.5 661.065,1238.35 661.265,1243.9 L663.615,1243.9 L663.615,1227.5 L661.265,1227.5 C660.965,1232.4 659.015,1234.3 654.265,1234.35 L653.065,1234.35 L653.065,1222.95 C653.015,1220.85 653.515,1220.5 656.215,1220.45 L658.515,1220.45 C666.715,1220.4 668.765,1222.25 670.315,1230.85 L672.515,1230.85 L671.815,1218.1 "/>
<path class="Harmony" d="M695.112,1229.15 C695.512,1229.05 695.862,1228.65 695.862,1228.25 L695.862,1224.35 C695.862,1224.1 695.712,1223.8 695.512,1223.65 C695.362,1223.5 695.112,1223.4 694.962,1223.4 C694.912,1223.4 694.812,1223.45 694.762,1223.45 L692.612,1223.9 L692.612,1214.05 L690.762,1214.05 L690.762,1224.25 L684.862,1225.5 L684.862,1216.15 L683.012,1216.15 L683.012,1225.85 L680.462,1226.4 C680.062,1226.5 679.712,1226.9 679.712,1227.3 L679.712,1231.15 C679.712,1231.4 679.862,1231.7 680.062,1231.85 C680.312,1232 680.512,1232.05 680.812,1232.05 L683.012,1231.6 L683.012,1242.5 L680.462,1243.05 C680.062,1243.15 679.712,1243.55 679.712,1243.95 L679.712,1247.8 C679.712,1248 679.862,1248.35 680.062,1248.5 C680.212,1248.6 680.462,1248.7 680.612,1248.7 L680.662,1248.7 C680.712,1248.7 680.762,1248.7 680.812,1248.65 L683.012,1248.2 L683.012,1258.05 L684.862,1258.05 L684.862,1247.85 L690.762,1246.65 L690.762,1255.95 L692.612,1255.95 L692.612,1246.3 L695.112,1245.75 C695.512,1245.7 695.862,1245.3 695.862,1244.9 L695.862,1241 C695.862,1240.75 695.712,1240.4 695.512,1240.25 C695.412,1240.15 695.112,1240.05 694.962,1240.05 C694.912,1240.05 694.812,1240.05 694.762,1240.1 L692.612,1240.55 L692.612,1229.65 L695.112,1229.15 M684.862,1231.2 L690.762,1230 L690.762,1240.9 L684.862,1242.15 L684.862,1231.2 M709.212,1230.9 L700.312,1231.45 L700.312,1233.6 L702.362,1233.6 C704.262,1233.65 704.512,1233.95 704.512,1236.1 L704.512,1250.4 C704.462,1251.15 704.412,1251.45 704.212,1251.7 C703.862,1252.15 702.912,1252.35 700.762,1252.4 L700.562,1252.4 L700.562,1254.2 L713.162,1254.2 L713.162,1252.4 L712.962,1252.4 C709.662,1252.3 709.212,1252.05 709.212,1250.2 L709.212,1240.95 C709.212,1236.5 711.662,1233.2 714.912,1233.2 C717.762,1233.2 719.212,1235.25 719.212,1239.3 L719.212,1250.45 C719.162,1251.1 719.112,1251.45 718.862,1251.7 C718.562,1252.15 717.562,1252.35 715.412,1252.4 L715.212,1252.4 L715.212,1254.2 L727.862,1254.2 L727.862,1252.4 L727.662,1252.4 C724.362,1252.3 723.912,1252.05 723.912,1250.25 L723.912,1241.4 C723.912,1236.4 726.162,1233.2 729.662,1233.2 C732.512,1233.2 733.912,1235.35 733.912,1239.85 L733.912,1250.4 C733.862,1251.1 733.812,1251.45 733.562,1251.7 C733.262,1252.15 732.262,1252.35 730.112,1252.4 L729.912,1252.4 L729.912,1254.2 L742.562,1254.2 L742.562,1252.4 L742.362,1252.4 C739.062,1252.3 738.612,1252.05 738.612,1250.2 L738.612,1238.85 C738.612,1235.75 738.312,1234.7 737.012,1233 C735.562,1231.15 733.512,1230.15 731.112,1230.15 C727.862,1230.15 725.462,1231.7 723.312,1235.15 C722.462,1232.15 719.762,1230.15 716.412,1230.15 C713.362,1230.15 711.162,1231.6 709.212,1234.75 L709.212,1230.9 "/>
<path class="Harmony" d="M746.549,1231.1 L748.749,1231.45 L749.649,1227.5 C750.399,1224.2 750.749,1223.7 752.199,1223.7 C752.449,1223.7 752.849,1223.7 753.299,1223.75 C759.449,1224.05 759.449,1224.05 761.749,1224.05 C762.399,1224.05 763.549,1224.05 764.949,1224 L761.549,1230.85 C757.849,1238.2 757.399,1239.1 756.149,1242.2 C754.599,1245.95 753.799,1249.1 753.799,1251.2 C753.799,1253.5 754.999,1254.9 756.949,1254.9 C759.349,1254.9 760.299,1253.3 760.249,1248.95 C759.999,1241.75 760.899,1238.25 766.249,1226.55 C767.149,1224.6 768.099,1222.6 768.999,1220.65 L768.999,1219.2 C765.999,1219.45 764.399,1219.55 761.299,1219.55 C756.949,1219.55 753.499,1219.4 748.099,1219 L746.549,1231.1 "/>
<path class="Harmony" d="M1674.54,1254.2 L1691.34,1254.2 C1695.79,1254.2 1699.19,1253.5 1701.84,1252 C1706.89,1249.15 1709.69,1243.45 1709.69,1235.95 C1709.69,1229.05 1707.19,1223.65 1702.59,1220.65 C1699.84,1218.9 1696.14,1218.1 1690.44,1218.1 L1674.54,1218.1 L1674.54,1220.45 L1675.49,1220.45 C1678.29,1220.5 1679.24,1220.65 1679.64,1221.15 C1679.94,1221.6 1679.94,1221.7 1679.94,1224.25 L1679.94,1248.05 C1679.94,1250.6 1679.94,1250.7 1679.64,1251.15 C1679.24,1251.65 1678.29,1251.8 1675.49,1251.85 L1674.54,1251.85 L1674.54,1254.2 M1688.39,1251.85 C1685.84,1251.85 1685.54,1251.55 1685.54,1249.1 L1685.54,1223.25 C1685.54,1220.8 1685.89,1220.45 1688.39,1220.45 L1690.99,1220.45 C1699.54,1220.45 1703.09,1225.1 1703.09,1236.15 C1703.09,1247.35 1699.89,1251.85 1691.79,1251.85 L1688.39,1251.85 "/>
<path class="Harmony" d="M426.638,1218.1 L426.638,1220.45 L427.538,1220.45 C430.388,1220.5 431.338,1220.65 431.738,1221.15 C432.038,1221.6 432.038,1221.7 432.038,1224.25 L432.038,1248.05 C432.038,1250.6 432.038,1250.7 431.738,1251.15 C431.338,1251.65 430.388,1251.85 427.538,1251.85 L426.638,1251.85 L426.638,1254.2 L444.788,1254.2 C453.438,1254.2 458.638,1250.55 458.638,1244.4 C458.638,1239.4 455.488,1236.55 448.638,1235.35 C451.038,1234.85 452.138,1234.4 453.438,1233.45 C455.488,1231.9 456.738,1229.45 456.738,1226.95 C456.738,1223.7 454.738,1220.55 451.838,1219.3 C450.038,1218.5 447.538,1218.1 444.588,1218.1 L426.638,1218.1 M437.638,1234.35 L437.638,1222.95 C437.638,1221 438.288,1220.5 440.938,1220.45 L442.938,1220.45 C447.838,1220.45 450.938,1222.05 450.938,1227.5 C450.938,1232.45 448.538,1234.35 442.088,1234.35 L437.638,1234.35 M437.638,1236.7 L442.038,1236.7 C449.688,1236.7 452.488,1238.75 452.488,1244.25 C452.488,1250.95 448.288,1251.85 442.638,1251.85 L440.538,1251.85 C438.038,1251.85 437.538,1251.35 437.638,1248.7 L437.638,1236.7 "/>
<path class="Harmony" d="M473.735,1230.9 L464.835,1231.45 L464.835,1233.6 L466.885,1233.6 C468.785,1233.65 469.035,1233.95 469.035,1236.1 L469.035,1250.4 C468.985,1251.15 468.935,1251.45 468.735,1251.7 C468.385,1252.15 467.435,1252.35 465.285,1252.4 L465.085,1252.4 L465.085,1254.2 L477.685,1254.2 L477.685,1252.4 L477.485,1252.4 C474.185,1252.3 473.735,1252.05 473.735,1250.2 L473.735,1240.95 C473.735,1236.5 476.185,1233.2 479.435,1233.2 C482.285,1233.2 483.735,1235.25 483.735,1239.3 L483.735,1250.45 C483.685,1251.1 483.635,1251.45 483.385,1251.7 C483.085,1252.15 482.085,1252.35 479.935,1252.4 L479.735,1252.4 L479.735,1254.2 L492.385,1254.2 L492.385,1252.4 L492.185,1252.4 C488.885,1252.3 488.435,1252.05 488.435,1250.25 L488.435,1241.4 C488.435,1236.4 490.685,1233.2 494.185,1233.2 C497.035,1233.2 498.435,1235.35 498.435,1239.85 L498.435,1250.4 C498.385,1251.1 498.335,1251.45 498.085,1251.7 C497.785,1252.15 496.785,1252.35 494.635,1252.4 L494.435,1252.4 L494.435,1254.2 L507.085,1254.2 L507.085,1252.4 L506.885,1252.4 C503.585,1252.3 503.135,1252.05 503.135,1250.2 L503.135,1238.85 C503.135,1235.75 502.835,1234.7 501.535,1233 C500.085,1231.15 498.035,1230.15 495.635,1230.15 C492.385,1230.15 489.985,1231.7 487.835,1235.15 C486.985,1232.15 484.285,1230.15 480.935,1230.15 C477.885,1230.15 475.685,1231.6 473.735,1234.75 L473.735,1230.9 "/>
<path class="Harmony" d="M2588.75,572.198 L2605.55,572.198 C2610,572.198 2613.4,571.498 2616.05,569.998 C2621.1,567.148 2623.9,561.448 2623.9,553.948 C2623.9,547.048 2621.4,541.648 2616.8,538.648 C2614.05,536.898 2610.35,536.098 2604.65,536.098 L2588.75,536.098 L2588.75,538.448 L2589.7,538.448 C2592.5,538.498 2593.45,538.648 2593.85,539.148 C2594.15,539.598 2594.15,539.698 2594.15,542.248 L2594.15,566.048 C2594.15,568.598 2594.15,568.698 2593.85,569.148 C2593.45,569.648 2592.5,569.798 2589.7,569.848 L2588.75,569.848 L2588.75,572.198 M2602.6,569.848 C2600.05,569.848 2599.75,569.548 2599.75,567.098 L2599.75,541.248 C2599.75,538.798 2600.1,538.448 2602.6,538.448 L2605.2,538.448 C2613.75,538.448 2617.3,543.098 2617.3,554.148 C2617.3,565.348 2614.1,569.848 2606,569.848 L2602.6,569.848 "/>
<path class="Harmony" d="M2460.2,572.198 L2477,572.198 C2481.45,572.198 2484.85,571.498 2487.5,569.998 C2492.55,567.148 2495.35,561.448 2495.35,553.948 C2495.35,547.048 2492.85,541.648 2488.25,538.648 C2485.5,536.898 2481.8,536.098 2476.1,536.098 L2460.2,536.098 L2460.2,538.448 L2461.15,538.448 C2463.95,538.498 2464.9,538.648 2465.3,539.148 C2465.6,539.598 2465.6,539.698 2465.6,542.248 L2465.6,566.048 C2465.6,568.598 2465.6,568.698 2465.3,569.148 C2464.9,569.648 2463.95,569.798 2461.15,569.848 L2460.2,569.848 L2460.2,572.198 M2474.05,569.848 C2471.5,569.848 2471.2,569.548 2471.2,567.098 L2471.2,541.248 C2471.2,538.798 2471.55,538.448 2474.05,538.448 L2476.65,538.448 C2485.2,538.448 2488.75,543.098 2488.75,554.148 C2488.75,565.348 2485.55,569.848 2477.45,569.848 L2474.05,569.848 "/>
<path class="Harmony" d="M2331.65,572.198 L2348.45,572.198 C2352.9,572.198 2356.3,571.498 2358.95,569.998 C2364,567.148 2366.8,561.448 2366.8,553.948 C2366.8,547.048 2364.3,541.648 2359.7,538.648 C2356.95,536.898 2353.25,536.098 2347.55,536.098 L2331.65,536.098 L2331.65,538.448 L2332.6,538.448 C2335.4,538.498 2336.35,538.648 2336.75,539.148 C2337.05,539.598 2337.05,539.698 2337.05,542.248 L2337.05,566.048 C2337.05,568.598 2337.05,568.698 2336.75,569.148 C2336.35,569.648 2335.4,569.798 2332.6,569.848 L2331.65,569.848 L2331.65,572.198 M2345.5,569.848 C2342.95,569.848 2342.65,569.548 2342.65,567.098 L2342.65,541.248 C2342.65,538.798 2343,538.448 2345.5,538.448 L2348.1,538.448 C2356.65,538.448 2360.2,543.098 2360.2,554.148 C2360.2,565.348 2357,569.848 2348.9,569.848 L2345.5,569.848 "/>
<path class="Harmony" d="M1889.96,1254.2 L1906.76,1254.2 C1911.21,1254.2 1914.61,1253.5 1917.26,1252 C1922.31,1249.15 1925.11,1243.45 1925.11,1235.95 C1925.11,1229.05 1922.61,1223.65 1918.01,1220.65 C1915.26,1218.9 1911.56,1218.1 1905.86,1218.1 L1889.96,1218.1 L1889.96,1220.45 L1890.91,1220.45 C1893.71,1220.5 1894.66,1220.65 1895.06,1221.15 C1895.36,1221.6 1895.36,1221.7 1895.36,1224.25 L1895.36,1248.05 C1895.36,1250.6 1895.36,1250.7 1895.06,1251.15 C1894.66,1251.65 1893.71,1251.8 1890.91,1251.85 L1889.96,1251.85 L1889.96,1254.2 M1903.81,1251.85 C1901.26,1251.85 1900.96,1251.55 1900.96,1249.1 L1900.96,1223.25 C1900.96,1220.8 1901.31,1220.45 1903.81,1220.45 L1906.41,1220.45 C1914.96,1220.45 1918.51,1225.1 1918.51,1236.15 C1918.51,1247.35 1915.31,1251.85 1907.21,1251.85 L1903.81,1251.85 "/>
<path class="Harmony" d="M2155.18,535.748 L2153.28,535.748 L2151.33,538.748 C2148.08,536.198 2145.88,535.348 2142.23,535.348 C2138.28,535.348 2135.18,536.448 2132.03,538.998 C2127.08,542.998 2124.78,548.048 2124.78,554.798 C2124.78,559.898 2126.23,564.148 2129.18,567.398 C2132.28,570.898 2136.88,572.948 2141.68,572.948 C2145.88,572.948 2148.83,571.648 2152.08,568.398 L2153.93,572.898 L2156.03,572.898 L2156.03,561.898 C2156.03,559.348 2156.03,559.248 2156.33,558.798 C2156.78,558.248 2157.68,558.098 2160.53,558.098 L2161.28,558.098 L2161.28,555.748 L2145.38,555.748 L2145.38,558.098 L2146.33,558.098 C2150.53,558.098 2150.88,558.348 2150.88,561.148 C2150.88,563.298 2150.53,565.248 2149.88,566.448 C2148.63,568.898 2145.43,570.598 2142.18,570.598 C2138.93,570.598 2135.73,568.948 2134.03,566.448 C2132.18,563.648 2131.38,560.148 2131.38,554.798 C2131.38,543.648 2135.08,537.698 2142.03,537.698 C2147.73,537.698 2151.68,541.798 2153.73,549.798 L2155.88,549.798 L2155.18,535.748 "/>
<path class="Harmony" d="M2174.08,548.898 L2165.18,549.448 L2165.18,551.598 L2167.23,551.598 C2169.13,551.648 2169.38,551.948 2169.38,554.098 L2169.38,568.398 C2169.33,569.148 2169.28,569.448 2169.08,569.698 C2168.73,570.148 2167.78,570.348 2165.63,570.398 L2165.43,570.398 L2165.43,572.198 L2178.03,572.198 L2178.03,570.398 L2177.83,570.398 C2174.53,570.298 2174.08,570.048 2174.08,568.198 L2174.08,558.948 C2174.08,554.498 2176.53,551.198 2179.78,551.198 C2182.63,551.198 2184.08,553.248 2184.08,557.298 L2184.08,568.448 C2184.03,569.098 2183.98,569.448 2183.73,569.698 C2183.43,570.148 2182.43,570.348 2180.28,570.398 L2180.08,570.398 L2180.08,572.198 L2192.73,572.198 L2192.73,570.398 L2192.53,570.398 C2189.23,570.298 2188.78,570.048 2188.78,568.248 L2188.78,559.398 C2188.78,554.398 2191.03,551.198 2194.53,551.198 C2197.38,551.198 2198.78,553.348 2198.78,557.848 L2198.78,568.398 C2198.73,569.098 2198.68,569.448 2198.43,569.698 C2198.13,570.148 2197.13,570.348 2194.98,570.398 L2194.78,570.398 L2194.78,572.198 L2207.43,572.198 L2207.43,570.398 L2207.23,570.398 C2203.93,570.298 2203.48,570.048 2203.48,568.198 L2203.48,556.848 C2203.48,553.748 2203.18,552.698 2201.88,550.998 C2200.43,549.148 2198.38,548.148 2195.98,548.148 C2192.73,548.148 2190.33,549.698 2188.18,553.148 C2187.33,550.148 2184.63,548.148 2181.28,548.148 C2178.23,548.148 2176.03,549.598 2174.08,552.748 L2174.08,548.898 "/>
<path class="Harmony" d="M2216.11,555.198 C2216.61,548.948 2216.86,547.298 2217.96,544.748 C2219.41,541.198 2222.06,539.148 2225.21,539.148 C2226.96,539.148 2228.01,539.698 2228.01,540.598 C2228.01,540.798 2227.96,540.948 2227.76,541.298 C2227.26,542.248 2227.01,542.998 2227.01,543.698 C2227.01,545.348 2228.31,546.598 2230.06,546.598 C2232.01,546.598 2233.36,545.098 2233.36,542.998 C2233.36,539.548 2229.91,536.998 2225.16,536.998 C2214.76,536.998 2210.56,547.948 2210.56,556.798 C2210.56,566.598 2215.36,572.948 2222.76,572.948 C2229.46,572.948 2234.26,567.598 2234.26,560.998 C2234.26,555.098 2230.06,550.698 2224.36,550.698 C2220.96,550.698 2218.46,552.048 2216.11,555.198 M2222.96,553.748 C2226.61,553.748 2228.81,556.598 2228.81,561.348 C2228.81,567.148 2226.51,570.798 2222.86,570.798 C2218.41,570.798 2216.41,565.848 2216.41,562.048 C2216.41,556.898 2218.91,553.748 2222.96,553.748"/>
<path class="Harmony" d="M2598.59,1254.2 L2615.39,1254.2 C2619.84,1254.2 2623.24,1253.5 2625.89,1252 C2630.94,1249.15 2633.74,1243.45 2633.74,1235.95 C2633.74,1229.05 2631.24,1223.65 2626.64,1220.65 C2623.89,1218.9 2620.19,1218.1 2614.49,1218.1 L2598.59,1218.1 L2598.59,1220.45 L2599.54,1220.45 C2602.34,1220.5 2603.29,1220.65 2603.69,1221.15 C2603.99,1221.6 2603.99,1221.7 2603.99,1224.25 L2603.99,1248.05 C2603.99,1250.6 2603.99,1250.7 2603.69,1251.15 C2603.29,1251.65 2602.34,1251.8 2599.54,1251.85 L2598.59,1251.85 L2598.59,1254.2 M2612.44,1251.85 C2609.89,1251.85 2609.59,1251.55 2609.59,1249.1 L2609.59,1223.25 C2609.59,1220.8 2609.94,1220.45 2612.44,1220.45 L2615.04,1220.45 C2623.59,1220.45 2627.14,1225.1 2627.14,1236.15 C2627.14,1247.35 2623.94,1251.85 2615.84,1251.85 L2612.44,1251.85 "/>
<path class="Harmony" d="M465.385,572.198 L482.185,572.198 C486.635,572.198 490.035,571.498 492.685,569.998 C497.735,567.148 500.535,561.448 500.535,553.948 C500.535,547.048 498.035,541.648 493.435,538.648 C490.685,536.898 486.985,536.098 481.285,536.098 L465.385,536.098 L465.385,538.448 L466.335,538.448 C469.135,538.498 470.085,538.648 470.485,539.148 C470.785,539.598 470.785,539.698 470.785,542.248 L470.785,566.048 C470.785,568.598 470.785,568.698 470.485,569.148 C470.085,569.648 469.135,569.798 466.335,569.848 L465.385,569.848 L465.385,572.198 M479.235,569.848 C476.685,569.848 476.385,569.548 476.385,567.098 L476.385,541.248 C476.385,538.798 476.735,538.448 479.235,538.448 L481.835,538.448 C490.385,538.448 493.935,543.098 493.935,554.148 C493.935,565.348 490.735,569.848 482.635,569.848 L479.235,569.848 "/>
<path class="Harmony" d="M1988.74,535.748 L1986.84,535.748 L1984.89,538.748 C1981.64,536.198 1979.44,535.348 1975.79,535.348 C1971.84,535.348 1968.74,536.448 1965.59,538.998 C1960.64,542.998 1958.34,548.048 1958.34,554.798 C1958.34,559.898 1959.79,564.148 1962.74,567.398 C1965.84,570.898 1970.44,572.948 1975.24,572.948 C1979.44,572.948 1982.39,571.648 1985.64,568.398 L1987.49,572.898 L1989.59,572.898 L1989.59,561.898 C1989.59,559.348 1989.59,559.248 1989.89,558.798 C1990.34,558.248 1991.24,558.098 1994.09,558.098 L1994.84,558.098 L1994.84,555.748 L1978.94,555.748 L1978.94,558.098 L1979.89,558.098 C1984.09,558.098 1984.44,558.348 1984.44,561.148 C1984.44,563.298 1984.09,565.248 1983.44,566.448 C1982.19,568.898 1978.99,570.598 1975.74,570.598 C1972.49,570.598 1969.29,568.948 1967.59,566.448 C1965.74,563.648 1964.94,560.148 1964.94,554.798 C1964.94,543.648 1968.64,537.698 1975.59,537.698 C1981.29,537.698 1985.24,541.798 1987.29,549.798 L1989.44,549.798 L1988.74,535.748 "/>
<path class="Harmony" d="M1760.21,535.748 L1758.31,535.748 L1756.36,538.748 C1753.11,536.198 1750.91,535.348 1747.26,535.348 C1743.31,535.348 1740.21,536.448 1737.06,538.998 C1732.11,542.998 1729.81,548.048 1729.81,554.798 C1729.81,559.898 1731.26,564.148 1734.21,567.398 C1737.31,570.898 1741.91,572.948 1746.71,572.948 C1750.91,572.948 1753.86,571.648 1757.11,568.398 L1758.96,572.898 L1761.06,572.898 L1761.06,561.898 C1761.06,559.348 1761.06,559.248 1761.36,558.798 C1761.81,558.248 1762.71,558.098 1765.56,558.098 L1766.31,558.098 L1766.31,555.748 L1750.41,555.748 L1750.41,558.098 L1751.36,558.098 C1755.56,558.098 1755.91,558.348 1755.91,561.148 C1755.91,563.298 1755.56,565.248 1754.91,566.448 C1753.66,568.898 1750.46,570.598 1747.21,570.598 C1743.96,570.598 1740.76,568.948 1739.06,566.448 C1737.21,563.648 1736.41,560.148 1736.41,554.798 C1736.41,543.648 1740.11,537.698 1747.06,537.698 C1752.76,537.698 1756.71,541.798 1758.76,549.798 L1760.91,549.798 L1760.21,535.748 "/>
<path class="Harmony" d="M2124.65,1217.4 L2122.55,1217.4 L2111.05,1246.55 C2109.7,1250.45 2108.4,1251.65 2105.55,1251.85 L2105.35,1251.85 L2105.35,1254.2 L2118.6,1254.2 L2118.6,1251.85 L2117.6,1251.85 C2114.9,1251.85 2113.55,1250.9 2113.55,1249 C2113.55,1248.35 2113.7,1247.75 2114,1246.9 L2115.65,1242.5 L2128.9,1242.5 L2131.6,1249.2 C2131.9,1250 2132,1250.3 2132,1250.55 C2132,1251.35 2130.75,1251.85 2128.9,1251.85 L2126.8,1251.85 L2126.8,1254.2 L2142.3,1254.2 L2142.3,1251.85 L2141.6,1251.85 C2139,1251.8 2138.55,1251.5 2137.4,1248.65 L2124.65,1217.4 M2122.2,1225.6 L2127.85,1239.8 L2116.65,1239.8 L2122.2,1225.6 "/>
<path class="Harmony" d="M2147.24,1231.1 L2149.44,1231.45 L2150.34,1227.5 C2151.09,1224.2 2151.44,1223.7 2152.89,1223.7 C2153.14,1223.7 2153.54,1223.7 2153.99,1223.75 C2160.14,1224.05 2160.14,1224.05 2162.44,1224.05 C2163.09,1224.05 2164.24,1224.05 2165.64,1224 L2162.24,1230.85 C2158.54,1238.2 2158.09,1239.1 2156.84,1242.2 C2155.29,1245.95 2154.49,1249.1 2154.49,1251.2 C2154.49,1253.5 2155.69,1254.9 2157.64,1254.9 C2160.04,1254.9 2160.99,1253.3 2160.94,1248.95 C2160.69,1241.75 2161.59,1238.25 2166.94,1226.55 C2167.84,1224.6 2168.79,1222.6 2169.69,1220.65 L2169.69,1219.2 C2166.69,1219.45 2165.09,1219.55 2161.99,1219.55 C2157.64,1219.55 2154.19,1219.4 2148.79,1219 L2147.24,1231.1 "/>
<path class="Harmony" d="M1517.99,572.198 L1534.79,572.198 C1539.24,572.198 1542.64,571.498 1545.29,569.998 C1550.34,567.148 1553.14,561.448 1553.14,553.948 C1553.14,547.048 1550.64,541.648 1546.04,538.648 C1543.29,536.898 1539.59,536.098 1533.89,536.098 L1517.99,536.098 L1517.99,538.448 L1518.94,538.448 C1521.74,538.498 1522.69,538.648 1523.09,539.148 C1523.39,539.598 1523.39,539.698 1523.39,542.248 L1523.39,566.048 C1523.39,568.598 1523.39,568.698 1523.09,569.148 C1522.69,569.648 1521.74,569.798 1518.94,569.848 L1517.99,569.848 L1517.99,572.198 M1531.84,569.848 C1529.29,569.848 1528.99,569.548 1528.99,567.098 L1528.99,541.248 C1528.99,538.798 1529.34,538.448 1531.84,538.448 L1534.44,538.448 C1542.99,538.448 1546.54,543.098 1546.54,554.148 C1546.54,565.348 1543.34,569.848 1535.24,569.848 L1531.84,569.848 "/>
<path class="Harmony" d="M1319.85,535.748 L1317.95,535.748 L1316,538.748 C1312.75,536.198 1310.55,535.348 1306.9,535.348 C1302.95,535.348 1299.85,536.448 1296.7,538.998 C1291.75,542.998 1289.45,548.048 1289.45,554.798 C1289.45,559.898 1290.9,564.148 1293.85,567.398 C1296.95,570.898 1301.55,572.948 1306.35,572.948 C1310.55,572.948 1313.5,571.648 1316.75,568.398 L1318.6,572.898 L1320.7,572.898 L1320.7,561.898 C1320.7,559.348 1320.7,559.248 1321,558.798 C1321.45,558.248 1322.35,558.098 1325.2,558.098 L1325.95,558.098 L1325.95,555.748 L1310.05,555.748 L1310.05,558.098 L1311,558.098 C1315.2,558.098 1315.55,558.348 1315.55,561.148 C1315.55,563.298 1315.2,565.248 1314.55,566.448 C1313.3,568.898 1310.1,570.598 1306.85,570.598 C1303.6,570.598 1300.4,568.948 1298.7,566.448 C1296.85,563.648 1296.05,560.148 1296.05,554.798 C1296.05,543.648 1299.75,537.698 1306.7,537.698 C1312.4,537.698 1316.35,541.798 1318.4,549.798 L1320.55,549.798 L1319.85,535.748 "/>
<path class="Harmony" d="M1060.93,572.198 L1077.73,572.198 C1082.18,572.198 1085.58,571.498 1088.23,569.998 C1093.28,567.148 1096.08,561.448 1096.08,553.948 C1096.08,547.048 1093.58,541.648 1088.98,538.648 C1086.23,536.898 1082.53,536.098 1076.83,536.098 L1060.93,536.098 L1060.93,538.448 L1061.88,538.448 C1064.68,538.498 1065.63,538.648 1066.03,539.148 C1066.33,539.598 1066.33,539.698 1066.33,542.248 L1066.33,566.048 C1066.33,568.598 1066.33,568.698 1066.03,569.148 C1065.63,569.648 1064.68,569.798 1061.88,569.848 L1060.93,569.848 L1060.93,572.198 M1074.78,569.848 C1072.23,569.848 1071.93,569.548 1071.93,567.098 L1071.93,541.248 C1071.93,538.798 1072.28,538.448 1074.78,538.448 L1077.38,538.448 C1085.93,538.448 1089.48,543.098 1089.48,554.148 C1089.48,565.348 1086.28,569.848 1078.18,569.848 L1074.78,569.848 "/>
<path class="Harmony" d="M838.77,572.198 L855.57,572.198 C860.02,572.198 863.42,571.498 866.07,569.998 C871.12,567.148 873.92,561.448 873.92,553.948 C873.92,547.048 871.42,541.648 866.82,538.648 C864.07,536.898 860.37,536.098 854.67,536.098 L838.77,536.098 L838.77,538.448 L839.72,538.448 C842.52,538.498 843.47,538.648 843.87,539.148 C844.17,539.598 844.17,539.698 844.17,542.248 L844.17,566.048 C844.17,568.598 844.17,568.698 843.87,569.148 C843.47,569.648 842.52,569.798 839.72,569.848 L838.77,569.848 L838.77,572.198 M852.62,569.848 C850.07,569.848 849.77,569.548 849.77,567.098 L849.77,541.248 C849.77,538.798 850.12,538.448 852.62,538.448 L855.22,538.448 C863.77,538.448 867.32,543.098 867.32,554.148 C867.32,565.348 864.12,569.848 856.02,569.848 L852.62,569.848 "/>
<path class="Harmony" d="M693.918,572.198 L710.718,572.198 C715.168,572.198 718.568,571.498 721.218,569.998 C726.268,567.148 729.068,561.448 729.068,553.948 C729.068,547.048 726.568,541.648 721.968,538.648 C719.218,536.898 715.518,536.098 709.818,536.098 L693.918,536.098 L693.918,538.448 L694.868,538.448 C697.668,538.498 698.618,538.648 699.018,539.148 C699.318,539.598 699.318,539.698 699.318,542.248 L699.318,566.048 C699.318,568.598 699.318,568.698 699.018,569.148 C698.618,569.648 697.668,569.798 694.868,569.848 L693.918,569.848 L693.918,572.198 M707.768,569.848 C705.218,569.848 704.918,569.548 704.918,567.098 L704.918,541.248 C704.918,538.798 705.268,538.448 707.768,538.448 L710.368,538.448 C718.918,538.448 722.468,543.098 722.468,554.148 C722.468,565.348 719.268,569.848 711.168,569.848 L707.768,569.848 "/>
<path class="Harmony" d="M2477.42,1254.2 L2494.22,1254.2 C2498.67,1254.2 2502.07,1253.5 2504.72,1252 C2509.77,1249.15 2512.57,1243.45 2512.57,1235.95 C2512.57,1229.05 2510.07,1223.65 2505.47,1220.65 C2502.72,1218.9 2499.02,1218.1 2493.32,1218.1 L2477.42,1218.1 L2477.42,1220.45 L2478.37,1220.45 C2481.17,1220.5 2482.12,1220.65 2482.52,1221.15 C2482.82,1221.6 2482.82,1221.7 2482.82,1224.25 L2482.82,1248.05 C2482.82,1250.6 2482.82,1250.7 2482.52,1251.15 C2482.12,1251.65 2481.17,1251.8 2478.37,1251.85 L2477.42,1251.85 L2477.42,1254.2 M2491.27,1251.85 C2488.72,1251.85 2488.42,1251.55 2488.42,1249.1 L2488.42,1223.25 C2488.42,1220.8 2488.77,1220.45 2491.27,1220.45 L2493.87,1220.45 C2502.42,1220.45 2505.97,1225.1 2505.97,1236.15 C2505.97,1247.35 2502.77,1251.85 2494.67,1251.85 L2491.27,1251.85 "/>
<path class="Harmony" d="M1208.25,1254.2 L1225.05,1254.2 C1229.5,1254.2 1232.9,1253.5 1235.55,1252 C1240.6,1249.15 1243.4,1243.45 1243.4,1235.95 C1243.4,1229.05 1240.9,1223.65 1236.3,1220.65 C1233.55,1218.9 1229.85,1218.1 1224.15,1218.1 L1208.25,1218.1 L1208.25,1220.45 L1209.2,1220.45 C1212,1220.5 1212.95,1220.65 1213.35,1221.15 C1213.65,1221.6 1213.65,1221.7 1213.65,1224.25 L1213.65,1248.05 C1213.65,1250.6 1213.65,1250.7 1213.35,1251.15 C1212.95,1251.65 1212,1251.8 1209.2,1251.85 L1208.25,1251.85 L1208.25,1254.2 M1222.1,1251.85 C1219.55,1251.85 1219.25,1251.55 1219.25,1249.1 L1219.25,1223.25 C1219.25,1220.8 1219.6,1220.45 1222.1,1220.45 L1224.7,1220.45 C1233.25,1220.45 1236.8,1225.1 1236.8,1236.15 C1236.8,1247.35 1233.6,1251.85 1225.5,1251.85 L1222.1,1251.85 "/>
<path class="NoteDot" transform="matrix(0.992,0,0,0.992,738.53,745.798)" d="M0,0 C0,2.8 2.2,5 5,5 C7.8,5 10,2.8 10,0 C10,-2.8 7.8,-5 5,-5 C2.2,-5 0,-2.8 0,0"/>
<path class="NoteDot" transform="matrix(0.992,0,0,0.992,686.677,1378.2)" d="M0,0 C0,2.8 2.2,5 5,5 C7.8,5 10,2.8 10,0 C10,-2.8 7.8,-5 5,-5 C2.2,-5 0,-2.8 0,0"/>
</svg>
