<?xml version="1.0" encoding="UTF-8" standalone="no"?>
<svg width="2977.2px" height="4208.4px" viewBox="0 0 2977.2 4208.4"
 xmlns="http://www.w3.org/2000/svg" xmlns:xlink="http://www.w3.org/1999/xlink" version="1.2" baseProfile="tiny">
<title>金魚の昼寝</title>
<desc>Generated by MuseScore Studio 4.4.0</desc>
<path class="" fill="#ffffff" fill-rule="evenodd" d="M0,0 L2977.2,0 L2977.2,4208.4 L0,4208.4 L0,0 "/>
<polyline class="StaffLines" fill="none" stroke="#000000" stroke-width="2.73" stroke-linejoin="bevel" points="212.598,634.199 2764.6,634.199"/>
<polyline class="StaffLines" fill="none" stroke="#000000" stroke-width="2.73" stroke-linejoin="bevel" points="212.598,658.999 2764.6,658.999"/>
<polyline class="StaffLines" fill="none" stroke="#000000" stroke-width="2.73" stroke-linejoin="bevel" points="212.598,683.799 2764.6,683.799"/>
<polyline class="StaffLines" fill="none" stroke="#000000" stroke-width="2.73" stroke-linejoin="bevel" points="212.598,708.599 2764.6,708.599"/>
<polyline class="StaffLines" fill="none" stroke="#000000" stroke-width="2.73" stroke-linejoin="bevel" points="212.598,733.399 2764.6,733.399"/>
<polyline class="StaffLines" fill="none" stroke="#000000" stroke-width="2.73" stroke-linejoin="bevel" points="212.598,1105.4 2764.6,1105.4"/>
<polyline class="StaffLines" fill="none" stroke="#000000" stroke-width="2.73" stroke-linejoin="bevel" points="212.598,1130.2 2764.6,1130.2"/>
<polyline class="StaffLines" fill="none" stroke="#000000" stroke-width="2.73" stroke-linejoin="bevel" points="212.598,1155 2764.6,1155"/>
<polyline class="StaffLines" fill="none" stroke="#000000" stroke-width="2.73" stroke-linejoin="bevel" points="212.598,1179.8 2764.6,1179.8"/>
<polyline class="StaffLines" fill="none" stroke="#000000" stroke-width="2.73" stroke-linejoin="bevel" points="212.598,1204.6 2764.6,1204.6"/>
<path class="Text" d="M1264.81,297.483 L1264.81,312.443 L1236.32,312.443 C1231.7,312.443 1228.62,312.223 1225.54,311.783 L1225.54,319.483 C1228.62,319.043 1232.03,318.823 1236.21,318.823 L1264.81,318.823 L1264.81,347.863 L1234.78,347.863 C1229.72,347.863 1225.87,347.643 1222.24,347.203 L1222.24,355.123 C1226.53,354.573 1230.49,354.353 1234.78,354.353 L1304.08,354.353 C1308.59,354.353 1312.55,354.573 1316.18,355.123 L1316.18,347.203 C1312.77,347.643 1309.03,347.863 1304.19,347.863 L1271.96,347.863 L1271.96,318.823 L1302.65,318.823 C1307.16,318.823 1310.24,319.043 1313.43,319.483 L1313.43,311.783 C1310.35,312.223 1307.49,312.443 1302.65,312.443 L1271.96,312.443 L1271.96,297.483 L1285.38,297.483 C1290,297.483 1292.64,297.593 1295.5,298.033 L1295.5,291.213 C1303.86,296.493 1308.37,298.913 1316.95,302.433 C1318.16,299.903 1319.48,297.703 1321.35,295.393 C1310.13,291.653 1301.88,287.363 1292.64,280.653 C1283.51,273.943 1277.57,267.893 1272.95,260.743 L1264.48,260.743 C1255.46,275.483 1239.51,287.473 1218.06,295.613 C1220.59,298.363 1221.25,299.353 1222.68,302.103 C1230.82,298.693 1235.77,296.053 1242.7,291.433 L1242.7,298.033 C1245.67,297.593 1248.42,297.483 1252.93,297.483 L1264.81,297.483 M1252.82,291.433 C1248.53,291.433 1245.67,291.323 1243.47,290.993 C1254.58,283.513 1261.95,276.473 1268.77,266.903 C1275.81,276.253 1283.73,283.513 1295.06,290.993 C1292.64,291.323 1290,291.433 1285.38,291.433 L1252.82,291.433 M1236.65,325.093 C1240.72,331.143 1243.47,336.973 1246.22,344.673 L1252.6,342.143 C1249.3,333.783 1246.99,328.833 1242.92,322.233 L1236.65,325.093 M1294.4,322.453 C1291.32,330.923 1288.02,337.193 1283.4,343.243 L1289.56,345.773 C1294.4,338.733 1296.27,335.543 1301.33,325.313 L1294.4,322.453 M1387.57,286.263 C1390.32,283.513 1392.85,280.543 1396.59,275.483 C1398.24,273.393 1398.57,272.953 1400,271.303 L1396.7,267.013 C1394.94,267.453 1392.08,267.563 1386.47,267.563 L1366.45,267.563 C1367,266.793 1367.33,266.243 1367.55,265.803 C1368.1,264.923 1368.54,264.373 1368.76,264.043 C1369.09,263.493 1369.42,263.053 1369.42,263.053 C1370.74,260.853 1370.96,260.633 1371.84,259.313 L1363.92,257.223 C1363.04,260.303 1360.95,264.043 1357.87,268.443 C1350.61,278.783 1342.69,286.153 1331.58,293.083 C1333.23,294.403 1333.23,294.403 1335.54,297.263 C1335.76,297.483 1335.98,297.813 1336.31,298.143 C1340.38,295.283 1342.03,293.963 1344.89,291.543 L1344.89,321.243 C1344.89,324.873 1344.67,327.733 1344.34,330.263 C1347.2,329.933 1349.62,329.823 1353.25,329.823 L1408.47,329.823 C1412.21,329.823 1414.3,329.933 1417.27,330.263 C1416.94,327.623 1416.83,325.313 1416.83,321.133 L1416.83,294.953 C1416.83,290.773 1416.94,288.463 1417.27,285.823 C1414.52,286.153 1412.21,286.263 1408.47,286.263 L1387.57,286.263 M1350.72,286.263 C1355.23,282.083 1358.09,279.003 1362.16,273.613 L1390.43,273.613 C1387.02,278.563 1383.94,282.193 1379.54,286.263 L1350.72,286.263 M1351.71,292.203 L1376.68,292.203 L1376.68,304.413 L1351.71,304.413 L1351.71,292.203 M1351.71,310.133 L1376.68,310.133 L1376.68,323.883 L1351.71,323.883 L1351.71,310.133 M1383.28,292.203 L1409.9,292.203 L1409.9,304.413 L1383.28,304.413 L1383.28,292.203 M1383.28,310.133 L1409.9,310.133 L1409.9,323.883 L1383.28,323.883 L1383.28,310.133 M1338.95,358.863 C1345.66,351.823 1349.18,346.543 1353.47,336.753 L1347.2,333.783 C1343.02,343.243 1340.05,347.533 1332.68,354.463 L1338.95,358.863 M1373.71,356.663 C1372.94,348.523 1371.84,342.583 1369.86,335.433 L1363.37,336.643 C1365.24,344.673 1366.12,350.393 1366.45,358.313 L1373.71,356.663 M1399.67,355.453 C1397.14,347.203 1395.27,342.583 1391.09,334.883 L1384.71,336.863 C1388.56,343.793 1390.76,349.843 1392.41,358.313 L1399.67,355.453 M1428.16,354.133 C1422.55,345.443 1419.25,341.043 1412.21,333.233 L1406.6,336.643 C1413.09,344.123 1416.39,348.853 1421.45,358.533 L1428.16,354.133 "/>
<path class="Text" d="M1495.26,277.683 C1500.76,277.903 1503.95,278.673 1508.02,280.433 C1519.13,285.383 1525.51,295.503 1525.51,308.043 C1525.51,321.573 1518.14,333.343 1506.04,338.843 C1500.87,341.263 1495.7,342.693 1487.67,344.013 C1489.76,346.653 1490.42,347.753 1491.52,351.383 C1499.11,349.733 1503.29,348.413 1508.24,346.323 C1524.19,339.503 1533.43,325.423 1533.43,308.373 C1533.43,297.813 1529.69,288.243 1522.76,281.533 C1515.61,274.493 1504.83,270.643 1492.51,270.643 C1477.77,270.643 1465.78,275.593 1456.98,285.273 C1449.61,293.523 1445.43,304.413 1445.43,315.633 C1445.43,331.033 1453.24,342.473 1463.69,342.473 C1471.61,342.473 1478.1,335.873 1484.48,321.353 C1489.43,309.803 1493.61,292.973 1495.26,277.683 M1487.34,277.793 C1485.91,291.873 1481.84,308.153 1477.33,318.493 C1472.6,329.273 1468.2,334.443 1463.58,334.443 C1457.64,334.443 1453.02,326.303 1453.02,315.743 C1453.02,302.103 1459.84,289.673 1470.95,282.963 C1476.01,279.883 1480.74,278.343 1487.34,277.793"/>
<path class="Text" d="M1583.92,297.483 C1579.19,297.483 1576.22,297.373 1573.03,297.043 C1573.36,300.343 1573.47,302.763 1573.47,306.833 L1573.47,329.603 C1573.47,334.003 1573.36,336.973 1573.03,340.163 C1576.77,339.833 1579.96,339.723 1584.69,339.723 L1615.27,339.723 C1619.89,339.723 1622.86,339.833 1626.93,340.163 C1626.6,337.303 1626.6,337.193 1626.49,329.933 L1626.27,306.613 L1626.16,305.183 C1631.66,318.163 1635.4,323.773 1645.52,334.773 C1647.17,331.803 1647.83,330.923 1650.36,328.503 C1641.78,320.803 1636.61,313.873 1632.32,304.633 C1629.79,299.023 1628.47,294.733 1627.15,287.143 L1629.46,287.143 C1633.75,287.143 1636.83,287.253 1640.02,287.473 C1639.8,285.273 1639.69,283.513 1639.69,280.653 L1639.69,269.543 C1639.69,266.683 1639.8,264.923 1640.02,262.173 C1637.16,262.503 1634.08,262.613 1628.47,262.613 L1575.45,262.613 C1569.62,262.613 1566.54,262.503 1562.36,262.173 C1562.69,265.583 1562.91,269.653 1562.91,275.373 C1562.91,294.403 1561.26,308.703 1558.07,318.163 C1555.87,324.433 1553.23,329.163 1548.28,335.543 C1550.59,337.083 1551.91,338.293 1553.89,340.713 C1564.67,325.863 1568.52,312.553 1569.51,287.143 L1620.44,287.143 C1621.65,292.423 1621.87,293.303 1623.3,297.373 C1620.66,297.483 1619.12,297.483 1614.94,297.483 L1583.92,297.483 M1569.73,281.093 L1569.73,268.883 L1632.98,268.883 L1632.98,281.093 L1569.73,281.093 M1580.29,303.313 L1619.89,303.313 L1619.89,315.303 L1580.29,315.303 L1580.29,303.313 M1580.29,321.023 L1619.89,321.023 L1619.89,333.893 L1580.29,333.893 L1580.29,321.023 M1647.39,348.523 C1644.2,348.963 1641.23,349.183 1636.28,349.183 L1562.25,349.183 C1557.41,349.183 1554.44,348.963 1551.14,348.523 L1551.14,356.113 C1554.44,355.673 1557.96,355.453 1562.47,355.453 L1636.06,355.453 C1640.9,355.453 1644.2,355.673 1647.39,356.113 L1647.39,348.523 M1679.4,317.393 C1671.15,323.663 1664.22,328.063 1658.83,330.373 L1661.8,337.193 C1675.44,327.623 1676.98,326.633 1679.4,324.653 L1679.4,346.543 C1679.4,352.373 1679.18,355.673 1678.74,358.863 L1686.55,358.863 C1686.11,355.893 1686,353.693 1686,346.543 L1686,289.343 C1686,282.413 1686.11,280.103 1686.55,277.573 L1678.85,277.573 C1679.29,280.213 1679.4,282.743 1679.4,289.343 L1679.4,317.393 M1704.92,267.893 L1673.35,267.893 C1669.5,267.893 1666.09,267.783 1662.35,267.343 C1662.68,269.653 1662.79,271.743 1662.79,274.603 L1662.79,279.003 C1662.79,282.303 1662.68,284.283 1662.35,286.703 L1669.39,286.703 L1669.39,273.613 L1749.47,273.613 L1749.47,285.603 L1756.51,285.603 C1756.18,283.623 1756.07,281.313 1756.07,278.563 L1756.07,274.713 C1756.07,271.523 1756.18,269.543 1756.51,267.343 C1752.88,267.783 1749.58,267.893 1745.51,267.893 L1712.07,267.893 L1712.07,266.023 C1712.07,262.723 1712.18,260.523 1712.62,258.213 L1704.26,258.213 C1704.7,260.523 1704.92,262.943 1704.92,266.023 L1704.92,267.893 M1740.34,290.773 L1707.01,290.773 C1703.27,290.773 1700.74,290.663 1698.54,290.333 L1698.54,296.053 C1701.18,295.723 1703.49,295.613 1707.01,295.613 L1740.34,295.613 L1740.34,301.883 L1704.48,301.883 C1700.3,301.883 1698.43,301.773 1696.12,301.443 L1696.12,307.493 C1698.65,307.163 1700.85,307.053 1704.48,307.053 L1738.8,307.053 C1742.43,307.053 1744.3,307.163 1747.05,307.383 C1746.83,305.623 1746.83,303.643 1746.83,298.913 L1746.83,287.803 C1746.83,283.953 1746.94,281.423 1747.16,279.333 C1744.74,279.553 1742.54,279.663 1738.91,279.663 L1704.26,279.663 C1700.63,279.663 1698.54,279.553 1696.23,279.223 L1696.23,285.273 C1698.54,284.943 1700.74,284.833 1704.26,284.833 L1740.34,284.833 L1740.34,290.773 M1742.76,324.983 C1741,325.313 1738.8,325.423 1734.62,325.423 L1709.1,325.423 C1704.81,325.423 1701.95,325.313 1699.75,324.983 L1699.75,331.143 C1701.51,330.923 1702.5,330.813 1704.15,330.813 C1709.21,337.853 1712.07,340.713 1717.79,345.003 C1708.66,349.403 1701.18,351.493 1688.97,353.253 C1690.51,355.013 1691.39,356.443 1692.38,359.083 C1705.8,356.443 1714.16,353.693 1723.4,348.633 C1732.31,353.693 1742.43,356.993 1756.29,359.303 C1757.06,356.663 1757.83,354.793 1759.37,352.593 C1745.84,351.053 1737.48,348.963 1729.12,345.113 C1733.85,341.923 1739.57,336.973 1743.31,333.123 C1745.4,330.923 1745.84,330.483 1746.94,329.493 L1742.76,324.983 M1737.48,330.703 C1732.42,335.873 1728.9,338.623 1723.4,342.033 C1717.46,338.293 1714.38,335.433 1710.86,330.703 L1737.48,330.703 M1676.43,308.923 C1673.13,300.893 1671.37,297.593 1666.64,290.223 L1661.25,293.633 C1665.1,299.133 1667.52,303.863 1670.82,312.443 L1676.43,308.923 M1697.33,329.053 L1697.33,318.823 L1749.69,318.823 L1749.69,329.603 L1756.62,329.603 C1756.29,327.293 1756.18,325.093 1756.18,322.013 L1756.18,319.703 C1756.18,316.403 1756.18,315.413 1756.51,313.103 C1752.55,313.433 1749.8,313.543 1745.73,313.543 L1701.51,313.543 C1697.33,313.543 1694.69,313.433 1690.84,313.103 C1691.06,315.193 1691.17,317.173 1691.17,320.253 L1691.17,322.233 C1691.17,324.103 1691.06,326.523 1690.73,329.053 L1697.33,329.053 "/>
<path class="MeasureNumber" d="M216.922,1040.48 C215.682,1041.24 215.322,1041.72 215.322,1042.52 C215.322,1043.28 215.962,1043.84 216.762,1043.84 C217.802,1043.84 218.402,1043.08 218.522,1041.6 C219.762,1040.6 221.082,1040.16 222.682,1040.16 C225.642,1040.16 227.282,1042 227.282,1045.32 C227.282,1050.52 223.922,1054.76 219.802,1054.76 C217.442,1054.76 215.522,1053.64 215.522,1052.32 C215.522,1052.08 215.562,1052 215.762,1051.88 C217.042,1051.28 218.082,1050.84 218.082,1049.16 C218.082,1047.88 217.082,1046.92 215.682,1046.92 C213.922,1046.92 212.602,1048.4 212.602,1050.32 C212.602,1053.84 215.642,1056.4 219.922,1056.4 C226.402,1056.4 231.642,1051.24 231.642,1044.84 C231.642,1040.8 228.562,1037.96 224.202,1037.96 C222.482,1037.96 221.082,1038.32 219.162,1039.28 L221.402,1031.72 C223.522,1032.16 225.202,1032.36 226.642,1032.36 C229.282,1032.36 231.642,1031.52 232.962,1030.12 C233.642,1029.32 234.042,1028.64 234.042,1028.12 C234.042,1027.88 233.922,1027.64 233.762,1027.64 C233.642,1027.64 233.562,1027.68 233.322,1027.8 C232.002,1028.44 230.322,1028.8 228.762,1028.8 C226.362,1028.8 223.522,1028.4 220.562,1027.64 L216.922,1040.48 "/>
<polyline class="BarLine" fill="none" stroke="#000000" stroke-width="4.46" stroke-linejoin="bevel" points="2740.42,1104.04 2740.42,1205.96"/>
<polyline class="BarLine" fill="none" stroke="#000000" stroke-width="13.64" stroke-linejoin="bevel" points="2757.78,1104.04 2757.78,1205.96"/>
<polyline class="BarLine" fill="none" stroke="#000000" stroke-width="4.46" stroke-linejoin="bevel" points="991.676,1104.04 991.676,1205.96"/>
<polyline class="BarLine" fill="none" stroke="#000000" stroke-width="4.46" stroke-linejoin="bevel" points="1559.83,1104.04 1559.83,1205.96"/>
<polyline class="BarLine" fill="none" stroke="#000000" stroke-width="4.46" stroke-linejoin="bevel" points="2762.37,632.835 2762.37,734.763"/>
<polyline class="BarLine" fill="none" stroke="#000000" stroke-width="4.46" stroke-linejoin="bevel" points="2181.68,632.835 2181.68,734.763"/>
<polyline class="BarLine" fill="none" stroke="#000000" stroke-width="4.46" stroke-linejoin="bevel" points="974.953,632.835 974.953,734.763"/>
<polyline class="BarLine" fill="none" stroke="#000000" stroke-width="4.46" stroke-linejoin="bevel" points="1555.65,632.835 1555.65,734.763"/>
<polyline class="BarLine" fill="none" stroke="#000000" stroke-width="4.46" stroke-linejoin="bevel" points="2127.98,1104.04 2127.98,1205.96"/>
<polyline class="LedgerLine" fill="none" stroke="#000000" stroke-width="3.97" stroke-linejoin="bevel" points="1416.05,1229.4 1465.64,1229.4"/>
<polyline class="LedgerLine" fill="none" stroke="#000000" stroke-width="3.97" stroke-linejoin="bevel" points="1585.62,1229.4 1635.21,1229.4"/>
<polyline class="LedgerLine" fill="none" stroke="#000000" stroke-width="3.97" stroke-linejoin="bevel" points="1718.48,1229.4 1768.07,1229.4"/>
<polyline class="LedgerLine" fill="none" stroke="#000000" stroke-width="3.97" stroke-linejoin="bevel" points="1283.19,1229.4 1332.78,1229.4"/>
<polyline class="Stem" fill="none" stroke="#000000" stroke-width="2.73" stroke-linejoin="bevel" points="1890.89,1200.63 1890.89,1130.14"/>
<polyline class="Stem" fill="none" stroke="#000000" stroke-width="2.73" stroke-linejoin="bevel" points="1758.02,1237.83 1758.02,1161.2"/>
<polyline class="Stem" fill="none" stroke="#000000" stroke-width="2.73" stroke-linejoin="bevel" points="1312.28,717.031 1312.28,640.338"/>
<polyline class="Stem" fill="none" stroke="#000000" stroke-width="2.73" stroke-linejoin="bevel" points="1189.87,1200.63 1189.87,1130.2"/>
<polyline class="Stem" fill="none" stroke="#000000" stroke-width="2.73" stroke-linejoin="bevel" points="1176.28,704.631 1176.28,634.199"/>
<polyline class="Stem" fill="none" stroke="#000000" stroke-width="2.73" stroke-linejoin="bevel" points="2193.31,1175.83 2193.31,1105.4"/>
<polyline class="Stem" fill="none" stroke="#000000" stroke-width="2.73" stroke-linejoin="bevel" points="1448.28,704.631 1448.28,634.26"/>
<polyline class="Stem" fill="none" stroke="#000000" stroke-width="2.73" stroke-linejoin="bevel" points="1455.6,1225.43 1455.6,1155"/>
<polyline class="Stem" fill="none" stroke="#000000" stroke-width="2.73" stroke-linejoin="bevel" points="1057.01,1200.63 1057.01,1130.2"/>
<polyline class="Stem" fill="none" stroke="#000000" stroke-width="2.73" stroke-linejoin="bevel" points="2503.33,1200.63 2503.33,1118"/>
<polyline class="Stem" fill="none" stroke="#000000" stroke-width="2.73" stroke-linejoin="bevel" points="1591.48,687.965 1591.48,758.199"/>
<polyline class="Stem" fill="none" stroke="#000000" stroke-width="2.73" stroke-linejoin="bevel" points="887.442,1188.23 887.442,1111.54"/>
<polyline class="Stem" fill="none" stroke="#000000" stroke-width="2.73" stroke-linejoin="bevel" points="2383.01,704.631 2383.01,634.199"/>
<polyline class="Stem" fill="none" stroke="#000000" stroke-width="2.73" stroke-linejoin="bevel" points="2023.75,1188.23 2023.75,1124.06"/>
<polyline class="Stem" fill="none" stroke="#000000" stroke-width="2.73" stroke-linejoin="bevel" points="1727.48,675.565 1727.48,758.199"/>
<polyline class="Stem" fill="none" stroke="#000000" stroke-width="2.73" stroke-linejoin="bevel" points="754.58,1175.83 754.58,1105.46"/>
<polyline class="Stem" fill="none" stroke="#000000" stroke-width="2.73" stroke-linejoin="bevel" points="1818.15,687.965 1818.15,758.199"/>
<polyline class="Stem" fill="none" stroke="#000000" stroke-width="2.73" stroke-linejoin="bevel" points="621.717,1175.83 621.717,1105.4"/>
<polyline class="Stem" fill="none" stroke="#000000" stroke-width="2.73" stroke-linejoin="bevel" points="1938.31,704.631 1938.31,634.26"/>
<polyline class="Stem" fill="none" stroke="#000000" stroke-width="2.73" stroke-linejoin="bevel" points="527.59,729.431 527.59,646.599"/>
<polyline class="Stem" fill="none" stroke="#000000" stroke-width="2.73" stroke-linejoin="bevel" points="488.855,1175.83 488.855,1105.4"/>
<polyline class="Stem" fill="none" stroke="#000000" stroke-width="2.73" stroke-linejoin="bevel" points="1040.29,704.631 1040.29,634.199"/>
<polyline class="Stem" fill="none" stroke="#000000" stroke-width="2.73" stroke-linejoin="bevel" points="2074.31,729.431 2074.31,640.338"/>
<polyline class="Stem" fill="none" stroke="#000000" stroke-width="2.73" stroke-linejoin="bevel" points="1625.16,1237.83 1625.16,1161.2"/>
<polyline class="Stem" fill="none" stroke="#000000" stroke-width="2.73" stroke-linejoin="bevel" points="2414.75,1175.83 2414.75,1105.4"/>
<polyline class="Stem" fill="none" stroke="#000000" stroke-width="2.73" stroke-linejoin="bevel" points="731.586,729.431 731.586,658.938"/>
<polyline class="Stem" fill="none" stroke="#000000" stroke-width="2.73" stroke-linejoin="bevel" points="867.584,717.031 867.584,652.86"/>
<polyline class="Stem" fill="none" stroke="#000000" stroke-width="2.73" stroke-linejoin="bevel" points="2247.01,704.631 2247.01,634.199"/>
<polyline class="Stem" fill="none" stroke="#000000" stroke-width="2.73" stroke-linejoin="bevel" points="2519,717.031 2519,634.397"/>
<polyline class="Stem" fill="none" stroke="#000000" stroke-width="2.73" stroke-linejoin="bevel" points="2326.18,1188.23 2326.18,1105.4"/>
<polyline class="Stem" fill="none" stroke="#000000" stroke-width="2.73" stroke-linejoin="bevel" points="1322.73,1225.43 1322.73,1155"/>
<path class="Hook" transform="matrix(0.992001,0,0,0.992001,2501.96,1117.8)" d="M0,22.7 C0,23 0.1,23.6 0.8,23.8 C5.1,25.2 13.7,30.6 20.2,41.7 C22,44.8 24.9,49.1 24.9,57.4 C24.9,64.6 23.1,72 20.4,79.2 C20.2,79.8 20.1,80.3 20.1,80.7 C20.1,81.4 20.5,81.7 21.2,81.7 C21.8,81.7 22.3,81.3 22.7,80.6 C27.2,72.6 28.9,63.3 28.9,54.2 C28.4,41.3 21,31.8 21,31.8 C21.3,31.8 11.8,19.5 9.1,15.3 C5.4,9.6 3.7,3.9 3.5,3.5 C3.4,3.2 2.5,-0.4 2.5,-0.4 C2.4,-0.8 1.9,-1.2 1.3,-1.2 C0.6,-1.2 0,-0.6 0,0.1 L0,22.7 "/>
<path class="Hook" transform="matrix(0.992001,0,0,0.992001,2517.64,634.199)" d="M0,22.7 C0,23 0.1,23.6 0.8,23.8 C5.1,25.2 13.7,30.6 20.2,41.7 C22,44.8 24.9,49.1 24.9,57.4 C24.9,64.6 23.1,72 20.4,79.2 C20.2,79.8 20.1,80.3 20.1,80.7 C20.1,81.4 20.5,81.7 21.2,81.7 C21.8,81.7 22.3,81.3 22.7,80.6 C27.2,72.6 28.9,63.3 28.9,54.2 C28.4,41.3 21,31.8 21,31.8 C21.3,31.8 11.8,19.5 9.1,15.3 C5.4,9.6 3.7,3.9 3.5,3.5 C3.4,3.2 2.5,-0.4 2.5,-0.4 C2.4,-0.8 1.9,-1.2 1.3,-1.2 C0.6,-1.2 0,-0.6 0,0.1 L0,22.7 "/>
<path class="Note" transform="matrix(0.992001,0,0,0.992001,2352.15,708.599)" d="M0,4.2 C0,8.5 3.1,13.3 11.2,13.3 C21.6,13.3 32.5,4.8 32.5,-4 C32.5,-9.9 27.5,-13.2 21.3,-13.2 C11.6,-13.2 0,-5 0,4.2"/>
<path class="Note" transform="matrix(0.992001,0,0,0.992001,1145.42,708.599)" d="M0,4.2 C0,8.5 3.1,13.3 11.2,13.3 C21.6,13.3 32.5,4.8 32.5,-4 C32.5,-9.9 27.5,-13.2 21.3,-13.2 C11.6,-13.2 0,-5 0,4.2"/>
<path class="Note" transform="matrix(0.992001,0,0,0.992001,2488.14,720.999)" d="M0,4.2 C0,8.5 3.1,13.3 11.2,13.3 C21.6,13.3 32.5,4.8 32.5,-4 C32.5,-9.9 27.5,-13.2 21.3,-13.2 C11.6,-13.2 0,-5 0,4.2"/>
<path class="Note" transform="matrix(0.992001,0,0,0.992001,1594.3,1241.8)" d="M0,4.2 C0,8.5 3.1,13.3 11.2,13.3 C21.6,13.3 32.5,4.8 32.5,-4 C32.5,-9.9 27.5,-13.2 21.3,-13.2 C11.6,-13.2 0,-5 0,4.2"/>
<path class="Note" transform="matrix(0.992001,0,0,0.992001,2295.32,1192.2)" d="M0,4.2 C0,8.5 3.1,13.3 11.2,13.3 C21.6,13.3 32.5,4.8 32.5,-4 C32.5,-9.9 27.5,-13.2 21.3,-13.2 C11.6,-13.2 0,-5 0,4.2"/>
<path class="Note" transform="matrix(0.992001,0,0,0.992001,700.726,733.399)" d="M0,4.2 C0,8.5 3.1,13.3 11.2,13.3 C21.6,13.3 32.5,4.8 32.5,-4 C32.5,-9.9 27.5,-13.2 21.3,-13.2 C11.6,-13.2 0,-5 0,4.2"/>
<path class="Note" transform="matrix(0.992001,0,0,0.992001,1727.16,1241.8)" d="M0,4.2 C0,8.5 3.1,13.3 11.2,13.3 C21.6,13.3 32.5,4.8 32.5,-4 C32.5,-9.9 27.5,-13.2 21.3,-13.2 C11.6,-13.2 0,-5 0,4.2"/>
<path class="Note" transform="matrix(0.992001,0,0,0.992001,836.723,720.999)" d="M0,4.2 C0,8.5 3.1,13.3 11.2,13.3 C21.6,13.3 32.5,4.8 32.5,-4 C32.5,-9.9 27.5,-13.2 21.3,-13.2 C11.6,-13.2 0,-5 0,4.2"/>
<path class="Note" transform="matrix(0.992001,0,0,0.992001,2383.89,1179.8)" d="M0,4.2 C0,8.5 3.1,13.3 11.2,13.3 C21.6,13.3 32.5,4.8 32.5,-4 C32.5,-9.9 27.5,-13.2 21.3,-13.2 C11.6,-13.2 0,-5 0,4.2"/>
<path class="Note" transform="matrix(0.992001,0,0,0.992001,2043.45,733.399)" d="M0,4.2 C0,8.5 3.1,13.3 11.2,13.3 C21.6,13.3 32.5,4.8 32.5,-4 C32.5,-9.9 27.5,-13.2 21.3,-13.2 C11.6,-13.2 0,-5 0,4.2"/>
<path class="Note" transform="matrix(0.992001,0,0,0.992001,1860.03,1204.6)" d="M0,4.2 C0,8.5 3.1,13.3 11.2,13.3 C21.6,13.3 32.5,4.8 32.5,-4 C32.5,-9.9 27.5,-13.2 21.3,-13.2 C11.6,-13.2 0,-5 0,4.2"/>
<path class="Note" transform="matrix(0.992001,0,0,0.992001,457.995,1179.8)" d="M0,4.2 C0,8.5 3.1,13.3 11.2,13.3 C21.6,13.3 32.5,4.8 32.5,-4 C32.5,-9.9 27.5,-13.2 21.3,-13.2 C11.6,-13.2 0,-5 0,4.2"/>
<path class="Note" transform="matrix(0.992001,0,0,0.992001,496.729,733.399)" d="M0,4.2 C0,8.5 3.1,13.3 11.2,13.3 C21.6,13.3 32.5,4.8 32.5,-4 C32.5,-9.9 27.5,-13.2 21.3,-13.2 C11.6,-13.2 0,-5 0,4.2"/>
<path class="Note" transform="matrix(0.992001,0,0,0.992001,1907.45,708.599)" d="M0,4.2 C0,8.5 3.1,13.3 11.2,13.3 C21.6,13.3 32.5,4.8 32.5,-4 C32.5,-9.9 27.5,-13.2 21.3,-13.2 C11.6,-13.2 0,-5 0,4.2"/>
<path class="Note" transform="matrix(0.992001,0,0,0.992001,1816.78,683.799)" d="M0,4.2 C0,8.5 3.1,13.3 11.2,13.3 C21.6,13.3 32.5,4.8 32.5,-4 C32.5,-9.9 27.5,-13.2 21.3,-13.2 C11.6,-13.2 0,-5 0,4.2"/>
<path class="Note" transform="matrix(0.992001,0,0,0.992001,590.857,1179.8)" d="M0,4.2 C0,8.5 3.1,13.3 11.2,13.3 C21.6,13.3 32.5,4.8 32.5,-4 C32.5,-9.9 27.5,-13.2 21.3,-13.2 C11.6,-13.2 0,-5 0,4.2"/>
<path class="Note" transform="matrix(0.992001,0,0,0.992001,1726.12,671.399)" d="M0,4.2 C0,8.5 3.1,13.3 11.2,13.3 C21.6,13.3 32.5,4.8 32.5,-4 C32.5,-9.9 27.5,-13.2 21.3,-13.2 C11.6,-13.2 0,-5 0,4.2"/>
<path class="Note" transform="matrix(0.992001,0,0,0.992001,723.719,1179.8)" d="M0,4.2 C0,8.5 3.1,13.3 11.2,13.3 C21.6,13.3 32.5,4.8 32.5,-4 C32.5,-9.9 27.5,-13.2 21.3,-13.2 C11.6,-13.2 0,-5 0,4.2"/>
<path class="Note" transform="matrix(0.992001,0,0,0.992001,1424.73,1229.4)" d="M0,4.2 C0,8.5 3.1,13.3 11.2,13.3 C21.6,13.3 32.5,4.8 32.5,-4 C32.5,-9.9 27.5,-13.2 21.3,-13.2 C11.6,-13.2 0,-5 0,4.2"/>
<path class="Note" transform="matrix(0.992001,0,0,0.992001,1992.89,1192.2)" d="M0,4.2 C0,8.5 3.1,13.3 11.2,13.3 C21.6,13.3 32.5,4.8 32.5,-4 C32.5,-9.9 27.5,-13.2 21.3,-13.2 C11.6,-13.2 0,-5 0,4.2"/>
<path class="Note" transform="matrix(0.992001,0,0,0.992001,1590.12,683.799)" d="M0,4.2 C0,8.5 3.1,13.3 11.2,13.3 C21.6,13.3 32.5,4.8 32.5,-4 C32.5,-9.9 27.5,-13.2 21.3,-13.2 C11.6,-13.2 0,-5 0,4.2"/>
<path class="Note" transform="matrix(0.992001,0,0,0.992001,856.581,1192.2)" d="M0,4.2 C0,8.5 3.1,13.3 11.2,13.3 C21.6,13.3 32.5,4.8 32.5,-4 C32.5,-9.9 27.5,-13.2 21.3,-13.2 C11.6,-13.2 0,-5 0,4.2"/>
<path class="Note" transform="matrix(0.992001,0,0,0.992001,1009.43,708.599)" d="M0,4.2 C0,8.5 3.1,13.3 11.2,13.3 C21.6,13.3 32.5,4.8 32.5,-4 C32.5,-9.9 27.5,-13.2 21.3,-13.2 C11.6,-13.2 0,-5 0,4.2"/>
<path class="Note" transform="matrix(0.992001,0,0,0.992001,2472.47,1204.6)" d="M0,4.2 C0,8.5 3.1,13.3 11.2,13.3 C21.6,13.3 32.5,4.8 32.5,-4 C32.5,-9.9 27.5,-13.2 21.3,-13.2 C11.6,-13.2 0,-5 0,4.2"/>
<path class="Note" transform="matrix(0.992001,0,0,0.992001,2162.45,1179.8)" d="M0,4.2 C0,8.5 3.1,13.3 11.2,13.3 C21.6,13.3 32.5,4.8 32.5,-4 C32.5,-9.9 27.5,-13.2 21.3,-13.2 C11.6,-13.2 0,-5 0,4.2"/>
<path class="Note" transform="matrix(0.992001,0,0,0.992001,1026.15,1204.6)" d="M0,4.2 C0,8.5 3.1,13.3 11.2,13.3 C21.6,13.3 32.5,4.8 32.5,-4 C32.5,-9.9 27.5,-13.2 21.3,-13.2 C11.6,-13.2 0,-5 0,4.2"/>
<path class="Note" transform="matrix(0.992001,0,0,0.992001,1417.42,708.599)" d="M0,4.2 C0,8.5 3.1,13.3 11.2,13.3 C21.6,13.3 32.5,4.8 32.5,-4 C32.5,-9.9 27.5,-13.2 21.3,-13.2 C11.6,-13.2 0,-5 0,4.2"/>
<path class="Note" transform="matrix(0.992001,0,0,0.992001,1291.87,1229.4)" d="M0,4.2 C0,8.5 3.1,13.3 11.2,13.3 C21.6,13.3 32.5,4.8 32.5,-4 C32.5,-9.9 27.5,-13.2 21.3,-13.2 C11.6,-13.2 0,-5 0,4.2"/>
<path class="Note" transform="matrix(0.992001,0,0,0.992001,1281.42,720.999)" d="M0,4.2 C0,8.5 3.1,13.3 11.2,13.3 C21.6,13.3 32.5,4.8 32.5,-4 C32.5,-9.9 27.5,-13.2 21.3,-13.2 C11.6,-13.2 0,-5 0,4.2"/>
<path class="Note" transform="matrix(0.992001,0,0,0.992001,1159.01,1204.6)" d="M0,4.2 C0,8.5 3.1,13.3 11.2,13.3 C21.6,13.3 32.5,4.8 32.5,-4 C32.5,-9.9 27.5,-13.2 21.3,-13.2 C11.6,-13.2 0,-5 0,4.2"/>
<path class="Note" transform="matrix(0.992001,0,0,0.992001,2216.15,708.599)" d="M0,4.2 C0,8.5 3.1,13.3 11.2,13.3 C21.6,13.3 32.5,4.8 32.5,-4 C32.5,-9.9 27.5,-13.2 21.3,-13.2 C11.6,-13.2 0,-5 0,4.2"/>
<path class="Clef" transform="matrix(0.992001,0,0,0.992001,232.438,1179.8)" d="M12.3,51.3 C12.3,57.9 17.3,66.6 30.8,66.6 C35.5,66.6 39.6,65.4 43.2,63.2 C48.6,59.4 50,52.8 50,46.5 C50,42.6 49.4,38.1 48.4,32.4 C48.1,30.4 47.5,27.4 46.9,23.5 C56.7,20.3 64,10.1 64,-0.2 C64,-15.3 53.3,-25.5 38.7,-25.5 C37.7,-31.5 36.7,-37.4 35.9,-43 C46.4,-54.1 53.7,-66.6 53.7,-82.5 C53.7,-91.6 50.9,-99 49.3,-102.6 C46.9,-107.7 44,-111.2 42.2,-111.2 C41.5,-111.2 38.4,-110 35.1,-106.1 C28.7,-98.5 26.9,-85.7 26.9,-77.3 C26.9,-71.9 27.4,-67 29.1,-55.8 C29,-55.7 23.8,-50.4 21.7,-48.7 C12.6,-40.3 0,-28.1 0,-8.1 C0,10.6 16.3,25.3 34.9,25.3 C37.8,25.3 40.5,25 42.8,24.6 C44.7,34.2 45.9,41.2 45.9,46.5 C45.9,56.9 40.5,62.4 30.4,62.4 C28,62.4 25.9,61.9 25.7,61.9 C25.6,61.8 25.4,61.7 25.4,61.6 C25.4,61.4 25.6,61.3 25.9,61.3 C30.6,60.5 35.3,56.5 35.3,50.1 C35.3,44.7 31.2,39 23.7,39 C16.7,39 12.3,44.7 12.3,51.3 M33.2,-82.2 C34.1,-86.2 38.7,-96.7 43.9,-96.7 C45.4,-96.7 47.8,-91.9 47.8,-84.9 C47.8,-74.5 40.1,-66.7 33.2,-59.9 C32.6,-63.9 32.1,-67.8 32.1,-72 C32.1,-75.7 32.4,-79.1 33.2,-82.2 M42,20.6 C40,21 38.1,21.2 36.2,21.2 C21.9,21.2 9.7,11.2 9.7,-3.9 C9.7,-16.1 18.3,-27 27.1,-34.6 C28.8,-36.1 30.4,-37.5 31.9,-39 C32.8,-33.6 33.5,-28.9 34.2,-24.8 C25.1,-22.1 18.9,-12.5 18.9,-3.1 C18.9,3.9 24.4,13.5 32.4,13.5 C33.2,13.5 34.1,13.1 34.1,12.2 C34.1,11.3 33.1,10.8 31.9,10 C28,7.6 25.8,5 25.8,0.1 C25.8,-6 30.4,-10.9 36.2,-12.3 L42,20.6 M56.2,2.1 C56.2,9.2 53.3,16.5 46.2,19.4 C44.1,7.4 41.4,-8.5 40.7,-12.9 C49.7,-12.9 56.2,-6.8 56.2,2.1"/>
<path class="Clef" transform="matrix(0.992001,0,0,0.992001,232.438,708.599)" d="M12.3,51.3 C12.3,57.9 17.3,66.6 30.8,66.6 C35.5,66.6 39.6,65.4 43.2,63.2 C48.6,59.4 50,52.8 50,46.5 C50,42.6 49.4,38.1 48.4,32.4 C48.1,30.4 47.5,27.4 46.9,23.5 C56.7,20.3 64,10.1 64,-0.2 C64,-15.3 53.3,-25.5 38.7,-25.5 C37.7,-31.5 36.7,-37.4 35.9,-43 C46.4,-54.1 53.7,-66.6 53.7,-82.5 C53.7,-91.6 50.9,-99 49.3,-102.6 C46.9,-107.7 44,-111.2 42.2,-111.2 C41.5,-111.2 38.4,-110 35.1,-106.1 C28.7,-98.5 26.9,-85.7 26.9,-77.3 C26.9,-71.9 27.4,-67 29.1,-55.8 C29,-55.7 23.8,-50.4 21.7,-48.7 C12.6,-40.3 0,-28.1 0,-8.1 C0,10.6 16.3,25.3 34.9,25.3 C37.8,25.3 40.5,25 42.8,24.6 C44.7,34.2 45.9,41.2 45.9,46.5 C45.9,56.9 40.5,62.4 30.4,62.4 C28,62.4 25.9,61.9 25.7,61.9 C25.6,61.8 25.4,61.7 25.4,61.6 C25.4,61.4 25.6,61.3 25.9,61.3 C30.6,60.5 35.3,56.5 35.3,50.1 C35.3,44.7 31.2,39 23.7,39 C16.7,39 12.3,44.7 12.3,51.3 M33.2,-82.2 C34.1,-86.2 38.7,-96.7 43.9,-96.7 C45.4,-96.7 47.8,-91.9 47.8,-84.9 C47.8,-74.5 40.1,-66.7 33.2,-59.9 C32.6,-63.9 32.1,-67.8 32.1,-72 C32.1,-75.7 32.4,-79.1 33.2,-82.2 M42,20.6 C40,21 38.1,21.2 36.2,21.2 C21.9,21.2 9.7,11.2 9.7,-3.9 C9.7,-16.1 18.3,-27 27.1,-34.6 C28.8,-36.1 30.4,-37.5 31.9,-39 C32.8,-33.6 33.5,-28.9 34.2,-24.8 C25.1,-22.1 18.9,-12.5 18.9,-3.1 C18.9,3.9 24.4,13.5 32.4,13.5 C33.2,13.5 34.1,13.1 34.1,12.2 C34.1,11.3 33.1,10.8 31.9,10 C28,7.6 25.8,5 25.8,0.1 C25.8,-6 30.4,-10.9 36.2,-12.3 L42,20.6 M56.2,2.1 C56.2,9.2 53.3,16.5 46.2,19.4 C44.1,7.4 41.4,-8.5 40.7,-12.9 C49.7,-12.9 56.2,-6.8 56.2,2.1"/>
<path class="KeySig" transform="matrix(0.992001,0,0,0.992001,320.711,683.799)" d="M12,-15.5 C7,-15.5 4.1,-12.4 3.6,-11.8 L4,-43.9 C4,-44.7 3.4,-45.3 2.6,-45.3 L1.4,-45.3 C0.6,-45.3 0,-44.7 0,-43.9 L0.5,16.2 C0.5,17 1.1,17.6 1.9,17.6 C2.1,17.6 2.5,17.5 2.7,17.4 C11.3,13.1 20.3,4.9 20.3,-5.4 C20.3,-10.6 17.9,-15.5 12,-15.5 M3.3,12.7 L3.6,-6.8 C3.8,-7.7 5.3,-10.6 9.3,-10.6 C12.9,-10.6 13.2,-7.2 13.2,-5.1 C13.2,3.8 9.9,7.5 3.3,12.7"/>
<path class="KeySig" transform="matrix(0.992001,0,0,0.992001,348.286,646.599)" d="M12,-15.5 C7,-15.5 4.1,-12.4 3.6,-11.8 L4,-43.9 C4,-44.7 3.4,-45.3 2.6,-45.3 L1.4,-45.3 C0.6,-45.3 0,-44.7 0,-43.9 L0.5,16.2 C0.5,17 1.1,17.6 1.9,17.6 C2.1,17.6 2.5,17.5 2.7,17.4 C11.3,13.1 20.3,4.9 20.3,-5.4 C20.3,-10.6 17.9,-15.5 12,-15.5 M3.3,12.7 L3.6,-6.8 C3.8,-7.7 5.3,-10.6 9.3,-10.6 C12.9,-10.6 13.2,-7.2 13.2,-5.1 C13.2,3.8 9.9,7.5 3.3,12.7"/>
<path class="KeySig" transform="matrix(0.992001,0,0,0.992001,375.86,696.199)" d="M12,-15.5 C7,-15.5 4.1,-12.4 3.6,-11.8 L4,-43.9 C4,-44.7 3.4,-45.3 2.6,-45.3 L1.4,-45.3 C0.6,-45.3 0,-44.7 0,-43.9 L0.5,16.2 C0.5,17 1.1,17.6 1.9,17.6 C2.1,17.6 2.5,17.5 2.7,17.4 C11.3,13.1 20.3,4.9 20.3,-5.4 C20.3,-10.6 17.9,-15.5 12,-15.5 M3.3,12.7 L3.6,-6.8 C3.8,-7.7 5.3,-10.6 9.3,-10.6 C12.9,-10.6 13.2,-7.2 13.2,-5.1 C13.2,3.8 9.9,7.5 3.3,12.7"/>
<path class="KeySig" transform="matrix(0.992001,0,0,0.992001,320.711,1155)" d="M12,-15.5 C7,-15.5 4.1,-12.4 3.6,-11.8 L4,-43.9 C4,-44.7 3.4,-45.3 2.6,-45.3 L1.4,-45.3 C0.6,-45.3 0,-44.7 0,-43.9 L0.5,16.2 C0.5,17 1.1,17.6 1.9,17.6 C2.1,17.6 2.5,17.5 2.7,17.4 C11.3,13.1 20.3,4.9 20.3,-5.4 C20.3,-10.6 17.9,-15.5 12,-15.5 M3.3,12.7 L3.6,-6.8 C3.8,-7.7 5.3,-10.6 9.3,-10.6 C12.9,-10.6 13.2,-7.2 13.2,-5.1 C13.2,3.8 9.9,7.5 3.3,12.7"/>
<path class="KeySig" transform="matrix(0.992001,0,0,0.992001,348.286,1117.8)" d="M12,-15.5 C7,-15.5 4.1,-12.4 3.6,-11.8 L4,-43.9 C4,-44.7 3.4,-45.3 2.6,-45.3 L1.4,-45.3 C0.6,-45.3 0,-44.7 0,-43.9 L0.5,16.2 C0.5,17 1.1,17.6 1.9,17.6 C2.1,17.6 2.5,17.5 2.7,17.4 C11.3,13.1 20.3,4.9 20.3,-5.4 C20.3,-10.6 17.9,-15.5 12,-15.5 M3.3,12.7 L3.6,-6.8 C3.8,-7.7 5.3,-10.6 9.3,-10.6 C12.9,-10.6 13.2,-7.2 13.2,-5.1 C13.2,3.8 9.9,7.5 3.3,12.7"/>
<path class="KeySig" transform="matrix(0.992001,0,0,0.992001,375.86,1167.4)" d="M12,-15.5 C7,-15.5 4.1,-12.4 3.6,-11.8 L4,-43.9 C4,-44.7 3.4,-45.3 2.6,-45.3 L1.4,-45.3 C0.6,-45.3 0,-44.7 0,-43.9 L0.5,16.2 C0.5,17 1.1,17.6 1.9,17.6 C2.1,17.6 2.5,17.5 2.7,17.4 C11.3,13.1 20.3,4.9 20.3,-5.4 C20.3,-10.6 17.9,-15.5 12,-15.5 M3.3,12.7 L3.6,-6.8 C3.8,-7.7 5.3,-10.6 9.3,-10.6 C12.9,-10.6 13.2,-7.2 13.2,-5.1 C13.2,3.8 9.9,7.5 3.3,12.7"/>
<path class="TimeSig" transform="matrix(0.992001,0,0,0.992001,422.686,659.495)" d="M34.2,3.9 C33.4,6.1 31.4,13.3 26.5,13.3 C20,13.3 18.6,9.3 13.2,9.3 C12.4,9.3 11.6,9.4 10.6,9.6 C10.6,9.6 13.1,5.8 23.7,2.5 C34.3,-0.8 37,-6 37,-12 C37,-16.2 35.1,-24.5 20,-24.5 C4.9,-24.5 2.1,-15.4 2.1,-10.8 C2.1,-6.7 5.5,-3.4 9.6,-3.4 C13.7,-3.4 17,-6.7 17,-10.8 C17,-13.6 15,-16.7 12.4,-17.7 C12.1,-17.8 11.7,-18.3 11.7,-18.8 C11.7,-19.4 12.2,-20.1 14,-20.6 C14.5,-20.8 15.9,-21.1 17.4,-21.1 C23.1,-21.1 24.2,-17.6 24.2,-12.5 C24.2,-0.8 10.3,1.7 4.5,10.4 C4.5,10.4 1.5,14.6 1.5,19.3 C1.5,24 3.9,24.3 5.1,24.3 C6.7,24.3 8.4,23 8.4,21.2 C8.4,20.8 8.3,20.4 8.1,19.9 C7.5,18.5 7.3,17.4 7.3,16.6 C7.3,16.3 7.3,16 7.4,15.7 C7.5,15.1 8.3,14.1 10.7,14.1 C13.6,14.1 14.7,17.5 16.5,20.1 C18.3,22.7 21.1,24.3 24.3,24.3 C27.5,24.3 31.8,22 33.6,18.3 C35.4,14.6 37.7,7.1 37.7,4.4 C37.7,3.1 36.9,2.5 36,2.5 C35.3,2.5 34.6,2.9 34.2,3.9"/>
<path class="TimeSig" transform="matrix(0.992001,0,0,0.992001,419.415,708.599)" d="M20.8,12.7 L20.8,20.1 L12.5,20.1 C11.8,20.1 11.1,20.7 11.1,21.5 L11.1,23.4 C11.1,24.2 11.8,24.8 12.5,24.8 L42.8,24.8 C43.6,24.8 44.2,24.2 44.2,23.4 L44.2,21.5 C44.2,20.7 43.6,20.1 42.8,20.1 L33.9,20.1 L33.9,12.7 L42.8,12.7 C43.6,12.7 44.2,12 44.2,11.2 L44.2,9.3 C44.2,8.6 43.6,7.9 42.8,7.9 L33.9,7.9 L33.9,-8 C33.9,-8.6 33.6,-9.1 33.1,-9.3 L31.9,-9.9 C31.7,-10 31.4,-10.1 31.2,-10.1 C30.9,-10 30.5,-9.9 30.3,-9.7 L21.2,-1.4 C20.9,-1.1 20.8,-0.7 20.8,-0.3 L20.8,7.9 L9.3,7.9 C9.3,7.9 20.4,-4.1 32.2,-19.9 C32.6,-20.4 32.7,-20.9 32.7,-21.3 C32.7,-21.8 32.5,-22.2 32.4,-22.3 L30.2,-24.5 C30,-24.7 29.6,-24.9 29.2,-24.9 C28.6,-24.9 15.1,-24.9 14.4,-24.9 C13.6,-24.9 13.1,-24.3 13,-23.7 C13,-23.7 12.5,-16.3 9.9,-8.2 C7.3,-0.1 4.3,4.9 1.7,8.6 C1.7,8.6 1.4,9.1 1.4,9.7 C1.4,9.9 1.4,10.1 1.5,10.3 C1.9,11 2.5,12.1 2.5,12.1 C2.5,12.1 2.7,12.7 3.6,12.7 L20.8,12.7 "/>
<path class="Rest" transform="matrix(0.992001,0,0,0.992001,2605.33,1155)" d="M26.7,-20.3 C26.6,-20.3 26.4,-20.4 26.3,-20.4 C25.7,-20.4 25.2,-20.1 25,-19.6 C22.7,-15 17.9,-8.8 12.5,-7.8 C13.6,-9.1 14.3,-10.7 14.3,-12.6 C14.3,-16.5 11.1,-19.7 7.2,-19.7 C3.2,-19.7 0,-16.5 0,-12.6 C0,-7.2 5.3,-4.7 10,-4.7 C15.3,-4.7 18.8,-7.2 22.2,-10.9 L10.8,24.7 L13.5,25.5 L27.5,-18.6 C27.6,-18.7 27.6,-18.9 27.6,-19.1 C27.6,-19.6 27.3,-20 26.7,-20.3"/>
<path class="Rest" transform="matrix(0.992001,0,0,0.992001,2624.14,683.799)" d="M26.7,-20.3 C26.6,-20.3 26.4,-20.4 26.3,-20.4 C25.7,-20.4 25.2,-20.1 25,-19.6 C22.7,-15 17.9,-8.8 12.5,-7.8 C13.6,-9.1 14.3,-10.7 14.3,-12.6 C14.3,-16.5 11.1,-19.7 7.2,-19.7 C3.2,-19.7 0,-16.5 0,-12.6 C0,-7.2 5.3,-4.7 10,-4.7 C15.3,-4.7 18.8,-7.2 22.2,-10.9 L10.8,24.7 L13.5,25.5 L27.5,-18.6 C27.6,-18.7 27.6,-18.9 27.6,-19.1 C27.6,-19.6 27.3,-20 26.7,-20.3"/>
<path class="Beam" fill-rule="evenodd" d="M1590.12,751.999 L1819.51,751.999 L1819.51,764.399 L1590.12,764.399 L1590.12,751.999 "/>
<path class="Beam" fill-rule="evenodd" d="M1726.12,733.399 L1819.51,733.399 L1819.51,745.799 L1726.12,745.799 L1726.12,733.399 "/>
<path class="Beam" fill-rule="evenodd" d="M1321.37,1148.8 L1456.96,1148.8 L1456.96,1161.2 L1321.37,1161.2 L1321.37,1148.8 "/>
<path class="Beam" fill-rule="evenodd" d="M1055.64,1124 L1191.23,1124 L1191.23,1136.4 L1055.64,1136.4 L1055.64,1124 "/>
<path class="Beam" fill-rule="evenodd" d="M753.216,1099.19 L888.806,1105.39 L888.806,1117.81 L753.216,1111.61 L753.216,1099.19 "/>
<path class="Beam" fill-rule="evenodd" d="M487.491,1099.2 L623.081,1099.2 L623.081,1111.6 L487.491,1111.6 L487.491,1099.2 "/>
<path class="Beam" fill-rule="evenodd" d="M1623.8,1155 L1759.39,1155 L1759.39,1167.4 L1623.8,1167.4 L1623.8,1155 "/>
<path class="Beam" fill-rule="evenodd" d="M730.222,652.793 L868.948,646.593 L868.948,659.005 L730.222,665.205 L730.222,652.793 "/>
<path class="Beam" fill-rule="evenodd" d="M2245.64,627.999 L2384.37,627.999 L2384.37,640.399 L2245.64,640.399 L2245.64,627.999 "/>
<path class="Beam" fill-rule="evenodd" d="M2191.95,1099.2 L2416.12,1099.2 L2416.12,1111.6 L2191.95,1111.6 L2191.95,1099.2 "/>
<path class="Beam" fill-rule="evenodd" d="M2324.81,1117.8 L2416.12,1117.8 L2416.12,1130.2 L2324.81,1130.2 L2324.81,1117.8 "/>
<path class="Beam" fill-rule="evenodd" d="M1038.92,627.999 L1177.65,627.999 L1177.65,640.399 L1038.92,640.399 L1038.92,627.999 "/>
<path class="Beam" fill-rule="evenodd" d="M1936.94,627.993 L2075.67,634.193 L2075.67,646.605 L1936.94,640.405 L1936.94,627.993 "/>
<path class="Beam" fill-rule="evenodd" d="M1889.52,1123.99 L2025.11,1117.79 L2025.11,1130.21 L1889.52,1136.41 L1889.52,1123.99 "/>
<path class="Beam" fill-rule="evenodd" d="M1310.92,634.193 L1449.64,627.993 L1449.64,640.405 L1310.92,646.605 L1310.92,634.193 "/>
<path class="Harmony" d="M1047.38,1002.92 L1045.07,1002.92 L1032.42,1034.98 C1030.93,1039.27 1029.5,1040.59 1026.37,1040.81 L1026.15,1040.81 L1026.15,1043.4 L1040.72,1043.4 L1040.72,1040.81 L1039.62,1040.81 C1036.65,1040.81 1035.17,1039.77 1035.17,1037.68 C1035.17,1036.96 1035.33,1036.3 1035.66,1035.37 L1037.48,1030.53 L1052.05,1030.53 L1055.02,1037.9 C1055.35,1038.78 1055.46,1039.11 1055.46,1039.38 C1055.46,1040.26 1054.09,1040.81 1052.05,1040.81 L1049.74,1040.81 L1049.74,1043.4 L1066.79,1043.4 L1066.79,1040.81 L1066.02,1040.81 C1063.16,1040.76 1062.67,1040.43 1061.4,1037.29 L1047.38,1002.92 M1044.68,1011.94 L1050.9,1027.56 L1038.58,1027.56 L1044.68,1011.94 "/>
<path class="Harmony" d="M1072.12,1045.93 C1073.77,1045.93 1079.98,1042.41 1083.45,1038.78 C1086.25,1035.75 1087.02,1031.68 1087.02,1028.88 C1087.02,1024.48 1084.27,1021.34 1079.82,1021.34 C1077.45,1021.34 1075.36,1022.11 1073.6,1023.65 L1073.88,1000.99 C1073.88,1000.28 1073.27,999.729 1072.56,999.729 L1071.73,999.729 C1071.07,999.729 1070.41,1000.28 1070.41,1000.99 L1070.85,1044.66 C1070.85,1045.38 1071.4,1045.93 1072.12,1045.93 M1078.22,1025.47 C1081.36,1025.47 1081.74,1028.71 1081.74,1029.98 C1081.74,1034.98 1077.62,1038.5 1073.93,1041.2 C1073.77,1041.31 1073.6,1041.42 1073.44,1041.58 L1073.55,1028 C1073.66,1027.72 1074.1,1027.12 1074.92,1026.57 C1075.58,1026.07 1076.85,1025.47 1078.22,1025.47"/>
<path class="Harmony" d="M1623.18,532.489 L1590.12,532.489 L1590.12,535.074 L1591.11,535.074 C1594.25,535.129 1595.29,535.294 1595.73,535.844 C1596.06,536.339 1596.06,536.449 1596.06,539.254 L1596.06,565.434 C1596.06,568.239 1596.06,568.349 1595.73,568.844 C1595.29,569.394 1594.25,569.614 1591.11,569.614 L1590.12,569.614 L1590.12,572.199 L1623.89,572.199 L1624.99,557.514 L1622.57,557.514 C1620.48,567.304 1618.23,569.394 1609.81,569.614 L1606.18,569.614 C1602.88,569.504 1602.06,568.954 1602.22,566.974 L1602.22,552.949 L1603.32,552.949 C1608.99,552.729 1611.02,554.764 1611.24,560.869 L1613.83,560.869 L1613.83,542.829 L1611.24,542.829 C1610.91,548.219 1608.77,550.364 1603.54,550.364 L1602.22,550.364 L1602.22,537.824 C1602.17,535.514 1602.72,535.129 1605.69,535.074 L1608.55,535.074 C1617.57,535.019 1619.82,536.999 1621.58,546.514 L1623.95,546.514 L1623.18,532.489 "/>
<path class="Harmony" d="M1634.06,574.729 C1635.71,574.729 1641.92,571.209 1645.39,567.579 C1648.19,564.554 1648.96,560.484 1648.96,557.679 C1648.96,553.279 1646.21,550.144 1641.76,550.144 C1639.39,550.144 1637.3,550.914 1635.54,552.454 L1635.82,529.794 C1635.82,529.079 1635.21,528.529 1634.5,528.529 L1633.67,528.529 C1633.01,528.529 1632.35,529.079 1632.35,529.794 L1632.79,573.464 C1632.79,574.179 1633.34,574.729 1634.06,574.729 M1640.16,554.269 C1643.3,554.269 1643.68,557.514 1643.68,558.779 C1643.68,563.784 1639.56,567.304 1635.87,569.999 C1635.71,570.109 1635.54,570.219 1635.38,570.384 L1635.49,556.799 C1635.6,556.524 1636.04,555.919 1636.86,555.369 C1637.52,554.874 1638.79,554.269 1640.16,554.269"/>
<path class="Harmony" d="M1314.48,532.489 L1281.42,532.489 L1281.42,535.074 L1282.41,535.074 C1285.55,535.129 1286.59,535.294 1287.03,535.844 C1287.36,536.339 1287.36,536.449 1287.36,539.254 L1287.36,565.434 C1287.36,568.239 1287.36,568.349 1287.03,568.844 C1286.59,569.394 1285.55,569.614 1282.41,569.614 L1281.42,569.614 L1281.42,572.199 L1315.19,572.199 L1316.29,557.514 L1313.87,557.514 C1311.78,567.304 1309.53,569.394 1301.11,569.614 L1297.48,569.614 C1294.18,569.504 1293.36,568.954 1293.52,566.974 L1293.52,552.949 L1294.62,552.949 C1300.29,552.729 1302.32,554.764 1302.54,560.869 L1305.13,560.869 L1305.13,542.829 L1302.54,542.829 C1302.21,548.219 1300.07,550.364 1294.84,550.364 L1293.52,550.364 L1293.52,537.824 C1293.47,535.514 1294.02,535.129 1296.99,535.074 L1299.85,535.074 C1308.87,535.019 1311.12,536.999 1312.88,546.514 L1315.25,546.514 L1314.48,532.489 "/>
<path class="Harmony" d="M1325.36,574.729 C1327.01,574.729 1333.23,571.209 1336.69,567.579 C1339.5,564.554 1340.27,560.484 1340.27,557.679 C1340.27,553.279 1337.52,550.144 1333.06,550.144 C1330.7,550.144 1328.61,550.914 1326.85,552.454 L1327.12,529.794 C1327.12,529.079 1326.52,528.529 1325.8,528.529 L1324.98,528.529 C1324.32,528.529 1323.66,529.079 1323.66,529.794 L1324.1,573.464 C1324.1,574.179 1324.65,574.729 1325.36,574.729 M1331.47,554.269 C1334.6,554.269 1334.99,557.514 1334.99,558.779 C1334.99,563.784 1330.86,567.304 1327.18,569.999 C1327.01,570.109 1326.85,570.219 1326.68,570.384 L1326.79,556.799 C1326.9,556.524 1327.34,555.919 1328.17,555.369 C1328.83,554.874 1330.09,554.269 1331.47,554.269"/>
<path class="Harmony" d="M1893.08,1003.69 L1860.03,1003.69 L1860.03,1006.27 L1861.02,1006.27 C1864.15,1006.33 1865.2,1006.49 1865.64,1007.04 C1865.97,1007.54 1865.97,1007.65 1865.97,1010.45 L1865.97,1036.63 C1865.97,1039.44 1865.97,1039.55 1865.64,1040.04 C1865.2,1040.59 1864.15,1040.81 1861.02,1040.81 L1860.03,1040.81 L1860.03,1043.4 L1893.8,1043.4 L1894.9,1028.71 L1892.48,1028.71 C1890.39,1038.5 1888.13,1040.59 1879.72,1040.81 L1876.09,1040.81 C1872.79,1040.7 1871.96,1040.15 1872.13,1038.17 L1872.13,1024.15 L1873.23,1024.15 C1878.89,1023.93 1880.93,1025.96 1881.15,1032.07 L1883.73,1032.07 L1883.73,1014.03 L1881.15,1014.03 C1880.82,1019.42 1878.67,1021.56 1873.45,1021.56 L1872.13,1021.56 L1872.13,1009.02 C1872.07,1006.71 1872.62,1006.33 1875.59,1006.27 L1878.45,1006.27 C1887.47,1006.22 1889.73,1008.2 1891.49,1017.71 L1893.85,1017.71 L1893.08,1003.69 "/>
<path class="Harmony" d="M1903.96,1045.93 C1905.61,1045.93 1911.83,1042.41 1915.29,1038.78 C1918.1,1035.75 1918.87,1031.68 1918.87,1028.88 C1918.87,1024.48 1916.12,1021.34 1911.66,1021.34 C1909.3,1021.34 1907.21,1022.11 1905.45,1023.65 L1905.72,1000.99 C1905.72,1000.28 1905.12,999.729 1904.4,999.729 L1903.58,999.729 C1902.92,999.729 1902.26,1000.28 1902.26,1000.99 L1902.7,1044.66 C1902.7,1045.38 1903.25,1045.93 1903.96,1045.93 M1910.07,1025.47 C1913.2,1025.47 1913.59,1028.71 1913.59,1029.98 C1913.59,1034.98 1909.46,1038.5 1905.78,1041.2 C1905.61,1041.31 1905.45,1041.42 1905.28,1041.58 L1905.39,1028 C1905.5,1027.72 1905.94,1027.12 1906.77,1026.57 C1907.43,1026.07 1908.69,1025.47 1910.07,1025.47"/>
<path class="Harmony" d="M1042.48,532.489 L1009.43,532.489 L1009.43,535.074 L1010.42,535.074 C1013.55,535.129 1014.6,535.294 1015.04,535.844 C1015.37,536.339 1015.37,536.449 1015.37,539.254 L1015.37,565.434 C1015.37,568.239 1015.37,568.349 1015.04,568.844 C1014.6,569.394 1013.55,569.614 1010.42,569.614 L1009.43,569.614 L1009.43,572.199 L1043.2,572.199 L1044.3,557.514 L1041.88,557.514 C1039.79,567.304 1037.53,569.394 1029.12,569.614 L1025.49,569.614 C1022.19,569.504 1021.36,568.954 1021.53,566.974 L1021.53,552.949 L1022.63,552.949 C1028.29,552.729 1030.33,554.764 1030.55,560.869 L1033.13,560.869 L1033.13,542.829 L1030.55,542.829 C1030.22,548.219 1028.07,550.364 1022.85,550.364 L1021.53,550.364 L1021.53,537.824 C1021.47,535.514 1022.02,535.129 1024.99,535.074 L1027.85,535.074 C1036.87,535.019 1039.13,536.999 1040.89,546.514 L1043.25,546.514 L1042.48,532.489 "/>
<path class="Harmony" d="M1053.36,574.729 C1055.01,574.729 1061.23,571.209 1064.69,567.579 C1067.5,564.554 1068.27,560.484 1068.27,557.679 C1068.27,553.279 1065.52,550.144 1061.06,550.144 C1058.7,550.144 1056.61,550.914 1054.85,552.454 L1055.12,529.794 C1055.12,529.079 1054.52,528.529 1053.8,528.529 L1052.98,528.529 C1052.32,528.529 1051.66,529.079 1051.66,529.794 L1052.1,573.464 C1052.1,574.179 1052.65,574.729 1053.36,574.729 M1059.47,554.269 C1062.6,554.269 1062.99,557.514 1062.99,558.779 C1062.99,563.784 1058.86,567.304 1055.18,569.999 C1055.01,570.109 1054.85,570.219 1054.68,570.384 L1054.79,556.799 C1054.9,556.524 1055.34,555.919 1056.17,555.369 C1056.83,554.874 1058.09,554.269 1059.47,554.269"/>
<path class="Harmony" d="M1940.5,532.489 L1907.45,532.489 L1907.45,535.074 L1908.44,535.074 C1911.57,535.129 1912.62,535.294 1913.06,535.844 C1913.39,536.339 1913.39,536.449 1913.39,539.254 L1913.39,565.434 C1913.39,568.239 1913.39,568.349 1913.06,568.844 C1912.62,569.394 1911.57,569.614 1908.44,569.614 L1907.45,569.614 L1907.45,572.199 L1941.22,572.199 L1942.32,557.514 L1939.9,557.514 C1937.81,567.304 1935.55,569.394 1927.14,569.614 L1923.51,569.614 C1920.21,569.504 1919.38,568.954 1919.55,566.974 L1919.55,552.949 L1920.65,552.949 C1926.31,552.729 1928.35,554.764 1928.57,560.869 L1931.15,560.869 L1931.15,542.829 L1928.57,542.829 C1928.24,548.219 1926.09,550.364 1920.87,550.364 L1919.55,550.364 L1919.55,537.824 C1919.49,535.514 1920.04,535.129 1923.01,535.074 L1925.87,535.074 C1934.89,535.019 1937.15,536.999 1938.91,546.514 L1941.27,546.514 L1940.5,532.489 "/>
<path class="Harmony" d="M1951.39,574.729 C1953.04,574.729 1959.25,571.209 1962.72,567.579 C1965.52,564.554 1966.29,560.484 1966.29,557.679 C1966.29,553.279 1963.54,550.144 1959.09,550.144 C1956.72,550.144 1954.63,550.914 1952.87,552.454 L1953.15,529.794 C1953.15,529.079 1952.54,528.529 1951.83,528.529 L1951,528.529 C1950.34,528.529 1949.68,529.079 1949.68,529.794 L1950.12,573.464 C1950.12,574.179 1950.67,574.729 1951.39,574.729 M1957.49,554.269 C1960.63,554.269 1961.01,557.514 1961.01,558.779 C1961.01,563.784 1956.89,567.304 1953.2,569.999 C1953.04,570.109 1952.87,570.219 1952.71,570.384 L1952.82,556.799 C1952.93,556.524 1953.37,555.919 1954.19,555.369 C1954.85,554.874 1956.12,554.269 1957.49,554.269"/>
<path class="Harmony" d="M2162.46,1003.69 L2162.46,1006.27 L2163.45,1006.27 C2166.59,1006.33 2167.63,1006.49 2168.07,1007.04 C2168.4,1007.54 2168.4,1007.65 2168.4,1010.45 L2168.4,1036.63 C2168.4,1039.44 2168.4,1039.55 2168.07,1040.04 C2167.63,1040.59 2166.59,1040.81 2163.45,1040.81 L2162.46,1040.81 L2162.46,1043.4 L2182.43,1043.4 C2191.94,1043.4 2197.66,1039.38 2197.66,1032.62 C2197.66,1027.12 2194.2,1023.98 2186.66,1022.66 C2189.3,1022.11 2190.51,1021.62 2191.94,1020.57 C2194.2,1018.87 2195.57,1016.17 2195.57,1013.42 C2195.57,1009.85 2193.37,1006.38 2190.18,1005.01 C2188.2,1004.13 2185.45,1003.69 2182.21,1003.69 L2162.46,1003.69 M2174.56,1021.56 L2174.56,1009.02 C2174.56,1006.88 2175.28,1006.33 2178.19,1006.27 L2180.39,1006.27 C2185.78,1006.27 2189.19,1008.03 2189.19,1014.03 C2189.19,1019.47 2186.55,1021.56 2179.46,1021.56 L2174.56,1021.56 M2174.56,1024.15 L2179.4,1024.15 C2187.82,1024.15 2190.9,1026.4 2190.9,1032.45 C2190.9,1039.82 2186.28,1040.81 2180.06,1040.81 L2177.75,1040.81 C2175,1040.81 2174.45,1040.26 2174.56,1037.35 L2174.56,1024.15 "/>
<path class="Harmony" d="M2206.35,1045.93 C2208,1045.93 2214.21,1042.41 2217.68,1038.78 C2220.48,1035.75 2221.25,1031.68 2221.25,1028.88 C2221.25,1024.48 2218.5,1021.34 2214.05,1021.34 C2211.68,1021.34 2209.59,1022.11 2207.83,1023.65 L2208.11,1000.99 C2208.11,1000.28 2207.5,999.729 2206.79,999.729 L2205.96,999.729 C2205.3,999.729 2204.64,1000.28 2204.64,1000.99 L2205.08,1044.66 C2205.08,1045.38 2205.63,1045.93 2206.35,1045.93 M2212.45,1025.47 C2215.59,1025.47 2215.97,1028.71 2215.97,1029.98 C2215.97,1034.98 2211.85,1038.5 2208.16,1041.2 C2208,1041.31 2207.83,1041.42 2207.67,1041.58 L2207.78,1028 C2207.89,1027.72 2208.33,1027.12 2209.15,1026.57 C2209.81,1026.07 2211.08,1025.47 2212.45,1025.47"/>
<path class="Harmony" d="M2230.62,1017.99 L2233.04,1018.37 L2234.03,1014.03 C2234.86,1010.4 2235.24,1009.85 2236.84,1009.85 C2237.11,1009.85 2237.55,1009.85 2238.05,1009.9 C2244.81,1010.23 2244.81,1010.23 2247.34,1010.23 C2248.06,1010.23 2249.32,1010.23 2250.86,1010.18 L2247.12,1017.71 C2243.05,1025.8 2242.56,1026.79 2241.18,1030.2 C2239.48,1034.32 2238.6,1037.79 2238.6,1040.1 C2238.6,1042.63 2239.92,1044.17 2242.06,1044.17 C2244.7,1044.17 2245.75,1042.41 2245.69,1037.62 C2245.42,1029.7 2246.41,1025.85 2252.29,1012.98 C2253.28,1010.84 2254.33,1008.64 2255.32,1006.49 L2255.32,1004.9 C2252.02,1005.17 2250.26,1005.28 2246.85,1005.28 C2242.06,1005.28 2238.27,1005.12 2232.33,1004.68 L2230.62,1017.99 "/>
<path class="Harmony" d="M733.782,532.489 L700.727,532.489 L700.727,535.074 L701.717,535.074 C704.852,535.129 705.897,535.294 706.337,535.844 C706.667,536.339 706.667,536.449 706.667,539.254 L706.667,565.434 C706.667,568.239 706.667,568.349 706.337,568.844 C705.897,569.394 704.852,569.614 701.717,569.614 L700.727,569.614 L700.727,572.199 L734.497,572.199 L735.597,557.514 L733.177,557.514 C731.087,567.304 728.832,569.394 720.417,569.614 L716.787,569.614 C713.487,569.504 712.662,568.954 712.827,566.974 L712.827,552.949 L713.927,552.949 C719.592,552.729 721.627,554.764 721.847,560.869 L724.432,560.869 L724.432,542.829 L721.847,542.829 C721.517,548.219 719.372,550.364 714.147,550.364 L712.827,550.364 L712.827,537.824 C712.772,535.514 713.322,535.129 716.292,535.074 L719.152,535.074 C728.172,535.019 730.427,536.999 732.187,546.514 L734.552,546.514 L733.782,532.489 "/>
<path class="Harmony" d="M744.665,574.729 C746.315,574.729 752.53,571.209 755.995,567.579 C758.8,564.554 759.57,560.484 759.57,557.679 C759.57,553.279 756.82,550.144 752.365,550.144 C750,550.144 747.91,550.914 746.15,552.454 L746.425,529.794 C746.425,529.079 745.82,528.529 745.105,528.529 L744.28,528.529 C743.62,528.529 742.96,529.079 742.96,529.794 L743.4,573.464 C743.4,574.179 743.95,574.729 744.665,574.729 M750.77,554.269 C753.905,554.269 754.29,557.514 754.29,558.779 C754.29,563.784 750.165,567.304 746.48,569.999 C746.315,570.109 746.15,570.219 745.985,570.384 L746.095,556.799 C746.205,556.524 746.645,555.919 747.47,555.369 C748.13,554.874 749.395,554.269 750.77,554.269"/>
<path class="Harmony" d="M2249.2,532.489 L2216.15,532.489 L2216.15,535.074 L2217.14,535.074 C2220.27,535.129 2221.32,535.294 2221.76,535.844 C2222.09,536.339 2222.09,536.449 2222.09,539.254 L2222.09,565.434 C2222.09,568.239 2222.09,568.349 2221.76,568.844 C2221.32,569.394 2220.27,569.614 2217.14,569.614 L2216.15,569.614 L2216.15,572.199 L2249.92,572.199 L2251.02,557.514 L2248.6,557.514 C2246.51,567.304 2244.25,569.394 2235.84,569.614 L2232.21,569.614 C2228.91,569.504 2228.08,568.954 2228.25,566.974 L2228.25,552.949 L2229.35,552.949 C2235.01,552.729 2237.05,554.764 2237.27,560.869 L2239.85,560.869 L2239.85,542.829 L2237.27,542.829 C2236.94,548.219 2234.79,550.364 2229.57,550.364 L2228.25,550.364 L2228.25,537.824 C2228.19,535.514 2228.74,535.129 2231.71,535.074 L2234.57,535.074 C2243.59,535.019 2245.85,536.999 2247.61,546.514 L2249.97,546.514 L2249.2,532.489 "/>
<path class="Harmony" d="M2260.09,574.729 C2261.74,574.729 2267.95,571.209 2271.42,567.579 C2274.22,564.554 2274.99,560.484 2274.99,557.679 C2274.99,553.279 2272.24,550.144 2267.79,550.144 C2265.42,550.144 2263.33,550.914 2261.57,552.454 L2261.85,529.794 C2261.85,529.079 2261.24,528.529 2260.53,528.529 L2259.7,528.529 C2259.04,528.529 2258.38,529.079 2258.38,529.794 L2258.82,573.464 C2258.82,574.179 2259.37,574.729 2260.09,574.729 M2266.19,554.269 C2269.33,554.269 2269.71,557.514 2269.71,558.779 C2269.71,563.784 2265.59,567.304 2261.9,569.999 C2261.74,570.109 2261.57,570.219 2261.41,570.384 L2261.52,556.799 C2261.63,556.524 2262.07,555.919 2262.89,555.369 C2263.55,554.874 2264.82,554.269 2266.19,554.269"/>
<path class="Harmony" d="M529.785,532.489 L496.73,532.489 L496.73,535.074 L497.72,535.074 C500.855,535.129 501.9,535.294 502.34,535.844 C502.67,536.339 502.67,536.449 502.67,539.254 L502.67,565.434 C502.67,568.239 502.67,568.349 502.34,568.844 C501.9,569.394 500.855,569.614 497.72,569.614 L496.73,569.614 L496.73,572.199 L530.5,572.199 L531.6,557.514 L529.18,557.514 C527.09,567.304 524.835,569.394 516.42,569.614 L512.79,569.614 C509.49,569.504 508.665,568.954 508.83,566.974 L508.83,552.949 L509.93,552.949 C515.595,552.729 517.63,554.764 517.85,560.869 L520.435,560.869 L520.435,542.829 L517.85,542.829 C517.52,548.219 515.375,550.364 510.15,550.364 L508.83,550.364 L508.83,537.824 C508.775,535.514 509.325,535.129 512.295,535.074 L515.155,535.074 C524.175,535.019 526.43,536.999 528.19,546.514 L530.555,546.514 L529.785,532.489 "/>
<path class="Harmony" d="M540.669,574.729 C542.319,574.729 548.534,571.209 551.999,567.579 C554.804,564.554 555.574,560.484 555.574,557.679 C555.574,553.279 552.824,550.144 548.369,550.144 C546.004,550.144 543.914,550.914 542.154,552.454 L542.429,529.794 C542.429,529.079 541.824,528.529 541.109,528.529 L540.284,528.529 C539.624,528.529 538.964,529.079 538.964,529.794 L539.404,573.464 C539.404,574.179 539.954,574.729 540.669,574.729 M546.774,554.269 C549.909,554.269 550.294,557.514 550.294,558.779 C550.294,563.784 546.169,567.304 542.484,569.999 C542.319,570.109 542.154,570.219 541.989,570.384 L542.099,556.799 C542.209,556.524 542.649,555.919 543.474,555.369 C544.134,554.874 545.399,554.269 546.774,554.269"/>
<path class="Harmony" d="M1627.36,1003.69 L1594.3,1003.69 L1594.3,1006.27 L1595.29,1006.27 C1598.43,1006.33 1599.47,1006.49 1599.91,1007.04 C1600.24,1007.54 1600.24,1007.65 1600.24,1010.45 L1600.24,1036.63 C1600.24,1039.44 1600.24,1039.55 1599.91,1040.04 C1599.47,1040.59 1598.43,1040.81 1595.29,1040.81 L1594.3,1040.81 L1594.3,1043.4 L1628.07,1043.4 L1629.17,1028.71 L1626.75,1028.71 C1624.66,1038.5 1622.41,1040.59 1613.99,1040.81 L1610.36,1040.81 C1607.06,1040.7 1606.24,1040.15 1606.4,1038.17 L1606.4,1024.15 L1607.5,1024.15 C1613.17,1023.93 1615.2,1025.96 1615.42,1032.07 L1618.01,1032.07 L1618.01,1014.03 L1615.42,1014.03 C1615.09,1019.42 1612.95,1021.56 1607.72,1021.56 L1606.4,1021.56 L1606.4,1009.02 C1606.35,1006.71 1606.9,1006.33 1609.87,1006.27 L1612.73,1006.27 C1621.75,1006.22 1624,1008.2 1625.76,1017.71 L1628.13,1017.71 L1627.36,1003.69 "/>
<path class="Harmony" d="M1638.24,1045.93 C1639.89,1045.93 1646.11,1042.41 1649.57,1038.78 C1652.38,1035.75 1653.15,1031.68 1653.15,1028.88 C1653.15,1024.48 1650.4,1021.34 1645.94,1021.34 C1643.58,1021.34 1641.49,1022.11 1639.73,1023.65 L1640,1000.99 C1640,1000.28 1639.4,999.729 1638.68,999.729 L1637.86,999.729 C1637.2,999.729 1636.54,1000.28 1636.54,1000.99 L1636.98,1044.66 C1636.98,1045.38 1637.53,1045.93 1638.24,1045.93 M1644.35,1025.47 C1647.48,1025.47 1647.87,1028.71 1647.87,1029.98 C1647.87,1034.98 1643.74,1038.5 1640.06,1041.2 C1639.89,1041.31 1639.73,1041.42 1639.56,1041.58 L1639.67,1028 C1639.78,1027.72 1640.22,1027.12 1641.05,1026.57 C1641.71,1026.07 1642.97,1025.47 1644.35,1025.47"/>
<path class="Harmony" d="M2488.15,532.489 L2488.15,535.074 L2489.14,535.074 C2492.28,535.129 2493.32,535.294 2493.76,535.844 C2494.09,536.339 2494.09,536.449 2494.09,539.254 L2494.09,565.434 C2494.09,568.239 2494.09,568.349 2493.76,568.844 C2493.32,569.394 2492.28,569.614 2489.14,569.614 L2488.15,569.614 L2488.15,572.199 L2508.12,572.199 C2517.63,572.199 2523.35,568.184 2523.35,561.419 C2523.35,555.919 2519.89,552.784 2512.35,551.464 C2514.99,550.914 2516.2,550.419 2517.63,549.374 C2519.89,547.669 2521.26,544.974 2521.26,542.224 C2521.26,538.649 2519.06,535.184 2515.87,533.809 C2513.89,532.929 2511.14,532.489 2507.9,532.489 L2488.15,532.489 M2500.25,550.364 L2500.25,537.824 C2500.25,535.679 2500.97,535.129 2503.88,535.074 L2506.08,535.074 C2511.47,535.074 2514.88,536.834 2514.88,542.829 C2514.88,548.274 2512.24,550.364 2505.15,550.364 L2500.25,550.364 M2500.25,552.949 L2505.09,552.949 C2513.51,552.949 2516.59,555.204 2516.59,561.254 C2516.59,568.624 2511.97,569.614 2505.75,569.614 L2503.44,569.614 C2500.69,569.614 2500.14,569.064 2500.25,566.149 L2500.25,552.949 "/>
<path class="Harmony" d="M2532.04,574.729 C2533.69,574.729 2539.9,571.209 2543.37,567.579 C2546.17,564.554 2546.94,560.484 2546.94,557.679 C2546.94,553.279 2544.19,550.144 2539.74,550.144 C2537.37,550.144 2535.28,550.914 2533.52,552.454 L2533.8,529.794 C2533.8,529.079 2533.19,528.529 2532.48,528.529 L2531.65,528.529 C2530.99,528.529 2530.33,529.079 2530.33,529.794 L2530.77,573.464 C2530.77,574.179 2531.32,574.729 2532.04,574.729 M2538.14,554.269 C2541.28,554.269 2541.66,557.514 2541.66,558.779 C2541.66,563.784 2537.54,567.304 2533.85,569.999 C2533.69,570.109 2533.52,570.219 2533.36,570.384 L2533.47,556.799 C2533.58,556.524 2534.02,555.919 2534.84,555.369 C2535.5,554.874 2536.77,554.269 2538.14,554.269"/>
<path class="Harmony" d="M2556.31,546.789 L2558.73,547.174 L2559.72,542.829 C2560.54,539.199 2560.93,538.649 2562.52,538.649 C2562.8,538.649 2563.24,538.649 2563.73,538.704 C2570.5,539.034 2570.5,539.034 2573.03,539.034 C2573.74,539.034 2575.01,539.034 2576.55,538.979 L2572.81,546.514 C2568.74,554.599 2568.24,555.589 2566.87,558.999 C2565.16,563.124 2564.28,566.589 2564.28,568.899 C2564.28,571.429 2565.6,572.969 2567.75,572.969 C2570.39,572.969 2571.43,571.209 2571.38,566.424 C2571.1,558.504 2572.09,554.654 2577.98,541.784 C2578.97,539.639 2580.01,537.439 2581,535.294 L2581,533.699 C2577.7,533.974 2575.94,534.084 2572.53,534.084 C2567.75,534.084 2563.95,533.919 2558.01,533.479 L2556.31,546.789 "/>
<path class="Harmony" d="M491.051,1003.69 L457.996,1003.69 L457.996,1006.27 L458.986,1006.27 C462.121,1006.33 463.166,1006.49 463.606,1007.04 C463.936,1007.54 463.936,1007.65 463.936,1010.45 L463.936,1036.63 C463.936,1039.44 463.936,1039.55 463.606,1040.04 C463.166,1040.59 462.121,1040.81 458.986,1040.81 L457.996,1040.81 L457.996,1043.4 L491.766,1043.4 L492.866,1028.71 L490.446,1028.71 C488.356,1038.5 486.101,1040.59 477.686,1040.81 L474.056,1040.81 C470.756,1040.7 469.931,1040.15 470.096,1038.17 L470.096,1024.15 L471.196,1024.15 C476.861,1023.93 478.896,1025.96 479.116,1032.07 L481.701,1032.07 L481.701,1014.03 L479.116,1014.03 C478.786,1019.42 476.641,1021.56 471.416,1021.56 L470.096,1021.56 L470.096,1009.02 C470.041,1006.71 470.591,1006.33 473.561,1006.27 L476.421,1006.27 C485.441,1006.22 487.696,1008.2 489.456,1017.71 L491.821,1017.71 L491.051,1003.69 "/>
<path class="Harmony" d="M501.934,1045.93 C503.584,1045.93 509.799,1042.41 513.264,1038.78 C516.069,1035.75 516.839,1031.68 516.839,1028.88 C516.839,1024.48 514.089,1021.34 509.634,1021.34 C507.269,1021.34 505.179,1022.11 503.419,1023.65 L503.694,1000.99 C503.694,1000.28 503.089,999.729 502.374,999.729 L501.549,999.729 C500.889,999.729 500.229,1000.28 500.229,1000.99 L500.669,1044.66 C500.669,1045.38 501.219,1045.93 501.934,1045.93 M508.039,1025.47 C511.174,1025.47 511.559,1028.71 511.559,1029.98 C511.559,1034.98 507.434,1038.5 503.749,1041.2 C503.584,1041.31 503.419,1041.42 503.254,1041.58 L503.364,1028 C503.474,1027.72 503.914,1027.12 504.739,1026.57 C505.399,1026.07 506.664,1025.47 508.039,1025.47"/>
<path class="Harmony" d="M756.775,1003.69 L723.72,1003.69 L723.72,1006.27 L724.71,1006.27 C727.845,1006.33 728.89,1006.49 729.33,1007.04 C729.66,1007.54 729.66,1007.65 729.66,1010.45 L729.66,1036.63 C729.66,1039.44 729.66,1039.55 729.33,1040.04 C728.89,1040.59 727.845,1040.81 724.71,1040.81 L723.72,1040.81 L723.72,1043.4 L757.49,1043.4 L758.59,1028.71 L756.17,1028.71 C754.08,1038.5 751.825,1040.59 743.41,1040.81 L739.78,1040.81 C736.48,1040.7 735.655,1040.15 735.82,1038.17 L735.82,1024.15 L736.92,1024.15 C742.585,1023.93 744.62,1025.96 744.84,1032.07 L747.425,1032.07 L747.425,1014.03 L744.84,1014.03 C744.51,1019.42 742.365,1021.56 737.14,1021.56 L735.82,1021.56 L735.82,1009.02 C735.765,1006.71 736.315,1006.33 739.285,1006.27 L742.145,1006.27 C751.165,1006.22 753.42,1008.2 755.18,1017.71 L757.545,1017.71 L756.775,1003.69 "/>
<path class="Harmony" d="M767.659,1045.93 C769.309,1045.93 775.524,1042.41 778.989,1038.78 C781.794,1035.75 782.564,1031.68 782.564,1028.88 C782.564,1024.48 779.814,1021.34 775.359,1021.34 C772.994,1021.34 770.904,1022.11 769.144,1023.65 L769.419,1000.99 C769.419,1000.28 768.814,999.729 768.099,999.729 L767.274,999.729 C766.614,999.729 765.954,1000.28 765.954,1000.99 L766.394,1044.66 C766.394,1045.38 766.944,1045.93 767.659,1045.93 M773.764,1025.47 C776.899,1025.47 777.284,1028.71 777.284,1029.98 C777.284,1034.98 773.159,1038.5 769.474,1041.2 C769.309,1041.31 769.144,1041.42 768.979,1041.58 L769.089,1028 C769.199,1027.72 769.639,1027.12 770.464,1026.57 C771.124,1026.07 772.389,1025.47 773.764,1025.47"/>
<path class="Harmony" d="M2505.52,1003.69 L2472.47,1003.69 L2472.47,1006.27 L2473.46,1006.27 C2476.59,1006.33 2477.64,1006.49 2478.08,1007.04 C2478.41,1007.54 2478.41,1007.65 2478.41,1010.45 L2478.41,1036.63 C2478.41,1039.44 2478.41,1039.55 2478.08,1040.04 C2477.64,1040.59 2476.59,1040.81 2473.46,1040.81 L2472.47,1040.81 L2472.47,1043.4 L2506.24,1043.4 L2507.34,1028.71 L2504.92,1028.71 C2502.83,1038.5 2500.57,1040.59 2492.16,1040.81 L2488.53,1040.81 C2485.23,1040.7 2484.4,1040.15 2484.57,1038.17 L2484.57,1024.15 L2485.67,1024.15 C2491.33,1023.93 2493.37,1025.96 2493.59,1032.07 L2496.17,1032.07 L2496.17,1014.03 L2493.59,1014.03 C2493.26,1019.42 2491.11,1021.56 2485.89,1021.56 L2484.57,1021.56 L2484.57,1009.02 C2484.51,1006.71 2485.06,1006.33 2488.03,1006.27 L2490.89,1006.27 C2499.91,1006.22 2502.17,1008.2 2503.93,1017.71 L2506.29,1017.71 L2505.52,1003.69 "/>
<path class="Harmony" d="M2516.41,1045.93 C2518.06,1045.93 2524.27,1042.41 2527.74,1038.78 C2530.54,1035.75 2531.31,1031.68 2531.31,1028.88 C2531.31,1024.48 2528.56,1021.34 2524.11,1021.34 C2521.74,1021.34 2519.65,1022.11 2517.89,1023.65 L2518.17,1000.99 C2518.17,1000.28 2517.56,999.729 2516.85,999.729 L2516.02,999.729 C2515.36,999.729 2514.7,1000.28 2514.7,1000.99 L2515.14,1044.66 C2515.14,1045.38 2515.69,1045.93 2516.41,1045.93 M2522.51,1025.47 C2525.65,1025.47 2526.03,1028.71 2526.03,1029.98 C2526.03,1034.98 2521.91,1038.5 2518.22,1041.2 C2518.06,1041.31 2517.89,1041.42 2517.73,1041.58 L2517.84,1028 C2517.95,1027.72 2518.39,1027.12 2519.21,1026.57 C2519.87,1026.07 2521.14,1025.47 2522.51,1025.47"/>
<path class="Harmony" d="M1313.1,1002.92 L1310.79,1002.92 L1298.14,1034.98 C1296.65,1039.27 1295.22,1040.59 1292.09,1040.81 L1291.87,1040.81 L1291.87,1043.4 L1306.44,1043.4 L1306.44,1040.81 L1305.34,1040.81 C1302.37,1040.81 1300.89,1039.77 1300.89,1037.68 C1300.89,1036.96 1301.05,1036.3 1301.38,1035.37 L1303.2,1030.53 L1317.77,1030.53 L1320.74,1037.9 C1321.07,1038.78 1321.18,1039.11 1321.18,1039.38 C1321.18,1040.26 1319.81,1040.81 1317.77,1040.81 L1315.46,1040.81 L1315.46,1043.4 L1332.51,1043.4 L1332.51,1040.81 L1331.74,1040.81 C1328.88,1040.76 1328.39,1040.43 1327.12,1037.29 L1313.1,1002.92 M1310.4,1011.94 L1316.62,1027.56 L1304.3,1027.56 L1310.4,1011.94 "/>
<path class="Harmony" d="M1337.84,1045.93 C1339.49,1045.93 1345.71,1042.41 1349.17,1038.78 C1351.98,1035.75 1352.75,1031.68 1352.75,1028.88 C1352.75,1024.48 1350,1021.34 1345.54,1021.34 C1343.18,1021.34 1341.09,1022.11 1339.33,1023.65 L1339.6,1000.99 C1339.6,1000.28 1339,999.729 1338.28,999.729 L1337.46,999.729 C1336.8,999.729 1336.14,1000.28 1336.14,1000.99 L1336.58,1044.66 C1336.58,1045.38 1337.13,1045.93 1337.84,1045.93 M1343.95,1025.47 C1347.08,1025.47 1347.47,1028.71 1347.47,1029.98 C1347.47,1034.98 1343.34,1038.5 1339.66,1041.2 C1339.49,1041.31 1339.33,1041.42 1339.16,1041.58 L1339.27,1028 C1339.38,1027.72 1339.82,1027.12 1340.65,1026.57 C1341.31,1026.07 1342.57,1025.47 1343.95,1025.47"/>
</svg>
