<?xml version="1.0" encoding="UTF-8" standalone="no"?>
<svg width="2977.2px" height="4208.4px" viewBox="0 0 2977.2 4208.4"
 xmlns="http://www.w3.org/2000/svg" xmlns:xlink="http://www.w3.org/1999/xlink" version="1.2" baseProfile="tiny">
<title>メリーさんの羊</title>
<desc>Generated by MuseScore Studio 4.4.1</desc>
<path class="" fill="#ffffff" fill-rule="evenodd" d="M0,0 L2977.2,0 L2977.2,4208.4 L0,4208.4 L0,0 "/>
<polyline class="StaffLines" fill="none" stroke="#000000" stroke-width="2.73" stroke-linejoin="bevel" points="212.598,634.198 2764.6,634.198"/>
<polyline class="StaffLines" fill="none" stroke="#000000" stroke-width="2.73" stroke-linejoin="bevel" points="212.598,658.998 2764.6,658.998"/>
<polyline class="StaffLines" fill="none" stroke="#000000" stroke-width="2.73" stroke-linejoin="bevel" points="212.598,683.798 2764.6,683.798"/>
<polyline class="StaffLines" fill="none" stroke="#000000" stroke-width="2.73" stroke-linejoin="bevel" points="212.598,708.598 2764.6,708.598"/>
<polyline class="StaffLines" fill="none" stroke="#000000" stroke-width="2.73" stroke-linejoin="bevel" points="212.598,733.398 2764.6,733.398"/>
<polyline class="StaffLines" fill="none" stroke="#000000" stroke-width="2.73" stroke-linejoin="bevel" points="212.598,1105.4 2764.6,1105.4"/>
<polyline class="StaffLines" fill="none" stroke="#000000" stroke-width="2.73" stroke-linejoin="bevel" points="212.598,1130.2 2764.6,1130.2"/>
<polyline class="StaffLines" fill="none" stroke="#000000" stroke-width="2.73" stroke-linejoin="bevel" points="212.598,1155 2764.6,1155"/>
<polyline class="StaffLines" fill="none" stroke="#000000" stroke-width="2.73" stroke-linejoin="bevel" points="212.598,1179.8 2764.6,1179.8"/>
<polyline class="StaffLines" fill="none" stroke="#000000" stroke-width="2.73" stroke-linejoin="bevel" points="212.598,1204.6 2764.6,1204.6"/>
<path class="Text" d="M1174.94,219.738 C1174.39,222.928 1173.84,224.688 1171.09,231.398 C1167.24,240.968 1163.28,248.888 1158.11,257.028 C1145.79,248.008 1140.29,244.378 1129.51,237.888 L1124.01,243.718 C1133.25,248.778 1143.59,255.598 1153.6,263.628 C1141.5,279.908 1127.42,291.788 1109.82,300.368 C1112.68,302.678 1113.56,303.668 1115.54,306.968 C1134.79,296.078 1148.21,284.528 1159.76,268.688 C1170.87,278.038 1177.91,285.078 1183.74,292.558 L1189.9,285.738 C1181.1,276.608 1174.06,269.898 1164.6,262.088 C1170.21,253.508 1173.62,246.798 1180.77,229.968 C1182.31,226.338 1182.75,225.348 1184.18,223.258 L1174.94,219.738 M1234.67,220.288 C1235,222.928 1235.11,224.798 1235.11,229.528 L1235.11,258.898 C1235.11,263.298 1235,265.608 1234.67,268.138 L1243.8,268.138 C1243.47,265.498 1243.36,264.288 1243.36,259.008 L1243.36,229.418 C1243.36,224.358 1243.47,222.928 1243.8,220.288 L1234.67,220.288 M1283.29,220.288 C1283.62,222.708 1283.73,224.248 1283.73,229.968 L1283.73,242.398 C1283.73,259.118 1283.4,264.178 1282.19,270.448 C1280.1,280.678 1274.82,287.718 1264.59,293.658 C1258.87,297.068 1253.59,298.938 1243.69,301.138 C1246.44,304.438 1247.1,305.538 1248.31,308.728 C1257.66,305.978 1262.94,303.888 1268.33,300.808 C1279.11,294.758 1286.04,286.728 1289.23,276.388 C1291.21,270.008 1291.98,260.328 1291.98,242.838 L1291.98,229.858 C1291.98,224.578 1292.09,222.818 1292.53,220.288 L1283.29,220.288 M1328.39,267.478 C1331.69,267.148 1334,267.038 1342.03,267.038 L1405.83,267.038 C1413.2,267.038 1415.73,267.148 1419.25,267.478 L1419.25,258.568 C1415.84,259.008 1414.08,259.118 1405.94,259.118 L1342.03,259.118 C1334.55,259.118 1331.58,259.008 1328.39,258.458 L1328.39,267.478 "/>
<path class="Text" d="M1445.43,247.018 C1447.08,246.798 1447.63,246.688 1449.72,246.688 C1464.24,246.468 1477.99,245.368 1488.88,243.828 C1489.54,244.928 1489.54,245.148 1490.75,247.458 C1495.48,256.698 1498.23,261.208 1503.95,269.018 C1499.33,266.598 1490.64,265.058 1481.18,265.058 C1472.27,265.058 1465.67,266.268 1459.84,269.128 C1452.14,272.868 1447.41,279.798 1447.41,287.058 C1447.41,291.458 1449.17,295.748 1452.36,299.158 C1457.42,304.438 1467.54,307.408 1480.96,307.408 C1491.85,307.408 1502.3,305.538 1513.3,301.468 L1512.09,292.998 C1503.84,297.288 1491.74,300.038 1480.85,300.038 C1471.39,300.038 1463.47,298.168 1459.4,294.978 C1456.76,292.778 1455.22,289.808 1455.22,286.398 C1455.22,282.438 1457.53,278.478 1461.16,276.168 C1466.11,273.088 1472.82,271.548 1482.06,271.548 C1489.54,271.548 1495.7,272.538 1501.31,274.408 C1504.39,275.508 1505.93,276.498 1508.9,278.918 L1516.27,274.738 C1508.57,264.508 1500.43,251.308 1496.47,242.728 C1497.57,242.508 1497.57,242.508 1500.21,241.958 C1507.14,240.638 1508.46,240.308 1515.06,238.548 C1518.36,237.668 1519.24,237.448 1521.55,237.008 L1520.45,229.198 C1514.51,231.728 1504.5,234.368 1493.83,236.128 C1492.84,234.038 1492.51,233.488 1489.87,226.448 C1487.12,219.408 1487.12,219.408 1486.68,216.548 L1477.99,217.758 C1478.98,219.738 1479.64,221.278 1480.85,224.138 C1482.83,229.088 1484.59,233.488 1486.24,237.228 C1475.9,238.658 1463.47,239.538 1453.46,239.538 C1449.72,239.538 1447.85,239.428 1444.99,238.988 L1445.43,247.018 M1580.51,217.098 C1579.85,220.398 1577.43,227.328 1565.44,259.118 C1549.6,301.358 1549.6,301.358 1548.17,304.438 L1556.64,307.078 C1558.07,300.478 1563.13,287.938 1566.76,281.778 C1572.92,271.328 1580.07,265.498 1586.45,265.498 C1589.75,265.498 1591.73,266.818 1592.72,269.568 C1593.38,271.328 1593.6,273.418 1593.6,277.928 L1593.6,284.198 C1593.6,290.358 1593.93,293.878 1594.59,296.078 C1596.68,302.348 1602.51,305.978 1610.65,305.978 C1619.67,305.978 1627.48,301.688 1632.54,293.988 C1635.95,288.818 1638.15,283.318 1640.35,274.628 C1637.16,272.758 1635.95,271.768 1633.09,269.018 C1632.43,274.958 1631.22,279.578 1628.91,284.638 C1624.84,293.878 1619.12,298.388 1611.31,298.388 C1607.68,298.388 1604.38,297.068 1602.95,294.978 C1601.63,292.998 1601.19,290.248 1601.19,284.528 L1601.19,277.048 C1601.19,270.778 1600.64,267.258 1599.32,264.618 C1597.34,260.658 1593.05,258.128 1588.32,258.128 C1580.51,258.128 1574.9,262.088 1567.64,272.538 L1567.09,272.318 C1567.53,271.328 1567.64,271.108 1568.08,270.338 C1568.63,269.238 1569.07,268.358 1569.29,267.918 C1573.8,258.458 1573.8,258.458 1577.21,249.768 C1587.99,222.158 1587.99,222.158 1589.42,219.518 L1580.51,217.098 M1709.76,232.278 C1715.26,232.498 1718.45,233.268 1722.52,235.028 C1733.63,239.978 1740.01,250.098 1740.01,262.638 C1740.01,276.168 1732.64,287.938 1720.54,293.438 C1715.37,295.858 1710.2,297.288 1702.17,298.608 C1704.26,301.248 1704.92,302.348 1706.02,305.978 C1713.61,304.328 1717.79,303.008 1722.74,300.918 C1738.69,294.098 1747.93,280.018 1747.93,262.968 C1747.93,252.408 1744.19,242.838 1737.26,236.128 C1730.11,229.088 1719.33,225.238 1707.01,225.238 C1692.27,225.238 1680.28,230.188 1671.48,239.868 C1664.11,248.118 1659.93,259.008 1659.93,270.228 C1659.93,285.628 1667.74,297.068 1678.19,297.068 C1686.11,297.068 1692.6,290.468 1698.98,275.948 C1703.93,264.398 1708.11,247.568 1709.76,232.278 M1701.84,232.388 C1700.41,246.468 1696.34,262.748 1691.83,273.088 C1687.1,283.868 1682.7,289.038 1678.08,289.038 C1672.14,289.038 1667.52,280.898 1667.52,270.338 C1667.52,256.698 1674.34,244.268 1685.45,237.558 C1690.51,234.478 1695.24,232.938 1701.84,232.388"/>
<path class="Text" d="M1808.98,239.428 L1808.98,255.048 L1784.12,255.048 C1779.28,255.048 1776.97,254.938 1774.11,254.498 L1774.11,261.978 C1776.97,261.538 1779.61,261.428 1784.01,261.428 L1808.98,261.428 L1808.98,278.038 L1776.53,278.038 C1771.8,278.038 1768.28,277.818 1765.2,277.378 L1765.2,285.188 C1768.5,284.748 1771.91,284.528 1776.53,284.528 L1808.98,284.528 L1808.98,303.228 C1808.98,308.178 1808.76,310.818 1808.32,313.678 L1817.12,313.678 C1816.57,310.488 1816.35,307.738 1816.35,303.228 L1816.35,284.528 L1851.44,284.528 C1855.95,284.528 1859.58,284.748 1862.77,285.188 L1862.77,277.378 C1859.69,277.818 1856.39,278.038 1851.44,278.038 L1816.35,278.038 L1816.35,261.428 L1843.96,261.428 C1848.47,261.428 1851,261.538 1853.86,261.978 L1853.86,254.498 C1851,254.938 1848.8,255.048 1843.96,255.048 L1816.35,255.048 L1816.35,239.428 L1847.26,239.428 C1851.99,239.428 1855.18,239.648 1858.37,240.088 L1858.37,232.388 C1855.29,232.828 1852.1,233.048 1847.26,233.048 L1828.78,233.048 C1832.85,228.758 1836.7,223.368 1841.43,215.338 L1834.17,212.588 C1830.1,221.498 1827.35,225.678 1821.08,233.048 L1780.71,233.048 C1775.98,233.048 1772.9,232.828 1769.6,232.388 L1769.6,240.088 C1772.9,239.648 1776.09,239.428 1780.71,239.428 L1808.98,239.428 M1785.11,215.778 C1791.27,222.708 1792.81,224.908 1796.88,232.498 L1803.15,229.088 C1798.86,221.828 1796.55,218.858 1791.27,212.808 L1785.11,215.778 "/>
<path class="MeasureNumber" d="M216.922,1040.48 C215.682,1041.24 215.322,1041.72 215.322,1042.52 C215.322,1043.28 215.962,1043.84 216.762,1043.84 C217.802,1043.84 218.402,1043.08 218.522,1041.6 C219.762,1040.6 221.082,1040.16 222.682,1040.16 C225.642,1040.16 227.282,1042 227.282,1045.32 C227.282,1050.52 223.922,1054.76 219.802,1054.76 C217.442,1054.76 215.522,1053.64 215.522,1052.32 C215.522,1052.08 215.562,1052 215.762,1051.88 C217.042,1051.28 218.082,1050.84 218.082,1049.16 C218.082,1047.88 217.082,1046.92 215.682,1046.92 C213.922,1046.92 212.602,1048.4 212.602,1050.32 C212.602,1053.84 215.642,1056.4 219.922,1056.4 C226.402,1056.4 231.642,1051.24 231.642,1044.84 C231.642,1040.8 228.562,1037.96 224.202,1037.96 C222.482,1037.96 221.082,1038.32 219.162,1039.28 L221.402,1031.72 C223.522,1032.16 225.202,1032.36 226.642,1032.36 C229.282,1032.36 231.642,1031.52 232.962,1030.12 C233.642,1029.32 234.042,1028.64 234.042,1028.12 C234.042,1027.88 233.922,1027.64 233.762,1027.64 C233.642,1027.64 233.562,1027.68 233.322,1027.8 C232.002,1028.44 230.322,1028.8 228.762,1028.8 C226.362,1028.8 223.522,1028.4 220.562,1027.64 L216.922,1040.48 "/>
<polyline class="BarLine" fill="none" stroke="#000000" stroke-width="4.46" stroke-linejoin="bevel" points="2762.37,632.834 2762.37,734.762"/>
<polyline class="BarLine" fill="none" stroke="#000000" stroke-width="4.46" stroke-linejoin="bevel" points="2740.42,1104.03 2740.42,1205.96"/>
<polyline class="BarLine" fill="none" stroke="#000000" stroke-width="13.64" stroke-linejoin="bevel" points="2757.78,1104.03 2757.78,1205.96"/>
<polyline class="BarLine" fill="none" stroke="#000000" stroke-width="4.46" stroke-linejoin="bevel" points="1616.35,1104.03 1616.35,1205.96"/>
<polyline class="BarLine" fill="none" stroke="#000000" stroke-width="4.46" stroke-linejoin="bevel" points="964.848,1104.03 964.848,1205.96"/>
<polyline class="BarLine" fill="none" stroke="#000000" stroke-width="4.46" stroke-linejoin="bevel" points="2160,632.834 2160,734.762"/>
<polyline class="BarLine" fill="none" stroke="#000000" stroke-width="4.46" stroke-linejoin="bevel" points="2257.76,1104.03 2257.76,1205.96"/>
<polyline class="BarLine" fill="none" stroke="#000000" stroke-width="4.46" stroke-linejoin="bevel" points="955.258,632.834 955.258,734.762"/>
<polyline class="BarLine" fill="none" stroke="#000000" stroke-width="4.46" stroke-linejoin="bevel" points="1557.63,632.834 1557.63,734.762"/>
<polyline class="LedgerLine" fill="none" stroke="#000000" stroke-width="3.97" stroke-linejoin="bevel" points="2283.55,1229.4 2333.13,1229.4"/>
<polyline class="LedgerLine" fill="none" stroke="#000000" stroke-width="3.97" stroke-linejoin="bevel" points="646.537,1229.4 696.122,1229.4"/>
<polyline class="LedgerLine" fill="none" stroke="#000000" stroke-width="3.97" stroke-linejoin="bevel" points="661.513,758.198 711.097,758.198"/>
<polyline class="Stem" fill="none" stroke="#000000" stroke-width="2.73" stroke-linejoin="bevel" points="1681.68,1213.03 1681.68,1130.2"/>
<polyline class="Stem" fill="none" stroke="#000000" stroke-width="2.73" stroke-linejoin="bevel" points="2183.92,1213.03 2183.92,1130.4"/>
<polyline class="Stem" fill="none" stroke="#000000" stroke-width="2.73" stroke-linejoin="bevel" points="427.506,729.43 427.506,646.598"/>
<polyline class="Stem" fill="none" stroke="#000000" stroke-width="2.73" stroke-linejoin="bevel" points="1303.42,729.43 1303.42,646.598"/>
<polyline class="Stem" fill="none" stroke="#000000" stroke-width="2.73" stroke-linejoin="bevel" points="1835.38,1213.03 1835.38,1130.2"/>
<polyline class="Stem" fill="none" stroke="#000000" stroke-width="2.73" stroke-linejoin="bevel" points="1337.58,1200.63 1337.58,1117.8"/>
<polyline class="Stem" fill="none" stroke="#000000" stroke-width="2.73" stroke-linejoin="bevel" points="1020.59,729.43 1020.59,646.598"/>
<polyline class="Stem" fill="none" stroke="#000000" stroke-width="2.73" stroke-linejoin="bevel" points="1183.88,1200.63 1183.88,1117.8"/>
<polyline class="Stem" fill="none" stroke="#000000" stroke-width="2.73" stroke-linejoin="bevel" points="1622.96,741.83 1622.96,658.998"/>
<polyline class="Stem" fill="none" stroke="#000000" stroke-width="2.73" stroke-linejoin="bevel" points="1030.18,1200.63 1030.18,1117.8"/>
<polyline class="Stem" fill="none" stroke="#000000" stroke-width="2.73" stroke-linejoin="bevel" points="1764.38,741.83 1764.38,658.998"/>
<polyline class="Stem" fill="none" stroke="#000000" stroke-width="2.73" stroke-linejoin="bevel" points="2323.09,1225.43 2323.09,1142.6"/>
<polyline class="Stem" fill="none" stroke="#000000" stroke-width="2.73" stroke-linejoin="bevel" points="1905.79,741.83 1905.79,658.998"/>
<polyline class="Stem" fill="none" stroke="#000000" stroke-width="2.73" stroke-linejoin="bevel" points="839.777,1213.03 839.777,1130.2"/>
<polyline class="Stem" fill="none" stroke="#000000" stroke-width="2.73" stroke-linejoin="bevel" points="842.47,741.83 842.47,658.998"/>
<polyline class="Stem" fill="none" stroke="#000000" stroke-width="2.73" stroke-linejoin="bevel" points="686.078,1225.43 686.078,1142.6"/>
<polyline class="Stem" fill="none" stroke="#000000" stroke-width="2.73" stroke-linejoin="bevel" points="583.612,1213.03 583.612,1130.4"/>
<polyline class="Stem" fill="none" stroke="#000000" stroke-width="2.73" stroke-linejoin="bevel" points="701.053,754.23 701.053,671.398"/>
<polyline class="Stem" fill="none" stroke="#000000" stroke-width="2.73" stroke-linejoin="bevel" points="2225.33,729.43 2225.33,646.598"/>
<polyline class="Stem" fill="none" stroke="#000000" stroke-width="2.73" stroke-linejoin="bevel" points="388.771,1200.63 388.771,1117.8"/>
<polyline class="Stem" fill="none" stroke="#000000" stroke-width="2.73" stroke-linejoin="bevel" points="2366.75,704.63 2366.75,621.798"/>
<polyline class="Stem" fill="none" stroke="#000000" stroke-width="2.73" stroke-linejoin="bevel" points="1989.08,1200.63 1989.08,1117.8"/>
<polyline class="Stem" fill="none" stroke="#000000" stroke-width="2.73" stroke-linejoin="bevel" points="2508.16,704.63 2508.16,621.798"/>
<polyline class="Stem" fill="none" stroke="#000000" stroke-width="2.73" stroke-linejoin="bevel" points="1162.01,729.43 1162.01,646.598"/>
<polyline class="Stem" fill="none" stroke="#000000" stroke-width="2.73" stroke-linejoin="bevel" points="606.776,741.83 606.776,659.197"/>
<path class="Hook" transform="matrix(0.992,0,0,0.992,2182.56,1130.2)" d="M0,22.7 C0,23 0.1,23.6 0.8,23.8 C5.1,25.2 13.7,30.6 20.2,41.7 C22,44.8 24.9,49.1 24.9,57.4 C24.9,64.6 23.1,72 20.4,79.2 C20.2,79.8 20.1,80.3 20.1,80.7 C20.1,81.4 20.5,81.7 21.2,81.7 C21.8,81.7 22.3,81.3 22.7,80.6 C27.2,72.6 28.9,63.3 28.9,54.2 C28.4,41.3 21,31.8 21,31.8 C21.3,31.8 11.8,19.5 9.1,15.3 C5.4,9.6 3.7,3.9 3.5,3.5 C3.4,3.2 2.5,-0.4 2.5,-0.4 C2.4,-0.8 1.9,-1.2 1.3,-1.2 C0.6,-1.2 0,-0.6 0,0.1 L0,22.7 "/>
<path class="Hook" transform="matrix(0.992,0,0,0.992,582.248,1130.2)" d="M0,22.7 C0,23 0.1,23.6 0.8,23.8 C5.1,25.2 13.7,30.6 20.2,41.7 C22,44.8 24.9,49.1 24.9,57.4 C24.9,64.6 23.1,72 20.4,79.2 C20.2,79.8 20.1,80.3 20.1,80.7 C20.1,81.4 20.5,81.7 21.2,81.7 C21.8,81.7 22.3,81.3 22.7,80.6 C27.2,72.6 28.9,63.3 28.9,54.2 C28.4,41.3 21,31.8 21,31.8 C21.3,31.8 11.8,19.5 9.1,15.3 C5.4,9.6 3.7,3.9 3.5,3.5 C3.4,3.2 2.5,-0.4 2.5,-0.4 C2.4,-0.8 1.9,-1.2 1.3,-1.2 C0.6,-1.2 0,-0.6 0,0.1 L0,22.7 "/>
<path class="Hook" transform="matrix(0.992,0,0,0.992,605.412,658.998)" d="M0,22.7 C0,23 0.1,23.6 0.8,23.8 C5.1,25.2 13.7,30.6 20.2,41.7 C22,44.8 24.9,49.1 24.9,57.4 C24.9,64.6 23.1,72 20.4,79.2 C20.2,79.8 20.1,80.3 20.1,80.7 C20.1,81.4 20.5,81.7 21.2,81.7 C21.8,81.7 22.3,81.3 22.7,80.6 C27.2,72.6 28.9,63.3 28.9,54.2 C28.4,41.3 21,31.8 21,31.8 C21.3,31.8 11.8,19.5 9.1,15.3 C5.4,9.6 3.7,3.9 3.5,3.5 C3.4,3.2 2.5,-0.4 2.5,-0.4 C2.4,-0.8 1.9,-1.2 1.3,-1.2 C0.6,-1.2 0,-0.6 0,0.1 L0,22.7 "/>
<path class="Note" transform="matrix(0.992,0,0,0.992,575.915,745.798)" d="M0,4.2 C0,8.5 3.1,13.3 11.2,13.3 C21.6,13.3 32.5,4.8 32.5,-4 C32.5,-9.9 27.5,-13.2 21.3,-13.2 C11.6,-13.2 0,-5 0,4.2"/>
<path class="Note" transform="matrix(0.992,0,0,0.992,1650.82,1217)" d="M0,4.2 C0,8.5 3.1,13.3 11.2,13.3 C21.6,13.3 32.5,4.8 32.5,-4 C32.5,-9.9 27.5,-13.2 21.3,-13.2 C11.6,-13.2 0,-5 0,4.2"/>
<path class="Note" transform="matrix(0.992,0,0,0.992,2194.47,733.398)" d="M0,4.2 C0,8.5 3.1,13.3 11.2,13.3 C21.6,13.3 32.5,4.8 32.5,-4 C32.5,-9.9 27.5,-13.2 21.3,-13.2 C11.6,-13.2 0,-5 0,4.2"/>
<path class="Note" transform="matrix(0.992,0,0,0.992,357.911,1204.6)" d="M0,4.2 C0,8.5 3.1,13.3 11.2,13.3 C21.6,13.3 32.5,4.8 32.5,-4 C32.5,-9.9 27.5,-13.2 21.3,-13.2 C11.6,-13.2 0,-5 0,4.2"/>
<path class="Note" transform="matrix(0.992,0,0,0.992,1804.52,1217)" d="M0,4.2 C0,8.5 3.1,13.3 11.2,13.3 C21.6,13.3 32.5,4.8 32.5,-4 C32.5,-9.9 27.5,-13.2 21.3,-13.2 C11.6,-13.2 0,-5 0,4.2"/>
<path class="Note" transform="matrix(0.992,0,0,0.992,1958.22,1204.6)" d="M0,4.2 C0,8.5 3.1,13.3 11.2,13.3 C21.6,13.3 32.5,4.8 32.5,-4 C32.5,-9.9 27.5,-13.2 21.3,-13.2 C11.6,-13.2 0,-5 0,4.2"/>
<path class="Note" transform="matrix(0.992,0,0,0.992,2153.06,1217)" d="M0,4.2 C0,8.5 3.1,13.3 11.2,13.3 C21.6,13.3 32.5,4.8 32.5,-4 C32.5,-9.9 27.5,-13.2 21.3,-13.2 C11.6,-13.2 0,-5 0,4.2"/>
<path class="Note" transform="matrix(0.992,0,0,0.992,552.751,1217)" d="M0,4.2 C0,8.5 3.1,13.3 11.2,13.3 C21.6,13.3 32.5,4.8 32.5,-4 C32.5,-9.9 27.5,-13.2 21.3,-13.2 C11.6,-13.2 0,-5 0,4.2"/>
<path class="Note" transform="matrix(0.992,0,0,0.992,670.193,758.198)" d="M0,4.2 C0,8.5 3.1,13.3 11.2,13.3 C21.6,13.3 32.5,4.8 32.5,-4 C32.5,-9.9 27.5,-13.2 21.3,-13.2 C11.6,-13.2 0,-5 0,4.2"/>
<path class="Note" transform="matrix(0.992,0,0,0.992,2477.3,708.598)" d="M0,4.2 C0,8.5 3.1,13.3 11.2,13.3 C21.6,13.3 32.5,4.8 32.5,-4 C32.5,-9.9 27.5,-13.2 21.3,-13.2 C11.6,-13.2 0,-5 0,4.2"/>
<path class="Note" transform="matrix(0.992,0,0,0.992,655.217,1229.4)" d="M0,4.2 C0,8.5 3.1,13.3 11.2,13.3 C21.6,13.3 32.5,4.8 32.5,-4 C32.5,-9.9 27.5,-13.2 21.3,-13.2 C11.6,-13.2 0,-5 0,4.2"/>
<path class="Note" transform="matrix(0.992,0,0,0.992,1874.93,745.798)" d="M0,4.2 C0,8.5 3.1,13.3 11.2,13.3 C21.6,13.3 32.5,4.8 32.5,-4 C32.5,-9.9 27.5,-13.2 21.3,-13.2 C11.6,-13.2 0,-5 0,4.2"/>
<path class="Note" transform="matrix(0.992,0,0,0.992,808.917,1217)" d="M0,4.2 C0,8.5 3.1,13.3 11.2,13.3 C21.6,13.3 32.5,4.8 32.5,-4 C32.5,-9.9 27.5,-13.2 21.3,-13.2 C11.6,-13.2 0,-5 0,4.2"/>
<path class="Note" transform="matrix(0.992,0,0,0.992,1733.52,745.798)" d="M0,4.2 C0,8.5 3.1,13.3 11.2,13.3 C21.6,13.3 32.5,4.8 32.5,-4 C32.5,-9.9 27.5,-13.2 21.3,-13.2 C11.6,-13.2 0,-5 0,4.2"/>
<path class="Note" transform="matrix(0.992,0,0,0.992,396.645,733.398)" d="M0,4.2 C0,8.5 3.1,13.3 11.2,13.3 C21.6,13.3 32.5,4.8 32.5,-4 C32.5,-9.9 27.5,-13.2 21.3,-13.2 C11.6,-13.2 0,-5 0,4.2"/>
<path class="Note" transform="matrix(0.992,0,0,0.992,1592.1,745.798)" d="M0,4.2 C0,8.5 3.1,13.3 11.2,13.3 C21.6,13.3 32.5,4.8 32.5,-4 C32.5,-9.9 27.5,-13.2 21.3,-13.2 C11.6,-13.2 0,-5 0,4.2"/>
<path class="Note" transform="matrix(0.992,0,0,0.992,999.32,1204.6)" d="M0,4.2 C0,8.5 3.1,13.3 11.2,13.3 C21.6,13.3 32.5,4.8 32.5,-4 C32.5,-9.9 27.5,-13.2 21.3,-13.2 C11.6,-13.2 0,-5 0,4.2"/>
<path class="Note" transform="matrix(0.992,0,0,0.992,811.61,745.798)" d="M0,4.2 C0,8.5 3.1,13.3 11.2,13.3 C21.6,13.3 32.5,4.8 32.5,-4 C32.5,-9.9 27.5,-13.2 21.3,-13.2 C11.6,-13.2 0,-5 0,4.2"/>
<path class="Note" transform="matrix(0.992,0,0,0.992,1153.02,1204.6)" d="M0,4.2 C0,8.5 3.1,13.3 11.2,13.3 C21.6,13.3 32.5,4.8 32.5,-4 C32.5,-9.9 27.5,-13.2 21.3,-13.2 C11.6,-13.2 0,-5 0,4.2"/>
<path class="Note" transform="matrix(0.992,0,0,0.992,989.73,733.398)" d="M0,4.2 C0,8.5 3.1,13.3 11.2,13.3 C21.6,13.3 32.5,4.8 32.5,-4 C32.5,-9.9 27.5,-13.2 21.3,-13.2 C11.6,-13.2 0,-5 0,4.2"/>
<path class="Note" transform="matrix(0.992,0,0,0.992,1306.72,1204.6)" d="M0,4.2 C0,8.5 3.1,13.3 11.2,13.3 C21.6,13.3 32.5,4.8 32.5,-4 C32.5,-9.9 27.5,-13.2 21.3,-13.2 C11.6,-13.2 0,-5 0,4.2"/>
<path class="Note" transform="matrix(0.992,0,0,0.992,1272.56,733.398)" d="M0,4.2 C0,8.5 3.1,13.3 11.2,13.3 C21.6,13.3 32.5,4.8 32.5,-4 C32.5,-9.9 27.5,-13.2 21.3,-13.2 C11.6,-13.2 0,-5 0,4.2"/>
<path class="Note" transform="matrix(0.992,0,0,0.992,1131.15,733.398)" d="M0,4.2 C0,8.5 3.1,13.3 11.2,13.3 C21.6,13.3 32.5,4.8 32.5,-4 C32.5,-9.9 27.5,-13.2 21.3,-13.2 C11.6,-13.2 0,-5 0,4.2"/>
<path class="Note" transform="matrix(0.992,0,0,0.992,2292.23,1229.4)" d="M21.3,-13.2 C11.6,-13.2 0,-5.1 0,4.2 C0,8.5 3.1,13.3 11.2,13.3 C21.6,13.3 32.5,4.8 32.5,-4 C32.5,-9.9 27.5,-13.2 21.3,-13.2 M7.5,8.6 C4.2,8.6 3.5,5.9 3.5,5 C3.5,0.1 20.3,-8.5 25,-8.5 C27.4,-8.5 29,-7.1 29,-4.9 C29,0.1 12.1,8.6 7.5,8.6"/>
<path class="Note" transform="matrix(0.992,0,0,0.992,2335.89,708.598)" d="M0,4.2 C0,8.5 3.1,13.3 11.2,13.3 C21.6,13.3 32.5,4.8 32.5,-4 C32.5,-9.9 27.5,-13.2 21.3,-13.2 C11.6,-13.2 0,-5 0,4.2"/>
<path class="Clef" transform="matrix(0.992,0,0,0.992,232.438,708.598)" d="M12.3,51.3 C12.3,57.9 17.3,66.6 30.8,66.6 C35.5,66.6 39.6,65.4 43.2,63.2 C48.6,59.4 50,52.8 50,46.5 C50,42.6 49.4,38.1 48.4,32.4 C48.1,30.4 47.5,27.4 46.9,23.5 C56.7,20.3 64,10.1 64,-0.2 C64,-15.3 53.3,-25.5 38.7,-25.5 C37.7,-31.5 36.7,-37.4 35.9,-43 C46.4,-54.1 53.7,-66.6 53.7,-82.5 C53.7,-91.6 50.9,-99 49.3,-102.6 C46.9,-107.7 44,-111.2 42.2,-111.2 C41.5,-111.2 38.4,-110 35.1,-106.1 C28.7,-98.5 26.9,-85.7 26.9,-77.3 C26.9,-71.9 27.4,-67 29.1,-55.8 C29,-55.7 23.8,-50.4 21.7,-48.7 C12.6,-40.3 0,-28.1 0,-8.1 C0,10.6 16.3,25.3 34.9,25.3 C37.8,25.3 40.5,25 42.8,24.6 C44.7,34.2 45.9,41.2 45.9,46.5 C45.9,56.9 40.5,62.4 30.4,62.4 C28,62.4 25.9,61.9 25.7,61.9 C25.6,61.8 25.4,61.7 25.4,61.6 C25.4,61.4 25.6,61.3 25.9,61.3 C30.6,60.5 35.3,56.5 35.3,50.1 C35.3,44.7 31.2,39 23.7,39 C16.7,39 12.3,44.7 12.3,51.3 M33.2,-82.2 C34.1,-86.2 38.7,-96.7 43.9,-96.7 C45.4,-96.7 47.8,-91.9 47.8,-84.9 C47.8,-74.5 40.1,-66.7 33.2,-59.9 C32.6,-63.9 32.1,-67.8 32.1,-72 C32.1,-75.7 32.4,-79.1 33.2,-82.2 M42,20.6 C40,21 38.1,21.2 36.2,21.2 C21.9,21.2 9.7,11.2 9.7,-3.9 C9.7,-16.1 18.3,-27 27.1,-34.6 C28.8,-36.1 30.4,-37.5 31.9,-39 C32.8,-33.6 33.5,-28.9 34.2,-24.8 C25.1,-22.1 18.9,-12.5 18.9,-3.1 C18.9,3.9 24.4,13.5 32.4,13.5 C33.2,13.5 34.1,13.1 34.1,12.2 C34.1,11.3 33.1,10.8 31.9,10 C28,7.6 25.8,5 25.8,0.1 C25.8,-6 30.4,-10.9 36.2,-12.3 L42,20.6 M56.2,2.1 C56.2,9.2 53.3,16.5 46.2,19.4 C44.1,7.4 41.4,-8.5 40.7,-12.9 C49.7,-12.9 56.2,-6.8 56.2,2.1"/>
<path class="Clef" transform="matrix(0.992,0,0,0.992,232.438,1179.8)" d="M12.3,51.3 C12.3,57.9 17.3,66.6 30.8,66.6 C35.5,66.6 39.6,65.4 43.2,63.2 C48.6,59.4 50,52.8 50,46.5 C50,42.6 49.4,38.1 48.4,32.4 C48.1,30.4 47.5,27.4 46.9,23.5 C56.7,20.3 64,10.1 64,-0.2 C64,-15.3 53.3,-25.5 38.7,-25.5 C37.7,-31.5 36.7,-37.4 35.9,-43 C46.4,-54.1 53.7,-66.6 53.7,-82.5 C53.7,-91.6 50.9,-99 49.3,-102.6 C46.9,-107.7 44,-111.2 42.2,-111.2 C41.5,-111.2 38.4,-110 35.1,-106.1 C28.7,-98.5 26.9,-85.7 26.9,-77.3 C26.9,-71.9 27.4,-67 29.1,-55.8 C29,-55.7 23.8,-50.4 21.7,-48.7 C12.6,-40.3 0,-28.1 0,-8.1 C0,10.6 16.3,25.3 34.9,25.3 C37.8,25.3 40.5,25 42.8,24.6 C44.7,34.2 45.9,41.2 45.9,46.5 C45.9,56.9 40.5,62.4 30.4,62.4 C28,62.4 25.9,61.9 25.7,61.9 C25.6,61.8 25.4,61.7 25.4,61.6 C25.4,61.4 25.6,61.3 25.9,61.3 C30.6,60.5 35.3,56.5 35.3,50.1 C35.3,44.7 31.2,39 23.7,39 C16.7,39 12.3,44.7 12.3,51.3 M33.2,-82.2 C34.1,-86.2 38.7,-96.7 43.9,-96.7 C45.4,-96.7 47.8,-91.9 47.8,-84.9 C47.8,-74.5 40.1,-66.7 33.2,-59.9 C32.6,-63.9 32.1,-67.8 32.1,-72 C32.1,-75.7 32.4,-79.1 33.2,-82.2 M42,20.6 C40,21 38.1,21.2 36.2,21.2 C21.9,21.2 9.7,11.2 9.7,-3.9 C9.7,-16.1 18.3,-27 27.1,-34.6 C28.8,-36.1 30.4,-37.5 31.9,-39 C32.8,-33.6 33.5,-28.9 34.2,-24.8 C25.1,-22.1 18.9,-12.5 18.9,-3.1 C18.9,3.9 24.4,13.5 32.4,13.5 C33.2,13.5 34.1,13.1 34.1,12.2 C34.1,11.3 33.1,10.8 31.9,10 C28,7.6 25.8,5 25.8,0.1 C25.8,-6 30.4,-10.9 36.2,-12.3 L42,20.6 M56.2,2.1 C56.2,9.2 53.3,16.5 46.2,19.4 C44.1,7.4 41.4,-8.5 40.7,-12.9 C49.7,-12.9 56.2,-6.8 56.2,2.1"/>
<path class="TimeSig" transform="matrix(0.992,0,0,0.992,319.331,658.998)" d="M20.8,12.7 L20.8,20.1 L12.5,20.1 C11.8,20.1 11.1,20.7 11.1,21.5 L11.1,23.4 C11.1,24.2 11.8,24.8 12.5,24.8 L42.8,24.8 C43.6,24.8 44.2,24.2 44.2,23.4 L44.2,21.5 C44.2,20.7 43.6,20.1 42.8,20.1 L33.9,20.1 L33.9,12.7 L42.8,12.7 C43.6,12.7 44.2,12 44.2,11.2 L44.2,9.3 C44.2,8.6 43.6,7.9 42.8,7.9 L33.9,7.9 L33.9,-8 C33.9,-8.6 33.6,-9.1 33.1,-9.3 L31.9,-9.9 C31.7,-10 31.4,-10.1 31.2,-10.1 C30.9,-10 30.5,-9.9 30.3,-9.7 L21.2,-1.4 C20.9,-1.1 20.8,-0.7 20.8,-0.3 L20.8,7.9 L9.3,7.9 C9.3,7.9 20.4,-4.1 32.2,-19.9 C32.6,-20.4 32.7,-20.9 32.7,-21.3 C32.7,-21.8 32.5,-22.2 32.4,-22.3 L30.2,-24.5 C30,-24.7 29.6,-24.9 29.2,-24.9 C28.6,-24.9 15.1,-24.9 14.4,-24.9 C13.6,-24.9 13.1,-24.3 13,-23.7 C13,-23.7 12.5,-16.3 9.9,-8.2 C7.3,-0.1 4.3,4.9 1.7,8.6 C1.7,8.6 1.4,9.1 1.4,9.7 C1.4,9.9 1.4,10.1 1.5,10.3 C1.9,11 2.5,12.1 2.5,12.1 C2.5,12.1 2.7,12.7 3.6,12.7 L20.8,12.7 "/>
<path class="TimeSig" transform="matrix(0.992,0,0,0.992,319.331,708.598)" d="M20.8,12.7 L20.8,20.1 L12.5,20.1 C11.8,20.1 11.1,20.7 11.1,21.5 L11.1,23.4 C11.1,24.2 11.8,24.8 12.5,24.8 L42.8,24.8 C43.6,24.8 44.2,24.2 44.2,23.4 L44.2,21.5 C44.2,20.7 43.6,20.1 42.8,20.1 L33.9,20.1 L33.9,12.7 L42.8,12.7 C43.6,12.7 44.2,12 44.2,11.2 L44.2,9.3 C44.2,8.6 43.6,7.9 42.8,7.9 L33.9,7.9 L33.9,-8 C33.9,-8.6 33.6,-9.1 33.1,-9.3 L31.9,-9.9 C31.7,-10 31.4,-10.1 31.2,-10.1 C30.9,-10 30.5,-9.9 30.3,-9.7 L21.2,-1.4 C20.9,-1.1 20.8,-0.7 20.8,-0.3 L20.8,7.9 L9.3,7.9 C9.3,7.9 20.4,-4.1 32.2,-19.9 C32.6,-20.4 32.7,-20.9 32.7,-21.3 C32.7,-21.8 32.5,-22.2 32.4,-22.3 L30.2,-24.5 C30,-24.7 29.6,-24.9 29.2,-24.9 C28.6,-24.9 15.1,-24.9 14.4,-24.9 C13.6,-24.9 13.1,-24.3 13,-23.7 C13,-23.7 12.5,-16.3 9.9,-8.2 C7.3,-0.1 4.3,4.9 1.7,8.6 C1.7,8.6 1.4,9.1 1.4,9.7 C1.4,9.9 1.4,10.1 1.5,10.3 C1.9,11 2.5,12.1 2.5,12.1 C2.5,12.1 2.7,12.7 3.6,12.7 L20.8,12.7 "/>
<path class="Rest" transform="matrix(0.992,0,0,0.992,1460.42,1155)" d="M23,16.6 C22.9,16.5 22.7,16.3 22.4,15.9 L10.9,1.7 C10.8,1.6 10.7,1.3 10.7,1.1 C10.7,0.8 10.8,0.4 10.9,0.2 L21.1,-15.2 C21.2,-15.4 21.3,-15.7 21.3,-15.9 L21.3,-16.8 C21.3,-17.1 21.2,-17.4 21,-17.6 L4.8,-39.5 C4.8,-39.5 4.4,-40.1 3.8,-40.1 C3.5,-40.1 3.3,-40.1 3,-39.8 C2.6,-39.5 2.5,-39.1 2.5,-38.8 C2.5,-38.2 2.8,-37.7 2.8,-37.7 L10.4,-27.3 C10.6,-27 10.7,-26.6 10.7,-26.1 C10.7,-25.7 10.6,-25.2 10.4,-24.9 L0.3,-9.5 C0.2,-9.3 0.1,-8.9 0.1,-8.7 L0.1,-7.8 C0.1,-7.5 0.2,-7.2 0.4,-7 L11.6,6.9 C11.2,6.8 10.3,6.6 9.1,6.6 C4,6.6 0,10.8 0,15.9 C0,17.3 0.3,18.7 1.1,19.8 C3.2,23 10.7,32.5 10.7,32.5 C10.7,32.5 11.2,33.1 11.9,33.1 C12.1,33.1 12.3,33.1 12.5,32.9 C13,32.5 13.2,32.1 13.2,31.7 C13.2,31.3 13,31 12.9,30.8 C12.6,30.3 9.4,24.5 9.4,24.5 C9.4,24.5 8.7,23.1 8.7,21.3 C8.7,18.1 11.1,15.5 14.3,15.5 C15.6,15.5 16.7,15.9 17.5,16.4 L21.4,18.9 C21.4,18.9 21.8,19.1 22.2,19.1 C22.6,19.1 22.9,19 23.2,18.6 C23.4,18.3 23.5,18 23.5,17.7 C23.5,17.4 23.4,17.2 23.2,16.9 L23,16.6 "/>
<path class="Rest" transform="matrix(0.992,0,0,0.992,2618.72,683.798)" d="M23,16.6 C22.9,16.5 22.7,16.3 22.4,15.9 L10.9,1.7 C10.8,1.6 10.7,1.3 10.7,1.1 C10.7,0.8 10.8,0.4 10.9,0.2 L21.1,-15.2 C21.2,-15.4 21.3,-15.7 21.3,-15.9 L21.3,-16.8 C21.3,-17.1 21.2,-17.4 21,-17.6 L4.8,-39.5 C4.8,-39.5 4.4,-40.1 3.8,-40.1 C3.5,-40.1 3.3,-40.1 3,-39.8 C2.6,-39.5 2.5,-39.1 2.5,-38.8 C2.5,-38.2 2.8,-37.7 2.8,-37.7 L10.4,-27.3 C10.6,-27 10.7,-26.6 10.7,-26.1 C10.7,-25.7 10.6,-25.2 10.4,-24.9 L0.3,-9.5 C0.2,-9.3 0.1,-8.9 0.1,-8.7 L0.1,-7.8 C0.1,-7.5 0.2,-7.2 0.4,-7 L11.6,6.9 C11.2,6.8 10.3,6.6 9.1,6.6 C4,6.6 0,10.8 0,15.9 C0,17.3 0.3,18.7 1.1,19.8 C3.2,23 10.7,32.5 10.7,32.5 C10.7,32.5 11.2,33.1 11.9,33.1 C12.1,33.1 12.3,33.1 12.5,32.9 C13,32.5 13.2,32.1 13.2,31.7 C13.2,31.3 13,31 12.9,30.8 C12.6,30.3 9.4,24.5 9.4,24.5 C9.4,24.5 8.7,23.1 8.7,21.3 C8.7,18.1 11.1,15.5 14.3,15.5 C15.6,15.5 16.7,15.9 17.5,16.4 L21.4,18.9 C21.4,18.9 21.8,19.1 22.2,19.1 C22.6,19.1 22.9,19 23.2,18.6 C23.4,18.3 23.5,18 23.5,17.7 C23.5,17.4 23.4,17.2 23.2,16.9 L23,16.6 "/>
<path class="Rest" transform="matrix(0.992,0,0,0.992,2016.35,683.798)" d="M23,16.6 C22.9,16.5 22.7,16.3 22.4,15.9 L10.9,1.7 C10.8,1.6 10.7,1.3 10.7,1.1 C10.7,0.8 10.8,0.4 10.9,0.2 L21.1,-15.2 C21.2,-15.4 21.3,-15.7 21.3,-15.9 L21.3,-16.8 C21.3,-17.1 21.2,-17.4 21,-17.6 L4.8,-39.5 C4.8,-39.5 4.4,-40.1 3.8,-40.1 C3.5,-40.1 3.3,-40.1 3,-39.8 C2.6,-39.5 2.5,-39.1 2.5,-38.8 C2.5,-38.2 2.8,-37.7 2.8,-37.7 L10.4,-27.3 C10.6,-27 10.7,-26.6 10.7,-26.1 C10.7,-25.7 10.6,-25.2 10.4,-24.9 L0.3,-9.5 C0.2,-9.3 0.1,-8.9 0.1,-8.7 L0.1,-7.8 C0.1,-7.5 0.2,-7.2 0.4,-7 L11.6,6.9 C11.2,6.8 10.3,6.6 9.1,6.6 C4,6.6 0,10.8 0,15.9 C0,17.3 0.3,18.7 1.1,19.8 C3.2,23 10.7,32.5 10.7,32.5 C10.7,32.5 11.2,33.1 11.9,33.1 C12.1,33.1 12.3,33.1 12.5,32.9 C13,32.5 13.2,32.1 13.2,31.7 C13.2,31.3 13,31 12.9,30.8 C12.6,30.3 9.4,24.5 9.4,24.5 C9.4,24.5 8.7,23.1 8.7,21.3 C8.7,18.1 11.1,15.5 14.3,15.5 C15.6,15.5 16.7,15.9 17.5,16.4 L21.4,18.9 C21.4,18.9 21.8,19.1 22.2,19.1 C22.6,19.1 22.9,19 23.2,18.6 C23.4,18.3 23.5,18 23.5,17.7 C23.5,17.4 23.4,17.2 23.2,16.9 L23,16.6 "/>
<path class="Rest" transform="matrix(0.992,0,0,0.992,1413.98,683.798)" d="M23,16.6 C22.9,16.5 22.7,16.3 22.4,15.9 L10.9,1.7 C10.8,1.6 10.7,1.3 10.7,1.1 C10.7,0.8 10.8,0.4 10.9,0.2 L21.1,-15.2 C21.2,-15.4 21.3,-15.7 21.3,-15.9 L21.3,-16.8 C21.3,-17.1 21.2,-17.4 21,-17.6 L4.8,-39.5 C4.8,-39.5 4.4,-40.1 3.8,-40.1 C3.5,-40.1 3.3,-40.1 3,-39.8 C2.6,-39.5 2.5,-39.1 2.5,-38.8 C2.5,-38.2 2.8,-37.7 2.8,-37.7 L10.4,-27.3 C10.6,-27 10.7,-26.6 10.7,-26.1 C10.7,-25.7 10.6,-25.2 10.4,-24.9 L0.3,-9.5 C0.2,-9.3 0.1,-8.9 0.1,-8.7 L0.1,-7.8 C0.1,-7.5 0.2,-7.2 0.4,-7 L11.6,6.9 C11.2,6.8 10.3,6.6 9.1,6.6 C4,6.6 0,10.8 0,15.9 C0,17.3 0.3,18.7 1.1,19.8 C3.2,23 10.7,32.5 10.7,32.5 C10.7,32.5 11.2,33.1 11.9,33.1 C12.1,33.1 12.3,33.1 12.5,32.9 C13,32.5 13.2,32.1 13.2,31.7 C13.2,31.3 13,31 12.9,30.8 C12.6,30.3 9.4,24.5 9.4,24.5 C9.4,24.5 8.7,23.1 8.7,21.3 C8.7,18.1 11.1,15.5 14.3,15.5 C15.6,15.5 16.7,15.9 17.5,16.4 L21.4,18.9 C21.4,18.9 21.8,19.1 22.2,19.1 C22.6,19.1 22.9,19 23.2,18.6 C23.4,18.3 23.5,18 23.5,17.7 C23.5,17.4 23.4,17.2 23.2,16.9 L23,16.6 "/>
<path class="Rest" transform="matrix(0.992,0,0,0.992,2584.49,1155)" d="M23,16.6 C22.9,16.5 22.7,16.3 22.4,15.9 L10.9,1.7 C10.8,1.6 10.7,1.3 10.7,1.1 C10.7,0.8 10.8,0.4 10.9,0.2 L21.1,-15.2 C21.2,-15.4 21.3,-15.7 21.3,-15.9 L21.3,-16.8 C21.3,-17.1 21.2,-17.4 21,-17.6 L4.8,-39.5 C4.8,-39.5 4.4,-40.1 3.8,-40.1 C3.5,-40.1 3.3,-40.1 3,-39.8 C2.6,-39.5 2.5,-39.1 2.5,-38.8 C2.5,-38.2 2.8,-37.7 2.8,-37.7 L10.4,-27.3 C10.6,-27 10.7,-26.6 10.7,-26.1 C10.7,-25.7 10.6,-25.2 10.4,-24.9 L0.3,-9.5 C0.2,-9.3 0.1,-8.9 0.1,-8.7 L0.1,-7.8 C0.1,-7.5 0.2,-7.2 0.4,-7 L11.6,6.9 C11.2,6.8 10.3,6.6 9.1,6.6 C4,6.6 0,10.8 0,15.9 C0,17.3 0.3,18.7 1.1,19.8 C3.2,23 10.7,32.5 10.7,32.5 C10.7,32.5 11.2,33.1 11.9,33.1 C12.1,33.1 12.3,33.1 12.5,32.9 C13,32.5 13.2,32.1 13.2,31.7 C13.2,31.3 13,31 12.9,30.8 C12.6,30.3 9.4,24.5 9.4,24.5 C9.4,24.5 8.7,23.1 8.7,21.3 C8.7,18.1 11.1,15.5 14.3,15.5 C15.6,15.5 16.7,15.9 17.5,16.4 L21.4,18.9 C21.4,18.9 21.8,19.1 22.2,19.1 C22.6,19.1 22.9,19 23.2,18.6 C23.4,18.3 23.5,18 23.5,17.7 C23.5,17.4 23.4,17.2 23.2,16.9 L23,16.6 "/>
<path class="NoteDot" transform="matrix(0.992,0,0,0.992,402.535,1192.2)" d="M0,0 C0,2.8 2.2,5 5,5 C7.8,5 10,2.8 10,0 C10,-2.8 7.8,-5 5,-5 C2.2,-5 0,-2.8 0,0"/>
<path class="NoteDot" transform="matrix(0.992,0,0,0.992,2002.84,1192.2)" d="M0,0 C0,2.8 2.2,5 5,5 C7.8,5 10,2.8 10,0 C10,-2.8 7.8,-5 5,-5 C2.2,-5 0,-2.8 0,0"/>
<path class="NoteDot" transform="matrix(0.992,0,0,0.992,441.27,720.998)" d="M0,0 C0,2.8 2.2,5 5,5 C7.8,5 10,2.8 10,0 C10,-2.8 7.8,-5 5,-5 C2.2,-5 0,-2.8 0,0"/>
<path class="NoteDot" transform="matrix(0.992,0,0,0.992,2336.85,1217)" d="M0,0 C0,2.8 2.2,5 5,5 C7.8,5 10,2.8 10,0 C10,-2.8 7.8,-5 5,-5 C2.2,-5 0,-2.8 0,0"/>
</svg>
