<?xml version="1.0" encoding="UTF-8" standalone="no"?>
<svg width="2977.2px" height="4208.4px" viewBox="0 0 2977.2 4208.4"
 xmlns="http://www.w3.org/2000/svg" xmlns:xlink="http://www.w3.org/1999/xlink" version="1.2" baseProfile="tiny">
<title>静かな湖畔</title>
<desc>Generated by MuseScore Studio 4.4.2</desc>
<path class="" fill="#ffffff" fill-rule="evenodd" d="M0,0 L2977.2,0 L2977.2,4208.4 L0,4208.4 L0,0 "/>
<polyline class="StaffLines" fill="none" stroke="#000000" stroke-width="2.73" stroke-linejoin="bevel" points="212.598,634.198 2764.6,634.198"/>
<polyline class="StaffLines" fill="none" stroke="#000000" stroke-width="2.73" stroke-linejoin="bevel" points="212.598,658.998 2764.6,658.998"/>
<polyline class="StaffLines" fill="none" stroke="#000000" stroke-width="2.73" stroke-linejoin="bevel" points="212.598,683.798 2764.6,683.798"/>
<polyline class="StaffLines" fill="none" stroke="#000000" stroke-width="2.73" stroke-linejoin="bevel" points="212.598,708.598 2764.6,708.598"/>
<polyline class="StaffLines" fill="none" stroke="#000000" stroke-width="2.73" stroke-linejoin="bevel" points="212.598,733.398 2764.6,733.398"/>
<polyline class="StaffLines" fill="none" stroke="#000000" stroke-width="2.73" stroke-linejoin="bevel" points="212.598,1105.4 2764.6,1105.4"/>
<polyline class="StaffLines" fill="none" stroke="#000000" stroke-width="2.73" stroke-linejoin="bevel" points="212.598,1130.2 2764.6,1130.2"/>
<polyline class="StaffLines" fill="none" stroke="#000000" stroke-width="2.73" stroke-linejoin="bevel" points="212.598,1155 2764.6,1155"/>
<polyline class="StaffLines" fill="none" stroke="#000000" stroke-width="2.73" stroke-linejoin="bevel" points="212.598,1179.8 2764.6,1179.8"/>
<polyline class="StaffLines" fill="none" stroke="#000000" stroke-width="2.73" stroke-linejoin="bevel" points="212.598,1204.6 2764.6,1204.6"/>
<path class="Text" d="M1295.82,241.425 C1298.68,237.795 1300.77,234.935 1302.97,231.415 C1306.16,226.465 1306.16,226.465 1307.04,225.255 L1303.96,221.845 C1302.64,222.065 1301.32,222.175 1297.36,222.175 L1284.49,222.175 C1285.37,220.525 1285.81,219.865 1286.14,218.985 C1287.24,216.895 1287.79,215.905 1288.56,214.475 L1281.41,212.605 C1280.53,216.235 1278.99,219.535 1275.91,224.705 C1272.06,231.085 1268.21,235.375 1261.61,241.095 C1263.92,242.415 1265.24,243.515 1266.67,245.385 C1268.76,243.405 1269.31,242.855 1270.96,241.095 L1270.96,247.695 C1273.49,247.365 1276.35,247.145 1279.65,247.145 L1285.04,247.145 L1285.04,259.025 L1274.59,259.025 C1270.96,259.025 1268.21,258.915 1265.68,258.585 L1265.68,265.625 C1268.32,265.295 1271.4,265.075 1274.7,265.075 L1285.04,265.075 L1285.04,278.825 L1277.67,278.825 C1274.26,278.825 1271.62,278.715 1268.98,278.275 L1268.98,285.205 C1271.84,284.765 1274.7,284.655 1277.89,284.655 L1285.04,284.655 L1285.04,302.585 C1285.04,304.785 1284.49,305.225 1281.3,305.225 C1278.11,305.225 1275.14,304.895 1271.07,304.235 C1272.06,306.765 1272.61,308.635 1272.83,311.385 C1275.36,311.605 1278.88,311.715 1281.08,311.715 C1289.55,311.715 1291.53,310.175 1291.53,303.575 L1291.53,284.655 L1305.17,284.655 L1305.17,289.165 L1312.21,289.165 C1311.77,286.195 1311.55,282.675 1311.55,278.495 L1311.55,265.075 C1314.3,265.075 1316.17,265.295 1318.48,265.625 L1318.48,258.365 C1316.17,258.915 1314.85,259.025 1311.55,259.025 L1311.55,250.335 C1311.55,246.045 1311.66,243.625 1311.99,240.985 C1310.01,241.315 1307.37,241.425 1302.75,241.425 L1295.82,241.425 M1279.65,241.425 C1276.35,241.425 1273.49,241.205 1271.07,240.875 C1275.14,236.585 1277.56,233.395 1281.08,227.895 L1297.91,227.895 C1295.05,233.285 1292.96,236.255 1288.67,241.425 L1279.65,241.425 M1291.53,278.825 L1291.53,265.075 L1305.28,265.075 L1305.28,278.825 L1291.53,278.825 M1305.28,259.025 L1291.53,259.025 L1291.53,247.145 L1305.28,247.145 L1305.28,259.025 M1239.94,222.725 L1228.39,222.725 C1224.65,222.725 1222.67,222.615 1220.25,222.285 L1220.25,228.665 C1222.56,228.335 1224.43,228.225 1228.17,228.225 L1239.94,228.225 L1239.94,235.485 L1231.03,235.485 C1227.29,235.485 1225.53,235.375 1223.44,235.045 L1223.44,241.315 C1225.86,240.985 1227.4,240.875 1231.03,240.875 L1239.94,240.875 L1239.94,248.795 L1226.85,248.795 C1222.67,248.795 1220.58,248.685 1218.16,248.355 L1218.16,254.845 C1220.69,254.515 1222.89,254.405 1226.96,254.405 L1256.66,254.405 C1260.51,254.405 1262.27,254.515 1264.69,254.845 L1264.69,248.355 C1262.49,248.685 1260.73,248.795 1256.77,248.795 L1246.1,248.795 L1246.1,240.875 L1253.58,240.875 C1256.99,240.875 1258.53,240.985 1260.95,241.315 L1260.95,235.045 C1258.97,235.375 1257.21,235.485 1253.58,235.485 L1246.1,235.485 L1246.1,228.225 L1256.11,228.225 C1259.52,228.225 1261.28,228.335 1263.92,228.665 L1263.92,222.285 C1261.5,222.615 1259.63,222.725 1256,222.725 L1246.1,222.725 L1246.1,221.075 C1246.1,218.215 1246.32,215.465 1246.65,213.375 L1239.39,213.375 C1239.72,215.685 1239.94,218.435 1239.94,221.185 L1239.94,222.725 M1230.48,292.575 L1254.35,292.575 L1254.35,303.245 C1254.35,305.335 1253.8,305.775 1251.6,305.775 C1248.85,305.775 1246.65,305.555 1243.35,305.005 C1244.12,307.315 1244.34,308.855 1244.56,311.385 C1246.76,311.605 1249.4,311.715 1251.6,311.715 C1258.64,311.715 1260.51,310.175 1260.51,304.235 L1260.51,270.795 C1260.51,265.515 1260.62,262.765 1260.84,260.235 C1258.42,260.565 1256.77,260.675 1251.27,260.675 L1232.9,260.675 C1228.17,260.675 1225.97,260.565 1223.77,260.345 C1224.1,263.095 1224.21,265.515 1224.21,270.465 L1224.21,301.705 C1224.21,305.995 1223.99,309.625 1223.55,312.705 L1231.14,312.705 C1230.7,309.625 1230.48,306.545 1230.48,302.035 L1230.48,292.575 M1230.48,287.075 L1230.48,279.155 L1254.35,279.155 L1254.35,287.075 L1230.48,287.075 M1230.48,273.655 L1230.48,266.285 L1254.35,266.285 L1254.35,273.655 L1230.48,273.655 "/>
<path class="Text" d="M1333.11,252.095 C1336.08,251.325 1336.96,251.105 1339.49,250.665 C1340.48,250.445 1345.76,249.565 1355.22,248.135 C1351.59,262.325 1348.29,272.005 1343.12,283.005 C1339.27,291.365 1335.09,298.625 1331.68,302.915 L1339.16,307.315 C1342.57,301.155 1344.88,296.755 1346.31,294.115 C1353.79,278.935 1358.85,264.855 1362.92,247.475 C1366.99,247.035 1368.42,246.925 1370.84,246.925 C1381.07,246.925 1384.37,250.665 1384.37,262.325 C1384.37,274.645 1382.72,285.865 1379.75,292.905 C1378.32,296.425 1376.23,298.185 1373.48,298.185 C1369.52,298.185 1363.36,296.315 1357.09,293.125 C1357.42,295.105 1357.42,295.875 1357.42,297.525 C1357.42,298.955 1357.42,299.725 1357.2,301.375 C1364.46,304.455 1369.08,305.665 1373.81,305.665 C1378.98,305.665 1381.95,304.235 1384.59,300.495 C1389.1,294.115 1391.96,279.485 1391.96,262.655 C1391.96,253.635 1390.42,248.575 1386.57,244.945 C1383.16,241.645 1378.54,240.325 1370.73,240.325 C1368.2,240.325 1366.77,240.435 1364.24,240.655 C1365.23,235.375 1366,231.305 1366.55,228.115 C1367.54,221.845 1367.87,219.975 1368.64,217.555 L1359.84,216.565 C1359.84,217.225 1359.84,217.775 1359.84,217.995 C1359.84,222.615 1358.41,233.175 1356.54,241.315 C1347.63,242.745 1336.19,244.065 1332.23,244.175 L1333.11,252.095 M1398.01,237.575 C1408.68,248.465 1416.27,261.885 1420.45,277.065 L1427.49,272.995 C1422.32,257.485 1415.72,246.155 1404.5,234.055 L1398.01,237.575 M1468.74,215.795 C1468.52,220.855 1466.76,230.205 1465,236.475 C1462.91,236.475 1459.28,236.585 1457.08,236.585 C1451.03,236.585 1447.73,236.365 1443.99,235.705 L1443.88,243.295 C1444.54,243.295 1445.09,243.295 1445.31,243.295 C1445.64,243.295 1446.52,243.295 1447.73,243.405 C1449.38,243.405 1453.12,243.515 1454.99,243.515 C1456.64,243.515 1460.38,243.405 1463.13,243.295 C1459.94,253.745 1456.75,261.665 1451.69,271.675 C1447.62,279.595 1444.65,284.435 1441.13,288.835 L1448.61,293.235 C1449.16,292.355 1449.82,291.035 1450.81,289.495 C1454.99,282.235 1455.98,280.365 1458.62,275.085 C1463.46,264.965 1467.42,254.735 1470.83,242.965 C1477.54,242.525 1484.36,241.645 1488.87,240.655 C1491.51,240.215 1491.51,240.215 1492.72,239.995 L1492.39,232.405 C1487.33,234.055 1480.4,235.375 1472.7,236.035 C1474.24,230.425 1474.9,227.785 1475.67,224.045 C1476.55,219.535 1476.66,219.095 1477.43,217.005 L1468.74,215.795 M1533.53,246.155 C1524.62,240.435 1517.25,236.695 1504.49,231.635 L1500.42,237.795 C1511.97,241.975 1520.33,246.375 1529.57,252.755 L1533.53,246.155 M1533.75,294.885 C1532.98,294.335 1532.98,294.335 1531.77,293.125 C1525.83,287.845 1519.01,283.665 1510.21,279.815 C1509.55,275.635 1509,268.045 1509,263.095 C1509,259.245 1509.33,256.935 1510.43,252.865 L1502.95,252.095 C1502.07,256.165 1501.85,258.805 1501.85,262.765 C1501.85,265.515 1502.07,270.685 1502.62,277.835 C1498.33,276.625 1495.58,276.185 1491.51,276.185 C1486.56,276.185 1482.38,276.955 1478.53,278.605 C1472.37,281.135 1468.3,286.635 1468.3,292.575 C1468.3,302.365 1476.55,308.525 1489.75,308.525 C1503.17,308.525 1510.65,302.255 1510.65,290.925 C1510.65,289.825 1510.65,289.165 1510.43,287.405 C1518.46,291.585 1525.39,297.085 1529.68,302.365 L1533.75,294.885 M1503.17,284.875 C1503.17,284.875 1503.39,288.285 1503.39,289.605 C1503.39,297.855 1499.1,301.595 1489.64,301.595 C1480.95,301.595 1475.67,298.185 1475.67,292.575 C1475.67,286.525 1481.61,282.675 1490.96,282.675 C1495.36,282.675 1498.55,283.225 1503.17,284.875"/>
<path class="Text" d="M1592.82,259.685 L1592.82,240.985 L1599.97,240.985 C1603.49,240.985 1605.8,241.095 1609.76,241.425 L1609.76,234.385 C1606.68,234.825 1604.04,234.935 1599.75,234.935 L1592.82,234.935 L1592.82,223.935 C1592.82,219.645 1593.04,216.675 1593.48,213.815 L1585.78,213.815 C1586.22,216.895 1586.44,219.865 1586.44,224.155 L1586.44,234.935 L1580.61,234.935 C1576.65,234.935 1574.12,234.825 1571.15,234.385 L1571.15,241.425 C1574.78,241.095 1577.42,240.985 1580.61,240.985 L1586.44,240.985 L1586.44,259.685 L1582.15,259.685 C1578.74,259.685 1576.98,259.575 1574.67,259.245 C1574.89,262.215 1575,264.635 1575,268.485 L1575,294.555 C1575,298.185 1574.78,301.485 1574.34,305.665 L1581.49,305.665 L1581.49,296.205 L1597.33,296.205 C1601.4,296.205 1603.6,296.315 1605.14,296.425 C1604.92,294.555 1604.92,293.015 1604.92,286.965 L1604.92,269.035 C1604.92,264.745 1605.03,261.775 1605.36,259.245 C1603.27,259.575 1601.62,259.685 1598.1,259.685 L1592.82,259.685 M1581.38,265.625 L1598.65,265.625 L1598.65,290.265 L1581.38,290.265 L1581.38,265.625 M1636.6,275.415 L1636.6,302.695 C1636.6,304.565 1635.94,305.115 1633.41,305.115 C1630.88,305.115 1627.36,304.785 1623.4,304.125 C1624.17,306.325 1624.61,308.525 1624.72,311.165 C1627.8,311.385 1630.55,311.495 1633.19,311.495 C1641,311.495 1643.09,309.845 1643.09,304.015 L1643.09,227.125 C1643.09,221.845 1643.2,218.985 1643.53,216.345 C1640.78,216.785 1638.14,216.895 1633.3,216.895 L1624.17,216.895 C1619.88,216.895 1616.69,216.785 1613.28,216.345 C1613.5,217.885 1613.72,228.005 1613.72,233.835 C1613.72,255.725 1613.06,269.585 1611.63,279.925 C1609.65,293.345 1606.57,300.385 1599.2,308.525 C1601.62,310.065 1602.94,311.275 1604.92,313.475 C1613.28,302.695 1616.47,293.785 1618.56,275.415 L1636.6,275.415 M1636.6,243.515 L1620.1,243.515 C1620.1,242.635 1620.1,242.635 1620.1,241.205 L1620.1,223.165 L1636.6,223.165 L1636.6,243.515 M1636.6,249.565 L1636.6,269.365 L1619.11,269.365 C1619.66,262.875 1619.88,256.935 1619.99,249.565 L1636.6,249.565 M1551.24,219.865 C1558.61,224.925 1562.46,228.445 1567.3,234.605 L1572.14,229.435 C1566.97,223.715 1562.68,219.865 1555.86,215.135 L1551.24,219.865 M1547.17,247.255 C1554.43,251.655 1558.72,255.065 1564.66,261.335 L1568.84,255.505 C1562.35,249.565 1557.84,246.155 1551.24,242.195 L1547.17,247.255 M1564.11,271.895 C1558.94,288.285 1553.44,299.945 1548.49,304.895 L1554.54,310.395 C1555.09,309.295 1555.31,308.855 1557.07,305.775 C1562.02,296.975 1565.65,288.285 1569.61,276.185 L1564.11,271.895 M1724.16,252.205 L1711.73,252.205 C1707.77,252.205 1705.02,252.095 1702.05,251.655 L1702.05,258.915 C1705.24,258.475 1707.99,258.365 1711.84,258.365 L1724.16,258.365 L1724.16,275.965 L1711.18,275.965 C1706.45,275.965 1703.59,275.855 1700.62,275.415 L1700.62,282.785 C1703.59,282.455 1707.44,282.235 1711.4,282.235 L1724.16,282.235 L1724.16,301.375 C1724.16,306.215 1723.94,309.515 1723.39,313.255 L1731.75,313.255 C1731.2,309.845 1730.98,306.435 1730.98,301.265 L1730.98,282.235 L1746.49,282.235 C1751.88,282.235 1754.96,282.455 1758.04,282.895 L1758.04,275.305 C1755.18,275.855 1752.43,275.965 1746.38,275.965 L1730.98,275.965 L1730.98,258.365 L1744.62,258.365 C1749.68,258.365 1752.76,258.585 1755.73,259.025 L1755.73,251.545 C1752.43,251.985 1749.24,252.205 1744.62,252.205 L1730.98,252.205 L1730.98,224.045 C1730.98,218.765 1731.09,216.125 1731.64,213.705 L1723.5,213.705 C1723.94,216.455 1724.16,218.985 1724.16,224.045 L1724.16,252.205 M1698.42,298.295 C1697.98,295.325 1697.76,291.695 1697.76,287.295 L1697.76,229.875 C1697.76,225.035 1697.87,221.735 1698.09,219.645 C1696.22,219.865 1692.59,219.975 1687.64,219.975 L1670.7,219.975 C1666.08,219.975 1662.78,219.865 1660.47,219.645 C1660.8,222.835 1660.91,225.255 1660.91,230.095 L1660.91,290.925 C1660.91,295.215 1660.69,299.175 1660.25,302.475 L1666.96,302.475 L1666.96,294.115 L1691.71,294.115 L1691.71,298.295 L1698.42,298.295 M1666.96,226.025 L1676.2,226.025 L1676.2,253.085 L1666.96,253.085 L1666.96,226.025 M1682.14,226.025 L1691.71,226.025 L1691.71,253.085 L1682.14,253.085 L1682.14,226.025 M1666.96,258.915 L1676.2,258.915 L1676.2,288.065 L1666.96,288.065 L1666.96,258.915 M1682.14,258.915 L1691.71,258.915 L1691.71,288.065 L1682.14,288.065 L1682.14,258.915 M1701.06,222.285 C1705.57,230.095 1707.33,234.165 1711.73,247.365 L1717.56,244.505 C1713.82,233.395 1711.18,227.235 1707.11,219.645 L1701.06,222.285 M1748.14,219.535 C1745.39,230.205 1742.86,236.365 1737.58,245.165 L1743.19,247.915 C1748.36,239.335 1750.56,234.495 1754.96,222.285 L1748.14,219.535 "/>
<path class="MeasureNumber" d="M233.391,1027.48 L231.231,1027.48 L212.591,1046.76 L212.591,1048.44 L223.871,1048.44 L223.231,1050.88 C222.431,1053.92 222.431,1053.92 218.951,1053.92 L218.231,1053.92 L217.991,1055.8 L230.431,1055.8 L230.631,1053.92 L229.911,1053.92 C227.271,1053.92 226.711,1053.72 226.711,1052.84 C226.711,1052.52 226.791,1052.12 227.111,1050.88 L227.791,1048.44 L232.351,1048.44 L232.951,1046.28 L228.351,1046.28 L233.391,1027.48 M224.471,1046.28 L215.511,1046.28 L227.871,1033.56 L224.471,1046.28 "/>
<polyline class="BarLine" fill="none" stroke="#000000" stroke-width="4.46" stroke-linejoin="bevel" points="1211.93,632.834 1211.93,734.762"/>
<polyline class="BarLine" fill="none" stroke="#000000" stroke-width="4.46" stroke-linejoin="bevel" points="2740.42,1104.03 2740.42,1205.96"/>
<polyline class="BarLine" fill="none" stroke="#000000" stroke-width="13.64" stroke-linejoin="bevel" points="2757.78,1104.03 2757.78,1205.96"/>
<polyline class="BarLine" fill="none" stroke="#000000" stroke-width="4.46" stroke-linejoin="bevel" points="1192.47,1104.03 1192.47,1205.96"/>
<polyline class="BarLine" fill="none" stroke="#000000" stroke-width="4.46" stroke-linejoin="bevel" points="2762.37,632.834 2762.37,734.762"/>
<polyline class="BarLine" fill="none" stroke="#000000" stroke-width="4.46" stroke-linejoin="bevel" points="1966.45,1104.03 1966.45,1205.96"/>
<polyline class="BarLine" fill="none" stroke="#000000" stroke-width="4.46" stroke-linejoin="bevel" points="1964.37,632.834 1964.37,734.762"/>
<polyline class="LedgerLine" fill="none" stroke="#000000" stroke-width="3.97" stroke-linejoin="bevel" points="1808.7,758.198 1858.28,758.198"/>
<polyline class="Stem" fill="none" stroke="#000000" stroke-width="2.73" stroke-linejoin="bevel" points="2127.91,1146.76 2127.91,1223.1"/>
<polyline class="Stem" fill="none" stroke="#000000" stroke-width="2.73" stroke-linejoin="bevel" points="1467.59,704.63 1467.59,621.798"/>
<polyline class="Stem" fill="none" stroke="#000000" stroke-width="2.73" stroke-linejoin="bevel" points="2450.54,1163.43 2450.54,1086.8"/>
<polyline class="Stem" fill="none" stroke="#000000" stroke-width="2.73" stroke-linejoin="bevel" points="1626.44,1163.43 1626.44,1086.8"/>
<polyline class="Stem" fill="none" stroke="#000000" stroke-width="2.73" stroke-linejoin="bevel" points="776.959,704.63 776.959,621.997"/>
<polyline class="Stem" fill="none" stroke="#000000" stroke-width="2.73" stroke-linejoin="bevel" points="1107.85,1146.76 1107.85,1223.1"/>
<polyline class="Stem" fill="none" stroke="#000000" stroke-width="2.73" stroke-linejoin="bevel" points="853.088,692.23 853.088,615.598"/>
<polyline class="Stem" fill="none" stroke="#000000" stroke-width="2.73" stroke-linejoin="bevel" points="1513.19,1146.76 1513.19,1223.1"/>
<polyline class="Stem" fill="none" stroke="#000000" stroke-width="2.73" stroke-linejoin="bevel" points="586.635,717.03 586.635,634.397"/>
<polyline class="Stem" fill="none" stroke="#000000" stroke-width="2.73" stroke-linejoin="bevel" points="852.466,1163.43 852.466,1086.8"/>
<polyline class="Stem" fill="none" stroke="#000000" stroke-width="2.73" stroke-linejoin="bevel" points="2241.16,1163.43 2241.16,1086.8"/>
<polyline class="Stem" fill="none" stroke="#000000" stroke-width="2.73" stroke-linejoin="bevel" points="967.282,692.23 967.282,615.797"/>
<polyline class="Stem" fill="none" stroke="#000000" stroke-width="2.73" stroke-linejoin="bevel" points="739.218,1146.76 739.218,1223.1"/>
<polyline class="Stem" fill="none" stroke="#000000" stroke-width="2.73" stroke-linejoin="bevel" points="1043.41,692.23 1043.41,615.598"/>
<polyline class="Stem" fill="none" stroke="#000000" stroke-width="2.73" stroke-linejoin="bevel" points="1848.24,754.23 1848.24,671.398"/>
<polyline class="Stem" fill="none" stroke="#000000" stroke-width="2.73" stroke-linejoin="bevel" points="1772.11,717.03 1772.11,634.397"/>
<polyline class="Stem" fill="none" stroke="#000000" stroke-width="2.73" stroke-linejoin="bevel" points="2337.29,1146.76 2337.29,1223.1"/>
<polyline class="Stem" fill="none" stroke="#000000" stroke-width="2.73" stroke-linejoin="bevel" points="2031.78,1163.43 2031.78,1086.8"/>
<polyline class="Stem" fill="none" stroke="#000000" stroke-width="2.73" stroke-linejoin="bevel" points="1157.61,692.23 1157.61,615.797"/>
<polyline class="Stem" fill="none" stroke="#000000" stroke-width="2.73" stroke-linejoin="bevel" points="1881.83,1146.76 1881.83,1223.1"/>
<polyline class="Stem" fill="none" stroke="#000000" stroke-width="2.73" stroke-linejoin="bevel" points="613.59,1159.16 613.59,1229.4"/>
<polyline class="Stem" fill="none" stroke="#000000" stroke-width="2.73" stroke-linejoin="bevel" points="662.764,717.03 662.764,634.198"/>
<polyline class="Stem" fill="none" stroke="#000000" stroke-width="2.73" stroke-linejoin="bevel" points="1277.27,704.63 1277.27,621.798"/>
<polyline class="Stem" fill="none" stroke="#000000" stroke-width="2.73" stroke-linejoin="bevel" points="559.334,1163.43 559.334,1087"/>
<polyline class="Stem" fill="none" stroke="#000000" stroke-width="2.73" stroke-linejoin="bevel" points="1257.81,1163.43 1257.81,1086.8"/>
<polyline class="Stem" fill="none" stroke="#000000" stroke-width="2.73" stroke-linejoin="bevel" points="1657.91,717.03 1657.91,634.198"/>
<polyline class="Stem" fill="none" stroke="#000000" stroke-width="2.73" stroke-linejoin="bevel" points="1581.78,692.23 1581.78,615.797"/>
<polyline class="Stem" fill="none" stroke="#000000" stroke-width="2.73" stroke-linejoin="bevel" points="1391.46,717.03 1391.46,634.397"/>
<polyline class="Stem" fill="none" stroke="#000000" stroke-width="2.73" stroke-linejoin="bevel" points="404.209,1159.16 404.209,1229.4"/>
<polyline class="Stem" fill="none" stroke="#000000" stroke-width="2.73" stroke-linejoin="bevel" points="472.44,717.03 472.44,634.198"/>
<polyline class="Stem" fill="none" stroke="#000000" stroke-width="2.73" stroke-linejoin="bevel" points="2220.03,692.23 2220.03,615.598"/>
<polyline class="Stem" fill="none" stroke="#000000" stroke-width="2.73" stroke-linejoin="bevel" points="2495.05,675.565 2495.05,751.899"/>
<polyline class="Stem" fill="none" stroke="#000000" stroke-width="2.73" stroke-linejoin="bevel" points="2029.7,692.23 2029.7,615.598"/>
<polyline class="Stem" fill="none" stroke="#000000" stroke-width="2.73" stroke-linejoin="bevel" points="2304.72,687.965 2304.72,764.299"/>
<polyline class="Stem" fill="none" stroke="#000000" stroke-width="2.73" stroke-linejoin="bevel" points="2380.85,675.565 2380.85,751.998"/>
<polyline class="Stem" fill="none" stroke="#000000" stroke-width="2.73" stroke-linejoin="bevel" points="2571.18,675.565 2571.18,751.998"/>
<polyline class="Stem" fill="none" stroke="#000000" stroke-width="2.73" stroke-linejoin="bevel" points="2685.37,675.565 2685.37,751.899"/>
<polyline class="Stem" fill="none" stroke="#000000" stroke-width="2.73" stroke-linejoin="bevel" points="2143.9,692.23 2143.9,615.797"/>
<path class="Hook" transform="matrix(0.992,0,0,0.992,557.97,1086.8)" d="M0,22.7 C0,23 0.1,23.6 0.8,23.8 C5.1,25.2 13.7,30.6 20.2,41.7 C22,44.8 24.9,49.1 24.9,57.4 C24.9,64.6 23.1,72 20.4,79.2 C20.2,79.8 20.1,80.3 20.1,80.7 C20.1,81.4 20.5,81.7 21.2,81.7 C21.8,81.7 22.3,81.3 22.7,80.6 C27.2,72.6 28.9,63.3 28.9,54.2 C28.4,41.3 21,31.8 21,31.8 C21.3,31.8 11.8,19.5 9.1,15.3 C5.4,9.6 3.7,3.9 3.5,3.5 C3.4,3.2 2.5,-0.4 2.5,-0.4 C2.4,-0.8 1.9,-1.2 1.3,-1.2 C0.6,-1.2 0,-0.6 0,0.1 L0,22.7 "/>
<path class="Hook" transform="matrix(0.992,0,0,0.992,1156.24,615.598)" d="M0,22.7 C0,23 0.1,23.6 0.8,23.8 C5.1,25.2 13.7,30.6 20.2,41.7 C22,44.8 24.9,49.1 24.9,57.4 C24.9,64.6 23.1,72 20.4,79.2 C20.2,79.8 20.1,80.3 20.1,80.7 C20.1,81.4 20.5,81.7 21.2,81.7 C21.8,81.7 22.3,81.3 22.7,80.6 C27.2,72.6 28.9,63.3 28.9,54.2 C28.4,41.3 21,31.8 21,31.8 C21.3,31.8 11.8,19.5 9.1,15.3 C5.4,9.6 3.7,3.9 3.5,3.5 C3.4,3.2 2.5,-0.4 2.5,-0.4 C2.4,-0.8 1.9,-1.2 1.3,-1.2 C0.6,-1.2 0,-0.6 0,0.1 L0,22.7 "/>
<path class="Hook" transform="matrix(0.992,0,0,0.992,1770.74,634.198)" d="M0,22.7 C0,23 0.1,23.6 0.8,23.8 C5.1,25.2 13.7,30.6 20.2,41.7 C22,44.8 24.9,49.1 24.9,57.4 C24.9,64.6 23.1,72 20.4,79.2 C20.2,79.8 20.1,80.3 20.1,80.7 C20.1,81.4 20.5,81.7 21.2,81.7 C21.8,81.7 22.3,81.3 22.7,80.6 C27.2,72.6 28.9,63.3 28.9,54.2 C28.4,41.3 21,31.8 21,31.8 C21.3,31.8 11.8,19.5 9.1,15.3 C5.4,9.6 3.7,3.9 3.5,3.5 C3.4,3.2 2.5,-0.4 2.5,-0.4 C2.4,-0.8 1.9,-1.2 1.3,-1.2 C0.6,-1.2 0,-0.6 0,0.1 L0,22.7 "/>
<path class="Hook" transform="matrix(0.992,0,0,0.992,1511.83,1223.2)" d="M0,-0.1 C0,0.6 0.6,1.2 1.3,1.2 C1.8,1.2 2.4,0.8 2.5,0.4 C2.5,0.3 3.4,-3.2 3.5,-3.5 C3.6,-3.9 4.5,-7.7 8.1,-13.6 C12,-20.1 18,-24.8 23,-31.8 C28,-38.8 30.9,-45.4 30.9,-54.2 C30.9,-63.3 28.9,-70.9 23.5,-80.6 C23.2,-81.3 22.6,-81.7 22,-81.7 C21.8,-81.7 21.6,-81.7 21.5,-81.6 C21,-81.4 20.8,-81 20.8,-80.4 C20.8,-80.1 20.9,-79.7 21.1,-79.2 C25.1,-69.9 26.7,-64.6 26.7,-57.4 C26.7,-49.1 23.8,-44.8 22,-41.7 C15.5,-30.6 5,-25.2 0.8,-23.8 C0.1,-23.6 0,-23 0,-22.7 L0,-0.1 "/>
<path class="Hook" transform="matrix(0.992,0,0,0.992,2335.93,1223.2)" d="M0,-0.1 C0,0.6 0.6,1.2 1.3,1.2 C1.8,1.2 2.4,0.8 2.5,0.4 C2.5,0.3 3.4,-3.2 3.5,-3.5 C3.6,-3.9 4.5,-7.7 8.1,-13.6 C12,-20.1 18,-24.8 23,-31.8 C28,-38.8 30.9,-45.4 30.9,-54.2 C30.9,-63.3 28.9,-70.9 23.5,-80.6 C23.2,-81.3 22.6,-81.7 22,-81.7 C21.8,-81.7 21.6,-81.7 21.5,-81.6 C21,-81.4 20.8,-81 20.8,-80.4 C20.8,-80.1 20.9,-79.7 21.1,-79.2 C25.1,-69.9 26.7,-64.6 26.7,-57.4 C26.7,-49.1 23.8,-44.8 22,-41.7 C15.5,-30.6 5,-25.2 0.8,-23.8 C0.1,-23.6 0,-23 0,-22.7 L0,-0.1 "/>
<path class="Hook" transform="matrix(0.992,0,0,0.992,1390.1,634.198)" d="M0,22.7 C0,23 0.1,23.6 0.8,23.8 C5.1,25.2 13.7,30.6 20.2,41.7 C22,44.8 24.9,49.1 24.9,57.4 C24.9,64.6 23.1,72 20.4,79.2 C20.2,79.8 20.1,80.3 20.1,80.7 C20.1,81.4 20.5,81.7 21.2,81.7 C21.8,81.7 22.3,81.3 22.7,80.6 C27.2,72.6 28.9,63.3 28.9,54.2 C28.4,41.3 21,31.8 21,31.8 C21.3,31.8 11.8,19.5 9.1,15.3 C5.4,9.6 3.7,3.9 3.5,3.5 C3.4,3.2 2.5,-0.4 2.5,-0.4 C2.4,-0.8 1.9,-1.2 1.3,-1.2 C0.6,-1.2 0,-0.6 0,0.1 L0,22.7 "/>
<path class="Hook" transform="matrix(0.992,0,0,0.992,1580.42,615.598)" d="M0,22.7 C0,23 0.1,23.6 0.8,23.8 C5.1,25.2 13.7,30.6 20.2,41.7 C22,44.8 24.9,49.1 24.9,57.4 C24.9,64.6 23.1,72 20.4,79.2 C20.2,79.8 20.1,80.3 20.1,80.7 C20.1,81.4 20.5,81.7 21.2,81.7 C21.8,81.7 22.3,81.3 22.7,80.6 C27.2,72.6 28.9,63.3 28.9,54.2 C28.4,41.3 21,31.8 21,31.8 C21.3,31.8 11.8,19.5 9.1,15.3 C5.4,9.6 3.7,3.9 3.5,3.5 C3.4,3.2 2.5,-0.4 2.5,-0.4 C2.4,-0.8 1.9,-1.2 1.3,-1.2 C0.6,-1.2 0,-0.6 0,0.1 L0,22.7 "/>
<path class="Hook" transform="matrix(0.992,0,0,0.992,965.918,615.598)" d="M0,22.7 C0,23 0.1,23.6 0.8,23.8 C5.1,25.2 13.7,30.6 20.2,41.7 C22,44.8 24.9,49.1 24.9,57.4 C24.9,64.6 23.1,72 20.4,79.2 C20.2,79.8 20.1,80.3 20.1,80.7 C20.1,81.4 20.5,81.7 21.2,81.7 C21.8,81.7 22.3,81.3 22.7,80.6 C27.2,72.6 28.9,63.3 28.9,54.2 C28.4,41.3 21,31.8 21,31.8 C21.3,31.8 11.8,19.5 9.1,15.3 C5.4,9.6 3.7,3.9 3.5,3.5 C3.4,3.2 2.5,-0.4 2.5,-0.4 C2.4,-0.8 1.9,-1.2 1.3,-1.2 C0.6,-1.2 0,-0.6 0,0.1 L0,22.7 "/>
<path class="Hook" transform="matrix(0.992,0,0,0.992,585.271,634.198)" d="M0,22.7 C0,23 0.1,23.6 0.8,23.8 C5.1,25.2 13.7,30.6 20.2,41.7 C22,44.8 24.9,49.1 24.9,57.4 C24.9,64.6 23.1,72 20.4,79.2 C20.2,79.8 20.1,80.3 20.1,80.7 C20.1,81.4 20.5,81.7 21.2,81.7 C21.8,81.7 22.3,81.3 22.7,80.6 C27.2,72.6 28.9,63.3 28.9,54.2 C28.4,41.3 21,31.8 21,31.8 C21.3,31.8 11.8,19.5 9.1,15.3 C5.4,9.6 3.7,3.9 3.5,3.5 C3.4,3.2 2.5,-0.4 2.5,-0.4 C2.4,-0.8 1.9,-1.2 1.3,-1.2 C0.6,-1.2 0,-0.6 0,0.1 L0,22.7 "/>
<path class="Hook" transform="matrix(0.992,0,0,0.992,1880.46,1223.2)" d="M0,-0.1 C0,0.6 0.6,1.2 1.3,1.2 C1.8,1.2 2.4,0.8 2.5,0.4 C2.5,0.3 3.4,-3.2 3.5,-3.5 C3.6,-3.9 4.5,-7.7 8.1,-13.6 C12,-20.1 18,-24.8 23,-31.8 C28,-38.8 30.9,-45.4 30.9,-54.2 C30.9,-63.3 28.9,-70.9 23.5,-80.6 C23.2,-81.3 22.6,-81.7 22,-81.7 C21.8,-81.7 21.6,-81.7 21.5,-81.6 C21,-81.4 20.8,-81 20.8,-80.4 C20.8,-80.1 20.9,-79.7 21.1,-79.2 C25.1,-69.9 26.7,-64.6 26.7,-57.4 C26.7,-49.1 23.8,-44.8 22,-41.7 C15.5,-30.6 5,-25.2 0.8,-23.8 C0.1,-23.6 0,-23 0,-22.7 L0,-0.1 "/>
<path class="Hook" transform="matrix(0.992,0,0,0.992,775.595,621.798)" d="M0,22.7 C0,23 0.1,23.6 0.8,23.8 C5.1,25.2 13.7,30.6 20.2,41.7 C22,44.8 24.9,49.1 24.9,57.4 C24.9,64.6 23.1,72 20.4,79.2 C20.2,79.8 20.1,80.3 20.1,80.7 C20.1,81.4 20.5,81.7 21.2,81.7 C21.8,81.7 22.3,81.3 22.7,80.6 C27.2,72.6 28.9,63.3 28.9,54.2 C28.4,41.3 21,31.8 21,31.8 C21.3,31.8 11.8,19.5 9.1,15.3 C5.4,9.6 3.7,3.9 3.5,3.5 C3.4,3.2 2.5,-0.4 2.5,-0.4 C2.4,-0.8 1.9,-1.2 1.3,-1.2 C0.6,-1.2 0,-0.6 0,0.1 L0,22.7 "/>
<path class="Hook" transform="matrix(0.992,0,0,0.992,1106.49,1223.2)" d="M0,-0.1 C0,0.6 0.6,1.2 1.3,1.2 C1.8,1.2 2.4,0.8 2.5,0.4 C2.5,0.3 3.4,-3.2 3.5,-3.5 C3.6,-3.9 4.5,-7.7 8.1,-13.6 C12,-20.1 18,-24.8 23,-31.8 C28,-38.8 30.9,-45.4 30.9,-54.2 C30.9,-63.3 28.9,-70.9 23.5,-80.6 C23.2,-81.3 22.6,-81.7 22,-81.7 C21.8,-81.7 21.6,-81.7 21.5,-81.6 C21,-81.4 20.8,-81 20.8,-80.4 C20.8,-80.1 20.9,-79.7 21.1,-79.2 C25.1,-69.9 26.7,-64.6 26.7,-57.4 C26.7,-49.1 23.8,-44.8 22,-41.7 C15.5,-30.6 5,-25.2 0.8,-23.8 C0.1,-23.6 0,-23 0,-22.7 L0,-0.1 "/>
<path class="Hook" transform="matrix(0.992,0,0,0.992,2126.55,1223.2)" d="M0,-0.1 C0,0.6 0.6,1.2 1.3,1.2 C1.8,1.2 2.4,0.8 2.5,0.4 C2.5,0.3 3.4,-3.2 3.5,-3.5 C3.6,-3.9 4.5,-7.7 8.1,-13.6 C12,-20.1 18,-24.8 23,-31.8 C28,-38.8 30.9,-45.4 30.9,-54.2 C30.9,-63.3 28.9,-70.9 23.5,-80.6 C23.2,-81.3 22.6,-81.7 22,-81.7 C21.8,-81.7 21.6,-81.7 21.5,-81.6 C21,-81.4 20.8,-81 20.8,-80.4 C20.8,-80.1 20.9,-79.7 21.1,-79.2 C25.1,-69.9 26.7,-64.6 26.7,-57.4 C26.7,-49.1 23.8,-44.8 22,-41.7 C15.5,-30.6 5,-25.2 0.8,-23.8 C0.1,-23.6 0,-23 0,-22.7 L0,-0.1 "/>
<path class="Hook" transform="matrix(0.992,0,0,0.992,737.854,1223.2)" d="M0,-0.1 C0,0.6 0.6,1.2 1.3,1.2 C1.8,1.2 2.4,0.8 2.5,0.4 C2.5,0.3 3.4,-3.2 3.5,-3.5 C3.6,-3.9 4.5,-7.7 8.1,-13.6 C12,-20.1 18,-24.8 23,-31.8 C28,-38.8 30.9,-45.4 30.9,-54.2 C30.9,-63.3 28.9,-70.9 23.5,-80.6 C23.2,-81.3 22.6,-81.7 22,-81.7 C21.8,-81.7 21.6,-81.7 21.5,-81.6 C21,-81.4 20.8,-81 20.8,-80.4 C20.8,-80.1 20.9,-79.7 21.1,-79.2 C25.1,-69.9 26.7,-64.6 26.7,-57.4 C26.7,-49.1 23.8,-44.8 22,-41.7 C15.5,-30.6 5,-25.2 0.8,-23.8 C0.1,-23.6 0,-23 0,-22.7 L0,-0.1 "/>
<path class="Hook" transform="matrix(0.992,0,0,0.992,2493.68,751.998)" d="M0,-0.1 C0,0.6 0.6,1.2 1.3,1.2 C1.8,1.2 2.4,0.8 2.5,0.4 C2.5,0.3 3.4,-3.2 3.5,-3.5 C3.6,-3.9 4.5,-7.7 8.1,-13.6 C12,-20.1 18,-24.8 23,-31.8 C28,-38.8 30.9,-45.4 30.9,-54.2 C30.9,-63.3 28.9,-70.9 23.5,-80.6 C23.2,-81.3 22.6,-81.7 22,-81.7 C21.8,-81.7 21.6,-81.7 21.5,-81.6 C21,-81.4 20.8,-81 20.8,-80.4 C20.8,-80.1 20.9,-79.7 21.1,-79.2 C25.1,-69.9 26.7,-64.6 26.7,-57.4 C26.7,-49.1 23.8,-44.8 22,-41.7 C15.5,-30.6 5,-25.2 0.8,-23.8 C0.1,-23.6 0,-23 0,-22.7 L0,-0.1 "/>
<path class="Hook" transform="matrix(0.992,0,0,0.992,2684.01,751.998)" d="M0,-0.1 C0,0.6 0.6,1.2 1.3,1.2 C1.8,1.2 2.4,0.8 2.5,0.4 C2.5,0.3 3.4,-3.2 3.5,-3.5 C3.6,-3.9 4.5,-7.7 8.1,-13.6 C12,-20.1 18,-24.8 23,-31.8 C28,-38.8 30.9,-45.4 30.9,-54.2 C30.9,-63.3 28.9,-70.9 23.5,-80.6 C23.2,-81.3 22.6,-81.7 22,-81.7 C21.8,-81.7 21.6,-81.7 21.5,-81.6 C21,-81.4 20.8,-81 20.8,-80.4 C20.8,-80.1 20.9,-79.7 21.1,-79.2 C25.1,-69.9 26.7,-64.6 26.7,-57.4 C26.7,-49.1 23.8,-44.8 22,-41.7 C15.5,-30.6 5,-25.2 0.8,-23.8 C0.1,-23.6 0,-23 0,-22.7 L0,-0.1 "/>
<path class="Hook" transform="matrix(0.992,0,0,0.992,2303.36,764.398)" d="M0,-0.1 C0,0.6 0.6,1.2 1.3,1.2 C1.8,1.2 2.4,0.8 2.5,0.4 C2.5,0.3 3.4,-3.2 3.5,-3.5 C3.6,-3.9 4.5,-7.7 8.1,-13.6 C12,-20.1 18,-24.8 23,-31.8 C28,-38.8 30.9,-45.4 30.9,-54.2 C30.9,-63.3 28.9,-70.9 23.5,-80.6 C23.2,-81.3 22.6,-81.7 22,-81.7 C21.8,-81.7 21.6,-81.7 21.5,-81.6 C21,-81.4 20.8,-81 20.8,-80.4 C20.8,-80.1 20.9,-79.7 21.1,-79.2 C25.1,-69.9 26.7,-64.6 26.7,-57.4 C26.7,-49.1 23.8,-44.8 22,-41.7 C15.5,-30.6 5,-25.2 0.8,-23.8 C0.1,-23.6 0,-23 0,-22.7 L0,-0.1 "/>
<path class="Hook" transform="matrix(0.992,0,0,0.992,2142.53,615.598)" d="M0,22.7 C0,23 0.1,23.6 0.8,23.8 C5.1,25.2 13.7,30.6 20.2,41.7 C22,44.8 24.9,49.1 24.9,57.4 C24.9,64.6 23.1,72 20.4,79.2 C20.2,79.8 20.1,80.3 20.1,80.7 C20.1,81.4 20.5,81.7 21.2,81.7 C21.8,81.7 22.3,81.3 22.7,80.6 C27.2,72.6 28.9,63.3 28.9,54.2 C28.4,41.3 21,31.8 21,31.8 C21.3,31.8 11.8,19.5 9.1,15.3 C5.4,9.6 3.7,3.9 3.5,3.5 C3.4,3.2 2.5,-0.4 2.5,-0.4 C2.4,-0.8 1.9,-1.2 1.3,-1.2 C0.6,-1.2 0,-0.6 0,0.1 L0,22.7 "/>
<path class="Note" transform="matrix(0.992,0,0,0.992,1511.83,1142.6)" d="M0,4.2 C0,8.5 3.1,13.3 11.2,13.3 C21.6,13.3 32.5,4.8 32.5,-4 C32.5,-9.9 27.5,-13.2 21.3,-13.2 C11.6,-13.2 0,-5 0,4.2"/>
<path class="Note" transform="matrix(0.992,0,0,0.992,1880.46,1142.6)" d="M0,4.2 C0,8.5 3.1,13.3 11.2,13.3 C21.6,13.3 32.5,4.8 32.5,-4 C32.5,-9.9 27.5,-13.2 21.3,-13.2 C11.6,-13.2 0,-5 0,4.2"/>
<path class="Note" transform="matrix(0.992,0,0,0.992,737.854,1142.6)" d="M0,4.2 C0,8.5 3.1,13.3 11.2,13.3 C21.6,13.3 32.5,4.8 32.5,-4 C32.5,-9.9 27.5,-13.2 21.3,-13.2 C11.6,-13.2 0,-5 0,4.2"/>
<path class="Note" transform="matrix(0.992,0,0,0.992,936.422,696.198)" d="M0,4.2 C0,8.5 3.1,13.3 11.2,13.3 C21.6,13.3 32.5,4.8 32.5,-4 C32.5,-9.9 27.5,-13.2 21.3,-13.2 C11.6,-13.2 0,-5 0,4.2"/>
<path class="Note" transform="matrix(0.992,0,0,0.992,2000.92,1167.4)" d="M0,4.2 C0,8.5 3.1,13.3 11.2,13.3 C21.6,13.3 32.5,4.8 32.5,-4 C32.5,-9.9 27.5,-13.2 21.3,-13.2 C11.6,-13.2 0,-5 0,4.2"/>
<path class="Note" transform="matrix(0.992,0,0,0.992,2126.55,1142.6)" d="M0,4.2 C0,8.5 3.1,13.3 11.2,13.3 C21.6,13.3 32.5,4.8 32.5,-4 C32.5,-9.9 27.5,-13.2 21.3,-13.2 C11.6,-13.2 0,-5 0,4.2"/>
<path class="Note" transform="matrix(0.992,0,0,0.992,1817.38,758.198)" d="M0,4.2 C0,8.5 3.1,13.3 11.2,13.3 C21.6,13.3 32.5,4.8 32.5,-4 C32.5,-9.9 27.5,-13.2 21.3,-13.2 C11.6,-13.2 0,-5 0,4.2"/>
<path class="Note" transform="matrix(0.992,0,0,0.992,1012.55,696.198)" d="M0,4.2 C0,8.5 3.1,13.3 11.2,13.3 C21.6,13.3 32.5,4.8 32.5,-4 C32.5,-9.9 27.5,-13.2 21.3,-13.2 C11.6,-13.2 0,-5 0,4.2"/>
<path class="Note" transform="matrix(0.992,0,0,0.992,555.774,720.998)" d="M0,4.2 C0,8.5 3.1,13.3 11.2,13.3 C21.6,13.3 32.5,4.8 32.5,-4 C32.5,-9.9 27.5,-13.2 21.3,-13.2 C11.6,-13.2 0,-5 0,4.2"/>
<path class="Note" transform="matrix(0.992,0,0,0.992,1126.75,696.198)" d="M0,4.2 C0,8.5 3.1,13.3 11.2,13.3 C21.6,13.3 32.5,4.8 32.5,-4 C32.5,-9.9 27.5,-13.2 21.3,-13.2 C11.6,-13.2 0,-5 0,4.2"/>
<path class="Note" transform="matrix(0.992,0,0,0.992,1741.25,720.998)" d="M0,4.2 C0,8.5 3.1,13.3 11.2,13.3 C21.6,13.3 32.5,4.8 32.5,-4 C32.5,-9.9 27.5,-13.2 21.3,-13.2 C11.6,-13.2 0,-5 0,4.2"/>
<path class="Note" transform="matrix(0.992,0,0,0.992,2419.68,1167.4)" d="M0,4.2 C0,8.5 3.1,13.3 11.2,13.3 C21.6,13.3 32.5,4.8 32.5,-4 C32.5,-9.9 27.5,-13.2 21.3,-13.2 C11.6,-13.2 0,-5 0,4.2"/>
<path class="Note" transform="matrix(0.992,0,0,0.992,2210.3,1167.4)" d="M0,4.2 C0,8.5 3.1,13.3 11.2,13.3 C21.6,13.3 32.5,4.8 32.5,-4 C32.5,-9.9 27.5,-13.2 21.3,-13.2 C11.6,-13.2 0,-5 0,4.2"/>
<path class="Note" transform="matrix(0.992,0,0,0.992,1627.05,720.998)" d="M0,4.2 C0,8.5 3.1,13.3 11.2,13.3 C21.6,13.3 32.5,4.8 32.5,-4 C32.5,-9.9 27.5,-13.2 21.3,-13.2 C11.6,-13.2 0,-5 0,4.2"/>
<path class="Note" transform="matrix(0.992,0,0,0.992,1106.49,1142.6)" d="M0,4.2 C0,8.5 3.1,13.3 11.2,13.3 C21.6,13.3 32.5,4.8 32.5,-4 C32.5,-9.9 27.5,-13.2 21.3,-13.2 C11.6,-13.2 0,-5 0,4.2"/>
<path class="Note" transform="matrix(0.992,0,0,0.992,1550.92,696.198)" d="M0,4.2 C0,8.5 3.1,13.3 11.2,13.3 C21.6,13.3 32.5,4.8 32.5,-4 C32.5,-9.9 27.5,-13.2 21.3,-13.2 C11.6,-13.2 0,-5 0,4.2"/>
<path class="Note" transform="matrix(0.992,0,0,0.992,612.226,1155)" d="M0,4.2 C0,8.5 3.1,13.3 11.2,13.3 C21.6,13.3 32.5,4.8 32.5,-4 C32.5,-9.9 27.5,-13.2 21.3,-13.2 C11.6,-13.2 0,-5 0,4.2"/>
<path class="Note" transform="matrix(0.992,0,0,0.992,746.098,708.598)" d="M0,4.2 C0,8.5 3.1,13.3 11.2,13.3 C21.6,13.3 32.5,4.8 32.5,-4 C32.5,-9.9 27.5,-13.2 21.3,-13.2 C11.6,-13.2 0,-5 0,4.2"/>
<path class="Note" transform="matrix(0.992,0,0,0.992,631.904,720.998)" d="M0,4.2 C0,8.5 3.1,13.3 11.2,13.3 C21.6,13.3 32.5,4.8 32.5,-4 C32.5,-9.9 27.5,-13.2 21.3,-13.2 C11.6,-13.2 0,-5 0,4.2"/>
<path class="Note" transform="matrix(0.992,0,0,0.992,1226.94,1167.4)" d="M0,4.2 C0,8.5 3.1,13.3 11.2,13.3 C21.6,13.3 32.5,4.8 32.5,-4 C32.5,-9.9 27.5,-13.2 21.3,-13.2 C11.6,-13.2 0,-5 0,4.2"/>
<path class="Note" transform="matrix(0.992,0,0,0.992,822.228,696.198)" d="M0,4.2 C0,8.5 3.1,13.3 11.2,13.3 C21.6,13.3 32.5,4.8 32.5,-4 C32.5,-9.9 27.5,-13.2 21.3,-13.2 C11.6,-13.2 0,-5 0,4.2"/>
<path class="Note" transform="matrix(0.992,0,0,0.992,821.606,1167.4)" d="M0,4.2 C0,8.5 3.1,13.3 11.2,13.3 C21.6,13.3 32.5,4.8 32.5,-4 C32.5,-9.9 27.5,-13.2 21.3,-13.2 C11.6,-13.2 0,-5 0,4.2"/>
<path class="Note" transform="matrix(0.992,0,0,0.992,441.58,720.998)" d="M0,4.2 C0,8.5 3.1,13.3 11.2,13.3 C21.6,13.3 32.5,4.8 32.5,-4 C32.5,-9.9 27.5,-13.2 21.3,-13.2 C11.6,-13.2 0,-5 0,4.2"/>
<path class="Note" transform="matrix(0.992,0,0,0.992,1436.73,708.598)" d="M0,4.2 C0,8.5 3.1,13.3 11.2,13.3 C21.6,13.3 32.5,4.8 32.5,-4 C32.5,-9.9 27.5,-13.2 21.3,-13.2 C11.6,-13.2 0,-5 0,4.2"/>
<path class="Note" transform="matrix(0.992,0,0,0.992,528.473,1167.4)" d="M0,4.2 C0,8.5 3.1,13.3 11.2,13.3 C21.6,13.3 32.5,4.8 32.5,-4 C32.5,-9.9 27.5,-13.2 21.3,-13.2 C11.6,-13.2 0,-5 0,4.2"/>
<path class="Note" transform="matrix(0.992,0,0,0.992,1246.41,708.598)" d="M0,4.2 C0,8.5 3.1,13.3 11.2,13.3 C21.6,13.3 32.5,4.8 32.5,-4 C32.5,-9.9 27.5,-13.2 21.3,-13.2 C11.6,-13.2 0,-5 0,4.2"/>
<path class="Note" transform="matrix(0.992,0,0,0.992,1595.58,1167.4)" d="M0,4.2 C0,8.5 3.1,13.3 11.2,13.3 C21.6,13.3 32.5,4.8 32.5,-4 C32.5,-9.9 27.5,-13.2 21.3,-13.2 C11.6,-13.2 0,-5 0,4.2"/>
<path class="Note" transform="matrix(0.992,0,0,0.992,1360.6,720.998)" d="M0,4.2 C0,8.5 3.1,13.3 11.2,13.3 C21.6,13.3 32.5,4.8 32.5,-4 C32.5,-9.9 27.5,-13.2 21.3,-13.2 C11.6,-13.2 0,-5 0,4.2"/>
<path class="Note" transform="matrix(0.992,0,0,0.992,402.845,1155)" d="M0,4.2 C0,8.5 3.1,13.3 11.2,13.3 C21.6,13.3 32.5,4.8 32.5,-4 C32.5,-9.9 27.5,-13.2 21.3,-13.2 C11.6,-13.2 0,-5 0,4.2"/>
<path class="Note" transform="matrix(0.992,0,0,0.992,2335.93,1142.6)" d="M0,4.2 C0,8.5 3.1,13.3 11.2,13.3 C21.6,13.3 32.5,4.8 32.5,-4 C32.5,-9.9 27.5,-13.2 21.3,-13.2 C11.6,-13.2 0,-5 0,4.2"/>
<path class="Note" transform="matrix(0.992,0,0,0.992,2113.04,696.198)" d="M0,4.2 C0,8.5 3.1,13.3 11.2,13.3 C21.6,13.3 32.5,4.8 32.5,-4 C32.5,-9.9 27.5,-13.2 21.3,-13.2 C11.6,-13.2 0,-5 0,4.2"/>
<path class="Note" transform="matrix(0.992,0,0,0.992,2569.81,671.398)" d="M0,4.2 C0,8.5 3.1,13.3 11.2,13.3 C21.6,13.3 32.5,4.8 32.5,-4 C32.5,-9.9 27.5,-13.2 21.3,-13.2 C11.6,-13.2 0,-5 0,4.2"/>
<path class="Note" transform="matrix(0.992,0,0,0.992,2493.68,671.398)" d="M0,4.2 C0,8.5 3.1,13.3 11.2,13.3 C21.6,13.3 32.5,4.8 32.5,-4 C32.5,-9.9 27.5,-13.2 21.3,-13.2 C11.6,-13.2 0,-5 0,4.2"/>
<path class="Note" transform="matrix(0.992,0,0,0.992,2379.49,671.398)" d="M0,4.2 C0,8.5 3.1,13.3 11.2,13.3 C21.6,13.3 32.5,4.8 32.5,-4 C32.5,-9.9 27.5,-13.2 21.3,-13.2 C11.6,-13.2 0,-5 0,4.2"/>
<path class="Note" transform="matrix(0.992,0,0,0.992,2303.36,683.798)" d="M0,4.2 C0,8.5 3.1,13.3 11.2,13.3 C21.6,13.3 32.5,4.8 32.5,-4 C32.5,-9.9 27.5,-13.2 21.3,-13.2 C11.6,-13.2 0,-5 0,4.2"/>
<path class="Note" transform="matrix(0.992,0,0,0.992,1998.84,696.198)" d="M0,4.2 C0,8.5 3.1,13.3 11.2,13.3 C21.6,13.3 32.5,4.8 32.5,-4 C32.5,-9.9 27.5,-13.2 21.3,-13.2 C11.6,-13.2 0,-5 0,4.2"/>
<path class="Note" transform="matrix(0.992,0,0,0.992,2189.17,696.198)" d="M0,4.2 C0,8.5 3.1,13.3 11.2,13.3 C21.6,13.3 32.5,4.8 32.5,-4 C32.5,-9.9 27.5,-13.2 21.3,-13.2 C11.6,-13.2 0,-5 0,4.2"/>
<path class="Note" transform="matrix(0.992,0,0,0.992,2684.01,671.398)" d="M0,4.2 C0,8.5 3.1,13.3 11.2,13.3 C21.6,13.3 32.5,4.8 32.5,-4 C32.5,-9.9 27.5,-13.2 21.3,-13.2 C11.6,-13.2 0,-5 0,4.2"/>
<path class="Clef" transform="matrix(0.992,0,0,0.992,232.438,1179.8)" d="M12.3,51.3 C12.3,57.9 17.3,66.6 30.8,66.6 C35.5,66.6 39.6,65.4 43.2,63.2 C48.6,59.4 50,52.8 50,46.5 C50,42.6 49.4,38.1 48.4,32.4 C48.1,30.4 47.5,27.4 46.9,23.5 C56.7,20.3 64,10.1 64,-0.2 C64,-15.3 53.3,-25.5 38.7,-25.5 C37.7,-31.5 36.7,-37.4 35.9,-43 C46.4,-54.1 53.7,-66.6 53.7,-82.5 C53.7,-91.6 50.9,-99 49.3,-102.6 C46.9,-107.7 44,-111.2 42.2,-111.2 C41.5,-111.2 38.4,-110 35.1,-106.1 C28.7,-98.5 26.9,-85.7 26.9,-77.3 C26.9,-71.9 27.4,-67 29.1,-55.8 C29,-55.7 23.8,-50.4 21.7,-48.7 C12.6,-40.3 0,-28.1 0,-8.1 C0,10.6 16.3,25.3 34.9,25.3 C37.8,25.3 40.5,25 42.8,24.6 C44.7,34.2 45.9,41.2 45.9,46.5 C45.9,56.9 40.5,62.4 30.4,62.4 C28,62.4 25.9,61.9 25.7,61.9 C25.6,61.8 25.4,61.7 25.4,61.6 C25.4,61.4 25.6,61.3 25.9,61.3 C30.6,60.5 35.3,56.5 35.3,50.1 C35.3,44.7 31.2,39 23.7,39 C16.7,39 12.3,44.7 12.3,51.3 M33.2,-82.2 C34.1,-86.2 38.7,-96.7 43.9,-96.7 C45.4,-96.7 47.8,-91.9 47.8,-84.9 C47.8,-74.5 40.1,-66.7 33.2,-59.9 C32.6,-63.9 32.1,-67.8 32.1,-72 C32.1,-75.7 32.4,-79.1 33.2,-82.2 M42,20.6 C40,21 38.1,21.2 36.2,21.2 C21.9,21.2 9.7,11.2 9.7,-3.9 C9.7,-16.1 18.3,-27 27.1,-34.6 C28.8,-36.1 30.4,-37.5 31.9,-39 C32.8,-33.6 33.5,-28.9 34.2,-24.8 C25.1,-22.1 18.9,-12.5 18.9,-3.1 C18.9,3.9 24.4,13.5 32.4,13.5 C33.2,13.5 34.1,13.1 34.1,12.2 C34.1,11.3 33.1,10.8 31.9,10 C28,7.6 25.8,5 25.8,0.1 C25.8,-6 30.4,-10.9 36.2,-12.3 L42,20.6 M56.2,2.1 C56.2,9.2 53.3,16.5 46.2,19.4 C44.1,7.4 41.4,-8.5 40.7,-12.9 C49.7,-12.9 56.2,-6.8 56.2,2.1"/>
<path class="Clef" transform="matrix(0.992,0,0,0.992,232.438,708.598)" d="M12.3,51.3 C12.3,57.9 17.3,66.6 30.8,66.6 C35.5,66.6 39.6,65.4 43.2,63.2 C48.6,59.4 50,52.8 50,46.5 C50,42.6 49.4,38.1 48.4,32.4 C48.1,30.4 47.5,27.4 46.9,23.5 C56.7,20.3 64,10.1 64,-0.2 C64,-15.3 53.3,-25.5 38.7,-25.5 C37.7,-31.5 36.7,-37.4 35.9,-43 C46.4,-54.1 53.7,-66.6 53.7,-82.5 C53.7,-91.6 50.9,-99 49.3,-102.6 C46.9,-107.7 44,-111.2 42.2,-111.2 C41.5,-111.2 38.4,-110 35.1,-106.1 C28.7,-98.5 26.9,-85.7 26.9,-77.3 C26.9,-71.9 27.4,-67 29.1,-55.8 C29,-55.7 23.8,-50.4 21.7,-48.7 C12.6,-40.3 0,-28.1 0,-8.1 C0,10.6 16.3,25.3 34.9,25.3 C37.8,25.3 40.5,25 42.8,24.6 C44.7,34.2 45.9,41.2 45.9,46.5 C45.9,56.9 40.5,62.4 30.4,62.4 C28,62.4 25.9,61.9 25.7,61.9 C25.6,61.8 25.4,61.7 25.4,61.6 C25.4,61.4 25.6,61.3 25.9,61.3 C30.6,60.5 35.3,56.5 35.3,50.1 C35.3,44.7 31.2,39 23.7,39 C16.7,39 12.3,44.7 12.3,51.3 M33.2,-82.2 C34.1,-86.2 38.7,-96.7 43.9,-96.7 C45.4,-96.7 47.8,-91.9 47.8,-84.9 C47.8,-74.5 40.1,-66.7 33.2,-59.9 C32.6,-63.9 32.1,-67.8 32.1,-72 C32.1,-75.7 32.4,-79.1 33.2,-82.2 M42,20.6 C40,21 38.1,21.2 36.2,21.2 C21.9,21.2 9.7,11.2 9.7,-3.9 C9.7,-16.1 18.3,-27 27.1,-34.6 C28.8,-36.1 30.4,-37.5 31.9,-39 C32.8,-33.6 33.5,-28.9 34.2,-24.8 C25.1,-22.1 18.9,-12.5 18.9,-3.1 C18.9,3.9 24.4,13.5 32.4,13.5 C33.2,13.5 34.1,13.1 34.1,12.2 C34.1,11.3 33.1,10.8 31.9,10 C28,7.6 25.8,5 25.8,0.1 C25.8,-6 30.4,-10.9 36.2,-12.3 L42,20.6 M56.2,2.1 C56.2,9.2 53.3,16.5 46.2,19.4 C44.1,7.4 41.4,-8.5 40.7,-12.9 C49.7,-12.9 56.2,-6.8 56.2,2.1"/>
<path class="KeySig" transform="matrix(0.992,0,0,0.992,320.711,683.798)" d="M12,-15.5 C7,-15.5 4.1,-12.4 3.6,-11.8 L4,-43.9 C4,-44.7 3.4,-45.3 2.6,-45.3 L1.4,-45.3 C0.6,-45.3 0,-44.7 0,-43.9 L0.5,16.2 C0.5,17 1.1,17.6 1.9,17.6 C2.1,17.6 2.5,17.5 2.7,17.4 C11.3,13.1 20.3,4.9 20.3,-5.4 C20.3,-10.6 17.9,-15.5 12,-15.5 M3.3,12.7 L3.6,-6.8 C3.8,-7.7 5.3,-10.6 9.3,-10.6 C12.9,-10.6 13.2,-7.2 13.2,-5.1 C13.2,3.8 9.9,7.5 3.3,12.7"/>
<path class="KeySig" transform="matrix(0.992,0,0,0.992,320.711,1155)" d="M12,-15.5 C7,-15.5 4.1,-12.4 3.6,-11.8 L4,-43.9 C4,-44.7 3.4,-45.3 2.6,-45.3 L1.4,-45.3 C0.6,-45.3 0,-44.7 0,-43.9 L0.5,16.2 C0.5,17 1.1,17.6 1.9,17.6 C2.1,17.6 2.5,17.5 2.7,17.4 C11.3,13.1 20.3,4.9 20.3,-5.4 C20.3,-10.6 17.9,-15.5 12,-15.5 M3.3,12.7 L3.6,-6.8 C3.8,-7.7 5.3,-10.6 9.3,-10.6 C12.9,-10.6 13.2,-7.2 13.2,-5.1 C13.2,3.8 9.9,7.5 3.3,12.7"/>
<path class="TimeSig" transform="matrix(0.992,0,0,0.992,364.266,658.998)" d="M20.8,12.7 L20.8,20.1 L12.5,20.1 C11.8,20.1 11.1,20.7 11.1,21.5 L11.1,23.4 C11.1,24.2 11.8,24.8 12.5,24.8 L42.8,24.8 C43.6,24.8 44.2,24.2 44.2,23.4 L44.2,21.5 C44.2,20.7 43.6,20.1 42.8,20.1 L33.9,20.1 L33.9,12.7 L42.8,12.7 C43.6,12.7 44.2,12 44.2,11.2 L44.2,9.3 C44.2,8.6 43.6,7.9 42.8,7.9 L33.9,7.9 L33.9,-8 C33.9,-8.6 33.6,-9.1 33.1,-9.3 L31.9,-9.9 C31.7,-10 31.4,-10.1 31.2,-10.1 C30.9,-10 30.5,-9.9 30.3,-9.7 L21.2,-1.4 C20.9,-1.1 20.8,-0.7 20.8,-0.3 L20.8,7.9 L9.3,7.9 C9.3,7.9 20.4,-4.1 32.2,-19.9 C32.6,-20.4 32.7,-20.9 32.7,-21.3 C32.7,-21.8 32.5,-22.2 32.4,-22.3 L30.2,-24.5 C30,-24.7 29.6,-24.9 29.2,-24.9 C28.6,-24.9 15.1,-24.9 14.4,-24.9 C13.6,-24.9 13.1,-24.3 13,-23.7 C13,-23.7 12.5,-16.3 9.9,-8.2 C7.3,-0.1 4.3,4.9 1.7,8.6 C1.7,8.6 1.4,9.1 1.4,9.7 C1.4,9.9 1.4,10.1 1.5,10.3 C1.9,11 2.5,12.1 2.5,12.1 C2.5,12.1 2.7,12.7 3.6,12.7 L20.8,12.7 "/>
<path class="TimeSig" transform="matrix(0.992,0,0,0.992,364.266,708.598)" d="M20.8,12.7 L20.8,20.1 L12.5,20.1 C11.8,20.1 11.1,20.7 11.1,21.5 L11.1,23.4 C11.1,24.2 11.8,24.8 12.5,24.8 L42.8,24.8 C43.6,24.8 44.2,24.2 44.2,23.4 L44.2,21.5 C44.2,20.7 43.6,20.1 42.8,20.1 L33.9,20.1 L33.9,12.7 L42.8,12.7 C43.6,12.7 44.2,12 44.2,11.2 L44.2,9.3 C44.2,8.6 43.6,7.9 42.8,7.9 L33.9,7.9 L33.9,-8 C33.9,-8.6 33.6,-9.1 33.1,-9.3 L31.9,-9.9 C31.7,-10 31.4,-10.1 31.2,-10.1 C30.9,-10 30.5,-9.9 30.3,-9.7 L21.2,-1.4 C20.9,-1.1 20.8,-0.7 20.8,-0.3 L20.8,7.9 L9.3,7.9 C9.3,7.9 20.4,-4.1 32.2,-19.9 C32.6,-20.4 32.7,-20.9 32.7,-21.3 C32.7,-21.8 32.5,-22.2 32.4,-22.3 L30.2,-24.5 C30,-24.7 29.6,-24.9 29.2,-24.9 C28.6,-24.9 15.1,-24.9 14.4,-24.9 C13.6,-24.9 13.1,-24.3 13,-23.7 C13,-23.7 12.5,-16.3 9.9,-8.2 C7.3,-0.1 4.3,4.9 1.7,8.6 C1.7,8.6 1.4,9.1 1.4,9.7 C1.4,9.9 1.4,10.1 1.5,10.3 C1.9,11 2.5,12.1 2.5,12.1 C2.5,12.1 2.7,12.7 3.6,12.7 L20.8,12.7 "/>
<path class="Rest" transform="matrix(0.992,0,0,0.992,1386.2,1155)" d="M23,16.6 C22.9,16.5 22.7,16.3 22.4,15.9 L10.9,1.7 C10.8,1.6 10.7,1.3 10.7,1.1 C10.7,0.8 10.8,0.4 10.9,0.2 L21.1,-15.2 C21.2,-15.4 21.3,-15.7 21.3,-15.9 L21.3,-16.8 C21.3,-17.1 21.2,-17.4 21,-17.6 L4.8,-39.5 C4.8,-39.5 4.4,-40.1 3.8,-40.1 C3.5,-40.1 3.3,-40.1 3,-39.8 C2.6,-39.5 2.5,-39.1 2.5,-38.8 C2.5,-38.2 2.8,-37.7 2.8,-37.7 L10.4,-27.3 C10.6,-27 10.7,-26.6 10.7,-26.1 C10.7,-25.7 10.6,-25.2 10.4,-24.9 L0.3,-9.5 C0.2,-9.3 0.1,-8.9 0.1,-8.7 L0.1,-7.8 C0.1,-7.5 0.2,-7.2 0.4,-7 L11.6,6.9 C11.2,6.8 10.3,6.6 9.1,6.6 C4,6.6 0,10.8 0,15.9 C0,17.3 0.3,18.7 1.1,19.8 C3.2,23 10.7,32.5 10.7,32.5 C10.7,32.5 11.2,33.1 11.9,33.1 C12.1,33.1 12.3,33.1 12.5,32.9 C13,32.5 13.2,32.1 13.2,31.7 C13.2,31.3 13,31 12.9,30.8 C12.6,30.3 9.4,24.5 9.4,24.5 C9.4,24.5 8.7,23.1 8.7,21.3 C8.7,18.1 11.1,15.5 14.3,15.5 C15.6,15.5 16.7,15.9 17.5,16.4 L21.4,18.9 C21.4,18.9 21.8,19.1 22.2,19.1 C22.6,19.1 22.9,19 23.2,18.6 C23.4,18.3 23.5,18 23.5,17.7 C23.5,17.4 23.4,17.2 23.2,16.9 L23,16.6 "/>
<path class="Rest" transform="matrix(0.992,0,0,0.992,2578.93,1155)" d="M23,16.6 C22.9,16.5 22.7,16.3 22.4,15.9 L10.9,1.7 C10.8,1.6 10.7,1.3 10.7,1.1 C10.7,0.8 10.8,0.4 10.9,0.2 L21.1,-15.2 C21.2,-15.4 21.3,-15.7 21.3,-15.9 L21.3,-16.8 C21.3,-17.1 21.2,-17.4 21,-17.6 L4.8,-39.5 C4.8,-39.5 4.4,-40.1 3.8,-40.1 C3.5,-40.1 3.3,-40.1 3,-39.8 C2.6,-39.5 2.5,-39.1 2.5,-38.8 C2.5,-38.2 2.8,-37.7 2.8,-37.7 L10.4,-27.3 C10.6,-27 10.7,-26.6 10.7,-26.1 C10.7,-25.7 10.6,-25.2 10.4,-24.9 L0.3,-9.5 C0.2,-9.3 0.1,-8.9 0.1,-8.7 L0.1,-7.8 C0.1,-7.5 0.2,-7.2 0.4,-7 L11.6,6.9 C11.2,6.8 10.3,6.6 9.1,6.6 C4,6.6 0,10.8 0,15.9 C0,17.3 0.3,18.7 1.1,19.8 C3.2,23 10.7,32.5 10.7,32.5 C10.7,32.5 11.2,33.1 11.9,33.1 C12.1,33.1 12.3,33.1 12.5,32.9 C13,32.5 13.2,32.1 13.2,31.7 C13.2,31.3 13,31 12.9,30.8 C12.6,30.3 9.4,24.5 9.4,24.5 C9.4,24.5 8.7,23.1 8.7,21.3 C8.7,18.1 11.1,15.5 14.3,15.5 C15.6,15.5 16.7,15.9 17.5,16.4 L21.4,18.9 C21.4,18.9 21.8,19.1 22.2,19.1 C22.6,19.1 22.9,19 23.2,18.6 C23.4,18.3 23.5,18 23.5,17.7 C23.5,17.4 23.4,17.2 23.2,16.9 L23,16.6 "/>
<path class="Rest" transform="matrix(0.992,0,0,0.992,980.861,1155)" d="M23,16.6 C22.9,16.5 22.7,16.3 22.4,15.9 L10.9,1.7 C10.8,1.6 10.7,1.3 10.7,1.1 C10.7,0.8 10.8,0.4 10.9,0.2 L21.1,-15.2 C21.2,-15.4 21.3,-15.7 21.3,-15.9 L21.3,-16.8 C21.3,-17.1 21.2,-17.4 21,-17.6 L4.8,-39.5 C4.8,-39.5 4.4,-40.1 3.8,-40.1 C3.5,-40.1 3.3,-40.1 3,-39.8 C2.6,-39.5 2.5,-39.1 2.5,-38.8 C2.5,-38.2 2.8,-37.7 2.8,-37.7 L10.4,-27.3 C10.6,-27 10.7,-26.6 10.7,-26.1 C10.7,-25.7 10.6,-25.2 10.4,-24.9 L0.3,-9.5 C0.2,-9.3 0.1,-8.9 0.1,-8.7 L0.1,-7.8 C0.1,-7.5 0.2,-7.2 0.4,-7 L11.6,6.9 C11.2,6.8 10.3,6.6 9.1,6.6 C4,6.6 0,10.8 0,15.9 C0,17.3 0.3,18.7 1.1,19.8 C3.2,23 10.7,32.5 10.7,32.5 C10.7,32.5 11.2,33.1 11.9,33.1 C12.1,33.1 12.3,33.1 12.5,32.9 C13,32.5 13.2,32.1 13.2,31.7 C13.2,31.3 13,31 12.9,30.8 C12.6,30.3 9.4,24.5 9.4,24.5 C9.4,24.5 8.7,23.1 8.7,21.3 C8.7,18.1 11.1,15.5 14.3,15.5 C15.6,15.5 16.7,15.9 17.5,16.4 L21.4,18.9 C21.4,18.9 21.8,19.1 22.2,19.1 C22.6,19.1 22.9,19 23.2,18.6 C23.4,18.3 23.5,18 23.5,17.7 C23.5,17.4 23.4,17.2 23.2,16.9 L23,16.6 "/>
<path class="Rest" transform="matrix(0.992,0,0,0.992,1754.84,1155)" d="M23,16.6 C22.9,16.5 22.7,16.3 22.4,15.9 L10.9,1.7 C10.8,1.6 10.7,1.3 10.7,1.1 C10.7,0.8 10.8,0.4 10.9,0.2 L21.1,-15.2 C21.2,-15.4 21.3,-15.7 21.3,-15.9 L21.3,-16.8 C21.3,-17.1 21.2,-17.4 21,-17.6 L4.8,-39.5 C4.8,-39.5 4.4,-40.1 3.8,-40.1 C3.5,-40.1 3.3,-40.1 3,-39.8 C2.6,-39.5 2.5,-39.1 2.5,-38.8 C2.5,-38.2 2.8,-37.7 2.8,-37.7 L10.4,-27.3 C10.6,-27 10.7,-26.6 10.7,-26.1 C10.7,-25.7 10.6,-25.2 10.4,-24.9 L0.3,-9.5 C0.2,-9.3 0.1,-8.9 0.1,-8.7 L0.1,-7.8 C0.1,-7.5 0.2,-7.2 0.4,-7 L11.6,6.9 C11.2,6.8 10.3,6.6 9.1,6.6 C4,6.6 0,10.8 0,15.9 C0,17.3 0.3,18.7 1.1,19.8 C3.2,23 10.7,32.5 10.7,32.5 C10.7,32.5 11.2,33.1 11.9,33.1 C12.1,33.1 12.3,33.1 12.5,32.9 C13,32.5 13.2,32.1 13.2,31.7 C13.2,31.3 13,31 12.9,30.8 C12.6,30.3 9.4,24.5 9.4,24.5 C9.4,24.5 8.7,23.1 8.7,21.3 C8.7,18.1 11.1,15.5 14.3,15.5 C15.6,15.5 16.7,15.9 17.5,16.4 L21.4,18.9 C21.4,18.9 21.8,19.1 22.2,19.1 C22.6,19.1 22.9,19 23.2,18.6 C23.4,18.3 23.5,18 23.5,17.7 C23.5,17.4 23.4,17.2 23.2,16.9 L23,16.6 "/>
<path class="Tuplet" d="M2098.55,1064.22 C2100.66,1063.54 2101.52,1063.18 2102.6,1062.46 C2104.71,1061.07 2106.02,1058.59 2106.02,1056.07 C2106.02,1051.8 2102.6,1048.92 2097.56,1048.92 C2092.65,1048.92 2088.51,1051.98 2088.51,1055.67 C2088.51,1057.51 2089.64,1058.77 2091.35,1058.77 C2092.83,1058.77 2093.91,1057.69 2093.91,1056.21 C2093.91,1055.44 2093.69,1054.9 2092.97,1054.18 C2092.52,1053.78 2092.34,1053.46 2092.34,1053.15 C2092.34,1052.07 2094.59,1050.94 2096.7,1050.94 C2099.72,1050.94 2101.52,1052.61 2101.52,1055.4 C2101.52,1059.4 2098.68,1063.18 2095.67,1063.18 C2095.53,1063.18 2095.13,1063.14 2094.63,1063.09 C2093.33,1063 2093.33,1063 2093.06,1063 C2092.07,1063 2091.53,1063.45 2091.53,1064.26 C2091.53,1064.98 2092.02,1065.43 2092.83,1065.43 C2093.06,1065.43 2093.37,1065.39 2093.73,1065.34 C2094.36,1065.21 2095.04,1065.16 2095.44,1065.16 C2097.56,1065.16 2099,1067.05 2099,1069.84 C2099,1074.7 2096.61,1079.38 2091.17,1079.38 C2088.65,1079.38 2086.49,1078.12 2086.49,1076.68 C2086.49,1076.19 2086.67,1076.01 2087.39,1075.69 C2088.69,1075.11 2089.23,1074.3 2089.23,1073.08 C2089.23,1071.51 2087.97,1070.29 2086.35,1070.29 C2084.42,1070.29 2083.16,1071.82 2083.16,1074.16 C2083.16,1078.53 2086.49,1081.27 2091.89,1081.27 C2098.68,1081.27 2103.86,1076.73 2103.86,1070.7 C2103.86,1067.19 2101.7,1065.21 2098.55,1064.22"/>
<polyline class="Tuplet" fill="none" stroke="#000000" stroke-width="2.48" stroke-linejoin="miter" stroke-miterlimit="2" points="2031.66,1074.4 2031.66,1055.8 2070.76,1061.58"/>
<polyline class="Tuplet" fill="none" stroke="#000000" stroke-width="2.48" stroke-linejoin="miter" stroke-miterlimit="2" points="2118.42,1068.62 2157.53,1074.4 2157.53,1093"/>
<path class="Tuplet" d="M1061.39,1254.31 C1063.51,1253.64 1064.36,1253.28 1065.44,1252.56 C1067.56,1251.16 1068.86,1248.69 1068.86,1246.17 C1068.86,1241.89 1065.44,1239.01 1060.4,1239.01 C1055.5,1239.01 1051.36,1242.07 1051.36,1245.76 C1051.36,1247.61 1052.48,1248.87 1054.19,1248.87 C1055.68,1248.87 1056.76,1247.79 1056.76,1246.3 C1056.76,1245.54 1056.53,1245 1055.81,1244.28 C1055.36,1243.87 1055.18,1243.56 1055.18,1243.24 C1055.18,1242.16 1057.43,1241.04 1059.55,1241.04 C1062.56,1241.04 1064.36,1242.7 1064.36,1245.49 C1064.36,1249.5 1061.53,1253.28 1058.51,1253.28 C1058.38,1253.28 1057.97,1253.23 1057.48,1253.19 C1056.17,1253.1 1056.17,1253.1 1055.9,1253.1 C1054.91,1253.1 1054.37,1253.55 1054.37,1254.36 C1054.37,1255.08 1054.87,1255.53 1055.68,1255.53 C1055.9,1255.53 1056.22,1255.48 1056.58,1255.44 C1057.21,1255.3 1057.88,1255.26 1058.29,1255.26 C1060.4,1255.26 1061.84,1257.15 1061.84,1259.94 C1061.84,1264.8 1059.46,1269.48 1054.01,1269.48 C1051.49,1269.48 1049.33,1268.22 1049.33,1266.78 C1049.33,1266.28 1049.51,1266.1 1050.23,1265.79 C1051.54,1265.2 1052.08,1264.39 1052.08,1263.18 C1052.08,1261.6 1050.82,1260.39 1049.2,1260.39 C1047.26,1260.39 1046,1261.92 1046,1264.26 C1046,1268.62 1049.33,1271.37 1054.73,1271.37 C1061.53,1271.37 1066.7,1266.82 1066.7,1260.79 C1066.7,1257.28 1064.54,1255.3 1061.39,1254.31"/>
<polyline class="Tuplet" fill="none" stroke="#000000" stroke-width="2.48" stroke-linejoin="miter" stroke-miterlimit="2" points="994.501,1236.59 994.501,1255.19 1033.61,1255.19"/>
<polyline class="Tuplet" fill="none" stroke="#000000" stroke-width="2.48" stroke-linejoin="miter" stroke-miterlimit="2" points="1081.27,1255.19 1120.38,1255.19 1120.38,1236.59"/>
<path class="Tuplet" d="M686.56,1256.94 C688.675,1256.27 689.53,1255.91 690.61,1255.19 C692.725,1253.79 694.03,1251.32 694.03,1248.8 C694.03,1244.52 690.61,1241.64 685.57,1241.64 C680.665,1241.64 676.525,1244.7 676.525,1248.39 C676.525,1250.24 677.65,1251.5 679.36,1251.5 C680.845,1251.5 681.925,1250.42 681.925,1248.93 C681.925,1248.17 681.7,1247.63 680.98,1246.91 C680.53,1246.5 680.35,1246.19 680.35,1245.87 C680.35,1244.79 682.6,1243.67 684.715,1243.67 C687.73,1243.67 689.53,1245.33 689.53,1248.12 C689.53,1252.13 686.695,1255.91 683.68,1255.91 C683.545,1255.91 683.14,1255.86 682.645,1255.82 C681.34,1255.73 681.34,1255.73 681.07,1255.73 C680.08,1255.73 679.54,1256.18 679.54,1256.99 C679.54,1257.71 680.035,1258.16 680.845,1258.16 C681.07,1258.16 681.385,1258.11 681.745,1258.07 C682.375,1257.93 683.05,1257.89 683.455,1257.89 C685.57,1257.89 687.01,1259.78 687.01,1262.57 C687.01,1267.43 684.625,1272.11 679.18,1272.11 C676.66,1272.11 674.5,1270.85 674.5,1269.41 C674.5,1268.91 674.68,1268.73 675.4,1268.42 C676.705,1267.83 677.245,1267.02 677.245,1265.81 C677.245,1264.23 675.985,1263.02 674.365,1263.02 C672.43,1263.02 671.17,1264.55 671.17,1266.89 C671.17,1271.25 674.5,1274 679.9,1274 C686.695,1274 691.87,1269.45 691.87,1263.42 C691.87,1259.91 689.71,1257.93 686.56,1256.94"/>
<polyline class="Tuplet" fill="none" stroke="#000000" stroke-width="2.48" stroke-linejoin="miter" stroke-miterlimit="2" points="613.466,1242.37 613.466,1260.97 658.774,1258.91"/>
<polyline class="Tuplet" fill="none" stroke="#000000" stroke-width="2.48" stroke-linejoin="miter" stroke-miterlimit="2" points="706.433,1256.74 751.742,1254.67 751.742,1236.07"/>
<path class="Tuplet" d="M498.128,1060.71 C500.243,1060.03 501.098,1059.67 502.178,1058.95 C504.293,1057.56 505.598,1055.08 505.598,1052.56 C505.598,1048.29 502.178,1045.41 497.138,1045.41 C492.233,1045.41 488.093,1048.47 488.093,1052.16 C488.093,1054 489.218,1055.26 490.928,1055.26 C492.413,1055.26 493.493,1054.18 493.493,1052.7 C493.493,1051.93 493.268,1051.39 492.548,1050.67 C492.098,1050.27 491.918,1049.95 491.918,1049.64 C491.918,1048.56 494.168,1047.43 496.283,1047.43 C499.298,1047.43 501.098,1049.1 501.098,1051.89 C501.098,1055.89 498.263,1059.67 495.248,1059.67 C495.113,1059.67 494.708,1059.63 494.213,1059.58 C492.908,1059.49 492.908,1059.49 492.638,1059.49 C491.648,1059.49 491.108,1059.94 491.108,1060.75 C491.108,1061.47 491.603,1061.92 492.413,1061.92 C492.638,1061.92 492.953,1061.88 493.313,1061.83 C493.943,1061.7 494.618,1061.65 495.023,1061.65 C497.138,1061.65 498.578,1063.54 498.578,1066.33 C498.578,1071.19 496.193,1075.87 490.748,1075.87 C488.228,1075.87 486.068,1074.61 486.068,1073.17 C486.068,1072.68 486.248,1072.5 486.968,1072.18 C488.273,1071.6 488.813,1070.79 488.813,1069.57 C488.813,1068 487.553,1066.78 485.933,1066.78 C483.998,1066.78 482.738,1068.31 482.738,1070.65 C482.738,1075.02 486.068,1077.76 491.468,1077.76 C498.263,1077.76 503.438,1073.22 503.438,1067.19 C503.438,1063.68 501.278,1061.7 498.128,1060.71"/>
<polyline class="Tuplet" fill="none" stroke="#000000" stroke-width="2.48" stroke-linejoin="miter" stroke-miterlimit="2" points="416.485,1089.39 416.485,1070.79 470.342,1064.41"/>
<polyline class="Tuplet" fill="none" stroke="#000000" stroke-width="2.48" stroke-linejoin="miter" stroke-miterlimit="2" points="518.001,1058.76 571.858,1052.39 571.858,1070.99"/>
<path class="Tuplet" d="M539.694,600.954 C541.809,600.279 542.664,599.919 543.744,599.199 C545.859,597.804 547.164,595.329 547.164,592.809 C547.164,588.534 543.744,585.654 538.704,585.654 C533.799,585.654 529.659,588.714 529.659,592.404 C529.659,594.249 530.784,595.509 532.494,595.509 C533.979,595.509 535.059,594.429 535.059,592.944 C535.059,592.179 534.834,591.639 534.114,590.919 C533.664,590.514 533.484,590.199 533.484,589.884 C533.484,588.804 535.734,587.679 537.849,587.679 C540.864,587.679 542.664,589.344 542.664,592.134 C542.664,596.139 539.829,599.919 536.814,599.919 C536.679,599.919 536.274,599.874 535.779,599.829 C534.474,599.739 534.474,599.739 534.204,599.739 C533.214,599.739 532.674,600.189 532.674,600.999 C532.674,601.719 533.169,602.169 533.979,602.169 C534.204,602.169 534.519,602.124 534.879,602.079 C535.509,601.944 536.184,601.899 536.589,601.899 C538.704,601.899 540.144,603.789 540.144,606.579 C540.144,611.439 537.759,616.119 532.314,616.119 C529.794,616.119 527.634,614.859 527.634,613.419 C527.634,612.924 527.814,612.744 528.534,612.429 C529.839,611.844 530.379,611.034 530.379,609.819 C530.379,608.244 529.119,607.029 527.499,607.029 C525.564,607.029 524.304,608.559 524.304,610.899 C524.304,615.264 527.634,618.009 533.034,618.009 C539.829,618.009 545.004,613.464 545.004,607.434 C545.004,603.924 542.844,601.944 539.694,600.954"/>
<polyline class="Tuplet" fill="none" stroke="#000000" stroke-width="2.48" stroke-linejoin="miter" stroke-miterlimit="2" points="472.316,620.434 472.316,601.834 511.908,601.834"/>
<polyline class="Tuplet" fill="none" stroke="#000000" stroke-width="2.48" stroke-linejoin="miter" stroke-miterlimit="2" points="559.567,601.834 599.159,601.834 599.159,620.434"/>
<path class="Tuplet" d="M1725.17,600.954 C1727.28,600.279 1728.14,599.919 1729.22,599.199 C1731.33,597.804 1732.64,595.329 1732.64,592.809 C1732.64,588.534 1729.22,585.654 1724.18,585.654 C1719.27,585.654 1715.13,588.714 1715.13,592.404 C1715.13,594.249 1716.26,595.509 1717.97,595.509 C1719.45,595.509 1720.53,594.429 1720.53,592.944 C1720.53,592.179 1720.31,591.639 1719.59,590.919 C1719.14,590.514 1718.96,590.199 1718.96,589.884 C1718.96,588.804 1721.21,587.679 1723.32,587.679 C1726.34,587.679 1728.14,589.344 1728.14,592.134 C1728.14,596.139 1725.3,599.919 1722.29,599.919 C1722.15,599.919 1721.75,599.874 1721.25,599.829 C1719.95,599.739 1719.95,599.739 1719.68,599.739 C1718.69,599.739 1718.15,600.189 1718.15,600.999 C1718.15,601.719 1718.64,602.169 1719.45,602.169 C1719.68,602.169 1719.99,602.124 1720.35,602.079 C1720.98,601.944 1721.66,601.899 1722.06,601.899 C1724.18,601.899 1725.62,603.789 1725.62,606.579 C1725.62,611.439 1723.23,616.119 1717.79,616.119 C1715.27,616.119 1713.11,614.859 1713.11,613.419 C1713.11,612.924 1713.29,612.744 1714.01,612.429 C1715.31,611.844 1715.85,611.034 1715.85,609.819 C1715.85,608.244 1714.59,607.029 1712.97,607.029 C1711.04,607.029 1709.78,608.559 1709.78,610.899 C1709.78,615.264 1713.11,618.009 1718.51,618.009 C1725.3,618.009 1730.48,613.464 1730.48,607.434 C1730.48,603.924 1728.32,601.944 1725.17,600.954"/>
<polyline class="Tuplet" fill="none" stroke="#000000" stroke-width="2.48" stroke-linejoin="miter" stroke-miterlimit="2" points="1657.79,620.434 1657.79,601.834 1697.38,601.834"/>
<polyline class="Tuplet" fill="none" stroke="#000000" stroke-width="2.48" stroke-linejoin="miter" stroke-miterlimit="2" points="1745.04,601.834 1784.63,601.834 1784.63,620.434"/>
<path class="Tuplet" d="M2307.93,1064.22 C2310.05,1063.54 2310.9,1063.18 2311.98,1062.46 C2314.1,1061.07 2315.4,1058.59 2315.4,1056.07 C2315.4,1051.8 2311.98,1048.92 2306.94,1048.92 C2302.04,1048.92 2297.9,1051.98 2297.9,1055.67 C2297.9,1057.51 2299.02,1058.77 2300.73,1058.77 C2302.22,1058.77 2303.3,1057.69 2303.3,1056.21 C2303.3,1055.44 2303.07,1054.9 2302.35,1054.18 C2301.9,1053.78 2301.72,1053.46 2301.72,1053.15 C2301.72,1052.07 2303.97,1050.94 2306.09,1050.94 C2309.1,1050.94 2310.9,1052.61 2310.9,1055.4 C2310.9,1059.4 2308.07,1063.18 2305.05,1063.18 C2304.92,1063.18 2304.51,1063.14 2304.02,1063.09 C2302.71,1063 2302.71,1063 2302.44,1063 C2301.45,1063 2300.91,1063.45 2300.91,1064.26 C2300.91,1064.98 2301.41,1065.43 2302.22,1065.43 C2302.44,1065.43 2302.76,1065.39 2303.12,1065.34 C2303.75,1065.21 2304.42,1065.16 2304.83,1065.16 C2306.94,1065.16 2308.38,1067.05 2308.38,1069.84 C2308.38,1074.7 2306,1079.38 2300.55,1079.38 C2298.03,1079.38 2295.87,1078.12 2295.87,1076.68 C2295.87,1076.19 2296.05,1076.01 2296.77,1075.69 C2298.08,1075.11 2298.62,1074.3 2298.62,1073.08 C2298.62,1071.51 2297.36,1070.29 2295.74,1070.29 C2293.8,1070.29 2292.54,1071.82 2292.54,1074.16 C2292.54,1078.53 2295.87,1081.27 2301.27,1081.27 C2308.07,1081.27 2313.24,1076.73 2313.24,1070.7 C2313.24,1067.19 2311.08,1065.21 2307.93,1064.22"/>
<polyline class="Tuplet" fill="none" stroke="#000000" stroke-width="2.48" stroke-linejoin="miter" stroke-miterlimit="2" points="2241.04,1074.4 2241.04,1055.8 2280.14,1061.58"/>
<polyline class="Tuplet" fill="none" stroke="#000000" stroke-width="2.48" stroke-linejoin="miter" stroke-miterlimit="2" points="2327.8,1068.62 2366.91,1074.4 2366.91,1093"/>
<path class="Tuplet" d="M1835.37,1254.31 C1837.48,1253.64 1838.34,1253.28 1839.42,1252.56 C1841.53,1251.16 1842.84,1248.69 1842.84,1246.17 C1842.84,1241.89 1839.42,1239.01 1834.38,1239.01 C1829.47,1239.01 1825.33,1242.07 1825.33,1245.76 C1825.33,1247.61 1826.46,1248.87 1828.17,1248.87 C1829.65,1248.87 1830.73,1247.79 1830.73,1246.3 C1830.73,1245.54 1830.51,1245 1829.79,1244.28 C1829.34,1243.87 1829.16,1243.56 1829.16,1243.24 C1829.16,1242.16 1831.41,1241.04 1833.52,1241.04 C1836.54,1241.04 1838.34,1242.7 1838.34,1245.49 C1838.34,1249.5 1835.5,1253.28 1832.49,1253.28 C1832.35,1253.28 1831.95,1253.23 1831.45,1253.19 C1830.15,1253.1 1830.15,1253.1 1829.88,1253.1 C1828.89,1253.1 1828.35,1253.55 1828.35,1254.36 C1828.35,1255.08 1828.84,1255.53 1829.65,1255.53 C1829.88,1255.53 1830.19,1255.48 1830.55,1255.44 C1831.18,1255.3 1831.86,1255.26 1832.26,1255.26 C1834.38,1255.26 1835.82,1257.15 1835.82,1259.94 C1835.82,1264.8 1833.43,1269.48 1827.99,1269.48 C1825.47,1269.48 1823.31,1268.22 1823.31,1266.78 C1823.31,1266.28 1823.49,1266.1 1824.21,1265.79 C1825.51,1265.2 1826.05,1264.39 1826.05,1263.18 C1826.05,1261.6 1824.79,1260.39 1823.17,1260.39 C1821.24,1260.39 1819.98,1261.92 1819.98,1264.26 C1819.98,1268.62 1823.31,1271.37 1828.71,1271.37 C1835.5,1271.37 1840.68,1266.82 1840.68,1260.79 C1840.68,1257.28 1838.52,1255.3 1835.37,1254.31"/>
<polyline class="Tuplet" fill="none" stroke="#000000" stroke-width="2.48" stroke-linejoin="miter" stroke-miterlimit="2" points="1768.48,1236.59 1768.48,1255.19 1807.58,1255.19"/>
<polyline class="Tuplet" fill="none" stroke="#000000" stroke-width="2.48" stroke-linejoin="miter" stroke-miterlimit="2" points="1855.24,1255.19 1894.35,1255.19 1894.35,1236.59"/>
<path class="Tuplet" d="M1466.73,1254.31 C1468.85,1253.64 1469.7,1253.28 1470.78,1252.56 C1472.9,1251.16 1474.2,1248.69 1474.2,1246.17 C1474.2,1241.89 1470.78,1239.01 1465.74,1239.01 C1460.84,1239.01 1456.7,1242.07 1456.7,1245.76 C1456.7,1247.61 1457.82,1248.87 1459.53,1248.87 C1461.02,1248.87 1462.1,1247.79 1462.1,1246.3 C1462.1,1245.54 1461.87,1245 1461.15,1244.28 C1460.7,1243.87 1460.52,1243.56 1460.52,1243.24 C1460.52,1242.16 1462.77,1241.04 1464.89,1241.04 C1467.9,1241.04 1469.7,1242.7 1469.7,1245.49 C1469.7,1249.5 1466.87,1253.28 1463.85,1253.28 C1463.72,1253.28 1463.31,1253.23 1462.82,1253.19 C1461.51,1253.1 1461.51,1253.1 1461.24,1253.1 C1460.25,1253.1 1459.71,1253.55 1459.71,1254.36 C1459.71,1255.08 1460.21,1255.53 1461.02,1255.53 C1461.24,1255.53 1461.56,1255.48 1461.92,1255.44 C1462.55,1255.3 1463.22,1255.26 1463.63,1255.26 C1465.74,1255.26 1467.18,1257.15 1467.18,1259.94 C1467.18,1264.8 1464.8,1269.48 1459.35,1269.48 C1456.83,1269.48 1454.67,1268.22 1454.67,1266.78 C1454.67,1266.28 1454.85,1266.1 1455.57,1265.79 C1456.88,1265.2 1457.42,1264.39 1457.42,1263.18 C1457.42,1261.6 1456.16,1260.39 1454.54,1260.39 C1452.6,1260.39 1451.34,1261.92 1451.34,1264.26 C1451.34,1268.62 1454.67,1271.37 1460.07,1271.37 C1466.87,1271.37 1472.04,1266.82 1472.04,1260.79 C1472.04,1257.28 1469.88,1255.3 1466.73,1254.31"/>
<polyline class="Tuplet" fill="none" stroke="#000000" stroke-width="2.48" stroke-linejoin="miter" stroke-miterlimit="2" points="1399.84,1236.59 1399.84,1255.19 1438.95,1255.19"/>
<polyline class="Tuplet" fill="none" stroke="#000000" stroke-width="2.48" stroke-linejoin="miter" stroke-miterlimit="2" points="1486.61,1255.19 1525.72,1255.19 1525.72,1236.59"/>
<path class="Tuplet" d="M1534.84,584.496 C1536.96,583.821 1537.81,583.461 1538.89,582.741 C1541.01,581.346 1542.31,578.871 1542.31,576.351 C1542.31,572.076 1538.89,569.196 1533.85,569.196 C1528.95,569.196 1524.81,572.256 1524.81,575.946 C1524.81,577.791 1525.93,579.051 1527.64,579.051 C1529.13,579.051 1530.21,577.971 1530.21,576.486 C1530.21,575.721 1529.98,575.181 1529.26,574.461 C1528.81,574.056 1528.63,573.741 1528.63,573.426 C1528.63,572.346 1530.88,571.221 1533,571.221 C1536.01,571.221 1537.81,572.886 1537.81,575.676 C1537.81,579.681 1534.98,583.461 1531.96,583.461 C1531.83,583.461 1531.42,583.416 1530.93,583.371 C1529.62,583.281 1529.62,583.281 1529.35,583.281 C1528.36,583.281 1527.82,583.731 1527.82,584.541 C1527.82,585.261 1528.32,585.711 1529.13,585.711 C1529.35,585.711 1529.67,585.666 1530.03,585.621 C1530.66,585.486 1531.33,585.441 1531.74,585.441 C1533.85,585.441 1535.29,587.331 1535.29,590.121 C1535.29,594.981 1532.91,599.661 1527.46,599.661 C1524.94,599.661 1522.78,598.401 1522.78,596.961 C1522.78,596.466 1522.96,596.286 1523.68,595.971 C1524.99,595.386 1525.53,594.576 1525.53,593.361 C1525.53,591.786 1524.27,590.571 1522.65,590.571 C1520.71,590.571 1519.45,592.101 1519.45,594.441 C1519.45,598.806 1522.78,601.551 1528.18,601.551 C1534.98,601.551 1540.15,597.006 1540.15,590.976 C1540.15,587.466 1537.99,585.486 1534.84,584.496"/>
<polyline class="Tuplet" fill="none" stroke="#000000" stroke-width="2.48" stroke-linejoin="miter" stroke-miterlimit="2" points="1467.47,606.977 1467.47,588.377 1507.06,586.504"/>
<polyline class="Tuplet" fill="none" stroke="#000000" stroke-width="2.48" stroke-linejoin="miter" stroke-miterlimit="2" points="1554.72,584.249 1594.31,582.375 1594.31,600.975"/>
<path class="Tuplet" d="M1344.52,595.722 C1346.63,595.047 1347.49,594.687 1348.57,593.967 C1350.68,592.572 1351.99,590.097 1351.99,587.577 C1351.99,583.302 1348.57,580.422 1343.53,580.422 C1338.62,580.422 1334.48,583.482 1334.48,587.172 C1334.48,589.017 1335.61,590.277 1337.32,590.277 C1338.8,590.277 1339.88,589.197 1339.88,587.712 C1339.88,586.947 1339.66,586.407 1338.94,585.687 C1338.49,585.282 1338.31,584.967 1338.31,584.652 C1338.31,583.572 1340.56,582.447 1342.67,582.447 C1345.69,582.447 1347.49,584.112 1347.49,586.902 C1347.49,590.907 1344.65,594.687 1341.64,594.687 C1341.5,594.687 1341.1,594.642 1340.6,594.597 C1339.3,594.507 1339.3,594.507 1339.03,594.507 C1338.04,594.507 1337.5,594.957 1337.5,595.767 C1337.5,596.487 1337.99,596.937 1338.8,596.937 C1339.03,596.937 1339.34,596.892 1339.7,596.847 C1340.33,596.712 1341.01,596.667 1341.41,596.667 C1343.53,596.667 1344.97,598.557 1344.97,601.347 C1344.97,606.207 1342.58,610.887 1337.14,610.887 C1334.62,610.887 1332.46,609.627 1332.46,608.187 C1332.46,607.692 1332.64,607.512 1333.36,607.197 C1334.66,606.612 1335.2,605.802 1335.2,604.587 C1335.2,603.012 1333.94,601.797 1332.32,601.797 C1330.39,601.797 1329.13,603.327 1329.13,605.667 C1329.13,610.032 1332.46,612.777 1337.86,612.777 C1344.65,612.777 1349.83,608.232 1349.83,602.202 C1349.83,598.692 1347.67,596.712 1344.52,595.722"/>
<polyline class="Tuplet" fill="none" stroke="#000000" stroke-width="2.48" stroke-linejoin="miter" stroke-miterlimit="2" points="1277.14,609.002 1277.14,590.402 1316.73,594.272"/>
<polyline class="Tuplet" fill="none" stroke="#000000" stroke-width="2.48" stroke-linejoin="miter" stroke-miterlimit="2" points="1364.39,598.932 1403.98,602.802 1403.98,621.402"/>
<path class="Tuplet" d="M1110.67,582.348 C1112.78,581.673 1113.64,581.313 1114.72,580.593 C1116.83,579.198 1118.14,576.723 1118.14,574.203 C1118.14,569.928 1114.72,567.048 1109.68,567.048 C1104.77,567.048 1100.63,570.108 1100.63,573.798 C1100.63,575.643 1101.76,576.903 1103.47,576.903 C1104.95,576.903 1106.03,575.823 1106.03,574.338 C1106.03,573.573 1105.81,573.033 1105.09,572.313 C1104.64,571.908 1104.46,571.593 1104.46,571.278 C1104.46,570.198 1106.71,569.073 1108.82,569.073 C1111.84,569.073 1113.64,570.738 1113.64,573.528 C1113.64,577.533 1110.8,581.313 1107.79,581.313 C1107.65,581.313 1107.25,581.268 1106.75,581.223 C1105.45,581.133 1105.45,581.133 1105.18,581.133 C1104.19,581.133 1103.65,581.583 1103.65,582.393 C1103.65,583.113 1104.14,583.563 1104.95,583.563 C1105.18,583.563 1105.49,583.518 1105.85,583.473 C1106.48,583.338 1107.16,583.293 1107.56,583.293 C1109.68,583.293 1111.12,585.183 1111.12,587.973 C1111.12,592.833 1108.73,597.513 1103.29,597.513 C1100.77,597.513 1098.61,596.253 1098.61,594.813 C1098.61,594.318 1098.79,594.138 1099.51,593.823 C1100.81,593.238 1101.35,592.428 1101.35,591.213 C1101.35,589.638 1100.09,588.423 1098.47,588.423 C1096.54,588.423 1095.28,589.953 1095.28,592.293 C1095.28,596.658 1098.61,599.403 1104.01,599.403 C1110.8,599.403 1115.98,594.858 1115.98,588.828 C1115.98,585.318 1113.82,583.338 1110.67,582.348"/>
<polyline class="Tuplet" fill="none" stroke="#000000" stroke-width="2.48" stroke-linejoin="miter" stroke-miterlimit="2" points="1043.29,601.729 1043.29,583.129 1082.88,583.191"/>
<polyline class="Tuplet" fill="none" stroke="#000000" stroke-width="2.48" stroke-linejoin="miter" stroke-miterlimit="2" points="1130.54,583.265 1170.13,583.327 1170.13,601.927"/>
<path class="Tuplet" d="M920.342,582.348 C922.457,581.673 923.312,581.313 924.392,580.593 C926.507,579.198 927.812,576.723 927.812,574.203 C927.812,569.928 924.392,567.048 919.352,567.048 C914.447,567.048 910.307,570.108 910.307,573.798 C910.307,575.643 911.432,576.903 913.142,576.903 C914.627,576.903 915.707,575.823 915.707,574.338 C915.707,573.573 915.482,573.033 914.762,572.313 C914.312,571.908 914.132,571.593 914.132,571.278 C914.132,570.198 916.382,569.073 918.497,569.073 C921.512,569.073 923.312,570.738 923.312,573.528 C923.312,577.533 920.477,581.313 917.462,581.313 C917.327,581.313 916.922,581.268 916.427,581.223 C915.122,581.133 915.122,581.133 914.852,581.133 C913.862,581.133 913.322,581.583 913.322,582.393 C913.322,583.113 913.817,583.563 914.627,583.563 C914.852,583.563 915.167,583.518 915.527,583.473 C916.157,583.338 916.832,583.293 917.237,583.293 C919.352,583.293 920.792,585.183 920.792,587.973 C920.792,592.833 918.407,597.513 912.962,597.513 C910.442,597.513 908.282,596.253 908.282,594.813 C908.282,594.318 908.462,594.138 909.182,593.823 C910.487,593.238 911.027,592.428 911.027,591.213 C911.027,589.638 909.767,588.423 908.147,588.423 C906.212,588.423 904.952,589.953 904.952,592.293 C904.952,596.658 908.282,599.403 913.682,599.403 C920.477,599.403 925.652,594.858 925.652,588.828 C925.652,585.318 923.492,583.338 920.342,582.348"/>
<polyline class="Tuplet" fill="none" stroke="#000000" stroke-width="2.48" stroke-linejoin="miter" stroke-miterlimit="2" points="852.964,601.729 852.964,583.129 892.556,583.191"/>
<polyline class="Tuplet" fill="none" stroke="#000000" stroke-width="2.48" stroke-linejoin="miter" stroke-miterlimit="2" points="940.215,583.265 979.806,583.327 979.806,601.927"/>
<path class="Tuplet" d="M730.018,592.828 C732.133,592.153 732.988,591.793 734.068,591.073 C736.183,589.678 737.488,587.203 737.488,584.683 C737.488,580.408 734.068,577.528 729.028,577.528 C724.123,577.528 719.983,580.588 719.983,584.278 C719.983,586.123 721.108,587.383 722.818,587.383 C724.303,587.383 725.383,586.303 725.383,584.818 C725.383,584.053 725.158,583.513 724.438,582.793 C723.988,582.388 723.808,582.073 723.808,581.758 C723.808,580.678 726.058,579.553 728.173,579.553 C731.188,579.553 732.988,581.218 732.988,584.008 C732.988,588.013 730.153,591.793 727.138,591.793 C727.003,591.793 726.598,591.748 726.103,591.703 C724.798,591.613 724.798,591.613 724.528,591.613 C723.538,591.613 722.998,592.063 722.998,592.873 C722.998,593.593 723.493,594.043 724.303,594.043 C724.528,594.043 724.843,593.998 725.203,593.953 C725.833,593.818 726.508,593.773 726.913,593.773 C729.028,593.773 730.468,595.663 730.468,598.453 C730.468,603.313 728.083,607.993 722.638,607.993 C720.118,607.993 717.958,606.733 717.958,605.293 C717.958,604.798 718.138,604.618 718.858,604.303 C720.163,603.718 720.703,602.908 720.703,601.693 C720.703,600.118 719.443,598.903 717.823,598.903 C715.888,598.903 714.628,600.433 714.628,602.773 C714.628,607.138 717.958,609.883 723.358,609.883 C730.153,609.883 735.328,605.338 735.328,599.308 C735.328,595.798 733.168,593.818 730.018,592.828"/>
<polyline class="Tuplet" fill="none" stroke="#000000" stroke-width="2.48" stroke-linejoin="miter" stroke-miterlimit="2" points="662.64,618.409 662.64,599.809 702.232,596.001"/>
<polyline class="Tuplet" fill="none" stroke="#000000" stroke-width="2.48" stroke-linejoin="miter" stroke-miterlimit="2" points="749.891,591.416 789.483,587.608 789.483,606.208"/>
<path class="Tuplet" d="M2448.11,783.152 C2450.22,782.477 2451.08,782.117 2452.16,781.397 C2454.27,780.002 2455.58,777.527 2455.58,775.007 C2455.58,770.732 2452.16,767.852 2447.12,767.852 C2442.21,767.852 2438.07,770.912 2438.07,774.602 C2438.07,776.447 2439.2,777.707 2440.91,777.707 C2442.39,777.707 2443.47,776.627 2443.47,775.142 C2443.47,774.377 2443.25,773.837 2442.53,773.117 C2442.08,772.712 2441.9,772.397 2441.9,772.082 C2441.9,771.002 2444.15,769.877 2446.26,769.877 C2449.28,769.877 2451.08,771.542 2451.08,774.332 C2451.08,778.337 2448.24,782.117 2445.23,782.117 C2445.09,782.117 2444.69,782.072 2444.19,782.027 C2442.89,781.937 2442.89,781.937 2442.62,781.937 C2441.63,781.937 2441.09,782.387 2441.09,783.197 C2441.09,783.917 2441.58,784.367 2442.39,784.367 C2442.62,784.367 2442.93,784.322 2443.29,784.277 C2443.92,784.142 2444.6,784.097 2445,784.097 C2447.12,784.097 2448.56,785.987 2448.56,788.777 C2448.56,793.637 2446.17,798.317 2440.73,798.317 C2438.21,798.317 2436.05,797.057 2436.05,795.617 C2436.05,795.122 2436.23,794.942 2436.95,794.627 C2438.25,794.042 2438.79,793.232 2438.79,792.017 C2438.79,790.442 2437.53,789.227 2435.91,789.227 C2433.98,789.227 2432.72,790.757 2432.72,793.097 C2432.72,797.462 2436.05,800.207 2441.45,800.207 C2448.24,800.207 2453.42,795.662 2453.42,789.632 C2453.42,786.122 2451.26,784.142 2448.11,783.152"/>
<polyline class="Tuplet" fill="none" stroke="#000000" stroke-width="2.48" stroke-linejoin="miter" stroke-miterlimit="2" points="2380.73,765.482 2380.73,784.082 2420.32,784.051"/>
<polyline class="Tuplet" fill="none" stroke="#000000" stroke-width="2.48" stroke-linejoin="miter" stroke-miterlimit="2" points="2467.98,784.014 2507.57,783.983 2507.57,765.383"/>
<path class="Tuplet" d="M2638.43,783.152 C2640.55,782.477 2641.4,782.117 2642.48,781.397 C2644.6,780.002 2645.9,777.527 2645.9,775.007 C2645.9,770.732 2642.48,767.852 2637.44,767.852 C2632.54,767.852 2628.4,770.912 2628.4,774.602 C2628.4,776.447 2629.52,777.707 2631.23,777.707 C2632.72,777.707 2633.8,776.627 2633.8,775.142 C2633.8,774.377 2633.57,773.837 2632.85,773.117 C2632.4,772.712 2632.22,772.397 2632.22,772.082 C2632.22,771.002 2634.47,769.877 2636.59,769.877 C2639.6,769.877 2641.4,771.542 2641.4,774.332 C2641.4,778.337 2638.57,782.117 2635.55,782.117 C2635.42,782.117 2635.01,782.072 2634.52,782.027 C2633.21,781.937 2633.21,781.937 2632.94,781.937 C2631.95,781.937 2631.41,782.387 2631.41,783.197 C2631.41,783.917 2631.91,784.367 2632.72,784.367 C2632.94,784.367 2633.26,784.322 2633.62,784.277 C2634.25,784.142 2634.92,784.097 2635.33,784.097 C2637.44,784.097 2638.88,785.987 2638.88,788.777 C2638.88,793.637 2636.5,798.317 2631.05,798.317 C2628.53,798.317 2626.37,797.057 2626.37,795.617 C2626.37,795.122 2626.55,794.942 2627.27,794.627 C2628.58,794.042 2629.12,793.232 2629.12,792.017 C2629.12,790.442 2627.86,789.227 2626.24,789.227 C2624.3,789.227 2623.04,790.757 2623.04,793.097 C2623.04,797.462 2626.37,800.207 2631.77,800.207 C2638.57,800.207 2643.74,795.662 2643.74,789.632 C2643.74,786.122 2641.58,784.142 2638.43,783.152"/>
<polyline class="Tuplet" fill="none" stroke="#000000" stroke-width="2.48" stroke-linejoin="miter" stroke-miterlimit="2" points="2571.05,765.482 2571.05,784.082 2610.65,784.051"/>
<polyline class="Tuplet" fill="none" stroke="#000000" stroke-width="2.48" stroke-linejoin="miter" stroke-miterlimit="2" points="2658.3,784.014 2697.9,783.983 2697.9,765.383"/>
<path class="Tuplet" d="M2096.96,582.348 C2099.07,581.673 2099.93,581.313 2101.01,580.593 C2103.12,579.198 2104.43,576.723 2104.43,574.203 C2104.43,569.928 2101.01,567.048 2095.97,567.048 C2091.06,567.048 2086.92,570.108 2086.92,573.798 C2086.92,575.643 2088.05,576.903 2089.76,576.903 C2091.24,576.903 2092.32,575.823 2092.32,574.338 C2092.32,573.573 2092.1,573.033 2091.38,572.313 C2090.93,571.908 2090.75,571.593 2090.75,571.278 C2090.75,570.198 2093,569.073 2095.11,569.073 C2098.13,569.073 2099.93,570.738 2099.93,573.528 C2099.93,577.533 2097.09,581.313 2094.08,581.313 C2093.94,581.313 2093.54,581.268 2093.04,581.223 C2091.74,581.133 2091.74,581.133 2091.47,581.133 C2090.48,581.133 2089.94,581.583 2089.94,582.393 C2089.94,583.113 2090.43,583.563 2091.24,583.563 C2091.47,583.563 2091.78,583.518 2092.14,583.473 C2092.77,583.338 2093.45,583.293 2093.85,583.293 C2095.97,583.293 2097.41,585.183 2097.41,587.973 C2097.41,592.833 2095.02,597.513 2089.58,597.513 C2087.06,597.513 2084.9,596.253 2084.9,594.813 C2084.9,594.318 2085.08,594.138 2085.8,593.823 C2087.1,593.238 2087.64,592.428 2087.64,591.213 C2087.64,589.638 2086.38,588.423 2084.76,588.423 C2082.83,588.423 2081.57,589.953 2081.57,592.293 C2081.57,596.658 2084.9,599.403 2090.3,599.403 C2097.09,599.403 2102.27,594.858 2102.27,588.828 C2102.27,585.318 2100.11,583.338 2096.96,582.348"/>
<polyline class="Tuplet" fill="none" stroke="#000000" stroke-width="2.48" stroke-linejoin="miter" stroke-miterlimit="2" points="2029.58,601.729 2029.58,583.129 2069.17,583.191"/>
<polyline class="Tuplet" fill="none" stroke="#000000" stroke-width="2.48" stroke-linejoin="miter" stroke-miterlimit="2" points="2116.83,583.265 2156.42,583.327 2156.42,601.927"/>
<path class="Tuplet" d="M2281.08,593.011 C2283.19,592.336 2284.05,591.976 2285.13,591.256 C2287.24,589.861 2288.55,587.386 2288.55,584.866 C2288.55,580.591 2285.13,577.711 2280.09,577.711 C2275.18,577.711 2271.04,580.771 2271.04,584.461 C2271.04,586.306 2272.17,587.566 2273.88,587.566 C2275.36,587.566 2276.44,586.486 2276.44,585.001 C2276.44,584.236 2276.22,583.696 2275.5,582.976 C2275.05,582.571 2274.87,582.256 2274.87,581.941 C2274.87,580.861 2277.12,579.736 2279.23,579.736 C2282.25,579.736 2284.05,581.401 2284.05,584.191 C2284.05,588.196 2281.21,591.976 2278.2,591.976 C2278.06,591.976 2277.66,591.931 2277.16,591.886 C2275.86,591.796 2275.86,591.796 2275.59,591.796 C2274.6,591.796 2274.06,592.246 2274.06,593.056 C2274.06,593.776 2274.55,594.226 2275.36,594.226 C2275.59,594.226 2275.9,594.181 2276.26,594.136 C2276.89,594.001 2277.57,593.956 2277.97,593.956 C2280.09,593.956 2281.53,595.846 2281.53,598.636 C2281.53,603.496 2279.14,608.176 2273.7,608.176 C2271.18,608.176 2269.02,606.916 2269.02,605.476 C2269.02,604.981 2269.2,604.801 2269.92,604.486 C2271.22,603.901 2271.76,603.091 2271.76,601.876 C2271.76,600.301 2270.5,599.086 2268.88,599.086 C2266.95,599.086 2265.69,600.616 2265.69,602.956 C2265.69,607.321 2269.02,610.066 2274.42,610.066 C2281.21,610.066 2286.39,605.521 2286.39,599.491 C2286.39,595.981 2284.23,594.001 2281.08,593.011"/>
<polyline class="Tuplet" fill="none" stroke="#000000" stroke-width="2.48" stroke-linejoin="miter" stroke-miterlimit="2" points="2219.9,603.191 2219.9,584.591 2253.29,590.018"/>
<polyline class="Tuplet" fill="none" stroke="#000000" stroke-width="2.48" stroke-linejoin="miter" stroke-miterlimit="2" points="2300.95,597.764 2334.34,603.191 2334.34,621.791"/>
<path class="Harmony" d="M1418.93,1003.69 L1386.2,1003.69 L1386.2,1006.27 L1387.19,1006.27 C1390.33,1006.33 1391.37,1006.49 1391.81,1007.04 C1392.14,1007.54 1392.14,1007.65 1392.14,1010.45 L1392.14,1036.63 C1392.14,1039.44 1392.14,1039.55 1391.81,1040.04 C1391.37,1040.59 1390.33,1040.81 1387.19,1040.81 L1386.2,1040.81 L1386.2,1043.4 L1405.07,1043.4 L1405.07,1040.81 L1403.25,1040.81 C1400.12,1040.81 1399.07,1040.59 1398.63,1040.04 C1398.3,1039.55 1398.3,1039.38 1398.3,1036.63 L1398.3,1024.15 L1399.4,1024.15 C1405.07,1023.93 1407.1,1025.96 1407.32,1032.07 L1409.91,1032.07 L1409.91,1014.03 L1407.32,1014.03 C1406.99,1019.42 1404.85,1021.51 1399.62,1021.56 L1398.3,1021.56 L1398.3,1009.02 C1398.25,1006.71 1398.8,1006.33 1401.77,1006.27 L1404.3,1006.27 C1413.32,1006.22 1415.57,1008.25 1417.28,1017.71 L1419.7,1017.71 L1418.93,1003.69 "/>
<path class="Harmony" d="M854.954,531.034 L822.229,531.034 L822.229,533.619 L823.219,533.619 C826.354,533.674 827.399,533.839 827.839,534.389 C828.169,534.884 828.169,534.994 828.169,537.799 L828.169,563.979 C828.169,566.784 828.169,566.894 827.839,567.389 C827.399,567.939 826.354,568.159 823.219,568.159 L822.229,568.159 L822.229,570.744 L841.094,570.744 L841.094,568.159 L839.279,568.159 C836.144,568.159 835.099,567.939 834.659,567.389 C834.329,566.894 834.329,566.729 834.329,563.979 L834.329,551.494 L835.429,551.494 C841.094,551.274 843.129,553.309 843.349,559.414 L845.934,559.414 L845.934,541.374 L843.349,541.374 C843.019,546.764 840.874,548.854 835.649,548.909 L834.329,548.909 L834.329,536.369 C834.274,534.059 834.824,533.674 837.794,533.619 L840.324,533.619 C849.344,533.564 851.599,535.599 853.304,545.059 L855.724,545.059 L854.954,531.034 "/>
<path class="Harmony" d="M644.902,1003.3 L642.812,1003.3 L640.612,1006.55 C636.597,1003.63 634.562,1002.86 630.767,1002.86 C625.542,1002.86 621.087,1005.06 617.402,1009.46 C613.882,1013.64 612.232,1018.26 612.232,1023.93 C612.232,1035.81 619.987,1044.22 630.822,1044.22 C639.622,1044.22 645.232,1039.05 646.497,1029.81 L643.912,1029.37 C642.427,1037.57 638.247,1041.64 631.482,1041.64 C623.342,1041.64 619.492,1036.03 619.492,1024.15 C619.492,1017.88 620.317,1013.75 622.187,1010.45 C623.892,1007.37 627.247,1005.45 630.822,1005.45 C634.672,1005.45 638.082,1007.48 640.172,1011 C641.217,1012.82 641.987,1014.85 643.307,1019.2 L645.727,1019.2 L644.902,1003.3 "/>
<path class="Harmony" d="M435.522,1003.3 L433.432,1003.3 L431.232,1006.55 C427.217,1003.63 425.182,1002.86 421.387,1002.86 C416.162,1002.86 411.707,1005.06 408.022,1009.46 C404.502,1013.64 402.852,1018.26 402.852,1023.93 C402.852,1035.81 410.607,1044.22 421.442,1044.22 C430.242,1044.22 435.852,1039.05 437.117,1029.81 L434.532,1029.37 C433.047,1037.57 428.867,1041.64 422.102,1041.64 C413.962,1041.64 410.112,1036.03 410.112,1024.15 C410.112,1017.88 410.937,1013.75 412.807,1010.45 C414.512,1007.37 417.867,1005.45 421.442,1005.45 C425.292,1005.45 428.702,1007.48 430.792,1011 C431.837,1012.82 432.607,1014.85 433.927,1019.2 L436.347,1019.2 L435.522,1003.3 "/>
<path class="Harmony" d="M2611.66,1003.69 L2578.94,1003.69 L2578.94,1006.27 L2579.93,1006.27 C2583.06,1006.33 2584.11,1006.49 2584.55,1007.04 C2584.88,1007.54 2584.88,1007.65 2584.88,1010.45 L2584.88,1036.63 C2584.88,1039.44 2584.88,1039.55 2584.55,1040.04 C2584.11,1040.59 2583.06,1040.81 2579.93,1040.81 L2578.94,1040.81 L2578.94,1043.4 L2597.8,1043.4 L2597.8,1040.81 L2595.99,1040.81 C2592.85,1040.81 2591.81,1040.59 2591.37,1040.04 C2591.04,1039.55 2591.04,1039.38 2591.04,1036.63 L2591.04,1024.15 L2592.14,1024.15 C2597.8,1023.93 2599.84,1025.96 2600.06,1032.07 L2602.64,1032.07 L2602.64,1014.03 L2600.06,1014.03 C2599.73,1019.42 2597.58,1021.51 2592.36,1021.56 L2591.04,1021.56 L2591.04,1009.02 C2590.98,1006.71 2591.53,1006.33 2594.5,1006.27 L2597.03,1006.27 C2606.05,1006.22 2608.31,1008.25 2610.01,1017.71 L2612.43,1017.71 L2611.66,1003.69 "/>
<path class="Harmony" d="M1787.56,1003.69 L1754.84,1003.69 L1754.84,1006.27 L1755.83,1006.27 C1758.96,1006.33 1760.01,1006.49 1760.45,1007.04 C1760.78,1007.54 1760.78,1007.65 1760.78,1010.45 L1760.78,1036.63 C1760.78,1039.44 1760.78,1039.55 1760.45,1040.04 C1760.01,1040.59 1758.96,1040.81 1755.83,1040.81 L1754.84,1040.81 L1754.84,1043.4 L1773.7,1043.4 L1773.7,1040.81 L1771.89,1040.81 C1768.75,1040.81 1767.71,1040.59 1767.27,1040.04 C1766.94,1039.55 1766.94,1039.38 1766.94,1036.63 L1766.94,1024.15 L1768.04,1024.15 C1773.7,1023.93 1775.74,1025.96 1775.96,1032.07 L1778.54,1032.07 L1778.54,1014.03 L1775.96,1014.03 C1775.63,1019.42 1773.48,1021.51 1768.26,1021.56 L1766.94,1021.56 L1766.94,1009.02 C1766.88,1006.71 1767.43,1006.33 1770.4,1006.27 L1772.93,1006.27 C1781.95,1006.22 1784.21,1008.25 1785.91,1017.71 L1788.33,1017.71 L1787.56,1003.69 "/>
<path class="Harmony" d="M1628.31,1003.69 L1595.58,1003.69 L1595.58,1006.27 L1596.57,1006.27 C1599.71,1006.33 1600.75,1006.49 1601.19,1007.04 C1601.52,1007.54 1601.52,1007.65 1601.52,1010.45 L1601.52,1036.63 C1601.52,1039.44 1601.52,1039.55 1601.19,1040.04 C1600.75,1040.59 1599.71,1040.81 1596.57,1040.81 L1595.58,1040.81 L1595.58,1043.4 L1614.45,1043.4 L1614.45,1040.81 L1612.63,1040.81 C1609.5,1040.81 1608.45,1040.59 1608.01,1040.04 C1607.68,1039.55 1607.68,1039.38 1607.68,1036.63 L1607.68,1024.15 L1608.78,1024.15 C1614.45,1023.93 1616.48,1025.96 1616.7,1032.07 L1619.29,1032.07 L1619.29,1014.03 L1616.7,1014.03 C1616.37,1019.42 1614.23,1021.51 1609,1021.56 L1607.68,1021.56 L1607.68,1009.02 C1607.63,1006.71 1608.18,1006.33 1611.15,1006.27 L1613.68,1006.27 C1622.7,1006.22 1624.95,1008.25 1626.66,1017.71 L1629.08,1017.71 L1628.31,1003.69 "/>
<path class="Harmony" d="M2452.41,1003.69 L2419.68,1003.69 L2419.68,1006.27 L2420.67,1006.27 C2423.81,1006.33 2424.85,1006.49 2425.29,1007.04 C2425.62,1007.54 2425.62,1007.65 2425.62,1010.45 L2425.62,1036.63 C2425.62,1039.44 2425.62,1039.55 2425.29,1040.04 C2424.85,1040.59 2423.81,1040.81 2420.67,1040.81 L2419.68,1040.81 L2419.68,1043.4 L2438.55,1043.4 L2438.55,1040.81 L2436.73,1040.81 C2433.6,1040.81 2432.55,1040.59 2432.11,1040.04 C2431.78,1039.55 2431.78,1039.38 2431.78,1036.63 L2431.78,1024.15 L2432.88,1024.15 C2438.55,1023.93 2440.58,1025.96 2440.8,1032.07 L2443.39,1032.07 L2443.39,1014.03 L2440.8,1014.03 C2440.47,1019.42 2438.33,1021.51 2433.1,1021.56 L2431.78,1021.56 L2431.78,1009.02 C2431.73,1006.71 2432.28,1006.33 2435.25,1006.27 L2437.78,1006.27 C2446.8,1006.22 2449.05,1008.25 2450.76,1017.71 L2453.18,1017.71 L2452.41,1003.69 "/>
<path class="Harmony" d="M1013.59,1003.69 L980.862,1003.69 L980.862,1006.27 L981.852,1006.27 C984.987,1006.33 986.032,1006.49 986.472,1007.04 C986.802,1007.54 986.802,1007.65 986.802,1010.45 L986.802,1036.63 C986.802,1039.44 986.802,1039.55 986.472,1040.04 C986.032,1040.59 984.987,1040.81 981.852,1040.81 L980.862,1040.81 L980.862,1043.4 L999.727,1043.4 L999.727,1040.81 L997.912,1040.81 C994.777,1040.81 993.732,1040.59 993.292,1040.04 C992.962,1039.55 992.962,1039.38 992.962,1036.63 L992.962,1024.15 L994.062,1024.15 C999.727,1023.93 1001.76,1025.96 1001.98,1032.07 L1004.57,1032.07 L1004.57,1014.03 L1001.98,1014.03 C1001.65,1019.42 999.507,1021.51 994.282,1021.56 L992.962,1021.56 L992.962,1009.02 C992.907,1006.71 993.457,1006.33 996.427,1006.27 L998.957,1006.27 C1007.98,1006.22 1010.23,1008.25 1011.94,1017.71 L1014.36,1017.71 L1013.59,1003.69 "/>
<path class="Harmony" d="M2033.65,1003.69 L2000.92,1003.69 L2000.92,1006.27 L2001.91,1006.27 C2005.05,1006.33 2006.09,1006.49 2006.53,1007.04 C2006.86,1007.54 2006.86,1007.65 2006.86,1010.45 L2006.86,1036.63 C2006.86,1039.44 2006.86,1039.55 2006.53,1040.04 C2006.09,1040.59 2005.05,1040.81 2001.91,1040.81 L2000.92,1040.81 L2000.92,1043.4 L2019.79,1043.4 L2019.79,1040.81 L2017.97,1040.81 C2014.84,1040.81 2013.79,1040.59 2013.35,1040.04 C2013.02,1039.55 2013.02,1039.38 2013.02,1036.63 L2013.02,1024.15 L2014.12,1024.15 C2019.79,1023.93 2021.82,1025.96 2022.04,1032.07 L2024.63,1032.07 L2024.63,1014.03 L2022.04,1014.03 C2021.71,1019.42 2019.57,1021.51 2014.34,1021.56 L2013.02,1021.56 L2013.02,1009.02 C2012.97,1006.71 2013.52,1006.33 2016.49,1006.27 L2019.02,1006.27 C2028.04,1006.22 2030.29,1008.25 2032,1017.71 L2034.42,1017.71 L2033.65,1003.69 "/>
<path class="Harmony" d="M474.306,532.488 L441.581,532.488 L441.581,535.073 L442.571,535.073 C445.706,535.128 446.751,535.293 447.191,535.843 C447.521,536.338 447.521,536.448 447.521,539.253 L447.521,565.433 C447.521,568.238 447.521,568.348 447.191,568.843 C446.751,569.393 445.706,569.613 442.571,569.613 L441.581,569.613 L441.581,572.198 L460.446,572.198 L460.446,569.613 L458.631,569.613 C455.496,569.613 454.451,569.393 454.011,568.843 C453.681,568.348 453.681,568.183 453.681,565.433 L453.681,552.948 L454.781,552.948 C460.446,552.728 462.481,554.763 462.701,560.868 L465.286,560.868 L465.286,542.828 L462.701,542.828 C462.371,548.218 460.226,550.308 455.001,550.363 L453.681,550.363 L453.681,537.823 C453.626,535.513 454.176,535.128 457.146,535.073 L459.676,535.073 C468.696,535.018 470.951,537.053 472.656,546.513 L475.076,546.513 L474.306,532.488 "/>
<path class="Harmony" d="M1259.67,1003.69 L1226.95,1003.69 L1226.95,1006.27 L1227.94,1006.27 C1231.07,1006.33 1232.12,1006.49 1232.56,1007.04 C1232.89,1007.54 1232.89,1007.65 1232.89,1010.45 L1232.89,1036.63 C1232.89,1039.44 1232.89,1039.55 1232.56,1040.04 C1232.12,1040.59 1231.07,1040.81 1227.94,1040.81 L1226.95,1040.81 L1226.95,1043.4 L1245.81,1043.4 L1245.81,1040.81 L1244,1040.81 C1240.86,1040.81 1239.82,1040.59 1239.38,1040.04 C1239.05,1039.55 1239.05,1039.38 1239.05,1036.63 L1239.05,1024.15 L1240.15,1024.15 C1245.81,1023.93 1247.85,1025.96 1248.07,1032.07 L1250.65,1032.07 L1250.65,1014.03 L1248.07,1014.03 C1247.74,1019.42 1245.59,1021.51 1240.37,1021.56 L1239.05,1021.56 L1239.05,1009.02 C1238.99,1006.71 1239.54,1006.33 1242.51,1006.27 L1245.04,1006.27 C1254.06,1006.22 1256.32,1008.25 1258.02,1017.71 L1260.44,1017.71 L1259.67,1003.69 "/>
<path class="Harmony" d="M664.63,532.488 L631.905,532.488 L631.905,535.073 L632.895,535.073 C636.03,535.128 637.075,535.293 637.515,535.843 C637.845,536.338 637.845,536.448 637.845,539.253 L637.845,565.433 C637.845,568.238 637.845,568.348 637.515,568.843 C637.075,569.393 636.03,569.613 632.895,569.613 L631.905,569.613 L631.905,572.198 L650.77,572.198 L650.77,569.613 L648.955,569.613 C645.82,569.613 644.775,569.393 644.335,568.843 C644.005,568.348 644.005,568.183 644.005,565.433 L644.005,552.948 L645.105,552.948 C650.77,552.728 652.805,554.763 653.025,560.868 L655.61,560.868 L655.61,542.828 L653.025,542.828 C652.695,548.218 650.55,550.308 645.325,550.363 L644.005,550.363 L644.005,537.823 C643.95,535.513 644.5,535.128 647.47,535.073 L650,535.073 C659.02,535.018 661.275,537.053 662.98,546.513 L665.4,546.513 L664.63,532.488 "/>
<path class="Harmony" d="M1850.1,532.488 L1817.38,532.488 L1817.38,535.073 L1818.37,535.073 C1821.5,535.128 1822.55,535.293 1822.99,535.843 C1823.32,536.338 1823.32,536.448 1823.32,539.253 L1823.32,565.433 C1823.32,568.238 1823.32,568.348 1822.99,568.843 C1822.55,569.393 1821.5,569.613 1818.37,569.613 L1817.38,569.613 L1817.38,572.198 L1836.24,572.198 L1836.24,569.613 L1834.43,569.613 C1831.29,569.613 1830.25,569.393 1829.81,568.843 C1829.48,568.348 1829.48,568.183 1829.48,565.433 L1829.48,552.948 L1830.58,552.948 C1836.24,552.728 1838.28,554.763 1838.5,560.868 L1841.08,560.868 L1841.08,542.828 L1838.5,542.828 C1838.17,548.218 1836.02,550.308 1830.8,550.363 L1829.48,550.363 L1829.48,537.823 C1829.42,535.513 1829.97,535.128 1832.94,535.073 L1835.47,535.073 C1844.49,535.018 1846.75,537.053 1848.45,546.513 L1850.87,546.513 L1850.1,532.488 "/>
<path class="Harmony" d="M1659.78,532.488 L1627.05,532.488 L1627.05,535.073 L1628.04,535.073 C1631.18,535.128 1632.22,535.293 1632.66,535.843 C1632.99,536.338 1632.99,536.448 1632.99,539.253 L1632.99,565.433 C1632.99,568.238 1632.99,568.348 1632.66,568.843 C1632.22,569.393 1631.18,569.613 1628.04,569.613 L1627.05,569.613 L1627.05,572.198 L1645.92,572.198 L1645.92,569.613 L1644.1,569.613 C1640.97,569.613 1639.92,569.393 1639.48,568.843 C1639.15,568.348 1639.15,568.183 1639.15,565.433 L1639.15,552.948 L1640.25,552.948 C1645.92,552.728 1647.95,554.763 1648.17,560.868 L1650.76,560.868 L1650.76,542.828 L1648.17,542.828 C1647.84,548.218 1645.7,550.308 1640.47,550.363 L1639.15,550.363 L1639.15,537.823 C1639.1,535.513 1639.65,535.128 1642.62,535.073 L1645.15,535.073 C1654.17,535.018 1656.42,537.053 1658.13,546.513 L1660.55,546.513 L1659.78,532.488 "/>
<path class="Harmony" d="M1469.41,532.103 L1467.32,532.103 L1465.12,535.348 C1461.1,532.433 1459.07,531.663 1455.27,531.663 C1450.05,531.663 1445.59,533.863 1441.91,538.263 C1438.39,542.443 1436.74,547.063 1436.74,552.728 C1436.74,564.608 1444.49,573.023 1455.33,573.023 C1464.13,573.023 1469.74,567.853 1471,558.613 L1468.42,558.173 C1466.93,566.368 1462.75,570.438 1455.99,570.438 C1447.85,570.438 1444,564.828 1444,552.948 C1444,546.678 1444.82,542.553 1446.69,539.253 C1448.4,536.173 1451.75,534.248 1455.33,534.248 C1459.18,534.248 1462.59,536.283 1464.68,539.803 C1465.72,541.618 1466.49,543.653 1467.81,547.998 L1470.23,547.998 L1469.41,532.103 "/>
<path class="Harmony" d="M2243.03,1003.69 L2210.3,1003.69 L2210.3,1006.27 L2211.29,1006.27 C2214.43,1006.33 2215.47,1006.49 2215.91,1007.04 C2216.24,1007.54 2216.24,1007.65 2216.24,1010.45 L2216.24,1036.63 C2216.24,1039.44 2216.24,1039.55 2215.91,1040.04 C2215.47,1040.59 2214.43,1040.81 2211.29,1040.81 L2210.3,1040.81 L2210.3,1043.4 L2229.17,1043.4 L2229.17,1040.81 L2227.35,1040.81 C2224.22,1040.81 2223.17,1040.59 2222.73,1040.04 C2222.4,1039.55 2222.4,1039.38 2222.4,1036.63 L2222.4,1024.15 L2223.5,1024.15 C2229.17,1023.93 2231.2,1025.96 2231.42,1032.07 L2234.01,1032.07 L2234.01,1014.03 L2231.42,1014.03 C2231.09,1019.42 2228.95,1021.51 2223.72,1021.56 L2222.4,1021.56 L2222.4,1009.02 C2222.35,1006.71 2222.9,1006.33 2225.87,1006.27 L2228.4,1006.27 C2237.42,1006.22 2239.67,1008.25 2241.38,1017.71 L2243.8,1017.71 L2243.03,1003.69 "/>
<path class="Harmony" d="M1279.08,532.103 L1276.99,532.103 L1274.79,535.348 C1270.78,532.433 1268.74,531.663 1264.95,531.663 C1259.72,531.663 1255.27,533.863 1251.58,538.263 C1248.06,542.443 1246.41,547.063 1246.41,552.728 C1246.41,564.608 1254.17,573.023 1265,573.023 C1273.8,573.023 1279.41,567.853 1280.68,558.613 L1278.09,558.173 C1276.61,566.368 1272.43,570.438 1265.66,570.438 C1257.52,570.438 1253.67,564.828 1253.67,552.948 C1253.67,546.678 1254.5,542.553 1256.37,539.253 C1258.07,536.173 1261.43,534.248 1265,534.248 C1268.85,534.248 1272.26,536.283 1274.35,539.803 C1275.4,541.618 1276.17,543.653 1277.49,547.998 L1279.91,547.998 L1279.08,532.103 "/>
<path class="Harmony" d="M1045.28,531.034 L1012.55,531.034 L1012.55,533.619 L1013.54,533.619 C1016.68,533.674 1017.72,533.839 1018.16,534.389 C1018.49,534.884 1018.49,534.994 1018.49,537.799 L1018.49,563.979 C1018.49,566.784 1018.49,566.894 1018.16,567.389 C1017.72,567.939 1016.68,568.159 1013.54,568.159 L1012.55,568.159 L1012.55,570.744 L1031.42,570.744 L1031.42,568.159 L1029.6,568.159 C1026.47,568.159 1025.42,567.939 1024.98,567.389 C1024.65,566.894 1024.65,566.729 1024.65,563.979 L1024.65,551.494 L1025.75,551.494 C1031.42,551.274 1033.45,553.309 1033.67,559.414 L1036.26,559.414 L1036.26,541.374 L1033.67,541.374 C1033.34,546.764 1031.2,548.854 1025.97,548.909 L1024.65,548.909 L1024.65,536.369 C1024.6,534.059 1025.15,533.674 1028.12,533.619 L1030.65,533.619 C1039.67,533.564 1041.92,535.599 1043.63,545.059 L1046.05,545.059 L1045.28,531.034 "/>
<path class="Harmony" d="M854.332,1003.69 L821.607,1003.69 L821.607,1006.27 L822.597,1006.27 C825.732,1006.33 826.777,1006.49 827.217,1007.04 C827.547,1007.54 827.547,1007.65 827.547,1010.45 L827.547,1036.63 C827.547,1039.44 827.547,1039.55 827.217,1040.04 C826.777,1040.59 825.732,1040.81 822.597,1040.81 L821.607,1040.81 L821.607,1043.4 L840.472,1043.4 L840.472,1040.81 L838.657,1040.81 C835.522,1040.81 834.477,1040.59 834.037,1040.04 C833.707,1039.55 833.707,1039.38 833.707,1036.63 L833.707,1024.15 L834.807,1024.15 C840.472,1023.93 842.507,1025.96 842.727,1032.07 L845.312,1032.07 L845.312,1014.03 L842.727,1014.03 C842.397,1019.42 840.252,1021.51 835.027,1021.56 L833.707,1021.56 L833.707,1009.02 C833.652,1006.71 834.202,1006.33 837.172,1006.27 L839.702,1006.27 C848.722,1006.22 850.977,1008.25 852.682,1017.71 L855.102,1017.71 L854.332,1003.69 "/>
<path class="Harmony" d="M2031.57,531.034 L1998.84,531.034 L1998.84,533.619 L1999.83,533.619 C2002.97,533.674 2004.01,533.839 2004.45,534.389 C2004.78,534.884 2004.78,534.994 2004.78,537.799 L2004.78,563.979 C2004.78,566.784 2004.78,566.894 2004.45,567.389 C2004.01,567.939 2002.97,568.159 1999.83,568.159 L1998.84,568.159 L1998.84,570.744 L2017.71,570.744 L2017.71,568.159 L2015.89,568.159 C2012.76,568.159 2011.71,567.939 2011.27,567.389 C2010.94,566.894 2010.94,566.729 2010.94,563.979 L2010.94,551.494 L2012.04,551.494 C2017.71,551.274 2019.74,553.309 2019.96,559.414 L2022.55,559.414 L2022.55,541.374 L2019.96,541.374 C2019.63,546.764 2017.49,548.854 2012.26,548.909 L2010.94,548.909 L2010.94,536.369 C2010.89,534.059 2011.44,533.674 2014.41,533.619 L2016.94,533.619 C2025.96,533.564 2028.21,535.599 2029.92,545.059 L2032.34,545.059 L2031.57,531.034 "/>
<path class="Harmony" d="M2221.89,532.488 L2189.17,532.488 L2189.17,535.073 L2190.16,535.073 C2193.29,535.128 2194.34,535.293 2194.78,535.843 C2195.11,536.338 2195.11,536.448 2195.11,539.253 L2195.11,565.433 C2195.11,568.238 2195.11,568.348 2194.78,568.843 C2194.34,569.393 2193.29,569.613 2190.16,569.613 L2189.17,569.613 L2189.17,572.198 L2208.03,572.198 L2208.03,569.613 L2206.22,569.613 C2203.08,569.613 2202.04,569.393 2201.6,568.843 C2201.27,568.348 2201.27,568.183 2201.27,565.433 L2201.27,552.948 L2202.37,552.948 C2208.03,552.728 2210.07,554.763 2210.29,560.868 L2212.87,560.868 L2212.87,542.828 L2210.29,542.828 C2209.96,548.218 2207.81,550.308 2202.59,550.363 L2201.27,550.363 L2201.27,537.823 C2201.21,535.513 2201.76,535.128 2204.73,535.073 L2207.26,535.073 C2216.28,535.018 2218.54,537.053 2220.24,546.513 L2222.66,546.513 L2221.89,532.488 "/>
<path class="Harmony" d="M2412.22,532.488 L2379.49,532.488 L2379.49,535.073 L2380.48,535.073 C2383.62,535.128 2384.66,535.293 2385.1,535.843 C2385.43,536.338 2385.43,536.448 2385.43,539.253 L2385.43,565.433 C2385.43,568.238 2385.43,568.348 2385.1,568.843 C2384.66,569.393 2383.62,569.613 2380.48,569.613 L2379.49,569.613 L2379.49,572.198 L2398.36,572.198 L2398.36,569.613 L2396.54,569.613 C2393.41,569.613 2392.36,569.393 2391.92,568.843 C2391.59,568.348 2391.59,568.183 2391.59,565.433 L2391.59,552.948 L2392.69,552.948 C2398.36,552.728 2400.39,554.763 2400.61,560.868 L2403.2,560.868 L2403.2,542.828 L2400.61,542.828 C2400.28,548.218 2398.14,550.308 2392.91,550.363 L2391.59,550.363 L2391.59,537.823 C2391.54,535.513 2392.09,535.128 2395.06,535.073 L2397.59,535.073 C2406.61,535.018 2408.86,537.053 2410.57,546.513 L2412.99,546.513 L2412.22,532.488 "/>
<path class="Harmony" d="M2602.54,532.488 L2569.81,532.488 L2569.81,535.073 L2570.8,535.073 C2573.94,535.128 2574.98,535.293 2575.42,535.843 C2575.75,536.338 2575.75,536.448 2575.75,539.253 L2575.75,565.433 C2575.75,568.238 2575.75,568.348 2575.42,568.843 C2574.98,569.393 2573.94,569.613 2570.8,569.613 L2569.81,569.613 L2569.81,572.198 L2588.68,572.198 L2588.68,569.613 L2586.86,569.613 C2583.73,569.613 2582.68,569.393 2582.24,568.843 C2581.91,568.348 2581.91,568.183 2581.91,565.433 L2581.91,552.948 L2583.01,552.948 C2588.68,552.728 2590.71,554.763 2590.93,560.868 L2593.52,560.868 L2593.52,542.828 L2590.93,542.828 C2590.6,548.218 2588.46,550.308 2583.23,550.363 L2581.91,550.363 L2581.91,537.823 C2581.86,535.513 2582.41,535.128 2585.38,535.073 L2587.91,535.073 C2596.93,535.018 2599.18,537.053 2600.89,546.513 L2603.31,546.513 L2602.54,532.488 "/>
</svg>
