<?xml version="1.0" encoding="UTF-8" standalone="no"?>
<svg width="2977.2px" height="4208.4px" viewBox="0 0 2977.2 4208.4"
 xmlns="http://www.w3.org/2000/svg" xmlns:xlink="http://www.w3.org/1999/xlink" version="1.2" baseProfile="tiny">
<title>さくら</title>
<desc>Generated by MuseScore Studio 4.4.0</desc>
<path class="" fill="#ffffff" fill-rule="evenodd" d="M0,0 L2977.2,0 L2977.2,4208.4 L0,4208.4 L0,0 "/>
<polyline class="StaffLines" fill="none" stroke="#000000" stroke-width="2.73" stroke-linejoin="bevel" points="212.598,634.198 2764.6,634.198"/>
<polyline class="StaffLines" fill="none" stroke="#000000" stroke-width="2.73" stroke-linejoin="bevel" points="212.598,658.998 2764.6,658.998"/>
<polyline class="StaffLines" fill="none" stroke="#000000" stroke-width="2.73" stroke-linejoin="bevel" points="212.598,683.798 2764.6,683.798"/>
<polyline class="StaffLines" fill="none" stroke="#000000" stroke-width="2.73" stroke-linejoin="bevel" points="212.598,708.598 2764.6,708.598"/>
<polyline class="StaffLines" fill="none" stroke="#000000" stroke-width="2.73" stroke-linejoin="bevel" points="212.598,733.398 2764.6,733.398"/>
<polyline class="StaffLines" fill="none" stroke="#000000" stroke-width="2.73" stroke-linejoin="bevel" points="212.598,1105.4 2764.6,1105.4"/>
<polyline class="StaffLines" fill="none" stroke="#000000" stroke-width="2.73" stroke-linejoin="bevel" points="212.598,1130.2 2764.6,1130.2"/>
<polyline class="StaffLines" fill="none" stroke="#000000" stroke-width="2.73" stroke-linejoin="bevel" points="212.598,1155 2764.6,1155"/>
<polyline class="StaffLines" fill="none" stroke="#000000" stroke-width="2.73" stroke-linejoin="bevel" points="212.598,1179.8 2764.6,1179.8"/>
<polyline class="StaffLines" fill="none" stroke="#000000" stroke-width="2.73" stroke-linejoin="bevel" points="212.598,1204.6 2764.6,1204.6"/>
<polyline class="StaffLines" fill="none" stroke="#000000" stroke-width="2.73" stroke-linejoin="bevel" points="212.598,1576.6 2764.6,1576.6"/>
<polyline class="StaffLines" fill="none" stroke="#000000" stroke-width="2.73" stroke-linejoin="bevel" points="212.598,1601.4 2764.6,1601.4"/>
<polyline class="StaffLines" fill="none" stroke="#000000" stroke-width="2.73" stroke-linejoin="bevel" points="212.598,1626.2 2764.6,1626.2"/>
<polyline class="StaffLines" fill="none" stroke="#000000" stroke-width="2.73" stroke-linejoin="bevel" points="212.598,1651 2764.6,1651"/>
<polyline class="StaffLines" fill="none" stroke="#000000" stroke-width="2.73" stroke-linejoin="bevel" points="212.598,1675.8 2764.6,1675.8"/>
<path class="Text" d="M1340.66,243.08 C1342.31,242.86 1342.86,242.75 1344.95,242.75 C1359.47,242.53 1373.22,241.43 1384.11,239.89 C1384.77,240.99 1384.77,241.21 1385.98,243.52 C1390.71,252.76 1393.46,257.27 1399.18,265.08 C1394.56,262.66 1385.87,261.12 1376.41,261.12 C1367.5,261.12 1360.9,262.33 1355.07,265.19 C1347.37,268.93 1342.64,275.86 1342.64,283.12 C1342.64,287.52 1344.4,291.81 1347.59,295.22 C1352.65,300.5 1362.77,303.47 1376.19,303.47 C1387.08,303.47 1397.53,301.6 1408.53,297.53 L1407.32,289.06 C1399.07,293.35 1386.97,296.1 1376.08,296.1 C1366.62,296.1 1358.7,294.23 1354.63,291.04 C1351.99,288.84 1350.45,285.87 1350.45,282.46 C1350.45,278.5 1352.76,274.54 1356.39,272.23 C1361.34,269.15 1368.05,267.61 1377.29,267.61 C1384.77,267.61 1390.93,268.6 1396.54,270.47 C1399.62,271.57 1401.16,272.56 1404.13,274.98 L1411.5,270.8 C1403.8,260.57 1395.66,247.37 1391.7,238.79 C1392.8,238.57 1392.8,238.57 1395.44,238.02 C1402.37,236.7 1403.69,236.37 1410.29,234.61 C1413.59,233.73 1414.47,233.51 1416.78,233.07 L1415.68,225.26 C1409.74,227.79 1399.73,230.43 1389.06,232.19 C1388.07,230.1 1387.74,229.55 1385.1,222.51 C1382.35,215.47 1382.35,215.47 1381.91,212.61 L1373.22,213.82 C1374.21,215.8 1374.87,217.34 1376.08,220.2 C1378.06,225.15 1379.82,229.55 1381.47,233.29 C1371.13,234.72 1358.7,235.6 1348.69,235.6 C1344.95,235.6 1343.08,235.49 1340.22,235.05 L1340.66,243.08 M1502.14,212.61 C1498.29,218.66 1484.54,231.53 1469.91,242.75 C1461.88,248.91 1461.88,248.91 1460.56,250.23 C1458.47,252.43 1457.37,254.96 1457.37,257.6 C1457.37,261.34 1459.13,263.76 1465.29,268.6 C1481.35,281.14 1485.75,284.77 1493.12,291.59 C1500.38,298.3 1504.67,302.92 1507.31,306.66 L1514.24,299.84 C1513.03,298.85 1512.81,298.74 1511.16,297.09 C1494.99,281.8 1491.91,279.27 1475.96,267.06 C1467.05,260.13 1466.17,259.36 1466.17,257.38 C1466.17,255.84 1466.94,254.96 1471.01,251.88 C1484.87,241.21 1490.81,236.26 1496.31,231.09 C1507.75,220.09 1508.63,219.32 1509.84,218.33 L1502.14,212.61 M1579.03,221.52 C1588.82,226.03 1588.82,226.03 1595.86,228.45 C1603.23,231.09 1603.23,231.09 1617.31,234.72 L1620.39,227.02 C1608.4,225.15 1591.68,219.65 1583.1,214.81 L1579.03,221.52 M1569.9,233.4 C1569.79,235.38 1569.68,236.26 1569.13,239.23 C1567.59,248.47 1565.61,261.23 1564.51,269.59 C1564.07,273.11 1563.96,274.1 1563.63,276.08 L1572.21,276.3 C1574.08,273.88 1574.85,273.11 1576.61,271.79 C1584.86,265.74 1596.19,262.22 1607.41,262.22 C1620.83,262.22 1628.75,267.5 1628.75,276.52 C1628.75,287.74 1617.2,295 1599.05,295 C1589.81,295 1579.36,292.91 1571,289.5 C1571.66,292.36 1571.77,293.79 1571.77,296.32 C1571.77,296.76 1571.77,297.42 1571.66,298.41 C1578.37,300.06 1578.37,300.06 1580.46,300.61 C1586.51,301.93 1593.11,302.59 1599.71,302.59 C1611.37,302.59 1620.06,300.28 1627.1,295.33 C1633.26,290.93 1637,283.78 1637,276.41 C1637,263.54 1625.45,255.18 1607.52,255.18 C1595.42,255.18 1583.32,258.81 1575.73,264.64 C1574.52,265.63 1573.75,266.4 1572.32,267.94 L1572.1,267.83 C1572.32,266.84 1572.43,266.62 1572.54,265.3 C1572.87,262.77 1573.09,262 1575.73,246.05 C1576.72,240 1577.27,237.36 1578.26,233.95 L1569.9,233.4 "/>
<path class="MeasureNumber" d="M216.922,1040.48 C215.682,1041.24 215.322,1041.72 215.322,1042.52 C215.322,1043.28 215.962,1043.84 216.762,1043.84 C217.802,1043.84 218.402,1043.08 218.522,1041.6 C219.762,1040.6 221.082,1040.16 222.682,1040.16 C225.642,1040.16 227.282,1042 227.282,1045.32 C227.282,1050.52 223.922,1054.76 219.802,1054.76 C217.442,1054.76 215.522,1053.64 215.522,1052.32 C215.522,1052.08 215.562,1052 215.762,1051.88 C217.042,1051.28 218.082,1050.84 218.082,1049.16 C218.082,1047.88 217.082,1046.92 215.682,1046.92 C213.922,1046.92 212.602,1048.4 212.602,1050.32 C212.602,1053.84 215.642,1056.4 219.922,1056.4 C226.402,1056.4 231.642,1051.24 231.642,1044.84 C231.642,1040.8 228.562,1037.96 224.202,1037.96 C222.482,1037.96 221.082,1038.32 219.162,1039.28 L221.402,1031.72 C223.522,1032.16 225.202,1032.36 226.642,1032.36 C229.282,1032.36 231.642,1031.52 232.962,1030.12 C233.642,1029.32 234.042,1028.64 234.042,1028.12 C234.042,1027.88 233.922,1027.64 233.762,1027.64 C233.642,1027.64 233.562,1027.68 233.322,1027.8 C232.002,1028.44 230.322,1028.8 228.762,1028.8 C226.362,1028.8 223.522,1028.4 220.562,1027.64 L216.922,1040.48 "/>
<path class="MeasureNumber" d="M228.053,1513.32 C227.053,1517.96 224.373,1525.92 218.653,1525.92 C217.493,1525.92 216.733,1525.44 216.733,1524.72 C216.733,1524.44 216.813,1524.32 217.133,1523.84 C217.533,1523.32 217.733,1522.84 217.733,1522.28 C217.733,1520.96 216.693,1519.96 215.333,1519.96 C213.733,1519.96 212.613,1521.16 212.613,1522.92 C212.613,1525.64 215.173,1527.6 218.733,1527.6 C227.493,1527.6 233.093,1516.4 233.093,1508.8 C233.093,1502.56 230.093,1498.84 225.133,1498.84 C219.173,1498.84 214.733,1504.32 214.733,1510.04 C214.733,1513.84 217.653,1516.72 221.533,1516.72 C224.173,1516.72 226.213,1515.64 228.053,1513.32 M225.093,1500.52 C227.653,1500.52 229.293,1502.56 229.293,1505.76 C229.293,1510.72 226.573,1514.36 222.893,1514.36 C220.373,1514.36 218.973,1512.64 218.973,1509.64 C218.973,1506.04 220.693,1500.52 225.093,1500.52"/>
<polyline class="BarLine" fill="none" stroke="#000000" stroke-width="4.46" stroke-linejoin="bevel" points="2143.33,632.834 2143.33,734.762"/>
<polyline class="BarLine" fill="none" stroke="#000000" stroke-width="4.46" stroke-linejoin="bevel" points="2762.37,1104.03 2762.37,1205.96"/>
<polyline class="BarLine" fill="none" stroke="#000000" stroke-width="4.46" stroke-linejoin="bevel" points="2414.89,1575.23 2414.89,1677.16"/>
<polyline class="BarLine" fill="none" stroke="#000000" stroke-width="4.46" stroke-linejoin="bevel" points="1542.9,1104.03 1542.9,1205.96"/>
<polyline class="BarLine" fill="none" stroke="#000000" stroke-width="4.46" stroke-linejoin="bevel" points="758.32,1575.23 758.32,1677.16"/>
<polyline class="BarLine" fill="none" stroke="#000000" stroke-width="4.46" stroke-linejoin="bevel" points="2164.83,1104.03 2164.83,1205.96"/>
<polyline class="BarLine" fill="none" stroke="#000000" stroke-width="4.46" stroke-linejoin="bevel" points="2762.37,632.834 2762.37,734.762"/>
<polyline class="BarLine" fill="none" stroke="#000000" stroke-width="4.46" stroke-linejoin="bevel" points="1561.72,1575.23 1561.72,1677.16"/>
<polyline class="BarLine" fill="none" stroke="#000000" stroke-width="4.46" stroke-linejoin="bevel" points="1498.97,632.834 1498.97,734.762"/>
<polyline class="BarLine" fill="none" stroke="#000000" stroke-width="4.46" stroke-linejoin="bevel" points="2740.42,1575.23 2740.42,1677.16"/>
<polyline class="BarLine" fill="none" stroke="#000000" stroke-width="13.64" stroke-linejoin="bevel" points="2757.78,1575.23 2757.78,1677.16"/>
<polyline class="BarLine" fill="none" stroke="#000000" stroke-width="4.46" stroke-linejoin="bevel" points="945.364,1104.03 945.364,1205.96"/>
<polyline class="BarLine" fill="none" stroke="#000000" stroke-width="4.46" stroke-linejoin="bevel" points="1176.61,1575.23 1176.61,1677.16"/>
<polyline class="BarLine" fill="none" stroke="#000000" stroke-width="4.46" stroke-linejoin="bevel" points="930.574,632.834 930.574,734.762"/>
<polyline class="BarLine" fill="none" stroke="#000000" stroke-width="4.46" stroke-linejoin="bevel" points="1946.83,1575.23 1946.83,1677.16"/>
<polyline class="LedgerLine" fill="none" stroke="#000000" stroke-width="3.97" stroke-linejoin="bevel" points="495.536,1229.4 545.121,1229.4"/>
<polyline class="LedgerLine" fill="none" stroke="#000000" stroke-width="3.97" stroke-linejoin="bevel" points="448.775,1700.6 498.36,1700.6"/>
<polyline class="LedgerLine" fill="none" stroke="#000000" stroke-width="3.97" stroke-linejoin="bevel" points="1215,1229.4 1264.58,1229.4"/>
<polyline class="LedgerLine" fill="none" stroke="#000000" stroke-width="3.97" stroke-linejoin="bevel" points="1312.53,1229.4 1362.12,1229.4"/>
<polyline class="LedgerLine" fill="none" stroke="#000000" stroke-width="3.97" stroke-linejoin="bevel" points="950.019,1700.6 999.603,1700.6"/>
<polyline class="LedgerLine" fill="none" stroke="#000000" stroke-width="3.97" stroke-linejoin="bevel" points="1016.38,1700.6 1065.97,1700.6"/>
<polyline class="Stem" fill="none" stroke="#000000" stroke-width="2.73" stroke-linejoin="bevel" points="1725.05,1159.16 1725.05,1229.4"/>
<polyline class="Stem" fill="none" stroke="#000000" stroke-width="2.73" stroke-linejoin="bevel" points="1871.35,1146.76 1871.35,1223.2"/>
<polyline class="Stem" fill="none" stroke="#000000" stroke-width="2.73" stroke-linejoin="bevel" points="1241.94,1634.63 1241.94,1558"/>
<polyline class="Stem" fill="none" stroke="#000000" stroke-width="2.73" stroke-linejoin="bevel" points="2208.66,692.23 2208.66,615.598"/>
<polyline class="Stem" fill="none" stroke="#000000" stroke-width="2.73" stroke-linejoin="bevel" points="1055.92,1709.03 1055.92,1626.2"/>
<polyline class="Stem" fill="none" stroke="#000000" stroke-width="2.73" stroke-linejoin="bevel" points="1838.64,675.565 1838.64,751.998"/>
<polyline class="Stem" fill="none" stroke="#000000" stroke-width="2.73" stroke-linejoin="bevel" points="2360.58,679.83 2360.58,615.68"/>
<polyline class="Stem" fill="none" stroke="#000000" stroke-width="2.73" stroke-linejoin="bevel" points="989.559,1696.63 989.559,1607.48"/>
<polyline class="Stem" fill="none" stroke="#000000" stroke-width="2.73" stroke-linejoin="bevel" points="923.196,1671.83 923.196,1601.52"/>
<polyline class="Stem" fill="none" stroke="#000000" stroke-width="2.73" stroke-linejoin="bevel" points="2461.85,692.23 2461.85,621.717"/>
<polyline class="Stem" fill="none" stroke="#000000" stroke-width="2.73" stroke-linejoin="bevel" points="823.652,1671.83 823.652,1589"/>
<polyline class="Stem" fill="none" stroke="#000000" stroke-width="2.73" stroke-linejoin="bevel" points="2563.13,717.03 2563.13,634.198"/>
<polyline class="Stem" fill="none" stroke="#000000" stroke-width="2.73" stroke-linejoin="bevel" points="1341.49,1634.63 1341.49,1558"/>
<polyline class="Stem" fill="none" stroke="#000000" stroke-width="2.73" stroke-linejoin="bevel" points="1686.72,687.965 1686.72,758.198"/>
<polyline class="Stem" fill="none" stroke="#000000" stroke-width="2.73" stroke-linejoin="bevel" points="1411.53,1630.36 1411.53,1700.6"/>
<polyline class="Stem" fill="none" stroke="#000000" stroke-width="2.73" stroke-linejoin="bevel" points="1564.31,692.23 1564.31,615.598"/>
<polyline class="Stem" fill="none" stroke="#000000" stroke-width="2.73" stroke-linejoin="bevel" points="1627.05,1634.63 1627.05,1558"/>
<polyline class="Stem" fill="none" stroke="#000000" stroke-width="2.73" stroke-linejoin="bevel" points="687.404,1659.43 687.404,1576.6"/>
<polyline class="Stem" fill="none" stroke="#000000" stroke-width="2.73" stroke-linejoin="bevel" points="587.86,1671.83 587.86,1589"/>
<polyline class="Stem" fill="none" stroke="#000000" stroke-width="2.73" stroke-linejoin="bevel" points="388.771,1200.63 388.771,1117.8"/>
<polyline class="Stem" fill="none" stroke="#000000" stroke-width="2.73" stroke-linejoin="bevel" points="1270.24,687.965 1270.24,758.198"/>
<polyline class="Stem" fill="none" stroke="#000000" stroke-width="2.73" stroke-linejoin="bevel" points="488.316,1696.63 488.316,1613.8"/>
<polyline class="Stem" fill="none" stroke="#000000" stroke-width="2.73" stroke-linejoin="bevel" points="535.077,1225.43 535.077,1142.6"/>
<polyline class="Stem" fill="none" stroke="#000000" stroke-width="2.73" stroke-linejoin="bevel" points="1726.6,1634.63 1726.6,1558"/>
<polyline class="Stem" fill="none" stroke="#000000" stroke-width="2.73" stroke-linejoin="bevel" points="388.771,1671.83 388.771,1589"/>
<polyline class="Stem" fill="none" stroke="#000000" stroke-width="2.73" stroke-linejoin="bevel" points="681.382,1200.63 681.382,1117.8"/>
<polyline class="Stem" fill="none" stroke="#000000" stroke-width="2.73" stroke-linejoin="bevel" points="1147.82,692.23 1147.82,615.598"/>
<polyline class="Stem" fill="none" stroke="#000000" stroke-width="2.73" stroke-linejoin="bevel" points="1796.64,1630.36 1796.64,1700.6"/>
<polyline class="Stem" fill="none" stroke="#000000" stroke-width="2.73" stroke-linejoin="bevel" points="827.687,1188.23 827.687,1105.4"/>
<polyline class="Stem" fill="none" stroke="#000000" stroke-width="2.73" stroke-linejoin="bevel" points="995.906,692.23 995.906,615.598"/>
<polyline class="Stem" fill="none" stroke="#000000" stroke-width="2.73" stroke-linejoin="bevel" points="2012.16,1671.83 2012.16,1589"/>
<polyline class="Stem" fill="none" stroke="#000000" stroke-width="2.73" stroke-linejoin="bevel" points="701.836,687.965 701.836,758.198"/>
<polyline class="Stem" fill="none" stroke="#000000" stroke-width="2.73" stroke-linejoin="bevel" points="1010.7,1200.63 1010.7,1117.8"/>
<polyline class="Stem" fill="none" stroke="#000000" stroke-width="2.73" stroke-linejoin="bevel" points="2571.54,1188.23 2571.54,1105.4"/>
<polyline class="Stem" fill="none" stroke="#000000" stroke-width="2.73" stroke-linejoin="bevel" points="2474,1163.43 2474,1092.91"/>
<polyline class="Stem" fill="none" stroke="#000000" stroke-width="2.73" stroke-linejoin="bevel" points="1157,1200.63 1157,1130.28"/>
<polyline class="Stem" fill="none" stroke="#000000" stroke-width="2.73" stroke-linejoin="bevel" points="2376.47,1151.03 2376.47,1086.88"/>
<polyline class="Stem" fill="none" stroke="#000000" stroke-width="2.73" stroke-linejoin="bevel" points="2230.16,1163.43 2230.16,1086.8"/>
<polyline class="Stem" fill="none" stroke="#000000" stroke-width="2.73" stroke-linejoin="bevel" points="1254.54,1225.43 1254.54,1136.31"/>
<polyline class="Stem" fill="none" stroke="#000000" stroke-width="2.73" stroke-linejoin="bevel" points="2111.7,1659.43 2111.7,1576.6"/>
<polyline class="Stem" fill="none" stroke="#000000" stroke-width="2.73" stroke-linejoin="bevel" points="579.419,692.23 579.419,615.598"/>
<polyline class="Stem" fill="none" stroke="#000000" stroke-width="2.73" stroke-linejoin="bevel" points="1352.07,1237.83 1352.07,1155"/>
<polyline class="Stem" fill="none" stroke="#000000" stroke-width="2.73" stroke-linejoin="bevel" points="2211.25,1622.23 2211.25,1558.12"/>
<polyline class="Stem" fill="none" stroke="#000000" stroke-width="2.73" stroke-linejoin="bevel" points="2277.61,1634.63 2277.61,1564.08"/>
<polyline class="Stem" fill="none" stroke="#000000" stroke-width="2.73" stroke-linejoin="bevel" points="2343.97,1659.43 2343.97,1576.6"/>
<polyline class="Stem" fill="none" stroke="#000000" stroke-width="2.73" stroke-linejoin="bevel" points="427.506,692.23 427.506,615.598"/>
<polyline class="Stem" fill="none" stroke="#000000" stroke-width="2.73" stroke-linejoin="bevel" points="2480.22,1671.83 2480.22,1589"/>
<polyline class="Stem" fill="none" stroke="#000000" stroke-width="2.73" stroke-linejoin="bevel" points="1608.24,1163.43 1608.24,1086.8"/>
<polyline class="Stem" fill="none" stroke="#000000" stroke-width="2.73" stroke-linejoin="bevel" points="2017.66,1159.16 2017.66,1229.4"/>
<polyline class="Stem" fill="none" stroke="#000000" stroke-width="2.73" stroke-linejoin="bevel" points="1990.55,687.965 1990.55,758.198"/>
<path class="Note" transform="matrix(0.992,0,0,0.992,2016.29,1155)" d="M0,4.2 C0,8.5 3.1,13.3 11.2,13.3 C21.6,13.3 32.5,4.8 32.5,-4 C32.5,-9.9 27.5,-13.2 21.3,-13.2 C11.6,-13.2 0,-5 0,4.2"/>
<path class="Note" transform="matrix(0.992,0,0,0.992,1723.68,1155)" d="M0,4.2 C0,8.5 3.1,13.3 11.2,13.3 C21.6,13.3 32.5,4.8 32.5,-4 C32.5,-9.9 27.5,-13.2 21.3,-13.2 C11.6,-13.2 0,-5 0,4.2"/>
<path class="Note" transform="matrix(0.992,0,0,0.992,2449.36,1675.8)" d="M21.3,-13.2 C11.6,-13.2 0,-5.1 0,4.2 C0,8.5 3.1,13.3 11.2,13.3 C21.6,13.3 32.5,4.8 32.5,-4 C32.5,-9.9 27.5,-13.2 21.3,-13.2 M7.5,8.6 C4.2,8.6 3.5,5.9 3.5,5 C3.5,0.1 20.3,-8.5 25,-8.5 C27.4,-8.5 29,-7.1 29,-4.9 C29,0.1 12.1,8.6 7.5,8.6"/>
<path class="Note" transform="matrix(0.992,0,0,0.992,1869.99,1142.6)" d="M0,4.2 C0,8.5 3.1,13.3 11.2,13.3 C21.6,13.3 32.5,4.8 32.5,-4 C32.5,-9.9 27.5,-13.2 21.3,-13.2 C11.6,-13.2 0,-5 0,4.2"/>
<path class="Note" transform="matrix(0.992,0,0,0.992,1577.38,1167.4)" d="M0,4.2 C0,8.5 3.1,13.3 11.2,13.3 C21.6,13.3 32.5,4.8 32.5,-4 C32.5,-9.9 27.5,-13.2 21.3,-13.2 C11.6,-13.2 0,-5 0,4.2"/>
<path class="Note" transform="matrix(0.992,0,0,0.992,1533.45,696.198)" d="M0,4.2 C0,8.5 3.1,13.3 11.2,13.3 C21.6,13.3 32.5,4.8 32.5,-4 C32.5,-9.9 27.5,-13.2 21.3,-13.2 C11.6,-13.2 0,-5 0,4.2"/>
<path class="Note" transform="matrix(0.992,0,0,0.992,1116.96,696.198)" d="M0,4.2 C0,8.5 3.1,13.3 11.2,13.3 C21.6,13.3 32.5,4.8 32.5,-4 C32.5,-9.9 27.5,-13.2 21.3,-13.2 C11.6,-13.2 0,-5 0,4.2"/>
<path class="Note" transform="matrix(0.992,0,0,0.992,1321.21,1241.8)" d="M21.3,-13.2 C11.6,-13.2 0,-5.1 0,4.2 C0,8.5 3.1,13.3 11.2,13.3 C21.6,13.3 32.5,4.8 32.5,-4 C32.5,-9.9 27.5,-13.2 21.3,-13.2 M7.5,8.6 C4.2,8.6 3.5,5.9 3.5,5 C3.5,0.1 20.3,-8.5 25,-8.5 C27.4,-8.5 29,-7.1 29,-4.9 C29,0.1 12.1,8.6 7.5,8.6"/>
<path class="Note" transform="matrix(0.992,0,0,0.992,1410.17,1626.2)" d="M21.3,-13.2 C11.6,-13.2 0,-5.1 0,4.2 C0,8.5 3.1,13.3 11.2,13.3 C21.6,13.3 32.5,4.8 32.5,-4 C32.5,-9.9 27.5,-13.2 21.3,-13.2 M7.5,8.6 C4.2,8.6 3.5,5.9 3.5,5 C3.5,0.1 20.3,-8.5 25,-8.5 C27.4,-8.5 29,-7.1 29,-4.9 C29,0.1 12.1,8.6 7.5,8.6"/>
<path class="Note" transform="matrix(0.992,0,0,0.992,1223.68,1229.4)" d="M0,4.2 C0,8.5 3.1,13.3 11.2,13.3 C21.6,13.3 32.5,4.8 32.5,-4 C32.5,-9.9 27.5,-13.2 21.3,-13.2 C11.6,-13.2 0,-5 0,4.2"/>
<path class="Note" transform="matrix(0.992,0,0,0.992,1695.73,1638.6)" d="M0,4.2 C0,8.5 3.1,13.3 11.2,13.3 C21.6,13.3 32.5,4.8 32.5,-4 C32.5,-9.9 27.5,-13.2 21.3,-13.2 C11.6,-13.2 0,-5 0,4.2"/>
<path class="Note" transform="matrix(0.992,0,0,0.992,2199.3,1167.4)" d="M0,4.2 C0,8.5 3.1,13.3 11.2,13.3 C21.6,13.3 32.5,4.8 32.5,-4 C32.5,-9.9 27.5,-13.2 21.3,-13.2 C11.6,-13.2 0,-5 0,4.2"/>
<path class="Note" transform="matrix(0.992,0,0,0.992,1310.63,1638.6)" d="M0,4.2 C0,8.5 3.1,13.3 11.2,13.3 C21.6,13.3 32.5,4.8 32.5,-4 C32.5,-9.9 27.5,-13.2 21.3,-13.2 C11.6,-13.2 0,-5 0,4.2"/>
<path class="Note" transform="matrix(0.992,0,0,0.992,1126.14,1204.6)" d="M0,4.2 C0,8.5 3.1,13.3 11.2,13.3 C21.6,13.3 32.5,4.8 32.5,-4 C32.5,-9.9 27.5,-13.2 21.3,-13.2 C11.6,-13.2 0,-5 0,4.2"/>
<path class="Note" transform="matrix(0.992,0,0,0.992,2345.61,1155)" d="M0,4.2 C0,8.5 3.1,13.3 11.2,13.3 C21.6,13.3 32.5,4.8 32.5,-4 C32.5,-9.9 27.5,-13.2 21.3,-13.2 C11.6,-13.2 0,-5 0,4.2"/>
<path class="Note" transform="matrix(0.992,0,0,0.992,1685.36,683.798)" d="M0,4.2 C0,8.5 3.1,13.3 11.2,13.3 C21.6,13.3 32.5,4.8 32.5,-4 C32.5,-9.9 27.5,-13.2 21.3,-13.2 C11.6,-13.2 0,-5 0,4.2"/>
<path class="Note" transform="matrix(0.992,0,0,0.992,2313.11,1663.4)" d="M0,4.2 C0,8.5 3.1,13.3 11.2,13.3 C21.6,13.3 32.5,4.8 32.5,-4 C32.5,-9.9 27.5,-13.2 21.3,-13.2 C11.6,-13.2 0,-5 0,4.2"/>
<path class="Note" transform="matrix(0.992,0,0,0.992,2443.14,1167.4)" d="M0,4.2 C0,8.5 3.1,13.3 11.2,13.3 C21.6,13.3 32.5,4.8 32.5,-4 C32.5,-9.9 27.5,-13.2 21.3,-13.2 C11.6,-13.2 0,-5 0,4.2"/>
<path class="Note" transform="matrix(0.992,0,0,0.992,979.836,1204.6)" d="M0,4.2 C0,8.5 3.1,13.3 11.2,13.3 C21.6,13.3 32.5,4.8 32.5,-4 C32.5,-9.9 27.5,-13.2 21.3,-13.2 C11.6,-13.2 0,-5 0,4.2"/>
<path class="Note" transform="matrix(0.992,0,0,0.992,2540.68,1192.2)" d="M21.3,-13.2 C11.6,-13.2 0,-5.1 0,4.2 C0,8.5 3.1,13.3 11.2,13.3 C21.6,13.3 32.5,4.8 32.5,-4 C32.5,-9.9 27.5,-13.2 21.3,-13.2 M7.5,8.6 C4.2,8.6 3.5,5.9 3.5,5 C3.5,0.1 20.3,-8.5 25,-8.5 C27.4,-8.5 29,-7.1 29,-4.9 C29,0.1 12.1,8.6 7.5,8.6"/>
<path class="Note" transform="matrix(0.992,0,0,0.992,396.645,696.198)" d="M0,4.2 C0,8.5 3.1,13.3 11.2,13.3 C21.6,13.3 32.5,4.8 32.5,-4 C32.5,-9.9 27.5,-13.2 21.3,-13.2 C11.6,-13.2 0,-5 0,4.2"/>
<path class="Note" transform="matrix(0.992,0,0,0.992,796.826,1192.2)" d="M0,4.2 C0,8.5 3.1,13.3 11.2,13.3 C21.6,13.3 32.5,4.8 32.5,-4 C32.5,-9.9 27.5,-13.2 21.3,-13.2 C11.6,-13.2 0,-5 0,4.2"/>
<path class="Note" transform="matrix(0.992,0,0,0.992,2246.75,1638.6)" d="M0,4.2 C0,8.5 3.1,13.3 11.2,13.3 C21.6,13.3 32.5,4.8 32.5,-4 C32.5,-9.9 27.5,-13.2 21.3,-13.2 C11.6,-13.2 0,-5 0,4.2"/>
<path class="Note" transform="matrix(0.992,0,0,0.992,650.521,1204.6)" d="M0,4.2 C0,8.5 3.1,13.3 11.2,13.3 C21.6,13.3 32.5,4.8 32.5,-4 C32.5,-9.9 27.5,-13.2 21.3,-13.2 C11.6,-13.2 0,-5 0,4.2"/>
<path class="Note" transform="matrix(0.992,0,0,0.992,1795.28,1626.2)" d="M21.3,-13.2 C11.6,-13.2 0,-5.1 0,4.2 C0,8.5 3.1,13.3 11.2,13.3 C21.6,13.3 32.5,4.8 32.5,-4 C32.5,-9.9 27.5,-13.2 21.3,-13.2 M7.5,8.6 C4.2,8.6 3.5,5.9 3.5,5 C3.5,0.1 20.3,-8.5 25,-8.5 C27.4,-8.5 29,-7.1 29,-4.9 C29,0.1 12.1,8.6 7.5,8.6"/>
<path class="Note" transform="matrix(0.992,0,0,0.992,1211.08,1638.6)" d="M0,4.2 C0,8.5 3.1,13.3 11.2,13.3 C21.6,13.3 32.5,4.8 32.5,-4 C32.5,-9.9 27.5,-13.2 21.3,-13.2 C11.6,-13.2 0,-5 0,4.2"/>
<path class="Note" transform="matrix(0.992,0,0,0.992,504.216,1229.4)" d="M0,4.2 C0,8.5 3.1,13.3 11.2,13.3 C21.6,13.3 32.5,4.8 32.5,-4 C32.5,-9.9 27.5,-13.2 21.3,-13.2 C11.6,-13.2 0,-5 0,4.2"/>
<path class="Note" transform="matrix(0.992,0,0,0.992,357.911,1675.8)" d="M0,4.2 C0,8.5 3.1,13.3 11.2,13.3 C21.6,13.3 32.5,4.8 32.5,-4 C32.5,-9.9 27.5,-13.2 21.3,-13.2 C11.6,-13.2 0,-5 0,4.2"/>
<path class="Note" transform="matrix(0.992,0,0,0.992,1837.27,671.398)" d="M0,4.2 C0,8.5 3.1,13.3 11.2,13.3 C21.6,13.3 32.5,4.8 32.5,-4 C32.5,-9.9 27.5,-13.2 21.3,-13.2 C11.6,-13.2 0,-5 0,4.2"/>
<path class="Note" transform="matrix(0.992,0,0,0.992,965.046,696.198)" d="M0,4.2 C0,8.5 3.1,13.3 11.2,13.3 C21.6,13.3 32.5,4.8 32.5,-4 C32.5,-9.9 27.5,-13.2 21.3,-13.2 C11.6,-13.2 0,-5 0,4.2"/>
<path class="Note" transform="matrix(0.992,0,0,0.992,357.911,1204.6)" d="M0,4.2 C0,8.5 3.1,13.3 11.2,13.3 C21.6,13.3 32.5,4.8 32.5,-4 C32.5,-9.9 27.5,-13.2 21.3,-13.2 C11.6,-13.2 0,-5 0,4.2"/>
<path class="Note" transform="matrix(0.992,0,0,0.992,457.455,1700.6)" d="M0,4.2 C0,8.5 3.1,13.3 11.2,13.3 C21.6,13.3 32.5,4.8 32.5,-4 C32.5,-9.9 27.5,-13.2 21.3,-13.2 C11.6,-13.2 0,-5 0,4.2"/>
<path class="Note" transform="matrix(0.992,0,0,0.992,1268.87,683.798)" d="M21.3,-13.2 C11.6,-13.2 0,-5.1 0,4.2 C0,8.5 3.1,13.3 11.2,13.3 C21.6,13.3 32.5,4.8 32.5,-4 C32.5,-9.9 27.5,-13.2 21.3,-13.2 M7.5,8.6 C4.2,8.6 3.5,5.9 3.5,5 C3.5,0.1 20.3,-8.5 25,-8.5 C27.4,-8.5 29,-7.1 29,-4.9 C29,0.1 12.1,8.6 7.5,8.6"/>
<path class="Note" transform="matrix(0.992,0,0,0.992,556.999,1675.8)" d="M0,4.2 C0,8.5 3.1,13.3 11.2,13.3 C21.6,13.3 32.5,4.8 32.5,-4 C32.5,-9.9 27.5,-13.2 21.3,-13.2 C11.6,-13.2 0,-5 0,4.2"/>
<path class="Note" transform="matrix(0.992,0,0,0.992,2180.39,1626.2)" d="M0,4.2 C0,8.5 3.1,13.3 11.2,13.3 C21.6,13.3 32.5,4.8 32.5,-4 C32.5,-9.9 27.5,-13.2 21.3,-13.2 C11.6,-13.2 0,-5 0,4.2"/>
<path class="Note" transform="matrix(0.992,0,0,0.992,1989.19,683.798)" d="M0,4.2 C0,8.5 3.1,13.3 11.2,13.3 C21.6,13.3 32.5,4.8 32.5,-4 C32.5,-9.9 27.5,-13.2 21.3,-13.2 C11.6,-13.2 0,-5 0,4.2"/>
<path class="Note" transform="matrix(0.992,0,0,0.992,656.544,1663.4)" d="M0,4.2 C0,8.5 3.1,13.3 11.2,13.3 C21.6,13.3 32.5,4.8 32.5,-4 C32.5,-9.9 27.5,-13.2 21.3,-13.2 C11.6,-13.2 0,-5 0,4.2"/>
<path class="Note" transform="matrix(0.992,0,0,0.992,2080.84,1663.4)" d="M0,4.2 C0,8.5 3.1,13.3 11.2,13.3 C21.6,13.3 32.5,4.8 32.5,-4 C32.5,-9.9 27.5,-13.2 21.3,-13.2 C11.6,-13.2 0,-5 0,4.2"/>
<path class="Note" transform="matrix(0.992,0,0,0.992,2532.27,720.998)" d="M21.3,-13.2 C11.6,-13.2 0,-5.1 0,4.2 C0,8.5 3.1,13.3 11.2,13.3 C21.6,13.3 32.5,4.8 32.5,-4 C32.5,-9.9 27.5,-13.2 21.3,-13.2 M7.5,8.6 C4.2,8.6 3.5,5.9 3.5,5 C3.5,0.1 20.3,-8.5 25,-8.5 C27.4,-8.5 29,-7.1 29,-4.9 C29,0.1 12.1,8.6 7.5,8.6"/>
<path class="Note" transform="matrix(0.992,0,0,0.992,2430.99,696.198)" d="M0,4.2 C0,8.5 3.1,13.3 11.2,13.3 C21.6,13.3 32.5,4.8 32.5,-4 C32.5,-9.9 27.5,-13.2 21.3,-13.2 C11.6,-13.2 0,-5 0,4.2"/>
<path class="Note" transform="matrix(0.992,0,0,0.992,792.792,1675.8)" d="M0,4.2 C0,8.5 3.1,13.3 11.2,13.3 C21.6,13.3 32.5,4.8 32.5,-4 C32.5,-9.9 27.5,-13.2 21.3,-13.2 C11.6,-13.2 0,-5 0,4.2"/>
<path class="Note" transform="matrix(0.992,0,0,0.992,548.559,696.198)" d="M0,4.2 C0,8.5 3.1,13.3 11.2,13.3 C21.6,13.3 32.5,4.8 32.5,-4 C32.5,-9.9 27.5,-13.2 21.3,-13.2 C11.6,-13.2 0,-5 0,4.2"/>
<path class="Note" transform="matrix(0.992,0,0,0.992,700.472,683.798)" d="M21.3,-13.2 C11.6,-13.2 0,-5.1 0,4.2 C0,8.5 3.1,13.3 11.2,13.3 C21.6,13.3 32.5,4.8 32.5,-4 C32.5,-9.9 27.5,-13.2 21.3,-13.2 M7.5,8.6 C4.2,8.6 3.5,5.9 3.5,5 C3.5,0.1 20.3,-8.5 25,-8.5 C27.4,-8.5 29,-7.1 29,-4.9 C29,0.1 12.1,8.6 7.5,8.6"/>
<path class="Note" transform="matrix(0.992,0,0,0.992,892.336,1675.8)" d="M0,4.2 C0,8.5 3.1,13.3 11.2,13.3 C21.6,13.3 32.5,4.8 32.5,-4 C32.5,-9.9 27.5,-13.2 21.3,-13.2 C11.6,-13.2 0,-5 0,4.2"/>
<path class="Note" transform="matrix(0.992,0,0,0.992,1025.06,1713)" d="M21.3,-13.2 C11.6,-13.2 0,-5.1 0,4.2 C0,8.5 3.1,13.3 11.2,13.3 C21.6,13.3 32.5,4.8 32.5,-4 C32.5,-9.9 27.5,-13.2 21.3,-13.2 M7.5,8.6 C4.2,8.6 3.5,5.9 3.5,5 C3.5,0.1 20.3,-8.5 25,-8.5 C27.4,-8.5 29,-7.1 29,-4.9 C29,0.1 12.1,8.6 7.5,8.6"/>
<path class="Note" transform="matrix(0.992,0,0,0.992,2329.72,683.798)" d="M0,4.2 C0,8.5 3.1,13.3 11.2,13.3 C21.6,13.3 32.5,4.8 32.5,-4 C32.5,-9.9 27.5,-13.2 21.3,-13.2 C11.6,-13.2 0,-5 0,4.2"/>
<path class="Note" transform="matrix(0.992,0,0,0.992,1981.3,1675.8)" d="M0,4.2 C0,8.5 3.1,13.3 11.2,13.3 C21.6,13.3 32.5,4.8 32.5,-4 C32.5,-9.9 27.5,-13.2 21.3,-13.2 C11.6,-13.2 0,-5 0,4.2"/>
<path class="Note" transform="matrix(0.992,0,0,0.992,958.699,1700.6)" d="M0,4.2 C0,8.5 3.1,13.3 11.2,13.3 C21.6,13.3 32.5,4.8 32.5,-4 C32.5,-9.9 27.5,-13.2 21.3,-13.2 C11.6,-13.2 0,-5 0,4.2"/>
<path class="Note" transform="matrix(0.992,0,0,0.992,2177.8,696.198)" d="M0,4.2 C0,8.5 3.1,13.3 11.2,13.3 C21.6,13.3 32.5,4.8 32.5,-4 C32.5,-9.9 27.5,-13.2 21.3,-13.2 C11.6,-13.2 0,-5 0,4.2"/>
<path class="Note" transform="matrix(0.992,0,0,0.992,1596.19,1638.6)" d="M0,4.2 C0,8.5 3.1,13.3 11.2,13.3 C21.6,13.3 32.5,4.8 32.5,-4 C32.5,-9.9 27.5,-13.2 21.3,-13.2 C11.6,-13.2 0,-5 0,4.2"/>
<path class="Clef" transform="matrix(0.992,0,0,0.992,232.438,1179.8)" d="M12.3,51.3 C12.3,57.9 17.3,66.6 30.8,66.6 C35.5,66.6 39.6,65.4 43.2,63.2 C48.6,59.4 50,52.8 50,46.5 C50,42.6 49.4,38.1 48.4,32.4 C48.1,30.4 47.5,27.4 46.9,23.5 C56.7,20.3 64,10.1 64,-0.2 C64,-15.3 53.3,-25.5 38.7,-25.5 C37.7,-31.5 36.7,-37.4 35.9,-43 C46.4,-54.1 53.7,-66.6 53.7,-82.5 C53.7,-91.6 50.9,-99 49.3,-102.6 C46.9,-107.7 44,-111.2 42.2,-111.2 C41.5,-111.2 38.4,-110 35.1,-106.1 C28.7,-98.5 26.9,-85.7 26.9,-77.3 C26.9,-71.9 27.4,-67 29.1,-55.8 C29,-55.7 23.8,-50.4 21.7,-48.7 C12.6,-40.3 0,-28.1 0,-8.1 C0,10.6 16.3,25.3 34.9,25.3 C37.8,25.3 40.5,25 42.8,24.6 C44.7,34.2 45.9,41.2 45.9,46.5 C45.9,56.9 40.5,62.4 30.4,62.4 C28,62.4 25.9,61.9 25.7,61.9 C25.6,61.8 25.4,61.7 25.4,61.6 C25.4,61.4 25.6,61.3 25.9,61.3 C30.6,60.5 35.3,56.5 35.3,50.1 C35.3,44.7 31.2,39 23.7,39 C16.7,39 12.3,44.7 12.3,51.3 M33.2,-82.2 C34.1,-86.2 38.7,-96.7 43.9,-96.7 C45.4,-96.7 47.8,-91.9 47.8,-84.9 C47.8,-74.5 40.1,-66.7 33.2,-59.9 C32.6,-63.9 32.1,-67.8 32.1,-72 C32.1,-75.7 32.4,-79.1 33.2,-82.2 M42,20.6 C40,21 38.1,21.2 36.2,21.2 C21.9,21.2 9.7,11.2 9.7,-3.9 C9.7,-16.1 18.3,-27 27.1,-34.6 C28.8,-36.1 30.4,-37.5 31.9,-39 C32.8,-33.6 33.5,-28.9 34.2,-24.8 C25.1,-22.1 18.9,-12.5 18.9,-3.1 C18.9,3.9 24.4,13.5 32.4,13.5 C33.2,13.5 34.1,13.1 34.1,12.2 C34.1,11.3 33.1,10.8 31.9,10 C28,7.6 25.8,5 25.8,0.1 C25.8,-6 30.4,-10.9 36.2,-12.3 L42,20.6 M56.2,2.1 C56.2,9.2 53.3,16.5 46.2,19.4 C44.1,7.4 41.4,-8.5 40.7,-12.9 C49.7,-12.9 56.2,-6.8 56.2,2.1"/>
<path class="Clef" transform="matrix(0.992,0,0,0.992,232.438,1651)" d="M12.3,51.3 C12.3,57.9 17.3,66.6 30.8,66.6 C35.5,66.6 39.6,65.4 43.2,63.2 C48.6,59.4 50,52.8 50,46.5 C50,42.6 49.4,38.1 48.4,32.4 C48.1,30.4 47.5,27.4 46.9,23.5 C56.7,20.3 64,10.1 64,-0.2 C64,-15.3 53.3,-25.5 38.7,-25.5 C37.7,-31.5 36.7,-37.4 35.9,-43 C46.4,-54.1 53.7,-66.6 53.7,-82.5 C53.7,-91.6 50.9,-99 49.3,-102.6 C46.9,-107.7 44,-111.2 42.2,-111.2 C41.5,-111.2 38.4,-110 35.1,-106.1 C28.7,-98.5 26.9,-85.7 26.9,-77.3 C26.9,-71.9 27.4,-67 29.1,-55.8 C29,-55.7 23.8,-50.4 21.7,-48.7 C12.6,-40.3 0,-28.1 0,-8.1 C0,10.6 16.3,25.3 34.9,25.3 C37.8,25.3 40.5,25 42.8,24.6 C44.7,34.2 45.9,41.2 45.9,46.5 C45.9,56.9 40.5,62.4 30.4,62.4 C28,62.4 25.9,61.9 25.7,61.9 C25.6,61.8 25.4,61.7 25.4,61.6 C25.4,61.4 25.6,61.3 25.9,61.3 C30.6,60.5 35.3,56.5 35.3,50.1 C35.3,44.7 31.2,39 23.7,39 C16.7,39 12.3,44.7 12.3,51.3 M33.2,-82.2 C34.1,-86.2 38.7,-96.7 43.9,-96.7 C45.4,-96.7 47.8,-91.9 47.8,-84.9 C47.8,-74.5 40.1,-66.7 33.2,-59.9 C32.6,-63.9 32.1,-67.8 32.1,-72 C32.1,-75.7 32.4,-79.1 33.2,-82.2 M42,20.6 C40,21 38.1,21.2 36.2,21.2 C21.9,21.2 9.7,11.2 9.7,-3.9 C9.7,-16.1 18.3,-27 27.1,-34.6 C28.8,-36.1 30.4,-37.5 31.9,-39 C32.8,-33.6 33.5,-28.9 34.2,-24.8 C25.1,-22.1 18.9,-12.5 18.9,-3.1 C18.9,3.9 24.4,13.5 32.4,13.5 C33.2,13.5 34.1,13.1 34.1,12.2 C34.1,11.3 33.1,10.8 31.9,10 C28,7.6 25.8,5 25.8,0.1 C25.8,-6 30.4,-10.9 36.2,-12.3 L42,20.6 M56.2,2.1 C56.2,9.2 53.3,16.5 46.2,19.4 C44.1,7.4 41.4,-8.5 40.7,-12.9 C49.7,-12.9 56.2,-6.8 56.2,2.1"/>
<path class="Clef" transform="matrix(0.992,0,0,0.992,232.438,708.598)" d="M12.3,51.3 C12.3,57.9 17.3,66.6 30.8,66.6 C35.5,66.6 39.6,65.4 43.2,63.2 C48.6,59.4 50,52.8 50,46.5 C50,42.6 49.4,38.1 48.4,32.4 C48.1,30.4 47.5,27.4 46.9,23.5 C56.7,20.3 64,10.1 64,-0.2 C64,-15.3 53.3,-25.5 38.7,-25.5 C37.7,-31.5 36.7,-37.4 35.9,-43 C46.4,-54.1 53.7,-66.6 53.7,-82.5 C53.7,-91.6 50.9,-99 49.3,-102.6 C46.9,-107.7 44,-111.2 42.2,-111.2 C41.5,-111.2 38.4,-110 35.1,-106.1 C28.7,-98.5 26.9,-85.7 26.9,-77.3 C26.9,-71.9 27.4,-67 29.1,-55.8 C29,-55.7 23.8,-50.4 21.7,-48.7 C12.6,-40.3 0,-28.1 0,-8.1 C0,10.6 16.3,25.3 34.9,25.3 C37.8,25.3 40.5,25 42.8,24.6 C44.7,34.2 45.9,41.2 45.9,46.5 C45.9,56.9 40.5,62.4 30.4,62.4 C28,62.4 25.9,61.9 25.7,61.9 C25.6,61.8 25.4,61.7 25.4,61.6 C25.4,61.4 25.6,61.3 25.9,61.3 C30.6,60.5 35.3,56.5 35.3,50.1 C35.3,44.7 31.2,39 23.7,39 C16.7,39 12.3,44.7 12.3,51.3 M33.2,-82.2 C34.1,-86.2 38.7,-96.7 43.9,-96.7 C45.4,-96.7 47.8,-91.9 47.8,-84.9 C47.8,-74.5 40.1,-66.7 33.2,-59.9 C32.6,-63.9 32.1,-67.8 32.1,-72 C32.1,-75.7 32.4,-79.1 33.2,-82.2 M42,20.6 C40,21 38.1,21.2 36.2,21.2 C21.9,21.2 9.7,11.2 9.7,-3.9 C9.7,-16.1 18.3,-27 27.1,-34.6 C28.8,-36.1 30.4,-37.5 31.9,-39 C32.8,-33.6 33.5,-28.9 34.2,-24.8 C25.1,-22.1 18.9,-12.5 18.9,-3.1 C18.9,3.9 24.4,13.5 32.4,13.5 C33.2,13.5 34.1,13.1 34.1,12.2 C34.1,11.3 33.1,10.8 31.9,10 C28,7.6 25.8,5 25.8,0.1 C25.8,-6 30.4,-10.9 36.2,-12.3 L42,20.6 M56.2,2.1 C56.2,9.2 53.3,16.5 46.2,19.4 C44.1,7.4 41.4,-8.5 40.7,-12.9 C49.7,-12.9 56.2,-6.8 56.2,2.1"/>
<path class="TimeSig" transform="matrix(0.992,0,0,0.992,319.331,658.998)" d="M20.8,12.7 L20.8,20.1 L12.5,20.1 C11.8,20.1 11.1,20.7 11.1,21.5 L11.1,23.4 C11.1,24.2 11.8,24.8 12.5,24.8 L42.8,24.8 C43.6,24.8 44.2,24.2 44.2,23.4 L44.2,21.5 C44.2,20.7 43.6,20.1 42.8,20.1 L33.9,20.1 L33.9,12.7 L42.8,12.7 C43.6,12.7 44.2,12 44.2,11.2 L44.2,9.3 C44.2,8.6 43.6,7.9 42.8,7.9 L33.9,7.9 L33.9,-8 C33.9,-8.6 33.6,-9.1 33.1,-9.3 L31.9,-9.9 C31.7,-10 31.4,-10.1 31.2,-10.1 C30.9,-10 30.5,-9.9 30.3,-9.7 L21.2,-1.4 C20.9,-1.1 20.8,-0.7 20.8,-0.3 L20.8,7.9 L9.3,7.9 C9.3,7.9 20.4,-4.1 32.2,-19.9 C32.6,-20.4 32.7,-20.9 32.7,-21.3 C32.7,-21.8 32.5,-22.2 32.4,-22.3 L30.2,-24.5 C30,-24.7 29.6,-24.9 29.2,-24.9 C28.6,-24.9 15.1,-24.9 14.4,-24.9 C13.6,-24.9 13.1,-24.3 13,-23.7 C13,-23.7 12.5,-16.3 9.9,-8.2 C7.3,-0.1 4.3,4.9 1.7,8.6 C1.7,8.6 1.4,9.1 1.4,9.7 C1.4,9.9 1.4,10.1 1.5,10.3 C1.9,11 2.5,12.1 2.5,12.1 C2.5,12.1 2.7,12.7 3.6,12.7 L20.8,12.7 "/>
<path class="TimeSig" transform="matrix(0.992,0,0,0.992,319.331,708.598)" d="M20.8,12.7 L20.8,20.1 L12.5,20.1 C11.8,20.1 11.1,20.7 11.1,21.5 L11.1,23.4 C11.1,24.2 11.8,24.8 12.5,24.8 L42.8,24.8 C43.6,24.8 44.2,24.2 44.2,23.4 L44.2,21.5 C44.2,20.7 43.6,20.1 42.8,20.1 L33.9,20.1 L33.9,12.7 L42.8,12.7 C43.6,12.7 44.2,12 44.2,11.2 L44.2,9.3 C44.2,8.6 43.6,7.9 42.8,7.9 L33.9,7.9 L33.9,-8 C33.9,-8.6 33.6,-9.1 33.1,-9.3 L31.9,-9.9 C31.7,-10 31.4,-10.1 31.2,-10.1 C30.9,-10 30.5,-9.9 30.3,-9.7 L21.2,-1.4 C20.9,-1.1 20.8,-0.7 20.8,-0.3 L20.8,7.9 L9.3,7.9 C9.3,7.9 20.4,-4.1 32.2,-19.9 C32.6,-20.4 32.7,-20.9 32.7,-21.3 C32.7,-21.8 32.5,-22.2 32.4,-22.3 L30.2,-24.5 C30,-24.7 29.6,-24.9 29.2,-24.9 C28.6,-24.9 15.1,-24.9 14.4,-24.9 C13.6,-24.9 13.1,-24.3 13,-23.7 C13,-23.7 12.5,-16.3 9.9,-8.2 C7.3,-0.1 4.3,4.9 1.7,8.6 C1.7,8.6 1.4,9.1 1.4,9.7 C1.4,9.9 1.4,10.1 1.5,10.3 C1.9,11 2.5,12.1 2.5,12.1 C2.5,12.1 2.7,12.7 3.6,12.7 L20.8,12.7 "/>
<path class="Rest" transform="matrix(0.992,0,0,0.992,2638.65,1626.2)" d="M23,16.6 C22.9,16.5 22.7,16.3 22.4,15.9 L10.9,1.7 C10.8,1.6 10.7,1.3 10.7,1.1 C10.7,0.8 10.8,0.4 10.9,0.2 L21.1,-15.2 C21.2,-15.4 21.3,-15.7 21.3,-15.9 L21.3,-16.8 C21.3,-17.1 21.2,-17.4 21,-17.6 L4.8,-39.5 C4.8,-39.5 4.4,-40.1 3.8,-40.1 C3.5,-40.1 3.3,-40.1 3,-39.8 C2.6,-39.5 2.5,-39.1 2.5,-38.8 C2.5,-38.2 2.8,-37.7 2.8,-37.7 L10.4,-27.3 C10.6,-27 10.7,-26.6 10.7,-26.1 C10.7,-25.7 10.6,-25.2 10.4,-24.9 L0.3,-9.5 C0.2,-9.3 0.1,-8.9 0.1,-8.7 L0.1,-7.8 C0.1,-7.5 0.2,-7.2 0.4,-7 L11.6,6.9 C11.2,6.8 10.3,6.6 9.1,6.6 C4,6.6 0,10.8 0,15.9 C0,17.3 0.3,18.7 1.1,19.8 C3.2,23 10.7,32.5 10.7,32.5 C10.7,32.5 11.2,33.1 11.9,33.1 C12.1,33.1 12.3,33.1 12.5,32.9 C13,32.5 13.2,32.1 13.2,31.7 C13.2,31.3 13,31 12.9,30.8 C12.6,30.3 9.4,24.5 9.4,24.5 C9.4,24.5 8.7,23.1 8.7,21.3 C8.7,18.1 11.1,15.5 14.3,15.5 C15.6,15.5 16.7,15.9 17.5,16.4 L21.4,18.9 C21.4,18.9 21.8,19.1 22.2,19.1 C22.6,19.1 22.9,19 23.2,18.6 C23.4,18.3 23.5,18 23.5,17.7 C23.5,17.4 23.4,17.2 23.2,16.9 L23,16.6 "/>
<path class="Beam" fill-rule="evenodd" d="M921.832,1595.17 L990.923,1601.37 L990.923,1613.82 L921.832,1607.62 L921.832,1595.17 "/>
<path class="Beam" fill-rule="evenodd" d="M2359.21,609.387 L2463.22,615.587 L2463.22,628.009 L2359.21,621.809 L2359.21,609.387 "/>
<path class="Beam" fill-rule="evenodd" d="M2209.88,1551.77 L2278.97,1557.97 L2278.97,1570.42 L2209.88,1564.22 L2209.88,1551.77 "/>
<path class="Beam" fill-rule="evenodd" d="M2375.1,1080.59 L2475.37,1086.79 L2475.37,1099.21 L2375.1,1093.01 L2375.1,1080.59 "/>
<path class="Beam" fill-rule="evenodd" d="M1155.64,1123.99 L1255.9,1130.19 L1255.9,1142.61 L1155.64,1136.41 L1155.64,1123.99 "/>
<path class="Harmony" d="M2482.42,1474.89 L2449.36,1474.89 L2449.36,1477.47 L2450.35,1477.47 C2453.49,1477.53 2454.53,1477.69 2454.97,1478.24 C2455.3,1478.74 2455.3,1478.85 2455.3,1481.65 L2455.3,1507.83 C2455.3,1510.64 2455.3,1510.75 2454.97,1511.24 C2454.53,1511.79 2453.49,1512.01 2450.35,1512.01 L2449.36,1512.01 L2449.36,1514.6 L2483.13,1514.6 L2484.23,1499.91 L2481.81,1499.91 C2479.72,1509.7 2477.47,1511.79 2469.05,1512.01 L2465.42,1512.01 C2462.12,1511.9 2461.3,1511.35 2461.46,1509.37 L2461.46,1495.35 L2462.56,1495.35 C2468.23,1495.13 2470.26,1497.16 2470.48,1503.27 L2473.07,1503.27 L2473.07,1485.23 L2470.48,1485.23 C2470.15,1490.62 2468.01,1492.76 2462.78,1492.76 L2461.46,1492.76 L2461.46,1480.22 C2461.41,1477.91 2461.96,1477.53 2464.93,1477.47 L2467.79,1477.47 C2476.81,1477.42 2479.06,1479.4 2480.82,1488.91 L2483.19,1488.91 L2482.42,1474.89 "/>
<path class="Harmony" d="M1598.6,1002.92 L1596.29,1002.92 L1583.64,1034.98 C1582.16,1039.27 1580.73,1040.59 1577.59,1040.81 L1577.37,1040.81 L1577.37,1043.4 L1591.95,1043.4 L1591.95,1040.81 L1590.85,1040.81 C1587.88,1040.81 1586.39,1039.77 1586.39,1037.68 C1586.39,1036.96 1586.56,1036.3 1586.89,1035.37 L1588.7,1030.53 L1603.28,1030.53 L1606.25,1037.9 C1606.58,1038.78 1606.69,1039.11 1606.69,1039.38 C1606.69,1040.26 1605.31,1040.81 1603.28,1040.81 L1600.97,1040.81 L1600.97,1043.4 L1618.02,1043.4 L1618.02,1040.81 L1617.25,1040.81 C1614.39,1040.76 1613.89,1040.43 1612.63,1037.29 L1598.6,1002.92 M1595.91,1011.94 L1602.12,1027.56 L1589.8,1027.56 L1595.91,1011.94 "/>
<path class="Harmony" d="M1631.02,1017.77 L1621.23,1018.37 L1621.23,1020.74 L1623.49,1020.74 C1625.58,1020.79 1625.85,1021.12 1625.85,1023.49 L1625.85,1039.22 C1625.8,1040.04 1625.74,1040.37 1625.52,1040.65 C1625.14,1041.14 1624.09,1041.36 1621.73,1041.42 L1621.51,1041.42 L1621.51,1043.4 L1635.37,1043.4 L1635.37,1041.42 L1635.15,1041.42 C1631.52,1041.31 1631.02,1041.03 1631.02,1039 L1631.02,1028.82 C1631.02,1023.93 1633.72,1020.3 1637.29,1020.3 C1640.43,1020.3 1642.02,1022.55 1642.02,1027.01 L1642.02,1039.27 C1641.97,1039.99 1641.91,1040.37 1641.64,1040.65 C1641.31,1041.14 1640.21,1041.36 1637.84,1041.42 L1637.62,1041.42 L1637.62,1043.4 L1651.54,1043.4 L1651.54,1041.42 L1651.32,1041.42 C1647.69,1041.31 1647.19,1041.03 1647.19,1039.05 L1647.19,1029.32 C1647.19,1023.82 1649.67,1020.3 1653.52,1020.3 C1656.65,1020.3 1658.19,1022.66 1658.19,1027.61 L1658.19,1039.22 C1658.14,1039.99 1658.08,1040.37 1657.81,1040.65 C1657.48,1041.14 1656.38,1041.36 1654.01,1041.42 L1653.79,1041.42 L1653.79,1043.4 L1667.71,1043.4 L1667.71,1041.42 L1667.49,1041.42 C1663.86,1041.31 1663.36,1041.03 1663.36,1039 L1663.36,1026.51 C1663.36,1023.1 1663.03,1021.95 1661.6,1020.08 C1660.01,1018.04 1657.75,1016.94 1655.11,1016.94 C1651.54,1016.94 1648.9,1018.65 1646.53,1022.44 C1645.6,1019.14 1642.63,1016.94 1638.94,1016.94 C1635.59,1016.94 1633.17,1018.54 1631.02,1022 L1631.02,1017.77 "/>
<path class="Harmony" d="M1617.42,1474.12 L1615.11,1474.12 L1602.46,1506.18 C1600.97,1510.47 1599.54,1511.79 1596.41,1512.01 L1596.19,1512.01 L1596.19,1514.6 L1610.76,1514.6 L1610.76,1512.01 L1609.66,1512.01 C1606.69,1512.01 1605.21,1510.97 1605.21,1508.88 C1605.21,1508.16 1605.37,1507.5 1605.7,1506.57 L1607.52,1501.73 L1622.09,1501.73 L1625.06,1509.1 C1625.39,1509.98 1625.5,1510.31 1625.5,1510.58 C1625.5,1511.46 1624.13,1512.01 1622.09,1512.01 L1619.78,1512.01 L1619.78,1514.6 L1636.83,1514.6 L1636.83,1512.01 L1636.06,1512.01 C1633.2,1511.96 1632.71,1511.63 1631.44,1508.49 L1617.42,1474.12 M1614.72,1483.14 L1620.94,1498.76 L1608.62,1498.76 L1614.72,1483.14 "/>
<path class="Harmony" d="M1649.84,1488.97 L1640.05,1489.57 L1640.05,1491.94 L1642.3,1491.94 C1644.39,1491.99 1644.67,1492.32 1644.67,1494.69 L1644.67,1510.42 C1644.61,1511.24 1644.56,1511.57 1644.34,1511.85 C1643.95,1512.34 1642.91,1512.56 1640.54,1512.62 L1640.32,1512.62 L1640.32,1514.6 L1654.18,1514.6 L1654.18,1512.62 L1653.96,1512.62 C1650.33,1512.51 1649.84,1512.23 1649.84,1510.2 L1649.84,1500.02 C1649.84,1495.13 1652.53,1491.5 1656.11,1491.5 C1659.24,1491.5 1660.84,1493.75 1660.84,1498.21 L1660.84,1510.47 C1660.78,1511.19 1660.73,1511.57 1660.45,1511.85 C1660.12,1512.34 1659.02,1512.56 1656.66,1512.62 L1656.44,1512.62 L1656.44,1514.6 L1670.35,1514.6 L1670.35,1512.62 L1670.13,1512.62 C1666.5,1512.51 1666.01,1512.23 1666.01,1510.25 L1666.01,1500.52 C1666.01,1495.02 1668.48,1491.5 1672.33,1491.5 C1675.47,1491.5 1677.01,1493.86 1677.01,1498.81 L1677.01,1510.42 C1676.95,1511.19 1676.9,1511.57 1676.62,1511.85 C1676.29,1512.34 1675.19,1512.56 1672.83,1512.62 L1672.61,1512.62 L1672.61,1514.6 L1686.52,1514.6 L1686.52,1512.62 L1686.3,1512.62 C1682.67,1512.51 1682.18,1512.23 1682.18,1510.2 L1682.18,1497.71 C1682.18,1494.3 1681.85,1493.15 1680.42,1491.28 C1678.82,1489.24 1676.57,1488.14 1673.93,1488.14 C1670.35,1488.14 1667.71,1489.85 1665.35,1493.64 C1664.41,1490.34 1661.44,1488.14 1657.76,1488.14 C1654.4,1488.14 1651.98,1489.74 1649.84,1493.2 L1649.84,1488.97 "/>
<path class="Harmony" d="M1443.23,1474.89 L1410.17,1474.89 L1410.17,1477.47 L1411.16,1477.47 C1414.3,1477.53 1415.34,1477.69 1415.78,1478.24 C1416.11,1478.74 1416.11,1478.85 1416.11,1481.65 L1416.11,1507.83 C1416.11,1510.64 1416.11,1510.75 1415.78,1511.24 C1415.34,1511.79 1414.3,1512.01 1411.16,1512.01 L1410.17,1512.01 L1410.17,1514.6 L1443.94,1514.6 L1445.04,1499.91 L1442.62,1499.91 C1440.53,1509.7 1438.28,1511.79 1429.86,1512.01 L1426.23,1512.01 C1422.93,1511.9 1422.11,1511.35 1422.27,1509.37 L1422.27,1495.35 L1423.37,1495.35 C1429.04,1495.13 1431.07,1497.16 1431.29,1503.27 L1433.88,1503.27 L1433.88,1485.23 L1431.29,1485.23 C1430.96,1490.62 1428.82,1492.76 1423.59,1492.76 L1422.27,1492.76 L1422.27,1480.22 C1422.22,1477.91 1422.77,1477.53 1425.74,1477.47 L1428.6,1477.47 C1437.62,1477.42 1439.87,1479.4 1441.63,1488.91 L1444,1488.91 L1443.23,1474.89 "/>
<path class="Harmony" d="M1453.98,1489.19 L1456.4,1489.57 L1457.39,1485.23 C1458.21,1481.6 1458.6,1481.05 1460.19,1481.05 C1460.47,1481.05 1460.91,1481.05 1461.4,1481.1 C1468.17,1481.43 1468.17,1481.43 1470.7,1481.43 C1471.41,1481.43 1472.68,1481.43 1474.22,1481.38 L1470.48,1488.91 C1466.41,1497 1465.91,1497.99 1464.54,1501.4 C1462.83,1505.52 1461.95,1508.99 1461.95,1511.3 C1461.95,1513.83 1463.27,1515.37 1465.42,1515.37 C1468.06,1515.37 1469.1,1513.61 1469.05,1508.82 C1468.77,1500.9 1469.76,1497.05 1475.65,1484.18 C1476.64,1482.04 1477.68,1479.84 1478.67,1477.69 L1478.67,1476.1 C1475.37,1476.37 1473.61,1476.48 1470.2,1476.48 C1465.42,1476.48 1461.62,1476.32 1455.68,1475.88 L1453.98,1489.19 "/>
<path class="Harmony" d="M1554.67,531.718 L1552.36,531.718 L1539.71,563.783 C1538.23,568.073 1536.8,569.393 1533.66,569.613 L1533.44,569.613 L1533.44,572.198 L1548.02,572.198 L1548.02,569.613 L1546.92,569.613 C1543.95,569.613 1542.46,568.568 1542.46,566.478 C1542.46,565.763 1542.63,565.103 1542.96,564.168 L1544.77,559.328 L1559.35,559.328 L1562.32,566.698 C1562.65,567.578 1562.76,567.908 1562.76,568.183 C1562.76,569.063 1561.38,569.613 1559.35,569.613 L1557.04,569.613 L1557.04,572.198 L1574.09,572.198 L1574.09,569.613 L1573.32,569.613 C1570.46,569.558 1569.96,569.228 1568.7,566.093 L1554.67,531.718 M1551.98,540.738 L1558.19,556.358 L1545.87,556.358 L1551.98,540.738 "/>
<path class="Harmony" d="M1587.1,546.568 L1577.31,547.173 L1577.31,549.538 L1579.56,549.538 C1581.65,549.593 1581.93,549.923 1581.93,552.288 L1581.93,568.018 C1581.87,568.843 1581.82,569.173 1581.6,569.448 C1581.21,569.943 1580.17,570.163 1577.8,570.218 L1577.58,570.218 L1577.58,572.198 L1591.44,572.198 L1591.44,570.218 L1591.22,570.218 C1587.59,570.108 1587.1,569.833 1587.1,567.798 L1587.1,557.623 C1587.1,552.728 1589.79,549.098 1593.37,549.098 C1596.5,549.098 1598.1,551.353 1598.1,555.808 L1598.1,568.073 C1598.04,568.788 1597.99,569.173 1597.71,569.448 C1597.38,569.943 1596.28,570.163 1593.92,570.218 L1593.7,570.218 L1593.7,572.198 L1607.61,572.198 L1607.61,570.218 L1607.39,570.218 C1603.76,570.108 1603.27,569.833 1603.27,567.853 L1603.27,558.118 C1603.27,552.618 1605.74,549.098 1609.59,549.098 C1612.73,549.098 1614.27,551.463 1614.27,556.413 L1614.27,568.018 C1614.21,568.788 1614.16,569.173 1613.88,569.448 C1613.55,569.943 1612.45,570.163 1610.09,570.218 L1609.87,570.218 L1609.87,572.198 L1623.78,572.198 L1623.78,570.218 L1623.56,570.218 C1619.93,570.108 1619.44,569.833 1619.44,567.798 L1619.44,555.313 C1619.44,551.903 1619.11,550.748 1617.68,548.878 C1616.08,546.843 1613.83,545.743 1611.19,545.743 C1607.61,545.743 1604.97,547.448 1602.61,551.243 C1601.67,547.943 1598.7,545.743 1595.02,545.743 C1591.66,545.743 1589.24,547.338 1587.1,550.803 L1587.1,546.568 "/>
<path class="Harmony" d="M986.273,531.718 L983.963,531.718 L971.313,563.783 C969.828,568.073 968.398,569.393 965.263,569.613 L965.043,569.613 L965.043,572.198 L979.618,572.198 L979.618,569.613 L978.518,569.613 C975.548,569.613 974.063,568.568 974.063,566.478 C974.063,565.763 974.228,565.103 974.558,564.168 L976.373,559.328 L990.948,559.328 L993.918,566.698 C994.248,567.578 994.358,567.908 994.358,568.183 C994.358,569.063 992.983,569.613 990.948,569.613 L988.638,569.613 L988.638,572.198 L1005.69,572.198 L1005.69,569.613 L1004.92,569.613 C1002.06,569.558 1001.56,569.228 1000.3,566.093 L986.273,531.718 M983.578,540.738 L989.793,556.358 L977.473,556.358 L983.578,540.738 "/>
<path class="Harmony" d="M1018.69,546.568 L1008.9,547.173 L1008.9,549.538 L1011.16,549.538 C1013.25,549.593 1013.52,549.923 1013.52,552.288 L1013.52,568.018 C1013.47,568.843 1013.41,569.173 1013.19,569.448 C1012.81,569.943 1011.76,570.163 1009.4,570.218 L1009.18,570.218 L1009.18,572.198 L1023.04,572.198 L1023.04,570.218 L1022.82,570.218 C1019.19,570.108 1018.69,569.833 1018.69,567.798 L1018.69,557.623 C1018.69,552.728 1021.39,549.098 1024.96,549.098 C1028.1,549.098 1029.69,551.353 1029.69,555.808 L1029.69,568.073 C1029.64,568.788 1029.58,569.173 1029.31,569.448 C1028.98,569.943 1027.88,570.163 1025.51,570.218 L1025.29,570.218 L1025.29,572.198 L1039.21,572.198 L1039.21,570.218 L1038.99,570.218 C1035.36,570.108 1034.86,569.833 1034.86,567.853 L1034.86,558.118 C1034.86,552.618 1037.34,549.098 1041.19,549.098 C1044.32,549.098 1045.86,551.463 1045.86,556.413 L1045.86,568.018 C1045.81,568.788 1045.75,569.173 1045.48,569.448 C1045.15,569.943 1044.05,570.163 1041.68,570.218 L1041.46,570.218 L1041.46,572.198 L1055.38,572.198 L1055.38,570.218 L1055.16,570.218 C1051.53,570.108 1051.03,569.833 1051.03,567.798 L1051.03,555.313 C1051.03,551.903 1050.7,550.748 1049.27,548.878 C1047.68,546.843 1045.42,545.743 1042.78,545.743 C1039.21,545.743 1036.57,547.448 1034.2,551.243 C1033.27,547.943 1030.3,545.743 1026.61,545.743 C1023.26,545.743 1020.84,547.338 1018.69,550.803 L1018.69,546.568 "/>
<path class="Harmony" d="M1232.31,1474.12 L1230,1474.12 L1217.35,1506.18 C1215.86,1510.47 1214.43,1511.79 1211.3,1512.01 L1211.08,1512.01 L1211.08,1514.6 L1225.65,1514.6 L1225.65,1512.01 L1224.55,1512.01 C1221.58,1512.01 1220.1,1510.97 1220.1,1508.88 C1220.1,1508.16 1220.26,1507.5 1220.59,1506.57 L1222.41,1501.73 L1236.98,1501.73 L1239.95,1509.1 C1240.28,1509.98 1240.39,1510.31 1240.39,1510.58 C1240.39,1511.46 1239.02,1512.01 1236.98,1512.01 L1234.67,1512.01 L1234.67,1514.6 L1251.72,1514.6 L1251.72,1512.01 L1250.95,1512.01 C1248.09,1511.96 1247.6,1511.63 1246.33,1508.49 L1232.31,1474.12 M1229.61,1483.14 L1235.83,1498.76 L1223.51,1498.76 L1229.61,1483.14 "/>
<path class="Harmony" d="M1264.73,1488.97 L1254.94,1489.57 L1254.94,1491.94 L1257.2,1491.94 C1259.29,1491.99 1259.56,1492.32 1259.56,1494.69 L1259.56,1510.42 C1259.51,1511.24 1259.45,1511.57 1259.23,1511.85 C1258.85,1512.34 1257.8,1512.56 1255.44,1512.62 L1255.22,1512.62 L1255.22,1514.6 L1269.08,1514.6 L1269.08,1512.62 L1268.86,1512.62 C1265.23,1512.51 1264.73,1512.23 1264.73,1510.2 L1264.73,1500.02 C1264.73,1495.13 1267.43,1491.5 1271,1491.5 C1274.14,1491.5 1275.73,1493.75 1275.73,1498.21 L1275.73,1510.47 C1275.68,1511.19 1275.62,1511.57 1275.35,1511.85 C1275.02,1512.34 1273.92,1512.56 1271.55,1512.62 L1271.33,1512.62 L1271.33,1514.6 L1285.25,1514.6 L1285.25,1512.62 L1285.03,1512.62 C1281.4,1512.51 1280.9,1512.23 1280.9,1510.25 L1280.9,1500.52 C1280.9,1495.02 1283.38,1491.5 1287.23,1491.5 C1290.36,1491.5 1291.9,1493.86 1291.9,1498.81 L1291.9,1510.42 C1291.85,1511.19 1291.79,1511.57 1291.52,1511.85 C1291.19,1512.34 1290.09,1512.56 1287.72,1512.62 L1287.5,1512.62 L1287.5,1514.6 L1301.42,1514.6 L1301.42,1512.62 L1301.2,1512.62 C1297.57,1512.51 1297.07,1512.23 1297.07,1510.2 L1297.07,1497.71 C1297.07,1494.3 1296.74,1493.15 1295.31,1491.28 C1293.72,1489.24 1291.46,1488.14 1288.82,1488.14 C1285.25,1488.14 1282.61,1489.85 1280.24,1493.64 C1279.31,1490.34 1276.34,1488.14 1272.65,1488.14 C1269.3,1488.14 1266.88,1489.74 1264.73,1493.2 L1264.73,1488.97 "/>
<path class="Harmony" d="M1828.34,1474.89 L1795.28,1474.89 L1795.28,1477.47 L1796.27,1477.47 C1799.41,1477.53 1800.45,1477.69 1800.89,1478.24 C1801.22,1478.74 1801.22,1478.85 1801.22,1481.65 L1801.22,1507.83 C1801.22,1510.64 1801.22,1510.75 1800.89,1511.24 C1800.45,1511.79 1799.41,1512.01 1796.27,1512.01 L1795.28,1512.01 L1795.28,1514.6 L1829.05,1514.6 L1830.15,1499.91 L1827.73,1499.91 C1825.64,1509.7 1823.39,1511.79 1814.97,1512.01 L1811.34,1512.01 C1808.04,1511.9 1807.22,1511.35 1807.38,1509.37 L1807.38,1495.35 L1808.48,1495.35 C1814.15,1495.13 1816.18,1497.16 1816.4,1503.27 L1818.99,1503.27 L1818.99,1485.23 L1816.4,1485.23 C1816.07,1490.62 1813.93,1492.76 1808.7,1492.76 L1807.38,1492.76 L1807.38,1480.22 C1807.33,1477.91 1807.88,1477.53 1810.85,1477.47 L1813.71,1477.47 C1822.73,1477.42 1824.98,1479.4 1826.74,1488.91 L1829.11,1488.91 L1828.34,1474.89 "/>
<path class="Harmony" d="M1839.09,1489.19 L1841.51,1489.57 L1842.5,1485.23 C1843.32,1481.6 1843.71,1481.05 1845.3,1481.05 C1845.58,1481.05 1846.02,1481.05 1846.51,1481.1 C1853.28,1481.43 1853.28,1481.43 1855.81,1481.43 C1856.52,1481.43 1857.79,1481.43 1859.33,1481.38 L1855.59,1488.91 C1851.52,1497 1851.02,1497.99 1849.65,1501.4 C1847.94,1505.52 1847.06,1508.99 1847.06,1511.3 C1847.06,1513.83 1848.38,1515.37 1850.53,1515.37 C1853.17,1515.37 1854.21,1513.61 1854.16,1508.82 C1853.88,1500.9 1854.87,1497.05 1860.76,1484.18 C1861.75,1482.04 1862.79,1479.84 1863.78,1477.69 L1863.78,1476.1 C1860.48,1476.37 1858.72,1476.48 1855.31,1476.48 C1850.53,1476.48 1846.73,1476.32 1840.79,1475.88 L1839.09,1489.19 "/>
<path class="Harmony" d="M1858.5,531.718 L1856.19,531.718 L1843.54,563.783 C1842.06,568.073 1840.63,569.393 1837.49,569.613 L1837.27,569.613 L1837.27,572.198 L1851.85,572.198 L1851.85,569.613 L1850.75,569.613 C1847.78,569.613 1846.29,568.568 1846.29,566.478 C1846.29,565.763 1846.46,565.103 1846.79,564.168 L1848.6,559.328 L1863.18,559.328 L1866.15,566.698 C1866.48,567.578 1866.59,567.908 1866.59,568.183 C1866.59,569.063 1865.21,569.613 1863.18,569.613 L1860.87,569.613 L1860.87,572.198 L1877.92,572.198 L1877.92,569.613 L1877.15,569.613 C1874.29,569.558 1873.79,569.228 1872.53,566.093 L1858.5,531.718 M1855.81,540.738 L1862.02,556.358 L1849.7,556.358 L1855.81,540.738 "/>
<path class="Harmony" d="M1890.92,546.568 L1881.13,547.173 L1881.13,549.538 L1883.39,549.538 C1885.48,549.593 1885.75,549.923 1885.75,552.288 L1885.75,568.018 C1885.7,568.843 1885.64,569.173 1885.42,569.448 C1885.04,569.943 1883.99,570.163 1881.63,570.218 L1881.41,570.218 L1881.41,572.198 L1895.27,572.198 L1895.27,570.218 L1895.05,570.218 C1891.42,570.108 1890.92,569.833 1890.92,567.798 L1890.92,557.623 C1890.92,552.728 1893.62,549.098 1897.19,549.098 C1900.33,549.098 1901.92,551.353 1901.92,555.808 L1901.92,568.073 C1901.87,568.788 1901.81,569.173 1901.54,569.448 C1901.21,569.943 1900.11,570.163 1897.74,570.218 L1897.52,570.218 L1897.52,572.198 L1911.44,572.198 L1911.44,570.218 L1911.22,570.218 C1907.59,570.108 1907.09,569.833 1907.09,567.853 L1907.09,558.118 C1907.09,552.618 1909.57,549.098 1913.42,549.098 C1916.55,549.098 1918.09,551.463 1918.09,556.413 L1918.09,568.018 C1918.04,568.788 1917.98,569.173 1917.71,569.448 C1917.38,569.943 1916.28,570.163 1913.91,570.218 L1913.69,570.218 L1913.69,572.198 L1927.61,572.198 L1927.61,570.218 L1927.39,570.218 C1923.76,570.108 1923.26,569.833 1923.26,567.798 L1923.26,555.313 C1923.26,551.903 1922.93,550.748 1921.5,548.878 C1919.91,546.843 1917.65,545.743 1915.01,545.743 C1911.44,545.743 1908.8,547.448 1906.43,551.243 C1905.5,547.943 1902.53,545.743 1898.84,545.743 C1895.49,545.743 1893.07,547.338 1890.92,550.803 L1890.92,546.568 "/>
<path class="Harmony" d="M733.528,532.488 L700.473,532.488 L700.473,535.073 L701.463,535.073 C704.598,535.128 705.643,535.293 706.083,535.843 C706.413,536.338 706.413,536.448 706.413,539.253 L706.413,565.433 C706.413,568.238 706.413,568.348 706.083,568.843 C705.643,569.393 704.598,569.613 701.463,569.613 L700.473,569.613 L700.473,572.198 L734.243,572.198 L735.343,557.513 L732.923,557.513 C730.833,567.303 728.578,569.393 720.163,569.613 L716.533,569.613 C713.233,569.503 712.408,568.953 712.573,566.973 L712.573,552.948 L713.673,552.948 C719.338,552.728 721.373,554.763 721.593,560.868 L724.178,560.868 L724.178,542.828 L721.593,542.828 C721.263,548.218 719.118,550.363 713.893,550.363 L712.573,550.363 L712.573,537.823 C712.518,535.513 713.068,535.128 716.038,535.073 L718.898,535.073 C727.918,535.018 730.173,536.998 731.933,546.513 L734.298,546.513 L733.528,532.488 "/>
<path class="Harmony" d="M744.279,546.788 L746.699,547.173 L747.689,542.828 C748.514,539.198 748.899,538.648 750.494,538.648 C750.769,538.648 751.209,538.648 751.704,538.703 C758.469,539.033 758.469,539.033 760.999,539.033 C761.714,539.033 762.979,539.033 764.519,538.978 L760.779,546.513 C756.709,554.598 756.214,555.588 754.839,558.998 C753.134,563.123 752.254,566.588 752.254,568.898 C752.254,571.428 753.574,572.968 755.719,572.968 C758.359,572.968 759.404,571.208 759.349,566.423 C759.074,558.503 760.064,554.653 765.949,541.783 C766.939,539.638 767.984,537.438 768.974,535.293 L768.974,533.698 C765.674,533.973 763.914,534.083 760.504,534.083 C755.719,534.083 751.924,533.918 745.984,533.478 L744.279,546.788 "/>
<path class="Harmony" d="M1058.12,1474.89 L1025.06,1474.89 L1025.06,1477.47 L1026.05,1477.47 C1029.19,1477.53 1030.23,1477.69 1030.67,1478.24 C1031,1478.74 1031,1478.85 1031,1481.65 L1031,1507.83 C1031,1510.64 1031,1510.75 1030.67,1511.24 C1030.23,1511.79 1029.19,1512.01 1026.05,1512.01 L1025.06,1512.01 L1025.06,1514.6 L1058.83,1514.6 L1059.93,1499.91 L1057.51,1499.91 C1055.42,1509.7 1053.17,1511.79 1044.75,1512.01 L1041.12,1512.01 C1037.82,1511.9 1037,1511.35 1037.16,1509.37 L1037.16,1495.35 L1038.26,1495.35 C1043.93,1495.13 1045.96,1497.16 1046.18,1503.27 L1048.77,1503.27 L1048.77,1485.23 L1046.18,1485.23 C1045.85,1490.62 1043.71,1492.76 1038.48,1492.76 L1037.16,1492.76 L1037.16,1480.22 C1037.11,1477.91 1037.66,1477.53 1040.63,1477.47 L1043.49,1477.47 C1052.51,1477.42 1054.76,1479.4 1056.52,1488.91 L1058.89,1488.91 L1058.12,1474.89 "/>
<path class="Harmony" d="M1068.87,1489.19 L1071.29,1489.57 L1072.28,1485.23 C1073.1,1481.6 1073.49,1481.05 1075.08,1481.05 C1075.36,1481.05 1075.8,1481.05 1076.29,1481.1 C1083.06,1481.43 1083.06,1481.43 1085.59,1481.43 C1086.3,1481.43 1087.57,1481.43 1089.11,1481.38 L1085.37,1488.91 C1081.3,1497 1080.8,1497.99 1079.43,1501.4 C1077.72,1505.52 1076.84,1508.99 1076.84,1511.3 C1076.84,1513.83 1078.16,1515.37 1080.31,1515.37 C1082.95,1515.37 1083.99,1513.61 1083.94,1508.82 C1083.66,1500.9 1084.65,1497.05 1090.54,1484.18 C1091.53,1482.04 1092.57,1479.84 1093.56,1477.69 L1093.56,1476.1 C1090.26,1476.37 1088.5,1476.48 1085.09,1476.48 C1080.31,1476.48 1076.51,1476.32 1070.57,1475.88 L1068.87,1489.19 "/>
<path class="Harmony" d="M2199.03,531.718 L2196.72,531.718 L2184.07,563.783 C2182.59,568.073 2181.16,569.393 2178.02,569.613 L2177.8,569.613 L2177.8,572.198 L2192.38,572.198 L2192.38,569.613 L2191.28,569.613 C2188.31,569.613 2186.82,568.568 2186.82,566.478 C2186.82,565.763 2186.99,565.103 2187.32,564.168 L2189.13,559.328 L2203.71,559.328 L2206.68,566.698 C2207.01,567.578 2207.12,567.908 2207.12,568.183 C2207.12,569.063 2205.74,569.613 2203.71,569.613 L2201.4,569.613 L2201.4,572.198 L2218.45,572.198 L2218.45,569.613 L2217.68,569.613 C2214.82,569.558 2214.32,569.228 2213.06,566.093 L2199.03,531.718 M2196.34,540.738 L2202.55,556.358 L2190.23,556.358 L2196.34,540.738 "/>
<path class="Harmony" d="M2231.45,546.568 L2221.66,547.173 L2221.66,549.538 L2223.92,549.538 C2226.01,549.593 2226.28,549.923 2226.28,552.288 L2226.28,568.018 C2226.23,568.843 2226.17,569.173 2225.95,569.448 C2225.57,569.943 2224.52,570.163 2222.16,570.218 L2221.94,570.218 L2221.94,572.198 L2235.8,572.198 L2235.8,570.218 L2235.58,570.218 C2231.95,570.108 2231.45,569.833 2231.45,567.798 L2231.45,557.623 C2231.45,552.728 2234.15,549.098 2237.72,549.098 C2240.86,549.098 2242.45,551.353 2242.45,555.808 L2242.45,568.073 C2242.4,568.788 2242.34,569.173 2242.07,569.448 C2241.74,569.943 2240.64,570.163 2238.27,570.218 L2238.05,570.218 L2238.05,572.198 L2251.97,572.198 L2251.97,570.218 L2251.75,570.218 C2248.12,570.108 2247.62,569.833 2247.62,567.853 L2247.62,558.118 C2247.62,552.618 2250.1,549.098 2253.95,549.098 C2257.08,549.098 2258.62,551.463 2258.62,556.413 L2258.62,568.018 C2258.57,568.788 2258.51,569.173 2258.24,569.448 C2257.91,569.943 2256.81,570.163 2254.44,570.218 L2254.22,570.218 L2254.22,572.198 L2268.14,572.198 L2268.14,570.218 L2267.92,570.218 C2264.29,570.108 2263.79,569.833 2263.79,567.798 L2263.79,555.313 C2263.79,551.903 2263.46,550.748 2262.03,548.878 C2260.44,546.843 2258.18,545.743 2255.54,545.743 C2251.97,545.743 2249.33,547.448 2246.96,551.243 C2246.03,547.943 2243.06,545.743 2239.37,545.743 C2236.02,545.743 2233.6,547.338 2231.45,550.803 L2231.45,546.568 "/>
<path class="Harmony" d="M2002.53,1474.12 L2000.22,1474.12 L1987.57,1506.18 C1986.08,1510.47 1984.65,1511.79 1981.52,1512.01 L1981.3,1512.01 L1981.3,1514.6 L1995.87,1514.6 L1995.87,1512.01 L1994.77,1512.01 C1991.8,1512.01 1990.32,1510.97 1990.32,1508.88 C1990.32,1508.16 1990.48,1507.5 1990.81,1506.57 L1992.63,1501.73 L2007.2,1501.73 L2010.17,1509.1 C2010.5,1509.98 2010.61,1510.31 2010.61,1510.58 C2010.61,1511.46 2009.24,1512.01 2007.2,1512.01 L2004.89,1512.01 L2004.89,1514.6 L2021.94,1514.6 L2021.94,1512.01 L2021.17,1512.01 C2018.31,1511.96 2017.82,1511.63 2016.55,1508.49 L2002.53,1474.12 M1999.83,1483.14 L2006.05,1498.76 L1993.73,1498.76 L1999.83,1483.14 "/>
<path class="Harmony" d="M2034.95,1488.97 L2025.16,1489.57 L2025.16,1491.94 L2027.41,1491.94 C2029.5,1491.99 2029.78,1492.32 2029.78,1494.69 L2029.78,1510.42 C2029.72,1511.24 2029.67,1511.57 2029.45,1511.85 C2029.06,1512.34 2028.02,1512.56 2025.65,1512.62 L2025.43,1512.62 L2025.43,1514.6 L2039.29,1514.6 L2039.29,1512.62 L2039.07,1512.62 C2035.44,1512.51 2034.95,1512.23 2034.95,1510.2 L2034.95,1500.02 C2034.95,1495.13 2037.64,1491.5 2041.22,1491.5 C2044.35,1491.5 2045.95,1493.75 2045.95,1498.21 L2045.95,1510.47 C2045.89,1511.19 2045.84,1511.57 2045.56,1511.85 C2045.23,1512.34 2044.13,1512.56 2041.77,1512.62 L2041.55,1512.62 L2041.55,1514.6 L2055.46,1514.6 L2055.46,1512.62 L2055.24,1512.62 C2051.61,1512.51 2051.12,1512.23 2051.12,1510.25 L2051.12,1500.52 C2051.12,1495.02 2053.59,1491.5 2057.44,1491.5 C2060.58,1491.5 2062.12,1493.86 2062.12,1498.81 L2062.12,1510.42 C2062.06,1511.19 2062.01,1511.57 2061.73,1511.85 C2061.4,1512.34 2060.3,1512.56 2057.94,1512.62 L2057.72,1512.62 L2057.72,1514.6 L2071.63,1514.6 L2071.63,1512.62 L2071.41,1512.62 C2067.78,1512.51 2067.29,1512.23 2067.29,1510.2 L2067.29,1497.71 C2067.29,1494.3 2066.96,1493.15 2065.53,1491.28 C2063.93,1489.24 2061.68,1488.14 2059.04,1488.14 C2055.46,1488.14 2052.82,1489.85 2050.46,1493.64 C2049.52,1490.34 2046.55,1488.14 2042.87,1488.14 C2039.51,1488.14 2037.09,1489.74 2034.95,1493.2 L2034.95,1488.97 "/>
<path class="Harmony" d="M814.019,1474.12 L811.709,1474.12 L799.059,1506.18 C797.574,1510.47 796.144,1511.79 793.009,1512.01 L792.789,1512.01 L792.789,1514.6 L807.364,1514.6 L807.364,1512.01 L806.264,1512.01 C803.294,1512.01 801.809,1510.97 801.809,1508.88 C801.809,1508.16 801.974,1507.5 802.304,1506.57 L804.119,1501.73 L818.694,1501.73 L821.664,1509.1 C821.994,1509.98 822.104,1510.31 822.104,1510.58 C822.104,1511.46 820.729,1512.01 818.694,1512.01 L816.384,1512.01 L816.384,1514.6 L833.434,1514.6 L833.434,1512.01 L832.664,1512.01 C829.804,1511.96 829.309,1511.63 828.044,1508.49 L814.019,1474.12 M811.324,1483.14 L817.539,1498.76 L805.219,1498.76 L811.324,1483.14 "/>
<path class="Harmony" d="M846.44,1488.97 L836.65,1489.57 L836.65,1491.94 L838.905,1491.94 C840.995,1491.99 841.27,1492.32 841.27,1494.69 L841.27,1510.42 C841.215,1511.24 841.16,1511.57 840.94,1511.85 C840.555,1512.34 839.51,1512.56 837.145,1512.62 L836.925,1512.62 L836.925,1514.6 L850.785,1514.6 L850.785,1512.62 L850.565,1512.62 C846.935,1512.51 846.44,1512.23 846.44,1510.2 L846.44,1500.02 C846.44,1495.13 849.135,1491.5 852.71,1491.5 C855.845,1491.5 857.44,1493.75 857.44,1498.21 L857.44,1510.47 C857.385,1511.19 857.33,1511.57 857.055,1511.85 C856.725,1512.34 855.625,1512.56 853.26,1512.62 L853.04,1512.62 L853.04,1514.6 L866.955,1514.6 L866.955,1512.62 L866.735,1512.62 C863.105,1512.51 862.61,1512.23 862.61,1510.25 L862.61,1500.52 C862.61,1495.02 865.085,1491.5 868.935,1491.5 C872.07,1491.5 873.61,1493.86 873.61,1498.81 L873.61,1510.42 C873.555,1511.19 873.5,1511.57 873.225,1511.85 C872.895,1512.34 871.795,1512.56 869.43,1512.62 L869.21,1512.62 L869.21,1514.6 L883.125,1514.6 L883.125,1512.62 L882.905,1512.62 C879.275,1512.51 878.78,1512.23 878.78,1510.2 L878.78,1497.71 C878.78,1494.3 878.45,1493.15 877.02,1491.28 C875.425,1489.24 873.17,1488.14 870.53,1488.14 C866.955,1488.14 864.315,1489.85 861.95,1493.64 C861.015,1490.34 858.045,1488.14 854.36,1488.14 C851.005,1488.14 848.585,1489.74 846.44,1493.2 L846.44,1488.97 "/>
<path class="Harmony" d="M2532.27,572.198 L2550.75,572.198 C2555.64,572.198 2559.38,571.428 2562.3,569.778 C2567.85,566.643 2570.93,560.373 2570.93,552.123 C2570.93,544.533 2568.18,538.593 2563.12,535.293 C2560.1,533.368 2556.03,532.488 2549.76,532.488 L2532.27,532.488 L2532.27,535.073 L2533.31,535.073 C2536.39,535.128 2537.44,535.293 2537.88,535.843 C2538.21,536.338 2538.21,536.448 2538.21,539.253 L2538.21,565.433 C2538.21,568.238 2538.21,568.348 2537.88,568.843 C2537.44,569.393 2536.39,569.558 2533.31,569.613 L2532.27,569.613 L2532.27,572.198 M2547.5,569.613 C2544.7,569.613 2544.37,569.283 2544.37,566.588 L2544.37,538.153 C2544.37,535.458 2544.75,535.073 2547.5,535.073 L2550.36,535.073 C2559.77,535.073 2563.67,540.188 2563.67,552.343 C2563.67,564.663 2560.15,569.613 2551.24,569.613 L2547.5,569.613 "/>
<path class="Harmony" d="M2586.96,546.568 L2577.17,547.173 L2577.17,549.538 L2579.43,549.538 C2581.52,549.593 2581.79,549.923 2581.79,552.288 L2581.79,568.018 C2581.74,568.843 2581.68,569.173 2581.46,569.448 C2581.08,569.943 2580.03,570.163 2577.67,570.218 L2577.45,570.218 L2577.45,572.198 L2591.31,572.198 L2591.31,570.218 L2591.09,570.218 C2587.46,570.108 2586.96,569.833 2586.96,567.798 L2586.96,557.623 C2586.96,552.728 2589.66,549.098 2593.23,549.098 C2596.37,549.098 2597.96,551.353 2597.96,555.808 L2597.96,568.073 C2597.91,568.788 2597.85,569.173 2597.58,569.448 C2597.25,569.943 2596.15,570.163 2593.78,570.218 L2593.56,570.218 L2593.56,572.198 L2607.48,572.198 L2607.48,570.218 L2607.26,570.218 C2603.63,570.108 2603.13,569.833 2603.13,567.853 L2603.13,558.118 C2603.13,552.618 2605.61,549.098 2609.46,549.098 C2612.59,549.098 2614.13,551.463 2614.13,556.413 L2614.13,568.018 C2614.08,568.788 2614.02,569.173 2613.75,569.448 C2613.42,569.943 2612.32,570.163 2609.95,570.218 L2609.73,570.218 L2609.73,572.198 L2623.65,572.198 L2623.65,570.218 L2623.43,570.218 C2619.8,570.108 2619.3,569.833 2619.3,567.798 L2619.3,555.313 C2619.3,551.903 2618.97,550.748 2617.54,548.878 C2615.95,546.843 2613.69,545.743 2611.05,545.743 C2607.48,545.743 2604.84,547.448 2602.47,551.243 C2601.54,547.943 2598.57,545.743 2594.88,545.743 C2591.53,545.743 2589.11,547.338 2586.96,550.803 L2586.96,546.568 "/>
<path class="Harmony" d="M417.873,531.718 L415.563,531.718 L402.913,563.783 C401.428,568.073 399.998,569.393 396.863,569.613 L396.643,569.613 L396.643,572.198 L411.218,572.198 L411.218,569.613 L410.118,569.613 C407.148,569.613 405.663,568.568 405.663,566.478 C405.663,565.763 405.828,565.103 406.158,564.168 L407.973,559.328 L422.548,559.328 L425.518,566.698 C425.848,567.578 425.958,567.908 425.958,568.183 C425.958,569.063 424.583,569.613 422.548,569.613 L420.238,569.613 L420.238,572.198 L437.288,572.198 L437.288,569.613 L436.518,569.613 C433.658,569.558 433.163,569.228 431.898,566.093 L417.873,531.718 M415.178,540.738 L421.393,556.358 L409.073,556.358 L415.178,540.738 "/>
<path class="Harmony" d="M450.294,546.568 L440.504,547.173 L440.504,549.538 L442.759,549.538 C444.849,549.593 445.124,549.923 445.124,552.288 L445.124,568.018 C445.069,568.843 445.014,569.173 444.794,569.448 C444.409,569.943 443.364,570.163 440.999,570.218 L440.779,570.218 L440.779,572.198 L454.639,572.198 L454.639,570.218 L454.419,570.218 C450.789,570.108 450.294,569.833 450.294,567.798 L450.294,557.623 C450.294,552.728 452.989,549.098 456.564,549.098 C459.699,549.098 461.294,551.353 461.294,555.808 L461.294,568.073 C461.239,568.788 461.184,569.173 460.909,569.448 C460.579,569.943 459.479,570.163 457.114,570.218 L456.894,570.218 L456.894,572.198 L470.809,572.198 L470.809,570.218 L470.589,570.218 C466.959,570.108 466.464,569.833 466.464,567.853 L466.464,558.118 C466.464,552.618 468.939,549.098 472.789,549.098 C475.924,549.098 477.464,551.463 477.464,556.413 L477.464,568.018 C477.409,568.788 477.354,569.173 477.079,569.448 C476.749,569.943 475.649,570.163 473.284,570.218 L473.064,570.218 L473.064,572.198 L486.979,572.198 L486.979,570.218 L486.759,570.218 C483.129,570.108 482.634,569.833 482.634,567.798 L482.634,555.313 C482.634,551.903 482.304,550.748 480.874,548.878 C479.279,546.843 477.024,545.743 474.384,545.743 C470.809,545.743 468.169,547.448 465.804,551.243 C464.869,547.943 461.899,545.743 458.214,545.743 C454.859,545.743 452.439,547.338 450.294,550.803 L450.294,546.568 "/>
<path class="Harmony" d="M578.227,1474.12 L575.917,1474.12 L563.267,1506.18 C561.782,1510.47 560.352,1511.79 557.217,1512.01 L556.997,1512.01 L556.997,1514.6 L571.572,1514.6 L571.572,1512.01 L570.472,1512.01 C567.502,1512.01 566.017,1510.97 566.017,1508.88 C566.017,1508.16 566.182,1507.5 566.512,1506.57 L568.327,1501.73 L582.902,1501.73 L585.872,1509.1 C586.202,1509.98 586.312,1510.31 586.312,1510.58 C586.312,1511.46 584.937,1512.01 582.902,1512.01 L580.592,1512.01 L580.592,1514.6 L597.642,1514.6 L597.642,1512.01 L596.872,1512.01 C594.012,1511.96 593.517,1511.63 592.252,1508.49 L578.227,1474.12 M575.532,1483.14 L581.747,1498.76 L569.427,1498.76 L575.532,1483.14 "/>
<path class="Harmony" d="M610.648,1488.97 L600.858,1489.57 L600.858,1491.94 L603.113,1491.94 C605.203,1491.99 605.478,1492.32 605.478,1494.69 L605.478,1510.42 C605.423,1511.24 605.368,1511.57 605.148,1511.85 C604.763,1512.34 603.718,1512.56 601.353,1512.62 L601.133,1512.62 L601.133,1514.6 L614.993,1514.6 L614.993,1512.62 L614.773,1512.62 C611.143,1512.51 610.648,1512.23 610.648,1510.2 L610.648,1500.02 C610.648,1495.13 613.343,1491.5 616.918,1491.5 C620.053,1491.5 621.648,1493.75 621.648,1498.21 L621.648,1510.47 C621.593,1511.19 621.538,1511.57 621.263,1511.85 C620.933,1512.34 619.833,1512.56 617.468,1512.62 L617.248,1512.62 L617.248,1514.6 L631.163,1514.6 L631.163,1512.62 L630.943,1512.62 C627.313,1512.51 626.818,1512.23 626.818,1510.25 L626.818,1500.52 C626.818,1495.02 629.293,1491.5 633.143,1491.5 C636.278,1491.5 637.818,1493.86 637.818,1498.81 L637.818,1510.42 C637.763,1511.19 637.708,1511.57 637.433,1511.85 C637.103,1512.34 636.003,1512.56 633.638,1512.62 L633.418,1512.62 L633.418,1514.6 L647.333,1514.6 L647.333,1512.62 L647.113,1512.62 C643.483,1512.51 642.988,1512.23 642.988,1510.2 L642.988,1497.71 C642.988,1494.3 642.658,1493.15 641.228,1491.28 C639.633,1489.24 637.378,1488.14 634.738,1488.14 C631.163,1488.14 628.523,1489.85 626.158,1493.64 C625.223,1490.34 622.253,1488.14 618.568,1488.14 C615.213,1488.14 612.793,1489.74 610.648,1493.2 L610.648,1488.97 "/>
<path class="Harmony" d="M379.138,1002.92 L376.828,1002.92 L364.178,1034.98 C362.693,1039.27 361.263,1040.59 358.128,1040.81 L357.908,1040.81 L357.908,1043.4 L372.483,1043.4 L372.483,1040.81 L371.383,1040.81 C368.413,1040.81 366.928,1039.77 366.928,1037.68 C366.928,1036.96 367.093,1036.3 367.423,1035.37 L369.238,1030.53 L383.813,1030.53 L386.783,1037.9 C387.113,1038.78 387.223,1039.11 387.223,1039.38 C387.223,1040.26 385.848,1040.81 383.813,1040.81 L381.503,1040.81 L381.503,1043.4 L398.553,1043.4 L398.553,1040.81 L397.783,1040.81 C394.923,1040.76 394.428,1040.43 393.163,1037.29 L379.138,1002.92 M376.443,1011.94 L382.658,1027.56 L370.338,1027.56 L376.443,1011.94 "/>
<path class="Harmony" d="M411.56,1017.77 L401.77,1018.37 L401.77,1020.74 L404.025,1020.74 C406.115,1020.79 406.39,1021.12 406.39,1023.49 L406.39,1039.22 C406.335,1040.04 406.28,1040.37 406.06,1040.65 C405.675,1041.14 404.63,1041.36 402.265,1041.42 L402.045,1041.42 L402.045,1043.4 L415.905,1043.4 L415.905,1041.42 L415.685,1041.42 C412.055,1041.31 411.56,1041.03 411.56,1039 L411.56,1028.82 C411.56,1023.93 414.255,1020.3 417.83,1020.3 C420.965,1020.3 422.56,1022.55 422.56,1027.01 L422.56,1039.27 C422.505,1039.99 422.45,1040.37 422.175,1040.65 C421.845,1041.14 420.745,1041.36 418.38,1041.42 L418.16,1041.42 L418.16,1043.4 L432.075,1043.4 L432.075,1041.42 L431.855,1041.42 C428.225,1041.31 427.73,1041.03 427.73,1039.05 L427.73,1029.32 C427.73,1023.82 430.205,1020.3 434.055,1020.3 C437.19,1020.3 438.73,1022.66 438.73,1027.61 L438.73,1039.22 C438.675,1039.99 438.62,1040.37 438.345,1040.65 C438.015,1041.14 436.915,1041.36 434.55,1041.42 L434.33,1041.42 L434.33,1043.4 L448.245,1043.4 L448.245,1041.42 L448.025,1041.42 C444.395,1041.31 443.9,1041.03 443.9,1039 L443.9,1026.51 C443.9,1023.1 443.57,1021.95 442.14,1020.08 C440.545,1018.04 438.29,1016.94 435.65,1016.94 C432.075,1016.94 429.435,1018.65 427.07,1022.44 C426.135,1019.14 423.165,1016.94 419.48,1016.94 C416.125,1016.94 413.705,1018.54 411.56,1022 L411.56,1017.77 "/>
<path class="Harmony" d="M2213.44,1474.89 L2180.39,1474.89 L2180.39,1477.47 L2181.38,1477.47 C2184.51,1477.53 2185.56,1477.69 2186,1478.24 C2186.33,1478.74 2186.33,1478.85 2186.33,1481.65 L2186.33,1507.83 C2186.33,1510.64 2186.33,1510.75 2186,1511.24 C2185.56,1511.79 2184.51,1512.01 2181.38,1512.01 L2180.39,1512.01 L2180.39,1514.6 L2214.16,1514.6 L2215.26,1499.91 L2212.84,1499.91 C2210.75,1509.7 2208.49,1511.79 2200.08,1512.01 L2196.45,1512.01 C2193.15,1511.9 2192.32,1511.35 2192.49,1509.37 L2192.49,1495.35 L2193.59,1495.35 C2199.25,1495.13 2201.29,1497.16 2201.51,1503.27 L2204.09,1503.27 L2204.09,1485.23 L2201.51,1485.23 C2201.18,1490.62 2199.03,1492.76 2193.81,1492.76 L2192.49,1492.76 L2192.49,1480.22 C2192.43,1477.91 2192.98,1477.53 2195.95,1477.47 L2198.81,1477.47 C2207.83,1477.42 2210.09,1479.4 2211.85,1488.91 L2214.21,1488.91 L2213.44,1474.89 "/>
<path class="Harmony" d="M2224.2,1489.19 L2226.62,1489.57 L2227.61,1485.23 C2228.43,1481.6 2228.82,1481.05 2230.41,1481.05 C2230.69,1481.05 2231.13,1481.05 2231.62,1481.1 C2238.39,1481.43 2238.39,1481.43 2240.92,1481.43 C2241.63,1481.43 2242.9,1481.43 2244.44,1481.38 L2240.7,1488.91 C2236.63,1497 2236.13,1497.99 2234.76,1501.4 C2233.05,1505.52 2232.17,1508.99 2232.17,1511.3 C2232.17,1513.83 2233.49,1515.37 2235.64,1515.37 C2238.28,1515.37 2239.32,1513.61 2239.27,1508.82 C2238.99,1500.9 2239.98,1497.05 2245.87,1484.18 C2246.86,1482.04 2247.9,1479.84 2248.89,1477.69 L2248.89,1476.1 C2245.59,1476.37 2243.83,1476.48 2240.42,1476.48 C2235.64,1476.48 2231.84,1476.32 2225.9,1475.88 L2224.2,1489.19 "/>
<path class="Harmony" d="M379.138,1474.12 L376.828,1474.12 L364.178,1506.18 C362.693,1510.47 361.263,1511.79 358.128,1512.01 L357.908,1512.01 L357.908,1514.6 L372.483,1514.6 L372.483,1512.01 L371.383,1512.01 C368.413,1512.01 366.928,1510.97 366.928,1508.88 C366.928,1508.16 367.093,1507.5 367.423,1506.57 L369.238,1501.73 L383.813,1501.73 L386.783,1509.1 C387.113,1509.98 387.223,1510.31 387.223,1510.58 C387.223,1511.46 385.848,1512.01 383.813,1512.01 L381.503,1512.01 L381.503,1514.6 L398.553,1514.6 L398.553,1512.01 L397.783,1512.01 C394.923,1511.96 394.428,1511.63 393.163,1508.49 L379.138,1474.12 M376.443,1483.14 L382.658,1498.76 L370.338,1498.76 L376.443,1483.14 "/>
<path class="Harmony" d="M411.56,1488.97 L401.77,1489.57 L401.77,1491.94 L404.025,1491.94 C406.115,1491.99 406.39,1492.32 406.39,1494.69 L406.39,1510.42 C406.335,1511.24 406.28,1511.57 406.06,1511.85 C405.675,1512.34 404.63,1512.56 402.265,1512.62 L402.045,1512.62 L402.045,1514.6 L415.905,1514.6 L415.905,1512.62 L415.685,1512.62 C412.055,1512.51 411.56,1512.23 411.56,1510.2 L411.56,1500.02 C411.56,1495.13 414.255,1491.5 417.83,1491.5 C420.965,1491.5 422.56,1493.75 422.56,1498.21 L422.56,1510.47 C422.505,1511.19 422.45,1511.57 422.175,1511.85 C421.845,1512.34 420.745,1512.56 418.38,1512.62 L418.16,1512.62 L418.16,1514.6 L432.075,1514.6 L432.075,1512.62 L431.855,1512.62 C428.225,1512.51 427.73,1512.23 427.73,1510.25 L427.73,1500.52 C427.73,1495.02 430.205,1491.5 434.055,1491.5 C437.19,1491.5 438.73,1493.86 438.73,1498.81 L438.73,1510.42 C438.675,1511.19 438.62,1511.57 438.345,1511.85 C438.015,1512.34 436.915,1512.56 434.55,1512.62 L434.33,1512.62 L434.33,1514.6 L448.245,1514.6 L448.245,1512.62 L448.025,1512.62 C444.395,1512.51 443.9,1512.23 443.9,1510.2 L443.9,1497.71 C443.9,1494.3 443.57,1493.15 442.14,1491.28 C440.545,1489.24 438.29,1488.14 435.65,1488.14 C432.075,1488.14 429.435,1489.85 427.07,1493.64 C426.135,1490.34 423.165,1488.14 419.48,1488.14 C416.125,1488.14 413.705,1489.74 411.56,1493.2 L411.56,1488.97 "/>
<path class="Harmony" d="M671.749,1002.92 L669.439,1002.92 L656.789,1034.98 C655.304,1039.27 653.874,1040.59 650.739,1040.81 L650.519,1040.81 L650.519,1043.4 L665.094,1043.4 L665.094,1040.81 L663.994,1040.81 C661.024,1040.81 659.539,1039.77 659.539,1037.68 C659.539,1036.96 659.704,1036.3 660.034,1035.37 L661.849,1030.53 L676.424,1030.53 L679.394,1037.9 C679.724,1038.78 679.834,1039.11 679.834,1039.38 C679.834,1040.26 678.459,1040.81 676.424,1040.81 L674.114,1040.81 L674.114,1043.4 L691.164,1043.4 L691.164,1040.81 L690.394,1040.81 C687.534,1040.76 687.039,1040.43 685.774,1037.29 L671.749,1002.92 M669.054,1011.94 L675.269,1027.56 L662.949,1027.56 L669.054,1011.94 "/>
<path class="Harmony" d="M704.17,1017.77 L694.38,1018.37 L694.38,1020.74 L696.635,1020.74 C698.725,1020.79 699,1021.12 699,1023.49 L699,1039.22 C698.945,1040.04 698.89,1040.37 698.67,1040.65 C698.285,1041.14 697.24,1041.36 694.875,1041.42 L694.655,1041.42 L694.655,1043.4 L708.515,1043.4 L708.515,1041.42 L708.295,1041.42 C704.665,1041.31 704.17,1041.03 704.17,1039 L704.17,1028.82 C704.17,1023.93 706.865,1020.3 710.44,1020.3 C713.575,1020.3 715.17,1022.55 715.17,1027.01 L715.17,1039.27 C715.115,1039.99 715.06,1040.37 714.785,1040.65 C714.455,1041.14 713.355,1041.36 710.99,1041.42 L710.77,1041.42 L710.77,1043.4 L724.685,1043.4 L724.685,1041.42 L724.465,1041.42 C720.835,1041.31 720.34,1041.03 720.34,1039.05 L720.34,1029.32 C720.34,1023.82 722.815,1020.3 726.665,1020.3 C729.8,1020.3 731.34,1022.66 731.34,1027.61 L731.34,1039.22 C731.285,1039.99 731.23,1040.37 730.955,1040.65 C730.625,1041.14 729.525,1041.36 727.16,1041.42 L726.94,1041.42 L726.94,1043.4 L740.855,1043.4 L740.855,1041.42 L740.635,1041.42 C737.005,1041.31 736.51,1041.03 736.51,1039 L736.51,1026.51 C736.51,1023.1 736.18,1021.95 734.75,1020.08 C733.155,1018.04 730.9,1016.94 728.26,1016.94 C724.685,1016.94 722.045,1018.65 719.68,1022.44 C718.745,1019.14 715.775,1016.94 712.09,1016.94 C708.735,1016.94 706.315,1018.54 704.17,1022 L704.17,1017.77 "/>
<path class="Harmony" d="M2540.68,1043.4 L2559.16,1043.4 C2564.06,1043.4 2567.8,1042.63 2570.71,1040.98 C2576.27,1037.84 2579.35,1031.57 2579.35,1023.32 C2579.35,1015.73 2576.6,1009.79 2571.54,1006.49 C2568.51,1004.57 2564.44,1003.69 2558.17,1003.69 L2540.68,1003.69 L2540.68,1006.27 L2541.73,1006.27 C2544.81,1006.33 2545.85,1006.49 2546.29,1007.04 C2546.62,1007.54 2546.62,1007.65 2546.62,1010.45 L2546.62,1036.63 C2546.62,1039.44 2546.62,1039.55 2546.29,1040.04 C2545.85,1040.59 2544.81,1040.76 2541.73,1040.81 L2540.68,1040.81 L2540.68,1043.4 M2555.92,1040.81 C2553.11,1040.81 2552.78,1040.48 2552.78,1037.79 L2552.78,1009.35 C2552.78,1006.66 2553.17,1006.27 2555.92,1006.27 L2558.78,1006.27 C2568.18,1006.27 2572.09,1011.39 2572.09,1023.54 C2572.09,1035.86 2568.57,1040.81 2559.66,1040.81 L2555.92,1040.81 "/>
<path class="Harmony" d="M2595.38,1017.77 L2585.59,1018.37 L2585.59,1020.74 L2587.84,1020.74 C2589.93,1020.79 2590.21,1021.12 2590.21,1023.49 L2590.21,1039.22 C2590.15,1040.04 2590.1,1040.37 2589.88,1040.65 C2589.49,1041.14 2588.45,1041.36 2586.08,1041.42 L2585.86,1041.42 L2585.86,1043.4 L2599.72,1043.4 L2599.72,1041.42 L2599.5,1041.42 C2595.87,1041.31 2595.38,1041.03 2595.38,1039 L2595.38,1028.82 C2595.38,1023.93 2598.07,1020.3 2601.65,1020.3 C2604.78,1020.3 2606.38,1022.55 2606.38,1027.01 L2606.38,1039.27 C2606.32,1039.99 2606.27,1040.37 2605.99,1040.65 C2605.66,1041.14 2604.56,1041.36 2602.2,1041.42 L2601.98,1041.42 L2601.98,1043.4 L2615.89,1043.4 L2615.89,1041.42 L2615.67,1041.42 C2612.04,1041.31 2611.55,1041.03 2611.55,1039.05 L2611.55,1029.32 C2611.55,1023.82 2614.02,1020.3 2617.87,1020.3 C2621.01,1020.3 2622.55,1022.66 2622.55,1027.61 L2622.55,1039.22 C2622.49,1039.99 2622.44,1040.37 2622.16,1040.65 C2621.83,1041.14 2620.73,1041.36 2618.37,1041.42 L2618.15,1041.42 L2618.15,1043.4 L2632.06,1043.4 L2632.06,1041.42 L2631.84,1041.42 C2628.21,1041.31 2627.72,1041.03 2627.72,1039 L2627.72,1026.51 C2627.72,1023.1 2627.39,1021.95 2625.96,1020.08 C2624.36,1018.04 2622.11,1016.94 2619.47,1016.94 C2615.89,1016.94 2613.25,1018.65 2610.89,1022.44 C2609.95,1019.14 2606.98,1016.94 2603.3,1016.94 C2599.94,1016.94 2597.52,1018.54 2595.38,1022 L2595.38,1017.77 "/>
<path class="Harmony" d="M1001.06,1002.92 L998.753,1002.92 L986.103,1034.98 C984.618,1039.27 983.188,1040.59 980.053,1040.81 L979.833,1040.81 L979.833,1043.4 L994.408,1043.4 L994.408,1040.81 L993.308,1040.81 C990.338,1040.81 988.853,1039.77 988.853,1037.68 C988.853,1036.96 989.018,1036.3 989.348,1035.37 L991.163,1030.53 L1005.74,1030.53 L1008.71,1037.9 C1009.04,1038.78 1009.15,1039.11 1009.15,1039.38 C1009.15,1040.26 1007.77,1040.81 1005.74,1040.81 L1003.43,1040.81 L1003.43,1043.4 L1020.48,1043.4 L1020.48,1040.81 L1019.71,1040.81 C1016.85,1040.76 1016.35,1040.43 1015.09,1037.29 L1001.06,1002.92 M998.368,1011.94 L1004.58,1027.56 L992.263,1027.56 L998.368,1011.94 "/>
<path class="Harmony" d="M1033.48,1017.77 L1023.69,1018.37 L1023.69,1020.74 L1025.95,1020.74 C1028.04,1020.79 1028.31,1021.12 1028.31,1023.49 L1028.31,1039.22 C1028.26,1040.04 1028.2,1040.37 1027.98,1040.65 C1027.6,1041.14 1026.55,1041.36 1024.19,1041.42 L1023.97,1041.42 L1023.97,1043.4 L1037.83,1043.4 L1037.83,1041.42 L1037.61,1041.42 C1033.98,1041.31 1033.48,1041.03 1033.48,1039 L1033.48,1028.82 C1033.48,1023.93 1036.18,1020.3 1039.75,1020.3 C1042.89,1020.3 1044.48,1022.55 1044.48,1027.01 L1044.48,1039.27 C1044.43,1039.99 1044.37,1040.37 1044.1,1040.65 C1043.77,1041.14 1042.67,1041.36 1040.3,1041.42 L1040.08,1041.42 L1040.08,1043.4 L1054,1043.4 L1054,1041.42 L1053.78,1041.42 C1050.15,1041.31 1049.65,1041.03 1049.65,1039.05 L1049.65,1029.32 C1049.65,1023.82 1052.13,1020.3 1055.98,1020.3 C1059.11,1020.3 1060.65,1022.66 1060.65,1027.61 L1060.65,1039.22 C1060.6,1039.99 1060.54,1040.37 1060.27,1040.65 C1059.94,1041.14 1058.84,1041.36 1056.47,1041.42 L1056.25,1041.42 L1056.25,1043.4 L1070.17,1043.4 L1070.17,1041.42 L1069.95,1041.42 C1066.32,1041.31 1065.82,1041.03 1065.82,1039 L1065.82,1026.51 C1065.82,1023.1 1065.49,1021.95 1064.06,1020.08 C1062.47,1018.04 1060.21,1016.94 1057.57,1016.94 C1054,1016.94 1051.36,1018.65 1048.99,1022.44 C1048.06,1019.14 1045.09,1016.94 1041.4,1016.94 C1038.05,1016.94 1035.63,1018.54 1033.48,1022 L1033.48,1017.77 "/>
<path class="Harmony" d="M2220.53,1002.92 L2218.22,1002.92 L2205.57,1034.98 C2204.08,1039.27 2202.65,1040.59 2199.52,1040.81 L2199.3,1040.81 L2199.3,1043.4 L2213.87,1043.4 L2213.87,1040.81 L2212.77,1040.81 C2209.8,1040.81 2208.32,1039.77 2208.32,1037.68 C2208.32,1036.96 2208.48,1036.3 2208.81,1035.37 L2210.63,1030.53 L2225.2,1030.53 L2228.17,1037.9 C2228.5,1038.78 2228.61,1039.11 2228.61,1039.38 C2228.61,1040.26 2227.24,1040.81 2225.2,1040.81 L2222.89,1040.81 L2222.89,1043.4 L2239.94,1043.4 L2239.94,1040.81 L2239.17,1040.81 C2236.31,1040.76 2235.82,1040.43 2234.55,1037.29 L2220.53,1002.92 M2217.83,1011.94 L2224.05,1027.56 L2211.73,1027.56 L2217.83,1011.94 "/>
<path class="Harmony" d="M2252.95,1017.77 L2243.16,1018.37 L2243.16,1020.74 L2245.41,1020.74 C2247.5,1020.79 2247.78,1021.12 2247.78,1023.49 L2247.78,1039.22 C2247.72,1040.04 2247.67,1040.37 2247.45,1040.65 C2247.06,1041.14 2246.02,1041.36 2243.65,1041.42 L2243.43,1041.42 L2243.43,1043.4 L2257.29,1043.4 L2257.29,1041.42 L2257.07,1041.42 C2253.44,1041.31 2252.95,1041.03 2252.95,1039 L2252.95,1028.82 C2252.95,1023.93 2255.64,1020.3 2259.22,1020.3 C2262.35,1020.3 2263.95,1022.55 2263.95,1027.01 L2263.95,1039.27 C2263.89,1039.99 2263.84,1040.37 2263.56,1040.65 C2263.23,1041.14 2262.13,1041.36 2259.77,1041.42 L2259.55,1041.42 L2259.55,1043.4 L2273.46,1043.4 L2273.46,1041.42 L2273.24,1041.42 C2269.61,1041.31 2269.12,1041.03 2269.12,1039.05 L2269.12,1029.32 C2269.12,1023.82 2271.59,1020.3 2275.44,1020.3 C2278.58,1020.3 2280.12,1022.66 2280.12,1027.61 L2280.12,1039.22 C2280.06,1039.99 2280.01,1040.37 2279.73,1040.65 C2279.4,1041.14 2278.3,1041.36 2275.94,1041.42 L2275.72,1041.42 L2275.72,1043.4 L2289.63,1043.4 L2289.63,1041.42 L2289.41,1041.42 C2285.78,1041.31 2285.29,1041.03 2285.29,1039 L2285.29,1026.51 C2285.29,1023.1 2284.96,1021.95 2283.53,1020.08 C2281.93,1018.04 2279.68,1016.94 2277.04,1016.94 C2273.46,1016.94 2270.82,1018.65 2268.46,1022.44 C2267.52,1019.14 2264.55,1016.94 2260.87,1016.94 C2257.51,1016.94 2255.09,1018.54 2252.95,1022 L2252.95,1017.77 "/>
<path class="Harmony" d="M1891.21,1002.92 L1888.9,1002.92 L1876.25,1034.98 C1874.77,1039.27 1873.34,1040.59 1870.2,1040.81 L1869.98,1040.81 L1869.98,1043.4 L1884.56,1043.4 L1884.56,1040.81 L1883.46,1040.81 C1880.49,1040.81 1879,1039.77 1879,1037.68 C1879,1036.96 1879.17,1036.3 1879.5,1035.37 L1881.31,1030.53 L1895.89,1030.53 L1898.86,1037.9 C1899.19,1038.78 1899.3,1039.11 1899.3,1039.38 C1899.3,1040.26 1897.92,1040.81 1895.89,1040.81 L1893.58,1040.81 L1893.58,1043.4 L1910.63,1043.4 L1910.63,1040.81 L1909.86,1040.81 C1907,1040.76 1906.5,1040.43 1905.24,1037.29 L1891.21,1002.92 M1888.52,1011.94 L1894.73,1027.56 L1882.41,1027.56 L1888.52,1011.94 "/>
<path class="Harmony" d="M1923.64,1017.77 L1913.85,1018.37 L1913.85,1020.74 L1916.1,1020.74 C1918.19,1020.79 1918.47,1021.12 1918.47,1023.49 L1918.47,1039.22 C1918.41,1040.04 1918.36,1040.37 1918.14,1040.65 C1917.75,1041.14 1916.71,1041.36 1914.34,1041.42 L1914.12,1041.42 L1914.12,1043.4 L1927.98,1043.4 L1927.98,1041.42 L1927.76,1041.42 C1924.13,1041.31 1923.64,1041.03 1923.64,1039 L1923.64,1028.82 C1923.64,1023.93 1926.33,1020.3 1929.91,1020.3 C1933.04,1020.3 1934.64,1022.55 1934.64,1027.01 L1934.64,1039.27 C1934.58,1039.99 1934.53,1040.37 1934.25,1040.65 C1933.92,1041.14 1932.82,1041.36 1930.46,1041.42 L1930.24,1041.42 L1930.24,1043.4 L1944.15,1043.4 L1944.15,1041.42 L1943.93,1041.42 C1940.3,1041.31 1939.81,1041.03 1939.81,1039.05 L1939.81,1029.32 C1939.81,1023.82 1942.28,1020.3 1946.13,1020.3 C1949.27,1020.3 1950.81,1022.66 1950.81,1027.61 L1950.81,1039.22 C1950.75,1039.99 1950.7,1040.37 1950.42,1040.65 C1950.09,1041.14 1948.99,1041.36 1946.63,1041.42 L1946.41,1041.42 L1946.41,1043.4 L1960.32,1043.4 L1960.32,1041.42 L1960.1,1041.42 C1956.47,1041.31 1955.98,1041.03 1955.98,1039 L1955.98,1026.51 C1955.98,1023.1 1955.65,1021.95 1954.22,1020.08 C1952.62,1018.04 1950.37,1016.94 1947.73,1016.94 C1944.15,1016.94 1941.51,1018.65 1939.15,1022.44 C1938.21,1019.14 1935.24,1016.94 1931.56,1016.94 C1928.2,1016.94 1925.78,1018.54 1923.64,1022 L1923.64,1017.77 "/>
<path class="Harmony" d="M1354.27,1003.69 L1321.22,1003.69 L1321.22,1006.27 L1322.21,1006.27 C1325.34,1006.33 1326.39,1006.49 1326.83,1007.04 C1327.16,1007.54 1327.16,1007.65 1327.16,1010.45 L1327.16,1036.63 C1327.16,1039.44 1327.16,1039.55 1326.83,1040.04 C1326.39,1040.59 1325.34,1040.81 1322.21,1040.81 L1321.22,1040.81 L1321.22,1043.4 L1354.99,1043.4 L1356.09,1028.71 L1353.67,1028.71 C1351.58,1038.5 1349.32,1040.59 1340.91,1040.81 L1337.28,1040.81 C1333.98,1040.7 1333.15,1040.15 1333.32,1038.17 L1333.32,1024.15 L1334.42,1024.15 C1340.08,1023.93 1342.12,1025.96 1342.34,1032.07 L1344.92,1032.07 L1344.92,1014.03 L1342.34,1014.03 C1342.01,1019.42 1339.86,1021.56 1334.64,1021.56 L1333.32,1021.56 L1333.32,1009.02 C1333.26,1006.71 1333.81,1006.33 1336.78,1006.27 L1339.64,1006.27 C1348.66,1006.22 1350.92,1008.2 1352.68,1017.71 L1355.04,1017.71 L1354.27,1003.69 "/>
<path class="Harmony" d="M1365.02,1017.99 L1367.44,1018.37 L1368.43,1014.03 C1369.26,1010.4 1369.64,1009.85 1371.24,1009.85 C1371.51,1009.85 1371.95,1009.85 1372.45,1009.9 C1379.21,1010.23 1379.21,1010.23 1381.74,1010.23 C1382.46,1010.23 1383.72,1010.23 1385.26,1010.18 L1381.52,1017.71 C1377.45,1025.8 1376.96,1026.79 1375.58,1030.2 C1373.88,1034.32 1373,1037.79 1373,1040.1 C1373,1042.63 1374.32,1044.17 1376.46,1044.17 C1379.1,1044.17 1380.15,1042.41 1380.09,1037.62 C1379.82,1029.7 1380.81,1025.85 1386.69,1012.98 C1387.68,1010.84 1388.73,1008.64 1389.72,1006.49 L1389.72,1004.9 C1386.42,1005.17 1384.66,1005.28 1381.25,1005.28 C1376.46,1005.28 1372.67,1005.12 1366.73,1004.68 L1365.02,1017.99 "/>
<path class="Harmony" d="M1301.93,532.488 L1268.87,532.488 L1268.87,535.073 L1269.86,535.073 C1273,535.128 1274.04,535.293 1274.48,535.843 C1274.81,536.338 1274.81,536.448 1274.81,539.253 L1274.81,565.433 C1274.81,568.238 1274.81,568.348 1274.48,568.843 C1274.04,569.393 1273,569.613 1269.86,569.613 L1268.87,569.613 L1268.87,572.198 L1302.64,572.198 L1303.74,557.513 L1301.32,557.513 C1299.23,567.303 1296.98,569.393 1288.56,569.613 L1284.93,569.613 C1281.63,569.503 1280.81,568.953 1280.97,566.973 L1280.97,552.948 L1282.07,552.948 C1287.74,552.728 1289.77,554.763 1289.99,560.868 L1292.58,560.868 L1292.58,542.828 L1289.99,542.828 C1289.66,548.218 1287.52,550.363 1282.29,550.363 L1280.97,550.363 L1280.97,537.823 C1280.92,535.513 1281.47,535.128 1284.44,535.073 L1287.3,535.073 C1296.32,535.018 1298.57,536.998 1300.33,546.513 L1302.7,546.513 L1301.93,532.488 "/>
<path class="Harmony" d="M1312.68,546.788 L1315.1,547.173 L1316.09,542.828 C1316.91,539.198 1317.3,538.648 1318.89,538.648 C1319.17,538.648 1319.61,538.648 1320.1,538.703 C1326.87,539.033 1326.87,539.033 1329.4,539.033 C1330.11,539.033 1331.38,539.033 1332.92,538.978 L1329.18,546.513 C1325.11,554.598 1324.61,555.588 1323.24,558.998 C1321.53,563.123 1320.65,566.588 1320.65,568.898 C1320.65,571.428 1321.97,572.968 1324.12,572.968 C1326.76,572.968 1327.8,571.208 1327.75,566.423 C1327.47,558.503 1328.46,554.653 1334.35,541.783 C1335.34,539.638 1336.38,537.438 1337.37,535.293 L1337.37,533.698 C1334.07,533.973 1332.31,534.083 1328.9,534.083 C1324.12,534.083 1320.32,533.918 1314.38,533.478 L1312.68,546.788 "/>
<path class="Harmony" d="M2608.61,1474.89 L2575.55,1474.89 L2575.55,1477.47 L2576.54,1477.47 C2579.68,1477.53 2580.72,1477.69 2581.16,1478.24 C2581.49,1478.74 2581.49,1478.85 2581.49,1481.65 L2581.49,1507.83 C2581.49,1510.64 2581.49,1510.75 2581.16,1511.24 C2580.72,1511.79 2579.68,1512.01 2576.54,1512.01 L2575.55,1512.01 L2575.55,1514.6 L2609.32,1514.6 L2610.42,1499.91 L2608,1499.91 C2605.91,1509.7 2603.66,1511.79 2595.24,1512.01 L2591.61,1512.01 C2588.31,1511.9 2587.49,1511.35 2587.65,1509.37 L2587.65,1495.35 L2588.75,1495.35 C2594.42,1495.13 2596.45,1497.16 2596.67,1503.27 L2599.26,1503.27 L2599.26,1485.23 L2596.67,1485.23 C2596.34,1490.62 2594.2,1492.76 2588.97,1492.76 L2587.65,1492.76 L2587.65,1480.22 C2587.6,1477.91 2588.15,1477.53 2591.12,1477.47 L2593.98,1477.47 C2603,1477.42 2605.25,1479.4 2607.01,1488.91 L2609.38,1488.91 L2608.61,1474.89 "/>
<path class="NoteDot" transform="matrix(0.992,0,0,0.992,2493.99,1663.4)" d="M0,0 C0,2.8 2.2,5 5,5 C7.8,5 10,2.8 10,0 C10,-2.8 7.8,-5 5,-5 C2.2,-5 0,-2.8 0,0"/>
</svg>
