<?xml version="1.0" encoding="UTF-8" standalone="no"?>
<svg width="2977.2px" height="4208.4px" viewBox="0 0 2977.2 4208.4"
 xmlns="http://www.w3.org/2000/svg" xmlns:xlink="http://www.w3.org/1999/xlink" version="1.2" baseProfile="tiny">
<title>ちょうちょう</title>
<desc>Generated by MuseScore Studio 4.4.2</desc>
<path class="" fill="#ffffff" fill-rule="evenodd" d="M0,0 L2977.2,0 L2977.2,4208.4 L0,4208.4 L0,0 "/>
<polyline class="StaffLines" fill="none" stroke="#000000" stroke-width="2.73" stroke-linejoin="bevel" points="212.598,634.198 2764.6,634.198"/>
<polyline class="StaffLines" fill="none" stroke="#000000" stroke-width="2.73" stroke-linejoin="bevel" points="212.598,658.998 2764.6,658.998"/>
<polyline class="StaffLines" fill="none" stroke="#000000" stroke-width="2.73" stroke-linejoin="bevel" points="212.598,683.798 2764.6,683.798"/>
<polyline class="StaffLines" fill="none" stroke="#000000" stroke-width="2.73" stroke-linejoin="bevel" points="212.598,708.598 2764.6,708.598"/>
<polyline class="StaffLines" fill="none" stroke="#000000" stroke-width="2.73" stroke-linejoin="bevel" points="212.598,733.398 2764.6,733.398"/>
<polyline class="StaffLines" fill="none" stroke="#000000" stroke-width="2.73" stroke-linejoin="bevel" points="212.598,1105.4 2764.6,1105.4"/>
<polyline class="StaffLines" fill="none" stroke="#000000" stroke-width="2.73" stroke-linejoin="bevel" points="212.598,1130.2 2764.6,1130.2"/>
<polyline class="StaffLines" fill="none" stroke="#000000" stroke-width="2.73" stroke-linejoin="bevel" points="212.598,1155 2764.6,1155"/>
<polyline class="StaffLines" fill="none" stroke="#000000" stroke-width="2.73" stroke-linejoin="bevel" points="212.598,1179.8 2764.6,1179.8"/>
<polyline class="StaffLines" fill="none" stroke="#000000" stroke-width="2.73" stroke-linejoin="bevel" points="212.598,1204.6 2764.6,1204.6"/>
<path class="Text" d="M1175.22,238.237 C1175.55,238.237 1175.88,238.237 1176.1,238.237 C1176.76,238.237 1177.75,238.237 1179.18,238.347 C1185.56,238.787 1190.4,239.007 1197.44,239.117 C1193.7,252.097 1187.43,267.497 1182.7,274.977 L1190.62,278.167 C1192.82,275.307 1195.35,273.327 1199.86,271.127 C1207.34,267.387 1216.91,265.187 1225.38,265.187 C1238.58,265.187 1246.5,270.247 1246.5,278.607 C1246.5,289.167 1235.06,296.097 1217.68,296.097 C1207.67,296.097 1198.76,294.337 1190.18,290.597 C1190.51,294.117 1190.73,296.097 1190.73,296.647 C1190.73,296.757 1190.73,296.867 1190.73,297.307 C1190.73,297.637 1190.73,298.297 1190.62,299.067 C1199.42,302.037 1208,303.357 1217.79,303.357 C1240.01,303.357 1254.64,293.567 1254.64,278.607 C1254.64,266.287 1243.53,258.367 1226.15,258.367 C1214.16,258.367 1201.84,261.887 1194.14,267.607 L1194.03,267.387 C1197.11,262.327 1201.95,249.787 1205.03,239.117 C1221.64,238.567 1230.44,237.907 1245.84,235.927 C1248.15,235.597 1248.81,235.597 1250.68,235.377 L1250.13,227.457 C1242.98,229.877 1228.35,231.417 1206.79,232.187 C1207.89,228.227 1208.22,226.907 1209.76,220.527 C1210.97,215.137 1210.97,215.137 1211.52,213.487 L1202.72,212.607 C1202.61,217.557 1201.51,223.717 1199.2,232.297 C1187.65,232.297 1180.61,231.747 1175.44,230.427 L1175.22,238.237 M1322.29,231.967 C1322.62,233.397 1322.62,234.057 1322.73,235.487 L1322.84,247.477 C1322.95,258.477 1323.06,261.777 1323.5,269.257 C1323.94,278.387 1323.94,278.387 1324.05,278.827 C1324.05,279.487 1324.05,279.597 1324.16,280.147 C1322.95,279.597 1318.99,279.047 1315.91,279.047 C1311.4,279.047 1306.45,279.927 1302.71,281.467 C1297.54,283.557 1294.35,288.177 1294.35,293.347 C1294.35,296.867 1295.78,299.947 1298.42,302.367 C1301.39,305.117 1306.56,306.547 1313.05,306.547 C1320.53,306.547 1326.14,304.567 1328.78,300.937 C1330.21,299.067 1331.31,295.107 1331.31,292.027 C1331.31,290.487 1331.2,289.057 1331.09,288.067 C1331.86,288.507 1332.52,288.837 1332.85,288.947 C1340.77,292.467 1349.9,298.517 1354.08,303.357 L1358.37,296.537 C1357.27,295.877 1356.72,295.657 1355.73,294.887 C1349.02,290.157 1348.03,289.497 1345.17,287.737 C1340.33,284.987 1335.82,283.007 1330.98,281.357 C1330.32,271.787 1330.1,265.847 1329.88,258.697 C1336.26,258.697 1341.65,258.147 1350.12,257.047 C1354.85,256.387 1354.85,256.387 1356.06,256.277 L1355.29,249.237 C1350.23,251.107 1339.34,252.537 1329.66,252.537 C1329.55,247.697 1329.55,245.167 1329.55,244.837 C1329.55,237.247 1329.66,234.387 1330.21,232.077 L1322.29,231.967 M1324.27,286.197 C1324.38,286.197 1324.6,289.167 1324.6,290.487 C1324.6,293.457 1324.16,295.437 1323.17,296.867 C1321.52,299.067 1318,300.167 1312.72,300.167 C1305.35,300.167 1301.39,297.747 1301.39,293.237 C1301.39,288.177 1306.56,285.097 1315.25,285.097 C1318.44,285.097 1320.75,285.427 1324.27,286.197 M1412.6,222.617 C1427.34,226.797 1440.87,228.887 1458.8,229.877 L1460.01,221.957 C1441.97,221.737 1426.02,219.207 1415.24,215.137 L1412.6,222.617 M1401.16,258.367 C1409.74,254.847 1431.74,250.997 1443.07,250.997 C1448.79,250.997 1453.85,251.877 1456.6,253.417 C1461.11,255.837 1463.64,260.237 1463.64,265.737 C1463.64,270.797 1461.77,275.747 1458.03,280.697 C1455.39,284.107 1452.97,286.087 1448.57,288.507 C1439.33,293.787 1429.32,296.647 1417.66,297.417 C1419.31,300.057 1419.75,301.047 1421.18,305.447 C1437.57,302.367 1444.72,300.057 1453.08,294.997 C1465.29,287.517 1472,277.067 1472,265.297 C1472,257.707 1468.81,251.657 1462.65,247.807 C1458.14,244.947 1451.98,243.627 1443.73,243.627 C1435.04,243.627 1424.81,244.837 1410.18,247.587 C1401.6,249.237 1401.6,249.237 1399.07,249.457 L1401.16,258.367 M1505.22,238.237 C1505.55,238.237 1505.88,238.237 1506.1,238.237 C1506.76,238.237 1507.75,238.237 1509.18,238.347 C1515.56,238.787 1520.4,239.007 1527.44,239.117 C1523.7,252.097 1517.43,267.497 1512.7,274.977 L1520.62,278.167 C1522.82,275.307 1525.35,273.327 1529.86,271.127 C1537.34,267.387 1546.91,265.187 1555.38,265.187 C1568.58,265.187 1576.5,270.247 1576.5,278.607 C1576.5,289.167 1565.06,296.097 1547.68,296.097 C1537.67,296.097 1528.76,294.337 1520.18,290.597 C1520.51,294.117 1520.73,296.097 1520.73,296.647 C1520.73,296.757 1520.73,296.867 1520.73,297.307 C1520.73,297.637 1520.73,298.297 1520.62,299.067 C1529.42,302.037 1538,303.357 1547.79,303.357 C1570.01,303.357 1584.64,293.567 1584.64,278.607 C1584.64,266.287 1573.53,258.367 1556.15,258.367 C1544.16,258.367 1531.84,261.887 1524.14,267.607 L1524.03,267.387 C1527.11,262.327 1531.95,249.787 1535.03,239.117 C1551.64,238.567 1560.44,237.907 1575.84,235.927 C1578.15,235.597 1578.81,235.597 1580.68,235.377 L1580.13,227.457 C1572.98,229.877 1558.35,231.417 1536.79,232.187 C1537.89,228.227 1538.22,226.907 1539.76,220.527 C1540.97,215.137 1540.97,215.137 1541.52,213.487 L1532.72,212.607 C1532.61,217.557 1531.51,223.717 1529.2,232.297 C1517.65,232.297 1510.61,231.747 1505.44,230.427 L1505.22,238.237 M1652.29,231.967 C1652.62,233.397 1652.62,234.057 1652.73,235.487 L1652.84,247.477 C1652.95,258.477 1653.06,261.777 1653.5,269.257 C1653.94,278.387 1653.94,278.387 1654.05,278.827 C1654.05,279.487 1654.05,279.597 1654.16,280.147 C1652.95,279.597 1648.99,279.047 1645.91,279.047 C1641.4,279.047 1636.45,279.927 1632.71,281.467 C1627.54,283.557 1624.35,288.177 1624.35,293.347 C1624.35,296.867 1625.78,299.947 1628.42,302.367 C1631.39,305.117 1636.56,306.547 1643.05,306.547 C1650.53,306.547 1656.14,304.567 1658.78,300.937 C1660.21,299.067 1661.31,295.107 1661.31,292.027 C1661.31,290.487 1661.2,289.057 1661.09,288.067 C1661.86,288.507 1662.52,288.837 1662.85,288.947 C1670.77,292.467 1679.9,298.517 1684.08,303.357 L1688.37,296.537 C1687.27,295.877 1686.72,295.657 1685.73,294.887 C1679.02,290.157 1678.03,289.497 1675.17,287.737 C1670.33,284.987 1665.82,283.007 1660.98,281.357 C1660.32,271.787 1660.1,265.847 1659.88,258.697 C1666.26,258.697 1671.65,258.147 1680.12,257.047 C1684.85,256.387 1684.85,256.387 1686.06,256.277 L1685.29,249.237 C1680.23,251.107 1669.34,252.537 1659.66,252.537 C1659.55,247.697 1659.55,245.167 1659.55,244.837 C1659.55,237.247 1659.66,234.387 1660.21,232.077 L1652.29,231.967 M1654.27,286.197 C1654.38,286.197 1654.6,289.167 1654.6,290.487 C1654.6,293.457 1654.16,295.437 1653.17,296.867 C1651.52,299.067 1648,300.167 1642.72,300.167 C1635.35,300.167 1631.39,297.747 1631.39,293.237 C1631.39,288.177 1636.56,285.097 1645.25,285.097 C1648.44,285.097 1650.75,285.427 1654.27,286.197 M1742.6,222.617 C1757.34,226.797 1770.87,228.887 1788.8,229.877 L1790.01,221.957 C1771.97,221.737 1756.02,219.207 1745.24,215.137 L1742.6,222.617 M1731.16,258.367 C1739.74,254.847 1761.74,250.997 1773.07,250.997 C1778.79,250.997 1783.85,251.877 1786.6,253.417 C1791.11,255.837 1793.64,260.237 1793.64,265.737 C1793.64,270.797 1791.77,275.747 1788.03,280.697 C1785.39,284.107 1782.97,286.087 1778.57,288.507 C1769.33,293.787 1759.32,296.647 1747.66,297.417 C1749.31,300.057 1749.75,301.047 1751.18,305.447 C1767.57,302.367 1774.72,300.057 1783.08,294.997 C1795.29,287.517 1802,277.067 1802,265.297 C1802,257.707 1798.81,251.657 1792.65,247.807 C1788.14,244.947 1781.98,243.627 1773.73,243.627 C1765.04,243.627 1754.81,244.837 1740.18,247.587 C1731.6,249.237 1731.6,249.237 1729.07,249.457 L1731.16,258.367 "/>
<path class="MeasureNumber" d="M228.053,1042.12 C227.053,1046.76 224.373,1054.72 218.653,1054.72 C217.493,1054.72 216.733,1054.24 216.733,1053.52 C216.733,1053.24 216.813,1053.12 217.133,1052.64 C217.533,1052.12 217.733,1051.64 217.733,1051.08 C217.733,1049.76 216.693,1048.76 215.333,1048.76 C213.733,1048.76 212.613,1049.96 212.613,1051.72 C212.613,1054.44 215.173,1056.4 218.733,1056.4 C227.493,1056.4 233.093,1045.2 233.093,1037.6 C233.093,1031.36 230.093,1027.64 225.133,1027.64 C219.173,1027.64 214.733,1033.12 214.733,1038.84 C214.733,1042.64 217.653,1045.52 221.533,1045.52 C224.173,1045.52 226.213,1044.44 228.053,1042.12 M225.093,1029.32 C227.653,1029.32 229.293,1031.36 229.293,1034.56 C229.293,1039.52 226.573,1043.16 222.893,1043.16 C220.373,1043.16 218.973,1041.44 218.973,1038.44 C218.973,1034.84 220.693,1029.32 225.093,1029.32"/>
<polyline class="BarLine" fill="none" stroke="#000000" stroke-width="4.46" stroke-linejoin="bevel" points="1531.93,1104.03 1531.93,1205.96"/>
<polyline class="BarLine" fill="none" stroke="#000000" stroke-width="4.46" stroke-linejoin="bevel" points="1844.74,632.834 1844.74,734.762"/>
<polyline class="BarLine" fill="none" stroke="#000000" stroke-width="4.46" stroke-linejoin="bevel" points="1244.69,632.834 1244.69,734.762"/>
<polyline class="BarLine" fill="none" stroke="#000000" stroke-width="4.46" stroke-linejoin="bevel" points="2479.9,632.834 2479.9,734.762"/>
<polyline class="BarLine" fill="none" stroke="#000000" stroke-width="4.46" stroke-linejoin="bevel" points="1851.75,1104.03 1851.75,1205.96"/>
<polyline class="BarLine" fill="none" stroke="#000000" stroke-width="4.46" stroke-linejoin="bevel" points="1247.5,1104.03 1247.5,1205.96"/>
<polyline class="BarLine" fill="none" stroke="#000000" stroke-width="4.46" stroke-linejoin="bevel" points="2455.99,1104.03 2455.99,1205.96"/>
<polyline class="BarLine" fill="none" stroke="#000000" stroke-width="4.46" stroke-linejoin="bevel" points="2162.32,632.834 2162.32,734.762"/>
<polyline class="BarLine" fill="none" stroke="#000000" stroke-width="4.46" stroke-linejoin="bevel" points="2762.37,632.834 2762.37,734.762"/>
<polyline class="BarLine" fill="none" stroke="#000000" stroke-width="4.46" stroke-linejoin="bevel" points="927.113,632.834 927.113,734.762"/>
<polyline class="BarLine" fill="none" stroke="#000000" stroke-width="4.46" stroke-linejoin="bevel" points="2740.42,1104.03 2740.42,1205.96"/>
<polyline class="BarLine" fill="none" stroke="#000000" stroke-width="13.64" stroke-linejoin="bevel" points="2757.78,1104.03 2757.78,1205.96"/>
<polyline class="BarLine" fill="none" stroke="#000000" stroke-width="4.46" stroke-linejoin="bevel" points="643.256,1104.03 643.256,1205.96"/>
<polyline class="BarLine" fill="none" stroke="#000000" stroke-width="4.46" stroke-linejoin="bevel" points="1527.16,632.834 1527.16,734.762"/>
<polyline class="BarLine" fill="none" stroke="#000000" stroke-width="4.46" stroke-linejoin="bevel" points="927.685,1104.03 927.685,1205.96"/>
<polyline class="BarLine" fill="none" stroke="#000000" stroke-width="4.46" stroke-linejoin="bevel" points="644.643,632.834 644.643,734.762"/>
<polyline class="BarLine" fill="none" stroke="#000000" stroke-width="4.46" stroke-linejoin="bevel" points="2136.18,1104.03 2136.18,1205.96"/>
<polyline class="LedgerLine" fill="none" stroke="#000000" stroke-width="3.97" stroke-linejoin="bevel" points="2161.97,1229.4 2211.55,1229.4"/>
<polyline class="LedgerLine" fill="none" stroke="#000000" stroke-width="3.97" stroke-linejoin="bevel" points="952.905,758.198 1002.49,758.198"/>
<polyline class="LedgerLine" fill="none" stroke="#000000" stroke-width="3.97" stroke-linejoin="bevel" points="2188.11,758.198 2237.7,758.198"/>
<polyline class="Stem" fill="none" stroke="#000000" stroke-width="2.73" stroke-linejoin="bevel" points="1312.83,1200.63 1312.83,1130.08"/>
<polyline class="Stem" fill="none" stroke="#000000" stroke-width="2.73" stroke-linejoin="bevel" points="2438.31,704.63 2438.31,634.198"/>
<polyline class="Stem" fill="none" stroke="#000000" stroke-width="2.73" stroke-linejoin="bevel" points="1132.88,729.43 1132.88,658.882"/>
<polyline class="Stem" fill="none" stroke="#000000" stroke-width="2.73" stroke-linejoin="bevel" points="1203.1,717.03 1203.1,652.914"/>
<polyline class="Stem" fill="none" stroke="#000000" stroke-width="2.73" stroke-linejoin="bevel" points="1454.39,1175.83 1454.39,1093"/>
<polyline class="Stem" fill="none" stroke="#000000" stroke-width="2.73" stroke-linejoin="bevel" points="1668.04,1200.63 1668.04,1111.48"/>
<polyline class="Stem" fill="none" stroke="#000000" stroke-width="2.73" stroke-linejoin="bevel" points="1062.66,741.83 1062.66,677.714"/>
<polyline class="Stem" fill="none" stroke="#000000" stroke-width="2.73" stroke-linejoin="bevel" points="1310.02,704.63 1310.02,634.198"/>
<polyline class="Stem" fill="none" stroke="#000000" stroke-width="2.73" stroke-linejoin="bevel" points="1383.61,1188.23 1383.61,1124.11"/>
<polyline class="Stem" fill="none" stroke="#000000" stroke-width="2.73" stroke-linejoin="bevel" points="1738.82,1200.63 1738.82,1130.2"/>
<polyline class="Stem" fill="none" stroke="#000000" stroke-width="2.73" stroke-linejoin="bevel" points="1809.6,1200.63 1809.6,1130.2"/>
<polyline class="Stem" fill="none" stroke="#000000" stroke-width="2.73" stroke-linejoin="bevel" points="1380.24,704.63 1380.24,634.198"/>
<polyline class="Stem" fill="none" stroke="#000000" stroke-width="2.73" stroke-linejoin="bevel" points="992.446,754.23 992.446,683.682"/>
<polyline class="Stem" fill="none" stroke="#000000" stroke-width="2.73" stroke-linejoin="bevel" points="1450.46,704.63 1450.46,621.798"/>
<polyline class="Stem" fill="none" stroke="#000000" stroke-width="2.73" stroke-linejoin="bevel" points="1205.35,1200.63 1205.35,1130.2"/>
<polyline class="Stem" fill="none" stroke="#000000" stroke-width="2.73" stroke-linejoin="bevel" points="1134.57,1200.63 1134.57,1130.2"/>
<polyline class="Stem" fill="none" stroke="#000000" stroke-width="2.73" stroke-linejoin="bevel" points="1917.08,1188.23 1917.08,1124.11"/>
<polyline class="Stem" fill="none" stroke="#000000" stroke-width="2.73" stroke-linejoin="bevel" points="850.413,741.83 850.413,658.998"/>
<polyline class="Stem" fill="none" stroke="#000000" stroke-width="2.73" stroke-linejoin="bevel" points="1592.49,704.63 1592.49,634.314"/>
<polyline class="Stem" fill="none" stroke="#000000" stroke-width="2.73" stroke-linejoin="bevel" points="1063.8,1200.63 1063.8,1130.2"/>
<polyline class="Stem" fill="none" stroke="#000000" stroke-width="2.73" stroke-linejoin="bevel" points="993.017,1200.63 993.017,1130.2"/>
<polyline class="Stem" fill="none" stroke="#000000" stroke-width="2.73" stroke-linejoin="bevel" points="1987.86,1213.03 1987.86,1130.08"/>
<polyline class="Stem" fill="none" stroke="#000000" stroke-width="2.73" stroke-linejoin="bevel" points="1662.71,729.43 1662.71,640.282"/>
<polyline class="Stem" fill="none" stroke="#000000" stroke-width="2.73" stroke-linejoin="bevel" points="780.195,741.83 780.195,658.882"/>
<polyline class="Stem" fill="none" stroke="#000000" stroke-width="2.73" stroke-linejoin="bevel" points="1732.93,729.43 1732.93,658.998"/>
<polyline class="Stem" fill="none" stroke="#000000" stroke-width="2.73" stroke-linejoin="bevel" points="850.146,1188.23 850.146,1105.4"/>
<polyline class="Stem" fill="none" stroke="#000000" stroke-width="2.73" stroke-linejoin="bevel" points="779.367,1200.63 779.367,1130.31"/>
<polyline class="Stem" fill="none" stroke="#000000" stroke-width="2.73" stroke-linejoin="bevel" points="708.589,1213.03 708.589,1136.28"/>
<polyline class="Stem" fill="none" stroke="#000000" stroke-width="2.73" stroke-linejoin="bevel" points="1803.15,729.43 1803.15,658.998"/>
<polyline class="Stem" fill="none" stroke="#000000" stroke-width="2.73" stroke-linejoin="bevel" points="2058.64,1213.03 2058.64,1130.2"/>
<polyline class="Stem" fill="none" stroke="#000000" stroke-width="2.73" stroke-linejoin="bevel" points="709.976,717.03 709.976,652.914"/>
<polyline class="Stem" fill="none" stroke="#000000" stroke-width="2.73" stroke-linejoin="bevel" points="2201.51,1225.43 2201.51,1136.28"/>
<polyline class="Stem" fill="none" stroke="#000000" stroke-width="2.73" stroke-linejoin="bevel" points="1910.07,717.03 1910.07,652.914"/>
<polyline class="Stem" fill="none" stroke="#000000" stroke-width="2.73" stroke-linejoin="bevel" points="567.944,729.43 567.944,646.598"/>
<polyline class="Stem" fill="none" stroke="#000000" stroke-width="2.73" stroke-linejoin="bevel" points="601.106,1213.03 601.106,1136.4"/>
<polyline class="Stem" fill="none" stroke="#000000" stroke-width="2.73" stroke-linejoin="bevel" points="530.328,1213.03 530.328,1136.4"/>
<polyline class="Stem" fill="none" stroke="#000000" stroke-width="2.73" stroke-linejoin="bevel" points="1980.29,741.83 1980.29,658.882"/>
<polyline class="Stem" fill="none" stroke="#000000" stroke-width="2.73" stroke-linejoin="bevel" points="459.55,1213.03 459.55,1136.4"/>
<polyline class="Stem" fill="none" stroke="#000000" stroke-width="2.73" stroke-linejoin="bevel" points="2050.51,741.83 2050.51,665.198"/>
<polyline class="Stem" fill="none" stroke="#000000" stroke-width="2.73" stroke-linejoin="bevel" points="388.771,1213.03 388.771,1136.4"/>
<polyline class="Stem" fill="none" stroke="#000000" stroke-width="2.73" stroke-linejoin="bevel" points="2272.29,1200.63 2272.29,1130.31"/>
<polyline class="Stem" fill="none" stroke="#000000" stroke-width="2.73" stroke-linejoin="bevel" points="497.725,729.43 497.725,640.282"/>
<polyline class="Stem" fill="none" stroke="#000000" stroke-width="2.73" stroke-linejoin="bevel" points="2120.73,741.83 2120.73,665.198"/>
<polyline class="Stem" fill="none" stroke="#000000" stroke-width="2.73" stroke-linejoin="bevel" points="2343.07,1175.83 2343.07,1105.4"/>
<polyline class="Stem" fill="none" stroke="#000000" stroke-width="2.73" stroke-linejoin="bevel" points="2413.84,1175.83 2413.84,1105.4"/>
<polyline class="Stem" fill="none" stroke="#000000" stroke-width="2.73" stroke-linejoin="bevel" points="427.506,704.63 427.506,634.314"/>
<polyline class="Stem" fill="none" stroke="#000000" stroke-width="2.73" stroke-linejoin="bevel" points="2227.65,754.23 2227.65,665.082"/>
<polyline class="Stem" fill="none" stroke="#000000" stroke-width="2.73" stroke-linejoin="bevel" points="2521.33,1200.63 2521.33,1130.2"/>
<polyline class="Stem" fill="none" stroke="#000000" stroke-width="2.73" stroke-linejoin="bevel" points="2592.1,1200.63 2592.1,1130.2"/>
<polyline class="Stem" fill="none" stroke="#000000" stroke-width="2.73" stroke-linejoin="bevel" points="2685.67,729.43 2685.67,646.598"/>
<polyline class="Stem" fill="none" stroke="#000000" stroke-width="2.73" stroke-linejoin="bevel" points="2615.45,729.43 2615.45,658.998"/>
<polyline class="Stem" fill="none" stroke="#000000" stroke-width="2.73" stroke-linejoin="bevel" points="2297.87,729.43 2297.87,659.114"/>
<polyline class="Stem" fill="none" stroke="#000000" stroke-width="2.73" stroke-linejoin="bevel" points="2545.23,729.43 2545.23,658.998"/>
<polyline class="Stem" fill="none" stroke="#000000" stroke-width="2.73" stroke-linejoin="bevel" points="2368.09,704.63 2368.09,634.198"/>
<polyline class="Stem" fill="none" stroke="#000000" stroke-width="2.73" stroke-linejoin="bevel" points="2662.88,1200.63 2662.88,1117.8"/>
<polyline class="Stem" fill="none" stroke="#000000" stroke-width="2.73" stroke-linejoin="bevel" points="1597.26,1175.83 1597.26,1105.51"/>
<path class="Note" transform="matrix(0.992,0,0,0.992,2654.81,733.398)" d="M0,4.2 C0,8.5 3.1,13.3 11.2,13.3 C21.6,13.3 32.5,4.8 32.5,-4 C32.5,-9.9 27.5,-13.2 21.3,-13.2 C11.6,-13.2 0,-5 0,4.2"/>
<path class="Note" transform="matrix(0.992,0,0,0.992,1419.6,708.598)" d="M0,4.2 C0,8.5 3.1,13.3 11.2,13.3 C21.6,13.3 32.5,4.8 32.5,-4 C32.5,-9.9 27.5,-13.2 21.3,-13.2 C11.6,-13.2 0,-5 0,4.2"/>
<path class="Note" transform="matrix(0.992,0,0,0.992,2407.45,708.598)" d="M0,4.2 C0,8.5 3.1,13.3 11.2,13.3 C21.6,13.3 32.5,4.8 32.5,-4 C32.5,-9.9 27.5,-13.2 21.3,-13.2 C11.6,-13.2 0,-5 0,4.2"/>
<path class="Note" transform="matrix(0.992,0,0,0.992,819.553,745.798)" d="M0,4.2 C0,8.5 3.1,13.3 11.2,13.3 C21.6,13.3 32.5,4.8 32.5,-4 C32.5,-9.9 27.5,-13.2 21.3,-13.2 C11.6,-13.2 0,-5 0,4.2"/>
<path class="Note" transform="matrix(0.992,0,0,0.992,2632.02,1204.6)" d="M0,4.2 C0,8.5 3.1,13.3 11.2,13.3 C21.6,13.3 32.5,4.8 32.5,-4 C32.5,-9.9 27.5,-13.2 21.3,-13.2 C11.6,-13.2 0,-5 0,4.2"/>
<path class="Note" transform="matrix(0.992,0,0,0.992,2337.23,708.598)" d="M0,4.2 C0,8.5 3.1,13.3 11.2,13.3 C21.6,13.3 32.5,4.8 32.5,-4 C32.5,-9.9 27.5,-13.2 21.3,-13.2 C11.6,-13.2 0,-5 0,4.2"/>
<path class="Note" transform="matrix(0.992,0,0,0.992,2267.01,733.398)" d="M0,4.2 C0,8.5 3.1,13.3 11.2,13.3 C21.6,13.3 32.5,4.8 32.5,-4 C32.5,-9.9 27.5,-13.2 21.3,-13.2 C11.6,-13.2 0,-5 0,4.2"/>
<path class="Note" transform="matrix(0.992,0,0,0.992,2514.37,733.398)" d="M0,4.2 C0,8.5 3.1,13.3 11.2,13.3 C21.6,13.3 32.5,4.8 32.5,-4 C32.5,-9.9 27.5,-13.2 21.3,-13.2 C11.6,-13.2 0,-5 0,4.2"/>
<path class="Note" transform="matrix(0.992,0,0,0.992,749.334,745.798)" d="M0,4.2 C0,8.5 3.1,13.3 11.2,13.3 C21.6,13.3 32.5,4.8 32.5,-4 C32.5,-9.9 27.5,-13.2 21.3,-13.2 C11.6,-13.2 0,-5 0,4.2"/>
<path class="Note" transform="matrix(0.992,0,0,0.992,961.585,758.198)" d="M0,4.2 C0,8.5 3.1,13.3 11.2,13.3 C21.6,13.3 32.5,4.8 32.5,-4 C32.5,-9.9 27.5,-13.2 21.3,-13.2 C11.6,-13.2 0,-5 0,4.2"/>
<path class="Note" transform="matrix(0.992,0,0,0.992,2561.24,1204.6)" d="M0,4.2 C0,8.5 3.1,13.3 11.2,13.3 C21.6,13.3 32.5,4.8 32.5,-4 C32.5,-9.9 27.5,-13.2 21.3,-13.2 C11.6,-13.2 0,-5 0,4.2"/>
<path class="Note" transform="matrix(0.992,0,0,0.992,2584.59,733.398)" d="M0,4.2 C0,8.5 3.1,13.3 11.2,13.3 C21.6,13.3 32.5,4.8 32.5,-4 C32.5,-9.9 27.5,-13.2 21.3,-13.2 C11.6,-13.2 0,-5 0,4.2"/>
<path class="Note" transform="matrix(0.992,0,0,0.992,1778.74,1204.6)" d="M0,4.2 C0,8.5 3.1,13.3 11.2,13.3 C21.6,13.3 32.5,4.8 32.5,-4 C32.5,-9.9 27.5,-13.2 21.3,-13.2 C11.6,-13.2 0,-5 0,4.2"/>
<path class="Note" transform="matrix(0.992,0,0,0.992,2196.79,758.198)" d="M0,4.2 C0,8.5 3.1,13.3 11.2,13.3 C21.6,13.3 32.5,4.8 32.5,-4 C32.5,-9.9 27.5,-13.2 21.3,-13.2 C11.6,-13.2 0,-5 0,4.2"/>
<path class="Note" transform="matrix(0.992,0,0,0.992,2089.87,745.798)" d="M0,4.2 C0,8.5 3.1,13.3 11.2,13.3 C21.6,13.3 32.5,4.8 32.5,-4 C32.5,-9.9 27.5,-13.2 21.3,-13.2 C11.6,-13.2 0,-5 0,4.2"/>
<path class="Note" transform="matrix(0.992,0,0,0.992,1957,1217)" d="M0,4.2 C0,8.5 3.1,13.3 11.2,13.3 C21.6,13.3 32.5,4.8 32.5,-4 C32.5,-9.9 27.5,-13.2 21.3,-13.2 C11.6,-13.2 0,-5 0,4.2"/>
<path class="Note" transform="matrix(0.992,0,0,0.992,1707.96,1204.6)" d="M0,4.2 C0,8.5 3.1,13.3 11.2,13.3 C21.6,13.3 32.5,4.8 32.5,-4 C32.5,-9.9 27.5,-13.2 21.3,-13.2 C11.6,-13.2 0,-5 0,4.2"/>
<path class="Note" transform="matrix(0.992,0,0,0.992,2027.78,1217)" d="M0,4.2 C0,8.5 3.1,13.3 11.2,13.3 C21.6,13.3 32.5,4.8 32.5,-4 C32.5,-9.9 27.5,-13.2 21.3,-13.2 C11.6,-13.2 0,-5 0,4.2"/>
<path class="Note" transform="matrix(0.992,0,0,0.992,1637.18,1204.6)" d="M0,4.2 C0,8.5 3.1,13.3 11.2,13.3 C21.6,13.3 32.5,4.8 32.5,-4 C32.5,-9.9 27.5,-13.2 21.3,-13.2 C11.6,-13.2 0,-5 0,4.2"/>
<path class="Note" transform="matrix(0.992,0,0,0.992,1031.8,745.798)" d="M0,4.2 C0,8.5 3.1,13.3 11.2,13.3 C21.6,13.3 32.5,4.8 32.5,-4 C32.5,-9.9 27.5,-13.2 21.3,-13.2 C11.6,-13.2 0,-5 0,4.2"/>
<path class="Note" transform="matrix(0.992,0,0,0.992,2019.65,745.798)" d="M0,4.2 C0,8.5 3.1,13.3 11.2,13.3 C21.6,13.3 32.5,4.8 32.5,-4 C32.5,-9.9 27.5,-13.2 21.3,-13.2 C11.6,-13.2 0,-5 0,4.2"/>
<path class="Note" transform="matrix(0.992,0,0,0.992,357.911,1217)" d="M0,4.2 C0,8.5 3.1,13.3 11.2,13.3 C21.6,13.3 32.5,4.8 32.5,-4 C32.5,-9.9 27.5,-13.2 21.3,-13.2 C11.6,-13.2 0,-5 0,4.2"/>
<path class="Note" transform="matrix(0.992,0,0,0.992,1566.4,1179.8)" d="M0,4.2 C0,8.5 3.1,13.3 11.2,13.3 C21.6,13.3 32.5,4.8 32.5,-4 C32.5,-9.9 27.5,-13.2 21.3,-13.2 C11.6,-13.2 0,-5 0,4.2"/>
<path class="Note" transform="matrix(0.992,0,0,0.992,2490.47,1204.6)" d="M0,4.2 C0,8.5 3.1,13.3 11.2,13.3 C21.6,13.3 32.5,4.8 32.5,-4 C32.5,-9.9 27.5,-13.2 21.3,-13.2 C11.6,-13.2 0,-5 0,4.2"/>
<path class="Note" transform="matrix(0.992,0,0,0.992,1949.43,745.798)" d="M0,4.2 C0,8.5 3.1,13.3 11.2,13.3 C21.6,13.3 32.5,4.8 32.5,-4 C32.5,-9.9 27.5,-13.2 21.3,-13.2 C11.6,-13.2 0,-5 0,4.2"/>
<path class="Note" transform="matrix(0.992,0,0,0.992,428.689,1217)" d="M0,4.2 C0,8.5 3.1,13.3 11.2,13.3 C21.6,13.3 32.5,4.8 32.5,-4 C32.5,-9.9 27.5,-13.2 21.3,-13.2 C11.6,-13.2 0,-5 0,4.2"/>
<path class="Note" transform="matrix(0.992,0,0,0.992,1102.02,733.398)" d="M0,4.2 C0,8.5 3.1,13.3 11.2,13.3 C21.6,13.3 32.5,4.8 32.5,-4 C32.5,-9.9 27.5,-13.2 21.3,-13.2 C11.6,-13.2 0,-5 0,4.2"/>
<path class="Note" transform="matrix(0.992,0,0,0.992,499.468,1217)" d="M0,4.2 C0,8.5 3.1,13.3 11.2,13.3 C21.6,13.3 32.5,4.8 32.5,-4 C32.5,-9.9 27.5,-13.2 21.3,-13.2 C11.6,-13.2 0,-5 0,4.2"/>
<path class="Note" transform="matrix(0.992,0,0,0.992,679.115,720.998)" d="M0,4.2 C0,8.5 3.1,13.3 11.2,13.3 C21.6,13.3 32.5,4.8 32.5,-4 C32.5,-9.9 27.5,-13.2 21.3,-13.2 C11.6,-13.2 0,-5 0,4.2"/>
<path class="Note" transform="matrix(0.992,0,0,0.992,396.645,708.598)" d="M0,4.2 C0,8.5 3.1,13.3 11.2,13.3 C21.6,13.3 32.5,4.8 32.5,-4 C32.5,-9.9 27.5,-13.2 21.3,-13.2 C11.6,-13.2 0,-5 0,4.2"/>
<path class="Note" transform="matrix(0.992,0,0,0.992,537.083,733.398)" d="M0,4.2 C0,8.5 3.1,13.3 11.2,13.3 C21.6,13.3 32.5,4.8 32.5,-4 C32.5,-9.9 27.5,-13.2 21.3,-13.2 C11.6,-13.2 0,-5 0,4.2"/>
<path class="Note" transform="matrix(0.992,0,0,0.992,570.246,1217)" d="M0,4.2 C0,8.5 3.1,13.3 11.2,13.3 C21.6,13.3 32.5,4.8 32.5,-4 C32.5,-9.9 27.5,-13.2 21.3,-13.2 C11.6,-13.2 0,-5 0,4.2"/>
<path class="Note" transform="matrix(0.992,0,0,0.992,1879.21,720.998)" d="M0,4.2 C0,8.5 3.1,13.3 11.2,13.3 C21.6,13.3 32.5,4.8 32.5,-4 C32.5,-9.9 27.5,-13.2 21.3,-13.2 C11.6,-13.2 0,-5 0,4.2"/>
<path class="Note" transform="matrix(0.992,0,0,0.992,1772.29,733.398)" d="M0,4.2 C0,8.5 3.1,13.3 11.2,13.3 C21.6,13.3 32.5,4.8 32.5,-4 C32.5,-9.9 27.5,-13.2 21.3,-13.2 C11.6,-13.2 0,-5 0,4.2"/>
<path class="Note" transform="matrix(0.992,0,0,0.992,1423.53,1179.8)" d="M0,4.2 C0,8.5 3.1,13.3 11.2,13.3 C21.6,13.3 32.5,4.8 32.5,-4 C32.5,-9.9 27.5,-13.2 21.3,-13.2 C11.6,-13.2 0,-5 0,4.2"/>
<path class="Note" transform="matrix(0.992,0,0,0.992,677.728,1217)" d="M0,4.2 C0,8.5 3.1,13.3 11.2,13.3 C21.6,13.3 32.5,4.8 32.5,-4 C32.5,-9.9 27.5,-13.2 21.3,-13.2 C11.6,-13.2 0,-5 0,4.2"/>
<path class="Note" transform="matrix(0.992,0,0,0.992,1172.24,720.998)" d="M0,4.2 C0,8.5 3.1,13.3 11.2,13.3 C21.6,13.3 32.5,4.8 32.5,-4 C32.5,-9.9 27.5,-13.2 21.3,-13.2 C11.6,-13.2 0,-5 0,4.2"/>
<path class="Note" transform="matrix(0.992,0,0,0.992,2382.98,1179.8)" d="M0,4.2 C0,8.5 3.1,13.3 11.2,13.3 C21.6,13.3 32.5,4.8 32.5,-4 C32.5,-9.9 27.5,-13.2 21.3,-13.2 C11.6,-13.2 0,-5 0,4.2"/>
<path class="Note" transform="matrix(0.992,0,0,0.992,1352.75,1192.2)" d="M0,4.2 C0,8.5 3.1,13.3 11.2,13.3 C21.6,13.3 32.5,4.8 32.5,-4 C32.5,-9.9 27.5,-13.2 21.3,-13.2 C11.6,-13.2 0,-5 0,4.2"/>
<path class="Note" transform="matrix(0.992,0,0,0.992,748.507,1204.6)" d="M0,4.2 C0,8.5 3.1,13.3 11.2,13.3 C21.6,13.3 32.5,4.8 32.5,-4 C32.5,-9.9 27.5,-13.2 21.3,-13.2 C11.6,-13.2 0,-5 0,4.2"/>
<path class="Note" transform="matrix(0.992,0,0,0.992,1702.07,733.398)" d="M0,4.2 C0,8.5 3.1,13.3 11.2,13.3 C21.6,13.3 32.5,4.8 32.5,-4 C32.5,-9.9 27.5,-13.2 21.3,-13.2 C11.6,-13.2 0,-5 0,4.2"/>
<path class="Note" transform="matrix(0.992,0,0,0.992,819.285,1192.2)" d="M0,4.2 C0,8.5 3.1,13.3 11.2,13.3 C21.6,13.3 32.5,4.8 32.5,-4 C32.5,-9.9 27.5,-13.2 21.3,-13.2 C11.6,-13.2 0,-5 0,4.2"/>
<path class="Note" transform="matrix(0.992,0,0,0.992,1279.16,708.598)" d="M0,4.2 C0,8.5 3.1,13.3 11.2,13.3 C21.6,13.3 32.5,4.8 32.5,-4 C32.5,-9.9 27.5,-13.2 21.3,-13.2 C11.6,-13.2 0,-5 0,4.2"/>
<path class="Note" transform="matrix(0.992,0,0,0.992,1631.85,733.398)" d="M0,4.2 C0,8.5 3.1,13.3 11.2,13.3 C21.6,13.3 32.5,4.8 32.5,-4 C32.5,-9.9 27.5,-13.2 21.3,-13.2 C11.6,-13.2 0,-5 0,4.2"/>
<path class="Note" transform="matrix(0.992,0,0,0.992,2170.65,1229.4)" d="M0,4.2 C0,8.5 3.1,13.3 11.2,13.3 C21.6,13.3 32.5,4.8 32.5,-4 C32.5,-9.9 27.5,-13.2 21.3,-13.2 C11.6,-13.2 0,-5 0,4.2"/>
<path class="Note" transform="matrix(0.992,0,0,0.992,1281.97,1204.6)" d="M0,4.2 C0,8.5 3.1,13.3 11.2,13.3 C21.6,13.3 32.5,4.8 32.5,-4 C32.5,-9.9 27.5,-13.2 21.3,-13.2 C11.6,-13.2 0,-5 0,4.2"/>
<path class="Note" transform="matrix(0.992,0,0,0.992,962.157,1204.6)" d="M0,4.2 C0,8.5 3.1,13.3 11.2,13.3 C21.6,13.3 32.5,4.8 32.5,-4 C32.5,-9.9 27.5,-13.2 21.3,-13.2 C11.6,-13.2 0,-5 0,4.2"/>
<path class="Note" transform="matrix(0.992,0,0,0.992,1349.38,708.598)" d="M0,4.2 C0,8.5 3.1,13.3 11.2,13.3 C21.6,13.3 32.5,4.8 32.5,-4 C32.5,-9.9 27.5,-13.2 21.3,-13.2 C11.6,-13.2 0,-5 0,4.2"/>
<path class="Note" transform="matrix(0.992,0,0,0.992,2312.2,1179.8)" d="M0,4.2 C0,8.5 3.1,13.3 11.2,13.3 C21.6,13.3 32.5,4.8 32.5,-4 C32.5,-9.9 27.5,-13.2 21.3,-13.2 C11.6,-13.2 0,-5 0,4.2"/>
<path class="Note" transform="matrix(0.992,0,0,0.992,1561.63,708.598)" d="M0,4.2 C0,8.5 3.1,13.3 11.2,13.3 C21.6,13.3 32.5,4.8 32.5,-4 C32.5,-9.9 27.5,-13.2 21.3,-13.2 C11.6,-13.2 0,-5 0,4.2"/>
<path class="Note" transform="matrix(0.992,0,0,0.992,1032.93,1204.6)" d="M0,4.2 C0,8.5 3.1,13.3 11.2,13.3 C21.6,13.3 32.5,4.8 32.5,-4 C32.5,-9.9 27.5,-13.2 21.3,-13.2 C11.6,-13.2 0,-5 0,4.2"/>
<path class="Note" transform="matrix(0.992,0,0,0.992,2241.43,1204.6)" d="M0,4.2 C0,8.5 3.1,13.3 11.2,13.3 C21.6,13.3 32.5,4.8 32.5,-4 C32.5,-9.9 27.5,-13.2 21.3,-13.2 C11.6,-13.2 0,-5 0,4.2"/>
<path class="Note" transform="matrix(0.992,0,0,0.992,1103.71,1204.6)" d="M0,4.2 C0,8.5 3.1,13.3 11.2,13.3 C21.6,13.3 32.5,4.8 32.5,-4 C32.5,-9.9 27.5,-13.2 21.3,-13.2 C11.6,-13.2 0,-5 0,4.2"/>
<path class="Note" transform="matrix(0.992,0,0,0.992,1174.49,1204.6)" d="M0,4.2 C0,8.5 3.1,13.3 11.2,13.3 C21.6,13.3 32.5,4.8 32.5,-4 C32.5,-9.9 27.5,-13.2 21.3,-13.2 C11.6,-13.2 0,-5 0,4.2"/>
<path class="Note" transform="matrix(0.992,0,0,0.992,466.864,733.398)" d="M0,4.2 C0,8.5 3.1,13.3 11.2,13.3 C21.6,13.3 32.5,4.8 32.5,-4 C32.5,-9.9 27.5,-13.2 21.3,-13.2 C11.6,-13.2 0,-5 0,4.2"/>
<path class="Note" transform="matrix(0.992,0,0,0.992,1886.22,1192.2)" d="M0,4.2 C0,8.5 3.1,13.3 11.2,13.3 C21.6,13.3 32.5,4.8 32.5,-4 C32.5,-9.9 27.5,-13.2 21.3,-13.2 C11.6,-13.2 0,-5 0,4.2"/>
<path class="Clef" transform="matrix(0.992,0,0,0.992,232.438,708.598)" d="M12.3,51.3 C12.3,57.9 17.3,66.6 30.8,66.6 C35.5,66.6 39.6,65.4 43.2,63.2 C48.6,59.4 50,52.8 50,46.5 C50,42.6 49.4,38.1 48.4,32.4 C48.1,30.4 47.5,27.4 46.9,23.5 C56.7,20.3 64,10.1 64,-0.2 C64,-15.3 53.3,-25.5 38.7,-25.5 C37.7,-31.5 36.7,-37.4 35.9,-43 C46.4,-54.1 53.7,-66.6 53.7,-82.5 C53.7,-91.6 50.9,-99 49.3,-102.6 C46.9,-107.7 44,-111.2 42.2,-111.2 C41.5,-111.2 38.4,-110 35.1,-106.1 C28.7,-98.5 26.9,-85.7 26.9,-77.3 C26.9,-71.9 27.4,-67 29.1,-55.8 C29,-55.7 23.8,-50.4 21.7,-48.7 C12.6,-40.3 0,-28.1 0,-8.1 C0,10.6 16.3,25.3 34.9,25.3 C37.8,25.3 40.5,25 42.8,24.6 C44.7,34.2 45.9,41.2 45.9,46.5 C45.9,56.9 40.5,62.4 30.4,62.4 C28,62.4 25.9,61.9 25.7,61.9 C25.6,61.8 25.4,61.7 25.4,61.6 C25.4,61.4 25.6,61.3 25.9,61.3 C30.6,60.5 35.3,56.5 35.3,50.1 C35.3,44.7 31.2,39 23.7,39 C16.7,39 12.3,44.7 12.3,51.3 M33.2,-82.2 C34.1,-86.2 38.7,-96.7 43.9,-96.7 C45.4,-96.7 47.8,-91.9 47.8,-84.9 C47.8,-74.5 40.1,-66.7 33.2,-59.9 C32.6,-63.9 32.1,-67.8 32.1,-72 C32.1,-75.7 32.4,-79.1 33.2,-82.2 M42,20.6 C40,21 38.1,21.2 36.2,21.2 C21.9,21.2 9.7,11.2 9.7,-3.9 C9.7,-16.1 18.3,-27 27.1,-34.6 C28.8,-36.1 30.4,-37.5 31.9,-39 C32.8,-33.6 33.5,-28.9 34.2,-24.8 C25.1,-22.1 18.9,-12.5 18.9,-3.1 C18.9,3.9 24.4,13.5 32.4,13.5 C33.2,13.5 34.1,13.1 34.1,12.2 C34.1,11.3 33.1,10.8 31.9,10 C28,7.6 25.8,5 25.8,0.1 C25.8,-6 30.4,-10.9 36.2,-12.3 L42,20.6 M56.2,2.1 C56.2,9.2 53.3,16.5 46.2,19.4 C44.1,7.4 41.4,-8.5 40.7,-12.9 C49.7,-12.9 56.2,-6.8 56.2,2.1"/>
<path class="Clef" transform="matrix(0.992,0,0,0.992,232.438,1179.8)" d="M12.3,51.3 C12.3,57.9 17.3,66.6 30.8,66.6 C35.5,66.6 39.6,65.4 43.2,63.2 C48.6,59.4 50,52.8 50,46.5 C50,42.6 49.4,38.1 48.4,32.4 C48.1,30.4 47.5,27.4 46.9,23.5 C56.7,20.3 64,10.1 64,-0.2 C64,-15.3 53.3,-25.5 38.7,-25.5 C37.7,-31.5 36.7,-37.4 35.9,-43 C46.4,-54.1 53.7,-66.6 53.7,-82.5 C53.7,-91.6 50.9,-99 49.3,-102.6 C46.9,-107.7 44,-111.2 42.2,-111.2 C41.5,-111.2 38.4,-110 35.1,-106.1 C28.7,-98.5 26.9,-85.7 26.9,-77.3 C26.9,-71.9 27.4,-67 29.1,-55.8 C29,-55.7 23.8,-50.4 21.7,-48.7 C12.6,-40.3 0,-28.1 0,-8.1 C0,10.6 16.3,25.3 34.9,25.3 C37.8,25.3 40.5,25 42.8,24.6 C44.7,34.2 45.9,41.2 45.9,46.5 C45.9,56.9 40.5,62.4 30.4,62.4 C28,62.4 25.9,61.9 25.7,61.9 C25.6,61.8 25.4,61.7 25.4,61.6 C25.4,61.4 25.6,61.3 25.9,61.3 C30.6,60.5 35.3,56.5 35.3,50.1 C35.3,44.7 31.2,39 23.7,39 C16.7,39 12.3,44.7 12.3,51.3 M33.2,-82.2 C34.1,-86.2 38.7,-96.7 43.9,-96.7 C45.4,-96.7 47.8,-91.9 47.8,-84.9 C47.8,-74.5 40.1,-66.7 33.2,-59.9 C32.6,-63.9 32.1,-67.8 32.1,-72 C32.1,-75.7 32.4,-79.1 33.2,-82.2 M42,20.6 C40,21 38.1,21.2 36.2,21.2 C21.9,21.2 9.7,11.2 9.7,-3.9 C9.7,-16.1 18.3,-27 27.1,-34.6 C28.8,-36.1 30.4,-37.5 31.9,-39 C32.8,-33.6 33.5,-28.9 34.2,-24.8 C25.1,-22.1 18.9,-12.5 18.9,-3.1 C18.9,3.9 24.4,13.5 32.4,13.5 C33.2,13.5 34.1,13.1 34.1,12.2 C34.1,11.3 33.1,10.8 31.9,10 C28,7.6 25.8,5 25.8,0.1 C25.8,-6 30.4,-10.9 36.2,-12.3 L42,20.6 M56.2,2.1 C56.2,9.2 53.3,16.5 46.2,19.4 C44.1,7.4 41.4,-8.5 40.7,-12.9 C49.7,-12.9 56.2,-6.8 56.2,2.1"/>
<path class="TimeSig" transform="matrix(0.992,0,0,0.992,322.602,659.494)" d="M34.2,3.9 C33.4,6.1 31.4,13.3 26.5,13.3 C20,13.3 18.6,9.3 13.2,9.3 C12.4,9.3 11.6,9.4 10.6,9.6 C10.6,9.6 13.1,5.8 23.7,2.5 C34.3,-0.8 37,-6 37,-12 C37,-16.2 35.1,-24.5 20,-24.5 C4.9,-24.5 2.1,-15.4 2.1,-10.8 C2.1,-6.7 5.5,-3.4 9.6,-3.4 C13.7,-3.4 17,-6.7 17,-10.8 C17,-13.6 15,-16.7 12.4,-17.7 C12.1,-17.8 11.7,-18.3 11.7,-18.8 C11.7,-19.4 12.2,-20.1 14,-20.6 C14.5,-20.8 15.9,-21.1 17.4,-21.1 C23.1,-21.1 24.2,-17.6 24.2,-12.5 C24.2,-0.8 10.3,1.7 4.5,10.4 C4.5,10.4 1.5,14.6 1.5,19.3 C1.5,24 3.9,24.3 5.1,24.3 C6.7,24.3 8.4,23 8.4,21.2 C8.4,20.8 8.3,20.4 8.1,19.9 C7.5,18.5 7.3,17.4 7.3,16.6 C7.3,16.3 7.3,16 7.4,15.7 C7.5,15.1 8.3,14.1 10.7,14.1 C13.6,14.1 14.7,17.5 16.5,20.1 C18.3,22.7 21.1,24.3 24.3,24.3 C27.5,24.3 31.8,22 33.6,18.3 C35.4,14.6 37.7,7.1 37.7,4.4 C37.7,3.1 36.9,2.5 36,2.5 C35.3,2.5 34.6,2.9 34.2,3.9"/>
<path class="TimeSig" transform="matrix(0.992,0,0,0.992,319.331,708.598)" d="M20.8,12.7 L20.8,20.1 L12.5,20.1 C11.8,20.1 11.1,20.7 11.1,21.5 L11.1,23.4 C11.1,24.2 11.8,24.8 12.5,24.8 L42.8,24.8 C43.6,24.8 44.2,24.2 44.2,23.4 L44.2,21.5 C44.2,20.7 43.6,20.1 42.8,20.1 L33.9,20.1 L33.9,12.7 L42.8,12.7 C43.6,12.7 44.2,12 44.2,11.2 L44.2,9.3 C44.2,8.6 43.6,7.9 42.8,7.9 L33.9,7.9 L33.9,-8 C33.9,-8.6 33.6,-9.1 33.1,-9.3 L31.9,-9.9 C31.7,-10 31.4,-10.1 31.2,-10.1 C30.9,-10 30.5,-9.9 30.3,-9.7 L21.2,-1.4 C20.9,-1.1 20.8,-0.7 20.8,-0.3 L20.8,7.9 L9.3,7.9 C9.3,7.9 20.4,-4.1 32.2,-19.9 C32.6,-20.4 32.7,-20.9 32.7,-21.3 C32.7,-21.8 32.5,-22.2 32.4,-22.3 L30.2,-24.5 C30,-24.7 29.6,-24.9 29.2,-24.9 C28.6,-24.9 15.1,-24.9 14.4,-24.9 C13.6,-24.9 13.1,-24.3 13,-23.7 C13,-23.7 12.5,-16.3 9.9,-8.2 C7.3,-0.1 4.3,4.9 1.7,8.6 C1.7,8.6 1.4,9.1 1.4,9.7 C1.4,9.9 1.4,10.1 1.5,10.3 C1.9,11 2.5,12.1 2.5,12.1 C2.5,12.1 2.7,12.7 3.6,12.7 L20.8,12.7 "/>
<path class="Beam" fill-rule="evenodd" d="M1133.21,1124 L1206.72,1124 L1206.72,1136.4 L1133.21,1136.4 L1133.21,1124 "/>
<path class="Beam" fill-rule="evenodd" d="M2366.73,627.998 L2439.67,627.998 L2439.67,640.398 L2366.73,640.398 L2366.73,627.998 "/>
<path class="Beam" fill-rule="evenodd" d="M1915.72,1117.78 L1989.22,1123.98 L1989.22,1136.42 L1915.72,1130.22 L1915.72,1117.78 "/>
<path class="Beam" fill-rule="evenodd" d="M1731.57,652.798 L1804.52,652.798 L1804.52,665.198 L1731.57,665.198 L1731.57,652.798 "/>
<path class="Beam" fill-rule="evenodd" d="M707.225,1130.18 L780.731,1123.98 L780.731,1136.42 L707.225,1142.62 L707.225,1130.18 "/>
<path class="Beam" fill-rule="evenodd" d="M426.142,627.976 L499.089,634.176 L499.089,646.621 L426.142,640.421 L426.142,627.976 "/>
<path class="Beam" fill-rule="evenodd" d="M1908.71,646.576 L1981.66,652.776 L1981.66,665.221 L1908.71,659.021 L1908.71,646.576 "/>
<path class="Beam" fill-rule="evenodd" d="M528.964,1130.2 L602.47,1130.2 L602.47,1142.6 L528.964,1142.6 L528.964,1130.2 "/>
<path class="Beam" fill-rule="evenodd" d="M1131.52,652.776 L1204.47,646.576 L1204.47,659.021 L1131.52,665.221 L1131.52,652.776 "/>
<path class="Beam" fill-rule="evenodd" d="M1311.47,1123.98 L1384.98,1117.78 L1384.98,1130.22 L1311.47,1136.42 L1311.47,1123.98 "/>
<path class="Beam" fill-rule="evenodd" d="M387.407,1130.2 L460.914,1130.2 L460.914,1142.6 L387.407,1142.6 L387.407,1130.2 "/>
<path class="Beam" fill-rule="evenodd" d="M1595.9,1099.18 L1669.41,1105.38 L1669.41,1117.82 L1595.9,1111.62 L1595.9,1099.18 "/>
<path class="Beam" fill-rule="evenodd" d="M708.612,646.576 L781.559,652.776 L781.559,665.221 L708.612,659.021 L708.612,646.576 "/>
<path class="Beam" fill-rule="evenodd" d="M1591.13,627.976 L1664.08,634.176 L1664.08,646.621 L1591.13,640.421 L1591.13,627.976 "/>
<path class="Beam" fill-rule="evenodd" d="M1308.66,627.998 L1381.61,627.998 L1381.61,640.398 L1308.66,640.398 L1308.66,627.998 "/>
<path class="Beam" fill-rule="evenodd" d="M2049.15,658.998 L2122.09,658.998 L2122.09,671.398 L2049.15,671.398 L2049.15,658.998 "/>
<path class="Beam" fill-rule="evenodd" d="M2519.96,1124 L2593.47,1124 L2593.47,1136.4 L2519.96,1136.4 L2519.96,1124 "/>
<path class="Beam" fill-rule="evenodd" d="M1737.46,1124 L1810.96,1124 L1810.96,1136.4 L1737.46,1136.4 L1737.46,1124 "/>
<path class="Beam" fill-rule="evenodd" d="M2200.14,1130.18 L2273.65,1123.98 L2273.65,1136.42 L2200.14,1142.62 L2200.14,1130.18 "/>
<path class="Beam" fill-rule="evenodd" d="M991.082,677.576 L1064.03,671.376 L1064.03,683.821 L991.082,690.021 L991.082,677.576 "/>
<path class="Beam" fill-rule="evenodd" d="M2226.29,658.976 L2299.24,652.776 L2299.24,665.221 L2226.29,671.421 L2226.29,658.976 "/>
<path class="Beam" fill-rule="evenodd" d="M991.653,1124 L1065.16,1124 L1065.16,1136.4 L991.653,1136.4 L991.653,1124 "/>
<path class="Beam" fill-rule="evenodd" d="M2543.87,652.798 L2616.82,652.798 L2616.82,665.198 L2543.87,665.198 L2543.87,652.798 "/>
<path class="Beam" fill-rule="evenodd" d="M2341.7,1099.2 L2415.21,1099.2 L2415.21,1111.6 L2341.7,1111.6 L2341.7,1099.2 "/>
<path class="Harmony" d="M2369.91,532.103 L2367.82,532.103 L2365.62,535.348 C2361.6,532.433 2359.57,531.663 2355.77,531.663 C2350.55,531.663 2346.09,533.863 2342.41,538.263 C2338.89,542.443 2337.24,547.063 2337.24,552.728 C2337.24,564.608 2344.99,573.023 2355.83,573.023 C2364.63,573.023 2370.24,567.853 2371.5,558.613 L2368.92,558.173 C2367.43,566.368 2363.25,570.438 2356.49,570.438 C2348.35,570.438 2344.5,564.828 2344.5,552.948 C2344.5,546.678 2345.32,542.553 2347.19,539.253 C2348.9,536.173 2352.25,534.248 2355.83,534.248 C2359.68,534.248 2363.09,536.283 2365.18,539.803 C2366.22,541.618 2366.99,543.653 2368.31,547.998 L2370.73,547.998 L2369.91,532.103 "/>
<path class="Harmony" d="M2664.7,1003.3 L2662.61,1003.3 L2660.41,1006.55 C2656.39,1003.63 2654.36,1002.86 2650.56,1002.86 C2645.34,1002.86 2640.88,1005.06 2637.2,1009.46 C2633.68,1013.64 2632.03,1018.26 2632.03,1023.93 C2632.03,1035.81 2639.78,1044.22 2650.62,1044.22 C2659.42,1044.22 2665.03,1039.05 2666.29,1029.81 L2663.71,1029.37 C2662.22,1037.57 2658.04,1041.64 2651.28,1041.64 C2643.14,1041.64 2639.29,1036.03 2639.29,1024.15 C2639.29,1017.88 2640.11,1013.75 2641.98,1010.45 C2643.69,1007.37 2647.04,1005.45 2650.62,1005.45 C2654.47,1005.45 2657.88,1007.48 2659.97,1011 C2661.01,1012.82 2661.78,1014.85 2663.1,1019.2 L2665.52,1019.2 L2664.7,1003.3 "/>
<path class="Harmony" d="M853.006,532.103 L850.916,532.103 L848.771,535.403 C845.196,532.598 842.776,531.663 838.761,531.663 C834.416,531.663 831.006,532.873 827.541,535.678 C822.096,540.078 819.566,545.633 819.566,553.058 C819.566,558.668 821.161,563.343 824.406,566.918 C827.816,570.768 832.876,573.023 838.156,573.023 C842.776,573.023 846.021,571.593 849.596,568.018 L851.631,572.968 L853.941,572.968 L853.941,560.868 C853.941,558.063 853.941,557.953 854.271,557.458 C854.766,556.853 855.756,556.688 858.891,556.688 L859.716,556.688 L859.716,554.103 L842.226,554.103 L842.226,556.688 L843.271,556.688 C847.891,556.688 848.276,556.963 848.276,560.043 C848.276,562.408 847.891,564.553 847.176,565.873 C845.801,568.568 842.281,570.438 838.706,570.438 C835.131,570.438 831.611,568.623 829.741,565.873 C827.706,562.793 826.826,558.943 826.826,553.058 C826.826,540.793 830.896,534.248 838.541,534.248 C844.811,534.248 849.156,538.758 851.411,547.558 L853.776,547.558 L853.006,532.103 "/>
<path class="Harmony" d="M865.735,546.788 L868.155,547.173 L869.145,542.828 C869.97,539.198 870.355,538.648 871.95,538.648 C872.225,538.648 872.665,538.648 873.16,538.703 C879.925,539.033 879.925,539.033 882.455,539.033 C883.17,539.033 884.435,539.033 885.975,538.978 L882.235,546.513 C878.165,554.598 877.67,555.588 876.295,558.998 C874.59,563.123 873.71,566.588 873.71,568.898 C873.71,571.428 875.03,572.968 877.175,572.968 C879.815,572.968 880.86,571.208 880.805,566.423 C880.53,558.503 881.52,554.653 887.405,541.783 C888.395,539.638 889.44,537.438 890.43,535.293 L890.43,533.698 C887.13,533.973 885.37,534.083 881.96,534.083 C877.175,534.083 873.38,533.918 867.44,533.478 L865.735,546.788 "/>
<path class="Harmony" d="M1740.64,1003.3 L1738.55,1003.3 L1736.35,1006.55 C1732.33,1003.63 1730.3,1002.86 1726.5,1002.86 C1721.28,1002.86 1716.82,1005.06 1713.14,1009.46 C1709.62,1013.64 1707.97,1018.26 1707.97,1023.93 C1707.97,1035.81 1715.72,1044.22 1726.56,1044.22 C1735.36,1044.22 1740.97,1039.05 1742.23,1029.81 L1739.65,1029.37 C1738.16,1037.57 1733.98,1041.64 1727.22,1041.64 C1719.08,1041.64 1715.23,1036.03 1715.23,1024.15 C1715.23,1017.88 1716.05,1013.75 1717.92,1010.45 C1719.63,1007.37 1722.98,1005.45 1726.56,1005.45 C1730.41,1005.45 1733.82,1007.48 1735.91,1011 C1736.95,1012.82 1737.72,1014.85 1739.04,1019.2 L1741.46,1019.2 L1740.64,1003.3 "/>
<path class="Harmony" d="M712.568,532.103 L710.478,532.103 L708.333,535.403 C704.758,532.598 702.338,531.663 698.323,531.663 C693.978,531.663 690.568,532.873 687.103,535.678 C681.658,540.078 679.128,545.633 679.128,553.058 C679.128,558.668 680.723,563.343 683.968,566.918 C687.378,570.768 692.438,573.023 697.718,573.023 C702.338,573.023 705.583,571.593 709.158,568.018 L711.193,572.968 L713.503,572.968 L713.503,560.868 C713.503,558.063 713.503,557.953 713.833,557.458 C714.328,556.853 715.318,556.688 718.453,556.688 L719.278,556.688 L719.278,554.103 L701.788,554.103 L701.788,556.688 L702.833,556.688 C707.453,556.688 707.838,556.963 707.838,560.043 C707.838,562.408 707.453,564.553 706.738,565.873 C705.363,568.568 701.843,570.438 698.268,570.438 C694.693,570.438 691.173,568.623 689.303,565.873 C687.268,562.793 686.388,558.943 686.388,553.058 C686.388,540.793 690.458,534.248 698.103,534.248 C704.373,534.248 708.718,538.758 710.973,547.558 L713.338,547.558 L712.568,532.103 "/>
<path class="Harmony" d="M725.298,546.788 L727.718,547.173 L728.708,542.828 C729.533,539.198 729.918,538.648 731.513,538.648 C731.788,538.648 732.228,538.648 732.723,538.703 C739.488,539.033 739.488,539.033 742.018,539.033 C742.733,539.033 743.998,539.033 745.538,538.978 L741.798,546.513 C737.728,554.598 737.233,555.588 735.858,558.998 C734.153,563.123 733.273,566.588 733.273,568.898 C733.273,571.428 734.593,572.968 736.738,572.968 C739.378,572.968 740.423,571.208 740.368,566.423 C740.093,558.503 741.083,554.653 746.968,541.783 C747.958,539.638 749.003,537.438 749.993,535.293 L749.993,533.698 C746.693,533.973 744.933,534.083 741.523,534.083 C736.738,534.083 732.943,533.918 727.003,533.478 L725.298,546.788 "/>
<path class="Harmony" d="M994.261,532.103 L992.171,532.103 L989.971,535.348 C985.956,532.433 983.921,531.663 980.126,531.663 C974.901,531.663 970.446,533.863 966.761,538.263 C963.241,542.443 961.591,547.063 961.591,552.728 C961.591,564.608 969.346,573.023 980.181,573.023 C988.981,573.023 994.591,567.853 995.856,558.613 L993.271,558.173 C991.786,566.368 987.606,570.438 980.841,570.438 C972.701,570.438 968.851,564.828 968.851,552.948 C968.851,546.678 969.676,542.553 971.546,539.253 C973.251,536.173 976.606,534.248 980.181,534.248 C984.031,534.248 987.441,536.283 989.531,539.803 C990.576,541.618 991.346,543.653 992.666,547.998 L995.086,547.998 L994.261,532.103 "/>
<path class="Harmony" d="M2061.23,1003.3 L2059.14,1003.3 L2056.99,1006.6 C2053.42,1003.8 2051,1002.86 2046.98,1002.86 C2042.64,1002.86 2039.23,1004.07 2035.76,1006.88 C2030.32,1011.28 2027.79,1016.83 2027.79,1024.26 C2027.79,1029.87 2029.38,1034.54 2032.63,1038.12 C2036.04,1041.97 2041.1,1044.22 2046.38,1044.22 C2051,1044.22 2054.24,1042.79 2057.82,1039.22 L2059.85,1044.17 L2062.16,1044.17 L2062.16,1032.07 C2062.16,1029.26 2062.16,1029.15 2062.49,1028.66 C2062.99,1028.05 2063.98,1027.89 2067.11,1027.89 L2067.94,1027.89 L2067.94,1025.3 L2050.45,1025.3 L2050.45,1027.89 L2051.49,1027.89 C2056.11,1027.89 2056.5,1028.16 2056.5,1031.24 C2056.5,1033.61 2056.11,1035.75 2055.4,1037.07 C2054.02,1039.77 2050.5,1041.64 2046.93,1041.64 C2043.35,1041.64 2039.83,1039.82 2037.96,1037.07 C2035.93,1033.99 2035.05,1030.14 2035.05,1024.26 C2035.05,1011.99 2039.12,1005.45 2046.76,1005.45 C2053.03,1005.45 2057.38,1009.96 2059.63,1018.76 L2062,1018.76 L2061.23,1003.3 "/>
<path class="Harmony" d="M2073.96,1017.99 L2076.38,1018.37 L2077.37,1014.03 C2078.19,1010.4 2078.58,1009.85 2080.17,1009.85 C2080.45,1009.85 2080.89,1009.85 2081.38,1009.9 C2088.15,1010.23 2088.15,1010.23 2090.68,1010.23 C2091.39,1010.23 2092.66,1010.23 2094.2,1010.18 L2090.46,1017.71 C2086.39,1025.8 2085.89,1026.79 2084.52,1030.2 C2082.81,1034.32 2081.93,1037.79 2081.93,1040.1 C2081.93,1042.63 2083.25,1044.17 2085.4,1044.17 C2088.04,1044.17 2089.08,1042.41 2089.03,1037.62 C2088.75,1029.7 2089.74,1025.85 2095.63,1012.98 C2096.62,1010.84 2097.66,1008.64 2098.65,1006.49 L2098.65,1004.9 C2095.35,1005.17 2093.59,1005.28 2090.18,1005.28 C2085.4,1005.28 2081.6,1005.12 2075.66,1004.68 L2073.96,1017.99 "/>
<path class="Harmony" d="M1599.08,1003.3 L1596.99,1003.3 L1594.79,1006.55 C1590.77,1003.63 1588.74,1002.86 1584.94,1002.86 C1579.72,1002.86 1575.26,1005.06 1571.58,1009.46 C1568.06,1013.64 1566.41,1018.26 1566.41,1023.93 C1566.41,1035.81 1574.16,1044.22 1585,1044.22 C1593.8,1044.22 1599.41,1039.05 1600.67,1029.81 L1598.09,1029.37 C1596.6,1037.57 1592.42,1041.64 1585.66,1041.64 C1577.52,1041.64 1573.67,1036.03 1573.67,1024.15 C1573.67,1017.88 1574.49,1013.75 1576.36,1010.45 C1578.07,1007.37 1581.42,1005.45 1585,1005.45 C1588.85,1005.45 1592.26,1007.48 1594.35,1011 C1595.39,1012.82 1596.16,1014.85 1597.48,1019.2 L1599.9,1019.2 L1599.08,1003.3 "/>
<path class="Harmony" d="M1134.7,532.103 L1132.61,532.103 L1130.41,535.348 C1126.39,532.433 1124.36,531.663 1120.56,531.663 C1115.34,531.663 1110.88,533.863 1107.2,538.263 C1103.68,542.443 1102.03,547.063 1102.03,552.728 C1102.03,564.608 1109.78,573.023 1120.62,573.023 C1129.42,573.023 1135.03,567.853 1136.29,558.613 L1133.71,558.173 C1132.22,566.368 1128.04,570.438 1121.28,570.438 C1113.14,570.438 1109.29,564.828 1109.29,552.948 C1109.29,546.678 1110.11,542.553 1111.98,539.253 C1113.69,536.173 1117.04,534.248 1120.62,534.248 C1124.47,534.248 1127.88,536.283 1129.97,539.803 C1131.01,541.618 1131.78,543.653 1133.1,547.998 L1135.52,547.998 L1134.7,532.103 "/>
<path class="Harmony" d="M569.759,532.103 L567.669,532.103 L565.469,535.348 C561.454,532.433 559.419,531.663 555.624,531.663 C550.399,531.663 545.944,533.863 542.259,538.263 C538.739,542.443 537.089,547.063 537.089,552.728 C537.089,564.608 544.844,573.023 555.679,573.023 C564.479,573.023 570.089,567.853 571.354,558.613 L568.769,558.173 C567.284,566.368 563.104,570.438 556.339,570.438 C548.199,570.438 544.349,564.828 544.349,552.948 C544.349,546.678 545.174,542.553 547.044,539.253 C548.749,536.173 552.104,534.248 555.679,534.248 C559.529,534.248 562.939,536.283 565.029,539.803 C566.074,541.618 566.844,543.653 568.164,547.998 L570.584,547.998 L569.759,532.103 "/>
<path class="Harmony" d="M1456.21,1003.3 L1454.12,1003.3 L1451.92,1006.55 C1447.9,1003.63 1445.87,1002.86 1442.07,1002.86 C1436.85,1002.86 1432.39,1005.06 1428.71,1009.46 C1425.19,1013.64 1423.54,1018.26 1423.54,1023.93 C1423.54,1035.81 1431.29,1044.22 1442.13,1044.22 C1450.93,1044.22 1456.54,1039.05 1457.8,1029.81 L1455.22,1029.37 C1453.73,1037.57 1449.55,1041.64 1442.79,1041.64 C1434.65,1041.64 1430.8,1036.03 1430.8,1024.15 C1430.8,1017.88 1431.62,1013.75 1433.49,1010.45 C1435.2,1007.37 1438.55,1005.45 1442.13,1005.45 C1445.98,1005.45 1449.39,1007.48 1451.48,1011 C1452.52,1012.82 1453.29,1014.85 1454.61,1019.2 L1457.03,1019.2 L1456.21,1003.3 "/>
<path class="Harmony" d="M1314.65,1003.3 L1312.56,1003.3 L1310.36,1006.55 C1306.35,1003.63 1304.31,1002.86 1300.52,1002.86 C1295.29,1002.86 1290.84,1005.06 1287.15,1009.46 C1283.63,1013.64 1281.98,1018.26 1281.98,1023.93 C1281.98,1035.81 1289.74,1044.22 1300.57,1044.22 C1309.37,1044.22 1314.98,1039.05 1316.25,1029.81 L1313.66,1029.37 C1312.18,1037.57 1308,1041.64 1301.23,1041.64 C1293.09,1041.64 1289.24,1036.03 1289.24,1024.15 C1289.24,1017.88 1290.07,1013.75 1291.94,1010.45 C1293.64,1007.37 1297,1005.45 1300.57,1005.45 C1304.42,1005.45 1307.83,1007.48 1309.92,1011 C1310.97,1012.82 1311.74,1014.85 1313.06,1019.2 L1315.48,1019.2 L1314.65,1003.3 "/>
<path class="Harmony" d="M1311.84,532.103 L1309.75,532.103 L1307.55,535.348 C1303.54,532.433 1301.5,531.663 1297.71,531.663 C1292.48,531.663 1288.03,533.863 1284.34,538.263 C1280.82,542.443 1279.17,547.063 1279.17,552.728 C1279.17,564.608 1286.93,573.023 1297.76,573.023 C1306.56,573.023 1312.17,567.853 1313.44,558.613 L1310.85,558.173 C1309.37,566.368 1305.19,570.438 1298.42,570.438 C1290.28,570.438 1286.43,564.828 1286.43,552.948 C1286.43,546.678 1287.26,542.553 1289.13,539.253 C1290.83,536.173 1294.19,534.248 1297.76,534.248 C1301.61,534.248 1305.02,536.283 1307.11,539.803 C1308.16,541.618 1308.93,543.653 1310.25,547.998 L1312.67,547.998 L1311.84,532.103 "/>
<path class="Harmony" d="M2203.32,1003.3 L2201.23,1003.3 L2199.03,1006.55 C2195.02,1003.63 2192.98,1002.86 2189.19,1002.86 C2183.96,1002.86 2179.51,1005.06 2175.82,1009.46 C2172.3,1013.64 2170.65,1018.26 2170.65,1023.93 C2170.65,1035.81 2178.41,1044.22 2189.24,1044.22 C2198.04,1044.22 2203.65,1039.05 2204.92,1029.81 L2202.33,1029.37 C2200.85,1037.57 2196.67,1041.64 2189.9,1041.64 C2181.76,1041.64 2177.91,1036.03 2177.91,1024.15 C2177.91,1017.88 2178.74,1013.75 2180.61,1010.45 C2182.31,1007.37 2185.67,1005.45 2189.24,1005.45 C2193.09,1005.45 2196.5,1007.48 2198.59,1011 C2199.64,1012.82 2200.41,1014.85 2201.73,1019.2 L2204.15,1019.2 L2203.32,1003.3 "/>
<path class="Harmony" d="M1136.39,1003.3 L1134.3,1003.3 L1132.1,1006.55 C1128.08,1003.63 1126.05,1002.86 1122.25,1002.86 C1117.03,1002.86 1112.57,1005.06 1108.89,1009.46 C1105.37,1013.64 1103.72,1018.26 1103.72,1023.93 C1103.72,1035.81 1111.47,1044.22 1122.31,1044.22 C1131.11,1044.22 1136.72,1039.05 1137.98,1029.81 L1135.4,1029.37 C1133.91,1037.57 1129.73,1041.64 1122.97,1041.64 C1114.83,1041.64 1110.98,1036.03 1110.98,1024.15 C1110.98,1017.88 1111.8,1013.75 1113.67,1010.45 C1115.38,1007.37 1118.73,1005.45 1122.31,1005.45 C1126.16,1005.45 1129.57,1007.48 1131.66,1011 C1132.7,1012.82 1133.47,1014.85 1134.79,1019.2 L1137.21,1019.2 L1136.39,1003.3 "/>
<path class="Harmony" d="M1452.28,532.103 L1450.19,532.103 L1447.99,535.348 C1443.97,532.433 1441.94,531.663 1438.14,531.663 C1432.92,531.663 1428.46,533.863 1424.78,538.263 C1421.26,542.443 1419.61,547.063 1419.61,552.728 C1419.61,564.608 1427.36,573.023 1438.2,573.023 C1447,573.023 1452.61,567.853 1453.87,558.613 L1451.29,558.173 C1449.8,566.368 1445.62,570.438 1438.86,570.438 C1430.72,570.438 1426.87,564.828 1426.87,552.948 C1426.87,546.678 1427.69,542.553 1429.56,539.253 C1431.27,536.173 1434.62,534.248 1438.2,534.248 C1442.05,534.248 1445.46,536.283 1447.55,539.803 C1448.59,541.618 1449.36,543.653 1450.68,547.998 L1453.1,547.998 L1452.28,532.103 "/>
<path class="Harmony" d="M429.322,532.103 L427.232,532.103 L425.032,535.348 C421.017,532.433 418.982,531.663 415.187,531.663 C409.962,531.663 405.507,533.863 401.822,538.263 C398.302,542.443 396.652,547.063 396.652,552.728 C396.652,564.608 404.407,573.023 415.242,573.023 C424.042,573.023 429.652,567.853 430.917,558.613 L428.332,558.173 C426.847,566.368 422.667,570.438 415.902,570.438 C407.762,570.438 403.912,564.828 403.912,552.948 C403.912,546.678 404.737,542.553 406.607,539.253 C408.312,536.173 411.667,534.248 415.242,534.248 C419.092,534.248 422.502,536.283 424.592,539.803 C425.637,541.618 426.407,543.653 427.727,547.998 L430.147,547.998 L429.322,532.103 "/>
<path class="Harmony" d="M994.833,1003.3 L992.743,1003.3 L990.543,1006.55 C986.528,1003.63 984.493,1002.86 980.698,1002.86 C975.473,1002.86 971.018,1005.06 967.333,1009.46 C963.813,1013.64 962.163,1018.26 962.163,1023.93 C962.163,1035.81 969.918,1044.22 980.753,1044.22 C989.553,1044.22 995.163,1039.05 996.428,1029.81 L993.843,1029.37 C992.358,1037.57 988.178,1041.64 981.413,1041.64 C973.273,1041.64 969.423,1036.03 969.423,1024.15 C969.423,1017.88 970.248,1013.75 972.118,1010.45 C973.823,1007.37 977.178,1005.45 980.753,1005.45 C984.603,1005.45 988.013,1007.48 990.103,1011 C991.148,1012.82 991.918,1014.85 993.238,1019.2 L995.658,1019.2 L994.833,1003.3 "/>
<path class="Harmony" d="M1594.31,532.103 L1592.22,532.103 L1590.02,535.348 C1586.01,532.433 1583.97,531.663 1580.18,531.663 C1574.95,531.663 1570.5,533.863 1566.81,538.263 C1563.29,542.443 1561.64,547.063 1561.64,552.728 C1561.64,564.608 1569.4,573.023 1580.23,573.023 C1589.03,573.023 1594.64,567.853 1595.91,558.613 L1593.32,558.173 C1591.84,566.368 1587.66,570.438 1580.89,570.438 C1572.75,570.438 1568.9,564.828 1568.9,552.948 C1568.9,546.678 1569.73,542.553 1571.6,539.253 C1573.3,536.173 1576.66,534.248 1580.23,534.248 C1584.08,534.248 1587.49,536.283 1589.58,539.803 C1590.63,541.618 1591.4,543.653 1592.72,547.998 L1595.14,547.998 L1594.31,532.103 "/>
<path class="Harmony" d="M2344.88,1003.3 L2342.79,1003.3 L2340.59,1006.55 C2336.58,1003.63 2334.54,1002.86 2330.75,1002.86 C2325.52,1002.86 2321.07,1005.06 2317.38,1009.46 C2313.86,1013.64 2312.21,1018.26 2312.21,1023.93 C2312.21,1035.81 2319.97,1044.22 2330.8,1044.22 C2339.6,1044.22 2345.21,1039.05 2346.48,1029.81 L2343.89,1029.37 C2342.41,1037.57 2338.23,1041.64 2331.46,1041.64 C2323.32,1041.64 2319.47,1036.03 2319.47,1024.15 C2319.47,1017.88 2320.3,1013.75 2322.17,1010.45 C2323.87,1007.37 2327.23,1005.45 2330.8,1005.45 C2334.65,1005.45 2338.06,1007.48 2340.15,1011 C2341.2,1012.82 2341.97,1014.85 2343.29,1019.2 L2345.71,1019.2 L2344.88,1003.3 "/>
<path class="Harmony" d="M852.738,1003.3 L850.648,1003.3 L848.503,1006.6 C844.928,1003.8 842.508,1002.86 838.493,1002.86 C834.148,1002.86 830.738,1004.07 827.273,1006.88 C821.828,1011.28 819.298,1016.83 819.298,1024.26 C819.298,1029.87 820.893,1034.54 824.138,1038.12 C827.548,1041.97 832.608,1044.22 837.888,1044.22 C842.508,1044.22 845.753,1042.79 849.328,1039.22 L851.363,1044.17 L853.673,1044.17 L853.673,1032.07 C853.673,1029.26 853.673,1029.15 854.003,1028.66 C854.498,1028.05 855.488,1027.89 858.623,1027.89 L859.448,1027.89 L859.448,1025.3 L841.958,1025.3 L841.958,1027.89 L843.003,1027.89 C847.623,1027.89 848.008,1028.16 848.008,1031.24 C848.008,1033.61 847.623,1035.75 846.908,1037.07 C845.533,1039.77 842.013,1041.64 838.438,1041.64 C834.863,1041.64 831.343,1039.82 829.473,1037.07 C827.438,1033.99 826.558,1030.14 826.558,1024.26 C826.558,1011.99 830.628,1005.45 838.273,1005.45 C844.543,1005.45 848.888,1009.96 851.143,1018.76 L853.508,1018.76 L852.738,1003.3 "/>
<path class="Harmony" d="M865.468,1017.99 L867.888,1018.37 L868.878,1014.03 C869.703,1010.4 870.088,1009.85 871.683,1009.85 C871.958,1009.85 872.398,1009.85 872.893,1009.9 C879.658,1010.23 879.658,1010.23 882.188,1010.23 C882.903,1010.23 884.168,1010.23 885.708,1010.18 L881.968,1017.71 C877.898,1025.8 877.403,1026.79 876.028,1030.2 C874.323,1034.32 873.443,1037.79 873.443,1040.1 C873.443,1042.63 874.763,1044.17 876.908,1044.17 C879.548,1044.17 880.593,1042.41 880.538,1037.62 C880.263,1029.7 881.253,1025.85 887.138,1012.98 C888.128,1010.84 889.173,1008.64 890.163,1006.49 L890.163,1004.9 C886.863,1005.17 885.103,1005.28 881.693,1005.28 C876.908,1005.28 873.113,1005.12 867.173,1004.68 L865.468,1017.99 "/>
<path class="Harmony" d="M711.181,1003.3 L709.091,1003.3 L706.946,1006.6 C703.371,1003.8 700.951,1002.86 696.936,1002.86 C692.591,1002.86 689.181,1004.07 685.716,1006.88 C680.271,1011.28 677.741,1016.83 677.741,1024.26 C677.741,1029.87 679.336,1034.54 682.581,1038.12 C685.991,1041.97 691.051,1044.22 696.331,1044.22 C700.951,1044.22 704.196,1042.79 707.771,1039.22 L709.806,1044.17 L712.116,1044.17 L712.116,1032.07 C712.116,1029.26 712.116,1029.15 712.446,1028.66 C712.941,1028.05 713.931,1027.89 717.066,1027.89 L717.891,1027.89 L717.891,1025.3 L700.401,1025.3 L700.401,1027.89 L701.446,1027.89 C706.066,1027.89 706.451,1028.16 706.451,1031.24 C706.451,1033.61 706.066,1035.75 705.351,1037.07 C703.976,1039.77 700.456,1041.64 696.881,1041.64 C693.306,1041.64 689.786,1039.82 687.916,1037.07 C685.881,1033.99 685.001,1030.14 685.001,1024.26 C685.001,1011.99 689.071,1005.45 696.716,1005.45 C702.986,1005.45 707.331,1009.96 709.586,1018.76 L711.951,1018.76 L711.181,1003.3 "/>
<path class="Harmony" d="M723.911,1017.99 L726.331,1018.37 L727.321,1014.03 C728.146,1010.4 728.531,1009.85 730.126,1009.85 C730.401,1009.85 730.841,1009.85 731.336,1009.9 C738.101,1010.23 738.101,1010.23 740.631,1010.23 C741.346,1010.23 742.611,1010.23 744.151,1010.18 L740.411,1017.71 C736.341,1025.8 735.846,1026.79 734.471,1030.2 C732.766,1034.32 731.886,1037.79 731.886,1040.1 C731.886,1042.63 733.206,1044.17 735.351,1044.17 C737.991,1044.17 739.036,1042.41 738.981,1037.62 C738.706,1029.7 739.696,1025.85 745.581,1012.98 C746.571,1010.84 747.616,1008.64 748.606,1006.49 L748.606,1004.9 C745.306,1005.17 743.546,1005.28 740.136,1005.28 C735.351,1005.28 731.556,1005.12 725.616,1004.68 L723.911,1017.99 "/>
<path class="Harmony" d="M1734.75,532.103 L1732.66,532.103 L1730.46,535.348 C1726.44,532.433 1724.41,531.663 1720.61,531.663 C1715.39,531.663 1710.93,533.863 1707.25,538.263 C1703.73,542.443 1702.08,547.063 1702.08,552.728 C1702.08,564.608 1709.83,573.023 1720.67,573.023 C1729.47,573.023 1735.08,567.853 1736.34,558.613 L1733.76,558.173 C1732.27,566.368 1728.09,570.438 1721.33,570.438 C1713.19,570.438 1709.34,564.828 1709.34,552.948 C1709.34,546.678 1710.16,542.553 1712.03,539.253 C1713.74,536.173 1717.09,534.248 1720.67,534.248 C1724.52,534.248 1727.93,536.283 1730.02,539.803 C1731.06,541.618 1731.83,543.653 1733.15,547.998 L1735.57,547.998 L1734.75,532.103 "/>
<path class="Harmony" d="M532.921,1003.3 L530.831,1003.3 L528.686,1006.6 C525.111,1003.8 522.691,1002.86 518.676,1002.86 C514.331,1002.86 510.921,1004.07 507.456,1006.88 C502.011,1011.28 499.481,1016.83 499.481,1024.26 C499.481,1029.87 501.076,1034.54 504.321,1038.12 C507.731,1041.97 512.791,1044.22 518.071,1044.22 C522.691,1044.22 525.936,1042.79 529.511,1039.22 L531.546,1044.17 L533.856,1044.17 L533.856,1032.07 C533.856,1029.26 533.856,1029.15 534.186,1028.66 C534.681,1028.05 535.671,1027.89 538.806,1027.89 L539.631,1027.89 L539.631,1025.3 L522.141,1025.3 L522.141,1027.89 L523.186,1027.89 C527.806,1027.89 528.191,1028.16 528.191,1031.24 C528.191,1033.61 527.806,1035.75 527.091,1037.07 C525.716,1039.77 522.196,1041.64 518.621,1041.64 C515.046,1041.64 511.526,1039.82 509.656,1037.07 C507.621,1033.99 506.741,1030.14 506.741,1024.26 C506.741,1011.99 510.811,1005.45 518.456,1005.45 C524.726,1005.45 529.071,1009.96 531.326,1018.76 L533.691,1018.76 L532.921,1003.3 "/>
<path class="Harmony" d="M545.65,1017.99 L548.07,1018.37 L549.06,1014.03 C549.885,1010.4 550.27,1009.85 551.865,1009.85 C552.14,1009.85 552.58,1009.85 553.075,1009.9 C559.84,1010.23 559.84,1010.23 562.37,1010.23 C563.085,1010.23 564.35,1010.23 565.89,1010.18 L562.15,1017.71 C558.08,1025.8 557.585,1026.79 556.21,1030.2 C554.505,1034.32 553.625,1037.79 553.625,1040.1 C553.625,1042.63 554.945,1044.17 557.09,1044.17 C559.73,1044.17 560.775,1042.41 560.72,1037.62 C560.445,1029.7 561.435,1025.85 567.32,1012.98 C568.31,1010.84 569.355,1008.64 570.345,1006.49 L570.345,1004.9 C567.045,1005.17 565.285,1005.28 561.875,1005.28 C557.09,1005.28 553.295,1005.12 547.355,1004.68 L545.65,1017.99 "/>
<path class="Harmony" d="M1912.67,532.103 L1910.58,532.103 L1908.43,535.403 C1904.86,532.598 1902.44,531.663 1898.42,531.663 C1894.08,531.663 1890.67,532.873 1887.2,535.678 C1881.76,540.078 1879.23,545.633 1879.23,553.058 C1879.23,558.668 1880.82,563.343 1884.07,566.918 C1887.48,570.768 1892.54,573.023 1897.82,573.023 C1902.44,573.023 1905.68,571.593 1909.26,568.018 L1911.29,572.968 L1913.6,572.968 L1913.6,560.868 C1913.6,558.063 1913.6,557.953 1913.93,557.458 C1914.43,556.853 1915.42,556.688 1918.55,556.688 L1919.38,556.688 L1919.38,554.103 L1901.89,554.103 L1901.89,556.688 L1902.93,556.688 C1907.55,556.688 1907.94,556.963 1907.94,560.043 C1907.94,562.408 1907.55,564.553 1906.84,565.873 C1905.46,568.568 1901.94,570.438 1898.37,570.438 C1894.79,570.438 1891.27,568.623 1889.4,565.873 C1887.37,562.793 1886.49,558.943 1886.49,553.058 C1886.49,540.793 1890.56,534.248 1898.2,534.248 C1904.47,534.248 1908.82,538.758 1911.07,547.558 L1913.44,547.558 L1912.67,532.103 "/>
<path class="Harmony" d="M1925.4,546.788 L1927.82,547.173 L1928.81,542.828 C1929.63,539.198 1930.02,538.648 1931.61,538.648 C1931.89,538.648 1932.33,538.648 1932.82,538.703 C1939.59,539.033 1939.59,539.033 1942.12,539.033 C1942.83,539.033 1944.1,539.033 1945.64,538.978 L1941.9,546.513 C1937.83,554.598 1937.33,555.588 1935.96,558.998 C1934.25,563.123 1933.37,566.588 1933.37,568.898 C1933.37,571.428 1934.69,572.968 1936.84,572.968 C1939.48,572.968 1940.52,571.208 1940.47,566.423 C1940.19,558.503 1941.18,554.653 1947.07,541.783 C1948.06,539.638 1949.1,537.438 1950.09,535.293 L1950.09,533.698 C1946.79,533.973 1945.03,534.083 1941.62,534.083 C1936.84,534.083 1933.04,533.918 1927.1,533.478 L1925.4,546.788 "/>
<path class="Harmony" d="M391.364,1003.3 L389.274,1003.3 L387.129,1006.6 C383.554,1003.8 381.134,1002.86 377.119,1002.86 C372.774,1002.86 369.364,1004.07 365.899,1006.88 C360.454,1011.28 357.924,1016.83 357.924,1024.26 C357.924,1029.87 359.519,1034.54 362.764,1038.12 C366.174,1041.97 371.234,1044.22 376.514,1044.22 C381.134,1044.22 384.379,1042.79 387.954,1039.22 L389.989,1044.17 L392.299,1044.17 L392.299,1032.07 C392.299,1029.26 392.299,1029.15 392.629,1028.66 C393.124,1028.05 394.114,1027.89 397.249,1027.89 L398.074,1027.89 L398.074,1025.3 L380.584,1025.3 L380.584,1027.89 L381.629,1027.89 C386.249,1027.89 386.634,1028.16 386.634,1031.24 C386.634,1033.61 386.249,1035.75 385.534,1037.07 C384.159,1039.77 380.639,1041.64 377.064,1041.64 C373.489,1041.64 369.969,1039.82 368.099,1037.07 C366.064,1033.99 365.184,1030.14 365.184,1024.26 C365.184,1011.99 369.254,1005.45 376.899,1005.45 C383.169,1005.45 387.514,1009.96 389.769,1018.76 L392.134,1018.76 L391.364,1003.3 "/>
<path class="Harmony" d="M404.093,1017.99 L406.513,1018.37 L407.503,1014.03 C408.328,1010.4 408.713,1009.85 410.308,1009.85 C410.583,1009.85 411.023,1009.85 411.518,1009.9 C418.283,1010.23 418.283,1010.23 420.813,1010.23 C421.528,1010.23 422.793,1010.23 424.333,1010.18 L420.593,1017.71 C416.523,1025.8 416.028,1026.79 414.653,1030.2 C412.948,1034.32 412.068,1037.79 412.068,1040.1 C412.068,1042.63 413.388,1044.17 415.533,1044.17 C418.173,1044.17 419.218,1042.41 419.163,1037.62 C418.888,1029.7 419.878,1025.85 425.763,1012.98 C426.753,1010.84 427.798,1008.64 428.788,1006.49 L428.788,1004.9 C425.488,1005.17 423.728,1005.28 420.318,1005.28 C415.533,1005.28 411.738,1005.12 405.798,1004.68 L404.093,1017.99 "/>
<path class="Harmony" d="M2053.1,532.103 L2051.01,532.103 L2048.87,535.403 C2045.29,532.598 2042.87,531.663 2038.86,531.663 C2034.51,531.663 2031.1,532.873 2027.64,535.678 C2022.19,540.078 2019.66,545.633 2019.66,553.058 C2019.66,558.668 2021.26,563.343 2024.5,566.918 C2027.91,570.768 2032.97,573.023 2038.25,573.023 C2042.87,573.023 2046.12,571.593 2049.69,568.018 L2051.73,572.968 L2054.04,572.968 L2054.04,560.868 C2054.04,558.063 2054.04,557.953 2054.37,557.458 C2054.86,556.853 2055.85,556.688 2058.99,556.688 L2059.81,556.688 L2059.81,554.103 L2042.32,554.103 L2042.32,556.688 L2043.37,556.688 C2047.99,556.688 2048.37,556.963 2048.37,560.043 C2048.37,562.408 2047.99,564.553 2047.27,565.873 C2045.9,568.568 2042.38,570.438 2038.8,570.438 C2035.23,570.438 2031.71,568.623 2029.84,565.873 C2027.8,562.793 2026.92,558.943 2026.92,553.058 C2026.92,540.793 2030.99,534.248 2038.64,534.248 C2044.91,534.248 2049.25,538.758 2051.51,547.558 L2053.87,547.558 L2053.1,532.103 "/>
<path class="Harmony" d="M2065.83,546.788 L2068.25,547.173 L2069.24,542.828 C2070.07,539.198 2070.45,538.648 2072.05,538.648 C2072.32,538.648 2072.76,538.648 2073.26,538.703 C2080.02,539.033 2080.02,539.033 2082.55,539.033 C2083.27,539.033 2084.53,539.033 2086.07,538.978 L2082.33,546.513 C2078.26,554.598 2077.77,555.588 2076.39,558.998 C2074.69,563.123 2073.81,566.588 2073.81,568.898 C2073.81,571.428 2075.13,572.968 2077.27,572.968 C2079.91,572.968 2080.96,571.208 2080.9,566.423 C2080.63,558.503 2081.62,554.653 2087.5,541.783 C2088.49,539.638 2089.54,537.438 2090.53,535.293 L2090.53,533.698 C2087.23,533.973 2085.47,534.083 2082.06,534.083 C2077.27,534.083 2073.48,533.918 2067.54,533.478 L2065.83,546.788 "/>
<path class="Harmony" d="M2523.14,1003.3 L2521.05,1003.3 L2518.85,1006.55 C2514.84,1003.63 2512.8,1002.86 2509.01,1002.86 C2503.78,1002.86 2499.33,1005.06 2495.64,1009.46 C2492.12,1013.64 2490.47,1018.26 2490.47,1023.93 C2490.47,1035.81 2498.23,1044.22 2509.06,1044.22 C2517.86,1044.22 2523.47,1039.05 2524.74,1029.81 L2522.15,1029.37 C2520.67,1037.57 2516.49,1041.64 2509.72,1041.64 C2501.58,1041.64 2497.73,1036.03 2497.73,1024.15 C2497.73,1017.88 2498.56,1013.75 2500.43,1010.45 C2502.13,1007.37 2505.49,1005.45 2509.06,1005.45 C2512.91,1005.45 2516.32,1007.48 2518.41,1011 C2519.46,1012.82 2520.23,1014.85 2521.55,1019.2 L2523.97,1019.2 L2523.14,1003.3 "/>
<path class="Harmony" d="M2687.49,532.103 L2685.4,532.103 L2683.2,535.348 C2679.18,532.433 2677.15,531.663 2673.35,531.663 C2668.13,531.663 2663.67,533.863 2659.99,538.263 C2656.47,542.443 2654.82,547.063 2654.82,552.728 C2654.82,564.608 2662.57,573.023 2673.41,573.023 C2682.21,573.023 2687.82,567.853 2689.08,558.613 L2686.5,558.173 C2685.01,566.368 2680.83,570.438 2674.07,570.438 C2665.93,570.438 2662.08,564.828 2662.08,552.948 C2662.08,546.678 2662.9,542.553 2664.77,539.253 C2666.48,536.173 2669.83,534.248 2673.41,534.248 C2677.26,534.248 2680.67,536.283 2682.76,539.803 C2683.8,541.618 2684.57,543.653 2685.89,547.998 L2688.31,547.998 L2687.49,532.103 "/>
<path class="Harmony" d="M2229.47,532.103 L2227.38,532.103 L2225.18,535.348 C2221.16,532.433 2219.13,531.663 2215.33,531.663 C2210.11,531.663 2205.65,533.863 2201.97,538.263 C2198.45,542.443 2196.8,547.063 2196.8,552.728 C2196.8,564.608 2204.55,573.023 2215.39,573.023 C2224.19,573.023 2229.8,567.853 2231.06,558.613 L2228.48,558.173 C2226.99,566.368 2222.81,570.438 2216.05,570.438 C2207.91,570.438 2204.06,564.828 2204.06,552.948 C2204.06,546.678 2204.88,542.553 2206.75,539.253 C2208.46,536.173 2211.81,534.248 2215.39,534.248 C2219.24,534.248 2222.65,536.283 2224.74,539.803 C2225.78,541.618 2226.55,543.653 2227.87,547.998 L2230.29,547.998 L2229.47,532.103 "/>
<path class="Harmony" d="M2547.05,532.103 L2544.96,532.103 L2542.76,535.348 C2538.74,532.433 2536.71,531.663 2532.91,531.663 C2527.69,531.663 2523.23,533.863 2519.55,538.263 C2516.03,542.443 2514.38,547.063 2514.38,552.728 C2514.38,564.608 2522.13,573.023 2532.97,573.023 C2541.77,573.023 2547.38,567.853 2548.64,558.613 L2546.06,558.173 C2544.57,566.368 2540.39,570.438 2533.63,570.438 C2525.49,570.438 2521.64,564.828 2521.64,552.948 C2521.64,546.678 2522.46,542.553 2524.33,539.253 C2526.04,536.173 2529.39,534.248 2532.97,534.248 C2536.82,534.248 2540.23,536.283 2542.32,539.803 C2543.36,541.618 2544.13,543.653 2545.45,547.998 L2547.87,547.998 L2547.05,532.103 "/>
<path class="Harmony" d="M1919.67,1003.3 L1917.58,1003.3 L1915.44,1006.6 C1911.86,1003.8 1909.44,1002.86 1905.43,1002.86 C1901.08,1002.86 1897.67,1004.07 1894.21,1006.88 C1888.76,1011.28 1886.23,1016.83 1886.23,1024.26 C1886.23,1029.87 1887.83,1034.54 1891.07,1038.12 C1894.48,1041.97 1899.54,1044.22 1904.82,1044.22 C1909.44,1044.22 1912.69,1042.79 1916.26,1039.22 L1918.3,1044.17 L1920.61,1044.17 L1920.61,1032.07 C1920.61,1029.26 1920.61,1029.15 1920.94,1028.66 C1921.43,1028.05 1922.42,1027.89 1925.56,1027.89 L1926.38,1027.89 L1926.38,1025.3 L1908.89,1025.3 L1908.89,1027.89 L1909.94,1027.89 C1914.56,1027.89 1914.94,1028.16 1914.94,1031.24 C1914.94,1033.61 1914.56,1035.75 1913.84,1037.07 C1912.47,1039.77 1908.95,1041.64 1905.37,1041.64 C1901.8,1041.64 1898.28,1039.82 1896.41,1037.07 C1894.37,1033.99 1893.49,1030.14 1893.49,1024.26 C1893.49,1011.99 1897.56,1005.45 1905.21,1005.45 C1911.48,1005.45 1915.82,1009.96 1918.08,1018.76 L1920.44,1018.76 L1919.67,1003.3 "/>
<path class="Harmony" d="M1932.4,1017.99 L1934.82,1018.37 L1935.81,1014.03 C1936.64,1010.4 1937.02,1009.85 1938.62,1009.85 C1938.89,1009.85 1939.33,1009.85 1939.83,1009.9 C1946.59,1010.23 1946.59,1010.23 1949.12,1010.23 C1949.84,1010.23 1951.1,1010.23 1952.64,1010.18 L1948.9,1017.71 C1944.83,1025.8 1944.34,1026.79 1942.96,1030.2 C1941.26,1034.32 1940.38,1037.79 1940.38,1040.1 C1940.38,1042.63 1941.7,1044.17 1943.84,1044.17 C1946.48,1044.17 1947.53,1042.41 1947.47,1037.62 C1947.2,1029.7 1948.19,1025.85 1954.07,1012.98 C1955.06,1010.84 1956.11,1008.64 1957.1,1006.49 L1957.1,1004.9 C1953.8,1005.17 1952.04,1005.28 1948.63,1005.28 C1943.84,1005.28 1940.05,1005.12 1934.11,1004.68 L1932.4,1017.99 "/>
</svg>
