<?xml version="1.0" encoding="UTF-8" standalone="no"?>
<svg width="2977.2px" height="4208.4px" viewBox="0 0 2977.2 4208.4"
 xmlns="http://www.w3.org/2000/svg" xmlns:xlink="http://www.w3.org/1999/xlink" version="1.2" baseProfile="tiny">
<title>めだかの学校</title>
<desc>Generated by MuseScore Studio 4.4.2</desc>
<path class="" fill="#ffffff" fill-rule="evenodd" d="M0,0 L2977.2,0 L2977.2,4208.4 L0,4208.4 L0,0 "/>
<polyline class="StaffLines" fill="none" stroke="#000000" stroke-width="2.73" stroke-linejoin="bevel" points="212.598,634.198 2764.6,634.198"/>
<polyline class="StaffLines" fill="none" stroke="#000000" stroke-width="2.73" stroke-linejoin="bevel" points="212.598,658.998 2764.6,658.998"/>
<polyline class="StaffLines" fill="none" stroke="#000000" stroke-width="2.73" stroke-linejoin="bevel" points="212.598,683.798 2764.6,683.798"/>
<polyline class="StaffLines" fill="none" stroke="#000000" stroke-width="2.73" stroke-linejoin="bevel" points="212.598,708.598 2764.6,708.598"/>
<polyline class="StaffLines" fill="none" stroke="#000000" stroke-width="2.73" stroke-linejoin="bevel" points="212.598,733.398 2764.6,733.398"/>
<polyline class="StaffLines" fill="none" stroke="#000000" stroke-width="2.73" stroke-linejoin="bevel" points="212.598,1105.4 2764.6,1105.4"/>
<polyline class="StaffLines" fill="none" stroke="#000000" stroke-width="2.73" stroke-linejoin="bevel" points="212.598,1130.2 2764.6,1130.2"/>
<polyline class="StaffLines" fill="none" stroke="#000000" stroke-width="2.73" stroke-linejoin="bevel" points="212.598,1155 2764.6,1155"/>
<polyline class="StaffLines" fill="none" stroke="#000000" stroke-width="2.73" stroke-linejoin="bevel" points="212.598,1179.8 2764.6,1179.8"/>
<polyline class="StaffLines" fill="none" stroke="#000000" stroke-width="2.73" stroke-linejoin="bevel" points="212.598,1204.6 2764.6,1204.6"/>
<path class="Text" d="M1177.13,224.027 C1177.79,225.787 1177.9,226.227 1178.56,229.857 C1179.55,235.357 1180.87,241.847 1181.64,245.367 C1176.58,249.107 1173.5,252.297 1170.64,256.587 C1166.57,262.857 1164.26,270.447 1164.26,277.597 C1164.26,290.577 1170.53,299.157 1180.1,299.157 C1186.48,299.157 1192.64,295.197 1199.68,286.617 C1208.26,276.277 1216.07,260.547 1221.02,243.497 C1236.2,246.687 1244.23,255.487 1244.23,268.907 C1244.23,274.627 1242.58,279.907 1239.39,284.527 C1236.09,289.367 1230.59,293.327 1222.89,296.517 C1217.06,298.937 1212.77,300.037 1206.5,300.587 C1209.36,304.217 1209.91,305.097 1210.79,307.957 C1215.52,306.857 1216.07,306.747 1217.72,306.307 C1226.41,303.997 1234.33,300.147 1239.94,295.417 C1247.42,289.257 1251.93,279.247 1251.93,269.017 C1251.93,252.407 1241.04,240.417 1222.78,237.007 C1223.33,234.917 1223.55,233.707 1224.1,231.837 C1226.41,222.047 1226.41,222.047 1227.07,220.287 L1218.82,218.527 C1218.6,221.717 1217.28,228.977 1215.41,236.237 C1213.87,236.127 1212.55,236.127 1211.78,236.127 C1203.53,236.127 1195.94,237.887 1188.24,241.627 C1186.81,235.247 1185.38,226.007 1185.27,222.487 L1177.13,224.027 M1183.51,252.737 C1185.93,262.857 1189.45,273.087 1193.85,282.327 C1188.9,288.377 1184.17,291.677 1180.32,291.677 C1174.93,291.677 1171.41,285.957 1171.41,277.267 C1171.41,272.537 1173.06,266.597 1175.81,261.867 C1177.79,258.347 1179.88,255.927 1183.51,252.737 M1198.8,276.277 C1198.58,275.397 1198.47,275.177 1197.92,273.747 C1194.07,264.397 1191.76,257.137 1189.67,248.227 C1196.05,244.487 1203.09,242.617 1210.9,242.617 C1211.45,242.617 1212.44,242.727 1213.65,242.727 C1210.24,254.497 1205.4,265.717 1200.23,273.857 C1199.46,275.067 1199.46,275.177 1198.91,276.277 L1198.8,276.277 M1273.93,243.937 C1274.92,243.827 1275.58,243.827 1275.8,243.827 C1275.8,243.827 1276.02,243.827 1276.24,243.827 C1280.53,244.047 1281.52,244.047 1285.37,244.047 C1289.44,244.047 1290.76,244.047 1292.96,243.937 C1288.56,266.377 1280.09,291.347 1272.28,304.767 L1280.31,308.177 C1289.44,287.937 1296.04,266.817 1300.66,243.497 C1305.72,243.167 1312.1,242.287 1319.25,240.857 L1321.23,240.417 L1322.33,240.307 L1321.78,232.717 C1317.05,234.367 1309.57,235.797 1301.98,236.457 C1302.53,233.487 1302.75,231.947 1303.41,228.097 C1304.07,224.357 1304.4,222.157 1304.51,221.497 C1304.84,219.957 1304.95,219.407 1305.39,217.647 L1296.7,216.767 C1296.7,216.987 1296.7,217.317 1296.7,217.537 C1296.7,221.277 1296.15,225.127 1294.28,237.007 C1291.09,237.227 1289.88,237.227 1287.68,237.227 C1281.85,237.227 1277.45,236.897 1273.93,236.237 L1273.93,243.937 M1356.98,249.327 C1348.73,248.997 1347.08,248.997 1344.99,248.997 C1335.75,248.997 1328.6,249.877 1315.84,252.627 L1316.61,260.107 C1326.62,257.357 1334.32,256.367 1344.11,256.367 C1348.73,256.367 1351.81,256.587 1357.09,257.137 L1356.98,249.327 M1316.94,273.087 C1311.11,280.567 1309.57,283.977 1309.57,288.927 C1309.57,299.817 1318.92,305.427 1336.96,305.427 C1342.79,305.427 1349.17,304.877 1356.54,303.667 L1359.95,303.007 L1361.38,302.787 L1360.61,294.537 C1354.34,296.737 1344.55,298.277 1336.3,298.277 C1323.76,298.277 1317.05,294.757 1317.05,288.157 C1317.05,285.517 1318.04,282.657 1319.8,280.347 C1320.57,279.137 1320.9,278.807 1323.1,276.167 L1316.94,273.087 M1335.09,221.497 C1338.39,224.907 1343.67,233.047 1346.42,238.877 L1351.92,235.577 C1348.62,229.087 1345.54,224.467 1340.59,218.527 L1335.09,221.497 M1347.63,215.557 C1351.92,220.617 1356.54,227.657 1358.85,232.827 L1364.35,229.637 C1360.72,222.707 1357.97,218.637 1353.02,212.587 L1347.63,215.557 M1383.38,252.407 C1386.35,251.637 1387.23,251.417 1389.76,250.977 C1390.75,250.757 1396.03,249.877 1405.49,248.447 C1401.86,262.637 1398.56,272.317 1393.39,283.317 C1389.54,291.677 1385.36,298.937 1381.95,303.227 L1389.43,307.627 C1392.84,301.467 1395.15,297.067 1396.58,294.427 C1404.06,279.247 1409.12,265.167 1413.19,247.787 C1417.26,247.347 1418.69,247.237 1421.11,247.237 C1431.34,247.237 1434.64,250.977 1434.64,262.637 C1434.64,274.957 1432.99,286.177 1430.02,293.217 C1428.59,296.737 1426.5,298.497 1423.75,298.497 C1419.79,298.497 1413.63,296.627 1407.36,293.437 C1407.69,295.417 1407.69,296.187 1407.69,297.837 C1407.69,299.267 1407.69,300.037 1407.47,301.687 C1414.73,304.767 1419.35,305.977 1424.08,305.977 C1429.25,305.977 1432.22,304.547 1434.86,300.807 C1439.37,294.427 1442.23,279.797 1442.23,262.967 C1442.23,253.947 1440.69,248.887 1436.84,245.257 C1433.43,241.957 1428.81,240.637 1421,240.637 C1418.47,240.637 1417.04,240.747 1414.51,240.967 C1415.5,235.687 1416.27,231.617 1416.82,228.427 C1417.81,222.157 1418.14,220.287 1418.91,217.867 L1410.11,216.877 C1410.11,217.537 1410.11,218.087 1410.11,218.307 C1410.11,222.927 1408.68,233.487 1406.81,241.627 C1397.9,243.057 1386.46,244.377 1382.5,244.487 L1383.38,252.407 M1448.28,237.887 C1458.95,248.777 1466.54,262.197 1470.72,277.377 L1477.76,273.307 C1472.59,257.797 1465.99,246.467 1454.77,234.367 L1448.28,237.887 M1543.65,232.387 C1549.15,232.607 1552.34,233.377 1556.41,235.137 C1567.52,240.087 1573.9,250.207 1573.9,262.747 C1573.9,276.277 1566.53,288.047 1554.43,293.547 C1549.26,295.967 1544.09,297.397 1536.06,298.717 C1538.15,301.357 1538.81,302.457 1539.91,306.087 C1547.5,304.437 1551.68,303.117 1556.63,301.027 C1572.58,294.207 1581.82,280.127 1581.82,263.077 C1581.82,252.517 1578.08,242.947 1571.15,236.237 C1564,229.197 1553.22,225.347 1540.9,225.347 C1526.16,225.347 1514.17,230.297 1505.37,239.977 C1498,248.227 1493.82,259.117 1493.82,270.337 C1493.82,285.737 1501.63,297.177 1512.08,297.177 C1520,297.177 1526.49,290.577 1532.87,276.057 C1537.82,264.507 1542,247.677 1543.65,232.387 M1535.73,232.497 C1534.3,246.577 1530.23,262.857 1525.72,273.197 C1520.99,283.977 1516.59,289.147 1511.97,289.147 C1506.03,289.147 1501.41,281.007 1501.41,270.447 C1501.41,256.807 1508.23,244.377 1519.34,237.667 C1524.4,234.587 1529.13,233.047 1535.73,232.497"/>
<path class="Text" d="M1614.16,231.617 C1608.11,231.617 1605.69,231.507 1601.62,231.067 C1601.95,233.927 1602.06,236.127 1602.06,240.197 L1602.06,248.337 C1602.06,251.087 1601.84,253.507 1601.51,256.037 L1608.77,256.037 L1608.77,237.557 L1686.43,237.557 L1686.43,256.037 L1693.69,256.037 C1693.36,253.507 1693.14,250.867 1693.14,248.337 L1693.14,240.197 C1693.14,236.127 1693.25,233.927 1693.58,231.067 C1689.73,231.397 1687.31,231.507 1680.93,231.507 L1672.35,231.507 C1675.98,227.327 1678.29,224.137 1682.91,216.767 L1675.98,213.797 C1672.79,220.837 1669.82,225.567 1664.65,231.507 L1652.55,231.507 C1650.13,224.797 1648.37,221.057 1644.19,213.797 L1637.37,215.667 C1641.22,221.387 1643.31,225.677 1645.4,231.507 L1629.34,231.507 C1625.49,224.797 1623.18,221.497 1618.12,215.227 L1611.52,217.317 C1616.69,223.257 1618.67,226.007 1621.86,231.617 L1614.16,231.617 M1651.56,281.227 L1684.12,281.227 C1688.96,281.227 1692.7,281.447 1695.78,281.887 L1695.78,274.297 C1692.7,274.737 1689.18,274.957 1684.23,274.957 L1651.56,274.957 L1651.56,271.547 C1662.45,265.937 1669.27,261.427 1676.64,255.267 C1679.06,253.177 1679.06,253.177 1680.49,252.077 L1676.31,247.677 C1674.44,248.007 1672.24,248.117 1668.17,248.117 L1628.46,248.117 C1624.39,248.117 1620.87,247.897 1617.79,247.567 L1617.79,254.717 C1620.76,254.387 1624.5,254.167 1628.24,254.167 L1668.5,254.167 C1662.67,259.007 1656.4,262.967 1648.81,266.597 L1644.19,266.597 C1644.41,268.907 1644.52,270.887 1644.52,273.087 L1644.52,274.957 L1611.41,274.957 C1606.68,274.957 1603.16,274.737 1599.97,274.297 L1599.97,281.887 C1603.27,281.447 1606.68,281.227 1611.52,281.227 L1644.52,281.227 L1644.52,303.337 C1644.52,305.647 1643.75,305.977 1638.69,305.977 C1635.06,305.977 1629.89,305.537 1624.28,304.767 C1625.38,307.187 1625.82,308.617 1626.59,311.807 C1630.44,312.247 1636.16,312.467 1639.24,312.467 C1649.47,312.467 1651.56,311.147 1651.56,304.327 L1651.56,281.227 M1783.89,259.777 C1781.69,267.807 1778.39,274.737 1773.22,281.997 C1768.38,275.067 1765.3,268.797 1762.88,260.437 L1756.17,263.627 L1757.05,265.387 C1757.82,267.037 1757.93,267.257 1758.15,267.807 C1763.54,278.807 1765.41,282.327 1769.04,287.277 C1760.35,296.957 1751.99,302.457 1738.13,307.517 C1740.11,309.607 1740.99,310.927 1742.42,313.677 C1756.06,307.957 1764.64,302.017 1773.22,292.447 C1782.02,302.237 1790.16,307.737 1804.57,313.457 C1805.78,310.707 1806.77,309.057 1808.64,306.747 C1799.4,303.557 1794.56,301.137 1788.51,297.067 C1784.11,294.097 1781.03,291.347 1777.4,287.387 C1781.03,282.327 1783.56,278.037 1787.08,270.557 C1790.16,264.177 1790.16,264.177 1790.82,262.857 L1783.89,259.777 M1737.36,241.957 C1739.89,241.957 1742.2,242.067 1744.4,242.287 L1744.4,235.577 C1742.31,235.907 1740.55,236.017 1737.25,236.017 L1731.75,236.017 L1731.75,224.797 C1731.75,219.187 1731.86,216.217 1732.3,213.467 L1724.38,213.467 C1724.82,216.107 1724.93,218.527 1724.93,224.907 L1724.93,236.017 L1717.67,236.017 C1714.04,236.017 1711.73,235.907 1709.64,235.577 L1709.64,242.397 C1711.73,242.067 1714.37,241.957 1717.56,241.957 L1723.94,241.957 C1720.53,256.257 1713.38,271.437 1706.23,279.797 C1708.1,281.997 1709.09,283.427 1710.63,286.287 C1717.67,276.497 1722.07,266.597 1725.48,252.957 C1725.04,262.307 1724.93,265.387 1724.93,270.227 L1724.93,301.247 C1724.93,307.187 1724.71,310.707 1724.27,314.007 L1732.41,314.007 C1731.86,310.817 1731.75,307.407 1731.75,301.247 L1731.75,268.687 C1731.75,264.507 1731.64,262.967 1731.31,250.757 C1734.06,257.797 1736.15,261.427 1740,266.487 C1741.21,264.177 1742.09,262.747 1743.85,260.657 C1738.13,254.717 1734.39,248.887 1731.97,241.957 L1737.36,241.957 M1770.03,229.747 L1757.16,229.747 C1752.32,229.747 1748.69,229.527 1745.72,229.087 L1745.72,236.677 C1748.58,236.237 1752.76,236.017 1757.16,236.017 L1795.66,236.017 C1799.84,236.017 1803.8,236.237 1806.99,236.567 L1806.99,229.197 C1804.02,229.527 1800.06,229.747 1795.66,229.747 L1776.96,229.747 L1776.96,223.697 C1776.96,220.067 1777.18,217.427 1777.62,215.117 L1769.37,215.117 C1769.81,217.537 1770.03,220.067 1770.03,223.807 L1770.03,229.747 M1780.48,241.957 C1787.19,253.287 1792.03,258.897 1802.15,267.257 C1803.69,264.507 1804.57,263.297 1806.44,261.207 C1796.65,253.727 1792.03,248.557 1786.2,238.877 L1780.48,241.957 M1760.35,239.317 C1755.07,251.087 1751.33,256.147 1742.53,263.627 C1744.84,265.607 1745.83,266.597 1747.26,268.797 C1755.84,260.767 1760.02,254.937 1766.51,242.177 L1760.35,239.317 "/>
<path class="MeasureNumber" d="M217.481,1042.4 C218.161,1038.88 218.961,1036.68 220.481,1034 C222.281,1030.84 224.441,1029.24 226.841,1029.24 C228.081,1029.24 228.841,1029.72 228.841,1030.48 C228.841,1030.76 228.761,1030.92 228.481,1031.44 C228.121,1032.12 227.961,1032.6 227.961,1033.2 C227.961,1034.48 228.921,1035.36 230.281,1035.36 C231.921,1035.36 233.041,1034.16 233.041,1032.36 C233.041,1029.64 230.481,1027.64 226.921,1027.64 C218.001,1027.64 212.601,1039.28 212.601,1046.96 C212.601,1052.84 215.521,1056.4 220.401,1056.4 C226.401,1056.4 230.841,1051.44 230.841,1045.56 C230.841,1041.48 228.081,1038.64 224.081,1038.64 C221.281,1038.64 219.121,1039.84 217.481,1042.4 M222.801,1040.96 C225.281,1040.96 226.641,1042.68 226.641,1045.8 C226.641,1050.88 223.961,1054.76 220.401,1054.76 C217.841,1054.76 216.321,1052.88 216.321,1049.68 C216.321,1044.68 219.081,1040.96 222.801,1040.96"/>
<polyline class="BarLine" fill="none" stroke="#000000" stroke-width="4.46" stroke-linejoin="bevel" points="851.255,632.834 851.255,734.762"/>
<polyline class="BarLine" fill="none" stroke="#000000" stroke-width="4.46" stroke-linejoin="bevel" points="2740.42,1104.03 2740.42,1205.96"/>
<polyline class="BarLine" fill="none" stroke="#000000" stroke-width="13.64" stroke-linejoin="bevel" points="2757.78,1104.03 2757.78,1205.96"/>
<polyline class="BarLine" fill="none" stroke="#000000" stroke-width="4.46" stroke-linejoin="bevel" points="2762.37,632.834 2762.37,734.762"/>
<polyline class="BarLine" fill="none" stroke="#000000" stroke-width="4.46" stroke-linejoin="bevel" points="1794.39,1104.03 1794.39,1205.96"/>
<polyline class="BarLine" fill="none" stroke="#000000" stroke-width="4.46" stroke-linejoin="bevel" points="1377.86,632.834 1377.86,734.762"/>
<polyline class="BarLine" fill="none" stroke="#000000" stroke-width="4.46" stroke-linejoin="bevel" points="801.114,1104.03 801.114,1205.96"/>
<polyline class="BarLine" fill="none" stroke="#000000" stroke-width="4.46" stroke-linejoin="bevel" points="2160.4,632.834 2160.4,734.762"/>
<polyline class="BarLine" fill="none" stroke="#000000" stroke-width="4.46" stroke-linejoin="bevel" points="2309.99,1104.03 2309.99,1205.96"/>
<polyline class="BarLine" fill="none" stroke="#000000" stroke-width="4.46" stroke-linejoin="bevel" points="1866.94,632.834 1866.94,734.762"/>
<polyline class="BarLine" fill="none" stroke="#000000" stroke-width="4.46" stroke-linejoin="bevel" points="1316.72,1104.03 1316.72,1205.96"/>
<polyline class="LedgerLine" fill="none" stroke="#000000" stroke-width="3.97" stroke-linejoin="bevel" points="1065.47,758.198 1115.05,758.198"/>
<polyline class="LedgerLine" fill="none" stroke="#000000" stroke-width="3.97" stroke-linejoin="bevel" points="2335.79,1229.4 2385.37,1229.4"/>
<polyline class="LedgerLine" fill="none" stroke="#000000" stroke-width="3.97" stroke-linejoin="bevel" points="2398.78,1229.4 2448.37,1229.4"/>
<polyline class="LedgerLine" fill="none" stroke="#000000" stroke-width="3.97" stroke-linejoin="bevel" points="2461.78,1229.4 2511.36,1229.4"/>
<polyline class="LedgerLine" fill="none" stroke="#000000" stroke-width="3.97" stroke-linejoin="bevel" points="387.965,758.198 437.55,758.198"/>
<polyline class="LedgerLine" fill="none" stroke="#000000" stroke-width="3.97" stroke-linejoin="bevel" points="2524.77,1229.4 2574.36,1229.4"/>
<polyline class="LedgerLine" fill="none" stroke="#000000" stroke-width="3.97" stroke-linejoin="bevel" points="2587.77,1229.4 2637.35,1229.4"/>
<polyline class="LedgerLine" fill="none" stroke="#000000" stroke-width="3.97" stroke-linejoin="bevel" points="1977.67,1229.4 2027.26,1229.4"/>
<polyline class="Stem" fill="none" stroke="#000000" stroke-width="2.73" stroke-linejoin="bevel" points="2640.26,692.23 2640.26,603.198"/>
<polyline class="Stem" fill="none" stroke="#000000" stroke-width="2.73" stroke-linejoin="bevel" points="2627.31,1225.43 2627.31,1142.6"/>
<polyline class="Stem" fill="none" stroke="#000000" stroke-width="2.73" stroke-linejoin="bevel" points="2017.21,1225.43 2017.21,1154.87"/>
<polyline class="Stem" fill="none" stroke="#000000" stroke-width="2.73" stroke-linejoin="bevel" points="1954.22,1213.03 1954.22,1148.93"/>
<polyline class="Stem" fill="none" stroke="#000000" stroke-width="2.73" stroke-linejoin="bevel" points="1180.38,741.83 1180.38,658.998"/>
<polyline class="Stem" fill="none" stroke="#000000" stroke-width="2.73" stroke-linejoin="bevel" points="1859.72,1213.03 1859.72,1130.2"/>
<polyline class="Stem" fill="none" stroke="#000000" stroke-width="2.73" stroke-linejoin="bevel" points="2080.21,1213.03 2080.21,1105.4"/>
<polyline class="Stem" fill="none" stroke="#000000" stroke-width="2.73" stroke-linejoin="bevel" points="1029.64,741.83 1029.64,677.707"/>
<polyline class="Stem" fill="none" stroke="#000000" stroke-width="2.73" stroke-linejoin="bevel" points="1634.03,1200.63 1634.03,1117.8"/>
<polyline class="Stem" fill="none" stroke="#000000" stroke-width="2.73" stroke-linejoin="bevel" points="2143.21,1175.83 2143.21,1105.4"/>
<polyline class="Stem" fill="none" stroke="#000000" stroke-width="2.73" stroke-linejoin="bevel" points="2206.2,1200.63 2206.2,1105.4"/>
<polyline class="Stem" fill="none" stroke="#000000" stroke-width="2.73" stroke-linejoin="bevel" points="1443.19,729.43 1443.19,646.598"/>
<polyline class="Stem" fill="none" stroke="#000000" stroke-width="2.73" stroke-linejoin="bevel" points="1571.04,1200.63 1571.04,1111.51"/>
<polyline class="Stem" fill="none" stroke="#000000" stroke-width="2.73" stroke-linejoin="bevel" points="1508.04,1200.63 1508.04,1107.44"/>
<polyline class="Stem" fill="none" stroke="#000000" stroke-width="2.73" stroke-linejoin="bevel" points="1556.24,704.63 1556.24,621.798"/>
<polyline class="Stem" fill="none" stroke="#000000" stroke-width="2.73" stroke-linejoin="bevel" points="1445.04,1175.83 1445.04,1103.36"/>
<polyline class="Stem" fill="none" stroke="#000000" stroke-width="2.73" stroke-linejoin="bevel" points="1382.05,1163.43 1382.05,1099.29"/>
<polyline class="Stem" fill="none" stroke="#000000" stroke-width="2.73" stroke-linejoin="bevel" points="1669.3,692.23 1669.3,615.598"/>
<polyline class="Stem" fill="none" stroke="#000000" stroke-width="2.73" stroke-linejoin="bevel" points="916.587,741.83 916.587,658.998"/>
<polyline class="Stem" fill="none" stroke="#000000" stroke-width="2.73" stroke-linejoin="bevel" points="2269.2,1213.03 2269.2,1105.4"/>
<polyline class="Stem" fill="none" stroke="#000000" stroke-width="2.73" stroke-linejoin="bevel" points="1275.92,1175.83 1275.92,1074.4"/>
<polyline class="Stem" fill="none" stroke="#000000" stroke-width="2.73" stroke-linejoin="bevel" points="1212.92,1163.43 1212.92,1074.4"/>
<polyline class="Stem" fill="none" stroke="#000000" stroke-width="2.73" stroke-linejoin="bevel" points="2715.63,704.63 2715.63,603.198"/>
<polyline class="Stem" fill="none" stroke="#000000" stroke-width="2.73" stroke-linejoin="bevel" points="1812.61,692.23 1812.61,615.797"/>
<polyline class="Stem" fill="none" stroke="#000000" stroke-width="2.73" stroke-linejoin="bevel" points="1149.93,1138.63 1149.93,1074.4"/>
<polyline class="Stem" fill="none" stroke="#000000" stroke-width="2.73" stroke-linejoin="bevel" points="796.927,729.43 796.927,646.797"/>
<polyline class="Stem" fill="none" stroke="#000000" stroke-width="2.73" stroke-linejoin="bevel" points="2564.89,667.43 2564.89,603.198"/>
<polyline class="Stem" fill="none" stroke="#000000" stroke-width="2.73" stroke-linejoin="bevel" points="1086.93,1163.43 1086.93,1074.4"/>
<polyline class="Stem" fill="none" stroke="#000000" stroke-width="2.73" stroke-linejoin="bevel" points="1023.94,1163.43 1023.94,1099.2"/>
<polyline class="Stem" fill="none" stroke="#000000" stroke-width="2.73" stroke-linejoin="bevel" points="960.941,1163.43 960.941,1099.2"/>
<polyline class="Stem" fill="none" stroke="#000000" stroke-width="2.73" stroke-linejoin="bevel" points="866.447,1163.43 866.447,1086.8"/>
<polyline class="Stem" fill="none" stroke="#000000" stroke-width="2.73" stroke-linejoin="bevel" points="2375.33,1225.43 2375.33,1155"/>
<polyline class="Stem" fill="none" stroke="#000000" stroke-width="2.73" stroke-linejoin="bevel" points="653.613,729.43 653.613,646.598"/>
<polyline class="Stem" fill="none" stroke="#000000" stroke-width="2.73" stroke-linejoin="bevel" points="2438.32,1225.43 2438.32,1155"/>
<polyline class="Stem" fill="none" stroke="#000000" stroke-width="2.73" stroke-linejoin="bevel" points="540.559,741.83 540.559,658.998"/>
<polyline class="Stem" fill="none" stroke="#000000" stroke-width="2.73" stroke-linejoin="bevel" points="2225.73,692.23 2225.73,615.598"/>
<polyline class="Stem" fill="none" stroke="#000000" stroke-width="2.73" stroke-linejoin="bevel" points="640.755,1200.63 640.755,1117.8"/>
<polyline class="Stem" fill="none" stroke="#000000" stroke-width="2.73" stroke-linejoin="bevel" points="577.759,1200.63 577.759,1111.51"/>
<polyline class="Stem" fill="none" stroke="#000000" stroke-width="2.73" stroke-linejoin="bevel" points="2338.78,692.23 2338.78,627.998"/>
<polyline class="Stem" fill="none" stroke="#000000" stroke-width="2.73" stroke-linejoin="bevel" points="2501.32,1225.43 2501.32,1155"/>
<polyline class="Stem" fill="none" stroke="#000000" stroke-width="2.73" stroke-linejoin="bevel" points="514.763,1200.63 514.763,1107.44"/>
<polyline class="Stem" fill="none" stroke="#000000" stroke-width="2.73" stroke-linejoin="bevel" points="451.767,1175.83 451.767,1103.36"/>
<polyline class="Stem" fill="none" stroke="#000000" stroke-width="2.73" stroke-linejoin="bevel" points="2414.15,692.23 2414.15,627.998"/>
<polyline class="Stem" fill="none" stroke="#000000" stroke-width="2.73" stroke-linejoin="bevel" points="388.771,1163.43 388.771,1099.29"/>
<polyline class="Stem" fill="none" stroke="#000000" stroke-width="2.73" stroke-linejoin="bevel" points="2489.52,692.23 2489.52,603.198"/>
<polyline class="Stem" fill="none" stroke="#000000" stroke-width="2.73" stroke-linejoin="bevel" points="2564.31,1225.43 2564.31,1155"/>
<polyline class="Stem" fill="none" stroke="#000000" stroke-width="2.73" stroke-linejoin="bevel" points="427.506,754.23 427.506,671.398"/>
<polyline class="Stem" fill="none" stroke="#000000" stroke-width="2.73" stroke-linejoin="bevel" points="1105.01,754.23 1105.01,683.69"/>
<path class="Hook" transform="matrix(0.992,0,0,0.992,795.563,646.598)" d="M0,22.7 C0,23 0.1,23.6 0.8,23.8 C5.1,25.2 13.7,30.6 20.2,41.7 C22,44.8 24.9,49.1 24.9,57.4 C24.9,64.6 23.1,72 20.4,79.2 C20.2,79.8 20.1,80.3 20.1,80.7 C20.1,81.4 20.5,81.7 21.2,81.7 C21.8,81.7 22.3,81.3 22.7,80.6 C27.2,72.6 28.9,63.3 28.9,54.2 C28.4,41.3 21,31.8 21,31.8 C21.3,31.8 11.8,19.5 9.1,15.3 C5.4,9.6 3.7,3.9 3.5,3.5 C3.4,3.2 2.5,-0.4 2.5,-0.4 C2.4,-0.8 1.9,-1.2 1.3,-1.2 C0.6,-1.2 0,-0.6 0,0.1 L0,22.7 "/>
<path class="Hook" transform="matrix(0.992,0,0,0.992,1811.25,615.598)" d="M0,22.7 C0,23 0.1,23.6 0.8,23.8 C5.1,25.2 13.7,30.6 20.2,41.7 C22,44.8 24.9,49.1 24.9,57.4 C24.9,64.6 23.1,72 20.4,79.2 C20.2,79.8 20.1,80.3 20.1,80.7 C20.1,81.4 20.5,81.7 21.2,81.7 C21.8,81.7 22.3,81.3 22.7,80.6 C27.2,72.6 28.9,63.3 28.9,54.2 C28.4,41.3 21,31.8 21,31.8 C21.3,31.8 11.8,19.5 9.1,15.3 C5.4,9.6 3.7,3.9 3.5,3.5 C3.4,3.2 2.5,-0.4 2.5,-0.4 C2.4,-0.8 1.9,-1.2 1.3,-1.2 C0.6,-1.2 0,-0.6 0,0.1 L0,22.7 "/>
<path class="Note" transform="matrix(0.992,0,0,0.992,420.907,1179.8)" d="M0,4.2 C0,8.5 3.1,13.3 11.2,13.3 C21.6,13.3 32.5,4.8 32.5,-4 C32.5,-9.9 27.5,-13.2 21.3,-13.2 C11.6,-13.2 0,-5 0,4.2"/>
<path class="Note" transform="matrix(0.992,0,0,0.992,1245.06,1179.8)" d="M0,4.2 C0,8.5 3.1,13.3 11.2,13.3 C21.6,13.3 32.5,4.8 32.5,-4 C32.5,-9.9 27.5,-13.2 21.3,-13.2 C11.6,-13.2 0,-5 0,4.2"/>
<path class="Note" transform="matrix(0.992,0,0,0.992,2596.45,1229.4)" d="M21.3,-13.2 C11.6,-13.2 0,-5.1 0,4.2 C0,8.5 3.1,13.3 11.2,13.3 C21.6,13.3 32.5,4.8 32.5,-4 C32.5,-9.9 27.5,-13.2 21.3,-13.2 M7.5,8.6 C4.2,8.6 3.5,5.9 3.5,5 C3.5,0.1 20.3,-8.5 25,-8.5 C27.4,-8.5 29,-7.1 29,-4.9 C29,0.1 12.1,8.6 7.5,8.6"/>
<path class="Note" transform="matrix(0.992,0,0,0.992,2534.03,671.398)" d="M0,4.2 C0,8.5 3.1,13.3 11.2,13.3 C21.6,13.3 32.5,4.8 32.5,-4 C32.5,-9.9 27.5,-13.2 21.3,-13.2 C11.6,-13.2 0,-5 0,4.2"/>
<path class="Note" transform="matrix(0.992,0,0,0.992,2684.77,708.598)" d="M0,4.2 C0,8.5 3.1,13.3 11.2,13.3 C21.6,13.3 32.5,4.8 32.5,-4 C32.5,-9.9 27.5,-13.2 21.3,-13.2 C11.6,-13.2 0,-5 0,4.2"/>
<path class="Note" transform="matrix(0.992,0,0,0.992,2533.45,1229.4)" d="M0,4.2 C0,8.5 3.1,13.3 11.2,13.3 C21.6,13.3 32.5,4.8 32.5,-4 C32.5,-9.9 27.5,-13.2 21.3,-13.2 C11.6,-13.2 0,-5 0,4.2"/>
<path class="Note" transform="matrix(0.992,0,0,0.992,396.645,758.198)" d="M0,4.2 C0,8.5 3.1,13.3 11.2,13.3 C21.6,13.3 32.5,4.8 32.5,-4 C32.5,-9.9 27.5,-13.2 21.3,-13.2 C11.6,-13.2 0,-5 0,4.2"/>
<path class="Note" transform="matrix(0.992,0,0,0.992,2458.66,696.198)" d="M0,4.2 C0,8.5 3.1,13.3 11.2,13.3 C21.6,13.3 32.5,4.8 32.5,-4 C32.5,-9.9 27.5,-13.2 21.3,-13.2 C11.6,-13.2 0,-5 0,4.2"/>
<path class="Note" transform="matrix(0.992,0,0,0.992,2470.46,1229.4)" d="M0,4.2 C0,8.5 3.1,13.3 11.2,13.3 C21.6,13.3 32.5,4.8 32.5,-4 C32.5,-9.9 27.5,-13.2 21.3,-13.2 C11.6,-13.2 0,-5 0,4.2"/>
<path class="Note" transform="matrix(0.992,0,0,0.992,2407.46,1229.4)" d="M0,4.2 C0,8.5 3.1,13.3 11.2,13.3 C21.6,13.3 32.5,4.8 32.5,-4 C32.5,-9.9 27.5,-13.2 21.3,-13.2 C11.6,-13.2 0,-5 0,4.2"/>
<path class="Note" transform="matrix(0.992,0,0,0.992,2383.29,696.198)" d="M0,4.2 C0,8.5 3.1,13.3 11.2,13.3 C21.6,13.3 32.5,4.8 32.5,-4 C32.5,-9.9 27.5,-13.2 21.3,-13.2 C11.6,-13.2 0,-5 0,4.2"/>
<path class="Note" transform="matrix(0.992,0,0,0.992,357.911,1167.4)" d="M0,4.2 C0,8.5 3.1,13.3 11.2,13.3 C21.6,13.3 32.5,4.8 32.5,-4 C32.5,-9.9 27.5,-13.2 21.3,-13.2 C11.6,-13.2 0,-5 0,4.2"/>
<path class="Note" transform="matrix(0.992,0,0,0.992,509.699,745.798)" d="M0,4.2 C0,8.5 3.1,13.3 11.2,13.3 C21.6,13.3 32.5,4.8 32.5,-4 C32.5,-9.9 27.5,-13.2 21.3,-13.2 C11.6,-13.2 0,-5 0,4.2"/>
<path class="Note" transform="matrix(0.992,0,0,0.992,2344.47,1229.4)" d="M0,4.2 C0,8.5 3.1,13.3 11.2,13.3 C21.6,13.3 32.5,4.8 32.5,-4 C32.5,-9.9 27.5,-13.2 21.3,-13.2 C11.6,-13.2 0,-5 0,4.2"/>
<path class="Note" transform="matrix(0.992,0,0,0.992,622.752,733.398)" d="M0,4.2 C0,8.5 3.1,13.3 11.2,13.3 C21.6,13.3 32.5,4.8 32.5,-4 C32.5,-9.9 27.5,-13.2 21.3,-13.2 C11.6,-13.2 0,-5 0,4.2"/>
<path class="Note" transform="matrix(0.992,0,0,0.992,2238.34,1217)" d="M0,4.2 C0,8.5 3.1,13.3 11.2,13.3 C21.6,13.3 32.5,4.8 32.5,-4 C32.5,-9.9 27.5,-13.2 21.3,-13.2 C11.6,-13.2 0,-5 0,4.2"/>
<path class="Note" transform="matrix(0.992,0,0,0.992,2307.92,696.198)" d="M0,4.2 C0,8.5 3.1,13.3 11.2,13.3 C21.6,13.3 32.5,4.8 32.5,-4 C32.5,-9.9 27.5,-13.2 21.3,-13.2 C11.6,-13.2 0,-5 0,4.2"/>
<path class="Note" transform="matrix(0.992,0,0,0.992,483.903,1204.6)" d="M0,4.2 C0,8.5 3.1,13.3 11.2,13.3 C21.6,13.3 32.5,4.8 32.5,-4 C32.5,-9.9 27.5,-13.2 21.3,-13.2 C11.6,-13.2 0,-5 0,4.2"/>
<path class="Note" transform="matrix(0.992,0,0,0.992,766.067,733.398)" d="M0,4.2 C0,8.5 3.1,13.3 11.2,13.3 C21.6,13.3 32.5,4.8 32.5,-4 C32.5,-9.9 27.5,-13.2 21.3,-13.2 C11.6,-13.2 0,-5 0,4.2"/>
<path class="Note" transform="matrix(0.992,0,0,0.992,2175.34,1204.6)" d="M0,4.2 C0,8.5 3.1,13.3 11.2,13.3 C21.6,13.3 32.5,4.8 32.5,-4 C32.5,-9.9 27.5,-13.2 21.3,-13.2 C11.6,-13.2 0,-5 0,4.2"/>
<path class="Note" transform="matrix(0.992,0,0,0.992,546.899,1204.6)" d="M0,4.2 C0,8.5 3.1,13.3 11.2,13.3 C21.6,13.3 32.5,4.8 32.5,-4 C32.5,-9.9 27.5,-13.2 21.3,-13.2 C11.6,-13.2 0,-5 0,4.2"/>
<path class="Note" transform="matrix(0.992,0,0,0.992,2194.87,696.198)" d="M0,4.2 C0,8.5 3.1,13.3 11.2,13.3 C21.6,13.3 32.5,4.8 32.5,-4 C32.5,-9.9 27.5,-13.2 21.3,-13.2 C11.6,-13.2 0,-5 0,4.2"/>
<path class="Note" transform="matrix(0.992,0,0,0.992,609.895,1204.6)" d="M0,4.2 C0,8.5 3.1,13.3 11.2,13.3 C21.6,13.3 32.5,4.8 32.5,-4 C32.5,-9.9 27.5,-13.2 21.3,-13.2 C11.6,-13.2 0,-5 0,4.2"/>
<path class="Note" transform="matrix(0.992,0,0,0.992,885.727,745.798)" d="M0,4.2 C0,8.5 3.1,13.3 11.2,13.3 C21.6,13.3 32.5,4.8 32.5,-4 C32.5,-9.9 27.5,-13.2 21.3,-13.2 C11.6,-13.2 0,-5 0,4.2"/>
<path class="Note" transform="matrix(0.992,0,0,0.992,2112.34,1179.8)" d="M0,4.2 C0,8.5 3.1,13.3 11.2,13.3 C21.6,13.3 32.5,4.8 32.5,-4 C32.5,-9.9 27.5,-13.2 21.3,-13.2 C11.6,-13.2 0,-5 0,4.2"/>
<path class="Note" transform="matrix(0.992,0,0,0.992,2049.35,1217)" d="M0,4.2 C0,8.5 3.1,13.3 11.2,13.3 C21.6,13.3 32.5,4.8 32.5,-4 C32.5,-9.9 27.5,-13.2 21.3,-13.2 C11.6,-13.2 0,-5 0,4.2"/>
<path class="Note" transform="matrix(0.992,0,0,0.992,998.78,745.798)" d="M0,4.2 C0,8.5 3.1,13.3 11.2,13.3 C21.6,13.3 32.5,4.8 32.5,-4 C32.5,-9.9 27.5,-13.2 21.3,-13.2 C11.6,-13.2 0,-5 0,4.2"/>
<path class="Note" transform="matrix(0.992,0,0,0.992,1986.35,1229.4)" d="M0,4.2 C0,8.5 3.1,13.3 11.2,13.3 C21.6,13.3 32.5,4.8 32.5,-4 C32.5,-9.9 27.5,-13.2 21.3,-13.2 C11.6,-13.2 0,-5 0,4.2"/>
<path class="Note" transform="matrix(0.992,0,0,0.992,1923.36,1217)" d="M0,4.2 C0,8.5 3.1,13.3 11.2,13.3 C21.6,13.3 32.5,4.8 32.5,-4 C32.5,-9.9 27.5,-13.2 21.3,-13.2 C11.6,-13.2 0,-5 0,4.2"/>
<path class="Note" transform="matrix(0.992,0,0,0.992,835.586,1167.4)" d="M0,4.2 C0,8.5 3.1,13.3 11.2,13.3 C21.6,13.3 32.5,4.8 32.5,-4 C32.5,-9.9 27.5,-13.2 21.3,-13.2 C11.6,-13.2 0,-5 0,4.2"/>
<path class="Note" transform="matrix(0.992,0,0,0.992,1074.15,758.198)" d="M0,4.2 C0,8.5 3.1,13.3 11.2,13.3 C21.6,13.3 32.5,4.8 32.5,-4 C32.5,-9.9 27.5,-13.2 21.3,-13.2 C11.6,-13.2 0,-5 0,4.2"/>
<path class="Note" transform="matrix(0.992,0,0,0.992,1149.52,745.798)" d="M0,4.2 C0,8.5 3.1,13.3 11.2,13.3 C21.6,13.3 32.5,4.8 32.5,-4 C32.5,-9.9 27.5,-13.2 21.3,-13.2 C11.6,-13.2 0,-5 0,4.2"/>
<path class="Note" transform="matrix(0.992,0,0,0.992,930.08,1167.4)" d="M0,4.2 C0,8.5 3.1,13.3 11.2,13.3 C21.6,13.3 32.5,4.8 32.5,-4 C32.5,-9.9 27.5,-13.2 21.3,-13.2 C11.6,-13.2 0,-5 0,4.2"/>
<path class="Note" transform="matrix(0.992,0,0,0.992,1603.17,1204.6)" d="M0,4.2 C0,8.5 3.1,13.3 11.2,13.3 C21.6,13.3 32.5,4.8 32.5,-4 C32.5,-9.9 27.5,-13.2 21.3,-13.2 C11.6,-13.2 0,-5 0,4.2"/>
<path class="Note" transform="matrix(0.992,0,0,0.992,1540.18,1204.6)" d="M0,4.2 C0,8.5 3.1,13.3 11.2,13.3 C21.6,13.3 32.5,4.8 32.5,-4 C32.5,-9.9 27.5,-13.2 21.3,-13.2 C11.6,-13.2 0,-5 0,4.2"/>
<path class="Note" transform="matrix(0.992,0,0,0.992,1412.33,733.398)" d="M0,4.2 C0,8.5 3.1,13.3 11.2,13.3 C21.6,13.3 32.5,4.8 32.5,-4 C32.5,-9.9 27.5,-13.2 21.3,-13.2 C11.6,-13.2 0,-5 0,4.2"/>
<path class="Note" transform="matrix(0.992,0,0,0.992,993.076,1167.4)" d="M0,4.2 C0,8.5 3.1,13.3 11.2,13.3 C21.6,13.3 32.5,4.8 32.5,-4 C32.5,-9.9 27.5,-13.2 21.3,-13.2 C11.6,-13.2 0,-5 0,4.2"/>
<path class="Note" transform="matrix(0.992,0,0,0.992,1901.41,708.598)" d="M18.7,-13.6 C4.9,-13.6 0,-6.6 0,-0.1 C0,6.4 4.9,13.4 18.7,13.4 C32.5,13.4 37.3,6.4 37.3,-0.1 C37.3,-6.6 32.5,-13.6 18.7,-13.6 M19.5,10.2 C16.7,10.2 14.8,9.4 13.5,6.9 C12.2,4.4 10.4,-2.1 10.3,-4.7 C10.1,-7.4 11.1,-9 13.5,-9.8 C14.7,-10.2 16.3,-10.4 17.9,-10.4 C20.6,-10.4 22.4,-9.8 23.8,-7.1 C25.2,-4.5 27.1,2 27.1,4.5 C27.1,9.4 23.5,10.2 19.5,10.2"/>
<path class="Note" transform="matrix(0.992,0,0,0.992,1056.07,1167.4)" d="M0,4.2 C0,8.5 3.1,13.3 11.2,13.3 C21.6,13.3 32.5,4.8 32.5,-4 C32.5,-9.9 27.5,-13.2 21.3,-13.2 C11.6,-13.2 0,-5 0,4.2"/>
<path class="Note" transform="matrix(0.992,0,0,0.992,1477.18,1204.6)" d="M0,4.2 C0,8.5 3.1,13.3 11.2,13.3 C21.6,13.3 32.5,4.8 32.5,-4 C32.5,-9.9 27.5,-13.2 21.3,-13.2 C11.6,-13.2 0,-5 0,4.2"/>
<path class="Note" transform="matrix(0.992,0,0,0.992,1414.18,1179.8)" d="M0,4.2 C0,8.5 3.1,13.3 11.2,13.3 C21.6,13.3 32.5,4.8 32.5,-4 C32.5,-9.9 27.5,-13.2 21.3,-13.2 C11.6,-13.2 0,-5 0,4.2"/>
<path class="Note" transform="matrix(0.992,0,0,0.992,1781.75,696.198)" d="M0,4.2 C0,8.5 3.1,13.3 11.2,13.3 C21.6,13.3 32.5,4.8 32.5,-4 C32.5,-9.9 27.5,-13.2 21.3,-13.2 C11.6,-13.2 0,-5 0,4.2"/>
<path class="Note" transform="matrix(0.992,0,0,0.992,1119.07,1142.6)" d="M0,4.2 C0,8.5 3.1,13.3 11.2,13.3 C21.6,13.3 32.5,4.8 32.5,-4 C32.5,-9.9 27.5,-13.2 21.3,-13.2 C11.6,-13.2 0,-5 0,4.2"/>
<path class="Note" transform="matrix(0.992,0,0,0.992,1525.38,708.598)" d="M0,4.2 C0,8.5 3.1,13.3 11.2,13.3 C21.6,13.3 32.5,4.8 32.5,-4 C32.5,-9.9 27.5,-13.2 21.3,-13.2 C11.6,-13.2 0,-5 0,4.2"/>
<path class="Note" transform="matrix(0.992,0,0,0.992,1182.06,1167.4)" d="M0,4.2 C0,8.5 3.1,13.3 11.2,13.3 C21.6,13.3 32.5,4.8 32.5,-4 C32.5,-9.9 27.5,-13.2 21.3,-13.2 C11.6,-13.2 0,-5 0,4.2"/>
<path class="Note" transform="matrix(0.992,0,0,0.992,1351.19,1167.4)" d="M0,4.2 C0,8.5 3.1,13.3 11.2,13.3 C21.6,13.3 32.5,4.8 32.5,-4 C32.5,-9.9 27.5,-13.2 21.3,-13.2 C11.6,-13.2 0,-5 0,4.2"/>
<path class="Note" transform="matrix(0.992,0,0,0.992,1638.44,696.198)" d="M0,4.2 C0,8.5 3.1,13.3 11.2,13.3 C21.6,13.3 32.5,4.8 32.5,-4 C32.5,-9.9 27.5,-13.2 21.3,-13.2 C11.6,-13.2 0,-5 0,4.2"/>
<path class="Note" transform="matrix(0.992,0,0,0.992,2609.4,696.198)" d="M0,4.2 C0,8.5 3.1,13.3 11.2,13.3 C21.6,13.3 32.5,4.8 32.5,-4 C32.5,-9.9 27.5,-13.2 21.3,-13.2 C11.6,-13.2 0,-5 0,4.2"/>
<path class="Note" transform="matrix(0.992,0,0,0.992,1828.86,1217)" d="M0,4.2 C0,8.5 3.1,13.3 11.2,13.3 C21.6,13.3 32.5,4.8 32.5,-4 C32.5,-9.9 27.5,-13.2 21.3,-13.2 C11.6,-13.2 0,-5 0,4.2"/>
<path class="Clef" transform="matrix(0.992,0,0,0.992,232.438,708.598)" d="M12.3,51.3 C12.3,57.9 17.3,66.6 30.8,66.6 C35.5,66.6 39.6,65.4 43.2,63.2 C48.6,59.4 50,52.8 50,46.5 C50,42.6 49.4,38.1 48.4,32.4 C48.1,30.4 47.5,27.4 46.9,23.5 C56.7,20.3 64,10.1 64,-0.2 C64,-15.3 53.3,-25.5 38.7,-25.5 C37.7,-31.5 36.7,-37.4 35.9,-43 C46.4,-54.1 53.7,-66.6 53.7,-82.5 C53.7,-91.6 50.9,-99 49.3,-102.6 C46.9,-107.7 44,-111.2 42.2,-111.2 C41.5,-111.2 38.4,-110 35.1,-106.1 C28.7,-98.5 26.9,-85.7 26.9,-77.3 C26.9,-71.9 27.4,-67 29.1,-55.8 C29,-55.7 23.8,-50.4 21.7,-48.7 C12.6,-40.3 0,-28.1 0,-8.1 C0,10.6 16.3,25.3 34.9,25.3 C37.8,25.3 40.5,25 42.8,24.6 C44.7,34.2 45.9,41.2 45.9,46.5 C45.9,56.9 40.5,62.4 30.4,62.4 C28,62.4 25.9,61.9 25.7,61.9 C25.6,61.8 25.4,61.7 25.4,61.6 C25.4,61.4 25.6,61.3 25.9,61.3 C30.6,60.5 35.3,56.5 35.3,50.1 C35.3,44.7 31.2,39 23.7,39 C16.7,39 12.3,44.7 12.3,51.3 M33.2,-82.2 C34.1,-86.2 38.7,-96.7 43.9,-96.7 C45.4,-96.7 47.8,-91.9 47.8,-84.9 C47.8,-74.5 40.1,-66.7 33.2,-59.9 C32.6,-63.9 32.1,-67.8 32.1,-72 C32.1,-75.7 32.4,-79.1 33.2,-82.2 M42,20.6 C40,21 38.1,21.2 36.2,21.2 C21.9,21.2 9.7,11.2 9.7,-3.9 C9.7,-16.1 18.3,-27 27.1,-34.6 C28.8,-36.1 30.4,-37.5 31.9,-39 C32.8,-33.6 33.5,-28.9 34.2,-24.8 C25.1,-22.1 18.9,-12.5 18.9,-3.1 C18.9,3.9 24.4,13.5 32.4,13.5 C33.2,13.5 34.1,13.1 34.1,12.2 C34.1,11.3 33.1,10.8 31.9,10 C28,7.6 25.8,5 25.8,0.1 C25.8,-6 30.4,-10.9 36.2,-12.3 L42,20.6 M56.2,2.1 C56.2,9.2 53.3,16.5 46.2,19.4 C44.1,7.4 41.4,-8.5 40.7,-12.9 C49.7,-12.9 56.2,-6.8 56.2,2.1"/>
<path class="Clef" transform="matrix(0.992,0,0,0.992,232.438,1179.8)" d="M12.3,51.3 C12.3,57.9 17.3,66.6 30.8,66.6 C35.5,66.6 39.6,65.4 43.2,63.2 C48.6,59.4 50,52.8 50,46.5 C50,42.6 49.4,38.1 48.4,32.4 C48.1,30.4 47.5,27.4 46.9,23.5 C56.7,20.3 64,10.1 64,-0.2 C64,-15.3 53.3,-25.5 38.7,-25.5 C37.7,-31.5 36.7,-37.4 35.9,-43 C46.4,-54.1 53.7,-66.6 53.7,-82.5 C53.7,-91.6 50.9,-99 49.3,-102.6 C46.9,-107.7 44,-111.2 42.2,-111.2 C41.5,-111.2 38.4,-110 35.1,-106.1 C28.7,-98.5 26.9,-85.7 26.9,-77.3 C26.9,-71.9 27.4,-67 29.1,-55.8 C29,-55.7 23.8,-50.4 21.7,-48.7 C12.6,-40.3 0,-28.1 0,-8.1 C0,10.6 16.3,25.3 34.9,25.3 C37.8,25.3 40.5,25 42.8,24.6 C44.7,34.2 45.9,41.2 45.9,46.5 C45.9,56.9 40.5,62.4 30.4,62.4 C28,62.4 25.9,61.9 25.7,61.9 C25.6,61.8 25.4,61.7 25.4,61.6 C25.4,61.4 25.6,61.3 25.9,61.3 C30.6,60.5 35.3,56.5 35.3,50.1 C35.3,44.7 31.2,39 23.7,39 C16.7,39 12.3,44.7 12.3,51.3 M33.2,-82.2 C34.1,-86.2 38.7,-96.7 43.9,-96.7 C45.4,-96.7 47.8,-91.9 47.8,-84.9 C47.8,-74.5 40.1,-66.7 33.2,-59.9 C32.6,-63.9 32.1,-67.8 32.1,-72 C32.1,-75.7 32.4,-79.1 33.2,-82.2 M42,20.6 C40,21 38.1,21.2 36.2,21.2 C21.9,21.2 9.7,11.2 9.7,-3.9 C9.7,-16.1 18.3,-27 27.1,-34.6 C28.8,-36.1 30.4,-37.5 31.9,-39 C32.8,-33.6 33.5,-28.9 34.2,-24.8 C25.1,-22.1 18.9,-12.5 18.9,-3.1 C18.9,3.9 24.4,13.5 32.4,13.5 C33.2,13.5 34.1,13.1 34.1,12.2 C34.1,11.3 33.1,10.8 31.9,10 C28,7.6 25.8,5 25.8,0.1 C25.8,-6 30.4,-10.9 36.2,-12.3 L42,20.6 M56.2,2.1 C56.2,9.2 53.3,16.5 46.2,19.4 C44.1,7.4 41.4,-8.5 40.7,-12.9 C49.7,-12.9 56.2,-6.8 56.2,2.1"/>
<path class="TimeSig" transform="matrix(0.992,0,0,0.992,319.331,658.998)" d="M20.8,12.7 L20.8,20.1 L12.5,20.1 C11.8,20.1 11.1,20.7 11.1,21.5 L11.1,23.4 C11.1,24.2 11.8,24.8 12.5,24.8 L42.8,24.8 C43.6,24.8 44.2,24.2 44.2,23.4 L44.2,21.5 C44.2,20.7 43.6,20.1 42.8,20.1 L33.9,20.1 L33.9,12.7 L42.8,12.7 C43.6,12.7 44.2,12 44.2,11.2 L44.2,9.3 C44.2,8.6 43.6,7.9 42.8,7.9 L33.9,7.9 L33.9,-8 C33.9,-8.6 33.6,-9.1 33.1,-9.3 L31.9,-9.9 C31.7,-10 31.4,-10.1 31.2,-10.1 C30.9,-10 30.5,-9.9 30.3,-9.7 L21.2,-1.4 C20.9,-1.1 20.8,-0.7 20.8,-0.3 L20.8,7.9 L9.3,7.9 C9.3,7.9 20.4,-4.1 32.2,-19.9 C32.6,-20.4 32.7,-20.9 32.7,-21.3 C32.7,-21.8 32.5,-22.2 32.4,-22.3 L30.2,-24.5 C30,-24.7 29.6,-24.9 29.2,-24.9 C28.6,-24.9 15.1,-24.9 14.4,-24.9 C13.6,-24.9 13.1,-24.3 13,-23.7 C13,-23.7 12.5,-16.3 9.9,-8.2 C7.3,-0.1 4.3,4.9 1.7,8.6 C1.7,8.6 1.4,9.1 1.4,9.7 C1.4,9.9 1.4,10.1 1.5,10.3 C1.9,11 2.5,12.1 2.5,12.1 C2.5,12.1 2.7,12.7 3.6,12.7 L20.8,12.7 "/>
<path class="TimeSig" transform="matrix(0.992,0,0,0.992,319.331,708.598)" d="M20.8,12.7 L20.8,20.1 L12.5,20.1 C11.8,20.1 11.1,20.7 11.1,21.5 L11.1,23.4 C11.1,24.2 11.8,24.8 12.5,24.8 L42.8,24.8 C43.6,24.8 44.2,24.2 44.2,23.4 L44.2,21.5 C44.2,20.7 43.6,20.1 42.8,20.1 L33.9,20.1 L33.9,12.7 L42.8,12.7 C43.6,12.7 44.2,12 44.2,11.2 L44.2,9.3 C44.2,8.6 43.6,7.9 42.8,7.9 L33.9,7.9 L33.9,-8 C33.9,-8.6 33.6,-9.1 33.1,-9.3 L31.9,-9.9 C31.7,-10 31.4,-10.1 31.2,-10.1 C30.9,-10 30.5,-9.9 30.3,-9.7 L21.2,-1.4 C20.9,-1.1 20.8,-0.7 20.8,-0.3 L20.8,7.9 L9.3,7.9 C9.3,7.9 20.4,-4.1 32.2,-19.9 C32.6,-20.4 32.7,-20.9 32.7,-21.3 C32.7,-21.8 32.5,-22.2 32.4,-22.3 L30.2,-24.5 C30,-24.7 29.6,-24.9 29.2,-24.9 C28.6,-24.9 15.1,-24.9 14.4,-24.9 C13.6,-24.9 13.1,-24.3 13,-23.7 C13,-23.7 12.5,-16.3 9.9,-8.2 C7.3,-0.1 4.3,4.9 1.7,8.6 C1.7,8.6 1.4,9.1 1.4,9.7 C1.4,9.9 1.4,10.1 1.5,10.3 C1.9,11 2.5,12.1 2.5,12.1 C2.5,12.1 2.7,12.7 3.6,12.7 L20.8,12.7 "/>
<path class="Rest" transform="matrix(0.992,0,0,0.992,704.388,1155)" d="M23,16.6 C22.9,16.5 22.7,16.3 22.4,15.9 L10.9,1.7 C10.8,1.6 10.7,1.3 10.7,1.1 C10.7,0.8 10.8,0.4 10.9,0.2 L21.1,-15.2 C21.2,-15.4 21.3,-15.7 21.3,-15.9 L21.3,-16.8 C21.3,-17.1 21.2,-17.4 21,-17.6 L4.8,-39.5 C4.8,-39.5 4.4,-40.1 3.8,-40.1 C3.5,-40.1 3.3,-40.1 3,-39.8 C2.6,-39.5 2.5,-39.1 2.5,-38.8 C2.5,-38.2 2.8,-37.7 2.8,-37.7 L10.4,-27.3 C10.6,-27 10.7,-26.6 10.7,-26.1 C10.7,-25.7 10.6,-25.2 10.4,-24.9 L0.3,-9.5 C0.2,-9.3 0.1,-8.9 0.1,-8.7 L0.1,-7.8 C0.1,-7.5 0.2,-7.2 0.4,-7 L11.6,6.9 C11.2,6.8 10.3,6.6 9.1,6.6 C4,6.6 0,10.8 0,15.9 C0,17.3 0.3,18.7 1.1,19.8 C3.2,23 10.7,32.5 10.7,32.5 C10.7,32.5 11.2,33.1 11.9,33.1 C12.1,33.1 12.3,33.1 12.5,32.9 C13,32.5 13.2,32.1 13.2,31.7 C13.2,31.3 13,31 12.9,30.8 C12.6,30.3 9.4,24.5 9.4,24.5 C9.4,24.5 8.7,23.1 8.7,21.3 C8.7,18.1 11.1,15.5 14.3,15.5 C15.6,15.5 16.7,15.9 17.5,16.4 L21.4,18.9 C21.4,18.9 21.8,19.1 22.2,19.1 C22.6,19.1 22.9,19 23.2,18.6 C23.4,18.3 23.5,18 23.5,17.7 C23.5,17.4 23.4,17.2 23.2,16.9 L23,16.6 "/>
<path class="Rest" transform="matrix(0.992,0,0,0.992,1697.67,1155)" d="M23,16.6 C22.9,16.5 22.7,16.3 22.4,15.9 L10.9,1.7 C10.8,1.6 10.7,1.3 10.7,1.1 C10.7,0.8 10.8,0.4 10.9,0.2 L21.1,-15.2 C21.2,-15.4 21.3,-15.7 21.3,-15.9 L21.3,-16.8 C21.3,-17.1 21.2,-17.4 21,-17.6 L4.8,-39.5 C4.8,-39.5 4.4,-40.1 3.8,-40.1 C3.5,-40.1 3.3,-40.1 3,-39.8 C2.6,-39.5 2.5,-39.1 2.5,-38.8 C2.5,-38.2 2.8,-37.7 2.8,-37.7 L10.4,-27.3 C10.6,-27 10.7,-26.6 10.7,-26.1 C10.7,-25.7 10.6,-25.2 10.4,-24.9 L0.3,-9.5 C0.2,-9.3 0.1,-8.9 0.1,-8.7 L0.1,-7.8 C0.1,-7.5 0.2,-7.2 0.4,-7 L11.6,6.9 C11.2,6.8 10.3,6.6 9.1,6.6 C4,6.6 0,10.8 0,15.9 C0,17.3 0.3,18.7 1.1,19.8 C3.2,23 10.7,32.5 10.7,32.5 C10.7,32.5 11.2,33.1 11.9,33.1 C12.1,33.1 12.3,33.1 12.5,32.9 C13,32.5 13.2,32.1 13.2,31.7 C13.2,31.3 13,31 12.9,30.8 C12.6,30.3 9.4,24.5 9.4,24.5 C9.4,24.5 8.7,23.1 8.7,21.3 C8.7,18.1 11.1,15.5 14.3,15.5 C15.6,15.5 16.7,15.9 17.5,16.4 L21.4,18.9 C21.4,18.9 21.8,19.1 22.2,19.1 C22.6,19.1 22.9,19 23.2,18.6 C23.4,18.3 23.5,18 23.5,17.7 C23.5,17.4 23.4,17.2 23.2,16.9 L23,16.6 "/>
<path class="Rest" transform="matrix(0.992,0,0,0.992,1262.57,683.798)" d="M23,16.6 C22.9,16.5 22.7,16.3 22.4,15.9 L10.9,1.7 C10.8,1.6 10.7,1.3 10.7,1.1 C10.7,0.8 10.8,0.4 10.9,0.2 L21.1,-15.2 C21.2,-15.4 21.3,-15.7 21.3,-15.9 L21.3,-16.8 C21.3,-17.1 21.2,-17.4 21,-17.6 L4.8,-39.5 C4.8,-39.5 4.4,-40.1 3.8,-40.1 C3.5,-40.1 3.3,-40.1 3,-39.8 C2.6,-39.5 2.5,-39.1 2.5,-38.8 C2.5,-38.2 2.8,-37.7 2.8,-37.7 L10.4,-27.3 C10.6,-27 10.7,-26.6 10.7,-26.1 C10.7,-25.7 10.6,-25.2 10.4,-24.9 L0.3,-9.5 C0.2,-9.3 0.1,-8.9 0.1,-8.7 L0.1,-7.8 C0.1,-7.5 0.2,-7.2 0.4,-7 L11.6,6.9 C11.2,6.8 10.3,6.6 9.1,6.6 C4,6.6 0,10.8 0,15.9 C0,17.3 0.3,18.7 1.1,19.8 C3.2,23 10.7,32.5 10.7,32.5 C10.7,32.5 11.2,33.1 11.9,33.1 C12.1,33.1 12.3,33.1 12.5,32.9 C13,32.5 13.2,32.1 13.2,31.7 C13.2,31.3 13,31 12.9,30.8 C12.6,30.3 9.4,24.5 9.4,24.5 C9.4,24.5 8.7,23.1 8.7,21.3 C8.7,18.1 11.1,15.5 14.3,15.5 C15.6,15.5 16.7,15.9 17.5,16.4 L21.4,18.9 C21.4,18.9 21.8,19.1 22.2,19.1 C22.6,19.1 22.9,19 23.2,18.6 C23.4,18.3 23.5,18 23.5,17.7 C23.5,17.4 23.4,17.2 23.2,16.9 L23,16.6 "/>
<path class="Beam" fill-rule="evenodd" d="M1380.68,1092.99 L1572.4,1105.39 L1572.4,1117.81 L1380.68,1105.41 L1380.68,1092.99 "/>
<path class="Beam" fill-rule="evenodd" d="M2488.16,596.998 L2716.99,596.998 L2716.99,609.398 L2488.16,609.398 L2488.16,596.998 "/>
<path class="Beam" fill-rule="evenodd" d="M1085.57,1068.2 L1277.28,1068.2 L1277.28,1080.6 L1085.57,1080.6 L1085.57,1068.2 "/>
<path class="Beam" fill-rule="evenodd" d="M387.407,1092.99 L579.123,1105.39 L579.123,1117.81 L387.407,1105.41 L387.407,1092.99 "/>
<path class="Beam" fill-rule="evenodd" d="M2373.96,1148.8 L2565.68,1148.8 L2565.68,1161.2 L2373.96,1161.2 L2373.96,1148.8 "/>
<path class="Beam" fill-rule="evenodd" d="M2337.42,621.798 L2415.52,621.798 L2415.52,634.198 L2337.42,634.198 L2337.42,621.798 "/>
<path class="Beam" fill-rule="evenodd" d="M959.577,1093 L1025.3,1093 L1025.3,1105.4 L959.577,1105.4 L959.577,1093 "/>
<path class="Beam" fill-rule="evenodd" d="M2078.85,1099.2 L2270.56,1099.2 L2270.56,1111.6 L2078.85,1111.6 L2078.85,1099.2 "/>
<path class="Beam" fill-rule="evenodd" d="M1028.28,671.379 L1106.37,677.579 L1106.37,690.018 L1028.28,683.818 L1028.28,671.379 "/>
<path class="Beam" fill-rule="evenodd" d="M1952.85,1142.57 L2018.58,1148.77 L2018.58,1161.23 L1952.85,1155.03 L1952.85,1142.57 "/>
<path class="Harmony" d="M2642.13,532.488 L2609.4,532.488 L2609.4,535.073 L2610.39,535.073 C2613.53,535.128 2614.57,535.293 2615.01,535.843 C2615.34,536.338 2615.34,536.448 2615.34,539.253 L2615.34,565.433 C2615.34,568.238 2615.34,568.348 2615.01,568.843 C2614.57,569.393 2613.53,569.613 2610.39,569.613 L2609.4,569.613 L2609.4,572.198 L2628.27,572.198 L2628.27,569.613 L2626.45,569.613 C2623.32,569.613 2622.27,569.393 2621.83,568.843 C2621.5,568.348 2621.5,568.183 2621.5,565.433 L2621.5,552.948 L2622.6,552.948 C2628.27,552.728 2630.3,554.763 2630.52,560.868 L2633.11,560.868 L2633.11,542.828 L2630.52,542.828 C2630.19,548.218 2628.05,550.308 2622.82,550.363 L2621.5,550.363 L2621.5,537.823 C2621.45,535.513 2622,535.128 2624.97,535.073 L2627.5,535.073 C2636.52,535.018 2638.77,537.053 2640.48,546.513 L2642.9,546.513 L2642.13,532.488 "/>
<path class="Harmony" d="M1671.16,532.488 L1638.44,532.488 L1638.44,535.073 L1639.43,535.073 C1642.56,535.128 1643.61,535.293 1644.05,535.843 C1644.38,536.338 1644.38,536.448 1644.38,539.253 L1644.38,565.433 C1644.38,568.238 1644.38,568.348 1644.05,568.843 C1643.61,569.393 1642.56,569.613 1639.43,569.613 L1638.44,569.613 L1638.44,572.198 L1657.3,572.198 L1657.3,569.613 L1655.49,569.613 C1652.35,569.613 1651.31,569.393 1650.87,568.843 C1650.54,568.348 1650.54,568.183 1650.54,565.433 L1650.54,552.948 L1651.64,552.948 C1657.3,552.728 1659.34,554.763 1659.56,560.868 L1662.14,560.868 L1662.14,542.828 L1659.56,542.828 C1659.23,548.218 1657.08,550.308 1651.86,550.363 L1650.54,550.363 L1650.54,537.823 C1650.48,535.513 1651.03,535.128 1654,535.073 L1656.53,535.073 C1665.55,535.018 1667.81,537.053 1669.51,546.513 L1671.93,546.513 L1671.16,532.488 "/>
<path class="Harmony" d="M1862.32,1003.3 L1860.23,1003.3 L1858.08,1006.6 C1854.51,1003.8 1852.09,1002.86 1848.07,1002.86 C1843.73,1002.86 1840.32,1004.07 1836.85,1006.88 C1831.41,1011.28 1828.88,1016.83 1828.88,1024.26 C1828.88,1029.87 1830.47,1034.54 1833.72,1038.12 C1837.13,1041.97 1842.19,1044.22 1847.47,1044.22 C1852.09,1044.22 1855.33,1042.79 1858.91,1039.22 L1860.94,1044.17 L1863.25,1044.17 L1863.25,1032.07 C1863.25,1029.26 1863.25,1029.15 1863.58,1028.66 C1864.08,1028.05 1865.07,1027.89 1868.2,1027.89 L1869.03,1027.89 L1869.03,1025.3 L1851.54,1025.3 L1851.54,1027.89 L1852.58,1027.89 C1857.2,1027.89 1857.59,1028.16 1857.59,1031.24 C1857.59,1033.61 1857.2,1035.75 1856.49,1037.07 C1855.11,1039.77 1851.59,1041.64 1848.02,1041.64 C1844.44,1041.64 1840.92,1039.82 1839.05,1037.07 C1837.02,1033.99 1836.14,1030.14 1836.14,1024.26 C1836.14,1011.99 1840.21,1005.45 1847.85,1005.45 C1854.12,1005.45 1858.47,1009.96 1860.72,1018.76 L1863.09,1018.76 L1862.32,1003.3 "/>
<path class="Harmony" d="M1875.05,1017.99 L1877.47,1018.37 L1878.46,1014.03 C1879.28,1010.4 1879.67,1009.85 1881.26,1009.85 C1881.54,1009.85 1881.98,1009.85 1882.47,1009.9 C1889.24,1010.23 1889.24,1010.23 1891.77,1010.23 C1892.48,1010.23 1893.75,1010.23 1895.29,1010.18 L1891.55,1017.71 C1887.48,1025.8 1886.98,1026.79 1885.61,1030.2 C1883.9,1034.32 1883.02,1037.79 1883.02,1040.1 C1883.02,1042.63 1884.34,1044.17 1886.49,1044.17 C1889.13,1044.17 1890.17,1042.41 1890.12,1037.62 C1889.84,1029.7 1890.83,1025.85 1896.72,1012.98 C1897.71,1010.84 1898.75,1008.64 1899.74,1006.49 L1899.74,1004.9 C1896.44,1005.17 1894.68,1005.28 1891.27,1005.28 C1886.49,1005.28 1882.69,1005.12 1876.75,1004.68 L1875.05,1017.99 "/>
<path class="Harmony" d="M868.312,1003.69 L835.587,1003.69 L835.587,1006.27 L836.577,1006.27 C839.712,1006.33 840.757,1006.49 841.197,1007.04 C841.527,1007.54 841.527,1007.65 841.527,1010.45 L841.527,1036.63 C841.527,1039.44 841.527,1039.55 841.197,1040.04 C840.757,1040.59 839.712,1040.81 836.577,1040.81 L835.587,1040.81 L835.587,1043.4 L854.452,1043.4 L854.452,1040.81 L852.637,1040.81 C849.502,1040.81 848.457,1040.59 848.017,1040.04 C847.687,1039.55 847.687,1039.38 847.687,1036.63 L847.687,1024.15 L848.787,1024.15 C854.452,1023.93 856.487,1025.96 856.707,1032.07 L859.292,1032.07 L859.292,1014.03 L856.707,1014.03 C856.377,1019.42 854.232,1021.51 849.007,1021.56 L847.687,1021.56 L847.687,1009.02 C847.632,1006.71 848.182,1006.33 851.152,1006.27 L853.682,1006.27 C862.702,1006.22 864.957,1008.25 866.662,1017.71 L869.082,1017.71 L868.312,1003.69 "/>
<path class="Harmony" d="M2063.66,532.103 L2061.57,532.103 L2059.37,535.348 C2055.35,532.433 2053.32,531.663 2049.52,531.663 C2044.3,531.663 2039.84,533.863 2036.16,538.263 C2032.64,542.443 2030.99,547.063 2030.99,552.728 C2030.99,564.608 2038.74,573.023 2049.58,573.023 C2058.38,573.023 2063.99,567.853 2065.25,558.613 L2062.67,558.173 C2061.18,566.368 2057,570.438 2050.24,570.438 C2042.1,570.438 2038.25,564.828 2038.25,552.948 C2038.25,546.678 2039.07,542.553 2040.94,539.253 C2042.65,536.173 2046,534.248 2049.58,534.248 C2053.43,534.248 2056.84,536.283 2058.93,539.803 C2059.97,541.618 2060.74,543.653 2062.06,547.998 L2064.48,547.998 L2063.66,532.103 "/>
<path class="Harmony" d="M1182.97,532.103 L1180.88,532.103 L1178.74,535.403 C1175.16,532.598 1172.74,531.663 1168.73,531.663 C1164.38,531.663 1160.97,532.873 1157.51,535.678 C1152.06,540.078 1149.53,545.633 1149.53,553.058 C1149.53,558.668 1151.13,563.343 1154.37,566.918 C1157.78,570.768 1162.84,573.023 1168.12,573.023 C1172.74,573.023 1175.99,571.593 1179.56,568.018 L1181.6,572.968 L1183.91,572.968 L1183.91,560.868 C1183.91,558.063 1183.91,557.953 1184.24,557.458 C1184.73,556.853 1185.72,556.688 1188.86,556.688 L1189.68,556.688 L1189.68,554.103 L1172.19,554.103 L1172.19,556.688 L1173.24,556.688 C1177.86,556.688 1178.24,556.963 1178.24,560.043 C1178.24,562.408 1177.86,564.553 1177.14,565.873 C1175.77,568.568 1172.25,570.438 1168.67,570.438 C1165.1,570.438 1161.58,568.623 1159.71,565.873 C1157.67,562.793 1156.79,558.943 1156.79,553.058 C1156.79,540.793 1160.86,534.248 1168.51,534.248 C1174.78,534.248 1179.12,538.758 1181.38,547.558 L1183.74,547.558 L1182.97,532.103 "/>
<path class="Harmony" d="M1195.7,546.788 L1198.12,547.173 L1199.11,542.828 C1199.94,539.198 1200.32,538.648 1201.92,538.648 C1202.19,538.648 1202.63,538.648 1203.13,538.703 C1209.89,539.033 1209.89,539.033 1212.42,539.033 C1213.14,539.033 1214.4,539.033 1215.94,538.978 L1212.2,546.513 C1208.13,554.598 1207.64,555.588 1206.26,558.998 C1204.56,563.123 1203.68,566.588 1203.68,568.898 C1203.68,571.428 1205,572.968 1207.14,572.968 C1209.78,572.968 1210.83,571.208 1210.77,566.423 C1210.5,558.503 1211.49,554.653 1217.37,541.783 C1218.36,539.638 1219.41,537.438 1220.4,535.293 L1220.4,533.698 C1217.1,533.973 1215.34,534.083 1211.93,534.083 C1207.14,534.083 1203.35,533.918 1197.41,533.478 L1195.7,546.788 "/>
<path class="Harmony" d="M1956.81,1003.3 L1954.72,1003.3 L1952.58,1006.6 C1949,1003.8 1946.58,1002.86 1942.57,1002.86 C1938.22,1002.86 1934.81,1004.07 1931.35,1006.88 C1925.9,1011.28 1923.37,1016.83 1923.37,1024.26 C1923.37,1029.87 1924.97,1034.54 1928.21,1038.12 C1931.62,1041.97 1936.68,1044.22 1941.96,1044.22 C1946.58,1044.22 1949.83,1042.79 1953.4,1039.22 L1955.44,1044.17 L1957.75,1044.17 L1957.75,1032.07 C1957.75,1029.26 1957.75,1029.15 1958.08,1028.66 C1958.57,1028.05 1959.56,1027.89 1962.7,1027.89 L1963.52,1027.89 L1963.52,1025.3 L1946.03,1025.3 L1946.03,1027.89 L1947.08,1027.89 C1951.7,1027.89 1952.08,1028.16 1952.08,1031.24 C1952.08,1033.61 1951.7,1035.75 1950.98,1037.07 C1949.61,1039.77 1946.09,1041.64 1942.51,1041.64 C1938.94,1041.64 1935.42,1039.82 1933.55,1037.07 C1931.51,1033.99 1930.63,1030.14 1930.63,1024.26 C1930.63,1011.99 1934.7,1005.45 1942.35,1005.45 C1948.62,1005.45 1952.96,1009.96 1955.22,1018.76 L1957.58,1018.76 L1956.81,1003.3 "/>
<path class="Harmony" d="M1969.54,1017.99 L1971.96,1018.37 L1972.95,1014.03 C1973.77,1010.4 1974.16,1009.85 1975.75,1009.85 C1976.03,1009.85 1976.47,1009.85 1976.96,1009.9 C1983.73,1010.23 1983.73,1010.23 1986.26,1010.23 C1986.97,1010.23 1988.24,1010.23 1989.78,1010.18 L1986.04,1017.71 C1981.97,1025.8 1981.47,1026.79 1980.1,1030.2 C1978.39,1034.32 1977.51,1037.79 1977.51,1040.1 C1977.51,1042.63 1978.83,1044.17 1980.98,1044.17 C1983.62,1044.17 1984.66,1042.41 1984.61,1037.62 C1984.33,1029.7 1985.32,1025.85 1991.21,1012.98 C1992.2,1010.84 1993.24,1008.64 1994.23,1006.49 L1994.23,1004.9 C1990.93,1005.17 1989.17,1005.28 1985.76,1005.28 C1980.98,1005.28 1977.18,1005.12 1971.24,1004.68 L1969.54,1017.99 "/>
<path class="Harmony" d="M1032.23,532.103 L1030.14,532.103 L1028,535.403 C1024.42,532.598 1022,531.663 1017.99,531.663 C1013.64,531.663 1010.23,532.873 1006.77,535.678 C1001.32,540.078 998.793,545.633 998.793,553.058 C998.793,558.668 1000.39,563.343 1003.63,566.918 C1007.04,570.768 1012.1,573.023 1017.38,573.023 C1022,573.023 1025.25,571.593 1028.82,568.018 L1030.86,572.968 L1033.17,572.968 L1033.17,560.868 C1033.17,558.063 1033.17,557.953 1033.5,557.458 C1033.99,556.853 1034.98,556.688 1038.12,556.688 L1038.94,556.688 L1038.94,554.103 L1021.45,554.103 L1021.45,556.688 L1022.5,556.688 C1027.12,556.688 1027.5,556.963 1027.5,560.043 C1027.5,562.408 1027.12,564.553 1026.4,565.873 C1025.03,568.568 1021.51,570.438 1017.93,570.438 C1014.36,570.438 1010.84,568.623 1008.97,565.873 C1006.93,562.793 1006.05,558.943 1006.05,553.058 C1006.05,540.793 1010.12,534.248 1017.77,534.248 C1024.04,534.248 1028.38,538.758 1030.64,547.558 L1033,547.558 L1032.23,532.103 "/>
<path class="Harmony" d="M1044.96,546.788 L1047.38,547.173 L1048.37,542.828 C1049.2,539.198 1049.58,538.648 1051.18,538.648 C1051.45,538.648 1051.89,538.648 1052.39,538.703 C1059.15,539.033 1059.15,539.033 1061.68,539.033 C1062.4,539.033 1063.66,539.033 1065.2,538.978 L1061.46,546.513 C1057.39,554.598 1056.9,555.588 1055.52,558.998 C1053.82,563.123 1052.94,566.588 1052.94,568.898 C1052.94,571.428 1054.26,572.968 1056.4,572.968 C1059.04,572.968 1060.09,571.208 1060.03,566.423 C1059.76,558.503 1060.75,554.653 1066.63,541.783 C1067.62,539.638 1068.67,537.438 1069.66,535.293 L1069.66,533.698 C1066.36,533.973 1064.6,534.083 1061.19,534.083 C1056.4,534.083 1052.61,533.918 1046.67,533.478 L1044.96,546.788 "/>
<path class="Harmony" d="M1730.34,1003.3 L1728.25,1003.3 L1726.05,1006.55 C1722.04,1003.63 1720,1002.86 1716.21,1002.86 C1710.98,1002.86 1706.53,1005.06 1702.84,1009.46 C1699.32,1013.64 1697.67,1018.26 1697.67,1023.93 C1697.67,1035.81 1705.43,1044.22 1716.26,1044.22 C1725.06,1044.22 1730.67,1039.05 1731.94,1029.81 L1729.35,1029.37 C1727.87,1037.57 1723.69,1041.64 1716.92,1041.64 C1708.78,1041.64 1704.93,1036.03 1704.93,1024.15 C1704.93,1017.88 1705.76,1013.75 1707.63,1010.45 C1709.33,1007.37 1712.69,1005.45 1716.26,1005.45 C1720.11,1005.45 1723.52,1007.48 1725.61,1011 C1726.66,1012.82 1727.43,1014.85 1728.75,1019.2 L1731.17,1019.2 L1730.34,1003.3 "/>
<path class="Harmony" d="M2127.25,532.103 L2125.16,532.103 L2122.96,535.348 C2118.95,532.433 2116.91,531.663 2113.12,531.663 C2107.89,531.663 2103.44,533.863 2099.75,538.263 C2096.23,542.443 2094.58,547.063 2094.58,552.728 C2094.58,564.608 2102.34,573.023 2113.17,573.023 C2121.97,573.023 2127.58,567.853 2128.85,558.613 L2126.26,558.173 C2124.78,566.368 2120.6,570.438 2113.83,570.438 C2105.69,570.438 2101.84,564.828 2101.84,552.948 C2101.84,546.678 2102.67,542.553 2104.54,539.253 C2106.24,536.173 2109.6,534.248 2113.17,534.248 C2117.02,534.248 2120.43,536.283 2122.52,539.803 C2123.57,541.618 2124.34,543.653 2125.66,547.998 L2128.08,547.998 L2127.25,532.103 "/>
<path class="Harmony" d="M2629.13,1003.3 L2627.04,1003.3 L2624.84,1006.55 C2620.82,1003.63 2618.79,1002.86 2614.99,1002.86 C2609.77,1002.86 2605.31,1005.06 2601.63,1009.46 C2598.11,1013.64 2596.46,1018.26 2596.46,1023.93 C2596.46,1035.81 2604.21,1044.22 2615.05,1044.22 C2623.85,1044.22 2629.46,1039.05 2630.72,1029.81 L2628.14,1029.37 C2626.65,1037.57 2622.47,1041.64 2615.71,1041.64 C2607.57,1041.64 2603.72,1036.03 2603.72,1024.15 C2603.72,1017.88 2604.54,1013.75 2606.41,1010.45 C2608.12,1007.37 2611.47,1005.45 2615.05,1005.45 C2618.9,1005.45 2622.31,1007.48 2624.4,1011 C2625.44,1012.82 2626.21,1014.85 2627.53,1019.2 L2629.95,1019.2 L2629.13,1003.3 "/>
<path class="Harmony" d="M737.065,1003.3 L734.975,1003.3 L732.775,1006.55 C728.76,1003.63 726.725,1002.86 722.93,1002.86 C717.705,1002.86 713.25,1005.06 709.565,1009.46 C706.045,1013.64 704.395,1018.26 704.395,1023.93 C704.395,1035.81 712.15,1044.22 722.985,1044.22 C731.785,1044.22 737.395,1039.05 738.66,1029.81 L736.075,1029.37 C734.59,1037.57 730.41,1041.64 723.645,1041.64 C715.505,1041.64 711.655,1036.03 711.655,1024.15 C711.655,1017.88 712.48,1013.75 714.35,1010.45 C716.055,1007.37 719.41,1005.45 722.985,1005.45 C726.835,1005.45 730.245,1007.48 732.335,1011 C733.38,1012.82 734.15,1014.85 735.47,1019.2 L737.89,1019.2 L737.065,1003.3 "/>
<path class="Harmony" d="M1635.85,1003.3 L1633.76,1003.3 L1631.56,1006.55 C1627.54,1003.63 1625.51,1002.86 1621.71,1002.86 C1616.49,1002.86 1612.03,1005.06 1608.35,1009.46 C1604.83,1013.64 1603.18,1018.26 1603.18,1023.93 C1603.18,1035.81 1610.93,1044.22 1621.77,1044.22 C1630.57,1044.22 1636.18,1039.05 1637.44,1029.81 L1634.86,1029.37 C1633.37,1037.57 1629.19,1041.64 1622.43,1041.64 C1614.29,1041.64 1610.44,1036.03 1610.44,1024.15 C1610.44,1017.88 1611.26,1013.75 1613.13,1010.45 C1614.84,1007.37 1618.19,1005.45 1621.77,1005.45 C1625.62,1005.45 1629.03,1007.48 1631.12,1011 C1632.16,1012.82 1632.93,1014.85 1634.25,1019.2 L1636.67,1019.2 L1635.85,1003.3 "/>
<path class="Harmony" d="M2082.8,1003.3 L2080.71,1003.3 L2078.57,1006.6 C2074.99,1003.8 2072.57,1002.86 2068.56,1002.86 C2064.21,1002.86 2060.8,1004.07 2057.34,1006.88 C2051.89,1011.28 2049.36,1016.83 2049.36,1024.26 C2049.36,1029.87 2050.96,1034.54 2054.2,1038.12 C2057.61,1041.97 2062.67,1044.22 2067.95,1044.22 C2072.57,1044.22 2075.82,1042.79 2079.39,1039.22 L2081.43,1044.17 L2083.74,1044.17 L2083.74,1032.07 C2083.74,1029.26 2083.74,1029.15 2084.07,1028.66 C2084.56,1028.05 2085.55,1027.89 2088.69,1027.89 L2089.51,1027.89 L2089.51,1025.3 L2072.02,1025.3 L2072.02,1027.89 L2073.07,1027.89 C2077.69,1027.89 2078.07,1028.16 2078.07,1031.24 C2078.07,1033.61 2077.69,1035.75 2076.97,1037.07 C2075.6,1039.77 2072.08,1041.64 2068.5,1041.64 C2064.93,1041.64 2061.41,1039.82 2059.54,1037.07 C2057.5,1033.99 2056.62,1030.14 2056.62,1024.26 C2056.62,1011.99 2060.69,1005.45 2068.34,1005.45 C2074.61,1005.45 2078.95,1009.96 2081.21,1018.76 L2083.57,1018.76 L2082.8,1003.3 "/>
<path class="Harmony" d="M2095.53,1017.99 L2097.95,1018.37 L2098.94,1014.03 C2099.77,1010.4 2100.15,1009.85 2101.75,1009.85 C2102.02,1009.85 2102.46,1009.85 2102.96,1009.9 C2109.72,1010.23 2109.72,1010.23 2112.25,1010.23 C2112.97,1010.23 2114.23,1010.23 2115.77,1010.18 L2112.03,1017.71 C2107.96,1025.8 2107.47,1026.79 2106.09,1030.2 C2104.39,1034.32 2103.51,1037.79 2103.51,1040.1 C2103.51,1042.63 2104.83,1044.17 2106.97,1044.17 C2109.61,1044.17 2110.66,1042.41 2110.6,1037.62 C2110.33,1029.7 2111.32,1025.85 2117.2,1012.98 C2118.19,1010.84 2119.24,1008.64 2120.23,1006.49 L2120.23,1004.9 C2116.93,1005.17 2115.17,1005.28 2111.76,1005.28 C2106.97,1005.28 2103.18,1005.12 2097.24,1004.68 L2095.53,1017.99 "/>
<path class="Harmony" d="M919.18,532.103 L917.09,532.103 L914.945,535.403 C911.37,532.598 908.95,531.663 904.935,531.663 C900.59,531.663 897.18,532.873 893.715,535.678 C888.27,540.078 885.74,545.633 885.74,553.058 C885.74,558.668 887.335,563.343 890.58,566.918 C893.99,570.768 899.05,573.023 904.33,573.023 C908.95,573.023 912.195,571.593 915.77,568.018 L917.805,572.968 L920.115,572.968 L920.115,560.868 C920.115,558.063 920.115,557.953 920.445,557.458 C920.94,556.853 921.93,556.688 925.065,556.688 L925.89,556.688 L925.89,554.103 L908.4,554.103 L908.4,556.688 L909.445,556.688 C914.065,556.688 914.45,556.963 914.45,560.043 C914.45,562.408 914.065,564.553 913.35,565.873 C911.975,568.568 908.455,570.438 904.88,570.438 C901.305,570.438 897.785,568.623 895.915,565.873 C893.88,562.793 893,558.943 893,553.058 C893,540.793 897.07,534.248 904.715,534.248 C910.985,534.248 915.33,538.758 917.585,547.558 L919.95,547.558 L919.18,532.103 "/>
<path class="Harmony" d="M931.909,546.788 L934.329,547.173 L935.319,542.828 C936.144,539.198 936.529,538.648 938.124,538.648 C938.399,538.648 938.839,538.648 939.334,538.703 C946.099,539.033 946.099,539.033 948.629,539.033 C949.344,539.033 950.609,539.033 952.149,538.978 L948.409,546.513 C944.339,554.598 943.844,555.588 942.469,558.998 C940.764,563.123 939.884,566.588 939.884,568.898 C939.884,571.428 941.204,572.968 943.349,572.968 C945.989,572.968 947.034,571.208 946.979,566.423 C946.704,558.503 947.694,554.653 953.579,541.783 C954.569,539.638 955.614,537.438 956.604,535.293 L956.604,533.698 C953.304,533.973 951.544,534.083 948.134,534.083 C943.349,534.083 939.554,533.918 933.614,533.478 L931.909,546.788 "/>
<path class="Harmony" d="M1296.02,532.103 L1293.93,532.103 L1291.79,535.403 C1288.21,532.598 1285.79,531.663 1281.78,531.663 C1277.43,531.663 1274.02,532.873 1270.56,535.678 C1265.11,540.078 1262.58,545.633 1262.58,553.058 C1262.58,558.668 1264.18,563.343 1267.42,566.918 C1270.83,570.768 1275.89,573.023 1281.17,573.023 C1285.79,573.023 1289.04,571.593 1292.61,568.018 L1294.65,572.968 L1296.96,572.968 L1296.96,560.868 C1296.96,558.063 1296.96,557.953 1297.29,557.458 C1297.78,556.853 1298.77,556.688 1301.91,556.688 L1302.73,556.688 L1302.73,554.103 L1285.24,554.103 L1285.24,556.688 L1286.29,556.688 C1290.91,556.688 1291.29,556.963 1291.29,560.043 C1291.29,562.408 1290.91,564.553 1290.19,565.873 C1288.82,568.568 1285.3,570.438 1281.72,570.438 C1278.15,570.438 1274.63,568.623 1272.76,565.873 C1270.72,562.793 1269.84,558.943 1269.84,553.058 C1269.84,540.793 1273.91,534.248 1281.56,534.248 C1287.83,534.248 1292.17,538.758 1294.43,547.558 L1296.79,547.558 L1296.02,532.103 "/>
<path class="Harmony" d="M1308.75,546.788 L1311.17,547.173 L1312.16,542.828 C1312.99,539.198 1313.37,538.648 1314.97,538.648 C1315.24,538.648 1315.68,538.648 1316.18,538.703 C1322.94,539.033 1322.94,539.033 1325.47,539.033 C1326.19,539.033 1327.45,539.033 1328.99,538.978 L1325.25,546.513 C1321.18,554.598 1320.69,555.588 1319.31,558.998 C1317.61,563.123 1316.73,566.588 1316.73,568.898 C1316.73,571.428 1318.05,572.968 1320.19,572.968 C1322.83,572.968 1323.88,571.208 1323.82,566.423 C1323.55,558.503 1324.54,554.653 1330.42,541.783 C1331.41,539.638 1332.46,537.438 1333.45,535.293 L1333.45,533.698 C1330.15,533.973 1328.39,534.083 1324.98,534.083 C1320.19,534.083 1316.4,533.918 1310.46,533.478 L1308.75,546.788 "/>
<path class="Harmony" d="M642.571,1003.3 L640.481,1003.3 L638.281,1006.55 C634.266,1003.63 632.231,1002.86 628.436,1002.86 C623.211,1002.86 618.756,1005.06 615.071,1009.46 C611.551,1013.64 609.901,1018.26 609.901,1023.93 C609.901,1035.81 617.656,1044.22 628.491,1044.22 C637.291,1044.22 642.901,1039.05 644.166,1029.81 L641.581,1029.37 C640.096,1037.57 635.916,1041.64 629.151,1041.64 C621.011,1041.64 617.161,1036.03 617.161,1024.15 C617.161,1017.88 617.986,1013.75 619.856,1010.45 C621.561,1007.37 624.916,1005.45 628.491,1005.45 C632.341,1005.45 635.751,1007.48 637.841,1011 C638.886,1012.82 639.656,1014.85 640.976,1019.2 L643.396,1019.2 L642.571,1003.3 "/>
<path class="Harmony" d="M2227.6,532.488 L2194.87,532.488 L2194.87,535.073 L2195.86,535.073 C2199,535.128 2200.04,535.293 2200.48,535.843 C2200.81,536.338 2200.81,536.448 2200.81,539.253 L2200.81,565.433 C2200.81,568.238 2200.81,568.348 2200.48,568.843 C2200.04,569.393 2199,569.613 2195.86,569.613 L2194.87,569.613 L2194.87,572.198 L2213.74,572.198 L2213.74,569.613 L2211.92,569.613 C2208.79,569.613 2207.74,569.393 2207.3,568.843 C2206.97,568.348 2206.97,568.183 2206.97,565.433 L2206.97,552.948 L2208.07,552.948 C2213.74,552.728 2215.77,554.763 2215.99,560.868 L2218.58,560.868 L2218.58,542.828 L2215.99,542.828 C2215.66,548.218 2213.52,550.308 2208.29,550.363 L2206.97,550.363 L2206.97,537.823 C2206.92,535.513 2207.47,535.128 2210.44,535.073 L2212.97,535.073 C2221.99,535.018 2224.24,537.053 2225.95,546.513 L2228.37,546.513 L2227.6,532.488 "/>
<path class="Harmony" d="M2208.79,1003.3 L2206.7,1003.3 L2204.56,1006.6 C2200.98,1003.8 2198.56,1002.86 2194.55,1002.86 C2190.2,1002.86 2186.79,1004.07 2183.33,1006.88 C2177.88,1011.28 2175.35,1016.83 2175.35,1024.26 C2175.35,1029.87 2176.95,1034.54 2180.19,1038.12 C2183.6,1041.97 2188.66,1044.22 2193.94,1044.22 C2198.56,1044.22 2201.81,1042.79 2205.38,1039.22 L2207.42,1044.17 L2209.73,1044.17 L2209.73,1032.07 C2209.73,1029.26 2209.73,1029.15 2210.06,1028.66 C2210.55,1028.05 2211.54,1027.89 2214.68,1027.89 L2215.5,1027.89 L2215.5,1025.3 L2198.01,1025.3 L2198.01,1027.89 L2199.06,1027.89 C2203.68,1027.89 2204.06,1028.16 2204.06,1031.24 C2204.06,1033.61 2203.68,1035.75 2202.96,1037.07 C2201.59,1039.77 2198.07,1041.64 2194.49,1041.64 C2190.92,1041.64 2187.4,1039.82 2185.53,1037.07 C2183.49,1033.99 2182.61,1030.14 2182.61,1024.26 C2182.61,1011.99 2186.68,1005.45 2194.33,1005.45 C2200.6,1005.45 2204.94,1009.96 2207.2,1018.76 L2209.56,1018.76 L2208.79,1003.3 "/>
<path class="Harmony" d="M2221.52,1017.99 L2223.94,1018.37 L2224.93,1014.03 C2225.76,1010.4 2226.14,1009.85 2227.74,1009.85 C2228.01,1009.85 2228.45,1009.85 2228.95,1009.9 C2235.71,1010.23 2235.71,1010.23 2238.24,1010.23 C2238.96,1010.23 2240.22,1010.23 2241.76,1010.18 L2238.02,1017.71 C2233.95,1025.8 2233.46,1026.79 2232.08,1030.2 C2230.38,1034.32 2229.5,1037.79 2229.5,1040.1 C2229.5,1042.63 2230.82,1044.17 2232.96,1044.17 C2235.6,1044.17 2236.65,1042.41 2236.59,1037.62 C2236.32,1029.7 2237.31,1025.85 2243.19,1012.98 C2244.18,1010.84 2245.23,1008.64 2246.22,1006.49 L2246.22,1004.9 C2242.92,1005.17 2241.16,1005.28 2237.75,1005.28 C2232.96,1005.28 2229.17,1005.12 2223.23,1004.68 L2221.52,1017.99 "/>
<path class="Harmony" d="M516.579,1003.3 L514.489,1003.3 L512.289,1006.55 C508.274,1003.63 506.239,1002.86 502.444,1002.86 C497.219,1002.86 492.764,1005.06 489.079,1009.46 C485.559,1013.64 483.909,1018.26 483.909,1023.93 C483.909,1035.81 491.664,1044.22 502.499,1044.22 C511.299,1044.22 516.909,1039.05 518.174,1029.81 L515.589,1029.37 C514.104,1037.57 509.924,1041.64 503.159,1041.64 C495.019,1041.64 491.169,1036.03 491.169,1024.15 C491.169,1017.88 491.994,1013.75 493.864,1010.45 C495.569,1007.37 498.924,1005.45 502.499,1005.45 C506.349,1005.45 509.759,1007.48 511.849,1011 C512.894,1012.82 513.664,1014.85 514.984,1019.2 L517.404,1019.2 L516.579,1003.3 "/>
<path class="Harmony" d="M962.806,1003.69 L930.081,1003.69 L930.081,1006.27 L931.071,1006.27 C934.206,1006.33 935.251,1006.49 935.691,1007.04 C936.021,1007.54 936.021,1007.65 936.021,1010.45 L936.021,1036.63 C936.021,1039.44 936.021,1039.55 935.691,1040.04 C935.251,1040.59 934.206,1040.81 931.071,1040.81 L930.081,1040.81 L930.081,1043.4 L948.946,1043.4 L948.946,1040.81 L947.131,1040.81 C943.996,1040.81 942.951,1040.59 942.511,1040.04 C942.181,1039.55 942.181,1039.38 942.181,1036.63 L942.181,1024.15 L943.281,1024.15 C948.946,1023.93 950.981,1025.96 951.201,1032.07 L953.786,1032.07 L953.786,1014.03 L951.201,1014.03 C950.871,1019.42 948.726,1021.51 943.501,1021.56 L942.181,1021.56 L942.181,1009.02 C942.126,1006.71 942.676,1006.33 945.646,1006.27 L948.176,1006.27 C957.196,1006.22 959.451,1008.25 961.156,1017.71 L963.576,1017.71 L962.806,1003.69 "/>
<path class="Harmony" d="M750.971,532.103 L748.881,532.103 L746.681,535.348 C742.666,532.433 740.631,531.663 736.836,531.663 C731.611,531.663 727.156,533.863 723.471,538.263 C719.951,542.443 718.301,547.063 718.301,552.728 C718.301,564.608 726.056,573.023 736.891,573.023 C745.691,573.023 751.301,567.853 752.566,558.613 L749.981,558.173 C748.496,566.368 744.316,570.438 737.551,570.438 C729.411,570.438 725.561,564.828 725.561,552.948 C725.561,546.678 726.386,542.553 728.256,539.253 C729.961,536.173 733.316,534.248 736.891,534.248 C740.741,534.248 744.151,536.283 746.241,539.803 C747.286,541.618 748.056,543.653 749.376,547.998 L751.796,547.998 L750.971,532.103 "/>
<path class="Harmony" d="M655.428,532.103 L653.338,532.103 L651.138,535.348 C647.123,532.433 645.088,531.663 641.293,531.663 C636.068,531.663 631.613,533.863 627.928,538.263 C624.408,542.443 622.758,547.063 622.758,552.728 C622.758,564.608 630.513,573.023 641.348,573.023 C650.148,573.023 655.758,567.853 657.023,558.613 L654.438,558.173 C652.953,566.368 648.773,570.438 642.008,570.438 C633.868,570.438 630.018,564.828 630.018,552.948 C630.018,546.678 630.843,542.553 632.713,539.253 C634.418,536.173 637.773,534.248 641.348,534.248 C645.198,534.248 648.608,536.283 650.698,539.803 C651.743,541.618 652.513,543.653 653.833,547.998 L656.253,547.998 L655.428,532.103 "/>
<path class="Harmony" d="M2700,1003.3 L2697.91,1003.3 L2695.71,1006.55 C2691.69,1003.63 2689.66,1002.86 2685.86,1002.86 C2680.64,1002.86 2676.18,1005.06 2672.5,1009.46 C2668.98,1013.64 2667.33,1018.26 2667.33,1023.93 C2667.33,1035.81 2675.08,1044.22 2685.92,1044.22 C2694.72,1044.22 2700.33,1039.05 2701.59,1029.81 L2699.01,1029.37 C2697.52,1037.57 2693.34,1041.64 2686.58,1041.64 C2678.44,1041.64 2674.59,1036.03 2674.59,1024.15 C2674.59,1017.88 2675.41,1013.75 2677.28,1010.45 C2678.99,1007.37 2682.34,1005.45 2685.92,1005.45 C2689.77,1005.45 2693.18,1007.48 2695.27,1011 C2696.31,1012.82 2697.08,1014.85 2698.4,1019.2 L2700.82,1019.2 L2700,1003.3 "/>
<path class="Harmony" d="M2340.65,532.488 L2307.93,532.488 L2307.93,535.073 L2308.92,535.073 C2312.05,535.128 2313.1,535.293 2313.54,535.843 C2313.87,536.338 2313.87,536.448 2313.87,539.253 L2313.87,565.433 C2313.87,568.238 2313.87,568.348 2313.54,568.843 C2313.1,569.393 2312.05,569.613 2308.92,569.613 L2307.93,569.613 L2307.93,572.198 L2326.79,572.198 L2326.79,569.613 L2324.98,569.613 C2321.84,569.613 2320.8,569.393 2320.36,568.843 C2320.03,568.348 2320.03,568.183 2320.03,565.433 L2320.03,552.948 L2321.13,552.948 C2326.79,552.728 2328.83,554.763 2329.05,560.868 L2331.63,560.868 L2331.63,542.828 L2329.05,542.828 C2328.72,548.218 2326.57,550.308 2321.35,550.363 L2320.03,550.363 L2320.03,537.823 C2319.97,535.513 2320.52,535.128 2323.49,535.073 L2326.02,535.073 C2335.04,535.018 2337.3,537.053 2339,546.513 L2341.42,546.513 L2340.65,532.488 "/>
<path class="Harmony" d="M390.587,1003.3 L388.497,1003.3 L386.297,1006.55 C382.282,1003.63 380.247,1002.86 376.452,1002.86 C371.227,1002.86 366.772,1005.06 363.087,1009.46 C359.567,1013.64 357.917,1018.26 357.917,1023.93 C357.917,1035.81 365.672,1044.22 376.507,1044.22 C385.307,1044.22 390.917,1039.05 392.182,1029.81 L389.597,1029.37 C388.112,1037.57 383.932,1041.64 377.167,1041.64 C369.027,1041.64 365.177,1036.03 365.177,1024.15 C365.177,1017.88 366.002,1013.75 367.872,1010.45 C369.577,1007.37 372.932,1005.45 376.507,1005.45 C380.357,1005.45 383.767,1007.48 385.857,1011 C386.902,1012.82 387.672,1014.85 388.992,1019.2 L391.412,1019.2 L390.587,1003.3 "/>
<path class="Harmony" d="M1936.47,532.103 L1934.38,532.103 L1932.18,535.348 C1928.17,532.433 1926.13,531.663 1922.34,531.663 C1917.11,531.663 1912.66,533.863 1908.97,538.263 C1905.45,542.443 1903.8,547.063 1903.8,552.728 C1903.8,564.608 1911.56,573.023 1922.39,573.023 C1931.19,573.023 1936.8,567.853 1938.07,558.613 L1935.48,558.173 C1934,566.368 1929.82,570.438 1923.05,570.438 C1914.91,570.438 1911.06,564.828 1911.06,552.948 C1911.06,546.678 1911.89,542.553 1913.76,539.253 C1915.46,536.173 1918.82,534.248 1922.39,534.248 C1926.24,534.248 1929.65,536.283 1931.74,539.803 C1932.79,541.618 1933.56,543.653 1934.88,547.998 L1937.3,547.998 L1936.47,532.103 "/>
<path class="Harmony" d="M2377.14,1003.3 L2375.05,1003.3 L2372.85,1006.55 C2368.84,1003.63 2366.8,1002.86 2363.01,1002.86 C2357.78,1002.86 2353.33,1005.06 2349.64,1009.46 C2346.12,1013.64 2344.47,1018.26 2344.47,1023.93 C2344.47,1035.81 2352.23,1044.22 2363.06,1044.22 C2371.86,1044.22 2377.47,1039.05 2378.74,1029.81 L2376.15,1029.37 C2374.67,1037.57 2370.49,1041.64 2363.72,1041.64 C2355.58,1041.64 2351.73,1036.03 2351.73,1024.15 C2351.73,1017.88 2352.56,1013.75 2354.43,1010.45 C2356.13,1007.37 2359.49,1005.45 2363.06,1005.45 C2366.91,1005.45 2370.32,1007.48 2372.41,1011 C2373.46,1012.82 2374.23,1014.85 2375.55,1019.2 L2377.97,1019.2 L2377.14,1003.3 "/>
<path class="Harmony" d="M542.375,532.103 L540.285,532.103 L538.085,535.348 C534.07,532.433 532.035,531.663 528.24,531.663 C523.015,531.663 518.56,533.863 514.875,538.263 C511.355,542.443 509.705,547.063 509.705,552.728 C509.705,564.608 517.46,573.023 528.295,573.023 C537.095,573.023 542.705,567.853 543.97,558.613 L541.385,558.173 C539.9,566.368 535.72,570.438 528.955,570.438 C520.815,570.438 516.965,564.828 516.965,552.948 C516.965,546.678 517.79,542.553 519.66,539.253 C521.365,536.173 524.72,534.248 528.295,534.248 C532.145,534.248 535.555,536.283 537.645,539.803 C538.69,541.618 539.46,543.653 540.78,547.998 L543.2,547.998 L542.375,532.103 "/>
<path class="Harmony" d="M1509.86,1003.3 L1507.77,1003.3 L1505.57,1006.55 C1501.55,1003.63 1499.52,1002.86 1495.72,1002.86 C1490.5,1002.86 1486.04,1005.06 1482.36,1009.46 C1478.84,1013.64 1477.19,1018.26 1477.19,1023.93 C1477.19,1035.81 1484.94,1044.22 1495.78,1044.22 C1504.58,1044.22 1510.19,1039.05 1511.45,1029.81 L1508.87,1029.37 C1507.38,1037.57 1503.2,1041.64 1496.44,1041.64 C1488.3,1041.64 1484.45,1036.03 1484.45,1024.15 C1484.45,1017.88 1485.27,1013.75 1487.14,1010.45 C1488.85,1007.37 1492.2,1005.45 1495.78,1005.45 C1499.63,1005.45 1503.04,1007.48 1505.13,1011 C1506.17,1012.82 1506.94,1014.85 1508.26,1019.2 L1510.68,1019.2 L1509.86,1003.3 "/>
<path class="Harmony" d="M1445,532.103 L1442.91,532.103 L1440.71,535.348 C1436.7,532.433 1434.66,531.663 1430.87,531.663 C1425.64,531.663 1421.19,533.863 1417.5,538.263 C1413.98,542.443 1412.33,547.063 1412.33,552.728 C1412.33,564.608 1420.09,573.023 1430.92,573.023 C1439.72,573.023 1445.33,567.853 1446.6,558.613 L1444.01,558.173 C1442.53,566.368 1438.35,570.438 1431.58,570.438 C1423.44,570.438 1419.59,564.828 1419.59,552.948 C1419.59,546.678 1420.42,542.553 1422.29,539.253 C1423.99,536.173 1427.35,534.248 1430.92,534.248 C1434.77,534.248 1438.18,536.283 1440.27,539.803 C1441.32,541.618 1442.09,543.653 1443.41,547.998 L1445.83,547.998 L1445,532.103 "/>
<path class="Harmony" d="M429.322,532.103 L427.232,532.103 L425.032,535.348 C421.017,532.433 418.982,531.663 415.187,531.663 C409.962,531.663 405.507,533.863 401.822,538.263 C398.302,542.443 396.652,547.063 396.652,552.728 C396.652,564.608 404.407,573.023 415.242,573.023 C424.042,573.023 429.652,567.853 430.917,558.613 L428.332,558.173 C426.847,566.368 422.667,570.438 415.902,570.438 C407.762,570.438 403.912,564.828 403.912,552.948 C403.912,546.678 404.737,542.553 406.607,539.253 C408.312,536.173 411.667,534.248 415.242,534.248 C419.092,534.248 422.502,536.283 424.592,539.803 C425.637,541.618 426.407,543.653 427.727,547.998 L430.147,547.998 L429.322,532.103 "/>
<path class="Harmony" d="M1088.8,1003.69 L1056.07,1003.69 L1056.07,1006.27 L1057.06,1006.27 C1060.2,1006.33 1061.24,1006.49 1061.68,1007.04 C1062.01,1007.54 1062.01,1007.65 1062.01,1010.45 L1062.01,1036.63 C1062.01,1039.44 1062.01,1039.55 1061.68,1040.04 C1061.24,1040.59 1060.2,1040.81 1057.06,1040.81 L1056.07,1040.81 L1056.07,1043.4 L1074.94,1043.4 L1074.94,1040.81 L1073.12,1040.81 C1069.99,1040.81 1068.94,1040.59 1068.5,1040.04 C1068.17,1039.55 1068.17,1039.38 1068.17,1036.63 L1068.17,1024.15 L1069.27,1024.15 C1074.94,1023.93 1076.97,1025.96 1077.19,1032.07 L1079.78,1032.07 L1079.78,1014.03 L1077.19,1014.03 C1076.86,1019.42 1074.72,1021.51 1069.49,1021.56 L1068.17,1021.56 L1068.17,1009.02 C1068.12,1006.71 1068.67,1006.33 1071.64,1006.27 L1074.17,1006.27 C1083.19,1006.22 1085.44,1008.25 1087.15,1017.71 L1089.57,1017.71 L1088.8,1003.69 "/>
<path class="Harmony" d="M1766.7,532.488 L1733.98,532.488 L1733.98,535.073 L1734.97,535.073 C1738.1,535.128 1739.15,535.293 1739.59,535.843 C1739.92,536.338 1739.92,536.448 1739.92,539.253 L1739.92,565.433 C1739.92,568.238 1739.92,568.348 1739.59,568.843 C1739.15,569.393 1738.1,569.613 1734.97,569.613 L1733.98,569.613 L1733.98,572.198 L1752.84,572.198 L1752.84,569.613 L1751.03,569.613 C1747.89,569.613 1746.85,569.393 1746.41,568.843 C1746.08,568.348 1746.08,568.183 1746.08,565.433 L1746.08,552.948 L1747.18,552.948 C1752.84,552.728 1754.88,554.763 1755.1,560.868 L1757.68,560.868 L1757.68,542.828 L1755.1,542.828 C1754.77,548.218 1752.62,550.308 1747.4,550.363 L1746.08,550.363 L1746.08,537.823 C1746.02,535.513 1746.57,535.128 1749.54,535.073 L1752.07,535.073 C1761.09,535.018 1763.35,537.053 1765.05,546.513 L1767.47,546.513 L1766.7,532.488 "/>
<path class="Harmony" d="M2503.13,1003.3 L2501.04,1003.3 L2498.84,1006.55 C2494.83,1003.63 2492.79,1002.86 2489,1002.86 C2483.77,1002.86 2479.32,1005.06 2475.63,1009.46 C2472.11,1013.64 2470.46,1018.26 2470.46,1023.93 C2470.46,1035.81 2478.22,1044.22 2489.05,1044.22 C2497.85,1044.22 2503.46,1039.05 2504.73,1029.81 L2502.14,1029.37 C2500.66,1037.57 2496.48,1041.64 2489.71,1041.64 C2481.57,1041.64 2477.72,1036.03 2477.72,1024.15 C2477.72,1017.88 2478.55,1013.75 2480.42,1010.45 C2482.12,1007.37 2485.48,1005.45 2489.05,1005.45 C2492.9,1005.45 2496.31,1007.48 2498.4,1011 C2499.45,1012.82 2500.22,1014.85 2501.54,1019.2 L2503.96,1019.2 L2503.13,1003.3 "/>
<path class="Harmony" d="M1383.86,1003.3 L1381.77,1003.3 L1379.57,1006.55 C1375.56,1003.63 1373.52,1002.86 1369.73,1002.86 C1364.5,1002.86 1360.05,1005.06 1356.36,1009.46 C1352.84,1013.64 1351.19,1018.26 1351.19,1023.93 C1351.19,1035.81 1358.95,1044.22 1369.78,1044.22 C1378.58,1044.22 1384.19,1039.05 1385.46,1029.81 L1382.87,1029.37 C1381.39,1037.57 1377.21,1041.64 1370.44,1041.64 C1362.3,1041.64 1358.45,1036.03 1358.45,1024.15 C1358.45,1017.88 1359.28,1013.75 1361.15,1010.45 C1362.85,1007.37 1366.21,1005.45 1369.78,1005.45 C1373.63,1005.45 1377.04,1007.48 1379.13,1011 C1380.18,1012.82 1380.95,1014.85 1382.27,1019.2 L1384.69,1019.2 L1383.86,1003.3 "/>
<path class="Harmony" d="M1214.79,1003.69 L1182.06,1003.69 L1182.06,1006.27 L1183.05,1006.27 C1186.19,1006.33 1187.23,1006.49 1187.67,1007.04 C1188,1007.54 1188,1007.65 1188,1010.45 L1188,1036.63 C1188,1039.44 1188,1039.55 1187.67,1040.04 C1187.23,1040.59 1186.19,1040.81 1183.05,1040.81 L1182.06,1040.81 L1182.06,1043.4 L1200.93,1043.4 L1200.93,1040.81 L1199.11,1040.81 C1195.98,1040.81 1194.93,1040.59 1194.49,1040.04 C1194.16,1039.55 1194.16,1039.38 1194.16,1036.63 L1194.16,1024.15 L1195.26,1024.15 C1200.93,1023.93 1202.96,1025.96 1203.18,1032.07 L1205.77,1032.07 L1205.77,1014.03 L1203.18,1014.03 C1202.85,1019.42 1200.71,1021.51 1195.48,1021.56 L1194.16,1021.56 L1194.16,1009.02 C1194.11,1006.71 1194.66,1006.33 1197.63,1006.27 L1200.16,1006.27 C1209.18,1006.22 1211.43,1008.25 1213.14,1017.71 L1215.56,1017.71 L1214.79,1003.69 "/>
<path class="Harmony" d="M2491.39,532.488 L2458.66,532.488 L2458.66,535.073 L2459.65,535.073 C2462.79,535.128 2463.83,535.293 2464.27,535.843 C2464.6,536.338 2464.6,536.448 2464.6,539.253 L2464.6,565.433 C2464.6,568.238 2464.6,568.348 2464.27,568.843 C2463.83,569.393 2462.79,569.613 2459.65,569.613 L2458.66,569.613 L2458.66,572.198 L2477.53,572.198 L2477.53,569.613 L2475.71,569.613 C2472.58,569.613 2471.53,569.393 2471.09,568.843 C2470.76,568.348 2470.76,568.183 2470.76,565.433 L2470.76,552.948 L2471.86,552.948 C2477.53,552.728 2479.56,554.763 2479.78,560.868 L2482.37,560.868 L2482.37,542.828 L2479.78,542.828 C2479.45,548.218 2477.31,550.308 2472.08,550.363 L2470.76,550.363 L2470.76,537.823 C2470.71,535.513 2471.26,535.128 2474.23,535.073 L2476.76,535.073 C2485.78,535.018 2488.03,537.053 2489.74,546.513 L2492.16,546.513 L2491.39,532.488 "/>
<path class="Harmony" d="M1558.06,532.103 L1555.97,532.103 L1553.77,535.348 C1549.75,532.433 1547.72,531.663 1543.92,531.663 C1538.7,531.663 1534.24,533.863 1530.56,538.263 C1527.04,542.443 1525.39,547.063 1525.39,552.728 C1525.39,564.608 1533.14,573.023 1543.98,573.023 C1552.78,573.023 1558.39,567.853 1559.65,558.613 L1557.07,558.173 C1555.58,566.368 1551.4,570.438 1544.64,570.438 C1536.5,570.438 1532.65,564.828 1532.65,552.948 C1532.65,546.678 1533.47,542.553 1535.34,539.253 C1537.05,536.173 1540.4,534.248 1543.98,534.248 C1547.83,534.248 1551.24,536.283 1553.33,539.803 C1554.37,541.618 1555.14,543.653 1556.46,547.998 L1558.88,547.998 L1558.06,532.103 "/>
<path class="Harmony" d="M2000.07,532.103 L1997.98,532.103 L1995.78,535.348 C1991.76,532.433 1989.73,531.663 1985.93,531.663 C1980.71,531.663 1976.25,533.863 1972.57,538.263 C1969.05,542.443 1967.4,547.063 1967.4,552.728 C1967.4,564.608 1975.15,573.023 1985.99,573.023 C1994.79,573.023 2000.4,567.853 2001.66,558.613 L1999.08,558.173 C1997.59,566.368 1993.41,570.438 1986.65,570.438 C1978.51,570.438 1974.66,564.828 1974.66,552.948 C1974.66,546.678 1975.48,542.553 1977.35,539.253 C1979.06,536.173 1982.41,534.248 1985.99,534.248 C1989.84,534.248 1993.25,536.283 1995.34,539.803 C1996.38,541.618 1997.15,543.653 1998.47,547.998 L2000.89,547.998 L2000.07,532.103 "/>
<path class="NoteDot" transform="matrix(0.992,0,0,0.992,1683.06,696.198)" d="M0,0 C0,2.8 2.2,5 5,5 C7.8,5 10,2.8 10,0 C10,-2.8 7.8,-5 5,-5 C2.2,-5 0,-2.8 0,0"/>
<path class="NoteDot" transform="matrix(0.992,0,0,0.992,667.377,720.998)" d="M0,0 C0,2.8 2.2,5 5,5 C7.8,5 10,2.8 10,0 C10,-2.8 7.8,-5 5,-5 C2.2,-5 0,-2.8 0,0"/>
</svg>
