<?xml version="1.0" encoding="UTF-8" standalone="no"?>
<svg width="2977.2px" height="4208.4px" viewBox="0 0 2977.2 4208.4"
 xmlns="http://www.w3.org/2000/svg" xmlns:xlink="http://www.w3.org/1999/xlink" version="1.2" baseProfile="tiny">
<title>花</title>
<desc>Generated by MuseScore Studio 4.4.2</desc>
<path class="" fill="#ffffff" fill-rule="evenodd" d="M0,0 L2977.2,0 L2977.2,4208.4 L0,4208.4 L0,0 "/>
<polyline class="StaffLines" fill="none" stroke="#000000" stroke-width="2.73" stroke-linejoin="bevel" points="212.598,634.198 2764.6,634.198"/>
<polyline class="StaffLines" fill="none" stroke="#000000" stroke-width="2.73" stroke-linejoin="bevel" points="212.598,658.998 2764.6,658.998"/>
<polyline class="StaffLines" fill="none" stroke="#000000" stroke-width="2.73" stroke-linejoin="bevel" points="212.598,683.798 2764.6,683.798"/>
<polyline class="StaffLines" fill="none" stroke="#000000" stroke-width="2.73" stroke-linejoin="bevel" points="212.598,708.598 2764.6,708.598"/>
<polyline class="StaffLines" fill="none" stroke="#000000" stroke-width="2.73" stroke-linejoin="bevel" points="212.598,733.398 2764.6,733.398"/>
<polyline class="StaffLines" fill="none" stroke="#000000" stroke-width="2.73" stroke-linejoin="bevel" points="212.598,1105.4 2764.6,1105.4"/>
<polyline class="StaffLines" fill="none" stroke="#000000" stroke-width="2.73" stroke-linejoin="bevel" points="212.598,1130.2 2764.6,1130.2"/>
<polyline class="StaffLines" fill="none" stroke="#000000" stroke-width="2.73" stroke-linejoin="bevel" points="212.598,1155 2764.6,1155"/>
<polyline class="StaffLines" fill="none" stroke="#000000" stroke-width="2.73" stroke-linejoin="bevel" points="212.598,1179.8 2764.6,1179.8"/>
<polyline class="StaffLines" fill="none" stroke="#000000" stroke-width="2.73" stroke-linejoin="bevel" points="212.598,1204.6 2764.6,1204.6"/>
<polyline class="StaffLines" fill="none" stroke="#000000" stroke-width="2.73" stroke-linejoin="bevel" points="212.598,1576.6 2764.6,1576.6"/>
<polyline class="StaffLines" fill="none" stroke="#000000" stroke-width="2.73" stroke-linejoin="bevel" points="212.598,1601.4 2764.6,1601.4"/>
<polyline class="StaffLines" fill="none" stroke="#000000" stroke-width="2.73" stroke-linejoin="bevel" points="212.598,1626.2 2764.6,1626.2"/>
<polyline class="StaffLines" fill="none" stroke="#000000" stroke-width="2.73" stroke-linejoin="bevel" points="212.598,1651 2764.6,1651"/>
<polyline class="StaffLines" fill="none" stroke="#000000" stroke-width="2.73" stroke-linejoin="bevel" points="212.598,1675.8 2764.6,1675.8"/>
<polyline class="StaffLines" fill="none" stroke="#000000" stroke-width="2.73" stroke-linejoin="bevel" points="212.598,2047.8 2764.6,2047.8"/>
<polyline class="StaffLines" fill="none" stroke="#000000" stroke-width="2.73" stroke-linejoin="bevel" points="212.598,2072.6 2764.6,2072.6"/>
<polyline class="StaffLines" fill="none" stroke="#000000" stroke-width="2.73" stroke-linejoin="bevel" points="212.598,2097.4 2764.6,2097.4"/>
<polyline class="StaffLines" fill="none" stroke="#000000" stroke-width="2.73" stroke-linejoin="bevel" points="212.598,2122.2 2764.6,2122.2"/>
<polyline class="StaffLines" fill="none" stroke="#000000" stroke-width="2.73" stroke-linejoin="bevel" points="212.598,2147 2764.6,2147"/>
<path class="Text" d="M1469.03,223.93 L1453.74,223.93 C1448.13,223.93 1444.5,223.71 1441.53,223.27 L1441.53,230.86 C1444.5,230.42 1448.13,230.31 1453.74,230.31 L1469.03,230.31 L1469.03,232.29 C1469.03,234.93 1468.81,237.24 1468.59,239.44 L1476.18,239.44 C1475.96,237.35 1475.85,235.26 1475.85,232.18 L1475.85,230.31 L1502.14,230.31 L1502.14,232.95 C1502.14,235.7 1502.03,237.57 1501.7,240.1 L1509.29,240.1 C1509.07,237.9 1508.96,235.92 1508.96,232.84 L1508.96,230.31 L1526.01,230.31 C1531.73,230.31 1535.36,230.42 1538.44,230.86 L1538.44,223.27 C1535.36,223.71 1531.73,223.93 1526.01,223.93 L1508.96,223.93 L1508.96,220.41 C1508.96,217.66 1509.07,215.02 1509.51,212.6 L1501.48,212.6 C1501.92,215.13 1502.14,217.77 1502.14,220.41 L1502.14,223.93 L1475.85,223.93 L1475.85,220.41 C1475.85,217.55 1475.96,215.13 1476.4,212.6 L1468.37,212.6 C1468.81,215.24 1469.03,217.66 1469.03,220.41 L1469.03,223.93 M1498.4,276.18 C1510.5,270.35 1519.74,264.85 1529.53,257.37 C1532.06,255.39 1532.28,255.28 1533.71,254.29 L1527.88,248.79 C1523.15,254.73 1510.83,263.2 1498.4,269.03 L1498.4,253.41 C1498.4,248.79 1498.51,245.6 1498.95,242.41 L1490.7,242.41 C1491.14,245.82 1491.36,248.57 1491.36,253.63 L1491.36,299.28 C1491.36,307.31 1493.89,308.52 1510.94,308.52 C1525.57,308.52 1529.97,307.86 1532.83,305.11 C1535.47,302.69 1536.35,299.39 1538.11,285.86 C1535.14,284.87 1533.71,284.21 1531.07,282.34 C1530.41,293.45 1529.53,298.4 1527.88,299.94 C1526.12,301.59 1523.04,302.03 1512.48,302.03 C1500.05,302.03 1498.4,301.59 1498.4,298.29 L1498.4,276.18 M1460.01,298.29 C1460.01,303.68 1459.79,306.76 1459.35,310.5 L1467.82,310.5 C1467.38,306.1 1467.16,302.58 1467.16,298.29 L1467.16,258.03 C1469.58,254.51 1471.56,251.54 1473.43,248.35 C1474.64,246.15 1474.64,246.15 1476.18,243.73 L1469.25,240.43 C1468.15,243.95 1466.5,247.25 1463.75,251.32 C1457.04,261.44 1448.46,269.58 1438.78,275.3 C1440.65,277.17 1442.08,279.15 1442.96,281.35 C1451.1,275.74 1456.27,270.9 1460.34,265.29 C1460.12,269.69 1460.01,273.87 1460.01,277.94 L1460.01,298.29 "/>
<path class="MeasureNumber" d="M228.053,1513.32 C227.053,1517.96 224.373,1525.92 218.653,1525.92 C217.493,1525.92 216.733,1525.44 216.733,1524.72 C216.733,1524.44 216.813,1524.32 217.133,1523.84 C217.533,1523.32 217.733,1522.84 217.733,1522.28 C217.733,1520.96 216.693,1519.96 215.333,1519.96 C213.733,1519.96 212.613,1521.16 212.613,1522.92 C212.613,1525.64 215.173,1527.6 218.733,1527.6 C227.493,1527.6 233.093,1516.4 233.093,1508.8 C233.093,1502.56 230.093,1498.84 225.133,1498.84 C219.173,1498.84 214.733,1504.32 214.733,1510.04 C214.733,1513.84 217.653,1516.72 221.533,1516.72 C224.173,1516.72 226.213,1515.64 228.053,1513.32 M225.093,1500.52 C227.653,1500.52 229.293,1502.56 229.293,1505.76 C229.293,1510.72 226.573,1514.36 222.893,1514.36 C220.373,1514.36 218.973,1512.64 218.973,1509.64 C218.973,1506.04 220.693,1500.52 225.093,1500.52"/>
<path class="MeasureNumber" d="M216.922,1040.48 C215.682,1041.24 215.322,1041.72 215.322,1042.52 C215.322,1043.28 215.962,1043.84 216.762,1043.84 C217.802,1043.84 218.402,1043.08 218.522,1041.6 C219.762,1040.6 221.082,1040.16 222.682,1040.16 C225.642,1040.16 227.282,1042 227.282,1045.32 C227.282,1050.52 223.922,1054.76 219.802,1054.76 C217.442,1054.76 215.522,1053.64 215.522,1052.32 C215.522,1052.08 215.562,1052 215.762,1051.88 C217.042,1051.28 218.082,1050.84 218.082,1049.16 C218.082,1047.88 217.082,1046.92 215.682,1046.92 C213.922,1046.92 212.602,1048.4 212.602,1050.32 C212.602,1053.84 215.642,1056.4 219.922,1056.4 C226.402,1056.4 231.642,1051.24 231.642,1044.84 C231.642,1040.8 228.562,1037.96 224.202,1037.96 C222.482,1037.96 221.082,1038.32 219.162,1039.28 L221.402,1031.72 C223.522,1032.16 225.202,1032.36 226.642,1032.36 C229.282,1032.36 231.642,1031.52 232.962,1030.12 C233.642,1029.32 234.042,1028.64 234.042,1028.12 C234.042,1027.88 233.922,1027.64 233.762,1027.64 C233.642,1027.64 233.562,1027.68 233.322,1027.8 C232.002,1028.44 230.322,1028.8 228.762,1028.8 C226.362,1028.8 223.522,1028.4 220.562,1027.64 L216.922,1040.48 "/>
<path class="MeasureNumber" d="M228.958,1969.88 L227.798,1969.88 C225.598,1971.52 221.358,1972.92 218.478,1972.92 L217.998,1974.68 L220.758,1974.68 C223.198,1974.68 223.478,1974.76 223.478,1975.48 C223.478,1975.84 223.478,1975.84 223.078,1977.28 L218.798,1993.28 C218.278,1995.28 218.238,1995.4 217.878,1995.76 C217.478,1996.16 216.638,1996.28 214.518,1996.32 L212.798,1996.32 L212.598,1998.2 L227.398,1998.2 L227.638,1996.32 L225.478,1996.32 C222.878,1996.32 222.318,1996.12 222.318,1995.24 C222.318,1994.96 222.478,1994.04 222.678,1993.28 L228.958,1969.88 M246.433,1983.64 C248.313,1983.04 249.073,1982.72 250.033,1982.08 C251.913,1980.84 253.073,1978.64 253.073,1976.4 C253.073,1972.6 250.033,1970.04 245.553,1970.04 C241.193,1970.04 237.513,1972.76 237.513,1976.04 C237.513,1977.68 238.513,1978.8 240.033,1978.8 C241.353,1978.8 242.313,1977.84 242.313,1976.52 C242.313,1975.84 242.113,1975.36 241.473,1974.72 C241.073,1974.36 240.913,1974.08 240.913,1973.8 C240.913,1972.84 242.913,1971.84 244.793,1971.84 C247.473,1971.84 249.073,1973.32 249.073,1975.8 C249.073,1979.36 246.553,1982.72 243.873,1982.72 C243.753,1982.72 243.393,1982.68 242.953,1982.64 C241.793,1982.56 241.793,1982.56 241.553,1982.56 C240.673,1982.56 240.193,1982.96 240.193,1983.68 C240.193,1984.32 240.633,1984.72 241.353,1984.72 C241.553,1984.72 241.833,1984.68 242.153,1984.64 C242.713,1984.52 243.313,1984.48 243.673,1984.48 C245.553,1984.48 246.833,1986.16 246.833,1988.64 C246.833,1992.96 244.713,1997.12 239.873,1997.12 C237.633,1997.12 235.713,1996 235.713,1994.72 C235.713,1994.28 235.873,1994.12 236.513,1993.84 C237.673,1993.32 238.153,1992.6 238.153,1991.52 C238.153,1990.12 237.033,1989.04 235.593,1989.04 C233.873,1989.04 232.753,1990.4 232.753,1992.48 C232.753,1996.36 235.713,1998.8 240.513,1998.8 C246.553,1998.8 251.153,1994.76 251.153,1989.4 C251.153,1986.28 249.233,1984.52 246.433,1983.64"/>
<polyline class="BarLine" fill="none" stroke="#000000" stroke-width="4.46" stroke-linejoin="bevel" points="1646.43,632.834 1646.43,734.762"/>
<polyline class="BarLine" fill="none" stroke="#000000" stroke-width="4.46" stroke-linejoin="bevel" points="2299.45,1104.03 2299.45,1205.96"/>
<polyline class="BarLine" fill="none" stroke="#000000" stroke-width="4.46" stroke-linejoin="bevel" points="2325.98,632.834 2325.98,734.762"/>
<polyline class="BarLine" fill="none" stroke="#000000" stroke-width="4.46" stroke-linejoin="bevel" points="980.6,2046.43 980.6,2148.36"/>
<polyline class="BarLine" fill="none" stroke="#000000" stroke-width="4.46" stroke-linejoin="bevel" points="2289.94,1575.23 2289.94,1677.16"/>
<polyline class="BarLine" fill="none" stroke="#000000" stroke-width="4.46" stroke-linejoin="bevel" points="2762.37,632.834 2762.37,734.762"/>
<polyline class="BarLine" fill="none" stroke="#000000" stroke-width="4.46" stroke-linejoin="bevel" points="2740.42,2046.43 2740.42,2148.36"/>
<polyline class="BarLine" fill="none" stroke="#000000" stroke-width="13.64" stroke-linejoin="bevel" points="2757.78,2046.43 2757.78,2148.36"/>
<polyline class="BarLine" fill="none" stroke="#000000" stroke-width="4.46" stroke-linejoin="bevel" points="1727.62,1575.23 1727.62,1677.16"/>
<polyline class="BarLine" fill="none" stroke="#000000" stroke-width="4.46" stroke-linejoin="bevel" points="1036.04,1104.03 1036.04,1205.96"/>
<polyline class="BarLine" fill="none" stroke="#000000" stroke-width="4.46" stroke-linejoin="bevel" points="1050.03,1575.23 1050.03,1677.16"/>
<polyline class="BarLine" fill="none" stroke="#000000" stroke-width="4.46" stroke-linejoin="bevel" points="2282.27,2046.43 2282.27,2148.36"/>
<polyline class="BarLine" fill="none" stroke="#000000" stroke-width="4.46" stroke-linejoin="bevel" points="1684.81,1104.03 1684.81,1205.96"/>
<polyline class="BarLine" fill="none" stroke="#000000" stroke-width="4.46" stroke-linejoin="bevel" points="2762.37,1104.03 2762.37,1205.96"/>
<polyline class="BarLine" fill="none" stroke="#000000" stroke-width="4.46" stroke-linejoin="bevel" points="1035.75,632.834 1035.75,734.762"/>
<polyline class="BarLine" fill="none" stroke="#000000" stroke-width="4.46" stroke-linejoin="bevel" points="1622.51,2046.43 1622.51,2148.36"/>
<polyline class="BarLine" fill="none" stroke="#000000" stroke-width="4.46" stroke-linejoin="bevel" points="2762.37,1575.23 2762.37,1677.16"/>
<polyline class="LedgerLine" fill="none" stroke="#000000" stroke-width="3.97" stroke-linejoin="bevel" points="1672.22,758.198 1721.8,758.198"/>
<polyline class="Stem" fill="none" stroke="#000000" stroke-width="2.73" stroke-linejoin="bevel" points="1493.09,1213.03 1493.09,1130.2"/>
<polyline class="Stem" fill="none" stroke="#000000" stroke-width="2.73" stroke-linejoin="bevel" points="1297.23,1200.63 1297.23,1090.92"/>
<polyline class="Stem" fill="none" stroke="#000000" stroke-width="2.73" stroke-linejoin="bevel" points="1711.76,766.63 1711.76,640.277"/>
<polyline class="Stem" fill="none" stroke="#000000" stroke-width="2.73" stroke-linejoin="bevel" points="1433.27,2155.43 1433.27,2072.6"/>
<polyline class="Stem" fill="none" stroke="#000000" stroke-width="2.73" stroke-linejoin="bevel" points="437.767,2155.43 437.767,2078.8"/>
<polyline class="Stem" fill="none" stroke="#000000" stroke-width="2.73" stroke-linejoin="bevel" points="863.979,2118.23 863.979,2047.8"/>
<polyline class="Stem" fill="none" stroke="#000000" stroke-width="2.73" stroke-linejoin="bevel" points="2136.16,2113.96 2136.16,2177.88"/>
<polyline class="Stem" fill="none" stroke="#000000" stroke-width="2.73" stroke-linejoin="bevel" points="1803.59,741.83 1803.59,632.091"/>
<polyline class="Stem" fill="none" stroke="#000000" stroke-width="2.73" stroke-linejoin="bevel" points="2355.27,1684.23 2355.27,1601.4"/>
<polyline class="Stem" fill="none" stroke="#000000" stroke-width="2.73" stroke-linejoin="bevel" points="1895.43,704.63 1895.43,623.906"/>
<polyline class="Stem" fill="none" stroke="#000000" stroke-width="2.73" stroke-linejoin="bevel" points="476.501,741.83 476.501,665.198"/>
<polyline class="Stem" fill="none" stroke="#000000" stroke-width="2.73" stroke-linejoin="bevel" points="1987.26,692.23 1987.26,615.72"/>
<polyline class="Stem" fill="none" stroke="#000000" stroke-width="2.73" stroke-linejoin="bevel" points="2168.39,1634.63 2168.39,1570.51"/>
<polyline class="Stem" fill="none" stroke="#000000" stroke-width="2.73" stroke-linejoin="bevel" points="2049.6,687.965 2049.6,751.938"/>
<polyline class="Stem" fill="none" stroke="#000000" stroke-width="2.73" stroke-linejoin="bevel" points="1045.93,2105.83 1045.93,2029.23"/>
<polyline class="Stem" fill="none" stroke="#000000" stroke-width="2.73" stroke-linejoin="bevel" points="2018.22,1671.83 2018.22,1582.69"/>
<polyline class="Stem" fill="none" stroke="#000000" stroke-width="2.73" stroke-linejoin="bevel" points="1763.46,1630.36 1763.46,1700.6"/>
<polyline class="Stem" fill="none" stroke="#000000" stroke-width="2.73" stroke-linejoin="bevel" points="2187.36,663.165 2187.36,745.859"/>
<polyline class="Stem" fill="none" stroke="#000000" stroke-width="2.73" stroke-linejoin="bevel" points="2347.61,2118.23 2347.61,2035.4"/>
<polyline class="Stem" fill="none" stroke="#000000" stroke-width="2.73" stroke-linejoin="bevel" points="1468.43,741.83 1468.43,658.998"/>
<polyline class="Stem" fill="none" stroke="#000000" stroke-width="2.73" stroke-linejoin="bevel" points="1656.14,1634.63 1656.14,1558.1"/>
<polyline class="Stem" fill="none" stroke="#000000" stroke-width="2.73" stroke-linejoin="bevel" points="1101.09,692.23 1101.09,615.629"/>
<polyline class="Stem" fill="none" stroke="#000000" stroke-width="2.73" stroke-linejoin="bevel" points="2391.31,692.23 2391.31,615.598"/>
<polyline class="Stem" fill="none" stroke="#000000" stroke-width="2.73" stroke-linejoin="bevel" points="1376.35,1617.96 1376.35,1694.3"/>
<polyline class="Stem" fill="none" stroke="#000000" stroke-width="2.73" stroke-linejoin="bevel" points="1990.91,2089.16 1990.91,2165.71"/>
<polyline class="Stem" fill="none" stroke="#000000" stroke-width="2.73" stroke-linejoin="bevel" points="1936.36,1163.43 1936.36,1086.8"/>
<polyline class="Stem" fill="none" stroke="#000000" stroke-width="2.73" stroke-linejoin="bevel" points="1955.85,2093.43 1955.85,2004.43"/>
<polyline class="Stem" fill="none" stroke="#000000" stroke-width="2.73" stroke-linejoin="bevel" points="1276.24,1617.96 1276.24,1694.4"/>
<polyline class="Stem" fill="none" stroke="#000000" stroke-width="2.73" stroke-linejoin="bevel" points="1376.59,729.43 1376.59,621.768"/>
<polyline class="Stem" fill="none" stroke="#000000" stroke-width="2.73" stroke-linejoin="bevel" points="1142.77,2118.23 1142.77,2031.27"/>
<polyline class="Stem" fill="none" stroke="#000000" stroke-width="2.73" stroke-linejoin="bevel" points="1284.76,717.03 1284.76,619.722"/>
<polyline class="Stem" fill="none" stroke="#000000" stroke-width="2.73" stroke-linejoin="bevel" points="1085.87,1617.96 1085.87,1694.4"/>
<polyline class="Stem" fill="none" stroke="#000000" stroke-width="2.73" stroke-linejoin="bevel" points="651.126,741.83 651.126,665.198"/>
<polyline class="Stem" fill="none" stroke="#000000" stroke-width="2.73" stroke-linejoin="bevel" points="437.767,1213.03 437.767,1136.4"/>
<polyline class="Stem" fill="none" stroke="#000000" stroke-width="2.73" stroke-linejoin="bevel" points="949.046,1630.36 949.046,1707.69"/>
<polyline class="Stem" fill="none" stroke="#000000" stroke-width="2.73" stroke-linejoin="bevel" points="1687.84,2105.83 1687.84,2010.57"/>
<polyline class="Stem" fill="none" stroke="#000000" stroke-width="2.73" stroke-linejoin="bevel" points="1239.6,2130.63 1239.6,2033.32"/>
<polyline class="Stem" fill="none" stroke="#000000" stroke-width="2.73" stroke-linejoin="bevel" points="1833.09,2105.83 1833.09,2007.24"/>
<polyline class="Stem" fill="none" stroke="#000000" stroke-width="2.73" stroke-linejoin="bevel" points="623.982,1213.03 623.982,1136.4"/>
<polyline class="Stem" fill="none" stroke="#000000" stroke-width="2.73" stroke-linejoin="bevel" points="698.757,1605.56 698.757,1688.1"/>
<polyline class="Stem" fill="none" stroke="#000000" stroke-width="2.73" stroke-linejoin="bevel" points="2034.29,1163.43 2034.29,1092.94"/>
<polyline class="Stem" fill="none" stroke="#000000" stroke-width="2.73" stroke-linejoin="bevel" points="721.912,1175.83 721.912,1093.2"/>
<polyline class="Stem" fill="none" stroke="#000000" stroke-width="2.73" stroke-linejoin="bevel" points="2181.18,1151.03 2181.18,1086.85"/>
<polyline class="Stem" fill="none" stroke="#000000" stroke-width="2.73" stroke-linejoin="bevel" points="598.641,1605.56 598.641,1675.8"/>
<polyline class="Stem" fill="none" stroke="#000000" stroke-width="2.73" stroke-linejoin="bevel" points="1336.43,2143.03 1336.43,2035.37"/>
<polyline class="Stem" fill="none" stroke="#000000" stroke-width="2.73" stroke-linejoin="bevel" points="621.896,2155.43 621.896,2078.8"/>
<polyline class="Stem" fill="none" stroke="#000000" stroke-width="2.73" stroke-linejoin="bevel" points="966.738,1175.83 966.738,1093.1"/>
<polyline class="Stem" fill="none" stroke="#000000" stroke-width="2.73" stroke-linejoin="bevel" points="408.27,1605.56 408.27,1675.8"/>
<polyline class="Stem" fill="none" stroke="#000000" stroke-width="2.73" stroke-linejoin="bevel" points="1395.16,1188.23 1395.16,1092.97"/>
<polyline class="Stem" fill="none" stroke="#000000" stroke-width="2.73" stroke-linejoin="bevel" points="1192.92,704.63 1192.92,617.675"/>
<polyline class="Stem" fill="none" stroke="#000000" stroke-width="2.73" stroke-linejoin="bevel" points="1101.37,1163.43 1101.37,1086.83"/>
<polyline class="Stem" fill="none" stroke="#000000" stroke-width="2.73" stroke-linejoin="bevel" points="742.961,704.63 742.961,621.997"/>
<polyline class="Stem" fill="none" stroke="#000000" stroke-width="2.73" stroke-linejoin="bevel" points="2364.78,1175.83 2364.78,1093"/>
<polyline class="Stem" fill="none" stroke="#000000" stroke-width="2.73" stroke-linejoin="bevel" points="718.729,2118.23 718.729,2047.8"/>
<polyline class="Stem" fill="none" stroke="#000000" stroke-width="2.73" stroke-linejoin="bevel" points="1199.3,1175.83 1199.3,1088.87"/>
<polyline class="Stem" fill="none" stroke="#000000" stroke-width="2.73" stroke-linejoin="bevel" points="972.549,704.63 972.549,621.898"/>
<polyline class="Stem" fill="none" stroke="#000000" stroke-width="2.73" stroke-linejoin="bevel" points="1750.14,1163.43 1750.14,1086.8"/>
<path class="Hook" transform="matrix(0.992,0,0,0.992,971.185,621.798)" d="M0,38.1 C0,38.4 0.8,38.8 1.5,39.1 C4.1,40 11.9,45 17.9,53.9 C21.3,59 22.1,62.6 22.1,66 C22.1,66.6 22.1,67.1 22,67.7 C22,70.1 21.3,75.2 19.8,79.2 C19.7,79.7 19.4,80.3 19.4,80.8 C19.4,81.2 19.6,81.6 20.1,81.9 C20.3,82 20.5,82 20.6,82 C21.3,82 21.7,81.2 22.1,80.6 C23.9,77.8 26.5,72.4 26.5,66.8 C26.5,63.9 26.3,61.5 26,59.4 C27.1,55.7 27.9,52 27.9,47.1 C27.9,41.9 26.5,37.2 23.1,32.7 C18.4,26.5 13.3,21.4 9.5,15.8 C5.7,10.3 2.9,0 2.9,0 C2.7,-0.7 2.6,-1.2 1.5,-1.2 C0.3,-1.2 0,-0.7 0,0 L0,38.1 M20.9,47.3 C18.2,43.8 15.2,40.6 10.3,35.7 C6.4,31.8 4.6,28.4 4,25.8 C3.8,25.3 3.7,24.6 3.6,23.8 C8.7,23.9 15.2,30.7 18.8,35.4 C22.7,40.5 23.6,44.6 23.6,48.3 C23.6,49.3 23.5,50.3 23.4,51.3 C22.6,49.7 21.7,48.4 20.9,47.3"/>
<path class="Hook" transform="matrix(0.992,0,0,0.992,741.597,621.798)" d="M0,22.7 C0,23 0.1,23.6 0.8,23.8 C5.1,25.2 13.7,30.6 20.2,41.7 C22,44.8 24.9,49.1 24.9,57.4 C24.9,64.6 23.1,72 20.4,79.2 C20.2,79.8 20.1,80.3 20.1,80.7 C20.1,81.4 20.5,81.7 21.2,81.7 C21.8,81.7 22.3,81.3 22.7,80.6 C27.2,72.6 28.9,63.3 28.9,54.2 C28.4,41.3 21,31.8 21,31.8 C21.3,31.8 11.8,19.5 9.1,15.3 C5.4,9.6 3.7,3.9 3.5,3.5 C3.4,3.2 2.5,-0.4 2.5,-0.4 C2.4,-0.8 1.9,-1.2 1.3,-1.2 C0.6,-1.2 0,-0.6 0,0.1 L0,22.7 "/>
<path class="Hook" transform="matrix(0.992,0,0,0.992,965.374,1093)" d="M0,38.1 C0,38.4 0.8,38.8 1.5,39.1 C4.1,40 11.9,45 17.9,53.9 C21.3,59 22.1,62.6 22.1,66 C22.1,66.6 22.1,67.1 22,67.7 C22,70.1 21.3,75.2 19.8,79.2 C19.7,79.7 19.4,80.3 19.4,80.8 C19.4,81.2 19.6,81.6 20.1,81.9 C20.3,82 20.5,82 20.6,82 C21.3,82 21.7,81.2 22.1,80.6 C23.9,77.8 26.5,72.4 26.5,66.8 C26.5,63.9 26.3,61.5 26,59.4 C27.1,55.7 27.9,52 27.9,47.1 C27.9,41.9 26.5,37.2 23.1,32.7 C18.4,26.5 13.3,21.4 9.5,15.8 C5.7,10.3 2.9,0 2.9,0 C2.7,-0.7 2.6,-1.2 1.5,-1.2 C0.3,-1.2 0,-0.7 0,0 L0,38.1 M20.9,47.3 C18.2,43.8 15.2,40.6 10.3,35.7 C6.4,31.8 4.6,28.4 4,25.8 C3.8,25.3 3.7,24.6 3.6,23.8 C8.7,23.9 15.2,30.7 18.8,35.4 C22.7,40.5 23.6,44.6 23.6,48.3 C23.6,49.3 23.5,50.3 23.4,51.3 C22.6,49.7 21.7,48.4 20.9,47.3"/>
<path class="Hook" transform="matrix(0.992,0,0,0.992,697.393,1688.2)" d="M0,-0.1 C0,0.6 0.6,1.2 1.3,1.2 C1.8,1.2 2.4,0.8 2.5,0.4 C2.5,0.3 3.4,-3.2 3.5,-3.5 C3.6,-3.9 4.5,-7.7 8.1,-13.6 C12,-20.1 18,-24.8 23,-31.8 C28,-38.8 30.9,-45.4 30.9,-54.2 C30.9,-63.3 28.9,-70.9 23.5,-80.6 C23.2,-81.3 22.6,-81.7 22,-81.7 C21.8,-81.7 21.6,-81.7 21.5,-81.6 C21,-81.4 20.8,-81 20.8,-80.4 C20.8,-80.1 20.9,-79.7 21.1,-79.2 C25.1,-69.9 26.7,-64.6 26.7,-57.4 C26.7,-49.1 23.8,-44.8 22,-41.7 C15.5,-30.6 5,-25.2 0.8,-23.8 C0.1,-23.6 0,-23 0,-22.7 L0,-0.1 "/>
<path class="Hook" transform="matrix(0.992,0,0,0.992,720.548,1093)" d="M0,22.7 C0,23 0.1,23.6 0.8,23.8 C5.1,25.2 13.7,30.6 20.2,41.7 C22,44.8 24.9,49.1 24.9,57.4 C24.9,64.6 23.1,72 20.4,79.2 C20.2,79.8 20.1,80.3 20.1,80.7 C20.1,81.4 20.5,81.7 21.2,81.7 C21.8,81.7 22.3,81.3 22.7,80.6 C27.2,72.6 28.9,63.3 28.9,54.2 C28.4,41.3 21,31.8 21,31.8 C21.3,31.8 11.8,19.5 9.1,15.3 C5.4,9.6 3.7,3.9 3.5,3.5 C3.4,3.2 2.5,-0.4 2.5,-0.4 C2.4,-0.8 1.9,-1.2 1.3,-1.2 C0.6,-1.2 0,-0.6 0,0.1 L0,22.7 "/>
<path class="Hook" transform="matrix(0.992,0,0,0.992,947.682,1706.8)" d="M0,1 C0,1.8 0.7,2.6 1.5,2.6 C2.3,2.6 2.8,1.8 3,1 C4.5,-9.3 7.6,-12.3 11.6,-16.1 C17,-21.2 30.9,-28.9 30.9,-47.4 C30.9,-50.7 30.6,-54.4 30.1,-58.1 C30.4,-59.4 30.6,-61.2 30.6,-63.8 C30.6,-71.7 26,-77.2 22.7,-79.8 C22.3,-80.1 21.7,-80.3 21.1,-80.3 C20.7,-80.3 19.4,-80 19.4,-79.5 C19.4,-79.2 20,-78.8 20.4,-78.4 C23.9,-74.7 26.5,-71.3 26.5,-64.6 C26.5,-63.3 26.4,-62 26.1,-60.8 L25.9,-60.5 C23.8,-52.1 9.2,-43.2 1.5,-41.5 C0.8,-41.2 0,-39 0,-38.8 L0,1 M3.7,-24 C3.8,-24.5 3.9,-24.9 4,-25.2 C4.6,-27.7 5.5,-31.4 11.3,-35.9 C17.1,-40.4 24,-46 26.7,-50.8 C26.5,-43.1 24.7,-38.3 22,-34.9 C15.9,-27.4 8.5,-25.3 3.7,-24"/>
<path class="Hook" transform="matrix(0.992,0,0,0.992,1374.99,1694.4)" d="M0,-0.1 C0,0.6 0.6,1.2 1.3,1.2 C1.8,1.2 2.4,0.8 2.5,0.4 C2.5,0.3 3.4,-3.2 3.5,-3.5 C3.6,-3.9 4.5,-7.7 8.1,-13.6 C12,-20.1 18,-24.8 23,-31.8 C28,-38.8 30.9,-45.4 30.9,-54.2 C30.9,-63.3 28.9,-70.9 23.5,-80.6 C23.2,-81.3 22.6,-81.7 22,-81.7 C21.8,-81.7 21.6,-81.7 21.5,-81.6 C21,-81.4 20.8,-81 20.8,-80.4 C20.8,-80.1 20.9,-79.7 21.1,-79.2 C25.1,-69.9 26.7,-64.6 26.7,-57.4 C26.7,-49.1 23.8,-44.8 22,-41.7 C15.5,-30.6 5,-25.2 0.8,-23.8 C0.1,-23.6 0,-23 0,-22.7 L0,-0.1 "/>
<path class="Hook" transform="matrix(0.992,0,0,0.992,1654.77,1558)" d="M0,38.1 C0,38.4 0.8,38.8 1.5,39.1 C4.1,40 11.9,45 17.9,53.9 C21.3,59 22.1,62.6 22.1,66 C22.1,66.6 22.1,67.1 22,67.7 C22,70.1 21.3,75.2 19.8,79.2 C19.7,79.7 19.4,80.3 19.4,80.8 C19.4,81.2 19.6,81.6 20.1,81.9 C20.3,82 20.5,82 20.6,82 C21.3,82 21.7,81.2 22.1,80.6 C23.9,77.8 26.5,72.4 26.5,66.8 C26.5,63.9 26.3,61.5 26,59.4 C27.1,55.7 27.9,52 27.9,47.1 C27.9,41.9 26.5,37.2 23.1,32.7 C18.4,26.5 13.3,21.4 9.5,15.8 C5.7,10.3 2.9,0 2.9,0 C2.7,-0.7 2.6,-1.2 1.5,-1.2 C0.3,-1.2 0,-0.7 0,0 L0,38.1 M20.9,47.3 C18.2,43.8 15.2,40.6 10.3,35.7 C6.4,31.8 4.6,28.4 4,25.8 C3.8,25.3 3.7,24.6 3.6,23.8 C8.7,23.9 15.2,30.7 18.8,35.4 C22.7,40.5 23.6,44.6 23.6,48.3 C23.6,49.3 23.5,50.3 23.4,51.3 C22.6,49.7 21.7,48.4 20.9,47.3"/>
<path class="Note" transform="matrix(0.992,0,0,0.992,2134.79,2109.8)" d="M0,4.2 C0,8.5 3.1,13.3 11.2,13.3 C21.6,13.3 32.5,4.8 32.5,-4 C32.5,-9.9 27.5,-13.2 21.3,-13.2 C11.6,-13.2 0,-5 0,4.2"/>
<path class="Note" transform="matrix(0.992,0,0,0.992,1345.73,733.398)" d="M0,4.2 C0,8.5 3.1,13.3 11.2,13.3 C21.6,13.3 32.5,4.8 32.5,-4 C32.5,-9.9 27.5,-13.2 21.3,-13.2 C11.6,-13.2 0,-5 0,4.2"/>
<path class="Note" transform="matrix(0.992,0,0,0.992,1070.23,696.198)" d="M0,4.2 C0,8.5 3.1,13.3 11.2,13.3 C21.6,13.3 32.5,4.8 32.5,-4 C32.5,-9.9 27.5,-13.2 21.3,-13.2 C11.6,-13.2 0,-5 0,4.2"/>
<path class="Note" transform="matrix(0.992,0,0,0.992,1364.3,1192.2)" d="M0,4.2 C0,8.5 3.1,13.3 11.2,13.3 C21.6,13.3 32.5,4.8 32.5,-4 C32.5,-9.9 27.5,-13.2 21.3,-13.2 C11.6,-13.2 0,-5 0,4.2"/>
<path class="Note" transform="matrix(0.992,0,0,0.992,941.688,708.598)" d="M0,4.2 C0,8.5 3.1,13.3 11.2,13.3 C21.6,13.3 32.5,4.8 32.5,-4 C32.5,-9.9 27.5,-13.2 21.3,-13.2 C11.6,-13.2 0,-5 0,4.2"/>
<path class="Note" transform="matrix(0.992,0,0,0.992,2150.32,1155)" d="M0,4.2 C0,8.5 3.1,13.3 11.2,13.3 C21.6,13.3 32.5,4.8 32.5,-4 C32.5,-9.9 27.5,-13.2 21.3,-13.2 C11.6,-13.2 0,-5 0,4.2"/>
<path class="Note" transform="matrix(0.992,0,0,0.992,1905.49,1167.4)" d="M0,4.2 C0,8.5 3.1,13.3 11.2,13.3 C21.6,13.3 32.5,4.8 32.5,-4 C32.5,-9.9 27.5,-13.2 21.3,-13.2 C11.6,-13.2 0,-5 0,4.2"/>
<path class="Note" transform="matrix(0.992,0,0,0.992,1462.23,1217)" d="M0,4.2 C0,8.5 3.1,13.3 11.2,13.3 C21.6,13.3 32.5,4.8 32.5,-4 C32.5,-9.9 27.5,-13.2 21.3,-13.2 C11.6,-13.2 0,-5 0,4.2"/>
<path class="Note" transform="matrix(0.992,0,0,0.992,2003.42,1167.4)" d="M0,4.2 C0,8.5 3.1,13.3 11.2,13.3 C21.6,13.3 32.5,4.8 32.5,-4 C32.5,-9.9 27.5,-13.2 21.3,-13.2 C11.6,-13.2 0,-5 0,4.2"/>
<path class="Note" transform="matrix(0.992,0,0,0.992,687.869,2122.2)" d="M0,4.2 C0,8.5 3.1,13.3 11.2,13.3 C21.6,13.3 32.5,4.8 32.5,-4 C32.5,-9.9 27.5,-13.2 21.3,-13.2 C11.6,-13.2 0,-5 0,4.2"/>
<path class="Note" transform="matrix(0.992,0,0,0.992,1402.41,2159.4)" d="M0,4.2 C0,8.5 3.1,13.3 11.2,13.3 C21.6,13.3 32.5,4.8 32.5,-4 C32.5,-9.9 27.5,-13.2 21.3,-13.2 C11.6,-13.2 0,-5 0,4.2"/>
<path class="Note" transform="matrix(0.992,0,0,0.992,591.036,2159.4)" d="M0,4.2 C0,8.5 3.1,13.3 11.2,13.3 C21.6,13.3 32.5,4.8 32.5,-4 C32.5,-9.9 27.5,-13.2 21.3,-13.2 C11.6,-13.2 0,-5 0,4.2"/>
<path class="Note" transform="matrix(0.992,0,0,0.992,1266.37,1204.6)" d="M0,4.2 C0,8.5 3.1,13.3 11.2,13.3 C21.6,13.3 32.5,4.8 32.5,-4 C32.5,-9.9 27.5,-13.2 21.3,-13.2 C11.6,-13.2 0,-5 0,4.2"/>
<path class="Note" transform="matrix(0.992,0,0,0.992,1168.44,1179.8)" d="M0,4.2 C0,8.5 3.1,13.3 11.2,13.3 C21.6,13.3 32.5,4.8 32.5,-4 C32.5,-9.9 27.5,-13.2 21.3,-13.2 C11.6,-13.2 0,-5 0,4.2"/>
<path class="Note" transform="matrix(0.992,0,0,0.992,1437.57,745.798)" d="M0,4.2 C0,8.5 3.1,13.3 11.2,13.3 C21.6,13.3 32.5,4.8 32.5,-4 C32.5,-9.9 27.5,-13.2 21.3,-13.2 C11.6,-13.2 0,-5 0,4.2"/>
<path class="Note" transform="matrix(0.992,0,0,0.992,1656.98,2109.8)" d="M0,4.2 C0,8.5 3.1,13.3 11.2,13.3 C21.6,13.3 32.5,4.8 32.5,-4 C32.5,-9.9 27.5,-13.2 21.3,-13.2 C11.6,-13.2 0,-5 0,4.2"/>
<path class="Note" transform="matrix(0.992,0,0,0.992,406.906,2159.4)" d="M0,4.2 C0,8.5 3.1,13.3 11.2,13.3 C21.6,13.3 32.5,4.8 32.5,-4 C32.5,-9.9 27.5,-13.2 21.3,-13.2 C11.6,-13.2 0,-5 0,4.2"/>
<path class="Note" transform="matrix(0.992,0,0,0.992,2333.92,1179.8)" d="M0,4.2 C0,8.5 3.1,13.3 11.2,13.3 C21.6,13.3 32.5,4.8 32.5,-4 C32.5,-9.9 27.5,-13.2 21.3,-13.2 C11.6,-13.2 0,-5 0,4.2"/>
<path class="Note" transform="matrix(0.992,0,0,0.992,1680.9,770.598)" d="M0,4.2 C0,8.5 3.1,13.3 11.2,13.3 C21.6,13.3 32.5,4.8 32.5,-4 C32.5,-9.9 27.5,-13.2 21.3,-13.2 C11.6,-13.2 0,-5 0,4.2"/>
<path class="Note" transform="matrix(0.992,0,0,0.992,833.119,2122.2)" d="M0,4.2 C0,8.5 3.1,13.3 11.2,13.3 C21.6,13.3 32.5,4.8 32.5,-4 C32.5,-9.9 27.5,-13.2 21.3,-13.2 C11.6,-13.2 0,-5 0,4.2"/>
<path class="Note" transform="matrix(0.992,0,0,0.992,1305.57,2147)" d="M0,4.2 C0,8.5 3.1,13.3 11.2,13.3 C21.6,13.3 32.5,4.8 32.5,-4 C32.5,-9.9 27.5,-13.2 21.3,-13.2 C11.6,-13.2 0,-5 0,4.2"/>
<path class="Note" transform="matrix(0.992,0,0,0.992,2324.41,1688.2)" d="M0,4.2 C0,8.5 3.1,13.3 11.2,13.3 C21.6,13.3 32.5,4.8 32.5,-4 C32.5,-9.9 27.5,-13.2 21.3,-13.2 C11.6,-13.2 0,-5 0,4.2"/>
<path class="Note" transform="matrix(0.992,0,0,0.992,712.101,708.598)" d="M0,4.2 C0,8.5 3.1,13.3 11.2,13.3 C21.6,13.3 32.5,4.8 32.5,-4 C32.5,-9.9 27.5,-13.2 21.3,-13.2 C11.6,-13.2 0,-5 0,4.2"/>
<path class="Note" transform="matrix(0.992,0,0,0.992,1070.51,1167.4)" d="M0,4.2 C0,8.5 3.1,13.3 11.2,13.3 C21.6,13.3 32.5,4.8 32.5,-4 C32.5,-9.9 27.5,-13.2 21.3,-13.2 C11.6,-13.2 0,-5 0,4.2"/>
<path class="Note" transform="matrix(0.992,0,0,0.992,1162.06,708.598)" d="M0,4.2 C0,8.5 3.1,13.3 11.2,13.3 C21.6,13.3 32.5,4.8 32.5,-4 C32.5,-9.9 27.5,-13.2 21.3,-13.2 C11.6,-13.2 0,-5 0,4.2"/>
<path class="Note" transform="matrix(0.992,0,0,0.992,1772.73,745.798)" d="M0,4.2 C0,8.5 3.1,13.3 11.2,13.3 C21.6,13.3 32.5,4.8 32.5,-4 C32.5,-9.9 27.5,-13.2 21.3,-13.2 C11.6,-13.2 0,-5 0,4.2"/>
<path class="Note" transform="matrix(0.992,0,0,0.992,1864.57,708.598)" d="M0,4.2 C0,8.5 3.1,13.3 11.2,13.3 C21.6,13.3 32.5,4.8 32.5,-4 C32.5,-9.9 27.5,-13.2 21.3,-13.2 C11.6,-13.2 0,-5 0,4.2"/>
<path class="Note" transform="matrix(0.992,0,0,0.992,935.877,1179.8)" d="M0,4.2 C0,8.5 3.1,13.3 11.2,13.3 C21.6,13.3 32.5,4.8 32.5,-4 C32.5,-9.9 27.5,-13.2 21.3,-13.2 C11.6,-13.2 0,-5 0,4.2"/>
<path class="Note" transform="matrix(0.992,0,0,0.992,406.906,1601.4)" d="M0,4.2 C0,8.5 3.1,13.3 11.2,13.3 C21.6,13.3 32.5,4.8 32.5,-4 C32.5,-9.9 27.5,-13.2 21.3,-13.2 C11.6,-13.2 0,-5 0,4.2"/>
<path class="Note" transform="matrix(0.992,0,0,0.992,445.641,745.798)" d="M0,4.2 C0,8.5 3.1,13.3 11.2,13.3 C21.6,13.3 32.5,4.8 32.5,-4 C32.5,-9.9 27.5,-13.2 21.3,-13.2 C11.6,-13.2 0,-5 0,4.2"/>
<path class="Note" transform="matrix(0.992,0,0,0.992,2316.75,2122.2)" d="M0,4.2 C0,8.5 3.1,13.3 11.2,13.3 C21.6,13.3 32.5,4.8 32.5,-4 C32.5,-9.9 27.5,-13.2 21.3,-13.2 C11.6,-13.2 0,-5 0,4.2"/>
<path class="Note" transform="matrix(0.992,0,0,0.992,1208.74,2134.6)" d="M0,4.2 C0,8.5 3.1,13.3 11.2,13.3 C21.6,13.3 32.5,4.8 32.5,-4 C32.5,-9.9 27.5,-13.2 21.3,-13.2 C11.6,-13.2 0,-5 0,4.2"/>
<path class="Note" transform="matrix(0.992,0,0,0.992,2137.53,1638.6)" d="M0,4.2 C0,8.5 3.1,13.3 11.2,13.3 C21.6,13.3 32.5,4.8 32.5,-4 C32.5,-9.9 27.5,-13.2 21.3,-13.2 C11.6,-13.2 0,-5 0,4.2"/>
<path class="Note" transform="matrix(0.992,0,0,0.992,597.277,1601.4)" d="M0,4.2 C0,8.5 3.1,13.3 11.2,13.3 C21.6,13.3 32.5,4.8 32.5,-4 C32.5,-9.9 27.5,-13.2 21.3,-13.2 C11.6,-13.2 0,-5 0,4.2"/>
<path class="Note" transform="matrix(0.992,0,0,0.992,691.052,1179.8)" d="M0,4.2 C0,8.5 3.1,13.3 11.2,13.3 C21.6,13.3 32.5,4.8 32.5,-4 C32.5,-9.9 27.5,-13.2 21.3,-13.2 C11.6,-13.2 0,-5 0,4.2"/>
<path class="Note" transform="matrix(0.992,0,0,0.992,593.122,1217)" d="M0,4.2 C0,8.5 3.1,13.3 11.2,13.3 C21.6,13.3 32.5,4.8 32.5,-4 C32.5,-9.9 27.5,-13.2 21.3,-13.2 C11.6,-13.2 0,-5 0,4.2"/>
<path class="Note" transform="matrix(0.992,0,0,0.992,697.393,1601.4)" d="M0,4.2 C0,8.5 3.1,13.3 11.2,13.3 C21.6,13.3 32.5,4.8 32.5,-4 C32.5,-9.9 27.5,-13.2 21.3,-13.2 C11.6,-13.2 0,-5 0,4.2"/>
<path class="Note" transform="matrix(0.992,0,0,0.992,1956.4,696.198)" d="M0,4.2 C0,8.5 3.1,13.3 11.2,13.3 C21.6,13.3 32.5,4.8 32.5,-4 C32.5,-9.9 27.5,-13.2 21.3,-13.2 C11.6,-13.2 0,-5 0,4.2"/>
<path class="Note" transform="matrix(0.992,0,0,0.992,2048.24,683.798)" d="M0,4.2 C0,8.5 3.1,13.3 11.2,13.3 C21.6,13.3 32.5,4.8 32.5,-4 C32.5,-9.9 27.5,-13.2 21.3,-13.2 C11.6,-13.2 0,-5 0,4.2"/>
<path class="Note" transform="matrix(0.992,0,0,0.992,1802.23,2109.8)" d="M0,4.2 C0,8.5 3.1,13.3 11.2,13.3 C21.6,13.3 32.5,4.8 32.5,-4 C32.5,-9.9 27.5,-13.2 21.3,-13.2 C11.6,-13.2 0,-5 0,4.2"/>
<path class="Note" transform="matrix(0.992,0,0,0.992,406.906,1217)" d="M0,4.2 C0,8.5 3.1,13.3 11.2,13.3 C21.6,13.3 32.5,4.8 32.5,-4 C32.5,-9.9 27.5,-13.2 21.3,-13.2 C11.6,-13.2 0,-5 0,4.2"/>
<path class="Note" transform="matrix(0.992,0,0,0.992,947.682,1626.2)" d="M0,4.2 C0,8.5 3.1,13.3 11.2,13.3 C21.6,13.3 32.5,4.8 32.5,-4 C32.5,-9.9 27.5,-13.2 21.3,-13.2 C11.6,-13.2 0,-5 0,4.2"/>
<path class="Note" transform="matrix(0.992,0,0,0.992,620.266,745.798)" d="M0,4.2 C0,8.5 3.1,13.3 11.2,13.3 C21.6,13.3 32.5,4.8 32.5,-4 C32.5,-9.9 27.5,-13.2 21.3,-13.2 C11.6,-13.2 0,-5 0,4.2"/>
<path class="Note" transform="matrix(0.992,0,0,0.992,1987.36,1675.8)" d="M0,4.2 C0,8.5 3.1,13.3 11.2,13.3 C21.6,13.3 32.5,4.8 32.5,-4 C32.5,-9.9 27.5,-13.2 21.3,-13.2 C11.6,-13.2 0,-5 0,4.2"/>
<path class="Note" transform="matrix(0.992,0,0,0.992,1015.07,2109.8)" d="M0,4.2 C0,8.5 3.1,13.3 11.2,13.3 C21.6,13.3 32.5,4.8 32.5,-4 C32.5,-9.9 27.5,-13.2 21.3,-13.2 C11.6,-13.2 0,-5 0,4.2"/>
<path class="Note" transform="matrix(0.992,0,0,0.992,1084.5,1613.8)" d="M0,4.2 C0,8.5 3.1,13.3 11.2,13.3 C21.6,13.3 32.5,4.8 32.5,-4 C32.5,-9.9 27.5,-13.2 21.3,-13.2 C11.6,-13.2 0,-5 0,4.2"/>
<path class="Note" transform="matrix(0.992,0,0,0.992,1111.91,2122.2)" d="M0,4.2 C0,8.5 3.1,13.3 11.2,13.3 C21.6,13.3 32.5,4.8 32.5,-4 C32.5,-9.9 27.5,-13.2 21.3,-13.2 C11.6,-13.2 0,-5 0,4.2"/>
<path class="Note" transform="matrix(0.992,0,0,0.992,1762.1,1626.2)" d="M0,4.2 C0,8.5 3.1,13.3 11.2,13.3 C21.6,13.3 32.5,4.8 32.5,-4 C32.5,-9.9 27.5,-13.2 21.3,-13.2 C11.6,-13.2 0,-5 0,4.2"/>
<path class="Note" transform="matrix(0.992,0,0,0.992,1253.9,720.998)" d="M0,4.2 C0,8.5 3.1,13.3 11.2,13.3 C21.6,13.3 32.5,4.8 32.5,-4 C32.5,-9.9 27.5,-13.2 21.3,-13.2 C11.6,-13.2 0,-5 0,4.2"/>
<path class="Note" transform="matrix(0.992,0,0,0.992,2185.99,658.998)" d="M0,4.2 C0,8.5 3.1,13.3 11.2,13.3 C21.6,13.3 32.5,4.8 32.5,-4 C32.5,-9.9 27.5,-13.2 21.3,-13.2 C11.6,-13.2 0,-5 0,4.2"/>
<path class="Note" transform="matrix(0.992,0,0,0.992,1274.87,1613.8)" d="M0,4.2 C0,8.5 3.1,13.3 11.2,13.3 C21.6,13.3 32.5,4.8 32.5,-4 C32.5,-9.9 27.5,-13.2 21.3,-13.2 C11.6,-13.2 0,-5 0,4.2"/>
<path class="Note" transform="matrix(0.992,0,0,0.992,1924.99,2097.4)" d="M0,4.2 C0,8.5 3.1,13.3 11.2,13.3 C21.6,13.3 32.5,4.8 32.5,-4 C32.5,-9.9 27.5,-13.2 21.3,-13.2 C11.6,-13.2 0,-5 0,4.2"/>
<path class="Note" transform="matrix(0.992,0,0,0.992,2360.45,696.198)" d="M0,4.2 C0,8.5 3.1,13.3 11.2,13.3 C21.6,13.3 32.5,4.8 32.5,-4 C32.5,-9.9 27.5,-13.2 21.3,-13.2 C11.6,-13.2 0,-5 0,4.2"/>
<path class="Note" transform="matrix(0.992,0,0,0.992,1374.99,1613.8)" d="M0,4.2 C0,8.5 3.1,13.3 11.2,13.3 C21.6,13.3 32.5,4.8 32.5,-4 C32.5,-9.9 27.5,-13.2 21.3,-13.2 C11.6,-13.2 0,-5 0,4.2"/>
<path class="Note" transform="matrix(0.992,0,0,0.992,1625.28,1638.6)" d="M0,4.2 C0,8.5 3.1,13.3 11.2,13.3 C21.6,13.3 32.5,4.8 32.5,-4 C32.5,-9.9 27.5,-13.2 21.3,-13.2 C11.6,-13.2 0,-5 0,4.2"/>
<path class="Note" transform="matrix(0.992,0,0,0.992,1989.54,2085)" d="M0,4.2 C0,8.5 3.1,13.3 11.2,13.3 C21.6,13.3 32.5,4.8 32.5,-4 C32.5,-9.9 27.5,-13.2 21.3,-13.2 C11.6,-13.2 0,-5 0,4.2"/>
<path class="Note" transform="matrix(0.992,0,0,0.992,1719.28,1167.4)" d="M0,4.2 C0,8.5 3.1,13.3 11.2,13.3 C21.6,13.3 32.5,4.8 32.5,-4 C32.5,-9.9 27.5,-13.2 21.3,-13.2 C11.6,-13.2 0,-5 0,4.2"/>
<path class="Clef" transform="matrix(0.992,0,0,0.992,232.438,2122.2)" d="M12.3,51.3 C12.3,57.9 17.3,66.6 30.8,66.6 C35.5,66.6 39.6,65.4 43.2,63.2 C48.6,59.4 50,52.8 50,46.5 C50,42.6 49.4,38.1 48.4,32.4 C48.1,30.4 47.5,27.4 46.9,23.5 C56.7,20.3 64,10.1 64,-0.2 C64,-15.3 53.3,-25.5 38.7,-25.5 C37.7,-31.5 36.7,-37.4 35.9,-43 C46.4,-54.1 53.7,-66.6 53.7,-82.5 C53.7,-91.6 50.9,-99 49.3,-102.6 C46.9,-107.7 44,-111.2 42.2,-111.2 C41.5,-111.2 38.4,-110 35.1,-106.1 C28.7,-98.5 26.9,-85.7 26.9,-77.3 C26.9,-71.9 27.4,-67 29.1,-55.8 C29,-55.7 23.8,-50.4 21.7,-48.7 C12.6,-40.3 0,-28.1 0,-8.1 C0,10.6 16.3,25.3 34.9,25.3 C37.8,25.3 40.5,25 42.8,24.6 C44.7,34.2 45.9,41.2 45.9,46.5 C45.9,56.9 40.5,62.4 30.4,62.4 C28,62.4 25.9,61.9 25.7,61.9 C25.6,61.8 25.4,61.7 25.4,61.6 C25.4,61.4 25.6,61.3 25.9,61.3 C30.6,60.5 35.3,56.5 35.3,50.1 C35.3,44.7 31.2,39 23.7,39 C16.7,39 12.3,44.7 12.3,51.3 M33.2,-82.2 C34.1,-86.2 38.7,-96.7 43.9,-96.7 C45.4,-96.7 47.8,-91.9 47.8,-84.9 C47.8,-74.5 40.1,-66.7 33.2,-59.9 C32.6,-63.9 32.1,-67.8 32.1,-72 C32.1,-75.7 32.4,-79.1 33.2,-82.2 M42,20.6 C40,21 38.1,21.2 36.2,21.2 C21.9,21.2 9.7,11.2 9.7,-3.9 C9.7,-16.1 18.3,-27 27.1,-34.6 C28.8,-36.1 30.4,-37.5 31.9,-39 C32.8,-33.6 33.5,-28.9 34.2,-24.8 C25.1,-22.1 18.9,-12.5 18.9,-3.1 C18.9,3.9 24.4,13.5 32.4,13.5 C33.2,13.5 34.1,13.1 34.1,12.2 C34.1,11.3 33.1,10.8 31.9,10 C28,7.6 25.8,5 25.8,0.1 C25.8,-6 30.4,-10.9 36.2,-12.3 L42,20.6 M56.2,2.1 C56.2,9.2 53.3,16.5 46.2,19.4 C44.1,7.4 41.4,-8.5 40.7,-12.9 C49.7,-12.9 56.2,-6.8 56.2,2.1"/>
<path class="Clef" transform="matrix(0.992,0,0,0.992,232.438,708.598)" d="M12.3,51.3 C12.3,57.9 17.3,66.6 30.8,66.6 C35.5,66.6 39.6,65.4 43.2,63.2 C48.6,59.4 50,52.8 50,46.5 C50,42.6 49.4,38.1 48.4,32.4 C48.1,30.4 47.5,27.4 46.9,23.5 C56.7,20.3 64,10.1 64,-0.2 C64,-15.3 53.3,-25.5 38.7,-25.5 C37.7,-31.5 36.7,-37.4 35.9,-43 C46.4,-54.1 53.7,-66.6 53.7,-82.5 C53.7,-91.6 50.9,-99 49.3,-102.6 C46.9,-107.7 44,-111.2 42.2,-111.2 C41.5,-111.2 38.4,-110 35.1,-106.1 C28.7,-98.5 26.9,-85.7 26.9,-77.3 C26.9,-71.9 27.4,-67 29.1,-55.8 C29,-55.7 23.8,-50.4 21.7,-48.7 C12.6,-40.3 0,-28.1 0,-8.1 C0,10.6 16.3,25.3 34.9,25.3 C37.8,25.3 40.5,25 42.8,24.6 C44.7,34.2 45.9,41.2 45.9,46.5 C45.9,56.9 40.5,62.4 30.4,62.4 C28,62.4 25.9,61.9 25.7,61.9 C25.6,61.8 25.4,61.7 25.4,61.6 C25.4,61.4 25.6,61.3 25.9,61.3 C30.6,60.5 35.3,56.5 35.3,50.1 C35.3,44.7 31.2,39 23.7,39 C16.7,39 12.3,44.7 12.3,51.3 M33.2,-82.2 C34.1,-86.2 38.7,-96.7 43.9,-96.7 C45.4,-96.7 47.8,-91.9 47.8,-84.9 C47.8,-74.5 40.1,-66.7 33.2,-59.9 C32.6,-63.9 32.1,-67.8 32.1,-72 C32.1,-75.7 32.4,-79.1 33.2,-82.2 M42,20.6 C40,21 38.1,21.2 36.2,21.2 C21.9,21.2 9.7,11.2 9.7,-3.9 C9.7,-16.1 18.3,-27 27.1,-34.6 C28.8,-36.1 30.4,-37.5 31.9,-39 C32.8,-33.6 33.5,-28.9 34.2,-24.8 C25.1,-22.1 18.9,-12.5 18.9,-3.1 C18.9,3.9 24.4,13.5 32.4,13.5 C33.2,13.5 34.1,13.1 34.1,12.2 C34.1,11.3 33.1,10.8 31.9,10 C28,7.6 25.8,5 25.8,0.1 C25.8,-6 30.4,-10.9 36.2,-12.3 L42,20.6 M56.2,2.1 C56.2,9.2 53.3,16.5 46.2,19.4 C44.1,7.4 41.4,-8.5 40.7,-12.9 C49.7,-12.9 56.2,-6.8 56.2,2.1"/>
<path class="Clef" transform="matrix(0.992,0,0,0.992,232.438,1179.8)" d="M12.3,51.3 C12.3,57.9 17.3,66.6 30.8,66.6 C35.5,66.6 39.6,65.4 43.2,63.2 C48.6,59.4 50,52.8 50,46.5 C50,42.6 49.4,38.1 48.4,32.4 C48.1,30.4 47.5,27.4 46.9,23.5 C56.7,20.3 64,10.1 64,-0.2 C64,-15.3 53.3,-25.5 38.7,-25.5 C37.7,-31.5 36.7,-37.4 35.9,-43 C46.4,-54.1 53.7,-66.6 53.7,-82.5 C53.7,-91.6 50.9,-99 49.3,-102.6 C46.9,-107.7 44,-111.2 42.2,-111.2 C41.5,-111.2 38.4,-110 35.1,-106.1 C28.7,-98.5 26.9,-85.7 26.9,-77.3 C26.9,-71.9 27.4,-67 29.1,-55.8 C29,-55.7 23.8,-50.4 21.7,-48.7 C12.6,-40.3 0,-28.1 0,-8.1 C0,10.6 16.3,25.3 34.9,25.3 C37.8,25.3 40.5,25 42.8,24.6 C44.7,34.2 45.9,41.2 45.9,46.5 C45.9,56.9 40.5,62.4 30.4,62.4 C28,62.4 25.9,61.9 25.7,61.9 C25.6,61.8 25.4,61.7 25.4,61.6 C25.4,61.4 25.6,61.3 25.9,61.3 C30.6,60.5 35.3,56.5 35.3,50.1 C35.3,44.7 31.2,39 23.7,39 C16.7,39 12.3,44.7 12.3,51.3 M33.2,-82.2 C34.1,-86.2 38.7,-96.7 43.9,-96.7 C45.4,-96.7 47.8,-91.9 47.8,-84.9 C47.8,-74.5 40.1,-66.7 33.2,-59.9 C32.6,-63.9 32.1,-67.8 32.1,-72 C32.1,-75.7 32.4,-79.1 33.2,-82.2 M42,20.6 C40,21 38.1,21.2 36.2,21.2 C21.9,21.2 9.7,11.2 9.7,-3.9 C9.7,-16.1 18.3,-27 27.1,-34.6 C28.8,-36.1 30.4,-37.5 31.9,-39 C32.8,-33.6 33.5,-28.9 34.2,-24.8 C25.1,-22.1 18.9,-12.5 18.9,-3.1 C18.9,3.9 24.4,13.5 32.4,13.5 C33.2,13.5 34.1,13.1 34.1,12.2 C34.1,11.3 33.1,10.8 31.9,10 C28,7.6 25.8,5 25.8,0.1 C25.8,-6 30.4,-10.9 36.2,-12.3 L42,20.6 M56.2,2.1 C56.2,9.2 53.3,16.5 46.2,19.4 C44.1,7.4 41.4,-8.5 40.7,-12.9 C49.7,-12.9 56.2,-6.8 56.2,2.1"/>
<path class="Clef" transform="matrix(0.992,0,0,0.992,232.438,1651)" d="M12.3,51.3 C12.3,57.9 17.3,66.6 30.8,66.6 C35.5,66.6 39.6,65.4 43.2,63.2 C48.6,59.4 50,52.8 50,46.5 C50,42.6 49.4,38.1 48.4,32.4 C48.1,30.4 47.5,27.4 46.9,23.5 C56.7,20.3 64,10.1 64,-0.2 C64,-15.3 53.3,-25.5 38.7,-25.5 C37.7,-31.5 36.7,-37.4 35.9,-43 C46.4,-54.1 53.7,-66.6 53.7,-82.5 C53.7,-91.6 50.9,-99 49.3,-102.6 C46.9,-107.7 44,-111.2 42.2,-111.2 C41.5,-111.2 38.4,-110 35.1,-106.1 C28.7,-98.5 26.9,-85.7 26.9,-77.3 C26.9,-71.9 27.4,-67 29.1,-55.8 C29,-55.7 23.8,-50.4 21.7,-48.7 C12.6,-40.3 0,-28.1 0,-8.1 C0,10.6 16.3,25.3 34.9,25.3 C37.8,25.3 40.5,25 42.8,24.6 C44.7,34.2 45.9,41.2 45.9,46.5 C45.9,56.9 40.5,62.4 30.4,62.4 C28,62.4 25.9,61.9 25.7,61.9 C25.6,61.8 25.4,61.7 25.4,61.6 C25.4,61.4 25.6,61.3 25.9,61.3 C30.6,60.5 35.3,56.5 35.3,50.1 C35.3,44.7 31.2,39 23.7,39 C16.7,39 12.3,44.7 12.3,51.3 M33.2,-82.2 C34.1,-86.2 38.7,-96.7 43.9,-96.7 C45.4,-96.7 47.8,-91.9 47.8,-84.9 C47.8,-74.5 40.1,-66.7 33.2,-59.9 C32.6,-63.9 32.1,-67.8 32.1,-72 C32.1,-75.7 32.4,-79.1 33.2,-82.2 M42,20.6 C40,21 38.1,21.2 36.2,21.2 C21.9,21.2 9.7,11.2 9.7,-3.9 C9.7,-16.1 18.3,-27 27.1,-34.6 C28.8,-36.1 30.4,-37.5 31.9,-39 C32.8,-33.6 33.5,-28.9 34.2,-24.8 C25.1,-22.1 18.9,-12.5 18.9,-3.1 C18.9,3.9 24.4,13.5 32.4,13.5 C33.2,13.5 34.1,13.1 34.1,12.2 C34.1,11.3 33.1,10.8 31.9,10 C28,7.6 25.8,5 25.8,0.1 C25.8,-6 30.4,-10.9 36.2,-12.3 L42,20.6 M56.2,2.1 C56.2,9.2 53.3,16.5 46.2,19.4 C44.1,7.4 41.4,-8.5 40.7,-12.9 C49.7,-12.9 56.2,-6.8 56.2,2.1"/>
<path class="KeySig" transform="matrix(0.992,0,0,0.992,320.711,1576.6)" d="M23.3,-10.5 C23.9,-10.6 24.4,-11.3 24.4,-11.9 L24.4,-17.8 C24.4,-18.8 23.7,-19.2 22.8,-19.2 L19.5,-18.5 L19.5,-33.4 L16.7,-33.4 L16.7,-17.9 L7.8,-16.1 L7.8,-30.2 L5,-30.2 L5,-15.5 L1.1,-14.7 C0.5,-14.6 0,-13.9 0,-13.3 L0,-7.5 C0,-6.4 0.8,-6.1 1.7,-6.1 L5,-6.8 L5,9.7 L1.1,10.5 C0.5,10.6 0,11.3 0,11.9 L0,17.7 C0,18.8 0.8,19.1 1.7,19.1 L5,18.4 L5,33.3 L7.8,33.3 L7.8,17.8 L16.7,16 L16.7,30.1 L19.5,30.1 L19.5,15.4 L23.3,14.7 C23.9,14.6 24.4,13.9 24.4,13.3 L24.4,7.4 C24.4,6.4 23.7,6 22.8,6 L19.5,6.7 L19.5,-9.8 L23.3,-10.5 M7.8,-7.4 L16.7,-9.2 L16.7,7.3 L7.8,9.2 L7.8,-7.4 "/>
<path class="KeySig" transform="matrix(0.992,0,0,0.992,320.711,2047.8)" d="M23.3,-10.5 C23.9,-10.6 24.4,-11.3 24.4,-11.9 L24.4,-17.8 C24.4,-18.8 23.7,-19.2 22.8,-19.2 L19.5,-18.5 L19.5,-33.4 L16.7,-33.4 L16.7,-17.9 L7.8,-16.1 L7.8,-30.2 L5,-30.2 L5,-15.5 L1.1,-14.7 C0.5,-14.6 0,-13.9 0,-13.3 L0,-7.5 C0,-6.4 0.8,-6.1 1.7,-6.1 L5,-6.8 L5,9.7 L1.1,10.5 C0.5,10.6 0,11.3 0,11.9 L0,17.7 C0,18.8 0.8,19.1 1.7,19.1 L5,18.4 L5,33.3 L7.8,33.3 L7.8,17.8 L16.7,16 L16.7,30.1 L19.5,30.1 L19.5,15.4 L23.3,14.7 C23.9,14.6 24.4,13.9 24.4,13.3 L24.4,7.4 C24.4,6.4 23.7,6 22.8,6 L19.5,6.7 L19.5,-9.8 L23.3,-10.5 M7.8,-7.4 L16.7,-9.2 L16.7,7.3 L7.8,9.2 L7.8,-7.4 "/>
<path class="KeySig" transform="matrix(0.992,0,0,0.992,320.711,634.198)" d="M23.3,-10.5 C23.9,-10.6 24.4,-11.3 24.4,-11.9 L24.4,-17.8 C24.4,-18.8 23.7,-19.2 22.8,-19.2 L19.5,-18.5 L19.5,-33.4 L16.7,-33.4 L16.7,-17.9 L7.8,-16.1 L7.8,-30.2 L5,-30.2 L5,-15.5 L1.1,-14.7 C0.5,-14.6 0,-13.9 0,-13.3 L0,-7.5 C0,-6.4 0.8,-6.1 1.7,-6.1 L5,-6.8 L5,9.7 L1.1,10.5 C0.5,10.6 0,11.3 0,11.9 L0,17.7 C0,18.8 0.8,19.1 1.7,19.1 L5,18.4 L5,33.3 L7.8,33.3 L7.8,17.8 L16.7,16 L16.7,30.1 L19.5,30.1 L19.5,15.4 L23.3,14.7 C23.9,14.6 24.4,13.9 24.4,13.3 L24.4,7.4 C24.4,6.4 23.7,6 22.8,6 L19.5,6.7 L19.5,-9.8 L23.3,-10.5 M7.8,-7.4 L16.7,-9.2 L16.7,7.3 L7.8,9.2 L7.8,-7.4 "/>
<path class="KeySig" transform="matrix(0.992,0,0,0.992,320.711,1105.4)" d="M23.3,-10.5 C23.9,-10.6 24.4,-11.3 24.4,-11.9 L24.4,-17.8 C24.4,-18.8 23.7,-19.2 22.8,-19.2 L19.5,-18.5 L19.5,-33.4 L16.7,-33.4 L16.7,-17.9 L7.8,-16.1 L7.8,-30.2 L5,-30.2 L5,-15.5 L1.1,-14.7 C0.5,-14.6 0,-13.9 0,-13.3 L0,-7.5 C0,-6.4 0.8,-6.1 1.7,-6.1 L5,-6.8 L5,9.7 L1.1,10.5 C0.5,10.6 0,11.3 0,11.9 L0,17.7 C0,18.8 0.8,19.1 1.7,19.1 L5,18.4 L5,33.3 L7.8,33.3 L7.8,17.8 L16.7,16 L16.7,30.1 L19.5,30.1 L19.5,15.4 L23.3,14.7 C23.9,14.6 24.4,13.9 24.4,13.3 L24.4,7.4 C24.4,6.4 23.7,6 22.8,6 L19.5,6.7 L19.5,-9.8 L23.3,-10.5 M7.8,-7.4 L16.7,-9.2 L16.7,7.3 L7.8,9.2 L7.8,-7.4 "/>
<path class="TimeSig" transform="matrix(0.992,0,0,0.992,371.597,659.494)" d="M34.2,3.9 C33.4,6.1 31.4,13.3 26.5,13.3 C20,13.3 18.6,9.3 13.2,9.3 C12.4,9.3 11.6,9.4 10.6,9.6 C10.6,9.6 13.1,5.8 23.7,2.5 C34.3,-0.8 37,-6 37,-12 C37,-16.2 35.1,-24.5 20,-24.5 C4.9,-24.5 2.1,-15.4 2.1,-10.8 C2.1,-6.7 5.5,-3.4 9.6,-3.4 C13.7,-3.4 17,-6.7 17,-10.8 C17,-13.6 15,-16.7 12.4,-17.7 C12.1,-17.8 11.7,-18.3 11.7,-18.8 C11.7,-19.4 12.2,-20.1 14,-20.6 C14.5,-20.8 15.9,-21.1 17.4,-21.1 C23.1,-21.1 24.2,-17.6 24.2,-12.5 C24.2,-0.8 10.3,1.7 4.5,10.4 C4.5,10.4 1.5,14.6 1.5,19.3 C1.5,24 3.9,24.3 5.1,24.3 C6.7,24.3 8.4,23 8.4,21.2 C8.4,20.8 8.3,20.4 8.1,19.9 C7.5,18.5 7.3,17.4 7.3,16.6 C7.3,16.3 7.3,16 7.4,15.7 C7.5,15.1 8.3,14.1 10.7,14.1 C13.6,14.1 14.7,17.5 16.5,20.1 C18.3,22.7 21.1,24.3 24.3,24.3 C27.5,24.3 31.8,22 33.6,18.3 C35.4,14.6 37.7,7.1 37.7,4.4 C37.7,3.1 36.9,2.5 36,2.5 C35.3,2.5 34.6,2.9 34.2,3.9"/>
<path class="TimeSig" transform="matrix(0.992,0,0,0.992,368.327,708.598)" d="M20.8,12.7 L20.8,20.1 L12.5,20.1 C11.8,20.1 11.1,20.7 11.1,21.5 L11.1,23.4 C11.1,24.2 11.8,24.8 12.5,24.8 L42.8,24.8 C43.6,24.8 44.2,24.2 44.2,23.4 L44.2,21.5 C44.2,20.7 43.6,20.1 42.8,20.1 L33.9,20.1 L33.9,12.7 L42.8,12.7 C43.6,12.7 44.2,12 44.2,11.2 L44.2,9.3 C44.2,8.6 43.6,7.9 42.8,7.9 L33.9,7.9 L33.9,-8 C33.9,-8.6 33.6,-9.1 33.1,-9.3 L31.9,-9.9 C31.7,-10 31.4,-10.1 31.2,-10.1 C30.9,-10 30.5,-9.9 30.3,-9.7 L21.2,-1.4 C20.9,-1.1 20.8,-0.7 20.8,-0.3 L20.8,7.9 L9.3,7.9 C9.3,7.9 20.4,-4.1 32.2,-19.9 C32.6,-20.4 32.7,-20.9 32.7,-21.3 C32.7,-21.8 32.5,-22.2 32.4,-22.3 L30.2,-24.5 C30,-24.7 29.6,-24.9 29.2,-24.9 C28.6,-24.9 15.1,-24.9 14.4,-24.9 C13.6,-24.9 13.1,-24.3 13,-23.7 C13,-23.7 12.5,-16.3 9.9,-8.2 C7.3,-0.1 4.3,4.9 1.7,8.6 C1.7,8.6 1.4,9.1 1.4,9.7 C1.4,9.9 1.4,10.1 1.5,10.3 C1.9,11 2.5,12.1 2.5,12.1 C2.5,12.1 2.7,12.7 3.6,12.7 L20.8,12.7 "/>
<path class="Rest" transform="matrix(0.992,0,0,0.992,1525.16,1626.2)" d="M34.3,-18.6 C34.4,-18.8 34.4,-18.9 34.4,-19.1 C34.4,-19.6 34.1,-20.1 33.5,-20.3 C33.3,-20.4 33.1,-20.4 33,-20.4 C32.4,-20.4 32,-20.1 31.7,-19.6 C29.3,-14.8 25.3,-9.4 19.8,-8 C21,-9.4 21.5,-11 21.5,-12.8 C21.5,-16.7 18,-19.7 14.1,-19.7 C10.2,-19.5 7.2,-16.2 7.2,-12.3 C7.4,-6.7 12.8,-4.8 17.5,-4.8 C22.5,-5 26.4,-7.5 29.4,-11.4 L24.9,4.5 C23.5,9.3 17.8,15.7 12.7,17 C13.8,15.6 14.4,13.9 14.4,12.2 C14.4,8.2 11,5.3 7.1,5.3 C3.1,5.3 0.1,8.7 0.1,12.7 C0.1,15.7 2.2,18.2 4.8,19.1 C6.7,19.9 8.4,20.1 10.4,20.1 C15.4,20 19.3,17.4 22.3,13.5 L12.1,50 L14.8,50.7 L34.3,-18.6 "/>
<path class="Rest" transform="matrix(0.992,0,0,0.992,2613.24,1155)" d="M26.7,-20.3 C26.6,-20.3 26.4,-20.4 26.3,-20.4 C25.7,-20.4 25.2,-20.1 25,-19.6 C22.7,-15 17.9,-8.8 12.5,-7.8 C13.6,-9.1 14.3,-10.7 14.3,-12.6 C14.3,-16.5 11.1,-19.7 7.2,-19.7 C3.2,-19.7 0,-16.5 0,-12.6 C0,-7.2 5.3,-4.7 10,-4.7 C15.3,-4.7 18.8,-7.2 22.2,-10.9 L10.8,24.7 L13.5,25.5 L27.5,-18.6 C27.6,-18.7 27.6,-18.9 27.6,-19.1 C27.6,-19.6 27.3,-20 26.7,-20.3"/>
<path class="Rest" transform="matrix(0.992,0,0,0.992,2592.94,2097.4)" d="M26.7,-20.3 C26.6,-20.3 26.4,-20.4 26.3,-20.4 C25.7,-20.4 25.2,-20.1 25,-19.6 C22.7,-15 17.9,-8.8 12.5,-7.8 C13.6,-9.1 14.3,-10.7 14.3,-12.6 C14.3,-16.5 11.1,-19.7 7.2,-19.7 C3.2,-19.7 0,-16.5 0,-12.6 C0,-7.2 5.3,-4.7 10,-4.7 C15.3,-4.7 18.8,-7.2 22.2,-10.9 L10.8,24.7 L13.5,25.5 L27.5,-18.6 C27.6,-18.7 27.6,-18.9 27.6,-19.1 C27.6,-19.6 27.3,-20 26.7,-20.3"/>
<path class="Rest" transform="matrix(0.992,0,0,0.992,2622.39,683.798)" d="M26.7,-20.3 C26.6,-20.3 26.4,-20.4 26.3,-20.4 C25.7,-20.4 25.2,-20.1 25,-19.6 C22.7,-15 17.9,-8.8 12.5,-7.8 C13.6,-9.1 14.3,-10.7 14.3,-12.6 C14.3,-16.5 11.1,-19.7 7.2,-19.7 C3.2,-19.7 0,-16.5 0,-12.6 C0,-7.2 5.3,-4.7 10,-4.7 C15.3,-4.7 18.8,-7.2 22.2,-10.9 L10.8,24.7 L13.5,25.5 L27.5,-18.6 C27.6,-18.7 27.6,-18.9 27.6,-19.1 C27.6,-19.6 27.3,-20 26.7,-20.3"/>
<path class="Rest" transform="matrix(0.992,0,0,0.992,2609.96,1626.2)" d="M26.7,-20.3 C26.6,-20.3 26.4,-20.4 26.3,-20.4 C25.7,-20.4 25.2,-20.1 25,-19.6 C22.7,-15 17.9,-8.8 12.5,-7.8 C13.6,-9.1 14.3,-10.7 14.3,-12.6 C14.3,-16.5 11.1,-19.7 7.2,-19.7 C3.2,-19.7 0,-16.5 0,-12.6 C0,-7.2 5.3,-4.7 10,-4.7 C15.3,-4.7 18.8,-7.2 22.2,-10.9 L10.8,24.7 L13.5,25.5 L27.5,-18.6 C27.6,-18.7 27.6,-18.9 27.6,-19.1 C27.6,-19.6 27.3,-20 26.7,-20.3"/>
<path class="Rest" transform="matrix(0.992,0,0,0.992,849.853,683.798)" d="M34.3,-18.6 C34.4,-18.8 34.4,-18.9 34.4,-19.1 C34.4,-19.6 34.1,-20.1 33.5,-20.3 C33.3,-20.4 33.1,-20.4 33,-20.4 C32.4,-20.4 32,-20.1 31.7,-19.6 C29.3,-14.8 25.3,-9.4 19.8,-8 C21,-9.4 21.5,-11 21.5,-12.8 C21.5,-16.7 18,-19.7 14.1,-19.7 C10.2,-19.5 7.2,-16.2 7.2,-12.3 C7.4,-6.7 12.8,-4.8 17.5,-4.8 C22.5,-5 26.4,-7.5 29.4,-11.4 L24.9,4.5 C23.5,9.3 17.8,15.7 12.7,17 C13.8,15.6 14.4,13.9 14.4,12.2 C14.4,8.2 11,5.3 7.1,5.3 C3.1,5.3 0.1,8.7 0.1,12.7 C0.1,15.7 2.2,18.2 4.8,19.1 C6.7,19.9 8.4,20.1 10.4,20.1 C15.4,20 19.3,17.4 22.3,13.5 L12.1,50 L14.8,50.7 L34.3,-18.6 "/>
<path class="Rest" transform="matrix(0.992,0,0,0.992,837.947,1155)" d="M34.3,-18.6 C34.4,-18.8 34.4,-18.9 34.4,-19.1 C34.4,-19.6 34.1,-20.1 33.5,-20.3 C33.3,-20.4 33.1,-20.4 33,-20.4 C32.4,-20.4 32,-20.1 31.7,-19.6 C29.3,-14.8 25.3,-9.4 19.8,-8 C21,-9.4 21.5,-11 21.5,-12.8 C21.5,-16.7 18,-19.7 14.1,-19.7 C10.2,-19.5 7.2,-16.2 7.2,-12.3 C7.4,-6.7 12.8,-4.8 17.5,-4.8 C22.5,-5 26.4,-7.5 29.4,-11.4 L24.9,4.5 C23.5,9.3 17.8,15.7 12.7,17 C13.8,15.6 14.4,13.9 14.4,12.2 C14.4,8.2 11,5.3 7.1,5.3 C3.1,5.3 0.1,8.7 0.1,12.7 C0.1,15.7 2.2,18.2 4.8,19.1 C6.7,19.9 8.4,20.1 10.4,20.1 C15.4,20 19.3,17.4 22.3,13.5 L12.1,50 L14.8,50.7 L34.3,-18.6 "/>
<path class="Rest" transform="matrix(0.992,0,0,0.992,847.566,1626.2)" d="M34.3,-18.6 C34.4,-18.8 34.4,-18.9 34.4,-19.1 C34.4,-19.6 34.1,-20.1 33.5,-20.3 C33.3,-20.4 33.1,-20.4 33,-20.4 C32.4,-20.4 32,-20.1 31.7,-19.6 C29.3,-14.8 25.3,-9.4 19.8,-8 C21,-9.4 21.5,-11 21.5,-12.8 C21.5,-16.7 18,-19.7 14.1,-19.7 C10.2,-19.5 7.2,-16.2 7.2,-12.3 C7.4,-6.7 12.8,-4.8 17.5,-4.8 C22.5,-5 26.4,-7.5 29.4,-11.4 L24.9,4.5 C23.5,9.3 17.8,15.7 12.7,17 C13.8,15.6 14.4,13.9 14.4,12.2 C14.4,8.2 11,5.3 7.1,5.3 C3.1,5.3 0.1,8.7 0.1,12.7 C0.1,15.7 2.2,18.2 4.8,19.1 C6.7,19.9 8.4,20.1 10.4,20.1 C15.4,20 19.3,17.4 22.3,13.5 L12.1,50 L14.8,50.7 L34.3,-18.6 "/>
<path class="Beam" fill-rule="evenodd" d="M2048.24,745.792 L2188.72,739.592 L2188.72,752.004 L2048.24,758.204 L2048.24,745.792 "/>
<path class="Beam" fill-rule="evenodd" d="M2016.85,1576.58 L2169.76,1564.18 L2169.76,1576.62 L2016.85,1589.02 L2016.85,1576.58 "/>
<path class="Beam" fill-rule="evenodd" d="M406.906,1669.6 L600.005,1669.6 L600.005,1682 L406.906,1682 L406.906,1669.6 "/>
<path class="Beam" fill-rule="evenodd" d="M600.005,1651 L567.765,1651 L567.765,1663.4 L600.005,1663.4 L600.005,1651 "/>
<path class="Beam" fill-rule="evenodd" d="M1710.4,634.174 L1988.63,609.374 L1988.63,621.823 L1710.4,646.623 L1710.4,634.174 "/>
<path class="Beam" fill-rule="evenodd" d="M1710.4,652.774 L1988.63,627.974 L1988.63,640.423 L1710.4,665.223 L1710.4,652.774 "/>
<path class="Beam" fill-rule="evenodd" d="M717.365,2041.6 L865.343,2041.6 L865.343,2054 L717.365,2054 L717.365,2041.6 "/>
<path class="Beam" fill-rule="evenodd" d="M475.137,658.998 L652.49,658.998 L652.49,671.398 L475.137,671.398 L475.137,658.998 "/>
<path class="Beam" fill-rule="evenodd" d="M652.49,677.598 L620.25,677.598 L620.25,689.998 L652.49,689.998 L652.49,677.598 "/>
<path class="Beam" fill-rule="evenodd" d="M1084.5,1688.2 L1277.6,1688.2 L1277.6,1700.6 L1084.5,1700.6 L1084.5,1688.2 "/>
<path class="Beam" fill-rule="evenodd" d="M1277.6,1669.6 L1245.36,1669.6 L1245.36,1682 L1277.6,1682 L1277.6,1669.6 "/>
<path class="Beam" fill-rule="evenodd" d="M1989.54,2159.38 L2137.52,2171.78 L2137.52,2184.22 L1989.54,2171.82 L1989.54,2159.38 "/>
<path class="Beam" fill-rule="evenodd" d="M1686.48,2004.4 L1957.21,1998.2 L1957.21,2010.6 L1686.48,2016.8 L1686.48,2004.4 "/>
<path class="Beam" fill-rule="evenodd" d="M1831.73,2019.67 L1957.21,2016.8 L1957.21,2029.2 L1831.73,2032.07 L1831.73,2019.67 "/>
<path class="Beam" fill-rule="evenodd" d="M1957.21,2035.4 L1924.97,2036.14 L1924.97,2048.54 L1957.21,2047.8 L1957.21,2035.4 "/>
<path class="Beam" fill-rule="evenodd" d="M1044.57,2023 L1337.8,2029.2 L1337.8,2041.6 L1044.57,2035.4 L1044.57,2023 "/>
<path class="Beam" fill-rule="evenodd" d="M1044.57,2041.6 L1337.8,2047.8 L1337.8,2060.2 L1044.57,2054 L1044.57,2041.6 "/>
<path class="Beam" fill-rule="evenodd" d="M436.403,1130.2 L625.346,1130.2 L625.346,1142.6 L436.403,1142.6 L436.403,1130.2 "/>
<path class="Beam" fill-rule="evenodd" d="M625.346,1148.8 L593.106,1148.8 L593.106,1161.2 L625.346,1161.2 L625.346,1148.8 "/>
<path class="Beam" fill-rule="evenodd" d="M1100.01,1080.6 L1396.53,1086.8 L1396.53,1099.2 L1100.01,1093 L1100.01,1080.6 "/>
<path class="Beam" fill-rule="evenodd" d="M1100.01,1099.2 L1396.53,1105.4 L1396.53,1117.8 L1100.01,1111.6 L1100.01,1099.2 "/>
<path class="Beam" fill-rule="evenodd" d="M2032.92,1086.79 L2182.54,1080.59 L2182.54,1093 L2032.92,1099.2 L2032.92,1086.79 "/>
<path class="Beam" fill-rule="evenodd" d="M436.403,2072.6 L623.26,2072.6 L623.26,2085 L436.403,2085 L436.403,2072.6 "/>
<path class="Beam" fill-rule="evenodd" d="M623.26,2091.2 L591.02,2091.2 L591.02,2103.6 L623.26,2103.6 L623.26,2091.2 "/>
<path class="Beam" fill-rule="evenodd" d="M1099.72,609.397 L1377.96,615.597 L1377.96,628 L1099.72,621.8 L1099.72,609.397 "/>
<path class="Beam" fill-rule="evenodd" d="M1099.72,627.997 L1377.96,634.197 L1377.96,646.6 L1099.72,640.4 L1099.72,627.997 "/>
<path class="Beam" fill-rule="evenodd" d="M1748.78,1080.6 L1937.72,1080.6 L1937.72,1093 L1748.78,1093 L1748.78,1080.6 "/>
<path class="Beam" fill-rule="evenodd" d="M1937.72,1099.2 L1905.48,1099.2 L1905.48,1111.6 L1937.72,1111.6 L1937.72,1099.2 "/>
<path class="Harmony" d="M2367.37,1003.3 L2365.28,1003.3 L2363.14,1006.6 C2359.56,1003.8 2357.14,1002.86 2353.13,1002.86 C2348.78,1002.86 2345.37,1004.07 2341.91,1006.88 C2336.46,1011.28 2333.93,1016.83 2333.93,1024.26 C2333.93,1029.87 2335.53,1034.54 2338.77,1038.12 C2342.18,1041.97 2347.24,1044.22 2352.52,1044.22 C2357.14,1044.22 2360.39,1042.79 2363.96,1039.22 L2366,1044.17 L2368.31,1044.17 L2368.31,1032.07 C2368.31,1029.26 2368.31,1029.15 2368.64,1028.66 C2369.13,1028.05 2370.12,1027.89 2373.26,1027.89 L2374.08,1027.89 L2374.08,1025.3 L2356.59,1025.3 L2356.59,1027.89 L2357.64,1027.89 C2362.26,1027.89 2362.64,1028.16 2362.64,1031.24 C2362.64,1033.61 2362.26,1035.75 2361.54,1037.07 C2360.17,1039.77 2356.65,1041.64 2353.07,1041.64 C2349.5,1041.64 2345.98,1039.82 2344.11,1037.07 C2342.07,1033.99 2341.19,1030.14 2341.19,1024.26 C2341.19,1011.99 2345.26,1005.45 2352.91,1005.45 C2359.18,1005.45 2363.52,1009.96 2365.78,1018.76 L2368.14,1018.76 L2367.37,1003.3 "/>
<path class="Harmony" d="M2360.45,572.198 L2378.93,572.198 C2383.82,572.198 2387.56,571.428 2390.48,569.778 C2396.03,566.643 2399.11,560.373 2399.11,552.123 C2399.11,544.533 2396.36,538.593 2391.3,535.293 C2388.28,533.368 2384.21,532.488 2377.94,532.488 L2360.45,532.488 L2360.45,535.073 L2361.49,535.073 C2364.57,535.128 2365.62,535.293 2366.06,535.843 C2366.39,536.338 2366.39,536.448 2366.39,539.253 L2366.39,565.433 C2366.39,568.238 2366.39,568.348 2366.06,568.843 C2365.62,569.393 2364.57,569.558 2361.49,569.613 L2360.45,569.613 L2360.45,572.198 M2375.68,569.613 C2372.88,569.613 2372.55,569.283 2372.55,566.588 L2372.55,538.153 C2372.55,535.458 2372.93,535.073 2375.68,535.073 L2378.54,535.073 C2387.95,535.073 2391.85,540.188 2391.85,552.343 C2391.85,564.663 2388.33,569.613 2379.42,569.613 L2375.68,569.613 "/>
<path class="Harmony" d="M2407.33,546.788 L2409.75,547.173 L2410.74,542.828 C2411.57,539.198 2411.95,538.648 2413.55,538.648 C2413.82,538.648 2414.26,538.648 2414.76,538.703 C2421.52,539.033 2421.52,539.033 2424.05,539.033 C2424.77,539.033 2426.03,539.033 2427.57,538.978 L2423.83,546.513 C2419.76,554.598 2419.27,555.588 2417.89,558.998 C2416.19,563.123 2415.31,566.588 2415.31,568.898 C2415.31,571.428 2416.63,572.968 2418.77,572.968 C2421.41,572.968 2422.46,571.208 2422.4,566.423 C2422.13,558.503 2423.12,554.653 2429,541.783 C2429.99,539.638 2431.04,537.438 2432.03,535.293 L2432.03,533.698 C2428.73,533.973 2426.97,534.083 2423.56,534.083 C2418.77,534.083 2414.98,533.918 2409.04,533.478 L2407.33,546.788 "/>
<path class="Harmony" d="M2553.59,1003.3 L2551.5,1003.3 L2549.35,1006.6 C2545.78,1003.8 2543.36,1002.86 2539.34,1002.86 C2535,1002.86 2531.59,1004.07 2528.12,1006.88 C2522.68,1011.28 2520.15,1016.83 2520.15,1024.26 C2520.15,1029.87 2521.74,1034.54 2524.99,1038.12 C2528.4,1041.97 2533.46,1044.22 2538.74,1044.22 C2543.36,1044.22 2546.6,1042.79 2550.18,1039.22 L2552.21,1044.17 L2554.52,1044.17 L2554.52,1032.07 C2554.52,1029.26 2554.52,1029.15 2554.85,1028.66 C2555.35,1028.05 2556.34,1027.89 2559.47,1027.89 L2560.3,1027.89 L2560.3,1025.3 L2542.81,1025.3 L2542.81,1027.89 L2543.85,1027.89 C2548.47,1027.89 2548.86,1028.16 2548.86,1031.24 C2548.86,1033.61 2548.47,1035.75 2547.76,1037.07 C2546.38,1039.77 2542.86,1041.64 2539.29,1041.64 C2535.71,1041.64 2532.19,1039.82 2530.32,1037.07 C2528.29,1033.99 2527.41,1030.14 2527.41,1024.26 C2527.41,1011.99 2531.48,1005.45 2539.12,1005.45 C2545.39,1005.45 2549.74,1009.96 2551.99,1018.76 L2554.36,1018.76 L2553.59,1003.3 "/>
<path class="Harmony" d="M2514.78,1514.6 L2533.26,1514.6 C2538.15,1514.6 2541.89,1513.83 2544.81,1512.18 C2550.36,1509.04 2553.44,1502.77 2553.44,1494.52 C2553.44,1486.93 2550.69,1480.99 2545.63,1477.69 C2542.61,1475.77 2538.54,1474.89 2532.27,1474.89 L2514.78,1474.89 L2514.78,1477.47 L2515.82,1477.47 C2518.9,1477.53 2519.95,1477.69 2520.39,1478.24 C2520.72,1478.74 2520.72,1478.85 2520.72,1481.65 L2520.72,1507.83 C2520.72,1510.64 2520.72,1510.75 2520.39,1511.24 C2519.95,1511.79 2518.9,1511.96 2515.82,1512.01 L2514.78,1512.01 L2514.78,1514.6 M2530.01,1512.01 C2527.21,1512.01 2526.88,1511.68 2526.88,1508.99 L2526.88,1480.55 C2526.88,1477.86 2527.26,1477.47 2530.01,1477.47 L2532.87,1477.47 C2542.28,1477.47 2546.18,1482.59 2546.18,1494.74 C2546.18,1507.06 2542.66,1512.01 2533.75,1512.01 L2530.01,1512.01 "/>
<path class="Harmony" d="M2561.66,1489.19 L2564.08,1489.57 L2565.07,1485.23 C2565.9,1481.6 2566.28,1481.05 2567.88,1481.05 C2568.15,1481.05 2568.59,1481.05 2569.09,1481.1 C2575.85,1481.43 2575.85,1481.43 2578.38,1481.43 C2579.1,1481.43 2580.36,1481.43 2581.9,1481.38 L2578.16,1488.91 C2574.09,1497 2573.6,1497.99 2572.22,1501.4 C2570.52,1505.52 2569.64,1508.99 2569.64,1511.3 C2569.64,1513.83 2570.96,1515.37 2573.1,1515.37 C2575.74,1515.37 2576.79,1513.61 2576.73,1508.82 C2576.46,1500.9 2577.45,1497.05 2583.33,1484.18 C2584.32,1482.04 2585.37,1479.84 2586.36,1477.69 L2586.36,1476.1 C2583.06,1476.37 2581.3,1476.48 2577.89,1476.48 C2573.1,1476.48 2569.31,1476.32 2563.37,1475.88 L2561.66,1489.19 "/>
<path class="Harmony" d="M721.322,1945.7 L719.232,1945.7 L717.087,1949 C713.512,1946.2 711.092,1945.26 707.077,1945.26 C702.732,1945.26 699.322,1946.47 695.857,1949.28 C690.412,1953.68 687.882,1959.23 687.882,1966.66 C687.882,1972.27 689.477,1976.94 692.722,1980.52 C696.132,1984.37 701.192,1986.62 706.472,1986.62 C711.092,1986.62 714.337,1985.19 717.912,1981.62 L719.947,1986.57 L722.257,1986.57 L722.257,1974.47 C722.257,1971.66 722.257,1971.55 722.587,1971.06 C723.082,1970.45 724.072,1970.29 727.207,1970.29 L728.032,1970.29 L728.032,1967.7 L710.542,1967.7 L710.542,1970.29 L711.587,1970.29 C716.207,1970.29 716.592,1970.56 716.592,1973.64 C716.592,1976.01 716.207,1978.15 715.492,1979.47 C714.117,1982.17 710.597,1984.04 707.022,1984.04 C703.447,1984.04 699.927,1982.22 698.057,1979.47 C696.022,1976.39 695.142,1972.54 695.142,1966.66 C695.142,1954.39 699.212,1947.85 706.857,1947.85 C713.127,1947.85 717.472,1952.36 719.727,1961.16 L722.092,1961.16 L721.322,1945.7 "/>
<path class="Harmony" d="M2324.41,1514.6 L2342.89,1514.6 C2347.78,1514.6 2351.52,1513.83 2354.44,1512.18 C2359.99,1509.04 2363.07,1502.77 2363.07,1494.52 C2363.07,1486.93 2360.32,1480.99 2355.26,1477.69 C2352.24,1475.77 2348.17,1474.89 2341.9,1474.89 L2324.41,1474.89 L2324.41,1477.47 L2325.45,1477.47 C2328.53,1477.53 2329.58,1477.69 2330.02,1478.24 C2330.35,1478.74 2330.35,1478.85 2330.35,1481.65 L2330.35,1507.83 C2330.35,1510.64 2330.35,1510.75 2330.02,1511.24 C2329.58,1511.79 2328.53,1511.96 2325.45,1512.01 L2324.41,1512.01 L2324.41,1514.6 M2339.64,1512.01 C2336.84,1512.01 2336.51,1511.68 2336.51,1508.99 L2336.51,1480.55 C2336.51,1477.86 2336.89,1477.47 2339.64,1477.47 L2342.5,1477.47 C2351.91,1477.47 2355.81,1482.59 2355.81,1494.74 C2355.81,1507.06 2352.29,1512.01 2343.38,1512.01 L2339.64,1512.01 "/>
<path class="Harmony" d="M2371.29,1489.19 L2373.71,1489.57 L2374.7,1485.23 C2375.53,1481.6 2375.91,1481.05 2377.51,1481.05 C2377.78,1481.05 2378.22,1481.05 2378.72,1481.1 C2385.48,1481.43 2385.48,1481.43 2388.01,1481.43 C2388.73,1481.43 2389.99,1481.43 2391.53,1481.38 L2387.79,1488.91 C2383.72,1497 2383.23,1497.99 2381.85,1501.4 C2380.15,1505.52 2379.27,1508.99 2379.27,1511.3 C2379.27,1513.83 2380.59,1515.37 2382.73,1515.37 C2385.37,1515.37 2386.42,1513.61 2386.36,1508.82 C2386.09,1500.9 2387.08,1497.05 2392.96,1484.18 C2393.95,1482.04 2395,1479.84 2395.99,1477.69 L2395.99,1476.1 C2392.69,1476.37 2390.93,1476.48 2387.52,1476.48 C2382.73,1476.48 2378.94,1476.32 2373,1475.88 L2371.29,1489.19 "/>
<path class="Harmony" d="M2534.33,1945.7 L2532.24,1945.7 L2530.09,1949 C2526.52,1946.2 2524.1,1945.26 2520.08,1945.26 C2515.74,1945.26 2512.33,1946.47 2508.86,1949.28 C2503.42,1953.68 2500.89,1959.23 2500.89,1966.66 C2500.89,1972.27 2502.48,1976.94 2505.73,1980.52 C2509.14,1984.37 2514.2,1986.62 2519.48,1986.62 C2524.1,1986.62 2527.34,1985.19 2530.92,1981.62 L2532.95,1986.57 L2535.26,1986.57 L2535.26,1974.47 C2535.26,1971.66 2535.26,1971.55 2535.59,1971.06 C2536.09,1970.45 2537.08,1970.29 2540.21,1970.29 L2541.04,1970.29 L2541.04,1967.7 L2523.55,1967.7 L2523.55,1970.29 L2524.59,1970.29 C2529.21,1970.29 2529.6,1970.56 2529.6,1973.64 C2529.6,1976.01 2529.21,1978.15 2528.5,1979.47 C2527.12,1982.17 2523.6,1984.04 2520.03,1984.04 C2516.45,1984.04 2512.93,1982.22 2511.06,1979.47 C2509.03,1976.39 2508.15,1972.54 2508.15,1966.66 C2508.15,1954.39 2512.22,1947.85 2519.86,1947.85 C2526.13,1947.85 2530.48,1952.36 2532.73,1961.16 L2535.1,1961.16 L2534.33,1945.7 "/>
<path class="Harmony" d="M2350.2,1945.7 L2348.11,1945.7 L2345.96,1949 C2342.39,1946.2 2339.97,1945.26 2335.95,1945.26 C2331.61,1945.26 2328.2,1946.47 2324.73,1949.28 C2319.29,1953.68 2316.76,1959.23 2316.76,1966.66 C2316.76,1972.27 2318.35,1976.94 2321.6,1980.52 C2325.01,1984.37 2330.07,1986.62 2335.35,1986.62 C2339.97,1986.62 2343.21,1985.19 2346.79,1981.62 L2348.82,1986.57 L2351.13,1986.57 L2351.13,1974.47 C2351.13,1971.66 2351.13,1971.55 2351.46,1971.06 C2351.96,1970.45 2352.95,1970.29 2356.08,1970.29 L2356.91,1970.29 L2356.91,1967.7 L2339.42,1967.7 L2339.42,1970.29 L2340.46,1970.29 C2345.08,1970.29 2345.47,1970.56 2345.47,1973.64 C2345.47,1976.01 2345.08,1978.15 2344.37,1979.47 C2342.99,1982.17 2339.47,1984.04 2335.9,1984.04 C2332.32,1984.04 2328.8,1982.22 2326.93,1979.47 C2324.9,1976.39 2324.02,1972.54 2324.02,1966.66 C2324.02,1954.39 2328.09,1947.85 2335.73,1947.85 C2342,1947.85 2346.35,1952.36 2348.6,1961.16 L2350.97,1961.16 L2350.2,1945.7 "/>
<path class="Harmony" d="M2158.76,1474.12 L2156.45,1474.12 L2143.8,1506.18 C2142.31,1510.47 2140.88,1511.79 2137.75,1512.01 L2137.53,1512.01 L2137.53,1514.6 L2152.1,1514.6 L2152.1,1512.01 L2151,1512.01 C2148.03,1512.01 2146.55,1510.97 2146.55,1508.88 C2146.55,1508.16 2146.71,1507.5 2147.04,1506.57 L2148.86,1501.73 L2163.43,1501.73 L2166.4,1509.1 C2166.73,1509.98 2166.84,1510.31 2166.84,1510.58 C2166.84,1511.46 2165.47,1512.01 2163.43,1512.01 L2161.12,1512.01 L2161.12,1514.6 L2178.17,1514.6 L2178.17,1512.01 L2177.4,1512.01 C2174.54,1511.96 2174.05,1511.63 2172.78,1508.49 L2158.76,1474.12 M2156.06,1483.14 L2162.28,1498.76 L2149.96,1498.76 L2156.06,1483.14 "/>
<path class="Harmony" d="M2183.37,1489.19 L2185.79,1489.57 L2186.78,1485.23 C2187.6,1481.6 2187.99,1481.05 2189.58,1481.05 C2189.86,1481.05 2190.3,1481.05 2190.79,1481.1 C2197.56,1481.43 2197.56,1481.43 2200.09,1481.43 C2200.8,1481.43 2202.07,1481.43 2203.61,1481.38 L2199.87,1488.91 C2195.8,1497 2195.3,1497.99 2193.93,1501.4 C2192.22,1505.52 2191.34,1508.99 2191.34,1511.3 C2191.34,1513.83 2192.66,1515.37 2194.81,1515.37 C2197.45,1515.37 2198.49,1513.61 2198.44,1508.82 C2198.16,1500.9 2199.15,1497.05 2205.04,1484.18 C2206.03,1482.04 2207.07,1479.84 2208.06,1477.69 L2208.06,1476.1 C2204.76,1476.37 2203,1476.48 2199.59,1476.48 C2194.81,1476.48 2191.01,1476.32 2185.07,1475.88 L2183.37,1489.19 "/>
<path class="Harmony" d="M2020.03,1474.5 L2017.94,1474.5 L2015.74,1477.75 C2011.73,1474.83 2009.69,1474.06 2005.9,1474.06 C2000.67,1474.06 1996.22,1476.26 1992.53,1480.66 C1989.01,1484.84 1987.36,1489.46 1987.36,1495.13 C1987.36,1507.01 1995.12,1515.42 2005.95,1515.42 C2014.75,1515.42 2020.36,1510.25 2021.63,1501.01 L2019.04,1500.57 C2017.56,1508.77 2013.38,1512.84 2006.61,1512.84 C1998.47,1512.84 1994.62,1507.23 1994.62,1495.35 C1994.62,1489.08 1995.45,1484.95 1997.32,1481.65 C1999.02,1478.57 2002.38,1476.65 2005.95,1476.65 C2009.8,1476.65 2013.21,1478.68 2015.3,1482.2 C2016.35,1484.02 2017.12,1486.05 2018.44,1490.4 L2020.86,1490.4 L2020.03,1474.5 "/>
<path class="Harmony" d="M1795.55,1474.5 L1793.46,1474.5 L1791.31,1477.8 C1787.74,1475 1785.32,1474.06 1781.3,1474.06 C1776.96,1474.06 1773.55,1475.27 1770.08,1478.08 C1764.64,1482.48 1762.11,1488.03 1762.11,1495.46 C1762.11,1501.07 1763.7,1505.74 1766.95,1509.32 C1770.36,1513.17 1775.42,1515.42 1780.7,1515.42 C1785.32,1515.42 1788.56,1513.99 1792.14,1510.42 L1794.17,1515.37 L1796.48,1515.37 L1796.48,1503.27 C1796.48,1500.46 1796.48,1500.35 1796.81,1499.86 C1797.31,1499.25 1798.3,1499.09 1801.43,1499.09 L1802.26,1499.09 L1802.26,1496.5 L1784.77,1496.5 L1784.77,1499.09 L1785.81,1499.09 C1790.43,1499.09 1790.82,1499.36 1790.82,1502.44 C1790.82,1504.81 1790.43,1506.95 1789.72,1508.27 C1788.34,1510.97 1784.82,1512.84 1781.25,1512.84 C1777.67,1512.84 1774.15,1511.02 1772.28,1508.27 C1770.25,1505.19 1769.37,1501.34 1769.37,1495.46 C1769.37,1483.19 1773.44,1476.65 1781.08,1476.65 C1787.35,1476.65 1791.7,1481.16 1793.95,1489.96 L1796.32,1489.96 L1795.55,1474.5 "/>
<path class="Harmony" d="M1374.99,1514.6 L1393.47,1514.6 C1398.36,1514.6 1402.1,1513.83 1405.02,1512.18 C1410.57,1509.04 1413.65,1502.77 1413.65,1494.52 C1413.65,1486.93 1410.9,1480.99 1405.84,1477.69 C1402.82,1475.77 1398.75,1474.89 1392.48,1474.89 L1374.99,1474.89 L1374.99,1477.47 L1376.03,1477.47 C1379.11,1477.53 1380.16,1477.69 1380.6,1478.24 C1380.93,1478.74 1380.93,1478.85 1380.93,1481.65 L1380.93,1507.83 C1380.93,1510.64 1380.93,1510.75 1380.6,1511.24 C1380.16,1511.79 1379.11,1511.96 1376.03,1512.01 L1374.99,1512.01 L1374.99,1514.6 M1390.22,1512.01 C1387.42,1512.01 1387.09,1511.68 1387.09,1508.99 L1387.09,1480.55 C1387.09,1477.86 1387.47,1477.47 1390.22,1477.47 L1393.08,1477.47 C1402.49,1477.47 1406.39,1482.59 1406.39,1494.74 C1406.39,1507.06 1402.87,1512.01 1393.96,1512.01 L1390.22,1512.01 "/>
<path class="Harmony" d="M1015.07,1985.8 L1033.55,1985.8 C1038.45,1985.8 1042.19,1985.03 1045.1,1983.38 C1050.66,1980.24 1053.74,1973.97 1053.74,1965.72 C1053.74,1958.13 1050.99,1952.19 1045.93,1948.89 C1042.9,1946.97 1038.83,1946.09 1032.56,1946.09 L1015.07,1946.09 L1015.07,1948.67 L1016.12,1948.67 C1019.2,1948.73 1020.24,1948.89 1020.68,1949.44 C1021.01,1949.94 1021.01,1950.05 1021.01,1952.85 L1021.01,1979.03 C1021.01,1981.84 1021.01,1981.95 1020.68,1982.44 C1020.24,1982.99 1019.2,1983.16 1016.12,1983.21 L1015.07,1983.21 L1015.07,1985.8 M1030.31,1983.21 C1027.5,1983.21 1027.17,1982.88 1027.17,1980.19 L1027.17,1951.75 C1027.17,1949.06 1027.56,1948.67 1030.31,1948.67 L1033.17,1948.67 C1042.57,1948.67 1046.48,1953.79 1046.48,1965.94 C1046.48,1978.26 1042.96,1983.21 1034.05,1983.21 L1030.31,1983.21 "/>
<path class="Harmony" d="M1061.96,1960.39 L1064.38,1960.77 L1065.37,1956.43 C1066.19,1952.8 1066.58,1952.25 1068.17,1952.25 C1068.45,1952.25 1068.89,1952.25 1069.38,1952.3 C1076.15,1952.63 1076.15,1952.63 1078.68,1952.63 C1079.39,1952.63 1080.66,1952.63 1082.2,1952.58 L1078.46,1960.11 C1074.39,1968.2 1073.89,1969.19 1072.52,1972.6 C1070.81,1976.72 1069.93,1980.19 1069.93,1982.5 C1069.93,1985.03 1071.25,1986.57 1073.4,1986.57 C1076.04,1986.57 1077.08,1984.81 1077.03,1980.02 C1076.75,1972.1 1077.74,1968.25 1083.63,1955.38 C1084.62,1953.24 1085.66,1951.04 1086.65,1948.89 L1086.65,1947.3 C1083.35,1947.57 1081.59,1947.68 1078.18,1947.68 C1073.4,1947.68 1069.6,1947.52 1063.66,1947.08 L1061.96,1960.39 "/>
<path class="Harmony" d="M1084.5,1514.6 L1102.98,1514.6 C1107.88,1514.6 1111.62,1513.83 1114.53,1512.18 C1120.09,1509.04 1123.17,1502.77 1123.17,1494.52 C1123.17,1486.93 1120.42,1480.99 1115.36,1477.69 C1112.33,1475.77 1108.26,1474.89 1101.99,1474.89 L1084.5,1474.89 L1084.5,1477.47 L1085.55,1477.47 C1088.63,1477.53 1089.67,1477.69 1090.11,1478.24 C1090.44,1478.74 1090.44,1478.85 1090.44,1481.65 L1090.44,1507.83 C1090.44,1510.64 1090.44,1510.75 1090.11,1511.24 C1089.67,1511.79 1088.63,1511.96 1085.55,1512.01 L1084.5,1512.01 L1084.5,1514.6 M1099.74,1512.01 C1096.93,1512.01 1096.6,1511.68 1096.6,1508.99 L1096.6,1480.55 C1096.6,1477.86 1096.99,1477.47 1099.74,1477.47 L1102.6,1477.47 C1112,1477.47 1115.91,1482.59 1115.91,1494.74 C1115.91,1507.06 1112.39,1512.01 1103.48,1512.01 L1099.74,1512.01 "/>
<path class="Harmony" d="M479.094,532.103 L477.004,532.103 L474.859,535.403 C471.284,532.598 468.864,531.663 464.849,531.663 C460.504,531.663 457.094,532.873 453.629,535.678 C448.184,540.078 445.654,545.633 445.654,553.058 C445.654,558.668 447.249,563.343 450.494,566.918 C453.904,570.768 458.964,573.023 464.244,573.023 C468.864,573.023 472.109,571.593 475.684,568.018 L477.719,572.968 L480.029,572.968 L480.029,560.868 C480.029,558.063 480.029,557.953 480.359,557.458 C480.854,556.853 481.844,556.688 484.979,556.688 L485.804,556.688 L485.804,554.103 L468.314,554.103 L468.314,556.688 L469.359,556.688 C473.979,556.688 474.364,556.963 474.364,560.043 C474.364,562.408 473.979,564.553 473.264,565.873 C471.889,568.568 468.369,570.438 464.794,570.438 C461.219,570.438 457.699,568.623 455.829,565.873 C453.794,562.793 452.914,558.943 452.914,553.058 C452.914,540.793 456.984,534.248 464.629,534.248 C470.899,534.248 475.244,538.758 477.499,547.558 L479.864,547.558 L479.094,532.103 "/>
<path class="Harmony" d="M730.846,1474.5 L728.756,1474.5 L726.611,1477.8 C723.036,1475 720.616,1474.06 716.601,1474.06 C712.256,1474.06 708.846,1475.27 705.381,1478.08 C699.936,1482.48 697.406,1488.03 697.406,1495.46 C697.406,1501.07 699.001,1505.74 702.246,1509.32 C705.656,1513.17 710.716,1515.42 715.996,1515.42 C720.616,1515.42 723.861,1513.99 727.436,1510.42 L729.471,1515.37 L731.781,1515.37 L731.781,1503.27 C731.781,1500.46 731.781,1500.35 732.111,1499.86 C732.606,1499.25 733.596,1499.09 736.731,1499.09 L737.556,1499.09 L737.556,1496.5 L720.066,1496.5 L720.066,1499.09 L721.111,1499.09 C725.731,1499.09 726.116,1499.36 726.116,1502.44 C726.116,1504.81 725.731,1506.95 725.016,1508.27 C723.641,1510.97 720.121,1512.84 716.546,1512.84 C712.971,1512.84 709.451,1511.02 707.581,1508.27 C705.546,1505.19 704.666,1501.34 704.666,1495.46 C704.666,1483.19 708.736,1476.65 716.381,1476.65 C722.651,1476.65 726.996,1481.16 729.251,1489.96 L731.616,1489.96 L730.846,1474.5 "/>
<path class="Harmony" d="M440.36,1474.5 L438.27,1474.5 L436.125,1477.8 C432.55,1475 430.13,1474.06 426.115,1474.06 C421.77,1474.06 418.36,1475.27 414.895,1478.08 C409.45,1482.48 406.92,1488.03 406.92,1495.46 C406.92,1501.07 408.515,1505.74 411.76,1509.32 C415.17,1513.17 420.23,1515.42 425.51,1515.42 C430.13,1515.42 433.375,1513.99 436.95,1510.42 L438.985,1515.37 L441.295,1515.37 L441.295,1503.27 C441.295,1500.46 441.295,1500.35 441.625,1499.86 C442.12,1499.25 443.11,1499.09 446.245,1499.09 L447.07,1499.09 L447.07,1496.5 L429.58,1496.5 L429.58,1499.09 L430.625,1499.09 C435.245,1499.09 435.63,1499.36 435.63,1502.44 C435.63,1504.81 435.245,1506.95 434.53,1508.27 C433.155,1510.97 429.635,1512.84 426.06,1512.84 C422.485,1512.84 418.965,1511.02 417.095,1508.27 C415.06,1505.19 414.18,1501.34 414.18,1495.46 C414.18,1483.19 418.25,1476.65 425.895,1476.65 C432.165,1476.65 436.51,1481.16 438.765,1489.96 L441.13,1489.96 L440.36,1474.5 "/>
<path class="Harmony" d="M745.554,532.103 L743.464,532.103 L741.319,535.403 C737.744,532.598 735.324,531.663 731.309,531.663 C726.964,531.663 723.554,532.873 720.089,535.678 C714.644,540.078 712.114,545.633 712.114,553.058 C712.114,558.668 713.709,563.343 716.954,566.918 C720.364,570.768 725.424,573.023 730.704,573.023 C735.324,573.023 738.569,571.593 742.144,568.018 L744.179,572.968 L746.489,572.968 L746.489,560.868 C746.489,558.063 746.489,557.953 746.819,557.458 C747.314,556.853 748.304,556.688 751.439,556.688 L752.264,556.688 L752.264,554.103 L734.774,554.103 L734.774,556.688 L735.819,556.688 C740.439,556.688 740.824,556.963 740.824,560.043 C740.824,562.408 740.439,564.553 739.724,565.873 C738.349,568.568 734.829,570.438 731.254,570.438 C727.679,570.438 724.159,568.623 722.289,565.873 C720.254,562.793 719.374,558.943 719.374,553.058 C719.374,540.793 723.444,534.248 731.089,534.248 C737.359,534.248 741.704,538.758 743.959,547.558 L746.324,547.558 L745.554,532.103 "/>
<path class="Harmony" d="M1070.23,572.198 L1088.71,572.198 C1093.6,572.198 1097.34,571.428 1100.26,569.778 C1105.81,566.643 1108.89,560.373 1108.89,552.123 C1108.89,544.533 1106.14,538.593 1101.08,535.293 C1098.06,533.368 1093.99,532.488 1087.72,532.488 L1070.23,532.488 L1070.23,535.073 L1071.27,535.073 C1074.35,535.128 1075.4,535.293 1075.84,535.843 C1076.17,536.338 1076.17,536.448 1076.17,539.253 L1076.17,565.433 C1076.17,568.238 1076.17,568.348 1075.84,568.843 C1075.4,569.393 1074.35,569.558 1071.27,569.613 L1070.23,569.613 L1070.23,572.198 M1085.46,569.613 C1082.66,569.613 1082.33,569.283 1082.33,566.588 L1082.33,538.153 C1082.33,535.458 1082.71,535.073 1085.46,535.073 L1088.32,535.073 C1097.73,535.073 1101.63,540.188 1101.63,552.343 C1101.63,564.663 1098.11,569.613 1089.2,569.613 L1085.46,569.613 "/>
<path class="Harmony" d="M1117.11,546.788 L1119.53,547.173 L1120.52,542.828 C1121.35,539.198 1121.73,538.648 1123.33,538.648 C1123.6,538.648 1124.04,538.648 1124.54,538.703 C1131.3,539.033 1131.3,539.033 1133.83,539.033 C1134.55,539.033 1135.81,539.033 1137.35,538.978 L1133.61,546.513 C1129.54,554.598 1129.05,555.588 1127.67,558.998 C1125.97,563.123 1125.09,566.588 1125.09,568.898 C1125.09,571.428 1126.41,572.968 1128.55,572.968 C1131.19,572.968 1132.24,571.208 1132.18,566.423 C1131.91,558.503 1132.9,554.653 1138.78,541.783 C1139.77,539.638 1140.82,537.438 1141.81,535.293 L1141.81,533.698 C1138.51,533.973 1136.75,534.083 1133.34,534.083 C1128.55,534.083 1124.76,533.918 1118.82,533.478 L1117.11,546.788 "/>
<path class="Harmony" d="M1471.02,532.103 L1468.93,532.103 L1466.78,535.403 C1463.21,532.598 1460.79,531.663 1456.77,531.663 C1452.43,531.663 1449.02,532.873 1445.55,535.678 C1440.11,540.078 1437.58,545.633 1437.58,553.058 C1437.58,558.668 1439.17,563.343 1442.42,566.918 C1445.83,570.768 1450.89,573.023 1456.17,573.023 C1460.79,573.023 1464.03,571.593 1467.61,568.018 L1469.64,572.968 L1471.95,572.968 L1471.95,560.868 C1471.95,558.063 1471.95,557.953 1472.28,557.458 C1472.78,556.853 1473.77,556.688 1476.9,556.688 L1477.73,556.688 L1477.73,554.103 L1460.24,554.103 L1460.24,556.688 L1461.28,556.688 C1465.9,556.688 1466.29,556.963 1466.29,560.043 C1466.29,562.408 1465.9,564.553 1465.19,565.873 C1463.81,568.568 1460.29,570.438 1456.72,570.438 C1453.14,570.438 1449.62,568.623 1447.75,565.873 C1445.72,562.793 1444.84,558.943 1444.84,553.058 C1444.84,540.793 1448.91,534.248 1456.55,534.248 C1462.82,534.248 1467.17,538.758 1469.42,547.558 L1471.79,547.558 L1471.02,532.103 "/>
<path class="Harmony" d="M2003.43,1043.4 L2021.91,1043.4 C2026.8,1043.4 2030.54,1042.63 2033.46,1040.98 C2039.01,1037.84 2042.09,1031.57 2042.09,1023.32 C2042.09,1015.73 2039.34,1009.79 2034.28,1006.49 C2031.26,1004.57 2027.19,1003.69 2020.92,1003.69 L2003.43,1003.69 L2003.43,1006.27 L2004.47,1006.27 C2007.55,1006.33 2008.6,1006.49 2009.04,1007.04 C2009.37,1007.54 2009.37,1007.65 2009.37,1010.45 L2009.37,1036.63 C2009.37,1039.44 2009.37,1039.55 2009.04,1040.04 C2008.6,1040.59 2007.55,1040.76 2004.47,1040.81 L2003.43,1040.81 L2003.43,1043.4 M2018.66,1040.81 C2015.86,1040.81 2015.53,1040.48 2015.53,1037.79 L2015.53,1009.35 C2015.53,1006.66 2015.91,1006.27 2018.66,1006.27 L2021.52,1006.27 C2030.93,1006.27 2034.83,1011.39 2034.83,1023.54 C2034.83,1035.86 2031.31,1040.81 2022.4,1040.81 L2018.66,1040.81 "/>
<path class="Harmony" d="M2050.31,1017.99 L2052.73,1018.37 L2053.72,1014.03 C2054.55,1010.4 2054.93,1009.85 2056.53,1009.85 C2056.8,1009.85 2057.24,1009.85 2057.74,1009.9 C2064.5,1010.23 2064.5,1010.23 2067.03,1010.23 C2067.75,1010.23 2069.01,1010.23 2070.55,1010.18 L2066.81,1017.71 C2062.74,1025.8 2062.25,1026.79 2060.87,1030.2 C2059.17,1034.32 2058.29,1037.79 2058.29,1040.1 C2058.29,1042.63 2059.61,1044.17 2061.75,1044.17 C2064.39,1044.17 2065.44,1042.41 2065.38,1037.62 C2065.11,1029.7 2066.1,1025.85 2071.98,1012.98 C2072.97,1010.84 2074.02,1008.64 2075.01,1006.49 L2075.01,1004.9 C2071.71,1005.17 2069.95,1005.28 2066.54,1005.28 C2061.75,1005.28 2057.96,1005.12 2052.02,1004.68 L2050.31,1017.99 "/>
<path class="Harmony" d="M1435.86,1945.7 L1433.77,1945.7 L1431.62,1949 C1428.05,1946.2 1425.63,1945.26 1421.61,1945.26 C1417.27,1945.26 1413.86,1946.47 1410.39,1949.28 C1404.95,1953.68 1402.42,1959.23 1402.42,1966.66 C1402.42,1972.27 1404.01,1976.94 1407.26,1980.52 C1410.67,1984.37 1415.73,1986.62 1421.01,1986.62 C1425.63,1986.62 1428.87,1985.19 1432.45,1981.62 L1434.48,1986.57 L1436.79,1986.57 L1436.79,1974.47 C1436.79,1971.66 1436.79,1971.55 1437.12,1971.06 C1437.62,1970.45 1438.61,1970.29 1441.74,1970.29 L1442.57,1970.29 L1442.57,1967.7 L1425.08,1967.7 L1425.08,1970.29 L1426.12,1970.29 C1430.74,1970.29 1431.13,1970.56 1431.13,1973.64 C1431.13,1976.01 1430.74,1978.15 1430.03,1979.47 C1428.65,1982.17 1425.13,1984.04 1421.56,1984.04 C1417.98,1984.04 1414.46,1982.22 1412.59,1979.47 C1410.56,1976.39 1409.68,1972.54 1409.68,1966.66 C1409.68,1954.39 1413.75,1947.85 1421.39,1947.85 C1427.66,1947.85 1432.01,1952.36 1434.26,1961.16 L1436.63,1961.16 L1435.86,1945.7 "/>
<path class="Harmony" d="M1719.28,1043.4 L1737.76,1043.4 C1742.66,1043.4 1746.4,1042.63 1749.31,1040.98 C1754.87,1037.84 1757.95,1031.57 1757.95,1023.32 C1757.95,1015.73 1755.2,1009.79 1750.14,1006.49 C1747.11,1004.57 1743.04,1003.69 1736.77,1003.69 L1719.28,1003.69 L1719.28,1006.27 L1720.33,1006.27 C1723.41,1006.33 1724.45,1006.49 1724.89,1007.04 C1725.22,1007.54 1725.22,1007.65 1725.22,1010.45 L1725.22,1036.63 C1725.22,1039.44 1725.22,1039.55 1724.89,1040.04 C1724.45,1040.59 1723.41,1040.76 1720.33,1040.81 L1719.28,1040.81 L1719.28,1043.4 M1734.52,1040.81 C1731.71,1040.81 1731.38,1040.48 1731.38,1037.79 L1731.38,1009.35 C1731.38,1006.66 1731.77,1006.27 1734.52,1006.27 L1737.38,1006.27 C1746.78,1006.27 1750.69,1011.39 1750.69,1023.54 C1750.69,1035.86 1747.17,1040.81 1738.26,1040.81 L1734.52,1040.81 "/>
<path class="Harmony" d="M1766.17,1017.99 L1768.59,1018.37 L1769.58,1014.03 C1770.4,1010.4 1770.79,1009.85 1772.38,1009.85 C1772.66,1009.85 1773.1,1009.85 1773.59,1009.9 C1780.36,1010.23 1780.36,1010.23 1782.89,1010.23 C1783.6,1010.23 1784.87,1010.23 1786.41,1010.18 L1782.67,1017.71 C1778.6,1025.8 1778.1,1026.79 1776.73,1030.2 C1775.02,1034.32 1774.14,1037.79 1774.14,1040.1 C1774.14,1042.63 1775.46,1044.17 1777.61,1044.17 C1780.25,1044.17 1781.29,1042.41 1781.24,1037.62 C1780.96,1029.7 1781.95,1025.85 1787.84,1012.98 C1788.83,1010.84 1789.87,1008.64 1790.86,1006.49 L1790.86,1004.9 C1787.56,1005.17 1785.8,1005.28 1782.39,1005.28 C1777.61,1005.28 1773.81,1005.12 1767.87,1004.68 L1766.17,1017.99 "/>
<path class="Harmony" d="M1714.35,532.103 L1712.26,532.103 L1710.12,535.403 C1706.54,532.598 1704.12,531.663 1700.11,531.663 C1695.76,531.663 1692.35,532.873 1688.89,535.678 C1683.44,540.078 1680.91,545.633 1680.91,553.058 C1680.91,558.668 1682.51,563.343 1685.75,566.918 C1689.16,570.768 1694.22,573.023 1699.5,573.023 C1704.12,573.023 1707.37,571.593 1710.94,568.018 L1712.98,572.968 L1715.29,572.968 L1715.29,560.868 C1715.29,558.063 1715.29,557.953 1715.62,557.458 C1716.11,556.853 1717.1,556.688 1720.24,556.688 L1721.06,556.688 L1721.06,554.103 L1703.57,554.103 L1703.57,556.688 L1704.62,556.688 C1709.24,556.688 1709.62,556.963 1709.62,560.043 C1709.62,562.408 1709.24,564.553 1708.52,565.873 C1707.15,568.568 1703.63,570.438 1700.05,570.438 C1696.48,570.438 1692.96,568.623 1691.09,565.873 C1689.05,562.793 1688.17,558.943 1688.17,553.058 C1688.17,540.793 1692.24,534.248 1699.89,534.248 C1706.16,534.248 1710.5,538.758 1712.76,547.558 L1715.12,547.558 L1714.35,532.103 "/>
<path class="Harmony" d="M1495.69,1003.3 L1493.6,1003.3 L1491.45,1006.6 C1487.88,1003.8 1485.46,1002.86 1481.44,1002.86 C1477.1,1002.86 1473.69,1004.07 1470.22,1006.88 C1464.78,1011.28 1462.25,1016.83 1462.25,1024.26 C1462.25,1029.87 1463.84,1034.54 1467.09,1038.12 C1470.5,1041.97 1475.56,1044.22 1480.84,1044.22 C1485.46,1044.22 1488.7,1042.79 1492.28,1039.22 L1494.31,1044.17 L1496.62,1044.17 L1496.62,1032.07 C1496.62,1029.26 1496.62,1029.15 1496.95,1028.66 C1497.45,1028.05 1498.44,1027.89 1501.57,1027.89 L1502.4,1027.89 L1502.4,1025.3 L1484.91,1025.3 L1484.91,1027.89 L1485.95,1027.89 C1490.57,1027.89 1490.96,1028.16 1490.96,1031.24 C1490.96,1033.61 1490.57,1035.75 1489.86,1037.07 C1488.48,1039.77 1484.96,1041.64 1481.39,1041.64 C1477.81,1041.64 1474.29,1039.82 1472.42,1037.07 C1470.39,1033.99 1469.51,1030.14 1469.51,1024.26 C1469.51,1011.99 1473.58,1005.45 1481.22,1005.45 C1487.49,1005.45 1491.84,1009.96 1494.09,1018.76 L1496.46,1018.76 L1495.69,1003.3 "/>
<path class="Harmony" d="M1070.51,1043.4 L1088.99,1043.4 C1093.89,1043.4 1097.63,1042.63 1100.54,1040.98 C1106.1,1037.84 1109.18,1031.57 1109.18,1023.32 C1109.18,1015.73 1106.43,1009.79 1101.37,1006.49 C1098.34,1004.57 1094.27,1003.69 1088,1003.69 L1070.51,1003.69 L1070.51,1006.27 L1071.56,1006.27 C1074.64,1006.33 1075.68,1006.49 1076.12,1007.04 C1076.45,1007.54 1076.45,1007.65 1076.45,1010.45 L1076.45,1036.63 C1076.45,1039.44 1076.45,1039.55 1076.12,1040.04 C1075.68,1040.59 1074.64,1040.76 1071.56,1040.81 L1070.51,1040.81 L1070.51,1043.4 M1085.75,1040.81 C1082.94,1040.81 1082.61,1040.48 1082.61,1037.79 L1082.61,1009.35 C1082.61,1006.66 1083,1006.27 1085.75,1006.27 L1088.61,1006.27 C1098.01,1006.27 1101.92,1011.39 1101.92,1023.54 C1101.92,1035.86 1098.4,1040.81 1089.49,1040.81 L1085.75,1040.81 "/>
<path class="Harmony" d="M1117.4,1017.99 L1119.82,1018.37 L1120.81,1014.03 C1121.63,1010.4 1122.02,1009.85 1123.61,1009.85 C1123.89,1009.85 1124.33,1009.85 1124.82,1009.9 C1131.59,1010.23 1131.59,1010.23 1134.12,1010.23 C1134.83,1010.23 1136.1,1010.23 1137.64,1010.18 L1133.9,1017.71 C1129.83,1025.8 1129.33,1026.79 1127.96,1030.2 C1126.25,1034.32 1125.37,1037.79 1125.37,1040.1 C1125.37,1042.63 1126.69,1044.17 1128.84,1044.17 C1131.48,1044.17 1132.52,1042.41 1132.47,1037.62 C1132.19,1029.7 1133.18,1025.85 1139.07,1012.98 C1140.06,1010.84 1141.1,1008.64 1142.09,1006.49 L1142.09,1004.9 C1138.79,1005.17 1137.03,1005.28 1133.62,1005.28 C1128.84,1005.28 1125.04,1005.12 1119.1,1004.68 L1117.4,1017.99 "/>
<path class="Harmony" d="M724.505,1003.3 L722.415,1003.3 L720.27,1006.6 C716.695,1003.8 714.275,1002.86 710.26,1002.86 C705.915,1002.86 702.505,1004.07 699.04,1006.88 C693.595,1011.28 691.065,1016.83 691.065,1024.26 C691.065,1029.87 692.66,1034.54 695.905,1038.12 C699.315,1041.97 704.375,1044.22 709.655,1044.22 C714.275,1044.22 717.52,1042.79 721.095,1039.22 L723.13,1044.17 L725.44,1044.17 L725.44,1032.07 C725.44,1029.26 725.44,1029.15 725.77,1028.66 C726.265,1028.05 727.255,1027.89 730.39,1027.89 L731.215,1027.89 L731.215,1025.3 L713.725,1025.3 L713.725,1027.89 L714.77,1027.89 C719.39,1027.89 719.775,1028.16 719.775,1031.24 C719.775,1033.61 719.39,1035.75 718.675,1037.07 C717.3,1039.77 713.78,1041.64 710.205,1041.64 C706.63,1041.64 703.11,1039.82 701.24,1037.07 C699.205,1033.99 698.325,1030.14 698.325,1024.26 C698.325,1011.99 702.395,1005.45 710.04,1005.45 C716.31,1005.45 720.655,1009.96 722.91,1018.76 L725.275,1018.76 L724.505,1003.3 "/>
<path class="Harmony" d="M1656.99,1985.8 L1675.47,1985.8 C1680.36,1985.8 1684.1,1985.03 1687.02,1983.38 C1692.57,1980.24 1695.65,1973.97 1695.65,1965.72 C1695.65,1958.13 1692.9,1952.19 1687.84,1948.89 C1684.82,1946.97 1680.75,1946.09 1674.48,1946.09 L1656.99,1946.09 L1656.99,1948.67 L1658.03,1948.67 C1661.11,1948.73 1662.16,1948.89 1662.6,1949.44 C1662.93,1949.94 1662.93,1950.05 1662.93,1952.85 L1662.93,1979.03 C1662.93,1981.84 1662.93,1981.95 1662.6,1982.44 C1662.16,1982.99 1661.11,1983.16 1658.03,1983.21 L1656.99,1983.21 L1656.99,1985.8 M1672.22,1983.21 C1669.42,1983.21 1669.09,1982.88 1669.09,1980.19 L1669.09,1951.75 C1669.09,1949.06 1669.47,1948.67 1672.22,1948.67 L1675.08,1948.67 C1684.49,1948.67 1688.39,1953.79 1688.39,1965.94 C1688.39,1978.26 1684.87,1983.21 1675.96,1983.21 L1672.22,1983.21 "/>
<path class="Harmony" d="M1703.87,1960.39 L1706.29,1960.77 L1707.28,1956.43 C1708.1,1952.8 1708.49,1952.25 1710.08,1952.25 C1710.36,1952.25 1710.8,1952.25 1711.29,1952.3 C1718.06,1952.63 1718.06,1952.63 1720.59,1952.63 C1721.3,1952.63 1722.57,1952.63 1724.11,1952.58 L1720.37,1960.11 C1716.3,1968.2 1715.8,1969.19 1714.43,1972.6 C1712.72,1976.72 1711.84,1980.19 1711.84,1982.5 C1711.84,1985.03 1713.16,1986.57 1715.31,1986.57 C1717.95,1986.57 1718.99,1984.81 1718.94,1980.02 C1718.66,1972.1 1719.65,1968.25 1725.54,1955.38 C1726.53,1953.24 1727.57,1951.04 1728.56,1948.89 L1728.56,1947.3 C1725.26,1947.57 1723.5,1947.68 1720.09,1947.68 C1715.31,1947.68 1711.51,1947.52 1705.57,1947.08 L1703.87,1960.39 "/>
<path class="Harmony" d="M440.36,1003.3 L438.27,1003.3 L436.125,1006.6 C432.55,1003.8 430.13,1002.86 426.115,1002.86 C421.77,1002.86 418.36,1004.07 414.895,1006.88 C409.45,1011.28 406.92,1016.83 406.92,1024.26 C406.92,1029.87 408.515,1034.54 411.76,1038.12 C415.17,1041.97 420.23,1044.22 425.51,1044.22 C430.13,1044.22 433.375,1042.79 436.95,1039.22 L438.985,1044.17 L441.295,1044.17 L441.295,1032.07 C441.295,1029.26 441.295,1029.15 441.625,1028.66 C442.12,1028.05 443.11,1027.89 446.245,1027.89 L447.07,1027.89 L447.07,1025.3 L429.58,1025.3 L429.58,1027.89 L430.625,1027.89 C435.245,1027.89 435.63,1028.16 435.63,1031.24 C435.63,1033.61 435.245,1035.75 434.53,1037.07 C433.155,1039.77 429.635,1041.64 426.06,1041.64 C422.485,1041.64 418.965,1039.82 417.095,1037.07 C415.06,1033.99 414.18,1030.14 414.18,1024.26 C414.18,1011.99 418.25,1005.45 425.895,1005.45 C432.165,1005.45 436.51,1009.96 438.765,1018.76 L441.13,1018.76 L440.36,1003.3 "/>
<path class="Harmony" d="M1989.54,1985.8 L2008.02,1985.8 C2012.92,1985.8 2016.66,1985.03 2019.57,1983.38 C2025.13,1980.24 2028.21,1973.97 2028.21,1965.72 C2028.21,1958.13 2025.46,1952.19 2020.4,1948.89 C2017.37,1946.97 2013.3,1946.09 2007.03,1946.09 L1989.54,1946.09 L1989.54,1948.67 L1990.59,1948.67 C1993.67,1948.73 1994.71,1948.89 1995.15,1949.44 C1995.48,1949.94 1995.48,1950.05 1995.48,1952.85 L1995.48,1979.03 C1995.48,1981.84 1995.48,1981.95 1995.15,1982.44 C1994.71,1982.99 1993.67,1983.16 1990.59,1983.21 L1989.54,1983.21 L1989.54,1985.8 M2004.78,1983.21 C2001.97,1983.21 2001.64,1982.88 2001.64,1980.19 L2001.64,1951.75 C2001.64,1949.06 2002.03,1948.67 2004.78,1948.67 L2007.64,1948.67 C2017.04,1948.67 2020.95,1953.79 2020.95,1965.94 C2020.95,1978.26 2017.43,1983.21 2008.52,1983.21 L2004.78,1983.21 "/>
<path class="Harmony" d="M2036.43,1960.39 L2038.85,1960.77 L2039.84,1956.43 C2040.66,1952.8 2041.05,1952.25 2042.64,1952.25 C2042.92,1952.25 2043.36,1952.25 2043.85,1952.3 C2050.62,1952.63 2050.62,1952.63 2053.15,1952.63 C2053.86,1952.63 2055.13,1952.63 2056.67,1952.58 L2052.93,1960.11 C2048.86,1968.2 2048.36,1969.19 2046.99,1972.6 C2045.28,1976.72 2044.4,1980.19 2044.4,1982.5 C2044.4,1985.03 2045.72,1986.57 2047.87,1986.57 C2050.51,1986.57 2051.55,1984.81 2051.5,1980.02 C2051.22,1972.1 2052.21,1968.25 2058.1,1955.38 C2059.09,1953.24 2060.13,1951.04 2061.12,1948.89 L2061.12,1947.3 C2057.82,1947.57 2056.06,1947.68 2052.65,1947.68 C2047.87,1947.68 2044.07,1947.52 2038.13,1947.08 L2036.43,1960.39 "/>
<path class="Harmony" d="M2081.69,532.103 L2079.6,532.103 L2077.46,535.403 C2073.88,532.598 2071.46,531.663 2067.45,531.663 C2063.1,531.663 2059.69,532.873 2056.23,535.678 C2050.78,540.078 2048.25,545.633 2048.25,553.058 C2048.25,558.668 2049.85,563.343 2053.09,566.918 C2056.5,570.768 2061.56,573.023 2066.84,573.023 C2071.46,573.023 2074.71,571.593 2078.28,568.018 L2080.32,572.968 L2082.63,572.968 L2082.63,560.868 C2082.63,558.063 2082.63,557.953 2082.96,557.458 C2083.45,556.853 2084.44,556.688 2087.58,556.688 L2088.4,556.688 L2088.4,554.103 L2070.91,554.103 L2070.91,556.688 L2071.96,556.688 C2076.58,556.688 2076.96,556.963 2076.96,560.043 C2076.96,562.408 2076.58,564.553 2075.86,565.873 C2074.49,568.568 2070.97,570.438 2067.39,570.438 C2063.82,570.438 2060.3,568.623 2058.43,565.873 C2056.39,562.793 2055.51,558.943 2055.51,553.058 C2055.51,540.793 2059.58,534.248 2067.23,534.248 C2073.5,534.248 2077.84,538.758 2080.1,547.558 L2082.46,547.558 L2081.69,532.103 "/>
<path class="Harmony" d="M2535.07,572.198 L2553.55,572.198 C2558.45,572.198 2562.19,571.428 2565.1,569.778 C2570.66,566.643 2573.74,560.373 2573.74,552.123 C2573.74,544.533 2570.99,538.593 2565.93,535.293 C2562.9,533.368 2558.83,532.488 2552.56,532.488 L2535.07,532.488 L2535.07,535.073 L2536.12,535.073 C2539.2,535.128 2540.24,535.293 2540.68,535.843 C2541.01,536.338 2541.01,536.448 2541.01,539.253 L2541.01,565.433 C2541.01,568.238 2541.01,568.348 2540.68,568.843 C2540.24,569.393 2539.2,569.558 2536.12,569.613 L2535.07,569.613 L2535.07,572.198 M2550.31,569.613 C2547.5,569.613 2547.17,569.283 2547.17,566.588 L2547.17,538.153 C2547.17,535.458 2547.56,535.073 2550.31,535.073 L2553.17,535.073 C2562.57,535.073 2566.48,540.188 2566.48,552.343 C2566.48,564.663 2562.96,569.613 2554.05,569.613 L2550.31,569.613 "/>
<path class="Harmony" d="M2581.96,546.788 L2584.38,547.173 L2585.37,542.828 C2586.19,539.198 2586.58,538.648 2588.17,538.648 C2588.45,538.648 2588.89,538.648 2589.38,538.703 C2596.15,539.033 2596.15,539.033 2598.68,539.033 C2599.39,539.033 2600.66,539.033 2602.2,538.978 L2598.46,546.513 C2594.39,554.598 2593.89,555.588 2592.52,558.998 C2590.81,563.123 2589.93,566.588 2589.93,568.898 C2589.93,571.428 2591.25,572.968 2593.4,572.968 C2596.04,572.968 2597.08,571.208 2597.03,566.423 C2596.75,558.503 2597.74,554.653 2603.63,541.783 C2604.62,539.638 2605.66,537.438 2606.65,535.293 L2606.65,533.698 C2603.35,533.973 2601.59,534.083 2598.18,534.083 C2593.4,534.083 2589.6,533.918 2583.66,533.478 L2581.96,546.788 "/>
<path class="Harmony" d="M440.36,1945.7 L438.27,1945.7 L436.125,1949 C432.55,1946.2 430.13,1945.26 426.115,1945.26 C421.77,1945.26 418.36,1946.47 414.895,1949.28 C409.45,1953.68 406.92,1959.23 406.92,1966.66 C406.92,1972.27 408.515,1976.94 411.76,1980.52 C415.17,1984.37 420.23,1986.62 425.51,1986.62 C430.13,1986.62 433.375,1985.19 436.95,1981.62 L438.985,1986.57 L441.295,1986.57 L441.295,1974.47 C441.295,1971.66 441.295,1971.55 441.625,1971.06 C442.12,1970.45 443.11,1970.29 446.245,1970.29 L447.07,1970.29 L447.07,1967.7 L429.58,1967.7 L429.58,1970.29 L430.625,1970.29 C435.245,1970.29 435.63,1970.56 435.63,1973.64 C435.63,1976.01 435.245,1978.15 434.53,1979.47 C433.155,1982.17 429.635,1984.04 426.06,1984.04 C422.485,1984.04 418.965,1982.22 417.095,1979.47 C415.06,1976.39 414.18,1972.54 414.18,1966.66 C414.18,1954.39 418.25,1947.85 425.895,1947.85 C432.165,1947.85 436.51,1952.36 438.765,1961.16 L441.13,1961.16 L440.36,1945.7 "/>
<path class="NoteDot" transform="matrix(0.992,0,0,0.992,2405.07,696.198)" d="M0,0 C0,2.8 2.2,5 5,5 C7.8,5 10,2.8 10,0 C10,-2.8 7.8,-5 5,-5 C2.2,-5 0,-2.8 0,0"/>
<path class="NoteDot" transform="matrix(0.992,0,0,0.992,1846.86,2109.8)" d="M0,0 C0,2.8 2.2,5 5,5 C7.8,5 10,2.8 10,0 C10,-2.8 7.8,-5 5,-5 C2.2,-5 0,-2.8 0,0"/>
<path class="NoteDot" transform="matrix(0.992,0,0,0.992,451.531,1217)" d="M0,0 C0,2.8 2.2,5 5,5 C7.8,5 10,2.8 10,0 C10,-2.8 7.8,-5 5,-5 C2.2,-5 0,-2.8 0,0"/>
<path class="NoteDot" transform="matrix(0.992,0,0,0.992,1763.9,1167.4)" d="M0,0 C0,2.8 2.2,5 5,5 C7.8,5 10,2.8 10,0 C10,-2.8 7.8,-5 5,-5 C2.2,-5 0,-2.8 0,0"/>
<path class="NoteDot" transform="matrix(0.992,0,0,0.992,2378.54,1167.4)" d="M0,0 C0,2.8 2.2,5 5,5 C7.8,5 10,2.8 10,0 C10,-2.8 7.8,-5 5,-5 C2.2,-5 0,-2.8 0,0"/>
<path class="NoteDot" transform="matrix(0.992,0,0,0.992,451.531,1589)" d="M0,0 C0,2.8 2.2,5 5,5 C7.8,5 10,2.8 10,0 C10,-2.8 7.8,-5 5,-5 C2.2,-5 0,-2.8 0,0"/>
<path class="NoteDot" transform="matrix(0.992,0,0,0.992,1129.13,1613.8)" d="M0,0 C0,2.8 2.2,5 5,5 C7.8,5 10,2.8 10,0 C10,-2.8 7.8,-5 5,-5 C2.2,-5 0,-2.8 0,0"/>
<path class="NoteDot" transform="matrix(0.992,0,0,0.992,490.265,745.798)" d="M0,0 C0,2.8 2.2,5 5,5 C7.8,5 10,2.8 10,0 C10,-2.8 7.8,-5 5,-5 C2.2,-5 0,-2.8 0,0"/>
<path class="NoteDot" transform="matrix(0.992,0,0,0.992,2361.37,2109.8)" d="M0,0 C0,2.8 2.2,5 5,5 C7.8,5 10,2.8 10,0 C10,-2.8 7.8,-5 5,-5 C2.2,-5 0,-2.8 0,0"/>
<path class="NoteDot" transform="matrix(0.992,0,0,0.992,2369.03,1688.2)" d="M0,0 C0,2.8 2.2,5 5,5 C7.8,5 10,2.8 10,0 C10,-2.8 7.8,-5 5,-5 C2.2,-5 0,-2.8 0,0"/>
<path class="NoteDot" transform="matrix(0.992,0,0,0.992,451.531,2159.4)" d="M0,0 C0,2.8 2.2,5 5,5 C7.8,5 10,2.8 10,0 C10,-2.8 7.8,-5 5,-5 C2.2,-5 0,-2.8 0,0"/>
</svg>
