<?xml version="1.0" encoding="UTF-8" standalone="no"?>
<svg width="2977.2px" height="4208.4px" viewBox="0 0 2977.2 4208.4"
 xmlns="http://www.w3.org/2000/svg" xmlns:xlink="http://www.w3.org/1999/xlink" version="1.2" baseProfile="tiny">
<title>金太郎</title>
<desc>Generated by MuseScore Studio 4.4.2</desc>
<path class="" fill="#ffffff" fill-rule="evenodd" d="M0,0 L2977.2,0 L2977.2,4208.4 L0,4208.4 L0,0 "/>
<polyline class="StaffLines" fill="none" stroke="#000000" stroke-width="2.73" stroke-linejoin="bevel" points="212.598,634.198 2764.6,634.198"/>
<polyline class="StaffLines" fill="none" stroke="#000000" stroke-width="2.73" stroke-linejoin="bevel" points="212.598,658.998 2764.6,658.998"/>
<polyline class="StaffLines" fill="none" stroke="#000000" stroke-width="2.73" stroke-linejoin="bevel" points="212.598,683.798 2764.6,683.798"/>
<polyline class="StaffLines" fill="none" stroke="#000000" stroke-width="2.73" stroke-linejoin="bevel" points="212.598,708.598 2764.6,708.598"/>
<polyline class="StaffLines" fill="none" stroke="#000000" stroke-width="2.73" stroke-linejoin="bevel" points="212.598,733.398 2764.6,733.398"/>
<polyline class="StaffLines" fill="none" stroke="#000000" stroke-width="2.73" stroke-linejoin="bevel" points="212.598,1105.4 2764.6,1105.4"/>
<polyline class="StaffLines" fill="none" stroke="#000000" stroke-width="2.73" stroke-linejoin="bevel" points="212.598,1130.2 2764.6,1130.2"/>
<polyline class="StaffLines" fill="none" stroke="#000000" stroke-width="2.73" stroke-linejoin="bevel" points="212.598,1155 2764.6,1155"/>
<polyline class="StaffLines" fill="none" stroke="#000000" stroke-width="2.73" stroke-linejoin="bevel" points="212.598,1179.8 2764.6,1179.8"/>
<polyline class="StaffLines" fill="none" stroke="#000000" stroke-width="2.73" stroke-linejoin="bevel" points="212.598,1204.6 2764.6,1204.6"/>
<polyline class="StaffLines" fill="none" stroke="#000000" stroke-width="2.73" stroke-linejoin="bevel" points="212.598,1576.6 2764.6,1576.6"/>
<polyline class="StaffLines" fill="none" stroke="#000000" stroke-width="2.73" stroke-linejoin="bevel" points="212.598,1601.4 2764.6,1601.4"/>
<polyline class="StaffLines" fill="none" stroke="#000000" stroke-width="2.73" stroke-linejoin="bevel" points="212.598,1626.2 2764.6,1626.2"/>
<polyline class="StaffLines" fill="none" stroke="#000000" stroke-width="2.73" stroke-linejoin="bevel" points="212.598,1651 2764.6,1651"/>
<polyline class="StaffLines" fill="none" stroke="#000000" stroke-width="2.73" stroke-linejoin="bevel" points="212.598,1675.8 2764.6,1675.8"/>
<path class="Text" d="M1375.59,250.437 L1375.59,265.397 L1347.1,265.397 C1342.48,265.397 1339.4,265.177 1336.32,264.737 L1336.32,272.437 C1339.4,271.997 1342.81,271.777 1346.99,271.777 L1375.59,271.777 L1375.59,300.817 L1345.56,300.817 C1340.5,300.817 1336.65,300.597 1333.02,300.157 L1333.02,308.077 C1337.31,307.527 1341.27,307.307 1345.56,307.307 L1414.86,307.307 C1419.37,307.307 1423.33,307.527 1426.96,308.077 L1426.96,300.157 C1423.55,300.597 1419.81,300.817 1414.97,300.817 L1382.74,300.817 L1382.74,271.777 L1413.43,271.777 C1417.94,271.777 1421.02,271.997 1424.21,272.437 L1424.21,264.737 C1421.13,265.177 1418.27,265.397 1413.43,265.397 L1382.74,265.397 L1382.74,250.437 L1396.16,250.437 C1400.78,250.437 1403.42,250.547 1406.28,250.987 L1406.28,244.167 C1414.64,249.447 1419.15,251.867 1427.73,255.387 C1428.94,252.857 1430.26,250.657 1432.13,248.347 C1420.91,244.607 1412.66,240.317 1403.42,233.607 C1394.29,226.897 1388.35,220.847 1383.73,213.697 L1375.26,213.697 C1366.24,228.437 1350.29,240.427 1328.84,248.567 C1331.37,251.317 1332.03,252.307 1333.46,255.057 C1341.6,251.647 1346.55,249.007 1353.48,244.387 L1353.48,250.987 C1356.45,250.547 1359.2,250.437 1363.71,250.437 L1375.59,250.437 M1363.6,244.387 C1359.31,244.387 1356.45,244.277 1354.25,243.947 C1365.36,236.467 1372.73,229.427 1379.55,219.857 C1386.59,229.207 1394.51,236.467 1405.84,243.947 C1403.42,244.277 1400.78,244.387 1396.16,244.387 L1363.6,244.387 M1347.43,278.047 C1351.5,284.097 1354.25,289.927 1357,297.627 L1363.38,295.097 C1360.08,286.737 1357.77,281.787 1353.7,275.187 L1347.43,278.047 M1405.18,275.407 C1402.1,283.877 1398.8,290.147 1394.18,296.197 L1400.34,298.727 C1405.18,291.687 1407.05,288.497 1412.11,278.267 L1405.18,275.407 M1525.85,243.177 C1531.24,243.177 1534.43,243.397 1537.84,243.947 L1537.84,235.697 C1534.98,236.247 1531.35,236.467 1525.74,236.467 L1491.86,236.467 C1492.19,231.517 1492.41,228.767 1492.41,224.037 C1492.52,218.537 1492.63,216.337 1493.18,212.597 L1484.38,212.597 C1484.93,215.677 1485.15,219.527 1485.15,224.587 C1485.15,228.767 1485.04,231.847 1484.6,236.467 L1454.35,236.467 C1448.3,236.467 1444.78,236.247 1441.92,235.697 L1441.92,243.947 C1445.22,243.397 1448.08,243.177 1454.02,243.177 L1483.83,243.177 C1479.43,271.447 1466.01,289.927 1439.83,303.677 C1442.14,305.987 1443.02,307.417 1444.45,310.277 C1461.17,300.157 1470.08,291.907 1478.11,279.367 C1483.5,270.897 1487.02,262.097 1489.66,250.547 C1493.29,261.987 1496.7,269.357 1502.42,278.377 C1510.67,291.137 1519.8,299.937 1536.63,311.157 C1538.39,307.747 1539.16,306.427 1541.25,303.897 C1533.22,299.387 1529.59,296.857 1523.87,291.907 C1517.27,286.297 1512.21,280.687 1508.03,274.527 C1501.65,264.737 1497.91,256.817 1493.73,243.177 L1525.85,243.177 M1501.1,300.267 C1495.27,291.907 1490.65,286.407 1484.16,280.027 L1478.44,283.767 C1485.59,291.247 1488.89,295.427 1494.94,304.777 L1501.1,300.267 M1603.84,302.687 C1598.23,292.127 1593.5,284.647 1586.68,275.627 L1580.85,278.267 C1584.7,283.437 1586.13,285.527 1588.66,289.707 C1578.43,293.777 1575.24,294.877 1565.23,297.737 L1565.23,271.337 L1590.2,271.337 C1594.05,271.337 1596.8,271.447 1599.44,271.777 C1599.22,268.697 1599.11,266.057 1599.11,261.767 L1599.11,235.917 C1599.11,231.297 1599.22,228.437 1599.55,225.797 C1597.02,226.127 1594.49,226.237 1590.2,226.237 L1582.06,226.237 L1582.06,220.517 C1582.06,217.437 1582.28,215.237 1582.72,213.037 L1574.58,213.037 C1575.02,215.347 1575.24,217.437 1575.24,220.407 L1575.24,226.237 L1567.32,226.237 C1563.03,226.237 1560.39,226.127 1557.97,225.797 C1558.3,228.327 1558.41,231.517 1558.41,235.807 L1558.41,299.497 C1554.67,300.377 1552.47,300.707 1549.72,300.927 L1551.48,308.407 C1553.57,307.637 1555.77,306.977 1557.31,306.537 C1570.18,302.907 1577.77,300.377 1591.74,294.877 C1594.05,299.057 1595.04,300.817 1597.57,306.317 L1603.84,302.687 M1565.23,245.267 L1565.23,232.397 L1592.4,232.397 L1592.4,245.267 L1565.23,245.267 M1565.23,251.207 L1592.4,251.207 L1592.4,265.177 L1565.23,265.177 L1565.23,251.207 M1644.54,216.447 C1642.45,216.777 1640.14,216.887 1636.07,216.887 L1617.81,216.887 C1614.07,216.887 1611.98,216.777 1609.12,216.557 C1609.45,219.747 1609.56,223.267 1609.56,226.567 L1609.56,300.377 C1609.56,305.987 1609.34,309.177 1608.9,312.147 L1617.26,312.147 C1616.71,308.957 1616.49,304.997 1616.49,299.497 L1616.49,223.047 L1639.59,223.047 C1634.97,235.587 1631.45,243.177 1624.63,254.617 C1631.34,260.667 1634.09,263.967 1636.73,268.807 C1639.37,273.537 1640.69,278.487 1640.69,283.547 C1640.69,289.267 1638.49,291.027 1631.34,291.027 C1628.59,291.027 1625.73,290.697 1621.99,290.037 C1622.87,292.347 1623.31,294.217 1623.31,297.407 C1626.72,297.737 1629.03,297.847 1630.9,297.847 C1634.09,297.847 1637.39,297.517 1639.37,296.967 C1645.09,295.317 1647.95,290.917 1647.95,283.657 C1647.95,277.717 1646.41,271.887 1643.22,266.497 C1640.91,262.427 1638.6,259.567 1632.88,253.517 C1637.06,246.477 1643.22,233.827 1646.52,225.467 C1647.07,224.037 1647.62,222.827 1648.39,221.397 L1644.54,216.447 "/>
<path class="MeasureNumber" d="M216.922,1040.48 C215.682,1041.24 215.322,1041.72 215.322,1042.52 C215.322,1043.28 215.962,1043.84 216.762,1043.84 C217.802,1043.84 218.402,1043.08 218.522,1041.6 C219.762,1040.6 221.082,1040.16 222.682,1040.16 C225.642,1040.16 227.282,1042 227.282,1045.32 C227.282,1050.52 223.922,1054.76 219.802,1054.76 C217.442,1054.76 215.522,1053.64 215.522,1052.32 C215.522,1052.08 215.562,1052 215.762,1051.88 C217.042,1051.28 218.082,1050.84 218.082,1049.16 C218.082,1047.88 217.082,1046.92 215.682,1046.92 C213.922,1046.92 212.602,1048.4 212.602,1050.32 C212.602,1053.84 215.642,1056.4 219.922,1056.4 C226.402,1056.4 231.642,1051.24 231.642,1044.84 C231.642,1040.8 228.562,1037.96 224.202,1037.96 C222.482,1037.96 221.082,1038.32 219.162,1039.28 L221.402,1031.72 C223.522,1032.16 225.202,1032.36 226.642,1032.36 C229.282,1032.36 231.642,1031.52 232.962,1030.12 C233.642,1029.32 234.042,1028.64 234.042,1028.12 C234.042,1027.88 233.922,1027.64 233.762,1027.64 C233.642,1027.64 233.562,1027.68 233.322,1027.8 C232.002,1028.44 230.322,1028.8 228.762,1028.8 C226.362,1028.8 223.522,1028.4 220.562,1027.64 L216.922,1040.48 "/>
<path class="MeasureNumber" d="M228.053,1513.32 C227.053,1517.96 224.373,1525.92 218.653,1525.92 C217.493,1525.92 216.733,1525.44 216.733,1524.72 C216.733,1524.44 216.813,1524.32 217.133,1523.84 C217.533,1523.32 217.733,1522.84 217.733,1522.28 C217.733,1520.96 216.693,1519.96 215.333,1519.96 C213.733,1519.96 212.613,1521.16 212.613,1522.92 C212.613,1525.64 215.173,1527.6 218.733,1527.6 C227.493,1527.6 233.093,1516.4 233.093,1508.8 C233.093,1502.56 230.093,1498.84 225.133,1498.84 C219.173,1498.84 214.733,1504.32 214.733,1510.04 C214.733,1513.84 217.653,1516.72 221.533,1516.72 C224.173,1516.72 226.213,1515.64 228.053,1513.32 M225.093,1500.52 C227.653,1500.52 229.293,1502.56 229.293,1505.76 C229.293,1510.72 226.573,1514.36 222.893,1514.36 C220.373,1514.36 218.973,1512.64 218.973,1509.64 C218.973,1506.04 220.693,1500.52 225.093,1500.52"/>
<polyline class="BarLine" fill="none" stroke="#000000" stroke-width="4.46" stroke-linejoin="bevel" points="2156.87,1104.03 2156.87,1205.96"/>
<polyline class="BarLine" fill="none" stroke="#000000" stroke-width="4.46" stroke-linejoin="bevel" points="2740.42,1575.23 2740.42,1677.16"/>
<polyline class="BarLine" fill="none" stroke="#000000" stroke-width="13.64" stroke-linejoin="bevel" points="2757.78,1575.23 2757.78,1677.16"/>
<polyline class="BarLine" fill="none" stroke="#000000" stroke-width="4.46" stroke-linejoin="bevel" points="1560.7,1104.03 1560.7,1205.96"/>
<polyline class="BarLine" fill="none" stroke="#000000" stroke-width="4.46" stroke-linejoin="bevel" points="2289.89,632.834 2289.89,734.762"/>
<polyline class="BarLine" fill="none" stroke="#000000" stroke-width="4.46" stroke-linejoin="bevel" points="2142.81,1575.23 2142.81,1677.16"/>
<polyline class="BarLine" fill="none" stroke="#000000" stroke-width="4.46" stroke-linejoin="bevel" points="2762.37,632.834 2762.37,734.762"/>
<polyline class="BarLine" fill="none" stroke="#000000" stroke-width="4.46" stroke-linejoin="bevel" points="1554.4,1575.23 1554.4,1677.16"/>
<polyline class="BarLine" fill="none" stroke="#000000" stroke-width="4.46" stroke-linejoin="bevel" points="956.782,1575.23 956.782,1677.16"/>
<polyline class="BarLine" fill="none" stroke="#000000" stroke-width="4.46" stroke-linejoin="bevel" points="1034.7,632.834 1034.7,734.762"/>
<polyline class="BarLine" fill="none" stroke="#000000" stroke-width="4.46" stroke-linejoin="bevel" points="964.538,1104.03 964.538,1205.96"/>
<polyline class="BarLine" fill="none" stroke="#000000" stroke-width="4.46" stroke-linejoin="bevel" points="2762.37,1104.03 2762.37,1205.96"/>
<polyline class="BarLine" fill="none" stroke="#000000" stroke-width="4.46" stroke-linejoin="bevel" points="1662.3,632.834 1662.3,734.762"/>
<polyline class="LedgerLine" fill="none" stroke="#000000" stroke-width="3.97" stroke-linejoin="bevel" points="623.289,758.198 672.874,758.198"/>
<polyline class="LedgerLine" fill="none" stroke="#000000" stroke-width="3.97" stroke-linejoin="bevel" points="394.165,1700.6 443.75,1700.6"/>
<polyline class="Stem" fill="none" stroke="#000000" stroke-width="2.73" stroke-linejoin="bevel" points="1417.64,1171.56 1417.64,1235.48"/>
<polyline class="Stem" fill="none" stroke="#000000" stroke-width="2.73" stroke-linejoin="bevel" points="613.968,1163.43 613.968,1086.8"/>
<polyline class="Stem" fill="none" stroke="#000000" stroke-width="2.73" stroke-linejoin="bevel" points="2043.3,1175.83 2043.3,1105.34"/>
<polyline class="Stem" fill="none" stroke="#000000" stroke-width="2.73" stroke-linejoin="bevel" points="762.955,717.03 762.955,640.343"/>
<polyline class="Stem" fill="none" stroke="#000000" stroke-width="2.73" stroke-linejoin="bevel" points="2488.59,1659.43 2488.59,1576.8"/>
<polyline class="Stem" fill="none" stroke="#000000" stroke-width="2.73" stroke-linejoin="bevel" points="1540.74,717.03 1540.74,640.398"/>
<polyline class="Stem" fill="none" stroke="#000000" stroke-width="2.73" stroke-linejoin="bevel" points="913.143,704.63 913.143,634.254"/>
<polyline class="Stem" fill="none" stroke="#000000" stroke-width="2.73" stroke-linejoin="bevel" points="2348.37,1659.43 2348.37,1582.74"/>
<polyline class="Stem" fill="none" stroke="#000000" stroke-width="2.73" stroke-linejoin="bevel" points="1290.42,704.63 1290.42,621.755"/>
<polyline class="Stem" fill="none" stroke="#000000" stroke-width="2.73" stroke-linejoin="bevel" points="1727.63,704.63 1727.63,634.242"/>
<polyline class="Stem" fill="none" stroke="#000000" stroke-width="2.73" stroke-linejoin="bevel" points="2208.14,1647.03 2208.14,1576.66"/>
<polyline class="Stem" fill="none" stroke="#000000" stroke-width="2.73" stroke-linejoin="bevel" points="2001.71,1642.76 2001.71,1706.68"/>
<polyline class="Stem" fill="none" stroke="#000000" stroke-width="2.73" stroke-linejoin="bevel" points="1861.48,1617.96 1861.48,1694.52"/>
<polyline class="Stem" fill="none" stroke="#000000" stroke-width="2.73" stroke-linejoin="bevel" points="1768,1605.56 1768,1688.25"/>
<polyline class="Stem" fill="none" stroke="#000000" stroke-width="2.73" stroke-linejoin="bevel" points="1918.02,717.03 1918.02,640.355"/>
<polyline class="Stem" fill="none" stroke="#000000" stroke-width="2.73" stroke-linejoin="bevel" points="1590.23,1617.96 1590.23,1694.35"/>
<polyline class="Stem" fill="none" stroke="#000000" stroke-width="2.73" stroke-linejoin="bevel" points="2018.15,704.63 2018.15,634.143"/>
<polyline class="Stem" fill="none" stroke="#000000" stroke-width="2.73" stroke-linejoin="bevel" points="472.44,717.03 472.44,652.886"/>
<polyline class="Stem" fill="none" stroke="#000000" stroke-width="2.73" stroke-linejoin="bevel" points="1302.57,1659.43 1302.57,1576.8"/>
<polyline class="Stem" fill="none" stroke="#000000" stroke-width="2.73" stroke-linejoin="bevel" points="708.768,1175.83 708.768,1105.34"/>
<polyline class="Stem" fill="none" stroke="#000000" stroke-width="2.73" stroke-linejoin="bevel" points="2168.33,692.23 2168.33,628.054"/>
<polyline class="Stem" fill="none" stroke="#000000" stroke-width="2.73" stroke-linejoin="bevel" points="1162.34,1659.43 1162.34,1582.68"/>
<polyline class="Stem" fill="none" stroke="#000000" stroke-width="2.73" stroke-linejoin="bevel" points="1022.11,1634.63 1022.11,1570.52"/>
<polyline class="Stem" fill="none" stroke="#000000" stroke-width="2.73" stroke-linejoin="bevel" points="845.182,1659.43 845.182,1582.8"/>
<polyline class="Stem" fill="none" stroke="#000000" stroke-width="2.73" stroke-linejoin="bevel" points="704.954,1659.43 704.954,1582.8"/>
<polyline class="Stem" fill="none" stroke="#000000" stroke-width="2.73" stroke-linejoin="bevel" points="2325.73,675.565 2325.73,751.998"/>
<polyline class="Stem" fill="none" stroke="#000000" stroke-width="2.73" stroke-linejoin="bevel" points="611.469,1659.43 611.469,1576.65"/>
<polyline class="Stem" fill="none" stroke="#000000" stroke-width="2.73" stroke-linejoin="bevel" points="433.706,1696.63 433.706,1582.75"/>
<polyline class="Stem" fill="none" stroke="#000000" stroke-width="2.73" stroke-linejoin="bevel" points="662.83,754.23 662.83,665.111"/>
<polyline class="Stem" fill="none" stroke="#000000" stroke-width="2.73" stroke-linejoin="bevel" points="2506.6,1188.23 2506.6,1105.6"/>
<polyline class="Stem" fill="none" stroke="#000000" stroke-width="2.73" stroke-linejoin="bevel" points="1000.37,1146.76 1000.37,1223.15"/>
<polyline class="Stem" fill="none" stroke="#000000" stroke-width="2.73" stroke-linejoin="bevel" points="2364.4,1175.83 2364.4,1105.34"/>
<polyline class="Stem" fill="none" stroke="#000000" stroke-width="2.73" stroke-linejoin="bevel" points="2222.2,1163.43 2222.2,1099.26"/>
<polyline class="Stem" fill="none" stroke="#000000" stroke-width="2.73" stroke-linejoin="bevel" points="1100.04,692.23 1100.04,615.642"/>
<polyline class="Stem" fill="none" stroke="#000000" stroke-width="2.73" stroke-linejoin="bevel" points="1390.55,717.03 1390.55,640.398"/>
<polyline class="Stem" fill="none" stroke="#000000" stroke-width="2.73" stroke-linejoin="bevel" points="1901.1,1163.43 1901.1,1099.26"/>
<polyline class="Stem" fill="none" stroke="#000000" stroke-width="2.73" stroke-linejoin="bevel" points="433.706,1163.43 433.706,1086.8"/>
<polyline class="Stem" fill="none" stroke="#000000" stroke-width="2.73" stroke-linejoin="bevel" points="1776.8,1146.76 1776.8,1223.2"/>
<polyline class="Stem" fill="none" stroke="#000000" stroke-width="2.73" stroke-linejoin="bevel" points="1596.54,1146.76 1596.54,1223.2"/>
<polyline class="Stem" fill="none" stroke="#000000" stroke-width="2.73" stroke-linejoin="bevel" points="1275.44,1146.76 1275.44,1223.32"/>
<polyline class="Stem" fill="none" stroke="#000000" stroke-width="2.73" stroke-linejoin="bevel" points="1180.64,1134.36 1180.64,1217.04"/>
<polyline class="Stem" fill="none" stroke="#000000" stroke-width="2.73" stroke-linejoin="bevel" points="850.967,1163.43 850.967,1099.26"/>
<path class="Hook" transform="matrix(0.992,0,0,0.992,2505.24,1105.4)" d="M0,22.7 C0,23 0.1,23.6 0.8,23.8 C5.1,25.2 13.7,30.6 20.2,41.7 C22,44.8 24.9,49.1 24.9,57.4 C24.9,64.6 23.1,72 20.4,79.2 C20.2,79.8 20.1,80.3 20.1,80.7 C20.1,81.4 20.5,81.7 21.2,81.7 C21.8,81.7 22.3,81.3 22.7,80.6 C27.2,72.6 28.9,63.3 28.9,54.2 C28.4,41.3 21,31.8 21,31.8 C21.3,31.8 11.8,19.5 9.1,15.3 C5.4,9.6 3.7,3.9 3.5,3.5 C3.4,3.2 2.5,-0.4 2.5,-0.4 C2.4,-0.8 1.9,-1.2 1.3,-1.2 C0.6,-1.2 0,-0.6 0,0.1 L0,22.7 "/>
<path class="Hook" transform="matrix(0.992,0,0,0.992,1301.21,1576.6)" d="M0,22.7 C0,23 0.1,23.6 0.8,23.8 C5.1,25.2 13.7,30.6 20.2,41.7 C22,44.8 24.9,49.1 24.9,57.4 C24.9,64.6 23.1,72 20.4,79.2 C20.2,79.8 20.1,80.3 20.1,80.7 C20.1,81.4 20.5,81.7 21.2,81.7 C21.8,81.7 22.3,81.3 22.7,80.6 C27.2,72.6 28.9,63.3 28.9,54.2 C28.4,41.3 21,31.8 21,31.8 C21.3,31.8 11.8,19.5 9.1,15.3 C5.4,9.6 3.7,3.9 3.5,3.5 C3.4,3.2 2.5,-0.4 2.5,-0.4 C2.4,-0.8 1.9,-1.2 1.3,-1.2 C0.6,-1.2 0,-0.6 0,0.1 L0,22.7 "/>
<path class="Hook" transform="matrix(0.992,0,0,0.992,2487.23,1576.6)" d="M0,22.7 C0,23 0.1,23.6 0.8,23.8 C5.1,25.2 13.7,30.6 20.2,41.7 C22,44.8 24.9,49.1 24.9,57.4 C24.9,64.6 23.1,72 20.4,79.2 C20.2,79.8 20.1,80.3 20.1,80.7 C20.1,81.4 20.5,81.7 21.2,81.7 C21.8,81.7 22.3,81.3 22.7,80.6 C27.2,72.6 28.9,63.3 28.9,54.2 C28.4,41.3 21,31.8 21,31.8 C21.3,31.8 11.8,19.5 9.1,15.3 C5.4,9.6 3.7,3.9 3.5,3.5 C3.4,3.2 2.5,-0.4 2.5,-0.4 C2.4,-0.8 1.9,-1.2 1.3,-1.2 C0.6,-1.2 0,-0.6 0,0.1 L0,22.7 "/>
<path class="Note" transform="matrix(0.992,0,0,0.992,2012.44,1179.8)" d="M0,4.2 C0,8.5 3.1,13.3 11.2,13.3 C21.6,13.3 32.5,4.8 32.5,-4 C32.5,-9.9 27.5,-13.2 21.3,-13.2 C11.6,-13.2 0,-5 0,4.2"/>
<path class="Note" transform="matrix(0.992,0,0,0.992,2333.54,1179.8)" d="M0,4.2 C0,8.5 3.1,13.3 11.2,13.3 C21.6,13.3 32.5,4.8 32.5,-4 C32.5,-9.9 27.5,-13.2 21.3,-13.2 C11.6,-13.2 0,-5 0,4.2"/>
<path class="Note" transform="matrix(0.992,0,0,0.992,1131.48,1663.4)" d="M0,4.2 C0,8.5 3.1,13.3 11.2,13.3 C21.6,13.3 32.5,4.8 32.5,-4 C32.5,-9.9 27.5,-13.2 21.3,-13.2 C11.6,-13.2 0,-5 0,4.2"/>
<path class="Note" transform="matrix(0.992,0,0,0.992,820.107,1167.4)" d="M0,4.2 C0,8.5 3.1,13.3 11.2,13.3 C21.6,13.3 32.5,4.8 32.5,-4 C32.5,-9.9 27.5,-13.2 21.3,-13.2 C11.6,-13.2 0,-5 0,4.2"/>
<path class="Note" transform="matrix(0.992,0,0,0.992,882.283,708.598)" d="M0,4.2 C0,8.5 3.1,13.3 11.2,13.3 C21.6,13.3 32.5,4.8 32.5,-4 C32.5,-9.9 27.5,-13.2 21.3,-13.2 C11.6,-13.2 0,-5 0,4.2"/>
<path class="Note" transform="matrix(0.992,0,0,0.992,677.907,1179.8)" d="M0,4.2 C0,8.5 3.1,13.3 11.2,13.3 C21.6,13.3 32.5,4.8 32.5,-4 C32.5,-9.9 27.5,-13.2 21.3,-13.2 C11.6,-13.2 0,-5 0,4.2"/>
<path class="Note" transform="matrix(0.992,0,0,0.992,583.108,1167.4)" d="M0,4.2 C0,8.5 3.1,13.3 11.2,13.3 C21.6,13.3 32.5,4.8 32.5,-4 C32.5,-9.9 27.5,-13.2 21.3,-13.2 C11.6,-13.2 0,-5 0,4.2"/>
<path class="Note" transform="matrix(0.992,0,0,0.992,999.01,1142.6)" d="M0,4.2 C0,8.5 3.1,13.3 11.2,13.3 C21.6,13.3 32.5,4.8 32.5,-4 C32.5,-9.9 27.5,-13.2 21.3,-13.2 C11.6,-13.2 0,-5 0,4.2"/>
<path class="Note" transform="matrix(0.992,0,0,0.992,991.254,1638.6)" d="M0,4.2 C0,8.5 3.1,13.3 11.2,13.3 C21.6,13.3 32.5,4.8 32.5,-4 C32.5,-9.9 27.5,-13.2 21.3,-13.2 C11.6,-13.2 0,-5 0,4.2"/>
<path class="Note" transform="matrix(0.992,0,0,0.992,441.58,720.998)" d="M0,4.2 C0,8.5 3.1,13.3 11.2,13.3 C21.6,13.3 32.5,4.8 32.5,-4 C32.5,-9.9 27.5,-13.2 21.3,-13.2 C11.6,-13.2 0,-5 0,4.2"/>
<path class="Note" transform="matrix(0.992,0,0,0.992,2457.73,1663.4)" d="M0,4.2 C0,8.5 3.1,13.3 11.2,13.3 C21.6,13.3 32.5,4.8 32.5,-4 C32.5,-9.9 27.5,-13.2 21.3,-13.2 C11.6,-13.2 0,-5 0,4.2"/>
<path class="Note" transform="matrix(0.992,0,0,0.992,1509.88,720.998)" d="M0,4.2 C0,8.5 3.1,13.3 11.2,13.3 C21.6,13.3 32.5,4.8 32.5,-4 C32.5,-9.9 27.5,-13.2 21.3,-13.2 C11.6,-13.2 0,-5 0,4.2"/>
<path class="Note" transform="matrix(0.992,0,0,0.992,1179.27,1130.2)" d="M0,4.2 C0,8.5 3.1,13.3 11.2,13.3 C21.6,13.3 32.5,4.8 32.5,-4 C32.5,-9.9 27.5,-13.2 21.3,-13.2 C11.6,-13.2 0,-5 0,4.2"/>
<path class="Note" transform="matrix(0.992,0,0,0.992,1271.71,1663.4)" d="M0,4.2 C0,8.5 3.1,13.3 11.2,13.3 C21.6,13.3 32.5,4.8 32.5,-4 C32.5,-9.9 27.5,-13.2 21.3,-13.2 C11.6,-13.2 0,-5 0,4.2"/>
<path class="Note" transform="matrix(0.992,0,0,0.992,1274.07,1142.6)" d="M0,4.2 C0,8.5 3.1,13.3 11.2,13.3 C21.6,13.3 32.5,4.8 32.5,-4 C32.5,-9.9 27.5,-13.2 21.3,-13.2 C11.6,-13.2 0,-5 0,4.2"/>
<path class="Note" transform="matrix(0.992,0,0,0.992,814.322,1663.4)" d="M0,4.2 C0,8.5 3.1,13.3 11.2,13.3 C21.6,13.3 32.5,4.8 32.5,-4 C32.5,-9.9 27.5,-13.2 21.3,-13.2 C11.6,-13.2 0,-5 0,4.2"/>
<path class="Note" transform="matrix(0.992,0,0,0.992,2317.51,1663.4)" d="M0,4.2 C0,8.5 3.1,13.3 11.2,13.3 C21.6,13.3 32.5,4.8 32.5,-4 C32.5,-9.9 27.5,-13.2 21.3,-13.2 C11.6,-13.2 0,-5 0,4.2"/>
<path class="Note" transform="matrix(0.992,0,0,0.992,1259.56,708.598)" d="M0,4.2 C0,8.5 3.1,13.3 11.2,13.3 C21.6,13.3 32.5,4.8 32.5,-4 C32.5,-9.9 27.5,-13.2 21.3,-13.2 C11.6,-13.2 0,-5 0,4.2"/>
<path class="Note" transform="matrix(0.992,0,0,0.992,1987.29,708.598)" d="M0,4.2 C0,8.5 3.1,13.3 11.2,13.3 C21.6,13.3 32.5,4.8 32.5,-4 C32.5,-9.9 27.5,-13.2 21.3,-13.2 C11.6,-13.2 0,-5 0,4.2"/>
<path class="Note" transform="matrix(0.992,0,0,0.992,1416.27,1167.4)" d="M0,4.2 C0,8.5 3.1,13.3 11.2,13.3 C21.6,13.3 32.5,4.8 32.5,-4 C32.5,-9.9 27.5,-13.2 21.3,-13.2 C11.6,-13.2 0,-5 0,4.2"/>
<path class="Note" transform="matrix(0.992,0,0,0.992,732.095,720.998)" d="M0,4.2 C0,8.5 3.1,13.3 11.2,13.3 C21.6,13.3 32.5,4.8 32.5,-4 C32.5,-9.9 27.5,-13.2 21.3,-13.2 C11.6,-13.2 0,-5 0,4.2"/>
<path class="Note" transform="matrix(0.992,0,0,0.992,674.094,1663.4)" d="M0,4.2 C0,8.5 3.1,13.3 11.2,13.3 C21.6,13.3 32.5,4.8 32.5,-4 C32.5,-9.9 27.5,-13.2 21.3,-13.2 C11.6,-13.2 0,-5 0,4.2"/>
<path class="Note" transform="matrix(0.992,0,0,0.992,1595.17,1142.6)" d="M0,4.2 C0,8.5 3.1,13.3 11.2,13.3 C21.6,13.3 32.5,4.8 32.5,-4 C32.5,-9.9 27.5,-13.2 21.3,-13.2 C11.6,-13.2 0,-5 0,4.2"/>
<path class="Note" transform="matrix(0.992,0,0,0.992,2177.28,1651)" d="M0,4.2 C0,8.5 3.1,13.3 11.2,13.3 C21.6,13.3 32.5,4.8 32.5,-4 C32.5,-9.9 27.5,-13.2 21.3,-13.2 C11.6,-13.2 0,-5 0,4.2"/>
<path class="Note" transform="matrix(0.992,0,0,0.992,580.608,1663.4)" d="M0,4.2 C0,8.5 3.1,13.3 11.2,13.3 C21.6,13.3 32.5,4.8 32.5,-4 C32.5,-9.9 27.5,-13.2 21.3,-13.2 C11.6,-13.2 0,-5 0,4.2"/>
<path class="Note" transform="matrix(0.992,0,0,0.992,1696.77,708.598)" d="M0,4.2 C0,8.5 3.1,13.3 11.2,13.3 C21.6,13.3 32.5,4.8 32.5,-4 C32.5,-9.9 27.5,-13.2 21.3,-13.2 C11.6,-13.2 0,-5 0,4.2"/>
<path class="Note" transform="matrix(0.992,0,0,0.992,402.845,1167.4)" d="M0,4.2 C0,8.5 3.1,13.3 11.2,13.3 C21.6,13.3 32.5,4.8 32.5,-4 C32.5,-9.9 27.5,-13.2 21.3,-13.2 C11.6,-13.2 0,-5 0,4.2"/>
<path class="Note" transform="matrix(0.992,0,0,0.992,1775.44,1142.6)" d="M0,4.2 C0,8.5 3.1,13.3 11.2,13.3 C21.6,13.3 32.5,4.8 32.5,-4 C32.5,-9.9 27.5,-13.2 21.3,-13.2 C11.6,-13.2 0,-5 0,4.2"/>
<path class="Note" transform="matrix(0.992,0,0,0.992,2324.37,671.398)" d="M0,4.2 C0,8.5 3.1,13.3 11.2,13.3 C21.6,13.3 32.5,4.8 32.5,-4 C32.5,-9.9 27.5,-13.2 21.3,-13.2 C11.6,-13.2 0,-5 0,4.2"/>
<path class="Note" transform="matrix(0.992,0,0,0.992,1870.24,1167.4)" d="M0,4.2 C0,8.5 3.1,13.3 11.2,13.3 C21.6,13.3 32.5,4.8 32.5,-4 C32.5,-9.9 27.5,-13.2 21.3,-13.2 C11.6,-13.2 0,-5 0,4.2"/>
<path class="Note" transform="matrix(0.992,0,0,0.992,1887.16,720.998)" d="M0,4.2 C0,8.5 3.1,13.3 11.2,13.3 C21.6,13.3 32.5,4.8 32.5,-4 C32.5,-9.9 27.5,-13.2 21.3,-13.2 C11.6,-13.2 0,-5 0,4.2"/>
<path class="Note" transform="matrix(0.992,0,0,0.992,402.845,1700.6)" d="M0,4.2 C0,8.5 3.1,13.3 11.2,13.3 C21.6,13.3 32.5,4.8 32.5,-4 C32.5,-9.9 27.5,-13.2 21.3,-13.2 C11.6,-13.2 0,-5 0,4.2"/>
<path class="Note" transform="matrix(0.992,0,0,0.992,1359.69,720.998)" d="M0,4.2 C0,8.5 3.1,13.3 11.2,13.3 C21.6,13.3 32.5,4.8 32.5,-4 C32.5,-9.9 27.5,-13.2 21.3,-13.2 C11.6,-13.2 0,-5 0,4.2"/>
<path class="Note" transform="matrix(0.992,0,0,0.992,1588.87,1613.8)" d="M0,4.2 C0,8.5 3.1,13.3 11.2,13.3 C21.6,13.3 32.5,4.8 32.5,-4 C32.5,-9.9 27.5,-13.2 21.3,-13.2 C11.6,-13.2 0,-5 0,4.2"/>
<path class="Note" transform="matrix(0.992,0,0,0.992,1766.63,1601.4)" d="M0,4.2 C0,8.5 3.1,13.3 11.2,13.3 C21.6,13.3 32.5,4.8 32.5,-4 C32.5,-9.9 27.5,-13.2 21.3,-13.2 C11.6,-13.2 0,-5 0,4.2"/>
<path class="Note" transform="matrix(0.992,0,0,0.992,2475.74,1192.2)" d="M0,4.2 C0,8.5 3.1,13.3 11.2,13.3 C21.6,13.3 32.5,4.8 32.5,-4 C32.5,-9.9 27.5,-13.2 21.3,-13.2 C11.6,-13.2 0,-5 0,4.2"/>
<path class="Note" transform="matrix(0.992,0,0,0.992,631.969,758.198)" d="M0,4.2 C0,8.5 3.1,13.3 11.2,13.3 C21.6,13.3 32.5,4.8 32.5,-4 C32.5,-9.9 27.5,-13.2 21.3,-13.2 C11.6,-13.2 0,-5 0,4.2"/>
<path class="Note" transform="matrix(0.992,0,0,0.992,1069.18,696.198)" d="M0,4.2 C0,8.5 3.1,13.3 11.2,13.3 C21.6,13.3 32.5,4.8 32.5,-4 C32.5,-9.9 27.5,-13.2 21.3,-13.2 C11.6,-13.2 0,-5 0,4.2"/>
<path class="Note" transform="matrix(0.992,0,0,0.992,2191.34,1167.4)" d="M0,4.2 C0,8.5 3.1,13.3 11.2,13.3 C21.6,13.3 32.5,4.8 32.5,-4 C32.5,-9.9 27.5,-13.2 21.3,-13.2 C11.6,-13.2 0,-5 0,4.2"/>
<path class="Note" transform="matrix(0.992,0,0,0.992,1860.12,1613.8)" d="M0,4.2 C0,8.5 3.1,13.3 11.2,13.3 C21.6,13.3 32.5,4.8 32.5,-4 C32.5,-9.9 27.5,-13.2 21.3,-13.2 C11.6,-13.2 0,-5 0,4.2"/>
<path class="Note" transform="matrix(0.992,0,0,0.992,2000.35,1638.6)" d="M0,4.2 C0,8.5 3.1,13.3 11.2,13.3 C21.6,13.3 32.5,4.8 32.5,-4 C32.5,-9.9 27.5,-13.2 21.3,-13.2 C11.6,-13.2 0,-5 0,4.2"/>
<path class="Note" transform="matrix(0.992,0,0,0.992,2137.47,696.198)" d="M0,4.2 C0,8.5 3.1,13.3 11.2,13.3 C21.6,13.3 32.5,4.8 32.5,-4 C32.5,-9.9 27.5,-13.2 21.3,-13.2 C11.6,-13.2 0,-5 0,4.2"/>
<path class="Clef" transform="matrix(0.992,0,0,0.992,232.438,1179.8)" d="M12.3,51.3 C12.3,57.9 17.3,66.6 30.8,66.6 C35.5,66.6 39.6,65.4 43.2,63.2 C48.6,59.4 50,52.8 50,46.5 C50,42.6 49.4,38.1 48.4,32.4 C48.1,30.4 47.5,27.4 46.9,23.5 C56.7,20.3 64,10.1 64,-0.2 C64,-15.3 53.3,-25.5 38.7,-25.5 C37.7,-31.5 36.7,-37.4 35.9,-43 C46.4,-54.1 53.7,-66.6 53.7,-82.5 C53.7,-91.6 50.9,-99 49.3,-102.6 C46.9,-107.7 44,-111.2 42.2,-111.2 C41.5,-111.2 38.4,-110 35.1,-106.1 C28.7,-98.5 26.9,-85.7 26.9,-77.3 C26.9,-71.9 27.4,-67 29.1,-55.8 C29,-55.7 23.8,-50.4 21.7,-48.7 C12.6,-40.3 0,-28.1 0,-8.1 C0,10.6 16.3,25.3 34.9,25.3 C37.8,25.3 40.5,25 42.8,24.6 C44.7,34.2 45.9,41.2 45.9,46.5 C45.9,56.9 40.5,62.4 30.4,62.4 C28,62.4 25.9,61.9 25.7,61.9 C25.6,61.8 25.4,61.7 25.4,61.6 C25.4,61.4 25.6,61.3 25.9,61.3 C30.6,60.5 35.3,56.5 35.3,50.1 C35.3,44.7 31.2,39 23.7,39 C16.7,39 12.3,44.7 12.3,51.3 M33.2,-82.2 C34.1,-86.2 38.7,-96.7 43.9,-96.7 C45.4,-96.7 47.8,-91.9 47.8,-84.9 C47.8,-74.5 40.1,-66.7 33.2,-59.9 C32.6,-63.9 32.1,-67.8 32.1,-72 C32.1,-75.7 32.4,-79.1 33.2,-82.2 M42,20.6 C40,21 38.1,21.2 36.2,21.2 C21.9,21.2 9.7,11.2 9.7,-3.9 C9.7,-16.1 18.3,-27 27.1,-34.6 C28.8,-36.1 30.4,-37.5 31.9,-39 C32.8,-33.6 33.5,-28.9 34.2,-24.8 C25.1,-22.1 18.9,-12.5 18.9,-3.1 C18.9,3.9 24.4,13.5 32.4,13.5 C33.2,13.5 34.1,13.1 34.1,12.2 C34.1,11.3 33.1,10.8 31.9,10 C28,7.6 25.8,5 25.8,0.1 C25.8,-6 30.4,-10.9 36.2,-12.3 L42,20.6 M56.2,2.1 C56.2,9.2 53.3,16.5 46.2,19.4 C44.1,7.4 41.4,-8.5 40.7,-12.9 C49.7,-12.9 56.2,-6.8 56.2,2.1"/>
<path class="Clef" transform="matrix(0.992,0,0,0.992,232.438,708.598)" d="M12.3,51.3 C12.3,57.9 17.3,66.6 30.8,66.6 C35.5,66.6 39.6,65.4 43.2,63.2 C48.6,59.4 50,52.8 50,46.5 C50,42.6 49.4,38.1 48.4,32.4 C48.1,30.4 47.5,27.4 46.9,23.5 C56.7,20.3 64,10.1 64,-0.2 C64,-15.3 53.3,-25.5 38.7,-25.5 C37.7,-31.5 36.7,-37.4 35.9,-43 C46.4,-54.1 53.7,-66.6 53.7,-82.5 C53.7,-91.6 50.9,-99 49.3,-102.6 C46.9,-107.7 44,-111.2 42.2,-111.2 C41.5,-111.2 38.4,-110 35.1,-106.1 C28.7,-98.5 26.9,-85.7 26.9,-77.3 C26.9,-71.9 27.4,-67 29.1,-55.8 C29,-55.7 23.8,-50.4 21.7,-48.7 C12.6,-40.3 0,-28.1 0,-8.1 C0,10.6 16.3,25.3 34.9,25.3 C37.8,25.3 40.5,25 42.8,24.6 C44.7,34.2 45.9,41.2 45.9,46.5 C45.9,56.9 40.5,62.4 30.4,62.4 C28,62.4 25.9,61.9 25.7,61.9 C25.6,61.8 25.4,61.7 25.4,61.6 C25.4,61.4 25.6,61.3 25.9,61.3 C30.6,60.5 35.3,56.5 35.3,50.1 C35.3,44.7 31.2,39 23.7,39 C16.7,39 12.3,44.7 12.3,51.3 M33.2,-82.2 C34.1,-86.2 38.7,-96.7 43.9,-96.7 C45.4,-96.7 47.8,-91.9 47.8,-84.9 C47.8,-74.5 40.1,-66.7 33.2,-59.9 C32.6,-63.9 32.1,-67.8 32.1,-72 C32.1,-75.7 32.4,-79.1 33.2,-82.2 M42,20.6 C40,21 38.1,21.2 36.2,21.2 C21.9,21.2 9.7,11.2 9.7,-3.9 C9.7,-16.1 18.3,-27 27.1,-34.6 C28.8,-36.1 30.4,-37.5 31.9,-39 C32.8,-33.6 33.5,-28.9 34.2,-24.8 C25.1,-22.1 18.9,-12.5 18.9,-3.1 C18.9,3.9 24.4,13.5 32.4,13.5 C33.2,13.5 34.1,13.1 34.1,12.2 C34.1,11.3 33.1,10.8 31.9,10 C28,7.6 25.8,5 25.8,0.1 C25.8,-6 30.4,-10.9 36.2,-12.3 L42,20.6 M56.2,2.1 C56.2,9.2 53.3,16.5 46.2,19.4 C44.1,7.4 41.4,-8.5 40.7,-12.9 C49.7,-12.9 56.2,-6.8 56.2,2.1"/>
<path class="Clef" transform="matrix(0.992,0,0,0.992,232.438,1651)" d="M12.3,51.3 C12.3,57.9 17.3,66.6 30.8,66.6 C35.5,66.6 39.6,65.4 43.2,63.2 C48.6,59.4 50,52.8 50,46.5 C50,42.6 49.4,38.1 48.4,32.4 C48.1,30.4 47.5,27.4 46.9,23.5 C56.7,20.3 64,10.1 64,-0.2 C64,-15.3 53.3,-25.5 38.7,-25.5 C37.7,-31.5 36.7,-37.4 35.9,-43 C46.4,-54.1 53.7,-66.6 53.7,-82.5 C53.7,-91.6 50.9,-99 49.3,-102.6 C46.9,-107.7 44,-111.2 42.2,-111.2 C41.5,-111.2 38.4,-110 35.1,-106.1 C28.7,-98.5 26.9,-85.7 26.9,-77.3 C26.9,-71.9 27.4,-67 29.1,-55.8 C29,-55.7 23.8,-50.4 21.7,-48.7 C12.6,-40.3 0,-28.1 0,-8.1 C0,10.6 16.3,25.3 34.9,25.3 C37.8,25.3 40.5,25 42.8,24.6 C44.7,34.2 45.9,41.2 45.9,46.5 C45.9,56.9 40.5,62.4 30.4,62.4 C28,62.4 25.9,61.9 25.7,61.9 C25.6,61.8 25.4,61.7 25.4,61.6 C25.4,61.4 25.6,61.3 25.9,61.3 C30.6,60.5 35.3,56.5 35.3,50.1 C35.3,44.7 31.2,39 23.7,39 C16.7,39 12.3,44.7 12.3,51.3 M33.2,-82.2 C34.1,-86.2 38.7,-96.7 43.9,-96.7 C45.4,-96.7 47.8,-91.9 47.8,-84.9 C47.8,-74.5 40.1,-66.7 33.2,-59.9 C32.6,-63.9 32.1,-67.8 32.1,-72 C32.1,-75.7 32.4,-79.1 33.2,-82.2 M42,20.6 C40,21 38.1,21.2 36.2,21.2 C21.9,21.2 9.7,11.2 9.7,-3.9 C9.7,-16.1 18.3,-27 27.1,-34.6 C28.8,-36.1 30.4,-37.5 31.9,-39 C32.8,-33.6 33.5,-28.9 34.2,-24.8 C25.1,-22.1 18.9,-12.5 18.9,-3.1 C18.9,3.9 24.4,13.5 32.4,13.5 C33.2,13.5 34.1,13.1 34.1,12.2 C34.1,11.3 33.1,10.8 31.9,10 C28,7.6 25.8,5 25.8,0.1 C25.8,-6 30.4,-10.9 36.2,-12.3 L42,20.6 M56.2,2.1 C56.2,9.2 53.3,16.5 46.2,19.4 C44.1,7.4 41.4,-8.5 40.7,-12.9 C49.7,-12.9 56.2,-6.8 56.2,2.1"/>
<path class="KeySig" transform="matrix(0.992,0,0,0.992,320.711,683.798)" d="M12,-15.5 C7,-15.5 4.1,-12.4 3.6,-11.8 L4,-43.9 C4,-44.7 3.4,-45.3 2.6,-45.3 L1.4,-45.3 C0.6,-45.3 0,-44.7 0,-43.9 L0.5,16.2 C0.5,17 1.1,17.6 1.9,17.6 C2.1,17.6 2.5,17.5 2.7,17.4 C11.3,13.1 20.3,4.9 20.3,-5.4 C20.3,-10.6 17.9,-15.5 12,-15.5 M3.3,12.7 L3.6,-6.8 C3.8,-7.7 5.3,-10.6 9.3,-10.6 C12.9,-10.6 13.2,-7.2 13.2,-5.1 C13.2,3.8 9.9,7.5 3.3,12.7"/>
<path class="KeySig" transform="matrix(0.992,0,0,0.992,320.711,1155)" d="M12,-15.5 C7,-15.5 4.1,-12.4 3.6,-11.8 L4,-43.9 C4,-44.7 3.4,-45.3 2.6,-45.3 L1.4,-45.3 C0.6,-45.3 0,-44.7 0,-43.9 L0.5,16.2 C0.5,17 1.1,17.6 1.9,17.6 C2.1,17.6 2.5,17.5 2.7,17.4 C11.3,13.1 20.3,4.9 20.3,-5.4 C20.3,-10.6 17.9,-15.5 12,-15.5 M3.3,12.7 L3.6,-6.8 C3.8,-7.7 5.3,-10.6 9.3,-10.6 C12.9,-10.6 13.2,-7.2 13.2,-5.1 C13.2,3.8 9.9,7.5 3.3,12.7"/>
<path class="KeySig" transform="matrix(0.992,0,0,0.992,320.711,1626.2)" d="M12,-15.5 C7,-15.5 4.1,-12.4 3.6,-11.8 L4,-43.9 C4,-44.7 3.4,-45.3 2.6,-45.3 L1.4,-45.3 C0.6,-45.3 0,-44.7 0,-43.9 L0.5,16.2 C0.5,17 1.1,17.6 1.9,17.6 C2.1,17.6 2.5,17.5 2.7,17.4 C11.3,13.1 20.3,4.9 20.3,-5.4 C20.3,-10.6 17.9,-15.5 12,-15.5 M3.3,12.7 L3.6,-6.8 C3.8,-7.7 5.3,-10.6 9.3,-10.6 C12.9,-10.6 13.2,-7.2 13.2,-5.1 C13.2,3.8 9.9,7.5 3.3,12.7"/>
<path class="TimeSig" transform="matrix(0.992,0,0,0.992,367.536,659.494)" d="M34.2,3.9 C33.4,6.1 31.4,13.3 26.5,13.3 C20,13.3 18.6,9.3 13.2,9.3 C12.4,9.3 11.6,9.4 10.6,9.6 C10.6,9.6 13.1,5.8 23.7,2.5 C34.3,-0.8 37,-6 37,-12 C37,-16.2 35.1,-24.5 20,-24.5 C4.9,-24.5 2.1,-15.4 2.1,-10.8 C2.1,-6.7 5.5,-3.4 9.6,-3.4 C13.7,-3.4 17,-6.7 17,-10.8 C17,-13.6 15,-16.7 12.4,-17.7 C12.1,-17.8 11.7,-18.3 11.7,-18.8 C11.7,-19.4 12.2,-20.1 14,-20.6 C14.5,-20.8 15.9,-21.1 17.4,-21.1 C23.1,-21.1 24.2,-17.6 24.2,-12.5 C24.2,-0.8 10.3,1.7 4.5,10.4 C4.5,10.4 1.5,14.6 1.5,19.3 C1.5,24 3.9,24.3 5.1,24.3 C6.7,24.3 8.4,23 8.4,21.2 C8.4,20.8 8.3,20.4 8.1,19.9 C7.5,18.5 7.3,17.4 7.3,16.6 C7.3,16.3 7.3,16 7.4,15.7 C7.5,15.1 8.3,14.1 10.7,14.1 C13.6,14.1 14.7,17.5 16.5,20.1 C18.3,22.7 21.1,24.3 24.3,24.3 C27.5,24.3 31.8,22 33.6,18.3 C35.4,14.6 37.7,7.1 37.7,4.4 C37.7,3.1 36.9,2.5 36,2.5 C35.3,2.5 34.6,2.9 34.2,3.9"/>
<path class="TimeSig" transform="matrix(0.992,0,0,0.992,364.266,708.598)" d="M20.8,12.7 L20.8,20.1 L12.5,20.1 C11.8,20.1 11.1,20.7 11.1,21.5 L11.1,23.4 C11.1,24.2 11.8,24.8 12.5,24.8 L42.8,24.8 C43.6,24.8 44.2,24.2 44.2,23.4 L44.2,21.5 C44.2,20.7 43.6,20.1 42.8,20.1 L33.9,20.1 L33.9,12.7 L42.8,12.7 C43.6,12.7 44.2,12 44.2,11.2 L44.2,9.3 C44.2,8.6 43.6,7.9 42.8,7.9 L33.9,7.9 L33.9,-8 C33.9,-8.6 33.6,-9.1 33.1,-9.3 L31.9,-9.9 C31.7,-10 31.4,-10.1 31.2,-10.1 C30.9,-10 30.5,-9.9 30.3,-9.7 L21.2,-1.4 C20.9,-1.1 20.8,-0.7 20.8,-0.3 L20.8,7.9 L9.3,7.9 C9.3,7.9 20.4,-4.1 32.2,-19.9 C32.6,-20.4 32.7,-20.9 32.7,-21.3 C32.7,-21.8 32.5,-22.2 32.4,-22.3 L30.2,-24.5 C30,-24.7 29.6,-24.9 29.2,-24.9 C28.6,-24.9 15.1,-24.9 14.4,-24.9 C13.6,-24.9 13.1,-24.3 13,-23.7 C13,-23.7 12.5,-16.3 9.9,-8.2 C7.3,-0.1 4.3,4.9 1.7,8.6 C1.7,8.6 1.4,9.1 1.4,9.7 C1.4,9.9 1.4,10.1 1.5,10.3 C1.9,11 2.5,12.1 2.5,12.1 C2.5,12.1 2.7,12.7 3.6,12.7 L20.8,12.7 "/>
<path class="Rest" transform="matrix(0.992,0,0,0.992,2609.95,683.798)" d="M26.7,-20.3 C26.6,-20.3 26.4,-20.4 26.3,-20.4 C25.7,-20.4 25.2,-20.1 25,-19.6 C22.7,-15 17.9,-8.8 12.5,-7.8 C13.6,-9.1 14.3,-10.7 14.3,-12.6 C14.3,-16.5 11.1,-19.7 7.2,-19.7 C3.2,-19.7 0,-16.5 0,-12.6 C0,-7.2 5.3,-4.7 10,-4.7 C15.3,-4.7 18.8,-7.2 22.2,-10.9 L10.8,24.7 L13.5,25.5 L27.5,-18.6 C27.6,-18.7 27.6,-18.9 27.6,-19.1 C27.6,-19.6 27.3,-20 26.7,-20.3"/>
<path class="Rest" transform="matrix(0.992,0,0,0.992,1411.94,1626.2)" d="M26.7,-20.3 C26.6,-20.3 26.4,-20.4 26.3,-20.4 C25.7,-20.4 25.2,-20.1 25,-19.6 C22.7,-15 17.9,-8.8 12.5,-7.8 C13.6,-9.1 14.3,-10.7 14.3,-12.6 C14.3,-16.5 11.1,-19.7 7.2,-19.7 C3.2,-19.7 0,-16.5 0,-12.6 C0,-7.2 5.3,-4.7 10,-4.7 C15.3,-4.7 18.8,-7.2 22.2,-10.9 L10.8,24.7 L13.5,25.5 L27.5,-18.6 C27.6,-18.7 27.6,-18.9 27.6,-19.1 C27.6,-19.6 27.3,-20 26.7,-20.3"/>
<path class="Rest" transform="matrix(0.992,0,0,0.992,2617.94,1155)" d="M26.7,-20.3 C26.6,-20.3 26.4,-20.4 26.3,-20.4 C25.7,-20.4 25.2,-20.1 25,-19.6 C22.7,-15 17.9,-8.8 12.5,-7.8 C13.6,-9.1 14.3,-10.7 14.3,-12.6 C14.3,-16.5 11.1,-19.7 7.2,-19.7 C3.2,-19.7 0,-16.5 0,-12.6 C0,-7.2 5.3,-4.7 10,-4.7 C15.3,-4.7 18.8,-7.2 22.2,-10.9 L10.8,24.7 L13.5,25.5 L27.5,-18.6 C27.6,-18.7 27.6,-18.9 27.6,-19.1 C27.6,-19.6 27.3,-20 26.7,-20.3"/>
<path class="Rest" transform="matrix(0.992,0,0,0.992,2597.96,1626.2)" d="M26.7,-20.3 C26.6,-20.3 26.4,-20.4 26.3,-20.4 C25.7,-20.4 25.2,-20.1 25,-19.6 C22.7,-15 17.9,-8.8 12.5,-7.8 C13.6,-9.1 14.3,-10.7 14.3,-12.6 C14.3,-16.5 11.1,-19.7 7.2,-19.7 C3.2,-19.7 0,-16.5 0,-12.6 C0,-7.2 5.3,-4.7 10,-4.7 C15.3,-4.7 18.8,-7.2 22.2,-10.9 L10.8,24.7 L13.5,25.5 L27.5,-18.6 C27.6,-18.7 27.6,-18.9 27.6,-19.1 C27.6,-19.6 27.3,-20 26.7,-20.3"/>
<path class="Beam" fill-rule="evenodd" d="M1860.12,1688.18 L2003.07,1700.58 L2003.07,1713.02 L1860.12,1700.62 L1860.12,1688.18 "/>
<path class="Beam" fill-rule="evenodd" d="M471.076,646.586 L664.194,658.986 L664.194,671.411 L471.076,659.011 L471.076,646.586 "/>
<path class="Beam" fill-rule="evenodd" d="M664.194,677.586 L631.954,675.516 L631.954,687.941 L664.194,690.011 L664.194,677.586 "/>
<path class="Beam" fill-rule="evenodd" d="M1899.73,1092.99 L2044.66,1099.19 L2044.66,1111.6 L1899.73,1105.4 L1899.73,1092.99 "/>
<path class="Beam" fill-rule="evenodd" d="M432.342,1576.59 L612.833,1570.39 L612.833,1582.8 L432.342,1589 L432.342,1576.59 "/>
<path class="Beam" fill-rule="evenodd" d="M612.833,1588.99 L580.593,1590.1 L580.593,1602.51 L612.833,1601.4 L612.833,1588.99 "/>
<path class="Beam" fill-rule="evenodd" d="M1588.87,1688.19 L1769.36,1681.99 L1769.36,1694.4 L1588.87,1700.6 L1588.87,1688.19 "/>
<path class="Beam" fill-rule="evenodd" d="M1769.36,1663.39 L1737.12,1664.5 L1737.12,1676.91 L1769.36,1675.8 L1769.36,1663.39 "/>
<path class="Beam" fill-rule="evenodd" d="M1726.27,627.995 L1919.38,634.195 L1919.38,646.602 L1726.27,640.402 L1726.27,627.995 "/>
<path class="Beam" fill-rule="evenodd" d="M1919.38,652.795 L1887.14,651.76 L1887.14,664.167 L1919.38,665.202 L1919.38,652.795 "/>
<path class="Beam" fill-rule="evenodd" d="M1595.17,1217 L1778.17,1217 L1778.17,1229.4 L1595.17,1229.4 L1595.17,1217 "/>
<path class="Beam" fill-rule="evenodd" d="M1778.17,1198.4 L1745.93,1198.4 L1745.93,1210.8 L1778.17,1210.8 L1778.17,1198.4 "/>
<path class="Beam" fill-rule="evenodd" d="M1098.67,609.395 L1291.79,615.595 L1291.79,628.002 L1098.67,621.802 L1098.67,609.395 "/>
<path class="Beam" fill-rule="evenodd" d="M1291.79,634.195 L1259.55,633.16 L1259.55,645.567 L1291.79,646.602 L1291.79,634.195 "/>
<path class="Beam" fill-rule="evenodd" d="M2206.77,1570.39 L2349.73,1576.59 L2349.73,1589 L2206.77,1582.8 L2206.77,1570.39 "/>
<path class="Beam" fill-rule="evenodd" d="M703.59,1576.6 L846.546,1576.6 L846.546,1589 L703.59,1589 L703.59,1576.6 "/>
<path class="Beam" fill-rule="evenodd" d="M761.591,634.193 L914.507,627.993 L914.507,640.404 L761.591,646.604 L761.591,634.193 "/>
<path class="Beam" fill-rule="evenodd" d="M2220.84,1092.99 L2365.76,1099.19 L2365.76,1111.6 L2220.84,1105.4 L2220.84,1092.99 "/>
<path class="Beam" fill-rule="evenodd" d="M1274.07,1216.98 L1419,1229.38 L1419,1241.82 L1274.07,1229.42 L1274.07,1216.98 "/>
<path class="Beam" fill-rule="evenodd" d="M432.342,1080.6 L615.332,1080.6 L615.332,1093 L432.342,1093 L432.342,1080.6 "/>
<path class="Beam" fill-rule="evenodd" d="M615.332,1099.2 L583.092,1099.2 L583.092,1111.6 L615.332,1111.6 L615.332,1099.2 "/>
<path class="Beam" fill-rule="evenodd" d="M999.01,1216.99 L1182,1210.79 L1182,1223.2 L999.01,1229.4 L999.01,1216.99 "/>
<path class="Beam" fill-rule="evenodd" d="M1182,1192.19 L1149.76,1193.29 L1149.76,1205.69 L1182,1204.6 L1182,1192.19 "/>
<path class="Beam" fill-rule="evenodd" d="M2016.78,627.993 L2169.7,621.793 L2169.7,634.204 L2016.78,640.404 L2016.78,627.993 "/>
<path class="Beam" fill-rule="evenodd" d="M1389.19,634.198 L1542.1,634.198 L1542.1,646.598 L1389.19,646.598 L1389.19,634.198 "/>
<path class="Beam" fill-rule="evenodd" d="M1020.75,1564.18 L1163.71,1576.58 L1163.71,1589.02 L1020.75,1576.62 L1020.75,1564.18 "/>
<path class="Beam" fill-rule="evenodd" d="M707.404,1099.19 L852.331,1092.99 L852.331,1105.4 L707.404,1111.6 L707.404,1099.19 "/>
<path class="Harmony" d="M710.634,1003.69 L677.909,1003.69 L677.909,1006.27 L678.899,1006.27 C682.034,1006.33 683.079,1006.49 683.519,1007.04 C683.849,1007.54 683.849,1007.65 683.849,1010.45 L683.849,1036.63 C683.849,1039.44 683.849,1039.55 683.519,1040.04 C683.079,1040.59 682.034,1040.81 678.899,1040.81 L677.909,1040.81 L677.909,1043.4 L696.774,1043.4 L696.774,1040.81 L694.959,1040.81 C691.824,1040.81 690.779,1040.59 690.339,1040.04 C690.009,1039.55 690.009,1039.38 690.009,1036.63 L690.009,1024.15 L691.109,1024.15 C696.774,1023.93 698.809,1025.96 699.029,1032.07 L701.614,1032.07 L701.614,1014.03 L699.029,1014.03 C698.699,1019.42 696.554,1021.51 691.329,1021.56 L690.009,1021.56 L690.009,1009.02 C689.954,1006.71 690.504,1006.33 693.474,1006.27 L696.004,1006.27 C705.024,1006.22 707.279,1008.25 708.984,1017.71 L711.404,1017.71 L710.634,1003.69 "/>
<path class="Harmony" d="M1902.91,1003.3 L1900.82,1003.3 L1898.62,1006.55 C1894.61,1003.63 1892.57,1002.86 1888.78,1002.86 C1883.55,1002.86 1879.1,1005.06 1875.41,1009.46 C1871.89,1013.64 1870.24,1018.26 1870.24,1023.93 C1870.24,1035.81 1878,1044.22 1888.83,1044.22 C1897.63,1044.22 1903.24,1039.05 1904.51,1029.81 L1901.92,1029.37 C1900.44,1037.57 1896.26,1041.64 1889.49,1041.64 C1881.35,1041.64 1877.5,1036.03 1877.5,1024.15 C1877.5,1017.88 1878.33,1013.75 1880.2,1010.45 C1881.9,1007.37 1885.26,1005.45 1888.83,1005.45 C1892.68,1005.45 1896.09,1007.48 1898.18,1011 C1899.23,1012.82 1900,1014.85 1901.32,1019.2 L1903.74,1019.2 L1902.91,1003.3 "/>
<path class="Harmony" d="M1913.17,1017.99 L1915.59,1018.37 L1916.58,1014.03 C1917.4,1010.4 1917.79,1009.85 1919.38,1009.85 C1919.66,1009.85 1920.1,1009.85 1920.59,1009.9 C1927.36,1010.23 1927.36,1010.23 1929.89,1010.23 C1930.6,1010.23 1931.87,1010.23 1933.41,1010.18 L1929.67,1017.71 C1925.6,1025.8 1925.1,1026.79 1923.73,1030.2 C1922.02,1034.32 1921.14,1037.79 1921.14,1040.1 C1921.14,1042.63 1922.46,1044.17 1924.61,1044.17 C1927.25,1044.17 1928.29,1042.41 1928.24,1037.62 C1927.96,1029.7 1928.95,1025.85 1934.84,1012.98 C1935.83,1010.84 1936.87,1008.64 1937.86,1006.49 L1937.86,1004.9 C1934.56,1005.17 1932.8,1005.28 1929.39,1005.28 C1924.61,1005.28 1920.81,1005.12 1914.87,1004.68 L1913.17,1017.99 "/>
<path class="Harmony" d="M2019.96,532.103 L2017.87,532.103 L2015.67,535.348 C2011.66,532.433 2009.62,531.663 2005.83,531.663 C2000.6,531.663 1996.15,533.863 1992.46,538.263 C1988.94,542.443 1987.29,547.063 1987.29,552.728 C1987.29,564.608 1995.05,573.023 2005.88,573.023 C2014.68,573.023 2020.29,567.853 2021.56,558.613 L2018.97,558.173 C2017.49,566.368 2013.31,570.438 2006.54,570.438 C1998.4,570.438 1994.55,564.828 1994.55,552.948 C1994.55,546.678 1995.38,542.553 1997.25,539.253 C1998.95,536.173 2002.31,534.248 2005.88,534.248 C2009.73,534.248 2013.14,536.283 2015.23,539.803 C2016.28,541.618 2017.05,543.653 2018.37,547.998 L2020.79,547.998 L2019.96,532.103 "/>
<path class="Harmony" d="M2030.22,546.788 L2032.64,547.173 L2033.63,542.828 C2034.45,539.198 2034.84,538.648 2036.43,538.648 C2036.71,538.648 2037.15,538.648 2037.64,538.703 C2044.41,539.033 2044.41,539.033 2046.94,539.033 C2047.65,539.033 2048.92,539.033 2050.46,538.978 L2046.72,546.513 C2042.65,554.598 2042.15,555.588 2040.78,558.998 C2039.07,563.123 2038.19,566.588 2038.19,568.898 C2038.19,571.428 2039.51,572.968 2041.66,572.968 C2044.3,572.968 2045.34,571.208 2045.29,566.423 C2045.01,558.503 2046,554.653 2051.89,541.783 C2052.88,539.638 2053.92,537.438 2054.91,535.293 L2054.91,533.698 C2051.61,533.973 2049.85,534.083 2046.44,534.083 C2041.66,534.083 2037.86,533.918 2031.92,533.478 L2030.22,546.788 "/>
<path class="Harmony" d="M1101.9,532.488 L1069.18,532.488 L1069.18,535.073 L1070.17,535.073 C1073.3,535.128 1074.35,535.293 1074.79,535.843 C1075.12,536.338 1075.12,536.448 1075.12,539.253 L1075.12,565.433 C1075.12,568.238 1075.12,568.348 1074.79,568.843 C1074.35,569.393 1073.3,569.613 1070.17,569.613 L1069.18,569.613 L1069.18,572.198 L1088.04,572.198 L1088.04,569.613 L1086.23,569.613 C1083.09,569.613 1082.05,569.393 1081.61,568.843 C1081.28,568.348 1081.28,568.183 1081.28,565.433 L1081.28,552.948 L1082.38,552.948 C1088.04,552.728 1090.08,554.763 1090.3,560.868 L1092.88,560.868 L1092.88,542.828 L1090.3,542.828 C1089.97,548.218 1087.82,550.308 1082.6,550.363 L1081.28,550.363 L1081.28,537.823 C1081.22,535.513 1081.77,535.128 1084.74,535.073 L1087.27,535.073 C1096.29,535.018 1098.55,537.053 1100.25,546.513 L1102.67,546.513 L1101.9,532.488 "/>
<path class="Harmony" d="M2490.46,1474.89 L2457.73,1474.89 L2457.73,1477.47 L2458.72,1477.47 C2461.86,1477.53 2462.9,1477.69 2463.34,1478.24 C2463.67,1478.74 2463.67,1478.85 2463.67,1481.65 L2463.67,1507.83 C2463.67,1510.64 2463.67,1510.75 2463.34,1511.24 C2462.9,1511.79 2461.86,1512.01 2458.72,1512.01 L2457.73,1512.01 L2457.73,1514.6 L2476.6,1514.6 L2476.6,1512.01 L2474.78,1512.01 C2471.65,1512.01 2470.6,1511.79 2470.16,1511.24 C2469.83,1510.75 2469.83,1510.58 2469.83,1507.83 L2469.83,1495.35 L2470.93,1495.35 C2476.6,1495.13 2478.63,1497.16 2478.85,1503.27 L2481.44,1503.27 L2481.44,1485.23 L2478.85,1485.23 C2478.52,1490.62 2476.38,1492.71 2471.15,1492.76 L2469.83,1492.76 L2469.83,1480.22 C2469.78,1477.91 2470.33,1477.53 2473.3,1477.47 L2475.83,1477.47 C2484.85,1477.42 2487.1,1479.45 2488.81,1488.91 L2491.23,1488.91 L2490.46,1474.89 "/>
<path class="Harmony" d="M1304.44,1474.89 L1271.71,1474.89 L1271.71,1477.47 L1272.7,1477.47 C1275.84,1477.53 1276.88,1477.69 1277.32,1478.24 C1277.65,1478.74 1277.65,1478.85 1277.65,1481.65 L1277.65,1507.83 C1277.65,1510.64 1277.65,1510.75 1277.32,1511.24 C1276.88,1511.79 1275.84,1512.01 1272.7,1512.01 L1271.71,1512.01 L1271.71,1514.6 L1290.58,1514.6 L1290.58,1512.01 L1288.76,1512.01 C1285.63,1512.01 1284.58,1511.79 1284.14,1511.24 C1283.81,1510.75 1283.81,1510.58 1283.81,1507.83 L1283.81,1495.35 L1284.91,1495.35 C1290.58,1495.13 1292.61,1497.16 1292.83,1503.27 L1295.42,1503.27 L1295.42,1485.23 L1292.83,1485.23 C1292.5,1490.62 1290.36,1492.71 1285.13,1492.76 L1283.81,1492.76 L1283.81,1480.22 C1283.76,1477.91 1284.31,1477.53 1287.28,1477.47 L1289.81,1477.47 C1298.83,1477.42 1301.08,1479.45 1302.79,1488.91 L1305.21,1488.91 L1304.44,1474.89 "/>
<path class="Harmony" d="M1031.74,1003.69 L999.011,1003.69 L999.011,1006.27 L1000,1006.27 C1003.14,1006.33 1004.18,1006.49 1004.62,1007.04 C1004.95,1007.54 1004.95,1007.65 1004.95,1010.45 L1004.95,1036.63 C1004.95,1039.44 1004.95,1039.55 1004.62,1040.04 C1004.18,1040.59 1003.14,1040.81 1000,1040.81 L999.011,1040.81 L999.011,1043.4 L1017.88,1043.4 L1017.88,1040.81 L1016.06,1040.81 C1012.93,1040.81 1011.88,1040.59 1011.44,1040.04 C1011.11,1039.55 1011.11,1039.38 1011.11,1036.63 L1011.11,1024.15 L1012.21,1024.15 C1017.88,1023.93 1019.91,1025.96 1020.13,1032.07 L1022.72,1032.07 L1022.72,1014.03 L1020.13,1014.03 C1019.8,1019.42 1017.66,1021.51 1012.43,1021.56 L1011.11,1021.56 L1011.11,1009.02 C1011.06,1006.71 1011.61,1006.33 1014.58,1006.27 L1017.11,1006.27 C1026.13,1006.22 1028.38,1008.25 1030.09,1017.71 L1032.51,1017.71 L1031.74,1003.69 "/>
<path class="Harmony" d="M706.82,1474.89 L674.095,1474.89 L674.095,1477.47 L675.085,1477.47 C678.22,1477.53 679.265,1477.69 679.705,1478.24 C680.035,1478.74 680.035,1478.85 680.035,1481.65 L680.035,1507.83 C680.035,1510.64 680.035,1510.75 679.705,1511.24 C679.265,1511.79 678.22,1512.01 675.085,1512.01 L674.095,1512.01 L674.095,1514.6 L692.96,1514.6 L692.96,1512.01 L691.145,1512.01 C688.01,1512.01 686.965,1511.79 686.525,1511.24 C686.195,1510.75 686.195,1510.58 686.195,1507.83 L686.195,1495.35 L687.295,1495.35 C692.96,1495.13 694.995,1497.16 695.215,1503.27 L697.8,1503.27 L697.8,1485.23 L695.215,1485.23 C694.885,1490.62 692.74,1492.71 687.515,1492.76 L686.195,1492.76 L686.195,1480.22 C686.14,1477.91 686.69,1477.53 689.66,1477.47 L692.19,1477.47 C701.21,1477.42 703.465,1479.45 705.17,1488.91 L707.59,1488.91 L706.82,1474.89 "/>
<path class="Harmony" d="M435.572,1474.89 L402.847,1474.89 L402.847,1477.47 L403.837,1477.47 C406.972,1477.53 408.017,1477.69 408.457,1478.24 C408.787,1478.74 408.787,1478.85 408.787,1481.65 L408.787,1507.83 C408.787,1510.64 408.787,1510.75 408.457,1511.24 C408.017,1511.79 406.972,1512.01 403.837,1512.01 L402.847,1512.01 L402.847,1514.6 L421.712,1514.6 L421.712,1512.01 L419.897,1512.01 C416.762,1512.01 415.717,1511.79 415.277,1511.24 C414.947,1510.75 414.947,1510.58 414.947,1507.83 L414.947,1495.35 L416.047,1495.35 C421.712,1495.13 423.747,1497.16 423.967,1503.27 L426.552,1503.27 L426.552,1485.23 L423.967,1485.23 C423.637,1490.62 421.492,1492.71 416.267,1492.76 L414.947,1492.76 L414.947,1480.22 C414.892,1477.91 415.442,1477.53 418.412,1477.47 L420.942,1477.47 C429.962,1477.42 432.217,1479.45 433.922,1488.91 L436.342,1488.91 L435.572,1474.89 "/>
<path class="Harmony" d="M1392.42,532.488 L1359.69,532.488 L1359.69,535.073 L1360.68,535.073 C1363.82,535.128 1364.86,535.293 1365.3,535.843 C1365.63,536.338 1365.63,536.448 1365.63,539.253 L1365.63,565.433 C1365.63,568.238 1365.63,568.348 1365.3,568.843 C1364.86,569.393 1363.82,569.613 1360.68,569.613 L1359.69,569.613 L1359.69,572.198 L1378.56,572.198 L1378.56,569.613 L1376.74,569.613 C1373.61,569.613 1372.56,569.393 1372.12,568.843 C1371.79,568.348 1371.79,568.183 1371.79,565.433 L1371.79,552.948 L1372.89,552.948 C1378.56,552.728 1380.59,554.763 1380.81,560.868 L1383.4,560.868 L1383.4,542.828 L1380.81,542.828 C1380.48,548.218 1378.34,550.308 1373.11,550.363 L1371.79,550.363 L1371.79,537.823 C1371.74,535.513 1372.29,535.128 1375.26,535.073 L1377.79,535.073 C1386.81,535.018 1389.06,537.053 1390.77,546.513 L1393.19,546.513 L1392.42,532.488 "/>
<path class="Harmony" d="M435.572,1003.69 L402.847,1003.69 L402.847,1006.27 L403.837,1006.27 C406.972,1006.33 408.017,1006.49 408.457,1007.04 C408.787,1007.54 408.787,1007.65 408.787,1010.45 L408.787,1036.63 C408.787,1039.44 408.787,1039.55 408.457,1040.04 C408.017,1040.59 406.972,1040.81 403.837,1040.81 L402.847,1040.81 L402.847,1043.4 L421.712,1043.4 L421.712,1040.81 L419.897,1040.81 C416.762,1040.81 415.717,1040.59 415.277,1040.04 C414.947,1039.55 414.947,1039.38 414.947,1036.63 L414.947,1024.15 L416.047,1024.15 C421.712,1023.93 423.747,1025.96 423.967,1032.07 L426.552,1032.07 L426.552,1014.03 L423.967,1014.03 C423.637,1019.42 421.492,1021.51 416.267,1021.56 L414.947,1021.56 L414.947,1009.02 C414.892,1006.71 415.442,1006.33 418.412,1006.27 L420.942,1006.27 C429.962,1006.22 432.217,1008.25 433.922,1017.71 L436.342,1017.71 L435.572,1003.69 "/>
<path class="Harmony" d="M1306.8,1003.69 L1274.07,1003.69 L1274.07,1006.27 L1275.06,1006.27 C1278.2,1006.33 1279.24,1006.49 1279.68,1007.04 C1280.01,1007.54 1280.01,1007.65 1280.01,1010.45 L1280.01,1036.63 C1280.01,1039.44 1280.01,1039.55 1279.68,1040.04 C1279.24,1040.59 1278.2,1040.81 1275.06,1040.81 L1274.07,1040.81 L1274.07,1043.4 L1292.94,1043.4 L1292.94,1040.81 L1291.12,1040.81 C1287.99,1040.81 1286.94,1040.59 1286.5,1040.04 C1286.17,1039.55 1286.17,1039.38 1286.17,1036.63 L1286.17,1024.15 L1287.27,1024.15 C1292.94,1023.93 1294.97,1025.96 1295.19,1032.07 L1297.78,1032.07 L1297.78,1014.03 L1295.19,1014.03 C1294.86,1019.42 1292.72,1021.51 1287.49,1021.56 L1286.17,1021.56 L1286.17,1009.02 C1286.12,1006.71 1286.67,1006.33 1289.64,1006.27 L1292.17,1006.27 C1301.19,1006.22 1303.44,1008.25 1305.15,1017.71 L1307.57,1017.71 L1306.8,1003.69 "/>
<path class="Harmony" d="M474.306,532.488 L441.581,532.488 L441.581,535.073 L442.571,535.073 C445.706,535.128 446.751,535.293 447.191,535.843 C447.521,536.338 447.521,536.448 447.521,539.253 L447.521,565.433 C447.521,568.238 447.521,568.348 447.191,568.843 C446.751,569.393 445.706,569.613 442.571,569.613 L441.581,569.613 L441.581,572.198 L460.446,572.198 L460.446,569.613 L458.631,569.613 C455.496,569.613 454.451,569.393 454.011,568.843 C453.681,568.348 453.681,568.183 453.681,565.433 L453.681,552.948 L454.781,552.948 C460.446,552.728 462.481,554.763 462.701,560.868 L465.286,560.868 L465.286,542.828 L462.701,542.828 C462.371,548.218 460.226,550.308 455.001,550.363 L453.681,550.363 L453.681,537.823 C453.626,535.513 454.176,535.128 457.146,535.073 L459.676,535.073 C468.696,535.018 470.951,537.053 472.656,546.513 L475.076,546.513 L474.306,532.488 "/>
<path class="Harmony" d="M1621.6,1474.89 L1588.87,1474.89 L1588.87,1477.47 L1589.86,1477.47 C1593,1477.53 1594.04,1477.69 1594.48,1478.24 C1594.81,1478.74 1594.81,1478.85 1594.81,1481.65 L1594.81,1507.83 C1594.81,1510.64 1594.81,1510.75 1594.48,1511.24 C1594.04,1511.79 1593,1512.01 1589.86,1512.01 L1588.87,1512.01 L1588.87,1514.6 L1607.74,1514.6 L1607.74,1512.01 L1605.92,1512.01 C1602.79,1512.01 1601.74,1511.79 1601.3,1511.24 C1600.97,1510.75 1600.97,1510.58 1600.97,1507.83 L1600.97,1495.35 L1602.07,1495.35 C1607.74,1495.13 1609.77,1497.16 1609.99,1503.27 L1612.58,1503.27 L1612.58,1485.23 L1609.99,1485.23 C1609.66,1490.62 1607.52,1492.71 1602.29,1492.76 L1600.97,1492.76 L1600.97,1480.22 C1600.92,1477.91 1601.47,1477.53 1604.44,1477.47 L1606.97,1477.47 C1615.99,1477.42 1618.24,1479.45 1619.95,1488.91 L1622.37,1488.91 L1621.6,1474.89 "/>
<path class="Harmony" d="M1729.45,532.103 L1727.36,532.103 L1725.16,535.348 C1721.14,532.433 1719.11,531.663 1715.31,531.663 C1710.09,531.663 1705.63,533.863 1701.95,538.263 C1698.43,542.443 1696.78,547.063 1696.78,552.728 C1696.78,564.608 1704.53,573.023 1715.37,573.023 C1724.17,573.023 1729.78,567.853 1731.04,558.613 L1728.46,558.173 C1726.97,566.368 1722.79,570.438 1716.03,570.438 C1707.89,570.438 1704.04,564.828 1704.04,552.948 C1704.04,546.678 1704.86,542.553 1706.73,539.253 C1708.44,536.173 1711.79,534.248 1715.37,534.248 C1719.22,534.248 1722.63,536.283 1724.72,539.803 C1725.76,541.618 1726.53,543.653 1727.85,547.998 L1730.27,547.998 L1729.45,532.103 "/>
<path class="Harmony" d="M1739.7,546.788 L1742.12,547.173 L1743.11,542.828 C1743.94,539.198 1744.32,538.648 1745.92,538.648 C1746.19,538.648 1746.63,538.648 1747.13,538.703 C1753.89,539.033 1753.89,539.033 1756.42,539.033 C1757.14,539.033 1758.4,539.033 1759.94,538.978 L1756.2,546.513 C1752.13,554.598 1751.64,555.588 1750.26,558.998 C1748.56,563.123 1747.68,566.588 1747.68,568.898 C1747.68,571.428 1749,572.968 1751.14,572.968 C1753.78,572.968 1754.83,571.208 1754.77,566.423 C1754.5,558.503 1755.49,554.653 1761.37,541.783 C1762.36,539.638 1763.41,537.438 1764.4,535.293 L1764.4,533.698 C1761.1,533.973 1759.34,534.083 1755.93,534.083 C1751.14,534.083 1747.35,533.918 1741.41,533.478 L1739.7,546.788 "/>
<path class="Harmony" d="M2357.04,532.103 L2354.95,532.103 L2352.75,535.348 C2348.74,532.433 2346.7,531.663 2342.91,531.663 C2337.68,531.663 2333.23,533.863 2329.54,538.263 C2326.02,542.443 2324.37,547.063 2324.37,552.728 C2324.37,564.608 2332.13,573.023 2342.96,573.023 C2351.76,573.023 2357.37,567.853 2358.64,558.613 L2356.05,558.173 C2354.57,566.368 2350.39,570.438 2343.62,570.438 C2335.48,570.438 2331.63,564.828 2331.63,552.948 C2331.63,546.678 2332.46,542.553 2334.33,539.253 C2336.03,536.173 2339.39,534.248 2342.96,534.248 C2346.81,534.248 2350.22,536.283 2352.31,539.803 C2353.36,541.618 2354.13,543.653 2355.45,547.998 L2357.87,547.998 L2357.04,532.103 "/>
<path class="Harmony" d="M2367.3,546.788 L2369.72,547.173 L2370.71,542.828 C2371.53,539.198 2371.92,538.648 2373.51,538.648 C2373.79,538.648 2374.23,538.648 2374.72,538.703 C2381.49,539.033 2381.49,539.033 2384.02,539.033 C2384.73,539.033 2386,539.033 2387.54,538.978 L2383.8,546.513 C2379.73,554.598 2379.23,555.588 2377.86,558.998 C2376.15,563.123 2375.27,566.588 2375.27,568.898 C2375.27,571.428 2376.59,572.968 2378.74,572.968 C2381.38,572.968 2382.42,571.208 2382.37,566.423 C2382.09,558.503 2383.08,554.653 2388.97,541.783 C2389.96,539.638 2391,537.438 2391.99,535.293 L2391.99,533.698 C2388.69,533.973 2386.93,534.083 2383.52,534.083 C2378.74,534.083 2374.94,533.918 2369,533.478 L2367.3,546.788 "/>
<path class="Harmony" d="M2508.46,1003.69 L2475.74,1003.69 L2475.74,1006.27 L2476.73,1006.27 C2479.86,1006.33 2480.91,1006.49 2481.35,1007.04 C2481.68,1007.54 2481.68,1007.65 2481.68,1010.45 L2481.68,1036.63 C2481.68,1039.44 2481.68,1039.55 2481.35,1040.04 C2480.91,1040.59 2479.86,1040.81 2476.73,1040.81 L2475.74,1040.81 L2475.74,1043.4 L2494.6,1043.4 L2494.6,1040.81 L2492.79,1040.81 C2489.65,1040.81 2488.61,1040.59 2488.17,1040.04 C2487.84,1039.55 2487.84,1039.38 2487.84,1036.63 L2487.84,1024.15 L2488.94,1024.15 C2494.6,1023.93 2496.64,1025.96 2496.86,1032.07 L2499.44,1032.07 L2499.44,1014.03 L2496.86,1014.03 C2496.53,1019.42 2494.38,1021.51 2489.16,1021.56 L2487.84,1021.56 L2487.84,1009.02 C2487.78,1006.71 2488.33,1006.33 2491.3,1006.27 L2493.83,1006.27 C2502.85,1006.22 2505.11,1008.25 2506.81,1017.71 L2509.23,1017.71 L2508.46,1003.69 "/>
<path class="Harmony" d="M2547.43,532.103 L2545.34,532.103 L2543.14,535.348 C2539.13,532.433 2537.09,531.663 2533.3,531.663 C2528.07,531.663 2523.62,533.863 2519.93,538.263 C2516.41,542.443 2514.76,547.063 2514.76,552.728 C2514.76,564.608 2522.52,573.023 2533.35,573.023 C2542.15,573.023 2547.76,567.853 2549.03,558.613 L2546.44,558.173 C2544.96,566.368 2540.78,570.438 2534.01,570.438 C2525.87,570.438 2522.02,564.828 2522.02,552.948 C2522.02,546.678 2522.85,542.553 2524.72,539.253 C2526.42,536.173 2529.78,534.248 2533.35,534.248 C2537.2,534.248 2540.61,536.283 2542.7,539.803 C2543.75,541.618 2544.52,543.653 2545.84,547.998 L2548.26,547.998 L2547.43,532.103 "/>
<path class="Harmony" d="M2557.69,546.788 L2560.11,547.173 L2561.1,542.828 C2561.92,539.198 2562.31,538.648 2563.9,538.648 C2564.18,538.648 2564.62,538.648 2565.11,538.703 C2571.88,539.033 2571.88,539.033 2574.41,539.033 C2575.12,539.033 2576.39,539.033 2577.93,538.978 L2574.19,546.513 C2570.12,554.598 2569.62,555.588 2568.25,558.998 C2566.54,563.123 2565.66,566.588 2565.66,568.898 C2565.66,571.428 2566.98,572.968 2569.13,572.968 C2571.77,572.968 2572.81,571.208 2572.76,566.423 C2572.48,558.503 2573.47,554.653 2579.36,541.783 C2580.35,539.638 2581.39,537.438 2582.38,535.293 L2582.38,533.698 C2579.08,533.973 2577.32,534.083 2573.91,534.083 C2569.13,534.083 2565.33,533.918 2559.39,533.478 L2557.69,546.788 "/>
<path class="Harmony" d="M764.821,532.488 L732.096,532.488 L732.096,535.073 L733.086,535.073 C736.221,535.128 737.266,535.293 737.706,535.843 C738.036,536.338 738.036,536.448 738.036,539.253 L738.036,565.433 C738.036,568.238 738.036,568.348 737.706,568.843 C737.266,569.393 736.221,569.613 733.086,569.613 L732.096,569.613 L732.096,572.198 L750.961,572.198 L750.961,569.613 L749.146,569.613 C746.011,569.613 744.966,569.393 744.526,568.843 C744.196,568.348 744.196,568.183 744.196,565.433 L744.196,552.948 L745.296,552.948 C750.961,552.728 752.996,554.763 753.216,560.868 L755.801,560.868 L755.801,542.828 L753.216,542.828 C752.886,548.218 750.741,550.308 745.516,550.363 L744.196,550.363 L744.196,537.823 C744.141,535.513 744.691,535.128 747.661,535.073 L750.191,535.073 C759.211,535.018 761.466,537.053 763.171,546.513 L765.591,546.513 L764.821,532.488 "/>
<path class="Harmony" d="M1892.84,1474.89 L1860.12,1474.89 L1860.12,1477.47 L1861.11,1477.47 C1864.24,1477.53 1865.29,1477.69 1865.73,1478.24 C1866.06,1478.74 1866.06,1478.85 1866.06,1481.65 L1866.06,1507.83 C1866.06,1510.64 1866.06,1510.75 1865.73,1511.24 C1865.29,1511.79 1864.24,1512.01 1861.11,1512.01 L1860.12,1512.01 L1860.12,1514.6 L1878.98,1514.6 L1878.98,1512.01 L1877.17,1512.01 C1874.03,1512.01 1872.99,1511.79 1872.55,1511.24 C1872.22,1510.75 1872.22,1510.58 1872.22,1507.83 L1872.22,1495.35 L1873.32,1495.35 C1878.98,1495.13 1881.02,1497.16 1881.24,1503.27 L1883.82,1503.27 L1883.82,1485.23 L1881.24,1485.23 C1880.91,1490.62 1878.76,1492.71 1873.54,1492.76 L1872.22,1492.76 L1872.22,1480.22 C1872.16,1477.91 1872.71,1477.53 1875.68,1477.47 L1878.21,1477.47 C1887.23,1477.42 1889.49,1479.45 1891.19,1488.91 L1893.61,1488.91 L1892.84,1474.89 "/>
<path class="Harmony" d="M2209.95,1474.5 L2207.86,1474.5 L2205.66,1477.75 C2201.65,1474.83 2199.61,1474.06 2195.82,1474.06 C2190.59,1474.06 2186.14,1476.26 2182.45,1480.66 C2178.93,1484.84 2177.28,1489.46 2177.28,1495.13 C2177.28,1507.01 2185.04,1515.42 2195.87,1515.42 C2204.67,1515.42 2210.28,1510.25 2211.55,1501.01 L2208.96,1500.57 C2207.48,1508.77 2203.3,1512.84 2196.53,1512.84 C2188.39,1512.84 2184.54,1507.23 2184.54,1495.35 C2184.54,1489.08 2185.37,1484.95 2187.24,1481.65 C2188.94,1478.57 2192.3,1476.65 2195.87,1476.65 C2199.72,1476.65 2203.13,1478.68 2205.22,1482.2 C2206.27,1484.02 2207.04,1486.05 2208.36,1490.4 L2210.78,1490.4 L2209.95,1474.5 "/>
<path class="Harmony" d="M2220.21,1489.19 L2222.63,1489.57 L2223.62,1485.23 C2224.45,1481.6 2224.83,1481.05 2226.43,1481.05 C2226.7,1481.05 2227.14,1481.05 2227.64,1481.1 C2234.4,1481.43 2234.4,1481.43 2236.93,1481.43 C2237.65,1481.43 2238.91,1481.43 2240.45,1481.38 L2236.71,1488.91 C2232.64,1497 2232.15,1497.99 2230.77,1501.4 C2229.07,1505.52 2228.19,1508.99 2228.19,1511.3 C2228.19,1513.83 2229.51,1515.37 2231.65,1515.37 C2234.29,1515.37 2235.34,1513.61 2235.28,1508.82 C2235.01,1500.9 2236,1497.05 2241.88,1484.18 C2242.87,1482.04 2243.92,1479.84 2244.91,1477.69 L2244.91,1476.1 C2241.61,1476.37 2239.85,1476.48 2236.44,1476.48 C2231.65,1476.48 2227.86,1476.32 2221.92,1475.88 L2220.21,1489.19 "/>
<path class="Harmony" d="M2224.07,1003.69 L2191.34,1003.69 L2191.34,1006.27 L2192.33,1006.27 C2195.47,1006.33 2196.51,1006.49 2196.95,1007.04 C2197.28,1007.54 2197.28,1007.65 2197.28,1010.45 L2197.28,1036.63 C2197.28,1039.44 2197.28,1039.55 2196.95,1040.04 C2196.51,1040.59 2195.47,1040.81 2192.33,1040.81 L2191.34,1040.81 L2191.34,1043.4 L2210.21,1043.4 L2210.21,1040.81 L2208.39,1040.81 C2205.26,1040.81 2204.21,1040.59 2203.77,1040.04 C2203.44,1039.55 2203.44,1039.38 2203.44,1036.63 L2203.44,1024.15 L2204.54,1024.15 C2210.21,1023.93 2212.24,1025.96 2212.46,1032.07 L2215.05,1032.07 L2215.05,1014.03 L2212.46,1014.03 C2212.13,1019.42 2209.99,1021.51 2204.76,1021.56 L2203.44,1021.56 L2203.44,1009.02 C2203.39,1006.71 2203.94,1006.33 2206.91,1006.27 L2209.44,1006.27 C2218.46,1006.22 2220.71,1008.25 2222.42,1017.71 L2224.84,1017.71 L2224.07,1003.69 "/>
<path class="Harmony" d="M1627.85,1003.3 L1625.76,1003.3 L1623.56,1006.55 C1619.55,1003.63 1617.51,1002.86 1613.72,1002.86 C1608.49,1002.86 1604.04,1005.06 1600.35,1009.46 C1596.83,1013.64 1595.18,1018.26 1595.18,1023.93 C1595.18,1035.81 1602.94,1044.22 1613.77,1044.22 C1622.57,1044.22 1628.18,1039.05 1629.45,1029.81 L1626.86,1029.37 C1625.38,1037.57 1621.2,1041.64 1614.43,1041.64 C1606.29,1041.64 1602.44,1036.03 1602.44,1024.15 C1602.44,1017.88 1603.27,1013.75 1605.14,1010.45 C1606.84,1007.37 1610.2,1005.45 1613.77,1005.45 C1617.62,1005.45 1621.03,1007.48 1623.12,1011 C1624.17,1012.82 1624.94,1014.85 1626.26,1019.2 L1628.68,1019.2 L1627.85,1003.3 "/>
<path class="Harmony" d="M1638.11,1017.99 L1640.53,1018.37 L1641.52,1014.03 C1642.34,1010.4 1642.73,1009.85 1644.32,1009.85 C1644.6,1009.85 1645.04,1009.85 1645.53,1009.9 C1652.3,1010.23 1652.3,1010.23 1654.83,1010.23 C1655.54,1010.23 1656.81,1010.23 1658.35,1010.18 L1654.61,1017.71 C1650.54,1025.8 1650.04,1026.79 1648.67,1030.2 C1646.96,1034.32 1646.08,1037.79 1646.08,1040.1 C1646.08,1042.63 1647.4,1044.17 1649.55,1044.17 C1652.19,1044.17 1653.23,1042.41 1653.18,1037.62 C1652.9,1029.7 1653.89,1025.85 1659.78,1012.98 C1660.77,1010.84 1661.81,1008.64 1662.8,1006.49 L1662.8,1004.9 C1659.5,1005.17 1657.74,1005.28 1654.33,1005.28 C1649.55,1005.28 1645.75,1005.12 1639.81,1004.68 L1638.11,1017.99 "/>
<path class="Harmony" d="M1023.98,1474.89 L991.255,1474.89 L991.255,1477.47 L992.245,1477.47 C995.38,1477.53 996.425,1477.69 996.865,1478.24 C997.195,1478.74 997.195,1478.85 997.195,1481.65 L997.195,1507.83 C997.195,1510.64 997.195,1510.75 996.865,1511.24 C996.425,1511.79 995.38,1512.01 992.245,1512.01 L991.255,1512.01 L991.255,1514.6 L1010.12,1514.6 L1010.12,1512.01 L1008.3,1512.01 C1005.17,1512.01 1004.12,1511.79 1003.68,1511.24 C1003.35,1510.75 1003.35,1510.58 1003.35,1507.83 L1003.35,1495.35 L1004.45,1495.35 C1010.12,1495.13 1012.15,1497.16 1012.37,1503.27 L1014.96,1503.27 L1014.96,1485.23 L1012.37,1485.23 C1012.04,1490.62 1009.9,1492.71 1004.67,1492.76 L1003.35,1492.76 L1003.35,1480.22 C1003.3,1477.91 1003.85,1477.53 1006.82,1477.47 L1009.35,1477.47 C1018.37,1477.42 1020.62,1479.45 1022.33,1488.91 L1024.75,1488.91 L1023.98,1474.89 "/>
<path class="NoteDot" transform="matrix(0.992,0,0,0.992,1639.8,1142.6)" d="M0,0 C0,2.8 2.2,5 5,5 C7.8,5 10,2.8 10,0 C10,-2.8 7.8,-5 5,-5 C2.2,-5 0,-2.8 0,0"/>
<path class="NoteDot" transform="matrix(0.992,0,0,0.992,447.47,1167.4)" d="M0,0 C0,2.8 2.2,5 5,5 C7.8,5 10,2.8 10,0 C10,-2.8 7.8,-5 5,-5 C2.2,-5 0,-2.8 0,0"/>
<path class="NoteDot" transform="matrix(0.992,0,0,0.992,1741.39,696.198)" d="M0,0 C0,2.8 2.2,5 5,5 C7.8,5 10,2.8 10,0 C10,-2.8 7.8,-5 5,-5 C2.2,-5 0,-2.8 0,0"/>
<path class="NoteDot" transform="matrix(0.992,0,0,0.992,1113.8,696.198)" d="M0,0 C0,2.8 2.2,5 5,5 C7.8,5 10,2.8 10,0 C10,-2.8 7.8,-5 5,-5 C2.2,-5 0,-2.8 0,0"/>
<path class="NoteDot" transform="matrix(0.992,0,0,0.992,1633.49,1613.8)" d="M0,0 C0,2.8 2.2,5 5,5 C7.8,5 10,2.8 10,0 C10,-2.8 7.8,-5 5,-5 C2.2,-5 0,-2.8 0,0"/>
<path class="NoteDot" transform="matrix(0.992,0,0,0.992,2368.99,671.398)" d="M0,0 C0,2.8 2.2,5 5,5 C7.8,5 10,2.8 10,0 C10,-2.8 7.8,-5 5,-5 C2.2,-5 0,-2.8 0,0"/>
<path class="NoteDot" transform="matrix(0.992,0,0,0.992,447.47,1688.2)" d="M0,0 C0,2.8 2.2,5 5,5 C7.8,5 10,2.8 10,0 C10,-2.8 7.8,-5 5,-5 C2.2,-5 0,-2.8 0,0"/>
<path class="NoteDot" transform="matrix(0.992,0,0,0.992,486.204,720.998)" d="M0,0 C0,2.8 2.2,5 5,5 C7.8,5 10,2.8 10,0 C10,-2.8 7.8,-5 5,-5 C2.2,-5 0,-2.8 0,0"/>
<path class="NoteDot" transform="matrix(0.992,0,0,0.992,1043.63,1142.6)" d="M0,0 C0,2.8 2.2,5 5,5 C7.8,5 10,2.8 10,0 C10,-2.8 7.8,-5 5,-5 C2.2,-5 0,-2.8 0,0"/>
</svg>
