<?xml version="1.0" encoding="UTF-8" standalone="no"?>
<svg width="2977.2px" height="4208.4px" viewBox="0 0 2977.2 4208.4"
 xmlns="http://www.w3.org/2000/svg" xmlns:xlink="http://www.w3.org/1999/xlink" version="1.2" baseProfile="tiny">
<title>隣組</title>
<desc>Generated by MuseScore Studio 4.4.2</desc>
<path class="" fill="#ffffff" fill-rule="evenodd" d="M0,0 L2977.2,0 L2977.2,4208.4 L0,4208.4 L0,0 "/>
<polyline class="StaffLines" fill="none" stroke="#000000" stroke-width="2.73" stroke-linejoin="bevel" points="212.598,634.198 2764.6,634.198"/>
<polyline class="StaffLines" fill="none" stroke="#000000" stroke-width="2.73" stroke-linejoin="bevel" points="212.598,658.998 2764.6,658.998"/>
<polyline class="StaffLines" fill="none" stroke="#000000" stroke-width="2.73" stroke-linejoin="bevel" points="212.598,683.798 2764.6,683.798"/>
<polyline class="StaffLines" fill="none" stroke="#000000" stroke-width="2.73" stroke-linejoin="bevel" points="212.598,708.598 2764.6,708.598"/>
<polyline class="StaffLines" fill="none" stroke="#000000" stroke-width="2.73" stroke-linejoin="bevel" points="212.598,733.398 2764.6,733.398"/>
<polyline class="StaffLines" fill="none" stroke="#000000" stroke-width="2.73" stroke-linejoin="bevel" points="212.598,1105.4 2764.6,1105.4"/>
<polyline class="StaffLines" fill="none" stroke="#000000" stroke-width="2.73" stroke-linejoin="bevel" points="212.598,1130.2 2764.6,1130.2"/>
<polyline class="StaffLines" fill="none" stroke="#000000" stroke-width="2.73" stroke-linejoin="bevel" points="212.598,1155 2764.6,1155"/>
<polyline class="StaffLines" fill="none" stroke="#000000" stroke-width="2.73" stroke-linejoin="bevel" points="212.598,1179.8 2764.6,1179.8"/>
<polyline class="StaffLines" fill="none" stroke="#000000" stroke-width="2.73" stroke-linejoin="bevel" points="212.598,1204.6 2764.6,1204.6"/>
<polyline class="StaffLines" fill="none" stroke="#000000" stroke-width="2.73" stroke-linejoin="bevel" points="212.598,1576.6 2764.6,1576.6"/>
<polyline class="StaffLines" fill="none" stroke="#000000" stroke-width="2.73" stroke-linejoin="bevel" points="212.598,1601.4 2764.6,1601.4"/>
<polyline class="StaffLines" fill="none" stroke="#000000" stroke-width="2.73" stroke-linejoin="bevel" points="212.598,1626.2 2764.6,1626.2"/>
<polyline class="StaffLines" fill="none" stroke="#000000" stroke-width="2.73" stroke-linejoin="bevel" points="212.598,1651 2764.6,1651"/>
<polyline class="StaffLines" fill="none" stroke="#000000" stroke-width="2.73" stroke-linejoin="bevel" points="212.598,1675.8 2764.6,1675.8"/>
<path class="Text" d="M1428.22,265.409 C1428.99,263.209 1429.21,262.769 1429.65,261.449 C1430.09,260.349 1430.09,260.129 1430.42,259.359 L1424.37,257.379 C1423.82,260.459 1423.16,262.879 1421.73,266.399 C1418.21,275.089 1413.7,281.029 1406.44,286.419 C1408.31,287.739 1409.74,289.389 1410.73,291.039 C1414.36,287.849 1415.57,286.639 1418.32,283.229 C1422.28,286.199 1423.82,287.519 1427.34,291.039 C1422.06,298.189 1415.68,303.359 1406.22,308.199 C1408.31,309.739 1409.41,310.949 1410.84,313.149 C1419.31,307.979 1423.93,304.349 1428.55,299.069 C1434.38,292.469 1437.35,286.969 1442.19,273.439 C1443.29,270.139 1443.29,270.139 1443.95,268.709 L1440.65,264.859 C1438.67,265.299 1436.58,265.409 1433.5,265.409 L1428.22,265.409 M1436.91,271.019 C1434.27,278.609 1433.06,281.579 1430.64,285.979 C1427.78,283.339 1424.92,281.029 1421.62,278.719 C1423.38,275.969 1424.37,274.319 1425.91,271.019 L1436.91,271.019 M1462.76,296.759 L1462.76,301.159 C1462.76,305.449 1462.54,309.189 1462.21,312.269 L1469.36,312.269 C1469.03,309.079 1468.81,305.559 1468.81,301.159 L1468.81,296.759 L1471.67,296.759 C1474.31,296.759 1477.17,296.869 1479.48,297.199 L1479.48,290.379 C1477.17,290.709 1474.64,290.819 1471.67,290.819 L1468.81,290.819 L1468.81,274.649 L1471.12,274.649 C1474.09,274.649 1476.29,274.759 1478.16,275.089 L1478.16,268.379 C1476.18,268.709 1474.2,268.819 1471.12,268.819 L1468.81,268.819 L1468.81,268.049 C1468.81,263.319 1468.92,262.109 1469.25,260.019 L1462.32,260.019 C1462.65,262.329 1462.76,263.759 1462.76,268.819 L1450.55,268.819 C1447.8,268.819 1446.04,268.709 1444.17,268.489 L1444.17,274.979 C1445.38,274.759 1445.82,274.759 1447.14,274.759 L1447.14,290.819 L1445.05,290.819 C1442.74,290.819 1440.98,290.709 1439,290.379 L1439,297.199 C1441.86,296.869 1443.29,296.759 1445.71,296.759 L1462.76,296.759 M1462.76,290.819 L1453.08,290.819 L1453.08,274.649 L1462.76,274.649 L1462.76,290.819 M1437.68,238.569 C1428.99,247.149 1423.27,250.779 1410.84,254.959 C1412.71,257.049 1413.37,257.929 1414.8,260.459 C1428.11,254.629 1433.72,250.669 1442.85,240.439 C1442.63,242.749 1442.52,245.389 1442.52,249.899 L1442.52,253.419 C1442.52,256.609 1442.41,258.479 1441.97,261.009 L1449.23,261.009 C1448.79,258.699 1448.68,256.609 1448.68,253.419 L1448.68,249.899 C1448.68,246.159 1448.57,242.529 1448.35,240.329 C1452.75,245.389 1454.95,247.369 1459.24,250.449 C1465.07,254.629 1469.36,256.829 1478.6,260.459 C1479.7,258.039 1480.58,256.609 1482.23,254.519 C1470.02,251.109 1461.77,246.599 1453.08,238.569 L1468.81,238.569 C1472.77,238.569 1476.95,238.789 1479.26,239.009 L1479.26,232.629 C1477.28,232.849 1472.66,233.069 1468.81,233.069 L1448.68,233.069 L1448.68,221.849 C1448.68,218.659 1448.9,215.909 1449.23,213.379 L1441.97,213.379 C1442.41,216.129 1442.52,218.659 1442.52,221.849 L1442.52,233.069 L1423.16,233.069 C1419.64,233.069 1416.01,232.959 1414.14,232.629 L1414.14,239.009 C1416.45,238.789 1420.63,238.569 1423.93,238.569 L1437.68,238.569 M1385.98,296.869 C1385.98,304.349 1385.76,309.409 1385.32,312.489 L1393.02,312.489 C1392.8,310.399 1392.58,303.359 1392.58,296.979 L1392.58,222.509 L1407.32,222.509 C1403.03,235.269 1400.83,240.549 1396.21,249.679 C1400.39,254.299 1402.26,257.159 1404.13,262.109 C1405.34,265.189 1405.78,267.609 1405.78,270.689 C1405.78,276.189 1404.24,278.279 1400.06,278.279 C1398.96,278.279 1397.86,278.169 1395.44,277.729 C1396.1,279.489 1396.43,281.469 1396.43,282.899 L1396.43,283.339 C1396.43,283.669 1396.43,283.669 1396.43,284.109 C1398.08,284.219 1398.85,284.219 1399.51,284.219 C1407.98,284.219 1412.16,279.819 1412.16,270.799 C1412.16,267.939 1411.72,265.189 1410.62,262.109 C1409.19,257.709 1407.54,254.629 1403.03,248.689 C1406.11,242.639 1408.31,237.469 1411.72,228.449 C1414.25,222.069 1414.25,222.069 1415.13,220.529 L1411.83,216.019 C1410.29,216.349 1408.53,216.459 1405.34,216.459 L1393.02,216.459 C1390.27,216.459 1387.63,216.349 1385.54,216.019 C1385.87,218.219 1385.98,221.409 1385.98,225.369 L1385.98,296.869 M1419.97,216.569 C1423.82,221.299 1426.02,225.149 1428.77,231.529 L1434.38,228.559 C1431.41,222.509 1429.76,219.539 1425.47,213.819 L1419.97,216.569 M1466.06,213.929 C1463.31,219.869 1460.78,223.829 1456.16,228.889 L1461.55,231.419 C1465.62,227.019 1468.37,223.279 1472.11,216.789 L1466.06,213.929 M1493.78,267.389 C1496.64,266.839 1496.64,266.839 1504.89,266.289 C1506.65,266.179 1508.08,266.069 1511.49,265.739 L1511.49,300.829 C1511.49,305.339 1511.27,308.749 1510.83,312.159 L1518.86,312.159 C1518.42,308.969 1518.2,305.669 1518.2,300.829 L1518.2,264.969 C1520.62,264.749 1524.36,264.309 1529.53,263.539 C1530.63,266.069 1531.07,267.169 1532.5,270.909 L1538,268.159 C1535.03,260.789 1532.28,255.289 1527.33,247.369 L1522.16,249.679 C1524.58,253.309 1525.13,254.299 1527.11,258.369 C1518.64,259.469 1516.11,259.689 1509.4,260.129 C1514.35,254.409 1521.83,243.849 1529.31,231.859 C1530.74,229.769 1531.4,228.779 1532.28,227.679 L1525.9,223.939 C1524.47,228.009 1520.62,234.499 1513.25,245.499 C1510.28,241.979 1509.73,241.319 1506.1,237.469 C1509.51,232.629 1512.48,228.009 1515.89,222.179 C1518.75,217.009 1518.75,217.009 1519.85,215.579 L1512.7,212.609 C1511.71,216.679 1506.76,225.809 1501.81,233.069 C1499.28,230.649 1498.62,229.989 1495.43,227.349 L1491.91,232.849 C1498.95,238.679 1503.02,242.749 1509.51,250.669 C1506.32,255.179 1505.33,256.389 1501.92,260.569 C1500.49,260.569 1498.51,260.679 1497.52,260.679 C1495.32,260.679 1494,260.569 1492.57,260.349 L1493.78,267.389 M1499.28,272.889 C1496.53,289.169 1495.1,294.339 1491.03,302.149 L1497.08,305.119 C1500.93,296.759 1501.59,294.229 1505.44,274.319 L1499.28,272.889 M1523.04,274.099 C1525.57,280.699 1527.33,287.849 1528.43,295.989 L1534.26,294.339 C1532.61,285.099 1531.4,280.589 1528.43,272.339 L1523.04,274.099 M1582.33,301.599 L1582.33,230.429 C1582.33,223.939 1582.44,221.519 1582.66,217.889 C1579.69,218.219 1576.28,218.329 1570.67,218.329 L1551.09,218.329 C1546.14,218.329 1543.28,218.219 1540.09,217.999 C1540.42,221.629 1540.53,224.819 1540.53,229.329 L1540.53,301.599 L1536.24,301.599 C1532.39,301.599 1529.64,301.379 1527,300.939 L1527,308.419 C1530.08,307.979 1533.27,307.759 1537.34,307.759 L1581.34,307.759 C1585.41,307.759 1588.82,307.979 1591.9,308.419 L1591.9,300.939 C1589.37,301.379 1586.62,301.599 1583.21,301.599 L1582.33,301.599 M1547.13,224.709 L1575.73,224.709 L1575.73,245.609 L1547.13,245.609 L1547.13,224.709 M1547.13,251.769 L1575.73,251.769 L1575.73,273.219 L1547.13,273.219 L1547.13,251.769 M1547.13,279.379 L1575.73,279.379 L1575.73,301.599 L1547.13,301.599 L1547.13,279.379 "/>
<path class="MeasureNumber" d="M228.958,1498.68 L227.798,1498.68 C225.598,1500.32 221.358,1501.72 218.478,1501.72 L217.998,1503.48 L220.758,1503.48 C223.198,1503.48 223.478,1503.56 223.478,1504.28 C223.478,1504.64 223.478,1504.64 223.078,1506.08 L218.798,1522.08 C218.278,1524.08 218.238,1524.2 217.878,1524.56 C217.478,1524.96 216.638,1525.08 214.518,1525.12 L212.798,1525.12 L212.598,1527 L227.398,1527 L227.638,1525.12 L225.478,1525.12 C222.878,1525.12 222.318,1524.92 222.318,1524.04 C222.318,1523.76 222.478,1522.84 222.678,1522.08 L228.958,1498.68 M251.193,1498.68 L250.033,1498.68 C247.833,1500.32 243.593,1501.72 240.713,1501.72 L240.233,1503.48 L242.993,1503.48 C245.433,1503.48 245.713,1503.56 245.713,1504.28 C245.713,1504.64 245.713,1504.64 245.313,1506.08 L241.033,1522.08 C240.513,1524.08 240.473,1524.2 240.113,1524.56 C239.713,1524.96 238.873,1525.08 236.753,1525.12 L235.033,1525.12 L234.833,1527 L249.633,1527 L249.873,1525.12 L247.713,1525.12 C245.113,1525.12 244.553,1524.92 244.553,1524.04 C244.553,1523.76 244.713,1522.84 244.913,1522.08 L251.193,1498.68 "/>
<path class="MeasureNumber" d="M217.481,1042.4 C218.161,1038.88 218.961,1036.68 220.481,1034 C222.281,1030.84 224.441,1029.24 226.841,1029.24 C228.081,1029.24 228.841,1029.72 228.841,1030.48 C228.841,1030.76 228.761,1030.92 228.481,1031.44 C228.121,1032.12 227.961,1032.6 227.961,1033.2 C227.961,1034.48 228.921,1035.36 230.281,1035.36 C231.921,1035.36 233.041,1034.16 233.041,1032.36 C233.041,1029.64 230.481,1027.64 226.921,1027.64 C218.001,1027.64 212.601,1039.28 212.601,1046.96 C212.601,1052.84 215.521,1056.4 220.401,1056.4 C226.401,1056.4 230.841,1051.44 230.841,1045.56 C230.841,1041.48 228.081,1038.64 224.081,1038.64 C221.281,1038.64 219.121,1039.84 217.481,1042.4 M222.801,1040.96 C225.281,1040.96 226.641,1042.68 226.641,1045.8 C226.641,1050.88 223.961,1054.76 220.401,1054.76 C217.841,1054.76 216.321,1052.88 216.321,1049.68 C216.321,1044.68 219.081,1040.96 222.801,1040.96"/>
<path class="TieSegment" stroke="#000000" stroke-width="1.74" stroke-linecap="round" stroke-linejoin="round" fill-rule="evenodd" d="M2416.76,1718.69 C2445.07,1738.81 2530,1738.81 2558.31,1718.69 C2530,1745.75 2445.07,1745.75 2416.76,1718.69"/>
<path class="TieSegment" stroke="#000000" stroke-width="1.74" stroke-linecap="round" stroke-linejoin="round" fill-rule="evenodd" d="M1179.31,1669.09 C1207.62,1689.21 1292.55,1689.21 1320.86,1669.09 C1292.55,1696.15 1207.62,1696.15 1179.31,1669.09"/>
<path class="TieSegment" stroke="#000000" stroke-width="1.74" stroke-linecap="round" stroke-linejoin="round" fill-rule="evenodd" d="M1899.55,653.302 C1932.71,615.667 2032.21,615.667 2065.38,653.302 C2032.21,622.611 1932.71,622.611 1899.55,653.302"/>
<path class="TieSegment" stroke="#000000" stroke-width="1.74" stroke-linecap="round" stroke-linejoin="round" fill-rule="evenodd" d="M1373.32,1247.49 C1407.48,1269.51 1509.95,1269.51 1544.11,1247.49 C1509.95,1276.46 1407.48,1276.46 1373.32,1247.49"/>
<polyline class="BarLine" fill="none" stroke="#000000" stroke-width="4.46" stroke-linejoin="bevel" points="1844.54,632.834 1844.54,734.762"/>
<polyline class="BarLine" fill="none" stroke="#000000" stroke-width="4.46" stroke-linejoin="bevel" points="1764.67,1104.03 1764.67,1205.96"/>
<polyline class="BarLine" fill="none" stroke="#000000" stroke-width="4.46" stroke-linejoin="bevel" points="1508.87,1575.23 1508.87,1677.16"/>
<polyline class="BarLine" fill="none" stroke="#000000" stroke-width="4.46" stroke-linejoin="bevel" points="2276.58,632.834 2276.58,734.762"/>
<polyline class="BarLine" fill="none" stroke="#000000" stroke-width="4.46" stroke-linejoin="bevel" points="1127.13,1575.23 1127.13,1677.16"/>
<polyline class="BarLine" fill="none" stroke="#000000" stroke-width="4.46" stroke-linejoin="bevel" points="1358.75,632.834 1358.75,734.762"/>
<polyline class="BarLine" fill="none" stroke="#000000" stroke-width="4.46" stroke-linejoin="bevel" points="751.295,1575.23 751.295,1677.16"/>
<polyline class="BarLine" fill="none" stroke="#000000" stroke-width="4.46" stroke-linejoin="bevel" points="1936.73,1575.23 1936.73,1677.16"/>
<polyline class="BarLine" fill="none" stroke="#000000" stroke-width="4.46" stroke-linejoin="bevel" points="2762.37,632.834 2762.37,734.762"/>
<polyline class="BarLine" fill="none" stroke="#000000" stroke-width="4.46" stroke-linejoin="bevel" points="843.02,632.834 843.02,734.762"/>
<polyline class="BarLine" fill="none" stroke="#000000" stroke-width="4.46" stroke-linejoin="bevel" points="2740.42,1575.23 2740.42,1677.16"/>
<polyline class="BarLine" fill="none" stroke="#000000" stroke-width="13.64" stroke-linejoin="bevel" points="2757.78,1575.23 2757.78,1677.16"/>
<polyline class="BarLine" fill="none" stroke="#000000" stroke-width="4.46" stroke-linejoin="bevel" points="822.289,1104.03 822.289,1205.96"/>
<polyline class="BarLine" fill="none" stroke="#000000" stroke-width="4.46" stroke-linejoin="bevel" points="2762.37,1104.03 2762.37,1205.96"/>
<polyline class="BarLine" fill="none" stroke="#000000" stroke-width="4.46" stroke-linejoin="bevel" points="1321.14,1104.03 1321.14,1205.96"/>
<polyline class="BarLine" fill="none" stroke="#000000" stroke-width="4.46" stroke-linejoin="bevel" points="2263.52,1104.03 2263.52,1205.96"/>
<polyline class="BarLine" fill="none" stroke="#000000" stroke-width="4.46" stroke-linejoin="bevel" points="2364.59,1575.23 2364.59,1677.16"/>
<polyline class="LedgerLine" fill="none" stroke="#000000" stroke-width="3.97" stroke-linejoin="bevel" points="1522.69,1229.4 1572.27,1229.4"/>
<polyline class="LedgerLine" fill="none" stroke="#000000" stroke-width="3.97" stroke-linejoin="bevel" points="383.021,758.198 432.605,758.198"/>
<polyline class="LedgerLine" fill="none" stroke="#000000" stroke-width="3.97" stroke-linejoin="bevel" points="2536.89,1700.6 2586.47,1700.6"/>
<polyline class="LedgerLine" fill="none" stroke="#000000" stroke-width="3.97" stroke-linejoin="bevel" points="1346.93,1229.4 1396.51,1229.4"/>
<polyline class="LedgerLine" fill="none" stroke="#000000" stroke-width="3.97" stroke-linejoin="bevel" points="1123.3,758.198 1172.88,758.198"/>
<polyline class="LedgerLine" fill="none" stroke="#000000" stroke-width="3.97" stroke-linejoin="bevel" points="2390.38,1700.6 2439.96,1700.6"/>
<polyline class="LedgerLine" fill="none" stroke="#000000" stroke-width="3.97" stroke-linejoin="bevel" points="2526.91,758.198 2576.5,758.198"/>
<polyline class="LedgerLine" fill="none" stroke="#000000" stroke-width="3.97" stroke-linejoin="bevel" points="1650.24,1700.6 1699.82,1700.6"/>
<polyline class="LedgerLine" fill="none" stroke="#000000" stroke-width="3.97" stroke-linejoin="bevel" points="2437.1,758.198 2486.68,758.198"/>
<polyline class="LedgerLine" fill="none" stroke="#000000" stroke-width="3.97" stroke-linejoin="bevel" points="2302.37,758.198 2351.95,758.198"/>
<polyline class="Stem" fill="none" stroke="#000000" stroke-width="2.73" stroke-linejoin="bevel" points="1968.65,1163.43 1968.65,1087"/>
<polyline class="Stem" fill="none" stroke="#000000" stroke-width="2.73" stroke-linejoin="bevel" points="1118.69,1200.63 1118.69,1117.8"/>
<polyline class="Stem" fill="none" stroke="#000000" stroke-width="2.73" stroke-linejoin="bevel" points="2061.08,1163.43 2061.08,1086.8"/>
<polyline class="Stem" fill="none" stroke="#000000" stroke-width="2.73" stroke-linejoin="bevel" points="2194.68,1671.83 2194.68,1589"/>
<polyline class="Stem" fill="none" stroke="#000000" stroke-width="2.73" stroke-linejoin="bevel" points="2117.64,1647.03 2117.64,1564.4"/>
<polyline class="Stem" fill="none" stroke="#000000" stroke-width="2.73" stroke-linejoin="bevel" points="2051.17,675.565 2051.17,751.998"/>
<polyline class="Stem" fill="none" stroke="#000000" stroke-width="2.73" stroke-linejoin="bevel" points="1830,1163.43 1830,1086.8"/>
<polyline class="Stem" fill="none" stroke="#000000" stroke-width="2.73" stroke-linejoin="bevel" points="2002.06,1647.03 2002.06,1564.2"/>
<polyline class="Stem" fill="none" stroke="#000000" stroke-width="2.73" stroke-linejoin="bevel" points="422.561,754.23 422.561,671.398"/>
<polyline class="Stem" fill="none" stroke="#000000" stroke-width="2.73" stroke-linejoin="bevel" points="2310.26,1684.23 2310.26,1601.6"/>
<polyline class="Stem" fill="none" stroke="#000000" stroke-width="2.73" stroke-linejoin="bevel" points="1882.4,1634.63 1882.4,1558.2"/>
<polyline class="Stem" fill="none" stroke="#000000" stroke-width="2.73" stroke-linejoin="bevel" points="1424.08,704.63 1424.08,621.798"/>
<polyline class="Stem" fill="none" stroke="#000000" stroke-width="2.73" stroke-linejoin="bevel" points="2341.91,754.23 2341.91,671.398"/>
<polyline class="Stem" fill="none" stroke="#000000" stroke-width="2.73" stroke-linejoin="bevel" points="1043.08,729.43 1043.08,646.698"/>
<polyline class="Stem" fill="none" stroke="#000000" stroke-width="2.73" stroke-linejoin="bevel" points="2170.22,1159.16 2170.22,1235.5"/>
<polyline class="Stem" fill="none" stroke="#000000" stroke-width="2.73" stroke-linejoin="bevel" points="1766.83,1684.23 1766.83,1601.4"/>
<polyline class="Stem" fill="none" stroke="#000000" stroke-width="2.73" stroke-linejoin="bevel" points="1102.96,741.83 1102.96,659.098"/>
<polyline class="Stem" fill="none" stroke="#000000" stroke-width="2.73" stroke-linejoin="bevel" points="2476.64,754.23 2476.64,671.597"/>
<polyline class="Stem" fill="none" stroke="#000000" stroke-width="2.73" stroke-linejoin="bevel" points="2429.92,1696.63 2429.92,1613.8"/>
<polyline class="Stem" fill="none" stroke="#000000" stroke-width="2.73" stroke-linejoin="bevel" points="1753.86,687.965 1753.86,764.299"/>
<polyline class="Stem" fill="none" stroke="#000000" stroke-width="2.73" stroke-linejoin="bevel" points="2566.45,754.23 2566.45,671.398"/>
<polyline class="Stem" fill="none" stroke="#000000" stroke-width="2.73" stroke-linejoin="bevel" points="1562.23,1225.43 1562.23,1142.6"/>
<polyline class="Stem" fill="none" stroke="#000000" stroke-width="2.73" stroke-linejoin="bevel" points="1689.78,1696.63 1689.78,1614"/>
<polyline class="Stem" fill="none" stroke="#000000" stroke-width="2.73" stroke-linejoin="bevel" points="2299.36,1146.76 2299.36,1223.2"/>
<polyline class="Stem" fill="none" stroke="#000000" stroke-width="2.73" stroke-linejoin="bevel" points="1558.81,704.63 1558.81,621.997"/>
<polyline class="Stem" fill="none" stroke="#000000" stroke-width="2.73" stroke-linejoin="bevel" points="2701.18,741.83 2701.18,659.197"/>
<polyline class="Stem" fill="none" stroke="#000000" stroke-width="2.73" stroke-linejoin="bevel" points="1574.21,1684.23 1574.21,1601.4"/>
<polyline class="Stem" fill="none" stroke="#000000" stroke-width="2.73" stroke-linejoin="bevel" points="1454.55,1671.83 1454.55,1589.2"/>
<polyline class="Stem" fill="none" stroke="#000000" stroke-width="2.73" stroke-linejoin="bevel" points="1297.56,692.23 1297.56,615.797"/>
<polyline class="Stem" fill="none" stroke="#000000" stroke-width="2.73" stroke-linejoin="bevel" points="1648.63,692.23 1648.63,615.598"/>
<polyline class="Stem" fill="none" stroke="#000000" stroke-width="2.73" stroke-linejoin="bevel" points="1386.47,1225.43 1386.47,1142.6"/>
<polyline class="Stem" fill="none" stroke="#000000" stroke-width="2.73" stroke-linejoin="bevel" points="1338.97,1647.03 1338.97,1564.2"/>
<polyline class="Stem" fill="none" stroke="#000000" stroke-width="2.73" stroke-linejoin="bevel" points="1192.46,1647.03 1192.46,1564.2"/>
<polyline class="Stem" fill="none" stroke="#000000" stroke-width="2.73" stroke-linejoin="bevel" points="388.771,1200.63 388.771,1117.8"/>
<polyline class="Stem" fill="none" stroke="#000000" stroke-width="2.73" stroke-linejoin="bevel" points="1009.25,1634.63 1009.25,1558"/>
<polyline class="Stem" fill="none" stroke="#000000" stroke-width="2.73" stroke-linejoin="bevel" points="816.627,1647.03 816.627,1564.2"/>
<polyline class="Stem" fill="none" stroke="#000000" stroke-width="2.73" stroke-linejoin="bevel" points="2438,1146.76 2438,1223.1"/>
<polyline class="Stem" fill="none" stroke="#000000" stroke-width="2.73" stroke-linejoin="bevel" points="527.415,1200.63 527.415,1118"/>
<polyline class="Stem" fill="none" stroke="#000000" stroke-width="2.73" stroke-linejoin="bevel" points="647.105,729.43 647.105,646.598"/>
<polyline class="Stem" fill="none" stroke="#000000" stroke-width="2.73" stroke-linejoin="bevel" points="619.844,1200.63 619.844,1117.8"/>
<polyline class="Stem" fill="none" stroke="#000000" stroke-width="2.73" stroke-linejoin="bevel" points="696.967,1634.63 696.967,1558.2"/>
<polyline class="Stem" fill="none" stroke="#000000" stroke-width="2.73" stroke-linejoin="bevel" points="1162.84,754.23 1162.84,671.398"/>
<polyline class="Stem" fill="none" stroke="#000000" stroke-width="2.73" stroke-linejoin="bevel" points="2530.43,1146.76 2530.43,1223.2"/>
<polyline class="Stem" fill="none" stroke="#000000" stroke-width="2.73" stroke-linejoin="bevel" points="758.488,1188.23 758.488,1105.6"/>
<polyline class="Stem" fill="none" stroke="#000000" stroke-width="2.73" stroke-linejoin="bevel" points="551.897,1630.36 551.897,1700.6"/>
<polyline class="Stem" fill="none" stroke="#000000" stroke-width="2.73" stroke-linejoin="bevel" points="474.848,1617.96 474.848,1694.3"/>
<polyline class="Stem" fill="none" stroke="#000000" stroke-width="2.73" stroke-linejoin="bevel" points="2576.43,1696.63 2576.43,1613.8"/>
<polyline class="Stem" fill="none" stroke="#000000" stroke-width="2.73" stroke-linejoin="bevel" points="887.621,1175.83 887.621,1093"/>
<polyline class="Stem" fill="none" stroke="#000000" stroke-width="2.73" stroke-linejoin="bevel" points="1257.34,1213.03 1257.34,1130.4"/>
<polyline class="Stem" fill="none" stroke="#000000" stroke-width="2.73" stroke-linejoin="bevel" points="359.275,1605.56 359.275,1688.2"/>
<polyline class="Stem" fill="none" stroke="#000000" stroke-width="2.73" stroke-linejoin="bevel" points="2669.07,1146.76 2669.07,1223.1"/>
<polyline class="Stem" fill="none" stroke="#000000" stroke-width="2.73" stroke-linejoin="bevel" points="1026.26,1188.23 1026.26,1105.6"/>
<polyline class="Stem" fill="none" stroke="#000000" stroke-width="2.73" stroke-linejoin="bevel" points="908.353,704.63 908.353,621.798"/>
<polyline class="Stem" fill="none" stroke="#000000" stroke-width="2.73" stroke-linejoin="bevel" points="1880.38,675.565 1880.38,751.998"/>
<path class="Hook" transform="matrix(0.992,0,0,0.992,1024.9,1105.4)" d="M0,22.7 C0,23 0.1,23.6 0.8,23.8 C5.1,25.2 13.7,30.6 20.2,41.7 C22,44.8 24.9,49.1 24.9,57.4 C24.9,64.6 23.1,72 20.4,79.2 C20.2,79.8 20.1,80.3 20.1,80.7 C20.1,81.4 20.5,81.7 21.2,81.7 C21.8,81.7 22.3,81.3 22.7,80.6 C27.2,72.6 28.9,63.3 28.9,54.2 C28.4,41.3 21,31.8 21,31.8 C21.3,31.8 11.8,19.5 9.1,15.3 C5.4,9.6 3.7,3.9 3.5,3.5 C3.4,3.2 2.5,-0.4 2.5,-0.4 C2.4,-0.8 1.9,-1.2 1.3,-1.2 C0.6,-1.2 0,-0.6 0,0.1 L0,22.7 "/>
<path class="Hook" transform="matrix(0.992,0,0,0.992,2667.71,1223.2)" d="M0,-0.1 C0,0.6 0.6,1.2 1.3,1.2 C1.8,1.2 2.4,0.8 2.5,0.4 C2.5,0.3 3.4,-3.2 3.5,-3.5 C3.6,-3.9 4.5,-7.7 8.1,-13.6 C12,-20.1 18,-24.8 23,-31.8 C28,-38.8 30.9,-45.4 30.9,-54.2 C30.9,-63.3 28.9,-70.9 23.5,-80.6 C23.2,-81.3 22.6,-81.7 22,-81.7 C21.8,-81.7 21.6,-81.7 21.5,-81.6 C21,-81.4 20.8,-81 20.8,-80.4 C20.8,-80.1 20.9,-79.7 21.1,-79.2 C25.1,-69.9 26.7,-64.6 26.7,-57.4 C26.7,-49.1 23.8,-44.8 22,-41.7 C15.5,-30.6 5,-25.2 0.8,-23.8 C0.1,-23.6 0,-23 0,-22.7 L0,-0.1 "/>
<path class="Hook" transform="matrix(0.992,0,0,0.992,1255.97,1130.2)" d="M0,22.7 C0,23 0.1,23.6 0.8,23.8 C5.1,25.2 13.7,30.6 20.2,41.7 C22,44.8 24.9,49.1 24.9,57.4 C24.9,64.6 23.1,72 20.4,79.2 C20.2,79.8 20.1,80.3 20.1,80.7 C20.1,81.4 20.5,81.7 21.2,81.7 C21.8,81.7 22.3,81.3 22.7,80.6 C27.2,72.6 28.9,63.3 28.9,54.2 C28.4,41.3 21,31.8 21,31.8 C21.3,31.8 11.8,19.5 9.1,15.3 C5.4,9.6 3.7,3.9 3.5,3.5 C3.4,3.2 2.5,-0.4 2.5,-0.4 C2.4,-0.8 1.9,-1.2 1.3,-1.2 C0.6,-1.2 0,-0.6 0,0.1 L0,22.7 "/>
<path class="Hook" transform="matrix(0.992,0,0,0.992,473.484,1694.4)" d="M0,-0.1 C0,0.6 0.6,1.2 1.3,1.2 C1.8,1.2 2.4,0.8 2.5,0.4 C2.5,0.3 3.4,-3.2 3.5,-3.5 C3.6,-3.9 4.5,-7.7 8.1,-13.6 C12,-20.1 18,-24.8 23,-31.8 C28,-38.8 30.9,-45.4 30.9,-54.2 C30.9,-63.3 28.9,-70.9 23.5,-80.6 C23.2,-81.3 22.6,-81.7 22,-81.7 C21.8,-81.7 21.6,-81.7 21.5,-81.6 C21,-81.4 20.8,-81 20.8,-80.4 C20.8,-80.1 20.9,-79.7 21.1,-79.2 C25.1,-69.9 26.7,-64.6 26.7,-57.4 C26.7,-49.1 23.8,-44.8 22,-41.7 C15.5,-30.6 5,-25.2 0.8,-23.8 C0.1,-23.6 0,-23 0,-22.7 L0,-0.1 "/>
<path class="Hook" transform="matrix(0.992,0,0,0.992,757.124,1105.4)" d="M0,22.7 C0,23 0.1,23.6 0.8,23.8 C5.1,25.2 13.7,30.6 20.2,41.7 C22,44.8 24.9,49.1 24.9,57.4 C24.9,64.6 23.1,72 20.4,79.2 C20.2,79.8 20.1,80.3 20.1,80.7 C20.1,81.4 20.5,81.7 21.2,81.7 C21.8,81.7 22.3,81.3 22.7,80.6 C27.2,72.6 28.9,63.3 28.9,54.2 C28.4,41.3 21,31.8 21,31.8 C21.3,31.8 11.8,19.5 9.1,15.3 C5.4,9.6 3.7,3.9 3.5,3.5 C3.4,3.2 2.5,-0.4 2.5,-0.4 C2.4,-0.8 1.9,-1.2 1.3,-1.2 C0.6,-1.2 0,-0.6 0,0.1 L0,22.7 "/>
<path class="Hook" transform="matrix(0.992,0,0,0.992,695.603,1558)" d="M0,22.7 C0,23 0.1,23.6 0.8,23.8 C5.1,25.2 13.7,30.6 20.2,41.7 C22,44.8 24.9,49.1 24.9,57.4 C24.9,64.6 23.1,72 20.4,79.2 C20.2,79.8 20.1,80.3 20.1,80.7 C20.1,81.4 20.5,81.7 21.2,81.7 C21.8,81.7 22.3,81.3 22.7,80.6 C27.2,72.6 28.9,63.3 28.9,54.2 C28.4,41.3 21,31.8 21,31.8 C21.3,31.8 11.8,19.5 9.1,15.3 C5.4,9.6 3.7,3.9 3.5,3.5 C3.4,3.2 2.5,-0.4 2.5,-0.4 C2.4,-0.8 1.9,-1.2 1.3,-1.2 C0.6,-1.2 0,-0.6 0,0.1 L0,22.7 "/>
<path class="Hook" transform="matrix(0.992,0,0,0.992,526.051,1117.8)" d="M0,22.7 C0,23 0.1,23.6 0.8,23.8 C5.1,25.2 13.7,30.6 20.2,41.7 C22,44.8 24.9,49.1 24.9,57.4 C24.9,64.6 23.1,72 20.4,79.2 C20.2,79.8 20.1,80.3 20.1,80.7 C20.1,81.4 20.5,81.7 21.2,81.7 C21.8,81.7 22.3,81.3 22.7,80.6 C27.2,72.6 28.9,63.3 28.9,54.2 C28.4,41.3 21,31.8 21,31.8 C21.3,31.8 11.8,19.5 9.1,15.3 C5.4,9.6 3.7,3.9 3.5,3.5 C3.4,3.2 2.5,-0.4 2.5,-0.4 C2.4,-0.8 1.9,-1.2 1.3,-1.2 C0.6,-1.2 0,-0.6 0,0.1 L0,22.7 "/>
<path class="Hook" transform="matrix(0.992,0,0,0.992,1453.18,1589)" d="M0,22.7 C0,23 0.1,23.6 0.8,23.8 C5.1,25.2 13.7,30.6 20.2,41.7 C22,44.8 24.9,49.1 24.9,57.4 C24.9,64.6 23.1,72 20.4,79.2 C20.2,79.8 20.1,80.3 20.1,80.7 C20.1,81.4 20.5,81.7 21.2,81.7 C21.8,81.7 22.3,81.3 22.7,80.6 C27.2,72.6 28.9,63.3 28.9,54.2 C28.4,41.3 21,31.8 21,31.8 C21.3,31.8 11.8,19.5 9.1,15.3 C5.4,9.6 3.7,3.9 3.5,3.5 C3.4,3.2 2.5,-0.4 2.5,-0.4 C2.4,-0.8 1.9,-1.2 1.3,-1.2 C0.6,-1.2 0,-0.6 0,0.1 L0,22.7 "/>
<path class="Hook" transform="matrix(0.992,0,0,0.992,1296.2,615.598)" d="M0,22.7 C0,23 0.1,23.6 0.8,23.8 C5.1,25.2 13.7,30.6 20.2,41.7 C22,44.8 24.9,49.1 24.9,57.4 C24.9,64.6 23.1,72 20.4,79.2 C20.2,79.8 20.1,80.3 20.1,80.7 C20.1,81.4 20.5,81.7 21.2,81.7 C21.8,81.7 22.3,81.3 22.7,80.6 C27.2,72.6 28.9,63.3 28.9,54.2 C28.4,41.3 21,31.8 21,31.8 C21.3,31.8 11.8,19.5 9.1,15.3 C5.4,9.6 3.7,3.9 3.5,3.5 C3.4,3.2 2.5,-0.4 2.5,-0.4 C2.4,-0.8 1.9,-1.2 1.3,-1.2 C0.6,-1.2 0,-0.6 0,0.1 L0,22.7 "/>
<path class="Hook" transform="matrix(0.992,0,0,0.992,2436.64,1223.2)" d="M0,-0.1 C0,0.6 0.6,1.2 1.3,1.2 C1.8,1.2 2.4,0.8 2.5,0.4 C2.5,0.3 3.4,-3.2 3.5,-3.5 C3.6,-3.9 4.5,-7.7 8.1,-13.6 C12,-20.1 18,-24.8 23,-31.8 C28,-38.8 30.9,-45.4 30.9,-54.2 C30.9,-63.3 28.9,-70.9 23.5,-80.6 C23.2,-81.3 22.6,-81.7 22,-81.7 C21.8,-81.7 21.6,-81.7 21.5,-81.6 C21,-81.4 20.8,-81 20.8,-80.4 C20.8,-80.1 20.9,-79.7 21.1,-79.2 C25.1,-69.9 26.7,-64.6 26.7,-57.4 C26.7,-49.1 23.8,-44.8 22,-41.7 C15.5,-30.6 5,-25.2 0.8,-23.8 C0.1,-23.6 0,-23 0,-22.7 L0,-0.1 "/>
<path class="Hook" transform="matrix(0.992,0,0,0.992,2699.82,658.998)" d="M0,22.7 C0,23 0.1,23.6 0.8,23.8 C5.1,25.2 13.7,30.6 20.2,41.7 C22,44.8 24.9,49.1 24.9,57.4 C24.9,64.6 23.1,72 20.4,79.2 C20.2,79.8 20.1,80.3 20.1,80.7 C20.1,81.4 20.5,81.7 21.2,81.7 C21.8,81.7 22.3,81.3 22.7,80.6 C27.2,72.6 28.9,63.3 28.9,54.2 C28.4,41.3 21,31.8 21,31.8 C21.3,31.8 11.8,19.5 9.1,15.3 C5.4,9.6 3.7,3.9 3.5,3.5 C3.4,3.2 2.5,-0.4 2.5,-0.4 C2.4,-0.8 1.9,-1.2 1.3,-1.2 C0.6,-1.2 0,-0.6 0,0.1 L0,22.7 "/>
<path class="Hook" transform="matrix(0.992,0,0,0.992,1688.42,1613.8)" d="M0,22.7 C0,23 0.1,23.6 0.8,23.8 C5.1,25.2 13.7,30.6 20.2,41.7 C22,44.8 24.9,49.1 24.9,57.4 C24.9,64.6 23.1,72 20.4,79.2 C20.2,79.8 20.1,80.3 20.1,80.7 C20.1,81.4 20.5,81.7 21.2,81.7 C21.8,81.7 22.3,81.3 22.7,80.6 C27.2,72.6 28.9,63.3 28.9,54.2 C28.4,41.3 21,31.8 21,31.8 C21.3,31.8 11.8,19.5 9.1,15.3 C5.4,9.6 3.7,3.9 3.5,3.5 C3.4,3.2 2.5,-0.4 2.5,-0.4 C2.4,-0.8 1.9,-1.2 1.3,-1.2 C0.6,-1.2 0,-0.6 0,0.1 L0,22.7 "/>
<path class="Hook" transform="matrix(0.992,0,0,0.992,1752.49,764.398)" d="M0,-0.1 C0,0.6 0.6,1.2 1.3,1.2 C1.8,1.2 2.4,0.8 2.5,0.4 C2.5,0.3 3.4,-3.2 3.5,-3.5 C3.6,-3.9 4.5,-7.7 8.1,-13.6 C12,-20.1 18,-24.8 23,-31.8 C28,-38.8 30.9,-45.4 30.9,-54.2 C30.9,-63.3 28.9,-70.9 23.5,-80.6 C23.2,-81.3 22.6,-81.7 22,-81.7 C21.8,-81.7 21.6,-81.7 21.5,-81.6 C21,-81.4 20.8,-81 20.8,-80.4 C20.8,-80.1 20.9,-79.7 21.1,-79.2 C25.1,-69.9 26.7,-64.6 26.7,-57.4 C26.7,-49.1 23.8,-44.8 22,-41.7 C15.5,-30.6 5,-25.2 0.8,-23.8 C0.1,-23.6 0,-23 0,-22.7 L0,-0.1 "/>
<path class="Hook" transform="matrix(0.992,0,0,0.992,2475.27,671.398)" d="M0,22.7 C0,23 0.1,23.6 0.8,23.8 C5.1,25.2 13.7,30.6 20.2,41.7 C22,44.8 24.9,49.1 24.9,57.4 C24.9,64.6 23.1,72 20.4,79.2 C20.2,79.8 20.1,80.3 20.1,80.7 C20.1,81.4 20.5,81.7 21.2,81.7 C21.8,81.7 22.3,81.3 22.7,80.6 C27.2,72.6 28.9,63.3 28.9,54.2 C28.4,41.3 21,31.8 21,31.8 C21.3,31.8 11.8,19.5 9.1,15.3 C5.4,9.6 3.7,3.9 3.5,3.5 C3.4,3.2 2.5,-0.4 2.5,-0.4 C2.4,-0.8 1.9,-1.2 1.3,-1.2 C0.6,-1.2 0,-0.6 0,0.1 L0,22.7 "/>
<path class="Hook" transform="matrix(0.992,0,0,0.992,1101.59,658.998)" d="M0,38.1 C0,38.4 0.8,38.8 1.5,39.1 C4.1,40 11.9,45 17.9,53.9 C21.3,59 22.1,62.6 22.1,66 C22.1,66.6 22.1,67.1 22,67.7 C22,70.1 21.3,75.2 19.8,79.2 C19.7,79.7 19.4,80.3 19.4,80.8 C19.4,81.2 19.6,81.6 20.1,81.9 C20.3,82 20.5,82 20.6,82 C21.3,82 21.7,81.2 22.1,80.6 C23.9,77.8 26.5,72.4 26.5,66.8 C26.5,63.9 26.3,61.5 26,59.4 C27.1,55.7 27.9,52 27.9,47.1 C27.9,41.9 26.5,37.2 23.1,32.7 C18.4,26.5 13.3,21.4 9.5,15.8 C5.7,10.3 2.9,0 2.9,0 C2.7,-0.7 2.6,-1.2 1.5,-1.2 C0.3,-1.2 0,-0.7 0,0 L0,38.1 M20.9,47.3 C18.2,43.8 15.2,40.6 10.3,35.7 C6.4,31.8 4.6,28.4 4,25.8 C3.8,25.3 3.7,24.6 3.6,23.8 C8.7,23.9 15.2,30.7 18.8,35.4 C22.7,40.5 23.6,44.6 23.6,48.3 C23.6,49.3 23.5,50.3 23.4,51.3 C22.6,49.7 21.7,48.4 20.9,47.3"/>
<path class="Hook" transform="matrix(0.992,0,0,0.992,1041.71,646.598)" d="M0,38.1 C0,38.4 0.8,38.8 1.5,39.1 C4.1,40 11.9,45 17.9,53.9 C21.3,59 22.1,62.6 22.1,66 C22.1,66.6 22.1,67.1 22,67.7 C22,70.1 21.3,75.2 19.8,79.2 C19.7,79.7 19.4,80.3 19.4,80.8 C19.4,81.2 19.6,81.6 20.1,81.9 C20.3,82 20.5,82 20.6,82 C21.3,82 21.7,81.2 22.1,80.6 C23.9,77.8 26.5,72.4 26.5,66.8 C26.5,63.9 26.3,61.5 26,59.4 C27.1,55.7 27.9,52 27.9,47.1 C27.9,41.9 26.5,37.2 23.1,32.7 C18.4,26.5 13.3,21.4 9.5,15.8 C5.7,10.3 2.9,0 2.9,0 C2.7,-0.7 2.6,-1.2 1.5,-1.2 C0.3,-1.2 0,-0.7 0,0 L0,38.1 M20.9,47.3 C18.2,43.8 15.2,40.6 10.3,35.7 C6.4,31.8 4.6,28.4 4,25.8 C3.8,25.3 3.7,24.6 3.6,23.8 C8.7,23.9 15.2,30.7 18.8,35.4 C22.7,40.5 23.6,44.6 23.6,48.3 C23.6,49.3 23.5,50.3 23.4,51.3 C22.6,49.7 21.7,48.4 20.9,47.3"/>
<path class="Hook" transform="matrix(0.992,0,0,0.992,1881.04,1558)" d="M0,22.7 C0,23 0.1,23.6 0.8,23.8 C5.1,25.2 13.7,30.6 20.2,41.7 C22,44.8 24.9,49.1 24.9,57.4 C24.9,64.6 23.1,72 20.4,79.2 C20.2,79.8 20.1,80.3 20.1,80.7 C20.1,81.4 20.5,81.7 21.2,81.7 C21.8,81.7 22.3,81.3 22.7,80.6 C27.2,72.6 28.9,63.3 28.9,54.2 C28.4,41.3 21,31.8 21,31.8 C21.3,31.8 11.8,19.5 9.1,15.3 C5.4,9.6 3.7,3.9 3.5,3.5 C3.4,3.2 2.5,-0.4 2.5,-0.4 C2.4,-0.8 1.9,-1.2 1.3,-1.2 C0.6,-1.2 0,-0.6 0,0.1 L0,22.7 "/>
<path class="Hook" transform="matrix(0.992,0,0,0.992,2168.86,1235.6)" d="M0,-0.1 C0,0.6 0.6,1.2 1.3,1.2 C1.8,1.2 2.4,0.8 2.5,0.4 C2.5,0.3 3.4,-3.2 3.5,-3.5 C3.6,-3.9 4.5,-7.7 8.1,-13.6 C12,-20.1 18,-24.8 23,-31.8 C28,-38.8 30.9,-45.4 30.9,-54.2 C30.9,-63.3 28.9,-70.9 23.5,-80.6 C23.2,-81.3 22.6,-81.7 22,-81.7 C21.8,-81.7 21.6,-81.7 21.5,-81.6 C21,-81.4 20.8,-81 20.8,-80.4 C20.8,-80.1 20.9,-79.7 21.1,-79.2 C25.1,-69.9 26.7,-64.6 26.7,-57.4 C26.7,-49.1 23.8,-44.8 22,-41.7 C15.5,-30.6 5,-25.2 0.8,-23.8 C0.1,-23.6 0,-23 0,-22.7 L0,-0.1 "/>
<path class="Hook" transform="matrix(0.992,0,0,0.992,1557.45,621.798)" d="M0,22.7 C0,23 0.1,23.6 0.8,23.8 C5.1,25.2 13.7,30.6 20.2,41.7 C22,44.8 24.9,49.1 24.9,57.4 C24.9,64.6 23.1,72 20.4,79.2 C20.2,79.8 20.1,80.3 20.1,80.7 C20.1,81.4 20.5,81.7 21.2,81.7 C21.8,81.7 22.3,81.3 22.7,80.6 C27.2,72.6 28.9,63.3 28.9,54.2 C28.4,41.3 21,31.8 21,31.8 C21.3,31.8 11.8,19.5 9.1,15.3 C5.4,9.6 3.7,3.9 3.5,3.5 C3.4,3.2 2.5,-0.4 2.5,-0.4 C2.4,-0.8 1.9,-1.2 1.3,-1.2 C0.6,-1.2 0,-0.6 0,0.1 L0,22.7 "/>
<path class="Hook" transform="matrix(0.992,0,0,0.992,2116.27,1564.2)" d="M0,22.7 C0,23 0.1,23.6 0.8,23.8 C5.1,25.2 13.7,30.6 20.2,41.7 C22,44.8 24.9,49.1 24.9,57.4 C24.9,64.6 23.1,72 20.4,79.2 C20.2,79.8 20.1,80.3 20.1,80.7 C20.1,81.4 20.5,81.7 21.2,81.7 C21.8,81.7 22.3,81.3 22.7,80.6 C27.2,72.6 28.9,63.3 28.9,54.2 C28.4,41.3 21,31.8 21,31.8 C21.3,31.8 11.8,19.5 9.1,15.3 C5.4,9.6 3.7,3.9 3.5,3.5 C3.4,3.2 2.5,-0.4 2.5,-0.4 C2.4,-0.8 1.9,-1.2 1.3,-1.2 C0.6,-1.2 0,-0.6 0,0.1 L0,22.7 "/>
<path class="Hook" transform="matrix(0.992,0,0,0.992,2308.89,1601.4)" d="M0,22.7 C0,23 0.1,23.6 0.8,23.8 C5.1,25.2 13.7,30.6 20.2,41.7 C22,44.8 24.9,49.1 24.9,57.4 C24.9,64.6 23.1,72 20.4,79.2 C20.2,79.8 20.1,80.3 20.1,80.7 C20.1,81.4 20.5,81.7 21.2,81.7 C21.8,81.7 22.3,81.3 22.7,80.6 C27.2,72.6 28.9,63.3 28.9,54.2 C28.4,41.3 21,31.8 21,31.8 C21.3,31.8 11.8,19.5 9.1,15.3 C5.4,9.6 3.7,3.9 3.5,3.5 C3.4,3.2 2.5,-0.4 2.5,-0.4 C2.4,-0.8 1.9,-1.2 1.3,-1.2 C0.6,-1.2 0,-0.6 0,0.1 L0,22.7 "/>
<path class="Hook" transform="matrix(0.992,0,0,0.992,1967.28,1086.8)" d="M0,22.7 C0,23 0.1,23.6 0.8,23.8 C5.1,25.2 13.7,30.6 20.2,41.7 C22,44.8 24.9,49.1 24.9,57.4 C24.9,64.6 23.1,72 20.4,79.2 C20.2,79.8 20.1,80.3 20.1,80.7 C20.1,81.4 20.5,81.7 21.2,81.7 C21.8,81.7 22.3,81.3 22.7,80.6 C27.2,72.6 28.9,63.3 28.9,54.2 C28.4,41.3 21,31.8 21,31.8 C21.3,31.8 11.8,19.5 9.1,15.3 C5.4,9.6 3.7,3.9 3.5,3.5 C3.4,3.2 2.5,-0.4 2.5,-0.4 C2.4,-0.8 1.9,-1.2 1.3,-1.2 C0.6,-1.2 0,-0.6 0,0.1 L0,22.7 "/>
<path class="Note" transform="matrix(0.992,0,0,0.992,2297.99,1142.6)" d="M0,4.2 C0,8.5 3.1,13.3 11.2,13.3 C21.6,13.3 32.5,4.8 32.5,-4 C32.5,-9.9 27.5,-13.2 21.3,-13.2 C11.6,-13.2 0,-5 0,4.2"/>
<path class="Note" transform="matrix(0.992,0,0,0.992,1851.54,1638.6)" d="M0,4.2 C0,8.5 3.1,13.3 11.2,13.3 C21.6,13.3 32.5,4.8 32.5,-4 C32.5,-9.9 27.5,-13.2 21.3,-13.2 C11.6,-13.2 0,-5 0,4.2"/>
<path class="Note" transform="matrix(0.992,0,0,0.992,1937.79,1167.4)" d="M0,4.2 C0,8.5 3.1,13.3 11.2,13.3 C21.6,13.3 32.5,4.8 32.5,-4 C32.5,-9.9 27.5,-13.2 21.3,-13.2 C11.6,-13.2 0,-5 0,4.2"/>
<path class="Note" transform="matrix(0.992,0,0,0.992,1799.14,1167.4)" d="M0,4.2 C0,8.5 3.1,13.3 11.2,13.3 C21.6,13.3 32.5,4.8 32.5,-4 C32.5,-9.9 27.5,-13.2 21.3,-13.2 C11.6,-13.2 0,-5 0,4.2"/>
<path class="Note" transform="matrix(0.992,0,0,0.992,2030.21,1167.4)" d="M0,4.2 C0,8.5 3.1,13.3 11.2,13.3 C21.6,13.3 32.5,4.8 32.5,-4 C32.5,-9.9 27.5,-13.2 21.3,-13.2 C11.6,-13.2 0,-5 0,4.2"/>
<path class="Note" transform="matrix(0.992,0,0,0.992,1543.35,1688.2)" d="M0,4.2 C0,8.5 3.1,13.3 11.2,13.3 C21.6,13.3 32.5,4.8 32.5,-4 C32.5,-9.9 27.5,-13.2 21.3,-13.2 C11.6,-13.2 0,-5 0,4.2"/>
<path class="Note" transform="matrix(0.992,0,0,0.992,1012.22,733.398)" d="M0,4.2 C0,8.5 3.1,13.3 11.2,13.3 C21.6,13.3 32.5,4.8 32.5,-4 C32.5,-9.9 27.5,-13.2 21.3,-13.2 C11.6,-13.2 0,-5 0,4.2"/>
<path class="Note" transform="matrix(0.992,0,0,0.992,2670.32,745.798)" d="M0,4.2 C0,8.5 3.1,13.3 11.2,13.3 C21.6,13.3 32.5,4.8 32.5,-4 C32.5,-9.9 27.5,-13.2 21.3,-13.2 C11.6,-13.2 0,-5 0,4.2"/>
<path class="Note" transform="matrix(0.992,0,0,0.992,2168.86,1155)" d="M0,4.2 C0,8.5 3.1,13.3 11.2,13.3 C21.6,13.3 32.5,4.8 32.5,-4 C32.5,-9.9 27.5,-13.2 21.3,-13.2 C11.6,-13.2 0,-5 0,4.2"/>
<path class="Note" transform="matrix(0.992,0,0,0.992,1531.37,1229.4)" d="M0,4.2 C0,8.5 3.1,13.3 11.2,13.3 C21.6,13.3 32.5,4.8 32.5,-4 C32.5,-9.9 27.5,-13.2 21.3,-13.2 C11.6,-13.2 0,-5 0,4.2"/>
<path class="Note" transform="matrix(0.992,0,0,0.992,391.701,758.198)" d="M0,4.2 C0,8.5 3.1,13.3 11.2,13.3 C21.6,13.3 32.5,4.8 32.5,-4 C32.5,-9.9 27.5,-13.2 21.3,-13.2 C11.6,-13.2 0,-5 0,4.2"/>
<path class="Note" transform="matrix(0.992,0,0,0.992,2545.57,1700.6)" d="M0,4.2 C0,8.5 3.1,13.3 11.2,13.3 C21.6,13.3 32.5,4.8 32.5,-4 C32.5,-9.9 27.5,-13.2 21.3,-13.2 C11.6,-13.2 0,-5 0,4.2"/>
<path class="Note" transform="matrix(0.992,0,0,0.992,1527.95,708.598)" d="M0,4.2 C0,8.5 3.1,13.3 11.2,13.3 C21.6,13.3 32.5,4.8 32.5,-4 C32.5,-9.9 27.5,-13.2 21.3,-13.2 C11.6,-13.2 0,-5 0,4.2"/>
<path class="Note" transform="matrix(0.992,0,0,0.992,1617.77,696.198)" d="M0,4.2 C0,8.5 3.1,13.3 11.2,13.3 C21.6,13.3 32.5,4.8 32.5,-4 C32.5,-9.9 27.5,-13.2 21.3,-13.2 C11.6,-13.2 0,-5 0,4.2"/>
<path class="Note" transform="matrix(0.992,0,0,0.992,2399.06,1700.6)" d="M0,4.2 C0,8.5 3.1,13.3 11.2,13.3 C21.6,13.3 32.5,4.8 32.5,-4 C32.5,-9.9 27.5,-13.2 21.3,-13.2 C11.6,-13.2 0,-5 0,4.2"/>
<path class="Note" transform="matrix(0.992,0,0,0.992,1355.61,1229.4)" d="M0,4.2 C0,8.5 3.1,13.3 11.2,13.3 C21.6,13.3 32.5,4.8 32.5,-4 C32.5,-9.9 27.5,-13.2 21.3,-13.2 C11.6,-13.2 0,-5 0,4.2"/>
<path class="Note" transform="matrix(0.992,0,0,0.992,1072.1,745.798)" d="M0,4.2 C0,8.5 3.1,13.3 11.2,13.3 C21.6,13.3 32.5,4.8 32.5,-4 C32.5,-9.9 27.5,-13.2 21.3,-13.2 C11.6,-13.2 0,-5 0,4.2"/>
<path class="Note" transform="matrix(0.992,0,0,0.992,2436.64,1142.6)" d="M0,4.2 C0,8.5 3.1,13.3 11.2,13.3 C21.6,13.3 32.5,4.8 32.5,-4 C32.5,-9.9 27.5,-13.2 21.3,-13.2 C11.6,-13.2 0,-5 0,4.2"/>
<path class="Note" transform="matrix(0.992,0,0,0.992,1226.48,1217)" d="M0,4.2 C0,8.5 3.1,13.3 11.2,13.3 C21.6,13.3 32.5,4.8 32.5,-4 C32.5,-9.9 27.5,-13.2 21.3,-13.2 C11.6,-13.2 0,-5 0,4.2"/>
<path class="Note" transform="matrix(0.992,0,0,0.992,2529.06,1142.6)" d="M0,4.2 C0,8.5 3.1,13.3 11.2,13.3 C21.6,13.3 32.5,4.8 32.5,-4 C32.5,-9.9 27.5,-13.2 21.3,-13.2 C11.6,-13.2 0,-5 0,4.2"/>
<path class="Note" transform="matrix(0.992,0,0,0.992,1752.49,683.798)" d="M0,4.2 C0,8.5 3.1,13.3 11.2,13.3 C21.6,13.3 32.5,4.8 32.5,-4 C32.5,-9.9 27.5,-13.2 21.3,-13.2 C11.6,-13.2 0,-5 0,4.2"/>
<path class="Note" transform="matrix(0.992,0,0,0.992,1423.69,1675.8)" d="M0,4.2 C0,8.5 3.1,13.3 11.2,13.3 C21.6,13.3 32.5,4.8 32.5,-4 C32.5,-9.9 27.5,-13.2 21.3,-13.2 C11.6,-13.2 0,-5 0,4.2"/>
<path class="Note" transform="matrix(0.992,0,0,0.992,1087.83,1204.6)" d="M0,4.2 C0,8.5 3.1,13.3 11.2,13.3 C21.6,13.3 32.5,4.8 32.5,-4 C32.5,-9.9 27.5,-13.2 21.3,-13.2 C11.6,-13.2 0,-5 0,4.2"/>
<path class="Note" transform="matrix(0.992,0,0,0.992,2667.71,1142.6)" d="M0,4.2 C0,8.5 3.1,13.3 11.2,13.3 C21.6,13.3 32.5,4.8 32.5,-4 C32.5,-9.9 27.5,-13.2 21.3,-13.2 C11.6,-13.2 0,-5 0,4.2"/>
<path class="Note" transform="matrix(0.992,0,0,0.992,877.492,708.598)" d="M0,4.2 C0,8.5 3.1,13.3 11.2,13.3 C21.6,13.3 32.5,4.8 32.5,-4 C32.5,-9.9 27.5,-13.2 21.3,-13.2 C11.6,-13.2 0,-5 0,4.2"/>
<path class="Note" transform="matrix(0.992,0,0,0.992,995.404,1192.2)" d="M0,4.2 C0,8.5 3.1,13.3 11.2,13.3 C21.6,13.3 32.5,4.8 32.5,-4 C32.5,-9.9 27.5,-13.2 21.3,-13.2 C11.6,-13.2 0,-5 0,4.2"/>
<path class="Note" transform="matrix(0.992,0,0,0.992,1266.7,696.198)" d="M0,4.2 C0,8.5 3.1,13.3 11.2,13.3 C21.6,13.3 32.5,4.8 32.5,-4 C32.5,-9.9 27.5,-13.2 21.3,-13.2 C11.6,-13.2 0,-5 0,4.2"/>
<path class="Note" transform="matrix(0.992,0,0,0.992,2445.78,758.198)" d="M0,4.2 C0,8.5 3.1,13.3 11.2,13.3 C21.6,13.3 32.5,4.8 32.5,-4 C32.5,-9.9 27.5,-13.2 21.3,-13.2 C11.6,-13.2 0,-5 0,4.2"/>
<path class="Note" transform="matrix(0.992,0,0,0.992,1658.92,1700.6)" d="M0,4.2 C0,8.5 3.1,13.3 11.2,13.3 C21.6,13.3 32.5,4.8 32.5,-4 C32.5,-9.9 27.5,-13.2 21.3,-13.2 C11.6,-13.2 0,-5 0,4.2"/>
<path class="Note" transform="matrix(0.992,0,0,0.992,1308.11,1651)" d="M0,4.2 C0,8.5 3.1,13.3 11.2,13.3 C21.6,13.3 32.5,4.8 32.5,-4 C32.5,-9.9 27.5,-13.2 21.3,-13.2 C11.6,-13.2 0,-5 0,4.2"/>
<path class="Note" transform="matrix(0.992,0,0,0.992,2279.4,1688.2)" d="M0,4.2 C0,8.5 3.1,13.3 11.2,13.3 C21.6,13.3 32.5,4.8 32.5,-4 C32.5,-9.9 27.5,-13.2 21.3,-13.2 C11.6,-13.2 0,-5 0,4.2"/>
<path class="Note" transform="matrix(0.992,0,0,0.992,357.911,1601.4)" d="M0,4.2 C0,8.5 3.1,13.3 11.2,13.3 C21.6,13.3 32.5,4.8 32.5,-4 C32.5,-9.9 27.5,-13.2 21.3,-13.2 C11.6,-13.2 0,-5 0,4.2"/>
<path class="Note" transform="matrix(0.992,0,0,0.992,1879.01,671.398)" d="M0,4.2 C0,8.5 3.1,13.3 11.2,13.3 C21.6,13.3 32.5,4.8 32.5,-4 C32.5,-9.9 27.5,-13.2 21.3,-13.2 C11.6,-13.2 0,-5 0,4.2"/>
<path class="Note" transform="matrix(0.992,0,0,0.992,856.761,1179.8)" d="M0,4.2 C0,8.5 3.1,13.3 11.2,13.3 C21.6,13.3 32.5,4.8 32.5,-4 C32.5,-9.9 27.5,-13.2 21.3,-13.2 C11.6,-13.2 0,-5 0,4.2"/>
<path class="Note" transform="matrix(0.992,0,0,0.992,1131.98,758.198)" d="M0,4.2 C0,8.5 3.1,13.3 11.2,13.3 C21.6,13.3 32.5,4.8 32.5,-4 C32.5,-9.9 27.5,-13.2 21.3,-13.2 C11.6,-13.2 0,-5 0,4.2"/>
<path class="Note" transform="matrix(0.992,0,0,0.992,473.484,1613.8)" d="M0,4.2 C0,8.5 3.1,13.3 11.2,13.3 C21.6,13.3 32.5,4.8 32.5,-4 C32.5,-9.9 27.5,-13.2 21.3,-13.2 C11.6,-13.2 0,-5 0,4.2"/>
<path class="Note" transform="matrix(0.992,0,0,0.992,727.628,1192.2)" d="M0,4.2 C0,8.5 3.1,13.3 11.2,13.3 C21.6,13.3 32.5,4.8 32.5,-4 C32.5,-9.9 27.5,-13.2 21.3,-13.2 C11.6,-13.2 0,-5 0,4.2"/>
<path class="Note" transform="matrix(0.992,0,0,0.992,550.533,1626.2)" d="M0,4.2 C0,8.5 3.1,13.3 11.2,13.3 C21.6,13.3 32.5,4.8 32.5,-4 C32.5,-9.9 27.5,-13.2 21.3,-13.2 C11.6,-13.2 0,-5 0,4.2"/>
<path class="Note" transform="matrix(0.992,0,0,0.992,2163.82,1675.8)" d="M0,4.2 C0,8.5 3.1,13.3 11.2,13.3 C21.6,13.3 32.5,4.8 32.5,-4 C32.5,-9.9 27.5,-13.2 21.3,-13.2 C11.6,-13.2 0,-5 0,4.2"/>
<path class="Note" transform="matrix(0.992,0,0,0.992,2086.78,1651)" d="M0,4.2 C0,8.5 3.1,13.3 11.2,13.3 C21.6,13.3 32.5,4.8 32.5,-4 C32.5,-9.9 27.5,-13.2 21.3,-13.2 C11.6,-13.2 0,-5 0,4.2"/>
<path class="Note" transform="matrix(0.992,0,0,0.992,588.984,1204.6)" d="M0,4.2 C0,8.5 3.1,13.3 11.2,13.3 C21.6,13.3 32.5,4.8 32.5,-4 C32.5,-9.9 27.5,-13.2 21.3,-13.2 C11.6,-13.2 0,-5 0,4.2"/>
<path class="Note" transform="matrix(0.992,0,0,0.992,666.107,1638.6)" d="M0,4.2 C0,8.5 3.1,13.3 11.2,13.3 C21.6,13.3 32.5,4.8 32.5,-4 C32.5,-9.9 27.5,-13.2 21.3,-13.2 C11.6,-13.2 0,-5 0,4.2"/>
<path class="Note" transform="matrix(0.992,0,0,0.992,616.245,733.398)" d="M0,4.2 C0,8.5 3.1,13.3 11.2,13.3 C21.6,13.3 32.5,4.8 32.5,-4 C32.5,-9.9 27.5,-13.2 21.3,-13.2 C11.6,-13.2 0,-5 0,4.2"/>
<path class="Note" transform="matrix(0.992,0,0,0.992,496.555,1204.6)" d="M0,4.2 C0,8.5 3.1,13.3 11.2,13.3 C21.6,13.3 32.5,4.8 32.5,-4 C32.5,-9.9 27.5,-13.2 21.3,-13.2 C11.6,-13.2 0,-5 0,4.2"/>
<path class="Note" transform="matrix(0.992,0,0,0.992,2049.8,671.398)" d="M0,4.2 C0,8.5 3.1,13.3 11.2,13.3 C21.6,13.3 32.5,4.8 32.5,-4 C32.5,-9.9 27.5,-13.2 21.3,-13.2 C11.6,-13.2 0,-5 0,4.2"/>
<path class="Note" transform="matrix(0.992,0,0,0.992,785.767,1651)" d="M0,4.2 C0,8.5 3.1,13.3 11.2,13.3 C21.6,13.3 32.5,4.8 32.5,-4 C32.5,-9.9 27.5,-13.2 21.3,-13.2 C11.6,-13.2 0,-5 0,4.2"/>
<path class="Note" transform="matrix(0.992,0,0,0.992,1971.2,1651)" d="M0,4.2 C0,8.5 3.1,13.3 11.2,13.3 C21.6,13.3 32.5,4.8 32.5,-4 C32.5,-9.9 27.5,-13.2 21.3,-13.2 C11.6,-13.2 0,-5 0,4.2"/>
<path class="Note" transform="matrix(0.992,0,0,0.992,1735.97,1688.2)" d="M0,4.2 C0,8.5 3.1,13.3 11.2,13.3 C21.6,13.3 32.5,4.8 32.5,-4 C32.5,-9.9 27.5,-13.2 21.3,-13.2 C11.6,-13.2 0,-5 0,4.2"/>
<path class="Note" transform="matrix(0.992,0,0,0.992,357.911,1204.6)" d="M0,4.2 C0,8.5 3.1,13.3 11.2,13.3 C21.6,13.3 32.5,4.8 32.5,-4 C32.5,-9.9 27.5,-13.2 21.3,-13.2 C11.6,-13.2 0,-5 0,4.2"/>
<path class="Note" transform="matrix(0.992,0,0,0.992,978.39,1638.6)" d="M0,4.2 C0,8.5 3.1,13.3 11.2,13.3 C21.6,13.3 32.5,4.8 32.5,-4 C32.5,-9.9 27.5,-13.2 21.3,-13.2 C11.6,-13.2 0,-5 0,4.2"/>
<path class="Note" transform="matrix(0.992,0,0,0.992,2311.05,758.198)" d="M0,4.2 C0,8.5 3.1,13.3 11.2,13.3 C21.6,13.3 32.5,4.8 32.5,-4 C32.5,-9.9 27.5,-13.2 21.3,-13.2 C11.6,-13.2 0,-5 0,4.2"/>
<path class="Note" transform="matrix(0.992,0,0,0.992,1393.22,708.598)" d="M0,4.2 C0,8.5 3.1,13.3 11.2,13.3 C21.6,13.3 32.5,4.8 32.5,-4 C32.5,-9.9 27.5,-13.2 21.3,-13.2 C11.6,-13.2 0,-5 0,4.2"/>
<path class="Note" transform="matrix(0.992,0,0,0.992,1161.6,1651)" d="M0,4.2 C0,8.5 3.1,13.3 11.2,13.3 C21.6,13.3 32.5,4.8 32.5,-4 C32.5,-9.9 27.5,-13.2 21.3,-13.2 C11.6,-13.2 0,-5 0,4.2"/>
<path class="Note" transform="matrix(0.992,0,0,0.992,2535.59,758.198)" d="M0,4.2 C0,8.5 3.1,13.3 11.2,13.3 C21.6,13.3 32.5,4.8 32.5,-4 C32.5,-9.9 27.5,-13.2 21.3,-13.2 C11.6,-13.2 0,-5 0,4.2"/>
<path class="Clef" transform="matrix(0.992,0,0,0.992,232.438,1179.8)" d="M12.3,51.3 C12.3,57.9 17.3,66.6 30.8,66.6 C35.5,66.6 39.6,65.4 43.2,63.2 C48.6,59.4 50,52.8 50,46.5 C50,42.6 49.4,38.1 48.4,32.4 C48.1,30.4 47.5,27.4 46.9,23.5 C56.7,20.3 64,10.1 64,-0.2 C64,-15.3 53.3,-25.5 38.7,-25.5 C37.7,-31.5 36.7,-37.4 35.9,-43 C46.4,-54.1 53.7,-66.6 53.7,-82.5 C53.7,-91.6 50.9,-99 49.3,-102.6 C46.9,-107.7 44,-111.2 42.2,-111.2 C41.5,-111.2 38.4,-110 35.1,-106.1 C28.7,-98.5 26.9,-85.7 26.9,-77.3 C26.9,-71.9 27.4,-67 29.1,-55.8 C29,-55.7 23.8,-50.4 21.7,-48.7 C12.6,-40.3 0,-28.1 0,-8.1 C0,10.6 16.3,25.3 34.9,25.3 C37.8,25.3 40.5,25 42.8,24.6 C44.7,34.2 45.9,41.2 45.9,46.5 C45.9,56.9 40.5,62.4 30.4,62.4 C28,62.4 25.9,61.9 25.7,61.9 C25.6,61.8 25.4,61.7 25.4,61.6 C25.4,61.4 25.6,61.3 25.9,61.3 C30.6,60.5 35.3,56.5 35.3,50.1 C35.3,44.7 31.2,39 23.7,39 C16.7,39 12.3,44.7 12.3,51.3 M33.2,-82.2 C34.1,-86.2 38.7,-96.7 43.9,-96.7 C45.4,-96.7 47.8,-91.9 47.8,-84.9 C47.8,-74.5 40.1,-66.7 33.2,-59.9 C32.6,-63.9 32.1,-67.8 32.1,-72 C32.1,-75.7 32.4,-79.1 33.2,-82.2 M42,20.6 C40,21 38.1,21.2 36.2,21.2 C21.9,21.2 9.7,11.2 9.7,-3.9 C9.7,-16.1 18.3,-27 27.1,-34.6 C28.8,-36.1 30.4,-37.5 31.9,-39 C32.8,-33.6 33.5,-28.9 34.2,-24.8 C25.1,-22.1 18.9,-12.5 18.9,-3.1 C18.9,3.9 24.4,13.5 32.4,13.5 C33.2,13.5 34.1,13.1 34.1,12.2 C34.1,11.3 33.1,10.8 31.9,10 C28,7.6 25.8,5 25.8,0.1 C25.8,-6 30.4,-10.9 36.2,-12.3 L42,20.6 M56.2,2.1 C56.2,9.2 53.3,16.5 46.2,19.4 C44.1,7.4 41.4,-8.5 40.7,-12.9 C49.7,-12.9 56.2,-6.8 56.2,2.1"/>
<path class="Clef" transform="matrix(0.992,0,0,0.992,232.438,1651)" d="M12.3,51.3 C12.3,57.9 17.3,66.6 30.8,66.6 C35.5,66.6 39.6,65.4 43.2,63.2 C48.6,59.4 50,52.8 50,46.5 C50,42.6 49.4,38.1 48.4,32.4 C48.1,30.4 47.5,27.4 46.9,23.5 C56.7,20.3 64,10.1 64,-0.2 C64,-15.3 53.3,-25.5 38.7,-25.5 C37.7,-31.5 36.7,-37.4 35.9,-43 C46.4,-54.1 53.7,-66.6 53.7,-82.5 C53.7,-91.6 50.9,-99 49.3,-102.6 C46.9,-107.7 44,-111.2 42.2,-111.2 C41.5,-111.2 38.4,-110 35.1,-106.1 C28.7,-98.5 26.9,-85.7 26.9,-77.3 C26.9,-71.9 27.4,-67 29.1,-55.8 C29,-55.7 23.8,-50.4 21.7,-48.7 C12.6,-40.3 0,-28.1 0,-8.1 C0,10.6 16.3,25.3 34.9,25.3 C37.8,25.3 40.5,25 42.8,24.6 C44.7,34.2 45.9,41.2 45.9,46.5 C45.9,56.9 40.5,62.4 30.4,62.4 C28,62.4 25.9,61.9 25.7,61.9 C25.6,61.8 25.4,61.7 25.4,61.6 C25.4,61.4 25.6,61.3 25.9,61.3 C30.6,60.5 35.3,56.5 35.3,50.1 C35.3,44.7 31.2,39 23.7,39 C16.7,39 12.3,44.7 12.3,51.3 M33.2,-82.2 C34.1,-86.2 38.7,-96.7 43.9,-96.7 C45.4,-96.7 47.8,-91.9 47.8,-84.9 C47.8,-74.5 40.1,-66.7 33.2,-59.9 C32.6,-63.9 32.1,-67.8 32.1,-72 C32.1,-75.7 32.4,-79.1 33.2,-82.2 M42,20.6 C40,21 38.1,21.2 36.2,21.2 C21.9,21.2 9.7,11.2 9.7,-3.9 C9.7,-16.1 18.3,-27 27.1,-34.6 C28.8,-36.1 30.4,-37.5 31.9,-39 C32.8,-33.6 33.5,-28.9 34.2,-24.8 C25.1,-22.1 18.9,-12.5 18.9,-3.1 C18.9,3.9 24.4,13.5 32.4,13.5 C33.2,13.5 34.1,13.1 34.1,12.2 C34.1,11.3 33.1,10.8 31.9,10 C28,7.6 25.8,5 25.8,0.1 C25.8,-6 30.4,-10.9 36.2,-12.3 L42,20.6 M56.2,2.1 C56.2,9.2 53.3,16.5 46.2,19.4 C44.1,7.4 41.4,-8.5 40.7,-12.9 C49.7,-12.9 56.2,-6.8 56.2,2.1"/>
<path class="Clef" transform="matrix(0.992,0,0,0.992,232.438,708.598)" d="M12.3,51.3 C12.3,57.9 17.3,66.6 30.8,66.6 C35.5,66.6 39.6,65.4 43.2,63.2 C48.6,59.4 50,52.8 50,46.5 C50,42.6 49.4,38.1 48.4,32.4 C48.1,30.4 47.5,27.4 46.9,23.5 C56.7,20.3 64,10.1 64,-0.2 C64,-15.3 53.3,-25.5 38.7,-25.5 C37.7,-31.5 36.7,-37.4 35.9,-43 C46.4,-54.1 53.7,-66.6 53.7,-82.5 C53.7,-91.6 50.9,-99 49.3,-102.6 C46.9,-107.7 44,-111.2 42.2,-111.2 C41.5,-111.2 38.4,-110 35.1,-106.1 C28.7,-98.5 26.9,-85.7 26.9,-77.3 C26.9,-71.9 27.4,-67 29.1,-55.8 C29,-55.7 23.8,-50.4 21.7,-48.7 C12.6,-40.3 0,-28.1 0,-8.1 C0,10.6 16.3,25.3 34.9,25.3 C37.8,25.3 40.5,25 42.8,24.6 C44.7,34.2 45.9,41.2 45.9,46.5 C45.9,56.9 40.5,62.4 30.4,62.4 C28,62.4 25.9,61.9 25.7,61.9 C25.6,61.8 25.4,61.7 25.4,61.6 C25.4,61.4 25.6,61.3 25.9,61.3 C30.6,60.5 35.3,56.5 35.3,50.1 C35.3,44.7 31.2,39 23.7,39 C16.7,39 12.3,44.7 12.3,51.3 M33.2,-82.2 C34.1,-86.2 38.7,-96.7 43.9,-96.7 C45.4,-96.7 47.8,-91.9 47.8,-84.9 C47.8,-74.5 40.1,-66.7 33.2,-59.9 C32.6,-63.9 32.1,-67.8 32.1,-72 C32.1,-75.7 32.4,-79.1 33.2,-82.2 M42,20.6 C40,21 38.1,21.2 36.2,21.2 C21.9,21.2 9.7,11.2 9.7,-3.9 C9.7,-16.1 18.3,-27 27.1,-34.6 C28.8,-36.1 30.4,-37.5 31.9,-39 C32.8,-33.6 33.5,-28.9 34.2,-24.8 C25.1,-22.1 18.9,-12.5 18.9,-3.1 C18.9,3.9 24.4,13.5 32.4,13.5 C33.2,13.5 34.1,13.1 34.1,12.2 C34.1,11.3 33.1,10.8 31.9,10 C28,7.6 25.8,5 25.8,0.1 C25.8,-6 30.4,-10.9 36.2,-12.3 L42,20.6 M56.2,2.1 C56.2,9.2 53.3,16.5 46.2,19.4 C44.1,7.4 41.4,-8.5 40.7,-12.9 C49.7,-12.9 56.2,-6.8 56.2,2.1"/>
<path class="TimeSig" transform="matrix(0.992,0,0,0.992,319.533,659.494)" d="M24.7,-4.8 C18.6,-4.8 16.4,-3 15,-1.5 C14.7,-3.6 14.5,-5.2 14.5,-6.8 C14.5,-12.5 16.5,-19.9 23.5,-19.9 C26,-19.9 27.5,-19.1 28.5,-18 C26.4,-17.1 24.7,-14.4 24.7,-12.1 C24.7,-8.5 27.5,-5.7 31.1,-5.7 C34.7,-5.7 37.6,-8.5 37.6,-12.1 L37.6,-12.4 C37.6,-13.3 37.4,-14.8 37,-15.6 C35.7,-19.2 31.5,-24.5 21.5,-24.5 C12.5,-24.5 6,-15.9 4,-11.3 C3,-8.9 1.5,-4 1.5,1.6 C1.5,7.7 3.2,14.6 9.1,19.8 C14.9,24.2 18.6,24.4 22.1,24.4 C25.6,24.4 38.7,20.3 38.7,8.7 C38.7,-1.1 31,-4.8 24.7,-4.8 M21,20.2 C17.7,20.2 15,15.7 15,10.1 C15,4.5 17.7,-0.1 21,-0.1 C24.3,-0.1 27.1,4.5 27.1,10.1 C27.1,15.7 24.3,20.2 21,20.2"/>
<path class="TimeSig" transform="matrix(0.992,0,0,0.992,319.238,708.35)" d="M32.4,-1.8 C35.7,-4.3 38,-7.5 38,-11.5 C38,-18.7 30.1,-24.6 20.4,-24.6 C10.7,-24.6 2.8,-18.7 2.8,-11.5 C2.8,-7.5 3.8,-3.9 8.5,-0.9 C4,1.7 1.5,5.4 1.5,10.2 C1.5,18.3 10,24.8 20.4,24.8 C30.8,24.8 39.3,18.3 39.3,10.2 C39.3,5.4 37.6,0.9 32.4,-1.8 M26.8,-4.5 C20,-6.7 12.5,-10 12.5,-14.5 C12.5,-18.4 16.1,-20 20.4,-20 C26.6,-20 30.8,-17.1 30.8,-12.5 C30.8,-7.7 28.6,-5.4 26.8,-4.5 M20.4,19.2 C14,19.2 8.5,15.7 8.5,10.1 C8.5,3.4 13.7,1.8 13.7,1.8 C20.5,4.1 30.2,7.5 30.2,13 C30.2,15.7 26.8,19.2 20.4,19.2"/>
<path class="Rest" transform="matrix(0.992,0,0,0.992,526.427,683.798)" d="M26.7,-20.3 C26.6,-20.3 26.4,-20.4 26.3,-20.4 C25.7,-20.4 25.2,-20.1 25,-19.6 C22.7,-15 17.9,-8.8 12.5,-7.8 C13.6,-9.1 14.3,-10.7 14.3,-12.6 C14.3,-16.5 11.1,-19.7 7.2,-19.7 C3.2,-19.7 0,-16.5 0,-12.6 C0,-7.2 5.3,-4.7 10,-4.7 C15.3,-4.7 18.8,-7.2 22.2,-10.9 L10.8,24.7 L13.5,25.5 L27.5,-18.6 C27.6,-18.7 27.6,-18.9 27.6,-19.1 C27.6,-19.6 27.3,-20 26.7,-20.3"/>
<path class="Rest" transform="matrix(0.992,0,0,0.992,2184.53,683.798)" d="M26.7,-20.3 C26.6,-20.3 26.4,-20.4 26.3,-20.4 C25.7,-20.4 25.2,-20.1 25,-19.6 C22.7,-15 17.9,-8.8 12.5,-7.8 C13.6,-9.1 14.3,-10.7 14.3,-12.6 C14.3,-16.5 11.1,-19.7 7.2,-19.7 C3.2,-19.7 0,-16.5 0,-12.6 C0,-7.2 5.3,-4.7 10,-4.7 C15.3,-4.7 18.8,-7.2 22.2,-10.9 L10.8,24.7 L13.5,25.5 L27.5,-18.6 C27.6,-18.7 27.6,-18.9 27.6,-19.1 C27.6,-19.6 27.3,-20 26.7,-20.3"/>
<path class="Rest" transform="matrix(0.992,0,0,0.992,901.341,1626.2)" d="M26.7,-20.3 C26.6,-20.3 26.4,-20.4 26.3,-20.4 C25.7,-20.4 25.2,-20.1 25,-19.6 C22.7,-15 17.9,-8.8 12.5,-7.8 C13.6,-9.1 14.3,-10.7 14.3,-12.6 C14.3,-16.5 11.1,-19.7 7.2,-19.7 C3.2,-19.7 0,-16.5 0,-12.6 C0,-7.2 5.3,-4.7 10,-4.7 C15.3,-4.7 18.8,-7.2 22.2,-10.9 L10.8,24.7 L13.5,25.5 L27.5,-18.6 C27.6,-18.7 27.6,-18.9 27.6,-19.1 C27.6,-19.6 27.3,-20 26.7,-20.3"/>
<path class="Rest" transform="matrix(0.992,0,0,0.992,750.971,683.798)" d="M26.7,-20.3 C26.6,-20.3 26.4,-20.4 26.3,-20.4 C25.7,-20.4 25.2,-20.1 25,-19.6 C22.7,-15 17.9,-8.8 12.5,-7.8 C13.6,-9.1 14.3,-10.7 14.3,-12.6 C14.3,-16.5 11.1,-19.7 7.2,-19.7 C3.2,-19.7 0,-16.5 0,-12.6 C0,-7.2 5.3,-4.7 10,-4.7 C15.3,-4.7 18.8,-7.2 22.2,-10.9 L10.8,24.7 L13.5,25.5 L27.5,-18.6 C27.6,-18.7 27.6,-18.9 27.6,-19.1 C27.6,-19.6 27.3,-20 26.7,-20.3"/>
<path class="Rest" transform="matrix(0.992,0,0,0.992,2661.14,1626.2)" d="M26.7,-20.3 C26.6,-20.3 26.4,-20.4 26.3,-20.4 C25.7,-20.4 25.2,-20.1 25,-19.6 C22.7,-15 17.9,-8.8 12.5,-7.8 C13.6,-9.1 14.3,-10.7 14.3,-12.6 C14.3,-16.5 11.1,-19.7 7.2,-19.7 C3.2,-19.7 0,-16.5 0,-12.6 C0,-7.2 5.3,-4.7 10,-4.7 C15.3,-4.7 18.8,-7.2 22.2,-10.9 L10.8,24.7 L13.5,25.5 L27.5,-18.6 C27.6,-18.7 27.6,-18.9 27.6,-19.1 C27.6,-19.6 27.3,-20 26.7,-20.3"/>
<path class="Rest" transform="matrix(0.992,0,0,0.992,1670.01,1155)" d="M26.7,-20.3 C26.6,-20.3 26.4,-20.4 26.3,-20.4 C25.7,-20.4 25.2,-20.1 25,-19.6 C22.7,-15 17.9,-8.8 12.5,-7.8 C13.6,-9.1 14.3,-10.7 14.3,-12.6 C14.3,-16.5 11.1,-19.7 7.2,-19.7 C3.2,-19.7 0,-16.5 0,-12.6 C0,-7.2 5.3,-4.7 10,-4.7 C15.3,-4.7 18.8,-7.2 22.2,-10.9 L10.8,24.7 L13.5,25.5 L27.5,-18.6 C27.6,-18.7 27.6,-18.9 27.6,-19.1 C27.6,-19.6 27.3,-20 26.7,-20.3"/>
<path class="Harmony" d="M1831.87,1003.69 L1799.14,1003.69 L1799.14,1006.27 L1800.13,1006.27 C1803.27,1006.33 1804.31,1006.49 1804.75,1007.04 C1805.08,1007.54 1805.08,1007.65 1805.08,1010.45 L1805.08,1036.63 C1805.08,1039.44 1805.08,1039.55 1804.75,1040.04 C1804.31,1040.59 1803.27,1040.81 1800.13,1040.81 L1799.14,1040.81 L1799.14,1043.4 L1818.01,1043.4 L1818.01,1040.81 L1816.19,1040.81 C1813.06,1040.81 1812.01,1040.59 1811.57,1040.04 C1811.24,1039.55 1811.24,1039.38 1811.24,1036.63 L1811.24,1024.15 L1812.34,1024.15 C1818.01,1023.93 1820.04,1025.96 1820.26,1032.07 L1822.85,1032.07 L1822.85,1014.03 L1820.26,1014.03 C1819.93,1019.42 1817.79,1021.51 1812.56,1021.56 L1811.24,1021.56 L1811.24,1009.02 C1811.19,1006.71 1811.74,1006.33 1814.71,1006.27 L1817.24,1006.27 C1826.26,1006.22 1828.51,1008.25 1830.22,1017.71 L1832.64,1017.71 L1831.87,1003.69 "/>
<path class="Harmony" d="M2431.73,1474.5 L2429.64,1474.5 L2427.44,1477.75 C2423.43,1474.83 2421.39,1474.06 2417.6,1474.06 C2412.37,1474.06 2407.92,1476.26 2404.23,1480.66 C2400.71,1484.84 2399.06,1489.46 2399.06,1495.13 C2399.06,1507.01 2406.82,1515.42 2417.65,1515.42 C2426.45,1515.42 2432.06,1510.25 2433.33,1501.01 L2430.74,1500.57 C2429.26,1508.77 2425.08,1512.84 2418.31,1512.84 C2410.17,1512.84 2406.32,1507.23 2406.32,1495.35 C2406.32,1489.08 2407.15,1484.95 2409.02,1481.65 C2410.72,1478.57 2414.08,1476.65 2417.65,1476.65 C2421.5,1476.65 2424.91,1478.68 2427,1482.2 C2428.05,1484.02 2428.82,1486.05 2430.14,1490.4 L2432.56,1490.4 L2431.73,1474.5 "/>
<path class="Harmony" d="M1576.07,1474.89 L1543.35,1474.89 L1543.35,1477.47 L1544.34,1477.47 C1547.47,1477.53 1548.52,1477.69 1548.96,1478.24 C1549.29,1478.74 1549.29,1478.85 1549.29,1481.65 L1549.29,1507.83 C1549.29,1510.64 1549.29,1510.75 1548.96,1511.24 C1548.52,1511.79 1547.47,1512.01 1544.34,1512.01 L1543.35,1512.01 L1543.35,1514.6 L1562.21,1514.6 L1562.21,1512.01 L1560.4,1512.01 C1557.26,1512.01 1556.22,1511.79 1555.78,1511.24 C1555.45,1510.75 1555.45,1510.58 1555.45,1507.83 L1555.45,1495.35 L1556.55,1495.35 C1562.21,1495.13 1564.25,1497.16 1564.47,1503.27 L1567.05,1503.27 L1567.05,1485.23 L1564.47,1485.23 C1564.14,1490.62 1561.99,1492.71 1556.77,1492.76 L1555.45,1492.76 L1555.45,1480.22 C1555.39,1477.91 1555.94,1477.53 1558.91,1477.47 L1561.44,1477.47 C1570.46,1477.42 1572.72,1479.45 1574.42,1488.91 L1576.84,1488.91 L1576.07,1474.89 "/>
<path class="Harmony" d="M1164.7,532.488 L1131.98,532.488 L1131.98,535.073 L1132.97,535.073 C1136.1,535.128 1137.15,535.293 1137.59,535.843 C1137.92,536.338 1137.92,536.448 1137.92,539.253 L1137.92,565.433 C1137.92,568.238 1137.92,568.348 1137.59,568.843 C1137.15,569.393 1136.1,569.613 1132.97,569.613 L1131.98,569.613 L1131.98,572.198 L1150.84,572.198 L1150.84,569.613 L1149.03,569.613 C1145.89,569.613 1144.85,569.393 1144.41,568.843 C1144.08,568.348 1144.08,568.183 1144.08,565.433 L1144.08,552.948 L1145.18,552.948 C1150.84,552.728 1152.88,554.763 1153.1,560.868 L1155.68,560.868 L1155.68,542.828 L1153.1,542.828 C1152.77,548.218 1150.62,550.308 1145.4,550.363 L1144.08,550.363 L1144.08,537.823 C1144.02,535.513 1144.57,535.128 1147.54,535.073 L1150.07,535.073 C1159.09,535.018 1161.35,537.053 1163.05,546.513 L1165.47,546.513 L1164.7,532.488 "/>
<path class="Harmony" d="M1340.79,1474.5 L1338.7,1474.5 L1336.5,1477.75 C1332.48,1474.83 1330.45,1474.06 1326.65,1474.06 C1321.43,1474.06 1316.97,1476.26 1313.29,1480.66 C1309.77,1484.84 1308.12,1489.46 1308.12,1495.13 C1308.12,1507.01 1315.87,1515.42 1326.71,1515.42 C1335.51,1515.42 1341.12,1510.25 1342.38,1501.01 L1339.8,1500.57 C1338.31,1508.77 1334.13,1512.84 1327.37,1512.84 C1319.23,1512.84 1315.38,1507.23 1315.38,1495.35 C1315.38,1489.08 1316.2,1484.95 1318.07,1481.65 C1319.78,1478.57 1323.13,1476.65 1326.71,1476.65 C1330.56,1476.65 1333.97,1478.68 1336.06,1482.2 C1337.1,1484.02 1337.87,1486.05 1339.19,1490.4 L1341.61,1490.4 L1340.79,1474.5 "/>
<path class="Harmony" d="M2343.73,532.103 L2341.64,532.103 L2339.44,535.348 C2335.42,532.433 2333.39,531.663 2329.59,531.663 C2324.37,531.663 2319.91,533.863 2316.23,538.263 C2312.71,542.443 2311.06,547.063 2311.06,552.728 C2311.06,564.608 2318.81,573.023 2329.65,573.023 C2338.45,573.023 2344.06,567.853 2345.32,558.613 L2342.74,558.173 C2341.25,566.368 2337.07,570.438 2330.31,570.438 C2322.17,570.438 2318.32,564.828 2318.32,552.948 C2318.32,546.678 2319.14,542.553 2321.01,539.253 C2322.72,536.173 2326.07,534.248 2329.65,534.248 C2333.5,534.248 2336.91,536.283 2339,539.803 C2340.04,541.618 2340.81,543.653 2342.13,547.998 L2344.55,547.998 L2343.73,532.103 "/>
<path class="Harmony" d="M1194.28,1474.5 L1192.19,1474.5 L1189.99,1477.75 C1185.97,1474.83 1183.94,1474.06 1180.14,1474.06 C1174.92,1474.06 1170.46,1476.26 1166.78,1480.66 C1163.26,1484.84 1161.61,1489.46 1161.61,1495.13 C1161.61,1507.01 1169.36,1515.42 1180.2,1515.42 C1189,1515.42 1194.61,1510.25 1195.87,1501.01 L1193.29,1500.57 C1191.8,1508.77 1187.62,1512.84 1180.86,1512.84 C1172.72,1512.84 1168.87,1507.23 1168.87,1495.35 C1168.87,1489.08 1169.69,1484.95 1171.56,1481.65 C1173.27,1478.57 1176.62,1476.65 1180.2,1476.65 C1184.05,1476.65 1187.46,1478.68 1189.55,1482.2 C1190.59,1484.02 1191.36,1486.05 1192.68,1490.4 L1195.1,1490.4 L1194.28,1474.5 "/>
<path class="Harmony" d="M1768.69,1474.89 L1735.97,1474.89 L1735.97,1477.47 L1736.96,1477.47 C1740.09,1477.53 1741.14,1477.69 1741.58,1478.24 C1741.91,1478.74 1741.91,1478.85 1741.91,1481.65 L1741.91,1507.83 C1741.91,1510.64 1741.91,1510.75 1741.58,1511.24 C1741.14,1511.79 1740.09,1512.01 1736.96,1512.01 L1735.97,1512.01 L1735.97,1514.6 L1754.83,1514.6 L1754.83,1512.01 L1753.02,1512.01 C1749.88,1512.01 1748.84,1511.79 1748.4,1511.24 C1748.07,1510.75 1748.07,1510.58 1748.07,1507.83 L1748.07,1495.35 L1749.17,1495.35 C1754.83,1495.13 1756.87,1497.16 1757.09,1503.27 L1759.67,1503.27 L1759.67,1485.23 L1757.09,1485.23 C1756.76,1490.62 1754.61,1492.71 1749.39,1492.76 L1748.07,1492.76 L1748.07,1480.22 C1748.01,1477.91 1748.56,1477.53 1751.53,1477.47 L1754.06,1477.47 C1763.08,1477.42 1765.34,1479.45 1767.04,1488.91 L1769.46,1488.91 L1768.69,1474.89 "/>
<path class="Harmony" d="M1564.04,1003.3 L1561.95,1003.3 L1559.75,1006.55 C1555.74,1003.63 1553.7,1002.86 1549.91,1002.86 C1544.68,1002.86 1540.23,1005.06 1536.54,1009.46 C1533.02,1013.64 1531.37,1018.26 1531.37,1023.93 C1531.37,1035.81 1539.13,1044.22 1549.96,1044.22 C1558.76,1044.22 1564.37,1039.05 1565.64,1029.81 L1563.05,1029.37 C1561.57,1037.57 1557.39,1041.64 1550.62,1041.64 C1542.48,1041.64 1538.63,1036.03 1538.63,1024.15 C1538.63,1017.88 1539.46,1013.75 1541.33,1010.45 C1543.03,1007.37 1546.39,1005.45 1549.96,1005.45 C1553.81,1005.45 1557.22,1007.48 1559.31,1011 C1560.36,1012.82 1561.13,1014.85 1562.45,1019.2 L1564.87,1019.2 L1564.04,1003.3 "/>
<path class="Harmony" d="M2062.94,1003.69 L2030.22,1003.69 L2030.22,1006.27 L2031.21,1006.27 C2034.34,1006.33 2035.39,1006.49 2035.83,1007.04 C2036.16,1007.54 2036.16,1007.65 2036.16,1010.45 L2036.16,1036.63 C2036.16,1039.44 2036.16,1039.55 2035.83,1040.04 C2035.39,1040.59 2034.34,1040.81 2031.21,1040.81 L2030.22,1040.81 L2030.22,1043.4 L2049.08,1043.4 L2049.08,1040.81 L2047.27,1040.81 C2044.13,1040.81 2043.09,1040.59 2042.65,1040.04 C2042.32,1039.55 2042.32,1039.38 2042.32,1036.63 L2042.32,1024.15 L2043.42,1024.15 C2049.08,1023.93 2051.12,1025.96 2051.34,1032.07 L2053.92,1032.07 L2053.92,1014.03 L2051.34,1014.03 C2051.01,1019.42 2048.86,1021.51 2043.64,1021.56 L2042.32,1021.56 L2042.32,1009.02 C2042.26,1006.71 2042.81,1006.33 2045.78,1006.27 L2048.31,1006.27 C2057.33,1006.22 2059.59,1008.25 2061.29,1017.71 L2063.71,1017.71 L2062.94,1003.69 "/>
<path class="Harmony" d="M424.377,532.103 L422.287,532.103 L420.087,535.348 C416.072,532.433 414.037,531.663 410.242,531.663 C405.017,531.663 400.562,533.863 396.877,538.263 C393.357,542.443 391.707,547.063 391.707,552.728 C391.707,564.608 399.462,573.023 410.297,573.023 C419.097,573.023 424.707,567.853 425.972,558.613 L423.387,558.173 C421.902,566.368 417.722,570.438 410.957,570.438 C402.817,570.438 398.967,564.828 398.967,552.948 C398.967,546.678 399.792,542.553 401.662,539.253 C403.367,536.173 406.722,534.248 410.297,534.248 C414.147,534.248 417.557,536.283 419.647,539.803 C420.692,541.618 421.462,543.653 422.782,547.998 L425.202,547.998 L424.377,532.103 "/>
<path class="Harmony" d="M1011.12,1474.89 L978.391,1474.89 L978.391,1477.47 L979.381,1477.47 C982.516,1477.53 983.561,1477.69 984.001,1478.24 C984.331,1478.74 984.331,1478.85 984.331,1481.65 L984.331,1507.83 C984.331,1510.64 984.331,1510.75 984.001,1511.24 C983.561,1511.79 982.516,1512.01 979.381,1512.01 L978.391,1512.01 L978.391,1514.6 L997.256,1514.6 L997.256,1512.01 L995.441,1512.01 C992.306,1512.01 991.261,1511.79 990.821,1511.24 C990.491,1510.75 990.491,1510.58 990.491,1507.83 L990.491,1495.35 L991.591,1495.35 C997.256,1495.13 999.291,1497.16 999.511,1503.27 L1002.1,1503.27 L1002.1,1485.23 L999.511,1485.23 C999.181,1490.62 997.036,1492.71 991.811,1492.76 L990.491,1492.76 L990.491,1480.22 C990.436,1477.91 990.986,1477.53 993.956,1477.47 L996.486,1477.47 C1005.51,1477.42 1007.76,1479.45 1009.47,1488.91 L1011.89,1488.91 L1011.12,1474.89 "/>
<path class="Harmony" d="M2578.24,1474.5 L2576.15,1474.5 L2573.95,1477.75 C2569.94,1474.83 2567.9,1474.06 2564.11,1474.06 C2558.88,1474.06 2554.43,1476.26 2550.74,1480.66 C2547.22,1484.84 2545.57,1489.46 2545.57,1495.13 C2545.57,1507.01 2553.33,1515.42 2564.16,1515.42 C2572.96,1515.42 2578.57,1510.25 2579.84,1501.01 L2577.25,1500.57 C2575.77,1508.77 2571.59,1512.84 2564.82,1512.84 C2556.68,1512.84 2552.83,1507.23 2552.83,1495.35 C2552.83,1489.08 2553.66,1484.95 2555.53,1481.65 C2557.23,1478.57 2560.59,1476.65 2564.16,1476.65 C2568.01,1476.65 2571.42,1478.68 2573.51,1482.2 C2574.56,1484.02 2575.33,1486.05 2576.65,1490.4 L2579.07,1490.4 L2578.24,1474.5 "/>
<path class="Harmony" d="M2082.48,532.103 L2080.39,532.103 L2078.19,535.348 C2074.17,532.433 2072.14,531.663 2068.34,531.663 C2063.12,531.663 2058.66,533.863 2054.98,538.263 C2051.46,542.443 2049.81,547.063 2049.81,552.728 C2049.81,564.608 2057.56,573.023 2068.4,573.023 C2077.2,573.023 2082.81,567.853 2084.07,558.613 L2081.49,558.173 C2080,566.368 2075.82,570.438 2069.06,570.438 C2060.92,570.438 2057.07,564.828 2057.07,552.948 C2057.07,546.678 2057.89,542.553 2059.76,539.253 C2061.47,536.173 2064.82,534.248 2068.4,534.248 C2072.25,534.248 2075.66,536.283 2077.75,539.803 C2078.79,541.618 2079.56,543.653 2080.88,547.998 L2083.3,547.998 L2082.48,532.103 "/>
<path class="Harmony" d="M819.22,1474.5 L817.13,1474.5 L814.985,1477.8 C811.41,1475 808.99,1474.06 804.975,1474.06 C800.63,1474.06 797.22,1475.27 793.755,1478.08 C788.31,1482.48 785.78,1488.03 785.78,1495.46 C785.78,1501.07 787.375,1505.74 790.62,1509.32 C794.03,1513.17 799.09,1515.42 804.37,1515.42 C808.99,1515.42 812.235,1513.99 815.81,1510.42 L817.845,1515.37 L820.155,1515.37 L820.155,1503.27 C820.155,1500.46 820.155,1500.35 820.485,1499.86 C820.98,1499.25 821.97,1499.09 825.105,1499.09 L825.93,1499.09 L825.93,1496.5 L808.44,1496.5 L808.44,1499.09 L809.485,1499.09 C814.105,1499.09 814.49,1499.36 814.49,1502.44 C814.49,1504.81 814.105,1506.95 813.39,1508.27 C812.015,1510.97 808.495,1512.84 804.92,1512.84 C801.345,1512.84 797.825,1511.02 795.955,1508.27 C793.92,1505.19 793.04,1501.34 793.04,1495.46 C793.04,1483.19 797.11,1476.65 804.755,1476.65 C811.025,1476.65 815.37,1481.16 817.625,1489.96 L819.99,1489.96 L819.22,1474.5 "/>
<path class="Harmony" d="M831.949,1489.19 L834.369,1489.57 L835.359,1485.23 C836.184,1481.6 836.569,1481.05 838.164,1481.05 C838.439,1481.05 838.879,1481.05 839.374,1481.1 C846.139,1481.43 846.139,1481.43 848.669,1481.43 C849.384,1481.43 850.649,1481.43 852.189,1481.38 L848.449,1488.91 C844.379,1497 843.884,1497.99 842.509,1501.4 C840.804,1505.52 839.924,1508.99 839.924,1511.3 C839.924,1513.83 841.244,1515.37 843.389,1515.37 C846.029,1515.37 847.074,1513.61 847.019,1508.82 C846.744,1500.9 847.734,1497.05 853.619,1484.18 C854.609,1482.04 855.654,1479.84 856.644,1477.69 L856.644,1476.1 C853.344,1476.37 851.584,1476.48 848.174,1476.48 C843.389,1476.48 839.594,1476.32 833.654,1475.88 L831.949,1489.19 "/>
<path class="Harmony" d="M2004.65,1474.5 L2002.56,1474.5 L2000.42,1477.8 C1996.84,1475 1994.42,1474.06 1990.41,1474.06 C1986.06,1474.06 1982.65,1475.27 1979.19,1478.08 C1973.74,1482.48 1971.21,1488.03 1971.21,1495.46 C1971.21,1501.07 1972.81,1505.74 1976.05,1509.32 C1979.46,1513.17 1984.52,1515.42 1989.8,1515.42 C1994.42,1515.42 1997.67,1513.99 2001.24,1510.42 L2003.28,1515.37 L2005.59,1515.37 L2005.59,1503.27 C2005.59,1500.46 2005.59,1500.35 2005.92,1499.86 C2006.41,1499.25 2007.4,1499.09 2010.54,1499.09 L2011.36,1499.09 L2011.36,1496.5 L1993.87,1496.5 L1993.87,1499.09 L1994.92,1499.09 C1999.54,1499.09 1999.92,1499.36 1999.92,1502.44 C1999.92,1504.81 1999.54,1506.95 1998.82,1508.27 C1997.45,1510.97 1993.93,1512.84 1990.35,1512.84 C1986.78,1512.84 1983.26,1511.02 1981.39,1508.27 C1979.35,1505.19 1978.47,1501.34 1978.47,1495.46 C1978.47,1483.19 1982.54,1476.65 1990.19,1476.65 C1996.46,1476.65 2000.8,1481.16 2003.06,1489.96 L2005.42,1489.96 L2004.65,1474.5 "/>
<path class="Harmony" d="M2017.38,1489.19 L2019.8,1489.57 L2020.79,1485.23 C2021.62,1481.6 2022,1481.05 2023.6,1481.05 C2023.87,1481.05 2024.31,1481.05 2024.81,1481.1 C2031.57,1481.43 2031.57,1481.43 2034.1,1481.43 C2034.82,1481.43 2036.08,1481.43 2037.62,1481.38 L2033.88,1488.91 C2029.81,1497 2029.32,1497.99 2027.94,1501.4 C2026.24,1505.52 2025.36,1508.99 2025.36,1511.3 C2025.36,1513.83 2026.68,1515.37 2028.82,1515.37 C2031.46,1515.37 2032.51,1513.61 2032.45,1508.82 C2032.18,1500.9 2033.17,1497.05 2039.05,1484.18 C2040.04,1482.04 2041.09,1479.84 2042.08,1477.69 L2042.08,1476.1 C2038.78,1476.37 2037.02,1476.48 2033.61,1476.48 C2028.82,1476.48 2025.03,1476.32 2019.09,1475.88 L2017.38,1489.19 "/>
<path class="Harmony" d="M390.587,1003.3 L388.497,1003.3 L386.297,1006.55 C382.282,1003.63 380.247,1002.86 376.452,1002.86 C371.227,1002.86 366.772,1005.06 363.087,1009.46 C359.567,1013.64 357.917,1018.26 357.917,1023.93 C357.917,1035.81 365.672,1044.22 376.507,1044.22 C385.307,1044.22 390.917,1039.05 392.182,1029.81 L389.597,1029.37 C388.112,1037.57 383.932,1041.64 377.167,1041.64 C369.027,1041.64 365.177,1036.03 365.177,1024.15 C365.177,1017.88 366.002,1013.75 367.872,1010.45 C369.577,1007.37 372.932,1005.45 376.507,1005.45 C380.357,1005.45 383.767,1007.48 385.857,1011 C386.902,1012.82 387.672,1014.85 388.992,1019.2 L391.412,1019.2 L390.587,1003.3 "/>
<path class="Harmony" d="M1911.69,532.103 L1909.6,532.103 L1907.4,535.348 C1903.39,532.433 1901.35,531.663 1897.56,531.663 C1892.33,531.663 1887.88,533.863 1884.19,538.263 C1880.67,542.443 1879.02,547.063 1879.02,552.728 C1879.02,564.608 1886.78,573.023 1897.61,573.023 C1906.41,573.023 1912.02,567.853 1913.29,558.613 L1910.7,558.173 C1909.22,566.368 1905.04,570.438 1898.27,570.438 C1890.13,570.438 1886.28,564.828 1886.28,552.948 C1886.28,546.678 1887.11,542.553 1888.98,539.253 C1890.68,536.173 1894.04,534.248 1897.61,534.248 C1901.46,534.248 1904.87,536.283 1906.96,539.803 C1908.01,541.618 1908.78,543.653 1910.1,547.998 L1912.52,547.998 L1911.69,532.103 "/>
<path class="Harmony" d="M621.66,1003.3 L619.57,1003.3 L617.37,1006.55 C613.355,1003.63 611.32,1002.86 607.525,1002.86 C602.3,1002.86 597.845,1005.06 594.16,1009.46 C590.64,1013.64 588.99,1018.26 588.99,1023.93 C588.99,1035.81 596.745,1044.22 607.58,1044.22 C616.38,1044.22 621.99,1039.05 623.255,1029.81 L620.67,1029.37 C619.185,1037.57 615.005,1041.64 608.24,1041.64 C600.1,1041.64 596.25,1036.03 596.25,1024.15 C596.25,1017.88 597.075,1013.75 598.945,1010.45 C600.65,1007.37 604.005,1005.45 607.58,1005.45 C611.43,1005.45 614.84,1007.48 616.93,1011 C617.975,1012.82 618.745,1014.85 620.065,1019.2 L622.485,1019.2 L621.66,1003.3 "/>
<path class="Harmony" d="M1388.29,1003.3 L1386.2,1003.3 L1384,1006.55 C1379.98,1003.63 1377.95,1002.86 1374.15,1002.86 C1368.93,1002.86 1364.47,1005.06 1360.79,1009.46 C1357.27,1013.64 1355.62,1018.26 1355.62,1023.93 C1355.62,1035.81 1363.37,1044.22 1374.21,1044.22 C1383.01,1044.22 1388.62,1039.05 1389.88,1029.81 L1387.3,1029.37 C1385.81,1037.57 1381.63,1041.64 1374.87,1041.64 C1366.73,1041.64 1362.88,1036.03 1362.88,1024.15 C1362.88,1017.88 1363.7,1013.75 1365.57,1010.45 C1367.28,1007.37 1370.63,1005.45 1374.21,1005.45 C1378.06,1005.45 1381.47,1007.48 1383.56,1011 C1384.6,1012.82 1385.37,1014.85 1386.69,1019.2 L1389.11,1019.2 L1388.29,1003.3 "/>
<path class="Harmony" d="M550.535,1514.6 L569.015,1514.6 C573.91,1514.6 577.65,1513.83 580.565,1512.18 C586.12,1509.04 589.2,1502.77 589.2,1494.52 C589.2,1486.93 586.45,1480.99 581.39,1477.69 C578.365,1475.77 574.295,1474.89 568.025,1474.89 L550.535,1474.89 L550.535,1477.47 L551.58,1477.47 C554.66,1477.53 555.705,1477.69 556.145,1478.24 C556.475,1478.74 556.475,1478.85 556.475,1481.65 L556.475,1507.83 C556.475,1510.64 556.475,1510.75 556.145,1511.24 C555.705,1511.79 554.66,1511.96 551.58,1512.01 L550.535,1512.01 L550.535,1514.6 M565.77,1512.01 C562.965,1512.01 562.635,1511.68 562.635,1508.99 L562.635,1480.55 C562.635,1477.86 563.02,1477.47 565.77,1477.47 L568.63,1477.47 C578.035,1477.47 581.94,1482.59 581.94,1494.74 C581.94,1507.06 578.42,1512.01 569.51,1512.01 L565.77,1512.01 "/>
<path class="Harmony" d="M597.419,1489.19 L599.839,1489.57 L600.829,1485.23 C601.654,1481.6 602.039,1481.05 603.634,1481.05 C603.909,1481.05 604.349,1481.05 604.844,1481.1 C611.609,1481.43 611.609,1481.43 614.139,1481.43 C614.854,1481.43 616.119,1481.43 617.659,1481.38 L613.919,1488.91 C609.849,1497 609.354,1497.99 607.979,1501.4 C606.274,1505.52 605.394,1508.99 605.394,1511.3 C605.394,1513.83 606.714,1515.37 608.859,1515.37 C611.499,1515.37 612.544,1513.61 612.489,1508.82 C612.214,1500.9 613.204,1497.05 619.089,1484.18 C620.079,1482.04 621.124,1479.84 622.114,1477.69 L622.114,1476.1 C618.814,1476.37 617.054,1476.48 613.644,1476.48 C608.859,1476.48 605.064,1476.32 599.124,1475.88 L597.419,1489.19 "/>
<path class="Harmony" d="M2197.28,1474.5 L2195.19,1474.5 L2193.04,1477.8 C2189.47,1475 2187.05,1474.06 2183.03,1474.06 C2178.69,1474.06 2175.28,1475.27 2171.81,1478.08 C2166.37,1482.48 2163.84,1488.03 2163.84,1495.46 C2163.84,1501.07 2165.43,1505.74 2168.68,1509.32 C2172.09,1513.17 2177.15,1515.42 2182.43,1515.42 C2187.05,1515.42 2190.29,1513.99 2193.87,1510.42 L2195.9,1515.37 L2198.21,1515.37 L2198.21,1503.27 C2198.21,1500.46 2198.21,1500.35 2198.54,1499.86 C2199.04,1499.25 2200.03,1499.09 2203.16,1499.09 L2203.99,1499.09 L2203.99,1496.5 L2186.5,1496.5 L2186.5,1499.09 L2187.54,1499.09 C2192.16,1499.09 2192.55,1499.36 2192.55,1502.44 C2192.55,1504.81 2192.16,1506.95 2191.45,1508.27 C2190.07,1510.97 2186.55,1512.84 2182.98,1512.84 C2179.4,1512.84 2175.88,1511.02 2174.01,1508.27 C2171.98,1505.19 2171.1,1501.34 2171.1,1495.46 C2171.1,1483.19 2175.17,1476.65 2182.81,1476.65 C2189.08,1476.65 2193.43,1481.16 2195.68,1489.96 L2198.05,1489.96 L2197.28,1474.5 "/>
<path class="Harmony" d="M2210.01,1489.19 L2212.43,1489.57 L2213.42,1485.23 C2214.24,1481.6 2214.63,1481.05 2216.22,1481.05 C2216.5,1481.05 2216.94,1481.05 2217.43,1481.1 C2224.2,1481.43 2224.2,1481.43 2226.73,1481.43 C2227.44,1481.43 2228.71,1481.43 2230.25,1481.38 L2226.51,1488.91 C2222.44,1497 2221.94,1497.99 2220.57,1501.4 C2218.86,1505.52 2217.98,1508.99 2217.98,1511.3 C2217.98,1513.83 2219.3,1515.37 2221.45,1515.37 C2224.09,1515.37 2225.13,1513.61 2225.08,1508.82 C2224.8,1500.9 2225.79,1497.05 2231.68,1484.18 C2232.67,1482.04 2233.71,1479.84 2234.7,1477.69 L2234.7,1476.1 C2231.4,1476.37 2229.64,1476.48 2226.23,1476.48 C2221.45,1476.48 2217.65,1476.32 2211.71,1475.88 L2210.01,1489.19 "/>
<path class="Harmony" d="M357.912,1514.6 L376.392,1514.6 C381.287,1514.6 385.027,1513.83 387.942,1512.18 C393.497,1509.04 396.577,1502.77 396.577,1494.52 C396.577,1486.93 393.827,1480.99 388.767,1477.69 C385.742,1475.77 381.672,1474.89 375.402,1474.89 L357.912,1474.89 L357.912,1477.47 L358.957,1477.47 C362.037,1477.53 363.082,1477.69 363.522,1478.24 C363.852,1478.74 363.852,1478.85 363.852,1481.65 L363.852,1507.83 C363.852,1510.64 363.852,1510.75 363.522,1511.24 C363.082,1511.79 362.037,1511.96 358.957,1512.01 L357.912,1512.01 L357.912,1514.6 M373.147,1512.01 C370.342,1512.01 370.012,1511.68 370.012,1508.99 L370.012,1480.55 C370.012,1477.86 370.397,1477.47 373.147,1477.47 L376.007,1477.47 C385.412,1477.47 389.317,1482.59 389.317,1494.74 C389.317,1507.06 385.797,1512.01 376.887,1512.01 L373.147,1512.01 "/>
<path class="Harmony" d="M404.797,1489.19 L407.217,1489.57 L408.207,1485.23 C409.032,1481.6 409.417,1481.05 411.012,1481.05 C411.287,1481.05 411.727,1481.05 412.222,1481.1 C418.987,1481.43 418.987,1481.43 421.517,1481.43 C422.232,1481.43 423.497,1481.43 425.037,1481.38 L421.297,1488.91 C417.227,1497 416.732,1497.99 415.357,1501.4 C413.652,1505.52 412.772,1508.99 412.772,1511.3 C412.772,1513.83 414.092,1515.37 416.237,1515.37 C418.877,1515.37 419.922,1513.61 419.867,1508.82 C419.592,1500.9 420.582,1497.05 426.467,1484.18 C427.457,1482.04 428.502,1479.84 429.492,1477.69 L429.492,1476.1 C426.192,1476.37 424.432,1476.48 421.022,1476.48 C416.237,1476.48 412.442,1476.32 406.502,1475.88 L404.797,1489.19 "/>
<path class="Harmony" d="M1425.9,532.103 L1423.81,532.103 L1421.61,535.348 C1417.59,532.433 1415.56,531.663 1411.76,531.663 C1406.54,531.663 1402.08,533.863 1398.4,538.263 C1394.88,542.443 1393.23,547.063 1393.23,552.728 C1393.23,564.608 1400.98,573.023 1411.82,573.023 C1420.62,573.023 1426.23,567.853 1427.49,558.613 L1424.91,558.173 C1423.42,566.368 1419.24,570.438 1412.48,570.438 C1404.34,570.438 1400.49,564.828 1400.49,552.948 C1400.49,546.678 1401.31,542.553 1403.18,539.253 C1404.89,536.173 1408.24,534.248 1411.82,534.248 C1415.67,534.248 1419.08,536.283 1421.17,539.803 C1422.21,541.618 1422.98,543.653 1424.3,547.998 L1426.72,547.998 L1425.9,532.103 "/>
<path class="Harmony" d="M889.437,1003.3 L887.347,1003.3 L885.147,1006.55 C881.132,1003.63 879.097,1002.86 875.302,1002.86 C870.077,1002.86 865.622,1005.06 861.937,1009.46 C858.417,1013.64 856.767,1018.26 856.767,1023.93 C856.767,1035.81 864.522,1044.22 875.357,1044.22 C884.157,1044.22 889.767,1039.05 891.032,1029.81 L888.447,1029.37 C886.962,1037.57 882.782,1041.64 876.017,1041.64 C867.877,1041.64 864.027,1036.03 864.027,1024.15 C864.027,1017.88 864.852,1013.75 866.722,1010.45 C868.427,1007.37 871.782,1005.45 875.357,1005.45 C879.207,1005.45 882.617,1007.48 884.707,1011 C885.752,1012.82 886.522,1014.85 887.842,1019.2 L890.262,1019.2 L889.437,1003.3 "/>
<path class="Harmony" d="M648.921,532.103 L646.831,532.103 L644.631,535.348 C640.616,532.433 638.581,531.663 634.786,531.663 C629.561,531.663 625.106,533.863 621.421,538.263 C617.901,542.443 616.251,547.063 616.251,552.728 C616.251,564.608 624.006,573.023 634.841,573.023 C643.641,573.023 649.251,567.853 650.516,558.613 L647.931,558.173 C646.446,566.368 642.266,570.438 635.501,570.438 C627.361,570.438 623.511,564.828 623.511,552.948 C623.511,546.678 624.336,542.553 626.206,539.253 C627.911,536.173 631.266,534.248 634.841,534.248 C638.691,534.248 642.101,536.283 644.191,539.803 C645.236,541.618 646.006,543.653 647.326,547.998 L649.746,547.998 L648.921,532.103 "/>
<path class="Harmony" d="M1120.51,1003.3 L1118.42,1003.3 L1116.22,1006.55 C1112.2,1003.63 1110.17,1002.86 1106.37,1002.86 C1101.15,1002.86 1096.69,1005.06 1093.01,1009.46 C1089.49,1013.64 1087.84,1018.26 1087.84,1023.93 C1087.84,1035.81 1095.59,1044.22 1106.43,1044.22 C1115.23,1044.22 1120.84,1039.05 1122.1,1029.81 L1119.52,1029.37 C1118.03,1037.57 1113.85,1041.64 1107.09,1041.64 C1098.95,1041.64 1095.1,1036.03 1095.1,1024.15 C1095.1,1017.88 1095.92,1013.75 1097.79,1010.45 C1099.5,1007.37 1102.85,1005.45 1106.43,1005.45 C1110.28,1005.45 1113.69,1007.48 1115.78,1011 C1116.82,1012.82 1117.59,1014.85 1118.91,1019.2 L1121.33,1019.2 L1120.51,1003.3 "/>
<path class="Harmony" d="M2561.79,1003.69 L2529.07,1003.69 L2529.07,1006.27 L2530.06,1006.27 C2533.19,1006.33 2534.24,1006.49 2534.68,1007.04 C2535.01,1007.54 2535.01,1007.65 2535.01,1010.45 L2535.01,1036.63 C2535.01,1039.44 2535.01,1039.55 2534.68,1040.04 C2534.24,1040.59 2533.19,1040.81 2530.06,1040.81 L2529.07,1040.81 L2529.07,1043.4 L2547.93,1043.4 L2547.93,1040.81 L2546.12,1040.81 C2542.98,1040.81 2541.94,1040.59 2541.5,1040.04 C2541.17,1039.55 2541.17,1039.38 2541.17,1036.63 L2541.17,1024.15 L2542.27,1024.15 C2547.93,1023.93 2549.97,1025.96 2550.19,1032.07 L2552.77,1032.07 L2552.77,1014.03 L2550.19,1014.03 C2549.86,1019.42 2547.71,1021.51 2542.49,1021.56 L2541.17,1021.56 L2541.17,1009.02 C2541.11,1006.71 2541.66,1006.33 2544.63,1006.27 L2547.16,1006.27 C2556.18,1006.22 2558.44,1008.25 2560.14,1017.71 L2562.56,1017.71 L2561.79,1003.69 "/>
<path class="Harmony" d="M1651.22,532.103 L1649.13,532.103 L1646.98,535.403 C1643.41,532.598 1640.99,531.663 1636.97,531.663 C1632.63,531.663 1629.22,532.873 1625.75,535.678 C1620.31,540.078 1617.78,545.633 1617.78,553.058 C1617.78,558.668 1619.37,563.343 1622.62,566.918 C1626.03,570.768 1631.09,573.023 1636.37,573.023 C1640.99,573.023 1644.23,571.593 1647.81,568.018 L1649.84,572.968 L1652.15,572.968 L1652.15,560.868 C1652.15,558.063 1652.15,557.953 1652.48,557.458 C1652.98,556.853 1653.97,556.688 1657.1,556.688 L1657.93,556.688 L1657.93,554.103 L1640.44,554.103 L1640.44,556.688 L1641.48,556.688 C1646.1,556.688 1646.49,556.963 1646.49,560.043 C1646.49,562.408 1646.1,564.553 1645.39,565.873 C1644.01,568.568 1640.49,570.438 1636.92,570.438 C1633.34,570.438 1629.82,568.623 1627.95,565.873 C1625.92,562.793 1625.04,558.943 1625.04,553.058 C1625.04,540.793 1629.11,534.248 1636.75,534.248 C1643.02,534.248 1647.37,538.758 1649.62,547.558 L1651.99,547.558 L1651.22,532.103 "/>
<path class="Harmony" d="M1663.95,546.788 L1666.37,547.173 L1667.36,542.828 C1668.18,539.198 1668.57,538.648 1670.16,538.648 C1670.44,538.648 1670.88,538.648 1671.37,538.703 C1678.14,539.033 1678.14,539.033 1680.67,539.033 C1681.38,539.033 1682.65,539.033 1684.19,538.978 L1680.45,546.513 C1676.38,554.598 1675.88,555.588 1674.51,558.998 C1672.8,563.123 1671.92,566.588 1671.92,568.898 C1671.92,571.428 1673.24,572.968 1675.39,572.968 C1678.03,572.968 1679.07,571.208 1679.02,566.423 C1678.74,558.503 1679.73,554.653 1685.62,541.783 C1686.61,539.638 1687.65,537.438 1688.64,535.293 L1688.64,533.698 C1685.34,533.973 1683.58,534.083 1680.17,534.083 C1675.39,534.083 1671.59,533.918 1665.65,533.478 L1663.95,546.788 "/>
<path class="Harmony" d="M2330.72,1003.69 L2297.99,1003.69 L2297.99,1006.27 L2298.98,1006.27 C2302.12,1006.33 2303.16,1006.49 2303.6,1007.04 C2303.93,1007.54 2303.93,1007.65 2303.93,1010.45 L2303.93,1036.63 C2303.93,1039.44 2303.93,1039.55 2303.6,1040.04 C2303.16,1040.59 2302.12,1040.81 2298.98,1040.81 L2297.99,1040.81 L2297.99,1043.4 L2316.86,1043.4 L2316.86,1040.81 L2315.04,1040.81 C2311.91,1040.81 2310.86,1040.59 2310.42,1040.04 C2310.09,1039.55 2310.09,1039.38 2310.09,1036.63 L2310.09,1024.15 L2311.19,1024.15 C2316.86,1023.93 2318.89,1025.96 2319.11,1032.07 L2321.7,1032.07 L2321.7,1014.03 L2319.11,1014.03 C2318.78,1019.42 2316.64,1021.51 2311.41,1021.56 L2310.09,1021.56 L2310.09,1009.02 C2310.04,1006.71 2310.59,1006.33 2313.56,1006.27 L2316.09,1006.27 C2325.11,1006.22 2327.36,1008.25 2329.07,1017.71 L2331.49,1017.71 L2330.72,1003.69 "/>
<path class="Harmony" d="M910.168,532.103 L908.078,532.103 L905.878,535.348 C901.863,532.433 899.828,531.663 896.033,531.663 C890.808,531.663 886.353,533.863 882.668,538.263 C879.148,542.443 877.498,547.063 877.498,552.728 C877.498,564.608 885.253,573.023 896.088,573.023 C904.888,573.023 910.498,567.853 911.763,558.613 L909.178,558.173 C907.693,566.368 903.513,570.438 896.748,570.438 C888.608,570.438 884.758,564.828 884.758,552.948 C884.758,546.678 885.583,542.553 887.453,539.253 C889.158,536.173 892.513,534.248 896.088,534.248 C899.938,534.248 903.348,536.283 905.438,539.803 C906.483,541.618 907.253,543.653 908.573,547.998 L910.993,547.998 L910.168,532.103 "/>
<path class="Harmony" d="M2568.27,532.103 L2566.18,532.103 L2563.98,535.348 C2559.97,532.433 2557.93,531.663 2554.14,531.663 C2548.91,531.663 2544.46,533.863 2540.77,538.263 C2537.25,542.443 2535.6,547.063 2535.6,552.728 C2535.6,564.608 2543.36,573.023 2554.19,573.023 C2562.99,573.023 2568.6,567.853 2569.87,558.613 L2567.28,558.173 C2565.8,566.368 2561.62,570.438 2554.85,570.438 C2546.71,570.438 2542.86,564.828 2542.86,552.948 C2542.86,546.678 2543.69,542.553 2545.56,539.253 C2547.26,536.173 2550.62,534.248 2554.19,534.248 C2558.04,534.248 2561.45,536.283 2563.54,539.803 C2564.59,541.618 2565.36,543.653 2566.68,547.998 L2569.1,547.998 L2568.27,532.103 "/>
<path class="NoteDot" transform="matrix(0.992,0,0,0.992,2443.68,1688.2)" d="M0,0 C0,2.8 2.2,5 5,5 C7.8,5 10,2.8 10,0 C10,-2.8 7.8,-5 5,-5 C2.2,-5 0,-2.8 0,0"/>
<path class="NoteDot" transform="matrix(0.992,0,0,0.992,1400.23,1217)" d="M0,0 C0,2.8 2.2,5 5,5 C7.8,5 10,2.8 10,0 C10,-2.8 7.8,-5 5,-5 C2.2,-5 0,-2.8 0,0"/>
<path class="NoteDot" transform="matrix(0.992,0,0,0.992,1923.64,671.398)" d="M0,0 C0,2.8 2.2,5 5,5 C7.8,5 10,2.8 10,0 C10,-2.8 7.8,-5 5,-5 C2.2,-5 0,-2.8 0,0"/>
<path class="NoteDot" transform="matrix(0.992,0,0,0.992,1023.01,1638.6)" d="M0,0 C0,2.8 2.2,5 5,5 C7.8,5 10,2.8 10,0 C10,-2.8 7.8,-5 5,-5 C2.2,-5 0,-2.8 0,0"/>
<path class="NoteDot" transform="matrix(0.992,0,0,0.992,1206.23,1638.6)" d="M0,0 C0,2.8 2.2,5 5,5 C7.8,5 10,2.8 10,0 C10,-2.8 7.8,-5 5,-5 C2.2,-5 0,-2.8 0,0"/>
</svg>
