<?xml version="1.0" encoding="UTF-8" standalone="no"?>
<svg width="2977.2px" height="4208.4px" viewBox="0 0 2977.2 4208.4"
 xmlns="http://www.w3.org/2000/svg" xmlns:xlink="http://www.w3.org/1999/xlink" version="1.2" baseProfile="tiny">
<title>こがねむし</title>
<desc>Generated by MuseScore Studio 4.4.2</desc>
<path class="" fill="#ffffff" fill-rule="evenodd" d="M0,0 L2977.2,0 L2977.2,4208.4 L0,4208.4 L0,0 "/>
<polyline class="StaffLines" fill="none" stroke="#000000" stroke-width="2.73" stroke-linejoin="bevel" points="212.598,634.198 2764.6,634.198"/>
<polyline class="StaffLines" fill="none" stroke="#000000" stroke-width="2.73" stroke-linejoin="bevel" points="212.598,658.998 2764.6,658.998"/>
<polyline class="StaffLines" fill="none" stroke="#000000" stroke-width="2.73" stroke-linejoin="bevel" points="212.598,683.798 2764.6,683.798"/>
<polyline class="StaffLines" fill="none" stroke="#000000" stroke-width="2.73" stroke-linejoin="bevel" points="212.598,708.598 2764.6,708.598"/>
<polyline class="StaffLines" fill="none" stroke="#000000" stroke-width="2.73" stroke-linejoin="bevel" points="212.598,733.398 2764.6,733.398"/>
<polyline class="StaffLines" fill="none" stroke="#000000" stroke-width="2.73" stroke-linejoin="bevel" points="212.598,1105.4 2764.6,1105.4"/>
<polyline class="StaffLines" fill="none" stroke="#000000" stroke-width="2.73" stroke-linejoin="bevel" points="212.598,1130.2 2764.6,1130.2"/>
<polyline class="StaffLines" fill="none" stroke="#000000" stroke-width="2.73" stroke-linejoin="bevel" points="212.598,1155 2764.6,1155"/>
<polyline class="StaffLines" fill="none" stroke="#000000" stroke-width="2.73" stroke-linejoin="bevel" points="212.598,1179.8 2764.6,1179.8"/>
<polyline class="StaffLines" fill="none" stroke="#000000" stroke-width="2.73" stroke-linejoin="bevel" points="212.598,1204.6 2764.6,1204.6"/>
<path class="Text" d="M1237.14,236.459 C1238.57,236.459 1238.79,236.569 1240.77,236.789 C1247.92,237.669 1257.27,238.219 1264.97,238.219 C1271.24,238.219 1274.98,237.889 1281.58,236.789 C1280.48,237.449 1280.26,237.449 1279.49,237.889 C1278.17,238.549 1277.95,238.659 1276.74,239.319 C1271.79,242.069 1269.15,243.719 1262.11,248.449 L1267.72,252.959 C1278.5,245.149 1288.62,239.099 1295.44,236.239 L1294.89,228.979 C1288.84,230.519 1279.93,231.289 1267.06,231.289 C1254.52,231.289 1245.83,230.519 1237.8,228.649 L1237.14,236.459 M1243.74,264.619 C1235.27,271.769 1231.09,278.699 1231.09,285.849 C1231.09,293.439 1235.38,299.049 1243.63,302.459 C1249.02,304.549 1258.37,305.869 1268.93,305.869 C1278.61,305.869 1289.06,304.989 1298.63,303.339 C1300.5,303.009 1300.94,302.899 1302.37,302.789 L1301.38,293.769 C1295.22,296.299 1282.13,297.949 1268.38,297.949 C1259.69,297.949 1252.43,297.179 1248.25,295.749 C1242.09,293.659 1238.9,290.029 1238.9,284.969 C1238.9,279.799 1242.2,274.739 1249.35,268.799 L1243.74,264.619 M1401.37,221.389 C1404.67,224.909 1409.95,233.049 1412.7,238.879 L1418.2,235.579 C1414.9,229.089 1411.82,224.469 1406.87,218.529 L1401.37,221.389 M1330.53,255.269 C1335.48,253.839 1338.56,253.289 1352.64,251.309 C1347.69,272.099 1338.23,294.099 1329.1,306.089 L1336.58,310.489 C1348.02,290.359 1355.72,271.219 1360.34,250.649 C1364.41,250.209 1365.84,250.099 1368.26,250.099 C1378.49,250.099 1381.79,253.839 1381.79,265.499 C1381.79,277.819 1380.14,289.039 1377.17,296.079 C1375.74,299.599 1373.65,301.359 1370.9,301.359 C1366.94,301.359 1360.78,299.489 1354.51,296.299 C1354.84,298.279 1354.84,298.939 1354.84,300.589 C1354.84,302.129 1354.84,302.899 1354.62,304.549 C1361.88,307.629 1366.5,308.839 1371.23,308.839 C1376.4,308.839 1379.37,307.409 1382.01,303.669 C1386.52,297.289 1389.38,282.659 1389.38,265.829 C1389.38,256.809 1387.84,251.749 1383.99,248.119 C1380.58,244.819 1375.96,243.499 1368.15,243.499 C1365.62,243.499 1364.19,243.609 1361.66,243.829 C1362.54,239.099 1363.53,234.039 1363.97,231.289 C1364.85,225.349 1365.4,222.819 1366.06,220.729 L1357.26,219.739 C1357.26,220.399 1357.26,220.949 1357.26,221.169 C1357.26,225.789 1355.83,236.239 1353.96,244.489 C1337.79,246.799 1333.61,247.239 1329.65,247.349 L1330.53,255.269 M1413.91,215.559 C1418.2,220.509 1422.82,227.659 1425.13,232.829 L1430.63,229.639 C1427,222.709 1424.25,218.639 1419.3,212.589 L1413.91,215.559 M1395.43,240.639 C1405.33,250.429 1414.24,266.159 1417.87,280.129 L1424.91,276.169 C1420.29,261.649 1412.81,248.889 1401.92,237.229 L1395.43,240.639 M1440.75,247.899 C1443.61,247.349 1443.61,247.349 1457.91,246.139 C1457.58,256.809 1457.58,256.809 1457.47,265.609 C1439.54,283.649 1439.54,283.649 1436.9,285.519 L1441.52,292.779 C1443.61,290.029 1443.72,289.919 1450.76,282.329 C1453.95,278.919 1456.48,276.059 1457.69,274.519 C1457.47,278.259 1457.36,280.789 1457.36,287.499 C1457.36,308.179 1457.36,308.179 1456.92,312.799 L1465.39,312.799 C1464.84,308.179 1464.73,301.029 1464.73,283.979 L1464.73,268.579 C1473.75,259.999 1477.38,256.919 1481.67,253.729 C1489.59,247.789 1496.3,244.819 1502.02,244.819 C1512.8,244.819 1518.85,255.159 1518.85,273.419 C1518.85,277.709 1518.63,280.459 1517.97,285.189 C1511.81,281.779 1506.75,280.349 1500.81,280.349 C1490.03,280.349 1482.55,286.399 1482.55,295.199 C1482.55,303.559 1490.25,309.499 1501.14,309.499 C1507.52,309.499 1513.57,307.299 1517.42,303.559 C1519.73,301.469 1520.94,299.599 1522.37,296.079 C1527.32,299.929 1531.39,303.559 1533.59,306.199 L1537.11,298.499 C1536.01,297.729 1535.9,297.619 1534.47,296.409 C1533.48,295.529 1532.49,294.759 1531.61,294.099 C1526.33,290.029 1526.33,290.029 1524.9,288.929 C1526.11,282.659 1526.55,278.699 1526.55,272.979 C1526.55,250.539 1517.75,237.779 1502.57,237.779 C1494.32,237.779 1486.18,241.409 1475.95,249.439 C1470.89,253.509 1467.15,256.809 1464.62,259.669 L1464.95,248.449 C1467.59,245.259 1469.79,242.839 1470.89,242.069 L1467.92,238.109 C1467.26,238.549 1467.04,238.549 1465.94,238.769 C1465.83,238.769 1465.61,238.769 1465.39,238.769 C1466.05,222.049 1466.05,222.049 1466.49,219.189 L1458.24,219.079 C1458.46,221.389 1458.46,222.489 1458.46,224.469 C1458.46,226.229 1458.35,232.389 1458.13,239.539 C1448.45,240.309 1445.48,240.529 1442.73,240.529 C1442.18,240.529 1441.41,240.529 1440.09,240.419 L1440.75,247.899 M1516.21,291.899 C1516.21,291.899 1515.99,292.669 1515.44,293.659 C1514.23,296.409 1512.25,298.829 1509.72,300.369 C1507.19,302.129 1504.22,302.899 1500.7,302.899 C1494.21,302.899 1489.48,299.599 1489.48,295.089 C1489.48,290.249 1494.21,286.839 1501.03,286.839 C1506.2,286.839 1510.27,288.159 1516.21,291.899 M1553.17,242.619 C1553.83,242.509 1554.27,242.509 1554.6,242.509 C1554.93,242.509 1555.59,242.509 1556.47,242.619 C1559.55,242.839 1561.75,242.949 1564.72,242.949 C1566.59,242.949 1569.56,242.839 1573.63,242.729 C1573.63,243.719 1573.63,243.719 1573.52,247.349 C1573.41,250.979 1573.41,253.399 1573.3,254.499 C1572.2,254.279 1571.54,254.279 1570.88,254.279 C1560.87,254.279 1553.39,261.759 1553.39,271.879 C1553.39,280.239 1558.67,286.399 1565.82,286.399 C1568.35,286.399 1569.67,285.959 1571.65,284.529 L1571.76,284.639 C1570.33,286.839 1570.33,286.839 1569.89,287.499 C1568.24,290.359 1567.25,293.989 1567.25,297.069 C1567.25,306.859 1575.83,311.039 1595.63,311.039 C1609.93,311.039 1620.27,309.169 1626.32,305.429 C1630.61,302.679 1632.81,298.389 1632.81,292.669 C1632.81,287.059 1630.83,279.579 1627.42,272.099 C1623.79,271.989 1622.47,271.769 1618.84,270.779 C1622.58,277.269 1625.33,286.069 1625.33,291.679 C1625.33,296.079 1623.46,298.719 1618.84,300.589 C1614.22,302.459 1604.87,303.779 1595.74,303.779 C1588.04,303.779 1582.54,303.119 1579.13,301.799 C1576.05,300.589 1574.73,298.719 1574.73,295.969 C1574.73,292.559 1576.05,289.039 1579.13,283.759 C1584.19,275.399 1585.07,272.979 1585.07,267.699 C1585.07,262.639 1583.64,259.449 1580.45,256.919 C1580.45,252.849 1580.45,252.079 1580.67,242.509 C1586.06,242.179 1592.44,241.299 1598.27,240.199 C1600.03,239.759 1600.36,239.759 1601.68,239.649 L1601.13,232.279 C1597.39,233.819 1589.47,235.249 1580.89,236.019 C1580.89,234.589 1580.89,234.039 1581,232.829 C1581,229.969 1581,229.969 1581.11,228.649 C1581.33,223.369 1581.44,222.929 1581.99,220.839 L1573.41,220.729 C1573.74,222.819 1573.85,224.029 1573.85,225.679 C1573.85,229.199 1573.85,231.179 1573.74,236.349 C1570.55,236.569 1569.12,236.569 1566.81,236.569 C1559.22,236.569 1556.03,236.349 1553.17,235.469 L1553.17,242.619 M1570.66,260.219 C1575.83,260.549 1578.14,262.969 1578.14,268.359 C1578.14,275.069 1573.63,280.349 1567.8,280.349 C1563.18,280.349 1560.21,276.939 1560.21,271.769 C1560.21,265.499 1564.72,260.219 1570.11,260.219 C1570.22,260.219 1570.44,260.219 1570.66,260.219 M1611.58,235.469 C1620.49,241.079 1629.84,249.989 1635.89,258.569 L1642.05,253.289 C1634.79,244.269 1627.53,237.669 1617.19,230.739 L1611.58,235.469 M1676.81,221.939 C1677.14,224.139 1677.25,225.459 1677.25,227.769 C1677.25,229.529 1677.25,231.619 1677.14,234.919 C1676.26,269.569 1676.15,272.319 1676.15,279.689 C1676.15,291.239 1677.69,297.069 1682.2,302.239 C1686.6,307.299 1693.53,309.939 1702.88,309.939 C1715.75,309.939 1726.09,305.429 1733.9,296.189 C1738.74,290.579 1741.93,284.089 1746.11,271.219 C1742.59,269.459 1741.27,268.579 1738.19,265.939 C1736.65,273.639 1735.33,277.929 1732.8,283.209 C1726.53,295.749 1716.41,302.349 1703.32,302.349 C1697.6,302.349 1692.65,300.809 1689.57,298.059 C1686.27,295.089 1684.84,291.459 1684.4,284.859 C1684.29,282.329 1684.18,279.579 1684.18,278.259 C1684.18,273.309 1684.51,258.349 1684.95,245.149 C1685.28,231.289 1685.72,225.679 1686.38,221.939 L1676.81,221.939 "/>
<path class="MeasureNumber" d="M216.922,1040.48 C215.682,1041.24 215.322,1041.72 215.322,1042.52 C215.322,1043.28 215.962,1043.84 216.762,1043.84 C217.802,1043.84 218.402,1043.08 218.522,1041.6 C219.762,1040.6 221.082,1040.16 222.682,1040.16 C225.642,1040.16 227.282,1042 227.282,1045.32 C227.282,1050.52 223.922,1054.76 219.802,1054.76 C217.442,1054.76 215.522,1053.64 215.522,1052.32 C215.522,1052.08 215.562,1052 215.762,1051.88 C217.042,1051.28 218.082,1050.84 218.082,1049.16 C218.082,1047.88 217.082,1046.92 215.682,1046.92 C213.922,1046.92 212.602,1048.4 212.602,1050.32 C212.602,1053.84 215.642,1056.4 219.922,1056.4 C226.402,1056.4 231.642,1051.24 231.642,1044.84 C231.642,1040.8 228.562,1037.96 224.202,1037.96 C222.482,1037.96 221.082,1038.32 219.162,1039.28 L221.402,1031.72 C223.522,1032.16 225.202,1032.36 226.642,1032.36 C229.282,1032.36 231.642,1031.52 232.962,1030.12 C233.642,1029.32 234.042,1028.64 234.042,1028.12 C234.042,1027.88 233.922,1027.64 233.762,1027.64 C233.642,1027.64 233.562,1027.68 233.322,1027.8 C232.002,1028.44 230.322,1028.8 228.762,1028.8 C226.362,1028.8 223.522,1028.4 220.562,1027.64 L216.922,1040.48 "/>
<polyline class="BarLine" fill="none" stroke="#000000" stroke-width="4.46" stroke-linejoin="bevel" points="1632.9,1104.03 1632.9,1205.96"/>
<polyline class="BarLine" fill="none" stroke="#000000" stroke-width="4.46" stroke-linejoin="bevel" points="2740.42,1104.03 2740.42,1205.96"/>
<polyline class="BarLine" fill="none" stroke="#000000" stroke-width="13.64" stroke-linejoin="bevel" points="2757.78,1104.03 2757.78,1205.96"/>
<polyline class="BarLine" fill="none" stroke="#000000" stroke-width="4.46" stroke-linejoin="bevel" points="2762.37,632.834 2762.37,734.762"/>
<polyline class="BarLine" fill="none" stroke="#000000" stroke-width="4.46" stroke-linejoin="bevel" points="1564.29,632.834 1564.29,734.762"/>
<polyline class="BarLine" fill="none" stroke="#000000" stroke-width="4.46" stroke-linejoin="bevel" points="2288.99,1104.03 2288.99,1205.96"/>
<polyline class="BarLine" fill="none" stroke="#000000" stroke-width="4.46" stroke-linejoin="bevel" points="976.816,1104.03 976.816,1205.96"/>
<polyline class="BarLine" fill="none" stroke="#000000" stroke-width="4.46" stroke-linejoin="bevel" points="2214.45,632.834 2214.45,734.762"/>
<polyline class="BarLine" fill="none" stroke="#000000" stroke-width="4.46" stroke-linejoin="bevel" points="1016.37,632.834 1016.37,734.762"/>
<polyline class="LedgerLine" fill="none" stroke="#000000" stroke-width="3.97" stroke-linejoin="bevel" points="882.768,758.198 932.353,758.198"/>
<polyline class="LedgerLine" fill="none" stroke="#000000" stroke-width="3.97" stroke-linejoin="bevel" points="882.768,782.998 932.353,782.998"/>
<polyline class="Stem" fill="none" stroke="#000000" stroke-width="2.73" stroke-linejoin="bevel" points="554.235,729.43 554.235,640.398"/>
<polyline class="Stem" fill="none" stroke="#000000" stroke-width="2.73" stroke-linejoin="bevel" points="2161.29,679.83 2161.29,609.439"/>
<polyline class="Stem" fill="none" stroke="#000000" stroke-width="2.73" stroke-linejoin="bevel" points="1328.02,1163.43 1328.02,1099.27"/>
<polyline class="Stem" fill="none" stroke="#000000" stroke-width="2.73" stroke-linejoin="bevel" points="1470.95,1188.23 1470.95,1106.62"/>
<polyline class="Stem" fill="none" stroke="#000000" stroke-width="2.73" stroke-linejoin="bevel" points="1185.08,1163.43 1185.08,1099.2"/>
<polyline class="Stem" fill="none" stroke="#000000" stroke-width="2.73" stroke-linejoin="bevel" points="1984.11,1163.43 1984.11,1099.27"/>
<polyline class="Stem" fill="none" stroke="#000000" stroke-width="2.73" stroke-linejoin="bevel" points="1566.24,1200.63 1566.24,1111.53"/>
<polyline class="Stem" fill="none" stroke="#000000" stroke-width="2.73" stroke-linejoin="bevel" points="1081.7,741.83 1081.7,640.398"/>
<polyline class="Stem" fill="none" stroke="#000000" stroke-width="2.73" stroke-linejoin="bevel" points="1042.15,1163.43 1042.15,1099.2"/>
<polyline class="Stem" fill="none" stroke="#000000" stroke-width="2.73" stroke-linejoin="bevel" points="2127.04,1188.23 2127.04,1106.62"/>
<polyline class="Stem" fill="none" stroke="#000000" stroke-width="2.73" stroke-linejoin="bevel" points="2222.33,1200.63 2222.33,1111.53"/>
<polyline class="Stem" fill="none" stroke="#000000" stroke-width="2.73" stroke-linejoin="bevel" points="1163.5,729.43 1163.5,640.398"/>
<polyline class="Stem" fill="none" stroke="#000000" stroke-width="2.73" stroke-linejoin="bevel" points="833.013,1159.16 833.013,1223.14"/>
<polyline class="Stem" fill="none" stroke="#000000" stroke-width="2.73" stroke-linejoin="bevel" points="1245.29,717.03 1245.29,640.398"/>
<polyline class="Stem" fill="none" stroke="#000000" stroke-width="2.73" stroke-linejoin="bevel" points="690.079,1134.36 690.079,1217.06"/>
<polyline class="Stem" fill="none" stroke="#000000" stroke-width="2.73" stroke-linejoin="bevel" points="1327.09,729.43 1327.09,640.398"/>
<polyline class="Stem" fill="none" stroke="#000000" stroke-width="2.73" stroke-linejoin="bevel" points="547.144,1134.36 547.144,1204.6"/>
<polyline class="Stem" fill="none" stroke="#000000" stroke-width="2.73" stroke-linejoin="bevel" points="1408.88,741.83 1408.88,658.998"/>
<polyline class="Stem" fill="none" stroke="#000000" stroke-width="2.73" stroke-linejoin="bevel" points="404.209,1134.36 404.209,1204.6"/>
<polyline class="Stem" fill="none" stroke="#000000" stroke-width="2.73" stroke-linejoin="bevel" points="472.44,741.83 472.44,640.398"/>
<polyline class="Stem" fill="none" stroke="#000000" stroke-width="2.73" stroke-linejoin="bevel" points="799.618,741.83 799.618,677.733"/>
<polyline class="Stem" fill="none" stroke="#000000" stroke-width="2.73" stroke-linejoin="bevel" points="1841.17,1163.43 1841.17,1099.2"/>
<polyline class="Stem" fill="none" stroke="#000000" stroke-width="2.73" stroke-linejoin="bevel" points="1629.62,741.83 1629.62,640.364"/>
<polyline class="Stem" fill="none" stroke="#000000" stroke-width="2.73" stroke-linejoin="bevel" points="717.823,729.43 717.823,640.398"/>
<polyline class="Stem" fill="none" stroke="#000000" stroke-width="2.73" stroke-linejoin="bevel" points="2354.32,1213.03 2354.32,1130.2"/>
<polyline class="Stem" fill="none" stroke="#000000" stroke-width="2.73" stroke-linejoin="bevel" points="2606.96,741.83 2606.96,658.998"/>
<polyline class="Stem" fill="none" stroke="#000000" stroke-width="2.73" stroke-linejoin="bevel" points="1711.42,729.43 1711.42,638.32"/>
<polyline class="Stem" fill="none" stroke="#000000" stroke-width="2.73" stroke-linejoin="bevel" points="2525.17,729.43 2525.17,621.764"/>
<polyline class="Stem" fill="none" stroke="#000000" stroke-width="2.73" stroke-linejoin="bevel" points="1793.21,717.03 1793.21,636.276"/>
<polyline class="Stem" fill="none" stroke="#000000" stroke-width="2.73" stroke-linejoin="bevel" points="2443.37,717.03 2443.37,619.72"/>
<polyline class="Stem" fill="none" stroke="#000000" stroke-width="2.73" stroke-linejoin="bevel" points="1875.01,704.63 1875.01,634.233"/>
<polyline class="Stem" fill="none" stroke="#000000" stroke-width="2.73" stroke-linejoin="bevel" points="636.029,717.03 636.029,640.398"/>
<polyline class="Stem" fill="none" stroke="#000000" stroke-width="2.73" stroke-linejoin="bevel" points="1956.8,692.23 1956.8,615.558"/>
<polyline class="Stem" fill="none" stroke="#000000" stroke-width="2.73" stroke-linejoin="bevel" points="2361.58,704.63 2361.58,617.676"/>
<polyline class="Stem" fill="none" stroke="#000000" stroke-width="2.73" stroke-linejoin="bevel" points="2279.78,692.23 2279.78,615.633"/>
<polyline class="Stem" fill="none" stroke="#000000" stroke-width="2.73" stroke-linejoin="bevel" points="1698.24,1163.43 1698.24,1099.2"/>
<polyline class="Stem" fill="none" stroke="#000000" stroke-width="2.73" stroke-linejoin="bevel" points="2079.49,679.83 2079.49,611.887"/>
<polyline class="Stem" fill="none" stroke="#000000" stroke-width="2.73" stroke-linejoin="bevel" points="922.309,779.03 922.309,689.864"/>
<path class="Note" transform="matrix(0.992,0,0,0.992,2330.72,708.598)" d="M0,4.2 C0,8.5 3.1,13.3 11.2,13.3 C21.6,13.3 32.5,4.8 32.5,-4 C32.5,-9.9 27.5,-13.2 21.3,-13.2 C11.6,-13.2 0,-5 0,4.2"/>
<path class="Note" transform="matrix(0.992,0,0,0.992,1050.84,745.798)" d="M0,4.2 C0,8.5 3.1,13.3 11.2,13.3 C21.6,13.3 32.5,4.8 32.5,-4 C32.5,-9.9 27.5,-13.2 21.3,-13.2 C11.6,-13.2 0,-5 0,4.2"/>
<path class="Note" transform="matrix(0.992,0,0,0.992,2048.63,683.798)" d="M0,4.2 C0,8.5 3.1,13.3 11.2,13.3 C21.6,13.3 32.5,4.8 32.5,-4 C32.5,-9.9 27.5,-13.2 21.3,-13.2 C11.6,-13.2 0,-5 0,4.2"/>
<path class="Note" transform="matrix(0.992,0,0,0.992,1154.22,1167.4)" d="M0,4.2 C0,8.5 3.1,13.3 11.2,13.3 C21.6,13.3 32.5,4.8 32.5,-4 C32.5,-9.9 27.5,-13.2 21.3,-13.2 C11.6,-13.2 0,-5 0,4.2"/>
<path class="Note" transform="matrix(0.992,0,0,0.992,2323.46,1217)" d="M0,4.2 C0,8.5 3.1,13.3 11.2,13.3 C21.6,13.3 32.5,4.8 32.5,-4 C32.5,-9.9 27.5,-13.2 21.3,-13.2 C11.6,-13.2 0,-5 0,4.2"/>
<path class="Note" transform="matrix(0.992,0,0,0.992,891.448,782.998)" d="M0,4.2 C0,8.5 3.1,13.3 11.2,13.3 C21.6,13.3 32.5,4.8 32.5,-4 C32.5,-9.9 27.5,-13.2 21.3,-13.2 C11.6,-13.2 0,-5 0,4.2"/>
<path class="Note" transform="matrix(0.992,0,0,0.992,2248.92,696.198)" d="M0,4.2 C0,8.5 3.1,13.3 11.2,13.3 C21.6,13.3 32.5,4.8 32.5,-4 C32.5,-9.9 27.5,-13.2 21.3,-13.2 C11.6,-13.2 0,-5 0,4.2"/>
<path class="Note" transform="matrix(0.992,0,0,0.992,768.757,745.798)" d="M0,4.2 C0,8.5 3.1,13.3 11.2,13.3 C21.6,13.3 32.5,4.8 32.5,-4 C32.5,-9.9 27.5,-13.2 21.3,-13.2 C11.6,-13.2 0,-5 0,4.2"/>
<path class="Note" transform="matrix(0.992,0,0,0.992,1925.94,696.198)" d="M0,4.2 C0,8.5 3.1,13.3 11.2,13.3 C21.6,13.3 32.5,4.8 32.5,-4 C32.5,-9.9 27.5,-13.2 21.3,-13.2 C11.6,-13.2 0,-5 0,4.2"/>
<path class="Note" transform="matrix(0.992,0,0,0.992,1844.15,708.598)" d="M0,4.2 C0,8.5 3.1,13.3 11.2,13.3 C21.6,13.3 32.5,4.8 32.5,-4 C32.5,-9.9 27.5,-13.2 21.3,-13.2 C11.6,-13.2 0,-5 0,4.2"/>
<path class="Note" transform="matrix(0.992,0,0,0.992,2130.43,683.798)" d="M0,4.2 C0,8.5 3.1,13.3 11.2,13.3 C21.6,13.3 32.5,4.8 32.5,-4 C32.5,-9.9 27.5,-13.2 21.3,-13.2 C11.6,-13.2 0,-5 0,4.2"/>
<path class="Note" transform="matrix(0.992,0,0,0.992,1762.35,720.998)" d="M0,4.2 C0,8.5 3.1,13.3 11.2,13.3 C21.6,13.3 32.5,4.8 32.5,-4 C32.5,-9.9 27.5,-13.2 21.3,-13.2 C11.6,-13.2 0,-5 0,4.2"/>
<path class="Note" transform="matrix(0.992,0,0,0.992,2412.51,720.998)" d="M0,4.2 C0,8.5 3.1,13.3 11.2,13.3 C21.6,13.3 32.5,4.8 32.5,-4 C32.5,-9.9 27.5,-13.2 21.3,-13.2 C11.6,-13.2 0,-5 0,4.2"/>
<path class="Note" transform="matrix(0.992,0,0,0.992,1680.56,733.398)" d="M0,4.2 C0,8.5 3.1,13.3 11.2,13.3 C21.6,13.3 32.5,4.8 32.5,-4 C32.5,-9.9 27.5,-13.2 21.3,-13.2 C11.6,-13.2 0,-5 0,4.2"/>
<path class="Note" transform="matrix(0.992,0,0,0.992,2494.31,733.398)" d="M0,4.2 C0,8.5 3.1,13.3 11.2,13.3 C21.6,13.3 32.5,4.8 32.5,-4 C32.5,-9.9 27.5,-13.2 21.3,-13.2 C11.6,-13.2 0,-5 0,4.2"/>
<path class="Note" transform="matrix(0.992,0,0,0.992,2191.47,1204.6)" d="M0,4.2 C0,8.5 3.1,13.3 11.2,13.3 C21.6,13.3 32.5,4.8 32.5,-4 C32.5,-9.9 27.5,-13.2 21.3,-13.2 C11.6,-13.2 0,-5 0,4.2"/>
<path class="Note" transform="matrix(0.992,0,0,0.992,2576.1,745.798)" d="M0,4.2 C0,8.5 3.1,13.3 11.2,13.3 C21.6,13.3 32.5,4.8 32.5,-4 C32.5,-9.9 27.5,-13.2 21.3,-13.2 C11.6,-13.2 0,-5 0,4.2"/>
<path class="Note" transform="matrix(0.992,0,0,0.992,441.58,745.798)" d="M0,4.2 C0,8.5 3.1,13.3 11.2,13.3 C21.6,13.3 32.5,4.8 32.5,-4 C32.5,-9.9 27.5,-13.2 21.3,-13.2 C11.6,-13.2 0,-5 0,4.2"/>
<path class="Note" transform="matrix(0.992,0,0,0.992,2096.18,1192.2)" d="M0,4.2 C0,8.5 3.1,13.3 11.2,13.3 C21.6,13.3 32.5,4.8 32.5,-4 C32.5,-9.9 27.5,-13.2 21.3,-13.2 C11.6,-13.2 0,-5 0,4.2"/>
<path class="Note" transform="matrix(0.992,0,0,0.992,1598.76,745.798)" d="M0,4.2 C0,8.5 3.1,13.3 11.2,13.3 C21.6,13.3 32.5,4.8 32.5,-4 C32.5,-9.9 27.5,-13.2 21.3,-13.2 C11.6,-13.2 0,-5 0,4.2"/>
<path class="Note" transform="matrix(0.992,0,0,0.992,1953.25,1167.4)" d="M0,4.2 C0,8.5 3.1,13.3 11.2,13.3 C21.6,13.3 32.5,4.8 32.5,-4 C32.5,-9.9 27.5,-13.2 21.3,-13.2 C11.6,-13.2 0,-5 0,4.2"/>
<path class="Note" transform="matrix(0.992,0,0,0.992,1011.29,1167.4)" d="M0,4.2 C0,8.5 3.1,13.3 11.2,13.3 C21.6,13.3 32.5,4.8 32.5,-4 C32.5,-9.9 27.5,-13.2 21.3,-13.2 C11.6,-13.2 0,-5 0,4.2"/>
<path class="Note" transform="matrix(0.992,0,0,0.992,1297.16,1167.4)" d="M0,4.2 C0,8.5 3.1,13.3 11.2,13.3 C21.6,13.3 32.5,4.8 32.5,-4 C32.5,-9.9 27.5,-13.2 21.3,-13.2 C11.6,-13.2 0,-5 0,4.2"/>
<path class="Note" transform="matrix(0.992,0,0,0.992,1378.02,745.798)" d="M0,4.2 C0,8.5 3.1,13.3 11.2,13.3 C21.6,13.3 32.5,4.8 32.5,-4 C32.5,-9.9 27.5,-13.2 21.3,-13.2 C11.6,-13.2 0,-5 0,4.2"/>
<path class="Note" transform="matrix(0.992,0,0,0.992,402.845,1130.2)" d="M0,4.2 C0,8.5 3.1,13.3 11.2,13.3 C21.6,13.3 32.5,4.8 32.5,-4 C32.5,-9.9 27.5,-13.2 21.3,-13.2 C11.6,-13.2 0,-5 0,4.2"/>
<path class="Note" transform="matrix(0.992,0,0,0.992,1810.31,1167.4)" d="M0,4.2 C0,8.5 3.1,13.3 11.2,13.3 C21.6,13.3 32.5,4.8 32.5,-4 C32.5,-9.9 27.5,-13.2 21.3,-13.2 C11.6,-13.2 0,-5 0,4.2"/>
<path class="Note" transform="matrix(0.992,0,0,0.992,1667.38,1167.4)" d="M0,4.2 C0,8.5 3.1,13.3 11.2,13.3 C21.6,13.3 32.5,4.8 32.5,-4 C32.5,-9.9 27.5,-13.2 21.3,-13.2 C11.6,-13.2 0,-5 0,4.2"/>
<path class="Note" transform="matrix(0.992,0,0,0.992,1296.23,733.398)" d="M0,4.2 C0,8.5 3.1,13.3 11.2,13.3 C21.6,13.3 32.5,4.8 32.5,-4 C32.5,-9.9 27.5,-13.2 21.3,-13.2 C11.6,-13.2 0,-5 0,4.2"/>
<path class="Note" transform="matrix(0.992,0,0,0.992,545.78,1130.2)" d="M0,4.2 C0,8.5 3.1,13.3 11.2,13.3 C21.6,13.3 32.5,4.8 32.5,-4 C32.5,-9.9 27.5,-13.2 21.3,-13.2 C11.6,-13.2 0,-5 0,4.2"/>
<path class="Note" transform="matrix(0.992,0,0,0.992,1214.43,720.998)" d="M0,4.2 C0,8.5 3.1,13.3 11.2,13.3 C21.6,13.3 32.5,4.8 32.5,-4 C32.5,-9.9 27.5,-13.2 21.3,-13.2 C11.6,-13.2 0,-5 0,4.2"/>
<path class="Note" transform="matrix(0.992,0,0,0.992,688.715,1130.2)" d="M0,4.2 C0,8.5 3.1,13.3 11.2,13.3 C21.6,13.3 32.5,4.8 32.5,-4 C32.5,-9.9 27.5,-13.2 21.3,-13.2 C11.6,-13.2 0,-5 0,4.2"/>
<path class="Note" transform="matrix(0.992,0,0,0.992,523.374,733.398)" d="M0,4.2 C0,8.5 3.1,13.3 11.2,13.3 C21.6,13.3 32.5,4.8 32.5,-4 C32.5,-9.9 27.5,-13.2 21.3,-13.2 C11.6,-13.2 0,-5 0,4.2"/>
<path class="Note" transform="matrix(0.992,0,0,0.992,605.168,720.998)" d="M0,4.2 C0,8.5 3.1,13.3 11.2,13.3 C21.6,13.3 32.5,4.8 32.5,-4 C32.5,-9.9 27.5,-13.2 21.3,-13.2 C11.6,-13.2 0,-5 0,4.2"/>
<path class="Note" transform="matrix(0.992,0,0,0.992,1132.64,733.398)" d="M0,4.2 C0,8.5 3.1,13.3 11.2,13.3 C21.6,13.3 32.5,4.8 32.5,-4 C32.5,-9.9 27.5,-13.2 21.3,-13.2 C11.6,-13.2 0,-5 0,4.2"/>
<path class="Note" transform="matrix(0.992,0,0,0.992,831.649,1155)" d="M0,4.2 C0,8.5 3.1,13.3 11.2,13.3 C21.6,13.3 32.5,4.8 32.5,-4 C32.5,-9.9 27.5,-13.2 21.3,-13.2 C11.6,-13.2 0,-5 0,4.2"/>
<path class="Note" transform="matrix(0.992,0,0,0.992,686.963,733.398)" d="M0,4.2 C0,8.5 3.1,13.3 11.2,13.3 C21.6,13.3 32.5,4.8 32.5,-4 C32.5,-9.9 27.5,-13.2 21.3,-13.2 C11.6,-13.2 0,-5 0,4.2"/>
<path class="Note" transform="matrix(0.992,0,0,0.992,1535.38,1204.6)" d="M0,4.2 C0,8.5 3.1,13.3 11.2,13.3 C21.6,13.3 32.5,4.8 32.5,-4 C32.5,-9.9 27.5,-13.2 21.3,-13.2 C11.6,-13.2 0,-5 0,4.2"/>
<path class="Note" transform="matrix(0.992,0,0,0.992,1440.09,1192.2)" d="M0,4.2 C0,8.5 3.1,13.3 11.2,13.3 C21.6,13.3 32.5,4.8 32.5,-4 C32.5,-9.9 27.5,-13.2 21.3,-13.2 C11.6,-13.2 0,-5 0,4.2"/>
<path class="Clef" transform="matrix(0.992,0,0,0.992,232.438,1179.8)" d="M12.3,51.3 C12.3,57.9 17.3,66.6 30.8,66.6 C35.5,66.6 39.6,65.4 43.2,63.2 C48.6,59.4 50,52.8 50,46.5 C50,42.6 49.4,38.1 48.4,32.4 C48.1,30.4 47.5,27.4 46.9,23.5 C56.7,20.3 64,10.1 64,-0.2 C64,-15.3 53.3,-25.5 38.7,-25.5 C37.7,-31.5 36.7,-37.4 35.9,-43 C46.4,-54.1 53.7,-66.6 53.7,-82.5 C53.7,-91.6 50.9,-99 49.3,-102.6 C46.9,-107.7 44,-111.2 42.2,-111.2 C41.5,-111.2 38.4,-110 35.1,-106.1 C28.7,-98.5 26.9,-85.7 26.9,-77.3 C26.9,-71.9 27.4,-67 29.1,-55.8 C29,-55.7 23.8,-50.4 21.7,-48.7 C12.6,-40.3 0,-28.1 0,-8.1 C0,10.6 16.3,25.3 34.9,25.3 C37.8,25.3 40.5,25 42.8,24.6 C44.7,34.2 45.9,41.2 45.9,46.5 C45.9,56.9 40.5,62.4 30.4,62.4 C28,62.4 25.9,61.9 25.7,61.9 C25.6,61.8 25.4,61.7 25.4,61.6 C25.4,61.4 25.6,61.3 25.9,61.3 C30.6,60.5 35.3,56.5 35.3,50.1 C35.3,44.7 31.2,39 23.7,39 C16.7,39 12.3,44.7 12.3,51.3 M33.2,-82.2 C34.1,-86.2 38.7,-96.7 43.9,-96.7 C45.4,-96.7 47.8,-91.9 47.8,-84.9 C47.8,-74.5 40.1,-66.7 33.2,-59.9 C32.6,-63.9 32.1,-67.8 32.1,-72 C32.1,-75.7 32.4,-79.1 33.2,-82.2 M42,20.6 C40,21 38.1,21.2 36.2,21.2 C21.9,21.2 9.7,11.2 9.7,-3.9 C9.7,-16.1 18.3,-27 27.1,-34.6 C28.8,-36.1 30.4,-37.5 31.9,-39 C32.8,-33.6 33.5,-28.9 34.2,-24.8 C25.1,-22.1 18.9,-12.5 18.9,-3.1 C18.9,3.9 24.4,13.5 32.4,13.5 C33.2,13.5 34.1,13.1 34.1,12.2 C34.1,11.3 33.1,10.8 31.9,10 C28,7.6 25.8,5 25.8,0.1 C25.8,-6 30.4,-10.9 36.2,-12.3 L42,20.6 M56.2,2.1 C56.2,9.2 53.3,16.5 46.2,19.4 C44.1,7.4 41.4,-8.5 40.7,-12.9 C49.7,-12.9 56.2,-6.8 56.2,2.1"/>
<path class="Clef" transform="matrix(0.992,0,0,0.992,232.438,708.598)" d="M12.3,51.3 C12.3,57.9 17.3,66.6 30.8,66.6 C35.5,66.6 39.6,65.4 43.2,63.2 C48.6,59.4 50,52.8 50,46.5 C50,42.6 49.4,38.1 48.4,32.4 C48.1,30.4 47.5,27.4 46.9,23.5 C56.7,20.3 64,10.1 64,-0.2 C64,-15.3 53.3,-25.5 38.7,-25.5 C37.7,-31.5 36.7,-37.4 35.9,-43 C46.4,-54.1 53.7,-66.6 53.7,-82.5 C53.7,-91.6 50.9,-99 49.3,-102.6 C46.9,-107.7 44,-111.2 42.2,-111.2 C41.5,-111.2 38.4,-110 35.1,-106.1 C28.7,-98.5 26.9,-85.7 26.9,-77.3 C26.9,-71.9 27.4,-67 29.1,-55.8 C29,-55.7 23.8,-50.4 21.7,-48.7 C12.6,-40.3 0,-28.1 0,-8.1 C0,10.6 16.3,25.3 34.9,25.3 C37.8,25.3 40.5,25 42.8,24.6 C44.7,34.2 45.9,41.2 45.9,46.5 C45.9,56.9 40.5,62.4 30.4,62.4 C28,62.4 25.9,61.9 25.7,61.9 C25.6,61.8 25.4,61.7 25.4,61.6 C25.4,61.4 25.6,61.3 25.9,61.3 C30.6,60.5 35.3,56.5 35.3,50.1 C35.3,44.7 31.2,39 23.7,39 C16.7,39 12.3,44.7 12.3,51.3 M33.2,-82.2 C34.1,-86.2 38.7,-96.7 43.9,-96.7 C45.4,-96.7 47.8,-91.9 47.8,-84.9 C47.8,-74.5 40.1,-66.7 33.2,-59.9 C32.6,-63.9 32.1,-67.8 32.1,-72 C32.1,-75.7 32.4,-79.1 33.2,-82.2 M42,20.6 C40,21 38.1,21.2 36.2,21.2 C21.9,21.2 9.7,11.2 9.7,-3.9 C9.7,-16.1 18.3,-27 27.1,-34.6 C28.8,-36.1 30.4,-37.5 31.9,-39 C32.8,-33.6 33.5,-28.9 34.2,-24.8 C25.1,-22.1 18.9,-12.5 18.9,-3.1 C18.9,3.9 24.4,13.5 32.4,13.5 C33.2,13.5 34.1,13.1 34.1,12.2 C34.1,11.3 33.1,10.8 31.9,10 C28,7.6 25.8,5 25.8,0.1 C25.8,-6 30.4,-10.9 36.2,-12.3 L42,20.6 M56.2,2.1 C56.2,9.2 53.3,16.5 46.2,19.4 C44.1,7.4 41.4,-8.5 40.7,-12.9 C49.7,-12.9 56.2,-6.8 56.2,2.1"/>
<path class="KeySig" transform="matrix(0.992,0,0,0.992,320.711,683.798)" d="M12,-15.5 C7,-15.5 4.1,-12.4 3.6,-11.8 L4,-43.9 C4,-44.7 3.4,-45.3 2.6,-45.3 L1.4,-45.3 C0.6,-45.3 0,-44.7 0,-43.9 L0.5,16.2 C0.5,17 1.1,17.6 1.9,17.6 C2.1,17.6 2.5,17.5 2.7,17.4 C11.3,13.1 20.3,4.9 20.3,-5.4 C20.3,-10.6 17.9,-15.5 12,-15.5 M3.3,12.7 L3.6,-6.8 C3.8,-7.7 5.3,-10.6 9.3,-10.6 C12.9,-10.6 13.2,-7.2 13.2,-5.1 C13.2,3.8 9.9,7.5 3.3,12.7"/>
<path class="KeySig" transform="matrix(0.992,0,0,0.992,320.711,1155)" d="M12,-15.5 C7,-15.5 4.1,-12.4 3.6,-11.8 L4,-43.9 C4,-44.7 3.4,-45.3 2.6,-45.3 L1.4,-45.3 C0.6,-45.3 0,-44.7 0,-43.9 L0.5,16.2 C0.5,17 1.1,17.6 1.9,17.6 C2.1,17.6 2.5,17.5 2.7,17.4 C11.3,13.1 20.3,4.9 20.3,-5.4 C20.3,-10.6 17.9,-15.5 12,-15.5 M3.3,12.7 L3.6,-6.8 C3.8,-7.7 5.3,-10.6 9.3,-10.6 C12.9,-10.6 13.2,-7.2 13.2,-5.1 C13.2,3.8 9.9,7.5 3.3,12.7"/>
<path class="TimeSig" transform="matrix(0.992,0,0,0.992,367.536,659.494)" d="M34.2,3.9 C33.4,6.1 31.4,13.3 26.5,13.3 C20,13.3 18.6,9.3 13.2,9.3 C12.4,9.3 11.6,9.4 10.6,9.6 C10.6,9.6 13.1,5.8 23.7,2.5 C34.3,-0.8 37,-6 37,-12 C37,-16.2 35.1,-24.5 20,-24.5 C4.9,-24.5 2.1,-15.4 2.1,-10.8 C2.1,-6.7 5.5,-3.4 9.6,-3.4 C13.7,-3.4 17,-6.7 17,-10.8 C17,-13.6 15,-16.7 12.4,-17.7 C12.1,-17.8 11.7,-18.3 11.7,-18.8 C11.7,-19.4 12.2,-20.1 14,-20.6 C14.5,-20.8 15.9,-21.1 17.4,-21.1 C23.1,-21.1 24.2,-17.6 24.2,-12.5 C24.2,-0.8 10.3,1.7 4.5,10.4 C4.5,10.4 1.5,14.6 1.5,19.3 C1.5,24 3.9,24.3 5.1,24.3 C6.7,24.3 8.4,23 8.4,21.2 C8.4,20.8 8.3,20.4 8.1,19.9 C7.5,18.5 7.3,17.4 7.3,16.6 C7.3,16.3 7.3,16 7.4,15.7 C7.5,15.1 8.3,14.1 10.7,14.1 C13.6,14.1 14.7,17.5 16.5,20.1 C18.3,22.7 21.1,24.3 24.3,24.3 C27.5,24.3 31.8,22 33.6,18.3 C35.4,14.6 37.7,7.1 37.7,4.4 C37.7,3.1 36.9,2.5 36,2.5 C35.3,2.5 34.6,2.9 34.2,3.9"/>
<path class="TimeSig" transform="matrix(0.992,0,0,0.992,364.266,708.598)" d="M20.8,12.7 L20.8,20.1 L12.5,20.1 C11.8,20.1 11.1,20.7 11.1,21.5 L11.1,23.4 C11.1,24.2 11.8,24.8 12.5,24.8 L42.8,24.8 C43.6,24.8 44.2,24.2 44.2,23.4 L44.2,21.5 C44.2,20.7 43.6,20.1 42.8,20.1 L33.9,20.1 L33.9,12.7 L42.8,12.7 C43.6,12.7 44.2,12 44.2,11.2 L44.2,9.3 C44.2,8.6 43.6,7.9 42.8,7.9 L33.9,7.9 L33.9,-8 C33.9,-8.6 33.6,-9.1 33.1,-9.3 L31.9,-9.9 C31.7,-10 31.4,-10.1 31.2,-10.1 C30.9,-10 30.5,-9.9 30.3,-9.7 L21.2,-1.4 C20.9,-1.1 20.8,-0.7 20.8,-0.3 L20.8,7.9 L9.3,7.9 C9.3,7.9 20.4,-4.1 32.2,-19.9 C32.6,-20.4 32.7,-20.9 32.7,-21.3 C32.7,-21.8 32.5,-22.2 32.4,-22.3 L30.2,-24.5 C30,-24.7 29.6,-24.9 29.2,-24.9 C28.6,-24.9 15.1,-24.9 14.4,-24.9 C13.6,-24.9 13.1,-24.3 13,-23.7 C13,-23.7 12.5,-16.3 9.9,-8.2 C7.3,-0.1 4.3,4.9 1.7,8.6 C1.7,8.6 1.4,9.1 1.4,9.7 C1.4,9.9 1.4,10.1 1.5,10.3 C1.9,11 2.5,12.1 2.5,12.1 C2.5,12.1 2.7,12.7 3.6,12.7 L20.8,12.7 "/>
<path class="Rest" transform="matrix(0.992,0,0,0.992,2595.25,1155)" d="M26.7,-20.3 C26.6,-20.3 26.4,-20.4 26.3,-20.4 C25.7,-20.4 25.2,-20.1 25,-19.6 C22.7,-15 17.9,-8.8 12.5,-7.8 C13.6,-9.1 14.3,-10.7 14.3,-12.6 C14.3,-16.5 11.1,-19.7 7.2,-19.7 C3.2,-19.7 0,-16.5 0,-12.6 C0,-7.2 5.3,-4.7 10,-4.7 C15.3,-4.7 18.8,-7.2 22.2,-10.9 L10.8,24.7 L13.5,25.5 L27.5,-18.6 C27.6,-18.7 27.6,-18.9 27.6,-19.1 C27.6,-19.6 27.3,-20 26.7,-20.3"/>
<path class="Beam" fill-rule="evenodd" d="M1040.78,1093 L1186.45,1093 L1186.45,1105.4 L1040.78,1105.4 L1040.78,1093 "/>
<path class="Beam" fill-rule="evenodd" d="M1696.87,1093 L1842.54,1093 L1842.54,1105.4 L1696.87,1105.4 L1696.87,1093 "/>
<path class="Beam" fill-rule="evenodd" d="M1955.44,609.396 L2162.65,603.196 L2162.65,615.601 L1955.44,621.801 L1955.44,609.396 "/>
<path class="Beam" fill-rule="evenodd" d="M2078.13,624.325 L2162.65,621.796 L2162.65,634.201 L2078.13,636.73 L2078.13,624.325 "/>
<path class="Beam" fill-rule="evenodd" d="M798.254,671.368 L923.673,683.768 L923.673,696.229 L798.254,683.829 L798.254,671.368 "/>
<path class="Beam" fill-rule="evenodd" d="M2278.42,609.396 L2526.53,615.596 L2526.53,628 L2278.42,621.8 L2278.42,609.396 "/>
<path class="Beam" fill-rule="evenodd" d="M2278.42,627.996 L2526.53,634.196 L2526.53,646.6 L2278.42,640.4 L2278.42,627.996 "/>
<path class="Beam" fill-rule="evenodd" d="M1628.26,634.196 L1876.37,627.996 L1876.37,640.4 L1628.26,646.6 L1628.26,634.196 "/>
<path class="Beam" fill-rule="evenodd" d="M1628.26,652.796 L1876.37,646.596 L1876.37,659 L1628.26,665.2 L1628.26,652.796 "/>
<path class="Beam" fill-rule="evenodd" d="M1080.34,634.198 L1328.45,634.198 L1328.45,646.598 L1080.34,646.598 L1080.34,634.198 "/>
<path class="Beam" fill-rule="evenodd" d="M1080.34,652.798 L1328.45,652.798 L1328.45,665.198 L1080.34,665.198 L1080.34,652.798 "/>
<path class="Beam" fill-rule="evenodd" d="M471.076,634.198 L719.187,634.198 L719.187,646.598 L471.076,646.598 L471.076,634.198 "/>
<path class="Beam" fill-rule="evenodd" d="M471.076,652.798 L719.187,652.798 L719.187,665.198 L471.076,665.198 L471.076,652.798 "/>
<path class="Beam" fill-rule="evenodd" d="M1982.74,1092.99 L2223.69,1105.39 L2223.69,1117.81 L1982.74,1105.41 L1982.74,1092.99 "/>
<path class="Beam" fill-rule="evenodd" d="M2125.68,1118.95 L2223.69,1123.99 L2223.69,1136.41 L2125.68,1131.36 L2125.68,1118.95 "/>
<path class="Beam" fill-rule="evenodd" d="M688.715,1210.79 L834.377,1216.99 L834.377,1229.4 L688.715,1223.2 L688.715,1210.79 "/>
<path class="Beam" fill-rule="evenodd" d="M402.845,1198.4 L548.508,1198.4 L548.508,1210.8 L402.845,1210.8 L402.845,1198.4 "/>
<path class="Beam" fill-rule="evenodd" d="M1326.65,1092.99 L1567.61,1105.39 L1567.61,1117.81 L1326.65,1105.41 L1326.65,1092.99 "/>
<path class="Beam" fill-rule="evenodd" d="M1469.59,1118.95 L1567.61,1123.99 L1567.61,1136.41 L1469.59,1131.36 L1469.59,1118.95 "/>
<path class="Harmony" d="M1667.38,1043.4 L1685.86,1043.4 C1690.75,1043.4 1694.49,1042.63 1697.41,1040.98 C1702.96,1037.84 1706.04,1031.57 1706.04,1023.32 C1706.04,1015.73 1703.29,1009.79 1698.23,1006.49 C1695.21,1004.57 1691.14,1003.69 1684.87,1003.69 L1667.38,1003.69 L1667.38,1006.27 L1668.42,1006.27 C1671.5,1006.33 1672.55,1006.49 1672.99,1007.04 C1673.32,1007.54 1673.32,1007.65 1673.32,1010.45 L1673.32,1036.63 C1673.32,1039.44 1673.32,1039.55 1672.99,1040.04 C1672.55,1040.59 1671.5,1040.76 1668.42,1040.81 L1667.38,1040.81 L1667.38,1043.4 M1682.61,1040.81 C1679.81,1040.81 1679.48,1040.48 1679.48,1037.79 L1679.48,1009.35 C1679.48,1006.66 1679.86,1006.27 1682.61,1006.27 L1685.47,1006.27 C1694.88,1006.27 1698.78,1011.39 1698.78,1023.54 C1698.78,1035.86 1695.26,1040.81 1686.35,1040.81 L1682.61,1040.81 "/>
<path class="Harmony" d="M1722.07,1017.77 L1712.28,1018.37 L1712.28,1020.74 L1714.54,1020.74 C1716.63,1020.79 1716.9,1021.12 1716.9,1023.49 L1716.9,1039.22 C1716.85,1040.04 1716.79,1040.37 1716.57,1040.65 C1716.19,1041.14 1715.14,1041.36 1712.78,1041.42 L1712.56,1041.42 L1712.56,1043.4 L1726.42,1043.4 L1726.42,1041.42 L1726.2,1041.42 C1722.57,1041.31 1722.07,1041.03 1722.07,1039 L1722.07,1028.82 C1722.07,1023.93 1724.77,1020.3 1728.34,1020.3 C1731.48,1020.3 1733.07,1022.55 1733.07,1027.01 L1733.07,1039.27 C1733.02,1039.99 1732.96,1040.37 1732.69,1040.65 C1732.36,1041.14 1731.26,1041.36 1728.89,1041.42 L1728.67,1041.42 L1728.67,1043.4 L1742.59,1043.4 L1742.59,1041.42 L1742.37,1041.42 C1738.74,1041.31 1738.24,1041.03 1738.24,1039.05 L1738.24,1029.32 C1738.24,1023.82 1740.72,1020.3 1744.57,1020.3 C1747.7,1020.3 1749.24,1022.66 1749.24,1027.61 L1749.24,1039.22 C1749.19,1039.99 1749.13,1040.37 1748.86,1040.65 C1748.53,1041.14 1747.43,1041.36 1745.06,1041.42 L1744.84,1041.42 L1744.84,1043.4 L1758.76,1043.4 L1758.76,1041.42 L1758.54,1041.42 C1754.91,1041.31 1754.41,1041.03 1754.41,1039 L1754.41,1026.51 C1754.41,1023.1 1754.08,1021.95 1752.65,1020.08 C1751.06,1018.04 1748.8,1016.94 1746.16,1016.94 C1742.59,1016.94 1739.95,1018.65 1737.58,1022.44 C1736.65,1019.14 1733.68,1016.94 1729.99,1016.94 C1726.64,1016.94 1724.22,1018.54 1722.07,1022 L1722.07,1017.77 "/>
<path class="Harmony" d="M441.581,572.198 L460.061,572.198 C464.956,572.198 468.696,571.428 471.611,569.778 C477.166,566.643 480.246,560.373 480.246,552.123 C480.246,544.533 477.496,538.593 472.436,535.293 C469.411,533.368 465.341,532.488 459.071,532.488 L441.581,532.488 L441.581,535.073 L442.626,535.073 C445.706,535.128 446.751,535.293 447.191,535.843 C447.521,536.338 447.521,536.448 447.521,539.253 L447.521,565.433 C447.521,568.238 447.521,568.348 447.191,568.843 C446.751,569.393 445.706,569.558 442.626,569.613 L441.581,569.613 L441.581,572.198 M456.816,569.613 C454.011,569.613 453.681,569.283 453.681,566.588 L453.681,538.153 C453.681,535.458 454.066,535.073 456.816,535.073 L459.676,535.073 C469.081,535.073 472.986,540.188 472.986,552.343 C472.986,564.663 469.466,569.613 460.556,569.613 L456.816,569.613 "/>
<path class="Harmony" d="M496.276,546.568 L486.486,547.173 L486.486,549.538 L488.741,549.538 C490.831,549.593 491.106,549.923 491.106,552.288 L491.106,568.018 C491.051,568.843 490.996,569.173 490.776,569.448 C490.391,569.943 489.346,570.163 486.981,570.218 L486.761,570.218 L486.761,572.198 L500.621,572.198 L500.621,570.218 L500.401,570.218 C496.771,570.108 496.276,569.833 496.276,567.798 L496.276,557.623 C496.276,552.728 498.971,549.098 502.546,549.098 C505.681,549.098 507.276,551.353 507.276,555.808 L507.276,568.073 C507.221,568.788 507.166,569.173 506.891,569.448 C506.561,569.943 505.461,570.163 503.096,570.218 L502.876,570.218 L502.876,572.198 L516.791,572.198 L516.791,570.218 L516.571,570.218 C512.941,570.108 512.446,569.833 512.446,567.853 L512.446,558.118 C512.446,552.618 514.921,549.098 518.771,549.098 C521.906,549.098 523.446,551.463 523.446,556.413 L523.446,568.018 C523.391,568.788 523.336,569.173 523.061,569.448 C522.731,569.943 521.631,570.163 519.266,570.218 L519.046,570.218 L519.046,572.198 L532.961,572.198 L532.961,570.218 L532.741,570.218 C529.111,570.108 528.616,569.833 528.616,567.798 L528.616,555.313 C528.616,551.903 528.286,550.748 526.856,548.878 C525.261,546.843 523.006,545.743 520.366,545.743 C516.791,545.743 514.151,547.448 511.786,551.243 C510.851,547.943 507.881,545.743 504.196,545.743 C500.841,545.743 498.421,547.338 496.276,550.803 L496.276,546.568 "/>
<path class="Harmony" d="M436.299,1003.3 L434.209,1003.3 L432.064,1006.6 C428.489,1003.8 426.069,1002.86 422.054,1002.86 C417.709,1002.86 414.299,1004.07 410.834,1006.88 C405.389,1011.28 402.859,1016.83 402.859,1024.26 C402.859,1029.87 404.454,1034.54 407.699,1038.12 C411.109,1041.97 416.169,1044.22 421.449,1044.22 C426.069,1044.22 429.314,1042.79 432.889,1039.22 L434.924,1044.17 L437.234,1044.17 L437.234,1032.07 C437.234,1029.26 437.234,1029.15 437.564,1028.66 C438.059,1028.05 439.049,1027.89 442.184,1027.89 L443.009,1027.89 L443.009,1025.3 L425.519,1025.3 L425.519,1027.89 L426.564,1027.89 C431.184,1027.89 431.569,1028.16 431.569,1031.24 C431.569,1033.61 431.184,1035.75 430.469,1037.07 C429.094,1039.77 425.574,1041.64 421.999,1041.64 C418.424,1041.64 414.904,1039.82 413.034,1037.07 C410.999,1033.99 410.119,1030.14 410.119,1024.26 C410.119,1011.99 414.189,1005.45 421.834,1005.45 C428.104,1005.45 432.449,1009.96 434.704,1018.76 L437.069,1018.76 L436.299,1003.3 "/>
<path class="Harmony" d="M456.838,1017.77 L447.048,1018.37 L447.048,1020.74 L449.303,1020.74 C451.393,1020.79 451.668,1021.12 451.668,1023.49 L451.668,1039.22 C451.613,1040.04 451.558,1040.37 451.338,1040.65 C450.953,1041.14 449.908,1041.36 447.543,1041.42 L447.323,1041.42 L447.323,1043.4 L461.183,1043.4 L461.183,1041.42 L460.963,1041.42 C457.333,1041.31 456.838,1041.03 456.838,1039 L456.838,1028.82 C456.838,1023.93 459.533,1020.3 463.108,1020.3 C466.243,1020.3 467.838,1022.55 467.838,1027.01 L467.838,1039.27 C467.783,1039.99 467.728,1040.37 467.453,1040.65 C467.123,1041.14 466.023,1041.36 463.658,1041.42 L463.438,1041.42 L463.438,1043.4 L477.353,1043.4 L477.353,1041.42 L477.133,1041.42 C473.503,1041.31 473.008,1041.03 473.008,1039.05 L473.008,1029.32 C473.008,1023.82 475.483,1020.3 479.333,1020.3 C482.468,1020.3 484.008,1022.66 484.008,1027.61 L484.008,1039.22 C483.953,1039.99 483.898,1040.37 483.623,1040.65 C483.293,1041.14 482.193,1041.36 479.828,1041.42 L479.608,1041.42 L479.608,1043.4 L493.523,1043.4 L493.523,1041.42 L493.303,1041.42 C489.673,1041.31 489.178,1041.03 489.178,1039 L489.178,1026.51 C489.178,1023.1 488.848,1021.95 487.418,1020.08 C485.823,1018.04 483.568,1016.94 480.928,1016.94 C477.353,1016.94 474.713,1018.65 472.348,1022.44 C471.413,1019.14 468.443,1016.94 464.758,1016.94 C461.403,1016.94 458.983,1018.54 456.838,1022 L456.838,1017.77 "/>
<path class="Harmony" d="M1378.02,572.198 L1396.5,572.198 C1401.4,572.198 1405.14,571.428 1408.05,569.778 C1413.61,566.643 1416.69,560.373 1416.69,552.123 C1416.69,544.533 1413.94,538.593 1408.88,535.293 C1405.85,533.368 1401.78,532.488 1395.51,532.488 L1378.02,532.488 L1378.02,535.073 L1379.07,535.073 C1382.15,535.128 1383.19,535.293 1383.63,535.843 C1383.96,536.338 1383.96,536.448 1383.96,539.253 L1383.96,565.433 C1383.96,568.238 1383.96,568.348 1383.63,568.843 C1383.19,569.393 1382.15,569.558 1379.07,569.613 L1378.02,569.613 L1378.02,572.198 M1393.26,569.613 C1390.45,569.613 1390.12,569.283 1390.12,566.588 L1390.12,538.153 C1390.12,535.458 1390.51,535.073 1393.26,535.073 L1396.12,535.073 C1405.52,535.073 1409.43,540.188 1409.43,552.343 C1409.43,564.663 1405.91,569.613 1397,569.613 L1393.26,569.613 "/>
<path class="Harmony" d="M1432.72,546.568 L1422.93,547.173 L1422.93,549.538 L1425.18,549.538 C1427.27,549.593 1427.55,549.923 1427.55,552.288 L1427.55,568.018 C1427.49,568.843 1427.44,569.173 1427.22,569.448 C1426.83,569.943 1425.79,570.163 1423.42,570.218 L1423.2,570.218 L1423.2,572.198 L1437.06,572.198 L1437.06,570.218 L1436.84,570.218 C1433.21,570.108 1432.72,569.833 1432.72,567.798 L1432.72,557.623 C1432.72,552.728 1435.41,549.098 1438.99,549.098 C1442.12,549.098 1443.72,551.353 1443.72,555.808 L1443.72,568.073 C1443.66,568.788 1443.61,569.173 1443.33,569.448 C1443,569.943 1441.9,570.163 1439.54,570.218 L1439.32,570.218 L1439.32,572.198 L1453.23,572.198 L1453.23,570.218 L1453.01,570.218 C1449.38,570.108 1448.89,569.833 1448.89,567.853 L1448.89,558.118 C1448.89,552.618 1451.36,549.098 1455.21,549.098 C1458.35,549.098 1459.89,551.463 1459.89,556.413 L1459.89,568.018 C1459.83,568.788 1459.78,569.173 1459.5,569.448 C1459.17,569.943 1458.07,570.163 1455.71,570.218 L1455.49,570.218 L1455.49,572.198 L1469.4,572.198 L1469.4,570.218 L1469.18,570.218 C1465.55,570.108 1465.06,569.833 1465.06,567.798 L1465.06,555.313 C1465.06,551.903 1464.73,550.748 1463.3,548.878 C1461.7,546.843 1459.45,545.743 1456.81,545.743 C1453.23,545.743 1450.59,547.448 1448.23,551.243 C1447.29,547.943 1444.32,545.743 1440.64,545.743 C1437.28,545.743 1434.86,547.338 1432.72,550.803 L1432.72,546.568 "/>
<path class="Harmony" d="M722.168,1003.3 L720.078,1003.3 L717.933,1006.6 C714.358,1003.8 711.938,1002.86 707.923,1002.86 C703.578,1002.86 700.168,1004.07 696.703,1006.88 C691.258,1011.28 688.728,1016.83 688.728,1024.26 C688.728,1029.87 690.323,1034.54 693.568,1038.12 C696.978,1041.97 702.038,1044.22 707.318,1044.22 C711.938,1044.22 715.183,1042.79 718.758,1039.22 L720.793,1044.17 L723.103,1044.17 L723.103,1032.07 C723.103,1029.26 723.103,1029.15 723.433,1028.66 C723.928,1028.05 724.918,1027.89 728.053,1027.89 L728.878,1027.89 L728.878,1025.3 L711.388,1025.3 L711.388,1027.89 L712.433,1027.89 C717.053,1027.89 717.438,1028.16 717.438,1031.24 C717.438,1033.61 717.053,1035.75 716.338,1037.07 C714.963,1039.77 711.443,1041.64 707.868,1041.64 C704.293,1041.64 700.773,1039.82 698.903,1037.07 C696.868,1033.99 695.988,1030.14 695.988,1024.26 C695.988,1011.99 700.058,1005.45 707.703,1005.45 C713.973,1005.45 718.318,1009.96 720.573,1018.76 L722.938,1018.76 L722.168,1003.3 "/>
<path class="Harmony" d="M742.707,1017.77 L732.917,1018.37 L732.917,1020.74 L735.172,1020.74 C737.262,1020.79 737.537,1021.12 737.537,1023.49 L737.537,1039.22 C737.482,1040.04 737.427,1040.37 737.207,1040.65 C736.822,1041.14 735.777,1041.36 733.412,1041.42 L733.192,1041.42 L733.192,1043.4 L747.052,1043.4 L747.052,1041.42 L746.832,1041.42 C743.202,1041.31 742.707,1041.03 742.707,1039 L742.707,1028.82 C742.707,1023.93 745.402,1020.3 748.977,1020.3 C752.112,1020.3 753.707,1022.55 753.707,1027.01 L753.707,1039.27 C753.652,1039.99 753.597,1040.37 753.322,1040.65 C752.992,1041.14 751.892,1041.36 749.527,1041.42 L749.307,1041.42 L749.307,1043.4 L763.222,1043.4 L763.222,1041.42 L763.002,1041.42 C759.372,1041.31 758.877,1041.03 758.877,1039.05 L758.877,1029.32 C758.877,1023.82 761.352,1020.3 765.202,1020.3 C768.337,1020.3 769.877,1022.66 769.877,1027.61 L769.877,1039.22 C769.822,1039.99 769.767,1040.37 769.492,1040.65 C769.162,1041.14 768.062,1041.36 765.697,1041.42 L765.477,1041.42 L765.477,1043.4 L779.392,1043.4 L779.392,1041.42 L779.172,1041.42 C775.542,1041.31 775.047,1041.03 775.047,1039 L775.047,1026.51 C775.047,1023.1 774.717,1021.95 773.287,1020.08 C771.692,1018.04 769.437,1016.94 766.797,1016.94 C763.222,1016.94 760.582,1018.65 758.217,1022.44 C757.282,1019.14 754.312,1016.94 750.627,1016.94 C747.272,1016.94 744.852,1018.54 742.707,1022 L742.707,1017.77 "/>
<path class="Harmony" d="M1974.47,1002.92 L1972.16,1002.92 L1959.51,1034.98 C1958.03,1039.27 1956.6,1040.59 1953.46,1040.81 L1953.24,1040.81 L1953.24,1043.4 L1967.82,1043.4 L1967.82,1040.81 L1966.72,1040.81 C1963.75,1040.81 1962.26,1039.77 1962.26,1037.68 C1962.26,1036.96 1962.43,1036.3 1962.76,1035.37 L1964.57,1030.53 L1979.15,1030.53 L1982.12,1037.9 C1982.45,1038.78 1982.56,1039.11 1982.56,1039.38 C1982.56,1040.26 1981.18,1040.81 1979.15,1040.81 L1976.84,1040.81 L1976.84,1043.4 L1993.89,1043.4 L1993.89,1040.81 L1993.12,1040.81 C1990.26,1040.76 1989.76,1040.43 1988.5,1037.29 L1974.47,1002.92 M1971.78,1011.94 L1977.99,1027.56 L1965.67,1027.56 L1971.78,1011.94 "/>
<path class="Harmony" d="M1999.08,1017.99 L2001.5,1018.37 L2002.49,1014.03 C2003.32,1010.4 2003.7,1009.85 2005.3,1009.85 C2005.57,1009.85 2006.01,1009.85 2006.51,1009.9 C2013.27,1010.23 2013.27,1010.23 2015.8,1010.23 C2016.52,1010.23 2017.78,1010.23 2019.32,1010.18 L2015.58,1017.71 C2011.51,1025.8 2011.02,1026.79 2009.64,1030.2 C2007.94,1034.32 2007.06,1037.79 2007.06,1040.1 C2007.06,1042.63 2008.38,1044.17 2010.52,1044.17 C2013.16,1044.17 2014.21,1042.41 2014.15,1037.62 C2013.88,1029.7 2014.87,1025.85 2020.75,1012.98 C2021.74,1010.84 2022.79,1008.64 2023.78,1006.49 L2023.78,1004.9 C2020.48,1005.17 2018.72,1005.28 2015.31,1005.28 C2010.52,1005.28 2006.73,1005.12 2000.79,1004.68 L1999.08,1017.99 "/>
<path class="Harmony" d="M1050.85,572.198 L1069.33,572.198 C1074.22,572.198 1077.96,571.428 1080.88,569.778 C1086.43,566.643 1089.51,560.373 1089.51,552.123 C1089.51,544.533 1086.76,538.593 1081.7,535.293 C1078.68,533.368 1074.61,532.488 1068.34,532.488 L1050.85,532.488 L1050.85,535.073 L1051.89,535.073 C1054.97,535.128 1056.02,535.293 1056.46,535.843 C1056.79,536.338 1056.79,536.448 1056.79,539.253 L1056.79,565.433 C1056.79,568.238 1056.79,568.348 1056.46,568.843 C1056.02,569.393 1054.97,569.558 1051.89,569.613 L1050.85,569.613 L1050.85,572.198 M1066.08,569.613 C1063.28,569.613 1062.95,569.283 1062.95,566.588 L1062.95,538.153 C1062.95,535.458 1063.33,535.073 1066.08,535.073 L1068.94,535.073 C1078.35,535.073 1082.25,540.188 1082.25,552.343 C1082.25,564.663 1078.73,569.613 1069.82,569.613 L1066.08,569.613 "/>
<path class="Harmony" d="M1105.54,546.568 L1095.75,547.173 L1095.75,549.538 L1098,549.538 C1100.09,549.593 1100.37,549.923 1100.37,552.288 L1100.37,568.018 C1100.31,568.843 1100.26,569.173 1100.04,569.448 C1099.65,569.943 1098.61,570.163 1096.24,570.218 L1096.02,570.218 L1096.02,572.198 L1109.88,572.198 L1109.88,570.218 L1109.66,570.218 C1106.03,570.108 1105.54,569.833 1105.54,567.798 L1105.54,557.623 C1105.54,552.728 1108.23,549.098 1111.81,549.098 C1114.94,549.098 1116.54,551.353 1116.54,555.808 L1116.54,568.073 C1116.48,568.788 1116.43,569.173 1116.15,569.448 C1115.82,569.943 1114.72,570.163 1112.36,570.218 L1112.14,570.218 L1112.14,572.198 L1126.05,572.198 L1126.05,570.218 L1125.83,570.218 C1122.2,570.108 1121.71,569.833 1121.71,567.853 L1121.71,558.118 C1121.71,552.618 1124.18,549.098 1128.03,549.098 C1131.17,549.098 1132.71,551.463 1132.71,556.413 L1132.71,568.018 C1132.65,568.788 1132.6,569.173 1132.32,569.448 C1131.99,569.943 1130.89,570.163 1128.53,570.218 L1128.31,570.218 L1128.31,572.198 L1142.22,572.198 L1142.22,570.218 L1142,570.218 C1138.37,570.108 1137.88,569.833 1137.88,567.798 L1137.88,555.313 C1137.88,551.903 1137.55,550.748 1136.12,548.878 C1134.52,546.843 1132.27,545.743 1129.63,545.743 C1126.05,545.743 1123.41,547.448 1121.05,551.243 C1120.11,547.943 1117.14,545.743 1113.46,545.743 C1110.1,545.743 1107.68,547.338 1105.54,550.803 L1105.54,546.568 "/>
<path class="Harmony" d="M1011.29,1043.4 L1029.77,1043.4 C1034.66,1043.4 1038.4,1042.63 1041.32,1040.98 C1046.87,1037.84 1049.95,1031.57 1049.95,1023.32 C1049.95,1015.73 1047.2,1009.79 1042.14,1006.49 C1039.12,1004.57 1035.05,1003.69 1028.78,1003.69 L1011.29,1003.69 L1011.29,1006.27 L1012.33,1006.27 C1015.41,1006.33 1016.46,1006.49 1016.9,1007.04 C1017.23,1007.54 1017.23,1007.65 1017.23,1010.45 L1017.23,1036.63 C1017.23,1039.44 1017.23,1039.55 1016.9,1040.04 C1016.46,1040.59 1015.41,1040.76 1012.33,1040.81 L1011.29,1040.81 L1011.29,1043.4 M1026.52,1040.81 C1023.72,1040.81 1023.39,1040.48 1023.39,1037.79 L1023.39,1009.35 C1023.39,1006.66 1023.77,1006.27 1026.52,1006.27 L1029.38,1006.27 C1038.79,1006.27 1042.69,1011.39 1042.69,1023.54 C1042.69,1035.86 1039.17,1040.81 1030.26,1040.81 L1026.52,1040.81 "/>
<path class="Harmony" d="M1065.98,1017.77 L1056.19,1018.37 L1056.19,1020.74 L1058.45,1020.74 C1060.54,1020.79 1060.81,1021.12 1060.81,1023.49 L1060.81,1039.22 C1060.76,1040.04 1060.7,1040.37 1060.48,1040.65 C1060.1,1041.14 1059.05,1041.36 1056.69,1041.42 L1056.47,1041.42 L1056.47,1043.4 L1070.33,1043.4 L1070.33,1041.42 L1070.11,1041.42 C1066.48,1041.31 1065.98,1041.03 1065.98,1039 L1065.98,1028.82 C1065.98,1023.93 1068.68,1020.3 1072.25,1020.3 C1075.39,1020.3 1076.98,1022.55 1076.98,1027.01 L1076.98,1039.27 C1076.93,1039.99 1076.87,1040.37 1076.6,1040.65 C1076.27,1041.14 1075.17,1041.36 1072.8,1041.42 L1072.58,1041.42 L1072.58,1043.4 L1086.5,1043.4 L1086.5,1041.42 L1086.28,1041.42 C1082.65,1041.31 1082.15,1041.03 1082.15,1039.05 L1082.15,1029.32 C1082.15,1023.82 1084.63,1020.3 1088.48,1020.3 C1091.61,1020.3 1093.15,1022.66 1093.15,1027.61 L1093.15,1039.22 C1093.1,1039.99 1093.04,1040.37 1092.77,1040.65 C1092.44,1041.14 1091.34,1041.36 1088.97,1041.42 L1088.75,1041.42 L1088.75,1043.4 L1102.67,1043.4 L1102.67,1041.42 L1102.45,1041.42 C1098.82,1041.31 1098.32,1041.03 1098.32,1039 L1098.32,1026.51 C1098.32,1023.1 1097.99,1021.95 1096.56,1020.08 C1094.97,1018.04 1092.71,1016.94 1090.07,1016.94 C1086.5,1016.94 1083.86,1018.65 1081.49,1022.44 C1080.56,1019.14 1077.59,1016.94 1073.9,1016.94 C1070.55,1016.94 1068.13,1018.54 1065.98,1022 L1065.98,1017.77 "/>
<path class="Harmony" d="M2576.1,572.198 L2594.58,572.198 C2599.48,572.198 2603.22,571.428 2606.13,569.778 C2611.69,566.643 2614.77,560.373 2614.77,552.123 C2614.77,544.533 2612.02,538.593 2606.96,535.293 C2603.93,533.368 2599.86,532.488 2593.59,532.488 L2576.1,532.488 L2576.1,535.073 L2577.15,535.073 C2580.23,535.128 2581.27,535.293 2581.71,535.843 C2582.04,536.338 2582.04,536.448 2582.04,539.253 L2582.04,565.433 C2582.04,568.238 2582.04,568.348 2581.71,568.843 C2581.27,569.393 2580.23,569.558 2577.15,569.613 L2576.1,569.613 L2576.1,572.198 M2591.34,569.613 C2588.53,569.613 2588.2,569.283 2588.2,566.588 L2588.2,538.153 C2588.2,535.458 2588.59,535.073 2591.34,535.073 L2594.2,535.073 C2603.6,535.073 2607.51,540.188 2607.51,552.343 C2607.51,564.663 2603.99,569.613 2595.08,569.613 L2591.34,569.613 "/>
<path class="Harmony" d="M2630.8,546.568 L2621.01,547.173 L2621.01,549.538 L2623.26,549.538 C2625.35,549.593 2625.63,549.923 2625.63,552.288 L2625.63,568.018 C2625.57,568.843 2625.52,569.173 2625.3,569.448 C2624.91,569.943 2623.87,570.163 2621.5,570.218 L2621.28,570.218 L2621.28,572.198 L2635.14,572.198 L2635.14,570.218 L2634.92,570.218 C2631.29,570.108 2630.8,569.833 2630.8,567.798 L2630.8,557.623 C2630.8,552.728 2633.49,549.098 2637.07,549.098 C2640.2,549.098 2641.8,551.353 2641.8,555.808 L2641.8,568.073 C2641.74,568.788 2641.69,569.173 2641.41,569.448 C2641.08,569.943 2639.98,570.163 2637.62,570.218 L2637.4,570.218 L2637.4,572.198 L2651.31,572.198 L2651.31,570.218 L2651.09,570.218 C2647.46,570.108 2646.97,569.833 2646.97,567.853 L2646.97,558.118 C2646.97,552.618 2649.44,549.098 2653.29,549.098 C2656.43,549.098 2657.97,551.463 2657.97,556.413 L2657.97,568.018 C2657.91,568.788 2657.86,569.173 2657.58,569.448 C2657.25,569.943 2656.15,570.163 2653.79,570.218 L2653.57,570.218 L2653.57,572.198 L2667.48,572.198 L2667.48,570.218 L2667.26,570.218 C2663.63,570.108 2663.14,569.833 2663.14,567.798 L2663.14,555.313 C2663.14,551.903 2662.81,550.748 2661.38,548.878 C2659.78,546.843 2657.53,545.743 2654.89,545.743 C2651.31,545.743 2648.67,547.448 2646.31,551.243 C2645.37,547.943 2642.4,545.743 2638.72,545.743 C2635.36,545.743 2632.94,547.338 2630.8,550.803 L2630.8,546.568 "/>
<path class="Harmony" d="M1598.76,572.198 L1617.24,572.198 C1622.14,572.198 1625.88,571.428 1628.79,569.778 C1634.35,566.643 1637.43,560.373 1637.43,552.123 C1637.43,544.533 1634.68,538.593 1629.62,535.293 C1626.59,533.368 1622.52,532.488 1616.25,532.488 L1598.76,532.488 L1598.76,535.073 L1599.81,535.073 C1602.89,535.128 1603.93,535.293 1604.37,535.843 C1604.7,536.338 1604.7,536.448 1604.7,539.253 L1604.7,565.433 C1604.7,568.238 1604.7,568.348 1604.37,568.843 C1603.93,569.393 1602.89,569.558 1599.81,569.613 L1598.76,569.613 L1598.76,572.198 M1614,569.613 C1611.19,569.613 1610.86,569.283 1610.86,566.588 L1610.86,538.153 C1610.86,535.458 1611.25,535.073 1614,535.073 L1616.86,535.073 C1626.26,535.073 1630.17,540.188 1630.17,552.343 C1630.17,564.663 1626.65,569.613 1617.74,569.613 L1614,569.613 "/>
<path class="Harmony" d="M1653.46,546.568 L1643.67,547.173 L1643.67,549.538 L1645.92,549.538 C1648.01,549.593 1648.29,549.923 1648.29,552.288 L1648.29,568.018 C1648.23,568.843 1648.18,569.173 1647.96,569.448 C1647.57,569.943 1646.53,570.163 1644.16,570.218 L1643.94,570.218 L1643.94,572.198 L1657.8,572.198 L1657.8,570.218 L1657.58,570.218 C1653.95,570.108 1653.46,569.833 1653.46,567.798 L1653.46,557.623 C1653.46,552.728 1656.15,549.098 1659.73,549.098 C1662.86,549.098 1664.46,551.353 1664.46,555.808 L1664.46,568.073 C1664.4,568.788 1664.35,569.173 1664.07,569.448 C1663.74,569.943 1662.64,570.163 1660.28,570.218 L1660.06,570.218 L1660.06,572.198 L1673.97,572.198 L1673.97,570.218 L1673.75,570.218 C1670.12,570.108 1669.63,569.833 1669.63,567.853 L1669.63,558.118 C1669.63,552.618 1672.1,549.098 1675.95,549.098 C1679.09,549.098 1680.63,551.463 1680.63,556.413 L1680.63,568.018 C1680.57,568.788 1680.52,569.173 1680.24,569.448 C1679.91,569.943 1678.81,570.163 1676.45,570.218 L1676.23,570.218 L1676.23,572.198 L1690.14,572.198 L1690.14,570.218 L1689.92,570.218 C1686.29,570.108 1685.8,569.833 1685.8,567.798 L1685.8,555.313 C1685.8,551.903 1685.47,550.748 1684.04,548.878 C1682.44,546.843 1680.19,545.743 1677.55,545.743 C1673.97,545.743 1671.33,547.448 1668.97,551.243 C1668.03,547.943 1665.06,545.743 1661.38,545.743 C1658.02,545.743 1655.6,547.338 1653.46,550.803 L1653.46,546.568 "/>
<path class="Harmony" d="M2270.15,531.718 L2267.84,531.718 L2255.19,563.783 C2253.71,568.073 2252.28,569.393 2249.14,569.613 L2248.92,569.613 L2248.92,572.198 L2263.5,572.198 L2263.5,569.613 L2262.4,569.613 C2259.43,569.613 2257.94,568.568 2257.94,566.478 C2257.94,565.763 2258.11,565.103 2258.44,564.168 L2260.25,559.328 L2274.83,559.328 L2277.8,566.698 C2278.13,567.578 2278.24,567.908 2278.24,568.183 C2278.24,569.063 2276.86,569.613 2274.83,569.613 L2272.52,569.613 L2272.52,572.198 L2289.57,572.198 L2289.57,569.613 L2288.8,569.613 C2285.94,569.558 2285.44,569.228 2284.18,566.093 L2270.15,531.718 M2267.46,540.738 L2273.67,556.358 L2261.35,556.358 L2267.46,540.738 "/>
<path class="Harmony" d="M2294.76,546.788 L2297.18,547.173 L2298.17,542.828 C2299,539.198 2299.38,538.648 2300.98,538.648 C2301.25,538.648 2301.69,538.648 2302.19,538.703 C2308.95,539.033 2308.95,539.033 2311.48,539.033 C2312.2,539.033 2313.46,539.033 2315,538.978 L2311.26,546.513 C2307.19,554.598 2306.7,555.588 2305.32,558.998 C2303.62,563.123 2302.74,566.588 2302.74,568.898 C2302.74,571.428 2304.06,572.968 2306.2,572.968 C2308.84,572.968 2309.89,571.208 2309.83,566.423 C2309.56,558.503 2310.55,554.653 2316.43,541.783 C2317.42,539.638 2318.47,537.438 2319.46,535.293 L2319.46,533.698 C2316.16,533.973 2314.4,534.083 2310.99,534.083 C2306.2,534.083 2302.41,533.918 2296.47,533.478 L2294.76,546.788 "/>
<path class="Harmony" d="M768.758,572.198 L787.238,572.198 C792.133,572.198 795.873,571.428 798.788,569.778 C804.343,566.643 807.423,560.373 807.423,552.123 C807.423,544.533 804.673,538.593 799.613,535.293 C796.588,533.368 792.518,532.488 786.248,532.488 L768.758,532.488 L768.758,535.073 L769.803,535.073 C772.883,535.128 773.928,535.293 774.368,535.843 C774.698,536.338 774.698,536.448 774.698,539.253 L774.698,565.433 C774.698,568.238 774.698,568.348 774.368,568.843 C773.928,569.393 772.883,569.558 769.803,569.613 L768.758,569.613 L768.758,572.198 M783.993,569.613 C781.188,569.613 780.858,569.283 780.858,566.588 L780.858,538.153 C780.858,535.458 781.243,535.073 783.993,535.073 L786.853,535.073 C796.258,535.073 800.163,540.188 800.163,552.343 C800.163,564.663 796.643,569.613 787.733,569.613 L783.993,569.613 "/>
<path class="Harmony" d="M823.453,546.568 L813.663,547.173 L813.663,549.538 L815.918,549.538 C818.008,549.593 818.283,549.923 818.283,552.288 L818.283,568.018 C818.228,568.843 818.173,569.173 817.953,569.448 C817.568,569.943 816.523,570.163 814.158,570.218 L813.938,570.218 L813.938,572.198 L827.798,572.198 L827.798,570.218 L827.578,570.218 C823.948,570.108 823.453,569.833 823.453,567.798 L823.453,557.623 C823.453,552.728 826.148,549.098 829.723,549.098 C832.858,549.098 834.453,551.353 834.453,555.808 L834.453,568.073 C834.398,568.788 834.343,569.173 834.068,569.448 C833.738,569.943 832.638,570.163 830.273,570.218 L830.053,570.218 L830.053,572.198 L843.968,572.198 L843.968,570.218 L843.748,570.218 C840.118,570.108 839.623,569.833 839.623,567.853 L839.623,558.118 C839.623,552.618 842.098,549.098 845.948,549.098 C849.083,549.098 850.623,551.463 850.623,556.413 L850.623,568.018 C850.568,568.788 850.513,569.173 850.238,569.448 C849.908,569.943 848.808,570.163 846.443,570.218 L846.223,570.218 L846.223,572.198 L860.138,572.198 L860.138,570.218 L859.918,570.218 C856.288,570.108 855.793,569.833 855.793,567.798 L855.793,555.313 C855.793,551.903 855.463,550.748 854.033,548.878 C852.438,546.843 850.183,545.743 847.543,545.743 C843.968,545.743 841.328,547.448 838.963,551.243 C838.028,547.943 835.058,545.743 831.373,545.743 C828.018,545.743 825.598,547.338 823.453,550.803 L823.453,546.568 "/>
<path class="Harmony" d="M1318.39,1002.92 L1316.08,1002.92 L1303.43,1034.98 C1301.94,1039.27 1300.51,1040.59 1297.38,1040.81 L1297.16,1040.81 L1297.16,1043.4 L1311.73,1043.4 L1311.73,1040.81 L1310.63,1040.81 C1307.66,1040.81 1306.18,1039.77 1306.18,1037.68 C1306.18,1036.96 1306.34,1036.3 1306.67,1035.37 L1308.49,1030.53 L1323.06,1030.53 L1326.03,1037.9 C1326.36,1038.78 1326.47,1039.11 1326.47,1039.38 C1326.47,1040.26 1325.1,1040.81 1323.06,1040.81 L1320.75,1040.81 L1320.75,1043.4 L1337.8,1043.4 L1337.8,1040.81 L1337.03,1040.81 C1334.17,1040.76 1333.68,1040.43 1332.41,1037.29 L1318.39,1002.92 M1315.69,1011.94 L1321.91,1027.56 L1309.59,1027.56 L1315.69,1011.94 "/>
<path class="Harmony" d="M1343,1017.99 L1345.42,1018.37 L1346.41,1014.03 C1347.23,1010.4 1347.62,1009.85 1349.21,1009.85 C1349.49,1009.85 1349.93,1009.85 1350.42,1009.9 C1357.19,1010.23 1357.19,1010.23 1359.72,1010.23 C1360.43,1010.23 1361.7,1010.23 1363.24,1010.18 L1359.5,1017.71 C1355.43,1025.8 1354.93,1026.79 1353.56,1030.2 C1351.85,1034.32 1350.97,1037.79 1350.97,1040.1 C1350.97,1042.63 1352.29,1044.17 1354.44,1044.17 C1357.08,1044.17 1358.12,1042.41 1358.07,1037.62 C1357.79,1029.7 1358.78,1025.85 1364.67,1012.98 C1365.66,1010.84 1366.7,1008.64 1367.69,1006.49 L1367.69,1004.9 C1364.39,1005.17 1362.63,1005.28 1359.22,1005.28 C1354.44,1005.28 1350.64,1005.12 1344.7,1004.68 L1343,1017.99 "/>
<path class="Harmony" d="M1959.39,532.103 L1957.3,532.103 L1955.16,535.403 C1951.58,532.598 1949.16,531.663 1945.15,531.663 C1940.8,531.663 1937.39,532.873 1933.93,535.678 C1928.48,540.078 1925.95,545.633 1925.95,553.058 C1925.95,558.668 1927.55,563.343 1930.79,566.918 C1934.2,570.768 1939.26,573.023 1944.54,573.023 C1949.16,573.023 1952.41,571.593 1955.98,568.018 L1958.02,572.968 L1960.33,572.968 L1960.33,560.868 C1960.33,558.063 1960.33,557.953 1960.66,557.458 C1961.15,556.853 1962.14,556.688 1965.28,556.688 L1966.1,556.688 L1966.1,554.103 L1948.61,554.103 L1948.61,556.688 L1949.66,556.688 C1954.28,556.688 1954.66,556.963 1954.66,560.043 C1954.66,562.408 1954.28,564.553 1953.56,565.873 C1952.19,568.568 1948.67,570.438 1945.09,570.438 C1941.52,570.438 1938,568.623 1936.13,565.873 C1934.09,562.793 1933.21,558.943 1933.21,553.058 C1933.21,540.793 1937.28,534.248 1944.93,534.248 C1951.2,534.248 1955.54,538.758 1957.8,547.558 L1960.16,547.558 L1959.39,532.103 "/>
<path class="Harmony" d="M1979.93,546.568 L1970.14,547.173 L1970.14,549.538 L1972.4,549.538 C1974.49,549.593 1974.76,549.923 1974.76,552.288 L1974.76,568.018 C1974.71,568.843 1974.65,569.173 1974.43,569.448 C1974.05,569.943 1973,570.163 1970.64,570.218 L1970.42,570.218 L1970.42,572.198 L1984.28,572.198 L1984.28,570.218 L1984.06,570.218 C1980.43,570.108 1979.93,569.833 1979.93,567.798 L1979.93,557.623 C1979.93,552.728 1982.63,549.098 1986.2,549.098 C1989.34,549.098 1990.93,551.353 1990.93,555.808 L1990.93,568.073 C1990.88,568.788 1990.82,569.173 1990.55,569.448 C1990.22,569.943 1989.12,570.163 1986.75,570.218 L1986.53,570.218 L1986.53,572.198 L2000.45,572.198 L2000.45,570.218 L2000.23,570.218 C1996.6,570.108 1996.1,569.833 1996.1,567.853 L1996.1,558.118 C1996.1,552.618 1998.58,549.098 2002.43,549.098 C2005.56,549.098 2007.1,551.463 2007.1,556.413 L2007.1,568.018 C2007.05,568.788 2006.99,569.173 2006.72,569.448 C2006.39,569.943 2005.29,570.163 2002.92,570.218 L2002.7,570.218 L2002.7,572.198 L2016.62,572.198 L2016.62,570.218 L2016.4,570.218 C2012.77,570.108 2012.27,569.833 2012.27,567.798 L2012.27,555.313 C2012.27,551.903 2011.94,550.748 2010.51,548.878 C2008.92,546.843 2006.66,545.743 2004.02,545.743 C2000.45,545.743 1997.81,547.448 1995.44,551.243 C1994.51,547.943 1991.54,545.743 1987.85,545.743 C1984.5,545.743 1982.08,547.338 1979.93,550.803 L1979.93,546.568 "/>
<path class="Harmony" d="M2323.46,1043.4 L2341.94,1043.4 C2346.84,1043.4 2350.58,1042.63 2353.49,1040.98 C2359.05,1037.84 2362.13,1031.57 2362.13,1023.32 C2362.13,1015.73 2359.38,1009.79 2354.32,1006.49 C2351.29,1004.57 2347.22,1003.69 2340.95,1003.69 L2323.46,1003.69 L2323.46,1006.27 L2324.51,1006.27 C2327.59,1006.33 2328.63,1006.49 2329.07,1007.04 C2329.4,1007.54 2329.4,1007.65 2329.4,1010.45 L2329.4,1036.63 C2329.4,1039.44 2329.4,1039.55 2329.07,1040.04 C2328.63,1040.59 2327.59,1040.76 2324.51,1040.81 L2323.46,1040.81 L2323.46,1043.4 M2338.7,1040.81 C2335.89,1040.81 2335.56,1040.48 2335.56,1037.79 L2335.56,1009.35 C2335.56,1006.66 2335.95,1006.27 2338.7,1006.27 L2341.56,1006.27 C2350.96,1006.27 2354.87,1011.39 2354.87,1023.54 C2354.87,1035.86 2351.35,1040.81 2342.44,1040.81 L2338.7,1040.81 "/>
<path class="Harmony" d="M2378.16,1017.77 L2368.37,1018.37 L2368.37,1020.74 L2370.62,1020.74 C2372.71,1020.79 2372.99,1021.12 2372.99,1023.49 L2372.99,1039.22 C2372.93,1040.04 2372.88,1040.37 2372.66,1040.65 C2372.27,1041.14 2371.23,1041.36 2368.86,1041.42 L2368.64,1041.42 L2368.64,1043.4 L2382.5,1043.4 L2382.5,1041.42 L2382.28,1041.42 C2378.65,1041.31 2378.16,1041.03 2378.16,1039 L2378.16,1028.82 C2378.16,1023.93 2380.85,1020.3 2384.43,1020.3 C2387.56,1020.3 2389.16,1022.55 2389.16,1027.01 L2389.16,1039.27 C2389.1,1039.99 2389.05,1040.37 2388.77,1040.65 C2388.44,1041.14 2387.34,1041.36 2384.98,1041.42 L2384.76,1041.42 L2384.76,1043.4 L2398.67,1043.4 L2398.67,1041.42 L2398.45,1041.42 C2394.82,1041.31 2394.33,1041.03 2394.33,1039.05 L2394.33,1029.32 C2394.33,1023.82 2396.8,1020.3 2400.65,1020.3 C2403.79,1020.3 2405.33,1022.66 2405.33,1027.61 L2405.33,1039.22 C2405.27,1039.99 2405.22,1040.37 2404.94,1040.65 C2404.61,1041.14 2403.51,1041.36 2401.15,1041.42 L2400.93,1041.42 L2400.93,1043.4 L2414.84,1043.4 L2414.84,1041.42 L2414.62,1041.42 C2410.99,1041.31 2410.5,1041.03 2410.5,1039 L2410.5,1026.51 C2410.5,1023.1 2410.17,1021.95 2408.74,1020.08 C2407.14,1018.04 2404.89,1016.94 2402.25,1016.94 C2398.67,1016.94 2396.03,1018.65 2393.67,1022.44 C2392.73,1019.14 2389.76,1016.94 2386.08,1016.94 C2382.72,1016.94 2380.3,1018.54 2378.16,1022 L2378.16,1017.77 "/>
<path class="Harmony" d="M2504.66,1043.4 L2523.14,1043.4 C2528.03,1043.4 2531.77,1042.63 2534.69,1040.98 C2540.24,1037.84 2543.32,1031.57 2543.32,1023.32 C2543.32,1015.73 2540.57,1009.79 2535.51,1006.49 C2532.49,1004.57 2528.42,1003.69 2522.15,1003.69 L2504.66,1003.69 L2504.66,1006.27 L2505.7,1006.27 C2508.78,1006.33 2509.83,1006.49 2510.27,1007.04 C2510.6,1007.54 2510.6,1007.65 2510.6,1010.45 L2510.6,1036.63 C2510.6,1039.44 2510.6,1039.55 2510.27,1040.04 C2509.83,1040.59 2508.78,1040.76 2505.7,1040.81 L2504.66,1040.81 L2504.66,1043.4 M2519.89,1040.81 C2517.09,1040.81 2516.76,1040.48 2516.76,1037.79 L2516.76,1009.35 C2516.76,1006.66 2517.14,1006.27 2519.89,1006.27 L2522.75,1006.27 C2532.16,1006.27 2536.06,1011.39 2536.06,1023.54 C2536.06,1035.86 2532.54,1040.81 2523.63,1040.81 L2519.89,1040.81 "/>
<path class="Harmony" d="M2559.35,1017.77 L2549.56,1018.37 L2549.56,1020.74 L2551.82,1020.74 C2553.91,1020.79 2554.18,1021.12 2554.18,1023.49 L2554.18,1039.22 C2554.13,1040.04 2554.07,1040.37 2553.85,1040.65 C2553.47,1041.14 2552.42,1041.36 2550.06,1041.42 L2549.84,1041.42 L2549.84,1043.4 L2563.7,1043.4 L2563.7,1041.42 L2563.48,1041.42 C2559.85,1041.31 2559.35,1041.03 2559.35,1039 L2559.35,1028.82 C2559.35,1023.93 2562.05,1020.3 2565.62,1020.3 C2568.76,1020.3 2570.35,1022.55 2570.35,1027.01 L2570.35,1039.27 C2570.3,1039.99 2570.24,1040.37 2569.97,1040.65 C2569.64,1041.14 2568.54,1041.36 2566.17,1041.42 L2565.95,1041.42 L2565.95,1043.4 L2579.87,1043.4 L2579.87,1041.42 L2579.65,1041.42 C2576.02,1041.31 2575.52,1041.03 2575.52,1039.05 L2575.52,1029.32 C2575.52,1023.82 2578,1020.3 2581.85,1020.3 C2584.98,1020.3 2586.52,1022.66 2586.52,1027.61 L2586.52,1039.22 C2586.47,1039.99 2586.41,1040.37 2586.14,1040.65 C2585.81,1041.14 2584.71,1041.36 2582.34,1041.42 L2582.12,1041.42 L2582.12,1043.4 L2596.04,1043.4 L2596.04,1041.42 L2595.82,1041.42 C2592.19,1041.31 2591.69,1041.03 2591.69,1039 L2591.69,1026.51 C2591.69,1023.1 2591.36,1021.95 2589.93,1020.08 C2588.34,1018.04 2586.08,1016.94 2583.44,1016.94 C2579.87,1016.94 2577.23,1018.65 2574.86,1022.44 C2573.93,1019.14 2570.96,1016.94 2567.27,1016.94 C2563.92,1016.94 2561.5,1018.54 2559.35,1022 L2559.35,1017.77 "/>
<path class="NoteDot" transform="matrix(0.992,0,0,0.992,2368.09,1217)" d="M0,0 C0,2.8 2.2,5 5,5 C7.8,5 10,2.8 10,0 C10,-2.8 7.8,-5 5,-5 C2.2,-5 0,-2.8 0,0"/>
</svg>
