<?xml version="1.0" encoding="UTF-8" standalone="no"?>
<svg width="2977.2px" height="4208.4px" viewBox="0 0 2977.2 4208.4"
 xmlns="http://www.w3.org/2000/svg" xmlns:xlink="http://www.w3.org/1999/xlink" version="1.2" baseProfile="tiny">
<title>ペチカ</title>
<desc>Generated by MuseScore Studio 4.4.1</desc>
<path class="" fill="#ffffff" fill-rule="evenodd" d="M0,0 L2977.2,0 L2977.2,4208.4 L0,4208.4 L0,0 "/>
<polyline class="StaffLines" fill="none" stroke="#000000" stroke-width="2.73" stroke-linejoin="bevel" points="212.598,634.198 2764.6,634.198"/>
<polyline class="StaffLines" fill="none" stroke="#000000" stroke-width="2.73" stroke-linejoin="bevel" points="212.598,658.998 2764.6,658.998"/>
<polyline class="StaffLines" fill="none" stroke="#000000" stroke-width="2.73" stroke-linejoin="bevel" points="212.598,683.798 2764.6,683.798"/>
<polyline class="StaffLines" fill="none" stroke="#000000" stroke-width="2.73" stroke-linejoin="bevel" points="212.598,708.598 2764.6,708.598"/>
<polyline class="StaffLines" fill="none" stroke="#000000" stroke-width="2.73" stroke-linejoin="bevel" points="212.598,733.398 2764.6,733.398"/>
<polyline class="StaffLines" fill="none" stroke="#000000" stroke-width="2.73" stroke-linejoin="bevel" points="212.598,1105.4 2764.6,1105.4"/>
<polyline class="StaffLines" fill="none" stroke="#000000" stroke-width="2.73" stroke-linejoin="bevel" points="212.598,1130.2 2764.6,1130.2"/>
<polyline class="StaffLines" fill="none" stroke="#000000" stroke-width="2.73" stroke-linejoin="bevel" points="212.598,1155 2764.6,1155"/>
<polyline class="StaffLines" fill="none" stroke="#000000" stroke-width="2.73" stroke-linejoin="bevel" points="212.598,1179.8 2764.6,1179.8"/>
<polyline class="StaffLines" fill="none" stroke="#000000" stroke-width="2.73" stroke-linejoin="bevel" points="212.598,1204.6 2764.6,1204.6"/>
<path class="Text" d="M1340.32,276.3 C1341.64,274.54 1341.97,274.21 1343.62,272.23 C1348.02,267.28 1359.13,253.64 1363.31,248.03 C1368.15,241.54 1368.81,240.99 1370.9,240.99 C1373.1,240.99 1373.54,241.43 1380.8,249.13 C1395.32,264.75 1407.86,277.07 1418.09,285.54 C1422.38,289.28 1425.24,291.7 1425.79,292.14 C1426.01,292.36 1426.89,293.24 1427.88,294.01 L1432.06,284.99 C1423.59,280.37 1400.71,259.58 1385.31,242.53 C1377.39,233.73 1375.52,232.41 1371.12,232.41 C1366.17,232.41 1363.31,234.5 1357.15,242.86 C1344.72,258.7 1337.35,267.06 1334.71,268.05 L1340.32,276.3 M1414.46,220.31 C1407.53,220.31 1401.92,225.92 1401.92,232.74 C1401.92,239.67 1407.53,245.28 1414.46,245.28 C1421.28,245.28 1426.89,239.67 1426.89,232.74 C1426.89,225.81 1421.39,220.31 1414.46,220.31 M1414.46,224.93 C1418.75,224.93 1422.27,228.45 1422.27,232.74 C1422.27,237.14 1418.75,240.66 1414.46,240.66 C1410.06,240.66 1406.54,237.14 1406.54,232.74 C1406.54,228.45 1410.06,224.93 1414.46,224.93 M1522.81,214.37 C1519.29,216.57 1516.43,217.78 1510.27,219.65 C1496.19,223.83 1478.15,226.58 1464.07,226.58 C1462.42,226.58 1460.77,226.58 1457.69,226.36 C1459.34,229.88 1459.67,230.87 1460.33,233.73 C1476.5,233.07 1485.96,232.08 1492.89,230.65 C1492.89,240.33 1492.78,246.49 1492.56,251.33 L1460.99,251.33 C1454.72,251.33 1453.07,251.22 1449.44,250.56 L1449.44,258.92 C1453.4,258.48 1455.38,258.37 1460.99,258.37 L1491.9,258.37 C1491.13,267.83 1489.26,273.88 1485.19,279.93 C1479.8,288.07 1471.44,294.23 1459.45,298.85 C1462.42,301.27 1463.41,302.37 1465.39,305.67 C1478.81,299.18 1487.06,292.25 1492.78,282.68 C1496.96,275.75 1499.05,268.71 1499.93,258.37 L1526.88,258.37 C1532.49,258.37 1534.47,258.48 1538.43,258.92 L1538.43,250.56 C1534.8,251.22 1533.15,251.33 1526.88,251.33 L1500.48,251.33 C1500.59,247.04 1500.7,239.89 1500.81,229.33 C1509.5,227.57 1516.98,225.37 1525.01,222.51 C1527.1,221.74 1527.1,221.74 1528.42,221.41 L1522.81,214.37 M1575.39,234.94 C1569.89,234.94 1567.25,234.83 1563.51,234.17 L1563.62,242.53 C1567.58,241.98 1568.79,241.98 1575.28,241.98 L1595.3,241.87 C1593.87,254.19 1592.22,260.35 1588.48,268.05 C1582.43,280.37 1572.97,290.05 1559.88,296.98 C1562.63,299.4 1563.51,300.28 1565.49,303.47 C1577.92,295.99 1588.15,285.65 1594.31,274.32 C1599.15,265.08 1601.68,255.95 1603.11,241.87 L1633.91,241.76 C1633.8,258.04 1632.81,272.12 1631.16,280.81 C1629.07,291.7 1627.31,294.34 1621.92,294.34 C1618.29,294.34 1613.67,293.46 1607.73,291.48 C1608.72,294.34 1608.94,295.88 1608.94,298.41 C1608.94,298.74 1608.94,299.07 1608.94,299.73 C1614.77,301.05 1619.06,301.6 1622.58,301.6 C1632.48,301.6 1635.78,297.64 1638.53,282.57 C1639.96,274.98 1641.28,258.37 1641.61,244.07 C1641.72,240.11 1641.83,239.12 1642.49,237.47 L1638.42,233.95 C1636.22,234.61 1636.11,234.72 1631.16,234.72 L1603.66,234.83 C1603.99,231.75 1603.99,230.43 1604.21,227.02 C1604.65,215.36 1604.65,215.36 1605.09,212.83 L1596.18,212.61 C1596.51,214.59 1596.62,215.8 1596.62,218.33 C1596.62,223.17 1596.4,229.22 1595.96,234.83 L1575.39,234.94 "/>
<path class="MeasureNumber" d="M233.391,1027.48 L231.231,1027.48 L212.591,1046.76 L212.591,1048.44 L223.871,1048.44 L223.231,1050.88 C222.431,1053.92 222.431,1053.92 218.951,1053.92 L218.231,1053.92 L217.991,1055.8 L230.431,1055.8 L230.631,1053.92 L229.911,1053.92 C227.271,1053.92 226.711,1053.72 226.711,1052.84 C226.711,1052.52 226.791,1052.12 227.111,1050.88 L227.791,1048.44 L232.351,1048.44 L232.951,1046.28 L228.351,1046.28 L233.391,1027.48 M224.471,1046.28 L215.511,1046.28 L227.871,1033.56 L224.471,1046.28 "/>
<polyline class="BarLine" fill="none" stroke="#000000" stroke-width="4.46" stroke-linejoin="bevel" points="1167.58,632.834 1167.58,734.762"/>
<polyline class="BarLine" fill="none" stroke="#000000" stroke-width="4.46" stroke-linejoin="bevel" points="2762.37,632.834 2762.37,734.762"/>
<polyline class="BarLine" fill="none" stroke="#000000" stroke-width="4.46" stroke-linejoin="bevel" points="1962.22,1104.03 1962.22,1205.96"/>
<polyline class="BarLine" fill="none" stroke="#000000" stroke-width="4.46" stroke-linejoin="bevel" points="1101.64,1104.03 1101.64,1205.96"/>
<polyline class="BarLine" fill="none" stroke="#000000" stroke-width="4.46" stroke-linejoin="bevel" points="2740.42,1104.03 2740.42,1205.96"/>
<polyline class="BarLine" fill="none" stroke="#000000" stroke-width="13.64" stroke-linejoin="bevel" points="2757.78,1104.03 2757.78,1205.96"/>
<polyline class="BarLine" fill="none" stroke="#000000" stroke-width="4.46" stroke-linejoin="bevel" points="1956.97,632.834 1956.97,734.762"/>
<path class="Accidental" transform="matrix(0.992,0,0,0.992,1505.24,1167.4)" d="M12,-15.5 C7,-15.5 4.1,-12.4 3.6,-11.8 L4,-43.9 C4,-44.7 3.4,-45.3 2.6,-45.3 L1.4,-45.3 C0.6,-45.3 0,-44.7 0,-43.9 L0.5,16.2 C0.5,17 1.1,17.6 1.9,17.6 C2.1,17.6 2.5,17.5 2.7,17.4 C11.3,13.1 20.3,4.9 20.3,-5.4 C20.3,-10.6 17.9,-15.5 12,-15.5 M3.3,12.7 L3.6,-6.8 C3.8,-7.7 5.3,-10.6 9.3,-10.6 C12.9,-10.6 13.2,-7.2 13.2,-5.1 C13.2,3.8 9.9,7.5 3.3,12.7"/>
<polyline class="LedgerLine" fill="none" stroke="#000000" stroke-width="3.97" stroke-linejoin="bevel" points="744.694,1229.4 794.279,1229.4"/>
<polyline class="LedgerLine" fill="none" stroke="#000000" stroke-width="3.97" stroke-linejoin="bevel" points="349.231,1229.4 398.815,1229.4"/>
<polyline class="LedgerLine" fill="none" stroke="#000000" stroke-width="3.97" stroke-linejoin="bevel" points="2367.11,758.198 2416.69,758.198"/>
<polyline class="LedgerLine" fill="none" stroke="#000000" stroke-width="3.97" stroke-linejoin="bevel" points="1988.02,1229.4 2037.6,1229.4"/>
<polyline class="Stem" fill="none" stroke="#000000" stroke-width="2.73" stroke-linejoin="bevel" points="1891.99,1163.43 1891.99,1080.47"/>
<polyline class="Stem" fill="none" stroke="#000000" stroke-width="2.73" stroke-linejoin="bevel" points="2310.56,729.43 2310.56,640.312"/>
<polyline class="Stem" fill="none" stroke="#000000" stroke-width="2.73" stroke-linejoin="bevel" points="907.943,704.63 907.943,630.075"/>
<polyline class="Stem" fill="none" stroke="#000000" stroke-width="2.73" stroke-linejoin="bevel" points="784.235,1225.43 784.235,1154.92"/>
<polyline class="Stem" fill="none" stroke="#000000" stroke-width="2.73" stroke-linejoin="bevel" points="1004.03,704.63 1004.03,632.122"/>
<polyline class="Stem" fill="none" stroke="#000000" stroke-width="2.73" stroke-linejoin="bevel" points="685.369,1175.83 685.369,1105.51"/>
<polyline class="Stem" fill="none" stroke="#000000" stroke-width="2.73" stroke-linejoin="bevel" points="2521.89,1175.83 2521.89,1105.32"/>
<polyline class="Stem" fill="none" stroke="#000000" stroke-width="2.73" stroke-linejoin="bevel" points="1100.12,704.63 1100.12,634.169"/>
<polyline class="Stem" fill="none" stroke="#000000" stroke-width="2.73" stroke-linejoin="bevel" points="1532.94,1171.56 1532.94,1235.43"/>
<polyline class="Stem" fill="none" stroke="#000000" stroke-width="2.73" stroke-linejoin="bevel" points="586.503,1200.63 586.503,1113.7"/>
<polyline class="Stem" fill="none" stroke="#000000" stroke-width="2.73" stroke-linejoin="bevel" points="1463.57,1175.83 1463.57,1105.44"/>
<polyline class="Stem" fill="none" stroke="#000000" stroke-width="2.73" stroke-linejoin="bevel" points="2423.02,1163.43 2423.02,1099.28"/>
<polyline class="Stem" fill="none" stroke="#000000" stroke-width="2.73" stroke-linejoin="bevel" points="487.637,1213.03 487.637,1121.89"/>
<polyline class="Stem" fill="none" stroke="#000000" stroke-width="2.73" stroke-linejoin="bevel" points="1267.47,700.365 1267.47,770.472"/>
<polyline class="Stem" fill="none" stroke="#000000" stroke-width="2.73" stroke-linejoin="bevel" points="811.856,692.23 811.856,628.027"/>
<polyline class="Stem" fill="none" stroke="#000000" stroke-width="2.73" stroke-linejoin="bevel" points="2324.15,1175.83 2324.15,1105.51"/>
<polyline class="Stem" fill="none" stroke="#000000" stroke-width="2.73" stroke-linejoin="bevel" points="1331.53,675.565 1331.53,764.525"/>
<polyline class="Stem" fill="none" stroke="#000000" stroke-width="2.73" stroke-linejoin="bevel" points="1631.8,1134.36 1631.8,1223.36"/>
<polyline class="Stem" fill="none" stroke="#000000" stroke-width="2.73" stroke-linejoin="bevel" points="1427.62,675.565 1427.62,752.17"/>
<polyline class="Stem" fill="none" stroke="#000000" stroke-width="2.73" stroke-linejoin="bevel" points="523.593,729.43 523.593,640.355"/>
<polyline class="Stem" fill="none" stroke="#000000" stroke-width="2.73" stroke-linejoin="bevel" points="388.771,1225.43 388.771,1130.09"/>
<polyline class="Stem" fill="none" stroke="#000000" stroke-width="2.73" stroke-linejoin="bevel" points="2225.29,1200.63 2225.29,1113.7"/>
<polyline class="Stem" fill="none" stroke="#000000" stroke-width="2.73" stroke-linejoin="bevel" points="1523.7,700.365 1523.7,764.227"/>
<polyline class="Stem" fill="none" stroke="#000000" stroke-width="2.73" stroke-linejoin="bevel" points="883.101,1213.03 883.101,1148.88"/>
<polyline class="Stem" fill="none" stroke="#000000" stroke-width="2.73" stroke-linejoin="bevel" points="1619.79,663.165 1619.79,733.484"/>
<polyline class="Stem" fill="none" stroke="#000000" stroke-width="2.73" stroke-linejoin="bevel" points="1760.16,1138.63 1760.16,1068.32"/>
<polyline class="Stem" fill="none" stroke="#000000" stroke-width="2.73" stroke-linejoin="bevel" points="2694.91,704.63 2694.91,634.315"/>
<polyline class="Stem" fill="none" stroke="#000000" stroke-width="2.73" stroke-linejoin="bevel" points="2126.42,1213.03 2126.42,1121.89"/>
<polyline class="Stem" fill="none" stroke="#000000" stroke-width="2.73" stroke-linejoin="bevel" points="1715.88,675.565 1715.88,739.513"/>
<polyline class="Stem" fill="none" stroke="#000000" stroke-width="2.73" stroke-linejoin="bevel" points="2598.82,729.43 2598.82,642.504"/>
<polyline class="Stem" fill="none" stroke="#000000" stroke-width="2.73" stroke-linejoin="bevel" points="1841.46,704.63 1841.46,621.798"/>
<polyline class="Stem" fill="none" stroke="#000000" stroke-width="2.73" stroke-linejoin="bevel" points="2502.74,741.83 2502.74,650.693"/>
<polyline class="Stem" fill="none" stroke="#000000" stroke-width="2.73" stroke-linejoin="bevel" points="1826.08,1163.43 1826.08,1074.4"/>
<polyline class="Stem" fill="none" stroke="#000000" stroke-width="2.73" stroke-linejoin="bevel" points="715.768,704.63 715.768,634.242"/>
<polyline class="Stem" fill="none" stroke="#000000" stroke-width="2.73" stroke-linejoin="bevel" points="2027.56,1225.43 2027.56,1130.09"/>
<polyline class="Stem" fill="none" stroke="#000000" stroke-width="2.73" stroke-linejoin="bevel" points="981.967,1200.63 981.967,1117.8"/>
<polyline class="Stem" fill="none" stroke="#000000" stroke-width="2.73" stroke-linejoin="bevel" points="1364.7,1175.83 1364.7,1108.5"/>
<polyline class="Stem" fill="none" stroke="#000000" stroke-width="2.73" stroke-linejoin="bevel" points="619.681,729.43 619.681,637.298"/>
<polyline class="Stem" fill="none" stroke="#000000" stroke-width="2.73" stroke-linejoin="bevel" points="2118.39,692.23 2118.39,628.085"/>
<polyline class="Stem" fill="none" stroke="#000000" stroke-width="2.73" stroke-linejoin="bevel" points="1265.84,1200.63 1265.84,1111.56"/>
<polyline class="Stem" fill="none" stroke="#000000" stroke-width="2.73" stroke-linejoin="bevel" points="2406.65,754.23 2406.65,658.882"/>
<polyline class="Stem" fill="none" stroke="#000000" stroke-width="2.73" stroke-linejoin="bevel" points="2214.47,717.03 2214.47,634.198"/>
<polyline class="Stem" fill="none" stroke="#000000" stroke-width="2.73" stroke-linejoin="bevel" points="2620.75,1175.83 2620.75,1093"/>
<path class="Note" transform="matrix(0.992,0,0,0.992,2087.53,696.198)" d="M0,4.2 C0,8.5 3.1,13.3 11.2,13.3 C21.6,13.3 32.5,4.8 32.5,-4 C32.5,-9.9 27.5,-13.2 21.3,-13.2 C11.6,-13.2 0,-5 0,4.2"/>
<path class="Note" transform="matrix(0.992,0,0,0.992,588.82,733.398)" d="M0,4.2 C0,8.5 3.1,13.3 11.2,13.3 C21.6,13.3 32.5,4.8 32.5,-4 C32.5,-9.9 27.5,-13.2 21.3,-13.2 C11.6,-13.2 0,-5 0,4.2"/>
<path class="Note" transform="matrix(0.992,0,0,0.992,2279.7,733.398)" d="M0,4.2 C0,8.5 3.1,13.3 11.2,13.3 C21.6,13.3 32.5,4.8 32.5,-4 C32.5,-9.9 27.5,-13.2 21.3,-13.2 C11.6,-13.2 0,-5 0,4.2"/>
<path class="Note" transform="matrix(0.992,0,0,0.992,1861.13,1167.4)" d="M0,4.2 C0,8.5 3.1,13.3 11.2,13.3 C21.6,13.3 32.5,4.8 32.5,-4 C32.5,-9.9 27.5,-13.2 21.3,-13.2 C11.6,-13.2 0,-5 0,4.2"/>
<path class="Note" transform="matrix(0.992,0,0,0.992,1234.97,1204.6)" d="M0,4.2 C0,8.5 3.1,13.3 11.2,13.3 C21.6,13.3 32.5,4.8 32.5,-4 C32.5,-9.9 27.5,-13.2 21.3,-13.2 C11.6,-13.2 0,-5 0,4.2"/>
<path class="Note" transform="matrix(0.992,0,0,0.992,2375.79,758.198)" d="M0,4.2 C0,8.5 3.1,13.3 11.2,13.3 C21.6,13.3 32.5,4.8 32.5,-4 C32.5,-9.9 27.5,-13.2 21.3,-13.2 C11.6,-13.2 0,-5 0,4.2"/>
<path class="Note" transform="matrix(0.992,0,0,0.992,1795.21,1167.4)" d="M0,4.2 C0,8.5 3.1,13.3 11.2,13.3 C21.6,13.3 32.5,4.8 32.5,-4 C32.5,-9.9 27.5,-13.2 21.3,-13.2 C11.6,-13.2 0,-5 0,4.2"/>
<path class="Note" transform="matrix(0.992,0,0,0.992,1996.7,1229.4)" d="M0,4.2 C0,8.5 3.1,13.3 11.2,13.3 C21.6,13.3 32.5,4.8 32.5,-4 C32.5,-9.9 27.5,-13.2 21.3,-13.2 C11.6,-13.2 0,-5 0,4.2"/>
<path class="Note" transform="matrix(0.992,0,0,0.992,1810.6,708.598)" d="M0,4.2 C0,8.5 3.1,13.3 11.2,13.3 C21.6,13.3 32.5,4.8 32.5,-4 C32.5,-9.9 27.5,-13.2 21.3,-13.2 C11.6,-13.2 0,-5 0,4.2"/>
<path class="Note" transform="matrix(0.992,0,0,0.992,2471.88,745.798)" d="M0,4.2 C0,8.5 3.1,13.3 11.2,13.3 C21.6,13.3 32.5,4.8 32.5,-4 C32.5,-9.9 27.5,-13.2 21.3,-13.2 C11.6,-13.2 0,-5 0,4.2"/>
<path class="Note" transform="matrix(0.992,0,0,0.992,1714.52,671.398)" d="M0,4.2 C0,8.5 3.1,13.3 11.2,13.3 C21.6,13.3 32.5,4.8 32.5,-4 C32.5,-9.9 27.5,-13.2 21.3,-13.2 C11.6,-13.2 0,-5 0,4.2"/>
<path class="Note" transform="matrix(0.992,0,0,0.992,2567.96,733.398)" d="M0,4.2 C0,8.5 3.1,13.3 11.2,13.3 C21.6,13.3 32.5,4.8 32.5,-4 C32.5,-9.9 27.5,-13.2 21.3,-13.2 C11.6,-13.2 0,-5 0,4.2"/>
<path class="Note" transform="matrix(0.992,0,0,0.992,1729.3,1142.6)" d="M0,4.2 C0,8.5 3.1,13.3 11.2,13.3 C21.6,13.3 32.5,4.8 32.5,-4 C32.5,-9.9 27.5,-13.2 21.3,-13.2 C11.6,-13.2 0,-5 0,4.2"/>
<path class="Note" transform="matrix(0.992,0,0,0.992,2095.56,1217)" d="M0,4.2 C0,8.5 3.1,13.3 11.2,13.3 C21.6,13.3 32.5,4.8 32.5,-4 C32.5,-9.9 27.5,-13.2 21.3,-13.2 C11.6,-13.2 0,-5 0,4.2"/>
<path class="Note" transform="matrix(0.992,0,0,0.992,2664.05,708.598)" d="M0,4.2 C0,8.5 3.1,13.3 11.2,13.3 C21.6,13.3 32.5,4.8 32.5,-4 C32.5,-9.9 27.5,-13.2 21.3,-13.2 C11.6,-13.2 0,-5 0,4.2"/>
<path class="Note" transform="matrix(0.992,0,0,0.992,1618.43,658.998)" d="M0,4.2 C0,8.5 3.1,13.3 11.2,13.3 C21.6,13.3 32.5,4.8 32.5,-4 C32.5,-9.9 27.5,-13.2 21.3,-13.2 C11.6,-13.2 0,-5 0,4.2"/>
<path class="Note" transform="matrix(0.992,0,0,0.992,1630.44,1130.2)" d="M0,4.2 C0,8.5 3.1,13.3 11.2,13.3 C21.6,13.3 32.5,4.8 32.5,-4 C32.5,-9.9 27.5,-13.2 21.3,-13.2 C11.6,-13.2 0,-5 0,4.2"/>
<path class="Note" transform="matrix(0.992,0,0,0.992,1522.34,696.198)" d="M0,4.2 C0,8.5 3.1,13.3 11.2,13.3 C21.6,13.3 32.5,4.8 32.5,-4 C32.5,-9.9 27.5,-13.2 21.3,-13.2 C11.6,-13.2 0,-5 0,4.2"/>
<path class="Note" transform="matrix(0.992,0,0,0.992,492.733,733.398)" d="M0,4.2 C0,8.5 3.1,13.3 11.2,13.3 C21.6,13.3 32.5,4.8 32.5,-4 C32.5,-9.9 27.5,-13.2 21.3,-13.2 C11.6,-13.2 0,-5 0,4.2"/>
<path class="Note" transform="matrix(0.992,0,0,0.992,2194.43,1204.6)" d="M0,4.2 C0,8.5 3.1,13.3 11.2,13.3 C21.6,13.3 32.5,4.8 32.5,-4 C32.5,-9.9 27.5,-13.2 21.3,-13.2 C11.6,-13.2 0,-5 0,4.2"/>
<path class="Note" transform="matrix(0.992,0,0,0.992,1426.25,671.398)" d="M0,4.2 C0,8.5 3.1,13.3 11.2,13.3 C21.6,13.3 32.5,4.8 32.5,-4 C32.5,-9.9 27.5,-13.2 21.3,-13.2 C11.6,-13.2 0,-5 0,4.2"/>
<path class="Note" transform="matrix(0.992,0,0,0.992,1330.17,671.398)" d="M0,4.2 C0,8.5 3.1,13.3 11.2,13.3 C21.6,13.3 32.5,4.8 32.5,-4 C32.5,-9.9 27.5,-13.2 21.3,-13.2 C11.6,-13.2 0,-5 0,4.2"/>
<path class="Note" transform="matrix(0.992,0,0,0.992,357.911,1229.4)" d="M0,4.2 C0,8.5 3.1,13.3 11.2,13.3 C21.6,13.3 32.5,4.8 32.5,-4 C32.5,-9.9 27.5,-13.2 21.3,-13.2 C11.6,-13.2 0,-5 0,4.2"/>
<path class="Note" transform="matrix(0.992,0,0,0.992,1266.11,696.198)" d="M0,4.2 C0,8.5 3.1,13.3 11.2,13.3 C21.6,13.3 32.5,4.8 32.5,-4 C32.5,-9.9 27.5,-13.2 21.3,-13.2 C11.6,-13.2 0,-5 0,4.2"/>
<path class="Note" transform="matrix(0.992,0,0,0.992,1531.57,1167.4)" d="M0,4.2 C0,8.5 3.1,13.3 11.2,13.3 C21.6,13.3 32.5,4.8 32.5,-4 C32.5,-9.9 27.5,-13.2 21.3,-13.2 C11.6,-13.2 0,-5 0,4.2"/>
<path class="Note" transform="matrix(0.992,0,0,0.992,2293.29,1179.8)" d="M0,4.2 C0,8.5 3.1,13.3 11.2,13.3 C21.6,13.3 32.5,4.8 32.5,-4 C32.5,-9.9 27.5,-13.2 21.3,-13.2 C11.6,-13.2 0,-5 0,4.2"/>
<path class="Note" transform="matrix(0.992,0,0,0.992,456.777,1217)" d="M0,4.2 C0,8.5 3.1,13.3 11.2,13.3 C21.6,13.3 32.5,4.8 32.5,-4 C32.5,-9.9 27.5,-13.2 21.3,-13.2 C11.6,-13.2 0,-5 0,4.2"/>
<path class="Note" transform="matrix(0.992,0,0,0.992,2392.16,1167.4)" d="M0,4.2 C0,8.5 3.1,13.3 11.2,13.3 C21.6,13.3 32.5,4.8 32.5,-4 C32.5,-9.9 27.5,-13.2 21.3,-13.2 C11.6,-13.2 0,-5 0,4.2"/>
<path class="Note" transform="matrix(0.992,0,0,0.992,555.643,1204.6)" d="M0,4.2 C0,8.5 3.1,13.3 11.2,13.3 C21.6,13.3 32.5,4.8 32.5,-4 C32.5,-9.9 27.5,-13.2 21.3,-13.2 C11.6,-13.2 0,-5 0,4.2"/>
<path class="Note" transform="matrix(0.992,0,0,0.992,1069.26,708.598)" d="M0,4.2 C0,8.5 3.1,13.3 11.2,13.3 C21.6,13.3 32.5,4.8 32.5,-4 C32.5,-9.9 27.5,-13.2 21.3,-13.2 C11.6,-13.2 0,-5 0,4.2"/>
<path class="Note" transform="matrix(0.992,0,0,0.992,973.17,708.598)" d="M0,4.2 C0,8.5 3.1,13.3 11.2,13.3 C21.6,13.3 32.5,4.8 32.5,-4 C32.5,-9.9 27.5,-13.2 21.3,-13.2 C11.6,-13.2 0,-5 0,4.2"/>
<path class="Note" transform="matrix(0.992,0,0,0.992,654.509,1179.8)" d="M0,4.2 C0,8.5 3.1,13.3 11.2,13.3 C21.6,13.3 32.5,4.8 32.5,-4 C32.5,-9.9 27.5,-13.2 21.3,-13.2 C11.6,-13.2 0,-5 0,4.2"/>
<path class="Note" transform="matrix(0.992,0,0,0.992,877.083,708.598)" d="M0,4.2 C0,8.5 3.1,13.3 11.2,13.3 C21.6,13.3 32.5,4.8 32.5,-4 C32.5,-9.9 27.5,-13.2 21.3,-13.2 C11.6,-13.2 0,-5 0,4.2"/>
<path class="Note" transform="matrix(0.992,0,0,0.992,2491.02,1179.8)" d="M0,4.2 C0,8.5 3.1,13.3 11.2,13.3 C21.6,13.3 32.5,4.8 32.5,-4 C32.5,-9.9 27.5,-13.2 21.3,-13.2 C11.6,-13.2 0,-5 0,4.2"/>
<path class="Note" transform="matrix(0.992,0,0,0.992,753.374,1229.4)" d="M0,4.2 C0,8.5 3.1,13.3 11.2,13.3 C21.6,13.3 32.5,4.8 32.5,-4 C32.5,-9.9 27.5,-13.2 21.3,-13.2 C11.6,-13.2 0,-5 0,4.2"/>
<path class="Note" transform="matrix(0.992,0,0,0.992,1432.71,1179.8)" d="M0,4.2 C0,8.5 3.1,13.3 11.2,13.3 C21.6,13.3 32.5,4.8 32.5,-4 C32.5,-9.9 27.5,-13.2 21.3,-13.2 C11.6,-13.2 0,-5 0,4.2"/>
<path class="Note" transform="matrix(0.992,0,0,0.992,780.995,696.198)" d="M0,4.2 C0,8.5 3.1,13.3 11.2,13.3 C21.6,13.3 32.5,4.8 32.5,-4 C32.5,-9.9 27.5,-13.2 21.3,-13.2 C11.6,-13.2 0,-5 0,4.2"/>
<path class="Note" transform="matrix(0.992,0,0,0.992,684.908,708.598)" d="M0,4.2 C0,8.5 3.1,13.3 11.2,13.3 C21.6,13.3 32.5,4.8 32.5,-4 C32.5,-9.9 27.5,-13.2 21.3,-13.2 C11.6,-13.2 0,-5 0,4.2"/>
<path class="Note" transform="matrix(0.992,0,0,0.992,852.24,1217)" d="M0,4.2 C0,8.5 3.1,13.3 11.2,13.3 C21.6,13.3 32.5,4.8 32.5,-4 C32.5,-9.9 27.5,-13.2 21.3,-13.2 C11.6,-13.2 0,-5 0,4.2"/>
<path class="Note" transform="matrix(0.992,0,0,0.992,2589.89,1179.8)" d="M0,4.2 C0,8.5 3.1,13.3 11.2,13.3 C21.6,13.3 32.5,4.8 32.5,-4 C32.5,-9.9 27.5,-13.2 21.3,-13.2 C11.6,-13.2 0,-5 0,4.2"/>
<path class="Note" transform="matrix(0.992,0,0,0.992,951.106,1204.6)" d="M0,4.2 C0,8.5 3.1,13.3 11.2,13.3 C21.6,13.3 32.5,4.8 32.5,-4 C32.5,-9.9 27.5,-13.2 21.3,-13.2 C11.6,-13.2 0,-5 0,4.2"/>
<path class="Note" transform="matrix(0.992,0,0,0.992,1333.84,1179.8)" d="M0,4.2 C0,8.5 3.1,13.3 11.2,13.3 C21.6,13.3 32.5,4.8 32.5,-4 C32.5,-9.9 27.5,-13.2 21.3,-13.2 C11.6,-13.2 0,-5 0,4.2"/>
<path class="Note" transform="matrix(0.992,0,0,0.992,2183.61,720.998)" d="M0,4.2 C0,8.5 3.1,13.3 11.2,13.3 C21.6,13.3 32.5,4.8 32.5,-4 C32.5,-9.9 27.5,-13.2 21.3,-13.2 C11.6,-13.2 0,-5 0,4.2"/>
<path class="Clef" transform="matrix(0.992,0,0,0.992,232.438,1179.8)" d="M12.3,51.3 C12.3,57.9 17.3,66.6 30.8,66.6 C35.5,66.6 39.6,65.4 43.2,63.2 C48.6,59.4 50,52.8 50,46.5 C50,42.6 49.4,38.1 48.4,32.4 C48.1,30.4 47.5,27.4 46.9,23.5 C56.7,20.3 64,10.1 64,-0.2 C64,-15.3 53.3,-25.5 38.7,-25.5 C37.7,-31.5 36.7,-37.4 35.9,-43 C46.4,-54.1 53.7,-66.6 53.7,-82.5 C53.7,-91.6 50.9,-99 49.3,-102.6 C46.9,-107.7 44,-111.2 42.2,-111.2 C41.5,-111.2 38.4,-110 35.1,-106.1 C28.7,-98.5 26.9,-85.7 26.9,-77.3 C26.9,-71.9 27.4,-67 29.1,-55.8 C29,-55.7 23.8,-50.4 21.7,-48.7 C12.6,-40.3 0,-28.1 0,-8.1 C0,10.6 16.3,25.3 34.9,25.3 C37.8,25.3 40.5,25 42.8,24.6 C44.7,34.2 45.9,41.2 45.9,46.5 C45.9,56.9 40.5,62.4 30.4,62.4 C28,62.4 25.9,61.9 25.7,61.9 C25.6,61.8 25.4,61.7 25.4,61.6 C25.4,61.4 25.6,61.3 25.9,61.3 C30.6,60.5 35.3,56.5 35.3,50.1 C35.3,44.7 31.2,39 23.7,39 C16.7,39 12.3,44.7 12.3,51.3 M33.2,-82.2 C34.1,-86.2 38.7,-96.7 43.9,-96.7 C45.4,-96.7 47.8,-91.9 47.8,-84.9 C47.8,-74.5 40.1,-66.7 33.2,-59.9 C32.6,-63.9 32.1,-67.8 32.1,-72 C32.1,-75.7 32.4,-79.1 33.2,-82.2 M42,20.6 C40,21 38.1,21.2 36.2,21.2 C21.9,21.2 9.7,11.2 9.7,-3.9 C9.7,-16.1 18.3,-27 27.1,-34.6 C28.8,-36.1 30.4,-37.5 31.9,-39 C32.8,-33.6 33.5,-28.9 34.2,-24.8 C25.1,-22.1 18.9,-12.5 18.9,-3.1 C18.9,3.9 24.4,13.5 32.4,13.5 C33.2,13.5 34.1,13.1 34.1,12.2 C34.1,11.3 33.1,10.8 31.9,10 C28,7.6 25.8,5 25.8,0.1 C25.8,-6 30.4,-10.9 36.2,-12.3 L42,20.6 M56.2,2.1 C56.2,9.2 53.3,16.5 46.2,19.4 C44.1,7.4 41.4,-8.5 40.7,-12.9 C49.7,-12.9 56.2,-6.8 56.2,2.1"/>
<path class="Clef" transform="matrix(0.992,0,0,0.992,232.438,708.598)" d="M12.3,51.3 C12.3,57.9 17.3,66.6 30.8,66.6 C35.5,66.6 39.6,65.4 43.2,63.2 C48.6,59.4 50,52.8 50,46.5 C50,42.6 49.4,38.1 48.4,32.4 C48.1,30.4 47.5,27.4 46.9,23.5 C56.7,20.3 64,10.1 64,-0.2 C64,-15.3 53.3,-25.5 38.7,-25.5 C37.7,-31.5 36.7,-37.4 35.9,-43 C46.4,-54.1 53.7,-66.6 53.7,-82.5 C53.7,-91.6 50.9,-99 49.3,-102.6 C46.9,-107.7 44,-111.2 42.2,-111.2 C41.5,-111.2 38.4,-110 35.1,-106.1 C28.7,-98.5 26.9,-85.7 26.9,-77.3 C26.9,-71.9 27.4,-67 29.1,-55.8 C29,-55.7 23.8,-50.4 21.7,-48.7 C12.6,-40.3 0,-28.1 0,-8.1 C0,10.6 16.3,25.3 34.9,25.3 C37.8,25.3 40.5,25 42.8,24.6 C44.7,34.2 45.9,41.2 45.9,46.5 C45.9,56.9 40.5,62.4 30.4,62.4 C28,62.4 25.9,61.9 25.7,61.9 C25.6,61.8 25.4,61.7 25.4,61.6 C25.4,61.4 25.6,61.3 25.9,61.3 C30.6,60.5 35.3,56.5 35.3,50.1 C35.3,44.7 31.2,39 23.7,39 C16.7,39 12.3,44.7 12.3,51.3 M33.2,-82.2 C34.1,-86.2 38.7,-96.7 43.9,-96.7 C45.4,-96.7 47.8,-91.9 47.8,-84.9 C47.8,-74.5 40.1,-66.7 33.2,-59.9 C32.6,-63.9 32.1,-67.8 32.1,-72 C32.1,-75.7 32.4,-79.1 33.2,-82.2 M42,20.6 C40,21 38.1,21.2 36.2,21.2 C21.9,21.2 9.7,11.2 9.7,-3.9 C9.7,-16.1 18.3,-27 27.1,-34.6 C28.8,-36.1 30.4,-37.5 31.9,-39 C32.8,-33.6 33.5,-28.9 34.2,-24.8 C25.1,-22.1 18.9,-12.5 18.9,-3.1 C18.9,3.9 24.4,13.5 32.4,13.5 C33.2,13.5 34.1,13.1 34.1,12.2 C34.1,11.3 33.1,10.8 31.9,10 C28,7.6 25.8,5 25.8,0.1 C25.8,-6 30.4,-10.9 36.2,-12.3 L42,20.6 M56.2,2.1 C56.2,9.2 53.3,16.5 46.2,19.4 C44.1,7.4 41.4,-8.5 40.7,-12.9 C49.7,-12.9 56.2,-6.8 56.2,2.1"/>
<path class="TimeSig" transform="matrix(0.992,0,0,0.992,319.331,658.998)" d="M20.8,12.7 L20.8,20.1 L12.5,20.1 C11.8,20.1 11.1,20.7 11.1,21.5 L11.1,23.4 C11.1,24.2 11.8,24.8 12.5,24.8 L42.8,24.8 C43.6,24.8 44.2,24.2 44.2,23.4 L44.2,21.5 C44.2,20.7 43.6,20.1 42.8,20.1 L33.9,20.1 L33.9,12.7 L42.8,12.7 C43.6,12.7 44.2,12 44.2,11.2 L44.2,9.3 C44.2,8.6 43.6,7.9 42.8,7.9 L33.9,7.9 L33.9,-8 C33.9,-8.6 33.6,-9.1 33.1,-9.3 L31.9,-9.9 C31.7,-10 31.4,-10.1 31.2,-10.1 C30.9,-10 30.5,-9.9 30.3,-9.7 L21.2,-1.4 C20.9,-1.1 20.8,-0.7 20.8,-0.3 L20.8,7.9 L9.3,7.9 C9.3,7.9 20.4,-4.1 32.2,-19.9 C32.6,-20.4 32.7,-20.9 32.7,-21.3 C32.7,-21.8 32.5,-22.2 32.4,-22.3 L30.2,-24.5 C30,-24.7 29.6,-24.9 29.2,-24.9 C28.6,-24.9 15.1,-24.9 14.4,-24.9 C13.6,-24.9 13.1,-24.3 13,-23.7 C13,-23.7 12.5,-16.3 9.9,-8.2 C7.3,-0.1 4.3,4.9 1.7,8.6 C1.7,8.6 1.4,9.1 1.4,9.7 C1.4,9.9 1.4,10.1 1.5,10.3 C1.9,11 2.5,12.1 2.5,12.1 C2.5,12.1 2.7,12.7 3.6,12.7 L20.8,12.7 "/>
<path class="TimeSig" transform="matrix(0.992,0,0,0.992,319.331,708.598)" d="M20.8,12.7 L20.8,20.1 L12.5,20.1 C11.8,20.1 11.1,20.7 11.1,21.5 L11.1,23.4 C11.1,24.2 11.8,24.8 12.5,24.8 L42.8,24.8 C43.6,24.8 44.2,24.2 44.2,23.4 L44.2,21.5 C44.2,20.7 43.6,20.1 42.8,20.1 L33.9,20.1 L33.9,12.7 L42.8,12.7 C43.6,12.7 44.2,12 44.2,11.2 L44.2,9.3 C44.2,8.6 43.6,7.9 42.8,7.9 L33.9,7.9 L33.9,-8 C33.9,-8.6 33.6,-9.1 33.1,-9.3 L31.9,-9.9 C31.7,-10 31.4,-10.1 31.2,-10.1 C30.9,-10 30.5,-9.9 30.3,-9.7 L21.2,-1.4 C20.9,-1.1 20.8,-0.7 20.8,-0.3 L20.8,7.9 L9.3,7.9 C9.3,7.9 20.4,-4.1 32.2,-19.9 C32.6,-20.4 32.7,-20.9 32.7,-21.3 C32.7,-21.8 32.5,-22.2 32.4,-22.3 L30.2,-24.5 C30,-24.7 29.6,-24.9 29.2,-24.9 C28.6,-24.9 15.1,-24.9 14.4,-24.9 C13.6,-24.9 13.1,-24.3 13,-23.7 C13,-23.7 12.5,-16.3 9.9,-8.2 C7.3,-0.1 4.3,4.9 1.7,8.6 C1.7,8.6 1.4,9.1 1.4,9.7 C1.4,9.9 1.4,10.1 1.5,10.3 C1.9,11 2.5,12.1 2.5,12.1 C2.5,12.1 2.7,12.7 3.6,12.7 L20.8,12.7 "/>
<path class="Rest" transform="matrix(0.992,0,0,0.992,1136.11,1155)" d="M26.7,-20.3 C26.6,-20.3 26.4,-20.4 26.3,-20.4 C25.7,-20.4 25.2,-20.1 25,-19.6 C22.7,-15 17.9,-8.8 12.5,-7.8 C13.6,-9.1 14.3,-10.7 14.3,-12.6 C14.3,-16.5 11.1,-19.7 7.2,-19.7 C3.2,-19.7 0,-16.5 0,-12.6 C0,-7.2 5.3,-4.7 10,-4.7 C15.3,-4.7 18.8,-7.2 22.2,-10.9 L10.8,24.7 L13.5,25.5 L27.5,-18.6 C27.6,-18.7 27.6,-18.9 27.6,-19.1 C27.6,-19.6 27.3,-20 26.7,-20.3"/>
<path class="Rest" transform="matrix(0.992,0,0,0.992,1202.05,683.798)" d="M34.3,-18.6 C34.4,-18.8 34.4,-18.9 34.4,-19.1 C34.4,-19.6 34.1,-20.1 33.5,-20.3 C33.3,-20.4 33.1,-20.4 33,-20.4 C32.4,-20.4 32,-20.1 31.7,-19.6 C29.3,-14.8 25.3,-9.4 19.8,-8 C21,-9.4 21.5,-11 21.5,-12.8 C21.5,-16.7 18,-19.7 14.1,-19.7 C10.2,-19.5 7.2,-16.2 7.2,-12.3 C7.4,-6.7 12.8,-4.8 17.5,-4.8 C22.5,-5 26.4,-7.5 29.4,-11.4 L24.9,4.5 C23.5,9.3 17.8,15.7 12.7,17 C13.8,15.6 14.4,13.9 14.4,12.2 C14.4,8.2 11,5.3 7.1,5.3 C3.1,5.3 0.1,8.7 0.1,12.7 C0.1,15.7 2.2,18.2 4.8,19.1 C6.7,19.9 8.4,20.1 10.4,20.1 C15.4,20 19.3,17.4 22.3,13.5 L12.1,50 L14.8,50.7 L34.3,-18.6 "/>
<path class="Rest" transform="matrix(0.992,0,0,0.992,396.645,683.798)" d="M26.7,-20.3 C26.6,-20.3 26.4,-20.4 26.3,-20.4 C25.7,-20.4 25.2,-20.1 25,-19.6 C22.7,-15 17.9,-8.8 12.5,-7.8 C13.6,-9.1 14.3,-10.7 14.3,-12.6 C14.3,-16.5 11.1,-19.7 7.2,-19.7 C3.2,-19.7 0,-16.5 0,-12.6 C0,-7.2 5.3,-4.7 10,-4.7 C15.3,-4.7 18.8,-7.2 22.2,-10.9 L10.8,24.7 L13.5,25.5 L27.5,-18.6 C27.6,-18.7 27.6,-18.9 27.6,-19.1 C27.6,-19.6 27.3,-20 26.7,-20.3"/>
<path class="Rest" transform="matrix(0.992,0,0,0.992,1991.44,683.798)" d="M26.7,-20.3 C26.6,-20.3 26.4,-20.4 26.3,-20.4 C25.7,-20.4 25.2,-20.1 25,-19.6 C22.7,-15 17.9,-8.8 12.5,-7.8 C13.6,-9.1 14.3,-10.7 14.3,-12.6 C14.3,-16.5 11.1,-19.7 7.2,-19.7 C3.2,-19.7 0,-16.5 0,-12.6 C0,-7.2 5.3,-4.7 10,-4.7 C15.3,-4.7 18.8,-7.2 22.2,-10.9 L10.8,24.7 L13.5,25.5 L27.5,-18.6 C27.6,-18.7 27.6,-18.9 27.6,-19.1 C27.6,-19.6 27.3,-20 26.7,-20.3"/>
<path class="Beam" fill-rule="evenodd" d="M2117.02,621.786 L2311.92,634.186 L2311.92,646.611 L2117.02,634.211 L2117.02,621.786 "/>
<path class="Beam" fill-rule="evenodd" d="M1264.47,1105.4 L1464.93,1099.2 L1464.93,1111.6 L1264.47,1117.8 L1264.47,1105.4 "/>
<path class="Beam" fill-rule="evenodd" d="M810.492,621.797 L1101.48,627.997 L1101.48,640.4 L810.492,634.2 L810.492,621.797 "/>
<path class="Beam" fill-rule="evenodd" d="M2421.66,1092.99 L2523.25,1099.19 L2523.25,1111.61 L2421.66,1105.41 L2421.66,1092.99 "/>
<path class="Beam" fill-rule="evenodd" d="M782.871,1148.79 L884.465,1142.59 L884.465,1155.01 L782.871,1161.21 L782.871,1148.79 "/>
<path class="Beam" fill-rule="evenodd" d="M1266.11,764.372 L1332.89,758.172 L1332.89,770.625 L1266.11,776.825 L1266.11,764.372 "/>
<path class="Beam" fill-rule="evenodd" d="M1266.11,745.772 L1298.35,742.779 L1298.35,755.232 L1266.11,758.225 L1266.11,745.772 "/>
<path class="Beam" fill-rule="evenodd" d="M1426.25,745.75 L1525.07,758.15 L1525.07,770.647 L1426.25,758.247 L1426.25,745.75 "/>
<path class="Beam" fill-rule="evenodd" d="M387.407,1123.98 L686.733,1099.18 L686.733,1111.62 L387.407,1136.42 L387.407,1123.98 "/>
<path class="Beam" fill-rule="evenodd" d="M1531.57,1229.35 L1633.17,1216.95 L1633.17,1229.44 L1531.57,1241.84 L1531.57,1229.35 "/>
<path class="Beam" fill-rule="evenodd" d="M1618.43,727.186 L1717.24,733.386 L1717.24,745.811 L1618.43,739.611 L1618.43,727.186 "/>
<path class="Beam" fill-rule="evenodd" d="M522.229,634.195 L717.132,627.995 L717.132,640.402 L522.229,646.602 L522.229,634.195 "/>
<path class="Beam" fill-rule="evenodd" d="M2026.19,1123.98 L2325.52,1099.18 L2325.52,1111.62 L2026.19,1136.42 L2026.19,1123.98 "/>
<path class="Beam" fill-rule="evenodd" d="M1758.8,1061.97 L1893.35,1074.37 L1893.35,1086.82 L1758.8,1074.42 L1758.8,1061.97 "/>
<path class="Beam" fill-rule="evenodd" d="M1758.8,1080.57 L1827.44,1086.9 L1827.44,1099.35 L1758.8,1093.02 L1758.8,1080.57 "/>
<path class="Beam" fill-rule="evenodd" d="M2405.28,652.776 L2696.27,627.976 L2696.27,640.421 L2405.28,665.221 L2405.28,652.776 "/>
<path class="Harmony" d="M1168.79,1003.3 L1166.7,1003.3 L1164.5,1006.55 C1160.48,1003.63 1158.45,1002.86 1154.65,1002.86 C1149.43,1002.86 1144.97,1005.06 1141.29,1009.46 C1137.77,1013.64 1136.12,1018.26 1136.12,1023.93 C1136.12,1035.81 1143.87,1044.22 1154.71,1044.22 C1163.51,1044.22 1169.12,1039.05 1170.38,1029.81 L1167.8,1029.37 C1166.31,1037.57 1162.13,1041.64 1155.37,1041.64 C1147.23,1041.64 1143.38,1036.03 1143.38,1024.15 C1143.38,1017.88 1144.2,1013.75 1146.07,1010.45 C1147.78,1007.37 1151.13,1005.45 1154.71,1005.45 C1158.56,1005.45 1161.97,1007.48 1164.06,1011 C1165.1,1012.82 1165.87,1014.85 1167.19,1019.2 L1169.61,1019.2 L1168.79,1003.3 "/>
<path class="Harmony" d="M621.497,532.103 L619.407,532.103 L617.207,535.348 C613.192,532.433 611.157,531.663 607.362,531.663 C602.137,531.663 597.682,533.863 593.997,538.263 C590.477,542.443 588.827,547.063 588.827,552.728 C588.827,564.608 596.582,573.023 607.417,573.023 C616.217,573.023 621.827,567.853 623.092,558.613 L620.507,558.173 C619.022,566.368 614.842,570.438 608.077,570.438 C599.937,570.438 596.087,564.828 596.087,552.948 C596.087,546.678 596.912,542.553 598.782,539.253 C600.487,536.173 603.842,534.248 607.417,534.248 C611.267,534.248 614.677,536.283 616.767,539.803 C617.812,541.618 618.582,543.653 619.902,547.998 L622.322,547.998 L621.497,532.103 "/>
<path class="Harmony" d="M2024.16,532.488 L1991.44,532.488 L1991.44,535.073 L1992.43,535.073 C1995.56,535.128 1996.61,535.293 1997.05,535.843 C1997.38,536.338 1997.38,536.448 1997.38,539.253 L1997.38,565.433 C1997.38,568.238 1997.38,568.348 1997.05,568.843 C1996.61,569.393 1995.56,569.613 1992.43,569.613 L1991.44,569.613 L1991.44,572.198 L2010.3,572.198 L2010.3,569.613 L2008.49,569.613 C2005.35,569.613 2004.31,569.393 2003.87,568.843 C2003.54,568.348 2003.54,568.183 2003.54,565.433 L2003.54,552.948 L2004.64,552.948 C2010.3,552.728 2012.34,554.763 2012.56,560.868 L2015.14,560.868 L2015.14,542.828 L2012.56,542.828 C2012.23,548.218 2010.08,550.308 2004.86,550.363 L2003.54,550.363 L2003.54,537.823 C2003.48,535.513 2004.03,535.128 2007,535.073 L2009.53,535.073 C2018.55,535.018 2020.81,537.053 2022.51,546.513 L2024.93,546.513 L2024.16,532.488 "/>
<path class="Harmony" d="M2408.46,532.103 L2406.37,532.103 L2404.17,535.348 C2400.16,532.433 2398.12,531.663 2394.33,531.663 C2389.1,531.663 2384.65,533.863 2380.96,538.263 C2377.44,542.443 2375.79,547.063 2375.79,552.728 C2375.79,564.608 2383.55,573.023 2394.38,573.023 C2403.18,573.023 2408.79,567.853 2410.06,558.613 L2407.47,558.173 C2405.99,566.368 2401.81,570.438 2395.04,570.438 C2386.9,570.438 2383.05,564.828 2383.05,552.948 C2383.05,546.678 2383.88,542.553 2385.75,539.253 C2387.45,536.173 2390.81,534.248 2394.38,534.248 C2398.23,534.248 2401.64,536.283 2403.73,539.803 C2404.78,541.618 2405.55,543.653 2406.87,547.998 L2409.29,547.998 L2408.46,532.103 "/>
<path class="Harmony" d="M2622.57,1003.3 L2620.48,1003.3 L2618.28,1006.55 C2614.26,1003.63 2612.23,1002.86 2608.43,1002.86 C2603.21,1002.86 2598.75,1005.06 2595.07,1009.46 C2591.55,1013.64 2589.9,1018.26 2589.9,1023.93 C2589.9,1035.81 2597.65,1044.22 2608.49,1044.22 C2617.29,1044.22 2622.9,1039.05 2624.16,1029.81 L2621.58,1029.37 C2620.09,1037.57 2615.91,1041.64 2609.15,1041.64 C2601.01,1041.64 2597.16,1036.03 2597.16,1024.15 C2597.16,1017.88 2597.98,1013.75 2599.85,1010.45 C2601.56,1007.37 2604.91,1005.45 2608.49,1005.45 C2612.34,1005.45 2615.75,1007.48 2617.84,1011 C2618.88,1012.82 2619.65,1014.85 2620.97,1019.2 L2623.39,1019.2 L2622.57,1003.3 "/>
<path class="Harmony" d="M1761.98,1003.3 L1759.89,1003.3 L1757.69,1006.55 C1753.68,1003.63 1751.64,1002.86 1747.85,1002.86 C1742.62,1002.86 1738.17,1005.06 1734.48,1009.46 C1730.96,1013.64 1729.31,1018.26 1729.31,1023.93 C1729.31,1035.81 1737.07,1044.22 1747.9,1044.22 C1756.7,1044.22 1762.31,1039.05 1763.58,1029.81 L1760.99,1029.37 C1759.51,1037.57 1755.33,1041.64 1748.56,1041.64 C1740.42,1041.64 1736.57,1036.03 1736.57,1024.15 C1736.57,1017.88 1737.4,1013.75 1739.27,1010.45 C1740.97,1007.37 1744.33,1005.45 1747.9,1005.45 C1751.75,1005.45 1755.16,1007.48 1757.25,1011 C1758.3,1012.82 1759.07,1014.85 1760.39,1019.2 L1762.81,1019.2 L1761.98,1003.3 "/>
<path class="Harmony" d="M1843.28,532.103 L1841.19,532.103 L1838.99,535.348 C1834.97,532.433 1832.94,531.663 1829.14,531.663 C1823.92,531.663 1819.46,533.863 1815.78,538.263 C1812.26,542.443 1810.61,547.063 1810.61,552.728 C1810.61,564.608 1818.36,573.023 1829.2,573.023 C1838,573.023 1843.61,567.853 1844.87,558.613 L1842.29,558.173 C1840.8,566.368 1836.62,570.438 1829.86,570.438 C1821.72,570.438 1817.87,564.828 1817.87,552.948 C1817.87,546.678 1818.69,542.553 1820.56,539.253 C1822.27,536.173 1825.62,534.248 1829.2,534.248 C1833.05,534.248 1836.46,536.283 1838.55,539.803 C1839.59,541.618 1840.36,543.653 1841.68,547.998 L1844.1,547.998 L1843.28,532.103 "/>
<path class="Harmony" d="M2600.64,532.103 L2598.55,532.103 L2596.35,535.348 C2592.33,532.433 2590.3,531.663 2586.5,531.663 C2581.28,531.663 2576.82,533.863 2573.14,538.263 C2569.62,542.443 2567.97,547.063 2567.97,552.728 C2567.97,564.608 2575.72,573.023 2586.56,573.023 C2595.36,573.023 2600.97,567.853 2602.23,558.613 L2599.65,558.173 C2598.16,566.368 2593.98,570.438 2587.22,570.438 C2579.08,570.438 2575.23,564.828 2575.23,552.948 C2575.23,546.678 2576.05,542.553 2577.92,539.253 C2579.63,536.173 2582.98,534.248 2586.56,534.248 C2590.41,534.248 2593.82,536.283 2595.91,539.803 C2596.95,541.618 2597.72,543.653 2599.04,547.998 L2601.46,547.998 L2600.64,532.103 "/>
<path class="Harmony" d="M2029.37,1003.3 L2027.28,1003.3 L2025.08,1006.55 C2021.07,1003.63 2019.03,1002.86 2015.24,1002.86 C2010.01,1002.86 2005.56,1005.06 2001.87,1009.46 C1998.35,1013.64 1996.7,1018.26 1996.7,1023.93 C1996.7,1035.81 2004.46,1044.22 2015.29,1044.22 C2024.09,1044.22 2029.7,1039.05 2030.97,1029.81 L2028.38,1029.37 C2026.9,1037.57 2022.72,1041.64 2015.95,1041.64 C2007.81,1041.64 2003.96,1036.03 2003.96,1024.15 C2003.96,1017.88 2004.79,1013.75 2006.66,1010.45 C2008.36,1007.37 2011.72,1005.45 2015.29,1005.45 C2019.14,1005.45 2022.55,1007.48 2024.64,1011 C2025.69,1012.82 2026.46,1014.85 2027.78,1019.2 L2030.2,1019.2 L2029.37,1003.3 "/>
<path class="Harmony" d="M1651.15,532.488 L1618.43,532.488 L1618.43,535.073 L1619.42,535.073 C1622.55,535.128 1623.6,535.293 1624.04,535.843 C1624.37,536.338 1624.37,536.448 1624.37,539.253 L1624.37,565.433 C1624.37,568.238 1624.37,568.348 1624.04,568.843 C1623.6,569.393 1622.55,569.613 1619.42,569.613 L1618.43,569.613 L1618.43,572.198 L1637.29,572.198 L1637.29,569.613 L1635.48,569.613 C1632.34,569.613 1631.3,569.393 1630.86,568.843 C1630.53,568.348 1630.53,568.183 1630.53,565.433 L1630.53,552.948 L1631.63,552.948 C1637.29,552.728 1639.33,554.763 1639.55,560.868 L1642.13,560.868 L1642.13,542.828 L1639.55,542.828 C1639.22,548.218 1637.07,550.308 1631.85,550.363 L1630.53,550.363 L1630.53,537.823 C1630.47,535.513 1631.02,535.128 1633.99,535.073 L1636.52,535.073 C1645.54,535.018 1647.8,537.053 1649.5,546.513 L1651.92,546.513 L1651.15,532.488 "/>
<path class="Harmony" d="M1667.01,546.568 L1657.22,547.173 L1657.22,549.538 L1659.48,549.538 C1661.57,549.593 1661.84,549.923 1661.84,552.288 L1661.84,568.018 C1661.79,568.843 1661.73,569.173 1661.51,569.448 C1661.13,569.943 1660.08,570.163 1657.72,570.218 L1657.5,570.218 L1657.5,572.198 L1671.36,572.198 L1671.36,570.218 L1671.14,570.218 C1667.51,570.108 1667.01,569.833 1667.01,567.798 L1667.01,557.623 C1667.01,552.728 1669.71,549.098 1673.28,549.098 C1676.42,549.098 1678.01,551.353 1678.01,555.808 L1678.01,568.073 C1677.96,568.788 1677.9,569.173 1677.63,569.448 C1677.3,569.943 1676.2,570.163 1673.83,570.218 L1673.61,570.218 L1673.61,572.198 L1687.53,572.198 L1687.53,570.218 L1687.31,570.218 C1683.68,570.108 1683.18,569.833 1683.18,567.853 L1683.18,558.118 C1683.18,552.618 1685.66,549.098 1689.51,549.098 C1692.64,549.098 1694.18,551.463 1694.18,556.413 L1694.18,568.018 C1694.13,568.788 1694.07,569.173 1693.8,569.448 C1693.47,569.943 1692.37,570.163 1690,570.218 L1689.78,570.218 L1689.78,572.198 L1703.7,572.198 L1703.7,570.218 L1703.48,570.218 C1699.85,570.108 1699.35,569.833 1699.35,567.798 L1699.35,555.313 C1699.35,551.903 1699.02,550.748 1697.59,548.878 C1696,546.843 1693.74,545.743 1691.1,545.743 C1687.53,545.743 1684.89,547.448 1682.52,551.243 C1681.59,547.943 1678.62,545.743 1674.93,545.743 C1671.58,545.743 1669.16,547.338 1667.01,550.803 L1667.01,546.568 "/>
<path class="Harmony" d="M1713.26,553.498 C1713.81,546.623 1714.09,544.808 1715.3,542.003 C1716.89,538.098 1719.81,535.843 1723.27,535.843 C1725.2,535.843 1726.35,536.448 1726.35,537.438 C1726.35,537.658 1726.3,537.823 1726.08,538.208 C1725.53,539.253 1725.25,540.078 1725.25,540.848 C1725.25,542.663 1726.68,544.038 1728.61,544.038 C1730.75,544.038 1732.24,542.388 1732.24,540.078 C1732.24,536.283 1728.44,533.478 1723.22,533.478 C1711.78,533.478 1707.16,545.523 1707.16,555.258 C1707.16,566.038 1712.44,573.023 1720.58,573.023 C1727.95,573.023 1733.23,567.138 1733.23,559.878 C1733.23,553.388 1728.61,548.548 1722.34,548.548 C1718.6,548.548 1715.85,550.033 1713.26,553.498 M1720.8,551.903 C1724.81,551.903 1727.23,555.038 1727.23,560.263 C1727.23,566.643 1724.7,570.658 1720.69,570.658 C1715.79,570.658 1713.59,565.213 1713.59,561.033 C1713.59,555.368 1716.34,551.903 1720.8,551.903"/>
<path class="Harmony" d="M1564.3,1003.69 L1531.57,1003.69 L1531.57,1006.27 L1532.56,1006.27 C1535.7,1006.33 1536.74,1006.49 1537.18,1007.04 C1537.51,1007.54 1537.51,1007.65 1537.51,1010.45 L1537.51,1036.63 C1537.51,1039.44 1537.51,1039.55 1537.18,1040.04 C1536.74,1040.59 1535.7,1040.81 1532.56,1040.81 L1531.57,1040.81 L1531.57,1043.4 L1550.44,1043.4 L1550.44,1040.81 L1548.62,1040.81 C1545.49,1040.81 1544.44,1040.59 1544,1040.04 C1543.67,1039.55 1543.67,1039.38 1543.67,1036.63 L1543.67,1024.15 L1544.77,1024.15 C1550.44,1023.93 1552.47,1025.96 1552.69,1032.07 L1555.28,1032.07 L1555.28,1014.03 L1552.69,1014.03 C1552.36,1019.42 1550.22,1021.51 1544.99,1021.56 L1543.67,1021.56 L1543.67,1009.02 C1543.62,1006.71 1544.17,1006.33 1547.14,1006.27 L1549.67,1006.27 C1558.69,1006.22 1560.94,1008.25 1562.65,1017.71 L1565.07,1017.71 L1564.3,1003.69 "/>
<path class="Harmony" d="M1580.16,1017.77 L1570.37,1018.37 L1570.37,1020.74 L1572.62,1020.74 C1574.71,1020.79 1574.99,1021.12 1574.99,1023.49 L1574.99,1039.22 C1574.93,1040.04 1574.88,1040.37 1574.66,1040.65 C1574.27,1041.14 1573.23,1041.36 1570.86,1041.42 L1570.64,1041.42 L1570.64,1043.4 L1584.5,1043.4 L1584.5,1041.42 L1584.28,1041.42 C1580.65,1041.31 1580.16,1041.03 1580.16,1039 L1580.16,1028.82 C1580.16,1023.93 1582.85,1020.3 1586.43,1020.3 C1589.56,1020.3 1591.16,1022.55 1591.16,1027.01 L1591.16,1039.27 C1591.1,1039.99 1591.05,1040.37 1590.77,1040.65 C1590.44,1041.14 1589.34,1041.36 1586.98,1041.42 L1586.76,1041.42 L1586.76,1043.4 L1600.67,1043.4 L1600.67,1041.42 L1600.45,1041.42 C1596.82,1041.31 1596.33,1041.03 1596.33,1039.05 L1596.33,1029.32 C1596.33,1023.82 1598.8,1020.3 1602.65,1020.3 C1605.79,1020.3 1607.33,1022.66 1607.33,1027.61 L1607.33,1039.22 C1607.27,1039.99 1607.22,1040.37 1606.94,1040.65 C1606.61,1041.14 1605.51,1041.36 1603.15,1041.42 L1602.93,1041.42 L1602.93,1043.4 L1616.84,1043.4 L1616.84,1041.42 L1616.62,1041.42 C1612.99,1041.31 1612.5,1041.03 1612.5,1039 L1612.5,1026.51 C1612.5,1023.1 1612.17,1021.95 1610.74,1020.08 C1609.14,1018.04 1606.89,1016.94 1604.25,1016.94 C1600.67,1016.94 1598.03,1018.65 1595.67,1022.44 C1594.73,1019.14 1591.76,1016.94 1588.08,1016.94 C1584.72,1016.94 1582.3,1018.54 1580.16,1022 L1580.16,1017.77 "/>
<path class="Harmony" d="M1626.41,1024.7 C1626.96,1017.82 1627.23,1016.01 1628.44,1013.2 C1630.04,1009.3 1632.95,1007.04 1636.42,1007.04 C1638.34,1007.04 1639.5,1007.65 1639.5,1008.64 C1639.5,1008.86 1639.44,1009.02 1639.22,1009.41 C1638.67,1010.45 1638.4,1011.28 1638.4,1012.05 C1638.4,1013.86 1639.83,1015.24 1641.75,1015.24 C1643.9,1015.24 1645.38,1013.59 1645.38,1011.28 C1645.38,1007.48 1641.59,1004.68 1636.36,1004.68 C1624.92,1004.68 1620.3,1016.72 1620.3,1026.46 C1620.3,1037.24 1625.58,1044.22 1633.72,1044.22 C1641.09,1044.22 1646.37,1038.34 1646.37,1031.08 C1646.37,1024.59 1641.75,1019.75 1635.48,1019.75 C1631.74,1019.75 1628.99,1021.23 1626.41,1024.7 M1633.94,1023.1 C1637.96,1023.1 1640.38,1026.24 1640.38,1031.46 C1640.38,1037.84 1637.85,1041.86 1633.83,1041.86 C1628.94,1041.86 1626.74,1036.41 1626.74,1032.23 C1626.74,1026.57 1629.49,1023.1 1633.94,1023.1"/>
<path class="Harmony" d="M1458.98,532.488 L1426.25,532.488 L1426.25,535.073 L1427.24,535.073 C1430.38,535.128 1431.42,535.293 1431.86,535.843 C1432.19,536.338 1432.19,536.448 1432.19,539.253 L1432.19,565.433 C1432.19,568.238 1432.19,568.348 1431.86,568.843 C1431.42,569.393 1430.38,569.613 1427.24,569.613 L1426.25,569.613 L1426.25,572.198 L1445.12,572.198 L1445.12,569.613 L1443.3,569.613 C1440.17,569.613 1439.12,569.393 1438.68,568.843 C1438.35,568.348 1438.35,568.183 1438.35,565.433 L1438.35,552.948 L1439.45,552.948 C1445.12,552.728 1447.15,554.763 1447.37,560.868 L1449.96,560.868 L1449.96,542.828 L1447.37,542.828 C1447.04,548.218 1444.9,550.308 1439.67,550.363 L1438.35,550.363 L1438.35,537.823 C1438.3,535.513 1438.85,535.128 1441.82,535.073 L1444.35,535.073 C1453.37,535.018 1455.62,537.053 1457.33,546.513 L1459.75,546.513 L1458.98,532.488 "/>
<path class="Harmony" d="M390.587,1003.3 L388.497,1003.3 L386.297,1006.55 C382.282,1003.63 380.247,1002.86 376.452,1002.86 C371.227,1002.86 366.772,1005.06 363.087,1009.46 C359.567,1013.64 357.917,1018.26 357.917,1023.93 C357.917,1035.81 365.672,1044.22 376.507,1044.22 C385.307,1044.22 390.917,1039.05 392.182,1029.81 L389.597,1029.37 C388.112,1037.57 383.932,1041.64 377.167,1041.64 C369.027,1041.64 365.177,1036.03 365.177,1024.15 C365.177,1017.88 366.002,1013.75 367.872,1010.45 C369.577,1007.37 372.932,1005.45 376.507,1005.45 C380.357,1005.45 383.767,1007.48 385.857,1011 C386.902,1012.82 387.672,1014.85 388.992,1019.2 L391.412,1019.2 L390.587,1003.3 "/>
<path class="Harmony" d="M2227.1,1003.3 L2225.01,1003.3 L2222.81,1006.55 C2218.8,1003.63 2216.76,1002.86 2212.97,1002.86 C2207.74,1002.86 2203.29,1005.06 2199.6,1009.46 C2196.08,1013.64 2194.43,1018.26 2194.43,1023.93 C2194.43,1035.81 2202.19,1044.22 2213.02,1044.22 C2221.82,1044.22 2227.43,1039.05 2228.7,1029.81 L2226.11,1029.37 C2224.63,1037.57 2220.45,1041.64 2213.68,1041.64 C2205.54,1041.64 2201.69,1036.03 2201.69,1024.15 C2201.69,1017.88 2202.52,1013.75 2204.39,1010.45 C2206.09,1007.37 2209.45,1005.45 2213.02,1005.45 C2216.87,1005.45 2220.28,1007.48 2222.37,1011 C2223.42,1012.82 2224.19,1014.85 2225.51,1019.2 L2227.93,1019.2 L2227.1,1003.3 "/>
<path class="Harmony" d="M588.319,1003.3 L586.229,1003.3 L584.029,1006.55 C580.014,1003.63 577.979,1002.86 574.184,1002.86 C568.959,1002.86 564.504,1005.06 560.819,1009.46 C557.299,1013.64 555.649,1018.26 555.649,1023.93 C555.649,1035.81 563.404,1044.22 574.239,1044.22 C583.039,1044.22 588.649,1039.05 589.914,1029.81 L587.329,1029.37 C585.844,1037.57 581.664,1041.64 574.899,1041.64 C566.759,1041.64 562.909,1036.03 562.909,1024.15 C562.909,1017.88 563.734,1013.75 565.604,1010.45 C567.309,1007.37 570.664,1005.45 574.239,1005.45 C578.089,1005.45 581.499,1007.48 583.589,1011 C584.634,1012.82 585.404,1014.85 586.724,1019.2 L589.144,1019.2 L588.319,1003.3 "/>
<path class="Harmony" d="M1234.78,532.488 L1202.05,532.488 L1202.05,535.073 L1203.04,535.073 C1206.18,535.128 1207.22,535.293 1207.66,535.843 C1207.99,536.338 1207.99,536.448 1207.99,539.253 L1207.99,565.433 C1207.99,568.238 1207.99,568.348 1207.66,568.843 C1207.22,569.393 1206.18,569.613 1203.04,569.613 L1202.05,569.613 L1202.05,572.198 L1220.92,572.198 L1220.92,569.613 L1219.1,569.613 C1215.97,569.613 1214.92,569.393 1214.48,568.843 C1214.15,568.348 1214.15,568.183 1214.15,565.433 L1214.15,552.948 L1215.25,552.948 C1220.92,552.728 1222.95,554.763 1223.17,560.868 L1225.76,560.868 L1225.76,542.828 L1223.17,542.828 C1222.84,548.218 1220.7,550.308 1215.47,550.363 L1214.15,550.363 L1214.15,537.823 C1214.1,535.513 1214.65,535.128 1217.62,535.073 L1220.15,535.073 C1229.17,535.018 1231.42,537.053 1233.13,546.513 L1235.55,546.513 L1234.78,532.488 "/>
<path class="Harmony" d="M786.051,1003.3 L783.961,1003.3 L781.761,1006.55 C777.746,1003.63 775.711,1002.86 771.916,1002.86 C766.691,1002.86 762.236,1005.06 758.551,1009.46 C755.031,1013.64 753.381,1018.26 753.381,1023.93 C753.381,1035.81 761.136,1044.22 771.971,1044.22 C780.771,1044.22 786.381,1039.05 787.646,1029.81 L785.061,1029.37 C783.576,1037.57 779.396,1041.64 772.631,1041.64 C764.491,1041.64 760.641,1036.03 760.641,1024.15 C760.641,1017.88 761.466,1013.75 763.336,1010.45 C765.041,1007.37 768.396,1005.45 771.971,1005.45 C775.821,1005.45 779.231,1007.48 781.321,1011 C782.366,1012.82 783.136,1014.85 784.456,1019.2 L786.876,1019.2 L786.051,1003.3 "/>
<path class="Harmony" d="M429.322,532.103 L427.232,532.103 L425.032,535.348 C421.017,532.433 418.982,531.663 415.187,531.663 C409.962,531.663 405.507,533.863 401.822,538.263 C398.302,542.443 396.652,547.063 396.652,552.728 C396.652,564.608 404.407,573.023 415.242,573.023 C424.042,573.023 429.652,567.853 430.917,558.613 L428.332,558.173 C426.847,566.368 422.667,570.438 415.902,570.438 C407.762,570.438 403.912,564.828 403.912,552.948 C403.912,546.678 404.737,542.553 406.607,539.253 C408.312,536.173 411.667,534.248 415.242,534.248 C419.092,534.248 422.502,536.283 424.592,539.803 C425.637,541.618 426.407,543.653 427.727,547.998 L430.147,547.998 L429.322,532.103 "/>
<path class="Harmony" d="M1366.52,1003.3 L1364.43,1003.3 L1362.23,1006.55 C1358.21,1003.63 1356.18,1002.86 1352.38,1002.86 C1347.16,1002.86 1342.7,1005.06 1339.02,1009.46 C1335.5,1013.64 1333.85,1018.26 1333.85,1023.93 C1333.85,1035.81 1341.6,1044.22 1352.44,1044.22 C1361.24,1044.22 1366.85,1039.05 1368.11,1029.81 L1365.53,1029.37 C1364.04,1037.57 1359.86,1041.64 1353.1,1041.64 C1344.96,1041.64 1341.11,1036.03 1341.11,1024.15 C1341.11,1017.88 1341.93,1013.75 1343.8,1010.45 C1345.51,1007.37 1348.86,1005.45 1352.44,1005.45 C1356.29,1005.45 1359.7,1007.48 1361.79,1011 C1362.83,1012.82 1363.6,1014.85 1364.92,1019.2 L1367.34,1019.2 L1366.52,1003.3 "/>
<path class="Harmony" d="M2425.61,1003.3 L2423.52,1003.3 L2421.38,1006.6 C2417.8,1003.8 2415.38,1002.86 2411.37,1002.86 C2407.02,1002.86 2403.61,1004.07 2400.15,1006.88 C2394.7,1011.28 2392.17,1016.83 2392.17,1024.26 C2392.17,1029.87 2393.77,1034.54 2397.01,1038.12 C2400.42,1041.97 2405.48,1044.22 2410.76,1044.22 C2415.38,1044.22 2418.63,1042.79 2422.2,1039.22 L2424.24,1044.17 L2426.55,1044.17 L2426.55,1032.07 C2426.55,1029.26 2426.55,1029.15 2426.88,1028.66 C2427.37,1028.05 2428.36,1027.89 2431.5,1027.89 L2432.32,1027.89 L2432.32,1025.3 L2414.83,1025.3 L2414.83,1027.89 L2415.88,1027.89 C2420.5,1027.89 2420.88,1028.16 2420.88,1031.24 C2420.88,1033.61 2420.5,1035.75 2419.78,1037.07 C2418.41,1039.77 2414.89,1041.64 2411.31,1041.64 C2407.74,1041.64 2404.22,1039.82 2402.35,1037.07 C2400.31,1033.99 2399.43,1030.14 2399.43,1024.26 C2399.43,1011.99 2403.5,1005.45 2411.15,1005.45 C2417.42,1005.45 2421.76,1009.96 2424.02,1018.76 L2426.38,1018.76 L2425.61,1003.3 "/>
<path class="Harmony" d="M2438.34,1017.99 L2440.76,1018.37 L2441.75,1014.03 C2442.58,1010.4 2442.96,1009.85 2444.56,1009.85 C2444.83,1009.85 2445.27,1009.85 2445.77,1009.9 C2452.53,1010.23 2452.53,1010.23 2455.06,1010.23 C2455.78,1010.23 2457.04,1010.23 2458.58,1010.18 L2454.84,1017.71 C2450.77,1025.8 2450.28,1026.79 2448.9,1030.2 C2447.2,1034.32 2446.32,1037.79 2446.32,1040.1 C2446.32,1042.63 2447.64,1044.17 2449.78,1044.17 C2452.42,1044.17 2453.47,1042.41 2453.41,1037.62 C2453.14,1029.7 2454.13,1025.85 2460.01,1012.98 C2461,1010.84 2462.05,1008.64 2463.04,1006.49 L2463.04,1004.9 C2459.74,1005.17 2457.98,1005.28 2454.57,1005.28 C2449.78,1005.28 2445.99,1005.12 2440.05,1004.68 L2438.34,1017.99 "/>
<path class="Harmony" d="M1005.85,532.103 L1003.76,532.103 L1001.56,535.348 C997.541,532.433 995.506,531.663 991.711,531.663 C986.486,531.663 982.031,533.863 978.346,538.263 C974.826,542.443 973.176,547.063 973.176,552.728 C973.176,564.608 980.931,573.023 991.766,573.023 C1000.57,573.023 1006.18,567.853 1007.44,558.613 L1004.86,558.173 C1003.37,566.368 999.191,570.438 992.426,570.438 C984.286,570.438 980.436,564.828 980.436,552.948 C980.436,546.678 981.261,542.553 983.131,539.253 C984.836,536.173 988.191,534.248 991.766,534.248 C995.616,534.248 999.026,536.283 1001.12,539.803 C1002.16,541.618 1002.93,543.653 1004.25,547.998 L1006.67,547.998 L1005.85,532.103 "/>
<path class="Harmony" d="M813.671,532.103 L811.581,532.103 L809.381,535.348 C805.366,532.433 803.331,531.663 799.536,531.663 C794.311,531.663 789.856,533.863 786.171,538.263 C782.651,542.443 781.001,547.063 781.001,552.728 C781.001,564.608 788.756,573.023 799.591,573.023 C808.391,573.023 814.001,567.853 815.266,558.613 L812.681,558.173 C811.196,566.368 807.016,570.438 800.251,570.438 C792.111,570.438 788.261,564.828 788.261,552.948 C788.261,546.678 789.086,542.553 790.956,539.253 C792.661,536.173 796.016,534.248 799.591,534.248 C803.441,534.248 806.851,536.283 808.941,539.803 C809.986,541.618 810.756,543.653 812.076,547.998 L814.496,547.998 L813.671,532.103 "/>
<path class="Harmony" d="M983.782,1003.3 L981.692,1003.3 L979.492,1006.55 C975.477,1003.63 973.442,1002.86 969.647,1002.86 C964.422,1002.86 959.967,1005.06 956.282,1009.46 C952.762,1013.64 951.112,1018.26 951.112,1023.93 C951.112,1035.81 958.867,1044.22 969.702,1044.22 C978.502,1044.22 984.112,1039.05 985.377,1029.81 L982.792,1029.37 C981.307,1037.57 977.127,1041.64 970.362,1041.64 C962.222,1041.64 958.372,1036.03 958.372,1024.15 C958.372,1017.88 959.197,1013.75 961.067,1010.45 C962.772,1007.37 966.127,1005.45 969.702,1005.45 C973.552,1005.45 976.962,1007.48 979.052,1011 C980.097,1012.82 980.867,1014.85 982.187,1019.2 L984.607,1019.2 L983.782,1003.3 "/>
<path class="Harmony" d="M2216.34,532.488 L2183.61,532.488 L2183.61,535.073 L2184.6,535.073 C2187.74,535.128 2188.78,535.293 2189.22,535.843 C2189.55,536.338 2189.55,536.448 2189.55,539.253 L2189.55,565.433 C2189.55,568.238 2189.55,568.348 2189.22,568.843 C2188.78,569.393 2187.74,569.613 2184.6,569.613 L2183.61,569.613 L2183.61,572.198 L2202.48,572.198 L2202.48,569.613 L2200.66,569.613 C2197.53,569.613 2196.48,569.393 2196.04,568.843 C2195.71,568.348 2195.71,568.183 2195.71,565.433 L2195.71,552.948 L2196.81,552.948 C2202.48,552.728 2204.51,554.763 2204.73,560.868 L2207.32,560.868 L2207.32,542.828 L2204.73,542.828 C2204.4,548.218 2202.26,550.308 2197.03,550.363 L2195.71,550.363 L2195.71,537.823 C2195.66,535.513 2196.21,535.128 2199.18,535.073 L2201.71,535.073 C2210.73,535.018 2212.98,537.053 2214.69,546.513 L2217.11,546.513 L2216.34,532.488 "/>
</svg>
