<?xml version="1.0" encoding="UTF-8" standalone="no"?>
<svg width="2977.2px" height="4208.4px" viewBox="0 0 2977.2 4208.4"
 xmlns="http://www.w3.org/2000/svg" xmlns:xlink="http://www.w3.org/1999/xlink" version="1.2" baseProfile="tiny">
<title>日の丸の旗</title>
<desc>Generated by MuseScore Studio 4.4.2</desc>
<path class="" fill="#ffffff" fill-rule="evenodd" d="M0,0 L2977.2,0 L2977.2,4208.4 L0,4208.4 L0,0 "/>
<polyline class="StaffLines" fill="none" stroke="#000000" stroke-width="2.73" stroke-linejoin="bevel" points="212.598,634.198 2764.6,634.198"/>
<polyline class="StaffLines" fill="none" stroke="#000000" stroke-width="2.73" stroke-linejoin="bevel" points="212.598,658.998 2764.6,658.998"/>
<polyline class="StaffLines" fill="none" stroke="#000000" stroke-width="2.73" stroke-linejoin="bevel" points="212.598,683.798 2764.6,683.798"/>
<polyline class="StaffLines" fill="none" stroke="#000000" stroke-width="2.73" stroke-linejoin="bevel" points="212.598,708.598 2764.6,708.598"/>
<polyline class="StaffLines" fill="none" stroke="#000000" stroke-width="2.73" stroke-linejoin="bevel" points="212.598,733.398 2764.6,733.398"/>
<polyline class="StaffLines" fill="none" stroke="#000000" stroke-width="2.73" stroke-linejoin="bevel" points="212.598,1105.4 2764.6,1105.4"/>
<polyline class="StaffLines" fill="none" stroke="#000000" stroke-width="2.73" stroke-linejoin="bevel" points="212.598,1130.2 2764.6,1130.2"/>
<polyline class="StaffLines" fill="none" stroke="#000000" stroke-width="2.73" stroke-linejoin="bevel" points="212.598,1155 2764.6,1155"/>
<polyline class="StaffLines" fill="none" stroke="#000000" stroke-width="2.73" stroke-linejoin="bevel" points="212.598,1179.8 2764.6,1179.8"/>
<polyline class="StaffLines" fill="none" stroke="#000000" stroke-width="2.73" stroke-linejoin="bevel" points="212.598,1204.6 2764.6,1204.6"/>
<path class="Text" d="M1217.02,299.945 C1217.02,304.895 1216.8,308.305 1216.36,311.605 L1224.39,311.605 L1224.39,304.455 L1281.15,304.455 L1281.15,311.605 L1289.18,311.605 C1288.74,308.195 1288.52,305.115 1288.52,299.835 L1288.52,229.325 C1288.52,225.145 1288.63,222.395 1289.07,219.205 C1285.88,219.645 1282.8,219.755 1277.74,219.755 L1228.24,219.755 C1223.18,219.755 1219.99,219.645 1216.47,219.205 C1216.91,222.395 1217.02,225.585 1217.02,229.985 L1217.02,299.945 M1224.39,226.465 L1281.15,226.465 L1281.15,257.265 L1224.39,257.265 L1224.39,226.465 M1224.39,263.975 L1281.15,263.975 L1281.15,297.745 L1224.39,297.745 L1224.39,263.975 "/>
<path class="Text" d="M1368.71,231.965 C1374.21,232.185 1377.4,232.955 1381.47,234.715 C1392.58,239.665 1398.96,249.785 1398.96,262.325 C1398.96,275.855 1391.59,287.625 1379.49,293.125 C1374.32,295.545 1369.15,296.975 1361.12,298.295 C1363.21,300.935 1363.87,302.035 1364.97,305.665 C1372.56,304.015 1376.74,302.695 1381.69,300.605 C1397.64,293.785 1406.88,279.705 1406.88,262.655 C1406.88,252.095 1403.14,242.525 1396.21,235.815 C1389.06,228.775 1378.28,224.925 1365.96,224.925 C1351.22,224.925 1339.23,229.875 1330.43,239.555 C1323.06,247.805 1318.88,258.695 1318.88,269.915 C1318.88,285.315 1326.69,296.755 1337.14,296.755 C1345.06,296.755 1351.55,290.155 1357.93,275.635 C1362.88,264.085 1367.06,247.255 1368.71,231.965 M1360.79,232.075 C1359.36,246.155 1355.29,262.435 1350.78,272.775 C1346.05,283.555 1341.65,288.725 1337.03,288.725 C1331.09,288.725 1326.47,280.585 1326.47,270.025 C1326.47,256.385 1333.29,243.955 1344.4,237.245 C1349.46,234.165 1354.19,232.625 1360.79,232.075"/>
<path class="Text" d="M1438.23,258.145 C1445.05,262.435 1449.45,265.735 1456.6,271.675 C1453.08,280.365 1448.57,286.965 1441.97,293.345 C1436.69,298.295 1431.74,301.815 1423.05,306.435 C1425.47,308.085 1426.79,309.625 1428.66,312.595 C1445.49,302.365 1456.05,291.145 1462.32,276.735 C1467.6,281.575 1471.45,285.425 1477.06,291.585 L1481.35,285.425 C1475.63,279.485 1471.89,275.965 1464.74,269.915 C1467.16,261.885 1468.48,253.635 1469.25,241.425 L1492.35,241.425 L1492.02,301.705 C1492.02,309.625 1493.67,310.615 1507.09,310.615 C1516,310.615 1518.97,309.955 1520.84,307.315 C1523.04,304.455 1524.25,297.855 1525.02,284.765 C1521.94,283.885 1521.17,283.555 1517.98,281.795 C1517.87,290.595 1517.21,298.295 1516.11,301.265 C1515.34,303.465 1513.8,303.905 1506.54,303.905 C1504.56,303.905 1503.02,303.795 1501.81,303.575 C1499.72,303.135 1499.28,302.585 1499.28,300.275 L1499.61,243.625 C1499.61,239.225 1499.83,236.585 1500.05,234.055 C1496.31,234.495 1492.9,234.605 1487.51,234.605 L1469.58,234.605 C1469.8,228.445 1469.91,225.255 1469.91,222.945 C1470.02,218.765 1470.13,216.895 1470.57,214.035 L1461.88,214.035 C1462.54,217.335 1462.76,219.425 1462.76,225.475 C1462.76,228.555 1462.65,231.195 1462.54,234.605 L1440.65,234.605 C1435.04,234.605 1432.4,234.495 1428.99,233.945 L1428.99,242.085 C1432.62,241.535 1435.26,241.425 1440.87,241.425 L1462.21,241.425 C1461.44,252.205 1460.67,257.705 1458.8,264.965 C1452.31,259.795 1449.56,257.705 1442.63,253.085 L1438.23,258.145 "/>
<path class="Text" d="M1588.71,231.965 C1594.21,232.185 1597.4,232.955 1601.47,234.715 C1612.58,239.665 1618.96,249.785 1618.96,262.325 C1618.96,275.855 1611.59,287.625 1599.49,293.125 C1594.32,295.545 1589.15,296.975 1581.12,298.295 C1583.21,300.935 1583.87,302.035 1584.97,305.665 C1592.56,304.015 1596.74,302.695 1601.69,300.605 C1617.64,293.785 1626.88,279.705 1626.88,262.655 C1626.88,252.095 1623.14,242.525 1616.21,235.815 C1609.06,228.775 1598.28,224.925 1585.96,224.925 C1571.22,224.925 1559.23,229.875 1550.43,239.555 C1543.06,247.805 1538.88,258.695 1538.88,269.915 C1538.88,285.315 1546.69,296.755 1557.14,296.755 C1565.06,296.755 1571.55,290.155 1577.93,275.635 C1582.88,264.085 1587.06,247.255 1588.71,231.965 M1580.79,232.075 C1579.36,246.155 1575.29,262.435 1570.78,272.775 C1566.05,283.555 1561.65,288.725 1557.03,288.725 C1551.09,288.725 1546.47,280.585 1546.47,270.025 C1546.47,256.385 1553.29,243.955 1564.4,237.245 C1569.46,234.165 1574.19,232.625 1580.79,232.075"/>
<path class="Text" d="M1723.9,243.515 L1699.04,243.515 L1699.04,242.635 C1699.04,239.555 1699.15,237.795 1699.7,235.155 L1692.33,235.155 C1692.77,237.465 1692.88,239.115 1692.88,242.635 L1692.88,243.515 C1690.13,243.515 1689.03,243.405 1687.49,243.185 L1687.49,249.455 C1688.48,249.345 1691.45,249.125 1692.11,249.125 C1692.22,249.125 1692.55,249.125 1692.88,249.125 L1692.88,285.425 L1691.78,285.425 C1686.94,285.425 1684.3,285.315 1681.77,284.875 L1681.77,292.025 C1684.52,291.475 1687.05,291.365 1691.89,291.365 L1731.82,291.365 C1736.55,291.365 1739.41,291.475 1742.93,292.025 L1742.93,284.875 C1740.18,285.315 1737.65,285.425 1731.82,285.425 L1730.17,285.425 L1730.17,249.125 L1732.26,249.125 C1735.01,249.125 1737.21,249.235 1739.63,249.565 L1739.63,242.965 C1737.32,243.405 1735.34,243.515 1731.93,243.515 L1730.17,243.515 L1730.17,242.745 C1730.17,239.445 1730.39,237.355 1730.83,235.045 L1723.24,235.045 C1723.68,237.685 1723.9,239.995 1723.9,242.635 L1723.9,243.515 M1723.9,249.125 L1723.9,257.375 L1699.04,257.375 L1699.04,249.125 L1723.9,249.125 M1723.9,262.765 L1723.9,271.125 L1699.04,271.125 L1699.04,262.765 L1723.9,262.765 M1723.9,276.515 L1723.9,285.425 L1699.04,285.425 L1699.04,276.515 L1723.9,276.515 M1659.99,231.085 L1653.39,231.085 C1649.21,231.085 1646.68,230.865 1643.82,230.425 L1643.82,237.795 C1646.35,237.355 1648.88,237.245 1653.06,237.245 L1654.16,237.245 C1653.83,254.845 1653.61,259.245 1652.62,269.805 C1651.08,286.085 1647.67,296.315 1640.41,306.105 C1642.39,307.645 1643.49,308.745 1645.58,311.495 C1650.75,304.015 1654.6,295.435 1656.69,286.305 C1658.23,279.375 1659.22,270.905 1659.88,258.255 L1672.09,258.255 C1672.09,279.045 1670.77,296.095 1668.9,301.375 C1668.24,303.355 1667.36,303.795 1664.83,303.795 C1661.86,303.795 1659.11,303.355 1655.92,302.365 C1656.69,305.115 1656.91,306.435 1657.13,309.515 C1659.88,309.845 1663.07,310.175 1665.6,310.175 C1672.75,310.175 1674.84,307.865 1676.49,297.525 C1677.7,290.485 1678.69,272.775 1678.69,258.585 C1678.69,255.285 1678.8,254.075 1678.91,251.765 C1676.71,252.095 1674.62,252.205 1671.21,252.205 L1660.21,252.205 C1660.43,245.385 1660.43,245.385 1660.65,237.245 L1670.77,237.245 C1674.84,237.245 1677.7,237.355 1680.12,237.685 C1678.58,239.555 1677.7,240.435 1675.39,242.525 C1677.7,243.625 1679.35,244.945 1680.78,246.705 C1685.62,241.205 1688.04,237.795 1691.56,231.305 L1730.61,231.305 C1735.23,231.305 1738.42,231.415 1741.61,231.745 L1741.61,224.705 C1738.97,225.145 1735.56,225.365 1730.39,225.365 L1694.75,225.365 C1696.62,221.625 1697.17,220.415 1697.5,219.645 C1698.49,217.555 1698.49,217.555 1698.93,216.785 C1699.15,216.125 1699.37,215.685 1699.48,215.575 C1699.92,214.695 1699.92,214.695 1700.14,214.145 L1692.66,212.605 C1692.44,214.035 1692,215.795 1691.01,218.215 C1688.15,226.025 1684.85,231.635 1680.34,237.355 L1680.34,230.535 C1677.81,230.865 1674.51,231.085 1670.77,231.085 L1666.7,231.085 L1666.7,224.375 C1666.7,219.975 1666.81,217.445 1667.36,214.145 L1659.33,214.145 C1659.77,217.335 1659.99,220.195 1659.99,224.375 L1659.99,231.085 M1699.26,293.895 C1692.88,300.825 1687.71,304.015 1677.37,307.535 C1679.24,308.965 1680.67,310.615 1682.21,312.925 C1692.88,308.195 1696.73,305.555 1705.09,297.195 L1699.26,293.895 M1715.21,297.525 C1724.23,305.335 1728.63,308.085 1740.4,313.035 C1742.27,309.955 1742.93,309.075 1744.91,307.205 C1733.8,303.685 1727.97,300.495 1720.16,293.785 L1715.21,297.525 "/>
<path class="MeasureNumber" d="M228.053,1042.12 C227.053,1046.76 224.373,1054.72 218.653,1054.72 C217.493,1054.72 216.733,1054.24 216.733,1053.52 C216.733,1053.24 216.813,1053.12 217.133,1052.64 C217.533,1052.12 217.733,1051.64 217.733,1051.08 C217.733,1049.76 216.693,1048.76 215.333,1048.76 C213.733,1048.76 212.613,1049.96 212.613,1051.72 C212.613,1054.44 215.173,1056.4 218.733,1056.4 C227.493,1056.4 233.093,1045.2 233.093,1037.6 C233.093,1031.36 230.093,1027.64 225.133,1027.64 C219.173,1027.64 214.733,1033.12 214.733,1038.84 C214.733,1042.64 217.653,1045.52 221.533,1045.52 C224.173,1045.52 226.213,1044.44 228.053,1042.12 M225.093,1029.32 C227.653,1029.32 229.293,1031.36 229.293,1034.56 C229.293,1039.52 226.573,1043.16 222.893,1043.16 C220.373,1043.16 218.973,1041.44 218.973,1038.44 C218.973,1034.84 220.693,1029.32 225.093,1029.32"/>
<polyline class="BarLine" fill="none" stroke="#000000" stroke-width="4.46" stroke-linejoin="bevel" points="962.222,632.834 962.222,734.762"/>
<polyline class="BarLine" fill="none" stroke="#000000" stroke-width="4.46" stroke-linejoin="bevel" points="2740.42,1104.03 2740.42,1205.96"/>
<polyline class="BarLine" fill="none" stroke="#000000" stroke-width="13.64" stroke-linejoin="bevel" points="2757.78,1104.03 2757.78,1205.96"/>
<polyline class="BarLine" fill="none" stroke="#000000" stroke-width="4.46" stroke-linejoin="bevel" points="2438.3,1104.03 2438.3,1205.96"/>
<polyline class="BarLine" fill="none" stroke="#000000" stroke-width="4.46" stroke-linejoin="bevel" points="2136.18,1104.03 2136.18,1205.96"/>
<polyline class="BarLine" fill="none" stroke="#000000" stroke-width="4.46" stroke-linejoin="bevel" points="1834.05,1104.03 1834.05,1205.96"/>
<polyline class="BarLine" fill="none" stroke="#000000" stroke-width="4.46" stroke-linejoin="bevel" points="1531.93,1104.03 1531.93,1205.96"/>
<polyline class="BarLine" fill="none" stroke="#000000" stroke-width="4.46" stroke-linejoin="bevel" points="1229.81,1104.03 1229.81,1205.96"/>
<polyline class="BarLine" fill="none" stroke="#000000" stroke-width="4.46" stroke-linejoin="bevel" points="927.685,1104.03 927.685,1205.96"/>
<polyline class="BarLine" fill="none" stroke="#000000" stroke-width="4.46" stroke-linejoin="bevel" points="625.562,1104.03 625.562,1205.96"/>
<polyline class="BarLine" fill="none" stroke="#000000" stroke-width="4.46" stroke-linejoin="bevel" points="2762.37,632.834 2762.37,734.762"/>
<polyline class="BarLine" fill="none" stroke="#000000" stroke-width="4.46" stroke-linejoin="bevel" points="2462.35,632.834 2462.35,734.762"/>
<polyline class="BarLine" fill="none" stroke="#000000" stroke-width="4.46" stroke-linejoin="bevel" points="2162.32,632.834 2162.32,734.762"/>
<polyline class="BarLine" fill="none" stroke="#000000" stroke-width="4.46" stroke-linejoin="bevel" points="1862.3,632.834 1862.3,734.762"/>
<polyline class="BarLine" fill="none" stroke="#000000" stroke-width="4.46" stroke-linejoin="bevel" points="662.198,632.834 662.198,734.762"/>
<polyline class="BarLine" fill="none" stroke="#000000" stroke-width="4.46" stroke-linejoin="bevel" points="1562.27,632.834 1562.27,734.762"/>
<polyline class="BarLine" fill="none" stroke="#000000" stroke-width="4.46" stroke-linejoin="bevel" points="1262.25,632.834 1262.25,734.762"/>
<polyline class="LedgerLine" fill="none" stroke="#000000" stroke-width="3.97" stroke-linejoin="bevel" points="519.626,758.198 569.21,758.198"/>
<polyline class="LedgerLine" fill="none" stroke="#000000" stroke-width="3.97" stroke-linejoin="bevel" points="2464.09,1229.4 2513.68,1229.4"/>
<polyline class="LedgerLine" fill="none" stroke="#000000" stroke-width="3.97" stroke-linejoin="bevel" points="1086.19,1229.4 1135.77,1229.4"/>
<polyline class="LedgerLine" fill="none" stroke="#000000" stroke-width="3.97" stroke-linejoin="bevel" points="387.965,758.198 437.55,758.198"/>
<polyline class="LedgerLine" fill="none" stroke="#000000" stroke-width="3.97" stroke-linejoin="bevel" points="1992.55,1229.4 2042.14,1229.4"/>
<polyline class="Stem" fill="none" stroke="#000000" stroke-width="2.73" stroke-linejoin="bevel" points="2503.63,1225.43 2503.63,1142.6"/>
<polyline class="Stem" fill="none" stroke="#000000" stroke-width="2.73" stroke-linejoin="bevel" points="1327.58,741.83 1327.58,658.998"/>
<polyline class="Stem" fill="none" stroke="#000000" stroke-width="2.73" stroke-linejoin="bevel" points="427.506,754.23 427.506,671.398"/>
<polyline class="Stem" fill="none" stroke="#000000" stroke-width="2.73" stroke-linejoin="bevel" points="727.53,741.83 727.53,658.998"/>
<polyline class="Stem" fill="none" stroke="#000000" stroke-width="2.73" stroke-linejoin="bevel" points="1759.26,729.43 1759.26,646.598"/>
<polyline class="Stem" fill="none" stroke="#000000" stroke-width="2.73" stroke-linejoin="bevel" points="1295.14,1213.03 1295.14,1130.2"/>
<polyline class="Stem" fill="none" stroke="#000000" stroke-width="2.73" stroke-linejoin="bevel" points="1125.73,1225.43 1125.73,1142.6"/>
<polyline class="Stem" fill="none" stroke="#000000" stroke-width="2.73" stroke-linejoin="bevel" points="2334.22,1200.63 2334.22,1117.8"/>
<polyline class="Stem" fill="none" stroke="#000000" stroke-width="2.73" stroke-linejoin="bevel" points="1729.97,1175.83 1729.97,1093"/>
<polyline class="Stem" fill="none" stroke="#000000" stroke-width="2.73" stroke-linejoin="bevel" points="1927.63,704.63 1927.63,621.798"/>
<polyline class="Stem" fill="none" stroke="#000000" stroke-width="2.73" stroke-linejoin="bevel" points="993.017,1200.63 993.017,1117.8"/>
<polyline class="Stem" fill="none" stroke="#000000" stroke-width="2.73" stroke-linejoin="bevel" points="823.604,1175.83 823.604,1093"/>
<polyline class="Stem" fill="none" stroke="#000000" stroke-width="2.73" stroke-linejoin="bevel" points="2059.29,704.63 2059.29,621.798"/>
<polyline class="Stem" fill="none" stroke="#000000" stroke-width="2.73" stroke-linejoin="bevel" points="690.894,1175.83 690.894,1093"/>
<polyline class="Stem" fill="none" stroke="#000000" stroke-width="2.73" stroke-linejoin="bevel" points="2201.51,1213.03 2201.51,1130.2"/>
<polyline class="Stem" fill="none" stroke="#000000" stroke-width="2.73" stroke-linejoin="bevel" points="521.481,1163.43 521.481,1086.8"/>
<polyline class="Stem" fill="none" stroke="#000000" stroke-width="2.73" stroke-linejoin="bevel" points="1159.22,729.43 1159.22,646.598"/>
<polyline class="Stem" fill="none" stroke="#000000" stroke-width="2.73" stroke-linejoin="bevel" points="2227.65,692.23 2227.65,615.598"/>
<polyline class="Stem" fill="none" stroke="#000000" stroke-width="2.73" stroke-linejoin="bevel" points="1899.39,1200.63 1899.39,1117.8"/>
<polyline class="Stem" fill="none" stroke="#000000" stroke-width="2.73" stroke-linejoin="bevel" points="388.771,1163.43 388.771,1086.8"/>
<polyline class="Stem" fill="none" stroke="#000000" stroke-width="2.73" stroke-linejoin="bevel" points="2359.31,692.23 2359.31,615.598"/>
<polyline class="Stem" fill="none" stroke="#000000" stroke-width="2.73" stroke-linejoin="bevel" points="1627.6,729.43 1627.6,646.598"/>
<polyline class="Stem" fill="none" stroke="#000000" stroke-width="2.73" stroke-linejoin="bevel" points="2032.09,1225.43 2032.09,1142.6"/>
<polyline class="Stem" fill="none" stroke="#000000" stroke-width="2.73" stroke-linejoin="bevel" points="559.166,754.23 559.166,671.398"/>
<polyline class="Stem" fill="none" stroke="#000000" stroke-width="2.73" stroke-linejoin="bevel" points="1597.26,1175.83 1597.26,1093"/>
<polyline class="Stem" fill="none" stroke="#000000" stroke-width="2.73" stroke-linejoin="bevel" points="1027.55,729.43 1027.55,646.598"/>
<polyline class="Stem" fill="none" stroke="#000000" stroke-width="2.73" stroke-linejoin="bevel" points="2527.68,704.63 2527.68,621.798"/>
<polyline class="Stem" fill="none" stroke="#000000" stroke-width="2.73" stroke-linejoin="bevel" points="859.191,741.83 859.191,658.998"/>
<path class="Note" transform="matrix(0.992,0,0,0.992,2496.82,708.598)" d="M0,4.2 C0,8.5 3.1,13.3 11.2,13.3 C21.6,13.3 32.5,4.8 32.5,-4 C32.5,-9.9 27.5,-13.2 21.3,-13.2 C11.6,-13.2 0,-5 0,4.2"/>
<path class="Note" transform="matrix(0.992,0,0,0.992,2303.36,1204.6)" d="M0,4.2 C0,8.5 3.1,13.3 11.2,13.3 C21.6,13.3 32.5,4.8 32.5,-4 C32.5,-9.9 27.5,-13.2 21.3,-13.2 C11.6,-13.2 0,-5 0,4.2"/>
<path class="Note" transform="matrix(0.992,0,0,0.992,996.694,733.398)" d="M0,4.2 C0,8.5 3.1,13.3 11.2,13.3 C21.6,13.3 32.5,4.8 32.5,-4 C32.5,-9.9 27.5,-13.2 21.3,-13.2 C11.6,-13.2 0,-5 0,4.2"/>
<path class="Note" transform="matrix(0.992,0,0,0.992,1868.53,1204.6)" d="M0,4.2 C0,8.5 3.1,13.3 11.2,13.3 C21.6,13.3 32.5,4.8 32.5,-4 C32.5,-9.9 27.5,-13.2 21.3,-13.2 C11.6,-13.2 0,-5 0,4.2"/>
<path class="Note" transform="matrix(0.992,0,0,0.992,2328.45,696.198)" d="M0,4.2 C0,8.5 3.1,13.3 11.2,13.3 C21.6,13.3 32.5,4.8 32.5,-4 C32.5,-9.9 27.5,-13.2 21.3,-13.2 C11.6,-13.2 0,-5 0,4.2"/>
<path class="Note" transform="matrix(0.992,0,0,0.992,2472.77,1229.4)" d="M0,4.2 C0,8.5 3.1,13.3 11.2,13.3 C21.6,13.3 32.5,4.8 32.5,-4 C32.5,-9.9 27.5,-13.2 21.3,-13.2 C11.6,-13.2 0,-5 0,4.2"/>
<path class="Note" transform="matrix(0.992,0,0,0.992,357.911,1167.4)" d="M0,4.2 C0,8.5 3.1,13.3 11.2,13.3 C21.6,13.3 32.5,4.8 32.5,-4 C32.5,-9.9 27.5,-13.2 21.3,-13.2 C11.6,-13.2 0,-5 0,4.2"/>
<path class="Note" transform="matrix(0.992,0,0,0.992,2196.79,696.198)" d="M0,4.2 C0,8.5 3.1,13.3 11.2,13.3 C21.6,13.3 32.5,4.8 32.5,-4 C32.5,-9.9 27.5,-13.2 21.3,-13.2 C11.6,-13.2 0,-5 0,4.2"/>
<path class="Note" transform="matrix(0.992,0,0,0.992,528.306,758.198)" d="M0,4.2 C0,8.5 3.1,13.3 11.2,13.3 C21.6,13.3 32.5,4.8 32.5,-4 C32.5,-9.9 27.5,-13.2 21.3,-13.2 C11.6,-13.2 0,-5 0,4.2"/>
<path class="Note" transform="matrix(0.992,0,0,0.992,490.62,1167.4)" d="M0,4.2 C0,8.5 3.1,13.3 11.2,13.3 C21.6,13.3 32.5,4.8 32.5,-4 C32.5,-9.9 27.5,-13.2 21.3,-13.2 C11.6,-13.2 0,-5 0,4.2"/>
<path class="Note" transform="matrix(0.992,0,0,0.992,696.67,745.798)" d="M0,4.2 C0,8.5 3.1,13.3 11.2,13.3 C21.6,13.3 32.5,4.8 32.5,-4 C32.5,-9.9 27.5,-13.2 21.3,-13.2 C11.6,-13.2 0,-5 0,4.2"/>
<path class="Note" transform="matrix(0.992,0,0,0.992,1596.74,733.398)" d="M0,4.2 C0,8.5 3.1,13.3 11.2,13.3 C21.6,13.3 32.5,4.8 32.5,-4 C32.5,-9.9 27.5,-13.2 21.3,-13.2 C11.6,-13.2 0,-5 0,4.2"/>
<path class="Note" transform="matrix(0.992,0,0,0.992,1566.4,1179.8)" d="M0,4.2 C0,8.5 3.1,13.3 11.2,13.3 C21.6,13.3 32.5,4.8 32.5,-4 C32.5,-9.9 27.5,-13.2 21.3,-13.2 C11.6,-13.2 0,-5 0,4.2"/>
<path class="Note" transform="matrix(0.992,0,0,0.992,1094.87,1229.4)" d="M0,4.2 C0,8.5 3.1,13.3 11.2,13.3 C21.6,13.3 32.5,4.8 32.5,-4 C32.5,-9.9 27.5,-13.2 21.3,-13.2 C11.6,-13.2 0,-5 0,4.2"/>
<path class="Note" transform="matrix(0.992,0,0,0.992,396.645,758.198)" d="M0,4.2 C0,8.5 3.1,13.3 11.2,13.3 C21.6,13.3 32.5,4.8 32.5,-4 C32.5,-9.9 27.5,-13.2 21.3,-13.2 C11.6,-13.2 0,-5 0,4.2"/>
<path class="Note" transform="matrix(0.992,0,0,0.992,1264.28,1217)" d="M0,4.2 C0,8.5 3.1,13.3 11.2,13.3 C21.6,13.3 32.5,4.8 32.5,-4 C32.5,-9.9 27.5,-13.2 21.3,-13.2 C11.6,-13.2 0,-5 0,4.2"/>
<path class="Note" transform="matrix(0.992,0,0,0.992,2028.43,708.598)" d="M0,4.2 C0,8.5 3.1,13.3 11.2,13.3 C21.6,13.3 32.5,4.8 32.5,-4 C32.5,-9.9 27.5,-13.2 21.3,-13.2 C11.6,-13.2 0,-5 0,4.2"/>
<path class="Note" transform="matrix(0.992,0,0,0.992,660.034,1179.8)" d="M0,4.2 C0,8.5 3.1,13.3 11.2,13.3 C21.6,13.3 32.5,4.8 32.5,-4 C32.5,-9.9 27.5,-13.2 21.3,-13.2 C11.6,-13.2 0,-5 0,4.2"/>
<path class="Note" transform="matrix(0.992,0,0,0.992,1728.4,733.398)" d="M0,4.2 C0,8.5 3.1,13.3 11.2,13.3 C21.6,13.3 32.5,4.8 32.5,-4 C32.5,-9.9 27.5,-13.2 21.3,-13.2 C11.6,-13.2 0,-5 0,4.2"/>
<path class="Note" transform="matrix(0.992,0,0,0.992,2170.65,1217)" d="M0,4.2 C0,8.5 3.1,13.3 11.2,13.3 C21.6,13.3 32.5,4.8 32.5,-4 C32.5,-9.9 27.5,-13.2 21.3,-13.2 C11.6,-13.2 0,-5 0,4.2"/>
<path class="Note" transform="matrix(0.992,0,0,0.992,792.743,1179.8)" d="M0,4.2 C0,8.5 3.1,13.3 11.2,13.3 C21.6,13.3 32.5,4.8 32.5,-4 C32.5,-9.9 27.5,-13.2 21.3,-13.2 C11.6,-13.2 0,-5 0,4.2"/>
<path class="Note" transform="matrix(0.992,0,0,0.992,1699.11,1179.8)" d="M0,4.2 C0,8.5 3.1,13.3 11.2,13.3 C21.6,13.3 32.5,4.8 32.5,-4 C32.5,-9.9 27.5,-13.2 21.3,-13.2 C11.6,-13.2 0,-5 0,4.2"/>
<path class="Note" transform="matrix(0.992,0,0,0.992,1296.72,745.798)" d="M0,4.2 C0,8.5 3.1,13.3 11.2,13.3 C21.6,13.3 32.5,4.8 32.5,-4 C32.5,-9.9 27.5,-13.2 21.3,-13.2 C11.6,-13.2 0,-5 0,4.2"/>
<path class="Note" transform="matrix(0.992,0,0,0.992,828.33,745.798)" d="M0,4.2 C0,8.5 3.1,13.3 11.2,13.3 C21.6,13.3 32.5,4.8 32.5,-4 C32.5,-9.9 27.5,-13.2 21.3,-13.2 C11.6,-13.2 0,-5 0,4.2"/>
<path class="Note" transform="matrix(0.992,0,0,0.992,1896.77,708.598)" d="M0,4.2 C0,8.5 3.1,13.3 11.2,13.3 C21.6,13.3 32.5,4.8 32.5,-4 C32.5,-9.9 27.5,-13.2 21.3,-13.2 C11.6,-13.2 0,-5 0,4.2"/>
<path class="Note" transform="matrix(0.992,0,0,0.992,962.157,1204.6)" d="M0,4.2 C0,8.5 3.1,13.3 11.2,13.3 C21.6,13.3 32.5,4.8 32.5,-4 C32.5,-9.9 27.5,-13.2 21.3,-13.2 C11.6,-13.2 0,-5 0,4.2"/>
<path class="Note" transform="matrix(0.992,0,0,0.992,1128.35,733.398)" d="M0,4.2 C0,8.5 3.1,13.3 11.2,13.3 C21.6,13.3 32.5,4.8 32.5,-4 C32.5,-9.9 27.5,-13.2 21.3,-13.2 C11.6,-13.2 0,-5 0,4.2"/>
<path class="Note" transform="matrix(0.992,0,0,0.992,2001.23,1229.4)" d="M0,4.2 C0,8.5 3.1,13.3 11.2,13.3 C21.6,13.3 32.5,4.8 32.5,-4 C32.5,-9.9 27.5,-13.2 21.3,-13.2 C11.6,-13.2 0,-5 0,4.2"/>
<path class="Clef" transform="matrix(0.992,0,0,0.992,232.438,1179.8)" d="M12.3,51.3 C12.3,57.9 17.3,66.6 30.8,66.6 C35.5,66.6 39.6,65.4 43.2,63.2 C48.6,59.4 50,52.8 50,46.5 C50,42.6 49.4,38.1 48.4,32.4 C48.1,30.4 47.5,27.4 46.9,23.5 C56.7,20.3 64,10.1 64,-0.2 C64,-15.3 53.3,-25.5 38.7,-25.5 C37.7,-31.5 36.7,-37.4 35.9,-43 C46.4,-54.1 53.7,-66.6 53.7,-82.5 C53.7,-91.6 50.9,-99 49.3,-102.6 C46.9,-107.7 44,-111.2 42.2,-111.2 C41.5,-111.2 38.4,-110 35.1,-106.1 C28.7,-98.5 26.9,-85.7 26.9,-77.3 C26.9,-71.9 27.4,-67 29.1,-55.8 C29,-55.7 23.8,-50.4 21.7,-48.7 C12.6,-40.3 0,-28.1 0,-8.1 C0,10.6 16.3,25.3 34.9,25.3 C37.8,25.3 40.5,25 42.8,24.6 C44.7,34.2 45.9,41.2 45.9,46.5 C45.9,56.9 40.5,62.4 30.4,62.4 C28,62.4 25.9,61.9 25.7,61.9 C25.6,61.8 25.4,61.7 25.4,61.6 C25.4,61.4 25.6,61.3 25.9,61.3 C30.6,60.5 35.3,56.5 35.3,50.1 C35.3,44.7 31.2,39 23.7,39 C16.7,39 12.3,44.7 12.3,51.3 M33.2,-82.2 C34.1,-86.2 38.7,-96.7 43.9,-96.7 C45.4,-96.7 47.8,-91.9 47.8,-84.9 C47.8,-74.5 40.1,-66.7 33.2,-59.9 C32.6,-63.9 32.1,-67.8 32.1,-72 C32.1,-75.7 32.4,-79.1 33.2,-82.2 M42,20.6 C40,21 38.1,21.2 36.2,21.2 C21.9,21.2 9.7,11.2 9.7,-3.9 C9.7,-16.1 18.3,-27 27.1,-34.6 C28.8,-36.1 30.4,-37.5 31.9,-39 C32.8,-33.6 33.5,-28.9 34.2,-24.8 C25.1,-22.1 18.9,-12.5 18.9,-3.1 C18.9,3.9 24.4,13.5 32.4,13.5 C33.2,13.5 34.1,13.1 34.1,12.2 C34.1,11.3 33.1,10.8 31.9,10 C28,7.6 25.8,5 25.8,0.1 C25.8,-6 30.4,-10.9 36.2,-12.3 L42,20.6 M56.2,2.1 C56.2,9.2 53.3,16.5 46.2,19.4 C44.1,7.4 41.4,-8.5 40.7,-12.9 C49.7,-12.9 56.2,-6.8 56.2,2.1"/>
<path class="Clef" transform="matrix(0.992,0,0,0.992,232.438,708.598)" d="M12.3,51.3 C12.3,57.9 17.3,66.6 30.8,66.6 C35.5,66.6 39.6,65.4 43.2,63.2 C48.6,59.4 50,52.8 50,46.5 C50,42.6 49.4,38.1 48.4,32.4 C48.1,30.4 47.5,27.4 46.9,23.5 C56.7,20.3 64,10.1 64,-0.2 C64,-15.3 53.3,-25.5 38.7,-25.5 C37.7,-31.5 36.7,-37.4 35.9,-43 C46.4,-54.1 53.7,-66.6 53.7,-82.5 C53.7,-91.6 50.9,-99 49.3,-102.6 C46.9,-107.7 44,-111.2 42.2,-111.2 C41.5,-111.2 38.4,-110 35.1,-106.1 C28.7,-98.5 26.9,-85.7 26.9,-77.3 C26.9,-71.9 27.4,-67 29.1,-55.8 C29,-55.7 23.8,-50.4 21.7,-48.7 C12.6,-40.3 0,-28.1 0,-8.1 C0,10.6 16.3,25.3 34.9,25.3 C37.8,25.3 40.5,25 42.8,24.6 C44.7,34.2 45.9,41.2 45.9,46.5 C45.9,56.9 40.5,62.4 30.4,62.4 C28,62.4 25.9,61.9 25.7,61.9 C25.6,61.8 25.4,61.7 25.4,61.6 C25.4,61.4 25.6,61.3 25.9,61.3 C30.6,60.5 35.3,56.5 35.3,50.1 C35.3,44.7 31.2,39 23.7,39 C16.7,39 12.3,44.7 12.3,51.3 M33.2,-82.2 C34.1,-86.2 38.7,-96.7 43.9,-96.7 C45.4,-96.7 47.8,-91.9 47.8,-84.9 C47.8,-74.5 40.1,-66.7 33.2,-59.9 C32.6,-63.9 32.1,-67.8 32.1,-72 C32.1,-75.7 32.4,-79.1 33.2,-82.2 M42,20.6 C40,21 38.1,21.2 36.2,21.2 C21.9,21.2 9.7,11.2 9.7,-3.9 C9.7,-16.1 18.3,-27 27.1,-34.6 C28.8,-36.1 30.4,-37.5 31.9,-39 C32.8,-33.6 33.5,-28.9 34.2,-24.8 C25.1,-22.1 18.9,-12.5 18.9,-3.1 C18.9,3.9 24.4,13.5 32.4,13.5 C33.2,13.5 34.1,13.1 34.1,12.2 C34.1,11.3 33.1,10.8 31.9,10 C28,7.6 25.8,5 25.8,0.1 C25.8,-6 30.4,-10.9 36.2,-12.3 L42,20.6 M56.2,2.1 C56.2,9.2 53.3,16.5 46.2,19.4 C44.1,7.4 41.4,-8.5 40.7,-12.9 C49.7,-12.9 56.2,-6.8 56.2,2.1"/>
<path class="TimeSig" transform="matrix(0.992,0,0,0.992,322.602,659.494)" d="M34.2,3.9 C33.4,6.1 31.4,13.3 26.5,13.3 C20,13.3 18.6,9.3 13.2,9.3 C12.4,9.3 11.6,9.4 10.6,9.6 C10.6,9.6 13.1,5.8 23.7,2.5 C34.3,-0.8 37,-6 37,-12 C37,-16.2 35.1,-24.5 20,-24.5 C4.9,-24.5 2.1,-15.4 2.1,-10.8 C2.1,-6.7 5.5,-3.4 9.6,-3.4 C13.7,-3.4 17,-6.7 17,-10.8 C17,-13.6 15,-16.7 12.4,-17.7 C12.1,-17.8 11.7,-18.3 11.7,-18.8 C11.7,-19.4 12.2,-20.1 14,-20.6 C14.5,-20.8 15.9,-21.1 17.4,-21.1 C23.1,-21.1 24.2,-17.6 24.2,-12.5 C24.2,-0.8 10.3,1.7 4.5,10.4 C4.5,10.4 1.5,14.6 1.5,19.3 C1.5,24 3.9,24.3 5.1,24.3 C6.7,24.3 8.4,23 8.4,21.2 C8.4,20.8 8.3,20.4 8.1,19.9 C7.5,18.5 7.3,17.4 7.3,16.6 C7.3,16.3 7.3,16 7.4,15.7 C7.5,15.1 8.3,14.1 10.7,14.1 C13.6,14.1 14.7,17.5 16.5,20.1 C18.3,22.7 21.1,24.3 24.3,24.3 C27.5,24.3 31.8,22 33.6,18.3 C35.4,14.6 37.7,7.1 37.7,4.4 C37.7,3.1 36.9,2.5 36,2.5 C35.3,2.5 34.6,2.9 34.2,3.9"/>
<path class="TimeSig" transform="matrix(0.992,0,0,0.992,319.331,708.598)" d="M20.8,12.7 L20.8,20.1 L12.5,20.1 C11.8,20.1 11.1,20.7 11.1,21.5 L11.1,23.4 C11.1,24.2 11.8,24.8 12.5,24.8 L42.8,24.8 C43.6,24.8 44.2,24.2 44.2,23.4 L44.2,21.5 C44.2,20.7 43.6,20.1 42.8,20.1 L33.9,20.1 L33.9,12.7 L42.8,12.7 C43.6,12.7 44.2,12 44.2,11.2 L44.2,9.3 C44.2,8.6 43.6,7.9 42.8,7.9 L33.9,7.9 L33.9,-8 C33.9,-8.6 33.6,-9.1 33.1,-9.3 L31.9,-9.9 C31.7,-10 31.4,-10.1 31.2,-10.1 C30.9,-10 30.5,-9.9 30.3,-9.7 L21.2,-1.4 C20.9,-1.1 20.8,-0.7 20.8,-0.3 L20.8,7.9 L9.3,7.9 C9.3,7.9 20.4,-4.1 32.2,-19.9 C32.6,-20.4 32.7,-20.9 32.7,-21.3 C32.7,-21.8 32.5,-22.2 32.4,-22.3 L30.2,-24.5 C30,-24.7 29.6,-24.9 29.2,-24.9 C28.6,-24.9 15.1,-24.9 14.4,-24.9 C13.6,-24.9 13.1,-24.3 13,-23.7 C13,-23.7 12.5,-16.3 9.9,-8.2 C7.3,-0.1 4.3,4.9 1.7,8.6 C1.7,8.6 1.4,9.1 1.4,9.7 C1.4,9.9 1.4,10.1 1.5,10.3 C1.9,11 2.5,12.1 2.5,12.1 C2.5,12.1 2.7,12.7 3.6,12.7 L20.8,12.7 "/>
<path class="Rest" transform="matrix(0.992,0,0,0.992,1428.38,683.798)" d="M23,16.6 C22.9,16.5 22.7,16.3 22.4,15.9 L10.9,1.7 C10.8,1.6 10.7,1.3 10.7,1.1 C10.7,0.8 10.8,0.4 10.9,0.2 L21.1,-15.2 C21.2,-15.4 21.3,-15.7 21.3,-15.9 L21.3,-16.8 C21.3,-17.1 21.2,-17.4 21,-17.6 L4.8,-39.5 C4.8,-39.5 4.4,-40.1 3.8,-40.1 C3.5,-40.1 3.3,-40.1 3,-39.8 C2.6,-39.5 2.5,-39.1 2.5,-38.8 C2.5,-38.2 2.8,-37.7 2.8,-37.7 L10.4,-27.3 C10.6,-27 10.7,-26.6 10.7,-26.1 C10.7,-25.7 10.6,-25.2 10.4,-24.9 L0.3,-9.5 C0.2,-9.3 0.1,-8.9 0.1,-8.7 L0.1,-7.8 C0.1,-7.5 0.2,-7.2 0.4,-7 L11.6,6.9 C11.2,6.8 10.3,6.6 9.1,6.6 C4,6.6 0,10.8 0,15.9 C0,17.3 0.3,18.7 1.1,19.8 C3.2,23 10.7,32.5 10.7,32.5 C10.7,32.5 11.2,33.1 11.9,33.1 C12.1,33.1 12.3,33.1 12.5,32.9 C13,32.5 13.2,32.1 13.2,31.7 C13.2,31.3 13,31 12.9,30.8 C12.6,30.3 9.4,24.5 9.4,24.5 C9.4,24.5 8.7,23.1 8.7,21.3 C8.7,18.1 11.1,15.5 14.3,15.5 C15.6,15.5 16.7,15.9 17.5,16.4 L21.4,18.9 C21.4,18.9 21.8,19.1 22.2,19.1 C22.6,19.1 22.9,19 23.2,18.6 C23.4,18.3 23.5,18 23.5,17.7 C23.5,17.4 23.4,17.2 23.2,16.9 L23,16.6 "/>
<path class="Rest" transform="matrix(0.992,0,0,0.992,2605.48,1155)" d="M23,16.6 C22.9,16.5 22.7,16.3 22.4,15.9 L10.9,1.7 C10.8,1.6 10.7,1.3 10.7,1.1 C10.7,0.8 10.8,0.4 10.9,0.2 L21.1,-15.2 C21.2,-15.4 21.3,-15.7 21.3,-15.9 L21.3,-16.8 C21.3,-17.1 21.2,-17.4 21,-17.6 L4.8,-39.5 C4.8,-39.5 4.4,-40.1 3.8,-40.1 C3.5,-40.1 3.3,-40.1 3,-39.8 C2.6,-39.5 2.5,-39.1 2.5,-38.8 C2.5,-38.2 2.8,-37.7 2.8,-37.7 L10.4,-27.3 C10.6,-27 10.7,-26.6 10.7,-26.1 C10.7,-25.7 10.6,-25.2 10.4,-24.9 L0.3,-9.5 C0.2,-9.3 0.1,-8.9 0.1,-8.7 L0.1,-7.8 C0.1,-7.5 0.2,-7.2 0.4,-7 L11.6,6.9 C11.2,6.8 10.3,6.6 9.1,6.6 C4,6.6 0,10.8 0,15.9 C0,17.3 0.3,18.7 1.1,19.8 C3.2,23 10.7,32.5 10.7,32.5 C10.7,32.5 11.2,33.1 11.9,33.1 C12.1,33.1 12.3,33.1 12.5,32.9 C13,32.5 13.2,32.1 13.2,31.7 C13.2,31.3 13,31 12.9,30.8 C12.6,30.3 9.4,24.5 9.4,24.5 C9.4,24.5 8.7,23.1 8.7,21.3 C8.7,18.1 11.1,15.5 14.3,15.5 C15.6,15.5 16.7,15.9 17.5,16.4 L21.4,18.9 C21.4,18.9 21.8,19.1 22.2,19.1 C22.6,19.1 22.9,19 23.2,18.6 C23.4,18.3 23.5,18 23.5,17.7 C23.5,17.4 23.4,17.2 23.2,16.9 L23,16.6 "/>
<path class="Rest" transform="matrix(0.992,0,0,0.992,2628.48,683.798)" d="M23,16.6 C22.9,16.5 22.7,16.3 22.4,15.9 L10.9,1.7 C10.8,1.6 10.7,1.3 10.7,1.1 C10.7,0.8 10.8,0.4 10.9,0.2 L21.1,-15.2 C21.2,-15.4 21.3,-15.7 21.3,-15.9 L21.3,-16.8 C21.3,-17.1 21.2,-17.4 21,-17.6 L4.8,-39.5 C4.8,-39.5 4.4,-40.1 3.8,-40.1 C3.5,-40.1 3.3,-40.1 3,-39.8 C2.6,-39.5 2.5,-39.1 2.5,-38.8 C2.5,-38.2 2.8,-37.7 2.8,-37.7 L10.4,-27.3 C10.6,-27 10.7,-26.6 10.7,-26.1 C10.7,-25.7 10.6,-25.2 10.4,-24.9 L0.3,-9.5 C0.2,-9.3 0.1,-8.9 0.1,-8.7 L0.1,-7.8 C0.1,-7.5 0.2,-7.2 0.4,-7 L11.6,6.9 C11.2,6.8 10.3,6.6 9.1,6.6 C4,6.6 0,10.8 0,15.9 C0,17.3 0.3,18.7 1.1,19.8 C3.2,23 10.7,32.5 10.7,32.5 C10.7,32.5 11.2,33.1 11.9,33.1 C12.1,33.1 12.3,33.1 12.5,32.9 C13,32.5 13.2,32.1 13.2,31.7 C13.2,31.3 13,31 12.9,30.8 C12.6,30.3 9.4,24.5 9.4,24.5 C9.4,24.5 8.7,23.1 8.7,21.3 C8.7,18.1 11.1,15.5 14.3,15.5 C15.6,15.5 16.7,15.9 17.5,16.4 L21.4,18.9 C21.4,18.9 21.8,19.1 22.2,19.1 C22.6,19.1 22.9,19 23.2,18.6 C23.4,18.3 23.5,18 23.5,17.7 C23.5,17.4 23.4,17.2 23.2,16.9 L23,16.6 "/>
<path class="Rest" transform="matrix(0.992,0,0,0.992,1396.99,1155)" d="M23,16.6 C22.9,16.5 22.7,16.3 22.4,15.9 L10.9,1.7 C10.8,1.6 10.7,1.3 10.7,1.1 C10.7,0.8 10.8,0.4 10.9,0.2 L21.1,-15.2 C21.2,-15.4 21.3,-15.7 21.3,-15.9 L21.3,-16.8 C21.3,-17.1 21.2,-17.4 21,-17.6 L4.8,-39.5 C4.8,-39.5 4.4,-40.1 3.8,-40.1 C3.5,-40.1 3.3,-40.1 3,-39.8 C2.6,-39.5 2.5,-39.1 2.5,-38.8 C2.5,-38.2 2.8,-37.7 2.8,-37.7 L10.4,-27.3 C10.6,-27 10.7,-26.6 10.7,-26.1 C10.7,-25.7 10.6,-25.2 10.4,-24.9 L0.3,-9.5 C0.2,-9.3 0.1,-8.9 0.1,-8.7 L0.1,-7.8 C0.1,-7.5 0.2,-7.2 0.4,-7 L11.6,6.9 C11.2,6.8 10.3,6.6 9.1,6.6 C4,6.6 0,10.8 0,15.9 C0,17.3 0.3,18.7 1.1,19.8 C3.2,23 10.7,32.5 10.7,32.5 C10.7,32.5 11.2,33.1 11.9,33.1 C12.1,33.1 12.3,33.1 12.5,32.9 C13,32.5 13.2,32.1 13.2,31.7 C13.2,31.3 13,31 12.9,30.8 C12.6,30.3 9.4,24.5 9.4,24.5 C9.4,24.5 8.7,23.1 8.7,21.3 C8.7,18.1 11.1,15.5 14.3,15.5 C15.6,15.5 16.7,15.9 17.5,16.4 L21.4,18.9 C21.4,18.9 21.8,19.1 22.2,19.1 C22.6,19.1 22.9,19 23.2,18.6 C23.4,18.3 23.5,18 23.5,17.7 C23.5,17.4 23.4,17.2 23.2,16.9 L23,16.6 "/>
<path class="Harmony" d="M730.123,532.103 L728.033,532.103 L725.888,535.403 C722.313,532.598 719.893,531.663 715.878,531.663 C711.533,531.663 708.123,532.873 704.658,535.678 C699.213,540.078 696.683,545.633 696.683,553.058 C696.683,558.668 698.278,563.343 701.523,566.918 C704.933,570.768 709.993,573.023 715.273,573.023 C719.893,573.023 723.138,571.593 726.713,568.018 L728.748,572.968 L731.058,572.968 L731.058,560.868 C731.058,558.063 731.058,557.953 731.388,557.458 C731.883,556.853 732.873,556.688 736.008,556.688 L736.833,556.688 L736.833,554.103 L719.343,554.103 L719.343,556.688 L720.388,556.688 C725.008,556.688 725.393,556.963 725.393,560.043 C725.393,562.408 725.008,564.553 724.293,565.873 C722.918,568.568 719.398,570.438 715.823,570.438 C712.248,570.438 708.728,568.623 706.858,565.873 C704.823,562.793 703.943,558.943 703.943,553.058 C703.943,540.793 708.013,534.248 715.658,534.248 C721.928,534.248 726.273,538.758 728.528,547.558 L730.893,547.558 L730.123,532.103 "/>
<path class="Harmony" d="M742.852,546.788 L745.272,547.173 L746.262,542.828 C747.087,539.198 747.472,538.648 749.067,538.648 C749.342,538.648 749.782,538.648 750.277,538.703 C757.042,539.033 757.042,539.033 759.572,539.033 C760.287,539.033 761.552,539.033 763.092,538.978 L759.352,546.513 C755.282,554.598 754.787,555.588 753.412,558.998 C751.707,563.123 750.827,566.588 750.827,568.898 C750.827,571.428 752.147,572.968 754.292,572.968 C756.932,572.968 757.977,571.208 757.922,566.423 C757.647,558.503 758.637,554.653 764.522,541.783 C765.512,539.638 766.557,537.438 767.547,535.293 L767.547,533.698 C764.247,533.973 762.487,534.083 759.077,534.083 C754.292,534.083 750.497,533.918 744.557,533.478 L742.852,546.788 "/>
<path class="Harmony" d="M861.783,532.103 L859.693,532.103 L857.548,535.403 C853.973,532.598 851.553,531.663 847.538,531.663 C843.193,531.663 839.783,532.873 836.318,535.678 C830.873,540.078 828.343,545.633 828.343,553.058 C828.343,558.668 829.938,563.343 833.183,566.918 C836.593,570.768 841.653,573.023 846.933,573.023 C851.553,573.023 854.798,571.593 858.373,568.018 L860.408,572.968 L862.718,572.968 L862.718,560.868 C862.718,558.063 862.718,557.953 863.048,557.458 C863.543,556.853 864.533,556.688 867.668,556.688 L868.493,556.688 L868.493,554.103 L851.003,554.103 L851.003,556.688 L852.048,556.688 C856.668,556.688 857.053,556.963 857.053,560.043 C857.053,562.408 856.668,564.553 855.953,565.873 C854.578,568.568 851.058,570.438 847.483,570.438 C843.908,570.438 840.388,568.623 838.518,565.873 C836.483,562.793 835.603,558.943 835.603,553.058 C835.603,540.793 839.673,534.248 847.318,534.248 C853.588,534.248 857.933,538.758 860.188,547.558 L862.553,547.558 L861.783,532.103 "/>
<path class="Harmony" d="M874.513,546.788 L876.933,547.173 L877.923,542.828 C878.748,539.198 879.133,538.648 880.728,538.648 C881.003,538.648 881.443,538.648 881.938,538.703 C888.703,539.033 888.703,539.033 891.233,539.033 C891.948,539.033 893.213,539.033 894.753,538.978 L891.013,546.513 C886.943,554.598 886.448,555.588 885.073,558.998 C883.368,563.123 882.488,566.588 882.488,568.898 C882.488,571.428 883.808,572.968 885.953,572.968 C888.593,572.968 889.638,571.208 889.583,566.423 C889.308,558.503 890.298,554.653 896.183,541.783 C897.173,539.638 898.218,537.438 899.208,535.293 L899.208,533.698 C895.908,533.973 894.148,534.083 890.738,534.083 C885.953,534.083 882.158,533.918 876.218,533.478 L874.513,546.788 "/>
<path class="Harmony" d="M1297.73,1003.3 L1295.64,1003.3 L1293.5,1006.6 C1289.92,1003.8 1287.5,1002.86 1283.49,1002.86 C1279.14,1002.86 1275.73,1004.07 1272.27,1006.88 C1266.82,1011.28 1264.29,1016.83 1264.29,1024.26 C1264.29,1029.87 1265.89,1034.54 1269.13,1038.12 C1272.54,1041.97 1277.6,1044.22 1282.88,1044.22 C1287.5,1044.22 1290.75,1042.79 1294.32,1039.22 L1296.36,1044.17 L1298.67,1044.17 L1298.67,1032.07 C1298.67,1029.26 1298.67,1029.15 1299,1028.66 C1299.49,1028.05 1300.48,1027.89 1303.62,1027.89 L1304.44,1027.89 L1304.44,1025.3 L1286.95,1025.3 L1286.95,1027.89 L1288,1027.89 C1292.62,1027.89 1293,1028.16 1293,1031.24 C1293,1033.61 1292.62,1035.75 1291.9,1037.07 C1290.53,1039.77 1287.01,1041.64 1283.43,1041.64 C1279.86,1041.64 1276.34,1039.82 1274.47,1037.07 C1272.43,1033.99 1271.55,1030.14 1271.55,1024.26 C1271.55,1011.99 1275.62,1005.45 1283.27,1005.45 C1289.54,1005.45 1293.88,1009.96 1296.14,1018.76 L1298.5,1018.76 L1297.73,1003.3 "/>
<path class="Harmony" d="M1310.46,1017.99 L1312.88,1018.37 L1313.87,1014.03 C1314.7,1010.4 1315.08,1009.85 1316.68,1009.85 C1316.95,1009.85 1317.39,1009.85 1317.89,1009.9 C1324.65,1010.23 1324.65,1010.23 1327.18,1010.23 C1327.9,1010.23 1329.16,1010.23 1330.7,1010.18 L1326.96,1017.71 C1322.89,1025.8 1322.4,1026.79 1321.02,1030.2 C1319.32,1034.32 1318.44,1037.79 1318.44,1040.1 C1318.44,1042.63 1319.76,1044.17 1321.9,1044.17 C1324.54,1044.17 1325.59,1042.41 1325.53,1037.62 C1325.26,1029.7 1326.25,1025.85 1332.13,1012.98 C1333.12,1010.84 1334.17,1008.64 1335.16,1006.49 L1335.16,1004.9 C1331.86,1005.17 1330.1,1005.28 1326.69,1005.28 C1321.9,1005.28 1318.11,1005.12 1312.17,1004.68 L1310.46,1017.99 "/>
<path class="Harmony" d="M1127.54,1003.3 L1125.45,1003.3 L1123.25,1006.55 C1119.24,1003.63 1117.2,1002.86 1113.41,1002.86 C1108.18,1002.86 1103.73,1005.06 1100.04,1009.46 C1096.52,1013.64 1094.87,1018.26 1094.87,1023.93 C1094.87,1035.81 1102.63,1044.22 1113.46,1044.22 C1122.26,1044.22 1127.87,1039.05 1129.14,1029.81 L1126.55,1029.37 C1125.07,1037.57 1120.89,1041.64 1114.12,1041.64 C1105.98,1041.64 1102.13,1036.03 1102.13,1024.15 C1102.13,1017.88 1102.96,1013.75 1104.83,1010.45 C1106.53,1007.37 1109.89,1005.45 1113.46,1005.45 C1117.31,1005.45 1120.72,1007.48 1122.81,1011 C1123.86,1012.82 1124.63,1014.85 1125.95,1019.2 L1128.37,1019.2 L1127.54,1003.3 "/>
<path class="Harmony" d="M1599.08,1003.3 L1596.99,1003.3 L1594.79,1006.55 C1590.77,1003.63 1588.74,1002.86 1584.94,1002.86 C1579.72,1002.86 1575.26,1005.06 1571.58,1009.46 C1568.06,1013.64 1566.41,1018.26 1566.41,1023.93 C1566.41,1035.81 1574.16,1044.22 1585,1044.22 C1593.8,1044.22 1599.41,1039.05 1600.67,1029.81 L1598.09,1029.37 C1596.6,1037.57 1592.42,1041.64 1585.66,1041.64 C1577.52,1041.64 1573.67,1036.03 1573.67,1024.15 C1573.67,1017.88 1574.49,1013.75 1576.36,1010.45 C1578.07,1007.37 1581.42,1005.45 1585,1005.45 C1588.85,1005.45 1592.26,1007.48 1594.35,1011 C1595.39,1012.82 1596.16,1014.85 1597.48,1019.2 L1599.9,1019.2 L1599.08,1003.3 "/>
<path class="Harmony" d="M994.833,1003.3 L992.743,1003.3 L990.543,1006.55 C986.528,1003.63 984.493,1002.86 980.698,1002.86 C975.473,1002.86 971.018,1005.06 967.333,1009.46 C963.813,1013.64 962.163,1018.26 962.163,1023.93 C962.163,1035.81 969.918,1044.22 980.753,1044.22 C989.553,1044.22 995.163,1039.05 996.428,1029.81 L993.843,1029.37 C992.358,1037.57 988.178,1041.64 981.413,1041.64 C973.273,1041.64 969.423,1036.03 969.423,1024.15 C969.423,1017.88 970.248,1013.75 972.118,1010.45 C973.823,1007.37 977.178,1005.45 980.753,1005.45 C984.603,1005.45 988.013,1007.48 990.103,1011 C991.148,1012.82 991.918,1014.85 993.238,1019.2 L995.658,1019.2 L994.833,1003.3 "/>
<path class="Harmony" d="M825.419,1003.3 L823.329,1003.3 L821.129,1006.55 C817.114,1003.63 815.079,1002.86 811.284,1002.86 C806.059,1002.86 801.604,1005.06 797.919,1009.46 C794.399,1013.64 792.749,1018.26 792.749,1023.93 C792.749,1035.81 800.504,1044.22 811.339,1044.22 C820.139,1044.22 825.749,1039.05 827.014,1029.81 L824.429,1029.37 C822.944,1037.57 818.764,1041.64 811.999,1041.64 C803.859,1041.64 800.009,1036.03 800.009,1024.15 C800.009,1017.88 800.834,1013.75 802.704,1010.45 C804.409,1007.37 807.764,1005.45 811.339,1005.45 C815.189,1005.45 818.599,1007.48 820.689,1011 C821.734,1012.82 822.504,1014.85 823.824,1019.2 L826.244,1019.2 L825.419,1003.3 "/>
<path class="Harmony" d="M1731.79,1003.3 L1729.7,1003.3 L1727.5,1006.55 C1723.48,1003.63 1721.45,1002.86 1717.65,1002.86 C1712.43,1002.86 1707.97,1005.06 1704.29,1009.46 C1700.77,1013.64 1699.12,1018.26 1699.12,1023.93 C1699.12,1035.81 1706.87,1044.22 1717.71,1044.22 C1726.51,1044.22 1732.12,1039.05 1733.38,1029.81 L1730.8,1029.37 C1729.31,1037.57 1725.13,1041.64 1718.37,1041.64 C1710.23,1041.64 1706.38,1036.03 1706.38,1024.15 C1706.38,1017.88 1707.2,1013.75 1709.07,1010.45 C1710.78,1007.37 1714.13,1005.45 1717.71,1005.45 C1721.56,1005.45 1724.97,1007.48 1727.06,1011 C1728.1,1012.82 1728.87,1014.85 1730.19,1019.2 L1732.61,1019.2 L1731.79,1003.3 "/>
<path class="Harmony" d="M692.71,1003.3 L690.62,1003.3 L688.42,1006.55 C684.405,1003.63 682.37,1002.86 678.575,1002.86 C673.35,1002.86 668.895,1005.06 665.21,1009.46 C661.69,1013.64 660.04,1018.26 660.04,1023.93 C660.04,1035.81 667.795,1044.22 678.63,1044.22 C687.43,1044.22 693.04,1039.05 694.305,1029.81 L691.72,1029.37 C690.235,1037.57 686.055,1041.64 679.29,1041.64 C671.15,1041.64 667.3,1036.03 667.3,1024.15 C667.3,1017.88 668.125,1013.75 669.995,1010.45 C671.7,1007.37 675.055,1005.45 678.63,1005.45 C682.48,1005.45 685.89,1007.48 687.98,1011 C689.025,1012.82 689.795,1014.85 691.115,1019.2 L693.535,1019.2 L692.71,1003.3 "/>
<path class="Harmony" d="M523.347,1003.69 L490.622,1003.69 L490.622,1006.27 L491.612,1006.27 C494.747,1006.33 495.792,1006.49 496.232,1007.04 C496.562,1007.54 496.562,1007.65 496.562,1010.45 L496.562,1036.63 C496.562,1039.44 496.562,1039.55 496.232,1040.04 C495.792,1040.59 494.747,1040.81 491.612,1040.81 L490.622,1040.81 L490.622,1043.4 L509.487,1043.4 L509.487,1040.81 L507.672,1040.81 C504.537,1040.81 503.492,1040.59 503.052,1040.04 C502.722,1039.55 502.722,1039.38 502.722,1036.63 L502.722,1024.15 L503.822,1024.15 C509.487,1023.93 511.522,1025.96 511.742,1032.07 L514.327,1032.07 L514.327,1014.03 L511.742,1014.03 C511.412,1019.42 509.267,1021.51 504.042,1021.56 L502.722,1021.56 L502.722,1009.02 C502.667,1006.71 503.217,1006.33 506.187,1006.27 L508.717,1006.27 C517.737,1006.22 519.992,1008.25 521.697,1017.71 L524.117,1017.71 L523.347,1003.69 "/>
<path class="Harmony" d="M390.637,1003.69 L357.912,1003.69 L357.912,1006.27 L358.902,1006.27 C362.037,1006.33 363.082,1006.49 363.522,1007.04 C363.852,1007.54 363.852,1007.65 363.852,1010.45 L363.852,1036.63 C363.852,1039.44 363.852,1039.55 363.522,1040.04 C363.082,1040.59 362.037,1040.81 358.902,1040.81 L357.912,1040.81 L357.912,1043.4 L376.777,1043.4 L376.777,1040.81 L374.962,1040.81 C371.827,1040.81 370.782,1040.59 370.342,1040.04 C370.012,1039.55 370.012,1039.38 370.012,1036.63 L370.012,1024.15 L371.112,1024.15 C376.777,1023.93 378.812,1025.96 379.032,1032.07 L381.617,1032.07 L381.617,1014.03 L379.032,1014.03 C378.702,1019.42 376.557,1021.51 371.332,1021.56 L370.012,1021.56 L370.012,1009.02 C369.957,1006.71 370.507,1006.33 373.477,1006.27 L376.007,1006.27 C385.027,1006.22 387.282,1008.25 388.987,1017.71 L391.407,1017.71 L390.637,1003.69 "/>
<path class="Harmony" d="M2661.15,532.103 L2659.06,532.103 L2656.86,535.348 C2652.85,532.433 2650.81,531.663 2647.02,531.663 C2641.79,531.663 2637.34,533.863 2633.65,538.263 C2630.13,542.443 2628.48,547.063 2628.48,552.728 C2628.48,564.608 2636.24,573.023 2647.07,573.023 C2655.87,573.023 2661.48,567.853 2662.75,558.613 L2660.16,558.173 C2658.68,566.368 2654.5,570.438 2647.73,570.438 C2639.59,570.438 2635.74,564.828 2635.74,552.948 C2635.74,546.678 2636.57,542.553 2638.44,539.253 C2640.14,536.173 2643.5,534.248 2647.07,534.248 C2650.92,534.248 2654.33,536.283 2656.42,539.803 C2657.47,541.618 2658.24,543.653 2659.56,547.998 L2661.98,547.998 L2661.15,532.103 "/>
<path class="Harmony" d="M1901.2,1003.3 L1899.11,1003.3 L1896.91,1006.55 C1892.9,1003.63 1890.86,1002.86 1887.07,1002.86 C1881.84,1002.86 1877.39,1005.06 1873.7,1009.46 C1870.18,1013.64 1868.53,1018.26 1868.53,1023.93 C1868.53,1035.81 1876.29,1044.22 1887.12,1044.22 C1895.92,1044.22 1901.53,1039.05 1902.8,1029.81 L1900.21,1029.37 C1898.73,1037.57 1894.55,1041.64 1887.78,1041.64 C1879.64,1041.64 1875.79,1036.03 1875.79,1024.15 C1875.79,1017.88 1876.62,1013.75 1878.49,1010.45 C1880.19,1007.37 1883.55,1005.45 1887.12,1005.45 C1890.97,1005.45 1894.38,1007.48 1896.47,1011 C1897.52,1012.82 1898.29,1014.85 1899.61,1019.2 L1902.03,1019.2 L1901.2,1003.3 "/>
<path class="Harmony" d="M429.322,532.103 L427.232,532.103 L425.032,535.348 C421.017,532.433 418.982,531.663 415.187,531.663 C409.962,531.663 405.507,533.863 401.822,538.263 C398.302,542.443 396.652,547.063 396.652,552.728 C396.652,564.608 404.407,573.023 415.242,573.023 C424.042,573.023 429.652,567.853 430.917,558.613 L428.332,558.173 C426.847,566.368 422.667,570.438 415.902,570.438 C407.762,570.438 403.912,564.828 403.912,552.948 C403.912,546.678 404.737,542.553 406.607,539.253 C408.312,536.173 411.667,534.248 415.242,534.248 C419.092,534.248 422.502,536.283 424.592,539.803 C425.637,541.618 426.407,543.653 427.727,547.998 L430.147,547.998 L429.322,532.103 "/>
<path class="Harmony" d="M2529.49,532.103 L2527.4,532.103 L2525.2,535.348 C2521.19,532.433 2519.15,531.663 2515.36,531.663 C2510.13,531.663 2505.68,533.863 2501.99,538.263 C2498.47,542.443 2496.82,547.063 2496.82,552.728 C2496.82,564.608 2504.58,573.023 2515.41,573.023 C2524.21,573.023 2529.82,567.853 2531.09,558.613 L2528.5,558.173 C2527.02,566.368 2522.84,570.438 2516.07,570.438 C2507.93,570.438 2504.08,564.828 2504.08,552.948 C2504.08,546.678 2504.91,542.553 2506.78,539.253 C2508.48,536.173 2511.84,534.248 2515.41,534.248 C2519.26,534.248 2522.67,536.283 2524.76,539.803 C2525.81,541.618 2526.58,543.653 2527.9,547.998 L2530.32,547.998 L2529.49,532.103 "/>
<path class="Harmony" d="M2638.16,1003.3 L2636.07,1003.3 L2633.87,1006.55 C2629.85,1003.63 2627.82,1002.86 2624.02,1002.86 C2618.8,1002.86 2614.34,1005.06 2610.66,1009.46 C2607.14,1013.64 2605.49,1018.26 2605.49,1023.93 C2605.49,1035.81 2613.24,1044.22 2624.08,1044.22 C2632.88,1044.22 2638.49,1039.05 2639.75,1029.81 L2637.17,1029.37 C2635.68,1037.57 2631.5,1041.64 2624.74,1041.64 C2616.6,1041.64 2612.75,1036.03 2612.75,1024.15 C2612.75,1017.88 2613.57,1013.75 2615.44,1010.45 C2617.15,1007.37 2620.5,1005.45 2624.08,1005.45 C2627.93,1005.45 2631.34,1007.48 2633.43,1011 C2634.47,1012.82 2635.24,1014.85 2636.56,1019.2 L2638.98,1019.2 L2638.16,1003.3 "/>
<path class="Harmony" d="M2033.91,1003.3 L2031.82,1003.3 L2029.62,1006.55 C2025.61,1003.63 2023.57,1002.86 2019.78,1002.86 C2014.55,1002.86 2010.1,1005.06 2006.41,1009.46 C2002.89,1013.64 2001.24,1018.26 2001.24,1023.93 C2001.24,1035.81 2009,1044.22 2019.83,1044.22 C2028.63,1044.22 2034.24,1039.05 2035.51,1029.81 L2032.92,1029.37 C2031.44,1037.57 2027.26,1041.64 2020.49,1041.64 C2012.35,1041.64 2008.5,1036.03 2008.5,1024.15 C2008.5,1017.88 2009.33,1013.75 2011.2,1010.45 C2012.9,1007.37 2016.26,1005.45 2019.83,1005.45 C2023.68,1005.45 2027.09,1007.48 2029.18,1011 C2030.23,1012.82 2031,1014.85 2032.32,1019.2 L2034.74,1019.2 L2033.91,1003.3 "/>
<path class="Harmony" d="M2361.18,532.488 L2328.45,532.488 L2328.45,535.073 L2329.44,535.073 C2332.58,535.128 2333.62,535.293 2334.06,535.843 C2334.39,536.338 2334.39,536.448 2334.39,539.253 L2334.39,565.433 C2334.39,568.238 2334.39,568.348 2334.06,568.843 C2333.62,569.393 2332.58,569.613 2329.44,569.613 L2328.45,569.613 L2328.45,572.198 L2347.32,572.198 L2347.32,569.613 L2345.5,569.613 C2342.37,569.613 2341.32,569.393 2340.88,568.843 C2340.55,568.348 2340.55,568.183 2340.55,565.433 L2340.55,552.948 L2341.65,552.948 C2347.32,552.728 2349.35,554.763 2349.57,560.868 L2352.16,560.868 L2352.16,542.828 L2349.57,542.828 C2349.24,548.218 2347.1,550.308 2341.87,550.363 L2340.55,550.363 L2340.55,537.823 C2340.5,535.513 2341.05,535.128 2344.02,535.073 L2346.55,535.073 C2355.57,535.018 2357.82,537.053 2359.53,546.513 L2361.95,546.513 L2361.18,532.488 "/>
<path class="Harmony" d="M2229.52,532.488 L2196.79,532.488 L2196.79,535.073 L2197.78,535.073 C2200.92,535.128 2201.96,535.293 2202.4,535.843 C2202.73,536.338 2202.73,536.448 2202.73,539.253 L2202.73,565.433 C2202.73,568.238 2202.73,568.348 2202.4,568.843 C2201.96,569.393 2200.92,569.613 2197.78,569.613 L2196.79,569.613 L2196.79,572.198 L2215.66,572.198 L2215.66,569.613 L2213.84,569.613 C2210.71,569.613 2209.66,569.393 2209.22,568.843 C2208.89,568.348 2208.89,568.183 2208.89,565.433 L2208.89,552.948 L2209.99,552.948 C2215.66,552.728 2217.69,554.763 2217.91,560.868 L2220.5,560.868 L2220.5,542.828 L2217.91,542.828 C2217.58,548.218 2215.44,550.308 2210.21,550.363 L2208.89,550.363 L2208.89,537.823 C2208.84,535.513 2209.39,535.128 2212.36,535.073 L2214.89,535.073 C2223.91,535.018 2226.16,537.053 2227.87,546.513 L2230.29,546.513 L2229.52,532.488 "/>
<path class="Harmony" d="M2061.1,532.103 L2059.01,532.103 L2056.81,535.348 C2052.8,532.433 2050.76,531.663 2046.97,531.663 C2041.74,531.663 2037.29,533.863 2033.6,538.263 C2030.08,542.443 2028.43,547.063 2028.43,552.728 C2028.43,564.608 2036.19,573.023 2047.02,573.023 C2055.82,573.023 2061.43,567.853 2062.7,558.613 L2060.11,558.173 C2058.63,566.368 2054.45,570.438 2047.68,570.438 C2039.54,570.438 2035.69,564.828 2035.69,552.948 C2035.69,546.678 2036.52,542.553 2038.39,539.253 C2040.09,536.173 2043.45,534.248 2047.02,534.248 C2050.87,534.248 2054.28,536.283 2056.37,539.803 C2057.42,541.618 2058.19,543.653 2059.51,547.998 L2061.93,547.998 L2061.1,532.103 "/>
<path class="Harmony" d="M1929.44,532.103 L1927.35,532.103 L1925.15,535.348 C1921.14,532.433 1919.1,531.663 1915.31,531.663 C1910.08,531.663 1905.63,533.863 1901.94,538.263 C1898.42,542.443 1896.77,547.063 1896.77,552.728 C1896.77,564.608 1904.53,573.023 1915.36,573.023 C1924.16,573.023 1929.77,567.853 1931.04,558.613 L1928.45,558.173 C1926.97,566.368 1922.79,570.438 1916.02,570.438 C1907.88,570.438 1904.03,564.828 1904.03,552.948 C1904.03,546.678 1904.86,542.553 1906.73,539.253 C1908.43,536.173 1911.79,534.248 1915.36,534.248 C1919.21,534.248 1922.62,536.283 1924.71,539.803 C1925.76,541.618 1926.53,543.653 1927.85,547.998 L1930.27,547.998 L1929.44,532.103 "/>
<path class="Harmony" d="M2204.1,1003.3 L2202.01,1003.3 L2199.87,1006.6 C2196.29,1003.8 2193.87,1002.86 2189.86,1002.86 C2185.51,1002.86 2182.1,1004.07 2178.64,1006.88 C2173.19,1011.28 2170.66,1016.83 2170.66,1024.26 C2170.66,1029.87 2172.26,1034.54 2175.5,1038.12 C2178.91,1041.97 2183.97,1044.22 2189.25,1044.22 C2193.87,1044.22 2197.12,1042.79 2200.69,1039.22 L2202.73,1044.17 L2205.04,1044.17 L2205.04,1032.07 C2205.04,1029.26 2205.04,1029.15 2205.37,1028.66 C2205.86,1028.05 2206.85,1027.89 2209.99,1027.89 L2210.81,1027.89 L2210.81,1025.3 L2193.32,1025.3 L2193.32,1027.89 L2194.37,1027.89 C2198.99,1027.89 2199.37,1028.16 2199.37,1031.24 C2199.37,1033.61 2198.99,1035.75 2198.27,1037.07 C2196.9,1039.77 2193.38,1041.64 2189.8,1041.64 C2186.23,1041.64 2182.71,1039.82 2180.84,1037.07 C2178.8,1033.99 2177.92,1030.14 2177.92,1024.26 C2177.92,1011.99 2181.99,1005.45 2189.64,1005.45 C2195.91,1005.45 2200.25,1009.96 2202.51,1018.76 L2204.87,1018.76 L2204.1,1003.3 "/>
<path class="Harmony" d="M2216.83,1017.99 L2219.25,1018.37 L2220.24,1014.03 C2221.07,1010.4 2221.45,1009.85 2223.05,1009.85 C2223.32,1009.85 2223.76,1009.85 2224.26,1009.9 C2231.02,1010.23 2231.02,1010.23 2233.55,1010.23 C2234.27,1010.23 2235.53,1010.23 2237.07,1010.18 L2233.33,1017.71 C2229.26,1025.8 2228.77,1026.79 2227.39,1030.2 C2225.69,1034.32 2224.81,1037.79 2224.81,1040.1 C2224.81,1042.63 2226.13,1044.17 2228.27,1044.17 C2230.91,1044.17 2231.96,1042.41 2231.9,1037.62 C2231.63,1029.7 2232.62,1025.85 2238.5,1012.98 C2239.49,1010.84 2240.54,1008.64 2241.53,1006.49 L2241.53,1004.9 C2238.23,1005.17 2236.47,1005.28 2233.06,1005.28 C2228.27,1005.28 2224.48,1005.12 2218.54,1004.68 L2216.83,1017.99 "/>
<path class="Harmony" d="M560.982,532.103 L558.892,532.103 L556.692,535.348 C552.677,532.433 550.642,531.663 546.847,531.663 C541.622,531.663 537.167,533.863 533.482,538.263 C529.962,542.443 528.312,547.063 528.312,552.728 C528.312,564.608 536.067,573.023 546.902,573.023 C555.702,573.023 561.312,567.853 562.577,558.613 L559.992,558.173 C558.507,566.368 554.327,570.438 547.562,570.438 C539.422,570.438 535.572,564.828 535.572,552.948 C535.572,546.678 536.397,542.553 538.267,539.253 C539.972,536.173 543.327,534.248 546.902,534.248 C550.752,534.248 554.162,536.283 556.252,539.803 C557.297,541.618 558.067,543.653 559.387,547.998 L561.807,547.998 L560.982,532.103 "/>
<path class="Harmony" d="M1761.08,532.103 L1758.99,532.103 L1756.79,535.348 C1752.78,532.433 1750.74,531.663 1746.95,531.663 C1741.72,531.663 1737.27,533.863 1733.58,538.263 C1730.06,542.443 1728.41,547.063 1728.41,552.728 C1728.41,564.608 1736.17,573.023 1747,573.023 C1755.8,573.023 1761.41,567.853 1762.68,558.613 L1760.09,558.173 C1758.61,566.368 1754.43,570.438 1747.66,570.438 C1739.52,570.438 1735.67,564.828 1735.67,552.948 C1735.67,546.678 1736.5,542.553 1738.37,539.253 C1740.07,536.173 1743.43,534.248 1747,534.248 C1750.85,534.248 1754.26,536.283 1756.35,539.803 C1757.4,541.618 1758.17,543.653 1759.49,547.998 L1761.91,547.998 L1761.08,532.103 "/>
<path class="Harmony" d="M2336.81,1003.3 L2334.72,1003.3 L2332.58,1006.6 C2329,1003.8 2326.58,1002.86 2322.57,1002.86 C2318.22,1002.86 2314.81,1004.07 2311.35,1006.88 C2305.9,1011.28 2303.37,1016.83 2303.37,1024.26 C2303.37,1029.87 2304.97,1034.54 2308.21,1038.12 C2311.62,1041.97 2316.68,1044.22 2321.96,1044.22 C2326.58,1044.22 2329.83,1042.79 2333.4,1039.22 L2335.44,1044.17 L2337.75,1044.17 L2337.75,1032.07 C2337.75,1029.26 2337.75,1029.15 2338.08,1028.66 C2338.57,1028.05 2339.56,1027.89 2342.7,1027.89 L2343.52,1027.89 L2343.52,1025.3 L2326.03,1025.3 L2326.03,1027.89 L2327.08,1027.89 C2331.7,1027.89 2332.08,1028.16 2332.08,1031.24 C2332.08,1033.61 2331.7,1035.75 2330.98,1037.07 C2329.61,1039.77 2326.09,1041.64 2322.51,1041.64 C2318.94,1041.64 2315.42,1039.82 2313.55,1037.07 C2311.51,1033.99 2310.63,1030.14 2310.63,1024.26 C2310.63,1011.99 2314.7,1005.45 2322.35,1005.45 C2328.62,1005.45 2332.96,1009.96 2335.22,1018.76 L2337.58,1018.76 L2336.81,1003.3 "/>
<path class="Harmony" d="M2349.54,1017.99 L2351.96,1018.37 L2352.95,1014.03 C2353.77,1010.4 2354.16,1009.85 2355.75,1009.85 C2356.03,1009.85 2356.47,1009.85 2356.96,1009.9 C2363.73,1010.23 2363.73,1010.23 2366.26,1010.23 C2366.97,1010.23 2368.24,1010.23 2369.78,1010.18 L2366.04,1017.71 C2361.97,1025.8 2361.47,1026.79 2360.1,1030.2 C2358.39,1034.32 2357.51,1037.79 2357.51,1040.1 C2357.51,1042.63 2358.83,1044.17 2360.98,1044.17 C2363.62,1044.17 2364.66,1042.41 2364.61,1037.62 C2364.33,1029.7 2365.32,1025.85 2371.21,1012.98 C2372.2,1010.84 2373.24,1008.64 2374.23,1006.49 L2374.23,1004.9 C2370.93,1005.17 2369.17,1005.28 2365.76,1005.28 C2360.98,1005.28 2357.18,1005.12 2351.24,1004.68 L2349.54,1017.99 "/>
<path class="Harmony" d="M1629.42,532.103 L1627.33,532.103 L1625.13,535.348 C1621.11,532.433 1619.08,531.663 1615.28,531.663 C1610.06,531.663 1605.6,533.863 1601.92,538.263 C1598.4,542.443 1596.75,547.063 1596.75,552.728 C1596.75,564.608 1604.5,573.023 1615.34,573.023 C1624.14,573.023 1629.75,567.853 1631.01,558.613 L1628.43,558.173 C1626.94,566.368 1622.76,570.438 1616,570.438 C1607.86,570.438 1604.01,564.828 1604.01,552.948 C1604.01,546.678 1604.83,542.553 1606.7,539.253 C1608.41,536.173 1611.76,534.248 1615.34,534.248 C1619.19,534.248 1622.6,536.283 1624.69,539.803 C1625.73,541.618 1626.5,543.653 1627.82,547.998 L1630.24,547.998 L1629.42,532.103 "/>
<path class="Harmony" d="M1461.83,532.103 L1459.74,532.103 L1457.6,535.403 C1454.02,532.598 1451.6,531.663 1447.59,531.663 C1443.24,531.663 1439.83,532.873 1436.37,535.678 C1430.92,540.078 1428.39,545.633 1428.39,553.058 C1428.39,558.668 1429.99,563.343 1433.23,566.918 C1436.64,570.768 1441.7,573.023 1446.98,573.023 C1451.6,573.023 1454.85,571.593 1458.42,568.018 L1460.46,572.968 L1462.77,572.968 L1462.77,560.868 C1462.77,558.063 1462.77,557.953 1463.1,557.458 C1463.59,556.853 1464.58,556.688 1467.72,556.688 L1468.54,556.688 L1468.54,554.103 L1451.05,554.103 L1451.05,556.688 L1452.1,556.688 C1456.72,556.688 1457.1,556.963 1457.1,560.043 C1457.1,562.408 1456.72,564.553 1456,565.873 C1454.63,568.568 1451.11,570.438 1447.53,570.438 C1443.96,570.438 1440.44,568.623 1438.57,565.873 C1436.53,562.793 1435.65,558.943 1435.65,553.058 C1435.65,540.793 1439.72,534.248 1447.37,534.248 C1453.64,534.248 1457.98,538.758 1460.24,547.558 L1462.6,547.558 L1461.83,532.103 "/>
<path class="Harmony" d="M1474.56,546.788 L1476.98,547.173 L1477.97,542.828 C1478.8,539.198 1479.18,538.648 1480.78,538.648 C1481.05,538.648 1481.49,538.648 1481.99,538.703 C1488.75,539.033 1488.75,539.033 1491.28,539.033 C1492,539.033 1493.26,539.033 1494.8,538.978 L1491.06,546.513 C1486.99,554.598 1486.5,555.588 1485.12,558.998 C1483.42,563.123 1482.54,566.588 1482.54,568.898 C1482.54,571.428 1483.86,572.968 1486,572.968 C1488.64,572.968 1489.69,571.208 1489.63,566.423 C1489.36,558.503 1490.35,554.653 1496.23,541.783 C1497.22,539.638 1498.27,537.438 1499.26,535.293 L1499.26,533.698 C1495.96,533.973 1494.2,534.083 1490.79,534.083 C1486,534.083 1482.21,533.918 1476.27,533.478 L1474.56,546.788 "/>
<path class="Harmony" d="M1330.17,532.103 L1328.08,532.103 L1325.94,535.403 C1322.36,532.598 1319.94,531.663 1315.93,531.663 C1311.58,531.663 1308.17,532.873 1304.71,535.678 C1299.26,540.078 1296.73,545.633 1296.73,553.058 C1296.73,558.668 1298.33,563.343 1301.57,566.918 C1304.98,570.768 1310.04,573.023 1315.32,573.023 C1319.94,573.023 1323.19,571.593 1326.76,568.018 L1328.8,572.968 L1331.11,572.968 L1331.11,560.868 C1331.11,558.063 1331.11,557.953 1331.44,557.458 C1331.93,556.853 1332.92,556.688 1336.06,556.688 L1336.88,556.688 L1336.88,554.103 L1319.39,554.103 L1319.39,556.688 L1320.44,556.688 C1325.06,556.688 1325.44,556.963 1325.44,560.043 C1325.44,562.408 1325.06,564.553 1324.34,565.873 C1322.97,568.568 1319.45,570.438 1315.87,570.438 C1312.3,570.438 1308.78,568.623 1306.91,565.873 C1304.87,562.793 1303.99,558.943 1303.99,553.058 C1303.99,540.793 1308.06,534.248 1315.71,534.248 C1321.98,534.248 1326.32,538.758 1328.58,547.558 L1330.94,547.558 L1330.17,532.103 "/>
<path class="Harmony" d="M1342.9,546.788 L1345.32,547.173 L1346.31,542.828 C1347.14,539.198 1347.52,538.648 1349.12,538.648 C1349.39,538.648 1349.83,538.648 1350.33,538.703 C1357.09,539.033 1357.09,539.033 1359.62,539.033 C1360.34,539.033 1361.6,539.033 1363.14,538.978 L1359.4,546.513 C1355.33,554.598 1354.84,555.588 1353.46,558.998 C1351.76,563.123 1350.88,566.588 1350.88,568.898 C1350.88,571.428 1352.2,572.968 1354.34,572.968 C1356.98,572.968 1358.03,571.208 1357.97,566.423 C1357.7,558.503 1358.69,554.653 1364.57,541.783 C1365.56,539.638 1366.61,537.438 1367.6,535.293 L1367.6,533.698 C1364.3,533.973 1362.54,534.083 1359.13,534.083 C1354.34,534.083 1350.55,533.918 1344.61,533.478 L1342.9,546.788 "/>
<path class="Harmony" d="M1161.03,532.103 L1158.94,532.103 L1156.74,535.348 C1152.73,532.433 1150.69,531.663 1146.9,531.663 C1141.67,531.663 1137.22,533.863 1133.53,538.263 C1130.01,542.443 1128.36,547.063 1128.36,552.728 C1128.36,564.608 1136.12,573.023 1146.95,573.023 C1155.75,573.023 1161.36,567.853 1162.63,558.613 L1160.04,558.173 C1158.56,566.368 1154.38,570.438 1147.61,570.438 C1139.47,570.438 1135.62,564.828 1135.62,552.948 C1135.62,546.678 1136.45,542.553 1138.32,539.253 C1140.02,536.173 1143.38,534.248 1146.95,534.248 C1150.8,534.248 1154.21,536.283 1156.3,539.803 C1157.35,541.618 1158.12,543.653 1159.44,547.998 L1161.86,547.998 L1161.03,532.103 "/>
<path class="Harmony" d="M1029.37,532.103 L1027.28,532.103 L1025.08,535.348 C1021.07,532.433 1019.03,531.663 1015.24,531.663 C1010.01,531.663 1005.56,533.863 1001.87,538.263 C998.351,542.443 996.701,547.063 996.701,552.728 C996.701,564.608 1004.46,573.023 1015.29,573.023 C1024.09,573.023 1029.7,567.853 1030.97,558.613 L1028.38,558.173 C1026.9,566.368 1022.72,570.438 1015.95,570.438 C1007.81,570.438 1003.96,564.828 1003.96,552.948 C1003.96,546.678 1004.79,542.553 1006.66,539.253 C1008.36,536.173 1011.72,534.248 1015.29,534.248 C1019.14,534.248 1022.55,536.283 1024.64,539.803 C1025.69,541.618 1026.46,543.653 1027.78,547.998 L1030.2,547.998 L1029.37,532.103 "/>
<path class="Harmony" d="M2505.45,1003.3 L2503.36,1003.3 L2501.16,1006.55 C2497.14,1003.63 2495.11,1002.86 2491.31,1002.86 C2486.09,1002.86 2481.63,1005.06 2477.95,1009.46 C2474.43,1013.64 2472.78,1018.26 2472.78,1023.93 C2472.78,1035.81 2480.53,1044.22 2491.37,1044.22 C2500.17,1044.22 2505.78,1039.05 2507.04,1029.81 L2504.46,1029.37 C2502.97,1037.57 2498.79,1041.64 2492.03,1041.64 C2483.89,1041.64 2480.04,1036.03 2480.04,1024.15 C2480.04,1017.88 2480.86,1013.75 2482.73,1010.45 C2484.44,1007.37 2487.79,1005.45 2491.37,1005.45 C2495.22,1005.45 2498.63,1007.48 2500.72,1011 C2501.76,1012.82 2502.53,1014.85 2503.85,1019.2 L2506.27,1019.2 L2505.45,1003.3 "/>
<path class="Harmony" d="M1430.44,1003.3 L1428.35,1003.3 L1426.21,1006.6 C1422.63,1003.8 1420.21,1002.86 1416.2,1002.86 C1411.85,1002.86 1408.44,1004.07 1404.98,1006.88 C1399.53,1011.28 1397,1016.83 1397,1024.26 C1397,1029.87 1398.6,1034.54 1401.84,1038.12 C1405.25,1041.97 1410.31,1044.22 1415.59,1044.22 C1420.21,1044.22 1423.46,1042.79 1427.03,1039.22 L1429.07,1044.17 L1431.38,1044.17 L1431.38,1032.07 C1431.38,1029.26 1431.38,1029.15 1431.71,1028.66 C1432.2,1028.05 1433.19,1027.89 1436.33,1027.89 L1437.15,1027.89 L1437.15,1025.3 L1419.66,1025.3 L1419.66,1027.89 L1420.71,1027.89 C1425.33,1027.89 1425.71,1028.16 1425.71,1031.24 C1425.71,1033.61 1425.33,1035.75 1424.61,1037.07 C1423.24,1039.77 1419.72,1041.64 1416.14,1041.64 C1412.57,1041.64 1409.05,1039.82 1407.18,1037.07 C1405.14,1033.99 1404.26,1030.14 1404.26,1024.26 C1404.26,1011.99 1408.33,1005.45 1415.98,1005.45 C1422.25,1005.45 1426.59,1009.96 1428.85,1018.76 L1431.21,1018.76 L1430.44,1003.3 "/>
<path class="Harmony" d="M1443.17,1017.99 L1445.59,1018.37 L1446.58,1014.03 C1447.41,1010.4 1447.79,1009.85 1449.39,1009.85 C1449.66,1009.85 1450.1,1009.85 1450.6,1009.9 C1457.36,1010.23 1457.36,1010.23 1459.89,1010.23 C1460.61,1010.23 1461.87,1010.23 1463.41,1010.18 L1459.67,1017.71 C1455.6,1025.8 1455.11,1026.79 1453.73,1030.2 C1452.03,1034.32 1451.15,1037.79 1451.15,1040.1 C1451.15,1042.63 1452.47,1044.17 1454.61,1044.17 C1457.25,1044.17 1458.3,1042.41 1458.24,1037.62 C1457.97,1029.7 1458.96,1025.85 1464.84,1012.98 C1465.83,1010.84 1466.88,1008.64 1467.87,1006.49 L1467.87,1004.9 C1464.57,1005.17 1462.81,1005.28 1459.4,1005.28 C1454.61,1005.28 1450.82,1005.12 1444.88,1004.68 L1443.17,1017.99 "/>
</svg>
