<?xml version="1.0" encoding="UTF-8" standalone="no"?>
<svg width="2977.2px" height="4208.4px" viewBox="0 0 2977.2 4208.4"
 xmlns="http://www.w3.org/2000/svg" xmlns:xlink="http://www.w3.org/1999/xlink" version="1.2" baseProfile="tiny">
<title>桃太郎</title>
<desc>Generated by MuseScore Studio 4.4.2</desc>
<path class="" fill="#ffffff" fill-rule="evenodd" d="M0,0 L2977.2,0 L2977.2,4208.4 L0,4208.4 L0,0 "/>
<polyline class="StaffLines" fill="none" stroke="#000000" stroke-width="2.73" stroke-linejoin="bevel" points="212.598,634.198 2764.6,634.198"/>
<polyline class="StaffLines" fill="none" stroke="#000000" stroke-width="2.73" stroke-linejoin="bevel" points="212.598,658.998 2764.6,658.998"/>
<polyline class="StaffLines" fill="none" stroke="#000000" stroke-width="2.73" stroke-linejoin="bevel" points="212.598,683.798 2764.6,683.798"/>
<polyline class="StaffLines" fill="none" stroke="#000000" stroke-width="2.73" stroke-linejoin="bevel" points="212.598,708.598 2764.6,708.598"/>
<polyline class="StaffLines" fill="none" stroke="#000000" stroke-width="2.73" stroke-linejoin="bevel" points="212.598,733.398 2764.6,733.398"/>
<polyline class="StaffLines" fill="none" stroke="#000000" stroke-width="2.73" stroke-linejoin="bevel" points="212.598,1105.4 2764.6,1105.4"/>
<polyline class="StaffLines" fill="none" stroke="#000000" stroke-width="2.73" stroke-linejoin="bevel" points="212.598,1130.2 2764.6,1130.2"/>
<polyline class="StaffLines" fill="none" stroke="#000000" stroke-width="2.73" stroke-linejoin="bevel" points="212.598,1155 2764.6,1155"/>
<polyline class="StaffLines" fill="none" stroke="#000000" stroke-width="2.73" stroke-linejoin="bevel" points="212.598,1179.8 2764.6,1179.8"/>
<polyline class="StaffLines" fill="none" stroke="#000000" stroke-width="2.73" stroke-linejoin="bevel" points="212.598,1204.6 2764.6,1204.6"/>
<path class="Text" d="M1389.16,225.573 C1389.16,219.743 1389.38,216.443 1389.82,213.693 L1381.9,213.693 C1382.34,216.773 1382.56,220.183 1382.56,226.013 L1382.56,254.173 C1382.56,257.253 1382.45,259.563 1382.34,262.643 C1379.7,264.733 1379.04,265.173 1376.4,266.933 C1368.15,272.433 1364.3,274.743 1360.01,276.393 L1362.98,283.433 C1364.85,282.113 1364.85,282.113 1373.43,276.503 C1375.96,274.743 1378.38,272.983 1381.68,270.343 C1380.58,279.913 1378.16,287.613 1374.09,293.663 C1370.35,299.273 1365.51,303.453 1357.15,308.183 C1359.24,309.943 1360.67,311.263 1362.43,313.573 C1369.69,309.063 1373.65,305.653 1377.5,300.593 C1385.75,289.923 1389.16,275.843 1389.16,252.083 L1389.16,225.573 M1356.38,240.093 C1358.91,240.093 1361,240.203 1363.2,240.423 L1363.2,233.603 C1361.11,233.933 1359.35,234.043 1356.27,234.043 L1352.75,234.043 L1352.75,223.813 C1352.75,218.203 1352.86,215.343 1353.3,212.593 L1345.49,212.593 C1345.93,215.233 1346.04,217.653 1346.04,223.923 L1346.04,234.043 L1339.88,234.043 C1336.36,234.043 1334.05,233.933 1332.18,233.603 L1332.18,240.533 C1334.16,240.203 1336.47,240.093 1339.88,240.093 L1345.27,240.093 C1342.19,255.053 1336.14,269.353 1328.66,279.583 C1330.64,281.563 1331.63,283.103 1333.06,285.743 C1339.33,276.063 1342.52,268.363 1346.59,252.193 C1346.15,260.333 1346.04,264.403 1346.04,268.803 L1346.04,300.263 C1346.04,305.983 1345.82,309.833 1345.38,313.023 L1353.41,313.023 C1352.97,309.833 1352.75,306.423 1352.75,300.263 L1352.75,267.813 C1352.75,262.753 1352.64,258.793 1352.31,249.333 C1355.06,256.593 1357.37,260.993 1361.88,267.813 C1362.98,265.723 1364.19,263.963 1365.95,262.203 C1362.21,257.803 1360.34,255.163 1357.81,250.543 C1355.5,246.363 1354.07,243.173 1353.08,240.093 L1356.38,240.093 M1405.77,267.373 C1412.04,271.663 1418.75,277.383 1425.02,283.433 L1429.2,277.713 C1420.51,270.343 1417.76,268.253 1405.77,260.223 L1405.77,225.023 C1405.77,219.743 1405.99,216.773 1406.43,213.693 L1398.51,213.693 C1398.95,216.773 1399.17,219.853 1399.17,224.803 L1399.17,303.453 C1399.17,309.613 1401.48,310.823 1412.37,310.823 C1422.38,310.823 1425.9,309.723 1427.77,305.983 C1429.31,302.903 1430.08,298.503 1430.96,289.483 C1428.21,288.713 1426.89,288.163 1424.25,286.623 C1423.92,294.763 1423.15,300.263 1422.16,302.133 C1421.17,303.893 1419.3,304.333 1412.48,304.333 C1406.76,304.333 1405.77,303.893 1405.77,301.583 L1405.77,267.373 M1413.47,254.943 C1419.19,247.023 1421.28,243.283 1427.55,229.533 L1421.28,226.233 C1417.65,236.353 1414.24,242.953 1408.41,250.983 L1413.47,254.943 M1363.75,230.303 C1368.15,238.773 1370.68,244.933 1373.65,254.503 L1379.37,250.763 C1376.29,241.633 1373.98,236.133 1369.47,227.223 L1363.75,230.303 M1526,243.833 C1531.39,243.833 1534.58,244.053 1537.99,244.603 L1537.99,236.353 C1535.13,236.903 1531.5,237.123 1525.89,237.123 L1492.01,237.123 C1492.34,232.173 1492.56,229.423 1492.56,224.693 C1492.67,219.193 1492.78,216.993 1493.33,213.253 L1484.53,213.253 C1485.08,216.333 1485.3,220.183 1485.3,225.243 C1485.3,229.423 1485.19,232.503 1484.75,237.123 L1454.5,237.123 C1448.45,237.123 1444.93,236.903 1442.07,236.353 L1442.07,244.603 C1445.37,244.053 1448.23,243.833 1454.17,243.833 L1483.98,243.833 C1479.58,272.103 1466.16,290.583 1439.98,304.333 C1442.29,306.643 1443.17,308.073 1444.6,310.933 C1461.32,300.813 1470.23,292.563 1478.26,280.023 C1483.65,271.553 1487.17,262.753 1489.81,251.203 C1493.44,262.643 1496.85,270.013 1502.57,279.033 C1510.82,291.793 1519.95,300.593 1536.78,311.813 C1538.54,308.403 1539.31,307.083 1541.4,304.553 C1533.37,300.043 1529.74,297.513 1524.02,292.563 C1517.42,286.953 1512.36,281.343 1508.18,275.183 C1501.8,265.393 1498.06,257.473 1493.88,243.833 L1526,243.833 M1501.25,300.923 C1495.42,292.563 1490.8,287.063 1484.31,280.683 L1478.59,284.423 C1485.74,291.903 1489.04,296.083 1495.09,305.433 L1501.25,300.923 M1603.99,303.343 C1598.38,292.783 1593.65,285.303 1586.83,276.283 L1581,278.923 C1584.85,284.093 1586.28,286.183 1588.81,290.363 C1578.58,294.433 1575.39,295.533 1565.38,298.393 L1565.38,271.993 L1590.35,271.993 C1594.2,271.993 1596.95,272.103 1599.59,272.433 C1599.37,269.353 1599.26,266.713 1599.26,262.423 L1599.26,236.573 C1599.26,231.953 1599.37,229.093 1599.7,226.453 C1597.17,226.783 1594.64,226.893 1590.35,226.893 L1582.21,226.893 L1582.21,221.173 C1582.21,218.093 1582.43,215.893 1582.87,213.693 L1574.73,213.693 C1575.17,216.003 1575.39,218.093 1575.39,221.063 L1575.39,226.893 L1567.47,226.893 C1563.18,226.893 1560.54,226.783 1558.12,226.453 C1558.45,228.983 1558.56,232.173 1558.56,236.463 L1558.56,300.153 C1554.82,301.033 1552.62,301.363 1549.87,301.583 L1551.63,309.063 C1553.72,308.293 1555.92,307.633 1557.46,307.193 C1570.33,303.563 1577.92,301.033 1591.89,295.533 C1594.2,299.713 1595.19,301.473 1597.72,306.973 L1603.99,303.343 M1565.38,245.923 L1565.38,233.053 L1592.55,233.053 L1592.55,245.923 L1565.38,245.923 M1565.38,251.863 L1592.55,251.863 L1592.55,265.833 L1565.38,265.833 L1565.38,251.863 M1644.69,217.103 C1642.6,217.433 1640.29,217.543 1636.22,217.543 L1617.96,217.543 C1614.22,217.543 1612.13,217.433 1609.27,217.213 C1609.6,220.403 1609.71,223.923 1609.71,227.223 L1609.71,301.033 C1609.71,306.643 1609.49,309.833 1609.05,312.803 L1617.41,312.803 C1616.86,309.613 1616.64,305.653 1616.64,300.153 L1616.64,223.703 L1639.74,223.703 C1635.12,236.243 1631.6,243.833 1624.78,255.273 C1631.49,261.323 1634.24,264.623 1636.88,269.463 C1639.52,274.193 1640.84,279.143 1640.84,284.203 C1640.84,289.923 1638.64,291.683 1631.49,291.683 C1628.74,291.683 1625.88,291.353 1622.14,290.693 C1623.02,293.003 1623.46,294.873 1623.46,298.063 C1626.87,298.393 1629.18,298.503 1631.05,298.503 C1634.24,298.503 1637.54,298.173 1639.52,297.623 C1645.24,295.973 1648.1,291.573 1648.1,284.313 C1648.1,278.373 1646.56,272.543 1643.37,267.153 C1641.06,263.083 1638.75,260.223 1633.03,254.173 C1637.21,247.133 1643.37,234.483 1646.67,226.123 C1647.22,224.693 1647.77,223.483 1648.54,222.053 L1644.69,217.103 "/>
<path class="MeasureNumber" d="M232.288,1027.64 C230.168,1027.88 227.568,1028.04 225.328,1028.04 C224.208,1028.04 222.928,1028 221.488,1027.92 C220.168,1027.84 218.848,1027.76 217.488,1027.68 L216.488,1027.64 L212.608,1036.08 L214.088,1036.56 L215.048,1034.96 C216.928,1031.84 217.808,1031.4 221.888,1031.44 L228.648,1031.44 L224.288,1037.68 C219.168,1044.88 219.168,1044.88 217.208,1048.08 C215.448,1050.92 214.728,1052.68 214.728,1054.12 C214.728,1055.52 215.608,1056.4 217.008,1056.4 C218.488,1056.4 219.248,1055.68 219.768,1053.8 C221.768,1046.28 222.968,1043.68 228.528,1034.68 L232.288,1028.84 L232.288,1027.64 "/>
<polyline class="BarLine" fill="none" stroke="#000000" stroke-width="4.46" stroke-linejoin="bevel" points="768.473,632.834 768.473,734.762"/>
<polyline class="BarLine" fill="none" stroke="#000000" stroke-width="4.46" stroke-linejoin="bevel" points="2740.42,1104.03 2740.42,1205.96"/>
<polyline class="BarLine" fill="none" stroke="#000000" stroke-width="13.64" stroke-linejoin="bevel" points="2757.78,1104.03 2757.78,1205.96"/>
<polyline class="BarLine" fill="none" stroke="#000000" stroke-width="4.46" stroke-linejoin="bevel" points="2414.89,1104.03 2414.89,1205.96"/>
<polyline class="BarLine" fill="none" stroke="#000000" stroke-width="4.46" stroke-linejoin="bevel" points="1980.01,1104.03 1980.01,1205.96"/>
<polyline class="BarLine" fill="none" stroke="#000000" stroke-width="4.46" stroke-linejoin="bevel" points="1545.13,1104.03 1545.13,1205.96"/>
<polyline class="BarLine" fill="none" stroke="#000000" stroke-width="4.46" stroke-linejoin="bevel" points="1160.02,1104.03 1160.02,1205.96"/>
<polyline class="BarLine" fill="none" stroke="#000000" stroke-width="4.46" stroke-linejoin="bevel" points="834.487,1104.03 834.487,1205.96"/>
<polyline class="BarLine" fill="none" stroke="#000000" stroke-width="4.46" stroke-linejoin="bevel" points="2762.37,632.834 2762.37,734.762"/>
<polyline class="BarLine" fill="none" stroke="#000000" stroke-width="4.46" stroke-linejoin="bevel" points="2371.71,632.834 2371.71,734.762"/>
<polyline class="BarLine" fill="none" stroke="#000000" stroke-width="4.46" stroke-linejoin="bevel" points="1930.49,632.834 1930.49,734.762"/>
<polyline class="BarLine" fill="none" stroke="#000000" stroke-width="4.46" stroke-linejoin="bevel" points="1600.35,632.834 1600.35,734.762"/>
<polyline class="BarLine" fill="none" stroke="#000000" stroke-width="4.46" stroke-linejoin="bevel" points="1159.13,632.834 1159.13,734.762"/>
<polyline class="Stem" fill="none" stroke="#000000" stroke-width="2.73" stroke-linejoin="bevel" points="1780.05,1159.16 1780.05,1223.2"/>
<polyline class="Stem" fill="none" stroke="#000000" stroke-width="2.73" stroke-linejoin="bevel" points="1879.6,1159.16 1879.6,1223.2"/>
<polyline class="Stem" fill="none" stroke="#000000" stroke-width="2.73" stroke-linejoin="bevel" points="1224.46,692.23 1224.46,627.998"/>
<polyline class="Stem" fill="none" stroke="#000000" stroke-width="2.73" stroke-linejoin="bevel" points="503.673,692.23 503.673,615.598"/>
<polyline class="Stem" fill="none" stroke="#000000" stroke-width="2.73" stroke-linejoin="bevel" points="1036.07,717.03 1036.07,634.198"/>
<polyline class="Stem" fill="none" stroke="#000000" stroke-width="2.73" stroke-linejoin="bevel" points="734.075,1159.16 734.075,1223.2"/>
<polyline class="Stem" fill="none" stroke="#000000" stroke-width="2.73" stroke-linejoin="bevel" points="1325.59,692.23 1325.59,627.998"/>
<polyline class="Stem" fill="none" stroke="#000000" stroke-width="2.73" stroke-linejoin="bevel" points="1424.44,1163.43 1424.44,1086.8"/>
<polyline class="Stem" fill="none" stroke="#000000" stroke-width="2.73" stroke-linejoin="bevel" points="1426.72,717.03 1426.72,652.961"/>
<polyline class="Stem" fill="none" stroke="#000000" stroke-width="2.73" stroke-linejoin="bevel" points="634.53,1159.16 634.53,1223.2"/>
<polyline class="Stem" fill="none" stroke="#000000" stroke-width="2.73" stroke-linejoin="bevel" points="2343.97,1200.63 2343.97,1130.12"/>
<polyline class="Stem" fill="none" stroke="#000000" stroke-width="2.73" stroke-linejoin="bevel" points="564.483,1188.23 564.483,1111.6"/>
<polyline class="Stem" fill="none" stroke="#000000" stroke-width="2.73" stroke-linejoin="bevel" points="1527.85,741.83 1527.85,665.036"/>
<polyline class="Stem" fill="none" stroke="#000000" stroke-width="2.73" stroke-linejoin="bevel" points="464.938,1188.23 464.938,1111.6"/>
<polyline class="Stem" fill="none" stroke="#000000" stroke-width="2.73" stroke-linejoin="bevel" points="2299.21,729.43 2299.21,658.998"/>
<polyline class="Stem" fill="none" stroke="#000000" stroke-width="2.73" stroke-linejoin="bevel" points="899.819,1163.43 899.819,1086.8"/>
<polyline class="Stem" fill="none" stroke="#000000" stroke-width="2.73" stroke-linejoin="bevel" points="1665.69,729.43 1665.69,646.598"/>
<polyline class="Stem" fill="none" stroke="#000000" stroke-width="2.73" stroke-linejoin="bevel" points="934.936,692.23 934.936,627.998"/>
<polyline class="Stem" fill="none" stroke="#000000" stroke-width="2.73" stroke-linejoin="bevel" points="2244.43,1188.23 2244.43,1124.08"/>
<polyline class="Stem" fill="none" stroke="#000000" stroke-width="2.73" stroke-linejoin="bevel" points="1610.46,1188.23 1610.46,1111.6"/>
<polyline class="Stem" fill="none" stroke="#000000" stroke-width="2.73" stroke-linejoin="bevel" points="2144.89,1163.43 2144.89,1099.2"/>
<polyline class="Stem" fill="none" stroke="#000000" stroke-width="2.73" stroke-linejoin="bevel" points="2639.3,729.43 2639.3,646.598"/>
<polyline class="Stem" fill="none" stroke="#000000" stroke-width="2.73" stroke-linejoin="bevel" points="2045.34,1163.43 2045.34,1099.2"/>
<polyline class="Stem" fill="none" stroke="#000000" stroke-width="2.73" stroke-linejoin="bevel" points="2480.22,1213.03 2480.22,1130.2"/>
<polyline class="Stem" fill="none" stroke="#000000" stroke-width="2.73" stroke-linejoin="bevel" points="1995.82,741.83 1995.82,665.198"/>
<polyline class="Stem" fill="none" stroke="#000000" stroke-width="2.73" stroke-linejoin="bevel" points="2538.17,717.03 2538.17,640.398"/>
<polyline class="Stem" fill="none" stroke="#000000" stroke-width="2.73" stroke-linejoin="bevel" points="1295.4,1134.36 1295.4,1204.6"/>
<polyline class="Stem" fill="none" stroke="#000000" stroke-width="2.73" stroke-linejoin="bevel" points="1710,1188.23 1710,1111.6"/>
<polyline class="Stem" fill="none" stroke="#000000" stroke-width="2.73" stroke-linejoin="bevel" points="2096.95,741.83 2096.95,665.198"/>
<polyline class="Stem" fill="none" stroke="#000000" stroke-width="2.73" stroke-linejoin="bevel" points="2437.04,717.03 2437.04,640.398"/>
<polyline class="Stem" fill="none" stroke="#000000" stroke-width="2.73" stroke-linejoin="bevel" points="2198.08,729.43 2198.08,658.998"/>
<polyline class="Stem" fill="none" stroke="#000000" stroke-width="2.73" stroke-linejoin="bevel" points="1195.85,1134.36 1195.85,1204.6"/>
<polyline class="Stem" fill="none" stroke="#000000" stroke-width="2.73" stroke-linejoin="bevel" points="833.806,692.23 833.806,627.998"/>
<polyline class="Stem" fill="none" stroke="#000000" stroke-width="2.73" stroke-linejoin="bevel" points="666.476,687.965 666.476,764.299"/>
<path class="Hook" transform="matrix(0.992,0,0,0.992,665.112,764.398)" d="M0,-0.1 C0,0.6 0.6,1.2 1.3,1.2 C1.8,1.2 2.4,0.8 2.5,0.4 C2.5,0.3 3.4,-3.2 3.5,-3.5 C3.6,-3.9 4.5,-7.7 8.1,-13.6 C12,-20.1 18,-24.8 23,-31.8 C28,-38.8 30.9,-45.4 30.9,-54.2 C30.9,-63.3 28.9,-70.9 23.5,-80.6 C23.2,-81.3 22.6,-81.7 22,-81.7 C21.8,-81.7 21.6,-81.7 21.5,-81.6 C21,-81.4 20.8,-81 20.8,-80.4 C20.8,-80.1 20.9,-79.7 21.1,-79.2 C25.1,-69.9 26.7,-64.6 26.7,-57.4 C26.7,-49.1 23.8,-44.8 22,-41.7 C15.5,-30.6 5,-25.2 0.8,-23.8 C0.1,-23.6 0,-23 0,-22.7 L0,-0.1 "/>
<path class="Note" transform="matrix(0.992,0,0,0.992,2167.22,733.398)" d="M0,4.2 C0,8.5 3.1,13.3 11.2,13.3 C21.6,13.3 32.5,4.8 32.5,-4 C32.5,-9.9 27.5,-13.2 21.3,-13.2 C11.6,-13.2 0,-5 0,4.2"/>
<path class="Note" transform="matrix(0.992,0,0,0.992,868.959,1167.4)" d="M0,4.2 C0,8.5 3.1,13.3 11.2,13.3 C21.6,13.3 32.5,4.8 32.5,-4 C32.5,-9.9 27.5,-13.2 21.3,-13.2 C11.6,-13.2 0,-5 0,4.2"/>
<path class="Note" transform="matrix(0.992,0,0,0.992,2268.35,733.398)" d="M0,4.2 C0,8.5 3.1,13.3 11.2,13.3 C21.6,13.3 32.5,4.8 32.5,-4 C32.5,-9.9 27.5,-13.2 21.3,-13.2 C11.6,-13.2 0,-5 0,4.2"/>
<path class="Note" transform="matrix(0.992,0,0,0.992,1878.23,1155)" d="M0,4.2 C0,8.5 3.1,13.3 11.2,13.3 C21.6,13.3 32.5,4.8 32.5,-4 C32.5,-9.9 27.5,-13.2 21.3,-13.2 C11.6,-13.2 0,-5 0,4.2"/>
<path class="Note" transform="matrix(0.992,0,0,0.992,2066.09,745.798)" d="M0,4.2 C0,8.5 3.1,13.3 11.2,13.3 C21.6,13.3 32.5,4.8 32.5,-4 C32.5,-9.9 27.5,-13.2 21.3,-13.2 C11.6,-13.2 0,-5 0,4.2"/>
<path class="Note" transform="matrix(0.992,0,0,0.992,2406.18,720.998)" d="M0,4.2 C0,8.5 3.1,13.3 11.2,13.3 C21.6,13.3 32.5,4.8 32.5,-4 C32.5,-9.9 27.5,-13.2 21.3,-13.2 C11.6,-13.2 0,-5 0,4.2"/>
<path class="Note" transform="matrix(0.992,0,0,0.992,1679.14,1192.2)" d="M0,4.2 C0,8.5 3.1,13.3 11.2,13.3 C21.6,13.3 32.5,4.8 32.5,-4 C32.5,-9.9 27.5,-13.2 21.3,-13.2 C11.6,-13.2 0,-5 0,4.2"/>
<path class="Note" transform="matrix(0.992,0,0,0.992,802.945,696.198)" d="M0,4.2 C0,8.5 3.1,13.3 11.2,13.3 C21.6,13.3 32.5,4.8 32.5,-4 C32.5,-9.9 27.5,-13.2 21.3,-13.2 C11.6,-13.2 0,-5 0,4.2"/>
<path class="Note" transform="matrix(0.992,0,0,0.992,1964.96,745.798)" d="M0,4.2 C0,8.5 3.1,13.3 11.2,13.3 C21.6,13.3 32.5,4.8 32.5,-4 C32.5,-9.9 27.5,-13.2 21.3,-13.2 C11.6,-13.2 0,-5 0,4.2"/>
<path class="Note" transform="matrix(0.992,0,0,0.992,2507.31,720.998)" d="M0,4.2 C0,8.5 3.1,13.3 11.2,13.3 C21.6,13.3 32.5,4.8 32.5,-4 C32.5,-9.9 27.5,-13.2 21.3,-13.2 C11.6,-13.2 0,-5 0,4.2"/>
<path class="Note" transform="matrix(0.992,0,0,0.992,2014.48,1167.4)" d="M0,4.2 C0,8.5 3.1,13.3 11.2,13.3 C21.6,13.3 32.5,4.8 32.5,-4 C32.5,-9.9 27.5,-13.2 21.3,-13.2 C11.6,-13.2 0,-5 0,4.2"/>
<path class="Note" transform="matrix(0.992,0,0,0.992,2608.44,733.398)" d="M0,4.2 C0,8.5 3.1,13.3 11.2,13.3 C21.6,13.3 32.5,4.8 32.5,-4 C32.5,-9.9 27.5,-13.2 21.3,-13.2 C11.6,-13.2 0,-5 0,4.2"/>
<path class="Note" transform="matrix(0.992,0,0,0.992,1579.6,1192.2)" d="M0,4.2 C0,8.5 3.1,13.3 11.2,13.3 C21.6,13.3 32.5,4.8 32.5,-4 C32.5,-9.9 27.5,-13.2 21.3,-13.2 C11.6,-13.2 0,-5 0,4.2"/>
<path class="Note" transform="matrix(0.992,0,0,0.992,2114.02,1167.4)" d="M0,4.2 C0,8.5 3.1,13.3 11.2,13.3 C21.6,13.3 32.5,4.8 32.5,-4 C32.5,-9.9 27.5,-13.2 21.3,-13.2 C11.6,-13.2 0,-5 0,4.2"/>
<path class="Note" transform="matrix(0.992,0,0,0.992,1634.83,733.398)" d="M0,4.2 C0,8.5 3.1,13.3 11.2,13.3 C21.6,13.3 32.5,4.8 32.5,-4 C32.5,-9.9 27.5,-13.2 21.3,-13.2 C11.6,-13.2 0,-5 0,4.2"/>
<path class="Note" transform="matrix(0.992,0,0,0.992,472.812,696.198)" d="M0,4.2 C0,8.5 3.1,13.3 11.2,13.3 C21.6,13.3 32.5,4.8 32.5,-4 C32.5,-9.9 27.5,-13.2 21.3,-13.2 C11.6,-13.2 0,-5 0,4.2"/>
<path class="Note" transform="matrix(0.992,0,0,0.992,1194.49,1130.2)" d="M0,4.2 C0,8.5 3.1,13.3 11.2,13.3 C21.6,13.3 32.5,4.8 32.5,-4 C32.5,-9.9 27.5,-13.2 21.3,-13.2 C11.6,-13.2 0,-5 0,4.2"/>
<path class="Note" transform="matrix(0.992,0,0,0.992,2449.36,1217)" d="M0,4.2 C0,8.5 3.1,13.3 11.2,13.3 C21.6,13.3 32.5,4.8 32.5,-4 C32.5,-9.9 27.5,-13.2 21.3,-13.2 C11.6,-13.2 0,-5 0,4.2"/>
<path class="Note" transform="matrix(0.992,0,0,0.992,1496.99,745.798)" d="M0,4.2 C0,8.5 3.1,13.3 11.2,13.3 C21.6,13.3 32.5,4.8 32.5,-4 C32.5,-9.9 27.5,-13.2 21.3,-13.2 C11.6,-13.2 0,-5 0,4.2"/>
<path class="Note" transform="matrix(0.992,0,0,0.992,434.078,1192.2)" d="M0,4.2 C0,8.5 3.1,13.3 11.2,13.3 C21.6,13.3 32.5,4.8 32.5,-4 C32.5,-9.9 27.5,-13.2 21.3,-13.2 C11.6,-13.2 0,-5 0,4.2"/>
<path class="Note" transform="matrix(0.992,0,0,0.992,665.112,683.798)" d="M0,4.2 C0,8.5 3.1,13.3 11.2,13.3 C21.6,13.3 32.5,4.8 32.5,-4 C32.5,-9.9 27.5,-13.2 21.3,-13.2 C11.6,-13.2 0,-5 0,4.2"/>
<path class="Note" transform="matrix(0.992,0,0,0.992,1294.04,1130.2)" d="M0,4.2 C0,8.5 3.1,13.3 11.2,13.3 C21.6,13.3 32.5,4.8 32.5,-4 C32.5,-9.9 27.5,-13.2 21.3,-13.2 C11.6,-13.2 0,-5 0,4.2"/>
<path class="Note" transform="matrix(0.992,0,0,0.992,2213.57,1192.2)" d="M0,4.2 C0,8.5 3.1,13.3 11.2,13.3 C21.6,13.3 32.5,4.8 32.5,-4 C32.5,-9.9 27.5,-13.2 21.3,-13.2 C11.6,-13.2 0,-5 0,4.2"/>
<path class="Note" transform="matrix(0.992,0,0,0.992,533.622,1192.2)" d="M0,4.2 C0,8.5 3.1,13.3 11.2,13.3 C21.6,13.3 32.5,4.8 32.5,-4 C32.5,-9.9 27.5,-13.2 21.3,-13.2 C11.6,-13.2 0,-5 0,4.2"/>
<path class="Note" transform="matrix(0.992,0,0,0.992,1395.86,720.998)" d="M0,4.2 C0,8.5 3.1,13.3 11.2,13.3 C21.6,13.3 32.5,4.8 32.5,-4 C32.5,-9.9 27.5,-13.2 21.3,-13.2 C11.6,-13.2 0,-5 0,4.2"/>
<path class="Note" transform="matrix(0.992,0,0,0.992,633.166,1155)" d="M0,4.2 C0,8.5 3.1,13.3 11.2,13.3 C21.6,13.3 32.5,4.8 32.5,-4 C32.5,-9.9 27.5,-13.2 21.3,-13.2 C11.6,-13.2 0,-5 0,4.2"/>
<path class="Note" transform="matrix(0.992,0,0,0.992,1393.58,1167.4)" d="M0,4.2 C0,8.5 3.1,13.3 11.2,13.3 C21.6,13.3 32.5,4.8 32.5,-4 C32.5,-9.9 27.5,-13.2 21.3,-13.2 C11.6,-13.2 0,-5 0,4.2"/>
<path class="Note" transform="matrix(0.992,0,0,0.992,1294.73,696.198)" d="M0,4.2 C0,8.5 3.1,13.3 11.2,13.3 C21.6,13.3 32.5,4.8 32.5,-4 C32.5,-9.9 27.5,-13.2 21.3,-13.2 C11.6,-13.2 0,-5 0,4.2"/>
<path class="Note" transform="matrix(0.992,0,0,0.992,2313.11,1204.6)" d="M0,4.2 C0,8.5 3.1,13.3 11.2,13.3 C21.6,13.3 32.5,4.8 32.5,-4 C32.5,-9.9 27.5,-13.2 21.3,-13.2 C11.6,-13.2 0,-5 0,4.2"/>
<path class="Note" transform="matrix(0.992,0,0,0.992,732.711,1155)" d="M0,4.2 C0,8.5 3.1,13.3 11.2,13.3 C21.6,13.3 32.5,4.8 32.5,-4 C32.5,-9.9 27.5,-13.2 21.3,-13.2 C11.6,-13.2 0,-5 0,4.2"/>
<path class="Note" transform="matrix(0.992,0,0,0.992,1193.6,696.198)" d="M0,4.2 C0,8.5 3.1,13.3 11.2,13.3 C21.6,13.3 32.5,4.8 32.5,-4 C32.5,-9.9 27.5,-13.2 21.3,-13.2 C11.6,-13.2 0,-5 0,4.2"/>
<path class="Note" transform="matrix(0.992,0,0,0.992,1005.2,720.998)" d="M0,4.2 C0,8.5 3.1,13.3 11.2,13.3 C21.6,13.3 32.5,4.8 32.5,-4 C32.5,-9.9 27.5,-13.2 21.3,-13.2 C11.6,-13.2 0,-5 0,4.2"/>
<path class="Note" transform="matrix(0.992,0,0,0.992,904.075,696.198)" d="M0,4.2 C0,8.5 3.1,13.3 11.2,13.3 C21.6,13.3 32.5,4.8 32.5,-4 C32.5,-9.9 27.5,-13.2 21.3,-13.2 C11.6,-13.2 0,-5 0,4.2"/>
<path class="Note" transform="matrix(0.992,0,0,0.992,1778.69,1155)" d="M0,4.2 C0,8.5 3.1,13.3 11.2,13.3 C21.6,13.3 32.5,4.8 32.5,-4 C32.5,-9.9 27.5,-13.2 21.3,-13.2 C11.6,-13.2 0,-5 0,4.2"/>
<path class="Clef" transform="matrix(0.992,0,0,0.992,232.438,1179.8)" d="M12.3,51.3 C12.3,57.9 17.3,66.6 30.8,66.6 C35.5,66.6 39.6,65.4 43.2,63.2 C48.6,59.4 50,52.8 50,46.5 C50,42.6 49.4,38.1 48.4,32.4 C48.1,30.4 47.5,27.4 46.9,23.5 C56.7,20.3 64,10.1 64,-0.2 C64,-15.3 53.3,-25.5 38.7,-25.5 C37.7,-31.5 36.7,-37.4 35.9,-43 C46.4,-54.1 53.7,-66.6 53.7,-82.5 C53.7,-91.6 50.9,-99 49.3,-102.6 C46.9,-107.7 44,-111.2 42.2,-111.2 C41.5,-111.2 38.4,-110 35.1,-106.1 C28.7,-98.5 26.9,-85.7 26.9,-77.3 C26.9,-71.9 27.4,-67 29.1,-55.8 C29,-55.7 23.8,-50.4 21.7,-48.7 C12.6,-40.3 0,-28.1 0,-8.1 C0,10.6 16.3,25.3 34.9,25.3 C37.8,25.3 40.5,25 42.8,24.6 C44.7,34.2 45.9,41.2 45.9,46.5 C45.9,56.9 40.5,62.4 30.4,62.4 C28,62.4 25.9,61.9 25.7,61.9 C25.6,61.8 25.4,61.7 25.4,61.6 C25.4,61.4 25.6,61.3 25.9,61.3 C30.6,60.5 35.3,56.5 35.3,50.1 C35.3,44.7 31.2,39 23.7,39 C16.7,39 12.3,44.7 12.3,51.3 M33.2,-82.2 C34.1,-86.2 38.7,-96.7 43.9,-96.7 C45.4,-96.7 47.8,-91.9 47.8,-84.9 C47.8,-74.5 40.1,-66.7 33.2,-59.9 C32.6,-63.9 32.1,-67.8 32.1,-72 C32.1,-75.7 32.4,-79.1 33.2,-82.2 M42,20.6 C40,21 38.1,21.2 36.2,21.2 C21.9,21.2 9.7,11.2 9.7,-3.9 C9.7,-16.1 18.3,-27 27.1,-34.6 C28.8,-36.1 30.4,-37.5 31.9,-39 C32.8,-33.6 33.5,-28.9 34.2,-24.8 C25.1,-22.1 18.9,-12.5 18.9,-3.1 C18.9,3.9 24.4,13.5 32.4,13.5 C33.2,13.5 34.1,13.1 34.1,12.2 C34.1,11.3 33.1,10.8 31.9,10 C28,7.6 25.8,5 25.8,0.1 C25.8,-6 30.4,-10.9 36.2,-12.3 L42,20.6 M56.2,2.1 C56.2,9.2 53.3,16.5 46.2,19.4 C44.1,7.4 41.4,-8.5 40.7,-12.9 C49.7,-12.9 56.2,-6.8 56.2,2.1"/>
<path class="Clef" transform="matrix(0.992,0,0,0.992,232.438,708.598)" d="M12.3,51.3 C12.3,57.9 17.3,66.6 30.8,66.6 C35.5,66.6 39.6,65.4 43.2,63.2 C48.6,59.4 50,52.8 50,46.5 C50,42.6 49.4,38.1 48.4,32.4 C48.1,30.4 47.5,27.4 46.9,23.5 C56.7,20.3 64,10.1 64,-0.2 C64,-15.3 53.3,-25.5 38.7,-25.5 C37.7,-31.5 36.7,-37.4 35.9,-43 C46.4,-54.1 53.7,-66.6 53.7,-82.5 C53.7,-91.6 50.9,-99 49.3,-102.6 C46.9,-107.7 44,-111.2 42.2,-111.2 C41.5,-111.2 38.4,-110 35.1,-106.1 C28.7,-98.5 26.9,-85.7 26.9,-77.3 C26.9,-71.9 27.4,-67 29.1,-55.8 C29,-55.7 23.8,-50.4 21.7,-48.7 C12.6,-40.3 0,-28.1 0,-8.1 C0,10.6 16.3,25.3 34.9,25.3 C37.8,25.3 40.5,25 42.8,24.6 C44.7,34.2 45.9,41.2 45.9,46.5 C45.9,56.9 40.5,62.4 30.4,62.4 C28,62.4 25.9,61.9 25.7,61.9 C25.6,61.8 25.4,61.7 25.4,61.6 C25.4,61.4 25.6,61.3 25.9,61.3 C30.6,60.5 35.3,56.5 35.3,50.1 C35.3,44.7 31.2,39 23.7,39 C16.7,39 12.3,44.7 12.3,51.3 M33.2,-82.2 C34.1,-86.2 38.7,-96.7 43.9,-96.7 C45.4,-96.7 47.8,-91.9 47.8,-84.9 C47.8,-74.5 40.1,-66.7 33.2,-59.9 C32.6,-63.9 32.1,-67.8 32.1,-72 C32.1,-75.7 32.4,-79.1 33.2,-82.2 M42,20.6 C40,21 38.1,21.2 36.2,21.2 C21.9,21.2 9.7,11.2 9.7,-3.9 C9.7,-16.1 18.3,-27 27.1,-34.6 C28.8,-36.1 30.4,-37.5 31.9,-39 C32.8,-33.6 33.5,-28.9 34.2,-24.8 C25.1,-22.1 18.9,-12.5 18.9,-3.1 C18.9,3.9 24.4,13.5 32.4,13.5 C33.2,13.5 34.1,13.1 34.1,12.2 C34.1,11.3 33.1,10.8 31.9,10 C28,7.6 25.8,5 25.8,0.1 C25.8,-6 30.4,-10.9 36.2,-12.3 L42,20.6 M56.2,2.1 C56.2,9.2 53.3,16.5 46.2,19.4 C44.1,7.4 41.4,-8.5 40.7,-12.9 C49.7,-12.9 56.2,-6.8 56.2,2.1"/>
<path class="KeySig" transform="matrix(0.992,0,0,0.992,320.711,634.198)" d="M23.3,-10.5 C23.9,-10.6 24.4,-11.3 24.4,-11.9 L24.4,-17.8 C24.4,-18.8 23.7,-19.2 22.8,-19.2 L19.5,-18.5 L19.5,-33.4 L16.7,-33.4 L16.7,-17.9 L7.8,-16.1 L7.8,-30.2 L5,-30.2 L5,-15.5 L1.1,-14.7 C0.5,-14.6 0,-13.9 0,-13.3 L0,-7.5 C0,-6.4 0.8,-6.1 1.7,-6.1 L5,-6.8 L5,9.7 L1.1,10.5 C0.5,10.6 0,11.3 0,11.9 L0,17.7 C0,18.8 0.8,19.1 1.7,19.1 L5,18.4 L5,33.3 L7.8,33.3 L7.8,17.8 L16.7,16 L16.7,30.1 L19.5,30.1 L19.5,15.4 L23.3,14.7 C23.9,14.6 24.4,13.9 24.4,13.3 L24.4,7.4 C24.4,6.4 23.7,6 22.8,6 L19.5,6.7 L19.5,-9.8 L23.3,-10.5 M7.8,-7.4 L16.7,-9.2 L16.7,7.3 L7.8,9.2 L7.8,-7.4 "/>
<path class="KeySig" transform="matrix(0.992,0,0,0.992,347.882,671.398)" d="M23.3,-10.5 C23.9,-10.6 24.4,-11.3 24.4,-11.9 L24.4,-17.8 C24.4,-18.8 23.7,-19.2 22.8,-19.2 L19.5,-18.5 L19.5,-33.4 L16.7,-33.4 L16.7,-17.9 L7.8,-16.1 L7.8,-30.2 L5,-30.2 L5,-15.5 L1.1,-14.7 C0.5,-14.6 0,-13.9 0,-13.3 L0,-7.5 C0,-6.4 0.8,-6.1 1.7,-6.1 L5,-6.8 L5,9.7 L1.1,10.5 C0.5,10.6 0,11.3 0,11.9 L0,17.7 C0,18.8 0.8,19.1 1.7,19.1 L5,18.4 L5,33.3 L7.8,33.3 L7.8,17.8 L16.7,16 L16.7,30.1 L19.5,30.1 L19.5,15.4 L23.3,14.7 C23.9,14.6 24.4,13.9 24.4,13.3 L24.4,7.4 C24.4,6.4 23.7,6 22.8,6 L19.5,6.7 L19.5,-9.8 L23.3,-10.5 M7.8,-7.4 L16.7,-9.2 L16.7,7.3 L7.8,9.2 L7.8,-7.4 "/>
<path class="KeySig" transform="matrix(0.992,0,0,0.992,320.711,1105.4)" d="M23.3,-10.5 C23.9,-10.6 24.4,-11.3 24.4,-11.9 L24.4,-17.8 C24.4,-18.8 23.7,-19.2 22.8,-19.2 L19.5,-18.5 L19.5,-33.4 L16.7,-33.4 L16.7,-17.9 L7.8,-16.1 L7.8,-30.2 L5,-30.2 L5,-15.5 L1.1,-14.7 C0.5,-14.6 0,-13.9 0,-13.3 L0,-7.5 C0,-6.4 0.8,-6.1 1.7,-6.1 L5,-6.8 L5,9.7 L1.1,10.5 C0.5,10.6 0,11.3 0,11.9 L0,17.7 C0,18.8 0.8,19.1 1.7,19.1 L5,18.4 L5,33.3 L7.8,33.3 L7.8,17.8 L16.7,16 L16.7,30.1 L19.5,30.1 L19.5,15.4 L23.3,14.7 C23.9,14.6 24.4,13.9 24.4,13.3 L24.4,7.4 C24.4,6.4 23.7,6 22.8,6 L19.5,6.7 L19.5,-9.8 L23.3,-10.5 M7.8,-7.4 L16.7,-9.2 L16.7,7.3 L7.8,9.2 L7.8,-7.4 "/>
<path class="KeySig" transform="matrix(0.992,0,0,0.992,347.882,1142.6)" d="M23.3,-10.5 C23.9,-10.6 24.4,-11.3 24.4,-11.9 L24.4,-17.8 C24.4,-18.8 23.7,-19.2 22.8,-19.2 L19.5,-18.5 L19.5,-33.4 L16.7,-33.4 L16.7,-17.9 L7.8,-16.1 L7.8,-30.2 L5,-30.2 L5,-15.5 L1.1,-14.7 C0.5,-14.6 0,-13.9 0,-13.3 L0,-7.5 C0,-6.4 0.8,-6.1 1.7,-6.1 L5,-6.8 L5,9.7 L1.1,10.5 C0.5,10.6 0,11.3 0,11.9 L0,17.7 C0,18.8 0.8,19.1 1.7,19.1 L5,18.4 L5,33.3 L7.8,33.3 L7.8,17.8 L16.7,16 L16.7,30.1 L19.5,30.1 L19.5,15.4 L23.3,14.7 C23.9,14.6 24.4,13.9 24.4,13.3 L24.4,7.4 C24.4,6.4 23.7,6 22.8,6 L19.5,6.7 L19.5,-9.8 L23.3,-10.5 M7.8,-7.4 L16.7,-9.2 L16.7,7.3 L7.8,9.2 L7.8,-7.4 "/>
<path class="TimeSig" transform="matrix(0.992,0,0,0.992,398.769,659.494)" d="M34.2,3.9 C33.4,6.1 31.4,13.3 26.5,13.3 C20,13.3 18.6,9.3 13.2,9.3 C12.4,9.3 11.6,9.4 10.6,9.6 C10.6,9.6 13.1,5.8 23.7,2.5 C34.3,-0.8 37,-6 37,-12 C37,-16.2 35.1,-24.5 20,-24.5 C4.9,-24.5 2.1,-15.4 2.1,-10.8 C2.1,-6.7 5.5,-3.4 9.6,-3.4 C13.7,-3.4 17,-6.7 17,-10.8 C17,-13.6 15,-16.7 12.4,-17.7 C12.1,-17.8 11.7,-18.3 11.7,-18.8 C11.7,-19.4 12.2,-20.1 14,-20.6 C14.5,-20.8 15.9,-21.1 17.4,-21.1 C23.1,-21.1 24.2,-17.6 24.2,-12.5 C24.2,-0.8 10.3,1.7 4.5,10.4 C4.5,10.4 1.5,14.6 1.5,19.3 C1.5,24 3.9,24.3 5.1,24.3 C6.7,24.3 8.4,23 8.4,21.2 C8.4,20.8 8.3,20.4 8.1,19.9 C7.5,18.5 7.3,17.4 7.3,16.6 C7.3,16.3 7.3,16 7.4,15.7 C7.5,15.1 8.3,14.1 10.7,14.1 C13.6,14.1 14.7,17.5 16.5,20.1 C18.3,22.7 21.1,24.3 24.3,24.3 C27.5,24.3 31.8,22 33.6,18.3 C35.4,14.6 37.7,7.1 37.7,4.4 C37.7,3.1 36.9,2.5 36,2.5 C35.3,2.5 34.6,2.9 34.2,3.9"/>
<path class="TimeSig" transform="matrix(0.992,0,0,0.992,395.498,708.598)" d="M20.8,12.7 L20.8,20.1 L12.5,20.1 C11.8,20.1 11.1,20.7 11.1,21.5 L11.1,23.4 C11.1,24.2 11.8,24.8 12.5,24.8 L42.8,24.8 C43.6,24.8 44.2,24.2 44.2,23.4 L44.2,21.5 C44.2,20.7 43.6,20.1 42.8,20.1 L33.9,20.1 L33.9,12.7 L42.8,12.7 C43.6,12.7 44.2,12 44.2,11.2 L44.2,9.3 C44.2,8.6 43.6,7.9 42.8,7.9 L33.9,7.9 L33.9,-8 C33.9,-8.6 33.6,-9.1 33.1,-9.3 L31.9,-9.9 C31.7,-10 31.4,-10.1 31.2,-10.1 C30.9,-10 30.5,-9.9 30.3,-9.7 L21.2,-1.4 C20.9,-1.1 20.8,-0.7 20.8,-0.3 L20.8,7.9 L9.3,7.9 C9.3,7.9 20.4,-4.1 32.2,-19.9 C32.6,-20.4 32.7,-20.9 32.7,-21.3 C32.7,-21.8 32.5,-22.2 32.4,-22.3 L30.2,-24.5 C30,-24.7 29.6,-24.9 29.2,-24.9 C28.6,-24.9 15.1,-24.9 14.4,-24.9 C13.6,-24.9 13.1,-24.3 13,-23.7 C13,-23.7 12.5,-16.3 9.9,-8.2 C7.3,-0.1 4.3,4.9 1.7,8.6 C1.7,8.6 1.4,9.1 1.4,9.7 C1.4,9.9 1.4,10.1 1.5,10.3 C1.9,11 2.5,12.1 2.5,12.1 C2.5,12.1 2.7,12.7 3.6,12.7 L20.8,12.7 "/>
<path class="Rest" transform="matrix(0.992,0,0,0.992,2638.65,1155)" d="M26.7,-20.3 C26.6,-20.3 26.4,-20.4 26.3,-20.4 C25.7,-20.4 25.2,-20.1 25,-19.6 C22.7,-15 17.9,-8.8 12.5,-7.8 C13.6,-9.1 14.3,-10.7 14.3,-12.6 C14.3,-16.5 11.1,-19.7 7.2,-19.7 C3.2,-19.7 0,-16.5 0,-12.6 C0,-7.2 5.3,-4.7 10,-4.7 C15.3,-4.7 18.8,-7.2 22.2,-10.9 L10.8,24.7 L13.5,25.5 L27.5,-18.6 C27.6,-18.7 27.6,-18.9 27.6,-19.1 C27.6,-19.6 27.3,-20 26.7,-20.3"/>
<path class="Rest" transform="matrix(0.992,0,0,0.992,1827.13,683.798)" d="M26.7,-20.3 C26.6,-20.3 26.4,-20.4 26.3,-20.4 C25.7,-20.4 25.2,-20.1 25,-19.6 C22.7,-15 17.9,-8.8 12.5,-7.8 C13.6,-9.1 14.3,-10.7 14.3,-12.6 C14.3,-16.5 11.1,-19.7 7.2,-19.7 C3.2,-19.7 0,-16.5 0,-12.6 C0,-7.2 5.3,-4.7 10,-4.7 C15.3,-4.7 18.8,-7.2 22.2,-10.9 L10.8,24.7 L13.5,25.5 L27.5,-18.6 C27.6,-18.7 27.6,-18.9 27.6,-19.1 C27.6,-19.6 27.3,-20 26.7,-20.3"/>
<path class="Rest" transform="matrix(0.992,0,0,0.992,1058.24,1155)" d="M26.7,-20.3 C26.6,-20.3 26.4,-20.4 26.3,-20.4 C25.7,-20.4 25.2,-20.1 25,-19.6 C22.7,-15 17.9,-8.8 12.5,-7.8 C13.6,-9.1 14.3,-10.7 14.3,-12.6 C14.3,-16.5 11.1,-19.7 7.2,-19.7 C3.2,-19.7 0,-16.5 0,-12.6 C0,-7.2 5.3,-4.7 10,-4.7 C15.3,-4.7 18.8,-7.2 22.2,-10.9 L10.8,24.7 L13.5,25.5 L27.5,-18.6 C27.6,-18.7 27.6,-18.9 27.6,-19.1 C27.6,-19.6 27.3,-20 26.7,-20.3"/>
<path class="Beam" fill-rule="evenodd" d="M2435.68,634.198 L2539.54,634.198 L2539.54,646.598 L2435.68,646.598 L2435.68,634.198 "/>
<path class="Beam" fill-rule="evenodd" d="M832.442,621.798 L936.3,621.798 L936.3,634.198 L832.442,634.198 L832.442,621.798 "/>
<path class="Beam" fill-rule="evenodd" d="M1194.49,1198.4 L1296.76,1198.4 L1296.76,1210.8 L1194.49,1210.8 L1194.49,1198.4 "/>
<path class="Beam" fill-rule="evenodd" d="M1223.1,621.798 L1326.96,621.798 L1326.96,634.198 L1223.1,634.198 L1223.1,621.798 "/>
<path class="Beam" fill-rule="evenodd" d="M1425.36,646.554 L1529.22,658.954 L1529.22,671.442 L1425.36,659.042 L1425.36,646.554 "/>
<path class="Beam" fill-rule="evenodd" d="M2243.07,1117.79 L2345.34,1123.99 L2345.34,1136.41 L2243.07,1130.21 L2243.07,1117.79 "/>
<path class="Beam" fill-rule="evenodd" d="M2043.98,1093 L2146.25,1093 L2146.25,1105.4 L2043.98,1105.4 L2043.98,1093 "/>
<path class="Beam" fill-rule="evenodd" d="M633.166,1217 L735.439,1217 L735.439,1229.4 L633.166,1229.4 L633.166,1217 "/>
<path class="Beam" fill-rule="evenodd" d="M463.574,1105.4 L565.847,1105.4 L565.847,1117.8 L463.574,1117.8 L463.574,1105.4 "/>
<path class="Beam" fill-rule="evenodd" d="M1994.46,658.998 L2098.31,658.998 L2098.31,671.398 L1994.46,671.398 L1994.46,658.998 "/>
<path class="Beam" fill-rule="evenodd" d="M1609.1,1105.4 L1711.37,1105.4 L1711.37,1117.8 L1609.1,1117.8 L1609.1,1105.4 "/>
<path class="Beam" fill-rule="evenodd" d="M2196.72,652.798 L2300.57,652.798 L2300.57,665.198 L2196.72,665.198 L2196.72,652.798 "/>
<path class="Beam" fill-rule="evenodd" d="M1778.69,1217 L1880.96,1217 L1880.96,1229.4 L1778.69,1229.4 L1778.69,1217 "/>
<path class="Harmony" d="M1964.96,572.198 L1983.44,572.198 C1988.34,572.198 1992.08,571.428 1994.99,569.778 C2000.55,566.643 2003.63,560.373 2003.63,552.123 C2003.63,544.533 2000.88,538.593 1995.82,535.293 C1992.79,533.368 1988.72,532.488 1982.45,532.488 L1964.96,532.488 L1964.96,535.073 L1966.01,535.073 C1969.09,535.128 1970.13,535.293 1970.57,535.843 C1970.9,536.338 1970.9,536.448 1970.9,539.253 L1970.9,565.433 C1970.9,568.238 1970.9,568.348 1970.57,568.843 C1970.13,569.393 1969.09,569.558 1966.01,569.613 L1964.96,569.613 L1964.96,572.198 M1980.2,569.613 C1977.39,569.613 1977.06,569.283 1977.06,566.588 L1977.06,538.153 C1977.06,535.458 1977.45,535.073 1980.2,535.073 L1983.06,535.073 C1992.46,535.073 1996.37,540.188 1996.37,552.343 C1996.37,564.663 1992.85,569.613 1983.94,569.613 L1980.2,569.613 "/>
<path class="Harmony" d="M1016.38,1002.92 L1014.07,1002.92 L1001.42,1034.98 C999.931,1039.27 998.501,1040.59 995.366,1040.81 L995.146,1040.81 L995.146,1043.4 L1009.72,1043.4 L1009.72,1040.81 L1008.62,1040.81 C1005.65,1040.81 1004.17,1039.77 1004.17,1037.68 C1004.17,1036.96 1004.33,1036.3 1004.66,1035.37 L1006.48,1030.53 L1021.05,1030.53 L1024.02,1037.9 C1024.35,1038.78 1024.46,1039.11 1024.46,1039.38 C1024.46,1040.26 1023.09,1040.81 1021.05,1040.81 L1018.74,1040.81 L1018.74,1043.4 L1035.79,1043.4 L1035.79,1040.81 L1035.02,1040.81 C1032.16,1040.76 1031.67,1040.43 1030.4,1037.29 L1016.38,1002.92 M1013.68,1011.94 L1019.9,1027.56 L1007.58,1027.56 L1013.68,1011.94 "/>
<path class="Harmony" d="M1040.99,1017.99 L1043.41,1018.37 L1044.4,1014.03 C1045.22,1010.4 1045.61,1009.85 1047.2,1009.85 C1047.48,1009.85 1047.92,1009.85 1048.41,1009.9 C1055.18,1010.23 1055.18,1010.23 1057.71,1010.23 C1058.42,1010.23 1059.69,1010.23 1061.23,1010.18 L1057.49,1017.71 C1053.42,1025.8 1052.92,1026.79 1051.55,1030.2 C1049.84,1034.32 1048.96,1037.79 1048.96,1040.1 C1048.96,1042.63 1050.28,1044.17 1052.43,1044.17 C1055.07,1044.17 1056.11,1042.41 1056.06,1037.62 C1055.78,1029.7 1056.77,1025.85 1062.66,1012.98 C1063.65,1010.84 1064.69,1008.64 1065.68,1006.49 L1065.68,1004.9 C1062.38,1005.17 1060.62,1005.28 1057.21,1005.28 C1052.43,1005.28 1048.63,1005.12 1042.69,1004.68 L1040.99,1017.99 "/>
<path class="Harmony" d="M472.814,572.198 L491.294,572.198 C496.189,572.198 499.929,571.428 502.844,569.778 C508.399,566.643 511.479,560.373 511.479,552.123 C511.479,544.533 508.729,538.593 503.669,535.293 C500.644,533.368 496.574,532.488 490.304,532.488 L472.814,532.488 L472.814,535.073 L473.859,535.073 C476.939,535.128 477.984,535.293 478.424,535.843 C478.754,536.338 478.754,536.448 478.754,539.253 L478.754,565.433 C478.754,568.238 478.754,568.348 478.424,568.843 C477.984,569.393 476.939,569.558 473.859,569.613 L472.814,569.613 L472.814,572.198 M488.049,569.613 C485.244,569.613 484.914,569.283 484.914,566.588 L484.914,538.153 C484.914,535.458 485.299,535.073 488.049,535.073 L490.909,535.073 C500.314,535.073 504.219,540.188 504.219,552.343 C504.219,564.663 500.699,569.613 491.789,569.613 L488.049,569.613 "/>
<path class="Harmony" d="M2406.18,572.198 L2424.66,572.198 C2429.56,572.198 2433.3,571.428 2436.21,569.778 C2441.77,566.643 2444.85,560.373 2444.85,552.123 C2444.85,544.533 2442.1,538.593 2437.04,535.293 C2434.01,533.368 2429.94,532.488 2423.67,532.488 L2406.18,532.488 L2406.18,535.073 L2407.23,535.073 C2410.31,535.128 2411.35,535.293 2411.79,535.843 C2412.12,536.338 2412.12,536.448 2412.12,539.253 L2412.12,565.433 C2412.12,568.238 2412.12,568.348 2411.79,568.843 C2411.35,569.393 2410.31,569.558 2407.23,569.613 L2406.18,569.613 L2406.18,572.198 M2421.42,569.613 C2418.61,569.613 2418.28,569.283 2418.28,566.588 L2418.28,538.153 C2418.28,535.458 2418.67,535.073 2421.42,535.073 L2424.28,535.073 C2433.68,535.073 2437.59,540.188 2437.59,552.343 C2437.59,564.663 2434.07,569.613 2425.16,569.613 L2421.42,569.613 "/>
<path class="Harmony" d="M1812.14,1003.3 L1810.05,1003.3 L1807.91,1006.6 C1804.33,1003.8 1801.91,1002.86 1797.9,1002.86 C1793.55,1002.86 1790.14,1004.07 1786.68,1006.88 C1781.23,1011.28 1778.7,1016.83 1778.7,1024.26 C1778.7,1029.87 1780.3,1034.54 1783.54,1038.12 C1786.95,1041.97 1792.01,1044.22 1797.29,1044.22 C1801.91,1044.22 1805.16,1042.79 1808.73,1039.22 L1810.77,1044.17 L1813.08,1044.17 L1813.08,1032.07 C1813.08,1029.26 1813.08,1029.15 1813.41,1028.66 C1813.9,1028.05 1814.89,1027.89 1818.03,1027.89 L1818.85,1027.89 L1818.85,1025.3 L1801.36,1025.3 L1801.36,1027.89 L1802.41,1027.89 C1807.03,1027.89 1807.41,1028.16 1807.41,1031.24 C1807.41,1033.61 1807.03,1035.75 1806.31,1037.07 C1804.94,1039.77 1801.42,1041.64 1797.84,1041.64 C1794.27,1041.64 1790.75,1039.82 1788.88,1037.07 C1786.84,1033.99 1785.96,1030.14 1785.96,1024.26 C1785.96,1011.99 1790.03,1005.45 1797.68,1005.45 C1803.95,1005.45 1808.29,1009.96 1810.55,1018.76 L1812.91,1018.76 L1812.14,1003.3 "/>
<path class="Harmony" d="M2188.45,531.718 L2186.14,531.718 L2173.49,563.783 C2172,568.073 2170.57,569.393 2167.44,569.613 L2167.22,569.613 L2167.22,572.198 L2181.79,572.198 L2181.79,569.613 L2180.69,569.613 C2177.72,569.613 2176.24,568.568 2176.24,566.478 C2176.24,565.763 2176.4,565.103 2176.73,564.168 L2178.55,559.328 L2193.12,559.328 L2196.09,566.698 C2196.42,567.578 2196.53,567.908 2196.53,568.183 C2196.53,569.063 2195.16,569.613 2193.12,569.613 L2190.81,569.613 L2190.81,572.198 L2207.86,572.198 L2207.86,569.613 L2207.09,569.613 C2204.23,569.558 2203.74,569.228 2202.47,566.093 L2188.45,531.718 M2185.75,540.738 L2191.97,556.358 L2179.65,556.358 L2185.75,540.738 "/>
<path class="Harmony" d="M2213.06,546.788 L2215.48,547.173 L2216.47,542.828 C2217.29,539.198 2217.68,538.648 2219.27,538.648 C2219.55,538.648 2219.99,538.648 2220.48,538.703 C2227.25,539.033 2227.25,539.033 2229.78,539.033 C2230.49,539.033 2231.76,539.033 2233.3,538.978 L2229.56,546.513 C2225.49,554.598 2224.99,555.588 2223.62,558.998 C2221.91,563.123 2221.03,566.588 2221.03,568.898 C2221.03,571.428 2222.35,572.968 2224.5,572.968 C2227.14,572.968 2228.18,571.208 2228.13,566.423 C2227.85,558.503 2228.84,554.653 2234.73,541.783 C2235.72,539.638 2236.76,537.438 2237.75,535.293 L2237.75,533.698 C2234.45,533.973 2232.69,534.083 2229.28,534.083 C2224.5,534.083 2220.7,533.918 2214.76,533.478 L2213.06,546.788 "/>
<path class="Harmony" d="M1579.6,1043.4 L1598.08,1043.4 C1602.98,1043.4 1606.72,1042.63 1609.63,1040.98 C1615.19,1037.84 1618.27,1031.57 1618.27,1023.32 C1618.27,1015.73 1615.52,1009.79 1610.46,1006.49 C1607.43,1004.57 1603.36,1003.69 1597.09,1003.69 L1579.6,1003.69 L1579.6,1006.27 L1580.65,1006.27 C1583.73,1006.33 1584.77,1006.49 1585.21,1007.04 C1585.54,1007.54 1585.54,1007.65 1585.54,1010.45 L1585.54,1036.63 C1585.54,1039.44 1585.54,1039.55 1585.21,1040.04 C1584.77,1040.59 1583.73,1040.76 1580.65,1040.81 L1579.6,1040.81 L1579.6,1043.4 M1594.84,1040.81 C1592.03,1040.81 1591.7,1040.48 1591.7,1037.79 L1591.7,1009.35 C1591.7,1006.66 1592.09,1006.27 1594.84,1006.27 L1597.7,1006.27 C1607.1,1006.27 1611.01,1011.39 1611.01,1023.54 C1611.01,1035.86 1607.49,1040.81 1598.58,1040.81 L1594.84,1040.81 "/>
<path class="Harmony" d="M434.079,1043.4 L452.559,1043.4 C457.454,1043.4 461.194,1042.63 464.109,1040.98 C469.664,1037.84 472.744,1031.57 472.744,1023.32 C472.744,1015.73 469.994,1009.79 464.934,1006.49 C461.909,1004.57 457.839,1003.69 451.569,1003.69 L434.079,1003.69 L434.079,1006.27 L435.124,1006.27 C438.204,1006.33 439.249,1006.49 439.689,1007.04 C440.019,1007.54 440.019,1007.65 440.019,1010.45 L440.019,1036.63 C440.019,1039.44 440.019,1039.55 439.689,1040.04 C439.249,1040.59 438.204,1040.76 435.124,1040.81 L434.079,1040.81 L434.079,1043.4 M449.314,1040.81 C446.509,1040.81 446.179,1040.48 446.179,1037.79 L446.179,1009.35 C446.179,1006.66 446.564,1006.27 449.314,1006.27 L452.174,1006.27 C461.579,1006.27 465.484,1011.39 465.484,1023.54 C465.484,1035.86 461.964,1040.81 453.054,1040.81 L449.314,1040.81 "/>
<path class="Harmony" d="M2629.67,531.718 L2627.36,531.718 L2614.71,563.783 C2613.23,568.073 2611.8,569.393 2608.66,569.613 L2608.44,569.613 L2608.44,572.198 L2623.02,572.198 L2623.02,569.613 L2621.92,569.613 C2618.95,569.613 2617.46,568.568 2617.46,566.478 C2617.46,565.763 2617.63,565.103 2617.96,564.168 L2619.77,559.328 L2634.35,559.328 L2637.32,566.698 C2637.65,567.578 2637.76,567.908 2637.76,568.183 C2637.76,569.063 2636.38,569.613 2634.35,569.613 L2632.04,569.613 L2632.04,572.198 L2649.09,572.198 L2649.09,569.613 L2648.32,569.613 C2645.46,569.558 2644.96,569.228 2643.7,566.093 L2629.67,531.718 M2626.98,540.738 L2633.19,556.358 L2620.87,556.358 L2626.98,540.738 "/>
<path class="Harmony" d="M2654.28,546.788 L2656.7,547.173 L2657.69,542.828 C2658.52,539.198 2658.9,538.648 2660.5,538.648 C2660.77,538.648 2661.21,538.648 2661.71,538.703 C2668.47,539.033 2668.47,539.033 2671,539.033 C2671.72,539.033 2672.98,539.033 2674.52,538.978 L2670.78,546.513 C2666.71,554.598 2666.22,555.588 2664.84,558.998 C2663.14,563.123 2662.26,566.588 2662.26,568.898 C2662.26,571.428 2663.58,572.968 2665.72,572.968 C2668.36,572.968 2669.41,571.208 2669.35,566.423 C2669.08,558.503 2670.07,554.653 2675.95,541.783 C2676.94,539.638 2677.99,537.438 2678.98,535.293 L2678.98,533.698 C2675.68,533.973 2673.92,534.083 2670.51,534.083 C2665.72,534.083 2661.93,533.918 2655.99,533.478 L2654.28,546.788 "/>
<path class="Harmony" d="M601.013,572.198 L619.493,572.198 C624.388,572.198 628.128,571.428 631.043,569.778 C636.598,566.643 639.678,560.373 639.678,552.123 C639.678,544.533 636.928,538.593 631.868,535.293 C628.843,533.368 624.773,532.488 618.503,532.488 L601.013,532.488 L601.013,535.073 L602.058,535.073 C605.138,535.128 606.183,535.293 606.623,535.843 C606.953,536.338 606.953,536.448 606.953,539.253 L606.953,565.433 C606.953,568.238 606.953,568.348 606.623,568.843 C606.183,569.393 605.138,569.558 602.058,569.613 L601.013,569.613 L601.013,572.198 M616.248,569.613 C613.443,569.613 613.113,569.283 613.113,566.588 L613.113,538.153 C613.113,535.458 613.498,535.073 616.248,535.073 L619.108,535.073 C628.513,535.073 632.418,540.188 632.418,552.343 C632.418,564.663 628.898,569.613 619.988,569.613 L616.248,569.613 "/>
<path class="Harmony" d="M1393.58,1043.4 L1412.06,1043.4 C1416.96,1043.4 1420.7,1042.63 1423.61,1040.98 C1429.17,1037.84 1432.25,1031.57 1432.25,1023.32 C1432.25,1015.73 1429.5,1009.79 1424.44,1006.49 C1421.41,1004.57 1417.34,1003.69 1411.07,1003.69 L1393.58,1003.69 L1393.58,1006.27 L1394.63,1006.27 C1397.71,1006.33 1398.75,1006.49 1399.19,1007.04 C1399.52,1007.54 1399.52,1007.65 1399.52,1010.45 L1399.52,1036.63 C1399.52,1039.44 1399.52,1039.55 1399.19,1040.04 C1398.75,1040.59 1397.71,1040.76 1394.63,1040.81 L1393.58,1040.81 L1393.58,1043.4 M1408.82,1040.81 C1406.01,1040.81 1405.68,1040.48 1405.68,1037.79 L1405.68,1009.35 C1405.68,1006.66 1406.07,1006.27 1408.82,1006.27 L1411.68,1006.27 C1421.08,1006.27 1424.99,1011.39 1424.99,1023.54 C1424.99,1035.86 1421.47,1040.81 1412.56,1040.81 L1408.82,1040.81 "/>
<path class="Harmony" d="M666.619,1003.3 L664.529,1003.3 L662.384,1006.6 C658.809,1003.8 656.389,1002.86 652.374,1002.86 C648.029,1002.86 644.619,1004.07 641.154,1006.88 C635.709,1011.28 633.179,1016.83 633.179,1024.26 C633.179,1029.87 634.774,1034.54 638.019,1038.12 C641.429,1041.97 646.489,1044.22 651.769,1044.22 C656.389,1044.22 659.634,1042.79 663.209,1039.22 L665.244,1044.17 L667.554,1044.17 L667.554,1032.07 C667.554,1029.26 667.554,1029.15 667.884,1028.66 C668.379,1028.05 669.369,1027.89 672.504,1027.89 L673.329,1027.89 L673.329,1025.3 L655.839,1025.3 L655.839,1027.89 L656.884,1027.89 C661.504,1027.89 661.889,1028.16 661.889,1031.24 C661.889,1033.61 661.504,1035.75 660.789,1037.07 C659.414,1039.77 655.894,1041.64 652.319,1041.64 C648.744,1041.64 645.224,1039.82 643.354,1037.07 C641.319,1033.99 640.439,1030.14 640.439,1024.26 C640.439,1011.99 644.509,1005.45 652.154,1005.45 C658.424,1005.45 662.769,1009.96 665.024,1018.76 L667.389,1018.76 L666.619,1003.3 "/>
<path class="Harmony" d="M2014.48,1043.4 L2032.96,1043.4 C2037.86,1043.4 2041.6,1042.63 2044.51,1040.98 C2050.07,1037.84 2053.15,1031.57 2053.15,1023.32 C2053.15,1015.73 2050.4,1009.79 2045.34,1006.49 C2042.31,1004.57 2038.24,1003.69 2031.97,1003.69 L2014.48,1003.69 L2014.48,1006.27 L2015.53,1006.27 C2018.61,1006.33 2019.65,1006.49 2020.09,1007.04 C2020.42,1007.54 2020.42,1007.65 2020.42,1010.45 L2020.42,1036.63 C2020.42,1039.44 2020.42,1039.55 2020.09,1040.04 C2019.65,1040.59 2018.61,1040.76 2015.53,1040.81 L2014.48,1040.81 L2014.48,1043.4 M2029.72,1040.81 C2026.91,1040.81 2026.58,1040.48 2026.58,1037.79 L2026.58,1009.35 C2026.58,1006.66 2026.97,1006.27 2029.72,1006.27 L2032.58,1006.27 C2041.98,1006.27 2045.89,1011.39 2045.89,1023.54 C2045.89,1035.86 2042.37,1040.81 2033.46,1040.81 L2029.72,1040.81 "/>
<path class="Harmony" d="M1784.25,531.718 L1781.94,531.718 L1769.29,563.783 C1767.81,568.073 1766.38,569.393 1763.24,569.613 L1763.02,569.613 L1763.02,572.198 L1777.6,572.198 L1777.6,569.613 L1776.5,569.613 C1773.53,569.613 1772.04,568.568 1772.04,566.478 C1772.04,565.763 1772.21,565.103 1772.54,564.168 L1774.35,559.328 L1788.93,559.328 L1791.9,566.698 C1792.23,567.578 1792.34,567.908 1792.34,568.183 C1792.34,569.063 1790.96,569.613 1788.93,569.613 L1786.62,569.613 L1786.62,572.198 L1803.67,572.198 L1803.67,569.613 L1802.9,569.613 C1800.04,569.558 1799.54,569.228 1798.28,566.093 L1784.25,531.718 M1781.56,540.738 L1787.77,556.358 L1775.45,556.358 L1781.56,540.738 "/>
<path class="Harmony" d="M1808.87,546.788 L1811.29,547.173 L1812.28,542.828 C1813.1,539.198 1813.49,538.648 1815.08,538.648 C1815.36,538.648 1815.8,538.648 1816.29,538.703 C1823.06,539.033 1823.06,539.033 1825.59,539.033 C1826.3,539.033 1827.57,539.033 1829.11,538.978 L1825.37,546.513 C1821.3,554.598 1820.8,555.588 1819.43,558.998 C1817.72,563.123 1816.84,566.588 1816.84,568.898 C1816.84,571.428 1818.16,572.968 1820.31,572.968 C1822.95,572.968 1823.99,571.208 1823.94,566.423 C1823.66,558.503 1824.65,554.653 1830.54,541.783 C1831.53,539.638 1832.57,537.438 1833.56,535.293 L1833.56,533.698 C1830.26,533.973 1828.5,534.083 1825.09,534.083 C1820.31,534.083 1816.51,533.918 1810.57,533.478 L1808.87,546.788 "/>
<path class="Harmony" d="M1656.05,531.718 L1653.74,531.718 L1641.09,563.783 C1639.61,568.073 1638.18,569.393 1635.04,569.613 L1634.82,569.613 L1634.82,572.198 L1649.4,572.198 L1649.4,569.613 L1648.3,569.613 C1645.33,569.613 1643.84,568.568 1643.84,566.478 C1643.84,565.763 1644.01,565.103 1644.34,564.168 L1646.15,559.328 L1660.73,559.328 L1663.7,566.698 C1664.03,567.578 1664.14,567.908 1664.14,568.183 C1664.14,569.063 1662.76,569.613 1660.73,569.613 L1658.42,569.613 L1658.42,572.198 L1675.47,572.198 L1675.47,569.613 L1674.7,569.613 C1671.84,569.558 1671.34,569.228 1670.08,566.093 L1656.05,531.718 M1653.36,540.738 L1659.57,556.358 L1647.25,556.358 L1653.36,540.738 "/>
<path class="Harmony" d="M1680.67,546.788 L1683.09,547.173 L1684.08,542.828 C1684.9,539.198 1685.29,538.648 1686.88,538.648 C1687.16,538.648 1687.6,538.648 1688.09,538.703 C1694.86,539.033 1694.86,539.033 1697.39,539.033 C1698.1,539.033 1699.37,539.033 1700.91,538.978 L1697.17,546.513 C1693.1,554.598 1692.6,555.588 1691.23,558.998 C1689.52,563.123 1688.64,566.588 1688.64,568.898 C1688.64,571.428 1689.96,572.968 1692.11,572.968 C1694.75,572.968 1695.79,571.208 1695.74,566.423 C1695.46,558.503 1696.45,554.653 1702.34,541.783 C1703.33,539.638 1704.37,537.438 1705.36,535.293 L1705.36,533.698 C1702.06,533.973 1700.3,534.083 1696.89,534.083 C1692.11,534.083 1688.31,533.918 1682.37,533.478 L1680.67,546.788 "/>
<path class="Harmony" d="M2575.55,1043.4 L2594.03,1043.4 C2598.93,1043.4 2602.67,1042.63 2605.58,1040.98 C2611.14,1037.84 2614.22,1031.57 2614.22,1023.32 C2614.22,1015.73 2611.47,1009.79 2606.41,1006.49 C2603.38,1004.57 2599.31,1003.69 2593.04,1003.69 L2575.55,1003.69 L2575.55,1006.27 L2576.6,1006.27 C2579.68,1006.33 2580.72,1006.49 2581.16,1007.04 C2581.49,1007.54 2581.49,1007.65 2581.49,1010.45 L2581.49,1036.63 C2581.49,1039.44 2581.49,1039.55 2581.16,1040.04 C2580.72,1040.59 2579.68,1040.76 2576.6,1040.81 L2575.55,1040.81 L2575.55,1043.4 M2590.79,1040.81 C2587.98,1040.81 2587.65,1040.48 2587.65,1037.79 L2587.65,1009.35 C2587.65,1006.66 2588.04,1006.27 2590.79,1006.27 L2593.65,1006.27 C2603.05,1006.27 2606.96,1011.39 2606.96,1023.54 C2606.96,1035.86 2603.44,1040.81 2594.53,1040.81 L2590.79,1040.81 "/>
<path class="Harmony" d="M1395.86,572.198 L1414.34,572.198 C1419.24,572.198 1422.98,571.428 1425.89,569.778 C1431.45,566.643 1434.53,560.373 1434.53,552.123 C1434.53,544.533 1431.78,538.593 1426.72,535.293 C1423.69,533.368 1419.62,532.488 1413.35,532.488 L1395.86,532.488 L1395.86,535.073 L1396.91,535.073 C1399.99,535.128 1401.03,535.293 1401.47,535.843 C1401.8,536.338 1401.8,536.448 1401.8,539.253 L1401.8,565.433 C1401.8,568.238 1401.8,568.348 1401.47,568.843 C1401.03,569.393 1399.99,569.558 1396.91,569.613 L1395.86,569.613 L1395.86,572.198 M1411.1,569.613 C1408.29,569.613 1407.96,569.283 1407.96,566.588 L1407.96,538.153 C1407.96,535.458 1408.35,535.073 1411.1,535.073 L1413.96,535.073 C1423.36,535.073 1427.27,540.188 1427.27,552.343 C1427.27,564.663 1423.75,569.613 1414.84,569.613 L1411.1,569.613 "/>
<path class="Harmony" d="M2449.36,1043.4 L2467.84,1043.4 C2472.74,1043.4 2476.48,1042.63 2479.39,1040.98 C2484.95,1037.84 2488.03,1031.57 2488.03,1023.32 C2488.03,1015.73 2485.28,1009.79 2480.22,1006.49 C2477.19,1004.57 2473.12,1003.69 2466.85,1003.69 L2449.36,1003.69 L2449.36,1006.27 L2450.41,1006.27 C2453.49,1006.33 2454.53,1006.49 2454.97,1007.04 C2455.3,1007.54 2455.3,1007.65 2455.3,1010.45 L2455.3,1036.63 C2455.3,1039.44 2455.3,1039.55 2454.97,1040.04 C2454.53,1040.59 2453.49,1040.76 2450.41,1040.81 L2449.36,1040.81 L2449.36,1043.4 M2464.6,1040.81 C2461.79,1040.81 2461.46,1040.48 2461.46,1037.79 L2461.46,1009.35 C2461.46,1006.66 2461.85,1006.27 2464.6,1006.27 L2467.46,1006.27 C2476.86,1006.27 2480.77,1011.39 2480.77,1023.54 C2480.77,1035.86 2477.25,1040.81 2468.34,1040.81 L2464.6,1040.81 "/>
<path class="Harmony" d="M2234.8,1002.92 L2232.49,1002.92 L2219.84,1034.98 C2218.35,1039.27 2216.92,1040.59 2213.79,1040.81 L2213.57,1040.81 L2213.57,1043.4 L2228.14,1043.4 L2228.14,1040.81 L2227.04,1040.81 C2224.07,1040.81 2222.59,1039.77 2222.59,1037.68 C2222.59,1036.96 2222.75,1036.3 2223.08,1035.37 L2224.9,1030.53 L2239.47,1030.53 L2242.44,1037.9 C2242.77,1038.78 2242.88,1039.11 2242.88,1039.38 C2242.88,1040.26 2241.51,1040.81 2239.47,1040.81 L2237.16,1040.81 L2237.16,1043.4 L2254.21,1043.4 L2254.21,1040.81 L2253.44,1040.81 C2250.58,1040.76 2250.09,1040.43 2248.82,1037.29 L2234.8,1002.92 M2232.1,1011.94 L2238.32,1027.56 L2226,1027.56 L2232.1,1011.94 "/>
<path class="Harmony" d="M2259.41,1017.99 L2261.83,1018.37 L2262.82,1014.03 C2263.64,1010.4 2264.03,1009.85 2265.62,1009.85 C2265.9,1009.85 2266.34,1009.85 2266.83,1009.9 C2273.6,1010.23 2273.6,1010.23 2276.13,1010.23 C2276.84,1010.23 2278.11,1010.23 2279.65,1010.18 L2275.91,1017.71 C2271.84,1025.8 2271.34,1026.79 2269.97,1030.2 C2268.26,1034.32 2267.38,1037.79 2267.38,1040.1 C2267.38,1042.63 2268.7,1044.17 2270.85,1044.17 C2273.49,1044.17 2274.53,1042.41 2274.48,1037.62 C2274.2,1029.7 2275.19,1025.85 2281.08,1012.98 C2282.07,1010.84 2283.11,1008.64 2284.1,1006.49 L2284.1,1004.9 C2280.8,1005.17 2279.04,1005.28 2275.63,1005.28 C2270.85,1005.28 2267.05,1005.12 2261.11,1004.68 L2259.41,1017.99 "/>
<path class="Harmony" d="M890.186,1002.92 L887.876,1002.92 L875.226,1034.98 C873.741,1039.27 872.311,1040.59 869.176,1040.81 L868.956,1040.81 L868.956,1043.4 L883.531,1043.4 L883.531,1040.81 L882.431,1040.81 C879.461,1040.81 877.976,1039.77 877.976,1037.68 C877.976,1036.96 878.141,1036.3 878.471,1035.37 L880.286,1030.53 L894.861,1030.53 L897.831,1037.9 C898.161,1038.78 898.271,1039.11 898.271,1039.38 C898.271,1040.26 896.896,1040.81 894.861,1040.81 L892.551,1040.81 L892.551,1043.4 L909.601,1043.4 L909.601,1040.81 L908.831,1040.81 C905.971,1040.76 905.476,1040.43 904.211,1037.29 L890.186,1002.92 M887.491,1011.94 L893.706,1027.56 L881.386,1027.56 L887.491,1011.94 "/>
<path class="Harmony" d="M914.797,1017.99 L917.217,1018.37 L918.207,1014.03 C919.032,1010.4 919.417,1009.85 921.012,1009.85 C921.287,1009.85 921.727,1009.85 922.222,1009.9 C928.987,1010.23 928.987,1010.23 931.517,1010.23 C932.232,1010.23 933.497,1010.23 935.037,1010.18 L931.297,1017.71 C927.227,1025.8 926.732,1026.79 925.357,1030.2 C923.652,1034.32 922.772,1037.79 922.772,1040.1 C922.772,1042.63 924.092,1044.17 926.237,1044.17 C928.877,1044.17 929.922,1042.41 929.867,1037.62 C929.592,1029.7 930.582,1025.85 936.467,1012.98 C937.457,1010.84 938.502,1008.64 939.492,1006.49 L939.492,1004.9 C936.192,1005.17 934.432,1005.28 931.022,1005.28 C926.237,1005.28 922.442,1005.12 916.502,1004.68 L914.797,1017.99 "/>
<path class="Harmony" d="M1193.6,572.198 L1212.08,572.198 C1216.98,572.198 1220.72,571.428 1223.63,569.778 C1229.19,566.643 1232.27,560.373 1232.27,552.123 C1232.27,544.533 1229.52,538.593 1224.46,535.293 C1221.43,533.368 1217.36,532.488 1211.09,532.488 L1193.6,532.488 L1193.6,535.073 L1194.65,535.073 C1197.73,535.128 1198.77,535.293 1199.21,535.843 C1199.54,536.338 1199.54,536.448 1199.54,539.253 L1199.54,565.433 C1199.54,568.238 1199.54,568.348 1199.21,568.843 C1198.77,569.393 1197.73,569.558 1194.65,569.613 L1193.6,569.613 L1193.6,572.198 M1208.84,569.613 C1206.03,569.613 1205.7,569.283 1205.7,566.588 L1205.7,538.153 C1205.7,535.458 1206.09,535.073 1208.84,535.073 L1211.7,535.073 C1221.1,535.073 1225.01,540.188 1225.01,552.343 C1225.01,564.663 1221.49,569.613 1212.58,569.613 L1208.84,569.613 "/>
<path class="Harmony" d="M1194.49,1043.4 L1212.97,1043.4 C1217.87,1043.4 1221.61,1042.63 1224.52,1040.98 C1230.08,1037.84 1233.16,1031.57 1233.16,1023.32 C1233.16,1015.73 1230.41,1009.79 1225.35,1006.49 C1222.32,1004.57 1218.25,1003.69 1211.98,1003.69 L1194.49,1003.69 L1194.49,1006.27 L1195.54,1006.27 C1198.62,1006.33 1199.66,1006.49 1200.1,1007.04 C1200.43,1007.54 1200.43,1007.65 1200.43,1010.45 L1200.43,1036.63 C1200.43,1039.44 1200.43,1039.55 1200.1,1040.04 C1199.66,1040.59 1198.62,1040.76 1195.54,1040.81 L1194.49,1040.81 L1194.49,1043.4 M1209.73,1040.81 C1206.92,1040.81 1206.59,1040.48 1206.59,1037.79 L1206.59,1009.35 C1206.59,1006.66 1206.98,1006.27 1209.73,1006.27 L1212.59,1006.27 C1221.99,1006.27 1225.9,1011.39 1225.9,1023.54 C1225.9,1035.86 1222.38,1040.81 1213.47,1040.81 L1209.73,1040.81 "/>
<path class="Harmony" d="M1005.21,572.198 L1023.69,572.198 C1028.58,572.198 1032.32,571.428 1035.24,569.778 C1040.79,566.643 1043.87,560.373 1043.87,552.123 C1043.87,544.533 1041.12,538.593 1036.06,535.293 C1033.04,533.368 1028.97,532.488 1022.7,532.488 L1005.21,532.488 L1005.21,535.073 L1006.25,535.073 C1009.33,535.128 1010.38,535.293 1010.82,535.843 C1011.15,536.338 1011.15,536.448 1011.15,539.253 L1011.15,565.433 C1011.15,568.238 1011.15,568.348 1010.82,568.843 C1010.38,569.393 1009.33,569.558 1006.25,569.613 L1005.21,569.613 L1005.21,572.198 M1020.44,569.613 C1017.64,569.613 1017.31,569.283 1017.31,566.588 L1017.31,538.153 C1017.31,535.458 1017.69,535.073 1020.44,535.073 L1023.3,535.073 C1032.71,535.073 1036.61,540.188 1036.61,552.343 C1036.61,564.663 1033.09,569.613 1024.18,569.613 L1020.44,569.613 "/>
<path class="Harmony" d="M802.947,572.198 L821.427,572.198 C826.322,572.198 830.062,571.428 832.977,569.778 C838.532,566.643 841.612,560.373 841.612,552.123 C841.612,544.533 838.862,538.593 833.802,535.293 C830.777,533.368 826.707,532.488 820.437,532.488 L802.947,532.488 L802.947,535.073 L803.992,535.073 C807.072,535.128 808.117,535.293 808.557,535.843 C808.887,536.338 808.887,536.448 808.887,539.253 L808.887,565.433 C808.887,568.238 808.887,568.348 808.557,568.843 C808.117,569.393 807.072,569.558 803.992,569.613 L802.947,569.613 L802.947,572.198 M818.182,569.613 C815.377,569.613 815.047,569.283 815.047,566.588 L815.047,538.153 C815.047,535.458 815.432,535.073 818.182,535.073 L821.042,535.073 C830.447,535.073 834.352,540.188 834.352,552.343 C834.352,564.663 830.832,569.613 821.922,569.613 L818.182,569.613 "/>
<path class="NoteDot" transform="matrix(0.992,0,0,0.992,2493.99,1217)" d="M0,0 C0,2.8 2.2,5 5,5 C7.8,5 10,2.8 10,0 C10,-2.8 7.8,-5 5,-5 C2.2,-5 0,-2.8 0,0"/>
<path class="NoteDot" transform="matrix(0.992,0,0,0.992,913.583,1167.4)" d="M0,0 C0,2.8 2.2,5 5,5 C7.8,5 10,2.8 10,0 C10,-2.8 7.8,-5 5,-5 C2.2,-5 0,-2.8 0,0"/>
<path class="NoteDot" transform="matrix(0.992,0,0,0.992,1679.45,720.998)" d="M0,0 C0,2.8 2.2,5 5,5 C7.8,5 10,2.8 10,0 C10,-2.8 7.8,-5 5,-5 C2.2,-5 0,-2.8 0,0"/>
<path class="NoteDot" transform="matrix(0.992,0,0,0.992,517.437,696.198)" d="M0,0 C0,2.8 2.2,5 5,5 C7.8,5 10,2.8 10,0 C10,-2.8 7.8,-5 5,-5 C2.2,-5 0,-2.8 0,0"/>
</svg>
