<?xml version="1.0" encoding="UTF-8" standalone="no"?>
<svg width="2977.2px" height="4208.4px" viewBox="0 0 2977.2 4208.4"
 xmlns="http://www.w3.org/2000/svg" xmlns:xlink="http://www.w3.org/1999/xlink" version="1.2" baseProfile="tiny">
<title>池の鯉</title>
<desc>Generated by MuseScore Studio 4.4.2</desc>
<path class="" fill="#ffffff" fill-rule="evenodd" d="M0,0 L2977.2,0 L2977.2,4208.4 L0,4208.4 L0,0 "/>
<polyline class="StaffLines" fill="none" stroke="#000000" stroke-width="2.73" stroke-linejoin="bevel" points="212.598,634.198 2764.6,634.198"/>
<polyline class="StaffLines" fill="none" stroke="#000000" stroke-width="2.73" stroke-linejoin="bevel" points="212.598,658.998 2764.6,658.998"/>
<polyline class="StaffLines" fill="none" stroke="#000000" stroke-width="2.73" stroke-linejoin="bevel" points="212.598,683.798 2764.6,683.798"/>
<polyline class="StaffLines" fill="none" stroke="#000000" stroke-width="2.73" stroke-linejoin="bevel" points="212.598,708.598 2764.6,708.598"/>
<polyline class="StaffLines" fill="none" stroke="#000000" stroke-width="2.73" stroke-linejoin="bevel" points="212.598,733.398 2764.6,733.398"/>
<polyline class="StaffLines" fill="none" stroke="#000000" stroke-width="2.73" stroke-linejoin="bevel" points="212.598,1105.4 2764.6,1105.4"/>
<polyline class="StaffLines" fill="none" stroke="#000000" stroke-width="2.73" stroke-linejoin="bevel" points="212.598,1130.2 2764.6,1130.2"/>
<polyline class="StaffLines" fill="none" stroke="#000000" stroke-width="2.73" stroke-linejoin="bevel" points="212.598,1155 2764.6,1155"/>
<polyline class="StaffLines" fill="none" stroke="#000000" stroke-width="2.73" stroke-linejoin="bevel" points="212.598,1179.8 2764.6,1179.8"/>
<polyline class="StaffLines" fill="none" stroke="#000000" stroke-width="2.73" stroke-linejoin="bevel" points="212.598,1204.6 2764.6,1204.6"/>
<path class="Text" d="M1389.12,251.418 L1389.12,279.248 C1389.12,283.758 1388.9,286.728 1388.46,289.918 L1396.6,289.918 C1396.16,286.948 1395.94,283.978 1395.94,279.358 L1395.94,249.108 L1415.52,242.288 C1415.3,258.018 1414.42,270.118 1413.32,272.208 C1412.66,273.528 1411.23,274.188 1409.03,274.188 C1406.5,274.188 1403.97,273.858 1400.34,272.978 C1401.33,275.728 1401.77,277.268 1402.21,279.908 C1404.96,280.348 1406.94,280.458 1409.69,280.458 C1412.88,280.458 1414.42,280.128 1416.18,279.248 C1418.05,278.258 1419.48,275.728 1420.25,272.318 C1421.02,268.248 1421.9,253.508 1422.45,232.828 C1420.36,233.818 1417.5,235.028 1413.87,236.238 L1395.94,242.288 L1395.94,224.578 C1395.94,220.178 1396.16,217.208 1396.6,214.128 L1388.46,214.128 C1388.9,217.318 1389.12,220.288 1389.12,224.468 L1389.12,244.598 L1371.96,250.428 L1371.96,235.688 C1371.96,231.178 1372.18,227.768 1372.62,224.798 L1364.37,224.798 C1364.81,228.208 1365.03,231.398 1365.03,236.018 L1365.03,252.738 L1362.61,253.618 C1359.2,254.718 1356.45,255.488 1353.15,255.928 L1355.24,263.628 C1357.22,262.638 1359.64,261.648 1364.26,259.998 L1365.03,259.778 L1365.03,299.488 C1365.03,303.778 1366.13,305.758 1369.32,307.408 C1372.62,309.058 1379.22,309.608 1394.07,309.608 C1411.23,309.608 1418.27,308.728 1421.46,306.088 C1424.43,303.668 1426.08,298.938 1427.62,288.158 C1424.65,287.498 1423.44,287.058 1420.58,285.408 C1419.81,294.538 1418.6,299.048 1416.62,300.698 C1414.2,302.458 1408.37,303.118 1393.52,303.118 C1383.29,303.118 1376.8,302.788 1374.71,302.018 C1372.62,301.358 1371.96,300.368 1371.96,297.838 L1371.96,257.358 L1389.12,251.418 M1333.02,220.288 C1340.28,225.238 1343.58,228.098 1350.07,235.248 L1354.8,229.858 C1348.75,223.698 1344.46,220.068 1337.53,215.338 L1333.02,220.288 M1327.19,247.458 C1335.22,252.408 1339.62,255.818 1345.78,261.978 L1349.96,256.038 C1344.13,250.758 1339.4,247.348 1331.15,242.288 L1327.19,247.458 M1345.45,272.978 C1340.72,287.828 1334.56,300.038 1329.06,305.428 L1335.44,311.148 C1336.54,309.278 1336.87,308.728 1337.64,307.408 C1339.51,304.328 1340.28,302.898 1341.38,300.808 C1344.9,294.098 1347.76,287.168 1351.06,277.378 L1345.45,272.978 "/>
<path class="Text" d="M1493.51,232.168 C1499.01,232.388 1502.2,233.158 1506.27,234.918 C1517.38,239.868 1523.76,249.988 1523.76,262.528 C1523.76,276.058 1516.39,287.828 1504.29,293.328 C1499.12,295.748 1493.95,297.178 1485.92,298.498 C1488.01,301.138 1488.67,302.238 1489.77,305.868 C1497.36,304.218 1501.54,302.898 1506.49,300.808 C1522.44,293.988 1531.68,279.908 1531.68,262.858 C1531.68,252.298 1527.94,242.728 1521.01,236.018 C1513.86,228.978 1503.08,225.128 1490.76,225.128 C1476.02,225.128 1464.03,230.078 1455.23,239.758 C1447.86,248.008 1443.68,258.898 1443.68,270.118 C1443.68,285.518 1451.49,296.958 1461.94,296.958 C1469.86,296.958 1476.35,290.358 1482.73,275.838 C1487.68,264.288 1491.86,247.458 1493.51,232.168 M1485.59,232.278 C1484.16,246.358 1480.09,262.638 1475.58,272.978 C1470.85,283.758 1466.45,288.928 1461.83,288.928 C1455.89,288.928 1451.27,280.788 1451.27,270.228 C1451.27,256.588 1458.09,244.158 1469.2,237.448 C1474.26,234.368 1478.99,232.828 1485.59,232.278"/>
<path class="Text" d="M1576.89,240.968 C1578.43,238.548 1580.3,234.918 1582.72,230.188 C1583.93,227.768 1584.37,226.998 1585.25,225.678 L1582.39,222.048 C1580.85,222.268 1578.98,222.378 1575.9,222.378 L1567.54,222.378 C1568.97,219.298 1568.97,219.298 1569.74,217.538 C1570.51,215.778 1570.62,215.558 1571.17,214.458 L1564.24,212.588 C1563.25,217.318 1560.17,224.358 1556.76,230.078 C1552.91,236.458 1550.49,239.428 1545.54,243.938 C1548.18,245.808 1549.28,246.798 1550.49,248.448 C1551.59,247.238 1551.92,246.908 1552.69,245.918 L1552.69,274.188 C1552.69,278.478 1552.58,280.458 1552.25,283.318 C1555.33,283.098 1556.32,283.098 1561.49,283.098 L1579.97,283.098 C1585.91,283.098 1586.24,283.098 1589.54,283.318 C1589.32,280.788 1589.32,279.688 1589.32,273.528 L1589.32,250.098 C1589.32,245.698 1589.43,243.058 1589.76,240.528 C1587.23,240.858 1585.25,240.968 1581.29,240.968 L1576.89,240.968 M1556.65,240.968 C1560.5,235.798 1562.81,232.168 1564.79,228.098 L1577,228.098 C1574.69,233.708 1573.26,236.568 1570.51,240.968 L1556.65,240.968 M1558.74,246.358 L1568.09,246.358 L1568.09,259.118 L1558.74,259.118 L1558.74,246.358 M1573.48,246.358 L1583.49,246.358 L1583.49,259.118 L1573.48,259.118 L1573.48,246.358 M1558.74,264.068 L1568.09,264.068 L1568.09,277.708 L1558.74,277.708 L1558.74,264.068 M1573.48,264.068 L1583.49,264.068 L1583.49,277.708 L1573.48,277.708 L1573.48,264.068 M1615.28,302.788 L1601.64,302.788 C1595.81,302.788 1592.73,302.678 1589.98,302.238 L1589.98,309.498 C1593.61,309.058 1597.13,308.948 1601.64,308.948 L1636.29,308.948 C1641.46,308.948 1644.98,309.168 1648.28,309.608 L1648.28,302.238 C1645.2,302.678 1642.34,302.788 1636.4,302.788 L1621.88,302.788 L1621.88,286.068 L1632.55,286.068 C1636.95,286.068 1640.47,286.178 1644.32,286.618 L1644.32,279.468 C1641.35,279.908 1638.27,280.018 1632.55,280.018 L1621.88,280.018 L1621.88,266.488 L1629.69,266.488 C1635.85,266.488 1639.04,266.598 1642.89,266.928 C1642.56,263.958 1642.45,260.218 1642.45,252.848 L1642.45,231.728 C1642.45,225.018 1642.56,220.838 1642.89,217.978 C1639.7,218.418 1636.4,218.528 1628.59,218.528 L1609.01,218.528 C1601.97,218.528 1598.23,218.418 1594.82,217.978 C1595.26,221.388 1595.37,224.908 1595.37,231.948 L1595.37,254.278 C1595.37,261.318 1595.26,264.068 1594.93,266.928 C1598.01,266.598 1601.64,266.488 1608.57,266.488 L1615.28,266.488 L1615.28,280.018 L1605.82,280.018 C1600.1,280.018 1597.02,279.908 1594.27,279.468 L1594.27,286.618 C1598.01,286.178 1601.31,286.068 1605.93,286.068 L1615.28,286.068 L1615.28,302.788 M1615.39,224.578 L1615.39,239.208 L1601.64,239.208 L1601.64,224.578 L1615.39,224.578 M1621.77,224.578 L1636.07,224.578 L1636.07,239.208 L1621.77,239.208 L1621.77,224.578 M1615.39,245.038 L1615.39,260.548 L1601.64,260.548 L1601.64,245.038 L1615.39,245.038 M1621.77,245.038 L1636.07,245.038 L1636.07,260.548 L1621.77,260.548 L1621.77,245.038 M1552.91,287.058 C1551.37,296.958 1549.72,301.798 1545.43,309.168 L1550.71,313.348 C1554.89,305.538 1556.65,299.708 1558.41,288.598 L1552.91,287.058 M1561.82,288.928 C1563.58,297.178 1564.24,302.678 1564.46,311.368 L1570.29,309.718 C1569.52,300.258 1568.75,294.978 1566.99,287.718 L1561.82,288.928 M1571.94,288.708 C1574.47,295.748 1575.46,299.818 1576.45,307.298 L1582.06,305.538 C1580.52,297.948 1579.31,293.548 1576.89,287.388 L1571.94,288.708 M1582.5,288.048 C1584.81,293.108 1585.91,296.518 1587.12,302.788 L1592.18,300.918 C1590.53,294.868 1589.32,291.238 1586.9,286.728 L1582.5,288.048 "/>
<path class="MeasureNumber" d="M232.288,1027.64 C230.168,1027.88 227.568,1028.04 225.328,1028.04 C224.208,1028.04 222.928,1028 221.488,1027.92 C220.168,1027.84 218.848,1027.76 217.488,1027.68 L216.488,1027.64 L212.608,1036.08 L214.088,1036.56 L215.048,1034.96 C216.928,1031.84 217.808,1031.4 221.888,1031.44 L228.648,1031.44 L224.288,1037.68 C219.168,1044.88 219.168,1044.88 217.208,1048.08 C215.448,1050.92 214.728,1052.68 214.728,1054.12 C214.728,1055.52 215.608,1056.4 217.008,1056.4 C218.488,1056.4 219.248,1055.68 219.768,1053.8 C221.768,1046.28 222.968,1043.68 228.528,1034.68 L232.288,1028.84 L232.288,1027.64 "/>
<polyline class="BarLine" fill="none" stroke="#000000" stroke-width="4.46" stroke-linejoin="bevel" points="1967.81,632.834 1967.81,734.762"/>
<polyline class="BarLine" fill="none" stroke="#000000" stroke-width="4.46" stroke-linejoin="bevel" points="2740.42,1104.03 2740.42,1205.96"/>
<polyline class="BarLine" fill="none" stroke="#000000" stroke-width="13.64" stroke-linejoin="bevel" points="2757.78,1104.03 2757.78,1205.96"/>
<polyline class="BarLine" fill="none" stroke="#000000" stroke-width="4.46" stroke-linejoin="bevel" points="1474.55,1104.03 1474.55,1205.96"/>
<polyline class="BarLine" fill="none" stroke="#000000" stroke-width="4.46" stroke-linejoin="bevel" points="2762.37,632.834 2762.37,734.762"/>
<polyline class="BarLine" fill="none" stroke="#000000" stroke-width="4.46" stroke-linejoin="bevel" points="1237.11,632.834 1237.11,734.762"/>
<polyline class="BarLine" fill="none" stroke="#000000" stroke-width="4.46" stroke-linejoin="bevel" points="1095.12,1104.03 1095.12,1205.96"/>
<polyline class="BarLine" fill="none" stroke="#000000" stroke-width="4.46" stroke-linejoin="bevel" points="1853.97,1104.03 1853.97,1205.96"/>
<polyline class="BarLine" fill="none" stroke="#000000" stroke-width="4.46" stroke-linejoin="bevel" points="2341.05,632.834 2341.05,734.762"/>
<polyline class="BarLine" fill="none" stroke="#000000" stroke-width="4.46" stroke-linejoin="bevel" points="1652.12,632.834 1652.12,734.762"/>
<polyline class="BarLine" fill="none" stroke="#000000" stroke-width="4.46" stroke-linejoin="bevel" points="2297.2,1104.03 2297.2,1205.96"/>
<polyline class="BarLine" fill="none" stroke="#000000" stroke-width="4.46" stroke-linejoin="bevel" points="822.111,632.834 822.111,734.762"/>
<polyline class="BarLine" fill="none" stroke="#000000" stroke-width="4.46" stroke-linejoin="bevel" points="753.523,1104.03 753.523,1205.96"/>
<polyline class="LedgerLine" fill="none" stroke="#000000" stroke-width="3.97" stroke-linejoin="bevel" points="655.499,1229.4 705.084,1229.4"/>
<polyline class="LedgerLine" fill="none" stroke="#000000" stroke-width="3.97" stroke-linejoin="bevel" points="568.388,1229.4 617.973,1229.4"/>
<polyline class="LedgerLine" fill="none" stroke="#000000" stroke-width="3.97" stroke-linejoin="bevel" points="715.046,758.198 764.631,758.198"/>
<polyline class="LedgerLine" fill="none" stroke="#000000" stroke-width="3.97" stroke-linejoin="bevel" points="481.277,1229.4 530.861,1229.4"/>
<polyline class="LedgerLine" fill="none" stroke="#000000" stroke-width="3.97" stroke-linejoin="bevel" points="866.426,1229.4 916.01,1229.4"/>
<polyline class="LedgerLine" fill="none" stroke="#000000" stroke-width="3.97" stroke-linejoin="bevel" points="394.165,1229.4 443.75,1229.4"/>
<polyline class="LedgerLine" fill="none" stroke="#000000" stroke-width="3.97" stroke-linejoin="bevel" points="953.537,1229.4 1003.12,1229.4"/>
<polyline class="LedgerLine" fill="none" stroke="#000000" stroke-width="3.97" stroke-linejoin="bevel" points="1130.05,758.198 1179.63,758.198"/>
<polyline class="Stem" fill="none" stroke="#000000" stroke-width="2.73" stroke-linejoin="bevel" points="2694.84,741.83 2694.84,665.027"/>
<polyline class="Stem" fill="none" stroke="#000000" stroke-width="2.73" stroke-linejoin="bevel" points="2502.54,704.63 2502.54,634.198"/>
<polyline class="Stem" fill="none" stroke="#000000" stroke-width="2.73" stroke-linejoin="bevel" points="1539.88,1188.23 1539.88,1111.6"/>
<polyline class="Stem" fill="none" stroke="#000000" stroke-width="2.73" stroke-linejoin="bevel" points="1650.31,1188.23 1650.31,1111.6"/>
<polyline class="Stem" fill="none" stroke="#000000" stroke-width="2.73" stroke-linejoin="bevel" points="1073.44,717.03 1073.44,652.969"/>
<polyline class="Stem" fill="none" stroke="#000000" stroke-width="2.73" stroke-linejoin="bevel" points="1302.45,717.03 1302.45,640.331"/>
<polyline class="Stem" fill="none" stroke="#000000" stroke-width="2.73" stroke-linejoin="bevel" points="1386.57,1171.56 1386.57,1235.41"/>
<polyline class="Stem" fill="none" stroke="#000000" stroke-width="2.73" stroke-linejoin="bevel" points="1299.45,1146.76 1299.45,1223.39"/>
<polyline class="Stem" fill="none" stroke="#000000" stroke-width="2.73" stroke-linejoin="bevel" points="1241.38,1146.76 1241.38,1223.2"/>
<polyline class="Stem" fill="none" stroke="#000000" stroke-width="2.73" stroke-linejoin="bevel" points="1130.95,1146.76 1130.95,1223.2"/>
<polyline class="Stem" fill="none" stroke="#000000" stroke-width="2.73" stroke-linejoin="bevel" points="1424.34,704.63 1424.34,634.266"/>
<polyline class="Stem" fill="none" stroke="#000000" stroke-width="2.73" stroke-linejoin="bevel" points="1708.38,1188.23 1708.38,1111.5"/>
<polyline class="Stem" fill="none" stroke="#000000" stroke-width="2.73" stroke-linejoin="bevel" points="1488.44,692.23 1488.44,621.713"/>
<polyline class="Stem" fill="none" stroke="#000000" stroke-width="2.73" stroke-linejoin="bevel" points="1009.33,704.63 1009.33,621.731"/>
<polyline class="Stem" fill="none" stroke="#000000" stroke-width="2.73" stroke-linejoin="bevel" points="1795.49,1175.83 1795.49,1105.49"/>
<polyline class="Stem" fill="none" stroke="#000000" stroke-width="2.73" stroke-linejoin="bevel" points="993.078,1225.43 993.078,1142.6"/>
<polyline class="Stem" fill="none" stroke="#000000" stroke-width="2.73" stroke-linejoin="bevel" points="1584.59,679.83 1584.59,615.684"/>
<polyline class="Stem" fill="none" stroke="#000000" stroke-width="2.73" stroke-linejoin="bevel" points="1919.31,1163.43 1919.31,1086.8"/>
<polyline class="Stem" fill="none" stroke="#000000" stroke-width="2.73" stroke-linejoin="bevel" points="887.444,692.23 887.444,615.666"/>
<polyline class="Stem" fill="none" stroke="#000000" stroke-width="2.73" stroke-linejoin="bevel" points="1977.38,1163.43 1977.38,1086.8"/>
<polyline class="Stem" fill="none" stroke="#000000" stroke-width="2.73" stroke-linejoin="bevel" points="1717.45,704.63 1717.45,621.798"/>
<polyline class="Stem" fill="none" stroke="#000000" stroke-width="2.73" stroke-linejoin="bevel" points="905.966,1225.43 905.966,1154.9"/>
<polyline class="Stem" fill="none" stroke="#000000" stroke-width="2.73" stroke-linejoin="bevel" points="818.855,1213.03 818.855,1148.89"/>
<polyline class="Stem" fill="none" stroke="#000000" stroke-width="2.73" stroke-linejoin="bevel" points="754.587,754.23 754.587,665.027"/>
<polyline class="Stem" fill="none" stroke="#000000" stroke-width="2.73" stroke-linejoin="bevel" points="2035.46,1163.43 2035.46,1086.8"/>
<polyline class="Stem" fill="none" stroke="#000000" stroke-width="2.73" stroke-linejoin="bevel" points="2093.53,1163.43 2093.53,1086.8"/>
<polyline class="Stem" fill="none" stroke="#000000" stroke-width="2.73" stroke-linejoin="bevel" points="2598.69,717.03 2598.69,652.969"/>
<polyline class="Stem" fill="none" stroke="#000000" stroke-width="2.73" stroke-linejoin="bevel" points="658.433,717.03 658.433,652.969"/>
<polyline class="Stem" fill="none" stroke="#000000" stroke-width="2.73" stroke-linejoin="bevel" points="2033.14,717.03 2033.14,634.198"/>
<polyline class="Stem" fill="none" stroke="#000000" stroke-width="2.73" stroke-linejoin="bevel" points="695.04,1225.43 695.04,1155"/>
<polyline class="Stem" fill="none" stroke="#000000" stroke-width="2.73" stroke-linejoin="bevel" points="2122.11,1146.76 2122.11,1223.1"/>
<polyline class="Stem" fill="none" stroke="#000000" stroke-width="2.73" stroke-linejoin="bevel" points="2177.37,704.63 2177.37,634.113"/>
<polyline class="Stem" fill="none" stroke="#000000" stroke-width="2.73" stroke-linejoin="bevel" points="607.929,1225.43 607.929,1155"/>
<polyline class="Stem" fill="none" stroke="#000000" stroke-width="2.73" stroke-linejoin="bevel" points="594.331,704.63 594.331,621.731"/>
<polyline class="Stem" fill="none" stroke="#000000" stroke-width="2.73" stroke-linejoin="bevel" points="520.817,1225.43 520.817,1155"/>
<polyline class="Stem" fill="none" stroke="#000000" stroke-width="2.73" stroke-linejoin="bevel" points="2273.53,692.23 2273.53,628.084"/>
<polyline class="Stem" fill="none" stroke="#000000" stroke-width="2.73" stroke-linejoin="bevel" points="2362.53,1175.83 2362.53,1105.4"/>
<polyline class="Stem" fill="none" stroke="#000000" stroke-width="2.73" stroke-linejoin="bevel" points="2420.6,1175.83 2420.6,1105.4"/>
<polyline class="Stem" fill="none" stroke="#000000" stroke-width="2.73" stroke-linejoin="bevel" points="2478.68,1175.83 2478.68,1105.4"/>
<polyline class="Stem" fill="none" stroke="#000000" stroke-width="2.73" stroke-linejoin="bevel" points="472.44,692.23 472.44,615.666"/>
<polyline class="Stem" fill="none" stroke="#000000" stroke-width="2.73" stroke-linejoin="bevel" points="2406.38,704.63 2406.38,634.198"/>
<polyline class="Stem" fill="none" stroke="#000000" stroke-width="2.73" stroke-linejoin="bevel" points="433.706,1225.43 433.706,1155"/>
<polyline class="Stem" fill="none" stroke="#000000" stroke-width="2.73" stroke-linejoin="bevel" points="2536.75,1175.83 2536.75,1105.4"/>
<polyline class="Stem" fill="none" stroke="#000000" stroke-width="2.73" stroke-linejoin="bevel" points="2594.83,1188.23 2594.83,1105.6"/>
<polyline class="Stem" fill="none" stroke="#000000" stroke-width="2.73" stroke-linejoin="bevel" points="1169.59,754.23 1169.59,665.027"/>
<path class="Hook" transform="matrix(0.992,0,0,0.992,2593.46,1105.4)" d="M0,22.7 C0,23 0.1,23.6 0.8,23.8 C5.1,25.2 13.7,30.6 20.2,41.7 C22,44.8 24.9,49.1 24.9,57.4 C24.9,64.6 23.1,72 20.4,79.2 C20.2,79.8 20.1,80.3 20.1,80.7 C20.1,81.4 20.5,81.7 21.2,81.7 C21.8,81.7 22.3,81.3 22.7,80.6 C27.2,72.6 28.9,63.3 28.9,54.2 C28.4,41.3 21,31.8 21,31.8 C21.3,31.8 11.8,19.5 9.1,15.3 C5.4,9.6 3.7,3.9 3.5,3.5 C3.4,3.2 2.5,-0.4 2.5,-0.4 C2.4,-0.8 1.9,-1.2 1.3,-1.2 C0.6,-1.2 0,-0.6 0,0.1 L0,22.7 "/>
<path class="Hook" transform="matrix(0.992,0,0,0.992,2120.74,1223.2)" d="M0,-0.1 C0,0.6 0.6,1.2 1.3,1.2 C1.8,1.2 2.4,0.8 2.5,0.4 C2.5,0.3 3.4,-3.2 3.5,-3.5 C3.6,-3.9 4.5,-7.7 8.1,-13.6 C12,-20.1 18,-24.8 23,-31.8 C28,-38.8 30.9,-45.4 30.9,-54.2 C30.9,-63.3 28.9,-70.9 23.5,-80.6 C23.2,-81.3 22.6,-81.7 22,-81.7 C21.8,-81.7 21.6,-81.7 21.5,-81.6 C21,-81.4 20.8,-81 20.8,-80.4 C20.8,-80.1 20.9,-79.7 21.1,-79.2 C25.1,-69.9 26.7,-64.6 26.7,-57.4 C26.7,-49.1 23.8,-44.8 22,-41.7 C15.5,-30.6 5,-25.2 0.8,-23.8 C0.1,-23.6 0,-23 0,-22.7 L0,-0.1 "/>
<path class="Note" transform="matrix(0.992,0,0,0.992,402.845,1229.4)" d="M0,4.2 C0,8.5 3.1,13.3 11.2,13.3 C21.6,13.3 32.5,4.8 32.5,-4 C32.5,-9.9 27.5,-13.2 21.3,-13.2 C11.6,-13.2 0,-5 0,4.2"/>
<path class="Note" transform="matrix(0.992,0,0,0.992,1677.52,1192.2)" d="M0,4.2 C0,8.5 3.1,13.3 11.2,13.3 C21.6,13.3 32.5,4.8 32.5,-4 C32.5,-9.9 27.5,-13.2 21.3,-13.2 C11.6,-13.2 0,-5 0,4.2"/>
<path class="Note" transform="matrix(0.992,0,0,0.992,2563.97,1192.2)" d="M0,4.2 C0,8.5 3.1,13.3 11.2,13.3 C21.6,13.3 32.5,4.8 32.5,-4 C32.5,-9.9 27.5,-13.2 21.3,-13.2 C11.6,-13.2 0,-5 0,4.2"/>
<path class="Note" transform="matrix(0.992,0,0,0.992,2567.83,720.998)" d="M0,4.2 C0,8.5 3.1,13.3 11.2,13.3 C21.6,13.3 32.5,4.8 32.5,-4 C32.5,-9.9 27.5,-13.2 21.3,-13.2 C11.6,-13.2 0,-5 0,4.2"/>
<path class="Note" transform="matrix(0.992,0,0,0.992,2663.98,745.798)" d="M0,4.2 C0,8.5 3.1,13.3 11.2,13.3 C21.6,13.3 32.5,4.8 32.5,-4 C32.5,-9.9 27.5,-13.2 21.3,-13.2 C11.6,-13.2 0,-5 0,4.2"/>
<path class="Note" transform="matrix(0.992,0,0,0.992,2471.68,708.598)" d="M0,4.2 C0,8.5 3.1,13.3 11.2,13.3 C21.6,13.3 32.5,4.8 32.5,-4 C32.5,-9.9 27.5,-13.2 21.3,-13.2 C11.6,-13.2 0,-5 0,4.2"/>
<path class="Note" transform="matrix(0.992,0,0,0.992,1271.59,720.998)" d="M0,4.2 C0,8.5 3.1,13.3 11.2,13.3 C21.6,13.3 32.5,4.8 32.5,-4 C32.5,-9.9 27.5,-13.2 21.3,-13.2 C11.6,-13.2 0,-5 0,4.2"/>
<path class="Note" transform="matrix(0.992,0,0,0.992,1138.73,758.198)" d="M0,4.2 C0,8.5 3.1,13.3 11.2,13.3 C21.6,13.3 32.5,4.8 32.5,-4 C32.5,-9.9 27.5,-13.2 21.3,-13.2 C11.6,-13.2 0,-5 0,4.2"/>
<path class="Note" transform="matrix(0.992,0,0,0.992,1509.02,1192.2)" d="M0,4.2 C0,8.5 3.1,13.3 11.2,13.3 C21.6,13.3 32.5,4.8 32.5,-4 C32.5,-9.9 27.5,-13.2 21.3,-13.2 C11.6,-13.2 0,-5 0,4.2"/>
<path class="Note" transform="matrix(0.992,0,0,0.992,1298.09,1142.6)" d="M0,4.2 C0,8.5 3.1,13.3 11.2,13.3 C21.6,13.3 32.5,4.8 32.5,-4 C32.5,-9.9 27.5,-13.2 21.3,-13.2 C11.6,-13.2 0,-5 0,4.2"/>
<path class="Note" transform="matrix(0.992,0,0,0.992,2375.52,708.598)" d="M0,4.2 C0,8.5 3.1,13.3 11.2,13.3 C21.6,13.3 32.5,4.8 32.5,-4 C32.5,-9.9 27.5,-13.2 21.3,-13.2 C11.6,-13.2 0,-5 0,4.2"/>
<path class="Note" transform="matrix(0.992,0,0,0.992,2505.89,1179.8)" d="M0,4.2 C0,8.5 3.1,13.3 11.2,13.3 C21.6,13.3 32.5,4.8 32.5,-4 C32.5,-9.9 27.5,-13.2 21.3,-13.2 C11.6,-13.2 0,-5 0,4.2"/>
<path class="Note" transform="matrix(0.992,0,0,0.992,2242.67,696.198)" d="M0,4.2 C0,8.5 3.1,13.3 11.2,13.3 C21.6,13.3 32.5,4.8 32.5,-4 C32.5,-9.9 27.5,-13.2 21.3,-13.2 C11.6,-13.2 0,-5 0,4.2"/>
<path class="Note" transform="matrix(0.992,0,0,0.992,1042.58,720.998)" d="M0,4.2 C0,8.5 3.1,13.3 11.2,13.3 C21.6,13.3 32.5,4.8 32.5,-4 C32.5,-9.9 27.5,-13.2 21.3,-13.2 C11.6,-13.2 0,-5 0,4.2"/>
<path class="Note" transform="matrix(0.992,0,0,0.992,1240.02,1142.6)" d="M0,4.2 C0,8.5 3.1,13.3 11.2,13.3 C21.6,13.3 32.5,4.8 32.5,-4 C32.5,-9.9 27.5,-13.2 21.3,-13.2 C11.6,-13.2 0,-5 0,4.2"/>
<path class="Note" transform="matrix(0.992,0,0,0.992,2447.82,1179.8)" d="M0,4.2 C0,8.5 3.1,13.3 11.2,13.3 C21.6,13.3 32.5,4.8 32.5,-4 C32.5,-9.9 27.5,-13.2 21.3,-13.2 C11.6,-13.2 0,-5 0,4.2"/>
<path class="Note" transform="matrix(0.992,0,0,0.992,441.58,696.198)" d="M0,4.2 C0,8.5 3.1,13.3 11.2,13.3 C21.6,13.3 32.5,4.8 32.5,-4 C32.5,-9.9 27.5,-13.2 21.3,-13.2 C11.6,-13.2 0,-5 0,4.2"/>
<path class="Note" transform="matrix(0.992,0,0,0.992,489.957,1229.4)" d="M0,4.2 C0,8.5 3.1,13.3 11.2,13.3 C21.6,13.3 32.5,4.8 32.5,-4 C32.5,-9.9 27.5,-13.2 21.3,-13.2 C11.6,-13.2 0,-5 0,4.2"/>
<path class="Note" transform="matrix(0.992,0,0,0.992,2146.51,708.598)" d="M0,4.2 C0,8.5 3.1,13.3 11.2,13.3 C21.6,13.3 32.5,4.8 32.5,-4 C32.5,-9.9 27.5,-13.2 21.3,-13.2 C11.6,-13.2 0,-5 0,4.2"/>
<path class="Note" transform="matrix(0.992,0,0,0.992,2389.74,1179.8)" d="M0,4.2 C0,8.5 3.1,13.3 11.2,13.3 C21.6,13.3 32.5,4.8 32.5,-4 C32.5,-9.9 27.5,-13.2 21.3,-13.2 C11.6,-13.2 0,-5 0,4.2"/>
<path class="Note" transform="matrix(0.992,0,0,0.992,577.068,1229.4)" d="M0,4.2 C0,8.5 3.1,13.3 11.2,13.3 C21.6,13.3 32.5,4.8 32.5,-4 C32.5,-9.9 27.5,-13.2 21.3,-13.2 C11.6,-13.2 0,-5 0,4.2"/>
<path class="Note" transform="matrix(0.992,0,0,0.992,2331.67,1179.8)" d="M0,4.2 C0,8.5 3.1,13.3 11.2,13.3 C21.6,13.3 32.5,4.8 32.5,-4 C32.5,-9.9 27.5,-13.2 21.3,-13.2 C11.6,-13.2 0,-5 0,4.2"/>
<path class="Note" transform="matrix(0.992,0,0,0.992,1619.45,1192.2)" d="M0,4.2 C0,8.5 3.1,13.3 11.2,13.3 C21.6,13.3 32.5,4.8 32.5,-4 C32.5,-9.9 27.5,-13.2 21.3,-13.2 C11.6,-13.2 0,-5 0,4.2"/>
<path class="Note" transform="matrix(0.992,0,0,0.992,2002.28,720.998)" d="M0,4.2 C0,8.5 3.1,13.3 11.2,13.3 C21.6,13.3 32.5,4.8 32.5,-4 C32.5,-9.9 27.5,-13.2 21.3,-13.2 C11.6,-13.2 0,-5 0,4.2"/>
<path class="Note" transform="matrix(0.992,0,0,0.992,978.474,708.598)" d="M0,4.2 C0,8.5 3.1,13.3 11.2,13.3 C21.6,13.3 32.5,4.8 32.5,-4 C32.5,-9.9 27.5,-13.2 21.3,-13.2 C11.6,-13.2 0,-5 0,4.2"/>
<path class="Note" transform="matrix(0.992,0,0,0.992,664.179,1229.4)" d="M0,4.2 C0,8.5 3.1,13.3 11.2,13.3 C21.6,13.3 32.5,4.8 32.5,-4 C32.5,-9.9 27.5,-13.2 21.3,-13.2 C11.6,-13.2 0,-5 0,4.2"/>
<path class="Note" transform="matrix(0.992,0,0,0.992,2120.74,1142.6)" d="M0,4.2 C0,8.5 3.1,13.3 11.2,13.3 C21.6,13.3 32.5,4.8 32.5,-4 C32.5,-9.9 27.5,-13.2 21.3,-13.2 C11.6,-13.2 0,-5 0,4.2"/>
<path class="Note" transform="matrix(0.992,0,0,0.992,563.471,708.598)" d="M0,4.2 C0,8.5 3.1,13.3 11.2,13.3 C21.6,13.3 32.5,4.8 32.5,-4 C32.5,-9.9 27.5,-13.2 21.3,-13.2 C11.6,-13.2 0,-5 0,4.2"/>
<path class="Note" transform="matrix(0.992,0,0,0.992,627.573,720.998)" d="M0,4.2 C0,8.5 3.1,13.3 11.2,13.3 C21.6,13.3 32.5,4.8 32.5,-4 C32.5,-9.9 27.5,-13.2 21.3,-13.2 C11.6,-13.2 0,-5 0,4.2"/>
<path class="Note" transform="matrix(0.992,0,0,0.992,787.995,1217)" d="M0,4.2 C0,8.5 3.1,13.3 11.2,13.3 C21.6,13.3 32.5,4.8 32.5,-4 C32.5,-9.9 27.5,-13.2 21.3,-13.2 C11.6,-13.2 0,-5 0,4.2"/>
<path class="Note" transform="matrix(0.992,0,0,0.992,2062.67,1167.4)" d="M0,4.2 C0,8.5 3.1,13.3 11.2,13.3 C21.6,13.3 32.5,4.8 32.5,-4 C32.5,-9.9 27.5,-13.2 21.3,-13.2 C11.6,-13.2 0,-5 0,4.2"/>
<path class="Note" transform="matrix(0.992,0,0,0.992,2004.6,1167.4)" d="M0,4.2 C0,8.5 3.1,13.3 11.2,13.3 C21.6,13.3 32.5,4.8 32.5,-4 C32.5,-9.9 27.5,-13.2 21.3,-13.2 C11.6,-13.2 0,-5 0,4.2"/>
<path class="Note" transform="matrix(0.992,0,0,0.992,1686.59,708.598)" d="M0,4.2 C0,8.5 3.1,13.3 11.2,13.3 C21.6,13.3 32.5,4.8 32.5,-4 C32.5,-9.9 27.5,-13.2 21.3,-13.2 C11.6,-13.2 0,-5 0,4.2"/>
<path class="Note" transform="matrix(0.992,0,0,0.992,1553.73,683.798)" d="M0,4.2 C0,8.5 3.1,13.3 11.2,13.3 C21.6,13.3 32.5,4.8 32.5,-4 C32.5,-9.9 27.5,-13.2 21.3,-13.2 C11.6,-13.2 0,-5 0,4.2"/>
<path class="Note" transform="matrix(0.992,0,0,0.992,875.106,1229.4)" d="M0,4.2 C0,8.5 3.1,13.3 11.2,13.3 C21.6,13.3 32.5,4.8 32.5,-4 C32.5,-9.9 27.5,-13.2 21.3,-13.2 C11.6,-13.2 0,-5 0,4.2"/>
<path class="Note" transform="matrix(0.992,0,0,0.992,1946.52,1167.4)" d="M0,4.2 C0,8.5 3.1,13.3 11.2,13.3 C21.6,13.3 32.5,4.8 32.5,-4 C32.5,-9.9 27.5,-13.2 21.3,-13.2 C11.6,-13.2 0,-5 0,4.2"/>
<path class="Note" transform="matrix(0.992,0,0,0.992,723.726,758.198)" d="M0,4.2 C0,8.5 3.1,13.3 11.2,13.3 C21.6,13.3 32.5,4.8 32.5,-4 C32.5,-9.9 27.5,-13.2 21.3,-13.2 C11.6,-13.2 0,-5 0,4.2"/>
<path class="Note" transform="matrix(0.992,0,0,0.992,962.217,1229.4)" d="M0,4.2 C0,8.5 3.1,13.3 11.2,13.3 C21.6,13.3 32.5,4.8 32.5,-4 C32.5,-9.9 27.5,-13.2 21.3,-13.2 C11.6,-13.2 0,-5 0,4.2"/>
<path class="Note" transform="matrix(0.992,0,0,0.992,1888.45,1167.4)" d="M0,4.2 C0,8.5 3.1,13.3 11.2,13.3 C21.6,13.3 32.5,4.8 32.5,-4 C32.5,-9.9 27.5,-13.2 21.3,-13.2 C11.6,-13.2 0,-5 0,4.2"/>
<path class="Note" transform="matrix(0.992,0,0,0.992,1457.58,696.198)" d="M0,4.2 C0,8.5 3.1,13.3 11.2,13.3 C21.6,13.3 32.5,4.8 32.5,-4 C32.5,-9.9 27.5,-13.2 21.3,-13.2 C11.6,-13.2 0,-5 0,4.2"/>
<path class="Note" transform="matrix(0.992,0,0,0.992,1393.48,708.598)" d="M0,4.2 C0,8.5 3.1,13.3 11.2,13.3 C21.6,13.3 32.5,4.8 32.5,-4 C32.5,-9.9 27.5,-13.2 21.3,-13.2 C11.6,-13.2 0,-5 0,4.2"/>
<path class="Note" transform="matrix(0.992,0,0,0.992,856.583,696.198)" d="M0,4.2 C0,8.5 3.1,13.3 11.2,13.3 C21.6,13.3 32.5,4.8 32.5,-4 C32.5,-9.9 27.5,-13.2 21.3,-13.2 C11.6,-13.2 0,-5 0,4.2"/>
<path class="Note" transform="matrix(0.992,0,0,0.992,1129.59,1142.6)" d="M0,4.2 C0,8.5 3.1,13.3 11.2,13.3 C21.6,13.3 32.5,4.8 32.5,-4 C32.5,-9.9 27.5,-13.2 21.3,-13.2 C11.6,-13.2 0,-5 0,4.2"/>
<path class="Note" transform="matrix(0.992,0,0,0.992,1764.63,1179.8)" d="M0,4.2 C0,8.5 3.1,13.3 11.2,13.3 C21.6,13.3 32.5,4.8 32.5,-4 C32.5,-9.9 27.5,-13.2 21.3,-13.2 C11.6,-13.2 0,-5 0,4.2"/>
<path class="Note" transform="matrix(0.992,0,0,0.992,1385.2,1167.4)" d="M0,4.2 C0,8.5 3.1,13.3 11.2,13.3 C21.6,13.3 32.5,4.8 32.5,-4 C32.5,-9.9 27.5,-13.2 21.3,-13.2 C11.6,-13.2 0,-5 0,4.2"/>
<path class="Clef" transform="matrix(0.992,0,0,0.992,232.438,1179.8)" d="M12.3,51.3 C12.3,57.9 17.3,66.6 30.8,66.6 C35.5,66.6 39.6,65.4 43.2,63.2 C48.6,59.4 50,52.8 50,46.5 C50,42.6 49.4,38.1 48.4,32.4 C48.1,30.4 47.5,27.4 46.9,23.5 C56.7,20.3 64,10.1 64,-0.2 C64,-15.3 53.3,-25.5 38.7,-25.5 C37.7,-31.5 36.7,-37.4 35.9,-43 C46.4,-54.1 53.7,-66.6 53.7,-82.5 C53.7,-91.6 50.9,-99 49.3,-102.6 C46.9,-107.7 44,-111.2 42.2,-111.2 C41.5,-111.2 38.4,-110 35.1,-106.1 C28.7,-98.5 26.9,-85.7 26.9,-77.3 C26.9,-71.9 27.4,-67 29.1,-55.8 C29,-55.7 23.8,-50.4 21.7,-48.7 C12.6,-40.3 0,-28.1 0,-8.1 C0,10.6 16.3,25.3 34.9,25.3 C37.8,25.3 40.5,25 42.8,24.6 C44.7,34.2 45.9,41.2 45.9,46.5 C45.9,56.9 40.5,62.4 30.4,62.4 C28,62.4 25.9,61.9 25.7,61.9 C25.6,61.8 25.4,61.7 25.4,61.6 C25.4,61.4 25.6,61.3 25.9,61.3 C30.6,60.5 35.3,56.5 35.3,50.1 C35.3,44.7 31.2,39 23.7,39 C16.7,39 12.3,44.7 12.3,51.3 M33.2,-82.2 C34.1,-86.2 38.7,-96.7 43.9,-96.7 C45.4,-96.7 47.8,-91.9 47.8,-84.9 C47.8,-74.5 40.1,-66.7 33.2,-59.9 C32.6,-63.9 32.1,-67.8 32.1,-72 C32.1,-75.7 32.4,-79.1 33.2,-82.2 M42,20.6 C40,21 38.1,21.2 36.2,21.2 C21.9,21.2 9.7,11.2 9.7,-3.9 C9.7,-16.1 18.3,-27 27.1,-34.6 C28.8,-36.1 30.4,-37.5 31.9,-39 C32.8,-33.6 33.5,-28.9 34.2,-24.8 C25.1,-22.1 18.9,-12.5 18.9,-3.1 C18.9,3.9 24.4,13.5 32.4,13.5 C33.2,13.5 34.1,13.1 34.1,12.2 C34.1,11.3 33.1,10.8 31.9,10 C28,7.6 25.8,5 25.8,0.1 C25.8,-6 30.4,-10.9 36.2,-12.3 L42,20.6 M56.2,2.1 C56.2,9.2 53.3,16.5 46.2,19.4 C44.1,7.4 41.4,-8.5 40.7,-12.9 C49.7,-12.9 56.2,-6.8 56.2,2.1"/>
<path class="Clef" transform="matrix(0.992,0,0,0.992,232.438,708.598)" d="M12.3,51.3 C12.3,57.9 17.3,66.6 30.8,66.6 C35.5,66.6 39.6,65.4 43.2,63.2 C48.6,59.4 50,52.8 50,46.5 C50,42.6 49.4,38.1 48.4,32.4 C48.1,30.4 47.5,27.4 46.9,23.5 C56.7,20.3 64,10.1 64,-0.2 C64,-15.3 53.3,-25.5 38.7,-25.5 C37.7,-31.5 36.7,-37.4 35.9,-43 C46.4,-54.1 53.7,-66.6 53.7,-82.5 C53.7,-91.6 50.9,-99 49.3,-102.6 C46.9,-107.7 44,-111.2 42.2,-111.2 C41.5,-111.2 38.4,-110 35.1,-106.1 C28.7,-98.5 26.9,-85.7 26.9,-77.3 C26.9,-71.9 27.4,-67 29.1,-55.8 C29,-55.7 23.8,-50.4 21.7,-48.7 C12.6,-40.3 0,-28.1 0,-8.1 C0,10.6 16.3,25.3 34.9,25.3 C37.8,25.3 40.5,25 42.8,24.6 C44.7,34.2 45.9,41.2 45.9,46.5 C45.9,56.9 40.5,62.4 30.4,62.4 C28,62.4 25.9,61.9 25.7,61.9 C25.6,61.8 25.4,61.7 25.4,61.6 C25.4,61.4 25.6,61.3 25.9,61.3 C30.6,60.5 35.3,56.5 35.3,50.1 C35.3,44.7 31.2,39 23.7,39 C16.7,39 12.3,44.7 12.3,51.3 M33.2,-82.2 C34.1,-86.2 38.7,-96.7 43.9,-96.7 C45.4,-96.7 47.8,-91.9 47.8,-84.9 C47.8,-74.5 40.1,-66.7 33.2,-59.9 C32.6,-63.9 32.1,-67.8 32.1,-72 C32.1,-75.7 32.4,-79.1 33.2,-82.2 M42,20.6 C40,21 38.1,21.2 36.2,21.2 C21.9,21.2 9.7,11.2 9.7,-3.9 C9.7,-16.1 18.3,-27 27.1,-34.6 C28.8,-36.1 30.4,-37.5 31.9,-39 C32.8,-33.6 33.5,-28.9 34.2,-24.8 C25.1,-22.1 18.9,-12.5 18.9,-3.1 C18.9,3.9 24.4,13.5 32.4,13.5 C33.2,13.5 34.1,13.1 34.1,12.2 C34.1,11.3 33.1,10.8 31.9,10 C28,7.6 25.8,5 25.8,0.1 C25.8,-6 30.4,-10.9 36.2,-12.3 L42,20.6 M56.2,2.1 C56.2,9.2 53.3,16.5 46.2,19.4 C44.1,7.4 41.4,-8.5 40.7,-12.9 C49.7,-12.9 56.2,-6.8 56.2,2.1"/>
<path class="KeySig" transform="matrix(0.992,0,0,0.992,320.711,1155)" d="M12,-15.5 C7,-15.5 4.1,-12.4 3.6,-11.8 L4,-43.9 C4,-44.7 3.4,-45.3 2.6,-45.3 L1.4,-45.3 C0.6,-45.3 0,-44.7 0,-43.9 L0.5,16.2 C0.5,17 1.1,17.6 1.9,17.6 C2.1,17.6 2.5,17.5 2.7,17.4 C11.3,13.1 20.3,4.9 20.3,-5.4 C20.3,-10.6 17.9,-15.5 12,-15.5 M3.3,12.7 L3.6,-6.8 C3.8,-7.7 5.3,-10.6 9.3,-10.6 C12.9,-10.6 13.2,-7.2 13.2,-5.1 C13.2,3.8 9.9,7.5 3.3,12.7"/>
<path class="KeySig" transform="matrix(0.992,0,0,0.992,320.711,683.798)" d="M12,-15.5 C7,-15.5 4.1,-12.4 3.6,-11.8 L4,-43.9 C4,-44.7 3.4,-45.3 2.6,-45.3 L1.4,-45.3 C0.6,-45.3 0,-44.7 0,-43.9 L0.5,16.2 C0.5,17 1.1,17.6 1.9,17.6 C2.1,17.6 2.5,17.5 2.7,17.4 C11.3,13.1 20.3,4.9 20.3,-5.4 C20.3,-10.6 17.9,-15.5 12,-15.5 M3.3,12.7 L3.6,-6.8 C3.8,-7.7 5.3,-10.6 9.3,-10.6 C12.9,-10.6 13.2,-7.2 13.2,-5.1 C13.2,3.8 9.9,7.5 3.3,12.7"/>
<path class="TimeSig" transform="matrix(0.992,0,0,0.992,367.536,659.494)" d="M34.2,3.9 C33.4,6.1 31.4,13.3 26.5,13.3 C20,13.3 18.6,9.3 13.2,9.3 C12.4,9.3 11.6,9.4 10.6,9.6 C10.6,9.6 13.1,5.8 23.7,2.5 C34.3,-0.8 37,-6 37,-12 C37,-16.2 35.1,-24.5 20,-24.5 C4.9,-24.5 2.1,-15.4 2.1,-10.8 C2.1,-6.7 5.5,-3.4 9.6,-3.4 C13.7,-3.4 17,-6.7 17,-10.8 C17,-13.6 15,-16.7 12.4,-17.7 C12.1,-17.8 11.7,-18.3 11.7,-18.8 C11.7,-19.4 12.2,-20.1 14,-20.6 C14.5,-20.8 15.9,-21.1 17.4,-21.1 C23.1,-21.1 24.2,-17.6 24.2,-12.5 C24.2,-0.8 10.3,1.7 4.5,10.4 C4.5,10.4 1.5,14.6 1.5,19.3 C1.5,24 3.9,24.3 5.1,24.3 C6.7,24.3 8.4,23 8.4,21.2 C8.4,20.8 8.3,20.4 8.1,19.9 C7.5,18.5 7.3,17.4 7.3,16.6 C7.3,16.3 7.3,16 7.4,15.7 C7.5,15.1 8.3,14.1 10.7,14.1 C13.6,14.1 14.7,17.5 16.5,20.1 C18.3,22.7 21.1,24.3 24.3,24.3 C27.5,24.3 31.8,22 33.6,18.3 C35.4,14.6 37.7,7.1 37.7,4.4 C37.7,3.1 36.9,2.5 36,2.5 C35.3,2.5 34.6,2.9 34.2,3.9"/>
<path class="TimeSig" transform="matrix(0.992,0,0,0.992,364.266,708.598)" d="M20.8,12.7 L20.8,20.1 L12.5,20.1 C11.8,20.1 11.1,20.7 11.1,21.5 L11.1,23.4 C11.1,24.2 11.8,24.8 12.5,24.8 L42.8,24.8 C43.6,24.8 44.2,24.2 44.2,23.4 L44.2,21.5 C44.2,20.7 43.6,20.1 42.8,20.1 L33.9,20.1 L33.9,12.7 L42.8,12.7 C43.6,12.7 44.2,12 44.2,11.2 L44.2,9.3 C44.2,8.6 43.6,7.9 42.8,7.9 L33.9,7.9 L33.9,-8 C33.9,-8.6 33.6,-9.1 33.1,-9.3 L31.9,-9.9 C31.7,-10 31.4,-10.1 31.2,-10.1 C30.9,-10 30.5,-9.9 30.3,-9.7 L21.2,-1.4 C20.9,-1.1 20.8,-0.7 20.8,-0.3 L20.8,7.9 L9.3,7.9 C9.3,7.9 20.4,-4.1 32.2,-19.9 C32.6,-20.4 32.7,-20.9 32.7,-21.3 C32.7,-21.8 32.5,-22.2 32.4,-22.3 L30.2,-24.5 C30,-24.7 29.6,-24.9 29.2,-24.9 C28.6,-24.9 15.1,-24.9 14.4,-24.9 C13.6,-24.9 13.1,-24.3 13,-23.7 C13,-23.7 12.5,-16.3 9.9,-8.2 C7.3,-0.1 4.3,4.9 1.7,8.6 C1.7,8.6 1.4,9.1 1.4,9.7 C1.4,9.9 1.4,10.1 1.5,10.3 C1.9,11 2.5,12.1 2.5,12.1 C2.5,12.1 2.7,12.7 3.6,12.7 L20.8,12.7 "/>
<path class="Rest" transform="matrix(0.992,0,0,0.992,1869.43,683.798)" d="M26.7,-20.3 C26.6,-20.3 26.4,-20.4 26.3,-20.4 C25.7,-20.4 25.2,-20.1 25,-19.6 C22.7,-15 17.9,-8.8 12.5,-7.8 C13.6,-9.1 14.3,-10.7 14.3,-12.6 C14.3,-16.5 11.1,-19.7 7.2,-19.7 C3.2,-19.7 0,-16.5 0,-12.6 C0,-7.2 5.3,-4.7 10,-4.7 C15.3,-4.7 18.8,-7.2 22.2,-10.9 L10.8,24.7 L13.5,25.5 L27.5,-18.6 C27.6,-18.7 27.6,-18.9 27.6,-19.1 C27.6,-19.6 27.3,-20 26.7,-20.3"/>
<path class="Rest" transform="matrix(0.992,0,0,0.992,2207.85,1155)" d="M26.7,-20.3 C26.6,-20.3 26.4,-20.4 26.3,-20.4 C25.7,-20.4 25.2,-20.1 25,-19.6 C22.7,-15 17.9,-8.8 12.5,-7.8 C13.6,-9.1 14.3,-10.7 14.3,-12.6 C14.3,-16.5 11.1,-19.7 7.2,-19.7 C3.2,-19.7 0,-16.5 0,-12.6 C0,-7.2 5.3,-4.7 10,-4.7 C15.3,-4.7 18.8,-7.2 22.2,-10.9 L10.8,24.7 L13.5,25.5 L27.5,-18.6 C27.6,-18.7 27.6,-18.9 27.6,-19.1 C27.6,-19.6 27.3,-20 26.7,-20.3"/>
<path class="Rest" transform="matrix(0.992,0,0,0.992,2651.08,1155)" d="M26.7,-20.3 C26.6,-20.3 26.4,-20.4 26.3,-20.4 C25.7,-20.4 25.2,-20.1 25,-19.6 C22.7,-15 17.9,-8.8 12.5,-7.8 C13.6,-9.1 14.3,-10.7 14.3,-12.6 C14.3,-16.5 11.1,-19.7 7.2,-19.7 C3.2,-19.7 0,-16.5 0,-12.6 C0,-7.2 5.3,-4.7 10,-4.7 C15.3,-4.7 18.8,-7.2 22.2,-10.9 L10.8,24.7 L13.5,25.5 L27.5,-18.6 C27.6,-18.7 27.6,-18.9 27.6,-19.1 C27.6,-19.6 27.3,-20 26.7,-20.3"/>
<path class="Beam" fill-rule="evenodd" d="M2597.33,646.55 L2696.21,658.95 L2696.21,671.447 L2597.33,659.047 L2597.33,646.55 "/>
<path class="Beam" fill-rule="evenodd" d="M1917.94,1080.6 L2094.89,1080.6 L2094.89,1093 L1917.94,1093 L1917.94,1080.6 "/>
<path class="Beam" fill-rule="evenodd" d="M1917.94,1099.2 L2094.89,1099.2 L2094.89,1111.6 L1917.94,1111.6 L1917.94,1099.2 "/>
<path class="Beam" fill-rule="evenodd" d="M432.342,1148.8 L522.181,1148.8 L522.181,1161.2 L432.342,1161.2 L432.342,1148.8 "/>
<path class="Beam" fill-rule="evenodd" d="M1072.07,646.55 L1170.95,658.95 L1170.95,671.447 L1072.07,659.047 L1072.07,646.55 "/>
<path class="Beam" fill-rule="evenodd" d="M1298.09,1216.94 L1387.93,1229.34 L1387.93,1241.86 L1298.09,1229.46 L1298.09,1216.94 "/>
<path class="Beam" fill-rule="evenodd" d="M2405.02,627.998 L2503.9,627.998 L2503.9,640.398 L2405.02,640.398 L2405.02,627.998 "/>
<path class="Beam" fill-rule="evenodd" d="M1538.51,1105.4 L1651.67,1105.4 L1651.67,1117.8 L1538.51,1117.8 L1538.51,1105.4 "/>
<path class="Beam" fill-rule="evenodd" d="M1651.67,1124 L1619.43,1124 L1619.43,1136.4 L1651.67,1136.4 L1651.67,1124 "/>
<path class="Beam" fill-rule="evenodd" d="M2176.01,627.986 L2274.89,621.786 L2274.89,634.211 L2176.01,640.411 L2176.01,627.986 "/>
<path class="Beam" fill-rule="evenodd" d="M2361.17,1099.2 L2538.12,1099.2 L2538.12,1111.6 L2361.17,1111.6 L2361.17,1099.2 "/>
<path class="Beam" fill-rule="evenodd" d="M2361.17,1117.8 L2538.12,1117.8 L2538.12,1130.2 L2361.17,1130.2 L2361.17,1117.8 "/>
<path class="Beam" fill-rule="evenodd" d="M1301.08,634.191 L1425.7,627.991 L1425.7,640.406 L1301.08,646.606 L1301.08,634.191 "/>
<path class="Beam" fill-rule="evenodd" d="M1425.7,646.591 L1393.46,648.195 L1393.46,660.61 L1425.7,659.006 L1425.7,646.591 "/>
<path class="Beam" fill-rule="evenodd" d="M606.565,1148.8 L696.404,1148.8 L696.404,1161.2 L606.565,1161.2 L606.565,1148.8 "/>
<path class="Beam" fill-rule="evenodd" d="M1129.59,1217 L1242.74,1217 L1242.74,1229.4 L1129.59,1229.4 L1129.59,1217 "/>
<path class="Beam" fill-rule="evenodd" d="M1242.74,1198.4 L1210.5,1198.4 L1210.5,1210.8 L1242.74,1210.8 L1242.74,1198.4 "/>
<path class="Beam" fill-rule="evenodd" d="M1707.02,1105.38 L1796.86,1099.18 L1796.86,1111.61 L1707.02,1117.81 L1707.02,1105.38 "/>
<path class="Beam" fill-rule="evenodd" d="M471.076,609.391 L595.695,615.591 L595.695,628.006 L471.076,621.806 L471.076,609.391 "/>
<path class="Beam" fill-rule="evenodd" d="M595.695,634.191 L563.455,632.587 L563.455,645.002 L595.695,646.606 L595.695,634.191 "/>
<path class="Beam" fill-rule="evenodd" d="M817.491,1142.58 L907.33,1148.78 L907.33,1161.21 L817.491,1155.01 L817.491,1142.58 "/>
<path class="Beam" fill-rule="evenodd" d="M886.08,609.391 L1010.7,615.591 L1010.7,628.006 L886.08,621.806 L886.08,609.391 "/>
<path class="Beam" fill-rule="evenodd" d="M1010.7,634.191 L978.459,632.587 L978.459,645.002 L1010.7,646.606 L1010.7,634.191 "/>
<path class="Beam" fill-rule="evenodd" d="M657.069,646.55 L755.951,658.95 L755.951,671.447 L657.069,659.047 L657.069,646.55 "/>
<path class="Beam" fill-rule="evenodd" d="M1487.08,615.586 L1585.96,609.386 L1585.96,621.811 L1487.08,628.011 L1487.08,615.586 "/>
<path class="Harmony" d="M1330.82,1003.69 L1298.09,1003.69 L1298.09,1006.27 L1299.08,1006.27 C1302.22,1006.33 1303.26,1006.49 1303.7,1007.04 C1304.03,1007.54 1304.03,1007.65 1304.03,1010.45 L1304.03,1036.63 C1304.03,1039.44 1304.03,1039.55 1303.7,1040.04 C1303.26,1040.59 1302.22,1040.81 1299.08,1040.81 L1298.09,1040.81 L1298.09,1043.4 L1316.96,1043.4 L1316.96,1040.81 L1315.14,1040.81 C1312.01,1040.81 1310.96,1040.59 1310.52,1040.04 C1310.19,1039.55 1310.19,1039.38 1310.19,1036.63 L1310.19,1024.15 L1311.29,1024.15 C1316.96,1023.93 1318.99,1025.96 1319.21,1032.07 L1321.8,1032.07 L1321.8,1014.03 L1319.21,1014.03 C1318.88,1019.42 1316.74,1021.51 1311.51,1021.56 L1310.19,1021.56 L1310.19,1009.02 C1310.14,1006.71 1310.69,1006.33 1313.66,1006.27 L1316.19,1006.27 C1325.21,1006.22 1327.46,1008.25 1329.17,1017.71 L1331.59,1017.71 L1330.82,1003.69 "/>
<path class="Harmony" d="M1541.74,1003.69 L1509.02,1003.69 L1509.02,1006.27 L1510.01,1006.27 C1513.14,1006.33 1514.19,1006.49 1514.63,1007.04 C1514.96,1007.54 1514.96,1007.65 1514.96,1010.45 L1514.96,1036.63 C1514.96,1039.44 1514.96,1039.55 1514.63,1040.04 C1514.19,1040.59 1513.14,1040.81 1510.01,1040.81 L1509.02,1040.81 L1509.02,1043.4 L1527.88,1043.4 L1527.88,1040.81 L1526.07,1040.81 C1522.93,1040.81 1521.89,1040.59 1521.45,1040.04 C1521.12,1039.55 1521.12,1039.38 1521.12,1036.63 L1521.12,1024.15 L1522.22,1024.15 C1527.88,1023.93 1529.92,1025.96 1530.14,1032.07 L1532.72,1032.07 L1532.72,1014.03 L1530.14,1014.03 C1529.81,1019.42 1527.66,1021.51 1522.44,1021.56 L1521.12,1021.56 L1521.12,1009.02 C1521.06,1006.71 1521.61,1006.33 1524.58,1006.27 L1527.11,1006.27 C1536.13,1006.22 1538.39,1008.25 1540.09,1017.71 L1542.51,1017.71 L1541.74,1003.69 "/>
<path class="Harmony" d="M1921.17,1003.69 L1888.45,1003.69 L1888.45,1006.27 L1889.44,1006.27 C1892.57,1006.33 1893.62,1006.49 1894.06,1007.04 C1894.39,1007.54 1894.39,1007.65 1894.39,1010.45 L1894.39,1036.63 C1894.39,1039.44 1894.39,1039.55 1894.06,1040.04 C1893.62,1040.59 1892.57,1040.81 1889.44,1040.81 L1888.45,1040.81 L1888.45,1043.4 L1907.31,1043.4 L1907.31,1040.81 L1905.5,1040.81 C1902.36,1040.81 1901.32,1040.59 1900.88,1040.04 C1900.55,1039.55 1900.55,1039.38 1900.55,1036.63 L1900.55,1024.15 L1901.65,1024.15 C1907.31,1023.93 1909.35,1025.96 1909.57,1032.07 L1912.15,1032.07 L1912.15,1014.03 L1909.57,1014.03 C1909.24,1019.42 1907.09,1021.51 1901.87,1021.56 L1900.55,1021.56 L1900.55,1009.02 C1900.49,1006.71 1901.04,1006.33 1904.01,1006.27 L1906.54,1006.27 C1915.56,1006.22 1917.82,1008.25 1919.52,1017.71 L1921.94,1017.71 L1921.17,1003.69 "/>
<path class="Harmony" d="M1304.31,532.488 L1271.59,532.488 L1271.59,535.073 L1272.58,535.073 C1275.71,535.128 1276.76,535.293 1277.2,535.843 C1277.53,536.338 1277.53,536.448 1277.53,539.253 L1277.53,565.433 C1277.53,568.238 1277.53,568.348 1277.2,568.843 C1276.76,569.393 1275.71,569.613 1272.58,569.613 L1271.59,569.613 L1271.59,572.198 L1290.45,572.198 L1290.45,569.613 L1288.64,569.613 C1285.5,569.613 1284.46,569.393 1284.02,568.843 C1283.69,568.348 1283.69,568.183 1283.69,565.433 L1283.69,552.948 L1284.79,552.948 C1290.45,552.728 1292.49,554.763 1292.71,560.868 L1295.29,560.868 L1295.29,542.828 L1292.71,542.828 C1292.38,548.218 1290.23,550.308 1285.01,550.363 L1283.69,550.363 L1283.69,537.823 C1283.63,535.513 1284.18,535.128 1287.15,535.073 L1289.68,535.073 C1298.7,535.018 1300.96,537.053 1302.66,546.513 L1305.08,546.513 L1304.31,532.488 "/>
<path class="Harmony" d="M1490.31,532.488 L1457.58,532.488 L1457.58,535.073 L1458.57,535.073 C1461.71,535.128 1462.75,535.293 1463.19,535.843 C1463.52,536.338 1463.52,536.448 1463.52,539.253 L1463.52,565.433 C1463.52,568.238 1463.52,568.348 1463.19,568.843 C1462.75,569.393 1461.71,569.613 1458.57,569.613 L1457.58,569.613 L1457.58,572.198 L1476.45,572.198 L1476.45,569.613 L1474.63,569.613 C1471.5,569.613 1470.45,569.393 1470.01,568.843 C1469.68,568.348 1469.68,568.183 1469.68,565.433 L1469.68,552.948 L1470.78,552.948 C1476.45,552.728 1478.48,554.763 1478.7,560.868 L1481.29,560.868 L1481.29,542.828 L1478.7,542.828 C1478.37,548.218 1476.23,550.308 1471,550.363 L1469.68,550.363 L1469.68,537.823 C1469.63,535.513 1470.18,535.128 1473.15,535.073 L1475.68,535.073 C1484.7,535.018 1486.95,537.053 1488.66,546.513 L1491.08,546.513 L1490.31,532.488 "/>
<path class="Harmony" d="M660.299,532.488 L627.574,532.488 L627.574,535.073 L628.564,535.073 C631.699,535.128 632.744,535.293 633.184,535.843 C633.514,536.338 633.514,536.448 633.514,539.253 L633.514,565.433 C633.514,568.238 633.514,568.348 633.184,568.843 C632.744,569.393 631.699,569.613 628.564,569.613 L627.574,569.613 L627.574,572.198 L646.439,572.198 L646.439,569.613 L644.624,569.613 C641.489,569.613 640.444,569.393 640.004,568.843 C639.674,568.348 639.674,568.183 639.674,565.433 L639.674,552.948 L640.774,552.948 C646.439,552.728 648.474,554.763 648.694,560.868 L651.279,560.868 L651.279,542.828 L648.694,542.828 C648.364,548.218 646.219,550.308 640.994,550.363 L639.674,550.363 L639.674,537.823 C639.619,535.513 640.169,535.128 643.139,535.073 L645.669,535.073 C654.689,535.018 656.944,537.053 658.649,546.513 L661.069,546.513 L660.299,532.488 "/>
<path class="Harmony" d="M820.721,1003.69 L787.996,1003.69 L787.996,1006.27 L788.986,1006.27 C792.121,1006.33 793.166,1006.49 793.606,1007.04 C793.936,1007.54 793.936,1007.65 793.936,1010.45 L793.936,1036.63 C793.936,1039.44 793.936,1039.55 793.606,1040.04 C793.166,1040.59 792.121,1040.81 788.986,1040.81 L787.996,1040.81 L787.996,1043.4 L806.861,1043.4 L806.861,1040.81 L805.046,1040.81 C801.911,1040.81 800.866,1040.59 800.426,1040.04 C800.096,1039.55 800.096,1039.38 800.096,1036.63 L800.096,1024.15 L801.196,1024.15 C806.861,1023.93 808.896,1025.96 809.116,1032.07 L811.701,1032.07 L811.701,1014.03 L809.116,1014.03 C808.786,1019.42 806.641,1021.51 801.416,1021.56 L800.096,1021.56 L800.096,1009.02 C800.041,1006.71 800.591,1006.33 803.561,1006.27 L806.091,1006.27 C815.111,1006.22 817.366,1008.25 819.071,1017.71 L821.491,1017.71 L820.721,1003.69 "/>
<path class="Harmony" d="M1075.3,532.488 L1042.58,532.488 L1042.58,535.073 L1043.57,535.073 C1046.7,535.128 1047.75,535.293 1048.19,535.843 C1048.52,536.338 1048.52,536.448 1048.52,539.253 L1048.52,565.433 C1048.52,568.238 1048.52,568.348 1048.19,568.843 C1047.75,569.393 1046.7,569.613 1043.57,569.613 L1042.58,569.613 L1042.58,572.198 L1061.44,572.198 L1061.44,569.613 L1059.63,569.613 C1056.49,569.613 1055.45,569.393 1055.01,568.843 C1054.68,568.348 1054.68,568.183 1054.68,565.433 L1054.68,552.948 L1055.78,552.948 C1061.44,552.728 1063.48,554.763 1063.7,560.868 L1066.28,560.868 L1066.28,542.828 L1063.7,542.828 C1063.37,548.218 1061.22,550.308 1056,550.363 L1054.68,550.363 L1054.68,537.823 C1054.62,535.513 1055.17,535.128 1058.14,535.073 L1060.67,535.073 C1069.69,535.018 1071.95,537.053 1073.65,546.513 L1076.07,546.513 L1075.3,532.488 "/>
<path class="Harmony" d="M2596.69,1003.69 L2563.97,1003.69 L2563.97,1006.27 L2564.96,1006.27 C2568.09,1006.33 2569.14,1006.49 2569.58,1007.04 C2569.91,1007.54 2569.91,1007.65 2569.91,1010.45 L2569.91,1036.63 C2569.91,1039.44 2569.91,1039.55 2569.58,1040.04 C2569.14,1040.59 2568.09,1040.81 2564.96,1040.81 L2563.97,1040.81 L2563.97,1043.4 L2582.83,1043.4 L2582.83,1040.81 L2581.02,1040.81 C2577.88,1040.81 2576.84,1040.59 2576.4,1040.04 C2576.07,1039.55 2576.07,1039.38 2576.07,1036.63 L2576.07,1024.15 L2577.17,1024.15 C2582.83,1023.93 2584.87,1025.96 2585.09,1032.07 L2587.67,1032.07 L2587.67,1014.03 L2585.09,1014.03 C2584.76,1019.42 2582.61,1021.51 2577.39,1021.56 L2576.07,1021.56 L2576.07,1009.02 C2576.01,1006.71 2576.56,1006.33 2579.53,1006.27 L2582.06,1006.27 C2591.08,1006.22 2593.34,1008.25 2595.04,1017.71 L2597.46,1017.71 L2596.69,1003.69 "/>
<path class="Harmony" d="M2567.84,532.488 L2567.84,535.073 L2568.83,535.073 C2571.97,535.128 2573.01,535.293 2573.45,535.843 C2573.78,536.338 2573.78,536.448 2573.78,539.253 L2573.78,565.433 C2573.78,568.238 2573.78,568.348 2573.45,568.843 C2573.01,569.393 2571.97,569.613 2568.83,569.613 L2567.84,569.613 L2567.84,572.198 L2587.81,572.198 C2597.32,572.198 2603.04,568.183 2603.04,561.418 C2603.04,555.918 2599.58,552.783 2592.04,551.463 C2594.68,550.913 2595.89,550.418 2597.32,549.373 C2599.58,547.668 2600.95,544.973 2600.95,542.223 C2600.95,538.648 2598.75,535.183 2595.56,533.808 C2593.58,532.928 2590.83,532.488 2587.59,532.488 L2567.84,532.488 M2579.94,550.363 L2579.94,537.823 C2579.94,535.678 2580.66,535.128 2583.57,535.073 L2585.77,535.073 C2591.16,535.073 2594.57,536.833 2594.57,542.828 C2594.57,548.273 2591.93,550.363 2584.84,550.363 L2579.94,550.363 M2579.94,552.948 L2584.78,552.948 C2593.2,552.948 2596.28,555.203 2596.28,561.253 C2596.28,568.623 2591.66,569.613 2585.44,569.613 L2583.13,569.613 C2580.38,569.613 2579.83,569.063 2579.94,566.148 L2579.94,552.948 "/>
<path class="Harmony" d="M2611.72,574.728 C2613.37,574.728 2619.59,571.208 2623.05,567.578 C2625.86,564.553 2626.63,560.483 2626.63,557.678 C2626.63,553.278 2623.88,550.143 2619.42,550.143 C2617.06,550.143 2614.97,550.913 2613.21,552.453 L2613.48,529.793 C2613.48,529.078 2612.88,528.528 2612.16,528.528 L2611.34,528.528 C2610.68,528.528 2610.02,529.078 2610.02,529.793 L2610.46,573.463 C2610.46,574.178 2611.01,574.728 2611.72,574.728 M2617.83,554.268 C2620.96,554.268 2621.35,557.513 2621.35,558.778 C2621.35,563.783 2617.22,567.303 2613.54,569.998 C2613.37,570.108 2613.21,570.218 2613.04,570.383 L2613.15,556.798 C2613.26,556.523 2613.7,555.918 2614.53,555.368 C2615.19,554.873 2616.45,554.268 2617.83,554.268"/>
<path class="Harmony" d="M1719.27,532.103 L1717.18,532.103 L1714.98,535.348 C1710.96,532.433 1708.93,531.663 1705.13,531.663 C1699.91,531.663 1695.45,533.863 1691.77,538.263 C1688.25,542.443 1686.6,547.063 1686.6,552.728 C1686.6,564.608 1694.35,573.023 1705.19,573.023 C1713.99,573.023 1719.6,567.853 1720.86,558.613 L1718.28,558.173 C1716.79,566.368 1712.61,570.438 1705.85,570.438 C1697.71,570.438 1693.86,564.828 1693.86,552.948 C1693.86,546.678 1694.68,542.553 1696.55,539.253 C1698.26,536.173 1701.61,534.248 1705.19,534.248 C1709.04,534.248 1712.45,536.283 1714.54,539.803 C1715.58,541.618 1716.35,543.653 1717.67,547.998 L1720.09,547.998 L1719.27,532.103 "/>
<path class="Harmony" d="M1729.52,546.788 L1731.94,547.173 L1732.93,542.828 C1733.76,539.198 1734.14,538.648 1735.74,538.648 C1736.01,538.648 1736.45,538.648 1736.95,538.703 C1743.71,539.033 1743.71,539.033 1746.24,539.033 C1746.96,539.033 1748.22,539.033 1749.76,538.978 L1746.02,546.513 C1741.95,554.598 1741.46,555.588 1740.08,558.998 C1738.38,563.123 1737.5,566.588 1737.5,568.898 C1737.5,571.428 1738.82,572.968 1740.96,572.968 C1743.6,572.968 1744.65,571.208 1744.59,566.423 C1744.32,558.503 1745.31,554.653 1751.19,541.783 C1752.18,539.638 1753.23,537.438 1754.22,535.293 L1754.22,533.698 C1750.92,533.973 1749.16,534.083 1745.75,534.083 C1740.96,534.083 1737.17,533.918 1731.23,533.478 L1729.52,546.788 "/>
<path class="Harmony" d="M1841.16,532.103 L1839.07,532.103 L1836.87,535.348 C1832.85,532.433 1830.82,531.663 1827.02,531.663 C1821.8,531.663 1817.34,533.863 1813.66,538.263 C1810.14,542.443 1808.49,547.063 1808.49,552.728 C1808.49,564.608 1816.24,573.023 1827.08,573.023 C1835.88,573.023 1841.49,567.853 1842.75,558.613 L1840.17,558.173 C1838.68,566.368 1834.5,570.438 1827.74,570.438 C1819.6,570.438 1815.75,564.828 1815.75,552.948 C1815.75,546.678 1816.57,542.553 1818.44,539.253 C1820.15,536.173 1823.5,534.248 1827.08,534.248 C1830.93,534.248 1834.34,536.283 1836.43,539.803 C1837.47,541.618 1838.24,543.653 1839.56,547.998 L1841.98,547.998 L1841.16,532.103 "/>
<path class="Harmony" d="M1851.41,546.788 L1853.83,547.173 L1854.82,542.828 C1855.65,539.198 1856.03,538.648 1857.63,538.648 C1857.9,538.648 1858.34,538.648 1858.84,538.703 C1865.6,539.033 1865.6,539.033 1868.13,539.033 C1868.85,539.033 1870.11,539.033 1871.65,538.978 L1867.91,546.513 C1863.84,554.598 1863.35,555.588 1861.97,558.998 C1860.27,563.123 1859.39,566.588 1859.39,568.898 C1859.39,571.428 1860.71,572.968 1862.85,572.968 C1865.49,572.968 1866.54,571.208 1866.48,566.423 C1866.21,558.503 1867.2,554.653 1873.08,541.783 C1874.07,539.638 1875.12,537.438 1876.11,535.293 L1876.11,533.698 C1872.81,533.973 1871.05,534.083 1867.64,534.083 C1862.85,534.083 1859.06,533.918 1853.12,533.478 L1851.41,546.788 "/>
<path class="Harmony" d="M2153.47,1003.69 L2120.74,1003.69 L2120.74,1006.27 L2121.73,1006.27 C2124.87,1006.33 2125.91,1006.49 2126.35,1007.04 C2126.68,1007.54 2126.68,1007.65 2126.68,1010.45 L2126.68,1036.63 C2126.68,1039.44 2126.68,1039.55 2126.35,1040.04 C2125.91,1040.59 2124.87,1040.81 2121.73,1040.81 L2120.74,1040.81 L2120.74,1043.4 L2139.61,1043.4 L2139.61,1040.81 L2137.79,1040.81 C2134.66,1040.81 2133.61,1040.59 2133.17,1040.04 C2132.84,1039.55 2132.84,1039.38 2132.84,1036.63 L2132.84,1024.15 L2133.94,1024.15 C2139.61,1023.93 2141.64,1025.96 2141.86,1032.07 L2144.45,1032.07 L2144.45,1014.03 L2141.86,1014.03 C2141.53,1019.42 2139.39,1021.51 2134.16,1021.56 L2132.84,1021.56 L2132.84,1009.02 C2132.79,1006.71 2133.34,1006.33 2136.31,1006.27 L2138.84,1006.27 C2147.86,1006.22 2150.11,1008.25 2151.82,1017.71 L2154.24,1017.71 L2153.47,1003.69 "/>
<path class="Harmony" d="M609.794,1003.69 L577.069,1003.69 L577.069,1006.27 L578.059,1006.27 C581.194,1006.33 582.239,1006.49 582.679,1007.04 C583.009,1007.54 583.009,1007.65 583.009,1010.45 L583.009,1036.63 C583.009,1039.44 583.009,1039.55 582.679,1040.04 C582.239,1040.59 581.194,1040.81 578.059,1040.81 L577.069,1040.81 L577.069,1043.4 L595.934,1043.4 L595.934,1040.81 L594.119,1040.81 C590.984,1040.81 589.939,1040.59 589.499,1040.04 C589.169,1039.55 589.169,1039.38 589.169,1036.63 L589.169,1024.15 L590.269,1024.15 C595.934,1023.93 597.969,1025.96 598.189,1032.07 L600.774,1032.07 L600.774,1014.03 L598.189,1014.03 C597.859,1019.42 595.714,1021.51 590.489,1021.56 L589.169,1021.56 L589.169,1009.02 C589.114,1006.71 589.664,1006.33 592.634,1006.27 L595.164,1006.27 C604.184,1006.22 606.439,1008.25 608.144,1017.71 L610.564,1017.71 L609.794,1003.69 "/>
<path class="Harmony" d="M474.306,532.488 L441.581,532.488 L441.581,535.073 L442.571,535.073 C445.706,535.128 446.751,535.293 447.191,535.843 C447.521,536.338 447.521,536.448 447.521,539.253 L447.521,565.433 C447.521,568.238 447.521,568.348 447.191,568.843 C446.751,569.393 445.706,569.613 442.571,569.613 L441.581,569.613 L441.581,572.198 L460.446,572.198 L460.446,569.613 L458.631,569.613 C455.496,569.613 454.451,569.393 454.011,568.843 C453.681,568.348 453.681,568.183 453.681,565.433 L453.681,552.948 L454.781,552.948 C460.446,552.728 462.481,554.763 462.701,560.868 L465.286,560.868 L465.286,542.828 L462.701,542.828 C462.371,548.218 460.226,550.308 455.001,550.363 L453.681,550.363 L453.681,537.823 C453.626,535.513 454.176,535.128 457.146,535.073 L459.676,535.073 C468.696,535.018 470.951,537.053 472.656,546.513 L475.076,546.513 L474.306,532.488 "/>
<path class="Harmony" d="M2408.2,532.103 L2406.11,532.103 L2403.91,535.348 C2399.9,532.433 2397.86,531.663 2394.07,531.663 C2388.84,531.663 2384.39,533.863 2380.7,538.263 C2377.18,542.443 2375.53,547.063 2375.53,552.728 C2375.53,564.608 2383.29,573.023 2394.12,573.023 C2402.92,573.023 2408.53,567.853 2409.8,558.613 L2407.21,558.173 C2405.73,566.368 2401.55,570.438 2394.78,570.438 C2386.64,570.438 2382.79,564.828 2382.79,552.948 C2382.79,546.678 2383.62,542.553 2385.49,539.253 C2387.19,536.173 2390.55,534.248 2394.12,534.248 C2397.97,534.248 2401.38,536.283 2403.47,539.803 C2404.52,541.618 2405.29,543.653 2406.61,547.998 L2409.03,547.998 L2408.2,532.103 "/>
<path class="Harmony" d="M2418.46,546.788 L2420.88,547.173 L2421.87,542.828 C2422.69,539.198 2423.08,538.648 2424.67,538.648 C2424.95,538.648 2425.39,538.648 2425.88,538.703 C2432.65,539.033 2432.65,539.033 2435.18,539.033 C2435.89,539.033 2437.16,539.033 2438.7,538.978 L2434.96,546.513 C2430.89,554.598 2430.39,555.588 2429.02,558.998 C2427.31,563.123 2426.43,566.588 2426.43,568.898 C2426.43,571.428 2427.75,572.968 2429.9,572.968 C2432.54,572.968 2433.58,571.208 2433.53,566.423 C2433.25,558.503 2434.24,554.653 2440.13,541.783 C2441.12,539.638 2442.16,537.438 2443.15,535.293 L2443.15,533.698 C2439.85,533.973 2438.09,534.083 2434.68,534.083 C2429.9,534.083 2426.1,533.918 2420.16,533.478 L2418.46,546.788 "/>
<path class="Harmony" d="M889.31,532.488 L856.585,532.488 L856.585,535.073 L857.575,535.073 C860.71,535.128 861.755,535.293 862.195,535.843 C862.525,536.338 862.525,536.448 862.525,539.253 L862.525,565.433 C862.525,568.238 862.525,568.348 862.195,568.843 C861.755,569.393 860.71,569.613 857.575,569.613 L856.585,569.613 L856.585,572.198 L875.45,572.198 L875.45,569.613 L873.635,569.613 C870.5,569.613 869.455,569.393 869.015,568.843 C868.685,568.348 868.685,568.183 868.685,565.433 L868.685,552.948 L869.785,552.948 C875.45,552.728 877.485,554.763 877.705,560.868 L880.29,560.868 L880.29,542.828 L877.705,542.828 C877.375,548.218 875.23,550.308 870.005,550.363 L868.685,550.363 L868.685,537.823 C868.63,535.513 869.18,535.128 872.15,535.073 L874.68,535.073 C883.7,535.018 885.955,537.053 887.66,546.513 L890.08,546.513 L889.31,532.488 "/>
<path class="Harmony" d="M1710.25,1003.69 L1677.52,1003.69 L1677.52,1006.27 L1678.51,1006.27 C1681.65,1006.33 1682.69,1006.49 1683.13,1007.04 C1683.46,1007.54 1683.46,1007.65 1683.46,1010.45 L1683.46,1036.63 C1683.46,1039.44 1683.46,1039.55 1683.13,1040.04 C1682.69,1040.59 1681.65,1040.81 1678.51,1040.81 L1677.52,1040.81 L1677.52,1043.4 L1696.39,1043.4 L1696.39,1040.81 L1694.57,1040.81 C1691.44,1040.81 1690.39,1040.59 1689.95,1040.04 C1689.62,1039.55 1689.62,1039.38 1689.62,1036.63 L1689.62,1024.15 L1690.72,1024.15 C1696.39,1023.93 1698.42,1025.96 1698.64,1032.07 L1701.23,1032.07 L1701.23,1014.03 L1698.64,1014.03 C1698.31,1019.42 1696.17,1021.51 1690.94,1021.56 L1689.62,1021.56 L1689.62,1009.02 C1689.57,1006.71 1690.12,1006.33 1693.09,1006.27 L1695.62,1006.27 C1704.64,1006.22 1706.89,1008.25 1708.6,1017.71 L1711.02,1017.71 L1710.25,1003.69 "/>
<path class="Harmony" d="M1162.31,1003.69 L1129.59,1003.69 L1129.59,1006.27 L1130.58,1006.27 C1133.71,1006.33 1134.76,1006.49 1135.2,1007.04 C1135.53,1007.54 1135.53,1007.65 1135.53,1010.45 L1135.53,1036.63 C1135.53,1039.44 1135.53,1039.55 1135.2,1040.04 C1134.76,1040.59 1133.71,1040.81 1130.58,1040.81 L1129.59,1040.81 L1129.59,1043.4 L1148.45,1043.4 L1148.45,1040.81 L1146.64,1040.81 C1143.5,1040.81 1142.46,1040.59 1142.02,1040.04 C1141.69,1039.55 1141.69,1039.38 1141.69,1036.63 L1141.69,1024.15 L1142.79,1024.15 C1148.45,1023.93 1150.49,1025.96 1150.71,1032.07 L1153.29,1032.07 L1153.29,1014.03 L1150.71,1014.03 C1150.38,1019.42 1148.23,1021.51 1143.01,1021.56 L1141.69,1021.56 L1141.69,1009.02 C1141.63,1006.71 1142.18,1006.33 1145.15,1006.27 L1147.68,1006.27 C1156.7,1006.22 1158.96,1008.25 1160.66,1017.71 L1163.08,1017.71 L1162.31,1003.69 "/>
<path class="Harmony" d="M435.572,1003.69 L402.847,1003.69 L402.847,1006.27 L403.837,1006.27 C406.972,1006.33 408.017,1006.49 408.457,1007.04 C408.787,1007.54 408.787,1007.65 408.787,1010.45 L408.787,1036.63 C408.787,1039.44 408.787,1039.55 408.457,1040.04 C408.017,1040.59 406.972,1040.81 403.837,1040.81 L402.847,1040.81 L402.847,1043.4 L421.712,1043.4 L421.712,1040.81 L419.897,1040.81 C416.762,1040.81 415.717,1040.59 415.277,1040.04 C414.947,1039.55 414.947,1039.38 414.947,1036.63 L414.947,1024.15 L416.047,1024.15 C421.712,1023.93 423.747,1025.96 423.967,1032.07 L426.552,1032.07 L426.552,1014.03 L423.967,1014.03 C423.637,1019.42 421.492,1021.51 416.267,1021.56 L414.947,1021.56 L414.947,1009.02 C414.892,1006.71 415.442,1006.33 418.412,1006.27 L420.942,1006.27 C429.962,1006.22 432.217,1008.25 433.922,1017.71 L436.342,1017.71 L435.572,1003.69 "/>
<path class="Harmony" d="M2364.35,1003.3 L2362.26,1003.3 L2360.06,1006.55 C2356.04,1003.63 2354.01,1002.86 2350.21,1002.86 C2344.99,1002.86 2340.53,1005.06 2336.85,1009.46 C2333.33,1013.64 2331.68,1018.26 2331.68,1023.93 C2331.68,1035.81 2339.43,1044.22 2350.27,1044.22 C2359.07,1044.22 2364.68,1039.05 2365.94,1029.81 L2363.36,1029.37 C2361.87,1037.57 2357.69,1041.64 2350.93,1041.64 C2342.79,1041.64 2338.94,1036.03 2338.94,1024.15 C2338.94,1017.88 2339.76,1013.75 2341.63,1010.45 C2343.34,1007.37 2346.69,1005.45 2350.27,1005.45 C2354.12,1005.45 2357.53,1007.48 2359.62,1011 C2360.66,1012.82 2361.43,1014.85 2362.75,1019.2 L2365.17,1019.2 L2364.35,1003.3 "/>
<path class="Harmony" d="M2374.6,1017.99 L2377.02,1018.37 L2378.01,1014.03 C2378.84,1010.4 2379.22,1009.85 2380.82,1009.85 C2381.09,1009.85 2381.53,1009.85 2382.03,1009.9 C2388.79,1010.23 2388.79,1010.23 2391.32,1010.23 C2392.04,1010.23 2393.3,1010.23 2394.84,1010.18 L2391.1,1017.71 C2387.03,1025.8 2386.54,1026.79 2385.16,1030.2 C2383.46,1034.32 2382.58,1037.79 2382.58,1040.1 C2382.58,1042.63 2383.9,1044.17 2386.04,1044.17 C2388.68,1044.17 2389.73,1042.41 2389.67,1037.62 C2389.4,1029.7 2390.39,1025.85 2396.27,1012.98 C2397.26,1010.84 2398.31,1008.64 2399.3,1006.49 L2399.3,1004.9 C2396,1005.17 2394.24,1005.28 2390.83,1005.28 C2386.04,1005.28 2382.25,1005.12 2376.31,1004.68 L2374.6,1017.99 "/>
<path class="Harmony" d="M2179.24,532.488 L2146.52,532.488 L2146.52,535.073 L2147.51,535.073 C2150.64,535.128 2151.69,535.293 2152.13,535.843 C2152.46,536.338 2152.46,536.448 2152.46,539.253 L2152.46,565.433 C2152.46,568.238 2152.46,568.348 2152.13,568.843 C2151.69,569.393 2150.64,569.613 2147.51,569.613 L2146.52,569.613 L2146.52,572.198 L2165.38,572.198 L2165.38,569.613 L2163.57,569.613 C2160.43,569.613 2159.39,569.393 2158.95,568.843 C2158.62,568.348 2158.62,568.183 2158.62,565.433 L2158.62,552.948 L2159.72,552.948 C2165.38,552.728 2167.42,554.763 2167.64,560.868 L2170.22,560.868 L2170.22,542.828 L2167.64,542.828 C2167.31,548.218 2165.16,550.308 2159.94,550.363 L2158.62,550.363 L2158.62,537.823 C2158.56,535.513 2159.11,535.128 2162.08,535.073 L2164.61,535.073 C2173.63,535.018 2175.89,537.053 2177.59,546.513 L2180.01,546.513 L2179.24,532.488 "/>
<path class="Harmony" d="M2035.01,532.488 L2002.29,532.488 L2002.29,535.073 L2003.28,535.073 C2006.41,535.128 2007.46,535.293 2007.9,535.843 C2008.23,536.338 2008.23,536.448 2008.23,539.253 L2008.23,565.433 C2008.23,568.238 2008.23,568.348 2007.9,568.843 C2007.46,569.393 2006.41,569.613 2003.28,569.613 L2002.29,569.613 L2002.29,572.198 L2021.15,572.198 L2021.15,569.613 L2019.34,569.613 C2016.2,569.613 2015.16,569.393 2014.72,568.843 C2014.39,568.348 2014.39,568.183 2014.39,565.433 L2014.39,552.948 L2015.49,552.948 C2021.15,552.728 2023.19,554.763 2023.41,560.868 L2025.99,560.868 L2025.99,542.828 L2023.41,542.828 C2023.08,548.218 2020.93,550.308 2015.71,550.363 L2014.39,550.363 L2014.39,537.823 C2014.33,535.513 2014.88,535.128 2017.85,535.073 L2020.38,535.073 C2029.4,535.018 2031.66,537.053 2033.36,546.513 L2035.78,546.513 L2035.01,532.488 "/>
<path class="Harmony" d="M994.943,1003.69 L962.218,1003.69 L962.218,1006.27 L963.208,1006.27 C966.343,1006.33 967.388,1006.49 967.828,1007.04 C968.158,1007.54 968.158,1007.65 968.158,1010.45 L968.158,1036.63 C968.158,1039.44 968.158,1039.55 967.828,1040.04 C967.388,1040.59 966.343,1040.81 963.208,1040.81 L962.218,1040.81 L962.218,1043.4 L981.083,1043.4 L981.083,1040.81 L979.268,1040.81 C976.133,1040.81 975.088,1040.59 974.648,1040.04 C974.318,1039.55 974.318,1039.38 974.318,1036.63 L974.318,1024.15 L975.418,1024.15 C981.083,1023.93 983.118,1025.96 983.338,1032.07 L985.923,1032.07 L985.923,1014.03 L983.338,1014.03 C983.008,1019.42 980.863,1021.51 975.638,1021.56 L974.318,1021.56 L974.318,1009.02 C974.263,1006.71 974.813,1006.33 977.783,1006.27 L980.313,1006.27 C989.333,1006.22 991.588,1008.25 993.293,1017.71 L995.713,1017.71 L994.943,1003.69 "/>
<path class="NoteDot" transform="matrix(0.992,0,0,0.992,486.204,696.198)" d="M0,0 C0,2.8 2.2,5 5,5 C7.8,5 10,2.8 10,0 C10,-2.8 7.8,-5 5,-5 C2.2,-5 0,-2.8 0,0"/>
<path class="NoteDot" transform="matrix(0.992,0,0,0.992,1316.21,720.998)" d="M0,0 C0,2.8 2.2,5 5,5 C7.8,5 10,2.8 10,0 C10,-2.8 7.8,-5 5,-5 C2.2,-5 0,-2.8 0,0"/>
<path class="NoteDot" transform="matrix(0.992,0,0,0.992,1553.64,1192.2)" d="M0,0 C0,2.8 2.2,5 5,5 C7.8,5 10,2.8 10,0 C10,-2.8 7.8,-5 5,-5 C2.2,-5 0,-2.8 0,0"/>
<path class="NoteDot" transform="matrix(0.992,0,0,0.992,1731.22,696.198)" d="M0,0 C0,2.8 2.2,5 5,5 C7.8,5 10,2.8 10,0 C10,-2.8 7.8,-5 5,-5 C2.2,-5 0,-2.8 0,0"/>
<path class="NoteDot" transform="matrix(0.992,0,0,0.992,1174.21,1142.6)" d="M0,0 C0,2.8 2.2,5 5,5 C7.8,5 10,2.8 10,0 C10,-2.8 7.8,-5 5,-5 C2.2,-5 0,-2.8 0,0"/>
<path class="NoteDot" transform="matrix(0.992,0,0,0.992,901.208,696.198)" d="M0,0 C0,2.8 2.2,5 5,5 C7.8,5 10,2.8 10,0 C10,-2.8 7.8,-5 5,-5 C2.2,-5 0,-2.8 0,0"/>
</svg>
